<?xml version="1.0" encoding="utf-8"?>
<svg xmlns="http://www.w3.org/2000/svg" xmlns:xlink="http://www.w3.org/1999/xlink" width="600" height="400" viewBox="0 0 2400 1600">
<defs>
  <clipPath id="clip320">
    <rect x="0" y="0" width="2400" height="1600"/>
  </clipPath>
</defs>
<path clip-path="url(#clip320)" d="M0 1600 L2400 1600 L2400 0 L0 0  Z" fill="#ffffff" fill-rule="evenodd" fill-opacity="1"/>
<defs>
  <clipPath id="clip321">
    <rect x="242" y="47" width="2112" height="1377"/>
  </clipPath>
</defs>
<path clip-path="url(#clip320)" d="M251.372 1423.18 L2352.76 1423.18 L2352.76 47.2441 L251.372 47.2441  Z" fill="#ffffff" fill-rule="evenodd" fill-opacity="1"/>
<defs>
  <clipPath id="clip322">
    <rect x="251" y="47" width="2102" height="1377"/>
  </clipPath>
</defs>
<polyline clip-path="url(#clip322)" style="stroke:#000000; stroke-linecap:round; stroke-linejoin:round; stroke-width:2; stroke-opacity:0.1; fill:none" points="308.861,1423.18 308.861,47.2441 "/>
<polyline clip-path="url(#clip322)" style="stroke:#000000; stroke-linecap:round; stroke-linejoin:round; stroke-width:2; stroke-opacity:0.1; fill:none" points="804.966,1423.18 804.966,47.2441 "/>
<polyline clip-path="url(#clip322)" style="stroke:#000000; stroke-linecap:round; stroke-linejoin:round; stroke-width:2; stroke-opacity:0.1; fill:none" points="1301.07,1423.18 1301.07,47.2441 "/>
<polyline clip-path="url(#clip322)" style="stroke:#000000; stroke-linecap:round; stroke-linejoin:round; stroke-width:2; stroke-opacity:0.1; fill:none" points="1797.18,1423.18 1797.18,47.2441 "/>
<polyline clip-path="url(#clip322)" style="stroke:#000000; stroke-linecap:round; stroke-linejoin:round; stroke-width:2; stroke-opacity:0.1; fill:none" points="2293.28,1423.18 2293.28,47.2441 "/>
<polyline clip-path="url(#clip322)" style="stroke:#000000; stroke-linecap:round; stroke-linejoin:round; stroke-width:2; stroke-opacity:0.1; fill:none" points="251.372,1079.22 2352.76,1079.22 "/>
<polyline clip-path="url(#clip322)" style="stroke:#000000; stroke-linecap:round; stroke-linejoin:round; stroke-width:2; stroke-opacity:0.1; fill:none" points="251.372,527.185 2352.76,527.185 "/>
<polyline clip-path="url(#clip320)" style="stroke:#000000; stroke-linecap:round; stroke-linejoin:round; stroke-width:4; stroke-opacity:1; fill:none" points="251.372,1423.18 2352.76,1423.18 "/>
<polyline clip-path="url(#clip320)" style="stroke:#000000; stroke-linecap:round; stroke-linejoin:round; stroke-width:4; stroke-opacity:1; fill:none" points="308.861,1423.18 308.861,1404.28 "/>
<polyline clip-path="url(#clip320)" style="stroke:#000000; stroke-linecap:round; stroke-linejoin:round; stroke-width:4; stroke-opacity:1; fill:none" points="804.966,1423.18 804.966,1404.28 "/>
<polyline clip-path="url(#clip320)" style="stroke:#000000; stroke-linecap:round; stroke-linejoin:round; stroke-width:4; stroke-opacity:1; fill:none" points="1301.07,1423.18 1301.07,1404.28 "/>
<polyline clip-path="url(#clip320)" style="stroke:#000000; stroke-linecap:round; stroke-linejoin:round; stroke-width:4; stroke-opacity:1; fill:none" points="1797.18,1423.18 1797.18,1404.28 "/>
<polyline clip-path="url(#clip320)" style="stroke:#000000; stroke-linecap:round; stroke-linejoin:round; stroke-width:4; stroke-opacity:1; fill:none" points="2293.28,1423.18 2293.28,1404.28 "/>
<path clip-path="url(#clip320)" d="M308.861 1454.1 Q305.25 1454.1 303.421 1457.66 Q301.616 1461.2 301.616 1468.33 Q301.616 1475.44 303.421 1479.01 Q305.25 1482.55 308.861 1482.55 Q312.495 1482.55 314.301 1479.01 Q316.129 1475.44 316.129 1468.33 Q316.129 1461.2 314.301 1457.66 Q312.495 1454.1 308.861 1454.1 M308.861 1450.39 Q314.671 1450.39 317.727 1455 Q320.805 1459.58 320.805 1468.33 Q320.805 1477.06 317.727 1481.67 Q314.671 1486.25 308.861 1486.25 Q303.051 1486.25 299.972 1481.67 Q296.916 1477.06 296.916 1468.33 Q296.916 1459.58 299.972 1455 Q303.051 1450.39 308.861 1450.39 Z" fill="#000000" fill-rule="nonzero" fill-opacity="1" /><path clip-path="url(#clip320)" d="M768.659 1481.64 L784.978 1481.64 L784.978 1485.58 L763.034 1485.58 L763.034 1481.64 Q765.696 1478.89 770.279 1474.26 Q774.885 1469.61 776.066 1468.27 Q778.311 1465.74 779.191 1464.01 Q780.094 1462.25 780.094 1460.56 Q780.094 1457.8 778.149 1456.07 Q776.228 1454.33 773.126 1454.33 Q770.927 1454.33 768.473 1455.09 Q766.043 1455.86 763.265 1457.41 L763.265 1452.69 Q766.089 1451.55 768.543 1450.97 Q770.997 1450.39 773.034 1450.39 Q778.404 1450.39 781.598 1453.08 Q784.793 1455.77 784.793 1460.26 Q784.793 1462.39 783.983 1464.31 Q783.196 1466.2 781.089 1468.8 Q780.51 1469.47 777.409 1472.69 Q774.307 1475.88 768.659 1481.64 Z" fill="#000000" fill-rule="nonzero" fill-opacity="1" /><path clip-path="url(#clip320)" d="M794.839 1451.02 L813.195 1451.02 L813.195 1454.96 L799.121 1454.96 L799.121 1463.43 Q800.14 1463.08 801.159 1462.92 Q802.177 1462.73 803.196 1462.73 Q808.983 1462.73 812.362 1465.9 Q815.742 1469.08 815.742 1474.49 Q815.742 1480.07 812.27 1483.17 Q808.797 1486.25 802.478 1486.25 Q800.302 1486.25 798.034 1485.88 Q795.788 1485.51 793.381 1484.77 L793.381 1480.07 Q795.464 1481.2 797.686 1481.76 Q799.909 1482.32 802.385 1482.32 Q806.39 1482.32 808.728 1480.21 Q811.066 1478.1 811.066 1474.49 Q811.066 1470.88 808.728 1468.77 Q806.39 1466.67 802.385 1466.67 Q800.51 1466.67 798.635 1467.08 Q796.784 1467.5 794.839 1468.38 L794.839 1451.02 Z" fill="#000000" fill-rule="nonzero" fill-opacity="1" /><path clip-path="url(#clip320)" d="M834.955 1454.1 Q831.344 1454.1 829.515 1457.66 Q827.709 1461.2 827.709 1468.33 Q827.709 1475.44 829.515 1479.01 Q831.344 1482.55 834.955 1482.55 Q838.589 1482.55 840.394 1479.01 Q842.223 1475.44 842.223 1468.33 Q842.223 1461.2 840.394 1457.66 Q838.589 1454.1 834.955 1454.1 M834.955 1450.39 Q840.765 1450.39 843.82 1455 Q846.899 1459.58 846.899 1468.33 Q846.899 1477.06 843.82 1481.67 Q840.765 1486.25 834.955 1486.25 Q829.144 1486.25 826.066 1481.67 Q823.01 1477.06 823.01 1468.33 Q823.01 1459.58 826.066 1455 Q829.144 1450.39 834.955 1450.39 Z" fill="#000000" fill-rule="nonzero" fill-opacity="1" /><path clip-path="url(#clip320)" d="M1260.69 1451.02 L1279.05 1451.02 L1279.05 1454.96 L1264.97 1454.96 L1264.97 1463.43 Q1265.99 1463.08 1267.01 1462.92 Q1268.03 1462.73 1269.05 1462.73 Q1274.83 1462.73 1278.21 1465.9 Q1281.59 1469.08 1281.59 1474.49 Q1281.59 1480.07 1278.12 1483.17 Q1274.65 1486.25 1268.33 1486.25 Q1266.15 1486.25 1263.88 1485.88 Q1261.64 1485.51 1259.23 1484.77 L1259.23 1480.07 Q1261.32 1481.2 1263.54 1481.76 Q1265.76 1482.32 1268.24 1482.32 Q1272.24 1482.32 1274.58 1480.21 Q1276.92 1478.1 1276.92 1474.49 Q1276.92 1470.88 1274.58 1468.77 Q1272.24 1466.67 1268.24 1466.67 Q1266.36 1466.67 1264.49 1467.08 Q1262.63 1467.5 1260.69 1468.38 L1260.69 1451.02 Z" fill="#000000" fill-rule="nonzero" fill-opacity="1" /><path clip-path="url(#clip320)" d="M1300.81 1454.1 Q1297.19 1454.1 1295.37 1457.66 Q1293.56 1461.2 1293.56 1468.33 Q1293.56 1475.44 1295.37 1479.01 Q1297.19 1482.55 1300.81 1482.55 Q1304.44 1482.55 1306.25 1479.01 Q1308.07 1475.44 1308.07 1468.33 Q1308.07 1461.2 1306.25 1457.66 Q1304.44 1454.1 1300.81 1454.1 M1300.81 1450.39 Q1306.62 1450.39 1309.67 1455 Q1312.75 1459.58 1312.75 1468.33 Q1312.75 1477.06 1309.67 1481.67 Q1306.62 1486.25 1300.81 1486.25 Q1295 1486.25 1291.92 1481.67 Q1288.86 1477.06 1288.86 1468.33 Q1288.86 1459.58 1291.92 1455 Q1295 1450.39 1300.81 1450.39 Z" fill="#000000" fill-rule="nonzero" fill-opacity="1" /><path clip-path="url(#clip320)" d="M1330.97 1454.1 Q1327.36 1454.1 1325.53 1457.66 Q1323.72 1461.2 1323.72 1468.33 Q1323.72 1475.44 1325.53 1479.01 Q1327.36 1482.55 1330.97 1482.55 Q1334.6 1482.55 1336.41 1479.01 Q1338.24 1475.44 1338.24 1468.33 Q1338.24 1461.2 1336.41 1457.66 Q1334.6 1454.1 1330.97 1454.1 M1330.97 1450.39 Q1336.78 1450.39 1339.83 1455 Q1342.91 1459.58 1342.91 1468.33 Q1342.91 1477.06 1339.83 1481.67 Q1336.78 1486.25 1330.97 1486.25 Q1325.16 1486.25 1322.08 1481.67 Q1319.02 1477.06 1319.02 1468.33 Q1319.02 1459.58 1322.08 1455 Q1325.16 1450.39 1330.97 1450.39 Z" fill="#000000" fill-rule="nonzero" fill-opacity="1" /><path clip-path="url(#clip320)" d="M1755.45 1451.02 L1777.68 1451.02 L1777.68 1453.01 L1765.13 1485.58 L1760.24 1485.58 L1772.05 1454.96 L1755.45 1454.96 L1755.45 1451.02 Z" fill="#000000" fill-rule="nonzero" fill-opacity="1" /><path clip-path="url(#clip320)" d="M1786.84 1451.02 L1805.2 1451.02 L1805.2 1454.96 L1791.12 1454.96 L1791.12 1463.43 Q1792.14 1463.08 1793.16 1462.92 Q1794.18 1462.73 1795.2 1462.73 Q1800.99 1462.73 1804.36 1465.9 Q1807.74 1469.08 1807.74 1474.49 Q1807.74 1480.07 1804.27 1483.17 Q1800.8 1486.25 1794.48 1486.25 Q1792.3 1486.25 1790.04 1485.88 Q1787.79 1485.51 1785.38 1484.77 L1785.38 1480.07 Q1787.47 1481.2 1789.69 1481.76 Q1791.91 1482.32 1794.39 1482.32 Q1798.39 1482.32 1800.73 1480.21 Q1803.07 1478.1 1803.07 1474.49 Q1803.07 1470.88 1800.73 1468.77 Q1798.39 1466.67 1794.39 1466.67 Q1792.51 1466.67 1790.64 1467.08 Q1788.79 1467.5 1786.84 1468.38 L1786.84 1451.02 Z" fill="#000000" fill-rule="nonzero" fill-opacity="1" /><path clip-path="url(#clip320)" d="M1826.96 1454.1 Q1823.35 1454.1 1821.52 1457.66 Q1819.71 1461.2 1819.71 1468.33 Q1819.71 1475.44 1821.52 1479.01 Q1823.35 1482.55 1826.96 1482.55 Q1830.59 1482.55 1832.4 1479.01 Q1834.23 1475.44 1834.23 1468.33 Q1834.23 1461.2 1832.4 1457.66 Q1830.59 1454.1 1826.96 1454.1 M1826.96 1450.39 Q1832.77 1450.39 1835.82 1455 Q1838.9 1459.58 1838.9 1468.33 Q1838.9 1477.06 1835.82 1481.67 Q1832.77 1486.25 1826.96 1486.25 Q1821.15 1486.25 1818.07 1481.67 Q1815.01 1477.06 1815.01 1468.33 Q1815.01 1459.58 1818.07 1455 Q1821.15 1450.39 1826.96 1450.39 Z" fill="#000000" fill-rule="nonzero" fill-opacity="1" /><path clip-path="url(#clip320)" d="M2237.81 1481.64 L2245.45 1481.64 L2245.45 1455.28 L2237.14 1456.95 L2237.14 1452.69 L2245.4 1451.02 L2250.08 1451.02 L2250.08 1481.64 L2257.72 1481.64 L2257.72 1485.58 L2237.81 1485.58 L2237.81 1481.64 Z" fill="#000000" fill-rule="nonzero" fill-opacity="1" /><path clip-path="url(#clip320)" d="M2277.16 1454.1 Q2273.55 1454.1 2271.72 1457.66 Q2269.91 1461.2 2269.91 1468.33 Q2269.91 1475.44 2271.72 1479.01 Q2273.55 1482.55 2277.16 1482.55 Q2280.79 1482.55 2282.6 1479.01 Q2284.43 1475.44 2284.43 1468.33 Q2284.43 1461.2 2282.6 1457.66 Q2280.79 1454.1 2277.16 1454.1 M2277.16 1450.39 Q2282.97 1450.39 2286.03 1455 Q2289.1 1459.58 2289.1 1468.33 Q2289.1 1477.06 2286.03 1481.67 Q2282.97 1486.25 2277.16 1486.25 Q2271.35 1486.25 2268.27 1481.67 Q2265.22 1477.06 2265.22 1468.33 Q2265.22 1459.58 2268.27 1455 Q2271.35 1450.39 2277.16 1450.39 Z" fill="#000000" fill-rule="nonzero" fill-opacity="1" /><path clip-path="url(#clip320)" d="M2307.32 1454.1 Q2303.71 1454.1 2301.88 1457.66 Q2300.08 1461.2 2300.08 1468.33 Q2300.08 1475.44 2301.88 1479.01 Q2303.71 1482.55 2307.32 1482.55 Q2310.96 1482.55 2312.76 1479.01 Q2314.59 1475.44 2314.59 1468.33 Q2314.59 1461.2 2312.76 1457.66 Q2310.96 1454.1 2307.32 1454.1 M2307.32 1450.39 Q2313.13 1450.39 2316.19 1455 Q2319.27 1459.58 2319.27 1468.33 Q2319.27 1477.06 2316.19 1481.67 Q2313.13 1486.25 2307.32 1486.25 Q2301.51 1486.25 2298.43 1481.67 Q2295.38 1477.06 2295.38 1468.33 Q2295.38 1459.58 2298.43 1455 Q2301.51 1450.39 2307.32 1450.39 Z" fill="#000000" fill-rule="nonzero" fill-opacity="1" /><path clip-path="url(#clip320)" d="M2337.48 1454.1 Q2333.87 1454.1 2332.04 1457.66 Q2330.24 1461.2 2330.24 1468.33 Q2330.24 1475.44 2332.04 1479.01 Q2333.87 1482.55 2337.48 1482.55 Q2341.12 1482.55 2342.92 1479.01 Q2344.75 1475.44 2344.75 1468.33 Q2344.75 1461.2 2342.92 1457.66 Q2341.12 1454.1 2337.48 1454.1 M2337.48 1450.39 Q2343.29 1450.39 2346.35 1455 Q2349.43 1459.58 2349.43 1468.33 Q2349.43 1477.06 2346.35 1481.67 Q2343.29 1486.25 2337.48 1486.25 Q2331.67 1486.25 2328.6 1481.67 Q2325.54 1477.06 2325.54 1468.33 Q2325.54 1459.58 2328.6 1455 Q2331.67 1450.39 2337.48 1450.39 Z" fill="#000000" fill-rule="nonzero" fill-opacity="1" /><path clip-path="url(#clip320)" d="M1169.78 1520.52 L1176.21 1520.52 L1176.21 1568.04 L1169.78 1568.04 L1169.78 1520.52 Z" fill="#000000" fill-rule="nonzero" fill-opacity="1" /><path clip-path="url(#clip320)" d="M1194.55 1522.27 L1194.55 1532.4 L1206.61 1532.4 L1206.61 1536.95 L1194.55 1536.95 L1194.55 1556.3 Q1194.55 1560.66 1195.72 1561.9 Q1196.93 1563.14 1200.59 1563.14 L1206.61 1563.14 L1206.61 1568.04 L1200.59 1568.04 Q1193.82 1568.04 1191.24 1565.53 Q1188.66 1562.98 1188.66 1556.3 L1188.66 1536.95 L1184.36 1536.95 L1184.36 1532.4 L1188.66 1532.4 L1188.66 1522.27 L1194.55 1522.27 Z" fill="#000000" fill-rule="nonzero" fill-opacity="1" /><path clip-path="url(#clip320)" d="M1244.8 1548.76 L1244.8 1551.62 L1217.88 1551.62 Q1218.26 1557.67 1221.51 1560.85 Q1224.78 1564 1230.61 1564 Q1233.98 1564 1237.13 1563.17 Q1240.32 1562.35 1243.44 1560.69 L1243.44 1566.23 Q1240.28 1567.57 1236.97 1568.27 Q1233.66 1568.97 1230.26 1568.97 Q1221.73 1568.97 1216.73 1564 Q1211.77 1559.04 1211.77 1550.57 Q1211.77 1541.82 1216.48 1536.69 Q1221.22 1531.54 1229.24 1531.54 Q1236.43 1531.54 1240.6 1536.18 Q1244.8 1540.8 1244.8 1548.76 M1238.95 1547.04 Q1238.88 1542.23 1236.24 1539.37 Q1233.63 1536.5 1229.3 1536.5 Q1224.4 1536.5 1221.44 1539.27 Q1218.51 1542.04 1218.07 1547.07 L1238.95 1547.04 Z" fill="#000000" fill-rule="nonzero" fill-opacity="1" /><path clip-path="url(#clip320)" d="M1275.07 1537.87 Q1274.09 1537.3 1272.91 1537.04 Q1271.76 1536.76 1270.36 1536.76 Q1265.4 1536.76 1262.72 1540 Q1260.08 1543.22 1260.08 1549.27 L1260.08 1568.04 L1254.19 1568.04 L1254.19 1532.4 L1260.08 1532.4 L1260.08 1537.93 Q1261.93 1534.69 1264.89 1533.13 Q1267.85 1531.54 1272.08 1531.54 Q1272.69 1531.54 1273.42 1531.63 Q1274.15 1531.7 1275.04 1531.85 L1275.07 1537.87 Z" fill="#000000" fill-rule="nonzero" fill-opacity="1" /><path clip-path="url(#clip320)" d="M1297.42 1550.12 Q1290.32 1550.12 1287.58 1551.75 Q1284.84 1553.37 1284.84 1557.29 Q1284.84 1560.4 1286.88 1562.25 Q1288.95 1564.07 1292.48 1564.07 Q1297.35 1564.07 1300.28 1560.63 Q1303.24 1557.16 1303.24 1551.43 L1303.24 1550.12 L1297.42 1550.12 M1309.1 1547.71 L1309.1 1568.04 L1303.24 1568.04 L1303.24 1562.63 Q1301.24 1565.88 1298.24 1567.44 Q1295.25 1568.97 1290.92 1568.97 Q1285.45 1568.97 1282.2 1565.91 Q1278.99 1562.82 1278.99 1557.67 Q1278.99 1551.65 1283 1548.6 Q1287.04 1545.54 1295.03 1545.54 L1303.24 1545.54 L1303.24 1544.97 Q1303.24 1540.93 1300.57 1538.73 Q1297.93 1536.5 1293.12 1536.5 Q1290.06 1536.5 1287.17 1537.23 Q1284.27 1537.97 1281.6 1539.43 L1281.6 1534.02 Q1284.81 1532.78 1287.84 1532.17 Q1290.86 1531.54 1293.72 1531.54 Q1301.46 1531.54 1305.28 1535.55 Q1309.1 1539.56 1309.1 1547.71 Z" fill="#000000" fill-rule="nonzero" fill-opacity="1" /><path clip-path="url(#clip320)" d="M1326.95 1522.27 L1326.95 1532.4 L1339.02 1532.4 L1339.02 1536.95 L1326.95 1536.95 L1326.95 1556.3 Q1326.95 1560.66 1328.13 1561.9 Q1329.34 1563.14 1333 1563.14 L1339.02 1563.14 L1339.02 1568.04 L1333 1568.04 Q1326.22 1568.04 1323.64 1565.53 Q1321.07 1562.98 1321.07 1556.3 L1321.07 1536.95 L1316.77 1536.95 L1316.77 1532.4 L1321.07 1532.4 L1321.07 1522.27 L1326.95 1522.27 Z" fill="#000000" fill-rule="nonzero" fill-opacity="1" /><path clip-path="url(#clip320)" d="M1346.72 1532.4 L1352.58 1532.4 L1352.58 1568.04 L1346.72 1568.04 L1346.72 1532.4 M1346.72 1518.52 L1352.58 1518.52 L1352.58 1525.93 L1346.72 1525.93 L1346.72 1518.52 Z" fill="#000000" fill-rule="nonzero" fill-opacity="1" /><path clip-path="url(#clip320)" d="M1378.64 1536.5 Q1373.93 1536.5 1371.2 1540.19 Q1368.46 1543.85 1368.46 1550.25 Q1368.46 1556.65 1371.16 1560.34 Q1373.9 1564 1378.64 1564 Q1383.32 1564 1386.06 1560.31 Q1388.8 1556.62 1388.8 1550.25 Q1388.8 1543.92 1386.06 1540.23 Q1383.32 1536.5 1378.64 1536.5 M1378.64 1531.54 Q1386.28 1531.54 1390.64 1536.5 Q1395 1541.47 1395 1550.25 Q1395 1559 1390.64 1564 Q1386.28 1568.97 1378.64 1568.97 Q1370.97 1568.97 1366.61 1564 Q1362.28 1559 1362.28 1550.25 Q1362.28 1541.47 1366.61 1536.5 Q1370.97 1531.54 1378.64 1531.54 Z" fill="#000000" fill-rule="nonzero" fill-opacity="1" /><path clip-path="url(#clip320)" d="M1434.34 1546.53 L1434.34 1568.04 L1428.49 1568.04 L1428.49 1546.72 Q1428.49 1541.66 1426.51 1539.14 Q1424.54 1536.63 1420.59 1536.63 Q1415.85 1536.63 1413.11 1539.65 Q1410.38 1542.68 1410.38 1547.9 L1410.38 1568.04 L1404.49 1568.04 L1404.49 1532.4 L1410.38 1532.4 L1410.38 1537.93 Q1412.48 1534.72 1415.31 1533.13 Q1418.17 1531.54 1421.9 1531.54 Q1428.04 1531.54 1431.19 1535.36 Q1434.34 1539.14 1434.34 1546.53 Z" fill="#000000" fill-rule="nonzero" fill-opacity="1" /><polyline clip-path="url(#clip320)" style="stroke:#000000; stroke-linecap:round; stroke-linejoin:round; stroke-width:4; stroke-opacity:1; fill:none" points="251.372,1423.18 251.372,47.2441 "/>
<polyline clip-path="url(#clip320)" style="stroke:#000000; stroke-linecap:round; stroke-linejoin:round; stroke-width:4; stroke-opacity:1; fill:none" points="251.372,1079.22 270.27,1079.22 "/>
<polyline clip-path="url(#clip320)" style="stroke:#000000; stroke-linecap:round; stroke-linejoin:round; stroke-width:4; stroke-opacity:1; fill:none" points="251.372,527.185 270.27,527.185 "/>
<path clip-path="url(#clip320)" d="M114.931 1099.01 L122.57 1099.01 L122.57 1072.65 L114.26 1074.31 L114.26 1070.06 L122.524 1068.39 L127.2 1068.39 L127.2 1099.01 L134.839 1099.01 L134.839 1102.95 L114.931 1102.95 L114.931 1099.01 Z" fill="#000000" fill-rule="nonzero" fill-opacity="1" /><path clip-path="url(#clip320)" d="M154.283 1071.47 Q150.672 1071.47 148.843 1075.03 Q147.038 1078.57 147.038 1085.7 Q147.038 1092.81 148.843 1096.38 Q150.672 1099.92 154.283 1099.92 Q157.917 1099.92 159.723 1096.38 Q161.552 1092.81 161.552 1085.7 Q161.552 1078.57 159.723 1075.03 Q157.917 1071.47 154.283 1071.47 M154.283 1067.76 Q160.093 1067.76 163.149 1072.37 Q166.227 1076.95 166.227 1085.7 Q166.227 1094.43 163.149 1099.04 Q160.093 1103.62 154.283 1103.62 Q148.473 1103.62 145.394 1099.04 Q142.339 1094.43 142.339 1085.7 Q142.339 1076.95 145.394 1072.37 Q148.473 1067.76 154.283 1067.76 Z" fill="#000000" fill-rule="nonzero" fill-opacity="1" /><path clip-path="url(#clip320)" d="M166.227 1061.87 L190.339 1061.87 L190.339 1065.06 L166.227 1065.06 L166.227 1061.87 Z" fill="#000000" fill-rule="nonzero" fill-opacity="1" /><path clip-path="url(#clip320)" d="M199.197 1072.34 L205.404 1072.34 L205.404 1050.92 L198.652 1052.27 L198.652 1048.81 L205.366 1047.46 L209.166 1047.46 L209.166 1072.34 L215.372 1072.34 L215.372 1075.54 L199.197 1075.54 L199.197 1072.34 Z" fill="#000000" fill-rule="nonzero" fill-opacity="1" /><path clip-path="url(#clip320)" d="M144.667 546.977 L152.305 546.977 L152.305 520.612 L143.995 522.278 L143.995 518.019 L152.259 516.352 L156.935 516.352 L156.935 546.977 L164.574 546.977 L164.574 550.912 L144.667 550.912 L144.667 546.977 Z" fill="#000000" fill-rule="nonzero" fill-opacity="1" /><path clip-path="url(#clip320)" d="M184.018 519.431 Q180.407 519.431 178.578 522.996 Q176.773 526.538 176.773 533.667 Q176.773 540.774 178.578 544.338 Q180.407 547.88 184.018 547.88 Q187.652 547.88 189.458 544.338 Q191.287 540.774 191.287 533.667 Q191.287 526.538 189.458 522.996 Q187.652 519.431 184.018 519.431 M184.018 515.727 Q189.828 515.727 192.884 520.334 Q195.963 524.917 195.963 533.667 Q195.963 542.394 192.884 547 Q189.828 551.584 184.018 551.584 Q178.208 551.584 175.129 547 Q172.074 542.394 172.074 533.667 Q172.074 524.917 175.129 520.334 Q178.208 515.727 184.018 515.727 Z" fill="#000000" fill-rule="nonzero" fill-opacity="1" /><path clip-path="url(#clip320)" d="M205.667 497.923 Q202.733 497.923 201.248 500.82 Q199.781 503.697 199.781 509.49 Q199.781 515.264 201.248 518.161 Q202.733 521.038 205.667 521.038 Q208.62 521.038 210.087 518.161 Q211.573 515.264 211.573 509.49 Q211.573 503.697 210.087 500.82 Q208.62 497.923 205.667 497.923 M205.667 494.914 Q210.388 494.914 212.871 498.657 Q215.372 502.381 215.372 509.49 Q215.372 516.581 212.871 520.324 Q210.388 524.047 205.667 524.047 Q200.947 524.047 198.445 520.324 Q195.963 516.581 195.963 509.49 Q195.963 502.381 198.445 498.657 Q200.947 494.914 205.667 494.914 Z" fill="#000000" fill-rule="nonzero" fill-opacity="1" /><path clip-path="url(#clip320)" d="M33.7671 1042.8 L14.479 1042.8 L14.479 1036.95 L64.0042 1036.95 L64.0042 1042.8 L58.657 1042.8 Q61.8398 1044.65 63.3994 1047.48 Q64.9272 1050.28 64.9272 1054.23 Q64.9272 1060.69 59.771 1064.76 Q54.6147 1068.81 46.212 1068.81 Q37.8093 1068.81 32.6531 1064.76 Q27.4968 1060.69 27.4968 1054.23 Q27.4968 1050.28 29.0564 1047.48 Q30.5842 1044.65 33.7671 1042.8 M46.212 1062.76 Q52.6732 1062.76 56.3653 1060.12 Q60.0256 1057.44 60.0256 1052.8 Q60.0256 1048.15 56.3653 1045.48 Q52.6732 1042.8 46.212 1042.8 Q39.7508 1042.8 36.0905 1045.48 Q32.3984 1048.15 32.3984 1052.8 Q32.3984 1057.44 36.0905 1060.12 Q39.7508 1062.76 46.212 1062.76 Z" fill="#000000" fill-rule="nonzero" fill-opacity="1" /><path clip-path="url(#clip320)" d="M28.3562 1024.88 L28.3562 1019.03 L64.0042 1019.03 L64.0042 1024.88 L28.3562 1024.88 M14.479 1024.88 L14.479 1019.03 L21.895 1019.03 L21.895 1024.88 L14.479 1024.88 Z" fill="#000000" fill-rule="nonzero" fill-opacity="1" /><path clip-path="url(#clip320)" d="M29.4065 984.047 L34.9447 984.047 Q33.6716 986.53 33.035 989.204 Q32.3984 991.877 32.3984 994.742 Q32.3984 999.102 33.7352 1001.3 Q35.072 1003.46 37.7456 1003.46 Q39.7826 1003.46 40.9603 1001.9 Q42.1061 1000.34 43.1565 995.633 L43.6021 993.628 Q44.9389 987.389 47.3897 984.779 Q49.8086 982.138 54.1691 982.138 Q59.1344 982.138 62.0308 986.084 Q64.9272 989.999 64.9272 996.874 Q64.9272 999.739 64.3543 1002.86 Q63.8132 1005.95 62.6992 1009.38 L56.6518 1009.38 Q58.3387 1006.14 59.198 1002.99 Q60.0256 999.834 60.0256 996.747 Q60.0256 992.609 58.6251 990.381 Q57.1929 988.153 54.6147 988.153 Q52.2276 988.153 50.9545 989.777 Q49.6813 991.368 48.5037 996.811 L48.0262 998.848 Q46.8804 1004.29 44.5251 1006.71 Q42.138 1009.13 38.0002 1009.13 Q32.9713 1009.13 30.2341 1005.56 Q27.4968 1002 27.4968 995.442 Q27.4968 992.196 27.9743 989.331 Q28.4517 986.466 29.4065 984.047 Z" fill="#000000" fill-rule="nonzero" fill-opacity="1" /><path clip-path="url(#clip320)" d="M18.2347 967.019 L28.3562 967.019 L28.3562 954.956 L32.9077 954.956 L32.9077 967.019 L52.2594 967.019 Q56.6199 967.019 57.8613 965.842 Q59.1026 964.632 59.1026 960.972 L59.1026 954.956 L64.0042 954.956 L64.0042 960.972 Q64.0042 967.751 61.4897 970.329 Q58.9434 972.907 52.2594 972.907 L32.9077 972.907 L32.9077 977.204 L28.3562 977.204 L28.3562 972.907 L18.2347 972.907 L18.2347 967.019 Z" fill="#000000" fill-rule="nonzero" fill-opacity="1" /><path clip-path="url(#clip320)" d="M46.0847 931.053 Q46.0847 938.151 47.7079 940.888 Q49.3312 943.625 53.2461 943.625 Q56.3653 943.625 58.2114 941.588 Q60.0256 939.519 60.0256 935.986 Q60.0256 931.117 56.5881 928.188 Q53.1188 925.228 47.3897 925.228 L46.0847 925.228 L46.0847 931.053 M43.6657 919.372 L64.0042 919.372 L64.0042 925.228 L58.5933 925.228 Q61.8398 927.234 63.3994 930.225 Q64.9272 933.217 64.9272 937.546 Q64.9272 943.02 61.8716 946.267 Q58.7843 949.482 53.6281 949.482 Q47.6125 949.482 44.5569 945.471 Q41.5014 941.429 41.5014 933.44 L41.5014 925.228 L40.9285 925.228 Q36.8862 925.228 34.6901 927.902 Q32.4621 930.544 32.4621 935.35 Q32.4621 938.405 33.1941 941.302 Q33.9262 944.198 35.3903 946.872 L29.9795 946.872 Q28.7381 943.657 28.1334 940.633 Q27.4968 937.61 27.4968 934.745 Q27.4968 927.011 31.5072 923.191 Q35.5176 919.372 43.6657 919.372 Z" fill="#000000" fill-rule="nonzero" fill-opacity="1" /><path clip-path="url(#clip320)" d="M42.4881 877.676 L64.0042 877.676 L64.0042 883.533 L42.679 883.533 Q37.6183 883.533 35.1038 885.506 Q32.5894 887.48 32.5894 891.426 Q32.5894 896.169 35.6131 898.906 Q38.6368 901.643 43.8567 901.643 L64.0042 901.643 L64.0042 907.532 L28.3562 907.532 L28.3562 901.643 L33.8944 901.643 Q30.6797 899.543 29.0883 896.71 Q27.4968 893.845 27.4968 890.121 Q27.4968 883.979 31.3163 880.828 Q35.1038 877.676 42.4881 877.676 Z" fill="#000000" fill-rule="nonzero" fill-opacity="1" /><path clip-path="url(#clip320)" d="M29.7248 840.342 L35.1993 840.342 Q33.8307 842.824 33.1623 845.339 Q32.4621 847.821 32.4621 850.368 Q32.4621 856.065 36.0905 859.216 Q39.6872 862.367 46.212 862.367 Q52.7369 862.367 56.3653 859.216 Q59.9619 856.065 59.9619 850.368 Q59.9619 847.821 59.2935 845.339 Q58.5933 842.824 57.2247 840.342 L62.6355 840.342 Q63.7814 842.792 64.3543 845.434 Q64.9272 848.044 64.9272 851.004 Q64.9272 859.057 59.8664 863.799 Q54.8057 868.542 46.212 868.542 Q37.491 868.542 32.4939 863.767 Q27.4968 858.961 27.4968 850.622 Q27.4968 847.917 28.0697 845.339 Q28.6108 842.761 29.7248 840.342 Z" fill="#000000" fill-rule="nonzero" fill-opacity="1" /><path clip-path="url(#clip320)" d="M44.7161 799.665 L47.5806 799.665 L47.5806 826.592 Q53.6281 826.21 56.8109 822.963 Q59.9619 819.685 59.9619 813.86 Q59.9619 810.486 59.1344 807.335 Q58.3069 804.153 56.6518 801.033 L62.1899 801.033 Q63.5267 804.184 64.227 807.495 Q64.9272 810.805 64.9272 814.21 Q64.9272 822.74 59.9619 827.738 Q54.9967 832.703 46.5303 832.703 Q37.7774 832.703 32.6531 827.992 Q27.4968 823.25 27.4968 815.229 Q27.4968 808.036 32.1438 803.866 Q36.7589 799.665 44.7161 799.665 M42.9973 805.521 Q38.1912 805.585 35.3266 808.227 Q32.4621 810.837 32.4621 815.165 Q32.4621 820.067 35.2312 823.027 Q38.0002 825.955 43.0292 826.401 L42.9973 805.521 Z" fill="#000000" fill-rule="nonzero" fill-opacity="1" /><path clip-path="url(#clip320)" d="M18.2347 763.539 L28.3562 763.539 L28.3562 751.476 L32.9077 751.476 L32.9077 763.539 L52.2594 763.539 Q56.6199 763.539 57.8613 762.362 Q59.1026 761.152 59.1026 757.492 L59.1026 751.476 L64.0042 751.476 L64.0042 757.492 Q64.0042 764.271 61.4897 766.85 Q58.9434 769.428 52.2594 769.428 L32.9077 769.428 L32.9077 773.724 L28.3562 773.724 L28.3562 769.428 L18.2347 769.428 L18.2347 763.539 Z" fill="#000000" fill-rule="nonzero" fill-opacity="1" /><path clip-path="url(#clip320)" d="M32.4621 729.96 Q32.4621 734.671 36.1542 737.408 Q39.8145 740.145 46.212 740.145 Q52.6095 740.145 56.3017 737.44 Q59.9619 734.703 59.9619 729.96 Q59.9619 725.281 56.2698 722.544 Q52.5777 719.807 46.212 719.807 Q39.8781 719.807 36.186 722.544 Q32.4621 725.281 32.4621 729.96 M27.4968 729.96 Q27.4968 722.321 32.4621 717.961 Q37.4273 713.6 46.212 713.6 Q54.9649 713.6 59.9619 717.961 Q64.9272 722.321 64.9272 729.96 Q64.9272 737.631 59.9619 741.991 Q54.9649 746.32 46.212 746.32 Q37.4273 746.32 32.4621 741.991 Q27.4968 737.631 27.4968 729.96 Z" fill="#000000" fill-rule="nonzero" fill-opacity="1" /><path clip-path="url(#clip320)" d="M32.4621 669.359 Q32.4621 674.069 36.1542 676.807 Q39.8145 679.544 46.212 679.544 Q52.6095 679.544 56.3017 676.838 Q59.9619 674.101 59.9619 669.359 Q59.9619 664.68 56.2698 661.943 Q52.5777 659.205 46.212 659.205 Q39.8781 659.205 36.186 661.943 Q32.4621 664.68 32.4621 669.359 M27.4968 669.359 Q27.4968 661.72 32.4621 657.359 Q37.4273 652.999 46.212 652.999 Q54.9649 652.999 59.9619 657.359 Q64.9272 661.72 64.9272 669.359 Q64.9272 677.029 59.9619 681.39 Q54.9649 685.719 46.212 685.719 Q37.4273 685.719 32.4621 681.39 Q27.4968 677.029 27.4968 669.359 Z" fill="#000000" fill-rule="nonzero" fill-opacity="1" /><path clip-path="url(#clip320)" d="M58.657 637.626 L77.5631 637.626 L77.5631 643.514 L28.3562 643.514 L28.3562 637.626 L33.7671 637.626 Q30.5842 635.78 29.0564 632.979 Q27.4968 630.146 27.4968 626.231 Q27.4968 619.738 32.6531 615.696 Q37.8093 611.622 46.212 611.622 Q54.6147 611.622 59.771 615.696 Q64.9272 619.738 64.9272 626.231 Q64.9272 630.146 63.3994 632.979 Q61.8398 635.78 58.657 637.626 M46.212 617.701 Q39.7508 617.701 36.0905 620.375 Q32.3984 623.016 32.3984 627.663 Q32.3984 632.31 36.0905 634.984 Q39.7508 637.626 46.212 637.626 Q52.6732 637.626 56.3653 634.984 Q60.0256 632.31 60.0256 627.663 Q60.0256 623.016 56.3653 620.375 Q52.6732 617.701 46.212 617.701 Z" fill="#000000" fill-rule="nonzero" fill-opacity="1" /><path clip-path="url(#clip320)" d="M18.2347 596.121 L28.3562 596.121 L28.3562 584.058 L32.9077 584.058 L32.9077 596.121 L52.2594 596.121 Q56.6199 596.121 57.8613 594.944 Q59.1026 593.734 59.1026 590.074 L59.1026 584.058 L64.0042 584.058 L64.0042 590.074 Q64.0042 596.853 61.4897 599.431 Q58.9434 602.01 52.2594 602.01 L32.9077 602.01 L32.9077 606.306 L28.3562 606.306 L28.3562 602.01 L18.2347 602.01 L18.2347 596.121 Z" fill="#000000" fill-rule="nonzero" fill-opacity="1" /><path clip-path="url(#clip320)" d="M28.3562 576.356 L28.3562 570.499 L64.0042 570.499 L64.0042 576.356 L28.3562 576.356 M14.479 576.356 L14.479 570.499 L21.895 570.499 L21.895 576.356 L14.479 576.356 Z" fill="#000000" fill-rule="nonzero" fill-opacity="1" /><path clip-path="url(#clip320)" d="M35.1993 530.491 Q31.2526 528.295 29.3747 525.239 Q27.4968 522.184 27.4968 518.046 Q27.4968 512.476 31.4117 509.452 Q35.2948 506.428 42.4881 506.428 L64.0042 506.428 L64.0042 512.317 L42.679 512.317 Q37.5546 512.317 35.072 514.131 Q32.5894 515.945 32.5894 519.669 Q32.5894 524.221 35.6131 526.862 Q38.6368 529.504 43.8567 529.504 L64.0042 529.504 L64.0042 535.392 L42.679 535.392 Q37.5228 535.392 35.072 537.207 Q32.5894 539.021 32.5894 542.808 Q32.5894 547.296 35.6449 549.938 Q38.6686 552.58 43.8567 552.58 L64.0042 552.58 L64.0042 558.468 L28.3562 558.468 L28.3562 552.58 L33.8944 552.58 Q30.616 550.575 29.0564 547.774 Q27.4968 544.973 27.4968 541.122 Q27.4968 537.238 29.4702 534.533 Q31.4436 531.796 35.1993 530.491 Z" fill="#000000" fill-rule="nonzero" fill-opacity="1" /><path clip-path="url(#clip320)" d="M49.9359 495.352 L28.3562 495.352 L28.3562 489.496 L49.7131 489.496 Q54.7739 489.496 57.3202 487.522 Q59.8346 485.549 59.8346 481.602 Q59.8346 476.86 56.8109 474.123 Q53.7872 471.353 48.5673 471.353 L28.3562 471.353 L28.3562 465.497 L64.0042 465.497 L64.0042 471.353 L58.5296 471.353 Q61.7762 473.486 63.3676 476.319 Q64.9272 479.12 64.9272 482.844 Q64.9272 488.986 61.1078 492.169 Q57.2883 495.352 49.9359 495.352 M27.4968 480.616 L27.4968 480.616 Z" fill="#000000" fill-rule="nonzero" fill-opacity="1" /><path clip-path="url(#clip320)" d="M35.1993 425.679 Q31.2526 423.483 29.3747 420.428 Q27.4968 417.372 27.4968 413.235 Q27.4968 407.665 31.4117 404.641 Q35.2948 401.617 42.4881 401.617 L64.0042 401.617 L64.0042 407.505 L42.679 407.505 Q37.5546 407.505 35.072 409.32 Q32.5894 411.134 32.5894 414.858 Q32.5894 419.409 35.6131 422.051 Q38.6368 424.693 43.8567 424.693 L64.0042 424.693 L64.0042 430.581 L42.679 430.581 Q37.5228 430.581 35.072 432.395 Q32.5894 434.21 32.5894 437.997 Q32.5894 442.485 35.6449 445.127 Q38.6686 447.768 43.8567 447.768 L64.0042 447.768 L64.0042 453.657 L28.3562 453.657 L28.3562 447.768 L33.8944 447.768 Q30.616 445.763 29.0564 442.962 Q27.4968 440.161 27.4968 436.31 Q27.4968 432.427 29.4702 429.722 Q31.4436 426.984 35.1993 425.679 Z" fill="#000000" fill-rule="nonzero" fill-opacity="1" /><polyline clip-path="url(#clip322)" style="stroke:#009af9; stroke-linecap:round; stroke-linejoin:round; stroke-width:4; stroke-opacity:1; fill:none" points="310.845,86.1857 312.83,87.3164 314.814,88.4016 316.799,89.4995 318.783,90.5868 320.767,91.6792 322.752,92.7586 324.736,93.8183 326.721,94.9145 328.705,96.0454 330.69,97.2014 332.674,98.3624 334.658,99.5124 336.643,100.675 338.627,101.857 340.612,103.023 342.596,104.163 344.58,105.302 346.565,106.412 348.549,107.54 350.534,108.656 352.518,109.801 354.503,110.983 356.487,112.139 358.471,113.325 360.456,114.541 362.44,115.754 364.425,116.978 366.409,118.194 368.394,119.375 370.378,120.557 372.362,121.726 374.347,122.893 376.331,124.07 378.316,125.234 380.3,126.402 382.284,127.569 384.269,128.705 386.253,129.848 388.238,130.983 390.222,132.164 392.207,133.37 394.191,134.565 396.175,135.773 398.16,136.988 400.144,138.17 402.129,139.311 404.113,140.442 406.098,141.63 408.082,142.795 410.066,143.942 412.051,145.147 414.035,146.364 416.02,147.576 418.004,148.771 419.989,149.986 421.973,151.183 423.957,152.392 425.942,153.585 427.926,154.811 429.911,156.075 431.895,157.376 433.879,158.678 435.864,159.988 437.848,161.28 439.833,162.568 441.817,163.884 443.802,165.234 445.786,166.525 447.77,167.776 449.755,169.03 451.739,170.292 453.724,171.559 455.708,172.819 457.693,174.072 459.677,175.299 461.661,176.549 463.646,177.789 465.63,179.023 467.615,180.239 469.599,181.458 471.583,182.656 473.568,183.867 475.552,185.031 477.537,186.212 479.521,187.424 481.506,188.642 483.49,189.874 485.474,191.129 487.459,192.402 489.443,193.712 491.428,195.026 493.412,196.347 495.397,197.609 497.381,198.895 499.365,200.168 501.35,201.509 503.334,202.846 505.319,204.174 507.303,205.512 509.287,206.755 511.272,207.982 513.256,209.253 515.241,210.536 517.225,211.861 519.21,213.201 521.194,214.596 523.178,216.021 525.163,217.415 527.147,218.878 529.132,220.285 531.116,221.684 533.101,223.114 535.085,224.547 537.069,225.954 539.054,227.366 541.038,228.815 543.023,230.257 545.007,231.766 546.992,233.279 548.976,234.792 550.96,236.284 552.945,237.766 554.929,239.219 556.914,240.621 558.898,242.021 560.882,243.417 562.867,244.831 564.851,246.238 566.836,247.655 568.82,249.086 570.805,250.559 572.789,252.047 574.773,253.572 576.758,255.002 578.742,256.499 580.727,257.988 582.711,259.464 584.696,260.927 586.68,262.37 588.664,263.785 590.649,265.137 592.633,266.48 594.618,267.766 596.602,269.053 598.586,270.382 600.571,271.757 602.555,273.127 604.54,274.571 606.524,276.022 608.509,277.476 610.493,278.964 612.477,280.5 614.462,282.011 616.446,283.574 618.431,285.136 620.415,286.688 622.4,288.183 624.384,289.64 626.368,291.148 628.353,292.607 630.337,294.141 632.322,295.734 634.306,297.339 636.29,298.893 638.275,300.437 640.259,301.969 642.244,303.523 644.228,305.095 646.213,306.756 648.197,308.377 650.181,309.902 652.166,311.377 654.15,312.868 656.135,314.435 658.119,315.983 660.104,317.484 662.088,319.006 664.072,320.59 666.057,322.215 668.041,323.913 670.026,325.5 672.01,327.203 673.995,328.946 675.979,330.681 677.963,332.386 679.948,334.06 681.932,335.674 683.917,337.407 685.901,339.227 687.885,341.001 689.87,342.852 691.854,344.67 693.839,346.527 695.823,348.361 697.808,350.169 699.792,351.979 701.776,353.653 703.761,355.353 705.745,356.988 707.73,358.543 709.714,360.023 711.699,361.44 713.683,362.897 715.667,364.241 717.652,365.714 719.636,367.076 721.621,368.47 723.605,369.7 725.589,370.808 727.574,371.888 729.558,373.025 731.543,374.192 733.527,375.286 735.512,376.485 737.496,377.642 739.48,378.824 741.465,379.985 743.449,381.023 745.434,382.14 747.418,383.273 749.403,384.544 751.387,385.889 753.371,387.213 755.356,388.449 757.34,389.709 759.325,390.928 761.309,392.184 763.293,393.328 765.278,394.414 767.262,395.561 769.247,396.752 771.231,397.992 773.216,399.341 775.2,400.752 777.184,402.173 779.169,403.533 781.153,404.869 783.138,406.407 785.122,408.043 787.107,409.607 789.091,411.272 791.075,412.966 793.06,414.844 795.044,416.723 797.029,418.473 799.013,420.18 800.998,421.687 802.982,423.165 804.966,424.565 806.951,425.872 808.935,427.192 810.92,428.551 812.904,429.824 814.888,431.156 816.873,432.57 818.857,433.943 820.842,435.455 822.826,436.977 824.811,438.252 826.795,439.631 828.779,441.042 830.764,442.507 832.748,443.893 834.733,445.182 836.717,446.365 838.702,447.724 840.686,449.085 842.67,450.404 844.655,451.627 846.639,452.837 848.624,454.041 850.608,455.331 852.592,456.557 854.577,457.672 856.561,459.05 858.546,460.538 860.53,462.079 862.515,463.601 864.499,464.906 866.483,466.085 868.468,467.207 870.452,468.726 872.437,470.156 874.421,471.627 876.406,473.265 878.39,474.888 880.374,476.441 882.359,477.952 884.343,479.49 886.328,480.936 888.312,482.608 890.296,484.493 892.281,486.371 894.265,488.33 896.25,490.043 898.234,491.737 900.219,493.587 902.203,495.274 904.187,496.93 906.172,498.901 908.156,500.894 910.141,502.802 912.125,504.783 914.11,506.726 916.094,508.502 918.078,510.102 920.063,511.443 922.047,512.95 924.032,514.569 926.016,516.126 928.001,517.53 929.985,519.093 931.969,520.543 933.954,522.172 935.938,523.914 937.923,525.716 939.907,527.233 941.891,528.984 943.876,530.933 945.86,532.822 947.845,534.499 949.829,535.891 951.814,537.2 953.798,538.415 955.782,539.496 957.767,540.876 959.751,542.232 961.736,543.783 963.72,545.166 965.705,546.223 967.689,547.32 969.673,548.85 971.658,550.273 973.642,551.882 975.627,553.818 977.611,555.731 979.595,557.369 981.58,558.793 983.564,560.117 985.549,561.205 987.533,562.102 989.518,563.003 991.502,564.136 993.486,565.336 995.471,566.586 997.455,567.95 999.44,569.22 1001.42,570.872 1003.41,572.577 1005.39,574.791 1007.38,577.261 1009.36,579.261 1011.35,581.348 1013.33,583.296 1015.32,585.137 1017.3,587.33 1019.28,589.575 1021.27,591.738 1023.25,593.744 1025.24,595.808 1027.22,597.813 1029.21,599.911 1031.19,602.074 1033.17,604.02 1035.16,605.696 1037.14,607.463 1039.13,609.291 1041.11,611.044 1043.1,612.454 1045.08,613.724 1047.07,615.39 1049.05,617.006 1051.03,618.541 1053.02,619.981 1055,621.783 1056.99,623.857 1058.97,625.738 1060.96,627.637 1062.94,629.709 1064.93,631.361 1066.91,633.116 1068.89,634.468 1070.88,635.513 1072.86,636.194 1074.85,636.834 1076.83,637.689 1078.82,638.316 1080.8,639.415 1082.79,640.858 1084.77,642.078 1086.75,643.355 1088.74,645.51 1090.72,647.454 1092.71,649.33 1094.69,651.072 1096.68,653.049 1098.66,654.916 1100.65,656.705 1102.63,658.791 1104.61,661.393 1106.6,663.567 1108.58,665.478 1110.57,666.605 1112.55,667.853 1114.54,669.253 1116.52,670.867 1118.51,672.451 1120.49,674.251 1122.47,675.96 1124.46,677.743 1126.44,679.578 1128.43,681.266 1130.41,683.103 1132.4,684.584 1134.38,685.988 1136.36,687.85 1138.35,689.369 1140.33,690.81 1142.32,692.234 1144.3,693.276 1146.29,694.261 1148.27,695.214 1150.26,696.265 1152.24,697.312 1154.22,698.483 1156.21,699.436 1158.19,700.986 1160.18,701.725 1162.16,702.48 1164.15,703.306 1166.13,704.012 1168.12,704.366 1170.1,704.816 1172.08,705.042 1174.07,705.449 1176.05,705.079 1178.04,705.236 1180.02,705.772 1182.01,706.462 1183.99,707.754 1185.98,709.815 1187.96,711.773 1189.94,714.062 1191.93,716.128 1193.91,718.46 1195.9,720.057 1197.88,722.22 1199.87,724.306 1201.85,725.395 1203.84,726.637 1205.82,727.878 1207.8,729.031 1209.79,730.63 1211.77,732.384 1213.76,734.72 1215.74,736.341 1217.73,737.409 1219.71,739.127 1221.69,740.708 1223.68,741.872 1225.66,742.09 1227.65,742.589 1229.63,742.403 1231.62,742.162 1233.6,740.967 1235.59,740.056 1237.57,739.477 1239.55,739.369 1241.54,739.521 1243.52,740.443 1245.51,741.84 1247.49,743.084 1249.48,744.585 1251.46,746.49 1253.45,748.219 1255.43,749.856 1257.41,751.002 1259.4,752.206 1261.38,753.606 1263.37,754.904 1265.35,754.907 1267.34,753.763 1269.32,753.086 1271.31,752.214 1273.29,750.44 1275.27,748.974 1277.26,746.622 1279.24,744.919 1281.23,744.046 1283.21,743.315 1285.2,743.223 1287.18,743.851 1289.17,744.774 1291.15,746.804 1293.13,748.346 1295.12,749.418 1297.1,749.907 1299.09,748.293 1301.07,746.49 1303.06,744.726 1305.04,743.454 1307.03,742.628 1309.01,742.274 1310.99,741.799 1312.98,741.877 1314.96,742.115 1316.95,742.021 1318.93,741.926 1320.92,742.248 1322.9,742.993 1324.88,744.083 1326.87,745.503 1328.85,746.75 1330.84,746.646 1332.82,747.006 1334.81,747.831 1336.79,749.145 1338.78,750.983 1340.76,753.346 1342.74,755.825 1344.73,759.446 1346.71,763.098 1348.7,767.017 1350.68,770.92 1352.67,774.748 1354.65,778.666 1356.64,782.078 1358.62,785.478 1360.6,788.862 1362.59,792.632 1364.57,796.559 1366.56,799.754 1368.54,803.254 1370.53,807.17 1372.51,811.397 1374.5,814.584 1376.48,817.521 1378.46,819.56 1380.45,821.606 1382.43,823.741 1384.42,825.545 1386.4,827.549 1388.39,829.272 1390.37,831.148 1392.36,833.857 1394.34,836.639 1396.32,838.309 1398.31,840.81 1400.29,843.52 1402.28,846.356 1404.26,849.912 1406.25,854.408 1408.23,857.809 1410.22,861.639 1412.2,866.365 1414.18,870.529 1416.17,875.142 1418.15,878.16 1420.14,879.924 1422.12,881.582 1424.11,882.98 1426.09,884.535 1428.07,887.021 1430.06,888.736 1432.04,890.387 1434.03,891.727 1436.01,892.479 1438,893.548 1439.98,894.411 1441.97,894.51 1443.95,895.502 1445.93,896.831 1447.92,897.784 1449.9,896.548 1451.89,896.164 1453.87,896.166 1455.86,896.316 1457.84,896.406 1459.83,897.682 1461.81,899.808 1463.79,902.327 1465.78,905.299 1467.76,906.913 1469.75,907.308 1471.73,909.12 1473.72,911.773 1475.7,916.245 1477.69,921.255 1479.67,924.892 1481.65,928.184 1483.64,930.187 1485.62,932.482 1487.61,933.676 1489.59,934.808 1491.58,935.023 1493.56,934.429 1495.55,933.429 1497.53,932.443 1499.51,931.316 1501.5,931.422 1503.48,931.274 1505.47,930.906 1507.45,931.17 1509.44,933.095 1511.42,935.531 1513.4,936.314 1515.39,937.657 1517.37,937.442 1519.36,935.927 1521.34,933.464 1523.33,930.432 1525.31,928.178 1527.3,925.023 1529.28,922.226 1531.26,919.768 1533.25,918.006 1535.23,915.747 1537.22,913.253 1539.2,910.436 1541.19,907.169 1543.17,903.539 1545.16,900.535 1547.14,898.675 1549.12,900.324 1551.11,902.477 1553.09,904.514 1555.08,903.378 1557.06,900.242 1559.05,896.877 1561.03,894.012 1563.02,891.186 1565,889.795 1566.98,888.696 1568.97,888.112 1570.95,888.233 1572.94,889.08 1574.92,890.221 1576.91,890.595 1578.89,890.891 1580.88,890.083 1582.86,890.981 1584.84,891.253 1586.83,892.598 1588.81,893.992 1590.8,894.12 1592.78,894.906 1594.77,896.531 1596.75,898.256 1598.74,897.989 1600.72,897.04 1602.7,896.23 1604.69,895.811 1606.67,895.255 1608.66,894.125 1610.64,892.636 1612.63,890.548 1614.61,888.346 1616.59,886.509 1618.58,884.577 1620.56,883.477 1622.55,881.467 1624.53,880.759 1626.52,879.407 1628.5,877.464 1630.49,875.415 1632.47,874.051 1634.45,873.197 1636.44,871.878 1638.42,871.765 1640.41,872.124 1642.39,871.8 1644.38,872.376 1646.36,872.106 1648.35,873.65 1650.33,874.982 1652.31,876.551 1654.3,877.743 1656.28,878.854 1658.27,880.208 1660.25,881.615 1662.24,882.886 1664.22,882.456 1666.21,883.273 1668.19,883.714 1670.17,883.762 1672.16,883.501 1674.14,882.473 1676.13,880.92 1678.11,877.248 1680.1,873.168 1682.08,869.574 1684.07,866.457 1686.05,863.219 1688.03,859.801 1690.02,856.628 1692,853.043 1693.99,849.495 1695.97,846.403 1697.96,842.226 1699.94,837.94 1701.93,834.58 1703.91,832.118 1705.89,829.522 1707.88,827.536 1709.86,825.592 1711.85,823.44 1713.83,821.312 1715.82,819.414 1717.8,817.382 1719.78,816.533 1721.77,815.951 1723.75,816.065 1725.74,816.721 1727.72,817.073 1729.71,816.191 1731.69,815.538 1733.68,815.904 1735.66,816.906 1737.64,815.916 1739.63,814.937 1741.61,815.076 1743.6,815.593 1745.58,815.773 1747.57,815.325 1749.55,814.027 1751.54,813.707 1753.52,813.431 1755.5,813.888 1757.49,813.995 1759.47,814.521 1761.46,814.742 1763.44,814.072 1765.43,814.373 1767.41,814.35 1769.4,814.833 1771.38,816.003 1773.36,817.492 1775.35,819.089 1777.33,820.899 1779.32,822.22 1781.3,822.074 1783.29,821.622 1785.27,821.089 1787.26,820.429 1789.24,819.267 1791.22,819.002 1793.21,819.848 1795.19,820.071 1797.18,820.182 1799.16,821.13 1801.15,821.248 1803.13,821.533 1805.11,821.894 1807.1,822.431 1809.08,822.275 1811.07,821.176 1813.05,819.797 1815.04,818.506 1817.02,818.043 1819.01,816.888 1820.99,815.728 1822.97,813.867 1824.96,812.466 1826.94,812.266 1828.93,811.782 1830.91,813.637 1832.9,814.79 1834.88,815.446 1836.87,816.166 1838.85,816.293 1840.83,817.544 1842.82,819.086 1844.8,819.72 1846.79,820.88 1848.77,821.56 1850.76,822.017 1852.74,823.013 1854.73,822.72 1856.71,822.11 1858.69,821.682 1860.68,820.965 1862.66,820.499 1864.65,820.032 1866.63,819.395 1868.62,817.229 1870.6,815.624 1872.59,813.93 1874.57,811.695 1876.55,810.519 1878.54,809.267 1880.52,807.942 1882.51,806.682 1884.49,804.993 1886.48,803.879 1888.46,802.922 1890.45,802.399 1892.43,803.117 1894.41,803.662 1896.4,804.636 1898.38,805.876 1900.37,807.603 1902.35,809.345 1904.34,810.619 1906.32,811.237 1908.3,812.596 1910.29,813.856 1912.27,814.299 1914.26,814.477 1916.24,814.598 1918.23,814.488 1920.21,815.575 1922.2,816.482 1924.18,816.483 1926.16,817.005 1928.15,818.161 1930.13,819.876 1932.12,821.71 1934.1,824.102 1936.09,825.711 1938.07,827.978 1940.06,830.673 1942.04,833.396 1944.02,835.209 1946.01,837.978 1947.99,840.444 1949.98,842.455 1951.96,844.428 1953.95,846.526 1955.93,847.863 1957.92,849.95 1959.9,851.949 1961.88,853.489 1963.87,853.737 1965.85,854.52 1967.84,854.761 1969.82,855.426 1971.81,856.359 1973.79,857.196 1975.78,857.886 1977.76,859.044 1979.74,859.894 1981.73,858.307 1983.71,856.36 1985.7,855.758 1987.68,854.635 1989.67,853.885 1991.65,853.446 1993.64,853.131 1995.62,851.729 1997.6,850.569 1999.59,849.379 2001.57,849.252 2003.56,848.471 2005.54,847.44 2007.53,847.428 2009.51,848.715 2011.49,850.959 2013.48,853.29 2015.46,856.551 2017.45,857.447 2019.43,858.052 2021.42,858.088 2023.4,857.864 2025.39,857.743 2027.37,857.991 2029.35,857.823 2031.34,857.332 2033.32,854.8 2035.31,852.761 2037.29,851.127 2039.28,850.492 2041.26,849.149 2043.25,847.636 2045.23,846.048 2047.21,844.258 2049.2,841.979 2051.18,838.517 2053.17,835.29 2055.15,832.94 2057.14,831.478 2059.12,829.968 2061.11,829.167 2063.09,828.24 2065.07,827.854 2067.06,827.842 2069.04,828.192 2071.03,827.692 2073.01,827.426 2075,827.626 2076.98,828.034 2078.97,827.2 2080.95,826.227 2082.93,825.89 2084.92,826.177 2086.9,827.029 2088.89,827.412 2090.87,827.123 2092.86,826.088 2094.84,824.824 2096.83,822.973 2098.81,821.852 2100.79,821.468 2102.78,822.207 2104.76,823.099 2106.75,822.542 2108.73,822.124 2110.72,822.118 2112.7,823.281 2114.68,824.446 2116.67,825.088 2118.65,826.101 2120.64,826.61 2122.62,826.169 2124.61,826.263 2126.59,828.498 2128.58,830.085 2130.56,831.88 2132.54,833.77 2134.53,836.138 2136.51,838.973 2138.5,840.464 2140.48,841.675 2142.47,844.094 2144.45,846.884 2146.44,850.237 2148.42,853.298 2150.4,856.421 2152.39,859.296 2154.37,861.537 2156.36,863.202 2158.34,865.713 2160.33,866.465 2162.31,867.052 2164.3,866.881 2166.28,867.411 2168.26,868.781 2170.25,869.235 2172.23,870.4 2174.22,872.275 2176.2,874.688 2178.19,877.799 2180.17,882.496 2182.16,884.05 2184.14,885.293 2186.12,886.666 2188.11,889.489 2190.09,892.214 2192.08,895.486 2194.06,898.393 2196.05,901.725 2198.03,904.63 2200.01,906.01 2202,908.139 2203.98,909.055 2205.97,909.807 2207.95,913.98 2209.94,917.838 2211.92,922.716 2213.91,927.76 2215.89,932.677 2217.87,937.749 2219.86,941.687 2221.84,944.654 2223.83,946.486 2225.81,949.859 2227.8,952.605 2229.78,952.478 2231.77,953.726 2233.75,954.579 2235.73,955.059 2237.72,956.188 2239.7,956.567 2241.69,956.223 2243.67,955.538 2245.66,957.134 2247.64,961.759 2249.63,964.575 2251.61,966.84 2253.59,969.896 2255.58,971.368 2257.56,971.953 2259.55,972.346 2261.53,971.886 2263.52,969.685 2265.5,966.464 2267.49,963.168 2269.47,959.07 2271.45,955.582 2273.44,953.618 2275.42,952.814 2277.41,951.79 2279.39,950.444 2281.38,949.234 2283.36,947.99 2285.35,947.229 2287.33,947.418 2289.31,945.902 2291.3,947.088 2293.28,947.446 "/>
<polyline clip-path="url(#clip322)" style="stroke:#e26f46; stroke-linecap:round; stroke-linejoin:round; stroke-width:4; stroke-opacity:1; fill:none" points="310.845,86.1857 312.83,87.39 314.814,88.6016 316.799,89.8196 318.783,91.0429 320.767,92.2711 322.752,93.5054 324.736,94.7453 326.721,95.9916 328.705,97.2439 330.69,98.5006 332.674,99.7615 334.658,101.028 336.643,102.3 338.627,103.578 340.612,104.861 342.596,106.149 344.58,107.442 346.565,108.74 348.549,110.043 350.534,111.35 352.518,112.663 354.503,113.981 356.487,115.304 358.471,116.63 360.456,117.96 362.44,119.295 364.425,120.636 366.409,121.982 368.394,123.334 370.378,124.69 372.362,126.051 374.347,127.418 376.331,128.788 378.316,130.165 380.3,131.543 382.284,132.927 384.269,134.314 386.253,135.707 388.238,137.102 390.222,138.501 392.207,139.904 394.191,141.312 396.175,142.724 398.16,144.139 400.144,145.562 402.129,146.988 404.113,148.417 406.098,149.851 408.082,151.288 410.066,152.729 412.051,154.175 414.035,155.626 416.02,157.081 418.004,158.537 419.989,159.997 421.973,161.462 423.957,162.934 425.942,164.411 427.926,165.893 429.911,167.378 431.895,168.866 433.879,170.359 435.864,171.855 437.848,173.356 439.833,174.862 441.817,176.373 443.802,177.886 445.786,179.401 447.77,180.919 449.755,182.439 451.739,183.964 453.724,185.494 455.708,187.032 457.693,188.574 459.677,190.119 461.661,191.668 463.646,193.221 465.63,194.777 467.615,196.338 469.599,197.904 471.583,199.475 473.568,201.05 475.552,202.629 477.537,204.215 479.521,205.804 481.506,207.399 483.49,208.998 485.474,210.6 487.459,212.208 489.443,213.822 491.428,215.441 493.412,217.068 495.397,218.699 497.381,220.337 499.365,221.975 501.35,223.616 503.334,225.264 505.319,226.916 507.303,228.572 509.287,230.233 511.272,231.898 513.256,233.565 515.241,235.239 517.225,236.912 519.21,238.589 521.194,240.269 523.178,241.954 525.163,243.642 527.147,245.337 529.132,247.038 531.116,248.742 533.101,250.453 535.085,252.176 537.069,253.905 539.054,255.642 541.038,257.383 543.023,259.123 545.007,260.868 546.992,262.62 548.976,264.374 550.96,266.139 552.945,267.909 554.929,269.682 556.914,271.466 558.898,273.256 560.882,275.05 562.867,276.847 564.851,278.651 566.836,280.46 568.82,282.274 570.805,284.094 572.789,285.922 574.773,287.756 576.758,289.586 578.742,291.421 580.727,293.266 582.711,295.114 584.696,296.966 586.68,298.825 588.664,300.692 590.649,302.557 592.633,304.425 594.618,306.304 596.602,308.18 598.586,310.063 600.571,311.947 602.555,313.834 604.54,315.719 606.524,317.61 608.509,319.503 610.493,321.409 612.477,323.319 614.462,325.235 616.446,327.159 618.431,329.084 620.415,331.018 622.4,332.959 624.384,334.907 626.368,336.858 628.353,338.813 630.337,340.771 632.322,342.736 634.306,344.707 636.29,346.682 638.275,348.657 640.259,350.642 642.244,352.63 644.228,354.625 646.213,356.63 648.197,358.648 650.181,360.674 652.166,362.71 654.15,364.744 656.135,366.79 658.119,368.841 660.104,370.901 662.088,372.956 664.072,375.015 666.057,377.081 668.041,379.153 670.026,381.225 672.01,383.3 673.995,385.381 675.979,387.46 677.963,389.533 679.948,391.606 681.932,393.679 683.917,395.759 685.901,397.855 687.885,399.963 689.87,402.07 691.854,404.186 693.839,406.31 695.823,408.432 697.808,410.566 699.792,412.694 701.776,414.827 703.761,416.964 705.745,419.112 707.73,421.265 709.714,423.428 711.699,425.59 713.683,427.757 715.667,429.943 717.652,432.136 719.636,434.339 721.621,436.544 723.605,438.761 725.589,440.972 727.574,443.181 729.558,445.404 731.543,447.647 733.527,449.888 735.512,452.145 737.496,454.418 739.48,456.69 741.465,458.957 743.449,461.233 745.434,463.519 747.418,465.809 749.403,468.091 751.387,470.365 753.371,472.651 755.356,474.939 757.34,477.222 759.325,479.51 761.309,481.81 763.293,484.126 765.278,486.472 767.262,488.822 769.247,491.2 771.231,493.58 773.216,495.978 775.2,498.4 777.184,500.846 779.169,503.289 781.153,505.738 783.138,508.169 785.122,510.583 787.107,513 789.091,515.426 791.075,517.847 793.06,520.245 795.044,522.608 797.029,524.953 799.013,527.291 800.998,529.611 802.982,531.955 804.966,534.32 806.951,536.677 808.935,539.065 810.92,541.495 812.904,543.955 814.888,546.425 816.873,548.903 818.857,551.364 820.842,553.832 822.826,556.325 824.811,558.803 826.795,561.3 828.779,563.789 830.764,566.261 832.748,568.752 834.733,571.266 836.717,573.8 838.702,576.347 840.686,578.885 842.67,581.464 844.655,584.045 846.639,586.647 848.624,589.24 850.608,591.844 852.592,594.46 854.577,597.059 856.561,599.632 858.546,602.234 860.53,604.854 862.515,607.504 864.499,610.158 866.483,612.808 868.468,615.435 870.452,618.071 872.437,620.703 874.421,623.353 876.406,626.029 878.39,628.701 880.374,631.386 882.359,634.097 884.343,636.79 886.328,639.489 888.312,642.23 890.296,644.962 892.281,647.621 894.265,650.26 896.25,652.915 898.234,655.576 900.219,658.241 902.203,660.879 904.187,663.507 906.172,666.103 908.156,668.638 910.141,671.205 912.125,673.814 914.11,676.4 916.094,678.967 918.078,681.615 920.063,684.279 922.047,686.966 924.032,689.502 926.016,692.128 928.001,694.782 929.985,697.452 931.969,700.163 933.954,702.894 935.938,705.723 937.923,708.633 939.907,711.571 941.891,714.397 943.876,717.079 945.86,719.628 947.845,722.046 949.829,724.388 951.814,726.767 953.798,729.155 955.782,731.652 957.767,734.204 959.751,736.856 961.736,739.584 963.72,742.382 965.705,745.352 967.689,748.438 969.673,751.56 971.658,754.655 973.642,757.862 975.627,761.078 977.611,764.124 979.595,767.16 981.58,770.224 983.564,773.459 985.549,776.65 987.533,779.974 989.518,783.316 991.502,786.555 993.486,789.704 995.471,792.861 997.455,796.071 999.44,799.321 1001.42,802.433 1003.41,805.695 1005.39,808.836 1007.38,811.857 1009.36,815.047 1011.35,818.065 1013.33,820.935 1015.32,823.741 1017.3,826.4 1019.28,829.188 1021.27,832.029 1023.25,834.859 1025.24,837.654 1027.22,840.661 1029.21,843.767 1031.19,847.001 1033.17,850.339 1035.16,853.407 1037.14,856.105 1039.13,858.662 1041.11,861.394 1043.1,864.173 1045.08,866.955 1047.07,869.929 1049.05,872.791 1051.03,875.807 1053.02,878.914 1055,881.886 1056.99,884.964 1058.97,888.435 1060.96,891.867 1062.94,895.013 1064.93,897.999 1066.91,900.902 1068.89,903.75 1070.88,906.635 1072.86,909.504 1074.85,912.368 1076.83,915.365 1078.82,918.462 1080.8,921.311 1082.79,924.016 1084.77,926.832 1086.75,929.391 1088.74,932.295 1090.72,934.301 1092.71,935.834 1094.69,938.076 1096.68,940.154 1098.66,942.082 1100.65,944.971 1102.63,947.955 1104.61,951.823 1106.6,955.949 1108.58,960.173 1110.57,964.249 1112.55,968.398 1114.54,972.576 1116.52,977.098 1118.51,981.512 1120.49,985.617 1122.47,989.464 1124.46,992.513 1126.44,995.247 1128.43,997.449 1130.41,999.797 1132.4,1001.93 1134.38,1003.49 1136.36,1004.88 1138.35,1005.62 1140.33,1006.73 1142.32,1006.67 1144.3,1007.15 1146.29,1006.7 1148.27,1007.29 1150.26,1007.95 1152.24,1008.68 1154.22,1009.66 1156.21,1010.37 1158.19,1012.88 1160.18,1016.08 1162.16,1020.45 1164.15,1024.21 1166.13,1029.14 1168.12,1034.92 1170.1,1039.98 1172.08,1044.43 1174.07,1048.36 1176.05,1051.67 1178.04,1051.91 1180.02,1049.61 1182.01,1047.73 1183.99,1045.44 1185.98,1041.3 1187.96,1039.02 1189.94,1038.48 1191.93,1038.24 1193.91,1038.1 1195.9,1040.61 1197.88,1042.64 1199.87,1044.56 1201.85,1046.6 1203.84,1049.19 1205.82,1052.36 1207.8,1057.15 1209.79,1062.67 1211.77,1066.39 1213.76,1072.36 1215.74,1077.11 1217.73,1084.58 1219.71,1090.46 1221.69,1095.1 1223.68,1097.72 1225.66,1098.59 1227.65,1098.5 1229.63,1100.21 1231.62,1103.62 1233.6,1106.57 1235.59,1108.96 1237.57,1109.63 1239.55,1113.42 1241.54,1119.05 1243.52,1126.72 1245.51,1132.19 1247.49,1139.68 1249.48,1148.82 1251.46,1154.27 1253.45,1156.21 1255.43,1153.23 1257.41,1150.28 1259.4,1146.62 1261.38,1145.01 1263.37,1142.27 1265.35,1139.9 1267.34,1137.34 1269.32,1136.23 1271.31,1133.34 1273.29,1132.5 1275.27,1130.16 1277.26,1132.58 1279.24,1136.44 1281.23,1143.86 1283.21,1148.42 1285.2,1153.17 1287.18,1161.2 1289.17,1166.73 1291.15,1169.02 1293.13,1172.29 1295.12,1173.57 1297.1,1174.54 1299.09,1175.64 1301.07,1174.4 1303.06,1173.93 1305.04,1172.33 1307.03,1169.84 1309.01,1165.29 1310.99,1166.09 1312.98,1166.14 1314.96,1159.61 1316.95,1157.76 1318.93,1155.19 1320.92,1157.17 1322.9,1158.28 1324.88,1155.77 1326.87,1156.59 1328.85,1160.55 1330.84,1171.03 1332.82,1184.25 1334.81,1202.55 1336.79,1218.91 1338.78,1226.03 1340.76,1236.21 1342.74,1244.36 1344.73,1245.02 1346.71,1238.13 1348.7,1235.8 1350.68,1230.01 1352.67,1223.04 1354.65,1215.08 1356.64,1205.74 1358.62,1196.62 1360.6,1188.79 1362.59,1181.51 1364.57,1177.27 1366.56,1171.84 1368.54,1169.66 1370.53,1175.79 1372.51,1181.25 1374.5,1188.79 1376.48,1197.38 1378.46,1199.38 1380.45,1202.12 1382.43,1209.34 1384.42,1217.15 1386.4,1222.13 1388.39,1229.46 1390.37,1231.97 1392.36,1230.93 1394.34,1237.45 1396.32,1236.95 1398.31,1242.9 1400.29,1242.12 1402.28,1236.65 1404.26,1223.57 1406.25,1205.27 1408.23,1188.35 1410.22,1177.43 1412.2,1168.76 1414.18,1158.36 1416.17,1148.65 1418.15,1140.83 1420.14,1136.84 1422.12,1135.61 1424.11,1136.85 1426.09,1141.08 1428.07,1144.89 1430.06,1149.04 1432.04,1154.18 1434.03,1156.67 1436.01,1158.98 1438,1169.18 1439.98,1182.97 1441.97,1198.82 1443.95,1212.09 1445.93,1226.95 1447.92,1241.42 1449.9,1253.95 1451.89,1263.62 1453.87,1270.47 1455.86,1271.06 1457.84,1266.79 1459.83,1259.22 1461.81,1251.71 1463.79,1245.7 1465.78,1240.32 1467.76,1234.73 1469.75,1222.92 1471.73,1210.11 1473.72,1205.13 1475.7,1198.76 1477.69,1192.98 1479.67,1184.83 1481.65,1174.06 1483.64,1163.53 1485.62,1162.47 1487.61,1161.44 1489.59,1162.15 1491.58,1160.32 1493.56,1161.03 1495.55,1167.72 1497.53,1173.78 1499.51,1176.87 1501.5,1180.1 1503.48,1181.15 1505.47,1178.94 1507.45,1174.33 1509.44,1172.86 1511.42,1171.79 1513.4,1166.6 1515.39,1167.62 1517.37,1169.43 1519.36,1169.65 1521.34,1173.89 1523.33,1179.75 1525.31,1183.65 1527.3,1192.81 1529.28,1205.32 1531.26,1213.62 1533.25,1220.69 1535.23,1233.47 1537.22,1245.57 1539.2,1249.76 1541.19,1255.6 1543.17,1259.3 1545.16,1259.21 1547.14,1255.8 1549.12,1255.37 1551.11,1261.68 1553.09,1264.92 1555.08,1257.38 1557.06,1247.18 1559.05,1234.56 1561.03,1221.87 1563.02,1209.05 1565,1196.51 1566.98,1186.28 1568.97,1180.19 1570.95,1176.18 1572.94,1173.91 1574.92,1177.56 1576.91,1180.07 1578.89,1181.19 1580.88,1184.82 1582.86,1185.32 1584.84,1189.41 1586.83,1192.25 1588.81,1196.66 1590.8,1201.64 1592.78,1205.29 1594.77,1205.9 1596.75,1201.63 1598.74,1198 1600.72,1202.71 1602.7,1204.97 1604.69,1200.73 1606.67,1195.43 1608.66,1199.01 1610.64,1206.42 1612.63,1218.1 1614.61,1233.71 1616.59,1247.43 1618.58,1268.12 1620.56,1293.34 1622.55,1327.95 1624.53,1358.61 1626.52,1382.4 1628.5,1384.24 1630.49,1371.53 1632.47,1355.9 1634.45,1335.98 1636.44,1312.28 1638.42,1290.42 1640.41,1268.75 1642.39,1245.57 1644.38,1231.99 1646.36,1227.05 1648.35,1222.17 1650.33,1219.15 1652.31,1218 1654.3,1223.38 1656.28,1228.79 1658.27,1235.64 1660.25,1238.59 1662.24,1235.84 1664.22,1232.05 1666.21,1228.79 1668.19,1225.52 1670.17,1220.86 1672.16,1217.63 1674.14,1217.07 1676.13,1220.45 1678.11,1230.38 1680.1,1227.63 1682.08,1217.83 1684.07,1208.34 1686.05,1195.99 1688.03,1185.76 1690.02,1177.38 1692,1173.93 1693.99,1169.89 1695.97,1170 1697.96,1167.73 1699.94,1168.26 1701.93,1166.49 1703.91,1163.08 1705.89,1161.48 1707.88,1165.58 1709.86,1170.94 1711.85,1171.73 1713.83,1174.56 1715.82,1175.07 1717.8,1177.31 1719.78,1184.36 1721.77,1188.86 1723.75,1191.67 1725.74,1190.39 1727.72,1188.54 1729.71,1189.11 1731.69,1191.81 1733.68,1191.6 1735.66,1191.02 1737.64,1195.13 1739.63,1195.42 1741.61,1196.4 1743.6,1197.28 1745.58,1207.46 1747.57,1225.18 1749.55,1240.2 1751.54,1259.9 1753.52,1281.64 1755.5,1300.83 1757.49,1325.06 1759.47,1334.85 1761.46,1336.32 1763.44,1318.52 1765.43,1297.83 1767.41,1277.15 1769.4,1256.12 1771.38,1237.22 1773.36,1224.37 1775.35,1211.59 1777.33,1199.84 1779.32,1195.4 1781.3,1194.45 1783.29,1194.06 1785.27,1192.46 1787.26,1189.58 1789.24,1190.47 1791.22,1189.19 1793.21,1188.53 1795.19,1187.67 1797.18,1195.42 1799.16,1200.43 1801.15,1202.43 1803.13,1203.1 1805.11,1205.79 1807.1,1208.46 1809.08,1210.52 1811.07,1218.48 1813.05,1222.24 1815.04,1219.5 1817.02,1219.74 1819.01,1218.61 1820.99,1219.22 1822.97,1215.6 1824.96,1205.44 1826.94,1195.1 1828.93,1190.26 1830.91,1193.71 1832.9,1192.44 1834.88,1188.34 1836.87,1192.93 1838.85,1205.2 1840.83,1215.82 1842.82,1229.69 1844.8,1236.94 1846.79,1245.41 1848.77,1244.55 1850.76,1243.93 1852.74,1249.77 1854.73,1254.88 1856.71,1260.8 1858.69,1265.73 1860.68,1282.26 1862.66,1297.89 1864.65,1320.46 1866.63,1336.09 1868.62,1337.18 1870.6,1338 1872.59,1336.94 1874.57,1334.33 1876.55,1323.45 1878.54,1314.76 1880.52,1303.02 1882.51,1292.88 1884.49,1274.24 1886.48,1259.02 1888.46,1236.64 1890.45,1211.43 1892.43,1187.31 1894.41,1167.18 1896.4,1153.29 1898.38,1142.06 1900.37,1129.93 1902.35,1120.24 1904.34,1113.34 1906.32,1113.33 1908.3,1117.73 1910.29,1123.88 1912.27,1129.76 1914.26,1142.76 1916.24,1142.46 1918.23,1143.36 1920.21,1146.21 1922.2,1151.5 1924.18,1151.09 1926.16,1151.01 1928.15,1150.36 1930.13,1153.66 1932.12,1155.51 1934.1,1156.71 1936.09,1161.07 1938.07,1168.37 1940.06,1180.15 1942.04,1195.23 1944.02,1213.6 1946.01,1230.7 1947.99,1247.82 1949.98,1262.58 1951.96,1269.06 1953.95,1265.95 1955.93,1255.98 1957.92,1242.56 1959.9,1230.33 1961.88,1220.13 1963.87,1211.45 1965.85,1200.71 1967.84,1185.3 1969.82,1172.47 1971.81,1162.35 1973.79,1153.74 1975.78,1147.19 1977.76,1143.18 1979.74,1140.81 1981.73,1139.27 1983.71,1139.75 1985.7,1141.1 1987.68,1143.08 1989.67,1147.85 1991.65,1150.21 1993.64,1152.49 1995.62,1155.41 1997.6,1159.05 1999.59,1162.11 2001.57,1164.92 2003.56,1170.91 2005.54,1170.91 2007.53,1167.6 2009.51,1162.86 2011.49,1167.1 2013.48,1174.55 2015.46,1187.55 2017.45,1200.25 2019.43,1213.87 2021.42,1225.15 2023.4,1225.05 2025.39,1217.4 2027.37,1209.75 2029.35,1208.97 2031.34,1205.81 2033.32,1201.57 2035.31,1199.38 2037.29,1198.56 2039.28,1197.94 2041.26,1199.62 2043.25,1198.98 2045.23,1203.72 2047.21,1208.56 2049.2,1216.65 2051.18,1218.86 2053.17,1215.94 2055.15,1212.24 2057.14,1209.81 2059.12,1209.91 2061.11,1210.72 2063.09,1215.5 2065.07,1215.93 2067.06,1220.11 2069.04,1223.55 2071.03,1224.31 2073.01,1226.03 2075,1223.47 2076.98,1222.37 2078.97,1226.4 2080.95,1235.76 2082.93,1244.44 2084.92,1252.17 2086.9,1255.9 2088.89,1262.56 2090.87,1266.4 2092.86,1270.08 2094.84,1275.1 2096.83,1278.85 2098.81,1280.27 2100.79,1279.52 2102.78,1284.95 2104.76,1282.32 2106.75,1282.82 2108.73,1274.48 2110.72,1271.4 2112.7,1269.67 2114.68,1266.84 2116.67,1263.66 2118.65,1249.37 2120.64,1232.16 2122.62,1215.95 2124.61,1206.02 2126.59,1196.96 2128.58,1188.58 2130.56,1178.69 2132.54,1174.13 2134.53,1174.21 2136.51,1179.48 2138.5,1189.18 2140.48,1199.5 2142.47,1211.3 2144.45,1228.05 2146.44,1249.71 2148.42,1273.78 2150.4,1296.99 2152.39,1313.09 2154.37,1319.17 2156.36,1312.45 2158.34,1302.51 2160.33,1288.83 2162.31,1274.42 2164.3,1263.9 2166.28,1252.37 2168.26,1242.11 2170.25,1233.5 2172.23,1226.2 2174.22,1218.01 2176.2,1206.97 2178.19,1194.14 2180.17,1182.6 2182.16,1172.18 2184.14,1160.03 2186.12,1154.13 2188.11,1147.44 2190.09,1143.25 2192.08,1140.06 2194.06,1139.45 2196.05,1138.97 2198.03,1134.91 2200.01,1133.05 2202,1130.32 2203.98,1126.17 2205.97,1125.6 2207.95,1122.63 2209.94,1121.18 2211.92,1125.61 2213.91,1133.8 2215.89,1143.9 2217.87,1153.56 2219.86,1163.1 2221.84,1179.2 2223.83,1194.1 2225.81,1205.1 2227.8,1221.31 2229.78,1237.64 2231.77,1249 2233.75,1260.08 2235.73,1270.21 2237.72,1275.05 2239.7,1274.77 2241.69,1269.34 2243.67,1258.52 2245.66,1251.48 2247.64,1246.3 2249.63,1243.05 2251.61,1241.53 2253.59,1241.94 2255.58,1242.55 2257.56,1247.12 2259.55,1245.6 2261.53,1239.94 2263.52,1231.26 2265.5,1224.58 2267.49,1216.4 2269.47,1208.26 2271.45,1202.72 2273.44,1196.09 2275.42,1186.17 2277.41,1176.59 2279.39,1167.64 2281.38,1166.57 2283.36,1163.31 2285.35,1158.11 2287.33,1152.21 2289.31,1148.9 2291.3,1148.98 2293.28,1152.19 "/>
<path clip-path="url(#clip320)" d="M1738.01 248.629 L2282.71 248.629 L2282.71 93.1086 L1738.01 93.1086  Z" fill="#ffffff" fill-rule="evenodd" fill-opacity="1"/>
<polyline clip-path="url(#clip320)" style="stroke:#000000; stroke-linecap:round; stroke-linejoin:round; stroke-width:4; stroke-opacity:1; fill:none" points="1738.01,248.629 2282.71,248.629 2282.71,93.1086 1738.01,93.1086 1738.01,248.629 "/>
<polyline clip-path="url(#clip320)" style="stroke:#009af9; stroke-linecap:round; stroke-linejoin:round; stroke-width:4; stroke-opacity:1; fill:none" points="1761.36,144.949 1901.45,144.949 "/>
<path clip-path="url(#clip320)" d="M1929.48 145.724 L1929.48 158.386 L1936.98 158.386 Q1940.75 158.386 1942.56 156.835 Q1944.39 155.261 1944.39 152.043 Q1944.39 148.803 1942.56 147.275 Q1940.75 145.724 1936.98 145.724 L1929.48 145.724 M1929.48 131.511 L1929.48 141.928 L1936.4 141.928 Q1939.83 141.928 1941.49 140.655 Q1943.18 139.358 1943.18 136.719 Q1943.18 134.104 1941.49 132.807 Q1939.83 131.511 1936.4 131.511 L1929.48 131.511 M1924.8 127.669 L1936.75 127.669 Q1942.09 127.669 1944.99 129.891 Q1947.88 132.113 1947.88 136.21 Q1947.88 139.382 1946.4 141.257 Q1944.92 143.131 1942.05 143.594 Q1945.5 144.335 1947.4 146.696 Q1949.32 149.034 1949.32 152.553 Q1949.32 157.182 1946.17 159.705 Q1943.02 162.229 1937.21 162.229 L1924.8 162.229 L1924.8 127.669 Z" fill="#000000" fill-rule="nonzero" fill-opacity="1" /><path clip-path="url(#clip320)" d="M1962 145.724 L1962 158.386 L1969.5 158.386 Q1973.27 158.386 1975.08 156.835 Q1976.91 155.261 1976.91 152.043 Q1976.91 148.803 1975.08 147.275 Q1973.27 145.724 1969.5 145.724 L1962 145.724 M1962 131.511 L1962 141.928 L1968.92 141.928 Q1972.35 141.928 1974.02 140.655 Q1975.71 139.358 1975.71 136.719 Q1975.71 134.104 1974.02 132.807 Q1972.35 131.511 1968.92 131.511 L1962 131.511 M1957.33 127.669 L1969.27 127.669 Q1974.62 127.669 1977.51 129.891 Q1980.4 132.113 1980.4 136.21 Q1980.4 139.382 1978.92 141.257 Q1977.44 143.131 1974.57 143.594 Q1978.02 144.335 1979.92 146.696 Q1981.84 149.034 1981.84 152.553 Q1981.84 157.182 1978.69 159.705 Q1975.54 162.229 1969.73 162.229 L1957.33 162.229 L1957.33 127.669 Z" fill="#000000" fill-rule="nonzero" fill-opacity="1" /><path clip-path="url(#clip320)" d="M1997.3 162.229 L1984.11 127.669 L1988.99 127.669 L1999.94 156.766 L2010.91 127.669 L2015.77 127.669 L2002.6 162.229 L1997.3 162.229 Z" fill="#000000" fill-rule="nonzero" fill-opacity="1" /><path clip-path="url(#clip320)" d="M2020.82 127.669 L2025.5 127.669 L2025.5 162.229 L2020.82 162.229 L2020.82 127.669 Z" fill="#000000" fill-rule="nonzero" fill-opacity="1" /><path clip-path="url(#clip320)" d="M2075.75 130.331 L2075.75 135.261 Q2073.39 133.062 2070.7 131.974 Q2068.04 130.886 2065.03 130.886 Q2059.11 130.886 2055.96 134.52 Q2052.81 138.132 2052.81 144.983 Q2052.81 151.812 2055.96 155.446 Q2059.11 159.057 2065.03 159.057 Q2068.04 159.057 2070.7 157.969 Q2073.39 156.881 2075.75 154.682 L2075.75 159.567 Q2073.3 161.233 2070.54 162.067 Q2067.81 162.9 2064.76 162.9 Q2056.91 162.9 2052.39 158.108 Q2047.88 153.293 2047.88 144.983 Q2047.88 136.65 2052.39 131.858 Q2056.91 127.044 2064.76 127.044 Q2067.86 127.044 2070.59 127.877 Q2073.34 128.687 2075.75 130.331 Z" fill="#000000" fill-rule="nonzero" fill-opacity="1" /><path clip-path="url(#clip320)" d="M2082.97 127.669 L2102.83 127.669 L2102.83 131.604 L2087.65 131.604 L2087.65 141.789 L2101.35 141.789 L2101.35 145.724 L2087.65 145.724 L2087.65 162.229 L2082.97 162.229 L2082.97 127.669 Z" fill="#000000" fill-rule="nonzero" fill-opacity="1" /><path clip-path="url(#clip320)" d="M2110.24 127.669 L2132.09 127.669 L2132.09 131.604 L2114.92 131.604 L2114.92 141.835 L2131.38 141.835 L2131.38 145.77 L2114.92 145.77 L2114.92 158.293 L2132.51 158.293 L2132.51 162.229 L2110.24 162.229 L2110.24 127.669 Z" fill="#000000" fill-rule="nonzero" fill-opacity="1" /><polyline clip-path="url(#clip320)" style="stroke:#e26f46; stroke-linecap:round; stroke-linejoin:round; stroke-width:4; stroke-opacity:1; fill:none" points="1761.36,196.789 1901.45,196.789 "/>
<path clip-path="url(#clip320)" d="M1929.48 197.564 L1929.48 210.226 L1936.98 210.226 Q1940.75 210.226 1942.56 208.675 Q1944.39 207.101 1944.39 203.883 Q1944.39 200.643 1942.56 199.115 Q1940.75 197.564 1936.98 197.564 L1929.48 197.564 M1929.48 183.351 L1929.48 193.768 L1936.4 193.768 Q1939.83 193.768 1941.49 192.495 Q1943.18 191.198 1943.18 188.559 Q1943.18 185.944 1941.49 184.647 Q1939.83 183.351 1936.4 183.351 L1929.48 183.351 M1924.8 179.509 L1936.75 179.509 Q1942.09 179.509 1944.99 181.731 Q1947.88 183.953 1947.88 188.05 Q1947.88 191.222 1946.4 193.097 Q1944.92 194.971 1942.05 195.434 Q1945.5 196.175 1947.4 198.536 Q1949.32 200.874 1949.32 204.393 Q1949.32 209.022 1946.17 211.545 Q1943.02 214.069 1937.21 214.069 L1924.8 214.069 L1924.8 179.509 Z" fill="#000000" fill-rule="nonzero" fill-opacity="1" /><path clip-path="url(#clip320)" d="M1962 197.564 L1962 210.226 L1969.5 210.226 Q1973.27 210.226 1975.08 208.675 Q1976.91 207.101 1976.91 203.883 Q1976.91 200.643 1975.08 199.115 Q1973.27 197.564 1969.5 197.564 L1962 197.564 M1962 183.351 L1962 193.768 L1968.92 193.768 Q1972.35 193.768 1974.02 192.495 Q1975.71 191.198 1975.71 188.559 Q1975.71 185.944 1974.02 184.647 Q1972.35 183.351 1968.92 183.351 L1962 183.351 M1957.33 179.509 L1969.27 179.509 Q1974.62 179.509 1977.51 181.731 Q1980.4 183.953 1980.4 188.05 Q1980.4 191.222 1978.92 193.097 Q1977.44 194.971 1974.57 195.434 Q1978.02 196.175 1979.92 198.536 Q1981.84 200.874 1981.84 204.393 Q1981.84 209.022 1978.69 211.545 Q1975.54 214.069 1969.73 214.069 L1957.33 214.069 L1957.33 179.509 Z" fill="#000000" fill-rule="nonzero" fill-opacity="1" /><path clip-path="url(#clip320)" d="M1997.3 214.069 L1984.11 179.509 L1988.99 179.509 L1999.94 208.606 L2010.91 179.509 L2015.77 179.509 L2002.6 214.069 L1997.3 214.069 Z" fill="#000000" fill-rule="nonzero" fill-opacity="1" /><path clip-path="url(#clip320)" d="M2020.82 179.509 L2025.5 179.509 L2025.5 214.069 L2020.82 214.069 L2020.82 179.509 Z" fill="#000000" fill-rule="nonzero" fill-opacity="1" /><path clip-path="url(#clip320)" d="M2075.75 182.171 L2075.75 187.101 Q2073.39 184.902 2070.7 183.814 Q2068.04 182.726 2065.03 182.726 Q2059.11 182.726 2055.96 186.36 Q2052.81 189.972 2052.81 196.823 Q2052.81 203.652 2055.96 207.286 Q2059.11 210.897 2065.03 210.897 Q2068.04 210.897 2070.7 209.809 Q2073.39 208.721 2075.75 206.522 L2075.75 211.407 Q2073.3 213.073 2070.54 213.907 Q2067.81 214.74 2064.76 214.74 Q2056.91 214.74 2052.39 209.948 Q2047.88 205.133 2047.88 196.823 Q2047.88 188.49 2052.39 183.698 Q2056.91 178.884 2064.76 178.884 Q2067.86 178.884 2070.59 179.717 Q2073.34 180.527 2075.75 182.171 Z" fill="#000000" fill-rule="nonzero" fill-opacity="1" /><path clip-path="url(#clip320)" d="M2082.97 179.509 L2102.83 179.509 L2102.83 183.444 L2087.65 183.444 L2087.65 193.629 L2101.35 193.629 L2101.35 197.564 L2087.65 197.564 L2087.65 214.069 L2082.97 214.069 L2082.97 179.509 Z" fill="#000000" fill-rule="nonzero" fill-opacity="1" /><path clip-path="url(#clip320)" d="M2110.24 179.509 L2132.09 179.509 L2132.09 183.444 L2114.92 183.444 L2114.92 193.675 L2131.38 193.675 L2131.38 197.61 L2114.92 197.61 L2114.92 210.133 L2132.51 210.133 L2132.51 214.069 L2110.24 214.069 L2110.24 179.509 Z" fill="#000000" fill-rule="nonzero" fill-opacity="1" /><path clip-path="url(#clip320)" d="M2169.29 182.68 Q2164.2 182.68 2161.19 186.476 Q2158.2 190.272 2158.2 196.823 Q2158.2 203.351 2161.19 207.147 Q2164.2 210.944 2169.29 210.944 Q2174.38 210.944 2177.35 207.147 Q2180.33 203.351 2180.33 196.823 Q2180.33 190.272 2177.35 186.476 Q2174.38 182.68 2169.29 182.68 M2175.84 213.444 L2182 220.18 L2176.35 220.18 L2171.24 214.647 Q2170.47 214.694 2170.06 214.717 Q2169.66 214.74 2169.29 214.74 Q2162 214.74 2157.63 209.879 Q2153.27 204.995 2153.27 196.823 Q2153.27 188.629 2157.63 183.768 Q2162 178.884 2169.29 178.884 Q2176.56 178.884 2180.91 183.768 Q2185.26 188.629 2185.26 196.823 Q2185.26 202.842 2182.83 207.124 Q2180.43 211.407 2175.84 213.444 Z" fill="#000000" fill-rule="nonzero" fill-opacity="1" /><path clip-path="url(#clip320)" d="M2192.58 179.509 L2199.55 179.509 L2208.37 203.027 L2217.23 179.509 L2224.2 179.509 L2224.2 214.069 L2219.64 214.069 L2219.64 183.722 L2210.73 207.425 L2206.03 207.425 L2197.12 183.722 L2197.12 214.069 L2192.58 214.069 L2192.58 179.509 Z" fill="#000000" fill-rule="nonzero" fill-opacity="1" /><path clip-path="url(#clip320)" d="M2259.36 182.171 L2259.36 187.101 Q2257 184.902 2254.31 183.814 Q2251.65 182.726 2248.64 182.726 Q2242.72 182.726 2239.57 186.36 Q2236.42 189.972 2236.42 196.823 Q2236.42 203.652 2239.57 207.286 Q2242.72 210.897 2248.64 210.897 Q2251.65 210.897 2254.31 209.809 Q2257 208.721 2259.36 206.522 L2259.36 211.407 Q2256.91 213.073 2254.15 213.907 Q2251.42 214.74 2248.37 214.74 Q2240.52 214.74 2236 209.948 Q2231.49 205.133 2231.49 196.823 Q2231.49 188.49 2236 183.698 Q2240.52 178.884 2248.37 178.884 Q2251.47 178.884 2254.2 179.717 Q2256.95 180.527 2259.36 182.171 Z" fill="#000000" fill-rule="nonzero" fill-opacity="1" /></svg>
