<?xml version="1.0" encoding="utf-8"?>
<svg xmlns="http://www.w3.org/2000/svg" xmlns:xlink="http://www.w3.org/1999/xlink" width="600" height="400" viewBox="0 0 2400 1600">
<defs>
  <clipPath id="clip910">
    <rect x="0" y="0" width="2400" height="1600"/>
  </clipPath>
</defs>
<path clip-path="url(#clip910)" d="M0 1600 L2400 1600 L2400 0 L0 0  Z" fill="#ffffff" fill-rule="evenodd" fill-opacity="1"/>
<defs>
  <clipPath id="clip911">
    <rect x="251" y="47" width="2102" height="1377"/>
  </clipPath>
</defs>
<path clip-path="url(#clip910)" d="M242.135 1423.18 L2352.76 1423.18 L2352.76 47.2441 L242.135 47.2441  Z" fill="#ffffff" fill-rule="evenodd" fill-opacity="1"/>
<defs>
  <clipPath id="clip912">
    <rect x="242" y="47" width="2112" height="1377"/>
  </clipPath>
</defs>
<polyline clip-path="url(#clip912)" style="stroke:#000000; stroke-linecap:round; stroke-linejoin:round; stroke-width:2; stroke-opacity:0.1; fill:none" points="299.876,1423.18 299.876,47.2441 "/>
<polyline clip-path="url(#clip912)" style="stroke:#000000; stroke-linecap:round; stroke-linejoin:round; stroke-width:2; stroke-opacity:0.1; fill:none" points="798.162,1423.18 798.162,47.2441 "/>
<polyline clip-path="url(#clip912)" style="stroke:#000000; stroke-linecap:round; stroke-linejoin:round; stroke-width:2; stroke-opacity:0.1; fill:none" points="1296.45,1423.18 1296.45,47.2441 "/>
<polyline clip-path="url(#clip912)" style="stroke:#000000; stroke-linecap:round; stroke-linejoin:round; stroke-width:2; stroke-opacity:0.1; fill:none" points="1794.74,1423.18 1794.74,47.2441 "/>
<polyline clip-path="url(#clip912)" style="stroke:#000000; stroke-linecap:round; stroke-linejoin:round; stroke-width:2; stroke-opacity:0.1; fill:none" points="2293.02,1423.18 2293.02,47.2441 "/>
<polyline clip-path="url(#clip912)" style="stroke:#000000; stroke-linecap:round; stroke-linejoin:round; stroke-width:2; stroke-opacity:0.1; fill:none" points="242.135,1326.9 2352.76,1326.9 "/>
<polyline clip-path="url(#clip912)" style="stroke:#000000; stroke-linecap:round; stroke-linejoin:round; stroke-width:2; stroke-opacity:0.1; fill:none" points="242.135,964.556 2352.76,964.556 "/>
<polyline clip-path="url(#clip912)" style="stroke:#000000; stroke-linecap:round; stroke-linejoin:round; stroke-width:2; stroke-opacity:0.1; fill:none" points="242.135,602.217 2352.76,602.217 "/>
<polyline clip-path="url(#clip912)" style="stroke:#000000; stroke-linecap:round; stroke-linejoin:round; stroke-width:2; stroke-opacity:0.1; fill:none" points="242.135,239.877 2352.76,239.877 "/>
<polyline clip-path="url(#clip910)" style="stroke:#000000; stroke-linecap:round; stroke-linejoin:round; stroke-width:4; stroke-opacity:1; fill:none" points="242.135,1423.18 2352.76,1423.18 "/>
<polyline clip-path="url(#clip910)" style="stroke:#000000; stroke-linecap:round; stroke-linejoin:round; stroke-width:4; stroke-opacity:1; fill:none" points="299.876,1423.18 299.876,1404.28 "/>
<polyline clip-path="url(#clip910)" style="stroke:#000000; stroke-linecap:round; stroke-linejoin:round; stroke-width:4; stroke-opacity:1; fill:none" points="798.162,1423.18 798.162,1404.28 "/>
<polyline clip-path="url(#clip910)" style="stroke:#000000; stroke-linecap:round; stroke-linejoin:round; stroke-width:4; stroke-opacity:1; fill:none" points="1296.45,1423.18 1296.45,1404.28 "/>
<polyline clip-path="url(#clip910)" style="stroke:#000000; stroke-linecap:round; stroke-linejoin:round; stroke-width:4; stroke-opacity:1; fill:none" points="1794.74,1423.18 1794.74,1404.28 "/>
<polyline clip-path="url(#clip910)" style="stroke:#000000; stroke-linecap:round; stroke-linejoin:round; stroke-width:4; stroke-opacity:1; fill:none" points="2293.02,1423.18 2293.02,1404.28 "/>
<path clip-path="url(#clip910)" d="M299.876 1454.1 Q296.265 1454.1 294.436 1457.66 Q292.631 1461.2 292.631 1468.33 Q292.631 1475.44 294.436 1479.01 Q296.265 1482.55 299.876 1482.55 Q303.51 1482.55 305.316 1479.01 Q307.145 1475.44 307.145 1468.33 Q307.145 1461.2 305.316 1457.66 Q303.51 1454.1 299.876 1454.1 M299.876 1450.39 Q305.686 1450.39 308.742 1455 Q311.82 1459.58 311.82 1468.33 Q311.82 1477.06 308.742 1481.67 Q305.686 1486.25 299.876 1486.25 Q294.066 1486.25 290.987 1481.67 Q287.932 1477.06 287.932 1468.33 Q287.932 1459.58 290.987 1455 Q294.066 1450.39 299.876 1450.39 Z" fill="#000000" fill-rule="nonzero" fill-opacity="1" /><path clip-path="url(#clip910)" d="M761.855 1481.64 L778.174 1481.64 L778.174 1485.58 L756.23 1485.58 L756.23 1481.64 Q758.892 1478.89 763.475 1474.26 Q768.082 1469.61 769.262 1468.27 Q771.507 1465.74 772.387 1464.01 Q773.29 1462.25 773.29 1460.56 Q773.29 1457.8 771.345 1456.07 Q769.424 1454.33 766.322 1454.33 Q764.123 1454.33 761.67 1455.09 Q759.239 1455.86 756.461 1457.41 L756.461 1452.69 Q759.285 1451.55 761.739 1450.97 Q764.193 1450.39 766.23 1450.39 Q771.6 1450.39 774.794 1453.08 Q777.989 1455.77 777.989 1460.26 Q777.989 1462.39 777.179 1464.31 Q776.392 1466.2 774.285 1468.8 Q773.707 1469.47 770.605 1472.69 Q767.503 1475.88 761.855 1481.64 Z" fill="#000000" fill-rule="nonzero" fill-opacity="1" /><path clip-path="url(#clip910)" d="M788.035 1451.02 L806.392 1451.02 L806.392 1454.96 L792.318 1454.96 L792.318 1463.43 Q793.336 1463.08 794.355 1462.92 Q795.373 1462.73 796.392 1462.73 Q802.179 1462.73 805.558 1465.9 Q808.938 1469.08 808.938 1474.49 Q808.938 1480.07 805.466 1483.17 Q801.993 1486.25 795.674 1486.25 Q793.498 1486.25 791.23 1485.88 Q788.984 1485.51 786.577 1484.77 L786.577 1480.07 Q788.66 1481.2 790.882 1481.76 Q793.105 1482.32 795.581 1482.32 Q799.586 1482.32 801.924 1480.21 Q804.262 1478.1 804.262 1474.49 Q804.262 1470.88 801.924 1468.77 Q799.586 1466.67 795.581 1466.67 Q793.706 1466.67 791.831 1467.08 Q789.98 1467.5 788.035 1468.38 L788.035 1451.02 Z" fill="#000000" fill-rule="nonzero" fill-opacity="1" /><path clip-path="url(#clip910)" d="M828.151 1454.1 Q824.54 1454.1 822.711 1457.66 Q820.905 1461.2 820.905 1468.33 Q820.905 1475.44 822.711 1479.01 Q824.54 1482.55 828.151 1482.55 Q831.785 1482.55 833.59 1479.01 Q835.419 1475.44 835.419 1468.33 Q835.419 1461.2 833.59 1457.66 Q831.785 1454.1 828.151 1454.1 M828.151 1450.39 Q833.961 1450.39 837.016 1455 Q840.095 1459.58 840.095 1468.33 Q840.095 1477.06 837.016 1481.67 Q833.961 1486.25 828.151 1486.25 Q822.341 1486.25 819.262 1481.67 Q816.206 1477.06 816.206 1468.33 Q816.206 1459.58 819.262 1455 Q822.341 1450.39 828.151 1450.39 Z" fill="#000000" fill-rule="nonzero" fill-opacity="1" /><path clip-path="url(#clip910)" d="M1256.07 1451.02 L1274.42 1451.02 L1274.42 1454.96 L1260.35 1454.96 L1260.35 1463.43 Q1261.37 1463.08 1262.39 1462.92 Q1263.4 1462.73 1264.42 1462.73 Q1270.21 1462.73 1273.59 1465.9 Q1276.97 1469.08 1276.97 1474.49 Q1276.97 1480.07 1273.5 1483.17 Q1270.03 1486.25 1263.71 1486.25 Q1261.53 1486.25 1259.26 1485.88 Q1257.02 1485.51 1254.61 1484.77 L1254.61 1480.07 Q1256.69 1481.2 1258.91 1481.76 Q1261.14 1482.32 1263.61 1482.32 Q1267.62 1482.32 1269.96 1480.21 Q1272.29 1478.1 1272.29 1474.49 Q1272.29 1470.88 1269.96 1468.77 Q1267.62 1466.67 1263.61 1466.67 Q1261.74 1466.67 1259.86 1467.08 Q1258.01 1467.5 1256.07 1468.38 L1256.07 1451.02 Z" fill="#000000" fill-rule="nonzero" fill-opacity="1" /><path clip-path="url(#clip910)" d="M1296.18 1454.1 Q1292.57 1454.1 1290.74 1457.66 Q1288.94 1461.2 1288.94 1468.33 Q1288.94 1475.44 1290.74 1479.01 Q1292.57 1482.55 1296.18 1482.55 Q1299.82 1482.55 1301.62 1479.01 Q1303.45 1475.44 1303.45 1468.33 Q1303.45 1461.2 1301.62 1457.66 Q1299.82 1454.1 1296.18 1454.1 M1296.18 1450.39 Q1301.99 1450.39 1305.05 1455 Q1308.13 1459.58 1308.13 1468.33 Q1308.13 1477.06 1305.05 1481.67 Q1301.99 1486.25 1296.18 1486.25 Q1290.37 1486.25 1287.29 1481.67 Q1284.24 1477.06 1284.24 1468.33 Q1284.24 1459.58 1287.29 1455 Q1290.37 1450.39 1296.18 1450.39 Z" fill="#000000" fill-rule="nonzero" fill-opacity="1" /><path clip-path="url(#clip910)" d="M1326.34 1454.1 Q1322.73 1454.1 1320.9 1457.66 Q1319.1 1461.2 1319.1 1468.33 Q1319.1 1475.44 1320.9 1479.01 Q1322.73 1482.55 1326.34 1482.55 Q1329.98 1482.55 1331.78 1479.01 Q1333.61 1475.44 1333.61 1468.33 Q1333.61 1461.2 1331.78 1457.66 Q1329.98 1454.1 1326.34 1454.1 M1326.34 1450.39 Q1332.15 1450.39 1335.21 1455 Q1338.29 1459.58 1338.29 1468.33 Q1338.29 1477.06 1335.21 1481.67 Q1332.15 1486.25 1326.34 1486.25 Q1320.53 1486.25 1317.46 1481.67 Q1314.4 1477.06 1314.4 1468.33 Q1314.4 1459.58 1317.46 1455 Q1320.53 1450.39 1326.34 1450.39 Z" fill="#000000" fill-rule="nonzero" fill-opacity="1" /><path clip-path="url(#clip910)" d="M1753.01 1451.02 L1775.23 1451.02 L1775.23 1453.01 L1762.69 1485.58 L1757.8 1485.58 L1769.61 1454.96 L1753.01 1454.96 L1753.01 1451.02 Z" fill="#000000" fill-rule="nonzero" fill-opacity="1" /><path clip-path="url(#clip910)" d="M1784.4 1451.02 L1802.76 1451.02 L1802.76 1454.96 L1788.68 1454.96 L1788.68 1463.43 Q1789.7 1463.08 1790.72 1462.92 Q1791.74 1462.73 1792.76 1462.73 Q1798.54 1462.73 1801.92 1465.9 Q1805.3 1469.08 1805.3 1474.49 Q1805.3 1480.07 1801.83 1483.17 Q1798.36 1486.25 1792.04 1486.25 Q1789.86 1486.25 1787.59 1485.88 Q1785.35 1485.51 1782.94 1484.77 L1782.94 1480.07 Q1785.02 1481.2 1787.25 1481.76 Q1789.47 1482.32 1791.95 1482.32 Q1795.95 1482.32 1798.29 1480.21 Q1800.63 1478.1 1800.63 1474.49 Q1800.63 1470.88 1798.29 1468.77 Q1795.95 1466.67 1791.95 1466.67 Q1790.07 1466.67 1788.2 1467.08 Q1786.34 1467.5 1784.4 1468.38 L1784.4 1451.02 Z" fill="#000000" fill-rule="nonzero" fill-opacity="1" /><path clip-path="url(#clip910)" d="M1824.51 1454.1 Q1820.9 1454.1 1819.08 1457.66 Q1817.27 1461.2 1817.27 1468.33 Q1817.27 1475.44 1819.08 1479.01 Q1820.9 1482.55 1824.51 1482.55 Q1828.15 1482.55 1829.95 1479.01 Q1831.78 1475.44 1831.78 1468.33 Q1831.78 1461.2 1829.95 1457.66 Q1828.15 1454.1 1824.51 1454.1 M1824.51 1450.39 Q1830.33 1450.39 1833.38 1455 Q1836.46 1459.58 1836.46 1468.33 Q1836.46 1477.06 1833.38 1481.67 Q1830.33 1486.25 1824.51 1486.25 Q1818.7 1486.25 1815.63 1481.67 Q1812.57 1477.06 1812.57 1468.33 Q1812.57 1459.58 1815.63 1455 Q1818.7 1450.39 1824.51 1450.39 Z" fill="#000000" fill-rule="nonzero" fill-opacity="1" /><path clip-path="url(#clip910)" d="M2237.55 1481.64 L2245.19 1481.64 L2245.19 1455.28 L2236.88 1456.95 L2236.88 1452.69 L2245.14 1451.02 L2249.82 1451.02 L2249.82 1481.64 L2257.45 1481.64 L2257.45 1485.58 L2237.55 1485.58 L2237.55 1481.64 Z" fill="#000000" fill-rule="nonzero" fill-opacity="1" /><path clip-path="url(#clip910)" d="M2276.9 1454.1 Q2273.29 1454.1 2271.46 1457.66 Q2269.65 1461.2 2269.65 1468.33 Q2269.65 1475.44 2271.46 1479.01 Q2273.29 1482.55 2276.9 1482.55 Q2280.53 1482.55 2282.34 1479.01 Q2284.17 1475.44 2284.17 1468.33 Q2284.17 1461.2 2282.34 1457.66 Q2280.53 1454.1 2276.9 1454.1 M2276.9 1450.39 Q2282.71 1450.39 2285.76 1455 Q2288.84 1459.58 2288.84 1468.33 Q2288.84 1477.06 2285.76 1481.67 Q2282.71 1486.25 2276.9 1486.25 Q2271.09 1486.25 2268.01 1481.67 Q2264.95 1477.06 2264.95 1468.33 Q2264.95 1459.58 2268.01 1455 Q2271.09 1450.39 2276.9 1450.39 Z" fill="#000000" fill-rule="nonzero" fill-opacity="1" /><path clip-path="url(#clip910)" d="M2307.06 1454.1 Q2303.45 1454.1 2301.62 1457.66 Q2299.82 1461.2 2299.82 1468.33 Q2299.82 1475.44 2301.62 1479.01 Q2303.45 1482.55 2307.06 1482.55 Q2310.69 1482.55 2312.5 1479.01 Q2314.33 1475.44 2314.33 1468.33 Q2314.33 1461.2 2312.5 1457.66 Q2310.69 1454.1 2307.06 1454.1 M2307.06 1450.39 Q2312.87 1450.39 2315.93 1455 Q2319 1459.58 2319 1468.33 Q2319 1477.06 2315.93 1481.67 Q2312.87 1486.25 2307.06 1486.25 Q2301.25 1486.25 2298.17 1481.67 Q2295.12 1477.06 2295.12 1468.33 Q2295.12 1459.58 2298.17 1455 Q2301.25 1450.39 2307.06 1450.39 Z" fill="#000000" fill-rule="nonzero" fill-opacity="1" /><path clip-path="url(#clip910)" d="M2337.22 1454.1 Q2333.61 1454.1 2331.78 1457.66 Q2329.98 1461.2 2329.98 1468.33 Q2329.98 1475.44 2331.78 1479.01 Q2333.61 1482.55 2337.22 1482.55 Q2340.86 1482.55 2342.66 1479.01 Q2344.49 1475.44 2344.49 1468.33 Q2344.49 1461.2 2342.66 1457.66 Q2340.86 1454.1 2337.22 1454.1 M2337.22 1450.39 Q2343.03 1450.39 2346.09 1455 Q2349.17 1459.58 2349.17 1468.33 Q2349.17 1477.06 2346.09 1481.67 Q2343.03 1486.25 2337.22 1486.25 Q2331.41 1486.25 2328.33 1481.67 Q2325.28 1477.06 2325.28 1468.33 Q2325.28 1459.58 2328.33 1455 Q2331.41 1450.39 2337.22 1450.39 Z" fill="#000000" fill-rule="nonzero" fill-opacity="1" /><path clip-path="url(#clip910)" d="M1165.17 1520.52 L1171.6 1520.52 L1171.6 1568.04 L1165.17 1568.04 L1165.17 1520.52 Z" fill="#000000" fill-rule="nonzero" fill-opacity="1" /><path clip-path="url(#clip910)" d="M1189.93 1522.27 L1189.93 1532.4 L1201.99 1532.4 L1201.99 1536.95 L1189.93 1536.95 L1189.93 1556.3 Q1189.93 1560.66 1191.11 1561.9 Q1192.32 1563.14 1195.98 1563.14 L1201.99 1563.14 L1201.99 1568.04 L1195.98 1568.04 Q1189.2 1568.04 1186.62 1565.53 Q1184.04 1562.98 1184.04 1556.3 L1184.04 1536.95 L1179.74 1536.95 L1179.74 1532.4 L1184.04 1532.4 L1184.04 1522.27 L1189.93 1522.27 Z" fill="#000000" fill-rule="nonzero" fill-opacity="1" /><path clip-path="url(#clip910)" d="M1240.19 1548.76 L1240.19 1551.62 L1213.26 1551.62 Q1213.64 1557.67 1216.89 1560.85 Q1220.17 1564 1225.99 1564 Q1229.36 1564 1232.52 1563.17 Q1235.7 1562.35 1238.82 1560.69 L1238.82 1566.23 Q1235.67 1567.57 1232.36 1568.27 Q1229.05 1568.97 1225.64 1568.97 Q1217.11 1568.97 1212.11 1564 Q1207.15 1559.04 1207.15 1550.57 Q1207.15 1541.82 1211.86 1536.69 Q1216.6 1531.54 1224.62 1531.54 Q1231.81 1531.54 1235.98 1536.18 Q1240.19 1540.8 1240.19 1548.76 M1234.33 1547.04 Q1234.27 1542.23 1231.62 1539.37 Q1229.01 1536.5 1224.69 1536.5 Q1219.78 1536.5 1216.82 1539.27 Q1213.9 1542.04 1213.45 1547.07 L1234.33 1547.04 Z" fill="#000000" fill-rule="nonzero" fill-opacity="1" /><path clip-path="url(#clip910)" d="M1270.45 1537.87 Q1269.47 1537.3 1268.29 1537.04 Q1267.14 1536.76 1265.74 1536.76 Q1260.78 1536.76 1258.11 1540 Q1255.46 1543.22 1255.46 1549.27 L1255.46 1568.04 L1249.58 1568.04 L1249.58 1532.4 L1255.46 1532.4 L1255.46 1537.93 Q1257.31 1534.69 1260.27 1533.13 Q1263.23 1531.54 1267.46 1531.54 Q1268.07 1531.54 1268.8 1531.63 Q1269.53 1531.7 1270.42 1531.85 L1270.45 1537.87 Z" fill="#000000" fill-rule="nonzero" fill-opacity="1" /><path clip-path="url(#clip910)" d="M1292.8 1550.12 Q1285.7 1550.12 1282.96 1551.75 Q1280.23 1553.37 1280.23 1557.29 Q1280.23 1560.4 1282.26 1562.25 Q1284.33 1564.07 1287.86 1564.07 Q1292.73 1564.07 1295.66 1560.63 Q1298.62 1557.16 1298.62 1551.43 L1298.62 1550.12 L1292.8 1550.12 M1304.48 1547.71 L1304.48 1568.04 L1298.62 1568.04 L1298.62 1562.63 Q1296.62 1565.88 1293.63 1567.44 Q1290.63 1568.97 1286.31 1568.97 Q1280.83 1568.97 1277.58 1565.91 Q1274.37 1562.82 1274.37 1557.67 Q1274.37 1551.65 1278.38 1548.6 Q1282.42 1545.54 1290.41 1545.54 L1298.62 1545.54 L1298.62 1544.97 Q1298.62 1540.93 1295.95 1538.73 Q1293.31 1536.5 1288.5 1536.5 Q1285.45 1536.5 1282.55 1537.23 Q1279.65 1537.97 1276.98 1539.43 L1276.98 1534.02 Q1280.19 1532.78 1283.22 1532.17 Q1286.24 1531.54 1289.11 1531.54 Q1296.84 1531.54 1300.66 1535.55 Q1304.48 1539.56 1304.48 1547.71 Z" fill="#000000" fill-rule="nonzero" fill-opacity="1" /><path clip-path="url(#clip910)" d="M1322.34 1522.27 L1322.34 1532.4 L1334.4 1532.4 L1334.4 1536.95 L1322.34 1536.95 L1322.34 1556.3 Q1322.34 1560.66 1323.51 1561.9 Q1324.72 1563.14 1328.38 1563.14 L1334.4 1563.14 L1334.4 1568.04 L1328.38 1568.04 Q1321.6 1568.04 1319.03 1565.53 Q1316.45 1562.98 1316.45 1556.3 L1316.45 1536.95 L1312.15 1536.95 L1312.15 1532.4 L1316.45 1532.4 L1316.45 1522.27 L1322.34 1522.27 Z" fill="#000000" fill-rule="nonzero" fill-opacity="1" /><path clip-path="url(#clip910)" d="M1342.1 1532.4 L1347.96 1532.4 L1347.96 1568.04 L1342.1 1568.04 L1342.1 1532.4 M1342.1 1518.52 L1347.96 1518.52 L1347.96 1525.93 L1342.1 1525.93 L1342.1 1518.52 Z" fill="#000000" fill-rule="nonzero" fill-opacity="1" /><path clip-path="url(#clip910)" d="M1374.02 1536.5 Q1369.31 1536.5 1366.58 1540.19 Q1363.84 1543.85 1363.84 1550.25 Q1363.84 1556.65 1366.55 1560.34 Q1369.28 1564 1374.02 1564 Q1378.7 1564 1381.44 1560.31 Q1384.18 1556.62 1384.18 1550.25 Q1384.18 1543.92 1381.44 1540.23 Q1378.7 1536.5 1374.02 1536.5 M1374.02 1531.54 Q1381.66 1531.54 1386.02 1536.5 Q1390.38 1541.47 1390.38 1550.25 Q1390.38 1559 1386.02 1564 Q1381.66 1568.97 1374.02 1568.97 Q1366.35 1568.97 1361.99 1564 Q1357.66 1559 1357.66 1550.25 Q1357.66 1541.47 1361.99 1536.5 Q1366.35 1531.54 1374.02 1531.54 Z" fill="#000000" fill-rule="nonzero" fill-opacity="1" /><path clip-path="url(#clip910)" d="M1429.72 1546.53 L1429.72 1568.04 L1423.87 1568.04 L1423.87 1546.72 Q1423.87 1541.66 1421.89 1539.14 Q1419.92 1536.63 1415.97 1536.63 Q1411.23 1536.63 1408.5 1539.65 Q1405.76 1542.68 1405.76 1547.9 L1405.76 1568.04 L1399.87 1568.04 L1399.87 1532.4 L1405.76 1532.4 L1405.76 1537.93 Q1407.86 1534.72 1410.69 1533.13 Q1413.56 1531.54 1417.28 1531.54 Q1423.42 1531.54 1426.57 1535.36 Q1429.72 1539.14 1429.72 1546.53 Z" fill="#000000" fill-rule="nonzero" fill-opacity="1" /><polyline clip-path="url(#clip910)" style="stroke:#000000; stroke-linecap:round; stroke-linejoin:round; stroke-width:4; stroke-opacity:1; fill:none" points="242.135,1423.18 242.135,47.2441 "/>
<polyline clip-path="url(#clip910)" style="stroke:#000000; stroke-linecap:round; stroke-linejoin:round; stroke-width:4; stroke-opacity:1; fill:none" points="242.135,1326.9 261.032,1326.9 "/>
<polyline clip-path="url(#clip910)" style="stroke:#000000; stroke-linecap:round; stroke-linejoin:round; stroke-width:4; stroke-opacity:1; fill:none" points="242.135,964.556 261.032,964.556 "/>
<polyline clip-path="url(#clip910)" style="stroke:#000000; stroke-linecap:round; stroke-linejoin:round; stroke-width:4; stroke-opacity:1; fill:none" points="242.135,602.217 261.032,602.217 "/>
<polyline clip-path="url(#clip910)" style="stroke:#000000; stroke-linecap:round; stroke-linejoin:round; stroke-width:4; stroke-opacity:1; fill:none" points="242.135,239.877 261.032,239.877 "/>
<path clip-path="url(#clip910)" d="M114.26 1327.35 L143.936 1327.35 L143.936 1331.28 L114.26 1331.28 L114.26 1327.35 Z" fill="#000000" fill-rule="nonzero" fill-opacity="1" /><path clip-path="url(#clip910)" d="M168.195 1325.54 Q171.552 1326.26 173.427 1328.53 Q175.325 1330.8 175.325 1334.13 Q175.325 1339.24 171.806 1342.05 Q168.288 1344.85 161.806 1344.85 Q159.63 1344.85 157.315 1344.41 Q155.024 1343.99 152.57 1343.13 L152.57 1338.62 Q154.515 1339.75 156.829 1340.33 Q159.144 1340.91 161.667 1340.91 Q166.065 1340.91 168.357 1339.18 Q170.672 1337.44 170.672 1334.13 Q170.672 1331.07 168.519 1329.36 Q166.39 1327.62 162.57 1327.62 L158.542 1327.62 L158.542 1323.78 L162.755 1323.78 Q166.204 1323.78 168.033 1322.42 Q169.862 1321.03 169.862 1318.43 Q169.862 1315.77 167.964 1314.36 Q166.089 1312.93 162.57 1312.93 Q160.649 1312.93 158.45 1313.34 Q156.251 1313.76 153.612 1314.64 L153.612 1310.47 Q156.274 1309.73 158.589 1309.36 Q160.927 1308.99 162.987 1308.99 Q168.311 1308.99 171.413 1311.42 Q174.514 1313.83 174.514 1317.95 Q174.514 1320.82 172.871 1322.81 Q171.227 1324.78 168.195 1325.54 Z" fill="#000000" fill-rule="nonzero" fill-opacity="1" /><path clip-path="url(#clip910)" d="M194.19 1312.69 Q190.579 1312.69 188.75 1316.26 Q186.945 1319.8 186.945 1326.93 Q186.945 1334.04 188.75 1337.6 Q190.579 1341.14 194.19 1341.14 Q197.825 1341.14 199.63 1337.6 Q201.459 1334.04 201.459 1326.93 Q201.459 1319.8 199.63 1316.26 Q197.825 1312.69 194.19 1312.69 M194.19 1308.99 Q200 1308.99 203.056 1313.6 Q206.135 1318.18 206.135 1326.93 Q206.135 1335.66 203.056 1340.26 Q200 1344.85 194.19 1344.85 Q188.38 1344.85 185.301 1340.26 Q182.246 1335.66 182.246 1326.93 Q182.246 1318.18 185.301 1313.6 Q188.38 1308.99 194.19 1308.99 Z" fill="#000000" fill-rule="nonzero" fill-opacity="1" /><path clip-path="url(#clip910)" d="M114.26 965.007 L143.936 965.007 L143.936 968.943 L114.26 968.943 L114.26 965.007 Z" fill="#000000" fill-rule="nonzero" fill-opacity="1" /><path clip-path="url(#clip910)" d="M158.056 977.901 L174.376 977.901 L174.376 981.836 L152.431 981.836 L152.431 977.901 Q155.093 975.146 159.677 970.517 Q164.283 965.864 165.464 964.521 Q167.709 961.998 168.589 960.262 Q169.491 958.503 169.491 956.813 Q169.491 954.058 167.547 952.322 Q165.626 950.586 162.524 950.586 Q160.325 950.586 157.871 951.35 Q155.44 952.114 152.663 953.665 L152.663 948.943 Q155.487 947.808 157.94 947.23 Q160.394 946.651 162.431 946.651 Q167.802 946.651 170.996 949.336 Q174.19 952.021 174.19 956.512 Q174.19 958.642 173.38 960.563 Q172.593 962.461 170.487 965.054 Q169.908 965.725 166.806 968.943 Q163.704 972.137 158.056 977.901 Z" fill="#000000" fill-rule="nonzero" fill-opacity="1" /><path clip-path="url(#clip910)" d="M194.19 950.355 Q190.579 950.355 188.75 953.92 Q186.945 957.461 186.945 964.591 Q186.945 971.697 188.75 975.262 Q190.579 978.804 194.19 978.804 Q197.825 978.804 199.63 975.262 Q201.459 971.697 201.459 964.591 Q201.459 957.461 199.63 953.92 Q197.825 950.355 194.19 950.355 M194.19 946.651 Q200 946.651 203.056 951.258 Q206.135 955.841 206.135 964.591 Q206.135 973.318 203.056 977.924 Q200 982.507 194.19 982.507 Q188.38 982.507 185.301 977.924 Q182.246 973.318 182.246 964.591 Q182.246 955.841 185.301 951.258 Q188.38 946.651 194.19 946.651 Z" fill="#000000" fill-rule="nonzero" fill-opacity="1" /><path clip-path="url(#clip910)" d="M114.26 602.668 L143.936 602.668 L143.936 606.603 L114.26 606.603 L114.26 602.668 Z" fill="#000000" fill-rule="nonzero" fill-opacity="1" /><path clip-path="url(#clip910)" d="M154.839 615.561 L162.477 615.561 L162.477 589.196 L154.167 590.862 L154.167 586.603 L162.431 584.937 L167.107 584.937 L167.107 615.561 L174.746 615.561 L174.746 619.497 L154.839 619.497 L154.839 615.561 Z" fill="#000000" fill-rule="nonzero" fill-opacity="1" /><path clip-path="url(#clip910)" d="M194.19 588.015 Q190.579 588.015 188.75 591.58 Q186.945 595.122 186.945 602.251 Q186.945 609.358 188.75 612.923 Q190.579 616.464 194.19 616.464 Q197.825 616.464 199.63 612.923 Q201.459 609.358 201.459 602.251 Q201.459 595.122 199.63 591.58 Q197.825 588.015 194.19 588.015 M194.19 584.312 Q200 584.312 203.056 588.918 Q206.135 593.501 206.135 602.251 Q206.135 610.978 203.056 615.585 Q200 620.168 194.19 620.168 Q188.38 620.168 185.301 615.585 Q182.246 610.978 182.246 602.251 Q182.246 593.501 185.301 588.918 Q188.38 584.312 194.19 584.312 Z" fill="#000000" fill-rule="nonzero" fill-opacity="1" /><path clip-path="url(#clip910)" d="M194.19 225.676 Q190.579 225.676 188.75 229.241 Q186.945 232.782 186.945 239.912 Q186.945 247.018 188.75 250.583 Q190.579 254.125 194.19 254.125 Q197.825 254.125 199.63 250.583 Q201.459 247.018 201.459 239.912 Q201.459 232.782 199.63 229.241 Q197.825 225.676 194.19 225.676 M194.19 221.972 Q200 221.972 203.056 226.579 Q206.135 231.162 206.135 239.912 Q206.135 248.639 203.056 253.245 Q200 257.828 194.19 257.828 Q188.38 257.828 185.301 253.245 Q182.246 248.639 182.246 239.912 Q182.246 231.162 185.301 226.579 Q188.38 221.972 194.19 221.972 Z" fill="#000000" fill-rule="nonzero" fill-opacity="1" /><path clip-path="url(#clip910)" d="M16.4842 816.375 L16.4842 786.329 L21.895 786.329 L21.895 809.945 L35.9632 809.945 L35.9632 787.315 L41.3741 787.315 L41.3741 809.945 L58.5933 809.945 L58.5933 785.756 L64.0042 785.756 L64.0042 816.375 L16.4842 816.375 Z" fill="#000000" fill-rule="nonzero" fill-opacity="1" /><path clip-path="url(#clip910)" d="M16.4842 775.189 L16.4842 768.759 L58.5933 768.759 L58.5933 745.62 L64.0042 745.62 L64.0042 775.189 L16.4842 775.189 Z" fill="#000000" fill-rule="nonzero" fill-opacity="1" /><path clip-path="url(#clip910)" d="M41.3104 732.443 L58.7206 732.443 L58.7206 722.13 Q58.7206 716.942 56.5881 714.46 Q54.4238 711.945 49.9996 711.945 Q45.5436 711.945 43.4429 714.46 Q41.3104 716.942 41.3104 722.13 L41.3104 732.443 M21.7677 732.443 L36.0905 732.443 L36.0905 722.926 Q36.0905 718.216 34.34 715.924 Q32.5576 713.6 28.9291 713.6 Q25.3325 713.6 23.5501 715.924 Q21.7677 718.216 21.7677 722.926 L21.7677 732.443 M16.4842 738.872 L16.4842 722.449 Q16.4842 715.096 19.5397 711.118 Q22.5952 707.139 28.2289 707.139 Q32.5894 707.139 35.1675 709.176 Q37.7456 711.213 38.3822 715.16 Q39.4007 710.418 42.6472 707.808 Q45.8619 705.166 50.6998 705.166 Q57.0655 705.166 60.5348 709.495 Q64.0042 713.823 64.0042 721.812 L64.0042 738.872 L16.4842 738.872 Z" fill="#000000" fill-rule="nonzero" fill-opacity="1" /><path clip-path="url(#clip910)" d="M20.8447 676.011 Q20.8447 683.013 26.0645 687.151 Q31.2844 691.257 40.2919 691.257 Q49.2675 691.257 54.4874 687.151 Q59.7073 683.013 59.7073 676.011 Q59.7073 669.009 54.4874 664.935 Q49.2675 660.829 40.2919 660.829 Q31.2844 660.829 26.0645 664.935 Q20.8447 669.009 20.8447 676.011 M15.6248 676.011 Q15.6248 666.017 22.3406 660.033 Q29.0246 654.049 40.2919 654.049 Q51.5274 654.049 58.2432 660.033 Q64.9272 666.017 64.9272 676.011 Q64.9272 686.037 58.2432 692.052 Q51.5592 698.036 40.2919 698.036 Q29.0246 698.036 22.3406 692.052 Q15.6248 686.037 15.6248 676.011 Z" fill="#000000" fill-rule="nonzero" fill-opacity="1" /><polyline clip-path="url(#clip912)" style="stroke:#009af9; stroke-linecap:round; stroke-linejoin:round; stroke-width:4; stroke-opacity:1; fill:none" points="301.869,776.782 303.862,931.957 305.856,982.653 307.849,1279.64 309.842,1233.75 311.835,819.786 313.828,681.34 315.821,636.382 317.814,953.201 319.808,603.123 321.801,496.26 323.794,597.795 325.787,1068.37 327.78,601.618 329.773,684.152 331.766,1027.71 333.76,1203.86 335.753,1384.24 337.746,820.906 339.739,582.9 341.732,709.574 343.725,625.105 345.718,922.764 347.712,681.516 349.705,853.836 351.698,817.538 353.691,725.309 355.684,571.455 357.677,928.576 359.67,476.719 361.664,371.674 363.657,558.574 365.65,805.948 367.643,938.44 369.636,1131.67 371.629,503.555 373.622,383.037 375.616,935.252 377.609,858.133 379.602,561.462 381.595,400.1 383.588,694.489 385.581,968.782 387.574,591.998 389.568,549.211 391.561,556.511 393.554,735.684 395.547,853.43 397.54,796.655 399.533,678.334 401.526,1158.27 403.52,589.815 405.513,753.166 407.506,615.291 409.499,651.851 411.492,758.122 413.485,811.76 415.479,751.285 417.472,889.492 419.465,822.853 421.458,427.135 423.451,835.546 425.444,602.114 427.437,996.402 429.431,432.625 431.424,375.558 433.417,521.831 435.41,822.756 437.403,530.731 439.396,620.877 441.389,366.236 443.383,855.852 445.376,677.287 447.369,341.163 449.362,580.201 451.355,421.866 453.348,429.336 455.341,595.834 457.335,728.902 459.328,403.327 461.321,928.125 463.314,625.423 465.307,423.381 467.3,394.752 469.293,485.984 471.287,545.073 473.28,438.228 475.273,615.25 477.266,412.345 479.259,404.818 481.252,560.365 483.245,703.352 485.239,745.253 487.232,608.988 489.225,552.439 491.218,397.52 493.211,643.239 495.204,388.734 497.197,279.938 499.191,613.644 501.184,457.25 503.177,403.483 505.17,574.388 507.163,396.485 509.156,755.081 511.149,708.007 513.143,353.643 515.136,606.14 517.129,279.483 519.122,283.16 521.115,294.468 523.108,267.368 525.101,236.201 527.095,657.33 529.088,429.975 531.081,601.605 533.074,484.677 535.067,905.947 537.06,307.22 539.054,589.877 541.047,349.426 543.04,626.335 545.033,324.911 547.026,234.722 549.019,755.866 551.012,551.03 553.006,402.532 554.999,387.145 556.992,328.675 558.985,594.312 560.978,547.864 562.971,348.901 564.964,353.053 566.958,142.241 568.951,345.243 570.944,454.246 572.937,551.572 574.93,487.12 576.923,536.361 578.916,342.733 580.91,314.204 582.903,827.136 584.896,293.004 586.889,645.208 588.882,423.693 590.875,441.368 592.868,248.627 594.862,400.107 596.855,351.032 598.848,516.959 600.841,360.205 602.834,504.586 604.827,375.563 606.82,272.522 608.814,267.187 610.807,240.956 612.8,451.829 614.793,369.351 616.786,530.167 618.779,793.877 620.772,290.214 622.766,138.208 624.759,240.161 626.752,354.036 628.745,200.353 630.738,416.759 632.731,657.476 634.724,200.247 636.718,455.54 638.711,371.053 640.704,282.474 642.697,321.164 644.69,250.66 646.683,318.263 648.677,267.675 650.67,462.649 652.663,407.472 654.656,209.078 656.649,130.839 658.642,281.245 660.635,548.579 662.629,513.658 664.622,205.03 666.615,189.915 668.608,404.781 670.601,313.901 672.594,245.87 674.587,231.175 676.581,399.449 678.574,558.791 680.567,203.737 682.56,647.694 684.553,644.673 686.546,702.473 688.539,401.428 690.533,197.738 692.526,205.474 694.519,241.883 696.512,394.836 698.505,408.241 700.498,427.358 702.491,358.072 704.485,358.809 706.478,347.08 708.471,243.175 710.464,294.994 712.457,455.069 714.45,217.957 716.443,284.705 718.437,365.195 720.43,197.573 722.423,143.065 724.416,259.895 726.409,325.138 728.402,345.458 730.395,341.656 732.389,325.625 734.382,209.713 736.375,241.984 738.368,298.581 740.361,199.86 742.354,379.026 744.347,240.235 746.341,324.461 748.334,398.221 750.327,329.922 752.32,277.251 754.313,275.205 756.306,197.688 758.299,376.907 760.293,416.901 762.286,246.761 764.279,258.624 766.272,279.787 768.265,180.387 770.258,318.984 772.252,266.24 774.245,276.849 776.238,198.248 778.231,393.09 780.224,346.565 782.217,471.17 784.21,740.808 786.204,249.406 788.197,183.317 790.19,256.939 792.183,267.098 794.176,315.07 796.169,325.481 798.162,537.518 800.156,362.703 802.149,461.834 804.142,190.391 806.135,124.267 808.128,177.607 810.121,223.311 812.114,286.678 814.108,221.479 816.101,251.249 818.094,149.305 820.087,299.065 822.08,372.055 824.073,360.741 826.066,227.605 828.06,166.989 830.053,187.333 832.046,217.79 834.039,490.975 836.032,237.104 838.025,420.089 840.018,351.835 842.012,317.306 844.005,342.94 845.998,213.259 847.991,220.676 849.984,211.201 851.977,342.187 853.97,322.609 855.964,443.517 857.957,256.555 859.95,468.658 861.943,308.525 863.936,260.433 865.929,261.858 867.922,243.616 869.916,245.698 871.909,275.018 873.902,288.17 875.895,212.432 877.888,455.578 879.881,197.309 881.874,344.126 883.868,289.223 885.861,149.384 887.854,261.612 889.847,213.884 891.84,447.347 893.833,252.97 895.827,297.607 897.82,290.954 899.813,194.522 901.806,305.828 903.799,277.503 905.792,231.706 907.785,448.831 909.779,268.086 911.772,287.108 913.765,199.718 915.758,162.345 917.751,177.553 919.744,157.876 921.737,273.384 923.731,345.713 925.724,156.037 927.717,234.376 929.71,191.096 931.703,184.655 933.696,433.777 935.689,177.138 937.683,218.672 939.676,393.638 941.669,202.771 943.662,349.688 945.655,144.646 947.648,264.816 949.641,115.45 951.635,326.043 953.628,403.929 955.621,282.045 957.614,277.989 959.607,432.53 961.6,202.904 963.593,343.219 965.587,317.185 967.58,153.571 969.573,176.925 971.566,307.138 973.559,315.52 975.552,228.677 977.545,209.548 979.539,254.977 981.532,309.591 983.525,281.395 985.518,170.566 987.511,158.244 989.504,270.03 991.497,222.46 993.491,164.487 995.484,197.214 997.477,205.229 999.47,247.118 1001.46,390.038 1003.46,294.025 1005.45,153.438 1007.44,220.423 1009.44,148.188 1011.43,258.795 1013.42,196.358 1015.42,240.665 1017.41,413.918 1019.4,207.507 1021.39,355.523 1023.39,329.98 1025.38,296.921 1027.37,175.115 1029.37,169.058 1031.36,158.166 1033.35,153.595 1035.35,216.94 1037.34,166.257 1039.33,142.614 1041.33,222.798 1043.32,219.066 1045.31,262.947 1047.31,239.136 1049.3,137.176 1051.29,215.677 1053.28,132.186 1055.28,233.709 1057.27,304.018 1059.26,255.861 1061.26,262.667 1063.25,319.665 1065.24,412.978 1067.24,165.453 1069.23,249.224 1071.22,401.081 1073.22,243.002 1075.21,380.394 1077.2,274.939 1079.2,167.994 1081.19,281.86 1083.18,318.929 1085.18,182.745 1087.17,247.76 1089.16,249.437 1091.15,160.965 1093.15,206.219 1095.14,192.373 1097.13,160.877 1099.13,189.679 1101.12,198.739 1103.11,196.487 1105.11,376.373 1107.1,333.06 1109.09,201.298 1111.09,284.977 1113.08,188.375 1115.07,237.609 1117.07,285.981 1119.06,135.237 1121.05,397.428 1123.05,243.987 1125.04,204.294 1127.03,185.451 1129.02,294.847 1131.02,152.698 1133.01,371.997 1135,244.652 1137,257.499 1138.99,145.705 1140.98,223.192 1142.98,268.97 1144.97,245.079 1146.96,267.037 1148.96,268.744 1150.95,108.953 1152.94,367.098 1154.94,290.116 1156.93,270.023 1158.92,405.913 1160.91,255.769 1162.91,177.278 1164.9,169.031 1166.89,262.044 1168.89,312.238 1170.88,200.979 1172.87,320.659 1174.87,159.485 1176.86,379.808 1178.85,176.718 1180.85,302.278 1182.84,168.519 1184.83,261.138 1186.83,315.184 1188.82,192.344 1190.81,157.279 1192.81,163.838 1194.8,424.703 1196.79,210.045 1198.78,170.38 1200.78,209.249 1202.77,206.764 1204.76,106.413 1206.76,229.878 1208.75,212.992 1210.74,176.245 1212.74,201.343 1214.73,224.863 1216.72,138.35 1218.72,193.231 1220.71,276.739 1222.7,226.357 1224.7,265.855 1226.69,138.632 1228.68,394.984 1230.67,282.25 1232.67,260.199 1234.66,192.568 1236.65,190.327 1238.65,341.349 1240.64,126.314 1242.63,255.88 1244.63,358.252 1246.62,199.229 1248.61,128.386 1250.61,133.338 1252.6,170.889 1254.59,205.237 1256.59,247.821 1258.58,264.176 1260.57,287.89 1262.57,336.868 1264.56,138.263 1266.55,317.487 1268.54,270.916 1270.54,145.035 1272.53,129.423 1274.52,282.463 1276.52,156.77 1278.51,252.496 1280.5,273.361 1282.5,342.741 1284.49,228.972 1286.48,203.474 1288.48,283.026 1290.47,214.752 1292.46,338.213 1294.46,246.003 1296.45,360.29 1298.44,275.63 1300.44,310.277 1302.43,345.291 1304.42,175.152 1306.41,306.564 1308.41,141.061 1310.4,172.353 1312.39,171.115 1314.39,304.814 1316.38,181.207 1318.37,281.636 1320.37,140.364 1322.36,213.98 1324.35,137.019 1326.35,320.275 1328.34,325.821 1330.33,152.102 1332.33,218.611 1334.32,245.109 1336.31,122.978 1338.3,130.098 1340.3,528.668 1342.29,221.47 1344.28,229.761 1346.28,207.366 1348.27,227.092 1350.26,123.126 1352.26,405.903 1354.25,307.112 1356.24,342.946 1358.24,233.874 1360.23,112.699 1362.22,245.373 1364.22,477.411 1366.21,88.6864 1368.2,143.493 1370.2,356.818 1372.19,397.114 1374.18,184.12 1376.17,237.677 1378.17,146.99 1380.16,335.211 1382.15,272.475 1384.15,173.471 1386.14,197.527 1388.13,317.05 1390.13,278.964 1392.12,274.858 1394.11,259.244 1396.11,161.903 1398.1,287.019 1400.09,107.187 1402.09,170.85 1404.08,195.709 1406.07,216.422 1408.06,363.881 1410.06,271.396 1412.05,260.827 1414.04,197.867 1416.04,376.959 1418.03,270.218 1420.02,355.278 1422.02,317.484 1424.01,161.829 1426,275.116 1428,222.627 1429.99,312.551 1431.98,271.279 1433.98,140.864 1435.97,229.212 1437.96,205.339 1439.96,258.629 1441.95,207.721 1443.94,213.837 1445.93,261.244 1447.93,292.966 1449.92,227.563 1451.91,209.315 1453.91,316.764 1455.9,181.482 1457.89,264.023 1459.89,200.833 1461.88,286.121 1463.87,163.674 1465.87,161.522 1467.86,151.517 1469.85,273.798 1471.85,153.454 1473.84,180.974 1475.83,128.717 1477.82,471.48 1479.82,209.774 1481.81,233.765 1483.8,338.772 1485.8,204.976 1487.79,268.854 1489.78,185.697 1491.78,123.469 1493.77,287.612 1495.76,162.195 1497.76,248.125 1499.75,258.62 1501.74,86.1857 1503.74,313.707 1505.73,449.245 1507.72,186.471 1509.72,396.479 1511.71,203.8 1513.7,303.288 1515.69,169.561 1517.69,163.646 1519.68,195.614 1521.67,161.558 1523.67,314.471 1525.66,201.914 1527.65,328.163 1529.65,216.231 1531.64,267.752 1533.63,204.335 1535.63,298.22 1537.62,301.083 1539.61,182.941 1541.61,328.819 1543.6,270.949 1545.59,234.663 1547.59,221.52 1549.58,198.812 1551.57,353.964 1553.56,308.408 1555.56,330.567 1557.55,258.422 1559.54,133.28 1561.54,189.31 1563.53,335.648 1565.52,235.943 1567.52,266.569 1569.51,398.089 1571.5,282.433 1573.5,322.919 1575.49,198.935 1577.48,209.318 1579.48,306.583 1581.47,388.15 1583.46,340.894 1585.45,248.291 1587.45,220.697 1589.44,322.815 1591.43,282.021 1593.43,172.486 1595.42,349.736 1597.41,175.291 1599.41,261.332 1601.4,199.026 1603.39,212.704 1605.39,330.859 1607.38,389.964 1609.37,262.819 1611.37,176.661 1613.36,280.253 1615.35,215.072 1617.35,163.639 1619.34,163.479 1621.33,556.166 1623.32,233.979 1625.32,245.541 1627.31,264.727 1629.3,190.269 1631.3,192.377 1633.29,277.587 1635.28,254.071 1637.28,149.091 1639.27,179.2 1641.26,230.65 1643.26,391.426 1645.25,330.942 1647.24,196.557 1649.24,158.414 1651.23,257.413 1653.22,212.809 1655.21,194.986 1657.21,277.918 1659.2,271.321 1661.19,212.535 1663.19,165.524 1665.18,135.499 1667.17,137.677 1669.17,175.907 1671.16,171.18 1673.15,249.133 1675.15,223.846 1677.14,196.63 1679.13,301.577 1681.13,120.538 1683.12,245.266 1685.11,208.565 1687.11,148.597 1689.1,228.14 1691.09,109.842 1693.08,204.867 1695.08,261.185 1697.07,210.298 1699.06,242.485 1701.06,168.117 1703.05,259.928 1705.04,157.097 1707.04,215.114 1709.03,107.203 1711.02,235.364 1713.02,217.335 1715.01,183.349 1717,135.614 1719,239.608 1720.99,260.658 1722.98,413.977 1724.97,410.687 1726.97,244.434 1728.96,292.794 1730.95,309.57 1732.95,236.257 1734.94,267.067 1736.93,140.609 1738.93,304.712 1740.92,127.949 1742.91,172.545 1744.91,274.013 1746.9,185.033 1748.89,184.188 1750.89,166.115 1752.88,242.129 1754.87,226.892 1756.87,322.168 1758.86,214.422 1760.85,258.897 1762.84,232.06 1764.84,382.446 1766.83,292.106 1768.82,198.412 1770.82,247.189 1772.81,182.399 1774.8,275.787 1776.8,357.039 1778.79,342.244 1780.78,207.919 1782.78,224.155 1784.77,185.946 1786.76,178.696 1788.76,306.594 1790.75,280.377 1792.74,100.607 1794.74,143.21 1796.73,174 1798.72,370.775 1800.71,197.124 1802.71,259.118 1804.7,184.343 1806.69,136.947 1808.69,203.509 1810.68,192.676 1812.67,460.733 1814.67,242.036 1816.66,177.988 1818.65,288.708 1820.65,408.356 1822.64,204.616 1824.63,138.585 1826.63,353.401 1828.62,287.905 1830.61,261.692 1832.6,145.06 1834.6,316.823 1836.59,270.887 1838.58,150.617 1840.58,169.119 1842.57,149.616 1844.56,316.081 1846.56,249.902 1848.55,393.299 1850.54,223.139 1852.54,160.518 1854.53,315.69 1856.52,156.341 1858.52,154.91 1860.51,199.473 1862.5,187.776 1864.5,179.901 1866.49,290.198 1868.48,176.673 1870.47,177.505 1872.47,165.32 1874.46,140.912 1876.45,204.135 1878.45,426.203 1880.44,213.903 1882.43,216.489 1884.43,288.571 1886.42,273.731 1888.41,356.596 1890.41,224.772 1892.4,192.896 1894.39,346.227 1896.39,195.994 1898.38,177.012 1900.37,351.487 1902.36,241.464 1904.36,314.945 1906.35,379.963 1908.34,115.468 1910.34,313.581 1912.33,165.256 1914.32,354.388 1916.32,244.011 1918.31,301.59 1920.3,260.448 1922.3,296.582 1924.29,173.113 1926.28,311.817 1928.28,260.494 1930.27,219.938 1932.26,209.538 1934.26,256.312 1936.25,297.936 1938.24,465.819 1940.23,171.168 1942.23,193.961 1944.22,557.12 1946.21,189.99 1948.21,170.109 1950.2,200.386 1952.19,214.917 1954.19,136.128 1956.18,191.32 1958.17,465.525 1960.17,307.279 1962.16,178.681 1964.15,243.277 1966.15,295.892 1968.14,193.286 1970.13,304.102 1972.12,359.012 1974.12,234.406 1976.11,281.688 1978.1,197.779 1980.1,260.559 1982.09,291.785 1984.08,326.051 1986.08,188.493 1988.07,146.663 1990.06,174.853 1992.06,184.605 1994.05,194.458 1996.04,456.98 1998.04,233.314 2000.03,195.09 2002.02,286.88 2004.02,159.204 2006.01,208.494 2008,176.695 2009.99,160.744 2011.99,242.253 2013.98,183.772 2015.97,158.101 2017.97,177.897 2019.96,415.732 2021.95,360.587 2023.95,234.982 2025.94,289.699 2027.93,149.797 2029.93,192.496 2031.92,409.901 2033.91,185.075 2035.91,164.659 2037.9,279.485 2039.89,137.189 2041.89,316.038 2043.88,358.789 2045.87,235.807 2047.86,217.644 2049.86,268.246 2051.85,258.926 2053.84,283.03 2055.84,164.795 2057.83,168.432 2059.82,395.652 2061.82,211.619 2063.81,176.457 2065.8,160.26 2067.8,256.813 2069.79,265.242 2071.78,227.3 2073.78,177.835 2075.77,162.806 2077.76,356.455 2079.75,321.24 2081.75,217.041 2083.74,264.524 2085.73,533.576 2087.73,201.717 2089.72,259.584 2091.71,301.669 2093.71,238.225 2095.7,295.409 2097.69,335.226 2099.69,453.223 2101.68,241.42 2103.67,278.728 2105.67,222.467 2107.66,266.687 2109.65,165.437 2111.65,265.825 2113.64,212.541 2115.63,139.074 2117.62,251.702 2119.62,268.265 2121.61,170.212 2123.6,294.883 2125.6,229.705 2127.59,157.039 2129.58,209.039 2131.58,253.579 2133.57,432.789 2135.56,126.246 2137.56,269.876 2139.55,254.445 2141.54,252.835 2143.54,379.265 2145.53,132.548 2147.52,172.171 2149.51,168.994 2151.51,636.636 2153.5,248.307 2155.49,279.729 2157.49,296.257 2159.48,315.525 2161.47,164.095 2163.47,276.44 2165.46,221.438 2167.45,298.155 2169.45,238.278 2171.44,266.496 2173.43,245.435 2175.43,293.441 2177.42,246.545 2179.41,224.67 2181.41,210.789 2183.4,229.983 2185.39,317.769 2187.38,143.932 2189.38,240.868 2191.37,177.164 2193.36,169.339 2195.36,163.408 2197.35,163.052 2199.34,215.193 2201.34,318.937 2203.33,353.287 2205.32,350.657 2207.32,136.8 2209.31,236.529 2211.3,391.309 2213.3,458.25 2215.29,235.717 2217.28,217.293 2219.27,150.13 2221.27,215.203 2223.26,268.015 2225.25,228.701 2227.25,209.173 2229.24,160.538 2231.23,395.486 2233.23,186.147 2235.22,202.712 2237.21,233.023 2239.21,248.323 2241.2,224.048 2243.19,158.659 2245.19,234.287 2247.18,247.698 2249.17,266.717 2251.17,352.623 2253.16,164.422 2255.15,192.942 2257.14,266.326 2259.14,338.445 2261.13,263.517 2263.12,177.85 2265.12,394.547 2267.11,162.01 2269.1,228.979 2271.1,211.332 2273.09,195.138 2275.08,277.504 2277.08,99.4002 2279.07,188.852 2281.06,122.703 2283.06,240.122 2285.05,161.287 2287.04,126.575 2289.04,220.082 2291.03,307.651 2293.02,166.552 "/>
<polyline clip-path="url(#clip912)" style="stroke:#e26f46; stroke-linecap:round; stroke-linejoin:round; stroke-width:4; stroke-opacity:1; fill:none" points="301.869,957.985 303.862,966.527 305.856,953.696 307.849,957.89 309.842,939.994 311.835,925.206 313.828,939.771 315.821,887.78 317.814,898.531 319.808,917.137 321.801,892.263 323.794,890.831 325.787,879.338 327.78,882.125 329.773,887.445 331.766,849.154 333.76,852.326 335.753,836.286 337.746,846.879 339.739,829.307 341.732,841.302 343.725,824.254 345.718,817.69 347.712,829.461 349.705,792.074 351.698,806.486 353.691,793.785 355.684,813.597 357.677,788.607 359.67,771.089 361.664,755.754 363.657,755.338 365.65,743.775 367.643,734.393 369.636,731.6 371.629,740.862 373.622,724.003 375.616,738.81 377.609,719.957 379.602,715.746 381.595,704.146 383.588,700.311 385.581,693.072 387.574,680.781 389.568,688.197 391.561,682.503 393.554,673.476 395.547,671.132 397.54,690.066 399.533,655.514 401.526,656.344 403.52,642.031 405.513,634.839 407.506,643.6 409.499,637.055 411.492,638.116 413.485,629.461 415.479,615.254 417.472,613.173 419.465,601.797 421.458,600.747 423.451,641.192 425.444,594.409 427.437,597.09 429.431,602.244 431.424,568.916 433.417,582.228 435.41,593.597 437.403,578.177 439.396,562.915 441.389,556.423 443.383,585.339 445.376,561.993 447.369,546.715 449.362,560.179 451.355,560.222 453.348,544.209 455.341,529.066 457.335,542.442 459.328,518.214 461.321,522.552 463.314,510.381 465.307,505.525 467.3,513.159 469.293,515.665 471.287,504.092 473.28,487.909 475.273,490.747 477.266,511.423 479.259,494.217 481.252,468.071 483.245,468.155 485.239,480.064 487.232,486.501 489.225,509.07 491.218,478.466 493.211,465.259 495.204,468.645 497.197,445.735 499.191,473.833 501.184,453.26 503.177,454.231 505.17,439.537 507.163,435.499 509.156,479.22 511.149,448.184 513.143,439.352 515.136,454.595 517.129,429.885 519.122,424.612 521.115,439.765 523.108,440.219 525.101,426.153 527.095,416.633 529.088,422.135 531.081,413.299 533.074,407.731 535.067,405.493 537.06,402.306 539.054,402.211 541.047,415.023 543.04,405.59 545.033,404.682 547.026,417.106 549.019,381.535 551.012,376.034 553.006,391.965 554.999,387.095 556.992,383.254 558.985,386.246 560.978,377.718 562.971,391.299 564.964,366.814 566.958,387.384 568.951,360.901 570.944,375.359 572.937,366.981 574.93,366.382 576.923,355.211 578.916,381.629 580.91,368.602 582.903,346.502 584.896,372.994 586.889,364.54 588.882,345.276 590.875,353.844 592.868,349.147 594.862,345.106 596.855,354.072 598.848,358.215 600.841,344.514 602.834,334.328 604.827,339.553 606.82,328.454 608.814,337.668 610.807,332.056 612.8,338.183 614.793,325.927 616.786,333.138 618.779,340.22 620.772,328.91 622.766,325.083 624.759,332.714 626.752,323.573 628.745,329.811 630.738,329.654 632.731,317.5 634.724,311.305 636.718,333.633 638.711,325.024 640.704,308.615 642.697,301.373 644.69,316.984 646.683,316.566 648.677,306.84 650.67,314.836 652.663,308.538 654.656,296.955 656.649,295.217 658.642,290.465 660.635,304.613 662.629,325.956 664.622,303.138 666.615,299.451 668.608,299.884 670.601,292.322 672.594,291.528 674.587,291.142 676.581,293.007 678.574,281.071 680.567,291.019 682.56,288.446 684.553,308.366 686.546,295.393 688.539,277.073 690.533,288.644 692.526,284.996 694.519,285.171 696.512,286.154 698.505,298.703 700.498,289.275 702.491,279.975 704.485,289.335 706.478,273.37 708.471,267.131 710.464,280.073 712.457,277.146 714.45,274.841 716.443,278.438 718.437,310.775 720.43,293.379 722.423,274.116 724.416,265.462 726.409,276.518 728.402,275.427 730.395,259.069 732.389,316.482 734.382,272.323 736.375,268.828 738.368,262.298 740.361,270.028 742.354,250.824 744.347,259.681 746.341,259.884 748.334,281.01 750.327,277.205 752.32,275.722 754.313,249.494 756.306,250.512 758.299,276.223 760.293,275.807 762.286,272.77 764.279,273.606 766.272,264.797 768.265,268.229 770.258,262.54 772.252,259.272 774.245,256.638 776.238,278.487 778.231,260.178 780.224,265.356 782.217,252.593 784.21,263.754 786.204,258.338 788.197,264.201 790.19,254.637 792.183,252.092 794.176,258.187 796.169,248.624 798.162,246.193 800.156,258.889 802.149,250.674 804.142,255.589 806.135,249.253 808.128,250.969 810.121,244.479 812.114,255.222 814.108,278.852 816.101,260.12 818.094,253.449 820.087,251.23 822.08,253.881 824.073,260.752 826.066,253.754 828.06,256.057 830.053,248.186 832.046,269.238 834.039,240.144 836.032,251.651 838.025,254.728 840.018,250.482 842.012,238.77 844.005,247.73 845.998,234.514 847.991,237.984 849.984,243.512 851.977,246.154 853.97,254.121 855.964,251.222 857.957,236.032 859.95,246.003 861.943,255.579 863.936,245.447 865.929,250.797 867.922,257.517 869.916,236.75 871.909,228.623 873.902,242.302 875.895,247.521 877.888,244.107 879.881,249.468 881.874,249.142 883.868,239.71 885.861,259.112 887.854,249.128 889.847,235.679 891.84,248.753 893.833,255.36 895.827,240.046 897.82,241.02 899.813,251.053 901.806,231.702 903.799,241.846 905.792,239.069 907.785,223.379 909.779,247.116 911.772,250.58 913.765,238.682 915.758,244.647 917.751,238.892 919.744,238.523 921.737,240.91 923.731,234.357 925.724,238.017 927.717,243.556 929.71,233.364 931.703,245.824 933.696,257.039 935.689,242.229 937.683,249.628 939.676,234.389 941.669,233.037 943.662,242.625 945.655,236.169 947.648,236.607 949.641,232.349 951.635,241.114 953.628,249.717 955.621,245.197 957.614,250.497 959.607,232.64 961.6,256.804 963.593,254.825 965.587,242.642 967.58,256.295 969.573,245.292 971.566,253.298 973.559,232.099 975.552,231.858 977.545,246.954 979.539,236.217 981.532,237.744 983.525,235.16 985.518,227.823 987.511,241.727 989.504,245.754 991.497,243.273 993.491,230.59 995.484,237.683 997.477,230.937 999.47,233.203 1001.46,240.844 1003.46,253.447 1005.45,229.818 1007.44,239.479 1009.44,237.893 1011.43,257.642 1013.42,246.108 1015.42,239.307 1017.41,254.082 1019.4,250.24 1021.39,225.024 1023.39,235.809 1025.38,234.847 1027.37,236.887 1029.37,246.902 1031.36,249.963 1033.35,252.179 1035.35,248.403 1037.34,240.391 1039.33,233.101 1041.33,240.396 1043.32,246.005 1045.31,244.379 1047.31,231.353 1049.3,246.095 1051.29,233.795 1053.28,248.846 1055.28,231.293 1057.27,264.132 1059.26,252.198 1061.26,233.723 1063.25,233.063 1065.24,240.139 1067.24,232.802 1069.23,224.443 1071.22,246.596 1073.22,247.582 1075.21,228.814 1077.2,249.497 1079.2,232.638 1081.19,248.826 1083.18,239.786 1085.18,235.242 1087.17,235.781 1089.16,232.982 1091.15,238.97 1093.15,238.684 1095.14,242.897 1097.13,228.36 1099.13,261.166 1101.12,247.089 1103.11,244.371 1105.11,237.328 1107.1,261.04 1109.09,240.645 1111.09,259.057 1113.08,246.13 1115.07,254.607 1117.07,245.427 1119.06,230.575 1121.05,249.826 1123.05,247.901 1125.04,239.088 1127.03,242.406 1129.02,245.494 1131.02,243.444 1133.01,231.784 1135,224.694 1137,234.273 1138.99,237.609 1140.98,231.145 1142.98,233.891 1144.97,237.789 1146.96,247.404 1148.96,233.622 1150.95,227.294 1152.94,226.294 1154.94,242.208 1156.93,260.673 1158.92,220.441 1160.91,238.058 1162.91,247.759 1164.9,231.547 1166.89,250.644 1168.89,253.823 1170.88,245.396 1172.87,249.571 1174.87,234.305 1176.86,251.052 1178.85,262.162 1180.85,226.7 1182.84,242.276 1184.83,243.976 1186.83,243.111 1188.82,245.631 1190.81,235.037 1192.81,242.947 1194.8,231.358 1196.79,245.017 1198.78,238.636 1200.78,234.309 1202.77,236.664 1204.76,249.009 1206.76,232.081 1208.75,261.769 1210.74,240.103 1212.74,229.503 1214.73,235.3 1216.72,257.127 1218.72,241.382 1220.71,237.976 1222.7,238.561 1224.7,241.181 1226.69,240.544 1228.68,225.083 1230.67,240.737 1232.67,231.911 1234.66,239.799 1236.65,245.214 1238.65,239.335 1240.64,225.953 1242.63,265.431 1244.63,238.684 1246.62,228.733 1248.61,231.584 1250.61,232.363 1252.6,229.859 1254.59,247.517 1256.59,244.53 1258.58,240.779 1260.57,240.619 1262.57,257.859 1264.56,229.559 1266.55,232.058 1268.54,242.747 1270.54,220.768 1272.53,227.09 1274.52,228.583 1276.52,252.121 1278.51,235.562 1280.5,245.656 1282.5,240.656 1284.49,237.91 1286.48,240.385 1288.48,232.978 1290.47,232.067 1292.46,224.727 1294.46,235.148 1296.45,233.044 1298.44,245.124 1300.44,238.56 1302.43,236.432 1304.42,245.512 1306.41,232.593 1308.41,233.345 1310.4,243.462 1312.39,244.468 1314.39,254.913 1316.38,249.477 1318.37,254.75 1320.37,235.224 1322.36,252.296 1324.35,234.221 1326.35,224.843 1328.34,237.172 1330.33,234.193 1332.33,235.273 1334.32,228.546 1336.31,236.29 1338.3,231.732 1340.3,250.06 1342.29,241.013 1344.28,237.092 1346.28,232.52 1348.27,234.805 1350.26,240.053 1352.26,248.395 1354.25,262.847 1356.24,239.985 1358.24,238.294 1360.23,244.347 1362.22,251.478 1364.22,223.438 1366.21,230.258 1368.2,268.12 1370.2,235.132 1372.19,237.664 1374.18,248.06 1376.17,247.3 1378.17,234.465 1380.16,244.747 1382.15,254.471 1384.15,229.397 1386.14,229.39 1388.13,243.258 1390.13,246.825 1392.12,249.22 1394.11,234.472 1396.11,223.986 1398.1,249.487 1400.09,245.773 1402.09,251.067 1404.08,232.01 1406.07,230.435 1408.06,234.93 1410.06,237.181 1412.05,254.901 1414.04,243.682 1416.04,238.661 1418.03,239.619 1420.02,235.395 1422.02,246.59 1424.01,244.51 1426,235.959 1428,235.555 1429.99,235.959 1431.98,242.19 1433.98,252.24 1435.97,236.477 1437.96,238.635 1439.96,231.878 1441.95,260.851 1443.94,248.74 1445.93,236.524 1447.93,241.584 1449.92,239.978 1451.91,256.923 1453.91,233.638 1455.9,237.4 1457.89,253.106 1459.89,243.022 1461.88,233.624 1463.87,251.455 1465.87,232.05 1467.86,241.837 1469.85,238.88 1471.85,237.613 1473.84,238.601 1475.83,237.804 1477.82,243.522 1479.82,226.011 1481.81,255.845 1483.8,230.128 1485.8,232.586 1487.79,242.603 1489.78,227.322 1491.78,244.775 1493.77,246.363 1495.76,223.976 1497.76,254.971 1499.75,249.153 1501.74,232.114 1503.74,237.752 1505.73,228.963 1507.72,226.462 1509.72,257.929 1511.71,236.59 1513.7,239.681 1515.69,238.733 1517.69,240.526 1519.68,234.478 1521.67,227.119 1523.67,231.667 1525.66,233.603 1527.65,235.097 1529.65,247.074 1531.64,254.596 1533.63,246.432 1535.63,229.494 1537.62,237.108 1539.61,235.413 1541.61,253.583 1543.6,237.544 1545.59,233.726 1547.59,262.396 1549.58,238.327 1551.57,225.956 1553.56,236.3 1555.56,239.221 1557.55,237.235 1559.54,254.83 1561.54,230.548 1563.53,242.879 1565.52,246.607 1567.52,244.902 1569.51,245.756 1571.5,241.762 1573.5,235.807 1575.49,233.696 1577.48,231.4 1579.48,231.473 1581.47,238.413 1583.46,238.318 1585.45,226.181 1587.45,240.165 1589.44,235.854 1591.43,241.423 1593.43,261.407 1595.42,236.081 1597.41,236.68 1599.41,254.508 1601.4,234.755 1603.39,251.237 1605.39,239.101 1607.38,257.971 1609.37,244.055 1611.37,245.525 1613.36,238.521 1615.35,239.668 1617.35,229.183 1619.34,236.007 1621.33,251.026 1623.32,226.156 1625.32,244.765 1627.31,233.023 1629.3,244.995 1631.3,236.966 1633.29,245.807 1635.28,261.703 1637.28,227.711 1639.27,243.804 1641.26,239.17 1643.26,237.613 1645.25,229.572 1647.24,234.376 1649.24,221.404 1651.23,234.526 1653.22,252.981 1655.21,258.446 1657.21,244.883 1659.2,235.669 1661.19,245.103 1663.19,241.933 1665.18,258.037 1667.17,232.376 1669.17,228.494 1671.16,242.543 1673.15,253.737 1675.15,233.533 1677.14,228.061 1679.13,243.458 1681.13,243.508 1683.12,237.79 1685.11,242.211 1687.11,246.867 1689.1,241.063 1691.09,234.604 1693.08,236.092 1695.08,251.538 1697.07,223.614 1699.06,230.828 1701.06,238.793 1703.05,238.054 1705.04,235.734 1707.04,227.506 1709.03,253.974 1711.02,230 1713.02,240.608 1715.01,250.683 1717,248.924 1719,229.627 1720.99,237.186 1722.98,227.668 1724.97,223.669 1726.97,251.681 1728.96,239.767 1730.95,238.388 1732.95,244.537 1734.94,244.592 1736.93,243.19 1738.93,231.49 1740.92,229.063 1742.91,241.022 1744.91,248.95 1746.9,235.426 1748.89,236.834 1750.89,245.361 1752.88,244.245 1754.87,238.334 1756.87,244.067 1758.86,247.001 1760.85,239.223 1762.84,229.72 1764.84,241.135 1766.83,231.547 1768.82,228.082 1770.82,235.794 1772.81,234.996 1774.8,238.982 1776.8,240.735 1778.79,244.941 1780.78,248.747 1782.78,236.02 1784.77,238.172 1786.76,231.154 1788.76,242.462 1790.75,244.83 1792.74,225.234 1794.74,237.595 1796.73,240.116 1798.72,249.209 1800.71,261.875 1802.71,237.295 1804.7,252.894 1806.69,239.341 1808.69,251.996 1810.68,251.924 1812.67,236.87 1814.67,235.981 1816.66,245.885 1818.65,242.954 1820.65,247.291 1822.64,247.594 1824.63,255.071 1826.63,241.931 1828.62,238.308 1830.61,229.377 1832.6,236.953 1834.6,241.917 1836.59,245.731 1838.58,244.619 1840.58,254.762 1842.57,238.236 1844.56,245.132 1846.56,254.027 1848.55,244.106 1850.54,240.294 1852.54,242.832 1854.53,242.268 1856.52,235.544 1858.52,264.88 1860.51,238.836 1862.5,245.144 1864.5,237.762 1866.49,240.962 1868.48,259.976 1870.47,242.839 1872.47,244.148 1874.46,225.41 1876.45,224.216 1878.45,236.144 1880.44,249.332 1882.43,244.364 1884.43,238.593 1886.42,239.885 1888.41,230.561 1890.41,240.635 1892.4,261.522 1894.39,242.116 1896.39,236.114 1898.38,226.56 1900.37,245.573 1902.36,225.456 1904.36,232.378 1906.35,245.974 1908.34,228.621 1910.34,240.734 1912.33,237.743 1914.32,228.728 1916.32,237.132 1918.31,237.837 1920.3,245.501 1922.3,248.333 1924.29,245.206 1926.28,241.914 1928.28,238.505 1930.27,240.202 1932.26,248.293 1934.26,229.985 1936.25,242.783 1938.24,229.249 1940.23,240.54 1942.23,230.231 1944.22,231.672 1946.21,248.06 1948.21,243.566 1950.2,249.12 1952.19,242.993 1954.19,225.854 1956.18,243.899 1958.17,238.9 1960.17,240.084 1962.16,224.858 1964.15,236.511 1966.15,250.462 1968.14,235.126 1970.13,253.981 1972.12,246.994 1974.12,229.492 1976.11,263.959 1978.1,260.455 1980.1,242.658 1982.09,252.648 1984.08,253.47 1986.08,232.688 1988.07,230.254 1990.06,243.029 1992.06,238.506 1994.05,232.297 1996.04,252.616 1998.04,228.83 2000.03,223.562 2002.02,236.202 2004.02,240.217 2006.01,216.374 2008,227.455 2009.99,240.503 2011.99,236.984 2013.98,251.846 2015.97,242.884 2017.97,231.966 2019.96,240.322 2021.95,241.012 2023.95,236.355 2025.94,247.024 2027.93,232.353 2029.93,248.97 2031.92,245.7 2033.91,243.994 2035.91,247.515 2037.9,250.85 2039.89,227.19 2041.89,238.483 2043.88,252.355 2045.87,233.305 2047.86,240.494 2049.86,242.217 2051.85,246.708 2053.84,246.773 2055.84,236.666 2057.83,226.776 2059.82,239.997 2061.82,234.726 2063.81,239.325 2065.8,237.975 2067.8,242.447 2069.79,225.949 2071.78,233.441 2073.78,234.291 2075.77,262.066 2077.76,226.86 2079.75,243.179 2081.75,240.006 2083.74,238.38 2085.73,238.03 2087.73,227.522 2089.72,244.35 2091.71,247.761 2093.71,256.746 2095.7,235.787 2097.69,253.869 2099.69,238.74 2101.68,237.526 2103.67,233.973 2105.67,237.332 2107.66,237.238 2109.65,235.62 2111.65,248.34 2113.64,235.165 2115.63,242.049 2117.62,246.07 2119.62,239.932 2121.61,240.822 2123.6,242.07 2125.6,243.795 2127.59,236.837 2129.58,247.486 2131.58,233.388 2133.57,248.043 2135.56,245.639 2137.56,230.161 2139.55,251.363 2141.54,238.495 2143.54,232.626 2145.53,238.608 2147.52,233.649 2149.51,232.067 2151.51,242.206 2153.5,236.472 2155.49,236.507 2157.49,238.288 2159.48,258.647 2161.47,239.398 2163.47,238.83 2165.46,247.402 2167.45,231.163 2169.45,226.712 2171.44,235.175 2173.43,227.042 2175.43,238.802 2177.42,236.903 2179.41,230.219 2181.41,228.721 2183.4,246.119 2185.39,249.642 2187.38,242.018 2189.38,234.376 2191.37,234.884 2193.36,247.02 2195.36,239.945 2197.35,242.013 2199.34,243.155 2201.34,260.189 2203.33,250.753 2205.32,235.333 2207.32,241.687 2209.31,244.554 2211.3,250.526 2213.3,237.945 2215.29,241.019 2217.28,240.423 2219.27,224.311 2221.27,236.931 2223.26,235.745 2225.25,239.412 2227.25,229.51 2229.24,235.306 2231.23,249.021 2233.23,226.275 2235.22,245.922 2237.21,238.827 2239.21,251.895 2241.2,232.329 2243.19,230.579 2245.19,233.22 2247.18,247.316 2249.17,249.446 2251.17,248.13 2253.16,240.397 2255.15,227.42 2257.14,263.769 2259.14,254.077 2261.13,242.119 2263.12,242.805 2265.12,236.959 2267.11,215.726 2269.1,255.371 2271.1,236.668 2273.09,234.405 2275.08,235.863 2277.08,256.972 2279.07,238.566 2281.06,223.725 2283.06,237.014 2285.05,236.125 2287.04,239.992 2289.04,235.972 2291.03,236.628 2293.02,235.875 "/>
<path clip-path="url(#clip910)" d="M1736.78 1377.32 L2282.4 1377.32 L2282.4 1221.8 L1736.78 1221.8  Z" fill="#ffffff" fill-rule="evenodd" fill-opacity="1"/>
<polyline clip-path="url(#clip910)" style="stroke:#000000; stroke-linecap:round; stroke-linejoin:round; stroke-width:4; stroke-opacity:1; fill:none" points="1736.78,1377.32 2282.4,1377.32 2282.4,1221.8 1736.78,1221.8 1736.78,1377.32 "/>
<polyline clip-path="url(#clip910)" style="stroke:#009af9; stroke-linecap:round; stroke-linejoin:round; stroke-width:4; stroke-opacity:1; fill:none" points="1760.23,1273.64 1900.94,1273.64 "/>
<path clip-path="url(#clip910)" d="M1929.07 1274.41 L1929.07 1287.07 L1936.57 1287.07 Q1940.34 1287.07 1942.15 1285.52 Q1943.98 1283.95 1943.98 1280.73 Q1943.98 1277.49 1942.15 1275.96 Q1940.34 1274.41 1936.57 1274.41 L1929.07 1274.41 M1929.07 1260.2 L1929.07 1270.61 L1935.99 1270.61 Q1939.42 1270.61 1941.08 1269.34 Q1942.77 1268.05 1942.77 1265.41 Q1942.77 1262.79 1941.08 1261.49 Q1939.42 1260.2 1935.99 1260.2 L1929.07 1260.2 M1924.39 1256.36 L1936.34 1256.36 Q1941.68 1256.36 1944.58 1258.58 Q1947.47 1260.8 1947.47 1264.9 Q1947.47 1268.07 1945.99 1269.94 Q1944.51 1271.82 1941.64 1272.28 Q1945.09 1273.02 1946.98 1275.38 Q1948.91 1277.72 1948.91 1281.24 Q1948.91 1285.87 1945.76 1288.39 Q1942.61 1290.92 1936.8 1290.92 L1924.39 1290.92 L1924.39 1256.36 Z" fill="#000000" fill-rule="nonzero" fill-opacity="1" /><path clip-path="url(#clip910)" d="M1961.59 1274.41 L1961.59 1287.07 L1969.09 1287.07 Q1972.86 1287.07 1974.67 1285.52 Q1976.5 1283.95 1976.5 1280.73 Q1976.5 1277.49 1974.67 1275.96 Q1972.86 1274.41 1969.09 1274.41 L1961.59 1274.41 M1961.59 1260.2 L1961.59 1270.61 L1968.51 1270.61 Q1971.94 1270.61 1973.6 1269.34 Q1975.29 1268.05 1975.29 1265.41 Q1975.29 1262.79 1973.6 1261.49 Q1971.94 1260.2 1968.51 1260.2 L1961.59 1260.2 M1956.92 1256.36 L1968.86 1256.36 Q1974.21 1256.36 1977.1 1258.58 Q1979.99 1260.8 1979.99 1264.9 Q1979.99 1268.07 1978.51 1269.94 Q1977.03 1271.82 1974.16 1272.28 Q1977.61 1273.02 1979.51 1275.38 Q1981.43 1277.72 1981.43 1281.24 Q1981.43 1285.87 1978.28 1288.39 Q1975.13 1290.92 1969.32 1290.92 L1956.92 1290.92 L1956.92 1256.36 Z" fill="#000000" fill-rule="nonzero" fill-opacity="1" /><path clip-path="url(#clip910)" d="M1996.89 1290.92 L1983.7 1256.36 L1988.58 1256.36 L1999.53 1285.45 L2010.5 1256.36 L2015.36 1256.36 L2002.19 1290.92 L1996.89 1290.92 Z" fill="#000000" fill-rule="nonzero" fill-opacity="1" /><path clip-path="url(#clip910)" d="M2020.41 1256.36 L2025.09 1256.36 L2025.09 1290.92 L2020.41 1290.92 L2020.41 1256.36 Z" fill="#000000" fill-rule="nonzero" fill-opacity="1" /><path clip-path="url(#clip910)" d="M2075.34 1259.02 L2075.34 1263.95 Q2072.98 1261.75 2070.29 1260.66 Q2067.63 1259.57 2064.62 1259.57 Q2058.7 1259.57 2055.55 1263.21 Q2052.4 1266.82 2052.4 1273.67 Q2052.4 1280.5 2055.55 1284.13 Q2058.7 1287.74 2064.62 1287.74 Q2067.63 1287.74 2070.29 1286.66 Q2072.98 1285.57 2075.34 1283.37 L2075.34 1288.25 Q2072.89 1289.92 2070.13 1290.75 Q2067.4 1291.59 2064.35 1291.59 Q2056.5 1291.59 2051.98 1286.79 Q2047.47 1281.98 2047.47 1273.67 Q2047.47 1265.34 2051.98 1260.55 Q2056.5 1255.73 2064.35 1255.73 Q2067.45 1255.73 2070.18 1256.56 Q2072.93 1257.37 2075.34 1259.02 Z" fill="#000000" fill-rule="nonzero" fill-opacity="1" /><path clip-path="url(#clip910)" d="M2082.56 1256.36 L2102.42 1256.36 L2102.42 1260.29 L2087.24 1260.29 L2087.24 1270.48 L2100.94 1270.48 L2100.94 1274.41 L2087.24 1274.41 L2087.24 1290.92 L2082.56 1290.92 L2082.56 1256.36 Z" fill="#000000" fill-rule="nonzero" fill-opacity="1" /><path clip-path="url(#clip910)" d="M2109.83 1256.36 L2131.68 1256.36 L2131.68 1260.29 L2114.51 1260.29 L2114.51 1270.52 L2130.97 1270.52 L2130.97 1274.46 L2114.51 1274.46 L2114.51 1286.98 L2132.1 1286.98 L2132.1 1290.92 L2109.83 1290.92 L2109.83 1256.36 Z" fill="#000000" fill-rule="nonzero" fill-opacity="1" /><polyline clip-path="url(#clip910)" style="stroke:#e26f46; stroke-linecap:round; stroke-linejoin:round; stroke-width:4; stroke-opacity:1; fill:none" points="1760.23,1325.48 1900.94,1325.48 "/>
<path clip-path="url(#clip910)" d="M1929.07 1326.25 L1929.07 1338.91 L1936.57 1338.91 Q1940.34 1338.91 1942.15 1337.36 Q1943.98 1335.79 1943.98 1332.57 Q1943.98 1329.33 1942.15 1327.8 Q1940.34 1326.25 1936.57 1326.25 L1929.07 1326.25 M1929.07 1312.04 L1929.07 1322.45 L1935.99 1322.45 Q1939.42 1322.45 1941.08 1321.18 Q1942.77 1319.89 1942.77 1317.25 Q1942.77 1314.63 1941.08 1313.33 Q1939.42 1312.04 1935.99 1312.04 L1929.07 1312.04 M1924.39 1308.2 L1936.34 1308.2 Q1941.68 1308.2 1944.58 1310.42 Q1947.47 1312.64 1947.47 1316.74 Q1947.47 1319.91 1945.99 1321.78 Q1944.51 1323.66 1941.64 1324.12 Q1945.09 1324.86 1946.98 1327.22 Q1948.91 1329.56 1948.91 1333.08 Q1948.91 1337.71 1945.76 1340.23 Q1942.61 1342.76 1936.8 1342.76 L1924.39 1342.76 L1924.39 1308.2 Z" fill="#000000" fill-rule="nonzero" fill-opacity="1" /><path clip-path="url(#clip910)" d="M1961.59 1326.25 L1961.59 1338.91 L1969.09 1338.91 Q1972.86 1338.91 1974.67 1337.36 Q1976.5 1335.79 1976.5 1332.57 Q1976.5 1329.33 1974.67 1327.8 Q1972.86 1326.25 1969.09 1326.25 L1961.59 1326.25 M1961.59 1312.04 L1961.59 1322.45 L1968.51 1322.45 Q1971.94 1322.45 1973.6 1321.18 Q1975.29 1319.89 1975.29 1317.25 Q1975.29 1314.63 1973.6 1313.33 Q1971.94 1312.04 1968.51 1312.04 L1961.59 1312.04 M1956.92 1308.2 L1968.86 1308.2 Q1974.21 1308.2 1977.1 1310.42 Q1979.99 1312.64 1979.99 1316.74 Q1979.99 1319.91 1978.51 1321.78 Q1977.03 1323.66 1974.16 1324.12 Q1977.61 1324.86 1979.51 1327.22 Q1981.43 1329.56 1981.43 1333.08 Q1981.43 1337.71 1978.28 1340.23 Q1975.13 1342.76 1969.32 1342.76 L1956.92 1342.76 L1956.92 1308.2 Z" fill="#000000" fill-rule="nonzero" fill-opacity="1" /><path clip-path="url(#clip910)" d="M1996.89 1342.76 L1983.7 1308.2 L1988.58 1308.2 L1999.53 1337.29 L2010.5 1308.2 L2015.36 1308.2 L2002.19 1342.76 L1996.89 1342.76 Z" fill="#000000" fill-rule="nonzero" fill-opacity="1" /><path clip-path="url(#clip910)" d="M2020.41 1308.2 L2025.09 1308.2 L2025.09 1342.76 L2020.41 1342.76 L2020.41 1308.2 Z" fill="#000000" fill-rule="nonzero" fill-opacity="1" /><path clip-path="url(#clip910)" d="M2075.34 1310.86 L2075.34 1315.79 Q2072.98 1313.59 2070.29 1312.5 Q2067.63 1311.41 2064.62 1311.41 Q2058.7 1311.41 2055.55 1315.05 Q2052.4 1318.66 2052.4 1325.51 Q2052.4 1332.34 2055.55 1335.97 Q2058.7 1339.58 2064.62 1339.58 Q2067.63 1339.58 2070.29 1338.5 Q2072.98 1337.41 2075.34 1335.21 L2075.34 1340.09 Q2072.89 1341.76 2070.13 1342.59 Q2067.4 1343.43 2064.35 1343.43 Q2056.5 1343.43 2051.98 1338.63 Q2047.47 1333.82 2047.47 1325.51 Q2047.47 1317.18 2051.98 1312.39 Q2056.5 1307.57 2064.35 1307.57 Q2067.45 1307.57 2070.18 1308.4 Q2072.93 1309.21 2075.34 1310.86 Z" fill="#000000" fill-rule="nonzero" fill-opacity="1" /><path clip-path="url(#clip910)" d="M2082.56 1308.2 L2102.42 1308.2 L2102.42 1312.13 L2087.24 1312.13 L2087.24 1322.32 L2100.94 1322.32 L2100.94 1326.25 L2087.24 1326.25 L2087.24 1342.76 L2082.56 1342.76 L2082.56 1308.2 Z" fill="#000000" fill-rule="nonzero" fill-opacity="1" /><path clip-path="url(#clip910)" d="M2109.83 1308.2 L2131.68 1308.2 L2131.68 1312.13 L2114.51 1312.13 L2114.51 1322.36 L2130.97 1322.36 L2130.97 1326.3 L2114.51 1326.3 L2114.51 1338.82 L2132.1 1338.82 L2132.1 1342.76 L2109.83 1342.76 L2109.83 1308.2 Z" fill="#000000" fill-rule="nonzero" fill-opacity="1" /><path clip-path="url(#clip910)" d="M2168.88 1311.37 Q2163.79 1311.37 2160.78 1315.16 Q2157.79 1318.96 2157.79 1325.51 Q2157.79 1332.04 2160.78 1335.83 Q2163.79 1339.63 2168.88 1339.63 Q2173.97 1339.63 2176.94 1335.83 Q2179.92 1332.04 2179.92 1325.51 Q2179.92 1318.96 2176.94 1315.16 Q2173.97 1311.37 2168.88 1311.37 M2175.43 1342.13 L2181.59 1348.87 L2175.94 1348.87 L2170.83 1343.33 Q2170.06 1343.38 2169.65 1343.4 Q2169.25 1343.43 2168.88 1343.43 Q2161.59 1343.43 2157.21 1338.57 Q2152.86 1333.68 2152.86 1325.51 Q2152.86 1317.32 2157.21 1312.45 Q2161.59 1307.57 2168.88 1307.57 Q2176.15 1307.57 2180.5 1312.45 Q2184.85 1317.32 2184.85 1325.51 Q2184.85 1331.53 2182.42 1335.81 Q2180.02 1340.09 2175.43 1342.13 Z" fill="#000000" fill-rule="nonzero" fill-opacity="1" /><path clip-path="url(#clip910)" d="M2192.17 1308.2 L2199.14 1308.2 L2207.96 1331.71 L2216.82 1308.2 L2223.79 1308.2 L2223.79 1342.76 L2219.23 1342.76 L2219.23 1312.41 L2210.32 1336.11 L2205.62 1336.11 L2196.71 1312.41 L2196.71 1342.76 L2192.17 1342.76 L2192.17 1308.2 Z" fill="#000000" fill-rule="nonzero" fill-opacity="1" /><path clip-path="url(#clip910)" d="M2258.95 1310.86 L2258.95 1315.79 Q2256.59 1313.59 2253.9 1312.5 Q2251.24 1311.41 2248.23 1311.41 Q2242.31 1311.41 2239.16 1315.05 Q2236.01 1318.66 2236.01 1325.51 Q2236.01 1332.34 2239.16 1335.97 Q2242.31 1339.58 2248.23 1339.58 Q2251.24 1339.58 2253.9 1338.5 Q2256.59 1337.41 2258.95 1335.21 L2258.95 1340.09 Q2256.5 1341.76 2253.74 1342.59 Q2251.01 1343.43 2247.96 1343.43 Q2240.11 1343.43 2235.59 1338.63 Q2231.08 1333.82 2231.08 1325.51 Q2231.08 1317.18 2235.59 1312.39 Q2240.11 1307.57 2247.96 1307.57 Q2251.06 1307.57 2253.79 1308.4 Q2256.54 1309.21 2258.95 1310.86 Z" fill="#000000" fill-rule="nonzero" fill-opacity="1" /></svg>
