<?xml version="1.0" encoding="utf-8"?>
<svg xmlns="http://www.w3.org/2000/svg" xmlns:xlink="http://www.w3.org/1999/xlink" width="600" height="400" viewBox="0 0 2400 1600">
<defs>
  <clipPath id="clip750">
    <rect x="0" y="0" width="2400" height="1600"/>
  </clipPath>
</defs>
<path clip-path="url(#clip750)" d="M0 1600 L2400 1600 L2400 0 L0 0  Z" fill="#ffffff" fill-rule="evenodd" fill-opacity="1"/>
<defs>
  <clipPath id="clip751">
    <rect x="480" y="0" width="1681" height="1600"/>
  </clipPath>
</defs>
<path clip-path="url(#clip750)" d="M332.62 1423.18 L2352.76 1423.18 L2352.76 47.2441 L332.62 47.2441  Z" fill="#ffffff" fill-rule="evenodd" fill-opacity="1"/>
<defs>
  <clipPath id="clip752">
    <rect x="332" y="47" width="2021" height="1377"/>
  </clipPath>
</defs>
<polyline clip-path="url(#clip752)" style="stroke:#000000; stroke-linecap:round; stroke-linejoin:round; stroke-width:2; stroke-opacity:0.1; fill:none" points="356.173,1423.18 356.173,47.2441 "/>
<polyline clip-path="url(#clip752)" style="stroke:#000000; stroke-linecap:round; stroke-linejoin:round; stroke-width:2; stroke-opacity:0.1; fill:none" points="695.153,1423.18 695.153,47.2441 "/>
<polyline clip-path="url(#clip752)" style="stroke:#000000; stroke-linecap:round; stroke-linejoin:round; stroke-width:2; stroke-opacity:0.1; fill:none" points="1034.13,1423.18 1034.13,47.2441 "/>
<polyline clip-path="url(#clip752)" style="stroke:#000000; stroke-linecap:round; stroke-linejoin:round; stroke-width:2; stroke-opacity:0.1; fill:none" points="1373.11,1423.18 1373.11,47.2441 "/>
<polyline clip-path="url(#clip752)" style="stroke:#000000; stroke-linecap:round; stroke-linejoin:round; stroke-width:2; stroke-opacity:0.1; fill:none" points="1712.09,1423.18 1712.09,47.2441 "/>
<polyline clip-path="url(#clip752)" style="stroke:#000000; stroke-linecap:round; stroke-linejoin:round; stroke-width:2; stroke-opacity:0.1; fill:none" points="2051.07,1423.18 2051.07,47.2441 "/>
<polyline clip-path="url(#clip752)" style="stroke:#000000; stroke-linecap:round; stroke-linejoin:round; stroke-width:2; stroke-opacity:0.1; fill:none" points="332.62,1301.33 2352.76,1301.33 "/>
<polyline clip-path="url(#clip752)" style="stroke:#000000; stroke-linecap:round; stroke-linejoin:round; stroke-width:2; stroke-opacity:0.1; fill:none" points="332.62,1111.95 2352.76,1111.95 "/>
<polyline clip-path="url(#clip752)" style="stroke:#000000; stroke-linecap:round; stroke-linejoin:round; stroke-width:2; stroke-opacity:0.1; fill:none" points="332.62,922.572 2352.76,922.572 "/>
<polyline clip-path="url(#clip752)" style="stroke:#000000; stroke-linecap:round; stroke-linejoin:round; stroke-width:2; stroke-opacity:0.1; fill:none" points="332.62,733.193 2352.76,733.193 "/>
<polyline clip-path="url(#clip752)" style="stroke:#000000; stroke-linecap:round; stroke-linejoin:round; stroke-width:2; stroke-opacity:0.1; fill:none" points="332.62,543.813 2352.76,543.813 "/>
<polyline clip-path="url(#clip752)" style="stroke:#000000; stroke-linecap:round; stroke-linejoin:round; stroke-width:2; stroke-opacity:0.1; fill:none" points="332.62,354.434 2352.76,354.434 "/>
<polyline clip-path="url(#clip752)" style="stroke:#000000; stroke-linecap:round; stroke-linejoin:round; stroke-width:2; stroke-opacity:0.1; fill:none" points="332.62,165.054 2352.76,165.054 "/>
<polyline clip-path="url(#clip750)" style="stroke:#000000; stroke-linecap:round; stroke-linejoin:round; stroke-width:4; stroke-opacity:1; fill:none" points="332.62,1423.18 2352.76,1423.18 "/>
<polyline clip-path="url(#clip750)" style="stroke:#000000; stroke-linecap:round; stroke-linejoin:round; stroke-width:4; stroke-opacity:1; fill:none" points="356.173,1423.18 356.173,1404.28 "/>
<polyline clip-path="url(#clip750)" style="stroke:#000000; stroke-linecap:round; stroke-linejoin:round; stroke-width:4; stroke-opacity:1; fill:none" points="695.153,1423.18 695.153,1404.28 "/>
<polyline clip-path="url(#clip750)" style="stroke:#000000; stroke-linecap:round; stroke-linejoin:round; stroke-width:4; stroke-opacity:1; fill:none" points="1034.13,1423.18 1034.13,1404.28 "/>
<polyline clip-path="url(#clip750)" style="stroke:#000000; stroke-linecap:round; stroke-linejoin:round; stroke-width:4; stroke-opacity:1; fill:none" points="1373.11,1423.18 1373.11,1404.28 "/>
<polyline clip-path="url(#clip750)" style="stroke:#000000; stroke-linecap:round; stroke-linejoin:round; stroke-width:4; stroke-opacity:1; fill:none" points="1712.09,1423.18 1712.09,1404.28 "/>
<polyline clip-path="url(#clip750)" style="stroke:#000000; stroke-linecap:round; stroke-linejoin:round; stroke-width:4; stroke-opacity:1; fill:none" points="2051.07,1423.18 2051.07,1404.28 "/>
<path clip-path="url(#clip750)" d="M356.173 1454.1 Q352.562 1454.1 350.733 1457.66 Q348.927 1461.2 348.927 1468.33 Q348.927 1475.44 350.733 1479.01 Q352.562 1482.55 356.173 1482.55 Q359.807 1482.55 361.613 1479.01 Q363.441 1475.44 363.441 1468.33 Q363.441 1461.2 361.613 1457.66 Q359.807 1454.1 356.173 1454.1 M356.173 1450.39 Q361.983 1450.39 365.038 1455 Q368.117 1459.58 368.117 1468.33 Q368.117 1477.06 365.038 1481.67 Q361.983 1486.25 356.173 1486.25 Q350.363 1486.25 347.284 1481.67 Q344.228 1477.06 344.228 1468.33 Q344.228 1459.58 347.284 1455 Q350.363 1450.39 356.173 1450.39 Z" fill="#000000" fill-rule="nonzero" fill-opacity="1" /><path clip-path="url(#clip750)" d="M685.431 1451.02 L703.787 1451.02 L703.787 1454.96 L689.713 1454.96 L689.713 1463.43 Q690.732 1463.08 691.75 1462.92 Q692.769 1462.73 693.787 1462.73 Q699.574 1462.73 702.954 1465.9 Q706.334 1469.08 706.334 1474.49 Q706.334 1480.07 702.861 1483.17 Q699.389 1486.25 693.07 1486.25 Q690.894 1486.25 688.625 1485.88 Q686.38 1485.51 683.973 1484.77 L683.973 1480.07 Q686.056 1481.2 688.278 1481.76 Q690.5 1482.32 692.977 1482.32 Q696.982 1482.32 699.32 1480.21 Q701.658 1478.1 701.658 1474.49 Q701.658 1470.88 699.32 1468.77 Q696.982 1466.67 692.977 1466.67 Q691.102 1466.67 689.227 1467.08 Q687.375 1467.5 685.431 1468.38 L685.431 1451.02 Z" fill="#000000" fill-rule="nonzero" fill-opacity="1" /><path clip-path="url(#clip750)" d="M1008.82 1481.64 L1016.46 1481.64 L1016.46 1455.28 L1008.15 1456.95 L1008.15 1452.69 L1016.41 1451.02 L1021.09 1451.02 L1021.09 1481.64 L1028.73 1481.64 L1028.73 1485.58 L1008.82 1485.58 L1008.82 1481.64 Z" fill="#000000" fill-rule="nonzero" fill-opacity="1" /><path clip-path="url(#clip750)" d="M1048.17 1454.1 Q1044.56 1454.1 1042.73 1457.66 Q1040.93 1461.2 1040.93 1468.33 Q1040.93 1475.44 1042.73 1479.01 Q1044.56 1482.55 1048.17 1482.55 Q1051.81 1482.55 1053.61 1479.01 Q1055.44 1475.44 1055.44 1468.33 Q1055.44 1461.2 1053.61 1457.66 Q1051.81 1454.1 1048.17 1454.1 M1048.17 1450.39 Q1053.98 1450.39 1057.04 1455 Q1060.12 1459.58 1060.12 1468.33 Q1060.12 1477.06 1057.04 1481.67 Q1053.98 1486.25 1048.17 1486.25 Q1042.36 1486.25 1039.28 1481.67 Q1036.23 1477.06 1036.23 1468.33 Q1036.23 1459.58 1039.28 1455 Q1042.36 1450.39 1048.17 1450.39 Z" fill="#000000" fill-rule="nonzero" fill-opacity="1" /><path clip-path="url(#clip750)" d="M1348.3 1481.64 L1355.94 1481.64 L1355.94 1455.28 L1347.63 1456.95 L1347.63 1452.69 L1355.89 1451.02 L1360.57 1451.02 L1360.57 1481.64 L1368.21 1481.64 L1368.21 1485.58 L1348.3 1485.58 L1348.3 1481.64 Z" fill="#000000" fill-rule="nonzero" fill-opacity="1" /><path clip-path="url(#clip750)" d="M1377.7 1451.02 L1396.05 1451.02 L1396.05 1454.96 L1381.98 1454.96 L1381.98 1463.43 Q1383 1463.08 1384.02 1462.92 Q1385.04 1462.73 1386.05 1462.73 Q1391.84 1462.73 1395.22 1465.9 Q1398.6 1469.08 1398.6 1474.49 Q1398.6 1480.07 1395.13 1483.17 Q1391.66 1486.25 1385.34 1486.25 Q1383.16 1486.25 1380.89 1485.88 Q1378.65 1485.51 1376.24 1484.77 L1376.24 1480.07 Q1378.32 1481.2 1380.54 1481.76 Q1382.77 1482.32 1385.24 1482.32 Q1389.25 1482.32 1391.59 1480.21 Q1393.92 1478.1 1393.92 1474.49 Q1393.92 1470.88 1391.59 1468.77 Q1389.25 1466.67 1385.24 1466.67 Q1383.37 1466.67 1381.49 1467.08 Q1379.64 1467.5 1377.7 1468.38 L1377.7 1451.02 Z" fill="#000000" fill-rule="nonzero" fill-opacity="1" /><path clip-path="url(#clip750)" d="M1690.87 1481.64 L1707.19 1481.64 L1707.19 1485.58 L1685.24 1485.58 L1685.24 1481.64 Q1687.9 1478.89 1692.49 1474.26 Q1697.09 1469.61 1698.27 1468.27 Q1700.52 1465.74 1701.4 1464.01 Q1702.3 1462.25 1702.3 1460.56 Q1702.3 1457.8 1700.36 1456.07 Q1698.44 1454.33 1695.33 1454.33 Q1693.14 1454.33 1690.68 1455.09 Q1688.25 1455.86 1685.47 1457.41 L1685.47 1452.69 Q1688.3 1451.55 1690.75 1450.97 Q1693.21 1450.39 1695.24 1450.39 Q1700.61 1450.39 1703.81 1453.08 Q1707 1455.77 1707 1460.26 Q1707 1462.39 1706.19 1464.31 Q1705.4 1466.2 1703.3 1468.8 Q1702.72 1469.47 1699.62 1472.69 Q1696.52 1475.88 1690.87 1481.64 Z" fill="#000000" fill-rule="nonzero" fill-opacity="1" /><path clip-path="url(#clip750)" d="M1727 1454.1 Q1723.39 1454.1 1721.56 1457.66 Q1719.76 1461.2 1719.76 1468.33 Q1719.76 1475.44 1721.56 1479.01 Q1723.39 1482.55 1727 1482.55 Q1730.64 1482.55 1732.44 1479.01 Q1734.27 1475.44 1734.27 1468.33 Q1734.27 1461.2 1732.44 1457.66 Q1730.64 1454.1 1727 1454.1 M1727 1450.39 Q1732.81 1450.39 1735.87 1455 Q1738.95 1459.58 1738.95 1468.33 Q1738.95 1477.06 1735.87 1481.67 Q1732.81 1486.25 1727 1486.25 Q1721.19 1486.25 1718.11 1481.67 Q1715.06 1477.06 1715.06 1468.33 Q1715.06 1459.58 1718.11 1455 Q1721.19 1450.39 1727 1450.39 Z" fill="#000000" fill-rule="nonzero" fill-opacity="1" /><path clip-path="url(#clip750)" d="M2030.35 1481.64 L2046.66 1481.64 L2046.66 1485.58 L2024.72 1485.58 L2024.72 1481.64 Q2027.38 1478.89 2031.97 1474.26 Q2036.57 1469.61 2037.75 1468.27 Q2040 1465.74 2040.88 1464.01 Q2041.78 1462.25 2041.78 1460.56 Q2041.78 1457.8 2039.84 1456.07 Q2037.91 1454.33 2034.81 1454.33 Q2032.61 1454.33 2030.16 1455.09 Q2027.73 1455.86 2024.95 1457.41 L2024.95 1452.69 Q2027.78 1451.55 2030.23 1450.97 Q2032.68 1450.39 2034.72 1450.39 Q2040.09 1450.39 2043.29 1453.08 Q2046.48 1455.77 2046.48 1460.26 Q2046.48 1462.39 2045.67 1464.31 Q2044.88 1466.2 2042.78 1468.8 Q2042.2 1469.47 2039.1 1472.69 Q2035.99 1475.88 2030.35 1481.64 Z" fill="#000000" fill-rule="nonzero" fill-opacity="1" /><path clip-path="url(#clip750)" d="M2056.53 1451.02 L2074.88 1451.02 L2074.88 1454.96 L2060.81 1454.96 L2060.81 1463.43 Q2061.83 1463.08 2062.85 1462.92 Q2063.86 1462.73 2064.88 1462.73 Q2070.67 1462.73 2074.05 1465.9 Q2077.43 1469.08 2077.43 1474.49 Q2077.43 1480.07 2073.96 1483.17 Q2070.48 1486.25 2064.16 1486.25 Q2061.99 1486.25 2059.72 1485.88 Q2057.47 1485.51 2055.07 1484.77 L2055.07 1480.07 Q2057.15 1481.2 2059.37 1481.76 Q2061.6 1482.32 2064.07 1482.32 Q2068.08 1482.32 2070.41 1480.21 Q2072.75 1478.1 2072.75 1474.49 Q2072.75 1470.88 2070.41 1468.77 Q2068.08 1466.67 2064.07 1466.67 Q2062.2 1466.67 2060.32 1467.08 Q2058.47 1467.5 2056.53 1468.38 L2056.53 1451.02 Z" fill="#000000" fill-rule="nonzero" fill-opacity="1" /><path clip-path="url(#clip750)" d="M1013.77 1520.52 L1020.27 1520.52 L1030.26 1560.69 L1040.22 1520.52 L1047.45 1520.52 L1057.44 1560.69 L1067.4 1520.52 L1073.93 1520.52 L1061.99 1568.04 L1053.91 1568.04 L1043.88 1526.79 L1033.76 1568.04 L1025.68 1568.04 L1013.77 1520.52 Z" fill="#000000" fill-rule="nonzero" fill-opacity="1" /><path clip-path="url(#clip750)" d="M1094.23 1550.12 Q1087.14 1550.12 1084.4 1551.75 Q1081.66 1553.37 1081.66 1557.29 Q1081.66 1560.4 1083.7 1562.25 Q1085.77 1564.07 1089.3 1564.07 Q1094.17 1564.07 1097.1 1560.63 Q1100.06 1557.16 1100.06 1551.43 L1100.06 1550.12 L1094.23 1550.12 M1105.92 1547.71 L1105.92 1568.04 L1100.06 1568.04 L1100.06 1562.63 Q1098.05 1565.88 1095.06 1567.44 Q1092.07 1568.97 1087.74 1568.97 Q1082.27 1568.97 1079.02 1565.91 Q1075.81 1562.82 1075.81 1557.67 Q1075.81 1551.65 1079.82 1548.6 Q1083.86 1545.54 1091.85 1545.54 L1100.06 1545.54 L1100.06 1544.97 Q1100.06 1540.93 1097.39 1538.73 Q1094.74 1536.5 1089.94 1536.5 Q1086.88 1536.5 1083.99 1537.23 Q1081.09 1537.97 1078.42 1539.43 L1078.42 1534.02 Q1081.63 1532.78 1084.65 1532.17 Q1087.68 1531.54 1090.54 1531.54 Q1098.28 1531.54 1102.1 1535.55 Q1105.92 1539.56 1105.92 1547.71 Z" fill="#000000" fill-rule="nonzero" fill-opacity="1" /><path clip-path="url(#clip750)" d="M1117.98 1518.52 L1123.84 1518.52 L1123.84 1568.04 L1117.98 1568.04 L1117.98 1518.52 Z" fill="#000000" fill-rule="nonzero" fill-opacity="1" /><path clip-path="url(#clip750)" d="M1136.09 1518.52 L1141.95 1518.52 L1141.95 1568.04 L1136.09 1568.04 L1136.09 1518.52 Z" fill="#000000" fill-rule="nonzero" fill-opacity="1" /><path clip-path="url(#clip750)" d="M1179.85 1533.76 L1179.85 1539.24 Q1177.37 1537.87 1174.86 1537.2 Q1172.37 1536.5 1169.83 1536.5 Q1164.13 1536.5 1160.98 1540.13 Q1157.83 1543.73 1157.83 1550.25 Q1157.83 1556.78 1160.98 1560.4 Q1164.13 1564 1169.83 1564 Q1172.37 1564 1174.86 1563.33 Q1177.37 1562.63 1179.85 1561.26 L1179.85 1566.68 Q1177.4 1567.82 1174.76 1568.39 Q1172.15 1568.97 1169.19 1568.97 Q1161.14 1568.97 1156.4 1563.91 Q1151.65 1558.85 1151.65 1550.25 Q1151.65 1541.53 1156.43 1536.53 Q1161.23 1531.54 1169.57 1531.54 Q1172.28 1531.54 1174.86 1532.11 Q1177.43 1532.65 1179.85 1533.76 Z" fill="#000000" fill-rule="nonzero" fill-opacity="1" /><path clip-path="url(#clip750)" d="M1190.04 1518.52 L1195.89 1518.52 L1195.89 1568.04 L1190.04 1568.04 L1190.04 1518.52 Z" fill="#000000" fill-rule="nonzero" fill-opacity="1" /><path clip-path="url(#clip750)" d="M1221.96 1536.5 Q1217.25 1536.5 1214.51 1540.19 Q1211.78 1543.85 1211.78 1550.25 Q1211.78 1556.65 1214.48 1560.34 Q1217.22 1564 1221.96 1564 Q1226.64 1564 1229.38 1560.31 Q1232.12 1556.62 1232.12 1550.25 Q1232.12 1543.92 1229.38 1540.23 Q1226.64 1536.5 1221.96 1536.5 M1221.96 1531.54 Q1229.6 1531.54 1233.96 1536.5 Q1238.32 1541.47 1238.32 1550.25 Q1238.32 1559 1233.96 1564 Q1229.6 1568.97 1221.96 1568.97 Q1214.29 1568.97 1209.93 1564 Q1205.6 1559 1205.6 1550.25 Q1205.6 1541.47 1209.93 1536.5 Q1214.29 1531.54 1221.96 1531.54 Z" fill="#000000" fill-rule="nonzero" fill-opacity="1" /><path clip-path="url(#clip750)" d="M1273.68 1533.76 L1273.68 1539.24 Q1271.2 1537.87 1268.69 1537.2 Q1266.2 1536.5 1263.66 1536.5 Q1257.96 1536.5 1254.81 1540.13 Q1251.66 1543.73 1251.66 1550.25 Q1251.66 1556.78 1254.81 1560.4 Q1257.96 1564 1263.66 1564 Q1266.2 1564 1268.69 1563.33 Q1271.2 1562.63 1273.68 1561.26 L1273.68 1566.68 Q1271.23 1567.82 1268.59 1568.39 Q1265.98 1568.97 1263.02 1568.97 Q1254.97 1568.97 1250.23 1563.91 Q1245.48 1558.85 1245.48 1550.25 Q1245.48 1541.53 1250.26 1536.53 Q1255.06 1531.54 1263.4 1531.54 Q1266.11 1531.54 1268.69 1532.11 Q1271.26 1532.65 1273.68 1533.76 Z" fill="#000000" fill-rule="nonzero" fill-opacity="1" /><path clip-path="url(#clip750)" d="M1283.65 1518.52 L1289.53 1518.52 L1289.53 1547.77 L1307.01 1532.4 L1314.49 1532.4 L1295.58 1549.07 L1315.28 1568.04 L1307.64 1568.04 L1289.53 1550.63 L1289.53 1568.04 L1283.65 1568.04 L1283.65 1518.52 Z" fill="#000000" fill-rule="nonzero" fill-opacity="1" /><path clip-path="url(#clip750)" d="M1336 1520.52 L1376.2 1520.52 L1376.2 1525.93 L1359.33 1525.93 L1359.33 1568.04 L1352.87 1568.04 L1352.87 1525.93 L1336 1525.93 L1336 1520.52 Z" fill="#000000" fill-rule="nonzero" fill-opacity="1" /><path clip-path="url(#clip750)" d="M1380.15 1532.4 L1386.01 1532.4 L1386.01 1568.04 L1380.15 1568.04 L1380.15 1532.4 M1380.15 1518.52 L1386.01 1518.52 L1386.01 1525.93 L1380.15 1525.93 L1380.15 1518.52 Z" fill="#000000" fill-rule="nonzero" fill-opacity="1" /><path clip-path="url(#clip750)" d="M1426.02 1539.24 Q1428.21 1535.29 1431.27 1533.41 Q1434.32 1531.54 1438.46 1531.54 Q1444.03 1531.54 1447.05 1535.45 Q1450.08 1539.33 1450.08 1546.53 L1450.08 1568.04 L1444.19 1568.04 L1444.19 1546.72 Q1444.19 1541.59 1442.38 1539.11 Q1440.56 1536.63 1436.84 1536.63 Q1432.29 1536.63 1429.64 1539.65 Q1427 1542.68 1427 1547.9 L1427 1568.04 L1421.11 1568.04 L1421.11 1546.72 Q1421.11 1541.56 1419.3 1539.11 Q1417.49 1536.63 1413.7 1536.63 Q1409.21 1536.63 1406.57 1539.68 Q1403.93 1542.71 1403.93 1547.9 L1403.93 1568.04 L1398.04 1568.04 L1398.04 1532.4 L1403.93 1532.4 L1403.93 1537.93 Q1405.93 1534.66 1408.73 1533.1 Q1411.53 1531.54 1415.38 1531.54 Q1419.27 1531.54 1421.97 1533.51 Q1424.71 1535.48 1426.02 1539.24 Z" fill="#000000" fill-rule="nonzero" fill-opacity="1" /><path clip-path="url(#clip750)" d="M1492.25 1548.76 L1492.25 1551.62 L1465.32 1551.62 Q1465.71 1557.67 1468.95 1560.85 Q1472.23 1564 1478.05 1564 Q1481.43 1564 1484.58 1563.17 Q1487.76 1562.35 1490.88 1560.69 L1490.88 1566.23 Q1487.73 1567.57 1484.42 1568.27 Q1481.11 1568.97 1477.7 1568.97 Q1469.17 1568.97 1464.18 1564 Q1459.21 1559.04 1459.21 1550.57 Q1459.21 1541.82 1463.92 1536.69 Q1468.67 1531.54 1476.69 1531.54 Q1483.88 1531.54 1488.05 1536.18 Q1492.25 1540.8 1492.25 1548.76 M1486.39 1547.04 Q1486.33 1542.23 1483.69 1539.37 Q1481.08 1536.5 1476.75 1536.5 Q1471.85 1536.5 1468.89 1539.27 Q1465.96 1542.04 1465.51 1547.07 L1486.39 1547.04 Z" fill="#000000" fill-rule="nonzero" fill-opacity="1" /><path clip-path="url(#clip750)" d="M1536.65 1518.58 Q1532.39 1525.9 1530.32 1533.06 Q1528.25 1540.23 1528.25 1547.58 Q1528.25 1554.93 1530.32 1562.16 Q1532.42 1569.35 1536.65 1576.64 L1531.56 1576.64 Q1526.78 1569.16 1524.4 1561.93 Q1522.04 1554.71 1522.04 1547.58 Q1522.04 1540.48 1524.4 1533.29 Q1526.75 1526.09 1531.56 1518.58 L1536.65 1518.58 Z" fill="#000000" fill-rule="nonzero" fill-opacity="1" /><path clip-path="url(#clip750)" d="M1570.74 1533.45 L1570.74 1538.98 Q1568.26 1537.71 1565.58 1537.07 Q1562.91 1536.44 1560.05 1536.44 Q1555.68 1536.44 1553.49 1537.77 Q1551.32 1539.11 1551.32 1541.79 Q1551.32 1543.82 1552.88 1545 Q1554.44 1546.15 1559.15 1547.2 L1561.16 1547.64 Q1567.4 1548.98 1570.01 1551.43 Q1572.65 1553.85 1572.65 1558.21 Q1572.65 1563.17 1568.7 1566.07 Q1564.79 1568.97 1557.91 1568.97 Q1555.05 1568.97 1551.93 1568.39 Q1548.84 1567.85 1545.4 1566.74 L1545.4 1560.69 Q1548.65 1562.38 1551.8 1563.24 Q1554.95 1564.07 1558.04 1564.07 Q1562.18 1564.07 1564.41 1562.66 Q1566.63 1561.23 1566.63 1558.65 Q1566.63 1556.27 1565.01 1554.99 Q1563.42 1553.72 1557.98 1552.54 L1555.94 1552.07 Q1550.5 1550.92 1548.08 1548.56 Q1545.66 1546.18 1545.66 1542.04 Q1545.66 1537.01 1549.22 1534.27 Q1552.79 1531.54 1559.34 1531.54 Q1562.59 1531.54 1565.46 1532.01 Q1568.32 1532.49 1570.74 1533.45 Z" fill="#000000" fill-rule="nonzero" fill-opacity="1" /><path clip-path="url(#clip750)" d="M1612.47 1548.76 L1612.47 1551.62 L1585.54 1551.62 Q1585.92 1557.67 1589.17 1560.85 Q1592.45 1564 1598.27 1564 Q1601.65 1564 1604.8 1563.17 Q1607.98 1562.35 1611.1 1560.69 L1611.1 1566.23 Q1607.95 1567.57 1604.64 1568.27 Q1601.33 1568.97 1597.92 1568.97 Q1589.39 1568.97 1584.39 1564 Q1579.43 1559.04 1579.43 1550.57 Q1579.43 1541.82 1584.14 1536.69 Q1588.88 1531.54 1596.9 1531.54 Q1604.1 1531.54 1608.27 1536.18 Q1612.47 1540.8 1612.47 1548.76 M1606.61 1547.04 Q1606.55 1542.23 1603.9 1539.37 Q1601.29 1536.5 1596.97 1536.5 Q1592.06 1536.5 1589.1 1539.27 Q1586.18 1542.04 1585.73 1547.07 L1606.61 1547.04 Z" fill="#000000" fill-rule="nonzero" fill-opacity="1" /><path clip-path="url(#clip750)" d="M1647.73 1533.76 L1647.73 1539.24 Q1645.25 1537.87 1642.74 1537.2 Q1640.25 1536.5 1637.71 1536.5 Q1632.01 1536.5 1628.86 1540.13 Q1625.71 1543.73 1625.71 1550.25 Q1625.71 1556.78 1628.86 1560.4 Q1632.01 1564 1637.71 1564 Q1640.25 1564 1642.74 1563.33 Q1645.25 1562.63 1647.73 1561.26 L1647.73 1566.68 Q1645.28 1567.82 1642.64 1568.39 Q1640.03 1568.97 1637.07 1568.97 Q1629.02 1568.97 1624.28 1563.91 Q1619.53 1558.85 1619.53 1550.25 Q1619.53 1541.53 1624.31 1536.53 Q1629.11 1531.54 1637.45 1531.54 Q1640.16 1531.54 1642.74 1532.11 Q1645.31 1532.65 1647.73 1533.76 Z" fill="#000000" fill-rule="nonzero" fill-opacity="1" /><path clip-path="url(#clip750)" d="M1656.99 1518.58 L1662.09 1518.58 Q1666.86 1526.09 1669.22 1533.29 Q1671.6 1540.48 1671.6 1547.58 Q1671.6 1554.71 1669.22 1561.93 Q1666.86 1569.16 1662.09 1576.64 L1656.99 1576.64 Q1661.23 1569.35 1663.3 1562.16 Q1665.4 1554.93 1665.4 1547.58 Q1665.4 1540.23 1663.3 1533.06 Q1661.23 1525.9 1656.99 1518.58 Z" fill="#000000" fill-rule="nonzero" fill-opacity="1" /><polyline clip-path="url(#clip750)" style="stroke:#000000; stroke-linecap:round; stroke-linejoin:round; stroke-width:4; stroke-opacity:1; fill:none" points="332.62,1423.18 332.62,47.2441 "/>
<polyline clip-path="url(#clip750)" style="stroke:#000000; stroke-linecap:round; stroke-linejoin:round; stroke-width:4; stroke-opacity:1; fill:none" points="332.62,1301.33 351.518,1301.33 "/>
<polyline clip-path="url(#clip750)" style="stroke:#000000; stroke-linecap:round; stroke-linejoin:round; stroke-width:4; stroke-opacity:1; fill:none" points="332.62,1111.95 351.518,1111.95 "/>
<polyline clip-path="url(#clip750)" style="stroke:#000000; stroke-linecap:round; stroke-linejoin:round; stroke-width:4; stroke-opacity:1; fill:none" points="332.62,922.572 351.518,922.572 "/>
<polyline clip-path="url(#clip750)" style="stroke:#000000; stroke-linecap:round; stroke-linejoin:round; stroke-width:4; stroke-opacity:1; fill:none" points="332.62,733.193 351.518,733.193 "/>
<polyline clip-path="url(#clip750)" style="stroke:#000000; stroke-linecap:round; stroke-linejoin:round; stroke-width:4; stroke-opacity:1; fill:none" points="332.62,543.813 351.518,543.813 "/>
<polyline clip-path="url(#clip750)" style="stroke:#000000; stroke-linecap:round; stroke-linejoin:round; stroke-width:4; stroke-opacity:1; fill:none" points="332.62,354.434 351.518,354.434 "/>
<polyline clip-path="url(#clip750)" style="stroke:#000000; stroke-linecap:round; stroke-linejoin:round; stroke-width:4; stroke-opacity:1; fill:none" points="332.62,165.054 351.518,165.054 "/>
<path clip-path="url(#clip750)" d="M114.26 1301.78 L143.936 1301.78 L143.936 1305.72 L114.26 1305.72 L114.26 1301.78 Z" fill="#000000" fill-rule="nonzero" fill-opacity="1" /><path clip-path="url(#clip750)" d="M154.839 1314.68 L162.477 1314.68 L162.477 1288.31 L154.167 1289.98 L154.167 1285.72 L162.431 1284.05 L167.107 1284.05 L167.107 1314.68 L174.746 1314.68 L174.746 1318.61 L154.839 1318.61 L154.839 1314.68 Z" fill="#000000" fill-rule="nonzero" fill-opacity="1" /><path clip-path="url(#clip750)" d="M188.218 1314.68 L204.537 1314.68 L204.537 1318.61 L182.593 1318.61 L182.593 1314.68 Q185.255 1311.92 189.838 1307.29 Q194.445 1302.64 195.625 1301.3 Q197.871 1298.77 198.75 1297.04 Q199.653 1295.28 199.653 1293.59 Q199.653 1290.83 197.709 1289.1 Q195.787 1287.36 192.686 1287.36 Q190.487 1287.36 188.033 1288.13 Q185.602 1288.89 182.825 1290.44 L182.825 1285.72 Q185.649 1284.58 188.102 1284.01 Q190.556 1283.43 192.593 1283.43 Q197.963 1283.43 201.158 1286.11 Q204.352 1288.8 204.352 1293.29 Q204.352 1295.42 203.542 1297.34 Q202.755 1299.24 200.649 1301.83 Q200.07 1302.5 196.968 1305.72 Q193.866 1308.91 188.218 1314.68 Z" fill="#000000" fill-rule="nonzero" fill-opacity="1" /><path clip-path="url(#clip750)" d="M224.352 1287.13 Q220.741 1287.13 218.912 1290.69 Q217.107 1294.24 217.107 1301.37 Q217.107 1308.47 218.912 1312.04 Q220.741 1315.58 224.352 1315.58 Q227.986 1315.58 229.792 1312.04 Q231.621 1308.47 231.621 1301.37 Q231.621 1294.24 229.792 1290.69 Q227.986 1287.13 224.352 1287.13 M224.352 1283.43 Q230.162 1283.43 233.218 1288.03 Q236.297 1292.62 236.297 1301.37 Q236.297 1310.09 233.218 1314.7 Q230.162 1319.28 224.352 1319.28 Q218.542 1319.28 215.463 1314.7 Q212.408 1310.09 212.408 1301.37 Q212.408 1292.62 215.463 1288.03 Q218.542 1283.43 224.352 1283.43 Z" fill="#000000" fill-rule="nonzero" fill-opacity="1" /><path clip-path="url(#clip750)" d="M254.514 1287.13 Q250.903 1287.13 249.074 1290.69 Q247.269 1294.24 247.269 1301.37 Q247.269 1308.47 249.074 1312.04 Q250.903 1315.58 254.514 1315.58 Q258.148 1315.58 259.954 1312.04 Q261.783 1308.47 261.783 1301.37 Q261.783 1294.24 259.954 1290.69 Q258.148 1287.13 254.514 1287.13 M254.514 1283.43 Q260.324 1283.43 263.38 1288.03 Q266.458 1292.62 266.458 1301.37 Q266.458 1310.09 263.38 1314.7 Q260.324 1319.28 254.514 1319.28 Q248.704 1319.28 245.625 1314.7 Q242.57 1310.09 242.57 1301.37 Q242.57 1292.62 245.625 1288.03 Q248.704 1283.43 254.514 1283.43 Z" fill="#000000" fill-rule="nonzero" fill-opacity="1" /><path clip-path="url(#clip750)" d="M284.676 1287.13 Q281.065 1287.13 279.236 1290.69 Q277.431 1294.24 277.431 1301.37 Q277.431 1308.47 279.236 1312.04 Q281.065 1315.58 284.676 1315.58 Q288.31 1315.58 290.116 1312.04 Q291.944 1308.47 291.944 1301.37 Q291.944 1294.24 290.116 1290.69 Q288.31 1287.13 284.676 1287.13 M284.676 1283.43 Q290.486 1283.43 293.542 1288.03 Q296.62 1292.62 296.62 1301.37 Q296.62 1310.09 293.542 1314.7 Q290.486 1319.28 284.676 1319.28 Q278.866 1319.28 275.787 1314.7 Q272.732 1310.09 272.732 1301.37 Q272.732 1292.62 275.787 1288.03 Q278.866 1283.43 284.676 1283.43 Z" fill="#000000" fill-rule="nonzero" fill-opacity="1" /><path clip-path="url(#clip750)" d="M114.26 1112.4 L143.936 1112.4 L143.936 1116.34 L114.26 1116.34 L114.26 1112.4 Z" fill="#000000" fill-rule="nonzero" fill-opacity="1" /><path clip-path="url(#clip750)" d="M154.839 1125.3 L162.477 1125.3 L162.477 1098.93 L154.167 1100.6 L154.167 1096.34 L162.431 1094.67 L167.107 1094.67 L167.107 1125.3 L174.746 1125.3 L174.746 1129.23 L154.839 1129.23 L154.839 1125.3 Z" fill="#000000" fill-rule="nonzero" fill-opacity="1" /><path clip-path="url(#clip750)" d="M185.001 1125.3 L192.639 1125.3 L192.639 1098.93 L184.329 1100.6 L184.329 1096.34 L192.593 1094.67 L197.269 1094.67 L197.269 1125.3 L204.908 1125.3 L204.908 1129.23 L185.001 1129.23 L185.001 1125.3 Z" fill="#000000" fill-rule="nonzero" fill-opacity="1" /><path clip-path="url(#clip750)" d="M224.352 1097.75 Q220.741 1097.75 218.912 1101.32 Q217.107 1104.86 217.107 1111.99 Q217.107 1119.09 218.912 1122.66 Q220.741 1126.2 224.352 1126.2 Q227.986 1126.2 229.792 1122.66 Q231.621 1119.09 231.621 1111.99 Q231.621 1104.86 229.792 1101.32 Q227.986 1097.75 224.352 1097.75 M224.352 1094.05 Q230.162 1094.05 233.218 1098.65 Q236.297 1103.24 236.297 1111.99 Q236.297 1120.71 233.218 1125.32 Q230.162 1129.9 224.352 1129.9 Q218.542 1129.9 215.463 1125.32 Q212.408 1120.71 212.408 1111.99 Q212.408 1103.24 215.463 1098.65 Q218.542 1094.05 224.352 1094.05 Z" fill="#000000" fill-rule="nonzero" fill-opacity="1" /><path clip-path="url(#clip750)" d="M254.514 1097.75 Q250.903 1097.75 249.074 1101.32 Q247.269 1104.86 247.269 1111.99 Q247.269 1119.09 249.074 1122.66 Q250.903 1126.2 254.514 1126.2 Q258.148 1126.2 259.954 1122.66 Q261.783 1119.09 261.783 1111.99 Q261.783 1104.86 259.954 1101.32 Q258.148 1097.75 254.514 1097.75 M254.514 1094.05 Q260.324 1094.05 263.38 1098.65 Q266.458 1103.24 266.458 1111.99 Q266.458 1120.71 263.38 1125.32 Q260.324 1129.9 254.514 1129.9 Q248.704 1129.9 245.625 1125.32 Q242.57 1120.71 242.57 1111.99 Q242.57 1103.24 245.625 1098.65 Q248.704 1094.05 254.514 1094.05 Z" fill="#000000" fill-rule="nonzero" fill-opacity="1" /><path clip-path="url(#clip750)" d="M284.676 1097.75 Q281.065 1097.75 279.236 1101.32 Q277.431 1104.86 277.431 1111.99 Q277.431 1119.09 279.236 1122.66 Q281.065 1126.2 284.676 1126.2 Q288.31 1126.2 290.116 1122.66 Q291.944 1119.09 291.944 1111.99 Q291.944 1104.86 290.116 1101.32 Q288.31 1097.75 284.676 1097.75 M284.676 1094.05 Q290.486 1094.05 293.542 1098.65 Q296.62 1103.24 296.62 1111.99 Q296.62 1120.71 293.542 1125.32 Q290.486 1129.9 284.676 1129.9 Q278.866 1129.9 275.787 1125.32 Q272.732 1120.71 272.732 1111.99 Q272.732 1103.24 275.787 1098.65 Q278.866 1094.05 284.676 1094.05 Z" fill="#000000" fill-rule="nonzero" fill-opacity="1" /><path clip-path="url(#clip750)" d="M114.26 923.024 L143.936 923.024 L143.936 926.959 L114.26 926.959 L114.26 923.024 Z" fill="#000000" fill-rule="nonzero" fill-opacity="1" /><path clip-path="url(#clip750)" d="M154.839 935.917 L162.477 935.917 L162.477 909.552 L154.167 911.218 L154.167 906.959 L162.431 905.292 L167.107 905.292 L167.107 935.917 L174.746 935.917 L174.746 939.852 L154.839 939.852 L154.839 935.917 Z" fill="#000000" fill-rule="nonzero" fill-opacity="1" /><path clip-path="url(#clip750)" d="M194.19 908.371 Q190.579 908.371 188.75 911.936 Q186.945 915.477 186.945 922.607 Q186.945 929.714 188.75 933.278 Q190.579 936.82 194.19 936.82 Q197.825 936.82 199.63 933.278 Q201.459 929.714 201.459 922.607 Q201.459 915.477 199.63 911.936 Q197.825 908.371 194.19 908.371 M194.19 904.667 Q200 904.667 203.056 909.274 Q206.135 913.857 206.135 922.607 Q206.135 931.334 203.056 935.94 Q200 940.524 194.19 940.524 Q188.38 940.524 185.301 935.94 Q182.246 931.334 182.246 922.607 Q182.246 913.857 185.301 909.274 Q188.38 904.667 194.19 904.667 Z" fill="#000000" fill-rule="nonzero" fill-opacity="1" /><path clip-path="url(#clip750)" d="M224.352 908.371 Q220.741 908.371 218.912 911.936 Q217.107 915.477 217.107 922.607 Q217.107 929.714 218.912 933.278 Q220.741 936.82 224.352 936.82 Q227.986 936.82 229.792 933.278 Q231.621 929.714 231.621 922.607 Q231.621 915.477 229.792 911.936 Q227.986 908.371 224.352 908.371 M224.352 904.667 Q230.162 904.667 233.218 909.274 Q236.297 913.857 236.297 922.607 Q236.297 931.334 233.218 935.94 Q230.162 940.524 224.352 940.524 Q218.542 940.524 215.463 935.94 Q212.408 931.334 212.408 922.607 Q212.408 913.857 215.463 909.274 Q218.542 904.667 224.352 904.667 Z" fill="#000000" fill-rule="nonzero" fill-opacity="1" /><path clip-path="url(#clip750)" d="M254.514 908.371 Q250.903 908.371 249.074 911.936 Q247.269 915.477 247.269 922.607 Q247.269 929.714 249.074 933.278 Q250.903 936.82 254.514 936.82 Q258.148 936.82 259.954 933.278 Q261.783 929.714 261.783 922.607 Q261.783 915.477 259.954 911.936 Q258.148 908.371 254.514 908.371 M254.514 904.667 Q260.324 904.667 263.38 909.274 Q266.458 913.857 266.458 922.607 Q266.458 931.334 263.38 935.94 Q260.324 940.524 254.514 940.524 Q248.704 940.524 245.625 935.94 Q242.57 931.334 242.57 922.607 Q242.57 913.857 245.625 909.274 Q248.704 904.667 254.514 904.667 Z" fill="#000000" fill-rule="nonzero" fill-opacity="1" /><path clip-path="url(#clip750)" d="M284.676 908.371 Q281.065 908.371 279.236 911.936 Q277.431 915.477 277.431 922.607 Q277.431 929.714 279.236 933.278 Q281.065 936.82 284.676 936.82 Q288.31 936.82 290.116 933.278 Q291.944 929.714 291.944 922.607 Q291.944 915.477 290.116 911.936 Q288.31 908.371 284.676 908.371 M284.676 904.667 Q290.486 904.667 293.542 909.274 Q296.62 913.857 296.62 922.607 Q296.62 931.334 293.542 935.94 Q290.486 940.524 284.676 940.524 Q278.866 940.524 275.787 935.94 Q272.732 931.334 272.732 922.607 Q272.732 913.857 275.787 909.274 Q278.866 904.667 284.676 904.667 Z" fill="#000000" fill-rule="nonzero" fill-opacity="1" /><path clip-path="url(#clip750)" d="M144.422 733.644 L174.098 733.644 L174.098 737.579 L144.422 737.579 L144.422 733.644 Z" fill="#000000" fill-rule="nonzero" fill-opacity="1" /><path clip-path="url(#clip750)" d="M184.329 749.755 L184.329 745.496 Q186.088 746.329 187.894 746.769 Q189.7 747.209 191.436 747.209 Q196.065 747.209 198.496 744.107 Q200.95 740.982 201.297 734.64 Q199.954 736.63 197.894 737.695 Q195.834 738.76 193.334 738.76 Q188.149 738.76 185.116 735.635 Q182.107 732.487 182.107 727.047 Q182.107 721.723 185.255 718.505 Q188.403 715.288 193.635 715.288 Q199.63 715.288 202.778 719.894 Q205.949 724.478 205.949 733.228 Q205.949 741.399 202.061 746.283 Q198.195 751.144 191.644 751.144 Q189.885 751.144 188.079 750.797 Q186.274 750.45 184.329 749.755 M193.635 735.103 Q196.783 735.103 198.612 732.95 Q200.463 730.797 200.463 727.047 Q200.463 723.32 198.612 721.167 Q196.783 718.992 193.635 718.992 Q190.487 718.992 188.635 721.167 Q186.806 723.32 186.806 727.047 Q186.806 730.797 188.635 732.95 Q190.487 735.103 193.635 735.103 Z" fill="#000000" fill-rule="nonzero" fill-opacity="1" /><path clip-path="url(#clip750)" d="M224.352 718.992 Q220.741 718.992 218.912 722.556 Q217.107 726.098 217.107 733.228 Q217.107 740.334 218.912 743.899 Q220.741 747.44 224.352 747.44 Q227.986 747.44 229.792 743.899 Q231.621 740.334 231.621 733.228 Q231.621 726.098 229.792 722.556 Q227.986 718.992 224.352 718.992 M224.352 715.288 Q230.162 715.288 233.218 719.894 Q236.297 724.478 236.297 733.228 Q236.297 741.954 233.218 746.561 Q230.162 751.144 224.352 751.144 Q218.542 751.144 215.463 746.561 Q212.408 741.954 212.408 733.228 Q212.408 724.478 215.463 719.894 Q218.542 715.288 224.352 715.288 Z" fill="#000000" fill-rule="nonzero" fill-opacity="1" /><path clip-path="url(#clip750)" d="M254.514 718.992 Q250.903 718.992 249.074 722.556 Q247.269 726.098 247.269 733.228 Q247.269 740.334 249.074 743.899 Q250.903 747.44 254.514 747.44 Q258.148 747.44 259.954 743.899 Q261.783 740.334 261.783 733.228 Q261.783 726.098 259.954 722.556 Q258.148 718.992 254.514 718.992 M254.514 715.288 Q260.324 715.288 263.38 719.894 Q266.458 724.478 266.458 733.228 Q266.458 741.954 263.38 746.561 Q260.324 751.144 254.514 751.144 Q248.704 751.144 245.625 746.561 Q242.57 741.954 242.57 733.228 Q242.57 724.478 245.625 719.894 Q248.704 715.288 254.514 715.288 Z" fill="#000000" fill-rule="nonzero" fill-opacity="1" /><path clip-path="url(#clip750)" d="M284.676 718.992 Q281.065 718.992 279.236 722.556 Q277.431 726.098 277.431 733.228 Q277.431 740.334 279.236 743.899 Q281.065 747.44 284.676 747.44 Q288.31 747.44 290.116 743.899 Q291.944 740.334 291.944 733.228 Q291.944 726.098 290.116 722.556 Q288.31 718.992 284.676 718.992 M284.676 715.288 Q290.486 715.288 293.542 719.894 Q296.62 724.478 296.62 733.228 Q296.62 741.954 293.542 746.561 Q290.486 751.144 284.676 751.144 Q278.866 751.144 275.787 746.561 Q272.732 741.954 272.732 733.228 Q272.732 724.478 275.787 719.894 Q278.866 715.288 284.676 715.288 Z" fill="#000000" fill-rule="nonzero" fill-opacity="1" /><path clip-path="url(#clip750)" d="M144.422 544.265 L174.098 544.265 L174.098 548.2 L144.422 548.2 L144.422 544.265 Z" fill="#000000" fill-rule="nonzero" fill-opacity="1" /><path clip-path="url(#clip750)" d="M194.19 544.681 Q190.857 544.681 188.936 546.464 Q187.038 548.246 187.038 551.371 Q187.038 554.496 188.936 556.279 Q190.857 558.061 194.19 558.061 Q197.524 558.061 199.445 556.279 Q201.366 554.473 201.366 551.371 Q201.366 548.246 199.445 546.464 Q197.547 544.681 194.19 544.681 M189.514 542.691 Q186.505 541.95 184.815 539.89 Q183.149 537.83 183.149 534.867 Q183.149 530.723 186.088 528.316 Q189.051 525.908 194.19 525.908 Q199.352 525.908 202.292 528.316 Q205.232 530.723 205.232 534.867 Q205.232 537.83 203.542 539.89 Q201.875 541.95 198.889 542.691 Q202.269 543.478 204.144 545.769 Q206.042 548.061 206.042 551.371 Q206.042 556.394 202.963 559.08 Q199.908 561.765 194.19 561.765 Q188.473 561.765 185.394 559.08 Q182.338 556.394 182.338 551.371 Q182.338 548.061 184.237 545.769 Q186.135 543.478 189.514 542.691 M187.801 535.306 Q187.801 537.992 189.468 539.496 Q191.158 541.001 194.19 541.001 Q197.2 541.001 198.889 539.496 Q200.602 537.992 200.602 535.306 Q200.602 532.621 198.889 531.117 Q197.2 529.612 194.19 529.612 Q191.158 529.612 189.468 531.117 Q187.801 532.621 187.801 535.306 Z" fill="#000000" fill-rule="nonzero" fill-opacity="1" /><path clip-path="url(#clip750)" d="M224.352 529.612 Q220.741 529.612 218.912 533.177 Q217.107 536.719 217.107 543.848 Q217.107 550.955 218.912 554.519 Q220.741 558.061 224.352 558.061 Q227.986 558.061 229.792 554.519 Q231.621 550.955 231.621 543.848 Q231.621 536.719 229.792 533.177 Q227.986 529.612 224.352 529.612 M224.352 525.908 Q230.162 525.908 233.218 530.515 Q236.297 535.098 236.297 543.848 Q236.297 552.575 233.218 557.181 Q230.162 561.765 224.352 561.765 Q218.542 561.765 215.463 557.181 Q212.408 552.575 212.408 543.848 Q212.408 535.098 215.463 530.515 Q218.542 525.908 224.352 525.908 Z" fill="#000000" fill-rule="nonzero" fill-opacity="1" /><path clip-path="url(#clip750)" d="M254.514 529.612 Q250.903 529.612 249.074 533.177 Q247.269 536.719 247.269 543.848 Q247.269 550.955 249.074 554.519 Q250.903 558.061 254.514 558.061 Q258.148 558.061 259.954 554.519 Q261.783 550.955 261.783 543.848 Q261.783 536.719 259.954 533.177 Q258.148 529.612 254.514 529.612 M254.514 525.908 Q260.324 525.908 263.38 530.515 Q266.458 535.098 266.458 543.848 Q266.458 552.575 263.38 557.181 Q260.324 561.765 254.514 561.765 Q248.704 561.765 245.625 557.181 Q242.57 552.575 242.57 543.848 Q242.57 535.098 245.625 530.515 Q248.704 525.908 254.514 525.908 Z" fill="#000000" fill-rule="nonzero" fill-opacity="1" /><path clip-path="url(#clip750)" d="M284.676 529.612 Q281.065 529.612 279.236 533.177 Q277.431 536.719 277.431 543.848 Q277.431 550.955 279.236 554.519 Q281.065 558.061 284.676 558.061 Q288.31 558.061 290.116 554.519 Q291.944 550.955 291.944 543.848 Q291.944 536.719 290.116 533.177 Q288.31 529.612 284.676 529.612 M284.676 525.908 Q290.486 525.908 293.542 530.515 Q296.62 535.098 296.62 543.848 Q296.62 552.575 293.542 557.181 Q290.486 561.765 284.676 561.765 Q278.866 561.765 275.787 557.181 Q272.732 552.575 272.732 543.848 Q272.732 535.098 275.787 530.515 Q278.866 525.908 284.676 525.908 Z" fill="#000000" fill-rule="nonzero" fill-opacity="1" /><path clip-path="url(#clip750)" d="M144.422 354.885 L174.098 354.885 L174.098 358.82 L144.422 358.82 L144.422 354.885 Z" fill="#000000" fill-rule="nonzero" fill-opacity="1" /><path clip-path="url(#clip750)" d="M183.01 337.154 L205.232 337.154 L205.232 339.145 L192.686 371.714 L187.801 371.714 L199.607 341.089 L183.01 341.089 L183.01 337.154 Z" fill="#000000" fill-rule="nonzero" fill-opacity="1" /><path clip-path="url(#clip750)" d="M224.352 340.233 Q220.741 340.233 218.912 343.797 Q217.107 347.339 217.107 354.469 Q217.107 361.575 218.912 365.14 Q220.741 368.682 224.352 368.682 Q227.986 368.682 229.792 365.14 Q231.621 361.575 231.621 354.469 Q231.621 347.339 229.792 343.797 Q227.986 340.233 224.352 340.233 M224.352 336.529 Q230.162 336.529 233.218 341.135 Q236.297 345.719 236.297 354.469 Q236.297 363.195 233.218 367.802 Q230.162 372.385 224.352 372.385 Q218.542 372.385 215.463 367.802 Q212.408 363.195 212.408 354.469 Q212.408 345.719 215.463 341.135 Q218.542 336.529 224.352 336.529 Z" fill="#000000" fill-rule="nonzero" fill-opacity="1" /><path clip-path="url(#clip750)" d="M254.514 340.233 Q250.903 340.233 249.074 343.797 Q247.269 347.339 247.269 354.469 Q247.269 361.575 249.074 365.14 Q250.903 368.682 254.514 368.682 Q258.148 368.682 259.954 365.14 Q261.783 361.575 261.783 354.469 Q261.783 347.339 259.954 343.797 Q258.148 340.233 254.514 340.233 M254.514 336.529 Q260.324 336.529 263.38 341.135 Q266.458 345.719 266.458 354.469 Q266.458 363.195 263.38 367.802 Q260.324 372.385 254.514 372.385 Q248.704 372.385 245.625 367.802 Q242.57 363.195 242.57 354.469 Q242.57 345.719 245.625 341.135 Q248.704 336.529 254.514 336.529 Z" fill="#000000" fill-rule="nonzero" fill-opacity="1" /><path clip-path="url(#clip750)" d="M284.676 340.233 Q281.065 340.233 279.236 343.797 Q277.431 347.339 277.431 354.469 Q277.431 361.575 279.236 365.14 Q281.065 368.682 284.676 368.682 Q288.31 368.682 290.116 365.14 Q291.944 361.575 291.944 354.469 Q291.944 347.339 290.116 343.797 Q288.31 340.233 284.676 340.233 M284.676 336.529 Q290.486 336.529 293.542 341.135 Q296.62 345.719 296.62 354.469 Q296.62 363.195 293.542 367.802 Q290.486 372.385 284.676 372.385 Q278.866 372.385 275.787 367.802 Q272.732 363.195 272.732 354.469 Q272.732 345.719 275.787 341.135 Q278.866 336.529 284.676 336.529 Z" fill="#000000" fill-rule="nonzero" fill-opacity="1" /><path clip-path="url(#clip750)" d="M144.422 165.506 L174.098 165.506 L174.098 169.441 L144.422 169.441 L144.422 165.506 Z" fill="#000000" fill-rule="nonzero" fill-opacity="1" /><path clip-path="url(#clip750)" d="M194.769 163.191 Q191.621 163.191 189.769 165.344 Q187.94 167.497 187.94 171.247 Q187.94 174.973 189.769 177.149 Q191.621 179.302 194.769 179.302 Q197.917 179.302 199.746 177.149 Q201.598 174.973 201.598 171.247 Q201.598 167.497 199.746 165.344 Q197.917 163.191 194.769 163.191 M204.051 148.538 L204.051 152.798 Q202.292 151.964 200.487 151.524 Q198.704 151.085 196.945 151.085 Q192.315 151.085 189.862 154.21 Q187.431 157.335 187.084 163.654 Q188.45 161.64 190.51 160.575 Q192.57 159.487 195.047 159.487 Q200.255 159.487 203.264 162.659 Q206.297 165.807 206.297 171.247 Q206.297 176.571 203.149 179.788 Q200 183.006 194.769 183.006 Q188.774 183.006 185.602 178.422 Q182.431 173.816 182.431 165.089 Q182.431 156.895 186.32 152.034 Q190.209 147.149 196.76 147.149 Q198.519 147.149 200.301 147.497 Q202.107 147.844 204.051 148.538 Z" fill="#000000" fill-rule="nonzero" fill-opacity="1" /><path clip-path="url(#clip750)" d="M224.352 150.853 Q220.741 150.853 218.912 154.418 Q217.107 157.96 217.107 165.089 Q217.107 172.196 218.912 175.76 Q220.741 179.302 224.352 179.302 Q227.986 179.302 229.792 175.76 Q231.621 172.196 231.621 165.089 Q231.621 157.96 229.792 154.418 Q227.986 150.853 224.352 150.853 M224.352 147.149 Q230.162 147.149 233.218 151.756 Q236.297 156.339 236.297 165.089 Q236.297 173.816 233.218 178.422 Q230.162 183.006 224.352 183.006 Q218.542 183.006 215.463 178.422 Q212.408 173.816 212.408 165.089 Q212.408 156.339 215.463 151.756 Q218.542 147.149 224.352 147.149 Z" fill="#000000" fill-rule="nonzero" fill-opacity="1" /><path clip-path="url(#clip750)" d="M254.514 150.853 Q250.903 150.853 249.074 154.418 Q247.269 157.96 247.269 165.089 Q247.269 172.196 249.074 175.76 Q250.903 179.302 254.514 179.302 Q258.148 179.302 259.954 175.76 Q261.783 172.196 261.783 165.089 Q261.783 157.96 259.954 154.418 Q258.148 150.853 254.514 150.853 M254.514 147.149 Q260.324 147.149 263.38 151.756 Q266.458 156.339 266.458 165.089 Q266.458 173.816 263.38 178.422 Q260.324 183.006 254.514 183.006 Q248.704 183.006 245.625 178.422 Q242.57 173.816 242.57 165.089 Q242.57 156.339 245.625 151.756 Q248.704 147.149 254.514 147.149 Z" fill="#000000" fill-rule="nonzero" fill-opacity="1" /><path clip-path="url(#clip750)" d="M284.676 150.853 Q281.065 150.853 279.236 154.418 Q277.431 157.96 277.431 165.089 Q277.431 172.196 279.236 175.76 Q281.065 179.302 284.676 179.302 Q288.31 179.302 290.116 175.76 Q291.944 172.196 291.944 165.089 Q291.944 157.96 290.116 154.418 Q288.31 150.853 284.676 150.853 M284.676 147.149 Q290.486 147.149 293.542 151.756 Q296.62 156.339 296.62 165.089 Q296.62 173.816 293.542 178.422 Q290.486 183.006 284.676 183.006 Q278.866 183.006 275.787 178.422 Q272.732 173.816 272.732 165.089 Q272.732 156.339 275.787 151.756 Q278.866 147.149 284.676 147.149 Z" fill="#000000" fill-rule="nonzero" fill-opacity="1" /><path clip-path="url(#clip750)" d="M16.4842 816.375 L16.4842 786.329 L21.895 786.329 L21.895 809.945 L35.9632 809.945 L35.9632 787.315 L41.3741 787.315 L41.3741 809.945 L58.5933 809.945 L58.5933 785.756 L64.0042 785.756 L64.0042 816.375 L16.4842 816.375 Z" fill="#000000" fill-rule="nonzero" fill-opacity="1" /><path clip-path="url(#clip750)" d="M16.4842 775.189 L16.4842 768.759 L58.5933 768.759 L58.5933 745.62 L64.0042 745.62 L64.0042 775.189 L16.4842 775.189 Z" fill="#000000" fill-rule="nonzero" fill-opacity="1" /><path clip-path="url(#clip750)" d="M41.3104 732.443 L58.7206 732.443 L58.7206 722.13 Q58.7206 716.942 56.5881 714.46 Q54.4238 711.945 49.9996 711.945 Q45.5436 711.945 43.4429 714.46 Q41.3104 716.942 41.3104 722.13 L41.3104 732.443 M21.7677 732.443 L36.0905 732.443 L36.0905 722.926 Q36.0905 718.216 34.34 715.924 Q32.5576 713.6 28.9291 713.6 Q25.3325 713.6 23.5501 715.924 Q21.7677 718.216 21.7677 722.926 L21.7677 732.443 M16.4842 738.872 L16.4842 722.449 Q16.4842 715.096 19.5397 711.118 Q22.5952 707.139 28.2289 707.139 Q32.5894 707.139 35.1675 709.176 Q37.7456 711.213 38.3822 715.16 Q39.4007 710.418 42.6472 707.808 Q45.8619 705.166 50.6998 705.166 Q57.0655 705.166 60.5348 709.495 Q64.0042 713.823 64.0042 721.812 L64.0042 738.872 L16.4842 738.872 Z" fill="#000000" fill-rule="nonzero" fill-opacity="1" /><path clip-path="url(#clip750)" d="M20.8447 676.011 Q20.8447 683.013 26.0645 687.151 Q31.2844 691.257 40.2919 691.257 Q49.2675 691.257 54.4874 687.151 Q59.7073 683.013 59.7073 676.011 Q59.7073 669.009 54.4874 664.935 Q49.2675 660.829 40.2919 660.829 Q31.2844 660.829 26.0645 664.935 Q20.8447 669.009 20.8447 676.011 M15.6248 676.011 Q15.6248 666.017 22.3406 660.033 Q29.0246 654.049 40.2919 654.049 Q51.5274 654.049 58.2432 660.033 Q64.9272 666.017 64.9272 676.011 Q64.9272 686.037 58.2432 692.052 Q51.5592 698.036 40.2919 698.036 Q29.0246 698.036 22.3406 692.052 Q15.6248 686.037 15.6248 676.011 Z" fill="#000000" fill-rule="nonzero" fill-opacity="1" /><polyline clip-path="url(#clip752)" style="stroke:#009af9; stroke-linecap:round; stroke-linejoin:round; stroke-width:4; stroke-opacity:1; fill:none" points="429.709,1384.24 498.283,711.028 561.044,444.297 624.011,358.173 684.233,324.343 743.122,315.071 802.878,287.948 864.04,270.48 925.713,257.165 984.058,254.967 1043.23,245.155 1101.05,228.968 1158.88,223.594 1216.45,213.283 1274.77,210.586 1332.58,201.137 1393.9,192.706 1451.71,186.553 1513.7,179.104 1574.33,172.059 1634.61,159.724 1696.34,152.141 1755.92,148.525 1817.35,136.012 1881.46,129.37 1939.69,123.269 1998.38,117.909 2058.59,108.951 2117.29,99.124 2176.29,95.496 2236.22,87.7986 2295.58,86.1857 "/>
<polyline clip-path="url(#clip752)" style="stroke:#e26f46; stroke-linecap:round; stroke-linejoin:round; stroke-width:4; stroke-opacity:1; fill:none" points="389.794,1383.25 419.496,983.336 430.192,572.144 441.081,423.182 455.632,357.298 466.915,324.95 478.067,306.983 488.797,302.314 499.642,284.729 510.538,271.192 521.356,273.309 532.329,264.012 542.905,256.892 553.662,251.459 564.529,243.035 575.262,236.939 585.914,224.792 597.97,222.496 608.814,213.438 619.721,210.536 630.367,210.656 641.062,199.63 652.052,195.645 662.779,185.659 673.489,183.998 684.408,175.141 694.936,162.069 705.845,164.427 716.365,153.848 727.058,149.87 738.014,147.33 748.577,136.943 "/>
<path clip-path="url(#clip750)" d="M1784.1 1377.32 L2285.42 1377.32 L2285.42 1221.8 L1784.1 1221.8  Z" fill="#ffffff" fill-rule="evenodd" fill-opacity="1"/>
<polyline clip-path="url(#clip750)" style="stroke:#000000; stroke-linecap:round; stroke-linejoin:round; stroke-width:4; stroke-opacity:1; fill:none" points="1784.1,1377.32 2285.42,1377.32 2285.42,1221.8 1784.1,1221.8 1784.1,1377.32 "/>
<polyline clip-path="url(#clip750)" style="stroke:#009af9; stroke-linecap:round; stroke-linejoin:round; stroke-width:4; stroke-opacity:1; fill:none" points="1806.55,1273.64 1941.22,1273.64 "/>
<path clip-path="url(#clip750)" d="M1963.67 1256.36 L1983.53 1256.36 L1983.53 1260.29 L1968.34 1260.29 L1968.34 1270.48 L1982.05 1270.48 L1982.05 1274.41 L1968.34 1274.41 L1968.34 1290.92 L1963.67 1290.92 L1963.67 1256.36 Z" fill="#000000" fill-rule="nonzero" fill-opacity="1" /><path clip-path="url(#clip750)" d="M1987.72 1280.68 L1987.72 1264.99 L1991.98 1264.99 L1991.98 1280.52 Q1991.98 1284.2 1993.41 1286.05 Q1994.85 1287.88 1997.72 1287.88 Q2001.17 1287.88 2003.16 1285.68 Q2005.17 1283.48 2005.17 1279.69 L2005.17 1264.99 L2009.43 1264.99 L2009.43 1290.92 L2005.17 1290.92 L2005.17 1286.93 Q2003.62 1289.29 2001.56 1290.45 Q1999.52 1291.59 1996.82 1291.59 Q1992.35 1291.59 1990.03 1288.81 Q1987.72 1286.03 1987.72 1280.68 M1998.44 1264.36 L1998.44 1264.36 Z" fill="#000000" fill-rule="nonzero" fill-opacity="1" /><path clip-path="url(#clip750)" d="M2018.2 1254.9 L2022.46 1254.9 L2022.46 1290.92 L2018.2 1290.92 L2018.2 1254.9 Z" fill="#000000" fill-rule="nonzero" fill-opacity="1" /><path clip-path="url(#clip750)" d="M2031.38 1254.9 L2035.64 1254.9 L2035.64 1290.92 L2031.38 1290.92 L2031.38 1254.9 Z" fill="#000000" fill-rule="nonzero" fill-opacity="1" /><path clip-path="url(#clip750)" d="M2064.48 1274.41 L2064.48 1287.07 L2071.98 1287.07 Q2075.75 1287.07 2077.56 1285.52 Q2079.39 1283.95 2079.39 1280.73 Q2079.39 1277.49 2077.56 1275.96 Q2075.75 1274.41 2071.98 1274.41 L2064.48 1274.41 M2064.48 1260.2 L2064.48 1270.61 L2071.4 1270.61 Q2074.82 1270.61 2076.49 1269.34 Q2078.18 1268.05 2078.18 1265.41 Q2078.18 1262.79 2076.49 1261.49 Q2074.82 1260.2 2071.4 1260.2 L2064.48 1260.2 M2059.8 1256.36 L2071.75 1256.36 Q2077.09 1256.36 2079.99 1258.58 Q2082.88 1260.8 2082.88 1264.9 Q2082.88 1268.07 2081.4 1269.94 Q2079.92 1271.82 2077.05 1272.28 Q2080.5 1273.02 2082.39 1275.38 Q2084.32 1277.72 2084.32 1281.24 Q2084.32 1285.87 2081.17 1288.39 Q2078.02 1290.92 2072.21 1290.92 L2059.8 1290.92 L2059.8 1256.36 Z" fill="#000000" fill-rule="nonzero" fill-opacity="1" /><path clip-path="url(#clip750)" d="M2103.92 1277.88 Q2098.76 1277.88 2096.77 1279.06 Q2094.78 1280.24 2094.78 1283.09 Q2094.78 1285.36 2096.26 1286.7 Q2097.76 1288.02 2100.33 1288.02 Q2103.88 1288.02 2106.01 1285.52 Q2108.16 1283 2108.16 1278.83 L2108.16 1277.88 L2103.92 1277.88 M2112.42 1276.12 L2112.42 1290.92 L2108.16 1290.92 L2108.16 1286.98 Q2106.7 1289.34 2104.52 1290.48 Q2102.35 1291.59 2099.2 1291.59 Q2095.22 1291.59 2092.86 1289.36 Q2090.52 1287.12 2090.52 1283.37 Q2090.52 1278.99 2093.44 1276.77 Q2096.38 1274.55 2102.19 1274.55 L2108.16 1274.55 L2108.16 1274.13 Q2108.16 1271.19 2106.21 1269.6 Q2104.29 1267.98 2100.8 1267.98 Q2098.57 1267.98 2096.47 1268.51 Q2094.36 1269.04 2092.42 1270.11 L2092.42 1266.17 Q2094.76 1265.27 2096.95 1264.83 Q2099.15 1264.36 2101.24 1264.36 Q2106.86 1264.36 2109.64 1267.28 Q2112.42 1270.2 2112.42 1276.12 Z" fill="#000000" fill-rule="nonzero" fill-opacity="1" /><path clip-path="url(#clip750)" d="M2125.4 1257.63 L2125.4 1264.99 L2134.18 1264.99 L2134.18 1268.3 L2125.4 1268.3 L2125.4 1282.37 Q2125.4 1285.54 2126.26 1286.45 Q2127.14 1287.35 2129.8 1287.35 L2134.18 1287.35 L2134.18 1290.92 L2129.8 1290.92 Q2124.87 1290.92 2123 1289.09 Q2121.12 1287.23 2121.12 1282.37 L2121.12 1268.3 L2118 1268.3 L2118 1264.99 L2121.12 1264.99 L2121.12 1257.63 L2125.4 1257.63 Z" fill="#000000" fill-rule="nonzero" fill-opacity="1" /><path clip-path="url(#clip750)" d="M2158.44 1265.98 L2158.44 1269.97 Q2156.63 1268.97 2154.8 1268.48 Q2153 1267.98 2151.14 1267.98 Q2147 1267.98 2144.71 1270.61 Q2142.42 1273.23 2142.42 1277.98 Q2142.42 1282.72 2144.71 1285.36 Q2147 1287.98 2151.14 1287.98 Q2153 1287.98 2154.8 1287.49 Q2156.63 1286.98 2158.44 1285.98 L2158.44 1289.92 Q2156.65 1290.75 2154.73 1291.17 Q2152.83 1291.59 2150.68 1291.59 Q2144.82 1291.59 2141.38 1287.91 Q2137.93 1284.23 2137.93 1277.98 Q2137.93 1271.63 2141.4 1268 Q2144.89 1264.36 2150.96 1264.36 Q2152.93 1264.36 2154.8 1264.78 Q2156.68 1265.17 2158.44 1265.98 Z" fill="#000000" fill-rule="nonzero" fill-opacity="1" /><path clip-path="url(#clip750)" d="M2187.39 1275.27 L2187.39 1290.92 L2183.13 1290.92 L2183.13 1275.41 Q2183.13 1271.73 2181.7 1269.9 Q2180.26 1268.07 2177.39 1268.07 Q2173.94 1268.07 2171.95 1270.27 Q2169.96 1272.47 2169.96 1276.26 L2169.96 1290.92 L2165.68 1290.92 L2165.68 1254.9 L2169.96 1254.9 L2169.96 1269.02 Q2171.49 1266.68 2173.55 1265.52 Q2175.63 1264.36 2178.34 1264.36 Q2182.81 1264.36 2185.1 1267.14 Q2187.39 1269.9 2187.39 1275.27 Z" fill="#000000" fill-rule="nonzero" fill-opacity="1" /><polyline clip-path="url(#clip750)" style="stroke:#e26f46; stroke-linecap:round; stroke-linejoin:round; stroke-width:4; stroke-opacity:1; fill:none" points="1806.55,1325.48 1941.22,1325.48 "/>
<path clip-path="url(#clip750)" d="M1985.91 1309.33 L1985.91 1313.89 Q1983.25 1312.62 1980.89 1311.99 Q1978.53 1311.37 1976.33 1311.37 Q1972.51 1311.37 1970.43 1312.85 Q1968.37 1314.33 1968.37 1317.06 Q1968.37 1319.35 1969.73 1320.53 Q1971.12 1321.69 1974.96 1322.41 L1977.79 1322.99 Q1983.02 1323.98 1985.5 1326.51 Q1988 1329.01 1988 1333.22 Q1988 1338.24 1984.62 1340.83 Q1981.26 1343.43 1974.76 1343.43 Q1972.3 1343.43 1969.52 1342.87 Q1966.77 1342.32 1963.81 1341.23 L1963.81 1336.41 Q1966.65 1338.01 1969.39 1338.82 Q1972.12 1339.63 1974.76 1339.63 Q1978.76 1339.63 1980.94 1338.06 Q1983.11 1336.48 1983.11 1333.57 Q1983.11 1331.02 1981.54 1329.58 Q1979.99 1328.15 1976.42 1327.43 L1973.58 1326.88 Q1968.34 1325.83 1966.01 1323.61 Q1963.67 1321.39 1963.67 1317.43 Q1963.67 1312.85 1966.89 1310.21 Q1970.13 1307.57 1975.8 1307.57 Q1978.23 1307.57 1980.75 1308.01 Q1983.27 1308.45 1985.91 1309.33 Z" fill="#000000" fill-rule="nonzero" fill-opacity="1" /><path clip-path="url(#clip750)" d="M1994.66 1332.52 L1994.66 1316.83 L1998.92 1316.83 L1998.92 1332.36 Q1998.92 1336.04 2000.36 1337.89 Q2001.79 1339.72 2004.66 1339.72 Q2008.11 1339.72 2010.1 1337.52 Q2012.12 1335.32 2012.12 1331.53 L2012.12 1316.83 L2016.38 1316.83 L2016.38 1342.76 L2012.12 1342.76 L2012.12 1338.77 Q2010.57 1341.13 2008.51 1342.29 Q2006.47 1343.43 2003.76 1343.43 Q1999.29 1343.43 1996.98 1340.65 Q1994.66 1337.87 1994.66 1332.52 M2005.38 1316.2 L2005.38 1316.2 Z" fill="#000000" fill-rule="nonzero" fill-opacity="1" /><path clip-path="url(#clip750)" d="M2043.76 1329.82 Q2043.76 1325.12 2041.82 1322.45 Q2039.89 1319.77 2036.51 1319.77 Q2033.14 1319.77 2031.19 1322.45 Q2029.27 1325.12 2029.27 1329.82 Q2029.27 1334.51 2031.19 1337.2 Q2033.14 1339.86 2036.51 1339.86 Q2039.89 1339.86 2041.82 1337.2 Q2043.76 1334.51 2043.76 1329.82 M2029.27 1320.76 Q2030.61 1318.45 2032.65 1317.34 Q2034.71 1316.2 2037.56 1316.2 Q2042.28 1316.2 2045.22 1319.95 Q2048.18 1323.7 2048.18 1329.82 Q2048.18 1335.93 2045.22 1339.68 Q2042.28 1343.43 2037.56 1343.43 Q2034.71 1343.43 2032.65 1342.32 Q2030.61 1341.18 2029.27 1338.87 L2029.27 1342.76 L2024.99 1342.76 L2024.99 1306.74 L2029.27 1306.74 L2029.27 1320.76 Z" fill="#000000" fill-rule="nonzero" fill-opacity="1" /><path clip-path="url(#clip750)" d="M2071.77 1317.59 L2071.77 1321.62 Q2069.96 1320.7 2068.02 1320.23 Q2066.08 1319.77 2063.99 1319.77 Q2060.82 1319.77 2059.22 1320.74 Q2057.65 1321.71 2057.65 1323.66 Q2057.65 1325.14 2058.78 1326 Q2059.92 1326.83 2063.34 1327.59 L2064.8 1327.92 Q2069.34 1328.89 2071.24 1330.67 Q2073.16 1332.43 2073.16 1335.6 Q2073.16 1339.21 2070.29 1341.32 Q2067.44 1343.43 2062.44 1343.43 Q2060.36 1343.43 2058.09 1343.01 Q2055.84 1342.62 2053.34 1341.81 L2053.34 1337.41 Q2055.7 1338.63 2058 1339.26 Q2060.29 1339.86 2062.53 1339.86 Q2065.54 1339.86 2067.16 1338.84 Q2068.78 1337.8 2068.78 1335.93 Q2068.78 1334.19 2067.6 1333.26 Q2066.45 1332.34 2062.49 1331.48 L2061.01 1331.14 Q2057.05 1330.3 2055.29 1328.59 Q2053.53 1326.85 2053.53 1323.84 Q2053.53 1320.19 2056.12 1318.2 Q2058.71 1316.2 2063.48 1316.2 Q2065.84 1316.2 2067.93 1316.55 Q2070.01 1316.9 2071.77 1317.59 Z" fill="#000000" fill-rule="nonzero" fill-opacity="1" /><path clip-path="url(#clip750)" d="M2091.72 1329.72 Q2086.56 1329.72 2084.57 1330.9 Q2082.58 1332.08 2082.58 1334.93 Q2082.58 1337.2 2084.06 1338.54 Q2085.57 1339.86 2088.14 1339.86 Q2091.68 1339.86 2093.81 1337.36 Q2095.96 1334.84 2095.96 1330.67 L2095.96 1329.72 L2091.72 1329.72 M2100.22 1327.96 L2100.22 1342.76 L2095.96 1342.76 L2095.96 1338.82 Q2094.5 1341.18 2092.32 1342.32 Q2090.15 1343.43 2087 1343.43 Q2083.02 1343.43 2080.66 1341.2 Q2078.32 1338.96 2078.32 1335.21 Q2078.32 1330.83 2081.24 1328.61 Q2084.18 1326.39 2089.99 1326.39 L2095.96 1326.39 L2095.96 1325.97 Q2095.96 1323.03 2094.01 1321.44 Q2092.09 1319.82 2088.6 1319.82 Q2086.38 1319.82 2084.27 1320.35 Q2082.16 1320.88 2080.22 1321.95 L2080.22 1318.01 Q2082.56 1317.11 2084.76 1316.67 Q2086.95 1316.2 2089.04 1316.2 Q2094.66 1316.2 2097.44 1319.12 Q2100.22 1322.04 2100.22 1327.96 Z" fill="#000000" fill-rule="nonzero" fill-opacity="1" /><path clip-path="url(#clip750)" d="M2129.18 1321.81 Q2130.77 1318.94 2133 1317.57 Q2135.22 1316.2 2138.23 1316.2 Q2142.28 1316.2 2144.48 1319.05 Q2146.68 1321.88 2146.68 1327.11 L2146.68 1342.76 L2142.39 1342.76 L2142.39 1327.25 Q2142.39 1323.52 2141.07 1321.71 Q2139.76 1319.91 2137.05 1319.91 Q2133.74 1319.91 2131.82 1322.11 Q2129.89 1324.31 2129.89 1328.1 L2129.89 1342.76 L2125.61 1342.76 L2125.61 1327.25 Q2125.61 1323.5 2124.29 1321.71 Q2122.97 1319.91 2120.22 1319.91 Q2116.95 1319.91 2115.03 1322.13 Q2113.11 1324.33 2113.11 1328.1 L2113.11 1342.76 L2108.83 1342.76 L2108.83 1316.83 L2113.11 1316.83 L2113.11 1320.86 Q2114.57 1318.47 2116.61 1317.34 Q2118.64 1316.2 2121.45 1316.2 Q2124.27 1316.2 2126.24 1317.64 Q2128.23 1319.07 2129.18 1321.81 Z" fill="#000000" fill-rule="nonzero" fill-opacity="1" /><path clip-path="url(#clip750)" d="M2159.29 1338.87 L2159.29 1352.62 L2155.01 1352.62 L2155.01 1316.83 L2159.29 1316.83 L2159.29 1320.76 Q2160.63 1318.45 2162.67 1317.34 Q2164.73 1316.2 2167.58 1316.2 Q2172.3 1316.2 2175.24 1319.95 Q2178.2 1323.7 2178.2 1329.82 Q2178.2 1335.93 2175.24 1339.68 Q2172.3 1343.43 2167.58 1343.43 Q2164.73 1343.43 2162.67 1342.32 Q2160.63 1341.18 2159.29 1338.87 M2173.78 1329.82 Q2173.78 1325.12 2171.84 1322.45 Q2169.92 1319.77 2166.54 1319.77 Q2163.16 1319.77 2161.21 1322.45 Q2159.29 1325.12 2159.29 1329.82 Q2159.29 1334.51 2161.21 1337.2 Q2163.16 1339.86 2166.54 1339.86 Q2169.92 1339.86 2171.84 1337.2 Q2173.78 1334.51 2173.78 1329.82 Z" fill="#000000" fill-rule="nonzero" fill-opacity="1" /><path clip-path="url(#clip750)" d="M2185.26 1306.74 L2189.52 1306.74 L2189.52 1342.76 L2185.26 1342.76 L2185.26 1306.74 Z" fill="#000000" fill-rule="nonzero" fill-opacity="1" /><path clip-path="url(#clip750)" d="M2198.44 1316.83 L2202.69 1316.83 L2202.69 1342.76 L2198.44 1342.76 L2198.44 1316.83 M2198.44 1306.74 L2202.69 1306.74 L2202.69 1312.13 L2198.44 1312.13 L2198.44 1306.74 Z" fill="#000000" fill-rule="nonzero" fill-opacity="1" /><path clip-path="url(#clip750)" d="M2233.16 1327.11 L2233.16 1342.76 L2228.9 1342.76 L2228.9 1327.25 Q2228.9 1323.57 2227.46 1321.74 Q2226.03 1319.91 2223.16 1319.91 Q2219.71 1319.91 2217.72 1322.11 Q2215.73 1324.31 2215.73 1328.1 L2215.73 1342.76 L2211.44 1342.76 L2211.44 1316.83 L2215.73 1316.83 L2215.73 1320.86 Q2217.25 1318.52 2219.31 1317.36 Q2221.4 1316.2 2224.11 1316.2 Q2228.57 1316.2 2230.87 1318.98 Q2233.16 1321.74 2233.16 1327.11 Z" fill="#000000" fill-rule="nonzero" fill-opacity="1" /><path clip-path="url(#clip750)" d="M2258.71 1329.49 Q2258.71 1324.86 2256.79 1322.32 Q2254.89 1319.77 2251.44 1319.77 Q2248.02 1319.77 2246.1 1322.32 Q2244.2 1324.86 2244.2 1329.49 Q2244.2 1334.1 2246.1 1336.64 Q2248.02 1339.19 2251.44 1339.19 Q2254.89 1339.19 2256.79 1336.64 Q2258.71 1334.1 2258.71 1329.49 M2262.97 1339.54 Q2262.97 1346.16 2260.03 1349.38 Q2257.09 1352.62 2251.03 1352.62 Q2248.78 1352.62 2246.79 1352.27 Q2244.8 1351.95 2242.93 1351.25 L2242.93 1347.11 Q2244.8 1348.13 2246.63 1348.61 Q2248.46 1349.1 2250.36 1349.1 Q2254.55 1349.1 2256.63 1346.9 Q2258.71 1344.72 2258.71 1340.3 L2258.71 1338.2 Q2257.39 1340.49 2255.33 1341.62 Q2253.27 1342.76 2250.4 1342.76 Q2245.63 1342.76 2242.72 1339.12 Q2239.8 1335.49 2239.8 1329.49 Q2239.8 1323.47 2242.72 1319.84 Q2245.63 1316.2 2250.4 1316.2 Q2253.27 1316.2 2255.33 1317.34 Q2257.39 1318.47 2258.71 1320.76 L2258.71 1316.83 L2262.97 1316.83 L2262.97 1339.54 Z" fill="#000000" fill-rule="nonzero" fill-opacity="1" /></svg>
