<?xml version="1.0" encoding="utf-8"?>
<svg xmlns="http://www.w3.org/2000/svg" xmlns:xlink="http://www.w3.org/1999/xlink" width="600" height="400" viewBox="0 0 2400 1600">
<defs>
  <clipPath id="clip860">
    <rect x="0" y="0" width="2400" height="1600"/>
  </clipPath>
</defs>
<path clip-path="url(#clip860)" d="M0 1600 L2400 1600 L2400 0 L0 0  Z" fill="#ffffff" fill-rule="evenodd" fill-opacity="1"/>
<defs>
  <clipPath id="clip861">
    <rect x="480" y="0" width="1681" height="1600"/>
  </clipPath>
</defs>
<path clip-path="url(#clip860)" d="M332.62 1423.18 L2352.76 1423.18 L2352.76 47.2441 L332.62 47.2441  Z" fill="#ffffff" fill-rule="evenodd" fill-opacity="1"/>
<defs>
  <clipPath id="clip862">
    <rect x="332" y="47" width="2021" height="1377"/>
  </clipPath>
</defs>
<polyline clip-path="url(#clip862)" style="stroke:#000000; stroke-linecap:round; stroke-linejoin:round; stroke-width:2; stroke-opacity:0.1; fill:none" points="389.179,1423.18 389.179,47.2441 "/>
<polyline clip-path="url(#clip862)" style="stroke:#000000; stroke-linecap:round; stroke-linejoin:round; stroke-width:2; stroke-opacity:0.1; fill:none" points="1003.95,1423.18 1003.95,47.2441 "/>
<polyline clip-path="url(#clip862)" style="stroke:#000000; stroke-linecap:round; stroke-linejoin:round; stroke-width:2; stroke-opacity:0.1; fill:none" points="1618.72,1423.18 1618.72,47.2441 "/>
<polyline clip-path="url(#clip862)" style="stroke:#000000; stroke-linecap:round; stroke-linejoin:round; stroke-width:2; stroke-opacity:0.1; fill:none" points="2233.49,1423.18 2233.49,47.2441 "/>
<polyline clip-path="url(#clip862)" style="stroke:#000000; stroke-linecap:round; stroke-linejoin:round; stroke-width:2; stroke-opacity:0.1; fill:none" points="332.62,1262.37 2352.76,1262.37 "/>
<polyline clip-path="url(#clip862)" style="stroke:#000000; stroke-linecap:round; stroke-linejoin:round; stroke-width:2; stroke-opacity:0.1; fill:none" points="332.62,1077.81 2352.76,1077.81 "/>
<polyline clip-path="url(#clip862)" style="stroke:#000000; stroke-linecap:round; stroke-linejoin:round; stroke-width:2; stroke-opacity:0.1; fill:none" points="332.62,893.255 2352.76,893.255 "/>
<polyline clip-path="url(#clip862)" style="stroke:#000000; stroke-linecap:round; stroke-linejoin:round; stroke-width:2; stroke-opacity:0.1; fill:none" points="332.62,708.698 2352.76,708.698 "/>
<polyline clip-path="url(#clip862)" style="stroke:#000000; stroke-linecap:round; stroke-linejoin:round; stroke-width:2; stroke-opacity:0.1; fill:none" points="332.62,524.142 2352.76,524.142 "/>
<polyline clip-path="url(#clip862)" style="stroke:#000000; stroke-linecap:round; stroke-linejoin:round; stroke-width:2; stroke-opacity:0.1; fill:none" points="332.62,339.585 2352.76,339.585 "/>
<polyline clip-path="url(#clip862)" style="stroke:#000000; stroke-linecap:round; stroke-linejoin:round; stroke-width:2; stroke-opacity:0.1; fill:none" points="332.62,155.029 2352.76,155.029 "/>
<polyline clip-path="url(#clip860)" style="stroke:#000000; stroke-linecap:round; stroke-linejoin:round; stroke-width:4; stroke-opacity:1; fill:none" points="332.62,1423.18 2352.76,1423.18 "/>
<polyline clip-path="url(#clip860)" style="stroke:#000000; stroke-linecap:round; stroke-linejoin:round; stroke-width:4; stroke-opacity:1; fill:none" points="389.179,1423.18 389.179,1404.28 "/>
<polyline clip-path="url(#clip860)" style="stroke:#000000; stroke-linecap:round; stroke-linejoin:round; stroke-width:4; stroke-opacity:1; fill:none" points="1003.95,1423.18 1003.95,1404.28 "/>
<polyline clip-path="url(#clip860)" style="stroke:#000000; stroke-linecap:round; stroke-linejoin:round; stroke-width:4; stroke-opacity:1; fill:none" points="1618.72,1423.18 1618.72,1404.28 "/>
<polyline clip-path="url(#clip860)" style="stroke:#000000; stroke-linecap:round; stroke-linejoin:round; stroke-width:4; stroke-opacity:1; fill:none" points="2233.49,1423.18 2233.49,1404.28 "/>
<path clip-path="url(#clip860)" d="M389.179 1454.1 Q385.568 1454.1 383.739 1457.66 Q381.934 1461.2 381.934 1468.33 Q381.934 1475.44 383.739 1479.01 Q385.568 1482.55 389.179 1482.55 Q392.813 1482.55 394.619 1479.01 Q396.448 1475.44 396.448 1468.33 Q396.448 1461.2 394.619 1457.66 Q392.813 1454.1 389.179 1454.1 M389.179 1450.39 Q394.989 1450.39 398.045 1455 Q401.124 1459.58 401.124 1468.33 Q401.124 1477.06 398.045 1481.67 Q394.989 1486.25 389.179 1486.25 Q383.369 1486.25 380.29 1481.67 Q377.235 1477.06 377.235 1468.33 Q377.235 1459.58 380.29 1455 Q383.369 1450.39 389.179 1450.39 Z" fill="#000000" fill-rule="nonzero" fill-opacity="1" /><path clip-path="url(#clip860)" d="M948.475 1481.64 L956.114 1481.64 L956.114 1455.28 L947.804 1456.95 L947.804 1452.69 L956.068 1451.02 L960.744 1451.02 L960.744 1481.64 L968.383 1481.64 L968.383 1485.58 L948.475 1485.58 L948.475 1481.64 Z" fill="#000000" fill-rule="nonzero" fill-opacity="1" /><path clip-path="url(#clip860)" d="M987.827 1454.1 Q984.216 1454.1 982.387 1457.66 Q980.582 1461.2 980.582 1468.33 Q980.582 1475.44 982.387 1479.01 Q984.216 1482.55 987.827 1482.55 Q991.461 1482.55 993.267 1479.01 Q995.095 1475.44 995.095 1468.33 Q995.095 1461.2 993.267 1457.66 Q991.461 1454.1 987.827 1454.1 M987.827 1450.39 Q993.637 1450.39 996.693 1455 Q999.771 1459.58 999.771 1468.33 Q999.771 1477.06 996.693 1481.67 Q993.637 1486.25 987.827 1486.25 Q982.017 1486.25 978.938 1481.67 Q975.883 1477.06 975.883 1468.33 Q975.883 1459.58 978.938 1455 Q982.017 1450.39 987.827 1450.39 Z" fill="#000000" fill-rule="nonzero" fill-opacity="1" /><path clip-path="url(#clip860)" d="M1017.99 1454.1 Q1014.38 1454.1 1012.55 1457.66 Q1010.74 1461.2 1010.74 1468.33 Q1010.74 1475.44 1012.55 1479.01 Q1014.38 1482.55 1017.99 1482.55 Q1021.62 1482.55 1023.43 1479.01 Q1025.26 1475.44 1025.26 1468.33 Q1025.26 1461.2 1023.43 1457.66 Q1021.62 1454.1 1017.99 1454.1 M1017.99 1450.39 Q1023.8 1450.39 1026.85 1455 Q1029.93 1459.58 1029.93 1468.33 Q1029.93 1477.06 1026.85 1481.67 Q1023.8 1486.25 1017.99 1486.25 Q1012.18 1486.25 1009.1 1481.67 Q1006.04 1477.06 1006.04 1468.33 Q1006.04 1459.58 1009.1 1455 Q1012.18 1450.39 1017.99 1450.39 Z" fill="#000000" fill-rule="nonzero" fill-opacity="1" /><path clip-path="url(#clip860)" d="M1048.15 1454.1 Q1044.54 1454.1 1042.71 1457.66 Q1040.91 1461.2 1040.91 1468.33 Q1040.91 1475.44 1042.71 1479.01 Q1044.54 1482.55 1048.15 1482.55 Q1051.78 1482.55 1053.59 1479.01 Q1055.42 1475.44 1055.42 1468.33 Q1055.42 1461.2 1053.59 1457.66 Q1051.78 1454.1 1048.15 1454.1 M1048.15 1450.39 Q1053.96 1450.39 1057.02 1455 Q1060.1 1459.58 1060.1 1468.33 Q1060.1 1477.06 1057.02 1481.67 Q1053.96 1486.25 1048.15 1486.25 Q1042.34 1486.25 1039.26 1481.67 Q1036.21 1477.06 1036.21 1468.33 Q1036.21 1459.58 1039.26 1455 Q1042.34 1450.39 1048.15 1450.39 Z" fill="#000000" fill-rule="nonzero" fill-opacity="1" /><path clip-path="url(#clip860)" d="M1567.33 1481.64 L1583.65 1481.64 L1583.65 1485.58 L1561.71 1485.58 L1561.71 1481.64 Q1564.37 1478.89 1568.95 1474.26 Q1573.56 1469.61 1574.74 1468.27 Q1576.98 1465.74 1577.86 1464.01 Q1578.77 1462.25 1578.77 1460.56 Q1578.77 1457.8 1576.82 1456.07 Q1574.9 1454.33 1571.8 1454.33 Q1569.6 1454.33 1567.15 1455.09 Q1564.72 1455.86 1561.94 1457.41 L1561.94 1452.69 Q1564.76 1451.55 1567.22 1450.97 Q1569.67 1450.39 1571.71 1450.39 Q1577.08 1450.39 1580.27 1453.08 Q1583.47 1455.77 1583.47 1460.26 Q1583.47 1462.39 1582.66 1464.31 Q1581.87 1466.2 1579.76 1468.8 Q1579.18 1469.47 1576.08 1472.69 Q1572.98 1475.88 1567.33 1481.64 Z" fill="#000000" fill-rule="nonzero" fill-opacity="1" /><path clip-path="url(#clip860)" d="M1603.47 1454.1 Q1599.85 1454.1 1598.03 1457.66 Q1596.22 1461.2 1596.22 1468.33 Q1596.22 1475.44 1598.03 1479.01 Q1599.85 1482.55 1603.47 1482.55 Q1607.1 1482.55 1608.91 1479.01 Q1610.73 1475.44 1610.73 1468.33 Q1610.73 1461.2 1608.91 1457.66 Q1607.1 1454.1 1603.47 1454.1 M1603.47 1450.39 Q1609.28 1450.39 1612.33 1455 Q1615.41 1459.58 1615.41 1468.33 Q1615.41 1477.06 1612.33 1481.67 Q1609.28 1486.25 1603.47 1486.25 Q1597.66 1486.25 1594.58 1481.67 Q1591.52 1477.06 1591.52 1468.33 Q1591.52 1459.58 1594.58 1455 Q1597.66 1450.39 1603.47 1450.39 Z" fill="#000000" fill-rule="nonzero" fill-opacity="1" /><path clip-path="url(#clip860)" d="M1633.63 1454.1 Q1630.02 1454.1 1628.19 1457.66 Q1626.38 1461.2 1626.38 1468.33 Q1626.38 1475.44 1628.19 1479.01 Q1630.02 1482.55 1633.63 1482.55 Q1637.26 1482.55 1639.07 1479.01 Q1640.9 1475.44 1640.9 1468.33 Q1640.9 1461.2 1639.07 1457.66 Q1637.26 1454.1 1633.63 1454.1 M1633.63 1450.39 Q1639.44 1450.39 1642.49 1455 Q1645.57 1459.58 1645.57 1468.33 Q1645.57 1477.06 1642.49 1481.67 Q1639.44 1486.25 1633.63 1486.25 Q1627.82 1486.25 1624.74 1481.67 Q1621.68 1477.06 1621.68 1468.33 Q1621.68 1459.58 1624.74 1455 Q1627.82 1450.39 1633.63 1450.39 Z" fill="#000000" fill-rule="nonzero" fill-opacity="1" /><path clip-path="url(#clip860)" d="M1663.79 1454.1 Q1660.18 1454.1 1658.35 1457.66 Q1656.54 1461.2 1656.54 1468.33 Q1656.54 1475.44 1658.35 1479.01 Q1660.18 1482.55 1663.79 1482.55 Q1667.42 1482.55 1669.23 1479.01 Q1671.06 1475.44 1671.06 1468.33 Q1671.06 1461.2 1669.23 1457.66 Q1667.42 1454.1 1663.79 1454.1 M1663.79 1450.39 Q1669.6 1450.39 1672.65 1455 Q1675.73 1459.58 1675.73 1468.33 Q1675.73 1477.06 1672.65 1481.67 Q1669.6 1486.25 1663.79 1486.25 Q1657.98 1486.25 1654.9 1481.67 Q1651.84 1477.06 1651.84 1468.33 Q1651.84 1459.58 1654.9 1455 Q1657.98 1450.39 1663.79 1450.39 Z" fill="#000000" fill-rule="nonzero" fill-opacity="1" /><path clip-path="url(#clip860)" d="M2192.17 1466.95 Q2195.53 1467.66 2197.4 1469.93 Q2199.3 1472.2 2199.3 1475.53 Q2199.3 1480.65 2195.78 1483.45 Q2192.26 1486.25 2185.78 1486.25 Q2183.61 1486.25 2181.29 1485.81 Q2179 1485.39 2176.55 1484.54 L2176.55 1480.02 Q2178.49 1481.16 2180.81 1481.74 Q2183.12 1482.32 2185.64 1482.32 Q2190.04 1482.32 2192.33 1480.58 Q2194.65 1478.84 2194.65 1475.53 Q2194.65 1472.48 2192.5 1470.77 Q2190.37 1469.03 2186.55 1469.03 L2182.52 1469.03 L2182.52 1465.19 L2186.73 1465.19 Q2190.18 1465.19 2192.01 1463.82 Q2193.84 1462.43 2193.84 1459.84 Q2193.84 1457.18 2191.94 1455.77 Q2190.06 1454.33 2186.55 1454.33 Q2184.62 1454.33 2182.43 1454.75 Q2180.23 1455.16 2177.59 1456.04 L2177.59 1451.88 Q2180.25 1451.14 2182.56 1450.77 Q2184.9 1450.39 2186.96 1450.39 Q2192.29 1450.39 2195.39 1452.83 Q2198.49 1455.23 2198.49 1459.35 Q2198.49 1462.22 2196.85 1464.21 Q2195.2 1466.18 2192.17 1466.95 Z" fill="#000000" fill-rule="nonzero" fill-opacity="1" /><path clip-path="url(#clip860)" d="M2218.17 1454.1 Q2214.56 1454.1 2212.73 1457.66 Q2210.92 1461.2 2210.92 1468.33 Q2210.92 1475.44 2212.73 1479.01 Q2214.56 1482.55 2218.17 1482.55 Q2221.8 1482.55 2223.61 1479.01 Q2225.43 1475.44 2225.43 1468.33 Q2225.43 1461.2 2223.61 1457.66 Q2221.8 1454.1 2218.17 1454.1 M2218.17 1450.39 Q2223.98 1450.39 2227.03 1455 Q2230.11 1459.58 2230.11 1468.33 Q2230.11 1477.06 2227.03 1481.67 Q2223.98 1486.25 2218.17 1486.25 Q2212.36 1486.25 2209.28 1481.67 Q2206.22 1477.06 2206.22 1468.33 Q2206.22 1459.58 2209.28 1455 Q2212.36 1450.39 2218.17 1450.39 Z" fill="#000000" fill-rule="nonzero" fill-opacity="1" /><path clip-path="url(#clip860)" d="M2248.33 1454.1 Q2244.72 1454.1 2242.89 1457.66 Q2241.08 1461.2 2241.08 1468.33 Q2241.08 1475.44 2242.89 1479.01 Q2244.72 1482.55 2248.33 1482.55 Q2251.96 1482.55 2253.77 1479.01 Q2255.6 1475.44 2255.6 1468.33 Q2255.6 1461.2 2253.77 1457.66 Q2251.96 1454.1 2248.33 1454.1 M2248.33 1450.39 Q2254.14 1450.39 2257.19 1455 Q2260.27 1459.58 2260.27 1468.33 Q2260.27 1477.06 2257.19 1481.67 Q2254.14 1486.25 2248.33 1486.25 Q2242.52 1486.25 2239.44 1481.67 Q2236.38 1477.06 2236.38 1468.33 Q2236.38 1459.58 2239.44 1455 Q2242.52 1450.39 2248.33 1450.39 Z" fill="#000000" fill-rule="nonzero" fill-opacity="1" /><path clip-path="url(#clip860)" d="M2278.49 1454.1 Q2274.88 1454.1 2273.05 1457.66 Q2271.24 1461.2 2271.24 1468.33 Q2271.24 1475.44 2273.05 1479.01 Q2274.88 1482.55 2278.49 1482.55 Q2282.12 1482.55 2283.93 1479.01 Q2285.76 1475.44 2285.76 1468.33 Q2285.76 1461.2 2283.93 1457.66 Q2282.12 1454.1 2278.49 1454.1 M2278.49 1450.39 Q2284.3 1450.39 2287.36 1455 Q2290.43 1459.58 2290.43 1468.33 Q2290.43 1477.06 2287.36 1481.67 Q2284.3 1486.25 2278.49 1486.25 Q2272.68 1486.25 2269.6 1481.67 Q2266.55 1477.06 2266.55 1468.33 Q2266.55 1459.58 2269.6 1455 Q2272.68 1450.39 2278.49 1450.39 Z" fill="#000000" fill-rule="nonzero" fill-opacity="1" /><path clip-path="url(#clip860)" d="M1210.41 1520.52 L1216.84 1520.52 L1216.84 1568.04 L1210.41 1568.04 L1210.41 1520.52 Z" fill="#000000" fill-rule="nonzero" fill-opacity="1" /><path clip-path="url(#clip860)" d="M1235.17 1522.27 L1235.17 1532.4 L1247.23 1532.4 L1247.23 1536.95 L1235.17 1536.95 L1235.17 1556.3 Q1235.17 1560.66 1236.35 1561.9 Q1237.56 1563.14 1241.22 1563.14 L1247.23 1563.14 L1247.23 1568.04 L1241.22 1568.04 Q1234.44 1568.04 1231.86 1565.53 Q1229.28 1562.98 1229.28 1556.3 L1229.28 1536.95 L1224.99 1536.95 L1224.99 1532.4 L1229.28 1532.4 L1229.28 1522.27 L1235.17 1522.27 Z" fill="#000000" fill-rule="nonzero" fill-opacity="1" /><path clip-path="url(#clip860)" d="M1285.43 1548.76 L1285.43 1551.62 L1258.5 1551.62 Q1258.88 1557.67 1262.13 1560.85 Q1265.41 1564 1271.23 1564 Q1274.61 1564 1277.76 1563.17 Q1280.94 1562.35 1284.06 1560.69 L1284.06 1566.23 Q1280.91 1567.57 1277.6 1568.27 Q1274.29 1568.97 1270.88 1568.97 Q1262.35 1568.97 1257.36 1564 Q1252.39 1559.04 1252.39 1550.57 Q1252.39 1541.82 1257.1 1536.69 Q1261.84 1531.54 1269.86 1531.54 Q1277.06 1531.54 1281.23 1536.18 Q1285.43 1540.8 1285.43 1548.76 M1279.57 1547.04 Q1279.51 1542.23 1276.87 1539.37 Q1274.26 1536.5 1269.93 1536.5 Q1265.03 1536.5 1262.07 1539.27 Q1259.14 1542.04 1258.69 1547.07 L1279.57 1547.04 Z" fill="#000000" fill-rule="nonzero" fill-opacity="1" /><path clip-path="url(#clip860)" d="M1315.7 1537.87 Q1314.71 1537.3 1313.53 1537.04 Q1312.39 1536.76 1310.99 1536.76 Q1306.02 1536.76 1303.35 1540 Q1300.71 1543.22 1300.71 1549.27 L1300.71 1568.04 L1294.82 1568.04 L1294.82 1532.4 L1300.71 1532.4 L1300.71 1537.93 Q1302.55 1534.69 1305.51 1533.13 Q1308.47 1531.54 1312.71 1531.54 Q1313.31 1531.54 1314.04 1531.63 Q1314.77 1531.7 1315.67 1531.85 L1315.7 1537.87 Z" fill="#000000" fill-rule="nonzero" fill-opacity="1" /><path clip-path="url(#clip860)" d="M1338.04 1550.12 Q1330.94 1550.12 1328.21 1551.75 Q1325.47 1553.37 1325.47 1557.29 Q1325.47 1560.4 1327.51 1562.25 Q1329.57 1564.07 1333.11 1564.07 Q1337.98 1564.07 1340.91 1560.63 Q1343.87 1557.16 1343.87 1551.43 L1343.87 1550.12 L1338.04 1550.12 M1349.72 1547.71 L1349.72 1568.04 L1343.87 1568.04 L1343.87 1562.63 Q1341.86 1565.88 1338.87 1567.44 Q1335.88 1568.97 1331.55 1568.97 Q1326.07 1568.97 1322.83 1565.91 Q1319.61 1562.82 1319.61 1557.67 Q1319.61 1551.65 1323.62 1548.6 Q1327.67 1545.54 1335.65 1545.54 L1343.87 1545.54 L1343.87 1544.97 Q1343.87 1540.93 1341.19 1538.73 Q1338.55 1536.5 1333.74 1536.5 Q1330.69 1536.5 1327.79 1537.23 Q1324.9 1537.97 1322.22 1539.43 L1322.22 1534.02 Q1325.44 1532.78 1328.46 1532.17 Q1331.48 1531.54 1334.35 1531.54 Q1342.08 1531.54 1345.9 1535.55 Q1349.72 1539.56 1349.72 1547.71 Z" fill="#000000" fill-rule="nonzero" fill-opacity="1" /><path clip-path="url(#clip860)" d="M1367.58 1522.27 L1367.58 1532.4 L1379.64 1532.4 L1379.64 1536.95 L1367.58 1536.95 L1367.58 1556.3 Q1367.58 1560.66 1368.76 1561.9 Q1369.97 1563.14 1373.63 1563.14 L1379.64 1563.14 L1379.64 1568.04 L1373.63 1568.04 Q1366.85 1568.04 1364.27 1565.53 Q1361.69 1562.98 1361.69 1556.3 L1361.69 1536.95 L1357.39 1536.95 L1357.39 1532.4 L1361.69 1532.4 L1361.69 1522.27 L1367.58 1522.27 Z" fill="#000000" fill-rule="nonzero" fill-opacity="1" /><path clip-path="url(#clip860)" d="M1387.34 1532.4 L1393.2 1532.4 L1393.2 1568.04 L1387.34 1568.04 L1387.34 1532.4 M1387.34 1518.52 L1393.2 1518.52 L1393.2 1525.93 L1387.34 1525.93 L1387.34 1518.52 Z" fill="#000000" fill-rule="nonzero" fill-opacity="1" /><path clip-path="url(#clip860)" d="M1419.27 1536.5 Q1414.56 1536.5 1411.82 1540.19 Q1409.08 1543.85 1409.08 1550.25 Q1409.08 1556.65 1411.79 1560.34 Q1414.53 1564 1419.27 1564 Q1423.95 1564 1426.68 1560.31 Q1429.42 1556.62 1429.42 1550.25 Q1429.42 1543.92 1426.68 1540.23 Q1423.95 1536.5 1419.27 1536.5 M1419.27 1531.54 Q1426.91 1531.54 1431.27 1536.5 Q1435.63 1541.47 1435.63 1550.25 Q1435.63 1559 1431.27 1564 Q1426.91 1568.97 1419.27 1568.97 Q1411.6 1568.97 1407.24 1564 Q1402.91 1559 1402.91 1550.25 Q1402.91 1541.47 1407.24 1536.5 Q1411.6 1531.54 1419.27 1531.54 Z" fill="#000000" fill-rule="nonzero" fill-opacity="1" /><path clip-path="url(#clip860)" d="M1474.97 1546.53 L1474.97 1568.04 L1469.11 1568.04 L1469.11 1546.72 Q1469.11 1541.66 1467.14 1539.14 Q1465.16 1536.63 1461.22 1536.63 Q1456.48 1536.63 1453.74 1539.65 Q1451 1542.68 1451 1547.9 L1451 1568.04 L1445.11 1568.04 L1445.11 1532.4 L1451 1532.4 L1451 1537.93 Q1453.1 1534.72 1455.93 1533.13 Q1458.8 1531.54 1462.52 1531.54 Q1468.67 1531.54 1471.82 1535.36 Q1474.97 1539.14 1474.97 1546.53 Z" fill="#000000" fill-rule="nonzero" fill-opacity="1" /><polyline clip-path="url(#clip860)" style="stroke:#000000; stroke-linecap:round; stroke-linejoin:round; stroke-width:4; stroke-opacity:1; fill:none" points="332.62,1423.18 332.62,47.2441 "/>
<polyline clip-path="url(#clip860)" style="stroke:#000000; stroke-linecap:round; stroke-linejoin:round; stroke-width:4; stroke-opacity:1; fill:none" points="332.62,1262.37 351.518,1262.37 "/>
<polyline clip-path="url(#clip860)" style="stroke:#000000; stroke-linecap:round; stroke-linejoin:round; stroke-width:4; stroke-opacity:1; fill:none" points="332.62,1077.81 351.518,1077.81 "/>
<polyline clip-path="url(#clip860)" style="stroke:#000000; stroke-linecap:round; stroke-linejoin:round; stroke-width:4; stroke-opacity:1; fill:none" points="332.62,893.255 351.518,893.255 "/>
<polyline clip-path="url(#clip860)" style="stroke:#000000; stroke-linecap:round; stroke-linejoin:round; stroke-width:4; stroke-opacity:1; fill:none" points="332.62,708.698 351.518,708.698 "/>
<polyline clip-path="url(#clip860)" style="stroke:#000000; stroke-linecap:round; stroke-linejoin:round; stroke-width:4; stroke-opacity:1; fill:none" points="332.62,524.142 351.518,524.142 "/>
<polyline clip-path="url(#clip860)" style="stroke:#000000; stroke-linecap:round; stroke-linejoin:round; stroke-width:4; stroke-opacity:1; fill:none" points="332.62,339.585 351.518,339.585 "/>
<polyline clip-path="url(#clip860)" style="stroke:#000000; stroke-linecap:round; stroke-linejoin:round; stroke-width:4; stroke-opacity:1; fill:none" points="332.62,155.029 351.518,155.029 "/>
<path clip-path="url(#clip860)" d="M114.26 1262.82 L143.936 1262.82 L143.936 1266.75 L114.26 1266.75 L114.26 1262.82 Z" fill="#000000" fill-rule="nonzero" fill-opacity="1" /><path clip-path="url(#clip860)" d="M154.839 1275.71 L162.477 1275.71 L162.477 1249.35 L154.167 1251.01 L154.167 1246.75 L162.431 1245.09 L167.107 1245.09 L167.107 1275.71 L174.746 1275.71 L174.746 1279.65 L154.839 1279.65 L154.839 1275.71 Z" fill="#000000" fill-rule="nonzero" fill-opacity="1" /><path clip-path="url(#clip860)" d="M188.218 1275.71 L204.537 1275.71 L204.537 1279.65 L182.593 1279.65 L182.593 1275.71 Q185.255 1272.96 189.838 1268.33 Q194.445 1263.68 195.625 1262.33 Q197.871 1259.81 198.75 1258.07 Q199.653 1256.31 199.653 1254.62 Q199.653 1251.87 197.709 1250.13 Q195.787 1248.4 192.686 1248.4 Q190.487 1248.4 188.033 1249.16 Q185.602 1249.93 182.825 1251.48 L182.825 1246.75 Q185.649 1245.62 188.102 1245.04 Q190.556 1244.46 192.593 1244.46 Q197.963 1244.46 201.158 1247.15 Q204.352 1249.83 204.352 1254.32 Q204.352 1256.45 203.542 1258.37 Q202.755 1260.27 200.649 1262.87 Q200.07 1263.54 196.968 1266.75 Q193.866 1269.95 188.218 1275.71 Z" fill="#000000" fill-rule="nonzero" fill-opacity="1" /><path clip-path="url(#clip860)" d="M224.352 1248.17 Q220.741 1248.17 218.912 1251.73 Q217.107 1255.27 217.107 1262.4 Q217.107 1269.51 218.912 1273.07 Q220.741 1276.62 224.352 1276.62 Q227.986 1276.62 229.792 1273.07 Q231.621 1269.51 231.621 1262.4 Q231.621 1255.27 229.792 1251.73 Q227.986 1248.17 224.352 1248.17 M224.352 1244.46 Q230.162 1244.46 233.218 1249.07 Q236.297 1253.65 236.297 1262.4 Q236.297 1271.13 233.218 1275.74 Q230.162 1280.32 224.352 1280.32 Q218.542 1280.32 215.463 1275.74 Q212.408 1271.13 212.408 1262.4 Q212.408 1253.65 215.463 1249.07 Q218.542 1244.46 224.352 1244.46 Z" fill="#000000" fill-rule="nonzero" fill-opacity="1" /><path clip-path="url(#clip860)" d="M254.514 1248.17 Q250.903 1248.17 249.074 1251.73 Q247.269 1255.27 247.269 1262.4 Q247.269 1269.51 249.074 1273.07 Q250.903 1276.62 254.514 1276.62 Q258.148 1276.62 259.954 1273.07 Q261.783 1269.51 261.783 1262.4 Q261.783 1255.27 259.954 1251.73 Q258.148 1248.17 254.514 1248.17 M254.514 1244.46 Q260.324 1244.46 263.38 1249.07 Q266.458 1253.65 266.458 1262.4 Q266.458 1271.13 263.38 1275.74 Q260.324 1280.32 254.514 1280.32 Q248.704 1280.32 245.625 1275.74 Q242.57 1271.13 242.57 1262.4 Q242.57 1253.65 245.625 1249.07 Q248.704 1244.46 254.514 1244.46 Z" fill="#000000" fill-rule="nonzero" fill-opacity="1" /><path clip-path="url(#clip860)" d="M284.676 1248.17 Q281.065 1248.17 279.236 1251.73 Q277.431 1255.27 277.431 1262.4 Q277.431 1269.51 279.236 1273.07 Q281.065 1276.62 284.676 1276.62 Q288.31 1276.62 290.116 1273.07 Q291.944 1269.51 291.944 1262.4 Q291.944 1255.27 290.116 1251.73 Q288.31 1248.17 284.676 1248.17 M284.676 1244.46 Q290.486 1244.46 293.542 1249.07 Q296.62 1253.65 296.62 1262.4 Q296.62 1271.13 293.542 1275.74 Q290.486 1280.32 284.676 1280.32 Q278.866 1280.32 275.787 1275.74 Q272.732 1271.13 272.732 1262.4 Q272.732 1253.65 275.787 1249.07 Q278.866 1244.46 284.676 1244.46 Z" fill="#000000" fill-rule="nonzero" fill-opacity="1" /><path clip-path="url(#clip860)" d="M114.26 1078.26 L143.936 1078.26 L143.936 1082.2 L114.26 1082.2 L114.26 1078.26 Z" fill="#000000" fill-rule="nonzero" fill-opacity="1" /><path clip-path="url(#clip860)" d="M154.839 1091.16 L162.477 1091.16 L162.477 1064.79 L154.167 1066.46 L154.167 1062.2 L162.431 1060.53 L167.107 1060.53 L167.107 1091.16 L174.746 1091.16 L174.746 1095.09 L154.839 1095.09 L154.839 1091.16 Z" fill="#000000" fill-rule="nonzero" fill-opacity="1" /><path clip-path="url(#clip860)" d="M185.001 1091.16 L192.639 1091.16 L192.639 1064.79 L184.329 1066.46 L184.329 1062.2 L192.593 1060.53 L197.269 1060.53 L197.269 1091.16 L204.908 1091.16 L204.908 1095.09 L185.001 1095.09 L185.001 1091.16 Z" fill="#000000" fill-rule="nonzero" fill-opacity="1" /><path clip-path="url(#clip860)" d="M224.352 1063.61 Q220.741 1063.61 218.912 1067.17 Q217.107 1070.72 217.107 1077.85 Q217.107 1084.95 218.912 1088.52 Q220.741 1092.06 224.352 1092.06 Q227.986 1092.06 229.792 1088.52 Q231.621 1084.95 231.621 1077.85 Q231.621 1070.72 229.792 1067.17 Q227.986 1063.61 224.352 1063.61 M224.352 1059.91 Q230.162 1059.91 233.218 1064.51 Q236.297 1069.1 236.297 1077.85 Q236.297 1086.57 233.218 1091.18 Q230.162 1095.76 224.352 1095.76 Q218.542 1095.76 215.463 1091.18 Q212.408 1086.57 212.408 1077.85 Q212.408 1069.1 215.463 1064.51 Q218.542 1059.91 224.352 1059.91 Z" fill="#000000" fill-rule="nonzero" fill-opacity="1" /><path clip-path="url(#clip860)" d="M254.514 1063.61 Q250.903 1063.61 249.074 1067.17 Q247.269 1070.72 247.269 1077.85 Q247.269 1084.95 249.074 1088.52 Q250.903 1092.06 254.514 1092.06 Q258.148 1092.06 259.954 1088.52 Q261.783 1084.95 261.783 1077.85 Q261.783 1070.72 259.954 1067.17 Q258.148 1063.61 254.514 1063.61 M254.514 1059.91 Q260.324 1059.91 263.38 1064.51 Q266.458 1069.1 266.458 1077.85 Q266.458 1086.57 263.38 1091.18 Q260.324 1095.76 254.514 1095.76 Q248.704 1095.76 245.625 1091.18 Q242.57 1086.57 242.57 1077.85 Q242.57 1069.1 245.625 1064.51 Q248.704 1059.91 254.514 1059.91 Z" fill="#000000" fill-rule="nonzero" fill-opacity="1" /><path clip-path="url(#clip860)" d="M284.676 1063.61 Q281.065 1063.61 279.236 1067.17 Q277.431 1070.72 277.431 1077.85 Q277.431 1084.95 279.236 1088.52 Q281.065 1092.06 284.676 1092.06 Q288.31 1092.06 290.116 1088.52 Q291.944 1084.95 291.944 1077.85 Q291.944 1070.72 290.116 1067.17 Q288.31 1063.61 284.676 1063.61 M284.676 1059.91 Q290.486 1059.91 293.542 1064.51 Q296.62 1069.1 296.62 1077.85 Q296.62 1086.57 293.542 1091.18 Q290.486 1095.76 284.676 1095.76 Q278.866 1095.76 275.787 1091.18 Q272.732 1086.57 272.732 1077.85 Q272.732 1069.1 275.787 1064.51 Q278.866 1059.91 284.676 1059.91 Z" fill="#000000" fill-rule="nonzero" fill-opacity="1" /><path clip-path="url(#clip860)" d="M114.26 893.706 L143.936 893.706 L143.936 897.641 L114.26 897.641 L114.26 893.706 Z" fill="#000000" fill-rule="nonzero" fill-opacity="1" /><path clip-path="url(#clip860)" d="M154.839 906.6 L162.477 906.6 L162.477 880.234 L154.167 881.901 L154.167 877.641 L162.431 875.975 L167.107 875.975 L167.107 906.6 L174.746 906.6 L174.746 910.535 L154.839 910.535 L154.839 906.6 Z" fill="#000000" fill-rule="nonzero" fill-opacity="1" /><path clip-path="url(#clip860)" d="M194.19 879.053 Q190.579 879.053 188.75 882.618 Q186.945 886.16 186.945 893.289 Q186.945 900.396 188.75 903.961 Q190.579 907.502 194.19 907.502 Q197.825 907.502 199.63 903.961 Q201.459 900.396 201.459 893.289 Q201.459 886.16 199.63 882.618 Q197.825 879.053 194.19 879.053 M194.19 875.35 Q200 875.35 203.056 879.956 Q206.135 884.539 206.135 893.289 Q206.135 902.016 203.056 906.623 Q200 911.206 194.19 911.206 Q188.38 911.206 185.301 906.623 Q182.246 902.016 182.246 893.289 Q182.246 884.539 185.301 879.956 Q188.38 875.35 194.19 875.35 Z" fill="#000000" fill-rule="nonzero" fill-opacity="1" /><path clip-path="url(#clip860)" d="M224.352 879.053 Q220.741 879.053 218.912 882.618 Q217.107 886.16 217.107 893.289 Q217.107 900.396 218.912 903.961 Q220.741 907.502 224.352 907.502 Q227.986 907.502 229.792 903.961 Q231.621 900.396 231.621 893.289 Q231.621 886.16 229.792 882.618 Q227.986 879.053 224.352 879.053 M224.352 875.35 Q230.162 875.35 233.218 879.956 Q236.297 884.539 236.297 893.289 Q236.297 902.016 233.218 906.623 Q230.162 911.206 224.352 911.206 Q218.542 911.206 215.463 906.623 Q212.408 902.016 212.408 893.289 Q212.408 884.539 215.463 879.956 Q218.542 875.35 224.352 875.35 Z" fill="#000000" fill-rule="nonzero" fill-opacity="1" /><path clip-path="url(#clip860)" d="M254.514 879.053 Q250.903 879.053 249.074 882.618 Q247.269 886.16 247.269 893.289 Q247.269 900.396 249.074 903.961 Q250.903 907.502 254.514 907.502 Q258.148 907.502 259.954 903.961 Q261.783 900.396 261.783 893.289 Q261.783 886.16 259.954 882.618 Q258.148 879.053 254.514 879.053 M254.514 875.35 Q260.324 875.35 263.38 879.956 Q266.458 884.539 266.458 893.289 Q266.458 902.016 263.38 906.623 Q260.324 911.206 254.514 911.206 Q248.704 911.206 245.625 906.623 Q242.57 902.016 242.57 893.289 Q242.57 884.539 245.625 879.956 Q248.704 875.35 254.514 875.35 Z" fill="#000000" fill-rule="nonzero" fill-opacity="1" /><path clip-path="url(#clip860)" d="M284.676 879.053 Q281.065 879.053 279.236 882.618 Q277.431 886.16 277.431 893.289 Q277.431 900.396 279.236 903.961 Q281.065 907.502 284.676 907.502 Q288.31 907.502 290.116 903.961 Q291.944 900.396 291.944 893.289 Q291.944 886.16 290.116 882.618 Q288.31 879.053 284.676 879.053 M284.676 875.35 Q290.486 875.35 293.542 879.956 Q296.62 884.539 296.62 893.289 Q296.62 902.016 293.542 906.623 Q290.486 911.206 284.676 911.206 Q278.866 911.206 275.787 906.623 Q272.732 902.016 272.732 893.289 Q272.732 884.539 275.787 879.956 Q278.866 875.35 284.676 875.35 Z" fill="#000000" fill-rule="nonzero" fill-opacity="1" /><path clip-path="url(#clip860)" d="M144.422 709.15 L174.098 709.15 L174.098 713.085 L144.422 713.085 L144.422 709.15 Z" fill="#000000" fill-rule="nonzero" fill-opacity="1" /><path clip-path="url(#clip860)" d="M184.329 725.261 L184.329 721.001 Q186.088 721.835 187.894 722.275 Q189.7 722.714 191.436 722.714 Q196.065 722.714 198.496 719.613 Q200.95 716.488 201.297 710.145 Q199.954 712.136 197.894 713.201 Q195.834 714.265 193.334 714.265 Q188.149 714.265 185.116 711.14 Q182.107 707.992 182.107 702.552 Q182.107 697.228 185.255 694.011 Q188.403 690.793 193.635 690.793 Q199.63 690.793 202.778 695.4 Q205.949 699.983 205.949 708.733 Q205.949 716.904 202.061 721.788 Q198.195 726.65 191.644 726.65 Q189.885 726.65 188.079 726.302 Q186.274 725.955 184.329 725.261 M193.635 710.608 Q196.783 710.608 198.612 708.455 Q200.463 706.302 200.463 702.552 Q200.463 698.826 198.612 696.673 Q196.783 694.497 193.635 694.497 Q190.487 694.497 188.635 696.673 Q186.806 698.826 186.806 702.552 Q186.806 706.302 188.635 708.455 Q190.487 710.608 193.635 710.608 Z" fill="#000000" fill-rule="nonzero" fill-opacity="1" /><path clip-path="url(#clip860)" d="M224.352 694.497 Q220.741 694.497 218.912 698.062 Q217.107 701.603 217.107 708.733 Q217.107 715.839 218.912 719.404 Q220.741 722.946 224.352 722.946 Q227.986 722.946 229.792 719.404 Q231.621 715.839 231.621 708.733 Q231.621 701.603 229.792 698.062 Q227.986 694.497 224.352 694.497 M224.352 690.793 Q230.162 690.793 233.218 695.4 Q236.297 699.983 236.297 708.733 Q236.297 717.46 233.218 722.066 Q230.162 726.65 224.352 726.65 Q218.542 726.65 215.463 722.066 Q212.408 717.46 212.408 708.733 Q212.408 699.983 215.463 695.4 Q218.542 690.793 224.352 690.793 Z" fill="#000000" fill-rule="nonzero" fill-opacity="1" /><path clip-path="url(#clip860)" d="M254.514 694.497 Q250.903 694.497 249.074 698.062 Q247.269 701.603 247.269 708.733 Q247.269 715.839 249.074 719.404 Q250.903 722.946 254.514 722.946 Q258.148 722.946 259.954 719.404 Q261.783 715.839 261.783 708.733 Q261.783 701.603 259.954 698.062 Q258.148 694.497 254.514 694.497 M254.514 690.793 Q260.324 690.793 263.38 695.4 Q266.458 699.983 266.458 708.733 Q266.458 717.46 263.38 722.066 Q260.324 726.65 254.514 726.65 Q248.704 726.65 245.625 722.066 Q242.57 717.46 242.57 708.733 Q242.57 699.983 245.625 695.4 Q248.704 690.793 254.514 690.793 Z" fill="#000000" fill-rule="nonzero" fill-opacity="1" /><path clip-path="url(#clip860)" d="M284.676 694.497 Q281.065 694.497 279.236 698.062 Q277.431 701.603 277.431 708.733 Q277.431 715.839 279.236 719.404 Q281.065 722.946 284.676 722.946 Q288.31 722.946 290.116 719.404 Q291.944 715.839 291.944 708.733 Q291.944 701.603 290.116 698.062 Q288.31 694.497 284.676 694.497 M284.676 690.793 Q290.486 690.793 293.542 695.4 Q296.62 699.983 296.62 708.733 Q296.62 717.46 293.542 722.066 Q290.486 726.65 284.676 726.65 Q278.866 726.65 275.787 722.066 Q272.732 717.46 272.732 708.733 Q272.732 699.983 275.787 695.4 Q278.866 690.793 284.676 690.793 Z" fill="#000000" fill-rule="nonzero" fill-opacity="1" /><path clip-path="url(#clip860)" d="M144.422 524.593 L174.098 524.593 L174.098 528.528 L144.422 528.528 L144.422 524.593 Z" fill="#000000" fill-rule="nonzero" fill-opacity="1" /><path clip-path="url(#clip860)" d="M194.19 525.01 Q190.857 525.01 188.936 526.792 Q187.038 528.575 187.038 531.7 Q187.038 534.825 188.936 536.607 Q190.857 538.389 194.19 538.389 Q197.524 538.389 199.445 536.607 Q201.366 534.801 201.366 531.7 Q201.366 528.575 199.445 526.792 Q197.547 525.01 194.19 525.01 M189.514 523.019 Q186.505 522.278 184.815 520.218 Q183.149 518.158 183.149 515.195 Q183.149 511.052 186.088 508.644 Q189.051 506.237 194.19 506.237 Q199.352 506.237 202.292 508.644 Q205.232 511.052 205.232 515.195 Q205.232 518.158 203.542 520.218 Q201.875 522.278 198.889 523.019 Q202.269 523.806 204.144 526.098 Q206.042 528.389 206.042 531.7 Q206.042 536.723 202.963 539.408 Q199.908 542.093 194.19 542.093 Q188.473 542.093 185.394 539.408 Q182.338 536.723 182.338 531.7 Q182.338 528.389 184.237 526.098 Q186.135 523.806 189.514 523.019 M187.801 515.635 Q187.801 518.32 189.468 519.825 Q191.158 521.329 194.19 521.329 Q197.2 521.329 198.889 519.825 Q200.602 518.32 200.602 515.635 Q200.602 512.95 198.889 511.445 Q197.2 509.94 194.19 509.94 Q191.158 509.94 189.468 511.445 Q187.801 512.95 187.801 515.635 Z" fill="#000000" fill-rule="nonzero" fill-opacity="1" /><path clip-path="url(#clip860)" d="M224.352 509.94 Q220.741 509.94 218.912 513.505 Q217.107 517.047 217.107 524.176 Q217.107 531.283 218.912 534.848 Q220.741 538.389 224.352 538.389 Q227.986 538.389 229.792 534.848 Q231.621 531.283 231.621 524.176 Q231.621 517.047 229.792 513.505 Q227.986 509.94 224.352 509.94 M224.352 506.237 Q230.162 506.237 233.218 510.843 Q236.297 515.426 236.297 524.176 Q236.297 532.903 233.218 537.51 Q230.162 542.093 224.352 542.093 Q218.542 542.093 215.463 537.51 Q212.408 532.903 212.408 524.176 Q212.408 515.426 215.463 510.843 Q218.542 506.237 224.352 506.237 Z" fill="#000000" fill-rule="nonzero" fill-opacity="1" /><path clip-path="url(#clip860)" d="M254.514 509.94 Q250.903 509.94 249.074 513.505 Q247.269 517.047 247.269 524.176 Q247.269 531.283 249.074 534.848 Q250.903 538.389 254.514 538.389 Q258.148 538.389 259.954 534.848 Q261.783 531.283 261.783 524.176 Q261.783 517.047 259.954 513.505 Q258.148 509.94 254.514 509.94 M254.514 506.237 Q260.324 506.237 263.38 510.843 Q266.458 515.426 266.458 524.176 Q266.458 532.903 263.38 537.51 Q260.324 542.093 254.514 542.093 Q248.704 542.093 245.625 537.51 Q242.57 532.903 242.57 524.176 Q242.57 515.426 245.625 510.843 Q248.704 506.237 254.514 506.237 Z" fill="#000000" fill-rule="nonzero" fill-opacity="1" /><path clip-path="url(#clip860)" d="M284.676 509.94 Q281.065 509.94 279.236 513.505 Q277.431 517.047 277.431 524.176 Q277.431 531.283 279.236 534.848 Q281.065 538.389 284.676 538.389 Q288.31 538.389 290.116 534.848 Q291.944 531.283 291.944 524.176 Q291.944 517.047 290.116 513.505 Q288.31 509.94 284.676 509.94 M284.676 506.237 Q290.486 506.237 293.542 510.843 Q296.62 515.426 296.62 524.176 Q296.62 532.903 293.542 537.51 Q290.486 542.093 284.676 542.093 Q278.866 542.093 275.787 537.51 Q272.732 532.903 272.732 524.176 Q272.732 515.426 275.787 510.843 Q278.866 506.237 284.676 506.237 Z" fill="#000000" fill-rule="nonzero" fill-opacity="1" /><path clip-path="url(#clip860)" d="M144.422 340.037 L174.098 340.037 L174.098 343.972 L144.422 343.972 L144.422 340.037 Z" fill="#000000" fill-rule="nonzero" fill-opacity="1" /><path clip-path="url(#clip860)" d="M183.01 322.305 L205.232 322.305 L205.232 324.296 L192.686 356.865 L187.801 356.865 L199.607 326.24 L183.01 326.24 L183.01 322.305 Z" fill="#000000" fill-rule="nonzero" fill-opacity="1" /><path clip-path="url(#clip860)" d="M224.352 325.384 Q220.741 325.384 218.912 328.949 Q217.107 332.49 217.107 339.62 Q217.107 346.726 218.912 350.291 Q220.741 353.833 224.352 353.833 Q227.986 353.833 229.792 350.291 Q231.621 346.726 231.621 339.62 Q231.621 332.49 229.792 328.949 Q227.986 325.384 224.352 325.384 M224.352 321.68 Q230.162 321.68 233.218 326.287 Q236.297 330.87 236.297 339.62 Q236.297 348.347 233.218 352.953 Q230.162 357.537 224.352 357.537 Q218.542 357.537 215.463 352.953 Q212.408 348.347 212.408 339.62 Q212.408 330.87 215.463 326.287 Q218.542 321.68 224.352 321.68 Z" fill="#000000" fill-rule="nonzero" fill-opacity="1" /><path clip-path="url(#clip860)" d="M254.514 325.384 Q250.903 325.384 249.074 328.949 Q247.269 332.49 247.269 339.62 Q247.269 346.726 249.074 350.291 Q250.903 353.833 254.514 353.833 Q258.148 353.833 259.954 350.291 Q261.783 346.726 261.783 339.62 Q261.783 332.49 259.954 328.949 Q258.148 325.384 254.514 325.384 M254.514 321.68 Q260.324 321.68 263.38 326.287 Q266.458 330.87 266.458 339.62 Q266.458 348.347 263.38 352.953 Q260.324 357.537 254.514 357.537 Q248.704 357.537 245.625 352.953 Q242.57 348.347 242.57 339.62 Q242.57 330.87 245.625 326.287 Q248.704 321.68 254.514 321.68 Z" fill="#000000" fill-rule="nonzero" fill-opacity="1" /><path clip-path="url(#clip860)" d="M284.676 325.384 Q281.065 325.384 279.236 328.949 Q277.431 332.49 277.431 339.62 Q277.431 346.726 279.236 350.291 Q281.065 353.833 284.676 353.833 Q288.31 353.833 290.116 350.291 Q291.944 346.726 291.944 339.62 Q291.944 332.49 290.116 328.949 Q288.31 325.384 284.676 325.384 M284.676 321.68 Q290.486 321.68 293.542 326.287 Q296.62 330.87 296.62 339.62 Q296.62 348.347 293.542 352.953 Q290.486 357.537 284.676 357.537 Q278.866 357.537 275.787 352.953 Q272.732 348.347 272.732 339.62 Q272.732 330.87 275.787 326.287 Q278.866 321.68 284.676 321.68 Z" fill="#000000" fill-rule="nonzero" fill-opacity="1" /><path clip-path="url(#clip860)" d="M144.422 155.48 L174.098 155.48 L174.098 159.415 L144.422 159.415 L144.422 155.48 Z" fill="#000000" fill-rule="nonzero" fill-opacity="1" /><path clip-path="url(#clip860)" d="M194.769 153.165 Q191.621 153.165 189.769 155.318 Q187.94 157.471 187.94 161.221 Q187.94 164.948 189.769 167.124 Q191.621 169.276 194.769 169.276 Q197.917 169.276 199.746 167.124 Q201.598 164.948 201.598 161.221 Q201.598 157.471 199.746 155.318 Q197.917 153.165 194.769 153.165 M204.051 138.513 L204.051 142.772 Q202.292 141.939 200.487 141.499 Q198.704 141.059 196.945 141.059 Q192.315 141.059 189.862 144.184 Q187.431 147.309 187.084 153.628 Q188.45 151.614 190.51 150.55 Q192.57 149.462 195.047 149.462 Q200.255 149.462 203.264 152.633 Q206.297 155.781 206.297 161.221 Q206.297 166.545 203.149 169.762 Q200 172.98 194.769 172.98 Q188.774 172.98 185.602 168.397 Q182.431 163.79 182.431 155.063 Q182.431 146.869 186.32 142.008 Q190.209 137.124 196.76 137.124 Q198.519 137.124 200.301 137.471 Q202.107 137.818 204.051 138.513 Z" fill="#000000" fill-rule="nonzero" fill-opacity="1" /><path clip-path="url(#clip860)" d="M224.352 140.827 Q220.741 140.827 218.912 144.392 Q217.107 147.934 217.107 155.063 Q217.107 162.17 218.912 165.735 Q220.741 169.276 224.352 169.276 Q227.986 169.276 229.792 165.735 Q231.621 162.17 231.621 155.063 Q231.621 147.934 229.792 144.392 Q227.986 140.827 224.352 140.827 M224.352 137.124 Q230.162 137.124 233.218 141.73 Q236.297 146.314 236.297 155.063 Q236.297 163.79 233.218 168.397 Q230.162 172.98 224.352 172.98 Q218.542 172.98 215.463 168.397 Q212.408 163.79 212.408 155.063 Q212.408 146.314 215.463 141.73 Q218.542 137.124 224.352 137.124 Z" fill="#000000" fill-rule="nonzero" fill-opacity="1" /><path clip-path="url(#clip860)" d="M254.514 140.827 Q250.903 140.827 249.074 144.392 Q247.269 147.934 247.269 155.063 Q247.269 162.17 249.074 165.735 Q250.903 169.276 254.514 169.276 Q258.148 169.276 259.954 165.735 Q261.783 162.17 261.783 155.063 Q261.783 147.934 259.954 144.392 Q258.148 140.827 254.514 140.827 M254.514 137.124 Q260.324 137.124 263.38 141.73 Q266.458 146.314 266.458 155.063 Q266.458 163.79 263.38 168.397 Q260.324 172.98 254.514 172.98 Q248.704 172.98 245.625 168.397 Q242.57 163.79 242.57 155.063 Q242.57 146.314 245.625 141.73 Q248.704 137.124 254.514 137.124 Z" fill="#000000" fill-rule="nonzero" fill-opacity="1" /><path clip-path="url(#clip860)" d="M284.676 140.827 Q281.065 140.827 279.236 144.392 Q277.431 147.934 277.431 155.063 Q277.431 162.17 279.236 165.735 Q281.065 169.276 284.676 169.276 Q288.31 169.276 290.116 165.735 Q291.944 162.17 291.944 155.063 Q291.944 147.934 290.116 144.392 Q288.31 140.827 284.676 140.827 M284.676 137.124 Q290.486 137.124 293.542 141.73 Q296.62 146.314 296.62 155.063 Q296.62 163.79 293.542 168.397 Q290.486 172.98 284.676 172.98 Q278.866 172.98 275.787 168.397 Q272.732 163.79 272.732 155.063 Q272.732 146.314 275.787 141.73 Q278.866 137.124 284.676 137.124 Z" fill="#000000" fill-rule="nonzero" fill-opacity="1" /><path clip-path="url(#clip860)" d="M16.4842 816.375 L16.4842 786.329 L21.895 786.329 L21.895 809.945 L35.9632 809.945 L35.9632 787.315 L41.3741 787.315 L41.3741 809.945 L58.5933 809.945 L58.5933 785.756 L64.0042 785.756 L64.0042 816.375 L16.4842 816.375 Z" fill="#000000" fill-rule="nonzero" fill-opacity="1" /><path clip-path="url(#clip860)" d="M16.4842 775.189 L16.4842 768.759 L58.5933 768.759 L58.5933 745.62 L64.0042 745.62 L64.0042 775.189 L16.4842 775.189 Z" fill="#000000" fill-rule="nonzero" fill-opacity="1" /><path clip-path="url(#clip860)" d="M41.3104 732.443 L58.7206 732.443 L58.7206 722.13 Q58.7206 716.942 56.5881 714.46 Q54.4238 711.945 49.9996 711.945 Q45.5436 711.945 43.4429 714.46 Q41.3104 716.942 41.3104 722.13 L41.3104 732.443 M21.7677 732.443 L36.0905 732.443 L36.0905 722.926 Q36.0905 718.216 34.34 715.924 Q32.5576 713.6 28.9291 713.6 Q25.3325 713.6 23.5501 715.924 Q21.7677 718.216 21.7677 722.926 L21.7677 732.443 M16.4842 738.872 L16.4842 722.449 Q16.4842 715.096 19.5397 711.118 Q22.5952 707.139 28.2289 707.139 Q32.5894 707.139 35.1675 709.176 Q37.7456 711.213 38.3822 715.16 Q39.4007 710.418 42.6472 707.808 Q45.8619 705.166 50.6998 705.166 Q57.0655 705.166 60.5348 709.495 Q64.0042 713.823 64.0042 721.812 L64.0042 738.872 L16.4842 738.872 Z" fill="#000000" fill-rule="nonzero" fill-opacity="1" /><path clip-path="url(#clip860)" d="M20.8447 676.011 Q20.8447 683.013 26.0645 687.151 Q31.2844 691.257 40.2919 691.257 Q49.2675 691.257 54.4874 687.151 Q59.7073 683.013 59.7073 676.011 Q59.7073 669.009 54.4874 664.935 Q49.2675 660.829 40.2919 660.829 Q31.2844 660.829 26.0645 664.935 Q20.8447 669.009 20.8447 676.011 M15.6248 676.011 Q15.6248 666.017 22.3406 660.033 Q29.0246 654.049 40.2919 654.049 Q51.5274 654.049 58.2432 660.033 Q64.9272 666.017 64.9272 676.011 Q64.9272 686.037 58.2432 692.052 Q51.5592 698.036 40.2919 698.036 Q29.0246 698.036 22.3406 692.052 Q15.6248 686.037 15.6248 676.011 Z" fill="#000000" fill-rule="nonzero" fill-opacity="1" /><polyline clip-path="url(#clip862)" style="stroke:#009af9; stroke-linecap:round; stroke-linejoin:round; stroke-width:4; stroke-opacity:1; fill:none" points="389.794,1384.24 451.271,1031.62 512.748,452.926 574.225,349.168 635.702,313.582 697.179,294.996 758.656,272.495 820.133,252.956 881.61,245.558 943.087,236.152 1004.56,235.5 1066.04,227.742 1127.52,220.216 1189,203.746 1250.47,198.852 1311.95,192.055 1373.43,184.855 1434.9,179.811 1496.38,175.582 1557.86,172.933 1619.33,165.415 1680.81,167.595 1742.29,155.894 1803.77,144.315 1865.24,133.138 1926.72,124.012 1988.2,120.174 2049.67,110.748 2111.15,105.416 2172.63,102.827 2234.11,92.4363 2295.58,86.1857 "/>
<polyline clip-path="url(#clip862)" style="stroke:#e26f46; stroke-linecap:round; stroke-linejoin:round; stroke-width:4; stroke-opacity:1; fill:none" points="389.794,1344.45 451.271,781.72 512.748,520.401 574.225,379.084 635.702,351.14 697.179,307.881 758.656,293.675 820.133,275.441 881.61,275.117 943.087,261.919 1004.56,254.291 1066.04,250.606 1127.52,243.254 1189,237.887 1250.47,233.15 1311.95,220.696 1373.43,216.056 1434.9,204.92 1496.38,200.936 1557.86,196.489 1619.33,186.948 1680.81,180.038 1742.29,177.622 1803.77,171.067 1865.24,164.988 1926.72,160.207 1988.2,153.801 2049.67,150.113 2111.15,143.672 2172.63,135.305 2234.11,131.533 2295.58,126.585 "/>
<path clip-path="url(#clip860)" d="M1784.1 1377.32 L2285.42 1377.32 L2285.42 1221.8 L1784.1 1221.8  Z" fill="#ffffff" fill-rule="evenodd" fill-opacity="1"/>
<polyline clip-path="url(#clip860)" style="stroke:#000000; stroke-linecap:round; stroke-linejoin:round; stroke-width:4; stroke-opacity:1; fill:none" points="1784.1,1377.32 2285.42,1377.32 2285.42,1221.8 1784.1,1221.8 1784.1,1377.32 "/>
<polyline clip-path="url(#clip860)" style="stroke:#009af9; stroke-linecap:round; stroke-linejoin:round; stroke-width:4; stroke-opacity:1; fill:none" points="1806.55,1273.64 1941.22,1273.64 "/>
<path clip-path="url(#clip860)" d="M1963.67 1256.36 L1983.53 1256.36 L1983.53 1260.29 L1968.34 1260.29 L1968.34 1270.48 L1982.05 1270.48 L1982.05 1274.41 L1968.34 1274.41 L1968.34 1290.92 L1963.67 1290.92 L1963.67 1256.36 Z" fill="#000000" fill-rule="nonzero" fill-opacity="1" /><path clip-path="url(#clip860)" d="M1987.72 1280.68 L1987.72 1264.99 L1991.98 1264.99 L1991.98 1280.52 Q1991.98 1284.2 1993.41 1286.05 Q1994.85 1287.88 1997.72 1287.88 Q2001.17 1287.88 2003.16 1285.68 Q2005.17 1283.48 2005.17 1279.69 L2005.17 1264.99 L2009.43 1264.99 L2009.43 1290.92 L2005.17 1290.92 L2005.17 1286.93 Q2003.62 1289.29 2001.56 1290.45 Q1999.52 1291.59 1996.82 1291.59 Q1992.35 1291.59 1990.03 1288.81 Q1987.72 1286.03 1987.72 1280.68 M1998.44 1264.36 L1998.44 1264.36 Z" fill="#000000" fill-rule="nonzero" fill-opacity="1" /><path clip-path="url(#clip860)" d="M2018.2 1254.9 L2022.46 1254.9 L2022.46 1290.92 L2018.2 1290.92 L2018.2 1254.9 Z" fill="#000000" fill-rule="nonzero" fill-opacity="1" /><path clip-path="url(#clip860)" d="M2031.38 1254.9 L2035.64 1254.9 L2035.64 1290.92 L2031.38 1290.92 L2031.38 1254.9 Z" fill="#000000" fill-rule="nonzero" fill-opacity="1" /><path clip-path="url(#clip860)" d="M2064.48 1274.41 L2064.48 1287.07 L2071.98 1287.07 Q2075.75 1287.07 2077.56 1285.52 Q2079.39 1283.95 2079.39 1280.73 Q2079.39 1277.49 2077.56 1275.96 Q2075.75 1274.41 2071.98 1274.41 L2064.48 1274.41 M2064.48 1260.2 L2064.48 1270.61 L2071.4 1270.61 Q2074.82 1270.61 2076.49 1269.34 Q2078.18 1268.05 2078.18 1265.41 Q2078.18 1262.79 2076.49 1261.49 Q2074.82 1260.2 2071.4 1260.2 L2064.48 1260.2 M2059.8 1256.36 L2071.75 1256.36 Q2077.09 1256.36 2079.99 1258.58 Q2082.88 1260.8 2082.88 1264.9 Q2082.88 1268.07 2081.4 1269.94 Q2079.92 1271.82 2077.05 1272.28 Q2080.5 1273.02 2082.39 1275.38 Q2084.32 1277.72 2084.32 1281.24 Q2084.32 1285.87 2081.17 1288.39 Q2078.02 1290.92 2072.21 1290.92 L2059.8 1290.92 L2059.8 1256.36 Z" fill="#000000" fill-rule="nonzero" fill-opacity="1" /><path clip-path="url(#clip860)" d="M2103.92 1277.88 Q2098.76 1277.88 2096.77 1279.06 Q2094.78 1280.24 2094.78 1283.09 Q2094.78 1285.36 2096.26 1286.7 Q2097.76 1288.02 2100.33 1288.02 Q2103.88 1288.02 2106.01 1285.52 Q2108.16 1283 2108.16 1278.83 L2108.16 1277.88 L2103.92 1277.88 M2112.42 1276.12 L2112.42 1290.92 L2108.16 1290.92 L2108.16 1286.98 Q2106.7 1289.34 2104.52 1290.48 Q2102.35 1291.59 2099.2 1291.59 Q2095.22 1291.59 2092.86 1289.36 Q2090.52 1287.12 2090.52 1283.37 Q2090.52 1278.99 2093.44 1276.77 Q2096.38 1274.55 2102.19 1274.55 L2108.16 1274.55 L2108.16 1274.13 Q2108.16 1271.19 2106.21 1269.6 Q2104.29 1267.98 2100.8 1267.98 Q2098.57 1267.98 2096.47 1268.51 Q2094.36 1269.04 2092.42 1270.11 L2092.42 1266.17 Q2094.76 1265.27 2096.95 1264.83 Q2099.15 1264.36 2101.24 1264.36 Q2106.86 1264.36 2109.64 1267.28 Q2112.42 1270.2 2112.42 1276.12 Z" fill="#000000" fill-rule="nonzero" fill-opacity="1" /><path clip-path="url(#clip860)" d="M2125.4 1257.63 L2125.4 1264.99 L2134.18 1264.99 L2134.18 1268.3 L2125.4 1268.3 L2125.4 1282.37 Q2125.4 1285.54 2126.26 1286.45 Q2127.14 1287.35 2129.8 1287.35 L2134.18 1287.35 L2134.18 1290.92 L2129.8 1290.92 Q2124.87 1290.92 2123 1289.09 Q2121.12 1287.23 2121.12 1282.37 L2121.12 1268.3 L2118 1268.3 L2118 1264.99 L2121.12 1264.99 L2121.12 1257.63 L2125.4 1257.63 Z" fill="#000000" fill-rule="nonzero" fill-opacity="1" /><path clip-path="url(#clip860)" d="M2158.44 1265.98 L2158.44 1269.97 Q2156.63 1268.97 2154.8 1268.48 Q2153 1267.98 2151.14 1267.98 Q2147 1267.98 2144.71 1270.61 Q2142.42 1273.23 2142.42 1277.98 Q2142.42 1282.72 2144.71 1285.36 Q2147 1287.98 2151.14 1287.98 Q2153 1287.98 2154.8 1287.49 Q2156.63 1286.98 2158.44 1285.98 L2158.44 1289.92 Q2156.65 1290.75 2154.73 1291.17 Q2152.83 1291.59 2150.68 1291.59 Q2144.82 1291.59 2141.38 1287.91 Q2137.93 1284.23 2137.93 1277.98 Q2137.93 1271.63 2141.4 1268 Q2144.89 1264.36 2150.96 1264.36 Q2152.93 1264.36 2154.8 1264.78 Q2156.68 1265.17 2158.44 1265.98 Z" fill="#000000" fill-rule="nonzero" fill-opacity="1" /><path clip-path="url(#clip860)" d="M2187.39 1275.27 L2187.39 1290.92 L2183.13 1290.92 L2183.13 1275.41 Q2183.13 1271.73 2181.7 1269.9 Q2180.26 1268.07 2177.39 1268.07 Q2173.94 1268.07 2171.95 1270.27 Q2169.96 1272.47 2169.96 1276.26 L2169.96 1290.92 L2165.68 1290.92 L2165.68 1254.9 L2169.96 1254.9 L2169.96 1269.02 Q2171.49 1266.68 2173.55 1265.52 Q2175.63 1264.36 2178.34 1264.36 Q2182.81 1264.36 2185.1 1267.14 Q2187.39 1269.9 2187.39 1275.27 Z" fill="#000000" fill-rule="nonzero" fill-opacity="1" /><polyline clip-path="url(#clip860)" style="stroke:#e26f46; stroke-linecap:round; stroke-linejoin:round; stroke-width:4; stroke-opacity:1; fill:none" points="1806.55,1325.48 1941.22,1325.48 "/>
<path clip-path="url(#clip860)" d="M1985.91 1309.33 L1985.91 1313.89 Q1983.25 1312.62 1980.89 1311.99 Q1978.53 1311.37 1976.33 1311.37 Q1972.51 1311.37 1970.43 1312.85 Q1968.37 1314.33 1968.37 1317.06 Q1968.37 1319.35 1969.73 1320.53 Q1971.12 1321.69 1974.96 1322.41 L1977.79 1322.99 Q1983.02 1323.98 1985.5 1326.51 Q1988 1329.01 1988 1333.22 Q1988 1338.24 1984.62 1340.83 Q1981.26 1343.43 1974.76 1343.43 Q1972.3 1343.43 1969.52 1342.87 Q1966.77 1342.32 1963.81 1341.23 L1963.81 1336.41 Q1966.65 1338.01 1969.39 1338.82 Q1972.12 1339.63 1974.76 1339.63 Q1978.76 1339.63 1980.94 1338.06 Q1983.11 1336.48 1983.11 1333.57 Q1983.11 1331.02 1981.54 1329.58 Q1979.99 1328.15 1976.42 1327.43 L1973.58 1326.88 Q1968.34 1325.83 1966.01 1323.61 Q1963.67 1321.39 1963.67 1317.43 Q1963.67 1312.85 1966.89 1310.21 Q1970.13 1307.57 1975.8 1307.57 Q1978.23 1307.57 1980.75 1308.01 Q1983.27 1308.45 1985.91 1309.33 Z" fill="#000000" fill-rule="nonzero" fill-opacity="1" /><path clip-path="url(#clip860)" d="M1994.66 1332.52 L1994.66 1316.83 L1998.92 1316.83 L1998.92 1332.36 Q1998.92 1336.04 2000.36 1337.89 Q2001.79 1339.72 2004.66 1339.72 Q2008.11 1339.72 2010.1 1337.52 Q2012.12 1335.32 2012.12 1331.53 L2012.12 1316.83 L2016.38 1316.83 L2016.38 1342.76 L2012.12 1342.76 L2012.12 1338.77 Q2010.57 1341.13 2008.51 1342.29 Q2006.47 1343.43 2003.76 1343.43 Q1999.29 1343.43 1996.98 1340.65 Q1994.66 1337.87 1994.66 1332.52 M2005.38 1316.2 L2005.38 1316.2 Z" fill="#000000" fill-rule="nonzero" fill-opacity="1" /><path clip-path="url(#clip860)" d="M2043.76 1329.82 Q2043.76 1325.12 2041.82 1322.45 Q2039.89 1319.77 2036.51 1319.77 Q2033.14 1319.77 2031.19 1322.45 Q2029.27 1325.12 2029.27 1329.82 Q2029.27 1334.51 2031.19 1337.2 Q2033.14 1339.86 2036.51 1339.86 Q2039.89 1339.86 2041.82 1337.2 Q2043.76 1334.51 2043.76 1329.82 M2029.27 1320.76 Q2030.61 1318.45 2032.65 1317.34 Q2034.71 1316.2 2037.56 1316.2 Q2042.28 1316.2 2045.22 1319.95 Q2048.18 1323.7 2048.18 1329.82 Q2048.18 1335.93 2045.22 1339.68 Q2042.28 1343.43 2037.56 1343.43 Q2034.71 1343.43 2032.65 1342.32 Q2030.61 1341.18 2029.27 1338.87 L2029.27 1342.76 L2024.99 1342.76 L2024.99 1306.74 L2029.27 1306.74 L2029.27 1320.76 Z" fill="#000000" fill-rule="nonzero" fill-opacity="1" /><path clip-path="url(#clip860)" d="M2071.77 1317.59 L2071.77 1321.62 Q2069.96 1320.7 2068.02 1320.23 Q2066.08 1319.77 2063.99 1319.77 Q2060.82 1319.77 2059.22 1320.74 Q2057.65 1321.71 2057.65 1323.66 Q2057.65 1325.14 2058.78 1326 Q2059.92 1326.83 2063.34 1327.59 L2064.8 1327.92 Q2069.34 1328.89 2071.24 1330.67 Q2073.16 1332.43 2073.16 1335.6 Q2073.16 1339.21 2070.29 1341.32 Q2067.44 1343.43 2062.44 1343.43 Q2060.36 1343.43 2058.09 1343.01 Q2055.84 1342.62 2053.34 1341.81 L2053.34 1337.41 Q2055.7 1338.63 2058 1339.26 Q2060.29 1339.86 2062.53 1339.86 Q2065.54 1339.86 2067.16 1338.84 Q2068.78 1337.8 2068.78 1335.93 Q2068.78 1334.19 2067.6 1333.26 Q2066.45 1332.34 2062.49 1331.48 L2061.01 1331.14 Q2057.05 1330.3 2055.29 1328.59 Q2053.53 1326.85 2053.53 1323.84 Q2053.53 1320.19 2056.12 1318.2 Q2058.71 1316.2 2063.48 1316.2 Q2065.84 1316.2 2067.93 1316.55 Q2070.01 1316.9 2071.77 1317.59 Z" fill="#000000" fill-rule="nonzero" fill-opacity="1" /><path clip-path="url(#clip860)" d="M2091.72 1329.72 Q2086.56 1329.72 2084.57 1330.9 Q2082.58 1332.08 2082.58 1334.93 Q2082.58 1337.2 2084.06 1338.54 Q2085.57 1339.86 2088.14 1339.86 Q2091.68 1339.86 2093.81 1337.36 Q2095.96 1334.84 2095.96 1330.67 L2095.96 1329.72 L2091.72 1329.72 M2100.22 1327.96 L2100.22 1342.76 L2095.96 1342.76 L2095.96 1338.82 Q2094.5 1341.18 2092.32 1342.32 Q2090.15 1343.43 2087 1343.43 Q2083.02 1343.43 2080.66 1341.2 Q2078.32 1338.96 2078.32 1335.21 Q2078.32 1330.83 2081.24 1328.61 Q2084.18 1326.39 2089.99 1326.39 L2095.96 1326.39 L2095.96 1325.97 Q2095.96 1323.03 2094.01 1321.44 Q2092.09 1319.82 2088.6 1319.82 Q2086.38 1319.82 2084.27 1320.35 Q2082.16 1320.88 2080.22 1321.95 L2080.22 1318.01 Q2082.56 1317.11 2084.76 1316.67 Q2086.95 1316.2 2089.04 1316.2 Q2094.66 1316.2 2097.44 1319.12 Q2100.22 1322.04 2100.22 1327.96 Z" fill="#000000" fill-rule="nonzero" fill-opacity="1" /><path clip-path="url(#clip860)" d="M2129.18 1321.81 Q2130.77 1318.94 2133 1317.57 Q2135.22 1316.2 2138.23 1316.2 Q2142.28 1316.2 2144.48 1319.05 Q2146.68 1321.88 2146.68 1327.11 L2146.68 1342.76 L2142.39 1342.76 L2142.39 1327.25 Q2142.39 1323.52 2141.07 1321.71 Q2139.76 1319.91 2137.05 1319.91 Q2133.74 1319.91 2131.82 1322.11 Q2129.89 1324.31 2129.89 1328.1 L2129.89 1342.76 L2125.61 1342.76 L2125.61 1327.25 Q2125.61 1323.5 2124.29 1321.71 Q2122.97 1319.91 2120.22 1319.91 Q2116.95 1319.91 2115.03 1322.13 Q2113.11 1324.33 2113.11 1328.1 L2113.11 1342.76 L2108.83 1342.76 L2108.83 1316.83 L2113.11 1316.83 L2113.11 1320.86 Q2114.57 1318.47 2116.61 1317.34 Q2118.64 1316.2 2121.45 1316.2 Q2124.27 1316.2 2126.24 1317.64 Q2128.23 1319.07 2129.18 1321.81 Z" fill="#000000" fill-rule="nonzero" fill-opacity="1" /><path clip-path="url(#clip860)" d="M2159.29 1338.87 L2159.29 1352.62 L2155.01 1352.62 L2155.01 1316.83 L2159.29 1316.83 L2159.29 1320.76 Q2160.63 1318.45 2162.67 1317.34 Q2164.73 1316.2 2167.58 1316.2 Q2172.3 1316.2 2175.24 1319.95 Q2178.2 1323.7 2178.2 1329.82 Q2178.2 1335.93 2175.24 1339.68 Q2172.3 1343.43 2167.58 1343.43 Q2164.73 1343.43 2162.67 1342.32 Q2160.63 1341.18 2159.29 1338.87 M2173.78 1329.82 Q2173.78 1325.12 2171.84 1322.45 Q2169.92 1319.77 2166.54 1319.77 Q2163.16 1319.77 2161.21 1322.45 Q2159.29 1325.12 2159.29 1329.82 Q2159.29 1334.51 2161.21 1337.2 Q2163.16 1339.86 2166.54 1339.86 Q2169.92 1339.86 2171.84 1337.2 Q2173.78 1334.51 2173.78 1329.82 Z" fill="#000000" fill-rule="nonzero" fill-opacity="1" /><path clip-path="url(#clip860)" d="M2185.26 1306.74 L2189.52 1306.74 L2189.52 1342.76 L2185.26 1342.76 L2185.26 1306.74 Z" fill="#000000" fill-rule="nonzero" fill-opacity="1" /><path clip-path="url(#clip860)" d="M2198.44 1316.83 L2202.69 1316.83 L2202.69 1342.76 L2198.44 1342.76 L2198.44 1316.83 M2198.44 1306.74 L2202.69 1306.74 L2202.69 1312.13 L2198.44 1312.13 L2198.44 1306.74 Z" fill="#000000" fill-rule="nonzero" fill-opacity="1" /><path clip-path="url(#clip860)" d="M2233.16 1327.11 L2233.16 1342.76 L2228.9 1342.76 L2228.9 1327.25 Q2228.9 1323.57 2227.46 1321.74 Q2226.03 1319.91 2223.16 1319.91 Q2219.71 1319.91 2217.72 1322.11 Q2215.73 1324.31 2215.73 1328.1 L2215.73 1342.76 L2211.44 1342.76 L2211.44 1316.83 L2215.73 1316.83 L2215.73 1320.86 Q2217.25 1318.52 2219.31 1317.36 Q2221.4 1316.2 2224.11 1316.2 Q2228.57 1316.2 2230.87 1318.98 Q2233.16 1321.74 2233.16 1327.11 Z" fill="#000000" fill-rule="nonzero" fill-opacity="1" /><path clip-path="url(#clip860)" d="M2258.71 1329.49 Q2258.71 1324.86 2256.79 1322.32 Q2254.89 1319.77 2251.44 1319.77 Q2248.02 1319.77 2246.1 1322.32 Q2244.2 1324.86 2244.2 1329.49 Q2244.2 1334.1 2246.1 1336.64 Q2248.02 1339.19 2251.44 1339.19 Q2254.89 1339.19 2256.79 1336.64 Q2258.71 1334.1 2258.71 1329.49 M2262.97 1339.54 Q2262.97 1346.16 2260.03 1349.38 Q2257.09 1352.62 2251.03 1352.62 Q2248.78 1352.62 2246.79 1352.27 Q2244.8 1351.95 2242.93 1351.25 L2242.93 1347.11 Q2244.8 1348.13 2246.63 1348.61 Q2248.46 1349.1 2250.36 1349.1 Q2254.55 1349.1 2256.63 1346.9 Q2258.71 1344.72 2258.71 1340.3 L2258.71 1338.2 Q2257.39 1340.49 2255.33 1341.62 Q2253.27 1342.76 2250.4 1342.76 Q2245.63 1342.76 2242.72 1339.12 Q2239.8 1335.49 2239.8 1329.49 Q2239.8 1323.47 2242.72 1319.84 Q2245.63 1316.2 2250.4 1316.2 Q2253.27 1316.2 2255.33 1317.34 Q2257.39 1318.47 2258.71 1320.76 L2258.71 1316.83 L2262.97 1316.83 L2262.97 1339.54 Z" fill="#000000" fill-rule="nonzero" fill-opacity="1" /></svg>
