<?xml version="1.0" encoding="utf-8"?>
<svg xmlns="http://www.w3.org/2000/svg" xmlns:xlink="http://www.w3.org/1999/xlink" width="600" height="400" viewBox="0 0 2400 1600">
<defs>
  <clipPath id="clip470">
    <rect x="0" y="0" width="2400" height="1600"/>
  </clipPath>
</defs>
<path clip-path="url(#clip470)" d="M0 1600 L2400 1600 L2400 0 L0 0  Z" fill="#ffffff" fill-rule="evenodd" fill-opacity="1"/>
<defs>
  <clipPath id="clip471">
    <rect x="242" y="47" width="2112" height="1377"/>
  </clipPath>
</defs>
<path clip-path="url(#clip470)" d="M251.372 1423.18 L2352.76 1423.18 L2352.76 47.2441 L251.372 47.2441  Z" fill="#ffffff" fill-rule="evenodd" fill-opacity="1"/>
<defs>
  <clipPath id="clip472">
    <rect x="251" y="47" width="2102" height="1377"/>
  </clipPath>
</defs>
<polyline clip-path="url(#clip472)" style="stroke:#000000; stroke-linecap:round; stroke-linejoin:round; stroke-width:2; stroke-opacity:0.1; fill:none" points="308.861,1423.18 308.861,47.2441 "/>
<polyline clip-path="url(#clip472)" style="stroke:#000000; stroke-linecap:round; stroke-linejoin:round; stroke-width:2; stroke-opacity:0.1; fill:none" points="804.966,1423.18 804.966,47.2441 "/>
<polyline clip-path="url(#clip472)" style="stroke:#000000; stroke-linecap:round; stroke-linejoin:round; stroke-width:2; stroke-opacity:0.1; fill:none" points="1301.07,1423.18 1301.07,47.2441 "/>
<polyline clip-path="url(#clip472)" style="stroke:#000000; stroke-linecap:round; stroke-linejoin:round; stroke-width:2; stroke-opacity:0.1; fill:none" points="1797.18,1423.18 1797.18,47.2441 "/>
<polyline clip-path="url(#clip472)" style="stroke:#000000; stroke-linecap:round; stroke-linejoin:round; stroke-width:2; stroke-opacity:0.1; fill:none" points="2293.28,1423.18 2293.28,47.2441 "/>
<polyline clip-path="url(#clip472)" style="stroke:#000000; stroke-linecap:round; stroke-linejoin:round; stroke-width:2; stroke-opacity:0.1; fill:none" points="251.372,1051.03 2352.76,1051.03 "/>
<polyline clip-path="url(#clip472)" style="stroke:#000000; stroke-linecap:round; stroke-linejoin:round; stroke-width:2; stroke-opacity:0.1; fill:none" points="251.372,514.665 2352.76,514.665 "/>
<polyline clip-path="url(#clip470)" style="stroke:#000000; stroke-linecap:round; stroke-linejoin:round; stroke-width:4; stroke-opacity:1; fill:none" points="251.372,1423.18 2352.76,1423.18 "/>
<polyline clip-path="url(#clip470)" style="stroke:#000000; stroke-linecap:round; stroke-linejoin:round; stroke-width:4; stroke-opacity:1; fill:none" points="308.861,1423.18 308.861,1404.28 "/>
<polyline clip-path="url(#clip470)" style="stroke:#000000; stroke-linecap:round; stroke-linejoin:round; stroke-width:4; stroke-opacity:1; fill:none" points="804.966,1423.18 804.966,1404.28 "/>
<polyline clip-path="url(#clip470)" style="stroke:#000000; stroke-linecap:round; stroke-linejoin:round; stroke-width:4; stroke-opacity:1; fill:none" points="1301.07,1423.18 1301.07,1404.28 "/>
<polyline clip-path="url(#clip470)" style="stroke:#000000; stroke-linecap:round; stroke-linejoin:round; stroke-width:4; stroke-opacity:1; fill:none" points="1797.18,1423.18 1797.18,1404.28 "/>
<polyline clip-path="url(#clip470)" style="stroke:#000000; stroke-linecap:round; stroke-linejoin:round; stroke-width:4; stroke-opacity:1; fill:none" points="2293.28,1423.18 2293.28,1404.28 "/>
<path clip-path="url(#clip470)" d="M308.861 1454.1 Q305.25 1454.1 303.421 1457.66 Q301.616 1461.2 301.616 1468.33 Q301.616 1475.44 303.421 1479.01 Q305.25 1482.55 308.861 1482.55 Q312.495 1482.55 314.301 1479.01 Q316.129 1475.44 316.129 1468.33 Q316.129 1461.2 314.301 1457.66 Q312.495 1454.1 308.861 1454.1 M308.861 1450.39 Q314.671 1450.39 317.727 1455 Q320.805 1459.58 320.805 1468.33 Q320.805 1477.06 317.727 1481.67 Q314.671 1486.25 308.861 1486.25 Q303.051 1486.25 299.972 1481.67 Q296.916 1477.06 296.916 1468.33 Q296.916 1459.58 299.972 1455 Q303.051 1450.39 308.861 1450.39 Z" fill="#000000" fill-rule="nonzero" fill-opacity="1" /><path clip-path="url(#clip470)" d="M768.659 1481.64 L784.978 1481.64 L784.978 1485.58 L763.034 1485.58 L763.034 1481.64 Q765.696 1478.89 770.279 1474.26 Q774.885 1469.61 776.066 1468.27 Q778.311 1465.74 779.191 1464.01 Q780.094 1462.25 780.094 1460.56 Q780.094 1457.8 778.149 1456.07 Q776.228 1454.33 773.126 1454.33 Q770.927 1454.33 768.473 1455.09 Q766.043 1455.86 763.265 1457.41 L763.265 1452.69 Q766.089 1451.55 768.543 1450.97 Q770.997 1450.39 773.034 1450.39 Q778.404 1450.39 781.598 1453.08 Q784.793 1455.77 784.793 1460.26 Q784.793 1462.39 783.983 1464.31 Q783.196 1466.2 781.089 1468.8 Q780.51 1469.47 777.409 1472.69 Q774.307 1475.88 768.659 1481.64 Z" fill="#000000" fill-rule="nonzero" fill-opacity="1" /><path clip-path="url(#clip470)" d="M794.839 1451.02 L813.195 1451.02 L813.195 1454.96 L799.121 1454.96 L799.121 1463.43 Q800.14 1463.08 801.159 1462.92 Q802.177 1462.73 803.196 1462.73 Q808.983 1462.73 812.362 1465.9 Q815.742 1469.08 815.742 1474.49 Q815.742 1480.07 812.27 1483.17 Q808.797 1486.25 802.478 1486.25 Q800.302 1486.25 798.034 1485.88 Q795.788 1485.51 793.381 1484.77 L793.381 1480.07 Q795.464 1481.2 797.686 1481.76 Q799.909 1482.32 802.385 1482.32 Q806.39 1482.32 808.728 1480.21 Q811.066 1478.1 811.066 1474.49 Q811.066 1470.88 808.728 1468.77 Q806.39 1466.67 802.385 1466.67 Q800.51 1466.67 798.635 1467.08 Q796.784 1467.5 794.839 1468.38 L794.839 1451.02 Z" fill="#000000" fill-rule="nonzero" fill-opacity="1" /><path clip-path="url(#clip470)" d="M834.955 1454.1 Q831.344 1454.1 829.515 1457.66 Q827.709 1461.2 827.709 1468.33 Q827.709 1475.44 829.515 1479.01 Q831.344 1482.55 834.955 1482.55 Q838.589 1482.55 840.394 1479.01 Q842.223 1475.44 842.223 1468.33 Q842.223 1461.2 840.394 1457.66 Q838.589 1454.1 834.955 1454.1 M834.955 1450.39 Q840.765 1450.39 843.82 1455 Q846.899 1459.58 846.899 1468.33 Q846.899 1477.06 843.82 1481.67 Q840.765 1486.25 834.955 1486.25 Q829.144 1486.25 826.066 1481.67 Q823.01 1477.06 823.01 1468.33 Q823.01 1459.58 826.066 1455 Q829.144 1450.39 834.955 1450.39 Z" fill="#000000" fill-rule="nonzero" fill-opacity="1" /><path clip-path="url(#clip470)" d="M1260.69 1451.02 L1279.05 1451.02 L1279.05 1454.96 L1264.97 1454.96 L1264.97 1463.43 Q1265.99 1463.08 1267.01 1462.92 Q1268.03 1462.73 1269.05 1462.73 Q1274.83 1462.73 1278.21 1465.9 Q1281.59 1469.08 1281.59 1474.49 Q1281.59 1480.07 1278.12 1483.17 Q1274.65 1486.25 1268.33 1486.25 Q1266.15 1486.25 1263.88 1485.88 Q1261.64 1485.51 1259.23 1484.77 L1259.23 1480.07 Q1261.32 1481.2 1263.54 1481.76 Q1265.76 1482.32 1268.24 1482.32 Q1272.24 1482.32 1274.58 1480.21 Q1276.92 1478.1 1276.92 1474.49 Q1276.92 1470.88 1274.58 1468.77 Q1272.24 1466.67 1268.24 1466.67 Q1266.36 1466.67 1264.49 1467.08 Q1262.63 1467.5 1260.69 1468.38 L1260.69 1451.02 Z" fill="#000000" fill-rule="nonzero" fill-opacity="1" /><path clip-path="url(#clip470)" d="M1300.81 1454.1 Q1297.19 1454.1 1295.37 1457.66 Q1293.56 1461.2 1293.56 1468.33 Q1293.56 1475.44 1295.37 1479.01 Q1297.19 1482.55 1300.81 1482.55 Q1304.44 1482.55 1306.25 1479.01 Q1308.07 1475.44 1308.07 1468.33 Q1308.07 1461.2 1306.25 1457.66 Q1304.44 1454.1 1300.81 1454.1 M1300.81 1450.39 Q1306.62 1450.39 1309.67 1455 Q1312.75 1459.58 1312.75 1468.33 Q1312.75 1477.06 1309.67 1481.67 Q1306.62 1486.25 1300.81 1486.25 Q1295 1486.25 1291.92 1481.67 Q1288.86 1477.06 1288.86 1468.33 Q1288.86 1459.58 1291.92 1455 Q1295 1450.39 1300.81 1450.39 Z" fill="#000000" fill-rule="nonzero" fill-opacity="1" /><path clip-path="url(#clip470)" d="M1330.97 1454.1 Q1327.36 1454.1 1325.53 1457.66 Q1323.72 1461.2 1323.72 1468.33 Q1323.72 1475.44 1325.53 1479.01 Q1327.36 1482.55 1330.97 1482.55 Q1334.6 1482.55 1336.41 1479.01 Q1338.24 1475.44 1338.24 1468.33 Q1338.24 1461.2 1336.41 1457.66 Q1334.6 1454.1 1330.97 1454.1 M1330.97 1450.39 Q1336.78 1450.39 1339.83 1455 Q1342.91 1459.58 1342.91 1468.33 Q1342.91 1477.06 1339.83 1481.67 Q1336.78 1486.25 1330.97 1486.25 Q1325.16 1486.25 1322.08 1481.67 Q1319.02 1477.06 1319.02 1468.33 Q1319.02 1459.58 1322.08 1455 Q1325.16 1450.39 1330.97 1450.39 Z" fill="#000000" fill-rule="nonzero" fill-opacity="1" /><path clip-path="url(#clip470)" d="M1755.45 1451.02 L1777.68 1451.02 L1777.68 1453.01 L1765.13 1485.58 L1760.24 1485.58 L1772.05 1454.96 L1755.45 1454.96 L1755.45 1451.02 Z" fill="#000000" fill-rule="nonzero" fill-opacity="1" /><path clip-path="url(#clip470)" d="M1786.84 1451.02 L1805.2 1451.02 L1805.2 1454.96 L1791.12 1454.96 L1791.12 1463.43 Q1792.14 1463.08 1793.16 1462.92 Q1794.18 1462.73 1795.2 1462.73 Q1800.99 1462.73 1804.36 1465.9 Q1807.74 1469.08 1807.74 1474.49 Q1807.74 1480.07 1804.27 1483.17 Q1800.8 1486.25 1794.48 1486.25 Q1792.3 1486.25 1790.04 1485.88 Q1787.79 1485.51 1785.38 1484.77 L1785.38 1480.07 Q1787.47 1481.2 1789.69 1481.76 Q1791.91 1482.32 1794.39 1482.32 Q1798.39 1482.32 1800.73 1480.21 Q1803.07 1478.1 1803.07 1474.49 Q1803.07 1470.88 1800.73 1468.77 Q1798.39 1466.67 1794.39 1466.67 Q1792.51 1466.67 1790.64 1467.08 Q1788.79 1467.5 1786.84 1468.38 L1786.84 1451.02 Z" fill="#000000" fill-rule="nonzero" fill-opacity="1" /><path clip-path="url(#clip470)" d="M1826.96 1454.1 Q1823.35 1454.1 1821.52 1457.66 Q1819.71 1461.2 1819.71 1468.33 Q1819.71 1475.44 1821.52 1479.01 Q1823.35 1482.55 1826.96 1482.55 Q1830.59 1482.55 1832.4 1479.01 Q1834.23 1475.44 1834.23 1468.33 Q1834.23 1461.2 1832.4 1457.66 Q1830.59 1454.1 1826.96 1454.1 M1826.96 1450.39 Q1832.77 1450.39 1835.82 1455 Q1838.9 1459.58 1838.9 1468.33 Q1838.9 1477.06 1835.82 1481.67 Q1832.77 1486.25 1826.96 1486.25 Q1821.15 1486.25 1818.07 1481.67 Q1815.01 1477.06 1815.01 1468.33 Q1815.01 1459.58 1818.07 1455 Q1821.15 1450.39 1826.96 1450.39 Z" fill="#000000" fill-rule="nonzero" fill-opacity="1" /><path clip-path="url(#clip470)" d="M2237.81 1481.64 L2245.45 1481.64 L2245.45 1455.28 L2237.14 1456.95 L2237.14 1452.69 L2245.4 1451.02 L2250.08 1451.02 L2250.08 1481.64 L2257.72 1481.64 L2257.72 1485.58 L2237.81 1485.58 L2237.81 1481.64 Z" fill="#000000" fill-rule="nonzero" fill-opacity="1" /><path clip-path="url(#clip470)" d="M2277.16 1454.1 Q2273.55 1454.1 2271.72 1457.66 Q2269.91 1461.2 2269.91 1468.33 Q2269.91 1475.44 2271.72 1479.01 Q2273.55 1482.55 2277.16 1482.55 Q2280.79 1482.55 2282.6 1479.01 Q2284.43 1475.44 2284.43 1468.33 Q2284.43 1461.2 2282.6 1457.66 Q2280.79 1454.1 2277.16 1454.1 M2277.16 1450.39 Q2282.97 1450.39 2286.03 1455 Q2289.1 1459.58 2289.1 1468.33 Q2289.1 1477.06 2286.03 1481.67 Q2282.97 1486.25 2277.16 1486.25 Q2271.35 1486.25 2268.27 1481.67 Q2265.22 1477.06 2265.22 1468.33 Q2265.22 1459.58 2268.27 1455 Q2271.35 1450.39 2277.16 1450.39 Z" fill="#000000" fill-rule="nonzero" fill-opacity="1" /><path clip-path="url(#clip470)" d="M2307.32 1454.1 Q2303.71 1454.1 2301.88 1457.66 Q2300.08 1461.2 2300.08 1468.33 Q2300.08 1475.44 2301.88 1479.01 Q2303.71 1482.55 2307.32 1482.55 Q2310.96 1482.55 2312.76 1479.01 Q2314.59 1475.44 2314.59 1468.33 Q2314.59 1461.2 2312.76 1457.66 Q2310.96 1454.1 2307.32 1454.1 M2307.32 1450.39 Q2313.13 1450.39 2316.19 1455 Q2319.27 1459.58 2319.27 1468.33 Q2319.27 1477.06 2316.19 1481.67 Q2313.13 1486.25 2307.32 1486.25 Q2301.51 1486.25 2298.43 1481.67 Q2295.38 1477.06 2295.38 1468.33 Q2295.38 1459.58 2298.43 1455 Q2301.51 1450.39 2307.32 1450.39 Z" fill="#000000" fill-rule="nonzero" fill-opacity="1" /><path clip-path="url(#clip470)" d="M2337.48 1454.1 Q2333.87 1454.1 2332.04 1457.66 Q2330.24 1461.2 2330.24 1468.33 Q2330.24 1475.44 2332.04 1479.01 Q2333.87 1482.55 2337.48 1482.55 Q2341.12 1482.55 2342.92 1479.01 Q2344.75 1475.44 2344.75 1468.33 Q2344.75 1461.2 2342.92 1457.66 Q2341.12 1454.1 2337.48 1454.1 M2337.48 1450.39 Q2343.29 1450.39 2346.35 1455 Q2349.43 1459.58 2349.43 1468.33 Q2349.43 1477.06 2346.35 1481.67 Q2343.29 1486.25 2337.48 1486.25 Q2331.67 1486.25 2328.6 1481.67 Q2325.54 1477.06 2325.54 1468.33 Q2325.54 1459.58 2328.6 1455 Q2331.67 1450.39 2337.48 1450.39 Z" fill="#000000" fill-rule="nonzero" fill-opacity="1" /><path clip-path="url(#clip470)" d="M1169.78 1520.52 L1176.21 1520.52 L1176.21 1568.04 L1169.78 1568.04 L1169.78 1520.52 Z" fill="#000000" fill-rule="nonzero" fill-opacity="1" /><path clip-path="url(#clip470)" d="M1194.55 1522.27 L1194.55 1532.4 L1206.61 1532.4 L1206.61 1536.95 L1194.55 1536.95 L1194.55 1556.3 Q1194.55 1560.66 1195.72 1561.9 Q1196.93 1563.14 1200.59 1563.14 L1206.61 1563.14 L1206.61 1568.04 L1200.59 1568.04 Q1193.82 1568.04 1191.24 1565.53 Q1188.66 1562.98 1188.66 1556.3 L1188.66 1536.95 L1184.36 1536.95 L1184.36 1532.4 L1188.66 1532.4 L1188.66 1522.27 L1194.55 1522.27 Z" fill="#000000" fill-rule="nonzero" fill-opacity="1" /><path clip-path="url(#clip470)" d="M1244.8 1548.76 L1244.8 1551.62 L1217.88 1551.62 Q1218.26 1557.67 1221.51 1560.85 Q1224.78 1564 1230.61 1564 Q1233.98 1564 1237.13 1563.17 Q1240.32 1562.35 1243.44 1560.69 L1243.44 1566.23 Q1240.28 1567.57 1236.97 1568.27 Q1233.66 1568.97 1230.26 1568.97 Q1221.73 1568.97 1216.73 1564 Q1211.77 1559.04 1211.77 1550.57 Q1211.77 1541.82 1216.48 1536.69 Q1221.22 1531.54 1229.24 1531.54 Q1236.43 1531.54 1240.6 1536.18 Q1244.8 1540.8 1244.8 1548.76 M1238.95 1547.04 Q1238.88 1542.23 1236.24 1539.37 Q1233.63 1536.5 1229.3 1536.5 Q1224.4 1536.5 1221.44 1539.27 Q1218.51 1542.04 1218.07 1547.07 L1238.95 1547.04 Z" fill="#000000" fill-rule="nonzero" fill-opacity="1" /><path clip-path="url(#clip470)" d="M1275.07 1537.87 Q1274.09 1537.3 1272.91 1537.04 Q1271.76 1536.76 1270.36 1536.76 Q1265.4 1536.76 1262.72 1540 Q1260.08 1543.22 1260.08 1549.27 L1260.08 1568.04 L1254.19 1568.04 L1254.19 1532.4 L1260.08 1532.4 L1260.08 1537.93 Q1261.93 1534.69 1264.89 1533.13 Q1267.85 1531.54 1272.08 1531.54 Q1272.69 1531.54 1273.42 1531.63 Q1274.15 1531.7 1275.04 1531.85 L1275.07 1537.87 Z" fill="#000000" fill-rule="nonzero" fill-opacity="1" /><path clip-path="url(#clip470)" d="M1297.42 1550.12 Q1290.32 1550.12 1287.58 1551.75 Q1284.84 1553.37 1284.84 1557.29 Q1284.84 1560.4 1286.88 1562.25 Q1288.95 1564.07 1292.48 1564.07 Q1297.35 1564.07 1300.28 1560.63 Q1303.24 1557.16 1303.24 1551.43 L1303.24 1550.12 L1297.42 1550.12 M1309.1 1547.71 L1309.1 1568.04 L1303.24 1568.04 L1303.24 1562.63 Q1301.24 1565.88 1298.24 1567.44 Q1295.25 1568.97 1290.92 1568.97 Q1285.45 1568.97 1282.2 1565.91 Q1278.99 1562.82 1278.99 1557.67 Q1278.99 1551.65 1283 1548.6 Q1287.04 1545.54 1295.03 1545.54 L1303.24 1545.54 L1303.24 1544.97 Q1303.24 1540.93 1300.57 1538.73 Q1297.93 1536.5 1293.12 1536.5 Q1290.06 1536.5 1287.17 1537.23 Q1284.27 1537.97 1281.6 1539.43 L1281.6 1534.02 Q1284.81 1532.78 1287.84 1532.17 Q1290.86 1531.54 1293.72 1531.54 Q1301.46 1531.54 1305.28 1535.55 Q1309.1 1539.56 1309.1 1547.71 Z" fill="#000000" fill-rule="nonzero" fill-opacity="1" /><path clip-path="url(#clip470)" d="M1326.95 1522.27 L1326.95 1532.4 L1339.02 1532.4 L1339.02 1536.95 L1326.95 1536.95 L1326.95 1556.3 Q1326.95 1560.66 1328.13 1561.9 Q1329.34 1563.14 1333 1563.14 L1339.02 1563.14 L1339.02 1568.04 L1333 1568.04 Q1326.22 1568.04 1323.64 1565.53 Q1321.07 1562.98 1321.07 1556.3 L1321.07 1536.95 L1316.77 1536.95 L1316.77 1532.4 L1321.07 1532.4 L1321.07 1522.27 L1326.95 1522.27 Z" fill="#000000" fill-rule="nonzero" fill-opacity="1" /><path clip-path="url(#clip470)" d="M1346.72 1532.4 L1352.58 1532.4 L1352.58 1568.04 L1346.72 1568.04 L1346.72 1532.4 M1346.72 1518.52 L1352.58 1518.52 L1352.58 1525.93 L1346.72 1525.93 L1346.72 1518.52 Z" fill="#000000" fill-rule="nonzero" fill-opacity="1" /><path clip-path="url(#clip470)" d="M1378.64 1536.5 Q1373.93 1536.5 1371.2 1540.19 Q1368.46 1543.85 1368.46 1550.25 Q1368.46 1556.65 1371.16 1560.34 Q1373.9 1564 1378.64 1564 Q1383.32 1564 1386.06 1560.31 Q1388.8 1556.62 1388.8 1550.25 Q1388.8 1543.92 1386.06 1540.23 Q1383.32 1536.5 1378.64 1536.5 M1378.64 1531.54 Q1386.28 1531.54 1390.64 1536.5 Q1395 1541.47 1395 1550.25 Q1395 1559 1390.64 1564 Q1386.28 1568.97 1378.64 1568.97 Q1370.97 1568.97 1366.61 1564 Q1362.28 1559 1362.28 1550.25 Q1362.28 1541.47 1366.61 1536.5 Q1370.97 1531.54 1378.64 1531.54 Z" fill="#000000" fill-rule="nonzero" fill-opacity="1" /><path clip-path="url(#clip470)" d="M1434.34 1546.53 L1434.34 1568.04 L1428.49 1568.04 L1428.49 1546.72 Q1428.49 1541.66 1426.51 1539.14 Q1424.54 1536.63 1420.59 1536.63 Q1415.85 1536.63 1413.11 1539.65 Q1410.38 1542.68 1410.38 1547.9 L1410.38 1568.04 L1404.49 1568.04 L1404.49 1532.4 L1410.38 1532.4 L1410.38 1537.93 Q1412.48 1534.72 1415.31 1533.13 Q1418.17 1531.54 1421.9 1531.54 Q1428.04 1531.54 1431.19 1535.36 Q1434.34 1539.14 1434.34 1546.53 Z" fill="#000000" fill-rule="nonzero" fill-opacity="1" /><polyline clip-path="url(#clip470)" style="stroke:#000000; stroke-linecap:round; stroke-linejoin:round; stroke-width:4; stroke-opacity:1; fill:none" points="251.372,1423.18 251.372,47.2441 "/>
<polyline clip-path="url(#clip470)" style="stroke:#000000; stroke-linecap:round; stroke-linejoin:round; stroke-width:4; stroke-opacity:1; fill:none" points="251.372,1051.03 270.27,1051.03 "/>
<polyline clip-path="url(#clip470)" style="stroke:#000000; stroke-linecap:round; stroke-linejoin:round; stroke-width:4; stroke-opacity:1; fill:none" points="251.372,514.665 270.27,514.665 "/>
<path clip-path="url(#clip470)" d="M114.931 1070.82 L122.57 1070.82 L122.57 1044.46 L114.26 1046.12 L114.26 1041.86 L122.524 1040.2 L127.2 1040.2 L127.2 1070.82 L134.839 1070.82 L134.839 1074.76 L114.931 1074.76 L114.931 1070.82 Z" fill="#000000" fill-rule="nonzero" fill-opacity="1" /><path clip-path="url(#clip470)" d="M154.283 1043.28 Q150.672 1043.28 148.843 1046.84 Q147.038 1050.38 147.038 1057.51 Q147.038 1064.62 148.843 1068.18 Q150.672 1071.73 154.283 1071.73 Q157.917 1071.73 159.723 1068.18 Q161.552 1064.62 161.552 1057.51 Q161.552 1050.38 159.723 1046.84 Q157.917 1043.28 154.283 1043.28 M154.283 1039.57 Q160.093 1039.57 163.149 1044.18 Q166.227 1048.76 166.227 1057.51 Q166.227 1066.24 163.149 1070.85 Q160.093 1075.43 154.283 1075.43 Q148.473 1075.43 145.394 1070.85 Q142.339 1066.24 142.339 1057.51 Q142.339 1048.76 145.394 1044.18 Q148.473 1039.57 154.283 1039.57 Z" fill="#000000" fill-rule="nonzero" fill-opacity="1" /><path clip-path="url(#clip470)" d="M166.227 1033.67 L190.339 1033.67 L190.339 1036.87 L166.227 1036.87 L166.227 1033.67 Z" fill="#000000" fill-rule="nonzero" fill-opacity="1" /><path clip-path="url(#clip470)" d="M199.197 1044.15 L205.404 1044.15 L205.404 1022.73 L198.652 1024.08 L198.652 1020.62 L205.366 1019.27 L209.166 1019.27 L209.166 1044.15 L215.372 1044.15 L215.372 1047.35 L199.197 1047.35 L199.197 1044.15 Z" fill="#000000" fill-rule="nonzero" fill-opacity="1" /><path clip-path="url(#clip470)" d="M144.667 534.458 L152.305 534.458 L152.305 508.092 L143.995 509.759 L143.995 505.5 L152.259 503.833 L156.935 503.833 L156.935 534.458 L164.574 534.458 L164.574 538.393 L144.667 538.393 L144.667 534.458 Z" fill="#000000" fill-rule="nonzero" fill-opacity="1" /><path clip-path="url(#clip470)" d="M184.018 506.912 Q180.407 506.912 178.578 510.477 Q176.773 514.018 176.773 521.148 Q176.773 528.254 178.578 531.819 Q180.407 535.361 184.018 535.361 Q187.652 535.361 189.458 531.819 Q191.287 528.254 191.287 521.148 Q191.287 514.018 189.458 510.477 Q187.652 506.912 184.018 506.912 M184.018 503.208 Q189.828 503.208 192.884 507.815 Q195.963 512.398 195.963 521.148 Q195.963 529.875 192.884 534.481 Q189.828 539.064 184.018 539.064 Q178.208 539.064 175.129 534.481 Q172.074 529.875 172.074 521.148 Q172.074 512.398 175.129 507.815 Q178.208 503.208 184.018 503.208 Z" fill="#000000" fill-rule="nonzero" fill-opacity="1" /><path clip-path="url(#clip470)" d="M205.667 485.404 Q202.733 485.404 201.248 488.301 Q199.781 491.178 199.781 496.971 Q199.781 502.745 201.248 505.641 Q202.733 508.519 205.667 508.519 Q208.62 508.519 210.087 505.641 Q211.573 502.745 211.573 496.971 Q211.573 491.178 210.087 488.301 Q208.62 485.404 205.667 485.404 M205.667 482.395 Q210.388 482.395 212.871 486.138 Q215.372 489.862 215.372 496.971 Q215.372 504.061 212.871 507.804 Q210.388 511.528 205.667 511.528 Q200.947 511.528 198.445 507.804 Q195.963 504.061 195.963 496.971 Q195.963 489.862 198.445 486.138 Q200.947 482.395 205.667 482.395 Z" fill="#000000" fill-rule="nonzero" fill-opacity="1" /><path clip-path="url(#clip470)" d="M33.7671 1042.8 L14.479 1042.8 L14.479 1036.95 L64.0042 1036.95 L64.0042 1042.8 L58.657 1042.8 Q61.8398 1044.65 63.3994 1047.48 Q64.9272 1050.28 64.9272 1054.23 Q64.9272 1060.69 59.771 1064.76 Q54.6147 1068.81 46.212 1068.81 Q37.8093 1068.81 32.6531 1064.76 Q27.4968 1060.69 27.4968 1054.23 Q27.4968 1050.28 29.0564 1047.48 Q30.5842 1044.65 33.7671 1042.8 M46.212 1062.76 Q52.6732 1062.76 56.3653 1060.12 Q60.0256 1057.44 60.0256 1052.8 Q60.0256 1048.15 56.3653 1045.48 Q52.6732 1042.8 46.212 1042.8 Q39.7508 1042.8 36.0905 1045.48 Q32.3984 1048.15 32.3984 1052.8 Q32.3984 1057.44 36.0905 1060.12 Q39.7508 1062.76 46.212 1062.76 Z" fill="#000000" fill-rule="nonzero" fill-opacity="1" /><path clip-path="url(#clip470)" d="M28.3562 1024.88 L28.3562 1019.03 L64.0042 1019.03 L64.0042 1024.88 L28.3562 1024.88 M14.479 1024.88 L14.479 1019.03 L21.895 1019.03 L21.895 1024.88 L14.479 1024.88 Z" fill="#000000" fill-rule="nonzero" fill-opacity="1" /><path clip-path="url(#clip470)" d="M29.4065 984.047 L34.9447 984.047 Q33.6716 986.53 33.035 989.204 Q32.3984 991.877 32.3984 994.742 Q32.3984 999.102 33.7352 1001.3 Q35.072 1003.46 37.7456 1003.46 Q39.7826 1003.46 40.9603 1001.9 Q42.1061 1000.34 43.1565 995.633 L43.6021 993.628 Q44.9389 987.389 47.3897 984.779 Q49.8086 982.138 54.1691 982.138 Q59.1344 982.138 62.0308 986.084 Q64.9272 989.999 64.9272 996.874 Q64.9272 999.739 64.3543 1002.86 Q63.8132 1005.95 62.6992 1009.38 L56.6518 1009.38 Q58.3387 1006.14 59.198 1002.99 Q60.0256 999.834 60.0256 996.747 Q60.0256 992.609 58.6251 990.381 Q57.1929 988.153 54.6147 988.153 Q52.2276 988.153 50.9545 989.777 Q49.6813 991.368 48.5037 996.811 L48.0262 998.848 Q46.8804 1004.29 44.5251 1006.71 Q42.138 1009.13 38.0002 1009.13 Q32.9713 1009.13 30.2341 1005.56 Q27.4968 1002 27.4968 995.442 Q27.4968 992.196 27.9743 989.331 Q28.4517 986.466 29.4065 984.047 Z" fill="#000000" fill-rule="nonzero" fill-opacity="1" /><path clip-path="url(#clip470)" d="M18.2347 967.019 L28.3562 967.019 L28.3562 954.956 L32.9077 954.956 L32.9077 967.019 L52.2594 967.019 Q56.6199 967.019 57.8613 965.842 Q59.1026 964.632 59.1026 960.972 L59.1026 954.956 L64.0042 954.956 L64.0042 960.972 Q64.0042 967.751 61.4897 970.329 Q58.9434 972.907 52.2594 972.907 L32.9077 972.907 L32.9077 977.204 L28.3562 977.204 L28.3562 972.907 L18.2347 972.907 L18.2347 967.019 Z" fill="#000000" fill-rule="nonzero" fill-opacity="1" /><path clip-path="url(#clip470)" d="M46.0847 931.053 Q46.0847 938.151 47.7079 940.888 Q49.3312 943.625 53.2461 943.625 Q56.3653 943.625 58.2114 941.588 Q60.0256 939.519 60.0256 935.986 Q60.0256 931.117 56.5881 928.188 Q53.1188 925.228 47.3897 925.228 L46.0847 925.228 L46.0847 931.053 M43.6657 919.372 L64.0042 919.372 L64.0042 925.228 L58.5933 925.228 Q61.8398 927.234 63.3994 930.225 Q64.9272 933.217 64.9272 937.546 Q64.9272 943.02 61.8716 946.267 Q58.7843 949.482 53.6281 949.482 Q47.6125 949.482 44.5569 945.471 Q41.5014 941.429 41.5014 933.44 L41.5014 925.228 L40.9285 925.228 Q36.8862 925.228 34.6901 927.902 Q32.4621 930.544 32.4621 935.35 Q32.4621 938.405 33.1941 941.302 Q33.9262 944.198 35.3903 946.872 L29.9795 946.872 Q28.7381 943.657 28.1334 940.633 Q27.4968 937.61 27.4968 934.745 Q27.4968 927.011 31.5072 923.191 Q35.5176 919.372 43.6657 919.372 Z" fill="#000000" fill-rule="nonzero" fill-opacity="1" /><path clip-path="url(#clip470)" d="M42.4881 877.676 L64.0042 877.676 L64.0042 883.533 L42.679 883.533 Q37.6183 883.533 35.1038 885.506 Q32.5894 887.48 32.5894 891.426 Q32.5894 896.169 35.6131 898.906 Q38.6368 901.643 43.8567 901.643 L64.0042 901.643 L64.0042 907.532 L28.3562 907.532 L28.3562 901.643 L33.8944 901.643 Q30.6797 899.543 29.0883 896.71 Q27.4968 893.845 27.4968 890.121 Q27.4968 883.979 31.3163 880.828 Q35.1038 877.676 42.4881 877.676 Z" fill="#000000" fill-rule="nonzero" fill-opacity="1" /><path clip-path="url(#clip470)" d="M29.7248 840.342 L35.1993 840.342 Q33.8307 842.824 33.1623 845.339 Q32.4621 847.821 32.4621 850.368 Q32.4621 856.065 36.0905 859.216 Q39.6872 862.367 46.212 862.367 Q52.7369 862.367 56.3653 859.216 Q59.9619 856.065 59.9619 850.368 Q59.9619 847.821 59.2935 845.339 Q58.5933 842.824 57.2247 840.342 L62.6355 840.342 Q63.7814 842.792 64.3543 845.434 Q64.9272 848.044 64.9272 851.004 Q64.9272 859.057 59.8664 863.799 Q54.8057 868.542 46.212 868.542 Q37.491 868.542 32.4939 863.767 Q27.4968 858.961 27.4968 850.622 Q27.4968 847.917 28.0697 845.339 Q28.6108 842.761 29.7248 840.342 Z" fill="#000000" fill-rule="nonzero" fill-opacity="1" /><path clip-path="url(#clip470)" d="M44.7161 799.665 L47.5806 799.665 L47.5806 826.592 Q53.6281 826.21 56.8109 822.963 Q59.9619 819.685 59.9619 813.86 Q59.9619 810.486 59.1344 807.335 Q58.3069 804.153 56.6518 801.033 L62.1899 801.033 Q63.5267 804.184 64.227 807.495 Q64.9272 810.805 64.9272 814.21 Q64.9272 822.74 59.9619 827.738 Q54.9967 832.703 46.5303 832.703 Q37.7774 832.703 32.6531 827.992 Q27.4968 823.25 27.4968 815.229 Q27.4968 808.036 32.1438 803.866 Q36.7589 799.665 44.7161 799.665 M42.9973 805.521 Q38.1912 805.585 35.3266 808.227 Q32.4621 810.837 32.4621 815.165 Q32.4621 820.067 35.2312 823.027 Q38.0002 825.955 43.0292 826.401 L42.9973 805.521 Z" fill="#000000" fill-rule="nonzero" fill-opacity="1" /><path clip-path="url(#clip470)" d="M18.2347 763.539 L28.3562 763.539 L28.3562 751.476 L32.9077 751.476 L32.9077 763.539 L52.2594 763.539 Q56.6199 763.539 57.8613 762.362 Q59.1026 761.152 59.1026 757.492 L59.1026 751.476 L64.0042 751.476 L64.0042 757.492 Q64.0042 764.271 61.4897 766.85 Q58.9434 769.428 52.2594 769.428 L32.9077 769.428 L32.9077 773.724 L28.3562 773.724 L28.3562 769.428 L18.2347 769.428 L18.2347 763.539 Z" fill="#000000" fill-rule="nonzero" fill-opacity="1" /><path clip-path="url(#clip470)" d="M32.4621 729.96 Q32.4621 734.671 36.1542 737.408 Q39.8145 740.145 46.212 740.145 Q52.6095 740.145 56.3017 737.44 Q59.9619 734.703 59.9619 729.96 Q59.9619 725.281 56.2698 722.544 Q52.5777 719.807 46.212 719.807 Q39.8781 719.807 36.186 722.544 Q32.4621 725.281 32.4621 729.96 M27.4968 729.96 Q27.4968 722.321 32.4621 717.961 Q37.4273 713.6 46.212 713.6 Q54.9649 713.6 59.9619 717.961 Q64.9272 722.321 64.9272 729.96 Q64.9272 737.631 59.9619 741.991 Q54.9649 746.32 46.212 746.32 Q37.4273 746.32 32.4621 741.991 Q27.4968 737.631 27.4968 729.96 Z" fill="#000000" fill-rule="nonzero" fill-opacity="1" /><path clip-path="url(#clip470)" d="M32.4621 669.359 Q32.4621 674.069 36.1542 676.807 Q39.8145 679.544 46.212 679.544 Q52.6095 679.544 56.3017 676.838 Q59.9619 674.101 59.9619 669.359 Q59.9619 664.68 56.2698 661.943 Q52.5777 659.205 46.212 659.205 Q39.8781 659.205 36.186 661.943 Q32.4621 664.68 32.4621 669.359 M27.4968 669.359 Q27.4968 661.72 32.4621 657.359 Q37.4273 652.999 46.212 652.999 Q54.9649 652.999 59.9619 657.359 Q64.9272 661.72 64.9272 669.359 Q64.9272 677.029 59.9619 681.39 Q54.9649 685.719 46.212 685.719 Q37.4273 685.719 32.4621 681.39 Q27.4968 677.029 27.4968 669.359 Z" fill="#000000" fill-rule="nonzero" fill-opacity="1" /><path clip-path="url(#clip470)" d="M58.657 637.626 L77.5631 637.626 L77.5631 643.514 L28.3562 643.514 L28.3562 637.626 L33.7671 637.626 Q30.5842 635.78 29.0564 632.979 Q27.4968 630.146 27.4968 626.231 Q27.4968 619.738 32.6531 615.696 Q37.8093 611.622 46.212 611.622 Q54.6147 611.622 59.771 615.696 Q64.9272 619.738 64.9272 626.231 Q64.9272 630.146 63.3994 632.979 Q61.8398 635.78 58.657 637.626 M46.212 617.701 Q39.7508 617.701 36.0905 620.375 Q32.3984 623.016 32.3984 627.663 Q32.3984 632.31 36.0905 634.984 Q39.7508 637.626 46.212 637.626 Q52.6732 637.626 56.3653 634.984 Q60.0256 632.31 60.0256 627.663 Q60.0256 623.016 56.3653 620.375 Q52.6732 617.701 46.212 617.701 Z" fill="#000000" fill-rule="nonzero" fill-opacity="1" /><path clip-path="url(#clip470)" d="M18.2347 596.121 L28.3562 596.121 L28.3562 584.058 L32.9077 584.058 L32.9077 596.121 L52.2594 596.121 Q56.6199 596.121 57.8613 594.944 Q59.1026 593.734 59.1026 590.074 L59.1026 584.058 L64.0042 584.058 L64.0042 590.074 Q64.0042 596.853 61.4897 599.431 Q58.9434 602.01 52.2594 602.01 L32.9077 602.01 L32.9077 606.306 L28.3562 606.306 L28.3562 602.01 L18.2347 602.01 L18.2347 596.121 Z" fill="#000000" fill-rule="nonzero" fill-opacity="1" /><path clip-path="url(#clip470)" d="M28.3562 576.356 L28.3562 570.499 L64.0042 570.499 L64.0042 576.356 L28.3562 576.356 M14.479 576.356 L14.479 570.499 L21.895 570.499 L21.895 576.356 L14.479 576.356 Z" fill="#000000" fill-rule="nonzero" fill-opacity="1" /><path clip-path="url(#clip470)" d="M35.1993 530.491 Q31.2526 528.295 29.3747 525.239 Q27.4968 522.184 27.4968 518.046 Q27.4968 512.476 31.4117 509.452 Q35.2948 506.428 42.4881 506.428 L64.0042 506.428 L64.0042 512.317 L42.679 512.317 Q37.5546 512.317 35.072 514.131 Q32.5894 515.945 32.5894 519.669 Q32.5894 524.221 35.6131 526.862 Q38.6368 529.504 43.8567 529.504 L64.0042 529.504 L64.0042 535.392 L42.679 535.392 Q37.5228 535.392 35.072 537.207 Q32.5894 539.021 32.5894 542.808 Q32.5894 547.296 35.6449 549.938 Q38.6686 552.58 43.8567 552.58 L64.0042 552.58 L64.0042 558.468 L28.3562 558.468 L28.3562 552.58 L33.8944 552.58 Q30.616 550.575 29.0564 547.774 Q27.4968 544.973 27.4968 541.122 Q27.4968 537.238 29.4702 534.533 Q31.4436 531.796 35.1993 530.491 Z" fill="#000000" fill-rule="nonzero" fill-opacity="1" /><path clip-path="url(#clip470)" d="M49.9359 495.352 L28.3562 495.352 L28.3562 489.496 L49.7131 489.496 Q54.7739 489.496 57.3202 487.522 Q59.8346 485.549 59.8346 481.602 Q59.8346 476.86 56.8109 474.123 Q53.7872 471.353 48.5673 471.353 L28.3562 471.353 L28.3562 465.497 L64.0042 465.497 L64.0042 471.353 L58.5296 471.353 Q61.7762 473.486 63.3676 476.319 Q64.9272 479.12 64.9272 482.844 Q64.9272 488.986 61.1078 492.169 Q57.2883 495.352 49.9359 495.352 M27.4968 480.616 L27.4968 480.616 Z" fill="#000000" fill-rule="nonzero" fill-opacity="1" /><path clip-path="url(#clip470)" d="M35.1993 425.679 Q31.2526 423.483 29.3747 420.428 Q27.4968 417.372 27.4968 413.235 Q27.4968 407.665 31.4117 404.641 Q35.2948 401.617 42.4881 401.617 L64.0042 401.617 L64.0042 407.505 L42.679 407.505 Q37.5546 407.505 35.072 409.32 Q32.5894 411.134 32.5894 414.858 Q32.5894 419.409 35.6131 422.051 Q38.6368 424.693 43.8567 424.693 L64.0042 424.693 L64.0042 430.581 L42.679 430.581 Q37.5228 430.581 35.072 432.395 Q32.5894 434.21 32.5894 437.997 Q32.5894 442.485 35.6449 445.127 Q38.6686 447.768 43.8567 447.768 L64.0042 447.768 L64.0042 453.657 L28.3562 453.657 L28.3562 447.768 L33.8944 447.768 Q30.616 445.763 29.0564 442.962 Q27.4968 440.161 27.4968 436.31 Q27.4968 432.427 29.4702 429.722 Q31.4436 426.984 35.1993 425.679 Z" fill="#000000" fill-rule="nonzero" fill-opacity="1" /><polyline clip-path="url(#clip472)" style="stroke:#009af9; stroke-linecap:round; stroke-linejoin:round; stroke-width:4; stroke-opacity:1; fill:none" points="310.845,86.1857 312.83,87.3126 314.814,88.4097 316.799,89.4815 318.783,90.5212 320.767,91.5833 322.752,92.6416 324.736,93.6955 326.721,94.73 328.705,95.7638 330.69,96.8118 332.674,97.8689 334.658,98.9337 336.643,100.017 338.627,101.079 340.612,102.148 342.596,103.195 344.58,104.241 346.565,105.293 348.549,106.368 350.534,107.441 352.518,108.51 354.503,109.591 356.487,110.688 358.471,111.812 360.456,112.956 362.44,114.077 364.425,115.212 366.409,116.368 368.394,117.547 370.378,118.699 372.362,119.89 374.347,121.088 376.331,122.318 378.316,123.545 380.3,124.75 382.284,125.971 384.269,127.177 386.253,128.37 388.238,129.561 390.222,130.762 392.207,131.974 394.191,133.153 396.175,134.336 398.16,135.519 400.144,136.69 402.129,137.86 404.113,139.021 406.098,140.182 408.082,141.363 410.066,142.538 412.051,143.705 414.035,144.863 416.02,146.025 418.004,147.145 419.989,148.299 421.973,149.441 423.957,150.591 425.942,151.696 427.926,152.832 429.911,153.996 431.895,155.205 433.879,156.416 435.864,157.633 437.848,158.808 439.833,159.975 441.817,161.139 443.802,162.304 445.786,163.502 447.77,164.72 449.755,165.895 451.739,167.063 453.724,168.259 455.708,169.45 457.693,170.669 459.677,171.839 461.661,172.991 463.646,174.194 465.63,175.431 467.615,176.674 469.599,177.962 471.583,179.171 473.568,180.408 475.552,181.657 477.537,182.922 479.521,184.138 481.506,185.406 483.49,186.656 485.474,187.901 487.459,189.178 489.443,190.534 491.428,191.924 493.412,193.26 495.397,194.626 497.381,196.009 499.365,197.364 501.35,198.718 503.334,200.035 505.319,201.341 507.303,202.681 509.287,204.014 511.272,205.368 513.256,206.784 515.241,208.23 517.225,209.678 519.21,211.123 521.194,212.578 523.178,213.98 525.163,215.374 527.147,216.794 529.132,218.231 531.116,219.651 533.101,221.056 535.085,222.416 537.069,223.79 539.054,225.111 541.038,226.481 543.023,227.897 545.007,229.337 546.992,230.815 548.976,232.368 550.96,233.886 552.945,235.385 554.929,236.834 556.914,238.297 558.898,239.776 560.882,241.176 562.867,242.609 564.851,244.063 566.836,245.508 568.82,246.909 570.805,248.352 572.789,249.81 574.773,251.205 576.758,252.657 578.742,254.111 580.727,255.676 582.711,257.25 584.696,258.813 586.68,260.367 588.664,261.925 590.649,263.437 592.633,264.877 594.618,266.26 596.602,267.672 598.586,269.15 600.571,270.574 602.555,272.045 604.54,273.458 606.524,274.875 608.509,276.346 610.493,277.723 612.477,279.112 614.462,280.523 616.446,282.042 618.431,283.498 620.415,284.955 622.4,286.378 624.384,287.802 626.368,289.262 628.353,290.743 630.337,292.141 632.322,293.608 634.306,295.139 636.29,296.701 638.275,298.238 640.259,299.78 642.244,301.311 644.228,302.844 646.213,304.4 648.197,305.955 650.181,307.428 652.166,308.907 654.15,310.415 656.135,312.013 658.119,313.586 660.104,315.082 662.088,316.592 664.072,318.106 666.057,319.606 668.041,321.187 670.026,322.662 672.01,324.011 673.995,325.461 675.979,326.841 677.963,328.149 679.948,329.501 681.932,330.942 683.917,332.283 685.901,333.679 687.885,335.17 689.87,336.696 691.854,338.277 693.839,339.889 695.823,341.372 697.808,342.769 699.792,344.282 701.776,345.827 703.761,347.298 705.745,348.763 707.73,350.204 709.714,351.668 711.699,353.172 713.683,354.712 715.667,356.288 717.652,357.711 719.636,359.077 721.621,360.545 723.605,361.844 725.589,363.148 727.574,364.441 729.558,365.69 731.543,367.009 733.527,368.424 735.512,369.829 737.496,371.098 739.48,372.502 741.465,373.877 743.449,375.329 745.434,376.84 747.418,378.314 749.403,379.698 751.387,381.089 753.371,382.344 755.356,383.691 757.34,385.056 759.325,386.434 761.309,387.813 763.293,389.218 765.278,390.696 767.262,392.186 769.247,393.734 771.231,395.102 773.216,396.319 775.2,397.659 777.184,398.933 779.169,400.364 781.153,401.895 783.138,403.449 785.122,405.128 787.107,406.924 789.091,408.865 791.075,410.804 793.06,412.677 795.044,414.514 797.029,416.287 799.013,418.056 800.998,419.806 802.982,421.481 804.966,423.248 806.951,424.982 808.935,426.646 810.92,428.408 812.904,430.205 814.888,431.894 816.873,433.493 818.857,435.219 820.842,437.061 822.826,438.903 824.811,440.723 826.795,442.526 828.779,444.515 830.764,446.5 832.748,448.385 834.733,450.274 836.717,452.143 838.702,453.887 840.686,455.353 842.67,456.761 844.655,458.021 846.639,459.193 848.624,460.569 850.608,461.889 852.592,463.425 854.577,465.17 856.561,467.118 858.546,469.181 860.53,471.239 862.515,473.272 864.499,475.086 866.483,477.181 868.468,479.385 870.452,481.677 872.437,483.884 874.421,486.069 876.406,487.923 878.39,489.622 880.374,491.214 882.359,492.823 884.343,494.527 886.328,496.033 888.312,497.547 890.296,499.332 892.281,501.078 894.265,502.702 896.25,504.175 898.234,505.565 900.219,507.12 902.203,508.707 904.187,510.545 906.172,512.341 908.156,513.903 910.141,515.591 912.125,517.432 914.11,519.299 916.094,520.961 918.078,522.393 920.063,524.017 922.047,525.703 924.032,527.482 926.016,529.265 928.001,531.376 929.985,533.579 931.969,535.582 933.954,537.492 935.938,539.523 937.923,541.358 939.907,543.226 941.891,545.429 943.876,547.707 945.86,550.08 947.845,552.107 949.829,554.099 951.814,555.932 953.798,557.459 955.782,559.184 957.767,561.025 959.751,562.794 961.736,564.407 963.72,566.362 965.705,568.394 967.689,570.238 969.673,572.123 971.658,573.771 973.642,575.429 975.627,576.941 977.611,578.841 979.595,580.68 981.58,582.416 983.564,583.762 985.549,585.183 987.533,586.704 989.518,588.204 991.502,589.543 993.486,591.055 995.471,592.151 997.455,593.617 999.44,594.841 1001.42,596.326 1003.41,597.865 1005.39,599.691 1007.38,601.036 1009.36,602.47 1011.35,604.063 1013.33,605.765 1015.32,607.554 1017.3,609.203 1019.28,610.951 1021.27,612.925 1023.25,614.614 1025.24,615.547 1027.22,616.493 1029.21,617.427 1031.19,618.442 1033.17,619.576 1035.16,620.643 1037.14,621.474 1039.13,622.38 1041.11,623.453 1043.1,624.702 1045.08,625.437 1047.07,626.198 1049.05,627.011 1051.03,627.707 1053.02,628.248 1055,628.818 1056.99,629.736 1058.97,631.129 1060.96,632.856 1062.94,634.819 1064.93,636.998 1066.91,638.962 1068.89,640.672 1070.88,641.794 1072.86,642.303 1074.85,642.905 1076.83,643.456 1078.82,644.441 1080.8,645.506 1082.79,646.554 1084.77,648.159 1086.75,649.702 1088.74,651.476 1090.72,652.916 1092.71,654.25 1094.69,656.001 1096.68,657.58 1098.66,658.731 1100.65,659.916 1102.63,661.159 1104.61,662.849 1106.6,663.89 1108.58,664.83 1110.57,665.692 1112.55,667.302 1114.54,668.328 1116.52,669.749 1118.51,671.399 1120.49,672.776 1122.47,674.025 1124.46,675.281 1126.44,676.458 1128.43,677.231 1130.41,678.827 1132.4,680.275 1134.38,681.208 1136.36,681.753 1138.35,681.872 1140.33,681.858 1142.32,681.681 1144.3,681.387 1146.29,681.687 1148.27,681.703 1150.26,682.05 1152.24,682.902 1154.22,683.225 1156.21,683.296 1158.19,683.929 1160.18,684.365 1162.16,684.897 1164.15,685.589 1166.13,686.304 1168.12,686.876 1170.1,686.826 1172.08,686.955 1174.07,687.075 1176.05,687.128 1178.04,687.208 1180.02,687.492 1182.01,688.166 1183.99,689.794 1185.98,690.341 1187.96,690.527 1189.94,691.176 1191.93,691.325 1193.91,691.59 1195.9,691.779 1197.88,692.096 1199.87,691.858 1201.85,692.106 1203.84,692.941 1205.82,693.224 1207.8,693.559 1209.79,693.169 1211.77,692.06 1213.76,691.022 1215.74,690.193 1217.73,689.372 1219.71,689.256 1221.69,688.971 1223.68,688.605 1225.66,688.32 1227.65,688.207 1229.63,688.387 1231.62,688.793 1233.6,688.617 1235.59,688.351 1237.57,687.794 1239.55,688.145 1241.54,690.03 1243.52,691.926 1245.51,693.851 1247.49,695.4 1249.48,696.975 1251.46,698.052 1253.45,699.097 1255.43,699.898 1257.41,701.188 1259.4,701.729 1261.38,702.49 1263.37,703.097 1265.35,703.712 1267.34,704.259 1269.32,704.831 1271.31,705.637 1273.29,706.281 1275.27,706.986 1277.26,707.61 1279.24,708.25 1281.23,709.042 1283.21,710.427 1285.2,711.399 1287.18,712.776 1289.17,714.245 1291.15,715.724 1293.13,716.925 1295.12,717.883 1297.1,718.561 1299.09,718.923 1301.07,720.08 1303.06,721.567 1305.04,723.209 1307.03,724.71 1309.01,726.312 1310.99,727.81 1312.98,729.241 1314.96,730.386 1316.95,730.516 1318.93,730.402 1320.92,730.24 1322.9,730.837 1324.88,732.109 1326.87,733.097 1328.85,734.123 1330.84,735.097 1332.82,736.322 1334.81,737.246 1336.79,737.559 1338.78,738.639 1340.76,740.05 1342.74,741.986 1344.73,744.497 1346.71,746.571 1348.7,747.797 1350.68,748.839 1352.67,749.362 1354.65,749.742 1356.64,749.114 1358.62,749.186 1360.6,749.523 1362.59,750.072 1364.57,750.832 1366.56,751.58 1368.54,752.488 1370.53,753.69 1372.51,754.871 1374.5,756.296 1376.48,758.137 1378.46,760.603 1380.45,763.066 1382.43,765.668 1384.42,768.511 1386.4,771.107 1388.39,774.248 1390.37,777.17 1392.36,780.468 1394.34,784.577 1396.32,788.055 1398.31,791.55 1400.29,793.916 1402.28,797.399 1404.26,799.6 1406.25,800.912 1408.23,802.061 1410.22,804.119 1412.2,806.121 1414.18,808.683 1416.17,810.969 1418.15,812.762 1420.14,813.807 1422.12,814.699 1424.11,816.396 1426.09,817.495 1428.07,817.61 1430.06,818.041 1432.04,818.19 1434.03,818.71 1436.01,818.724 1438,818.958 1439.98,818.256 1441.97,816.193 1443.95,813.72 1445.93,810.672 1447.92,807.71 1449.9,806.842 1451.89,804.862 1453.87,801.937 1455.86,799.183 1457.84,797.681 1459.83,795.963 1461.81,793.095 1463.79,791.083 1465.78,791.919 1467.76,792.359 1469.75,792.746 1471.73,793.739 1473.72,794.578 1475.7,795.778 1477.69,797.079 1479.67,797.67 1481.65,798.177 1483.64,798.369 1485.62,798.21 1487.61,797.561 1489.59,797.072 1491.58,796.699 1493.56,795.785 1495.55,794.782 1497.53,794.228 1499.51,794.215 1501.5,794.624 1503.48,795.494 1505.47,796.344 1507.45,798.635 1509.44,800.491 1511.42,802.495 1513.4,805.283 1515.39,807.936 1517.37,809.043 1519.36,809.703 1521.34,810.818 1523.33,812.649 1525.31,814.849 1527.3,816.303 1529.28,819.431 1531.26,822.885 1533.25,825.532 1535.23,827.829 1537.22,829.753 1539.2,831.474 1541.19,832.851 1543.17,834.879 1545.16,837.088 1547.14,838.591 1549.12,840.869 1551.11,841.883 1553.09,842.418 1555.08,842.536 1557.06,843.162 1559.05,844.405 1561.03,846.047 1563.02,848.16 1565,850.257 1566.98,850.518 1568.97,849.34 1570.95,846.485 1572.94,844.695 1574.92,843.644 1576.91,842.503 1578.89,841.404 1580.88,840.95 1582.86,839.772 1584.84,838.942 1586.83,838.899 1588.81,839.51 1590.8,838.444 1592.78,836.449 1594.77,834.217 1596.75,832.808 1598.74,831.764 1600.72,830.255 1602.7,828.619 1604.69,826.464 1606.67,823.74 1608.66,821.34 1610.64,819.453 1612.63,817.164 1614.61,815.559 1616.59,814.327 1618.58,814.276 1620.56,814.357 1622.55,813.914 1624.53,811.722 1626.52,809.496 1628.5,807.801 1630.49,805.802 1632.47,805.013 1634.45,804.538 1636.44,803.77 1638.42,802.695 1640.41,802.611 1642.39,802.508 1644.38,803.221 1646.36,804.445 1648.35,806.174 1650.33,807.814 1652.31,809.052 1654.3,812.792 1656.28,816.187 1658.27,818.675 1660.25,822.144 1662.24,824.78 1664.22,827.227 1666.21,828.228 1668.19,829.681 1670.17,831.079 1672.16,831.963 1674.14,834.089 1676.13,836.06 1678.11,837.958 1680.1,840.089 1682.08,841.813 1684.07,843.174 1686.05,843.952 1688.03,843.88 1690.02,845.142 1692,845.68 1693.99,845.865 1695.97,848.075 1697.96,848.839 1699.94,849.491 1701.93,849.395 1703.91,849.055 1705.89,848.207 1707.88,847.895 1709.86,848.586 1711.85,849.846 1713.83,850.924 1715.82,850.781 1717.8,850.718 1719.78,851.608 1721.77,851.224 1723.75,850.853 1725.74,852.572 1727.72,855.948 1729.71,858.545 1731.69,860.423 1733.68,861.184 1735.66,862.779 1737.64,866.127 1739.63,868.804 1741.61,870.338 1743.6,871.112 1745.58,872.147 1747.57,872.59 1749.55,872.007 1751.54,872.13 1753.52,873.763 1755.5,875.998 1757.49,878.064 1759.47,880.105 1761.46,880.028 1763.44,879.5 1765.43,878.402 1767.41,877.732 1769.4,876.584 1771.38,873.223 1773.36,869.784 1775.35,865.709 1777.33,862.588 1779.32,861.127 1781.3,860.436 1783.29,860.49 1785.27,860.618 1787.26,861.821 1789.24,863.756 1791.22,866.887 1793.21,870.067 1795.19,872.592 1797.18,874.157 1799.16,876.288 1801.15,877.344 1803.13,877.001 1805.11,874.787 1807.1,872.157 1809.08,869.519 1811.07,866.312 1813.05,862.381 1815.04,858.4 1817.02,856.075 1819.01,853.561 1820.99,851.501 1822.97,850.268 1824.96,850.101 1826.94,850.064 1828.93,849.958 1830.91,849.247 1832.9,848.998 1834.88,849.116 1836.87,849.793 1838.85,849.776 1840.83,849.53 1842.82,848.579 1844.8,847.788 1846.79,848.993 1848.77,849.799 1850.76,851.578 1852.74,851.656 1854.73,852.601 1856.71,853.385 1858.69,853.839 1860.68,853.624 1862.66,853.474 1864.65,854.585 1866.63,854.986 1868.62,853.814 1870.6,852.442 1872.59,850.842 1874.57,849.55 1876.55,847.839 1878.54,845.313 1880.52,842.333 1882.51,840.683 1884.49,839.681 1886.48,839.274 1888.46,838.079 1890.45,837.234 1892.43,836.881 1894.41,836.518 1896.4,836.823 1898.38,836.709 1900.37,836.757 1902.35,836.254 1904.34,835.49 1906.32,833.642 1908.3,831.295 1910.29,828.417 1912.27,824.737 1914.26,821.029 1916.24,817.339 1918.23,813.418 1920.21,811.091 1922.2,809.004 1924.18,806.754 1926.16,805.069 1928.15,805.097 1930.13,804.83 1932.12,804.789 1934.1,805.353 1936.09,805.093 1938.07,804.359 1940.06,803.428 1942.04,802.684 1944.02,803.253 1946.01,803.974 1947.99,804.382 1949.98,804.782 1951.96,804.956 1953.95,805.717 1955.93,806.89 1957.92,806.9 1959.9,806.167 1961.88,807.422 1963.87,808.46 1965.85,808.728 1967.84,809.479 1969.82,809.958 1971.81,810.458 1973.79,811.2 1975.78,811.881 1977.76,811.71 1979.74,811.446 1981.73,811.155 1983.71,809.954 1985.7,808.768 1987.68,809.282 1989.67,809.741 1991.65,809.881 1993.64,809.089 1995.62,808.142 1997.6,807.488 1999.59,806.528 2001.57,806.404 2003.56,808.804 2005.54,811.738 2007.53,813.763 2009.51,816.103 2011.49,817.494 2013.48,819.807 2015.46,822.188 2017.45,825.47 2019.43,828.085 2021.42,830.373 2023.4,833.808 2025.39,836.148 2027.37,837.957 2029.35,839.241 2031.34,839.871 2033.32,840.829 2035.31,839.007 2037.29,836.528 2039.28,833.8 2041.26,831.324 2043.25,828.665 2045.23,825.718 2047.21,823.199 2049.2,820.307 2051.18,818.823 2053.17,818.091 2055.15,817.276 2057.14,814.851 2059.12,817.047 2061.11,818.167 2063.09,819.37 2065.07,820.997 2067.06,822.743 2069.04,824.457 2071.03,826.887 2073.01,828.83 2075,830.628 2076.98,832.514 2078.97,832.117 2080.95,831.915 2082.93,831.208 2084.92,830.447 2086.9,830.852 2088.89,830.947 2090.87,829.184 2092.86,828.604 2094.84,826.199 2096.83,823.963 2098.81,820.829 2100.79,817.36 2102.78,813.922 2104.76,808.719 2106.75,804.991 2108.73,802.028 2110.72,798.398 2112.7,794.804 2114.68,792.208 2116.67,790.541 2118.65,789.033 2120.64,787.406 2122.62,786.523 2124.61,786.594 2126.59,785.999 2128.58,785.693 2130.56,785.882 2132.54,785.435 2134.53,785.238 2136.51,785.775 2138.5,786.691 2140.48,787.24 2142.47,787.938 2144.45,788.449 2146.44,789.456 2148.42,790.466 2150.4,791.345 2152.39,792.602 2154.37,793.836 2156.36,795.14 2158.34,796.55 2160.33,798.074 2162.31,799.793 2164.3,802.014 2166.28,803.724 2168.26,805.853 2170.25,807.651 2172.23,809.997 2174.22,812.295 2176.2,814.143 2178.19,815.2 2180.17,815.442 2182.16,817.783 2184.14,820.535 2186.12,823.036 2188.11,825.664 2190.09,826.478 2192.08,827.058 2194.06,829.024 2196.05,833.284 2198.03,837.008 2200.01,840.023 2202,842.774 2203.98,846.657 2205.97,850.663 2207.95,853.817 2209.94,855.964 2211.92,858.02 2213.91,859.933 2215.89,861.373 2217.87,862.391 2219.86,862.811 2221.84,861.203 2223.83,860.045 2225.81,858.393 2227.8,856.281 2229.78,854.272 2231.77,850.936 2233.75,847.776 2235.73,843.856 2237.72,841.508 2239.7,838.719 2241.69,837.66 2243.67,837.15 2245.66,838.019 2247.64,838.353 2249.63,838.134 2251.61,837.295 2253.59,836.023 2255.58,835.707 2257.56,836.213 2259.55,837.205 2261.53,835.398 2263.52,833.006 2265.5,831.214 2267.49,831.494 2269.47,833.269 2271.45,838.643 2273.44,844.113 2275.42,848.686 2277.41,854.552 2279.39,859.871 2281.38,864.326 2283.36,867.526 2285.35,870.703 2287.33,873.859 2289.31,875.772 2291.3,878.258 2293.28,881.178 "/>
<polyline clip-path="url(#clip472)" style="stroke:#e26f46; stroke-linecap:round; stroke-linejoin:round; stroke-width:4; stroke-opacity:1; fill:none" points="310.845,86.1857 312.83,87.3529 314.814,88.525 316.799,89.7056 318.783,90.8947 320.767,92.0894 322.752,93.2896 324.736,94.4952 326.721,95.7073 328.705,96.9262 330.69,98.1499 332.674,99.3779 334.658,100.609 336.643,101.846 338.627,103.089 340.612,104.338 342.596,105.592 344.58,106.852 346.565,108.115 348.549,109.383 350.534,110.655 352.518,111.93 354.503,113.211 356.487,114.496 358.471,115.784 360.456,117.076 362.44,118.373 364.425,119.677 366.409,120.985 368.394,122.297 370.378,123.613 372.362,124.933 374.347,126.259 376.331,127.588 378.316,128.922 380.3,130.262 382.284,131.606 384.269,132.954 386.253,134.304 388.238,135.659 390.222,137.018 392.207,138.381 394.191,139.747 396.175,141.116 398.16,142.49 400.144,143.868 402.129,145.249 404.113,146.634 406.098,148.024 408.082,149.418 410.066,150.815 412.051,152.215 414.035,153.617 416.02,155.025 418.004,156.439 419.989,157.859 421.973,159.285 423.957,160.715 425.942,162.148 427.926,163.584 429.911,165.025 431.895,166.473 433.879,167.923 435.864,169.377 437.848,170.835 439.833,172.297 441.817,173.758 443.802,175.223 445.786,176.692 447.77,178.165 449.755,179.644 451.739,181.128 453.724,182.618 455.708,184.115 457.693,185.615 459.677,187.118 461.661,188.627 463.646,190.138 465.63,191.653 467.615,193.172 469.599,194.694 471.583,196.221 473.568,197.753 475.552,199.29 477.537,200.831 479.521,202.376 481.506,203.923 483.49,205.474 485.474,207.031 487.459,208.592 489.443,210.159 491.428,211.733 493.412,213.314 495.397,214.899 497.381,216.488 499.365,218.085 501.35,219.684 503.334,221.293 505.319,222.904 507.303,224.523 509.287,226.144 511.272,227.768 513.256,229.392 515.241,231.02 517.225,232.65 519.21,234.281 521.194,235.914 523.178,237.55 525.163,239.188 527.147,240.83 529.132,242.482 531.116,244.14 533.101,245.802 535.085,247.468 537.069,249.142 539.054,250.82 541.038,252.499 543.023,254.184 545.007,255.876 546.992,257.577 548.976,259.284 550.96,261.001 552.945,262.721 554.929,264.447 556.914,266.18 558.898,267.917 560.882,269.662 562.867,271.415 564.851,273.17 566.836,274.931 568.82,276.699 570.805,278.471 572.789,280.248 574.773,282.026 576.758,283.806 578.742,285.593 580.727,287.386 582.711,289.182 584.696,290.985 586.68,292.79 588.664,294.599 590.649,296.412 592.633,298.229 594.618,300.048 596.602,301.869 598.586,303.694 600.571,305.52 602.555,307.353 604.54,309.19 606.524,311.026 608.509,312.862 610.493,314.709 612.477,316.565 614.462,318.424 616.446,320.289 618.431,322.157 620.415,324.026 622.4,325.899 624.384,327.771 626.368,329.648 628.353,331.534 630.337,333.425 632.322,335.329 634.306,337.237 636.29,339.15 638.275,341.071 640.259,342.99 642.244,344.92 644.228,346.852 646.213,348.791 648.197,350.74 650.181,352.698 652.166,354.665 654.15,356.629 656.135,358.604 658.119,360.582 660.104,362.562 662.088,364.547 664.072,366.537 666.057,368.534 668.041,370.532 670.026,372.54 672.01,374.555 673.995,376.57 675.979,378.592 677.963,380.628 679.948,382.667 681.932,384.712 683.917,386.775 685.901,388.841 687.885,390.908 689.87,392.982 691.854,395.053 693.839,397.124 695.823,399.192 697.808,401.274 699.792,403.363 701.776,405.463 703.761,407.562 705.745,409.67 707.73,411.785 709.714,413.897 711.699,416.015 713.683,418.128 715.667,420.239 717.652,422.364 719.636,424.495 721.621,426.624 723.605,428.755 725.589,430.889 727.574,433.04 729.558,435.2 731.543,437.375 733.527,439.565 735.512,441.757 737.496,443.943 739.48,446.127 741.465,448.308 743.449,450.486 745.434,452.658 747.418,454.842 749.403,457.026 751.387,459.23 753.371,461.443 755.356,463.671 757.34,465.906 759.325,468.144 761.309,470.379 763.293,472.624 765.278,474.881 767.262,477.147 769.247,479.424 771.231,481.713 773.216,483.99 775.2,486.262 777.184,488.523 779.169,490.801 781.153,493.095 783.138,495.399 785.122,497.703 787.107,500.005 789.091,502.316 791.075,504.622 793.06,506.912 795.044,509.203 797.029,511.506 799.013,513.796 800.998,516.102 802.982,518.412 804.966,520.724 806.951,523.09 808.935,525.467 810.92,527.872 812.904,530.269 814.888,532.692 816.873,535.124 818.857,537.575 820.842,540.013 822.826,542.462 824.811,544.923 826.795,547.368 828.779,549.827 830.764,552.267 832.748,554.696 834.733,557.11 836.717,559.52 838.702,561.946 840.686,564.398 842.67,566.856 844.655,569.31 846.639,571.81 848.624,574.287 850.608,576.765 852.592,579.233 854.577,581.688 856.561,584.185 858.546,586.68 860.53,589.187 862.515,591.689 864.499,594.221 866.483,596.733 868.468,599.212 870.452,601.745 872.437,604.281 874.421,606.76 876.406,609.276 878.39,611.758 880.374,614.274 882.359,616.766 884.343,619.266 886.328,621.771 888.312,624.285 890.296,626.788 892.281,629.271 894.265,631.778 896.25,634.304 898.234,636.951 900.219,639.556 902.203,642.168 904.187,644.777 906.172,647.364 908.156,649.988 910.141,652.678 912.125,655.374 914.11,658.102 916.094,660.793 918.078,663.519 920.063,666.187 922.047,668.867 924.032,671.571 926.016,674.271 928.001,676.943 929.985,679.479 931.969,682.081 933.954,684.717 935.938,687.427 937.923,690.089 939.907,692.689 941.891,695.345 943.876,697.986 945.86,700.67 947.845,703.371 949.829,706.08 951.814,708.757 953.798,711.566 955.782,714.34 957.767,717.011 959.751,719.631 961.736,722.357 963.72,725.106 965.705,727.965 967.689,730.844 969.673,733.811 971.658,736.706 973.642,739.566 975.627,742.336 977.611,745.112 979.595,747.943 981.58,750.87 983.564,753.812 985.549,756.726 987.533,759.592 989.518,762.454 991.502,765.285 993.486,768.342 995.471,771.421 997.455,774.175 999.44,777.048 1001.42,780.009 1003.41,782.945 1005.39,785.822 1007.38,788.453 1009.36,791.133 1011.35,793.678 1013.33,795.993 1015.32,798.306 1017.3,801.3 1019.28,804.501 1021.27,807.713 1023.25,811.097 1025.24,814.05 1027.22,816.662 1029.21,819.12 1031.19,821.542 1033.17,824.273 1035.16,826.778 1037.14,829.222 1039.13,831.762 1041.11,834.671 1043.1,837.535 1045.08,840.525 1047.07,843.743 1049.05,846.874 1051.03,849.777 1053.02,852.773 1055,855.873 1056.99,858.945 1058.97,862.152 1060.96,865.826 1062.94,869.387 1064.93,872.475 1066.91,875.315 1068.89,877.57 1070.88,879.962 1072.86,881.453 1074.85,882.635 1076.83,883.156 1078.82,882.867 1080.8,882.207 1082.79,881.208 1084.77,881.296 1086.75,881.428 1088.74,882.482 1090.72,884.723 1092.71,887.94 1094.69,891.262 1096.68,895.045 1098.66,898.312 1100.65,900.585 1102.63,903.339 1104.61,905.581 1106.6,907.515 1108.58,908.63 1110.57,909.825 1112.55,912.985 1114.54,916.632 1116.52,920.341 1118.51,924.019 1120.49,928.285 1122.47,933.013 1124.46,938.202 1126.44,943.281 1128.43,946.939 1130.41,951.32 1132.4,955.496 1134.38,960.195 1136.36,965.505 1138.35,969.946 1140.33,972.389 1142.32,975.088 1144.3,977.022 1146.29,979.297 1148.27,981.495 1150.26,985.299 1152.24,989.779 1154.22,995.09 1156.21,1000.86 1158.19,1005.98 1160.18,1010.1 1162.16,1013.77 1164.15,1016.51 1166.13,1019.68 1168.12,1021.68 1170.1,1022.75 1172.08,1024.44 1174.07,1026.36 1176.05,1029.11 1178.04,1031.44 1180.02,1033.59 1182.01,1035.78 1183.99,1038.03 1185.98,1041.79 1187.96,1044.19 1189.94,1046.59 1191.93,1049.3 1193.91,1052.92 1195.9,1055.14 1197.88,1058.84 1199.87,1062.94 1201.85,1064.5 1203.84,1068.21 1205.82,1072.5 1207.8,1077.07 1209.79,1082.09 1211.77,1085.64 1213.76,1091.47 1215.74,1096.59 1217.73,1101.02 1219.71,1101.89 1221.69,1102.49 1223.68,1099.76 1225.66,1097.43 1227.65,1094.53 1229.63,1091.1 1231.62,1090.02 1233.6,1089.3 1235.59,1085.26 1237.57,1081.18 1239.55,1076.29 1241.54,1072.29 1243.52,1070.33 1245.51,1068.47 1247.49,1069.26 1249.48,1071.27 1251.46,1078.1 1253.45,1086.53 1255.43,1096.21 1257.41,1104.99 1259.4,1114.34 1261.38,1121.62 1263.37,1129.56 1265.35,1132.28 1267.34,1132.51 1269.32,1128.71 1271.31,1122.26 1273.29,1116.38 1275.27,1111.18 1277.26,1109.29 1279.24,1108.24 1281.23,1108.02 1283.21,1107.13 1285.2,1107.67 1287.18,1109.1 1289.17,1110.21 1291.15,1108.68 1293.13,1109.24 1295.12,1112.73 1297.1,1117.07 1299.09,1124.37 1301.07,1127.93 1303.06,1133.97 1305.04,1140 1307.03,1148.3 1309.01,1155.96 1310.99,1166.51 1312.98,1174.33 1314.96,1182.5 1316.95,1187.06 1318.93,1195.84 1320.92,1207.09 1322.9,1215.64 1324.88,1224.62 1326.87,1224.74 1328.85,1228.26 1330.84,1227.79 1332.82,1233.84 1334.81,1235.07 1336.79,1225.95 1338.78,1212.14 1340.76,1203.7 1342.74,1194.86 1344.73,1187.4 1346.71,1179.49 1348.7,1168.9 1350.68,1156.49 1352.67,1145.97 1354.65,1140.55 1356.64,1136.52 1358.62,1135.16 1360.6,1133.19 1362.59,1129.48 1364.57,1125.97 1366.56,1122.71 1368.54,1117.88 1370.53,1117.76 1372.51,1120.68 1374.5,1122.5 1376.48,1123.11 1378.46,1123.98 1380.45,1129.33 1382.43,1127.38 1384.42,1125.55 1386.4,1123.45 1388.39,1128.09 1390.37,1128.77 1392.36,1127.08 1394.34,1126.82 1396.32,1127.43 1398.31,1130.37 1400.29,1133.81 1402.28,1135.89 1404.26,1142.56 1406.25,1151.1 1408.23,1159.66 1410.22,1165.37 1412.2,1168.21 1414.18,1166.84 1416.17,1168.92 1418.15,1164.56 1420.14,1156.9 1422.12,1148.69 1424.11,1145.93 1426.09,1140.66 1428.07,1139.98 1430.06,1143.75 1432.04,1146.91 1434.03,1147.24 1436.01,1147.95 1438,1155.1 1439.98,1164.5 1441.97,1173.24 1443.95,1183.04 1445.93,1189.38 1447.92,1197.71 1449.9,1200.12 1451.89,1205.4 1453.87,1210.73 1455.86,1214.16 1457.84,1217.28 1459.83,1222.58 1461.81,1225.34 1463.79,1225.17 1465.78,1225.9 1467.76,1227.73 1469.75,1226.82 1471.73,1223.89 1473.72,1215.79 1475.7,1206.18 1477.69,1191.11 1479.67,1178.63 1481.65,1175.99 1483.64,1169.44 1485.62,1161.24 1487.61,1158.7 1489.59,1154.18 1491.58,1149.64 1493.56,1147.07 1495.55,1148.76 1497.53,1153.79 1499.51,1164.62 1501.5,1167.83 1503.48,1169.96 1505.47,1166.59 1507.45,1161.77 1509.44,1155.34 1511.42,1149.69 1513.4,1146.12 1515.39,1145.11 1517.37,1148.13 1519.36,1154.94 1521.34,1165.56 1523.33,1175.56 1525.31,1171.72 1527.3,1170.25 1529.28,1166.53 1531.26,1167.44 1533.25,1169.06 1535.23,1171.12 1537.22,1170.09 1539.2,1164.86 1541.19,1159.22 1543.17,1149.67 1545.16,1145.73 1547.14,1147 1549.12,1148.99 1551.11,1152.15 1553.09,1159.67 1555.08,1169.57 1557.06,1175.01 1559.05,1183.15 1561.03,1184.22 1563.02,1183.7 1565,1185.23 1566.98,1193.26 1568.97,1194.17 1570.95,1196.24 1572.94,1198.51 1574.92,1197.97 1576.91,1202.83 1578.89,1198.77 1580.88,1192.34 1582.86,1187.88 1584.84,1182.65 1586.83,1180.15 1588.81,1175.28 1590.8,1164.82 1592.78,1157.55 1594.77,1152.5 1596.75,1150.79 1598.74,1153.28 1600.72,1147.9 1602.7,1145.45 1604.69,1144.59 1606.67,1147.31 1608.66,1156.88 1610.64,1168.75 1612.63,1173.9 1614.61,1178.97 1616.59,1185.96 1618.58,1192.36 1620.56,1198.73 1622.55,1199.26 1624.53,1200.31 1626.52,1195.1 1628.5,1183.74 1630.49,1180.58 1632.47,1179.4 1634.45,1178.68 1636.44,1178.62 1638.42,1177.09 1640.41,1170.07 1642.39,1164.76 1644.38,1166.22 1646.36,1171.39 1648.35,1173.72 1650.33,1173.15 1652.31,1167.09 1654.3,1157.75 1656.28,1150.68 1658.27,1148.32 1660.25,1141.6 1662.24,1138.09 1664.22,1138.26 1666.21,1141.35 1668.19,1141.57 1670.17,1144.03 1672.16,1149.13 1674.14,1148.56 1676.13,1142.83 1678.11,1138.52 1680.1,1135.04 1682.08,1132.25 1684.07,1127.97 1686.05,1121.47 1688.03,1120.23 1690.02,1121.1 1692,1124.91 1693.99,1130.65 1695.97,1138.71 1697.96,1146.15 1699.94,1150.96 1701.93,1155.26 1703.91,1161.89 1705.89,1169.05 1707.88,1180.56 1709.86,1194.45 1711.85,1215.11 1713.83,1250.81 1715.82,1286.29 1717.8,1318.3 1719.78,1365.76 1721.77,1384.24 1723.75,1374.93 1725.74,1346.35 1727.72,1313.36 1729.71,1282.63 1731.69,1254.57 1733.68,1232.32 1735.66,1206.43 1737.64,1193.13 1739.63,1185.17 1741.61,1180.95 1743.6,1182.1 1745.58,1191.27 1747.57,1201.11 1749.55,1207.32 1751.54,1211.64 1753.52,1213.02 1755.5,1210.05 1757.49,1205.84 1759.47,1200.17 1761.46,1198.42 1763.44,1198.28 1765.43,1197.86 1767.41,1198.31 1769.4,1202.44 1771.38,1196.56 1773.36,1196.86 1775.35,1202.51 1777.33,1211.28 1779.32,1213.26 1781.3,1205.63 1783.29,1189.34 1785.27,1178.04 1787.26,1173.1 1789.24,1170.06 1791.22,1171.45 1793.21,1171.18 1795.19,1177.22 1797.18,1179.14 1799.16,1176.46 1801.15,1171.62 1803.13,1168.61 1805.11,1169.86 1807.1,1168.82 1809.08,1180.65 1811.07,1198.02 1813.05,1208.67 1815.04,1213.58 1817.02,1215.2 1819.01,1218.09 1820.99,1225.33 1822.97,1235.02 1824.96,1240.74 1826.94,1238.86 1828.93,1238.56 1830.91,1233.16 1832.9,1228.75 1834.88,1218.83 1836.87,1210.15 1838.85,1207.86 1840.83,1206.37 1842.82,1200.89 1844.8,1206.56 1846.79,1212.44 1848.77,1215.53 1850.76,1224.44 1852.74,1236.89 1854.73,1243.06 1856.71,1233.3 1858.69,1224.6 1860.68,1219.82 1862.66,1215.56 1864.65,1215.82 1866.63,1212.96 1868.62,1204.49 1870.6,1201.76 1872.59,1206.79 1874.57,1213.67 1876.55,1219.04 1878.54,1226.99 1880.52,1238.38 1882.51,1254.62 1884.49,1276.74 1886.48,1293.1 1888.46,1309.81 1890.45,1313.27 1892.43,1298.04 1894.41,1279.84 1896.4,1252.04 1898.38,1233.89 1900.37,1212.44 1902.35,1187.44 1904.34,1167.23 1906.32,1145.87 1908.3,1127.85 1910.29,1115.7 1912.27,1106.39 1914.26,1099.86 1916.24,1097.2 1918.23,1101.95 1920.21,1108.39 1922.2,1114.9 1924.18,1121.2 1926.16,1124.82 1928.15,1125.91 1930.13,1129.59 1932.12,1133.31 1934.1,1138.18 1936.09,1141 1938.07,1145.32 1940.06,1151.2 1942.04,1159.42 1944.02,1167.13 1946.01,1173.3 1947.99,1177.18 1949.98,1176.26 1951.96,1171.66 1953.95,1165.07 1955.93,1161 1957.92,1159 1959.9,1155.63 1961.88,1153.91 1963.87,1157.18 1965.85,1159.69 1967.84,1165.8 1969.82,1172.87 1971.81,1183.05 1973.79,1185.88 1975.78,1189.86 1977.76,1189.54 1979.74,1186.71 1981.73,1185.28 1983.71,1179.2 1985.7,1173.68 1987.68,1164.99 1989.67,1161.67 1991.65,1158.91 1993.64,1160.58 1995.62,1162.96 1997.6,1172.34 1999.59,1176.21 2001.57,1182.95 2003.56,1188.82 2005.54,1188.96 2007.53,1174.91 2009.51,1164.49 2011.49,1158.48 2013.48,1158.39 2015.46,1164.66 2017.45,1174.79 2019.43,1184.58 2021.42,1195.78 2023.4,1199.23 2025.39,1203.96 2027.37,1203.37 2029.35,1200.39 2031.34,1192.26 2033.32,1184.25 2035.31,1169.06 2037.29,1157.48 2039.28,1144.27 2041.26,1140.37 2043.25,1133.3 2045.23,1126.45 2047.21,1120.84 2049.2,1119.92 2051.18,1115.42 2053.17,1116.54 2055.15,1120.13 2057.14,1128.64 2059.12,1140.16 2061.11,1151.58 2063.09,1157.4 2065.07,1164.6 2067.06,1169.77 2069.04,1170.64 2071.03,1175.9 2073.01,1179.79 2075,1183.61 2076.98,1185.26 2078.97,1191.06 2080.95,1200.33 2082.93,1208.89 2084.92,1212.85 2086.9,1216.61 2088.89,1217.33 2090.87,1220.66 2092.86,1228.02 2094.84,1240.89 2096.83,1239.41 2098.81,1232.14 2100.79,1221.07 2102.78,1212.75 2104.76,1204.28 2106.75,1191.27 2108.73,1185.28 2110.72,1175.46 2112.7,1167.86 2114.68,1159.02 2116.67,1150.76 2118.65,1146.68 2120.64,1142.45 2122.62,1147.3 2124.61,1154.07 2126.59,1165.12 2128.58,1182.58 2130.56,1205.9 2132.54,1227.98 2134.53,1246.19 2136.51,1256.3 2138.5,1242.33 2140.48,1221.06 2142.47,1205.73 2144.45,1192.39 2146.44,1179.81 2148.42,1166.72 2150.4,1156.46 2152.39,1151.26 2154.37,1149.19 2156.36,1149.21 2158.34,1153.64 2160.33,1155.81 2162.31,1161.97 2164.3,1169.97 2166.28,1179.86 2168.26,1188.21 2170.25,1189.49 2172.23,1188.1 2174.22,1190.11 2176.2,1189.14 2178.19,1194.76 2180.17,1200.32 2182.16,1205.98 2184.14,1212.4 2186.12,1218.14 2188.11,1232.86 2190.09,1250.51 2192.08,1264.44 2194.06,1278.42 2196.05,1280.34 2198.03,1286.08 2200.01,1284.62 2202,1271.72 2203.98,1261.11 2205.97,1246.52 2207.95,1231.89 2209.94,1221.52 2211.92,1222.93 2213.91,1218.62 2215.89,1216.9 2217.87,1222.93 2219.86,1224.76 2221.84,1224.88 2223.83,1219.3 2225.81,1211.03 2227.8,1198.8 2229.78,1188.74 2231.77,1176.18 2233.75,1164.5 2235.73,1151.25 2237.72,1138.09 2239.7,1127.44 2241.69,1122.47 2243.67,1111.84 2245.66,1105.38 2247.64,1101.49 2249.63,1096.12 2251.61,1091.33 2253.59,1085.06 2255.58,1076.42 2257.56,1070.39 2259.55,1062.61 2261.53,1057.7 2263.52,1055 2265.5,1057.66 2267.49,1063.04 2269.47,1069.14 2271.45,1076.07 2273.44,1084.89 2275.42,1095.79 2277.41,1104.94 2279.39,1114.67 2281.38,1119.28 2283.36,1126.04 2285.35,1132.81 2287.33,1138.35 2289.31,1139.71 2291.3,1139.81 2293.28,1148.14 "/>
<path clip-path="url(#clip470)" d="M1738.01 248.629 L2282.71 248.629 L2282.71 93.1086 L1738.01 93.1086  Z" fill="#ffffff" fill-rule="evenodd" fill-opacity="1"/>
<polyline clip-path="url(#clip470)" style="stroke:#000000; stroke-linecap:round; stroke-linejoin:round; stroke-width:4; stroke-opacity:1; fill:none" points="1738.01,248.629 2282.71,248.629 2282.71,93.1086 1738.01,93.1086 1738.01,248.629 "/>
<polyline clip-path="url(#clip470)" style="stroke:#009af9; stroke-linecap:round; stroke-linejoin:round; stroke-width:4; stroke-opacity:1; fill:none" points="1761.36,144.949 1901.45,144.949 "/>
<path clip-path="url(#clip470)" d="M1929.48 145.724 L1929.48 158.386 L1936.98 158.386 Q1940.75 158.386 1942.56 156.835 Q1944.39 155.261 1944.39 152.043 Q1944.39 148.803 1942.56 147.275 Q1940.75 145.724 1936.98 145.724 L1929.48 145.724 M1929.48 131.511 L1929.48 141.928 L1936.4 141.928 Q1939.83 141.928 1941.49 140.655 Q1943.18 139.358 1943.18 136.719 Q1943.18 134.104 1941.49 132.807 Q1939.83 131.511 1936.4 131.511 L1929.48 131.511 M1924.8 127.669 L1936.75 127.669 Q1942.09 127.669 1944.99 129.891 Q1947.88 132.113 1947.88 136.21 Q1947.88 139.382 1946.4 141.257 Q1944.92 143.131 1942.05 143.594 Q1945.5 144.335 1947.4 146.696 Q1949.32 149.034 1949.32 152.553 Q1949.32 157.182 1946.17 159.705 Q1943.02 162.229 1937.21 162.229 L1924.8 162.229 L1924.8 127.669 Z" fill="#000000" fill-rule="nonzero" fill-opacity="1" /><path clip-path="url(#clip470)" d="M1962 145.724 L1962 158.386 L1969.5 158.386 Q1973.27 158.386 1975.08 156.835 Q1976.91 155.261 1976.91 152.043 Q1976.91 148.803 1975.08 147.275 Q1973.27 145.724 1969.5 145.724 L1962 145.724 M1962 131.511 L1962 141.928 L1968.92 141.928 Q1972.35 141.928 1974.02 140.655 Q1975.71 139.358 1975.71 136.719 Q1975.71 134.104 1974.02 132.807 Q1972.35 131.511 1968.92 131.511 L1962 131.511 M1957.33 127.669 L1969.27 127.669 Q1974.62 127.669 1977.51 129.891 Q1980.4 132.113 1980.4 136.21 Q1980.4 139.382 1978.92 141.257 Q1977.44 143.131 1974.57 143.594 Q1978.02 144.335 1979.92 146.696 Q1981.84 149.034 1981.84 152.553 Q1981.84 157.182 1978.69 159.705 Q1975.54 162.229 1969.73 162.229 L1957.33 162.229 L1957.33 127.669 Z" fill="#000000" fill-rule="nonzero" fill-opacity="1" /><path clip-path="url(#clip470)" d="M1997.3 162.229 L1984.11 127.669 L1988.99 127.669 L1999.94 156.766 L2010.91 127.669 L2015.77 127.669 L2002.6 162.229 L1997.3 162.229 Z" fill="#000000" fill-rule="nonzero" fill-opacity="1" /><path clip-path="url(#clip470)" d="M2020.82 127.669 L2025.5 127.669 L2025.5 162.229 L2020.82 162.229 L2020.82 127.669 Z" fill="#000000" fill-rule="nonzero" fill-opacity="1" /><path clip-path="url(#clip470)" d="M2075.75 130.331 L2075.75 135.261 Q2073.39 133.062 2070.7 131.974 Q2068.04 130.886 2065.03 130.886 Q2059.11 130.886 2055.96 134.52 Q2052.81 138.132 2052.81 144.983 Q2052.81 151.812 2055.96 155.446 Q2059.11 159.057 2065.03 159.057 Q2068.04 159.057 2070.7 157.969 Q2073.39 156.881 2075.75 154.682 L2075.75 159.567 Q2073.3 161.233 2070.54 162.067 Q2067.81 162.9 2064.76 162.9 Q2056.91 162.9 2052.39 158.108 Q2047.88 153.293 2047.88 144.983 Q2047.88 136.65 2052.39 131.858 Q2056.91 127.044 2064.76 127.044 Q2067.86 127.044 2070.59 127.877 Q2073.34 128.687 2075.75 130.331 Z" fill="#000000" fill-rule="nonzero" fill-opacity="1" /><path clip-path="url(#clip470)" d="M2082.97 127.669 L2102.83 127.669 L2102.83 131.604 L2087.65 131.604 L2087.65 141.789 L2101.35 141.789 L2101.35 145.724 L2087.65 145.724 L2087.65 162.229 L2082.97 162.229 L2082.97 127.669 Z" fill="#000000" fill-rule="nonzero" fill-opacity="1" /><path clip-path="url(#clip470)" d="M2110.24 127.669 L2132.09 127.669 L2132.09 131.604 L2114.92 131.604 L2114.92 141.835 L2131.38 141.835 L2131.38 145.77 L2114.92 145.77 L2114.92 158.293 L2132.51 158.293 L2132.51 162.229 L2110.24 162.229 L2110.24 127.669 Z" fill="#000000" fill-rule="nonzero" fill-opacity="1" /><polyline clip-path="url(#clip470)" style="stroke:#e26f46; stroke-linecap:round; stroke-linejoin:round; stroke-width:4; stroke-opacity:1; fill:none" points="1761.36,196.789 1901.45,196.789 "/>
<path clip-path="url(#clip470)" d="M1929.48 197.564 L1929.48 210.226 L1936.98 210.226 Q1940.75 210.226 1942.56 208.675 Q1944.39 207.101 1944.39 203.883 Q1944.39 200.643 1942.56 199.115 Q1940.75 197.564 1936.98 197.564 L1929.48 197.564 M1929.48 183.351 L1929.48 193.768 L1936.4 193.768 Q1939.83 193.768 1941.49 192.495 Q1943.18 191.198 1943.18 188.559 Q1943.18 185.944 1941.49 184.647 Q1939.83 183.351 1936.4 183.351 L1929.48 183.351 M1924.8 179.509 L1936.75 179.509 Q1942.09 179.509 1944.99 181.731 Q1947.88 183.953 1947.88 188.05 Q1947.88 191.222 1946.4 193.097 Q1944.92 194.971 1942.05 195.434 Q1945.5 196.175 1947.4 198.536 Q1949.32 200.874 1949.32 204.393 Q1949.32 209.022 1946.17 211.545 Q1943.02 214.069 1937.21 214.069 L1924.8 214.069 L1924.8 179.509 Z" fill="#000000" fill-rule="nonzero" fill-opacity="1" /><path clip-path="url(#clip470)" d="M1962 197.564 L1962 210.226 L1969.5 210.226 Q1973.27 210.226 1975.08 208.675 Q1976.91 207.101 1976.91 203.883 Q1976.91 200.643 1975.08 199.115 Q1973.27 197.564 1969.5 197.564 L1962 197.564 M1962 183.351 L1962 193.768 L1968.92 193.768 Q1972.35 193.768 1974.02 192.495 Q1975.71 191.198 1975.71 188.559 Q1975.71 185.944 1974.02 184.647 Q1972.35 183.351 1968.92 183.351 L1962 183.351 M1957.33 179.509 L1969.27 179.509 Q1974.62 179.509 1977.51 181.731 Q1980.4 183.953 1980.4 188.05 Q1980.4 191.222 1978.92 193.097 Q1977.44 194.971 1974.57 195.434 Q1978.02 196.175 1979.92 198.536 Q1981.84 200.874 1981.84 204.393 Q1981.84 209.022 1978.69 211.545 Q1975.54 214.069 1969.73 214.069 L1957.33 214.069 L1957.33 179.509 Z" fill="#000000" fill-rule="nonzero" fill-opacity="1" /><path clip-path="url(#clip470)" d="M1997.3 214.069 L1984.11 179.509 L1988.99 179.509 L1999.94 208.606 L2010.91 179.509 L2015.77 179.509 L2002.6 214.069 L1997.3 214.069 Z" fill="#000000" fill-rule="nonzero" fill-opacity="1" /><path clip-path="url(#clip470)" d="M2020.82 179.509 L2025.5 179.509 L2025.5 214.069 L2020.82 214.069 L2020.82 179.509 Z" fill="#000000" fill-rule="nonzero" fill-opacity="1" /><path clip-path="url(#clip470)" d="M2075.75 182.171 L2075.75 187.101 Q2073.39 184.902 2070.7 183.814 Q2068.04 182.726 2065.03 182.726 Q2059.11 182.726 2055.96 186.36 Q2052.81 189.972 2052.81 196.823 Q2052.81 203.652 2055.96 207.286 Q2059.11 210.897 2065.03 210.897 Q2068.04 210.897 2070.7 209.809 Q2073.39 208.721 2075.75 206.522 L2075.75 211.407 Q2073.3 213.073 2070.54 213.907 Q2067.81 214.74 2064.76 214.74 Q2056.91 214.74 2052.39 209.948 Q2047.88 205.133 2047.88 196.823 Q2047.88 188.49 2052.39 183.698 Q2056.91 178.884 2064.76 178.884 Q2067.86 178.884 2070.59 179.717 Q2073.34 180.527 2075.75 182.171 Z" fill="#000000" fill-rule="nonzero" fill-opacity="1" /><path clip-path="url(#clip470)" d="M2082.97 179.509 L2102.83 179.509 L2102.83 183.444 L2087.65 183.444 L2087.65 193.629 L2101.35 193.629 L2101.35 197.564 L2087.65 197.564 L2087.65 214.069 L2082.97 214.069 L2082.97 179.509 Z" fill="#000000" fill-rule="nonzero" fill-opacity="1" /><path clip-path="url(#clip470)" d="M2110.24 179.509 L2132.09 179.509 L2132.09 183.444 L2114.92 183.444 L2114.92 193.675 L2131.38 193.675 L2131.38 197.61 L2114.92 197.61 L2114.92 210.133 L2132.51 210.133 L2132.51 214.069 L2110.24 214.069 L2110.24 179.509 Z" fill="#000000" fill-rule="nonzero" fill-opacity="1" /><path clip-path="url(#clip470)" d="M2169.29 182.68 Q2164.2 182.68 2161.19 186.476 Q2158.2 190.272 2158.2 196.823 Q2158.2 203.351 2161.19 207.147 Q2164.2 210.944 2169.29 210.944 Q2174.38 210.944 2177.35 207.147 Q2180.33 203.351 2180.33 196.823 Q2180.33 190.272 2177.35 186.476 Q2174.38 182.68 2169.29 182.68 M2175.84 213.444 L2182 220.18 L2176.35 220.18 L2171.24 214.647 Q2170.47 214.694 2170.06 214.717 Q2169.66 214.74 2169.29 214.74 Q2162 214.74 2157.63 209.879 Q2153.27 204.995 2153.27 196.823 Q2153.27 188.629 2157.63 183.768 Q2162 178.884 2169.29 178.884 Q2176.56 178.884 2180.91 183.768 Q2185.26 188.629 2185.26 196.823 Q2185.26 202.842 2182.83 207.124 Q2180.43 211.407 2175.84 213.444 Z" fill="#000000" fill-rule="nonzero" fill-opacity="1" /><path clip-path="url(#clip470)" d="M2192.58 179.509 L2199.55 179.509 L2208.37 203.027 L2217.23 179.509 L2224.2 179.509 L2224.2 214.069 L2219.64 214.069 L2219.64 183.722 L2210.73 207.425 L2206.03 207.425 L2197.12 183.722 L2197.12 214.069 L2192.58 214.069 L2192.58 179.509 Z" fill="#000000" fill-rule="nonzero" fill-opacity="1" /><path clip-path="url(#clip470)" d="M2259.36 182.171 L2259.36 187.101 Q2257 184.902 2254.31 183.814 Q2251.65 182.726 2248.64 182.726 Q2242.72 182.726 2239.57 186.36 Q2236.42 189.972 2236.42 196.823 Q2236.42 203.652 2239.57 207.286 Q2242.72 210.897 2248.64 210.897 Q2251.65 210.897 2254.31 209.809 Q2257 208.721 2259.36 206.522 L2259.36 211.407 Q2256.91 213.073 2254.15 213.907 Q2251.42 214.74 2248.37 214.74 Q2240.52 214.74 2236 209.948 Q2231.49 205.133 2231.49 196.823 Q2231.49 188.49 2236 183.698 Q2240.52 178.884 2248.37 178.884 Q2251.47 178.884 2254.2 179.717 Q2256.95 180.527 2259.36 182.171 Z" fill="#000000" fill-rule="nonzero" fill-opacity="1" /></svg>
