<?xml version="1.0" encoding="utf-8"?>
<svg xmlns="http://www.w3.org/2000/svg" xmlns:xlink="http://www.w3.org/1999/xlink" width="600" height="400" viewBox="0 0 2400 1600">
<defs>
  <clipPath id="clip850">
    <rect x="0" y="0" width="2400" height="1600"/>
  </clipPath>
</defs>
<path clip-path="url(#clip850)" d="M0 1600 L2400 1600 L2400 0 L0 0  Z" fill="#ffffff" fill-rule="evenodd" fill-opacity="1"/>
<defs>
  <clipPath id="clip851">
    <rect x="332" y="47" width="2021" height="1377"/>
  </clipPath>
</defs>
<path clip-path="url(#clip850)" d="M332.62 1423.18 L2352.76 1423.18 L2352.76 47.2441 L332.62 47.2441  Z" fill="#ffffff" fill-rule="evenodd" fill-opacity="1"/>
<polyline clip-path="url(#clip851)" style="stroke:#000000; stroke-linecap:round; stroke-linejoin:round; stroke-width:2; stroke-opacity:0.1; fill:none" points="348.898,1423.18 348.898,47.2441 "/>
<polyline clip-path="url(#clip851)" style="stroke:#000000; stroke-linecap:round; stroke-linejoin:round; stroke-width:2; stroke-opacity:0.1; fill:none" points="713.465,1423.18 713.465,47.2441 "/>
<polyline clip-path="url(#clip851)" style="stroke:#000000; stroke-linecap:round; stroke-linejoin:round; stroke-width:2; stroke-opacity:0.1; fill:none" points="1078.03,1423.18 1078.03,47.2441 "/>
<polyline clip-path="url(#clip851)" style="stroke:#000000; stroke-linecap:round; stroke-linejoin:round; stroke-width:2; stroke-opacity:0.1; fill:none" points="1442.6,1423.18 1442.6,47.2441 "/>
<polyline clip-path="url(#clip851)" style="stroke:#000000; stroke-linecap:round; stroke-linejoin:round; stroke-width:2; stroke-opacity:0.1; fill:none" points="1807.17,1423.18 1807.17,47.2441 "/>
<polyline clip-path="url(#clip851)" style="stroke:#000000; stroke-linecap:round; stroke-linejoin:round; stroke-width:2; stroke-opacity:0.1; fill:none" points="2171.74,1423.18 2171.74,47.2441 "/>
<polyline clip-path="url(#clip851)" style="stroke:#000000; stroke-linecap:round; stroke-linejoin:round; stroke-width:2; stroke-opacity:0.1; fill:none" points="332.62,1307.09 2352.76,1307.09 "/>
<polyline clip-path="url(#clip851)" style="stroke:#000000; stroke-linecap:round; stroke-linejoin:round; stroke-width:2; stroke-opacity:0.1; fill:none" points="332.62,1050.48 2352.76,1050.48 "/>
<polyline clip-path="url(#clip851)" style="stroke:#000000; stroke-linecap:round; stroke-linejoin:round; stroke-width:2; stroke-opacity:0.1; fill:none" points="332.62,793.88 2352.76,793.88 "/>
<polyline clip-path="url(#clip851)" style="stroke:#000000; stroke-linecap:round; stroke-linejoin:round; stroke-width:2; stroke-opacity:0.1; fill:none" points="332.62,537.278 2352.76,537.278 "/>
<polyline clip-path="url(#clip851)" style="stroke:#000000; stroke-linecap:round; stroke-linejoin:round; stroke-width:2; stroke-opacity:0.1; fill:none" points="332.62,280.675 2352.76,280.675 "/>
<polyline clip-path="url(#clip850)" style="stroke:#000000; stroke-linecap:round; stroke-linejoin:round; stroke-width:4; stroke-opacity:1; fill:none" points="332.62,1423.18 2352.76,1423.18 "/>
<polyline clip-path="url(#clip850)" style="stroke:#000000; stroke-linecap:round; stroke-linejoin:round; stroke-width:4; stroke-opacity:1; fill:none" points="348.898,1423.18 348.898,1404.28 "/>
<polyline clip-path="url(#clip850)" style="stroke:#000000; stroke-linecap:round; stroke-linejoin:round; stroke-width:4; stroke-opacity:1; fill:none" points="713.465,1423.18 713.465,1404.28 "/>
<polyline clip-path="url(#clip850)" style="stroke:#000000; stroke-linecap:round; stroke-linejoin:round; stroke-width:4; stroke-opacity:1; fill:none" points="1078.03,1423.18 1078.03,1404.28 "/>
<polyline clip-path="url(#clip850)" style="stroke:#000000; stroke-linecap:round; stroke-linejoin:round; stroke-width:4; stroke-opacity:1; fill:none" points="1442.6,1423.18 1442.6,1404.28 "/>
<polyline clip-path="url(#clip850)" style="stroke:#000000; stroke-linecap:round; stroke-linejoin:round; stroke-width:4; stroke-opacity:1; fill:none" points="1807.17,1423.18 1807.17,1404.28 "/>
<polyline clip-path="url(#clip850)" style="stroke:#000000; stroke-linecap:round; stroke-linejoin:round; stroke-width:4; stroke-opacity:1; fill:none" points="2171.74,1423.18 2171.74,1404.28 "/>
<path clip-path="url(#clip850)" d="M348.898 1454.1 Q345.286 1454.1 343.458 1457.66 Q341.652 1461.2 341.652 1468.33 Q341.652 1475.44 343.458 1479.01 Q345.286 1482.55 348.898 1482.55 Q352.532 1482.55 354.337 1479.01 Q356.166 1475.44 356.166 1468.33 Q356.166 1461.2 354.337 1457.66 Q352.532 1454.1 348.898 1454.1 M348.898 1450.39 Q354.708 1450.39 357.763 1455 Q360.842 1459.58 360.842 1468.33 Q360.842 1477.06 357.763 1481.67 Q354.708 1486.25 348.898 1486.25 Q343.087 1486.25 340.009 1481.67 Q336.953 1477.06 336.953 1468.33 Q336.953 1459.58 340.009 1455 Q343.087 1450.39 348.898 1450.39 Z" fill="#000000" fill-rule="nonzero" fill-opacity="1" /><path clip-path="url(#clip850)" d="M703.743 1451.02 L722.1 1451.02 L722.1 1454.96 L708.026 1454.96 L708.026 1463.43 Q709.044 1463.08 710.063 1462.92 Q711.081 1462.73 712.1 1462.73 Q717.887 1462.73 721.266 1465.9 Q724.646 1469.08 724.646 1474.49 Q724.646 1480.07 721.174 1483.17 Q717.702 1486.25 711.382 1486.25 Q709.206 1486.25 706.938 1485.88 Q704.692 1485.51 702.285 1484.77 L702.285 1480.07 Q704.368 1481.2 706.59 1481.76 Q708.813 1482.32 711.29 1482.32 Q715.294 1482.32 717.632 1480.21 Q719.97 1478.1 719.97 1474.49 Q719.97 1470.88 717.632 1468.77 Q715.294 1466.67 711.29 1466.67 Q709.415 1466.67 707.54 1467.08 Q705.688 1467.5 703.743 1468.38 L703.743 1451.02 Z" fill="#000000" fill-rule="nonzero" fill-opacity="1" /><path clip-path="url(#clip850)" d="M1052.72 1481.64 L1060.36 1481.64 L1060.36 1455.28 L1052.05 1456.95 L1052.05 1452.69 L1060.31 1451.02 L1064.99 1451.02 L1064.99 1481.64 L1072.63 1481.64 L1072.63 1485.58 L1052.72 1485.58 L1052.72 1481.64 Z" fill="#000000" fill-rule="nonzero" fill-opacity="1" /><path clip-path="url(#clip850)" d="M1092.07 1454.1 Q1088.46 1454.1 1086.63 1457.66 Q1084.83 1461.2 1084.83 1468.33 Q1084.83 1475.44 1086.63 1479.01 Q1088.46 1482.55 1092.07 1482.55 Q1095.71 1482.55 1097.51 1479.01 Q1099.34 1475.44 1099.34 1468.33 Q1099.34 1461.2 1097.51 1457.66 Q1095.71 1454.1 1092.07 1454.1 M1092.07 1450.39 Q1097.88 1450.39 1100.94 1455 Q1104.02 1459.58 1104.02 1468.33 Q1104.02 1477.06 1100.94 1481.67 Q1097.88 1486.25 1092.07 1486.25 Q1086.26 1486.25 1083.18 1481.67 Q1080.13 1477.06 1080.13 1468.33 Q1080.13 1459.58 1083.18 1455 Q1086.26 1450.39 1092.07 1450.39 Z" fill="#000000" fill-rule="nonzero" fill-opacity="1" /><path clip-path="url(#clip850)" d="M1417.79 1481.64 L1425.43 1481.64 L1425.43 1455.28 L1417.12 1456.95 L1417.12 1452.69 L1425.38 1451.02 L1430.05 1451.02 L1430.05 1481.64 L1437.69 1481.64 L1437.69 1485.58 L1417.79 1485.58 L1417.79 1481.64 Z" fill="#000000" fill-rule="nonzero" fill-opacity="1" /><path clip-path="url(#clip850)" d="M1447.18 1451.02 L1465.54 1451.02 L1465.54 1454.96 L1451.47 1454.96 L1451.47 1463.43 Q1452.49 1463.08 1453.5 1462.92 Q1454.52 1462.73 1455.54 1462.73 Q1461.33 1462.73 1464.71 1465.9 Q1468.09 1469.08 1468.09 1474.49 Q1468.09 1480.07 1464.61 1483.17 Q1461.14 1486.25 1454.82 1486.25 Q1452.65 1486.25 1450.38 1485.88 Q1448.13 1485.51 1445.73 1484.77 L1445.73 1480.07 Q1447.81 1481.2 1450.03 1481.76 Q1452.25 1482.32 1454.73 1482.32 Q1458.74 1482.32 1461.07 1480.21 Q1463.41 1478.1 1463.41 1474.49 Q1463.41 1470.88 1461.07 1468.77 Q1458.74 1466.67 1454.73 1466.67 Q1452.86 1466.67 1450.98 1467.08 Q1449.13 1467.5 1447.18 1468.38 L1447.18 1451.02 Z" fill="#000000" fill-rule="nonzero" fill-opacity="1" /><path clip-path="url(#clip850)" d="M1785.94 1481.64 L1802.26 1481.64 L1802.26 1485.58 L1780.32 1485.58 L1780.32 1481.64 Q1782.98 1478.89 1787.56 1474.26 Q1792.17 1469.61 1793.35 1468.27 Q1795.6 1465.74 1796.47 1464.01 Q1797.38 1462.25 1797.38 1460.56 Q1797.38 1457.8 1795.43 1456.07 Q1793.51 1454.33 1790.41 1454.33 Q1788.21 1454.33 1785.76 1455.09 Q1783.33 1455.86 1780.55 1457.41 L1780.55 1452.69 Q1783.37 1451.55 1785.83 1450.97 Q1788.28 1450.39 1790.32 1450.39 Q1795.69 1450.39 1798.88 1453.08 Q1802.08 1455.77 1802.08 1460.26 Q1802.08 1462.39 1801.27 1464.31 Q1800.48 1466.2 1798.37 1468.8 Q1797.79 1469.47 1794.69 1472.69 Q1791.59 1475.88 1785.94 1481.64 Z" fill="#000000" fill-rule="nonzero" fill-opacity="1" /><path clip-path="url(#clip850)" d="M1822.08 1454.1 Q1818.47 1454.1 1816.64 1457.66 Q1814.83 1461.2 1814.83 1468.33 Q1814.83 1475.44 1816.64 1479.01 Q1818.47 1482.55 1822.08 1482.55 Q1825.71 1482.55 1827.52 1479.01 Q1829.34 1475.44 1829.34 1468.33 Q1829.34 1461.2 1827.52 1457.66 Q1825.71 1454.1 1822.08 1454.1 M1822.08 1450.39 Q1827.89 1450.39 1830.94 1455 Q1834.02 1459.58 1834.02 1468.33 Q1834.02 1477.06 1830.94 1481.67 Q1827.89 1486.25 1822.08 1486.25 Q1816.27 1486.25 1813.19 1481.67 Q1810.13 1477.06 1810.13 1468.33 Q1810.13 1459.58 1813.19 1455 Q1816.27 1450.39 1822.08 1450.39 Z" fill="#000000" fill-rule="nonzero" fill-opacity="1" /><path clip-path="url(#clip850)" d="M2151.01 1481.64 L2167.33 1481.64 L2167.33 1485.58 L2145.38 1485.58 L2145.38 1481.64 Q2148.04 1478.89 2152.63 1474.26 Q2157.23 1469.61 2158.42 1468.27 Q2160.66 1465.74 2161.54 1464.01 Q2162.44 1462.25 2162.44 1460.56 Q2162.44 1457.8 2160.5 1456.07 Q2158.58 1454.33 2155.48 1454.33 Q2153.28 1454.33 2150.82 1455.09 Q2148.39 1455.86 2145.61 1457.41 L2145.61 1452.69 Q2148.44 1451.55 2150.89 1450.97 Q2153.35 1450.39 2155.38 1450.39 Q2160.75 1450.39 2163.95 1453.08 Q2167.14 1455.77 2167.14 1460.26 Q2167.14 1462.39 2166.33 1464.31 Q2165.54 1466.2 2163.44 1468.8 Q2162.86 1469.47 2159.76 1472.69 Q2156.66 1475.88 2151.01 1481.64 Z" fill="#000000" fill-rule="nonzero" fill-opacity="1" /><path clip-path="url(#clip850)" d="M2177.19 1451.02 L2195.54 1451.02 L2195.54 1454.96 L2181.47 1454.96 L2181.47 1463.43 Q2182.49 1463.08 2183.51 1462.92 Q2184.53 1462.73 2185.54 1462.73 Q2191.33 1462.73 2194.71 1465.9 Q2198.09 1469.08 2198.09 1474.49 Q2198.09 1480.07 2194.62 1483.17 Q2191.15 1486.25 2184.83 1486.25 Q2182.65 1486.25 2180.38 1485.88 Q2178.14 1485.51 2175.73 1484.77 L2175.73 1480.07 Q2177.81 1481.2 2180.04 1481.76 Q2182.26 1482.32 2184.73 1482.32 Q2188.74 1482.32 2191.08 1480.21 Q2193.42 1478.1 2193.42 1474.49 Q2193.42 1470.88 2191.08 1468.77 Q2188.74 1466.67 2184.73 1466.67 Q2182.86 1466.67 2180.98 1467.08 Q2179.13 1467.5 2177.19 1468.38 L2177.19 1451.02 Z" fill="#000000" fill-rule="nonzero" fill-opacity="1" /><path clip-path="url(#clip850)" d="M1013.77 1520.52 L1020.27 1520.52 L1030.26 1560.69 L1040.22 1520.52 L1047.45 1520.52 L1057.44 1560.69 L1067.4 1520.52 L1073.93 1520.52 L1061.99 1568.04 L1053.91 1568.04 L1043.88 1526.79 L1033.76 1568.04 L1025.68 1568.04 L1013.77 1520.52 Z" fill="#000000" fill-rule="nonzero" fill-opacity="1" /><path clip-path="url(#clip850)" d="M1094.23 1550.12 Q1087.14 1550.12 1084.4 1551.75 Q1081.66 1553.37 1081.66 1557.29 Q1081.66 1560.4 1083.7 1562.25 Q1085.77 1564.07 1089.3 1564.07 Q1094.17 1564.07 1097.1 1560.63 Q1100.06 1557.16 1100.06 1551.43 L1100.06 1550.12 L1094.23 1550.12 M1105.92 1547.71 L1105.92 1568.04 L1100.06 1568.04 L1100.06 1562.63 Q1098.05 1565.88 1095.06 1567.44 Q1092.07 1568.97 1087.74 1568.97 Q1082.27 1568.97 1079.02 1565.91 Q1075.81 1562.82 1075.81 1557.67 Q1075.81 1551.65 1079.82 1548.6 Q1083.86 1545.54 1091.85 1545.54 L1100.06 1545.54 L1100.06 1544.97 Q1100.06 1540.93 1097.39 1538.73 Q1094.74 1536.5 1089.94 1536.5 Q1086.88 1536.5 1083.99 1537.23 Q1081.09 1537.97 1078.42 1539.43 L1078.42 1534.02 Q1081.63 1532.78 1084.65 1532.17 Q1087.68 1531.54 1090.54 1531.54 Q1098.28 1531.54 1102.1 1535.55 Q1105.92 1539.56 1105.92 1547.71 Z" fill="#000000" fill-rule="nonzero" fill-opacity="1" /><path clip-path="url(#clip850)" d="M1117.98 1518.52 L1123.84 1518.52 L1123.84 1568.04 L1117.98 1568.04 L1117.98 1518.52 Z" fill="#000000" fill-rule="nonzero" fill-opacity="1" /><path clip-path="url(#clip850)" d="M1136.09 1518.52 L1141.95 1518.52 L1141.95 1568.04 L1136.09 1568.04 L1136.09 1518.52 Z" fill="#000000" fill-rule="nonzero" fill-opacity="1" /><path clip-path="url(#clip850)" d="M1179.85 1533.76 L1179.85 1539.24 Q1177.37 1537.87 1174.86 1537.2 Q1172.37 1536.5 1169.83 1536.5 Q1164.13 1536.5 1160.98 1540.13 Q1157.83 1543.73 1157.83 1550.25 Q1157.83 1556.78 1160.98 1560.4 Q1164.13 1564 1169.83 1564 Q1172.37 1564 1174.86 1563.33 Q1177.37 1562.63 1179.85 1561.26 L1179.85 1566.68 Q1177.4 1567.82 1174.76 1568.39 Q1172.15 1568.97 1169.19 1568.97 Q1161.14 1568.97 1156.4 1563.91 Q1151.65 1558.85 1151.65 1550.25 Q1151.65 1541.53 1156.43 1536.53 Q1161.23 1531.54 1169.57 1531.54 Q1172.28 1531.54 1174.86 1532.11 Q1177.43 1532.65 1179.85 1533.76 Z" fill="#000000" fill-rule="nonzero" fill-opacity="1" /><path clip-path="url(#clip850)" d="M1190.04 1518.52 L1195.89 1518.52 L1195.89 1568.04 L1190.04 1568.04 L1190.04 1518.52 Z" fill="#000000" fill-rule="nonzero" fill-opacity="1" /><path clip-path="url(#clip850)" d="M1221.96 1536.5 Q1217.25 1536.5 1214.51 1540.19 Q1211.78 1543.85 1211.78 1550.25 Q1211.78 1556.65 1214.48 1560.34 Q1217.22 1564 1221.96 1564 Q1226.64 1564 1229.38 1560.31 Q1232.12 1556.62 1232.12 1550.25 Q1232.12 1543.92 1229.38 1540.23 Q1226.64 1536.5 1221.96 1536.5 M1221.96 1531.54 Q1229.6 1531.54 1233.96 1536.5 Q1238.32 1541.47 1238.32 1550.25 Q1238.32 1559 1233.96 1564 Q1229.6 1568.97 1221.96 1568.97 Q1214.29 1568.97 1209.93 1564 Q1205.6 1559 1205.6 1550.25 Q1205.6 1541.47 1209.93 1536.5 Q1214.29 1531.54 1221.96 1531.54 Z" fill="#000000" fill-rule="nonzero" fill-opacity="1" /><path clip-path="url(#clip850)" d="M1273.68 1533.76 L1273.68 1539.24 Q1271.2 1537.87 1268.69 1537.2 Q1266.2 1536.5 1263.66 1536.5 Q1257.96 1536.5 1254.81 1540.13 Q1251.66 1543.73 1251.66 1550.25 Q1251.66 1556.78 1254.81 1560.4 Q1257.96 1564 1263.66 1564 Q1266.2 1564 1268.69 1563.33 Q1271.2 1562.63 1273.68 1561.26 L1273.68 1566.68 Q1271.23 1567.82 1268.59 1568.39 Q1265.98 1568.97 1263.02 1568.97 Q1254.97 1568.97 1250.23 1563.91 Q1245.48 1558.85 1245.48 1550.25 Q1245.48 1541.53 1250.26 1536.53 Q1255.06 1531.54 1263.4 1531.54 Q1266.11 1531.54 1268.69 1532.11 Q1271.26 1532.65 1273.68 1533.76 Z" fill="#000000" fill-rule="nonzero" fill-opacity="1" /><path clip-path="url(#clip850)" d="M1283.65 1518.52 L1289.53 1518.52 L1289.53 1547.77 L1307.01 1532.4 L1314.49 1532.4 L1295.58 1549.07 L1315.28 1568.04 L1307.64 1568.04 L1289.53 1550.63 L1289.53 1568.04 L1283.65 1568.04 L1283.65 1518.52 Z" fill="#000000" fill-rule="nonzero" fill-opacity="1" /><path clip-path="url(#clip850)" d="M1336 1520.52 L1376.2 1520.52 L1376.2 1525.93 L1359.33 1525.93 L1359.33 1568.04 L1352.87 1568.04 L1352.87 1525.93 L1336 1525.93 L1336 1520.52 Z" fill="#000000" fill-rule="nonzero" fill-opacity="1" /><path clip-path="url(#clip850)" d="M1380.15 1532.4 L1386.01 1532.4 L1386.01 1568.04 L1380.15 1568.04 L1380.15 1532.4 M1380.15 1518.52 L1386.01 1518.52 L1386.01 1525.93 L1380.15 1525.93 L1380.15 1518.52 Z" fill="#000000" fill-rule="nonzero" fill-opacity="1" /><path clip-path="url(#clip850)" d="M1426.02 1539.24 Q1428.21 1535.29 1431.27 1533.41 Q1434.32 1531.54 1438.46 1531.54 Q1444.03 1531.54 1447.05 1535.45 Q1450.08 1539.33 1450.08 1546.53 L1450.08 1568.04 L1444.19 1568.04 L1444.19 1546.72 Q1444.19 1541.59 1442.38 1539.11 Q1440.56 1536.63 1436.84 1536.63 Q1432.29 1536.63 1429.64 1539.65 Q1427 1542.68 1427 1547.9 L1427 1568.04 L1421.11 1568.04 L1421.11 1546.72 Q1421.11 1541.56 1419.3 1539.11 Q1417.49 1536.63 1413.7 1536.63 Q1409.21 1536.63 1406.57 1539.68 Q1403.93 1542.71 1403.93 1547.9 L1403.93 1568.04 L1398.04 1568.04 L1398.04 1532.4 L1403.93 1532.4 L1403.93 1537.93 Q1405.93 1534.66 1408.73 1533.1 Q1411.53 1531.54 1415.38 1531.54 Q1419.27 1531.54 1421.97 1533.51 Q1424.71 1535.48 1426.02 1539.24 Z" fill="#000000" fill-rule="nonzero" fill-opacity="1" /><path clip-path="url(#clip850)" d="M1492.25 1548.76 L1492.25 1551.62 L1465.32 1551.62 Q1465.71 1557.67 1468.95 1560.85 Q1472.23 1564 1478.05 1564 Q1481.43 1564 1484.58 1563.17 Q1487.76 1562.35 1490.88 1560.69 L1490.88 1566.23 Q1487.73 1567.57 1484.42 1568.27 Q1481.11 1568.97 1477.7 1568.97 Q1469.17 1568.97 1464.18 1564 Q1459.21 1559.04 1459.21 1550.57 Q1459.21 1541.82 1463.92 1536.69 Q1468.67 1531.54 1476.69 1531.54 Q1483.88 1531.54 1488.05 1536.18 Q1492.25 1540.8 1492.25 1548.76 M1486.39 1547.04 Q1486.33 1542.23 1483.69 1539.37 Q1481.08 1536.5 1476.75 1536.5 Q1471.85 1536.5 1468.89 1539.27 Q1465.96 1542.04 1465.51 1547.07 L1486.39 1547.04 Z" fill="#000000" fill-rule="nonzero" fill-opacity="1" /><path clip-path="url(#clip850)" d="M1536.65 1518.58 Q1532.39 1525.9 1530.32 1533.06 Q1528.25 1540.23 1528.25 1547.58 Q1528.25 1554.93 1530.32 1562.16 Q1532.42 1569.35 1536.65 1576.64 L1531.56 1576.64 Q1526.78 1569.16 1524.4 1561.93 Q1522.04 1554.71 1522.04 1547.58 Q1522.04 1540.48 1524.4 1533.29 Q1526.75 1526.09 1531.56 1518.58 L1536.65 1518.58 Z" fill="#000000" fill-rule="nonzero" fill-opacity="1" /><path clip-path="url(#clip850)" d="M1570.74 1533.45 L1570.74 1538.98 Q1568.26 1537.71 1565.58 1537.07 Q1562.91 1536.44 1560.05 1536.44 Q1555.68 1536.44 1553.49 1537.77 Q1551.32 1539.11 1551.32 1541.79 Q1551.32 1543.82 1552.88 1545 Q1554.44 1546.15 1559.15 1547.2 L1561.16 1547.64 Q1567.4 1548.98 1570.01 1551.43 Q1572.65 1553.85 1572.65 1558.21 Q1572.65 1563.17 1568.7 1566.07 Q1564.79 1568.97 1557.91 1568.97 Q1555.05 1568.97 1551.93 1568.39 Q1548.84 1567.85 1545.4 1566.74 L1545.4 1560.69 Q1548.65 1562.38 1551.8 1563.24 Q1554.95 1564.07 1558.04 1564.07 Q1562.18 1564.07 1564.41 1562.66 Q1566.63 1561.23 1566.63 1558.65 Q1566.63 1556.27 1565.01 1554.99 Q1563.42 1553.72 1557.98 1552.54 L1555.94 1552.07 Q1550.5 1550.92 1548.08 1548.56 Q1545.66 1546.18 1545.66 1542.04 Q1545.66 1537.01 1549.22 1534.27 Q1552.79 1531.54 1559.34 1531.54 Q1562.59 1531.54 1565.46 1532.01 Q1568.32 1532.49 1570.74 1533.45 Z" fill="#000000" fill-rule="nonzero" fill-opacity="1" /><path clip-path="url(#clip850)" d="M1612.47 1548.76 L1612.47 1551.62 L1585.54 1551.62 Q1585.92 1557.67 1589.17 1560.85 Q1592.45 1564 1598.27 1564 Q1601.65 1564 1604.8 1563.17 Q1607.98 1562.35 1611.1 1560.69 L1611.1 1566.23 Q1607.95 1567.57 1604.64 1568.27 Q1601.33 1568.97 1597.92 1568.97 Q1589.39 1568.97 1584.39 1564 Q1579.43 1559.04 1579.43 1550.57 Q1579.43 1541.82 1584.14 1536.69 Q1588.88 1531.54 1596.9 1531.54 Q1604.1 1531.54 1608.27 1536.18 Q1612.47 1540.8 1612.47 1548.76 M1606.61 1547.04 Q1606.55 1542.23 1603.9 1539.37 Q1601.29 1536.5 1596.97 1536.5 Q1592.06 1536.5 1589.1 1539.27 Q1586.18 1542.04 1585.73 1547.07 L1606.61 1547.04 Z" fill="#000000" fill-rule="nonzero" fill-opacity="1" /><path clip-path="url(#clip850)" d="M1647.73 1533.76 L1647.73 1539.24 Q1645.25 1537.87 1642.74 1537.2 Q1640.25 1536.5 1637.71 1536.5 Q1632.01 1536.5 1628.86 1540.13 Q1625.71 1543.73 1625.71 1550.25 Q1625.71 1556.78 1628.86 1560.4 Q1632.01 1564 1637.71 1564 Q1640.25 1564 1642.74 1563.33 Q1645.25 1562.63 1647.73 1561.26 L1647.73 1566.68 Q1645.28 1567.82 1642.64 1568.39 Q1640.03 1568.97 1637.07 1568.97 Q1629.02 1568.97 1624.28 1563.91 Q1619.53 1558.85 1619.53 1550.25 Q1619.53 1541.53 1624.31 1536.53 Q1629.11 1531.54 1637.45 1531.54 Q1640.16 1531.54 1642.74 1532.11 Q1645.31 1532.65 1647.73 1533.76 Z" fill="#000000" fill-rule="nonzero" fill-opacity="1" /><path clip-path="url(#clip850)" d="M1656.99 1518.58 L1662.09 1518.58 Q1666.86 1526.09 1669.22 1533.29 Q1671.6 1540.48 1671.6 1547.58 Q1671.6 1554.71 1669.22 1561.93 Q1666.86 1569.16 1662.09 1576.64 L1656.99 1576.64 Q1661.23 1569.35 1663.3 1562.16 Q1665.4 1554.93 1665.4 1547.58 Q1665.4 1540.23 1663.3 1533.06 Q1661.23 1525.9 1656.99 1518.58 Z" fill="#000000" fill-rule="nonzero" fill-opacity="1" /><polyline clip-path="url(#clip850)" style="stroke:#000000; stroke-linecap:round; stroke-linejoin:round; stroke-width:4; stroke-opacity:1; fill:none" points="332.62,1423.18 332.62,47.2441 "/>
<polyline clip-path="url(#clip850)" style="stroke:#000000; stroke-linecap:round; stroke-linejoin:round; stroke-width:4; stroke-opacity:1; fill:none" points="332.62,1307.09 351.518,1307.09 "/>
<polyline clip-path="url(#clip850)" style="stroke:#000000; stroke-linecap:round; stroke-linejoin:round; stroke-width:4; stroke-opacity:1; fill:none" points="332.62,1050.48 351.518,1050.48 "/>
<polyline clip-path="url(#clip850)" style="stroke:#000000; stroke-linecap:round; stroke-linejoin:round; stroke-width:4; stroke-opacity:1; fill:none" points="332.62,793.88 351.518,793.88 "/>
<polyline clip-path="url(#clip850)" style="stroke:#000000; stroke-linecap:round; stroke-linejoin:round; stroke-width:4; stroke-opacity:1; fill:none" points="332.62,537.278 351.518,537.278 "/>
<polyline clip-path="url(#clip850)" style="stroke:#000000; stroke-linecap:round; stroke-linejoin:round; stroke-width:4; stroke-opacity:1; fill:none" points="332.62,280.675 351.518,280.675 "/>
<path clip-path="url(#clip850)" d="M114.26 1307.54 L143.936 1307.54 L143.936 1311.47 L114.26 1311.47 L114.26 1307.54 Z" fill="#000000" fill-rule="nonzero" fill-opacity="1" /><path clip-path="url(#clip850)" d="M154.839 1320.43 L162.477 1320.43 L162.477 1294.06 L154.167 1295.73 L154.167 1291.47 L162.431 1289.81 L167.107 1289.81 L167.107 1320.43 L174.746 1320.43 L174.746 1324.37 L154.839 1324.37 L154.839 1320.43 Z" fill="#000000" fill-rule="nonzero" fill-opacity="1" /><path clip-path="url(#clip850)" d="M183.01 1289.81 L205.232 1289.81 L205.232 1291.8 L192.686 1324.37 L187.801 1324.37 L199.607 1293.74 L183.01 1293.74 L183.01 1289.81 Z" fill="#000000" fill-rule="nonzero" fill-opacity="1" /><path clip-path="url(#clip850)" d="M214.399 1289.81 L232.755 1289.81 L232.755 1293.74 L218.681 1293.74 L218.681 1302.21 Q219.699 1301.87 220.718 1301.7 Q221.736 1301.52 222.755 1301.52 Q228.542 1301.52 231.922 1304.69 Q235.301 1307.86 235.301 1313.28 Q235.301 1318.86 231.829 1321.96 Q228.357 1325.04 222.037 1325.04 Q219.861 1325.04 217.593 1324.67 Q215.348 1324.3 212.94 1323.56 L212.94 1318.86 Q215.024 1319.99 217.246 1320.55 Q219.468 1321.1 221.945 1321.1 Q225.949 1321.1 228.287 1319 Q230.625 1316.89 230.625 1313.28 Q230.625 1309.67 228.287 1307.56 Q225.949 1305.45 221.945 1305.45 Q220.07 1305.45 218.195 1305.87 Q216.343 1306.29 214.399 1307.17 L214.399 1289.81 Z" fill="#000000" fill-rule="nonzero" fill-opacity="1" /><path clip-path="url(#clip850)" d="M254.514 1292.88 Q250.903 1292.88 249.074 1296.45 Q247.269 1299.99 247.269 1307.12 Q247.269 1314.23 249.074 1317.79 Q250.903 1321.33 254.514 1321.33 Q258.148 1321.33 259.954 1317.79 Q261.783 1314.23 261.783 1307.12 Q261.783 1299.99 259.954 1296.45 Q258.148 1292.88 254.514 1292.88 M254.514 1289.18 Q260.324 1289.18 263.38 1293.79 Q266.458 1298.37 266.458 1307.12 Q266.458 1315.85 263.38 1320.45 Q260.324 1325.04 254.514 1325.04 Q248.704 1325.04 245.625 1320.45 Q242.57 1315.85 242.57 1307.12 Q242.57 1298.37 245.625 1293.79 Q248.704 1289.18 254.514 1289.18 Z" fill="#000000" fill-rule="nonzero" fill-opacity="1" /><path clip-path="url(#clip850)" d="M284.676 1292.88 Q281.065 1292.88 279.236 1296.45 Q277.431 1299.99 277.431 1307.12 Q277.431 1314.23 279.236 1317.79 Q281.065 1321.33 284.676 1321.33 Q288.31 1321.33 290.116 1317.79 Q291.944 1314.23 291.944 1307.12 Q291.944 1299.99 290.116 1296.45 Q288.31 1292.88 284.676 1292.88 M284.676 1289.18 Q290.486 1289.18 293.542 1293.79 Q296.62 1298.37 296.62 1307.12 Q296.62 1315.85 293.542 1320.45 Q290.486 1325.04 284.676 1325.04 Q278.866 1325.04 275.787 1320.45 Q272.732 1315.85 272.732 1307.12 Q272.732 1298.37 275.787 1293.79 Q278.866 1289.18 284.676 1289.18 Z" fill="#000000" fill-rule="nonzero" fill-opacity="1" /><path clip-path="url(#clip850)" d="M114.26 1050.93 L143.936 1050.93 L143.936 1054.87 L114.26 1054.87 L114.26 1050.93 Z" fill="#000000" fill-rule="nonzero" fill-opacity="1" /><path clip-path="url(#clip850)" d="M154.839 1063.83 L162.477 1063.83 L162.477 1037.46 L154.167 1039.13 L154.167 1034.87 L162.431 1033.2 L167.107 1033.2 L167.107 1063.83 L174.746 1063.83 L174.746 1067.76 L154.839 1067.76 L154.839 1063.83 Z" fill="#000000" fill-rule="nonzero" fill-opacity="1" /><path clip-path="url(#clip850)" d="M184.237 1033.2 L202.593 1033.2 L202.593 1037.14 L188.519 1037.14 L188.519 1045.61 Q189.538 1045.26 190.556 1045.1 Q191.575 1044.92 192.593 1044.92 Q198.38 1044.92 201.76 1048.09 Q205.139 1051.26 205.139 1056.68 Q205.139 1062.25 201.667 1065.36 Q198.195 1068.43 191.875 1068.43 Q189.7 1068.43 187.431 1068.06 Q185.186 1067.69 182.778 1066.95 L182.778 1062.25 Q184.862 1063.39 187.084 1063.94 Q189.306 1064.5 191.783 1064.5 Q195.787 1064.5 198.125 1062.39 Q200.463 1060.29 200.463 1056.68 Q200.463 1053.06 198.125 1050.96 Q195.787 1048.85 191.783 1048.85 Q189.908 1048.85 188.033 1049.27 Q186.181 1049.68 184.237 1050.56 L184.237 1033.2 Z" fill="#000000" fill-rule="nonzero" fill-opacity="1" /><path clip-path="url(#clip850)" d="M224.352 1036.28 Q220.741 1036.28 218.912 1039.85 Q217.107 1043.39 217.107 1050.52 Q217.107 1057.62 218.912 1061.19 Q220.741 1064.73 224.352 1064.73 Q227.986 1064.73 229.792 1061.19 Q231.621 1057.62 231.621 1050.52 Q231.621 1043.39 229.792 1039.85 Q227.986 1036.28 224.352 1036.28 M224.352 1032.58 Q230.162 1032.58 233.218 1037.18 Q236.297 1041.77 236.297 1050.52 Q236.297 1059.24 233.218 1063.85 Q230.162 1068.43 224.352 1068.43 Q218.542 1068.43 215.463 1063.85 Q212.408 1059.24 212.408 1050.52 Q212.408 1041.77 215.463 1037.18 Q218.542 1032.58 224.352 1032.58 Z" fill="#000000" fill-rule="nonzero" fill-opacity="1" /><path clip-path="url(#clip850)" d="M254.514 1036.28 Q250.903 1036.28 249.074 1039.85 Q247.269 1043.39 247.269 1050.52 Q247.269 1057.62 249.074 1061.19 Q250.903 1064.73 254.514 1064.73 Q258.148 1064.73 259.954 1061.19 Q261.783 1057.62 261.783 1050.52 Q261.783 1043.39 259.954 1039.85 Q258.148 1036.28 254.514 1036.28 M254.514 1032.58 Q260.324 1032.58 263.38 1037.18 Q266.458 1041.77 266.458 1050.52 Q266.458 1059.24 263.38 1063.85 Q260.324 1068.43 254.514 1068.43 Q248.704 1068.43 245.625 1063.85 Q242.57 1059.24 242.57 1050.52 Q242.57 1041.77 245.625 1037.18 Q248.704 1032.58 254.514 1032.58 Z" fill="#000000" fill-rule="nonzero" fill-opacity="1" /><path clip-path="url(#clip850)" d="M284.676 1036.28 Q281.065 1036.28 279.236 1039.85 Q277.431 1043.39 277.431 1050.52 Q277.431 1057.62 279.236 1061.19 Q281.065 1064.73 284.676 1064.73 Q288.31 1064.73 290.116 1061.19 Q291.944 1057.62 291.944 1050.52 Q291.944 1043.39 290.116 1039.85 Q288.31 1036.28 284.676 1036.28 M284.676 1032.58 Q290.486 1032.58 293.542 1037.18 Q296.62 1041.77 296.62 1050.52 Q296.62 1059.24 293.542 1063.85 Q290.486 1068.43 284.676 1068.43 Q278.866 1068.43 275.787 1063.85 Q272.732 1059.24 272.732 1050.52 Q272.732 1041.77 275.787 1037.18 Q278.866 1032.58 284.676 1032.58 Z" fill="#000000" fill-rule="nonzero" fill-opacity="1" /><path clip-path="url(#clip850)" d="M114.26 794.332 L143.936 794.332 L143.936 798.267 L114.26 798.267 L114.26 794.332 Z" fill="#000000" fill-rule="nonzero" fill-opacity="1" /><path clip-path="url(#clip850)" d="M154.839 807.225 L162.477 807.225 L162.477 780.86 L154.167 782.526 L154.167 778.267 L162.431 776.6 L167.107 776.6 L167.107 807.225 L174.746 807.225 L174.746 811.16 L154.839 811.16 L154.839 807.225 Z" fill="#000000" fill-rule="nonzero" fill-opacity="1" /><path clip-path="url(#clip850)" d="M188.218 807.225 L204.537 807.225 L204.537 811.16 L182.593 811.16 L182.593 807.225 Q185.255 804.471 189.838 799.841 Q194.445 795.188 195.625 793.846 Q197.871 791.323 198.75 789.586 Q199.653 787.827 199.653 786.137 Q199.653 783.383 197.709 781.647 Q195.787 779.911 192.686 779.911 Q190.487 779.911 188.033 780.674 Q185.602 781.438 182.825 782.989 L182.825 778.267 Q185.649 777.133 188.102 776.554 Q190.556 775.975 192.593 775.975 Q197.963 775.975 201.158 778.661 Q204.352 781.346 204.352 785.836 Q204.352 787.966 203.542 789.887 Q202.755 791.785 200.649 794.378 Q200.07 795.049 196.968 798.267 Q193.866 801.461 188.218 807.225 Z" fill="#000000" fill-rule="nonzero" fill-opacity="1" /><path clip-path="url(#clip850)" d="M214.399 776.6 L232.755 776.6 L232.755 780.536 L218.681 780.536 L218.681 789.008 Q219.699 788.66 220.718 788.498 Q221.736 788.313 222.755 788.313 Q228.542 788.313 231.922 791.485 Q235.301 794.656 235.301 800.072 Q235.301 805.651 231.829 808.753 Q228.357 811.832 222.037 811.832 Q219.861 811.832 217.593 811.461 Q215.348 811.091 212.94 810.35 L212.94 805.651 Q215.024 806.785 217.246 807.341 Q219.468 807.897 221.945 807.897 Q225.949 807.897 228.287 805.79 Q230.625 803.684 230.625 800.072 Q230.625 796.461 228.287 794.355 Q225.949 792.248 221.945 792.248 Q220.07 792.248 218.195 792.665 Q216.343 793.082 214.399 793.961 L214.399 776.6 Z" fill="#000000" fill-rule="nonzero" fill-opacity="1" /><path clip-path="url(#clip850)" d="M254.514 779.679 Q250.903 779.679 249.074 783.244 Q247.269 786.786 247.269 793.915 Q247.269 801.022 249.074 804.586 Q250.903 808.128 254.514 808.128 Q258.148 808.128 259.954 804.586 Q261.783 801.022 261.783 793.915 Q261.783 786.786 259.954 783.244 Q258.148 779.679 254.514 779.679 M254.514 775.975 Q260.324 775.975 263.38 780.582 Q266.458 785.165 266.458 793.915 Q266.458 802.642 263.38 807.248 Q260.324 811.832 254.514 811.832 Q248.704 811.832 245.625 807.248 Q242.57 802.642 242.57 793.915 Q242.57 785.165 245.625 780.582 Q248.704 775.975 254.514 775.975 Z" fill="#000000" fill-rule="nonzero" fill-opacity="1" /><path clip-path="url(#clip850)" d="M284.676 779.679 Q281.065 779.679 279.236 783.244 Q277.431 786.786 277.431 793.915 Q277.431 801.022 279.236 804.586 Q281.065 808.128 284.676 808.128 Q288.31 808.128 290.116 804.586 Q291.944 801.022 291.944 793.915 Q291.944 786.786 290.116 783.244 Q288.31 779.679 284.676 779.679 M284.676 775.975 Q290.486 775.975 293.542 780.582 Q296.62 785.165 296.62 793.915 Q296.62 802.642 293.542 807.248 Q290.486 811.832 284.676 811.832 Q278.866 811.832 275.787 807.248 Q272.732 802.642 272.732 793.915 Q272.732 785.165 275.787 780.582 Q278.866 775.975 284.676 775.975 Z" fill="#000000" fill-rule="nonzero" fill-opacity="1" /><path clip-path="url(#clip850)" d="M114.26 537.729 L143.936 537.729 L143.936 541.664 L114.26 541.664 L114.26 537.729 Z" fill="#000000" fill-rule="nonzero" fill-opacity="1" /><path clip-path="url(#clip850)" d="M154.839 550.623 L162.477 550.623 L162.477 524.257 L154.167 525.924 L154.167 521.664 L162.431 519.998 L167.107 519.998 L167.107 550.623 L174.746 550.623 L174.746 554.558 L154.839 554.558 L154.839 550.623 Z" fill="#000000" fill-rule="nonzero" fill-opacity="1" /><path clip-path="url(#clip850)" d="M194.19 523.076 Q190.579 523.076 188.75 526.641 Q186.945 530.183 186.945 537.312 Q186.945 544.419 188.75 547.984 Q190.579 551.525 194.19 551.525 Q197.825 551.525 199.63 547.984 Q201.459 544.419 201.459 537.312 Q201.459 530.183 199.63 526.641 Q197.825 523.076 194.19 523.076 M194.19 519.373 Q200 519.373 203.056 523.979 Q206.135 528.562 206.135 537.312 Q206.135 546.039 203.056 550.646 Q200 555.229 194.19 555.229 Q188.38 555.229 185.301 550.646 Q182.246 546.039 182.246 537.312 Q182.246 528.562 185.301 523.979 Q188.38 519.373 194.19 519.373 Z" fill="#000000" fill-rule="nonzero" fill-opacity="1" /><path clip-path="url(#clip850)" d="M224.352 523.076 Q220.741 523.076 218.912 526.641 Q217.107 530.183 217.107 537.312 Q217.107 544.419 218.912 547.984 Q220.741 551.525 224.352 551.525 Q227.986 551.525 229.792 547.984 Q231.621 544.419 231.621 537.312 Q231.621 530.183 229.792 526.641 Q227.986 523.076 224.352 523.076 M224.352 519.373 Q230.162 519.373 233.218 523.979 Q236.297 528.562 236.297 537.312 Q236.297 546.039 233.218 550.646 Q230.162 555.229 224.352 555.229 Q218.542 555.229 215.463 550.646 Q212.408 546.039 212.408 537.312 Q212.408 528.562 215.463 523.979 Q218.542 519.373 224.352 519.373 Z" fill="#000000" fill-rule="nonzero" fill-opacity="1" /><path clip-path="url(#clip850)" d="M254.514 523.076 Q250.903 523.076 249.074 526.641 Q247.269 530.183 247.269 537.312 Q247.269 544.419 249.074 547.984 Q250.903 551.525 254.514 551.525 Q258.148 551.525 259.954 547.984 Q261.783 544.419 261.783 537.312 Q261.783 530.183 259.954 526.641 Q258.148 523.076 254.514 523.076 M254.514 519.373 Q260.324 519.373 263.38 523.979 Q266.458 528.562 266.458 537.312 Q266.458 546.039 263.38 550.646 Q260.324 555.229 254.514 555.229 Q248.704 555.229 245.625 550.646 Q242.57 546.039 242.57 537.312 Q242.57 528.562 245.625 523.979 Q248.704 519.373 254.514 519.373 Z" fill="#000000" fill-rule="nonzero" fill-opacity="1" /><path clip-path="url(#clip850)" d="M284.676 523.076 Q281.065 523.076 279.236 526.641 Q277.431 530.183 277.431 537.312 Q277.431 544.419 279.236 547.984 Q281.065 551.525 284.676 551.525 Q288.31 551.525 290.116 547.984 Q291.944 544.419 291.944 537.312 Q291.944 530.183 290.116 526.641 Q288.31 523.076 284.676 523.076 M284.676 519.373 Q290.486 519.373 293.542 523.979 Q296.62 528.562 296.62 537.312 Q296.62 546.039 293.542 550.646 Q290.486 555.229 284.676 555.229 Q278.866 555.229 275.787 550.646 Q272.732 546.039 272.732 537.312 Q272.732 528.562 275.787 523.979 Q278.866 519.373 284.676 519.373 Z" fill="#000000" fill-rule="nonzero" fill-opacity="1" /><path clip-path="url(#clip850)" d="M144.422 281.126 L174.098 281.126 L174.098 285.062 L144.422 285.062 L144.422 281.126 Z" fill="#000000" fill-rule="nonzero" fill-opacity="1" /><path clip-path="url(#clip850)" d="M183.01 263.395 L205.232 263.395 L205.232 265.386 L192.686 297.955 L187.801 297.955 L199.607 267.33 L183.01 267.33 L183.01 263.395 Z" fill="#000000" fill-rule="nonzero" fill-opacity="1" /><path clip-path="url(#clip850)" d="M214.399 263.395 L232.755 263.395 L232.755 267.33 L218.681 267.33 L218.681 275.802 Q219.699 275.455 220.718 275.293 Q221.736 275.108 222.755 275.108 Q228.542 275.108 231.922 278.279 Q235.301 281.45 235.301 286.867 Q235.301 292.446 231.829 295.548 Q228.357 298.626 222.037 298.626 Q219.861 298.626 217.593 298.256 Q215.348 297.886 212.94 297.145 L212.94 292.446 Q215.024 293.58 217.246 294.136 Q219.468 294.691 221.945 294.691 Q225.949 294.691 228.287 292.585 Q230.625 290.478 230.625 286.867 Q230.625 283.256 228.287 281.15 Q225.949 279.043 221.945 279.043 Q220.07 279.043 218.195 279.46 Q216.343 279.876 214.399 280.756 L214.399 263.395 Z" fill="#000000" fill-rule="nonzero" fill-opacity="1" /><path clip-path="url(#clip850)" d="M254.514 266.474 Q250.903 266.474 249.074 270.039 Q247.269 273.58 247.269 280.71 Q247.269 287.816 249.074 291.381 Q250.903 294.923 254.514 294.923 Q258.148 294.923 259.954 291.381 Q261.783 287.816 261.783 280.71 Q261.783 273.58 259.954 270.039 Q258.148 266.474 254.514 266.474 M254.514 262.77 Q260.324 262.77 263.38 267.376 Q266.458 271.96 266.458 280.71 Q266.458 289.437 263.38 294.043 Q260.324 298.626 254.514 298.626 Q248.704 298.626 245.625 294.043 Q242.57 289.437 242.57 280.71 Q242.57 271.96 245.625 267.376 Q248.704 262.77 254.514 262.77 Z" fill="#000000" fill-rule="nonzero" fill-opacity="1" /><path clip-path="url(#clip850)" d="M284.676 266.474 Q281.065 266.474 279.236 270.039 Q277.431 273.58 277.431 280.71 Q277.431 287.816 279.236 291.381 Q281.065 294.923 284.676 294.923 Q288.31 294.923 290.116 291.381 Q291.944 287.816 291.944 280.71 Q291.944 273.58 290.116 270.039 Q288.31 266.474 284.676 266.474 M284.676 262.77 Q290.486 262.77 293.542 267.376 Q296.62 271.96 296.62 280.71 Q296.62 289.437 293.542 294.043 Q290.486 298.626 284.676 298.626 Q278.866 298.626 275.787 294.043 Q272.732 289.437 272.732 280.71 Q272.732 271.96 275.787 267.376 Q278.866 262.77 284.676 262.77 Z" fill="#000000" fill-rule="nonzero" fill-opacity="1" /><path clip-path="url(#clip850)" d="M16.4842 816.375 L16.4842 786.329 L21.895 786.329 L21.895 809.945 L35.9632 809.945 L35.9632 787.315 L41.3741 787.315 L41.3741 809.945 L58.5933 809.945 L58.5933 785.756 L64.0042 785.756 L64.0042 816.375 L16.4842 816.375 Z" fill="#000000" fill-rule="nonzero" fill-opacity="1" /><path clip-path="url(#clip850)" d="M16.4842 775.189 L16.4842 768.759 L58.5933 768.759 L58.5933 745.62 L64.0042 745.62 L64.0042 775.189 L16.4842 775.189 Z" fill="#000000" fill-rule="nonzero" fill-opacity="1" /><path clip-path="url(#clip850)" d="M41.3104 732.443 L58.7206 732.443 L58.7206 722.13 Q58.7206 716.942 56.5881 714.46 Q54.4238 711.945 49.9996 711.945 Q45.5436 711.945 43.4429 714.46 Q41.3104 716.942 41.3104 722.13 L41.3104 732.443 M21.7677 732.443 L36.0905 732.443 L36.0905 722.926 Q36.0905 718.216 34.34 715.924 Q32.5576 713.6 28.9291 713.6 Q25.3325 713.6 23.5501 715.924 Q21.7677 718.216 21.7677 722.926 L21.7677 732.443 M16.4842 738.872 L16.4842 722.449 Q16.4842 715.096 19.5397 711.118 Q22.5952 707.139 28.2289 707.139 Q32.5894 707.139 35.1675 709.176 Q37.7456 711.213 38.3822 715.16 Q39.4007 710.418 42.6472 707.808 Q45.8619 705.166 50.6998 705.166 Q57.0655 705.166 60.5348 709.495 Q64.0042 713.823 64.0042 721.812 L64.0042 738.872 L16.4842 738.872 Z" fill="#000000" fill-rule="nonzero" fill-opacity="1" /><path clip-path="url(#clip850)" d="M20.8447 676.011 Q20.8447 683.013 26.0645 687.151 Q31.2844 691.257 40.2919 691.257 Q49.2675 691.257 54.4874 687.151 Q59.7073 683.013 59.7073 676.011 Q59.7073 669.009 54.4874 664.935 Q49.2675 660.829 40.2919 660.829 Q31.2844 660.829 26.0645 664.935 Q20.8447 669.009 20.8447 676.011 M15.6248 676.011 Q15.6248 666.017 22.3406 660.033 Q29.0246 654.049 40.2919 654.049 Q51.5274 654.049 58.2432 660.033 Q64.9272 666.017 64.9272 676.011 Q64.9272 686.037 58.2432 692.052 Q51.5592 698.036 40.2919 698.036 Q29.0246 698.036 22.3406 692.052 Q15.6248 686.037 15.6248 676.011 Z" fill="#000000" fill-rule="nonzero" fill-opacity="1" /><polyline clip-path="url(#clip851)" style="stroke:#009af9; stroke-linecap:round; stroke-linejoin:round; stroke-width:4; stroke-opacity:1; fill:none" points="446.092,1384.24 512.637,785.516 571.6,451.06 630.022,316.046 688.571,259.077 746.892,218.162 805.642,204.392 864.195,193.417 921.967,187.802 1021.98,181.815 1082.2,168.972 1142.01,166.531 1200.49,160.603 1259.3,157.265 1317.68,159.502 1376.12,151.953 1434.15,146.149 1492.09,138.324 1549.48,133.261 1606.58,130.398 1663.54,124.675 1720.79,118.858 1777.75,120.016 1835.57,113.503 1893.13,107.502 1950.58,106.369 2008.14,104.728 2066.09,97.3215 2123.03,93.1462 2180.36,88.4646 2237.79,87.4933 2295.58,86.1857 "/>
<polyline clip-path="url(#clip851)" style="stroke:#e26f46; stroke-linecap:round; stroke-linejoin:round; stroke-width:4; stroke-opacity:1; fill:none" points="389.794,1354.62 417.048,783.125 426.692,815.949 435.96,488.241 445.512,345.162 454.795,273.571 464.084,245.233 473.364,215.156 483.001,199.192 492.383,192.724 501.875,182.19 511.249,174.19 521.04,165.93 530.409,155.775 539.809,156.585 549.505,152.085 558.939,150.469 568.276,146.992 577.625,143.396 587.308,141.456 596.65,138.379 606.003,137.715 615.389,136.399 625.037,130.682 634.396,131.377 643.716,128.672 653.016,123.144 662.683,122.723 671.94,118.149 681.214,110.755 690.536,109.207 700.185,112.74 "/>
<path clip-path="url(#clip850)" d="M1784.1 1377.32 L2285.42 1377.32 L2285.42 1221.8 L1784.1 1221.8  Z" fill="#ffffff" fill-rule="evenodd" fill-opacity="1"/>
<polyline clip-path="url(#clip850)" style="stroke:#000000; stroke-linecap:round; stroke-linejoin:round; stroke-width:4; stroke-opacity:1; fill:none" points="1784.1,1377.32 2285.42,1377.32 2285.42,1221.8 1784.1,1221.8 1784.1,1377.32 "/>
<polyline clip-path="url(#clip850)" style="stroke:#009af9; stroke-linecap:round; stroke-linejoin:round; stroke-width:4; stroke-opacity:1; fill:none" points="1806.55,1273.64 1941.22,1273.64 "/>
<path clip-path="url(#clip850)" d="M1963.67 1256.36 L1983.53 1256.36 L1983.53 1260.29 L1968.34 1260.29 L1968.34 1270.48 L1982.05 1270.48 L1982.05 1274.41 L1968.34 1274.41 L1968.34 1290.92 L1963.67 1290.92 L1963.67 1256.36 Z" fill="#000000" fill-rule="nonzero" fill-opacity="1" /><path clip-path="url(#clip850)" d="M1987.72 1280.68 L1987.72 1264.99 L1991.98 1264.99 L1991.98 1280.52 Q1991.98 1284.2 1993.41 1286.05 Q1994.85 1287.88 1997.72 1287.88 Q2001.17 1287.88 2003.16 1285.68 Q2005.17 1283.48 2005.17 1279.69 L2005.17 1264.99 L2009.43 1264.99 L2009.43 1290.92 L2005.17 1290.92 L2005.17 1286.93 Q2003.62 1289.29 2001.56 1290.45 Q1999.52 1291.59 1996.82 1291.59 Q1992.35 1291.59 1990.03 1288.81 Q1987.72 1286.03 1987.72 1280.68 M1998.44 1264.36 L1998.44 1264.36 Z" fill="#000000" fill-rule="nonzero" fill-opacity="1" /><path clip-path="url(#clip850)" d="M2018.2 1254.9 L2022.46 1254.9 L2022.46 1290.92 L2018.2 1290.92 L2018.2 1254.9 Z" fill="#000000" fill-rule="nonzero" fill-opacity="1" /><path clip-path="url(#clip850)" d="M2031.38 1254.9 L2035.64 1254.9 L2035.64 1290.92 L2031.38 1290.92 L2031.38 1254.9 Z" fill="#000000" fill-rule="nonzero" fill-opacity="1" /><path clip-path="url(#clip850)" d="M2064.48 1274.41 L2064.48 1287.07 L2071.98 1287.07 Q2075.75 1287.07 2077.56 1285.52 Q2079.39 1283.95 2079.39 1280.73 Q2079.39 1277.49 2077.56 1275.96 Q2075.75 1274.41 2071.98 1274.41 L2064.48 1274.41 M2064.48 1260.2 L2064.48 1270.61 L2071.4 1270.61 Q2074.82 1270.61 2076.49 1269.34 Q2078.18 1268.05 2078.18 1265.41 Q2078.18 1262.79 2076.49 1261.49 Q2074.82 1260.2 2071.4 1260.2 L2064.48 1260.2 M2059.8 1256.36 L2071.75 1256.36 Q2077.09 1256.36 2079.99 1258.58 Q2082.88 1260.8 2082.88 1264.9 Q2082.88 1268.07 2081.4 1269.94 Q2079.92 1271.82 2077.05 1272.28 Q2080.5 1273.02 2082.39 1275.38 Q2084.32 1277.72 2084.32 1281.24 Q2084.32 1285.87 2081.17 1288.39 Q2078.02 1290.92 2072.21 1290.92 L2059.8 1290.92 L2059.8 1256.36 Z" fill="#000000" fill-rule="nonzero" fill-opacity="1" /><path clip-path="url(#clip850)" d="M2103.92 1277.88 Q2098.76 1277.88 2096.77 1279.06 Q2094.78 1280.24 2094.78 1283.09 Q2094.78 1285.36 2096.26 1286.7 Q2097.76 1288.02 2100.33 1288.02 Q2103.88 1288.02 2106.01 1285.52 Q2108.16 1283 2108.16 1278.83 L2108.16 1277.88 L2103.92 1277.88 M2112.42 1276.12 L2112.42 1290.92 L2108.16 1290.92 L2108.16 1286.98 Q2106.7 1289.34 2104.52 1290.48 Q2102.35 1291.59 2099.2 1291.59 Q2095.22 1291.59 2092.86 1289.36 Q2090.52 1287.12 2090.52 1283.37 Q2090.52 1278.99 2093.44 1276.77 Q2096.38 1274.55 2102.19 1274.55 L2108.16 1274.55 L2108.16 1274.13 Q2108.16 1271.19 2106.21 1269.6 Q2104.29 1267.98 2100.8 1267.98 Q2098.57 1267.98 2096.47 1268.51 Q2094.36 1269.04 2092.42 1270.11 L2092.42 1266.17 Q2094.76 1265.27 2096.95 1264.83 Q2099.15 1264.36 2101.24 1264.36 Q2106.86 1264.36 2109.64 1267.28 Q2112.42 1270.2 2112.42 1276.12 Z" fill="#000000" fill-rule="nonzero" fill-opacity="1" /><path clip-path="url(#clip850)" d="M2125.4 1257.63 L2125.4 1264.99 L2134.18 1264.99 L2134.18 1268.3 L2125.4 1268.3 L2125.4 1282.37 Q2125.4 1285.54 2126.26 1286.45 Q2127.14 1287.35 2129.8 1287.35 L2134.18 1287.35 L2134.18 1290.92 L2129.8 1290.92 Q2124.87 1290.92 2123 1289.09 Q2121.12 1287.23 2121.12 1282.37 L2121.12 1268.3 L2118 1268.3 L2118 1264.99 L2121.12 1264.99 L2121.12 1257.63 L2125.4 1257.63 Z" fill="#000000" fill-rule="nonzero" fill-opacity="1" /><path clip-path="url(#clip850)" d="M2158.44 1265.98 L2158.44 1269.97 Q2156.63 1268.97 2154.8 1268.48 Q2153 1267.98 2151.14 1267.98 Q2147 1267.98 2144.71 1270.61 Q2142.42 1273.23 2142.42 1277.98 Q2142.42 1282.72 2144.71 1285.36 Q2147 1287.98 2151.14 1287.98 Q2153 1287.98 2154.8 1287.49 Q2156.63 1286.98 2158.44 1285.98 L2158.44 1289.92 Q2156.65 1290.75 2154.73 1291.17 Q2152.83 1291.59 2150.68 1291.59 Q2144.82 1291.59 2141.38 1287.91 Q2137.93 1284.23 2137.93 1277.98 Q2137.93 1271.63 2141.4 1268 Q2144.89 1264.36 2150.96 1264.36 Q2152.93 1264.36 2154.8 1264.78 Q2156.68 1265.17 2158.44 1265.98 Z" fill="#000000" fill-rule="nonzero" fill-opacity="1" /><path clip-path="url(#clip850)" d="M2187.39 1275.27 L2187.39 1290.92 L2183.13 1290.92 L2183.13 1275.41 Q2183.13 1271.73 2181.7 1269.9 Q2180.26 1268.07 2177.39 1268.07 Q2173.94 1268.07 2171.95 1270.27 Q2169.96 1272.47 2169.96 1276.26 L2169.96 1290.92 L2165.68 1290.92 L2165.68 1254.9 L2169.96 1254.9 L2169.96 1269.02 Q2171.49 1266.68 2173.55 1265.52 Q2175.63 1264.36 2178.34 1264.36 Q2182.81 1264.36 2185.1 1267.14 Q2187.39 1269.9 2187.39 1275.27 Z" fill="#000000" fill-rule="nonzero" fill-opacity="1" /><polyline clip-path="url(#clip850)" style="stroke:#e26f46; stroke-linecap:round; stroke-linejoin:round; stroke-width:4; stroke-opacity:1; fill:none" points="1806.55,1325.48 1941.22,1325.48 "/>
<path clip-path="url(#clip850)" d="M1985.91 1309.33 L1985.91 1313.89 Q1983.25 1312.62 1980.89 1311.99 Q1978.53 1311.37 1976.33 1311.37 Q1972.51 1311.37 1970.43 1312.85 Q1968.37 1314.33 1968.37 1317.06 Q1968.37 1319.35 1969.73 1320.53 Q1971.12 1321.69 1974.96 1322.41 L1977.79 1322.99 Q1983.02 1323.98 1985.5 1326.51 Q1988 1329.01 1988 1333.22 Q1988 1338.24 1984.62 1340.83 Q1981.26 1343.43 1974.76 1343.43 Q1972.3 1343.43 1969.52 1342.87 Q1966.77 1342.32 1963.81 1341.23 L1963.81 1336.41 Q1966.65 1338.01 1969.39 1338.82 Q1972.12 1339.63 1974.76 1339.63 Q1978.76 1339.63 1980.94 1338.06 Q1983.11 1336.48 1983.11 1333.57 Q1983.11 1331.02 1981.54 1329.58 Q1979.99 1328.15 1976.42 1327.43 L1973.58 1326.88 Q1968.34 1325.83 1966.01 1323.61 Q1963.67 1321.39 1963.67 1317.43 Q1963.67 1312.85 1966.89 1310.21 Q1970.13 1307.57 1975.8 1307.57 Q1978.23 1307.57 1980.75 1308.01 Q1983.27 1308.45 1985.91 1309.33 Z" fill="#000000" fill-rule="nonzero" fill-opacity="1" /><path clip-path="url(#clip850)" d="M1994.66 1332.52 L1994.66 1316.83 L1998.92 1316.83 L1998.92 1332.36 Q1998.92 1336.04 2000.36 1337.89 Q2001.79 1339.72 2004.66 1339.72 Q2008.11 1339.72 2010.1 1337.52 Q2012.12 1335.32 2012.12 1331.53 L2012.12 1316.83 L2016.38 1316.83 L2016.38 1342.76 L2012.12 1342.76 L2012.12 1338.77 Q2010.57 1341.13 2008.51 1342.29 Q2006.47 1343.43 2003.76 1343.43 Q1999.29 1343.43 1996.98 1340.65 Q1994.66 1337.87 1994.66 1332.52 M2005.38 1316.2 L2005.38 1316.2 Z" fill="#000000" fill-rule="nonzero" fill-opacity="1" /><path clip-path="url(#clip850)" d="M2043.76 1329.82 Q2043.76 1325.12 2041.82 1322.45 Q2039.89 1319.77 2036.51 1319.77 Q2033.14 1319.77 2031.19 1322.45 Q2029.27 1325.12 2029.27 1329.82 Q2029.27 1334.51 2031.19 1337.2 Q2033.14 1339.86 2036.51 1339.86 Q2039.89 1339.86 2041.82 1337.2 Q2043.76 1334.51 2043.76 1329.82 M2029.27 1320.76 Q2030.61 1318.45 2032.65 1317.34 Q2034.71 1316.2 2037.56 1316.2 Q2042.28 1316.2 2045.22 1319.95 Q2048.18 1323.7 2048.18 1329.82 Q2048.18 1335.93 2045.22 1339.68 Q2042.28 1343.43 2037.56 1343.43 Q2034.71 1343.43 2032.65 1342.32 Q2030.61 1341.18 2029.27 1338.87 L2029.27 1342.76 L2024.99 1342.76 L2024.99 1306.74 L2029.27 1306.74 L2029.27 1320.76 Z" fill="#000000" fill-rule="nonzero" fill-opacity="1" /><path clip-path="url(#clip850)" d="M2071.77 1317.59 L2071.77 1321.62 Q2069.96 1320.7 2068.02 1320.23 Q2066.08 1319.77 2063.99 1319.77 Q2060.82 1319.77 2059.22 1320.74 Q2057.65 1321.71 2057.65 1323.66 Q2057.65 1325.14 2058.78 1326 Q2059.92 1326.83 2063.34 1327.59 L2064.8 1327.92 Q2069.34 1328.89 2071.24 1330.67 Q2073.16 1332.43 2073.16 1335.6 Q2073.16 1339.21 2070.29 1341.32 Q2067.44 1343.43 2062.44 1343.43 Q2060.36 1343.43 2058.09 1343.01 Q2055.84 1342.62 2053.34 1341.81 L2053.34 1337.41 Q2055.7 1338.63 2058 1339.26 Q2060.29 1339.86 2062.53 1339.86 Q2065.54 1339.86 2067.16 1338.84 Q2068.78 1337.8 2068.78 1335.93 Q2068.78 1334.19 2067.6 1333.26 Q2066.45 1332.34 2062.49 1331.48 L2061.01 1331.14 Q2057.05 1330.3 2055.29 1328.59 Q2053.53 1326.85 2053.53 1323.84 Q2053.53 1320.19 2056.12 1318.2 Q2058.71 1316.2 2063.48 1316.2 Q2065.84 1316.2 2067.93 1316.55 Q2070.01 1316.9 2071.77 1317.59 Z" fill="#000000" fill-rule="nonzero" fill-opacity="1" /><path clip-path="url(#clip850)" d="M2091.72 1329.72 Q2086.56 1329.72 2084.57 1330.9 Q2082.58 1332.08 2082.58 1334.93 Q2082.58 1337.2 2084.06 1338.54 Q2085.57 1339.86 2088.14 1339.86 Q2091.68 1339.86 2093.81 1337.36 Q2095.96 1334.84 2095.96 1330.67 L2095.96 1329.72 L2091.72 1329.72 M2100.22 1327.96 L2100.22 1342.76 L2095.96 1342.76 L2095.96 1338.82 Q2094.5 1341.18 2092.32 1342.32 Q2090.15 1343.43 2087 1343.43 Q2083.02 1343.43 2080.66 1341.2 Q2078.32 1338.96 2078.32 1335.21 Q2078.32 1330.83 2081.24 1328.61 Q2084.18 1326.39 2089.99 1326.39 L2095.96 1326.39 L2095.96 1325.97 Q2095.96 1323.03 2094.01 1321.44 Q2092.09 1319.82 2088.6 1319.82 Q2086.38 1319.82 2084.27 1320.35 Q2082.16 1320.88 2080.22 1321.95 L2080.22 1318.01 Q2082.56 1317.11 2084.76 1316.67 Q2086.95 1316.2 2089.04 1316.2 Q2094.66 1316.2 2097.44 1319.12 Q2100.22 1322.04 2100.22 1327.96 Z" fill="#000000" fill-rule="nonzero" fill-opacity="1" /><path clip-path="url(#clip850)" d="M2129.18 1321.81 Q2130.77 1318.94 2133 1317.57 Q2135.22 1316.2 2138.23 1316.2 Q2142.28 1316.2 2144.48 1319.05 Q2146.68 1321.88 2146.68 1327.11 L2146.68 1342.76 L2142.39 1342.76 L2142.39 1327.25 Q2142.39 1323.52 2141.07 1321.71 Q2139.76 1319.91 2137.05 1319.91 Q2133.74 1319.91 2131.82 1322.11 Q2129.89 1324.31 2129.89 1328.1 L2129.89 1342.76 L2125.61 1342.76 L2125.61 1327.25 Q2125.61 1323.5 2124.29 1321.71 Q2122.97 1319.91 2120.22 1319.91 Q2116.95 1319.91 2115.03 1322.13 Q2113.11 1324.33 2113.11 1328.1 L2113.11 1342.76 L2108.83 1342.76 L2108.83 1316.83 L2113.11 1316.83 L2113.11 1320.86 Q2114.57 1318.47 2116.61 1317.34 Q2118.64 1316.2 2121.45 1316.2 Q2124.27 1316.2 2126.24 1317.64 Q2128.23 1319.07 2129.18 1321.81 Z" fill="#000000" fill-rule="nonzero" fill-opacity="1" /><path clip-path="url(#clip850)" d="M2159.29 1338.87 L2159.29 1352.62 L2155.01 1352.62 L2155.01 1316.83 L2159.29 1316.83 L2159.29 1320.76 Q2160.63 1318.45 2162.67 1317.34 Q2164.73 1316.2 2167.58 1316.2 Q2172.3 1316.2 2175.24 1319.95 Q2178.2 1323.7 2178.2 1329.82 Q2178.2 1335.93 2175.24 1339.68 Q2172.3 1343.43 2167.58 1343.43 Q2164.73 1343.43 2162.67 1342.32 Q2160.63 1341.18 2159.29 1338.87 M2173.78 1329.82 Q2173.78 1325.12 2171.84 1322.45 Q2169.92 1319.77 2166.54 1319.77 Q2163.16 1319.77 2161.21 1322.45 Q2159.29 1325.12 2159.29 1329.82 Q2159.29 1334.51 2161.21 1337.2 Q2163.16 1339.86 2166.54 1339.86 Q2169.92 1339.86 2171.84 1337.2 Q2173.78 1334.51 2173.78 1329.82 Z" fill="#000000" fill-rule="nonzero" fill-opacity="1" /><path clip-path="url(#clip850)" d="M2185.26 1306.74 L2189.52 1306.74 L2189.52 1342.76 L2185.26 1342.76 L2185.26 1306.74 Z" fill="#000000" fill-rule="nonzero" fill-opacity="1" /><path clip-path="url(#clip850)" d="M2198.44 1316.83 L2202.69 1316.83 L2202.69 1342.76 L2198.44 1342.76 L2198.44 1316.83 M2198.44 1306.74 L2202.69 1306.74 L2202.69 1312.13 L2198.44 1312.13 L2198.44 1306.74 Z" fill="#000000" fill-rule="nonzero" fill-opacity="1" /><path clip-path="url(#clip850)" d="M2233.16 1327.11 L2233.16 1342.76 L2228.9 1342.76 L2228.9 1327.25 Q2228.9 1323.57 2227.46 1321.74 Q2226.03 1319.91 2223.16 1319.91 Q2219.71 1319.91 2217.72 1322.11 Q2215.73 1324.31 2215.73 1328.1 L2215.73 1342.76 L2211.44 1342.76 L2211.44 1316.83 L2215.73 1316.83 L2215.73 1320.86 Q2217.25 1318.52 2219.31 1317.36 Q2221.4 1316.2 2224.11 1316.2 Q2228.57 1316.2 2230.87 1318.98 Q2233.16 1321.74 2233.16 1327.11 Z" fill="#000000" fill-rule="nonzero" fill-opacity="1" /><path clip-path="url(#clip850)" d="M2258.71 1329.49 Q2258.71 1324.86 2256.79 1322.32 Q2254.89 1319.77 2251.44 1319.77 Q2248.02 1319.77 2246.1 1322.32 Q2244.2 1324.86 2244.2 1329.49 Q2244.2 1334.1 2246.1 1336.64 Q2248.02 1339.19 2251.44 1339.19 Q2254.89 1339.19 2256.79 1336.64 Q2258.71 1334.1 2258.71 1329.49 M2262.97 1339.54 Q2262.97 1346.16 2260.03 1349.38 Q2257.09 1352.62 2251.03 1352.62 Q2248.78 1352.62 2246.79 1352.27 Q2244.8 1351.95 2242.93 1351.25 L2242.93 1347.11 Q2244.8 1348.13 2246.63 1348.61 Q2248.46 1349.1 2250.36 1349.1 Q2254.55 1349.1 2256.63 1346.9 Q2258.71 1344.72 2258.71 1340.3 L2258.71 1338.2 Q2257.39 1340.49 2255.33 1341.62 Q2253.27 1342.76 2250.4 1342.76 Q2245.63 1342.76 2242.72 1339.12 Q2239.8 1335.49 2239.8 1329.49 Q2239.8 1323.47 2242.72 1319.84 Q2245.63 1316.2 2250.4 1316.2 Q2253.27 1316.2 2255.33 1317.34 Q2257.39 1318.47 2258.71 1320.76 L2258.71 1316.83 L2262.97 1316.83 L2262.97 1339.54 Z" fill="#000000" fill-rule="nonzero" fill-opacity="1" /></svg>
