<?xml version="1.0" encoding="utf-8"?>
<svg xmlns="http://www.w3.org/2000/svg" xmlns:xlink="http://www.w3.org/1999/xlink" width="600" height="400" viewBox="0 0 2400 1600">
<defs>
  <clipPath id="clip780">
    <rect x="0" y="0" width="2400" height="1600"/>
  </clipPath>
</defs>
<path clip-path="url(#clip780)" d="M0 1600 L2400 1600 L2400 0 L0 0  Z" fill="#ffffff" fill-rule="evenodd" fill-opacity="1"/>
<defs>
  <clipPath id="clip781">
    <rect x="332" y="47" width="2021" height="1377"/>
  </clipPath>
</defs>
<path clip-path="url(#clip780)" d="M332.62 1423.18 L2352.76 1423.18 L2352.76 47.2441 L332.62 47.2441  Z" fill="#ffffff" fill-rule="evenodd" fill-opacity="1"/>
<polyline clip-path="url(#clip781)" style="stroke:#000000; stroke-linecap:round; stroke-linejoin:round; stroke-width:2; stroke-opacity:0.1; fill:none" points="351.657,1423.18 351.657,47.2441 "/>
<polyline clip-path="url(#clip781)" style="stroke:#000000; stroke-linecap:round; stroke-linejoin:round; stroke-width:2; stroke-opacity:0.1; fill:none" points="691.457,1423.18 691.457,47.2441 "/>
<polyline clip-path="url(#clip781)" style="stroke:#000000; stroke-linecap:round; stroke-linejoin:round; stroke-width:2; stroke-opacity:0.1; fill:none" points="1031.26,1423.18 1031.26,47.2441 "/>
<polyline clip-path="url(#clip781)" style="stroke:#000000; stroke-linecap:round; stroke-linejoin:round; stroke-width:2; stroke-opacity:0.1; fill:none" points="1371.06,1423.18 1371.06,47.2441 "/>
<polyline clip-path="url(#clip781)" style="stroke:#000000; stroke-linecap:round; stroke-linejoin:round; stroke-width:2; stroke-opacity:0.1; fill:none" points="1710.86,1423.18 1710.86,47.2441 "/>
<polyline clip-path="url(#clip781)" style="stroke:#000000; stroke-linecap:round; stroke-linejoin:round; stroke-width:2; stroke-opacity:0.1; fill:none" points="2050.66,1423.18 2050.66,47.2441 "/>
<polyline clip-path="url(#clip781)" style="stroke:#000000; stroke-linecap:round; stroke-linejoin:round; stroke-width:2; stroke-opacity:0.1; fill:none" points="332.62,1241.76 2352.76,1241.76 "/>
<polyline clip-path="url(#clip781)" style="stroke:#000000; stroke-linecap:round; stroke-linejoin:round; stroke-width:2; stroke-opacity:0.1; fill:none" points="332.62,999.197 2352.76,999.197 "/>
<polyline clip-path="url(#clip781)" style="stroke:#000000; stroke-linecap:round; stroke-linejoin:round; stroke-width:2; stroke-opacity:0.1; fill:none" points="332.62,756.633 2352.76,756.633 "/>
<polyline clip-path="url(#clip781)" style="stroke:#000000; stroke-linecap:round; stroke-linejoin:round; stroke-width:2; stroke-opacity:0.1; fill:none" points="332.62,514.068 2352.76,514.068 "/>
<polyline clip-path="url(#clip781)" style="stroke:#000000; stroke-linecap:round; stroke-linejoin:round; stroke-width:2; stroke-opacity:0.1; fill:none" points="332.62,271.504 2352.76,271.504 "/>
<polyline clip-path="url(#clip780)" style="stroke:#000000; stroke-linecap:round; stroke-linejoin:round; stroke-width:4; stroke-opacity:1; fill:none" points="332.62,1423.18 2352.76,1423.18 "/>
<polyline clip-path="url(#clip780)" style="stroke:#000000; stroke-linecap:round; stroke-linejoin:round; stroke-width:4; stroke-opacity:1; fill:none" points="351.657,1423.18 351.657,1404.28 "/>
<polyline clip-path="url(#clip780)" style="stroke:#000000; stroke-linecap:round; stroke-linejoin:round; stroke-width:4; stroke-opacity:1; fill:none" points="691.457,1423.18 691.457,1404.28 "/>
<polyline clip-path="url(#clip780)" style="stroke:#000000; stroke-linecap:round; stroke-linejoin:round; stroke-width:4; stroke-opacity:1; fill:none" points="1031.26,1423.18 1031.26,1404.28 "/>
<polyline clip-path="url(#clip780)" style="stroke:#000000; stroke-linecap:round; stroke-linejoin:round; stroke-width:4; stroke-opacity:1; fill:none" points="1371.06,1423.18 1371.06,1404.28 "/>
<polyline clip-path="url(#clip780)" style="stroke:#000000; stroke-linecap:round; stroke-linejoin:round; stroke-width:4; stroke-opacity:1; fill:none" points="1710.86,1423.18 1710.86,1404.28 "/>
<polyline clip-path="url(#clip780)" style="stroke:#000000; stroke-linecap:round; stroke-linejoin:round; stroke-width:4; stroke-opacity:1; fill:none" points="2050.66,1423.18 2050.66,1404.28 "/>
<path clip-path="url(#clip780)" d="M351.657 1454.1 Q348.046 1454.1 346.217 1457.66 Q344.412 1461.2 344.412 1468.33 Q344.412 1475.44 346.217 1479.01 Q348.046 1482.55 351.657 1482.55 Q355.291 1482.55 357.097 1479.01 Q358.925 1475.44 358.925 1468.33 Q358.925 1461.2 357.097 1457.66 Q355.291 1454.1 351.657 1454.1 M351.657 1450.39 Q357.467 1450.39 360.523 1455 Q363.601 1459.58 363.601 1468.33 Q363.601 1477.06 360.523 1481.67 Q357.467 1486.25 351.657 1486.25 Q345.847 1486.25 342.768 1481.67 Q339.713 1477.06 339.713 1468.33 Q339.713 1459.58 342.768 1455 Q345.847 1450.39 351.657 1450.39 Z" fill="#000000" fill-rule="nonzero" fill-opacity="1" /><path clip-path="url(#clip780)" d="M681.735 1451.02 L700.091 1451.02 L700.091 1454.96 L686.017 1454.96 L686.017 1463.43 Q687.036 1463.08 688.054 1462.92 Q689.073 1462.73 690.091 1462.73 Q695.879 1462.73 699.258 1465.9 Q702.638 1469.08 702.638 1474.49 Q702.638 1480.07 699.166 1483.17 Q695.693 1486.25 689.374 1486.25 Q687.198 1486.25 684.929 1485.88 Q682.684 1485.51 680.277 1484.77 L680.277 1480.07 Q682.36 1481.2 684.582 1481.76 Q686.804 1482.32 689.281 1482.32 Q693.286 1482.32 695.624 1480.21 Q697.962 1478.1 697.962 1474.49 Q697.962 1470.88 695.624 1468.77 Q693.286 1466.67 689.281 1466.67 Q687.406 1466.67 685.531 1467.08 Q683.679 1467.5 681.735 1468.38 L681.735 1451.02 Z" fill="#000000" fill-rule="nonzero" fill-opacity="1" /><path clip-path="url(#clip780)" d="M1005.95 1481.64 L1013.58 1481.64 L1013.58 1455.28 L1005.27 1456.95 L1005.27 1452.69 L1013.54 1451.02 L1018.21 1451.02 L1018.21 1481.64 L1025.85 1481.64 L1025.85 1485.58 L1005.95 1485.58 L1005.95 1481.64 Z" fill="#000000" fill-rule="nonzero" fill-opacity="1" /><path clip-path="url(#clip780)" d="M1045.3 1454.1 Q1041.69 1454.1 1039.86 1457.66 Q1038.05 1461.2 1038.05 1468.33 Q1038.05 1475.44 1039.86 1479.01 Q1041.69 1482.55 1045.3 1482.55 Q1048.93 1482.55 1050.74 1479.01 Q1052.57 1475.44 1052.57 1468.33 Q1052.57 1461.2 1050.74 1457.66 Q1048.93 1454.1 1045.3 1454.1 M1045.3 1450.39 Q1051.11 1450.39 1054.16 1455 Q1057.24 1459.58 1057.24 1468.33 Q1057.24 1477.06 1054.16 1481.67 Q1051.11 1486.25 1045.3 1486.25 Q1039.49 1486.25 1036.41 1481.67 Q1033.35 1477.06 1033.35 1468.33 Q1033.35 1459.58 1036.41 1455 Q1039.49 1450.39 1045.3 1450.39 Z" fill="#000000" fill-rule="nonzero" fill-opacity="1" /><path clip-path="url(#clip780)" d="M1346.24 1481.64 L1353.88 1481.64 L1353.88 1455.28 L1345.57 1456.95 L1345.57 1452.69 L1353.84 1451.02 L1358.51 1451.02 L1358.51 1481.64 L1366.15 1481.64 L1366.15 1485.58 L1346.24 1485.58 L1346.24 1481.64 Z" fill="#000000" fill-rule="nonzero" fill-opacity="1" /><path clip-path="url(#clip780)" d="M1375.64 1451.02 L1394 1451.02 L1394 1454.96 L1379.92 1454.96 L1379.92 1463.43 Q1380.94 1463.08 1381.96 1462.92 Q1382.98 1462.73 1384 1462.73 Q1389.78 1462.73 1393.16 1465.9 Q1396.54 1469.08 1396.54 1474.49 Q1396.54 1480.07 1393.07 1483.17 Q1389.6 1486.25 1383.28 1486.25 Q1381.1 1486.25 1378.84 1485.88 Q1376.59 1485.51 1374.18 1484.77 L1374.18 1480.07 Q1376.27 1481.2 1378.49 1481.76 Q1380.71 1482.32 1383.19 1482.32 Q1387.19 1482.32 1389.53 1480.21 Q1391.87 1478.1 1391.87 1474.49 Q1391.87 1470.88 1389.53 1468.77 Q1387.19 1466.67 1383.19 1466.67 Q1381.31 1466.67 1379.44 1467.08 Q1377.59 1467.5 1375.64 1468.38 L1375.64 1451.02 Z" fill="#000000" fill-rule="nonzero" fill-opacity="1" /><path clip-path="url(#clip780)" d="M1689.63 1481.64 L1705.95 1481.64 L1705.95 1485.58 L1684.01 1485.58 L1684.01 1481.64 Q1686.67 1478.89 1691.25 1474.26 Q1695.86 1469.61 1697.04 1468.27 Q1699.28 1465.74 1700.16 1464.01 Q1701.07 1462.25 1701.07 1460.56 Q1701.07 1457.8 1699.12 1456.07 Q1697.2 1454.33 1694.1 1454.33 Q1691.9 1454.33 1689.45 1455.09 Q1687.02 1455.86 1684.24 1457.41 L1684.24 1452.69 Q1687.06 1451.55 1689.52 1450.97 Q1691.97 1450.39 1694.01 1450.39 Q1699.38 1450.39 1702.57 1453.08 Q1705.77 1455.77 1705.77 1460.26 Q1705.77 1462.39 1704.96 1464.31 Q1704.17 1466.2 1702.06 1468.8 Q1701.48 1469.47 1698.38 1472.69 Q1695.28 1475.88 1689.63 1481.64 Z" fill="#000000" fill-rule="nonzero" fill-opacity="1" /><path clip-path="url(#clip780)" d="M1725.77 1454.1 Q1722.15 1454.1 1720.33 1457.66 Q1718.52 1461.2 1718.52 1468.33 Q1718.52 1475.44 1720.33 1479.01 Q1722.15 1482.55 1725.77 1482.55 Q1729.4 1482.55 1731.21 1479.01 Q1733.03 1475.44 1733.03 1468.33 Q1733.03 1461.2 1731.21 1457.66 Q1729.4 1454.1 1725.77 1454.1 M1725.77 1450.39 Q1731.58 1450.39 1734.63 1455 Q1737.71 1459.58 1737.71 1468.33 Q1737.71 1477.06 1734.63 1481.67 Q1731.58 1486.25 1725.77 1486.25 Q1719.96 1486.25 1716.88 1481.67 Q1713.82 1477.06 1713.82 1468.33 Q1713.82 1459.58 1716.88 1455 Q1719.96 1450.39 1725.77 1450.39 Z" fill="#000000" fill-rule="nonzero" fill-opacity="1" /><path clip-path="url(#clip780)" d="M2029.93 1481.64 L2046.25 1481.64 L2046.25 1485.58 L2024.3 1485.58 L2024.3 1481.64 Q2026.97 1478.89 2031.55 1474.26 Q2036.16 1469.61 2037.34 1468.27 Q2039.58 1465.74 2040.46 1464.01 Q2041.36 1462.25 2041.36 1460.56 Q2041.36 1457.8 2039.42 1456.07 Q2037.5 1454.33 2034.4 1454.33 Q2032.2 1454.33 2029.74 1455.09 Q2027.31 1455.86 2024.54 1457.41 L2024.54 1452.69 Q2027.36 1451.55 2029.81 1450.97 Q2032.27 1450.39 2034.3 1450.39 Q2039.67 1450.39 2042.87 1453.08 Q2046.06 1455.77 2046.06 1460.26 Q2046.06 1462.39 2045.25 1464.31 Q2044.47 1466.2 2042.36 1468.8 Q2041.78 1469.47 2038.68 1472.69 Q2035.58 1475.88 2029.93 1481.64 Z" fill="#000000" fill-rule="nonzero" fill-opacity="1" /><path clip-path="url(#clip780)" d="M2056.11 1451.02 L2074.47 1451.02 L2074.47 1454.96 L2060.39 1454.96 L2060.39 1463.43 Q2061.41 1463.08 2062.43 1462.92 Q2063.45 1462.73 2064.47 1462.73 Q2070.25 1462.73 2073.63 1465.9 Q2077.01 1469.08 2077.01 1474.49 Q2077.01 1480.07 2073.54 1483.17 Q2070.07 1486.25 2063.75 1486.25 Q2061.57 1486.25 2059.3 1485.88 Q2057.06 1485.51 2054.65 1484.77 L2054.65 1480.07 Q2056.73 1481.2 2058.96 1481.76 Q2061.18 1482.32 2063.66 1482.32 Q2067.66 1482.32 2070 1480.21 Q2072.34 1478.1 2072.34 1474.49 Q2072.34 1470.88 2070 1468.77 Q2067.66 1466.67 2063.66 1466.67 Q2061.78 1466.67 2059.91 1467.08 Q2058.05 1467.5 2056.11 1468.38 L2056.11 1451.02 Z" fill="#000000" fill-rule="nonzero" fill-opacity="1" /><path clip-path="url(#clip780)" d="M1013.77 1520.52 L1020.27 1520.52 L1030.26 1560.69 L1040.22 1520.52 L1047.45 1520.52 L1057.44 1560.69 L1067.4 1520.52 L1073.93 1520.52 L1061.99 1568.04 L1053.91 1568.04 L1043.88 1526.79 L1033.76 1568.04 L1025.68 1568.04 L1013.77 1520.52 Z" fill="#000000" fill-rule="nonzero" fill-opacity="1" /><path clip-path="url(#clip780)" d="M1094.23 1550.12 Q1087.14 1550.12 1084.4 1551.75 Q1081.66 1553.37 1081.66 1557.29 Q1081.66 1560.4 1083.7 1562.25 Q1085.77 1564.07 1089.3 1564.07 Q1094.17 1564.07 1097.1 1560.63 Q1100.06 1557.16 1100.06 1551.43 L1100.06 1550.12 L1094.23 1550.12 M1105.92 1547.71 L1105.92 1568.04 L1100.06 1568.04 L1100.06 1562.63 Q1098.05 1565.88 1095.06 1567.44 Q1092.07 1568.97 1087.74 1568.97 Q1082.27 1568.97 1079.02 1565.91 Q1075.81 1562.82 1075.81 1557.67 Q1075.81 1551.65 1079.82 1548.6 Q1083.86 1545.54 1091.85 1545.54 L1100.06 1545.54 L1100.06 1544.97 Q1100.06 1540.93 1097.39 1538.73 Q1094.74 1536.5 1089.94 1536.5 Q1086.88 1536.5 1083.99 1537.23 Q1081.09 1537.97 1078.42 1539.43 L1078.42 1534.02 Q1081.63 1532.78 1084.65 1532.17 Q1087.68 1531.54 1090.54 1531.54 Q1098.28 1531.54 1102.1 1535.55 Q1105.92 1539.56 1105.92 1547.71 Z" fill="#000000" fill-rule="nonzero" fill-opacity="1" /><path clip-path="url(#clip780)" d="M1117.98 1518.52 L1123.84 1518.52 L1123.84 1568.04 L1117.98 1568.04 L1117.98 1518.52 Z" fill="#000000" fill-rule="nonzero" fill-opacity="1" /><path clip-path="url(#clip780)" d="M1136.09 1518.52 L1141.95 1518.52 L1141.95 1568.04 L1136.09 1568.04 L1136.09 1518.52 Z" fill="#000000" fill-rule="nonzero" fill-opacity="1" /><path clip-path="url(#clip780)" d="M1179.85 1533.76 L1179.85 1539.24 Q1177.37 1537.87 1174.86 1537.2 Q1172.37 1536.5 1169.83 1536.5 Q1164.13 1536.5 1160.98 1540.13 Q1157.83 1543.73 1157.83 1550.25 Q1157.83 1556.78 1160.98 1560.4 Q1164.13 1564 1169.83 1564 Q1172.37 1564 1174.86 1563.33 Q1177.37 1562.63 1179.85 1561.26 L1179.85 1566.68 Q1177.4 1567.82 1174.76 1568.39 Q1172.15 1568.97 1169.19 1568.97 Q1161.14 1568.97 1156.4 1563.91 Q1151.65 1558.85 1151.65 1550.25 Q1151.65 1541.53 1156.43 1536.53 Q1161.23 1531.54 1169.57 1531.54 Q1172.28 1531.54 1174.86 1532.11 Q1177.43 1532.65 1179.85 1533.76 Z" fill="#000000" fill-rule="nonzero" fill-opacity="1" /><path clip-path="url(#clip780)" d="M1190.04 1518.52 L1195.89 1518.52 L1195.89 1568.04 L1190.04 1568.04 L1190.04 1518.52 Z" fill="#000000" fill-rule="nonzero" fill-opacity="1" /><path clip-path="url(#clip780)" d="M1221.96 1536.5 Q1217.25 1536.5 1214.51 1540.19 Q1211.78 1543.85 1211.78 1550.25 Q1211.78 1556.65 1214.48 1560.34 Q1217.22 1564 1221.96 1564 Q1226.64 1564 1229.38 1560.31 Q1232.12 1556.62 1232.12 1550.25 Q1232.12 1543.92 1229.38 1540.23 Q1226.64 1536.5 1221.96 1536.5 M1221.96 1531.54 Q1229.6 1531.54 1233.96 1536.5 Q1238.32 1541.47 1238.32 1550.25 Q1238.32 1559 1233.96 1564 Q1229.6 1568.97 1221.96 1568.97 Q1214.29 1568.97 1209.93 1564 Q1205.6 1559 1205.6 1550.25 Q1205.6 1541.47 1209.93 1536.5 Q1214.29 1531.54 1221.96 1531.54 Z" fill="#000000" fill-rule="nonzero" fill-opacity="1" /><path clip-path="url(#clip780)" d="M1273.68 1533.76 L1273.68 1539.24 Q1271.2 1537.87 1268.69 1537.2 Q1266.2 1536.5 1263.66 1536.5 Q1257.96 1536.5 1254.81 1540.13 Q1251.66 1543.73 1251.66 1550.25 Q1251.66 1556.78 1254.81 1560.4 Q1257.96 1564 1263.66 1564 Q1266.2 1564 1268.69 1563.33 Q1271.2 1562.63 1273.68 1561.26 L1273.68 1566.68 Q1271.23 1567.82 1268.59 1568.39 Q1265.98 1568.97 1263.02 1568.97 Q1254.97 1568.97 1250.23 1563.91 Q1245.48 1558.85 1245.48 1550.25 Q1245.48 1541.53 1250.26 1536.53 Q1255.06 1531.54 1263.4 1531.54 Q1266.11 1531.54 1268.69 1532.11 Q1271.26 1532.65 1273.68 1533.76 Z" fill="#000000" fill-rule="nonzero" fill-opacity="1" /><path clip-path="url(#clip780)" d="M1283.65 1518.52 L1289.53 1518.52 L1289.53 1547.77 L1307.01 1532.4 L1314.49 1532.4 L1295.58 1549.07 L1315.28 1568.04 L1307.64 1568.04 L1289.53 1550.63 L1289.53 1568.04 L1283.65 1568.04 L1283.65 1518.52 Z" fill="#000000" fill-rule="nonzero" fill-opacity="1" /><path clip-path="url(#clip780)" d="M1336 1520.52 L1376.2 1520.52 L1376.2 1525.93 L1359.33 1525.93 L1359.33 1568.04 L1352.87 1568.04 L1352.87 1525.93 L1336 1525.93 L1336 1520.52 Z" fill="#000000" fill-rule="nonzero" fill-opacity="1" /><path clip-path="url(#clip780)" d="M1380.15 1532.4 L1386.01 1532.4 L1386.01 1568.04 L1380.15 1568.04 L1380.15 1532.4 M1380.15 1518.52 L1386.01 1518.52 L1386.01 1525.93 L1380.15 1525.93 L1380.15 1518.52 Z" fill="#000000" fill-rule="nonzero" fill-opacity="1" /><path clip-path="url(#clip780)" d="M1426.02 1539.24 Q1428.21 1535.29 1431.27 1533.41 Q1434.32 1531.54 1438.46 1531.54 Q1444.03 1531.54 1447.05 1535.45 Q1450.08 1539.33 1450.08 1546.53 L1450.08 1568.04 L1444.19 1568.04 L1444.19 1546.72 Q1444.19 1541.59 1442.38 1539.11 Q1440.56 1536.63 1436.84 1536.63 Q1432.29 1536.63 1429.64 1539.65 Q1427 1542.68 1427 1547.9 L1427 1568.04 L1421.11 1568.04 L1421.11 1546.72 Q1421.11 1541.56 1419.3 1539.11 Q1417.49 1536.63 1413.7 1536.63 Q1409.21 1536.63 1406.57 1539.68 Q1403.93 1542.71 1403.93 1547.9 L1403.93 1568.04 L1398.04 1568.04 L1398.04 1532.4 L1403.93 1532.4 L1403.93 1537.93 Q1405.93 1534.66 1408.73 1533.1 Q1411.53 1531.54 1415.38 1531.54 Q1419.27 1531.54 1421.97 1533.51 Q1424.71 1535.48 1426.02 1539.24 Z" fill="#000000" fill-rule="nonzero" fill-opacity="1" /><path clip-path="url(#clip780)" d="M1492.25 1548.76 L1492.25 1551.62 L1465.32 1551.62 Q1465.71 1557.67 1468.95 1560.85 Q1472.23 1564 1478.05 1564 Q1481.43 1564 1484.58 1563.17 Q1487.76 1562.35 1490.88 1560.69 L1490.88 1566.23 Q1487.73 1567.57 1484.42 1568.27 Q1481.11 1568.97 1477.7 1568.97 Q1469.17 1568.97 1464.18 1564 Q1459.21 1559.04 1459.21 1550.57 Q1459.21 1541.82 1463.92 1536.69 Q1468.67 1531.54 1476.69 1531.54 Q1483.88 1531.54 1488.05 1536.18 Q1492.25 1540.8 1492.25 1548.76 M1486.39 1547.04 Q1486.33 1542.23 1483.69 1539.37 Q1481.08 1536.5 1476.75 1536.5 Q1471.85 1536.5 1468.89 1539.27 Q1465.96 1542.04 1465.51 1547.07 L1486.39 1547.04 Z" fill="#000000" fill-rule="nonzero" fill-opacity="1" /><path clip-path="url(#clip780)" d="M1536.65 1518.58 Q1532.39 1525.9 1530.32 1533.06 Q1528.25 1540.23 1528.25 1547.58 Q1528.25 1554.93 1530.32 1562.16 Q1532.42 1569.35 1536.65 1576.64 L1531.56 1576.64 Q1526.78 1569.16 1524.4 1561.93 Q1522.04 1554.71 1522.04 1547.58 Q1522.04 1540.48 1524.4 1533.29 Q1526.75 1526.09 1531.56 1518.58 L1536.65 1518.58 Z" fill="#000000" fill-rule="nonzero" fill-opacity="1" /><path clip-path="url(#clip780)" d="M1570.74 1533.45 L1570.74 1538.98 Q1568.26 1537.71 1565.58 1537.07 Q1562.91 1536.44 1560.05 1536.44 Q1555.68 1536.44 1553.49 1537.77 Q1551.32 1539.11 1551.32 1541.79 Q1551.32 1543.82 1552.88 1545 Q1554.44 1546.15 1559.15 1547.2 L1561.16 1547.64 Q1567.4 1548.98 1570.01 1551.43 Q1572.65 1553.85 1572.65 1558.21 Q1572.65 1563.17 1568.7 1566.07 Q1564.79 1568.97 1557.91 1568.97 Q1555.05 1568.97 1551.93 1568.39 Q1548.84 1567.85 1545.4 1566.74 L1545.4 1560.69 Q1548.65 1562.38 1551.8 1563.24 Q1554.95 1564.07 1558.04 1564.07 Q1562.18 1564.07 1564.41 1562.66 Q1566.63 1561.23 1566.63 1558.65 Q1566.63 1556.27 1565.01 1554.99 Q1563.42 1553.72 1557.98 1552.54 L1555.94 1552.07 Q1550.5 1550.92 1548.08 1548.56 Q1545.66 1546.18 1545.66 1542.04 Q1545.66 1537.01 1549.22 1534.27 Q1552.79 1531.54 1559.34 1531.54 Q1562.59 1531.54 1565.46 1532.01 Q1568.32 1532.49 1570.74 1533.45 Z" fill="#000000" fill-rule="nonzero" fill-opacity="1" /><path clip-path="url(#clip780)" d="M1612.47 1548.76 L1612.47 1551.62 L1585.54 1551.62 Q1585.92 1557.67 1589.17 1560.85 Q1592.45 1564 1598.27 1564 Q1601.65 1564 1604.8 1563.17 Q1607.98 1562.35 1611.1 1560.69 L1611.1 1566.23 Q1607.95 1567.57 1604.64 1568.27 Q1601.33 1568.97 1597.92 1568.97 Q1589.39 1568.97 1584.39 1564 Q1579.43 1559.04 1579.43 1550.57 Q1579.43 1541.82 1584.14 1536.69 Q1588.88 1531.54 1596.9 1531.54 Q1604.1 1531.54 1608.27 1536.18 Q1612.47 1540.8 1612.47 1548.76 M1606.61 1547.04 Q1606.55 1542.23 1603.9 1539.37 Q1601.29 1536.5 1596.97 1536.5 Q1592.06 1536.5 1589.1 1539.27 Q1586.18 1542.04 1585.73 1547.07 L1606.61 1547.04 Z" fill="#000000" fill-rule="nonzero" fill-opacity="1" /><path clip-path="url(#clip780)" d="M1647.73 1533.76 L1647.73 1539.24 Q1645.25 1537.87 1642.74 1537.2 Q1640.25 1536.5 1637.71 1536.5 Q1632.01 1536.5 1628.86 1540.13 Q1625.71 1543.73 1625.71 1550.25 Q1625.71 1556.78 1628.86 1560.4 Q1632.01 1564 1637.71 1564 Q1640.25 1564 1642.74 1563.33 Q1645.25 1562.63 1647.73 1561.26 L1647.73 1566.68 Q1645.28 1567.82 1642.64 1568.39 Q1640.03 1568.97 1637.07 1568.97 Q1629.02 1568.97 1624.28 1563.91 Q1619.53 1558.85 1619.53 1550.25 Q1619.53 1541.53 1624.31 1536.53 Q1629.11 1531.54 1637.45 1531.54 Q1640.16 1531.54 1642.74 1532.11 Q1645.31 1532.65 1647.73 1533.76 Z" fill="#000000" fill-rule="nonzero" fill-opacity="1" /><path clip-path="url(#clip780)" d="M1656.99 1518.58 L1662.09 1518.58 Q1666.86 1526.09 1669.22 1533.29 Q1671.6 1540.48 1671.6 1547.58 Q1671.6 1554.71 1669.22 1561.93 Q1666.86 1569.16 1662.09 1576.64 L1656.99 1576.64 Q1661.23 1569.35 1663.3 1562.16 Q1665.4 1554.93 1665.4 1547.58 Q1665.4 1540.23 1663.3 1533.06 Q1661.23 1525.9 1656.99 1518.58 Z" fill="#000000" fill-rule="nonzero" fill-opacity="1" /><polyline clip-path="url(#clip780)" style="stroke:#000000; stroke-linecap:round; stroke-linejoin:round; stroke-width:4; stroke-opacity:1; fill:none" points="332.62,1423.18 332.62,47.2441 "/>
<polyline clip-path="url(#clip780)" style="stroke:#000000; stroke-linecap:round; stroke-linejoin:round; stroke-width:4; stroke-opacity:1; fill:none" points="332.62,1241.76 351.518,1241.76 "/>
<polyline clip-path="url(#clip780)" style="stroke:#000000; stroke-linecap:round; stroke-linejoin:round; stroke-width:4; stroke-opacity:1; fill:none" points="332.62,999.197 351.518,999.197 "/>
<polyline clip-path="url(#clip780)" style="stroke:#000000; stroke-linecap:round; stroke-linejoin:round; stroke-width:4; stroke-opacity:1; fill:none" points="332.62,756.633 351.518,756.633 "/>
<polyline clip-path="url(#clip780)" style="stroke:#000000; stroke-linecap:round; stroke-linejoin:round; stroke-width:4; stroke-opacity:1; fill:none" points="332.62,514.068 351.518,514.068 "/>
<polyline clip-path="url(#clip780)" style="stroke:#000000; stroke-linecap:round; stroke-linejoin:round; stroke-width:4; stroke-opacity:1; fill:none" points="332.62,271.504 351.518,271.504 "/>
<path clip-path="url(#clip780)" d="M114.26 1242.21 L143.936 1242.21 L143.936 1246.15 L114.26 1246.15 L114.26 1242.21 Z" fill="#000000" fill-rule="nonzero" fill-opacity="1" /><path clip-path="url(#clip780)" d="M154.839 1255.11 L162.477 1255.11 L162.477 1228.74 L154.167 1230.41 L154.167 1226.15 L162.431 1224.48 L167.107 1224.48 L167.107 1255.11 L174.746 1255.11 L174.746 1259.04 L154.839 1259.04 L154.839 1255.11 Z" fill="#000000" fill-rule="nonzero" fill-opacity="1" /><path clip-path="url(#clip780)" d="M183.01 1224.48 L205.232 1224.48 L205.232 1226.47 L192.686 1259.04 L187.801 1259.04 L199.607 1228.42 L183.01 1228.42 L183.01 1224.48 Z" fill="#000000" fill-rule="nonzero" fill-opacity="1" /><path clip-path="url(#clip780)" d="M214.399 1224.48 L232.755 1224.48 L232.755 1228.42 L218.681 1228.42 L218.681 1236.89 Q219.699 1236.54 220.718 1236.38 Q221.736 1236.19 222.755 1236.19 Q228.542 1236.19 231.922 1239.37 Q235.301 1242.54 235.301 1247.95 Q235.301 1253.53 231.829 1256.63 Q228.357 1259.71 222.037 1259.71 Q219.861 1259.71 217.593 1259.34 Q215.348 1258.97 212.94 1258.23 L212.94 1253.53 Q215.024 1254.67 217.246 1255.22 Q219.468 1255.78 221.945 1255.78 Q225.949 1255.78 228.287 1253.67 Q230.625 1251.56 230.625 1247.95 Q230.625 1244.34 228.287 1242.24 Q225.949 1240.13 221.945 1240.13 Q220.07 1240.13 218.195 1240.55 Q216.343 1240.96 214.399 1241.84 L214.399 1224.48 Z" fill="#000000" fill-rule="nonzero" fill-opacity="1" /><path clip-path="url(#clip780)" d="M254.514 1227.56 Q250.903 1227.56 249.074 1231.13 Q247.269 1234.67 247.269 1241.8 Q247.269 1248.9 249.074 1252.47 Q250.903 1256.01 254.514 1256.01 Q258.148 1256.01 259.954 1252.47 Q261.783 1248.9 261.783 1241.8 Q261.783 1234.67 259.954 1231.13 Q258.148 1227.56 254.514 1227.56 M254.514 1223.86 Q260.324 1223.86 263.38 1228.46 Q266.458 1233.05 266.458 1241.8 Q266.458 1250.52 263.38 1255.13 Q260.324 1259.71 254.514 1259.71 Q248.704 1259.71 245.625 1255.13 Q242.57 1250.52 242.57 1241.8 Q242.57 1233.05 245.625 1228.46 Q248.704 1223.86 254.514 1223.86 Z" fill="#000000" fill-rule="nonzero" fill-opacity="1" /><path clip-path="url(#clip780)" d="M284.676 1227.56 Q281.065 1227.56 279.236 1231.13 Q277.431 1234.67 277.431 1241.8 Q277.431 1248.9 279.236 1252.47 Q281.065 1256.01 284.676 1256.01 Q288.31 1256.01 290.116 1252.47 Q291.944 1248.9 291.944 1241.8 Q291.944 1234.67 290.116 1231.13 Q288.31 1227.56 284.676 1227.56 M284.676 1223.86 Q290.486 1223.86 293.542 1228.46 Q296.62 1233.05 296.62 1241.8 Q296.62 1250.52 293.542 1255.13 Q290.486 1259.71 284.676 1259.71 Q278.866 1259.71 275.787 1255.13 Q272.732 1250.52 272.732 1241.8 Q272.732 1233.05 275.787 1228.46 Q278.866 1223.86 284.676 1223.86 Z" fill="#000000" fill-rule="nonzero" fill-opacity="1" /><path clip-path="url(#clip780)" d="M114.26 999.649 L143.936 999.649 L143.936 1003.58 L114.26 1003.58 L114.26 999.649 Z" fill="#000000" fill-rule="nonzero" fill-opacity="1" /><path clip-path="url(#clip780)" d="M154.839 1012.54 L162.477 1012.54 L162.477 986.176 L154.167 987.843 L154.167 983.584 L162.431 981.917 L167.107 981.917 L167.107 1012.54 L174.746 1012.54 L174.746 1016.48 L154.839 1016.48 L154.839 1012.54 Z" fill="#000000" fill-rule="nonzero" fill-opacity="1" /><path clip-path="url(#clip780)" d="M184.237 981.917 L202.593 981.917 L202.593 985.852 L188.519 985.852 L188.519 994.325 Q189.538 993.977 190.556 993.815 Q191.575 993.63 192.593 993.63 Q198.38 993.63 201.76 996.801 Q205.139 999.973 205.139 1005.39 Q205.139 1010.97 201.667 1014.07 Q198.195 1017.15 191.875 1017.15 Q189.7 1017.15 187.431 1016.78 Q185.186 1016.41 182.778 1015.67 L182.778 1010.97 Q184.862 1012.1 187.084 1012.66 Q189.306 1013.21 191.783 1013.21 Q195.787 1013.21 198.125 1011.11 Q200.463 1009 200.463 1005.39 Q200.463 1001.78 198.125 999.672 Q195.787 997.565 191.783 997.565 Q189.908 997.565 188.033 997.982 Q186.181 998.399 184.237 999.278 L184.237 981.917 Z" fill="#000000" fill-rule="nonzero" fill-opacity="1" /><path clip-path="url(#clip780)" d="M224.352 984.996 Q220.741 984.996 218.912 988.561 Q217.107 992.102 217.107 999.232 Q217.107 1006.34 218.912 1009.9 Q220.741 1013.44 224.352 1013.44 Q227.986 1013.44 229.792 1009.9 Q231.621 1006.34 231.621 999.232 Q231.621 992.102 229.792 988.561 Q227.986 984.996 224.352 984.996 M224.352 981.292 Q230.162 981.292 233.218 985.899 Q236.297 990.482 236.297 999.232 Q236.297 1007.96 233.218 1012.57 Q230.162 1017.15 224.352 1017.15 Q218.542 1017.15 215.463 1012.57 Q212.408 1007.96 212.408 999.232 Q212.408 990.482 215.463 985.899 Q218.542 981.292 224.352 981.292 Z" fill="#000000" fill-rule="nonzero" fill-opacity="1" /><path clip-path="url(#clip780)" d="M254.514 984.996 Q250.903 984.996 249.074 988.561 Q247.269 992.102 247.269 999.232 Q247.269 1006.34 249.074 1009.9 Q250.903 1013.44 254.514 1013.44 Q258.148 1013.44 259.954 1009.9 Q261.783 1006.34 261.783 999.232 Q261.783 992.102 259.954 988.561 Q258.148 984.996 254.514 984.996 M254.514 981.292 Q260.324 981.292 263.38 985.899 Q266.458 990.482 266.458 999.232 Q266.458 1007.96 263.38 1012.57 Q260.324 1017.15 254.514 1017.15 Q248.704 1017.15 245.625 1012.57 Q242.57 1007.96 242.57 999.232 Q242.57 990.482 245.625 985.899 Q248.704 981.292 254.514 981.292 Z" fill="#000000" fill-rule="nonzero" fill-opacity="1" /><path clip-path="url(#clip780)" d="M284.676 984.996 Q281.065 984.996 279.236 988.561 Q277.431 992.102 277.431 999.232 Q277.431 1006.34 279.236 1009.9 Q281.065 1013.44 284.676 1013.44 Q288.31 1013.44 290.116 1009.9 Q291.944 1006.34 291.944 999.232 Q291.944 992.102 290.116 988.561 Q288.31 984.996 284.676 984.996 M284.676 981.292 Q290.486 981.292 293.542 985.899 Q296.62 990.482 296.62 999.232 Q296.62 1007.96 293.542 1012.57 Q290.486 1017.15 284.676 1017.15 Q278.866 1017.15 275.787 1012.57 Q272.732 1007.96 272.732 999.232 Q272.732 990.482 275.787 985.899 Q278.866 981.292 284.676 981.292 Z" fill="#000000" fill-rule="nonzero" fill-opacity="1" /><path clip-path="url(#clip780)" d="M114.26 757.084 L143.936 757.084 L143.936 761.019 L114.26 761.019 L114.26 757.084 Z" fill="#000000" fill-rule="nonzero" fill-opacity="1" /><path clip-path="url(#clip780)" d="M154.839 769.978 L162.477 769.978 L162.477 743.612 L154.167 745.279 L154.167 741.019 L162.431 739.353 L167.107 739.353 L167.107 769.978 L174.746 769.978 L174.746 773.913 L154.839 773.913 L154.839 769.978 Z" fill="#000000" fill-rule="nonzero" fill-opacity="1" /><path clip-path="url(#clip780)" d="M188.218 769.978 L204.537 769.978 L204.537 773.913 L182.593 773.913 L182.593 769.978 Q185.255 767.223 189.838 762.593 Q194.445 757.941 195.625 756.598 Q197.871 754.075 198.75 752.339 Q199.653 750.58 199.653 748.89 Q199.653 746.135 197.709 744.399 Q195.787 742.663 192.686 742.663 Q190.487 742.663 188.033 743.427 Q185.602 744.191 182.825 745.742 L182.825 741.019 Q185.649 739.885 188.102 739.306 Q190.556 738.728 192.593 738.728 Q197.963 738.728 201.158 741.413 Q204.352 744.098 204.352 748.589 Q204.352 750.718 203.542 752.64 Q202.755 754.538 200.649 757.13 Q200.07 757.802 196.968 761.019 Q193.866 764.214 188.218 769.978 Z" fill="#000000" fill-rule="nonzero" fill-opacity="1" /><path clip-path="url(#clip780)" d="M214.399 739.353 L232.755 739.353 L232.755 743.288 L218.681 743.288 L218.681 751.76 Q219.699 751.413 220.718 751.251 Q221.736 751.066 222.755 751.066 Q228.542 751.066 231.922 754.237 Q235.301 757.408 235.301 762.825 Q235.301 768.404 231.829 771.505 Q228.357 774.584 222.037 774.584 Q219.861 774.584 217.593 774.214 Q215.348 773.843 212.94 773.103 L212.94 768.404 Q215.024 769.538 217.246 770.093 Q219.468 770.649 221.945 770.649 Q225.949 770.649 228.287 768.542 Q230.625 766.436 230.625 762.825 Q230.625 759.214 228.287 757.107 Q225.949 755.001 221.945 755.001 Q220.07 755.001 218.195 755.418 Q216.343 755.834 214.399 756.714 L214.399 739.353 Z" fill="#000000" fill-rule="nonzero" fill-opacity="1" /><path clip-path="url(#clip780)" d="M254.514 742.431 Q250.903 742.431 249.074 745.996 Q247.269 749.538 247.269 756.667 Q247.269 763.774 249.074 767.339 Q250.903 770.88 254.514 770.88 Q258.148 770.88 259.954 767.339 Q261.783 763.774 261.783 756.667 Q261.783 749.538 259.954 745.996 Q258.148 742.431 254.514 742.431 M254.514 738.728 Q260.324 738.728 263.38 743.334 Q266.458 747.918 266.458 756.667 Q266.458 765.394 263.38 770.001 Q260.324 774.584 254.514 774.584 Q248.704 774.584 245.625 770.001 Q242.57 765.394 242.57 756.667 Q242.57 747.918 245.625 743.334 Q248.704 738.728 254.514 738.728 Z" fill="#000000" fill-rule="nonzero" fill-opacity="1" /><path clip-path="url(#clip780)" d="M284.676 742.431 Q281.065 742.431 279.236 745.996 Q277.431 749.538 277.431 756.667 Q277.431 763.774 279.236 767.339 Q281.065 770.88 284.676 770.88 Q288.31 770.88 290.116 767.339 Q291.944 763.774 291.944 756.667 Q291.944 749.538 290.116 745.996 Q288.31 742.431 284.676 742.431 M284.676 738.728 Q290.486 738.728 293.542 743.334 Q296.62 747.918 296.62 756.667 Q296.62 765.394 293.542 770.001 Q290.486 774.584 284.676 774.584 Q278.866 774.584 275.787 770.001 Q272.732 765.394 272.732 756.667 Q272.732 747.918 275.787 743.334 Q278.866 738.728 284.676 738.728 Z" fill="#000000" fill-rule="nonzero" fill-opacity="1" /><path clip-path="url(#clip780)" d="M114.26 514.52 L143.936 514.52 L143.936 518.455 L114.26 518.455 L114.26 514.52 Z" fill="#000000" fill-rule="nonzero" fill-opacity="1" /><path clip-path="url(#clip780)" d="M154.839 527.413 L162.477 527.413 L162.477 501.048 L154.167 502.714 L154.167 498.455 L162.431 496.788 L167.107 496.788 L167.107 527.413 L174.746 527.413 L174.746 531.348 L154.839 531.348 L154.839 527.413 Z" fill="#000000" fill-rule="nonzero" fill-opacity="1" /><path clip-path="url(#clip780)" d="M194.19 499.867 Q190.579 499.867 188.75 503.432 Q186.945 506.973 186.945 514.103 Q186.945 521.209 188.75 524.774 Q190.579 528.316 194.19 528.316 Q197.825 528.316 199.63 524.774 Q201.459 521.209 201.459 514.103 Q201.459 506.973 199.63 503.432 Q197.825 499.867 194.19 499.867 M194.19 496.163 Q200 496.163 203.056 500.77 Q206.135 505.353 206.135 514.103 Q206.135 522.83 203.056 527.436 Q200 532.02 194.19 532.02 Q188.38 532.02 185.301 527.436 Q182.246 522.83 182.246 514.103 Q182.246 505.353 185.301 500.77 Q188.38 496.163 194.19 496.163 Z" fill="#000000" fill-rule="nonzero" fill-opacity="1" /><path clip-path="url(#clip780)" d="M224.352 499.867 Q220.741 499.867 218.912 503.432 Q217.107 506.973 217.107 514.103 Q217.107 521.209 218.912 524.774 Q220.741 528.316 224.352 528.316 Q227.986 528.316 229.792 524.774 Q231.621 521.209 231.621 514.103 Q231.621 506.973 229.792 503.432 Q227.986 499.867 224.352 499.867 M224.352 496.163 Q230.162 496.163 233.218 500.77 Q236.297 505.353 236.297 514.103 Q236.297 522.83 233.218 527.436 Q230.162 532.02 224.352 532.02 Q218.542 532.02 215.463 527.436 Q212.408 522.83 212.408 514.103 Q212.408 505.353 215.463 500.77 Q218.542 496.163 224.352 496.163 Z" fill="#000000" fill-rule="nonzero" fill-opacity="1" /><path clip-path="url(#clip780)" d="M254.514 499.867 Q250.903 499.867 249.074 503.432 Q247.269 506.973 247.269 514.103 Q247.269 521.209 249.074 524.774 Q250.903 528.316 254.514 528.316 Q258.148 528.316 259.954 524.774 Q261.783 521.209 261.783 514.103 Q261.783 506.973 259.954 503.432 Q258.148 499.867 254.514 499.867 M254.514 496.163 Q260.324 496.163 263.38 500.77 Q266.458 505.353 266.458 514.103 Q266.458 522.83 263.38 527.436 Q260.324 532.02 254.514 532.02 Q248.704 532.02 245.625 527.436 Q242.57 522.83 242.57 514.103 Q242.57 505.353 245.625 500.77 Q248.704 496.163 254.514 496.163 Z" fill="#000000" fill-rule="nonzero" fill-opacity="1" /><path clip-path="url(#clip780)" d="M284.676 499.867 Q281.065 499.867 279.236 503.432 Q277.431 506.973 277.431 514.103 Q277.431 521.209 279.236 524.774 Q281.065 528.316 284.676 528.316 Q288.31 528.316 290.116 524.774 Q291.944 521.209 291.944 514.103 Q291.944 506.973 290.116 503.432 Q288.31 499.867 284.676 499.867 M284.676 496.163 Q290.486 496.163 293.542 500.77 Q296.62 505.353 296.62 514.103 Q296.62 522.83 293.542 527.436 Q290.486 532.02 284.676 532.02 Q278.866 532.02 275.787 527.436 Q272.732 522.83 272.732 514.103 Q272.732 505.353 275.787 500.77 Q278.866 496.163 284.676 496.163 Z" fill="#000000" fill-rule="nonzero" fill-opacity="1" /><path clip-path="url(#clip780)" d="M144.422 271.955 L174.098 271.955 L174.098 275.89 L144.422 275.89 L144.422 271.955 Z" fill="#000000" fill-rule="nonzero" fill-opacity="1" /><path clip-path="url(#clip780)" d="M183.01 254.224 L205.232 254.224 L205.232 256.215 L192.686 288.784 L187.801 288.784 L199.607 258.159 L183.01 258.159 L183.01 254.224 Z" fill="#000000" fill-rule="nonzero" fill-opacity="1" /><path clip-path="url(#clip780)" d="M214.399 254.224 L232.755 254.224 L232.755 258.159 L218.681 258.159 L218.681 266.631 Q219.699 266.284 220.718 266.122 Q221.736 265.937 222.755 265.937 Q228.542 265.937 231.922 269.108 Q235.301 272.279 235.301 277.696 Q235.301 283.275 231.829 286.376 Q228.357 289.455 222.037 289.455 Q219.861 289.455 217.593 289.085 Q215.348 288.714 212.94 287.974 L212.94 283.275 Q215.024 284.409 217.246 284.964 Q219.468 285.52 221.945 285.52 Q225.949 285.52 228.287 283.413 Q230.625 281.307 230.625 277.696 Q230.625 274.085 228.287 271.978 Q225.949 269.872 221.945 269.872 Q220.07 269.872 218.195 270.289 Q216.343 270.705 214.399 271.585 L214.399 254.224 Z" fill="#000000" fill-rule="nonzero" fill-opacity="1" /><path clip-path="url(#clip780)" d="M254.514 257.303 Q250.903 257.303 249.074 260.867 Q247.269 264.409 247.269 271.539 Q247.269 278.645 249.074 282.21 Q250.903 285.751 254.514 285.751 Q258.148 285.751 259.954 282.21 Q261.783 278.645 261.783 271.539 Q261.783 264.409 259.954 260.867 Q258.148 257.303 254.514 257.303 M254.514 253.599 Q260.324 253.599 263.38 258.205 Q266.458 262.789 266.458 271.539 Q266.458 280.265 263.38 284.872 Q260.324 289.455 254.514 289.455 Q248.704 289.455 245.625 284.872 Q242.57 280.265 242.57 271.539 Q242.57 262.789 245.625 258.205 Q248.704 253.599 254.514 253.599 Z" fill="#000000" fill-rule="nonzero" fill-opacity="1" /><path clip-path="url(#clip780)" d="M284.676 257.303 Q281.065 257.303 279.236 260.867 Q277.431 264.409 277.431 271.539 Q277.431 278.645 279.236 282.21 Q281.065 285.751 284.676 285.751 Q288.31 285.751 290.116 282.21 Q291.944 278.645 291.944 271.539 Q291.944 264.409 290.116 260.867 Q288.31 257.303 284.676 257.303 M284.676 253.599 Q290.486 253.599 293.542 258.205 Q296.62 262.789 296.62 271.539 Q296.62 280.265 293.542 284.872 Q290.486 289.455 284.676 289.455 Q278.866 289.455 275.787 284.872 Q272.732 280.265 272.732 271.539 Q272.732 262.789 275.787 258.205 Q278.866 253.599 284.676 253.599 Z" fill="#000000" fill-rule="nonzero" fill-opacity="1" /><path clip-path="url(#clip780)" d="M16.4842 816.375 L16.4842 786.329 L21.895 786.329 L21.895 809.945 L35.9632 809.945 L35.9632 787.315 L41.3741 787.315 L41.3741 809.945 L58.5933 809.945 L58.5933 785.756 L64.0042 785.756 L64.0042 816.375 L16.4842 816.375 Z" fill="#000000" fill-rule="nonzero" fill-opacity="1" /><path clip-path="url(#clip780)" d="M16.4842 775.189 L16.4842 768.759 L58.5933 768.759 L58.5933 745.62 L64.0042 745.62 L64.0042 775.189 L16.4842 775.189 Z" fill="#000000" fill-rule="nonzero" fill-opacity="1" /><path clip-path="url(#clip780)" d="M41.3104 732.443 L58.7206 732.443 L58.7206 722.13 Q58.7206 716.942 56.5881 714.46 Q54.4238 711.945 49.9996 711.945 Q45.5436 711.945 43.4429 714.46 Q41.3104 716.942 41.3104 722.13 L41.3104 732.443 M21.7677 732.443 L36.0905 732.443 L36.0905 722.926 Q36.0905 718.216 34.34 715.924 Q32.5576 713.6 28.9291 713.6 Q25.3325 713.6 23.5501 715.924 Q21.7677 718.216 21.7677 722.926 L21.7677 732.443 M16.4842 738.872 L16.4842 722.449 Q16.4842 715.096 19.5397 711.118 Q22.5952 707.139 28.2289 707.139 Q32.5894 707.139 35.1675 709.176 Q37.7456 711.213 38.3822 715.16 Q39.4007 710.418 42.6472 707.808 Q45.8619 705.166 50.6998 705.166 Q57.0655 705.166 60.5348 709.495 Q64.0042 713.823 64.0042 721.812 L64.0042 738.872 L16.4842 738.872 Z" fill="#000000" fill-rule="nonzero" fill-opacity="1" /><path clip-path="url(#clip780)" d="M20.8447 676.011 Q20.8447 683.013 26.0645 687.151 Q31.2844 691.257 40.2919 691.257 Q49.2675 691.257 54.4874 687.151 Q59.7073 683.013 59.7073 676.011 Q59.7073 669.009 54.4874 664.935 Q49.2675 660.829 40.2919 660.829 Q31.2844 660.829 26.0645 664.935 Q20.8447 669.009 20.8447 676.011 M15.6248 676.011 Q15.6248 666.017 22.3406 660.033 Q29.0246 654.049 40.2919 654.049 Q51.5274 654.049 58.2432 660.033 Q64.9272 666.017 64.9272 676.011 Q64.9272 686.037 58.2432 692.052 Q51.5592 698.036 40.2919 698.036 Q29.0246 698.036 22.3406 692.052 Q15.6248 686.037 15.6248 676.011 Z" fill="#000000" fill-rule="nonzero" fill-opacity="1" /><polyline clip-path="url(#clip781)" style="stroke:#009af9; stroke-linecap:round; stroke-linejoin:round; stroke-width:4; stroke-opacity:1; fill:none" points="441.334,1271.48 509.383,737.434 570.781,369.542 629.494,275.874 688.584,231.674 748.779,221.064 810.728,195.865 869.732,192.075 929.28,178.603 988.251,171.539 1046.79,167.6 1105.07,163.1 1164.42,158.498 1224.92,153.81 1285.38,149.324 1344.27,143.15 1405.54,140.976 1465.13,139.245 1524.85,134.254 1583.41,127.438 1642.65,123.316 1701.41,120.248 1760.38,119.665 1819.41,115.727 1878.42,112.52 1937.66,106.805 1997.51,97.8132 2057.27,99.0333 2117.22,94.9878 2176.5,92.1051 2236.44,89.0686 2295.58,86.1857 "/>
<polyline clip-path="url(#clip781)" style="stroke:#e26f46; stroke-linecap:round; stroke-linejoin:round; stroke-width:4; stroke-opacity:1; fill:none" points="389.794,1384.24 414.944,678.459 424.638,410.013 434.009,333.949 442.993,263.198 451.996,226.957 460.932,219.744 470.243,197.374 479.26,190.799 488.274,181.931 497.242,176.687 506.601,171.36 515.591,170.518 524.623,163.692 533.684,161.484 543.149,159.862 552.211,155.674 561.282,150.497 570.324,145.388 579.33,144.099 589.176,140.262 598.286,136.562 607.31,129.78 616.373,128.462 625.888,124.234 634.919,122.529 644.043,118.478 653.158,117.635 662.643,116.391 671.728,109.115 680.769,111.159 689.898,110.742 "/>
<path clip-path="url(#clip780)" d="M1784.1 1377.32 L2285.42 1377.32 L2285.42 1221.8 L1784.1 1221.8  Z" fill="#ffffff" fill-rule="evenodd" fill-opacity="1"/>
<polyline clip-path="url(#clip780)" style="stroke:#000000; stroke-linecap:round; stroke-linejoin:round; stroke-width:4; stroke-opacity:1; fill:none" points="1784.1,1377.32 2285.42,1377.32 2285.42,1221.8 1784.1,1221.8 1784.1,1377.32 "/>
<polyline clip-path="url(#clip780)" style="stroke:#009af9; stroke-linecap:round; stroke-linejoin:round; stroke-width:4; stroke-opacity:1; fill:none" points="1806.55,1273.64 1941.22,1273.64 "/>
<path clip-path="url(#clip780)" d="M1963.67 1256.36 L1983.53 1256.36 L1983.53 1260.29 L1968.34 1260.29 L1968.34 1270.48 L1982.05 1270.48 L1982.05 1274.41 L1968.34 1274.41 L1968.34 1290.92 L1963.67 1290.92 L1963.67 1256.36 Z" fill="#000000" fill-rule="nonzero" fill-opacity="1" /><path clip-path="url(#clip780)" d="M1987.72 1280.68 L1987.72 1264.99 L1991.98 1264.99 L1991.98 1280.52 Q1991.98 1284.2 1993.41 1286.05 Q1994.85 1287.88 1997.72 1287.88 Q2001.17 1287.88 2003.16 1285.68 Q2005.17 1283.48 2005.17 1279.69 L2005.17 1264.99 L2009.43 1264.99 L2009.43 1290.92 L2005.17 1290.92 L2005.17 1286.93 Q2003.62 1289.29 2001.56 1290.45 Q1999.52 1291.59 1996.82 1291.59 Q1992.35 1291.59 1990.03 1288.81 Q1987.72 1286.03 1987.72 1280.68 M1998.44 1264.36 L1998.44 1264.36 Z" fill="#000000" fill-rule="nonzero" fill-opacity="1" /><path clip-path="url(#clip780)" d="M2018.2 1254.9 L2022.46 1254.9 L2022.46 1290.92 L2018.2 1290.92 L2018.2 1254.9 Z" fill="#000000" fill-rule="nonzero" fill-opacity="1" /><path clip-path="url(#clip780)" d="M2031.38 1254.9 L2035.64 1254.9 L2035.64 1290.92 L2031.38 1290.92 L2031.38 1254.9 Z" fill="#000000" fill-rule="nonzero" fill-opacity="1" /><path clip-path="url(#clip780)" d="M2064.48 1274.41 L2064.48 1287.07 L2071.98 1287.07 Q2075.75 1287.07 2077.56 1285.52 Q2079.39 1283.95 2079.39 1280.73 Q2079.39 1277.49 2077.56 1275.96 Q2075.75 1274.41 2071.98 1274.41 L2064.48 1274.41 M2064.48 1260.2 L2064.48 1270.61 L2071.4 1270.61 Q2074.82 1270.61 2076.49 1269.34 Q2078.18 1268.05 2078.18 1265.41 Q2078.18 1262.79 2076.49 1261.49 Q2074.82 1260.2 2071.4 1260.2 L2064.48 1260.2 M2059.8 1256.36 L2071.75 1256.36 Q2077.09 1256.36 2079.99 1258.58 Q2082.88 1260.8 2082.88 1264.9 Q2082.88 1268.07 2081.4 1269.94 Q2079.92 1271.82 2077.05 1272.28 Q2080.5 1273.02 2082.39 1275.38 Q2084.32 1277.72 2084.32 1281.24 Q2084.32 1285.87 2081.17 1288.39 Q2078.02 1290.92 2072.21 1290.92 L2059.8 1290.92 L2059.8 1256.36 Z" fill="#000000" fill-rule="nonzero" fill-opacity="1" /><path clip-path="url(#clip780)" d="M2103.92 1277.88 Q2098.76 1277.88 2096.77 1279.06 Q2094.78 1280.24 2094.78 1283.09 Q2094.78 1285.36 2096.26 1286.7 Q2097.76 1288.02 2100.33 1288.02 Q2103.88 1288.02 2106.01 1285.52 Q2108.16 1283 2108.16 1278.83 L2108.16 1277.88 L2103.92 1277.88 M2112.42 1276.12 L2112.42 1290.92 L2108.16 1290.92 L2108.16 1286.98 Q2106.7 1289.34 2104.52 1290.48 Q2102.35 1291.59 2099.2 1291.59 Q2095.22 1291.59 2092.86 1289.36 Q2090.52 1287.12 2090.52 1283.37 Q2090.52 1278.99 2093.44 1276.77 Q2096.38 1274.55 2102.19 1274.55 L2108.16 1274.55 L2108.16 1274.13 Q2108.16 1271.19 2106.21 1269.6 Q2104.29 1267.98 2100.8 1267.98 Q2098.57 1267.98 2096.47 1268.51 Q2094.36 1269.04 2092.42 1270.11 L2092.42 1266.17 Q2094.76 1265.27 2096.95 1264.83 Q2099.15 1264.36 2101.24 1264.36 Q2106.86 1264.36 2109.64 1267.28 Q2112.42 1270.2 2112.42 1276.12 Z" fill="#000000" fill-rule="nonzero" fill-opacity="1" /><path clip-path="url(#clip780)" d="M2125.4 1257.63 L2125.4 1264.99 L2134.18 1264.99 L2134.18 1268.3 L2125.4 1268.3 L2125.4 1282.37 Q2125.4 1285.54 2126.26 1286.45 Q2127.14 1287.35 2129.8 1287.35 L2134.18 1287.35 L2134.18 1290.92 L2129.8 1290.92 Q2124.87 1290.92 2123 1289.09 Q2121.12 1287.23 2121.12 1282.37 L2121.12 1268.3 L2118 1268.3 L2118 1264.99 L2121.12 1264.99 L2121.12 1257.63 L2125.4 1257.63 Z" fill="#000000" fill-rule="nonzero" fill-opacity="1" /><path clip-path="url(#clip780)" d="M2158.44 1265.98 L2158.44 1269.97 Q2156.63 1268.97 2154.8 1268.48 Q2153 1267.98 2151.14 1267.98 Q2147 1267.98 2144.71 1270.61 Q2142.42 1273.23 2142.42 1277.98 Q2142.42 1282.72 2144.71 1285.36 Q2147 1287.98 2151.14 1287.98 Q2153 1287.98 2154.8 1287.49 Q2156.63 1286.98 2158.44 1285.98 L2158.44 1289.92 Q2156.65 1290.75 2154.73 1291.17 Q2152.83 1291.59 2150.68 1291.59 Q2144.82 1291.59 2141.38 1287.91 Q2137.93 1284.23 2137.93 1277.98 Q2137.93 1271.63 2141.4 1268 Q2144.89 1264.36 2150.96 1264.36 Q2152.93 1264.36 2154.8 1264.78 Q2156.68 1265.17 2158.44 1265.98 Z" fill="#000000" fill-rule="nonzero" fill-opacity="1" /><path clip-path="url(#clip780)" d="M2187.39 1275.27 L2187.39 1290.92 L2183.13 1290.92 L2183.13 1275.41 Q2183.13 1271.73 2181.7 1269.9 Q2180.26 1268.07 2177.39 1268.07 Q2173.94 1268.07 2171.95 1270.27 Q2169.96 1272.47 2169.96 1276.26 L2169.96 1290.92 L2165.68 1290.92 L2165.68 1254.9 L2169.96 1254.9 L2169.96 1269.02 Q2171.49 1266.68 2173.55 1265.52 Q2175.63 1264.36 2178.34 1264.36 Q2182.81 1264.36 2185.1 1267.14 Q2187.39 1269.9 2187.39 1275.27 Z" fill="#000000" fill-rule="nonzero" fill-opacity="1" /><polyline clip-path="url(#clip780)" style="stroke:#e26f46; stroke-linecap:round; stroke-linejoin:round; stroke-width:4; stroke-opacity:1; fill:none" points="1806.55,1325.48 1941.22,1325.48 "/>
<path clip-path="url(#clip780)" d="M1985.91 1309.33 L1985.91 1313.89 Q1983.25 1312.62 1980.89 1311.99 Q1978.53 1311.37 1976.33 1311.37 Q1972.51 1311.37 1970.43 1312.85 Q1968.37 1314.33 1968.37 1317.06 Q1968.37 1319.35 1969.73 1320.53 Q1971.12 1321.69 1974.96 1322.41 L1977.79 1322.99 Q1983.02 1323.98 1985.5 1326.51 Q1988 1329.01 1988 1333.22 Q1988 1338.24 1984.62 1340.83 Q1981.26 1343.43 1974.76 1343.43 Q1972.3 1343.43 1969.52 1342.87 Q1966.77 1342.32 1963.81 1341.23 L1963.81 1336.41 Q1966.65 1338.01 1969.39 1338.82 Q1972.12 1339.63 1974.76 1339.63 Q1978.76 1339.63 1980.94 1338.06 Q1983.11 1336.48 1983.11 1333.57 Q1983.11 1331.02 1981.54 1329.58 Q1979.99 1328.15 1976.42 1327.43 L1973.58 1326.88 Q1968.34 1325.83 1966.01 1323.61 Q1963.67 1321.39 1963.67 1317.43 Q1963.67 1312.85 1966.89 1310.21 Q1970.13 1307.57 1975.8 1307.57 Q1978.23 1307.57 1980.75 1308.01 Q1983.27 1308.45 1985.91 1309.33 Z" fill="#000000" fill-rule="nonzero" fill-opacity="1" /><path clip-path="url(#clip780)" d="M1994.66 1332.52 L1994.66 1316.83 L1998.92 1316.83 L1998.92 1332.36 Q1998.92 1336.04 2000.36 1337.89 Q2001.79 1339.72 2004.66 1339.72 Q2008.11 1339.72 2010.1 1337.52 Q2012.12 1335.32 2012.12 1331.53 L2012.12 1316.83 L2016.38 1316.83 L2016.38 1342.76 L2012.12 1342.76 L2012.12 1338.77 Q2010.57 1341.13 2008.51 1342.29 Q2006.47 1343.43 2003.76 1343.43 Q1999.29 1343.43 1996.98 1340.65 Q1994.66 1337.87 1994.66 1332.52 M2005.38 1316.2 L2005.38 1316.2 Z" fill="#000000" fill-rule="nonzero" fill-opacity="1" /><path clip-path="url(#clip780)" d="M2043.76 1329.82 Q2043.76 1325.12 2041.82 1322.45 Q2039.89 1319.77 2036.51 1319.77 Q2033.14 1319.77 2031.19 1322.45 Q2029.27 1325.12 2029.27 1329.82 Q2029.27 1334.51 2031.19 1337.2 Q2033.14 1339.86 2036.51 1339.86 Q2039.89 1339.86 2041.82 1337.2 Q2043.76 1334.51 2043.76 1329.82 M2029.27 1320.76 Q2030.61 1318.45 2032.65 1317.34 Q2034.71 1316.2 2037.56 1316.2 Q2042.28 1316.2 2045.22 1319.95 Q2048.18 1323.7 2048.18 1329.82 Q2048.18 1335.93 2045.22 1339.68 Q2042.28 1343.43 2037.56 1343.43 Q2034.71 1343.43 2032.65 1342.32 Q2030.61 1341.18 2029.27 1338.87 L2029.27 1342.76 L2024.99 1342.76 L2024.99 1306.74 L2029.27 1306.74 L2029.27 1320.76 Z" fill="#000000" fill-rule="nonzero" fill-opacity="1" /><path clip-path="url(#clip780)" d="M2071.77 1317.59 L2071.77 1321.62 Q2069.96 1320.7 2068.02 1320.23 Q2066.08 1319.77 2063.99 1319.77 Q2060.82 1319.77 2059.22 1320.74 Q2057.65 1321.71 2057.65 1323.66 Q2057.65 1325.14 2058.78 1326 Q2059.92 1326.83 2063.34 1327.59 L2064.8 1327.92 Q2069.34 1328.89 2071.24 1330.67 Q2073.16 1332.43 2073.16 1335.6 Q2073.16 1339.21 2070.29 1341.32 Q2067.44 1343.43 2062.44 1343.43 Q2060.36 1343.43 2058.09 1343.01 Q2055.84 1342.62 2053.34 1341.81 L2053.34 1337.41 Q2055.7 1338.63 2058 1339.26 Q2060.29 1339.86 2062.53 1339.86 Q2065.54 1339.86 2067.16 1338.84 Q2068.78 1337.8 2068.78 1335.93 Q2068.78 1334.19 2067.6 1333.26 Q2066.45 1332.34 2062.49 1331.48 L2061.01 1331.14 Q2057.05 1330.3 2055.29 1328.59 Q2053.53 1326.85 2053.53 1323.84 Q2053.53 1320.19 2056.12 1318.2 Q2058.71 1316.2 2063.48 1316.2 Q2065.84 1316.2 2067.93 1316.55 Q2070.01 1316.9 2071.77 1317.59 Z" fill="#000000" fill-rule="nonzero" fill-opacity="1" /><path clip-path="url(#clip780)" d="M2091.72 1329.72 Q2086.56 1329.72 2084.57 1330.9 Q2082.58 1332.08 2082.58 1334.93 Q2082.58 1337.2 2084.06 1338.54 Q2085.57 1339.86 2088.14 1339.86 Q2091.68 1339.86 2093.81 1337.36 Q2095.96 1334.84 2095.96 1330.67 L2095.96 1329.72 L2091.72 1329.72 M2100.22 1327.96 L2100.22 1342.76 L2095.96 1342.76 L2095.96 1338.82 Q2094.5 1341.18 2092.32 1342.32 Q2090.15 1343.43 2087 1343.43 Q2083.02 1343.43 2080.66 1341.2 Q2078.32 1338.96 2078.32 1335.21 Q2078.32 1330.83 2081.24 1328.61 Q2084.18 1326.39 2089.99 1326.39 L2095.96 1326.39 L2095.96 1325.97 Q2095.96 1323.03 2094.01 1321.44 Q2092.09 1319.82 2088.6 1319.82 Q2086.38 1319.82 2084.27 1320.35 Q2082.16 1320.88 2080.22 1321.95 L2080.22 1318.01 Q2082.56 1317.11 2084.76 1316.67 Q2086.95 1316.2 2089.04 1316.2 Q2094.66 1316.2 2097.44 1319.12 Q2100.22 1322.04 2100.22 1327.96 Z" fill="#000000" fill-rule="nonzero" fill-opacity="1" /><path clip-path="url(#clip780)" d="M2129.18 1321.81 Q2130.77 1318.94 2133 1317.57 Q2135.22 1316.2 2138.23 1316.2 Q2142.28 1316.2 2144.48 1319.05 Q2146.68 1321.88 2146.68 1327.11 L2146.68 1342.76 L2142.39 1342.76 L2142.39 1327.25 Q2142.39 1323.52 2141.07 1321.71 Q2139.76 1319.91 2137.05 1319.91 Q2133.74 1319.91 2131.82 1322.11 Q2129.89 1324.31 2129.89 1328.1 L2129.89 1342.76 L2125.61 1342.76 L2125.61 1327.25 Q2125.61 1323.5 2124.29 1321.71 Q2122.97 1319.91 2120.22 1319.91 Q2116.95 1319.91 2115.03 1322.13 Q2113.11 1324.33 2113.11 1328.1 L2113.11 1342.76 L2108.83 1342.76 L2108.83 1316.83 L2113.11 1316.83 L2113.11 1320.86 Q2114.57 1318.47 2116.61 1317.34 Q2118.64 1316.2 2121.45 1316.2 Q2124.27 1316.2 2126.24 1317.64 Q2128.23 1319.07 2129.18 1321.81 Z" fill="#000000" fill-rule="nonzero" fill-opacity="1" /><path clip-path="url(#clip780)" d="M2159.29 1338.87 L2159.29 1352.62 L2155.01 1352.62 L2155.01 1316.83 L2159.29 1316.83 L2159.29 1320.76 Q2160.63 1318.45 2162.67 1317.34 Q2164.73 1316.2 2167.58 1316.2 Q2172.3 1316.2 2175.24 1319.95 Q2178.2 1323.7 2178.2 1329.82 Q2178.2 1335.93 2175.24 1339.68 Q2172.3 1343.43 2167.58 1343.43 Q2164.73 1343.43 2162.67 1342.32 Q2160.63 1341.18 2159.29 1338.87 M2173.78 1329.82 Q2173.78 1325.12 2171.84 1322.45 Q2169.92 1319.77 2166.54 1319.77 Q2163.16 1319.77 2161.21 1322.45 Q2159.29 1325.12 2159.29 1329.82 Q2159.29 1334.51 2161.21 1337.2 Q2163.16 1339.86 2166.54 1339.86 Q2169.92 1339.86 2171.84 1337.2 Q2173.78 1334.51 2173.78 1329.82 Z" fill="#000000" fill-rule="nonzero" fill-opacity="1" /><path clip-path="url(#clip780)" d="M2185.26 1306.74 L2189.52 1306.74 L2189.52 1342.76 L2185.26 1342.76 L2185.26 1306.74 Z" fill="#000000" fill-rule="nonzero" fill-opacity="1" /><path clip-path="url(#clip780)" d="M2198.44 1316.83 L2202.69 1316.83 L2202.69 1342.76 L2198.44 1342.76 L2198.44 1316.83 M2198.44 1306.74 L2202.69 1306.74 L2202.69 1312.13 L2198.44 1312.13 L2198.44 1306.74 Z" fill="#000000" fill-rule="nonzero" fill-opacity="1" /><path clip-path="url(#clip780)" d="M2233.16 1327.11 L2233.16 1342.76 L2228.9 1342.76 L2228.9 1327.25 Q2228.9 1323.57 2227.46 1321.74 Q2226.03 1319.91 2223.16 1319.91 Q2219.71 1319.91 2217.72 1322.11 Q2215.73 1324.31 2215.73 1328.1 L2215.73 1342.76 L2211.44 1342.76 L2211.44 1316.83 L2215.73 1316.83 L2215.73 1320.86 Q2217.25 1318.52 2219.31 1317.36 Q2221.4 1316.2 2224.11 1316.2 Q2228.57 1316.2 2230.87 1318.98 Q2233.16 1321.74 2233.16 1327.11 Z" fill="#000000" fill-rule="nonzero" fill-opacity="1" /><path clip-path="url(#clip780)" d="M2258.71 1329.49 Q2258.71 1324.86 2256.79 1322.32 Q2254.89 1319.77 2251.44 1319.77 Q2248.02 1319.77 2246.1 1322.32 Q2244.2 1324.86 2244.2 1329.49 Q2244.2 1334.1 2246.1 1336.64 Q2248.02 1339.19 2251.44 1339.19 Q2254.89 1339.19 2256.79 1336.64 Q2258.71 1334.1 2258.71 1329.49 M2262.97 1339.54 Q2262.97 1346.16 2260.03 1349.38 Q2257.09 1352.62 2251.03 1352.62 Q2248.78 1352.62 2246.79 1352.27 Q2244.8 1351.95 2242.93 1351.25 L2242.93 1347.11 Q2244.8 1348.13 2246.63 1348.61 Q2248.46 1349.1 2250.36 1349.1 Q2254.55 1349.1 2256.63 1346.9 Q2258.71 1344.72 2258.71 1340.3 L2258.71 1338.2 Q2257.39 1340.49 2255.33 1341.62 Q2253.27 1342.76 2250.4 1342.76 Q2245.63 1342.76 2242.72 1339.12 Q2239.8 1335.49 2239.8 1329.49 Q2239.8 1323.47 2242.72 1319.84 Q2245.63 1316.2 2250.4 1316.2 Q2253.27 1316.2 2255.33 1317.34 Q2257.39 1318.47 2258.71 1320.76 L2258.71 1316.83 L2262.97 1316.83 L2262.97 1339.54 Z" fill="#000000" fill-rule="nonzero" fill-opacity="1" /></svg>
