<?xml version="1.0" encoding="utf-8"?>
<svg xmlns="http://www.w3.org/2000/svg" xmlns:xlink="http://www.w3.org/1999/xlink" width="600" height="400" viewBox="0 0 2400 1600">
<defs>
  <clipPath id="clip910">
    <rect x="0" y="0" width="2400" height="1600"/>
  </clipPath>
</defs>
<path clip-path="url(#clip910)" d="M0 1600 L2400 1600 L2400 0 L0 0  Z" fill="#ffffff" fill-rule="evenodd" fill-opacity="1"/>
<defs>
  <clipPath id="clip911">
    <rect x="407" y="47" width="1946" height="1377"/>
  </clipPath>
</defs>
<path clip-path="url(#clip910)" d="M407.875 1423.18 L2352.76 1423.18 L2352.76 47.2441 L407.875 47.2441  Z" fill="#ffffff" fill-rule="evenodd" fill-opacity="1"/>
<polyline clip-path="url(#clip911)" style="stroke:#000000; stroke-linecap:round; stroke-linejoin:round; stroke-width:2; stroke-opacity:0.1; fill:none" points="422.7,1423.18 422.7,47.2441 "/>
<polyline clip-path="url(#clip911)" style="stroke:#000000; stroke-linecap:round; stroke-linejoin:round; stroke-width:2; stroke-opacity:0.1; fill:none" points="754.846,1423.18 754.846,47.2441 "/>
<polyline clip-path="url(#clip911)" style="stroke:#000000; stroke-linecap:round; stroke-linejoin:round; stroke-width:2; stroke-opacity:0.1; fill:none" points="1086.99,1423.18 1086.99,47.2441 "/>
<polyline clip-path="url(#clip911)" style="stroke:#000000; stroke-linecap:round; stroke-linejoin:round; stroke-width:2; stroke-opacity:0.1; fill:none" points="1419.14,1423.18 1419.14,47.2441 "/>
<polyline clip-path="url(#clip911)" style="stroke:#000000; stroke-linecap:round; stroke-linejoin:round; stroke-width:2; stroke-opacity:0.1; fill:none" points="1751.28,1423.18 1751.28,47.2441 "/>
<polyline clip-path="url(#clip911)" style="stroke:#000000; stroke-linecap:round; stroke-linejoin:round; stroke-width:2; stroke-opacity:0.1; fill:none" points="2083.43,1423.18 2083.43,47.2441 "/>
<polyline clip-path="url(#clip911)" style="stroke:#000000; stroke-linecap:round; stroke-linejoin:round; stroke-width:2; stroke-opacity:0.1; fill:none" points="407.875,1228.22 2352.76,1228.22 "/>
<polyline clip-path="url(#clip911)" style="stroke:#000000; stroke-linecap:round; stroke-linejoin:round; stroke-width:2; stroke-opacity:0.1; fill:none" points="407.875,953.033 2352.76,953.033 "/>
<polyline clip-path="url(#clip911)" style="stroke:#000000; stroke-linecap:round; stroke-linejoin:round; stroke-width:2; stroke-opacity:0.1; fill:none" points="407.875,677.848 2352.76,677.848 "/>
<polyline clip-path="url(#clip911)" style="stroke:#000000; stroke-linecap:round; stroke-linejoin:round; stroke-width:2; stroke-opacity:0.1; fill:none" points="407.875,402.663 2352.76,402.663 "/>
<polyline clip-path="url(#clip911)" style="stroke:#000000; stroke-linecap:round; stroke-linejoin:round; stroke-width:2; stroke-opacity:0.1; fill:none" points="407.875,127.477 2352.76,127.477 "/>
<polyline clip-path="url(#clip910)" style="stroke:#000000; stroke-linecap:round; stroke-linejoin:round; stroke-width:4; stroke-opacity:1; fill:none" points="407.875,1423.18 2352.76,1423.18 "/>
<polyline clip-path="url(#clip910)" style="stroke:#000000; stroke-linecap:round; stroke-linejoin:round; stroke-width:4; stroke-opacity:1; fill:none" points="422.7,1423.18 422.7,1404.28 "/>
<polyline clip-path="url(#clip910)" style="stroke:#000000; stroke-linecap:round; stroke-linejoin:round; stroke-width:4; stroke-opacity:1; fill:none" points="754.846,1423.18 754.846,1404.28 "/>
<polyline clip-path="url(#clip910)" style="stroke:#000000; stroke-linecap:round; stroke-linejoin:round; stroke-width:4; stroke-opacity:1; fill:none" points="1086.99,1423.18 1086.99,1404.28 "/>
<polyline clip-path="url(#clip910)" style="stroke:#000000; stroke-linecap:round; stroke-linejoin:round; stroke-width:4; stroke-opacity:1; fill:none" points="1419.14,1423.18 1419.14,1404.28 "/>
<polyline clip-path="url(#clip910)" style="stroke:#000000; stroke-linecap:round; stroke-linejoin:round; stroke-width:4; stroke-opacity:1; fill:none" points="1751.28,1423.18 1751.28,1404.28 "/>
<polyline clip-path="url(#clip910)" style="stroke:#000000; stroke-linecap:round; stroke-linejoin:round; stroke-width:4; stroke-opacity:1; fill:none" points="2083.43,1423.18 2083.43,1404.28 "/>
<path clip-path="url(#clip910)" d="M422.7 1454.1 Q419.089 1454.1 417.26 1457.66 Q415.454 1461.2 415.454 1468.33 Q415.454 1475.44 417.26 1479.01 Q419.089 1482.55 422.7 1482.55 Q426.334 1482.55 428.14 1479.01 Q429.968 1475.44 429.968 1468.33 Q429.968 1461.2 428.14 1457.66 Q426.334 1454.1 422.7 1454.1 M422.7 1450.39 Q428.51 1450.39 431.565 1455 Q434.644 1459.58 434.644 1468.33 Q434.644 1477.06 431.565 1481.67 Q428.51 1486.25 422.7 1486.25 Q416.89 1486.25 413.811 1481.67 Q410.755 1477.06 410.755 1468.33 Q410.755 1459.58 413.811 1455 Q416.89 1450.39 422.7 1450.39 Z" fill="#000000" fill-rule="nonzero" fill-opacity="1" /><path clip-path="url(#clip910)" d="M745.124 1451.02 L763.48 1451.02 L763.48 1454.96 L749.406 1454.96 L749.406 1463.43 Q750.425 1463.08 751.443 1462.92 Q752.462 1462.73 753.48 1462.73 Q759.267 1462.73 762.647 1465.9 Q766.027 1469.08 766.027 1474.49 Q766.027 1480.07 762.554 1483.17 Q759.082 1486.25 752.763 1486.25 Q750.587 1486.25 748.318 1485.88 Q746.073 1485.51 743.666 1484.77 L743.666 1480.07 Q745.749 1481.2 747.971 1481.76 Q750.193 1482.32 752.67 1482.32 Q756.675 1482.32 759.013 1480.21 Q761.351 1478.1 761.351 1474.49 Q761.351 1470.88 759.013 1468.77 Q756.675 1466.67 752.67 1466.67 Q750.795 1466.67 748.92 1467.08 Q747.068 1467.5 745.124 1468.38 L745.124 1451.02 Z" fill="#000000" fill-rule="nonzero" fill-opacity="1" /><path clip-path="url(#clip910)" d="M1061.68 1481.64 L1069.32 1481.64 L1069.32 1455.28 L1061.01 1456.95 L1061.01 1452.69 L1069.27 1451.02 L1073.95 1451.02 L1073.95 1481.64 L1081.59 1481.64 L1081.59 1485.58 L1061.68 1485.58 L1061.68 1481.64 Z" fill="#000000" fill-rule="nonzero" fill-opacity="1" /><path clip-path="url(#clip910)" d="M1101.03 1454.1 Q1097.42 1454.1 1095.59 1457.66 Q1093.79 1461.2 1093.79 1468.33 Q1093.79 1475.44 1095.59 1479.01 Q1097.42 1482.55 1101.03 1482.55 Q1104.67 1482.55 1106.47 1479.01 Q1108.3 1475.44 1108.3 1468.33 Q1108.3 1461.2 1106.47 1457.66 Q1104.67 1454.1 1101.03 1454.1 M1101.03 1450.39 Q1106.84 1450.39 1109.9 1455 Q1112.98 1459.58 1112.98 1468.33 Q1112.98 1477.06 1109.9 1481.67 Q1106.84 1486.25 1101.03 1486.25 Q1095.22 1486.25 1092.14 1481.67 Q1089.09 1477.06 1089.09 1468.33 Q1089.09 1459.58 1092.14 1455 Q1095.22 1450.39 1101.03 1450.39 Z" fill="#000000" fill-rule="nonzero" fill-opacity="1" /><path clip-path="url(#clip910)" d="M1394.32 1481.64 L1401.96 1481.64 L1401.96 1455.28 L1393.65 1456.95 L1393.65 1452.69 L1401.92 1451.02 L1406.59 1451.02 L1406.59 1481.64 L1414.23 1481.64 L1414.23 1485.58 L1394.32 1485.58 L1394.32 1481.64 Z" fill="#000000" fill-rule="nonzero" fill-opacity="1" /><path clip-path="url(#clip910)" d="M1423.72 1451.02 L1442.08 1451.02 L1442.08 1454.96 L1428 1454.96 L1428 1463.43 Q1429.02 1463.08 1430.04 1462.92 Q1431.06 1462.73 1432.08 1462.73 Q1437.87 1462.73 1441.24 1465.9 Q1444.62 1469.08 1444.62 1474.49 Q1444.62 1480.07 1441.15 1483.17 Q1437.68 1486.25 1431.36 1486.25 Q1429.18 1486.25 1426.92 1485.88 Q1424.67 1485.51 1422.26 1484.77 L1422.26 1480.07 Q1424.35 1481.2 1426.57 1481.76 Q1428.79 1482.32 1431.27 1482.32 Q1435.27 1482.32 1437.61 1480.21 Q1439.95 1478.1 1439.95 1474.49 Q1439.95 1470.88 1437.61 1468.77 Q1435.27 1466.67 1431.27 1466.67 Q1429.39 1466.67 1427.52 1467.08 Q1425.67 1467.5 1423.72 1468.38 L1423.72 1451.02 Z" fill="#000000" fill-rule="nonzero" fill-opacity="1" /><path clip-path="url(#clip910)" d="M1730.06 1481.64 L1746.38 1481.64 L1746.38 1485.58 L1724.43 1485.58 L1724.43 1481.64 Q1727.1 1478.89 1731.68 1474.26 Q1736.28 1469.61 1737.47 1468.27 Q1739.71 1465.74 1740.59 1464.01 Q1741.49 1462.25 1741.49 1460.56 Q1741.49 1457.8 1739.55 1456.07 Q1737.63 1454.33 1734.53 1454.33 Q1732.33 1454.33 1729.87 1455.09 Q1727.44 1455.86 1724.66 1457.41 L1724.66 1452.69 Q1727.49 1451.55 1729.94 1450.97 Q1732.4 1450.39 1734.43 1450.39 Q1739.8 1450.39 1743 1453.08 Q1746.19 1455.77 1746.19 1460.26 Q1746.19 1462.39 1745.38 1464.31 Q1744.6 1466.2 1742.49 1468.8 Q1741.91 1469.47 1738.81 1472.69 Q1735.71 1475.88 1730.06 1481.64 Z" fill="#000000" fill-rule="nonzero" fill-opacity="1" /><path clip-path="url(#clip910)" d="M1766.19 1454.1 Q1762.58 1454.1 1760.75 1457.66 Q1758.95 1461.2 1758.95 1468.33 Q1758.95 1475.44 1760.75 1479.01 Q1762.58 1482.55 1766.19 1482.55 Q1769.83 1482.55 1771.63 1479.01 Q1773.46 1475.44 1773.46 1468.33 Q1773.46 1461.2 1771.63 1457.66 Q1769.83 1454.1 1766.19 1454.1 M1766.19 1450.39 Q1772 1450.39 1775.06 1455 Q1778.14 1459.58 1778.14 1468.33 Q1778.14 1477.06 1775.06 1481.67 Q1772 1486.25 1766.19 1486.25 Q1760.38 1486.25 1757.3 1481.67 Q1754.25 1477.06 1754.25 1468.33 Q1754.25 1459.58 1757.3 1455 Q1760.38 1450.39 1766.19 1450.39 Z" fill="#000000" fill-rule="nonzero" fill-opacity="1" /><path clip-path="url(#clip910)" d="M2062.7 1481.64 L2079.02 1481.64 L2079.02 1485.58 L2057.08 1485.58 L2057.08 1481.64 Q2059.74 1478.89 2064.32 1474.26 Q2068.93 1469.61 2070.11 1468.27 Q2072.35 1465.74 2073.23 1464.01 Q2074.14 1462.25 2074.14 1460.56 Q2074.14 1457.8 2072.19 1456.07 Q2070.27 1454.33 2067.17 1454.33 Q2064.97 1454.33 2062.52 1455.09 Q2060.09 1455.86 2057.31 1457.41 L2057.31 1452.69 Q2060.13 1451.55 2062.59 1450.97 Q2065.04 1450.39 2067.08 1450.39 Q2072.45 1450.39 2075.64 1453.08 Q2078.84 1455.77 2078.84 1460.26 Q2078.84 1462.39 2078.03 1464.31 Q2077.24 1466.2 2075.13 1468.8 Q2074.55 1469.47 2071.45 1472.69 Q2068.35 1475.88 2062.7 1481.64 Z" fill="#000000" fill-rule="nonzero" fill-opacity="1" /><path clip-path="url(#clip910)" d="M2088.88 1451.02 L2107.24 1451.02 L2107.24 1454.96 L2093.16 1454.96 L2093.16 1463.43 Q2094.18 1463.08 2095.2 1462.92 Q2096.22 1462.73 2097.24 1462.73 Q2103.03 1462.73 2106.41 1465.9 Q2109.79 1469.08 2109.79 1474.49 Q2109.79 1480.07 2106.31 1483.17 Q2102.84 1486.25 2096.52 1486.25 Q2094.35 1486.25 2092.08 1485.88 Q2089.83 1485.51 2087.42 1484.77 L2087.42 1480.07 Q2089.51 1481.2 2091.73 1481.76 Q2093.95 1482.32 2096.43 1482.32 Q2100.43 1482.32 2102.77 1480.21 Q2105.11 1478.1 2105.11 1474.49 Q2105.11 1470.88 2102.77 1468.77 Q2100.43 1466.67 2096.43 1466.67 Q2094.55 1466.67 2092.68 1467.08 Q2090.83 1467.5 2088.88 1468.38 L2088.88 1451.02 Z" fill="#000000" fill-rule="nonzero" fill-opacity="1" /><path clip-path="url(#clip910)" d="M1051.4 1520.52 L1057.89 1520.52 L1067.89 1560.69 L1077.85 1520.52 L1085.07 1520.52 L1095.07 1560.69 L1105.03 1520.52 L1111.56 1520.52 L1099.62 1568.04 L1091.53 1568.04 L1081.51 1526.79 L1071.39 1568.04 L1063.3 1568.04 L1051.4 1520.52 Z" fill="#000000" fill-rule="nonzero" fill-opacity="1" /><path clip-path="url(#clip910)" d="M1131.86 1550.12 Q1124.76 1550.12 1122.03 1551.75 Q1119.29 1553.37 1119.29 1557.29 Q1119.29 1560.4 1121.33 1562.25 Q1123.4 1564.07 1126.93 1564.07 Q1131.8 1564.07 1134.73 1560.63 Q1137.69 1557.16 1137.69 1551.43 L1137.69 1550.12 L1131.86 1550.12 M1143.54 1547.71 L1143.54 1568.04 L1137.69 1568.04 L1137.69 1562.63 Q1135.68 1565.88 1132.69 1567.44 Q1129.7 1568.97 1125.37 1568.97 Q1119.89 1568.97 1116.65 1565.91 Q1113.43 1562.82 1113.43 1557.67 Q1113.43 1551.65 1117.44 1548.6 Q1121.49 1545.54 1129.47 1545.54 L1137.69 1545.54 L1137.69 1544.97 Q1137.69 1540.93 1135.01 1538.73 Q1132.37 1536.5 1127.56 1536.5 Q1124.51 1536.5 1121.61 1537.23 Q1118.72 1537.97 1116.04 1539.43 L1116.04 1534.02 Q1119.26 1532.78 1122.28 1532.17 Q1125.31 1531.54 1128.17 1531.54 Q1135.9 1531.54 1139.72 1535.55 Q1143.54 1539.56 1143.54 1547.71 Z" fill="#000000" fill-rule="nonzero" fill-opacity="1" /><path clip-path="url(#clip910)" d="M1155.61 1518.52 L1161.46 1518.52 L1161.46 1568.04 L1155.61 1568.04 L1155.61 1518.52 Z" fill="#000000" fill-rule="nonzero" fill-opacity="1" /><path clip-path="url(#clip910)" d="M1173.72 1518.52 L1179.57 1518.52 L1179.57 1568.04 L1173.72 1568.04 L1173.72 1518.52 Z" fill="#000000" fill-rule="nonzero" fill-opacity="1" /><path clip-path="url(#clip910)" d="M1217.48 1533.76 L1217.48 1539.24 Q1215 1537.87 1212.48 1537.2 Q1210 1536.5 1207.45 1536.5 Q1201.76 1536.5 1198.61 1540.13 Q1195.46 1543.73 1195.46 1550.25 Q1195.46 1556.78 1198.61 1560.4 Q1201.76 1564 1207.45 1564 Q1210 1564 1212.48 1563.33 Q1215 1562.63 1217.48 1561.26 L1217.48 1566.68 Q1215.03 1567.82 1212.39 1568.39 Q1209.78 1568.97 1206.82 1568.97 Q1198.77 1568.97 1194.02 1563.91 Q1189.28 1558.85 1189.28 1550.25 Q1189.28 1541.53 1194.05 1536.53 Q1198.86 1531.54 1207.2 1531.54 Q1209.91 1531.54 1212.48 1532.11 Q1215.06 1532.65 1217.48 1533.76 Z" fill="#000000" fill-rule="nonzero" fill-opacity="1" /><path clip-path="url(#clip910)" d="M1227.67 1518.52 L1233.52 1518.52 L1233.52 1568.04 L1227.67 1568.04 L1227.67 1518.52 Z" fill="#000000" fill-rule="nonzero" fill-opacity="1" /><path clip-path="url(#clip910)" d="M1259.59 1536.5 Q1254.88 1536.5 1252.14 1540.19 Q1249.4 1543.85 1249.4 1550.25 Q1249.4 1556.65 1252.11 1560.34 Q1254.85 1564 1259.59 1564 Q1264.27 1564 1267.01 1560.31 Q1269.74 1556.62 1269.74 1550.25 Q1269.74 1543.92 1267.01 1540.23 Q1264.27 1536.5 1259.59 1536.5 M1259.59 1531.54 Q1267.23 1531.54 1271.59 1536.5 Q1275.95 1541.47 1275.95 1550.25 Q1275.95 1559 1271.59 1564 Q1267.23 1568.97 1259.59 1568.97 Q1251.92 1568.97 1247.56 1564 Q1243.23 1559 1243.23 1550.25 Q1243.23 1541.47 1247.56 1536.5 Q1251.92 1531.54 1259.59 1531.54 Z" fill="#000000" fill-rule="nonzero" fill-opacity="1" /><path clip-path="url(#clip910)" d="M1311.31 1533.76 L1311.31 1539.24 Q1308.83 1537.87 1306.31 1537.2 Q1303.83 1536.5 1301.28 1536.5 Q1295.59 1536.5 1292.44 1540.13 Q1289.29 1543.73 1289.29 1550.25 Q1289.29 1556.78 1292.44 1560.4 Q1295.59 1564 1301.28 1564 Q1303.83 1564 1306.31 1563.33 Q1308.83 1562.63 1311.31 1561.26 L1311.31 1566.68 Q1308.86 1567.82 1306.22 1568.39 Q1303.61 1568.97 1300.65 1568.97 Q1292.6 1568.97 1287.85 1563.91 Q1283.11 1558.85 1283.11 1550.25 Q1283.11 1541.53 1287.89 1536.53 Q1292.69 1531.54 1301.03 1531.54 Q1303.74 1531.54 1306.31 1532.11 Q1308.89 1532.65 1311.31 1533.76 Z" fill="#000000" fill-rule="nonzero" fill-opacity="1" /><path clip-path="url(#clip910)" d="M1321.27 1518.52 L1327.16 1518.52 L1327.16 1547.77 L1344.64 1532.4 L1352.12 1532.4 L1333.21 1549.07 L1352.91 1568.04 L1345.27 1568.04 L1327.16 1550.63 L1327.16 1568.04 L1321.27 1568.04 L1321.27 1518.52 Z" fill="#000000" fill-rule="nonzero" fill-opacity="1" /><path clip-path="url(#clip910)" d="M1373.63 1520.52 L1413.83 1520.52 L1413.83 1525.93 L1396.96 1525.93 L1396.96 1568.04 L1390.5 1568.04 L1390.5 1525.93 L1373.63 1525.93 L1373.63 1520.52 Z" fill="#000000" fill-rule="nonzero" fill-opacity="1" /><path clip-path="url(#clip910)" d="M1417.78 1532.4 L1423.63 1532.4 L1423.63 1568.04 L1417.78 1568.04 L1417.78 1532.4 M1417.78 1518.52 L1423.63 1518.52 L1423.63 1525.93 L1417.78 1525.93 L1417.78 1518.52 Z" fill="#000000" fill-rule="nonzero" fill-opacity="1" /><path clip-path="url(#clip910)" d="M1463.64 1539.24 Q1465.84 1535.29 1468.89 1533.41 Q1471.95 1531.54 1476.09 1531.54 Q1481.66 1531.54 1484.68 1535.45 Q1487.7 1539.33 1487.7 1546.53 L1487.7 1568.04 L1481.82 1568.04 L1481.82 1546.72 Q1481.82 1541.59 1480 1539.11 Q1478.19 1536.63 1474.46 1536.63 Q1469.91 1536.63 1467.27 1539.65 Q1464.63 1542.68 1464.63 1547.9 L1464.63 1568.04 L1458.74 1568.04 L1458.74 1546.72 Q1458.74 1541.56 1456.93 1539.11 Q1455.11 1536.63 1451.32 1536.63 Q1446.84 1536.63 1444.2 1539.68 Q1441.55 1542.71 1441.55 1547.9 L1441.55 1568.04 L1435.67 1568.04 L1435.67 1532.4 L1441.55 1532.4 L1441.55 1537.93 Q1443.56 1534.66 1446.36 1533.1 Q1449.16 1531.54 1453.01 1531.54 Q1456.89 1531.54 1459.6 1533.51 Q1462.34 1535.48 1463.64 1539.24 Z" fill="#000000" fill-rule="nonzero" fill-opacity="1" /><path clip-path="url(#clip910)" d="M1529.88 1548.76 L1529.88 1551.62 L1502.95 1551.62 Q1503.33 1557.67 1506.58 1560.85 Q1509.86 1564 1515.68 1564 Q1519.06 1564 1522.21 1563.17 Q1525.39 1562.35 1528.51 1560.69 L1528.51 1566.23 Q1525.36 1567.57 1522.05 1568.27 Q1518.74 1568.97 1515.33 1568.97 Q1506.8 1568.97 1501.8 1564 Q1496.84 1559.04 1496.84 1550.57 Q1496.84 1541.82 1501.55 1536.69 Q1506.29 1531.54 1514.31 1531.54 Q1521.51 1531.54 1525.68 1536.18 Q1529.88 1540.8 1529.88 1548.76 M1524.02 1547.04 Q1523.96 1542.23 1521.32 1539.37 Q1518.71 1536.5 1514.38 1536.5 Q1509.48 1536.5 1506.52 1539.27 Q1503.59 1542.04 1503.14 1547.07 L1524.02 1547.04 Z" fill="#000000" fill-rule="nonzero" fill-opacity="1" /><path clip-path="url(#clip910)" d="M1574.28 1518.58 Q1570.01 1525.9 1567.94 1533.06 Q1565.88 1540.23 1565.88 1547.58 Q1565.88 1554.93 1567.94 1562.16 Q1570.05 1569.35 1574.28 1576.64 L1569.19 1576.64 Q1564.41 1569.16 1562.02 1561.93 Q1559.67 1554.71 1559.67 1547.58 Q1559.67 1540.48 1562.02 1533.29 Q1564.38 1526.09 1569.19 1518.58 L1574.28 1518.58 Z" fill="#000000" fill-rule="nonzero" fill-opacity="1" /><path clip-path="url(#clip910)" d="M1608.37 1533.45 L1608.37 1538.98 Q1605.88 1537.71 1603.21 1537.07 Q1600.54 1536.44 1597.67 1536.44 Q1593.31 1536.44 1591.12 1537.77 Q1588.95 1539.11 1588.95 1541.79 Q1588.95 1543.82 1590.51 1545 Q1592.07 1546.15 1596.78 1547.2 L1598.79 1547.64 Q1605.02 1548.98 1607.63 1551.43 Q1610.28 1553.85 1610.28 1558.21 Q1610.28 1563.17 1606.33 1566.07 Q1602.41 1568.97 1595.54 1568.97 Q1592.68 1568.97 1589.56 1568.39 Q1586.47 1567.85 1583.03 1566.74 L1583.03 1560.69 Q1586.28 1562.38 1589.43 1563.24 Q1592.58 1564.07 1595.67 1564.07 Q1599.8 1564.07 1602.03 1562.66 Q1604.26 1561.23 1604.26 1558.65 Q1604.26 1556.27 1602.64 1554.99 Q1601.05 1553.72 1595.6 1552.54 L1593.57 1552.07 Q1588.12 1550.92 1585.7 1548.56 Q1583.29 1546.18 1583.29 1542.04 Q1583.29 1537.01 1586.85 1534.27 Q1590.42 1531.54 1596.97 1531.54 Q1600.22 1531.54 1603.08 1532.01 Q1605.95 1532.49 1608.37 1533.45 Z" fill="#000000" fill-rule="nonzero" fill-opacity="1" /><path clip-path="url(#clip910)" d="M1650.09 1548.76 L1650.09 1551.62 L1623.17 1551.62 Q1623.55 1557.67 1626.8 1560.85 Q1630.07 1564 1635.9 1564 Q1639.27 1564 1642.42 1563.17 Q1645.61 1562.35 1648.73 1560.69 L1648.73 1566.23 Q1645.57 1567.57 1642.26 1568.27 Q1638.95 1568.97 1635.55 1568.97 Q1627.02 1568.97 1622.02 1564 Q1617.06 1559.04 1617.06 1550.57 Q1617.06 1541.82 1621.77 1536.69 Q1626.51 1531.54 1634.53 1531.54 Q1641.72 1531.54 1645.89 1536.18 Q1650.09 1540.8 1650.09 1548.76 M1644.24 1547.04 Q1644.17 1542.23 1641.53 1539.37 Q1638.92 1536.5 1634.59 1536.5 Q1629.69 1536.5 1626.73 1539.27 Q1623.8 1542.04 1623.36 1547.07 L1644.24 1547.04 Z" fill="#000000" fill-rule="nonzero" fill-opacity="1" /><path clip-path="url(#clip910)" d="M1685.36 1533.76 L1685.36 1539.24 Q1682.88 1537.87 1680.36 1537.2 Q1677.88 1536.5 1675.33 1536.5 Q1669.64 1536.5 1666.49 1540.13 Q1663.33 1543.73 1663.33 1550.25 Q1663.33 1556.78 1666.49 1560.4 Q1669.64 1564 1675.33 1564 Q1677.88 1564 1680.36 1563.33 Q1682.88 1562.63 1685.36 1561.26 L1685.36 1566.68 Q1682.91 1567.82 1680.27 1568.39 Q1677.66 1568.97 1674.7 1568.97 Q1666.64 1568.97 1661.9 1563.91 Q1657.16 1558.85 1657.16 1550.25 Q1657.16 1541.53 1661.93 1536.53 Q1666.74 1531.54 1675.08 1531.54 Q1677.78 1531.54 1680.36 1532.11 Q1682.94 1532.65 1685.36 1533.76 Z" fill="#000000" fill-rule="nonzero" fill-opacity="1" /><path clip-path="url(#clip910)" d="M1694.62 1518.58 L1699.71 1518.58 Q1704.49 1526.09 1706.84 1533.29 Q1709.23 1540.48 1709.23 1547.58 Q1709.23 1554.71 1706.84 1561.93 Q1704.49 1569.16 1699.71 1576.64 L1694.62 1576.64 Q1698.86 1569.35 1700.92 1562.16 Q1703.02 1554.93 1703.02 1547.58 Q1703.02 1540.23 1700.92 1533.06 Q1698.86 1525.9 1694.62 1518.58 Z" fill="#000000" fill-rule="nonzero" fill-opacity="1" /><polyline clip-path="url(#clip910)" style="stroke:#000000; stroke-linecap:round; stroke-linejoin:round; stroke-width:4; stroke-opacity:1; fill:none" points="407.875,1423.18 407.875,47.2441 "/>
<polyline clip-path="url(#clip910)" style="stroke:#000000; stroke-linecap:round; stroke-linejoin:round; stroke-width:4; stroke-opacity:1; fill:none" points="407.875,1228.22 426.772,1228.22 "/>
<polyline clip-path="url(#clip910)" style="stroke:#000000; stroke-linecap:round; stroke-linejoin:round; stroke-width:4; stroke-opacity:1; fill:none" points="407.875,953.033 426.772,953.033 "/>
<polyline clip-path="url(#clip910)" style="stroke:#000000; stroke-linecap:round; stroke-linejoin:round; stroke-width:4; stroke-opacity:1; fill:none" points="407.875,677.848 426.772,677.848 "/>
<polyline clip-path="url(#clip910)" style="stroke:#000000; stroke-linecap:round; stroke-linejoin:round; stroke-width:4; stroke-opacity:1; fill:none" points="407.875,402.663 426.772,402.663 "/>
<polyline clip-path="url(#clip910)" style="stroke:#000000; stroke-linecap:round; stroke-linejoin:round; stroke-width:4; stroke-opacity:1; fill:none" points="407.875,127.477 426.772,127.477 "/>
<path clip-path="url(#clip910)" d="M114.26 1235.12 L143.936 1235.12 L143.936 1239.05 L114.26 1239.05 L114.26 1235.12 Z" fill="#000000" fill-rule="nonzero" fill-opacity="1" /><path clip-path="url(#clip910)" d="M154.839 1248.01 L162.477 1248.01 L162.477 1221.64 L154.167 1223.31 L154.167 1219.05 L162.431 1217.39 L167.107 1217.39 L167.107 1248.01 L174.746 1248.01 L174.746 1251.95 L154.839 1251.95 L154.839 1248.01 Z" fill="#000000" fill-rule="nonzero" fill-opacity="1" /><path clip-path="url(#clip910)" d="M184.19 1246.07 L189.075 1246.07 L189.075 1251.95 L184.19 1251.95 L184.19 1246.07 Z" fill="#000000" fill-rule="nonzero" fill-opacity="1" /><path clip-path="url(#clip910)" d="M209.26 1235.53 Q205.926 1235.53 204.005 1237.32 Q202.107 1239.1 202.107 1242.22 Q202.107 1245.35 204.005 1247.13 Q205.926 1248.91 209.26 1248.91 Q212.593 1248.91 214.514 1247.13 Q216.436 1245.33 216.436 1242.22 Q216.436 1239.1 214.514 1237.32 Q212.616 1235.53 209.26 1235.53 M204.584 1233.54 Q201.575 1232.8 199.885 1230.74 Q198.218 1228.68 198.218 1225.72 Q198.218 1221.58 201.158 1219.17 Q204.121 1216.76 209.26 1216.76 Q214.422 1216.76 217.361 1219.17 Q220.301 1221.58 220.301 1225.72 Q220.301 1228.68 218.611 1230.74 Q216.945 1232.8 213.959 1233.54 Q217.338 1234.33 219.213 1236.62 Q221.111 1238.91 221.111 1242.22 Q221.111 1247.25 218.033 1249.93 Q214.977 1252.62 209.26 1252.62 Q203.542 1252.62 200.463 1249.93 Q197.408 1247.25 197.408 1242.22 Q197.408 1238.91 199.306 1236.62 Q201.204 1234.33 204.584 1233.54 M202.871 1226.16 Q202.871 1228.84 204.537 1230.35 Q206.227 1231.85 209.26 1231.85 Q212.269 1231.85 213.959 1230.35 Q215.672 1228.84 215.672 1226.16 Q215.672 1223.47 213.959 1221.97 Q212.269 1220.46 209.26 1220.46 Q206.227 1220.46 204.537 1221.97 Q202.871 1223.47 202.871 1226.16 Z" fill="#000000" fill-rule="nonzero" fill-opacity="1" /><path clip-path="url(#clip910)" d="M239.422 1220.46 Q235.81 1220.46 233.982 1224.03 Q232.176 1227.57 232.176 1234.7 Q232.176 1241.81 233.982 1245.37 Q235.81 1248.91 239.422 1248.91 Q243.056 1248.91 244.861 1245.37 Q246.69 1241.81 246.69 1234.7 Q246.69 1227.57 244.861 1224.03 Q243.056 1220.46 239.422 1220.46 M239.422 1216.76 Q245.232 1216.76 248.287 1221.37 Q251.366 1225.95 251.366 1234.7 Q251.366 1243.43 248.287 1248.03 Q245.232 1252.62 239.422 1252.62 Q233.611 1252.62 230.533 1248.03 Q227.477 1243.43 227.477 1234.7 Q227.477 1225.95 230.533 1221.37 Q233.611 1216.76 239.422 1216.76 Z" fill="#000000" fill-rule="nonzero" fill-opacity="1" /><path clip-path="url(#clip910)" d="M287.755 1226.48 L277.176 1237.11 L287.755 1247.69 L285 1250.49 L274.375 1239.86 L263.75 1250.49 L261.019 1247.69 L271.574 1237.11 L261.019 1226.48 L263.75 1223.68 L274.375 1234.31 L285 1223.68 L287.755 1226.48 Z" fill="#000000" fill-rule="nonzero" fill-opacity="1" /><path clip-path="url(#clip910)" d="M300.116 1248.01 L307.754 1248.01 L307.754 1221.64 L299.444 1223.31 L299.444 1219.05 L307.708 1217.39 L312.384 1217.39 L312.384 1248.01 L320.023 1248.01 L320.023 1251.95 L300.116 1251.95 L300.116 1248.01 Z" fill="#000000" fill-rule="nonzero" fill-opacity="1" /><path clip-path="url(#clip910)" d="M339.467 1220.46 Q335.856 1220.46 334.027 1224.03 Q332.222 1227.57 332.222 1234.7 Q332.222 1241.81 334.027 1245.37 Q335.856 1248.91 339.467 1248.91 Q343.102 1248.91 344.907 1245.37 Q346.736 1241.81 346.736 1234.7 Q346.736 1227.57 344.907 1224.03 Q343.102 1220.46 339.467 1220.46 M339.467 1216.76 Q345.277 1216.76 348.333 1221.37 Q351.412 1225.95 351.412 1234.7 Q351.412 1243.43 348.333 1248.03 Q345.277 1252.62 339.467 1252.62 Q333.657 1252.62 330.578 1248.03 Q327.523 1243.43 327.523 1234.7 Q327.523 1225.95 330.578 1221.37 Q333.657 1216.76 339.467 1216.76 Z" fill="#000000" fill-rule="nonzero" fill-opacity="1" /><path clip-path="url(#clip910)" d="M364.088 1199.77 L354.496 1214.76 L364.088 1214.76 L364.088 1199.77 M363.091 1196.46 L367.868 1196.46 L367.868 1214.76 L371.875 1214.76 L371.875 1217.91 L367.868 1217.91 L367.868 1224.54 L364.088 1224.54 L364.088 1217.91 L351.412 1217.91 L351.412 1214.25 L363.091 1196.46 Z" fill="#000000" fill-rule="nonzero" fill-opacity="1" /><path clip-path="url(#clip910)" d="M114.26 959.932 L143.936 959.932 L143.936 963.867 L114.26 963.867 L114.26 959.932 Z" fill="#000000" fill-rule="nonzero" fill-opacity="1" /><path clip-path="url(#clip910)" d="M154.839 972.825 L162.477 972.825 L162.477 946.46 L154.167 948.126 L154.167 943.867 L162.431 942.201 L167.107 942.201 L167.107 972.825 L174.746 972.825 L174.746 976.761 L154.839 976.761 L154.839 972.825 Z" fill="#000000" fill-rule="nonzero" fill-opacity="1" /><path clip-path="url(#clip910)" d="M184.19 970.881 L189.075 970.881 L189.075 976.761 L184.19 976.761 L184.19 970.881 Z" fill="#000000" fill-rule="nonzero" fill-opacity="1" /><path clip-path="url(#clip910)" d="M199.306 942.201 L217.662 942.201 L217.662 946.136 L203.588 946.136 L203.588 954.608 Q204.607 954.261 205.625 954.099 Q206.644 953.913 207.662 953.913 Q213.449 953.913 216.829 957.085 Q220.209 960.256 220.209 965.673 Q220.209 971.251 216.736 974.353 Q213.264 977.432 206.945 977.432 Q204.769 977.432 202.5 977.061 Q200.255 976.691 197.848 975.95 L197.848 971.251 Q199.931 972.386 202.153 972.941 Q204.375 973.497 206.852 973.497 Q210.857 973.497 213.195 971.39 Q215.533 969.284 215.533 965.673 Q215.533 962.062 213.195 959.955 Q210.857 957.849 206.852 957.849 Q204.977 957.849 203.102 958.265 Q201.25 958.682 199.306 959.562 L199.306 942.201 Z" fill="#000000" fill-rule="nonzero" fill-opacity="1" /><path clip-path="url(#clip910)" d="M239.422 945.279 Q235.81 945.279 233.982 948.844 Q232.176 952.386 232.176 959.515 Q232.176 966.622 233.982 970.186 Q235.81 973.728 239.422 973.728 Q243.056 973.728 244.861 970.186 Q246.69 966.622 246.69 959.515 Q246.69 952.386 244.861 948.844 Q243.056 945.279 239.422 945.279 M239.422 941.576 Q245.232 941.576 248.287 946.182 Q251.366 950.765 251.366 959.515 Q251.366 968.242 248.287 972.848 Q245.232 977.432 239.422 977.432 Q233.611 977.432 230.533 972.848 Q227.477 968.242 227.477 959.515 Q227.477 950.765 230.533 946.182 Q233.611 941.576 239.422 941.576 Z" fill="#000000" fill-rule="nonzero" fill-opacity="1" /><path clip-path="url(#clip910)" d="M287.755 951.298 L277.176 961.923 L287.755 972.501 L285 975.302 L274.375 964.677 L263.75 975.302 L261.019 972.501 L271.574 961.923 L261.019 951.298 L263.75 948.497 L274.375 959.122 L285 948.497 L287.755 951.298 Z" fill="#000000" fill-rule="nonzero" fill-opacity="1" /><path clip-path="url(#clip910)" d="M300.116 972.825 L307.754 972.825 L307.754 946.46 L299.444 948.126 L299.444 943.867 L307.708 942.201 L312.384 942.201 L312.384 972.825 L320.023 972.825 L320.023 976.761 L300.116 976.761 L300.116 972.825 Z" fill="#000000" fill-rule="nonzero" fill-opacity="1" /><path clip-path="url(#clip910)" d="M339.467 945.279 Q335.856 945.279 334.027 948.844 Q332.222 952.386 332.222 959.515 Q332.222 966.622 334.027 970.186 Q335.856 973.728 339.467 973.728 Q343.102 973.728 344.907 970.186 Q346.736 966.622 346.736 959.515 Q346.736 952.386 344.907 948.844 Q343.102 945.279 339.467 945.279 M339.467 941.576 Q345.277 941.576 348.333 946.182 Q351.412 950.765 351.412 959.515 Q351.412 968.242 348.333 972.848 Q345.277 977.432 339.467 977.432 Q333.657 977.432 330.578 972.848 Q327.523 968.242 327.523 959.515 Q327.523 950.765 330.578 946.182 Q333.657 941.576 339.467 941.576 Z" fill="#000000" fill-rule="nonzero" fill-opacity="1" /><path clip-path="url(#clip910)" d="M364.088 924.58 L354.496 939.57 L364.088 939.57 L364.088 924.58 M363.091 921.27 L367.868 921.27 L367.868 939.57 L371.875 939.57 L371.875 942.73 L367.868 942.73 L367.868 949.35 L364.088 949.35 L364.088 942.73 L351.412 942.73 L351.412 939.062 L363.091 921.27 Z" fill="#000000" fill-rule="nonzero" fill-opacity="1" /><path clip-path="url(#clip910)" d="M114.26 684.747 L143.936 684.747 L143.936 688.682 L114.26 688.682 L114.26 684.747 Z" fill="#000000" fill-rule="nonzero" fill-opacity="1" /><path clip-path="url(#clip910)" d="M154.839 697.64 L162.477 697.64 L162.477 671.275 L154.167 672.941 L154.167 668.682 L162.431 667.015 L167.107 667.015 L167.107 697.64 L174.746 697.64 L174.746 701.575 L154.839 701.575 L154.839 697.64 Z" fill="#000000" fill-rule="nonzero" fill-opacity="1" /><path clip-path="url(#clip910)" d="M184.19 695.696 L189.075 695.696 L189.075 701.575 L184.19 701.575 L184.19 695.696 Z" fill="#000000" fill-rule="nonzero" fill-opacity="1" /><path clip-path="url(#clip910)" d="M203.287 697.64 L219.607 697.64 L219.607 701.575 L197.662 701.575 L197.662 697.64 Q200.325 694.886 204.908 690.256 Q209.514 685.603 210.695 684.261 Q212.94 681.737 213.82 680.001 Q214.723 678.242 214.723 676.552 Q214.723 673.798 212.778 672.062 Q210.857 670.325 207.755 670.325 Q205.556 670.325 203.102 671.089 Q200.672 671.853 197.894 673.404 L197.894 668.682 Q200.718 667.548 203.172 666.969 Q205.625 666.39 207.662 666.39 Q213.033 666.39 216.227 669.075 Q219.422 671.761 219.422 676.251 Q219.422 678.381 218.611 680.302 Q217.824 682.2 215.718 684.793 Q215.139 685.464 212.037 688.682 Q208.936 691.876 203.287 697.64 Z" fill="#000000" fill-rule="nonzero" fill-opacity="1" /><path clip-path="url(#clip910)" d="M239.422 670.094 Q235.81 670.094 233.982 673.659 Q232.176 677.2 232.176 684.33 Q232.176 691.436 233.982 695.001 Q235.81 698.543 239.422 698.543 Q243.056 698.543 244.861 695.001 Q246.69 691.436 246.69 684.33 Q246.69 677.2 244.861 673.659 Q243.056 670.094 239.422 670.094 M239.422 666.39 Q245.232 666.39 248.287 670.997 Q251.366 675.58 251.366 684.33 Q251.366 693.057 248.287 697.663 Q245.232 702.247 239.422 702.247 Q233.611 702.247 230.533 697.663 Q227.477 693.057 227.477 684.33 Q227.477 675.58 230.533 670.997 Q233.611 666.39 239.422 666.39 Z" fill="#000000" fill-rule="nonzero" fill-opacity="1" /><path clip-path="url(#clip910)" d="M287.755 676.112 L277.176 686.737 L287.755 697.316 L285 700.117 L274.375 689.492 L263.75 700.117 L261.019 697.316 L271.574 686.737 L261.019 676.112 L263.75 673.312 L274.375 683.937 L285 673.312 L287.755 676.112 Z" fill="#000000" fill-rule="nonzero" fill-opacity="1" /><path clip-path="url(#clip910)" d="M300.116 697.64 L307.754 697.64 L307.754 671.275 L299.444 672.941 L299.444 668.682 L307.708 667.015 L312.384 667.015 L312.384 697.64 L320.023 697.64 L320.023 701.575 L300.116 701.575 L300.116 697.64 Z" fill="#000000" fill-rule="nonzero" fill-opacity="1" /><path clip-path="url(#clip910)" d="M339.467 670.094 Q335.856 670.094 334.027 673.659 Q332.222 677.2 332.222 684.33 Q332.222 691.436 334.027 695.001 Q335.856 698.543 339.467 698.543 Q343.102 698.543 344.907 695.001 Q346.736 691.436 346.736 684.33 Q346.736 677.2 344.907 673.659 Q343.102 670.094 339.467 670.094 M339.467 666.39 Q345.277 666.39 348.333 670.997 Q351.412 675.58 351.412 684.33 Q351.412 693.057 348.333 697.663 Q345.277 702.247 339.467 702.247 Q333.657 702.247 330.578 697.663 Q327.523 693.057 327.523 684.33 Q327.523 675.58 330.578 670.997 Q333.657 666.39 339.467 666.39 Z" fill="#000000" fill-rule="nonzero" fill-opacity="1" /><path clip-path="url(#clip910)" d="M364.088 649.395 L354.496 664.385 L364.088 664.385 L364.088 649.395 M363.091 646.085 L367.868 646.085 L367.868 664.385 L371.875 664.385 L371.875 667.545 L367.868 667.545 L367.868 674.165 L364.088 674.165 L364.088 667.545 L351.412 667.545 L351.412 663.877 L363.091 646.085 Z" fill="#000000" fill-rule="nonzero" fill-opacity="1" /><path clip-path="url(#clip910)" d="M116.235 409.561 L145.911 409.561 L145.911 413.497 L116.235 413.497 L116.235 409.561 Z" fill="#000000" fill-rule="nonzero" fill-opacity="1" /><path clip-path="url(#clip910)" d="M156.142 425.673 L156.142 421.413 Q157.901 422.247 159.707 422.686 Q161.513 423.126 163.249 423.126 Q167.878 423.126 170.309 420.024 Q172.762 416.899 173.11 410.557 Q171.767 412.548 169.707 413.612 Q167.647 414.677 165.147 414.677 Q159.962 414.677 156.929 411.552 Q153.92 408.404 153.92 402.964 Q153.92 397.64 157.068 394.423 Q160.216 391.205 165.448 391.205 Q171.443 391.205 174.591 395.812 Q177.762 400.395 177.762 409.145 Q177.762 417.316 173.874 422.2 Q170.008 427.061 163.457 427.061 Q161.698 427.061 159.892 426.714 Q158.087 426.367 156.142 425.673 M165.448 411.02 Q168.596 411.02 170.424 408.867 Q172.276 406.714 172.276 402.964 Q172.276 399.237 170.424 397.085 Q168.596 394.909 165.448 394.909 Q162.3 394.909 160.448 397.085 Q158.619 399.237 158.619 402.964 Q158.619 406.714 160.448 408.867 Q162.3 411.02 165.448 411.02 Z" fill="#000000" fill-rule="nonzero" fill-opacity="1" /><path clip-path="url(#clip910)" d="M186.165 420.511 L191.049 420.511 L191.049 426.39 L186.165 426.39 L186.165 420.511 Z" fill="#000000" fill-rule="nonzero" fill-opacity="1" /><path clip-path="url(#clip910)" d="M211.234 394.909 Q207.623 394.909 205.795 398.474 Q203.989 402.015 203.989 409.145 Q203.989 416.251 205.795 419.816 Q207.623 423.358 211.234 423.358 Q214.869 423.358 216.674 419.816 Q218.503 416.251 218.503 409.145 Q218.503 402.015 216.674 398.474 Q214.869 394.909 211.234 394.909 M211.234 391.205 Q217.045 391.205 220.1 395.812 Q223.179 400.395 223.179 409.145 Q223.179 417.872 220.1 422.478 Q217.045 427.061 211.234 427.061 Q205.424 427.061 202.346 422.478 Q199.29 417.872 199.29 409.145 Q199.29 400.395 202.346 395.812 Q205.424 391.205 211.234 391.205 Z" fill="#000000" fill-rule="nonzero" fill-opacity="1" /><path clip-path="url(#clip910)" d="M241.396 394.909 Q237.785 394.909 235.957 398.474 Q234.151 402.015 234.151 409.145 Q234.151 416.251 235.957 419.816 Q237.785 423.358 241.396 423.358 Q245.031 423.358 246.836 419.816 Q248.665 416.251 248.665 409.145 Q248.665 402.015 246.836 398.474 Q245.031 394.909 241.396 394.909 M241.396 391.205 Q247.206 391.205 250.262 395.812 Q253.341 400.395 253.341 409.145 Q253.341 417.872 250.262 422.478 Q247.206 427.061 241.396 427.061 Q235.586 427.061 232.507 422.478 Q229.452 417.872 229.452 409.145 Q229.452 400.395 232.507 395.812 Q235.586 391.205 241.396 391.205 Z" fill="#000000" fill-rule="nonzero" fill-opacity="1" /><path clip-path="url(#clip910)" d="M289.729 400.927 L279.151 411.552 L289.729 422.131 L286.975 424.932 L276.35 414.307 L265.725 424.932 L262.993 422.131 L273.549 411.552 L262.993 400.927 L265.725 398.126 L276.35 408.751 L286.975 398.126 L289.729 400.927 Z" fill="#000000" fill-rule="nonzero" fill-opacity="1" /><path clip-path="url(#clip910)" d="M302.09 422.455 L309.729 422.455 L309.729 396.089 L301.419 397.756 L301.419 393.497 L309.683 391.83 L314.359 391.83 L314.359 422.455 L321.998 422.455 L321.998 426.39 L302.09 426.39 L302.09 422.455 Z" fill="#000000" fill-rule="nonzero" fill-opacity="1" /><path clip-path="url(#clip910)" d="M341.442 394.909 Q337.831 394.909 336.002 398.474 Q334.197 402.015 334.197 409.145 Q334.197 416.251 336.002 419.816 Q337.831 423.358 341.442 423.358 Q345.076 423.358 346.882 419.816 Q348.711 416.251 348.711 409.145 Q348.711 402.015 346.882 398.474 Q345.076 394.909 341.442 394.909 M341.442 391.205 Q347.252 391.205 350.308 395.812 Q353.386 400.395 353.386 409.145 Q353.386 417.872 350.308 422.478 Q347.252 427.061 341.442 427.061 Q335.632 427.061 332.553 422.478 Q329.498 417.872 329.498 409.145 Q329.498 400.395 332.553 395.812 Q335.632 391.205 341.442 391.205 Z" fill="#000000" fill-rule="nonzero" fill-opacity="1" /><path clip-path="url(#clip910)" d="M366.082 383.839 Q368.809 384.422 370.332 386.266 Q371.875 388.109 371.875 390.817 Q371.875 394.974 369.016 397.249 Q366.157 399.525 360.891 399.525 Q359.123 399.525 357.242 399.168 Q355.38 398.829 353.386 398.133 L353.386 394.466 Q354.966 395.387 356.847 395.858 Q358.728 396.328 360.778 396.328 Q364.351 396.328 366.213 394.917 Q368.094 393.507 368.094 390.817 Q368.094 388.335 366.345 386.943 Q364.615 385.532 361.511 385.532 L358.239 385.532 L358.239 382.41 L361.662 382.41 Q364.464 382.41 365.95 381.3 Q367.436 380.172 367.436 378.065 Q367.436 375.903 365.894 374.755 Q364.37 373.589 361.511 373.589 Q359.95 373.589 358.164 373.928 Q356.377 374.266 354.233 374.981 L354.233 371.596 Q356.396 370.994 358.277 370.693 Q360.176 370.392 361.85 370.392 Q366.176 370.392 368.696 372.367 Q371.216 374.323 371.216 377.671 Q371.216 380.003 369.881 381.62 Q368.546 383.219 366.082 383.839 Z" fill="#000000" fill-rule="nonzero" fill-opacity="1" /><path clip-path="url(#clip910)" d="M116.235 134.376 L145.911 134.376 L145.911 138.311 L116.235 138.311 L116.235 134.376 Z" fill="#000000" fill-rule="nonzero" fill-opacity="1" /><path clip-path="url(#clip910)" d="M166.582 132.061 Q163.434 132.061 161.582 134.214 Q159.753 136.367 159.753 140.117 Q159.753 143.844 161.582 146.02 Q163.434 148.173 166.582 148.173 Q169.73 148.173 171.559 146.02 Q173.411 143.844 173.411 140.117 Q173.411 136.367 171.559 134.214 Q169.73 132.061 166.582 132.061 M175.864 117.409 L175.864 121.668 Q174.105 120.835 172.299 120.395 Q170.517 119.955 168.758 119.955 Q164.128 119.955 161.675 123.08 Q159.244 126.205 158.897 132.524 Q160.263 130.511 162.323 129.446 Q164.383 128.358 166.86 128.358 Q172.068 128.358 175.077 131.529 Q178.11 134.677 178.11 140.117 Q178.11 145.441 174.962 148.659 Q171.813 151.876 166.582 151.876 Q160.587 151.876 157.415 147.293 Q154.244 142.686 154.244 133.96 Q154.244 125.765 158.133 120.904 Q162.022 116.02 168.573 116.02 Q170.332 116.02 172.114 116.367 Q173.92 116.714 175.864 117.409 Z" fill="#000000" fill-rule="nonzero" fill-opacity="1" /><path clip-path="url(#clip910)" d="M186.165 145.325 L191.049 145.325 L191.049 151.205 L186.165 151.205 L186.165 145.325 Z" fill="#000000" fill-rule="nonzero" fill-opacity="1" /><path clip-path="url(#clip910)" d="M211.234 119.724 Q207.623 119.724 205.795 123.288 Q203.989 126.83 203.989 133.96 Q203.989 141.066 205.795 144.631 Q207.623 148.173 211.234 148.173 Q214.869 148.173 216.674 144.631 Q218.503 141.066 218.503 133.96 Q218.503 126.83 216.674 123.288 Q214.869 119.724 211.234 119.724 M211.234 116.02 Q217.045 116.02 220.1 120.626 Q223.179 125.21 223.179 133.96 Q223.179 142.686 220.1 147.293 Q217.045 151.876 211.234 151.876 Q205.424 151.876 202.346 147.293 Q199.29 142.686 199.29 133.96 Q199.29 125.21 202.346 120.626 Q205.424 116.02 211.234 116.02 Z" fill="#000000" fill-rule="nonzero" fill-opacity="1" /><path clip-path="url(#clip910)" d="M241.396 119.724 Q237.785 119.724 235.957 123.288 Q234.151 126.83 234.151 133.96 Q234.151 141.066 235.957 144.631 Q237.785 148.173 241.396 148.173 Q245.031 148.173 246.836 144.631 Q248.665 141.066 248.665 133.96 Q248.665 126.83 246.836 123.288 Q245.031 119.724 241.396 119.724 M241.396 116.02 Q247.206 116.02 250.262 120.626 Q253.341 125.21 253.341 133.96 Q253.341 142.686 250.262 147.293 Q247.206 151.876 241.396 151.876 Q235.586 151.876 232.507 147.293 Q229.452 142.686 229.452 133.96 Q229.452 125.21 232.507 120.626 Q235.586 116.02 241.396 116.02 Z" fill="#000000" fill-rule="nonzero" fill-opacity="1" /><path clip-path="url(#clip910)" d="M289.729 125.742 L279.151 136.367 L289.729 146.946 L286.975 149.747 L276.35 139.122 L265.725 149.747 L262.993 146.946 L273.549 136.367 L262.993 125.742 L265.725 122.941 L276.35 133.566 L286.975 122.941 L289.729 125.742 Z" fill="#000000" fill-rule="nonzero" fill-opacity="1" /><path clip-path="url(#clip910)" d="M302.09 147.27 L309.729 147.27 L309.729 120.904 L301.419 122.571 L301.419 118.312 L309.683 116.645 L314.359 116.645 L314.359 147.27 L321.998 147.27 L321.998 151.205 L302.09 151.205 L302.09 147.27 Z" fill="#000000" fill-rule="nonzero" fill-opacity="1" /><path clip-path="url(#clip910)" d="M341.442 119.724 Q337.831 119.724 336.002 123.288 Q334.197 126.83 334.197 133.96 Q334.197 141.066 336.002 144.631 Q337.831 148.173 341.442 148.173 Q345.076 148.173 346.882 144.631 Q348.711 141.066 348.711 133.96 Q348.711 126.83 346.882 123.288 Q345.076 119.724 341.442 119.724 M341.442 116.02 Q347.252 116.02 350.308 120.626 Q353.386 125.21 353.386 133.96 Q353.386 142.686 350.308 147.293 Q347.252 151.876 341.442 151.876 Q335.632 151.876 332.553 147.293 Q329.498 142.686 329.498 133.96 Q329.498 125.21 332.553 120.626 Q335.632 116.02 341.442 116.02 Z" fill="#000000" fill-rule="nonzero" fill-opacity="1" /><path clip-path="url(#clip910)" d="M366.082 108.654 Q368.809 109.237 370.332 111.08 Q371.875 112.924 371.875 115.632 Q371.875 119.788 369.016 122.064 Q366.157 124.34 360.891 124.34 Q359.123 124.34 357.242 123.983 Q355.38 123.644 353.386 122.948 L353.386 119.281 Q354.966 120.202 356.847 120.672 Q358.728 121.143 360.778 121.143 Q364.351 121.143 366.213 119.732 Q368.094 118.321 368.094 115.632 Q368.094 113.149 366.345 111.758 Q364.615 110.347 361.511 110.347 L358.239 110.347 L358.239 107.225 L361.662 107.225 Q364.464 107.225 365.95 106.115 Q367.436 104.987 367.436 102.88 Q367.436 100.717 365.894 99.5701 Q364.37 98.404 361.511 98.404 Q359.95 98.404 358.164 98.7426 Q356.377 99.0811 354.233 99.7958 L354.233 96.4104 Q356.396 95.8086 358.277 95.5076 Q360.176 95.2067 361.85 95.2067 Q366.176 95.2067 368.696 97.1815 Q371.216 99.1375 371.216 102.485 Q371.216 104.817 369.881 106.435 Q368.546 108.034 366.082 108.654 Z" fill="#000000" fill-rule="nonzero" fill-opacity="1" /><path clip-path="url(#clip910)" d="M16.4842 816.375 L16.4842 786.329 L21.895 786.329 L21.895 809.945 L35.9632 809.945 L35.9632 787.315 L41.3741 787.315 L41.3741 809.945 L58.5933 809.945 L58.5933 785.756 L64.0042 785.756 L64.0042 816.375 L16.4842 816.375 Z" fill="#000000" fill-rule="nonzero" fill-opacity="1" /><path clip-path="url(#clip910)" d="M16.4842 775.189 L16.4842 768.759 L58.5933 768.759 L58.5933 745.62 L64.0042 745.62 L64.0042 775.189 L16.4842 775.189 Z" fill="#000000" fill-rule="nonzero" fill-opacity="1" /><path clip-path="url(#clip910)" d="M41.3104 732.443 L58.7206 732.443 L58.7206 722.13 Q58.7206 716.942 56.5881 714.46 Q54.4238 711.945 49.9996 711.945 Q45.5436 711.945 43.4429 714.46 Q41.3104 716.942 41.3104 722.13 L41.3104 732.443 M21.7677 732.443 L36.0905 732.443 L36.0905 722.926 Q36.0905 718.216 34.34 715.924 Q32.5576 713.6 28.9291 713.6 Q25.3325 713.6 23.5501 715.924 Q21.7677 718.216 21.7677 722.926 L21.7677 732.443 M16.4842 738.872 L16.4842 722.449 Q16.4842 715.096 19.5397 711.118 Q22.5952 707.139 28.2289 707.139 Q32.5894 707.139 35.1675 709.176 Q37.7456 711.213 38.3822 715.16 Q39.4007 710.418 42.6472 707.808 Q45.8619 705.166 50.6998 705.166 Q57.0655 705.166 60.5348 709.495 Q64.0042 713.823 64.0042 721.812 L64.0042 738.872 L16.4842 738.872 Z" fill="#000000" fill-rule="nonzero" fill-opacity="1" /><path clip-path="url(#clip910)" d="M20.8447 676.011 Q20.8447 683.013 26.0645 687.151 Q31.2844 691.257 40.2919 691.257 Q49.2675 691.257 54.4874 687.151 Q59.7073 683.013 59.7073 676.011 Q59.7073 669.009 54.4874 664.935 Q49.2675 660.829 40.2919 660.829 Q31.2844 660.829 26.0645 664.935 Q20.8447 669.009 20.8447 676.011 M15.6248 676.011 Q15.6248 666.017 22.3406 660.033 Q29.0246 654.049 40.2919 654.049 Q51.5274 654.049 58.2432 660.033 Q64.9272 666.017 64.9272 676.011 Q64.9272 686.037 58.2432 692.052 Q51.5592 698.036 40.2919 698.036 Q29.0246 698.036 22.3406 692.052 Q15.6248 686.037 15.6248 676.011 Z" fill="#000000" fill-rule="nonzero" fill-opacity="1" /><polyline clip-path="url(#clip911)" style="stroke:#009af9; stroke-linecap:round; stroke-linejoin:round; stroke-width:4; stroke-opacity:1; fill:none" points="517.772,1223.76 581.447,559.938 638.597,314.117 695.169,234.743 751.095,215.199 807.065,200.197 863.523,189.978 958.071,182.656 1015.48,173.915 1072.03,168.298 1129.25,164.814 1185.73,157.593 1241.89,159.253 1299.17,156.965 1357.47,149.401 1413.6,142.191 1469.23,137.842 1525.15,133.21 1580.15,131.355 1634.8,128.733 1690.13,126.715 1743.86,120.45 1799.42,114.819 1852.96,118.977 1906.62,113.89 1960.36,107.746 2020.74,106.926 2079.44,99.4043 2137.09,97.3864 2190.61,92.2542 2244.27,90.7426 2297.71,86.1857 "/>
<polyline clip-path="url(#clip911)" style="stroke:#e26f46; stroke-linecap:round; stroke-linejoin:round; stroke-width:4; stroke-opacity:1; fill:none" points="462.918,1384.24 487.769,542.735 497.146,408.73 506.603,326.18 515.294,266.475 524.021,233.411 533.01,213.363 541.763,200.924 550.467,198.288 559.171,183.058 568.198,178.061 576.936,173.45 585.587,168.059 594.465,171.259 603.168,158.751 611.849,159.63 620.484,160.175 629.485,147.567 638.259,148.689 646.925,143.03 655.924,137.146 664.701,137.554 673.373,134.6 682.024,129.533 691.007,125.705 699.682,123.076 708.373,122.618 717.077,118.597 726.107,116.526 734.832,115.428 743.407,108.86 752.34,111.04 "/>
<path clip-path="url(#clip910)" d="M1794.13 1377.32 L2287.93 1377.32 L2287.93 1221.8 L1794.13 1221.8  Z" fill="#ffffff" fill-rule="evenodd" fill-opacity="1"/>
<polyline clip-path="url(#clip910)" style="stroke:#000000; stroke-linecap:round; stroke-linejoin:round; stroke-width:4; stroke-opacity:1; fill:none" points="1794.13,1377.32 2287.93,1377.32 2287.93,1221.8 1794.13,1221.8 1794.13,1377.32 "/>
<polyline clip-path="url(#clip910)" style="stroke:#009af9; stroke-linecap:round; stroke-linejoin:round; stroke-width:4; stroke-opacity:1; fill:none" points="1815.74,1273.64 1945.4,1273.64 "/>
<path clip-path="url(#clip910)" d="M1967.01 1256.36 L1986.87 1256.36 L1986.87 1260.29 L1971.69 1260.29 L1971.69 1270.48 L1985.39 1270.48 L1985.39 1274.41 L1971.69 1274.41 L1971.69 1290.92 L1967.01 1290.92 L1967.01 1256.36 Z" fill="#000000" fill-rule="nonzero" fill-opacity="1" /><path clip-path="url(#clip910)" d="M1991.06 1280.68 L1991.06 1264.99 L1995.32 1264.99 L1995.32 1280.52 Q1995.32 1284.2 1996.76 1286.05 Q1998.19 1287.88 2001.06 1287.88 Q2004.51 1287.88 2006.5 1285.68 Q2008.52 1283.48 2008.52 1279.69 L2008.52 1264.99 L2012.78 1264.99 L2012.78 1290.92 L2008.52 1290.92 L2008.52 1286.93 Q2006.97 1289.29 2004.91 1290.45 Q2002.87 1291.59 2000.16 1291.59 Q1995.69 1291.59 1993.38 1288.81 Q1991.06 1286.03 1991.06 1280.68 M2001.78 1264.36 L2001.78 1264.36 Z" fill="#000000" fill-rule="nonzero" fill-opacity="1" /><path clip-path="url(#clip910)" d="M2021.55 1254.9 L2025.81 1254.9 L2025.81 1290.92 L2021.55 1290.92 L2021.55 1254.9 Z" fill="#000000" fill-rule="nonzero" fill-opacity="1" /><path clip-path="url(#clip910)" d="M2034.72 1254.9 L2038.98 1254.9 L2038.98 1290.92 L2034.72 1290.92 L2034.72 1254.9 Z" fill="#000000" fill-rule="nonzero" fill-opacity="1" /><path clip-path="url(#clip910)" d="M2067.82 1274.41 L2067.82 1287.07 L2075.32 1287.07 Q2079.1 1287.07 2080.9 1285.52 Q2082.73 1283.95 2082.73 1280.73 Q2082.73 1277.49 2080.9 1275.96 Q2079.1 1274.41 2075.32 1274.41 L2067.82 1274.41 M2067.82 1260.2 L2067.82 1270.61 L2074.74 1270.61 Q2078.17 1270.61 2079.84 1269.34 Q2081.53 1268.05 2081.53 1265.41 Q2081.53 1262.79 2079.84 1261.49 Q2078.17 1260.2 2074.74 1260.2 L2067.82 1260.2 M2063.15 1256.36 L2075.09 1256.36 Q2080.44 1256.36 2083.33 1258.58 Q2086.23 1260.8 2086.23 1264.9 Q2086.23 1268.07 2084.74 1269.94 Q2083.26 1271.82 2080.39 1272.28 Q2083.84 1273.02 2085.74 1275.38 Q2087.66 1277.72 2087.66 1281.24 Q2087.66 1285.87 2084.51 1288.39 Q2081.36 1290.92 2075.55 1290.92 L2063.15 1290.92 L2063.15 1256.36 Z" fill="#000000" fill-rule="nonzero" fill-opacity="1" /><path clip-path="url(#clip910)" d="M2107.27 1277.88 Q2102.1 1277.88 2100.11 1279.06 Q2098.12 1280.24 2098.12 1283.09 Q2098.12 1285.36 2099.6 1286.7 Q2101.11 1288.02 2103.68 1288.02 Q2107.22 1288.02 2109.35 1285.52 Q2111.5 1283 2111.5 1278.83 L2111.5 1277.88 L2107.27 1277.88 M2115.76 1276.12 L2115.76 1290.92 L2111.5 1290.92 L2111.5 1286.98 Q2110.04 1289.34 2107.87 1290.48 Q2105.69 1291.59 2102.54 1291.59 Q2098.56 1291.59 2096.2 1289.36 Q2093.86 1287.12 2093.86 1283.37 Q2093.86 1278.99 2096.78 1276.77 Q2099.72 1274.55 2105.53 1274.55 L2111.5 1274.55 L2111.5 1274.13 Q2111.5 1271.19 2109.56 1269.6 Q2107.64 1267.98 2104.14 1267.98 Q2101.92 1267.98 2099.81 1268.51 Q2097.71 1269.04 2095.76 1270.11 L2095.76 1266.17 Q2098.1 1265.27 2100.3 1264.83 Q2102.5 1264.36 2104.58 1264.36 Q2110.21 1264.36 2112.98 1267.28 Q2115.76 1270.2 2115.76 1276.12 Z" fill="#000000" fill-rule="nonzero" fill-opacity="1" /><path clip-path="url(#clip910)" d="M2128.75 1257.63 L2128.75 1264.99 L2137.52 1264.99 L2137.52 1268.3 L2128.75 1268.3 L2128.75 1282.37 Q2128.75 1285.54 2129.6 1286.45 Q2130.48 1287.35 2133.15 1287.35 L2137.52 1287.35 L2137.52 1290.92 L2133.15 1290.92 Q2128.22 1290.92 2126.34 1289.09 Q2124.47 1287.23 2124.47 1282.37 L2124.47 1268.3 L2121.34 1268.3 L2121.34 1264.99 L2124.47 1264.99 L2124.47 1257.63 L2128.75 1257.63 Z" fill="#000000" fill-rule="nonzero" fill-opacity="1" /><path clip-path="url(#clip910)" d="M2161.78 1265.98 L2161.78 1269.97 Q2159.97 1268.97 2158.15 1268.48 Q2156.34 1267.98 2154.49 1267.98 Q2150.35 1267.98 2148.05 1270.61 Q2145.76 1273.23 2145.76 1277.98 Q2145.76 1282.72 2148.05 1285.36 Q2150.35 1287.98 2154.49 1287.98 Q2156.34 1287.98 2158.15 1287.49 Q2159.97 1286.98 2161.78 1285.98 L2161.78 1289.92 Q2160 1290.75 2158.08 1291.17 Q2156.18 1291.59 2154.03 1291.59 Q2148.17 1291.59 2144.72 1287.91 Q2141.27 1284.23 2141.27 1277.98 Q2141.27 1271.63 2144.74 1268 Q2148.24 1264.36 2154.3 1264.36 Q2156.27 1264.36 2158.15 1264.78 Q2160.02 1265.17 2161.78 1265.98 Z" fill="#000000" fill-rule="nonzero" fill-opacity="1" /><path clip-path="url(#clip910)" d="M2190.74 1275.27 L2190.74 1290.92 L2186.48 1290.92 L2186.48 1275.41 Q2186.48 1271.73 2185.04 1269.9 Q2183.61 1268.07 2180.74 1268.07 Q2177.29 1268.07 2175.3 1270.27 Q2173.31 1272.47 2173.31 1276.26 L2173.31 1290.92 L2169.03 1290.92 L2169.03 1254.9 L2173.31 1254.9 L2173.31 1269.02 Q2174.84 1266.68 2176.9 1265.52 Q2178.98 1264.36 2181.69 1264.36 Q2186.16 1264.36 2188.45 1267.14 Q2190.74 1269.9 2190.74 1275.27 Z" fill="#000000" fill-rule="nonzero" fill-opacity="1" /><polyline clip-path="url(#clip910)" style="stroke:#e26f46; stroke-linecap:round; stroke-linejoin:round; stroke-width:4; stroke-opacity:1; fill:none" points="1815.74,1325.48 1945.4,1325.48 "/>
<path clip-path="url(#clip910)" d="M1989.26 1309.33 L1989.26 1313.89 Q1986.6 1312.62 1984.23 1311.99 Q1981.87 1311.37 1979.67 1311.37 Q1975.86 1311.37 1973.77 1312.85 Q1971.71 1314.33 1971.71 1317.06 Q1971.71 1319.35 1973.08 1320.53 Q1974.47 1321.69 1978.31 1322.41 L1981.13 1322.99 Q1986.36 1323.98 1988.84 1326.51 Q1991.34 1329.01 1991.34 1333.22 Q1991.34 1338.24 1987.96 1340.83 Q1984.61 1343.43 1978.1 1343.43 Q1975.65 1343.43 1972.87 1342.87 Q1970.11 1342.32 1967.15 1341.23 L1967.15 1336.41 Q1970 1338.01 1972.73 1338.82 Q1975.46 1339.63 1978.1 1339.63 Q1982.11 1339.63 1984.28 1338.06 Q1986.46 1336.48 1986.46 1333.57 Q1986.46 1331.02 1984.88 1329.58 Q1983.33 1328.15 1979.77 1327.43 L1976.92 1326.88 Q1971.69 1325.83 1969.35 1323.61 Q1967.01 1321.39 1967.01 1317.43 Q1967.01 1312.85 1970.23 1310.21 Q1973.47 1307.57 1979.14 1307.57 Q1981.57 1307.57 1984.1 1308.01 Q1986.62 1308.45 1989.26 1309.33 Z" fill="#000000" fill-rule="nonzero" fill-opacity="1" /><path clip-path="url(#clip910)" d="M1998.01 1332.52 L1998.01 1316.83 L2002.27 1316.83 L2002.27 1332.36 Q2002.27 1336.04 2003.7 1337.89 Q2005.14 1339.72 2008.01 1339.72 Q2011.46 1339.72 2013.45 1337.52 Q2015.46 1335.32 2015.46 1331.53 L2015.46 1316.83 L2019.72 1316.83 L2019.72 1342.76 L2015.46 1342.76 L2015.46 1338.77 Q2013.91 1341.13 2011.85 1342.29 Q2009.81 1343.43 2007.11 1343.43 Q2002.64 1343.43 2000.32 1340.65 Q1998.01 1337.87 1998.01 1332.52 M2008.73 1316.2 L2008.73 1316.2 Z" fill="#000000" fill-rule="nonzero" fill-opacity="1" /><path clip-path="url(#clip910)" d="M2047.1 1329.82 Q2047.1 1325.12 2045.16 1322.45 Q2043.24 1319.77 2039.86 1319.77 Q2036.48 1319.77 2034.54 1322.45 Q2032.61 1325.12 2032.61 1329.82 Q2032.61 1334.51 2034.54 1337.2 Q2036.48 1339.86 2039.86 1339.86 Q2043.24 1339.86 2045.16 1337.2 Q2047.1 1334.51 2047.1 1329.82 M2032.61 1320.76 Q2033.96 1318.45 2035.99 1317.34 Q2038.05 1316.2 2040.9 1316.2 Q2045.62 1316.2 2048.56 1319.95 Q2051.53 1323.7 2051.53 1329.82 Q2051.53 1335.93 2048.56 1339.68 Q2045.62 1343.43 2040.9 1343.43 Q2038.05 1343.43 2035.99 1342.32 Q2033.96 1341.18 2032.61 1338.87 L2032.61 1342.76 L2028.33 1342.76 L2028.33 1306.74 L2032.61 1306.74 L2032.61 1320.76 Z" fill="#000000" fill-rule="nonzero" fill-opacity="1" /><path clip-path="url(#clip910)" d="M2075.11 1317.59 L2075.11 1321.62 Q2073.31 1320.7 2071.36 1320.23 Q2069.42 1319.77 2067.34 1319.77 Q2064.17 1319.77 2062.57 1320.74 Q2060.99 1321.71 2060.99 1323.66 Q2060.99 1325.14 2062.13 1326 Q2063.26 1326.83 2066.69 1327.59 L2068.15 1327.92 Q2072.68 1328.89 2074.58 1330.67 Q2076.5 1332.43 2076.5 1335.6 Q2076.5 1339.21 2073.63 1341.32 Q2070.79 1343.43 2065.79 1343.43 Q2063.7 1343.43 2061.43 1343.01 Q2059.19 1342.62 2056.69 1341.81 L2056.69 1337.41 Q2059.05 1338.63 2061.34 1339.26 Q2063.63 1339.86 2065.88 1339.86 Q2068.89 1339.86 2070.51 1338.84 Q2072.13 1337.8 2072.13 1335.93 Q2072.13 1334.19 2070.95 1333.26 Q2069.79 1332.34 2065.83 1331.48 L2064.35 1331.14 Q2060.39 1330.3 2058.63 1328.59 Q2056.87 1326.85 2056.87 1323.84 Q2056.87 1320.19 2059.47 1318.2 Q2062.06 1316.2 2066.83 1316.2 Q2069.19 1316.2 2071.27 1316.55 Q2073.35 1316.9 2075.11 1317.59 Z" fill="#000000" fill-rule="nonzero" fill-opacity="1" /><path clip-path="url(#clip910)" d="M2095.07 1329.72 Q2089.91 1329.72 2087.91 1330.9 Q2085.92 1332.08 2085.92 1334.93 Q2085.92 1337.2 2087.41 1338.54 Q2088.91 1339.86 2091.48 1339.86 Q2095.02 1339.86 2097.15 1337.36 Q2099.3 1334.84 2099.3 1330.67 L2099.3 1329.72 L2095.07 1329.72 M2103.56 1327.96 L2103.56 1342.76 L2099.3 1342.76 L2099.3 1338.82 Q2097.85 1341.18 2095.67 1342.32 Q2093.49 1343.43 2090.35 1343.43 Q2086.36 1343.43 2084 1341.2 Q2081.66 1338.96 2081.66 1335.21 Q2081.66 1330.83 2084.58 1328.61 Q2087.52 1326.39 2093.33 1326.39 L2099.3 1326.39 L2099.3 1325.97 Q2099.3 1323.03 2097.36 1321.44 Q2095.44 1319.82 2091.94 1319.82 Q2089.72 1319.82 2087.61 1320.35 Q2085.51 1320.88 2083.56 1321.95 L2083.56 1318.01 Q2085.9 1317.11 2088.1 1316.67 Q2090.3 1316.2 2092.38 1316.2 Q2098.01 1316.2 2100.79 1319.12 Q2103.56 1322.04 2103.56 1327.96 Z" fill="#000000" fill-rule="nonzero" fill-opacity="1" /><path clip-path="url(#clip910)" d="M2132.52 1321.81 Q2134.12 1318.94 2136.34 1317.57 Q2138.56 1316.2 2141.57 1316.2 Q2145.62 1316.2 2147.82 1319.05 Q2150.02 1321.88 2150.02 1327.11 L2150.02 1342.76 L2145.74 1342.76 L2145.74 1327.25 Q2145.74 1323.52 2144.42 1321.71 Q2143.1 1319.91 2140.39 1319.91 Q2137.08 1319.91 2135.16 1322.11 Q2133.24 1324.31 2133.24 1328.1 L2133.24 1342.76 L2128.96 1342.76 L2128.96 1327.25 Q2128.96 1323.5 2127.64 1321.71 Q2126.32 1319.91 2123.56 1319.91 Q2120.3 1319.91 2118.38 1322.13 Q2116.46 1324.33 2116.46 1328.1 L2116.46 1342.76 L2112.17 1342.76 L2112.17 1316.83 L2116.46 1316.83 L2116.46 1320.86 Q2117.91 1318.47 2119.95 1317.34 Q2121.99 1316.2 2124.79 1316.2 Q2127.61 1316.2 2129.58 1317.64 Q2131.57 1319.07 2132.52 1321.81 Z" fill="#000000" fill-rule="nonzero" fill-opacity="1" /><path clip-path="url(#clip910)" d="M2162.64 1338.87 L2162.64 1352.62 L2158.35 1352.62 L2158.35 1316.83 L2162.64 1316.83 L2162.64 1320.76 Q2163.98 1318.45 2166.02 1317.34 Q2168.08 1316.2 2170.92 1316.2 Q2175.65 1316.2 2178.59 1319.95 Q2181.55 1323.7 2181.55 1329.82 Q2181.55 1335.93 2178.59 1339.68 Q2175.65 1343.43 2170.92 1343.43 Q2168.08 1343.43 2166.02 1342.32 Q2163.98 1341.18 2162.64 1338.87 M2177.13 1329.82 Q2177.13 1325.12 2175.18 1322.45 Q2173.26 1319.77 2169.88 1319.77 Q2166.5 1319.77 2164.56 1322.45 Q2162.64 1325.12 2162.64 1329.82 Q2162.64 1334.51 2164.56 1337.2 Q2166.5 1339.86 2169.88 1339.86 Q2173.26 1339.86 2175.18 1337.2 Q2177.13 1334.51 2177.13 1329.82 Z" fill="#000000" fill-rule="nonzero" fill-opacity="1" /><path clip-path="url(#clip910)" d="M2188.61 1306.74 L2192.87 1306.74 L2192.87 1342.76 L2188.61 1342.76 L2188.61 1306.74 Z" fill="#000000" fill-rule="nonzero" fill-opacity="1" /><path clip-path="url(#clip910)" d="M2201.78 1316.83 L2206.04 1316.83 L2206.04 1342.76 L2201.78 1342.76 L2201.78 1316.83 M2201.78 1306.74 L2206.04 1306.74 L2206.04 1312.13 L2201.78 1312.13 L2201.78 1306.74 Z" fill="#000000" fill-rule="nonzero" fill-opacity="1" /><path clip-path="url(#clip910)" d="M2236.5 1327.11 L2236.5 1342.76 L2232.24 1342.76 L2232.24 1327.25 Q2232.24 1323.57 2230.81 1321.74 Q2229.37 1319.91 2226.5 1319.91 Q2223.05 1319.91 2221.06 1322.11 Q2219.07 1324.31 2219.07 1328.1 L2219.07 1342.76 L2214.79 1342.76 L2214.79 1316.83 L2219.07 1316.83 L2219.07 1320.86 Q2220.6 1318.52 2222.66 1317.36 Q2224.74 1316.2 2227.45 1316.2 Q2231.92 1316.2 2234.21 1318.98 Q2236.5 1321.74 2236.5 1327.11 Z" fill="#000000" fill-rule="nonzero" fill-opacity="1" /><path clip-path="url(#clip910)" d="M2262.06 1329.49 Q2262.06 1324.86 2260.14 1322.32 Q2258.24 1319.77 2254.79 1319.77 Q2251.36 1319.77 2249.44 1322.32 Q2247.54 1324.86 2247.54 1329.49 Q2247.54 1334.1 2249.44 1336.64 Q2251.36 1339.19 2254.79 1339.19 Q2258.24 1339.19 2260.14 1336.64 Q2262.06 1334.1 2262.06 1329.49 M2266.32 1339.54 Q2266.32 1346.16 2263.38 1349.38 Q2260.44 1352.62 2254.37 1352.62 Q2252.13 1352.62 2250.14 1352.27 Q2248.15 1351.95 2246.27 1351.25 L2246.27 1347.11 Q2248.15 1348.13 2249.97 1348.61 Q2251.8 1349.1 2253.7 1349.1 Q2257.89 1349.1 2259.97 1346.9 Q2262.06 1344.72 2262.06 1340.3 L2262.06 1338.2 Q2260.74 1340.49 2258.68 1341.62 Q2256.62 1342.76 2253.75 1342.76 Q2248.98 1342.76 2246.06 1339.12 Q2243.15 1335.49 2243.15 1329.49 Q2243.15 1323.47 2246.06 1319.84 Q2248.98 1316.2 2253.75 1316.2 Q2256.62 1316.2 2258.68 1317.34 Q2260.74 1318.47 2262.06 1320.76 L2262.06 1316.83 L2266.32 1316.83 L2266.32 1339.54 Z" fill="#000000" fill-rule="nonzero" fill-opacity="1" /></svg>
