<?xml version="1.0" encoding="utf-8"?>
<svg xmlns="http://www.w3.org/2000/svg" xmlns:xlink="http://www.w3.org/1999/xlink" width="600" height="400" viewBox="0 0 2400 1600">
<defs>
  <clipPath id="clip850">
    <rect x="0" y="0" width="2400" height="1600"/>
  </clipPath>
</defs>
<path clip-path="url(#clip850)" d="M0 1600 L2400 1600 L2400 0 L0 0  Z" fill="#ffffff" fill-rule="evenodd" fill-opacity="1"/>
<defs>
  <clipPath id="clip851">
    <rect x="480" y="0" width="1681" height="1600"/>
  </clipPath>
</defs>
<path clip-path="url(#clip850)" d="M242.135 1423.18 L2352.76 1423.18 L2352.76 47.2441 L242.135 47.2441  Z" fill="#ffffff" fill-rule="evenodd" fill-opacity="1"/>
<defs>
  <clipPath id="clip852">
    <rect x="242" y="47" width="2112" height="1377"/>
  </clipPath>
</defs>
<polyline clip-path="url(#clip852)" style="stroke:#000000; stroke-linecap:round; stroke-linejoin:round; stroke-width:2; stroke-opacity:0.1; fill:none" points="301.205,1423.18 301.205,47.2441 "/>
<polyline clip-path="url(#clip852)" style="stroke:#000000; stroke-linecap:round; stroke-linejoin:round; stroke-width:2; stroke-opacity:0.1; fill:none" points="965.144,1423.18 965.144,47.2441 "/>
<polyline clip-path="url(#clip852)" style="stroke:#000000; stroke-linecap:round; stroke-linejoin:round; stroke-width:2; stroke-opacity:0.1; fill:none" points="1629.08,1423.18 1629.08,47.2441 "/>
<polyline clip-path="url(#clip852)" style="stroke:#000000; stroke-linecap:round; stroke-linejoin:round; stroke-width:2; stroke-opacity:0.1; fill:none" points="2293.02,1423.18 2293.02,47.2441 "/>
<polyline clip-path="url(#clip852)" style="stroke:#000000; stroke-linecap:round; stroke-linejoin:round; stroke-width:2; stroke-opacity:0.1; fill:none" points="242.135,1423.18 2352.76,1423.18 "/>
<polyline clip-path="url(#clip852)" style="stroke:#000000; stroke-linecap:round; stroke-linejoin:round; stroke-width:2; stroke-opacity:0.1; fill:none" points="242.135,1155.31 2352.76,1155.31 "/>
<polyline clip-path="url(#clip852)" style="stroke:#000000; stroke-linecap:round; stroke-linejoin:round; stroke-width:2; stroke-opacity:0.1; fill:none" points="242.135,887.44 2352.76,887.44 "/>
<polyline clip-path="url(#clip852)" style="stroke:#000000; stroke-linecap:round; stroke-linejoin:round; stroke-width:2; stroke-opacity:0.1; fill:none" points="242.135,619.57 2352.76,619.57 "/>
<polyline clip-path="url(#clip852)" style="stroke:#000000; stroke-linecap:round; stroke-linejoin:round; stroke-width:2; stroke-opacity:0.1; fill:none" points="242.135,351.7 2352.76,351.7 "/>
<polyline clip-path="url(#clip852)" style="stroke:#000000; stroke-linecap:round; stroke-linejoin:round; stroke-width:2; stroke-opacity:0.1; fill:none" points="242.135,83.8307 2352.76,83.8307 "/>
<polyline clip-path="url(#clip850)" style="stroke:#000000; stroke-linecap:round; stroke-linejoin:round; stroke-width:4; stroke-opacity:1; fill:none" points="242.135,1423.18 2352.76,1423.18 "/>
<polyline clip-path="url(#clip850)" style="stroke:#000000; stroke-linecap:round; stroke-linejoin:round; stroke-width:4; stroke-opacity:1; fill:none" points="301.205,1423.18 301.205,1404.28 "/>
<polyline clip-path="url(#clip850)" style="stroke:#000000; stroke-linecap:round; stroke-linejoin:round; stroke-width:4; stroke-opacity:1; fill:none" points="965.144,1423.18 965.144,1404.28 "/>
<polyline clip-path="url(#clip850)" style="stroke:#000000; stroke-linecap:round; stroke-linejoin:round; stroke-width:4; stroke-opacity:1; fill:none" points="1629.08,1423.18 1629.08,1404.28 "/>
<polyline clip-path="url(#clip850)" style="stroke:#000000; stroke-linecap:round; stroke-linejoin:round; stroke-width:4; stroke-opacity:1; fill:none" points="2293.02,1423.18 2293.02,1404.28 "/>
<path clip-path="url(#clip850)" d="M301.205 1454.1 Q297.594 1454.1 295.766 1457.66 Q293.96 1461.2 293.96 1468.33 Q293.96 1475.44 295.766 1479.01 Q297.594 1482.55 301.205 1482.55 Q304.84 1482.55 306.645 1479.01 Q308.474 1475.44 308.474 1468.33 Q308.474 1461.2 306.645 1457.66 Q304.84 1454.1 301.205 1454.1 M301.205 1450.39 Q307.015 1450.39 310.071 1455 Q313.15 1459.58 313.15 1468.33 Q313.15 1477.06 310.071 1481.67 Q307.015 1486.25 301.205 1486.25 Q295.395 1486.25 292.316 1481.67 Q289.261 1477.06 289.261 1468.33 Q289.261 1459.58 292.316 1455 Q295.395 1450.39 301.205 1450.39 Z" fill="#000000" fill-rule="nonzero" fill-opacity="1" /><path clip-path="url(#clip850)" d="M909.67 1481.64 L917.309 1481.64 L917.309 1455.28 L908.998 1456.95 L908.998 1452.69 L917.262 1451.02 L921.938 1451.02 L921.938 1481.64 L929.577 1481.64 L929.577 1485.58 L909.67 1485.58 L909.67 1481.64 Z" fill="#000000" fill-rule="nonzero" fill-opacity="1" /><path clip-path="url(#clip850)" d="M949.021 1454.1 Q945.41 1454.1 943.582 1457.66 Q941.776 1461.2 941.776 1468.33 Q941.776 1475.44 943.582 1479.01 Q945.41 1482.55 949.021 1482.55 Q952.656 1482.55 954.461 1479.01 Q956.29 1475.44 956.29 1468.33 Q956.29 1461.2 954.461 1457.66 Q952.656 1454.1 949.021 1454.1 M949.021 1450.39 Q954.832 1450.39 957.887 1455 Q960.966 1459.58 960.966 1468.33 Q960.966 1477.06 957.887 1481.67 Q954.832 1486.25 949.021 1486.25 Q943.211 1486.25 940.133 1481.67 Q937.077 1477.06 937.077 1468.33 Q937.077 1459.58 940.133 1455 Q943.211 1450.39 949.021 1450.39 Z" fill="#000000" fill-rule="nonzero" fill-opacity="1" /><path clip-path="url(#clip850)" d="M979.183 1454.1 Q975.572 1454.1 973.743 1457.66 Q971.938 1461.2 971.938 1468.33 Q971.938 1475.44 973.743 1479.01 Q975.572 1482.55 979.183 1482.55 Q982.817 1482.55 984.623 1479.01 Q986.452 1475.44 986.452 1468.33 Q986.452 1461.2 984.623 1457.66 Q982.817 1454.1 979.183 1454.1 M979.183 1450.39 Q984.993 1450.39 988.049 1455 Q991.128 1459.58 991.128 1468.33 Q991.128 1477.06 988.049 1481.67 Q984.993 1486.25 979.183 1486.25 Q973.373 1486.25 970.294 1481.67 Q967.239 1477.06 967.239 1468.33 Q967.239 1459.58 970.294 1455 Q973.373 1450.39 979.183 1450.39 Z" fill="#000000" fill-rule="nonzero" fill-opacity="1" /><path clip-path="url(#clip850)" d="M1009.35 1454.1 Q1005.73 1454.1 1003.91 1457.66 Q1002.1 1461.2 1002.1 1468.33 Q1002.1 1475.44 1003.91 1479.01 Q1005.73 1482.55 1009.35 1482.55 Q1012.98 1482.55 1014.78 1479.01 Q1016.61 1475.44 1016.61 1468.33 Q1016.61 1461.2 1014.78 1457.66 Q1012.98 1454.1 1009.35 1454.1 M1009.35 1450.39 Q1015.16 1450.39 1018.21 1455 Q1021.29 1459.58 1021.29 1468.33 Q1021.29 1477.06 1018.21 1481.67 Q1015.16 1486.25 1009.35 1486.25 Q1003.53 1486.25 1000.46 1481.67 Q997.401 1477.06 997.401 1468.33 Q997.401 1459.58 1000.46 1455 Q1003.53 1450.39 1009.35 1450.39 Z" fill="#000000" fill-rule="nonzero" fill-opacity="1" /><path clip-path="url(#clip850)" d="M1577.69 1481.64 L1594.01 1481.64 L1594.01 1485.58 L1572.07 1485.58 L1572.07 1481.64 Q1574.73 1478.89 1579.31 1474.26 Q1583.92 1469.61 1585.1 1468.27 Q1587.35 1465.74 1588.23 1464.01 Q1589.13 1462.25 1589.13 1460.56 Q1589.13 1457.8 1587.18 1456.07 Q1585.26 1454.33 1582.16 1454.33 Q1579.96 1454.33 1577.51 1455.09 Q1575.08 1455.86 1572.3 1457.41 L1572.3 1452.69 Q1575.12 1451.55 1577.58 1450.97 Q1580.03 1450.39 1582.07 1450.39 Q1587.44 1450.39 1590.63 1453.08 Q1593.83 1455.77 1593.83 1460.26 Q1593.83 1462.39 1593.02 1464.31 Q1592.23 1466.2 1590.12 1468.8 Q1589.55 1469.47 1586.44 1472.69 Q1583.34 1475.88 1577.69 1481.64 Z" fill="#000000" fill-rule="nonzero" fill-opacity="1" /><path clip-path="url(#clip850)" d="M1613.83 1454.1 Q1610.22 1454.1 1608.39 1457.66 Q1606.58 1461.2 1606.58 1468.33 Q1606.58 1475.44 1608.39 1479.01 Q1610.22 1482.55 1613.83 1482.55 Q1617.46 1482.55 1619.27 1479.01 Q1621.1 1475.44 1621.1 1468.33 Q1621.1 1461.2 1619.27 1457.66 Q1617.46 1454.1 1613.83 1454.1 M1613.83 1450.39 Q1619.64 1450.39 1622.69 1455 Q1625.77 1459.58 1625.77 1468.33 Q1625.77 1477.06 1622.69 1481.67 Q1619.64 1486.25 1613.83 1486.25 Q1608.02 1486.25 1604.94 1481.67 Q1601.88 1477.06 1601.88 1468.33 Q1601.88 1459.58 1604.94 1455 Q1608.02 1450.39 1613.83 1450.39 Z" fill="#000000" fill-rule="nonzero" fill-opacity="1" /><path clip-path="url(#clip850)" d="M1643.99 1454.1 Q1640.38 1454.1 1638.55 1457.66 Q1636.74 1461.2 1636.74 1468.33 Q1636.74 1475.44 1638.55 1479.01 Q1640.38 1482.55 1643.99 1482.55 Q1647.62 1482.55 1649.43 1479.01 Q1651.26 1475.44 1651.26 1468.33 Q1651.26 1461.2 1649.43 1457.66 Q1647.62 1454.1 1643.99 1454.1 M1643.99 1450.39 Q1649.8 1450.39 1652.86 1455 Q1655.93 1459.58 1655.93 1468.33 Q1655.93 1477.06 1652.86 1481.67 Q1649.8 1486.25 1643.99 1486.25 Q1638.18 1486.25 1635.1 1481.67 Q1632.05 1477.06 1632.05 1468.33 Q1632.05 1459.58 1635.1 1455 Q1638.18 1450.39 1643.99 1450.39 Z" fill="#000000" fill-rule="nonzero" fill-opacity="1" /><path clip-path="url(#clip850)" d="M1674.15 1454.1 Q1670.54 1454.1 1668.71 1457.66 Q1666.91 1461.2 1666.91 1468.33 Q1666.91 1475.44 1668.71 1479.01 Q1670.54 1482.55 1674.15 1482.55 Q1677.79 1482.55 1679.59 1479.01 Q1681.42 1475.44 1681.42 1468.33 Q1681.42 1461.2 1679.59 1457.66 Q1677.79 1454.1 1674.15 1454.1 M1674.15 1450.39 Q1679.96 1450.39 1683.02 1455 Q1686.1 1459.58 1686.1 1468.33 Q1686.1 1477.06 1683.02 1481.67 Q1679.96 1486.25 1674.15 1486.25 Q1668.34 1486.25 1665.26 1481.67 Q1662.21 1477.06 1662.21 1468.33 Q1662.21 1459.58 1665.26 1455 Q1668.34 1450.39 1674.15 1450.39 Z" fill="#000000" fill-rule="nonzero" fill-opacity="1" /><path clip-path="url(#clip850)" d="M2251.7 1466.95 Q2255.06 1467.66 2256.93 1469.93 Q2258.83 1472.2 2258.83 1475.53 Q2258.83 1480.65 2255.31 1483.45 Q2251.79 1486.25 2245.31 1486.25 Q2243.14 1486.25 2240.82 1485.81 Q2238.53 1485.39 2236.08 1484.54 L2236.08 1480.02 Q2238.02 1481.16 2240.34 1481.74 Q2242.65 1482.32 2245.17 1482.32 Q2249.57 1482.32 2251.86 1480.58 Q2254.18 1478.84 2254.18 1475.53 Q2254.18 1472.48 2252.03 1470.77 Q2249.9 1469.03 2246.08 1469.03 L2242.05 1469.03 L2242.05 1465.19 L2246.26 1465.19 Q2249.71 1465.19 2251.54 1463.82 Q2253.37 1462.43 2253.37 1459.84 Q2253.37 1457.18 2251.47 1455.77 Q2249.6 1454.33 2246.08 1454.33 Q2244.16 1454.33 2241.96 1454.75 Q2239.76 1455.16 2237.12 1456.04 L2237.12 1451.88 Q2239.78 1451.14 2242.1 1450.77 Q2244.43 1450.39 2246.49 1450.39 Q2251.82 1450.39 2254.92 1452.83 Q2258.02 1455.23 2258.02 1459.35 Q2258.02 1462.22 2256.38 1464.21 Q2254.73 1466.18 2251.7 1466.95 Z" fill="#000000" fill-rule="nonzero" fill-opacity="1" /><path clip-path="url(#clip850)" d="M2277.7 1454.1 Q2274.09 1454.1 2272.26 1457.66 Q2270.45 1461.2 2270.45 1468.33 Q2270.45 1475.44 2272.26 1479.01 Q2274.09 1482.55 2277.7 1482.55 Q2281.33 1482.55 2283.14 1479.01 Q2284.97 1475.44 2284.97 1468.33 Q2284.97 1461.2 2283.14 1457.66 Q2281.33 1454.1 2277.7 1454.1 M2277.7 1450.39 Q2283.51 1450.39 2286.56 1455 Q2289.64 1459.58 2289.64 1468.33 Q2289.64 1477.06 2286.56 1481.67 Q2283.51 1486.25 2277.7 1486.25 Q2271.89 1486.25 2268.81 1481.67 Q2265.75 1477.06 2265.75 1468.33 Q2265.75 1459.58 2268.81 1455 Q2271.89 1450.39 2277.7 1450.39 Z" fill="#000000" fill-rule="nonzero" fill-opacity="1" /><path clip-path="url(#clip850)" d="M2307.86 1454.1 Q2304.25 1454.1 2302.42 1457.66 Q2300.61 1461.2 2300.61 1468.33 Q2300.61 1475.44 2302.42 1479.01 Q2304.25 1482.55 2307.86 1482.55 Q2311.49 1482.55 2313.3 1479.01 Q2315.13 1475.44 2315.13 1468.33 Q2315.13 1461.2 2313.3 1457.66 Q2311.49 1454.1 2307.86 1454.1 M2307.86 1450.39 Q2313.67 1450.39 2316.72 1455 Q2319.8 1459.58 2319.8 1468.33 Q2319.8 1477.06 2316.72 1481.67 Q2313.67 1486.25 2307.86 1486.25 Q2302.05 1486.25 2298.97 1481.67 Q2295.91 1477.06 2295.91 1468.33 Q2295.91 1459.58 2298.97 1455 Q2302.05 1450.39 2307.86 1450.39 Z" fill="#000000" fill-rule="nonzero" fill-opacity="1" /><path clip-path="url(#clip850)" d="M2338.02 1454.1 Q2334.41 1454.1 2332.58 1457.66 Q2330.78 1461.2 2330.78 1468.33 Q2330.78 1475.44 2332.58 1479.01 Q2334.41 1482.55 2338.02 1482.55 Q2341.66 1482.55 2343.46 1479.01 Q2345.29 1475.44 2345.29 1468.33 Q2345.29 1461.2 2343.46 1457.66 Q2341.66 1454.1 2338.02 1454.1 M2338.02 1450.39 Q2343.83 1450.39 2346.89 1455 Q2349.97 1459.58 2349.97 1468.33 Q2349.97 1477.06 2346.89 1481.67 Q2343.83 1486.25 2338.02 1486.25 Q2332.21 1486.25 2329.13 1481.67 Q2326.08 1477.06 2326.08 1468.33 Q2326.08 1459.58 2329.13 1455 Q2332.21 1450.39 2338.02 1450.39 Z" fill="#000000" fill-rule="nonzero" fill-opacity="1" /><path clip-path="url(#clip850)" d="M1165.17 1520.52 L1171.6 1520.52 L1171.6 1568.04 L1165.17 1568.04 L1165.17 1520.52 Z" fill="#000000" fill-rule="nonzero" fill-opacity="1" /><path clip-path="url(#clip850)" d="M1189.93 1522.27 L1189.93 1532.4 L1201.99 1532.4 L1201.99 1536.95 L1189.93 1536.95 L1189.93 1556.3 Q1189.93 1560.66 1191.11 1561.9 Q1192.32 1563.14 1195.98 1563.14 L1201.99 1563.14 L1201.99 1568.04 L1195.98 1568.04 Q1189.2 1568.04 1186.62 1565.53 Q1184.04 1562.98 1184.04 1556.3 L1184.04 1536.95 L1179.74 1536.95 L1179.74 1532.4 L1184.04 1532.4 L1184.04 1522.27 L1189.93 1522.27 Z" fill="#000000" fill-rule="nonzero" fill-opacity="1" /><path clip-path="url(#clip850)" d="M1240.19 1548.76 L1240.19 1551.62 L1213.26 1551.62 Q1213.64 1557.67 1216.89 1560.85 Q1220.17 1564 1225.99 1564 Q1229.36 1564 1232.52 1563.17 Q1235.7 1562.35 1238.82 1560.69 L1238.82 1566.23 Q1235.67 1567.57 1232.36 1568.27 Q1229.05 1568.97 1225.64 1568.97 Q1217.11 1568.97 1212.11 1564 Q1207.15 1559.04 1207.15 1550.57 Q1207.15 1541.82 1211.86 1536.69 Q1216.6 1531.54 1224.62 1531.54 Q1231.81 1531.54 1235.98 1536.18 Q1240.19 1540.8 1240.19 1548.76 M1234.33 1547.04 Q1234.27 1542.23 1231.62 1539.37 Q1229.01 1536.5 1224.69 1536.5 Q1219.78 1536.5 1216.82 1539.27 Q1213.9 1542.04 1213.45 1547.07 L1234.33 1547.04 Z" fill="#000000" fill-rule="nonzero" fill-opacity="1" /><path clip-path="url(#clip850)" d="M1270.45 1537.87 Q1269.47 1537.3 1268.29 1537.04 Q1267.14 1536.76 1265.74 1536.76 Q1260.78 1536.76 1258.11 1540 Q1255.46 1543.22 1255.46 1549.27 L1255.46 1568.04 L1249.58 1568.04 L1249.58 1532.4 L1255.46 1532.4 L1255.46 1537.93 Q1257.31 1534.69 1260.27 1533.13 Q1263.23 1531.54 1267.46 1531.54 Q1268.07 1531.54 1268.8 1531.63 Q1269.53 1531.7 1270.42 1531.85 L1270.45 1537.87 Z" fill="#000000" fill-rule="nonzero" fill-opacity="1" /><path clip-path="url(#clip850)" d="M1292.8 1550.12 Q1285.7 1550.12 1282.96 1551.75 Q1280.23 1553.37 1280.23 1557.29 Q1280.23 1560.4 1282.26 1562.25 Q1284.33 1564.07 1287.86 1564.07 Q1292.73 1564.07 1295.66 1560.63 Q1298.62 1557.16 1298.62 1551.43 L1298.62 1550.12 L1292.8 1550.12 M1304.48 1547.71 L1304.48 1568.04 L1298.62 1568.04 L1298.62 1562.63 Q1296.62 1565.88 1293.63 1567.44 Q1290.63 1568.97 1286.31 1568.97 Q1280.83 1568.97 1277.58 1565.91 Q1274.37 1562.82 1274.37 1557.67 Q1274.37 1551.65 1278.38 1548.6 Q1282.42 1545.54 1290.41 1545.54 L1298.62 1545.54 L1298.62 1544.97 Q1298.62 1540.93 1295.95 1538.73 Q1293.31 1536.5 1288.5 1536.5 Q1285.45 1536.5 1282.55 1537.23 Q1279.65 1537.97 1276.98 1539.43 L1276.98 1534.02 Q1280.19 1532.78 1283.22 1532.17 Q1286.24 1531.54 1289.11 1531.54 Q1296.84 1531.54 1300.66 1535.55 Q1304.48 1539.56 1304.48 1547.71 Z" fill="#000000" fill-rule="nonzero" fill-opacity="1" /><path clip-path="url(#clip850)" d="M1322.34 1522.27 L1322.34 1532.4 L1334.4 1532.4 L1334.4 1536.95 L1322.34 1536.95 L1322.34 1556.3 Q1322.34 1560.66 1323.51 1561.9 Q1324.72 1563.14 1328.38 1563.14 L1334.4 1563.14 L1334.4 1568.04 L1328.38 1568.04 Q1321.6 1568.04 1319.03 1565.53 Q1316.45 1562.98 1316.45 1556.3 L1316.45 1536.95 L1312.15 1536.95 L1312.15 1532.4 L1316.45 1532.4 L1316.45 1522.27 L1322.34 1522.27 Z" fill="#000000" fill-rule="nonzero" fill-opacity="1" /><path clip-path="url(#clip850)" d="M1342.1 1532.4 L1347.96 1532.4 L1347.96 1568.04 L1342.1 1568.04 L1342.1 1532.4 M1342.1 1518.52 L1347.96 1518.52 L1347.96 1525.93 L1342.1 1525.93 L1342.1 1518.52 Z" fill="#000000" fill-rule="nonzero" fill-opacity="1" /><path clip-path="url(#clip850)" d="M1374.02 1536.5 Q1369.31 1536.5 1366.58 1540.19 Q1363.84 1543.85 1363.84 1550.25 Q1363.84 1556.65 1366.55 1560.34 Q1369.28 1564 1374.02 1564 Q1378.7 1564 1381.44 1560.31 Q1384.18 1556.62 1384.18 1550.25 Q1384.18 1543.92 1381.44 1540.23 Q1378.7 1536.5 1374.02 1536.5 M1374.02 1531.54 Q1381.66 1531.54 1386.02 1536.5 Q1390.38 1541.47 1390.38 1550.25 Q1390.38 1559 1386.02 1564 Q1381.66 1568.97 1374.02 1568.97 Q1366.35 1568.97 1361.99 1564 Q1357.66 1559 1357.66 1550.25 Q1357.66 1541.47 1361.99 1536.5 Q1366.35 1531.54 1374.02 1531.54 Z" fill="#000000" fill-rule="nonzero" fill-opacity="1" /><path clip-path="url(#clip850)" d="M1429.72 1546.53 L1429.72 1568.04 L1423.87 1568.04 L1423.87 1546.72 Q1423.87 1541.66 1421.89 1539.14 Q1419.92 1536.63 1415.97 1536.63 Q1411.23 1536.63 1408.5 1539.65 Q1405.76 1542.68 1405.76 1547.9 L1405.76 1568.04 L1399.87 1568.04 L1399.87 1532.4 L1405.76 1532.4 L1405.76 1537.93 Q1407.86 1534.72 1410.69 1533.13 Q1413.56 1531.54 1417.28 1531.54 Q1423.42 1531.54 1426.57 1535.36 Q1429.72 1539.14 1429.72 1546.53 Z" fill="#000000" fill-rule="nonzero" fill-opacity="1" /><polyline clip-path="url(#clip850)" style="stroke:#000000; stroke-linecap:round; stroke-linejoin:round; stroke-width:4; stroke-opacity:1; fill:none" points="242.135,1423.18 242.135,47.2441 "/>
<polyline clip-path="url(#clip850)" style="stroke:#000000; stroke-linecap:round; stroke-linejoin:round; stroke-width:4; stroke-opacity:1; fill:none" points="242.135,1423.18 261.032,1423.18 "/>
<polyline clip-path="url(#clip850)" style="stroke:#000000; stroke-linecap:round; stroke-linejoin:round; stroke-width:4; stroke-opacity:1; fill:none" points="242.135,1155.31 261.032,1155.31 "/>
<polyline clip-path="url(#clip850)" style="stroke:#000000; stroke-linecap:round; stroke-linejoin:round; stroke-width:4; stroke-opacity:1; fill:none" points="242.135,887.44 261.032,887.44 "/>
<polyline clip-path="url(#clip850)" style="stroke:#000000; stroke-linecap:round; stroke-linejoin:round; stroke-width:4; stroke-opacity:1; fill:none" points="242.135,619.57 261.032,619.57 "/>
<polyline clip-path="url(#clip850)" style="stroke:#000000; stroke-linecap:round; stroke-linejoin:round; stroke-width:4; stroke-opacity:1; fill:none" points="242.135,351.7 261.032,351.7 "/>
<polyline clip-path="url(#clip850)" style="stroke:#000000; stroke-linecap:round; stroke-linejoin:round; stroke-width:4; stroke-opacity:1; fill:none" points="242.135,83.8307 261.032,83.8307 "/>
<path clip-path="url(#clip850)" d="M114.26 1423.63 L143.936 1423.63 L143.936 1427.57 L114.26 1427.57 L114.26 1423.63 Z" fill="#000000" fill-rule="nonzero" fill-opacity="1" /><path clip-path="url(#clip850)" d="M154.839 1436.52 L162.477 1436.52 L162.477 1410.16 L154.167 1411.83 L154.167 1407.57 L162.431 1405.9 L167.107 1405.9 L167.107 1436.52 L174.746 1436.52 L174.746 1440.46 L154.839 1440.46 L154.839 1436.52 Z" fill="#000000" fill-rule="nonzero" fill-opacity="1" /><path clip-path="url(#clip850)" d="M194.19 1408.98 Q190.579 1408.98 188.75 1412.54 Q186.945 1416.08 186.945 1423.21 Q186.945 1430.32 188.75 1433.89 Q190.579 1437.43 194.19 1437.43 Q197.825 1437.43 199.63 1433.89 Q201.459 1430.32 201.459 1423.21 Q201.459 1416.08 199.63 1412.54 Q197.825 1408.98 194.19 1408.98 M194.19 1405.27 Q200 1405.27 203.056 1409.88 Q206.135 1414.46 206.135 1423.21 Q206.135 1431.94 203.056 1436.55 Q200 1441.13 194.19 1441.13 Q188.38 1441.13 185.301 1436.55 Q182.246 1431.94 182.246 1423.21 Q182.246 1414.46 185.301 1409.88 Q188.38 1405.27 194.19 1405.27 Z" fill="#000000" fill-rule="nonzero" fill-opacity="1" /><path clip-path="url(#clip850)" d="M144.607 1155.76 L174.283 1155.76 L174.283 1159.7 L144.607 1159.7 L144.607 1155.76 Z" fill="#000000" fill-rule="nonzero" fill-opacity="1" /><path clip-path="url(#clip850)" d="M184.514 1171.87 L184.514 1167.61 Q186.274 1168.45 188.079 1168.89 Q189.885 1169.33 191.621 1169.33 Q196.25 1169.33 198.681 1166.22 Q201.135 1163.1 201.482 1156.76 Q200.139 1158.75 198.079 1159.81 Q196.019 1160.88 193.519 1160.88 Q188.334 1160.88 185.301 1157.75 Q182.292 1154.6 182.292 1149.16 Q182.292 1143.84 185.44 1140.62 Q188.588 1137.41 193.82 1137.41 Q199.815 1137.41 202.963 1142.01 Q206.135 1146.59 206.135 1155.34 Q206.135 1163.52 202.246 1168.4 Q198.38 1173.26 191.829 1173.26 Q190.07 1173.26 188.264 1172.91 Q186.459 1172.57 184.514 1171.87 M193.82 1157.22 Q196.968 1157.22 198.797 1155.07 Q200.649 1152.91 200.649 1149.16 Q200.649 1145.44 198.797 1143.28 Q196.968 1141.11 193.82 1141.11 Q190.672 1141.11 188.82 1143.28 Q186.991 1145.44 186.991 1149.16 Q186.991 1152.91 188.82 1155.07 Q190.672 1157.22 193.82 1157.22 Z" fill="#000000" fill-rule="nonzero" fill-opacity="1" /><path clip-path="url(#clip850)" d="M144.515 887.892 L174.19 887.892 L174.19 891.827 L144.515 891.827 L144.515 887.892 Z" fill="#000000" fill-rule="nonzero" fill-opacity="1" /><path clip-path="url(#clip850)" d="M194.283 888.308 Q190.95 888.308 189.028 890.091 Q187.13 891.873 187.13 894.998 Q187.13 898.123 189.028 899.905 Q190.95 901.688 194.283 901.688 Q197.616 901.688 199.537 899.905 Q201.459 898.1 201.459 894.998 Q201.459 891.873 199.537 890.091 Q197.639 888.308 194.283 888.308 M189.607 886.317 Q186.598 885.577 184.908 883.517 Q183.241 881.456 183.241 878.493 Q183.241 874.35 186.181 871.943 Q189.144 869.535 194.283 869.535 Q199.445 869.535 202.385 871.943 Q205.324 874.35 205.324 878.493 Q205.324 881.456 203.635 883.517 Q201.968 885.577 198.982 886.317 Q202.362 887.105 204.237 889.396 Q206.135 891.688 206.135 894.998 Q206.135 900.021 203.056 902.706 Q200 905.391 194.283 905.391 Q188.565 905.391 185.487 902.706 Q182.431 900.021 182.431 894.998 Q182.431 891.688 184.329 889.396 Q186.227 887.105 189.607 886.317 M187.894 878.933 Q187.894 881.618 189.561 883.123 Q191.25 884.628 194.283 884.628 Q197.292 884.628 198.982 883.123 Q200.695 881.618 200.695 878.933 Q200.695 876.248 198.982 874.743 Q197.292 873.239 194.283 873.239 Q191.25 873.239 189.561 874.743 Q187.894 876.248 187.894 878.933 Z" fill="#000000" fill-rule="nonzero" fill-opacity="1" /><path clip-path="url(#clip850)" d="M145.325 620.022 L175.001 620.022 L175.001 623.957 L145.325 623.957 L145.325 620.022 Z" fill="#000000" fill-rule="nonzero" fill-opacity="1" /><path clip-path="url(#clip850)" d="M183.913 602.29 L206.135 602.29 L206.135 604.281 L193.588 636.85 L188.704 636.85 L200.51 606.225 L183.913 606.225 L183.913 602.29 Z" fill="#000000" fill-rule="nonzero" fill-opacity="1" /><path clip-path="url(#clip850)" d="M144.26 352.152 L173.936 352.152 L173.936 356.087 L144.26 356.087 L144.26 352.152 Z" fill="#000000" fill-rule="nonzero" fill-opacity="1" /><path clip-path="url(#clip850)" d="M194.607 349.837 Q191.459 349.837 189.607 351.99 Q187.778 354.143 187.778 357.893 Q187.778 361.619 189.607 363.795 Q191.459 365.948 194.607 365.948 Q197.755 365.948 199.584 363.795 Q201.436 361.619 201.436 357.893 Q201.436 354.143 199.584 351.99 Q197.755 349.837 194.607 349.837 M203.889 335.184 L203.889 339.444 Q202.13 338.61 200.325 338.17 Q198.542 337.731 196.783 337.731 Q192.153 337.731 189.7 340.856 Q187.269 343.981 186.922 350.3 Q188.288 348.286 190.348 347.221 Q192.408 346.133 194.885 346.133 Q200.093 346.133 203.102 349.305 Q206.135 352.453 206.135 357.893 Q206.135 363.217 202.987 366.434 Q199.838 369.652 194.607 369.652 Q188.612 369.652 185.44 365.068 Q182.269 360.462 182.269 351.735 Q182.269 343.541 186.158 338.68 Q190.047 333.795 196.598 333.795 Q198.357 333.795 200.139 334.143 Q201.945 334.49 203.889 335.184 Z" fill="#000000" fill-rule="nonzero" fill-opacity="1" /><path clip-path="url(#clip850)" d="M145.417 84.282 L175.093 84.282 L175.093 88.2172 L145.417 88.2172 L145.417 84.282 Z" fill="#000000" fill-rule="nonzero" fill-opacity="1" /><path clip-path="url(#clip850)" d="M185.232 66.5507 L203.588 66.5507 L203.588 70.4858 L189.514 70.4858 L189.514 78.958 Q190.533 78.6108 191.551 78.4487 Q192.57 78.2636 193.588 78.2636 Q199.375 78.2636 202.755 81.4348 Q206.135 84.6061 206.135 90.0228 Q206.135 95.6014 202.662 98.7033 Q199.19 101.782 192.871 101.782 Q190.695 101.782 188.426 101.412 Q186.181 101.041 183.774 100.3 L183.774 95.6014 Q185.857 96.7357 188.079 97.2912 Q190.301 97.8468 192.778 97.8468 Q196.783 97.8468 199.121 95.7403 Q201.459 93.6338 201.459 90.0228 Q201.459 86.4117 199.121 84.3052 Q196.783 82.1987 192.778 82.1987 Q190.903 82.1987 189.028 82.6154 Q187.176 83.0321 185.232 83.9117 L185.232 66.5507 Z" fill="#000000" fill-rule="nonzero" fill-opacity="1" /><path clip-path="url(#clip850)" d="M16.4842 816.375 L16.4842 786.329 L21.895 786.329 L21.895 809.945 L35.9632 809.945 L35.9632 787.315 L41.3741 787.315 L41.3741 809.945 L58.5933 809.945 L58.5933 785.756 L64.0042 785.756 L64.0042 816.375 L16.4842 816.375 Z" fill="#000000" fill-rule="nonzero" fill-opacity="1" /><path clip-path="url(#clip850)" d="M16.4842 775.189 L16.4842 768.759 L58.5933 768.759 L58.5933 745.62 L64.0042 745.62 L64.0042 775.189 L16.4842 775.189 Z" fill="#000000" fill-rule="nonzero" fill-opacity="1" /><path clip-path="url(#clip850)" d="M41.3104 732.443 L58.7206 732.443 L58.7206 722.13 Q58.7206 716.942 56.5881 714.46 Q54.4238 711.945 49.9996 711.945 Q45.5436 711.945 43.4429 714.46 Q41.3104 716.942 41.3104 722.13 L41.3104 732.443 M21.7677 732.443 L36.0905 732.443 L36.0905 722.926 Q36.0905 718.216 34.34 715.924 Q32.5576 713.6 28.9291 713.6 Q25.3325 713.6 23.5501 715.924 Q21.7677 718.216 21.7677 722.926 L21.7677 732.443 M16.4842 738.872 L16.4842 722.449 Q16.4842 715.096 19.5397 711.118 Q22.5952 707.139 28.2289 707.139 Q32.5894 707.139 35.1675 709.176 Q37.7456 711.213 38.3822 715.16 Q39.4007 710.418 42.6472 707.808 Q45.8619 705.166 50.6998 705.166 Q57.0655 705.166 60.5348 709.495 Q64.0042 713.823 64.0042 721.812 L64.0042 738.872 L16.4842 738.872 Z" fill="#000000" fill-rule="nonzero" fill-opacity="1" /><path clip-path="url(#clip850)" d="M20.8447 676.011 Q20.8447 683.013 26.0645 687.151 Q31.2844 691.257 40.2919 691.257 Q49.2675 691.257 54.4874 687.151 Q59.7073 683.013 59.7073 676.011 Q59.7073 669.009 54.4874 664.935 Q49.2675 660.829 40.2919 660.829 Q31.2844 660.829 26.0645 664.935 Q20.8447 669.009 20.8447 676.011 M15.6248 676.011 Q15.6248 666.017 22.3406 660.033 Q29.0246 654.049 40.2919 654.049 Q51.5274 654.049 58.2432 660.033 Q64.9272 666.017 64.9272 676.011 Q64.9272 686.037 58.2432 692.052 Q51.5592 698.036 40.2919 698.036 Q29.0246 698.036 22.3406 692.052 Q15.6248 686.037 15.6248 676.011 Z" fill="#000000" fill-rule="nonzero" fill-opacity="1" /><polyline clip-path="url(#clip852)" style="stroke:#009af9; stroke-linecap:round; stroke-linejoin:round; stroke-width:4; stroke-opacity:1; fill:none" points="301.869,714.59 302.533,5181.14 303.197,1300.34 303.861,12256.6 304.525,2978.28 305.189,1220.57 305.853,2153.49 306.517,22242 307.181,2754.44 307.845,14171.3 308.509,36584.5 309.173,1215.2 309.836,6970.32 310.5,81420.4 311.164,4.1943e+06 311.828,3997.25 312.492,8409.01 313.156,19393.7 313.82,51230.5 314.484,1069.67 315.148,877.308 315.812,2053.4 316.476,1141.13 317.14,1041.72 317.804,3463.93 318.468,3537.27 319.132,228415 319.796,21097.3 320.46,7882.04 321.123,42848.2 321.787,701.615 322.451,35846.4 323.115,312.693 323.779,1946.58 324.443,28262.3 325.107,4.1943e+06 325.771,1413.95 326.435,12056.8 327.099,2995.76 327.763,1542.84 328.427,1316.3 329.091,151616 329.755,4.1943e+06 330.419,2046.26 331.083,2028.14 331.746,2287.35 332.41,4415.19 333.074,1886.44 333.738,3628.01 334.402,12878.3 335.066,675.39 335.73,7646.84 336.394,114222 337.058,1502.64 337.722,4783.64 338.386,137161 339.05,1.51597e+06 339.714,1301.71 340.378,7279.93 341.042,3071.94 341.706,94356.7 342.369,28935.5 343.033,112113 343.697,1343.24 344.361,823.609 345.025,15965.6 345.689,983.277 346.353,1320.44 347.017,5984.75 347.681,1026.56 348.345,3.28472e+06 349.009,105142 349.673,20209.6 350.337,139959 351.001,6243.85 351.665,297.972 352.329,1866.95 352.993,4802.92 353.656,865.611 354.32,29753.4 354.984,239760 355.648,62714.8 356.312,146352 356.976,10765.7 357.64,1199.3 358.304,3389.71 358.968,1775.41 359.632,3483.64 360.296,1711.19 360.96,2680.26 361.624,2243 362.288,1652.09 362.952,6591.44 363.616,25469.7 364.279,9136.42 364.943,2619.28 365.607,189.752 366.271,820.717 366.935,9373.78 367.599,7996.24 368.263,1088.69 368.927,116466 369.591,2424.12 370.255,222864 370.919,68318 371.583,6574 372.247,79724.9 372.911,7640.63 373.575,4898.57 374.239,1332.08 374.902,5180.3 375.566,28266.9 376.23,13033.8 376.894,5089.46 377.558,1211.18 378.222,4.1943e+06 378.886,629768 379.55,26007.9 380.214,2239.33 380.878,59215.4 381.542,2.13625e+06 382.206,2337.57 382.87,17763.5 383.534,1102.69 384.198,11251.7 384.862,957.417 385.526,6640.38 386.189,7235.06 386.853,5071.61 387.517,285402 388.181,1966.89 388.845,247163 389.509,7911.4 390.173,1718.53 390.837,47996.8 391.501,134833 392.165,196385 392.829,10801.9 393.493,15473.1 394.157,16348.6 394.821,1184.61 395.485,27971.1 396.149,3.93766e+06 396.812,859284 397.476,19008.7 398.14,743.912 398.804,3545.07 399.468,45024.5 400.132,2745.65 400.796,753.871 401.46,16968.8 402.124,4753.31 402.788,150231 403.452,9540.33 404.116,6366.7 404.78,2161.71 405.444,732.544 406.108,27948 406.772,1.50545e+06 407.435,50144.8 408.099,8381.58 408.763,1492.24 409.427,1299.92 410.091,986.805 410.755,164280 411.419,188246 412.083,4598.38 412.747,1254.68 413.411,2729.49 414.075,7271.19 414.739,1977.1 415.403,787.409 416.067,10534.8 416.731,5834.2 417.395,3095.32 418.058,19956.3 418.722,474.045 419.386,13525.2 420.05,1510.4 420.714,4482.98 421.378,1227.66 422.042,2035.64 422.706,1071.14 423.37,9826.68 424.034,762.947 424.698,2283.98 425.362,2805.58 426.026,863.127 426.69,1481.96 427.354,972.084 428.018,16918.3 428.682,5619.41 429.345,7306.93 430.009,2343.01 430.673,4374.75 431.337,6978.17 432.001,2229.81 432.665,1437.75 433.329,3769.65 433.993,1138.59 434.657,2557.17 435.321,3160.72 435.985,657.026 436.649,55449.4 437.313,9072.79 437.977,5073.92 438.641,2356.51 439.305,16229 439.968,4.1943e+06 440.632,1893.57 441.296,2016.26 441.96,436.65 442.624,14220 443.288,414.981 443.952,801.779 444.616,1354.68 445.28,1177.29 445.944,1020.18 446.608,574.81 447.272,605.338 447.936,4467.32 448.6,1075.66 449.264,959.513 449.928,1891.58 450.591,1733.58 451.255,7037.95 451.919,3665.4 452.583,1057.52 453.247,1142.35 453.911,2543.14 454.575,2203.65 455.239,557.715 455.903,3047.63 456.567,453.777 457.231,1319.62 457.895,899.816 458.559,1068.13 459.223,1143.19 459.887,759.21 460.551,949.502 461.215,4140.2 461.878,3150.06 462.542,218.042 463.206,2851.18 463.87,7045.1 464.534,2157.63 465.198,2582.7 465.862,1671 466.526,6874 467.19,13642 467.854,10529.3 468.518,1977.5 469.182,565.052 469.846,1371.77 470.51,1479.04 471.174,1048.93 471.838,1377.05 472.501,1510.51 473.165,853.863 473.829,2023.52 474.493,594.02 475.157,2261.68 475.821,1278.42 476.485,2232.54 477.149,4377.77 477.813,828.86 478.477,691.223 479.141,4551.39 479.805,521.282 480.469,1337.07 481.133,1050.02 481.797,1870.29 482.461,2355.4 483.124,1234.77 483.788,735.411 484.452,2156.12 485.116,1508.13 485.78,1518.8 486.444,513.953 487.108,2389.47 487.772,1824.34 488.436,29300.3 489.1,2210.76 489.764,1800.38 490.428,676.464 491.092,2068.32 491.756,366.76 492.42,3348.1 493.084,4482.11 493.748,7346.02 494.411,1147.32 495.075,801.202 495.739,2384.2 496.403,2138.34 497.067,1604.23 497.731,1365.06 498.395,935.976 499.059,1687.89 499.723,1737.43 500.387,1102.06 501.051,3101.48 501.715,4919.05 502.379,1571.63 503.043,420.208 503.707,2247.36 504.371,8591.78 505.034,729.733 505.698,3774.75 506.362,1436.99 507.026,4718.03 507.69,1642.38 508.354,876.916 509.018,1690.03 509.682,4442.58 510.346,2252.95 511.01,863.768 511.674,1270.22 512.338,575.59 513.002,1051.65 513.666,11880.6 514.33,2129.26 514.994,1124.5 515.657,838.121 516.321,1215.85 516.985,1367.88 517.649,2688.81 518.313,2332.16 518.977,784.424 519.641,543.26 520.305,904.994 520.969,483.804 521.633,1554.53 522.297,1706 522.961,419.754 523.625,1248.82 524.289,1245.67 524.953,505.08 525.617,1386.68 526.281,843.912 526.944,4896.49 527.608,925.592 528.272,2347.19 528.936,2554.29 529.6,1316.37 530.264,1041.58 530.928,921.036 531.592,6244.05 532.256,1119.2 532.92,432.35 533.584,6986.31 534.248,2878.73 534.912,4517.95 535.576,835.796 536.24,945.753 536.904,1530.88 537.567,2606.68 538.231,3868.25 538.895,2316.54 539.559,2450.7 540.223,3066.54 540.887,3247.84 541.551,4461 542.215,18198.5 542.879,3936.12 543.543,1307.35 544.207,4070.22 544.871,1173.86 545.535,1257.56 546.199,5338.45 546.863,7228.16 547.527,678.785 548.19,779.212 548.854,1581.74 549.518,1966.43 550.182,8485.49 550.846,944.875 551.51,1575.15 552.174,4731.81 552.838,1019.65 553.502,1087.33 554.166,1929.12 554.83,4357.35 555.494,2078.28 556.158,2832.47 556.822,992.264 557.486,1423.22 558.15,3037.12 558.813,1529.02 559.477,35258.4 560.141,636.563 560.805,901.271 561.469,1073.59 562.133,661.035 562.797,825.463 563.461,975.826 564.125,987.544 564.789,2036.43 565.453,4591.99 566.117,2489.88 566.781,967.433 567.445,3217.9 568.109,948.341 568.773,1314.61 569.437,1932.52 570.1,803.783 570.764,1203.4 571.428,2581.13 572.092,3995.11 572.756,1690.26 573.42,724.701 574.084,1698.49 574.748,2766.82 575.412,1054.42 576.076,917.096 576.74,3039.79 577.404,2247.53 578.068,1032.52 578.732,704.262 579.396,936.537 580.06,2464.72 580.723,831.924 581.387,846.79 582.051,1046.96 582.715,2955.95 583.379,1810.73 584.043,2624.88 584.707,1550.86 585.371,581.465 586.035,3888.34 586.699,4044.3 587.363,1166.31 588.027,1105.16 588.691,470.582 589.355,892.743 590.019,1288.02 590.683,949.739 591.346,550.779 592.01,1228.18 592.674,690.771 593.338,1168.68 594.002,1106.34 594.666,1246.63 595.33,3652.77 595.994,1090.8 596.658,1565.43 597.322,2028.47 597.986,1741.24 598.65,989.224 599.314,1001.1 599.978,1569.21 600.642,950.614 601.306,1364.78 601.97,3442.68 602.633,1518.36 603.297,3300.92 603.961,724.435 604.625,2071.82 605.289,1660.86 605.953,948.319 606.617,1157.1 607.281,1159.59 607.945,730.38 608.609,878.311 609.273,2262.11 609.937,9592.27 610.601,2027.65 611.265,2672.31 611.929,1331.27 612.593,1606.67 613.256,725.137 613.92,7961.45 614.584,2713.4 615.248,1607.51 615.912,877.264 616.576,3204.16 617.24,2122.67 617.904,1244.97 618.568,806.566 619.232,1866.66 619.896,1639.22 620.56,7932.61 621.224,897.165 621.888,2339.52 622.552,3155.93 623.216,750.953 623.879,771.431 624.543,2583.83 625.207,1643.9 625.871,7637.83 626.535,1477.94 627.199,940.77 627.863,10844.1 628.527,721.344 629.191,3985.96 629.855,1327.52 630.519,1806.42 631.183,1269.31 631.847,1191.75 632.511,1468.14 633.175,2118.75 633.839,4570.59 634.503,1215.27 635.166,402.252 635.83,16295.8 636.494,822.494 637.158,1281.26 637.822,69261.4 638.486,1806.11 639.15,7583.63 639.814,918.024 640.478,880.097 641.142,1019.26 641.806,1759.04 642.47,476.698 643.134,4967.71 643.798,1186.03 644.462,1133.61 645.126,435.434 645.789,1161.39 646.453,908.548 647.117,3412.43 647.781,47.2441 648.445,974.892 649.109,1207.92 649.773,611.564 650.437,4927.48 651.101,2294.27 651.765,1032.1 652.429,805.39 653.093,928.614 653.757,1347.34 654.421,1325.12 655.085,2213.18 655.749,792.823 656.412,1000.04 657.076,1584.99 657.74,1077.75 658.404,837.155 659.068,2500.41 659.732,2018.68 660.396,1141.43 661.06,3237.2 661.724,589.424 662.388,1594.1 663.052,2599.92 663.716,1394.86 664.38,1138.34 665.044,657.132 665.708,1375.26 666.372,4417.25 667.036,2267.66 667.699,2154.47 668.363,3331.61 669.027,864.38 669.691,1953.99 670.355,1346.48 671.019,4966.19 671.683,797.116 672.347,2945.58 673.011,694.048 673.675,15501.4 674.339,1542.87 675.003,637.813 675.667,2882.04 676.331,3203.73 676.995,1944.07 677.659,1005.08 678.322,1910.25 678.986,1805.27 679.65,1585.94 680.314,761.91 680.978,529.297 681.642,2243.57 682.306,852.956 682.97,149120 683.634,1365.05 684.298,2126.91 684.962,1014.25 685.626,3708.27 686.29,435.49 686.954,621.347 687.618,1913.08 688.282,589.211 688.945,1163.03 689.609,549.71 690.273,532.226 690.937,1230.84 691.601,1208.77 692.265,863.752 692.929,3202.03 693.593,4523.69 694.257,1276.25 694.921,2854.58 695.585,1307.4 696.249,473.146 696.913,1500.89 697.577,827.942 698.241,1663.6 698.905,2104.31 699.569,1593.9 700.232,1954.3 700.896,721.029 701.56,1930.99 702.224,703.082 702.888,2565.04 703.552,3550 704.216,704.123 704.88,2474.63 705.544,928.201 706.208,764.255 706.872,1782.27 707.536,2313.88 708.2,1536.82 708.864,1038.94 709.528,2281.14 710.192,1282.56 710.855,2656.78 711.519,2024.64 712.183,1380.74 712.847,4198.62 713.511,2862.96 714.175,2309.27 714.839,1874.11 715.503,1165.2 716.167,6310.18 716.831,2111.71 717.495,5905.71 718.159,4843.32 718.823,3412.71 719.487,1438.02 720.151,2790.08 720.815,2173.31 721.478,2227.76 722.142,341.466 722.806,51175.4 723.47,2744.16 724.134,719.901 724.798,6486.81 725.462,1027.84 726.126,6673.88 726.79,993.727 727.454,647.806 728.118,760.57 728.782,3263.84 729.446,2770.33 730.11,716.83 730.774,3543.63 731.438,445.42 732.101,837.144 732.765,1018.73 733.429,963.13 734.093,2541.38 734.757,1633.92 735.421,509.372 736.085,1081.39 736.749,1161.32 737.413,1679.56 738.077,967.696 738.741,2563.47 739.405,1183.74 740.069,650.01 740.733,1359.86 741.397,5327.19 742.061,972.555 742.725,101127 743.388,1080.05 744.052,823.379 744.716,709.594 745.38,2958.39 746.044,755.201 746.708,3340.39 747.372,498.932 748.036,918.623 748.7,2510.76 749.364,1521.56 750.028,1702.86 750.692,1138.35 751.356,1348.02 752.02,1650.22 752.684,1465.77 753.348,1026.51 754.011,752.605 754.675,2387.43 755.339,1246.8 756.003,660.79 756.667,1377.97 757.331,1310.55 757.995,1543.91 758.659,3145.34 759.323,1492.65 759.987,953.104 760.651,1532.76 761.315,934.46 761.979,318.157 762.643,635.379 763.307,2198.67 763.971,750.717 764.634,916.046 765.298,6531.11 765.962,1324.73 766.626,842.792 767.29,2062.44 767.954,1185.55 768.618,2043.96 769.282,9363.84 769.946,3700.66 770.61,1243.6 771.274,2952.56 771.938,2343.7 772.602,2007.78 773.266,2344.86 773.93,1279.96 774.594,1673.01 775.258,1216 775.921,652.827 776.585,1146.8 777.249,2340.04 777.913,3840.73 778.577,1861.96 779.241,456.681 779.905,1806.44 780.569,3287.12 781.233,4381.52 781.897,3489.37 782.561,1814.53 783.225,1509.59 783.889,537.697 784.553,2358.54 785.217,913.909 785.881,2246.02 786.544,2556.15 787.208,1602.83 787.872,1057.76 788.536,546.271 789.2,1728.39 789.864,1874.78 790.528,513.704 791.192,695.027 791.856,1205.93 792.52,1076.78 793.184,1071.32 793.848,2552.33 794.512,257.49 795.176,1198.1 795.84,753.666 796.504,828.668 797.167,2519.05 797.831,1558.72 798.495,1899.48 799.159,929.857 799.823,957.163 800.487,4589.64 801.151,5605.88 801.815,1940.68 802.479,3175.99 803.143,6174.18 803.807,3137.41 804.471,1285.59 805.135,1004.53 805.799,1060.36 806.463,18647.9 807.127,2815.04 807.791,2892.92 808.454,753.754 809.118,818.505 809.782,920.64 810.446,4019.29 811.11,993.577 811.774,1300.46 812.438,1767.44 813.102,1040.41 813.766,356.921 814.43,810.184 815.094,1296.35 815.758,3044.83 816.422,1232.37 817.086,27541.1 817.75,825.655 818.414,1128.19 819.077,1685.18 819.741,1001.86 820.405,2307.01 821.069,1762.7 821.733,382.893 822.397,1180.03 823.061,1647.42 823.725,1882.35 824.389,1227.68 825.053,694.646 825.717,1088.02 826.381,585.419 827.045,2795.68 827.709,651.36 828.373,8092.03 829.037,2129.33 829.7,1619.84 830.364,1963.14 831.028,1126.73 831.692,896.608 832.356,443.148 833.02,263.437 833.684,621.162 834.348,2219.07 835.012,522.778 835.676,681.402 836.34,1720.6 837.004,1033.59 837.668,473.19 838.332,671.647 838.996,1672.59 839.66,3209 840.324,1038.98 840.987,1467.41 841.651,1553.91 842.315,253.881 842.979,1052.32 843.643,638.435 844.307,945.909 844.971,791.12 845.635,1523.65 846.299,3498.5 846.963,2094.3 847.627,748.476 848.291,1732.22 848.955,939.703 849.619,1083.49 850.283,1420.17 850.947,680.6 851.61,1237.33 852.274,1264.48 852.938,707.308 853.602,4487.74 854.266,1356.64 854.93,794.982 855.594,924.775 856.258,1268.94 856.922,1428.6 857.586,880.755 858.25,3039.22 858.914,812.034 859.578,2595.28 860.242,3739.95 860.906,611.658 861.57,2030.46 862.233,3868.19 862.897,6541.07 863.561,99026.5 864.225,2034.3 864.889,953.43 865.553,1479.17 866.217,1902.53 866.881,1232.53 867.545,1030.03 868.209,2448.1 868.873,1871.25 869.537,1098.43 870.201,464.388 870.865,643.446 871.529,2547.57 872.193,1381.41 872.856,3695.25 873.52,827.446 874.184,1442.49 874.848,525.668 875.512,5555.42 876.176,1005.69 876.84,5245.11 877.504,1591.98 878.168,3663.02 878.832,388.069 879.496,8450.59 880.16,2962.45 880.824,1296.48 881.488,2806.6 882.152,1504.08 882.816,506.572 883.48,899.202 884.143,2925.39 884.807,897.226 885.471,1033.49 886.135,1204.13 886.799,906.027 887.463,2913.97 888.127,3326.49 888.791,9006.21 889.455,1887.84 890.119,1171.26 890.783,1971.21 891.447,1211.84 892.111,1017.12 892.775,1660.93 893.439,907.595 894.103,2376.93 894.766,1109.92 895.43,3229.54 896.094,1004.5 896.758,1417.23 897.422,2744.43 898.086,437.53 898.75,857.28 899.414,888.696 900.078,779.478 900.742,785.458 901.406,1225.29 902.07,2525.83 902.734,788.112 903.398,492.753 904.062,1555.18 904.726,1115.3 905.389,2160.07 906.053,86.198 906.717,3160.78 907.381,1842.94 908.045,1729.06 908.709,1197.54 909.373,950.179 910.037,998.867 910.701,636.238 911.365,2583.6 912.029,1187.94 912.693,1621.19 913.357,901.466 914.021,4394.18 914.685,1700.33 915.349,1206.08 916.013,1093.91 916.676,2053.75 917.34,1076.57 918.004,1189.55 918.668,628.307 919.332,2269.91 919.996,750.364 920.66,2424.51 921.324,883.508 921.988,5356.67 922.652,724.187 923.316,1757.34 923.98,725.744 924.644,582.974 925.308,1712.1 925.972,1734.99 926.636,502.48 927.299,1846.09 927.963,3985.16 928.627,2467 929.291,980.448 929.955,1203.32 930.619,1177.22 931.283,888.621 931.947,986.055 932.611,3623.59 933.275,1388.41 933.939,6167.65 934.603,18544.7 935.267,742.488 935.931,1609.03 936.595,1784.76 937.259,5603.38 937.922,1527.5 938.586,1684.83 939.25,1427.69 939.914,789.118 940.578,1600.41 941.242,958.744 941.906,1637.42 942.57,576.447 943.234,3821.34 943.898,2473.56 944.562,677.704 945.226,1223.48 945.89,8034.93 946.554,713.57 947.218,844.555 947.882,1163.54 948.546,2120.66 949.209,707.568 949.873,4013.54 950.537,7019.34 951.201,762.443 951.865,989.602 952.529,796.147 953.193,1413.52 953.857,1337.17 954.521,1572.78 955.185,1356.46 955.849,1758.36 956.513,1931.15 957.177,2874.64 957.841,1340.72 958.505,588.547 959.169,1133.87 959.832,1195.66 960.496,839.551 961.16,5187.8 961.824,3760.46 962.488,990.961 963.152,1495.48 963.816,1476.76 964.48,13337.5 965.144,1517.91 965.808,414.418 966.472,948.067 967.136,749.569 967.8,1339.94 968.464,1137.22 969.128,1305.72 969.792,2905.14 970.455,921.4 971.119,1131.18 971.783,16811.2 972.447,611.875 973.111,893.273 973.775,4930.43 974.439,4837.85 975.103,1131.37 975.767,1529.35 976.431,597.721 977.095,2095.65 977.759,1560.36 978.423,1616.65 979.087,1827.45 979.751,1394.36 980.415,1509.58 981.079,3134.07 981.742,1106.08 982.406,326.269 983.07,893.763 983.734,976.436 984.398,4784.54 985.062,3920.32 985.726,3341.58 986.39,2470.37 987.054,1007.85 987.718,217.02 988.382,1333.58 989.046,1497.86 989.71,744.211 990.374,4069.8 991.038,1780.8 991.702,1983.56 992.365,16840.9 993.029,870.986 993.693,1316.58 994.357,839.128 995.021,4184.93 995.685,937.987 996.349,2545.78 997.013,2620.54 997.677,4008.49 998.341,773.653 999.005,1724.22 999.669,1695.3 1000.33,1169.6 1001,3078.22 1001.66,866.028 1002.32,666.262 1002.99,2298.51 1003.65,1081.97 1004.32,5073.55 1004.98,891.953 1005.64,1935.59 1006.31,735.964 1006.97,348.446 1007.64,1303.39 1008.3,2144.98 1008.96,789.908 1009.63,564.679 1010.29,1729.21 1010.96,2134 1011.62,2034.44 1012.28,5333.01 1012.95,571.295 1013.61,859.414 1014.28,1582.7 1014.94,1142.45 1015.6,815.405 1016.27,1139.8 1016.93,3519.47 1017.6,1434.12 1018.26,1154.79 1018.92,1486.02 1019.59,1273.77 1020.25,638.989 1020.91,1755.45 1021.58,1237.87 1022.24,1240.6 1022.91,808.013 1023.57,5665.94 1024.23,560.719 1024.9,4562.55 1025.56,1129.34 1026.23,1839.15 1026.89,1206.41 1027.55,720.688 1028.22,1494.58 1028.88,3807.79 1029.55,16250.8 1030.21,660.37 1030.87,425.962 1031.54,772.029 1032.2,1820.88 1032.87,5173.44 1033.53,2843.79 1034.19,1994.08 1034.86,1744.6 1035.52,64537.7 1036.19,1694.99 1036.85,1227.88 1037.51,3007.75 1038.18,1718.03 1038.84,2895.92 1039.51,2719.39 1040.17,1699 1040.83,1124.08 1041.5,1104.03 1042.16,2309.86 1042.82,1050.93 1043.49,1556.08 1044.15,815.341 1044.82,1081.99 1045.48,653.288 1046.14,3692.91 1046.81,10786.3 1047.47,1315.65 1048.14,4026.65 1048.8,4463.11 1049.46,1118.7 1050.13,1501.37 1050.79,795.281 1051.46,1878.1 1052.12,1499.46 1052.78,968.729 1053.45,2081.48 1054.11,3929.41 1054.78,719.292 1055.44,3811.22 1056.1,1467.91 1056.77,890.503 1057.43,2032.75 1058.1,1123.9 1058.76,1883.74 1059.42,9699.15 1060.09,1489.48 1060.75,666.162 1061.42,965.354 1062.08,3251.93 1062.74,2509.5 1063.41,696.366 1064.07,789.66 1064.73,21180.4 1065.4,2424.56 1066.06,3010.18 1066.73,1036.08 1067.39,1904.39 1068.05,2317.19 1068.72,1205.2 1069.38,10815.3 1070.05,1396.41 1070.71,363.154 1071.37,9820.91 1072.04,556.021 1072.7,1348.54 1073.37,3570.77 1074.03,1183.34 1074.69,1893.02 1075.36,3355.34 1076.02,1722.19 1076.69,3454.76 1077.35,1603.63 1078.01,2171.98 1078.68,2669.14 1079.34,1159.93 1080.01,1064.69 1080.67,3997.56 1081.33,604.633 1082,1119.08 1082.66,1214.48 1083.33,1239.51 1083.99,4021.47 1084.65,2019.55 1085.32,1006.58 1085.98,966.511 1086.64,3471.9 1087.31,2422.27 1087.97,703.584 1088.64,1305.53 1089.3,1986.51 1089.96,1773.09 1090.63,987.747 1091.29,548.079 1091.96,1516.35 1092.62,987.569 1093.28,744.635 1093.95,730.73 1094.61,1305.31 1095.28,1063.93 1095.94,1673.37 1096.6,12327.1 1097.27,3765.8 1097.93,1607.2 1098.6,1579.83 1099.26,1471.66 1099.92,6884.38 1100.59,653.238 1101.25,921.201 1101.92,1005.19 1102.58,3424.2 1103.24,2656.72 1103.91,975.402 1104.57,788.315 1105.24,1999.15 1105.9,1523.68 1106.56,1337.07 1107.23,1904.96 1107.89,568.896 1108.55,1697.52 1109.22,732.958 1109.88,1045.44 1110.55,1496.06 1111.21,2682.66 1111.87,1837.8 1112.54,1405.2 1113.2,2116.04 1113.87,470.721 1114.53,1244.06 1115.19,2507.14 1115.86,2589.19 1116.52,1292.96 1117.19,12504.1 1117.85,1042.5 1118.51,1455.93 1119.18,765.033 1119.84,1536.44 1120.51,1167.89 1121.17,2774.36 1121.83,1295.92 1122.5,1363.27 1123.16,900.811 1123.83,1798.59 1124.49,551.023 1125.15,1633.45 1125.82,1766.29 1126.48,645.471 1127.15,2664.59 1127.81,1966.07 1128.47,1847.08 1129.14,1143.62 1129.8,958.466 1130.46,870.774 1131.13,701.191 1131.79,2270.12 1132.46,1772.15 1133.12,1370.48 1133.78,702.553 1134.45,1603.66 1135.11,1674.85 1135.78,849.682 1136.44,952.62 1137.1,966.248 1137.77,1566.94 1138.43,804.371 1139.1,1204.47 1139.76,1188.17 1140.42,2984.12 1141.09,2946.03 1141.75,1160.94 1142.42,1581.79 1143.08,3459.37 1143.74,8206.02 1144.41,1802.97 1145.07,792.365 1145.74,1108.87 1146.4,622.145 1147.06,564.796 1147.73,4996.16 1148.39,256.323 1149.05,1820.3 1149.72,3179.76 1150.38,264.836 1151.05,1699.63 1151.71,692.709 1152.37,1286.43 1153.04,538.132 1153.7,865.164 1154.37,1275.18 1155.03,1187.23 1155.69,1993.99 1156.36,2042.16 1157.02,2181.89 1157.69,827.555 1158.35,1653.75 1159.01,747.121 1159.68,1275.44 1160.34,887.225 1161.01,848.739 1161.67,1972.33 1162.33,24842.3 1163,1919.45 1163.66,1104.38 1164.33,1066.23 1164.99,1039.71 1165.65,1371.72 1166.32,2815.36 1166.98,1402.59 1167.65,831.94 1168.31,1740.07 1168.97,1143.92 1169.64,2393.17 1170.3,693.515 1170.96,866.819 1171.63,718.56 1172.29,1220.03 1172.96,2365.12 1173.62,1688.99 1174.28,1096.54 1174.95,961.234 1175.61,773.23 1176.28,1313.8 1176.94,1997.33 1177.6,504.169 1178.27,619.634 1178.93,1554.74 1179.6,18700.2 1180.26,1350.6 1180.92,1225.96 1181.59,1509.42 1182.25,2086.73 1182.92,1794.24 1183.58,1596.43 1184.24,6504.12 1184.91,1656.7 1185.57,1843.92 1186.24,1128.58 1186.9,1977.16 1187.56,2519.64 1188.23,3168.78 1188.89,781.629 1189.56,1585.13 1190.22,2355.5 1190.88,856.093 1191.55,1586.34 1192.21,5973.62 1192.87,3279.14 1193.54,2271.09 1194.2,1107.71 1194.87,1842.67 1195.53,1183.38 1196.19,780.552 1196.86,923.982 1197.52,4521.54 1198.19,900.918 1198.85,3017.98 1199.51,3100.75 1200.18,2027.4 1200.84,3760.61 1201.51,778.144 1202.17,1403.5 1202.83,773.274 1203.5,922.511 1204.16,1347.78 1204.83,4908.41 1205.49,1451.26 1206.15,1591.52 1206.82,1673.63 1207.48,648.975 1208.15,7872.51 1208.81,962.89 1209.47,3536.7 1210.14,1185.79 1210.8,1411.12 1211.47,1999.1 1212.13,13754 1212.79,1487.88 1213.46,852.7 1214.12,1074.53 1214.78,1205.25 1215.45,1940.28 1216.11,765.556 1216.78,1436.5 1217.44,985.217 1218.1,1866.05 1218.77,1118.36 1219.43,3357.68 1220.1,588.328 1220.76,1466.97 1221.42,1987.9 1222.09,2507.72 1222.75,849.44 1223.42,826.143 1224.08,672.856 1224.74,1481.1 1225.41,1999.05 1226.07,477.159 1226.74,466.127 1227.4,1544.38 1228.06,1106.61 1228.73,11343 1229.39,1111.41 1230.06,1250.79 1230.72,1549.85 1231.38,1448.28 1232.05,935.039 1232.71,464.916 1233.38,1186.8 1234.04,1225.87 1234.7,4191.36 1235.37,930.32 1236.03,1508.8 1236.69,877.38 1237.36,1980.75 1238.02,1048.81 1238.69,1179.69 1239.35,2070.13 1240.01,772.55 1240.68,1037.51 1241.34,670.875 1242.01,741.373 1242.67,1757.78 1243.33,1078.91 1244,3334.09 1244.66,841.386 1245.33,919.19 1245.99,852.284 1246.65,835.981 1247.32,1006.16 1247.98,1622.91 1248.65,2700.31 1249.31,1960.25 1249.97,574.297 1250.64,1988.65 1251.3,219.115 1251.97,1847.01 1252.63,327.272 1253.29,1202.59 1253.96,2496.05 1254.62,2053.87 1255.29,1986.83 1255.95,1348.68 1256.61,1068.73 1257.28,1309.26 1257.94,1632.99 1258.6,3505.82 1259.27,808.793 1259.93,1024.37 1260.6,4333.83 1261.26,2656.55 1261.92,1754.8 1262.59,1270.71 1263.25,20291.1 1263.92,527.604 1264.58,1276.8 1265.24,2376.31 1265.91,4101.87 1266.57,1088.67 1267.24,737.583 1267.9,5916.64 1268.56,3966.53 1269.23,4994.18 1269.89,4180.99 1270.56,2227.36 1271.22,1273.47 1271.88,762.279 1272.55,896.538 1273.21,163.11 1273.88,1714.04 1274.54,1170.16 1275.2,713.574 1275.87,959.134 1276.53,1062.4 1277.2,839.202 1277.86,1098.33 1278.52,862.845 1279.19,1242.9 1279.85,8586.85 1280.51,497.009 1281.18,1834.09 1281.84,997.77 1282.51,4590.63 1283.17,649.042 1283.83,3260.78 1284.5,1806.89 1285.16,2566.63 1285.83,998.886 1286.49,479.996 1287.15,1191.42 1287.82,1031.59 1288.48,658.029 1289.15,864.182 1289.81,756.563 1290.47,707.233 1291.14,848.146 1291.8,644.411 1292.47,994.361 1293.13,685.521 1293.79,2709.14 1294.46,6415.18 1295.12,1912.52 1295.79,1911.07 1296.45,2858.08 1297.11,1669.5 1297.78,1094.35 1298.44,1003.5 1299.11,1069.53 1299.77,2009.71 1300.43,938.98 1301.1,849.796 1301.76,819.265 1302.42,13102.5 1303.09,981.509 1303.75,637.263 1304.42,1731.87 1305.08,772.271 1305.74,2517.76 1306.41,2391.02 1307.07,834.862 1307.74,578.188 1308.4,985.798 1309.06,4036.05 1309.73,1204.86 1310.39,1252.38 1311.06,1374.85 1311.72,688.588 1312.38,831.401 1313.05,552.625 1313.71,1982.98 1314.38,1364.28 1315.04,1609.88 1315.7,1037.63 1316.37,989.35 1317.03,780.663 1317.7,1423.42 1318.36,2491 1319.02,1896.39 1319.69,916.26 1320.35,2629.4 1321.02,5627.94 1321.68,2719.3 1322.34,595.508 1323.01,978.524 1323.67,795.615 1324.33,1465.77 1325,431.879 1325.66,628.494 1326.33,1432.7 1326.99,3774.6 1327.65,1198.53 1328.32,1698.03 1328.98,651.424 1329.65,3182.02 1330.31,473.456 1330.97,1383.9 1331.64,3538.43 1332.3,2647.04 1332.97,1476.66 1333.63,845.128 1334.29,2879.71 1334.96,1501.97 1335.62,2011.65 1336.29,1677.86 1336.95,1367.45 1337.61,3417.72 1338.28,715.604 1338.94,1568.09 1339.61,9345.54 1340.27,2827.73 1340.93,1117.17 1341.6,992.05 1342.26,1101.08 1342.93,1259.64 1343.59,4403.39 1344.25,2454.37 1344.92,991.331 1345.58,1913.28 1346.24,25323.6 1346.91,643.115 1347.57,1226.27 1348.24,1598.35 1348.9,2707.91 1349.56,5468.53 1350.23,795.689 1350.89,1434.95 1351.56,1509.21 1352.22,1441.91 1352.88,822.575 1353.55,3672.28 1354.21,1326.21 1354.88,3265.7 1355.54,1726.83 1356.2,1336.79 1356.87,1292.6 1357.53,1441.04 1358.2,1777.95 1358.86,468.113 1359.52,1147.59 1360.19,257.976 1360.85,1388 1361.52,507.8 1362.18,938.529 1362.84,766.419 1363.51,931.604 1364.17,1319.72 1364.84,1984.48 1365.5,628.992 1366.16,1299.29 1366.83,1505.24 1367.49,2251.26 1368.15,1056.73 1368.82,830.643 1369.48,1302.66 1370.15,1228.38 1370.81,908.395 1371.47,2583.67 1372.14,794.413 1372.8,3900.1 1373.47,1220.99 1374.13,896.492 1374.79,2536.71 1375.46,642.574 1376.12,738.344 1376.79,873.732 1377.45,1107.82 1378.11,1034.81 1378.78,1483.42 1379.44,1749.45 1380.11,2298.88 1380.77,2279.5 1381.43,3625.3 1382.1,1323.02 1382.76,2038.62 1383.43,1574.46 1384.09,947.181 1384.75,764.53 1385.42,1434.72 1386.08,3526.63 1386.75,2184.31 1387.41,5008.97 1388.07,1167.46 1388.74,1123.69 1389.4,704.538 1390.06,943.579 1390.73,1405.45 1391.39,1335.15 1392.06,7996.97 1392.72,1397.66 1393.38,992.01 1394.05,4042.75 1394.71,648.424 1395.38,863.578 1396.04,2622.87 1396.7,1331.67 1397.37,1093.49 1398.03,3447.47 1398.7,1322.51 1399.36,655.805 1400.02,1604.5 1400.69,973.6 1401.35,639.738 1402.02,2874.75 1402.68,866.165 1403.34,1126.54 1404.01,526.045 1404.67,2114.39 1405.34,3973.2 1406,2478.27 1406.66,537.571 1407.33,6290.27 1407.99,878.401 1408.66,2013.86 1409.32,1776.66 1409.98,2414.94 1410.65,1651.54 1411.31,975.16 1411.97,941.658 1412.64,1044.01 1413.3,1075.9 1413.97,812.574 1414.63,786.925 1415.29,645.833 1415.96,1879.58 1416.62,2078.74 1417.29,341.998 1417.95,1044.17 1418.61,1192.14 1419.28,947.64 1419.94,1155.07 1420.61,636.18 1421.27,329.635 1421.93,3183.15 1422.6,1475.29 1423.26,1944.82 1423.93,859.512 1424.59,1171.15 1425.25,1561.51 1425.92,5439.97 1426.58,950.335 1427.25,1650.56 1427.91,1189.73 1428.57,1461.66 1429.24,1068.03 1429.9,1043.4 1430.56,1037.41 1431.23,5697.13 1431.89,2939.72 1432.56,432.36 1433.22,1594.62 1433.88,1026.93 1434.55,1951.86 1435.21,1052.04 1435.88,367.898 1436.54,1524.31 1437.2,983.338 1437.87,2616.67 1438.53,1125.78 1439.2,662.803 1439.86,737.576 1440.52,1084.26 1441.19,1724.32 1441.85,327.827 1442.52,1247.3 1443.18,1615.57 1443.84,884.283 1444.51,398.369 1445.17,725.186 1445.84,360.882 1446.5,1097.98 1447.16,3784.08 1447.83,988.938 1448.49,5331.12 1449.16,1024.91 1449.82,2774.06 1450.48,4490.81 1451.15,498.318 1451.81,3202.93 1452.47,1902 1453.14,452.029 1453.8,4544.83 1454.47,1482.66 1455.13,886.956 1455.79,1564.43 1456.46,7308.46 1457.12,7058.36 1457.79,893.259 1458.45,439.315 1459.11,1186.01 1459.78,16286.8 1460.44,1536.02 1461.11,610.769 1461.77,977.804 1462.43,828.852 1463.1,1605.37 1463.76,1007.15 1464.43,3533.65 1465.09,546.102 1465.75,358912 1466.42,1137.4 1467.08,790.875 1467.75,599.842 1468.41,1108.63 1469.07,452.648 1469.74,3065.3 1470.4,711.059 1471.07,1219.13 1471.73,2349.89 1472.39,655.187 1473.06,915.076 1473.72,224.727 1474.38,20890.6 1475.05,1748.1 1475.71,909.428 1476.38,1610.44 1477.04,1088.94 1477.7,596.089 1478.37,2109.88 1479.03,1192.28 1479.7,2251.15 1480.36,636.626 1481.02,801.953 1481.69,5162.48 1482.35,1481.65 1483.02,1542.59 1483.68,758.533 1484.34,2187.64 1485.01,1187.17 1485.67,911.197 1486.34,1896.42 1487,1369.3 1487.66,720.228 1488.33,850.242 1488.99,2743.51 1489.66,1457.88 1490.32,874.039 1490.98,6993.81 1491.65,1559.12 1492.31,1884.22 1492.98,1320.31 1493.64,4365 1494.3,510.119 1494.97,401.422 1495.63,533.613 1496.29,1020.4 1496.96,829.257 1497.62,1336.61 1498.29,2837.37 1498.95,1086.04 1499.61,1186.39 1500.28,641.33 1500.94,1337.55 1501.61,3733.47 1502.27,6414.75 1502.93,458.06 1503.6,993.56 1504.26,6420.13 1504.93,783.922 1505.59,900.492 1506.25,6976.61 1506.92,2492.57 1507.58,11801.2 1508.25,6350.2 1508.91,508.045 1509.57,1133.58 1510.24,3595.93 1510.9,584.511 1511.57,2762.02 1512.23,2737.36 1512.89,1350.59 1513.56,1905.1 1514.22,1481.52 1514.89,1599.3 1515.55,1245.02 1516.21,2230.75 1516.88,1512.78 1517.54,1916.84 1518.2,7122.96 1518.87,1191.24 1519.53,3552.64 1520.2,3512.62 1520.86,1044.78 1521.52,1393.39 1522.19,671.494 1522.85,2366.82 1523.52,3242.18 1524.18,2159.67 1524.84,2154.04 1525.51,983.952 1526.17,2004.78 1526.84,4953.68 1527.5,868.352 1528.16,1545.02 1528.83,834.816 1529.49,988.708 1530.16,615.614 1530.82,958.166 1531.48,2030.88 1532.15,8096.66 1532.81,875.966 1533.48,1100.48 1534.14,589.356 1534.8,2127.2 1535.47,1423.24 1536.13,969.05 1536.8,1063.41 1537.46,898.23 1538.12,988.957 1538.79,1071.4 1539.45,22869.1 1540.11,1358.17 1540.78,2977.25 1541.44,1090.28 1542.11,1290.08 1542.77,1128.67 1543.43,1769.93 1544.1,1185.47 1544.76,5924.18 1545.43,841.31 1546.09,1748.06 1546.75,1834.65 1547.42,1768.47 1548.08,199.847 1548.75,756.893 1549.41,3102.38 1550.07,1004.92 1550.74,575.069 1551.4,3264.98 1552.07,2818.14 1552.73,2014.66 1553.39,705.877 1554.06,961.403 1554.72,675.942 1555.39,286.666 1556.05,1084.73 1556.71,1285.46 1557.38,1143.04 1558.04,1215.26 1558.71,1337.99 1559.37,2707.42 1560.03,937.37 1560.7,2418.57 1561.36,1272.83 1562.02,981.548 1562.69,1444.91 1563.35,2584.89 1564.02,1074.02 1564.68,1150.9 1565.34,1419.12 1566.01,2665.64 1566.67,4248.57 1567.34,2233.89 1568,902.684 1568.66,1824.99 1569.33,2298.45 1569.99,615.401 1570.66,1197.98 1571.32,1106.34 1571.98,2334.57 1572.65,5067.43 1573.31,792.424 1573.98,456.313 1574.64,1960.83 1575.3,1220.42 1575.97,1365.57 1576.63,661.569 1577.3,4510.13 1577.96,997.475 1578.62,2195.31 1579.29,1460.72 1579.95,3474.19 1580.62,1360.72 1581.28,2356.85 1581.94,1159.28 1582.61,1051.83 1583.27,923.211 1583.93,698.684 1584.6,601.685 1585.26,3550.86 1585.93,803.286 1586.59,1174.19 1587.25,882.665 1587.92,1729.69 1588.58,3234.31 1589.25,986.773 1589.91,612.761 1590.57,729.898 1591.24,1327.21 1591.9,664.027 1592.57,649.934 1593.23,1966.03 1593.89,724.46 1594.56,2851.33 1595.22,1655.38 1595.89,1290.94 1596.55,640.562 1597.21,1444.06 1597.88,1405.86 1598.54,1626.23 1599.21,1865.18 1599.87,3312.27 1600.53,760.531 1601.2,2881.27 1601.86,1143.61 1602.53,1046.92 1603.19,728.658 1603.85,4643.17 1604.52,1030.71 1605.18,717.407 1605.84,1013.79 1606.51,2226.74 1607.17,455.788 1607.84,1324.65 1608.5,2477.11 1609.16,944.043 1609.83,1288.25 1610.49,1731.75 1611.16,2930.12 1611.82,4032.42 1612.48,1107.43 1613.15,1517.06 1613.81,751.686 1614.48,843.505 1615.14,1390.86 1615.8,1285.17 1616.47,1045.57 1617.13,646.618 1617.8,1090.54 1618.46,846.044 1619.12,1750.54 1619.79,1038.86 1620.45,1077.96 1621.12,14119.5 1621.78,1007.22 1622.44,537.23 1623.11,2031.4 1623.77,1248.36 1624.44,100108 1625.1,2209.2 1625.76,2626.09 1626.43,3087.63 1627.09,1196.81 1627.75,1447.85 1628.42,883.359 1629.08,5149.79 1629.75,3591.95 1630.41,1208.54 1631.07,844.959 1631.74,8967.5 1632.4,874.174 1633.07,698.414 1633.73,1284.66 1634.39,741.955 1635.06,1273.3 1635.72,2542.81 1636.39,2597.83 1637.05,817.506 1637.71,2555 1638.38,478.098 1639.04,1316.84 1639.71,1238.35 1640.37,939.86 1641.03,1632.81 1641.7,1199.71 1642.36,53721.9 1643.03,748.108 1643.69,944.89 1644.35,6582.46 1645.02,1019.59 1645.68,534.349 1646.35,9291.4 1647.01,662.602 1647.67,1675.37 1648.34,859.215 1649,1155.41 1649.66,481.648 1650.33,1583.04 1650.99,1139.79 1651.66,1189.44 1652.32,405.406 1652.98,917.167 1653.65,548.268 1654.31,4112.34 1654.98,1123.92 1655.64,982.054 1656.3,907.475 1656.97,7761.56 1657.63,2521.29 1658.3,749.024 1658.96,1066.65 1659.62,1619.98 1660.29,855.88 1660.95,3512.82 1661.62,790.202 1662.28,684.031 1662.94,654.245 1663.61,1550.02 1664.27,847.755 1664.94,3024.56 1665.6,4806.36 1666.26,981.291 1666.93,1867.04 1667.59,2310.42 1668.26,1486.3 1668.92,1499.87 1669.58,1531.56 1670.25,885.944 1670.91,1417.74 1671.57,2399.94 1672.24,259.928 1672.9,826.914 1673.57,1191.26 1674.23,850.588 1674.89,1406.62 1675.56,5772.47 1676.22,1031.95 1676.89,1622.56 1677.55,807.271 1678.21,538.016 1678.88,1467.24 1679.54,1050.72 1680.21,2815.47 1680.87,1477.63 1681.53,914.76 1682.2,2144.29 1682.86,3390.63 1683.53,567.969 1684.19,1165.68 1684.85,601.325 1685.52,1043.63 1686.18,4190.55 1686.85,531.508 1687.51,1560.51 1688.17,1289.33 1688.84,413.016 1689.5,1718.99 1690.17,3558.92 1690.83,753.474 1691.49,1332.45 1692.16,1420.95 1692.82,2948.33 1693.48,43888.9 1694.15,1575.7 1694.81,3126.16 1695.48,1685.53 1696.14,1618.34 1696.8,3187.2 1697.47,785.486 1698.13,1253.39 1698.8,1428.64 1699.46,1064.3 1700.12,818.328 1700.79,625.326 1701.45,2087.93 1702.12,2501.68 1702.78,5337.07 1703.44,755.727 1704.11,844.799 1704.77,957.218 1705.44,6958.05 1706.1,782.035 1706.76,1899.93 1707.43,1220.67 1708.09,2300.97 1708.76,1651.04 1709.42,856.482 1710.08,1103.15 1710.75,997.544 1711.41,1490.93 1712.07,6429.56 1712.74,1570.3 1713.4,1638.06 1714.07,588.978 1714.73,820.028 1715.39,1278.04 1716.06,1304.66 1716.72,723.504 1717.39,1239 1718.05,1482.83 1718.71,1818.57 1719.38,762.657 1720.04,1385.8 1720.71,1888 1721.37,2997.19 1722.03,2013.65 1722.7,2531.34 1723.36,1032.81 1724.03,2030.34 1724.69,1163.63 1725.35,693.006 1726.02,1060.16 1726.68,1177.65 1727.35,1493.45 1728.01,1200.97 1728.67,1648.69 1729.34,1202.47 1730,1554.2 1730.67,10500.9 1731.33,1598.34 1731.99,2233.69 1732.66,901.771 1733.32,1263.43 1733.98,970.209 1734.65,1491.35 1735.31,6362.45 1735.98,1634.01 1736.64,1168.47 1737.3,1588.26 1737.97,955.412 1738.63,800.248 1739.3,1446.76 1739.96,973.592 1740.62,575.937 1741.29,5491.27 1741.95,1011.88 1742.62,738.897 1743.28,1610.05 1743.94,1077.33 1744.61,1137.65 1745.27,1302.37 1745.94,1076.45 1746.6,778.839 1747.26,1580.34 1747.93,3870.96 1748.59,630.209 1749.26,2745.11 1749.92,5608.34 1750.58,1342.02 1751.25,1535.08 1751.91,960.853 1752.58,1207.38 1753.24,2168.54 1753.9,1231.27 1754.57,3028.34 1755.23,615.89 1755.89,2013.7 1756.56,732.711 1757.22,1120.99 1757.89,656.681 1758.55,2336.63 1759.21,1145.82 1759.88,1124.2 1760.54,3496.05 1761.21,2725.61 1761.87,629.503 1762.53,906.076 1763.2,538.066 1763.86,2147.42 1764.53,1467.86 1765.19,394.867 1765.85,888.513 1766.52,1720.99 1767.18,895.421 1767.85,1826.37 1768.51,2085.35 1769.17,1277.63 1769.84,711.442 1770.5,1124.23 1771.17,771.776 1771.83,482.462 1772.49,1638.23 1773.16,739.535 1773.82,988.879 1774.49,28199.1 1775.15,926.184 1775.81,2037.44 1776.48,2225.82 1777.14,1372.29 1777.8,1193.83 1778.47,1377.76 1779.13,1754.29 1779.8,348.536 1780.46,814.67 1781.12,684.156 1781.79,1583.94 1782.45,914.539 1783.12,2241.98 1783.78,4524.66 1784.44,1050.34 1785.11,1139.48 1785.77,1936.1 1786.44,505.671 1787.1,684.95 1787.76,1239.07 1788.43,1852.69 1789.09,342.542 1789.76,2863.16 1790.42,1164.72 1791.08,4364.38 1791.75,960.033 1792.41,1414.17 1793.08,3279.43 1793.74,1672.13 1794.4,1458.25 1795.07,739.426 1795.73,3141.88 1796.4,1491.36 1797.06,566.649 1797.72,1352.32 1798.39,1480.29 1799.05,1055.85 1799.71,806.121 1800.38,2693.41 1801.04,795.455 1801.71,959.091 1802.37,1413.89 1803.03,1032.59 1803.7,2593.44 1804.36,1116.67 1805.03,723.962 1805.69,305.023 1806.35,1182.21 1807.02,953.423 1807.68,1637.27 1808.35,2473.29 1809.01,1965.72 1809.67,1380.51 1810.34,1278.86 1811,1796.22 1811.67,635.384 1812.33,3274.44 1812.99,927.78 1813.66,2828.71 1814.32,1433.3 1814.99,5843.24 1815.65,2373.47 1816.31,1083.97 1816.98,8706.08 1817.64,1904.7 1818.31,1970.79 1818.97,617.574 1819.63,1212.01 1820.3,467.973 1820.96,2562.97 1821.62,1003 1822.29,866.629 1822.95,2270.88 1823.62,906.545 1824.28,992.365 1824.94,2488.03 1825.61,3162.21 1826.27,974.903 1826.94,823.532 1827.6,300.316 1828.26,663.278 1828.93,4079.25 1829.59,4564.21 1830.26,975.754 1830.92,1032.48 1831.58,428.845 1832.25,1358.45 1832.91,3791.7 1833.58,7569.46 1834.24,769.816 1834.9,1737.89 1835.57,1569.98 1836.23,2160.1 1836.9,992.166 1837.56,1459.02 1838.22,1006.68 1838.89,1053.99 1839.55,750.338 1840.22,619.253 1840.88,1273.67 1841.54,1398.84 1842.21,2706.67 1842.87,1365.18 1843.53,1289.05 1844.2,935.196 1844.86,658.007 1845.53,1185.53 1846.19,1078.17 1846.85,1332.94 1847.52,1460.55 1848.18,1426.78 1848.85,2365.95 1849.51,2098.74 1850.17,8394.37 1850.84,625.201 1851.5,2308.47 1852.17,530.627 1852.83,600.726 1853.49,8514.41 1854.16,833.939 1854.82,4406.68 1855.49,368.835 1856.15,2195.97 1856.81,1526.02 1857.48,1146.78 1858.14,1715.58 1858.81,1071.31 1859.47,3344.98 1860.13,854.547 1860.8,1221.62 1861.46,1022.96 1862.13,2074.59 1862.79,2069.81 1863.45,697.198 1864.12,614.792 1864.78,1788.24 1865.44,1215.15 1866.11,6390.22 1866.77,998.737 1867.44,2986.94 1868.1,1593 1868.76,1224.32 1869.43,4873.39 1870.09,4592.03 1870.76,3488.13 1871.42,1464.44 1872.08,725.446 1872.75,717.261 1873.41,1900.69 1874.08,1116.76 1874.74,416.342 1875.4,1420.81 1876.07,1852.78 1876.73,881.892 1877.4,1938.29 1878.06,1597.68 1878.72,1365.94 1879.39,1367.35 1880.05,1275.7 1880.72,1597.05 1881.38,1078.41 1882.04,827.935 1882.71,1726.88 1883.37,2026.4 1884.04,895.693 1884.7,1032.16 1885.36,1616.88 1886.03,1306.69 1886.69,807.455 1887.35,2948.19 1888.02,861.026 1888.68,5024.21 1889.35,3155.93 1890.01,1000.31 1890.67,893.427 1891.34,2141.5 1892,1540.8 1892.67,3469.78 1893.33,2218.28 1893.99,1592.97 1894.66,589.306 1895.32,757.558 1895.99,1319.8 1896.65,2530.6 1897.31,1458.48 1897.98,676.29 1898.64,2167.77 1899.31,960.315 1899.97,1059.21 1900.63,1230.52 1901.3,968.257 1901.96,2657.64 1902.63,915.738 1903.29,702.401 1903.95,567.309 1904.62,1222.83 1905.28,1549 1905.95,1866.8 1906.61,1739.06 1907.27,1307.07 1907.94,1116.76 1908.6,434.833 1909.26,867.953 1909.93,1244.57 1910.59,738.434 1911.26,1156.74 1911.92,2499.27 1912.58,3786 1913.25,627.269 1913.91,1316.7 1914.58,1246.44 1915.24,1289.57 1915.9,1299.24 1916.57,994.058 1917.23,2204.62 1917.9,1753.51 1918.56,5920.83 1919.22,942.706 1919.89,947.45 1920.55,1552.87 1921.22,1199.36 1921.88,2568.48 1922.54,1502.27 1923.21,843.309 1923.87,669.246 1924.54,911.485 1925.2,879.027 1925.86,10387.2 1926.53,1582.43 1927.19,940.742 1927.86,804.291 1928.52,888.329 1929.18,575.863 1929.85,1172.69 1930.51,2308.91 1931.17,1191.61 1931.84,1479.86 1932.5,1012.45 1933.17,750.851 1933.83,71.1905 1934.49,1573.96 1935.16,4730.16 1935.82,1257.4 1936.49,1025.06 1937.15,3460.08 1937.81,2108.31 1938.48,990.087 1939.14,2807.43 1939.81,1363.9 1940.47,1138.27 1941.13,137.301 1941.8,4600.91 1942.46,901.114 1943.13,4165.35 1943.79,963.915 1944.45,864.234 1945.12,1335.69 1945.78,14358.1 1946.45,2754.67 1947.11,1119.92 1947.77,2990.2 1948.44,2558.89 1949.1,772.551 1949.77,2724.32 1950.43,3319.89 1951.09,6779.76 1951.76,809.443 1952.42,641.709 1953.08,1209.43 1953.75,1832.73 1954.41,18554.4 1955.08,990.413 1955.74,1081.28 1956.4,3085.06 1957.07,1450.4 1957.73,1185.51 1958.4,1817.74 1959.06,969.686 1959.72,814.334 1960.39,804.344 1961.05,1504.74 1961.72,283.359 1962.38,1746.83 1963.04,871.446 1963.71,1123.83 1964.37,913.977 1965.04,454.392 1965.7,581.508 1966.36,1230.42 1967.03,734.115 1967.69,955.804 1968.36,1416.67 1969.02,1190.98 1969.68,884.169 1970.35,1425.01 1971.01,2740.71 1971.68,1009.35 1972.34,859.974 1973,2182.42 1973.67,832.759 1974.33,1068.38 1974.99,4127.25 1975.66,1852.83 1976.32,1286.22 1976.99,936.164 1977.65,2997.51 1978.31,841.811 1978.98,1062.11 1979.64,901.954 1980.31,2714.3 1980.97,2304.02 1981.63,6224.63 1982.3,1733.74 1982.96,500.222 1983.63,1222.73 1984.29,1514.83 1984.95,3591.65 1985.62,2661.11 1986.28,577.562 1986.95,4730.51 1987.61,4256.48 1988.27,1807.14 1988.94,1039.61 1989.6,546.697 1990.27,1226.79 1990.93,740.006 1991.59,11675.6 1992.26,1183.38 1992.92,890.972 1993.58,563.979 1994.25,2875.56 1994.91,794.451 1995.58,923.641 1996.24,1214.79 1996.9,727.077 1997.57,1512.61 1998.23,1056.47 1998.9,2201.07 1999.56,1227.04 2000.22,658.081 2000.89,1017.64 2001.55,853.104 2002.22,2019.36 2002.88,842.768 2003.54,902.098 2004.21,1198.73 2004.87,930.072 2005.54,1035.05 2006.2,1722.52 2006.86,1075.1 2007.53,1466.59 2008.19,1551.36 2008.86,1209.64 2009.52,636.144 2010.18,1219.46 2010.85,579.868 2011.51,510.132 2012.18,1628.23 2012.84,847.382 2013.5,1915.16 2014.17,12092.3 2014.83,1399.14 2015.49,813.25 2016.16,480.519 2016.82,906.89 2017.49,770.997 2018.15,2958.76 2018.81,963.481 2019.48,833.647 2020.14,1214.96 2020.81,1201.42 2021.47,1832.64 2022.13,380.26 2022.8,2540.63 2023.46,961.694 2024.13,679.599 2024.79,906.422 2025.45,924.921 2026.12,1396.07 2026.78,800.382 2027.45,2156.99 2028.11,2893.77 2028.77,235.879 2029.44,1002.44 2030.1,938.147 2030.77,1734.52 2031.43,875.147 2032.09,869.759 2032.76,3291.1 2033.42,1604.52 2034.09,929.196 2034.75,987.296 2035.41,905.74 2036.08,698.829 2036.74,1129.74 2037.4,753.835 2038.07,1317.62 2038.73,508.564 2039.4,1451.85 2040.06,951.653 2040.72,519.892 2041.39,3133.02 2042.05,2288.79 2042.72,1455.08 2043.38,1034.39 2044.04,907.27 2044.71,1811.66 2045.37,963.68 2046.04,348.204 2046.7,2707.73 2047.36,1607.25 2048.03,4362.61 2048.69,2034.81 2049.36,2882.45 2050.02,2821.02 2050.68,1026.1 2051.35,1233.84 2052.01,772.701 2052.68,1399.53 2053.34,1065.18 2054,1917.5 2054.67,717.82 2055.33,827.236 2056,1065.94 2056.66,1067.61 2057.32,767.45 2057.99,593.657 2058.65,789.959 2059.31,1534.94 2059.98,1231.58 2060.64,2079.94 2061.31,3743.08 2061.97,1069.51 2062.63,1040.73 2063.3,906.815 2063.96,1852.4 2064.63,416.101 2065.29,1263.76 2065.95,1280.46 2066.62,1779.4 2067.28,971.87 2067.95,954.936 2068.61,786.848 2069.27,1979.7 2069.94,414.147 2070.6,1762.97 2071.27,1941.02 2071.93,2555.36 2072.59,1120.82 2073.26,1152.4 2073.92,1253.29 2074.59,1159.34 2075.25,850.767 2075.91,6430.99 2076.58,1835.23 2077.24,2245.25 2077.91,3784.18 2078.57,1012.5 2079.23,934.908 2079.9,2916.4 2080.56,1210.2 2081.22,1144.04 2081.89,1435.13 2082.55,1016.09 2083.22,2141.91 2083.88,1686.11 2084.54,592.482 2085.21,568.987 2085.87,407.655 2086.54,681.058 2087.2,954.9 2087.86,653.003 2088.53,837.585 2089.19,933.377 2089.86,360.059 2090.52,3138.55 2091.18,729.748 2091.85,1743.25 2092.51,3073.63 2093.18,797.069 2093.84,488.781 2094.5,2853.44 2095.17,1389.91 2095.83,838.073 2096.5,830.867 2097.16,1131.77 2097.82,519.842 2098.49,988.054 2099.15,720.853 2099.82,1031.6 2100.48,5122.87 2101.14,8371.65 2101.81,356.928 2102.47,1011.81 2103.13,2226.16 2103.8,2162.76 2104.46,6014.92 2105.13,883.927 2105.79,821.308 2106.45,2110.99 2107.12,1225.07 2107.78,1182.96 2108.45,1163.48 2109.11,986.822 2109.77,999.785 2110.44,1087.16 2111.1,1389.42 2111.77,875.703 2112.43,1364.36 2113.09,2445.13 2113.76,1003.14 2114.42,4403.83 2115.09,1517.36 2115.75,1759.59 2116.41,1906.59 2117.08,1129.89 2117.74,1430.87 2118.41,741.858 2119.07,1542.66 2119.73,1665.97 2120.4,1204.84 2121.06,2054.44 2121.73,1147.79 2122.39,1187.84 2123.05,1143 2123.72,853.526 2124.38,872.442 2125.04,1380.67 2125.71,996.225 2126.37,1265.47 2127.04,635.572 2127.7,615.921 2128.36,1894.56 2129.03,1332 2129.69,887.276 2130.36,1343.21 2131.02,2600.74 2131.68,1385.64 2132.35,685.18 2133.01,974.686 2133.68,1456.08 2134.34,1158.37 2135,808.789 2135.67,1230.73 2136.33,1136.54 2137,1278.31 2137.66,1574.47 2138.32,572.069 2138.99,2447.45 2139.65,7193.41 2140.32,2826.24 2140.98,1104.58 2141.64,678.832 2142.31,817.356 2142.97,1395.7 2143.64,1178.83 2144.3,2646.61 2144.96,18015.4 2145.63,4120.91 2146.29,853.87 2146.95,962.776 2147.62,821.535 2148.28,903.237 2148.95,1168.23 2149.61,1065.79 2150.27,4410.88 2150.94,751.689 2151.6,944.395 2152.27,568.523 2152.93,1208.35 2153.59,1773.88 2154.26,965.164 2154.92,518.473 2155.59,1086.74 2156.25,1021.51 2156.91,1854.94 2157.58,1251.45 2158.24,3436.44 2158.91,2354.99 2159.57,1167.98 2160.23,1022.57 2160.9,635.054 2161.56,6467.13 2162.23,725.344 2162.89,872.409 2163.55,368.872 2164.22,432.092 2164.88,1071.9 2165.55,822.503 2166.21,578.765 2166.87,2000.04 2167.54,3338.91 2168.2,1036.14 2168.86,1692.71 2169.53,602.286 2170.19,1231.21 2170.86,2280.33 2171.52,111024 2172.18,1086.1 2172.85,1489.74 2173.51,1053.73 2174.18,717.179 2174.84,983.976 2175.5,4849.28 2176.17,2346.88 2176.83,3359.04 2177.5,1602.94 2178.16,1595.02 2178.82,873.739 2179.49,854.291 2180.15,551.403 2180.82,859.035 2181.48,860.481 2182.14,910.322 2182.81,1701.47 2183.47,1986.3 2184.14,2712.73 2184.8,1642.84 2185.46,4717.86 2186.13,1708.37 2186.79,629.152 2187.46,1260.02 2188.12,1561.94 2188.78,1288 2189.45,1483.94 2190.11,1129.83 2190.77,1112.46 2191.44,779.459 2192.1,612.375 2192.77,454.418 2193.43,2400.58 2194.09,866.38 2194.76,3069.21 2195.42,902.762 2196.09,1345.88 2196.75,1322.72 2197.41,1149.95 2198.08,562.704 2198.74,425.386 2199.41,4671.64 2200.07,445.145 2200.73,1172.75 2201.4,2895.18 2202.06,977.528 2202.73,846.334 2203.39,1271.05 2204.05,743.656 2204.72,958.139 2205.38,1130.15 2206.05,880.032 2206.71,800.949 2207.37,740.244 2208.04,786.199 2208.7,1662.86 2209.37,1053.95 2210.03,1095.41 2210.69,1075.66 2211.36,1769.36 2212.02,1421.18 2212.68,960.17 2213.35,781.078 2214.01,2424.17 2214.68,2657.37 2215.34,1179.21 2216,896.021 2216.67,2009.51 2217.33,386.378 2218,1657.92 2218.66,731.88 2219.32,2385.56 2219.99,5126.19 2220.65,647.417 2221.32,926.939 2221.98,1434.64 2222.64,3134.83 2223.31,785.747 2223.97,465.311 2224.64,914.494 2225.3,431.358 2225.96,1417.75 2226.63,701.745 2227.29,1715.5 2227.96,3490.46 2228.62,1047.08 2229.28,1206.57 2229.95,1934.55 2230.61,1856.89 2231.28,1574.25 2231.94,3182.89 2232.6,1619.05 2233.27,1741.04 2233.93,1794.47 2234.59,1521.38 2235.26,886.866 2235.92,1050.39 2236.59,1039.67 2237.25,2552.19 2237.91,549.066 2238.58,1456.19 2239.24,2664.79 2239.91,2767.01 2240.57,855.81 2241.23,2885.98 2241.9,2307.6 2242.56,927.792 2243.23,1087.16 2243.89,556.758 2244.55,902.282 2245.22,4598.81 2245.88,280.971 2246.55,1597.43 2247.21,854.669 2247.87,1176.08 2248.54,568.299 2249.2,1980.11 2249.87,1430.6 2250.53,938.184 2251.19,1310.51 2251.86,749.318 2252.52,1053.91 2253.19,3796.61 2253.85,3860.16 2254.51,2495.19 2255.18,1548.65 2255.84,669.364 2256.5,941.81 2257.17,810.643 2257.83,2302.9 2258.5,1219.58 2259.16,971.332 2259.82,7729.78 2260.49,759.65 2261.15,3324.77 2261.82,1249.44 2262.48,1568.7 2263.14,868.001 2263.81,1804.6 2264.47,2233.96 2265.14,1450.37 2265.8,1207.94 2266.46,3764.21 2267.13,2075.84 2267.79,546.151 2268.46,135650 2269.12,1367.04 2269.78,1541.3 2270.45,594.418 2271.11,1319.35 2271.78,1471.18 2272.44,1278.62 2273.1,1687.69 2273.77,1708 2274.43,931.784 2275.09,1759.7 2275.76,439.166 2276.42,984.333 2277.09,1527.13 2277.75,6908.7 2278.41,2150.65 2279.08,748.722 2279.74,1832.34 2280.41,581.96 2281.07,2363.6 2281.73,1043.36 2282.4,739.512 2283.06,1553.95 2283.73,1123.98 2284.39,632.491 2285.05,625.056 2285.72,2407.11 2286.38,993.071 2287.05,1070.41 2287.71,1071.21 2288.37,976.262 2289.04,3924.29 2289.7,711.223 2290.37,15126.4 2291.03,7997.2 2291.69,2278.12 2292.36,1119.24 2293.02,738.875 "/>
<path clip-path="url(#clip850)" d="M312.489 196.789 L575.981 196.789 L575.981 93.1086 L312.489 93.1086  Z" fill="#ffffff" fill-rule="evenodd" fill-opacity="1"/>
<polyline clip-path="url(#clip850)" style="stroke:#000000; stroke-linecap:round; stroke-linejoin:round; stroke-width:4; stroke-opacity:1; fill:none" points="312.489,196.789 575.981,196.789 575.981,93.1086 312.489,93.1086 312.489,196.789 "/>
<polyline clip-path="url(#clip850)" style="stroke:#009af9; stroke-linecap:round; stroke-linejoin:round; stroke-width:4; stroke-opacity:1; fill:none" points="335.94,144.949 476.648,144.949 "/>
<path clip-path="url(#clip850)" d="M513.942 164.636 Q512.136 169.266 510.424 170.678 Q508.711 172.09 505.84 172.09 L502.437 172.09 L502.437 168.525 L504.937 168.525 Q506.697 168.525 507.669 167.692 Q508.641 166.858 509.822 163.756 L510.586 161.812 L500.099 136.303 L504.613 136.303 L512.715 156.581 L520.817 136.303 L525.331 136.303 L513.942 164.636 Z" fill="#000000" fill-rule="nonzero" fill-opacity="1" /><path clip-path="url(#clip850)" d="M532.622 158.293 L540.261 158.293 L540.261 131.928 L531.951 133.595 L531.951 129.335 L540.215 127.669 L544.891 127.669 L544.891 158.293 L552.53 158.293 L552.53 162.229 L532.622 162.229 L532.622 158.293 Z" fill="#000000" fill-rule="nonzero" fill-opacity="1" /></svg>
