<?xml version="1.0" encoding="utf-8"?>
<svg xmlns="http://www.w3.org/2000/svg" xmlns:xlink="http://www.w3.org/1999/xlink" width="600" height="400" viewBox="0 0 2400 1600">
<defs>
  <clipPath id="clip900">
    <rect x="0" y="0" width="2400" height="1600"/>
  </clipPath>
</defs>
<path clip-path="url(#clip900)" d="M0 1600 L2400 1600 L2400 0 L0 0  Z" fill="#ffffff" fill-rule="evenodd" fill-opacity="1"/>
<defs>
  <clipPath id="clip901">
    <rect x="480" y="0" width="1681" height="1600"/>
  </clipPath>
</defs>
<path clip-path="url(#clip900)" d="M242.135 1423.18 L2352.76 1423.18 L2352.76 47.2441 L242.135 47.2441  Z" fill="#ffffff" fill-rule="evenodd" fill-opacity="1"/>
<defs>
  <clipPath id="clip902">
    <rect x="242" y="47" width="2112" height="1377"/>
  </clipPath>
</defs>
<polyline clip-path="url(#clip902)" style="stroke:#000000; stroke-linecap:round; stroke-linejoin:round; stroke-width:2; stroke-opacity:0.1; fill:none" points="301.205,1423.18 301.205,47.2441 "/>
<polyline clip-path="url(#clip902)" style="stroke:#000000; stroke-linecap:round; stroke-linejoin:round; stroke-width:2; stroke-opacity:0.1; fill:none" points="965.144,1423.18 965.144,47.2441 "/>
<polyline clip-path="url(#clip902)" style="stroke:#000000; stroke-linecap:round; stroke-linejoin:round; stroke-width:2; stroke-opacity:0.1; fill:none" points="1629.08,1423.18 1629.08,47.2441 "/>
<polyline clip-path="url(#clip902)" style="stroke:#000000; stroke-linecap:round; stroke-linejoin:round; stroke-width:2; stroke-opacity:0.1; fill:none" points="2293.02,1423.18 2293.02,47.2441 "/>
<polyline clip-path="url(#clip902)" style="stroke:#000000; stroke-linecap:round; stroke-linejoin:round; stroke-width:2; stroke-opacity:0.1; fill:none" points="242.135,1423.18 2352.76,1423.18 "/>
<polyline clip-path="url(#clip902)" style="stroke:#000000; stroke-linecap:round; stroke-linejoin:round; stroke-width:2; stroke-opacity:0.1; fill:none" points="242.135,1044.65 2352.76,1044.65 "/>
<polyline clip-path="url(#clip902)" style="stroke:#000000; stroke-linecap:round; stroke-linejoin:round; stroke-width:2; stroke-opacity:0.1; fill:none" points="242.135,666.124 2352.76,666.124 "/>
<polyline clip-path="url(#clip902)" style="stroke:#000000; stroke-linecap:round; stroke-linejoin:round; stroke-width:2; stroke-opacity:0.1; fill:none" points="242.135,287.595 2352.76,287.595 "/>
<polyline clip-path="url(#clip900)" style="stroke:#000000; stroke-linecap:round; stroke-linejoin:round; stroke-width:4; stroke-opacity:1; fill:none" points="242.135,1423.18 2352.76,1423.18 "/>
<polyline clip-path="url(#clip900)" style="stroke:#000000; stroke-linecap:round; stroke-linejoin:round; stroke-width:4; stroke-opacity:1; fill:none" points="301.205,1423.18 301.205,1404.28 "/>
<polyline clip-path="url(#clip900)" style="stroke:#000000; stroke-linecap:round; stroke-linejoin:round; stroke-width:4; stroke-opacity:1; fill:none" points="965.144,1423.18 965.144,1404.28 "/>
<polyline clip-path="url(#clip900)" style="stroke:#000000; stroke-linecap:round; stroke-linejoin:round; stroke-width:4; stroke-opacity:1; fill:none" points="1629.08,1423.18 1629.08,1404.28 "/>
<polyline clip-path="url(#clip900)" style="stroke:#000000; stroke-linecap:round; stroke-linejoin:round; stroke-width:4; stroke-opacity:1; fill:none" points="2293.02,1423.18 2293.02,1404.28 "/>
<path clip-path="url(#clip900)" d="M301.205 1454.1 Q297.594 1454.1 295.766 1457.66 Q293.96 1461.2 293.96 1468.33 Q293.96 1475.44 295.766 1479.01 Q297.594 1482.55 301.205 1482.55 Q304.84 1482.55 306.645 1479.01 Q308.474 1475.44 308.474 1468.33 Q308.474 1461.2 306.645 1457.66 Q304.84 1454.1 301.205 1454.1 M301.205 1450.39 Q307.015 1450.39 310.071 1455 Q313.15 1459.58 313.15 1468.33 Q313.15 1477.06 310.071 1481.67 Q307.015 1486.25 301.205 1486.25 Q295.395 1486.25 292.316 1481.67 Q289.261 1477.06 289.261 1468.33 Q289.261 1459.58 292.316 1455 Q295.395 1450.39 301.205 1450.39 Z" fill="#000000" fill-rule="nonzero" fill-opacity="1" /><path clip-path="url(#clip900)" d="M909.67 1481.64 L917.309 1481.64 L917.309 1455.28 L908.998 1456.95 L908.998 1452.69 L917.262 1451.02 L921.938 1451.02 L921.938 1481.64 L929.577 1481.64 L929.577 1485.58 L909.67 1485.58 L909.67 1481.64 Z" fill="#000000" fill-rule="nonzero" fill-opacity="1" /><path clip-path="url(#clip900)" d="M949.021 1454.1 Q945.41 1454.1 943.582 1457.66 Q941.776 1461.2 941.776 1468.33 Q941.776 1475.44 943.582 1479.01 Q945.41 1482.55 949.021 1482.55 Q952.656 1482.55 954.461 1479.01 Q956.29 1475.44 956.29 1468.33 Q956.29 1461.2 954.461 1457.66 Q952.656 1454.1 949.021 1454.1 M949.021 1450.39 Q954.832 1450.39 957.887 1455 Q960.966 1459.58 960.966 1468.33 Q960.966 1477.06 957.887 1481.67 Q954.832 1486.25 949.021 1486.25 Q943.211 1486.25 940.133 1481.67 Q937.077 1477.06 937.077 1468.33 Q937.077 1459.58 940.133 1455 Q943.211 1450.39 949.021 1450.39 Z" fill="#000000" fill-rule="nonzero" fill-opacity="1" /><path clip-path="url(#clip900)" d="M979.183 1454.1 Q975.572 1454.1 973.743 1457.66 Q971.938 1461.2 971.938 1468.33 Q971.938 1475.44 973.743 1479.01 Q975.572 1482.55 979.183 1482.55 Q982.817 1482.55 984.623 1479.01 Q986.452 1475.44 986.452 1468.33 Q986.452 1461.2 984.623 1457.66 Q982.817 1454.1 979.183 1454.1 M979.183 1450.39 Q984.993 1450.39 988.049 1455 Q991.128 1459.58 991.128 1468.33 Q991.128 1477.06 988.049 1481.67 Q984.993 1486.25 979.183 1486.25 Q973.373 1486.25 970.294 1481.67 Q967.239 1477.06 967.239 1468.33 Q967.239 1459.58 970.294 1455 Q973.373 1450.39 979.183 1450.39 Z" fill="#000000" fill-rule="nonzero" fill-opacity="1" /><path clip-path="url(#clip900)" d="M1009.35 1454.1 Q1005.73 1454.1 1003.91 1457.66 Q1002.1 1461.2 1002.1 1468.33 Q1002.1 1475.44 1003.91 1479.01 Q1005.73 1482.55 1009.35 1482.55 Q1012.98 1482.55 1014.78 1479.01 Q1016.61 1475.44 1016.61 1468.33 Q1016.61 1461.2 1014.78 1457.66 Q1012.98 1454.1 1009.35 1454.1 M1009.35 1450.39 Q1015.16 1450.39 1018.21 1455 Q1021.29 1459.58 1021.29 1468.33 Q1021.29 1477.06 1018.21 1481.67 Q1015.16 1486.25 1009.35 1486.25 Q1003.53 1486.25 1000.46 1481.67 Q997.401 1477.06 997.401 1468.33 Q997.401 1459.58 1000.46 1455 Q1003.53 1450.39 1009.35 1450.39 Z" fill="#000000" fill-rule="nonzero" fill-opacity="1" /><path clip-path="url(#clip900)" d="M1577.69 1481.64 L1594.01 1481.64 L1594.01 1485.58 L1572.07 1485.58 L1572.07 1481.64 Q1574.73 1478.89 1579.31 1474.26 Q1583.92 1469.61 1585.1 1468.27 Q1587.35 1465.74 1588.23 1464.01 Q1589.13 1462.25 1589.13 1460.56 Q1589.13 1457.8 1587.18 1456.07 Q1585.26 1454.33 1582.16 1454.33 Q1579.96 1454.33 1577.51 1455.09 Q1575.08 1455.86 1572.3 1457.41 L1572.3 1452.69 Q1575.12 1451.55 1577.58 1450.97 Q1580.03 1450.39 1582.07 1450.39 Q1587.44 1450.39 1590.63 1453.08 Q1593.83 1455.77 1593.83 1460.26 Q1593.83 1462.39 1593.02 1464.31 Q1592.23 1466.2 1590.12 1468.8 Q1589.55 1469.47 1586.44 1472.69 Q1583.34 1475.88 1577.69 1481.64 Z" fill="#000000" fill-rule="nonzero" fill-opacity="1" /><path clip-path="url(#clip900)" d="M1613.83 1454.1 Q1610.22 1454.1 1608.39 1457.66 Q1606.58 1461.2 1606.58 1468.33 Q1606.58 1475.44 1608.39 1479.01 Q1610.22 1482.55 1613.83 1482.55 Q1617.46 1482.55 1619.27 1479.01 Q1621.1 1475.44 1621.1 1468.33 Q1621.1 1461.2 1619.27 1457.66 Q1617.46 1454.1 1613.83 1454.1 M1613.83 1450.39 Q1619.64 1450.39 1622.69 1455 Q1625.77 1459.58 1625.77 1468.33 Q1625.77 1477.06 1622.69 1481.67 Q1619.64 1486.25 1613.83 1486.25 Q1608.02 1486.25 1604.94 1481.67 Q1601.88 1477.06 1601.88 1468.33 Q1601.88 1459.58 1604.94 1455 Q1608.02 1450.39 1613.83 1450.39 Z" fill="#000000" fill-rule="nonzero" fill-opacity="1" /><path clip-path="url(#clip900)" d="M1643.99 1454.1 Q1640.38 1454.1 1638.55 1457.66 Q1636.74 1461.2 1636.74 1468.33 Q1636.74 1475.44 1638.55 1479.01 Q1640.38 1482.55 1643.99 1482.55 Q1647.62 1482.55 1649.43 1479.01 Q1651.26 1475.44 1651.26 1468.33 Q1651.26 1461.2 1649.43 1457.66 Q1647.62 1454.1 1643.99 1454.1 M1643.99 1450.39 Q1649.8 1450.39 1652.86 1455 Q1655.93 1459.58 1655.93 1468.33 Q1655.93 1477.06 1652.86 1481.67 Q1649.8 1486.25 1643.99 1486.25 Q1638.18 1486.25 1635.1 1481.67 Q1632.05 1477.06 1632.05 1468.33 Q1632.05 1459.58 1635.1 1455 Q1638.18 1450.39 1643.99 1450.39 Z" fill="#000000" fill-rule="nonzero" fill-opacity="1" /><path clip-path="url(#clip900)" d="M1674.15 1454.1 Q1670.54 1454.1 1668.71 1457.66 Q1666.91 1461.2 1666.91 1468.33 Q1666.91 1475.44 1668.71 1479.01 Q1670.54 1482.55 1674.15 1482.55 Q1677.79 1482.55 1679.59 1479.01 Q1681.42 1475.44 1681.42 1468.33 Q1681.42 1461.2 1679.59 1457.66 Q1677.79 1454.1 1674.15 1454.1 M1674.15 1450.39 Q1679.96 1450.39 1683.02 1455 Q1686.1 1459.58 1686.1 1468.33 Q1686.1 1477.06 1683.02 1481.67 Q1679.96 1486.25 1674.15 1486.25 Q1668.34 1486.25 1665.26 1481.67 Q1662.21 1477.06 1662.21 1468.33 Q1662.21 1459.58 1665.26 1455 Q1668.34 1450.39 1674.15 1450.39 Z" fill="#000000" fill-rule="nonzero" fill-opacity="1" /><path clip-path="url(#clip900)" d="M2251.7 1466.95 Q2255.06 1467.66 2256.93 1469.93 Q2258.83 1472.2 2258.83 1475.53 Q2258.83 1480.65 2255.31 1483.45 Q2251.79 1486.25 2245.31 1486.25 Q2243.14 1486.25 2240.82 1485.81 Q2238.53 1485.39 2236.08 1484.54 L2236.08 1480.02 Q2238.02 1481.16 2240.34 1481.74 Q2242.65 1482.32 2245.17 1482.32 Q2249.57 1482.32 2251.86 1480.58 Q2254.18 1478.84 2254.18 1475.53 Q2254.18 1472.48 2252.03 1470.77 Q2249.9 1469.03 2246.08 1469.03 L2242.05 1469.03 L2242.05 1465.19 L2246.26 1465.19 Q2249.71 1465.19 2251.54 1463.82 Q2253.37 1462.43 2253.37 1459.84 Q2253.37 1457.18 2251.47 1455.77 Q2249.6 1454.33 2246.08 1454.33 Q2244.16 1454.33 2241.96 1454.75 Q2239.76 1455.16 2237.12 1456.04 L2237.12 1451.88 Q2239.78 1451.14 2242.1 1450.77 Q2244.43 1450.39 2246.49 1450.39 Q2251.82 1450.39 2254.92 1452.83 Q2258.02 1455.23 2258.02 1459.35 Q2258.02 1462.22 2256.38 1464.21 Q2254.73 1466.18 2251.7 1466.95 Z" fill="#000000" fill-rule="nonzero" fill-opacity="1" /><path clip-path="url(#clip900)" d="M2277.7 1454.1 Q2274.09 1454.1 2272.26 1457.66 Q2270.45 1461.2 2270.45 1468.33 Q2270.45 1475.44 2272.26 1479.01 Q2274.09 1482.55 2277.7 1482.55 Q2281.33 1482.55 2283.14 1479.01 Q2284.97 1475.44 2284.97 1468.33 Q2284.97 1461.2 2283.14 1457.66 Q2281.33 1454.1 2277.7 1454.1 M2277.7 1450.39 Q2283.51 1450.39 2286.56 1455 Q2289.64 1459.58 2289.64 1468.33 Q2289.64 1477.06 2286.56 1481.67 Q2283.51 1486.25 2277.7 1486.25 Q2271.89 1486.25 2268.81 1481.67 Q2265.75 1477.06 2265.75 1468.33 Q2265.75 1459.58 2268.81 1455 Q2271.89 1450.39 2277.7 1450.39 Z" fill="#000000" fill-rule="nonzero" fill-opacity="1" /><path clip-path="url(#clip900)" d="M2307.86 1454.1 Q2304.25 1454.1 2302.42 1457.66 Q2300.61 1461.2 2300.61 1468.33 Q2300.61 1475.44 2302.42 1479.01 Q2304.25 1482.55 2307.86 1482.55 Q2311.49 1482.55 2313.3 1479.01 Q2315.13 1475.44 2315.13 1468.33 Q2315.13 1461.2 2313.3 1457.66 Q2311.49 1454.1 2307.86 1454.1 M2307.86 1450.39 Q2313.67 1450.39 2316.72 1455 Q2319.8 1459.58 2319.8 1468.33 Q2319.8 1477.06 2316.72 1481.67 Q2313.67 1486.25 2307.86 1486.25 Q2302.05 1486.25 2298.97 1481.67 Q2295.91 1477.06 2295.91 1468.33 Q2295.91 1459.58 2298.97 1455 Q2302.05 1450.39 2307.86 1450.39 Z" fill="#000000" fill-rule="nonzero" fill-opacity="1" /><path clip-path="url(#clip900)" d="M2338.02 1454.1 Q2334.41 1454.1 2332.58 1457.66 Q2330.78 1461.2 2330.78 1468.33 Q2330.78 1475.44 2332.58 1479.01 Q2334.41 1482.55 2338.02 1482.55 Q2341.66 1482.55 2343.46 1479.01 Q2345.29 1475.44 2345.29 1468.33 Q2345.29 1461.2 2343.46 1457.66 Q2341.66 1454.1 2338.02 1454.1 M2338.02 1450.39 Q2343.83 1450.39 2346.89 1455 Q2349.97 1459.58 2349.97 1468.33 Q2349.97 1477.06 2346.89 1481.67 Q2343.83 1486.25 2338.02 1486.25 Q2332.21 1486.25 2329.13 1481.67 Q2326.08 1477.06 2326.08 1468.33 Q2326.08 1459.58 2329.13 1455 Q2332.21 1450.39 2338.02 1450.39 Z" fill="#000000" fill-rule="nonzero" fill-opacity="1" /><path clip-path="url(#clip900)" d="M1165.17 1520.52 L1171.6 1520.52 L1171.6 1568.04 L1165.17 1568.04 L1165.17 1520.52 Z" fill="#000000" fill-rule="nonzero" fill-opacity="1" /><path clip-path="url(#clip900)" d="M1189.93 1522.27 L1189.93 1532.4 L1201.99 1532.4 L1201.99 1536.95 L1189.93 1536.95 L1189.93 1556.3 Q1189.93 1560.66 1191.11 1561.9 Q1192.32 1563.14 1195.98 1563.14 L1201.99 1563.14 L1201.99 1568.04 L1195.98 1568.04 Q1189.2 1568.04 1186.62 1565.53 Q1184.04 1562.98 1184.04 1556.3 L1184.04 1536.95 L1179.74 1536.95 L1179.74 1532.4 L1184.04 1532.4 L1184.04 1522.27 L1189.93 1522.27 Z" fill="#000000" fill-rule="nonzero" fill-opacity="1" /><path clip-path="url(#clip900)" d="M1240.19 1548.76 L1240.19 1551.62 L1213.26 1551.62 Q1213.64 1557.67 1216.89 1560.85 Q1220.17 1564 1225.99 1564 Q1229.36 1564 1232.52 1563.17 Q1235.7 1562.35 1238.82 1560.69 L1238.82 1566.23 Q1235.67 1567.57 1232.36 1568.27 Q1229.05 1568.97 1225.64 1568.97 Q1217.11 1568.97 1212.11 1564 Q1207.15 1559.04 1207.15 1550.57 Q1207.15 1541.82 1211.86 1536.69 Q1216.6 1531.54 1224.62 1531.54 Q1231.81 1531.54 1235.98 1536.18 Q1240.19 1540.8 1240.19 1548.76 M1234.33 1547.04 Q1234.27 1542.23 1231.62 1539.37 Q1229.01 1536.5 1224.69 1536.5 Q1219.78 1536.5 1216.82 1539.27 Q1213.9 1542.04 1213.45 1547.07 L1234.33 1547.04 Z" fill="#000000" fill-rule="nonzero" fill-opacity="1" /><path clip-path="url(#clip900)" d="M1270.45 1537.87 Q1269.47 1537.3 1268.29 1537.04 Q1267.14 1536.76 1265.74 1536.76 Q1260.78 1536.76 1258.11 1540 Q1255.46 1543.22 1255.46 1549.27 L1255.46 1568.04 L1249.58 1568.04 L1249.58 1532.4 L1255.46 1532.4 L1255.46 1537.93 Q1257.31 1534.69 1260.27 1533.13 Q1263.23 1531.54 1267.46 1531.54 Q1268.07 1531.54 1268.8 1531.63 Q1269.53 1531.7 1270.42 1531.85 L1270.45 1537.87 Z" fill="#000000" fill-rule="nonzero" fill-opacity="1" /><path clip-path="url(#clip900)" d="M1292.8 1550.12 Q1285.7 1550.12 1282.96 1551.75 Q1280.23 1553.37 1280.23 1557.29 Q1280.23 1560.4 1282.26 1562.25 Q1284.33 1564.07 1287.86 1564.07 Q1292.73 1564.07 1295.66 1560.63 Q1298.62 1557.16 1298.62 1551.43 L1298.62 1550.12 L1292.8 1550.12 M1304.48 1547.71 L1304.48 1568.04 L1298.62 1568.04 L1298.62 1562.63 Q1296.62 1565.88 1293.63 1567.44 Q1290.63 1568.97 1286.31 1568.97 Q1280.83 1568.97 1277.58 1565.91 Q1274.37 1562.82 1274.37 1557.67 Q1274.37 1551.65 1278.38 1548.6 Q1282.42 1545.54 1290.41 1545.54 L1298.62 1545.54 L1298.62 1544.97 Q1298.62 1540.93 1295.95 1538.73 Q1293.31 1536.5 1288.5 1536.5 Q1285.45 1536.5 1282.55 1537.23 Q1279.65 1537.97 1276.98 1539.43 L1276.98 1534.02 Q1280.19 1532.78 1283.22 1532.17 Q1286.24 1531.54 1289.11 1531.54 Q1296.84 1531.54 1300.66 1535.55 Q1304.48 1539.56 1304.48 1547.71 Z" fill="#000000" fill-rule="nonzero" fill-opacity="1" /><path clip-path="url(#clip900)" d="M1322.34 1522.27 L1322.34 1532.4 L1334.4 1532.4 L1334.4 1536.95 L1322.34 1536.95 L1322.34 1556.3 Q1322.34 1560.66 1323.51 1561.9 Q1324.72 1563.14 1328.38 1563.14 L1334.4 1563.14 L1334.4 1568.04 L1328.38 1568.04 Q1321.6 1568.04 1319.03 1565.53 Q1316.45 1562.98 1316.45 1556.3 L1316.45 1536.95 L1312.15 1536.95 L1312.15 1532.4 L1316.45 1532.4 L1316.45 1522.27 L1322.34 1522.27 Z" fill="#000000" fill-rule="nonzero" fill-opacity="1" /><path clip-path="url(#clip900)" d="M1342.1 1532.4 L1347.96 1532.4 L1347.96 1568.04 L1342.1 1568.04 L1342.1 1532.4 M1342.1 1518.52 L1347.96 1518.52 L1347.96 1525.93 L1342.1 1525.93 L1342.1 1518.52 Z" fill="#000000" fill-rule="nonzero" fill-opacity="1" /><path clip-path="url(#clip900)" d="M1374.02 1536.5 Q1369.31 1536.5 1366.58 1540.19 Q1363.84 1543.85 1363.84 1550.25 Q1363.84 1556.65 1366.55 1560.34 Q1369.28 1564 1374.02 1564 Q1378.7 1564 1381.44 1560.31 Q1384.18 1556.62 1384.18 1550.25 Q1384.18 1543.92 1381.44 1540.23 Q1378.7 1536.5 1374.02 1536.5 M1374.02 1531.54 Q1381.66 1531.54 1386.02 1536.5 Q1390.38 1541.47 1390.38 1550.25 Q1390.38 1559 1386.02 1564 Q1381.66 1568.97 1374.02 1568.97 Q1366.35 1568.97 1361.99 1564 Q1357.66 1559 1357.66 1550.25 Q1357.66 1541.47 1361.99 1536.5 Q1366.35 1531.54 1374.02 1531.54 Z" fill="#000000" fill-rule="nonzero" fill-opacity="1" /><path clip-path="url(#clip900)" d="M1429.72 1546.53 L1429.72 1568.04 L1423.87 1568.04 L1423.87 1546.72 Q1423.87 1541.66 1421.89 1539.14 Q1419.92 1536.63 1415.97 1536.63 Q1411.23 1536.63 1408.5 1539.65 Q1405.76 1542.68 1405.76 1547.9 L1405.76 1568.04 L1399.87 1568.04 L1399.87 1532.4 L1405.76 1532.4 L1405.76 1537.93 Q1407.86 1534.72 1410.69 1533.13 Q1413.56 1531.54 1417.28 1531.54 Q1423.42 1531.54 1426.57 1535.36 Q1429.72 1539.14 1429.72 1546.53 Z" fill="#000000" fill-rule="nonzero" fill-opacity="1" /><polyline clip-path="url(#clip900)" style="stroke:#000000; stroke-linecap:round; stroke-linejoin:round; stroke-width:4; stroke-opacity:1; fill:none" points="242.135,1423.18 242.135,47.2441 "/>
<polyline clip-path="url(#clip900)" style="stroke:#000000; stroke-linecap:round; stroke-linejoin:round; stroke-width:4; stroke-opacity:1; fill:none" points="242.135,1423.18 261.032,1423.18 "/>
<polyline clip-path="url(#clip900)" style="stroke:#000000; stroke-linecap:round; stroke-linejoin:round; stroke-width:4; stroke-opacity:1; fill:none" points="242.135,1044.65 261.032,1044.65 "/>
<polyline clip-path="url(#clip900)" style="stroke:#000000; stroke-linecap:round; stroke-linejoin:round; stroke-width:4; stroke-opacity:1; fill:none" points="242.135,666.124 261.032,666.124 "/>
<polyline clip-path="url(#clip900)" style="stroke:#000000; stroke-linecap:round; stroke-linejoin:round; stroke-width:4; stroke-opacity:1; fill:none" points="242.135,287.595 261.032,287.595 "/>
<path clip-path="url(#clip900)" d="M114.26 1423.63 L143.936 1423.63 L143.936 1427.57 L114.26 1427.57 L114.26 1423.63 Z" fill="#000000" fill-rule="nonzero" fill-opacity="1" /><path clip-path="url(#clip900)" d="M154.839 1436.52 L162.477 1436.52 L162.477 1410.16 L154.167 1411.83 L154.167 1407.57 L162.431 1405.9 L167.107 1405.9 L167.107 1436.52 L174.746 1436.52 L174.746 1440.46 L154.839 1440.46 L154.839 1436.52 Z" fill="#000000" fill-rule="nonzero" fill-opacity="1" /><path clip-path="url(#clip900)" d="M194.19 1408.98 Q190.579 1408.98 188.75 1412.54 Q186.945 1416.08 186.945 1423.21 Q186.945 1430.32 188.75 1433.89 Q190.579 1437.43 194.19 1437.43 Q197.825 1437.43 199.63 1433.89 Q201.459 1430.32 201.459 1423.21 Q201.459 1416.08 199.63 1412.54 Q197.825 1408.98 194.19 1408.98 M194.19 1405.27 Q200 1405.27 203.056 1409.88 Q206.135 1414.46 206.135 1423.21 Q206.135 1431.94 203.056 1436.55 Q200 1441.13 194.19 1441.13 Q188.38 1441.13 185.301 1436.55 Q182.246 1431.94 182.246 1423.21 Q182.246 1414.46 185.301 1409.88 Q188.38 1405.27 194.19 1405.27 Z" fill="#000000" fill-rule="nonzero" fill-opacity="1" /><path clip-path="url(#clip900)" d="M144.515 1045.1 L174.19 1045.1 L174.19 1049.04 L144.515 1049.04 L144.515 1045.1 Z" fill="#000000" fill-rule="nonzero" fill-opacity="1" /><path clip-path="url(#clip900)" d="M194.283 1045.52 Q190.95 1045.52 189.028 1047.3 Q187.13 1049.08 187.13 1052.21 Q187.13 1055.33 189.028 1057.12 Q190.95 1058.9 194.283 1058.9 Q197.616 1058.9 199.537 1057.12 Q201.459 1055.31 201.459 1052.21 Q201.459 1049.08 199.537 1047.3 Q197.639 1045.52 194.283 1045.52 M189.607 1043.53 Q186.598 1042.79 184.908 1040.73 Q183.241 1038.67 183.241 1035.7 Q183.241 1031.56 186.181 1029.15 Q189.144 1026.75 194.283 1026.75 Q199.445 1026.75 202.385 1029.15 Q205.324 1031.56 205.324 1035.7 Q205.324 1038.67 203.635 1040.73 Q201.968 1042.79 198.982 1043.53 Q202.362 1044.32 204.237 1046.61 Q206.135 1048.9 206.135 1052.21 Q206.135 1057.23 203.056 1059.92 Q200 1062.6 194.283 1062.6 Q188.565 1062.6 185.487 1059.92 Q182.431 1057.23 182.431 1052.21 Q182.431 1048.9 184.329 1046.61 Q186.227 1044.32 189.607 1043.53 M187.894 1036.14 Q187.894 1038.83 189.561 1040.33 Q191.25 1041.84 194.283 1041.84 Q197.292 1041.84 198.982 1040.33 Q200.695 1038.83 200.695 1036.14 Q200.695 1033.46 198.982 1031.96 Q197.292 1030.45 194.283 1030.45 Q191.25 1030.45 189.561 1031.96 Q187.894 1033.46 187.894 1036.14 Z" fill="#000000" fill-rule="nonzero" fill-opacity="1" /><path clip-path="url(#clip900)" d="M144.26 666.575 L173.936 666.575 L173.936 670.51 L144.26 670.51 L144.26 666.575 Z" fill="#000000" fill-rule="nonzero" fill-opacity="1" /><path clip-path="url(#clip900)" d="M194.607 664.26 Q191.459 664.26 189.607 666.413 Q187.778 668.566 187.778 672.316 Q187.778 676.043 189.607 678.218 Q191.459 680.371 194.607 680.371 Q197.755 680.371 199.584 678.218 Q201.436 676.043 201.436 672.316 Q201.436 668.566 199.584 666.413 Q197.755 664.26 194.607 664.26 M203.889 649.607 L203.889 653.867 Q202.13 653.033 200.325 652.594 Q198.542 652.154 196.783 652.154 Q192.153 652.154 189.7 655.279 Q187.269 658.404 186.922 664.723 Q188.288 662.709 190.348 661.644 Q192.408 660.556 194.885 660.556 Q200.093 660.556 203.102 663.728 Q206.135 666.876 206.135 672.316 Q206.135 677.64 202.987 680.857 Q199.838 684.075 194.607 684.075 Q188.612 684.075 185.44 679.492 Q182.269 674.885 182.269 666.158 Q182.269 657.964 186.158 653.103 Q190.047 648.219 196.598 648.219 Q198.357 648.219 200.139 648.566 Q201.945 648.913 203.889 649.607 Z" fill="#000000" fill-rule="nonzero" fill-opacity="1" /><path clip-path="url(#clip900)" d="M143.936 288.047 L173.612 288.047 L173.612 291.982 L143.936 291.982 L143.936 288.047 Z" fill="#000000" fill-rule="nonzero" fill-opacity="1" /><path clip-path="url(#clip900)" d="M196.551 274.389 L184.746 292.838 L196.551 292.838 L196.551 274.389 M195.325 270.315 L201.204 270.315 L201.204 292.838 L206.135 292.838 L206.135 296.727 L201.204 296.727 L201.204 304.875 L196.551 304.875 L196.551 296.727 L180.95 296.727 L180.95 292.213 L195.325 270.315 Z" fill="#000000" fill-rule="nonzero" fill-opacity="1" /><path clip-path="url(#clip900)" d="M16.4842 816.375 L16.4842 786.329 L21.895 786.329 L21.895 809.945 L35.9632 809.945 L35.9632 787.315 L41.3741 787.315 L41.3741 809.945 L58.5933 809.945 L58.5933 785.756 L64.0042 785.756 L64.0042 816.375 L16.4842 816.375 Z" fill="#000000" fill-rule="nonzero" fill-opacity="1" /><path clip-path="url(#clip900)" d="M16.4842 775.189 L16.4842 768.759 L58.5933 768.759 L58.5933 745.62 L64.0042 745.62 L64.0042 775.189 L16.4842 775.189 Z" fill="#000000" fill-rule="nonzero" fill-opacity="1" /><path clip-path="url(#clip900)" d="M41.3104 732.443 L58.7206 732.443 L58.7206 722.13 Q58.7206 716.942 56.5881 714.46 Q54.4238 711.945 49.9996 711.945 Q45.5436 711.945 43.4429 714.46 Q41.3104 716.942 41.3104 722.13 L41.3104 732.443 M21.7677 732.443 L36.0905 732.443 L36.0905 722.926 Q36.0905 718.216 34.34 715.924 Q32.5576 713.6 28.9291 713.6 Q25.3325 713.6 23.5501 715.924 Q21.7677 718.216 21.7677 722.926 L21.7677 732.443 M16.4842 738.872 L16.4842 722.449 Q16.4842 715.096 19.5397 711.118 Q22.5952 707.139 28.2289 707.139 Q32.5894 707.139 35.1675 709.176 Q37.7456 711.213 38.3822 715.16 Q39.4007 710.418 42.6472 707.808 Q45.8619 705.166 50.6998 705.166 Q57.0655 705.166 60.5348 709.495 Q64.0042 713.823 64.0042 721.812 L64.0042 738.872 L16.4842 738.872 Z" fill="#000000" fill-rule="nonzero" fill-opacity="1" /><path clip-path="url(#clip900)" d="M20.8447 676.011 Q20.8447 683.013 26.0645 687.151 Q31.2844 691.257 40.2919 691.257 Q49.2675 691.257 54.4874 687.151 Q59.7073 683.013 59.7073 676.011 Q59.7073 669.009 54.4874 664.935 Q49.2675 660.829 40.2919 660.829 Q31.2844 660.829 26.0645 664.935 Q20.8447 669.009 20.8447 676.011 M15.6248 676.011 Q15.6248 666.017 22.3406 660.033 Q29.0246 654.049 40.2919 654.049 Q51.5274 654.049 58.2432 660.033 Q64.9272 666.017 64.9272 676.011 Q64.9272 686.037 58.2432 692.052 Q51.5592 698.036 40.2919 698.036 Q29.0246 698.036 22.3406 692.052 Q15.6248 686.037 15.6248 676.011 Z" fill="#000000" fill-rule="nonzero" fill-opacity="1" /><polyline clip-path="url(#clip902)" style="stroke:#009af9; stroke-linecap:round; stroke-linejoin:round; stroke-width:4; stroke-opacity:1; fill:none" points="301.869,944.539 302.533,14200.5 303.197,1003.06 303.861,589.665 304.525,1106.2 305.189,2031.73 305.853,1496.88 306.517,839.471 307.181,6743.8 307.845,1463.48 308.509,947.26 309.173,1058.26 309.836,1191.51 310.5,1788.21 311.164,919.505 311.828,1308.25 312.492,1156.32 313.156,1167.54 313.82,881.57 314.484,816.5 315.148,2046.94 315.812,969.926 316.476,1325.62 317.14,1300.94 317.804,1366.42 318.468,1684.59 319.132,963.501 319.796,1729.9 320.46,1795.46 321.123,1917.8 321.787,1134.86 322.451,1087.77 323.115,1692.61 323.779,999.238 324.443,1976.15 325.107,1098.38 325.771,1666.64 326.435,1269.56 327.099,897.031 327.763,1186.04 328.427,973.456 329.091,1766.86 329.755,958.268 330.419,1184.86 331.083,2173.73 331.746,642.864 332.41,1221.86 333.074,1002.99 333.738,2069.2 334.402,1117.4 335.066,1416.72 335.73,1775.45 336.394,969.57 337.058,1096.17 337.722,1184.3 338.386,2328.02 339.05,826.277 339.714,1023.2 340.378,9646.7 341.042,1252.36 341.706,1474.35 342.369,1371.23 343.033,825.786 343.697,4700.78 344.361,1313.15 345.025,1187.69 345.689,1093.8 346.353,2345.98 347.017,1126.12 347.681,1443.39 348.345,816.08 349.009,1442.63 349.673,1096.24 350.337,1070.8 351.001,772.496 351.665,836.646 352.329,712.432 352.993,903.276 353.656,862.511 354.32,1300.74 354.984,745.269 355.648,899.939 356.312,809.459 356.976,708.663 357.64,912.576 358.304,1063.98 358.968,870.588 359.632,1032.93 360.296,655.082 360.96,819.062 361.624,913.104 362.288,833.114 362.952,761.799 363.616,1123.48 364.279,702.421 364.943,790.433 365.607,768.986 366.271,737.326 366.935,732.471 367.599,860.098 368.263,683.58 368.927,670.716 369.591,779.513 370.255,820.341 370.919,896.846 371.583,689.865 372.247,582.177 372.911,924.633 373.575,1270.51 374.239,913.007 374.902,880.589 375.566,688.686 376.23,680.479 376.894,876.918 377.558,864.123 378.222,943.245 378.886,743.647 379.55,690.835 380.214,760.369 380.878,705.855 381.542,515.152 382.206,799.432 382.87,285.561 383.534,480.744 384.198,704.873 384.862,718.855 385.526,699.759 386.189,630.535 386.853,421.241 387.517,533.558 388.181,576.438 388.845,379.224 389.509,626.499 390.173,566.865 390.837,574.691 391.501,1226.05 392.165,666.987 392.829,432.444 393.493,374.111 394.157,377.403 394.821,549.61 395.485,263.358 396.149,231.904 396.812,241.932 397.476,447.287 398.14,607.014 398.804,983.779 399.468,804.921 400.132,763.671 400.796,405.128 401.46,605.105 402.124,466.323 402.788,387.582 403.452,405.816 404.116,307.502 404.78,243.111 405.444,343.686 406.108,264.935 406.772,231.297 407.435,193.385 408.099,266.657 408.763,350.952 409.427,204.863 410.091,142.996 410.755,207.238 411.419,234.647 412.083,186.405 412.747,329.732 413.411,235.435 414.075,240.747 414.739,346.074 415.403,451.643 416.067,455.796 416.731,367.176 417.395,321.62 418.058,210.782 418.722,189.675 419.386,173.652 420.05,272.049 420.714,221.432 421.378,258.018 422.042,186.601 422.706,204.27 423.37,310.366 424.034,141.303 424.698,173.743 425.362,159.055 426.026,319.633 426.69,254.059 427.354,234.97 428.018,192.151 428.682,178.575 429.345,183.907 430.009,242.891 430.673,240.053 431.337,242.531 432.001,213.58 432.665,261.799 433.329,402.376 433.993,497.061 434.657,313.665 435.321,224.819 435.985,196.219 436.649,217.303 437.313,167.507 437.977,185.427 438.641,198.003 439.305,167.195 439.968,162.169 440.632,239.561 441.296,66.9872 441.96,225.064 442.624,154.562 443.288,205.654 443.952,170.074 444.616,250.757 445.28,182.373 445.944,148.371 446.608,159.425 447.272,177.036 447.936,188.498 448.6,192.566 449.264,209.609 449.928,120.692 450.591,174.268 451.255,173.347 451.919,175.769 452.583,173.795 453.247,111.885 453.911,172.396 454.575,133.964 455.239,124.792 455.903,155.164 456.567,250.64 457.231,159.313 457.895,164.808 458.559,150.677 459.223,122.417 459.887,160.915 460.551,561.042 461.215,695.291 461.878,279.724 462.542,293.162 463.206,256.548 463.87,236.72 464.534,174.081 465.198,112.078 465.862,199.092 466.526,165.177 467.19,161.902 467.854,76.5025 468.518,172.452 469.182,289.884 469.846,239.922 470.51,218.492 471.174,192.621 471.838,192.101 472.501,174.356 473.165,215.04 473.829,119.633 474.493,169.276 475.157,164.433 475.821,181.429 476.485,186.068 477.149,165.533 477.813,164.405 478.477,223.744 479.141,179.052 479.805,166.197 480.469,165.036 481.133,138.517 481.797,141.195 482.461,71.4502 483.124,165.722 483.788,127.63 484.452,194.263 485.116,123.39 485.78,197.986 486.444,176.375 487.108,177.923 487.772,162.781 488.436,145.267 489.1,174.708 489.764,227.053 490.428,167.238 491.092,194.144 491.756,124.944 492.42,144.978 493.084,164.261 493.748,171.908 494.411,175.409 495.075,179.215 495.739,145.173 496.403,141.034 497.067,154.083 497.731,130.486 498.395,189.917 499.059,122.815 499.723,156.957 500.387,140.398 501.051,154.289 501.715,154.697 502.379,155.565 503.043,204.136 503.707,187.285 504.371,156.03 505.034,254.538 505.698,153.718 506.362,203.954 507.026,134.918 507.69,137.157 508.354,132.63 509.018,95.6249 509.682,127.081 510.346,166.115 511.01,138.48 511.674,170.609 512.338,212.056 513.002,154.527 513.666,184.929 514.33,118.586 514.994,137.607 515.657,208.213 516.321,161.105 516.985,226.113 517.649,169.95 518.313,132.408 518.977,118.897 519.641,144.683 520.305,149.634 520.969,171.233 521.633,166.196 522.297,190.269 522.961,141.915 523.625,161.476 524.289,134.423 524.953,303.233 525.617,174.458 526.281,188.757 526.944,166.709 527.608,160.061 528.272,167.056 528.936,183.258 529.6,102.383 530.264,141.545 530.928,163.477 531.592,123.807 532.256,135.558 532.92,189.089 533.584,119.057 534.248,250.301 534.912,171.304 535.576,228.242 536.24,191.398 536.904,136.277 537.567,145.14 538.231,105.276 538.895,92.4106 539.559,118.665 540.223,184.796 540.887,194.514 541.551,131.337 542.215,156.178 542.879,171.297 543.543,134.458 544.207,131.297 544.871,167.112 545.535,167.061 546.199,253.215 546.863,198.917 547.527,185.528 548.19,184.275 548.854,144.442 549.518,147.335 550.182,169.189 550.846,154.234 551.51,163.124 552.174,161.417 552.838,137.274 553.502,186.253 554.166,142.575 554.83,150.116 555.494,120.498 556.158,150.147 556.822,147.111 557.486,161.447 558.15,187.964 558.813,146.754 559.477,153.696 560.141,132.923 560.805,140.259 561.469,191.876 562.133,183.528 562.797,163.411 563.461,209.144 564.125,127.615 564.789,130.323 565.453,152.848 566.117,186.922 566.781,149.952 567.445,154.709 568.109,156.275 568.773,175.21 569.437,120.815 570.1,104.9 570.764,154.31 571.428,163.516 572.092,152.789 572.756,286.022 573.42,161.624 574.084,103.456 574.748,265.042 575.412,192.033 576.076,252.773 576.74,163.436 577.404,141.478 578.068,138.91 578.732,182.134 579.396,133.536 580.06,168.496 580.723,133.294 581.387,148.352 582.051,159.048 582.715,156.906 583.379,133.962 584.043,192.671 584.707,138.025 585.371,169.693 586.035,197.387 586.699,170.797 587.363,145.403 588.027,173.537 588.691,129.802 589.355,156.183 590.019,130.574 590.683,135.276 591.346,158.559 592.01,147.155 592.674,139.359 593.338,211.496 594.002,155.94 594.666,161.795 595.33,148.788 595.994,134.829 596.658,178.608 597.322,167.184 597.986,145.377 598.65,304.18 599.314,222.717 599.978,183.085 600.642,153.955 601.306,156.482 601.97,172.775 602.633,162.958 603.297,130.95 603.961,157.721 604.625,137.053 605.289,154.896 605.953,167.527 606.617,193.23 607.281,157.211 607.945,148.458 608.609,159.277 609.273,144.232 609.937,181.991 610.601,155.742 611.265,144.741 611.929,145.833 612.593,147.9 613.256,371.012 613.92,172.723 614.584,194.195 615.248,183.451 615.912,251.231 616.576,214.029 617.24,158.692 617.904,174.543 618.568,197.312 619.232,233.115 619.896,158.104 620.56,225.793 621.224,174.579 621.888,47.2441 622.552,197.735 623.216,189.278 623.879,181.42 624.543,165.911 625.207,185.303 625.871,183.295 626.535,188.998 627.199,184.112 627.863,184.817 628.527,187.799 629.191,188.751 629.855,192.249 630.519,185.025 631.183,171.756 631.847,174.598 632.511,167.114 633.175,225.98 633.839,193.936 634.503,156.608 635.166,176.062 635.83,145.007 636.494,150.459 637.158,141.484 637.822,193.299 638.486,123.549 639.15,178.9 639.814,159.392 640.478,151.583 641.142,142.436 641.806,148.967 642.47,334.217 643.134,104.817 643.798,201.079 644.462,172.629 645.126,196.793 645.789,176.06 646.453,113.31 647.117,110.207 647.781,163.008 648.445,135.468 649.109,132.545 649.773,160.745 650.437,184.271 651.101,163.393 651.765,151.973 652.429,187.792 653.093,158.951 653.757,224.834 654.421,211.842 655.085,150.074 655.749,145.838 656.412,175.831 657.076,166.393 657.74,192.436 658.404,169.091 659.068,158.2 659.732,186.802 660.396,183.747 661.06,162.853 661.724,156.164 662.388,153.18 663.052,165.384 663.716,161.659 664.38,76.0223 665.044,207.764 665.708,144.684 666.372,91.223 667.036,217.503 667.699,144.311 668.363,150.691 669.027,135.897 669.691,135.486 670.355,193.885 671.019,149.171 671.683,130.156 672.347,190.442 673.011,206.851 673.675,167.019 674.339,173.695 675.003,135.454 675.667,163.51 676.331,148.685 676.995,203.911 677.659,173.087 678.322,134.456 678.986,176.647 679.65,168.583 680.314,102.274 680.978,257.327 681.642,149.555 682.306,179.376 682.97,141.802 683.634,172.859 684.298,142.297 684.962,164.541 685.626,148.719 686.29,172.137 686.954,183.268 687.618,129.278 688.282,142.902 688.945,146.332 689.609,141.831 690.273,169.805 690.937,146.891 691.601,155.887 692.265,140.075 692.929,153.152 693.593,152.2 694.257,154.839 694.921,127.472 695.585,170.371 696.249,156.281 696.913,145.169 697.577,163.31 698.241,147.012 698.905,168.396 699.569,188.682 700.232,146.333 700.896,224.944 701.56,242.827 702.224,200.033 702.888,138.769 703.552,178.499 704.216,121.32 704.88,181.675 705.544,112.469 706.208,216.301 706.872,108.501 707.536,166 708.2,121.565 708.864,153.275 709.528,165.805 710.192,117.014 710.855,131.007 711.519,116.341 712.183,129.626 712.847,96.6391 713.511,88.0415 714.175,251.947 714.839,190.213 715.503,129.215 716.167,175.406 716.831,205.188 717.495,149.157 718.159,150.237 718.823,123.249 719.487,126.114 720.151,149.475 720.815,167.113 721.478,159.923 722.142,153.538 722.806,132.738 723.47,148.431 724.134,143.924 724.798,139.983 725.462,172.006 726.126,180.832 726.79,100.542 727.454,166.856 728.118,125.429 728.782,143.605 729.446,160.522 730.11,152.731 730.774,162.391 731.438,115.355 732.101,196.767 732.765,180.258 733.429,187.924 734.093,115.412 734.757,295.049 735.421,119.192 736.085,174.387 736.749,161.137 737.413,101.416 738.077,173.871 738.741,204.388 739.405,135.512 740.069,141.962 740.733,144.085 741.397,176.043 742.061,115.05 742.725,191.593 743.388,147.449 744.052,145.583 744.716,149.247 745.38,139.473 746.044,109.083 746.708,162.714 747.372,172.96 748.036,136.32 748.7,165.428 749.364,173.07 750.028,170.104 750.692,157.527 751.356,130.869 752.02,169.637 752.684,147.228 753.348,145.103 754.011,195.8 754.675,148.607 755.339,198.728 756.003,143.202 756.667,155.85 757.331,149.855 757.995,177.183 758.659,137.318 759.323,124.275 759.987,246.54 760.651,167.972 761.315,168.895 761.979,149.153 762.643,143.168 763.307,114.689 763.971,151.954 764.634,155.596 765.298,152.11 765.962,167.164 766.626,128.766 767.29,156.516 767.954,156.666 768.618,132.08 769.282,157.386 769.946,163.735 770.61,163.195 771.274,174.196 771.938,167.319 772.602,161.939 773.266,186.994 773.93,137.155 774.594,163.826 775.258,172.221 775.921,125.379 776.585,115.111 777.249,136.439 777.913,117.524 778.577,252.889 779.241,162.284 779.905,145.41 780.569,149.232 781.233,132.797 781.897,128.472 782.561,161.789 783.225,134.916 783.889,173.421 784.553,141.715 785.217,114.142 785.881,149.542 786.544,124.626 787.208,109.557 787.872,179.037 788.536,163.748 789.2,165.011 789.864,160.453 790.528,158.107 791.192,151.657 791.856,117.261 792.52,162.488 793.184,121.862 793.848,138.594 794.512,152.46 795.176,139.036 795.84,162.289 796.504,164.988 797.167,138.688 797.831,173.305 798.495,189.226 799.159,128.097 799.823,167.304 800.487,218.516 801.151,167.412 801.815,194.03 802.479,149.081 803.143,149.528 803.807,184.089 804.471,130.008 805.135,142.469 805.799,159.145 806.463,161.155 807.127,154.104 807.791,156.153 808.454,153.514 809.118,155.002 809.782,147.387 810.446,139.81 811.11,159.707 811.774,164.177 812.438,167.167 813.102,136.025 813.766,132.576 814.43,123.447 815.094,149.276 815.758,143.972 816.422,125.727 817.086,112.662 817.75,153.506 818.414,160.264 819.077,145.921 819.741,230.066 820.405,140.688 821.069,144.474 821.733,203.175 822.397,142.265 823.061,151.188 823.725,146.31 824.389,137.79 825.053,150.547 825.717,140.825 826.381,171.886 827.045,154.55 827.709,141.181 828.373,184.27 829.037,134.077 829.7,107.672 830.364,179.195 831.028,148.9 831.692,153.772 832.356,111.999 833.02,169.302 833.684,145.104 834.348,148.718 835.012,182.166 835.676,142.275 836.34,159.458 837.004,147.985 837.668,141.779 838.332,153.098 838.996,119.038 839.66,163.233 840.324,109.239 840.987,152.838 841.651,141.479 842.315,158.261 842.979,137.877 843.643,137.187 844.307,117.568 844.971,130.681 845.635,180.114 846.299,232.932 846.963,152.548 847.627,139.733 848.291,156.842 848.955,167.431 849.619,156.444 850.283,125.039 850.947,145.464 851.61,134.203 852.274,109.043 852.938,150.483 853.602,124.713 854.266,167.752 854.93,149.48 855.594,137.9 856.258,145.501 856.922,166.524 857.586,144.755 858.25,141.665 858.914,153.794 859.578,139.387 860.242,115.671 860.906,103.139 861.57,208.42 862.233,149.484 862.897,133.177 863.561,156.402 864.225,136.479 864.889,186.376 865.553,185.543 866.217,131.119 866.881,116.825 867.545,121.329 868.209,143.756 868.873,152.427 869.537,152.559 870.201,128.351 870.865,157.754 871.529,165.712 872.193,133.763 872.856,161.015 873.52,128.821 874.184,138.75 874.848,120.847 875.512,142.835 876.176,180.297 876.84,163.758 877.504,149.117 878.168,194.462 878.832,167.36 879.496,136.327 880.16,153.363 880.824,165.817 881.488,136.344 882.152,212.584 882.816,119.652 883.48,136.05 884.143,125.66 884.807,162.706 885.471,131.085 886.135,153.944 886.799,150.153 887.463,149.891 888.127,172.99 888.791,123.444 889.455,175.502 890.119,137.907 890.783,122.795 891.447,142.051 892.111,162.516 892.775,164.215 893.439,143.271 894.103,149.217 894.766,152.336 895.43,112.706 896.094,140.046 896.758,162.185 897.422,158.786 898.086,151.624 898.75,133.654 899.414,148.294 900.078,115.188 900.742,163.907 901.406,157.402 902.07,113.771 902.734,163.243 903.398,86.7658 904.062,140.712 904.726,174.508 905.389,153.065 906.053,142.574 906.717,124.675 907.381,153.937 908.045,168.922 908.709,170.248 909.373,139.845 910.037,164.034 910.701,120.546 911.365,175.052 912.029,159.361 912.693,175.467 913.357,131.006 914.021,177.951 914.685,139.756 915.349,127.453 916.013,199.44 916.676,162.155 917.34,143.143 918.004,155.825 918.668,124.95 919.332,138.408 919.996,133.244 920.66,164.967 921.324,106.826 921.988,126.68 922.652,138.393 923.316,198.272 923.98,121.548 924.644,133.818 925.308,146.223 925.972,130.022 926.636,129.947 927.299,156.575 927.963,164.979 928.627,166.168 929.291,153.355 929.955,144.648 930.619,148.474 931.283,182.132 931.947,136.838 932.611,176.1 933.275,131.729 933.939,169.411 934.603,122.383 935.267,126.971 935.931,117.7 936.595,146.617 937.259,122.248 937.922,165.928 938.586,142.562 939.25,130.394 939.914,143.801 940.578,118.167 941.242,172.575 941.906,242.884 942.57,144.595 943.234,160.708 943.898,157.402 944.562,141.392 945.226,146.226 945.89,127.012 946.554,124.264 947.218,107.255 947.882,173.147 948.546,160.193 949.209,154.181 949.873,123.718 950.537,141.185 951.201,147.81 951.865,146.941 952.529,138.593 953.193,124.396 953.857,146.747 954.521,161.027 955.185,138.671 955.849,164.482 956.513,114.178 957.177,154.4 957.841,148.402 958.505,176.076 959.169,263.303 959.832,146.899 960.496,100.039 961.16,174.995 961.824,172.19 962.488,153.28 963.152,159.66 963.816,148.994 964.48,123.24 965.144,164.052 965.808,145.544 966.472,153.394 967.136,150.618 967.8,144.524 968.464,159.137 969.128,150.17 969.792,144.577 970.455,152.596 971.119,151.038 971.783,153.847 972.447,147.919 973.111,142.087 973.775,151.896 974.439,152.368 975.103,176.588 975.767,178.806 976.431,168.951 977.095,167.347 977.759,146.808 978.423,140.785 979.087,144.633 979.751,140.487 980.415,157.011 981.079,126.858 981.742,187.852 982.406,150.93 983.07,148.693 983.734,148.096 984.398,142.477 985.062,138.915 985.726,161.685 986.39,156.73 987.054,126.877 987.718,146.106 988.382,149.035 989.046,155.17 989.71,179.077 990.374,139.814 991.038,122.28 991.702,106.371 992.365,171.78 993.029,169.309 993.693,115.491 994.357,162.669 995.021,141.339 995.685,170.531 996.349,165.238 997.013,157.488 997.677,170.117 998.341,155.916 999.005,148.258 999.669,145.634 1000.33,137.053 1001,126.63 1001.66,142.155 1002.32,131.242 1002.99,117.723 1003.65,107.726 1004.32,111.157 1004.98,311.575 1005.64,223.909 1006.31,173.289 1006.97,124.801 1007.64,177.023 1008.3,192.988 1008.96,105.434 1009.63,166.778 1010.29,127.005 1010.96,179.82 1011.62,167.955 1012.28,167.764 1012.95,163.212 1013.61,163.624 1014.28,144.029 1014.94,127.057 1015.6,142.979 1016.27,143.458 1016.93,164.737 1017.6,177.291 1018.26,150.634 1018.92,137.152 1019.59,144.871 1020.25,136.315 1020.91,165.265 1021.58,167.109 1022.24,127.805 1022.91,161.832 1023.57,159.334 1024.23,169.924 1024.9,158.842 1025.56,154.16 1026.23,146.599 1026.89,146.874 1027.55,151.361 1028.22,146.671 1028.88,133.211 1029.55,163.099 1030.21,130.491 1030.87,157.481 1031.54,157.204 1032.2,156.606 1032.87,148.671 1033.53,144.344 1034.19,101.284 1034.86,127.409 1035.52,185.133 1036.19,149.929 1036.85,126.998 1037.51,139.024 1038.18,162.864 1038.84,155.768 1039.51,138.809 1040.17,134.98 1040.83,153.086 1041.5,125.201 1042.16,154.894 1042.82,137.449 1043.49,133.58 1044.15,128.687 1044.82,135.428 1045.48,110.035 1046.14,164.986 1046.81,137.73 1047.47,155.238 1048.14,152.418 1048.8,174.832 1049.46,130.11 1050.13,168.615 1050.79,152.932 1051.46,173.258 1052.12,81.6127 1052.78,195.696 1053.45,153.05 1054.11,136.965 1054.78,148.605 1055.44,143.468 1056.1,152.357 1056.77,140.412 1057.43,135.079 1058.1,136.355 1058.76,137.158 1059.42,129.744 1060.09,142.272 1060.75,108.768 1061.42,135.237 1062.08,134.414 1062.74,127.696 1063.41,165.794 1064.07,164.499 1064.73,141.165 1065.4,137.88 1066.06,152.19 1066.73,160.289 1067.39,180.329 1068.05,152.593 1068.72,155.313 1069.38,171.283 1070.05,134.329 1070.71,166.836 1071.37,148.47 1072.04,158.066 1072.7,134.93 1073.37,133.531 1074.03,152.945 1074.69,156.622 1075.36,131.192 1076.02,128.323 1076.69,183.543 1077.35,103.429 1078.01,149.365 1078.68,203.872 1079.34,168.604 1080.01,161.08 1080.67,249.384 1081.33,147.818 1082,109.133 1082.66,123.719 1083.33,279.744 1083.99,173.406 1084.65,184.402 1085.32,164.373 1085.98,149.119 1086.64,193.73 1087.31,150.308 1087.97,126.677 1088.64,189.878 1089.3,170.412 1089.96,169.147 1090.63,173.768 1091.29,154.416 1091.96,196.111 1092.62,165.923 1093.28,144.908 1093.95,170.778 1094.61,125.189 1095.28,132.113 1095.94,195.219 1096.6,181.278 1097.27,166.153 1097.93,145.703 1098.6,166.667 1099.26,127.115 1099.92,139.173 1100.59,167.162 1101.25,140.294 1101.92,154 1102.58,173.38 1103.24,140.946 1103.91,173.835 1104.57,153.287 1105.24,191.309 1105.9,121.096 1106.56,163.712 1107.23,169.607 1107.89,161.351 1108.55,153.716 1109.22,170.892 1109.88,166.869 1110.55,140.739 1111.21,120.271 1111.87,194.557 1112.54,200.525 1113.2,143.89 1113.87,129.344 1114.53,172.457 1115.19,158.896 1115.86,144.142 1116.52,140.624 1117.19,150.782 1117.85,189.323 1118.51,142.488 1119.18,138.532 1119.84,145.071 1120.51,166.266 1121.17,127.345 1121.83,174.84 1122.5,135.753 1123.16,198.855 1123.83,162.74 1124.49,170.772 1125.15,147.141 1125.82,129.181 1126.48,166.446 1127.15,150.602 1127.81,114.944 1128.47,153.735 1129.14,152.848 1129.8,145.699 1130.46,122.643 1131.13,174.768 1131.79,147.659 1132.46,149.417 1133.12,148.742 1133.78,118.386 1134.45,137.083 1135.11,121.1 1135.78,151.01 1136.44,156.635 1137.1,125.662 1137.77,209.014 1138.43,132.649 1139.1,141.467 1139.76,135.733 1140.42,135.7 1141.09,169.395 1141.75,144.545 1142.42,83.0806 1143.08,140.572 1143.74,151.717 1144.41,165.055 1145.07,104.247 1145.74,136.981 1146.4,161.262 1147.06,146.886 1147.73,150.26 1148.39,173.079 1149.05,235.071 1149.72,103.278 1150.38,170.588 1151.05,105.936 1151.71,137.588 1152.37,114.482 1153.04,158.52 1153.7,163.196 1154.37,160.811 1155.03,144.893 1155.69,154.854 1156.36,119.798 1157.02,138.222 1157.69,146.794 1158.35,126.726 1159.01,204.87 1159.68,186.324 1160.34,147.829 1161.01,174.371 1161.67,153.085 1162.33,130.231 1163,117.715 1163.66,165.436 1164.33,105.427 1164.99,177.146 1165.65,159.804 1166.32,148.608 1166.98,131.764 1167.65,138.938 1168.31,163.391 1168.97,144.834 1169.64,120.728 1170.3,133.69 1170.96,120.373 1171.63,211.261 1172.29,169.596 1172.96,169.761 1173.62,123.738 1174.28,213.522 1174.95,172.477 1175.61,150.554 1176.28,162.03 1176.94,129.835 1177.6,157.543 1178.27,176.62 1178.93,138.264 1179.6,146.975 1180.26,145.532 1180.92,118.37 1181.59,139.482 1182.25,158.261 1182.92,95.0102 1183.58,160.181 1184.24,171.783 1184.91,167.246 1185.57,176.373 1186.24,176.407 1186.9,149.625 1187.56,138.107 1188.23,161.295 1188.89,153 1189.56,151.318 1190.22,150.322 1190.88,139.919 1191.55,152.872 1192.21,171.37 1192.87,136.721 1193.54,134.461 1194.2,155.691 1194.87,130.188 1195.53,227.486 1196.19,171.14 1196.86,174.512 1197.52,149.346 1198.19,160.311 1198.85,143.227 1199.51,144.139 1200.18,129.083 1200.84,159.02 1201.51,169.177 1202.17,194.579 1202.83,150.584 1203.5,137.116 1204.16,161.405 1204.83,160.586 1205.49,163.803 1206.15,163.656 1206.82,152.443 1207.48,164.216 1208.15,148.525 1208.81,151.476 1209.47,136.857 1210.14,157.26 1210.8,130.827 1211.47,140.565 1212.13,148.111 1212.79,127.204 1213.46,132.372 1214.12,151.68 1214.78,150.791 1215.45,193.469 1216.11,143.182 1216.78,164.566 1217.44,146.406 1218.1,135.603 1218.77,175.956 1219.43,164.629 1220.1,140.316 1220.76,138.909 1221.42,141.22 1222.09,156.532 1222.75,167.408 1223.42,146.996 1224.08,144.713 1224.74,150.677 1225.41,127.881 1226.07,118.066 1226.74,143.5 1227.4,198.555 1228.06,142.224 1228.73,138.86 1229.39,153.53 1230.06,157.522 1230.72,144.813 1231.38,142.087 1232.05,184.97 1232.71,125.151 1233.38,154.739 1234.04,165.435 1234.7,157.481 1235.37,142.09 1236.03,139.191 1236.69,123.684 1237.36,142.683 1238.02,112.418 1238.69,133.168 1239.35,361.626 1240.01,177.144 1240.68,127.556 1241.34,185.095 1242.01,165.191 1242.67,156.26 1243.33,153.682 1244,159.781 1244.66,172.015 1245.33,177.877 1245.99,171.853 1246.65,161.652 1247.32,158.719 1247.98,152.619 1248.65,155.252 1249.31,168.768 1249.97,144.308 1250.64,140.744 1251.3,151.452 1251.97,131.269 1252.63,111.41 1253.29,253.634 1253.96,180.759 1254.62,161.597 1255.29,211.016 1255.95,165.097 1256.61,124.56 1257.28,168.139 1257.94,119.868 1258.6,187.298 1259.27,214.406 1259.93,161.234 1260.6,145.096 1261.26,152.676 1261.92,144.001 1262.59,158.574 1263.25,133.195 1263.92,102.553 1264.58,159.936 1265.24,183.603 1265.91,152.726 1266.57,166.479 1267.24,100.807 1267.9,151.958 1268.56,145.621 1269.23,158.308 1269.89,175.711 1270.56,114.924 1271.22,175.197 1271.88,152.957 1272.55,154.273 1273.21,172.374 1273.88,159.184 1274.54,133.287 1275.2,144.594 1275.87,154.322 1276.53,140.458 1277.2,136.532 1277.86,189.237 1278.52,140.575 1279.19,154.931 1279.85,142.108 1280.51,142.537 1281.18,126.401 1281.84,179.477 1282.51,158.139 1283.17,142.382 1283.83,166.328 1284.5,146.153 1285.16,138.051 1285.83,155.014 1286.49,179.899 1287.15,155.361 1287.82,149.64 1288.48,132.537 1289.15,152.271 1289.81,159.007 1290.47,156.082 1291.14,140.078 1291.8,166.133 1292.47,151.742 1293.13,143.692 1293.79,140.935 1294.46,145.796 1295.12,177.543 1295.79,111.614 1296.45,233.774 1297.11,140.345 1297.78,176.933 1298.44,150.667 1299.11,168.144 1299.77,139.784 1300.43,124.773 1301.1,130.035 1301.76,134.919 1302.42,154.366 1303.09,144.753 1303.75,167.519 1304.42,193.493 1305.08,165.92 1305.74,144.096 1306.41,150.75 1307.07,148.48 1307.74,134.245 1308.4,125.52 1309.06,129.708 1309.73,202.619 1310.39,138.507 1311.06,148.472 1311.72,125.877 1312.38,149.219 1313.05,173.742 1313.71,139.32 1314.38,147.8 1315.04,187.299 1315.7,190.117 1316.37,154.356 1317.03,123.6 1317.7,68.2812 1318.36,159.689 1319.02,131.328 1319.69,138.968 1320.35,149.146 1321.02,118.808 1321.68,157.981 1322.34,149.613 1323.01,145.085 1323.67,157.944 1324.33,668.674 1325,474.856 1325.66,329.761 1326.33,163.24 1326.99,185.153 1327.65,157.464 1328.32,213.708 1328.98,181.151 1329.65,223.033 1330.31,208.168 1330.97,188.157 1331.64,224.34 1332.3,176.208 1332.97,211.074 1333.63,227.485 1334.29,161.014 1334.96,142.943 1335.62,159.882 1336.29,147.5 1336.95,163.72 1337.61,213.351 1338.28,197.558 1338.94,191.429 1339.61,136.583 1340.27,159.402 1340.93,135.731 1341.6,129.948 1342.26,228.173 1342.93,168.033 1343.59,197.041 1344.25,173.567 1344.92,171.542 1345.58,218.166 1346.24,204.477 1346.91,122.79 1347.57,180.771 1348.24,185.978 1348.9,181.426 1349.56,168.65 1350.23,556.359 1350.89,203.38 1351.56,126.339 1352.22,221.828 1352.88,224.02 1353.55,200.749 1354.21,213.946 1354.88,199.893 1355.54,161.313 1356.2,216.82 1356.87,193.891 1357.53,203.08 1358.2,126.161 1358.86,173.865 1359.52,199.955 1360.19,181.017 1360.85,199.998 1361.52,165.796 1362.18,155.357 1362.84,159.423 1363.51,146.64 1364.17,259.709 1364.84,245.969 1365.5,176.189 1366.16,149.359 1366.83,176.079 1367.49,176.729 1368.15,184.96 1368.82,176.833 1369.48,241.731 1370.15,130.485 1370.81,162.945 1371.47,142.172 1372.14,175.955 1372.8,156.516 1373.47,189.114 1374.13,169.937 1374.79,184.973 1375.46,179.829 1376.12,165.897 1376.79,163.777 1377.45,196.665 1378.11,181.203 1378.78,158.932 1379.44,197.185 1380.11,140.872 1380.77,182.48 1381.43,177.901 1382.1,160.881 1382.76,160.772 1383.43,177.725 1384.09,138.782 1384.75,130.123 1385.42,134.32 1386.08,154.654 1386.75,172.292 1387.41,157.961 1388.07,165.505 1388.74,153.335 1389.4,151.651 1390.06,162.627 1390.73,157.124 1391.39,142.243 1392.06,140.088 1392.72,162.62 1393.38,164.946 1394.05,156.869 1394.71,185.668 1395.38,182.568 1396.04,138.48 1396.7,153.117 1397.37,145.688 1398.03,161.894 1398.7,155.309 1399.36,137.063 1400.02,134.174 1400.69,195.099 1401.35,179.023 1402.02,173.882 1402.68,112.648 1403.34,151.998 1404.01,138.679 1404.67,110.994 1405.34,156.319 1406,162.972 1406.66,172.702 1407.33,149.086 1407.99,162.794 1408.66,106.815 1409.32,141.952 1409.98,172.754 1410.65,144.092 1411.31,187.504 1411.97,158.605 1412.64,152.81 1413.3,142.616 1413.97,149.578 1414.63,154.849 1415.29,169.627 1415.96,97.3899 1416.62,139.736 1417.29,198.488 1417.95,155.347 1418.61,154.676 1419.28,149.323 1419.94,153.192 1420.61,181.191 1421.27,133.32 1421.93,198.501 1422.6,189.602 1423.26,154.865 1423.93,125.781 1424.59,155.862 1425.25,162.177 1425.92,116.75 1426.58,139.257 1427.25,157.698 1427.91,152.174 1428.57,128.777 1429.24,120.996 1429.9,164.924 1430.56,161.621 1431.23,140.357 1431.89,128.878 1432.56,125.854 1433.22,142.353 1433.88,167.216 1434.55,150.091 1435.21,185.309 1435.88,172.129 1436.54,147.987 1437.2,158.296 1437.87,146.414 1438.53,127.474 1439.2,184.405 1439.86,101.985 1440.52,149.563 1441.19,181.231 1441.85,174.885 1442.52,136.231 1443.18,146.586 1443.84,135.653 1444.51,166.386 1445.17,112.07 1445.84,128.317 1446.5,158.06 1447.16,143.297 1447.83,146.464 1448.49,144.567 1449.16,145.587 1449.82,158.916 1450.48,120.864 1451.15,176.305 1451.81,132.94 1452.47,118.387 1453.14,148.73 1453.8,232.608 1454.47,175.136 1455.13,151.947 1455.79,153.687 1456.46,146.709 1457.12,141.245 1457.79,138.782 1458.45,134.063 1459.11,163.873 1459.78,162.684 1460.44,123.317 1461.11,121.185 1461.77,200.648 1462.43,174.7 1463.1,111.065 1463.76,152.501 1464.43,130.047 1465.09,158.087 1465.75,147.058 1466.42,127.934 1467.08,159.042 1467.75,165.571 1468.41,147.893 1469.07,151.298 1469.74,117.979 1470.4,150.329 1471.07,139.975 1471.73,147.018 1472.39,95.2057 1473.06,199.542 1473.72,164.737 1474.38,127.033 1475.05,187.031 1475.71,143.503 1476.38,155.39 1477.04,172.222 1477.7,166.599 1478.37,168.975 1479.03,134.805 1479.7,152.261 1480.36,138.09 1481.02,149.926 1481.69,135.556 1482.35,144.902 1483.02,161.258 1483.68,140.346 1484.34,208.264 1485.01,165.189 1485.67,150.722 1486.34,141.106 1487,142.443 1487.66,151.458 1488.33,127.083 1488.99,151.492 1489.66,166.364 1490.32,156.99 1490.98,129.198 1491.65,133.221 1492.31,227.563 1492.98,147.778 1493.64,173.511 1494.3,155.512 1494.97,128.32 1495.63,170.106 1496.29,156.949 1496.96,140.443 1497.62,158.573 1498.29,152.367 1498.95,143.211 1499.61,149.349 1500.28,160.169 1500.94,141.34 1501.61,155.527 1502.27,182.502 1502.93,108.096 1503.6,122.708 1504.26,125.853 1504.93,252.13 1505.59,157.941 1506.25,142.753 1506.92,126.089 1507.58,172.136 1508.25,162.779 1508.91,141.981 1509.57,154.029 1510.24,131.099 1510.9,130.682 1511.57,120.118 1512.23,167.472 1512.89,134.892 1513.56,210.311 1514.22,164.346 1514.89,115.27 1515.55,181.731 1516.21,114.902 1516.88,122.85 1517.54,148.615 1518.2,142.88 1518.87,136.692 1519.53,144.701 1520.2,171.106 1520.86,167.861 1521.52,135.664 1522.19,144.909 1522.85,148.224 1523.52,176.255 1524.18,164.715 1524.84,155.504 1525.51,149.387 1526.17,146.295 1526.84,158.887 1527.5,165.647 1528.16,141.338 1528.83,152.883 1529.49,123.401 1530.16,181.576 1530.82,167.664 1531.48,146.298 1532.15,168.276 1532.81,170.419 1533.48,151.578 1534.14,171.983 1534.8,162.233 1535.47,154.607 1536.13,174.648 1536.8,137.978 1537.46,166.019 1538.12,122.876 1538.79,170.406 1539.45,140.88 1540.11,160.744 1540.78,148.295 1541.44,158.713 1542.11,144.656 1542.77,148.173 1543.43,154.078 1544.1,153.396 1544.76,140.879 1545.43,113.132 1546.09,156.238 1546.75,145.098 1547.42,159.209 1548.08,153.763 1548.75,167.758 1549.41,148.269 1550.07,136.02 1550.74,172.251 1551.4,119.638 1552.07,155.519 1552.73,168.204 1553.39,137.424 1554.06,155.937 1554.72,158.794 1555.39,117.255 1556.05,135.742 1556.71,138.271 1557.38,159.002 1558.04,147.797 1558.71,150.54 1559.37,130.678 1560.03,145.813 1560.7,135.031 1561.36,143.705 1562.02,136.028 1562.69,170.616 1563.35,137.857 1564.02,196.958 1564.68,147.385 1565.34,177.336 1566.01,139.283 1566.67,155.23 1567.34,117.896 1568,149.335 1568.66,188.992 1569.33,129.817 1569.99,153.44 1570.66,141.463 1571.32,165.597 1571.98,140.34 1572.65,123.824 1573.31,175.06 1573.98,140.455 1574.64,127.814 1575.3,151.851 1575.97,146.842 1576.63,147.152 1577.3,147.524 1577.96,139.631 1578.62,131.376 1579.29,126.515 1579.95,157.329 1580.62,158.641 1581.28,106.334 1581.94,160.021 1582.61,140.922 1583.27,136.406 1583.93,136.676 1584.6,157.693 1585.26,156.204 1585.93,198.981 1586.59,158.487 1587.25,138.346 1587.92,137.719 1588.58,160.333 1589.25,163 1589.91,149.068 1590.57,173.012 1591.24,163.633 1591.9,122.124 1592.57,158.348 1593.23,176.034 1593.89,163.833 1594.56,138.342 1595.22,123.698 1595.89,164.848 1596.55,157.004 1597.21,97.0892 1597.88,158.874 1598.54,122.161 1599.21,160.268 1599.87,165.963 1600.53,162.344 1601.2,120.345 1601.86,134.014 1602.53,151.976 1603.19,154.594 1603.85,143.438 1604.52,149.51 1605.18,161.399 1605.84,157.927 1606.51,170.185 1607.17,153.673 1607.84,127.667 1608.5,119.999 1609.16,138.526 1609.83,167.948 1610.49,128.247 1611.16,159.915 1611.82,142.446 1612.48,157.391 1613.15,168.061 1613.81,168.511 1614.48,144.966 1615.14,162.228 1615.8,143.915 1616.47,138.07 1617.13,165.199 1617.8,156.492 1618.46,155.883 1619.12,145.884 1619.79,125.896 1620.45,177.591 1621.12,180.535 1621.78,146.792 1622.44,143.431 1623.11,157.377 1623.77,127.19 1624.44,143.244 1625.1,138.894 1625.76,162.582 1626.43,161.418 1627.09,143.636 1627.75,134.057 1628.42,145.073 1629.08,147.829 1629.75,137.576 1630.41,145.993 1631.07,127.721 1631.74,150.103 1632.4,147.27 1633.07,132.261 1633.73,136.399 1634.39,127.128 1635.06,166.759 1635.72,137.251 1636.39,131.424 1637.05,128.862 1637.71,172.124 1638.38,137.793 1639.04,144.868 1639.71,145.111 1640.37,127.342 1641.03,194.154 1641.7,129.727 1642.36,173.15 1643.03,159.052 1643.69,151.544 1644.35,137.086 1645.02,167.914 1645.68,147.439 1646.35,150.277 1647.01,104.123 1647.67,156.329 1648.34,156.718 1649,136.243 1649.66,124.156 1650.33,127.855 1650.99,149.653 1651.66,93.2861 1652.32,193.842 1652.98,153.723 1653.65,144.456 1654.31,135.54 1654.98,163.323 1655.64,159.346 1656.3,140.974 1656.97,148.17 1657.63,138.507 1658.3,155.519 1658.96,136.2 1659.62,126.692 1660.29,130.976 1660.95,175.072 1661.62,156.6 1662.28,132.73 1662.94,143.05 1663.61,152.908 1664.27,137.415 1664.94,146.673 1665.6,129.209 1666.26,150.465 1666.93,135.75 1667.59,146.141 1668.26,156.369 1668.92,121.493 1669.58,157.249 1670.25,151.939 1670.91,119.762 1671.57,167.79 1672.24,140.946 1672.9,143.862 1673.57,149.153 1674.23,163.342 1674.89,146.832 1675.56,168.404 1676.22,138.135 1676.89,133.7 1677.55,143.794 1678.21,142.614 1678.88,143.257 1679.54,185.486 1680.21,153.351 1680.87,139.035 1681.53,131.615 1682.2,116.903 1682.86,150.005 1683.53,106.231 1684.19,171.44 1684.85,134.023 1685.52,162.558 1686.18,146.598 1686.85,146.952 1687.51,155.58 1688.17,148.708 1688.84,155.412 1689.5,116.229 1690.17,151.431 1690.83,133.112 1691.49,160.305 1692.16,149.859 1692.82,156.698 1693.48,191.206 1694.15,162.817 1694.81,153.109 1695.48,149.087 1696.14,164.071 1696.8,142.175 1697.47,133.198 1698.13,136.014 1698.8,156.836 1699.46,147.428 1700.12,133.65 1700.79,120.766 1701.45,98.0368 1702.12,221.956 1702.78,137.91 1703.44,143.586 1704.11,147.782 1704.77,150.829 1705.44,141.471 1706.1,153.27 1706.76,151.827 1707.43,126.028 1708.09,140.913 1708.76,147.529 1709.42,131.658 1710.08,200.248 1710.75,117.544 1711.41,153.103 1712.07,138.035 1712.74,109.238 1713.4,139.978 1714.07,152.895 1714.73,168.314 1715.39,132.984 1716.06,146.085 1716.72,174.92 1717.39,155.54 1718.05,123.589 1718.71,124.763 1719.38,153.106 1720.04,159.188 1720.71,156.747 1721.37,153.885 1722.03,148.322 1722.7,137.109 1723.36,155.081 1724.03,141.36 1724.69,120.715 1725.35,151.959 1726.02,134.854 1726.68,144.706 1727.35,133.089 1728.01,132.726 1728.67,150.99 1729.34,150.228 1730,125.879 1730.67,159.076 1731.33,134.254 1731.99,133.838 1732.66,148.952 1733.32,127.082 1733.98,165.845 1734.65,126.249 1735.31,139.169 1735.98,148.053 1736.64,117.973 1737.3,151.758 1737.97,164.259 1738.63,207.938 1739.3,131.645 1739.96,142.296 1740.62,111.801 1741.29,145.186 1741.95,139.607 1742.62,119.713 1743.28,153.507 1743.94,133.546 1744.61,198.978 1745.27,143.705 1745.94,101.168 1746.6,137.777 1747.26,177.603 1747.93,136.207 1748.59,140 1749.26,137.857 1749.92,120.6 1750.58,134.557 1751.25,135.224 1751.91,149.618 1752.58,155.469 1753.24,132.147 1753.9,157.28 1754.57,146.723 1755.23,141.375 1755.89,147.829 1756.56,142.289 1757.22,151.794 1757.89,150.987 1758.55,170.255 1759.21,134.083 1759.88,146.433 1760.54,174.422 1761.21,151.89 1761.87,137.592 1762.53,138.77 1763.2,137.116 1763.86,169.008 1764.53,143.927 1765.19,133.264 1765.85,155.582 1766.52,131.185 1767.18,138.95 1767.85,146.202 1768.51,180.762 1769.17,125.832 1769.84,132.79 1770.5,126.095 1771.17,152.75 1771.83,142.806 1772.49,137.627 1773.16,195.031 1773.82,148.14 1774.49,168.154 1775.15,165.932 1775.81,146.374 1776.48,125.023 1777.14,74.1941 1777.8,190.692 1778.47,118.265 1779.13,168.247 1779.8,162.511 1780.46,170.232 1781.12,121.063 1781.79,148.169 1782.45,179.989 1783.12,135.087 1783.78,125.279 1784.44,141.904 1785.11,118.233 1785.77,147.287 1786.44,140.953 1787.1,150.644 1787.76,139.858 1788.43,155.557 1789.09,130.438 1789.76,159.226 1790.42,163.945 1791.08,104.251 1791.75,150.644 1792.41,130.785 1793.08,141.406 1793.74,142.923 1794.4,163.968 1795.07,147.246 1795.73,141.635 1796.4,155.03 1797.06,156.028 1797.72,150.605 1798.39,150.069 1799.05,119.721 1799.71,158.041 1800.38,126.429 1801.04,164.301 1801.71,147.001 1802.37,164.407 1803.03,150.449 1803.7,163.78 1804.36,158.003 1805.03,151.907 1805.69,163.553 1806.35,136.628 1807.02,150.576 1807.68,142.495 1808.35,141.329 1809.01,163.921 1809.67,149.55 1810.34,138.302 1811,135.295 1811.67,137.138 1812.33,143.497 1812.99,127.492 1813.66,171.31 1814.32,149.217 1814.99,129.276 1815.65,116.656 1816.31,147.765 1816.98,159.714 1817.64,164.867 1818.31,141.388 1818.97,141.045 1819.63,127.967 1820.3,126.907 1820.96,143.955 1821.62,147.165 1822.29,152.196 1822.95,133.246 1823.62,192.379 1824.28,146.746 1824.94,150.951 1825.61,127.679 1826.27,144.374 1826.94,113.963 1827.6,119.431 1828.26,144.947 1828.93,155.026 1829.59,133.725 1830.26,125.698 1830.92,139.413 1831.58,145.099 1832.25,147.547 1832.91,152.442 1833.58,140.409 1834.24,184.305 1834.9,134.197 1835.57,156.315 1836.23,143.611 1836.9,137.332 1837.56,182.93 1838.22,149.271 1838.89,140.498 1839.55,147.081 1840.22,155.099 1840.88,130.461 1841.54,113.254 1842.21,142.9 1842.87,129.589 1843.53,127.494 1844.2,151.938 1844.86,145.228 1845.53,156.477 1846.19,149.04 1846.85,136.51 1847.52,116.545 1848.18,137.027 1848.85,124.737 1849.51,132.686 1850.17,158.29 1850.84,117.509 1851.5,172.07 1852.17,132.33 1852.83,185.065 1853.49,108.042 1854.16,199.776 1854.82,133.794 1855.49,145.547 1856.15,139.81 1856.81,166.625 1857.48,133.009 1858.14,150.348 1858.81,143.202 1859.47,147.208 1860.13,138.089 1860.8,134.667 1861.46,128.505 1862.13,133.499 1862.79,148.916 1863.45,156.229 1864.12,133.029 1864.78,136.306 1865.44,130.987 1866.11,174.94 1866.77,156.471 1867.44,138.58 1868.1,143.854 1868.76,152.771 1869.43,148.964 1870.09,131.382 1870.76,134.184 1871.42,142.367 1872.08,127.48 1872.75,148.516 1873.41,164.383 1874.08,174.267 1874.74,142.083 1875.4,171.445 1876.07,185.329 1876.73,132.892 1877.4,129.908 1878.06,137.438 1878.72,148.482 1879.39,129.313 1880.05,127.935 1880.72,150.667 1881.38,142.046 1882.04,158.662 1882.71,134.843 1883.37,180.806 1884.04,143.453 1884.7,135.003 1885.36,158.265 1886.03,162.732 1886.69,131.528 1887.35,141.214 1888.02,141.744 1888.68,137.446 1889.35,145.929 1890.01,166.031 1890.67,142.856 1891.34,142.888 1892,148.023 1892.67,135.861 1893.33,145.988 1893.99,140.015 1894.66,147.034 1895.32,133.63 1895.99,145.219 1896.65,157.033 1897.31,138.119 1897.98,159.742 1898.64,149.351 1899.31,141.692 1899.97,140.094 1900.63,127.461 1901.3,183.52 1901.96,155.625 1902.63,129.952 1903.29,165.029 1903.95,139.508 1904.62,154.025 1905.28,122.073 1905.95,138.22 1906.61,118.005 1907.27,127.039 1907.94,193.681 1908.6,152.088 1909.26,147.048 1909.93,127.267 1910.59,143.058 1911.26,145.942 1911.92,143.341 1912.58,160.01 1913.25,153.578 1913.91,145.967 1914.58,144.949 1915.24,134.838 1915.9,123.34 1916.57,173.402 1917.23,156.216 1917.9,128.711 1918.56,152.294 1919.22,143.052 1919.89,136.388 1920.55,142.52 1921.22,159.676 1921.88,164.451 1922.54,137.002 1923.21,100.104 1923.87,184.91 1924.54,250.944 1925.2,181.388 1925.86,156.585 1926.53,157.594 1927.19,143.053 1927.86,214.65 1928.52,133.805 1929.18,164.205 1929.85,511.741 1930.51,210.198 1931.17,160.657 1931.84,227.277 1932.5,202.506 1933.17,159.559 1933.83,201.848 1934.49,173.311 1935.16,171.992 1935.82,117.397 1936.49,165.201 1937.15,189.394 1937.81,198.836 1938.48,210.01 1939.14,135.66 1939.81,169.558 1940.47,94.2933 1941.13,188.887 1941.8,162.395 1942.46,161.429 1943.13,149.763 1943.79,145.431 1944.45,133.184 1945.12,142.237 1945.78,156.199 1946.45,160.549 1947.11,193.967 1947.77,102.351 1948.44,152.744 1949.1,204.279 1949.77,164.008 1950.43,180.347 1951.09,158.077 1951.76,141.928 1952.42,135.291 1953.08,173.182 1953.75,172.221 1954.41,140.333 1955.08,144.126 1955.74,174.206 1956.4,151.632 1957.07,142.34 1957.73,146.868 1958.4,120.077 1959.06,145.808 1959.72,138.552 1960.39,151.564 1961.05,156.354 1961.72,149.774 1962.38,147.38 1963.04,170.239 1963.71,128.185 1964.37,174.408 1965.04,158.079 1965.7,143.284 1966.36,173.112 1967.03,131.968 1967.69,174.428 1968.36,146.851 1969.02,118.056 1969.68,127.112 1970.35,154.932 1971.01,184.201 1971.68,126.94 1972.34,132.144 1973,121.681 1973.67,166.283 1974.33,130.352 1974.99,130.739 1975.66,142.748 1976.32,128.893 1976.99,151.192 1977.65,144.909 1978.31,153.918 1978.98,190.074 1979.64,147.74 1980.31,150.988 1980.97,156.436 1981.63,163.971 1982.3,152.488 1982.96,135.647 1983.63,129.988 1984.29,134.035 1984.95,141.011 1985.62,147.807 1986.28,147.56 1986.95,135.11 1987.61,144.5 1988.27,151.706 1988.94,133.4 1989.6,151.397 1990.27,90.2313 1990.93,153.549 1991.59,132.747 1992.26,145.896 1992.92,141.33 1993.58,153.389 1994.25,138.136 1994.91,141.699 1995.58,142.716 1996.24,156.606 1996.9,154.749 1997.57,141.21 1998.23,129.178 1998.9,135.829 1999.56,155.584 2000.22,130.663 2000.89,153.637 2001.55,174.176 2002.22,153.116 2002.88,151.171 2003.54,139.487 2004.21,157.38 2004.87,131.684 2005.54,141.729 2006.2,167.743 2006.86,183.492 2007.53,129.585 2008.19,190.173 2008.86,150.857 2009.52,157.485 2010.18,142.706 2010.85,145.423 2011.51,172.115 2012.18,161.452 2012.84,163.731 2013.5,138.729 2014.17,158.178 2014.83,146.051 2015.49,144.79 2016.16,159.285 2016.82,148.427 2017.49,151.748 2018.15,134.765 2018.81,150.999 2019.48,140.65 2020.14,139.945 2020.81,125.862 2021.47,108.516 2022.13,159.717 2022.8,157.149 2023.46,154.612 2024.13,165.763 2024.79,135.219 2025.45,144.29 2026.12,161.423 2026.78,151.6 2027.45,151.557 2028.11,145.239 2028.77,160.255 2029.44,154.522 2030.1,128.122 2030.77,153.28 2031.43,133.445 2032.09,181.98 2032.76,147.651 2033.42,153.438 2034.09,131.942 2034.75,135.036 2035.41,166.951 2036.08,147.296 2036.74,139.756 2037.4,161.345 2038.07,171.954 2038.73,139.629 2039.4,144.806 2040.06,151.341 2040.72,154.203 2041.39,155.967 2042.05,151.45 2042.72,146.514 2043.38,148.774 2044.04,152.36 2044.71,153.832 2045.37,147.693 2046.04,141.601 2046.7,155.664 2047.36,137.901 2048.03,138.303 2048.69,146.958 2049.36,140.9 2050.02,148.425 2050.68,167.164 2051.35,147.987 2052.01,150.402 2052.68,164.26 2053.34,141.243 2054,160.863 2054.67,127.49 2055.33,169.779 2056,145.931 2056.66,143.305 2057.32,119.422 2057.99,164.657 2058.65,150.526 2059.31,155.671 2059.98,132.253 2060.64,161.131 2061.31,147.723 2061.97,144.817 2062.63,138.381 2063.3,150.981 2063.96,128.272 2064.63,145.406 2065.29,122.227 2065.95,156.165 2066.62,136.445 2067.28,148.242 2067.95,150.821 2068.61,150.744 2069.27,151.812 2069.94,149.954 2070.6,149.235 2071.27,137.73 2071.93,147.751 2072.59,141.289 2073.26,127.646 2073.92,126.862 2074.59,138.527 2075.25,145.712 2075.91,144.828 2076.58,154.226 2077.24,146.167 2077.91,144.279 2078.57,125.058 2079.23,143.45 2079.9,151.11 2080.56,156.922 2081.22,130.461 2081.89,174.991 2082.55,154.064 2083.22,127.005 2083.88,97.8126 2084.54,166.844 2085.21,179.628 2085.87,139.504 2086.54,144.456 2087.2,134.331 2087.86,136.042 2088.53,165.679 2089.19,142.076 2089.86,141.741 2090.52,115.004 2091.18,214.372 2091.85,143.612 2092.51,157.061 2093.18,143.476 2093.84,133.529 2094.5,200.186 2095.17,165.213 2095.83,115.2 2096.5,131.441 2097.16,148.513 2097.82,141.979 2098.49,173.85 2099.15,160.883 2099.82,155.742 2100.48,147.492 2101.14,144.622 2101.81,135.235 2102.47,126.464 2103.13,143.552 2103.8,154.317 2104.46,141.085 2105.13,150.721 2105.79,148.351 2106.45,131.723 2107.12,145.683 2107.78,153.451 2108.45,129.275 2109.11,166.798 2109.77,166.674 2110.44,143.115 2111.1,164.95 2111.77,148.226 2112.43,137.517 2113.09,145.717 2113.76,132.145 2114.42,155.466 2115.09,150.187 2115.75,153.746 2116.41,165.509 2117.08,149.771 2117.74,142.672 2118.41,166.507 2119.07,128.528 2119.73,129.506 2120.4,153.832 2121.06,147.686 2121.73,148.866 2122.39,151.416 2123.05,170.537 2123.72,148.026 2124.38,149.116 2125.04,134.862 2125.71,163.581 2126.37,133.053 2127.04,142.394 2127.7,131.748 2128.36,166.295 2129.03,146.727 2129.69,129.483 2130.36,142.033 2131.02,133.808 2131.68,138.472 2132.35,188.208 2133.01,137.537 2133.68,125.748 2134.34,127.177 2135,154.245 2135.67,118.082 2136.33,142.989 2137,138.192 2137.66,175.055 2138.32,165.037 2138.99,150 2139.65,153.589 2140.32,118.276 2140.98,148.202 2141.64,205.861 2142.31,118.799 2142.97,149.919 2143.64,144.296 2144.3,130.305 2144.96,111.278 2145.63,185.48 2146.29,170.801 2146.95,140.606 2147.62,138.093 2148.28,176.103 2148.95,142.067 2149.61,130.594 2150.27,130.775 2150.94,111.792 2151.6,215.609 2152.27,154.334 2152.93,135.51 2153.59,130.676 2154.26,142.584 2154.92,146.557 2155.59,150.152 2156.25,143.698 2156.91,147.8 2157.58,140.47 2158.24,122.037 2158.91,152.338 2159.57,144.135 2160.23,140.346 2160.9,132.305 2161.56,151.658 2162.23,146.91 2162.89,167.613 2163.55,128.796 2164.22,121.843 2164.88,165.52 2165.55,140.591 2166.21,140.865 2166.87,116.973 2167.54,154.89 2168.2,145.463 2168.86,182.843 2169.53,150.31 2170.19,128.754 2170.86,144.462 2171.52,172.382 2172.18,132.828 2172.85,158.576 2173.51,147.923 2174.18,170.555 2174.84,143.915 2175.5,141.634 2176.17,149.191 2176.83,146.176 2177.5,161.169 2178.16,114.703 2178.82,177.127 2179.49,133.684 2180.15,134.05 2180.82,128.581 2181.48,133.99 2182.14,128.791 2182.81,154.206 2183.47,163.103 2184.14,140.599 2184.8,150.499 2185.46,146.062 2186.13,142.357 2186.79,153.884 2187.46,133.994 2188.12,150.54 2188.78,125.765 2189.45,143.492 2190.11,135.232 2190.77,152.147 2191.44,128.235 2192.1,141.128 2192.77,143.227 2193.43,134.19 2194.09,184.613 2194.76,148.193 2195.42,141.182 2196.09,154.665 2196.75,139.99 2197.41,117.074 2198.08,124.381 2198.74,122.39 2199.41,145.921 2200.07,108.117 2200.73,133.278 2201.4,187.343 2202.06,127.779 2202.73,153.913 2203.39,149.041 2204.05,142.341 2204.72,148.643 2205.38,149.299 2206.05,151.66 2206.71,153.041 2207.37,134.164 2208.04,149.235 2208.7,139.818 2209.37,155.04 2210.03,105.056 2210.69,149.554 2211.36,135.708 2212.02,148.576 2212.68,143.557 2213.35,137.11 2214.01,156.324 2214.68,181.755 2215.34,114.4 2216,164.962 2216.67,144.645 2217.33,155.344 2218,140.35 2218.66,166.749 2219.32,136.028 2219.99,140.035 2220.65,142.933 2221.32,142.811 2221.98,136.791 2222.64,120.384 2223.31,161.979 2223.97,143.594 2224.64,132.661 2225.3,148.643 2225.96,167.669 2226.63,144.919 2227.29,143.871 2227.96,153.35 2228.62,137.688 2229.28,127.723 2229.95,128.745 2230.61,150.956 2231.28,133.875 2231.94,144.691 2232.6,106.143 2233.27,132.156 2233.93,141.027 2234.59,141.289 2235.26,142.836 2235.92,160.803 2236.59,144.818 2237.25,117.524 2237.91,152.967 2238.58,133.898 2239.24,145.291 2239.91,130.264 2240.57,121.596 2241.23,130.784 2241.9,139.786 2242.56,171.629 2243.23,110.495 2243.89,153.844 2244.55,132.489 2245.22,149.836 2245.88,155.575 2246.55,175.251 2247.21,139.808 2247.87,144.731 2248.54,146.091 2249.2,147.146 2249.87,149.025 2250.53,142.752 2251.19,129.338 2251.86,121.342 2252.52,110.684 2253.19,174.218 2253.85,132.977 2254.51,161.159 2255.18,187.707 2255.84,131.198 2256.5,144.096 2257.17,134.334 2257.83,164.074 2258.5,139.299 2259.16,120.339 2259.82,142.845 2260.49,157.006 2261.15,158.621 2261.82,147.87 2262.48,132.036 2263.14,144.146 2263.81,139.364 2264.47,147.762 2265.14,132.114 2265.8,126.064 2266.46,125.45 2267.13,157.489 2267.79,145.372 2268.46,143.475 2269.12,148.745 2269.78,163.34 2270.45,171.042 2271.11,142.204 2271.78,144.517 2272.44,126.605 2273.1,142.398 2273.77,186.118 2274.43,130.98 2275.09,137.699 2275.76,118.862 2276.42,123.143 2277.09,133.546 2277.75,157.211 2278.41,141.644 2279.08,144.259 2279.74,121.104 2280.41,142.963 2281.07,144.372 2281.73,124.987 2282.4,114.422 2283.06,108.88 2283.73,117.972 2284.39,176.781 2285.05,174.133 2285.72,128.432 2286.38,140.012 2287.05,123.001 2287.71,134.002 2288.37,165.053 2289.04,154.6 2289.7,149.004 2290.37,136.131 2291.03,163.222 2291.69,113.51 2292.36,176.196 2293.02,135.452 "/>
<path clip-path="url(#clip900)" d="M2018.91 1377.32 L2282.4 1377.32 L2282.4 1273.64 L2018.91 1273.64  Z" fill="#ffffff" fill-rule="evenodd" fill-opacity="1"/>
<polyline clip-path="url(#clip900)" style="stroke:#000000; stroke-linecap:round; stroke-linejoin:round; stroke-width:4; stroke-opacity:1; fill:none" points="2018.91,1377.32 2282.4,1377.32 2282.4,1273.64 2018.91,1273.64 2018.91,1377.32 "/>
<polyline clip-path="url(#clip900)" style="stroke:#009af9; stroke-linecap:round; stroke-linejoin:round; stroke-width:4; stroke-opacity:1; fill:none" points="2042.36,1325.48 2183.07,1325.48 "/>
<path clip-path="url(#clip900)" d="M2220.36 1345.16 Q2218.56 1349.79 2216.84 1351.2 Q2215.13 1352.62 2212.26 1352.62 L2208.86 1352.62 L2208.86 1349.05 L2211.36 1349.05 Q2213.12 1349.05 2214.09 1348.22 Q2215.06 1347.38 2216.24 1344.28 L2217.01 1342.34 L2206.52 1316.83 L2211.03 1316.83 L2219.14 1337.11 L2227.24 1316.83 L2231.75 1316.83 L2220.36 1345.16 Z" fill="#000000" fill-rule="nonzero" fill-opacity="1" /><path clip-path="url(#clip900)" d="M2239.04 1338.82 L2246.68 1338.82 L2246.68 1312.45 L2238.37 1314.12 L2238.37 1309.86 L2246.64 1308.2 L2251.31 1308.2 L2251.31 1338.82 L2258.95 1338.82 L2258.95 1342.76 L2239.04 1342.76 L2239.04 1338.82 Z" fill="#000000" fill-rule="nonzero" fill-opacity="1" /></svg>
