<?xml version="1.0" encoding="utf-8"?>
<svg xmlns="http://www.w3.org/2000/svg" xmlns:xlink="http://www.w3.org/1999/xlink" width="600" height="400" viewBox="0 0 2400 1600">
<defs>
  <clipPath id="clip020">
    <rect x="0" y="0" width="2400" height="1600"/>
  </clipPath>
</defs>
<path clip-path="url(#clip020)" d="M0 1600 L2400 1600 L2400 0 L0 0  Z" fill="#ffffff" fill-rule="evenodd" fill-opacity="1"/>
<defs>
  <clipPath id="clip021">
    <rect x="480" y="0" width="1681" height="1600"/>
  </clipPath>
</defs>
<path clip-path="url(#clip020)" d="M332.62 1423.18 L2352.76 1423.18 L2352.76 47.2441 L332.62 47.2441  Z" fill="#ffffff" fill-rule="evenodd" fill-opacity="1"/>
<defs>
  <clipPath id="clip022">
    <rect x="332" y="47" width="2021" height="1377"/>
  </clipPath>
</defs>
<polyline clip-path="url(#clip022)" style="stroke:#000000; stroke-linecap:round; stroke-linejoin:round; stroke-width:2; stroke-opacity:0.1; fill:none" points="356.748,1423.18 356.748,47.2441 "/>
<polyline clip-path="url(#clip022)" style="stroke:#000000; stroke-linecap:round; stroke-linejoin:round; stroke-width:2; stroke-opacity:0.1; fill:none" points="696.101,1423.18 696.101,47.2441 "/>
<polyline clip-path="url(#clip022)" style="stroke:#000000; stroke-linecap:round; stroke-linejoin:round; stroke-width:2; stroke-opacity:0.1; fill:none" points="1035.45,1423.18 1035.45,47.2441 "/>
<polyline clip-path="url(#clip022)" style="stroke:#000000; stroke-linecap:round; stroke-linejoin:round; stroke-width:2; stroke-opacity:0.1; fill:none" points="1374.81,1423.18 1374.81,47.2441 "/>
<polyline clip-path="url(#clip022)" style="stroke:#000000; stroke-linecap:round; stroke-linejoin:round; stroke-width:2; stroke-opacity:0.1; fill:none" points="1714.16,1423.18 1714.16,47.2441 "/>
<polyline clip-path="url(#clip022)" style="stroke:#000000; stroke-linecap:round; stroke-linejoin:round; stroke-width:2; stroke-opacity:0.1; fill:none" points="2053.51,1423.18 2053.51,47.2441 "/>
<polyline clip-path="url(#clip022)" style="stroke:#000000; stroke-linecap:round; stroke-linejoin:round; stroke-width:2; stroke-opacity:0.1; fill:none" points="332.62,1169.99 2352.76,1169.99 "/>
<polyline clip-path="url(#clip022)" style="stroke:#000000; stroke-linecap:round; stroke-linejoin:round; stroke-width:2; stroke-opacity:0.1; fill:none" points="332.62,831.273 2352.76,831.273 "/>
<polyline clip-path="url(#clip022)" style="stroke:#000000; stroke-linecap:round; stroke-linejoin:round; stroke-width:2; stroke-opacity:0.1; fill:none" points="332.62,492.556 2352.76,492.556 "/>
<polyline clip-path="url(#clip022)" style="stroke:#000000; stroke-linecap:round; stroke-linejoin:round; stroke-width:2; stroke-opacity:0.1; fill:none" points="332.62,153.84 2352.76,153.84 "/>
<polyline clip-path="url(#clip020)" style="stroke:#000000; stroke-linecap:round; stroke-linejoin:round; stroke-width:4; stroke-opacity:1; fill:none" points="332.62,1423.18 2352.76,1423.18 "/>
<polyline clip-path="url(#clip020)" style="stroke:#000000; stroke-linecap:round; stroke-linejoin:round; stroke-width:4; stroke-opacity:1; fill:none" points="356.748,1423.18 356.748,1404.28 "/>
<polyline clip-path="url(#clip020)" style="stroke:#000000; stroke-linecap:round; stroke-linejoin:round; stroke-width:4; stroke-opacity:1; fill:none" points="696.101,1423.18 696.101,1404.28 "/>
<polyline clip-path="url(#clip020)" style="stroke:#000000; stroke-linecap:round; stroke-linejoin:round; stroke-width:4; stroke-opacity:1; fill:none" points="1035.45,1423.18 1035.45,1404.28 "/>
<polyline clip-path="url(#clip020)" style="stroke:#000000; stroke-linecap:round; stroke-linejoin:round; stroke-width:4; stroke-opacity:1; fill:none" points="1374.81,1423.18 1374.81,1404.28 "/>
<polyline clip-path="url(#clip020)" style="stroke:#000000; stroke-linecap:round; stroke-linejoin:round; stroke-width:4; stroke-opacity:1; fill:none" points="1714.16,1423.18 1714.16,1404.28 "/>
<polyline clip-path="url(#clip020)" style="stroke:#000000; stroke-linecap:round; stroke-linejoin:round; stroke-width:4; stroke-opacity:1; fill:none" points="2053.51,1423.18 2053.51,1404.28 "/>
<path clip-path="url(#clip020)" d="M356.748 1454.1 Q353.137 1454.1 351.308 1457.66 Q349.502 1461.2 349.502 1468.33 Q349.502 1475.44 351.308 1479.01 Q353.137 1482.55 356.748 1482.55 Q360.382 1482.55 362.188 1479.01 Q364.016 1475.44 364.016 1468.33 Q364.016 1461.2 362.188 1457.66 Q360.382 1454.1 356.748 1454.1 M356.748 1450.39 Q362.558 1450.39 365.613 1455 Q368.692 1459.58 368.692 1468.33 Q368.692 1477.06 365.613 1481.67 Q362.558 1486.25 356.748 1486.25 Q350.938 1486.25 347.859 1481.67 Q344.803 1477.06 344.803 1468.33 Q344.803 1459.58 347.859 1455 Q350.938 1450.39 356.748 1450.39 Z" fill="#000000" fill-rule="nonzero" fill-opacity="1" /><path clip-path="url(#clip020)" d="M686.379 1451.02 L704.735 1451.02 L704.735 1454.96 L690.661 1454.96 L690.661 1463.43 Q691.68 1463.08 692.698 1462.92 Q693.717 1462.73 694.735 1462.73 Q700.522 1462.73 703.902 1465.9 Q707.281 1469.08 707.281 1474.49 Q707.281 1480.07 703.809 1483.17 Q700.337 1486.25 694.017 1486.25 Q691.842 1486.25 689.573 1485.88 Q687.328 1485.51 684.92 1484.77 L684.92 1480.07 Q687.004 1481.2 689.226 1481.76 Q691.448 1482.32 693.925 1482.32 Q697.93 1482.32 700.267 1480.21 Q702.605 1478.1 702.605 1474.49 Q702.605 1470.88 700.267 1468.77 Q697.93 1466.67 693.925 1466.67 Q692.05 1466.67 690.175 1467.08 Q688.323 1467.5 686.379 1468.38 L686.379 1451.02 Z" fill="#000000" fill-rule="nonzero" fill-opacity="1" /><path clip-path="url(#clip020)" d="M1010.14 1481.64 L1017.78 1481.64 L1017.78 1455.28 L1009.47 1456.95 L1009.47 1452.69 L1017.73 1451.02 L1022.41 1451.02 L1022.41 1481.64 L1030.05 1481.64 L1030.05 1485.58 L1010.14 1485.58 L1010.14 1481.64 Z" fill="#000000" fill-rule="nonzero" fill-opacity="1" /><path clip-path="url(#clip020)" d="M1049.49 1454.1 Q1045.88 1454.1 1044.05 1457.66 Q1042.25 1461.2 1042.25 1468.33 Q1042.25 1475.44 1044.05 1479.01 Q1045.88 1482.55 1049.49 1482.55 Q1053.13 1482.55 1054.93 1479.01 Q1056.76 1475.44 1056.76 1468.33 Q1056.76 1461.2 1054.93 1457.66 Q1053.13 1454.1 1049.49 1454.1 M1049.49 1450.39 Q1055.3 1450.39 1058.36 1455 Q1061.44 1459.58 1061.44 1468.33 Q1061.44 1477.06 1058.36 1481.67 Q1055.3 1486.25 1049.49 1486.25 Q1043.68 1486.25 1040.6 1481.67 Q1037.55 1477.06 1037.55 1468.33 Q1037.55 1459.58 1040.6 1455 Q1043.68 1450.39 1049.49 1450.39 Z" fill="#000000" fill-rule="nonzero" fill-opacity="1" /><path clip-path="url(#clip020)" d="M1349.99 1481.64 L1357.63 1481.64 L1357.63 1455.28 L1349.32 1456.95 L1349.32 1452.69 L1357.58 1451.02 L1362.26 1451.02 L1362.26 1481.64 L1369.9 1481.64 L1369.9 1485.58 L1349.99 1485.58 L1349.99 1481.64 Z" fill="#000000" fill-rule="nonzero" fill-opacity="1" /><path clip-path="url(#clip020)" d="M1379.39 1451.02 L1397.75 1451.02 L1397.75 1454.96 L1383.67 1454.96 L1383.67 1463.43 Q1384.69 1463.08 1385.71 1462.92 Q1386.73 1462.73 1387.75 1462.73 Q1393.53 1462.73 1396.91 1465.9 Q1400.29 1469.08 1400.29 1474.49 Q1400.29 1480.07 1396.82 1483.17 Q1393.35 1486.25 1387.03 1486.25 Q1384.85 1486.25 1382.58 1485.88 Q1380.34 1485.51 1377.93 1484.77 L1377.93 1480.07 Q1380.02 1481.2 1382.24 1481.76 Q1384.46 1482.32 1386.94 1482.32 Q1390.94 1482.32 1393.28 1480.21 Q1395.62 1478.1 1395.62 1474.49 Q1395.62 1470.88 1393.28 1468.77 Q1390.94 1466.67 1386.94 1466.67 Q1385.06 1466.67 1383.19 1467.08 Q1381.33 1467.5 1379.39 1468.38 L1379.39 1451.02 Z" fill="#000000" fill-rule="nonzero" fill-opacity="1" /><path clip-path="url(#clip020)" d="M1692.93 1481.64 L1709.25 1481.64 L1709.25 1485.58 L1687.31 1485.58 L1687.31 1481.64 Q1689.97 1478.89 1694.55 1474.26 Q1699.16 1469.61 1700.34 1468.27 Q1702.59 1465.74 1703.47 1464.01 Q1704.37 1462.25 1704.37 1460.56 Q1704.37 1457.8 1702.42 1456.07 Q1700.5 1454.33 1697.4 1454.33 Q1695.2 1454.33 1692.75 1455.09 Q1690.32 1455.86 1687.54 1457.41 L1687.54 1452.69 Q1690.36 1451.55 1692.82 1450.97 Q1695.27 1450.39 1697.31 1450.39 Q1702.68 1450.39 1705.87 1453.08 Q1709.07 1455.77 1709.07 1460.26 Q1709.07 1462.39 1708.26 1464.31 Q1707.47 1466.2 1705.36 1468.8 Q1704.79 1469.47 1701.68 1472.69 Q1698.58 1475.88 1692.93 1481.64 Z" fill="#000000" fill-rule="nonzero" fill-opacity="1" /><path clip-path="url(#clip020)" d="M1729.07 1454.1 Q1725.46 1454.1 1723.63 1457.66 Q1721.82 1461.2 1721.82 1468.33 Q1721.82 1475.44 1723.63 1479.01 Q1725.46 1482.55 1729.07 1482.55 Q1732.7 1482.55 1734.51 1479.01 Q1736.34 1475.44 1736.34 1468.33 Q1736.34 1461.2 1734.51 1457.66 Q1732.7 1454.1 1729.07 1454.1 M1729.07 1450.39 Q1734.88 1450.39 1737.93 1455 Q1741.01 1459.58 1741.01 1468.33 Q1741.01 1477.06 1737.93 1481.67 Q1734.88 1486.25 1729.07 1486.25 Q1723.26 1486.25 1720.18 1481.67 Q1717.12 1477.06 1717.12 1468.33 Q1717.12 1459.58 1720.18 1455 Q1723.26 1450.39 1729.07 1450.39 Z" fill="#000000" fill-rule="nonzero" fill-opacity="1" /><path clip-path="url(#clip020)" d="M2032.78 1481.64 L2049.1 1481.64 L2049.1 1485.58 L2027.16 1485.58 L2027.16 1481.64 Q2029.82 1478.89 2034.4 1474.26 Q2039.01 1469.61 2040.19 1468.27 Q2042.44 1465.74 2043.32 1464.01 Q2044.22 1462.25 2044.22 1460.56 Q2044.22 1457.8 2042.27 1456.07 Q2040.35 1454.33 2037.25 1454.33 Q2035.05 1454.33 2032.6 1455.09 Q2030.17 1455.86 2027.39 1457.41 L2027.39 1452.69 Q2030.21 1451.55 2032.67 1450.97 Q2035.12 1450.39 2037.16 1450.39 Q2042.53 1450.39 2045.72 1453.08 Q2048.92 1455.77 2048.92 1460.26 Q2048.92 1462.39 2048.11 1464.31 Q2047.32 1466.2 2045.21 1468.8 Q2044.64 1469.47 2041.53 1472.69 Q2038.43 1475.88 2032.78 1481.64 Z" fill="#000000" fill-rule="nonzero" fill-opacity="1" /><path clip-path="url(#clip020)" d="M2058.96 1451.02 L2077.32 1451.02 L2077.32 1454.96 L2063.25 1454.96 L2063.25 1463.43 Q2064.27 1463.08 2065.28 1462.92 Q2066.3 1462.73 2067.32 1462.73 Q2073.11 1462.73 2076.49 1465.9 Q2079.87 1469.08 2079.87 1474.49 Q2079.87 1480.07 2076.39 1483.17 Q2072.92 1486.25 2066.6 1486.25 Q2064.43 1486.25 2062.16 1485.88 Q2059.91 1485.51 2057.51 1484.77 L2057.51 1480.07 Q2059.59 1481.2 2061.81 1481.76 Q2064.03 1482.32 2066.51 1482.32 Q2070.52 1482.32 2072.85 1480.21 Q2075.19 1478.1 2075.19 1474.49 Q2075.19 1470.88 2072.85 1468.77 Q2070.52 1466.67 2066.51 1466.67 Q2064.64 1466.67 2062.76 1467.08 Q2060.91 1467.5 2058.96 1468.38 L2058.96 1451.02 Z" fill="#000000" fill-rule="nonzero" fill-opacity="1" /><path clip-path="url(#clip020)" d="M1013.77 1520.52 L1020.27 1520.52 L1030.26 1560.69 L1040.22 1520.52 L1047.45 1520.52 L1057.44 1560.69 L1067.4 1520.52 L1073.93 1520.52 L1061.99 1568.04 L1053.91 1568.04 L1043.88 1526.79 L1033.76 1568.04 L1025.68 1568.04 L1013.77 1520.52 Z" fill="#000000" fill-rule="nonzero" fill-opacity="1" /><path clip-path="url(#clip020)" d="M1094.23 1550.12 Q1087.14 1550.12 1084.4 1551.75 Q1081.66 1553.37 1081.66 1557.29 Q1081.66 1560.4 1083.7 1562.25 Q1085.77 1564.07 1089.3 1564.07 Q1094.17 1564.07 1097.1 1560.63 Q1100.06 1557.16 1100.06 1551.43 L1100.06 1550.12 L1094.23 1550.12 M1105.92 1547.71 L1105.92 1568.04 L1100.06 1568.04 L1100.06 1562.63 Q1098.05 1565.88 1095.06 1567.44 Q1092.07 1568.97 1087.74 1568.97 Q1082.27 1568.97 1079.02 1565.91 Q1075.81 1562.82 1075.81 1557.67 Q1075.81 1551.65 1079.82 1548.6 Q1083.86 1545.54 1091.85 1545.54 L1100.06 1545.54 L1100.06 1544.97 Q1100.06 1540.93 1097.39 1538.73 Q1094.74 1536.5 1089.94 1536.5 Q1086.88 1536.5 1083.99 1537.23 Q1081.09 1537.97 1078.42 1539.43 L1078.42 1534.02 Q1081.63 1532.78 1084.65 1532.17 Q1087.68 1531.54 1090.54 1531.54 Q1098.28 1531.54 1102.1 1535.55 Q1105.92 1539.56 1105.92 1547.71 Z" fill="#000000" fill-rule="nonzero" fill-opacity="1" /><path clip-path="url(#clip020)" d="M1117.98 1518.52 L1123.84 1518.52 L1123.84 1568.04 L1117.98 1568.04 L1117.98 1518.52 Z" fill="#000000" fill-rule="nonzero" fill-opacity="1" /><path clip-path="url(#clip020)" d="M1136.09 1518.52 L1141.95 1518.52 L1141.95 1568.04 L1136.09 1568.04 L1136.09 1518.52 Z" fill="#000000" fill-rule="nonzero" fill-opacity="1" /><path clip-path="url(#clip020)" d="M1179.85 1533.76 L1179.85 1539.24 Q1177.37 1537.87 1174.86 1537.2 Q1172.37 1536.5 1169.83 1536.5 Q1164.13 1536.5 1160.98 1540.13 Q1157.83 1543.73 1157.83 1550.25 Q1157.83 1556.78 1160.98 1560.4 Q1164.13 1564 1169.83 1564 Q1172.37 1564 1174.86 1563.33 Q1177.37 1562.63 1179.85 1561.26 L1179.85 1566.68 Q1177.4 1567.82 1174.76 1568.39 Q1172.15 1568.97 1169.19 1568.97 Q1161.14 1568.97 1156.4 1563.91 Q1151.65 1558.85 1151.65 1550.25 Q1151.65 1541.53 1156.43 1536.53 Q1161.23 1531.54 1169.57 1531.54 Q1172.28 1531.54 1174.86 1532.11 Q1177.43 1532.65 1179.85 1533.76 Z" fill="#000000" fill-rule="nonzero" fill-opacity="1" /><path clip-path="url(#clip020)" d="M1190.04 1518.52 L1195.89 1518.52 L1195.89 1568.04 L1190.04 1568.04 L1190.04 1518.52 Z" fill="#000000" fill-rule="nonzero" fill-opacity="1" /><path clip-path="url(#clip020)" d="M1221.96 1536.5 Q1217.25 1536.5 1214.51 1540.19 Q1211.78 1543.85 1211.78 1550.25 Q1211.78 1556.65 1214.48 1560.34 Q1217.22 1564 1221.96 1564 Q1226.64 1564 1229.38 1560.31 Q1232.12 1556.62 1232.12 1550.25 Q1232.12 1543.92 1229.38 1540.23 Q1226.64 1536.5 1221.96 1536.5 M1221.96 1531.54 Q1229.6 1531.54 1233.96 1536.5 Q1238.32 1541.47 1238.32 1550.25 Q1238.32 1559 1233.96 1564 Q1229.6 1568.97 1221.96 1568.97 Q1214.29 1568.97 1209.93 1564 Q1205.6 1559 1205.6 1550.25 Q1205.6 1541.47 1209.93 1536.5 Q1214.29 1531.54 1221.96 1531.54 Z" fill="#000000" fill-rule="nonzero" fill-opacity="1" /><path clip-path="url(#clip020)" d="M1273.68 1533.76 L1273.68 1539.24 Q1271.2 1537.87 1268.69 1537.2 Q1266.2 1536.5 1263.66 1536.5 Q1257.96 1536.5 1254.81 1540.13 Q1251.66 1543.73 1251.66 1550.25 Q1251.66 1556.78 1254.81 1560.4 Q1257.96 1564 1263.66 1564 Q1266.2 1564 1268.69 1563.33 Q1271.2 1562.63 1273.68 1561.26 L1273.68 1566.68 Q1271.23 1567.82 1268.59 1568.39 Q1265.98 1568.97 1263.02 1568.97 Q1254.97 1568.97 1250.23 1563.91 Q1245.48 1558.85 1245.48 1550.25 Q1245.48 1541.53 1250.26 1536.53 Q1255.06 1531.54 1263.4 1531.54 Q1266.11 1531.54 1268.69 1532.11 Q1271.26 1532.65 1273.68 1533.76 Z" fill="#000000" fill-rule="nonzero" fill-opacity="1" /><path clip-path="url(#clip020)" d="M1283.65 1518.52 L1289.53 1518.52 L1289.53 1547.77 L1307.01 1532.4 L1314.49 1532.4 L1295.58 1549.07 L1315.28 1568.04 L1307.64 1568.04 L1289.53 1550.63 L1289.53 1568.04 L1283.65 1568.04 L1283.65 1518.52 Z" fill="#000000" fill-rule="nonzero" fill-opacity="1" /><path clip-path="url(#clip020)" d="M1336 1520.52 L1376.2 1520.52 L1376.2 1525.93 L1359.33 1525.93 L1359.33 1568.04 L1352.87 1568.04 L1352.87 1525.93 L1336 1525.93 L1336 1520.52 Z" fill="#000000" fill-rule="nonzero" fill-opacity="1" /><path clip-path="url(#clip020)" d="M1380.15 1532.4 L1386.01 1532.4 L1386.01 1568.04 L1380.15 1568.04 L1380.15 1532.4 M1380.15 1518.52 L1386.01 1518.52 L1386.01 1525.93 L1380.15 1525.93 L1380.15 1518.52 Z" fill="#000000" fill-rule="nonzero" fill-opacity="1" /><path clip-path="url(#clip020)" d="M1426.02 1539.24 Q1428.21 1535.29 1431.27 1533.41 Q1434.32 1531.54 1438.46 1531.54 Q1444.03 1531.54 1447.05 1535.45 Q1450.08 1539.33 1450.08 1546.53 L1450.08 1568.04 L1444.19 1568.04 L1444.19 1546.72 Q1444.19 1541.59 1442.38 1539.11 Q1440.56 1536.63 1436.84 1536.63 Q1432.29 1536.63 1429.64 1539.65 Q1427 1542.68 1427 1547.9 L1427 1568.04 L1421.11 1568.04 L1421.11 1546.72 Q1421.11 1541.56 1419.3 1539.11 Q1417.49 1536.63 1413.7 1536.63 Q1409.21 1536.63 1406.57 1539.68 Q1403.93 1542.71 1403.93 1547.9 L1403.93 1568.04 L1398.04 1568.04 L1398.04 1532.4 L1403.93 1532.4 L1403.93 1537.93 Q1405.93 1534.66 1408.73 1533.1 Q1411.53 1531.54 1415.38 1531.54 Q1419.27 1531.54 1421.97 1533.51 Q1424.71 1535.48 1426.02 1539.24 Z" fill="#000000" fill-rule="nonzero" fill-opacity="1" /><path clip-path="url(#clip020)" d="M1492.25 1548.76 L1492.25 1551.62 L1465.32 1551.62 Q1465.71 1557.67 1468.95 1560.85 Q1472.23 1564 1478.05 1564 Q1481.43 1564 1484.58 1563.17 Q1487.76 1562.35 1490.88 1560.69 L1490.88 1566.23 Q1487.73 1567.57 1484.42 1568.27 Q1481.11 1568.97 1477.7 1568.97 Q1469.17 1568.97 1464.18 1564 Q1459.21 1559.04 1459.21 1550.57 Q1459.21 1541.82 1463.92 1536.69 Q1468.67 1531.54 1476.69 1531.54 Q1483.88 1531.54 1488.05 1536.18 Q1492.25 1540.8 1492.25 1548.76 M1486.39 1547.04 Q1486.33 1542.23 1483.69 1539.37 Q1481.08 1536.5 1476.75 1536.5 Q1471.85 1536.5 1468.89 1539.27 Q1465.96 1542.04 1465.51 1547.07 L1486.39 1547.04 Z" fill="#000000" fill-rule="nonzero" fill-opacity="1" /><path clip-path="url(#clip020)" d="M1536.65 1518.58 Q1532.39 1525.9 1530.32 1533.06 Q1528.25 1540.23 1528.25 1547.58 Q1528.25 1554.93 1530.32 1562.16 Q1532.42 1569.35 1536.65 1576.64 L1531.56 1576.64 Q1526.78 1569.16 1524.4 1561.93 Q1522.04 1554.71 1522.04 1547.58 Q1522.04 1540.48 1524.4 1533.29 Q1526.75 1526.09 1531.56 1518.58 L1536.65 1518.58 Z" fill="#000000" fill-rule="nonzero" fill-opacity="1" /><path clip-path="url(#clip020)" d="M1570.74 1533.45 L1570.74 1538.98 Q1568.26 1537.71 1565.58 1537.07 Q1562.91 1536.44 1560.05 1536.44 Q1555.68 1536.44 1553.49 1537.77 Q1551.32 1539.11 1551.32 1541.79 Q1551.32 1543.82 1552.88 1545 Q1554.44 1546.15 1559.15 1547.2 L1561.16 1547.64 Q1567.4 1548.98 1570.01 1551.43 Q1572.65 1553.85 1572.65 1558.21 Q1572.65 1563.17 1568.7 1566.07 Q1564.79 1568.97 1557.91 1568.97 Q1555.05 1568.97 1551.93 1568.39 Q1548.84 1567.85 1545.4 1566.74 L1545.4 1560.69 Q1548.65 1562.38 1551.8 1563.24 Q1554.95 1564.07 1558.04 1564.07 Q1562.18 1564.07 1564.41 1562.66 Q1566.63 1561.23 1566.63 1558.65 Q1566.63 1556.27 1565.01 1554.99 Q1563.42 1553.72 1557.98 1552.54 L1555.94 1552.07 Q1550.5 1550.92 1548.08 1548.56 Q1545.66 1546.18 1545.66 1542.04 Q1545.66 1537.01 1549.22 1534.27 Q1552.79 1531.54 1559.34 1531.54 Q1562.59 1531.54 1565.46 1532.01 Q1568.32 1532.49 1570.74 1533.45 Z" fill="#000000" fill-rule="nonzero" fill-opacity="1" /><path clip-path="url(#clip020)" d="M1612.47 1548.76 L1612.47 1551.62 L1585.54 1551.62 Q1585.92 1557.67 1589.17 1560.85 Q1592.45 1564 1598.27 1564 Q1601.65 1564 1604.8 1563.17 Q1607.98 1562.35 1611.1 1560.69 L1611.1 1566.23 Q1607.95 1567.57 1604.64 1568.27 Q1601.33 1568.97 1597.92 1568.97 Q1589.39 1568.97 1584.39 1564 Q1579.43 1559.04 1579.43 1550.57 Q1579.43 1541.82 1584.14 1536.69 Q1588.88 1531.54 1596.9 1531.54 Q1604.1 1531.54 1608.27 1536.18 Q1612.47 1540.8 1612.47 1548.76 M1606.61 1547.04 Q1606.55 1542.23 1603.9 1539.37 Q1601.29 1536.5 1596.97 1536.5 Q1592.06 1536.5 1589.1 1539.27 Q1586.18 1542.04 1585.73 1547.07 L1606.61 1547.04 Z" fill="#000000" fill-rule="nonzero" fill-opacity="1" /><path clip-path="url(#clip020)" d="M1647.73 1533.76 L1647.73 1539.24 Q1645.25 1537.87 1642.74 1537.2 Q1640.25 1536.5 1637.71 1536.5 Q1632.01 1536.5 1628.86 1540.13 Q1625.71 1543.73 1625.71 1550.25 Q1625.71 1556.78 1628.86 1560.4 Q1632.01 1564 1637.71 1564 Q1640.25 1564 1642.74 1563.33 Q1645.25 1562.63 1647.73 1561.26 L1647.73 1566.68 Q1645.28 1567.82 1642.64 1568.39 Q1640.03 1568.97 1637.07 1568.97 Q1629.02 1568.97 1624.28 1563.91 Q1619.53 1558.85 1619.53 1550.25 Q1619.53 1541.53 1624.31 1536.53 Q1629.11 1531.54 1637.45 1531.54 Q1640.16 1531.54 1642.74 1532.11 Q1645.31 1532.65 1647.73 1533.76 Z" fill="#000000" fill-rule="nonzero" fill-opacity="1" /><path clip-path="url(#clip020)" d="M1656.99 1518.58 L1662.09 1518.58 Q1666.86 1526.09 1669.22 1533.29 Q1671.6 1540.48 1671.6 1547.58 Q1671.6 1554.71 1669.22 1561.93 Q1666.86 1569.16 1662.09 1576.64 L1656.99 1576.64 Q1661.23 1569.35 1663.3 1562.16 Q1665.4 1554.93 1665.4 1547.58 Q1665.4 1540.23 1663.3 1533.06 Q1661.23 1525.9 1656.99 1518.58 Z" fill="#000000" fill-rule="nonzero" fill-opacity="1" /><polyline clip-path="url(#clip020)" style="stroke:#000000; stroke-linecap:round; stroke-linejoin:round; stroke-width:4; stroke-opacity:1; fill:none" points="332.62,1423.18 332.62,47.2441 "/>
<polyline clip-path="url(#clip020)" style="stroke:#000000; stroke-linecap:round; stroke-linejoin:round; stroke-width:4; stroke-opacity:1; fill:none" points="332.62,1169.99 351.518,1169.99 "/>
<polyline clip-path="url(#clip020)" style="stroke:#000000; stroke-linecap:round; stroke-linejoin:round; stroke-width:4; stroke-opacity:1; fill:none" points="332.62,831.273 351.518,831.273 "/>
<polyline clip-path="url(#clip020)" style="stroke:#000000; stroke-linecap:round; stroke-linejoin:round; stroke-width:4; stroke-opacity:1; fill:none" points="332.62,492.556 351.518,492.556 "/>
<polyline clip-path="url(#clip020)" style="stroke:#000000; stroke-linecap:round; stroke-linejoin:round; stroke-width:4; stroke-opacity:1; fill:none" points="332.62,153.84 351.518,153.84 "/>
<path clip-path="url(#clip020)" d="M114.26 1170.44 L143.936 1170.44 L143.936 1174.38 L114.26 1174.38 L114.26 1170.44 Z" fill="#000000" fill-rule="nonzero" fill-opacity="1" /><path clip-path="url(#clip020)" d="M154.839 1183.34 L162.477 1183.34 L162.477 1156.97 L154.167 1158.64 L154.167 1154.38 L162.431 1152.71 L167.107 1152.71 L167.107 1183.34 L174.746 1183.34 L174.746 1187.27 L154.839 1187.27 L154.839 1183.34 Z" fill="#000000" fill-rule="nonzero" fill-opacity="1" /><path clip-path="url(#clip020)" d="M188.218 1183.34 L204.537 1183.34 L204.537 1187.27 L182.593 1187.27 L182.593 1183.34 Q185.255 1180.58 189.838 1175.95 Q194.445 1171.3 195.625 1169.96 Q197.871 1167.43 198.75 1165.7 Q199.653 1163.94 199.653 1162.25 Q199.653 1159.49 197.709 1157.76 Q195.787 1156.02 192.686 1156.02 Q190.487 1156.02 188.033 1156.78 Q185.602 1157.55 182.825 1159.1 L182.825 1154.38 Q185.649 1153.24 188.102 1152.66 Q190.556 1152.09 192.593 1152.09 Q197.963 1152.09 201.158 1154.77 Q204.352 1157.46 204.352 1161.95 Q204.352 1164.08 203.542 1166 Q202.755 1167.9 200.649 1170.49 Q200.07 1171.16 196.968 1174.38 Q193.866 1177.57 188.218 1183.34 Z" fill="#000000" fill-rule="nonzero" fill-opacity="1" /><path clip-path="url(#clip020)" d="M224.352 1155.79 Q220.741 1155.79 218.912 1159.35 Q217.107 1162.9 217.107 1170.02 Q217.107 1177.13 218.912 1180.7 Q220.741 1184.24 224.352 1184.24 Q227.986 1184.24 229.792 1180.7 Q231.621 1177.13 231.621 1170.02 Q231.621 1162.9 229.792 1159.35 Q227.986 1155.79 224.352 1155.79 M224.352 1152.09 Q230.162 1152.09 233.218 1156.69 Q236.297 1161.27 236.297 1170.02 Q236.297 1178.75 233.218 1183.36 Q230.162 1187.94 224.352 1187.94 Q218.542 1187.94 215.463 1183.36 Q212.408 1178.75 212.408 1170.02 Q212.408 1161.27 215.463 1156.69 Q218.542 1152.09 224.352 1152.09 Z" fill="#000000" fill-rule="nonzero" fill-opacity="1" /><path clip-path="url(#clip020)" d="M254.514 1155.79 Q250.903 1155.79 249.074 1159.35 Q247.269 1162.9 247.269 1170.02 Q247.269 1177.13 249.074 1180.7 Q250.903 1184.24 254.514 1184.24 Q258.148 1184.24 259.954 1180.7 Q261.783 1177.13 261.783 1170.02 Q261.783 1162.9 259.954 1159.35 Q258.148 1155.79 254.514 1155.79 M254.514 1152.09 Q260.324 1152.09 263.38 1156.69 Q266.458 1161.27 266.458 1170.02 Q266.458 1178.75 263.38 1183.36 Q260.324 1187.94 254.514 1187.94 Q248.704 1187.94 245.625 1183.36 Q242.57 1178.75 242.57 1170.02 Q242.57 1161.27 245.625 1156.69 Q248.704 1152.09 254.514 1152.09 Z" fill="#000000" fill-rule="nonzero" fill-opacity="1" /><path clip-path="url(#clip020)" d="M284.676 1155.79 Q281.065 1155.79 279.236 1159.35 Q277.431 1162.9 277.431 1170.02 Q277.431 1177.13 279.236 1180.7 Q281.065 1184.24 284.676 1184.24 Q288.31 1184.24 290.116 1180.7 Q291.944 1177.13 291.944 1170.02 Q291.944 1162.9 290.116 1159.35 Q288.31 1155.79 284.676 1155.79 M284.676 1152.09 Q290.486 1152.09 293.542 1156.69 Q296.62 1161.27 296.62 1170.02 Q296.62 1178.75 293.542 1183.36 Q290.486 1187.94 284.676 1187.94 Q278.866 1187.94 275.787 1183.36 Q272.732 1178.75 272.732 1170.02 Q272.732 1161.27 275.787 1156.69 Q278.866 1152.09 284.676 1152.09 Z" fill="#000000" fill-rule="nonzero" fill-opacity="1" /><path clip-path="url(#clip020)" d="M114.26 831.725 L143.936 831.725 L143.936 835.66 L114.26 835.66 L114.26 831.725 Z" fill="#000000" fill-rule="nonzero" fill-opacity="1" /><path clip-path="url(#clip020)" d="M154.839 844.618 L162.477 844.618 L162.477 818.253 L154.167 819.919 L154.167 815.66 L162.431 813.993 L167.107 813.993 L167.107 844.618 L174.746 844.618 L174.746 848.553 L154.839 848.553 L154.839 844.618 Z" fill="#000000" fill-rule="nonzero" fill-opacity="1" /><path clip-path="url(#clip020)" d="M194.19 817.072 Q190.579 817.072 188.75 820.637 Q186.945 824.178 186.945 831.308 Q186.945 838.414 188.75 841.979 Q190.579 845.521 194.19 845.521 Q197.825 845.521 199.63 841.979 Q201.459 838.414 201.459 831.308 Q201.459 824.178 199.63 820.637 Q197.825 817.072 194.19 817.072 M194.19 813.368 Q200 813.368 203.056 817.975 Q206.135 822.558 206.135 831.308 Q206.135 840.035 203.056 844.641 Q200 849.225 194.19 849.225 Q188.38 849.225 185.301 844.641 Q182.246 840.035 182.246 831.308 Q182.246 822.558 185.301 817.975 Q188.38 813.368 194.19 813.368 Z" fill="#000000" fill-rule="nonzero" fill-opacity="1" /><path clip-path="url(#clip020)" d="M224.352 817.072 Q220.741 817.072 218.912 820.637 Q217.107 824.178 217.107 831.308 Q217.107 838.414 218.912 841.979 Q220.741 845.521 224.352 845.521 Q227.986 845.521 229.792 841.979 Q231.621 838.414 231.621 831.308 Q231.621 824.178 229.792 820.637 Q227.986 817.072 224.352 817.072 M224.352 813.368 Q230.162 813.368 233.218 817.975 Q236.297 822.558 236.297 831.308 Q236.297 840.035 233.218 844.641 Q230.162 849.225 224.352 849.225 Q218.542 849.225 215.463 844.641 Q212.408 840.035 212.408 831.308 Q212.408 822.558 215.463 817.975 Q218.542 813.368 224.352 813.368 Z" fill="#000000" fill-rule="nonzero" fill-opacity="1" /><path clip-path="url(#clip020)" d="M254.514 817.072 Q250.903 817.072 249.074 820.637 Q247.269 824.178 247.269 831.308 Q247.269 838.414 249.074 841.979 Q250.903 845.521 254.514 845.521 Q258.148 845.521 259.954 841.979 Q261.783 838.414 261.783 831.308 Q261.783 824.178 259.954 820.637 Q258.148 817.072 254.514 817.072 M254.514 813.368 Q260.324 813.368 263.38 817.975 Q266.458 822.558 266.458 831.308 Q266.458 840.035 263.38 844.641 Q260.324 849.225 254.514 849.225 Q248.704 849.225 245.625 844.641 Q242.57 840.035 242.57 831.308 Q242.57 822.558 245.625 817.975 Q248.704 813.368 254.514 813.368 Z" fill="#000000" fill-rule="nonzero" fill-opacity="1" /><path clip-path="url(#clip020)" d="M284.676 817.072 Q281.065 817.072 279.236 820.637 Q277.431 824.178 277.431 831.308 Q277.431 838.414 279.236 841.979 Q281.065 845.521 284.676 845.521 Q288.31 845.521 290.116 841.979 Q291.944 838.414 291.944 831.308 Q291.944 824.178 290.116 820.637 Q288.31 817.072 284.676 817.072 M284.676 813.368 Q290.486 813.368 293.542 817.975 Q296.62 822.558 296.62 831.308 Q296.62 840.035 293.542 844.641 Q290.486 849.225 284.676 849.225 Q278.866 849.225 275.787 844.641 Q272.732 840.035 272.732 831.308 Q272.732 822.558 275.787 817.975 Q278.866 813.368 284.676 813.368 Z" fill="#000000" fill-rule="nonzero" fill-opacity="1" /><path clip-path="url(#clip020)" d="M144.422 493.008 L174.098 493.008 L174.098 496.943 L144.422 496.943 L144.422 493.008 Z" fill="#000000" fill-rule="nonzero" fill-opacity="1" /><path clip-path="url(#clip020)" d="M194.19 493.424 Q190.857 493.424 188.936 495.207 Q187.038 496.989 187.038 500.114 Q187.038 503.239 188.936 505.022 Q190.857 506.804 194.19 506.804 Q197.524 506.804 199.445 505.022 Q201.366 503.216 201.366 500.114 Q201.366 496.989 199.445 495.207 Q197.547 493.424 194.19 493.424 M189.514 491.434 Q186.505 490.693 184.815 488.633 Q183.149 486.573 183.149 483.61 Q183.149 479.466 186.088 477.059 Q189.051 474.651 194.19 474.651 Q199.352 474.651 202.292 477.059 Q205.232 479.466 205.232 483.61 Q205.232 486.573 203.542 488.633 Q201.875 490.693 198.889 491.434 Q202.269 492.221 204.144 494.512 Q206.042 496.804 206.042 500.114 Q206.042 505.137 202.963 507.823 Q199.908 510.508 194.19 510.508 Q188.473 510.508 185.394 507.823 Q182.338 505.137 182.338 500.114 Q182.338 496.804 184.237 494.512 Q186.135 492.221 189.514 491.434 M187.801 484.05 Q187.801 486.735 189.468 488.239 Q191.158 489.744 194.19 489.744 Q197.2 489.744 198.889 488.239 Q200.602 486.735 200.602 484.05 Q200.602 481.364 198.889 479.86 Q197.2 478.355 194.19 478.355 Q191.158 478.355 189.468 479.86 Q187.801 481.364 187.801 484.05 Z" fill="#000000" fill-rule="nonzero" fill-opacity="1" /><path clip-path="url(#clip020)" d="M224.352 478.355 Q220.741 478.355 218.912 481.92 Q217.107 485.462 217.107 492.591 Q217.107 499.698 218.912 503.262 Q220.741 506.804 224.352 506.804 Q227.986 506.804 229.792 503.262 Q231.621 499.698 231.621 492.591 Q231.621 485.462 229.792 481.92 Q227.986 478.355 224.352 478.355 M224.352 474.651 Q230.162 474.651 233.218 479.258 Q236.297 483.841 236.297 492.591 Q236.297 501.318 233.218 505.924 Q230.162 510.508 224.352 510.508 Q218.542 510.508 215.463 505.924 Q212.408 501.318 212.408 492.591 Q212.408 483.841 215.463 479.258 Q218.542 474.651 224.352 474.651 Z" fill="#000000" fill-rule="nonzero" fill-opacity="1" /><path clip-path="url(#clip020)" d="M254.514 478.355 Q250.903 478.355 249.074 481.92 Q247.269 485.462 247.269 492.591 Q247.269 499.698 249.074 503.262 Q250.903 506.804 254.514 506.804 Q258.148 506.804 259.954 503.262 Q261.783 499.698 261.783 492.591 Q261.783 485.462 259.954 481.92 Q258.148 478.355 254.514 478.355 M254.514 474.651 Q260.324 474.651 263.38 479.258 Q266.458 483.841 266.458 492.591 Q266.458 501.318 263.38 505.924 Q260.324 510.508 254.514 510.508 Q248.704 510.508 245.625 505.924 Q242.57 501.318 242.57 492.591 Q242.57 483.841 245.625 479.258 Q248.704 474.651 254.514 474.651 Z" fill="#000000" fill-rule="nonzero" fill-opacity="1" /><path clip-path="url(#clip020)" d="M284.676 478.355 Q281.065 478.355 279.236 481.92 Q277.431 485.462 277.431 492.591 Q277.431 499.698 279.236 503.262 Q281.065 506.804 284.676 506.804 Q288.31 506.804 290.116 503.262 Q291.944 499.698 291.944 492.591 Q291.944 485.462 290.116 481.92 Q288.31 478.355 284.676 478.355 M284.676 474.651 Q290.486 474.651 293.542 479.258 Q296.62 483.841 296.62 492.591 Q296.62 501.318 293.542 505.924 Q290.486 510.508 284.676 510.508 Q278.866 510.508 275.787 505.924 Q272.732 501.318 272.732 492.591 Q272.732 483.841 275.787 479.258 Q278.866 474.651 284.676 474.651 Z" fill="#000000" fill-rule="nonzero" fill-opacity="1" /><path clip-path="url(#clip020)" d="M144.422 154.291 L174.098 154.291 L174.098 158.226 L144.422 158.226 L144.422 154.291 Z" fill="#000000" fill-rule="nonzero" fill-opacity="1" /><path clip-path="url(#clip020)" d="M194.769 151.976 Q191.621 151.976 189.769 154.129 Q187.94 156.282 187.94 160.032 Q187.94 163.758 189.769 165.934 Q191.621 168.087 194.769 168.087 Q197.917 168.087 199.746 165.934 Q201.598 163.758 201.598 160.032 Q201.598 156.282 199.746 154.129 Q197.917 151.976 194.769 151.976 M204.051 137.323 L204.051 141.583 Q202.292 140.749 200.487 140.31 Q198.704 139.87 196.945 139.87 Q192.315 139.87 189.862 142.995 Q187.431 146.12 187.084 152.439 Q188.45 150.425 190.51 149.36 Q192.57 148.272 195.047 148.272 Q200.255 148.272 203.264 151.444 Q206.297 154.592 206.297 160.032 Q206.297 165.356 203.149 168.573 Q200 171.791 194.769 171.791 Q188.774 171.791 185.602 167.208 Q182.431 162.601 182.431 153.874 Q182.431 145.68 186.32 140.819 Q190.209 135.935 196.76 135.935 Q198.519 135.935 200.301 136.282 Q202.107 136.629 204.051 137.323 Z" fill="#000000" fill-rule="nonzero" fill-opacity="1" /><path clip-path="url(#clip020)" d="M224.352 139.638 Q220.741 139.638 218.912 143.203 Q217.107 146.745 217.107 153.874 Q217.107 160.981 218.912 164.546 Q220.741 168.087 224.352 168.087 Q227.986 168.087 229.792 164.546 Q231.621 160.981 231.621 153.874 Q231.621 146.745 229.792 143.203 Q227.986 139.638 224.352 139.638 M224.352 135.935 Q230.162 135.935 233.218 140.541 Q236.297 145.124 236.297 153.874 Q236.297 162.601 233.218 167.208 Q230.162 171.791 224.352 171.791 Q218.542 171.791 215.463 167.208 Q212.408 162.601 212.408 153.874 Q212.408 145.124 215.463 140.541 Q218.542 135.935 224.352 135.935 Z" fill="#000000" fill-rule="nonzero" fill-opacity="1" /><path clip-path="url(#clip020)" d="M254.514 139.638 Q250.903 139.638 249.074 143.203 Q247.269 146.745 247.269 153.874 Q247.269 160.981 249.074 164.546 Q250.903 168.087 254.514 168.087 Q258.148 168.087 259.954 164.546 Q261.783 160.981 261.783 153.874 Q261.783 146.745 259.954 143.203 Q258.148 139.638 254.514 139.638 M254.514 135.935 Q260.324 135.935 263.38 140.541 Q266.458 145.124 266.458 153.874 Q266.458 162.601 263.38 167.208 Q260.324 171.791 254.514 171.791 Q248.704 171.791 245.625 167.208 Q242.57 162.601 242.57 153.874 Q242.57 145.124 245.625 140.541 Q248.704 135.935 254.514 135.935 Z" fill="#000000" fill-rule="nonzero" fill-opacity="1" /><path clip-path="url(#clip020)" d="M284.676 139.638 Q281.065 139.638 279.236 143.203 Q277.431 146.745 277.431 153.874 Q277.431 160.981 279.236 164.546 Q281.065 168.087 284.676 168.087 Q288.31 168.087 290.116 164.546 Q291.944 160.981 291.944 153.874 Q291.944 146.745 290.116 143.203 Q288.31 139.638 284.676 139.638 M284.676 135.935 Q290.486 135.935 293.542 140.541 Q296.62 145.124 296.62 153.874 Q296.62 162.601 293.542 167.208 Q290.486 171.791 284.676 171.791 Q278.866 171.791 275.787 167.208 Q272.732 162.601 272.732 153.874 Q272.732 145.124 275.787 140.541 Q278.866 135.935 284.676 135.935 Z" fill="#000000" fill-rule="nonzero" fill-opacity="1" /><path clip-path="url(#clip020)" d="M16.4842 816.375 L16.4842 786.329 L21.895 786.329 L21.895 809.945 L35.9632 809.945 L35.9632 787.315 L41.3741 787.315 L41.3741 809.945 L58.5933 809.945 L58.5933 785.756 L64.0042 785.756 L64.0042 816.375 L16.4842 816.375 Z" fill="#000000" fill-rule="nonzero" fill-opacity="1" /><path clip-path="url(#clip020)" d="M16.4842 775.189 L16.4842 768.759 L58.5933 768.759 L58.5933 745.62 L64.0042 745.62 L64.0042 775.189 L16.4842 775.189 Z" fill="#000000" fill-rule="nonzero" fill-opacity="1" /><path clip-path="url(#clip020)" d="M41.3104 732.443 L58.7206 732.443 L58.7206 722.13 Q58.7206 716.942 56.5881 714.46 Q54.4238 711.945 49.9996 711.945 Q45.5436 711.945 43.4429 714.46 Q41.3104 716.942 41.3104 722.13 L41.3104 732.443 M21.7677 732.443 L36.0905 732.443 L36.0905 722.926 Q36.0905 718.216 34.34 715.924 Q32.5576 713.6 28.9291 713.6 Q25.3325 713.6 23.5501 715.924 Q21.7677 718.216 21.7677 722.926 L21.7677 732.443 M16.4842 738.872 L16.4842 722.449 Q16.4842 715.096 19.5397 711.118 Q22.5952 707.139 28.2289 707.139 Q32.5894 707.139 35.1675 709.176 Q37.7456 711.213 38.3822 715.16 Q39.4007 710.418 42.6472 707.808 Q45.8619 705.166 50.6998 705.166 Q57.0655 705.166 60.5348 709.495 Q64.0042 713.823 64.0042 721.812 L64.0042 738.872 L16.4842 738.872 Z" fill="#000000" fill-rule="nonzero" fill-opacity="1" /><path clip-path="url(#clip020)" d="M20.8447 676.011 Q20.8447 683.013 26.0645 687.151 Q31.2844 691.257 40.2919 691.257 Q49.2675 691.257 54.4874 687.151 Q59.7073 683.013 59.7073 676.011 Q59.7073 669.009 54.4874 664.935 Q49.2675 660.829 40.2919 660.829 Q31.2844 660.829 26.0645 664.935 Q20.8447 669.009 20.8447 676.011 M15.6248 676.011 Q15.6248 666.017 22.3406 660.033 Q29.0246 654.049 40.2919 654.049 Q51.5274 654.049 58.2432 660.033 Q64.9272 666.017 64.9272 676.011 Q64.9272 686.037 58.2432 692.052 Q51.5592 698.036 40.2919 698.036 Q29.0246 698.036 22.3406 692.052 Q15.6248 686.037 15.6248 676.011 Z" fill="#000000" fill-rule="nonzero" fill-opacity="1" /><polyline clip-path="url(#clip022)" style="stroke:#009af9; stroke-linecap:round; stroke-linejoin:round; stroke-width:4; stroke-opacity:1; fill:none" points="425.755,1384.24 492.752,593.693 553.205,407.083 616.512,307.905 676.735,277.51 737.267,268.283 796.768,250.801 856.238,241.526 917.999,234.937 979.411,230.183 1039.27,228.707 1097.69,209.953 1155.81,201.529 1214.02,198.329 1277.58,188.226 1336.79,180.786 1399.75,173.174 1461.71,174.929 1520.28,168.315 1580.68,155.635 1638.5,159.647 1696.65,150.993 1754.01,147.027 1814.91,135.768 1877,125.524 1937.55,117.981 1995.92,113.579 2054.82,106.11 2113.51,96.0635 2174.93,93.6016 2234.62,92.2373 2295.58,86.1857 "/>
<polyline clip-path="url(#clip022)" style="stroke:#e26f46; stroke-linecap:round; stroke-linejoin:round; stroke-width:4; stroke-opacity:1; fill:none" points="389.794,1244.02 418.145,625.38 429.835,415.818 440.384,366.299 455.058,333.91 465.695,304.598 476.451,273.63 487.254,272.185 497.904,261.591 508.488,255.879 519.437,244.458 530.046,236.35 540.895,227.31 551.47,221.255 562.057,217.733 572.89,218.206 583.429,207.628 594.199,198.269 604.742,199.1 615.218,189.676 625.894,186.235 636.326,182.529 646.821,171.936 657.541,168.636 668.025,162.457 678.763,157.674 689.185,150.232 699.558,146.074 710.251,144.972 720.675,137.732 731.124,130.377 741.871,125.806 "/>
<path clip-path="url(#clip020)" d="M1784.1 1377.32 L2285.42 1377.32 L2285.42 1221.8 L1784.1 1221.8  Z" fill="#ffffff" fill-rule="evenodd" fill-opacity="1"/>
<polyline clip-path="url(#clip020)" style="stroke:#000000; stroke-linecap:round; stroke-linejoin:round; stroke-width:4; stroke-opacity:1; fill:none" points="1784.1,1377.32 2285.42,1377.32 2285.42,1221.8 1784.1,1221.8 1784.1,1377.32 "/>
<polyline clip-path="url(#clip020)" style="stroke:#009af9; stroke-linecap:round; stroke-linejoin:round; stroke-width:4; stroke-opacity:1; fill:none" points="1806.55,1273.64 1941.22,1273.64 "/>
<path clip-path="url(#clip020)" d="M1963.67 1256.36 L1983.53 1256.36 L1983.53 1260.29 L1968.34 1260.29 L1968.34 1270.48 L1982.05 1270.48 L1982.05 1274.41 L1968.34 1274.41 L1968.34 1290.92 L1963.67 1290.92 L1963.67 1256.36 Z" fill="#000000" fill-rule="nonzero" fill-opacity="1" /><path clip-path="url(#clip020)" d="M1987.72 1280.68 L1987.72 1264.99 L1991.98 1264.99 L1991.98 1280.52 Q1991.98 1284.2 1993.41 1286.05 Q1994.85 1287.88 1997.72 1287.88 Q2001.17 1287.88 2003.16 1285.68 Q2005.17 1283.48 2005.17 1279.69 L2005.17 1264.99 L2009.43 1264.99 L2009.43 1290.92 L2005.17 1290.92 L2005.17 1286.93 Q2003.62 1289.29 2001.56 1290.45 Q1999.52 1291.59 1996.82 1291.59 Q1992.35 1291.59 1990.03 1288.81 Q1987.72 1286.03 1987.72 1280.68 M1998.44 1264.36 L1998.44 1264.36 Z" fill="#000000" fill-rule="nonzero" fill-opacity="1" /><path clip-path="url(#clip020)" d="M2018.2 1254.9 L2022.46 1254.9 L2022.46 1290.92 L2018.2 1290.92 L2018.2 1254.9 Z" fill="#000000" fill-rule="nonzero" fill-opacity="1" /><path clip-path="url(#clip020)" d="M2031.38 1254.9 L2035.64 1254.9 L2035.64 1290.92 L2031.38 1290.92 L2031.38 1254.9 Z" fill="#000000" fill-rule="nonzero" fill-opacity="1" /><path clip-path="url(#clip020)" d="M2064.48 1274.41 L2064.48 1287.07 L2071.98 1287.07 Q2075.75 1287.07 2077.56 1285.52 Q2079.39 1283.95 2079.39 1280.73 Q2079.39 1277.49 2077.56 1275.96 Q2075.75 1274.41 2071.98 1274.41 L2064.48 1274.41 M2064.48 1260.2 L2064.48 1270.61 L2071.4 1270.61 Q2074.82 1270.61 2076.49 1269.34 Q2078.18 1268.05 2078.18 1265.41 Q2078.18 1262.79 2076.49 1261.49 Q2074.82 1260.2 2071.4 1260.2 L2064.48 1260.2 M2059.8 1256.36 L2071.75 1256.36 Q2077.09 1256.36 2079.99 1258.58 Q2082.88 1260.8 2082.88 1264.9 Q2082.88 1268.07 2081.4 1269.94 Q2079.92 1271.82 2077.05 1272.28 Q2080.5 1273.02 2082.39 1275.38 Q2084.32 1277.72 2084.32 1281.24 Q2084.32 1285.87 2081.17 1288.39 Q2078.02 1290.92 2072.21 1290.92 L2059.8 1290.92 L2059.8 1256.36 Z" fill="#000000" fill-rule="nonzero" fill-opacity="1" /><path clip-path="url(#clip020)" d="M2103.92 1277.88 Q2098.76 1277.88 2096.77 1279.06 Q2094.78 1280.24 2094.78 1283.09 Q2094.78 1285.36 2096.26 1286.7 Q2097.76 1288.02 2100.33 1288.02 Q2103.88 1288.02 2106.01 1285.52 Q2108.16 1283 2108.16 1278.83 L2108.16 1277.88 L2103.92 1277.88 M2112.42 1276.12 L2112.42 1290.92 L2108.16 1290.92 L2108.16 1286.98 Q2106.7 1289.34 2104.52 1290.48 Q2102.35 1291.59 2099.2 1291.59 Q2095.22 1291.59 2092.86 1289.36 Q2090.52 1287.12 2090.52 1283.37 Q2090.52 1278.99 2093.44 1276.77 Q2096.38 1274.55 2102.19 1274.55 L2108.16 1274.55 L2108.16 1274.13 Q2108.16 1271.19 2106.21 1269.6 Q2104.29 1267.98 2100.8 1267.98 Q2098.57 1267.98 2096.47 1268.51 Q2094.36 1269.04 2092.42 1270.11 L2092.42 1266.17 Q2094.76 1265.27 2096.95 1264.83 Q2099.15 1264.36 2101.24 1264.36 Q2106.86 1264.36 2109.64 1267.28 Q2112.42 1270.2 2112.42 1276.12 Z" fill="#000000" fill-rule="nonzero" fill-opacity="1" /><path clip-path="url(#clip020)" d="M2125.4 1257.63 L2125.4 1264.99 L2134.18 1264.99 L2134.18 1268.3 L2125.4 1268.3 L2125.4 1282.37 Q2125.4 1285.54 2126.26 1286.45 Q2127.14 1287.35 2129.8 1287.35 L2134.18 1287.35 L2134.18 1290.92 L2129.8 1290.92 Q2124.87 1290.92 2123 1289.09 Q2121.12 1287.23 2121.12 1282.37 L2121.12 1268.3 L2118 1268.3 L2118 1264.99 L2121.12 1264.99 L2121.12 1257.63 L2125.4 1257.63 Z" fill="#000000" fill-rule="nonzero" fill-opacity="1" /><path clip-path="url(#clip020)" d="M2158.44 1265.98 L2158.44 1269.97 Q2156.63 1268.97 2154.8 1268.48 Q2153 1267.98 2151.14 1267.98 Q2147 1267.98 2144.71 1270.61 Q2142.42 1273.23 2142.42 1277.98 Q2142.42 1282.72 2144.71 1285.36 Q2147 1287.98 2151.14 1287.98 Q2153 1287.98 2154.8 1287.49 Q2156.63 1286.98 2158.44 1285.98 L2158.44 1289.92 Q2156.65 1290.75 2154.73 1291.17 Q2152.83 1291.59 2150.68 1291.59 Q2144.82 1291.59 2141.38 1287.91 Q2137.93 1284.23 2137.93 1277.98 Q2137.93 1271.63 2141.4 1268 Q2144.89 1264.36 2150.96 1264.36 Q2152.93 1264.36 2154.8 1264.78 Q2156.68 1265.17 2158.44 1265.98 Z" fill="#000000" fill-rule="nonzero" fill-opacity="1" /><path clip-path="url(#clip020)" d="M2187.39 1275.27 L2187.39 1290.92 L2183.13 1290.92 L2183.13 1275.41 Q2183.13 1271.73 2181.7 1269.9 Q2180.26 1268.07 2177.39 1268.07 Q2173.94 1268.07 2171.95 1270.27 Q2169.96 1272.47 2169.96 1276.26 L2169.96 1290.92 L2165.68 1290.92 L2165.68 1254.9 L2169.96 1254.9 L2169.96 1269.02 Q2171.49 1266.68 2173.55 1265.52 Q2175.63 1264.36 2178.34 1264.36 Q2182.81 1264.36 2185.1 1267.14 Q2187.39 1269.9 2187.39 1275.27 Z" fill="#000000" fill-rule="nonzero" fill-opacity="1" /><polyline clip-path="url(#clip020)" style="stroke:#e26f46; stroke-linecap:round; stroke-linejoin:round; stroke-width:4; stroke-opacity:1; fill:none" points="1806.55,1325.48 1941.22,1325.48 "/>
<path clip-path="url(#clip020)" d="M1985.91 1309.33 L1985.91 1313.89 Q1983.25 1312.62 1980.89 1311.99 Q1978.53 1311.37 1976.33 1311.37 Q1972.51 1311.37 1970.43 1312.85 Q1968.37 1314.33 1968.37 1317.06 Q1968.37 1319.35 1969.73 1320.53 Q1971.12 1321.69 1974.96 1322.41 L1977.79 1322.99 Q1983.02 1323.98 1985.5 1326.51 Q1988 1329.01 1988 1333.22 Q1988 1338.24 1984.62 1340.83 Q1981.26 1343.43 1974.76 1343.43 Q1972.3 1343.43 1969.52 1342.87 Q1966.77 1342.32 1963.81 1341.23 L1963.81 1336.41 Q1966.65 1338.01 1969.39 1338.82 Q1972.12 1339.63 1974.76 1339.63 Q1978.76 1339.63 1980.94 1338.06 Q1983.11 1336.48 1983.11 1333.57 Q1983.11 1331.02 1981.54 1329.58 Q1979.99 1328.15 1976.42 1327.43 L1973.58 1326.88 Q1968.34 1325.83 1966.01 1323.61 Q1963.67 1321.39 1963.67 1317.43 Q1963.67 1312.85 1966.89 1310.21 Q1970.13 1307.57 1975.8 1307.57 Q1978.23 1307.57 1980.75 1308.01 Q1983.27 1308.45 1985.91 1309.33 Z" fill="#000000" fill-rule="nonzero" fill-opacity="1" /><path clip-path="url(#clip020)" d="M1994.66 1332.52 L1994.66 1316.83 L1998.92 1316.83 L1998.92 1332.36 Q1998.92 1336.04 2000.36 1337.89 Q2001.79 1339.72 2004.66 1339.72 Q2008.11 1339.72 2010.1 1337.52 Q2012.12 1335.32 2012.12 1331.53 L2012.12 1316.83 L2016.38 1316.83 L2016.38 1342.76 L2012.12 1342.76 L2012.12 1338.77 Q2010.57 1341.13 2008.51 1342.29 Q2006.47 1343.43 2003.76 1343.43 Q1999.29 1343.43 1996.98 1340.65 Q1994.66 1337.87 1994.66 1332.52 M2005.38 1316.2 L2005.38 1316.2 Z" fill="#000000" fill-rule="nonzero" fill-opacity="1" /><path clip-path="url(#clip020)" d="M2043.76 1329.82 Q2043.76 1325.12 2041.82 1322.45 Q2039.89 1319.77 2036.51 1319.77 Q2033.14 1319.77 2031.19 1322.45 Q2029.27 1325.12 2029.27 1329.82 Q2029.27 1334.51 2031.19 1337.2 Q2033.14 1339.86 2036.51 1339.86 Q2039.89 1339.86 2041.82 1337.2 Q2043.76 1334.51 2043.76 1329.82 M2029.27 1320.76 Q2030.61 1318.45 2032.65 1317.34 Q2034.71 1316.2 2037.56 1316.2 Q2042.28 1316.2 2045.22 1319.95 Q2048.18 1323.7 2048.18 1329.82 Q2048.18 1335.93 2045.22 1339.68 Q2042.28 1343.43 2037.56 1343.43 Q2034.71 1343.43 2032.65 1342.32 Q2030.61 1341.18 2029.27 1338.87 L2029.27 1342.76 L2024.99 1342.76 L2024.99 1306.74 L2029.27 1306.74 L2029.27 1320.76 Z" fill="#000000" fill-rule="nonzero" fill-opacity="1" /><path clip-path="url(#clip020)" d="M2071.77 1317.59 L2071.77 1321.62 Q2069.96 1320.7 2068.02 1320.23 Q2066.08 1319.77 2063.99 1319.77 Q2060.82 1319.77 2059.22 1320.74 Q2057.65 1321.71 2057.65 1323.66 Q2057.65 1325.14 2058.78 1326 Q2059.92 1326.83 2063.34 1327.59 L2064.8 1327.92 Q2069.34 1328.89 2071.24 1330.67 Q2073.16 1332.43 2073.16 1335.6 Q2073.16 1339.21 2070.29 1341.32 Q2067.44 1343.43 2062.44 1343.43 Q2060.36 1343.43 2058.09 1343.01 Q2055.84 1342.62 2053.34 1341.81 L2053.34 1337.41 Q2055.7 1338.63 2058 1339.26 Q2060.29 1339.86 2062.53 1339.86 Q2065.54 1339.86 2067.16 1338.84 Q2068.78 1337.8 2068.78 1335.93 Q2068.78 1334.19 2067.6 1333.26 Q2066.45 1332.34 2062.49 1331.48 L2061.01 1331.14 Q2057.05 1330.3 2055.29 1328.59 Q2053.53 1326.85 2053.53 1323.84 Q2053.53 1320.19 2056.12 1318.2 Q2058.71 1316.2 2063.48 1316.2 Q2065.84 1316.2 2067.93 1316.55 Q2070.01 1316.9 2071.77 1317.59 Z" fill="#000000" fill-rule="nonzero" fill-opacity="1" /><path clip-path="url(#clip020)" d="M2091.72 1329.72 Q2086.56 1329.72 2084.57 1330.9 Q2082.58 1332.08 2082.58 1334.93 Q2082.58 1337.2 2084.06 1338.54 Q2085.57 1339.86 2088.14 1339.86 Q2091.68 1339.86 2093.81 1337.36 Q2095.96 1334.84 2095.96 1330.67 L2095.96 1329.72 L2091.72 1329.72 M2100.22 1327.96 L2100.22 1342.76 L2095.96 1342.76 L2095.96 1338.82 Q2094.5 1341.18 2092.32 1342.32 Q2090.15 1343.43 2087 1343.43 Q2083.02 1343.43 2080.66 1341.2 Q2078.32 1338.96 2078.32 1335.21 Q2078.32 1330.83 2081.24 1328.61 Q2084.18 1326.39 2089.99 1326.39 L2095.96 1326.39 L2095.96 1325.97 Q2095.96 1323.03 2094.01 1321.44 Q2092.09 1319.82 2088.6 1319.82 Q2086.38 1319.82 2084.27 1320.35 Q2082.16 1320.88 2080.22 1321.95 L2080.22 1318.01 Q2082.56 1317.11 2084.76 1316.67 Q2086.95 1316.2 2089.04 1316.2 Q2094.66 1316.2 2097.44 1319.12 Q2100.22 1322.04 2100.22 1327.96 Z" fill="#000000" fill-rule="nonzero" fill-opacity="1" /><path clip-path="url(#clip020)" d="M2129.18 1321.81 Q2130.77 1318.94 2133 1317.57 Q2135.22 1316.2 2138.23 1316.2 Q2142.28 1316.2 2144.48 1319.05 Q2146.68 1321.88 2146.68 1327.11 L2146.68 1342.76 L2142.39 1342.76 L2142.39 1327.25 Q2142.39 1323.52 2141.07 1321.71 Q2139.76 1319.91 2137.05 1319.91 Q2133.74 1319.91 2131.82 1322.11 Q2129.89 1324.31 2129.89 1328.1 L2129.89 1342.76 L2125.61 1342.76 L2125.61 1327.25 Q2125.61 1323.5 2124.29 1321.71 Q2122.97 1319.91 2120.22 1319.91 Q2116.95 1319.91 2115.03 1322.13 Q2113.11 1324.33 2113.11 1328.1 L2113.11 1342.76 L2108.83 1342.76 L2108.83 1316.83 L2113.11 1316.83 L2113.11 1320.86 Q2114.57 1318.47 2116.61 1317.34 Q2118.64 1316.2 2121.45 1316.2 Q2124.27 1316.2 2126.24 1317.64 Q2128.23 1319.07 2129.18 1321.81 Z" fill="#000000" fill-rule="nonzero" fill-opacity="1" /><path clip-path="url(#clip020)" d="M2159.29 1338.87 L2159.29 1352.62 L2155.01 1352.62 L2155.01 1316.83 L2159.29 1316.83 L2159.29 1320.76 Q2160.63 1318.45 2162.67 1317.34 Q2164.73 1316.2 2167.58 1316.2 Q2172.3 1316.2 2175.24 1319.95 Q2178.2 1323.7 2178.2 1329.82 Q2178.2 1335.93 2175.24 1339.68 Q2172.3 1343.43 2167.58 1343.43 Q2164.73 1343.43 2162.67 1342.32 Q2160.63 1341.18 2159.29 1338.87 M2173.78 1329.82 Q2173.78 1325.12 2171.84 1322.45 Q2169.92 1319.77 2166.54 1319.77 Q2163.16 1319.77 2161.21 1322.45 Q2159.29 1325.12 2159.29 1329.82 Q2159.29 1334.51 2161.21 1337.2 Q2163.16 1339.86 2166.54 1339.86 Q2169.92 1339.86 2171.84 1337.2 Q2173.78 1334.51 2173.78 1329.82 Z" fill="#000000" fill-rule="nonzero" fill-opacity="1" /><path clip-path="url(#clip020)" d="M2185.26 1306.74 L2189.52 1306.74 L2189.52 1342.76 L2185.26 1342.76 L2185.26 1306.74 Z" fill="#000000" fill-rule="nonzero" fill-opacity="1" /><path clip-path="url(#clip020)" d="M2198.44 1316.83 L2202.69 1316.83 L2202.69 1342.76 L2198.44 1342.76 L2198.44 1316.83 M2198.44 1306.74 L2202.69 1306.74 L2202.69 1312.13 L2198.44 1312.13 L2198.44 1306.74 Z" fill="#000000" fill-rule="nonzero" fill-opacity="1" /><path clip-path="url(#clip020)" d="M2233.16 1327.11 L2233.16 1342.76 L2228.9 1342.76 L2228.9 1327.25 Q2228.9 1323.57 2227.46 1321.74 Q2226.03 1319.91 2223.16 1319.91 Q2219.71 1319.91 2217.72 1322.11 Q2215.73 1324.31 2215.73 1328.1 L2215.73 1342.76 L2211.44 1342.76 L2211.44 1316.83 L2215.73 1316.83 L2215.73 1320.86 Q2217.25 1318.52 2219.31 1317.36 Q2221.4 1316.2 2224.11 1316.2 Q2228.57 1316.2 2230.87 1318.98 Q2233.16 1321.74 2233.16 1327.11 Z" fill="#000000" fill-rule="nonzero" fill-opacity="1" /><path clip-path="url(#clip020)" d="M2258.71 1329.49 Q2258.71 1324.86 2256.79 1322.32 Q2254.89 1319.77 2251.44 1319.77 Q2248.02 1319.77 2246.1 1322.32 Q2244.2 1324.86 2244.2 1329.49 Q2244.2 1334.1 2246.1 1336.64 Q2248.02 1339.19 2251.44 1339.19 Q2254.89 1339.19 2256.79 1336.64 Q2258.71 1334.1 2258.71 1329.49 M2262.97 1339.54 Q2262.97 1346.16 2260.03 1349.38 Q2257.09 1352.62 2251.03 1352.62 Q2248.78 1352.62 2246.79 1352.27 Q2244.8 1351.95 2242.93 1351.25 L2242.93 1347.11 Q2244.8 1348.13 2246.63 1348.61 Q2248.46 1349.1 2250.36 1349.1 Q2254.55 1349.1 2256.63 1346.9 Q2258.71 1344.72 2258.71 1340.3 L2258.71 1338.2 Q2257.39 1340.49 2255.33 1341.62 Q2253.27 1342.76 2250.4 1342.76 Q2245.63 1342.76 2242.72 1339.12 Q2239.8 1335.49 2239.8 1329.49 Q2239.8 1323.47 2242.72 1319.84 Q2245.63 1316.2 2250.4 1316.2 Q2253.27 1316.2 2255.33 1317.34 Q2257.39 1318.47 2258.71 1320.76 L2258.71 1316.83 L2262.97 1316.83 L2262.97 1339.54 Z" fill="#000000" fill-rule="nonzero" fill-opacity="1" /></svg>
