<?xml version="1.0" encoding="utf-8"?>
<svg xmlns="http://www.w3.org/2000/svg" xmlns:xlink="http://www.w3.org/1999/xlink" width="600" height="400" viewBox="0 0 2400 1600">
<defs>
  <clipPath id="clip800">
    <rect x="0" y="0" width="2400" height="1600"/>
  </clipPath>
</defs>
<path clip-path="url(#clip800)" d="M0 1600 L2400 1600 L2400 0 L0 0  Z" fill="#ffffff" fill-rule="evenodd" fill-opacity="1"/>
<defs>
  <clipPath id="clip801">
    <rect x="203" y="47" width="1910" height="1377"/>
  </clipPath>
</defs>
<path clip-path="url(#clip800)" d="M242.135 1423.18 L2352.76 1423.18 L2352.76 47.2441 L242.135 47.2441  Z" fill="#ffffff" fill-rule="evenodd" fill-opacity="1"/>
<defs>
  <clipPath id="clip802">
    <rect x="242" y="47" width="2112" height="1377"/>
  </clipPath>
</defs>
<polyline clip-path="url(#clip802)" style="stroke:#000000; stroke-linecap:round; stroke-linejoin:round; stroke-width:2; stroke-opacity:0.1; fill:none" points="295.21,1423.18 295.21,47.2441 "/>
<polyline clip-path="url(#clip802)" style="stroke:#000000; stroke-linecap:round; stroke-linejoin:round; stroke-width:2; stroke-opacity:0.1; fill:none" points="961.147,1423.18 961.147,47.2441 "/>
<polyline clip-path="url(#clip802)" style="stroke:#000000; stroke-linecap:round; stroke-linejoin:round; stroke-width:2; stroke-opacity:0.1; fill:none" points="1627.08,1423.18 1627.08,47.2441 "/>
<polyline clip-path="url(#clip802)" style="stroke:#000000; stroke-linecap:round; stroke-linejoin:round; stroke-width:2; stroke-opacity:0.1; fill:none" points="2293.02,1423.18 2293.02,47.2441 "/>
<polyline clip-path="url(#clip802)" style="stroke:#000000; stroke-linecap:round; stroke-linejoin:round; stroke-width:2; stroke-opacity:0.1; fill:none" points="242.135,1423.18 2352.76,1423.18 "/>
<polyline clip-path="url(#clip802)" style="stroke:#000000; stroke-linecap:round; stroke-linejoin:round; stroke-width:2; stroke-opacity:0.1; fill:none" points="242.135,1035.93 2352.76,1035.93 "/>
<polyline clip-path="url(#clip802)" style="stroke:#000000; stroke-linecap:round; stroke-linejoin:round; stroke-width:2; stroke-opacity:0.1; fill:none" points="242.135,648.689 2352.76,648.689 "/>
<polyline clip-path="url(#clip802)" style="stroke:#000000; stroke-linecap:round; stroke-linejoin:round; stroke-width:2; stroke-opacity:0.1; fill:none" points="242.135,261.443 2352.76,261.443 "/>
<polyline clip-path="url(#clip800)" style="stroke:#000000; stroke-linecap:round; stroke-linejoin:round; stroke-width:4; stroke-opacity:1; fill:none" points="242.135,1423.18 2352.76,1423.18 "/>
<polyline clip-path="url(#clip800)" style="stroke:#000000; stroke-linecap:round; stroke-linejoin:round; stroke-width:4; stroke-opacity:1; fill:none" points="295.21,1423.18 295.21,1404.28 "/>
<polyline clip-path="url(#clip800)" style="stroke:#000000; stroke-linecap:round; stroke-linejoin:round; stroke-width:4; stroke-opacity:1; fill:none" points="961.147,1423.18 961.147,1404.28 "/>
<polyline clip-path="url(#clip800)" style="stroke:#000000; stroke-linecap:round; stroke-linejoin:round; stroke-width:4; stroke-opacity:1; fill:none" points="1627.08,1423.18 1627.08,1404.28 "/>
<polyline clip-path="url(#clip800)" style="stroke:#000000; stroke-linecap:round; stroke-linejoin:round; stroke-width:4; stroke-opacity:1; fill:none" points="2293.02,1423.18 2293.02,1404.28 "/>
<path clip-path="url(#clip800)" d="M295.21 1454.1 Q291.599 1454.1 289.77 1457.66 Q287.965 1461.2 287.965 1468.33 Q287.965 1475.44 289.77 1479.01 Q291.599 1482.55 295.21 1482.55 Q298.844 1482.55 300.65 1479.01 Q302.478 1475.44 302.478 1468.33 Q302.478 1461.2 300.65 1457.66 Q298.844 1454.1 295.21 1454.1 M295.21 1450.39 Q301.02 1450.39 304.076 1455 Q307.154 1459.58 307.154 1468.33 Q307.154 1477.06 304.076 1481.67 Q301.02 1486.25 295.21 1486.25 Q289.4 1486.25 286.321 1481.67 Q283.265 1477.06 283.265 1468.33 Q283.265 1459.58 286.321 1455 Q289.4 1450.39 295.21 1450.39 Z" fill="#000000" fill-rule="nonzero" fill-opacity="1" /><path clip-path="url(#clip800)" d="M920.754 1481.64 L928.393 1481.64 L928.393 1455.28 L920.082 1456.95 L920.082 1452.69 L928.346 1451.02 L933.022 1451.02 L933.022 1481.64 L940.661 1481.64 L940.661 1485.58 L920.754 1485.58 L920.754 1481.64 Z" fill="#000000" fill-rule="nonzero" fill-opacity="1" /><path clip-path="url(#clip800)" d="M960.105 1454.1 Q956.494 1454.1 954.666 1457.66 Q952.86 1461.2 952.86 1468.33 Q952.86 1475.44 954.666 1479.01 Q956.494 1482.55 960.105 1482.55 Q963.74 1482.55 965.545 1479.01 Q967.374 1475.44 967.374 1468.33 Q967.374 1461.2 965.545 1457.66 Q963.74 1454.1 960.105 1454.1 M960.105 1450.39 Q965.916 1450.39 968.971 1455 Q972.05 1459.58 972.05 1468.33 Q972.05 1477.06 968.971 1481.67 Q965.916 1486.25 960.105 1486.25 Q954.295 1486.25 951.217 1481.67 Q948.161 1477.06 948.161 1468.33 Q948.161 1459.58 951.217 1455 Q954.295 1450.39 960.105 1450.39 Z" fill="#000000" fill-rule="nonzero" fill-opacity="1" /><path clip-path="url(#clip800)" d="M990.267 1454.1 Q986.656 1454.1 984.827 1457.66 Q983.022 1461.2 983.022 1468.33 Q983.022 1475.44 984.827 1479.01 Q986.656 1482.55 990.267 1482.55 Q993.901 1482.55 995.707 1479.01 Q997.536 1475.44 997.536 1468.33 Q997.536 1461.2 995.707 1457.66 Q993.901 1454.1 990.267 1454.1 M990.267 1450.39 Q996.077 1450.39 999.133 1455 Q1002.21 1459.58 1002.21 1468.33 Q1002.21 1477.06 999.133 1481.67 Q996.077 1486.25 990.267 1486.25 Q984.457 1486.25 981.378 1481.67 Q978.323 1477.06 978.323 1468.33 Q978.323 1459.58 981.378 1455 Q984.457 1450.39 990.267 1450.39 Z" fill="#000000" fill-rule="nonzero" fill-opacity="1" /><path clip-path="url(#clip800)" d="M1590.78 1481.64 L1607.1 1481.64 L1607.1 1485.58 L1585.15 1485.58 L1585.15 1481.64 Q1587.81 1478.89 1592.4 1474.26 Q1597 1469.61 1598.18 1468.27 Q1600.43 1465.74 1601.31 1464.01 Q1602.21 1462.25 1602.21 1460.56 Q1602.21 1457.8 1600.27 1456.07 Q1598.35 1454.33 1595.24 1454.33 Q1593.05 1454.33 1590.59 1455.09 Q1588.16 1455.86 1585.38 1457.41 L1585.38 1452.69 Q1588.21 1451.55 1590.66 1450.97 Q1593.11 1450.39 1595.15 1450.39 Q1600.52 1450.39 1603.72 1453.08 Q1606.91 1455.77 1606.91 1460.26 Q1606.91 1462.39 1606.1 1464.31 Q1605.31 1466.2 1603.21 1468.8 Q1602.63 1469.47 1599.53 1472.69 Q1596.42 1475.88 1590.78 1481.64 Z" fill="#000000" fill-rule="nonzero" fill-opacity="1" /><path clip-path="url(#clip800)" d="M1626.91 1454.1 Q1623.3 1454.1 1621.47 1457.66 Q1619.67 1461.2 1619.67 1468.33 Q1619.67 1475.44 1621.47 1479.01 Q1623.3 1482.55 1626.91 1482.55 Q1630.54 1482.55 1632.35 1479.01 Q1634.18 1475.44 1634.18 1468.33 Q1634.18 1461.2 1632.35 1457.66 Q1630.54 1454.1 1626.91 1454.1 M1626.91 1450.39 Q1632.72 1450.39 1635.78 1455 Q1638.85 1459.58 1638.85 1468.33 Q1638.85 1477.06 1635.78 1481.67 Q1632.72 1486.25 1626.91 1486.25 Q1621.1 1486.25 1618.02 1481.67 Q1614.97 1477.06 1614.97 1468.33 Q1614.97 1459.58 1618.02 1455 Q1621.1 1450.39 1626.91 1450.39 Z" fill="#000000" fill-rule="nonzero" fill-opacity="1" /><path clip-path="url(#clip800)" d="M1657.07 1454.1 Q1653.46 1454.1 1651.63 1457.66 Q1649.83 1461.2 1649.83 1468.33 Q1649.83 1475.44 1651.63 1479.01 Q1653.46 1482.55 1657.07 1482.55 Q1660.71 1482.55 1662.51 1479.01 Q1664.34 1475.44 1664.34 1468.33 Q1664.34 1461.2 1662.51 1457.66 Q1660.71 1454.1 1657.07 1454.1 M1657.07 1450.39 Q1662.88 1450.39 1665.94 1455 Q1669.02 1459.58 1669.02 1468.33 Q1669.02 1477.06 1665.94 1481.67 Q1662.88 1486.25 1657.07 1486.25 Q1651.26 1486.25 1648.18 1481.67 Q1645.13 1477.06 1645.13 1468.33 Q1645.13 1459.58 1648.18 1455 Q1651.26 1450.39 1657.07 1450.39 Z" fill="#000000" fill-rule="nonzero" fill-opacity="1" /><path clip-path="url(#clip800)" d="M2266.78 1466.95 Q2270.14 1467.66 2272.01 1469.93 Q2273.91 1472.2 2273.91 1475.53 Q2273.91 1480.65 2270.39 1483.45 Q2266.88 1486.25 2260.39 1486.25 Q2258.22 1486.25 2255.9 1485.81 Q2253.61 1485.39 2251.16 1484.54 L2251.16 1480.02 Q2253.1 1481.16 2255.42 1481.74 Q2257.73 1482.32 2260.26 1482.32 Q2264.65 1482.32 2266.95 1480.58 Q2269.26 1478.84 2269.26 1475.53 Q2269.26 1472.48 2267.11 1470.77 Q2264.98 1469.03 2261.16 1469.03 L2257.13 1469.03 L2257.13 1465.19 L2261.34 1465.19 Q2264.79 1465.19 2266.62 1463.82 Q2268.45 1462.43 2268.45 1459.84 Q2268.45 1457.18 2266.55 1455.77 Q2264.68 1454.33 2261.16 1454.33 Q2259.24 1454.33 2257.04 1454.75 Q2254.84 1455.16 2252.2 1456.04 L2252.2 1451.88 Q2254.86 1451.14 2257.18 1450.77 Q2259.51 1450.39 2261.57 1450.39 Q2266.9 1450.39 2270 1452.83 Q2273.1 1455.23 2273.1 1459.35 Q2273.1 1462.22 2271.46 1464.21 Q2269.82 1466.18 2266.78 1466.95 Z" fill="#000000" fill-rule="nonzero" fill-opacity="1" /><path clip-path="url(#clip800)" d="M2292.78 1454.1 Q2289.17 1454.1 2287.34 1457.66 Q2285.53 1461.2 2285.53 1468.33 Q2285.53 1475.44 2287.34 1479.01 Q2289.17 1482.55 2292.78 1482.55 Q2296.41 1482.55 2298.22 1479.01 Q2300.05 1475.44 2300.05 1468.33 Q2300.05 1461.2 2298.22 1457.66 Q2296.41 1454.1 2292.78 1454.1 M2292.78 1450.39 Q2298.59 1450.39 2301.64 1455 Q2304.72 1459.58 2304.72 1468.33 Q2304.72 1477.06 2301.64 1481.67 Q2298.59 1486.25 2292.78 1486.25 Q2286.97 1486.25 2283.89 1481.67 Q2280.83 1477.06 2280.83 1468.33 Q2280.83 1459.58 2283.89 1455 Q2286.97 1450.39 2292.78 1450.39 Z" fill="#000000" fill-rule="nonzero" fill-opacity="1" /><path clip-path="url(#clip800)" d="M2322.94 1454.1 Q2319.33 1454.1 2317.5 1457.66 Q2315.69 1461.2 2315.69 1468.33 Q2315.69 1475.44 2317.5 1479.01 Q2319.33 1482.55 2322.94 1482.55 Q2326.57 1482.55 2328.38 1479.01 Q2330.21 1475.44 2330.21 1468.33 Q2330.21 1461.2 2328.38 1457.66 Q2326.57 1454.1 2322.94 1454.1 M2322.94 1450.39 Q2328.75 1450.39 2331.81 1455 Q2334.88 1459.58 2334.88 1468.33 Q2334.88 1477.06 2331.81 1481.67 Q2328.75 1486.25 2322.94 1486.25 Q2317.13 1486.25 2314.05 1481.67 Q2311 1477.06 2311 1468.33 Q2311 1459.58 2314.05 1455 Q2317.13 1450.39 2322.94 1450.39 Z" fill="#000000" fill-rule="nonzero" fill-opacity="1" /><path clip-path="url(#clip800)" d="M1165.17 1520.52 L1171.6 1520.52 L1171.6 1568.04 L1165.17 1568.04 L1165.17 1520.52 Z" fill="#000000" fill-rule="nonzero" fill-opacity="1" /><path clip-path="url(#clip800)" d="M1189.93 1522.27 L1189.93 1532.4 L1201.99 1532.4 L1201.99 1536.95 L1189.93 1536.95 L1189.93 1556.3 Q1189.93 1560.66 1191.11 1561.9 Q1192.32 1563.14 1195.98 1563.14 L1201.99 1563.14 L1201.99 1568.04 L1195.98 1568.04 Q1189.2 1568.04 1186.62 1565.53 Q1184.04 1562.98 1184.04 1556.3 L1184.04 1536.95 L1179.74 1536.95 L1179.74 1532.4 L1184.04 1532.4 L1184.04 1522.27 L1189.93 1522.27 Z" fill="#000000" fill-rule="nonzero" fill-opacity="1" /><path clip-path="url(#clip800)" d="M1240.19 1548.76 L1240.19 1551.62 L1213.26 1551.62 Q1213.64 1557.67 1216.89 1560.85 Q1220.17 1564 1225.99 1564 Q1229.36 1564 1232.52 1563.17 Q1235.7 1562.35 1238.82 1560.69 L1238.82 1566.23 Q1235.67 1567.57 1232.36 1568.27 Q1229.05 1568.97 1225.64 1568.97 Q1217.11 1568.97 1212.11 1564 Q1207.15 1559.04 1207.15 1550.57 Q1207.15 1541.82 1211.86 1536.69 Q1216.6 1531.54 1224.62 1531.54 Q1231.81 1531.54 1235.98 1536.18 Q1240.19 1540.8 1240.19 1548.76 M1234.33 1547.04 Q1234.27 1542.23 1231.62 1539.37 Q1229.01 1536.5 1224.69 1536.5 Q1219.78 1536.5 1216.82 1539.27 Q1213.9 1542.04 1213.45 1547.07 L1234.33 1547.04 Z" fill="#000000" fill-rule="nonzero" fill-opacity="1" /><path clip-path="url(#clip800)" d="M1270.45 1537.87 Q1269.47 1537.3 1268.29 1537.04 Q1267.14 1536.76 1265.74 1536.76 Q1260.78 1536.76 1258.11 1540 Q1255.46 1543.22 1255.46 1549.27 L1255.46 1568.04 L1249.58 1568.04 L1249.58 1532.4 L1255.46 1532.4 L1255.46 1537.93 Q1257.31 1534.69 1260.27 1533.13 Q1263.23 1531.54 1267.46 1531.54 Q1268.07 1531.54 1268.8 1531.63 Q1269.53 1531.7 1270.42 1531.85 L1270.45 1537.87 Z" fill="#000000" fill-rule="nonzero" fill-opacity="1" /><path clip-path="url(#clip800)" d="M1292.8 1550.12 Q1285.7 1550.12 1282.96 1551.75 Q1280.23 1553.37 1280.23 1557.29 Q1280.23 1560.4 1282.26 1562.25 Q1284.33 1564.07 1287.86 1564.07 Q1292.73 1564.07 1295.66 1560.63 Q1298.62 1557.16 1298.62 1551.43 L1298.62 1550.12 L1292.8 1550.12 M1304.48 1547.71 L1304.48 1568.04 L1298.62 1568.04 L1298.62 1562.63 Q1296.62 1565.88 1293.63 1567.44 Q1290.63 1568.97 1286.31 1568.97 Q1280.83 1568.97 1277.58 1565.91 Q1274.37 1562.82 1274.37 1557.67 Q1274.37 1551.65 1278.38 1548.6 Q1282.42 1545.54 1290.41 1545.54 L1298.62 1545.54 L1298.62 1544.97 Q1298.62 1540.93 1295.95 1538.73 Q1293.31 1536.5 1288.5 1536.5 Q1285.45 1536.5 1282.55 1537.23 Q1279.65 1537.97 1276.98 1539.43 L1276.98 1534.02 Q1280.19 1532.78 1283.22 1532.17 Q1286.24 1531.54 1289.11 1531.54 Q1296.84 1531.54 1300.66 1535.55 Q1304.48 1539.56 1304.48 1547.71 Z" fill="#000000" fill-rule="nonzero" fill-opacity="1" /><path clip-path="url(#clip800)" d="M1322.34 1522.27 L1322.34 1532.4 L1334.4 1532.4 L1334.4 1536.95 L1322.34 1536.95 L1322.34 1556.3 Q1322.34 1560.66 1323.51 1561.9 Q1324.72 1563.14 1328.38 1563.14 L1334.4 1563.14 L1334.4 1568.04 L1328.38 1568.04 Q1321.6 1568.04 1319.03 1565.53 Q1316.45 1562.98 1316.45 1556.3 L1316.45 1536.95 L1312.15 1536.95 L1312.15 1532.4 L1316.45 1532.4 L1316.45 1522.27 L1322.34 1522.27 Z" fill="#000000" fill-rule="nonzero" fill-opacity="1" /><path clip-path="url(#clip800)" d="M1342.1 1532.4 L1347.96 1532.4 L1347.96 1568.04 L1342.1 1568.04 L1342.1 1532.4 M1342.1 1518.52 L1347.96 1518.52 L1347.96 1525.93 L1342.1 1525.93 L1342.1 1518.52 Z" fill="#000000" fill-rule="nonzero" fill-opacity="1" /><path clip-path="url(#clip800)" d="M1374.02 1536.5 Q1369.31 1536.5 1366.58 1540.19 Q1363.84 1543.85 1363.84 1550.25 Q1363.84 1556.65 1366.55 1560.34 Q1369.28 1564 1374.02 1564 Q1378.7 1564 1381.44 1560.31 Q1384.18 1556.62 1384.18 1550.25 Q1384.18 1543.92 1381.44 1540.23 Q1378.7 1536.5 1374.02 1536.5 M1374.02 1531.54 Q1381.66 1531.54 1386.02 1536.5 Q1390.38 1541.47 1390.38 1550.25 Q1390.38 1559 1386.02 1564 Q1381.66 1568.97 1374.02 1568.97 Q1366.35 1568.97 1361.99 1564 Q1357.66 1559 1357.66 1550.25 Q1357.66 1541.47 1361.99 1536.5 Q1366.35 1531.54 1374.02 1531.54 Z" fill="#000000" fill-rule="nonzero" fill-opacity="1" /><path clip-path="url(#clip800)" d="M1429.72 1546.53 L1429.72 1568.04 L1423.87 1568.04 L1423.87 1546.72 Q1423.87 1541.66 1421.89 1539.14 Q1419.92 1536.63 1415.97 1536.63 Q1411.23 1536.63 1408.5 1539.65 Q1405.76 1542.68 1405.76 1547.9 L1405.76 1568.04 L1399.87 1568.04 L1399.87 1532.4 L1405.76 1532.4 L1405.76 1537.93 Q1407.86 1534.72 1410.69 1533.13 Q1413.56 1531.54 1417.28 1531.54 Q1423.42 1531.54 1426.57 1535.36 Q1429.72 1539.14 1429.72 1546.53 Z" fill="#000000" fill-rule="nonzero" fill-opacity="1" /><polyline clip-path="url(#clip800)" style="stroke:#000000; stroke-linecap:round; stroke-linejoin:round; stroke-width:4; stroke-opacity:1; fill:none" points="242.135,1423.18 242.135,47.2441 "/>
<polyline clip-path="url(#clip800)" style="stroke:#000000; stroke-linecap:round; stroke-linejoin:round; stroke-width:4; stroke-opacity:1; fill:none" points="242.135,1423.18 261.032,1423.18 "/>
<polyline clip-path="url(#clip800)" style="stroke:#000000; stroke-linecap:round; stroke-linejoin:round; stroke-width:4; stroke-opacity:1; fill:none" points="242.135,1035.93 261.032,1035.93 "/>
<polyline clip-path="url(#clip800)" style="stroke:#000000; stroke-linecap:round; stroke-linejoin:round; stroke-width:4; stroke-opacity:1; fill:none" points="242.135,648.689 261.032,648.689 "/>
<polyline clip-path="url(#clip800)" style="stroke:#000000; stroke-linecap:round; stroke-linejoin:round; stroke-width:4; stroke-opacity:1; fill:none" points="242.135,261.443 261.032,261.443 "/>
<path clip-path="url(#clip800)" d="M114.26 1423.63 L143.936 1423.63 L143.936 1427.57 L114.26 1427.57 L114.26 1423.63 Z" fill="#000000" fill-rule="nonzero" fill-opacity="1" /><path clip-path="url(#clip800)" d="M154.839 1436.52 L162.477 1436.52 L162.477 1410.16 L154.167 1411.83 L154.167 1407.57 L162.431 1405.9 L167.107 1405.9 L167.107 1436.52 L174.746 1436.52 L174.746 1440.46 L154.839 1440.46 L154.839 1436.52 Z" fill="#000000" fill-rule="nonzero" fill-opacity="1" /><path clip-path="url(#clip800)" d="M194.19 1408.98 Q190.579 1408.98 188.75 1412.54 Q186.945 1416.08 186.945 1423.21 Q186.945 1430.32 188.75 1433.89 Q190.579 1437.43 194.19 1437.43 Q197.825 1437.43 199.63 1433.89 Q201.459 1430.32 201.459 1423.21 Q201.459 1416.08 199.63 1412.54 Q197.825 1408.98 194.19 1408.98 M194.19 1405.27 Q200 1405.27 203.056 1409.88 Q206.135 1414.46 206.135 1423.21 Q206.135 1431.94 203.056 1436.55 Q200 1441.13 194.19 1441.13 Q188.38 1441.13 185.301 1436.55 Q182.246 1431.94 182.246 1423.21 Q182.246 1414.46 185.301 1409.88 Q188.38 1405.27 194.19 1405.27 Z" fill="#000000" fill-rule="nonzero" fill-opacity="1" /><path clip-path="url(#clip800)" d="M144.515 1036.39 L174.19 1036.39 L174.19 1040.32 L144.515 1040.32 L144.515 1036.39 Z" fill="#000000" fill-rule="nonzero" fill-opacity="1" /><path clip-path="url(#clip800)" d="M194.283 1036.8 Q190.95 1036.8 189.028 1038.58 Q187.13 1040.37 187.13 1043.49 Q187.13 1046.62 189.028 1048.4 Q190.95 1050.18 194.283 1050.18 Q197.616 1050.18 199.537 1048.4 Q201.459 1046.59 201.459 1043.49 Q201.459 1040.37 199.537 1038.58 Q197.639 1036.8 194.283 1036.8 M189.607 1034.81 Q186.598 1034.07 184.908 1032.01 Q183.241 1029.95 183.241 1026.99 Q183.241 1022.84 186.181 1020.44 Q189.144 1018.03 194.283 1018.03 Q199.445 1018.03 202.385 1020.44 Q205.324 1022.84 205.324 1026.99 Q205.324 1029.95 203.635 1032.01 Q201.968 1034.07 198.982 1034.81 Q202.362 1035.6 204.237 1037.89 Q206.135 1040.18 206.135 1043.49 Q206.135 1048.52 203.056 1051.2 Q200 1053.89 194.283 1053.89 Q188.565 1053.89 185.487 1051.2 Q182.431 1048.52 182.431 1043.49 Q182.431 1040.18 184.329 1037.89 Q186.227 1035.6 189.607 1034.81 M187.894 1027.43 Q187.894 1030.11 189.561 1031.62 Q191.25 1033.12 194.283 1033.12 Q197.292 1033.12 198.982 1031.62 Q200.695 1030.11 200.695 1027.43 Q200.695 1024.74 198.982 1023.24 Q197.292 1021.73 194.283 1021.73 Q191.25 1021.73 189.561 1023.24 Q187.894 1024.74 187.894 1027.43 Z" fill="#000000" fill-rule="nonzero" fill-opacity="1" /><path clip-path="url(#clip800)" d="M144.26 649.14 L173.936 649.14 L173.936 653.075 L144.26 653.075 L144.26 649.14 Z" fill="#000000" fill-rule="nonzero" fill-opacity="1" /><path clip-path="url(#clip800)" d="M194.607 646.825 Q191.459 646.825 189.607 648.978 Q187.778 651.131 187.778 654.881 Q187.778 658.607 189.607 660.783 Q191.459 662.936 194.607 662.936 Q197.755 662.936 199.584 660.783 Q201.436 658.607 201.436 654.881 Q201.436 651.131 199.584 648.978 Q197.755 646.825 194.607 646.825 M203.889 632.172 L203.889 636.432 Q202.13 635.598 200.325 635.158 Q198.542 634.719 196.783 634.719 Q192.153 634.719 189.7 637.844 Q187.269 640.969 186.922 647.288 Q188.288 645.274 190.348 644.209 Q192.408 643.121 194.885 643.121 Q200.093 643.121 203.102 646.293 Q206.135 649.441 206.135 654.881 Q206.135 660.205 202.987 663.422 Q199.838 666.64 194.607 666.64 Q188.612 666.64 185.44 662.056 Q182.269 657.45 182.269 648.723 Q182.269 640.529 186.158 635.668 Q190.047 630.784 196.598 630.784 Q198.357 630.784 200.139 631.131 Q201.945 631.478 203.889 632.172 Z" fill="#000000" fill-rule="nonzero" fill-opacity="1" /><path clip-path="url(#clip800)" d="M143.936 261.894 L173.612 261.894 L173.612 265.829 L143.936 265.829 L143.936 261.894 Z" fill="#000000" fill-rule="nonzero" fill-opacity="1" /><path clip-path="url(#clip800)" d="M196.551 248.237 L184.746 266.686 L196.551 266.686 L196.551 248.237 M195.325 244.163 L201.204 244.163 L201.204 266.686 L206.135 266.686 L206.135 270.575 L201.204 270.575 L201.204 278.723 L196.551 278.723 L196.551 270.575 L180.95 270.575 L180.95 266.061 L195.325 244.163 Z" fill="#000000" fill-rule="nonzero" fill-opacity="1" /><path clip-path="url(#clip800)" d="M16.4842 816.375 L16.4842 786.329 L21.895 786.329 L21.895 809.945 L35.9632 809.945 L35.9632 787.315 L41.3741 787.315 L41.3741 809.945 L58.5933 809.945 L58.5933 785.756 L64.0042 785.756 L64.0042 816.375 L16.4842 816.375 Z" fill="#000000" fill-rule="nonzero" fill-opacity="1" /><path clip-path="url(#clip800)" d="M16.4842 775.189 L16.4842 768.759 L58.5933 768.759 L58.5933 745.62 L64.0042 745.62 L64.0042 775.189 L16.4842 775.189 Z" fill="#000000" fill-rule="nonzero" fill-opacity="1" /><path clip-path="url(#clip800)" d="M41.3104 732.443 L58.7206 732.443 L58.7206 722.13 Q58.7206 716.942 56.5881 714.46 Q54.4238 711.945 49.9996 711.945 Q45.5436 711.945 43.4429 714.46 Q41.3104 716.942 41.3104 722.13 L41.3104 732.443 M21.7677 732.443 L36.0905 732.443 L36.0905 722.926 Q36.0905 718.216 34.34 715.924 Q32.5576 713.6 28.9291 713.6 Q25.3325 713.6 23.5501 715.924 Q21.7677 718.216 21.7677 722.926 L21.7677 732.443 M16.4842 738.872 L16.4842 722.449 Q16.4842 715.096 19.5397 711.118 Q22.5952 707.139 28.2289 707.139 Q32.5894 707.139 35.1675 709.176 Q37.7456 711.213 38.3822 715.16 Q39.4007 710.418 42.6472 707.808 Q45.8619 705.166 50.6998 705.166 Q57.0655 705.166 60.5348 709.495 Q64.0042 713.823 64.0042 721.812 L64.0042 738.872 L16.4842 738.872 Z" fill="#000000" fill-rule="nonzero" fill-opacity="1" /><path clip-path="url(#clip800)" d="M20.8447 676.011 Q20.8447 683.013 26.0645 687.151 Q31.2844 691.257 40.2919 691.257 Q49.2675 691.257 54.4874 687.151 Q59.7073 683.013 59.7073 676.011 Q59.7073 669.009 54.4874 664.935 Q49.2675 660.829 40.2919 660.829 Q31.2844 660.829 26.0645 664.935 Q20.8447 669.009 20.8447 676.011 M15.6248 676.011 Q15.6248 666.017 22.3406 660.033 Q29.0246 654.049 40.2919 654.049 Q51.5274 654.049 58.2432 660.033 Q64.9272 666.017 64.9272 676.011 Q64.9272 686.037 58.2432 692.052 Q51.5592 698.036 40.2919 698.036 Q29.0246 698.036 22.3406 692.052 Q15.6248 686.037 15.6248 676.011 Z" fill="#000000" fill-rule="nonzero" fill-opacity="1" /><polyline clip-path="url(#clip802)" style="stroke:#009af9; stroke-linecap:round; stroke-linejoin:round; stroke-width:4; stroke-opacity:1; fill:none" points="301.869,964.316 308.529,1179.87 315.188,475.837 321.847,550.141 328.507,826.002 335.166,1030.73 341.825,455.564 348.485,459.427 355.144,492.845 361.804,559.029 368.463,528.434 375.122,378.203 381.782,398.308 388.441,494.082 395.1,640.773 401.76,700.295 408.419,655.783 415.079,727.948 421.738,742.644 428.397,674.818 435.057,397.522 441.716,393.014 448.375,338.311 455.035,294.755 461.694,407.443 468.354,291.901 475.013,267.985 481.672,654.068 488.332,251.568 494.991,218.84 501.65,180.003 508.31,311.52 514.969,315.742 521.628,268.402 528.288,228.871 534.947,292.805 541.607,293.733 548.266,224.95 554.925,318.478 561.585,165.37 568.244,238.853 574.903,175.646 581.563,163.674 588.222,205.158 594.882,590.465 601.541,213.999 608.2,153.096 614.86,260.544 621.519,75.4969 628.178,254.776 634.838,262.173 641.497,243.445 648.157,198.127 654.816,210.849 661.475,149.196 668.135,179.537 674.794,138.344 681.453,138.997 688.113,171.699 694.772,170.554 701.432,179.033 708.091,188.48 714.75,92.2434 721.41,157.976 728.069,172.608 734.728,165.374 741.388,105.183 748.047,158.858 754.706,72.5735 761.366,207.969 768.025,176.323 774.685,183.859 781.344,134.715 788.003,192.667 794.663,308.353 801.322,246.256 807.981,269.039 814.641,199.088 821.3,180.166 827.96,107.377 834.619,136.136 841.278,111.564 847.938,203.235 854.597,212.353 861.256,176.895 867.916,176.221 874.575,169.302 881.235,155.915 887.894,106.765 894.553,152.843 901.213,166.541 907.872,166.943 914.531,125.537 921.191,74.3511 927.85,170.827 934.51,118.565 941.169,141.956 947.828,191.833 954.488,188.864 961.147,101.031 967.806,138.564 974.466,245.544 981.125,160.744 987.785,116.774 994.444,143.248 1001.1,146.167 1007.76,100.241 1014.42,167.762 1021.08,127.943 1027.74,229.622 1034.4,135.143 1041.06,136.296 1047.72,158.321 1054.38,160.642 1061.04,161.75 1067.7,137.681 1074.36,150.669 1081.02,157.241 1087.68,168.065 1094.33,151.444 1100.99,172.903 1107.65,100.957 1114.31,168.312 1120.97,141.607 1127.63,132.929 1134.29,112.945 1140.95,68.7052 1147.61,207.435 1154.27,139.632 1160.93,124.39 1167.59,193.919 1174.25,125.098 1180.91,105.38 1187.57,105.211 1194.23,134.513 1200.88,167.968 1207.54,119.19 1214.2,83.578 1220.86,125.921 1227.52,98.0177 1234.18,129.034 1240.84,95.656 1247.5,133.009 1254.16,170.037 1260.82,105.325 1267.48,125.301 1274.14,47.2441 1280.8,145.922 1287.46,86.9456 1294.12,191.891 1300.77,196.109 1307.43,176.538 1314.09,259.205 1320.75,94.3436 1327.41,184.722 1334.07,86.5342 1340.73,159.326 1347.39,122.32 1354.05,156.884 1360.71,229.811 1367.37,163.751 1374.03,109.747 1380.69,111.354 1387.35,110.861 1394.01,167.827 1400.67,140.045 1407.32,113.635 1413.98,118.725 1420.64,130.746 1427.3,111.222 1433.96,145.137 1440.62,202.764 1447.28,132.323 1453.94,143.23 1460.6,203.867 1467.26,210.994 1473.92,206.077 1480.58,140.418 1487.24,174.001 1493.9,135.587 1500.56,106.222 1507.22,131.461 1513.87,172.366 1520.53,354.636 1527.19,233.316 1533.85,127.717 1540.51,264.28 1547.17,325.737 1553.83,155.459 1560.49,196.539 1567.15,185.785 1573.81,161.567 1580.47,181.269 1587.13,106.02 1593.79,206.553 1600.45,103.851 1607.11,169.334 1613.77,144.68 1620.42,167.111 1627.08,157.087 1633.74,150.751 1640.4,179.256 1647.06,200.22 1653.72,156.479 1660.38,182.444 1667.04,122.103 1673.7,109.619 1680.36,118.899 1687.02,215.037 1693.68,107.75 1700.34,108.009 1707,120.655 1713.66,164.259 1720.32,132.069 1726.97,160.045 1733.63,197.88 1740.29,281.927 1746.95,254.321 1753.61,155.5 1760.27,136.718 1766.93,157.115 1773.59,150.364 1780.25,142.318 1786.91,101.778 1793.57,212.385 1800.23,113.906 1806.89,114.657 1813.55,110.536 1820.21,150.958 1826.87,148.979 1833.52,63.4502 1840.18,123.878 1846.84,144.184 1853.5,148.061 1860.16,133.052 1866.82,150.556 1873.48,210.097 1880.14,136.579 1886.8,125.579 1893.46,146.478 1900.12,150.874 1906.78,199.031 1913.44,143.931 1920.1,176.496 1926.76,135.757 1933.42,88.3868 1940.07,141.494 1946.73,132.293 1953.39,131.934 1960.05,98.3756 1966.71,106.864 1973.37,103.46 1980.03,109.656 1986.69,123.244 1993.35,249.702 2000.01,192.852 2006.67,204.686 2013.33,186.374 2019.99,146.129 2026.65,158.787 2033.31,150.959 2039.97,134.139 2046.62,147.516 2053.28,70.5483 2059.94,86.132 2066.6,241.155 2073.26,143.64 2079.92,174.597 2086.58,127.459 2093.24,130.925 2099.9,177.811 2106.56,179.422 2113.22,149.994 2119.88,162.378 2126.54,148.64 2133.2,93.3481 2139.86,191.033 2146.52,225.055 2153.17,55.7265 2159.83,118.825 2166.49,163.252 2173.15,147.306 2179.81,130.006 2186.47,138.009 2193.13,140.779 2199.79,157.357 2206.45,111.105 2213.11,121.545 2219.77,149.465 2226.43,59.6055 2233.09,102.596 2239.75,145.19 2246.41,129.946 2253.07,130.58 2259.72,188.176 2266.38,189.477 2273.04,121.684 2279.7,130.646 2286.36,169.269 2293.02,179.896 "/>
<path clip-path="url(#clip800)" d="M2018.91 1377.32 L2282.4 1377.32 L2282.4 1273.64 L2018.91 1273.64  Z" fill="#ffffff" fill-rule="evenodd" fill-opacity="1"/>
<polyline clip-path="url(#clip800)" style="stroke:#000000; stroke-linecap:round; stroke-linejoin:round; stroke-width:4; stroke-opacity:1; fill:none" points="2018.91,1377.32 2282.4,1377.32 2282.4,1273.64 2018.91,1273.64 2018.91,1377.32 "/>
<polyline clip-path="url(#clip800)" style="stroke:#009af9; stroke-linecap:round; stroke-linejoin:round; stroke-width:4; stroke-opacity:1; fill:none" points="2042.36,1325.48 2183.07,1325.48 "/>
<path clip-path="url(#clip800)" d="M2220.36 1345.16 Q2218.56 1349.79 2216.84 1351.2 Q2215.13 1352.62 2212.26 1352.62 L2208.86 1352.62 L2208.86 1349.05 L2211.36 1349.05 Q2213.12 1349.05 2214.09 1348.22 Q2215.06 1347.38 2216.24 1344.28 L2217.01 1342.34 L2206.52 1316.83 L2211.03 1316.83 L2219.14 1337.11 L2227.24 1316.83 L2231.75 1316.83 L2220.36 1345.16 Z" fill="#000000" fill-rule="nonzero" fill-opacity="1" /><path clip-path="url(#clip800)" d="M2239.04 1338.82 L2246.68 1338.82 L2246.68 1312.45 L2238.37 1314.12 L2238.37 1309.86 L2246.64 1308.2 L2251.31 1308.2 L2251.31 1338.82 L2258.95 1338.82 L2258.95 1342.76 L2239.04 1342.76 L2239.04 1338.82 Z" fill="#000000" fill-rule="nonzero" fill-opacity="1" /></svg>
