<?xml version="1.0" encoding="utf-8"?>
<svg xmlns="http://www.w3.org/2000/svg" xmlns:xlink="http://www.w3.org/1999/xlink" width="600" height="400" viewBox="0 0 2400 1600">
<defs>
  <clipPath id="clip890">
    <rect x="0" y="0" width="2400" height="1600"/>
  </clipPath>
</defs>
<path clip-path="url(#clip890)" d="M0 1600 L2400 1600 L2400 0 L0 0  Z" fill="#ffffff" fill-rule="evenodd" fill-opacity="1"/>
<defs>
  <clipPath id="clip891">
    <rect x="272" y="47" width="2081" height="1377"/>
  </clipPath>
</defs>
<path clip-path="url(#clip890)" d="M332.62 1423.18 L2352.76 1423.18 L2352.76 47.2441 L332.62 47.2441  Z" fill="#ffffff" fill-rule="evenodd" fill-opacity="1"/>
<defs>
  <clipPath id="clip892">
    <rect x="332" y="47" width="2021" height="1377"/>
  </clipPath>
</defs>
<polyline clip-path="url(#clip892)" style="stroke:#000000; stroke-linecap:round; stroke-linejoin:round; stroke-width:2; stroke-opacity:0.1; fill:none" points="389.179,1423.18 389.179,47.2441 "/>
<polyline clip-path="url(#clip892)" style="stroke:#000000; stroke-linecap:round; stroke-linejoin:round; stroke-width:2; stroke-opacity:0.1; fill:none" points="1003.95,1423.18 1003.95,47.2441 "/>
<polyline clip-path="url(#clip892)" style="stroke:#000000; stroke-linecap:round; stroke-linejoin:round; stroke-width:2; stroke-opacity:0.1; fill:none" points="1618.72,1423.18 1618.72,47.2441 "/>
<polyline clip-path="url(#clip892)" style="stroke:#000000; stroke-linecap:round; stroke-linejoin:round; stroke-width:2; stroke-opacity:0.1; fill:none" points="2233.49,1423.18 2233.49,47.2441 "/>
<polyline clip-path="url(#clip892)" style="stroke:#000000; stroke-linecap:round; stroke-linejoin:round; stroke-width:2; stroke-opacity:0.1; fill:none" points="332.62,1254.44 2352.76,1254.44 "/>
<polyline clip-path="url(#clip892)" style="stroke:#000000; stroke-linecap:round; stroke-linejoin:round; stroke-width:2; stroke-opacity:0.1; fill:none" points="332.62,1009.39 2352.76,1009.39 "/>
<polyline clip-path="url(#clip892)" style="stroke:#000000; stroke-linecap:round; stroke-linejoin:round; stroke-width:2; stroke-opacity:0.1; fill:none" points="332.62,764.336 2352.76,764.336 "/>
<polyline clip-path="url(#clip892)" style="stroke:#000000; stroke-linecap:round; stroke-linejoin:round; stroke-width:2; stroke-opacity:0.1; fill:none" points="332.62,519.282 2352.76,519.282 "/>
<polyline clip-path="url(#clip892)" style="stroke:#000000; stroke-linecap:round; stroke-linejoin:round; stroke-width:2; stroke-opacity:0.1; fill:none" points="332.62,274.229 2352.76,274.229 "/>
<polyline clip-path="url(#clip890)" style="stroke:#000000; stroke-linecap:round; stroke-linejoin:round; stroke-width:4; stroke-opacity:1; fill:none" points="332.62,1423.18 2352.76,1423.18 "/>
<polyline clip-path="url(#clip890)" style="stroke:#000000; stroke-linecap:round; stroke-linejoin:round; stroke-width:4; stroke-opacity:1; fill:none" points="389.179,1423.18 389.179,1404.28 "/>
<polyline clip-path="url(#clip890)" style="stroke:#000000; stroke-linecap:round; stroke-linejoin:round; stroke-width:4; stroke-opacity:1; fill:none" points="1003.95,1423.18 1003.95,1404.28 "/>
<polyline clip-path="url(#clip890)" style="stroke:#000000; stroke-linecap:round; stroke-linejoin:round; stroke-width:4; stroke-opacity:1; fill:none" points="1618.72,1423.18 1618.72,1404.28 "/>
<polyline clip-path="url(#clip890)" style="stroke:#000000; stroke-linecap:round; stroke-linejoin:round; stroke-width:4; stroke-opacity:1; fill:none" points="2233.49,1423.18 2233.49,1404.28 "/>
<path clip-path="url(#clip890)" d="M389.179 1454.1 Q385.568 1454.1 383.739 1457.66 Q381.934 1461.2 381.934 1468.33 Q381.934 1475.44 383.739 1479.01 Q385.568 1482.55 389.179 1482.55 Q392.813 1482.55 394.619 1479.01 Q396.448 1475.44 396.448 1468.33 Q396.448 1461.2 394.619 1457.66 Q392.813 1454.1 389.179 1454.1 M389.179 1450.39 Q394.989 1450.39 398.045 1455 Q401.124 1459.58 401.124 1468.33 Q401.124 1477.06 398.045 1481.67 Q394.989 1486.25 389.179 1486.25 Q383.369 1486.25 380.29 1481.67 Q377.235 1477.06 377.235 1468.33 Q377.235 1459.58 380.29 1455 Q383.369 1450.39 389.179 1450.39 Z" fill="#000000" fill-rule="nonzero" fill-opacity="1" /><path clip-path="url(#clip890)" d="M948.475 1481.64 L956.114 1481.64 L956.114 1455.28 L947.804 1456.95 L947.804 1452.69 L956.068 1451.02 L960.744 1451.02 L960.744 1481.64 L968.383 1481.64 L968.383 1485.58 L948.475 1485.58 L948.475 1481.64 Z" fill="#000000" fill-rule="nonzero" fill-opacity="1" /><path clip-path="url(#clip890)" d="M987.827 1454.1 Q984.216 1454.1 982.387 1457.66 Q980.582 1461.2 980.582 1468.33 Q980.582 1475.44 982.387 1479.01 Q984.216 1482.55 987.827 1482.55 Q991.461 1482.55 993.267 1479.01 Q995.095 1475.44 995.095 1468.33 Q995.095 1461.2 993.267 1457.66 Q991.461 1454.1 987.827 1454.1 M987.827 1450.39 Q993.637 1450.39 996.693 1455 Q999.771 1459.58 999.771 1468.33 Q999.771 1477.06 996.693 1481.67 Q993.637 1486.25 987.827 1486.25 Q982.017 1486.25 978.938 1481.67 Q975.883 1477.06 975.883 1468.33 Q975.883 1459.58 978.938 1455 Q982.017 1450.39 987.827 1450.39 Z" fill="#000000" fill-rule="nonzero" fill-opacity="1" /><path clip-path="url(#clip890)" d="M1017.99 1454.1 Q1014.38 1454.1 1012.55 1457.66 Q1010.74 1461.2 1010.74 1468.33 Q1010.74 1475.44 1012.55 1479.01 Q1014.38 1482.55 1017.99 1482.55 Q1021.62 1482.55 1023.43 1479.01 Q1025.26 1475.44 1025.26 1468.33 Q1025.26 1461.2 1023.43 1457.66 Q1021.62 1454.1 1017.99 1454.1 M1017.99 1450.39 Q1023.8 1450.39 1026.85 1455 Q1029.93 1459.58 1029.93 1468.33 Q1029.93 1477.06 1026.85 1481.67 Q1023.8 1486.25 1017.99 1486.25 Q1012.18 1486.25 1009.1 1481.67 Q1006.04 1477.06 1006.04 1468.33 Q1006.04 1459.58 1009.1 1455 Q1012.18 1450.39 1017.99 1450.39 Z" fill="#000000" fill-rule="nonzero" fill-opacity="1" /><path clip-path="url(#clip890)" d="M1048.15 1454.1 Q1044.54 1454.1 1042.71 1457.66 Q1040.91 1461.2 1040.91 1468.33 Q1040.91 1475.44 1042.71 1479.01 Q1044.54 1482.55 1048.15 1482.55 Q1051.78 1482.55 1053.59 1479.01 Q1055.42 1475.44 1055.42 1468.33 Q1055.42 1461.2 1053.59 1457.66 Q1051.78 1454.1 1048.15 1454.1 M1048.15 1450.39 Q1053.96 1450.39 1057.02 1455 Q1060.1 1459.58 1060.1 1468.33 Q1060.1 1477.06 1057.02 1481.67 Q1053.96 1486.25 1048.15 1486.25 Q1042.34 1486.25 1039.26 1481.67 Q1036.21 1477.06 1036.21 1468.33 Q1036.21 1459.58 1039.26 1455 Q1042.34 1450.39 1048.15 1450.39 Z" fill="#000000" fill-rule="nonzero" fill-opacity="1" /><path clip-path="url(#clip890)" d="M1567.33 1481.64 L1583.65 1481.64 L1583.65 1485.58 L1561.71 1485.58 L1561.71 1481.64 Q1564.37 1478.89 1568.95 1474.26 Q1573.56 1469.61 1574.74 1468.27 Q1576.98 1465.74 1577.86 1464.01 Q1578.77 1462.25 1578.77 1460.56 Q1578.77 1457.8 1576.82 1456.07 Q1574.9 1454.33 1571.8 1454.33 Q1569.6 1454.33 1567.15 1455.09 Q1564.72 1455.86 1561.94 1457.41 L1561.94 1452.69 Q1564.76 1451.55 1567.22 1450.97 Q1569.67 1450.39 1571.71 1450.39 Q1577.08 1450.39 1580.27 1453.08 Q1583.47 1455.77 1583.47 1460.26 Q1583.47 1462.39 1582.66 1464.31 Q1581.87 1466.2 1579.76 1468.8 Q1579.18 1469.47 1576.08 1472.69 Q1572.98 1475.88 1567.33 1481.64 Z" fill="#000000" fill-rule="nonzero" fill-opacity="1" /><path clip-path="url(#clip890)" d="M1603.47 1454.1 Q1599.85 1454.1 1598.03 1457.66 Q1596.22 1461.2 1596.22 1468.33 Q1596.22 1475.44 1598.03 1479.01 Q1599.85 1482.55 1603.47 1482.55 Q1607.1 1482.55 1608.91 1479.01 Q1610.73 1475.44 1610.73 1468.33 Q1610.73 1461.2 1608.91 1457.66 Q1607.1 1454.1 1603.47 1454.1 M1603.47 1450.39 Q1609.28 1450.39 1612.33 1455 Q1615.41 1459.58 1615.41 1468.33 Q1615.41 1477.06 1612.33 1481.67 Q1609.28 1486.25 1603.47 1486.25 Q1597.66 1486.25 1594.58 1481.67 Q1591.52 1477.06 1591.52 1468.33 Q1591.52 1459.58 1594.58 1455 Q1597.66 1450.39 1603.47 1450.39 Z" fill="#000000" fill-rule="nonzero" fill-opacity="1" /><path clip-path="url(#clip890)" d="M1633.63 1454.1 Q1630.02 1454.1 1628.19 1457.66 Q1626.38 1461.2 1626.38 1468.33 Q1626.38 1475.44 1628.19 1479.01 Q1630.02 1482.55 1633.63 1482.55 Q1637.26 1482.55 1639.07 1479.01 Q1640.9 1475.44 1640.9 1468.33 Q1640.9 1461.2 1639.07 1457.66 Q1637.26 1454.1 1633.63 1454.1 M1633.63 1450.39 Q1639.44 1450.39 1642.49 1455 Q1645.57 1459.58 1645.57 1468.33 Q1645.57 1477.06 1642.49 1481.67 Q1639.44 1486.25 1633.63 1486.25 Q1627.82 1486.25 1624.74 1481.67 Q1621.68 1477.06 1621.68 1468.33 Q1621.68 1459.58 1624.74 1455 Q1627.82 1450.39 1633.63 1450.39 Z" fill="#000000" fill-rule="nonzero" fill-opacity="1" /><path clip-path="url(#clip890)" d="M1663.79 1454.1 Q1660.18 1454.1 1658.35 1457.66 Q1656.54 1461.2 1656.54 1468.33 Q1656.54 1475.44 1658.35 1479.01 Q1660.18 1482.55 1663.79 1482.55 Q1667.42 1482.55 1669.23 1479.01 Q1671.06 1475.44 1671.06 1468.33 Q1671.06 1461.2 1669.23 1457.66 Q1667.42 1454.1 1663.79 1454.1 M1663.79 1450.39 Q1669.6 1450.39 1672.65 1455 Q1675.73 1459.58 1675.73 1468.33 Q1675.73 1477.06 1672.65 1481.67 Q1669.6 1486.25 1663.79 1486.25 Q1657.98 1486.25 1654.9 1481.67 Q1651.84 1477.06 1651.84 1468.33 Q1651.84 1459.58 1654.9 1455 Q1657.98 1450.39 1663.79 1450.39 Z" fill="#000000" fill-rule="nonzero" fill-opacity="1" /><path clip-path="url(#clip890)" d="M2192.17 1466.95 Q2195.53 1467.66 2197.4 1469.93 Q2199.3 1472.2 2199.3 1475.53 Q2199.3 1480.65 2195.78 1483.45 Q2192.26 1486.25 2185.78 1486.25 Q2183.61 1486.25 2181.29 1485.81 Q2179 1485.39 2176.55 1484.54 L2176.55 1480.02 Q2178.49 1481.16 2180.81 1481.74 Q2183.12 1482.32 2185.64 1482.32 Q2190.04 1482.32 2192.33 1480.58 Q2194.65 1478.84 2194.65 1475.53 Q2194.65 1472.48 2192.5 1470.77 Q2190.37 1469.03 2186.55 1469.03 L2182.52 1469.03 L2182.52 1465.19 L2186.73 1465.19 Q2190.18 1465.19 2192.01 1463.82 Q2193.84 1462.43 2193.84 1459.84 Q2193.84 1457.18 2191.94 1455.77 Q2190.06 1454.33 2186.55 1454.33 Q2184.62 1454.33 2182.43 1454.75 Q2180.23 1455.16 2177.59 1456.04 L2177.59 1451.88 Q2180.25 1451.14 2182.56 1450.77 Q2184.9 1450.39 2186.96 1450.39 Q2192.29 1450.39 2195.39 1452.83 Q2198.49 1455.23 2198.49 1459.35 Q2198.49 1462.22 2196.85 1464.21 Q2195.2 1466.18 2192.17 1466.95 Z" fill="#000000" fill-rule="nonzero" fill-opacity="1" /><path clip-path="url(#clip890)" d="M2218.17 1454.1 Q2214.56 1454.1 2212.73 1457.66 Q2210.92 1461.2 2210.92 1468.33 Q2210.92 1475.44 2212.73 1479.01 Q2214.56 1482.55 2218.17 1482.55 Q2221.8 1482.55 2223.61 1479.01 Q2225.43 1475.44 2225.43 1468.33 Q2225.43 1461.2 2223.61 1457.66 Q2221.8 1454.1 2218.17 1454.1 M2218.17 1450.39 Q2223.98 1450.39 2227.03 1455 Q2230.11 1459.58 2230.11 1468.33 Q2230.11 1477.06 2227.03 1481.67 Q2223.98 1486.25 2218.17 1486.25 Q2212.36 1486.25 2209.28 1481.67 Q2206.22 1477.06 2206.22 1468.33 Q2206.22 1459.58 2209.28 1455 Q2212.36 1450.39 2218.17 1450.39 Z" fill="#000000" fill-rule="nonzero" fill-opacity="1" /><path clip-path="url(#clip890)" d="M2248.33 1454.1 Q2244.72 1454.1 2242.89 1457.66 Q2241.08 1461.2 2241.08 1468.33 Q2241.08 1475.44 2242.89 1479.01 Q2244.72 1482.55 2248.33 1482.55 Q2251.96 1482.55 2253.77 1479.01 Q2255.6 1475.44 2255.6 1468.33 Q2255.6 1461.2 2253.77 1457.66 Q2251.96 1454.1 2248.33 1454.1 M2248.33 1450.39 Q2254.14 1450.39 2257.19 1455 Q2260.27 1459.58 2260.27 1468.33 Q2260.27 1477.06 2257.19 1481.67 Q2254.14 1486.25 2248.33 1486.25 Q2242.52 1486.25 2239.44 1481.67 Q2236.38 1477.06 2236.38 1468.33 Q2236.38 1459.58 2239.44 1455 Q2242.52 1450.39 2248.33 1450.39 Z" fill="#000000" fill-rule="nonzero" fill-opacity="1" /><path clip-path="url(#clip890)" d="M2278.49 1454.1 Q2274.88 1454.1 2273.05 1457.66 Q2271.24 1461.2 2271.24 1468.33 Q2271.24 1475.44 2273.05 1479.01 Q2274.88 1482.55 2278.49 1482.55 Q2282.12 1482.55 2283.93 1479.01 Q2285.76 1475.44 2285.76 1468.33 Q2285.76 1461.2 2283.93 1457.66 Q2282.12 1454.1 2278.49 1454.1 M2278.49 1450.39 Q2284.3 1450.39 2287.36 1455 Q2290.43 1459.58 2290.43 1468.33 Q2290.43 1477.06 2287.36 1481.67 Q2284.3 1486.25 2278.49 1486.25 Q2272.68 1486.25 2269.6 1481.67 Q2266.55 1477.06 2266.55 1468.33 Q2266.55 1459.58 2269.6 1455 Q2272.68 1450.39 2278.49 1450.39 Z" fill="#000000" fill-rule="nonzero" fill-opacity="1" /><path clip-path="url(#clip890)" d="M1210.41 1520.52 L1216.84 1520.52 L1216.84 1568.04 L1210.41 1568.04 L1210.41 1520.52 Z" fill="#000000" fill-rule="nonzero" fill-opacity="1" /><path clip-path="url(#clip890)" d="M1235.17 1522.27 L1235.17 1532.4 L1247.23 1532.4 L1247.23 1536.95 L1235.17 1536.95 L1235.17 1556.3 Q1235.17 1560.66 1236.35 1561.9 Q1237.56 1563.14 1241.22 1563.14 L1247.23 1563.14 L1247.23 1568.04 L1241.22 1568.04 Q1234.44 1568.04 1231.86 1565.53 Q1229.28 1562.98 1229.28 1556.3 L1229.28 1536.95 L1224.99 1536.95 L1224.99 1532.4 L1229.28 1532.4 L1229.28 1522.27 L1235.17 1522.27 Z" fill="#000000" fill-rule="nonzero" fill-opacity="1" /><path clip-path="url(#clip890)" d="M1285.43 1548.76 L1285.43 1551.62 L1258.5 1551.62 Q1258.88 1557.67 1262.13 1560.85 Q1265.41 1564 1271.23 1564 Q1274.61 1564 1277.76 1563.17 Q1280.94 1562.35 1284.06 1560.69 L1284.06 1566.23 Q1280.91 1567.57 1277.6 1568.27 Q1274.29 1568.97 1270.88 1568.97 Q1262.35 1568.97 1257.36 1564 Q1252.39 1559.04 1252.39 1550.57 Q1252.39 1541.82 1257.1 1536.69 Q1261.84 1531.54 1269.86 1531.54 Q1277.06 1531.54 1281.23 1536.18 Q1285.43 1540.8 1285.43 1548.76 M1279.57 1547.04 Q1279.51 1542.23 1276.87 1539.37 Q1274.26 1536.5 1269.93 1536.5 Q1265.03 1536.5 1262.07 1539.27 Q1259.14 1542.04 1258.69 1547.07 L1279.57 1547.04 Z" fill="#000000" fill-rule="nonzero" fill-opacity="1" /><path clip-path="url(#clip890)" d="M1315.7 1537.87 Q1314.71 1537.3 1313.53 1537.04 Q1312.39 1536.76 1310.99 1536.76 Q1306.02 1536.76 1303.35 1540 Q1300.71 1543.22 1300.71 1549.27 L1300.71 1568.04 L1294.82 1568.04 L1294.82 1532.4 L1300.71 1532.4 L1300.71 1537.93 Q1302.55 1534.69 1305.51 1533.13 Q1308.47 1531.54 1312.71 1531.54 Q1313.31 1531.54 1314.04 1531.63 Q1314.77 1531.7 1315.67 1531.85 L1315.7 1537.87 Z" fill="#000000" fill-rule="nonzero" fill-opacity="1" /><path clip-path="url(#clip890)" d="M1338.04 1550.12 Q1330.94 1550.12 1328.21 1551.75 Q1325.47 1553.37 1325.47 1557.29 Q1325.47 1560.4 1327.51 1562.25 Q1329.57 1564.07 1333.11 1564.07 Q1337.98 1564.07 1340.91 1560.63 Q1343.87 1557.16 1343.87 1551.43 L1343.87 1550.12 L1338.04 1550.12 M1349.72 1547.71 L1349.72 1568.04 L1343.87 1568.04 L1343.87 1562.63 Q1341.86 1565.88 1338.87 1567.44 Q1335.88 1568.97 1331.55 1568.97 Q1326.07 1568.97 1322.83 1565.91 Q1319.61 1562.82 1319.61 1557.67 Q1319.61 1551.65 1323.62 1548.6 Q1327.67 1545.54 1335.65 1545.54 L1343.87 1545.54 L1343.87 1544.97 Q1343.87 1540.93 1341.19 1538.73 Q1338.55 1536.5 1333.74 1536.5 Q1330.69 1536.5 1327.79 1537.23 Q1324.9 1537.97 1322.22 1539.43 L1322.22 1534.02 Q1325.44 1532.78 1328.46 1532.17 Q1331.48 1531.54 1334.35 1531.54 Q1342.08 1531.54 1345.9 1535.55 Q1349.72 1539.56 1349.72 1547.71 Z" fill="#000000" fill-rule="nonzero" fill-opacity="1" /><path clip-path="url(#clip890)" d="M1367.58 1522.27 L1367.58 1532.4 L1379.64 1532.4 L1379.64 1536.95 L1367.58 1536.95 L1367.58 1556.3 Q1367.58 1560.66 1368.76 1561.9 Q1369.97 1563.14 1373.63 1563.14 L1379.64 1563.14 L1379.64 1568.04 L1373.63 1568.04 Q1366.85 1568.04 1364.27 1565.53 Q1361.69 1562.98 1361.69 1556.3 L1361.69 1536.95 L1357.39 1536.95 L1357.39 1532.4 L1361.69 1532.4 L1361.69 1522.27 L1367.58 1522.27 Z" fill="#000000" fill-rule="nonzero" fill-opacity="1" /><path clip-path="url(#clip890)" d="M1387.34 1532.4 L1393.2 1532.4 L1393.2 1568.04 L1387.34 1568.04 L1387.34 1532.4 M1387.34 1518.52 L1393.2 1518.52 L1393.2 1525.93 L1387.34 1525.93 L1387.34 1518.52 Z" fill="#000000" fill-rule="nonzero" fill-opacity="1" /><path clip-path="url(#clip890)" d="M1419.27 1536.5 Q1414.56 1536.5 1411.82 1540.19 Q1409.08 1543.85 1409.08 1550.25 Q1409.08 1556.65 1411.79 1560.34 Q1414.53 1564 1419.27 1564 Q1423.95 1564 1426.68 1560.31 Q1429.42 1556.62 1429.42 1550.25 Q1429.42 1543.92 1426.68 1540.23 Q1423.95 1536.5 1419.27 1536.5 M1419.27 1531.54 Q1426.91 1531.54 1431.27 1536.5 Q1435.63 1541.47 1435.63 1550.25 Q1435.63 1559 1431.27 1564 Q1426.91 1568.97 1419.27 1568.97 Q1411.6 1568.97 1407.24 1564 Q1402.91 1559 1402.91 1550.25 Q1402.91 1541.47 1407.24 1536.5 Q1411.6 1531.54 1419.27 1531.54 Z" fill="#000000" fill-rule="nonzero" fill-opacity="1" /><path clip-path="url(#clip890)" d="M1474.97 1546.53 L1474.97 1568.04 L1469.11 1568.04 L1469.11 1546.72 Q1469.11 1541.66 1467.14 1539.14 Q1465.16 1536.63 1461.22 1536.63 Q1456.48 1536.63 1453.74 1539.65 Q1451 1542.68 1451 1547.9 L1451 1568.04 L1445.11 1568.04 L1445.11 1532.4 L1451 1532.4 L1451 1537.93 Q1453.1 1534.72 1455.93 1533.13 Q1458.8 1531.54 1462.52 1531.54 Q1468.67 1531.54 1471.82 1535.36 Q1474.97 1539.14 1474.97 1546.53 Z" fill="#000000" fill-rule="nonzero" fill-opacity="1" /><polyline clip-path="url(#clip890)" style="stroke:#000000; stroke-linecap:round; stroke-linejoin:round; stroke-width:4; stroke-opacity:1; fill:none" points="332.62,1423.18 332.62,47.2441 "/>
<polyline clip-path="url(#clip890)" style="stroke:#000000; stroke-linecap:round; stroke-linejoin:round; stroke-width:4; stroke-opacity:1; fill:none" points="332.62,1254.44 351.518,1254.44 "/>
<polyline clip-path="url(#clip890)" style="stroke:#000000; stroke-linecap:round; stroke-linejoin:round; stroke-width:4; stroke-opacity:1; fill:none" points="332.62,1009.39 351.518,1009.39 "/>
<polyline clip-path="url(#clip890)" style="stroke:#000000; stroke-linecap:round; stroke-linejoin:round; stroke-width:4; stroke-opacity:1; fill:none" points="332.62,764.336 351.518,764.336 "/>
<polyline clip-path="url(#clip890)" style="stroke:#000000; stroke-linecap:round; stroke-linejoin:round; stroke-width:4; stroke-opacity:1; fill:none" points="332.62,519.282 351.518,519.282 "/>
<polyline clip-path="url(#clip890)" style="stroke:#000000; stroke-linecap:round; stroke-linejoin:round; stroke-width:4; stroke-opacity:1; fill:none" points="332.62,274.229 351.518,274.229 "/>
<path clip-path="url(#clip890)" d="M114.26 1254.89 L143.936 1254.89 L143.936 1258.83 L114.26 1258.83 L114.26 1254.89 Z" fill="#000000" fill-rule="nonzero" fill-opacity="1" /><path clip-path="url(#clip890)" d="M154.839 1267.79 L162.477 1267.79 L162.477 1241.42 L154.167 1243.09 L154.167 1238.83 L162.431 1237.16 L167.107 1237.16 L167.107 1267.79 L174.746 1267.79 L174.746 1271.72 L154.839 1271.72 L154.839 1267.79 Z" fill="#000000" fill-rule="nonzero" fill-opacity="1" /><path clip-path="url(#clip890)" d="M183.01 1237.16 L205.232 1237.16 L205.232 1239.15 L192.686 1271.72 L187.801 1271.72 L199.607 1241.1 L183.01 1241.1 L183.01 1237.16 Z" fill="#000000" fill-rule="nonzero" fill-opacity="1" /><path clip-path="url(#clip890)" d="M214.399 1237.16 L232.755 1237.16 L232.755 1241.1 L218.681 1241.1 L218.681 1249.57 Q219.699 1249.22 220.718 1249.06 Q221.736 1248.88 222.755 1248.88 Q228.542 1248.88 231.922 1252.05 Q235.301 1255.22 235.301 1260.63 Q235.301 1266.21 231.829 1269.32 Q228.357 1272.39 222.037 1272.39 Q219.861 1272.39 217.593 1272.02 Q215.348 1271.65 212.94 1270.91 L212.94 1266.21 Q215.024 1267.35 217.246 1267.9 Q219.468 1268.46 221.945 1268.46 Q225.949 1268.46 228.287 1266.35 Q230.625 1264.25 230.625 1260.63 Q230.625 1257.02 228.287 1254.92 Q225.949 1252.81 221.945 1252.81 Q220.07 1252.81 218.195 1253.23 Q216.343 1253.64 214.399 1254.52 L214.399 1237.16 Z" fill="#000000" fill-rule="nonzero" fill-opacity="1" /><path clip-path="url(#clip890)" d="M254.514 1240.24 Q250.903 1240.24 249.074 1243.81 Q247.269 1247.35 247.269 1254.48 Q247.269 1261.58 249.074 1265.15 Q250.903 1268.69 254.514 1268.69 Q258.148 1268.69 259.954 1265.15 Q261.783 1261.58 261.783 1254.48 Q261.783 1247.35 259.954 1243.81 Q258.148 1240.24 254.514 1240.24 M254.514 1236.54 Q260.324 1236.54 263.38 1241.14 Q266.458 1245.73 266.458 1254.48 Q266.458 1263.2 263.38 1267.81 Q260.324 1272.39 254.514 1272.39 Q248.704 1272.39 245.625 1267.81 Q242.57 1263.2 242.57 1254.48 Q242.57 1245.73 245.625 1241.14 Q248.704 1236.54 254.514 1236.54 Z" fill="#000000" fill-rule="nonzero" fill-opacity="1" /><path clip-path="url(#clip890)" d="M284.676 1240.24 Q281.065 1240.24 279.236 1243.81 Q277.431 1247.35 277.431 1254.48 Q277.431 1261.58 279.236 1265.15 Q281.065 1268.69 284.676 1268.69 Q288.31 1268.69 290.116 1265.15 Q291.944 1261.58 291.944 1254.48 Q291.944 1247.35 290.116 1243.81 Q288.31 1240.24 284.676 1240.24 M284.676 1236.54 Q290.486 1236.54 293.542 1241.14 Q296.62 1245.73 296.62 1254.48 Q296.62 1263.2 293.542 1267.81 Q290.486 1272.39 284.676 1272.39 Q278.866 1272.39 275.787 1267.81 Q272.732 1263.2 272.732 1254.48 Q272.732 1245.73 275.787 1241.14 Q278.866 1236.54 284.676 1236.54 Z" fill="#000000" fill-rule="nonzero" fill-opacity="1" /><path clip-path="url(#clip890)" d="M114.26 1009.84 L143.936 1009.84 L143.936 1013.78 L114.26 1013.78 L114.26 1009.84 Z" fill="#000000" fill-rule="nonzero" fill-opacity="1" /><path clip-path="url(#clip890)" d="M154.839 1022.73 L162.477 1022.73 L162.477 996.369 L154.167 998.035 L154.167 993.776 L162.431 992.109 L167.107 992.109 L167.107 1022.73 L174.746 1022.73 L174.746 1026.67 L154.839 1026.67 L154.839 1022.73 Z" fill="#000000" fill-rule="nonzero" fill-opacity="1" /><path clip-path="url(#clip890)" d="M184.237 992.109 L202.593 992.109 L202.593 996.045 L188.519 996.045 L188.519 1004.52 Q189.538 1004.17 190.556 1004.01 Q191.575 1003.82 192.593 1003.82 Q198.38 1003.82 201.76 1006.99 Q205.139 1010.16 205.139 1015.58 Q205.139 1021.16 201.667 1024.26 Q198.195 1027.34 191.875 1027.34 Q189.7 1027.34 187.431 1026.97 Q185.186 1026.6 182.778 1025.86 L182.778 1021.16 Q184.862 1022.29 187.084 1022.85 Q189.306 1023.41 191.783 1023.41 Q195.787 1023.41 198.125 1021.3 Q200.463 1019.19 200.463 1015.58 Q200.463 1011.97 198.125 1009.86 Q195.787 1007.76 191.783 1007.76 Q189.908 1007.76 188.033 1008.17 Q186.181 1008.59 184.237 1009.47 L184.237 992.109 Z" fill="#000000" fill-rule="nonzero" fill-opacity="1" /><path clip-path="url(#clip890)" d="M224.352 995.188 Q220.741 995.188 218.912 998.753 Q217.107 1002.29 217.107 1009.42 Q217.107 1016.53 218.912 1020.1 Q220.741 1023.64 224.352 1023.64 Q227.986 1023.64 229.792 1020.1 Q231.621 1016.53 231.621 1009.42 Q231.621 1002.29 229.792 998.753 Q227.986 995.188 224.352 995.188 M224.352 991.484 Q230.162 991.484 233.218 996.091 Q236.297 1000.67 236.297 1009.42 Q236.297 1018.15 233.218 1022.76 Q230.162 1027.34 224.352 1027.34 Q218.542 1027.34 215.463 1022.76 Q212.408 1018.15 212.408 1009.42 Q212.408 1000.67 215.463 996.091 Q218.542 991.484 224.352 991.484 Z" fill="#000000" fill-rule="nonzero" fill-opacity="1" /><path clip-path="url(#clip890)" d="M254.514 995.188 Q250.903 995.188 249.074 998.753 Q247.269 1002.29 247.269 1009.42 Q247.269 1016.53 249.074 1020.1 Q250.903 1023.64 254.514 1023.64 Q258.148 1023.64 259.954 1020.1 Q261.783 1016.53 261.783 1009.42 Q261.783 1002.29 259.954 998.753 Q258.148 995.188 254.514 995.188 M254.514 991.484 Q260.324 991.484 263.38 996.091 Q266.458 1000.67 266.458 1009.42 Q266.458 1018.15 263.38 1022.76 Q260.324 1027.34 254.514 1027.34 Q248.704 1027.34 245.625 1022.76 Q242.57 1018.15 242.57 1009.42 Q242.57 1000.67 245.625 996.091 Q248.704 991.484 254.514 991.484 Z" fill="#000000" fill-rule="nonzero" fill-opacity="1" /><path clip-path="url(#clip890)" d="M284.676 995.188 Q281.065 995.188 279.236 998.753 Q277.431 1002.29 277.431 1009.42 Q277.431 1016.53 279.236 1020.1 Q281.065 1023.64 284.676 1023.64 Q288.31 1023.64 290.116 1020.1 Q291.944 1016.53 291.944 1009.42 Q291.944 1002.29 290.116 998.753 Q288.31 995.188 284.676 995.188 M284.676 991.484 Q290.486 991.484 293.542 996.091 Q296.62 1000.67 296.62 1009.42 Q296.62 1018.15 293.542 1022.76 Q290.486 1027.34 284.676 1027.34 Q278.866 1027.34 275.787 1022.76 Q272.732 1018.15 272.732 1009.42 Q272.732 1000.67 275.787 996.091 Q278.866 991.484 284.676 991.484 Z" fill="#000000" fill-rule="nonzero" fill-opacity="1" /><path clip-path="url(#clip890)" d="M114.26 764.787 L143.936 764.787 L143.936 768.722 L114.26 768.722 L114.26 764.787 Z" fill="#000000" fill-rule="nonzero" fill-opacity="1" /><path clip-path="url(#clip890)" d="M154.839 777.681 L162.477 777.681 L162.477 751.315 L154.167 752.982 L154.167 748.723 L162.431 747.056 L167.107 747.056 L167.107 777.681 L174.746 777.681 L174.746 781.616 L154.839 781.616 L154.839 777.681 Z" fill="#000000" fill-rule="nonzero" fill-opacity="1" /><path clip-path="url(#clip890)" d="M188.218 777.681 L204.537 777.681 L204.537 781.616 L182.593 781.616 L182.593 777.681 Q185.255 774.926 189.838 770.297 Q194.445 765.644 195.625 764.301 Q197.871 761.778 198.75 760.042 Q199.653 758.283 199.653 756.593 Q199.653 753.838 197.709 752.102 Q195.787 750.366 192.686 750.366 Q190.487 750.366 188.033 751.13 Q185.602 751.894 182.825 753.445 L182.825 748.723 Q185.649 747.588 188.102 747.01 Q190.556 746.431 192.593 746.431 Q197.963 746.431 201.158 749.116 Q204.352 751.801 204.352 756.292 Q204.352 758.422 203.542 760.343 Q202.755 762.241 200.649 764.834 Q200.07 765.505 196.968 768.722 Q193.866 771.917 188.218 777.681 Z" fill="#000000" fill-rule="nonzero" fill-opacity="1" /><path clip-path="url(#clip890)" d="M214.399 747.056 L232.755 747.056 L232.755 750.991 L218.681 750.991 L218.681 759.463 Q219.699 759.116 220.718 758.954 Q221.736 758.769 222.755 758.769 Q228.542 758.769 231.922 761.94 Q235.301 765.111 235.301 770.528 Q235.301 776.107 231.829 779.209 Q228.357 782.287 222.037 782.287 Q219.861 782.287 217.593 781.917 Q215.348 781.546 212.94 780.806 L212.94 776.107 Q215.024 777.241 217.246 777.797 Q219.468 778.352 221.945 778.352 Q225.949 778.352 228.287 776.246 Q230.625 774.139 230.625 770.528 Q230.625 766.917 228.287 764.81 Q225.949 762.704 221.945 762.704 Q220.07 762.704 218.195 763.121 Q216.343 763.537 214.399 764.417 L214.399 747.056 Z" fill="#000000" fill-rule="nonzero" fill-opacity="1" /><path clip-path="url(#clip890)" d="M254.514 750.135 Q250.903 750.135 249.074 753.699 Q247.269 757.241 247.269 764.371 Q247.269 771.477 249.074 775.042 Q250.903 778.584 254.514 778.584 Q258.148 778.584 259.954 775.042 Q261.783 771.477 261.783 764.371 Q261.783 757.241 259.954 753.699 Q258.148 750.135 254.514 750.135 M254.514 746.431 Q260.324 746.431 263.38 751.037 Q266.458 755.621 266.458 764.371 Q266.458 773.097 263.38 777.704 Q260.324 782.287 254.514 782.287 Q248.704 782.287 245.625 777.704 Q242.57 773.097 242.57 764.371 Q242.57 755.621 245.625 751.037 Q248.704 746.431 254.514 746.431 Z" fill="#000000" fill-rule="nonzero" fill-opacity="1" /><path clip-path="url(#clip890)" d="M284.676 750.135 Q281.065 750.135 279.236 753.699 Q277.431 757.241 277.431 764.371 Q277.431 771.477 279.236 775.042 Q281.065 778.584 284.676 778.584 Q288.31 778.584 290.116 775.042 Q291.944 771.477 291.944 764.371 Q291.944 757.241 290.116 753.699 Q288.31 750.135 284.676 750.135 M284.676 746.431 Q290.486 746.431 293.542 751.037 Q296.62 755.621 296.62 764.371 Q296.62 773.097 293.542 777.704 Q290.486 782.287 284.676 782.287 Q278.866 782.287 275.787 777.704 Q272.732 773.097 272.732 764.371 Q272.732 755.621 275.787 751.037 Q278.866 746.431 284.676 746.431 Z" fill="#000000" fill-rule="nonzero" fill-opacity="1" /><path clip-path="url(#clip890)" d="M114.26 519.734 L143.936 519.734 L143.936 523.669 L114.26 523.669 L114.26 519.734 Z" fill="#000000" fill-rule="nonzero" fill-opacity="1" /><path clip-path="url(#clip890)" d="M154.839 532.627 L162.477 532.627 L162.477 506.262 L154.167 507.928 L154.167 503.669 L162.431 502.002 L167.107 502.002 L167.107 532.627 L174.746 532.627 L174.746 536.562 L154.839 536.562 L154.839 532.627 Z" fill="#000000" fill-rule="nonzero" fill-opacity="1" /><path clip-path="url(#clip890)" d="M194.19 505.081 Q190.579 505.081 188.75 508.646 Q186.945 512.188 186.945 519.317 Q186.945 526.424 188.75 529.988 Q190.579 533.53 194.19 533.53 Q197.825 533.53 199.63 529.988 Q201.459 526.424 201.459 519.317 Q201.459 512.188 199.63 508.646 Q197.825 505.081 194.19 505.081 M194.19 501.377 Q200 501.377 203.056 505.984 Q206.135 510.567 206.135 519.317 Q206.135 528.044 203.056 532.65 Q200 537.234 194.19 537.234 Q188.38 537.234 185.301 532.65 Q182.246 528.044 182.246 519.317 Q182.246 510.567 185.301 505.984 Q188.38 501.377 194.19 501.377 Z" fill="#000000" fill-rule="nonzero" fill-opacity="1" /><path clip-path="url(#clip890)" d="M224.352 505.081 Q220.741 505.081 218.912 508.646 Q217.107 512.188 217.107 519.317 Q217.107 526.424 218.912 529.988 Q220.741 533.53 224.352 533.53 Q227.986 533.53 229.792 529.988 Q231.621 526.424 231.621 519.317 Q231.621 512.188 229.792 508.646 Q227.986 505.081 224.352 505.081 M224.352 501.377 Q230.162 501.377 233.218 505.984 Q236.297 510.567 236.297 519.317 Q236.297 528.044 233.218 532.65 Q230.162 537.234 224.352 537.234 Q218.542 537.234 215.463 532.65 Q212.408 528.044 212.408 519.317 Q212.408 510.567 215.463 505.984 Q218.542 501.377 224.352 501.377 Z" fill="#000000" fill-rule="nonzero" fill-opacity="1" /><path clip-path="url(#clip890)" d="M254.514 505.081 Q250.903 505.081 249.074 508.646 Q247.269 512.188 247.269 519.317 Q247.269 526.424 249.074 529.988 Q250.903 533.53 254.514 533.53 Q258.148 533.53 259.954 529.988 Q261.783 526.424 261.783 519.317 Q261.783 512.188 259.954 508.646 Q258.148 505.081 254.514 505.081 M254.514 501.377 Q260.324 501.377 263.38 505.984 Q266.458 510.567 266.458 519.317 Q266.458 528.044 263.38 532.65 Q260.324 537.234 254.514 537.234 Q248.704 537.234 245.625 532.65 Q242.57 528.044 242.57 519.317 Q242.57 510.567 245.625 505.984 Q248.704 501.377 254.514 501.377 Z" fill="#000000" fill-rule="nonzero" fill-opacity="1" /><path clip-path="url(#clip890)" d="M284.676 505.081 Q281.065 505.081 279.236 508.646 Q277.431 512.188 277.431 519.317 Q277.431 526.424 279.236 529.988 Q281.065 533.53 284.676 533.53 Q288.31 533.53 290.116 529.988 Q291.944 526.424 291.944 519.317 Q291.944 512.188 290.116 508.646 Q288.31 505.081 284.676 505.081 M284.676 501.377 Q290.486 501.377 293.542 505.984 Q296.62 510.567 296.62 519.317 Q296.62 528.044 293.542 532.65 Q290.486 537.234 284.676 537.234 Q278.866 537.234 275.787 532.65 Q272.732 528.044 272.732 519.317 Q272.732 510.567 275.787 505.984 Q278.866 501.377 284.676 501.377 Z" fill="#000000" fill-rule="nonzero" fill-opacity="1" /><path clip-path="url(#clip890)" d="M144.422 274.68 L174.098 274.68 L174.098 278.616 L144.422 278.616 L144.422 274.68 Z" fill="#000000" fill-rule="nonzero" fill-opacity="1" /><path clip-path="url(#clip890)" d="M183.01 256.949 L205.232 256.949 L205.232 258.94 L192.686 291.509 L187.801 291.509 L199.607 260.884 L183.01 260.884 L183.01 256.949 Z" fill="#000000" fill-rule="nonzero" fill-opacity="1" /><path clip-path="url(#clip890)" d="M214.399 256.949 L232.755 256.949 L232.755 260.884 L218.681 260.884 L218.681 269.356 Q219.699 269.009 220.718 268.847 Q221.736 268.662 222.755 268.662 Q228.542 268.662 231.922 271.833 Q235.301 275.005 235.301 280.421 Q235.301 286 231.829 289.102 Q228.357 292.18 222.037 292.18 Q219.861 292.18 217.593 291.81 Q215.348 291.44 212.94 290.699 L212.94 286 Q215.024 287.134 217.246 287.69 Q219.468 288.245 221.945 288.245 Q225.949 288.245 228.287 286.139 Q230.625 284.032 230.625 280.421 Q230.625 276.81 228.287 274.704 Q225.949 272.597 221.945 272.597 Q220.07 272.597 218.195 273.014 Q216.343 273.43 214.399 274.31 L214.399 256.949 Z" fill="#000000" fill-rule="nonzero" fill-opacity="1" /><path clip-path="url(#clip890)" d="M254.514 260.028 Q250.903 260.028 249.074 263.593 Q247.269 267.134 247.269 274.264 Q247.269 281.37 249.074 284.935 Q250.903 288.477 254.514 288.477 Q258.148 288.477 259.954 284.935 Q261.783 281.37 261.783 274.264 Q261.783 267.134 259.954 263.593 Q258.148 260.028 254.514 260.028 M254.514 256.324 Q260.324 256.324 263.38 260.931 Q266.458 265.514 266.458 274.264 Q266.458 282.991 263.38 287.597 Q260.324 292.18 254.514 292.18 Q248.704 292.18 245.625 287.597 Q242.57 282.991 242.57 274.264 Q242.57 265.514 245.625 260.931 Q248.704 256.324 254.514 256.324 Z" fill="#000000" fill-rule="nonzero" fill-opacity="1" /><path clip-path="url(#clip890)" d="M284.676 260.028 Q281.065 260.028 279.236 263.593 Q277.431 267.134 277.431 274.264 Q277.431 281.37 279.236 284.935 Q281.065 288.477 284.676 288.477 Q288.31 288.477 290.116 284.935 Q291.944 281.37 291.944 274.264 Q291.944 267.134 290.116 263.593 Q288.31 260.028 284.676 260.028 M284.676 256.324 Q290.486 256.324 293.542 260.931 Q296.62 265.514 296.62 274.264 Q296.62 282.991 293.542 287.597 Q290.486 292.18 284.676 292.18 Q278.866 292.18 275.787 287.597 Q272.732 282.991 272.732 274.264 Q272.732 265.514 275.787 260.931 Q278.866 256.324 284.676 256.324 Z" fill="#000000" fill-rule="nonzero" fill-opacity="1" /><path clip-path="url(#clip890)" d="M16.4842 816.375 L16.4842 786.329 L21.895 786.329 L21.895 809.945 L35.9632 809.945 L35.9632 787.315 L41.3741 787.315 L41.3741 809.945 L58.5933 809.945 L58.5933 785.756 L64.0042 785.756 L64.0042 816.375 L16.4842 816.375 Z" fill="#000000" fill-rule="nonzero" fill-opacity="1" /><path clip-path="url(#clip890)" d="M16.4842 775.189 L16.4842 768.759 L58.5933 768.759 L58.5933 745.62 L64.0042 745.62 L64.0042 775.189 L16.4842 775.189 Z" fill="#000000" fill-rule="nonzero" fill-opacity="1" /><path clip-path="url(#clip890)" d="M41.3104 732.443 L58.7206 732.443 L58.7206 722.13 Q58.7206 716.942 56.5881 714.46 Q54.4238 711.945 49.9996 711.945 Q45.5436 711.945 43.4429 714.46 Q41.3104 716.942 41.3104 722.13 L41.3104 732.443 M21.7677 732.443 L36.0905 732.443 L36.0905 722.926 Q36.0905 718.216 34.34 715.924 Q32.5576 713.6 28.9291 713.6 Q25.3325 713.6 23.5501 715.924 Q21.7677 718.216 21.7677 722.926 L21.7677 732.443 M16.4842 738.872 L16.4842 722.449 Q16.4842 715.096 19.5397 711.118 Q22.5952 707.139 28.2289 707.139 Q32.5894 707.139 35.1675 709.176 Q37.7456 711.213 38.3822 715.16 Q39.4007 710.418 42.6472 707.808 Q45.8619 705.166 50.6998 705.166 Q57.0655 705.166 60.5348 709.495 Q64.0042 713.823 64.0042 721.812 L64.0042 738.872 L16.4842 738.872 Z" fill="#000000" fill-rule="nonzero" fill-opacity="1" /><path clip-path="url(#clip890)" d="M20.8447 676.011 Q20.8447 683.013 26.0645 687.151 Q31.2844 691.257 40.2919 691.257 Q49.2675 691.257 54.4874 687.151 Q59.7073 683.013 59.7073 676.011 Q59.7073 669.009 54.4874 664.935 Q49.2675 660.829 40.2919 660.829 Q31.2844 660.829 26.0645 664.935 Q20.8447 669.009 20.8447 676.011 M15.6248 676.011 Q15.6248 666.017 22.3406 660.033 Q29.0246 654.049 40.2919 654.049 Q51.5274 654.049 58.2432 660.033 Q64.9272 666.017 64.9272 676.011 Q64.9272 686.037 58.2432 692.052 Q51.5592 698.036 40.2919 698.036 Q29.0246 698.036 22.3406 692.052 Q15.6248 686.037 15.6248 676.011 Z" fill="#000000" fill-rule="nonzero" fill-opacity="1" /><polyline clip-path="url(#clip892)" style="stroke:#009af9; stroke-linecap:round; stroke-linejoin:round; stroke-width:4; stroke-opacity:1; fill:none" points="389.794,1271.69 451.271,719.042 512.748,479.756 574.225,281.213 635.702,244.126 697.179,210.877 758.656,200 820.133,187.347 881.61,182.573 943.087,174.297 1004.56,165.702 1066.04,159.751 1127.52,160.883 1189,159.678 1250.47,151.994 1311.95,148.568 1373.43,140.156 1434.9,135.211 1496.38,131.985 1557.86,132.837 1619.33,130.79 1680.81,120.747 1742.29,119.316 1803.77,113.902 1865.24,111.992 1926.72,103.439 1988.2,105.112 2049.67,102.997 2111.15,100.903 2172.63,93.888 2234.11,93.1237 2295.58,86.1857 "/>
<polyline clip-path="url(#clip892)" style="stroke:#e26f46; stroke-linecap:round; stroke-linejoin:round; stroke-width:4; stroke-opacity:1; fill:none" points="389.794,1384.24 451.271,767.167 512.748,367.748 574.225,297.204 635.702,254.928 697.179,225.075 758.656,215.373 820.133,202.085 881.61,190.303 943.087,185.642 1004.56,176.673 1066.04,173.769 1127.52,170.84 1189,167.787 1250.47,158.818 1311.95,160.482 1373.43,155.737 1434.9,154.246 1496.38,143.642 1557.86,145.538 1619.33,142.006 1680.81,140.874 1742.29,135.275 1803.77,132.614 1865.24,124.664 1926.72,126.302 1988.2,119.939 2049.67,115.458 2111.15,109.933 2172.63,109.516 2234.11,105.848 2295.58,102.436 "/>
<path clip-path="url(#clip890)" d="M1784.1 1377.32 L2285.42 1377.32 L2285.42 1221.8 L1784.1 1221.8  Z" fill="#ffffff" fill-rule="evenodd" fill-opacity="1"/>
<polyline clip-path="url(#clip890)" style="stroke:#000000; stroke-linecap:round; stroke-linejoin:round; stroke-width:4; stroke-opacity:1; fill:none" points="1784.1,1377.32 2285.42,1377.32 2285.42,1221.8 1784.1,1221.8 1784.1,1377.32 "/>
<polyline clip-path="url(#clip890)" style="stroke:#009af9; stroke-linecap:round; stroke-linejoin:round; stroke-width:4; stroke-opacity:1; fill:none" points="1806.55,1273.64 1941.22,1273.64 "/>
<path clip-path="url(#clip890)" d="M1963.67 1256.36 L1983.53 1256.36 L1983.53 1260.29 L1968.34 1260.29 L1968.34 1270.48 L1982.05 1270.48 L1982.05 1274.41 L1968.34 1274.41 L1968.34 1290.92 L1963.67 1290.92 L1963.67 1256.36 Z" fill="#000000" fill-rule="nonzero" fill-opacity="1" /><path clip-path="url(#clip890)" d="M1987.72 1280.68 L1987.72 1264.99 L1991.98 1264.99 L1991.98 1280.52 Q1991.98 1284.2 1993.41 1286.05 Q1994.85 1287.88 1997.72 1287.88 Q2001.17 1287.88 2003.16 1285.68 Q2005.17 1283.48 2005.17 1279.69 L2005.17 1264.99 L2009.43 1264.99 L2009.43 1290.92 L2005.17 1290.92 L2005.17 1286.93 Q2003.62 1289.29 2001.56 1290.45 Q1999.52 1291.59 1996.82 1291.59 Q1992.35 1291.59 1990.03 1288.81 Q1987.72 1286.03 1987.72 1280.68 M1998.44 1264.36 L1998.44 1264.36 Z" fill="#000000" fill-rule="nonzero" fill-opacity="1" /><path clip-path="url(#clip890)" d="M2018.2 1254.9 L2022.46 1254.9 L2022.46 1290.92 L2018.2 1290.92 L2018.2 1254.9 Z" fill="#000000" fill-rule="nonzero" fill-opacity="1" /><path clip-path="url(#clip890)" d="M2031.38 1254.9 L2035.64 1254.9 L2035.64 1290.92 L2031.38 1290.92 L2031.38 1254.9 Z" fill="#000000" fill-rule="nonzero" fill-opacity="1" /><path clip-path="url(#clip890)" d="M2064.48 1274.41 L2064.48 1287.07 L2071.98 1287.07 Q2075.75 1287.07 2077.56 1285.52 Q2079.39 1283.95 2079.39 1280.73 Q2079.39 1277.49 2077.56 1275.96 Q2075.75 1274.41 2071.98 1274.41 L2064.48 1274.41 M2064.48 1260.2 L2064.48 1270.61 L2071.4 1270.61 Q2074.82 1270.61 2076.49 1269.34 Q2078.18 1268.05 2078.18 1265.41 Q2078.18 1262.79 2076.49 1261.49 Q2074.82 1260.2 2071.4 1260.2 L2064.48 1260.2 M2059.8 1256.36 L2071.75 1256.36 Q2077.09 1256.36 2079.99 1258.58 Q2082.88 1260.8 2082.88 1264.9 Q2082.88 1268.07 2081.4 1269.94 Q2079.92 1271.82 2077.05 1272.28 Q2080.5 1273.02 2082.39 1275.38 Q2084.32 1277.72 2084.32 1281.24 Q2084.32 1285.87 2081.17 1288.39 Q2078.02 1290.92 2072.21 1290.92 L2059.8 1290.92 L2059.8 1256.36 Z" fill="#000000" fill-rule="nonzero" fill-opacity="1" /><path clip-path="url(#clip890)" d="M2103.92 1277.88 Q2098.76 1277.88 2096.77 1279.06 Q2094.78 1280.24 2094.78 1283.09 Q2094.78 1285.36 2096.26 1286.7 Q2097.76 1288.02 2100.33 1288.02 Q2103.88 1288.02 2106.01 1285.52 Q2108.16 1283 2108.16 1278.83 L2108.16 1277.88 L2103.92 1277.88 M2112.42 1276.12 L2112.42 1290.92 L2108.16 1290.92 L2108.16 1286.98 Q2106.7 1289.34 2104.52 1290.48 Q2102.35 1291.59 2099.2 1291.59 Q2095.22 1291.59 2092.86 1289.36 Q2090.52 1287.12 2090.52 1283.37 Q2090.52 1278.99 2093.44 1276.77 Q2096.38 1274.55 2102.19 1274.55 L2108.16 1274.55 L2108.16 1274.13 Q2108.16 1271.19 2106.21 1269.6 Q2104.29 1267.98 2100.8 1267.98 Q2098.57 1267.98 2096.47 1268.51 Q2094.36 1269.04 2092.42 1270.11 L2092.42 1266.17 Q2094.76 1265.27 2096.95 1264.83 Q2099.15 1264.36 2101.24 1264.36 Q2106.86 1264.36 2109.64 1267.28 Q2112.42 1270.2 2112.42 1276.12 Z" fill="#000000" fill-rule="nonzero" fill-opacity="1" /><path clip-path="url(#clip890)" d="M2125.4 1257.63 L2125.4 1264.99 L2134.18 1264.99 L2134.18 1268.3 L2125.4 1268.3 L2125.4 1282.37 Q2125.4 1285.54 2126.26 1286.45 Q2127.14 1287.35 2129.8 1287.35 L2134.18 1287.35 L2134.18 1290.92 L2129.8 1290.92 Q2124.87 1290.92 2123 1289.09 Q2121.12 1287.23 2121.12 1282.37 L2121.12 1268.3 L2118 1268.3 L2118 1264.99 L2121.12 1264.99 L2121.12 1257.63 L2125.4 1257.63 Z" fill="#000000" fill-rule="nonzero" fill-opacity="1" /><path clip-path="url(#clip890)" d="M2158.44 1265.98 L2158.44 1269.97 Q2156.63 1268.97 2154.8 1268.48 Q2153 1267.98 2151.14 1267.98 Q2147 1267.98 2144.71 1270.61 Q2142.42 1273.23 2142.42 1277.98 Q2142.42 1282.72 2144.71 1285.36 Q2147 1287.98 2151.14 1287.98 Q2153 1287.98 2154.8 1287.49 Q2156.63 1286.98 2158.44 1285.98 L2158.44 1289.92 Q2156.65 1290.75 2154.73 1291.17 Q2152.83 1291.59 2150.68 1291.59 Q2144.82 1291.59 2141.38 1287.91 Q2137.93 1284.23 2137.93 1277.98 Q2137.93 1271.63 2141.4 1268 Q2144.89 1264.36 2150.96 1264.36 Q2152.93 1264.36 2154.8 1264.78 Q2156.68 1265.17 2158.44 1265.98 Z" fill="#000000" fill-rule="nonzero" fill-opacity="1" /><path clip-path="url(#clip890)" d="M2187.39 1275.27 L2187.39 1290.92 L2183.13 1290.92 L2183.13 1275.41 Q2183.13 1271.73 2181.7 1269.9 Q2180.26 1268.07 2177.39 1268.07 Q2173.94 1268.07 2171.95 1270.27 Q2169.96 1272.47 2169.96 1276.26 L2169.96 1290.92 L2165.68 1290.92 L2165.68 1254.9 L2169.96 1254.9 L2169.96 1269.02 Q2171.49 1266.68 2173.55 1265.52 Q2175.63 1264.36 2178.34 1264.36 Q2182.81 1264.36 2185.1 1267.14 Q2187.39 1269.9 2187.39 1275.27 Z" fill="#000000" fill-rule="nonzero" fill-opacity="1" /><polyline clip-path="url(#clip890)" style="stroke:#e26f46; stroke-linecap:round; stroke-linejoin:round; stroke-width:4; stroke-opacity:1; fill:none" points="1806.55,1325.48 1941.22,1325.48 "/>
<path clip-path="url(#clip890)" d="M1985.91 1309.33 L1985.91 1313.89 Q1983.25 1312.62 1980.89 1311.99 Q1978.53 1311.37 1976.33 1311.37 Q1972.51 1311.37 1970.43 1312.85 Q1968.37 1314.33 1968.37 1317.06 Q1968.37 1319.35 1969.73 1320.53 Q1971.12 1321.69 1974.96 1322.41 L1977.79 1322.99 Q1983.02 1323.98 1985.5 1326.51 Q1988 1329.01 1988 1333.22 Q1988 1338.24 1984.62 1340.83 Q1981.26 1343.43 1974.76 1343.43 Q1972.3 1343.43 1969.52 1342.87 Q1966.77 1342.32 1963.81 1341.23 L1963.81 1336.41 Q1966.65 1338.01 1969.39 1338.82 Q1972.12 1339.63 1974.76 1339.63 Q1978.76 1339.63 1980.94 1338.06 Q1983.11 1336.48 1983.11 1333.57 Q1983.11 1331.02 1981.54 1329.58 Q1979.99 1328.15 1976.42 1327.43 L1973.58 1326.88 Q1968.34 1325.83 1966.01 1323.61 Q1963.67 1321.39 1963.67 1317.43 Q1963.67 1312.85 1966.89 1310.21 Q1970.13 1307.57 1975.8 1307.57 Q1978.23 1307.57 1980.75 1308.01 Q1983.27 1308.45 1985.91 1309.33 Z" fill="#000000" fill-rule="nonzero" fill-opacity="1" /><path clip-path="url(#clip890)" d="M1994.66 1332.52 L1994.66 1316.83 L1998.92 1316.83 L1998.92 1332.36 Q1998.92 1336.04 2000.36 1337.89 Q2001.79 1339.72 2004.66 1339.72 Q2008.11 1339.72 2010.1 1337.52 Q2012.12 1335.32 2012.12 1331.53 L2012.12 1316.83 L2016.38 1316.83 L2016.38 1342.76 L2012.12 1342.76 L2012.12 1338.77 Q2010.57 1341.13 2008.51 1342.29 Q2006.47 1343.43 2003.76 1343.43 Q1999.29 1343.43 1996.98 1340.65 Q1994.66 1337.87 1994.66 1332.52 M2005.38 1316.2 L2005.38 1316.2 Z" fill="#000000" fill-rule="nonzero" fill-opacity="1" /><path clip-path="url(#clip890)" d="M2043.76 1329.82 Q2043.76 1325.12 2041.82 1322.45 Q2039.89 1319.77 2036.51 1319.77 Q2033.14 1319.77 2031.19 1322.45 Q2029.27 1325.12 2029.27 1329.82 Q2029.27 1334.51 2031.19 1337.2 Q2033.14 1339.86 2036.51 1339.86 Q2039.89 1339.86 2041.82 1337.2 Q2043.76 1334.51 2043.76 1329.82 M2029.27 1320.76 Q2030.61 1318.45 2032.65 1317.34 Q2034.71 1316.2 2037.56 1316.2 Q2042.28 1316.2 2045.22 1319.95 Q2048.18 1323.7 2048.18 1329.82 Q2048.18 1335.93 2045.22 1339.68 Q2042.28 1343.43 2037.56 1343.43 Q2034.71 1343.43 2032.65 1342.32 Q2030.61 1341.18 2029.27 1338.87 L2029.27 1342.76 L2024.99 1342.76 L2024.99 1306.74 L2029.27 1306.74 L2029.27 1320.76 Z" fill="#000000" fill-rule="nonzero" fill-opacity="1" /><path clip-path="url(#clip890)" d="M2071.77 1317.59 L2071.77 1321.62 Q2069.96 1320.7 2068.02 1320.23 Q2066.08 1319.77 2063.99 1319.77 Q2060.82 1319.77 2059.22 1320.74 Q2057.65 1321.71 2057.65 1323.66 Q2057.65 1325.14 2058.78 1326 Q2059.92 1326.83 2063.34 1327.59 L2064.8 1327.92 Q2069.34 1328.89 2071.24 1330.67 Q2073.16 1332.43 2073.16 1335.6 Q2073.16 1339.21 2070.29 1341.32 Q2067.44 1343.43 2062.44 1343.43 Q2060.36 1343.43 2058.09 1343.01 Q2055.84 1342.62 2053.34 1341.81 L2053.34 1337.41 Q2055.7 1338.63 2058 1339.26 Q2060.29 1339.86 2062.53 1339.86 Q2065.54 1339.86 2067.16 1338.84 Q2068.78 1337.8 2068.78 1335.93 Q2068.78 1334.19 2067.6 1333.26 Q2066.45 1332.34 2062.49 1331.48 L2061.01 1331.14 Q2057.05 1330.3 2055.29 1328.59 Q2053.53 1326.85 2053.53 1323.84 Q2053.53 1320.19 2056.12 1318.2 Q2058.71 1316.2 2063.48 1316.2 Q2065.84 1316.2 2067.93 1316.55 Q2070.01 1316.9 2071.77 1317.59 Z" fill="#000000" fill-rule="nonzero" fill-opacity="1" /><path clip-path="url(#clip890)" d="M2091.72 1329.72 Q2086.56 1329.72 2084.57 1330.9 Q2082.58 1332.08 2082.58 1334.93 Q2082.58 1337.2 2084.06 1338.54 Q2085.57 1339.86 2088.14 1339.86 Q2091.68 1339.86 2093.81 1337.36 Q2095.96 1334.84 2095.96 1330.67 L2095.96 1329.72 L2091.72 1329.72 M2100.22 1327.96 L2100.22 1342.76 L2095.96 1342.76 L2095.96 1338.82 Q2094.5 1341.18 2092.32 1342.32 Q2090.15 1343.43 2087 1343.43 Q2083.02 1343.43 2080.66 1341.2 Q2078.32 1338.96 2078.32 1335.21 Q2078.32 1330.83 2081.24 1328.61 Q2084.18 1326.39 2089.99 1326.39 L2095.96 1326.39 L2095.96 1325.97 Q2095.96 1323.03 2094.01 1321.44 Q2092.09 1319.82 2088.6 1319.82 Q2086.38 1319.82 2084.27 1320.35 Q2082.16 1320.88 2080.22 1321.95 L2080.22 1318.01 Q2082.56 1317.11 2084.76 1316.67 Q2086.95 1316.2 2089.04 1316.2 Q2094.66 1316.2 2097.44 1319.12 Q2100.22 1322.04 2100.22 1327.96 Z" fill="#000000" fill-rule="nonzero" fill-opacity="1" /><path clip-path="url(#clip890)" d="M2129.18 1321.81 Q2130.77 1318.94 2133 1317.57 Q2135.22 1316.2 2138.23 1316.2 Q2142.28 1316.2 2144.48 1319.05 Q2146.68 1321.88 2146.68 1327.11 L2146.68 1342.76 L2142.39 1342.76 L2142.39 1327.25 Q2142.39 1323.52 2141.07 1321.71 Q2139.76 1319.91 2137.05 1319.91 Q2133.74 1319.91 2131.82 1322.11 Q2129.89 1324.31 2129.89 1328.1 L2129.89 1342.76 L2125.61 1342.76 L2125.61 1327.25 Q2125.61 1323.5 2124.29 1321.71 Q2122.97 1319.91 2120.22 1319.91 Q2116.95 1319.91 2115.03 1322.13 Q2113.11 1324.33 2113.11 1328.1 L2113.11 1342.76 L2108.83 1342.76 L2108.83 1316.83 L2113.11 1316.83 L2113.11 1320.86 Q2114.57 1318.47 2116.61 1317.34 Q2118.64 1316.2 2121.45 1316.2 Q2124.27 1316.2 2126.24 1317.64 Q2128.23 1319.07 2129.18 1321.81 Z" fill="#000000" fill-rule="nonzero" fill-opacity="1" /><path clip-path="url(#clip890)" d="M2159.29 1338.87 L2159.29 1352.62 L2155.01 1352.62 L2155.01 1316.83 L2159.29 1316.83 L2159.29 1320.76 Q2160.63 1318.45 2162.67 1317.34 Q2164.73 1316.2 2167.58 1316.2 Q2172.3 1316.2 2175.24 1319.95 Q2178.2 1323.7 2178.2 1329.82 Q2178.2 1335.93 2175.24 1339.68 Q2172.3 1343.43 2167.58 1343.43 Q2164.73 1343.43 2162.67 1342.32 Q2160.63 1341.18 2159.29 1338.87 M2173.78 1329.82 Q2173.78 1325.12 2171.84 1322.45 Q2169.92 1319.77 2166.54 1319.77 Q2163.16 1319.77 2161.21 1322.45 Q2159.29 1325.12 2159.29 1329.82 Q2159.29 1334.51 2161.21 1337.2 Q2163.16 1339.86 2166.54 1339.86 Q2169.92 1339.86 2171.84 1337.2 Q2173.78 1334.51 2173.78 1329.82 Z" fill="#000000" fill-rule="nonzero" fill-opacity="1" /><path clip-path="url(#clip890)" d="M2185.26 1306.74 L2189.52 1306.74 L2189.52 1342.76 L2185.26 1342.76 L2185.26 1306.74 Z" fill="#000000" fill-rule="nonzero" fill-opacity="1" /><path clip-path="url(#clip890)" d="M2198.44 1316.83 L2202.69 1316.83 L2202.69 1342.76 L2198.44 1342.76 L2198.44 1316.83 M2198.44 1306.74 L2202.69 1306.74 L2202.69 1312.13 L2198.44 1312.13 L2198.44 1306.74 Z" fill="#000000" fill-rule="nonzero" fill-opacity="1" /><path clip-path="url(#clip890)" d="M2233.16 1327.11 L2233.16 1342.76 L2228.9 1342.76 L2228.9 1327.25 Q2228.9 1323.57 2227.46 1321.74 Q2226.03 1319.91 2223.16 1319.91 Q2219.71 1319.91 2217.72 1322.11 Q2215.73 1324.31 2215.73 1328.1 L2215.73 1342.76 L2211.44 1342.76 L2211.44 1316.83 L2215.73 1316.83 L2215.73 1320.86 Q2217.25 1318.52 2219.31 1317.36 Q2221.4 1316.2 2224.11 1316.2 Q2228.57 1316.2 2230.87 1318.98 Q2233.16 1321.74 2233.16 1327.11 Z" fill="#000000" fill-rule="nonzero" fill-opacity="1" /><path clip-path="url(#clip890)" d="M2258.71 1329.49 Q2258.71 1324.86 2256.79 1322.32 Q2254.89 1319.77 2251.44 1319.77 Q2248.02 1319.77 2246.1 1322.32 Q2244.2 1324.86 2244.2 1329.49 Q2244.2 1334.1 2246.1 1336.64 Q2248.02 1339.19 2251.44 1339.19 Q2254.89 1339.19 2256.79 1336.64 Q2258.71 1334.1 2258.71 1329.49 M2262.97 1339.54 Q2262.97 1346.16 2260.03 1349.38 Q2257.09 1352.62 2251.03 1352.62 Q2248.78 1352.62 2246.79 1352.27 Q2244.8 1351.95 2242.93 1351.25 L2242.93 1347.11 Q2244.8 1348.13 2246.63 1348.61 Q2248.46 1349.1 2250.36 1349.1 Q2254.55 1349.1 2256.63 1346.9 Q2258.71 1344.72 2258.71 1340.3 L2258.71 1338.2 Q2257.39 1340.49 2255.33 1341.62 Q2253.27 1342.76 2250.4 1342.76 Q2245.63 1342.76 2242.72 1339.12 Q2239.8 1335.49 2239.8 1329.49 Q2239.8 1323.47 2242.72 1319.84 Q2245.63 1316.2 2250.4 1316.2 Q2253.27 1316.2 2255.33 1317.34 Q2257.39 1318.47 2258.71 1320.76 L2258.71 1316.83 L2262.97 1316.83 L2262.97 1339.54 Z" fill="#000000" fill-rule="nonzero" fill-opacity="1" /></svg>
