<?xml version="1.0" encoding="utf-8"?>
<svg xmlns="http://www.w3.org/2000/svg" xmlns:xlink="http://www.w3.org/1999/xlink" width="600" height="400" viewBox="0 0 2400 1600">
<defs>
  <clipPath id="clip720">
    <rect x="0" y="0" width="2400" height="1600"/>
  </clipPath>
</defs>
<path clip-path="url(#clip720)" d="M0 1600 L2400 1600 L2400 0 L0 0  Z" fill="#ffffff" fill-rule="evenodd" fill-opacity="1"/>
<defs>
  <clipPath id="clip721">
    <rect x="251" y="47" width="2102" height="1377"/>
  </clipPath>
</defs>
<path clip-path="url(#clip720)" d="M242.135 1423.18 L2352.76 1423.18 L2352.76 47.2441 L242.135 47.2441  Z" fill="#ffffff" fill-rule="evenodd" fill-opacity="1"/>
<defs>
  <clipPath id="clip722">
    <rect x="242" y="47" width="2112" height="1377"/>
  </clipPath>
</defs>
<polyline clip-path="url(#clip722)" style="stroke:#000000; stroke-linecap:round; stroke-linejoin:round; stroke-width:2; stroke-opacity:0.1; fill:none" points="299.876,1423.18 299.876,47.2441 "/>
<polyline clip-path="url(#clip722)" style="stroke:#000000; stroke-linecap:round; stroke-linejoin:round; stroke-width:2; stroke-opacity:0.1; fill:none" points="798.162,1423.18 798.162,47.2441 "/>
<polyline clip-path="url(#clip722)" style="stroke:#000000; stroke-linecap:round; stroke-linejoin:round; stroke-width:2; stroke-opacity:0.1; fill:none" points="1296.45,1423.18 1296.45,47.2441 "/>
<polyline clip-path="url(#clip722)" style="stroke:#000000; stroke-linecap:round; stroke-linejoin:round; stroke-width:2; stroke-opacity:0.1; fill:none" points="1794.74,1423.18 1794.74,47.2441 "/>
<polyline clip-path="url(#clip722)" style="stroke:#000000; stroke-linecap:round; stroke-linejoin:round; stroke-width:2; stroke-opacity:0.1; fill:none" points="2293.02,1423.18 2293.02,47.2441 "/>
<polyline clip-path="url(#clip722)" style="stroke:#000000; stroke-linecap:round; stroke-linejoin:round; stroke-width:2; stroke-opacity:0.1; fill:none" points="242.135,1201.14 2352.76,1201.14 "/>
<polyline clip-path="url(#clip722)" style="stroke:#000000; stroke-linecap:round; stroke-linejoin:round; stroke-width:2; stroke-opacity:0.1; fill:none" points="242.135,876.814 2352.76,876.814 "/>
<polyline clip-path="url(#clip722)" style="stroke:#000000; stroke-linecap:round; stroke-linejoin:round; stroke-width:2; stroke-opacity:0.1; fill:none" points="242.135,552.486 2352.76,552.486 "/>
<polyline clip-path="url(#clip722)" style="stroke:#000000; stroke-linecap:round; stroke-linejoin:round; stroke-width:2; stroke-opacity:0.1; fill:none" points="242.135,228.158 2352.76,228.158 "/>
<polyline clip-path="url(#clip720)" style="stroke:#000000; stroke-linecap:round; stroke-linejoin:round; stroke-width:4; stroke-opacity:1; fill:none" points="242.135,1423.18 2352.76,1423.18 "/>
<polyline clip-path="url(#clip720)" style="stroke:#000000; stroke-linecap:round; stroke-linejoin:round; stroke-width:4; stroke-opacity:1; fill:none" points="299.876,1423.18 299.876,1404.28 "/>
<polyline clip-path="url(#clip720)" style="stroke:#000000; stroke-linecap:round; stroke-linejoin:round; stroke-width:4; stroke-opacity:1; fill:none" points="798.162,1423.18 798.162,1404.28 "/>
<polyline clip-path="url(#clip720)" style="stroke:#000000; stroke-linecap:round; stroke-linejoin:round; stroke-width:4; stroke-opacity:1; fill:none" points="1296.45,1423.18 1296.45,1404.28 "/>
<polyline clip-path="url(#clip720)" style="stroke:#000000; stroke-linecap:round; stroke-linejoin:round; stroke-width:4; stroke-opacity:1; fill:none" points="1794.74,1423.18 1794.74,1404.28 "/>
<polyline clip-path="url(#clip720)" style="stroke:#000000; stroke-linecap:round; stroke-linejoin:round; stroke-width:4; stroke-opacity:1; fill:none" points="2293.02,1423.18 2293.02,1404.28 "/>
<path clip-path="url(#clip720)" d="M299.876 1454.1 Q296.265 1454.1 294.436 1457.66 Q292.631 1461.2 292.631 1468.33 Q292.631 1475.44 294.436 1479.01 Q296.265 1482.55 299.876 1482.55 Q303.51 1482.55 305.316 1479.01 Q307.145 1475.44 307.145 1468.33 Q307.145 1461.2 305.316 1457.66 Q303.51 1454.1 299.876 1454.1 M299.876 1450.39 Q305.686 1450.39 308.742 1455 Q311.82 1459.58 311.82 1468.33 Q311.82 1477.06 308.742 1481.67 Q305.686 1486.25 299.876 1486.25 Q294.066 1486.25 290.987 1481.67 Q287.932 1477.06 287.932 1468.33 Q287.932 1459.58 290.987 1455 Q294.066 1450.39 299.876 1450.39 Z" fill="#000000" fill-rule="nonzero" fill-opacity="1" /><path clip-path="url(#clip720)" d="M761.855 1481.64 L778.174 1481.64 L778.174 1485.58 L756.23 1485.58 L756.23 1481.64 Q758.892 1478.89 763.475 1474.26 Q768.082 1469.61 769.262 1468.27 Q771.507 1465.74 772.387 1464.01 Q773.29 1462.25 773.29 1460.56 Q773.29 1457.8 771.345 1456.07 Q769.424 1454.33 766.322 1454.33 Q764.123 1454.33 761.67 1455.09 Q759.239 1455.86 756.461 1457.41 L756.461 1452.69 Q759.285 1451.55 761.739 1450.97 Q764.193 1450.39 766.23 1450.39 Q771.6 1450.39 774.794 1453.08 Q777.989 1455.77 777.989 1460.26 Q777.989 1462.39 777.179 1464.31 Q776.392 1466.2 774.285 1468.8 Q773.707 1469.47 770.605 1472.69 Q767.503 1475.88 761.855 1481.64 Z" fill="#000000" fill-rule="nonzero" fill-opacity="1" /><path clip-path="url(#clip720)" d="M788.035 1451.02 L806.392 1451.02 L806.392 1454.96 L792.318 1454.96 L792.318 1463.43 Q793.336 1463.08 794.355 1462.92 Q795.373 1462.73 796.392 1462.73 Q802.179 1462.73 805.558 1465.9 Q808.938 1469.08 808.938 1474.49 Q808.938 1480.07 805.466 1483.17 Q801.993 1486.25 795.674 1486.25 Q793.498 1486.25 791.23 1485.88 Q788.984 1485.51 786.577 1484.77 L786.577 1480.07 Q788.66 1481.2 790.882 1481.76 Q793.105 1482.32 795.581 1482.32 Q799.586 1482.32 801.924 1480.21 Q804.262 1478.1 804.262 1474.49 Q804.262 1470.88 801.924 1468.77 Q799.586 1466.67 795.581 1466.67 Q793.706 1466.67 791.831 1467.08 Q789.98 1467.5 788.035 1468.38 L788.035 1451.02 Z" fill="#000000" fill-rule="nonzero" fill-opacity="1" /><path clip-path="url(#clip720)" d="M828.151 1454.1 Q824.54 1454.1 822.711 1457.66 Q820.905 1461.2 820.905 1468.33 Q820.905 1475.44 822.711 1479.01 Q824.54 1482.55 828.151 1482.55 Q831.785 1482.55 833.59 1479.01 Q835.419 1475.44 835.419 1468.33 Q835.419 1461.2 833.59 1457.66 Q831.785 1454.1 828.151 1454.1 M828.151 1450.39 Q833.961 1450.39 837.016 1455 Q840.095 1459.58 840.095 1468.33 Q840.095 1477.06 837.016 1481.67 Q833.961 1486.25 828.151 1486.25 Q822.341 1486.25 819.262 1481.67 Q816.206 1477.06 816.206 1468.33 Q816.206 1459.58 819.262 1455 Q822.341 1450.39 828.151 1450.39 Z" fill="#000000" fill-rule="nonzero" fill-opacity="1" /><path clip-path="url(#clip720)" d="M1256.07 1451.02 L1274.42 1451.02 L1274.42 1454.96 L1260.35 1454.96 L1260.35 1463.43 Q1261.37 1463.08 1262.39 1462.92 Q1263.4 1462.73 1264.42 1462.73 Q1270.21 1462.73 1273.59 1465.9 Q1276.97 1469.08 1276.97 1474.49 Q1276.97 1480.07 1273.5 1483.17 Q1270.03 1486.25 1263.71 1486.25 Q1261.53 1486.25 1259.26 1485.88 Q1257.02 1485.51 1254.61 1484.77 L1254.61 1480.07 Q1256.69 1481.2 1258.91 1481.76 Q1261.14 1482.32 1263.61 1482.32 Q1267.62 1482.32 1269.96 1480.21 Q1272.29 1478.1 1272.29 1474.49 Q1272.29 1470.88 1269.96 1468.77 Q1267.62 1466.67 1263.61 1466.67 Q1261.74 1466.67 1259.86 1467.08 Q1258.01 1467.5 1256.07 1468.38 L1256.07 1451.02 Z" fill="#000000" fill-rule="nonzero" fill-opacity="1" /><path clip-path="url(#clip720)" d="M1296.18 1454.1 Q1292.57 1454.1 1290.74 1457.66 Q1288.94 1461.2 1288.94 1468.33 Q1288.94 1475.44 1290.74 1479.01 Q1292.57 1482.55 1296.18 1482.55 Q1299.82 1482.55 1301.62 1479.01 Q1303.45 1475.44 1303.45 1468.33 Q1303.45 1461.2 1301.62 1457.66 Q1299.82 1454.1 1296.18 1454.1 M1296.18 1450.39 Q1301.99 1450.39 1305.05 1455 Q1308.13 1459.58 1308.13 1468.33 Q1308.13 1477.06 1305.05 1481.67 Q1301.99 1486.25 1296.18 1486.25 Q1290.37 1486.25 1287.29 1481.67 Q1284.24 1477.06 1284.24 1468.33 Q1284.24 1459.58 1287.29 1455 Q1290.37 1450.39 1296.18 1450.39 Z" fill="#000000" fill-rule="nonzero" fill-opacity="1" /><path clip-path="url(#clip720)" d="M1326.34 1454.1 Q1322.73 1454.1 1320.9 1457.66 Q1319.1 1461.2 1319.1 1468.33 Q1319.1 1475.44 1320.9 1479.01 Q1322.73 1482.55 1326.34 1482.55 Q1329.98 1482.55 1331.78 1479.01 Q1333.61 1475.44 1333.61 1468.33 Q1333.61 1461.2 1331.78 1457.66 Q1329.98 1454.1 1326.34 1454.1 M1326.34 1450.39 Q1332.15 1450.39 1335.21 1455 Q1338.29 1459.58 1338.29 1468.33 Q1338.29 1477.06 1335.21 1481.67 Q1332.15 1486.25 1326.34 1486.25 Q1320.53 1486.25 1317.46 1481.67 Q1314.4 1477.06 1314.4 1468.33 Q1314.4 1459.58 1317.46 1455 Q1320.53 1450.39 1326.34 1450.39 Z" fill="#000000" fill-rule="nonzero" fill-opacity="1" /><path clip-path="url(#clip720)" d="M1753.01 1451.02 L1775.23 1451.02 L1775.23 1453.01 L1762.69 1485.58 L1757.8 1485.58 L1769.61 1454.96 L1753.01 1454.96 L1753.01 1451.02 Z" fill="#000000" fill-rule="nonzero" fill-opacity="1" /><path clip-path="url(#clip720)" d="M1784.4 1451.02 L1802.76 1451.02 L1802.76 1454.96 L1788.68 1454.96 L1788.68 1463.43 Q1789.7 1463.08 1790.72 1462.92 Q1791.74 1462.73 1792.76 1462.73 Q1798.54 1462.73 1801.92 1465.9 Q1805.3 1469.08 1805.3 1474.49 Q1805.3 1480.07 1801.83 1483.17 Q1798.36 1486.25 1792.04 1486.25 Q1789.86 1486.25 1787.59 1485.88 Q1785.35 1485.51 1782.94 1484.77 L1782.94 1480.07 Q1785.02 1481.2 1787.25 1481.76 Q1789.47 1482.32 1791.95 1482.32 Q1795.95 1482.32 1798.29 1480.21 Q1800.63 1478.1 1800.63 1474.49 Q1800.63 1470.88 1798.29 1468.77 Q1795.95 1466.67 1791.95 1466.67 Q1790.07 1466.67 1788.2 1467.08 Q1786.34 1467.5 1784.4 1468.38 L1784.4 1451.02 Z" fill="#000000" fill-rule="nonzero" fill-opacity="1" /><path clip-path="url(#clip720)" d="M1824.51 1454.1 Q1820.9 1454.1 1819.08 1457.66 Q1817.27 1461.2 1817.27 1468.33 Q1817.27 1475.44 1819.08 1479.01 Q1820.9 1482.55 1824.51 1482.55 Q1828.15 1482.55 1829.95 1479.01 Q1831.78 1475.44 1831.78 1468.33 Q1831.78 1461.2 1829.95 1457.66 Q1828.15 1454.1 1824.51 1454.1 M1824.51 1450.39 Q1830.33 1450.39 1833.38 1455 Q1836.46 1459.58 1836.46 1468.33 Q1836.46 1477.06 1833.38 1481.67 Q1830.33 1486.25 1824.51 1486.25 Q1818.7 1486.25 1815.63 1481.67 Q1812.57 1477.06 1812.57 1468.33 Q1812.57 1459.58 1815.63 1455 Q1818.7 1450.39 1824.51 1450.39 Z" fill="#000000" fill-rule="nonzero" fill-opacity="1" /><path clip-path="url(#clip720)" d="M2237.55 1481.64 L2245.19 1481.64 L2245.19 1455.28 L2236.88 1456.95 L2236.88 1452.69 L2245.14 1451.02 L2249.82 1451.02 L2249.82 1481.64 L2257.45 1481.64 L2257.45 1485.58 L2237.55 1485.58 L2237.55 1481.64 Z" fill="#000000" fill-rule="nonzero" fill-opacity="1" /><path clip-path="url(#clip720)" d="M2276.9 1454.1 Q2273.29 1454.1 2271.46 1457.66 Q2269.65 1461.2 2269.65 1468.33 Q2269.65 1475.44 2271.46 1479.01 Q2273.29 1482.55 2276.9 1482.55 Q2280.53 1482.55 2282.34 1479.01 Q2284.17 1475.44 2284.17 1468.33 Q2284.17 1461.2 2282.34 1457.66 Q2280.53 1454.1 2276.9 1454.1 M2276.9 1450.39 Q2282.71 1450.39 2285.76 1455 Q2288.84 1459.58 2288.84 1468.33 Q2288.84 1477.06 2285.76 1481.67 Q2282.71 1486.25 2276.9 1486.25 Q2271.09 1486.25 2268.01 1481.67 Q2264.95 1477.06 2264.95 1468.33 Q2264.95 1459.58 2268.01 1455 Q2271.09 1450.39 2276.9 1450.39 Z" fill="#000000" fill-rule="nonzero" fill-opacity="1" /><path clip-path="url(#clip720)" d="M2307.06 1454.1 Q2303.45 1454.1 2301.62 1457.66 Q2299.82 1461.2 2299.82 1468.33 Q2299.82 1475.44 2301.62 1479.01 Q2303.45 1482.55 2307.06 1482.55 Q2310.69 1482.55 2312.5 1479.01 Q2314.33 1475.44 2314.33 1468.33 Q2314.33 1461.2 2312.5 1457.66 Q2310.69 1454.1 2307.06 1454.1 M2307.06 1450.39 Q2312.87 1450.39 2315.93 1455 Q2319 1459.58 2319 1468.33 Q2319 1477.06 2315.93 1481.67 Q2312.87 1486.25 2307.06 1486.25 Q2301.25 1486.25 2298.17 1481.67 Q2295.12 1477.06 2295.12 1468.33 Q2295.12 1459.58 2298.17 1455 Q2301.25 1450.39 2307.06 1450.39 Z" fill="#000000" fill-rule="nonzero" fill-opacity="1" /><path clip-path="url(#clip720)" d="M2337.22 1454.1 Q2333.61 1454.1 2331.78 1457.66 Q2329.98 1461.2 2329.98 1468.33 Q2329.98 1475.44 2331.78 1479.01 Q2333.61 1482.55 2337.22 1482.55 Q2340.86 1482.55 2342.66 1479.01 Q2344.49 1475.44 2344.49 1468.33 Q2344.49 1461.2 2342.66 1457.66 Q2340.86 1454.1 2337.22 1454.1 M2337.22 1450.39 Q2343.03 1450.39 2346.09 1455 Q2349.17 1459.58 2349.17 1468.33 Q2349.17 1477.06 2346.09 1481.67 Q2343.03 1486.25 2337.22 1486.25 Q2331.41 1486.25 2328.33 1481.67 Q2325.28 1477.06 2325.28 1468.33 Q2325.28 1459.58 2328.33 1455 Q2331.41 1450.39 2337.22 1450.39 Z" fill="#000000" fill-rule="nonzero" fill-opacity="1" /><path clip-path="url(#clip720)" d="M1165.17 1520.52 L1171.6 1520.52 L1171.6 1568.04 L1165.17 1568.04 L1165.17 1520.52 Z" fill="#000000" fill-rule="nonzero" fill-opacity="1" /><path clip-path="url(#clip720)" d="M1189.93 1522.27 L1189.93 1532.4 L1201.99 1532.4 L1201.99 1536.95 L1189.93 1536.95 L1189.93 1556.3 Q1189.93 1560.66 1191.11 1561.9 Q1192.32 1563.14 1195.98 1563.14 L1201.99 1563.14 L1201.99 1568.04 L1195.98 1568.04 Q1189.2 1568.04 1186.62 1565.53 Q1184.04 1562.98 1184.04 1556.3 L1184.04 1536.95 L1179.74 1536.95 L1179.74 1532.4 L1184.04 1532.4 L1184.04 1522.27 L1189.93 1522.27 Z" fill="#000000" fill-rule="nonzero" fill-opacity="1" /><path clip-path="url(#clip720)" d="M1240.19 1548.76 L1240.19 1551.62 L1213.26 1551.62 Q1213.64 1557.67 1216.89 1560.85 Q1220.17 1564 1225.99 1564 Q1229.36 1564 1232.52 1563.17 Q1235.7 1562.35 1238.82 1560.69 L1238.82 1566.23 Q1235.67 1567.57 1232.36 1568.27 Q1229.05 1568.97 1225.64 1568.97 Q1217.11 1568.97 1212.11 1564 Q1207.15 1559.04 1207.15 1550.57 Q1207.15 1541.82 1211.86 1536.69 Q1216.6 1531.54 1224.62 1531.54 Q1231.81 1531.54 1235.98 1536.18 Q1240.19 1540.8 1240.19 1548.76 M1234.33 1547.04 Q1234.27 1542.23 1231.62 1539.37 Q1229.01 1536.5 1224.69 1536.5 Q1219.78 1536.5 1216.82 1539.27 Q1213.9 1542.04 1213.45 1547.07 L1234.33 1547.04 Z" fill="#000000" fill-rule="nonzero" fill-opacity="1" /><path clip-path="url(#clip720)" d="M1270.45 1537.87 Q1269.47 1537.3 1268.29 1537.04 Q1267.14 1536.76 1265.74 1536.76 Q1260.78 1536.76 1258.11 1540 Q1255.46 1543.22 1255.46 1549.27 L1255.46 1568.04 L1249.58 1568.04 L1249.58 1532.4 L1255.46 1532.4 L1255.46 1537.93 Q1257.31 1534.69 1260.27 1533.13 Q1263.23 1531.54 1267.46 1531.54 Q1268.07 1531.54 1268.8 1531.63 Q1269.53 1531.7 1270.42 1531.85 L1270.45 1537.87 Z" fill="#000000" fill-rule="nonzero" fill-opacity="1" /><path clip-path="url(#clip720)" d="M1292.8 1550.12 Q1285.7 1550.12 1282.96 1551.75 Q1280.23 1553.37 1280.23 1557.29 Q1280.23 1560.4 1282.26 1562.25 Q1284.33 1564.07 1287.86 1564.07 Q1292.73 1564.07 1295.66 1560.63 Q1298.62 1557.16 1298.62 1551.43 L1298.62 1550.12 L1292.8 1550.12 M1304.48 1547.71 L1304.48 1568.04 L1298.62 1568.04 L1298.62 1562.63 Q1296.62 1565.88 1293.63 1567.44 Q1290.63 1568.97 1286.31 1568.97 Q1280.83 1568.97 1277.58 1565.91 Q1274.37 1562.82 1274.37 1557.67 Q1274.37 1551.65 1278.38 1548.6 Q1282.42 1545.54 1290.41 1545.54 L1298.62 1545.54 L1298.62 1544.97 Q1298.62 1540.93 1295.95 1538.73 Q1293.31 1536.5 1288.5 1536.5 Q1285.45 1536.5 1282.55 1537.23 Q1279.65 1537.97 1276.98 1539.43 L1276.98 1534.02 Q1280.19 1532.78 1283.22 1532.17 Q1286.24 1531.54 1289.11 1531.54 Q1296.84 1531.54 1300.66 1535.55 Q1304.48 1539.56 1304.48 1547.71 Z" fill="#000000" fill-rule="nonzero" fill-opacity="1" /><path clip-path="url(#clip720)" d="M1322.34 1522.27 L1322.34 1532.4 L1334.4 1532.4 L1334.4 1536.95 L1322.34 1536.95 L1322.34 1556.3 Q1322.34 1560.66 1323.51 1561.9 Q1324.72 1563.14 1328.38 1563.14 L1334.4 1563.14 L1334.4 1568.04 L1328.38 1568.04 Q1321.6 1568.04 1319.03 1565.53 Q1316.45 1562.98 1316.45 1556.3 L1316.45 1536.95 L1312.15 1536.95 L1312.15 1532.4 L1316.45 1532.4 L1316.45 1522.27 L1322.34 1522.27 Z" fill="#000000" fill-rule="nonzero" fill-opacity="1" /><path clip-path="url(#clip720)" d="M1342.1 1532.4 L1347.96 1532.4 L1347.96 1568.04 L1342.1 1568.04 L1342.1 1532.4 M1342.1 1518.52 L1347.96 1518.52 L1347.96 1525.93 L1342.1 1525.93 L1342.1 1518.52 Z" fill="#000000" fill-rule="nonzero" fill-opacity="1" /><path clip-path="url(#clip720)" d="M1374.02 1536.5 Q1369.31 1536.5 1366.58 1540.19 Q1363.84 1543.85 1363.84 1550.25 Q1363.84 1556.65 1366.55 1560.34 Q1369.28 1564 1374.02 1564 Q1378.7 1564 1381.44 1560.31 Q1384.18 1556.62 1384.18 1550.25 Q1384.18 1543.92 1381.44 1540.23 Q1378.7 1536.5 1374.02 1536.5 M1374.02 1531.54 Q1381.66 1531.54 1386.02 1536.5 Q1390.38 1541.47 1390.38 1550.25 Q1390.38 1559 1386.02 1564 Q1381.66 1568.97 1374.02 1568.97 Q1366.35 1568.97 1361.99 1564 Q1357.66 1559 1357.66 1550.25 Q1357.66 1541.47 1361.99 1536.5 Q1366.35 1531.54 1374.02 1531.54 Z" fill="#000000" fill-rule="nonzero" fill-opacity="1" /><path clip-path="url(#clip720)" d="M1429.72 1546.53 L1429.72 1568.04 L1423.87 1568.04 L1423.87 1546.72 Q1423.87 1541.66 1421.89 1539.14 Q1419.92 1536.63 1415.97 1536.63 Q1411.23 1536.63 1408.5 1539.65 Q1405.76 1542.68 1405.76 1547.9 L1405.76 1568.04 L1399.87 1568.04 L1399.87 1532.4 L1405.76 1532.4 L1405.76 1537.93 Q1407.86 1534.72 1410.69 1533.13 Q1413.56 1531.54 1417.28 1531.54 Q1423.42 1531.54 1426.57 1535.36 Q1429.72 1539.14 1429.72 1546.53 Z" fill="#000000" fill-rule="nonzero" fill-opacity="1" /><polyline clip-path="url(#clip720)" style="stroke:#000000; stroke-linecap:round; stroke-linejoin:round; stroke-width:4; stroke-opacity:1; fill:none" points="242.135,1423.18 242.135,47.2441 "/>
<polyline clip-path="url(#clip720)" style="stroke:#000000; stroke-linecap:round; stroke-linejoin:round; stroke-width:4; stroke-opacity:1; fill:none" points="242.135,1201.14 261.032,1201.14 "/>
<polyline clip-path="url(#clip720)" style="stroke:#000000; stroke-linecap:round; stroke-linejoin:round; stroke-width:4; stroke-opacity:1; fill:none" points="242.135,876.814 261.032,876.814 "/>
<polyline clip-path="url(#clip720)" style="stroke:#000000; stroke-linecap:round; stroke-linejoin:round; stroke-width:4; stroke-opacity:1; fill:none" points="242.135,552.486 261.032,552.486 "/>
<polyline clip-path="url(#clip720)" style="stroke:#000000; stroke-linecap:round; stroke-linejoin:round; stroke-width:4; stroke-opacity:1; fill:none" points="242.135,228.158 261.032,228.158 "/>
<path clip-path="url(#clip720)" d="M114.26 1201.59 L143.936 1201.59 L143.936 1205.53 L114.26 1205.53 L114.26 1201.59 Z" fill="#000000" fill-rule="nonzero" fill-opacity="1" /><path clip-path="url(#clip720)" d="M168.195 1199.79 Q171.552 1200.51 173.427 1202.77 Q175.325 1205.04 175.325 1208.38 Q175.325 1213.49 171.806 1216.29 Q168.288 1219.09 161.806 1219.09 Q159.63 1219.09 157.315 1218.65 Q155.024 1218.24 152.57 1217.38 L152.57 1212.87 Q154.515 1214 156.829 1214.58 Q159.144 1215.16 161.667 1215.16 Q166.065 1215.16 168.357 1213.42 Q170.672 1211.69 170.672 1208.38 Q170.672 1205.32 168.519 1203.61 Q166.39 1201.87 162.57 1201.87 L158.542 1201.87 L158.542 1198.03 L162.755 1198.03 Q166.204 1198.03 168.033 1196.66 Q169.862 1195.27 169.862 1192.68 Q169.862 1190.02 167.964 1188.61 Q166.089 1187.17 162.57 1187.17 Q160.649 1187.17 158.45 1187.59 Q156.251 1188.01 153.612 1188.89 L153.612 1184.72 Q156.274 1183.98 158.589 1183.61 Q160.927 1183.24 162.987 1183.24 Q168.311 1183.24 171.413 1185.67 Q174.514 1188.07 174.514 1192.2 Q174.514 1195.07 172.871 1197.06 Q171.227 1199.02 168.195 1199.79 Z" fill="#000000" fill-rule="nonzero" fill-opacity="1" /><path clip-path="url(#clip720)" d="M194.19 1186.94 Q190.579 1186.94 188.75 1190.51 Q186.945 1194.05 186.945 1201.18 Q186.945 1208.28 188.75 1211.85 Q190.579 1215.39 194.19 1215.39 Q197.825 1215.39 199.63 1211.85 Q201.459 1208.28 201.459 1201.18 Q201.459 1194.05 199.63 1190.51 Q197.825 1186.94 194.19 1186.94 M194.19 1183.24 Q200 1183.24 203.056 1187.84 Q206.135 1192.43 206.135 1201.18 Q206.135 1209.9 203.056 1214.51 Q200 1219.09 194.19 1219.09 Q188.38 1219.09 185.301 1214.51 Q182.246 1209.9 182.246 1201.18 Q182.246 1192.43 185.301 1187.84 Q188.38 1183.24 194.19 1183.24 Z" fill="#000000" fill-rule="nonzero" fill-opacity="1" /><path clip-path="url(#clip720)" d="M114.26 877.265 L143.936 877.265 L143.936 881.2 L114.26 881.2 L114.26 877.265 Z" fill="#000000" fill-rule="nonzero" fill-opacity="1" /><path clip-path="url(#clip720)" d="M158.056 890.159 L174.376 890.159 L174.376 894.094 L152.431 894.094 L152.431 890.159 Q155.093 887.404 159.677 882.774 Q164.283 878.122 165.464 876.779 Q167.709 874.256 168.589 872.52 Q169.491 870.761 169.491 869.071 Q169.491 866.316 167.547 864.58 Q165.626 862.844 162.524 862.844 Q160.325 862.844 157.871 863.608 Q155.44 864.372 152.663 865.923 L152.663 861.2 Q155.487 860.066 157.94 859.488 Q160.394 858.909 162.431 858.909 Q167.802 858.909 170.996 861.594 Q174.19 864.279 174.19 868.77 Q174.19 870.899 173.38 872.821 Q172.593 874.719 170.487 877.311 Q169.908 877.983 166.806 881.2 Q163.704 884.395 158.056 890.159 Z" fill="#000000" fill-rule="nonzero" fill-opacity="1" /><path clip-path="url(#clip720)" d="M194.19 862.612 Q190.579 862.612 188.75 866.177 Q186.945 869.719 186.945 876.849 Q186.945 883.955 188.75 887.52 Q190.579 891.061 194.19 891.061 Q197.825 891.061 199.63 887.52 Q201.459 883.955 201.459 876.849 Q201.459 869.719 199.63 866.177 Q197.825 862.612 194.19 862.612 M194.19 858.909 Q200 858.909 203.056 863.515 Q206.135 868.099 206.135 876.849 Q206.135 885.575 203.056 890.182 Q200 894.765 194.19 894.765 Q188.38 894.765 185.301 890.182 Q182.246 885.575 182.246 876.849 Q182.246 868.099 185.301 863.515 Q188.38 858.909 194.19 858.909 Z" fill="#000000" fill-rule="nonzero" fill-opacity="1" /><path clip-path="url(#clip720)" d="M114.26 552.937 L143.936 552.937 L143.936 556.872 L114.26 556.872 L114.26 552.937 Z" fill="#000000" fill-rule="nonzero" fill-opacity="1" /><path clip-path="url(#clip720)" d="M154.839 565.831 L162.477 565.831 L162.477 539.465 L154.167 541.132 L154.167 536.872 L162.431 535.206 L167.107 535.206 L167.107 565.831 L174.746 565.831 L174.746 569.766 L154.839 569.766 L154.839 565.831 Z" fill="#000000" fill-rule="nonzero" fill-opacity="1" /><path clip-path="url(#clip720)" d="M194.19 538.284 Q190.579 538.284 188.75 541.849 Q186.945 545.391 186.945 552.52 Q186.945 559.627 188.75 563.192 Q190.579 566.733 194.19 566.733 Q197.825 566.733 199.63 563.192 Q201.459 559.627 201.459 552.52 Q201.459 545.391 199.63 541.849 Q197.825 538.284 194.19 538.284 M194.19 534.581 Q200 534.581 203.056 539.187 Q206.135 543.77 206.135 552.52 Q206.135 561.247 203.056 565.854 Q200 570.437 194.19 570.437 Q188.38 570.437 185.301 565.854 Q182.246 561.247 182.246 552.52 Q182.246 543.77 185.301 539.187 Q188.38 534.581 194.19 534.581 Z" fill="#000000" fill-rule="nonzero" fill-opacity="1" /><path clip-path="url(#clip720)" d="M194.19 213.956 Q190.579 213.956 188.75 217.521 Q186.945 221.063 186.945 228.192 Q186.945 235.299 188.75 238.864 Q190.579 242.405 194.19 242.405 Q197.825 242.405 199.63 238.864 Q201.459 235.299 201.459 228.192 Q201.459 221.063 199.63 217.521 Q197.825 213.956 194.19 213.956 M194.19 210.253 Q200 210.253 203.056 214.859 Q206.135 219.442 206.135 228.192 Q206.135 236.919 203.056 241.526 Q200 246.109 194.19 246.109 Q188.38 246.109 185.301 241.526 Q182.246 236.919 182.246 228.192 Q182.246 219.442 185.301 214.859 Q188.38 210.253 194.19 210.253 Z" fill="#000000" fill-rule="nonzero" fill-opacity="1" /><path clip-path="url(#clip720)" d="M16.4842 816.375 L16.4842 786.329 L21.895 786.329 L21.895 809.945 L35.9632 809.945 L35.9632 787.315 L41.3741 787.315 L41.3741 809.945 L58.5933 809.945 L58.5933 785.756 L64.0042 785.756 L64.0042 816.375 L16.4842 816.375 Z" fill="#000000" fill-rule="nonzero" fill-opacity="1" /><path clip-path="url(#clip720)" d="M16.4842 775.189 L16.4842 768.759 L58.5933 768.759 L58.5933 745.62 L64.0042 745.62 L64.0042 775.189 L16.4842 775.189 Z" fill="#000000" fill-rule="nonzero" fill-opacity="1" /><path clip-path="url(#clip720)" d="M41.3104 732.443 L58.7206 732.443 L58.7206 722.13 Q58.7206 716.942 56.5881 714.46 Q54.4238 711.945 49.9996 711.945 Q45.5436 711.945 43.4429 714.46 Q41.3104 716.942 41.3104 722.13 L41.3104 732.443 M21.7677 732.443 L36.0905 732.443 L36.0905 722.926 Q36.0905 718.216 34.34 715.924 Q32.5576 713.6 28.9291 713.6 Q25.3325 713.6 23.5501 715.924 Q21.7677 718.216 21.7677 722.926 L21.7677 732.443 M16.4842 738.872 L16.4842 722.449 Q16.4842 715.096 19.5397 711.118 Q22.5952 707.139 28.2289 707.139 Q32.5894 707.139 35.1675 709.176 Q37.7456 711.213 38.3822 715.16 Q39.4007 710.418 42.6472 707.808 Q45.8619 705.166 50.6998 705.166 Q57.0655 705.166 60.5348 709.495 Q64.0042 713.823 64.0042 721.812 L64.0042 738.872 L16.4842 738.872 Z" fill="#000000" fill-rule="nonzero" fill-opacity="1" /><path clip-path="url(#clip720)" d="M20.8447 676.011 Q20.8447 683.013 26.0645 687.151 Q31.2844 691.257 40.2919 691.257 Q49.2675 691.257 54.4874 687.151 Q59.7073 683.013 59.7073 676.011 Q59.7073 669.009 54.4874 664.935 Q49.2675 660.829 40.2919 660.829 Q31.2844 660.829 26.0645 664.935 Q20.8447 669.009 20.8447 676.011 M15.6248 676.011 Q15.6248 666.017 22.3406 660.033 Q29.0246 654.049 40.2919 654.049 Q51.5274 654.049 58.2432 660.033 Q64.9272 666.017 64.9272 676.011 Q64.9272 686.037 58.2432 692.052 Q51.5592 698.036 40.2919 698.036 Q29.0246 698.036 22.3406 692.052 Q15.6248 686.037 15.6248 676.011 Z" fill="#000000" fill-rule="nonzero" fill-opacity="1" /><polyline clip-path="url(#clip722)" style="stroke:#009af9; stroke-linecap:round; stroke-linejoin:round; stroke-width:4; stroke-opacity:1; fill:none" points="301.869,909.67 303.862,1384.24 305.856,678.773 307.849,986.913 309.842,928.533 311.835,1223.91 313.828,864.422 315.821,652.775 317.814,1098.03 319.808,737.038 321.801,932.183 323.794,688.038 325.787,687.557 327.78,1067.69 329.773,701.441 331.766,534.823 333.76,524.002 335.753,954.258 337.746,834.902 339.739,688.807 341.732,562.934 343.725,724.79 345.718,633.128 347.712,643.607 349.705,871.001 351.698,859.113 353.691,595 355.684,890.368 357.677,547.843 359.67,809.678 361.664,656.236 363.657,933.309 365.65,829.94 367.643,689.766 369.636,973.83 371.629,828.394 373.622,603.417 375.616,660.58 377.609,645.708 379.602,391.701 381.595,978.813 383.588,992.468 385.581,702.12 387.574,651.054 389.568,320.362 391.561,488.256 393.554,674.961 395.547,1078.01 397.54,284.76 399.533,882.256 401.526,649.388 403.52,396.696 405.513,510.696 407.506,505.054 409.499,892.59 411.492,883.789 413.485,513.752 415.479,542.017 417.472,984.528 419.465,886.989 421.458,473.026 423.451,317.16 425.444,525.701 427.437,632.789 429.431,564.119 431.424,388.484 433.417,398.976 435.41,492.385 437.403,523.824 439.396,502.376 441.389,629.411 443.383,605.069 445.376,579.732 447.369,494.583 449.362,956.682 451.355,381.98 453.348,359.677 455.341,511.744 457.335,843.85 459.328,494.334 461.321,575.66 463.314,664.288 465.307,349.871 467.3,558.838 469.293,452.511 471.287,519.493 473.28,457.603 475.273,447.567 477.266,741.504 479.259,535.09 481.252,592.993 483.245,383.93 485.239,595.356 487.232,416.391 489.225,343.269 491.218,382.637 493.211,404.819 495.204,560.29 497.197,540.239 499.191,490.81 501.184,526.673 503.177,458.55 505.17,587.065 507.163,405.021 509.156,318.782 511.149,492.208 513.143,417.414 515.136,399.578 517.129,407.927 519.122,595.951 521.115,421.007 523.108,311.054 525.101,321.833 527.095,357.087 529.088,387.544 531.081,455.357 533.074,810.467 535.067,386.091 537.06,334.425 539.054,752.806 541.047,529.827 543.04,323.485 545.033,225.763 547.026,287.832 549.019,313.672 551.012,287.127 553.006,307.429 554.999,448.894 556.992,243.566 558.985,260.956 560.978,432.535 562.971,500.922 564.964,306.549 566.958,375.755 568.951,367.449 570.944,588.81 572.937,341.473 574.93,458.862 576.923,391.698 578.916,253.522 580.91,363.235 582.903,186.929 584.896,485.719 586.889,252.331 588.882,561.963 590.875,329.101 592.868,418.527 594.862,333.218 596.855,346.791 598.848,416.868 600.841,412.302 602.834,336.339 604.827,309.862 606.82,415.594 608.814,308.556 610.807,382.474 612.8,410.51 614.793,243.142 616.786,180.491 618.779,295.847 620.772,436.78 622.766,425.49 624.759,421.376 626.752,384.449 628.745,395.201 630.738,417.904 632.731,189.713 634.724,229.499 636.718,355.829 638.711,330.446 640.704,348.355 642.697,279.557 644.69,306.531 646.683,176.425 648.677,251.702 650.67,443.125 652.663,156.55 654.656,441.583 656.649,259.883 658.642,334.588 660.635,269.442 662.629,294.111 664.622,484.223 666.615,358.491 668.608,333.171 670.601,168.928 672.594,283.77 674.587,227.894 676.581,273.897 678.574,269.269 680.567,386.951 682.56,179.785 684.553,482.153 686.546,237.729 688.539,350.967 690.533,246.701 692.526,345.462 694.519,373.913 696.512,286.042 698.505,272.422 700.498,324.425 702.491,411.536 704.485,397.774 706.478,337.793 708.471,206.719 710.464,328.272 712.457,226.903 714.45,336.923 716.443,98.5637 718.437,225.59 720.43,333.762 722.423,213.577 724.416,232.187 726.409,201.1 728.402,398.865 730.395,336.613 732.389,184.043 734.382,442.341 736.375,278.197 738.368,281.274 740.361,197.351 742.354,249.467 744.347,390.319 746.341,366.933 748.334,204 750.327,186.271 752.32,386.213 754.313,418.995 756.306,280.707 758.299,376.793 760.293,268.274 762.286,291.66 764.279,260.712 766.272,248.346 768.265,261.466 770.258,301.557 772.252,221.058 774.245,147.065 776.238,287.046 778.231,342.829 780.224,279.206 782.217,292.555 784.21,420.854 786.204,220.097 788.197,263.844 790.19,189.061 792.183,293.049 794.176,242.408 796.169,286.44 798.162,335.86 800.156,263.61 802.149,477.291 804.142,253.174 806.135,381.709 808.128,502.484 810.121,245.335 812.114,208.449 814.108,295.341 816.101,225.104 818.094,149.853 820.087,290.615 822.08,218.35 824.073,231.629 826.066,204.165 828.06,191.067 830.053,240.984 832.046,311.223 834.039,188.392 836.032,313.113 838.025,229.088 840.018,212.7 842.012,155.643 844.005,139.074 845.998,297.527 847.991,283.021 849.984,223.246 851.977,341.431 853.97,261.558 855.964,254.219 857.957,335.862 859.95,275.909 861.943,250.803 863.936,171.74 865.929,228.091 867.922,445.925 869.916,270.084 871.909,309.541 873.902,395.77 875.895,110.342 877.888,300.285 879.881,259.801 881.874,381.845 883.868,205.237 885.861,354.413 887.854,305.668 889.847,138.749 891.84,222.683 893.833,251.817 895.827,181.873 897.82,115.89 899.813,273.353 901.806,185.787 903.799,328.42 905.792,150.676 907.785,220.947 909.779,301.608 911.772,114.709 913.765,439.422 915.758,260.191 917.751,210.203 919.744,316.233 921.737,234.295 923.731,187.915 925.724,236.616 927.717,280.485 929.71,277.853 931.703,148.902 933.696,309.675 935.689,224.361 937.683,236.061 939.676,129.665 941.669,185.787 943.662,206.383 945.655,155.923 947.648,186.86 949.641,302.445 951.635,272.411 953.628,292.4 955.621,302.264 957.614,342.905 959.607,165.875 961.6,238.57 963.593,270.044 965.587,153.321 967.58,294.366 969.573,193.993 971.566,318.719 973.559,235.739 975.552,140.007 977.545,285.704 979.539,193.118 981.532,150.849 983.525,148.236 985.518,171.49 987.511,216.689 989.504,201.919 991.497,170.717 993.491,282.461 995.484,181.134 997.477,128.784 999.47,286.759 1001.46,199.933 1003.46,225.143 1005.45,217.495 1007.44,165.948 1009.44,231.956 1011.43,140.838 1013.42,216.427 1015.42,156.923 1017.41,200.88 1019.4,200.932 1021.39,270.273 1023.39,225.564 1025.38,206.241 1027.37,178.544 1029.37,185.118 1031.36,126.649 1033.35,173.188 1035.35,319.858 1037.34,217.234 1039.33,243.651 1041.33,315.435 1043.32,228.977 1045.31,387.191 1047.31,434.796 1049.3,293.657 1051.29,201.563 1053.28,320.597 1055.28,206.452 1057.27,315.23 1059.26,144.103 1061.26,191.183 1063.25,226.229 1065.24,276.435 1067.24,262.955 1069.23,373.652 1071.22,191.242 1073.22,394.727 1075.21,223.193 1077.2,208.345 1079.2,327.817 1081.19,213.387 1083.18,235.954 1085.18,223.71 1087.17,191.68 1089.16,309.278 1091.15,126.665 1093.15,296.139 1095.14,158.295 1097.13,247.336 1099.13,260.146 1101.12,233.433 1103.11,139.997 1105.11,197.014 1107.1,170.087 1109.09,175.442 1111.09,218.181 1113.08,174.316 1115.07,202.572 1117.07,217.979 1119.06,208.16 1121.05,320.957 1123.05,243.91 1125.04,95.115 1127.03,330.777 1129.02,198.876 1131.02,139.778 1133.01,155.832 1135,429.334 1137,160.894 1138.99,137.882 1140.98,271.416 1142.98,368.982 1144.97,244.317 1146.96,348.696 1148.96,151.562 1150.95,105.701 1152.94,205.369 1154.94,261.214 1156.93,177.33 1158.92,189.073 1160.91,249.867 1162.91,151.429 1164.9,303.604 1166.89,155.42 1168.89,116.558 1170.88,251.063 1172.87,187.535 1174.87,188.517 1176.86,155.213 1178.85,189.838 1180.85,207.635 1182.84,295.463 1184.83,257.214 1186.83,193.132 1188.82,190.187 1190.81,280.585 1192.81,213.833 1194.8,244.695 1196.79,261.652 1198.78,249.084 1200.78,112.359 1202.77,274.407 1204.76,394.995 1206.76,288.801 1208.75,213.441 1210.74,147.425 1212.74,264.397 1214.73,225.916 1216.72,183.515 1218.72,125.685 1220.71,137.157 1222.7,160.695 1224.7,155.912 1226.69,174.496 1228.68,328.146 1230.67,331.135 1232.67,198.013 1234.66,308.185 1236.65,142.146 1238.65,238.633 1240.64,148.89 1242.63,209.994 1244.63,271.221 1246.62,277.469 1248.61,211.564 1250.61,244.511 1252.6,274.773 1254.59,192.908 1256.59,177.071 1258.58,249 1260.57,255.919 1262.57,206.047 1264.56,153.971 1266.55,290.707 1268.54,396.045 1270.54,208.251 1272.53,315.38 1274.52,225.595 1276.52,196.412 1278.51,254.402 1280.5,189.551 1282.5,364.17 1284.49,176.051 1286.48,137.328 1288.48,246.921 1290.47,196.352 1292.46,276.203 1294.46,169.397 1296.45,204.574 1298.44,304.389 1300.44,280.445 1302.43,216.376 1304.42,266.61 1306.41,224.613 1308.41,364.667 1310.4,205.64 1312.39,251.513 1314.39,138.884 1316.38,131.38 1318.37,209.84 1320.37,142.183 1322.36,470.468 1324.35,251.262 1326.35,295.402 1328.34,324.642 1330.33,239.79 1332.33,198.43 1334.32,280.839 1336.31,139.508 1338.3,180.554 1340.3,163.433 1342.29,258.393 1344.28,212.563 1346.28,168.918 1348.27,257.197 1350.26,346.145 1352.26,249.253 1354.25,194.018 1356.24,221.781 1358.24,158.747 1360.23,168.278 1362.22,164.489 1364.22,185.451 1366.21,173.35 1368.2,239.688 1370.2,255.134 1372.19,169.735 1374.18,475.089 1376.17,151.984 1378.17,195.903 1380.16,200.627 1382.15,301.868 1384.15,184.583 1386.14,224.479 1388.13,244.115 1390.13,138.494 1392.12,277.168 1394.11,233.427 1396.11,342.167 1398.1,239.005 1400.09,160.642 1402.09,124.527 1404.08,284.62 1406.07,330.309 1408.06,306.892 1410.06,153.987 1412.05,284.736 1414.04,271.185 1416.04,234.022 1418.03,86.1857 1420.02,178.686 1422.02,246.443 1424.01,205.822 1426,146.447 1428,213.274 1429.99,163.683 1431.98,222.775 1433.98,378.162 1435.97,147.291 1437.96,509.315 1439.96,268.289 1441.95,194.642 1443.94,177.475 1445.93,160.658 1447.93,271.256 1449.92,358.513 1451.91,222.366 1453.91,166.813 1455.9,243.709 1457.89,228.161 1459.89,166.382 1461.88,221.652 1463.87,228.058 1465.87,220.924 1467.86,140.385 1469.85,132.568 1471.85,200.799 1473.84,215.601 1475.83,266.371 1477.82,231.776 1479.82,334.838 1481.81,242.162 1483.8,258.311 1485.8,246.331 1487.79,198.618 1489.78,101.229 1491.78,311.506 1493.77,94.083 1495.76,252.709 1497.76,198.126 1499.75,300.697 1501.74,152.655 1503.74,233.392 1505.73,230.713 1507.72,190.458 1509.72,329.694 1511.71,110.801 1513.7,133.739 1515.69,338.484 1517.69,413.003 1519.68,206.59 1521.67,301.471 1523.67,347.918 1525.66,171.93 1527.65,231.221 1529.65,227.568 1531.64,172.337 1533.63,183.815 1535.63,146.733 1537.62,153.912 1539.61,202.692 1541.61,211.447 1543.6,292.718 1545.59,255.014 1547.59,166.016 1549.58,244.002 1551.57,239.448 1553.56,199.607 1555.56,129.745 1557.55,122.566 1559.54,173.633 1561.54,305.76 1563.53,339.794 1565.52,152.986 1567.52,121.491 1569.51,279.427 1571.5,443.256 1573.5,161.865 1575.49,283.718 1577.48,141.601 1579.48,258.907 1581.47,171.098 1583.46,331.468 1585.45,340.451 1587.45,217.926 1589.44,209.782 1591.43,176.886 1593.43,285.181 1595.42,244.351 1597.41,160.371 1599.41,279.292 1601.4,231.436 1603.39,290.067 1605.39,288.971 1607.38,183.292 1609.37,178.408 1611.37,420.531 1613.36,175.144 1615.35,248.232 1617.35,224.73 1619.34,309.231 1621.33,201.612 1623.32,164.252 1625.32,210.578 1627.31,204.917 1629.3,253.926 1631.3,215.37 1633.29,311.121 1635.28,198.368 1637.28,153.728 1639.27,141.82 1641.26,231.2 1643.26,160.833 1645.25,267.076 1647.24,184.143 1649.24,224.439 1651.23,192.035 1653.22,407.205 1655.21,229.127 1657.21,286.255 1659.2,170.41 1661.19,374.227 1663.19,212.93 1665.18,118.791 1667.17,165.303 1669.17,164.574 1671.16,210.84 1673.15,238.477 1675.15,220.849 1677.14,202.696 1679.13,301.918 1681.13,202.658 1683.12,311.391 1685.11,154.696 1687.11,260.361 1689.1,185.924 1691.09,251.641 1693.08,274.409 1695.08,336.097 1697.07,146.261 1699.06,281.746 1701.06,192.567 1703.05,216.431 1705.04,288.775 1707.04,186.747 1709.03,112.016 1711.02,348.946 1713.02,120.342 1715.01,126.703 1717,377.895 1719,284.898 1720.99,491.216 1722.98,149.764 1724.97,137.894 1726.97,343.636 1728.96,221.22 1730.95,306.734 1732.95,182.254 1734.94,226.175 1736.93,411.474 1738.93,163.578 1740.92,236.66 1742.91,315.956 1744.91,159.806 1746.9,375.741 1748.89,167.945 1750.89,132.659 1752.88,211.842 1754.87,157.559 1756.87,159.142 1758.86,227.02 1760.85,181.134 1762.84,339.799 1764.84,124.53 1766.83,235.469 1768.82,255.414 1770.82,186.674 1772.81,168.049 1774.8,248.411 1776.8,206.452 1778.79,201.794 1780.78,187.747 1782.78,111.874 1784.77,200.026 1786.76,142.186 1788.76,110.498 1790.75,220.72 1792.74,191.908 1794.74,211.745 1796.73,323.93 1798.72,168.558 1800.71,147.909 1802.71,137.722 1804.7,220 1806.69,180.023 1808.69,202.236 1810.68,280.882 1812.67,123.333 1814.67,194.84 1816.66,312.848 1818.65,494.505 1820.65,196.188 1822.64,256.876 1824.63,266.745 1826.63,172.833 1828.62,336.637 1830.61,254.19 1832.6,212.117 1834.6,341.786 1836.59,266.438 1838.58,142.96 1840.58,213.709 1842.57,221.316 1844.56,194.79 1846.56,220.366 1848.55,155.608 1850.54,164.413 1852.54,122.131 1854.53,164.463 1856.52,690.308 1858.52,208.543 1860.51,196.064 1862.5,159.487 1864.5,195.57 1866.49,136.992 1868.48,232.95 1870.47,220.601 1872.47,260.739 1874.46,138.042 1876.45,273.752 1878.45,281.019 1880.44,180.654 1882.43,255.702 1884.43,157.619 1886.42,185.057 1888.41,269.868 1890.41,269.042 1892.4,323.152 1894.39,266.714 1896.39,309.242 1898.38,149.298 1900.37,161.348 1902.36,387.024 1904.36,272.953 1906.35,171.814 1908.34,228.928 1910.34,378.476 1912.33,215.61 1914.32,208.388 1916.32,185.802 1918.31,124.502 1920.3,308.044 1922.3,208.686 1924.29,319.13 1926.28,184.698 1928.28,197.221 1930.27,135.132 1932.26,169.192 1934.26,159.17 1936.25,393.704 1938.24,207.356 1940.23,181.905 1942.23,170.647 1944.22,177.731 1946.21,238.639 1948.21,274.486 1950.2,156.718 1952.19,177.261 1954.19,299.706 1956.18,175.858 1958.17,133.306 1960.17,189.768 1962.16,247.425 1964.15,143.005 1966.15,186.896 1968.14,247.063 1970.13,235.709 1972.12,206.552 1974.12,271.536 1976.11,100.492 1978.1,309.754 1980.1,210.666 1982.09,210.015 1984.08,200.989 1986.08,305.716 1988.07,317.077 1990.06,192.624 1992.06,358.128 1994.05,344.808 1996.04,211.412 1998.04,183.718 2000.03,296.805 2002.02,255.957 2004.02,203.775 2006.01,132.324 2008,233.963 2009.99,285.649 2011.99,117.556 2013.98,422.172 2015.97,331.116 2017.97,332.628 2019.96,247.404 2021.95,213.958 2023.95,167.628 2025.94,239.411 2027.93,210.207 2029.93,264.165 2031.92,242.115 2033.91,146.897 2035.91,231.861 2037.9,241.675 2039.89,187.127 2041.89,250.385 2043.88,188.526 2045.87,195.777 2047.86,425.342 2049.86,275.593 2051.85,249.345 2053.84,148.417 2055.84,233.126 2057.83,125.626 2059.82,258.251 2061.82,155.352 2063.81,170.937 2065.8,250.874 2067.8,276.491 2069.79,145.245 2071.78,247.785 2073.78,281.562 2075.77,234.673 2077.76,209.498 2079.75,312.095 2081.75,249.527 2083.74,160.96 2085.73,134.43 2087.73,196.021 2089.72,327.138 2091.71,202.465 2093.71,172.485 2095.7,162.774 2097.69,196.802 2099.69,206.242 2101.68,238.374 2103.67,279.56 2105.67,131.136 2107.66,204.842 2109.65,279.06 2111.65,224.47 2113.64,283.607 2115.63,189.713 2117.62,169.341 2119.62,285.851 2121.61,293.043 2123.6,136.925 2125.6,141.732 2127.59,295.63 2129.58,161.755 2131.58,212.151 2133.57,119.714 2135.56,181.04 2137.56,176.955 2139.55,166.246 2141.54,347.839 2143.54,259.732 2145.53,142.833 2147.52,226.045 2149.51,229.553 2151.51,231.895 2153.5,181.515 2155.49,288.284 2157.49,177.657 2159.48,195.908 2161.47,268.175 2163.47,157.484 2165.46,285.144 2167.45,90.1278 2169.45,176.605 2171.44,127.584 2173.43,246.9 2175.43,201.207 2177.42,358.729 2179.41,217.408 2181.41,288.545 2183.4,136.478 2185.39,252.344 2187.38,293.984 2189.38,395.84 2191.37,184.863 2193.36,193.719 2195.36,145.945 2197.35,197.405 2199.34,326.685 2201.34,258.289 2203.33,260.591 2205.32,120.736 2207.32,233.307 2209.31,102.657 2211.3,104.452 2213.3,269.244 2215.29,341.107 2217.28,291.345 2219.27,392.042 2221.27,239.989 2223.26,143.74 2225.25,137.188 2227.25,273.962 2229.24,264.168 2231.23,166.43 2233.23,175.594 2235.22,184.842 2237.21,281.527 2239.21,208.793 2241.2,310.793 2243.19,219.664 2245.19,139.658 2247.18,247.746 2249.17,145.279 2251.17,273.981 2253.16,208.681 2255.15,119.227 2257.14,193.388 2259.14,240.038 2261.13,148.225 2263.12,157.054 2265.12,263.844 2267.11,278.83 2269.1,177.451 2271.1,221.26 2273.09,411.214 2275.08,202.821 2277.08,344.058 2279.07,190.549 2281.06,166.202 2283.06,171.679 2285.05,190.075 2287.04,526.189 2289.04,207.159 2291.03,332.006 2293.02,192.186 "/>
<polyline clip-path="url(#clip722)" style="stroke:#e26f46; stroke-linecap:round; stroke-linejoin:round; stroke-width:4; stroke-opacity:1; fill:none" points="301.869,873.83 303.862,867.603 305.856,870.24 307.849,841.4 309.842,850.393 311.835,835.38 313.828,840.698 315.821,828.998 317.814,834.098 319.808,820.644 321.801,846.976 323.794,805.083 325.787,797.817 327.78,792.053 329.773,779.416 331.766,767.729 333.76,760.697 335.753,758.274 337.746,762.028 339.739,754.709 341.732,754.654 343.725,757.11 345.718,745.381 347.712,737.887 349.705,728.545 351.698,733.261 353.691,729.319 355.684,710.112 357.677,707.036 359.67,699.007 361.664,714.589 363.657,700.549 365.65,693.824 367.643,680.795 369.636,678.36 371.629,659.982 373.622,670.718 375.616,670.295 377.609,650.244 379.602,658.546 381.595,645.761 383.588,645.79 385.581,623.876 387.574,645.332 389.568,630.45 391.561,622.281 393.554,615.289 395.547,627.102 397.54,606.084 399.533,603.766 401.526,602.579 403.52,585.638 405.513,587.622 407.506,585.809 409.499,574.842 411.492,586.668 413.485,581.791 415.479,576.563 417.472,560.958 419.465,583.521 421.458,570.021 423.451,554.036 425.444,561.447 427.437,540.009 429.431,541.683 431.424,530.357 433.417,539.453 435.41,538.567 437.403,529.917 439.396,529.95 441.389,515.259 443.383,510.369 445.376,517.456 447.369,517.731 449.362,500.067 451.355,508.901 453.348,500.221 455.341,495.153 457.335,497.229 459.328,484.148 461.321,490.085 463.314,501.057 465.307,478.558 467.3,477.654 469.293,461.524 471.287,464.759 473.28,461.003 475.273,450.754 477.266,464.064 479.259,441.868 481.252,457.771 483.245,443.832 485.239,429.372 487.232,432.646 489.225,441.574 491.218,455.544 493.211,435.339 495.204,432.977 497.197,420.81 499.191,437.421 501.184,416.544 503.177,427.17 505.17,416.363 507.163,422.04 509.156,411.812 511.149,427.943 513.143,399.885 515.136,410.506 517.129,397.254 519.122,388.338 521.115,390.698 523.108,385.939 525.101,389.759 527.095,397.91 529.088,414.644 531.081,402.579 533.074,376.724 535.067,376.001 537.06,371.978 539.054,387.223 541.047,394.441 543.04,357.794 545.033,361.831 547.026,372.371 549.019,353.317 551.012,360.001 553.006,376.256 554.999,345.182 556.992,363.72 558.985,364.771 560.978,342.422 562.971,351.61 564.964,349.531 566.958,351.423 568.951,345.994 570.944,333.777 572.937,338.691 574.93,345.191 576.923,333.34 578.916,341.691 580.91,344.688 582.903,346.014 584.896,329.995 586.889,332.08 588.882,341.161 590.875,320.032 592.868,339.127 594.862,329.713 596.855,325.96 598.848,308.726 600.841,311.852 602.834,312.702 604.827,326.446 606.82,318.739 608.814,325.625 610.807,317.219 612.8,319.027 614.793,322.454 616.786,313.284 618.779,313.798 620.772,306.249 622.766,312.275 624.759,312.509 626.752,320.725 628.745,294.114 630.738,310.576 632.731,301.838 634.724,303.529 636.718,291.546 638.711,298.568 640.704,293.793 642.697,302.586 644.69,297.93 646.683,285.188 648.677,295.222 650.67,297.283 652.663,304.192 654.656,279.491 656.649,280.818 658.642,302.825 660.635,292.579 662.629,304.711 664.622,278.33 666.615,289.501 668.608,283.499 670.601,289.186 672.594,274.282 674.587,280.079 676.581,277.756 678.574,275.001 680.567,274.49 682.56,268.017 684.553,265.702 686.546,263.787 688.539,267.77 690.533,271.573 692.526,258.288 694.519,274.002 696.512,260.768 698.505,284.034 700.498,272.038 702.491,269.263 704.485,277.161 706.478,263.107 708.471,275.242 710.464,262.557 712.457,280.432 714.45,262.536 716.443,251.619 718.437,257.067 720.43,257.318 722.423,259.766 724.416,255.725 726.409,244.923 728.402,269.142 730.395,268.959 732.389,251.171 734.382,266.573 736.375,260.471 738.368,266.048 740.361,258.481 742.354,251.787 744.347,255.971 746.341,251.167 748.334,259.906 750.327,254.732 752.32,240.628 754.313,248.353 756.306,246.941 758.299,248.476 760.293,248.671 762.286,257.893 764.279,245.745 766.272,255.756 768.265,253.844 770.258,249.598 772.252,245.751 774.245,251.06 776.238,251.424 778.231,262.384 780.224,251.336 782.217,236.915 784.21,253.132 786.204,248.077 788.197,252.45 790.19,249.132 792.183,235.945 794.176,243.074 796.169,240.751 798.162,242.686 800.156,235.818 802.149,238.505 804.142,235.912 806.135,238.956 808.128,247.918 810.121,233.689 812.114,245.247 814.108,235.589 816.101,250.357 818.094,245.85 820.087,246.467 822.08,246.215 824.073,235.934 826.066,227.671 828.06,233.206 830.053,236.694 832.046,233.627 834.039,243.076 836.032,244.272 838.025,240.566 840.018,234.375 842.012,246.937 844.005,229.418 845.998,247.849 847.991,238.674 849.984,233.714 851.977,235.946 853.97,244.62 855.964,239.605 857.957,237.099 859.95,247.098 861.943,228.774 863.936,245.112 865.929,244.362 867.922,248.686 869.916,231.799 871.909,228.407 873.902,235.09 875.895,227.69 877.888,234.139 879.881,240.704 881.874,240.286 883.868,224.481 885.861,239.604 887.854,233.832 889.847,225.225 891.84,237.596 893.833,229.297 895.827,230.732 897.82,230.875 899.813,227.298 901.806,234.008 903.799,226.916 905.792,256.14 907.785,243.559 909.779,227.61 911.772,234.399 913.765,220.15 915.758,230.275 917.751,241.613 919.744,230.589 921.737,216.817 923.731,231.441 925.724,223.71 927.717,228.247 929.71,234.782 931.703,221.944 933.696,228.961 935.689,245.533 937.683,220.78 939.676,243.437 941.669,228.84 943.662,228.349 945.655,250.556 947.648,221.391 949.641,230.427 951.635,229.796 953.628,224.235 955.621,223.287 957.614,224.249 959.607,234.425 961.6,225.43 963.593,240.283 965.587,233.395 967.58,228.662 969.573,232.847 971.566,230.208 973.559,242.304 975.552,238.726 977.545,219.274 979.539,214.868 981.532,227.524 983.525,236.869 985.518,229.747 987.511,232.186 989.504,239.297 991.497,230.328 993.491,238.26 995.484,217.06 997.477,219.977 999.47,238.517 1001.46,233.242 1003.46,233.981 1005.45,235.735 1007.44,223.097 1009.44,221.655 1011.43,228.422 1013.42,232.996 1015.42,216.842 1017.41,224.336 1019.4,229.554 1021.39,225.051 1023.39,223.689 1025.38,239.826 1027.37,217.294 1029.37,211 1031.36,225.383 1033.35,230.262 1035.35,234.396 1037.34,242.376 1039.33,230.056 1041.33,232.644 1043.32,219.659 1045.31,221.081 1047.31,238.379 1049.3,245.802 1051.29,231.427 1053.28,229.624 1055.28,232.749 1057.27,224.503 1059.26,225.301 1061.26,236.578 1063.25,230.659 1065.24,217.083 1067.24,224.042 1069.23,224.754 1071.22,219.833 1073.22,228.349 1075.21,226.99 1077.2,225.591 1079.2,225.52 1081.19,222.762 1083.18,225.693 1085.18,233.07 1087.17,220.584 1089.16,251.722 1091.15,230.722 1093.15,225.136 1095.14,232.156 1097.13,218.438 1099.13,219.644 1101.12,225.7 1103.11,232.557 1105.11,228.001 1107.1,245.628 1109.09,215.947 1111.09,218.986 1113.08,221.551 1115.07,235.926 1117.07,237.855 1119.06,221.593 1121.05,219.784 1123.05,225.454 1125.04,240.357 1127.03,227.57 1129.02,248.169 1131.02,229.291 1133.01,227.775 1135,236.34 1137,220.427 1138.99,232.965 1140.98,219.317 1142.98,231.887 1144.97,226.276 1146.96,225.283 1148.96,231.938 1150.95,228.071 1152.94,233.495 1154.94,227.36 1156.93,230.593 1158.92,224.371 1160.91,227.712 1162.91,234.786 1164.9,218.525 1166.89,252.48 1168.89,228.971 1170.88,221.87 1172.87,217.21 1174.87,232.293 1176.86,228.692 1178.85,228.036 1180.85,230.812 1182.84,232.933 1184.83,223.214 1186.83,235.16 1188.82,226.835 1190.81,220.502 1192.81,237.108 1194.8,224.642 1196.79,227.882 1198.78,229.629 1200.78,239.219 1202.77,218.314 1204.76,208.928 1206.76,230.746 1208.75,228.334 1210.74,215.039 1212.74,228.94 1214.73,232.517 1216.72,219.521 1218.72,244.747 1220.71,246.627 1222.7,230.394 1224.7,242.75 1226.69,225.459 1228.68,236.04 1230.67,217.132 1232.67,232.154 1234.66,234.267 1236.65,230.983 1238.65,244.355 1240.64,214.183 1242.63,230.5 1244.63,249.686 1246.62,226.592 1248.61,227.448 1250.61,242.578 1252.6,226.61 1254.59,225.521 1256.59,221.163 1258.58,230.522 1260.57,225.403 1262.57,220.272 1264.56,231.124 1266.55,237.234 1268.54,233.429 1270.54,214.813 1272.53,216.613 1274.52,230.627 1276.52,244.612 1278.51,228.153 1280.5,225.504 1282.5,231.924 1284.49,227.555 1286.48,234.43 1288.48,244.384 1290.47,224.617 1292.46,219.423 1294.46,225.236 1296.45,220.658 1298.44,224.854 1300.44,244.628 1302.43,210.3 1304.42,226.629 1306.41,235.794 1308.41,226.47 1310.4,227.088 1312.39,236.584 1314.39,234.947 1316.38,223.562 1318.37,213.183 1320.37,258.413 1322.36,229.47 1324.35,233.778 1326.35,226.085 1328.34,238.94 1330.33,229.432 1332.33,232.449 1334.32,228.789 1336.31,229.653 1338.3,233.019 1340.3,234.451 1342.29,220.336 1344.28,221.919 1346.28,230.17 1348.27,239.709 1350.26,225.97 1352.26,226.193 1354.25,228.4 1356.24,234.63 1358.24,238.536 1360.23,221.084 1362.22,240.292 1364.22,223.528 1366.21,231.799 1368.2,230.995 1370.2,234.434 1372.19,231.618 1374.18,223.367 1376.17,219.406 1378.17,235.406 1380.16,217.615 1382.15,236.877 1384.15,228.973 1386.14,226.994 1388.13,219.541 1390.13,217.108 1392.12,226.226 1394.11,232.651 1396.11,222.486 1398.1,245.826 1400.09,218.943 1402.09,248.072 1404.08,217.683 1406.07,230.72 1408.06,229.876 1410.06,223.008 1412.05,221.359 1414.04,233.761 1416.04,239.322 1418.03,219.2 1420.02,220.036 1422.02,218.785 1424.01,221.498 1426,240.232 1428,231.536 1429.99,221.495 1431.98,240.797 1433.98,219.293 1435.97,219.539 1437.96,223.285 1439.96,226.961 1441.95,232.519 1443.94,222.643 1445.93,245.09 1447.93,216.175 1449.92,220.403 1451.91,229.784 1453.91,230.467 1455.9,232.025 1457.89,226.752 1459.89,231.337 1461.88,233.351 1463.87,219.65 1465.87,241.255 1467.86,224.839 1469.85,220.938 1471.85,239.143 1473.84,235.941 1475.83,231.175 1477.82,217.899 1479.82,218.668 1481.81,234.917 1483.8,244.521 1485.8,219.058 1487.79,224.332 1489.78,240.246 1491.78,230.14 1493.77,219.623 1495.76,225.767 1497.76,225.084 1499.75,225.283 1501.74,231.741 1503.74,245.527 1505.73,221.187 1507.72,239.938 1509.72,217.506 1511.71,218.292 1513.7,233.62 1515.69,231.845 1517.69,223.562 1519.68,218.242 1521.67,222.887 1523.67,243.047 1525.66,224.49 1527.65,244.128 1529.65,243.249 1531.64,219.445 1533.63,236.303 1535.63,222.738 1537.62,239.427 1539.61,237.818 1541.61,227.27 1543.6,227.085 1545.59,234.845 1547.59,239.828 1549.58,220.198 1551.57,213.209 1553.56,219.454 1555.56,221.143 1557.55,225.301 1559.54,220.178 1561.54,220.836 1563.53,220.351 1565.52,228.354 1567.52,229.583 1569.51,242.453 1571.5,237.723 1573.5,233.244 1575.49,226.554 1577.48,222.409 1579.48,227.948 1581.47,232.619 1583.46,223.415 1585.45,233.287 1587.45,225.042 1589.44,220.892 1591.43,237.975 1593.43,219.789 1595.42,232.413 1597.41,221.309 1599.41,237.831 1601.4,217.397 1603.39,222.862 1605.39,219.374 1607.38,235.885 1609.37,230.448 1611.37,237.786 1613.36,221.693 1615.35,238.981 1617.35,218.054 1619.34,218.751 1621.33,229.497 1623.32,222.458 1625.32,230.282 1627.31,227.26 1629.3,227.29 1631.3,242.172 1633.29,234.013 1635.28,225.819 1637.28,231.956 1639.27,217.033 1641.26,230.593 1643.26,238.343 1645.25,219.934 1647.24,225.567 1649.24,224.965 1651.23,232.326 1653.22,223.146 1655.21,230.793 1657.21,228.059 1659.2,225.514 1661.19,220.851 1663.19,224.859 1665.18,224.05 1667.17,223.569 1669.17,219.645 1671.16,241.363 1673.15,229.295 1675.15,227.378 1677.14,214.764 1679.13,213.355 1681.13,231.219 1683.12,225.497 1685.11,221.641 1687.11,226.979 1689.1,218.555 1691.09,232.035 1693.08,228.948 1695.08,223.741 1697.07,226.901 1699.06,227.603 1701.06,217.3 1703.05,230.233 1705.04,226.874 1707.04,221.271 1709.03,230.037 1711.02,219.143 1713.02,240.582 1715.01,228.141 1717,227.861 1719,225.391 1720.99,224.88 1722.98,224.394 1724.97,253.126 1726.97,233.152 1728.96,225.414 1730.95,223.169 1732.95,220.752 1734.94,228.022 1736.93,228.56 1738.93,229.554 1740.92,208.887 1742.91,228.257 1744.91,227.999 1746.9,223.548 1748.89,217.045 1750.89,239.205 1752.88,220.764 1754.87,226.322 1756.87,214.444 1758.86,222.831 1760.85,234.422 1762.84,225.35 1764.84,228.445 1766.83,233.55 1768.82,217.007 1770.82,238.84 1772.81,249.119 1774.8,227.792 1776.8,239.558 1778.79,220.064 1780.78,249.648 1782.78,223.599 1784.77,225.547 1786.76,232.257 1788.76,237.223 1790.75,257.691 1792.74,215.974 1794.74,215.593 1796.73,242.392 1798.72,223.989 1800.71,226.851 1802.71,223.968 1804.7,236.184 1806.69,227.794 1808.69,222.384 1810.68,224.534 1812.67,215.456 1814.67,253.201 1816.66,245.273 1818.65,240.329 1820.65,221.25 1822.64,225.619 1824.63,222.837 1826.63,227.887 1828.62,234.448 1830.61,221.39 1832.6,222.67 1834.6,231.166 1836.59,228.859 1838.58,224.657 1840.58,216.432 1842.57,229.291 1844.56,226.34 1846.56,232.913 1848.55,221.303 1850.54,227.125 1852.54,243.684 1854.53,233.344 1856.52,249.965 1858.52,227.19 1860.51,213.171 1862.5,216.706 1864.5,220.853 1866.49,225.267 1868.48,228.165 1870.47,223.413 1872.47,240.536 1874.46,221.068 1876.45,239.192 1878.45,229.556 1880.44,222.148 1882.43,239.962 1884.43,225.562 1886.42,226.655 1888.41,236.579 1890.41,235.691 1892.4,224.479 1894.39,223.735 1896.39,227.58 1898.38,229.148 1900.37,228.06 1902.36,222.706 1904.36,223.823 1906.35,236.15 1908.34,228.923 1910.34,219.549 1912.33,234.997 1914.32,232.203 1916.32,217.645 1918.31,250.212 1920.3,219.564 1922.3,232.66 1924.29,240.45 1926.28,226.459 1928.28,223.661 1930.27,220.603 1932.26,232.551 1934.26,228.807 1936.25,234.409 1938.24,222.394 1940.23,233.279 1942.23,232.021 1944.22,230.633 1946.21,233.87 1948.21,223.743 1950.2,216.284 1952.19,230.216 1954.19,221.746 1956.18,229.25 1958.17,233.475 1960.17,224.823 1962.16,230.091 1964.15,229.616 1966.15,226.061 1968.14,220.556 1970.13,232.064 1972.12,223.962 1974.12,230.239 1976.11,237.464 1978.1,237.708 1980.1,224.032 1982.09,224.469 1984.08,234.253 1986.08,226.304 1988.07,224.123 1990.06,220.567 1992.06,220.205 1994.05,233.263 1996.04,233.368 1998.04,249.524 2000.03,220.796 2002.02,234.721 2004.02,232.221 2006.01,221.64 2008,227.571 2009.99,226.44 2011.99,227.742 2013.98,215.828 2015.97,227.923 2017.97,228.009 2019.96,235.392 2021.95,238.149 2023.95,240.599 2025.94,233.497 2027.93,229.638 2029.93,223.832 2031.92,222.254 2033.91,223.238 2035.91,230.527 2037.9,228.351 2039.89,232.69 2041.89,247.06 2043.88,220.396 2045.87,238.854 2047.86,237.184 2049.86,218.526 2051.85,239.532 2053.84,230.807 2055.84,225.719 2057.83,223.882 2059.82,236.392 2061.82,222.694 2063.81,225.713 2065.8,219.815 2067.8,230.627 2069.79,233.624 2071.78,227.964 2073.78,241.144 2075.77,228.565 2077.76,219.167 2079.75,220.245 2081.75,229.03 2083.74,231.068 2085.73,227.614 2087.73,234.835 2089.72,227.895 2091.71,224.702 2093.71,222.114 2095.7,225.856 2097.69,219.528 2099.69,224.176 2101.68,242.884 2103.67,225.034 2105.67,235.31 2107.66,224.367 2109.65,243.624 2111.65,232.765 2113.64,226.792 2115.63,229.383 2117.62,225.265 2119.62,226.506 2121.61,224.574 2123.6,215.338 2125.6,214.785 2127.59,215.6 2129.58,222.23 2131.58,243.262 2133.57,232.757 2135.56,223.054 2137.56,232.595 2139.55,230.226 2141.54,233.761 2143.54,221.27 2145.53,220.749 2147.52,224.348 2149.51,227.678 2151.51,226.111 2153.5,214.845 2155.49,225.267 2157.49,220.423 2159.48,235.398 2161.47,220.132 2163.47,232.319 2165.46,235.602 2167.45,216.876 2169.45,240.749 2171.44,232.981 2173.43,221.994 2175.43,226.32 2177.42,229.031 2179.41,224.411 2181.41,235.16 2183.4,220.533 2185.39,223.305 2187.38,216.088 2189.38,222.202 2191.37,226.546 2193.36,228.701 2195.36,235.284 2197.35,227.873 2199.34,242.577 2201.34,213.78 2203.33,220.35 2205.32,231.245 2207.32,228.141 2209.31,223.428 2211.3,222.246 2213.3,223.177 2215.29,258.857 2217.28,226.27 2219.27,228.037 2221.27,229.265 2223.26,229.14 2225.25,224.126 2227.25,227.016 2229.24,246.401 2231.23,222.695 2233.23,225.551 2235.22,239.155 2237.21,231.054 2239.21,213.61 2241.2,219.621 2243.19,235.662 2245.19,219.952 2247.18,234.658 2249.17,237.556 2251.17,229.01 2253.16,230.817 2255.15,223.096 2257.14,235.131 2259.14,235.634 2261.13,229.371 2263.12,220.713 2265.12,230.142 2267.11,234.818 2269.1,243.392 2271.1,218.007 2273.09,228.268 2275.08,230.556 2277.08,234.604 2279.07,237.004 2281.06,235.019 2283.06,221.605 2285.05,234.545 2287.04,224.384 2289.04,218.458 2291.03,220.258 2293.02,239.624 "/>
<path clip-path="url(#clip720)" d="M1736.78 1377.32 L2282.4 1377.32 L2282.4 1221.8 L1736.78 1221.8  Z" fill="#ffffff" fill-rule="evenodd" fill-opacity="1"/>
<polyline clip-path="url(#clip720)" style="stroke:#000000; stroke-linecap:round; stroke-linejoin:round; stroke-width:4; stroke-opacity:1; fill:none" points="1736.78,1377.32 2282.4,1377.32 2282.4,1221.8 1736.78,1221.8 1736.78,1377.32 "/>
<polyline clip-path="url(#clip720)" style="stroke:#009af9; stroke-linecap:round; stroke-linejoin:round; stroke-width:4; stroke-opacity:1; fill:none" points="1760.23,1273.64 1900.94,1273.64 "/>
<path clip-path="url(#clip720)" d="M1929.07 1274.41 L1929.07 1287.07 L1936.57 1287.07 Q1940.34 1287.07 1942.15 1285.52 Q1943.98 1283.95 1943.98 1280.73 Q1943.98 1277.49 1942.15 1275.96 Q1940.34 1274.41 1936.57 1274.41 L1929.07 1274.41 M1929.07 1260.2 L1929.07 1270.61 L1935.99 1270.61 Q1939.42 1270.61 1941.08 1269.34 Q1942.77 1268.05 1942.77 1265.41 Q1942.77 1262.79 1941.08 1261.49 Q1939.42 1260.2 1935.99 1260.2 L1929.07 1260.2 M1924.39 1256.36 L1936.34 1256.36 Q1941.68 1256.36 1944.58 1258.58 Q1947.47 1260.8 1947.47 1264.9 Q1947.47 1268.07 1945.99 1269.94 Q1944.51 1271.82 1941.64 1272.28 Q1945.09 1273.02 1946.98 1275.38 Q1948.91 1277.72 1948.91 1281.24 Q1948.91 1285.87 1945.76 1288.39 Q1942.61 1290.92 1936.8 1290.92 L1924.39 1290.92 L1924.39 1256.36 Z" fill="#000000" fill-rule="nonzero" fill-opacity="1" /><path clip-path="url(#clip720)" d="M1961.59 1274.41 L1961.59 1287.07 L1969.09 1287.07 Q1972.86 1287.07 1974.67 1285.52 Q1976.5 1283.95 1976.5 1280.73 Q1976.5 1277.49 1974.67 1275.96 Q1972.86 1274.41 1969.09 1274.41 L1961.59 1274.41 M1961.59 1260.2 L1961.59 1270.61 L1968.51 1270.61 Q1971.94 1270.61 1973.6 1269.34 Q1975.29 1268.05 1975.29 1265.41 Q1975.29 1262.79 1973.6 1261.49 Q1971.94 1260.2 1968.51 1260.2 L1961.59 1260.2 M1956.92 1256.36 L1968.86 1256.36 Q1974.21 1256.36 1977.1 1258.58 Q1979.99 1260.8 1979.99 1264.9 Q1979.99 1268.07 1978.51 1269.94 Q1977.03 1271.82 1974.16 1272.28 Q1977.61 1273.02 1979.51 1275.38 Q1981.43 1277.72 1981.43 1281.24 Q1981.43 1285.87 1978.28 1288.39 Q1975.13 1290.92 1969.32 1290.92 L1956.92 1290.92 L1956.92 1256.36 Z" fill="#000000" fill-rule="nonzero" fill-opacity="1" /><path clip-path="url(#clip720)" d="M1996.89 1290.92 L1983.7 1256.36 L1988.58 1256.36 L1999.53 1285.45 L2010.5 1256.36 L2015.36 1256.36 L2002.19 1290.92 L1996.89 1290.92 Z" fill="#000000" fill-rule="nonzero" fill-opacity="1" /><path clip-path="url(#clip720)" d="M2020.41 1256.36 L2025.09 1256.36 L2025.09 1290.92 L2020.41 1290.92 L2020.41 1256.36 Z" fill="#000000" fill-rule="nonzero" fill-opacity="1" /><path clip-path="url(#clip720)" d="M2075.34 1259.02 L2075.34 1263.95 Q2072.98 1261.75 2070.29 1260.66 Q2067.63 1259.57 2064.62 1259.57 Q2058.7 1259.57 2055.55 1263.21 Q2052.4 1266.82 2052.4 1273.67 Q2052.4 1280.5 2055.55 1284.13 Q2058.7 1287.74 2064.62 1287.74 Q2067.63 1287.74 2070.29 1286.66 Q2072.98 1285.57 2075.34 1283.37 L2075.34 1288.25 Q2072.89 1289.92 2070.13 1290.75 Q2067.4 1291.59 2064.35 1291.59 Q2056.5 1291.59 2051.98 1286.79 Q2047.47 1281.98 2047.47 1273.67 Q2047.47 1265.34 2051.98 1260.55 Q2056.5 1255.73 2064.35 1255.73 Q2067.45 1255.73 2070.18 1256.56 Q2072.93 1257.37 2075.34 1259.02 Z" fill="#000000" fill-rule="nonzero" fill-opacity="1" /><path clip-path="url(#clip720)" d="M2082.56 1256.36 L2102.42 1256.36 L2102.42 1260.29 L2087.24 1260.29 L2087.24 1270.48 L2100.94 1270.48 L2100.94 1274.41 L2087.24 1274.41 L2087.24 1290.92 L2082.56 1290.92 L2082.56 1256.36 Z" fill="#000000" fill-rule="nonzero" fill-opacity="1" /><path clip-path="url(#clip720)" d="M2109.83 1256.36 L2131.68 1256.36 L2131.68 1260.29 L2114.51 1260.29 L2114.51 1270.52 L2130.97 1270.52 L2130.97 1274.46 L2114.51 1274.46 L2114.51 1286.98 L2132.1 1286.98 L2132.1 1290.92 L2109.83 1290.92 L2109.83 1256.36 Z" fill="#000000" fill-rule="nonzero" fill-opacity="1" /><polyline clip-path="url(#clip720)" style="stroke:#e26f46; stroke-linecap:round; stroke-linejoin:round; stroke-width:4; stroke-opacity:1; fill:none" points="1760.23,1325.48 1900.94,1325.48 "/>
<path clip-path="url(#clip720)" d="M1929.07 1326.25 L1929.07 1338.91 L1936.57 1338.91 Q1940.34 1338.91 1942.15 1337.36 Q1943.98 1335.79 1943.98 1332.57 Q1943.98 1329.33 1942.15 1327.8 Q1940.34 1326.25 1936.57 1326.25 L1929.07 1326.25 M1929.07 1312.04 L1929.07 1322.45 L1935.99 1322.45 Q1939.42 1322.45 1941.08 1321.18 Q1942.77 1319.89 1942.77 1317.25 Q1942.77 1314.63 1941.08 1313.33 Q1939.42 1312.04 1935.99 1312.04 L1929.07 1312.04 M1924.39 1308.2 L1936.34 1308.2 Q1941.68 1308.2 1944.58 1310.42 Q1947.47 1312.64 1947.47 1316.74 Q1947.47 1319.91 1945.99 1321.78 Q1944.51 1323.66 1941.64 1324.12 Q1945.09 1324.86 1946.98 1327.22 Q1948.91 1329.56 1948.91 1333.08 Q1948.91 1337.71 1945.76 1340.23 Q1942.61 1342.76 1936.8 1342.76 L1924.39 1342.76 L1924.39 1308.2 Z" fill="#000000" fill-rule="nonzero" fill-opacity="1" /><path clip-path="url(#clip720)" d="M1961.59 1326.25 L1961.59 1338.91 L1969.09 1338.91 Q1972.86 1338.91 1974.67 1337.36 Q1976.5 1335.79 1976.5 1332.57 Q1976.5 1329.33 1974.67 1327.8 Q1972.86 1326.25 1969.09 1326.25 L1961.59 1326.25 M1961.59 1312.04 L1961.59 1322.45 L1968.51 1322.45 Q1971.94 1322.45 1973.6 1321.18 Q1975.29 1319.89 1975.29 1317.25 Q1975.29 1314.63 1973.6 1313.33 Q1971.94 1312.04 1968.51 1312.04 L1961.59 1312.04 M1956.92 1308.2 L1968.86 1308.2 Q1974.21 1308.2 1977.1 1310.42 Q1979.99 1312.64 1979.99 1316.74 Q1979.99 1319.91 1978.51 1321.78 Q1977.03 1323.66 1974.16 1324.12 Q1977.61 1324.86 1979.51 1327.22 Q1981.43 1329.56 1981.43 1333.08 Q1981.43 1337.71 1978.28 1340.23 Q1975.13 1342.76 1969.32 1342.76 L1956.92 1342.76 L1956.92 1308.2 Z" fill="#000000" fill-rule="nonzero" fill-opacity="1" /><path clip-path="url(#clip720)" d="M1996.89 1342.76 L1983.7 1308.2 L1988.58 1308.2 L1999.53 1337.29 L2010.5 1308.2 L2015.36 1308.2 L2002.19 1342.76 L1996.89 1342.76 Z" fill="#000000" fill-rule="nonzero" fill-opacity="1" /><path clip-path="url(#clip720)" d="M2020.41 1308.2 L2025.09 1308.2 L2025.09 1342.76 L2020.41 1342.76 L2020.41 1308.2 Z" fill="#000000" fill-rule="nonzero" fill-opacity="1" /><path clip-path="url(#clip720)" d="M2075.34 1310.86 L2075.34 1315.79 Q2072.98 1313.59 2070.29 1312.5 Q2067.63 1311.41 2064.62 1311.41 Q2058.7 1311.41 2055.55 1315.05 Q2052.4 1318.66 2052.4 1325.51 Q2052.4 1332.34 2055.55 1335.97 Q2058.7 1339.58 2064.62 1339.58 Q2067.63 1339.58 2070.29 1338.5 Q2072.98 1337.41 2075.34 1335.21 L2075.34 1340.09 Q2072.89 1341.76 2070.13 1342.59 Q2067.4 1343.43 2064.35 1343.43 Q2056.5 1343.43 2051.98 1338.63 Q2047.47 1333.82 2047.47 1325.51 Q2047.47 1317.18 2051.98 1312.39 Q2056.5 1307.57 2064.35 1307.57 Q2067.45 1307.57 2070.18 1308.4 Q2072.93 1309.21 2075.34 1310.86 Z" fill="#000000" fill-rule="nonzero" fill-opacity="1" /><path clip-path="url(#clip720)" d="M2082.56 1308.2 L2102.42 1308.2 L2102.42 1312.13 L2087.24 1312.13 L2087.24 1322.32 L2100.94 1322.32 L2100.94 1326.25 L2087.24 1326.25 L2087.24 1342.76 L2082.56 1342.76 L2082.56 1308.2 Z" fill="#000000" fill-rule="nonzero" fill-opacity="1" /><path clip-path="url(#clip720)" d="M2109.83 1308.2 L2131.68 1308.2 L2131.68 1312.13 L2114.51 1312.13 L2114.51 1322.36 L2130.97 1322.36 L2130.97 1326.3 L2114.51 1326.3 L2114.51 1338.82 L2132.1 1338.82 L2132.1 1342.76 L2109.83 1342.76 L2109.83 1308.2 Z" fill="#000000" fill-rule="nonzero" fill-opacity="1" /><path clip-path="url(#clip720)" d="M2168.88 1311.37 Q2163.79 1311.37 2160.78 1315.16 Q2157.79 1318.96 2157.79 1325.51 Q2157.79 1332.04 2160.78 1335.83 Q2163.79 1339.63 2168.88 1339.63 Q2173.97 1339.63 2176.94 1335.83 Q2179.92 1332.04 2179.92 1325.51 Q2179.92 1318.96 2176.94 1315.16 Q2173.97 1311.37 2168.88 1311.37 M2175.43 1342.13 L2181.59 1348.87 L2175.94 1348.87 L2170.83 1343.33 Q2170.06 1343.38 2169.65 1343.4 Q2169.25 1343.43 2168.88 1343.43 Q2161.59 1343.43 2157.21 1338.57 Q2152.86 1333.68 2152.86 1325.51 Q2152.86 1317.32 2157.21 1312.45 Q2161.59 1307.57 2168.88 1307.57 Q2176.15 1307.57 2180.5 1312.45 Q2184.85 1317.32 2184.85 1325.51 Q2184.85 1331.53 2182.42 1335.81 Q2180.02 1340.09 2175.43 1342.13 Z" fill="#000000" fill-rule="nonzero" fill-opacity="1" /><path clip-path="url(#clip720)" d="M2192.17 1308.2 L2199.14 1308.2 L2207.96 1331.71 L2216.82 1308.2 L2223.79 1308.2 L2223.79 1342.76 L2219.23 1342.76 L2219.23 1312.41 L2210.32 1336.11 L2205.62 1336.11 L2196.71 1312.41 L2196.71 1342.76 L2192.17 1342.76 L2192.17 1308.2 Z" fill="#000000" fill-rule="nonzero" fill-opacity="1" /><path clip-path="url(#clip720)" d="M2258.95 1310.86 L2258.95 1315.79 Q2256.59 1313.59 2253.9 1312.5 Q2251.24 1311.41 2248.23 1311.41 Q2242.31 1311.41 2239.16 1315.05 Q2236.01 1318.66 2236.01 1325.51 Q2236.01 1332.34 2239.16 1335.97 Q2242.31 1339.58 2248.23 1339.58 Q2251.24 1339.58 2253.9 1338.5 Q2256.59 1337.41 2258.95 1335.21 L2258.95 1340.09 Q2256.5 1341.76 2253.74 1342.59 Q2251.01 1343.43 2247.96 1343.43 Q2240.11 1343.43 2235.59 1338.63 Q2231.08 1333.82 2231.08 1325.51 Q2231.08 1317.18 2235.59 1312.39 Q2240.11 1307.57 2247.96 1307.57 Q2251.06 1307.57 2253.79 1308.4 Q2256.54 1309.21 2258.95 1310.86 Z" fill="#000000" fill-rule="nonzero" fill-opacity="1" /></svg>
