<?xml version="1.0" encoding="utf-8"?>
<svg xmlns="http://www.w3.org/2000/svg" xmlns:xlink="http://www.w3.org/1999/xlink" width="600" height="400" viewBox="0 0 2400 1600">
<defs>
  <clipPath id="clip730">
    <rect x="0" y="0" width="2400" height="1600"/>
  </clipPath>
</defs>
<path clip-path="url(#clip730)" d="M0 1600 L2400 1600 L2400 0 L0 0  Z" fill="#ffffff" fill-rule="evenodd" fill-opacity="1"/>
<defs>
  <clipPath id="clip731">
    <rect x="480" y="0" width="1681" height="1600"/>
  </clipPath>
</defs>
<path clip-path="url(#clip730)" d="M242.135 1423.18 L2352.76 1423.18 L2352.76 47.2441 L242.135 47.2441  Z" fill="#ffffff" fill-rule="evenodd" fill-opacity="1"/>
<defs>
  <clipPath id="clip732">
    <rect x="242" y="47" width="2112" height="1377"/>
  </clipPath>
</defs>
<polyline clip-path="url(#clip732)" style="stroke:#000000; stroke-linecap:round; stroke-linejoin:round; stroke-width:2; stroke-opacity:0.1; fill:none" points="301.205,1423.18 301.205,47.2441 "/>
<polyline clip-path="url(#clip732)" style="stroke:#000000; stroke-linecap:round; stroke-linejoin:round; stroke-width:2; stroke-opacity:0.1; fill:none" points="965.144,1423.18 965.144,47.2441 "/>
<polyline clip-path="url(#clip732)" style="stroke:#000000; stroke-linecap:round; stroke-linejoin:round; stroke-width:2; stroke-opacity:0.1; fill:none" points="1629.08,1423.18 1629.08,47.2441 "/>
<polyline clip-path="url(#clip732)" style="stroke:#000000; stroke-linecap:round; stroke-linejoin:round; stroke-width:2; stroke-opacity:0.1; fill:none" points="2293.02,1423.18 2293.02,47.2441 "/>
<polyline clip-path="url(#clip732)" style="stroke:#000000; stroke-linecap:round; stroke-linejoin:round; stroke-width:2; stroke-opacity:0.1; fill:none" points="242.135,1423.18 2352.76,1423.18 "/>
<polyline clip-path="url(#clip732)" style="stroke:#000000; stroke-linecap:round; stroke-linejoin:round; stroke-width:2; stroke-opacity:0.1; fill:none" points="242.135,1058.51 2352.76,1058.51 "/>
<polyline clip-path="url(#clip732)" style="stroke:#000000; stroke-linecap:round; stroke-linejoin:round; stroke-width:2; stroke-opacity:0.1; fill:none" points="242.135,693.836 2352.76,693.836 "/>
<polyline clip-path="url(#clip732)" style="stroke:#000000; stroke-linecap:round; stroke-linejoin:round; stroke-width:2; stroke-opacity:0.1; fill:none" points="242.135,329.165 2352.76,329.165 "/>
<polyline clip-path="url(#clip730)" style="stroke:#000000; stroke-linecap:round; stroke-linejoin:round; stroke-width:4; stroke-opacity:1; fill:none" points="242.135,1423.18 2352.76,1423.18 "/>
<polyline clip-path="url(#clip730)" style="stroke:#000000; stroke-linecap:round; stroke-linejoin:round; stroke-width:4; stroke-opacity:1; fill:none" points="301.205,1423.18 301.205,1404.28 "/>
<polyline clip-path="url(#clip730)" style="stroke:#000000; stroke-linecap:round; stroke-linejoin:round; stroke-width:4; stroke-opacity:1; fill:none" points="965.144,1423.18 965.144,1404.28 "/>
<polyline clip-path="url(#clip730)" style="stroke:#000000; stroke-linecap:round; stroke-linejoin:round; stroke-width:4; stroke-opacity:1; fill:none" points="1629.08,1423.18 1629.08,1404.28 "/>
<polyline clip-path="url(#clip730)" style="stroke:#000000; stroke-linecap:round; stroke-linejoin:round; stroke-width:4; stroke-opacity:1; fill:none" points="2293.02,1423.18 2293.02,1404.28 "/>
<path clip-path="url(#clip730)" d="M301.205 1454.1 Q297.594 1454.1 295.766 1457.66 Q293.96 1461.2 293.96 1468.33 Q293.96 1475.44 295.766 1479.01 Q297.594 1482.55 301.205 1482.55 Q304.84 1482.55 306.645 1479.01 Q308.474 1475.44 308.474 1468.33 Q308.474 1461.2 306.645 1457.66 Q304.84 1454.1 301.205 1454.1 M301.205 1450.39 Q307.015 1450.39 310.071 1455 Q313.15 1459.58 313.15 1468.33 Q313.15 1477.06 310.071 1481.67 Q307.015 1486.25 301.205 1486.25 Q295.395 1486.25 292.316 1481.67 Q289.261 1477.06 289.261 1468.33 Q289.261 1459.58 292.316 1455 Q295.395 1450.39 301.205 1450.39 Z" fill="#000000" fill-rule="nonzero" fill-opacity="1" /><path clip-path="url(#clip730)" d="M909.67 1481.64 L917.309 1481.64 L917.309 1455.28 L908.998 1456.95 L908.998 1452.69 L917.262 1451.02 L921.938 1451.02 L921.938 1481.64 L929.577 1481.64 L929.577 1485.58 L909.67 1485.58 L909.67 1481.64 Z" fill="#000000" fill-rule="nonzero" fill-opacity="1" /><path clip-path="url(#clip730)" d="M949.021 1454.1 Q945.41 1454.1 943.582 1457.66 Q941.776 1461.2 941.776 1468.33 Q941.776 1475.44 943.582 1479.01 Q945.41 1482.55 949.021 1482.55 Q952.656 1482.55 954.461 1479.01 Q956.29 1475.44 956.29 1468.33 Q956.29 1461.2 954.461 1457.66 Q952.656 1454.1 949.021 1454.1 M949.021 1450.39 Q954.832 1450.39 957.887 1455 Q960.966 1459.58 960.966 1468.33 Q960.966 1477.06 957.887 1481.67 Q954.832 1486.25 949.021 1486.25 Q943.211 1486.25 940.133 1481.67 Q937.077 1477.06 937.077 1468.33 Q937.077 1459.58 940.133 1455 Q943.211 1450.39 949.021 1450.39 Z" fill="#000000" fill-rule="nonzero" fill-opacity="1" /><path clip-path="url(#clip730)" d="M979.183 1454.1 Q975.572 1454.1 973.743 1457.66 Q971.938 1461.2 971.938 1468.33 Q971.938 1475.44 973.743 1479.01 Q975.572 1482.55 979.183 1482.55 Q982.817 1482.55 984.623 1479.01 Q986.452 1475.44 986.452 1468.33 Q986.452 1461.2 984.623 1457.66 Q982.817 1454.1 979.183 1454.1 M979.183 1450.39 Q984.993 1450.39 988.049 1455 Q991.128 1459.58 991.128 1468.33 Q991.128 1477.06 988.049 1481.67 Q984.993 1486.25 979.183 1486.25 Q973.373 1486.25 970.294 1481.67 Q967.239 1477.06 967.239 1468.33 Q967.239 1459.58 970.294 1455 Q973.373 1450.39 979.183 1450.39 Z" fill="#000000" fill-rule="nonzero" fill-opacity="1" /><path clip-path="url(#clip730)" d="M1009.35 1454.1 Q1005.73 1454.1 1003.91 1457.66 Q1002.1 1461.2 1002.1 1468.33 Q1002.1 1475.44 1003.91 1479.01 Q1005.73 1482.55 1009.35 1482.55 Q1012.98 1482.55 1014.78 1479.01 Q1016.61 1475.44 1016.61 1468.33 Q1016.61 1461.2 1014.78 1457.66 Q1012.98 1454.1 1009.35 1454.1 M1009.35 1450.39 Q1015.16 1450.39 1018.21 1455 Q1021.29 1459.58 1021.29 1468.33 Q1021.29 1477.06 1018.21 1481.67 Q1015.16 1486.25 1009.35 1486.25 Q1003.53 1486.25 1000.46 1481.67 Q997.401 1477.06 997.401 1468.33 Q997.401 1459.58 1000.46 1455 Q1003.53 1450.39 1009.35 1450.39 Z" fill="#000000" fill-rule="nonzero" fill-opacity="1" /><path clip-path="url(#clip730)" d="M1577.69 1481.64 L1594.01 1481.64 L1594.01 1485.58 L1572.07 1485.58 L1572.07 1481.64 Q1574.73 1478.89 1579.31 1474.26 Q1583.92 1469.61 1585.1 1468.27 Q1587.35 1465.74 1588.23 1464.01 Q1589.13 1462.25 1589.13 1460.56 Q1589.13 1457.8 1587.18 1456.07 Q1585.26 1454.33 1582.16 1454.33 Q1579.96 1454.33 1577.51 1455.09 Q1575.08 1455.86 1572.3 1457.41 L1572.3 1452.69 Q1575.12 1451.55 1577.58 1450.97 Q1580.03 1450.39 1582.07 1450.39 Q1587.44 1450.39 1590.63 1453.08 Q1593.83 1455.77 1593.83 1460.26 Q1593.83 1462.39 1593.02 1464.31 Q1592.23 1466.2 1590.12 1468.8 Q1589.55 1469.47 1586.44 1472.69 Q1583.34 1475.88 1577.69 1481.64 Z" fill="#000000" fill-rule="nonzero" fill-opacity="1" /><path clip-path="url(#clip730)" d="M1613.83 1454.1 Q1610.22 1454.1 1608.39 1457.66 Q1606.58 1461.2 1606.58 1468.33 Q1606.58 1475.44 1608.39 1479.01 Q1610.22 1482.55 1613.83 1482.55 Q1617.46 1482.55 1619.27 1479.01 Q1621.1 1475.44 1621.1 1468.33 Q1621.1 1461.2 1619.27 1457.66 Q1617.46 1454.1 1613.83 1454.1 M1613.83 1450.39 Q1619.64 1450.39 1622.69 1455 Q1625.77 1459.58 1625.77 1468.33 Q1625.77 1477.06 1622.69 1481.67 Q1619.64 1486.25 1613.83 1486.25 Q1608.02 1486.25 1604.94 1481.67 Q1601.88 1477.06 1601.88 1468.33 Q1601.88 1459.58 1604.94 1455 Q1608.02 1450.39 1613.83 1450.39 Z" fill="#000000" fill-rule="nonzero" fill-opacity="1" /><path clip-path="url(#clip730)" d="M1643.99 1454.1 Q1640.38 1454.1 1638.55 1457.66 Q1636.74 1461.2 1636.74 1468.33 Q1636.74 1475.44 1638.55 1479.01 Q1640.38 1482.55 1643.99 1482.55 Q1647.62 1482.55 1649.43 1479.01 Q1651.26 1475.44 1651.26 1468.33 Q1651.26 1461.2 1649.43 1457.66 Q1647.62 1454.1 1643.99 1454.1 M1643.99 1450.39 Q1649.8 1450.39 1652.86 1455 Q1655.93 1459.58 1655.93 1468.33 Q1655.93 1477.06 1652.86 1481.67 Q1649.8 1486.25 1643.99 1486.25 Q1638.18 1486.25 1635.1 1481.67 Q1632.05 1477.06 1632.05 1468.33 Q1632.05 1459.58 1635.1 1455 Q1638.18 1450.39 1643.99 1450.39 Z" fill="#000000" fill-rule="nonzero" fill-opacity="1" /><path clip-path="url(#clip730)" d="M1674.15 1454.1 Q1670.54 1454.1 1668.71 1457.66 Q1666.91 1461.2 1666.91 1468.33 Q1666.91 1475.44 1668.71 1479.01 Q1670.54 1482.55 1674.15 1482.55 Q1677.79 1482.55 1679.59 1479.01 Q1681.42 1475.44 1681.42 1468.33 Q1681.42 1461.2 1679.59 1457.66 Q1677.79 1454.1 1674.15 1454.1 M1674.15 1450.39 Q1679.96 1450.39 1683.02 1455 Q1686.1 1459.58 1686.1 1468.33 Q1686.1 1477.06 1683.02 1481.67 Q1679.96 1486.25 1674.15 1486.25 Q1668.34 1486.25 1665.26 1481.67 Q1662.21 1477.06 1662.21 1468.33 Q1662.21 1459.58 1665.26 1455 Q1668.34 1450.39 1674.15 1450.39 Z" fill="#000000" fill-rule="nonzero" fill-opacity="1" /><path clip-path="url(#clip730)" d="M2251.7 1466.95 Q2255.06 1467.66 2256.93 1469.93 Q2258.83 1472.2 2258.83 1475.53 Q2258.83 1480.65 2255.31 1483.45 Q2251.79 1486.25 2245.31 1486.25 Q2243.14 1486.25 2240.82 1485.81 Q2238.53 1485.39 2236.08 1484.54 L2236.08 1480.02 Q2238.02 1481.16 2240.34 1481.74 Q2242.65 1482.32 2245.17 1482.32 Q2249.57 1482.32 2251.86 1480.58 Q2254.18 1478.84 2254.18 1475.53 Q2254.18 1472.48 2252.03 1470.77 Q2249.9 1469.03 2246.08 1469.03 L2242.05 1469.03 L2242.05 1465.19 L2246.26 1465.19 Q2249.71 1465.19 2251.54 1463.82 Q2253.37 1462.43 2253.37 1459.84 Q2253.37 1457.18 2251.47 1455.77 Q2249.6 1454.33 2246.08 1454.33 Q2244.16 1454.33 2241.96 1454.75 Q2239.76 1455.16 2237.12 1456.04 L2237.12 1451.88 Q2239.78 1451.14 2242.1 1450.77 Q2244.43 1450.39 2246.49 1450.39 Q2251.82 1450.39 2254.92 1452.83 Q2258.02 1455.23 2258.02 1459.35 Q2258.02 1462.22 2256.38 1464.21 Q2254.73 1466.18 2251.7 1466.95 Z" fill="#000000" fill-rule="nonzero" fill-opacity="1" /><path clip-path="url(#clip730)" d="M2277.7 1454.1 Q2274.09 1454.1 2272.26 1457.66 Q2270.45 1461.2 2270.45 1468.33 Q2270.45 1475.44 2272.26 1479.01 Q2274.09 1482.55 2277.7 1482.55 Q2281.33 1482.55 2283.14 1479.01 Q2284.97 1475.44 2284.97 1468.33 Q2284.97 1461.2 2283.14 1457.66 Q2281.33 1454.1 2277.7 1454.1 M2277.7 1450.39 Q2283.51 1450.39 2286.56 1455 Q2289.64 1459.58 2289.64 1468.33 Q2289.64 1477.06 2286.56 1481.67 Q2283.51 1486.25 2277.7 1486.25 Q2271.89 1486.25 2268.81 1481.67 Q2265.75 1477.06 2265.75 1468.33 Q2265.75 1459.58 2268.81 1455 Q2271.89 1450.39 2277.7 1450.39 Z" fill="#000000" fill-rule="nonzero" fill-opacity="1" /><path clip-path="url(#clip730)" d="M2307.86 1454.1 Q2304.25 1454.1 2302.42 1457.66 Q2300.61 1461.2 2300.61 1468.33 Q2300.61 1475.44 2302.42 1479.01 Q2304.25 1482.55 2307.86 1482.55 Q2311.49 1482.55 2313.3 1479.01 Q2315.13 1475.44 2315.13 1468.33 Q2315.13 1461.2 2313.3 1457.66 Q2311.49 1454.1 2307.86 1454.1 M2307.86 1450.39 Q2313.67 1450.39 2316.72 1455 Q2319.8 1459.58 2319.8 1468.33 Q2319.8 1477.06 2316.72 1481.67 Q2313.67 1486.25 2307.86 1486.25 Q2302.05 1486.25 2298.97 1481.67 Q2295.91 1477.06 2295.91 1468.33 Q2295.91 1459.58 2298.97 1455 Q2302.05 1450.39 2307.86 1450.39 Z" fill="#000000" fill-rule="nonzero" fill-opacity="1" /><path clip-path="url(#clip730)" d="M2338.02 1454.1 Q2334.41 1454.1 2332.58 1457.66 Q2330.78 1461.2 2330.78 1468.33 Q2330.78 1475.44 2332.58 1479.01 Q2334.41 1482.55 2338.02 1482.55 Q2341.66 1482.55 2343.46 1479.01 Q2345.29 1475.44 2345.29 1468.33 Q2345.29 1461.2 2343.46 1457.66 Q2341.66 1454.1 2338.02 1454.1 M2338.02 1450.39 Q2343.83 1450.39 2346.89 1455 Q2349.97 1459.58 2349.97 1468.33 Q2349.97 1477.06 2346.89 1481.67 Q2343.83 1486.25 2338.02 1486.25 Q2332.21 1486.25 2329.13 1481.67 Q2326.08 1477.06 2326.08 1468.33 Q2326.08 1459.58 2329.13 1455 Q2332.21 1450.39 2338.02 1450.39 Z" fill="#000000" fill-rule="nonzero" fill-opacity="1" /><path clip-path="url(#clip730)" d="M1165.17 1520.52 L1171.6 1520.52 L1171.6 1568.04 L1165.17 1568.04 L1165.17 1520.52 Z" fill="#000000" fill-rule="nonzero" fill-opacity="1" /><path clip-path="url(#clip730)" d="M1189.93 1522.27 L1189.93 1532.4 L1201.99 1532.4 L1201.99 1536.95 L1189.93 1536.95 L1189.93 1556.3 Q1189.93 1560.66 1191.11 1561.9 Q1192.32 1563.14 1195.98 1563.14 L1201.99 1563.14 L1201.99 1568.04 L1195.98 1568.04 Q1189.2 1568.04 1186.62 1565.53 Q1184.04 1562.98 1184.04 1556.3 L1184.04 1536.95 L1179.74 1536.95 L1179.74 1532.4 L1184.04 1532.4 L1184.04 1522.27 L1189.93 1522.27 Z" fill="#000000" fill-rule="nonzero" fill-opacity="1" /><path clip-path="url(#clip730)" d="M1240.19 1548.76 L1240.19 1551.62 L1213.26 1551.62 Q1213.64 1557.67 1216.89 1560.85 Q1220.17 1564 1225.99 1564 Q1229.36 1564 1232.52 1563.17 Q1235.7 1562.35 1238.82 1560.69 L1238.82 1566.23 Q1235.67 1567.57 1232.36 1568.27 Q1229.05 1568.97 1225.64 1568.97 Q1217.11 1568.97 1212.11 1564 Q1207.15 1559.04 1207.15 1550.57 Q1207.15 1541.82 1211.86 1536.69 Q1216.6 1531.54 1224.62 1531.54 Q1231.81 1531.54 1235.98 1536.18 Q1240.19 1540.8 1240.19 1548.76 M1234.33 1547.04 Q1234.27 1542.23 1231.62 1539.37 Q1229.01 1536.5 1224.69 1536.5 Q1219.78 1536.5 1216.82 1539.27 Q1213.9 1542.04 1213.45 1547.07 L1234.33 1547.04 Z" fill="#000000" fill-rule="nonzero" fill-opacity="1" /><path clip-path="url(#clip730)" d="M1270.45 1537.87 Q1269.47 1537.3 1268.29 1537.04 Q1267.14 1536.76 1265.74 1536.76 Q1260.78 1536.76 1258.11 1540 Q1255.46 1543.22 1255.46 1549.27 L1255.46 1568.04 L1249.58 1568.04 L1249.58 1532.4 L1255.46 1532.4 L1255.46 1537.93 Q1257.31 1534.69 1260.27 1533.13 Q1263.23 1531.54 1267.46 1531.54 Q1268.07 1531.54 1268.8 1531.63 Q1269.53 1531.7 1270.42 1531.85 L1270.45 1537.87 Z" fill="#000000" fill-rule="nonzero" fill-opacity="1" /><path clip-path="url(#clip730)" d="M1292.8 1550.12 Q1285.7 1550.12 1282.96 1551.75 Q1280.23 1553.37 1280.23 1557.29 Q1280.23 1560.4 1282.26 1562.25 Q1284.33 1564.07 1287.86 1564.07 Q1292.73 1564.07 1295.66 1560.63 Q1298.62 1557.16 1298.62 1551.43 L1298.62 1550.12 L1292.8 1550.12 M1304.48 1547.71 L1304.48 1568.04 L1298.62 1568.04 L1298.62 1562.63 Q1296.62 1565.88 1293.63 1567.44 Q1290.63 1568.97 1286.31 1568.97 Q1280.83 1568.97 1277.58 1565.91 Q1274.37 1562.82 1274.37 1557.67 Q1274.37 1551.65 1278.38 1548.6 Q1282.42 1545.54 1290.41 1545.54 L1298.62 1545.54 L1298.62 1544.97 Q1298.62 1540.93 1295.95 1538.73 Q1293.31 1536.5 1288.5 1536.5 Q1285.45 1536.5 1282.55 1537.23 Q1279.65 1537.97 1276.98 1539.43 L1276.98 1534.02 Q1280.19 1532.78 1283.22 1532.17 Q1286.24 1531.54 1289.11 1531.54 Q1296.84 1531.54 1300.66 1535.55 Q1304.48 1539.56 1304.48 1547.71 Z" fill="#000000" fill-rule="nonzero" fill-opacity="1" /><path clip-path="url(#clip730)" d="M1322.34 1522.27 L1322.34 1532.4 L1334.4 1532.4 L1334.4 1536.95 L1322.34 1536.95 L1322.34 1556.3 Q1322.34 1560.66 1323.51 1561.9 Q1324.72 1563.14 1328.38 1563.14 L1334.4 1563.14 L1334.4 1568.04 L1328.38 1568.04 Q1321.6 1568.04 1319.03 1565.53 Q1316.45 1562.98 1316.45 1556.3 L1316.45 1536.95 L1312.15 1536.95 L1312.15 1532.4 L1316.45 1532.4 L1316.45 1522.27 L1322.34 1522.27 Z" fill="#000000" fill-rule="nonzero" fill-opacity="1" /><path clip-path="url(#clip730)" d="M1342.1 1532.4 L1347.96 1532.4 L1347.96 1568.04 L1342.1 1568.04 L1342.1 1532.4 M1342.1 1518.52 L1347.96 1518.52 L1347.96 1525.93 L1342.1 1525.93 L1342.1 1518.52 Z" fill="#000000" fill-rule="nonzero" fill-opacity="1" /><path clip-path="url(#clip730)" d="M1374.02 1536.5 Q1369.31 1536.5 1366.58 1540.19 Q1363.84 1543.85 1363.84 1550.25 Q1363.84 1556.65 1366.55 1560.34 Q1369.28 1564 1374.02 1564 Q1378.7 1564 1381.44 1560.31 Q1384.18 1556.62 1384.18 1550.25 Q1384.18 1543.92 1381.44 1540.23 Q1378.7 1536.5 1374.02 1536.5 M1374.02 1531.54 Q1381.66 1531.54 1386.02 1536.5 Q1390.38 1541.47 1390.38 1550.25 Q1390.38 1559 1386.02 1564 Q1381.66 1568.97 1374.02 1568.97 Q1366.35 1568.97 1361.99 1564 Q1357.66 1559 1357.66 1550.25 Q1357.66 1541.47 1361.99 1536.5 Q1366.35 1531.54 1374.02 1531.54 Z" fill="#000000" fill-rule="nonzero" fill-opacity="1" /><path clip-path="url(#clip730)" d="M1429.72 1546.53 L1429.72 1568.04 L1423.87 1568.04 L1423.87 1546.72 Q1423.87 1541.66 1421.89 1539.14 Q1419.92 1536.63 1415.97 1536.63 Q1411.23 1536.63 1408.5 1539.65 Q1405.76 1542.68 1405.76 1547.9 L1405.76 1568.04 L1399.87 1568.04 L1399.87 1532.4 L1405.76 1532.4 L1405.76 1537.93 Q1407.86 1534.72 1410.69 1533.13 Q1413.56 1531.54 1417.28 1531.54 Q1423.42 1531.54 1426.57 1535.36 Q1429.72 1539.14 1429.72 1546.53 Z" fill="#000000" fill-rule="nonzero" fill-opacity="1" /><polyline clip-path="url(#clip730)" style="stroke:#000000; stroke-linecap:round; stroke-linejoin:round; stroke-width:4; stroke-opacity:1; fill:none" points="242.135,1423.18 242.135,47.2441 "/>
<polyline clip-path="url(#clip730)" style="stroke:#000000; stroke-linecap:round; stroke-linejoin:round; stroke-width:4; stroke-opacity:1; fill:none" points="242.135,1423.18 261.032,1423.18 "/>
<polyline clip-path="url(#clip730)" style="stroke:#000000; stroke-linecap:round; stroke-linejoin:round; stroke-width:4; stroke-opacity:1; fill:none" points="242.135,1058.51 261.032,1058.51 "/>
<polyline clip-path="url(#clip730)" style="stroke:#000000; stroke-linecap:round; stroke-linejoin:round; stroke-width:4; stroke-opacity:1; fill:none" points="242.135,693.836 261.032,693.836 "/>
<polyline clip-path="url(#clip730)" style="stroke:#000000; stroke-linecap:round; stroke-linejoin:round; stroke-width:4; stroke-opacity:1; fill:none" points="242.135,329.165 261.032,329.165 "/>
<path clip-path="url(#clip730)" d="M114.26 1423.63 L143.936 1423.63 L143.936 1427.57 L114.26 1427.57 L114.26 1423.63 Z" fill="#000000" fill-rule="nonzero" fill-opacity="1" /><path clip-path="url(#clip730)" d="M154.839 1436.52 L162.477 1436.52 L162.477 1410.16 L154.167 1411.83 L154.167 1407.57 L162.431 1405.9 L167.107 1405.9 L167.107 1436.52 L174.746 1436.52 L174.746 1440.46 L154.839 1440.46 L154.839 1436.52 Z" fill="#000000" fill-rule="nonzero" fill-opacity="1" /><path clip-path="url(#clip730)" d="M194.19 1408.98 Q190.579 1408.98 188.75 1412.54 Q186.945 1416.08 186.945 1423.21 Q186.945 1430.32 188.75 1433.89 Q190.579 1437.43 194.19 1437.43 Q197.825 1437.43 199.63 1433.89 Q201.459 1430.32 201.459 1423.21 Q201.459 1416.08 199.63 1412.54 Q197.825 1408.98 194.19 1408.98 M194.19 1405.27 Q200 1405.27 203.056 1409.88 Q206.135 1414.46 206.135 1423.21 Q206.135 1431.94 203.056 1436.55 Q200 1441.13 194.19 1441.13 Q188.38 1441.13 185.301 1436.55 Q182.246 1431.94 182.246 1423.21 Q182.246 1414.46 185.301 1409.88 Q188.38 1405.27 194.19 1405.27 Z" fill="#000000" fill-rule="nonzero" fill-opacity="1" /><path clip-path="url(#clip730)" d="M144.515 1058.96 L174.19 1058.96 L174.19 1062.89 L144.515 1062.89 L144.515 1058.96 Z" fill="#000000" fill-rule="nonzero" fill-opacity="1" /><path clip-path="url(#clip730)" d="M194.283 1059.38 Q190.95 1059.38 189.028 1061.16 Q187.13 1062.94 187.13 1066.07 Q187.13 1069.19 189.028 1070.97 Q190.95 1072.76 194.283 1072.76 Q197.616 1072.76 199.537 1070.97 Q201.459 1069.17 201.459 1066.07 Q201.459 1062.94 199.537 1061.16 Q197.639 1059.38 194.283 1059.38 M189.607 1057.39 Q186.598 1056.64 184.908 1054.58 Q183.241 1052.52 183.241 1049.56 Q183.241 1045.42 186.181 1043.01 Q189.144 1040.6 194.283 1040.6 Q199.445 1040.6 202.385 1043.01 Q205.324 1045.42 205.324 1049.56 Q205.324 1052.52 203.635 1054.58 Q201.968 1056.64 198.982 1057.39 Q202.362 1058.17 204.237 1060.46 Q206.135 1062.76 206.135 1066.07 Q206.135 1071.09 203.056 1073.77 Q200 1076.46 194.283 1076.46 Q188.565 1076.46 185.487 1073.77 Q182.431 1071.09 182.431 1066.07 Q182.431 1062.76 184.329 1060.46 Q186.227 1058.17 189.607 1057.39 M187.894 1050 Q187.894 1052.69 189.561 1054.19 Q191.25 1055.7 194.283 1055.7 Q197.292 1055.7 198.982 1054.19 Q200.695 1052.69 200.695 1050 Q200.695 1047.32 198.982 1045.81 Q197.292 1044.31 194.283 1044.31 Q191.25 1044.31 189.561 1045.81 Q187.894 1047.32 187.894 1050 Z" fill="#000000" fill-rule="nonzero" fill-opacity="1" /><path clip-path="url(#clip730)" d="M144.26 694.288 L173.936 694.288 L173.936 698.223 L144.26 698.223 L144.26 694.288 Z" fill="#000000" fill-rule="nonzero" fill-opacity="1" /><path clip-path="url(#clip730)" d="M194.607 691.973 Q191.459 691.973 189.607 694.126 Q187.778 696.279 187.778 700.029 Q187.778 703.755 189.607 705.931 Q191.459 708.084 194.607 708.084 Q197.755 708.084 199.584 705.931 Q201.436 703.755 201.436 700.029 Q201.436 696.279 199.584 694.126 Q197.755 691.973 194.607 691.973 M203.889 677.32 L203.889 681.58 Q202.13 680.746 200.325 680.306 Q198.542 679.867 196.783 679.867 Q192.153 679.867 189.7 682.992 Q187.269 686.117 186.922 692.436 Q188.288 690.422 190.348 689.357 Q192.408 688.269 194.885 688.269 Q200.093 688.269 203.102 691.441 Q206.135 694.589 206.135 700.029 Q206.135 705.353 202.987 708.57 Q199.838 711.788 194.607 711.788 Q188.612 711.788 185.44 707.204 Q182.269 702.598 182.269 693.871 Q182.269 685.677 186.158 680.816 Q190.047 675.931 196.598 675.931 Q198.357 675.931 200.139 676.279 Q201.945 676.626 203.889 677.32 Z" fill="#000000" fill-rule="nonzero" fill-opacity="1" /><path clip-path="url(#clip730)" d="M143.936 329.616 L173.612 329.616 L173.612 333.551 L143.936 333.551 L143.936 329.616 Z" fill="#000000" fill-rule="nonzero" fill-opacity="1" /><path clip-path="url(#clip730)" d="M196.551 315.959 L184.746 334.408 L196.551 334.408 L196.551 315.959 M195.325 311.885 L201.204 311.885 L201.204 334.408 L206.135 334.408 L206.135 338.297 L201.204 338.297 L201.204 346.445 L196.551 346.445 L196.551 338.297 L180.95 338.297 L180.95 333.783 L195.325 311.885 Z" fill="#000000" fill-rule="nonzero" fill-opacity="1" /><path clip-path="url(#clip730)" d="M16.4842 816.375 L16.4842 786.329 L21.895 786.329 L21.895 809.945 L35.9632 809.945 L35.9632 787.315 L41.3741 787.315 L41.3741 809.945 L58.5933 809.945 L58.5933 785.756 L64.0042 785.756 L64.0042 816.375 L16.4842 816.375 Z" fill="#000000" fill-rule="nonzero" fill-opacity="1" /><path clip-path="url(#clip730)" d="M16.4842 775.189 L16.4842 768.759 L58.5933 768.759 L58.5933 745.62 L64.0042 745.62 L64.0042 775.189 L16.4842 775.189 Z" fill="#000000" fill-rule="nonzero" fill-opacity="1" /><path clip-path="url(#clip730)" d="M41.3104 732.443 L58.7206 732.443 L58.7206 722.13 Q58.7206 716.942 56.5881 714.46 Q54.4238 711.945 49.9996 711.945 Q45.5436 711.945 43.4429 714.46 Q41.3104 716.942 41.3104 722.13 L41.3104 732.443 M21.7677 732.443 L36.0905 732.443 L36.0905 722.926 Q36.0905 718.216 34.34 715.924 Q32.5576 713.6 28.9291 713.6 Q25.3325 713.6 23.5501 715.924 Q21.7677 718.216 21.7677 722.926 L21.7677 732.443 M16.4842 738.872 L16.4842 722.449 Q16.4842 715.096 19.5397 711.118 Q22.5952 707.139 28.2289 707.139 Q32.5894 707.139 35.1675 709.176 Q37.7456 711.213 38.3822 715.16 Q39.4007 710.418 42.6472 707.808 Q45.8619 705.166 50.6998 705.166 Q57.0655 705.166 60.5348 709.495 Q64.0042 713.823 64.0042 721.812 L64.0042 738.872 L16.4842 738.872 Z" fill="#000000" fill-rule="nonzero" fill-opacity="1" /><path clip-path="url(#clip730)" d="M20.8447 676.011 Q20.8447 683.013 26.0645 687.151 Q31.2844 691.257 40.2919 691.257 Q49.2675 691.257 54.4874 687.151 Q59.7073 683.013 59.7073 676.011 Q59.7073 669.009 54.4874 664.935 Q49.2675 660.829 40.2919 660.829 Q31.2844 660.829 26.0645 664.935 Q20.8447 669.009 20.8447 676.011 M15.6248 676.011 Q15.6248 666.017 22.3406 660.033 Q29.0246 654.049 40.2919 654.049 Q51.5274 654.049 58.2432 660.033 Q64.9272 666.017 64.9272 676.011 Q64.9272 686.037 58.2432 692.052 Q51.5592 698.036 40.2919 698.036 Q29.0246 698.036 22.3406 692.052 Q15.6248 686.037 15.6248 676.011 Z" fill="#000000" fill-rule="nonzero" fill-opacity="1" /><polyline clip-path="url(#clip732)" style="stroke:#009af9; stroke-linecap:round; stroke-linejoin:round; stroke-width:4; stroke-opacity:1; fill:none" points="301.869,1172.94 302.533,860.469 303.197,2370.02 303.861,968.089 304.525,598.622 305.189,2850.94 305.853,1499.63 306.517,2923.4 307.181,1002.74 307.845,634.965 308.509,1237.25 309.173,924.435 309.836,975.524 310.5,1051.12 311.164,759.315 311.828,837.288 312.492,1198.52 313.156,1289.3 313.82,1440.6 314.484,1055.51 315.148,844.003 315.812,1390.81 316.476,1065.52 317.14,2428.26 317.804,1148.85 318.468,791.405 319.132,1000.32 319.796,1729.61 320.46,959.544 321.123,994.953 321.787,725.342 322.451,849.768 323.115,950.497 323.779,778.557 324.443,989.86 325.107,809.864 325.771,852.11 326.435,1156.75 327.099,749.311 327.763,1033.21 328.427,830.15 329.091,988.327 329.755,656.658 330.419,837.523 331.083,551.008 331.746,700 332.41,677.075 333.074,547.443 333.738,845.287 334.402,548.154 335.066,534.633 335.73,413.141 336.394,4244.03 337.058,1052.9 337.722,911.843 338.386,865.853 339.05,679.978 339.714,849.585 340.378,704.906 341.042,791.798 341.706,543.361 342.369,690.137 343.033,698.388 343.697,603.424 344.361,525.939 345.025,589.672 345.689,698.53 346.353,585.928 347.017,472.751 347.681,522.438 348.345,510.073 349.009,537.254 349.673,412.92 350.337,527.549 351.001,441.597 351.665,392.201 352.329,463.09 352.993,317.691 353.656,481.039 354.32,402.654 354.984,398.335 355.648,343.75 356.312,385.696 356.976,390.71 357.64,364.26 358.304,463.681 358.968,360.106 359.632,282.013 360.296,207.11 360.96,371.547 361.624,357.873 362.288,249.383 362.952,359.294 363.616,365.395 364.279,278.8 364.943,551.617 365.607,375.304 366.271,350.893 366.935,507.104 367.599,370.883 368.263,369.247 368.927,348.457 369.591,379.649 370.255,328.151 370.919,314.42 371.583,371.492 372.247,408.57 372.911,252.54 373.575,292.077 374.239,369.112 374.902,322.126 375.566,368.566 376.23,383.137 376.894,308.473 377.558,388.622 378.222,196.945 378.886,247.925 379.55,317.893 380.214,404.004 380.878,314.253 381.542,314.11 382.206,347.138 382.87,317.632 383.534,351.407 384.198,322.092 384.862,303.262 385.526,275.239 386.189,337.876 386.853,327.285 387.517,319.735 388.181,506.829 388.845,371.884 389.509,296.302 390.173,310.486 390.837,499.815 391.501,329.336 392.165,344.75 392.829,302.702 393.493,315.451 394.157,308.119 394.821,274.345 395.485,249.148 396.149,291.838 396.812,356.294 397.476,298.748 398.14,233.631 398.804,198.902 399.468,350.602 400.132,262.317 400.796,295.806 401.46,304.463 402.124,329.926 402.788,267.235 403.452,277.534 404.116,266.314 404.78,269.739 405.444,286.793 406.108,433.838 406.772,403.84 407.435,307.571 408.099,205.948 408.763,261.749 409.427,306.573 410.091,283.312 410.755,267.952 411.419,270.231 412.083,295.882 412.747,232.032 413.411,274.175 414.075,245.859 414.739,301.842 415.403,273.712 416.067,238.907 416.731,232.248 417.395,290.312 418.058,233.609 418.722,304.083 419.386,276.017 420.05,244.451 420.714,188.598 421.378,257.136 422.042,308.316 422.706,312.064 423.37,205.898 424.034,283.82 424.698,288.448 425.362,258.811 426.026,246.356 426.69,251.12 427.354,247.903 428.018,304.312 428.682,273.8 429.345,191.377 430.009,282.04 430.673,247.509 431.337,217.902 432.001,260.974 432.665,223.817 433.329,188.824 433.993,490.172 434.657,310.401 435.321,333.902 435.985,337.157 436.649,318.177 437.313,372.89 437.977,312.51 438.641,269.611 439.305,321.291 439.968,314.31 440.632,244.097 441.296,247.982 441.96,325.242 442.624,266.689 443.288,223.937 443.952,279.884 444.616,216.269 445.28,372.092 445.944,346.16 446.608,289.006 447.272,233.507 447.936,283.194 448.6,245.372 449.264,272.127 449.928,191.739 450.591,278.105 451.255,227.79 451.919,314.797 452.583,253.478 453.247,312.331 453.911,281.939 454.575,243.53 455.239,239.775 455.903,233.519 456.567,198.145 457.231,190.716 457.895,204.979 458.559,197.9 459.223,221.234 459.887,237.932 460.551,211.813 461.215,229.465 461.878,276.958 462.542,208.706 463.206,240.91 463.87,277.352 464.534,179.538 465.198,192.257 465.862,245.676 466.526,244.24 467.19,241.731 467.854,301.265 468.518,244.202 469.182,260.813 469.846,204.413 470.51,230.397 471.174,228.751 471.838,243.442 472.501,215.454 473.165,207.711 473.829,212.723 474.493,223.705 475.157,241.673 475.821,264.456 476.485,330.127 477.149,301.699 477.813,367.883 478.477,250.287 479.141,223.837 479.805,904.999 480.469,294.814 481.133,317.5 481.797,298.866 482.461,265.268 483.124,227.346 483.788,291.615 484.452,224.321 485.116,269.213 485.78,271.475 486.444,253.765 487.108,292.948 487.772,238.213 488.436,199.106 489.1,263.244 489.764,211.183 490.428,268.088 491.092,265.042 491.756,234.544 492.42,163.812 493.084,281.856 493.748,279.405 494.411,215.717 495.075,222.348 495.739,225.056 496.403,162.088 497.067,192.807 497.731,239.741 498.395,279.192 499.059,371.481 499.723,294.793 500.387,277.143 501.051,212.157 501.715,262.419 502.379,211.575 503.043,237.389 503.707,227.231 504.371,210.161 505.034,205.105 505.698,130.215 506.362,193.032 507.026,206.671 507.69,211.839 508.354,228.663 509.018,214.873 509.682,262.648 510.346,275.55 511.01,179.383 511.674,265.833 512.338,335.934 513.002,188.928 513.666,209.195 514.33,218.455 514.994,244.551 515.657,296.32 516.321,321.276 516.985,365.001 517.649,321.272 518.313,339.134 518.977,462.227 519.641,407.824 520.305,323.85 520.969,373.721 521.633,350.083 522.297,299.634 522.961,300.504 523.625,335.636 524.289,239.85 524.953,325.157 525.617,307.212 526.281,267.317 526.944,316.564 527.608,296.391 528.272,291.069 528.936,278.321 529.6,291.926 530.264,220.505 530.928,229.333 531.592,267.78 532.256,324.675 532.92,292.225 533.584,264.906 534.248,299.153 534.912,317.42 535.576,281.521 536.24,281.198 536.904,315.16 537.567,277.062 538.231,274.447 538.895,237.19 539.559,263.344 540.223,259.888 540.887,260.064 541.551,248.477 542.215,221.636 542.879,255.539 543.543,267.505 544.207,247.063 544.871,231.88 545.535,245.007 546.199,265.733 546.863,263.154 547.527,223.046 548.19,185.859 548.854,203.447 549.518,249.135 550.182,276.746 550.846,215.656 551.51,305.175 552.174,417.164 552.838,248.877 553.502,260.06 554.166,236.325 554.83,248.57 555.494,266.808 556.158,211.952 556.822,170.673 557.486,220.535 558.15,246.474 558.813,259.653 559.477,373.487 560.141,204.075 560.805,231.112 561.469,267.962 562.133,359.867 562.797,165.768 563.461,116.229 564.125,240.745 564.789,237.976 565.453,232.727 566.117,222.007 566.781,195.408 567.445,257.622 568.109,177.914 568.773,225.915 569.437,233.636 570.1,211.484 570.764,244.469 571.428,230.749 572.092,198.093 572.756,287.341 573.42,467.531 574.084,249.722 574.748,203.885 575.412,193.789 576.076,185.472 576.74,221.463 577.404,214.856 578.068,218.713 578.732,238.649 579.396,247.429 580.06,218.759 580.723,239.623 581.387,184.791 582.051,175.348 582.715,310.504 583.379,167.998 584.043,183.686 584.707,332.74 585.371,208.219 586.035,245.095 586.699,204.683 587.363,227.589 588.027,224.073 588.691,211.161 589.355,242.494 590.019,213.991 590.683,212.953 591.346,183.976 592.01,280.421 592.674,229.048 593.338,299.817 594.002,205.111 594.666,209.795 595.33,291.665 595.994,213.76 596.658,191.205 597.322,169.933 597.986,299.491 598.65,168.785 599.314,197.612 599.978,356.697 600.642,413.177 601.306,387.515 601.97,191.153 602.633,235.422 603.297,202.083 603.961,177.488 604.625,233.796 605.289,223.492 605.953,273.262 606.617,232.499 607.281,185.481 607.945,180.984 608.609,233.75 609.273,231.104 609.937,253.24 610.601,196.17 611.265,435.224 611.929,789.345 612.593,1038.21 613.256,587.218 613.92,340.939 614.584,305.973 615.248,333.281 615.912,361.512 616.576,305.583 617.24,332.522 617.904,329.268 618.568,310.602 619.232,311.533 619.896,367.645 620.56,386.205 621.224,315.08 621.888,360.77 622.552,284.017 623.216,295.727 623.879,295.197 624.543,295.73 625.207,358.853 625.871,300.552 626.535,288.879 627.199,307.961 627.863,304.463 628.527,239.34 629.191,339.1 629.855,270.377 630.519,216.282 631.183,228.792 631.847,282.301 632.511,168.442 633.175,285.669 633.839,305.717 634.503,311.436 635.166,260.087 635.83,322.058 636.494,248.622 637.158,287.036 637.822,264.866 638.486,245.297 639.15,236.115 639.814,226.788 640.478,274.774 641.142,294.952 641.806,186.035 642.47,257.209 643.134,273.12 643.798,207.046 644.462,231.173 645.126,243.007 645.789,256.385 646.453,256.295 647.117,226.383 647.781,223.655 648.445,237.165 649.109,249.255 649.773,259.096 650.437,237.549 651.101,270.326 651.765,241.43 652.429,225.63 653.093,236.373 653.757,226.589 654.421,228.036 655.085,220.236 655.749,280.914 656.412,227.685 657.076,266.006 657.74,274.547 658.404,250.971 659.068,236.91 659.732,227.496 660.396,264.547 661.06,236.451 661.724,304.414 662.388,253.532 663.052,230.175 663.716,167.592 664.38,294.641 665.044,284.284 665.708,233.541 666.372,239.914 667.036,209.506 667.699,228.152 668.363,237.95 669.027,193.734 669.691,229.016 670.355,253.56 671.019,214.715 671.683,246.436 672.347,187.287 673.011,184.209 673.675,225.438 674.339,227.044 675.003,256.826 675.667,252.971 676.331,206.537 676.995,210.941 677.659,235.805 678.322,234.59 678.986,310.152 679.65,238.101 680.314,239.013 680.978,231.807 681.642,201.423 682.306,315.492 682.97,374.746 683.634,185.228 684.298,265.664 684.962,189.781 685.626,192.187 686.29,284.09 686.954,276.074 687.618,217.15 688.282,217.754 688.945,286.578 689.609,224.929 690.273,211.926 690.937,182.955 691.601,232.179 692.265,260.37 692.929,239.09 693.593,233.689 694.257,272.051 694.921,220.787 695.585,162.564 696.249,318.41 696.913,406.911 697.577,372.152 698.241,305.23 698.905,219.506 699.569,225.383 700.232,299.635 700.896,219.802 701.56,384.935 702.224,191.085 702.888,251.646 703.552,200.322 704.216,262.23 704.88,240.861 705.544,212.233 706.208,208.119 706.872,239.083 707.536,220.281 708.2,210.068 708.864,218.754 709.528,177.233 710.192,186.655 710.855,226.689 711.519,321.482 712.183,351.05 712.847,231.733 713.511,289.705 714.175,317.394 714.839,238.85 715.503,267.105 716.167,337.405 716.831,227.703 717.495,252.491 718.159,251.674 718.823,145.891 719.487,281.372 720.151,207.932 720.815,220.148 721.478,232.481 722.142,302.312 722.806,183.122 723.47,241.865 724.134,177.47 724.798,430.247 725.462,260.164 726.126,233.985 726.79,267.362 727.454,184.891 728.118,197.114 728.782,270.141 729.446,255.334 730.11,206.997 730.774,244.331 731.438,204.219 732.101,225.297 732.765,203.597 733.429,176.356 734.093,249.749 734.757,151.53 735.421,348.414 736.085,195.309 736.749,213.845 737.413,236.687 738.077,288.123 738.741,237.372 739.405,217.17 740.069,281.436 740.733,223.196 741.397,240.719 742.061,205.193 742.725,209.968 743.388,254.068 744.052,212.235 744.716,206.951 745.38,266.139 746.044,235.929 746.708,200.929 747.372,222.785 748.036,214.422 748.7,214.381 749.364,239.289 750.028,298.077 750.692,222.896 751.356,188.709 752.02,189.221 752.684,198.936 753.348,179.273 754.011,347.619 754.675,194.281 755.339,212.253 756.003,210.588 756.667,223.925 757.331,251.19 757.995,249.574 758.659,244.022 759.323,255.846 759.987,207.215 760.651,251.489 761.315,281.978 761.979,320.983 762.643,237.388 763.307,197.804 763.971,282.275 764.634,484.904 765.298,224.581 765.962,228.859 766.626,193.906 767.29,232.29 767.954,194.953 768.618,229.973 769.282,238.353 769.946,271.913 770.61,170.45 771.274,197.788 771.938,315.967 772.602,280.208 773.266,219.911 773.93,195.018 774.594,215.816 775.258,118.918 775.921,259.156 776.585,223.862 777.249,180.924 777.913,208.15 778.577,206.978 779.241,213.021 779.905,198.5 780.569,191.445 781.233,183.775 781.897,167.284 782.561,222.409 783.225,214.859 783.889,205.387 784.553,224.101 785.217,250.614 785.881,214.134 786.544,208.251 787.208,216.1 787.872,197.426 788.536,224.259 789.2,203.882 789.864,203.211 790.528,202.634 791.192,155.556 791.856,216.954 792.52,207.52 793.184,177.009 793.848,234.299 794.512,166.158 795.176,292.227 795.84,288.661 796.504,224.262 797.167,213.84 797.831,204.969 798.495,185.919 799.159,217.859 799.823,158.645 800.487,235.243 801.151,387.799 801.815,199.169 802.479,211.636 803.143,220.187 803.807,230.845 804.471,200.735 805.135,208.496 805.799,227.936 806.463,199.149 807.127,212.391 807.791,220.648 808.454,202.534 809.118,275.753 809.782,173.954 810.446,157.685 811.11,180.542 811.774,182.81 812.438,181.108 813.102,202.524 813.766,184.58 814.43,202.581 815.094,242.438 815.758,261.652 816.422,252.091 817.086,349.666 817.75,479.928 818.414,251.38 819.077,227.662 819.741,206.839 820.405,205.394 821.069,226.887 821.733,136.348 822.397,337.368 823.061,192.045 823.725,256.382 824.389,186.891 825.053,245.248 825.717,184.162 826.381,150.011 827.045,180.921 827.709,182.132 828.373,196.477 829.037,179.194 829.7,177.77 830.364,189.61 831.028,196.284 831.692,201.108 832.356,194.844 833.02,215.99 833.684,260.9 834.348,271.119 835.012,212.181 835.676,287.701 836.34,187.115 837.004,171.727 837.668,178.561 838.332,307.188 838.996,292.297 839.66,219.147 840.324,219.931 840.987,177.518 841.651,227.63 842.315,190.081 842.979,339.653 843.643,213.402 844.307,210.227 844.971,168.485 845.635,221.492 846.299,193.636 846.963,183.239 847.627,226.862 848.291,212.84 848.955,244.121 849.619,197.847 850.283,232.373 850.947,187.385 851.61,217.718 852.274,249.682 852.938,193.207 853.602,206.098 854.266,191.03 854.93,79.2258 855.594,249.993 856.258,215.288 856.922,266.973 857.586,221.899 858.25,225.775 858.914,158.629 859.578,226.895 860.242,188.614 860.906,215.734 861.57,188.758 862.233,238.695 862.897,203.356 863.561,193.568 864.225,230.652 864.889,209.482 865.553,200.151 866.217,181.561 866.881,165.029 867.545,146.328 868.209,369.376 868.873,315.005 869.537,252.749 870.201,211.103 870.865,768.733 871.529,303.496 872.193,307.872 872.856,177.805 873.52,190.061 874.184,154.312 874.848,238.017 875.512,206.917 876.176,251.998 876.84,265.653 877.504,232.344 878.168,247.217 878.832,252.757 879.496,244.593 880.16,212.468 880.824,211.083 881.488,179.434 882.152,190.079 882.816,165.02 883.48,255.349 884.143,227.453 884.807,147.726 885.471,243.63 886.135,193.808 886.799,182.994 887.463,201.708 888.127,191.609 888.791,204.352 889.455,245.622 890.119,209.135 890.783,200.083 891.447,336.334 892.111,253.561 892.775,206.741 893.439,280.73 894.103,254.665 894.766,245.603 895.43,260.302 896.094,193.126 896.758,221.76 897.422,245.184 898.086,229.606 898.75,237.458 899.414,268.356 900.078,215.364 900.742,196.915 901.406,180.409 902.07,248.702 902.734,226.379 903.398,219.813 904.062,211.504 904.726,206.891 905.389,187.894 906.053,282.491 906.717,221.218 907.381,233.742 908.045,179.985 908.709,187.404 909.373,217.358 910.037,253.291 910.701,281.185 911.365,200.797 912.029,207.747 912.693,190.703 913.357,184.422 914.021,227.622 914.685,224.941 915.349,202.356 916.013,160.224 916.676,236.449 917.34,226.326 918.004,200.404 918.668,273.973 919.332,232.387 919.996,220.97 920.66,213.841 921.324,174.07 921.988,215.131 922.652,201.674 923.316,290.525 923.98,217.741 924.644,174.003 925.308,160.735 925.972,260.832 926.636,186.297 927.299,258.269 927.963,199.36 928.627,164.087 929.291,186.483 929.955,217.381 930.619,207.866 931.283,232.259 931.947,178.068 932.611,163.077 933.275,231.344 933.939,216.453 934.603,197.539 935.267,223.241 935.931,210.383 936.595,212.904 937.259,196.889 937.922,223.965 938.586,217.563 939.25,254.377 939.914,227.85 940.578,209.249 941.242,192.469 941.906,187.217 942.57,213.768 943.234,207.314 943.898,211.42 944.562,200.491 945.226,198.035 945.89,211.718 946.554,164.186 947.218,268.14 947.882,214.961 948.546,153.633 949.209,117.389 949.873,241.551 950.537,226.351 951.201,233.19 951.865,224.307 952.529,168.057 953.193,184.708 953.857,163.646 954.521,194.258 955.185,222.946 955.849,245.942 956.513,237.019 957.177,266.397 957.841,210.053 958.505,238.017 959.169,194.047 959.832,194.133 960.496,184.063 961.16,285.587 961.824,211.06 962.488,224.485 963.152,202.237 963.816,176.538 964.48,196.975 965.144,224.412 965.808,194.576 966.472,218.921 967.136,200.361 967.8,202.272 968.464,191.039 969.128,206.476 969.792,198.3 970.455,209.259 971.119,214.806 971.783,214.295 972.447,160.297 973.111,197.63 973.775,208.925 974.439,249.998 975.103,217.648 975.767,275.499 976.431,197.795 977.095,203.994 977.759,131.415 978.423,424.645 979.087,300.222 979.751,233.441 980.415,210.082 981.079,203.404 981.742,238.791 982.406,177.233 983.07,216.932 983.734,185.444 984.398,278.636 985.062,485.772 985.726,97.747 986.39,266.324 987.054,199.167 987.718,230.868 988.382,201.586 989.046,184.818 989.71,192.828 990.374,208.797 991.038,202.101 991.702,211.254 992.365,185.814 993.029,184.489 993.693,256.208 994.357,199.909 995.021,224.169 995.685,200.18 996.349,446.396 997.013,171.13 997.677,212.067 998.341,219.446 999.005,279.524 999.669,275.745 1000.33,186.943 1001,211.664 1001.66,253.447 1002.32,237.937 1002.99,214.496 1003.65,261.132 1004.32,187.681 1004.98,256.047 1005.64,313.745 1006.31,239.939 1006.97,184.387 1007.64,176.355 1008.3,162.598 1008.96,217.044 1009.63,206.92 1010.29,189.453 1010.96,287.15 1011.62,163.575 1012.28,1039.08 1012.95,2149.06 1013.61,944.435 1014.28,1107.79 1014.94,740.125 1015.6,682.863 1016.27,536.274 1016.93,507.466 1017.6,386.89 1018.26,364.959 1018.92,337.638 1019.59,282.009 1020.25,235.265 1020.91,277.493 1021.58,266.451 1022.24,238.743 1022.91,280.973 1023.57,263.9 1024.23,270.35 1024.9,269.15 1025.56,519.885 1026.23,321.872 1026.89,206.934 1027.55,268.365 1028.22,236.035 1028.88,255.011 1029.55,271.284 1030.21,207.224 1030.87,192.958 1031.54,219.342 1032.2,223.664 1032.87,295.221 1033.53,163.485 1034.19,201.817 1034.86,205.701 1035.52,253.214 1036.19,239.708 1036.85,199.058 1037.51,263.041 1038.18,214.808 1038.84,206.628 1039.51,254.139 1040.17,80.3729 1040.83,243.06 1041.5,263.429 1042.16,224.803 1042.82,256.529 1043.49,248.749 1044.15,259.521 1044.82,179.101 1045.48,243.514 1046.14,206.862 1046.81,194.77 1047.47,116.647 1048.14,210.938 1048.8,246.858 1049.46,229.222 1050.13,183.973 1050.79,343.569 1051.46,207.963 1052.12,202.759 1052.78,203.895 1053.45,218.119 1054.11,195.274 1054.78,229.959 1055.44,191.403 1056.1,230.116 1056.77,194.833 1057.43,206.012 1058.1,210.34 1058.76,222.921 1059.42,212.791 1060.09,202.462 1060.75,203.593 1061.42,176.87 1062.08,182.418 1062.74,270.173 1063.41,249.531 1064.07,214.085 1064.73,176.175 1065.4,268.138 1066.06,296.102 1066.73,194.222 1067.39,165.961 1068.05,208.556 1068.72,181.117 1069.38,197.906 1070.05,155.738 1070.71,211.688 1071.37,181.563 1072.04,151.737 1072.7,398.009 1073.37,271.679 1074.03,211.535 1074.69,222.31 1075.36,198.941 1076.02,274.132 1076.69,237.845 1077.35,167.563 1078.01,208.713 1078.68,231.623 1079.34,261.512 1080.01,289.495 1080.67,234.863 1081.33,152.231 1082,241.066 1082.66,226.131 1083.33,239.939 1083.99,221.03 1084.65,220.825 1085.32,199.636 1085.98,216.99 1086.64,197.627 1087.31,179.204 1087.97,213.882 1088.64,171.301 1089.3,150.974 1089.96,223.003 1090.63,265.929 1091.29,175.849 1091.96,143.01 1092.62,179.273 1093.28,206.444 1093.95,218.387 1094.61,202.183 1095.28,252.591 1095.94,253.592 1096.6,272.925 1097.27,250.669 1097.93,185.917 1098.6,221.502 1099.26,209.952 1099.92,180.086 1100.59,154.994 1101.25,207.47 1101.92,166.004 1102.58,227.665 1103.24,159.923 1103.91,199.911 1104.57,233.987 1105.24,226.498 1105.9,242.815 1106.56,181.236 1107.23,214.072 1107.89,191.698 1108.55,184.347 1109.22,237.915 1109.88,178.709 1110.55,204.341 1111.21,189.242 1111.87,186.621 1112.54,231.29 1113.2,225.591 1113.87,230.494 1114.53,200.03 1115.19,171.127 1115.86,203.63 1116.52,202.547 1117.19,217.304 1117.85,200.578 1118.51,182.089 1119.18,217.289 1119.84,204.922 1120.51,209.589 1121.17,194.068 1121.83,221.728 1122.5,158.79 1123.16,166.76 1123.83,181.465 1124.49,248.857 1125.15,270.342 1125.82,223.254 1126.48,208.83 1127.15,208.528 1127.81,219.228 1128.47,266.067 1129.14,194.674 1129.8,218.324 1130.46,324.912 1131.13,261.454 1131.79,895.489 1132.46,218.537 1133.12,212.968 1133.78,197.875 1134.45,228.807 1135.11,198.828 1135.78,269.534 1136.44,227.721 1137.1,266.611 1137.77,241.839 1138.43,225.399 1139.1,202.569 1139.76,216.174 1140.42,211.134 1141.09,265.776 1141.75,152.895 1142.42,233.419 1143.08,214.176 1143.74,293.309 1144.41,260.409 1145.07,212.555 1145.74,253.848 1146.4,215.298 1147.06,242.074 1147.73,199.827 1148.39,252.056 1149.05,251.512 1149.72,230.166 1150.38,234.431 1151.05,224.855 1151.71,230.501 1152.37,232.083 1153.04,241.563 1153.7,218.492 1154.37,200.5 1155.03,247.668 1155.69,197.672 1156.36,165.405 1157.02,176.216 1157.69,241.156 1158.35,222.025 1159.01,210.813 1159.68,255.216 1160.34,193.624 1161.01,150.045 1161.67,179.705 1162.33,182.98 1163,229.766 1163.66,206.978 1164.33,161.611 1164.99,240.044 1165.65,244.076 1166.32,203.632 1166.98,200.802 1167.65,196.877 1168.31,262.407 1168.97,212.81 1169.64,200.591 1170.3,224.526 1170.96,145.934 1171.63,201.004 1172.29,283.617 1172.96,224.644 1173.62,177.241 1174.28,142.314 1174.95,200.182 1175.61,228.926 1176.28,201.176 1176.94,231.053 1177.6,182.301 1178.27,191.471 1178.93,204.068 1179.6,186.214 1180.26,239.708 1180.92,205.97 1181.59,166.447 1182.25,134.336 1182.92,206.734 1183.58,169.743 1184.24,303.716 1184.91,241.768 1185.57,200.716 1186.24,202.137 1186.9,254.522 1187.56,213.053 1188.23,175.742 1188.89,267.22 1189.56,408.844 1190.22,167.036 1190.88,171.242 1191.55,143.915 1192.21,458.815 1192.87,385.453 1193.54,322.997 1194.2,209.022 1194.87,228.603 1195.53,184.441 1196.19,216.064 1196.86,226.999 1197.52,227.678 1198.19,219.413 1198.85,218.048 1199.51,218.172 1200.18,204.901 1200.84,195.646 1201.51,200.291 1202.17,195.331 1202.83,247.408 1203.5,223.117 1204.16,204.907 1204.83,224.598 1205.49,235.342 1206.15,255.312 1206.82,225.193 1207.48,174.939 1208.15,168.617 1208.81,209.5 1209.47,230.824 1210.14,207.468 1210.8,176.059 1211.47,217.15 1212.13,212.577 1212.79,215.465 1213.46,185.571 1214.12,194.232 1214.78,213.206 1215.45,228.267 1216.11,126.55 1216.78,235.277 1217.44,180.928 1218.1,319.783 1218.77,387.682 1219.43,241.507 1220.1,218.154 1220.76,213.647 1221.42,209.281 1222.09,179.188 1222.75,227.163 1223.42,208.247 1224.08,217.243 1224.74,212.774 1225.41,194.029 1226.07,224.366 1226.74,202 1227.4,204.761 1228.06,175.077 1228.73,191.079 1229.39,242.726 1230.06,222.788 1230.72,244.707 1231.38,208.019 1232.05,205.916 1232.71,170.235 1233.38,173.589 1234.04,218.255 1234.7,216.444 1235.37,227.764 1236.03,204.44 1236.69,222.686 1237.36,209.058 1238.02,206.311 1238.69,227.036 1239.35,231.128 1240.01,242.116 1240.68,201.629 1241.34,234.374 1242.01,219.264 1242.67,200.596 1243.33,213.396 1244,238.119 1244.66,224.502 1245.33,181.715 1245.99,165.166 1246.65,196.386 1247.32,251.506 1247.98,231.33 1248.65,194.712 1249.31,197.788 1249.97,205.3 1250.64,216.702 1251.3,205.202 1251.97,271.676 1252.63,195.433 1253.29,212.403 1253.96,198.036 1254.62,192.577 1255.29,234.709 1255.95,217.792 1256.61,230.369 1257.28,231.292 1257.94,223.486 1258.6,197.711 1259.27,209.313 1259.93,206.409 1260.6,176.9 1261.26,251.45 1261.92,167.154 1262.59,213.984 1263.25,226.231 1263.92,252.468 1264.58,191.072 1265.24,204.494 1265.91,198.158 1266.57,133.272 1267.24,188.616 1267.9,180.346 1268.56,209.48 1269.23,244.535 1269.89,216.169 1270.56,219.459 1271.22,187.548 1271.88,216.163 1272.55,211.009 1273.21,163.184 1273.88,198.633 1274.54,159.296 1275.2,228.358 1275.87,187.249 1276.53,209.765 1277.2,100.421 1277.86,295.576 1278.52,183.432 1279.19,248.56 1279.85,186.182 1280.51,219.276 1281.18,136.385 1281.84,240.391 1282.51,245.186 1283.17,254.822 1283.83,194.419 1284.5,207.344 1285.16,165.659 1285.83,176.838 1286.49,197.258 1287.15,208.034 1287.82,206.63 1288.48,189.859 1289.15,212.87 1289.81,203.096 1290.47,206.618 1291.14,218.569 1291.8,182.648 1292.47,228.742 1293.13,193.978 1293.79,186.536 1294.46,301.062 1295.12,602.697 1295.79,298.726 1296.45,228.507 1297.11,245.396 1297.78,197.2 1298.44,180.532 1299.11,242.013 1299.77,242.814 1300.43,164.025 1301.1,265.311 1301.76,207.726 1302.42,207.576 1303.09,230.066 1303.75,198.316 1304.42,201.732 1305.08,195.106 1305.74,215.419 1306.41,217.571 1307.07,217.912 1307.74,187.4 1308.4,198.593 1309.06,172.658 1309.73,219.454 1310.39,177.379 1311.06,216.738 1311.72,189.874 1312.38,211.001 1313.05,207.516 1313.71,218.493 1314.38,261.926 1315.04,262.971 1315.7,200.684 1316.37,165.743 1317.03,206.429 1317.7,214.465 1318.36,219.151 1319.02,247.233 1319.69,171.73 1320.35,242.49 1321.02,215.791 1321.68,149.12 1322.34,197.954 1323.01,206.1 1323.67,215.758 1324.33,196.686 1325,205.212 1325.66,216.39 1326.33,205.847 1326.99,192.708 1327.65,209.489 1328.32,189.157 1328.98,222.997 1329.65,203.747 1330.31,186.636 1330.97,199.82 1331.64,211.114 1332.3,201.747 1332.97,175.748 1333.63,222.023 1334.29,205.296 1334.96,230.24 1335.62,139.649 1336.29,235.179 1336.95,204.504 1337.61,437.594 1338.28,211.363 1338.94,176.214 1339.61,229.514 1340.27,198.22 1340.93,215.115 1341.6,229.421 1342.26,233.661 1342.93,216.129 1343.59,214.904 1344.25,108.633 1344.92,210.752 1345.58,222.133 1346.24,197.094 1346.91,160.247 1347.57,177.758 1348.24,275.186 1348.9,209.551 1349.56,234.292 1350.23,221.533 1350.89,172.88 1351.56,213.4 1352.22,210.571 1352.88,230.54 1353.55,225.125 1354.21,209.016 1354.88,174.587 1355.54,203.237 1356.2,184.512 1356.87,205.69 1357.53,215.529 1358.2,252.683 1358.86,244.612 1359.52,305.024 1360.19,202.998 1360.85,187.81 1361.52,207.359 1362.18,206.769 1362.84,192.561 1363.51,207.951 1364.17,240.33 1364.84,200.547 1365.5,187.8 1366.16,267.664 1366.83,195.342 1367.49,203.434 1368.15,194.774 1368.82,193.85 1369.48,194.45 1370.15,213.543 1370.81,217.173 1371.47,229.703 1372.14,211.331 1372.8,227.941 1373.47,202.06 1374.13,181.769 1374.79,249.231 1375.46,191.69 1376.12,239.725 1376.79,216.699 1377.45,196.886 1378.11,159.899 1378.78,201.541 1379.44,215.747 1380.11,174.108 1380.77,196.536 1381.43,239.144 1382.1,201.759 1382.76,319.954 1383.43,208.902 1384.09,196.284 1384.75,222.166 1385.42,183.23 1386.08,196.235 1386.75,169.468 1387.41,256.08 1388.07,287.619 1388.74,201.04 1389.4,231.093 1390.06,141.305 1390.73,201.435 1391.39,234.209 1392.06,214.123 1392.72,170.388 1393.38,174.542 1394.05,213.175 1394.71,213.828 1395.38,217.23 1396.04,249.329 1396.7,203.279 1397.37,188.599 1398.03,180.191 1398.7,189.684 1399.36,230.12 1400.02,205.49 1400.69,206.312 1401.35,191.152 1402.02,213.681 1402.68,210.637 1403.34,216.402 1404.01,200.115 1404.67,206.606 1405.34,211.632 1406,214.977 1406.66,182.028 1407.33,208.523 1407.99,244.928 1408.66,193.498 1409.32,198.885 1409.98,191.187 1410.65,212.573 1411.31,265.161 1411.97,222.875 1412.64,190.556 1413.3,186.239 1413.97,192.782 1414.63,218.54 1415.29,191.607 1415.96,186.512 1416.62,183.003 1417.29,230.465 1417.95,212.762 1418.61,201.299 1419.28,188.597 1419.94,171.966 1420.61,274.874 1421.27,208.279 1421.93,330.565 1422.6,186.241 1423.26,166.988 1423.93,161.52 1424.59,214.588 1425.25,247.902 1425.92,298.634 1426.58,211.644 1427.25,211.366 1427.91,175.465 1428.57,189.012 1429.24,207.033 1429.9,200.149 1430.56,169.54 1431.23,193.218 1431.89,180.546 1432.56,184.728 1433.22,171.03 1433.88,146.8 1434.55,212.978 1435.21,196.156 1435.88,169.495 1436.54,176.881 1437.2,215.04 1437.87,150.342 1438.53,196.204 1439.2,164.447 1439.86,474.49 1440.52,195.366 1441.19,222.088 1441.85,255.765 1442.52,197.338 1443.18,216.637 1443.84,141.799 1444.51,242.605 1445.17,201.948 1445.84,216.493 1446.5,206.794 1447.16,209.215 1447.83,195.386 1448.49,220.486 1449.16,193.122 1449.82,169.134 1450.48,127.836 1451.15,215.022 1451.81,208.544 1452.47,189.662 1453.14,204.253 1453.8,176.799 1454.47,212.037 1455.13,198.656 1455.79,229.132 1456.46,239.614 1457.12,213.592 1457.79,239.131 1458.45,220.417 1459.11,207.786 1459.78,203.387 1460.44,211.011 1461.11,176.632 1461.77,241.342 1462.43,197.324 1463.1,202.013 1463.76,165.409 1464.43,205.481 1465.09,198.685 1465.75,220.612 1466.42,169.879 1467.08,196.83 1467.75,146.883 1468.41,216.56 1469.07,181.027 1469.74,218.827 1470.4,200.381 1471.07,266.577 1471.73,189.424 1472.39,248.931 1473.06,320.643 1473.72,224.754 1474.38,258.207 1475.05,199.985 1475.71,198.706 1476.38,119.818 1477.04,263.877 1477.7,208.141 1478.37,266.318 1479.03,220.572 1479.7,165.544 1480.36,221.752 1481.02,217.905 1481.69,218.65 1482.35,219.154 1483.02,240.474 1483.68,225.571 1484.34,219.846 1485.01,197.617 1485.67,124.431 1486.34,204.746 1487,205.518 1487.66,203.628 1488.33,155.753 1488.99,213.117 1489.66,214.918 1490.32,222.484 1490.98,179.301 1491.65,191.311 1492.31,193.855 1492.98,174.508 1493.64,298.125 1494.3,244.152 1494.97,313.667 1495.63,237.922 1496.29,182.727 1496.96,163.789 1497.62,201.931 1498.29,192.999 1498.95,141.921 1499.61,199.98 1500.28,226.276 1500.94,185.778 1501.61,206.666 1502.27,222.508 1502.93,219.127 1503.6,188.134 1504.26,206.322 1504.93,183.062 1505.59,215.552 1506.25,201.289 1506.92,213.611 1507.58,196.188 1508.25,193.501 1508.91,146.991 1509.57,302.294 1510.24,201.542 1510.9,195.08 1511.57,176.461 1512.23,178.803 1512.89,195.984 1513.56,206.84 1514.22,213.613 1514.89,208.905 1515.55,212.344 1516.21,220.119 1516.88,237.064 1517.54,147.108 1518.2,226.855 1518.87,213.981 1519.53,213.051 1520.2,169.686 1520.86,257.914 1521.52,216.252 1522.19,213.087 1522.85,346.226 1523.52,186.545 1524.18,217.477 1524.84,202.961 1525.51,201.327 1526.17,203.479 1526.84,195.059 1527.5,196.572 1528.16,215.014 1528.83,285.693 1529.49,219.401 1530.16,180.324 1530.82,215.431 1531.48,168.157 1532.15,220.245 1532.81,218.178 1533.48,178.771 1534.14,206.024 1534.8,183.747 1535.47,212.076 1536.13,359.051 1536.8,312.5 1537.46,248.657 1538.12,206.699 1538.79,217.98 1539.45,213.495 1540.11,208.356 1540.78,158.282 1541.44,204.965 1542.11,184.461 1542.77,174.652 1543.43,243.294 1544.1,199.398 1544.76,227.212 1545.43,186.113 1546.09,276.427 1546.75,239.201 1547.42,232.051 1548.08,233.459 1548.75,193.112 1549.41,219.592 1550.07,197.907 1550.74,200.547 1551.4,204.478 1552.07,202.809 1552.73,182.93 1553.39,201.377 1554.06,192.503 1554.72,229.172 1555.39,200.226 1556.05,169.232 1556.71,191.845 1557.38,202.382 1558.04,215.878 1558.71,202.517 1559.37,273.47 1560.03,200.306 1560.7,245.749 1561.36,237.008 1562.02,133.264 1562.69,133.744 1563.35,185.618 1564.02,191.339 1564.68,256.397 1565.34,235.12 1566.01,214.821 1566.67,223.949 1567.34,220.052 1568,200.395 1568.66,223.414 1569.33,175.085 1569.99,206.452 1570.66,142.955 1571.32,241.432 1571.98,170.728 1572.65,203.916 1573.31,340.569 1573.98,221.67 1574.64,208.763 1575.3,255.394 1575.97,167.528 1576.63,207.28 1577.3,228.658 1577.96,206.583 1578.62,203.515 1579.29,212.188 1579.95,195.521 1580.62,209.731 1581.28,195.948 1581.94,261.472 1582.61,209.921 1583.27,217.833 1583.93,185.038 1584.6,231.582 1585.26,209.771 1585.93,188.619 1586.59,244.631 1587.25,268.677 1587.92,142.954 1588.58,186.754 1589.25,178.141 1589.91,163.171 1590.57,177.81 1591.24,191.344 1591.9,191.362 1592.57,213.028 1593.23,196.323 1593.89,187.668 1594.56,218.869 1595.22,238.718 1595.89,231.356 1596.55,202.072 1597.21,300.255 1597.88,158.028 1598.54,216.176 1599.21,176.508 1599.87,168.895 1600.53,247.694 1601.2,184.981 1601.86,260.063 1602.53,211.655 1603.19,181.181 1603.85,234.543 1604.52,209.9 1605.18,244.117 1605.84,196.62 1606.51,163.08 1607.17,202.228 1607.84,195.846 1608.5,238.622 1609.16,214.84 1609.83,241.011 1610.49,194.661 1611.16,200.537 1611.82,177.903 1612.48,234.736 1613.15,169.042 1613.81,278.241 1614.48,204.358 1615.14,193.374 1615.8,202.783 1616.47,190.869 1617.13,188.472 1617.8,185.366 1618.46,198.919 1619.12,209.431 1619.79,187.934 1620.45,277.646 1621.12,248.882 1621.78,208.912 1622.44,189.932 1623.11,179.948 1623.77,224.427 1624.44,209.766 1625.1,198.408 1625.76,181.135 1626.43,251.67 1627.09,191.62 1627.75,282.019 1628.42,210.942 1629.08,193.641 1629.75,202.482 1630.41,206.865 1631.07,207.366 1631.74,230.583 1632.4,201.402 1633.07,199.223 1633.73,206.641 1634.39,183.714 1635.06,183.679 1635.72,212.673 1636.39,163.274 1637.05,219.816 1637.71,192.666 1638.38,206.337 1639.04,206.01 1639.71,184.16 1640.37,188.53 1641.03,211.432 1641.7,193.454 1642.36,197.499 1643.03,220.437 1643.69,209.174 1644.35,201.997 1645.02,181.466 1645.68,194.451 1646.35,200.455 1647.01,206.523 1647.67,146.199 1648.34,223.266 1649,199.448 1649.66,201.242 1650.33,175.716 1650.99,190.916 1651.66,195.382 1652.32,298.341 1652.98,225.914 1653.65,215.682 1654.31,204.492 1654.98,174.718 1655.64,198.243 1656.3,220.657 1656.97,219.1 1657.63,222.844 1658.3,160.779 1658.96,177.105 1659.62,181.59 1660.29,192.686 1660.95,245.382 1661.62,212.067 1662.28,208.432 1662.94,201.208 1663.61,191.768 1664.27,176.899 1664.94,200.119 1665.6,183.322 1666.26,201.225 1666.93,204.505 1667.59,171.202 1668.26,184.871 1668.92,152.089 1669.58,215.233 1670.25,179.241 1670.91,192.29 1671.57,162.972 1672.24,178.639 1672.9,251.383 1673.57,191.922 1674.23,148.917 1674.89,283.007 1675.56,196.095 1676.22,242.012 1676.89,210.03 1677.55,167.422 1678.21,211.502 1678.88,187.389 1679.54,193.967 1680.21,192.238 1680.87,209.079 1681.53,198.803 1682.2,205.462 1682.86,214.398 1683.53,195.529 1684.19,177.565 1684.85,290.642 1685.52,200.487 1686.18,178.77 1686.85,203.395 1687.51,240.888 1688.17,197.63 1688.84,211.026 1689.5,184.518 1690.17,218.274 1690.83,182.844 1691.49,215.533 1692.16,217.268 1692.82,232.197 1693.48,265.28 1694.15,181.232 1694.81,159.495 1695.48,235.447 1696.14,193.55 1696.8,228.356 1697.47,196.386 1698.13,190.359 1698.8,199.877 1699.46,225.033 1700.12,197.156 1700.79,208.417 1701.45,204.357 1702.12,199.752 1702.78,192.979 1703.44,184.649 1704.11,240.327 1704.77,189.187 1705.44,219.339 1706.1,206.361 1706.76,216.351 1707.43,212.9 1708.09,191.709 1708.76,170.936 1709.42,227.034 1710.08,121.153 1710.75,221.914 1711.41,167.975 1712.07,194.755 1712.74,209.29 1713.4,181.896 1714.07,169.677 1714.73,218.056 1715.39,186.54 1716.06,213.541 1716.72,218.417 1717.39,202.957 1718.05,190.768 1718.71,187.344 1719.38,191.667 1720.04,194.987 1720.71,175.315 1721.37,211.071 1722.03,194.613 1722.7,224.482 1723.36,193.14 1724.03,231.3 1724.69,190.1 1725.35,172.226 1726.02,210.126 1726.68,202.899 1727.35,186.415 1728.01,195.207 1728.67,198.046 1729.34,194.248 1730,205.408 1730.67,190.13 1731.33,216.25 1731.99,179.104 1732.66,193.688 1733.32,180.294 1733.98,322.235 1734.65,185.384 1735.31,259.559 1735.98,249.6 1736.64,204.588 1737.3,179.894 1737.97,191.115 1738.63,216.905 1739.3,228.744 1739.96,192.962 1740.62,170.387 1741.29,205.515 1741.95,106.235 1742.62,179.878 1743.28,152.191 1743.94,274.489 1744.61,197.467 1745.27,252.615 1745.94,186.71 1746.6,176.823 1747.26,206.653 1747.93,225.606 1748.59,170.486 1749.26,183.59 1749.92,156.269 1750.58,259.488 1751.25,211.589 1751.91,171.258 1752.58,200.194 1753.24,188.701 1753.9,199.851 1754.57,190.059 1755.23,340.63 1755.89,732.973 1756.56,465.829 1757.22,302.575 1757.89,213.383 1758.55,300.324 1759.21,186.288 1759.88,192.109 1760.54,207.245 1761.21,200.206 1761.87,206.284 1762.53,78.2429 1763.2,218.468 1763.86,211.198 1764.53,187.59 1765.19,192.73 1765.85,199.933 1766.52,284.28 1767.18,222.762 1767.85,195.666 1768.51,185.107 1769.17,262.056 1769.84,213.96 1770.5,213.452 1771.17,189.563 1771.83,192.317 1772.49,178.469 1773.16,205.368 1773.82,206.702 1774.49,124.203 1775.15,188.289 1775.81,203.872 1776.48,208.106 1777.14,183.721 1777.8,233.66 1778.47,195.26 1779.13,197.742 1779.8,183.153 1780.46,208.544 1781.12,216.519 1781.79,208.047 1782.45,185.478 1783.12,249.499 1783.78,211.339 1784.44,222.539 1785.11,175.184 1785.77,199.793 1786.44,202.844 1787.1,202.08 1787.76,132.193 1788.43,211.206 1789.09,217.646 1789.76,186.777 1790.42,242.338 1791.08,184.652 1791.75,215.545 1792.41,213.011 1793.08,202.678 1793.74,214.999 1794.4,211.407 1795.07,179.568 1795.73,185.095 1796.4,183.465 1797.06,249.19 1797.72,203.168 1798.39,169.703 1799.05,171.612 1799.71,234.386 1800.38,196.112 1801.04,220.956 1801.71,179.181 1802.37,256.953 1803.03,191.293 1803.7,187.971 1804.36,204.439 1805.03,211.937 1805.69,207.632 1806.35,189.9 1807.02,205.572 1807.68,151.168 1808.35,234.155 1809.01,212.548 1809.67,195.835 1810.34,159.119 1811,215.188 1811.67,143.944 1812.33,196.892 1812.99,169.771 1813.66,218.28 1814.32,366.087 1814.99,203.468 1815.65,220.461 1816.31,203.187 1816.98,198.277 1817.64,186.496 1818.31,187.947 1818.97,222.175 1819.63,187.635 1820.3,236.43 1820.96,205.443 1821.62,213.687 1822.29,196.306 1822.95,215.882 1823.62,211.31 1824.28,235.56 1824.94,208.688 1825.61,205.407 1826.27,214.617 1826.94,202.055 1827.6,226.028 1828.26,218.187 1828.93,183.088 1829.59,227.34 1830.26,238.484 1830.92,256.454 1831.58,209.216 1832.25,198.431 1832.91,201.856 1833.58,218.426 1834.24,198.383 1834.9,251.997 1835.57,239.481 1836.23,198.531 1836.9,211.667 1837.56,201.372 1838.22,201.231 1838.89,206.689 1839.55,238.888 1840.22,188.799 1840.88,208.035 1841.54,194.958 1842.21,202.752 1842.87,156.955 1843.53,183.925 1844.2,212.318 1844.86,214.984 1845.53,189.391 1846.19,179.465 1846.85,211.269 1847.52,197.137 1848.18,145.041 1848.85,190.311 1849.51,202.789 1850.17,226.223 1850.84,176.724 1851.5,207.058 1852.17,203.101 1852.83,200.451 1853.49,221.913 1854.16,145.87 1854.82,198.059 1855.49,184.99 1856.15,180.156 1856.81,249.149 1857.48,210.519 1858.14,180.749 1858.81,197.923 1859.47,190.96 1860.13,47.2441 1860.8,232.902 1861.46,195.281 1862.13,212.168 1862.79,171.8 1863.45,185.094 1864.12,192.58 1864.78,313.061 1865.44,248.693 1866.11,244.713 1866.77,184.039 1867.44,250.567 1868.1,223.829 1868.76,192.36 1869.43,226.779 1870.09,281.846 1870.76,152.384 1871.42,224.331 1872.08,266.951 1872.75,233.972 1873.41,196.423 1874.08,250.337 1874.74,232.677 1875.4,213.645 1876.07,219.627 1876.73,206.14 1877.4,205.913 1878.06,165.752 1878.72,193.904 1879.39,188.436 1880.05,162.809 1880.72,219.348 1881.38,221.6 1882.04,213.856 1882.71,172.506 1883.37,267.555 1884.04,254.717 1884.7,218.395 1885.36,220.355 1886.03,159.923 1886.69,204.344 1887.35,204.577 1888.02,181.757 1888.68,223.043 1889.35,169.311 1890.01,180.61 1890.67,199.47 1891.34,210.946 1892,190.66 1892.67,207.174 1893.33,206.022 1893.99,208.803 1894.66,189.911 1895.32,211.212 1895.99,178.397 1896.65,182.134 1897.31,207.23 1897.98,216.339 1898.64,196.61 1899.31,266.654 1899.97,297.348 1900.63,202.787 1901.3,183.603 1901.96,210.696 1902.63,185.012 1903.29,187.463 1903.95,225.387 1904.62,201.06 1905.28,182.848 1905.95,203.054 1906.61,172.005 1907.27,210.063 1907.94,334.542 1908.6,189.599 1909.26,204.786 1909.93,208.859 1910.59,209.707 1911.26,214.621 1911.92,170.291 1912.58,202.828 1913.25,209.946 1913.91,203.712 1914.58,203.781 1915.24,198.626 1915.9,178.713 1916.57,202.095 1917.23,193.636 1917.9,194.585 1918.56,253.539 1919.22,192.949 1919.89,166.372 1920.55,203.273 1921.22,163.036 1921.88,193.75 1922.54,187.269 1923.21,180.803 1923.87,177.256 1924.54,156.441 1925.2,378.359 1925.86,371.427 1926.53,185.993 1927.19,263.204 1927.86,203.312 1928.52,177.817 1929.18,206.576 1929.85,226.988 1930.51,190.257 1931.17,215.517 1931.84,194.546 1932.5,196.17 1933.17,207.232 1933.83,189.156 1934.49,158.915 1935.16,296.599 1935.82,209.561 1936.49,299.175 1937.15,220.505 1937.81,259.027 1938.48,201.766 1939.14,174.088 1939.81,179.415 1940.47,182.563 1941.13,214.02 1941.8,166.214 1942.46,231.366 1943.13,228.44 1943.79,252.308 1944.45,166.974 1945.12,178.102 1945.78,206.877 1946.45,205.643 1947.11,208.48 1947.77,264.827 1948.44,227.236 1949.1,211.69 1949.77,214.519 1950.43,225.659 1951.09,213.713 1951.76,217.37 1952.42,255.991 1953.08,186.004 1953.75,233.075 1954.41,284.787 1955.08,237.685 1955.74,198.242 1956.4,167.368 1957.07,185.663 1957.73,190.057 1958.4,212.061 1959.06,226.278 1959.72,222.611 1960.39,206.903 1961.05,245.28 1961.72,211.238 1962.38,244.202 1963.04,187.886 1963.71,220.385 1964.37,209.485 1965.04,212.798 1965.7,191.355 1966.36,211.516 1967.03,202.404 1967.69,232.838 1968.36,244.411 1969.02,197.541 1969.68,258.015 1970.35,249.011 1971.01,221.533 1971.68,197.087 1972.34,197.098 1973,176.379 1973.67,189.208 1974.33,238.24 1974.99,192.506 1975.66,193.005 1976.32,229.104 1976.99,351.102 1977.65,235.138 1978.31,220.102 1978.98,195.769 1979.64,220.627 1980.31,183.538 1980.97,178.958 1981.63,190.112 1982.3,193.091 1982.96,211.12 1983.63,215.252 1984.29,217.787 1984.95,214.899 1985.62,219.771 1986.28,222.052 1986.95,201.399 1987.61,268.965 1988.27,218.683 1988.94,218.322 1989.6,206.764 1990.27,189.587 1990.93,178.077 1991.59,185.959 1992.26,200.401 1992.92,162.686 1993.58,244.21 1994.25,189.889 1994.91,214.471 1995.58,192.603 1996.24,209.861 1996.9,175.598 1997.57,165.045 1998.23,264.096 1998.9,149.564 1999.56,198.925 2000.22,188.858 2000.89,166.291 2001.55,178.72 2002.22,225.994 2002.88,217.65 2003.54,201.074 2004.21,236.369 2004.87,198.1 2005.54,239.895 2006.2,168.32 2006.86,193.858 2007.53,187.735 2008.19,195.116 2008.86,245.494 2009.52,199.224 2010.18,186.702 2010.85,204.663 2011.51,192.94 2012.18,147.934 2012.84,221.05 2013.5,202.085 2014.17,186.161 2014.83,261.882 2015.49,244.661 2016.16,160.69 2016.82,216.034 2017.49,209.659 2018.15,172.846 2018.81,164.771 2019.48,167.728 2020.14,239.812 2020.81,195.675 2021.47,185.38 2022.13,178.474 2022.8,206.55 2023.46,240.406 2024.13,348.213 2024.79,233.567 2025.45,246.689 2026.12,254.56 2026.78,258.014 2027.45,243.803 2028.11,208.373 2028.77,186.313 2029.44,229.776 2030.1,204.97 2030.77,223.762 2031.43,181.863 2032.09,227.503 2032.76,169.46 2033.42,296.493 2034.09,265.484 2034.75,224.243 2035.41,201.838 2036.08,198.761 2036.74,201.488 2037.4,334.071 2038.07,200.581 2038.73,234.859 2039.4,222.166 2040.06,195.32 2040.72,172.414 2041.39,141.883 2042.05,198.532 2042.72,195.262 2043.38,224.917 2044.04,203.839 2044.71,186.751 2045.37,225.753 2046.04,184.298 2046.7,200.452 2047.36,176.596 2048.03,214.56 2048.69,232.411 2049.36,209.709 2050.02,200.057 2050.68,200.442 2051.35,199.39 2052.01,187.066 2052.68,196.571 2053.34,186.227 2054,209.874 2054.67,263.376 2055.33,193.192 2056,186.879 2056.66,149.838 2057.32,179.829 2057.99,257.471 2058.65,197.131 2059.31,191.677 2059.98,194.635 2060.64,190.164 2061.31,199.897 2061.97,217.187 2062.63,180.206 2063.3,181.841 2063.96,183.418 2064.63,201.295 2065.29,216.748 2065.95,195.681 2066.62,178.137 2067.28,206.852 2067.95,217.415 2068.61,156.132 2069.27,366.793 2069.94,315.468 2070.6,187.487 2071.27,226.364 2071.93,172.189 2072.59,188.019 2073.26,201.976 2073.92,173.353 2074.59,215.352 2075.25,172.354 2075.91,167.515 2076.58,286.513 2077.24,185.23 2077.91,184.425 2078.57,191.807 2079.23,233.883 2079.9,169.603 2080.56,205.092 2081.22,191.019 2081.89,196.609 2082.55,203.462 2083.22,200.47 2083.88,312.786 2084.54,329.368 2085.21,219.211 2085.87,160.315 2086.54,185.358 2087.2,185.986 2087.86,194.985 2088.53,214.535 2089.19,167.359 2089.86,149.021 2090.52,195.779 2091.18,193.138 2091.85,195.925 2092.51,204.934 2093.18,195.959 2093.84,191.417 2094.5,226.511 2095.17,190.89 2095.83,187.31 2096.5,186.361 2097.16,176.444 2097.82,217.576 2098.49,196.123 2099.15,183.412 2099.82,197.349 2100.48,190.148 2101.14,215.614 2101.81,176.945 2102.47,251.18 2103.13,196.757 2103.8,205.45 2104.46,171.03 2105.13,157.42 2105.79,179.905 2106.45,192.672 2107.12,183.832 2107.78,198.789 2108.45,180.787 2109.11,208.731 2109.77,198.238 2110.44,212.507 2111.1,235.282 2111.77,160.365 2112.43,154.463 2113.09,175.932 2113.76,168.878 2114.42,174.759 2115.09,187.238 2115.75,233.538 2116.41,214.044 2117.08,254.947 2117.74,203.757 2118.41,174.57 2119.07,192.018 2119.73,185.173 2120.4,209.241 2121.06,247.314 2121.73,271.718 2122.39,189.576 2123.05,155.389 2123.72,188.019 2124.38,214.283 2125.04,238.65 2125.71,216.289 2126.37,217.706 2127.04,201.008 2127.7,185.165 2128.36,189.851 2129.03,193.126 2129.69,187.955 2130.36,188.407 2131.02,253.145 2131.68,218.326 2132.35,204.513 2133.01,214.446 2133.68,201.683 2134.34,183.266 2135,187.958 2135.67,200.007 2136.33,186.72 2137,154.64 2137.66,193.788 2138.32,215.098 2138.99,186.883 2139.65,197.754 2140.32,168.331 2140.98,219.287 2141.64,182.054 2142.31,213.705 2142.97,374.487 2143.64,232.752 2144.3,204.994 2144.96,173.302 2145.63,215.534 2146.29,217.592 2146.95,214.317 2147.62,183.446 2148.28,190.863 2148.95,206.197 2149.61,198.118 2150.27,187.429 2150.94,184.444 2151.6,184.643 2152.27,190.855 2152.93,166.3 2153.59,179.864 2154.26,198.531 2154.92,189.267 2155.59,185.098 2156.25,217.085 2156.91,183.744 2157.58,216.791 2158.24,199.097 2158.91,195.232 2159.57,192.449 2160.23,205.783 2160.9,238.533 2161.56,216.055 2162.23,210.998 2162.89,191.37 2163.55,183.648 2164.22,185.091 2164.88,203.639 2165.55,226.811 2166.21,190.631 2166.87,184.658 2167.54,210.731 2168.2,197.85 2168.86,187.704 2169.53,222.068 2170.19,205.07 2170.86,166.75 2171.52,286.865 2172.18,157.333 2172.85,169.526 2173.51,233.8 2174.18,225.512 2174.84,196.789 2175.5,215.6 2176.17,233.496 2176.83,323.909 2177.5,177.909 2178.16,199.836 2178.82,212.924 2179.49,181.995 2180.15,198.525 2180.82,217.026 2181.48,204.075 2182.14,211.001 2182.81,208.334 2183.47,197.94 2184.14,165.084 2184.8,277.024 2185.46,203.057 2186.13,206.547 2186.79,179.43 2187.46,265.073 2188.12,226.691 2188.78,219.759 2189.45,174.157 2190.11,204.78 2190.77,175.462 2191.44,187.152 2192.1,191.251 2192.77,205.683 2193.43,191.047 2194.09,184.538 2194.76,163.746 2195.42,157.774 2196.09,253.505 2196.75,178.845 2197.41,288.041 2198.08,189.142 2198.74,192.834 2199.41,212.448 2200.07,211.202 2200.73,198.97 2201.4,211.098 2202.06,186.464 2202.73,205.397 2203.39,185.224 2204.05,182.014 2204.72,187.378 2205.38,340.423 2206.05,242.879 2206.71,257.835 2207.37,197.052 2208.04,174.361 2208.7,213.934 2209.37,260.365 2210.03,218.323 2210.69,216.686 2211.36,197.428 2212.02,203.141 2212.68,219.11 2213.35,199.012 2214.01,246.206 2214.68,193.294 2215.34,231.933 2216,225.984 2216.67,221.261 2217.33,182.434 2218,223.388 2218.66,200.699 2219.32,206.913 2219.99,202.871 2220.65,215.778 2221.32,199.486 2221.98,201.646 2222.64,206.546 2223.31,194.351 2223.97,207.556 2224.64,197.945 2225.3,182.098 2225.96,226.115 2226.63,181.716 2227.29,202.367 2227.96,187.428 2228.62,203.02 2229.28,190.259 2229.95,210.884 2230.61,230.403 2231.28,209.994 2231.94,240.869 2232.6,556.999 2233.27,191.597 2233.93,275.381 2234.59,175.273 2235.26,227.601 2235.92,188.424 2236.59,201.479 2237.25,207.947 2237.91,196.734 2238.58,184.051 2239.24,230.812 2239.91,201.148 2240.57,191.855 2241.23,191.954 2241.9,192.151 2242.56,228.136 2243.23,215.896 2243.89,195.85 2244.55,201.028 2245.22,236.851 2245.88,216.696 2246.55,162.481 2247.21,198.938 2247.87,227.377 2248.54,151.909 2249.2,215.399 2249.87,218.493 2250.53,194.551 2251.19,203.976 2251.86,210.872 2252.52,248.406 2253.19,192.126 2253.85,180.466 2254.51,189.815 2255.18,212.165 2255.84,189.226 2256.5,174.885 2257.17,204.626 2257.83,183.015 2258.5,181.19 2259.16,189.202 2259.82,172.219 2260.49,195.826 2261.15,191.713 2261.82,190.31 2262.48,212.831 2263.14,192.2 2263.81,211.59 2264.47,219.209 2265.14,285.69 2265.8,209.586 2266.46,194.511 2267.13,252.901 2267.79,206.306 2268.46,220.331 2269.12,229.265 2269.78,199.722 2270.45,161.193 2271.11,202.801 2271.78,177.244 2272.44,175.566 2273.1,221.741 2273.77,194.503 2274.43,189.515 2275.09,204.073 2275.76,181.155 2276.42,230.051 2277.09,226.433 2277.75,223.815 2278.41,237.83 2279.08,176.925 2279.74,234.435 2280.41,244.623 2281.07,207.828 2281.73,219.389 2282.4,229.188 2283.06,248.986 2283.73,215.994 2284.39,200.843 2285.05,224.249 2285.72,221.773 2286.38,201.273 2287.05,209.104 2287.71,198.294 2288.37,177.1 2289.04,213.501 2289.7,204.681 2290.37,195.688 2291.03,190.969 2291.69,169.42 2292.36,146.692 2293.02,366.588 "/>
<path clip-path="url(#clip730)" d="M2018.91 1377.32 L2282.4 1377.32 L2282.4 1273.64 L2018.91 1273.64  Z" fill="#ffffff" fill-rule="evenodd" fill-opacity="1"/>
<polyline clip-path="url(#clip730)" style="stroke:#000000; stroke-linecap:round; stroke-linejoin:round; stroke-width:4; stroke-opacity:1; fill:none" points="2018.91,1377.32 2282.4,1377.32 2282.4,1273.64 2018.91,1273.64 2018.91,1377.32 "/>
<polyline clip-path="url(#clip730)" style="stroke:#009af9; stroke-linecap:round; stroke-linejoin:round; stroke-width:4; stroke-opacity:1; fill:none" points="2042.36,1325.48 2183.07,1325.48 "/>
<path clip-path="url(#clip730)" d="M2220.36 1345.16 Q2218.56 1349.79 2216.84 1351.2 Q2215.13 1352.62 2212.26 1352.62 L2208.86 1352.62 L2208.86 1349.05 L2211.36 1349.05 Q2213.12 1349.05 2214.09 1348.22 Q2215.06 1347.38 2216.24 1344.28 L2217.01 1342.34 L2206.52 1316.83 L2211.03 1316.83 L2219.14 1337.11 L2227.24 1316.83 L2231.75 1316.83 L2220.36 1345.16 Z" fill="#000000" fill-rule="nonzero" fill-opacity="1" /><path clip-path="url(#clip730)" d="M2239.04 1338.82 L2246.68 1338.82 L2246.68 1312.45 L2238.37 1314.12 L2238.37 1309.86 L2246.64 1308.2 L2251.31 1308.2 L2251.31 1338.82 L2258.95 1338.82 L2258.95 1342.76 L2239.04 1342.76 L2239.04 1338.82 Z" fill="#000000" fill-rule="nonzero" fill-opacity="1" /></svg>
