<?xml version="1.0" encoding="utf-8"?>
<svg xmlns="http://www.w3.org/2000/svg" xmlns:xlink="http://www.w3.org/1999/xlink" width="600" height="400" viewBox="0 0 2400 1600">
<defs>
  <clipPath id="clip740">
    <rect x="0" y="0" width="2400" height="1600"/>
  </clipPath>
</defs>
<path clip-path="url(#clip740)" d="M0 1600 L2400 1600 L2400 0 L0 0  Z" fill="#ffffff" fill-rule="evenodd" fill-opacity="1"/>
<defs>
  <clipPath id="clip741">
    <rect x="175" y="47" width="2178" height="1377"/>
  </clipPath>
</defs>
<path clip-path="url(#clip740)" d="M242.135 1423.18 L2352.76 1423.18 L2352.76 47.2441 L242.135 47.2441  Z" fill="#ffffff" fill-rule="evenodd" fill-opacity="1"/>
<defs>
  <clipPath id="clip742">
    <rect x="242" y="47" width="2112" height="1377"/>
  </clipPath>
</defs>
<polyline clip-path="url(#clip742)" style="stroke:#000000; stroke-linecap:round; stroke-linejoin:round; stroke-width:2; stroke-opacity:0.1; fill:none" points="299.876,1423.18 299.876,47.2441 "/>
<polyline clip-path="url(#clip742)" style="stroke:#000000; stroke-linecap:round; stroke-linejoin:round; stroke-width:2; stroke-opacity:0.1; fill:none" points="798.162,1423.18 798.162,47.2441 "/>
<polyline clip-path="url(#clip742)" style="stroke:#000000; stroke-linecap:round; stroke-linejoin:round; stroke-width:2; stroke-opacity:0.1; fill:none" points="1296.45,1423.18 1296.45,47.2441 "/>
<polyline clip-path="url(#clip742)" style="stroke:#000000; stroke-linecap:round; stroke-linejoin:round; stroke-width:2; stroke-opacity:0.1; fill:none" points="1794.74,1423.18 1794.74,47.2441 "/>
<polyline clip-path="url(#clip742)" style="stroke:#000000; stroke-linecap:round; stroke-linejoin:round; stroke-width:2; stroke-opacity:0.1; fill:none" points="2293.02,1423.18 2293.02,47.2441 "/>
<polyline clip-path="url(#clip742)" style="stroke:#000000; stroke-linecap:round; stroke-linejoin:round; stroke-width:2; stroke-opacity:0.1; fill:none" points="242.135,1369 2352.76,1369 "/>
<polyline clip-path="url(#clip742)" style="stroke:#000000; stroke-linecap:round; stroke-linejoin:round; stroke-width:2; stroke-opacity:0.1; fill:none" points="242.135,998.409 2352.76,998.409 "/>
<polyline clip-path="url(#clip742)" style="stroke:#000000; stroke-linecap:round; stroke-linejoin:round; stroke-width:2; stroke-opacity:0.1; fill:none" points="242.135,627.816 2352.76,627.816 "/>
<polyline clip-path="url(#clip742)" style="stroke:#000000; stroke-linecap:round; stroke-linejoin:round; stroke-width:2; stroke-opacity:0.1; fill:none" points="242.135,257.224 2352.76,257.224 "/>
<polyline clip-path="url(#clip740)" style="stroke:#000000; stroke-linecap:round; stroke-linejoin:round; stroke-width:4; stroke-opacity:1; fill:none" points="242.135,1423.18 2352.76,1423.18 "/>
<polyline clip-path="url(#clip740)" style="stroke:#000000; stroke-linecap:round; stroke-linejoin:round; stroke-width:4; stroke-opacity:1; fill:none" points="299.876,1423.18 299.876,1404.28 "/>
<polyline clip-path="url(#clip740)" style="stroke:#000000; stroke-linecap:round; stroke-linejoin:round; stroke-width:4; stroke-opacity:1; fill:none" points="798.162,1423.18 798.162,1404.28 "/>
<polyline clip-path="url(#clip740)" style="stroke:#000000; stroke-linecap:round; stroke-linejoin:round; stroke-width:4; stroke-opacity:1; fill:none" points="1296.45,1423.18 1296.45,1404.28 "/>
<polyline clip-path="url(#clip740)" style="stroke:#000000; stroke-linecap:round; stroke-linejoin:round; stroke-width:4; stroke-opacity:1; fill:none" points="1794.74,1423.18 1794.74,1404.28 "/>
<polyline clip-path="url(#clip740)" style="stroke:#000000; stroke-linecap:round; stroke-linejoin:round; stroke-width:4; stroke-opacity:1; fill:none" points="2293.02,1423.18 2293.02,1404.28 "/>
<path clip-path="url(#clip740)" d="M299.876 1454.1 Q296.265 1454.1 294.436 1457.66 Q292.631 1461.2 292.631 1468.33 Q292.631 1475.44 294.436 1479.01 Q296.265 1482.55 299.876 1482.55 Q303.51 1482.55 305.316 1479.01 Q307.145 1475.44 307.145 1468.33 Q307.145 1461.2 305.316 1457.66 Q303.51 1454.1 299.876 1454.1 M299.876 1450.39 Q305.686 1450.39 308.742 1455 Q311.82 1459.58 311.82 1468.33 Q311.82 1477.06 308.742 1481.67 Q305.686 1486.25 299.876 1486.25 Q294.066 1486.25 290.987 1481.67 Q287.932 1477.06 287.932 1468.33 Q287.932 1459.58 290.987 1455 Q294.066 1450.39 299.876 1450.39 Z" fill="#000000" fill-rule="nonzero" fill-opacity="1" /><path clip-path="url(#clip740)" d="M761.855 1481.64 L778.174 1481.64 L778.174 1485.58 L756.23 1485.58 L756.23 1481.64 Q758.892 1478.89 763.475 1474.26 Q768.082 1469.61 769.262 1468.27 Q771.507 1465.74 772.387 1464.01 Q773.29 1462.25 773.29 1460.56 Q773.29 1457.8 771.345 1456.07 Q769.424 1454.33 766.322 1454.33 Q764.123 1454.33 761.67 1455.09 Q759.239 1455.86 756.461 1457.41 L756.461 1452.69 Q759.285 1451.55 761.739 1450.97 Q764.193 1450.39 766.23 1450.39 Q771.6 1450.39 774.794 1453.08 Q777.989 1455.77 777.989 1460.26 Q777.989 1462.39 777.179 1464.31 Q776.392 1466.2 774.285 1468.8 Q773.707 1469.47 770.605 1472.69 Q767.503 1475.88 761.855 1481.64 Z" fill="#000000" fill-rule="nonzero" fill-opacity="1" /><path clip-path="url(#clip740)" d="M788.035 1451.02 L806.392 1451.02 L806.392 1454.96 L792.318 1454.96 L792.318 1463.43 Q793.336 1463.08 794.355 1462.92 Q795.373 1462.73 796.392 1462.73 Q802.179 1462.73 805.558 1465.9 Q808.938 1469.08 808.938 1474.49 Q808.938 1480.07 805.466 1483.17 Q801.993 1486.25 795.674 1486.25 Q793.498 1486.25 791.23 1485.88 Q788.984 1485.51 786.577 1484.77 L786.577 1480.07 Q788.66 1481.2 790.882 1481.76 Q793.105 1482.32 795.581 1482.32 Q799.586 1482.32 801.924 1480.21 Q804.262 1478.1 804.262 1474.49 Q804.262 1470.88 801.924 1468.77 Q799.586 1466.67 795.581 1466.67 Q793.706 1466.67 791.831 1467.08 Q789.98 1467.5 788.035 1468.38 L788.035 1451.02 Z" fill="#000000" fill-rule="nonzero" fill-opacity="1" /><path clip-path="url(#clip740)" d="M828.151 1454.1 Q824.54 1454.1 822.711 1457.66 Q820.905 1461.2 820.905 1468.33 Q820.905 1475.44 822.711 1479.01 Q824.54 1482.55 828.151 1482.55 Q831.785 1482.55 833.59 1479.01 Q835.419 1475.44 835.419 1468.33 Q835.419 1461.2 833.59 1457.66 Q831.785 1454.1 828.151 1454.1 M828.151 1450.39 Q833.961 1450.39 837.016 1455 Q840.095 1459.58 840.095 1468.33 Q840.095 1477.06 837.016 1481.67 Q833.961 1486.25 828.151 1486.25 Q822.341 1486.25 819.262 1481.67 Q816.206 1477.06 816.206 1468.33 Q816.206 1459.58 819.262 1455 Q822.341 1450.39 828.151 1450.39 Z" fill="#000000" fill-rule="nonzero" fill-opacity="1" /><path clip-path="url(#clip740)" d="M1256.07 1451.02 L1274.42 1451.02 L1274.42 1454.96 L1260.35 1454.96 L1260.35 1463.43 Q1261.37 1463.08 1262.39 1462.92 Q1263.4 1462.73 1264.42 1462.73 Q1270.21 1462.73 1273.59 1465.9 Q1276.97 1469.08 1276.97 1474.49 Q1276.97 1480.07 1273.5 1483.17 Q1270.03 1486.25 1263.71 1486.25 Q1261.53 1486.25 1259.26 1485.88 Q1257.02 1485.51 1254.61 1484.77 L1254.61 1480.07 Q1256.69 1481.2 1258.91 1481.76 Q1261.14 1482.32 1263.61 1482.32 Q1267.62 1482.32 1269.96 1480.21 Q1272.29 1478.1 1272.29 1474.49 Q1272.29 1470.88 1269.96 1468.77 Q1267.62 1466.67 1263.61 1466.67 Q1261.74 1466.67 1259.86 1467.08 Q1258.01 1467.5 1256.07 1468.38 L1256.07 1451.02 Z" fill="#000000" fill-rule="nonzero" fill-opacity="1" /><path clip-path="url(#clip740)" d="M1296.18 1454.1 Q1292.57 1454.1 1290.74 1457.66 Q1288.94 1461.2 1288.94 1468.33 Q1288.94 1475.44 1290.74 1479.01 Q1292.57 1482.55 1296.18 1482.55 Q1299.82 1482.55 1301.62 1479.01 Q1303.45 1475.44 1303.45 1468.33 Q1303.45 1461.2 1301.62 1457.66 Q1299.82 1454.1 1296.18 1454.1 M1296.18 1450.39 Q1301.99 1450.39 1305.05 1455 Q1308.13 1459.58 1308.13 1468.33 Q1308.13 1477.06 1305.05 1481.67 Q1301.99 1486.25 1296.18 1486.25 Q1290.37 1486.25 1287.29 1481.67 Q1284.24 1477.06 1284.24 1468.33 Q1284.24 1459.58 1287.29 1455 Q1290.37 1450.39 1296.18 1450.39 Z" fill="#000000" fill-rule="nonzero" fill-opacity="1" /><path clip-path="url(#clip740)" d="M1326.34 1454.1 Q1322.73 1454.1 1320.9 1457.66 Q1319.1 1461.2 1319.1 1468.33 Q1319.1 1475.44 1320.9 1479.01 Q1322.73 1482.55 1326.34 1482.55 Q1329.98 1482.55 1331.78 1479.01 Q1333.61 1475.44 1333.61 1468.33 Q1333.61 1461.2 1331.78 1457.66 Q1329.98 1454.1 1326.34 1454.1 M1326.34 1450.39 Q1332.15 1450.39 1335.21 1455 Q1338.29 1459.58 1338.29 1468.33 Q1338.29 1477.06 1335.21 1481.67 Q1332.15 1486.25 1326.34 1486.25 Q1320.53 1486.25 1317.46 1481.67 Q1314.4 1477.06 1314.4 1468.33 Q1314.4 1459.58 1317.46 1455 Q1320.53 1450.39 1326.34 1450.39 Z" fill="#000000" fill-rule="nonzero" fill-opacity="1" /><path clip-path="url(#clip740)" d="M1753.01 1451.02 L1775.23 1451.02 L1775.23 1453.01 L1762.69 1485.58 L1757.8 1485.58 L1769.61 1454.96 L1753.01 1454.96 L1753.01 1451.02 Z" fill="#000000" fill-rule="nonzero" fill-opacity="1" /><path clip-path="url(#clip740)" d="M1784.4 1451.02 L1802.76 1451.02 L1802.76 1454.96 L1788.68 1454.96 L1788.68 1463.43 Q1789.7 1463.08 1790.72 1462.92 Q1791.74 1462.73 1792.76 1462.73 Q1798.54 1462.73 1801.92 1465.9 Q1805.3 1469.08 1805.3 1474.49 Q1805.3 1480.07 1801.83 1483.17 Q1798.36 1486.25 1792.04 1486.25 Q1789.86 1486.25 1787.59 1485.88 Q1785.35 1485.51 1782.94 1484.77 L1782.94 1480.07 Q1785.02 1481.2 1787.25 1481.76 Q1789.47 1482.32 1791.95 1482.32 Q1795.95 1482.32 1798.29 1480.21 Q1800.63 1478.1 1800.63 1474.49 Q1800.63 1470.88 1798.29 1468.77 Q1795.95 1466.67 1791.95 1466.67 Q1790.07 1466.67 1788.2 1467.08 Q1786.34 1467.5 1784.4 1468.38 L1784.4 1451.02 Z" fill="#000000" fill-rule="nonzero" fill-opacity="1" /><path clip-path="url(#clip740)" d="M1824.51 1454.1 Q1820.9 1454.1 1819.08 1457.66 Q1817.27 1461.2 1817.27 1468.33 Q1817.27 1475.44 1819.08 1479.01 Q1820.9 1482.55 1824.51 1482.55 Q1828.15 1482.55 1829.95 1479.01 Q1831.78 1475.44 1831.78 1468.33 Q1831.78 1461.2 1829.95 1457.66 Q1828.15 1454.1 1824.51 1454.1 M1824.51 1450.39 Q1830.33 1450.39 1833.38 1455 Q1836.46 1459.58 1836.46 1468.33 Q1836.46 1477.06 1833.38 1481.67 Q1830.33 1486.25 1824.51 1486.25 Q1818.7 1486.25 1815.63 1481.67 Q1812.57 1477.06 1812.57 1468.33 Q1812.57 1459.58 1815.63 1455 Q1818.7 1450.39 1824.51 1450.39 Z" fill="#000000" fill-rule="nonzero" fill-opacity="1" /><path clip-path="url(#clip740)" d="M2237.55 1481.64 L2245.19 1481.64 L2245.19 1455.28 L2236.88 1456.95 L2236.88 1452.69 L2245.14 1451.02 L2249.82 1451.02 L2249.82 1481.64 L2257.45 1481.64 L2257.45 1485.58 L2237.55 1485.58 L2237.55 1481.64 Z" fill="#000000" fill-rule="nonzero" fill-opacity="1" /><path clip-path="url(#clip740)" d="M2276.9 1454.1 Q2273.29 1454.1 2271.46 1457.66 Q2269.65 1461.2 2269.65 1468.33 Q2269.65 1475.44 2271.46 1479.01 Q2273.29 1482.55 2276.9 1482.55 Q2280.53 1482.55 2282.34 1479.01 Q2284.17 1475.44 2284.17 1468.33 Q2284.17 1461.2 2282.34 1457.66 Q2280.53 1454.1 2276.9 1454.1 M2276.9 1450.39 Q2282.71 1450.39 2285.76 1455 Q2288.84 1459.58 2288.84 1468.33 Q2288.84 1477.06 2285.76 1481.67 Q2282.71 1486.25 2276.9 1486.25 Q2271.09 1486.25 2268.01 1481.67 Q2264.95 1477.06 2264.95 1468.33 Q2264.95 1459.58 2268.01 1455 Q2271.09 1450.39 2276.9 1450.39 Z" fill="#000000" fill-rule="nonzero" fill-opacity="1" /><path clip-path="url(#clip740)" d="M2307.06 1454.1 Q2303.45 1454.1 2301.62 1457.66 Q2299.82 1461.2 2299.82 1468.33 Q2299.82 1475.44 2301.62 1479.01 Q2303.45 1482.55 2307.06 1482.55 Q2310.69 1482.55 2312.5 1479.01 Q2314.33 1475.44 2314.33 1468.33 Q2314.33 1461.2 2312.5 1457.66 Q2310.69 1454.1 2307.06 1454.1 M2307.06 1450.39 Q2312.87 1450.39 2315.93 1455 Q2319 1459.58 2319 1468.33 Q2319 1477.06 2315.93 1481.67 Q2312.87 1486.25 2307.06 1486.25 Q2301.25 1486.25 2298.17 1481.67 Q2295.12 1477.06 2295.12 1468.33 Q2295.12 1459.58 2298.17 1455 Q2301.25 1450.39 2307.06 1450.39 Z" fill="#000000" fill-rule="nonzero" fill-opacity="1" /><path clip-path="url(#clip740)" d="M2337.22 1454.1 Q2333.61 1454.1 2331.78 1457.66 Q2329.98 1461.2 2329.98 1468.33 Q2329.98 1475.44 2331.78 1479.01 Q2333.61 1482.55 2337.22 1482.55 Q2340.86 1482.55 2342.66 1479.01 Q2344.49 1475.44 2344.49 1468.33 Q2344.49 1461.2 2342.66 1457.66 Q2340.86 1454.1 2337.22 1454.1 M2337.22 1450.39 Q2343.03 1450.39 2346.09 1455 Q2349.17 1459.58 2349.17 1468.33 Q2349.17 1477.06 2346.09 1481.67 Q2343.03 1486.25 2337.22 1486.25 Q2331.41 1486.25 2328.33 1481.67 Q2325.28 1477.06 2325.28 1468.33 Q2325.28 1459.58 2328.33 1455 Q2331.41 1450.39 2337.22 1450.39 Z" fill="#000000" fill-rule="nonzero" fill-opacity="1" /><path clip-path="url(#clip740)" d="M1165.17 1520.52 L1171.6 1520.52 L1171.6 1568.04 L1165.17 1568.04 L1165.17 1520.52 Z" fill="#000000" fill-rule="nonzero" fill-opacity="1" /><path clip-path="url(#clip740)" d="M1189.93 1522.27 L1189.93 1532.4 L1201.99 1532.4 L1201.99 1536.95 L1189.93 1536.95 L1189.93 1556.3 Q1189.93 1560.66 1191.11 1561.9 Q1192.32 1563.14 1195.98 1563.14 L1201.99 1563.14 L1201.99 1568.04 L1195.98 1568.04 Q1189.2 1568.04 1186.62 1565.53 Q1184.04 1562.98 1184.04 1556.3 L1184.04 1536.95 L1179.74 1536.95 L1179.74 1532.4 L1184.04 1532.4 L1184.04 1522.27 L1189.93 1522.27 Z" fill="#000000" fill-rule="nonzero" fill-opacity="1" /><path clip-path="url(#clip740)" d="M1240.19 1548.76 L1240.19 1551.62 L1213.26 1551.62 Q1213.64 1557.67 1216.89 1560.85 Q1220.17 1564 1225.99 1564 Q1229.36 1564 1232.52 1563.17 Q1235.7 1562.35 1238.82 1560.69 L1238.82 1566.23 Q1235.67 1567.57 1232.36 1568.27 Q1229.05 1568.97 1225.64 1568.97 Q1217.11 1568.97 1212.11 1564 Q1207.15 1559.04 1207.15 1550.57 Q1207.15 1541.82 1211.86 1536.69 Q1216.6 1531.54 1224.62 1531.54 Q1231.81 1531.54 1235.98 1536.18 Q1240.19 1540.8 1240.19 1548.76 M1234.33 1547.04 Q1234.27 1542.23 1231.62 1539.37 Q1229.01 1536.5 1224.69 1536.5 Q1219.78 1536.5 1216.82 1539.27 Q1213.9 1542.04 1213.45 1547.07 L1234.33 1547.04 Z" fill="#000000" fill-rule="nonzero" fill-opacity="1" /><path clip-path="url(#clip740)" d="M1270.45 1537.87 Q1269.47 1537.3 1268.29 1537.04 Q1267.14 1536.76 1265.74 1536.76 Q1260.78 1536.76 1258.11 1540 Q1255.46 1543.22 1255.46 1549.27 L1255.46 1568.04 L1249.58 1568.04 L1249.58 1532.4 L1255.46 1532.4 L1255.46 1537.93 Q1257.31 1534.69 1260.27 1533.13 Q1263.23 1531.54 1267.46 1531.54 Q1268.07 1531.54 1268.8 1531.63 Q1269.53 1531.7 1270.42 1531.85 L1270.45 1537.87 Z" fill="#000000" fill-rule="nonzero" fill-opacity="1" /><path clip-path="url(#clip740)" d="M1292.8 1550.12 Q1285.7 1550.12 1282.96 1551.75 Q1280.23 1553.37 1280.23 1557.29 Q1280.23 1560.4 1282.26 1562.25 Q1284.33 1564.07 1287.86 1564.07 Q1292.73 1564.07 1295.66 1560.63 Q1298.62 1557.16 1298.62 1551.43 L1298.62 1550.12 L1292.8 1550.12 M1304.48 1547.71 L1304.48 1568.04 L1298.62 1568.04 L1298.62 1562.63 Q1296.62 1565.88 1293.63 1567.44 Q1290.63 1568.97 1286.31 1568.97 Q1280.83 1568.97 1277.58 1565.91 Q1274.37 1562.82 1274.37 1557.67 Q1274.37 1551.65 1278.38 1548.6 Q1282.42 1545.54 1290.41 1545.54 L1298.62 1545.54 L1298.62 1544.97 Q1298.62 1540.93 1295.95 1538.73 Q1293.31 1536.5 1288.5 1536.5 Q1285.45 1536.5 1282.55 1537.23 Q1279.65 1537.97 1276.98 1539.43 L1276.98 1534.02 Q1280.19 1532.78 1283.22 1532.17 Q1286.24 1531.54 1289.11 1531.54 Q1296.84 1531.54 1300.66 1535.55 Q1304.48 1539.56 1304.48 1547.71 Z" fill="#000000" fill-rule="nonzero" fill-opacity="1" /><path clip-path="url(#clip740)" d="M1322.34 1522.27 L1322.34 1532.4 L1334.4 1532.4 L1334.4 1536.95 L1322.34 1536.95 L1322.34 1556.3 Q1322.34 1560.66 1323.51 1561.9 Q1324.72 1563.14 1328.38 1563.14 L1334.4 1563.14 L1334.4 1568.04 L1328.38 1568.04 Q1321.6 1568.04 1319.03 1565.53 Q1316.45 1562.98 1316.45 1556.3 L1316.45 1536.95 L1312.15 1536.95 L1312.15 1532.4 L1316.45 1532.4 L1316.45 1522.27 L1322.34 1522.27 Z" fill="#000000" fill-rule="nonzero" fill-opacity="1" /><path clip-path="url(#clip740)" d="M1342.1 1532.4 L1347.96 1532.4 L1347.96 1568.04 L1342.1 1568.04 L1342.1 1532.4 M1342.1 1518.52 L1347.96 1518.52 L1347.96 1525.93 L1342.1 1525.93 L1342.1 1518.52 Z" fill="#000000" fill-rule="nonzero" fill-opacity="1" /><path clip-path="url(#clip740)" d="M1374.02 1536.5 Q1369.31 1536.5 1366.58 1540.19 Q1363.84 1543.85 1363.84 1550.25 Q1363.84 1556.65 1366.55 1560.34 Q1369.28 1564 1374.02 1564 Q1378.7 1564 1381.44 1560.31 Q1384.18 1556.62 1384.18 1550.25 Q1384.18 1543.92 1381.44 1540.23 Q1378.7 1536.5 1374.02 1536.5 M1374.02 1531.54 Q1381.66 1531.54 1386.02 1536.5 Q1390.38 1541.47 1390.38 1550.25 Q1390.38 1559 1386.02 1564 Q1381.66 1568.97 1374.02 1568.97 Q1366.35 1568.97 1361.99 1564 Q1357.66 1559 1357.66 1550.25 Q1357.66 1541.47 1361.99 1536.5 Q1366.35 1531.54 1374.02 1531.54 Z" fill="#000000" fill-rule="nonzero" fill-opacity="1" /><path clip-path="url(#clip740)" d="M1429.72 1546.53 L1429.72 1568.04 L1423.87 1568.04 L1423.87 1546.72 Q1423.87 1541.66 1421.89 1539.14 Q1419.92 1536.63 1415.97 1536.63 Q1411.23 1536.63 1408.5 1539.65 Q1405.76 1542.68 1405.76 1547.9 L1405.76 1568.04 L1399.87 1568.04 L1399.87 1532.4 L1405.76 1532.4 L1405.76 1537.93 Q1407.86 1534.72 1410.69 1533.13 Q1413.56 1531.54 1417.28 1531.54 Q1423.42 1531.54 1426.57 1535.36 Q1429.72 1539.14 1429.72 1546.53 Z" fill="#000000" fill-rule="nonzero" fill-opacity="1" /><polyline clip-path="url(#clip740)" style="stroke:#000000; stroke-linecap:round; stroke-linejoin:round; stroke-width:4; stroke-opacity:1; fill:none" points="242.135,1423.18 242.135,47.2441 "/>
<polyline clip-path="url(#clip740)" style="stroke:#000000; stroke-linecap:round; stroke-linejoin:round; stroke-width:4; stroke-opacity:1; fill:none" points="242.135,1369 261.032,1369 "/>
<polyline clip-path="url(#clip740)" style="stroke:#000000; stroke-linecap:round; stroke-linejoin:round; stroke-width:4; stroke-opacity:1; fill:none" points="242.135,998.409 261.032,998.409 "/>
<polyline clip-path="url(#clip740)" style="stroke:#000000; stroke-linecap:round; stroke-linejoin:round; stroke-width:4; stroke-opacity:1; fill:none" points="242.135,627.816 261.032,627.816 "/>
<polyline clip-path="url(#clip740)" style="stroke:#000000; stroke-linecap:round; stroke-linejoin:round; stroke-width:4; stroke-opacity:1; fill:none" points="242.135,257.224 261.032,257.224 "/>
<path clip-path="url(#clip740)" d="M114.26 1369.45 L143.936 1369.45 L143.936 1373.39 L114.26 1373.39 L114.26 1369.45 Z" fill="#000000" fill-rule="nonzero" fill-opacity="1" /><path clip-path="url(#clip740)" d="M168.195 1367.65 Q171.552 1368.37 173.427 1370.63 Q175.325 1372.9 175.325 1376.24 Q175.325 1381.35 171.806 1384.15 Q168.288 1386.95 161.806 1386.95 Q159.63 1386.95 157.315 1386.51 Q155.024 1386.1 152.57 1385.24 L152.57 1380.73 Q154.515 1381.86 156.829 1382.44 Q159.144 1383.02 161.667 1383.02 Q166.065 1383.02 168.357 1381.28 Q170.672 1379.55 170.672 1376.24 Q170.672 1373.18 168.519 1371.47 Q166.39 1369.73 162.57 1369.73 L158.542 1369.73 L158.542 1365.89 L162.755 1365.89 Q166.204 1365.89 168.033 1364.52 Q169.862 1363.13 169.862 1360.54 Q169.862 1357.88 167.964 1356.47 Q166.089 1355.03 162.57 1355.03 Q160.649 1355.03 158.45 1355.45 Q156.251 1355.87 153.612 1356.74 L153.612 1352.58 Q156.274 1351.84 158.589 1351.47 Q160.927 1351.1 162.987 1351.1 Q168.311 1351.1 171.413 1353.53 Q174.514 1355.93 174.514 1360.06 Q174.514 1362.93 172.871 1364.92 Q171.227 1366.88 168.195 1367.65 Z" fill="#000000" fill-rule="nonzero" fill-opacity="1" /><path clip-path="url(#clip740)" d="M194.19 1354.8 Q190.579 1354.8 188.75 1358.37 Q186.945 1361.91 186.945 1369.04 Q186.945 1376.14 188.75 1379.71 Q190.579 1383.25 194.19 1383.25 Q197.825 1383.25 199.63 1379.71 Q201.459 1376.14 201.459 1369.04 Q201.459 1361.91 199.63 1358.37 Q197.825 1354.8 194.19 1354.8 M194.19 1351.1 Q200 1351.1 203.056 1355.7 Q206.135 1360.29 206.135 1369.04 Q206.135 1377.76 203.056 1382.37 Q200 1386.95 194.19 1386.95 Q188.38 1386.95 185.301 1382.37 Q182.246 1377.76 182.246 1369.04 Q182.246 1360.29 185.301 1355.7 Q188.38 1351.1 194.19 1351.1 Z" fill="#000000" fill-rule="nonzero" fill-opacity="1" /><path clip-path="url(#clip740)" d="M114.26 998.86 L143.936 998.86 L143.936 1002.8 L114.26 1002.8 L114.26 998.86 Z" fill="#000000" fill-rule="nonzero" fill-opacity="1" /><path clip-path="url(#clip740)" d="M158.056 1011.75 L174.376 1011.75 L174.376 1015.69 L152.431 1015.69 L152.431 1011.75 Q155.093 1009 159.677 1004.37 Q164.283 999.717 165.464 998.374 Q167.709 995.851 168.589 994.115 Q169.491 992.356 169.491 990.666 Q169.491 987.911 167.547 986.175 Q165.626 984.439 162.524 984.439 Q160.325 984.439 157.871 985.203 Q155.44 985.967 152.663 987.518 L152.663 982.796 Q155.487 981.661 157.94 981.083 Q160.394 980.504 162.431 980.504 Q167.802 980.504 170.996 983.189 Q174.19 985.874 174.19 990.365 Q174.19 992.495 173.38 994.416 Q172.593 996.314 170.487 998.907 Q169.908 999.578 166.806 1002.8 Q163.704 1005.99 158.056 1011.75 Z" fill="#000000" fill-rule="nonzero" fill-opacity="1" /><path clip-path="url(#clip740)" d="M194.19 984.208 Q190.579 984.208 188.75 987.773 Q186.945 991.314 186.945 998.444 Q186.945 1005.55 188.75 1009.12 Q190.579 1012.66 194.19 1012.66 Q197.825 1012.66 199.63 1009.12 Q201.459 1005.55 201.459 998.444 Q201.459 991.314 199.63 987.773 Q197.825 984.208 194.19 984.208 M194.19 980.504 Q200 980.504 203.056 985.111 Q206.135 989.694 206.135 998.444 Q206.135 1007.17 203.056 1011.78 Q200 1016.36 194.19 1016.36 Q188.38 1016.36 185.301 1011.78 Q182.246 1007.17 182.246 998.444 Q182.246 989.694 185.301 985.111 Q188.38 980.504 194.19 980.504 Z" fill="#000000" fill-rule="nonzero" fill-opacity="1" /><path clip-path="url(#clip740)" d="M114.26 628.268 L143.936 628.268 L143.936 632.203 L114.26 632.203 L114.26 628.268 Z" fill="#000000" fill-rule="nonzero" fill-opacity="1" /><path clip-path="url(#clip740)" d="M154.839 641.161 L162.477 641.161 L162.477 614.796 L154.167 616.462 L154.167 612.203 L162.431 610.536 L167.107 610.536 L167.107 641.161 L174.746 641.161 L174.746 645.096 L154.839 645.096 L154.839 641.161 Z" fill="#000000" fill-rule="nonzero" fill-opacity="1" /><path clip-path="url(#clip740)" d="M194.19 613.615 Q190.579 613.615 188.75 617.18 Q186.945 620.721 186.945 627.851 Q186.945 634.957 188.75 638.522 Q190.579 642.064 194.19 642.064 Q197.825 642.064 199.63 638.522 Q201.459 634.957 201.459 627.851 Q201.459 620.721 199.63 617.18 Q197.825 613.615 194.19 613.615 M194.19 609.911 Q200 609.911 203.056 614.518 Q206.135 619.101 206.135 627.851 Q206.135 636.578 203.056 641.184 Q200 645.768 194.19 645.768 Q188.38 645.768 185.301 641.184 Q182.246 636.578 182.246 627.851 Q182.246 619.101 185.301 614.518 Q188.38 609.911 194.19 609.911 Z" fill="#000000" fill-rule="nonzero" fill-opacity="1" /><path clip-path="url(#clip740)" d="M194.19 243.022 Q190.579 243.022 188.75 246.587 Q186.945 250.129 186.945 257.258 Q186.945 264.365 188.75 267.929 Q190.579 271.471 194.19 271.471 Q197.825 271.471 199.63 267.929 Q201.459 264.365 201.459 257.258 Q201.459 250.129 199.63 246.587 Q197.825 243.022 194.19 243.022 M194.19 239.319 Q200 239.319 203.056 243.925 Q206.135 248.508 206.135 257.258 Q206.135 265.985 203.056 270.592 Q200 275.175 194.19 275.175 Q188.38 275.175 185.301 270.592 Q182.246 265.985 182.246 257.258 Q182.246 248.508 185.301 243.925 Q188.38 239.319 194.19 239.319 Z" fill="#000000" fill-rule="nonzero" fill-opacity="1" /><path clip-path="url(#clip740)" d="M16.4842 816.375 L16.4842 786.329 L21.895 786.329 L21.895 809.945 L35.9632 809.945 L35.9632 787.315 L41.3741 787.315 L41.3741 809.945 L58.5933 809.945 L58.5933 785.756 L64.0042 785.756 L64.0042 816.375 L16.4842 816.375 Z" fill="#000000" fill-rule="nonzero" fill-opacity="1" /><path clip-path="url(#clip740)" d="M16.4842 775.189 L16.4842 768.759 L58.5933 768.759 L58.5933 745.62 L64.0042 745.62 L64.0042 775.189 L16.4842 775.189 Z" fill="#000000" fill-rule="nonzero" fill-opacity="1" /><path clip-path="url(#clip740)" d="M41.3104 732.443 L58.7206 732.443 L58.7206 722.13 Q58.7206 716.942 56.5881 714.46 Q54.4238 711.945 49.9996 711.945 Q45.5436 711.945 43.4429 714.46 Q41.3104 716.942 41.3104 722.13 L41.3104 732.443 M21.7677 732.443 L36.0905 732.443 L36.0905 722.926 Q36.0905 718.216 34.34 715.924 Q32.5576 713.6 28.9291 713.6 Q25.3325 713.6 23.5501 715.924 Q21.7677 718.216 21.7677 722.926 L21.7677 732.443 M16.4842 738.872 L16.4842 722.449 Q16.4842 715.096 19.5397 711.118 Q22.5952 707.139 28.2289 707.139 Q32.5894 707.139 35.1675 709.176 Q37.7456 711.213 38.3822 715.16 Q39.4007 710.418 42.6472 707.808 Q45.8619 705.166 50.6998 705.166 Q57.0655 705.166 60.5348 709.495 Q64.0042 713.823 64.0042 721.812 L64.0042 738.872 L16.4842 738.872 Z" fill="#000000" fill-rule="nonzero" fill-opacity="1" /><path clip-path="url(#clip740)" d="M20.8447 676.011 Q20.8447 683.013 26.0645 687.151 Q31.2844 691.257 40.2919 691.257 Q49.2675 691.257 54.4874 687.151 Q59.7073 683.013 59.7073 676.011 Q59.7073 669.009 54.4874 664.935 Q49.2675 660.829 40.2919 660.829 Q31.2844 660.829 26.0645 664.935 Q20.8447 669.009 20.8447 676.011 M15.6248 676.011 Q15.6248 666.017 22.3406 660.033 Q29.0246 654.049 40.2919 654.049 Q51.5274 654.049 58.2432 660.033 Q64.9272 666.017 64.9272 676.011 Q64.9272 686.037 58.2432 692.052 Q51.5592 698.036 40.2919 698.036 Q29.0246 698.036 22.3406 692.052 Q15.6248 686.037 15.6248 676.011 Z" fill="#000000" fill-rule="nonzero" fill-opacity="1" /><polyline clip-path="url(#clip742)" style="stroke:#009af9; stroke-linecap:round; stroke-linejoin:round; stroke-width:4; stroke-opacity:1; fill:none" points="301.869,1384.24 303.862,919.06 305.856,727.637 307.849,1078.64 309.842,1222.9 311.835,1032.73 313.828,756.427 315.821,921.12 317.814,1188.9 319.808,1153.07 321.801,1068.56 323.794,744.401 325.787,760.384 327.78,1223.28 329.773,1138.3 331.766,846.362 333.76,853.445 335.753,719.854 337.746,929.044 339.739,953.115 341.732,603.066 343.725,1183.68 345.718,869.319 347.712,562.934 349.705,527.178 351.698,808.173 353.691,845.004 355.684,500.239 357.677,1184.92 359.67,996.507 361.664,972.702 363.657,358.096 365.65,893.433 367.643,611.807 369.636,699.293 371.629,692.192 373.622,562.099 375.616,464.44 377.609,475.364 379.602,688.115 381.595,800.812 383.588,714.747 385.581,1191.09 387.574,826.273 389.568,648.854 391.561,601.121 393.554,828.002 395.547,575.944 397.54,681.727 399.533,703.057 401.526,608.581 403.52,914.482 405.513,1148.25 407.506,1061.39 409.499,717.135 411.492,472.997 413.485,639.895 415.479,507.548 417.472,1118.96 419.465,389.942 421.458,651.953 423.451,472.44 425.444,823.485 427.437,381.833 429.431,645.399 431.424,545.89 433.417,480.693 435.41,581.164 437.403,904.435 439.396,1059.74 441.389,634.58 443.383,359.638 445.376,509.724 447.369,400.758 449.362,671.673 451.355,506.488 453.348,551.898 455.341,587.057 457.335,334.643 459.328,422.148 461.321,573.766 463.314,629.233 465.307,824.183 467.3,764.489 469.293,439.101 471.287,538.132 473.28,863.54 475.273,923.531 477.266,354.217 479.259,560.008 481.252,523.106 483.245,581.332 485.239,370.653 487.232,361.974 489.225,557.002 491.218,665.464 493.211,310.721 495.204,443.169 497.197,570.646 499.191,283.372 501.184,784.354 503.177,351.765 505.17,517.641 507.163,445.178 509.156,483.435 511.149,556.542 513.143,523.571 515.136,421.868 517.129,431.548 519.122,1010.99 521.115,490.411 523.108,507.441 525.101,267.319 527.095,452.285 529.088,624.24 531.081,422.014 533.074,346.276 535.067,449.028 537.06,717.247 539.054,425.668 541.047,404.557 543.04,177.394 545.033,363.957 547.026,135.895 549.019,433.955 551.012,453.038 553.006,644.883 554.999,593.134 556.992,439.874 558.985,395.976 560.978,381.682 562.971,819.673 564.964,496.827 566.958,353.835 568.951,515.62 570.944,449.383 572.937,325.627 574.93,256.453 576.923,404.425 578.916,612.447 580.91,379.617 582.903,505.551 584.896,409.549 586.889,356.912 588.882,345.178 590.875,216.77 592.868,418.359 594.862,406.573 596.855,373.775 598.848,223.683 600.841,512.977 602.834,406.134 604.827,268.793 606.82,447.971 608.814,460.988 610.807,246.24 612.8,373.179 614.793,368.367 616.786,260.887 618.779,454.948 620.772,578.928 622.766,205.942 624.759,387.358 626.752,357.602 628.745,404.657 630.738,558.746 632.731,332.116 634.724,430.378 636.718,379.128 638.711,366.626 640.704,362.527 642.697,220.2 644.69,646.237 646.683,245.225 648.677,715.027 650.67,265.371 652.663,441.018 654.656,472.095 656.649,204.246 658.642,273.732 660.635,353.976 662.629,589.633 664.622,426.535 666.615,247.276 668.608,345.698 670.601,372.533 672.594,549.981 674.587,367.661 676.581,548.264 678.574,314.19 680.567,260.427 682.56,298.801 684.553,280.066 686.546,424.553 688.539,239.506 690.533,394.734 692.526,599.101 694.519,350.931 696.512,528.051 698.505,368.413 700.498,376.194 702.491,172.899 704.485,266.685 706.478,403.377 708.471,382.306 710.464,378.381 712.457,248.277 714.45,388.991 716.443,215.688 718.437,290.954 720.43,634.516 722.423,338.514 724.416,349.845 726.409,289.233 728.402,256.92 730.395,279.552 732.389,223.476 734.382,303.085 736.375,419.548 738.368,248.592 740.361,273.751 742.354,254.07 744.347,263.966 746.341,265.788 748.334,284.537 750.327,307.3 752.32,272.294 754.313,305.804 756.306,310.945 758.299,198.121 760.293,289.142 762.286,252.432 764.279,362.916 766.272,189.573 768.265,146.851 770.258,434 772.252,318.963 774.245,254.408 776.238,283.918 778.231,237.732 780.224,317.009 782.217,138.311 784.21,478.369 786.204,502.802 788.197,364.046 790.19,253.94 792.183,372.516 794.176,124.526 796.169,345.402 798.162,176.318 800.156,415.192 802.149,387.474 804.142,298.424 806.135,320.552 808.128,271.143 810.121,226.127 812.114,217.59 814.108,551.272 816.101,288.549 818.094,324.075 820.087,324.275 822.08,158.124 824.073,420.909 826.066,167.363 828.06,284.731 830.053,312.869 832.046,229.463 834.039,336.14 836.032,197.488 838.025,456.362 840.018,239.498 842.012,347.726 844.005,294.438 845.998,232.045 847.991,181.53 849.984,281.143 851.977,248.76 853.97,273.53 855.964,193.956 857.957,197.441 859.95,212.589 861.943,238.746 863.936,165.935 865.929,218.877 867.922,159.443 869.916,242.58 871.909,299.272 873.902,414.835 875.895,137.646 877.888,231.484 879.881,236.803 881.874,286.455 883.868,274.803 885.861,257.528 887.854,263.876 889.847,312.509 891.84,295.918 893.833,206.869 895.827,272.895 897.82,181.255 899.813,233.958 901.806,274.788 903.799,213.176 905.792,243.917 907.785,406.033 909.779,262.723 911.772,366.547 913.765,244.907 915.758,280.362 917.751,300.3 919.744,256.569 921.737,313.361 923.731,178.562 925.724,257.641 927.717,176.048 929.71,238.689 931.703,199.759 933.696,201.806 935.689,282.45 937.683,316.152 939.676,287.765 941.669,136.01 943.662,274.234 945.655,158.739 947.648,184.312 949.641,327.717 951.635,303.954 953.628,227.051 955.621,212.334 957.614,236.346 959.607,287.995 961.6,260.641 963.593,503.467 965.587,210.145 967.58,326.241 969.573,387.848 971.566,283.479 973.559,199.406 975.552,408.88 977.545,399.676 979.539,154.588 981.532,211.989 983.525,478.039 985.518,136.157 987.511,258.517 989.504,191.047 991.497,237.577 993.491,210.864 995.484,260.957 997.477,228.544 999.47,193.849 1001.46,461.933 1003.46,274.455 1005.45,187.078 1007.44,378.165 1009.44,297.304 1011.43,90.9693 1013.42,226.367 1015.42,299.421 1017.41,299.377 1019.4,191.856 1021.39,193.569 1023.39,259.925 1025.38,249.576 1027.37,376.044 1029.37,190.109 1031.36,163.478 1033.35,322 1035.35,251.074 1037.34,201.691 1039.33,154.123 1041.33,261.38 1043.32,376.252 1045.31,341.928 1047.31,246.636 1049.3,229.574 1051.29,440.322 1053.28,299.657 1055.28,180.014 1057.27,278.567 1059.26,235.111 1061.26,348.223 1063.25,147.727 1065.24,471.161 1067.24,160.274 1069.23,468.937 1071.22,280.702 1073.22,207.853 1075.21,167.751 1077.2,208.202 1079.2,207.065 1081.19,200.562 1083.18,299.533 1085.18,412.319 1087.17,308.059 1089.16,213.816 1091.15,193.827 1093.15,253.092 1095.14,220.015 1097.13,128.251 1099.13,266.227 1101.12,311.113 1103.11,344.177 1105.11,487.306 1107.1,150.654 1109.09,339.926 1111.09,236.16 1113.08,303.11 1115.07,215.71 1117.07,373.787 1119.06,314.028 1121.05,419.619 1123.05,254.074 1125.04,231.159 1127.03,219.199 1129.02,286.622 1131.02,185.184 1133.01,240.166 1135,234.118 1137,279.774 1138.99,197.328 1140.98,405.919 1142.98,217.422 1144.97,206.482 1146.96,292.548 1148.96,317.497 1150.95,136.375 1152.94,217.207 1154.94,188.669 1156.93,260.044 1158.92,288.144 1160.91,201.267 1162.91,196.577 1164.9,357.755 1166.89,391.88 1168.89,333.775 1170.88,146.828 1172.87,113.542 1174.87,170.262 1176.86,175.354 1178.85,270.446 1180.85,329.464 1182.84,187.46 1184.83,257.175 1186.83,258.358 1188.82,223.288 1190.81,327.607 1192.81,259.876 1194.8,138.384 1196.79,103.9 1198.78,274.998 1200.78,244.363 1202.77,176.597 1204.76,320.459 1206.76,208.405 1208.75,255.68 1210.74,383.518 1212.74,303.308 1214.73,426.408 1216.72,237.03 1218.72,218.159 1220.71,242.869 1222.7,265.73 1224.7,239.051 1226.69,404.836 1228.68,293.154 1230.67,311.495 1232.67,372.146 1234.66,160.09 1236.65,327.517 1238.65,114.595 1240.64,255.236 1242.63,384.729 1244.63,292.427 1246.62,207.691 1248.61,446.165 1250.61,202.838 1252.6,141.537 1254.59,243.588 1256.59,258.588 1258.58,174.163 1260.57,263.59 1262.57,211.938 1264.56,305.12 1266.55,255.027 1268.54,162.576 1270.54,150.455 1272.53,207.246 1274.52,299.469 1276.52,135.876 1278.51,467.917 1280.5,279.907 1282.5,316.394 1284.49,147.256 1286.48,298.035 1288.48,207.992 1290.47,293.714 1292.46,264.611 1294.46,396.204 1296.45,418.57 1298.44,192.239 1300.44,342.243 1302.43,132.055 1304.42,212.56 1306.41,219.81 1308.41,209.483 1310.4,324.165 1312.39,353.138 1314.39,220.531 1316.38,327.576 1318.37,136.816 1320.37,338.601 1322.36,191.346 1324.35,175.938 1326.35,155.947 1328.34,90.4894 1330.33,385.242 1332.33,261.629 1334.32,325.897 1336.31,160.492 1338.3,147.724 1340.3,464.293 1342.29,150.771 1344.28,206.544 1346.28,323.979 1348.27,385.405 1350.26,231.279 1352.26,234.729 1354.25,180.118 1356.24,188.421 1358.24,338.028 1360.23,291.666 1362.22,348.749 1364.22,315.543 1366.21,366.561 1368.2,435.077 1370.2,327.014 1372.19,180.408 1374.18,475.102 1376.17,258.861 1378.17,150.063 1380.16,172.458 1382.15,172.031 1384.15,357.016 1386.14,391.963 1388.13,126.206 1390.13,301.434 1392.12,189.572 1394.11,190.297 1396.11,233.455 1398.1,165.534 1400.09,149.8 1402.09,301.801 1404.08,472.604 1406.07,289.61 1408.06,213.938 1410.06,177.675 1412.05,155.02 1414.04,155.604 1416.04,186.843 1418.03,414.043 1420.02,152.151 1422.02,233.976 1424.01,311.471 1426,291.984 1428,328.546 1429.99,264.535 1431.98,389.346 1433.98,298.417 1435.97,242.36 1437.96,232.762 1439.96,343.239 1441.95,270.159 1443.94,107.297 1445.93,278.597 1447.93,246.639 1449.92,168.728 1451.91,250.897 1453.91,245.221 1455.9,103.336 1457.89,288.411 1459.89,258.112 1461.88,175.743 1463.87,151.249 1465.87,194.444 1467.86,190.237 1469.85,337.128 1471.85,282.934 1473.84,295.152 1475.83,427.761 1477.82,290.796 1479.82,189.606 1481.81,231.378 1483.8,94.1709 1485.8,239.288 1487.79,172.23 1489.78,196.736 1491.78,254.641 1493.77,140.42 1495.76,296.375 1497.76,199.086 1499.75,219.127 1501.74,100.022 1503.74,215.146 1505.73,277.658 1507.72,183.656 1509.72,287.154 1511.71,167.46 1513.7,162.022 1515.69,260.155 1517.69,154.152 1519.68,277.192 1521.67,221.247 1523.67,313.164 1525.66,161.149 1527.65,170.637 1529.65,289.51 1531.64,481.391 1533.63,234.022 1535.63,168.752 1537.62,157.773 1539.61,375.735 1541.61,184.817 1543.6,237.904 1545.59,140.921 1547.59,288.869 1549.58,323.678 1551.57,251.634 1553.56,187.933 1555.56,330.143 1557.55,255.064 1559.54,248.506 1561.54,339.014 1563.53,238.976 1565.52,371.655 1567.52,209.575 1569.51,195.331 1571.5,216.557 1573.5,246.304 1575.49,251.51 1577.48,342.355 1579.48,379.377 1581.47,86.1857 1583.46,377.919 1585.45,309.468 1587.45,460.341 1589.44,187.567 1591.43,222.58 1593.43,342.035 1595.42,354.157 1597.41,221.533 1599.41,649.01 1601.4,262.463 1603.39,429.463 1605.39,182.341 1607.38,217.626 1609.37,170.533 1611.37,231.184 1613.36,312.09 1615.35,301.049 1617.35,280.612 1619.34,152.018 1621.33,186.769 1623.32,260.626 1625.32,197.608 1627.31,221.927 1629.3,179.104 1631.3,326.979 1633.29,318.912 1635.28,234.055 1637.28,296.845 1639.27,297.892 1641.26,170.842 1643.26,297.992 1645.25,338.91 1647.24,356.649 1649.24,169.94 1651.23,274.711 1653.22,171.298 1655.21,281.928 1657.21,305.56 1659.2,210.99 1661.19,138.878 1663.19,134.84 1665.18,174.786 1667.17,185.157 1669.17,295.27 1671.16,337.772 1673.15,180.711 1675.15,243.087 1677.14,232.887 1679.13,257.67 1681.13,256.025 1683.12,219.523 1685.11,326.209 1687.11,444.184 1689.1,170.949 1691.09,214.032 1693.08,338.401 1695.08,154.041 1697.07,305.079 1699.06,133.431 1701.06,229.288 1703.05,304.521 1705.04,314.157 1707.04,349.828 1709.03,243.329 1711.02,540.667 1713.02,248.982 1715.01,302.358 1717,141.895 1719,226.19 1720.99,201.889 1722.98,196.331 1724.97,129.748 1726.97,327.256 1728.96,228.009 1730.95,164.401 1732.95,141.691 1734.94,284.869 1736.93,413.192 1738.93,351.083 1740.92,293.272 1742.91,243.039 1744.91,330.652 1746.9,388.312 1748.89,230.417 1750.89,419.343 1752.88,324.973 1754.87,174.597 1756.87,260.379 1758.86,401.134 1760.85,303.993 1762.84,122.067 1764.84,238.374 1766.83,352.414 1768.82,233.282 1770.82,409.073 1772.81,371.552 1774.8,154.783 1776.8,319.596 1778.79,193.783 1780.78,421.131 1782.78,306.746 1784.77,247.986 1786.76,339.962 1788.76,230.878 1790.75,411.318 1792.74,463.273 1794.74,216.675 1796.73,157.936 1798.72,233.958 1800.71,153.075 1802.71,318.513 1804.7,220.237 1806.69,167.386 1808.69,292.684 1810.68,272.266 1812.67,408.992 1814.67,529.2 1816.66,322.994 1818.65,284.948 1820.65,208.412 1822.64,343.124 1824.63,195.889 1826.63,152.479 1828.62,197.358 1830.61,234.027 1832.6,239.288 1834.6,327.76 1836.59,246.15 1838.58,273.661 1840.58,310.429 1842.57,187.974 1844.56,425.886 1846.56,298.406 1848.55,441.882 1850.54,161.118 1852.54,655.216 1854.53,247.03 1856.52,198.652 1858.52,262.148 1860.51,223.902 1862.5,469.34 1864.5,180.866 1866.49,242.929 1868.48,321.405 1870.47,241.381 1872.47,160.051 1874.46,196.082 1876.45,312.686 1878.45,300.828 1880.44,226.313 1882.43,521.216 1884.43,191.65 1886.42,244.236 1888.41,204.546 1890.41,364.741 1892.4,229.434 1894.39,385.893 1896.39,270.756 1898.38,170.438 1900.37,205.135 1902.36,367.319 1904.36,315.539 1906.35,350.803 1908.34,184.249 1910.34,256.002 1912.33,210.812 1914.32,227.658 1916.32,236.065 1918.31,297.916 1920.3,617.681 1922.3,191.443 1924.29,306.196 1926.28,189.159 1928.28,223.588 1930.27,192.742 1932.26,495.163 1934.26,186.102 1936.25,379.776 1938.24,222.063 1940.23,280.956 1942.23,245.363 1944.22,199.839 1946.21,240.164 1948.21,207.551 1950.2,189.476 1952.19,258.996 1954.19,287.35 1956.18,260.062 1958.17,377.882 1960.17,154.197 1962.16,190.767 1964.15,151.234 1966.15,337.797 1968.14,494.247 1970.13,190.122 1972.12,297.092 1974.12,286.588 1976.11,258.009 1978.1,312.517 1980.1,256.642 1982.09,265.202 1984.08,314.803 1986.08,277.44 1988.07,254.006 1990.06,387.354 1992.06,349.906 1994.05,393.508 1996.04,185.207 1998.04,221.482 2000.03,258.724 2002.02,245.113 2004.02,439.639 2006.01,135.921 2008,296.053 2009.99,215.114 2011.99,211.289 2013.98,235.006 2015.97,396.276 2017.97,192.617 2019.96,191.165 2021.95,458.816 2023.95,245.652 2025.94,285.679 2027.93,284.024 2029.93,314.615 2031.92,298.56 2033.91,163.115 2035.91,209.021 2037.9,248.469 2039.89,318.048 2041.89,427.925 2043.88,214.999 2045.87,180.479 2047.86,307.483 2049.86,233.577 2051.85,244 2053.84,313.529 2055.84,265.955 2057.83,204.159 2059.82,198.007 2061.82,506.761 2063.81,335.022 2065.8,453.929 2067.8,510.599 2069.79,507.169 2071.78,262.273 2073.78,342.206 2075.77,235.675 2077.76,293.484 2079.75,187.492 2081.75,292.563 2083.74,311.072 2085.73,264.57 2087.73,235.6 2089.72,299.896 2091.71,266.784 2093.71,339.316 2095.7,277.122 2097.69,139.385 2099.69,387.633 2101.68,182.85 2103.67,217.587 2105.67,414.142 2107.66,573.2 2109.65,335.811 2111.65,288.07 2113.64,279.261 2115.63,252.091 2117.62,334.768 2119.62,319.657 2121.61,282.132 2123.6,220.044 2125.6,201.02 2127.59,284.56 2129.58,323.693 2131.58,262.432 2133.57,399.263 2135.56,218.027 2137.56,231.683 2139.55,188.711 2141.54,187.308 2143.54,200.086 2145.53,210.769 2147.52,278.948 2149.51,265.552 2151.51,193.172 2153.5,280.451 2155.49,321.387 2157.49,267.942 2159.48,216.356 2161.47,205.203 2163.47,130.543 2165.46,265.295 2167.45,169.668 2169.45,220.746 2171.44,292.983 2173.43,360.803 2175.43,159.871 2177.42,182.434 2179.41,339.777 2181.41,267.726 2183.4,321.921 2185.39,364.283 2187.38,361.843 2189.38,220.28 2191.37,516.266 2193.36,318.555 2195.36,300.711 2197.35,149.954 2199.34,355.752 2201.34,167.035 2203.33,607.569 2205.32,221.744 2207.32,336.55 2209.31,231.252 2211.3,284.916 2213.3,258.619 2215.29,232.991 2217.28,285.649 2219.27,306.334 2221.27,422.295 2223.26,110.693 2225.25,199.769 2227.25,365.034 2229.24,218.729 2231.23,223.508 2233.23,445.419 2235.22,328.126 2237.21,249.762 2239.21,246.771 2241.2,218.778 2243.19,285.105 2245.19,212.895 2247.18,350.253 2249.17,313.984 2251.17,231.354 2253.16,217.106 2255.15,296.59 2257.14,192.786 2259.14,294.868 2261.13,188.943 2263.12,216.714 2265.12,224.88 2267.11,207.276 2269.1,308.899 2271.1,229.387 2273.09,170.066 2275.08,212.843 2277.08,409.67 2279.07,236.888 2281.06,260.859 2283.06,269.659 2285.05,282.182 2287.04,150.918 2289.04,421.25 2291.03,238.302 2293.02,206.986 "/>
<polyline clip-path="url(#clip742)" style="stroke:#e26f46; stroke-linecap:round; stroke-linejoin:round; stroke-width:4; stroke-opacity:1; fill:none" points="301.869,909.56 303.862,1133.59 305.856,1187.13 307.849,1119.36 309.842,693.422 311.835,1322.74 313.828,936.895 315.821,1076.15 317.814,683.505 319.808,1006.45 321.801,834.551 323.794,741.491 325.787,858.265 327.78,1012.8 329.773,992.533 331.766,869.107 333.76,770.722 335.753,920.746 337.746,1013.66 339.739,911.596 341.732,725.539 343.725,634.756 345.718,1162.59 347.712,683.291 349.705,1214.08 351.698,526.677 353.691,1114.8 355.684,690.186 357.677,511.295 359.67,1000.46 361.664,614.13 363.657,885.284 365.65,674.487 367.643,522.199 369.636,870.668 371.629,713.847 373.622,649.316 375.616,835.941 377.609,854.51 379.602,282.973 381.595,520.627 383.588,705.31 385.581,761.558 387.574,1064.64 389.568,809.472 391.561,453.705 393.554,811.258 395.547,817.968 397.54,621.95 399.533,129.772 401.526,617.849 403.52,601.638 405.513,830.132 407.506,628.082 409.499,591.949 411.492,515.509 413.485,719.123 415.479,918.197 417.472,643.256 419.465,650.373 421.458,568.228 423.451,830.736 425.444,611.821 427.437,546.324 429.431,686.841 431.424,644.08 433.417,473.491 435.41,666.044 437.403,701.193 439.396,580.642 441.389,473.57 443.383,472.238 445.376,573.108 447.369,251.669 449.362,340.849 451.355,417.708 453.348,517.964 455.341,733.847 457.335,696.012 459.328,342.085 461.321,640.245 463.314,731.055 465.307,858.874 467.3,710.67 469.293,406.026 471.287,483.219 473.28,498.004 475.273,811.768 477.266,704.016 479.259,879.507 481.252,328.073 483.245,713.952 485.239,371.867 487.232,669.149 489.225,475.307 491.218,669.696 493.211,464.967 495.204,368.249 497.197,481.821 499.191,533.888 501.184,443.347 503.177,421.028 505.17,446.214 507.163,381.467 509.156,451.123 511.149,469.901 513.143,512.351 515.136,269.461 517.129,557.237 519.122,597.164 521.115,555.735 523.108,418.435 525.101,444.467 527.095,421.769 529.088,533.953 531.081,595.539 533.074,486.825 535.067,464.415 537.06,524.696 539.054,322.421 541.047,489.683 543.04,339.59 545.033,141.24 547.026,193.036 549.019,413.241 551.012,535.777 553.006,378.763 554.999,497.737 556.992,331.279 558.985,415.205 560.978,350.181 562.971,563.925 564.964,330.088 566.958,380.94 568.951,222.041 570.944,476.791 572.937,379.202 574.93,372.129 576.923,329.111 578.916,355.874 580.91,581.586 582.903,541.917 584.896,262.248 586.889,547.261 588.882,348.234 590.875,427.685 592.868,392.771 594.862,383.264 596.855,414.807 598.848,464.547 600.841,411.087 602.834,525.947 604.827,354.376 606.82,234.108 608.814,338.893 610.807,262.991 612.8,242.123 614.793,473.548 616.786,374.221 618.779,337.512 620.772,340.564 622.766,443.98 624.759,377.074 626.752,406.854 628.745,331.45 630.738,288.511 632.731,297.381 634.724,419.95 636.718,421.395 638.711,270.782 640.704,310.636 642.697,427.225 644.69,319.92 646.683,267.803 648.677,335.324 650.67,316.501 652.663,381.754 654.656,360.268 656.649,439.811 658.642,345.404 660.635,301.954 662.629,272.951 664.622,329.9 666.615,343.748 668.608,287.658 670.601,212.112 672.594,278.724 674.587,369.107 676.581,273.559 678.574,155.627 680.567,314.036 682.56,337.252 684.553,322.687 686.546,218.593 688.539,355.976 690.533,182.531 692.526,320.412 694.519,338.111 696.512,277.702 698.505,270.502 700.498,372.817 702.491,246.162 704.485,283.212 706.478,491.26 708.471,237.597 710.464,283.895 712.457,289.753 714.45,357.838 716.443,382.288 718.437,308.835 720.43,197.811 722.423,418.441 724.416,299.656 726.409,304.032 728.402,282.377 730.395,288.555 732.389,249.714 734.382,256.151 736.375,318.466 738.368,228.685 740.361,255.384 742.354,232.809 744.347,249.46 746.341,260.308 748.334,243.37 750.327,276.679 752.32,237.191 754.313,277.084 756.306,273.134 758.299,309.98 760.293,281.709 762.286,349.537 764.279,204.086 766.272,268.788 768.265,260.114 770.258,186.399 772.252,329.161 774.245,315.991 776.238,225.118 778.231,203.431 780.224,219.285 782.217,331.567 784.21,281.712 786.204,239.675 788.197,290.424 790.19,267.104 792.183,274.104 794.176,221.702 796.169,249.972 798.162,335.343 800.156,282.277 802.149,244.996 804.142,328.798 806.135,298.614 808.128,304.48 810.121,266.687 812.114,306.379 814.108,314.468 816.101,239.842 818.094,224.783 820.087,226.892 822.08,278.222 824.073,265.419 826.066,282.877 828.06,273.593 830.053,312.395 832.046,214.599 834.039,239.561 836.032,258.798 838.025,295.033 840.018,259.164 842.012,291.06 844.005,251.147 845.998,273.259 847.991,248.449 849.984,245.935 851.977,279.858 853.97,282.407 855.964,296.377 857.957,241.883 859.95,300.767 861.943,253.026 863.936,269.274 865.929,302.92 867.922,262.173 869.916,301.071 871.909,255.765 873.902,229.967 875.895,277.149 877.888,235.679 879.881,276.199 881.874,275.646 883.868,270.155 885.861,284.02 887.854,282.488 889.847,286.574 891.84,270.81 893.833,262.862 895.827,222.663 897.82,239.594 899.813,255.689 901.806,243.103 903.799,282.009 905.792,230.625 907.785,280.915 909.779,241.58 911.772,260.945 913.765,263.096 915.758,267.464 917.751,242.412 919.744,247.726 921.737,285.818 923.731,286.743 925.724,272.406 927.717,263.212 929.71,276.248 931.703,264.511 933.696,270.442 935.689,258.723 937.683,250.386 939.676,270.024 941.669,258.304 943.662,250.276 945.655,266.535 947.648,289.783 949.641,257.697 951.635,281.901 953.628,256.755 955.621,213.142 957.614,249.377 959.607,252.453 961.6,248.155 963.593,248.634 965.587,238.992 967.58,246.277 969.573,244.322 971.566,245.416 973.559,297.057 975.552,250.127 977.545,254.478 979.539,274.455 981.532,258.725 983.525,243.085 985.518,231.874 987.511,249.876 989.504,239.047 991.497,273.53 993.491,257.971 995.484,273.176 997.477,265.513 999.47,255.4 1001.46,248.252 1003.46,266.395 1005.45,265.614 1007.44,253.365 1009.44,262.05 1011.43,257.384 1013.42,249.62 1015.42,252.61 1017.41,263.874 1019.4,272.274 1021.39,267.635 1023.39,278.468 1025.38,276.191 1027.37,246.72 1029.37,255.044 1031.36,270.657 1033.35,275.137 1035.35,245.627 1037.34,251.791 1039.33,272.729 1041.33,268.687 1043.32,256.684 1045.31,263.636 1047.31,246.528 1049.3,251.318 1051.29,269.376 1053.28,272.011 1055.28,256.814 1057.27,255.272 1059.26,253.131 1061.26,259.42 1063.25,249.835 1065.24,254.797 1067.24,251.561 1069.23,263.085 1071.22,270.319 1073.22,247.184 1075.21,255.346 1077.2,259.672 1079.2,265.229 1081.19,261.05 1083.18,248.28 1085.18,259.566 1087.17,261.73 1089.16,249.462 1091.15,264.058 1093.15,267.564 1095.14,257.555 1097.13,254.498 1099.13,260.414 1101.12,247.181 1103.11,257.425 1105.11,250.345 1107.1,255.066 1109.09,260.911 1111.09,259.37 1113.08,260.547 1115.07,257.721 1117.07,256.523 1119.06,250.763 1121.05,255.753 1123.05,250.755 1125.04,259.142 1127.03,264.116 1129.02,255.92 1131.02,253.544 1133.01,257.837 1135,257.78 1137,260.14 1138.99,259.368 1140.98,258.808 1142.98,252.562 1144.97,249.314 1146.96,249.675 1148.96,256.379 1150.95,260.54 1152.94,258.246 1154.94,254.029 1156.93,258.941 1158.92,259.523 1160.91,258.955 1162.91,254.468 1164.9,257.57 1166.89,259.319 1168.89,257.925 1170.88,258.856 1172.87,254.678 1174.87,257.066 1176.86,259.029 1178.85,254.639 1180.85,258.567 1182.84,259.707 1184.83,253.463 1186.83,261.534 1188.82,262.031 1190.81,258.61 1192.81,259.387 1194.8,255.365 1196.79,254.292 1198.78,261.283 1200.78,258.291 1202.77,255.128 1204.76,257.568 1206.76,262.328 1208.75,259.506 1210.74,254.115 1212.74,258.178 1214.73,259.361 1216.72,254.301 1218.72,260.16 1220.71,258.83 1222.7,259.029 1224.7,258.458 1226.69,255.645 1228.68,257.011 1230.67,257.152 1232.67,258.159 1234.66,254.278 1236.65,254.11 1238.65,259.312 1240.64,256.993 1242.63,258.905 1244.63,255.839 1246.62,259.065 1248.61,255.987 1250.61,255.553 1252.6,257.627 1254.59,257.066 1256.59,258.054 1258.58,261.394 1260.57,254.391 1262.57,255.235 1264.56,256.768 1266.55,253.44 1268.54,257.209 1270.54,258.724 1272.53,256.025 1274.52,257.683 1276.52,259.198 1278.51,256.169 1280.5,258.303 1282.5,259.557 1284.49,260.17 1286.48,256.708 1288.48,256.845 1290.47,255.66 1292.46,256.125 1294.46,257.135 1296.45,257.325 1298.44,255.503 1300.44,258.827 1302.43,256.85 1304.42,257.758 1306.41,259.255 1308.41,258.806 1310.4,257.666 1312.39,255.104 1314.39,258.354 1316.38,257.451 1318.37,257.339 1320.37,256.872 1322.36,258.555 1324.35,257.723 1326.35,256.391 1328.34,256.496 1330.33,256.486 1332.33,258.985 1334.32,255.967 1336.31,257.802 1338.3,255.791 1340.3,259.106 1342.29,256.5 1344.28,259.172 1346.28,257.267 1348.27,256.546 1350.26,256.477 1352.26,257.633 1354.25,258.166 1356.24,257.073 1358.24,259.022 1360.23,256.274 1362.22,256.472 1364.22,256.206 1366.21,256.841 1368.2,259.44 1370.2,257.013 1372.19,257.695 1374.18,257.238 1376.17,257.058 1378.17,257.296 1380.16,256.501 1382.15,258.795 1384.15,257.925 1386.14,257.116 1388.13,258.314 1390.13,256.246 1392.12,257.112 1394.11,256.032 1396.11,256.737 1398.1,257.068 1400.09,258.203 1402.09,256.897 1404.08,257.882 1406.07,256.874 1408.06,257.525 1410.06,257.567 1412.05,256.134 1414.04,257.314 1416.04,257.975 1418.03,257.192 1420.02,257.347 1422.02,257.329 1424.01,257.519 1426,256.919 1428,257.041 1429.99,256.983 1431.98,257.48 1433.98,256.988 1435.97,256.527 1437.96,257.834 1439.96,257.514 1441.95,256.692 1443.94,256.879 1445.93,257.288 1447.93,257.546 1449.92,257.028 1451.91,257.529 1453.91,257.303 1455.9,257.435 1457.89,257.385 1459.89,257.053 1461.88,257.192 1463.87,257.393 1465.87,257.204 1467.86,256.806 1469.85,257.207 1471.85,257.427 1473.84,256.914 1475.83,257.213 1477.82,257.504 1479.82,256.968 1481.81,256.77 1483.8,257.625 1485.8,257.288 1487.79,257.006 1489.78,257.038 1491.78,256.812 1493.77,257.305 1495.76,257.162 1497.76,257.573 1499.75,257.72 1501.74,257.049 1503.74,256.99 1505.73,257.299 1507.72,257.577 1509.72,257.345 1511.71,257.201 1513.7,257.227 1515.69,256.915 1517.69,257.186 1519.68,257.111 1521.67,257.52 1523.67,257.283 1525.66,257.06 1527.65,257.032 1529.65,257.014 1531.64,257.435 1533.63,257.628 1535.63,256.948 1537.62,257.292 1539.61,257.12 1541.61,257.125 1543.6,257.559 1545.59,257.079 1547.59,257.149 1549.58,257.358 1551.57,257.113 1553.56,257.213 1555.56,257.135 1557.55,257.434 1559.54,257.069 1561.54,257.092 1563.53,257.022 1565.52,257.186 1567.52,257.136 1569.51,257.281 1571.5,257.172 1573.5,257.245 1575.49,257.043 1577.48,257.127 1579.48,257.276 1581.47,257.336 1583.46,257.091 1585.45,257.012 1587.45,257.305 1589.44,257.174 1591.43,257.116 1593.43,257.122 1595.42,257.189 1597.41,257.348 1599.41,257.155 1601.4,257.16 1603.39,257.343 1605.39,257.253 1607.38,257.204 1609.37,257.167 1611.37,257.449 1613.36,257.255 1615.35,257.226 1617.35,257.305 1619.34,257.205 1621.33,257.23 1623.32,257.21 1625.32,257.279 1627.31,257.08 1629.3,257.19 1631.3,257.226 1633.29,257.22 1635.28,257.167 1637.28,257.205 1639.27,257.264 1641.26,257.255 1643.26,257.313 1645.25,257.228 1647.24,257.207 1649.24,257.219 1651.23,257.241 1653.22,257.269 1655.21,257.27 1657.21,257.259 1659.2,257.222 1661.19,257.128 1663.19,257.228 1665.18,257.235 1667.17,257.189 1669.17,257.196 1671.16,257.267 1673.15,257.242 1675.15,257.226 1677.14,257.189 1679.13,257.277 1681.13,257.263 1683.12,257.311 1685.11,257.16 1687.11,257.233 1689.1,257.249 1691.09,257.224 1693.08,257.235 1695.08,257.207 1697.07,257.231 1699.06,257.23 1701.06,257.262 1703.05,257.221 1705.04,257.239 1707.04,257.244 1709.03,257.252 1711.02,257.188 1713.02,257.174 1715.01,257.26 1717,257.226 1719,257.23 1720.99,257.211 1722.98,257.232 1724.97,257.24 1726.97,257.25 1728.96,257.197 1730.95,257.215 1732.95,257.236 1734.94,257.239 1736.93,257.219 1738.93,257.229 1740.92,257.224 1742.91,257.245 1744.91,257.207 1746.9,257.222 1748.89,257.208 1750.89,257.201 1752.88,257.22 1754.87,257.237 1756.87,257.237 1758.86,257.225 1760.85,257.222 1762.84,257.218 1764.84,257.222 1766.83,257.241 1768.82,257.224 1770.82,257.236 1772.81,257.215 1774.8,257.206 1776.8,257.239 1778.79,257.217 1780.78,257.238 1782.78,257.222 1784.77,257.238 1786.76,257.242 1788.76,257.239 1790.75,257.232 1792.74,257.205 1794.74,257.223 1796.73,257.212 1798.72,257.245 1800.71,257.222 1802.71,257.227 1804.7,257.235 1806.69,257.23 1808.69,257.243 1810.68,257.218 1812.67,257.222 1814.67,257.216 1816.66,257.225 1818.65,257.218 1820.65,257.221 1822.64,257.238 1824.63,257.21 1826.63,257.227 1828.62,257.234 1830.61,257.214 1832.6,257.218 1834.6,257.232 1836.59,257.227 1838.58,257.216 1840.58,257.221 1842.57,257.221 1844.56,257.221 1846.56,257.228 1848.55,257.222 1850.54,257.226 1852.54,257.213 1854.53,257.218 1856.52,257.226 1858.52,257.232 1860.51,257.222 1862.5,257.222 1864.5,257.22 1866.49,257.23 1868.48,257.222 1870.47,257.219 1872.47,257.228 1874.46,257.229 1876.45,257.221 1878.45,257.224 1880.44,257.226 1882.43,257.228 1884.43,257.219 1886.42,257.227 1888.41,257.222 1890.41,257.221 1892.4,257.224 1894.39,257.227 1896.39,257.225 1898.38,257.225 1900.37,257.223 1902.36,257.224 1904.36,257.221 1906.35,257.224 1908.34,257.224 1910.34,257.224 1912.33,257.223 1914.32,257.228 1916.32,257.224 1918.31,257.226 1920.3,257.227 1922.3,257.223 1924.29,257.226 1926.28,257.223 1928.28,257.226 1930.27,257.223 1932.26,257.22 1934.26,257.224 1936.25,257.223 1938.24,257.223 1940.23,257.226 1942.23,257.222 1944.22,257.223 1946.21,257.222 1948.21,257.224 1950.2,257.224 1952.19,257.226 1954.19,257.222 1956.18,257.226 1958.17,257.225 1960.17,257.224 1962.16,257.221 1964.15,257.224 1966.15,257.224 1968.14,257.223 1970.13,257.224 1972.12,257.223 1974.12,257.223 1976.11,257.224 1978.1,257.222 1980.1,257.225 1982.09,257.223 1984.08,257.224 1986.08,257.224 1988.07,257.223 1990.06,257.224 1992.06,257.223 1994.05,257.224 1996.04,257.224 1998.04,257.224 2000.03,257.223 2002.02,257.222 2004.02,257.225 2006.01,257.223 2008,257.225 2009.99,257.224 2011.99,257.223 2013.98,257.223 2015.97,257.223 2017.97,257.224 2019.96,257.223 2021.95,257.224 2023.95,257.223 2025.94,257.224 2027.93,257.224 2029.93,257.225 2031.92,257.224 2033.91,257.223 2035.91,257.223 2037.9,257.223 2039.89,257.223 2041.89,257.222 2043.88,257.224 2045.87,257.224 2047.86,257.224 2049.86,257.223 2051.85,257.224 2053.84,257.223 2055.84,257.223 2057.83,257.223 2059.82,257.224 2061.82,257.224 2063.81,257.224 2065.8,257.223 2067.8,257.224 2069.79,257.223 2071.78,257.224 2073.78,257.223 2075.77,257.224 2077.76,257.223 2079.75,257.224 2081.75,257.224 2083.74,257.224 2085.73,257.224 2087.73,257.224 2089.72,257.223 2091.71,257.223 2093.71,257.223 2095.7,257.223 2097.69,257.224 2099.69,257.224 2101.68,257.223 2103.67,257.223 2105.67,257.224 2107.66,257.223 2109.65,257.224 2111.65,257.224 2113.64,257.223 2115.63,257.224 2117.62,257.224 2119.62,257.224 2121.61,257.223 2123.6,257.224 2125.6,257.224 2127.59,257.224 2129.58,257.224 2131.58,257.224 2133.57,257.224 2135.56,257.223 2137.56,257.224 2139.55,257.224 2141.54,257.224 2143.54,257.223 2145.53,257.224 2147.52,257.223 2149.51,257.223 2151.51,257.224 2153.5,257.223 2155.49,257.223 2157.49,257.224 2159.48,257.223 2161.47,257.223 2163.47,257.223 2165.46,257.223 2167.45,257.224 2169.45,257.224 2171.44,257.223 2173.43,257.224 2175.43,257.224 2177.42,257.223 2179.41,257.224 2181.41,257.224 2183.4,257.223 2185.39,257.223 2187.38,257.223 2189.38,257.224 2191.37,257.224 2193.36,257.224 2195.36,257.223 2197.35,257.224 2199.34,257.223 2201.34,257.223 2203.33,257.224 2205.32,257.224 2207.32,257.224 2209.31,257.224 2211.3,257.224 2213.3,257.223 2215.29,257.223 2217.28,257.224 2219.27,257.224 2221.27,257.223 2223.26,257.224 2225.25,257.224 2227.25,257.224 2229.24,257.224 2231.23,257.224 2233.23,257.224 2235.22,257.224 2237.21,257.223 2239.21,257.223 2241.2,257.223 2243.19,257.224 2245.19,257.224 2247.18,257.224 2249.17,257.223 2251.17,257.224 2253.16,257.224 2255.15,257.224 2257.14,257.224 2259.14,257.224 2261.13,257.224 2263.12,257.224 2265.12,257.223 2267.11,257.224 2269.1,257.224 2271.1,257.224 2273.09,257.224 2275.08,257.223 2277.08,257.224 2279.07,257.224 2281.06,257.224 2283.06,257.224 2285.05,257.224 2287.04,257.223 2289.04,257.223 2291.03,257.224 2293.02,257.224 "/>
<path clip-path="url(#clip740)" d="M1863.63 1377.32 L2282.4 1377.32 L2282.4 1221.8 L1863.63 1221.8  Z" fill="#ffffff" fill-rule="evenodd" fill-opacity="1"/>
<polyline clip-path="url(#clip740)" style="stroke:#000000; stroke-linecap:round; stroke-linejoin:round; stroke-width:4; stroke-opacity:1; fill:none" points="1863.63,1377.32 2282.4,1377.32 2282.4,1221.8 1863.63,1221.8 1863.63,1377.32 "/>
<polyline clip-path="url(#clip740)" style="stroke:#009af9; stroke-linecap:round; stroke-linejoin:round; stroke-width:4; stroke-opacity:1; fill:none" points="1887.08,1273.64 2027.79,1273.64 "/>
<path clip-path="url(#clip740)" d="M2055.92 1274.41 L2055.92 1287.07 L2063.42 1287.07 Q2067.19 1287.07 2069 1285.52 Q2070.83 1283.95 2070.83 1280.73 Q2070.83 1277.49 2069 1275.96 Q2067.19 1274.41 2063.42 1274.41 L2055.92 1274.41 M2055.92 1260.2 L2055.92 1270.61 L2062.84 1270.61 Q2066.27 1270.61 2067.93 1269.34 Q2069.62 1268.05 2069.62 1265.41 Q2069.62 1262.79 2067.93 1261.49 Q2066.27 1260.2 2062.84 1260.2 L2055.92 1260.2 M2051.24 1256.36 L2063.19 1256.36 Q2068.53 1256.36 2071.43 1258.58 Q2074.32 1260.8 2074.32 1264.9 Q2074.32 1268.07 2072.84 1269.94 Q2071.36 1271.82 2068.49 1272.28 Q2071.94 1273.02 2073.84 1275.38 Q2075.76 1277.72 2075.76 1281.24 Q2075.76 1285.87 2072.61 1288.39 Q2069.46 1290.92 2063.65 1290.92 L2051.24 1290.92 L2051.24 1256.36 Z" fill="#000000" fill-rule="nonzero" fill-opacity="1" /><path clip-path="url(#clip740)" d="M2088.44 1274.41 L2088.44 1287.07 L2095.94 1287.07 Q2099.72 1287.07 2101.52 1285.52 Q2103.35 1283.95 2103.35 1280.73 Q2103.35 1277.49 2101.52 1275.96 Q2099.72 1274.41 2095.94 1274.41 L2088.44 1274.41 M2088.44 1260.2 L2088.44 1270.61 L2095.36 1270.61 Q2098.79 1270.61 2100.46 1269.34 Q2102.15 1268.05 2102.15 1265.41 Q2102.15 1262.79 2100.46 1261.49 Q2098.79 1260.2 2095.36 1260.2 L2088.44 1260.2 M2083.77 1256.36 L2095.71 1256.36 Q2101.06 1256.36 2103.95 1258.58 Q2106.84 1260.8 2106.84 1264.9 Q2106.84 1268.07 2105.36 1269.94 Q2103.88 1271.82 2101.01 1272.28 Q2104.46 1273.02 2106.36 1275.38 Q2108.28 1277.72 2108.28 1281.24 Q2108.28 1285.87 2105.13 1288.39 Q2101.98 1290.92 2096.17 1290.92 L2083.77 1290.92 L2083.77 1256.36 Z" fill="#000000" fill-rule="nonzero" fill-opacity="1" /><path clip-path="url(#clip740)" d="M2123.74 1290.92 L2110.55 1256.36 L2115.43 1256.36 L2126.38 1285.45 L2137.35 1256.36 L2142.22 1256.36 L2129.04 1290.92 L2123.74 1290.92 Z" fill="#000000" fill-rule="nonzero" fill-opacity="1" /><path clip-path="url(#clip740)" d="M2147.26 1256.36 L2151.94 1256.36 L2151.94 1290.92 L2147.26 1290.92 L2147.26 1256.36 Z" fill="#000000" fill-rule="nonzero" fill-opacity="1" /><path clip-path="url(#clip740)" d="M2202.19 1259.02 L2202.19 1263.95 Q2199.83 1261.75 2197.15 1260.66 Q2194.48 1259.57 2191.47 1259.57 Q2185.55 1259.57 2182.4 1263.21 Q2179.25 1266.82 2179.25 1273.67 Q2179.25 1280.5 2182.4 1284.13 Q2185.55 1287.74 2191.47 1287.74 Q2194.48 1287.74 2197.15 1286.66 Q2199.83 1285.57 2202.19 1283.37 L2202.19 1288.25 Q2199.74 1289.92 2196.98 1290.75 Q2194.25 1291.59 2191.2 1291.59 Q2183.35 1291.59 2178.84 1286.79 Q2174.32 1281.98 2174.32 1273.67 Q2174.32 1265.34 2178.84 1260.55 Q2183.35 1255.73 2191.2 1255.73 Q2194.3 1255.73 2197.03 1256.56 Q2199.78 1257.37 2202.19 1259.02 Z" fill="#000000" fill-rule="nonzero" fill-opacity="1" /><path clip-path="url(#clip740)" d="M2209.41 1256.36 L2229.27 1256.36 L2229.27 1260.29 L2214.09 1260.29 L2214.09 1270.48 L2227.79 1270.48 L2227.79 1274.41 L2214.09 1274.41 L2214.09 1290.92 L2209.41 1290.92 L2209.41 1256.36 Z" fill="#000000" fill-rule="nonzero" fill-opacity="1" /><path clip-path="url(#clip740)" d="M2236.68 1256.36 L2258.53 1256.36 L2258.53 1260.29 L2241.36 1260.29 L2241.36 1270.52 L2257.82 1270.52 L2257.82 1274.46 L2241.36 1274.46 L2241.36 1286.98 L2258.95 1286.98 L2258.95 1290.92 L2236.68 1290.92 L2236.68 1256.36 Z" fill="#000000" fill-rule="nonzero" fill-opacity="1" /><polyline clip-path="url(#clip740)" style="stroke:#e26f46; stroke-linecap:round; stroke-linejoin:round; stroke-width:4; stroke-opacity:1; fill:none" points="1887.08,1325.48 2027.79,1325.48 "/>
<path clip-path="url(#clip740)" d="M2055.92 1326.25 L2055.92 1338.91 L2063.42 1338.91 Q2067.19 1338.91 2069 1337.36 Q2070.83 1335.79 2070.83 1332.57 Q2070.83 1329.33 2069 1327.8 Q2067.19 1326.25 2063.42 1326.25 L2055.92 1326.25 M2055.92 1312.04 L2055.92 1322.45 L2062.84 1322.45 Q2066.27 1322.45 2067.93 1321.18 Q2069.62 1319.89 2069.62 1317.25 Q2069.62 1314.63 2067.93 1313.33 Q2066.27 1312.04 2062.84 1312.04 L2055.92 1312.04 M2051.24 1308.2 L2063.19 1308.2 Q2068.53 1308.2 2071.43 1310.42 Q2074.32 1312.64 2074.32 1316.74 Q2074.32 1319.91 2072.84 1321.78 Q2071.36 1323.66 2068.49 1324.12 Q2071.94 1324.86 2073.84 1327.22 Q2075.76 1329.56 2075.76 1333.08 Q2075.76 1337.71 2072.61 1340.23 Q2069.46 1342.76 2063.65 1342.76 L2051.24 1342.76 L2051.24 1308.2 Z" fill="#000000" fill-rule="nonzero" fill-opacity="1" /><path clip-path="url(#clip740)" d="M2088.44 1326.25 L2088.44 1338.91 L2095.94 1338.91 Q2099.72 1338.91 2101.52 1337.36 Q2103.35 1335.79 2103.35 1332.57 Q2103.35 1329.33 2101.52 1327.8 Q2099.72 1326.25 2095.94 1326.25 L2088.44 1326.25 M2088.44 1312.04 L2088.44 1322.45 L2095.36 1322.45 Q2098.79 1322.45 2100.46 1321.18 Q2102.15 1319.89 2102.15 1317.25 Q2102.15 1314.63 2100.46 1313.33 Q2098.79 1312.04 2095.36 1312.04 L2088.44 1312.04 M2083.77 1308.2 L2095.71 1308.2 Q2101.06 1308.2 2103.95 1310.42 Q2106.84 1312.64 2106.84 1316.74 Q2106.84 1319.91 2105.36 1321.78 Q2103.88 1323.66 2101.01 1324.12 Q2104.46 1324.86 2106.36 1327.22 Q2108.28 1329.56 2108.28 1333.08 Q2108.28 1337.71 2105.13 1340.23 Q2101.98 1342.76 2096.17 1342.76 L2083.77 1342.76 L2083.77 1308.2 Z" fill="#000000" fill-rule="nonzero" fill-opacity="1" /><path clip-path="url(#clip740)" d="M2123.74 1342.76 L2110.55 1308.2 L2115.43 1308.2 L2126.38 1337.29 L2137.35 1308.2 L2142.22 1308.2 L2129.04 1342.76 L2123.74 1342.76 Z" fill="#000000" fill-rule="nonzero" fill-opacity="1" /><path clip-path="url(#clip740)" d="M2147.26 1308.2 L2151.94 1308.2 L2151.94 1342.76 L2147.26 1342.76 L2147.26 1308.2 Z" fill="#000000" fill-rule="nonzero" fill-opacity="1" /><path clip-path="url(#clip740)" d="M2197.03 1309.33 L2197.03 1313.89 Q2194.37 1312.62 2192.01 1311.99 Q2189.65 1311.37 2187.45 1311.37 Q2183.63 1311.37 2181.54 1312.85 Q2179.48 1314.33 2179.48 1317.06 Q2179.48 1319.35 2180.85 1320.53 Q2182.24 1321.69 2186.08 1322.41 L2188.9 1322.99 Q2194.14 1323.98 2196.61 1326.51 Q2199.11 1329.01 2199.11 1333.22 Q2199.11 1338.24 2195.73 1340.83 Q2192.38 1343.43 2185.87 1343.43 Q2183.42 1343.43 2180.64 1342.87 Q2177.89 1342.32 2174.92 1341.23 L2174.92 1336.41 Q2177.77 1338.01 2180.5 1338.82 Q2183.23 1339.63 2185.87 1339.63 Q2189.88 1339.63 2192.05 1338.06 Q2194.23 1336.48 2194.23 1333.57 Q2194.23 1331.02 2192.65 1329.58 Q2191.1 1328.15 2187.54 1327.43 L2184.69 1326.88 Q2179.46 1325.83 2177.12 1323.61 Q2174.78 1321.39 2174.78 1317.43 Q2174.78 1312.85 2178 1310.21 Q2181.24 1307.57 2186.91 1307.57 Q2189.34 1307.57 2191.87 1308.01 Q2194.39 1308.45 2197.03 1309.33 Z" fill="#000000" fill-rule="nonzero" fill-opacity="1" /><path clip-path="url(#clip740)" d="M2201.61 1308.2 L2230.85 1308.2 L2230.85 1312.13 L2218.58 1312.13 L2218.58 1342.76 L2213.88 1342.76 L2213.88 1312.13 L2201.61 1312.13 L2201.61 1308.2 Z" fill="#000000" fill-rule="nonzero" fill-opacity="1" /><path clip-path="url(#clip740)" d="M2235.36 1308.2 L2240.04 1308.2 L2240.04 1338.82 L2256.87 1338.82 L2256.87 1342.76 L2235.36 1342.76 L2235.36 1308.2 Z" fill="#000000" fill-rule="nonzero" fill-opacity="1" /></svg>
