<?xml version="1.0" encoding="utf-8"?>
<svg xmlns="http://www.w3.org/2000/svg" xmlns:xlink="http://www.w3.org/1999/xlink" width="600" height="400" viewBox="0 0 2400 1600">
<defs>
  <clipPath id="clip350">
    <rect x="0" y="0" width="2400" height="1600"/>
  </clipPath>
</defs>
<path clip-path="url(#clip350)" d="M0 1600 L2400 1600 L2400 0 L0 0  Z" fill="#ffffff" fill-rule="evenodd" fill-opacity="1"/>
<defs>
  <clipPath id="clip351">
    <rect x="242" y="47" width="2112" height="1377"/>
  </clipPath>
</defs>
<path clip-path="url(#clip350)" d="M251.56 1423.18 L2352.76 1423.18 L2352.76 47.2441 L251.56 47.2441  Z" fill="#ffffff" fill-rule="evenodd" fill-opacity="1"/>
<defs>
  <clipPath id="clip352">
    <rect x="251" y="47" width="2102" height="1377"/>
  </clipPath>
</defs>
<polyline clip-path="url(#clip352)" style="stroke:#000000; stroke-linecap:round; stroke-linejoin:round; stroke-width:2; stroke-opacity:0.1; fill:none" points="309.044,1423.18 309.044,47.2441 "/>
<polyline clip-path="url(#clip352)" style="stroke:#000000; stroke-linecap:round; stroke-linejoin:round; stroke-width:2; stroke-opacity:0.1; fill:none" points="805.105,1423.18 805.105,47.2441 "/>
<polyline clip-path="url(#clip352)" style="stroke:#000000; stroke-linecap:round; stroke-linejoin:round; stroke-width:2; stroke-opacity:0.1; fill:none" points="1301.17,1423.18 1301.17,47.2441 "/>
<polyline clip-path="url(#clip352)" style="stroke:#000000; stroke-linecap:round; stroke-linejoin:round; stroke-width:2; stroke-opacity:0.1; fill:none" points="1797.23,1423.18 1797.23,47.2441 "/>
<polyline clip-path="url(#clip352)" style="stroke:#000000; stroke-linecap:round; stroke-linejoin:round; stroke-width:2; stroke-opacity:0.1; fill:none" points="2293.29,1423.18 2293.29,47.2441 "/>
<polyline clip-path="url(#clip352)" style="stroke:#000000; stroke-linecap:round; stroke-linejoin:round; stroke-width:2; stroke-opacity:0.1; fill:none" points="251.56,1115.76 2352.76,1115.76 "/>
<polyline clip-path="url(#clip352)" style="stroke:#000000; stroke-linecap:round; stroke-linejoin:round; stroke-width:2; stroke-opacity:0.1; fill:none" points="251.56,228.089 2352.76,228.089 "/>
<polyline clip-path="url(#clip350)" style="stroke:#000000; stroke-linecap:round; stroke-linejoin:round; stroke-width:4; stroke-opacity:1; fill:none" points="251.56,1423.18 2352.76,1423.18 "/>
<polyline clip-path="url(#clip350)" style="stroke:#000000; stroke-linecap:round; stroke-linejoin:round; stroke-width:4; stroke-opacity:1; fill:none" points="309.044,1423.18 309.044,1404.28 "/>
<polyline clip-path="url(#clip350)" style="stroke:#000000; stroke-linecap:round; stroke-linejoin:round; stroke-width:4; stroke-opacity:1; fill:none" points="805.105,1423.18 805.105,1404.28 "/>
<polyline clip-path="url(#clip350)" style="stroke:#000000; stroke-linecap:round; stroke-linejoin:round; stroke-width:4; stroke-opacity:1; fill:none" points="1301.17,1423.18 1301.17,1404.28 "/>
<polyline clip-path="url(#clip350)" style="stroke:#000000; stroke-linecap:round; stroke-linejoin:round; stroke-width:4; stroke-opacity:1; fill:none" points="1797.23,1423.18 1797.23,1404.28 "/>
<polyline clip-path="url(#clip350)" style="stroke:#000000; stroke-linecap:round; stroke-linejoin:round; stroke-width:4; stroke-opacity:1; fill:none" points="2293.29,1423.18 2293.29,1404.28 "/>
<path clip-path="url(#clip350)" d="M309.044 1454.1 Q305.433 1454.1 303.604 1457.66 Q301.798 1461.2 301.798 1468.33 Q301.798 1475.44 303.604 1479.01 Q305.433 1482.55 309.044 1482.55 Q312.678 1482.55 314.484 1479.01 Q316.312 1475.44 316.312 1468.33 Q316.312 1461.2 314.484 1457.66 Q312.678 1454.1 309.044 1454.1 M309.044 1450.39 Q314.854 1450.39 317.91 1455 Q320.988 1459.58 320.988 1468.33 Q320.988 1477.06 317.91 1481.67 Q314.854 1486.25 309.044 1486.25 Q303.234 1486.25 300.155 1481.67 Q297.099 1477.06 297.099 1468.33 Q297.099 1459.58 300.155 1455 Q303.234 1450.39 309.044 1450.39 Z" fill="#000000" fill-rule="nonzero" fill-opacity="1" /><path clip-path="url(#clip350)" d="M768.797 1481.64 L785.117 1481.64 L785.117 1485.58 L763.172 1485.58 L763.172 1481.64 Q765.834 1478.89 770.418 1474.26 Q775.024 1469.61 776.205 1468.27 Q778.45 1465.74 779.33 1464.01 Q780.232 1462.25 780.232 1460.56 Q780.232 1457.8 778.288 1456.07 Q776.367 1454.33 773.265 1454.33 Q771.066 1454.33 768.612 1455.09 Q766.181 1455.86 763.404 1457.41 L763.404 1452.69 Q766.228 1451.55 768.681 1450.97 Q771.135 1450.39 773.172 1450.39 Q778.543 1450.39 781.737 1453.08 Q784.931 1455.77 784.931 1460.26 Q784.931 1462.39 784.121 1464.31 Q783.334 1466.2 781.228 1468.8 Q780.649 1469.47 777.547 1472.69 Q774.445 1475.88 768.797 1481.64 Z" fill="#000000" fill-rule="nonzero" fill-opacity="1" /><path clip-path="url(#clip350)" d="M794.978 1451.02 L813.334 1451.02 L813.334 1454.96 L799.26 1454.96 L799.26 1463.43 Q800.279 1463.08 801.297 1462.92 Q802.316 1462.73 803.334 1462.73 Q809.121 1462.73 812.501 1465.9 Q815.88 1469.08 815.88 1474.49 Q815.88 1480.07 812.408 1483.17 Q808.936 1486.25 802.616 1486.25 Q800.441 1486.25 798.172 1485.88 Q795.927 1485.51 793.519 1484.77 L793.519 1480.07 Q795.603 1481.2 797.825 1481.76 Q800.047 1482.32 802.524 1482.32 Q806.528 1482.32 808.866 1480.21 Q811.204 1478.1 811.204 1474.49 Q811.204 1470.88 808.866 1468.77 Q806.528 1466.67 802.524 1466.67 Q800.649 1466.67 798.774 1467.08 Q796.922 1467.5 794.978 1468.38 L794.978 1451.02 Z" fill="#000000" fill-rule="nonzero" fill-opacity="1" /><path clip-path="url(#clip350)" d="M835.093 1454.1 Q831.482 1454.1 829.653 1457.66 Q827.848 1461.2 827.848 1468.33 Q827.848 1475.44 829.653 1479.01 Q831.482 1482.55 835.093 1482.55 Q838.727 1482.55 840.533 1479.01 Q842.362 1475.44 842.362 1468.33 Q842.362 1461.2 840.533 1457.66 Q838.727 1454.1 835.093 1454.1 M835.093 1450.39 Q840.903 1450.39 843.959 1455 Q847.038 1459.58 847.038 1468.33 Q847.038 1477.06 843.959 1481.67 Q840.903 1486.25 835.093 1486.25 Q829.283 1486.25 826.204 1481.67 Q823.149 1477.06 823.149 1468.33 Q823.149 1459.58 826.204 1455 Q829.283 1450.39 835.093 1450.39 Z" fill="#000000" fill-rule="nonzero" fill-opacity="1" /><path clip-path="url(#clip350)" d="M1260.78 1451.02 L1279.14 1451.02 L1279.14 1454.96 L1265.07 1454.96 L1265.07 1463.43 Q1266.09 1463.08 1267.1 1462.92 Q1268.12 1462.73 1269.14 1462.73 Q1274.93 1462.73 1278.31 1465.9 Q1281.69 1469.08 1281.69 1474.49 Q1281.69 1480.07 1278.21 1483.17 Q1274.74 1486.25 1268.42 1486.25 Q1266.25 1486.25 1263.98 1485.88 Q1261.73 1485.51 1259.33 1484.77 L1259.33 1480.07 Q1261.41 1481.2 1263.63 1481.76 Q1265.85 1482.32 1268.33 1482.32 Q1272.34 1482.32 1274.67 1480.21 Q1277.01 1478.1 1277.01 1474.49 Q1277.01 1470.88 1274.67 1468.77 Q1272.34 1466.67 1268.33 1466.67 Q1266.46 1466.67 1264.58 1467.08 Q1262.73 1467.5 1260.78 1468.38 L1260.78 1451.02 Z" fill="#000000" fill-rule="nonzero" fill-opacity="1" /><path clip-path="url(#clip350)" d="M1300.9 1454.1 Q1297.29 1454.1 1295.46 1457.66 Q1293.65 1461.2 1293.65 1468.33 Q1293.65 1475.44 1295.46 1479.01 Q1297.29 1482.55 1300.9 1482.55 Q1304.53 1482.55 1306.34 1479.01 Q1308.17 1475.44 1308.17 1468.33 Q1308.17 1461.2 1306.34 1457.66 Q1304.53 1454.1 1300.9 1454.1 M1300.9 1450.39 Q1306.71 1450.39 1309.77 1455 Q1312.84 1459.58 1312.84 1468.33 Q1312.84 1477.06 1309.77 1481.67 Q1306.71 1486.25 1300.9 1486.25 Q1295.09 1486.25 1292.01 1481.67 Q1288.96 1477.06 1288.96 1468.33 Q1288.96 1459.58 1292.01 1455 Q1295.09 1450.39 1300.9 1450.39 Z" fill="#000000" fill-rule="nonzero" fill-opacity="1" /><path clip-path="url(#clip350)" d="M1331.06 1454.1 Q1327.45 1454.1 1325.62 1457.66 Q1323.82 1461.2 1323.82 1468.33 Q1323.82 1475.44 1325.62 1479.01 Q1327.45 1482.55 1331.06 1482.55 Q1334.7 1482.55 1336.5 1479.01 Q1338.33 1475.44 1338.33 1468.33 Q1338.33 1461.2 1336.5 1457.66 Q1334.7 1454.1 1331.06 1454.1 M1331.06 1450.39 Q1336.87 1450.39 1339.93 1455 Q1343.01 1459.58 1343.01 1468.33 Q1343.01 1477.06 1339.93 1481.67 Q1336.87 1486.25 1331.06 1486.25 Q1325.25 1486.25 1322.17 1481.67 Q1319.12 1477.06 1319.12 1468.33 Q1319.12 1459.58 1322.17 1455 Q1325.25 1450.39 1331.06 1450.39 Z" fill="#000000" fill-rule="nonzero" fill-opacity="1" /><path clip-path="url(#clip350)" d="M1755.5 1451.02 L1777.72 1451.02 L1777.72 1453.01 L1765.18 1485.58 L1760.29 1485.58 L1772.1 1454.96 L1755.5 1454.96 L1755.5 1451.02 Z" fill="#000000" fill-rule="nonzero" fill-opacity="1" /><path clip-path="url(#clip350)" d="M1786.89 1451.02 L1805.25 1451.02 L1805.25 1454.96 L1791.17 1454.96 L1791.17 1463.43 Q1792.19 1463.08 1793.21 1462.92 Q1794.23 1462.73 1795.25 1462.73 Q1801.03 1462.73 1804.41 1465.9 Q1807.79 1469.08 1807.79 1474.49 Q1807.79 1480.07 1804.32 1483.17 Q1800.85 1486.25 1794.53 1486.25 Q1792.35 1486.25 1790.09 1485.88 Q1787.84 1485.51 1785.43 1484.77 L1785.43 1480.07 Q1787.52 1481.2 1789.74 1481.76 Q1791.96 1482.32 1794.44 1482.32 Q1798.44 1482.32 1800.78 1480.21 Q1803.12 1478.1 1803.12 1474.49 Q1803.12 1470.88 1800.78 1468.77 Q1798.44 1466.67 1794.44 1466.67 Q1792.56 1466.67 1790.69 1467.08 Q1788.84 1467.5 1786.89 1468.38 L1786.89 1451.02 Z" fill="#000000" fill-rule="nonzero" fill-opacity="1" /><path clip-path="url(#clip350)" d="M1827.01 1454.1 Q1823.4 1454.1 1821.57 1457.66 Q1819.76 1461.2 1819.76 1468.33 Q1819.76 1475.44 1821.57 1479.01 Q1823.4 1482.55 1827.01 1482.55 Q1830.64 1482.55 1832.45 1479.01 Q1834.28 1475.44 1834.28 1468.33 Q1834.28 1461.2 1832.45 1457.66 Q1830.64 1454.1 1827.01 1454.1 M1827.01 1450.39 Q1832.82 1450.39 1835.87 1455 Q1838.95 1459.58 1838.95 1468.33 Q1838.95 1477.06 1835.87 1481.67 Q1832.82 1486.25 1827.01 1486.25 Q1821.2 1486.25 1818.12 1481.67 Q1815.06 1477.06 1815.06 1468.33 Q1815.06 1459.58 1818.12 1455 Q1821.2 1450.39 1827.01 1450.39 Z" fill="#000000" fill-rule="nonzero" fill-opacity="1" /><path clip-path="url(#clip350)" d="M2237.81 1481.64 L2245.45 1481.64 L2245.45 1455.28 L2237.14 1456.95 L2237.14 1452.69 L2245.41 1451.02 L2250.08 1451.02 L2250.08 1481.64 L2257.72 1481.64 L2257.72 1485.58 L2237.81 1485.58 L2237.81 1481.64 Z" fill="#000000" fill-rule="nonzero" fill-opacity="1" /><path clip-path="url(#clip350)" d="M2277.17 1454.1 Q2273.55 1454.1 2271.73 1457.66 Q2269.92 1461.2 2269.92 1468.33 Q2269.92 1475.44 2271.73 1479.01 Q2273.55 1482.55 2277.17 1482.55 Q2280.8 1482.55 2282.61 1479.01 Q2284.43 1475.44 2284.43 1468.33 Q2284.43 1461.2 2282.61 1457.66 Q2280.8 1454.1 2277.17 1454.1 M2277.17 1450.39 Q2282.98 1450.39 2286.03 1455 Q2289.11 1459.58 2289.11 1468.33 Q2289.11 1477.06 2286.03 1481.67 Q2282.98 1486.25 2277.17 1486.25 Q2271.36 1486.25 2268.28 1481.67 Q2265.22 1477.06 2265.22 1468.33 Q2265.22 1459.58 2268.28 1455 Q2271.36 1450.39 2277.17 1450.39 Z" fill="#000000" fill-rule="nonzero" fill-opacity="1" /><path clip-path="url(#clip350)" d="M2307.33 1454.1 Q2303.72 1454.1 2301.89 1457.66 Q2300.08 1461.2 2300.08 1468.33 Q2300.08 1475.44 2301.89 1479.01 Q2303.72 1482.55 2307.33 1482.55 Q2310.96 1482.55 2312.77 1479.01 Q2314.6 1475.44 2314.6 1468.33 Q2314.6 1461.2 2312.77 1457.66 Q2310.96 1454.1 2307.33 1454.1 M2307.33 1450.39 Q2313.14 1450.39 2316.19 1455 Q2319.27 1459.58 2319.27 1468.33 Q2319.27 1477.06 2316.19 1481.67 Q2313.14 1486.25 2307.33 1486.25 Q2301.52 1486.25 2298.44 1481.67 Q2295.38 1477.06 2295.38 1468.33 Q2295.38 1459.58 2298.44 1455 Q2301.52 1450.39 2307.33 1450.39 Z" fill="#000000" fill-rule="nonzero" fill-opacity="1" /><path clip-path="url(#clip350)" d="M2337.49 1454.1 Q2333.88 1454.1 2332.05 1457.66 Q2330.24 1461.2 2330.24 1468.33 Q2330.24 1475.44 2332.05 1479.01 Q2333.88 1482.55 2337.49 1482.55 Q2341.12 1482.55 2342.93 1479.01 Q2344.76 1475.44 2344.76 1468.33 Q2344.76 1461.2 2342.93 1457.66 Q2341.12 1454.1 2337.49 1454.1 M2337.49 1450.39 Q2343.3 1450.39 2346.35 1455 Q2349.43 1459.58 2349.43 1468.33 Q2349.43 1477.06 2346.35 1481.67 Q2343.3 1486.25 2337.49 1486.25 Q2331.68 1486.25 2328.6 1481.67 Q2325.54 1477.06 2325.54 1468.33 Q2325.54 1459.58 2328.6 1455 Q2331.68 1450.39 2337.49 1450.39 Z" fill="#000000" fill-rule="nonzero" fill-opacity="1" /><path clip-path="url(#clip350)" d="M1169.88 1520.52 L1176.31 1520.52 L1176.31 1568.04 L1169.88 1568.04 L1169.88 1520.52 Z" fill="#000000" fill-rule="nonzero" fill-opacity="1" /><path clip-path="url(#clip350)" d="M1194.64 1522.27 L1194.64 1532.4 L1206.7 1532.4 L1206.7 1536.95 L1194.64 1536.95 L1194.64 1556.3 Q1194.64 1560.66 1195.82 1561.9 Q1197.03 1563.14 1200.69 1563.14 L1206.7 1563.14 L1206.7 1568.04 L1200.69 1568.04 Q1193.91 1568.04 1191.33 1565.53 Q1188.75 1562.98 1188.75 1556.3 L1188.75 1536.95 L1184.46 1536.95 L1184.46 1532.4 L1188.75 1532.4 L1188.75 1522.27 L1194.64 1522.27 Z" fill="#000000" fill-rule="nonzero" fill-opacity="1" /><path clip-path="url(#clip350)" d="M1244.9 1548.76 L1244.9 1551.62 L1217.97 1551.62 Q1218.35 1557.67 1221.6 1560.85 Q1224.88 1564 1230.7 1564 Q1234.08 1564 1237.23 1563.17 Q1240.41 1562.35 1243.53 1560.69 L1243.53 1566.23 Q1240.38 1567.57 1237.07 1568.27 Q1233.76 1568.97 1230.35 1568.97 Q1221.82 1568.97 1216.83 1564 Q1211.86 1559.04 1211.86 1550.57 Q1211.86 1541.82 1216.57 1536.69 Q1221.31 1531.54 1229.33 1531.54 Q1236.53 1531.54 1240.7 1536.18 Q1244.9 1540.8 1244.9 1548.76 M1239.04 1547.04 Q1238.98 1542.23 1236.34 1539.37 Q1233.73 1536.5 1229.4 1536.5 Q1224.5 1536.5 1221.54 1539.27 Q1218.61 1542.04 1218.16 1547.07 L1239.04 1547.04 Z" fill="#000000" fill-rule="nonzero" fill-opacity="1" /><path clip-path="url(#clip350)" d="M1275.17 1537.87 Q1274.18 1537.3 1273 1537.04 Q1271.86 1536.76 1270.46 1536.76 Q1265.49 1536.76 1262.82 1540 Q1260.18 1543.22 1260.18 1549.27 L1260.18 1568.04 L1254.29 1568.04 L1254.29 1532.4 L1260.18 1532.4 L1260.18 1537.93 Q1262.02 1534.69 1264.98 1533.13 Q1267.94 1531.54 1272.18 1531.54 Q1272.78 1531.54 1273.51 1531.63 Q1274.24 1531.7 1275.14 1531.85 L1275.17 1537.87 Z" fill="#000000" fill-rule="nonzero" fill-opacity="1" /><path clip-path="url(#clip350)" d="M1297.51 1550.12 Q1290.41 1550.12 1287.68 1551.75 Q1284.94 1553.37 1284.94 1557.29 Q1284.94 1560.4 1286.98 1562.25 Q1289.04 1564.07 1292.58 1564.07 Q1297.45 1564.07 1300.38 1560.63 Q1303.34 1557.16 1303.34 1551.43 L1303.34 1550.12 L1297.51 1550.12 M1309.19 1547.71 L1309.19 1568.04 L1303.34 1568.04 L1303.34 1562.63 Q1301.33 1565.88 1298.34 1567.44 Q1295.35 1568.97 1291.02 1568.97 Q1285.54 1568.97 1282.3 1565.91 Q1279.08 1562.82 1279.08 1557.67 Q1279.08 1551.65 1283.09 1548.6 Q1287.14 1545.54 1295.12 1545.54 L1303.34 1545.54 L1303.34 1544.97 Q1303.34 1540.93 1300.66 1538.73 Q1298.02 1536.5 1293.21 1536.5 Q1290.16 1536.5 1287.26 1537.23 Q1284.37 1537.97 1281.69 1539.43 L1281.69 1534.02 Q1284.91 1532.78 1287.93 1532.17 Q1290.95 1531.54 1293.82 1531.54 Q1301.55 1531.54 1305.37 1535.55 Q1309.19 1539.56 1309.19 1547.71 Z" fill="#000000" fill-rule="nonzero" fill-opacity="1" /><path clip-path="url(#clip350)" d="M1327.05 1522.27 L1327.05 1532.4 L1339.11 1532.4 L1339.11 1536.95 L1327.05 1536.95 L1327.05 1556.3 Q1327.05 1560.66 1328.23 1561.9 Q1329.44 1563.14 1333.1 1563.14 L1339.11 1563.14 L1339.11 1568.04 L1333.1 1568.04 Q1326.32 1568.04 1323.74 1565.53 Q1321.16 1562.98 1321.16 1556.3 L1321.16 1536.95 L1316.86 1536.95 L1316.86 1532.4 L1321.16 1532.4 L1321.16 1522.27 L1327.05 1522.27 Z" fill="#000000" fill-rule="nonzero" fill-opacity="1" /><path clip-path="url(#clip350)" d="M1346.81 1532.4 L1352.67 1532.4 L1352.67 1568.04 L1346.81 1568.04 L1346.81 1532.4 M1346.81 1518.52 L1352.67 1518.52 L1352.67 1525.93 L1346.81 1525.93 L1346.81 1518.52 Z" fill="#000000" fill-rule="nonzero" fill-opacity="1" /><path clip-path="url(#clip350)" d="M1378.74 1536.5 Q1374.03 1536.5 1371.29 1540.19 Q1368.55 1543.85 1368.55 1550.25 Q1368.55 1556.65 1371.26 1560.34 Q1374 1564 1378.74 1564 Q1383.42 1564 1386.15 1560.31 Q1388.89 1556.62 1388.89 1550.25 Q1388.89 1543.92 1386.15 1540.23 Q1383.42 1536.5 1378.74 1536.5 M1378.74 1531.54 Q1386.38 1531.54 1390.74 1536.5 Q1395.1 1541.47 1395.1 1550.25 Q1395.1 1559 1390.74 1564 Q1386.38 1568.97 1378.74 1568.97 Q1371.07 1568.97 1366.71 1564 Q1362.38 1559 1362.38 1550.25 Q1362.38 1541.47 1366.71 1536.5 Q1371.07 1531.54 1378.74 1531.54 Z" fill="#000000" fill-rule="nonzero" fill-opacity="1" /><path clip-path="url(#clip350)" d="M1434.44 1546.53 L1434.44 1568.04 L1428.58 1568.04 L1428.58 1546.72 Q1428.58 1541.66 1426.61 1539.14 Q1424.63 1536.63 1420.69 1536.63 Q1415.95 1536.63 1413.21 1539.65 Q1410.47 1542.68 1410.47 1547.9 L1410.47 1568.04 L1404.58 1568.04 L1404.58 1532.4 L1410.47 1532.4 L1410.47 1537.93 Q1412.57 1534.72 1415.4 1533.13 Q1418.27 1531.54 1421.99 1531.54 Q1428.14 1531.54 1431.29 1535.36 Q1434.44 1539.14 1434.44 1546.53 Z" fill="#000000" fill-rule="nonzero" fill-opacity="1" /><polyline clip-path="url(#clip350)" style="stroke:#000000; stroke-linecap:round; stroke-linejoin:round; stroke-width:4; stroke-opacity:1; fill:none" points="251.56,1423.18 251.56,47.2441 "/>
<polyline clip-path="url(#clip350)" style="stroke:#000000; stroke-linecap:round; stroke-linejoin:round; stroke-width:4; stroke-opacity:1; fill:none" points="251.56,1115.76 270.458,1115.76 "/>
<polyline clip-path="url(#clip350)" style="stroke:#000000; stroke-linecap:round; stroke-linejoin:round; stroke-width:4; stroke-opacity:1; fill:none" points="251.56,228.089 270.458,228.089 "/>
<path clip-path="url(#clip350)" d="M114.931 1135.56 L122.57 1135.56 L122.57 1109.19 L114.26 1110.86 L114.26 1106.6 L122.524 1104.93 L127.2 1104.93 L127.2 1135.56 L134.839 1135.56 L134.839 1139.49 L114.931 1139.49 L114.931 1135.56 Z" fill="#000000" fill-rule="nonzero" fill-opacity="1" /><path clip-path="url(#clip350)" d="M154.283 1108.01 Q150.672 1108.01 148.843 1111.58 Q147.038 1115.12 147.038 1122.25 Q147.038 1129.35 148.843 1132.92 Q150.672 1136.46 154.283 1136.46 Q157.917 1136.46 159.723 1132.92 Q161.552 1129.35 161.552 1122.25 Q161.552 1115.12 159.723 1111.58 Q157.917 1108.01 154.283 1108.01 M154.283 1104.31 Q160.093 1104.31 163.149 1108.91 Q166.227 1113.5 166.227 1122.25 Q166.227 1130.97 163.149 1135.58 Q160.093 1140.16 154.283 1140.16 Q148.473 1140.16 145.394 1135.58 Q142.339 1130.97 142.339 1122.25 Q142.339 1113.5 145.394 1108.91 Q148.473 1104.31 154.283 1104.31 Z" fill="#000000" fill-rule="nonzero" fill-opacity="1" /><path clip-path="url(#clip350)" d="M166.227 1098.41 L190.339 1098.41 L190.339 1101.61 L166.227 1101.61 L166.227 1098.41 Z" fill="#000000" fill-rule="nonzero" fill-opacity="1" /><path clip-path="url(#clip350)" d="M198.577 1084 L213.491 1084 L213.491 1087.2 L202.056 1087.2 L202.056 1094.08 Q202.884 1093.8 203.711 1093.67 Q204.539 1093.52 205.366 1093.52 Q210.068 1093.52 212.814 1096.1 Q215.56 1098.67 215.56 1103.07 Q215.56 1107.61 212.739 1110.13 Q209.918 1112.63 204.783 1112.63 Q203.015 1112.63 201.172 1112.33 Q199.348 1112.03 197.392 1111.42 L197.392 1107.61 Q199.085 1108.53 200.89 1108.98 Q202.696 1109.43 204.708 1109.43 Q207.962 1109.43 209.861 1107.72 Q211.761 1106.01 211.761 1103.07 Q211.761 1100.14 209.861 1098.43 Q207.962 1096.72 204.708 1096.72 Q203.185 1096.72 201.661 1097.05 Q200.157 1097.39 198.577 1098.11 L198.577 1084 Z" fill="#000000" fill-rule="nonzero" fill-opacity="1" /><path clip-path="url(#clip350)" d="M144.855 247.881 L152.493 247.881 L152.493 221.516 L144.183 223.182 L144.183 218.923 L152.447 217.257 L157.123 217.257 L157.123 247.881 L164.762 247.881 L164.762 251.817 L144.855 251.817 L144.855 247.881 Z" fill="#000000" fill-rule="nonzero" fill-opacity="1" /><path clip-path="url(#clip350)" d="M184.206 220.335 Q180.595 220.335 178.766 223.9 Q176.961 227.442 176.961 234.571 Q176.961 241.678 178.766 245.242 Q180.595 248.784 184.206 248.784 Q187.84 248.784 189.646 245.242 Q191.475 241.678 191.475 234.571 Q191.475 227.442 189.646 223.9 Q187.84 220.335 184.206 220.335 M184.206 216.632 Q190.016 216.632 193.072 221.238 Q196.151 225.821 196.151 234.571 Q196.151 243.298 193.072 247.904 Q190.016 252.488 184.206 252.488 Q178.396 252.488 175.317 247.904 Q172.262 243.298 172.262 234.571 Q172.262 225.821 175.317 221.238 Q178.396 216.632 184.206 216.632 Z" fill="#000000" fill-rule="nonzero" fill-opacity="1" /><path clip-path="url(#clip350)" d="M205.855 198.828 Q202.921 198.828 201.436 201.724 Q199.969 204.602 199.969 210.394 Q199.969 216.168 201.436 219.065 Q202.921 221.942 205.855 221.942 Q208.808 221.942 210.275 219.065 Q211.761 216.168 211.761 210.394 Q211.761 204.602 210.275 201.724 Q208.808 198.828 205.855 198.828 M205.855 195.818 Q210.576 195.818 213.059 199.561 Q215.56 203.285 215.56 210.394 Q215.56 217.485 213.059 221.228 Q210.576 224.952 205.855 224.952 Q201.135 224.952 198.633 221.228 Q196.151 217.485 196.151 210.394 Q196.151 203.285 198.633 199.561 Q201.135 195.818 205.855 195.818 Z" fill="#000000" fill-rule="nonzero" fill-opacity="1" /><path clip-path="url(#clip350)" d="M33.7671 1042.8 L14.479 1042.8 L14.479 1036.95 L64.0042 1036.95 L64.0042 1042.8 L58.657 1042.8 Q61.8398 1044.65 63.3994 1047.48 Q64.9272 1050.28 64.9272 1054.23 Q64.9272 1060.69 59.771 1064.76 Q54.6147 1068.81 46.212 1068.81 Q37.8093 1068.81 32.6531 1064.76 Q27.4968 1060.69 27.4968 1054.23 Q27.4968 1050.28 29.0564 1047.48 Q30.5842 1044.65 33.7671 1042.8 M46.212 1062.76 Q52.6732 1062.76 56.3653 1060.12 Q60.0256 1057.44 60.0256 1052.8 Q60.0256 1048.15 56.3653 1045.48 Q52.6732 1042.8 46.212 1042.8 Q39.7508 1042.8 36.0905 1045.48 Q32.3984 1048.15 32.3984 1052.8 Q32.3984 1057.44 36.0905 1060.12 Q39.7508 1062.76 46.212 1062.76 Z" fill="#000000" fill-rule="nonzero" fill-opacity="1" /><path clip-path="url(#clip350)" d="M28.3562 1024.88 L28.3562 1019.03 L64.0042 1019.03 L64.0042 1024.88 L28.3562 1024.88 M14.479 1024.88 L14.479 1019.03 L21.895 1019.03 L21.895 1024.88 L14.479 1024.88 Z" fill="#000000" fill-rule="nonzero" fill-opacity="1" /><path clip-path="url(#clip350)" d="M29.4065 984.047 L34.9447 984.047 Q33.6716 986.53 33.035 989.204 Q32.3984 991.877 32.3984 994.742 Q32.3984 999.102 33.7352 1001.3 Q35.072 1003.46 37.7456 1003.46 Q39.7826 1003.46 40.9603 1001.9 Q42.1061 1000.34 43.1565 995.633 L43.6021 993.628 Q44.9389 987.389 47.3897 984.779 Q49.8086 982.138 54.1691 982.138 Q59.1344 982.138 62.0308 986.084 Q64.9272 989.999 64.9272 996.874 Q64.9272 999.739 64.3543 1002.86 Q63.8132 1005.95 62.6992 1009.38 L56.6518 1009.38 Q58.3387 1006.14 59.198 1002.99 Q60.0256 999.834 60.0256 996.747 Q60.0256 992.609 58.6251 990.381 Q57.1929 988.153 54.6147 988.153 Q52.2276 988.153 50.9545 989.777 Q49.6813 991.368 48.5037 996.811 L48.0262 998.848 Q46.8804 1004.29 44.5251 1006.71 Q42.138 1009.13 38.0002 1009.13 Q32.9713 1009.13 30.2341 1005.56 Q27.4968 1002 27.4968 995.442 Q27.4968 992.196 27.9743 989.331 Q28.4517 986.466 29.4065 984.047 Z" fill="#000000" fill-rule="nonzero" fill-opacity="1" /><path clip-path="url(#clip350)" d="M18.2347 967.019 L28.3562 967.019 L28.3562 954.956 L32.9077 954.956 L32.9077 967.019 L52.2594 967.019 Q56.6199 967.019 57.8613 965.842 Q59.1026 964.632 59.1026 960.972 L59.1026 954.956 L64.0042 954.956 L64.0042 960.972 Q64.0042 967.751 61.4897 970.329 Q58.9434 972.907 52.2594 972.907 L32.9077 972.907 L32.9077 977.204 L28.3562 977.204 L28.3562 972.907 L18.2347 972.907 L18.2347 967.019 Z" fill="#000000" fill-rule="nonzero" fill-opacity="1" /><path clip-path="url(#clip350)" d="M46.0847 931.053 Q46.0847 938.151 47.7079 940.888 Q49.3312 943.625 53.2461 943.625 Q56.3653 943.625 58.2114 941.588 Q60.0256 939.519 60.0256 935.986 Q60.0256 931.117 56.5881 928.188 Q53.1188 925.228 47.3897 925.228 L46.0847 925.228 L46.0847 931.053 M43.6657 919.372 L64.0042 919.372 L64.0042 925.228 L58.5933 925.228 Q61.8398 927.234 63.3994 930.225 Q64.9272 933.217 64.9272 937.546 Q64.9272 943.02 61.8716 946.267 Q58.7843 949.482 53.6281 949.482 Q47.6125 949.482 44.5569 945.471 Q41.5014 941.429 41.5014 933.44 L41.5014 925.228 L40.9285 925.228 Q36.8862 925.228 34.6901 927.902 Q32.4621 930.544 32.4621 935.35 Q32.4621 938.405 33.1941 941.302 Q33.9262 944.198 35.3903 946.872 L29.9795 946.872 Q28.7381 943.657 28.1334 940.633 Q27.4968 937.61 27.4968 934.745 Q27.4968 927.011 31.5072 923.191 Q35.5176 919.372 43.6657 919.372 Z" fill="#000000" fill-rule="nonzero" fill-opacity="1" /><path clip-path="url(#clip350)" d="M42.4881 877.676 L64.0042 877.676 L64.0042 883.533 L42.679 883.533 Q37.6183 883.533 35.1038 885.506 Q32.5894 887.48 32.5894 891.426 Q32.5894 896.169 35.6131 898.906 Q38.6368 901.643 43.8567 901.643 L64.0042 901.643 L64.0042 907.532 L28.3562 907.532 L28.3562 901.643 L33.8944 901.643 Q30.6797 899.543 29.0883 896.71 Q27.4968 893.845 27.4968 890.121 Q27.4968 883.979 31.3163 880.828 Q35.1038 877.676 42.4881 877.676 Z" fill="#000000" fill-rule="nonzero" fill-opacity="1" /><path clip-path="url(#clip350)" d="M29.7248 840.342 L35.1993 840.342 Q33.8307 842.824 33.1623 845.339 Q32.4621 847.821 32.4621 850.368 Q32.4621 856.065 36.0905 859.216 Q39.6872 862.367 46.212 862.367 Q52.7369 862.367 56.3653 859.216 Q59.9619 856.065 59.9619 850.368 Q59.9619 847.821 59.2935 845.339 Q58.5933 842.824 57.2247 840.342 L62.6355 840.342 Q63.7814 842.792 64.3543 845.434 Q64.9272 848.044 64.9272 851.004 Q64.9272 859.057 59.8664 863.799 Q54.8057 868.542 46.212 868.542 Q37.491 868.542 32.4939 863.767 Q27.4968 858.961 27.4968 850.622 Q27.4968 847.917 28.0697 845.339 Q28.6108 842.761 29.7248 840.342 Z" fill="#000000" fill-rule="nonzero" fill-opacity="1" /><path clip-path="url(#clip350)" d="M44.7161 799.665 L47.5806 799.665 L47.5806 826.592 Q53.6281 826.21 56.8109 822.963 Q59.9619 819.685 59.9619 813.86 Q59.9619 810.486 59.1344 807.335 Q58.3069 804.153 56.6518 801.033 L62.1899 801.033 Q63.5267 804.184 64.227 807.495 Q64.9272 810.805 64.9272 814.21 Q64.9272 822.74 59.9619 827.738 Q54.9967 832.703 46.5303 832.703 Q37.7774 832.703 32.6531 827.992 Q27.4968 823.25 27.4968 815.229 Q27.4968 808.036 32.1438 803.866 Q36.7589 799.665 44.7161 799.665 M42.9973 805.521 Q38.1912 805.585 35.3266 808.227 Q32.4621 810.837 32.4621 815.165 Q32.4621 820.067 35.2312 823.027 Q38.0002 825.955 43.0292 826.401 L42.9973 805.521 Z" fill="#000000" fill-rule="nonzero" fill-opacity="1" /><path clip-path="url(#clip350)" d="M18.2347 763.539 L28.3562 763.539 L28.3562 751.476 L32.9077 751.476 L32.9077 763.539 L52.2594 763.539 Q56.6199 763.539 57.8613 762.362 Q59.1026 761.152 59.1026 757.492 L59.1026 751.476 L64.0042 751.476 L64.0042 757.492 Q64.0042 764.271 61.4897 766.85 Q58.9434 769.428 52.2594 769.428 L32.9077 769.428 L32.9077 773.724 L28.3562 773.724 L28.3562 769.428 L18.2347 769.428 L18.2347 763.539 Z" fill="#000000" fill-rule="nonzero" fill-opacity="1" /><path clip-path="url(#clip350)" d="M32.4621 729.96 Q32.4621 734.671 36.1542 737.408 Q39.8145 740.145 46.212 740.145 Q52.6095 740.145 56.3017 737.44 Q59.9619 734.703 59.9619 729.96 Q59.9619 725.281 56.2698 722.544 Q52.5777 719.807 46.212 719.807 Q39.8781 719.807 36.186 722.544 Q32.4621 725.281 32.4621 729.96 M27.4968 729.96 Q27.4968 722.321 32.4621 717.961 Q37.4273 713.6 46.212 713.6 Q54.9649 713.6 59.9619 717.961 Q64.9272 722.321 64.9272 729.96 Q64.9272 737.631 59.9619 741.991 Q54.9649 746.32 46.212 746.32 Q37.4273 746.32 32.4621 741.991 Q27.4968 737.631 27.4968 729.96 Z" fill="#000000" fill-rule="nonzero" fill-opacity="1" /><path clip-path="url(#clip350)" d="M32.4621 669.359 Q32.4621 674.069 36.1542 676.807 Q39.8145 679.544 46.212 679.544 Q52.6095 679.544 56.3017 676.838 Q59.9619 674.101 59.9619 669.359 Q59.9619 664.68 56.2698 661.943 Q52.5777 659.205 46.212 659.205 Q39.8781 659.205 36.186 661.943 Q32.4621 664.68 32.4621 669.359 M27.4968 669.359 Q27.4968 661.72 32.4621 657.359 Q37.4273 652.999 46.212 652.999 Q54.9649 652.999 59.9619 657.359 Q64.9272 661.72 64.9272 669.359 Q64.9272 677.029 59.9619 681.39 Q54.9649 685.719 46.212 685.719 Q37.4273 685.719 32.4621 681.39 Q27.4968 677.029 27.4968 669.359 Z" fill="#000000" fill-rule="nonzero" fill-opacity="1" /><path clip-path="url(#clip350)" d="M58.657 637.626 L77.5631 637.626 L77.5631 643.514 L28.3562 643.514 L28.3562 637.626 L33.7671 637.626 Q30.5842 635.78 29.0564 632.979 Q27.4968 630.146 27.4968 626.231 Q27.4968 619.738 32.6531 615.696 Q37.8093 611.622 46.212 611.622 Q54.6147 611.622 59.771 615.696 Q64.9272 619.738 64.9272 626.231 Q64.9272 630.146 63.3994 632.979 Q61.8398 635.78 58.657 637.626 M46.212 617.701 Q39.7508 617.701 36.0905 620.375 Q32.3984 623.016 32.3984 627.663 Q32.3984 632.31 36.0905 634.984 Q39.7508 637.626 46.212 637.626 Q52.6732 637.626 56.3653 634.984 Q60.0256 632.31 60.0256 627.663 Q60.0256 623.016 56.3653 620.375 Q52.6732 617.701 46.212 617.701 Z" fill="#000000" fill-rule="nonzero" fill-opacity="1" /><path clip-path="url(#clip350)" d="M18.2347 596.121 L28.3562 596.121 L28.3562 584.058 L32.9077 584.058 L32.9077 596.121 L52.2594 596.121 Q56.6199 596.121 57.8613 594.944 Q59.1026 593.734 59.1026 590.074 L59.1026 584.058 L64.0042 584.058 L64.0042 590.074 Q64.0042 596.853 61.4897 599.431 Q58.9434 602.01 52.2594 602.01 L32.9077 602.01 L32.9077 606.306 L28.3562 606.306 L28.3562 602.01 L18.2347 602.01 L18.2347 596.121 Z" fill="#000000" fill-rule="nonzero" fill-opacity="1" /><path clip-path="url(#clip350)" d="M28.3562 576.356 L28.3562 570.499 L64.0042 570.499 L64.0042 576.356 L28.3562 576.356 M14.479 576.356 L14.479 570.499 L21.895 570.499 L21.895 576.356 L14.479 576.356 Z" fill="#000000" fill-rule="nonzero" fill-opacity="1" /><path clip-path="url(#clip350)" d="M35.1993 530.491 Q31.2526 528.295 29.3747 525.239 Q27.4968 522.184 27.4968 518.046 Q27.4968 512.476 31.4117 509.452 Q35.2948 506.428 42.4881 506.428 L64.0042 506.428 L64.0042 512.317 L42.679 512.317 Q37.5546 512.317 35.072 514.131 Q32.5894 515.945 32.5894 519.669 Q32.5894 524.221 35.6131 526.862 Q38.6368 529.504 43.8567 529.504 L64.0042 529.504 L64.0042 535.392 L42.679 535.392 Q37.5228 535.392 35.072 537.207 Q32.5894 539.021 32.5894 542.808 Q32.5894 547.296 35.6449 549.938 Q38.6686 552.58 43.8567 552.58 L64.0042 552.58 L64.0042 558.468 L28.3562 558.468 L28.3562 552.58 L33.8944 552.58 Q30.616 550.575 29.0564 547.774 Q27.4968 544.973 27.4968 541.122 Q27.4968 537.238 29.4702 534.533 Q31.4436 531.796 35.1993 530.491 Z" fill="#000000" fill-rule="nonzero" fill-opacity="1" /><path clip-path="url(#clip350)" d="M49.9359 495.352 L28.3562 495.352 L28.3562 489.496 L49.7131 489.496 Q54.7739 489.496 57.3202 487.522 Q59.8346 485.549 59.8346 481.602 Q59.8346 476.86 56.8109 474.123 Q53.7872 471.353 48.5673 471.353 L28.3562 471.353 L28.3562 465.497 L64.0042 465.497 L64.0042 471.353 L58.5296 471.353 Q61.7762 473.486 63.3676 476.319 Q64.9272 479.12 64.9272 482.844 Q64.9272 488.986 61.1078 492.169 Q57.2883 495.352 49.9359 495.352 M27.4968 480.616 L27.4968 480.616 Z" fill="#000000" fill-rule="nonzero" fill-opacity="1" /><path clip-path="url(#clip350)" d="M35.1993 425.679 Q31.2526 423.483 29.3747 420.428 Q27.4968 417.372 27.4968 413.235 Q27.4968 407.665 31.4117 404.641 Q35.2948 401.617 42.4881 401.617 L64.0042 401.617 L64.0042 407.505 L42.679 407.505 Q37.5546 407.505 35.072 409.32 Q32.5894 411.134 32.5894 414.858 Q32.5894 419.409 35.6131 422.051 Q38.6368 424.693 43.8567 424.693 L64.0042 424.693 L64.0042 430.581 L42.679 430.581 Q37.5228 430.581 35.072 432.395 Q32.5894 434.21 32.5894 437.997 Q32.5894 442.485 35.6449 445.127 Q38.6686 447.768 43.8567 447.768 L64.0042 447.768 L64.0042 453.657 L28.3562 453.657 L28.3562 447.768 L33.8944 447.768 Q30.616 445.763 29.0564 442.962 Q27.4968 440.161 27.4968 436.31 Q27.4968 432.427 29.4702 429.722 Q31.4436 426.984 35.1993 425.679 Z" fill="#000000" fill-rule="nonzero" fill-opacity="1" /><polyline clip-path="url(#clip352)" style="stroke:#009af9; stroke-linecap:round; stroke-linejoin:round; stroke-width:4; stroke-opacity:1; fill:none" points="311.028,86.1857 313.012,86.5455 314.997,86.9093 316.981,87.2683 318.965,87.6318 320.949,87.9881 322.934,88.3484 324.918,88.7034 326.902,89.0538 328.886,89.4064 330.87,89.7669 332.855,90.1224 334.839,90.4806 336.823,90.8418 338.807,91.2058 340.792,91.5768 342.776,91.9568 344.76,92.3293 346.744,92.698 348.729,93.0681 350.713,93.4363 352.697,93.8032 354.681,94.1785 356.666,94.553 358.65,94.9292 360.634,95.3112 362.618,95.692 364.603,96.0719 366.587,96.4614 368.571,96.8577 370.555,97.2517 372.54,97.6485 374.524,98.049 376.508,98.4427 378.492,98.8454 380.477,99.2445 382.461,99.6306 384.445,100.017 386.429,100.408 388.414,100.81 390.398,101.205 392.382,101.598 394.366,101.988 396.351,102.375 398.335,102.759 400.319,103.141 402.303,103.522 404.288,103.882 406.272,104.241 408.256,104.603 410.24,104.963 412.225,105.329 414.209,105.703 416.193,106.083 418.177,106.46 420.161,106.84 422.146,107.236 424.13,107.633 426.114,108.019 428.098,108.408 430.083,108.798 432.067,109.169 434.051,109.548 436.035,109.948 438.02,110.355 440.004,110.782 441.988,111.209 443.972,111.63 445.957,112.044 447.941,112.449 449.925,112.852 451.909,113.249 453.894,113.63 455.878,114.021 457.862,114.414 459.846,114.81 461.831,115.198 463.815,115.594 465.799,115.982 467.783,116.371 469.768,116.743 471.752,117.142 473.736,117.544 475.72,117.946 477.705,118.354 479.689,118.774 481.673,119.193 483.657,119.605 485.642,120.027 487.626,120.451 489.61,120.869 491.594,121.294 493.579,121.709 495.563,122.123 497.547,122.532 499.531,122.952 501.516,123.369 503.5,123.788 505.484,124.203 507.468,124.633 509.452,125.054 511.437,125.474 513.421,125.881 515.405,126.31 517.389,126.748 519.374,127.174 521.358,127.592 523.342,128.016 525.326,128.441 527.311,128.858 529.295,129.278 531.279,129.714 533.263,130.134 535.248,130.56 537.232,130.985 539.216,131.384 541.2,131.786 543.185,132.185 545.169,132.586 547.153,132.984 549.137,133.387 551.122,133.802 553.106,134.22 555.09,134.625 557.074,135.032 559.059,135.446 561.043,135.864 563.027,136.293 565.011,136.739 566.996,137.188 568.98,137.627 570.964,138.066 572.948,138.501 574.933,138.942 576.917,139.365 578.901,139.77 580.885,140.154 582.87,140.536 584.854,140.938 586.838,141.342 588.822,141.762 590.806,142.165 592.791,142.575 594.775,142.981 596.759,143.366 598.743,143.745 600.728,144.125 602.712,144.515 604.696,144.95 606.68,145.35 608.665,145.769 610.649,146.192 612.633,146.623 614.617,147.059 616.602,147.479 618.586,147.891 620.57,148.316 622.554,148.758 624.539,149.195 626.523,149.644 628.507,150.082 630.491,150.531 632.476,150.983 634.46,151.417 636.444,151.856 638.428,152.305 640.413,152.757 642.397,153.213 644.381,153.654 646.365,154.118 648.35,154.605 650.334,155.092 652.318,155.574 654.302,156.046 656.287,156.533 658.271,157.015 660.255,157.5 662.239,157.956 664.224,158.423 666.208,158.899 668.192,159.391 670.176,159.916 672.161,160.432 674.145,160.968 676.129,161.505 678.113,162.051 680.097,162.591 682.082,163.136 684.066,163.663 686.05,164.227 688.034,164.777 690.019,165.311 692.003,165.866 693.987,166.421 695.971,166.961 697.956,167.504 699.94,168.091 701.924,168.696 703.908,169.264 705.893,169.8 707.877,170.332 709.861,170.903 711.845,171.489 713.83,172.055 715.814,172.64 717.798,173.216 719.782,173.777 721.767,174.342 723.751,174.92 725.735,175.544 727.719,176.157 729.704,176.759 731.688,177.397 733.672,177.986 735.656,178.537 737.641,179.114 739.625,179.693 741.609,180.242 743.593,180.796 745.578,181.342 747.562,181.872 749.546,182.398 751.53,182.92 753.515,183.456 755.499,184.022 757.483,184.557 759.467,185.089 761.452,185.633 763.436,186.175 765.42,186.712 767.404,187.23 769.388,187.757 771.373,188.317 773.357,188.843 775.341,189.433 777.325,190.04 779.31,190.63 781.294,191.261 783.278,191.858 785.262,192.525 787.247,193.175 789.231,193.77 791.215,194.293 793.199,194.831 795.184,195.38 797.168,195.868 799.152,196.34 801.136,196.825 803.121,197.298 805.105,197.84 807.089,198.418 809.073,199.043 811.058,199.618 813.042,200.124 815.026,200.577 817.01,201.047 818.995,201.472 820.979,201.87 822.963,202.251 824.947,202.619 826.932,202.985 828.916,203.412 830.9,203.894 832.884,204.336 834.869,204.809 836.853,205.235 838.837,205.635 840.821,206.052 842.806,206.42 844.79,206.748 846.774,207.085 848.758,207.385 850.743,207.649 852.727,207.944 854.711,208.304 856.695,208.692 858.679,209.073 860.664,209.536 862.648,210.025 864.632,210.553 866.616,211.091 868.601,211.688 870.585,212.285 872.569,212.888 874.553,213.512 876.538,214.101 878.522,214.696 880.506,215.237 882.49,215.834 884.475,216.434 886.459,217.07 888.443,217.734 890.427,218.343 892.412,218.953 894.396,219.61 896.38,220.276 898.364,220.907 900.349,221.549 902.333,222.136 904.317,222.715 906.301,223.259 908.286,223.767 910.27,224.303 912.254,224.818 914.238,225.357 916.223,225.858 918.207,226.279 920.191,226.735 922.175,227.104 924.16,227.456 926.144,227.805 928.128,228.181 930.112,228.641 932.097,229.055 934.081,229.484 936.065,229.945 938.049,230.323 940.033,230.81 942.018,231.408 944.002,232.081 945.986,232.761 947.97,233.38 949.955,234.023 951.939,234.622 953.923,235.124 955.907,235.574 957.892,235.958 959.876,236.397 961.86,236.861 963.844,237.314 965.829,237.828 967.813,238.393 969.797,239.003 971.781,239.704 973.766,240.397 975.75,241.022 977.734,241.584 979.718,242.051 981.703,242.502 983.687,242.986 985.671,243.456 987.655,243.898 989.64,244.364 991.624,244.846 993.608,245.265 995.592,245.588 997.577,245.829 999.561,246.148 1001.55,246.576 1003.53,247.056 1005.51,247.541 1007.5,247.942 1009.48,248.394 1011.47,248.782 1013.45,249.062 1015.43,249.408 1017.42,249.753 1019.4,250.2 1021.39,250.606 1023.37,250.898 1025.36,251.125 1027.34,251.532 1029.32,251.943 1031.31,252.274 1033.29,252.584 1035.28,252.814 1037.26,253.045 1039.25,253.4 1041.23,253.848 1043.21,254.278 1045.2,254.74 1047.18,255.245 1049.17,255.994 1051.15,256.8 1053.14,257.646 1055.12,258.354 1057.1,259.063 1059.09,259.712 1061.07,260.255 1063.06,260.846 1065.04,261.366 1067.03,261.951 1069.01,262.57 1070.99,263.224 1072.98,263.874 1074.96,264.506 1076.95,264.961 1078.93,265.283 1080.91,265.535 1082.9,265.65 1084.88,265.704 1086.87,265.882 1088.85,266.091 1090.84,266.375 1092.82,266.823 1094.8,267.402 1096.79,267.877 1098.77,268.54 1100.76,269.291 1102.74,269.787 1104.73,270.217 1106.71,270.735 1108.69,271.323 1110.68,271.806 1112.66,272.413 1114.65,272.857 1116.63,273.281 1118.62,273.814 1120.6,274.4 1122.58,275.072 1124.57,275.846 1126.55,276.569 1128.54,277.525 1130.52,278.274 1132.51,279.177 1134.49,280.007 1136.47,280.912 1138.46,281.834 1140.44,282.91 1142.43,283.992 1144.41,284.83 1146.39,285.581 1148.38,286.526 1150.36,287.422 1152.35,288.225 1154.33,289.223 1156.32,290.138 1158.3,291.065 1160.28,291.879 1162.27,292.557 1164.25,293.397 1166.24,294.198 1168.22,294.747 1170.21,295.448 1172.19,295.897 1174.17,296.34 1176.16,297.03 1178.14,297.593 1180.13,298.085 1182.11,298.496 1184.1,298.62 1186.08,298.8 1188.06,299.023 1190.05,299.297 1192.03,299.663 1194.02,300.239 1196,300.943 1197.99,301.769 1199.97,302.851 1201.95,303.922 1203.94,304.668 1205.92,305.587 1207.91,306.507 1209.89,307.705 1211.87,308.955 1213.86,310.07 1215.84,310.959 1217.83,311.857 1219.81,312.712 1221.8,313.597 1223.78,314.526 1225.76,315.909 1227.75,317.503 1229.73,318.848 1231.72,320.148 1233.7,320.964 1235.69,321.762 1237.67,322.568 1239.65,323.138 1241.64,323.677 1243.62,324.047 1245.61,324.18 1247.59,324.386 1249.58,324.328 1251.56,324.161 1253.54,324.153 1255.53,324.122 1257.51,323.892 1259.5,323.487 1261.48,322.918 1263.47,322.313 1265.45,321.802 1267.43,321.504 1269.42,321.24 1271.4,321.177 1273.39,321.045 1275.37,321.163 1277.36,321.256 1279.34,321.13 1281.32,320.608 1283.31,320.31 1285.29,320.318 1287.28,320.266 1289.26,320.39 1291.24,320.98 1293.23,321.08 1295.21,321.474 1297.2,321.895 1299.18,322.322 1301.17,322.698 1303.15,323.075 1305.13,323.42 1307.12,323.72 1309.1,323.885 1311.09,324.148 1313.07,324.622 1315.06,324.835 1317.04,324.906 1319.02,324.869 1321.01,325.075 1322.99,325.082 1324.98,325.103 1326.96,325.523 1328.95,325.971 1330.93,326.545 1332.91,327.4 1334.9,327.985 1336.88,328.756 1338.87,329.346 1340.85,330.099 1342.84,330.907 1344.82,331.598 1346.8,332.51 1348.79,333.427 1350.77,333.776 1352.76,333.849 1354.74,334.19 1356.72,334.505 1358.71,335.205 1360.69,335.815 1362.68,336.231 1364.66,336.501 1366.65,336.781 1368.63,337.023 1370.61,336.849 1372.6,336.809 1374.58,336.206 1376.57,335.474 1378.55,335.912 1380.54,336.285 1382.52,336.705 1384.5,336.983 1386.49,336.67 1388.47,336.186 1390.46,335.488 1392.44,334.783 1394.43,334.371 1396.41,334.089 1398.39,333.788 1400.38,333.481 1402.36,333.535 1404.35,333.659 1406.33,333.596 1408.32,334.083 1410.3,334.836 1412.28,335.546 1414.27,335.681 1416.25,335.888 1418.24,335.874 1420.22,335.929 1422.2,335.82 1424.19,336.32 1426.17,336.486 1428.16,336.921 1430.14,337.627 1432.13,338.452 1434.11,338.939 1436.09,339.052 1438.08,339.014 1440.06,338.9 1442.05,338.863 1444.03,339.759 1446.02,340.849 1448,341.837 1449.98,342.554 1451.97,343.216 1453.95,342.959 1455.94,342.095 1457.92,340.959 1459.91,339.903 1461.89,338.63 1463.87,337.67 1465.86,336.729 1467.84,336.006 1469.83,335.378 1471.81,335.399 1473.8,335.232 1475.78,335.444 1477.76,335.503 1479.75,335.483 1481.73,334.977 1483.72,334.313 1485.7,333.826 1487.68,333.563 1489.67,333.461 1491.65,333.209 1493.64,332.856 1495.62,332.441 1497.61,332.117 1499.59,331.709 1501.57,331.375 1503.56,331.451 1505.54,331.575 1507.53,331.488 1509.51,330.813 1511.5,330.092 1513.48,329.652 1515.46,328.973 1517.45,328.596 1519.43,328.2 1521.42,327.941 1523.4,328.21 1525.39,328.609 1527.37,328.715 1529.35,328.698 1531.34,328.852 1533.32,328.749 1535.31,328.371 1537.29,328.124 1539.28,328.506 1541.26,328.836 1543.24,329.057 1545.23,329.5 1547.21,329.996 1549.2,330.41 1551.18,330.726 1553.16,330.728 1555.15,330.941 1557.13,331.085 1559.12,331.338 1561.1,331.345 1563.09,331.442 1565.07,332.326 1567.05,333.88 1569.04,335.025 1571.02,335.647 1573.01,336.57 1574.99,337.685 1576.98,338.544 1578.96,339.333 1580.94,340.047 1582.93,340.514 1584.91,340.753 1586.9,340.754 1588.88,340.371 1590.87,340.52 1592.85,340.381 1594.83,340.084 1596.82,339.885 1598.8,339.528 1600.79,339.956 1602.77,340.433 1604.76,340.422 1606.74,339.817 1608.72,339.396 1610.71,339.58 1612.69,339.668 1614.68,339.418 1616.66,339.622 1618.65,339.395 1620.63,339.225 1622.61,338.809 1624.6,338.44 1626.58,337.795 1628.57,337.202 1630.55,336.736 1632.53,336.144 1634.52,335.608 1636.5,335.151 1638.49,334.733 1640.47,334.249 1642.46,334.116 1644.44,333.484 1646.42,333.164 1648.41,332.614 1650.39,332.318 1652.38,332.119 1654.36,331.89 1656.35,331.424 1658.33,331.3 1660.31,331.168 1662.3,331.043 1664.28,330.883 1666.27,330.903 1668.25,331.098 1670.24,331.36 1672.22,331.557 1674.2,331.635 1676.19,331.629 1678.17,331.663 1680.16,331.63 1682.14,331.525 1684.13,331.42 1686.11,331.159 1688.09,331.048 1690.08,331.03 1692.06,330.676 1694.05,330.557 1696.03,330.433 1698.01,330.28 1700,330.313 1701.98,330.714 1703.97,331.232 1705.95,332.036 1707.94,333.09 1709.92,334.075 1711.9,334.929 1713.89,335.799 1715.87,336.385 1717.86,336.767 1719.84,337.282 1721.83,337.617 1723.81,338.084 1725.79,338.132 1727.78,338.161 1729.76,338.477 1731.75,338.719 1733.73,339.45 1735.72,341.126 1737.7,343.5 1739.68,345.571 1741.67,347.315 1743.65,348.265 1745.64,348.598 1747.62,348.722 1749.61,348.908 1751.59,349.23 1753.57,349.945 1755.56,350.358 1757.54,349.835 1759.53,349.842 1761.51,350.142 1763.49,350.015 1765.48,350.006 1767.46,349.834 1769.45,349.344 1771.43,349.169 1773.42,349.298 1775.4,349.655 1777.38,349.726 1779.37,349.595 1781.35,349.584 1783.34,349.828 1785.32,349.407 1787.31,349.102 1789.29,349.026 1791.27,348.485 1793.26,348.352 1795.24,348.874 1797.23,349.534 1799.21,350.149 1801.2,351.035 1803.18,351.928 1805.16,352.945 1807.15,353.788 1809.13,354.87 1811.12,355.819 1813.1,356.379 1815.09,356.645 1817.07,356.572 1819.05,356.391 1821.04,356.302 1823.02,356.297 1825.01,356.304 1826.99,355.658 1828.97,354.851 1830.96,354.796 1832.94,355.258 1834.93,355.283 1836.91,354.693 1838.9,353.949 1840.88,352.826 1842.86,351.737 1844.85,350.365 1846.83,349.191 1848.82,348.34 1850.8,348.025 1852.79,347.436 1854.77,346.861 1856.75,346.646 1858.74,345.554 1860.72,345.09 1862.71,344.736 1864.69,344.403 1866.68,343.862 1868.66,343.804 1870.64,343.605 1872.63,343.497 1874.61,343.729 1876.6,343.715 1878.58,343.507 1880.57,343.351 1882.55,342.732 1884.53,341.874 1886.52,341.112 1888.5,340.599 1890.49,340.004 1892.47,339.147 1894.46,338.185 1896.44,337.412 1898.42,336.705 1900.41,336.143 1902.39,335.556 1904.38,334.836 1906.36,334.201 1908.34,333.253 1910.33,332.593 1912.31,332.527 1914.3,332.467 1916.28,332.01 1918.27,331.569 1920.25,331.106 1922.23,330.685 1924.22,329.821 1926.2,328.97 1928.19,328.246 1930.17,327.364 1932.16,326.63 1934.14,325.828 1936.12,324.891 1938.11,323.817 1940.09,322.793 1942.08,321.965 1944.06,320.999 1946.05,320.305 1948.03,319.916 1950.01,319.66 1952,319.381 1953.98,318.405 1955.97,317.122 1957.95,315.671 1959.94,314.365 1961.92,313.149 1963.9,312.549 1965.89,311.967 1967.87,311.286 1969.86,310.637 1971.84,310.08 1973.82,309.442 1975.81,309.003 1977.79,308.845 1979.78,308.615 1981.76,308.462 1983.75,308.332 1985.73,308.239 1987.71,308.097 1989.7,308.031 1991.68,307.758 1993.67,307.398 1995.65,307.106 1997.64,306.594 1999.62,306.033 2001.6,305.473 2003.59,305.507 2005.57,305.781 2007.56,305.902 2009.54,305.904 2011.53,305.993 2013.51,305.866 2015.49,305.576 2017.48,305.302 2019.46,304.791 2021.45,304.223 2023.43,303.699 2025.42,303.238 2027.4,302.92 2029.38,302.773 2031.37,302.504 2033.35,302.451 2035.34,302.299 2037.32,302.087 2039.3,301.851 2041.29,301.739 2043.27,301.861 2045.26,302.232 2047.24,302.687 2049.23,303.185 2051.21,303.962 2053.19,304.82 2055.18,305.744 2057.16,306.569 2059.15,307.447 2061.13,308.502 2063.12,309.492 2065.1,310.769 2067.08,311.967 2069.07,312.895 2071.05,313.956 2073.04,314.939 2075.02,315.686 2077.01,315.978 2078.99,316.332 2080.97,316.68 2082.96,316.769 2084.94,316.771 2086.93,316.81 2088.91,317.564 2090.9,318.188 2092.88,318.726 2094.86,319.117 2096.85,319.256 2098.83,319.516 2100.82,319.69 2102.8,319.835 2104.78,319.73 2106.77,319.619 2108.75,319.279 2110.74,318.995 2112.72,318.685 2114.71,318.357 2116.69,318 2118.67,317.641 2120.66,316.922 2122.64,316.309 2124.63,315.76 2126.61,315.858 2128.6,315.884 2130.58,315.55 2132.56,316.589 2134.55,317.873 2136.53,318.923 2138.52,319.679 2140.5,320.968 2142.49,322.204 2144.47,323.792 2146.45,325.122 2148.44,326.544 2150.42,327.769 2152.41,329.657 2154.39,331.36 2156.38,332.82 2158.36,333.731 2160.34,334.137 2162.33,334.646 2164.31,334.655 2166.3,334.513 2168.28,334.682 2170.26,334.915 2172.25,335.149 2174.23,335.751 2176.22,335.789 2178.2,336.111 2180.19,335.977 2182.17,336.295 2184.15,336.359 2186.14,336.293 2188.12,336.636 2190.11,337.019 2192.09,336.857 2194.08,336.753 2196.06,337.217 2198.04,337.419 2200.03,337.11 2202.01,336.971 2204,336.919 2205.98,337.382 2207.97,337.274 2209.95,336.834 2211.93,336.541 2213.92,336.493 2215.9,336.25 2217.89,336.176 2219.87,335.933 2221.86,335.912 2223.84,335.725 2225.82,335.552 2227.81,335.044 2229.79,334.887 2231.78,334.346 2233.76,333.898 2235.75,333.596 2237.73,333.405 2239.71,333.14 2241.7,333.088 2243.68,333.178 2245.67,333.014 2247.65,332.778 2249.63,332.361 2251.62,331.876 2253.6,331.725 2255.59,331.837 2257.57,332.32 2259.56,333.204 2261.54,333.613 2263.52,334.42 2265.51,334.927 2267.49,335.363 2269.48,335.999 2271.46,336.818 2273.45,337.328 2275.43,337.164 2277.41,336.779 2279.4,336.32 2281.38,335.882 2283.37,335.546 2285.35,335.572 2287.34,335.77 2289.32,335.991 2291.3,336.121 2293.29,336.123 "/>
<polyline clip-path="url(#clip352)" style="stroke:#e26f46; stroke-linecap:round; stroke-linejoin:round; stroke-width:4; stroke-opacity:1; fill:none" points="311.028,86.2635 313.012,86.6507 314.997,87.0393 316.981,87.4301 318.965,87.8228 320.949,88.2169 322.934,88.6126 324.918,89.0104 326.902,89.4098 328.886,89.8113 330.87,90.2142 332.855,90.6175 334.839,91.0235 336.823,91.4318 338.807,91.8427 340.792,92.2557 342.776,92.6708 344.76,93.0881 346.744,93.5061 348.729,93.9255 350.713,94.3447 352.697,94.7673 354.681,95.1906 356.666,95.6147 358.65,96.0406 360.634,96.4675 362.618,96.8948 364.603,97.3237 366.587,97.7549 368.571,98.1865 370.555,98.6206 372.54,99.058 374.524,99.4953 376.508,99.9339 378.492,100.374 380.477,100.815 382.461,101.259 384.445,101.704 386.429,102.153 388.414,102.603 390.398,103.055 392.382,103.508 394.366,103.96 396.351,104.411 398.335,104.865 400.319,105.323 402.303,105.783 404.288,106.242 406.272,106.702 408.256,107.161 410.24,107.625 412.225,108.088 414.209,108.551 416.193,109.015 418.177,109.48 420.161,109.945 422.146,110.408 424.13,110.874 426.114,111.342 428.098,111.815 430.083,112.287 432.067,112.763 434.051,113.237 436.035,113.711 438.02,114.187 440.004,114.667 441.988,115.147 443.972,115.632 445.957,116.118 447.941,116.606 449.925,117.095 451.909,117.591 453.894,118.086 455.878,118.584 457.862,119.085 459.846,119.588 461.831,120.091 463.815,120.596 465.799,121.101 467.783,121.607 469.768,122.114 471.752,122.619 473.736,123.122 475.72,123.627 477.705,124.133 479.689,124.639 481.673,125.145 483.657,125.651 485.642,126.158 487.626,126.669 489.61,127.177 491.594,127.688 493.579,128.204 495.563,128.724 497.547,129.243 499.531,129.767 501.516,130.292 503.5,130.824 505.484,131.36 507.468,131.893 509.452,132.424 511.437,132.956 513.421,133.49 515.405,134.026 517.389,134.559 519.374,135.094 521.358,135.628 523.342,136.161 525.326,136.693 527.311,137.227 529.295,137.766 531.279,138.308 533.263,138.849 535.248,139.398 537.232,139.952 539.216,140.515 541.2,141.081 543.185,141.647 545.169,142.215 547.153,142.787 549.137,143.361 551.122,143.939 553.106,144.52 555.09,145.099 557.074,145.677 559.059,146.255 561.043,146.834 563.027,147.416 565.011,147.997 566.996,148.578 568.98,149.153 570.964,149.728 572.948,150.303 574.933,150.886 576.917,151.47 578.901,152.061 580.885,152.657 582.87,153.25 584.854,153.847 586.838,154.443 588.822,155.04 590.806,155.636 592.791,156.236 594.775,156.832 596.759,157.429 598.743,158.028 600.728,158.627 602.712,159.224 604.696,159.823 606.68,160.421 608.665,161.017 610.649,161.615 612.633,162.218 614.617,162.82 616.602,163.42 618.586,164.021 620.57,164.624 622.554,165.228 624.539,165.835 626.523,166.448 628.507,167.067 630.491,167.69 632.476,168.317 634.46,168.947 636.444,169.584 638.428,170.223 640.413,170.869 642.397,171.514 644.381,172.162 646.365,172.806 648.35,173.448 650.334,174.089 652.318,174.728 654.302,175.377 656.287,176.027 658.271,176.671 660.255,177.315 662.239,177.955 664.224,178.6 666.208,179.251 668.192,179.901 670.176,180.55 672.161,181.201 674.145,181.855 676.129,182.515 678.113,183.173 680.097,183.834 682.082,184.497 684.066,185.166 686.05,185.838 688.034,186.519 690.019,187.198 692.003,187.874 693.987,188.557 695.971,189.247 697.956,189.944 699.94,190.639 701.924,191.343 703.908,192.045 705.893,192.749 707.877,193.457 709.861,194.165 711.845,194.876 713.83,195.588 715.814,196.298 717.798,197.009 719.782,197.719 721.767,198.429 723.751,199.139 725.735,199.851 727.719,200.567 729.704,201.28 731.688,201.99 733.672,202.697 735.656,203.404 737.641,204.114 739.625,204.829 741.609,205.538 743.593,206.247 745.578,206.97 747.562,207.693 749.546,208.42 751.53,209.152 753.515,209.879 755.499,210.608 757.483,211.342 759.467,212.074 761.452,212.812 763.436,213.549 765.42,214.297 767.404,215.044 769.388,215.788 771.373,216.531 773.357,217.28 775.341,218.023 777.325,218.769 779.31,219.52 781.294,220.279 783.278,221.036 785.262,221.792 787.247,222.549 789.231,223.314 791.215,224.079 793.199,224.852 795.184,225.644 797.168,226.441 799.152,227.243 801.136,228.043 803.121,228.847 805.105,229.656 807.089,230.466 809.073,231.278 811.058,232.093 813.042,232.906 815.026,233.714 817.01,234.53 818.995,235.337 820.979,236.15 822.963,236.963 824.947,237.777 826.932,238.59 828.916,239.405 830.9,240.221 832.884,241.039 834.869,241.855 836.853,242.671 838.837,243.488 840.821,244.308 842.806,245.129 844.79,245.94 846.774,246.756 848.758,247.567 850.743,248.386 852.727,249.207 854.711,250.025 856.695,250.846 858.679,251.659 860.664,252.479 862.648,253.301 864.632,254.128 866.616,254.965 868.601,255.806 870.585,256.647 872.569,257.49 874.553,258.331 876.538,259.177 878.522,260.027 880.506,260.879 882.49,261.737 884.475,262.604 886.459,263.476 888.443,264.35 890.427,265.223 892.412,266.094 894.396,266.963 896.38,267.835 898.364,268.711 900.349,269.592 902.333,270.475 904.317,271.362 906.301,272.25 908.286,273.136 910.27,274.021 912.254,274.904 914.238,275.786 916.223,276.675 918.207,277.561 920.191,278.451 922.175,279.332 924.16,280.211 926.144,281.094 928.128,281.971 930.112,282.848 932.097,283.73 934.081,284.605 936.065,285.479 938.049,286.362 940.033,287.247 942.018,288.141 944.002,289.035 945.986,289.93 947.97,290.826 949.955,291.723 951.939,292.615 953.923,293.508 955.907,294.405 957.892,295.316 959.876,296.227 961.86,297.157 963.844,298.085 965.829,299.025 967.813,299.967 969.797,300.913 971.781,301.861 973.766,302.807 975.75,303.74 977.734,304.676 979.718,305.609 981.703,306.541 983.687,307.477 985.671,308.423 987.655,309.362 989.64,310.299 991.624,311.243 993.608,312.183 995.592,313.113 997.577,314.041 999.561,314.96 1001.55,315.892 1003.53,316.832 1005.51,317.797 1007.5,318.765 1009.48,319.735 1011.47,320.701 1013.45,321.676 1015.43,322.64 1017.42,323.619 1019.4,324.595 1021.39,325.553 1023.37,326.51 1025.36,327.459 1027.34,328.405 1029.32,329.369 1031.31,330.334 1033.29,331.309 1035.28,332.305 1037.26,333.298 1039.25,334.307 1041.23,335.314 1043.21,336.344 1045.2,337.359 1047.18,338.373 1049.17,339.38 1051.15,340.392 1053.14,341.41 1055.12,342.439 1057.1,343.466 1059.09,344.494 1061.07,345.516 1063.06,346.523 1065.04,347.523 1067.03,348.517 1069.01,349.526 1070.99,350.525 1072.98,351.526 1074.96,352.535 1076.95,353.545 1078.93,354.551 1080.91,355.547 1082.9,356.568 1084.88,357.585 1086.87,358.602 1088.85,359.627 1090.84,360.66 1092.82,361.687 1094.8,362.727 1096.79,363.768 1098.77,364.808 1100.76,365.844 1102.74,366.88 1104.73,367.912 1106.71,368.949 1108.69,369.993 1110.68,371.054 1112.66,372.112 1114.65,373.158 1116.63,374.195 1118.62,375.228 1120.6,376.254 1122.58,377.286 1124.57,378.324 1126.55,379.364 1128.54,380.398 1130.52,381.445 1132.51,382.494 1134.49,383.548 1136.47,384.624 1138.46,385.711 1140.44,386.781 1142.43,387.861 1144.41,388.933 1146.39,390.001 1148.38,391.061 1150.36,392.134 1152.35,393.219 1154.33,394.321 1156.32,395.422 1158.3,396.531 1160.28,397.638 1162.27,398.761 1164.25,399.888 1166.24,401.025 1168.22,402.17 1170.21,403.302 1172.19,404.424 1174.17,405.567 1176.16,406.72 1178.14,407.861 1180.13,409.014 1182.11,410.16 1184.1,411.292 1186.08,412.434 1188.06,413.573 1190.05,414.701 1192.03,415.82 1194.02,416.948 1196,418.075 1197.99,419.221 1199.97,420.374 1201.95,421.545 1203.94,422.729 1205.92,423.906 1207.91,425.071 1209.89,426.221 1211.87,427.379 1213.86,428.58 1215.84,429.767 1217.83,430.951 1219.81,432.139 1221.8,433.32 1223.78,434.513 1225.76,435.694 1227.75,436.884 1229.73,438.064 1231.72,439.23 1233.7,440.395 1235.69,441.575 1237.67,442.755 1239.65,443.955 1241.64,445.158 1243.62,446.372 1245.61,447.607 1247.59,448.845 1249.58,450.095 1251.56,451.35 1253.54,452.602 1255.53,453.863 1257.51,455.143 1259.5,456.414 1261.48,457.679 1263.47,458.944 1265.45,460.204 1267.43,461.458 1269.42,462.703 1271.4,463.945 1273.39,465.176 1275.37,466.405 1277.36,467.656 1279.34,468.91 1281.32,470.173 1283.31,471.428 1285.29,472.684 1287.28,473.96 1289.26,475.236 1291.24,476.501 1293.23,477.766 1295.21,479.031 1297.2,480.294 1299.18,481.544 1301.17,482.79 1303.15,484.04 1305.13,485.294 1307.12,486.544 1309.1,487.804 1311.09,489.06 1313.07,490.321 1315.06,491.598 1317.04,492.882 1319.02,494.162 1321.01,495.435 1322.99,496.71 1324.98,497.976 1326.96,499.238 1328.95,500.515 1330.93,501.793 1332.91,503.085 1334.9,504.357 1336.88,505.636 1338.87,506.924 1340.85,508.215 1342.84,509.491 1344.82,510.757 1346.8,512.034 1348.79,513.319 1350.77,514.616 1352.76,515.92 1354.74,517.234 1356.72,518.541 1358.71,519.839 1360.69,521.141 1362.68,522.45 1364.66,523.764 1366.65,525.068 1368.63,526.371 1370.61,527.668 1372.6,528.956 1374.58,530.257 1376.57,531.55 1378.55,532.861 1380.54,534.171 1382.52,535.483 1384.5,536.806 1386.49,538.142 1388.47,539.477 1390.46,540.839 1392.44,542.198 1394.43,543.567 1396.41,544.94 1398.39,546.313 1400.38,547.694 1402.36,549.065 1404.35,550.442 1406.33,551.81 1408.32,553.17 1410.3,554.524 1412.28,555.868 1414.27,557.216 1416.25,558.564 1418.24,559.926 1420.22,561.291 1422.2,562.67 1424.19,564.043 1426.17,565.425 1428.16,566.801 1430.14,568.165 1432.13,569.536 1434.11,570.911 1436.09,572.292 1438.08,573.7 1440.06,575.117 1442.05,576.531 1444.03,577.943 1446.02,579.372 1448,580.818 1449.98,582.254 1451.97,583.696 1453.95,585.144 1455.94,586.59 1457.92,588.033 1459.91,589.48 1461.89,590.923 1463.87,592.374 1465.86,593.829 1467.84,595.286 1469.83,596.747 1471.81,598.202 1473.8,599.654 1475.78,601.107 1477.76,602.554 1479.75,604.001 1481.73,605.452 1483.72,606.901 1485.7,608.35 1487.68,609.798 1489.67,611.243 1491.65,612.682 1493.64,614.128 1495.62,615.571 1497.61,617.022 1499.59,618.478 1501.57,619.932 1503.56,621.38 1505.54,622.823 1507.53,624.273 1509.51,625.73 1511.5,627.191 1513.48,628.657 1515.46,630.12 1517.45,631.592 1519.43,633.047 1521.42,634.485 1523.4,635.94 1525.39,637.387 1527.37,638.843 1529.35,640.285 1531.34,641.746 1533.32,643.222 1535.31,644.687 1537.29,646.166 1539.28,647.649 1541.26,649.143 1543.24,650.654 1545.23,652.179 1547.21,653.707 1549.2,655.243 1551.18,656.775 1553.16,658.298 1555.15,659.812 1557.13,661.309 1559.12,662.792 1561.1,664.302 1563.09,665.818 1565.07,667.331 1567.05,668.842 1569.04,670.328 1571.02,671.818 1573.01,673.299 1574.99,674.775 1576.98,676.266 1578.96,677.772 1580.94,679.298 1582.93,680.838 1584.91,682.373 1586.9,683.897 1588.88,685.419 1590.87,686.966 1592.85,688.527 1594.83,690.132 1596.82,691.747 1598.8,693.363 1600.79,694.978 1602.77,696.59 1604.76,698.217 1606.74,699.858 1608.72,701.503 1610.71,703.148 1612.69,704.797 1614.68,706.433 1616.66,708.069 1618.65,709.708 1620.63,711.327 1622.61,712.939 1624.6,714.536 1626.58,716.139 1628.57,717.75 1630.55,719.363 1632.53,720.991 1634.52,722.603 1636.5,724.203 1638.49,725.806 1640.47,727.396 1642.46,728.984 1644.44,730.582 1646.42,732.157 1648.41,733.722 1650.39,735.298 1652.38,736.872 1654.36,738.475 1656.35,740.087 1658.33,741.7 1660.31,743.329 1662.3,744.942 1664.28,746.56 1666.27,748.172 1668.25,749.771 1670.24,751.397 1672.22,753.043 1674.2,754.68 1676.19,756.311 1678.17,757.936 1680.16,759.537 1682.14,761.151 1684.13,762.759 1686.11,764.329 1688.09,765.931 1690.08,767.526 1692.06,769.164 1694.05,770.814 1696.03,772.439 1698.01,774.053 1700,775.663 1701.98,777.303 1703.97,778.962 1705.95,780.6 1707.94,782.27 1709.92,783.959 1711.9,785.618 1713.89,787.257 1715.87,788.901 1717.86,790.527 1719.84,792.149 1721.83,793.763 1723.81,795.379 1725.79,796.996 1727.78,798.598 1729.76,800.242 1731.75,801.902 1733.73,803.587 1735.72,805.275 1737.7,806.967 1739.68,808.695 1741.67,810.417 1743.65,812.137 1745.64,813.869 1747.62,815.578 1749.61,817.257 1751.59,818.918 1753.57,820.561 1755.56,822.227 1757.54,823.895 1759.53,825.558 1761.51,827.188 1763.49,828.879 1765.48,830.57 1767.46,832.263 1769.45,834.011 1771.43,835.769 1773.42,837.549 1775.4,839.312 1777.38,841.057 1779.37,842.783 1781.35,844.508 1783.34,846.247 1785.32,847.981 1787.31,849.688 1789.29,851.398 1791.27,853.146 1793.26,854.9 1795.24,856.667 1797.23,858.426 1799.21,860.144 1801.2,861.898 1803.18,863.661 1805.16,865.41 1807.15,867.131 1809.13,868.918 1811.12,870.71 1813.1,872.488 1815.09,874.272 1817.07,876.092 1819.05,877.901 1821.04,879.753 1823.02,881.58 1825.01,883.41 1826.99,885.22 1828.97,887.025 1830.96,888.83 1832.94,890.619 1834.93,892.41 1836.91,894.218 1838.9,896.013 1840.88,897.818 1842.86,899.589 1844.85,901.402 1846.83,903.205 1848.82,904.966 1850.8,906.749 1852.79,908.557 1854.77,910.372 1856.75,912.169 1858.74,913.971 1860.72,915.775 1862.71,917.601 1864.69,919.435 1866.68,921.253 1868.66,923.046 1870.64,924.873 1872.63,926.719 1874.61,928.544 1876.6,930.378 1878.58,932.207 1880.57,934.03 1882.55,935.862 1884.53,937.685 1886.52,939.538 1888.5,941.415 1890.49,943.283 1892.47,945.149 1894.46,947.028 1896.44,948.914 1898.42,950.816 1900.41,952.765 1902.39,954.687 1904.38,956.652 1906.36,958.615 1908.34,960.562 1910.33,962.471 1912.31,964.354 1914.3,966.248 1916.28,968.094 1918.27,969.955 1920.25,971.796 1922.23,973.65 1924.22,975.517 1926.2,977.39 1928.19,979.245 1930.17,981.091 1932.16,982.971 1934.14,984.875 1936.12,986.795 1938.11,988.724 1940.09,990.654 1942.08,992.612 1944.06,994.558 1946.05,996.538 1948.03,998.514 1950.01,1000.5 1952,1002.46 1953.98,1004.45 1955.97,1006.42 1957.95,1008.42 1959.94,1010.41 1961.92,1012.42 1963.9,1014.43 1965.89,1016.47 1967.87,1018.49 1969.86,1020.53 1971.84,1022.54 1973.82,1024.55 1975.81,1026.54 1977.79,1028.54 1979.78,1030.57 1981.76,1032.6 1983.75,1034.62 1985.73,1036.59 1987.71,1038.6 1989.7,1040.64 1991.68,1042.66 1993.67,1044.7 1995.65,1046.75 1997.64,1048.79 1999.62,1050.84 2001.6,1052.88 2003.59,1054.92 2005.57,1056.99 2007.56,1059.03 2009.54,1061.05 2011.53,1063.06 2013.51,1065.09 2015.49,1067.13 2017.48,1069.19 2019.46,1071.23 2021.45,1073.3 2023.43,1075.39 2025.42,1077.52 2027.4,1079.62 2029.38,1081.71 2031.37,1083.76 2033.35,1085.79 2035.34,1087.86 2037.32,1089.97 2039.3,1092.1 2041.29,1094.26 2043.27,1096.4 2045.26,1098.55 2047.24,1100.67 2049.23,1102.8 2051.21,1104.93 2053.19,1107.08 2055.18,1109.23 2057.16,1111.41 2059.15,1113.59 2061.13,1115.76 2063.12,1117.91 2065.1,1120.04 2067.08,1122.17 2069.07,1124.3 2071.05,1126.46 2073.04,1128.6 2075.02,1130.77 2077.01,1132.93 2078.99,1135.11 2080.97,1137.28 2082.96,1139.42 2084.94,1141.57 2086.93,1143.72 2088.91,1145.87 2090.9,1148.05 2092.88,1150.22 2094.86,1152.39 2096.85,1154.57 2098.83,1156.76 2100.82,1158.96 2102.8,1161.16 2104.78,1163.37 2106.77,1165.58 2108.75,1167.75 2110.74,1169.93 2112.72,1172.13 2114.71,1174.34 2116.69,1176.55 2118.67,1178.76 2120.66,1180.98 2122.64,1183.23 2124.63,1185.44 2126.61,1187.65 2128.6,1189.88 2130.58,1192.12 2132.56,1194.38 2134.55,1196.63 2136.53,1198.91 2138.52,1201.18 2140.5,1203.47 2142.49,1205.75 2144.47,1208.01 2146.45,1210.29 2148.44,1212.58 2150.42,1214.86 2152.41,1217.14 2154.39,1219.41 2156.38,1221.68 2158.36,1223.96 2160.34,1226.26 2162.33,1228.54 2164.31,1230.83 2166.3,1233.12 2168.28,1235.41 2170.26,1237.72 2172.25,1240.04 2174.23,1242.34 2176.22,1244.65 2178.2,1246.98 2180.19,1249.3 2182.17,1251.63 2184.15,1253.95 2186.14,1256.27 2188.12,1258.58 2190.11,1260.88 2192.09,1263.2 2194.08,1265.48 2196.06,1267.8 2198.04,1270.11 2200.03,1272.4 2202.01,1274.71 2204,1277 2205.98,1279.29 2207.97,1281.63 2209.95,1283.93 2211.93,1286.24 2213.92,1288.54 2215.9,1290.9 2217.89,1293.27 2219.87,1295.64 2221.86,1297.98 2223.84,1300.28 2225.82,1302.58 2227.81,1304.93 2229.79,1307.29 2231.78,1309.63 2233.76,1312.04 2235.75,1314.43 2237.73,1316.83 2239.71,1319.29 2241.7,1321.77 2243.68,1324.22 2245.67,1326.64 2247.65,1329.04 2249.63,1331.44 2251.62,1333.83 2253.6,1336.23 2255.59,1338.58 2257.57,1340.96 2259.56,1343.29 2261.54,1345.64 2263.52,1347.98 2265.51,1350.33 2267.49,1352.69 2269.48,1355.08 2271.46,1357.43 2273.45,1359.78 2275.43,1362.2 2277.41,1364.7 2279.4,1367.21 2281.38,1369.67 2283.37,1372.09 2285.35,1374.52 2287.34,1376.93 2289.32,1379.33 2291.3,1381.77 2293.29,1384.24 "/>
<path clip-path="url(#clip350)" d="M1864.89 248.629 L2282.72 248.629 L2282.72 93.1086 L1864.89 93.1086  Z" fill="#ffffff" fill-rule="evenodd" fill-opacity="1"/>
<polyline clip-path="url(#clip350)" style="stroke:#000000; stroke-linecap:round; stroke-linejoin:round; stroke-width:4; stroke-opacity:1; fill:none" points="1864.89,248.629 2282.72,248.629 2282.72,93.1086 1864.89,93.1086 1864.89,248.629 "/>
<polyline clip-path="url(#clip350)" style="stroke:#009af9; stroke-linecap:round; stroke-linejoin:round; stroke-width:4; stroke-opacity:1; fill:none" points="1888.24,144.949 2028.32,144.949 "/>
<path clip-path="url(#clip350)" d="M2056.34 145.724 L2056.34 158.386 L2063.84 158.386 Q2067.61 158.386 2069.42 156.835 Q2071.25 155.261 2071.25 152.043 Q2071.25 148.803 2069.42 147.275 Q2067.61 145.724 2063.84 145.724 L2056.34 145.724 M2056.34 131.511 L2056.34 141.928 L2063.26 141.928 Q2066.69 141.928 2068.35 140.655 Q2070.04 139.358 2070.04 136.719 Q2070.04 134.104 2068.35 132.807 Q2066.69 131.511 2063.26 131.511 L2056.34 131.511 M2051.66 127.669 L2063.61 127.669 Q2068.95 127.669 2071.85 129.891 Q2074.74 132.113 2074.74 136.21 Q2074.74 139.382 2073.26 141.257 Q2071.78 143.131 2068.91 143.594 Q2072.36 144.335 2074.25 146.696 Q2076.18 149.034 2076.18 152.553 Q2076.18 157.182 2073.03 159.705 Q2069.88 162.229 2064.07 162.229 L2051.66 162.229 L2051.66 127.669 Z" fill="#000000" fill-rule="nonzero" fill-opacity="1" /><path clip-path="url(#clip350)" d="M2088.86 145.724 L2088.86 158.386 L2096.36 158.386 Q2100.13 158.386 2101.94 156.835 Q2103.77 155.261 2103.77 152.043 Q2103.77 148.803 2101.94 147.275 Q2100.13 145.724 2096.36 145.724 L2088.86 145.724 M2088.86 131.511 L2088.86 141.928 L2095.78 141.928 Q2099.21 141.928 2100.87 140.655 Q2102.56 139.358 2102.56 136.719 Q2102.56 134.104 2100.87 132.807 Q2099.21 131.511 2095.78 131.511 L2088.86 131.511 M2084.19 127.669 L2096.13 127.669 Q2101.48 127.669 2104.37 129.891 Q2107.26 132.113 2107.26 136.21 Q2107.26 139.382 2105.78 141.257 Q2104.3 143.131 2101.43 143.594 Q2104.88 144.335 2106.78 146.696 Q2108.7 149.034 2108.7 152.553 Q2108.7 157.182 2105.55 159.705 Q2102.4 162.229 2096.59 162.229 L2084.19 162.229 L2084.19 127.669 Z" fill="#000000" fill-rule="nonzero" fill-opacity="1" /><path clip-path="url(#clip350)" d="M2124.16 162.229 L2110.97 127.669 L2115.85 127.669 L2126.8 156.766 L2137.77 127.669 L2142.63 127.669 L2129.46 162.229 L2124.16 162.229 Z" fill="#000000" fill-rule="nonzero" fill-opacity="1" /><path clip-path="url(#clip350)" d="M2147.68 127.669 L2152.36 127.669 L2152.36 162.229 L2147.68 162.229 L2147.68 127.669 Z" fill="#000000" fill-rule="nonzero" fill-opacity="1" /><path clip-path="url(#clip350)" d="M2202.61 130.331 L2202.61 135.261 Q2200.25 133.062 2197.56 131.974 Q2194.9 130.886 2191.89 130.886 Q2185.97 130.886 2182.82 134.52 Q2179.67 138.132 2179.67 144.983 Q2179.67 151.812 2182.82 155.446 Q2185.97 159.057 2191.89 159.057 Q2194.9 159.057 2197.56 157.969 Q2200.25 156.881 2202.61 154.682 L2202.61 159.567 Q2200.16 161.233 2197.4 162.067 Q2194.67 162.9 2191.62 162.9 Q2183.77 162.9 2179.25 158.108 Q2174.74 153.293 2174.74 144.983 Q2174.74 136.65 2179.25 131.858 Q2183.77 127.044 2191.62 127.044 Q2194.72 127.044 2197.45 127.877 Q2200.2 128.687 2202.61 130.331 Z" fill="#000000" fill-rule="nonzero" fill-opacity="1" /><path clip-path="url(#clip350)" d="M2209.83 127.669 L2229.69 127.669 L2229.69 131.604 L2214.51 131.604 L2214.51 141.789 L2228.21 141.789 L2228.21 145.724 L2214.51 145.724 L2214.51 162.229 L2209.83 162.229 L2209.83 127.669 Z" fill="#000000" fill-rule="nonzero" fill-opacity="1" /><path clip-path="url(#clip350)" d="M2237.1 127.669 L2258.95 127.669 L2258.95 131.604 L2241.78 131.604 L2241.78 141.835 L2258.24 141.835 L2258.24 145.77 L2241.78 145.77 L2241.78 158.293 L2259.37 158.293 L2259.37 162.229 L2237.1 162.229 L2237.1 127.669 Z" fill="#000000" fill-rule="nonzero" fill-opacity="1" /><polyline clip-path="url(#clip350)" style="stroke:#e26f46; stroke-linecap:round; stroke-linejoin:round; stroke-width:4; stroke-opacity:1; fill:none" points="1888.24,196.789 2028.32,196.789 "/>
<path clip-path="url(#clip350)" d="M2056.34 197.564 L2056.34 210.226 L2063.84 210.226 Q2067.61 210.226 2069.42 208.675 Q2071.25 207.101 2071.25 203.883 Q2071.25 200.643 2069.42 199.115 Q2067.61 197.564 2063.84 197.564 L2056.34 197.564 M2056.34 183.351 L2056.34 193.768 L2063.26 193.768 Q2066.69 193.768 2068.35 192.495 Q2070.04 191.198 2070.04 188.559 Q2070.04 185.944 2068.35 184.647 Q2066.69 183.351 2063.26 183.351 L2056.34 183.351 M2051.66 179.509 L2063.61 179.509 Q2068.95 179.509 2071.85 181.731 Q2074.74 183.953 2074.74 188.05 Q2074.74 191.222 2073.26 193.097 Q2071.78 194.971 2068.91 195.434 Q2072.36 196.175 2074.25 198.536 Q2076.18 200.874 2076.18 204.393 Q2076.18 209.022 2073.03 211.545 Q2069.88 214.069 2064.07 214.069 L2051.66 214.069 L2051.66 179.509 Z" fill="#000000" fill-rule="nonzero" fill-opacity="1" /><path clip-path="url(#clip350)" d="M2088.86 197.564 L2088.86 210.226 L2096.36 210.226 Q2100.13 210.226 2101.94 208.675 Q2103.77 207.101 2103.77 203.883 Q2103.77 200.643 2101.94 199.115 Q2100.13 197.564 2096.36 197.564 L2088.86 197.564 M2088.86 183.351 L2088.86 193.768 L2095.78 193.768 Q2099.21 193.768 2100.87 192.495 Q2102.56 191.198 2102.56 188.559 Q2102.56 185.944 2100.87 184.647 Q2099.21 183.351 2095.78 183.351 L2088.86 183.351 M2084.19 179.509 L2096.13 179.509 Q2101.48 179.509 2104.37 181.731 Q2107.26 183.953 2107.26 188.05 Q2107.26 191.222 2105.78 193.097 Q2104.3 194.971 2101.43 195.434 Q2104.88 196.175 2106.78 198.536 Q2108.7 200.874 2108.7 204.393 Q2108.7 209.022 2105.55 211.545 Q2102.4 214.069 2096.59 214.069 L2084.19 214.069 L2084.19 179.509 Z" fill="#000000" fill-rule="nonzero" fill-opacity="1" /><path clip-path="url(#clip350)" d="M2124.16 214.069 L2110.97 179.509 L2115.85 179.509 L2126.8 208.606 L2137.77 179.509 L2142.63 179.509 L2129.46 214.069 L2124.16 214.069 Z" fill="#000000" fill-rule="nonzero" fill-opacity="1" /><path clip-path="url(#clip350)" d="M2147.68 179.509 L2152.36 179.509 L2152.36 214.069 L2147.68 214.069 L2147.68 179.509 Z" fill="#000000" fill-rule="nonzero" fill-opacity="1" /><path clip-path="url(#clip350)" d="M2197.45 180.643 L2197.45 185.203 Q2194.79 183.93 2192.43 183.305 Q2190.06 182.68 2187.87 182.68 Q2184.05 182.68 2181.96 184.161 Q2179.9 185.643 2179.9 188.374 Q2179.9 190.666 2181.27 191.847 Q2182.66 193.004 2186.5 193.722 L2189.32 194.3 Q2194.55 195.296 2197.03 197.819 Q2199.53 200.319 2199.53 204.532 Q2199.53 209.555 2196.15 212.147 Q2192.8 214.74 2186.29 214.74 Q2183.84 214.74 2181.06 214.184 Q2178.31 213.629 2175.34 212.541 L2175.34 207.726 Q2178.19 209.323 2180.92 210.133 Q2183.65 210.944 2186.29 210.944 Q2190.3 210.944 2192.47 209.37 Q2194.65 207.796 2194.65 204.879 Q2194.65 202.333 2193.07 200.897 Q2191.52 199.462 2187.96 198.745 L2185.11 198.189 Q2179.88 197.147 2177.54 194.925 Q2175.2 192.703 2175.2 188.745 Q2175.2 184.161 2178.42 181.522 Q2181.66 178.884 2187.33 178.884 Q2189.76 178.884 2192.29 179.323 Q2194.81 179.763 2197.45 180.643 Z" fill="#000000" fill-rule="nonzero" fill-opacity="1" /><path clip-path="url(#clip350)" d="M2202.03 179.509 L2231.27 179.509 L2231.27 183.444 L2219 183.444 L2219 214.069 L2214.3 214.069 L2214.3 183.444 L2202.03 183.444 L2202.03 179.509 Z" fill="#000000" fill-rule="nonzero" fill-opacity="1" /><path clip-path="url(#clip350)" d="M2235.78 179.509 L2240.46 179.509 L2240.46 210.133 L2257.29 210.133 L2257.29 214.069 L2235.78 214.069 L2235.78 179.509 Z" fill="#000000" fill-rule="nonzero" fill-opacity="1" /></svg>
