<?xml version="1.0" encoding="utf-8"?>
<svg xmlns="http://www.w3.org/2000/svg" xmlns:xlink="http://www.w3.org/1999/xlink" width="600" height="400" viewBox="0 0 2400 1600">
<defs>
  <clipPath id="clip840">
    <rect x="0" y="0" width="2400" height="1600"/>
  </clipPath>
</defs>
<path clip-path="url(#clip840)" d="M0 1600 L2400 1600 L2400 0 L0 0  Z" fill="#ffffff" fill-rule="evenodd" fill-opacity="1"/>
<defs>
  <clipPath id="clip841">
    <rect x="438" y="47" width="1916" height="1377"/>
  </clipPath>
</defs>
<path clip-path="url(#clip840)" d="M438.036 1423.18 L2352.76 1423.18 L2352.76 47.2441 L438.036 47.2441  Z" fill="#ffffff" fill-rule="evenodd" fill-opacity="1"/>
<polyline clip-path="url(#clip841)" style="stroke:#000000; stroke-linecap:round; stroke-linejoin:round; stroke-width:2; stroke-opacity:0.1; fill:none" points="458.314,1423.18 458.314,47.2441 "/>
<polyline clip-path="url(#clip841)" style="stroke:#000000; stroke-linecap:round; stroke-linejoin:round; stroke-width:2; stroke-opacity:0.1; fill:none" points="1077.79,1423.18 1077.79,47.2441 "/>
<polyline clip-path="url(#clip841)" style="stroke:#000000; stroke-linecap:round; stroke-linejoin:round; stroke-width:2; stroke-opacity:0.1; fill:none" points="1697.27,1423.18 1697.27,47.2441 "/>
<polyline clip-path="url(#clip841)" style="stroke:#000000; stroke-linecap:round; stroke-linejoin:round; stroke-width:2; stroke-opacity:0.1; fill:none" points="2316.74,1423.18 2316.74,47.2441 "/>
<polyline clip-path="url(#clip841)" style="stroke:#000000; stroke-linecap:round; stroke-linejoin:round; stroke-width:2; stroke-opacity:0.1; fill:none" points="438.036,1423.08 2352.76,1423.08 "/>
<polyline clip-path="url(#clip841)" style="stroke:#000000; stroke-linecap:round; stroke-linejoin:round; stroke-width:2; stroke-opacity:0.1; fill:none" points="438.036,1190.48 2352.76,1190.48 "/>
<polyline clip-path="url(#clip841)" style="stroke:#000000; stroke-linecap:round; stroke-linejoin:round; stroke-width:2; stroke-opacity:0.1; fill:none" points="438.036,957.895 2352.76,957.895 "/>
<polyline clip-path="url(#clip841)" style="stroke:#000000; stroke-linecap:round; stroke-linejoin:round; stroke-width:2; stroke-opacity:0.1; fill:none" points="438.036,725.305 2352.76,725.305 "/>
<polyline clip-path="url(#clip841)" style="stroke:#000000; stroke-linecap:round; stroke-linejoin:round; stroke-width:2; stroke-opacity:0.1; fill:none" points="438.036,492.714 2352.76,492.714 "/>
<polyline clip-path="url(#clip841)" style="stroke:#000000; stroke-linecap:round; stroke-linejoin:round; stroke-width:2; stroke-opacity:0.1; fill:none" points="438.036,260.124 2352.76,260.124 "/>
<polyline clip-path="url(#clip840)" style="stroke:#000000; stroke-linecap:round; stroke-linejoin:round; stroke-width:4; stroke-opacity:1; fill:none" points="438.036,1423.18 2352.76,1423.18 "/>
<polyline clip-path="url(#clip840)" style="stroke:#000000; stroke-linecap:round; stroke-linejoin:round; stroke-width:4; stroke-opacity:1; fill:none" points="458.314,1423.18 458.314,1404.28 "/>
<polyline clip-path="url(#clip840)" style="stroke:#000000; stroke-linecap:round; stroke-linejoin:round; stroke-width:4; stroke-opacity:1; fill:none" points="1077.79,1423.18 1077.79,1404.28 "/>
<polyline clip-path="url(#clip840)" style="stroke:#000000; stroke-linecap:round; stroke-linejoin:round; stroke-width:4; stroke-opacity:1; fill:none" points="1697.27,1423.18 1697.27,1404.28 "/>
<polyline clip-path="url(#clip840)" style="stroke:#000000; stroke-linecap:round; stroke-linejoin:round; stroke-width:4; stroke-opacity:1; fill:none" points="2316.74,1423.18 2316.74,1404.28 "/>
<path clip-path="url(#clip840)" d="M458.314 1454.1 Q454.702 1454.1 452.874 1457.66 Q451.068 1461.2 451.068 1468.33 Q451.068 1475.44 452.874 1479.01 Q454.702 1482.55 458.314 1482.55 Q461.948 1482.55 463.753 1479.01 Q465.582 1475.44 465.582 1468.33 Q465.582 1461.2 463.753 1457.66 Q461.948 1454.1 458.314 1454.1 M458.314 1450.39 Q464.124 1450.39 467.179 1455 Q470.258 1459.58 470.258 1468.33 Q470.258 1477.06 467.179 1481.67 Q464.124 1486.25 458.314 1486.25 Q452.503 1486.25 449.425 1481.67 Q446.369 1477.06 446.369 1468.33 Q446.369 1459.58 449.425 1455 Q452.503 1450.39 458.314 1450.39 Z" fill="#000000" fill-rule="nonzero" fill-opacity="1" /><path clip-path="url(#clip840)" d="M1052.48 1481.64 L1060.12 1481.64 L1060.12 1455.28 L1051.81 1456.95 L1051.81 1452.69 L1060.07 1451.02 L1064.75 1451.02 L1064.75 1481.64 L1072.39 1481.64 L1072.39 1485.58 L1052.48 1485.58 L1052.48 1481.64 Z" fill="#000000" fill-rule="nonzero" fill-opacity="1" /><path clip-path="url(#clip840)" d="M1091.83 1454.1 Q1088.22 1454.1 1086.39 1457.66 Q1084.58 1461.2 1084.58 1468.33 Q1084.58 1475.44 1086.39 1479.01 Q1088.22 1482.55 1091.83 1482.55 Q1095.46 1482.55 1097.27 1479.01 Q1099.1 1475.44 1099.1 1468.33 Q1099.1 1461.2 1097.27 1457.66 Q1095.46 1454.1 1091.83 1454.1 M1091.83 1450.39 Q1097.64 1450.39 1100.7 1455 Q1103.77 1459.58 1103.77 1468.33 Q1103.77 1477.06 1100.7 1481.67 Q1097.64 1486.25 1091.83 1486.25 Q1086.02 1486.25 1082.94 1481.67 Q1079.89 1477.06 1079.89 1468.33 Q1079.89 1459.58 1082.94 1455 Q1086.02 1450.39 1091.83 1450.39 Z" fill="#000000" fill-rule="nonzero" fill-opacity="1" /><path clip-path="url(#clip840)" d="M1676.04 1481.64 L1692.36 1481.64 L1692.36 1485.58 L1670.42 1485.58 L1670.42 1481.64 Q1673.08 1478.89 1677.66 1474.26 Q1682.27 1469.61 1683.45 1468.27 Q1685.69 1465.74 1686.57 1464.01 Q1687.48 1462.25 1687.48 1460.56 Q1687.48 1457.8 1685.53 1456.07 Q1683.61 1454.33 1680.51 1454.33 Q1678.31 1454.33 1675.85 1455.09 Q1673.42 1455.86 1670.65 1457.41 L1670.65 1452.69 Q1673.47 1451.55 1675.92 1450.97 Q1678.38 1450.39 1680.42 1450.39 Q1685.79 1450.39 1688.98 1453.08 Q1692.17 1455.77 1692.17 1460.26 Q1692.17 1462.39 1691.36 1464.31 Q1690.58 1466.2 1688.47 1468.8 Q1687.89 1469.47 1684.79 1472.69 Q1681.69 1475.88 1676.04 1481.64 Z" fill="#000000" fill-rule="nonzero" fill-opacity="1" /><path clip-path="url(#clip840)" d="M1712.17 1454.1 Q1708.56 1454.1 1706.73 1457.66 Q1704.93 1461.2 1704.93 1468.33 Q1704.93 1475.44 1706.73 1479.01 Q1708.56 1482.55 1712.17 1482.55 Q1715.81 1482.55 1717.61 1479.01 Q1719.44 1475.44 1719.44 1468.33 Q1719.44 1461.2 1717.61 1457.66 Q1715.81 1454.1 1712.17 1454.1 M1712.17 1450.39 Q1717.98 1450.39 1721.04 1455 Q1724.12 1459.58 1724.12 1468.33 Q1724.12 1477.06 1721.04 1481.67 Q1717.98 1486.25 1712.17 1486.25 Q1706.36 1486.25 1703.29 1481.67 Q1700.23 1477.06 1700.23 1468.33 Q1700.23 1459.58 1703.29 1455 Q1706.36 1450.39 1712.17 1450.39 Z" fill="#000000" fill-rule="nonzero" fill-opacity="1" /><path clip-path="url(#clip840)" d="M2305.59 1466.95 Q2308.94 1467.66 2310.82 1469.93 Q2312.72 1472.2 2312.72 1475.53 Q2312.72 1480.65 2309.2 1483.45 Q2305.68 1486.25 2299.2 1486.25 Q2297.02 1486.25 2294.71 1485.81 Q2292.41 1485.39 2289.96 1484.54 L2289.96 1480.02 Q2291.91 1481.16 2294.22 1481.74 Q2296.54 1482.32 2299.06 1482.32 Q2303.46 1482.32 2305.75 1480.58 Q2308.06 1478.84 2308.06 1475.53 Q2308.06 1472.48 2305.91 1470.77 Q2303.78 1469.03 2299.96 1469.03 L2295.93 1469.03 L2295.93 1465.19 L2300.15 1465.19 Q2303.6 1465.19 2305.42 1463.82 Q2307.25 1462.43 2307.25 1459.84 Q2307.25 1457.18 2305.35 1455.77 Q2303.48 1454.33 2299.96 1454.33 Q2298.04 1454.33 2295.84 1454.75 Q2293.64 1455.16 2291 1456.04 L2291 1451.88 Q2293.66 1451.14 2295.98 1450.77 Q2298.32 1450.39 2300.38 1450.39 Q2305.7 1450.39 2308.8 1452.83 Q2311.91 1455.23 2311.91 1459.35 Q2311.91 1462.22 2310.26 1464.21 Q2308.62 1466.18 2305.59 1466.95 Z" fill="#000000" fill-rule="nonzero" fill-opacity="1" /><path clip-path="url(#clip840)" d="M2331.58 1454.1 Q2327.97 1454.1 2326.14 1457.66 Q2324.34 1461.2 2324.34 1468.33 Q2324.34 1475.44 2326.14 1479.01 Q2327.97 1482.55 2331.58 1482.55 Q2335.22 1482.55 2337.02 1479.01 Q2338.85 1475.44 2338.85 1468.33 Q2338.85 1461.2 2337.02 1457.66 Q2335.22 1454.1 2331.58 1454.1 M2331.58 1450.39 Q2337.39 1450.39 2340.45 1455 Q2343.53 1459.58 2343.53 1468.33 Q2343.53 1477.06 2340.45 1481.67 Q2337.39 1486.25 2331.58 1486.25 Q2325.77 1486.25 2322.69 1481.67 Q2319.64 1477.06 2319.64 1468.33 Q2319.64 1459.58 2322.69 1455 Q2325.77 1450.39 2331.58 1450.39 Z" fill="#000000" fill-rule="nonzero" fill-opacity="1" /><path clip-path="url(#clip840)" d="M1066.48 1520.52 L1072.97 1520.52 L1082.97 1560.69 L1092.93 1520.52 L1100.15 1520.52 L1110.15 1560.69 L1120.11 1520.52 L1126.64 1520.52 L1114.7 1568.04 L1106.62 1568.04 L1096.59 1526.79 L1086.47 1568.04 L1078.38 1568.04 L1066.48 1520.52 Z" fill="#000000" fill-rule="nonzero" fill-opacity="1" /><path clip-path="url(#clip840)" d="M1146.94 1550.12 Q1139.84 1550.12 1137.11 1551.75 Q1134.37 1553.37 1134.37 1557.29 Q1134.37 1560.4 1136.41 1562.25 Q1138.48 1564.07 1142.01 1564.07 Q1146.88 1564.07 1149.81 1560.63 Q1152.77 1557.16 1152.77 1551.43 L1152.77 1550.12 L1146.94 1550.12 M1158.62 1547.71 L1158.62 1568.04 L1152.77 1568.04 L1152.77 1562.63 Q1150.76 1565.88 1147.77 1567.44 Q1144.78 1568.97 1140.45 1568.97 Q1134.98 1568.97 1131.73 1565.91 Q1128.51 1562.82 1128.51 1557.67 Q1128.51 1551.65 1132.52 1548.6 Q1136.57 1545.54 1144.56 1545.54 L1152.77 1545.54 L1152.77 1544.97 Q1152.77 1540.93 1150.09 1538.73 Q1147.45 1536.5 1142.65 1536.5 Q1139.59 1536.5 1136.69 1537.23 Q1133.8 1537.97 1131.12 1539.43 L1131.12 1534.02 Q1134.34 1532.78 1137.36 1532.17 Q1140.39 1531.54 1143.25 1531.54 Q1150.98 1531.54 1154.8 1535.55 Q1158.62 1539.56 1158.62 1547.71 Z" fill="#000000" fill-rule="nonzero" fill-opacity="1" /><path clip-path="url(#clip840)" d="M1170.69 1518.52 L1176.54 1518.52 L1176.54 1568.04 L1170.69 1568.04 L1170.69 1518.52 Z" fill="#000000" fill-rule="nonzero" fill-opacity="1" /><path clip-path="url(#clip840)" d="M1188.8 1518.52 L1194.65 1518.52 L1194.65 1568.04 L1188.8 1568.04 L1188.8 1518.52 Z" fill="#000000" fill-rule="nonzero" fill-opacity="1" /><path clip-path="url(#clip840)" d="M1232.56 1533.76 L1232.56 1539.24 Q1230.08 1537.87 1227.56 1537.2 Q1225.08 1536.5 1222.54 1536.5 Q1216.84 1536.5 1213.69 1540.13 Q1210.54 1543.73 1210.54 1550.25 Q1210.54 1556.78 1213.69 1560.4 Q1216.84 1564 1222.54 1564 Q1225.08 1564 1227.56 1563.33 Q1230.08 1562.63 1232.56 1561.26 L1232.56 1566.68 Q1230.11 1567.82 1227.47 1568.39 Q1224.86 1568.97 1221.9 1568.97 Q1213.85 1568.97 1209.1 1563.91 Q1204.36 1558.85 1204.36 1550.25 Q1204.36 1541.53 1209.14 1536.53 Q1213.94 1531.54 1222.28 1531.54 Q1224.99 1531.54 1227.56 1532.11 Q1230.14 1532.65 1232.56 1533.76 Z" fill="#000000" fill-rule="nonzero" fill-opacity="1" /><path clip-path="url(#clip840)" d="M1242.75 1518.52 L1248.6 1518.52 L1248.6 1568.04 L1242.75 1568.04 L1242.75 1518.52 Z" fill="#000000" fill-rule="nonzero" fill-opacity="1" /><path clip-path="url(#clip840)" d="M1274.67 1536.5 Q1269.96 1536.5 1267.22 1540.19 Q1264.49 1543.85 1264.49 1550.25 Q1264.49 1556.65 1267.19 1560.34 Q1269.93 1564 1274.67 1564 Q1279.35 1564 1282.09 1560.31 Q1284.82 1556.62 1284.82 1550.25 Q1284.82 1543.92 1282.09 1540.23 Q1279.35 1536.5 1274.67 1536.5 M1274.67 1531.54 Q1282.31 1531.54 1286.67 1536.5 Q1291.03 1541.47 1291.03 1550.25 Q1291.03 1559 1286.67 1564 Q1282.31 1568.97 1274.67 1568.97 Q1267 1568.97 1262.64 1564 Q1258.31 1559 1258.31 1550.25 Q1258.31 1541.47 1262.64 1536.5 Q1267 1531.54 1274.67 1531.54 Z" fill="#000000" fill-rule="nonzero" fill-opacity="1" /><path clip-path="url(#clip840)" d="M1326.39 1533.76 L1326.39 1539.24 Q1323.91 1537.87 1321.39 1537.2 Q1318.91 1536.5 1316.37 1536.5 Q1310.67 1536.5 1307.52 1540.13 Q1304.37 1543.73 1304.37 1550.25 Q1304.37 1556.78 1307.52 1560.4 Q1310.67 1564 1316.37 1564 Q1318.91 1564 1321.39 1563.33 Q1323.91 1562.63 1326.39 1561.26 L1326.39 1566.68 Q1323.94 1567.82 1321.3 1568.39 Q1318.69 1568.97 1315.73 1568.97 Q1307.68 1568.97 1302.93 1563.91 Q1298.19 1558.85 1298.19 1550.25 Q1298.19 1541.53 1302.97 1536.53 Q1307.77 1531.54 1316.11 1531.54 Q1318.82 1531.54 1321.39 1532.11 Q1323.97 1532.65 1326.39 1533.76 Z" fill="#000000" fill-rule="nonzero" fill-opacity="1" /><path clip-path="url(#clip840)" d="M1336.35 1518.52 L1342.24 1518.52 L1342.24 1547.77 L1359.72 1532.4 L1367.2 1532.4 L1348.29 1549.07 L1367.99 1568.04 L1360.35 1568.04 L1342.24 1550.63 L1342.24 1568.04 L1336.35 1568.04 L1336.35 1518.52 Z" fill="#000000" fill-rule="nonzero" fill-opacity="1" /><path clip-path="url(#clip840)" d="M1388.71 1520.52 L1428.91 1520.52 L1428.91 1525.93 L1412.04 1525.93 L1412.04 1568.04 L1405.58 1568.04 L1405.58 1525.93 L1388.71 1525.93 L1388.71 1520.52 Z" fill="#000000" fill-rule="nonzero" fill-opacity="1" /><path clip-path="url(#clip840)" d="M1432.86 1532.4 L1438.71 1532.4 L1438.71 1568.04 L1432.86 1568.04 L1432.86 1532.4 M1432.86 1518.52 L1438.71 1518.52 L1438.71 1525.93 L1432.86 1525.93 L1432.86 1518.52 Z" fill="#000000" fill-rule="nonzero" fill-opacity="1" /><path clip-path="url(#clip840)" d="M1478.72 1539.24 Q1480.92 1535.29 1483.97 1533.41 Q1487.03 1531.54 1491.17 1531.54 Q1496.74 1531.54 1499.76 1535.45 Q1502.79 1539.33 1502.79 1546.53 L1502.79 1568.04 L1496.9 1568.04 L1496.9 1546.72 Q1496.9 1541.59 1495.08 1539.11 Q1493.27 1536.63 1489.54 1536.63 Q1484.99 1536.63 1482.35 1539.65 Q1479.71 1542.68 1479.71 1547.9 L1479.71 1568.04 L1473.82 1568.04 L1473.82 1546.72 Q1473.82 1541.56 1472.01 1539.11 Q1470.19 1536.63 1466.41 1536.63 Q1461.92 1536.63 1459.28 1539.68 Q1456.63 1542.71 1456.63 1547.9 L1456.63 1568.04 L1450.75 1568.04 L1450.75 1532.4 L1456.63 1532.4 L1456.63 1537.93 Q1458.64 1534.66 1461.44 1533.1 Q1464.24 1531.54 1468.09 1531.54 Q1471.98 1531.54 1474.68 1533.51 Q1477.42 1535.48 1478.72 1539.24 Z" fill="#000000" fill-rule="nonzero" fill-opacity="1" /><path clip-path="url(#clip840)" d="M1544.96 1548.76 L1544.96 1551.62 L1518.03 1551.62 Q1518.41 1557.67 1521.66 1560.85 Q1524.94 1564 1530.76 1564 Q1534.14 1564 1537.29 1563.17 Q1540.47 1562.35 1543.59 1560.69 L1543.59 1566.23 Q1540.44 1567.57 1537.13 1568.27 Q1533.82 1568.97 1530.41 1568.97 Q1521.88 1568.97 1516.89 1564 Q1511.92 1559.04 1511.92 1550.57 Q1511.92 1541.82 1516.63 1536.69 Q1521.37 1531.54 1529.39 1531.54 Q1536.59 1531.54 1540.76 1536.18 Q1544.96 1540.8 1544.96 1548.76 M1539.1 1547.04 Q1539.04 1542.23 1536.4 1539.37 Q1533.79 1536.5 1529.46 1536.5 Q1524.56 1536.5 1521.6 1539.27 Q1518.67 1542.04 1518.22 1547.07 L1539.1 1547.04 Z" fill="#000000" fill-rule="nonzero" fill-opacity="1" /><path clip-path="url(#clip840)" d="M1589.36 1518.58 Q1585.09 1525.9 1583.03 1533.06 Q1580.96 1540.23 1580.96 1547.58 Q1580.96 1554.93 1583.03 1562.16 Q1585.13 1569.35 1589.36 1576.64 L1584.27 1576.64 Q1579.49 1569.16 1577.11 1561.93 Q1574.75 1554.71 1574.75 1547.58 Q1574.75 1540.48 1577.11 1533.29 Q1579.46 1526.09 1584.27 1518.58 L1589.36 1518.58 Z" fill="#000000" fill-rule="nonzero" fill-opacity="1" /><path clip-path="url(#clip840)" d="M1623.45 1533.45 L1623.45 1538.98 Q1620.96 1537.71 1618.29 1537.07 Q1615.62 1536.44 1612.75 1536.44 Q1608.39 1536.44 1606.2 1537.77 Q1604.03 1539.11 1604.03 1541.79 Q1604.03 1543.82 1605.59 1545 Q1607.15 1546.15 1611.86 1547.2 L1613.87 1547.64 Q1620.11 1548.98 1622.72 1551.43 Q1625.36 1553.85 1625.36 1558.21 Q1625.36 1563.17 1621.41 1566.07 Q1617.5 1568.97 1610.62 1568.97 Q1607.76 1568.97 1604.64 1568.39 Q1601.55 1567.85 1598.11 1566.74 L1598.11 1560.69 Q1601.36 1562.38 1604.51 1563.24 Q1607.66 1564.07 1610.75 1564.07 Q1614.89 1564.07 1617.11 1562.66 Q1619.34 1561.23 1619.34 1558.65 Q1619.34 1556.27 1617.72 1554.99 Q1616.13 1553.72 1610.68 1552.54 L1608.65 1552.07 Q1603.2 1550.92 1600.79 1548.56 Q1598.37 1546.18 1598.37 1542.04 Q1598.37 1537.01 1601.93 1534.27 Q1605.5 1531.54 1612.05 1531.54 Q1615.3 1531.54 1618.16 1532.01 Q1621.03 1532.49 1623.45 1533.45 Z" fill="#000000" fill-rule="nonzero" fill-opacity="1" /><path clip-path="url(#clip840)" d="M1665.17 1548.76 L1665.17 1551.62 L1638.25 1551.62 Q1638.63 1557.67 1641.88 1560.85 Q1645.15 1564 1650.98 1564 Q1654.35 1564 1657.5 1563.17 Q1660.69 1562.35 1663.81 1560.69 L1663.81 1566.23 Q1660.66 1567.57 1657.34 1568.27 Q1654.03 1568.97 1650.63 1568.97 Q1642.1 1568.97 1637.1 1564 Q1632.14 1559.04 1632.14 1550.57 Q1632.14 1541.82 1636.85 1536.69 Q1641.59 1531.54 1649.61 1531.54 Q1656.8 1531.54 1660.97 1536.18 Q1665.17 1540.8 1665.17 1548.76 M1659.32 1547.04 Q1659.25 1542.23 1656.61 1539.37 Q1654 1536.5 1649.67 1536.5 Q1644.77 1536.5 1641.81 1539.27 Q1638.88 1542.04 1638.44 1547.07 L1659.32 1547.04 Z" fill="#000000" fill-rule="nonzero" fill-opacity="1" /><path clip-path="url(#clip840)" d="M1700.44 1533.76 L1700.44 1539.24 Q1697.96 1537.87 1695.44 1537.2 Q1692.96 1536.5 1690.41 1536.5 Q1684.72 1536.5 1681.57 1540.13 Q1678.42 1543.73 1678.42 1550.25 Q1678.42 1556.78 1681.57 1560.4 Q1684.72 1564 1690.41 1564 Q1692.96 1564 1695.44 1563.33 Q1697.96 1562.63 1700.44 1561.26 L1700.44 1566.68 Q1697.99 1567.82 1695.35 1568.39 Q1692.74 1568.97 1689.78 1568.97 Q1681.73 1568.97 1676.98 1563.91 Q1672.24 1558.85 1672.24 1550.25 Q1672.24 1541.53 1677.02 1536.53 Q1681.82 1531.54 1690.16 1531.54 Q1692.87 1531.54 1695.44 1532.11 Q1698.02 1532.65 1700.44 1533.76 Z" fill="#000000" fill-rule="nonzero" fill-opacity="1" /><path clip-path="url(#clip840)" d="M1709.7 1518.58 L1714.8 1518.58 Q1719.57 1526.09 1721.93 1533.29 Q1724.31 1540.48 1724.31 1547.58 Q1724.31 1554.71 1721.93 1561.93 Q1719.57 1569.16 1714.8 1576.64 L1709.7 1576.64 Q1713.94 1569.35 1716 1562.16 Q1718.11 1554.93 1718.11 1547.58 Q1718.11 1540.23 1716 1533.06 Q1713.94 1525.9 1709.7 1518.58 Z" fill="#000000" fill-rule="nonzero" fill-opacity="1" /><polyline clip-path="url(#clip840)" style="stroke:#000000; stroke-linecap:round; stroke-linejoin:round; stroke-width:4; stroke-opacity:1; fill:none" points="438.036,1423.18 438.036,47.2441 "/>
<polyline clip-path="url(#clip840)" style="stroke:#000000; stroke-linecap:round; stroke-linejoin:round; stroke-width:4; stroke-opacity:1; fill:none" points="438.036,1423.08 456.934,1423.08 "/>
<polyline clip-path="url(#clip840)" style="stroke:#000000; stroke-linecap:round; stroke-linejoin:round; stroke-width:4; stroke-opacity:1; fill:none" points="438.036,1190.48 456.934,1190.48 "/>
<polyline clip-path="url(#clip840)" style="stroke:#000000; stroke-linecap:round; stroke-linejoin:round; stroke-width:4; stroke-opacity:1; fill:none" points="438.036,957.895 456.934,957.895 "/>
<polyline clip-path="url(#clip840)" style="stroke:#000000; stroke-linecap:round; stroke-linejoin:round; stroke-width:4; stroke-opacity:1; fill:none" points="438.036,725.305 456.934,725.305 "/>
<polyline clip-path="url(#clip840)" style="stroke:#000000; stroke-linecap:round; stroke-linejoin:round; stroke-width:4; stroke-opacity:1; fill:none" points="438.036,492.714 456.934,492.714 "/>
<polyline clip-path="url(#clip840)" style="stroke:#000000; stroke-linecap:round; stroke-linejoin:round; stroke-width:4; stroke-opacity:1; fill:none" points="438.036,260.124 456.934,260.124 "/>
<path clip-path="url(#clip840)" d="M114.26 1429.97 L143.936 1429.97 L143.936 1433.91 L114.26 1433.91 L114.26 1429.97 Z" fill="#000000" fill-rule="nonzero" fill-opacity="1" /><path clip-path="url(#clip840)" d="M158.056 1442.87 L174.376 1442.87 L174.376 1446.8 L152.431 1446.8 L152.431 1442.87 Q155.093 1440.11 159.677 1435.48 Q164.283 1430.83 165.464 1429.49 Q167.709 1426.96 168.589 1425.23 Q169.491 1423.47 169.491 1421.78 Q169.491 1419.03 167.547 1417.29 Q165.626 1415.55 162.524 1415.55 Q160.325 1415.55 157.871 1416.32 Q155.44 1417.08 152.663 1418.63 L152.663 1413.91 Q155.487 1412.78 157.94 1412.2 Q160.394 1411.62 162.431 1411.62 Q167.802 1411.62 170.996 1414.3 Q174.19 1416.99 174.19 1421.48 Q174.19 1423.61 173.38 1425.53 Q172.593 1427.43 170.487 1430.02 Q169.908 1430.69 166.806 1433.91 Q163.704 1437.1 158.056 1442.87 Z" fill="#000000" fill-rule="nonzero" fill-opacity="1" /><path clip-path="url(#clip840)" d="M184.19 1440.92 L189.075 1440.92 L189.075 1446.8 L184.19 1446.8 L184.19 1440.92 Z" fill="#000000" fill-rule="nonzero" fill-opacity="1" /><path clip-path="url(#clip840)" d="M209.26 1415.32 Q205.649 1415.32 203.82 1418.89 Q202.014 1422.43 202.014 1429.56 Q202.014 1436.66 203.82 1440.23 Q205.649 1443.77 209.26 1443.77 Q212.894 1443.77 214.699 1440.23 Q216.528 1436.66 216.528 1429.56 Q216.528 1422.43 214.699 1418.89 Q212.894 1415.32 209.26 1415.32 M209.26 1411.62 Q215.07 1411.62 218.125 1416.22 Q221.204 1420.81 221.204 1429.56 Q221.204 1438.28 218.125 1442.89 Q215.07 1447.47 209.26 1447.47 Q203.449 1447.47 200.371 1442.89 Q197.315 1438.28 197.315 1429.56 Q197.315 1420.81 200.371 1416.22 Q203.449 1411.62 209.26 1411.62 Z" fill="#000000" fill-rule="nonzero" fill-opacity="1" /><path clip-path="url(#clip840)" d="M239.422 1415.32 Q235.81 1415.32 233.982 1418.89 Q232.176 1422.43 232.176 1429.56 Q232.176 1436.66 233.982 1440.23 Q235.81 1443.77 239.422 1443.77 Q243.056 1443.77 244.861 1440.23 Q246.69 1436.66 246.69 1429.56 Q246.69 1422.43 244.861 1418.89 Q243.056 1415.32 239.422 1415.32 M239.422 1411.62 Q245.232 1411.62 248.287 1416.22 Q251.366 1420.81 251.366 1429.56 Q251.366 1438.28 248.287 1442.89 Q245.232 1447.47 239.422 1447.47 Q233.611 1447.47 230.533 1442.89 Q227.477 1438.28 227.477 1429.56 Q227.477 1420.81 230.533 1416.22 Q233.611 1411.62 239.422 1411.62 Z" fill="#000000" fill-rule="nonzero" fill-opacity="1" /><path clip-path="url(#clip840)" d="M269.583 1415.32 Q265.972 1415.32 264.144 1418.89 Q262.338 1422.43 262.338 1429.56 Q262.338 1436.66 264.144 1440.23 Q265.972 1443.77 269.583 1443.77 Q273.218 1443.77 275.023 1440.23 Q276.852 1436.66 276.852 1429.56 Q276.852 1422.43 275.023 1418.89 Q273.218 1415.32 269.583 1415.32 M269.583 1411.62 Q275.394 1411.62 278.449 1416.22 Q281.528 1420.81 281.528 1429.56 Q281.528 1438.28 278.449 1442.89 Q275.394 1447.47 269.583 1447.47 Q263.773 1447.47 260.695 1442.89 Q257.639 1438.28 257.639 1429.56 Q257.639 1420.81 260.695 1416.22 Q263.773 1411.62 269.583 1411.62 Z" fill="#000000" fill-rule="nonzero" fill-opacity="1" /><path clip-path="url(#clip840)" d="M317.916 1421.34 L307.338 1431.96 L317.916 1442.54 L315.162 1445.34 L304.537 1434.72 L293.912 1445.34 L291.181 1442.54 L301.736 1431.96 L291.181 1421.34 L293.912 1418.54 L304.537 1429.16 L315.162 1418.54 L317.916 1421.34 Z" fill="#000000" fill-rule="nonzero" fill-opacity="1" /><path clip-path="url(#clip840)" d="M330.278 1442.87 L337.916 1442.87 L337.916 1416.5 L329.606 1418.17 L329.606 1413.91 L337.87 1412.24 L342.546 1412.24 L342.546 1442.87 L350.185 1442.87 L350.185 1446.8 L330.278 1446.8 L330.278 1442.87 Z" fill="#000000" fill-rule="nonzero" fill-opacity="1" /><path clip-path="url(#clip840)" d="M369.629 1415.32 Q366.018 1415.32 364.189 1418.89 Q362.384 1422.43 362.384 1429.56 Q362.384 1436.66 364.189 1440.23 Q366.018 1443.77 369.629 1443.77 Q373.263 1443.77 375.069 1440.23 Q376.898 1436.66 376.898 1429.56 Q376.898 1422.43 375.069 1418.89 Q373.263 1415.32 369.629 1415.32 M369.629 1411.62 Q375.439 1411.62 378.495 1416.22 Q381.574 1420.81 381.574 1429.56 Q381.574 1438.28 378.495 1442.89 Q375.439 1447.47 369.629 1447.47 Q363.819 1447.47 360.74 1442.89 Q357.685 1438.28 357.685 1429.56 Q357.685 1420.81 360.74 1416.22 Q363.819 1411.62 369.629 1411.62 Z" fill="#000000" fill-rule="nonzero" fill-opacity="1" /><path clip-path="url(#clip840)" d="M394.25 1394.62 L384.658 1409.61 L394.25 1409.61 L394.25 1394.62 M393.253 1391.31 L398.03 1391.31 L398.03 1409.61 L402.036 1409.61 L402.036 1412.77 L398.03 1412.77 L398.03 1419.39 L394.25 1419.39 L394.25 1412.77 L381.574 1412.77 L381.574 1409.1 L393.253 1391.31 Z" fill="#000000" fill-rule="nonzero" fill-opacity="1" /><path clip-path="url(#clip840)" d="M114.26 1197.38 L143.936 1197.38 L143.936 1201.32 L114.26 1201.32 L114.26 1197.38 Z" fill="#000000" fill-rule="nonzero" fill-opacity="1" /><path clip-path="url(#clip840)" d="M154.839 1210.28 L162.477 1210.28 L162.477 1183.91 L154.167 1185.58 L154.167 1181.32 L162.431 1179.65 L167.107 1179.65 L167.107 1210.28 L174.746 1210.28 L174.746 1214.21 L154.839 1214.21 L154.839 1210.28 Z" fill="#000000" fill-rule="nonzero" fill-opacity="1" /><path clip-path="url(#clip840)" d="M184.19 1208.33 L189.075 1208.33 L189.075 1214.21 L184.19 1214.21 L184.19 1208.33 Z" fill="#000000" fill-rule="nonzero" fill-opacity="1" /><path clip-path="url(#clip840)" d="M198.079 1179.65 L220.301 1179.65 L220.301 1181.64 L207.755 1214.21 L202.871 1214.21 L214.676 1183.59 L198.079 1183.59 L198.079 1179.65 Z" fill="#000000" fill-rule="nonzero" fill-opacity="1" /><path clip-path="url(#clip840)" d="M229.468 1179.65 L247.824 1179.65 L247.824 1183.59 L233.75 1183.59 L233.75 1192.06 Q234.769 1191.71 235.787 1191.55 Q236.806 1191.37 237.824 1191.37 Q243.611 1191.37 246.991 1194.54 Q250.371 1197.71 250.371 1203.12 Q250.371 1208.7 246.898 1211.81 Q243.426 1214.88 237.107 1214.88 Q234.931 1214.88 232.662 1214.51 Q230.417 1214.14 228.01 1213.4 L228.01 1208.7 Q230.093 1209.84 232.315 1210.39 Q234.537 1210.95 237.014 1210.95 Q241.019 1210.95 243.357 1208.84 Q245.695 1206.74 245.695 1203.12 Q245.695 1199.51 243.357 1197.41 Q241.019 1195.3 237.014 1195.3 Q235.139 1195.3 233.264 1195.72 Q231.412 1196.13 229.468 1197.01 L229.468 1179.65 Z" fill="#000000" fill-rule="nonzero" fill-opacity="1" /><path clip-path="url(#clip840)" d="M269.583 1182.73 Q265.972 1182.73 264.144 1186.3 Q262.338 1189.84 262.338 1196.97 Q262.338 1204.07 264.144 1207.64 Q265.972 1211.18 269.583 1211.18 Q273.218 1211.18 275.023 1207.64 Q276.852 1204.07 276.852 1196.97 Q276.852 1189.84 275.023 1186.3 Q273.218 1182.73 269.583 1182.73 M269.583 1179.03 Q275.394 1179.03 278.449 1183.63 Q281.528 1188.22 281.528 1196.97 Q281.528 1205.69 278.449 1210.3 Q275.394 1214.88 269.583 1214.88 Q263.773 1214.88 260.695 1210.3 Q257.639 1205.69 257.639 1196.97 Q257.639 1188.22 260.695 1183.63 Q263.773 1179.03 269.583 1179.03 Z" fill="#000000" fill-rule="nonzero" fill-opacity="1" /><path clip-path="url(#clip840)" d="M317.916 1188.75 L307.338 1199.37 L317.916 1209.95 L315.162 1212.75 L304.537 1202.13 L293.912 1212.75 L291.181 1209.95 L301.736 1199.37 L291.181 1188.75 L293.912 1185.95 L304.537 1196.57 L315.162 1185.95 L317.916 1188.75 Z" fill="#000000" fill-rule="nonzero" fill-opacity="1" /><path clip-path="url(#clip840)" d="M330.278 1210.28 L337.916 1210.28 L337.916 1183.91 L329.606 1185.58 L329.606 1181.32 L337.87 1179.65 L342.546 1179.65 L342.546 1210.28 L350.185 1210.28 L350.185 1214.21 L330.278 1214.21 L330.278 1210.28 Z" fill="#000000" fill-rule="nonzero" fill-opacity="1" /><path clip-path="url(#clip840)" d="M369.629 1182.73 Q366.018 1182.73 364.189 1186.3 Q362.384 1189.84 362.384 1196.97 Q362.384 1204.07 364.189 1207.64 Q366.018 1211.18 369.629 1211.18 Q373.263 1211.18 375.069 1207.64 Q376.898 1204.07 376.898 1196.97 Q376.898 1189.84 375.069 1186.3 Q373.263 1182.73 369.629 1182.73 M369.629 1179.03 Q375.439 1179.03 378.495 1183.63 Q381.574 1188.22 381.574 1196.97 Q381.574 1205.69 378.495 1210.3 Q375.439 1214.88 369.629 1214.88 Q363.819 1214.88 360.74 1210.3 Q357.685 1205.69 357.685 1196.97 Q357.685 1188.22 360.74 1183.63 Q363.819 1179.03 369.629 1179.03 Z" fill="#000000" fill-rule="nonzero" fill-opacity="1" /><path clip-path="url(#clip840)" d="M394.25 1162.03 L384.658 1177.02 L394.25 1177.02 L394.25 1162.03 M393.253 1158.72 L398.03 1158.72 L398.03 1177.02 L402.036 1177.02 L402.036 1180.18 L398.03 1180.18 L398.03 1186.8 L394.25 1186.8 L394.25 1180.18 L381.574 1180.18 L381.574 1176.51 L393.253 1158.72 Z" fill="#000000" fill-rule="nonzero" fill-opacity="1" /><path clip-path="url(#clip840)" d="M114.26 964.794 L143.936 964.794 L143.936 968.729 L114.26 968.729 L114.26 964.794 Z" fill="#000000" fill-rule="nonzero" fill-opacity="1" /><path clip-path="url(#clip840)" d="M154.839 977.687 L162.477 977.687 L162.477 951.322 L154.167 952.988 L154.167 948.729 L162.431 947.062 L167.107 947.062 L167.107 977.687 L174.746 977.687 L174.746 981.622 L154.839 981.622 L154.839 977.687 Z" fill="#000000" fill-rule="nonzero" fill-opacity="1" /><path clip-path="url(#clip840)" d="M184.19 975.743 L189.075 975.743 L189.075 981.622 L184.19 981.622 L184.19 975.743 Z" fill="#000000" fill-rule="nonzero" fill-opacity="1" /><path clip-path="url(#clip840)" d="M199.306 947.062 L217.662 947.062 L217.662 950.998 L203.588 950.998 L203.588 959.47 Q204.607 959.123 205.625 958.96 Q206.644 958.775 207.662 958.775 Q213.449 958.775 216.829 961.947 Q220.209 965.118 220.209 970.534 Q220.209 976.113 216.736 979.215 Q213.264 982.294 206.945 982.294 Q204.769 982.294 202.5 981.923 Q200.255 981.553 197.848 980.812 L197.848 976.113 Q199.931 977.247 202.153 977.803 Q204.375 978.359 206.852 978.359 Q210.857 978.359 213.195 976.252 Q215.533 974.146 215.533 970.534 Q215.533 966.923 213.195 964.817 Q210.857 962.71 206.852 962.71 Q204.977 962.71 203.102 963.127 Q201.25 963.544 199.306 964.423 L199.306 947.062 Z" fill="#000000" fill-rule="nonzero" fill-opacity="1" /><path clip-path="url(#clip840)" d="M239.422 950.141 Q235.81 950.141 233.982 953.706 Q232.176 957.248 232.176 964.377 Q232.176 971.484 233.982 975.048 Q235.81 978.59 239.422 978.59 Q243.056 978.59 244.861 975.048 Q246.69 971.484 246.69 964.377 Q246.69 957.248 244.861 953.706 Q243.056 950.141 239.422 950.141 M239.422 946.437 Q245.232 946.437 248.287 951.044 Q251.366 955.627 251.366 964.377 Q251.366 973.104 248.287 977.71 Q245.232 982.294 239.422 982.294 Q233.611 982.294 230.533 977.71 Q227.477 973.104 227.477 964.377 Q227.477 955.627 230.533 951.044 Q233.611 946.437 239.422 946.437 Z" fill="#000000" fill-rule="nonzero" fill-opacity="1" /><path clip-path="url(#clip840)" d="M269.583 950.141 Q265.972 950.141 264.144 953.706 Q262.338 957.248 262.338 964.377 Q262.338 971.484 264.144 975.048 Q265.972 978.59 269.583 978.59 Q273.218 978.59 275.023 975.048 Q276.852 971.484 276.852 964.377 Q276.852 957.248 275.023 953.706 Q273.218 950.141 269.583 950.141 M269.583 946.437 Q275.394 946.437 278.449 951.044 Q281.528 955.627 281.528 964.377 Q281.528 973.104 278.449 977.71 Q275.394 982.294 269.583 982.294 Q263.773 982.294 260.695 977.71 Q257.639 973.104 257.639 964.377 Q257.639 955.627 260.695 951.044 Q263.773 946.437 269.583 946.437 Z" fill="#000000" fill-rule="nonzero" fill-opacity="1" /><path clip-path="url(#clip840)" d="M317.916 956.16 L307.338 966.784 L317.916 977.363 L315.162 980.164 L304.537 969.539 L293.912 980.164 L291.181 977.363 L301.736 966.784 L291.181 956.16 L293.912 953.359 L304.537 963.984 L315.162 953.359 L317.916 956.16 Z" fill="#000000" fill-rule="nonzero" fill-opacity="1" /><path clip-path="url(#clip840)" d="M330.278 977.687 L337.916 977.687 L337.916 951.322 L329.606 952.988 L329.606 948.729 L337.87 947.062 L342.546 947.062 L342.546 977.687 L350.185 977.687 L350.185 981.622 L330.278 981.622 L330.278 977.687 Z" fill="#000000" fill-rule="nonzero" fill-opacity="1" /><path clip-path="url(#clip840)" d="M369.629 950.141 Q366.018 950.141 364.189 953.706 Q362.384 957.248 362.384 964.377 Q362.384 971.484 364.189 975.048 Q366.018 978.59 369.629 978.59 Q373.263 978.59 375.069 975.048 Q376.898 971.484 376.898 964.377 Q376.898 957.248 375.069 953.706 Q373.263 950.141 369.629 950.141 M369.629 946.437 Q375.439 946.437 378.495 951.044 Q381.574 955.627 381.574 964.377 Q381.574 973.104 378.495 977.71 Q375.439 982.294 369.629 982.294 Q363.819 982.294 360.74 977.71 Q357.685 973.104 357.685 964.377 Q357.685 955.627 360.74 951.044 Q363.819 946.437 369.629 946.437 Z" fill="#000000" fill-rule="nonzero" fill-opacity="1" /><path clip-path="url(#clip840)" d="M394.25 929.442 L384.658 944.432 L394.25 944.432 L394.25 929.442 M393.253 926.132 L398.03 926.132 L398.03 944.432 L402.036 944.432 L402.036 947.592 L398.03 947.592 L398.03 954.212 L394.25 954.212 L394.25 947.592 L381.574 947.592 L381.574 943.924 L393.253 926.132 Z" fill="#000000" fill-rule="nonzero" fill-opacity="1" /><path clip-path="url(#clip840)" d="M114.26 732.204 L143.936 732.204 L143.936 736.139 L114.26 736.139 L114.26 732.204 Z" fill="#000000" fill-rule="nonzero" fill-opacity="1" /><path clip-path="url(#clip840)" d="M154.839 745.097 L162.477 745.097 L162.477 718.731 L154.167 720.398 L154.167 716.139 L162.431 714.472 L167.107 714.472 L167.107 745.097 L174.746 745.097 L174.746 749.032 L154.839 749.032 L154.839 745.097 Z" fill="#000000" fill-rule="nonzero" fill-opacity="1" /><path clip-path="url(#clip840)" d="M184.19 743.153 L189.075 743.153 L189.075 749.032 L184.19 749.032 L184.19 743.153 Z" fill="#000000" fill-rule="nonzero" fill-opacity="1" /><path clip-path="url(#clip840)" d="M203.287 745.097 L219.607 745.097 L219.607 749.032 L197.662 749.032 L197.662 745.097 Q200.325 742.342 204.908 737.713 Q209.514 733.06 210.695 731.717 Q212.94 729.194 213.82 727.458 Q214.723 725.699 214.723 724.009 Q214.723 721.255 212.778 719.518 Q210.857 717.782 207.755 717.782 Q205.556 717.782 203.102 718.546 Q200.672 719.31 197.894 720.861 L197.894 716.139 Q200.718 715.005 203.172 714.426 Q205.625 713.847 207.662 713.847 Q213.033 713.847 216.227 716.532 Q219.422 719.218 219.422 723.708 Q219.422 725.838 218.611 727.759 Q217.824 729.657 215.718 732.25 Q215.139 732.921 212.037 736.139 Q208.936 739.333 203.287 745.097 Z" fill="#000000" fill-rule="nonzero" fill-opacity="1" /><path clip-path="url(#clip840)" d="M229.468 714.472 L247.824 714.472 L247.824 718.407 L233.75 718.407 L233.75 726.88 Q234.769 726.532 235.787 726.37 Q236.806 726.185 237.824 726.185 Q243.611 726.185 246.991 729.356 Q250.371 732.528 250.371 737.944 Q250.371 743.523 246.898 746.625 Q243.426 749.703 237.107 749.703 Q234.931 749.703 232.662 749.333 Q230.417 748.963 228.01 748.222 L228.01 743.523 Q230.093 744.657 232.315 745.213 Q234.537 745.768 237.014 745.768 Q241.019 745.768 243.357 743.662 Q245.695 741.555 245.695 737.944 Q245.695 734.333 243.357 732.227 Q241.019 730.12 237.014 730.12 Q235.139 730.12 233.264 730.537 Q231.412 730.954 229.468 731.833 L229.468 714.472 Z" fill="#000000" fill-rule="nonzero" fill-opacity="1" /><path clip-path="url(#clip840)" d="M269.583 717.551 Q265.972 717.551 264.144 721.116 Q262.338 724.657 262.338 731.787 Q262.338 738.893 264.144 742.458 Q265.972 746 269.583 746 Q273.218 746 275.023 742.458 Q276.852 738.893 276.852 731.787 Q276.852 724.657 275.023 721.116 Q273.218 717.551 269.583 717.551 M269.583 713.847 Q275.394 713.847 278.449 718.454 Q281.528 723.037 281.528 731.787 Q281.528 740.514 278.449 745.12 Q275.394 749.703 269.583 749.703 Q263.773 749.703 260.695 745.12 Q257.639 740.514 257.639 731.787 Q257.639 723.037 260.695 718.454 Q263.773 713.847 269.583 713.847 Z" fill="#000000" fill-rule="nonzero" fill-opacity="1" /><path clip-path="url(#clip840)" d="M317.916 723.569 L307.338 734.194 L317.916 744.773 L315.162 747.574 L304.537 736.949 L293.912 747.574 L291.181 744.773 L301.736 734.194 L291.181 723.569 L293.912 720.768 L304.537 731.393 L315.162 720.768 L317.916 723.569 Z" fill="#000000" fill-rule="nonzero" fill-opacity="1" /><path clip-path="url(#clip840)" d="M330.278 745.097 L337.916 745.097 L337.916 718.731 L329.606 720.398 L329.606 716.139 L337.87 714.472 L342.546 714.472 L342.546 745.097 L350.185 745.097 L350.185 749.032 L330.278 749.032 L330.278 745.097 Z" fill="#000000" fill-rule="nonzero" fill-opacity="1" /><path clip-path="url(#clip840)" d="M369.629 717.551 Q366.018 717.551 364.189 721.116 Q362.384 724.657 362.384 731.787 Q362.384 738.893 364.189 742.458 Q366.018 746 369.629 746 Q373.263 746 375.069 742.458 Q376.898 738.893 376.898 731.787 Q376.898 724.657 375.069 721.116 Q373.263 717.551 369.629 717.551 M369.629 713.847 Q375.439 713.847 378.495 718.454 Q381.574 723.037 381.574 731.787 Q381.574 740.514 378.495 745.12 Q375.439 749.703 369.629 749.703 Q363.819 749.703 360.74 745.12 Q357.685 740.514 357.685 731.787 Q357.685 723.037 360.74 718.454 Q363.819 713.847 369.629 713.847 Z" fill="#000000" fill-rule="nonzero" fill-opacity="1" /><path clip-path="url(#clip840)" d="M394.25 696.852 L384.658 711.842 L394.25 711.842 L394.25 696.852 M393.253 693.542 L398.03 693.542 L398.03 711.842 L402.036 711.842 L402.036 715.001 L398.03 715.001 L398.03 721.622 L394.25 721.622 L394.25 715.001 L381.574 715.001 L381.574 711.334 L393.253 693.542 Z" fill="#000000" fill-rule="nonzero" fill-opacity="1" /><path clip-path="url(#clip840)" d="M114.26 499.613 L143.936 499.613 L143.936 503.548 L114.26 503.548 L114.26 499.613 Z" fill="#000000" fill-rule="nonzero" fill-opacity="1" /><path clip-path="url(#clip840)" d="M154.839 512.507 L162.477 512.507 L162.477 486.141 L154.167 487.808 L154.167 483.549 L162.431 481.882 L167.107 481.882 L167.107 512.507 L174.746 512.507 L174.746 516.442 L154.839 516.442 L154.839 512.507 Z" fill="#000000" fill-rule="nonzero" fill-opacity="1" /><path clip-path="url(#clip840)" d="M184.19 510.562 L189.075 510.562 L189.075 516.442 L184.19 516.442 L184.19 510.562 Z" fill="#000000" fill-rule="nonzero" fill-opacity="1" /><path clip-path="url(#clip840)" d="M209.26 484.961 Q205.649 484.961 203.82 488.525 Q202.014 492.067 202.014 499.197 Q202.014 506.303 203.82 509.868 Q205.649 513.41 209.26 513.41 Q212.894 513.41 214.699 509.868 Q216.528 506.303 216.528 499.197 Q216.528 492.067 214.699 488.525 Q212.894 484.961 209.26 484.961 M209.26 481.257 Q215.07 481.257 218.125 485.863 Q221.204 490.447 221.204 499.197 Q221.204 507.923 218.125 512.53 Q215.07 517.113 209.26 517.113 Q203.449 517.113 200.371 512.53 Q197.315 507.923 197.315 499.197 Q197.315 490.447 200.371 485.863 Q203.449 481.257 209.26 481.257 Z" fill="#000000" fill-rule="nonzero" fill-opacity="1" /><path clip-path="url(#clip840)" d="M239.422 484.961 Q235.81 484.961 233.982 488.525 Q232.176 492.067 232.176 499.197 Q232.176 506.303 233.982 509.868 Q235.81 513.41 239.422 513.41 Q243.056 513.41 244.861 509.868 Q246.69 506.303 246.69 499.197 Q246.69 492.067 244.861 488.525 Q243.056 484.961 239.422 484.961 M239.422 481.257 Q245.232 481.257 248.287 485.863 Q251.366 490.447 251.366 499.197 Q251.366 507.923 248.287 512.53 Q245.232 517.113 239.422 517.113 Q233.611 517.113 230.533 512.53 Q227.477 507.923 227.477 499.197 Q227.477 490.447 230.533 485.863 Q233.611 481.257 239.422 481.257 Z" fill="#000000" fill-rule="nonzero" fill-opacity="1" /><path clip-path="url(#clip840)" d="M269.583 484.961 Q265.972 484.961 264.144 488.525 Q262.338 492.067 262.338 499.197 Q262.338 506.303 264.144 509.868 Q265.972 513.41 269.583 513.41 Q273.218 513.41 275.023 509.868 Q276.852 506.303 276.852 499.197 Q276.852 492.067 275.023 488.525 Q273.218 484.961 269.583 484.961 M269.583 481.257 Q275.394 481.257 278.449 485.863 Q281.528 490.447 281.528 499.197 Q281.528 507.923 278.449 512.53 Q275.394 517.113 269.583 517.113 Q263.773 517.113 260.695 512.53 Q257.639 507.923 257.639 499.197 Q257.639 490.447 260.695 485.863 Q263.773 481.257 269.583 481.257 Z" fill="#000000" fill-rule="nonzero" fill-opacity="1" /><path clip-path="url(#clip840)" d="M317.916 490.979 L307.338 501.604 L317.916 512.183 L315.162 514.984 L304.537 504.359 L293.912 514.984 L291.181 512.183 L301.736 501.604 L291.181 490.979 L293.912 488.178 L304.537 498.803 L315.162 488.178 L317.916 490.979 Z" fill="#000000" fill-rule="nonzero" fill-opacity="1" /><path clip-path="url(#clip840)" d="M330.278 512.507 L337.916 512.507 L337.916 486.141 L329.606 487.808 L329.606 483.549 L337.87 481.882 L342.546 481.882 L342.546 512.507 L350.185 512.507 L350.185 516.442 L330.278 516.442 L330.278 512.507 Z" fill="#000000" fill-rule="nonzero" fill-opacity="1" /><path clip-path="url(#clip840)" d="M369.629 484.961 Q366.018 484.961 364.189 488.525 Q362.384 492.067 362.384 499.197 Q362.384 506.303 364.189 509.868 Q366.018 513.41 369.629 513.41 Q373.263 513.41 375.069 509.868 Q376.898 506.303 376.898 499.197 Q376.898 492.067 375.069 488.525 Q373.263 484.961 369.629 484.961 M369.629 481.257 Q375.439 481.257 378.495 485.863 Q381.574 490.447 381.574 499.197 Q381.574 507.923 378.495 512.53 Q375.439 517.113 369.629 517.113 Q363.819 517.113 360.74 512.53 Q357.685 507.923 357.685 499.197 Q357.685 490.447 360.74 485.863 Q363.819 481.257 369.629 481.257 Z" fill="#000000" fill-rule="nonzero" fill-opacity="1" /><path clip-path="url(#clip840)" d="M394.25 464.262 L384.658 479.252 L394.25 479.252 L394.25 464.262 M393.253 460.952 L398.03 460.952 L398.03 479.252 L402.036 479.252 L402.036 482.411 L398.03 482.411 L398.03 489.032 L394.25 489.032 L394.25 482.411 L381.574 482.411 L381.574 478.744 L393.253 460.952 Z" fill="#000000" fill-rule="nonzero" fill-opacity="1" /><path clip-path="url(#clip840)" d="M116.235 267.023 L145.911 267.023 L145.911 270.958 L116.235 270.958 L116.235 267.023 Z" fill="#000000" fill-rule="nonzero" fill-opacity="1" /><path clip-path="url(#clip840)" d="M154.823 249.292 L177.045 249.292 L177.045 251.282 L164.499 283.852 L159.614 283.852 L171.42 253.227 L154.823 253.227 L154.823 249.292 Z" fill="#000000" fill-rule="nonzero" fill-opacity="1" /><path clip-path="url(#clip840)" d="M186.165 277.972 L191.049 277.972 L191.049 283.852 L186.165 283.852 L186.165 277.972 Z" fill="#000000" fill-rule="nonzero" fill-opacity="1" /><path clip-path="url(#clip840)" d="M201.281 249.292 L219.637 249.292 L219.637 253.227 L205.563 253.227 L205.563 261.699 Q206.582 261.352 207.6 261.19 Q208.619 261.005 209.637 261.005 Q215.424 261.005 218.804 264.176 Q222.183 267.347 222.183 272.764 Q222.183 278.342 218.711 281.444 Q215.239 284.523 208.92 284.523 Q206.744 284.523 204.475 284.153 Q202.23 283.782 199.822 283.042 L199.822 278.342 Q201.906 279.477 204.128 280.032 Q206.35 280.588 208.827 280.588 Q212.832 280.588 215.17 278.481 Q217.508 276.375 217.508 272.764 Q217.508 269.153 215.17 267.046 Q212.832 264.94 208.827 264.94 Q206.952 264.94 205.077 265.356 Q203.225 265.773 201.281 266.653 L201.281 249.292 Z" fill="#000000" fill-rule="nonzero" fill-opacity="1" /><path clip-path="url(#clip840)" d="M241.396 252.37 Q237.785 252.37 235.957 255.935 Q234.151 259.477 234.151 266.606 Q234.151 273.713 235.957 277.278 Q237.785 280.819 241.396 280.819 Q245.031 280.819 246.836 277.278 Q248.665 273.713 248.665 266.606 Q248.665 259.477 246.836 255.935 Q245.031 252.37 241.396 252.37 M241.396 248.667 Q247.206 248.667 250.262 253.273 Q253.341 257.856 253.341 266.606 Q253.341 275.333 250.262 279.94 Q247.206 284.523 241.396 284.523 Q235.586 284.523 232.507 279.94 Q229.452 275.333 229.452 266.606 Q229.452 257.856 232.507 253.273 Q235.586 248.667 241.396 248.667 Z" fill="#000000" fill-rule="nonzero" fill-opacity="1" /><path clip-path="url(#clip840)" d="M271.558 252.37 Q267.947 252.37 266.118 255.935 Q264.313 259.477 264.313 266.606 Q264.313 273.713 266.118 277.278 Q267.947 280.819 271.558 280.819 Q275.192 280.819 276.998 277.278 Q278.827 273.713 278.827 266.606 Q278.827 259.477 276.998 255.935 Q275.192 252.37 271.558 252.37 M271.558 248.667 Q277.368 248.667 280.424 253.273 Q283.503 257.856 283.503 266.606 Q283.503 275.333 280.424 279.94 Q277.368 284.523 271.558 284.523 Q265.748 284.523 262.669 279.94 Q259.614 275.333 259.614 266.606 Q259.614 257.856 262.669 253.273 Q265.748 248.667 271.558 248.667 Z" fill="#000000" fill-rule="nonzero" fill-opacity="1" /><path clip-path="url(#clip840)" d="M319.891 258.389 L309.313 269.014 L319.891 279.592 L317.137 282.393 L306.512 271.768 L295.887 282.393 L293.155 279.592 L303.711 269.014 L293.155 258.389 L295.887 255.588 L306.512 266.213 L317.137 255.588 L319.891 258.389 Z" fill="#000000" fill-rule="nonzero" fill-opacity="1" /><path clip-path="url(#clip840)" d="M332.252 279.917 L339.891 279.917 L339.891 253.551 L331.581 255.218 L331.581 250.958 L339.845 249.292 L344.521 249.292 L344.521 279.917 L352.16 279.917 L352.16 283.852 L332.252 283.852 L332.252 279.917 Z" fill="#000000" fill-rule="nonzero" fill-opacity="1" /><path clip-path="url(#clip840)" d="M371.604 252.37 Q367.993 252.37 366.164 255.935 Q364.359 259.477 364.359 266.606 Q364.359 273.713 366.164 277.278 Q367.993 280.819 371.604 280.819 Q375.238 280.819 377.044 277.278 Q378.872 273.713 378.872 266.606 Q378.872 259.477 377.044 255.935 Q375.238 252.37 371.604 252.37 M371.604 248.667 Q377.414 248.667 380.47 253.273 Q383.548 257.856 383.548 266.606 Q383.548 275.333 380.47 279.94 Q377.414 284.523 371.604 284.523 Q365.794 284.523 362.715 279.94 Q359.66 275.333 359.66 266.606 Q359.66 257.856 362.715 253.273 Q365.794 248.667 371.604 248.667 Z" fill="#000000" fill-rule="nonzero" fill-opacity="1" /><path clip-path="url(#clip840)" d="M396.244 241.301 Q398.971 241.884 400.494 243.727 Q402.036 245.57 402.036 248.279 Q402.036 252.435 399.178 254.711 Q396.319 256.987 391.053 256.987 Q389.285 256.987 387.404 256.629 Q385.542 256.291 383.548 255.595 L383.548 251.927 Q385.128 252.849 387.009 253.319 Q388.89 253.789 390.94 253.789 Q394.513 253.789 396.375 252.379 Q398.256 250.968 398.256 248.279 Q398.256 245.796 396.507 244.404 Q394.777 242.994 391.673 242.994 L388.401 242.994 L388.401 239.872 L391.824 239.872 Q394.626 239.872 396.112 238.762 Q397.598 237.634 397.598 235.527 Q397.598 233.364 396.056 232.217 Q394.532 231.051 391.673 231.051 Q390.112 231.051 388.326 231.389 Q386.539 231.728 384.395 232.443 L384.395 229.057 Q386.558 228.455 388.438 228.154 Q390.338 227.854 392.012 227.854 Q396.338 227.854 398.858 229.828 Q401.378 231.784 401.378 235.132 Q401.378 237.464 400.043 239.082 Q398.707 240.68 396.244 241.301 Z" fill="#000000" fill-rule="nonzero" fill-opacity="1" /><path clip-path="url(#clip840)" d="M16.4842 816.375 L16.4842 786.329 L21.895 786.329 L21.895 809.945 L35.9632 809.945 L35.9632 787.315 L41.3741 787.315 L41.3741 809.945 L58.5933 809.945 L58.5933 785.756 L64.0042 785.756 L64.0042 816.375 L16.4842 816.375 Z" fill="#000000" fill-rule="nonzero" fill-opacity="1" /><path clip-path="url(#clip840)" d="M16.4842 775.189 L16.4842 768.759 L58.5933 768.759 L58.5933 745.62 L64.0042 745.62 L64.0042 775.189 L16.4842 775.189 Z" fill="#000000" fill-rule="nonzero" fill-opacity="1" /><path clip-path="url(#clip840)" d="M41.3104 732.443 L58.7206 732.443 L58.7206 722.13 Q58.7206 716.942 56.5881 714.46 Q54.4238 711.945 49.9996 711.945 Q45.5436 711.945 43.4429 714.46 Q41.3104 716.942 41.3104 722.13 L41.3104 732.443 M21.7677 732.443 L36.0905 732.443 L36.0905 722.926 Q36.0905 718.216 34.34 715.924 Q32.5576 713.6 28.9291 713.6 Q25.3325 713.6 23.5501 715.924 Q21.7677 718.216 21.7677 722.926 L21.7677 732.443 M16.4842 738.872 L16.4842 722.449 Q16.4842 715.096 19.5397 711.118 Q22.5952 707.139 28.2289 707.139 Q32.5894 707.139 35.1675 709.176 Q37.7456 711.213 38.3822 715.16 Q39.4007 710.418 42.6472 707.808 Q45.8619 705.166 50.6998 705.166 Q57.0655 705.166 60.5348 709.495 Q64.0042 713.823 64.0042 721.812 L64.0042 738.872 L16.4842 738.872 Z" fill="#000000" fill-rule="nonzero" fill-opacity="1" /><path clip-path="url(#clip840)" d="M20.8447 676.011 Q20.8447 683.013 26.0645 687.151 Q31.2844 691.257 40.2919 691.257 Q49.2675 691.257 54.4874 687.151 Q59.7073 683.013 59.7073 676.011 Q59.7073 669.009 54.4874 664.935 Q49.2675 660.829 40.2919 660.829 Q31.2844 660.829 26.0645 664.935 Q20.8447 669.009 20.8447 676.011 M15.6248 676.011 Q15.6248 666.017 22.3406 660.033 Q29.0246 654.049 40.2919 654.049 Q51.5274 654.049 58.2432 660.033 Q64.9272 666.017 64.9272 676.011 Q64.9272 686.037 58.2432 692.052 Q51.5592 698.036 40.2919 698.036 Q29.0246 698.036 22.3406 692.052 Q15.6248 686.037 15.6248 676.011 Z" fill="#000000" fill-rule="nonzero" fill-opacity="1" /><polyline clip-path="url(#clip841)" style="stroke:#009af9; stroke-linecap:round; stroke-linejoin:round; stroke-width:4; stroke-opacity:1; fill:none" points="548.972,1238.14 643.109,1051.93 698.639,449.008 753.16,317.614 807.572,239.286 862.306,216.129 918.602,191.772 974.455,180.051 1071.04,172.839 1126.41,168.037 1182.19,159.063 1236.7,157.121 1289.86,148.476 1343.38,146.702 1397.08,145.106 1451.3,137.518 1504.53,139.277 1558,130.736 1611.36,133.242 1665.04,127.358 1718.02,124.167 1770.96,120.073 1823.44,116.795 1875.66,114.499 1928.88,110.085 1981.75,107.959 2034.18,101.583 2087.45,101.651 2140.06,96.2136 2192.8,90.9115 2245.98,87.875 2298.57,86.1857 "/>
<polyline clip-path="url(#clip841)" style="stroke:#e26f46; stroke-linecap:round; stroke-linejoin:round; stroke-width:4; stroke-opacity:1; fill:none" points="492.227,1384.24 516.637,558.804 525.627,398.151 533.953,270.509 545.799,229.46 554.867,212.709 563.427,205.182 571.852,188.308 580.181,190.71 588.845,173.214 597.251,165.385 605.763,165.913 614.131,160.997 622.859,155.853 631.201,149.689 639.658,151.269 647.97,143.476 656.596,141.222 664.934,132.385 673.258,133.041 681.641,132.381 690.548,130.675 698.849,124.502 707.161,126.5 715.561,119.54 724.211,116.319 732.496,115.261 740.749,108.296 749.055,107.414 757.736,101.767 766.016,101.223 774.248,97.8942 "/>
<path clip-path="url(#clip840)" d="M1798.16 1377.32 L2288.93 1377.32 L2288.93 1221.8 L1798.16 1221.8  Z" fill="#ffffff" fill-rule="evenodd" fill-opacity="1"/>
<polyline clip-path="url(#clip840)" style="stroke:#000000; stroke-linecap:round; stroke-linejoin:round; stroke-width:4; stroke-opacity:1; fill:none" points="1798.16,1377.32 2288.93,1377.32 2288.93,1221.8 1798.16,1221.8 1798.16,1377.32 "/>
<polyline clip-path="url(#clip840)" style="stroke:#009af9; stroke-linecap:round; stroke-linejoin:round; stroke-width:4; stroke-opacity:1; fill:none" points="1819.43,1273.64 1947.08,1273.64 "/>
<path clip-path="url(#clip840)" d="M1968.35 1256.36 L1988.21 1256.36 L1988.21 1260.29 L1973.03 1260.29 L1973.03 1270.48 L1986.73 1270.48 L1986.73 1274.41 L1973.03 1274.41 L1973.03 1290.92 L1968.35 1290.92 L1968.35 1256.36 Z" fill="#000000" fill-rule="nonzero" fill-opacity="1" /><path clip-path="url(#clip840)" d="M1992.4 1280.68 L1992.4 1264.99 L1996.66 1264.99 L1996.66 1280.52 Q1996.66 1284.2 1998.1 1286.05 Q1999.53 1287.88 2002.4 1287.88 Q2005.85 1287.88 2007.84 1285.68 Q2009.86 1283.48 2009.86 1279.69 L2009.86 1264.99 L2014.12 1264.99 L2014.12 1290.92 L2009.86 1290.92 L2009.86 1286.93 Q2008.31 1289.29 2006.25 1290.45 Q2004.21 1291.59 2001.5 1291.59 Q1997.03 1291.59 1994.72 1288.81 Q1992.4 1286.03 1992.4 1280.68 M2003.12 1264.36 L2003.12 1264.36 Z" fill="#000000" fill-rule="nonzero" fill-opacity="1" /><path clip-path="url(#clip840)" d="M2022.89 1254.9 L2027.15 1254.9 L2027.15 1290.92 L2022.89 1290.92 L2022.89 1254.9 Z" fill="#000000" fill-rule="nonzero" fill-opacity="1" /><path clip-path="url(#clip840)" d="M2036.06 1254.9 L2040.32 1254.9 L2040.32 1290.92 L2036.06 1290.92 L2036.06 1254.9 Z" fill="#000000" fill-rule="nonzero" fill-opacity="1" /><path clip-path="url(#clip840)" d="M2069.16 1274.41 L2069.16 1287.07 L2076.66 1287.07 Q2080.44 1287.07 2082.24 1285.52 Q2084.07 1283.95 2084.07 1280.73 Q2084.07 1277.49 2082.24 1275.96 Q2080.44 1274.41 2076.66 1274.41 L2069.16 1274.41 M2069.16 1260.2 L2069.16 1270.61 L2076.08 1270.61 Q2079.51 1270.61 2081.18 1269.34 Q2082.87 1268.05 2082.87 1265.41 Q2082.87 1262.79 2081.18 1261.49 Q2079.51 1260.2 2076.08 1260.2 L2069.16 1260.2 M2064.49 1256.36 L2076.43 1256.36 Q2081.78 1256.36 2084.67 1258.58 Q2087.57 1260.8 2087.57 1264.9 Q2087.57 1268.07 2086.08 1269.94 Q2084.6 1271.82 2081.73 1272.28 Q2085.18 1273.02 2087.08 1275.38 Q2089 1277.72 2089 1281.24 Q2089 1285.87 2085.85 1288.39 Q2082.7 1290.92 2076.89 1290.92 L2064.49 1290.92 L2064.49 1256.36 Z" fill="#000000" fill-rule="nonzero" fill-opacity="1" /><path clip-path="url(#clip840)" d="M2108.61 1277.88 Q2103.45 1277.88 2101.45 1279.06 Q2099.46 1280.24 2099.46 1283.09 Q2099.46 1285.36 2100.95 1286.7 Q2102.45 1288.02 2105.02 1288.02 Q2108.56 1288.02 2110.69 1285.52 Q2112.84 1283 2112.84 1278.83 L2112.84 1277.88 L2108.61 1277.88 M2117.1 1276.12 L2117.1 1290.92 L2112.84 1290.92 L2112.84 1286.98 Q2111.38 1289.34 2109.21 1290.48 Q2107.03 1291.59 2103.88 1291.59 Q2099.9 1291.59 2097.54 1289.36 Q2095.2 1287.12 2095.2 1283.37 Q2095.2 1278.99 2098.12 1276.77 Q2101.06 1274.55 2106.87 1274.55 L2112.84 1274.55 L2112.84 1274.13 Q2112.84 1271.19 2110.9 1269.6 Q2108.98 1267.98 2105.48 1267.98 Q2103.26 1267.98 2101.15 1268.51 Q2099.05 1269.04 2097.1 1270.11 L2097.1 1266.17 Q2099.44 1265.27 2101.64 1264.83 Q2103.84 1264.36 2105.92 1264.36 Q2111.55 1264.36 2114.32 1267.28 Q2117.1 1270.2 2117.1 1276.12 Z" fill="#000000" fill-rule="nonzero" fill-opacity="1" /><path clip-path="url(#clip840)" d="M2130.09 1257.63 L2130.09 1264.99 L2138.86 1264.99 L2138.86 1268.3 L2130.09 1268.3 L2130.09 1282.37 Q2130.09 1285.54 2130.95 1286.45 Q2131.82 1287.35 2134.49 1287.35 L2138.86 1287.35 L2138.86 1290.92 L2134.49 1290.92 Q2129.56 1290.92 2127.68 1289.09 Q2125.81 1287.23 2125.81 1282.37 L2125.81 1268.3 L2122.68 1268.3 L2122.68 1264.99 L2125.81 1264.99 L2125.81 1257.63 L2130.09 1257.63 Z" fill="#000000" fill-rule="nonzero" fill-opacity="1" /><path clip-path="url(#clip840)" d="M2163.12 1265.98 L2163.12 1269.97 Q2161.32 1268.97 2159.49 1268.48 Q2157.68 1267.98 2155.83 1267.98 Q2151.69 1267.98 2149.39 1270.61 Q2147.1 1273.23 2147.1 1277.98 Q2147.1 1282.72 2149.39 1285.36 Q2151.69 1287.98 2155.83 1287.98 Q2157.68 1287.98 2159.49 1287.49 Q2161.32 1286.98 2163.12 1285.98 L2163.12 1289.92 Q2161.34 1290.75 2159.42 1291.17 Q2157.52 1291.59 2155.37 1291.59 Q2149.51 1291.59 2146.06 1287.91 Q2142.61 1284.23 2142.61 1277.98 Q2142.61 1271.63 2146.08 1268 Q2149.58 1264.36 2155.64 1264.36 Q2157.61 1264.36 2159.49 1264.78 Q2161.36 1265.17 2163.12 1265.98 Z" fill="#000000" fill-rule="nonzero" fill-opacity="1" /><path clip-path="url(#clip840)" d="M2192.08 1275.27 L2192.08 1290.92 L2187.82 1290.92 L2187.82 1275.41 Q2187.82 1271.73 2186.38 1269.9 Q2184.95 1268.07 2182.08 1268.07 Q2178.63 1268.07 2176.64 1270.27 Q2174.65 1272.47 2174.65 1276.26 L2174.65 1290.92 L2170.37 1290.92 L2170.37 1254.9 L2174.65 1254.9 L2174.65 1269.02 Q2176.18 1266.68 2178.24 1265.52 Q2180.32 1264.36 2183.03 1264.36 Q2187.5 1264.36 2189.79 1267.14 Q2192.08 1269.9 2192.08 1275.27 Z" fill="#000000" fill-rule="nonzero" fill-opacity="1" /><polyline clip-path="url(#clip840)" style="stroke:#e26f46; stroke-linecap:round; stroke-linejoin:round; stroke-width:4; stroke-opacity:1; fill:none" points="1819.43,1325.48 1947.08,1325.48 "/>
<path clip-path="url(#clip840)" d="M1990.6 1309.33 L1990.6 1313.89 Q1987.94 1312.62 1985.58 1311.99 Q1983.21 1311.37 1981.02 1311.37 Q1977.2 1311.37 1975.11 1312.85 Q1973.05 1314.33 1973.05 1317.06 Q1973.05 1319.35 1974.42 1320.53 Q1975.81 1321.69 1979.65 1322.41 L1982.47 1322.99 Q1987.71 1323.98 1990.18 1326.51 Q1992.68 1329.01 1992.68 1333.22 Q1992.68 1338.24 1989.3 1340.83 Q1985.95 1343.43 1979.44 1343.43 Q1976.99 1343.43 1974.21 1342.87 Q1971.46 1342.32 1968.49 1341.23 L1968.49 1336.41 Q1971.34 1338.01 1974.07 1338.82 Q1976.8 1339.63 1979.44 1339.63 Q1983.45 1339.63 1985.62 1338.06 Q1987.8 1336.48 1987.8 1333.57 Q1987.8 1331.02 1986.22 1329.58 Q1984.67 1328.15 1981.11 1327.43 L1978.26 1326.88 Q1973.03 1325.83 1970.69 1323.61 Q1968.35 1321.39 1968.35 1317.43 Q1968.35 1312.85 1971.57 1310.21 Q1974.81 1307.57 1980.48 1307.57 Q1982.91 1307.57 1985.44 1308.01 Q1987.96 1308.45 1990.6 1309.33 Z" fill="#000000" fill-rule="nonzero" fill-opacity="1" /><path clip-path="url(#clip840)" d="M1999.35 1332.52 L1999.35 1316.83 L2003.61 1316.83 L2003.61 1332.36 Q2003.61 1336.04 2005.04 1337.89 Q2006.48 1339.72 2009.35 1339.72 Q2012.8 1339.72 2014.79 1337.52 Q2016.8 1335.32 2016.8 1331.53 L2016.8 1316.83 L2021.06 1316.83 L2021.06 1342.76 L2016.8 1342.76 L2016.8 1338.77 Q2015.25 1341.13 2013.19 1342.29 Q2011.15 1343.43 2008.45 1343.43 Q2003.98 1343.43 2001.66 1340.65 Q1999.35 1337.87 1999.35 1332.52 M2010.07 1316.2 L2010.07 1316.2 Z" fill="#000000" fill-rule="nonzero" fill-opacity="1" /><path clip-path="url(#clip840)" d="M2048.45 1329.82 Q2048.45 1325.12 2046.5 1322.45 Q2044.58 1319.77 2041.2 1319.77 Q2037.82 1319.77 2035.88 1322.45 Q2033.95 1325.12 2033.95 1329.82 Q2033.95 1334.51 2035.88 1337.2 Q2037.82 1339.86 2041.2 1339.86 Q2044.58 1339.86 2046.5 1337.2 Q2048.45 1334.51 2048.45 1329.82 M2033.95 1320.76 Q2035.3 1318.45 2037.33 1317.34 Q2039.39 1316.2 2042.24 1316.2 Q2046.96 1316.2 2049.9 1319.95 Q2052.87 1323.7 2052.87 1329.82 Q2052.87 1335.93 2049.9 1339.68 Q2046.96 1343.43 2042.24 1343.43 Q2039.39 1343.43 2037.33 1342.32 Q2035.3 1341.18 2033.95 1338.87 L2033.95 1342.76 L2029.67 1342.76 L2029.67 1306.74 L2033.95 1306.74 L2033.95 1320.76 Z" fill="#000000" fill-rule="nonzero" fill-opacity="1" /><path clip-path="url(#clip840)" d="M2076.45 1317.59 L2076.45 1321.62 Q2074.65 1320.7 2072.7 1320.23 Q2070.76 1319.77 2068.68 1319.77 Q2065.51 1319.77 2063.91 1320.74 Q2062.33 1321.71 2062.33 1323.66 Q2062.33 1325.14 2063.47 1326 Q2064.6 1326.83 2068.03 1327.59 L2069.49 1327.92 Q2074.02 1328.89 2075.92 1330.67 Q2077.84 1332.43 2077.84 1335.6 Q2077.84 1339.21 2074.97 1341.32 Q2072.13 1343.43 2067.13 1343.43 Q2065.04 1343.43 2062.77 1343.01 Q2060.53 1342.62 2058.03 1341.81 L2058.03 1337.41 Q2060.39 1338.63 2062.68 1339.26 Q2064.97 1339.86 2067.22 1339.86 Q2070.23 1339.86 2071.85 1338.84 Q2073.47 1337.8 2073.47 1335.93 Q2073.47 1334.19 2072.29 1333.26 Q2071.13 1332.34 2067.17 1331.48 L2065.69 1331.14 Q2061.73 1330.3 2059.97 1328.59 Q2058.21 1326.85 2058.21 1323.84 Q2058.21 1320.19 2060.81 1318.2 Q2063.4 1316.2 2068.17 1316.2 Q2070.53 1316.2 2072.61 1316.55 Q2074.7 1316.9 2076.45 1317.59 Z" fill="#000000" fill-rule="nonzero" fill-opacity="1" /><path clip-path="url(#clip840)" d="M2096.41 1329.72 Q2091.25 1329.72 2089.26 1330.9 Q2087.26 1332.08 2087.26 1334.93 Q2087.26 1337.2 2088.75 1338.54 Q2090.25 1339.86 2092.82 1339.86 Q2096.36 1339.86 2098.49 1337.36 Q2100.64 1334.84 2100.64 1330.67 L2100.64 1329.72 L2096.41 1329.72 M2104.9 1327.96 L2104.9 1342.76 L2100.64 1342.76 L2100.64 1338.82 Q2099.19 1341.18 2097.01 1342.32 Q2094.83 1343.43 2091.69 1343.43 Q2087.7 1343.43 2085.34 1341.2 Q2083.01 1338.96 2083.01 1335.21 Q2083.01 1330.83 2085.92 1328.61 Q2088.86 1326.39 2094.67 1326.39 L2100.64 1326.39 L2100.64 1325.97 Q2100.64 1323.03 2098.7 1321.44 Q2096.78 1319.82 2093.28 1319.82 Q2091.06 1319.82 2088.95 1320.35 Q2086.85 1320.88 2084.9 1321.95 L2084.9 1318.01 Q2087.24 1317.11 2089.44 1316.67 Q2091.64 1316.2 2093.72 1316.2 Q2099.35 1316.2 2102.13 1319.12 Q2104.9 1322.04 2104.9 1327.96 Z" fill="#000000" fill-rule="nonzero" fill-opacity="1" /><path clip-path="url(#clip840)" d="M2133.86 1321.81 Q2135.46 1318.94 2137.68 1317.57 Q2139.9 1316.2 2142.91 1316.2 Q2146.96 1316.2 2149.16 1319.05 Q2151.36 1321.88 2151.36 1327.11 L2151.36 1342.76 L2147.08 1342.76 L2147.08 1327.25 Q2147.08 1323.52 2145.76 1321.71 Q2144.44 1319.91 2141.73 1319.91 Q2138.42 1319.91 2136.5 1322.11 Q2134.58 1324.31 2134.58 1328.1 L2134.58 1342.76 L2130.3 1342.76 L2130.3 1327.25 Q2130.3 1323.5 2128.98 1321.71 Q2127.66 1319.91 2124.9 1319.91 Q2121.64 1319.91 2119.72 1322.13 Q2117.8 1324.33 2117.8 1328.1 L2117.8 1342.76 L2113.51 1342.76 L2113.51 1316.83 L2117.8 1316.83 L2117.8 1320.86 Q2119.26 1318.47 2121.29 1317.34 Q2123.33 1316.2 2126.13 1316.2 Q2128.95 1316.2 2130.92 1317.64 Q2132.91 1319.07 2133.86 1321.81 Z" fill="#000000" fill-rule="nonzero" fill-opacity="1" /><path clip-path="url(#clip840)" d="M2163.98 1338.87 L2163.98 1352.62 L2159.69 1352.62 L2159.69 1316.83 L2163.98 1316.83 L2163.98 1320.76 Q2165.32 1318.45 2167.36 1317.34 Q2169.42 1316.2 2172.26 1316.2 Q2176.99 1316.2 2179.93 1319.95 Q2182.89 1323.7 2182.89 1329.82 Q2182.89 1335.93 2179.93 1339.68 Q2176.99 1343.43 2172.26 1343.43 Q2169.42 1343.43 2167.36 1342.32 Q2165.32 1341.18 2163.98 1338.87 M2178.47 1329.82 Q2178.47 1325.12 2176.52 1322.45 Q2174.6 1319.77 2171.22 1319.77 Q2167.84 1319.77 2165.9 1322.45 Q2163.98 1325.12 2163.98 1329.82 Q2163.98 1334.51 2165.9 1337.2 Q2167.84 1339.86 2171.22 1339.86 Q2174.6 1339.86 2176.52 1337.2 Q2178.47 1334.51 2178.47 1329.82 Z" fill="#000000" fill-rule="nonzero" fill-opacity="1" /><path clip-path="url(#clip840)" d="M2189.95 1306.74 L2194.21 1306.74 L2194.21 1342.76 L2189.95 1342.76 L2189.95 1306.74 Z" fill="#000000" fill-rule="nonzero" fill-opacity="1" /><path clip-path="url(#clip840)" d="M2203.12 1316.83 L2207.38 1316.83 L2207.38 1342.76 L2203.12 1342.76 L2203.12 1316.83 M2203.12 1306.74 L2207.38 1306.74 L2207.38 1312.13 L2203.12 1312.13 L2203.12 1306.74 Z" fill="#000000" fill-rule="nonzero" fill-opacity="1" /><path clip-path="url(#clip840)" d="M2237.84 1327.11 L2237.84 1342.76 L2233.58 1342.76 L2233.58 1327.25 Q2233.58 1323.57 2232.15 1321.74 Q2230.71 1319.91 2227.84 1319.91 Q2224.39 1319.91 2222.4 1322.11 Q2220.41 1324.31 2220.41 1328.1 L2220.41 1342.76 L2216.13 1342.76 L2216.13 1316.83 L2220.41 1316.83 L2220.41 1320.86 Q2221.94 1318.52 2224 1317.36 Q2226.08 1316.2 2228.79 1316.2 Q2233.26 1316.2 2235.55 1318.98 Q2237.84 1321.74 2237.84 1327.11 Z" fill="#000000" fill-rule="nonzero" fill-opacity="1" /><path clip-path="url(#clip840)" d="M2263.4 1329.49 Q2263.4 1324.86 2261.48 1322.32 Q2259.58 1319.77 2256.13 1319.77 Q2252.7 1319.77 2250.78 1322.32 Q2248.88 1324.86 2248.88 1329.49 Q2248.88 1334.1 2250.78 1336.64 Q2252.7 1339.19 2256.13 1339.19 Q2259.58 1339.19 2261.48 1336.64 Q2263.4 1334.1 2263.4 1329.49 M2267.66 1339.54 Q2267.66 1346.16 2264.72 1349.38 Q2261.78 1352.62 2255.71 1352.62 Q2253.47 1352.62 2251.48 1352.27 Q2249.49 1351.95 2247.61 1351.25 L2247.61 1347.11 Q2249.49 1348.13 2251.31 1348.61 Q2253.14 1349.1 2255.04 1349.1 Q2259.23 1349.1 2261.31 1346.9 Q2263.4 1344.72 2263.4 1340.3 L2263.4 1338.2 Q2262.08 1340.49 2260.02 1341.62 Q2257.96 1342.76 2255.09 1342.76 Q2250.32 1342.76 2247.4 1339.12 Q2244.49 1335.49 2244.49 1329.49 Q2244.49 1323.47 2247.4 1319.84 Q2250.32 1316.2 2255.09 1316.2 Q2257.96 1316.2 2260.02 1317.34 Q2262.08 1318.47 2263.4 1320.76 L2263.4 1316.83 L2267.66 1316.83 L2267.66 1339.54 Z" fill="#000000" fill-rule="nonzero" fill-opacity="1" /></svg>
