<?xml version="1.0" encoding="utf-8"?>
<svg xmlns="http://www.w3.org/2000/svg" xmlns:xlink="http://www.w3.org/1999/xlink" width="600" height="400" viewBox="0 0 2400 1600">
<defs>
  <clipPath id="clip180">
    <rect x="0" y="0" width="2400" height="1600"/>
  </clipPath>
</defs>
<path clip-path="url(#clip180)" d="M0 1600 L2400 1600 L2400 0 L0 0  Z" fill="#ffffff" fill-rule="evenodd" fill-opacity="1"/>
<defs>
  <clipPath id="clip181">
    <rect x="202" y="47" width="2152" height="1377"/>
  </clipPath>
</defs>
<path clip-path="url(#clip180)" d="M242.135 1423.18 L2352.76 1423.18 L2352.76 47.2441 L242.135 47.2441  Z" fill="#ffffff" fill-rule="evenodd" fill-opacity="1"/>
<defs>
  <clipPath id="clip182">
    <rect x="242" y="47" width="2112" height="1377"/>
  </clipPath>
</defs>
<polyline clip-path="url(#clip182)" style="stroke:#000000; stroke-linecap:round; stroke-linejoin:round; stroke-width:2; stroke-opacity:0.1; fill:none" points="299.876,1423.18 299.876,47.2441 "/>
<polyline clip-path="url(#clip182)" style="stroke:#000000; stroke-linecap:round; stroke-linejoin:round; stroke-width:2; stroke-opacity:0.1; fill:none" points="798.162,1423.18 798.162,47.2441 "/>
<polyline clip-path="url(#clip182)" style="stroke:#000000; stroke-linecap:round; stroke-linejoin:round; stroke-width:2; stroke-opacity:0.1; fill:none" points="1296.45,1423.18 1296.45,47.2441 "/>
<polyline clip-path="url(#clip182)" style="stroke:#000000; stroke-linecap:round; stroke-linejoin:round; stroke-width:2; stroke-opacity:0.1; fill:none" points="1794.74,1423.18 1794.74,47.2441 "/>
<polyline clip-path="url(#clip182)" style="stroke:#000000; stroke-linecap:round; stroke-linejoin:round; stroke-width:2; stroke-opacity:0.1; fill:none" points="2293.02,1423.18 2293.02,47.2441 "/>
<polyline clip-path="url(#clip182)" style="stroke:#000000; stroke-linecap:round; stroke-linejoin:round; stroke-width:2; stroke-opacity:0.1; fill:none" points="242.135,1336.52 2352.76,1336.52 "/>
<polyline clip-path="url(#clip182)" style="stroke:#000000; stroke-linecap:round; stroke-linejoin:round; stroke-width:2; stroke-opacity:0.1; fill:none" points="242.135,972.486 2352.76,972.486 "/>
<polyline clip-path="url(#clip182)" style="stroke:#000000; stroke-linecap:round; stroke-linejoin:round; stroke-width:2; stroke-opacity:0.1; fill:none" points="242.135,608.448 2352.76,608.448 "/>
<polyline clip-path="url(#clip182)" style="stroke:#000000; stroke-linecap:round; stroke-linejoin:round; stroke-width:2; stroke-opacity:0.1; fill:none" points="242.135,244.41 2352.76,244.41 "/>
<polyline clip-path="url(#clip180)" style="stroke:#000000; stroke-linecap:round; stroke-linejoin:round; stroke-width:4; stroke-opacity:1; fill:none" points="242.135,1423.18 2352.76,1423.18 "/>
<polyline clip-path="url(#clip180)" style="stroke:#000000; stroke-linecap:round; stroke-linejoin:round; stroke-width:4; stroke-opacity:1; fill:none" points="299.876,1423.18 299.876,1404.28 "/>
<polyline clip-path="url(#clip180)" style="stroke:#000000; stroke-linecap:round; stroke-linejoin:round; stroke-width:4; stroke-opacity:1; fill:none" points="798.162,1423.18 798.162,1404.28 "/>
<polyline clip-path="url(#clip180)" style="stroke:#000000; stroke-linecap:round; stroke-linejoin:round; stroke-width:4; stroke-opacity:1; fill:none" points="1296.45,1423.18 1296.45,1404.28 "/>
<polyline clip-path="url(#clip180)" style="stroke:#000000; stroke-linecap:round; stroke-linejoin:round; stroke-width:4; stroke-opacity:1; fill:none" points="1794.74,1423.18 1794.74,1404.28 "/>
<polyline clip-path="url(#clip180)" style="stroke:#000000; stroke-linecap:round; stroke-linejoin:round; stroke-width:4; stroke-opacity:1; fill:none" points="2293.02,1423.18 2293.02,1404.28 "/>
<path clip-path="url(#clip180)" d="M299.876 1454.1 Q296.265 1454.1 294.436 1457.66 Q292.631 1461.2 292.631 1468.33 Q292.631 1475.44 294.436 1479.01 Q296.265 1482.55 299.876 1482.55 Q303.51 1482.55 305.316 1479.01 Q307.145 1475.44 307.145 1468.33 Q307.145 1461.2 305.316 1457.66 Q303.51 1454.1 299.876 1454.1 M299.876 1450.39 Q305.686 1450.39 308.742 1455 Q311.82 1459.58 311.82 1468.33 Q311.82 1477.06 308.742 1481.67 Q305.686 1486.25 299.876 1486.25 Q294.066 1486.25 290.987 1481.67 Q287.932 1477.06 287.932 1468.33 Q287.932 1459.58 290.987 1455 Q294.066 1450.39 299.876 1450.39 Z" fill="#000000" fill-rule="nonzero" fill-opacity="1" /><path clip-path="url(#clip180)" d="M761.855 1481.64 L778.174 1481.64 L778.174 1485.58 L756.23 1485.58 L756.23 1481.64 Q758.892 1478.89 763.475 1474.26 Q768.082 1469.61 769.262 1468.27 Q771.507 1465.74 772.387 1464.01 Q773.29 1462.25 773.29 1460.56 Q773.29 1457.8 771.345 1456.07 Q769.424 1454.33 766.322 1454.33 Q764.123 1454.33 761.67 1455.09 Q759.239 1455.86 756.461 1457.41 L756.461 1452.69 Q759.285 1451.55 761.739 1450.97 Q764.193 1450.39 766.23 1450.39 Q771.6 1450.39 774.794 1453.08 Q777.989 1455.77 777.989 1460.26 Q777.989 1462.39 777.179 1464.31 Q776.392 1466.2 774.285 1468.8 Q773.707 1469.47 770.605 1472.69 Q767.503 1475.88 761.855 1481.64 Z" fill="#000000" fill-rule="nonzero" fill-opacity="1" /><path clip-path="url(#clip180)" d="M788.035 1451.02 L806.392 1451.02 L806.392 1454.96 L792.318 1454.96 L792.318 1463.43 Q793.336 1463.08 794.355 1462.92 Q795.373 1462.73 796.392 1462.73 Q802.179 1462.73 805.558 1465.9 Q808.938 1469.08 808.938 1474.49 Q808.938 1480.07 805.466 1483.17 Q801.993 1486.25 795.674 1486.25 Q793.498 1486.25 791.23 1485.88 Q788.984 1485.51 786.577 1484.77 L786.577 1480.07 Q788.66 1481.2 790.882 1481.76 Q793.105 1482.32 795.581 1482.32 Q799.586 1482.32 801.924 1480.21 Q804.262 1478.1 804.262 1474.49 Q804.262 1470.88 801.924 1468.77 Q799.586 1466.67 795.581 1466.67 Q793.706 1466.67 791.831 1467.08 Q789.98 1467.5 788.035 1468.38 L788.035 1451.02 Z" fill="#000000" fill-rule="nonzero" fill-opacity="1" /><path clip-path="url(#clip180)" d="M828.151 1454.1 Q824.54 1454.1 822.711 1457.66 Q820.905 1461.2 820.905 1468.33 Q820.905 1475.44 822.711 1479.01 Q824.54 1482.55 828.151 1482.55 Q831.785 1482.55 833.59 1479.01 Q835.419 1475.44 835.419 1468.33 Q835.419 1461.2 833.59 1457.66 Q831.785 1454.1 828.151 1454.1 M828.151 1450.39 Q833.961 1450.39 837.016 1455 Q840.095 1459.58 840.095 1468.33 Q840.095 1477.06 837.016 1481.67 Q833.961 1486.25 828.151 1486.25 Q822.341 1486.25 819.262 1481.67 Q816.206 1477.06 816.206 1468.33 Q816.206 1459.58 819.262 1455 Q822.341 1450.39 828.151 1450.39 Z" fill="#000000" fill-rule="nonzero" fill-opacity="1" /><path clip-path="url(#clip180)" d="M1256.07 1451.02 L1274.42 1451.02 L1274.42 1454.96 L1260.35 1454.96 L1260.35 1463.43 Q1261.37 1463.08 1262.39 1462.92 Q1263.4 1462.73 1264.42 1462.73 Q1270.21 1462.73 1273.59 1465.9 Q1276.97 1469.08 1276.97 1474.49 Q1276.97 1480.07 1273.5 1483.17 Q1270.03 1486.25 1263.71 1486.25 Q1261.53 1486.25 1259.26 1485.88 Q1257.02 1485.51 1254.61 1484.77 L1254.61 1480.07 Q1256.69 1481.2 1258.91 1481.76 Q1261.14 1482.32 1263.61 1482.32 Q1267.62 1482.32 1269.96 1480.21 Q1272.29 1478.1 1272.29 1474.49 Q1272.29 1470.88 1269.96 1468.77 Q1267.62 1466.67 1263.61 1466.67 Q1261.74 1466.67 1259.86 1467.08 Q1258.01 1467.5 1256.07 1468.38 L1256.07 1451.02 Z" fill="#000000" fill-rule="nonzero" fill-opacity="1" /><path clip-path="url(#clip180)" d="M1296.18 1454.1 Q1292.57 1454.1 1290.74 1457.66 Q1288.94 1461.2 1288.94 1468.33 Q1288.94 1475.44 1290.74 1479.01 Q1292.57 1482.55 1296.18 1482.55 Q1299.82 1482.55 1301.62 1479.01 Q1303.45 1475.44 1303.45 1468.33 Q1303.45 1461.2 1301.62 1457.66 Q1299.82 1454.1 1296.18 1454.1 M1296.18 1450.39 Q1301.99 1450.39 1305.05 1455 Q1308.13 1459.58 1308.13 1468.33 Q1308.13 1477.06 1305.05 1481.67 Q1301.99 1486.25 1296.18 1486.25 Q1290.37 1486.25 1287.29 1481.67 Q1284.24 1477.06 1284.24 1468.33 Q1284.24 1459.58 1287.29 1455 Q1290.37 1450.39 1296.18 1450.39 Z" fill="#000000" fill-rule="nonzero" fill-opacity="1" /><path clip-path="url(#clip180)" d="M1326.34 1454.1 Q1322.73 1454.1 1320.9 1457.66 Q1319.1 1461.2 1319.1 1468.33 Q1319.1 1475.44 1320.9 1479.01 Q1322.73 1482.55 1326.34 1482.55 Q1329.98 1482.55 1331.78 1479.01 Q1333.61 1475.44 1333.61 1468.33 Q1333.61 1461.2 1331.78 1457.66 Q1329.98 1454.1 1326.34 1454.1 M1326.34 1450.39 Q1332.15 1450.39 1335.21 1455 Q1338.29 1459.58 1338.29 1468.33 Q1338.29 1477.06 1335.21 1481.67 Q1332.15 1486.25 1326.34 1486.25 Q1320.53 1486.25 1317.46 1481.67 Q1314.4 1477.06 1314.4 1468.33 Q1314.4 1459.58 1317.46 1455 Q1320.53 1450.39 1326.34 1450.39 Z" fill="#000000" fill-rule="nonzero" fill-opacity="1" /><path clip-path="url(#clip180)" d="M1753.01 1451.02 L1775.23 1451.02 L1775.23 1453.01 L1762.69 1485.58 L1757.8 1485.58 L1769.61 1454.96 L1753.01 1454.96 L1753.01 1451.02 Z" fill="#000000" fill-rule="nonzero" fill-opacity="1" /><path clip-path="url(#clip180)" d="M1784.4 1451.02 L1802.76 1451.02 L1802.76 1454.96 L1788.68 1454.96 L1788.68 1463.43 Q1789.7 1463.08 1790.72 1462.92 Q1791.74 1462.73 1792.76 1462.73 Q1798.54 1462.73 1801.92 1465.9 Q1805.3 1469.08 1805.3 1474.49 Q1805.3 1480.07 1801.83 1483.17 Q1798.36 1486.25 1792.04 1486.25 Q1789.86 1486.25 1787.59 1485.88 Q1785.35 1485.51 1782.94 1484.77 L1782.94 1480.07 Q1785.02 1481.2 1787.25 1481.76 Q1789.47 1482.32 1791.95 1482.32 Q1795.95 1482.32 1798.29 1480.21 Q1800.63 1478.1 1800.63 1474.49 Q1800.63 1470.88 1798.29 1468.77 Q1795.95 1466.67 1791.95 1466.67 Q1790.07 1466.67 1788.2 1467.08 Q1786.34 1467.5 1784.4 1468.38 L1784.4 1451.02 Z" fill="#000000" fill-rule="nonzero" fill-opacity="1" /><path clip-path="url(#clip180)" d="M1824.51 1454.1 Q1820.9 1454.1 1819.08 1457.66 Q1817.27 1461.2 1817.27 1468.33 Q1817.27 1475.44 1819.08 1479.01 Q1820.9 1482.55 1824.51 1482.55 Q1828.15 1482.55 1829.95 1479.01 Q1831.78 1475.44 1831.78 1468.33 Q1831.78 1461.2 1829.95 1457.66 Q1828.15 1454.1 1824.51 1454.1 M1824.51 1450.39 Q1830.33 1450.39 1833.38 1455 Q1836.46 1459.58 1836.46 1468.33 Q1836.46 1477.06 1833.38 1481.67 Q1830.33 1486.25 1824.51 1486.25 Q1818.7 1486.25 1815.63 1481.67 Q1812.57 1477.06 1812.57 1468.33 Q1812.57 1459.58 1815.63 1455 Q1818.7 1450.39 1824.51 1450.39 Z" fill="#000000" fill-rule="nonzero" fill-opacity="1" /><path clip-path="url(#clip180)" d="M2237.55 1481.64 L2245.19 1481.64 L2245.19 1455.28 L2236.88 1456.95 L2236.88 1452.69 L2245.14 1451.02 L2249.82 1451.02 L2249.82 1481.64 L2257.45 1481.64 L2257.45 1485.58 L2237.55 1485.58 L2237.55 1481.64 Z" fill="#000000" fill-rule="nonzero" fill-opacity="1" /><path clip-path="url(#clip180)" d="M2276.9 1454.1 Q2273.29 1454.1 2271.46 1457.66 Q2269.65 1461.2 2269.65 1468.33 Q2269.65 1475.44 2271.46 1479.01 Q2273.29 1482.55 2276.9 1482.55 Q2280.53 1482.55 2282.34 1479.01 Q2284.17 1475.44 2284.17 1468.33 Q2284.17 1461.2 2282.34 1457.66 Q2280.53 1454.1 2276.9 1454.1 M2276.9 1450.39 Q2282.71 1450.39 2285.76 1455 Q2288.84 1459.58 2288.84 1468.33 Q2288.84 1477.06 2285.76 1481.67 Q2282.71 1486.25 2276.9 1486.25 Q2271.09 1486.25 2268.01 1481.67 Q2264.95 1477.06 2264.95 1468.33 Q2264.95 1459.58 2268.01 1455 Q2271.09 1450.39 2276.9 1450.39 Z" fill="#000000" fill-rule="nonzero" fill-opacity="1" /><path clip-path="url(#clip180)" d="M2307.06 1454.1 Q2303.45 1454.1 2301.62 1457.66 Q2299.82 1461.2 2299.82 1468.33 Q2299.82 1475.44 2301.62 1479.01 Q2303.45 1482.55 2307.06 1482.55 Q2310.69 1482.55 2312.5 1479.01 Q2314.33 1475.44 2314.33 1468.33 Q2314.33 1461.2 2312.5 1457.66 Q2310.69 1454.1 2307.06 1454.1 M2307.06 1450.39 Q2312.87 1450.39 2315.93 1455 Q2319 1459.58 2319 1468.33 Q2319 1477.06 2315.93 1481.67 Q2312.87 1486.25 2307.06 1486.25 Q2301.25 1486.25 2298.17 1481.67 Q2295.12 1477.06 2295.12 1468.33 Q2295.12 1459.58 2298.17 1455 Q2301.25 1450.39 2307.06 1450.39 Z" fill="#000000" fill-rule="nonzero" fill-opacity="1" /><path clip-path="url(#clip180)" d="M2337.22 1454.1 Q2333.61 1454.1 2331.78 1457.66 Q2329.98 1461.2 2329.98 1468.33 Q2329.98 1475.44 2331.78 1479.01 Q2333.61 1482.55 2337.22 1482.55 Q2340.86 1482.55 2342.66 1479.01 Q2344.49 1475.44 2344.49 1468.33 Q2344.49 1461.2 2342.66 1457.66 Q2340.86 1454.1 2337.22 1454.1 M2337.22 1450.39 Q2343.03 1450.39 2346.09 1455 Q2349.17 1459.58 2349.17 1468.33 Q2349.17 1477.06 2346.09 1481.67 Q2343.03 1486.25 2337.22 1486.25 Q2331.41 1486.25 2328.33 1481.67 Q2325.28 1477.06 2325.28 1468.33 Q2325.28 1459.58 2328.33 1455 Q2331.41 1450.39 2337.22 1450.39 Z" fill="#000000" fill-rule="nonzero" fill-opacity="1" /><path clip-path="url(#clip180)" d="M1165.17 1520.52 L1171.6 1520.52 L1171.6 1568.04 L1165.17 1568.04 L1165.17 1520.52 Z" fill="#000000" fill-rule="nonzero" fill-opacity="1" /><path clip-path="url(#clip180)" d="M1189.93 1522.27 L1189.93 1532.4 L1201.99 1532.4 L1201.99 1536.95 L1189.93 1536.95 L1189.93 1556.3 Q1189.93 1560.66 1191.11 1561.9 Q1192.32 1563.14 1195.98 1563.14 L1201.99 1563.14 L1201.99 1568.04 L1195.98 1568.04 Q1189.2 1568.04 1186.62 1565.53 Q1184.04 1562.98 1184.04 1556.3 L1184.04 1536.95 L1179.74 1536.95 L1179.74 1532.4 L1184.04 1532.4 L1184.04 1522.27 L1189.93 1522.27 Z" fill="#000000" fill-rule="nonzero" fill-opacity="1" /><path clip-path="url(#clip180)" d="M1240.19 1548.76 L1240.19 1551.62 L1213.26 1551.62 Q1213.64 1557.67 1216.89 1560.85 Q1220.17 1564 1225.99 1564 Q1229.36 1564 1232.52 1563.17 Q1235.7 1562.35 1238.82 1560.69 L1238.82 1566.23 Q1235.67 1567.57 1232.36 1568.27 Q1229.05 1568.97 1225.64 1568.97 Q1217.11 1568.97 1212.11 1564 Q1207.15 1559.04 1207.15 1550.57 Q1207.15 1541.82 1211.86 1536.69 Q1216.6 1531.54 1224.62 1531.54 Q1231.81 1531.54 1235.98 1536.18 Q1240.19 1540.8 1240.19 1548.76 M1234.33 1547.04 Q1234.27 1542.23 1231.62 1539.37 Q1229.01 1536.5 1224.69 1536.5 Q1219.78 1536.5 1216.82 1539.27 Q1213.9 1542.04 1213.45 1547.07 L1234.33 1547.04 Z" fill="#000000" fill-rule="nonzero" fill-opacity="1" /><path clip-path="url(#clip180)" d="M1270.45 1537.87 Q1269.47 1537.3 1268.29 1537.04 Q1267.14 1536.76 1265.74 1536.76 Q1260.78 1536.76 1258.11 1540 Q1255.46 1543.22 1255.46 1549.27 L1255.46 1568.04 L1249.58 1568.04 L1249.58 1532.4 L1255.46 1532.4 L1255.46 1537.93 Q1257.31 1534.69 1260.27 1533.13 Q1263.23 1531.54 1267.46 1531.54 Q1268.07 1531.54 1268.8 1531.63 Q1269.53 1531.7 1270.42 1531.85 L1270.45 1537.87 Z" fill="#000000" fill-rule="nonzero" fill-opacity="1" /><path clip-path="url(#clip180)" d="M1292.8 1550.12 Q1285.7 1550.12 1282.96 1551.75 Q1280.23 1553.37 1280.23 1557.29 Q1280.23 1560.4 1282.26 1562.25 Q1284.33 1564.07 1287.86 1564.07 Q1292.73 1564.07 1295.66 1560.63 Q1298.62 1557.16 1298.62 1551.43 L1298.62 1550.12 L1292.8 1550.12 M1304.48 1547.71 L1304.48 1568.04 L1298.62 1568.04 L1298.62 1562.63 Q1296.62 1565.88 1293.63 1567.44 Q1290.63 1568.97 1286.31 1568.97 Q1280.83 1568.97 1277.58 1565.91 Q1274.37 1562.82 1274.37 1557.67 Q1274.37 1551.65 1278.38 1548.6 Q1282.42 1545.54 1290.41 1545.54 L1298.62 1545.54 L1298.62 1544.97 Q1298.62 1540.93 1295.95 1538.73 Q1293.31 1536.5 1288.5 1536.5 Q1285.45 1536.5 1282.55 1537.23 Q1279.65 1537.97 1276.98 1539.43 L1276.98 1534.02 Q1280.19 1532.78 1283.22 1532.17 Q1286.24 1531.54 1289.11 1531.54 Q1296.84 1531.54 1300.66 1535.55 Q1304.48 1539.56 1304.48 1547.71 Z" fill="#000000" fill-rule="nonzero" fill-opacity="1" /><path clip-path="url(#clip180)" d="M1322.34 1522.27 L1322.34 1532.4 L1334.4 1532.4 L1334.4 1536.95 L1322.34 1536.95 L1322.34 1556.3 Q1322.34 1560.66 1323.51 1561.9 Q1324.72 1563.14 1328.38 1563.14 L1334.4 1563.14 L1334.4 1568.04 L1328.38 1568.04 Q1321.6 1568.04 1319.03 1565.53 Q1316.45 1562.98 1316.45 1556.3 L1316.45 1536.95 L1312.15 1536.95 L1312.15 1532.4 L1316.45 1532.4 L1316.45 1522.27 L1322.34 1522.27 Z" fill="#000000" fill-rule="nonzero" fill-opacity="1" /><path clip-path="url(#clip180)" d="M1342.1 1532.4 L1347.96 1532.4 L1347.96 1568.04 L1342.1 1568.04 L1342.1 1532.4 M1342.1 1518.52 L1347.96 1518.52 L1347.96 1525.93 L1342.1 1525.93 L1342.1 1518.52 Z" fill="#000000" fill-rule="nonzero" fill-opacity="1" /><path clip-path="url(#clip180)" d="M1374.02 1536.5 Q1369.31 1536.5 1366.58 1540.19 Q1363.84 1543.85 1363.84 1550.25 Q1363.84 1556.65 1366.55 1560.34 Q1369.28 1564 1374.02 1564 Q1378.7 1564 1381.44 1560.31 Q1384.18 1556.62 1384.18 1550.25 Q1384.18 1543.92 1381.44 1540.23 Q1378.7 1536.5 1374.02 1536.5 M1374.02 1531.54 Q1381.66 1531.54 1386.02 1536.5 Q1390.38 1541.47 1390.38 1550.25 Q1390.38 1559 1386.02 1564 Q1381.66 1568.97 1374.02 1568.97 Q1366.35 1568.97 1361.99 1564 Q1357.66 1559 1357.66 1550.25 Q1357.66 1541.47 1361.99 1536.5 Q1366.35 1531.54 1374.02 1531.54 Z" fill="#000000" fill-rule="nonzero" fill-opacity="1" /><path clip-path="url(#clip180)" d="M1429.72 1546.53 L1429.72 1568.04 L1423.87 1568.04 L1423.87 1546.72 Q1423.87 1541.66 1421.89 1539.14 Q1419.92 1536.63 1415.97 1536.63 Q1411.23 1536.63 1408.5 1539.65 Q1405.76 1542.68 1405.76 1547.9 L1405.76 1568.04 L1399.87 1568.04 L1399.87 1532.4 L1405.76 1532.4 L1405.76 1537.93 Q1407.86 1534.72 1410.69 1533.13 Q1413.56 1531.54 1417.28 1531.54 Q1423.42 1531.54 1426.57 1535.36 Q1429.72 1539.14 1429.72 1546.53 Z" fill="#000000" fill-rule="nonzero" fill-opacity="1" /><polyline clip-path="url(#clip180)" style="stroke:#000000; stroke-linecap:round; stroke-linejoin:round; stroke-width:4; stroke-opacity:1; fill:none" points="242.135,1423.18 242.135,47.2441 "/>
<polyline clip-path="url(#clip180)" style="stroke:#000000; stroke-linecap:round; stroke-linejoin:round; stroke-width:4; stroke-opacity:1; fill:none" points="242.135,1336.52 261.032,1336.52 "/>
<polyline clip-path="url(#clip180)" style="stroke:#000000; stroke-linecap:round; stroke-linejoin:round; stroke-width:4; stroke-opacity:1; fill:none" points="242.135,972.486 261.032,972.486 "/>
<polyline clip-path="url(#clip180)" style="stroke:#000000; stroke-linecap:round; stroke-linejoin:round; stroke-width:4; stroke-opacity:1; fill:none" points="242.135,608.448 261.032,608.448 "/>
<polyline clip-path="url(#clip180)" style="stroke:#000000; stroke-linecap:round; stroke-linejoin:round; stroke-width:4; stroke-opacity:1; fill:none" points="242.135,244.41 261.032,244.41 "/>
<path clip-path="url(#clip180)" d="M114.26 1336.98 L143.936 1336.98 L143.936 1340.91 L114.26 1340.91 L114.26 1336.98 Z" fill="#000000" fill-rule="nonzero" fill-opacity="1" /><path clip-path="url(#clip180)" d="M168.195 1335.17 Q171.552 1335.89 173.427 1338.16 Q175.325 1340.42 175.325 1343.76 Q175.325 1348.87 171.806 1351.67 Q168.288 1354.47 161.806 1354.47 Q159.63 1354.47 157.315 1354.04 Q155.024 1353.62 152.57 1352.76 L152.57 1348.25 Q154.515 1349.38 156.829 1349.96 Q159.144 1350.54 161.667 1350.54 Q166.065 1350.54 168.357 1348.8 Q170.672 1347.07 170.672 1343.76 Q170.672 1340.7 168.519 1338.99 Q166.39 1337.25 162.57 1337.25 L158.542 1337.25 L158.542 1333.41 L162.755 1333.41 Q166.204 1333.41 168.033 1332.04 Q169.862 1330.66 169.862 1328.06 Q169.862 1325.4 167.964 1323.99 Q166.089 1322.55 162.57 1322.55 Q160.649 1322.55 158.45 1322.97 Q156.251 1323.39 153.612 1324.27 L153.612 1320.1 Q156.274 1319.36 158.589 1318.99 Q160.927 1318.62 162.987 1318.62 Q168.311 1318.62 171.413 1321.05 Q174.514 1323.46 174.514 1327.58 Q174.514 1330.45 172.871 1332.44 Q171.227 1334.41 168.195 1335.17 Z" fill="#000000" fill-rule="nonzero" fill-opacity="1" /><path clip-path="url(#clip180)" d="M194.19 1322.32 Q190.579 1322.32 188.75 1325.89 Q186.945 1329.43 186.945 1336.56 Q186.945 1343.66 188.75 1347.23 Q190.579 1350.77 194.19 1350.77 Q197.825 1350.77 199.63 1347.23 Q201.459 1343.66 201.459 1336.56 Q201.459 1329.43 199.63 1325.89 Q197.825 1322.32 194.19 1322.32 M194.19 1318.62 Q200 1318.62 203.056 1323.23 Q206.135 1327.81 206.135 1336.56 Q206.135 1345.29 203.056 1349.89 Q200 1354.47 194.19 1354.47 Q188.38 1354.47 185.301 1349.89 Q182.246 1345.29 182.246 1336.56 Q182.246 1327.81 185.301 1323.23 Q188.38 1318.62 194.19 1318.62 Z" fill="#000000" fill-rule="nonzero" fill-opacity="1" /><path clip-path="url(#clip180)" d="M114.26 972.937 L143.936 972.937 L143.936 976.872 L114.26 976.872 L114.26 972.937 Z" fill="#000000" fill-rule="nonzero" fill-opacity="1" /><path clip-path="url(#clip180)" d="M158.056 985.831 L174.376 985.831 L174.376 989.766 L152.431 989.766 L152.431 985.831 Q155.093 983.076 159.677 978.446 Q164.283 973.794 165.464 972.451 Q167.709 969.928 168.589 968.192 Q169.491 966.433 169.491 964.743 Q169.491 961.988 167.547 960.252 Q165.626 958.516 162.524 958.516 Q160.325 958.516 157.871 959.28 Q155.44 960.044 152.663 961.595 L152.663 956.873 Q155.487 955.738 157.94 955.16 Q160.394 954.581 162.431 954.581 Q167.802 954.581 170.996 957.266 Q174.19 959.951 174.19 964.442 Q174.19 966.572 173.38 968.493 Q172.593 970.391 170.487 972.984 Q169.908 973.655 166.806 976.872 Q163.704 980.067 158.056 985.831 Z" fill="#000000" fill-rule="nonzero" fill-opacity="1" /><path clip-path="url(#clip180)" d="M194.19 958.285 Q190.579 958.285 188.75 961.849 Q186.945 965.391 186.945 972.521 Q186.945 979.627 188.75 983.192 Q190.579 986.733 194.19 986.733 Q197.825 986.733 199.63 983.192 Q201.459 979.627 201.459 972.521 Q201.459 965.391 199.63 961.849 Q197.825 958.285 194.19 958.285 M194.19 954.581 Q200 954.581 203.056 959.187 Q206.135 963.771 206.135 972.521 Q206.135 981.247 203.056 985.854 Q200 990.437 194.19 990.437 Q188.38 990.437 185.301 985.854 Q182.246 981.247 182.246 972.521 Q182.246 963.771 185.301 959.187 Q188.38 954.581 194.19 954.581 Z" fill="#000000" fill-rule="nonzero" fill-opacity="1" /><path clip-path="url(#clip180)" d="M114.26 608.899 L143.936 608.899 L143.936 612.835 L114.26 612.835 L114.26 608.899 Z" fill="#000000" fill-rule="nonzero" fill-opacity="1" /><path clip-path="url(#clip180)" d="M154.839 621.793 L162.477 621.793 L162.477 595.427 L154.167 597.094 L154.167 592.835 L162.431 591.168 L167.107 591.168 L167.107 621.793 L174.746 621.793 L174.746 625.728 L154.839 625.728 L154.839 621.793 Z" fill="#000000" fill-rule="nonzero" fill-opacity="1" /><path clip-path="url(#clip180)" d="M194.19 594.247 Q190.579 594.247 188.75 597.812 Q186.945 601.353 186.945 608.483 Q186.945 615.589 188.75 619.154 Q190.579 622.696 194.19 622.696 Q197.825 622.696 199.63 619.154 Q201.459 615.589 201.459 608.483 Q201.459 601.353 199.63 597.812 Q197.825 594.247 194.19 594.247 M194.19 590.543 Q200 590.543 203.056 595.15 Q206.135 599.733 206.135 608.483 Q206.135 617.21 203.056 621.816 Q200 626.399 194.19 626.399 Q188.38 626.399 185.301 621.816 Q182.246 617.21 182.246 608.483 Q182.246 599.733 185.301 595.15 Q188.38 590.543 194.19 590.543 Z" fill="#000000" fill-rule="nonzero" fill-opacity="1" /><path clip-path="url(#clip180)" d="M194.19 230.209 Q190.579 230.209 188.75 233.774 Q186.945 237.315 186.945 244.445 Q186.945 251.551 188.75 255.116 Q190.579 258.658 194.19 258.658 Q197.825 258.658 199.63 255.116 Q201.459 251.551 201.459 244.445 Q201.459 237.315 199.63 233.774 Q197.825 230.209 194.19 230.209 M194.19 226.505 Q200 226.505 203.056 231.112 Q206.135 235.695 206.135 244.445 Q206.135 253.172 203.056 257.778 Q200 262.362 194.19 262.362 Q188.38 262.362 185.301 257.778 Q182.246 253.172 182.246 244.445 Q182.246 235.695 185.301 231.112 Q188.38 226.505 194.19 226.505 Z" fill="#000000" fill-rule="nonzero" fill-opacity="1" /><path clip-path="url(#clip180)" d="M16.4842 816.375 L16.4842 786.329 L21.895 786.329 L21.895 809.945 L35.9632 809.945 L35.9632 787.315 L41.3741 787.315 L41.3741 809.945 L58.5933 809.945 L58.5933 785.756 L64.0042 785.756 L64.0042 816.375 L16.4842 816.375 Z" fill="#000000" fill-rule="nonzero" fill-opacity="1" /><path clip-path="url(#clip180)" d="M16.4842 775.189 L16.4842 768.759 L58.5933 768.759 L58.5933 745.62 L64.0042 745.62 L64.0042 775.189 L16.4842 775.189 Z" fill="#000000" fill-rule="nonzero" fill-opacity="1" /><path clip-path="url(#clip180)" d="M41.3104 732.443 L58.7206 732.443 L58.7206 722.13 Q58.7206 716.942 56.5881 714.46 Q54.4238 711.945 49.9996 711.945 Q45.5436 711.945 43.4429 714.46 Q41.3104 716.942 41.3104 722.13 L41.3104 732.443 M21.7677 732.443 L36.0905 732.443 L36.0905 722.926 Q36.0905 718.216 34.34 715.924 Q32.5576 713.6 28.9291 713.6 Q25.3325 713.6 23.5501 715.924 Q21.7677 718.216 21.7677 722.926 L21.7677 732.443 M16.4842 738.872 L16.4842 722.449 Q16.4842 715.096 19.5397 711.118 Q22.5952 707.139 28.2289 707.139 Q32.5894 707.139 35.1675 709.176 Q37.7456 711.213 38.3822 715.16 Q39.4007 710.418 42.6472 707.808 Q45.8619 705.166 50.6998 705.166 Q57.0655 705.166 60.5348 709.495 Q64.0042 713.823 64.0042 721.812 L64.0042 738.872 L16.4842 738.872 Z" fill="#000000" fill-rule="nonzero" fill-opacity="1" /><path clip-path="url(#clip180)" d="M20.8447 676.011 Q20.8447 683.013 26.0645 687.151 Q31.2844 691.257 40.2919 691.257 Q49.2675 691.257 54.4874 687.151 Q59.7073 683.013 59.7073 676.011 Q59.7073 669.009 54.4874 664.935 Q49.2675 660.829 40.2919 660.829 Q31.2844 660.829 26.0645 664.935 Q20.8447 669.009 20.8447 676.011 M15.6248 676.011 Q15.6248 666.017 22.3406 660.033 Q29.0246 654.049 40.2919 654.049 Q51.5274 654.049 58.2432 660.033 Q64.9272 666.017 64.9272 676.011 Q64.9272 686.037 58.2432 692.052 Q51.5592 698.036 40.2919 698.036 Q29.0246 698.036 22.3406 692.052 Q15.6248 686.037 15.6248 676.011 Z" fill="#000000" fill-rule="nonzero" fill-opacity="1" /><polyline clip-path="url(#clip182)" style="stroke:#009af9; stroke-linecap:round; stroke-linejoin:round; stroke-width:4; stroke-opacity:1; fill:none" points="301.869,441.458 303.862,1108.06 305.856,1017.5 307.849,1249.83 309.842,1143.26 311.835,964.693 313.828,1095 315.821,1061.13 317.814,1191.24 319.808,713.451 321.801,894.617 323.794,1025.48 325.787,907.981 327.78,1136.61 329.773,650.446 331.766,844.087 333.76,946.169 335.753,750.061 337.746,881.579 339.739,593.856 341.732,939.077 343.725,1060.69 345.718,738.09 347.712,462.537 349.705,634.822 351.698,1055.14 353.691,979.882 355.684,1384.24 357.677,828.983 359.67,546.012 361.664,564.991 363.657,613.161 365.65,1046.06 367.643,693.402 369.636,740.718 371.629,969.04 373.622,305.567 375.616,827.766 377.609,712.155 379.602,1033.73 381.595,847.623 383.588,632.866 385.581,775.638 387.574,557.406 389.568,915.676 391.561,782.973 393.554,604.842 395.547,341.335 397.54,1259.55 399.533,434.678 401.526,776.302 403.52,639.971 405.513,800.229 407.506,618.458 409.499,531.799 411.492,483.003 413.485,814.822 415.479,546.407 417.472,516.075 419.465,461.775 421.458,629.631 423.451,708.069 425.444,856.746 427.437,428.558 429.431,438.572 431.424,509.762 433.417,429.305 435.41,625.129 437.403,717.453 439.396,493.832 441.389,524.291 443.383,525.185 445.376,684.524 447.369,717.862 449.362,630.665 451.355,570.632 453.348,492.475 455.341,489.581 457.335,442.987 459.328,636.625 461.321,444.779 463.314,702.955 465.307,371.182 467.3,366.844 469.293,426.153 471.287,595.441 473.28,334.04 475.273,861.859 477.266,378.199 479.259,878.378 481.252,442.484 483.245,852.155 485.239,414.849 487.232,352.495 489.225,534.995 491.218,652.309 493.211,470.722 495.204,266.472 497.197,454.45 499.191,325.235 501.184,413.329 503.177,703.896 505.17,686.456 507.163,491.398 509.156,457.492 511.149,312.128 513.143,752.48 515.136,723.392 517.129,469.87 519.122,319.775 521.115,656.378 523.108,231.904 525.101,382.794 527.095,448.987 529.088,669.86 531.081,520.711 533.074,460.511 535.067,623.151 537.06,214.294 539.054,543.995 541.047,442.726 543.04,422.728 545.033,596.575 547.026,114.666 549.019,467.044 551.012,437.315 553.006,368.941 554.999,373.698 556.992,359.783 558.985,436.327 560.978,339.191 562.971,430.4 564.964,373.24 566.958,362.686 568.951,471.191 570.944,230.36 572.937,359.939 574.93,380.506 576.923,614.498 578.916,351.521 580.91,212.665 582.903,630.017 584.896,774.212 586.889,255.752 588.882,501.781 590.875,341.347 592.868,391.435 594.862,392.772 596.855,543.685 598.848,495.199 600.841,183.013 602.834,371.126 604.827,633.107 606.82,473.573 608.814,486.278 610.807,593.544 612.8,324.299 614.793,380.655 616.786,609.807 618.779,415.462 620.772,499.638 622.766,234.686 624.759,280.204 626.752,386.955 628.745,358.873 630.738,276.845 632.731,195.764 634.724,432.857 636.718,289.627 638.711,475.661 640.704,341.362 642.697,499.306 644.69,339.767 646.683,159.719 648.677,252.06 650.67,163.714 652.663,418.801 654.656,334.752 656.649,533.496 658.642,383.151 660.635,218.478 662.629,398.61 664.622,265.23 666.615,230.015 668.608,327.395 670.601,214.606 672.594,559.359 674.587,264.831 676.581,138.788 678.574,267.256 680.567,496.752 682.56,345.424 684.553,174.484 686.546,127.485 688.539,170.584 690.533,263.849 692.526,266.838 694.519,301.614 696.512,433.085 698.505,355.752 700.498,216.618 702.491,475.684 704.485,322.804 706.478,191.9 708.471,219.652 710.464,429.724 712.457,206.297 714.45,281.259 716.443,106.265 718.437,184.935 720.43,377.217 722.423,328.123 724.416,284.46 726.409,208.639 728.402,544.49 730.395,430.654 732.389,289.223 734.382,209.022 736.375,241.178 738.368,479.797 740.361,213.269 742.354,192.658 744.347,373.691 746.341,378.771 748.334,442.204 750.327,265.198 752.32,304.816 754.313,279.765 756.306,359.073 758.299,218.37 760.293,202.248 762.286,346.201 764.279,257.054 766.272,233.805 768.265,184.079 770.258,333.498 772.252,174.78 774.245,337.534 776.238,348.423 778.231,418.891 780.224,254.557 782.217,355.238 784.21,176.82 786.204,427.972 788.197,117.579 790.19,333.782 792.183,147.028 794.176,326.955 796.169,399.404 798.162,145.934 800.156,381.321 802.149,235.71 804.142,445.812 806.135,270.67 808.128,381.208 810.121,365.764 812.114,318.886 814.108,366.2 816.101,386.491 818.094,292.589 820.087,226.503 822.08,369.196 824.073,239.298 826.066,177.516 828.06,351.948 830.053,241.757 832.046,303.413 834.039,216.635 836.032,156.672 838.025,504.19 840.018,368.318 842.012,226.659 844.005,134.495 845.998,309.907 847.991,350.101 849.984,176.858 851.977,464.135 853.97,245.837 855.964,336.932 857.957,377.726 859.95,236.165 861.943,232.494 863.936,183.182 865.929,314.399 867.922,296.196 869.916,283.203 871.909,229.546 873.902,262.287 875.895,260.396 877.888,178.58 879.881,422.346 881.874,418.105 883.868,190.208 885.861,139.879 887.854,214.344 889.847,241.66 891.84,387.889 893.833,154.38 895.827,204.45 897.82,283.033 899.813,401.116 901.806,207.645 903.799,247.216 905.792,223.852 907.785,189.378 909.779,207.298 911.772,173.676 913.765,217.624 915.758,257.28 917.751,327.471 919.744,228.035 921.737,268.704 923.731,162.075 925.724,292.44 927.717,240.858 929.71,318.501 931.703,215.84 933.696,409.795 935.689,399.702 937.683,134.612 939.676,230.052 941.669,293.838 943.662,212.848 945.655,175.914 947.648,350.698 949.641,172.657 951.635,125.396 953.628,261.999 955.621,259.176 957.614,196.094 959.607,129.41 961.6,199.086 963.593,298.602 965.587,178.488 967.58,192.599 969.573,166.756 971.566,300.208 973.559,331.406 975.552,150.282 977.545,488.196 979.539,418.637 981.532,498.518 983.525,182.442 985.518,383.005 987.511,283.089 989.504,329.305 991.497,304.057 993.491,307.546 995.484,241.155 997.477,291.217 999.47,240.296 1001.46,305.289 1003.46,419.375 1005.45,289.789 1007.44,322.209 1009.44,333.221 1011.43,306.722 1013.42,202.786 1015.42,322.273 1017.41,154.65 1019.4,290.058 1021.39,355.253 1023.39,134.049 1025.38,319.569 1027.37,353.891 1029.37,394.405 1031.36,335.805 1033.35,197.785 1035.35,342.431 1037.34,141.07 1039.33,264.775 1041.33,314.715 1043.32,239.548 1045.31,217.895 1047.31,146.061 1049.3,188.233 1051.29,217.229 1053.28,237.06 1055.28,278.516 1057.27,211.826 1059.26,360.385 1061.26,270.357 1063.25,328.527 1065.24,217.321 1067.24,150.376 1069.23,239.001 1071.22,243.942 1073.22,235.841 1075.21,158.347 1077.2,331.453 1079.2,187.701 1081.19,287.33 1083.18,210.306 1085.18,123.206 1087.17,274.217 1089.16,155.733 1091.15,556.814 1093.15,209.033 1095.14,318.654 1097.13,273.503 1099.13,230.389 1101.12,186.729 1103.11,113.851 1105.11,186.623 1107.1,245.919 1109.09,155.894 1111.09,126.904 1113.08,221.965 1115.07,104.531 1117.07,292.606 1119.06,235.183 1121.05,354.01 1123.05,188.468 1125.04,328.702 1127.03,138.775 1129.02,139.915 1131.02,223.901 1133.01,391.595 1135,202.006 1137,285.847 1138.99,315.991 1140.98,115.042 1142.98,189.639 1144.97,222.773 1146.96,334.631 1148.96,146.426 1150.95,232.342 1152.94,287.614 1154.94,295.118 1156.93,249.545 1158.92,250.719 1160.91,346.653 1162.91,173.104 1164.9,222.748 1166.89,260.523 1168.89,297.637 1170.88,349.636 1172.87,256.135 1174.87,247.797 1176.86,137.575 1178.85,397.204 1180.85,196.944 1182.84,313.339 1184.83,331.563 1186.83,297.029 1188.82,204.512 1190.81,133.382 1192.81,170.651 1194.8,339.843 1196.79,147.956 1198.78,272.253 1200.78,185.238 1202.77,480.113 1204.76,346.714 1206.76,212.104 1208.75,347.318 1210.74,247.304 1212.74,183.656 1214.73,169.79 1216.72,120.365 1218.72,187.604 1220.71,178.29 1222.7,285.196 1224.7,140.688 1226.69,335.502 1228.68,426.783 1230.67,219.379 1232.67,147.807 1234.66,191.465 1236.65,207.861 1238.65,151.816 1240.64,246.399 1242.63,181.616 1244.63,190.821 1246.62,297.302 1248.61,157.413 1250.61,180.959 1252.6,205.415 1254.59,251.914 1256.59,241.456 1258.58,178.413 1260.57,264.225 1262.57,187.605 1264.56,198.119 1266.55,246.487 1268.54,207.067 1270.54,418.826 1272.53,170.687 1274.52,477.293 1276.52,197.47 1278.51,284.959 1280.5,289.426 1282.5,219.219 1284.49,231.584 1286.48,257.832 1288.48,134.582 1290.47,138.639 1292.46,231.442 1294.46,197.032 1296.45,132.893 1298.44,145.434 1300.44,285.366 1302.43,161.532 1304.42,246.675 1306.41,237.012 1308.41,284.301 1310.4,210.517 1312.39,156.399 1314.39,320.361 1316.38,218.58 1318.37,429.945 1320.37,297.889 1322.36,164.47 1324.35,204.036 1326.35,254.832 1328.34,352.738 1330.33,340.314 1332.33,255.99 1334.32,116.374 1336.31,206.84 1338.3,378.004 1340.3,185.254 1342.29,224.036 1344.28,222.656 1346.28,197.294 1348.27,249.269 1350.26,244.095 1352.26,248.726 1354.25,253.305 1356.24,219.959 1358.24,395.705 1360.23,192.661 1362.22,206.025 1364.22,608.798 1366.21,99.3048 1368.2,218.824 1370.2,266.264 1372.19,256.025 1374.18,249.828 1376.17,180.628 1378.17,159.799 1380.16,201.279 1382.15,119.257 1384.15,157.304 1386.14,157.643 1388.13,191.831 1390.13,183.636 1392.12,180.195 1394.11,374.792 1396.11,121.858 1398.1,161.365 1400.09,205.832 1402.09,240.229 1404.08,87.0824 1406.07,214.613 1408.06,284.886 1410.06,204.797 1412.05,278.383 1414.04,251.509 1416.04,281.59 1418.03,174.557 1420.02,321.354 1422.02,313.017 1424.01,305.365 1426,216.014 1428,223.33 1429.99,296.745 1431.98,229.229 1433.98,328.335 1435.97,286.709 1437.96,202.988 1439.96,197.013 1441.95,182.777 1443.94,209.786 1445.93,340.796 1447.93,86.1857 1449.92,132.45 1451.91,370.727 1453.91,149.742 1455.9,177.485 1457.89,130.594 1459.89,229.032 1461.88,158.835 1463.87,163.885 1465.87,262.929 1467.86,413.063 1469.85,400.908 1471.85,156.776 1473.84,125.476 1475.83,273.226 1477.82,305.904 1479.82,241.635 1481.81,176.768 1483.8,250.442 1485.8,158.703 1487.79,285.255 1489.78,175.85 1491.78,119.947 1493.77,227.768 1495.76,184.365 1497.76,460.208 1499.75,200.08 1501.74,235.14 1503.74,134.526 1505.73,107.755 1507.72,295.262 1509.72,335.947 1511.71,232.288 1513.7,193.415 1515.69,184.898 1517.69,120.338 1519.68,110.029 1521.67,302.906 1523.67,235.402 1525.66,387.911 1527.65,366.876 1529.65,149.844 1531.64,379.239 1533.63,396.928 1535.63,136.953 1537.62,178.948 1539.61,297.628 1541.61,257.881 1543.6,161.562 1545.59,243.45 1547.59,278.611 1549.58,338.561 1551.57,169.534 1553.56,146.787 1555.56,345.713 1557.55,268.562 1559.54,261.126 1561.54,212.509 1563.53,97.5336 1565.52,199.766 1567.52,223.844 1569.51,384.22 1571.5,194.155 1573.5,234.55 1575.49,378.871 1577.48,149.85 1579.48,176.191 1581.47,293.746 1583.46,210.012 1585.45,184.947 1587.45,470.022 1589.44,212.82 1591.43,386.701 1593.43,207.737 1595.42,157.208 1597.41,286.89 1599.41,173.542 1601.4,250.754 1603.39,224.731 1605.39,101.884 1607.38,329.686 1609.37,369.357 1611.37,350.403 1613.36,210.757 1615.35,299.513 1617.35,226.88 1619.34,232.757 1621.33,129.646 1623.32,209.662 1625.32,176.398 1627.31,429.603 1629.3,296.449 1631.3,199.751 1633.29,388.312 1635.28,154.613 1637.28,260.017 1639.27,327.578 1641.26,169.961 1643.26,201.698 1645.25,237.895 1647.24,360.105 1649.24,254.975 1651.23,263.278 1653.22,203.438 1655.21,125.931 1657.21,136.301 1659.2,241.872 1661.19,169.662 1663.19,229.316 1665.18,149.248 1667.17,146.863 1669.17,255.552 1671.16,259.559 1673.15,143.282 1675.15,290.744 1677.14,236.162 1679.13,124.295 1681.13,306.31 1683.12,192.005 1685.11,184.687 1687.11,257.883 1689.1,410.924 1691.09,219.546 1693.08,330.518 1695.08,344.374 1697.07,271.771 1699.06,383.707 1701.06,442.422 1703.05,244.123 1705.04,446.886 1707.04,172.77 1709.03,223.695 1711.02,255.171 1713.02,247.408 1715.01,141.39 1717,224.064 1719,200.215 1720.99,237.861 1722.98,273.468 1724.97,247.797 1726.97,106.043 1728.96,191.604 1730.95,255.818 1732.95,242.751 1734.94,159.219 1736.93,286.162 1738.93,238.566 1740.92,324.334 1742.91,268.013 1744.91,428.048 1746.9,209.597 1748.89,394.066 1750.89,185.772 1752.88,299.876 1754.87,149.322 1756.87,254.756 1758.86,309.792 1760.85,530.082 1762.84,249.336 1764.84,118.068 1766.83,303.955 1768.82,156.364 1770.82,238.185 1772.81,304.189 1774.8,316.041 1776.8,267.418 1778.79,199.521 1780.78,150.765 1782.78,238.186 1784.77,346.901 1786.76,265.364 1788.76,160.113 1790.75,189.761 1792.74,282.303 1794.74,242.525 1796.73,209.603 1798.72,248.905 1800.71,298.957 1802.71,357.534 1804.7,350.926 1806.69,160.672 1808.69,174.116 1810.68,237.089 1812.67,251.397 1814.67,194.263 1816.66,235.39 1818.65,178.67 1820.65,243.737 1822.64,310.555 1824.63,256.322 1826.63,470.891 1828.62,270.449 1830.61,299.271 1832.6,131.32 1834.6,309.392 1836.59,299.704 1838.58,302.006 1840.58,133.836 1842.57,295.061 1844.56,393.252 1846.56,272.161 1848.55,373.534 1850.54,337.162 1852.54,153.935 1854.53,238.007 1856.52,215.181 1858.52,466.835 1860.51,196.291 1862.5,477.575 1864.5,190.434 1866.49,385.086 1868.48,159.685 1870.47,507.962 1872.47,159.088 1874.46,341.11 1876.45,365.637 1878.45,266.463 1880.44,332.791 1882.43,142.468 1884.43,291.399 1886.42,183.158 1888.41,142.371 1890.41,366.758 1892.4,279.815 1894.39,358.449 1896.39,269.361 1898.38,248.559 1900.37,331.952 1902.36,417.012 1904.36,247.784 1906.35,275.903 1908.34,168.154 1910.34,212.999 1912.33,240.812 1914.32,132.929 1916.32,215.883 1918.31,255.566 1920.3,310.601 1922.3,290.916 1924.29,108.636 1926.28,242.94 1928.28,379.105 1930.27,414.923 1932.26,180.805 1934.26,419.072 1936.25,267.281 1938.24,185.676 1940.23,183.032 1942.23,271.759 1944.22,306.011 1946.21,326.849 1948.21,327.325 1950.2,309.821 1952.19,344.15 1954.19,268.933 1956.18,259.256 1958.17,174.907 1960.17,146.98 1962.16,237.389 1964.15,167.31 1966.15,236.468 1968.14,338.439 1970.13,187.226 1972.12,219.66 1974.12,445.211 1976.11,251.846 1978.1,250.426 1980.1,184.332 1982.09,313.987 1984.08,361.701 1986.08,217.777 1988.07,122.207 1990.06,315.527 1992.06,266.413 1994.05,197.733 1996.04,271.714 1998.04,219.609 2000.03,148.811 2002.02,328.001 2004.02,173.537 2006.01,286.084 2008,321.232 2009.99,152.005 2011.99,192.272 2013.98,309.664 2015.97,281.611 2017.97,434.882 2019.96,109.252 2021.95,213.27 2023.95,208.66 2025.94,210.032 2027.93,183.892 2029.93,135.802 2031.92,413.242 2033.91,374.148 2035.91,343.376 2037.9,231.518 2039.89,152.244 2041.89,278.388 2043.88,268.186 2045.87,308.223 2047.86,410.316 2049.86,291.296 2051.85,213.287 2053.84,211.985 2055.84,218.015 2057.83,230.312 2059.82,305.182 2061.82,458.787 2063.81,197.837 2065.8,278.853 2067.8,340.696 2069.79,296.536 2071.78,240.28 2073.78,274.298 2075.77,404.219 2077.76,275.37 2079.75,357.874 2081.75,271.419 2083.74,228.207 2085.73,341.306 2087.73,239.328 2089.72,339.046 2091.71,156.85 2093.71,277.417 2095.7,221.149 2097.69,287.898 2099.69,369.742 2101.68,203.488 2103.67,256.671 2105.67,238.6 2107.66,180 2109.65,197.307 2111.65,230.428 2113.64,169.551 2115.63,292.172 2117.62,206.765 2119.62,264.925 2121.61,323.955 2123.6,186.211 2125.6,264.695 2127.59,171.793 2129.58,194.012 2131.58,261.508 2133.57,209.564 2135.56,176.747 2137.56,372.168 2139.55,248.495 2141.54,298.015 2143.54,382.625 2145.53,159.586 2147.52,281.47 2149.51,250.696 2151.51,198.25 2153.5,322.073 2155.49,139.853 2157.49,168.995 2159.48,189.203 2161.47,193.341 2163.47,332.651 2165.46,235.108 2167.45,197.22 2169.45,310.134 2171.44,171.821 2173.43,397.624 2175.43,384.707 2177.42,250.923 2179.41,273.78 2181.41,137.196 2183.4,247.765 2185.39,447.271 2187.38,257.627 2189.38,250.84 2191.37,347.108 2193.36,266.566 2195.36,470.668 2197.35,275.808 2199.34,352.242 2201.34,273.759 2203.33,302.302 2205.32,250.257 2207.32,196.198 2209.31,266.669 2211.3,254.004 2213.3,300.833 2215.29,306.109 2217.28,124.566 2219.27,321.036 2221.27,223.334 2223.26,388.226 2225.25,298.787 2227.25,258.537 2229.24,149.175 2231.23,261.99 2233.23,241.307 2235.22,195.004 2237.21,162.395 2239.21,335.906 2241.2,311.462 2243.19,376.432 2245.19,276.884 2247.18,217.467 2249.17,281.317 2251.17,439.74 2253.16,247.333 2255.15,280.485 2257.14,133.427 2259.14,278.814 2261.13,249.129 2263.12,197.821 2265.12,280.228 2267.11,241.51 2269.1,232.147 2271.1,214.014 2273.09,236.769 2275.08,170.623 2277.08,226.04 2279.07,243.082 2281.06,107.065 2283.06,187.346 2285.05,196.744 2287.04,206.669 2289.04,193.19 2291.03,219.002 2293.02,345.571 "/>
<polyline clip-path="url(#clip182)" style="stroke:#e26f46; stroke-linecap:round; stroke-linejoin:round; stroke-width:4; stroke-opacity:1; fill:none" points="301.869,1029.46 303.862,1107.52 305.856,727.795 307.849,729.196 309.842,1206.03 311.835,796.701 313.828,1131.34 315.821,1049.25 317.814,731.913 319.808,1243.94 321.801,978.691 323.794,1068.63 325.787,936.025 327.78,1142.5 329.773,846.352 331.766,717.469 333.76,531.441 335.753,1009.85 337.746,1014.38 339.739,996.458 341.732,1188.79 343.725,860.106 345.718,943.615 347.712,905.886 349.705,1191.71 351.698,1258.48 353.691,627.747 355.684,994.946 357.677,817.589 359.67,897.368 361.664,676.474 363.657,754.5 365.65,445.728 367.643,825.82 369.636,508.363 371.629,618.98 373.622,482.964 375.616,562.361 377.609,738.395 379.602,799.414 381.595,432.447 383.588,561.415 385.581,856.254 387.574,557.477 389.568,597.786 391.561,683.944 393.554,784.617 395.547,524.952 397.54,724.099 399.533,468.579 401.526,597.162 403.52,610.852 405.513,878.6 407.506,772.846 409.499,557.643 411.492,536.81 413.485,686.662 415.479,572.286 417.472,548.426 419.465,775.172 421.458,725.588 423.451,634.279 425.444,540.425 427.437,1031.61 429.431,956.633 431.424,540.302 433.417,549.063 435.41,345.011 437.403,614.726 439.396,533.206 441.389,595.72 443.383,593.152 445.376,845 447.369,250.977 449.362,553.442 451.355,495.818 453.348,873.838 455.341,711.491 457.335,622.525 459.328,754.167 461.321,367.111 463.314,201.021 465.307,540.83 467.3,506.806 469.293,314.886 471.287,515.309 473.28,491.152 475.273,663.325 477.266,468.613 479.259,487.143 481.252,327.202 483.245,674.261 485.239,491.545 487.232,602.62 489.225,344.82 491.218,502.281 493.211,621.999 495.204,221.768 497.197,457.666 499.191,337.324 501.184,378.2 503.177,594.585 505.17,510.49 507.163,388.779 509.156,581.212 511.149,307.554 513.143,310.302 515.136,591.069 517.129,372.884 519.122,493.022 521.115,345.277 523.108,472.498 525.101,171.371 527.095,391.308 529.088,504.51 531.081,498.462 533.074,333.458 535.067,561.41 537.06,275.327 539.054,381.945 541.047,544.782 543.04,493.488 545.033,511.787 547.026,416.921 549.019,198.861 551.012,333.576 553.006,377.137 554.999,139.713 556.992,162.371 558.985,497.717 560.978,492.467 562.971,301.926 564.964,433.502 566.958,393.709 568.951,390.038 570.944,361.685 572.937,335.359 574.93,440.206 576.923,353.89 578.916,345.152 580.91,475.037 582.903,378.994 584.896,407.525 586.889,392.024 588.882,353.097 590.875,357.03 592.868,254.31 594.862,232.41 596.855,374.712 598.848,274.521 600.841,465.149 602.834,278.477 604.827,424.395 606.82,363.177 608.814,296.33 610.807,321.39 612.8,364.882 614.793,349.485 616.786,220.281 618.779,316.147 620.772,430.284 622.766,383.859 624.759,158.249 626.752,355.362 628.745,449.954 630.738,373.207 632.731,304.064 634.724,266.086 636.718,219.62 638.711,327.139 640.704,342.749 642.697,231.201 644.69,384.299 646.683,342.326 648.677,346.737 650.67,412.432 652.663,266.604 654.656,313.968 656.649,247.489 658.642,176.435 660.635,197.576 662.629,253.877 664.622,246.832 666.615,302.289 668.608,352.288 670.601,274.102 672.594,298.643 674.587,390.289 676.581,370.118 678.574,267.114 680.567,260.779 682.56,286.494 684.553,395.368 686.546,282.463 688.539,187.084 690.533,325.685 692.526,382.122 694.519,346.289 696.512,208 698.505,210.288 700.498,240.138 702.491,273.026 704.485,246.595 706.478,325.232 708.471,326.371 710.464,274.036 712.457,269.171 714.45,252.9 716.443,307.85 718.437,263.874 720.43,311.981 722.423,269.942 724.416,310.834 726.409,341.112 728.402,330.107 730.395,297.843 732.389,295.345 734.382,308.942 736.375,276.323 738.368,346.072 740.361,286.289 742.354,287.335 744.347,240.461 746.341,273.78 748.334,198.95 750.327,228.591 752.32,260.179 754.313,293.138 756.306,336.319 758.299,245.702 760.293,241.156 762.286,261.738 764.279,306.6 766.272,256.437 768.265,227.213 770.258,293.099 772.252,219.811 774.245,252.409 776.238,286.062 778.231,258.666 780.224,312.369 782.217,265.483 784.21,320.972 786.204,261.1 788.197,234.503 790.19,266.524 792.183,271.819 794.176,271.14 796.169,302.998 798.162,310.422 800.156,299.282 802.149,264.891 804.142,264.67 806.135,179.695 808.128,220.293 810.121,221.435 812.114,248.851 814.108,242.736 816.101,284.641 818.094,269.812 820.087,250.433 822.08,268.775 824.073,255.191 826.066,238.971 828.06,238.278 830.053,223.699 832.046,250.888 834.039,211.51 836.032,182.838 838.025,258.581 840.018,246.704 842.012,212.607 844.005,238.352 845.998,265.4 847.991,236.748 849.984,258.374 851.977,203.35 853.97,249.224 855.964,273.659 857.957,307.728 859.95,234.46 861.943,263.841 863.936,266.298 865.929,224.145 867.922,260.098 869.916,248.229 871.909,244.768 873.902,244.896 875.895,254.874 877.888,212.511 879.881,260.865 881.874,274.368 883.868,230.989 885.861,233.799 887.854,247.088 889.847,260.318 891.84,253.904 893.833,241.662 895.827,268.705 897.82,244.447 899.813,251.832 901.806,240.089 903.799,275.646 905.792,248.345 907.785,260.859 909.779,208.422 911.772,235.343 913.765,230.857 915.758,266.166 917.751,250.596 919.744,253.518 921.737,249.583 923.731,264.038 925.724,265.506 927.717,288.685 929.71,215.393 931.703,233.34 933.696,229.929 935.689,224.184 937.683,286.161 939.676,228.661 941.669,263.089 943.662,256.035 945.655,276.158 947.648,232.457 949.641,252.545 951.635,245.631 953.628,261.756 955.621,253.728 957.614,229.314 959.607,253.641 961.6,265.977 963.593,237.528 965.587,258.146 967.58,221.134 969.573,270.748 971.566,229.041 973.559,238.111 975.552,225.844 977.545,240.575 979.539,239.748 981.532,233.507 983.525,244.66 985.518,259.513 987.511,247.496 989.504,241.128 991.497,245.408 993.491,242.101 995.484,261.863 997.477,251.333 999.47,233.891 1001.46,265.421 1003.46,242.142 1005.45,251.888 1007.44,250.439 1009.44,253.017 1011.43,244.016 1013.42,242.553 1015.42,265.669 1017.41,246.088 1019.4,249.673 1021.39,238.671 1023.39,251.473 1025.38,233.645 1027.37,257.019 1029.37,259.162 1031.36,244.932 1033.35,249.163 1035.35,247.486 1037.34,259.624 1039.33,244.889 1041.33,230.385 1043.32,253.038 1045.31,243.422 1047.31,244.017 1049.3,237.355 1051.29,256.578 1053.28,248.377 1055.28,254.533 1057.27,244.753 1059.26,240.628 1061.26,248.939 1063.25,244.249 1065.24,243.238 1067.24,240.723 1069.23,252.686 1071.22,244.743 1073.22,246.685 1075.21,244.122 1077.2,228.807 1079.2,256.816 1081.19,242.894 1083.18,250.593 1085.18,255.004 1087.17,251.398 1089.16,239.977 1091.15,244.904 1093.15,254.035 1095.14,239.137 1097.13,238.772 1099.13,242.948 1101.12,239.174 1103.11,243.857 1105.11,239.357 1107.1,240.84 1109.09,247.835 1111.09,246.929 1113.08,243.913 1115.07,235.99 1117.07,237.216 1119.06,246.582 1121.05,252.592 1123.05,247.163 1125.04,246.343 1127.03,243.117 1129.02,249.035 1131.02,240.648 1133.01,236.929 1135,243.894 1137,240.686 1138.99,247.227 1140.98,247.745 1142.98,247.34 1144.97,246.685 1146.96,252.151 1148.96,238.701 1150.95,243.471 1152.94,239.299 1154.94,243.051 1156.93,239.805 1158.92,244.01 1160.91,249.54 1162.91,247 1164.9,247.342 1166.89,243.788 1168.89,245.539 1170.88,242.972 1172.87,244.888 1174.87,249.871 1176.86,251.594 1178.85,243.855 1180.85,240.195 1182.84,244.03 1184.83,245.938 1186.83,246.75 1188.82,245.692 1190.81,246.441 1192.81,244.953 1194.8,244.994 1196.79,247.297 1198.78,249.015 1200.78,243.094 1202.77,245.031 1204.76,244.348 1206.76,246.616 1208.75,245.898 1210.74,240.923 1212.74,242.098 1214.73,246.221 1216.72,243.126 1218.72,245.649 1220.71,245.516 1222.7,244.574 1224.7,245.211 1226.69,242.576 1228.68,246.629 1230.67,247.112 1232.67,245.401 1234.66,242.418 1236.65,244.914 1238.65,244.374 1240.64,241.833 1242.63,246.669 1244.63,244.712 1246.62,245.174 1248.61,242.195 1250.61,244.271 1252.6,240.405 1254.59,242.93 1256.59,245.582 1258.58,241.538 1260.57,244.906 1262.57,243.914 1264.56,245.772 1266.55,241.302 1268.54,245.959 1270.54,242.429 1272.53,245.623 1274.52,242.818 1276.52,245.036 1278.51,246.076 1280.5,243.493 1282.5,244.766 1284.49,243.615 1286.48,244.196 1288.48,244.786 1290.47,245.245 1292.46,241.881 1294.46,245.424 1296.45,243.116 1298.44,246.649 1300.44,243.258 1302.43,245.963 1304.42,244.219 1306.41,244.677 1308.41,246.821 1310.4,245.832 1312.39,245.719 1314.39,245.336 1316.38,243.369 1318.37,243.825 1320.37,244.772 1322.36,246.163 1324.35,245.372 1326.35,244.038 1328.34,243.843 1330.33,244.375 1332.33,243.984 1334.32,245.182 1336.31,243.577 1338.3,244.274 1340.3,242.809 1342.29,245.191 1344.28,244.55 1346.28,242.807 1348.27,244.814 1350.26,243.557 1352.26,244.227 1354.25,244.454 1356.24,246.496 1358.24,243.366 1360.23,243.203 1362.22,245.851 1364.22,244.703 1366.21,245.359 1368.2,243.662 1370.2,245.495 1372.19,244.987 1374.18,243.673 1376.17,244.498 1378.17,244.951 1380.16,244.899 1382.15,243.886 1384.15,243.465 1386.14,242.999 1388.13,244.36 1390.13,244.36 1392.12,243.429 1394.11,243.681 1396.11,245.049 1398.1,244.073 1400.09,244.144 1402.09,244.554 1404.08,245.834 1406.07,244.696 1408.06,244.568 1410.06,244.521 1412.05,243.662 1414.04,244.764 1416.04,244.147 1418.03,244.808 1420.02,245.245 1422.02,243.906 1424.01,244.643 1426,245.195 1428,244.323 1429.99,244.46 1431.98,245.374 1433.98,244.869 1435.97,244.637 1437.96,245.092 1439.96,244.061 1441.95,244.716 1443.94,244.502 1445.93,244.313 1447.93,244.677 1449.92,245.235 1451.91,244.373 1453.91,244.554 1455.9,244.787 1457.89,244.473 1459.89,244.423 1461.88,244.527 1463.87,244.572 1465.87,244.789 1467.86,244.578 1469.85,243.672 1471.85,244.615 1473.84,244.779 1475.83,244.59 1477.82,244.417 1479.82,244.033 1481.81,244.392 1483.8,244.848 1485.8,244.264 1487.79,244.675 1489.78,244.932 1491.78,244.281 1493.77,244.345 1495.76,244.11 1497.76,244.626 1499.75,244.487 1501.74,244.724 1503.74,244.625 1505.73,244.29 1507.72,244.266 1509.72,244.6 1511.71,244.395 1513.7,244.509 1515.69,244.463 1517.69,244.674 1519.68,244.087 1521.67,244.444 1523.67,244.212 1525.66,244.366 1527.65,244.729 1529.65,243.925 1531.64,244.61 1533.63,244.51 1535.63,244.353 1537.62,244.618 1539.61,244.783 1541.61,244.291 1543.6,244.422 1545.59,244.489 1547.59,244.19 1549.58,244.285 1551.57,244.442 1553.56,244.362 1555.56,244.268 1557.55,244.364 1559.54,244.374 1561.54,244.228 1563.53,244.442 1565.52,244.253 1567.52,244.458 1569.51,244.144 1571.5,244.515 1573.5,244.487 1575.49,244.43 1577.48,244.475 1579.48,244.31 1581.47,244.409 1583.46,244.352 1585.45,244.345 1587.45,244.365 1589.44,244.369 1591.43,244.354 1593.43,244.241 1595.42,244.332 1597.41,244.397 1599.41,244.432 1601.4,244.511 1603.39,244.348 1605.39,244.462 1607.38,244.389 1609.37,244.592 1611.37,244.31 1613.36,244.399 1615.35,244.338 1617.35,244.473 1619.34,244.447 1621.33,244.504 1623.32,244.195 1625.32,244.483 1627.31,244.506 1629.3,244.488 1631.3,244.433 1633.29,244.472 1635.28,244.379 1637.28,244.44 1639.27,244.42 1641.26,244.433 1643.26,244.445 1645.25,244.468 1647.24,244.378 1649.24,244.31 1651.23,244.387 1653.22,244.412 1655.21,244.356 1657.21,244.484 1659.2,244.352 1661.19,244.441 1663.19,244.385 1665.18,244.386 1667.17,244.471 1669.17,244.374 1671.16,244.398 1673.15,244.425 1675.15,244.406 1677.14,244.443 1679.13,244.466 1681.13,244.422 1683.12,244.414 1685.11,244.416 1687.11,244.508 1689.1,244.434 1691.09,244.463 1693.08,244.38 1695.08,244.414 1697.07,244.367 1699.06,244.401 1701.06,244.389 1703.05,244.415 1705.04,244.423 1707.04,244.409 1709.03,244.416 1711.02,244.39 1713.02,244.424 1715.01,244.397 1717,244.368 1719,244.433 1720.99,244.407 1722.98,244.41 1724.97,244.341 1726.97,244.348 1728.96,244.384 1730.95,244.378 1732.95,244.398 1734.94,244.379 1736.93,244.424 1738.93,244.42 1740.92,244.402 1742.91,244.417 1744.91,244.407 1746.9,244.429 1748.89,244.414 1750.89,244.423 1752.88,244.423 1754.87,244.389 1756.87,244.43 1758.86,244.403 1760.85,244.414 1762.84,244.405 1764.84,244.412 1766.83,244.381 1768.82,244.414 1770.82,244.36 1772.81,244.42 1774.8,244.411 1776.8,244.42 1778.79,244.396 1780.78,244.405 1782.78,244.396 1784.77,244.395 1786.76,244.412 1788.76,244.411 1790.75,244.407 1792.74,244.42 1794.74,244.428 1796.73,244.411 1798.72,244.403 1800.71,244.411 1802.71,244.398 1804.7,244.441 1806.69,244.405 1808.69,244.412 1810.68,244.411 1812.67,244.409 1814.67,244.403 1816.66,244.398 1818.65,244.41 1820.65,244.401 1822.64,244.412 1824.63,244.403 1826.63,244.413 1828.62,244.419 1830.61,244.416 1832.6,244.404 1834.6,244.416 1836.59,244.408 1838.58,244.418 1840.58,244.416 1842.57,244.408 1844.56,244.407 1846.56,244.407 1848.55,244.4 1850.54,244.411 1852.54,244.402 1854.53,244.41 1856.52,244.425 1858.52,244.414 1860.51,244.407 1862.5,244.405 1864.5,244.404 1866.49,244.41 1868.48,244.406 1870.47,244.406 1872.47,244.408 1874.46,244.41 1876.45,244.409 1878.45,244.412 1880.44,244.404 1882.43,244.407 1884.43,244.409 1886.42,244.418 1888.41,244.412 1890.41,244.415 1892.4,244.412 1894.39,244.414 1896.39,244.411 1898.38,244.411 1900.37,244.414 1902.36,244.413 1904.36,244.416 1906.35,244.409 1908.34,244.413 1910.34,244.41 1912.33,244.409 1914.32,244.41 1916.32,244.41 1918.31,244.41 1920.3,244.411 1922.3,244.411 1924.29,244.41 1926.28,244.408 1928.28,244.412 1930.27,244.409 1932.26,244.409 1934.26,244.408 1936.25,244.409 1938.24,244.409 1940.23,244.411 1942.23,244.413 1944.22,244.412 1946.21,244.409 1948.21,244.41 1950.2,244.411 1952.19,244.409 1954.19,244.409 1956.18,244.411 1958.17,244.41 1960.17,244.411 1962.16,244.411 1964.15,244.407 1966.15,244.41 1968.14,244.41 1970.13,244.41 1972.12,244.41 1974.12,244.411 1976.11,244.411 1978.1,244.41 1980.1,244.409 1982.09,244.41 1984.08,244.412 1986.08,244.412 1988.07,244.411 1990.06,244.411 1992.06,244.411 1994.05,244.412 1996.04,244.41 1998.04,244.41 2000.03,244.41 2002.02,244.409 2004.02,244.411 2006.01,244.41 2008,244.41 2009.99,244.411 2011.99,244.409 2013.98,244.41 2015.97,244.41 2017.97,244.41 2019.96,244.41 2021.95,244.411 2023.95,244.409 2025.94,244.411 2027.93,244.41 2029.93,244.41 2031.92,244.41 2033.91,244.41 2035.91,244.41 2037.9,244.409 2039.89,244.41 2041.89,244.41 2043.88,244.41 2045.87,244.411 2047.86,244.41 2049.86,244.411 2051.85,244.41 2053.84,244.41 2055.84,244.41 2057.83,244.41 2059.82,244.41 2061.82,244.41 2063.81,244.409 2065.8,244.41 2067.8,244.411 2069.79,244.41 2071.78,244.411 2073.78,244.411 2075.77,244.41 2077.76,244.41 2079.75,244.41 2081.75,244.41 2083.74,244.41 2085.73,244.41 2087.73,244.411 2089.72,244.41 2091.71,244.41 2093.71,244.41 2095.7,244.41 2097.69,244.41 2099.69,244.41 2101.68,244.41 2103.67,244.41 2105.67,244.41 2107.66,244.41 2109.65,244.41 2111.65,244.41 2113.64,244.41 2115.63,244.41 2117.62,244.41 2119.62,244.41 2121.61,244.41 2123.6,244.41 2125.6,244.41 2127.59,244.41 2129.58,244.41 2131.58,244.41 2133.57,244.41 2135.56,244.41 2137.56,244.41 2139.55,244.41 2141.54,244.41 2143.54,244.41 2145.53,244.41 2147.52,244.41 2149.51,244.41 2151.51,244.41 2153.5,244.41 2155.49,244.41 2157.49,244.41 2159.48,244.41 2161.47,244.41 2163.47,244.41 2165.46,244.41 2167.45,244.41 2169.45,244.41 2171.44,244.41 2173.43,244.41 2175.43,244.41 2177.42,244.41 2179.41,244.41 2181.41,244.41 2183.4,244.41 2185.39,244.41 2187.38,244.41 2189.38,244.41 2191.37,244.41 2193.36,244.41 2195.36,244.41 2197.35,244.41 2199.34,244.41 2201.34,244.41 2203.33,244.41 2205.32,244.41 2207.32,244.41 2209.31,244.41 2211.3,244.41 2213.3,244.41 2215.29,244.41 2217.28,244.41 2219.27,244.41 2221.27,244.41 2223.26,244.41 2225.25,244.41 2227.25,244.41 2229.24,244.41 2231.23,244.41 2233.23,244.41 2235.22,244.41 2237.21,244.41 2239.21,244.41 2241.2,244.41 2243.19,244.41 2245.19,244.41 2247.18,244.41 2249.17,244.41 2251.17,244.41 2253.16,244.41 2255.15,244.41 2257.14,244.41 2259.14,244.41 2261.13,244.41 2263.12,244.41 2265.12,244.41 2267.11,244.41 2269.1,244.41 2271.1,244.41 2273.09,244.41 2275.08,244.41 2277.08,244.41 2279.07,244.41 2281.06,244.41 2283.06,244.41 2285.05,244.41 2287.04,244.41 2289.04,244.41 2291.03,244.41 2293.02,244.41 "/>
<path clip-path="url(#clip180)" d="M1863.63 1377.32 L2282.4 1377.32 L2282.4 1221.8 L1863.63 1221.8  Z" fill="#ffffff" fill-rule="evenodd" fill-opacity="1"/>
<polyline clip-path="url(#clip180)" style="stroke:#000000; stroke-linecap:round; stroke-linejoin:round; stroke-width:4; stroke-opacity:1; fill:none" points="1863.63,1377.32 2282.4,1377.32 2282.4,1221.8 1863.63,1221.8 1863.63,1377.32 "/>
<polyline clip-path="url(#clip180)" style="stroke:#009af9; stroke-linecap:round; stroke-linejoin:round; stroke-width:4; stroke-opacity:1; fill:none" points="1887.08,1273.64 2027.79,1273.64 "/>
<path clip-path="url(#clip180)" d="M2055.92 1274.41 L2055.92 1287.07 L2063.42 1287.07 Q2067.19 1287.07 2069 1285.52 Q2070.83 1283.95 2070.83 1280.73 Q2070.83 1277.49 2069 1275.96 Q2067.19 1274.41 2063.42 1274.41 L2055.92 1274.41 M2055.92 1260.2 L2055.92 1270.61 L2062.84 1270.61 Q2066.27 1270.61 2067.93 1269.34 Q2069.62 1268.05 2069.62 1265.41 Q2069.62 1262.79 2067.93 1261.49 Q2066.27 1260.2 2062.84 1260.2 L2055.92 1260.2 M2051.24 1256.36 L2063.19 1256.36 Q2068.53 1256.36 2071.43 1258.58 Q2074.32 1260.8 2074.32 1264.9 Q2074.32 1268.07 2072.84 1269.94 Q2071.36 1271.82 2068.49 1272.28 Q2071.94 1273.02 2073.84 1275.38 Q2075.76 1277.72 2075.76 1281.24 Q2075.76 1285.87 2072.61 1288.39 Q2069.46 1290.92 2063.65 1290.92 L2051.24 1290.92 L2051.24 1256.36 Z" fill="#000000" fill-rule="nonzero" fill-opacity="1" /><path clip-path="url(#clip180)" d="M2088.44 1274.41 L2088.44 1287.07 L2095.94 1287.07 Q2099.72 1287.07 2101.52 1285.52 Q2103.35 1283.95 2103.35 1280.73 Q2103.35 1277.49 2101.52 1275.96 Q2099.72 1274.41 2095.94 1274.41 L2088.44 1274.41 M2088.44 1260.2 L2088.44 1270.61 L2095.36 1270.61 Q2098.79 1270.61 2100.46 1269.34 Q2102.15 1268.05 2102.15 1265.41 Q2102.15 1262.79 2100.46 1261.49 Q2098.79 1260.2 2095.36 1260.2 L2088.44 1260.2 M2083.77 1256.36 L2095.71 1256.36 Q2101.06 1256.36 2103.95 1258.58 Q2106.84 1260.8 2106.84 1264.9 Q2106.84 1268.07 2105.36 1269.94 Q2103.88 1271.82 2101.01 1272.28 Q2104.46 1273.02 2106.36 1275.38 Q2108.28 1277.72 2108.28 1281.24 Q2108.28 1285.87 2105.13 1288.39 Q2101.98 1290.92 2096.17 1290.92 L2083.77 1290.92 L2083.77 1256.36 Z" fill="#000000" fill-rule="nonzero" fill-opacity="1" /><path clip-path="url(#clip180)" d="M2123.74 1290.92 L2110.55 1256.36 L2115.43 1256.36 L2126.38 1285.45 L2137.35 1256.36 L2142.22 1256.36 L2129.04 1290.92 L2123.74 1290.92 Z" fill="#000000" fill-rule="nonzero" fill-opacity="1" /><path clip-path="url(#clip180)" d="M2147.26 1256.36 L2151.94 1256.36 L2151.94 1290.92 L2147.26 1290.92 L2147.26 1256.36 Z" fill="#000000" fill-rule="nonzero" fill-opacity="1" /><path clip-path="url(#clip180)" d="M2202.19 1259.02 L2202.19 1263.95 Q2199.83 1261.75 2197.15 1260.66 Q2194.48 1259.57 2191.47 1259.57 Q2185.55 1259.57 2182.4 1263.21 Q2179.25 1266.82 2179.25 1273.67 Q2179.25 1280.5 2182.4 1284.13 Q2185.55 1287.74 2191.47 1287.74 Q2194.48 1287.74 2197.15 1286.66 Q2199.83 1285.57 2202.19 1283.37 L2202.19 1288.25 Q2199.74 1289.92 2196.98 1290.75 Q2194.25 1291.59 2191.2 1291.59 Q2183.35 1291.59 2178.84 1286.79 Q2174.32 1281.98 2174.32 1273.67 Q2174.32 1265.34 2178.84 1260.55 Q2183.35 1255.73 2191.2 1255.73 Q2194.3 1255.73 2197.03 1256.56 Q2199.78 1257.37 2202.19 1259.02 Z" fill="#000000" fill-rule="nonzero" fill-opacity="1" /><path clip-path="url(#clip180)" d="M2209.41 1256.36 L2229.27 1256.36 L2229.27 1260.29 L2214.09 1260.29 L2214.09 1270.48 L2227.79 1270.48 L2227.79 1274.41 L2214.09 1274.41 L2214.09 1290.92 L2209.41 1290.92 L2209.41 1256.36 Z" fill="#000000" fill-rule="nonzero" fill-opacity="1" /><path clip-path="url(#clip180)" d="M2236.68 1256.36 L2258.53 1256.36 L2258.53 1260.29 L2241.36 1260.29 L2241.36 1270.52 L2257.82 1270.52 L2257.82 1274.46 L2241.36 1274.46 L2241.36 1286.98 L2258.95 1286.98 L2258.95 1290.92 L2236.68 1290.92 L2236.68 1256.36 Z" fill="#000000" fill-rule="nonzero" fill-opacity="1" /><polyline clip-path="url(#clip180)" style="stroke:#e26f46; stroke-linecap:round; stroke-linejoin:round; stroke-width:4; stroke-opacity:1; fill:none" points="1887.08,1325.48 2027.79,1325.48 "/>
<path clip-path="url(#clip180)" d="M2055.92 1326.25 L2055.92 1338.91 L2063.42 1338.91 Q2067.19 1338.91 2069 1337.36 Q2070.83 1335.79 2070.83 1332.57 Q2070.83 1329.33 2069 1327.8 Q2067.19 1326.25 2063.42 1326.25 L2055.92 1326.25 M2055.92 1312.04 L2055.92 1322.45 L2062.84 1322.45 Q2066.27 1322.45 2067.93 1321.18 Q2069.62 1319.89 2069.62 1317.25 Q2069.62 1314.63 2067.93 1313.33 Q2066.27 1312.04 2062.84 1312.04 L2055.92 1312.04 M2051.24 1308.2 L2063.19 1308.2 Q2068.53 1308.2 2071.43 1310.42 Q2074.32 1312.64 2074.32 1316.74 Q2074.32 1319.91 2072.84 1321.78 Q2071.36 1323.66 2068.49 1324.12 Q2071.94 1324.86 2073.84 1327.22 Q2075.76 1329.56 2075.76 1333.08 Q2075.76 1337.71 2072.61 1340.23 Q2069.46 1342.76 2063.65 1342.76 L2051.24 1342.76 L2051.24 1308.2 Z" fill="#000000" fill-rule="nonzero" fill-opacity="1" /><path clip-path="url(#clip180)" d="M2088.44 1326.25 L2088.44 1338.91 L2095.94 1338.91 Q2099.72 1338.91 2101.52 1337.36 Q2103.35 1335.79 2103.35 1332.57 Q2103.35 1329.33 2101.52 1327.8 Q2099.72 1326.25 2095.94 1326.25 L2088.44 1326.25 M2088.44 1312.04 L2088.44 1322.45 L2095.36 1322.45 Q2098.79 1322.45 2100.46 1321.18 Q2102.15 1319.89 2102.15 1317.25 Q2102.15 1314.63 2100.46 1313.33 Q2098.79 1312.04 2095.36 1312.04 L2088.44 1312.04 M2083.77 1308.2 L2095.71 1308.2 Q2101.06 1308.2 2103.95 1310.42 Q2106.84 1312.64 2106.84 1316.74 Q2106.84 1319.91 2105.36 1321.78 Q2103.88 1323.66 2101.01 1324.12 Q2104.46 1324.86 2106.36 1327.22 Q2108.28 1329.56 2108.28 1333.08 Q2108.28 1337.71 2105.13 1340.23 Q2101.98 1342.76 2096.17 1342.76 L2083.77 1342.76 L2083.77 1308.2 Z" fill="#000000" fill-rule="nonzero" fill-opacity="1" /><path clip-path="url(#clip180)" d="M2123.74 1342.76 L2110.55 1308.2 L2115.43 1308.2 L2126.38 1337.29 L2137.35 1308.2 L2142.22 1308.2 L2129.04 1342.76 L2123.74 1342.76 Z" fill="#000000" fill-rule="nonzero" fill-opacity="1" /><path clip-path="url(#clip180)" d="M2147.26 1308.2 L2151.94 1308.2 L2151.94 1342.76 L2147.26 1342.76 L2147.26 1308.2 Z" fill="#000000" fill-rule="nonzero" fill-opacity="1" /><path clip-path="url(#clip180)" d="M2197.03 1309.33 L2197.03 1313.89 Q2194.37 1312.62 2192.01 1311.99 Q2189.65 1311.37 2187.45 1311.37 Q2183.63 1311.37 2181.54 1312.85 Q2179.48 1314.33 2179.48 1317.06 Q2179.48 1319.35 2180.85 1320.53 Q2182.24 1321.69 2186.08 1322.41 L2188.9 1322.99 Q2194.14 1323.98 2196.61 1326.51 Q2199.11 1329.01 2199.11 1333.22 Q2199.11 1338.24 2195.73 1340.83 Q2192.38 1343.43 2185.87 1343.43 Q2183.42 1343.43 2180.64 1342.87 Q2177.89 1342.32 2174.92 1341.23 L2174.92 1336.41 Q2177.77 1338.01 2180.5 1338.82 Q2183.23 1339.63 2185.87 1339.63 Q2189.88 1339.63 2192.05 1338.06 Q2194.23 1336.48 2194.23 1333.57 Q2194.23 1331.02 2192.65 1329.58 Q2191.1 1328.15 2187.54 1327.43 L2184.69 1326.88 Q2179.46 1325.83 2177.12 1323.61 Q2174.78 1321.39 2174.78 1317.43 Q2174.78 1312.85 2178 1310.21 Q2181.24 1307.57 2186.91 1307.57 Q2189.34 1307.57 2191.87 1308.01 Q2194.39 1308.45 2197.03 1309.33 Z" fill="#000000" fill-rule="nonzero" fill-opacity="1" /><path clip-path="url(#clip180)" d="M2201.61 1308.2 L2230.85 1308.2 L2230.85 1312.13 L2218.58 1312.13 L2218.58 1342.76 L2213.88 1342.76 L2213.88 1312.13 L2201.61 1312.13 L2201.61 1308.2 Z" fill="#000000" fill-rule="nonzero" fill-opacity="1" /><path clip-path="url(#clip180)" d="M2235.36 1308.2 L2240.04 1308.2 L2240.04 1338.82 L2256.87 1338.82 L2256.87 1342.76 L2235.36 1342.76 L2235.36 1308.2 Z" fill="#000000" fill-rule="nonzero" fill-opacity="1" /></svg>
