<?xml version="1.0" encoding="utf-8"?>
<svg xmlns="http://www.w3.org/2000/svg" xmlns:xlink="http://www.w3.org/1999/xlink" width="600" height="400" viewBox="0 0 2400 1600">
<defs>
  <clipPath id="clip270">
    <rect x="0" y="0" width="2400" height="1600"/>
  </clipPath>
</defs>
<path clip-path="url(#clip270)" d="M0 1600 L2400 1600 L2400 0 L0 0  Z" fill="#ffffff" fill-rule="evenodd" fill-opacity="1"/>
<defs>
  <clipPath id="clip271">
    <rect x="242" y="47" width="2112" height="1377"/>
  </clipPath>
</defs>
<path clip-path="url(#clip270)" d="M251.372 1423.18 L2352.76 1423.18 L2352.76 47.2441 L251.372 47.2441  Z" fill="#ffffff" fill-rule="evenodd" fill-opacity="1"/>
<defs>
  <clipPath id="clip272">
    <rect x="251" y="47" width="2102" height="1377"/>
  </clipPath>
</defs>
<polyline clip-path="url(#clip272)" style="stroke:#000000; stroke-linecap:round; stroke-linejoin:round; stroke-width:2; stroke-opacity:0.1; fill:none" points="308.861,1423.18 308.861,47.2441 "/>
<polyline clip-path="url(#clip272)" style="stroke:#000000; stroke-linecap:round; stroke-linejoin:round; stroke-width:2; stroke-opacity:0.1; fill:none" points="804.966,1423.18 804.966,47.2441 "/>
<polyline clip-path="url(#clip272)" style="stroke:#000000; stroke-linecap:round; stroke-linejoin:round; stroke-width:2; stroke-opacity:0.1; fill:none" points="1301.07,1423.18 1301.07,47.2441 "/>
<polyline clip-path="url(#clip272)" style="stroke:#000000; stroke-linecap:round; stroke-linejoin:round; stroke-width:2; stroke-opacity:0.1; fill:none" points="1797.18,1423.18 1797.18,47.2441 "/>
<polyline clip-path="url(#clip272)" style="stroke:#000000; stroke-linecap:round; stroke-linejoin:round; stroke-width:2; stroke-opacity:0.1; fill:none" points="2293.28,1423.18 2293.28,47.2441 "/>
<polyline clip-path="url(#clip272)" style="stroke:#000000; stroke-linecap:round; stroke-linejoin:round; stroke-width:2; stroke-opacity:0.1; fill:none" points="251.372,1081.81 2352.76,1081.81 "/>
<polyline clip-path="url(#clip272)" style="stroke:#000000; stroke-linecap:round; stroke-linejoin:round; stroke-width:2; stroke-opacity:0.1; fill:none" points="251.372,528.469 2352.76,528.469 "/>
<polyline clip-path="url(#clip270)" style="stroke:#000000; stroke-linecap:round; stroke-linejoin:round; stroke-width:4; stroke-opacity:1; fill:none" points="251.372,1423.18 2352.76,1423.18 "/>
<polyline clip-path="url(#clip270)" style="stroke:#000000; stroke-linecap:round; stroke-linejoin:round; stroke-width:4; stroke-opacity:1; fill:none" points="308.861,1423.18 308.861,1404.28 "/>
<polyline clip-path="url(#clip270)" style="stroke:#000000; stroke-linecap:round; stroke-linejoin:round; stroke-width:4; stroke-opacity:1; fill:none" points="804.966,1423.18 804.966,1404.28 "/>
<polyline clip-path="url(#clip270)" style="stroke:#000000; stroke-linecap:round; stroke-linejoin:round; stroke-width:4; stroke-opacity:1; fill:none" points="1301.07,1423.18 1301.07,1404.28 "/>
<polyline clip-path="url(#clip270)" style="stroke:#000000; stroke-linecap:round; stroke-linejoin:round; stroke-width:4; stroke-opacity:1; fill:none" points="1797.18,1423.18 1797.18,1404.28 "/>
<polyline clip-path="url(#clip270)" style="stroke:#000000; stroke-linecap:round; stroke-linejoin:round; stroke-width:4; stroke-opacity:1; fill:none" points="2293.28,1423.18 2293.28,1404.28 "/>
<path clip-path="url(#clip270)" d="M308.861 1454.1 Q305.25 1454.1 303.421 1457.66 Q301.616 1461.2 301.616 1468.33 Q301.616 1475.44 303.421 1479.01 Q305.25 1482.55 308.861 1482.55 Q312.495 1482.55 314.301 1479.01 Q316.129 1475.44 316.129 1468.33 Q316.129 1461.2 314.301 1457.66 Q312.495 1454.1 308.861 1454.1 M308.861 1450.39 Q314.671 1450.39 317.727 1455 Q320.805 1459.58 320.805 1468.33 Q320.805 1477.06 317.727 1481.67 Q314.671 1486.25 308.861 1486.25 Q303.051 1486.25 299.972 1481.67 Q296.916 1477.06 296.916 1468.33 Q296.916 1459.58 299.972 1455 Q303.051 1450.39 308.861 1450.39 Z" fill="#000000" fill-rule="nonzero" fill-opacity="1" /><path clip-path="url(#clip270)" d="M768.659 1481.64 L784.978 1481.64 L784.978 1485.58 L763.034 1485.58 L763.034 1481.64 Q765.696 1478.89 770.279 1474.26 Q774.885 1469.61 776.066 1468.27 Q778.311 1465.74 779.191 1464.01 Q780.094 1462.25 780.094 1460.56 Q780.094 1457.8 778.149 1456.07 Q776.228 1454.33 773.126 1454.33 Q770.927 1454.33 768.473 1455.09 Q766.043 1455.86 763.265 1457.41 L763.265 1452.69 Q766.089 1451.55 768.543 1450.97 Q770.997 1450.39 773.034 1450.39 Q778.404 1450.39 781.598 1453.08 Q784.793 1455.77 784.793 1460.26 Q784.793 1462.39 783.983 1464.31 Q783.196 1466.2 781.089 1468.8 Q780.51 1469.47 777.409 1472.69 Q774.307 1475.88 768.659 1481.64 Z" fill="#000000" fill-rule="nonzero" fill-opacity="1" /><path clip-path="url(#clip270)" d="M794.839 1451.02 L813.195 1451.02 L813.195 1454.96 L799.121 1454.96 L799.121 1463.43 Q800.14 1463.08 801.159 1462.92 Q802.177 1462.73 803.196 1462.73 Q808.983 1462.73 812.362 1465.9 Q815.742 1469.08 815.742 1474.49 Q815.742 1480.07 812.27 1483.17 Q808.797 1486.25 802.478 1486.25 Q800.302 1486.25 798.034 1485.88 Q795.788 1485.51 793.381 1484.77 L793.381 1480.07 Q795.464 1481.2 797.686 1481.76 Q799.909 1482.32 802.385 1482.32 Q806.39 1482.32 808.728 1480.21 Q811.066 1478.1 811.066 1474.49 Q811.066 1470.88 808.728 1468.77 Q806.39 1466.67 802.385 1466.67 Q800.51 1466.67 798.635 1467.08 Q796.784 1467.5 794.839 1468.38 L794.839 1451.02 Z" fill="#000000" fill-rule="nonzero" fill-opacity="1" /><path clip-path="url(#clip270)" d="M834.955 1454.1 Q831.344 1454.1 829.515 1457.66 Q827.709 1461.2 827.709 1468.33 Q827.709 1475.44 829.515 1479.01 Q831.344 1482.55 834.955 1482.55 Q838.589 1482.55 840.394 1479.01 Q842.223 1475.44 842.223 1468.33 Q842.223 1461.2 840.394 1457.66 Q838.589 1454.1 834.955 1454.1 M834.955 1450.39 Q840.765 1450.39 843.82 1455 Q846.899 1459.58 846.899 1468.33 Q846.899 1477.06 843.82 1481.67 Q840.765 1486.25 834.955 1486.25 Q829.144 1486.25 826.066 1481.67 Q823.01 1477.06 823.01 1468.33 Q823.01 1459.58 826.066 1455 Q829.144 1450.39 834.955 1450.39 Z" fill="#000000" fill-rule="nonzero" fill-opacity="1" /><path clip-path="url(#clip270)" d="M1260.69 1451.02 L1279.05 1451.02 L1279.05 1454.96 L1264.97 1454.96 L1264.97 1463.43 Q1265.99 1463.08 1267.01 1462.92 Q1268.03 1462.73 1269.05 1462.73 Q1274.83 1462.73 1278.21 1465.9 Q1281.59 1469.08 1281.59 1474.49 Q1281.59 1480.07 1278.12 1483.17 Q1274.65 1486.25 1268.33 1486.25 Q1266.15 1486.25 1263.88 1485.88 Q1261.64 1485.51 1259.23 1484.77 L1259.23 1480.07 Q1261.32 1481.2 1263.54 1481.76 Q1265.76 1482.32 1268.24 1482.32 Q1272.24 1482.32 1274.58 1480.21 Q1276.92 1478.1 1276.92 1474.49 Q1276.92 1470.88 1274.58 1468.77 Q1272.24 1466.67 1268.24 1466.67 Q1266.36 1466.67 1264.49 1467.08 Q1262.63 1467.5 1260.69 1468.38 L1260.69 1451.02 Z" fill="#000000" fill-rule="nonzero" fill-opacity="1" /><path clip-path="url(#clip270)" d="M1300.81 1454.1 Q1297.19 1454.1 1295.37 1457.66 Q1293.56 1461.2 1293.56 1468.33 Q1293.56 1475.44 1295.37 1479.01 Q1297.19 1482.55 1300.81 1482.55 Q1304.44 1482.55 1306.25 1479.01 Q1308.07 1475.44 1308.07 1468.33 Q1308.07 1461.2 1306.25 1457.66 Q1304.44 1454.1 1300.81 1454.1 M1300.81 1450.39 Q1306.62 1450.39 1309.67 1455 Q1312.75 1459.58 1312.75 1468.33 Q1312.75 1477.06 1309.67 1481.67 Q1306.62 1486.25 1300.81 1486.25 Q1295 1486.25 1291.92 1481.67 Q1288.86 1477.06 1288.86 1468.33 Q1288.86 1459.58 1291.92 1455 Q1295 1450.39 1300.81 1450.39 Z" fill="#000000" fill-rule="nonzero" fill-opacity="1" /><path clip-path="url(#clip270)" d="M1330.97 1454.1 Q1327.36 1454.1 1325.53 1457.66 Q1323.72 1461.2 1323.72 1468.33 Q1323.72 1475.44 1325.53 1479.01 Q1327.36 1482.55 1330.97 1482.55 Q1334.6 1482.55 1336.41 1479.01 Q1338.24 1475.44 1338.24 1468.33 Q1338.24 1461.2 1336.41 1457.66 Q1334.6 1454.1 1330.97 1454.1 M1330.97 1450.39 Q1336.78 1450.39 1339.83 1455 Q1342.91 1459.58 1342.91 1468.33 Q1342.91 1477.06 1339.83 1481.67 Q1336.78 1486.25 1330.97 1486.25 Q1325.16 1486.25 1322.08 1481.67 Q1319.02 1477.06 1319.02 1468.33 Q1319.02 1459.58 1322.08 1455 Q1325.16 1450.39 1330.97 1450.39 Z" fill="#000000" fill-rule="nonzero" fill-opacity="1" /><path clip-path="url(#clip270)" d="M1755.45 1451.02 L1777.68 1451.02 L1777.68 1453.01 L1765.13 1485.58 L1760.24 1485.58 L1772.05 1454.96 L1755.45 1454.96 L1755.45 1451.02 Z" fill="#000000" fill-rule="nonzero" fill-opacity="1" /><path clip-path="url(#clip270)" d="M1786.84 1451.02 L1805.2 1451.02 L1805.2 1454.96 L1791.12 1454.96 L1791.12 1463.43 Q1792.14 1463.08 1793.16 1462.92 Q1794.18 1462.73 1795.2 1462.73 Q1800.99 1462.73 1804.36 1465.9 Q1807.74 1469.08 1807.74 1474.49 Q1807.74 1480.07 1804.27 1483.17 Q1800.8 1486.25 1794.48 1486.25 Q1792.3 1486.25 1790.04 1485.88 Q1787.79 1485.51 1785.38 1484.77 L1785.38 1480.07 Q1787.47 1481.2 1789.69 1481.76 Q1791.91 1482.32 1794.39 1482.32 Q1798.39 1482.32 1800.73 1480.21 Q1803.07 1478.1 1803.07 1474.49 Q1803.07 1470.88 1800.73 1468.77 Q1798.39 1466.67 1794.39 1466.67 Q1792.51 1466.67 1790.64 1467.08 Q1788.79 1467.5 1786.84 1468.38 L1786.84 1451.02 Z" fill="#000000" fill-rule="nonzero" fill-opacity="1" /><path clip-path="url(#clip270)" d="M1826.96 1454.1 Q1823.35 1454.1 1821.52 1457.66 Q1819.71 1461.2 1819.71 1468.33 Q1819.71 1475.44 1821.52 1479.01 Q1823.35 1482.55 1826.96 1482.55 Q1830.59 1482.55 1832.4 1479.01 Q1834.23 1475.44 1834.23 1468.33 Q1834.23 1461.2 1832.4 1457.66 Q1830.59 1454.1 1826.96 1454.1 M1826.96 1450.39 Q1832.77 1450.39 1835.82 1455 Q1838.9 1459.58 1838.9 1468.33 Q1838.9 1477.06 1835.82 1481.67 Q1832.77 1486.25 1826.96 1486.25 Q1821.15 1486.25 1818.07 1481.67 Q1815.01 1477.06 1815.01 1468.33 Q1815.01 1459.58 1818.07 1455 Q1821.15 1450.39 1826.96 1450.39 Z" fill="#000000" fill-rule="nonzero" fill-opacity="1" /><path clip-path="url(#clip270)" d="M2237.81 1481.64 L2245.45 1481.64 L2245.45 1455.28 L2237.14 1456.95 L2237.14 1452.69 L2245.4 1451.02 L2250.08 1451.02 L2250.08 1481.64 L2257.72 1481.64 L2257.72 1485.58 L2237.81 1485.58 L2237.81 1481.64 Z" fill="#000000" fill-rule="nonzero" fill-opacity="1" /><path clip-path="url(#clip270)" d="M2277.16 1454.1 Q2273.55 1454.1 2271.72 1457.66 Q2269.91 1461.2 2269.91 1468.33 Q2269.91 1475.44 2271.72 1479.01 Q2273.55 1482.55 2277.16 1482.55 Q2280.79 1482.55 2282.6 1479.01 Q2284.43 1475.44 2284.43 1468.33 Q2284.43 1461.2 2282.6 1457.66 Q2280.79 1454.1 2277.16 1454.1 M2277.16 1450.39 Q2282.97 1450.39 2286.03 1455 Q2289.1 1459.58 2289.1 1468.33 Q2289.1 1477.06 2286.03 1481.67 Q2282.97 1486.25 2277.16 1486.25 Q2271.35 1486.25 2268.27 1481.67 Q2265.22 1477.06 2265.22 1468.33 Q2265.22 1459.58 2268.27 1455 Q2271.35 1450.39 2277.16 1450.39 Z" fill="#000000" fill-rule="nonzero" fill-opacity="1" /><path clip-path="url(#clip270)" d="M2307.32 1454.1 Q2303.71 1454.1 2301.88 1457.66 Q2300.08 1461.2 2300.08 1468.33 Q2300.08 1475.44 2301.88 1479.01 Q2303.71 1482.55 2307.32 1482.55 Q2310.96 1482.55 2312.76 1479.01 Q2314.59 1475.44 2314.59 1468.33 Q2314.59 1461.2 2312.76 1457.66 Q2310.96 1454.1 2307.32 1454.1 M2307.32 1450.39 Q2313.13 1450.39 2316.19 1455 Q2319.27 1459.58 2319.27 1468.33 Q2319.27 1477.06 2316.19 1481.67 Q2313.13 1486.25 2307.32 1486.25 Q2301.51 1486.25 2298.43 1481.67 Q2295.38 1477.06 2295.38 1468.33 Q2295.38 1459.58 2298.43 1455 Q2301.51 1450.39 2307.32 1450.39 Z" fill="#000000" fill-rule="nonzero" fill-opacity="1" /><path clip-path="url(#clip270)" d="M2337.48 1454.1 Q2333.87 1454.1 2332.04 1457.66 Q2330.24 1461.2 2330.24 1468.33 Q2330.24 1475.44 2332.04 1479.01 Q2333.87 1482.55 2337.48 1482.55 Q2341.12 1482.55 2342.92 1479.01 Q2344.75 1475.44 2344.75 1468.33 Q2344.75 1461.2 2342.92 1457.66 Q2341.12 1454.1 2337.48 1454.1 M2337.48 1450.39 Q2343.29 1450.39 2346.35 1455 Q2349.43 1459.58 2349.43 1468.33 Q2349.43 1477.06 2346.35 1481.67 Q2343.29 1486.25 2337.48 1486.25 Q2331.67 1486.25 2328.6 1481.67 Q2325.54 1477.06 2325.54 1468.33 Q2325.54 1459.58 2328.6 1455 Q2331.67 1450.39 2337.48 1450.39 Z" fill="#000000" fill-rule="nonzero" fill-opacity="1" /><path clip-path="url(#clip270)" d="M1169.78 1520.52 L1176.21 1520.52 L1176.21 1568.04 L1169.78 1568.04 L1169.78 1520.52 Z" fill="#000000" fill-rule="nonzero" fill-opacity="1" /><path clip-path="url(#clip270)" d="M1194.55 1522.27 L1194.55 1532.4 L1206.61 1532.4 L1206.61 1536.95 L1194.55 1536.95 L1194.55 1556.3 Q1194.55 1560.66 1195.72 1561.9 Q1196.93 1563.14 1200.59 1563.14 L1206.61 1563.14 L1206.61 1568.04 L1200.59 1568.04 Q1193.82 1568.04 1191.24 1565.53 Q1188.66 1562.98 1188.66 1556.3 L1188.66 1536.95 L1184.36 1536.95 L1184.36 1532.4 L1188.66 1532.4 L1188.66 1522.27 L1194.55 1522.27 Z" fill="#000000" fill-rule="nonzero" fill-opacity="1" /><path clip-path="url(#clip270)" d="M1244.8 1548.76 L1244.8 1551.62 L1217.88 1551.62 Q1218.26 1557.67 1221.51 1560.85 Q1224.78 1564 1230.61 1564 Q1233.98 1564 1237.13 1563.17 Q1240.32 1562.35 1243.44 1560.69 L1243.44 1566.23 Q1240.28 1567.57 1236.97 1568.27 Q1233.66 1568.97 1230.26 1568.97 Q1221.73 1568.97 1216.73 1564 Q1211.77 1559.04 1211.77 1550.57 Q1211.77 1541.82 1216.48 1536.69 Q1221.22 1531.54 1229.24 1531.54 Q1236.43 1531.54 1240.6 1536.18 Q1244.8 1540.8 1244.8 1548.76 M1238.95 1547.04 Q1238.88 1542.23 1236.24 1539.37 Q1233.63 1536.5 1229.3 1536.5 Q1224.4 1536.5 1221.44 1539.27 Q1218.51 1542.04 1218.07 1547.07 L1238.95 1547.04 Z" fill="#000000" fill-rule="nonzero" fill-opacity="1" /><path clip-path="url(#clip270)" d="M1275.07 1537.87 Q1274.09 1537.3 1272.91 1537.04 Q1271.76 1536.76 1270.36 1536.76 Q1265.4 1536.76 1262.72 1540 Q1260.08 1543.22 1260.08 1549.27 L1260.08 1568.04 L1254.19 1568.04 L1254.19 1532.4 L1260.08 1532.4 L1260.08 1537.93 Q1261.93 1534.69 1264.89 1533.13 Q1267.85 1531.54 1272.08 1531.54 Q1272.69 1531.54 1273.42 1531.63 Q1274.15 1531.7 1275.04 1531.85 L1275.07 1537.87 Z" fill="#000000" fill-rule="nonzero" fill-opacity="1" /><path clip-path="url(#clip270)" d="M1297.42 1550.12 Q1290.32 1550.12 1287.58 1551.75 Q1284.84 1553.37 1284.84 1557.29 Q1284.84 1560.4 1286.88 1562.25 Q1288.95 1564.07 1292.48 1564.07 Q1297.35 1564.07 1300.28 1560.63 Q1303.24 1557.16 1303.24 1551.43 L1303.24 1550.12 L1297.42 1550.12 M1309.1 1547.71 L1309.1 1568.04 L1303.24 1568.04 L1303.24 1562.63 Q1301.24 1565.88 1298.24 1567.44 Q1295.25 1568.97 1290.92 1568.97 Q1285.45 1568.97 1282.2 1565.91 Q1278.99 1562.82 1278.99 1557.67 Q1278.99 1551.65 1283 1548.6 Q1287.04 1545.54 1295.03 1545.54 L1303.24 1545.54 L1303.24 1544.97 Q1303.24 1540.93 1300.57 1538.73 Q1297.93 1536.5 1293.12 1536.5 Q1290.06 1536.5 1287.17 1537.23 Q1284.27 1537.97 1281.6 1539.43 L1281.6 1534.02 Q1284.81 1532.78 1287.84 1532.17 Q1290.86 1531.54 1293.72 1531.54 Q1301.46 1531.54 1305.28 1535.55 Q1309.1 1539.56 1309.1 1547.71 Z" fill="#000000" fill-rule="nonzero" fill-opacity="1" /><path clip-path="url(#clip270)" d="M1326.95 1522.27 L1326.95 1532.4 L1339.02 1532.4 L1339.02 1536.95 L1326.95 1536.95 L1326.95 1556.3 Q1326.95 1560.66 1328.13 1561.9 Q1329.34 1563.14 1333 1563.14 L1339.02 1563.14 L1339.02 1568.04 L1333 1568.04 Q1326.22 1568.04 1323.64 1565.53 Q1321.07 1562.98 1321.07 1556.3 L1321.07 1536.95 L1316.77 1536.95 L1316.77 1532.4 L1321.07 1532.4 L1321.07 1522.27 L1326.95 1522.27 Z" fill="#000000" fill-rule="nonzero" fill-opacity="1" /><path clip-path="url(#clip270)" d="M1346.72 1532.4 L1352.58 1532.4 L1352.58 1568.04 L1346.72 1568.04 L1346.72 1532.4 M1346.72 1518.52 L1352.58 1518.52 L1352.58 1525.93 L1346.72 1525.93 L1346.72 1518.52 Z" fill="#000000" fill-rule="nonzero" fill-opacity="1" /><path clip-path="url(#clip270)" d="M1378.64 1536.5 Q1373.93 1536.5 1371.2 1540.19 Q1368.46 1543.85 1368.46 1550.25 Q1368.46 1556.65 1371.16 1560.34 Q1373.9 1564 1378.64 1564 Q1383.32 1564 1386.06 1560.31 Q1388.8 1556.62 1388.8 1550.25 Q1388.8 1543.92 1386.06 1540.23 Q1383.32 1536.5 1378.64 1536.5 M1378.64 1531.54 Q1386.28 1531.54 1390.64 1536.5 Q1395 1541.47 1395 1550.25 Q1395 1559 1390.64 1564 Q1386.28 1568.97 1378.64 1568.97 Q1370.97 1568.97 1366.61 1564 Q1362.28 1559 1362.28 1550.25 Q1362.28 1541.47 1366.61 1536.5 Q1370.97 1531.54 1378.64 1531.54 Z" fill="#000000" fill-rule="nonzero" fill-opacity="1" /><path clip-path="url(#clip270)" d="M1434.34 1546.53 L1434.34 1568.04 L1428.49 1568.04 L1428.49 1546.72 Q1428.49 1541.66 1426.51 1539.14 Q1424.54 1536.63 1420.59 1536.63 Q1415.85 1536.63 1413.11 1539.65 Q1410.38 1542.68 1410.38 1547.9 L1410.38 1568.04 L1404.49 1568.04 L1404.49 1532.4 L1410.38 1532.4 L1410.38 1537.93 Q1412.48 1534.72 1415.31 1533.13 Q1418.17 1531.54 1421.9 1531.54 Q1428.04 1531.54 1431.19 1535.36 Q1434.34 1539.14 1434.34 1546.53 Z" fill="#000000" fill-rule="nonzero" fill-opacity="1" /><polyline clip-path="url(#clip270)" style="stroke:#000000; stroke-linecap:round; stroke-linejoin:round; stroke-width:4; stroke-opacity:1; fill:none" points="251.372,1423.18 251.372,47.2441 "/>
<polyline clip-path="url(#clip270)" style="stroke:#000000; stroke-linecap:round; stroke-linejoin:round; stroke-width:4; stroke-opacity:1; fill:none" points="251.372,1081.81 270.27,1081.81 "/>
<polyline clip-path="url(#clip270)" style="stroke:#000000; stroke-linecap:round; stroke-linejoin:round; stroke-width:4; stroke-opacity:1; fill:none" points="251.372,528.469 270.27,528.469 "/>
<path clip-path="url(#clip270)" d="M114.931 1101.6 L122.57 1101.6 L122.57 1075.24 L114.26 1076.9 L114.26 1072.64 L122.524 1070.98 L127.2 1070.98 L127.2 1101.6 L134.839 1101.6 L134.839 1105.54 L114.931 1105.54 L114.931 1101.6 Z" fill="#000000" fill-rule="nonzero" fill-opacity="1" /><path clip-path="url(#clip270)" d="M154.283 1074.06 Q150.672 1074.06 148.843 1077.62 Q147.038 1081.16 147.038 1088.29 Q147.038 1095.4 148.843 1098.96 Q150.672 1102.5 154.283 1102.5 Q157.917 1102.5 159.723 1098.96 Q161.552 1095.4 161.552 1088.29 Q161.552 1081.16 159.723 1077.62 Q157.917 1074.06 154.283 1074.06 M154.283 1070.35 Q160.093 1070.35 163.149 1074.96 Q166.227 1079.54 166.227 1088.29 Q166.227 1097.02 163.149 1101.62 Q160.093 1106.21 154.283 1106.21 Q148.473 1106.21 145.394 1101.62 Q142.339 1097.02 142.339 1088.29 Q142.339 1079.54 145.394 1074.96 Q148.473 1070.35 154.283 1070.35 Z" fill="#000000" fill-rule="nonzero" fill-opacity="1" /><path clip-path="url(#clip270)" d="M166.227 1064.45 L190.339 1064.45 L190.339 1067.65 L166.227 1067.65 L166.227 1064.45 Z" fill="#000000" fill-rule="nonzero" fill-opacity="1" /><path clip-path="url(#clip270)" d="M199.197 1074.93 L205.404 1074.93 L205.404 1053.51 L198.652 1054.86 L198.652 1051.4 L205.366 1050.05 L209.166 1050.05 L209.166 1074.93 L215.372 1074.93 L215.372 1078.13 L199.197 1078.13 L199.197 1074.93 Z" fill="#000000" fill-rule="nonzero" fill-opacity="1" /><path clip-path="url(#clip270)" d="M144.667 548.261 L152.305 548.261 L152.305 521.896 L143.995 523.562 L143.995 519.303 L152.259 517.636 L156.935 517.636 L156.935 548.261 L164.574 548.261 L164.574 552.196 L144.667 552.196 L144.667 548.261 Z" fill="#000000" fill-rule="nonzero" fill-opacity="1" /><path clip-path="url(#clip270)" d="M184.018 520.715 Q180.407 520.715 178.578 524.28 Q176.773 527.822 176.773 534.951 Q176.773 542.058 178.578 545.622 Q180.407 549.164 184.018 549.164 Q187.652 549.164 189.458 545.622 Q191.287 542.058 191.287 534.951 Q191.287 527.822 189.458 524.28 Q187.652 520.715 184.018 520.715 M184.018 517.011 Q189.828 517.011 192.884 521.618 Q195.963 526.201 195.963 534.951 Q195.963 543.678 192.884 548.284 Q189.828 552.868 184.018 552.868 Q178.208 552.868 175.129 548.284 Q172.074 543.678 172.074 534.951 Q172.074 526.201 175.129 521.618 Q178.208 517.011 184.018 517.011 Z" fill="#000000" fill-rule="nonzero" fill-opacity="1" /><path clip-path="url(#clip270)" d="M205.667 499.208 Q202.733 499.208 201.248 502.104 Q199.781 504.982 199.781 510.774 Q199.781 516.548 201.248 519.445 Q202.733 522.322 205.667 522.322 Q208.62 522.322 210.087 519.445 Q211.573 516.548 211.573 510.774 Q211.573 504.982 210.087 502.104 Q208.62 499.208 205.667 499.208 M205.667 496.198 Q210.388 496.198 212.871 499.941 Q215.372 503.665 215.372 510.774 Q215.372 517.865 212.871 521.608 Q210.388 525.332 205.667 525.332 Q200.947 525.332 198.445 521.608 Q195.963 517.865 195.963 510.774 Q195.963 503.665 198.445 499.941 Q200.947 496.198 205.667 496.198 Z" fill="#000000" fill-rule="nonzero" fill-opacity="1" /><path clip-path="url(#clip270)" d="M33.7671 1042.8 L14.479 1042.8 L14.479 1036.95 L64.0042 1036.95 L64.0042 1042.8 L58.657 1042.8 Q61.8398 1044.65 63.3994 1047.48 Q64.9272 1050.28 64.9272 1054.23 Q64.9272 1060.69 59.771 1064.76 Q54.6147 1068.81 46.212 1068.81 Q37.8093 1068.81 32.6531 1064.76 Q27.4968 1060.69 27.4968 1054.23 Q27.4968 1050.28 29.0564 1047.48 Q30.5842 1044.65 33.7671 1042.8 M46.212 1062.76 Q52.6732 1062.76 56.3653 1060.12 Q60.0256 1057.44 60.0256 1052.8 Q60.0256 1048.15 56.3653 1045.48 Q52.6732 1042.8 46.212 1042.8 Q39.7508 1042.8 36.0905 1045.48 Q32.3984 1048.15 32.3984 1052.8 Q32.3984 1057.44 36.0905 1060.12 Q39.7508 1062.76 46.212 1062.76 Z" fill="#000000" fill-rule="nonzero" fill-opacity="1" /><path clip-path="url(#clip270)" d="M28.3562 1024.88 L28.3562 1019.03 L64.0042 1019.03 L64.0042 1024.88 L28.3562 1024.88 M14.479 1024.88 L14.479 1019.03 L21.895 1019.03 L21.895 1024.88 L14.479 1024.88 Z" fill="#000000" fill-rule="nonzero" fill-opacity="1" /><path clip-path="url(#clip270)" d="M29.4065 984.047 L34.9447 984.047 Q33.6716 986.53 33.035 989.204 Q32.3984 991.877 32.3984 994.742 Q32.3984 999.102 33.7352 1001.3 Q35.072 1003.46 37.7456 1003.46 Q39.7826 1003.46 40.9603 1001.9 Q42.1061 1000.34 43.1565 995.633 L43.6021 993.628 Q44.9389 987.389 47.3897 984.779 Q49.8086 982.138 54.1691 982.138 Q59.1344 982.138 62.0308 986.084 Q64.9272 989.999 64.9272 996.874 Q64.9272 999.739 64.3543 1002.86 Q63.8132 1005.95 62.6992 1009.38 L56.6518 1009.38 Q58.3387 1006.14 59.198 1002.99 Q60.0256 999.834 60.0256 996.747 Q60.0256 992.609 58.6251 990.381 Q57.1929 988.153 54.6147 988.153 Q52.2276 988.153 50.9545 989.777 Q49.6813 991.368 48.5037 996.811 L48.0262 998.848 Q46.8804 1004.29 44.5251 1006.71 Q42.138 1009.13 38.0002 1009.13 Q32.9713 1009.13 30.2341 1005.56 Q27.4968 1002 27.4968 995.442 Q27.4968 992.196 27.9743 989.331 Q28.4517 986.466 29.4065 984.047 Z" fill="#000000" fill-rule="nonzero" fill-opacity="1" /><path clip-path="url(#clip270)" d="M18.2347 967.019 L28.3562 967.019 L28.3562 954.956 L32.9077 954.956 L32.9077 967.019 L52.2594 967.019 Q56.6199 967.019 57.8613 965.842 Q59.1026 964.632 59.1026 960.972 L59.1026 954.956 L64.0042 954.956 L64.0042 960.972 Q64.0042 967.751 61.4897 970.329 Q58.9434 972.907 52.2594 972.907 L32.9077 972.907 L32.9077 977.204 L28.3562 977.204 L28.3562 972.907 L18.2347 972.907 L18.2347 967.019 Z" fill="#000000" fill-rule="nonzero" fill-opacity="1" /><path clip-path="url(#clip270)" d="M46.0847 931.053 Q46.0847 938.151 47.7079 940.888 Q49.3312 943.625 53.2461 943.625 Q56.3653 943.625 58.2114 941.588 Q60.0256 939.519 60.0256 935.986 Q60.0256 931.117 56.5881 928.188 Q53.1188 925.228 47.3897 925.228 L46.0847 925.228 L46.0847 931.053 M43.6657 919.372 L64.0042 919.372 L64.0042 925.228 L58.5933 925.228 Q61.8398 927.234 63.3994 930.225 Q64.9272 933.217 64.9272 937.546 Q64.9272 943.02 61.8716 946.267 Q58.7843 949.482 53.6281 949.482 Q47.6125 949.482 44.5569 945.471 Q41.5014 941.429 41.5014 933.44 L41.5014 925.228 L40.9285 925.228 Q36.8862 925.228 34.6901 927.902 Q32.4621 930.544 32.4621 935.35 Q32.4621 938.405 33.1941 941.302 Q33.9262 944.198 35.3903 946.872 L29.9795 946.872 Q28.7381 943.657 28.1334 940.633 Q27.4968 937.61 27.4968 934.745 Q27.4968 927.011 31.5072 923.191 Q35.5176 919.372 43.6657 919.372 Z" fill="#000000" fill-rule="nonzero" fill-opacity="1" /><path clip-path="url(#clip270)" d="M42.4881 877.676 L64.0042 877.676 L64.0042 883.533 L42.679 883.533 Q37.6183 883.533 35.1038 885.506 Q32.5894 887.48 32.5894 891.426 Q32.5894 896.169 35.6131 898.906 Q38.6368 901.643 43.8567 901.643 L64.0042 901.643 L64.0042 907.532 L28.3562 907.532 L28.3562 901.643 L33.8944 901.643 Q30.6797 899.543 29.0883 896.71 Q27.4968 893.845 27.4968 890.121 Q27.4968 883.979 31.3163 880.828 Q35.1038 877.676 42.4881 877.676 Z" fill="#000000" fill-rule="nonzero" fill-opacity="1" /><path clip-path="url(#clip270)" d="M29.7248 840.342 L35.1993 840.342 Q33.8307 842.824 33.1623 845.339 Q32.4621 847.821 32.4621 850.368 Q32.4621 856.065 36.0905 859.216 Q39.6872 862.367 46.212 862.367 Q52.7369 862.367 56.3653 859.216 Q59.9619 856.065 59.9619 850.368 Q59.9619 847.821 59.2935 845.339 Q58.5933 842.824 57.2247 840.342 L62.6355 840.342 Q63.7814 842.792 64.3543 845.434 Q64.9272 848.044 64.9272 851.004 Q64.9272 859.057 59.8664 863.799 Q54.8057 868.542 46.212 868.542 Q37.491 868.542 32.4939 863.767 Q27.4968 858.961 27.4968 850.622 Q27.4968 847.917 28.0697 845.339 Q28.6108 842.761 29.7248 840.342 Z" fill="#000000" fill-rule="nonzero" fill-opacity="1" /><path clip-path="url(#clip270)" d="M44.7161 799.665 L47.5806 799.665 L47.5806 826.592 Q53.6281 826.21 56.8109 822.963 Q59.9619 819.685 59.9619 813.86 Q59.9619 810.486 59.1344 807.335 Q58.3069 804.153 56.6518 801.033 L62.1899 801.033 Q63.5267 804.184 64.227 807.495 Q64.9272 810.805 64.9272 814.21 Q64.9272 822.74 59.9619 827.738 Q54.9967 832.703 46.5303 832.703 Q37.7774 832.703 32.6531 827.992 Q27.4968 823.25 27.4968 815.229 Q27.4968 808.036 32.1438 803.866 Q36.7589 799.665 44.7161 799.665 M42.9973 805.521 Q38.1912 805.585 35.3266 808.227 Q32.4621 810.837 32.4621 815.165 Q32.4621 820.067 35.2312 823.027 Q38.0002 825.955 43.0292 826.401 L42.9973 805.521 Z" fill="#000000" fill-rule="nonzero" fill-opacity="1" /><path clip-path="url(#clip270)" d="M18.2347 763.539 L28.3562 763.539 L28.3562 751.476 L32.9077 751.476 L32.9077 763.539 L52.2594 763.539 Q56.6199 763.539 57.8613 762.362 Q59.1026 761.152 59.1026 757.492 L59.1026 751.476 L64.0042 751.476 L64.0042 757.492 Q64.0042 764.271 61.4897 766.85 Q58.9434 769.428 52.2594 769.428 L32.9077 769.428 L32.9077 773.724 L28.3562 773.724 L28.3562 769.428 L18.2347 769.428 L18.2347 763.539 Z" fill="#000000" fill-rule="nonzero" fill-opacity="1" /><path clip-path="url(#clip270)" d="M32.4621 729.96 Q32.4621 734.671 36.1542 737.408 Q39.8145 740.145 46.212 740.145 Q52.6095 740.145 56.3017 737.44 Q59.9619 734.703 59.9619 729.96 Q59.9619 725.281 56.2698 722.544 Q52.5777 719.807 46.212 719.807 Q39.8781 719.807 36.186 722.544 Q32.4621 725.281 32.4621 729.96 M27.4968 729.96 Q27.4968 722.321 32.4621 717.961 Q37.4273 713.6 46.212 713.6 Q54.9649 713.6 59.9619 717.961 Q64.9272 722.321 64.9272 729.96 Q64.9272 737.631 59.9619 741.991 Q54.9649 746.32 46.212 746.32 Q37.4273 746.32 32.4621 741.991 Q27.4968 737.631 27.4968 729.96 Z" fill="#000000" fill-rule="nonzero" fill-opacity="1" /><path clip-path="url(#clip270)" d="M32.4621 669.359 Q32.4621 674.069 36.1542 676.807 Q39.8145 679.544 46.212 679.544 Q52.6095 679.544 56.3017 676.838 Q59.9619 674.101 59.9619 669.359 Q59.9619 664.68 56.2698 661.943 Q52.5777 659.205 46.212 659.205 Q39.8781 659.205 36.186 661.943 Q32.4621 664.68 32.4621 669.359 M27.4968 669.359 Q27.4968 661.72 32.4621 657.359 Q37.4273 652.999 46.212 652.999 Q54.9649 652.999 59.9619 657.359 Q64.9272 661.72 64.9272 669.359 Q64.9272 677.029 59.9619 681.39 Q54.9649 685.719 46.212 685.719 Q37.4273 685.719 32.4621 681.39 Q27.4968 677.029 27.4968 669.359 Z" fill="#000000" fill-rule="nonzero" fill-opacity="1" /><path clip-path="url(#clip270)" d="M58.657 637.626 L77.5631 637.626 L77.5631 643.514 L28.3562 643.514 L28.3562 637.626 L33.7671 637.626 Q30.5842 635.78 29.0564 632.979 Q27.4968 630.146 27.4968 626.231 Q27.4968 619.738 32.6531 615.696 Q37.8093 611.622 46.212 611.622 Q54.6147 611.622 59.771 615.696 Q64.9272 619.738 64.9272 626.231 Q64.9272 630.146 63.3994 632.979 Q61.8398 635.78 58.657 637.626 M46.212 617.701 Q39.7508 617.701 36.0905 620.375 Q32.3984 623.016 32.3984 627.663 Q32.3984 632.31 36.0905 634.984 Q39.7508 637.626 46.212 637.626 Q52.6732 637.626 56.3653 634.984 Q60.0256 632.31 60.0256 627.663 Q60.0256 623.016 56.3653 620.375 Q52.6732 617.701 46.212 617.701 Z" fill="#000000" fill-rule="nonzero" fill-opacity="1" /><path clip-path="url(#clip270)" d="M18.2347 596.121 L28.3562 596.121 L28.3562 584.058 L32.9077 584.058 L32.9077 596.121 L52.2594 596.121 Q56.6199 596.121 57.8613 594.944 Q59.1026 593.734 59.1026 590.074 L59.1026 584.058 L64.0042 584.058 L64.0042 590.074 Q64.0042 596.853 61.4897 599.431 Q58.9434 602.01 52.2594 602.01 L32.9077 602.01 L32.9077 606.306 L28.3562 606.306 L28.3562 602.01 L18.2347 602.01 L18.2347 596.121 Z" fill="#000000" fill-rule="nonzero" fill-opacity="1" /><path clip-path="url(#clip270)" d="M28.3562 576.356 L28.3562 570.499 L64.0042 570.499 L64.0042 576.356 L28.3562 576.356 M14.479 576.356 L14.479 570.499 L21.895 570.499 L21.895 576.356 L14.479 576.356 Z" fill="#000000" fill-rule="nonzero" fill-opacity="1" /><path clip-path="url(#clip270)" d="M35.1993 530.491 Q31.2526 528.295 29.3747 525.239 Q27.4968 522.184 27.4968 518.046 Q27.4968 512.476 31.4117 509.452 Q35.2948 506.428 42.4881 506.428 L64.0042 506.428 L64.0042 512.317 L42.679 512.317 Q37.5546 512.317 35.072 514.131 Q32.5894 515.945 32.5894 519.669 Q32.5894 524.221 35.6131 526.862 Q38.6368 529.504 43.8567 529.504 L64.0042 529.504 L64.0042 535.392 L42.679 535.392 Q37.5228 535.392 35.072 537.207 Q32.5894 539.021 32.5894 542.808 Q32.5894 547.296 35.6449 549.938 Q38.6686 552.58 43.8567 552.58 L64.0042 552.58 L64.0042 558.468 L28.3562 558.468 L28.3562 552.58 L33.8944 552.58 Q30.616 550.575 29.0564 547.774 Q27.4968 544.973 27.4968 541.122 Q27.4968 537.238 29.4702 534.533 Q31.4436 531.796 35.1993 530.491 Z" fill="#000000" fill-rule="nonzero" fill-opacity="1" /><path clip-path="url(#clip270)" d="M49.9359 495.352 L28.3562 495.352 L28.3562 489.496 L49.7131 489.496 Q54.7739 489.496 57.3202 487.522 Q59.8346 485.549 59.8346 481.602 Q59.8346 476.86 56.8109 474.123 Q53.7872 471.353 48.5673 471.353 L28.3562 471.353 L28.3562 465.497 L64.0042 465.497 L64.0042 471.353 L58.5296 471.353 Q61.7762 473.486 63.3676 476.319 Q64.9272 479.12 64.9272 482.844 Q64.9272 488.986 61.1078 492.169 Q57.2883 495.352 49.9359 495.352 M27.4968 480.616 L27.4968 480.616 Z" fill="#000000" fill-rule="nonzero" fill-opacity="1" /><path clip-path="url(#clip270)" d="M35.1993 425.679 Q31.2526 423.483 29.3747 420.428 Q27.4968 417.372 27.4968 413.235 Q27.4968 407.665 31.4117 404.641 Q35.2948 401.617 42.4881 401.617 L64.0042 401.617 L64.0042 407.505 L42.679 407.505 Q37.5546 407.505 35.072 409.32 Q32.5894 411.134 32.5894 414.858 Q32.5894 419.409 35.6131 422.051 Q38.6368 424.693 43.8567 424.693 L64.0042 424.693 L64.0042 430.581 L42.679 430.581 Q37.5228 430.581 35.072 432.395 Q32.5894 434.21 32.5894 437.997 Q32.5894 442.485 35.6449 445.127 Q38.6686 447.768 43.8567 447.768 L64.0042 447.768 L64.0042 453.657 L28.3562 453.657 L28.3562 447.768 L33.8944 447.768 Q30.616 445.763 29.0564 442.962 Q27.4968 440.161 27.4968 436.31 Q27.4968 432.427 29.4702 429.722 Q31.4436 426.984 35.1993 425.679 Z" fill="#000000" fill-rule="nonzero" fill-opacity="1" /><polyline clip-path="url(#clip272)" style="stroke:#009af9; stroke-linecap:round; stroke-linejoin:round; stroke-width:4; stroke-opacity:1; fill:none" points="310.845,86.1857 312.83,87.301 314.814,88.4284 316.799,89.5438 318.783,90.6616 320.767,91.7807 322.752,92.9083 324.736,94.0354 326.721,95.1756 328.705,96.2898 330.69,97.4042 332.674,98.5357 334.658,99.6673 336.643,100.81 338.627,101.94 340.612,103.05 342.596,104.16 344.58,105.259 346.565,106.366 348.549,107.46 350.534,108.565 352.518,109.694 354.503,110.828 356.487,111.942 358.471,113.046 360.456,114.161 362.44,115.305 364.425,116.493 366.409,117.673 368.394,118.829 370.378,119.98 372.362,121.132 374.347,122.32 376.331,123.493 378.316,124.65 380.3,125.832 382.284,126.974 384.269,128.124 386.253,129.264 388.238,130.433 390.222,131.622 392.207,132.798 394.191,133.994 396.175,135.181 398.16,136.395 400.144,137.604 402.129,138.802 404.113,139.967 406.098,141.175 408.082,142.351 410.066,143.534 412.051,144.698 414.035,145.896 416.02,147.082 418.004,148.254 419.989,149.415 421.973,150.609 423.957,151.796 425.942,152.988 427.926,154.152 429.911,155.334 431.895,156.522 433.879,157.75 435.864,158.97 437.848,160.176 439.833,161.369 441.817,162.544 443.802,163.725 445.786,164.933 447.77,166.12 449.755,167.324 451.739,168.536 453.724,169.789 455.708,171.057 457.693,172.319 459.677,173.597 461.661,174.884 463.646,176.156 465.63,177.432 467.615,178.737 469.599,180.007 471.583,181.315 473.568,182.598 475.552,183.865 477.537,185.128 479.521,186.421 481.506,187.698 483.49,189.038 485.474,190.349 487.459,191.735 489.443,193.118 491.428,194.54 493.412,195.913 495.397,197.247 497.381,198.59 499.365,199.965 501.35,201.347 503.334,202.688 505.319,204.035 507.303,205.359 509.287,206.661 511.272,208.011 513.256,209.382 515.241,210.752 517.225,212.116 519.21,213.441 521.194,214.824 523.178,216.27 525.163,217.705 527.147,219.108 529.132,220.498 531.116,221.842 533.101,223.156 535.085,224.467 537.069,225.858 539.054,227.25 541.038,228.667 543.023,230.124 545.007,231.524 546.992,232.923 548.976,234.339 550.96,235.738 552.945,237.194 554.929,238.55 556.914,239.927 558.898,241.329 560.882,242.722 562.867,244.12 564.851,245.496 566.836,246.909 568.82,248.32 570.805,249.702 572.789,251.043 574.773,252.291 576.758,253.551 578.742,254.784 580.727,256.011 582.711,257.249 584.696,258.605 586.68,259.926 588.664,261.217 590.649,262.591 592.633,264.067 594.618,265.497 596.602,266.989 598.586,268.458 600.571,269.958 602.555,271.455 604.54,273.05 606.524,274.664 608.509,276.229 610.493,277.798 612.477,279.389 614.462,280.954 616.446,282.538 618.431,284.129 620.415,285.708 622.4,287.21 624.384,288.817 626.368,290.434 628.353,292.052 630.337,293.584 632.322,295.059 634.306,296.537 636.29,297.987 638.275,299.458 640.259,300.891 642.244,302.335 644.228,303.799 646.213,305.317 648.197,306.856 650.181,308.445 652.166,310.013 654.15,311.47 656.135,312.843 658.119,314.132 660.104,315.515 662.088,316.855 664.072,318.212 666.057,319.611 668.041,320.92 670.026,322.321 672.01,323.739 673.995,325.088 675.979,326.467 677.963,327.841 679.948,329.192 681.932,330.582 683.917,331.901 685.901,333.27 687.885,334.774 689.87,336.325 691.854,337.779 693.839,339.125 695.823,340.448 697.808,341.732 699.792,343.037 701.776,344.4 703.761,345.828 705.745,347.243 707.73,348.639 709.714,350.199 711.699,351.808 713.683,353.376 715.667,354.945 717.652,356.519 719.636,357.955 721.621,359.305 723.605,360.542 725.589,361.718 727.574,362.95 729.558,364.208 731.543,365.411 733.527,366.512 735.512,367.724 737.496,369.065 739.48,370.468 741.465,371.808 743.449,373.167 745.434,374.497 747.418,375.788 749.403,377.039 751.387,378.214 753.371,379.407 755.356,380.723 757.34,382.043 759.325,383.392 761.309,384.702 763.293,386.054 765.278,387.35 767.262,388.525 769.247,389.695 771.231,390.998 773.216,392.328 775.2,393.642 777.184,395.074 779.169,396.209 781.153,397.41 783.138,398.628 785.122,400.073 787.107,401.46 789.091,402.726 791.075,403.866 793.06,405.029 795.044,406.173 797.029,407.442 799.013,408.675 800.998,409.926 802.982,411.411 804.966,412.785 806.951,414.156 808.935,415.527 810.92,417.099 812.904,418.469 814.888,419.882 816.873,421.294 818.857,422.675 820.842,424.088 822.826,425.548 824.811,427.106 826.795,428.573 828.779,430.066 830.764,431.518 832.748,432.971 834.733,434.478 836.717,435.988 838.702,437.391 840.686,438.932 842.67,440.499 844.655,442.118 846.639,443.799 848.624,445.211 850.608,446.593 852.592,447.929 854.577,449.279 856.561,450.51 858.546,451.847 860.53,453.218 862.515,454.696 864.499,456.26 866.483,457.793 868.468,459.296 870.452,460.55 872.437,461.969 874.421,463.477 876.406,465.073 878.39,466.364 880.374,467.674 882.359,469.14 884.343,470.662 886.328,471.874 888.312,472.987 890.296,474.074 892.281,475.164 894.265,476.367 896.25,477.689 898.234,478.955 900.219,480.222 902.203,481.507 904.187,482.687 906.172,483.968 908.156,485.347 910.141,486.88 912.125,488.407 914.11,489.719 916.094,490.998 918.078,492.178 920.063,493.404 922.047,494.536 924.032,495.431 926.016,496.458 928.001,497.658 929.985,498.901 931.969,500.184 933.954,501.477 935.938,503.037 937.923,504.394 939.907,505.541 941.891,506.844 943.876,507.934 945.86,509.221 947.845,510.814 949.829,512.63 951.814,514.471 953.798,516.114 955.782,517.961 957.767,519.572 959.751,521.343 961.736,523.179 963.72,524.905 965.705,526.347 967.689,527.698 969.673,528.792 971.658,529.647 973.642,530.536 975.627,531.407 977.611,532.463 979.595,533.487 981.58,534.451 983.564,535.578 985.549,536.913 987.533,538.497 989.518,540.179 991.502,542.143 993.486,544.095 995.471,545.87 997.455,547.781 999.44,549.747 1001.42,551.71 1003.41,553.784 1005.39,555.975 1007.38,558.282 1009.36,560.572 1011.35,562.964 1013.33,565.127 1015.32,567.455 1017.3,569.852 1019.28,571.881 1021.27,573.767 1023.25,575.564 1025.24,577.509 1027.22,579.642 1029.21,581.687 1031.19,583.95 1033.17,586.048 1035.16,587.968 1037.14,590.45 1039.13,593.015 1041.11,595.864 1043.1,598.396 1045.08,600.759 1047.07,602.618 1049.05,604.399 1051.03,606.144 1053.02,607.976 1055,609.661 1056.99,610.959 1058.97,612.196 1060.96,613.335 1062.94,614.166 1064.93,614.993 1066.91,616.065 1068.89,617.45 1070.88,618.857 1072.86,620.035 1074.85,621.484 1076.83,622.604 1078.82,624 1080.8,625.333 1082.79,626.71 1084.77,627.874 1086.75,629.075 1088.74,630.166 1090.72,631.234 1092.71,632.588 1094.69,633.79 1096.68,635.744 1098.66,637.952 1100.65,640.215 1102.63,642.384 1104.61,644.623 1106.6,646.719 1108.58,648.469 1110.57,650.286 1112.55,651.924 1114.54,653.627 1116.52,655.2 1118.51,657.138 1120.49,659.061 1122.47,660.467 1124.46,662.443 1126.44,664.255 1128.43,665.948 1130.41,667.198 1132.4,668.655 1134.38,669.811 1136.36,670.47 1138.35,671.92 1140.33,673.501 1142.32,675.807 1144.3,678.474 1146.29,680.94 1148.27,683.542 1150.26,685.77 1152.24,688.17 1154.22,690.024 1156.21,691.901 1158.19,693.975 1160.18,696.068 1162.16,697.972 1164.15,699.569 1166.13,701.1 1168.12,702.257 1170.1,703.3 1172.08,704.497 1174.07,705.667 1176.05,707.459 1178.04,709.229 1180.02,710.56 1182.01,711.663 1183.99,712.646 1185.98,713.605 1187.96,715.478 1189.94,717.598 1191.93,720.369 1193.91,723.251 1195.9,725.644 1197.88,728.281 1199.87,732.049 1201.85,735.798 1203.84,739.491 1205.82,742.518 1207.8,744.417 1209.79,746.129 1211.77,748.085 1213.76,749.378 1215.74,750.776 1217.73,751.663 1219.71,752.264 1221.69,752.874 1223.68,753.276 1225.66,753.216 1227.65,753.937 1229.63,753.95 1231.62,754.042 1233.6,755.77 1235.59,757.745 1237.57,759.837 1239.55,761.99 1241.54,764.469 1243.52,766.22 1245.51,767.613 1247.49,768.577 1249.48,769.487 1251.46,770.393 1253.45,771.833 1255.43,773.251 1257.41,773.673 1259.4,774.676 1261.38,775.315 1263.37,775.187 1265.35,775.465 1267.34,775.228 1269.32,775.849 1271.31,777.508 1273.29,778.508 1275.27,780.157 1277.26,780.92 1279.24,781.807 1281.23,782.993 1283.21,783.973 1285.2,784.516 1287.18,785.067 1289.17,785.95 1291.15,786.025 1293.13,785.565 1295.12,785.296 1297.1,784.156 1299.09,783.301 1301.07,782.65 1303.06,781.242 1305.04,780.445 1307.03,779.719 1309.01,777.955 1310.99,776.724 1312.98,775.659 1314.96,775.148 1316.95,773.842 1318.93,772.906 1320.92,772.569 1322.9,772.662 1324.88,773.821 1326.87,774.359 1328.85,774.663 1330.84,775.569 1332.82,776.295 1334.81,777.046 1336.79,777.596 1338.78,777.716 1340.76,777.768 1342.74,778.524 1344.73,779.379 1346.71,781.017 1348.7,782.756 1350.68,784.326 1352.67,786.902 1354.65,789.082 1356.64,790.853 1358.62,791.579 1360.6,792.183 1362.59,792.835 1364.57,792.527 1366.56,792.946 1368.54,796.601 1370.53,799.251 1372.51,801.088 1374.5,802.609 1376.48,804.389 1378.46,807.036 1380.45,809.386 1382.43,811.134 1384.42,812.619 1386.4,813.176 1388.39,812.97 1390.37,812.354 1392.36,812.182 1394.34,812.661 1396.32,813.581 1398.31,814.023 1400.29,814.115 1402.28,814.114 1404.26,813.373 1406.25,812.744 1408.23,811.699 1410.22,810.984 1412.2,809.542 1414.18,808.132 1416.17,807.27 1418.15,806.963 1420.14,807.402 1422.12,808.664 1424.11,809.13 1426.09,809.15 1428.07,808.405 1430.06,808.444 1432.04,808.931 1434.03,808.332 1436.01,807.835 1438,807.327 1439.98,806.397 1441.97,805.261 1443.95,804.118 1445.93,802.776 1447.92,801.216 1449.9,799.615 1451.89,797.963 1453.87,795.863 1455.86,794.8 1457.84,793.652 1459.83,792.775 1461.81,792.202 1463.79,791.43 1465.78,789.273 1467.76,786.694 1469.75,784.822 1471.73,784.557 1473.72,786.945 1475.7,788.51 1477.69,789.617 1479.67,790.842 1481.65,792.894 1483.64,795.018 1485.62,796.112 1487.61,797.546 1489.59,797.782 1491.58,798.988 1493.56,799.879 1495.55,800.399 1497.53,801.044 1499.51,801.372 1501.5,804.275 1503.48,807.752 1505.47,810.884 1507.45,813.423 1509.44,815.283 1511.42,817.721 1513.4,820.619 1515.39,822.709 1517.37,823.784 1519.36,824.398 1521.34,824.285 1523.33,823.691 1525.31,823.97 1527.3,824.238 1529.28,825.265 1531.26,826.374 1533.25,827 1535.23,827.027 1537.22,829.289 1539.2,831.133 1541.19,833.057 1543.17,835.318 1545.16,837.289 1547.14,838.892 1549.12,841.331 1551.11,844.179 1553.09,847.463 1555.08,850.525 1557.06,853.072 1559.05,855.795 1561.03,858.352 1563.02,860.27 1565,861.996 1566.98,862.927 1568.97,863.688 1570.95,865.154 1572.94,867.7 1574.92,869.43 1576.91,871.232 1578.89,874.452 1580.88,876.5 1582.86,878.804 1584.84,880.301 1586.83,881.909 1588.81,882.674 1590.8,884.746 1592.78,886.369 1594.77,892.139 1596.75,897.544 1598.74,902.053 1600.72,907.317 1602.7,912.148 1604.69,918.443 1606.67,922.704 1608.66,924.627 1610.64,924.42 1612.63,925.426 1614.61,926.084 1616.59,926.067 1618.58,926.422 1620.56,925.545 1622.55,923.924 1624.53,921.119 1626.52,916.979 1628.5,911.565 1630.49,907.688 1632.47,904.866 1634.45,901.679 1636.44,897.528 1638.42,892.838 1640.41,888.076 1642.39,883.48 1644.38,877.956 1646.36,872.536 1648.35,868.105 1650.33,863.322 1652.31,860.123 1654.3,857.771 1656.28,855.92 1658.27,854.682 1660.25,853.46 1662.24,853.14 1664.22,852.638 1666.21,853.489 1668.19,854.246 1670.17,854.98 1672.16,855.803 1674.14,857.916 1676.13,859.572 1678.11,861.362 1680.1,861.76 1682.08,860.429 1684.07,859.131 1686.05,857.663 1688.03,856.328 1690.02,854.715 1692,854.307 1693.99,853.754 1695.97,853.863 1697.96,853.281 1699.94,853.315 1701.93,852.185 1703.91,853.015 1705.89,853.3 1707.88,853.671 1709.86,853.667 1711.85,852.759 1713.83,853.062 1715.82,853.7 1717.8,853.68 1719.78,853.732 1721.77,853.416 1723.75,853.153 1725.74,851.561 1727.72,850.355 1729.71,848.908 1731.69,848.006 1733.68,847.645 1735.66,847.686 1737.64,847.552 1739.63,849.559 1741.61,851.491 1743.6,853.484 1745.58,855.518 1747.57,857.955 1749.55,861.173 1751.54,861.878 1753.52,861.947 1755.5,862.257 1757.49,862.086 1759.47,861.673 1761.46,862.091 1763.44,862.094 1765.43,861.798 1767.41,861.627 1769.4,862.545 1771.38,863.321 1773.36,863.311 1775.35,863.048 1777.33,862.408 1779.32,860.842 1781.3,860.041 1783.29,858.956 1785.27,857.4 1787.26,857.194 1789.24,858.238 1791.22,859.185 1793.21,859.321 1795.19,860.053 1797.18,860.501 1799.16,860.52 1801.15,859.047 1803.13,857.085 1805.11,857.162 1807.1,857.587 1809.08,857.529 1811.07,858.07 1813.05,859.415 1815.04,859.599 1817.02,859.804 1819.01,859.882 1820.99,860.292 1822.97,860.328 1824.96,860.035 1826.94,859.458 1828.93,858.115 1830.91,857.008 1832.9,856.599 1834.88,856.104 1836.87,854.672 1838.85,854.264 1840.83,853.617 1842.82,852.964 1844.8,852.305 1846.79,851.131 1848.77,850.02 1850.76,849.788 1852.74,848.92 1854.73,847.865 1856.71,846.214 1858.69,844.452 1860.68,843.108 1862.66,841.065 1864.65,838.674 1866.63,836.209 1868.62,834.034 1870.6,832.444 1872.59,828.561 1874.57,825.222 1876.55,819.996 1878.54,814.963 1880.52,810.22 1882.51,807.258 1884.49,804.626 1886.48,800.562 1888.46,797.682 1890.45,795.278 1892.43,791.878 1894.41,788.548 1896.4,786.384 1898.38,784.087 1900.37,782.231 1902.35,780.655 1904.34,779.072 1906.32,778.242 1908.3,777.907 1910.29,778.019 1912.27,778.534 1914.26,779.216 1916.24,780.692 1918.23,782.488 1920.21,783.453 1922.2,785.154 1924.18,785.422 1926.16,786.217 1928.15,786.629 1930.13,785.971 1932.12,784.465 1934.1,783.501 1936.09,781.814 1938.07,780.123 1940.06,778.339 1942.04,777.809 1944.02,775.956 1946.01,773.778 1947.99,772.074 1949.98,770.675 1951.96,769.442 1953.95,767.564 1955.93,765.426 1957.92,763.928 1959.9,762.491 1961.88,761.114 1963.87,760.488 1965.85,759.52 1967.84,758.634 1969.82,757.796 1971.81,757.57 1973.79,758.545 1975.78,760.474 1977.76,763.074 1979.74,764.991 1981.73,767.431 1983.71,770.391 1985.7,773.368 1987.68,776.543 1989.67,779.761 1991.65,783.129 1993.64,786.143 1995.62,788.54 1997.6,791.181 1999.59,793.454 2001.57,795.43 2003.56,797.895 2005.54,800.082 2007.53,802.557 2009.51,804.053 2011.49,805.742 2013.48,808.095 2015.46,809.575 2017.45,811.581 2019.43,813.853 2021.42,816.158 2023.4,817.941 2025.39,819.412 2027.37,821.242 2029.35,823.015 2031.34,824.455 2033.32,823.646 2035.31,823.809 2037.29,823.496 2039.28,822.634 2041.26,822.005 2043.25,819.96 2045.23,817.98 2047.21,816.035 2049.2,813.832 2051.18,811.777 2053.17,809.024 2055.15,806.177 2057.14,803.039 2059.12,799.85 2061.11,797.053 2063.09,794.401 2065.07,791.884 2067.06,789.669 2069.04,788.388 2071.03,788.046 2073.01,788.059 2075,787.983 2076.98,786.659 2078.97,785.712 2080.95,785.3 2082.93,784.737 2084.92,784.653 2086.9,784.204 2088.89,784.5 2090.87,783.482 2092.86,783.063 2094.84,782.645 2096.83,782.743 2098.81,781.848 2100.79,781.834 2102.78,782.415 2104.76,783.427 2106.75,784.413 2108.73,785.689 2110.72,786.739 2112.7,787.649 2114.68,788.666 2116.67,789.953 2118.65,791.404 2120.64,792.398 2122.62,792.696 2124.61,793.757 2126.59,794.891 2128.58,795.883 2130.56,797.247 2132.54,799.671 2134.53,800.732 2136.51,802.335 2138.5,804.468 2140.48,806.711 2142.47,809.073 2144.45,810.064 2146.44,811.272 2148.42,812.529 2150.4,813.229 2152.39,812.748 2154.37,812.154 2156.36,811.883 2158.34,812.039 2160.33,811.967 2162.31,812.662 2164.3,813.27 2166.28,815.282 2168.26,817.672 2170.25,819.413 2172.23,820.598 2174.22,820.132 2176.2,819.955 2178.19,817.833 2180.17,815.916 2182.16,814.067 2184.14,812.143 2186.12,809.903 2188.11,806.954 2190.09,803.996 2192.08,801.219 2194.06,797.468 2196.05,793.683 2198.03,789.94 2200.01,785.939 2202,782.831 2203.98,779.441 2205.97,777.316 2207.95,775.633 2209.94,772.927 2211.92,770.186 2213.91,768.384 2215.89,766.432 2217.87,764.554 2219.86,762.703 2221.84,761.7 2223.83,760.183 2225.81,758.715 2227.8,757.358 2229.78,756.378 2231.77,756.343 2233.75,756.218 2235.73,756.652 2237.72,757.339 2239.7,757.991 2241.69,759.605 2243.67,761.874 2245.66,763.387 2247.64,764.812 2249.63,766.381 2251.61,768.374 2253.59,770.498 2255.58,772.508 2257.56,774.736 2259.55,776.238 2261.53,777.541 2263.52,779.579 2265.5,781.98 2267.49,784.463 2269.47,786.694 2271.45,788.594 2273.44,790.418 2275.42,792.581 2277.41,794.523 2279.39,795.984 2281.38,797.733 2283.36,799.435 2285.35,801.62 2287.33,803.975 2289.31,806.552 2291.3,808.975 2293.28,811.281 "/>
<polyline clip-path="url(#clip272)" style="stroke:#e26f46; stroke-linecap:round; stroke-linejoin:round; stroke-width:4; stroke-opacity:1; fill:none" points="310.845,86.4282 312.83,87.6345 314.814,88.8456 316.799,90.0655 318.783,91.2916 320.767,92.5233 322.752,93.7604 324.736,95.0036 326.721,96.2544 328.705,97.5111 330.69,98.7731 332.674,100.039 334.658,101.309 336.643,102.586 338.627,103.867 340.612,105.154 342.596,106.445 344.58,107.742 346.565,109.043 348.549,110.348 350.534,111.659 352.518,112.975 354.503,114.296 356.487,115.622 358.471,116.953 360.456,118.287 362.44,119.625 364.425,120.966 366.409,122.313 368.394,123.665 370.378,125.022 372.362,126.384 374.347,127.75 376.331,129.122 378.316,130.499 380.3,131.879 382.284,133.262 384.269,134.65 386.253,136.042 388.238,137.437 390.222,138.836 392.207,140.24 394.191,141.649 396.175,143.062 398.16,144.478 400.144,145.899 402.129,147.325 404.113,148.754 406.098,150.19 408.082,151.63 410.066,153.075 412.051,154.525 414.035,155.978 416.02,157.436 418.004,158.895 419.989,160.357 421.973,161.826 423.957,163.296 425.942,164.772 427.926,166.252 429.911,167.737 431.895,169.227 433.879,170.719 435.864,172.219 437.848,173.725 439.833,175.235 441.817,176.748 443.802,178.268 445.786,179.791 447.77,181.316 449.755,182.845 451.739,184.378 453.724,185.914 455.708,187.454 457.693,188.999 459.677,190.547 461.661,192.099 463.646,193.653 465.63,195.21 467.615,196.773 469.599,198.341 471.583,199.913 473.568,201.49 475.552,203.069 477.537,204.654 479.521,206.245 481.506,207.842 483.49,209.445 485.474,211.058 487.459,212.674 489.443,214.296 491.428,215.924 493.412,217.556 495.397,219.191 497.381,220.831 499.365,222.473 501.35,224.116 503.334,225.761 505.319,227.411 507.303,229.065 509.287,230.722 511.272,232.384 513.256,234.048 515.241,235.717 517.225,237.39 519.21,239.069 521.194,240.754 523.178,242.444 525.163,244.139 527.147,245.839 529.132,247.54 531.116,249.251 533.101,250.964 535.085,252.683 537.069,254.405 539.054,256.136 541.038,257.871 543.023,259.615 545.007,261.367 546.992,263.121 548.976,264.878 550.96,266.642 552.945,268.415 554.929,270.19 556.914,271.972 558.898,273.757 560.882,275.544 562.867,277.333 564.851,279.13 566.836,280.934 568.82,282.742 570.805,284.549 572.789,286.362 574.773,288.183 576.758,290.011 578.742,291.844 580.727,293.678 582.711,295.517 584.696,297.369 586.68,299.23 588.664,301.096 590.649,302.966 592.633,304.841 594.618,306.718 596.602,308.604 598.586,310.496 600.571,312.392 602.555,314.289 604.54,316.189 606.524,318.098 608.509,320.014 610.493,321.935 612.477,323.857 614.462,325.781 616.446,327.707 618.431,329.633 620.415,331.566 622.4,333.504 624.384,335.444 626.368,337.393 628.353,339.348 630.337,341.302 632.322,343.266 634.306,345.237 636.29,347.21 638.275,349.192 640.259,351.182 642.244,353.178 644.228,355.178 646.213,357.185 648.197,359.183 650.181,361.194 652.166,363.22 654.15,365.256 656.135,367.301 658.119,369.355 660.104,371.408 662.088,373.464 664.072,375.526 666.057,377.598 668.041,379.677 670.026,381.761 672.01,383.847 673.995,385.935 675.979,388.037 677.963,390.141 679.948,392.25 681.932,394.364 683.917,396.483 685.901,398.605 687.885,400.722 689.87,402.836 691.854,404.964 693.839,407.102 695.823,409.256 697.808,411.407 699.792,413.555 701.776,415.706 703.761,417.865 705.745,420.037 707.73,422.229 709.714,424.43 711.699,426.633 713.683,428.846 715.667,431.055 717.652,433.265 719.636,435.477 721.621,437.701 723.605,439.93 725.589,442.157 727.574,444.378 729.558,446.593 731.543,448.807 733.527,451.035 735.512,453.262 737.496,455.493 739.48,457.733 741.465,459.975 743.449,462.212 745.434,464.471 747.418,466.734 749.403,469.012 751.387,471.3 753.371,473.605 755.356,475.926 757.34,478.263 759.325,480.609 761.309,482.962 763.293,485.303 765.278,487.636 767.262,489.978 769.247,492.334 771.231,494.7 773.216,497.065 775.2,499.424 777.184,501.776 779.169,504.149 781.153,506.537 783.138,508.938 785.122,511.343 787.107,513.767 789.091,516.204 791.075,518.64 793.06,521.073 795.044,523.524 797.029,525.973 799.013,528.422 800.998,530.867 802.982,533.318 804.966,535.765 806.951,538.231 808.935,540.691 810.92,543.14 812.904,545.568 814.888,547.981 816.873,550.379 818.857,552.776 820.842,555.176 822.826,557.574 824.811,559.959 826.795,562.341 828.779,564.735 830.764,567.155 832.748,569.606 834.733,572.081 836.717,574.59 838.702,577.109 840.686,579.686 842.67,582.275 844.655,584.856 846.639,587.495 848.624,590.113 850.608,592.702 852.592,595.296 854.577,597.922 856.561,600.588 858.546,603.223 860.53,605.831 862.515,608.455 864.499,611.119 866.483,613.772 868.468,616.404 870.452,619.031 872.437,621.682 874.421,624.308 876.406,626.996 878.39,629.67 880.374,632.324 882.359,634.978 884.343,637.605 886.328,640.215 888.312,642.839 890.296,645.424 892.281,648.018 894.265,650.637 896.25,653.268 898.234,655.874 900.219,658.455 902.203,660.995 904.187,663.536 906.172,666.116 908.156,668.694 910.141,671.274 912.125,673.826 914.11,676.417 916.094,679.046 918.078,681.714 920.063,684.45 922.047,687.222 924.032,690.004 926.016,692.78 928.001,695.548 929.985,698.401 931.969,701.238 933.954,704.08 935.938,706.895 937.923,709.648 939.907,712.46 941.891,715.094 943.876,717.729 945.86,720.259 947.845,722.757 949.829,725.305 951.814,727.984 953.798,730.71 955.782,733.585 957.767,736.511 959.751,739.557 961.736,742.499 963.72,745.418 965.705,748.388 967.689,751.253 969.673,754.038 971.658,756.97 973.642,759.895 975.627,762.929 977.611,766.02 979.595,769.18 981.58,772.394 983.564,775.389 985.549,778.511 987.533,781.62 989.518,784.759 991.502,787.946 993.486,791.156 995.471,794.445 997.455,797.634 999.44,800.711 1001.42,803.615 1003.41,806.369 1005.39,809.042 1007.38,811.64 1009.36,814.11 1011.35,816.698 1013.33,819.26 1015.32,821.898 1017.3,824.586 1019.28,827.168 1021.27,829.808 1023.25,832.484 1025.24,835.314 1027.22,838.175 1029.21,841.163 1031.19,844.32 1033.17,847.278 1035.16,850.104 1037.14,852.861 1039.13,855.518 1041.11,858.336 1043.1,861.27 1045.08,864.217 1047.07,867.15 1049.05,870.214 1051.03,873.436 1053.02,876.653 1055,880.718 1056.99,884.732 1058.97,888.699 1060.96,892.936 1062.94,897.536 1064.93,902.006 1066.91,906.099 1068.89,909.806 1070.88,913.324 1072.86,916.466 1074.85,919.722 1076.83,923.113 1078.82,926.306 1080.8,929.483 1082.79,932.55 1084.77,935.269 1086.75,938.311 1088.74,940.656 1090.72,942.443 1092.71,943.925 1094.69,945.646 1096.68,946.971 1098.66,948.489 1100.65,950.4 1102.63,953.112 1104.61,954.985 1106.6,957.286 1108.58,960.314 1110.57,962.893 1112.55,964.613 1114.54,965.432 1116.52,966.392 1118.51,968.062 1120.49,969.775 1122.47,972.195 1124.46,974.975 1126.44,977.289 1128.43,979.965 1130.41,983.77 1132.4,988.015 1134.38,993.034 1136.36,998.153 1138.35,1003.08 1140.33,1008.14 1142.32,1012.26 1144.3,1015.8 1146.29,1018.95 1148.27,1021.74 1150.26,1023.98 1152.24,1025.99 1154.22,1027.33 1156.21,1029.38 1158.19,1031.69 1160.18,1034.27 1162.16,1037.6 1164.15,1041.81 1166.13,1045.34 1168.12,1048.48 1170.1,1050.49 1172.08,1052.57 1174.07,1054.92 1176.05,1058.56 1178.04,1061.66 1180.02,1064.82 1182.01,1067.98 1183.99,1069.84 1185.98,1071.6 1187.96,1071.92 1189.94,1073.29 1191.93,1073.03 1193.91,1074.2 1195.9,1076.28 1197.88,1079.91 1199.87,1082.86 1201.85,1085.52 1203.84,1088.94 1205.82,1091.51 1207.8,1093.83 1209.79,1094.85 1211.77,1091.57 1213.76,1086.38 1215.74,1081.16 1217.73,1077.4 1219.71,1073.89 1221.69,1072.21 1223.68,1072.49 1225.66,1073.54 1227.65,1072.22 1229.63,1072.09 1231.62,1076.85 1233.6,1081 1235.59,1087.67 1237.57,1098.51 1239.55,1109.63 1241.54,1119.89 1243.52,1126.69 1245.51,1136.63 1247.49,1147.56 1249.48,1158.12 1251.46,1167.3 1253.45,1174.68 1255.43,1178.77 1257.41,1178.17 1259.4,1174.18 1261.38,1172.94 1263.37,1167.61 1265.35,1164.43 1267.34,1166.69 1269.32,1166.26 1271.31,1163.57 1273.29,1157.85 1275.27,1154.7 1277.26,1153.71 1279.24,1152.79 1281.23,1157.89 1283.21,1160.91 1285.2,1159.52 1287.18,1157.23 1289.17,1159.05 1291.15,1158.6 1293.13,1160.39 1295.12,1160.01 1297.1,1160.79 1299.09,1164.54 1301.07,1170.18 1303.06,1174.78 1305.04,1181.77 1307.03,1187.29 1309.01,1193.85 1310.99,1198.7 1312.98,1204.09 1314.96,1210.51 1316.95,1218.97 1318.93,1230.18 1320.92,1241.78 1322.9,1247.5 1324.88,1247.33 1326.87,1243.77 1328.85,1235.9 1330.84,1226.83 1332.82,1220.29 1334.81,1213.54 1336.79,1207.56 1338.78,1206.94 1340.76,1202.01 1342.74,1195.46 1344.73,1186.48 1346.71,1177.52 1348.7,1169.24 1350.68,1158.86 1352.67,1149.27 1354.65,1137.55 1356.64,1127.49 1358.62,1119.22 1360.6,1113.29 1362.59,1110 1364.57,1107.55 1366.56,1106.11 1368.54,1105.91 1370.53,1107.12 1372.51,1108 1374.5,1110.66 1376.48,1114.57 1378.46,1128.25 1380.45,1135.56 1382.43,1138.21 1384.42,1140.67 1386.4,1138.97 1388.39,1136.25 1390.37,1132.74 1392.36,1122.08 1394.34,1106.58 1396.32,1097.18 1398.31,1089.86 1400.29,1085.11 1402.28,1080.38 1404.26,1079.97 1406.25,1077.76 1408.23,1077.55 1410.22,1079.29 1412.2,1080.29 1414.18,1085.43 1416.17,1094.97 1418.15,1100.44 1420.14,1104.73 1422.12,1112.04 1424.11,1116.87 1426.09,1117.27 1428.07,1119.55 1430.06,1125.57 1432.04,1135.98 1434.03,1143.22 1436.01,1148.62 1438,1154.77 1439.98,1159.48 1441.97,1164.05 1443.95,1167.6 1445.93,1169.31 1447.92,1171.03 1449.9,1176.42 1451.89,1185.81 1453.87,1195.35 1455.86,1206.55 1457.84,1213.86 1459.83,1222.92 1461.81,1232.55 1463.79,1240.38 1465.78,1250.38 1467.76,1256.17 1469.75,1251.55 1471.73,1247.98 1473.72,1240.59 1475.7,1228.73 1477.69,1216.63 1479.67,1205.75 1481.65,1199.18 1483.64,1189.51 1485.62,1178.41 1487.61,1169.14 1489.59,1160.19 1491.58,1159.54 1493.56,1159.79 1495.55,1161.24 1497.53,1165.22 1499.51,1172.05 1501.5,1182.36 1503.48,1194.49 1505.47,1209.7 1507.45,1226.13 1509.44,1241.67 1511.42,1250.51 1513.4,1262.22 1515.39,1271.05 1517.37,1270.95 1519.36,1267 1521.34,1257.79 1523.33,1246.01 1525.31,1233.16 1527.3,1217.61 1529.28,1204.61 1531.26,1195.34 1533.25,1184.01 1535.23,1174.34 1537.22,1164.15 1539.2,1158.16 1541.19,1153.19 1543.17,1155.53 1545.16,1163.31 1547.14,1173.98 1549.12,1191.25 1551.11,1201.97 1553.09,1214.56 1555.08,1220.22 1557.06,1224.23 1559.05,1228.46 1561.03,1234.17 1563.02,1238.35 1565,1250.47 1566.98,1263.54 1568.97,1278.32 1570.95,1292.63 1572.94,1303.69 1574.92,1313.62 1576.91,1319.2 1578.89,1323.14 1580.88,1328.16 1582.86,1331.85 1584.84,1335.93 1586.83,1336.13 1588.81,1334.09 1590.8,1334.48 1592.78,1343.4 1594.77,1350.26 1596.75,1358.59 1598.74,1372.59 1600.72,1373.75 1602.7,1373.03 1604.69,1369.09 1606.67,1347.52 1608.66,1307.9 1610.64,1270.2 1612.63,1241.14 1614.61,1223.22 1616.59,1211.64 1618.58,1209 1620.56,1205.18 1622.55,1206.84 1624.53,1206.98 1626.52,1204.16 1628.5,1200.24 1630.49,1194.63 1632.47,1189.48 1634.45,1183.26 1636.44,1181.59 1638.42,1179.19 1640.41,1179.8 1642.39,1174.93 1644.38,1169.73 1646.36,1167.75 1648.35,1168.18 1650.33,1167.04 1652.31,1167.87 1654.3,1167.93 1656.28,1168.58 1658.27,1172.37 1660.25,1178.73 1662.24,1184.48 1664.22,1192.62 1666.21,1201.99 1668.19,1211.67 1670.17,1227.48 1672.16,1242.97 1674.14,1250.65 1676.13,1254.95 1678.11,1256.6 1680.1,1251.42 1682.08,1242.53 1684.07,1236.82 1686.05,1234.39 1688.03,1235.39 1690.02,1239.1 1692,1243.78 1693.99,1246.32 1695.97,1237.54 1697.96,1235.48 1699.94,1234.1 1701.93,1217.26 1703.91,1209.23 1705.89,1206.25 1707.88,1199 1709.86,1192.2 1711.85,1184.81 1713.83,1178.73 1715.82,1173.27 1717.8,1168.07 1719.78,1162.1 1721.77,1155.34 1723.75,1150.52 1725.74,1147.35 1727.72,1143.11 1729.71,1137.99 1731.69,1131.94 1733.68,1133.99 1735.66,1135.91 1737.64,1144.85 1739.63,1158.17 1741.61,1169.7 1743.6,1180.4 1745.58,1195.02 1747.57,1204.47 1749.55,1211.66 1751.54,1216.88 1753.52,1217.99 1755.5,1213.5 1757.49,1208.48 1759.47,1206.27 1761.46,1206.86 1763.44,1216.47 1765.43,1228.45 1767.41,1237.09 1769.4,1250.14 1771.38,1269.15 1773.36,1295.72 1775.35,1325.67 1777.33,1350.99 1779.32,1348.74 1781.3,1337.71 1783.29,1322.53 1785.27,1305.59 1787.26,1284.18 1789.24,1270.37 1791.22,1257.96 1793.21,1248.29 1795.19,1240.77 1797.18,1229.09 1799.16,1224.49 1801.15,1221.62 1803.13,1215.96 1805.11,1214.62 1807.1,1213.62 1809.08,1219.83 1811.07,1216.39 1813.05,1213.4 1815.04,1214.23 1817.02,1211.94 1819.01,1208.57 1820.99,1207.68 1822.97,1213.18 1824.96,1219.89 1826.94,1228.86 1828.93,1233.16 1830.91,1234.94 1832.9,1229.21 1834.88,1222.08 1836.87,1209.8 1838.85,1203.63 1840.83,1197.56 1842.82,1195.81 1844.8,1192.53 1846.79,1196.26 1848.77,1202.31 1850.76,1208.38 1852.74,1216.64 1854.73,1225.75 1856.71,1235.49 1858.69,1243.91 1860.68,1251.85 1862.66,1262.03 1864.65,1262.11 1866.63,1258.72 1868.62,1255.26 1870.6,1252.75 1872.59,1252.11 1874.57,1247.66 1876.55,1250.61 1878.54,1250.82 1880.52,1252.95 1882.51,1262.38 1884.49,1276.29 1886.48,1286.38 1888.46,1285.04 1890.45,1291.83 1892.43,1295.57 1894.41,1300.9 1896.4,1299.42 1898.38,1282.88 1900.37,1257.05 1902.35,1236.64 1904.34,1220.64 1906.32,1201.4 1908.3,1188.36 1910.29,1172.86 1912.27,1162.8 1914.26,1152.79 1916.24,1144.2 1918.23,1133.25 1920.21,1124.62 1922.2,1121.08 1924.18,1116.95 1926.16,1112.91 1928.15,1111.08 1930.13,1109.02 1932.12,1105.79 1934.1,1099.74 1936.09,1099.5 1938.07,1103.2 1940.06,1107.11 1942.04,1108.04 1944.02,1107.18 1946.01,1111.08 1947.99,1118.4 1949.98,1123.82 1951.96,1125.64 1953.95,1130.31 1955.93,1139.35 1957.92,1149.58 1959.9,1159.06 1961.88,1167.99 1963.87,1181.38 1965.85,1195.27 1967.84,1210.4 1969.82,1223.79 1971.81,1231.34 1973.79,1236.91 1975.78,1239.84 1977.76,1239.04 1979.74,1238.4 1981.73,1235.02 1983.71,1233.76 1985.7,1227.68 1987.68,1227.79 1989.67,1222.34 1991.65,1218.04 1993.64,1204.84 1995.62,1193.81 1997.6,1189.82 1999.59,1184.52 2001.57,1181.79 2003.56,1181.8 2005.54,1181.53 2007.53,1179.54 2009.51,1179.32 2011.49,1177.4 2013.48,1176.86 2015.46,1178.78 2017.45,1180.38 2019.43,1180.57 2021.42,1184.74 2023.4,1185.84 2025.39,1182.93 2027.37,1181.58 2029.35,1175.97 2031.34,1171.54 2033.32,1164.16 2035.31,1155.87 2037.29,1149.95 2039.28,1147.76 2041.26,1142.05 2043.25,1136.02 2045.23,1132.08 2047.21,1134.34 2049.2,1138.38 2051.18,1141.75 2053.17,1146.81 2055.15,1149.3 2057.14,1161.8 2059.12,1170.48 2061.11,1174.48 2063.09,1173.47 2065.07,1174.8 2067.06,1169.55 2069.04,1173.84 2071.03,1171.79 2073.01,1172.46 2075,1171.86 2076.98,1169.82 2078.97,1168.88 2080.95,1170.66 2082.93,1171.51 2084.92,1175.16 2086.9,1174.81 2088.89,1175.88 2090.87,1177.14 2092.86,1180.18 2094.84,1187.53 2096.83,1194.76 2098.81,1201.21 2100.79,1202.26 2102.78,1202.24 2104.76,1198.68 2106.75,1198.38 2108.73,1199.03 2110.72,1193.47 2112.7,1185.31 2114.68,1176.5 2116.67,1177.33 2118.65,1174.27 2120.64,1171.55 2122.62,1172.17 2124.61,1171.1 2126.59,1169.81 2128.58,1170.17 2130.56,1165.87 2132.54,1157.92 2134.53,1155.16 2136.51,1152.38 2138.5,1153.14 2140.48,1149.83 2142.47,1148.83 2144.45,1150.93 2146.44,1157.3 2148.42,1158.46 2150.4,1164.11 2152.39,1173.74 2154.37,1181.35 2156.36,1198.11 2158.34,1218.6 2160.33,1233.68 2162.31,1243.75 2164.3,1259.28 2166.28,1275.76 2168.26,1288.87 2170.25,1306.9 2172.23,1324.31 2174.22,1339.02 2176.2,1347.86 2178.19,1359.43 2180.17,1364.59 2182.16,1366.65 2184.14,1366.61 2186.12,1375.57 2188.11,1384.24 2190.09,1377.24 2192.08,1375.07 2194.06,1362.2 2196.05,1345.74 2198.03,1324.34 2200.01,1299.96 2202,1267.63 2203.98,1238.42 2205.97,1208.23 2207.95,1179.48 2209.94,1157.38 2211.92,1145.24 2213.91,1132.42 2215.89,1122.96 2217.87,1121.41 2219.86,1124.72 2221.84,1130.41 2223.83,1138.34 2225.81,1141.44 2227.8,1145.1 2229.78,1150.72 2231.77,1163.1 2233.75,1172.9 2235.73,1177.48 2237.72,1180.9 2239.7,1185.66 2241.69,1193.56 2243.67,1201.3 2245.66,1210.51 2247.64,1220.94 2249.63,1230.89 2251.61,1233.26 2253.59,1225.15 2255.58,1216.99 2257.56,1205.4 2259.55,1193.29 2261.53,1177.91 2263.52,1163.51 2265.5,1150.39 2267.49,1141.96 2269.47,1136.47 2271.45,1138.43 2273.44,1139.72 2275.42,1145.37 2277.41,1150.63 2279.39,1155.82 2281.38,1163.85 2283.36,1173.04 2285.35,1182.28 2287.33,1186.49 2289.31,1192.11 2291.3,1196.01 2293.28,1200.57 "/>
<path clip-path="url(#clip270)" d="M1738.01 248.629 L2282.71 248.629 L2282.71 93.1086 L1738.01 93.1086  Z" fill="#ffffff" fill-rule="evenodd" fill-opacity="1"/>
<polyline clip-path="url(#clip270)" style="stroke:#000000; stroke-linecap:round; stroke-linejoin:round; stroke-width:4; stroke-opacity:1; fill:none" points="1738.01,248.629 2282.71,248.629 2282.71,93.1086 1738.01,93.1086 1738.01,248.629 "/>
<polyline clip-path="url(#clip270)" style="stroke:#009af9; stroke-linecap:round; stroke-linejoin:round; stroke-width:4; stroke-opacity:1; fill:none" points="1761.36,144.949 1901.45,144.949 "/>
<path clip-path="url(#clip270)" d="M1929.48 145.724 L1929.48 158.386 L1936.98 158.386 Q1940.75 158.386 1942.56 156.835 Q1944.39 155.261 1944.39 152.043 Q1944.39 148.803 1942.56 147.275 Q1940.75 145.724 1936.98 145.724 L1929.48 145.724 M1929.48 131.511 L1929.48 141.928 L1936.4 141.928 Q1939.83 141.928 1941.49 140.655 Q1943.18 139.358 1943.18 136.719 Q1943.18 134.104 1941.49 132.807 Q1939.83 131.511 1936.4 131.511 L1929.48 131.511 M1924.8 127.669 L1936.75 127.669 Q1942.09 127.669 1944.99 129.891 Q1947.88 132.113 1947.88 136.21 Q1947.88 139.382 1946.4 141.257 Q1944.92 143.131 1942.05 143.594 Q1945.5 144.335 1947.4 146.696 Q1949.32 149.034 1949.32 152.553 Q1949.32 157.182 1946.17 159.705 Q1943.02 162.229 1937.21 162.229 L1924.8 162.229 L1924.8 127.669 Z" fill="#000000" fill-rule="nonzero" fill-opacity="1" /><path clip-path="url(#clip270)" d="M1962 145.724 L1962 158.386 L1969.5 158.386 Q1973.27 158.386 1975.08 156.835 Q1976.91 155.261 1976.91 152.043 Q1976.91 148.803 1975.08 147.275 Q1973.27 145.724 1969.5 145.724 L1962 145.724 M1962 131.511 L1962 141.928 L1968.92 141.928 Q1972.35 141.928 1974.02 140.655 Q1975.71 139.358 1975.71 136.719 Q1975.71 134.104 1974.02 132.807 Q1972.35 131.511 1968.92 131.511 L1962 131.511 M1957.33 127.669 L1969.27 127.669 Q1974.62 127.669 1977.51 129.891 Q1980.4 132.113 1980.4 136.21 Q1980.4 139.382 1978.92 141.257 Q1977.44 143.131 1974.57 143.594 Q1978.02 144.335 1979.92 146.696 Q1981.84 149.034 1981.84 152.553 Q1981.84 157.182 1978.69 159.705 Q1975.54 162.229 1969.73 162.229 L1957.33 162.229 L1957.33 127.669 Z" fill="#000000" fill-rule="nonzero" fill-opacity="1" /><path clip-path="url(#clip270)" d="M1997.3 162.229 L1984.11 127.669 L1988.99 127.669 L1999.94 156.766 L2010.91 127.669 L2015.77 127.669 L2002.6 162.229 L1997.3 162.229 Z" fill="#000000" fill-rule="nonzero" fill-opacity="1" /><path clip-path="url(#clip270)" d="M2020.82 127.669 L2025.5 127.669 L2025.5 162.229 L2020.82 162.229 L2020.82 127.669 Z" fill="#000000" fill-rule="nonzero" fill-opacity="1" /><path clip-path="url(#clip270)" d="M2075.75 130.331 L2075.75 135.261 Q2073.39 133.062 2070.7 131.974 Q2068.04 130.886 2065.03 130.886 Q2059.11 130.886 2055.96 134.52 Q2052.81 138.132 2052.81 144.983 Q2052.81 151.812 2055.96 155.446 Q2059.11 159.057 2065.03 159.057 Q2068.04 159.057 2070.7 157.969 Q2073.39 156.881 2075.75 154.682 L2075.75 159.567 Q2073.3 161.233 2070.54 162.067 Q2067.81 162.9 2064.76 162.9 Q2056.91 162.9 2052.39 158.108 Q2047.88 153.293 2047.88 144.983 Q2047.88 136.65 2052.39 131.858 Q2056.91 127.044 2064.76 127.044 Q2067.86 127.044 2070.59 127.877 Q2073.34 128.687 2075.75 130.331 Z" fill="#000000" fill-rule="nonzero" fill-opacity="1" /><path clip-path="url(#clip270)" d="M2082.97 127.669 L2102.83 127.669 L2102.83 131.604 L2087.65 131.604 L2087.65 141.789 L2101.35 141.789 L2101.35 145.724 L2087.65 145.724 L2087.65 162.229 L2082.97 162.229 L2082.97 127.669 Z" fill="#000000" fill-rule="nonzero" fill-opacity="1" /><path clip-path="url(#clip270)" d="M2110.24 127.669 L2132.09 127.669 L2132.09 131.604 L2114.92 131.604 L2114.92 141.835 L2131.38 141.835 L2131.38 145.77 L2114.92 145.77 L2114.92 158.293 L2132.51 158.293 L2132.51 162.229 L2110.24 162.229 L2110.24 127.669 Z" fill="#000000" fill-rule="nonzero" fill-opacity="1" /><polyline clip-path="url(#clip270)" style="stroke:#e26f46; stroke-linecap:round; stroke-linejoin:round; stroke-width:4; stroke-opacity:1; fill:none" points="1761.36,196.789 1901.45,196.789 "/>
<path clip-path="url(#clip270)" d="M1929.48 197.564 L1929.48 210.226 L1936.98 210.226 Q1940.75 210.226 1942.56 208.675 Q1944.39 207.101 1944.39 203.883 Q1944.39 200.643 1942.56 199.115 Q1940.75 197.564 1936.98 197.564 L1929.48 197.564 M1929.48 183.351 L1929.48 193.768 L1936.4 193.768 Q1939.83 193.768 1941.49 192.495 Q1943.18 191.198 1943.18 188.559 Q1943.18 185.944 1941.49 184.647 Q1939.83 183.351 1936.4 183.351 L1929.48 183.351 M1924.8 179.509 L1936.75 179.509 Q1942.09 179.509 1944.99 181.731 Q1947.88 183.953 1947.88 188.05 Q1947.88 191.222 1946.4 193.097 Q1944.92 194.971 1942.05 195.434 Q1945.5 196.175 1947.4 198.536 Q1949.32 200.874 1949.32 204.393 Q1949.32 209.022 1946.17 211.545 Q1943.02 214.069 1937.21 214.069 L1924.8 214.069 L1924.8 179.509 Z" fill="#000000" fill-rule="nonzero" fill-opacity="1" /><path clip-path="url(#clip270)" d="M1962 197.564 L1962 210.226 L1969.5 210.226 Q1973.27 210.226 1975.08 208.675 Q1976.91 207.101 1976.91 203.883 Q1976.91 200.643 1975.08 199.115 Q1973.27 197.564 1969.5 197.564 L1962 197.564 M1962 183.351 L1962 193.768 L1968.92 193.768 Q1972.35 193.768 1974.02 192.495 Q1975.71 191.198 1975.71 188.559 Q1975.71 185.944 1974.02 184.647 Q1972.35 183.351 1968.92 183.351 L1962 183.351 M1957.33 179.509 L1969.27 179.509 Q1974.62 179.509 1977.51 181.731 Q1980.4 183.953 1980.4 188.05 Q1980.4 191.222 1978.92 193.097 Q1977.44 194.971 1974.57 195.434 Q1978.02 196.175 1979.92 198.536 Q1981.84 200.874 1981.84 204.393 Q1981.84 209.022 1978.69 211.545 Q1975.54 214.069 1969.73 214.069 L1957.33 214.069 L1957.33 179.509 Z" fill="#000000" fill-rule="nonzero" fill-opacity="1" /><path clip-path="url(#clip270)" d="M1997.3 214.069 L1984.11 179.509 L1988.99 179.509 L1999.94 208.606 L2010.91 179.509 L2015.77 179.509 L2002.6 214.069 L1997.3 214.069 Z" fill="#000000" fill-rule="nonzero" fill-opacity="1" /><path clip-path="url(#clip270)" d="M2020.82 179.509 L2025.5 179.509 L2025.5 214.069 L2020.82 214.069 L2020.82 179.509 Z" fill="#000000" fill-rule="nonzero" fill-opacity="1" /><path clip-path="url(#clip270)" d="M2075.75 182.171 L2075.75 187.101 Q2073.39 184.902 2070.7 183.814 Q2068.04 182.726 2065.03 182.726 Q2059.11 182.726 2055.96 186.36 Q2052.81 189.972 2052.81 196.823 Q2052.81 203.652 2055.96 207.286 Q2059.11 210.897 2065.03 210.897 Q2068.04 210.897 2070.7 209.809 Q2073.39 208.721 2075.75 206.522 L2075.75 211.407 Q2073.3 213.073 2070.54 213.907 Q2067.81 214.74 2064.76 214.74 Q2056.91 214.74 2052.39 209.948 Q2047.88 205.133 2047.88 196.823 Q2047.88 188.49 2052.39 183.698 Q2056.91 178.884 2064.76 178.884 Q2067.86 178.884 2070.59 179.717 Q2073.34 180.527 2075.75 182.171 Z" fill="#000000" fill-rule="nonzero" fill-opacity="1" /><path clip-path="url(#clip270)" d="M2082.97 179.509 L2102.83 179.509 L2102.83 183.444 L2087.65 183.444 L2087.65 193.629 L2101.35 193.629 L2101.35 197.564 L2087.65 197.564 L2087.65 214.069 L2082.97 214.069 L2082.97 179.509 Z" fill="#000000" fill-rule="nonzero" fill-opacity="1" /><path clip-path="url(#clip270)" d="M2110.24 179.509 L2132.09 179.509 L2132.09 183.444 L2114.92 183.444 L2114.92 193.675 L2131.38 193.675 L2131.38 197.61 L2114.92 197.61 L2114.92 210.133 L2132.51 210.133 L2132.51 214.069 L2110.24 214.069 L2110.24 179.509 Z" fill="#000000" fill-rule="nonzero" fill-opacity="1" /><path clip-path="url(#clip270)" d="M2169.29 182.68 Q2164.2 182.68 2161.19 186.476 Q2158.2 190.272 2158.2 196.823 Q2158.2 203.351 2161.19 207.147 Q2164.2 210.944 2169.29 210.944 Q2174.38 210.944 2177.35 207.147 Q2180.33 203.351 2180.33 196.823 Q2180.33 190.272 2177.35 186.476 Q2174.38 182.68 2169.29 182.68 M2175.84 213.444 L2182 220.18 L2176.35 220.18 L2171.24 214.647 Q2170.47 214.694 2170.06 214.717 Q2169.66 214.74 2169.29 214.74 Q2162 214.74 2157.63 209.879 Q2153.27 204.995 2153.27 196.823 Q2153.27 188.629 2157.63 183.768 Q2162 178.884 2169.29 178.884 Q2176.56 178.884 2180.91 183.768 Q2185.26 188.629 2185.26 196.823 Q2185.26 202.842 2182.83 207.124 Q2180.43 211.407 2175.84 213.444 Z" fill="#000000" fill-rule="nonzero" fill-opacity="1" /><path clip-path="url(#clip270)" d="M2192.58 179.509 L2199.55 179.509 L2208.37 203.027 L2217.23 179.509 L2224.2 179.509 L2224.2 214.069 L2219.64 214.069 L2219.64 183.722 L2210.73 207.425 L2206.03 207.425 L2197.12 183.722 L2197.12 214.069 L2192.58 214.069 L2192.58 179.509 Z" fill="#000000" fill-rule="nonzero" fill-opacity="1" /><path clip-path="url(#clip270)" d="M2259.36 182.171 L2259.36 187.101 Q2257 184.902 2254.31 183.814 Q2251.65 182.726 2248.64 182.726 Q2242.72 182.726 2239.57 186.36 Q2236.42 189.972 2236.42 196.823 Q2236.42 203.652 2239.57 207.286 Q2242.72 210.897 2248.64 210.897 Q2251.65 210.897 2254.31 209.809 Q2257 208.721 2259.36 206.522 L2259.36 211.407 Q2256.91 213.073 2254.15 213.907 Q2251.42 214.74 2248.37 214.74 Q2240.52 214.74 2236 209.948 Q2231.49 205.133 2231.49 196.823 Q2231.49 188.49 2236 183.698 Q2240.52 178.884 2248.37 178.884 Q2251.47 178.884 2254.2 179.717 Q2256.95 180.527 2259.36 182.171 Z" fill="#000000" fill-rule="nonzero" fill-opacity="1" /></svg>
