<?xml version="1.0" encoding="utf-8"?>
<svg xmlns="http://www.w3.org/2000/svg" xmlns:xlink="http://www.w3.org/1999/xlink" width="600" height="400" viewBox="0 0 2400 1600">
<defs>
  <clipPath id="clip780">
    <rect x="0" y="0" width="2400" height="1600"/>
  </clipPath>
</defs>
<path clip-path="url(#clip780)" d="M0 1600 L2400 1600 L2400 0 L0 0  Z" fill="#ffffff" fill-rule="evenodd" fill-opacity="1"/>
<defs>
  <clipPath id="clip781">
    <rect x="480" y="0" width="1681" height="1600"/>
  </clipPath>
</defs>
<path clip-path="url(#clip780)" d="M242.135 1423.18 L2352.76 1423.18 L2352.76 47.2441 L242.135 47.2441  Z" fill="#ffffff" fill-rule="evenodd" fill-opacity="1"/>
<defs>
  <clipPath id="clip782">
    <rect x="242" y="47" width="2112" height="1377"/>
  </clipPath>
</defs>
<polyline clip-path="url(#clip782)" style="stroke:#000000; stroke-linecap:round; stroke-linejoin:round; stroke-width:2; stroke-opacity:0.1; fill:none" points="301.205,1423.18 301.205,47.2441 "/>
<polyline clip-path="url(#clip782)" style="stroke:#000000; stroke-linecap:round; stroke-linejoin:round; stroke-width:2; stroke-opacity:0.1; fill:none" points="965.144,1423.18 965.144,47.2441 "/>
<polyline clip-path="url(#clip782)" style="stroke:#000000; stroke-linecap:round; stroke-linejoin:round; stroke-width:2; stroke-opacity:0.1; fill:none" points="1629.08,1423.18 1629.08,47.2441 "/>
<polyline clip-path="url(#clip782)" style="stroke:#000000; stroke-linecap:round; stroke-linejoin:round; stroke-width:2; stroke-opacity:0.1; fill:none" points="2293.02,1423.18 2293.02,47.2441 "/>
<polyline clip-path="url(#clip782)" style="stroke:#000000; stroke-linecap:round; stroke-linejoin:round; stroke-width:2; stroke-opacity:0.1; fill:none" points="242.135,1423.18 2352.76,1423.18 "/>
<polyline clip-path="url(#clip782)" style="stroke:#000000; stroke-linecap:round; stroke-linejoin:round; stroke-width:2; stroke-opacity:0.1; fill:none" points="242.135,1185.52 2352.76,1185.52 "/>
<polyline clip-path="url(#clip782)" style="stroke:#000000; stroke-linecap:round; stroke-linejoin:round; stroke-width:2; stroke-opacity:0.1; fill:none" points="242.135,947.854 2352.76,947.854 "/>
<polyline clip-path="url(#clip782)" style="stroke:#000000; stroke-linecap:round; stroke-linejoin:round; stroke-width:2; stroke-opacity:0.1; fill:none" points="242.135,710.191 2352.76,710.191 "/>
<polyline clip-path="url(#clip782)" style="stroke:#000000; stroke-linecap:round; stroke-linejoin:round; stroke-width:2; stroke-opacity:0.1; fill:none" points="242.135,472.527 2352.76,472.527 "/>
<polyline clip-path="url(#clip782)" style="stroke:#000000; stroke-linecap:round; stroke-linejoin:round; stroke-width:2; stroke-opacity:0.1; fill:none" points="242.135,234.864 2352.76,234.864 "/>
<polyline clip-path="url(#clip780)" style="stroke:#000000; stroke-linecap:round; stroke-linejoin:round; stroke-width:4; stroke-opacity:1; fill:none" points="242.135,1423.18 2352.76,1423.18 "/>
<polyline clip-path="url(#clip780)" style="stroke:#000000; stroke-linecap:round; stroke-linejoin:round; stroke-width:4; stroke-opacity:1; fill:none" points="301.205,1423.18 301.205,1404.28 "/>
<polyline clip-path="url(#clip780)" style="stroke:#000000; stroke-linecap:round; stroke-linejoin:round; stroke-width:4; stroke-opacity:1; fill:none" points="965.144,1423.18 965.144,1404.28 "/>
<polyline clip-path="url(#clip780)" style="stroke:#000000; stroke-linecap:round; stroke-linejoin:round; stroke-width:4; stroke-opacity:1; fill:none" points="1629.08,1423.18 1629.08,1404.28 "/>
<polyline clip-path="url(#clip780)" style="stroke:#000000; stroke-linecap:round; stroke-linejoin:round; stroke-width:4; stroke-opacity:1; fill:none" points="2293.02,1423.18 2293.02,1404.28 "/>
<path clip-path="url(#clip780)" d="M301.205 1454.1 Q297.594 1454.1 295.766 1457.66 Q293.96 1461.2 293.96 1468.33 Q293.96 1475.44 295.766 1479.01 Q297.594 1482.55 301.205 1482.55 Q304.84 1482.55 306.645 1479.01 Q308.474 1475.44 308.474 1468.33 Q308.474 1461.2 306.645 1457.66 Q304.84 1454.1 301.205 1454.1 M301.205 1450.39 Q307.015 1450.39 310.071 1455 Q313.15 1459.58 313.15 1468.33 Q313.15 1477.06 310.071 1481.67 Q307.015 1486.25 301.205 1486.25 Q295.395 1486.25 292.316 1481.67 Q289.261 1477.06 289.261 1468.33 Q289.261 1459.58 292.316 1455 Q295.395 1450.39 301.205 1450.39 Z" fill="#000000" fill-rule="nonzero" fill-opacity="1" /><path clip-path="url(#clip780)" d="M909.67 1481.64 L917.309 1481.64 L917.309 1455.28 L908.998 1456.95 L908.998 1452.69 L917.262 1451.02 L921.938 1451.02 L921.938 1481.64 L929.577 1481.64 L929.577 1485.58 L909.67 1485.58 L909.67 1481.64 Z" fill="#000000" fill-rule="nonzero" fill-opacity="1" /><path clip-path="url(#clip780)" d="M949.021 1454.1 Q945.41 1454.1 943.582 1457.66 Q941.776 1461.2 941.776 1468.33 Q941.776 1475.44 943.582 1479.01 Q945.41 1482.55 949.021 1482.55 Q952.656 1482.55 954.461 1479.01 Q956.29 1475.44 956.29 1468.33 Q956.29 1461.2 954.461 1457.66 Q952.656 1454.1 949.021 1454.1 M949.021 1450.39 Q954.832 1450.39 957.887 1455 Q960.966 1459.58 960.966 1468.33 Q960.966 1477.06 957.887 1481.67 Q954.832 1486.25 949.021 1486.25 Q943.211 1486.25 940.133 1481.67 Q937.077 1477.06 937.077 1468.33 Q937.077 1459.58 940.133 1455 Q943.211 1450.39 949.021 1450.39 Z" fill="#000000" fill-rule="nonzero" fill-opacity="1" /><path clip-path="url(#clip780)" d="M979.183 1454.1 Q975.572 1454.1 973.743 1457.66 Q971.938 1461.2 971.938 1468.33 Q971.938 1475.44 973.743 1479.01 Q975.572 1482.55 979.183 1482.55 Q982.817 1482.55 984.623 1479.01 Q986.452 1475.44 986.452 1468.33 Q986.452 1461.2 984.623 1457.66 Q982.817 1454.1 979.183 1454.1 M979.183 1450.39 Q984.993 1450.39 988.049 1455 Q991.128 1459.58 991.128 1468.33 Q991.128 1477.06 988.049 1481.67 Q984.993 1486.25 979.183 1486.25 Q973.373 1486.25 970.294 1481.67 Q967.239 1477.06 967.239 1468.33 Q967.239 1459.58 970.294 1455 Q973.373 1450.39 979.183 1450.39 Z" fill="#000000" fill-rule="nonzero" fill-opacity="1" /><path clip-path="url(#clip780)" d="M1009.35 1454.1 Q1005.73 1454.1 1003.91 1457.66 Q1002.1 1461.2 1002.1 1468.33 Q1002.1 1475.44 1003.91 1479.01 Q1005.73 1482.55 1009.35 1482.55 Q1012.98 1482.55 1014.78 1479.01 Q1016.61 1475.44 1016.61 1468.33 Q1016.61 1461.2 1014.78 1457.66 Q1012.98 1454.1 1009.35 1454.1 M1009.35 1450.39 Q1015.16 1450.39 1018.21 1455 Q1021.29 1459.58 1021.29 1468.33 Q1021.29 1477.06 1018.21 1481.67 Q1015.16 1486.25 1009.35 1486.25 Q1003.53 1486.25 1000.46 1481.67 Q997.401 1477.06 997.401 1468.33 Q997.401 1459.58 1000.46 1455 Q1003.53 1450.39 1009.35 1450.39 Z" fill="#000000" fill-rule="nonzero" fill-opacity="1" /><path clip-path="url(#clip780)" d="M1577.69 1481.64 L1594.01 1481.64 L1594.01 1485.58 L1572.07 1485.58 L1572.07 1481.64 Q1574.73 1478.89 1579.31 1474.26 Q1583.92 1469.61 1585.1 1468.27 Q1587.35 1465.74 1588.23 1464.01 Q1589.13 1462.25 1589.13 1460.56 Q1589.13 1457.8 1587.18 1456.07 Q1585.26 1454.33 1582.16 1454.33 Q1579.96 1454.33 1577.51 1455.09 Q1575.08 1455.86 1572.3 1457.41 L1572.3 1452.69 Q1575.12 1451.55 1577.58 1450.97 Q1580.03 1450.39 1582.07 1450.39 Q1587.44 1450.39 1590.63 1453.08 Q1593.83 1455.77 1593.83 1460.26 Q1593.83 1462.39 1593.02 1464.31 Q1592.23 1466.2 1590.12 1468.8 Q1589.55 1469.47 1586.44 1472.69 Q1583.34 1475.88 1577.69 1481.64 Z" fill="#000000" fill-rule="nonzero" fill-opacity="1" /><path clip-path="url(#clip780)" d="M1613.83 1454.1 Q1610.22 1454.1 1608.39 1457.66 Q1606.58 1461.2 1606.58 1468.33 Q1606.58 1475.44 1608.39 1479.01 Q1610.22 1482.55 1613.83 1482.55 Q1617.46 1482.55 1619.27 1479.01 Q1621.1 1475.44 1621.1 1468.33 Q1621.1 1461.2 1619.27 1457.66 Q1617.46 1454.1 1613.83 1454.1 M1613.83 1450.39 Q1619.64 1450.39 1622.69 1455 Q1625.77 1459.58 1625.77 1468.33 Q1625.77 1477.06 1622.69 1481.67 Q1619.64 1486.25 1613.83 1486.25 Q1608.02 1486.25 1604.94 1481.67 Q1601.88 1477.06 1601.88 1468.33 Q1601.88 1459.58 1604.94 1455 Q1608.02 1450.39 1613.83 1450.39 Z" fill="#000000" fill-rule="nonzero" fill-opacity="1" /><path clip-path="url(#clip780)" d="M1643.99 1454.1 Q1640.38 1454.1 1638.55 1457.66 Q1636.74 1461.2 1636.74 1468.33 Q1636.74 1475.44 1638.55 1479.01 Q1640.38 1482.55 1643.99 1482.55 Q1647.62 1482.55 1649.43 1479.01 Q1651.26 1475.44 1651.26 1468.33 Q1651.26 1461.2 1649.43 1457.66 Q1647.62 1454.1 1643.99 1454.1 M1643.99 1450.39 Q1649.8 1450.39 1652.86 1455 Q1655.93 1459.58 1655.93 1468.33 Q1655.93 1477.06 1652.86 1481.67 Q1649.8 1486.25 1643.99 1486.25 Q1638.18 1486.25 1635.1 1481.67 Q1632.05 1477.06 1632.05 1468.33 Q1632.05 1459.58 1635.1 1455 Q1638.18 1450.39 1643.99 1450.39 Z" fill="#000000" fill-rule="nonzero" fill-opacity="1" /><path clip-path="url(#clip780)" d="M1674.15 1454.1 Q1670.54 1454.1 1668.71 1457.66 Q1666.91 1461.2 1666.91 1468.33 Q1666.91 1475.44 1668.71 1479.01 Q1670.54 1482.55 1674.15 1482.55 Q1677.79 1482.55 1679.59 1479.01 Q1681.42 1475.44 1681.42 1468.33 Q1681.42 1461.2 1679.59 1457.66 Q1677.79 1454.1 1674.15 1454.1 M1674.15 1450.39 Q1679.96 1450.39 1683.02 1455 Q1686.1 1459.58 1686.1 1468.33 Q1686.1 1477.06 1683.02 1481.67 Q1679.96 1486.25 1674.15 1486.25 Q1668.34 1486.25 1665.26 1481.67 Q1662.21 1477.06 1662.21 1468.33 Q1662.21 1459.58 1665.26 1455 Q1668.34 1450.39 1674.15 1450.39 Z" fill="#000000" fill-rule="nonzero" fill-opacity="1" /><path clip-path="url(#clip780)" d="M2251.7 1466.95 Q2255.06 1467.66 2256.93 1469.93 Q2258.83 1472.2 2258.83 1475.53 Q2258.83 1480.65 2255.31 1483.45 Q2251.79 1486.25 2245.31 1486.25 Q2243.14 1486.25 2240.82 1485.81 Q2238.53 1485.39 2236.08 1484.54 L2236.08 1480.02 Q2238.02 1481.16 2240.34 1481.74 Q2242.65 1482.32 2245.17 1482.32 Q2249.57 1482.32 2251.86 1480.58 Q2254.18 1478.84 2254.18 1475.53 Q2254.18 1472.48 2252.03 1470.77 Q2249.9 1469.03 2246.08 1469.03 L2242.05 1469.03 L2242.05 1465.19 L2246.26 1465.19 Q2249.71 1465.19 2251.54 1463.82 Q2253.37 1462.43 2253.37 1459.84 Q2253.37 1457.18 2251.47 1455.77 Q2249.6 1454.33 2246.08 1454.33 Q2244.16 1454.33 2241.96 1454.75 Q2239.76 1455.16 2237.12 1456.04 L2237.12 1451.88 Q2239.78 1451.14 2242.1 1450.77 Q2244.43 1450.39 2246.49 1450.39 Q2251.82 1450.39 2254.92 1452.83 Q2258.02 1455.23 2258.02 1459.35 Q2258.02 1462.22 2256.38 1464.21 Q2254.73 1466.18 2251.7 1466.95 Z" fill="#000000" fill-rule="nonzero" fill-opacity="1" /><path clip-path="url(#clip780)" d="M2277.7 1454.1 Q2274.09 1454.1 2272.26 1457.66 Q2270.45 1461.2 2270.45 1468.33 Q2270.45 1475.44 2272.26 1479.01 Q2274.09 1482.55 2277.7 1482.55 Q2281.33 1482.55 2283.14 1479.01 Q2284.97 1475.44 2284.97 1468.33 Q2284.97 1461.2 2283.14 1457.66 Q2281.33 1454.1 2277.7 1454.1 M2277.7 1450.39 Q2283.51 1450.39 2286.56 1455 Q2289.64 1459.58 2289.64 1468.33 Q2289.64 1477.06 2286.56 1481.67 Q2283.51 1486.25 2277.7 1486.25 Q2271.89 1486.25 2268.81 1481.67 Q2265.75 1477.06 2265.75 1468.33 Q2265.75 1459.58 2268.81 1455 Q2271.89 1450.39 2277.7 1450.39 Z" fill="#000000" fill-rule="nonzero" fill-opacity="1" /><path clip-path="url(#clip780)" d="M2307.86 1454.1 Q2304.25 1454.1 2302.42 1457.66 Q2300.61 1461.2 2300.61 1468.33 Q2300.61 1475.44 2302.42 1479.01 Q2304.25 1482.55 2307.86 1482.55 Q2311.49 1482.55 2313.3 1479.01 Q2315.13 1475.44 2315.13 1468.33 Q2315.13 1461.2 2313.3 1457.66 Q2311.49 1454.1 2307.86 1454.1 M2307.86 1450.39 Q2313.67 1450.39 2316.72 1455 Q2319.8 1459.58 2319.8 1468.33 Q2319.8 1477.06 2316.72 1481.67 Q2313.67 1486.25 2307.86 1486.25 Q2302.05 1486.25 2298.97 1481.67 Q2295.91 1477.06 2295.91 1468.33 Q2295.91 1459.58 2298.97 1455 Q2302.05 1450.39 2307.86 1450.39 Z" fill="#000000" fill-rule="nonzero" fill-opacity="1" /><path clip-path="url(#clip780)" d="M2338.02 1454.1 Q2334.41 1454.1 2332.58 1457.66 Q2330.78 1461.2 2330.78 1468.33 Q2330.78 1475.44 2332.58 1479.01 Q2334.41 1482.55 2338.02 1482.55 Q2341.66 1482.55 2343.46 1479.01 Q2345.29 1475.44 2345.29 1468.33 Q2345.29 1461.2 2343.46 1457.66 Q2341.66 1454.1 2338.02 1454.1 M2338.02 1450.39 Q2343.83 1450.39 2346.89 1455 Q2349.97 1459.58 2349.97 1468.33 Q2349.97 1477.06 2346.89 1481.67 Q2343.83 1486.25 2338.02 1486.25 Q2332.21 1486.25 2329.13 1481.67 Q2326.08 1477.06 2326.08 1468.33 Q2326.08 1459.58 2329.13 1455 Q2332.21 1450.39 2338.02 1450.39 Z" fill="#000000" fill-rule="nonzero" fill-opacity="1" /><path clip-path="url(#clip780)" d="M1165.17 1520.52 L1171.6 1520.52 L1171.6 1568.04 L1165.17 1568.04 L1165.17 1520.52 Z" fill="#000000" fill-rule="nonzero" fill-opacity="1" /><path clip-path="url(#clip780)" d="M1189.93 1522.27 L1189.93 1532.4 L1201.99 1532.4 L1201.99 1536.95 L1189.93 1536.95 L1189.93 1556.3 Q1189.93 1560.66 1191.11 1561.9 Q1192.32 1563.14 1195.98 1563.14 L1201.99 1563.14 L1201.99 1568.04 L1195.98 1568.04 Q1189.2 1568.04 1186.62 1565.53 Q1184.04 1562.98 1184.04 1556.3 L1184.04 1536.95 L1179.74 1536.95 L1179.74 1532.4 L1184.04 1532.4 L1184.04 1522.27 L1189.93 1522.27 Z" fill="#000000" fill-rule="nonzero" fill-opacity="1" /><path clip-path="url(#clip780)" d="M1240.19 1548.76 L1240.19 1551.62 L1213.26 1551.62 Q1213.64 1557.67 1216.89 1560.85 Q1220.17 1564 1225.99 1564 Q1229.36 1564 1232.52 1563.17 Q1235.7 1562.35 1238.82 1560.69 L1238.82 1566.23 Q1235.67 1567.57 1232.36 1568.27 Q1229.05 1568.97 1225.64 1568.97 Q1217.11 1568.97 1212.11 1564 Q1207.15 1559.04 1207.15 1550.57 Q1207.15 1541.82 1211.86 1536.69 Q1216.6 1531.54 1224.62 1531.54 Q1231.81 1531.54 1235.98 1536.18 Q1240.19 1540.8 1240.19 1548.76 M1234.33 1547.04 Q1234.27 1542.23 1231.62 1539.37 Q1229.01 1536.5 1224.69 1536.5 Q1219.78 1536.5 1216.82 1539.27 Q1213.9 1542.04 1213.45 1547.07 L1234.33 1547.04 Z" fill="#000000" fill-rule="nonzero" fill-opacity="1" /><path clip-path="url(#clip780)" d="M1270.45 1537.87 Q1269.47 1537.3 1268.29 1537.04 Q1267.14 1536.76 1265.74 1536.76 Q1260.78 1536.76 1258.11 1540 Q1255.46 1543.22 1255.46 1549.27 L1255.46 1568.04 L1249.58 1568.04 L1249.58 1532.4 L1255.46 1532.4 L1255.46 1537.93 Q1257.31 1534.69 1260.27 1533.13 Q1263.23 1531.54 1267.46 1531.54 Q1268.07 1531.54 1268.8 1531.63 Q1269.53 1531.7 1270.42 1531.85 L1270.45 1537.87 Z" fill="#000000" fill-rule="nonzero" fill-opacity="1" /><path clip-path="url(#clip780)" d="M1292.8 1550.12 Q1285.7 1550.12 1282.96 1551.75 Q1280.23 1553.37 1280.23 1557.29 Q1280.23 1560.4 1282.26 1562.25 Q1284.33 1564.07 1287.86 1564.07 Q1292.73 1564.07 1295.66 1560.63 Q1298.62 1557.16 1298.62 1551.43 L1298.62 1550.12 L1292.8 1550.12 M1304.48 1547.71 L1304.48 1568.04 L1298.62 1568.04 L1298.62 1562.63 Q1296.62 1565.88 1293.63 1567.44 Q1290.63 1568.97 1286.31 1568.97 Q1280.83 1568.97 1277.58 1565.91 Q1274.37 1562.82 1274.37 1557.67 Q1274.37 1551.65 1278.38 1548.6 Q1282.42 1545.54 1290.41 1545.54 L1298.62 1545.54 L1298.62 1544.97 Q1298.62 1540.93 1295.95 1538.73 Q1293.31 1536.5 1288.5 1536.5 Q1285.45 1536.5 1282.55 1537.23 Q1279.65 1537.97 1276.98 1539.43 L1276.98 1534.02 Q1280.19 1532.78 1283.22 1532.17 Q1286.24 1531.54 1289.11 1531.54 Q1296.84 1531.54 1300.66 1535.55 Q1304.48 1539.56 1304.48 1547.71 Z" fill="#000000" fill-rule="nonzero" fill-opacity="1" /><path clip-path="url(#clip780)" d="M1322.34 1522.27 L1322.34 1532.4 L1334.4 1532.4 L1334.4 1536.95 L1322.34 1536.95 L1322.34 1556.3 Q1322.34 1560.66 1323.51 1561.9 Q1324.72 1563.14 1328.38 1563.14 L1334.4 1563.14 L1334.4 1568.04 L1328.38 1568.04 Q1321.6 1568.04 1319.03 1565.53 Q1316.45 1562.98 1316.45 1556.3 L1316.45 1536.95 L1312.15 1536.95 L1312.15 1532.4 L1316.45 1532.4 L1316.45 1522.27 L1322.34 1522.27 Z" fill="#000000" fill-rule="nonzero" fill-opacity="1" /><path clip-path="url(#clip780)" d="M1342.1 1532.4 L1347.96 1532.4 L1347.96 1568.04 L1342.1 1568.04 L1342.1 1532.4 M1342.1 1518.52 L1347.96 1518.52 L1347.96 1525.93 L1342.1 1525.93 L1342.1 1518.52 Z" fill="#000000" fill-rule="nonzero" fill-opacity="1" /><path clip-path="url(#clip780)" d="M1374.02 1536.5 Q1369.31 1536.5 1366.58 1540.19 Q1363.84 1543.85 1363.84 1550.25 Q1363.84 1556.65 1366.55 1560.34 Q1369.28 1564 1374.02 1564 Q1378.7 1564 1381.44 1560.31 Q1384.18 1556.62 1384.18 1550.25 Q1384.18 1543.92 1381.44 1540.23 Q1378.7 1536.5 1374.02 1536.5 M1374.02 1531.54 Q1381.66 1531.54 1386.02 1536.5 Q1390.38 1541.47 1390.38 1550.25 Q1390.38 1559 1386.02 1564 Q1381.66 1568.97 1374.02 1568.97 Q1366.35 1568.97 1361.99 1564 Q1357.66 1559 1357.66 1550.25 Q1357.66 1541.47 1361.99 1536.5 Q1366.35 1531.54 1374.02 1531.54 Z" fill="#000000" fill-rule="nonzero" fill-opacity="1" /><path clip-path="url(#clip780)" d="M1429.72 1546.53 L1429.72 1568.04 L1423.87 1568.04 L1423.87 1546.72 Q1423.87 1541.66 1421.89 1539.14 Q1419.92 1536.63 1415.97 1536.63 Q1411.23 1536.63 1408.5 1539.65 Q1405.76 1542.68 1405.76 1547.9 L1405.76 1568.04 L1399.87 1568.04 L1399.87 1532.4 L1405.76 1532.4 L1405.76 1537.93 Q1407.86 1534.72 1410.69 1533.13 Q1413.56 1531.54 1417.28 1531.54 Q1423.42 1531.54 1426.57 1535.36 Q1429.72 1539.14 1429.72 1546.53 Z" fill="#000000" fill-rule="nonzero" fill-opacity="1" /><polyline clip-path="url(#clip780)" style="stroke:#000000; stroke-linecap:round; stroke-linejoin:round; stroke-width:4; stroke-opacity:1; fill:none" points="242.135,1423.18 242.135,47.2441 "/>
<polyline clip-path="url(#clip780)" style="stroke:#000000; stroke-linecap:round; stroke-linejoin:round; stroke-width:4; stroke-opacity:1; fill:none" points="242.135,1423.18 261.032,1423.18 "/>
<polyline clip-path="url(#clip780)" style="stroke:#000000; stroke-linecap:round; stroke-linejoin:round; stroke-width:4; stroke-opacity:1; fill:none" points="242.135,1185.52 261.032,1185.52 "/>
<polyline clip-path="url(#clip780)" style="stroke:#000000; stroke-linecap:round; stroke-linejoin:round; stroke-width:4; stroke-opacity:1; fill:none" points="242.135,947.854 261.032,947.854 "/>
<polyline clip-path="url(#clip780)" style="stroke:#000000; stroke-linecap:round; stroke-linejoin:round; stroke-width:4; stroke-opacity:1; fill:none" points="242.135,710.191 261.032,710.191 "/>
<polyline clip-path="url(#clip780)" style="stroke:#000000; stroke-linecap:round; stroke-linejoin:round; stroke-width:4; stroke-opacity:1; fill:none" points="242.135,472.527 261.032,472.527 "/>
<polyline clip-path="url(#clip780)" style="stroke:#000000; stroke-linecap:round; stroke-linejoin:round; stroke-width:4; stroke-opacity:1; fill:none" points="242.135,234.864 261.032,234.864 "/>
<path clip-path="url(#clip780)" d="M114.26 1423.63 L143.936 1423.63 L143.936 1427.57 L114.26 1427.57 L114.26 1423.63 Z" fill="#000000" fill-rule="nonzero" fill-opacity="1" /><path clip-path="url(#clip780)" d="M154.839 1436.52 L162.477 1436.52 L162.477 1410.16 L154.167 1411.83 L154.167 1407.57 L162.431 1405.9 L167.107 1405.9 L167.107 1436.52 L174.746 1436.52 L174.746 1440.46 L154.839 1440.46 L154.839 1436.52 Z" fill="#000000" fill-rule="nonzero" fill-opacity="1" /><path clip-path="url(#clip780)" d="M194.19 1408.98 Q190.579 1408.98 188.75 1412.54 Q186.945 1416.08 186.945 1423.21 Q186.945 1430.32 188.75 1433.89 Q190.579 1437.43 194.19 1437.43 Q197.825 1437.43 199.63 1433.89 Q201.459 1430.32 201.459 1423.21 Q201.459 1416.08 199.63 1412.54 Q197.825 1408.98 194.19 1408.98 M194.19 1405.27 Q200 1405.27 203.056 1409.88 Q206.135 1414.46 206.135 1423.21 Q206.135 1431.94 203.056 1436.55 Q200 1441.13 194.19 1441.13 Q188.38 1441.13 185.301 1436.55 Q182.246 1431.94 182.246 1423.21 Q182.246 1414.46 185.301 1409.88 Q188.38 1405.27 194.19 1405.27 Z" fill="#000000" fill-rule="nonzero" fill-opacity="1" /><path clip-path="url(#clip780)" d="M144.607 1185.97 L174.283 1185.97 L174.283 1189.9 L144.607 1189.9 L144.607 1185.97 Z" fill="#000000" fill-rule="nonzero" fill-opacity="1" /><path clip-path="url(#clip780)" d="M184.514 1202.08 L184.514 1197.82 Q186.274 1198.65 188.079 1199.09 Q189.885 1199.53 191.621 1199.53 Q196.25 1199.53 198.681 1196.43 Q201.135 1193.31 201.482 1186.96 Q200.139 1188.95 198.079 1190.02 Q196.019 1191.08 193.519 1191.08 Q188.334 1191.08 185.301 1187.96 Q182.292 1184.81 182.292 1179.37 Q182.292 1174.05 185.44 1170.83 Q188.588 1167.61 193.82 1167.61 Q199.815 1167.61 202.963 1172.22 Q206.135 1176.8 206.135 1185.55 Q206.135 1193.72 202.246 1198.61 Q198.38 1203.47 191.829 1203.47 Q190.07 1203.47 188.264 1203.12 Q186.459 1202.77 184.514 1202.08 M193.82 1187.43 Q196.968 1187.43 198.797 1185.27 Q200.649 1183.12 200.649 1179.37 Q200.649 1175.64 198.797 1173.49 Q196.968 1171.32 193.82 1171.32 Q190.672 1171.32 188.82 1173.49 Q186.991 1175.64 186.991 1179.37 Q186.991 1183.12 188.82 1185.27 Q190.672 1187.43 193.82 1187.43 Z" fill="#000000" fill-rule="nonzero" fill-opacity="1" /><path clip-path="url(#clip780)" d="M144.515 948.305 L174.19 948.305 L174.19 952.24 L144.515 952.24 L144.515 948.305 Z" fill="#000000" fill-rule="nonzero" fill-opacity="1" /><path clip-path="url(#clip780)" d="M194.283 948.722 Q190.95 948.722 189.028 950.504 Q187.13 952.287 187.13 955.412 Q187.13 958.536 189.028 960.319 Q190.95 962.101 194.283 962.101 Q197.616 962.101 199.537 960.319 Q201.459 958.513 201.459 955.412 Q201.459 952.287 199.537 950.504 Q197.639 948.722 194.283 948.722 M189.607 946.731 Q186.598 945.99 184.908 943.93 Q183.241 941.87 183.241 938.907 Q183.241 934.763 186.181 932.356 Q189.144 929.949 194.283 929.949 Q199.445 929.949 202.385 932.356 Q205.324 934.763 205.324 938.907 Q205.324 941.87 203.635 943.93 Q201.968 945.99 198.982 946.731 Q202.362 947.518 204.237 949.81 Q206.135 952.101 206.135 955.412 Q206.135 960.435 203.056 963.12 Q200 965.805 194.283 965.805 Q188.565 965.805 185.487 963.12 Q182.431 960.435 182.431 955.412 Q182.431 952.101 184.329 949.81 Q186.227 947.518 189.607 946.731 M187.894 939.347 Q187.894 942.032 189.561 943.537 Q191.25 945.041 194.283 945.041 Q197.292 945.041 198.982 943.537 Q200.695 942.032 200.695 939.347 Q200.695 936.662 198.982 935.157 Q197.292 933.652 194.283 933.652 Q191.25 933.652 189.561 935.157 Q187.894 936.662 187.894 939.347 Z" fill="#000000" fill-rule="nonzero" fill-opacity="1" /><path clip-path="url(#clip780)" d="M145.325 710.642 L175.001 710.642 L175.001 714.577 L145.325 714.577 L145.325 710.642 Z" fill="#000000" fill-rule="nonzero" fill-opacity="1" /><path clip-path="url(#clip780)" d="M183.913 692.911 L206.135 692.911 L206.135 694.901 L193.588 727.471 L188.704 727.471 L200.51 696.846 L183.913 696.846 L183.913 692.911 Z" fill="#000000" fill-rule="nonzero" fill-opacity="1" /><path clip-path="url(#clip780)" d="M144.26 472.979 L173.936 472.979 L173.936 476.914 L144.26 476.914 L144.26 472.979 Z" fill="#000000" fill-rule="nonzero" fill-opacity="1" /><path clip-path="url(#clip780)" d="M194.607 470.664 Q191.459 470.664 189.607 472.817 Q187.778 474.97 187.778 478.72 Q187.778 482.446 189.607 484.622 Q191.459 486.775 194.607 486.775 Q197.755 486.775 199.584 484.622 Q201.436 482.446 201.436 478.72 Q201.436 474.97 199.584 472.817 Q197.755 470.664 194.607 470.664 M203.889 456.011 L203.889 460.271 Q202.13 459.437 200.325 458.997 Q198.542 458.558 196.783 458.558 Q192.153 458.558 189.7 461.683 Q187.269 464.808 186.922 471.127 Q188.288 469.113 190.348 468.048 Q192.408 466.96 194.885 466.96 Q200.093 466.96 203.102 470.132 Q206.135 473.28 206.135 478.72 Q206.135 484.044 202.987 487.261 Q199.838 490.479 194.607 490.479 Q188.612 490.479 185.44 485.895 Q182.269 481.289 182.269 472.562 Q182.269 464.368 186.158 459.507 Q190.047 454.623 196.598 454.623 Q198.357 454.623 200.139 454.97 Q201.945 455.317 203.889 456.011 Z" fill="#000000" fill-rule="nonzero" fill-opacity="1" /><path clip-path="url(#clip780)" d="M145.417 235.316 L175.093 235.316 L175.093 239.251 L145.417 239.251 L145.417 235.316 Z" fill="#000000" fill-rule="nonzero" fill-opacity="1" /><path clip-path="url(#clip780)" d="M185.232 217.584 L203.588 217.584 L203.588 221.52 L189.514 221.52 L189.514 229.992 Q190.533 229.645 191.551 229.482 Q192.57 229.297 193.588 229.297 Q199.375 229.297 202.755 232.469 Q206.135 235.64 206.135 241.057 Q206.135 246.635 202.662 249.737 Q199.19 252.816 192.871 252.816 Q190.695 252.816 188.426 252.445 Q186.181 252.075 183.774 251.334 L183.774 246.635 Q185.857 247.769 188.079 248.325 Q190.301 248.881 192.778 248.881 Q196.783 248.881 199.121 246.774 Q201.459 244.668 201.459 241.057 Q201.459 237.445 199.121 235.339 Q196.783 233.232 192.778 233.232 Q190.903 233.232 189.028 233.649 Q187.176 234.066 185.232 234.945 L185.232 217.584 Z" fill="#000000" fill-rule="nonzero" fill-opacity="1" /><path clip-path="url(#clip780)" d="M16.4842 816.375 L16.4842 786.329 L21.895 786.329 L21.895 809.945 L35.9632 809.945 L35.9632 787.315 L41.3741 787.315 L41.3741 809.945 L58.5933 809.945 L58.5933 785.756 L64.0042 785.756 L64.0042 816.375 L16.4842 816.375 Z" fill="#000000" fill-rule="nonzero" fill-opacity="1" /><path clip-path="url(#clip780)" d="M16.4842 775.189 L16.4842 768.759 L58.5933 768.759 L58.5933 745.62 L64.0042 745.62 L64.0042 775.189 L16.4842 775.189 Z" fill="#000000" fill-rule="nonzero" fill-opacity="1" /><path clip-path="url(#clip780)" d="M41.3104 732.443 L58.7206 732.443 L58.7206 722.13 Q58.7206 716.942 56.5881 714.46 Q54.4238 711.945 49.9996 711.945 Q45.5436 711.945 43.4429 714.46 Q41.3104 716.942 41.3104 722.13 L41.3104 732.443 M21.7677 732.443 L36.0905 732.443 L36.0905 722.926 Q36.0905 718.216 34.34 715.924 Q32.5576 713.6 28.9291 713.6 Q25.3325 713.6 23.5501 715.924 Q21.7677 718.216 21.7677 722.926 L21.7677 732.443 M16.4842 738.872 L16.4842 722.449 Q16.4842 715.096 19.5397 711.118 Q22.5952 707.139 28.2289 707.139 Q32.5894 707.139 35.1675 709.176 Q37.7456 711.213 38.3822 715.16 Q39.4007 710.418 42.6472 707.808 Q45.8619 705.166 50.6998 705.166 Q57.0655 705.166 60.5348 709.495 Q64.0042 713.823 64.0042 721.812 L64.0042 738.872 L16.4842 738.872 Z" fill="#000000" fill-rule="nonzero" fill-opacity="1" /><path clip-path="url(#clip780)" d="M20.8447 676.011 Q20.8447 683.013 26.0645 687.151 Q31.2844 691.257 40.2919 691.257 Q49.2675 691.257 54.4874 687.151 Q59.7073 683.013 59.7073 676.011 Q59.7073 669.009 54.4874 664.935 Q49.2675 660.829 40.2919 660.829 Q31.2844 660.829 26.0645 664.935 Q20.8447 669.009 20.8447 676.011 M15.6248 676.011 Q15.6248 666.017 22.3406 660.033 Q29.0246 654.049 40.2919 654.049 Q51.5274 654.049 58.2432 660.033 Q64.9272 666.017 64.9272 676.011 Q64.9272 686.037 58.2432 692.052 Q51.5592 698.036 40.2919 698.036 Q29.0246 698.036 22.3406 692.052 Q15.6248 686.037 15.6248 676.011 Z" fill="#000000" fill-rule="nonzero" fill-opacity="1" /><polyline clip-path="url(#clip782)" style="stroke:#009af9; stroke-linecap:round; stroke-linejoin:round; stroke-width:4; stroke-opacity:1; fill:none" points="301.869,223815 302.533,1889.98 303.197,780.171 303.861,614.362 304.525,687.687 305.189,954.513 305.853,756.796 306.517,514.737 307.181,417.098 307.845,817.627 308.509,3226.54 309.173,22280.5 309.836,5030.24 310.5,927.429 311.164,739.349 311.828,1042.28 312.492,752.49 313.156,867.057 313.82,470.544 314.484,817.815 315.148,813.304 315.812,793.721 316.476,610.172 317.14,780.129 317.804,2277.7 318.468,605.577 319.132,915.914 319.796,417.081 320.46,2656.06 321.123,652.391 321.787,763.002 322.451,941.292 323.115,11051.8 323.779,242585 324.443,1432.56 325.107,1028.42 325.771,2284.14 326.435,848.327 327.099,445.033 327.763,660.922 328.427,842.823 329.091,791.846 329.755,955.903 330.419,675.503 331.083,318.272 331.746,956.613 332.41,866.493 333.074,743.301 333.738,517.113 334.402,502.315 335.066,637.33 335.73,1051.99 336.394,467.026 337.058,703.002 337.722,915.302 338.386,575.685 339.05,848.172 339.714,925.795 340.378,964.199 341.042,777.734 341.706,1401.02 342.369,569114 343.033,551.165 343.697,789.17 344.361,19277.8 345.025,653.672 345.689,822.731 346.353,7792.38 347.017,8494.18 347.681,1298.36 348.345,841.594 349.009,654.871 349.673,673.298 350.337,125737 351.001,611.919 351.665,803.644 352.329,586.578 352.993,718.795 353.656,749.514 354.32,900.537 354.984,865.628 355.648,692.369 356.312,1.49724e+06 356.976,762.285 357.64,7966.46 358.304,1105.5 358.968,5471.37 359.632,892.213 360.296,1200.68 360.96,668.453 361.624,1.04474e+06 362.288,537.756 362.952,11229.9 363.616,644.569 364.279,410.933 364.943,1064.73 365.607,965.664 366.271,5927.44 366.935,3743.72 367.599,22865.9 368.263,662.709 368.927,56662.5 369.591,1016.66 370.255,733.564 370.919,833.906 371.583,723.408 372.247,578.918 372.911,553.028 373.575,257.093 374.239,508.646 374.902,660.345 375.566,669.936 376.23,648.963 376.894,1243.64 377.558,609.57 378.222,980.088 378.886,4246.93 379.55,676.258 380.214,52476.9 380.878,600.237 381.542,813.835 382.206,714.703 382.87,759.497 383.534,497.01 384.198,900.571 384.862,606.429 385.526,757.693 386.189,698.056 386.853,498.698 387.517,1228.02 388.181,846.011 388.845,1075.75 389.509,663.644 390.173,646.437 390.837,1.67396e+06 391.501,820.141 392.165,793.626 392.829,65576.9 393.493,854.98 394.157,664.985 394.821,1151.85 395.485,657.451 396.149,11037.9 396.812,500481 397.476,730.853 398.14,765.652 398.804,719.219 399.468,1350.68 400.132,99276.7 400.796,819.074 401.46,897.609 402.124,430.581 402.788,715.907 403.452,649.662 404.116,791.528 404.78,717.041 405.444,659.48 406.108,500.161 406.772,629.942 407.435,844.653 408.099,823.504 408.763,597.22 409.427,1474.77 410.091,222.09 410.755,802.217 411.419,36294.7 412.083,23507.1 412.747,826.742 413.411,1059.91 414.075,497.463 414.739,953.324 415.403,629.064 416.067,668.855 416.731,392.078 417.395,586.377 418.058,435.576 418.722,950.733 419.386,511.441 420.05,493.947 420.714,1188.48 421.378,603.891 422.042,1261.01 422.706,7447.55 423.37,776.063 424.034,561.11 424.698,859.516 425.362,2005.72 426.026,7295.31 426.69,1064.36 427.354,889.42 428.018,578.984 428.682,1182.89 429.345,4806.67 430.009,1021.05 430.673,49417.4 431.337,570.996 432.001,1246.46 432.665,647.441 433.329,1.73704e+06 433.993,940.461 434.657,732.38 435.321,1001.9 435.985,909.877 436.649,413.102 437.313,422.126 437.977,973.832 438.641,1545.57 439.305,871.416 439.968,3993.41 440.632,1545.52 441.296,13626.1 441.96,879.586 442.624,207.192 443.288,781.161 443.952,831.088 444.616,999.849 445.28,34973.5 445.944,858.696 446.608,470.916 447.272,668.149 447.936,930.025 448.6,32657.9 449.264,812.555 449.928,1860.48 450.591,2063.43 451.255,1453.64 451.919,1226.17 452.583,505.612 453.247,641.685 453.911,1106.37 454.575,453.909 455.239,754.567 455.903,9439.67 456.567,545.377 457.231,536.16 457.895,358.8 458.559,835.869 459.223,774.141 459.887,993.419 460.551,854.283 461.215,688.806 461.878,224.999 462.542,626.112 463.206,841.994 463.87,874.64 464.534,1787.42 465.198,14982.4 465.862,218138 466.526,581.837 467.19,762.977 467.854,888.794 468.518,755.158 469.182,4546.72 469.846,1390.2 470.51,651.379 471.174,63502.9 471.838,654.403 472.501,418.389 473.165,28914.5 473.829,1114.87 474.493,702.808 475.157,871.254 475.821,761.506 476.485,890.023 477.149,714.243 477.813,774.756 478.477,1588.36 479.141,568.136 479.805,668.006 480.469,812.319 481.133,2837.64 481.797,2034.58 482.461,200763 483.124,34789.7 483.788,50002.8 484.452,667.178 485.116,628.84 485.78,1519.7 486.444,718.593 487.108,14397.4 487.772,659.847 488.436,387.238 489.1,1007.47 489.764,710.745 490.428,1073.85 491.092,659.361 491.756,837.391 492.42,1078.54 493.084,706.665 493.748,709.875 494.411,2556.37 495.075,882.897 495.739,2131.65 496.403,690.747 497.067,802.114 497.731,4923.59 498.395,891.803 499.059,533.452 499.723,1191.83 500.387,784.553 501.051,769.962 501.715,856.498 502.379,21690.7 503.043,3423.87 503.707,1459.22 504.371,788.24 505.034,823.561 505.698,859.876 506.362,133.695 507.026,1051.28 507.69,1554.35 508.354,2400.33 509.018,422.813 509.682,997.412 510.346,651.389 511.01,189.436 511.674,875.685 512.338,690.33 513.002,1133.18 513.666,2283.99 514.33,737.215 514.994,669.152 515.657,675.269 516.321,52991.5 516.985,672.935 517.649,669.094 518.313,431.757 518.977,4052.03 519.641,981.116 520.305,948.677 520.969,769.309 521.633,225.186 522.297,1539.67 522.961,712.507 523.625,466.764 524.289,761.173 524.953,901.616 525.617,735.011 526.281,1002.49 526.944,11479.5 527.608,532.022 528.272,661.892 528.936,394.15 529.6,771.864 530.264,783.705 530.928,763.621 531.592,522.418 532.256,4405.18 532.92,762.091 533.584,757.324 534.248,2587.79 534.912,2784.33 535.576,471.884 536.24,978.5 536.904,531.981 537.567,3314.98 538.231,4022.57 538.895,667.194 539.559,810.542 540.223,1051.05 540.887,2751.22 541.551,270.176 542.215,9352.03 542.879,3087.9 543.543,712.366 544.207,724.557 544.871,959.674 545.535,119477 546.199,5935.05 546.863,744.146 547.527,735.758 548.19,127.843 548.854,1679.29 549.518,611.236 550.182,984.898 550.846,938.288 551.51,747.194 552.174,22306.6 552.838,463.329 553.502,1036.01 554.166,836.725 554.83,912.988 555.494,928.624 556.158,929.149 556.822,669.56 557.486,1888.06 558.15,1077.19 558.813,904.585 559.477,743.796 560.141,2164.02 560.805,5242.91 561.469,421.389 562.133,772.214 562.797,1082.49 563.461,2298.39 564.125,1161.32 564.789,448.509 565.453,808.116 566.117,356660 566.781,3433.93 567.445,934.293 568.109,2900.86 568.773,718.865 569.437,525.902 570.1,2349.62 570.764,912.528 571.428,1239.32 572.092,825.449 572.756,1108.49 573.42,844.825 574.084,1149.44 574.748,5053.73 575.412,659.14 576.076,4441.51 576.74,887.285 577.404,1154.96 578.068,469.506 578.732,533.84 579.396,608.467 580.06,835.45 580.723,819.212 581.387,720.822 582.051,1057.51 582.715,743.867 583.379,756.23 584.043,647.093 584.707,888.281 585.371,8153.37 586.035,554.726 586.699,734.075 587.363,9427.31 588.027,26157.3 588.691,212196 589.355,948.373 590.019,429.409 590.683,789.15 591.346,809.636 592.01,1423.16 592.674,646.367 593.338,2464.56 594.002,1055 594.666,935.026 595.33,974.241 595.994,723.432 596.658,2557.11 597.322,2158.08 597.986,1.11679e+06 598.65,889.282 599.314,807.415 599.978,523.267 600.642,2063.55 601.306,539.587 601.97,601.181 602.633,775.497 603.297,728.187 603.961,549.07 604.625,422.645 605.289,437.02 605.953,608.852 606.617,593.018 607.281,1687.45 607.945,706.833 608.609,633.668 609.273,926.437 609.937,350.604 610.601,904.531 611.265,661.87 611.929,1042.94 612.593,897.743 613.256,672.146 613.92,8684.52 614.584,577.593 615.248,825.217 615.912,646.582 616.576,935.261 617.24,831.94 617.904,815.148 618.568,693.264 619.232,831.14 619.896,985.903 620.56,689.622 621.224,737.782 621.888,948.152 622.552,1012.23 623.216,766.256 623.879,2900.81 624.543,2513.6 625.207,788.98 625.871,626.98 626.535,687.352 627.199,1008.21 627.863,840.323 628.527,918.336 629.191,633.553 629.855,724.67 630.519,799.591 631.183,1110.96 631.847,905.079 632.511,3963.25 633.175,619.585 633.839,807.642 634.503,825.854 635.166,581.104 635.83,1270.62 636.494,807.95 637.158,866.322 637.822,509.629 638.486,811.031 639.15,478.459 639.814,687.92 640.478,875.228 641.142,842.501 641.806,1098.81 642.47,643.113 643.134,644.655 643.798,954.41 644.462,898.711 645.126,927.889 645.789,602.998 646.453,832.042 647.117,895.692 647.781,921.969 648.445,720.939 649.109,919.889 649.773,922.639 650.437,828.23 651.101,1036.04 651.765,806.672 652.429,158389 653.093,807.483 653.757,736.164 654.421,888.606 655.085,1788.95 655.749,1054.71 656.412,813.34 657.076,925.697 657.74,445.681 658.404,604.175 659.068,866.975 659.732,510.989 660.396,876.629 661.06,875.406 661.724,815.506 662.388,965.487 663.052,723.667 663.716,678.576 664.38,699.17 665.044,1060.24 665.708,1004.41 666.372,679.527 667.036,880.547 667.699,279.417 668.363,1020.02 669.027,695.545 669.691,985.167 670.355,618.516 671.019,452.832 671.683,505.409 672.347,599.049 673.011,738.36 673.675,622.16 674.339,946.177 675.003,851.164 675.667,553.454 676.331,380.742 676.995,500.715 677.659,793.272 678.322,960.544 678.986,1148.47 679.65,952.29 680.314,741.957 680.978,526.913 681.642,835.228 682.306,640.02 682.97,1105.27 683.634,965.726 684.298,864.391 684.962,437.371 685.626,715.636 686.29,375.79 686.954,833.116 687.618,658.634 688.282,651.562 688.945,830.619 689.609,746.584 690.273,747.981 690.937,1098.96 691.601,396.725 692.265,1835.29 692.929,1018.59 693.593,658.979 694.257,856.197 694.921,903.383 695.585,595.359 696.249,788.818 696.913,529.374 697.577,674.662 698.241,1005.54 698.905,816.08 699.569,774.224 700.232,461.051 700.896,693.85 701.56,841.55 702.224,867.498 702.888,634.748 703.552,811.998 704.216,953.231 704.88,903.22 705.544,595.802 706.208,745.574 706.872,954.147 707.536,1494.99 708.2,462.395 708.864,548.835 709.528,896.003 710.192,744.961 710.855,1125.41 711.519,1131.21 712.183,1937.18 712.847,576.832 713.511,803.445 714.175,778.21 714.839,908.833 715.503,918.531 716.167,581.107 716.831,555.854 717.495,634.988 718.159,668.266 718.823,719.071 719.487,728.199 720.151,1028.21 720.815,648.627 721.478,650.637 722.142,765.492 722.806,723.171 723.47,962.254 724.134,563.106 724.798,849.611 725.462,2487.76 726.126,804.585 726.79,1067.26 727.454,3006.49 728.118,901.348 728.782,630.49 729.446,899.895 730.11,5270.1 730.774,396.24 731.438,852.515 732.101,796.112 732.765,557.331 733.429,741.964 734.093,538.601 734.757,807.833 735.421,1534.41 736.085,721.714 736.749,411.297 737.413,809.233 738.077,578.219 738.741,1034.52 739.405,714.418 740.069,779.565 740.733,562.836 741.397,846.376 742.061,823.966 742.725,788.14 743.388,660.191 744.052,1225.43 744.716,828.795 745.38,960.316 746.044,427.473 746.708,733.749 747.372,729.054 748.036,892.558 748.7,966.505 749.364,1019.46 750.028,828.769 750.692,1045.7 751.356,669.882 752.02,724.533 752.684,663.839 753.348,1104.13 754.011,898.302 754.675,5408 755.339,863.134 756.003,1118.38 756.667,1908.56 757.331,724.701 757.995,769.962 758.659,550.716 759.323,750.336 759.987,834.318 760.651,704.42 761.315,782.313 761.979,980.156 762.643,262.107 763.307,860.606 763.971,10353.2 764.634,607.691 765.298,518.354 765.962,821.287 766.626,839 767.29,519.86 767.954,762.073 768.618,756.187 769.282,1776.34 769.946,1118.61 770.61,668.189 771.274,1058.24 771.938,538.104 772.602,708.336 773.266,788.778 773.93,16629.1 774.594,575.469 775.258,442.108 775.921,780.987 776.585,801.965 777.249,889.605 777.913,453.627 778.577,643.645 779.241,830.887 779.905,760.941 780.569,660.397 781.233,555.97 781.897,757.532 782.561,322.381 783.225,774.312 783.889,860.759 784.553,1389.23 785.217,747.509 785.881,161.721 786.544,1016.8 787.208,613.784 787.872,357.927 788.536,517.021 789.2,799.312 789.864,707.034 790.528,639.128 791.192,792.844 791.856,486.631 792.52,737.602 793.184,863.185 793.848,585.835 794.512,486.683 795.176,601.573 795.84,796.145 796.504,833.546 797.167,4493.36 797.831,897.808 798.495,923.92 799.159,774.532 799.823,913.764 800.487,766.218 801.151,923.043 801.815,618.344 802.479,749.446 803.143,888.997 803.807,822.022 804.471,654.616 805.135,234.457 805.799,641.581 806.463,794.749 807.127,644.783 807.791,2554.57 808.454,916.211 809.118,815.84 809.782,764.378 810.446,783.904 811.11,800.002 811.774,1000.41 812.438,641.194 813.102,1798.3 813.766,1016.25 814.43,1048.21 815.094,651.97 815.758,883.75 816.422,675.652 817.086,1019.69 817.75,729.811 818.414,1152.36 819.077,919.155 819.741,505.363 820.405,1752.2 821.069,731.644 821.733,768.324 822.397,870.335 823.061,911.274 823.725,604.8 824.389,947.854 825.053,971.241 825.717,780.902 826.381,1126.85 827.045,877.588 827.709,744.945 828.373,627.079 829.037,1087.62 829.7,631.159 830.364,709.856 831.028,809.015 831.692,894.593 832.356,662.032 833.02,808.296 833.684,417.844 834.348,759.2 835.012,623.496 835.676,851.387 836.34,715.031 837.004,691.23 837.668,632.774 838.332,772.958 838.996,422.761 839.66,1969.69 840.324,738.595 840.987,951.716 841.651,882.567 842.315,967.206 842.979,875.457 843.643,419.592 844.307,861.468 844.971,923.214 845.635,863.09 846.299,1014.03 846.963,726.958 847.627,672.351 848.291,5331.48 848.955,7597.37 849.619,897.219 850.283,790.419 850.947,4382 851.61,1004.9 852.274,969.617 852.938,574.079 853.602,966.833 854.266,510.499 854.93,860.088 855.594,925.977 856.258,715.218 856.922,977.865 857.586,1087.22 858.25,688.334 858.914,576.339 859.578,794.472 860.242,448.072 860.906,612.954 861.57,833.165 862.233,1024.75 862.897,1006.96 863.561,844.284 864.225,1005.68 864.889,423.034 865.553,863.459 866.217,742.563 866.881,878.457 867.545,748.853 868.209,909.631 868.873,753.422 869.537,917.353 870.201,713.643 870.865,917.123 871.529,913.631 872.193,1116.6 872.856,696.61 873.52,936.794 874.184,861.602 874.848,796.644 875.512,617.407 876.176,758.211 876.84,944.849 877.504,1108.27 878.168,735.36 878.832,844.735 879.496,559.669 880.16,1123.99 880.824,684.649 881.488,757.856 882.152,1308.74 882.816,2037.79 883.48,2376.1 884.143,560.623 884.807,897.587 885.471,447.516 886.135,837.233 886.799,824.743 887.463,782.958 888.127,875.93 888.791,776.421 889.455,547.357 890.119,731.792 890.783,770.502 891.447,644.658 892.111,806.16 892.775,4122.88 893.439,796.6 894.103,967.641 894.766,809.354 895.43,9191.7 896.094,842.004 896.758,483.713 897.422,827.845 898.086,531.828 898.75,850.884 899.414,880.706 900.078,653.937 900.742,602.472 901.406,613.142 902.07,579.948 902.734,851.061 903.398,456.939 904.062,722.837 904.726,935.103 905.389,8092.02 906.053,707.741 906.717,497.69 907.381,659.326 908.045,535.125 908.709,657.381 909.373,546.256 910.037,1022.01 910.701,838.137 911.365,749.385 912.029,900.307 912.693,514.238 913.357,987.751 914.021,604.49 914.685,730.671 915.349,601.955 916.013,787.344 916.676,665.573 917.34,1013.29 918.004,791.45 918.668,1081.79 919.332,918.178 919.996,1959.58 920.66,724.832 921.324,885.651 921.988,3994.39 922.652,997.56 923.316,712.4 923.98,924.544 924.644,4611.34 925.308,989.333 925.972,821.325 926.636,856.697 927.299,836.691 927.963,552.327 928.627,724.007 929.291,840.48 929.955,737.015 930.619,783.147 931.283,553.056 931.947,803.254 932.611,696.796 933.275,622.529 933.939,1659.06 934.603,686.355 935.267,793.773 935.931,776.896 936.595,1026.84 937.259,884.486 937.922,479.689 938.586,4550.64 939.25,983.575 939.914,688.365 940.578,670.879 941.242,24233.7 941.906,863.844 942.57,878.115 943.234,678.922 943.898,1003.91 944.562,799.6 945.226,875.845 945.89,425.028 946.554,692.945 947.218,746.499 947.882,478.731 948.546,916.16 949.209,548.443 949.873,986.931 950.537,707.23 951.201,918.911 951.865,929.248 952.529,705.685 953.193,674.277 953.857,731.069 954.521,827.53 955.185,995.843 955.849,1017.64 956.513,966.532 957.177,275.11 957.841,910.63 958.505,900.196 959.169,876.444 959.832,996.091 960.496,792.879 961.16,541.515 961.824,826.837 962.488,463.184 963.152,840.898 963.816,781.866 964.48,537.822 965.144,923.793 965.808,790.472 966.472,887.88 967.136,991.788 967.8,809.219 968.464,810.398 969.128,1002.76 969.792,853.363 970.455,797.711 971.119,609.607 971.783,631.749 972.447,747.231 973.111,716.733 973.775,719.588 974.439,827.037 975.103,510.303 975.767,750.132 976.431,7153.8 977.095,747.281 977.759,594.184 978.423,825.763 979.087,8309.15 979.751,783.25 980.415,669.074 981.079,1513.58 981.742,753.866 982.406,630.032 983.07,519.631 983.734,759.176 984.398,725.223 985.062,730.989 985.726,302.133 986.39,841.54 987.054,548.933 987.718,502.846 988.382,5289.9 989.046,471.1 989.71,741.216 990.374,657.25 991.038,1183.59 991.702,1111.42 992.365,498.491 993.029,641.706 993.693,742.833 994.357,817.297 995.021,670.279 995.685,732.752 996.349,741.417 997.013,815.203 997.677,542.665 998.341,966.169 999.005,945.173 999.669,692.216 1000.33,616.266 1001,747.748 1001.66,595.632 1002.32,1511.63 1002.99,901.799 1003.65,2400.77 1004.32,514.241 1004.98,790.615 1005.64,2547.71 1006.31,869.278 1006.97,3755.74 1007.64,465.512 1008.3,828.171 1008.96,869.443 1009.63,1045.49 1010.29,1897.99 1010.96,712.375 1011.62,835.936 1012.28,873.789 1012.95,549.436 1013.61,638.108 1014.28,1435.64 1014.94,676.78 1015.6,964.483 1016.27,836.424 1016.93,724.792 1017.6,789.582 1018.26,860.295 1018.92,861.475 1019.59,805.925 1020.25,736.533 1020.91,805.915 1021.58,596.554 1022.24,950.887 1022.91,540.743 1023.57,610.335 1024.23,860.065 1024.9,694.468 1025.56,668.014 1026.23,775.842 1026.89,480.315 1027.55,926.537 1028.22,721.033 1028.88,611.767 1029.55,901.281 1030.21,1066.98 1030.87,1246.51 1031.54,902.085 1032.2,663.298 1032.87,977.543 1033.53,860.791 1034.19,1174.18 1034.86,932.839 1035.52,708.528 1036.19,953.999 1036.85,590.702 1037.51,625.217 1038.18,944.096 1038.84,721.276 1039.51,1457.34 1040.17,302.923 1040.83,518.952 1041.5,902.578 1042.16,1214.76 1042.82,543.77 1043.49,1648.06 1044.15,1098.42 1044.82,656.684 1045.48,769.702 1046.14,686.968 1046.81,896.595 1047.47,1101.98 1048.14,1017.54 1048.8,644.931 1049.46,844.147 1050.13,670.641 1050.79,1307.22 1051.46,753.43 1052.12,1036.28 1052.78,914.877 1053.45,1034.51 1054.11,899.741 1054.78,714.673 1055.44,772.768 1056.1,878.649 1056.77,870.959 1057.43,850.537 1058.1,918.833 1058.76,880.224 1059.42,1058.06 1060.09,714.494 1060.75,672.842 1061.42,590.274 1062.08,1010.04 1062.74,1062.41 1063.41,3379.4 1064.07,949.422 1064.73,1028.88 1065.4,757.904 1066.06,819.32 1066.73,683.796 1067.39,983.649 1068.05,819.141 1068.72,808.529 1069.38,830.451 1070.05,778.985 1070.71,392.051 1071.37,974.463 1072.04,786.765 1072.7,712.987 1073.37,931.228 1074.03,575.335 1074.69,486.569 1075.36,451.024 1076.02,637.251 1076.69,731.972 1077.35,702.227 1078.01,972.75 1078.68,656.463 1079.34,581.784 1080.01,833.662 1080.67,1066.51 1081.33,639.612 1082,834.829 1082.66,735.311 1083.33,850.592 1083.99,895.873 1084.65,763.062 1085.32,751.509 1085.98,556.541 1086.64,680.24 1087.31,752.575 1087.97,1001.15 1088.64,847.112 1089.3,1059.48 1089.96,738.56 1090.63,510.47 1091.29,954.193 1091.96,554.693 1092.62,744.149 1093.28,2494.05 1093.95,724.833 1094.61,985.352 1095.28,1011.79 1095.94,789.552 1096.6,667.509 1097.27,769.698 1097.93,696.108 1098.6,672.532 1099.26,823.14 1099.92,976.601 1100.59,2899.47 1101.25,739.086 1101.92,3564.39 1102.58,613.536 1103.24,1695.44 1103.91,687.125 1104.57,725.194 1105.24,649.854 1105.9,733.093 1106.56,1011.56 1107.23,583.067 1107.89,588.234 1108.55,710.164 1109.22,790.501 1109.88,669.027 1110.55,1081.15 1111.21,4455.25 1111.87,651.035 1112.54,791.989 1113.2,867.85 1113.87,403.289 1114.53,716.802 1115.19,519.94 1115.86,715.755 1116.52,819.297 1117.19,723.388 1117.85,833.045 1118.51,723.34 1119.18,926.891 1119.84,666.03 1120.51,885.069 1121.17,673.413 1121.83,481.669 1122.5,574.602 1123.16,363.689 1123.83,856.889 1124.49,620.544 1125.15,558.537 1125.82,909.775 1126.48,690.961 1127.15,736.712 1127.81,1104.71 1128.47,596.715 1129.14,321.163 1129.8,673.301 1130.46,802.78 1131.13,790.597 1131.79,875.626 1132.46,912.008 1133.12,565.835 1133.78,1119.55 1134.45,949.761 1135.11,744.657 1135.78,1380.72 1136.44,747.736 1137.1,439.893 1137.77,536.378 1138.43,704.549 1139.1,893.781 1139.76,762.56 1140.42,718.553 1141.09,1057.28 1141.75,987.229 1142.42,871.237 1143.08,491.072 1143.74,893.028 1144.41,1054.36 1145.07,785.136 1145.74,775.173 1146.4,671.906 1147.06,671.859 1147.73,596.091 1148.39,778.625 1149.05,655.687 1149.72,784.907 1150.38,977.636 1151.05,892.794 1151.71,839.751 1152.37,1456.07 1153.04,957.109 1153.7,849.357 1154.37,961.59 1155.03,268.701 1155.69,962.17 1156.36,564.392 1157.02,566.153 1157.69,604.288 1158.35,454.489 1159.01,795.702 1159.68,694.939 1160.34,46489.5 1161.01,999.958 1161.67,814.453 1162.33,517.179 1163,859.421 1163.66,449.139 1164.33,1102.81 1164.99,327.863 1165.65,1449.1 1166.32,881.477 1166.98,708.825 1167.65,1205.97 1168.31,840.899 1168.97,1020.14 1169.64,629.264 1170.3,716.18 1170.96,925.731 1171.63,722.162 1172.29,774.195 1172.96,867.37 1173.62,1059.17 1174.28,610.002 1174.95,365.811 1175.61,762.149 1176.28,540.564 1176.94,786.98 1177.6,909.634 1178.27,883.977 1178.93,1016.79 1179.6,945.341 1180.26,851.577 1180.92,558.04 1181.59,2037.12 1182.25,584.768 1182.92,643.073 1183.58,767.007 1184.24,694.978 1184.91,1095.6 1185.57,918.174 1186.24,500.172 1186.9,921.284 1187.56,493.938 1188.23,1072.86 1188.89,604.678 1189.56,458.919 1190.22,785.898 1190.88,628.404 1191.55,851.543 1192.21,836.102 1192.87,959.309 1193.54,603.356 1194.2,721.564 1194.87,534.213 1195.53,635.232 1196.19,888.309 1196.86,743.766 1197.52,835.084 1198.19,1166.24 1198.85,786.628 1199.51,906.41 1200.18,715.776 1200.84,741.104 1201.51,922.391 1202.17,1136.22 1202.83,858.343 1203.5,860.415 1204.16,1076.08 1204.83,736.228 1205.49,484.138 1206.15,569.337 1206.82,8511.87 1207.48,704.446 1208.15,865.027 1208.81,913.45 1209.47,655.975 1210.14,902.85 1210.8,570.806 1211.47,569.988 1212.13,817.518 1212.79,808.357 1213.46,501.98 1214.12,376.09 1214.78,945.113 1215.45,936.624 1216.11,667.18 1216.78,872.961 1217.44,889.615 1218.1,620.178 1218.77,702.273 1219.43,994.745 1220.1,761.902 1220.76,397.52 1221.42,1061.38 1222.09,891.272 1222.75,696.496 1223.42,799.474 1224.08,869.95 1224.74,988.997 1225.41,1025.16 1226.07,660.603 1226.74,1096.11 1227.4,905.791 1228.06,864.583 1228.73,685.144 1229.39,748.847 1230.06,1157.35 1230.72,903.843 1231.38,685.854 1232.05,705.371 1232.71,815.085 1233.38,632.599 1234.04,855.021 1234.7,1113.35 1235.37,905.943 1236.03,855.415 1236.69,816.772 1237.36,785.001 1238.02,666.614 1238.69,374.838 1239.35,876.211 1240.01,725.869 1240.68,589.597 1241.34,548.366 1242.01,674.974 1242.67,600.649 1243.33,495.911 1244,601.038 1244.66,569.315 1245.33,703.921 1245.99,722.873 1246.65,486.602 1247.32,901.299 1247.98,800.151 1248.65,792.454 1249.31,1026.21 1249.97,625.066 1250.64,714.779 1251.3,870.432 1251.97,788.219 1252.63,726.985 1253.29,795.359 1253.96,771.679 1254.62,665.336 1255.29,661.437 1255.95,529.373 1256.61,932.068 1257.28,913.952 1257.94,672.438 1258.6,1560.46 1259.27,672.771 1259.93,650.574 1260.6,1004.93 1261.26,683.024 1261.92,617.881 1262.59,1024.73 1263.25,774.755 1263.92,829.643 1264.58,928.374 1265.24,842.017 1265.91,797.358 1266.57,861.573 1267.24,799.275 1267.9,658.665 1268.56,991.027 1269.23,546.166 1269.89,616.449 1270.56,867.071 1271.22,551.515 1271.88,1055.01 1272.55,1448.92 1273.21,747.489 1273.88,817.437 1274.54,720.946 1275.2,12282.7 1275.87,784.442 1276.53,854.405 1277.2,928.847 1277.86,968.663 1278.52,833.496 1279.19,799.601 1279.85,944.658 1280.51,797.142 1281.18,665.963 1281.84,439.069 1282.51,1170.78 1283.17,928.56 1283.83,518.215 1284.5,537.79 1285.16,685.922 1285.83,921.876 1286.49,785.358 1287.15,833.302 1287.82,609.129 1288.48,403.72 1289.15,1061.96 1289.81,611.841 1290.47,1121.27 1291.14,610.753 1291.8,1933.73 1292.47,605.424 1293.13,869.734 1293.79,894.79 1294.46,794.65 1295.12,748.58 1295.79,843.495 1296.45,1004.6 1297.11,742.399 1297.78,874.369 1298.44,572.408 1299.11,913.706 1299.77,823.048 1300.43,666.899 1301.1,706.812 1301.76,725.943 1302.42,899.043 1303.09,961.752 1303.75,600.996 1304.42,542.045 1305.08,895.479 1305.74,842.409 1306.41,1119.93 1307.07,816.687 1307.74,803.238 1308.4,1008.94 1309.06,1889.41 1309.73,564.368 1310.39,831.778 1311.06,130.873 1311.72,801.701 1312.38,849.907 1313.05,1304.15 1313.71,857.153 1314.38,816.32 1315.04,851.69 1315.7,868.927 1316.37,588.255 1317.03,1009.5 1317.7,273.925 1318.36,886.787 1319.02,786.408 1319.69,748.007 1320.35,921.765 1321.02,953.914 1321.68,1096.95 1322.34,530.857 1323.01,622.403 1323.67,566.976 1324.33,729.858 1325,716.051 1325.66,464.351 1326.33,858.909 1326.99,1036.19 1327.65,990.09 1328.32,713.548 1328.98,650.421 1329.65,741.543 1330.31,1102.09 1330.97,1031.57 1331.64,733.631 1332.3,607.585 1332.97,803.383 1333.63,770.99 1334.29,731.405 1334.96,485.905 1335.62,740.638 1336.29,569.487 1336.95,876.927 1337.61,1134.54 1338.28,773.331 1338.94,979.987 1339.61,868.203 1340.27,1428.01 1340.93,893.871 1341.6,566.9 1342.26,786.565 1342.93,539.857 1343.59,838.984 1344.25,485.465 1344.92,686.516 1345.58,591.877 1346.24,838.278 1346.91,1334.71 1347.57,808.009 1348.24,697.895 1348.9,675.726 1349.56,1039.37 1350.23,834.941 1350.89,555.29 1351.56,842.97 1352.22,958.965 1352.88,836.845 1353.55,888.581 1354.21,662.215 1354.88,774.081 1355.54,712.054 1356.2,940.762 1356.87,1057.42 1357.53,734.186 1358.2,1041.7 1358.86,914.388 1359.52,515.042 1360.19,906.529 1360.85,464.963 1361.52,901.471 1362.18,709.565 1362.84,914.501 1363.51,1290.48 1364.17,728.126 1364.84,403.505 1365.5,617.555 1366.16,593.25 1366.83,803.031 1367.49,804.6 1368.15,822.289 1368.82,999.033 1369.48,733.699 1370.15,758.998 1370.81,883.266 1371.47,683.468 1372.14,593.017 1372.8,669.082 1373.47,934.586 1374.13,433.512 1374.79,914.553 1375.46,942.573 1376.12,631.531 1376.79,752.23 1377.45,739.092 1378.11,750.747 1378.78,770.691 1379.44,959.505 1380.11,581.32 1380.77,530.888 1381.43,1506.05 1382.1,647.442 1382.76,908.999 1383.43,578.417 1384.09,848.115 1384.75,818.558 1385.42,993.403 1386.08,763.763 1386.75,1043.15 1387.41,3129.76 1388.07,1197.39 1388.74,1198.03 1389.4,861.584 1390.06,588.749 1390.73,701.671 1391.39,1235.61 1392.06,776.066 1392.72,735.776 1393.38,668.067 1394.05,680.586 1394.71,1467.9 1395.38,47.2441 1396.04,674.732 1396.7,841.878 1397.37,943.173 1398.03,982.43 1398.7,642.94 1399.36,846.91 1400.02,958.294 1400.69,886.059 1401.35,369.859 1402.02,815.958 1402.68,492.117 1403.34,662.997 1404.01,656.43 1404.67,522.017 1405.34,594.526 1406,679.404 1406.66,922.866 1407.33,673.463 1407.99,483.15 1408.66,697.988 1409.32,795.564 1409.98,851.802 1410.65,641.159 1411.31,874.219 1411.97,714.897 1412.64,839.607 1413.3,1024.34 1413.97,497.847 1414.63,655.678 1415.29,730.595 1415.96,558.221 1416.62,1016.09 1417.29,975.81 1417.95,702.125 1418.61,782.682 1419.28,697.865 1419.94,939.083 1420.61,480.147 1421.27,766.062 1421.93,370.658 1422.6,994.283 1423.26,584.155 1423.93,655.631 1424.59,770.951 1425.25,970.455 1425.92,625.744 1426.58,593.447 1427.25,702.982 1427.91,930.961 1428.57,592.213 1429.24,533.988 1429.9,769.571 1430.56,842.842 1431.23,552.747 1431.89,982.79 1432.56,604.193 1433.22,841.834 1433.88,868.687 1434.55,730.18 1435.21,611.846 1435.88,617.125 1436.54,922.301 1437.2,793.398 1437.87,611.39 1438.53,985.502 1439.2,725.6 1439.86,619.215 1440.52,780.673 1441.19,630.567 1441.85,564.242 1442.52,896.491 1443.18,616.629 1443.84,882.682 1444.51,678.217 1445.17,1008.28 1445.84,654.949 1446.5,908.313 1447.16,678.054 1447.83,848.268 1448.49,735.076 1449.16,1076.33 1449.82,972.677 1450.48,599.49 1451.15,805.803 1451.81,1167.06 1452.47,540.025 1453.14,2876.76 1453.8,757.223 1454.47,881.623 1455.13,843.088 1455.79,807.919 1456.46,880.432 1457.12,800.163 1457.79,715.82 1458.45,857.177 1459.11,7756.23 1459.78,480.407 1460.44,628.135 1461.11,750.396 1461.77,822.286 1462.43,656.244 1463.1,1029.11 1463.76,2721.89 1464.43,894.4 1465.09,649.653 1465.75,687.009 1466.42,587.183 1467.08,1011.81 1467.75,722.07 1468.41,720.809 1469.07,583.042 1469.74,773.255 1470.4,963.518 1471.07,752.624 1471.73,905.795 1472.39,768.451 1473.06,709.17 1473.72,983.774 1474.38,774.507 1475.05,696.938 1475.71,904.569 1476.38,1009.07 1477.04,707.185 1477.7,980.374 1478.37,946.861 1479.03,794.409 1479.7,724.824 1480.36,644.232 1481.02,793.442 1481.69,425.889 1482.35,847.019 1483.02,919.775 1483.68,806.919 1484.34,630.654 1485.01,656.134 1485.67,465.221 1486.34,641.761 1487,940.012 1487.66,857.363 1488.33,791.785 1488.99,894.765 1489.66,612.526 1490.32,778.766 1490.98,883.416 1491.65,838.524 1492.31,861.317 1492.98,769.295 1493.64,6504.6 1494.3,945.308 1494.97,648.475 1495.63,847.479 1496.29,855.457 1496.96,574.954 1497.62,1014.92 1498.29,855.081 1498.95,743.963 1499.61,925.305 1500.28,855.115 1500.94,694.492 1501.61,554.399 1502.27,739.961 1502.93,881.09 1503.6,585.345 1504.26,868.597 1504.93,829.188 1505.59,713.08 1506.25,489.6 1506.92,405.221 1507.58,648.749 1508.25,711.048 1508.91,675.753 1509.57,834.609 1510.24,601.412 1510.9,478.144 1511.57,1044.66 1512.23,765.686 1512.89,821.514 1513.56,986.667 1514.22,325.148 1514.89,939.292 1515.55,947.638 1516.21,762.205 1516.88,506.249 1517.54,857.601 1518.2,827.813 1518.87,752.944 1519.53,804.451 1520.2,852.181 1520.86,824.345 1521.52,929.787 1522.19,685.434 1522.85,924.094 1523.52,720.085 1524.18,600.007 1524.84,928.583 1525.51,915.665 1526.17,810.156 1526.84,770.945 1527.5,553.387 1528.16,1791.28 1528.83,764.175 1529.49,631.063 1530.16,865.656 1530.82,730.807 1531.48,668.557 1532.15,942.057 1532.81,629.926 1533.48,801.413 1534.14,854.005 1534.8,702.083 1535.47,495.836 1536.13,755.087 1536.8,734.268 1537.46,953.334 1538.12,802.456 1538.79,856.115 1539.45,564.108 1540.11,783.191 1540.78,1060.08 1541.44,973.951 1542.11,746.978 1542.77,1024.31 1543.43,732.026 1544.1,869.037 1544.76,890.449 1545.43,524.451 1546.09,928.155 1546.75,207.145 1547.42,538.9 1548.08,893.165 1548.75,494.191 1549.41,595.29 1550.07,958.803 1550.74,868.088 1551.4,585.104 1552.07,793.946 1552.73,843.363 1553.39,487.315 1554.06,854.247 1554.72,780.302 1555.39,1013.97 1556.05,741.081 1556.71,1067.48 1557.38,795.708 1558.04,495.05 1558.71,434.694 1559.37,740.478 1560.03,931.691 1560.7,1426.8 1561.36,628.435 1562.02,391.243 1562.69,759.439 1563.35,759.34 1564.02,946.104 1564.68,677.928 1565.34,4703.71 1566.01,818.257 1566.67,249.673 1567.34,797.3 1568,1097.12 1568.66,920.567 1569.33,377.795 1569.99,572.883 1570.66,729.698 1571.32,1129.84 1571.98,609.041 1572.65,652.084 1573.31,544.241 1573.98,769.504 1574.64,1164.79 1575.3,680.848 1575.97,637.827 1576.63,964.002 1577.3,844.485 1577.96,838.663 1578.62,1050.38 1579.29,717.511 1579.95,622.313 1580.62,523.107 1581.28,959.045 1581.94,1057.91 1582.61,793.239 1583.27,1134.06 1583.93,659.773 1584.6,596.118 1585.26,708.6 1585.93,446.951 1586.59,600.105 1587.25,707.529 1587.92,825.569 1588.58,993.996 1589.25,1324.02 1589.91,1134.1 1590.57,967.046 1591.24,940.843 1591.9,655.051 1592.57,648.368 1593.23,675.084 1593.89,952.558 1594.56,763.498 1595.22,530.133 1595.89,646.871 1596.55,604.487 1597.21,649.944 1597.88,916.929 1598.54,600.658 1599.21,885.865 1599.87,675.806 1600.53,933.667 1601.2,1051.78 1601.86,581.568 1602.53,632.755 1603.19,963.923 1603.85,723.582 1604.52,736.57 1605.18,517.428 1605.84,736.803 1606.51,711.993 1607.17,502.682 1607.84,515.401 1608.5,800.567 1609.16,656.352 1609.83,1097.62 1610.49,864.293 1611.16,726.858 1611.82,311.266 1612.48,881.172 1613.15,814.983 1613.81,950.224 1614.48,503.948 1615.14,581.943 1615.8,685.153 1616.47,957.515 1617.13,800.878 1617.8,505.023 1618.46,811.813 1619.12,824.995 1619.79,667.789 1620.45,762.497 1621.12,2828.44 1621.78,816.868 1622.44,712.061 1623.11,694.691 1623.77,766.556 1624.44,919.553 1625.1,612.075 1625.76,631.584 1626.43,822.115 1627.09,597.365 1627.75,671.15 1628.42,720.203 1629.08,1044.34 1629.75,185.421 1630.41,959.596 1631.07,748.513 1631.74,728.288 1632.4,561.445 1633.07,694.427 1633.73,625.865 1634.39,997.237 1635.06,646.144 1635.72,781.877 1636.39,709.457 1637.05,662.387 1637.71,970.765 1638.38,822.34 1639.04,652.16 1639.71,702.4 1640.37,559.154 1641.03,770.439 1641.7,711.078 1642.36,875.976 1643.03,947.916 1643.69,768.429 1644.35,928.799 1645.02,745.155 1645.68,946.332 1646.35,1008.3 1647.01,545.843 1647.67,770.701 1648.34,813.459 1649,892.152 1649.66,801.612 1650.33,578.478 1650.99,800.664 1651.66,264.752 1652.32,1297.09 1652.98,652.612 1653.65,852.799 1654.31,977.616 1654.98,960.775 1655.64,858.332 1656.3,812.568 1656.97,654.73 1657.63,728.071 1658.3,850.724 1658.96,922.546 1659.62,650.718 1660.29,671.092 1660.95,767.995 1661.62,894.237 1662.28,697.228 1662.94,817.775 1663.61,694.285 1664.27,950.205 1664.94,809.452 1665.6,922.942 1666.26,1070.63 1666.93,885.033 1667.59,1058.92 1668.26,793.503 1668.92,646.588 1669.58,923.027 1670.25,567.376 1670.91,1045.98 1671.57,778.848 1672.24,813.788 1672.9,800.52 1673.57,869.507 1674.23,1212.66 1674.89,762.181 1675.56,863.994 1676.22,590.022 1676.89,615.885 1677.55,767.235 1678.21,799.697 1678.88,1053.74 1679.54,830.018 1680.21,482.718 1680.87,601.099 1681.53,822.89 1682.2,769.28 1682.86,1115.79 1683.53,638.479 1684.19,649.239 1684.85,720.4 1685.52,587.837 1686.18,629.935 1686.85,811.439 1687.51,947.502 1688.17,757.335 1688.84,507.752 1689.5,850.465 1690.17,1015.31 1690.83,914.852 1691.49,660.582 1692.16,950.153 1692.82,753.407 1693.48,1035.61 1694.15,626.139 1694.81,847.339 1695.48,793.186 1696.14,798.649 1696.8,519.207 1697.47,938.587 1698.13,764.696 1698.8,1065.17 1699.46,821.08 1700.12,745.162 1700.79,1101.97 1701.45,964.323 1702.12,727.517 1702.78,890.899 1703.44,899.926 1704.11,891.21 1704.77,935.028 1705.44,952.976 1706.1,750.101 1706.76,710.348 1707.43,802.176 1708.09,644.375 1708.76,1420.12 1709.42,756.351 1710.08,644.093 1710.75,476.689 1711.41,647.049 1712.07,781.586 1712.74,769.161 1713.4,796.246 1714.07,683.169 1714.73,891.535 1715.39,998.733 1716.06,739.878 1716.72,947.253 1717.39,637.485 1718.05,833.511 1718.71,859.665 1719.38,956.534 1720.04,1092.76 1720.71,924.194 1721.37,539.616 1722.03,1060.31 1722.7,740.22 1723.36,806.502 1724.03,717.887 1724.69,973.334 1725.35,773.677 1726.02,636.358 1726.68,701.413 1727.35,614.049 1728.01,649.69 1728.67,552.451 1729.34,1084.18 1730,1052.77 1730.67,1159.46 1731.33,865.949 1731.99,1104.52 1732.66,478.211 1733.32,735.407 1733.98,571.767 1734.65,357.645 1735.31,691.568 1735.98,794.261 1736.64,751.15 1737.3,872.201 1737.97,646.986 1738.63,758.951 1739.3,535.087 1739.96,944.291 1740.62,606.347 1741.29,584.011 1741.95,876.285 1742.62,751.321 1743.28,479.5 1743.94,865.944 1744.61,734.962 1745.27,592.398 1745.94,720.386 1746.6,594.424 1747.26,738.641 1747.93,809.981 1748.59,821.166 1749.26,725.759 1749.92,528.549 1750.58,549.462 1751.25,849.892 1751.91,700.176 1752.58,708.446 1753.24,500.44 1753.9,912.463 1754.57,557.718 1755.23,593.478 1755.89,660.807 1756.56,755.176 1757.22,1087.11 1757.89,962.913 1758.55,785.714 1759.21,822.084 1759.88,943.298 1760.54,599.972 1761.21,737.044 1761.87,662.267 1762.53,557.404 1763.2,577.224 1763.86,782.203 1764.53,394.52 1765.19,735.988 1765.85,981.058 1766.52,766.479 1767.18,951.883 1767.85,803.769 1768.51,899.523 1769.17,638.499 1769.84,1088.25 1770.5,697.358 1771.17,641.106 1771.83,871.079 1772.49,730.033 1773.16,963.51 1773.82,692.051 1774.49,900.422 1775.15,392.971 1775.81,693.877 1776.48,613.975 1777.14,879.189 1777.8,643.1 1778.47,658.605 1779.13,831.441 1779.8,796.38 1780.46,531.543 1781.12,489.913 1781.79,577.607 1782.45,711.744 1783.12,732.158 1783.78,809.162 1784.44,985.617 1785.11,563.089 1785.77,1049.22 1786.44,708.402 1787.1,750.717 1787.76,1019.57 1788.43,961.632 1789.09,784.737 1789.76,943.408 1790.42,408.151 1791.08,880.046 1791.75,486.826 1792.41,818.627 1793.08,674.399 1793.74,589.224 1794.4,838.97 1795.07,873.456 1795.73,797.84 1796.4,624.005 1797.06,1150.12 1797.72,620.455 1798.39,785.853 1799.05,773.536 1799.71,821.056 1800.38,1082.6 1801.04,778.98 1801.71,916.572 1802.37,1041.94 1803.03,638.91 1803.7,922.472 1804.36,714.615 1805.03,902.92 1805.69,790.286 1806.35,931.692 1807.02,1066.28 1807.68,803.869 1808.35,1593.9 1809.01,888.051 1809.67,774.736 1810.34,854.922 1811,850.799 1811.67,844.51 1812.33,730.565 1812.99,836.071 1813.66,797.871 1814.32,906.096 1814.99,747.428 1815.65,788.028 1816.31,683.594 1816.98,784.892 1817.64,922.598 1818.31,891.342 1818.97,731.318 1819.63,1248.59 1820.3,1356.2 1820.96,772.82 1821.62,818.453 1822.29,794.293 1822.95,716.589 1823.62,720.562 1824.28,448.113 1824.94,804.756 1825.61,621.101 1826.27,257.06 1826.94,505.482 1827.6,849.881 1828.26,956.647 1828.93,820.492 1829.59,824.849 1830.26,697.622 1830.92,814.391 1831.58,786.842 1832.25,769.998 1832.91,743.322 1833.58,853.411 1834.24,906.026 1834.9,686.964 1835.57,715.033 1836.23,923.832 1836.9,457.7 1837.56,903.965 1838.22,734.068 1838.89,657.681 1839.55,878.61 1840.22,912.218 1840.88,1005.38 1841.54,930.517 1842.21,864.445 1842.87,745.138 1843.53,1095.79 1844.2,1105.91 1844.86,530.779 1845.53,578.488 1846.19,364.246 1846.85,1033.59 1847.52,646.2 1848.18,855.487 1848.85,973.596 1849.51,447.479 1850.17,734.313 1850.84,696.934 1851.5,617.964 1852.17,868.252 1852.83,433.043 1853.49,834.279 1854.16,634.914 1854.82,766.191 1855.49,802.566 1856.15,1148.21 1856.81,650.567 1857.48,734.749 1858.14,576.486 1858.81,853.083 1859.47,933.201 1860.13,1033.8 1860.8,788.379 1861.46,730.606 1862.13,383.527 1862.79,651.362 1863.45,629.429 1864.12,866.322 1864.78,803.12 1865.44,736.113 1866.11,540.842 1866.77,957.845 1867.44,841.027 1868.1,897.557 1868.76,538.716 1869.43,970.956 1870.09,924.237 1870.76,1044.68 1871.42,933.384 1872.08,612.532 1872.75,441.058 1873.41,656.245 1874.08,868.002 1874.74,575.362 1875.4,835.716 1876.07,692.528 1876.73,634.654 1877.4,955.169 1878.06,811.687 1878.72,1089.16 1879.39,1056.18 1880.05,469.569 1880.72,486.719 1881.38,761.913 1882.04,1056.74 1882.71,631.974 1883.37,750.847 1884.04,691.605 1884.7,462.331 1885.36,748.558 1886.03,848.937 1886.69,703.259 1887.35,878.794 1888.02,609.678 1888.68,870.971 1889.35,1197.01 1890.01,773.8 1890.67,784.944 1891.34,531.68 1892,648.441 1892.67,556.492 1893.33,882.288 1893.99,893.317 1894.66,1220.91 1895.32,896.073 1895.99,887.952 1896.65,617.797 1897.31,855.336 1897.98,555.616 1898.64,738 1899.31,857.541 1899.97,866.504 1900.63,862.515 1901.3,896.524 1901.96,758.452 1902.63,636.198 1903.29,968.274 1903.95,647.02 1904.62,736.016 1905.28,817.73 1905.95,660.523 1906.61,2444.04 1907.27,706.904 1907.94,862.107 1908.6,866.741 1909.26,514.623 1909.93,786.566 1910.59,746.895 1911.26,700.496 1911.92,864.316 1912.58,642.178 1913.25,794.638 1913.91,466.967 1914.58,602.402 1915.24,640.808 1915.9,456.459 1916.57,879.364 1917.23,703.378 1917.9,1027.34 1918.56,519.987 1919.22,996.477 1919.89,683.607 1920.55,906.831 1921.22,801.249 1921.88,1633.86 1922.54,612.416 1923.21,271.884 1923.87,483.158 1924.54,819.748 1925.2,837.735 1925.86,764.543 1926.53,629.84 1927.19,663.908 1927.86,933.204 1928.52,599.145 1929.18,643.799 1929.85,736.288 1930.51,831.673 1931.17,975.597 1931.84,980.906 1932.5,864.897 1933.17,926.225 1933.83,921.695 1934.49,778.318 1935.16,677.828 1935.82,877.018 1936.49,1033.76 1937.15,593.26 1937.81,844.214 1938.48,740.591 1939.14,830.887 1939.81,538.482 1940.47,835.178 1941.13,875.785 1941.8,761.189 1942.46,864.935 1943.13,931.572 1943.79,433.7 1944.45,831.673 1945.12,397.424 1945.78,882.668 1946.45,557.827 1947.11,836.688 1947.77,887.364 1948.44,602.561 1949.1,907.302 1949.77,734.076 1950.43,439.197 1951.09,669.895 1951.76,883.393 1952.42,565.906 1953.08,601.823 1953.75,544.669 1954.41,676.391 1955.08,377.904 1955.74,843.52 1956.4,911.731 1957.07,1785.12 1957.73,656.039 1958.4,722.565 1959.06,1030.38 1959.72,932.424 1960.39,719.806 1961.05,842.123 1961.72,1050.66 1962.38,758.268 1963.04,610.885 1963.71,243.822 1964.37,1202.73 1965.04,796.39 1965.7,908.768 1966.36,835.085 1967.03,701.665 1967.69,1168.07 1968.36,498.065 1969.02,1007.6 1969.68,819.808 1970.35,818.672 1971.01,597.223 1971.68,672.573 1972.34,634.514 1973,830.834 1973.67,953.114 1974.33,938.995 1974.99,688.582 1975.66,943.62 1976.32,679.441 1976.99,541.785 1977.65,973.469 1978.31,870.881 1978.98,695.11 1979.64,576.24 1980.31,1155.04 1980.97,679.229 1981.63,695.303 1982.3,828.815 1982.96,599.608 1983.63,377.368 1984.29,629.535 1984.95,486.354 1985.62,708.837 1986.28,879.422 1986.95,657.912 1987.61,814.647 1988.27,680.659 1988.94,838.689 1989.6,521.617 1990.27,635.514 1990.93,470.676 1991.59,402.395 1992.26,792.848 1992.92,700.929 1993.58,1097.14 1994.25,890.787 1994.91,461.752 1995.58,535.582 1996.24,733.978 1996.9,950.42 1997.57,610.175 1998.23,837.63 1998.9,745.063 1999.56,1039.25 2000.22,609.21 2000.89,634.509 2001.55,839.133 2002.22,590.945 2002.88,760.153 2003.54,724.105 2004.21,1059.38 2004.87,661.516 2005.54,559.016 2006.2,887.252 2006.86,2872.4 2007.53,834.695 2008.19,862.266 2008.86,706.222 2009.52,901.614 2010.18,798.669 2010.85,657.586 2011.51,845.174 2012.18,360.475 2012.84,717.704 2013.5,999.102 2014.17,704.784 2014.83,913.066 2015.49,799.522 2016.16,966.932 2016.82,515.767 2017.49,773.226 2018.15,720.426 2018.81,930.096 2019.48,1075.19 2020.14,802.029 2020.81,942.375 2021.47,812.461 2022.13,720.249 2022.8,657.74 2023.46,955.781 2024.13,433.723 2024.79,898.525 2025.45,754.585 2026.12,791.319 2026.78,506.581 2027.45,626.059 2028.11,546.695 2028.77,1091.63 2029.44,817.177 2030.1,414 2030.77,685.83 2031.43,800.029 2032.09,704.268 2032.76,841.982 2033.42,492.356 2034.09,573.55 2034.75,748.865 2035.41,652.132 2036.08,794.205 2036.74,1005.16 2037.4,755.649 2038.07,760.557 2038.73,986.465 2039.4,801.829 2040.06,570.5 2040.72,870.312 2041.39,978.473 2042.05,546.399 2042.72,995.822 2043.38,930.203 2044.04,928.444 2044.71,1152.22 2045.37,849.121 2046.04,757.728 2046.7,655.92 2047.36,737.87 2048.03,720.286 2048.69,746.813 2049.36,425.697 2050.02,671.933 2050.68,811.955 2051.35,825.565 2052.01,710.626 2052.68,845.286 2053.34,902.453 2054,678.743 2054.67,889.178 2055.33,846.388 2056,1014.61 2056.66,807.709 2057.32,656.61 2057.99,755.742 2058.65,920.836 2059.31,675.175 2059.98,1118.11 2060.64,705.691 2061.31,912.639 2061.97,515.548 2062.63,808.045 2063.3,678.922 2063.96,906.522 2064.63,709.006 2065.29,806.127 2065.95,845.107 2066.62,710.222 2067.28,890.881 2067.95,799.589 2068.61,812.039 2069.27,420.112 2069.94,766.211 2070.6,629.093 2071.27,1391.47 2071.93,714.881 2072.59,811.517 2073.26,601.517 2073.92,593.061 2074.59,933.4 2075.25,635.357 2075.91,657.476 2076.58,577.163 2077.24,527.934 2077.91,849.611 2078.57,800.978 2079.23,885.445 2079.9,675.934 2080.56,778.379 2081.22,894.36 2081.89,605.443 2082.55,568.164 2083.22,642.652 2083.88,896.133 2084.54,920.092 2085.21,662.82 2085.87,517.161 2086.54,763.939 2087.2,800.562 2087.86,1030.68 2088.53,832.433 2089.19,791.621 2089.86,657.369 2090.52,632.262 2091.18,887.291 2091.85,641.602 2092.51,413.89 2093.18,746.914 2093.84,677.356 2094.5,703.578 2095.17,794.422 2095.83,716.873 2096.5,895.506 2097.16,752.452 2097.82,800.312 2098.49,605.66 2099.15,670.404 2099.82,624.367 2100.48,783.147 2101.14,467.459 2101.81,934.303 2102.47,689.534 2103.13,775.643 2103.8,748.349 2104.46,529.729 2105.13,586.449 2105.79,647.406 2106.45,586.643 2107.12,747.055 2107.78,547.702 2108.45,573.8 2109.11,679.056 2109.77,645.535 2110.44,608.133 2111.1,650.258 2111.77,535.333 2112.43,512.333 2113.09,918.718 2113.76,923.601 2114.42,537.039 2115.09,431.03 2115.75,683.894 2116.41,937.954 2117.08,902.237 2117.74,912.666 2118.41,556.775 2119.07,732.687 2119.73,596.419 2120.4,833.757 2121.06,997.811 2121.73,680.571 2122.39,735.66 2123.05,776.514 2123.72,561.875 2124.38,796.13 2125.04,964.642 2125.71,819.878 2126.37,903.542 2127.04,878.705 2127.7,1028.89 2128.36,816.018 2129.03,1114.96 2129.69,664.918 2130.36,717.022 2131.02,628.365 2131.68,465.337 2132.35,866.59 2133.01,618.327 2133.68,686.192 2134.34,815.2 2135,1164.23 2135.67,1068.78 2136.33,598.135 2137,1007.1 2137.66,668.639 2138.32,618.921 2138.99,709.456 2139.65,794.939 2140.32,875.616 2140.98,916.064 2141.64,593.889 2142.31,755.256 2142.97,722.645 2143.64,632.091 2144.3,721.731 2144.96,897.9 2145.63,422.764 2146.29,698.097 2146.95,879.77 2147.62,560.475 2148.28,717.83 2148.95,755.037 2149.61,656.428 2150.27,765.827 2150.94,829.482 2151.6,848.109 2152.27,735.578 2152.93,624.442 2153.59,847.383 2154.26,420.657 2154.92,821.501 2155.59,797.405 2156.25,1021.19 2156.91,953.641 2157.58,399.357 2158.24,617.936 2158.91,591.68 2159.57,726.982 2160.23,840.559 2160.9,728.357 2161.56,624.287 2162.23,880.236 2162.89,1148.5 2163.55,1013.7 2164.22,736.277 2164.88,1071.08 2165.55,866.021 2166.21,783.801 2166.87,1197.23 2167.54,892.467 2168.2,622.558 2168.86,831.828 2169.53,710.542 2170.19,870.829 2170.86,887.46 2171.52,657.299 2172.18,601.707 2172.85,752.696 2173.51,497.817 2174.18,574.997 2174.84,580.026 2175.5,648.993 2176.17,4392.91 2176.83,571.763 2177.5,851.794 2178.16,295.565 2178.82,695.783 2179.49,880.837 2180.15,538.478 2180.82,1018.86 2181.48,467.874 2182.14,669.537 2182.81,841.652 2183.47,730.873 2184.14,917.115 2184.8,949.618 2185.46,760.323 2186.13,890.867 2186.79,800.428 2187.46,1017.97 2188.12,485.941 2188.78,982.199 2189.45,520.622 2190.11,851.395 2190.77,819.345 2191.44,1121.3 2192.1,771.878 2192.77,728.12 2193.43,695.729 2194.09,889.482 2194.76,616.189 2195.42,712.345 2196.09,808.819 2196.75,841.855 2197.41,851.139 2198.08,957.459 2198.74,564.592 2199.41,479.049 2200.07,838.818 2200.73,795.717 2201.4,827.682 2202.06,729.227 2202.73,877.899 2203.39,1602.07 2204.05,495.638 2204.72,739.91 2205.38,661.566 2206.05,685.161 2206.71,484.239 2207.37,991.725 2208.04,791.804 2208.7,653.934 2209.37,902.405 2210.03,631.828 2210.69,585.937 2211.36,812.519 2212.02,776.344 2212.68,633.401 2213.35,849.936 2214.01,877.911 2214.68,756.616 2215.34,1006.92 2216,512.022 2216.67,641.42 2217.33,828.791 2218,903.612 2218.66,912.673 2219.32,774.424 2219.99,833.351 2220.65,474.343 2221.32,771.808 2221.98,868.261 2222.64,434.272 2223.31,773.553 2223.97,566.929 2224.64,832.386 2225.3,646.956 2225.96,596.955 2226.63,720.16 2227.29,718.591 2227.96,624.742 2228.62,927.887 2229.28,773.568 2229.95,644.405 2230.61,907.139 2231.28,803.605 2231.94,998.577 2232.6,772.648 2233.27,878.916 2233.93,734.509 2234.59,510.02 2235.26,1037.51 2235.92,745.154 2236.59,908.803 2237.25,1023.99 2237.91,767.631 2238.58,722.174 2239.24,984.144 2239.91,867.822 2240.57,814.073 2241.23,833.646 2241.9,391.53 2242.56,910.234 2243.23,515.646 2243.89,689.806 2244.55,1042.45 2245.22,606.306 2245.88,1620.59 2246.55,913.454 2247.21,746.684 2247.87,1090.44 2248.54,610.854 2249.2,787.601 2249.87,1080.25 2250.53,1102.13 2251.19,608.848 2251.86,760.08 2252.52,763.622 2253.19,856.441 2253.85,802.794 2254.51,511.641 2255.18,762.075 2255.84,709.248 2256.5,718.97 2257.17,556.622 2257.83,668.988 2258.5,930.41 2259.16,601.42 2259.82,792.045 2260.49,688.552 2261.15,685.041 2261.82,996.392 2262.48,649.386 2263.14,943.111 2263.81,611.481 2264.47,876.334 2265.14,339.149 2265.8,767.428 2266.46,1083.06 2267.13,382.952 2267.79,261.848 2268.46,751.827 2269.12,645.026 2269.78,797.402 2270.45,856.463 2271.11,788.114 2271.78,606.455 2272.44,904.695 2273.1,764.295 2273.77,820.929 2274.43,1014.69 2275.09,780.092 2275.76,684.478 2276.42,943.177 2277.09,652.702 2277.75,760.653 2278.41,593.536 2279.08,445.544 2279.74,618.832 2280.41,1105.36 2281.07,788.724 2281.73,548.057 2282.4,660.045 2283.06,799.802 2283.73,965.188 2284.39,753.316 2285.05,901.458 2285.72,797.137 2286.38,1010.02 2287.05,801.876 2287.71,755.105 2288.37,1056.94 2289.04,622.551 2289.7,528.275 2290.37,663.85 2291.03,847.708 2291.69,712.037 2292.36,1070.84 2293.02,288.091 "/>
<path clip-path="url(#clip780)" d="M2018.91 196.789 L2282.4 196.789 L2282.4 93.1086 L2018.91 93.1086  Z" fill="#ffffff" fill-rule="evenodd" fill-opacity="1"/>
<polyline clip-path="url(#clip780)" style="stroke:#000000; stroke-linecap:round; stroke-linejoin:round; stroke-width:4; stroke-opacity:1; fill:none" points="2018.91,196.789 2282.4,196.789 2282.4,93.1086 2018.91,93.1086 2018.91,196.789 "/>
<polyline clip-path="url(#clip780)" style="stroke:#009af9; stroke-linecap:round; stroke-linejoin:round; stroke-width:4; stroke-opacity:1; fill:none" points="2042.36,144.949 2183.07,144.949 "/>
<path clip-path="url(#clip780)" d="M2220.36 164.636 Q2218.56 169.266 2216.84 170.678 Q2215.13 172.09 2212.26 172.09 L2208.86 172.09 L2208.86 168.525 L2211.36 168.525 Q2213.12 168.525 2214.09 167.692 Q2215.06 166.858 2216.24 163.756 L2217.01 161.812 L2206.52 136.303 L2211.03 136.303 L2219.14 156.581 L2227.24 136.303 L2231.75 136.303 L2220.36 164.636 Z" fill="#000000" fill-rule="nonzero" fill-opacity="1" /><path clip-path="url(#clip780)" d="M2239.04 158.293 L2246.68 158.293 L2246.68 131.928 L2238.37 133.595 L2238.37 129.335 L2246.64 127.669 L2251.31 127.669 L2251.31 158.293 L2258.95 158.293 L2258.95 162.229 L2239.04 162.229 L2239.04 158.293 Z" fill="#000000" fill-rule="nonzero" fill-opacity="1" /></svg>
