<?xml version="1.0" encoding="utf-8"?>
<svg xmlns="http://www.w3.org/2000/svg" xmlns:xlink="http://www.w3.org/1999/xlink" width="600" height="400" viewBox="0 0 2400 1600">
<defs>
  <clipPath id="clip410">
    <rect x="0" y="0" width="2400" height="1600"/>
  </clipPath>
</defs>
<path clip-path="url(#clip410)" d="M0 1600 L2400 1600 L2400 0 L0 0  Z" fill="#ffffff" fill-rule="evenodd" fill-opacity="1"/>
<defs>
  <clipPath id="clip411">
    <rect x="480" y="0" width="1681" height="1600"/>
  </clipPath>
</defs>
<path clip-path="url(#clip410)" d="M242.135 1423.18 L2352.76 1423.18 L2352.76 47.2441 L242.135 47.2441  Z" fill="#ffffff" fill-rule="evenodd" fill-opacity="1"/>
<defs>
  <clipPath id="clip412">
    <rect x="242" y="47" width="2112" height="1377"/>
  </clipPath>
</defs>
<polyline clip-path="url(#clip412)" style="stroke:#000000; stroke-linecap:round; stroke-linejoin:round; stroke-width:2; stroke-opacity:0.1; fill:none" points="301.205,1423.18 301.205,47.2441 "/>
<polyline clip-path="url(#clip412)" style="stroke:#000000; stroke-linecap:round; stroke-linejoin:round; stroke-width:2; stroke-opacity:0.1; fill:none" points="965.144,1423.18 965.144,47.2441 "/>
<polyline clip-path="url(#clip412)" style="stroke:#000000; stroke-linecap:round; stroke-linejoin:round; stroke-width:2; stroke-opacity:0.1; fill:none" points="1629.08,1423.18 1629.08,47.2441 "/>
<polyline clip-path="url(#clip412)" style="stroke:#000000; stroke-linecap:round; stroke-linejoin:round; stroke-width:2; stroke-opacity:0.1; fill:none" points="2293.02,1423.18 2293.02,47.2441 "/>
<polyline clip-path="url(#clip412)" style="stroke:#000000; stroke-linecap:round; stroke-linejoin:round; stroke-width:2; stroke-opacity:0.1; fill:none" points="242.135,1423.18 2352.76,1423.18 "/>
<polyline clip-path="url(#clip412)" style="stroke:#000000; stroke-linecap:round; stroke-linejoin:round; stroke-width:2; stroke-opacity:0.1; fill:none" points="242.135,1205.15 2352.76,1205.15 "/>
<polyline clip-path="url(#clip412)" style="stroke:#000000; stroke-linecap:round; stroke-linejoin:round; stroke-width:2; stroke-opacity:0.1; fill:none" points="242.135,987.114 2352.76,987.114 "/>
<polyline clip-path="url(#clip412)" style="stroke:#000000; stroke-linecap:round; stroke-linejoin:round; stroke-width:2; stroke-opacity:0.1; fill:none" points="242.135,769.081 2352.76,769.081 "/>
<polyline clip-path="url(#clip412)" style="stroke:#000000; stroke-linecap:round; stroke-linejoin:round; stroke-width:2; stroke-opacity:0.1; fill:none" points="242.135,551.048 2352.76,551.048 "/>
<polyline clip-path="url(#clip412)" style="stroke:#000000; stroke-linecap:round; stroke-linejoin:round; stroke-width:2; stroke-opacity:0.1; fill:none" points="242.135,333.015 2352.76,333.015 "/>
<polyline clip-path="url(#clip412)" style="stroke:#000000; stroke-linecap:round; stroke-linejoin:round; stroke-width:2; stroke-opacity:0.1; fill:none" points="242.135,114.982 2352.76,114.982 "/>
<polyline clip-path="url(#clip410)" style="stroke:#000000; stroke-linecap:round; stroke-linejoin:round; stroke-width:4; stroke-opacity:1; fill:none" points="242.135,1423.18 2352.76,1423.18 "/>
<polyline clip-path="url(#clip410)" style="stroke:#000000; stroke-linecap:round; stroke-linejoin:round; stroke-width:4; stroke-opacity:1; fill:none" points="301.205,1423.18 301.205,1404.28 "/>
<polyline clip-path="url(#clip410)" style="stroke:#000000; stroke-linecap:round; stroke-linejoin:round; stroke-width:4; stroke-opacity:1; fill:none" points="965.144,1423.18 965.144,1404.28 "/>
<polyline clip-path="url(#clip410)" style="stroke:#000000; stroke-linecap:round; stroke-linejoin:round; stroke-width:4; stroke-opacity:1; fill:none" points="1629.08,1423.18 1629.08,1404.28 "/>
<polyline clip-path="url(#clip410)" style="stroke:#000000; stroke-linecap:round; stroke-linejoin:round; stroke-width:4; stroke-opacity:1; fill:none" points="2293.02,1423.18 2293.02,1404.28 "/>
<path clip-path="url(#clip410)" d="M301.205 1454.1 Q297.594 1454.1 295.766 1457.66 Q293.96 1461.2 293.96 1468.33 Q293.96 1475.44 295.766 1479.01 Q297.594 1482.55 301.205 1482.55 Q304.84 1482.55 306.645 1479.01 Q308.474 1475.44 308.474 1468.33 Q308.474 1461.2 306.645 1457.66 Q304.84 1454.1 301.205 1454.1 M301.205 1450.39 Q307.015 1450.39 310.071 1455 Q313.15 1459.58 313.15 1468.33 Q313.15 1477.06 310.071 1481.67 Q307.015 1486.25 301.205 1486.25 Q295.395 1486.25 292.316 1481.67 Q289.261 1477.06 289.261 1468.33 Q289.261 1459.58 292.316 1455 Q295.395 1450.39 301.205 1450.39 Z" fill="#000000" fill-rule="nonzero" fill-opacity="1" /><path clip-path="url(#clip410)" d="M909.67 1481.64 L917.309 1481.64 L917.309 1455.28 L908.998 1456.95 L908.998 1452.69 L917.262 1451.02 L921.938 1451.02 L921.938 1481.64 L929.577 1481.64 L929.577 1485.58 L909.67 1485.58 L909.67 1481.64 Z" fill="#000000" fill-rule="nonzero" fill-opacity="1" /><path clip-path="url(#clip410)" d="M949.021 1454.1 Q945.41 1454.1 943.582 1457.66 Q941.776 1461.2 941.776 1468.33 Q941.776 1475.44 943.582 1479.01 Q945.41 1482.55 949.021 1482.55 Q952.656 1482.55 954.461 1479.01 Q956.29 1475.44 956.29 1468.33 Q956.29 1461.2 954.461 1457.66 Q952.656 1454.1 949.021 1454.1 M949.021 1450.39 Q954.832 1450.39 957.887 1455 Q960.966 1459.58 960.966 1468.33 Q960.966 1477.06 957.887 1481.67 Q954.832 1486.25 949.021 1486.25 Q943.211 1486.25 940.133 1481.67 Q937.077 1477.06 937.077 1468.33 Q937.077 1459.58 940.133 1455 Q943.211 1450.39 949.021 1450.39 Z" fill="#000000" fill-rule="nonzero" fill-opacity="1" /><path clip-path="url(#clip410)" d="M979.183 1454.1 Q975.572 1454.1 973.743 1457.66 Q971.938 1461.2 971.938 1468.33 Q971.938 1475.44 973.743 1479.01 Q975.572 1482.55 979.183 1482.55 Q982.817 1482.55 984.623 1479.01 Q986.452 1475.44 986.452 1468.33 Q986.452 1461.2 984.623 1457.66 Q982.817 1454.1 979.183 1454.1 M979.183 1450.39 Q984.993 1450.39 988.049 1455 Q991.128 1459.58 991.128 1468.33 Q991.128 1477.06 988.049 1481.67 Q984.993 1486.25 979.183 1486.25 Q973.373 1486.25 970.294 1481.67 Q967.239 1477.06 967.239 1468.33 Q967.239 1459.58 970.294 1455 Q973.373 1450.39 979.183 1450.39 Z" fill="#000000" fill-rule="nonzero" fill-opacity="1" /><path clip-path="url(#clip410)" d="M1009.35 1454.1 Q1005.73 1454.1 1003.91 1457.66 Q1002.1 1461.2 1002.1 1468.33 Q1002.1 1475.44 1003.91 1479.01 Q1005.73 1482.55 1009.35 1482.55 Q1012.98 1482.55 1014.78 1479.01 Q1016.61 1475.44 1016.61 1468.33 Q1016.61 1461.2 1014.78 1457.66 Q1012.98 1454.1 1009.35 1454.1 M1009.35 1450.39 Q1015.16 1450.39 1018.21 1455 Q1021.29 1459.58 1021.29 1468.33 Q1021.29 1477.06 1018.21 1481.67 Q1015.16 1486.25 1009.35 1486.25 Q1003.53 1486.25 1000.46 1481.67 Q997.401 1477.06 997.401 1468.33 Q997.401 1459.58 1000.46 1455 Q1003.53 1450.39 1009.35 1450.39 Z" fill="#000000" fill-rule="nonzero" fill-opacity="1" /><path clip-path="url(#clip410)" d="M1577.69 1481.64 L1594.01 1481.64 L1594.01 1485.58 L1572.07 1485.58 L1572.07 1481.64 Q1574.73 1478.89 1579.31 1474.26 Q1583.92 1469.61 1585.1 1468.27 Q1587.35 1465.74 1588.23 1464.01 Q1589.13 1462.25 1589.13 1460.56 Q1589.13 1457.8 1587.18 1456.07 Q1585.26 1454.33 1582.16 1454.33 Q1579.96 1454.33 1577.51 1455.09 Q1575.08 1455.86 1572.3 1457.41 L1572.3 1452.69 Q1575.12 1451.55 1577.58 1450.97 Q1580.03 1450.39 1582.07 1450.39 Q1587.44 1450.39 1590.63 1453.08 Q1593.83 1455.77 1593.83 1460.26 Q1593.83 1462.39 1593.02 1464.31 Q1592.23 1466.2 1590.12 1468.8 Q1589.55 1469.47 1586.44 1472.69 Q1583.34 1475.88 1577.69 1481.64 Z" fill="#000000" fill-rule="nonzero" fill-opacity="1" /><path clip-path="url(#clip410)" d="M1613.83 1454.1 Q1610.22 1454.1 1608.39 1457.66 Q1606.58 1461.2 1606.58 1468.33 Q1606.58 1475.44 1608.39 1479.01 Q1610.22 1482.55 1613.83 1482.55 Q1617.46 1482.55 1619.27 1479.01 Q1621.1 1475.44 1621.1 1468.33 Q1621.1 1461.2 1619.27 1457.66 Q1617.46 1454.1 1613.83 1454.1 M1613.83 1450.39 Q1619.64 1450.39 1622.69 1455 Q1625.77 1459.58 1625.77 1468.33 Q1625.77 1477.06 1622.69 1481.67 Q1619.64 1486.25 1613.83 1486.25 Q1608.02 1486.25 1604.94 1481.67 Q1601.88 1477.06 1601.88 1468.33 Q1601.88 1459.58 1604.94 1455 Q1608.02 1450.39 1613.83 1450.39 Z" fill="#000000" fill-rule="nonzero" fill-opacity="1" /><path clip-path="url(#clip410)" d="M1643.99 1454.1 Q1640.38 1454.1 1638.55 1457.66 Q1636.74 1461.2 1636.74 1468.33 Q1636.74 1475.44 1638.55 1479.01 Q1640.38 1482.55 1643.99 1482.55 Q1647.62 1482.55 1649.43 1479.01 Q1651.26 1475.44 1651.26 1468.33 Q1651.26 1461.2 1649.43 1457.66 Q1647.62 1454.1 1643.99 1454.1 M1643.99 1450.39 Q1649.8 1450.39 1652.86 1455 Q1655.93 1459.58 1655.93 1468.33 Q1655.93 1477.06 1652.86 1481.67 Q1649.8 1486.25 1643.99 1486.25 Q1638.18 1486.25 1635.1 1481.67 Q1632.05 1477.06 1632.05 1468.33 Q1632.05 1459.58 1635.1 1455 Q1638.18 1450.39 1643.99 1450.39 Z" fill="#000000" fill-rule="nonzero" fill-opacity="1" /><path clip-path="url(#clip410)" d="M1674.15 1454.1 Q1670.54 1454.1 1668.71 1457.66 Q1666.91 1461.2 1666.91 1468.33 Q1666.91 1475.44 1668.71 1479.01 Q1670.54 1482.55 1674.15 1482.55 Q1677.79 1482.55 1679.59 1479.01 Q1681.42 1475.44 1681.42 1468.33 Q1681.42 1461.2 1679.59 1457.66 Q1677.79 1454.1 1674.15 1454.1 M1674.15 1450.39 Q1679.96 1450.39 1683.02 1455 Q1686.1 1459.58 1686.1 1468.33 Q1686.1 1477.06 1683.02 1481.67 Q1679.96 1486.25 1674.15 1486.25 Q1668.34 1486.25 1665.26 1481.67 Q1662.21 1477.06 1662.21 1468.33 Q1662.21 1459.58 1665.26 1455 Q1668.34 1450.39 1674.15 1450.39 Z" fill="#000000" fill-rule="nonzero" fill-opacity="1" /><path clip-path="url(#clip410)" d="M2251.7 1466.95 Q2255.06 1467.66 2256.93 1469.93 Q2258.83 1472.2 2258.83 1475.53 Q2258.83 1480.65 2255.31 1483.45 Q2251.79 1486.25 2245.31 1486.25 Q2243.14 1486.25 2240.82 1485.81 Q2238.53 1485.39 2236.08 1484.54 L2236.08 1480.02 Q2238.02 1481.16 2240.34 1481.74 Q2242.65 1482.32 2245.17 1482.32 Q2249.57 1482.32 2251.86 1480.58 Q2254.18 1478.84 2254.18 1475.53 Q2254.18 1472.48 2252.03 1470.77 Q2249.9 1469.03 2246.08 1469.03 L2242.05 1469.03 L2242.05 1465.19 L2246.26 1465.19 Q2249.71 1465.19 2251.54 1463.82 Q2253.37 1462.43 2253.37 1459.84 Q2253.37 1457.18 2251.47 1455.77 Q2249.6 1454.33 2246.08 1454.33 Q2244.16 1454.33 2241.96 1454.75 Q2239.76 1455.16 2237.12 1456.04 L2237.12 1451.88 Q2239.78 1451.14 2242.1 1450.77 Q2244.43 1450.39 2246.49 1450.39 Q2251.82 1450.39 2254.92 1452.83 Q2258.02 1455.23 2258.02 1459.35 Q2258.02 1462.22 2256.38 1464.21 Q2254.73 1466.18 2251.7 1466.95 Z" fill="#000000" fill-rule="nonzero" fill-opacity="1" /><path clip-path="url(#clip410)" d="M2277.7 1454.1 Q2274.09 1454.1 2272.26 1457.66 Q2270.45 1461.2 2270.45 1468.33 Q2270.45 1475.44 2272.26 1479.01 Q2274.09 1482.55 2277.7 1482.55 Q2281.33 1482.55 2283.14 1479.01 Q2284.97 1475.44 2284.97 1468.33 Q2284.97 1461.2 2283.14 1457.66 Q2281.33 1454.1 2277.7 1454.1 M2277.7 1450.39 Q2283.51 1450.39 2286.56 1455 Q2289.64 1459.58 2289.64 1468.33 Q2289.64 1477.06 2286.56 1481.67 Q2283.51 1486.25 2277.7 1486.25 Q2271.89 1486.25 2268.81 1481.67 Q2265.75 1477.06 2265.75 1468.33 Q2265.75 1459.58 2268.81 1455 Q2271.89 1450.39 2277.7 1450.39 Z" fill="#000000" fill-rule="nonzero" fill-opacity="1" /><path clip-path="url(#clip410)" d="M2307.86 1454.1 Q2304.25 1454.1 2302.42 1457.66 Q2300.61 1461.2 2300.61 1468.33 Q2300.61 1475.44 2302.42 1479.01 Q2304.25 1482.55 2307.86 1482.55 Q2311.49 1482.55 2313.3 1479.01 Q2315.13 1475.44 2315.13 1468.33 Q2315.13 1461.2 2313.3 1457.66 Q2311.49 1454.1 2307.86 1454.1 M2307.86 1450.39 Q2313.67 1450.39 2316.72 1455 Q2319.8 1459.58 2319.8 1468.33 Q2319.8 1477.06 2316.72 1481.67 Q2313.67 1486.25 2307.86 1486.25 Q2302.05 1486.25 2298.97 1481.67 Q2295.91 1477.06 2295.91 1468.33 Q2295.91 1459.58 2298.97 1455 Q2302.05 1450.39 2307.86 1450.39 Z" fill="#000000" fill-rule="nonzero" fill-opacity="1" /><path clip-path="url(#clip410)" d="M2338.02 1454.1 Q2334.41 1454.1 2332.58 1457.66 Q2330.78 1461.2 2330.78 1468.33 Q2330.78 1475.44 2332.58 1479.01 Q2334.41 1482.55 2338.02 1482.55 Q2341.66 1482.55 2343.46 1479.01 Q2345.29 1475.44 2345.29 1468.33 Q2345.29 1461.2 2343.46 1457.66 Q2341.66 1454.1 2338.02 1454.1 M2338.02 1450.39 Q2343.83 1450.39 2346.89 1455 Q2349.97 1459.58 2349.97 1468.33 Q2349.97 1477.06 2346.89 1481.67 Q2343.83 1486.25 2338.02 1486.25 Q2332.21 1486.25 2329.13 1481.67 Q2326.08 1477.06 2326.08 1468.33 Q2326.08 1459.58 2329.13 1455 Q2332.21 1450.39 2338.02 1450.39 Z" fill="#000000" fill-rule="nonzero" fill-opacity="1" /><path clip-path="url(#clip410)" d="M1165.17 1520.52 L1171.6 1520.52 L1171.6 1568.04 L1165.17 1568.04 L1165.17 1520.52 Z" fill="#000000" fill-rule="nonzero" fill-opacity="1" /><path clip-path="url(#clip410)" d="M1189.93 1522.27 L1189.93 1532.4 L1201.99 1532.4 L1201.99 1536.95 L1189.93 1536.95 L1189.93 1556.3 Q1189.93 1560.66 1191.11 1561.9 Q1192.32 1563.14 1195.98 1563.14 L1201.99 1563.14 L1201.99 1568.04 L1195.98 1568.04 Q1189.2 1568.04 1186.62 1565.53 Q1184.04 1562.98 1184.04 1556.3 L1184.04 1536.95 L1179.74 1536.95 L1179.74 1532.4 L1184.04 1532.4 L1184.04 1522.27 L1189.93 1522.27 Z" fill="#000000" fill-rule="nonzero" fill-opacity="1" /><path clip-path="url(#clip410)" d="M1240.19 1548.76 L1240.19 1551.62 L1213.26 1551.62 Q1213.64 1557.67 1216.89 1560.85 Q1220.17 1564 1225.99 1564 Q1229.36 1564 1232.52 1563.17 Q1235.7 1562.35 1238.82 1560.69 L1238.82 1566.23 Q1235.67 1567.57 1232.36 1568.27 Q1229.05 1568.97 1225.64 1568.97 Q1217.11 1568.97 1212.11 1564 Q1207.15 1559.04 1207.15 1550.57 Q1207.15 1541.82 1211.86 1536.69 Q1216.6 1531.54 1224.62 1531.54 Q1231.81 1531.54 1235.98 1536.18 Q1240.19 1540.8 1240.19 1548.76 M1234.33 1547.04 Q1234.27 1542.23 1231.62 1539.37 Q1229.01 1536.5 1224.69 1536.5 Q1219.78 1536.5 1216.82 1539.27 Q1213.9 1542.04 1213.45 1547.07 L1234.33 1547.04 Z" fill="#000000" fill-rule="nonzero" fill-opacity="1" /><path clip-path="url(#clip410)" d="M1270.45 1537.87 Q1269.47 1537.3 1268.29 1537.04 Q1267.14 1536.76 1265.74 1536.76 Q1260.78 1536.76 1258.11 1540 Q1255.46 1543.22 1255.46 1549.27 L1255.46 1568.04 L1249.58 1568.04 L1249.58 1532.4 L1255.46 1532.4 L1255.46 1537.93 Q1257.31 1534.69 1260.27 1533.13 Q1263.23 1531.54 1267.46 1531.54 Q1268.07 1531.54 1268.8 1531.63 Q1269.53 1531.7 1270.42 1531.85 L1270.45 1537.87 Z" fill="#000000" fill-rule="nonzero" fill-opacity="1" /><path clip-path="url(#clip410)" d="M1292.8 1550.12 Q1285.7 1550.12 1282.96 1551.75 Q1280.23 1553.37 1280.23 1557.29 Q1280.23 1560.4 1282.26 1562.25 Q1284.33 1564.07 1287.86 1564.07 Q1292.73 1564.07 1295.66 1560.63 Q1298.62 1557.16 1298.62 1551.43 L1298.62 1550.12 L1292.8 1550.12 M1304.48 1547.71 L1304.48 1568.04 L1298.62 1568.04 L1298.62 1562.63 Q1296.62 1565.88 1293.63 1567.44 Q1290.63 1568.97 1286.31 1568.97 Q1280.83 1568.97 1277.58 1565.91 Q1274.37 1562.82 1274.37 1557.67 Q1274.37 1551.65 1278.38 1548.6 Q1282.42 1545.54 1290.41 1545.54 L1298.62 1545.54 L1298.62 1544.97 Q1298.62 1540.93 1295.95 1538.73 Q1293.31 1536.5 1288.5 1536.5 Q1285.45 1536.5 1282.55 1537.23 Q1279.65 1537.97 1276.98 1539.43 L1276.98 1534.02 Q1280.19 1532.78 1283.22 1532.17 Q1286.24 1531.54 1289.11 1531.54 Q1296.84 1531.54 1300.66 1535.55 Q1304.48 1539.56 1304.48 1547.71 Z" fill="#000000" fill-rule="nonzero" fill-opacity="1" /><path clip-path="url(#clip410)" d="M1322.34 1522.27 L1322.34 1532.4 L1334.4 1532.4 L1334.4 1536.95 L1322.34 1536.95 L1322.34 1556.3 Q1322.34 1560.66 1323.51 1561.9 Q1324.72 1563.14 1328.38 1563.14 L1334.4 1563.14 L1334.4 1568.04 L1328.38 1568.04 Q1321.6 1568.04 1319.03 1565.53 Q1316.45 1562.98 1316.45 1556.3 L1316.45 1536.95 L1312.15 1536.95 L1312.15 1532.4 L1316.45 1532.4 L1316.45 1522.27 L1322.34 1522.27 Z" fill="#000000" fill-rule="nonzero" fill-opacity="1" /><path clip-path="url(#clip410)" d="M1342.1 1532.4 L1347.96 1532.4 L1347.96 1568.04 L1342.1 1568.04 L1342.1 1532.4 M1342.1 1518.52 L1347.96 1518.52 L1347.96 1525.93 L1342.1 1525.93 L1342.1 1518.52 Z" fill="#000000" fill-rule="nonzero" fill-opacity="1" /><path clip-path="url(#clip410)" d="M1374.02 1536.5 Q1369.31 1536.5 1366.58 1540.19 Q1363.84 1543.85 1363.84 1550.25 Q1363.84 1556.65 1366.55 1560.34 Q1369.28 1564 1374.02 1564 Q1378.7 1564 1381.44 1560.31 Q1384.18 1556.62 1384.18 1550.25 Q1384.18 1543.92 1381.44 1540.23 Q1378.7 1536.5 1374.02 1536.5 M1374.02 1531.54 Q1381.66 1531.54 1386.02 1536.5 Q1390.38 1541.47 1390.38 1550.25 Q1390.38 1559 1386.02 1564 Q1381.66 1568.97 1374.02 1568.97 Q1366.35 1568.97 1361.99 1564 Q1357.66 1559 1357.66 1550.25 Q1357.66 1541.47 1361.99 1536.5 Q1366.35 1531.54 1374.02 1531.54 Z" fill="#000000" fill-rule="nonzero" fill-opacity="1" /><path clip-path="url(#clip410)" d="M1429.72 1546.53 L1429.72 1568.04 L1423.87 1568.04 L1423.87 1546.72 Q1423.87 1541.66 1421.89 1539.14 Q1419.92 1536.63 1415.97 1536.63 Q1411.23 1536.63 1408.5 1539.65 Q1405.76 1542.68 1405.76 1547.9 L1405.76 1568.04 L1399.87 1568.04 L1399.87 1532.4 L1405.76 1532.4 L1405.76 1537.93 Q1407.86 1534.72 1410.69 1533.13 Q1413.56 1531.54 1417.28 1531.54 Q1423.42 1531.54 1426.57 1535.36 Q1429.72 1539.14 1429.72 1546.53 Z" fill="#000000" fill-rule="nonzero" fill-opacity="1" /><polyline clip-path="url(#clip410)" style="stroke:#000000; stroke-linecap:round; stroke-linejoin:round; stroke-width:4; stroke-opacity:1; fill:none" points="242.135,1423.18 242.135,47.2441 "/>
<polyline clip-path="url(#clip410)" style="stroke:#000000; stroke-linecap:round; stroke-linejoin:round; stroke-width:4; stroke-opacity:1; fill:none" points="242.135,1423.18 261.032,1423.18 "/>
<polyline clip-path="url(#clip410)" style="stroke:#000000; stroke-linecap:round; stroke-linejoin:round; stroke-width:4; stroke-opacity:1; fill:none" points="242.135,1205.15 261.032,1205.15 "/>
<polyline clip-path="url(#clip410)" style="stroke:#000000; stroke-linecap:round; stroke-linejoin:round; stroke-width:4; stroke-opacity:1; fill:none" points="242.135,987.114 261.032,987.114 "/>
<polyline clip-path="url(#clip410)" style="stroke:#000000; stroke-linecap:round; stroke-linejoin:round; stroke-width:4; stroke-opacity:1; fill:none" points="242.135,769.081 261.032,769.081 "/>
<polyline clip-path="url(#clip410)" style="stroke:#000000; stroke-linecap:round; stroke-linejoin:round; stroke-width:4; stroke-opacity:1; fill:none" points="242.135,551.048 261.032,551.048 "/>
<polyline clip-path="url(#clip410)" style="stroke:#000000; stroke-linecap:round; stroke-linejoin:round; stroke-width:4; stroke-opacity:1; fill:none" points="242.135,333.015 261.032,333.015 "/>
<polyline clip-path="url(#clip410)" style="stroke:#000000; stroke-linecap:round; stroke-linejoin:round; stroke-width:4; stroke-opacity:1; fill:none" points="242.135,114.982 261.032,114.982 "/>
<path clip-path="url(#clip410)" d="M114.26 1423.63 L143.936 1423.63 L143.936 1427.57 L114.26 1427.57 L114.26 1423.63 Z" fill="#000000" fill-rule="nonzero" fill-opacity="1" /><path clip-path="url(#clip410)" d="M154.839 1436.52 L162.477 1436.52 L162.477 1410.16 L154.167 1411.83 L154.167 1407.57 L162.431 1405.9 L167.107 1405.9 L167.107 1436.52 L174.746 1436.52 L174.746 1440.46 L154.839 1440.46 L154.839 1436.52 Z" fill="#000000" fill-rule="nonzero" fill-opacity="1" /><path clip-path="url(#clip410)" d="M194.19 1408.98 Q190.579 1408.98 188.75 1412.54 Q186.945 1416.08 186.945 1423.21 Q186.945 1430.32 188.75 1433.89 Q190.579 1437.43 194.19 1437.43 Q197.825 1437.43 199.63 1433.89 Q201.459 1430.32 201.459 1423.21 Q201.459 1416.08 199.63 1412.54 Q197.825 1408.98 194.19 1408.98 M194.19 1405.27 Q200 1405.27 203.056 1409.88 Q206.135 1414.46 206.135 1423.21 Q206.135 1431.94 203.056 1436.55 Q200 1441.13 194.19 1441.13 Q188.38 1441.13 185.301 1436.55 Q182.246 1431.94 182.246 1423.21 Q182.246 1414.46 185.301 1409.88 Q188.38 1405.27 194.19 1405.27 Z" fill="#000000" fill-rule="nonzero" fill-opacity="1" /><path clip-path="url(#clip410)" d="M144.607 1205.6 L174.283 1205.6 L174.283 1209.53 L144.607 1209.53 L144.607 1205.6 Z" fill="#000000" fill-rule="nonzero" fill-opacity="1" /><path clip-path="url(#clip410)" d="M184.514 1221.71 L184.514 1217.45 Q186.274 1218.28 188.079 1218.72 Q189.885 1219.16 191.621 1219.16 Q196.25 1219.16 198.681 1216.06 Q201.135 1212.94 201.482 1206.59 Q200.139 1208.58 198.079 1209.65 Q196.019 1210.71 193.519 1210.71 Q188.334 1210.71 185.301 1207.59 Q182.292 1204.44 182.292 1199 Q182.292 1193.68 185.44 1190.46 Q188.588 1187.24 193.82 1187.24 Q199.815 1187.24 202.963 1191.85 Q206.135 1196.43 206.135 1205.18 Q206.135 1213.35 202.246 1218.24 Q198.38 1223.1 191.829 1223.1 Q190.07 1223.1 188.264 1222.75 Q186.459 1222.4 184.514 1221.71 M193.82 1207.06 Q196.968 1207.06 198.797 1204.9 Q200.649 1202.75 200.649 1199 Q200.649 1195.27 198.797 1193.12 Q196.968 1190.95 193.82 1190.95 Q190.672 1190.95 188.82 1193.12 Q186.991 1195.27 186.991 1199 Q186.991 1202.75 188.82 1204.9 Q190.672 1207.06 193.82 1207.06 Z" fill="#000000" fill-rule="nonzero" fill-opacity="1" /><path clip-path="url(#clip410)" d="M144.515 987.565 L174.19 987.565 L174.19 991.5 L144.515 991.5 L144.515 987.565 Z" fill="#000000" fill-rule="nonzero" fill-opacity="1" /><path clip-path="url(#clip410)" d="M194.283 987.982 Q190.95 987.982 189.028 989.764 Q187.13 991.547 187.13 994.672 Q187.13 997.797 189.028 999.579 Q190.95 1001.36 194.283 1001.36 Q197.616 1001.36 199.537 999.579 Q201.459 997.773 201.459 994.672 Q201.459 991.547 199.537 989.764 Q197.639 987.982 194.283 987.982 M189.607 985.991 Q186.598 985.25 184.908 983.19 Q183.241 981.13 183.241 978.167 Q183.241 974.024 186.181 971.616 Q189.144 969.209 194.283 969.209 Q199.445 969.209 202.385 971.616 Q205.324 974.024 205.324 978.167 Q205.324 981.13 203.635 983.19 Q201.968 985.25 198.982 985.991 Q202.362 986.778 204.237 989.07 Q206.135 991.361 206.135 994.672 Q206.135 999.695 203.056 1002.38 Q200 1005.07 194.283 1005.07 Q188.565 1005.07 185.487 1002.38 Q182.431 999.695 182.431 994.672 Q182.431 991.361 184.329 989.07 Q186.227 986.778 189.607 985.991 M187.894 978.607 Q187.894 981.292 189.561 982.797 Q191.25 984.301 194.283 984.301 Q197.292 984.301 198.982 982.797 Q200.695 981.292 200.695 978.607 Q200.695 975.922 198.982 974.417 Q197.292 972.912 194.283 972.912 Q191.25 972.912 189.561 974.417 Q187.894 975.922 187.894 978.607 Z" fill="#000000" fill-rule="nonzero" fill-opacity="1" /><path clip-path="url(#clip410)" d="M145.325 769.532 L175.001 769.532 L175.001 773.467 L145.325 773.467 L145.325 769.532 Z" fill="#000000" fill-rule="nonzero" fill-opacity="1" /><path clip-path="url(#clip410)" d="M183.913 751.801 L206.135 751.801 L206.135 753.791 L193.588 786.361 L188.704 786.361 L200.51 755.736 L183.913 755.736 L183.913 751.801 Z" fill="#000000" fill-rule="nonzero" fill-opacity="1" /><path clip-path="url(#clip410)" d="M144.26 551.499 L173.936 551.499 L173.936 555.434 L144.26 555.434 L144.26 551.499 Z" fill="#000000" fill-rule="nonzero" fill-opacity="1" /><path clip-path="url(#clip410)" d="M194.607 549.184 Q191.459 549.184 189.607 551.337 Q187.778 553.49 187.778 557.24 Q187.778 560.967 189.607 563.143 Q191.459 565.295 194.607 565.295 Q197.755 565.295 199.584 563.143 Q201.436 560.967 201.436 557.24 Q201.436 553.49 199.584 551.337 Q197.755 549.184 194.607 549.184 M203.889 534.532 L203.889 538.791 Q202.13 537.957 200.325 537.518 Q198.542 537.078 196.783 537.078 Q192.153 537.078 189.7 540.203 Q187.269 543.328 186.922 549.647 Q188.288 547.633 190.348 546.569 Q192.408 545.481 194.885 545.481 Q200.093 545.481 203.102 548.652 Q206.135 551.8 206.135 557.24 Q206.135 562.564 202.987 565.781 Q199.838 568.999 194.607 568.999 Q188.612 568.999 185.44 564.416 Q182.269 559.809 182.269 551.082 Q182.269 542.888 186.158 538.027 Q190.047 533.143 196.598 533.143 Q198.357 533.143 200.139 533.49 Q201.945 533.837 203.889 534.532 Z" fill="#000000" fill-rule="nonzero" fill-opacity="1" /><path clip-path="url(#clip410)" d="M145.417 333.466 L175.093 333.466 L175.093 337.401 L145.417 337.401 L145.417 333.466 Z" fill="#000000" fill-rule="nonzero" fill-opacity="1" /><path clip-path="url(#clip410)" d="M185.232 315.735 L203.588 315.735 L203.588 319.67 L189.514 319.67 L189.514 328.142 Q190.533 327.795 191.551 327.633 Q192.57 327.448 193.588 327.448 Q199.375 327.448 202.755 330.619 Q206.135 333.79 206.135 339.207 Q206.135 344.785 202.662 347.887 Q199.19 350.966 192.871 350.966 Q190.695 350.966 188.426 350.596 Q186.181 350.225 183.774 349.484 L183.774 344.785 Q185.857 345.92 188.079 346.475 Q190.301 347.031 192.778 347.031 Q196.783 347.031 199.121 344.924 Q201.459 342.818 201.459 339.207 Q201.459 335.596 199.121 333.489 Q196.783 331.383 192.778 331.383 Q190.903 331.383 189.028 331.799 Q187.176 332.216 185.232 333.096 L185.232 315.735 Z" fill="#000000" fill-rule="nonzero" fill-opacity="1" /><path clip-path="url(#clip410)" d="M143.936 115.433 L173.612 115.433 L173.612 119.368 L143.936 119.368 L143.936 115.433 Z" fill="#000000" fill-rule="nonzero" fill-opacity="1" /><path clip-path="url(#clip410)" d="M196.551 101.776 L184.746 120.225 L196.551 120.225 L196.551 101.776 M195.325 97.7016 L201.204 97.7016 L201.204 120.225 L206.135 120.225 L206.135 124.114 L201.204 124.114 L201.204 132.262 L196.551 132.262 L196.551 124.114 L180.95 124.114 L180.95 119.6 L195.325 97.7016 Z" fill="#000000" fill-rule="nonzero" fill-opacity="1" /><path clip-path="url(#clip410)" d="M16.4842 816.375 L16.4842 786.329 L21.895 786.329 L21.895 809.945 L35.9632 809.945 L35.9632 787.315 L41.3741 787.315 L41.3741 809.945 L58.5933 809.945 L58.5933 785.756 L64.0042 785.756 L64.0042 816.375 L16.4842 816.375 Z" fill="#000000" fill-rule="nonzero" fill-opacity="1" /><path clip-path="url(#clip410)" d="M16.4842 775.189 L16.4842 768.759 L58.5933 768.759 L58.5933 745.62 L64.0042 745.62 L64.0042 775.189 L16.4842 775.189 Z" fill="#000000" fill-rule="nonzero" fill-opacity="1" /><path clip-path="url(#clip410)" d="M41.3104 732.443 L58.7206 732.443 L58.7206 722.13 Q58.7206 716.942 56.5881 714.46 Q54.4238 711.945 49.9996 711.945 Q45.5436 711.945 43.4429 714.46 Q41.3104 716.942 41.3104 722.13 L41.3104 732.443 M21.7677 732.443 L36.0905 732.443 L36.0905 722.926 Q36.0905 718.216 34.34 715.924 Q32.5576 713.6 28.9291 713.6 Q25.3325 713.6 23.5501 715.924 Q21.7677 718.216 21.7677 722.926 L21.7677 732.443 M16.4842 738.872 L16.4842 722.449 Q16.4842 715.096 19.5397 711.118 Q22.5952 707.139 28.2289 707.139 Q32.5894 707.139 35.1675 709.176 Q37.7456 711.213 38.3822 715.16 Q39.4007 710.418 42.6472 707.808 Q45.8619 705.166 50.6998 705.166 Q57.0655 705.166 60.5348 709.495 Q64.0042 713.823 64.0042 721.812 L64.0042 738.872 L16.4842 738.872 Z" fill="#000000" fill-rule="nonzero" fill-opacity="1" /><path clip-path="url(#clip410)" d="M20.8447 676.011 Q20.8447 683.013 26.0645 687.151 Q31.2844 691.257 40.2919 691.257 Q49.2675 691.257 54.4874 687.151 Q59.7073 683.013 59.7073 676.011 Q59.7073 669.009 54.4874 664.935 Q49.2675 660.829 40.2919 660.829 Q31.2844 660.829 26.0645 664.935 Q20.8447 669.009 20.8447 676.011 M15.6248 676.011 Q15.6248 666.017 22.3406 660.033 Q29.0246 654.049 40.2919 654.049 Q51.5274 654.049 58.2432 660.033 Q64.9272 666.017 64.9272 676.011 Q64.9272 686.037 58.2432 692.052 Q51.5592 698.036 40.2919 698.036 Q29.0246 698.036 22.3406 692.052 Q15.6248 686.037 15.6248 676.011 Z" fill="#000000" fill-rule="nonzero" fill-opacity="1" /><polyline clip-path="url(#clip412)" style="stroke:#009af9; stroke-linecap:round; stroke-linejoin:round; stroke-width:4; stroke-opacity:1; fill:none" points="301.869,1186.31 302.533,2577.09 303.197,2211.6 303.861,1281.77 304.525,2726.43 305.189,681.767 305.853,885.14 306.517,768.082 307.181,27668.7 307.845,1208.84 308.509,884.325 309.173,1193.36 309.836,1119.79 310.5,938.28 311.164,655.456 311.828,838.384 312.492,1448.97 313.156,1714.26 313.82,881.123 314.484,1047.98 315.148,1351.63 315.812,20712 316.476,759 317.14,676.54 317.804,1097.42 318.468,1068.61 319.132,3404.78 319.796,674.865 320.46,1042.1 321.123,669.734 321.787,830.511 322.451,543.505 323.115,1691.7 323.779,1229.92 324.443,1798.42 325.107,1041.74 325.771,934.942 326.435,616.541 327.099,907.383 327.763,1027.47 328.427,332917 329.091,1043.51 329.755,1152.39 330.419,1103.17 331.083,1006.88 331.746,396.327 332.41,3225.14 333.074,2261.44 333.738,855.753 334.402,890.084 335.066,852.504 335.73,1498.05 336.394,757.142 337.058,964.86 337.722,2232.53 338.386,970.821 339.05,955.293 339.714,1008.87 340.378,13025.4 341.042,3488.64 341.706,723.987 342.369,995.985 343.033,1425.9 343.697,853.255 344.361,1097.97 345.025,1150.47 345.689,177378 346.353,932.988 347.017,693.888 347.681,872.048 348.345,4529.74 349.009,1667.83 349.673,843.621 350.337,1074.8 351.001,3737.99 351.665,1008.69 352.329,976.626 352.993,1644.06 353.656,2408.25 354.32,894.909 354.984,1123.29 355.648,1081.8 356.312,1026.27 356.976,1237.07 357.64,960.181 358.304,1307.98 358.968,1415.25 359.632,3193.69 360.296,1271.44 360.96,762.866 361.624,1024.33 362.288,738.499 362.952,989.42 363.616,1545.95 364.279,6055.19 364.943,3081.82 365.607,761.047 366.271,16470.2 366.935,1045.66 367.599,957.942 368.263,2000.56 368.927,909.333 369.591,913.962 370.255,784.434 370.919,1088.3 371.583,780.69 372.247,1817 372.911,1218.2 373.575,2997.77 374.239,953.437 374.902,924.315 375.566,1121.68 376.23,2751.29 376.894,1337.89 377.558,1481.61 378.222,1425.91 378.886,1281.36 379.55,896.06 380.214,1113.84 380.878,5099.35 381.542,983.779 382.206,1240.9 382.87,904.389 383.534,25457.9 384.198,742.775 384.862,1087.59 385.526,1044.82 386.189,1973.8 386.853,2406.68 387.517,921.781 388.181,1223.28 388.845,597.539 389.509,668.175 390.173,3413.54 390.837,2771.52 391.501,2338.15 392.165,2259.38 392.829,797.429 393.493,629.234 394.157,950.493 394.821,2124.3 395.485,2169.72 396.149,1156.07 396.812,1998.85 397.476,963.339 398.14,992.681 398.804,3230.15 399.468,1766.36 400.132,1288.85 400.796,837.342 401.46,611.406 402.124,1217.07 402.788,1902.34 403.452,947.544 404.116,1078.03 404.78,1048.3 405.444,9526.18 406.108,1106.47 406.772,834.758 407.435,837.815 408.099,1086.97 408.763,1342.31 409.427,959.895 410.091,809.12 410.755,801.656 411.419,1023.36 412.083,765.218 412.747,479.869 413.411,1299.5 414.075,1536.44 414.739,600.63 415.403,5046.04 416.067,2273.33 416.731,1538.31 417.395,977.513 418.058,3487.15 418.722,1273.26 419.386,819.079 420.05,826.136 420.714,1206.49 421.378,1054.95 422.042,871.891 422.706,1981.23 423.37,1186.04 424.034,1137.88 424.698,1313.55 425.362,482.529 426.026,2726.07 426.69,1146.18 427.354,730.62 428.018,1089.38 428.682,1649.49 429.345,716.816 430.009,1810.72 430.673,996.519 431.337,1099.89 432.001,1014.96 432.665,2227.73 433.329,888.896 433.993,785.431 434.657,1513.8 435.321,979.694 435.985,1311.19 436.649,1066.61 437.313,1331.62 437.977,862.587 438.641,1281.33 439.305,749.84 439.968,948.367 440.632,823.947 441.296,1778.43 441.96,643.478 442.624,917.946 443.288,798.685 443.952,1143.08 444.616,1080.65 445.28,1474.24 445.944,1145.59 446.608,728.345 447.272,949.499 447.936,761.653 448.6,748.836 449.264,898.422 449.928,1045.53 450.591,853.503 451.255,1842.94 451.919,862.268 452.583,15993.2 453.247,1419.79 453.911,957.994 454.575,682.262 455.239,1491.1 455.903,948.066 456.567,4505.67 457.231,852.884 457.895,1344.6 458.559,2639.94 459.223,1726.09 459.887,1237.73 460.551,1060.56 461.215,1331.58 461.878,1160.1 462.542,4623.57 463.206,1304.87 463.87,1333.7 464.534,1145.71 465.198,3333.69 465.862,1259.91 466.526,4657.95 467.19,976.071 467.854,883.022 468.518,842.54 469.182,917.655 469.846,1038.29 470.51,1391.92 471.174,1085.92 471.838,1656.16 472.501,680.132 473.165,1164.41 473.829,657.099 474.493,1515.78 475.157,1043.39 475.821,1115.35 476.485,3136.64 477.149,793.702 477.813,2491.53 478.477,1389.01 479.141,879.754 479.805,669.136 480.469,1299 481.133,674.929 481.797,2113.55 482.461,1012.63 483.124,896.709 483.788,708.271 484.452,2128.05 485.116,1163.74 485.78,627.107 486.444,4083.58 487.108,1113.2 487.772,2772.48 488.436,1665.55 489.1,720.541 489.764,843.931 490.428,746.699 491.092,1383.07 491.756,2545.91 492.42,1135.64 493.084,768.026 493.748,1292.43 494.411,864.805 495.075,1744.67 495.739,1498.84 496.403,6514.14 497.067,2329.41 497.731,1165.76 498.395,2494.2 499.059,862.263 499.723,2240.62 500.387,1155.31 501.051,975.001 501.715,1113.59 502.379,1158.07 503.043,2415.92 503.707,947.125 504.371,928.236 505.034,908.737 505.698,1065.36 506.362,1265.98 507.026,1172.49 507.69,1348.55 508.354,2290.06 509.018,1088.15 509.682,1107.6 510.346,1057.87 511.01,1394.5 511.674,729.584 512.338,800.404 513.002,1935.5 513.666,1177.76 514.33,885.683 514.994,788.609 515.657,580.924 516.321,1026.86 516.985,936.418 517.649,4815.53 518.313,4000.94 518.977,5359.31 519.641,1250.71 520.305,859.433 520.969,1288.89 521.633,815.349 522.297,987.276 522.961,904.342 523.625,1267.65 524.289,2400.6 524.953,703.673 525.617,2046.38 526.281,772.083 526.944,1222.74 527.608,1152.78 528.272,1521.64 528.936,828.69 529.6,1638.17 530.264,1026.81 530.928,1594.44 531.592,4107.69 532.256,1001.22 532.92,3023.47 533.584,1113.27 534.248,1248.17 534.912,12745.3 535.576,2228.07 536.24,1508.23 536.904,1183.31 537.567,1037.09 538.231,10272.6 538.895,904.139 539.559,1302.49 540.223,1753.5 540.887,1947.09 541.551,2895.68 542.215,994.771 542.879,1766.48 543.543,724.314 544.207,4226.01 544.871,882.574 545.535,782.934 546.199,4232.44 546.863,674.93 547.527,4414.11 548.19,1905.01 548.854,1255.8 549.518,1112.9 550.182,1092.89 550.846,5194.17 551.51,10321.1 552.174,4992.98 552.838,2558.14 553.502,1152.91 554.166,728.776 554.83,1093.46 555.494,1002.27 556.158,2481.53 556.822,1232.1 557.486,1461.11 558.15,1290.59 558.813,866.901 559.477,4817.11 560.141,997.912 560.805,1071.8 561.469,1205.63 562.133,1026.5 562.797,1085.56 563.461,1636.12 564.125,1533.24 564.789,1961.66 565.453,854.226 566.117,1649.42 566.781,1356.12 567.445,3005.38 568.109,1579.99 568.773,2149.75 569.437,872.334 570.1,1689.28 570.764,903.091 571.428,1366.72 572.092,1380.08 572.756,1295.51 573.42,778.058 574.084,1046.41 574.748,872.917 575.412,1919.89 576.076,1820.77 576.74,1184.56 577.404,2655.33 578.068,815.663 578.732,2250.21 579.396,906.65 580.06,2702.48 580.723,4002 581.387,1082.7 582.051,4219.57 582.715,841.332 583.379,5457.16 584.043,4870.78 584.707,2781.9 585.371,787.92 586.035,502.208 586.699,747.836 587.363,3480.27 588.027,1013.14 588.691,896.205 589.355,1726.61 590.019,1387.31 590.683,603.237 591.346,1620.68 592.01,1096.96 592.674,1838.11 593.338,920.71 594.002,1697.65 594.666,8073.37 595.33,1148.09 595.994,1134.35 596.658,1152.29 597.322,758.446 597.986,879.702 598.65,1084.79 599.314,605.933 599.978,922.405 600.642,1123.61 601.306,1092.26 601.97,1033.54 602.633,1097.35 603.297,2076.53 603.961,991.8 604.625,911.039 605.289,1707.44 605.953,583.667 606.617,1643.8 607.281,4587.7 607.945,859.973 608.609,1208.38 609.273,2404.41 609.937,1229.17 610.601,1162.88 611.265,3860.99 611.929,2765.81 612.593,1038.55 613.256,1935.14 613.92,826.765 614.584,709.927 615.248,1432.56 615.912,1279.26 616.576,1397.89 617.24,1026.38 617.904,981.017 618.568,38938 619.232,1265.54 619.896,1288.31 620.56,1051.94 621.224,1429.83 621.888,1222.4 622.552,1203.74 623.216,840.25 623.879,1222 624.543,1217.08 625.207,1199.5 625.871,1300.95 626.535,1079.4 627.199,939.471 627.863,1142.33 628.527,1126.88 629.191,1268.75 629.855,1254.55 630.519,732.892 631.183,1542.5 631.847,1364.24 632.511,2736.38 633.175,1030.62 633.839,1026.67 634.503,874.636 635.166,2065.05 635.83,2784.89 636.494,792.722 637.158,1025.75 637.822,1376.46 638.486,1096.4 639.15,14389.9 639.814,1179.11 640.478,2900.77 641.142,714.089 641.806,917.471 642.47,532.326 643.134,930.492 643.798,1555.99 644.462,1216.72 645.126,872.645 645.789,1842.17 646.453,1013.57 647.117,600.327 647.781,1981.85 648.445,89894.4 649.109,871.664 649.773,1488.21 650.437,859.141 651.101,890.676 651.765,1401.95 652.429,851.673 653.093,951.45 653.757,949.766 654.421,1745.33 655.085,2820.19 655.749,1141.81 656.412,1048.46 657.076,2177.89 657.74,2620.43 658.404,1734.06 659.068,1078 659.732,1003.91 660.396,960.702 661.06,1263.34 661.724,1038.47 662.388,738.97 663.052,1302.2 663.716,1792.88 664.38,2607.6 665.044,1144.37 665.708,1439.44 666.372,825.184 667.036,773.369 667.699,1140.16 668.363,879.775 669.027,1619.77 669.691,818.937 670.355,2385.26 671.019,1293.39 671.683,786.724 672.347,1466.9 673.011,1014.04 673.675,1994.96 674.339,2504.01 675.003,1201.17 675.667,998.713 676.331,1394.45 676.995,3352.74 677.659,1107.74 678.322,891.404 678.986,1016.03 679.65,1168.74 680.314,720.602 680.978,1249.31 681.642,2041.04 682.306,1181.56 682.97,1520.52 683.634,810.651 684.298,611.04 684.962,959.298 685.626,511.009 686.29,621.266 686.954,1404.93 687.618,909.635 688.282,4237.38 688.945,869.742 689.609,5029.4 690.273,699.337 690.937,1011.43 691.601,2647.15 692.265,14097.6 692.929,1276.02 693.593,1246.9 694.257,1189.18 694.921,479.328 695.585,825.861 696.249,974.098 696.913,1941.15 697.577,1680.38 698.241,953.053 698.905,1234.89 699.569,14184.3 700.232,3445.53 700.896,1243.66 701.56,2991.21 702.224,1067.29 702.888,1021.71 703.552,1391.81 704.216,1115.41 704.88,644.103 705.544,13175.1 706.208,2927.29 706.872,935.168 707.536,1430.4 708.2,1215.92 708.864,1199.64 709.528,873.086 710.192,1326.05 710.855,909.579 711.519,7505.64 712.183,1040.5 712.847,2185.18 713.511,902.599 714.175,1259.41 714.839,256.358 715.503,3176.65 716.167,1389.4 716.831,2222.74 717.495,969.457 718.159,1425 718.823,1340.1 719.487,1390.64 720.151,1129.2 720.815,1189.2 721.478,1452.38 722.142,697.423 722.806,950.522 723.47,801.007 724.134,1162.37 724.798,3744.2 725.462,1261.96 726.126,1347.87 726.79,1089.9 727.454,1716.29 728.118,855.942 728.782,1007.95 729.446,1314.6 730.11,644.236 730.774,1138.11 731.438,5803.87 732.101,869.233 732.765,13081.1 733.429,2772.12 734.093,1167.79 734.757,161449 735.421,1038.67 736.085,926.69 736.749,996.06 737.413,821.468 738.077,1034.51 738.741,832.4 739.405,1012.26 740.069,2346.73 740.733,1049.69 741.397,1090.04 742.061,642.953 742.725,748.01 743.388,1058.87 744.052,977.177 744.716,1529.6 745.38,975.908 746.044,771.375 746.708,1385.04 747.372,1378.72 748.036,1154.08 748.7,2763.41 749.364,1962.49 750.028,1009.7 750.692,2084 751.356,2837.85 752.02,957.327 752.684,2843.38 753.348,3476.78 754.011,750.249 754.675,2328.96 755.339,995.578 756.003,962.323 756.667,949.324 757.331,899.522 757.995,1401.57 758.659,2133.65 759.323,786.699 759.987,1456.85 760.651,997.582 761.315,735.615 761.979,1508.08 762.643,919.664 763.307,926.635 763.971,2151.95 764.634,688.504 765.298,1350.26 765.962,1102.9 766.626,2754.04 767.29,1084.71 767.954,725.412 768.618,942.639 769.282,784.198 769.946,1459.77 770.61,1969.38 771.274,1092.12 771.938,1277.53 772.602,1139.33 773.266,944.551 773.93,833.054 774.594,1421.94 775.258,981.509 775.921,1038.09 776.585,801.347 777.249,3226.98 777.913,1109.74 778.577,814.828 779.241,877.654 779.905,1791.9 780.569,1257.77 781.233,1058.46 781.897,1389.87 782.561,1365.48 783.225,1065.61 783.889,1080.24 784.553,1674.26 785.217,2232.06 785.881,786.494 786.544,1740.8 787.208,923.799 787.872,790.426 788.536,1298.42 789.2,792.083 789.864,750.198 790.528,738.885 791.192,1085.68 791.856,954.592 792.52,1619.63 793.184,2042.9 793.848,3764.99 794.512,1369.67 795.176,2382.94 795.84,1072.33 796.504,898.84 797.167,2282.01 797.831,869.088 798.495,1167.81 799.159,3764 799.823,951.362 800.487,989.299 801.151,815.086 801.815,573.455 802.479,1108.12 803.143,1011.83 803.807,1405.87 804.471,1266.1 805.135,1283.45 805.799,11499 806.463,947.75 807.127,1127.66 807.791,1302.33 808.454,1031.06 809.118,1202.99 809.782,1016.55 810.446,936.454 811.11,816.38 811.774,1246.53 812.438,1339.23 813.102,931.753 813.766,912.422 814.43,1396.95 815.094,907.318 815.758,659.07 816.422,1547.81 817.086,668.717 817.75,1262.85 818.414,1142.84 819.077,785.517 819.741,809.367 820.405,800.925 821.069,956 821.733,1753.48 822.397,911.547 823.061,930.763 823.725,652.321 824.389,953.308 825.053,11792.3 825.717,518.073 826.381,830.844 827.045,741.607 827.709,998.379 828.373,2687.87 829.037,1248.4 829.7,1492.73 830.364,1515.4 831.028,890.917 831.692,953.462 832.356,1213.5 833.02,849.176 833.684,965.608 834.348,1084.96 835.012,1274.85 835.676,4514.75 836.34,1317.52 837.004,1074.53 837.668,1246.35 838.332,750.853 838.996,977.886 839.66,4677.54 840.324,3512.49 840.987,1244.66 841.651,1199.53 842.315,1404.05 842.979,1367.21 843.643,1133.53 844.307,1044.95 844.971,492.121 845.635,3196.69 846.299,860.284 846.963,840.459 847.627,1266 848.291,844.18 848.955,3669.26 849.619,661.998 850.283,651.666 850.947,986.993 851.61,1081.89 852.274,1154.51 852.938,3024.75 853.602,4212.87 854.266,1313.89 854.93,1137.18 855.594,1094.68 856.258,1016 856.922,985.575 857.586,2982.02 858.25,2626.98 858.914,3535.92 859.578,834.357 860.242,793.881 860.906,57809.2 861.57,1148.45 862.233,1006.88 862.897,1365.51 863.561,624.964 864.225,949.446 864.889,1213.61 865.553,893.347 866.217,880.378 866.881,925.904 867.545,832.786 868.209,2537.59 868.873,2175.19 869.537,1955.89 870.201,973.734 870.865,1243.23 871.529,2503.59 872.193,812.07 872.856,7888.67 873.52,651.676 874.184,2560.03 874.848,866.879 875.512,1079.71 876.176,1048.57 876.84,715.973 877.504,740.106 878.168,1588.17 878.832,1418.11 879.496,1017.5 880.16,2605.16 880.824,590046 881.488,5520.74 882.152,1074.51 882.816,2292.08 883.48,494.856 884.143,1949.66 884.807,1608.58 885.471,1066.04 886.135,1882.38 886.799,1384.4 887.463,1799 888.127,3577.15 888.791,742.928 889.455,1530.64 890.119,1813.53 890.783,2567.75 891.447,2678.44 892.111,756.012 892.775,2152.71 893.439,1380.03 894.103,2774.66 894.766,765.203 895.43,751.285 896.094,537.067 896.758,5286.67 897.422,3344.89 898.086,999.679 898.75,839.527 899.414,1041.47 900.078,777.59 900.742,1317.01 901.406,1012.2 902.07,1081.87 902.734,888.925 903.398,938.727 904.062,830.155 904.726,1096.02 905.389,861.622 906.053,1102.82 906.717,1077.86 907.381,886.474 908.045,1345.79 908.709,2505.64 909.373,1147.08 910.037,1033.21 910.701,975.331 911.365,1218.92 912.029,1300.37 912.693,1090.44 913.357,729.834 914.021,846.271 914.685,778.336 915.349,826.675 916.013,842.277 916.676,1069.67 917.34,22936.7 918.004,1555.62 918.668,503.057 919.332,3068.53 919.996,1878.15 920.66,1278.48 921.324,556.813 921.988,1211.04 922.652,530.525 923.316,1048.24 923.98,1434.17 924.644,1123.64 925.308,609.84 925.972,1346.39 926.636,1231.58 927.299,3743.3 927.963,1613.87 928.627,1161.56 929.291,578.666 929.955,1208.25 930.619,4117.98 931.283,664.409 931.947,4510.87 932.611,7140.73 933.275,1270.93 933.939,929.377 934.603,1177.97 935.267,831.802 935.931,1187.33 936.595,785.487 937.259,2232.5 937.922,457.699 938.586,1593.66 939.25,1125.06 939.914,1053.65 940.578,747.013 941.242,782.092 941.906,736.049 942.57,841.509 943.234,1207.6 943.898,1197.04 944.562,3997.13 945.226,9477.41 945.89,2076.59 946.554,860.373 947.218,1181.37 947.882,773.801 948.546,954.533 949.209,1165.74 949.873,811.827 950.537,815.608 951.201,886.147 951.865,1976.74 952.529,1090.32 953.193,1076.94 953.857,1229.89 954.521,859.67 955.185,1051.61 955.849,1498.52 956.513,890.868 957.177,742.751 957.841,1198.36 958.505,996.47 959.169,1119.21 959.832,1146.76 960.496,822.306 961.16,1167.3 961.824,1203.01 962.488,783.277 963.152,706.478 963.816,1347.13 964.48,997.815 965.144,7890.46 965.808,1185.7 966.472,3383.25 967.136,1010.63 967.8,1396.69 968.464,1357.82 969.128,1999.62 969.792,8099.41 970.455,973.995 971.119,1114 971.783,971.736 972.447,1157.81 973.111,1386.51 973.775,1876.11 974.439,825.242 975.103,1302.56 975.767,849.855 976.431,992.461 977.095,1417.79 977.759,2595.24 978.423,1081.93 979.087,1200.39 979.751,2395.46 980.415,608.779 981.079,919.012 981.742,1206.47 982.406,1062.51 983.07,1173.99 983.734,905.16 984.398,1697.38 985.062,969.543 985.726,770.577 986.39,895.275 987.054,1413.41 987.718,695.011 988.382,1698.51 989.046,2154.19 989.71,2666.42 990.374,1622.11 991.038,1771.98 991.702,1136.2 992.365,867.768 993.029,882.608 993.693,916.29 994.357,1188.21 995.021,2287.95 995.685,2154.28 996.349,2953.91 997.013,660.572 997.677,6919.74 998.341,1151.69 999.005,946.58 999.669,6357.23 1000.33,952.21 1001,997.679 1001.66,829.42 1002.32,1173.75 1002.99,564.931 1003.65,879.602 1004.32,1152.49 1004.98,1024.21 1005.64,1131.17 1006.31,1412.65 1006.97,1094.4 1007.64,763.986 1008.3,1015.7 1008.96,1925.12 1009.63,906.499 1010.29,847.864 1010.96,626.22 1011.62,1185.81 1012.28,962.394 1012.95,806.437 1013.61,470.545 1014.28,1340.79 1014.94,25166.4 1015.6,2286.11 1016.27,1505.77 1016.93,1107.93 1017.6,7885.8 1018.26,953.883 1018.92,5973.29 1019.59,843.743 1020.25,6163.82 1020.91,898.402 1021.58,1132.25 1022.24,1131.62 1022.91,2328.58 1023.57,1316.12 1024.23,1045.01 1024.9,1839.87 1025.56,1042.91 1026.23,1454.01 1026.89,6675.73 1027.55,927.82 1028.22,1496.07 1028.88,1249.31 1029.55,1115.29 1030.21,1289.08 1030.87,804.498 1031.54,948.717 1032.2,921.597 1032.87,1061.47 1033.53,971.904 1034.19,864.197 1034.86,3451.96 1035.52,1285.47 1036.19,702.714 1036.85,656.704 1037.51,902.595 1038.18,1087.4 1038.84,884.277 1039.51,1136.61 1040.17,1215.68 1040.83,1123.04 1041.5,1098.76 1042.16,778.941 1042.82,1069.46 1043.49,1055.52 1044.15,845.516 1044.82,1107.72 1045.48,1833.96 1046.14,1014.51 1046.81,719.481 1047.47,929.965 1048.14,1223.23 1048.8,2934.93 1049.46,591.533 1050.13,942.338 1050.79,1041.03 1051.46,2391.86 1052.12,1435.38 1052.78,1097.42 1053.45,777.751 1054.11,1415.2 1054.78,722.306 1055.44,1362.24 1056.1,682.238 1056.77,673.059 1057.43,1024.84 1058.1,1295.53 1058.76,847.882 1059.42,1046.46 1060.09,935.969 1060.75,4043.91 1061.42,1590 1062.08,1081.58 1062.74,4683.17 1063.41,1234.01 1064.07,609.326 1064.73,1042.71 1065.4,1816.3 1066.06,898.931 1066.73,842.665 1067.39,983.471 1068.05,916.058 1068.72,662.392 1069.38,2949.53 1070.05,711.226 1070.71,838.995 1071.37,1050.25 1072.04,1606.76 1072.7,585.796 1073.37,940.011 1074.03,2448.6 1074.69,2891.46 1075.36,2581.69 1076.02,783.908 1076.69,857.105 1077.35,1002.22 1078.01,1051.59 1078.68,654.104 1079.34,1737.95 1080.01,776.25 1080.67,904.103 1081.33,752.95 1082,714.709 1082.66,1798.54 1083.33,816.403 1083.99,1208.83 1084.65,977.434 1085.32,2135.32 1085.98,704.86 1086.64,1026.55 1087.31,1228.2 1087.97,902.07 1088.64,693.97 1089.3,1619.51 1089.96,1206.81 1090.63,975.533 1091.29,2288.53 1091.96,2050.05 1092.62,856.29 1093.28,1137.66 1093.95,1237.88 1094.61,1189.44 1095.28,1185.32 1095.94,3190.01 1096.6,781.325 1097.27,1340.04 1097.93,858.168 1098.6,1057.52 1099.26,1086.86 1099.92,1491.63 1100.59,2179.14 1101.25,903.484 1101.92,979.269 1102.58,1023.71 1103.24,574.212 1103.91,970.438 1104.57,1016.18 1105.24,669.181 1105.9,972.804 1106.56,783.307 1107.23,14777.2 1107.89,4609.69 1108.55,923.535 1109.22,725.554 1109.88,1315.33 1110.55,928.334 1111.21,707.842 1111.87,570.773 1112.54,2563.48 1113.2,1170.17 1113.87,839.815 1114.53,871.386 1115.19,3716.37 1115.86,3585.6 1116.52,859.739 1117.19,472.375 1117.85,1178.44 1118.51,1201.22 1119.18,1434.75 1119.84,1184.73 1120.51,1063.78 1121.17,1275.92 1121.83,502.581 1122.5,1344.18 1123.16,1074.09 1123.83,855.315 1124.49,721.096 1125.15,1090.74 1125.82,1161.7 1126.48,1123.89 1127.15,980.486 1127.81,1062.6 1128.47,1125.65 1129.14,3984.52 1129.8,731.102 1130.46,1033.92 1131.13,2135.73 1131.79,2298 1132.46,804.626 1133.12,624.717 1133.78,1265.54 1134.45,2039.97 1135.11,925.68 1135.78,895.09 1136.44,935.269 1137.1,1402.63 1137.77,958.046 1138.43,1084.9 1139.1,2090.6 1139.76,684.344 1140.42,787.812 1141.09,849.482 1141.75,624.597 1142.42,1497.98 1143.08,966.836 1143.74,1475.02 1144.41,1069.06 1145.07,809.19 1145.74,710.065 1146.4,1055.16 1147.06,1162.37 1147.73,1114.08 1148.39,838.666 1149.05,711.559 1149.72,1366.41 1150.38,886.1 1151.05,939.485 1151.71,1387.7 1152.37,922.283 1153.04,1106.18 1153.7,1031.75 1154.37,1138.74 1155.03,1169.62 1155.69,1176.93 1156.36,551.976 1157.02,990.497 1157.69,1812.67 1158.35,812.496 1159.01,937.429 1159.68,1382.45 1160.34,785.201 1161.01,1009 1161.67,1363.89 1162.33,882.23 1163,1445.14 1163.66,933.913 1164.33,2252.85 1164.99,1010.9 1165.65,1211.47 1166.32,907.084 1166.98,1930.26 1167.65,917.367 1168.31,866.486 1168.97,619.036 1169.64,1113.77 1170.3,1009.1 1170.96,902.447 1171.63,1356.91 1172.29,699.101 1172.96,938.568 1173.62,1223.77 1174.28,1149.76 1174.95,1365.41 1175.61,911.785 1176.28,645.349 1176.94,1362.88 1177.6,1128.8 1178.27,1256.56 1178.93,1035.27 1179.6,1068.95 1180.26,642.967 1180.92,1280.08 1181.59,905.046 1182.25,970.012 1182.92,2515.18 1183.58,1526.74 1184.24,1041.77 1184.91,981.815 1185.57,1226.7 1186.24,737.834 1186.9,1379.58 1187.56,1698.6 1188.23,1328.76 1188.89,931.473 1189.56,752.765 1190.22,859.951 1190.88,744.645 1191.55,1014.74 1192.21,700.229 1192.87,1030.56 1193.54,1477.81 1194.2,1529.38 1194.87,951.354 1195.53,1060.44 1196.19,823.051 1196.86,2750.78 1197.52,2590.58 1198.19,953.894 1198.85,625.606 1199.51,758.046 1200.18,1797.59 1200.84,655.005 1201.51,569.282 1202.17,603.648 1202.83,629.706 1203.5,1518.71 1204.16,878.325 1204.83,996.858 1205.49,1559.82 1206.15,976.982 1206.82,738.012 1207.48,15857.8 1208.15,1273.28 1208.81,1472.05 1209.47,1051.14 1210.14,982.673 1210.8,1152.72 1211.47,923.831 1212.13,1531.22 1212.79,936.241 1213.46,2025.85 1214.12,823.997 1214.78,993.923 1215.45,551.717 1216.11,1023.69 1216.78,1039.6 1217.44,2141.03 1218.1,1571.69 1218.77,6740.23 1219.43,774.75 1220.1,878.792 1220.76,2376.89 1221.42,666.404 1222.09,2062.74 1222.75,2097.47 1223.42,3765.55 1224.08,887.08 1224.74,1770.02 1225.41,2440.45 1226.07,768.477 1226.74,865.231 1227.4,1312.8 1228.06,820.063 1228.73,1118.68 1229.39,3801.41 1230.06,1397.05 1230.72,1141.6 1231.38,1014.17 1232.05,979.064 1232.71,5600.31 1233.38,1746.68 1234.04,1026.62 1234.7,763.772 1235.37,817.782 1236.03,1102.59 1236.69,793.068 1237.36,982.022 1238.02,1577.28 1238.69,1132.42 1239.35,1185.99 1240.01,958.633 1240.68,5716.51 1241.34,1703.25 1242.01,530.412 1242.67,1489.68 1243.33,1081.42 1244,1793.71 1244.66,853.437 1245.33,1207.27 1245.99,721.849 1246.65,912.667 1247.32,1289.86 1247.98,785.633 1248.65,1552.23 1249.31,1084.59 1249.97,654.866 1250.64,1995.1 1251.3,1280.42 1251.97,1121.55 1252.63,1302.79 1253.29,11583.4 1253.96,841.572 1254.62,1111.78 1255.29,583.561 1255.95,912.891 1256.61,711.974 1257.28,902.538 1257.94,898.523 1258.6,956.476 1259.27,637.802 1259.93,1081.36 1260.6,1215.78 1261.26,1094.12 1261.92,624.613 1262.59,1032.38 1263.25,1040.31 1263.92,749.053 1264.58,871.709 1265.24,1566.25 1265.91,930.23 1266.57,1374.55 1267.24,711.471 1267.9,3086.99 1268.56,898.445 1269.23,729.784 1269.89,980.913 1270.56,2573.43 1271.22,820.837 1271.88,731.701 1272.55,1192.18 1273.21,1861.44 1273.88,1824.75 1274.54,1237.62 1275.2,6698.4 1275.87,1036.66 1276.53,2952.3 1277.2,649.679 1277.86,766.91 1278.52,1207.27 1279.19,1211.68 1279.85,6825.9 1280.51,1721.43 1281.18,729.816 1281.84,1008.5 1282.51,492.092 1283.17,766.829 1283.83,1007.27 1284.5,852.62 1285.16,1526.9 1285.83,1134.92 1286.49,1212.82 1287.15,797.565 1287.82,1427.78 1288.48,946.166 1289.15,1583.89 1289.81,757.091 1290.47,1065.48 1291.14,953.846 1291.8,1541.82 1292.47,2534.56 1293.13,2316.92 1293.79,7973.07 1294.46,1710.53 1295.12,1553.3 1295.79,1891.55 1296.45,1072.78 1297.11,684.603 1297.78,992.479 1298.44,925.867 1299.11,871.804 1299.77,1430.33 1300.43,968.539 1301.1,1109.83 1301.76,662.167 1302.42,341.499 1303.09,424.211 1303.75,783.669 1304.42,661.893 1305.08,1205.48 1305.74,765.321 1306.41,560.577 1307.07,809.079 1307.74,1404.84 1308.4,16186 1309.06,1127.78 1309.73,1009.57 1310.39,1062.75 1311.06,599.087 1311.72,821.43 1312.38,2571.71 1313.05,16859 1313.71,1378.29 1314.38,667.738 1315.04,1358.7 1315.7,1146.9 1316.37,1012.36 1317.03,964.831 1317.7,1940.56 1318.36,1498.86 1319.02,1439.14 1319.69,1057.4 1320.35,572.511 1321.02,623.108 1321.68,1236.01 1322.34,1046.26 1323.01,640.97 1323.67,945.782 1324.33,658.931 1325,1249.72 1325.66,832.965 1326.33,691.968 1326.99,2459.32 1327.65,1404.52 1328.32,979.497 1328.98,24845 1329.65,977.192 1330.31,1041.34 1330.97,1008.46 1331.64,965.316 1332.3,922.234 1332.97,747.114 1333.63,776.499 1334.29,1060.32 1334.96,854.006 1335.62,793.438 1336.29,1303.36 1336.95,834.95 1337.61,1081.12 1338.28,950.43 1338.94,1245.29 1339.61,997.451 1340.27,1519.37 1340.93,1083.28 1341.6,963.967 1342.26,1091.6 1342.93,973.121 1343.59,1365.08 1344.25,1245.5 1344.92,1147.68 1345.58,1151.74 1346.24,1544.55 1346.91,1418.74 1347.57,1860.17 1348.24,1472.25 1348.9,628.918 1349.56,1456.28 1350.23,28986.5 1350.89,964.342 1351.56,635.555 1352.22,1163.82 1352.88,736.84 1353.55,1081.19 1354.21,1801.38 1354.88,1109.29 1355.54,1005.08 1356.2,1019.02 1356.87,1372.64 1357.53,3434.59 1358.2,17746.8 1358.86,1562.38 1359.52,1089.42 1360.19,2018.81 1360.85,1431.68 1361.52,1774.17 1362.18,966.635 1362.84,1071.11 1363.51,804.504 1364.17,1038.01 1364.84,1625.9 1365.5,1548.88 1366.16,1398.11 1366.83,898.529 1367.49,761.87 1368.15,1205.5 1368.82,732.46 1369.48,795.589 1370.15,776.554 1370.81,731.951 1371.47,1035.26 1372.14,632.115 1372.8,1332.54 1373.47,1237.43 1374.13,2285.33 1374.79,737.286 1375.46,621.59 1376.12,1284.1 1376.79,912.04 1377.45,4544.55 1378.11,919.329 1378.78,1189.53 1379.44,2632.68 1380.11,685.082 1380.77,1890.32 1381.43,829.466 1382.1,931.095 1382.76,994.648 1383.43,1104.89 1384.09,754.1 1384.75,551.983 1385.42,1138.21 1386.08,1053.25 1386.75,818.971 1387.41,1113.87 1388.07,1765.7 1388.74,964.824 1389.4,998.859 1390.06,1326.45 1390.73,932.53 1391.39,1061.04 1392.06,13769.8 1392.72,1099.61 1393.38,1024.14 1394.05,956.92 1394.71,774.478 1395.38,1553.53 1396.04,906.013 1396.7,1142.24 1397.37,1738.4 1398.03,1023.94 1398.7,502.685 1399.36,507.548 1400.02,787.947 1400.69,653.101 1401.35,1144.06 1402.02,1033.42 1402.68,948.285 1403.34,1408.58 1404.01,997.652 1404.67,1405.21 1405.34,1358.74 1406,1119.13 1406.66,660.189 1407.33,769.937 1407.99,1147.19 1408.66,956.916 1409.32,808.163 1409.98,1067.51 1410.65,979.82 1411.31,758.059 1411.97,974.663 1412.64,1352.05 1413.3,743.677 1413.97,997.82 1414.63,504.051 1415.29,812.793 1415.96,1373.38 1416.62,1293.17 1417.29,532.456 1417.95,878.606 1418.61,955.51 1419.28,840.008 1419.94,914.238 1420.61,1940.8 1421.27,995.592 1421.93,893.11 1422.6,846.728 1423.26,1294.77 1423.93,1526.99 1424.59,1634.83 1425.25,1265.92 1425.92,3763.54 1426.58,562.171 1427.25,795.497 1427.91,1258 1428.57,853.896 1429.24,1858.93 1429.9,646.509 1430.56,1305.77 1431.23,817.74 1431.89,1257.04 1432.56,1174.53 1433.22,1298.17 1433.88,1248.92 1434.55,868.693 1435.21,8422.61 1435.88,1631.8 1436.54,1061.58 1437.2,981.271 1437.87,1145.03 1438.53,1072.18 1439.2,976.554 1439.86,1236.24 1440.52,1808.7 1441.19,1990.78 1441.85,837.748 1442.52,929.149 1443.18,1349.32 1443.84,1865.06 1444.51,1678.08 1445.17,826.904 1445.84,878.824 1446.5,860.22 1447.16,744.371 1447.83,764.619 1448.49,4654.34 1449.16,19181.6 1449.82,1913.85 1450.48,1882.42 1451.15,1151.04 1451.81,8218.9 1452.47,1772.22 1453.14,1124.46 1453.8,830.125 1454.47,1252.21 1455.13,1416.85 1455.79,1016.9 1456.46,1021.15 1457.12,900.626 1457.79,1218.88 1458.45,1005.98 1459.11,1294.85 1459.78,770.038 1460.44,992.985 1461.11,1184.46 1461.77,13920.2 1462.43,2506.83 1463.1,685.495 1463.76,1661.26 1464.43,1150.58 1465.09,1376.07 1465.75,1093.75 1466.42,1239.85 1467.08,1226.12 1467.75,1335.09 1468.41,1139.79 1469.07,1267.6 1469.74,970.648 1470.4,1764.94 1471.07,7140.1 1471.73,1487.81 1472.39,1243.22 1473.06,690.658 1473.72,1298.53 1474.38,1103.85 1475.05,999.525 1475.71,766.39 1476.38,1295.29 1477.04,1089.4 1477.7,798.718 1478.37,735.158 1479.03,2412.92 1479.7,1305.34 1480.36,1171 1481.02,809.072 1481.69,946.859 1482.35,1028.31 1483.02,2352.53 1483.68,820.788 1484.34,1052.76 1485.01,1224.8 1485.67,1026.46 1486.34,798.493 1487,1094.39 1487.66,2490.63 1488.33,1289.84 1488.99,723.214 1489.66,1018.82 1490.32,711.291 1490.98,2538.64 1491.65,2977.34 1492.31,941.718 1492.98,2791.86 1493.64,866.244 1494.3,1287.01 1494.97,907.029 1495.63,739.703 1496.29,916.972 1496.96,1132.95 1497.62,951.028 1498.29,864.176 1498.95,907.258 1499.61,1073.07 1500.28,829.323 1500.94,7129.52 1501.61,1135.43 1502.27,1337.83 1502.93,1097.83 1503.6,730.032 1504.26,892.034 1504.93,1073.39 1505.59,2530.54 1506.25,933.149 1506.92,1097.46 1507.58,1191.24 1508.25,771.765 1508.91,1096.06 1509.57,1278.21 1510.24,842.349 1510.9,1111.31 1511.57,996.43 1512.23,1262.95 1512.89,8993.55 1513.56,1025.26 1514.22,1197.94 1514.89,1203.86 1515.55,848.392 1516.21,1368.1 1516.88,549.472 1517.54,836.074 1518.2,1276.61 1518.87,949.475 1519.53,1202.92 1520.2,901.793 1520.86,5160.39 1521.52,1239.98 1522.19,1166.96 1522.85,1044.7 1523.52,832.668 1524.18,1217.32 1524.84,896.703 1525.51,1158.2 1526.17,1440.47 1526.84,30710.4 1527.5,1393.11 1528.16,947.965 1528.83,1157.15 1529.49,1164.11 1530.16,1060.63 1530.82,1602.79 1531.48,824.676 1532.15,1065.35 1532.81,591.771 1533.48,1959.52 1534.14,1264.19 1534.8,516.808 1535.47,1278.37 1536.13,2540.7 1536.8,1238.37 1537.46,908.753 1538.12,1119.64 1538.79,1352.52 1539.45,1749.69 1540.11,1330.95 1540.78,857.88 1541.44,792.467 1542.11,2193.37 1542.77,1002.22 1543.43,1323.06 1544.1,4915.35 1544.76,1167.22 1545.43,1454.89 1546.09,1243.79 1546.75,677.197 1547.42,533.044 1548.08,1158.24 1548.75,812.2 1549.41,1211.51 1550.07,1446.2 1550.74,955.483 1551.4,912.245 1552.07,993.67 1552.73,1387.23 1553.39,1471.53 1554.06,583.592 1554.72,840.144 1555.39,1376.52 1556.05,18394.8 1556.71,3035.14 1557.38,1797.95 1558.04,255394 1558.71,973.043 1559.37,1343.49 1560.03,1214.75 1560.7,796.614 1561.36,1037.67 1562.02,1178.04 1562.69,610.192 1563.35,768.604 1564.02,1156.28 1564.68,737.669 1565.34,705.385 1566.01,808.876 1566.67,689.752 1567.34,2507.82 1568,568.688 1568.66,2330.21 1569.33,837.411 1569.99,1228.07 1570.66,2028.74 1571.32,942.323 1571.98,727.389 1572.65,1343.25 1573.31,1239.19 1573.98,1069.79 1574.64,890.458 1575.3,1357.49 1575.97,957.999 1576.63,1966.83 1577.3,1188.93 1577.96,923.486 1578.62,1086.43 1579.29,1015.64 1579.95,1128.38 1580.62,601.735 1581.28,1089.07 1581.94,903.342 1582.61,876.283 1583.27,988.862 1583.93,755.724 1584.6,783.584 1585.26,1799.22 1585.93,886.232 1586.59,1307.42 1587.25,1293.32 1587.92,1217.72 1588.58,902.84 1589.25,1052.92 1589.91,1501.43 1590.57,1890.81 1591.24,1052.83 1591.9,1265.4 1592.57,1267.86 1593.23,926.819 1593.89,1168.28 1594.56,1080.77 1595.22,9377.82 1595.89,984.17 1596.55,6687.88 1597.21,2605.28 1597.88,1113.42 1598.54,2390.12 1599.21,924.579 1599.87,1029.59 1600.53,932.087 1601.2,1031.25 1601.86,1364.19 1602.53,626.418 1603.19,1918.28 1603.85,1125.51 1604.52,2307.48 1605.18,919.765 1605.84,1082.91 1606.51,2148.91 1607.17,1749.9 1607.84,2618.64 1608.5,753.424 1609.16,3389.58 1609.83,1393.97 1610.49,1046.5 1611.16,1184.18 1611.82,882.737 1612.48,1381.26 1613.15,827.161 1613.81,1364.38 1614.48,5298.95 1615.14,1199.95 1615.8,965.48 1616.47,839.07 1617.13,1087.63 1617.8,922.569 1618.46,1609.88 1619.12,1048.98 1619.79,1191.23 1620.45,1380.81 1621.12,1730.22 1621.78,1250.87 1622.44,477.58 1623.11,692.51 1623.77,1027.7 1624.44,1073.03 1625.1,686.465 1625.76,1334.77 1626.43,3145.61 1627.09,923.499 1627.75,782.806 1628.42,840.939 1629.08,671.948 1629.75,1553.26 1630.41,885.52 1631.07,892.251 1631.74,956.319 1632.4,1069.58 1633.07,9541.26 1633.73,1097.14 1634.39,822.648 1635.06,1476.6 1635.72,859.27 1636.39,1146.09 1637.05,8176.56 1637.71,750.135 1638.38,1107.35 1639.04,1107.33 1639.71,898.981 1640.37,1367.01 1641.03,795.518 1641.7,649.11 1642.36,1094.95 1643.03,949.402 1643.69,1065.16 1644.35,818.304 1645.02,1200.83 1645.68,780.139 1646.35,673.933 1647.01,1200.47 1647.67,893.513 1648.34,1180.56 1649,1031.23 1649.66,1567.38 1650.33,862.845 1650.99,1108.21 1651.66,1642.26 1652.32,1007.23 1652.98,7531.1 1653.65,951.341 1654.31,976.949 1654.98,848.343 1655.64,992.018 1656.3,669.204 1656.97,944.568 1657.63,1098.59 1658.3,1750.01 1658.96,1309.53 1659.62,1391.47 1660.29,1007.42 1660.95,1014.21 1661.62,896.846 1662.28,2561.47 1662.94,1432.61 1663.61,1277.33 1664.27,886.009 1664.94,550.152 1665.6,2380.98 1666.26,671.613 1666.93,19615.1 1667.59,1128.99 1668.26,2775.93 1668.92,995.934 1669.58,795.525 1670.25,2845.6 1670.91,3063.13 1671.57,1175.19 1672.24,1659.73 1672.9,858.362 1673.57,1059.8 1674.23,926.926 1674.89,1024.11 1675.56,1015.29 1676.22,1296.65 1676.89,797.804 1677.55,1088.81 1678.21,944.493 1678.88,1317.77 1679.54,944.566 1680.21,1403.79 1680.87,1041.92 1681.53,1578.46 1682.2,1698.23 1682.86,710.95 1683.53,908.561 1684.19,1302.65 1684.85,967.894 1685.52,601.062 1686.18,958.632 1686.85,1053.58 1687.51,771.563 1688.17,971.15 1688.84,1064.93 1689.5,915.365 1690.17,1041.04 1690.83,817.234 1691.49,460.768 1692.16,951.808 1692.82,1094.04 1693.48,861.476 1694.15,1158.6 1694.81,904.639 1695.48,2906.72 1696.14,1055.73 1696.8,836.481 1697.47,905.511 1698.13,1012.01 1698.8,710.32 1699.46,1046.63 1700.12,806.693 1700.79,1700.12 1701.45,984.996 1702.12,9362.77 1702.78,4379.31 1703.44,428.924 1704.11,1442.46 1704.77,924.811 1705.44,813.579 1706.1,487.587 1706.76,991.474 1707.43,1198.2 1708.09,616.425 1708.76,681.109 1709.42,703.606 1710.08,948.965 1710.75,640.772 1711.41,542.521 1712.07,842.859 1712.74,970.457 1713.4,1344.83 1714.07,682.156 1714.73,1170.84 1715.39,1361.5 1716.06,804.545 1716.72,642.079 1717.39,1059.35 1718.05,1032.99 1718.71,25646.6 1719.38,1229.14 1720.04,690.304 1720.71,1100.84 1721.37,1709.81 1722.03,884.975 1722.7,882.202 1723.36,993.946 1724.03,1777.63 1724.69,909.599 1725.35,863.509 1726.02,1042.2 1726.68,1249.08 1727.35,1205.39 1728.01,1217.64 1728.67,848.89 1729.34,861.017 1730,1288.98 1730.67,541.835 1731.33,824.871 1731.99,1074.94 1732.66,1686.71 1733.32,803.406 1733.98,1053.19 1734.65,1050.71 1735.31,907.679 1735.98,1048 1736.64,1851.44 1737.3,443.458 1737.97,1066.8 1738.63,974.133 1739.3,929.005 1739.96,994.448 1740.62,825.218 1741.29,1234.31 1741.95,915.755 1742.62,864.014 1743.28,4544.54 1743.94,1532.16 1744.61,891.349 1745.27,773.392 1745.94,1238.63 1746.6,895.986 1747.26,1063.64 1747.93,755.768 1748.59,924.356 1749.26,1181.91 1749.92,1039.72 1750.58,1873.34 1751.25,953.605 1751.91,1019.46 1752.58,1865.83 1753.24,1376.65 1753.9,2321.35 1754.57,639.417 1755.23,698.411 1755.89,1992.28 1756.56,901.01 1757.22,945.713 1757.89,622.122 1758.55,658.296 1759.21,1270.24 1759.88,649.533 1760.54,2088.29 1761.21,1016.06 1761.87,3749.79 1762.53,1040 1763.2,1864.39 1763.86,604.177 1764.53,759.717 1765.19,1564.43 1765.85,650.069 1766.52,1035.31 1767.18,1566.8 1767.85,1265.25 1768.51,920.246 1769.17,1029.89 1769.84,824.323 1770.5,1510.75 1771.17,1761.06 1771.83,980.639 1772.49,842.31 1773.16,1623.35 1773.82,1042.45 1774.49,1074.3 1775.15,1094.04 1775.81,1061.1 1776.48,2418.11 1777.14,976.288 1777.8,4811.58 1778.47,932.671 1779.13,521.154 1779.8,1103.78 1780.46,1093.29 1781.12,1241.38 1781.79,729.275 1782.45,888.328 1783.12,765.959 1783.78,637.01 1784.44,1381.97 1785.11,753.791 1785.77,1917.46 1786.44,1038.12 1787.1,1140.72 1787.76,2230.41 1788.43,1139.16 1789.09,1028.44 1789.76,1707.59 1790.42,894.957 1791.08,1127.44 1791.75,830.175 1792.41,13884.1 1793.08,796.502 1793.74,688.424 1794.4,674.242 1795.07,1653.26 1795.73,754.93 1796.4,1143.86 1797.06,1166.11 1797.72,809.766 1798.39,15286.3 1799.05,884.085 1799.71,1319.75 1800.38,1020.25 1801.04,926.876 1801.71,2485.99 1802.37,812.691 1803.03,1490.83 1803.7,1129.9 1804.36,1039.58 1805.03,1004.44 1805.69,1058.01 1806.35,905.278 1807.02,937.88 1807.68,1169.27 1808.35,1111.15 1809.01,618.939 1809.67,392.801 1810.34,623.509 1811,1182.97 1811.67,1308.05 1812.33,1031.81 1812.99,777.454 1813.66,1157.4 1814.32,1059.68 1814.99,1311.09 1815.65,823.711 1816.31,1188.47 1816.98,2117.73 1817.64,1103.04 1818.31,674.288 1818.97,905.575 1819.63,1062.61 1820.3,802.13 1820.96,1292.57 1821.62,1273.11 1822.29,905.313 1822.95,820.958 1823.62,1220.07 1824.28,791.532 1824.94,838.433 1825.61,1054.51 1826.27,1146.19 1826.94,1618.38 1827.6,988.669 1828.26,1055.67 1828.93,935.683 1829.59,609.553 1830.26,1267.39 1830.92,994.602 1831.58,785.187 1832.25,849.906 1832.91,1258.85 1833.58,864.243 1834.24,2054.46 1834.9,1131.15 1835.57,1027.35 1836.23,1068.44 1836.9,1000.78 1837.56,878.239 1838.22,47.2441 1838.89,809.145 1839.55,1144.5 1840.22,1086.08 1840.88,800.899 1841.54,1018.9 1842.21,815.512 1842.87,1091.55 1843.53,731.814 1844.2,1104.29 1844.86,832.658 1845.53,888.509 1846.19,828.279 1846.85,916.029 1847.52,2406.76 1848.18,671.705 1848.85,1023.79 1849.51,834.35 1850.17,1081.22 1850.84,721.312 1851.5,827.362 1852.17,904.975 1852.83,9420.03 1853.49,1201.33 1854.16,634.944 1854.82,1018.6 1855.49,901.498 1856.15,875.855 1856.81,1355.34 1857.48,814.944 1858.14,1008.63 1858.81,2377.09 1859.47,1961.37 1860.13,2896.21 1860.8,784.389 1861.46,1894.79 1862.13,960.181 1862.79,1509.45 1863.45,792.08 1864.12,8267.77 1864.78,842.786 1865.44,2461.24 1866.11,729.766 1866.77,41521.8 1867.44,977.702 1868.1,1668.52 1868.76,1104.91 1869.43,1657.81 1870.09,897.039 1870.76,1577.01 1871.42,878.951 1872.08,584.102 1872.75,872.126 1873.41,889.248 1874.08,940.287 1874.74,832.995 1875.4,947.155 1876.07,489.856 1876.73,906.408 1877.4,790.946 1878.06,1481.95 1878.72,1064.9 1879.39,751.245 1880.05,982.738 1880.72,884.843 1881.38,975.087 1882.04,1745.16 1882.71,1283.11 1883.37,797.705 1884.04,649.131 1884.7,495.051 1885.36,1057.46 1886.03,1022.06 1886.69,649.846 1887.35,1086.27 1888.02,879.648 1888.68,3127.41 1889.35,926.405 1890.01,693.5 1890.67,1589.48 1891.34,1561.26 1892,970.378 1892.67,2061.62 1893.33,1071.1 1893.99,1117.92 1894.66,984.036 1895.32,565.899 1895.99,1156.2 1896.65,1037.7 1897.31,1759.06 1897.98,1591.42 1898.64,1073.23 1899.31,775.758 1899.97,924.311 1900.63,1102.1 1901.3,1800.18 1901.96,1253.1 1902.63,916.23 1903.29,1365.69 1903.95,851.065 1904.62,1629.74 1905.28,949.188 1905.95,1166.77 1906.61,551.834 1907.27,927.906 1907.94,1040.92 1908.6,1011.89 1909.26,750.657 1909.93,399.699 1910.59,990.102 1911.26,990.569 1911.92,1252.9 1912.58,1116.72 1913.25,905.407 1913.91,1079.5 1914.58,1473.56 1915.24,657.025 1915.9,993.758 1916.57,5147.21 1917.23,1308.01 1917.9,1077.54 1918.56,1019.2 1919.22,2571.49 1919.89,1042.5 1920.55,461.801 1921.22,1970.37 1921.88,1452.23 1922.54,1396.05 1923.21,1031.84 1923.87,728.166 1924.54,889.437 1925.2,2123.39 1925.86,2628.39 1926.53,3332.62 1927.19,464.754 1927.86,1352.98 1928.52,913.839 1929.18,1123.24 1929.85,743.801 1930.51,1350.89 1931.17,971.378 1931.84,1135.01 1932.5,1986.86 1933.17,895.357 1933.83,1059.98 1934.49,1122.94 1935.16,1203.15 1935.82,1035.22 1936.49,1190.78 1937.15,1019.31 1937.81,1112.18 1938.48,939.025 1939.14,829.741 1939.81,868.58 1940.47,1129.7 1941.13,1917.61 1941.8,1103.92 1942.46,2041.14 1943.13,1166.62 1943.79,758.528 1944.45,774.613 1945.12,1314.78 1945.78,2071.9 1946.45,6740.45 1947.11,987.33 1947.77,754.524 1948.44,669.499 1949.1,838.717 1949.77,1065.68 1950.43,1626.71 1951.09,1649.6 1951.76,910.739 1952.42,1083.75 1953.08,1140.16 1953.75,716.426 1954.41,1488.13 1955.08,996.995 1955.74,917.284 1956.4,749.822 1957.07,728.553 1957.73,815.856 1958.4,1259.73 1959.06,1264.62 1959.72,1093.07 1960.39,813.939 1961.05,1026.85 1961.72,7216.46 1962.38,1438.61 1963.04,1224.51 1963.71,716.439 1964.37,1574.8 1965.04,3284.62 1965.7,818.746 1966.36,753.594 1967.03,1690.34 1967.69,1239.66 1968.36,877.808 1969.02,1022.15 1969.68,637.682 1970.35,898.374 1971.01,989.641 1971.68,975.995 1972.34,945.666 1973,1008.24 1973.67,986.293 1974.33,859.178 1974.99,731.021 1975.66,1639.58 1976.32,611.703 1976.99,1064.19 1977.65,936.326 1978.31,1194.58 1978.98,1047.71 1979.64,898.687 1980.31,7525.47 1980.97,867.181 1981.63,2001.04 1982.3,942.741 1982.96,1067.47 1983.63,5776.1 1984.29,1462.01 1984.95,1104.62 1985.62,1075.54 1986.28,879.444 1986.95,928.796 1987.61,910.91 1988.27,911.607 1988.94,1267.4 1989.6,1019.58 1990.27,1354.74 1990.93,899.001 1991.59,623.22 1992.26,2226.13 1992.92,860.81 1993.58,1389.9 1994.25,1086.09 1994.91,653.383 1995.58,1377.1 1996.24,998.243 1996.9,736.034 1997.57,1633.24 1998.23,911.026 1998.9,1465.45 1999.56,870.737 2000.22,870.834 2000.89,6265.55 2001.55,1284.61 2002.22,945.5 2002.88,969.413 2003.54,1630.1 2004.21,1006.52 2004.87,1137.19 2005.54,1160.98 2006.2,1345.35 2006.86,1316.57 2007.53,3596.45 2008.19,981.202 2008.86,432.09 2009.52,1051.51 2010.18,787.878 2010.85,844.632 2011.51,940.123 2012.18,942.413 2012.84,1117.32 2013.5,1069.37 2014.17,804.353 2014.83,3491.96 2015.49,952.612 2016.16,785.341 2016.82,850.304 2017.49,1099.68 2018.15,1349.02 2018.81,834.615 2019.48,794.628 2020.14,989.187 2020.81,748.622 2021.47,749.865 2022.13,1574.31 2022.8,1038.55 2023.46,583.49 2024.13,899.044 2024.79,1024 2025.45,877.297 2026.12,1392.78 2026.78,613.766 2027.45,1078.59 2028.11,1021.84 2028.77,7483.62 2029.44,1631.43 2030.1,566.95 2030.77,709.536 2031.43,752.165 2032.09,1009.02 2032.76,1772.57 2033.42,568.243 2034.09,1108.08 2034.75,1014.96 2035.41,1060.18 2036.08,1924.82 2036.74,975.688 2037.4,1438.57 2038.07,491.997 2038.73,1091.28 2039.4,1394.68 2040.06,773.746 2040.72,1653.22 2041.39,901236 2042.05,1115.76 2042.72,1156.78 2043.38,663.838 2044.04,8333.3 2044.71,718.696 2045.37,707.193 2046.04,450.892 2046.7,2349.63 2047.36,819.811 2048.03,1180.62 2048.69,1026.55 2049.36,1933.44 2050.02,1186.81 2050.68,944.76 2051.35,1055.37 2052.01,1013.82 2052.68,742.436 2053.34,1136.22 2054,976.675 2054.67,1021.32 2055.33,1166.44 2056,1173.23 2056.66,777.484 2057.32,605.18 2057.99,1763.7 2058.65,842.232 2059.31,1208.96 2059.98,964.495 2060.64,860.499 2061.31,710.381 2061.97,866.158 2062.63,999.679 2063.3,1020.6 2063.96,1324.15 2064.63,8049.43 2065.29,2218.31 2065.95,331.286 2066.62,827.235 2067.28,1172.45 2067.95,1083.37 2068.61,755.056 2069.27,858.092 2069.94,753.319 2070.6,1191.69 2071.27,1149.92 2071.93,826.076 2072.59,1029.31 2073.26,962.102 2073.92,907.563 2074.59,4110.66 2075.25,985.557 2075.91,2133.12 2076.58,1280.06 2077.24,528.199 2077.91,1196.88 2078.57,1415.86 2079.23,674.256 2079.9,937.914 2080.56,854.747 2081.22,523.436 2081.89,617.7 2082.55,914.564 2083.22,855.835 2083.88,5198.99 2084.54,1104.31 2085.21,3221.55 2085.87,912.286 2086.54,927.894 2087.2,1035.74 2087.86,1154.05 2088.53,897.932 2089.19,868.056 2089.86,859.261 2090.52,738.116 2091.18,3961.6 2091.85,1373.42 2092.51,800.329 2093.18,789.651 2093.84,873.747 2094.5,1802.72 2095.17,808.477 2095.83,819.237 2096.5,774.02 2097.16,777.081 2097.82,4134.23 2098.49,1126.14 2099.15,946.371 2099.82,659.709 2100.48,1130.19 2101.14,652.168 2101.81,1060.15 2102.47,1208.25 2103.13,1079.32 2103.8,852.959 2104.46,505.964 2105.13,1506.39 2105.79,1724.85 2106.45,986.639 2107.12,2269.47 2107.78,743.039 2108.45,1282.58 2109.11,2249.53 2109.77,1230.77 2110.44,663.957 2111.1,2538.3 2111.77,730.869 2112.43,792.953 2113.09,979.966 2113.76,684.011 2114.42,943.043 2115.09,1056.28 2115.75,2560.88 2116.41,2196.52 2117.08,3275.69 2117.74,1180.74 2118.41,810.4 2119.07,1087.64 2119.73,1967.43 2120.4,712.555 2121.06,989.312 2121.73,1133.08 2122.39,490.429 2123.05,847.728 2123.72,1387.18 2124.38,1233.36 2125.04,3892.88 2125.71,824.363 2126.37,753.165 2127.04,1264.62 2127.7,1026.76 2128.36,864.527 2129.03,3005.39 2129.69,848.645 2130.36,1254.8 2131.02,22036.9 2131.68,787.227 2132.35,829.866 2133.01,1249.35 2133.68,839.442 2134.34,590.244 2135,1203.57 2135.67,8022.82 2136.33,911.695 2137,4766 2137.66,999.839 2138.32,946.84 2138.99,958.814 2139.65,1263.23 2140.32,1217.97 2140.98,1668.41 2141.64,1108.4 2142.31,2106.79 2142.97,1378.93 2143.64,876.205 2144.3,696.594 2144.96,906.157 2145.63,1521.83 2146.29,1163.2 2146.95,1089.71 2147.62,3188.34 2148.28,793.254 2148.95,1032.91 2149.61,816.531 2150.27,932.607 2150.94,1213.52 2151.6,663.453 2152.27,1390.22 2152.93,643.444 2153.59,821.416 2154.26,989.045 2154.92,1571.14 2155.59,1031.99 2156.25,2929.08 2156.91,906.509 2157.58,777.653 2158.24,924.879 2158.91,1844.73 2159.57,957.693 2160.23,895.461 2160.9,743.481 2161.56,993.058 2162.23,908.41 2162.89,844.207 2163.55,443.156 2164.22,796.982 2164.88,984.448 2165.55,1370.32 2166.21,1088.35 2166.87,841.329 2167.54,1259.95 2168.2,1285.61 2168.86,2247.53 2169.53,1237.75 2170.19,579.884 2170.86,667.459 2171.52,643.255 2172.18,1154.05 2172.85,8066.68 2173.51,1217.96 2174.18,15313.4 2174.84,1513.89 2175.5,12361.5 2176.17,1003.49 2176.83,828.586 2177.5,800.451 2178.16,7223.42 2178.82,790.833 2179.49,1389.17 2180.15,1074.53 2180.82,1638.03 2181.48,799.766 2182.14,839.638 2182.81,1091.07 2183.47,1384.32 2184.14,1921.35 2184.8,2080.27 2185.46,1645.3 2186.13,1165.1 2186.79,759.25 2187.46,928.697 2188.12,662.12 2188.78,784.411 2189.45,1156.03 2190.11,1846.15 2190.77,846.387 2191.44,924.409 2192.1,856.777 2192.77,1728.62 2193.43,931.679 2194.09,855.527 2194.76,780.729 2195.42,1082.94 2196.09,1119.28 2196.75,1010.43 2197.41,951.765 2198.08,1351.53 2198.74,5985.09 2199.41,1140.73 2200.07,16205.7 2200.73,936.438 2201.4,1194.62 2202.06,1094.41 2202.73,737.241 2203.39,1381.23 2204.05,1156.81 2204.72,1271.71 2205.38,1101.18 2206.05,1102.57 2206.71,986.507 2207.37,906.689 2208.04,834.692 2208.7,1994.11 2209.37,1249.47 2210.03,1118.87 2210.69,1084.82 2211.36,731.94 2212.02,897.224 2212.68,1070.9 2213.35,730.597 2214.01,822.169 2214.68,1419.56 2215.34,1285.68 2216,649.242 2216.67,1038.04 2217.33,843.457 2218,787.692 2218.66,1742.95 2219.32,2015.08 2219.99,1386.67 2220.65,801.121 2221.32,1050.89 2221.98,2246.2 2222.64,1080.65 2223.31,990.929 2223.97,624.136 2224.64,535.592 2225.3,931.148 2225.96,1351.61 2226.63,940.776 2227.29,670.124 2227.96,1215.54 2228.62,764.739 2229.28,14238 2229.95,1065 2230.61,567.692 2231.28,882.993 2231.94,950.095 2232.6,858.468 2233.27,636.023 2233.93,728.79 2234.59,807.412 2235.26,1639.6 2235.92,1022.16 2236.59,588.908 2237.25,1080.49 2237.91,3180.29 2238.58,908.639 2239.24,1432.58 2239.91,3097.92 2240.57,912.561 2241.23,1497.12 2241.9,476.655 2242.56,1397.35 2243.23,1222.03 2243.89,952.189 2244.55,793.278 2245.22,715.391 2245.88,831.27 2246.55,562.384 2247.21,1143.84 2247.87,944.352 2248.54,609.839 2249.2,1526.48 2249.87,1045.95 2250.53,745.569 2251.19,731.042 2251.86,821.558 2252.52,983.089 2253.19,1198.63 2253.85,3651.42 2254.51,912.145 2255.18,826.738 2255.84,780.847 2256.5,1070.83 2257.17,675.989 2257.83,1489.85 2258.5,477.01 2259.16,841.7 2259.82,897.395 2260.49,587.245 2261.15,862.059 2261.82,1249.15 2262.48,735.606 2263.14,920.593 2263.81,489.333 2264.47,1252.41 2265.14,1126.45 2265.8,972.138 2266.46,710.775 2267.13,1196.56 2267.79,752.297 2268.46,1257.46 2269.12,782.76 2269.78,1021.71 2270.45,490.8 2271.11,1043.1 2271.78,1278.42 2272.44,1167.48 2273.1,737.745 2273.77,1306.5 2274.43,690.525 2275.09,2030.97 2275.76,1321.01 2276.42,899.926 2277.09,941.186 2277.75,1554.97 2278.41,1110.85 2279.08,1032.06 2279.74,555.305 2280.41,837.738 2281.07,1088.76 2281.73,809.735 2282.4,994.22 2283.06,2896.89 2283.73,910.233 2284.39,720.99 2285.05,909.666 2285.72,1011.35 2286.38,715.515 2287.05,1086.1 2287.71,816.455 2288.37,990.863 2289.04,899.873 2289.7,1232.77 2290.37,898.571 2291.03,958.474 2291.69,4165.7 2292.36,776.887 2293.02,995.613 "/>
<path clip-path="url(#clip410)" d="M312.489 196.789 L575.981 196.789 L575.981 93.1086 L312.489 93.1086  Z" fill="#ffffff" fill-rule="evenodd" fill-opacity="1"/>
<polyline clip-path="url(#clip410)" style="stroke:#000000; stroke-linecap:round; stroke-linejoin:round; stroke-width:4; stroke-opacity:1; fill:none" points="312.489,196.789 575.981,196.789 575.981,93.1086 312.489,93.1086 312.489,196.789 "/>
<polyline clip-path="url(#clip410)" style="stroke:#009af9; stroke-linecap:round; stroke-linejoin:round; stroke-width:4; stroke-opacity:1; fill:none" points="335.94,144.949 476.648,144.949 "/>
<path clip-path="url(#clip410)" d="M513.942 164.636 Q512.136 169.266 510.424 170.678 Q508.711 172.09 505.84 172.09 L502.437 172.09 L502.437 168.525 L504.937 168.525 Q506.697 168.525 507.669 167.692 Q508.641 166.858 509.822 163.756 L510.586 161.812 L500.099 136.303 L504.613 136.303 L512.715 156.581 L520.817 136.303 L525.331 136.303 L513.942 164.636 Z" fill="#000000" fill-rule="nonzero" fill-opacity="1" /><path clip-path="url(#clip410)" d="M532.622 158.293 L540.261 158.293 L540.261 131.928 L531.951 133.595 L531.951 129.335 L540.215 127.669 L544.891 127.669 L544.891 158.293 L552.53 158.293 L552.53 162.229 L532.622 162.229 L532.622 158.293 Z" fill="#000000" fill-rule="nonzero" fill-opacity="1" /></svg>
