<?xml version="1.0" encoding="utf-8"?>
<svg xmlns="http://www.w3.org/2000/svg" xmlns:xlink="http://www.w3.org/1999/xlink" width="600" height="400" viewBox="0 0 2400 1600">
<defs>
  <clipPath id="clip930">
    <rect x="0" y="0" width="2400" height="1600"/>
  </clipPath>
</defs>
<path clip-path="url(#clip930)" d="M0 1600 L2400 1600 L2400 0 L0 0  Z" fill="#ffffff" fill-rule="evenodd" fill-opacity="1"/>
<defs>
  <clipPath id="clip931">
    <rect x="480" y="0" width="1681" height="1600"/>
  </clipPath>
</defs>
<path clip-path="url(#clip930)" d="M242.135 1423.18 L2352.76 1423.18 L2352.76 47.2441 L242.135 47.2441  Z" fill="#ffffff" fill-rule="evenodd" fill-opacity="1"/>
<defs>
  <clipPath id="clip932">
    <rect x="242" y="47" width="2112" height="1377"/>
  </clipPath>
</defs>
<polyline clip-path="url(#clip932)" style="stroke:#000000; stroke-linecap:round; stroke-linejoin:round; stroke-width:2; stroke-opacity:0.1; fill:none" points="301.205,1423.18 301.205,47.2441 "/>
<polyline clip-path="url(#clip932)" style="stroke:#000000; stroke-linecap:round; stroke-linejoin:round; stroke-width:2; stroke-opacity:0.1; fill:none" points="965.144,1423.18 965.144,47.2441 "/>
<polyline clip-path="url(#clip932)" style="stroke:#000000; stroke-linecap:round; stroke-linejoin:round; stroke-width:2; stroke-opacity:0.1; fill:none" points="1629.08,1423.18 1629.08,47.2441 "/>
<polyline clip-path="url(#clip932)" style="stroke:#000000; stroke-linecap:round; stroke-linejoin:round; stroke-width:2; stroke-opacity:0.1; fill:none" points="2293.02,1423.18 2293.02,47.2441 "/>
<polyline clip-path="url(#clip932)" style="stroke:#000000; stroke-linecap:round; stroke-linejoin:round; stroke-width:2; stroke-opacity:0.1; fill:none" points="242.135,1423.18 2352.76,1423.18 "/>
<polyline clip-path="url(#clip932)" style="stroke:#000000; stroke-linecap:round; stroke-linejoin:round; stroke-width:2; stroke-opacity:0.1; fill:none" points="242.135,1048.24 2352.76,1048.24 "/>
<polyline clip-path="url(#clip932)" style="stroke:#000000; stroke-linecap:round; stroke-linejoin:round; stroke-width:2; stroke-opacity:0.1; fill:none" points="242.135,673.291 2352.76,673.291 "/>
<polyline clip-path="url(#clip932)" style="stroke:#000000; stroke-linecap:round; stroke-linejoin:round; stroke-width:2; stroke-opacity:0.1; fill:none" points="242.135,298.346 2352.76,298.346 "/>
<polyline clip-path="url(#clip930)" style="stroke:#000000; stroke-linecap:round; stroke-linejoin:round; stroke-width:4; stroke-opacity:1; fill:none" points="242.135,1423.18 2352.76,1423.18 "/>
<polyline clip-path="url(#clip930)" style="stroke:#000000; stroke-linecap:round; stroke-linejoin:round; stroke-width:4; stroke-opacity:1; fill:none" points="301.205,1423.18 301.205,1404.28 "/>
<polyline clip-path="url(#clip930)" style="stroke:#000000; stroke-linecap:round; stroke-linejoin:round; stroke-width:4; stroke-opacity:1; fill:none" points="965.144,1423.18 965.144,1404.28 "/>
<polyline clip-path="url(#clip930)" style="stroke:#000000; stroke-linecap:round; stroke-linejoin:round; stroke-width:4; stroke-opacity:1; fill:none" points="1629.08,1423.18 1629.08,1404.28 "/>
<polyline clip-path="url(#clip930)" style="stroke:#000000; stroke-linecap:round; stroke-linejoin:round; stroke-width:4; stroke-opacity:1; fill:none" points="2293.02,1423.18 2293.02,1404.28 "/>
<path clip-path="url(#clip930)" d="M301.205 1454.1 Q297.594 1454.1 295.766 1457.66 Q293.96 1461.2 293.96 1468.33 Q293.96 1475.44 295.766 1479.01 Q297.594 1482.55 301.205 1482.55 Q304.84 1482.55 306.645 1479.01 Q308.474 1475.44 308.474 1468.33 Q308.474 1461.2 306.645 1457.66 Q304.84 1454.1 301.205 1454.1 M301.205 1450.39 Q307.015 1450.39 310.071 1455 Q313.15 1459.58 313.15 1468.33 Q313.15 1477.06 310.071 1481.67 Q307.015 1486.25 301.205 1486.25 Q295.395 1486.25 292.316 1481.67 Q289.261 1477.06 289.261 1468.33 Q289.261 1459.58 292.316 1455 Q295.395 1450.39 301.205 1450.39 Z" fill="#000000" fill-rule="nonzero" fill-opacity="1" /><path clip-path="url(#clip930)" d="M909.67 1481.64 L917.309 1481.64 L917.309 1455.28 L908.998 1456.95 L908.998 1452.69 L917.262 1451.02 L921.938 1451.02 L921.938 1481.64 L929.577 1481.64 L929.577 1485.58 L909.67 1485.58 L909.67 1481.64 Z" fill="#000000" fill-rule="nonzero" fill-opacity="1" /><path clip-path="url(#clip930)" d="M949.021 1454.1 Q945.41 1454.1 943.582 1457.66 Q941.776 1461.2 941.776 1468.33 Q941.776 1475.44 943.582 1479.01 Q945.41 1482.55 949.021 1482.55 Q952.656 1482.55 954.461 1479.01 Q956.29 1475.44 956.29 1468.33 Q956.29 1461.2 954.461 1457.66 Q952.656 1454.1 949.021 1454.1 M949.021 1450.39 Q954.832 1450.39 957.887 1455 Q960.966 1459.58 960.966 1468.33 Q960.966 1477.06 957.887 1481.67 Q954.832 1486.25 949.021 1486.25 Q943.211 1486.25 940.133 1481.67 Q937.077 1477.06 937.077 1468.33 Q937.077 1459.58 940.133 1455 Q943.211 1450.39 949.021 1450.39 Z" fill="#000000" fill-rule="nonzero" fill-opacity="1" /><path clip-path="url(#clip930)" d="M979.183 1454.1 Q975.572 1454.1 973.743 1457.66 Q971.938 1461.2 971.938 1468.33 Q971.938 1475.44 973.743 1479.01 Q975.572 1482.55 979.183 1482.55 Q982.817 1482.55 984.623 1479.01 Q986.452 1475.44 986.452 1468.33 Q986.452 1461.2 984.623 1457.66 Q982.817 1454.1 979.183 1454.1 M979.183 1450.39 Q984.993 1450.39 988.049 1455 Q991.128 1459.58 991.128 1468.33 Q991.128 1477.06 988.049 1481.67 Q984.993 1486.25 979.183 1486.25 Q973.373 1486.25 970.294 1481.67 Q967.239 1477.06 967.239 1468.33 Q967.239 1459.58 970.294 1455 Q973.373 1450.39 979.183 1450.39 Z" fill="#000000" fill-rule="nonzero" fill-opacity="1" /><path clip-path="url(#clip930)" d="M1009.35 1454.1 Q1005.73 1454.1 1003.91 1457.66 Q1002.1 1461.2 1002.1 1468.33 Q1002.1 1475.44 1003.91 1479.01 Q1005.73 1482.55 1009.35 1482.55 Q1012.98 1482.55 1014.78 1479.01 Q1016.61 1475.44 1016.61 1468.33 Q1016.61 1461.2 1014.78 1457.66 Q1012.98 1454.1 1009.35 1454.1 M1009.35 1450.39 Q1015.16 1450.39 1018.21 1455 Q1021.29 1459.58 1021.29 1468.33 Q1021.29 1477.06 1018.21 1481.67 Q1015.16 1486.25 1009.35 1486.25 Q1003.53 1486.25 1000.46 1481.67 Q997.401 1477.06 997.401 1468.33 Q997.401 1459.58 1000.46 1455 Q1003.53 1450.39 1009.35 1450.39 Z" fill="#000000" fill-rule="nonzero" fill-opacity="1" /><path clip-path="url(#clip930)" d="M1577.69 1481.64 L1594.01 1481.64 L1594.01 1485.58 L1572.07 1485.58 L1572.07 1481.64 Q1574.73 1478.89 1579.31 1474.26 Q1583.92 1469.61 1585.1 1468.27 Q1587.35 1465.74 1588.23 1464.01 Q1589.13 1462.25 1589.13 1460.56 Q1589.13 1457.8 1587.18 1456.07 Q1585.26 1454.33 1582.16 1454.33 Q1579.96 1454.33 1577.51 1455.09 Q1575.08 1455.86 1572.3 1457.41 L1572.3 1452.69 Q1575.12 1451.55 1577.58 1450.97 Q1580.03 1450.39 1582.07 1450.39 Q1587.44 1450.39 1590.63 1453.08 Q1593.83 1455.77 1593.83 1460.26 Q1593.83 1462.39 1593.02 1464.31 Q1592.23 1466.2 1590.12 1468.8 Q1589.55 1469.47 1586.44 1472.69 Q1583.34 1475.88 1577.69 1481.64 Z" fill="#000000" fill-rule="nonzero" fill-opacity="1" /><path clip-path="url(#clip930)" d="M1613.83 1454.1 Q1610.22 1454.1 1608.39 1457.66 Q1606.58 1461.2 1606.58 1468.33 Q1606.58 1475.44 1608.39 1479.01 Q1610.22 1482.55 1613.83 1482.55 Q1617.46 1482.55 1619.27 1479.01 Q1621.1 1475.44 1621.1 1468.33 Q1621.1 1461.2 1619.27 1457.66 Q1617.46 1454.1 1613.83 1454.1 M1613.83 1450.39 Q1619.64 1450.39 1622.69 1455 Q1625.77 1459.58 1625.77 1468.33 Q1625.77 1477.06 1622.69 1481.67 Q1619.64 1486.25 1613.83 1486.25 Q1608.02 1486.25 1604.94 1481.67 Q1601.88 1477.06 1601.88 1468.33 Q1601.88 1459.58 1604.94 1455 Q1608.02 1450.39 1613.83 1450.39 Z" fill="#000000" fill-rule="nonzero" fill-opacity="1" /><path clip-path="url(#clip930)" d="M1643.99 1454.1 Q1640.38 1454.1 1638.55 1457.66 Q1636.74 1461.2 1636.74 1468.33 Q1636.74 1475.44 1638.55 1479.01 Q1640.38 1482.55 1643.99 1482.55 Q1647.62 1482.55 1649.43 1479.01 Q1651.26 1475.44 1651.26 1468.33 Q1651.26 1461.2 1649.43 1457.66 Q1647.62 1454.1 1643.99 1454.1 M1643.99 1450.39 Q1649.8 1450.39 1652.86 1455 Q1655.93 1459.58 1655.93 1468.33 Q1655.93 1477.06 1652.86 1481.67 Q1649.8 1486.25 1643.99 1486.25 Q1638.18 1486.25 1635.1 1481.67 Q1632.05 1477.06 1632.05 1468.33 Q1632.05 1459.58 1635.1 1455 Q1638.18 1450.39 1643.99 1450.39 Z" fill="#000000" fill-rule="nonzero" fill-opacity="1" /><path clip-path="url(#clip930)" d="M1674.15 1454.1 Q1670.54 1454.1 1668.71 1457.66 Q1666.91 1461.2 1666.91 1468.33 Q1666.91 1475.44 1668.71 1479.01 Q1670.54 1482.55 1674.15 1482.55 Q1677.79 1482.55 1679.59 1479.01 Q1681.42 1475.44 1681.42 1468.33 Q1681.42 1461.2 1679.59 1457.66 Q1677.79 1454.1 1674.15 1454.1 M1674.15 1450.39 Q1679.96 1450.39 1683.02 1455 Q1686.1 1459.58 1686.1 1468.33 Q1686.1 1477.06 1683.02 1481.67 Q1679.96 1486.25 1674.15 1486.25 Q1668.34 1486.25 1665.26 1481.67 Q1662.21 1477.06 1662.21 1468.33 Q1662.21 1459.58 1665.26 1455 Q1668.34 1450.39 1674.15 1450.39 Z" fill="#000000" fill-rule="nonzero" fill-opacity="1" /><path clip-path="url(#clip930)" d="M2251.7 1466.95 Q2255.06 1467.66 2256.93 1469.93 Q2258.83 1472.2 2258.83 1475.53 Q2258.83 1480.65 2255.31 1483.45 Q2251.79 1486.25 2245.31 1486.25 Q2243.14 1486.25 2240.82 1485.81 Q2238.53 1485.39 2236.08 1484.54 L2236.08 1480.02 Q2238.02 1481.16 2240.34 1481.74 Q2242.65 1482.32 2245.17 1482.32 Q2249.57 1482.32 2251.86 1480.58 Q2254.18 1478.84 2254.18 1475.53 Q2254.18 1472.48 2252.03 1470.77 Q2249.9 1469.03 2246.08 1469.03 L2242.05 1469.03 L2242.05 1465.19 L2246.26 1465.19 Q2249.71 1465.19 2251.54 1463.82 Q2253.37 1462.43 2253.37 1459.84 Q2253.37 1457.18 2251.47 1455.77 Q2249.6 1454.33 2246.08 1454.33 Q2244.16 1454.33 2241.96 1454.75 Q2239.76 1455.16 2237.12 1456.04 L2237.12 1451.88 Q2239.78 1451.14 2242.1 1450.77 Q2244.43 1450.39 2246.49 1450.39 Q2251.82 1450.39 2254.92 1452.83 Q2258.02 1455.23 2258.02 1459.35 Q2258.02 1462.22 2256.38 1464.21 Q2254.73 1466.18 2251.7 1466.95 Z" fill="#000000" fill-rule="nonzero" fill-opacity="1" /><path clip-path="url(#clip930)" d="M2277.7 1454.1 Q2274.09 1454.1 2272.26 1457.66 Q2270.45 1461.2 2270.45 1468.33 Q2270.45 1475.44 2272.26 1479.01 Q2274.09 1482.55 2277.7 1482.55 Q2281.33 1482.55 2283.14 1479.01 Q2284.97 1475.44 2284.97 1468.33 Q2284.97 1461.2 2283.14 1457.66 Q2281.33 1454.1 2277.7 1454.1 M2277.7 1450.39 Q2283.51 1450.39 2286.56 1455 Q2289.64 1459.58 2289.64 1468.33 Q2289.64 1477.06 2286.56 1481.67 Q2283.51 1486.25 2277.7 1486.25 Q2271.89 1486.25 2268.81 1481.67 Q2265.75 1477.06 2265.75 1468.33 Q2265.75 1459.58 2268.81 1455 Q2271.89 1450.39 2277.7 1450.39 Z" fill="#000000" fill-rule="nonzero" fill-opacity="1" /><path clip-path="url(#clip930)" d="M2307.86 1454.1 Q2304.25 1454.1 2302.42 1457.66 Q2300.61 1461.2 2300.61 1468.33 Q2300.61 1475.44 2302.42 1479.01 Q2304.25 1482.55 2307.86 1482.55 Q2311.49 1482.55 2313.3 1479.01 Q2315.13 1475.44 2315.13 1468.33 Q2315.13 1461.2 2313.3 1457.66 Q2311.49 1454.1 2307.86 1454.1 M2307.86 1450.39 Q2313.67 1450.39 2316.72 1455 Q2319.8 1459.58 2319.8 1468.33 Q2319.8 1477.06 2316.72 1481.67 Q2313.67 1486.25 2307.86 1486.25 Q2302.05 1486.25 2298.97 1481.67 Q2295.91 1477.06 2295.91 1468.33 Q2295.91 1459.58 2298.97 1455 Q2302.05 1450.39 2307.86 1450.39 Z" fill="#000000" fill-rule="nonzero" fill-opacity="1" /><path clip-path="url(#clip930)" d="M2338.02 1454.1 Q2334.41 1454.1 2332.58 1457.66 Q2330.78 1461.2 2330.78 1468.33 Q2330.78 1475.44 2332.58 1479.01 Q2334.41 1482.55 2338.02 1482.55 Q2341.66 1482.55 2343.46 1479.01 Q2345.29 1475.44 2345.29 1468.33 Q2345.29 1461.2 2343.46 1457.66 Q2341.66 1454.1 2338.02 1454.1 M2338.02 1450.39 Q2343.83 1450.39 2346.89 1455 Q2349.97 1459.58 2349.97 1468.33 Q2349.97 1477.06 2346.89 1481.67 Q2343.83 1486.25 2338.02 1486.25 Q2332.21 1486.25 2329.13 1481.67 Q2326.08 1477.06 2326.08 1468.33 Q2326.08 1459.58 2329.13 1455 Q2332.21 1450.39 2338.02 1450.39 Z" fill="#000000" fill-rule="nonzero" fill-opacity="1" /><path clip-path="url(#clip930)" d="M1165.17 1520.52 L1171.6 1520.52 L1171.6 1568.04 L1165.17 1568.04 L1165.17 1520.52 Z" fill="#000000" fill-rule="nonzero" fill-opacity="1" /><path clip-path="url(#clip930)" d="M1189.93 1522.27 L1189.93 1532.4 L1201.99 1532.4 L1201.99 1536.95 L1189.93 1536.95 L1189.93 1556.3 Q1189.93 1560.66 1191.11 1561.9 Q1192.32 1563.14 1195.98 1563.14 L1201.99 1563.14 L1201.99 1568.04 L1195.98 1568.04 Q1189.2 1568.04 1186.62 1565.53 Q1184.04 1562.98 1184.04 1556.3 L1184.04 1536.95 L1179.74 1536.95 L1179.74 1532.4 L1184.04 1532.4 L1184.04 1522.27 L1189.93 1522.27 Z" fill="#000000" fill-rule="nonzero" fill-opacity="1" /><path clip-path="url(#clip930)" d="M1240.19 1548.76 L1240.19 1551.62 L1213.26 1551.62 Q1213.64 1557.67 1216.89 1560.85 Q1220.17 1564 1225.99 1564 Q1229.36 1564 1232.52 1563.17 Q1235.7 1562.35 1238.82 1560.69 L1238.82 1566.23 Q1235.67 1567.57 1232.36 1568.27 Q1229.05 1568.97 1225.64 1568.97 Q1217.11 1568.97 1212.11 1564 Q1207.15 1559.04 1207.15 1550.57 Q1207.15 1541.82 1211.86 1536.69 Q1216.6 1531.54 1224.62 1531.54 Q1231.81 1531.54 1235.98 1536.18 Q1240.19 1540.8 1240.19 1548.76 M1234.33 1547.04 Q1234.27 1542.23 1231.62 1539.37 Q1229.01 1536.5 1224.69 1536.5 Q1219.78 1536.5 1216.82 1539.27 Q1213.9 1542.04 1213.45 1547.07 L1234.33 1547.04 Z" fill="#000000" fill-rule="nonzero" fill-opacity="1" /><path clip-path="url(#clip930)" d="M1270.45 1537.87 Q1269.47 1537.3 1268.29 1537.04 Q1267.14 1536.76 1265.74 1536.76 Q1260.78 1536.76 1258.11 1540 Q1255.46 1543.22 1255.46 1549.27 L1255.46 1568.04 L1249.58 1568.04 L1249.58 1532.4 L1255.46 1532.4 L1255.46 1537.93 Q1257.31 1534.69 1260.27 1533.13 Q1263.23 1531.54 1267.46 1531.54 Q1268.07 1531.54 1268.8 1531.63 Q1269.53 1531.7 1270.42 1531.85 L1270.45 1537.87 Z" fill="#000000" fill-rule="nonzero" fill-opacity="1" /><path clip-path="url(#clip930)" d="M1292.8 1550.12 Q1285.7 1550.12 1282.96 1551.75 Q1280.23 1553.37 1280.23 1557.29 Q1280.23 1560.4 1282.26 1562.25 Q1284.33 1564.07 1287.86 1564.07 Q1292.73 1564.07 1295.66 1560.63 Q1298.62 1557.16 1298.62 1551.43 L1298.62 1550.12 L1292.8 1550.12 M1304.48 1547.71 L1304.48 1568.04 L1298.62 1568.04 L1298.62 1562.63 Q1296.62 1565.88 1293.63 1567.44 Q1290.63 1568.97 1286.31 1568.97 Q1280.83 1568.97 1277.58 1565.91 Q1274.37 1562.82 1274.37 1557.67 Q1274.37 1551.65 1278.38 1548.6 Q1282.42 1545.54 1290.41 1545.54 L1298.62 1545.54 L1298.62 1544.97 Q1298.62 1540.93 1295.95 1538.73 Q1293.31 1536.5 1288.5 1536.5 Q1285.45 1536.5 1282.55 1537.23 Q1279.65 1537.97 1276.98 1539.43 L1276.98 1534.02 Q1280.19 1532.78 1283.22 1532.17 Q1286.24 1531.54 1289.11 1531.54 Q1296.84 1531.54 1300.66 1535.55 Q1304.48 1539.56 1304.48 1547.71 Z" fill="#000000" fill-rule="nonzero" fill-opacity="1" /><path clip-path="url(#clip930)" d="M1322.34 1522.27 L1322.34 1532.4 L1334.4 1532.4 L1334.4 1536.95 L1322.34 1536.95 L1322.34 1556.3 Q1322.34 1560.66 1323.51 1561.9 Q1324.72 1563.14 1328.38 1563.14 L1334.4 1563.14 L1334.4 1568.04 L1328.38 1568.04 Q1321.6 1568.04 1319.03 1565.53 Q1316.45 1562.98 1316.45 1556.3 L1316.45 1536.95 L1312.15 1536.95 L1312.15 1532.4 L1316.45 1532.4 L1316.45 1522.27 L1322.34 1522.27 Z" fill="#000000" fill-rule="nonzero" fill-opacity="1" /><path clip-path="url(#clip930)" d="M1342.1 1532.4 L1347.96 1532.4 L1347.96 1568.04 L1342.1 1568.04 L1342.1 1532.4 M1342.1 1518.52 L1347.96 1518.52 L1347.96 1525.93 L1342.1 1525.93 L1342.1 1518.52 Z" fill="#000000" fill-rule="nonzero" fill-opacity="1" /><path clip-path="url(#clip930)" d="M1374.02 1536.5 Q1369.31 1536.5 1366.58 1540.19 Q1363.84 1543.85 1363.84 1550.25 Q1363.84 1556.65 1366.55 1560.34 Q1369.28 1564 1374.02 1564 Q1378.7 1564 1381.44 1560.31 Q1384.18 1556.62 1384.18 1550.25 Q1384.18 1543.92 1381.44 1540.23 Q1378.7 1536.5 1374.02 1536.5 M1374.02 1531.54 Q1381.66 1531.54 1386.02 1536.5 Q1390.38 1541.47 1390.38 1550.25 Q1390.38 1559 1386.02 1564 Q1381.66 1568.97 1374.02 1568.97 Q1366.35 1568.97 1361.99 1564 Q1357.66 1559 1357.66 1550.25 Q1357.66 1541.47 1361.99 1536.5 Q1366.35 1531.54 1374.02 1531.54 Z" fill="#000000" fill-rule="nonzero" fill-opacity="1" /><path clip-path="url(#clip930)" d="M1429.72 1546.53 L1429.72 1568.04 L1423.87 1568.04 L1423.87 1546.72 Q1423.87 1541.66 1421.89 1539.14 Q1419.92 1536.63 1415.97 1536.63 Q1411.23 1536.63 1408.5 1539.65 Q1405.76 1542.68 1405.76 1547.9 L1405.76 1568.04 L1399.87 1568.04 L1399.87 1532.4 L1405.76 1532.4 L1405.76 1537.93 Q1407.86 1534.72 1410.69 1533.13 Q1413.56 1531.54 1417.28 1531.54 Q1423.42 1531.54 1426.57 1535.36 Q1429.72 1539.14 1429.72 1546.53 Z" fill="#000000" fill-rule="nonzero" fill-opacity="1" /><polyline clip-path="url(#clip930)" style="stroke:#000000; stroke-linecap:round; stroke-linejoin:round; stroke-width:4; stroke-opacity:1; fill:none" points="242.135,1423.18 242.135,47.2441 "/>
<polyline clip-path="url(#clip930)" style="stroke:#000000; stroke-linecap:round; stroke-linejoin:round; stroke-width:4; stroke-opacity:1; fill:none" points="242.135,1423.18 261.032,1423.18 "/>
<polyline clip-path="url(#clip930)" style="stroke:#000000; stroke-linecap:round; stroke-linejoin:round; stroke-width:4; stroke-opacity:1; fill:none" points="242.135,1048.24 261.032,1048.24 "/>
<polyline clip-path="url(#clip930)" style="stroke:#000000; stroke-linecap:round; stroke-linejoin:round; stroke-width:4; stroke-opacity:1; fill:none" points="242.135,673.291 261.032,673.291 "/>
<polyline clip-path="url(#clip930)" style="stroke:#000000; stroke-linecap:round; stroke-linejoin:round; stroke-width:4; stroke-opacity:1; fill:none" points="242.135,298.346 261.032,298.346 "/>
<path clip-path="url(#clip930)" d="M114.26 1423.63 L143.936 1423.63 L143.936 1427.57 L114.26 1427.57 L114.26 1423.63 Z" fill="#000000" fill-rule="nonzero" fill-opacity="1" /><path clip-path="url(#clip930)" d="M154.839 1436.52 L162.477 1436.52 L162.477 1410.16 L154.167 1411.83 L154.167 1407.57 L162.431 1405.9 L167.107 1405.9 L167.107 1436.52 L174.746 1436.52 L174.746 1440.46 L154.839 1440.46 L154.839 1436.52 Z" fill="#000000" fill-rule="nonzero" fill-opacity="1" /><path clip-path="url(#clip930)" d="M194.19 1408.98 Q190.579 1408.98 188.75 1412.54 Q186.945 1416.08 186.945 1423.21 Q186.945 1430.32 188.75 1433.89 Q190.579 1437.43 194.19 1437.43 Q197.825 1437.43 199.63 1433.89 Q201.459 1430.32 201.459 1423.21 Q201.459 1416.08 199.63 1412.54 Q197.825 1408.98 194.19 1408.98 M194.19 1405.27 Q200 1405.27 203.056 1409.88 Q206.135 1414.46 206.135 1423.21 Q206.135 1431.94 203.056 1436.55 Q200 1441.13 194.19 1441.13 Q188.38 1441.13 185.301 1436.55 Q182.246 1431.94 182.246 1423.21 Q182.246 1414.46 185.301 1409.88 Q188.38 1405.27 194.19 1405.27 Z" fill="#000000" fill-rule="nonzero" fill-opacity="1" /><path clip-path="url(#clip930)" d="M144.515 1048.69 L174.19 1048.69 L174.19 1052.62 L144.515 1052.62 L144.515 1048.69 Z" fill="#000000" fill-rule="nonzero" fill-opacity="1" /><path clip-path="url(#clip930)" d="M194.283 1049.1 Q190.95 1049.1 189.028 1050.89 Q187.13 1052.67 187.13 1055.79 Q187.13 1058.92 189.028 1060.7 Q190.95 1062.48 194.283 1062.48 Q197.616 1062.48 199.537 1060.7 Q201.459 1058.9 201.459 1055.79 Q201.459 1052.67 199.537 1050.89 Q197.639 1049.1 194.283 1049.1 M189.607 1047.11 Q186.598 1046.37 184.908 1044.31 Q183.241 1042.25 183.241 1039.29 Q183.241 1035.15 186.181 1032.74 Q189.144 1030.33 194.283 1030.33 Q199.445 1030.33 202.385 1032.74 Q205.324 1035.15 205.324 1039.29 Q205.324 1042.25 203.635 1044.31 Q201.968 1046.37 198.982 1047.11 Q202.362 1047.9 204.237 1050.19 Q206.135 1052.48 206.135 1055.79 Q206.135 1060.82 203.056 1063.5 Q200 1066.19 194.283 1066.19 Q188.565 1066.19 185.487 1063.5 Q182.431 1060.82 182.431 1055.79 Q182.431 1052.48 184.329 1050.19 Q186.227 1047.9 189.607 1047.11 M187.894 1039.73 Q187.894 1042.41 189.561 1043.92 Q191.25 1045.42 194.283 1045.42 Q197.292 1045.42 198.982 1043.92 Q200.695 1042.41 200.695 1039.73 Q200.695 1037.04 198.982 1035.54 Q197.292 1034.03 194.283 1034.03 Q191.25 1034.03 189.561 1035.54 Q187.894 1037.04 187.894 1039.73 Z" fill="#000000" fill-rule="nonzero" fill-opacity="1" /><path clip-path="url(#clip930)" d="M144.26 673.742 L173.936 673.742 L173.936 677.677 L144.26 677.677 L144.26 673.742 Z" fill="#000000" fill-rule="nonzero" fill-opacity="1" /><path clip-path="url(#clip930)" d="M194.607 671.427 Q191.459 671.427 189.607 673.58 Q187.778 675.733 187.778 679.483 Q187.778 683.21 189.607 685.386 Q191.459 687.538 194.607 687.538 Q197.755 687.538 199.584 685.386 Q201.436 683.21 201.436 679.483 Q201.436 675.733 199.584 673.58 Q197.755 671.427 194.607 671.427 M203.889 656.775 L203.889 661.034 Q202.13 660.201 200.325 659.761 Q198.542 659.321 196.783 659.321 Q192.153 659.321 189.7 662.446 Q187.269 665.571 186.922 671.89 Q188.288 669.877 190.348 668.812 Q192.408 667.724 194.885 667.724 Q200.093 667.724 203.102 670.895 Q206.135 674.043 206.135 679.483 Q206.135 684.807 202.987 688.025 Q199.838 691.242 194.607 691.242 Q188.612 691.242 185.44 686.659 Q182.269 682.052 182.269 673.326 Q182.269 665.131 186.158 660.27 Q190.047 655.386 196.598 655.386 Q198.357 655.386 200.139 655.733 Q201.945 656.08 203.889 656.775 Z" fill="#000000" fill-rule="nonzero" fill-opacity="1" /><path clip-path="url(#clip930)" d="M143.936 298.798 L173.612 298.798 L173.612 302.733 L143.936 302.733 L143.936 298.798 Z" fill="#000000" fill-rule="nonzero" fill-opacity="1" /><path clip-path="url(#clip930)" d="M196.551 285.14 L184.746 303.589 L196.551 303.589 L196.551 285.14 M195.325 281.066 L201.204 281.066 L201.204 303.589 L206.135 303.589 L206.135 307.478 L201.204 307.478 L201.204 315.626 L196.551 315.626 L196.551 307.478 L180.95 307.478 L180.95 302.964 L195.325 281.066 Z" fill="#000000" fill-rule="nonzero" fill-opacity="1" /><path clip-path="url(#clip930)" d="M16.4842 816.375 L16.4842 786.329 L21.895 786.329 L21.895 809.945 L35.9632 809.945 L35.9632 787.315 L41.3741 787.315 L41.3741 809.945 L58.5933 809.945 L58.5933 785.756 L64.0042 785.756 L64.0042 816.375 L16.4842 816.375 Z" fill="#000000" fill-rule="nonzero" fill-opacity="1" /><path clip-path="url(#clip930)" d="M16.4842 775.189 L16.4842 768.759 L58.5933 768.759 L58.5933 745.62 L64.0042 745.62 L64.0042 775.189 L16.4842 775.189 Z" fill="#000000" fill-rule="nonzero" fill-opacity="1" /><path clip-path="url(#clip930)" d="M41.3104 732.443 L58.7206 732.443 L58.7206 722.13 Q58.7206 716.942 56.5881 714.46 Q54.4238 711.945 49.9996 711.945 Q45.5436 711.945 43.4429 714.46 Q41.3104 716.942 41.3104 722.13 L41.3104 732.443 M21.7677 732.443 L36.0905 732.443 L36.0905 722.926 Q36.0905 718.216 34.34 715.924 Q32.5576 713.6 28.9291 713.6 Q25.3325 713.6 23.5501 715.924 Q21.7677 718.216 21.7677 722.926 L21.7677 732.443 M16.4842 738.872 L16.4842 722.449 Q16.4842 715.096 19.5397 711.118 Q22.5952 707.139 28.2289 707.139 Q32.5894 707.139 35.1675 709.176 Q37.7456 711.213 38.3822 715.16 Q39.4007 710.418 42.6472 707.808 Q45.8619 705.166 50.6998 705.166 Q57.0655 705.166 60.5348 709.495 Q64.0042 713.823 64.0042 721.812 L64.0042 738.872 L16.4842 738.872 Z" fill="#000000" fill-rule="nonzero" fill-opacity="1" /><path clip-path="url(#clip930)" d="M20.8447 676.011 Q20.8447 683.013 26.0645 687.151 Q31.2844 691.257 40.2919 691.257 Q49.2675 691.257 54.4874 687.151 Q59.7073 683.013 59.7073 676.011 Q59.7073 669.009 54.4874 664.935 Q49.2675 660.829 40.2919 660.829 Q31.2844 660.829 26.0645 664.935 Q20.8447 669.009 20.8447 676.011 M15.6248 676.011 Q15.6248 666.017 22.3406 660.033 Q29.0246 654.049 40.2919 654.049 Q51.5274 654.049 58.2432 660.033 Q64.9272 666.017 64.9272 676.011 Q64.9272 686.037 58.2432 692.052 Q51.5592 698.036 40.2919 698.036 Q29.0246 698.036 22.3406 692.052 Q15.6248 686.037 15.6248 676.011 Z" fill="#000000" fill-rule="nonzero" fill-opacity="1" /><polyline clip-path="url(#clip932)" style="stroke:#009af9; stroke-linecap:round; stroke-linejoin:round; stroke-width:4; stroke-opacity:1; fill:none" points="301.869,1012.97 302.533,1335.79 303.197,1574.6 303.861,1485.13 304.525,789.242 305.189,1139.6 305.853,778.869 306.517,1103.21 307.181,1492.59 307.845,2759.6 308.509,1540.75 309.173,1700.64 309.836,1560.66 310.5,1078.68 311.164,1045.72 311.828,1256.38 312.492,1266 313.156,1117.49 313.82,1064.11 314.484,1255.39 315.148,1460.39 315.812,914.747 316.476,1585.4 317.14,925.999 317.804,699.913 318.468,565.032 319.132,423.488 319.796,717.879 320.46,682.589 321.123,880.135 321.787,617.245 322.451,440.33 323.115,357.853 323.779,495.937 324.443,702.956 325.107,434.812 325.771,441.292 326.435,669.41 327.099,324.4 327.763,371.68 328.427,324.557 329.091,369.579 329.755,654.629 330.419,355.145 331.083,312.787 331.746,402.756 332.41,464.542 333.074,247.326 333.738,339.542 334.402,555.993 335.066,995.262 335.73,685.211 336.394,586.34 337.058,578.567 337.722,586.977 338.386,308.515 339.05,319.761 339.714,327.995 340.378,563.225 341.042,325.991 341.706,272.206 342.369,226.993 343.033,266.537 343.697,225.928 344.361,201.319 345.025,183.158 345.689,368.662 346.353,457.494 347.017,358.939 347.681,239.721 348.345,206.306 349.009,432.928 349.673,373.048 350.337,231.572 351.001,255.301 351.665,222.972 352.329,238.098 352.993,344.721 353.656,597.291 354.32,289.684 354.984,165.227 355.648,211.038 356.312,271.753 356.976,173.424 357.64,234.918 358.304,244.495 358.968,242.996 359.632,187.964 360.296,302.481 360.96,142.748 361.624,181.301 362.288,210.698 362.952,186.797 363.616,144.422 364.279,208.139 364.943,347.459 365.607,267.912 366.271,97.076 366.935,183.125 367.599,211.312 368.263,192.026 368.927,215.874 369.591,349.3 370.255,161.376 370.919,267.185 371.583,260.589 372.247,275.022 372.911,169.578 373.575,157.318 374.239,174.343 374.902,266.937 375.566,207.134 376.23,173.302 376.894,157.11 377.558,457.337 378.222,298.496 378.886,195.814 379.55,212.325 380.214,250.344 380.878,183.883 381.542,120.141 382.206,165.361 382.87,222.124 383.534,231.983 384.198,141.898 384.862,185.692 385.526,139.918 386.189,139.957 386.853,277.245 387.517,206.646 388.181,238.96 388.845,314.69 389.509,217.218 390.173,245.284 390.837,197.254 391.501,244.492 392.165,256.357 392.829,220.033 393.493,188.188 394.157,162.023 394.821,179.501 395.485,197.832 396.149,190.519 396.812,206.149 397.476,281.24 398.14,180.269 398.804,162.694 399.468,167.733 400.132,187.291 400.796,186.515 401.46,187.772 402.124,157.774 402.788,129.867 403.452,315.277 404.116,271.104 404.78,190.89 405.444,174.893 406.108,147.173 406.772,259.473 407.435,231.778 408.099,165.045 408.763,135.431 409.427,286.112 410.091,170.483 410.755,254.373 411.419,163.989 412.083,175.996 412.747,170.465 413.411,213.824 414.075,99.7227 414.739,160.174 415.403,213.582 416.067,204.993 416.731,173.47 417.395,196.708 418.058,140.576 418.722,163.506 419.386,142.641 420.05,247.942 420.714,282.732 421.378,187.667 422.042,114.687 422.706,152.227 423.37,109.663 424.034,49.6884 424.698,241.29 425.362,179.585 426.026,198.279 426.69,211.896 427.354,163.801 428.018,153.87 428.682,235.177 429.345,188.132 430.009,196.682 430.673,199.665 431.337,187.723 432.001,158.819 432.665,194.058 433.329,170.033 433.993,166.321 434.657,183.643 435.321,176.879 435.985,148.557 436.649,198.25 437.313,159.398 437.977,112.473 438.641,405.498 439.305,245.005 439.968,208.795 440.632,195.156 441.296,8358.39 441.96,649.033 442.624,500.205 443.288,491.557 443.952,409.182 444.616,386.874 445.28,376.498 445.944,460.631 446.608,478.727 447.272,362.353 447.936,393.128 448.6,421.451 449.264,356.576 449.928,562.973 450.591,399.667 451.255,417.967 451.919,334.491 452.583,263.489 453.247,553.987 453.911,444.211 454.575,457.47 455.239,470.499 455.903,335.005 456.567,453.595 457.231,448.075 457.895,394.257 458.559,482.963 459.223,403.079 459.887,387.642 460.551,416.148 461.215,387.694 461.878,419.141 462.542,383.53 463.206,389.057 463.87,373.435 464.534,350.532 465.198,484.44 465.862,591.128 466.526,474.755 467.19,500.241 467.854,451.697 468.518,447.469 469.182,395.414 469.846,441.369 470.51,382.905 471.174,330.079 471.838,371.884 472.501,420.151 473.165,378.971 473.829,353.325 474.493,413.531 475.157,391.674 475.821,439.808 476.485,383.322 477.149,532.818 477.813,340.837 478.477,421.305 479.141,332.681 479.805,356.655 480.469,470.183 481.133,423.486 481.797,330.686 482.461,389.82 483.124,448.819 483.788,410.96 484.452,393.174 485.116,387.677 485.78,466.907 486.444,344.893 487.108,449.9 487.772,326.558 488.436,389.386 489.1,371.5 489.764,344.293 490.428,335.337 491.092,424.903 491.756,445.019 492.42,306.814 493.084,421.241 493.748,373.307 494.411,375.975 495.075,326.611 495.739,401.856 496.403,344.495 497.067,386.259 497.731,454.679 498.395,374.725 499.059,290.41 499.723,299.703 500.387,358.485 501.051,327.642 501.715,334.942 502.379,385.783 503.043,342.25 503.707,383.665 504.371,246.096 505.034,345.267 505.698,246.845 506.362,358.689 507.026,292.45 507.69,306.688 508.354,333.169 509.018,286.63 509.682,372.973 510.346,306.845 511.01,352.586 511.674,319.601 512.338,399.766 513.002,333.566 513.666,356.44 514.33,357.319 514.994,292.659 515.657,349.433 516.321,296.667 516.985,327.232 517.649,336.352 518.313,361.401 518.977,347.27 519.641,402.993 520.305,359.318 520.969,301.254 521.633,318.318 522.297,314.434 522.961,346.239 523.625,405.679 524.289,351.463 524.953,379.632 525.617,437.356 526.281,383.997 526.944,322.285 527.608,386.57 528.272,432.427 528.936,410.433 529.6,314.112 530.264,287.628 530.928,342.04 531.592,201.581 532.256,357.885 532.92,349.884 533.584,319.62 534.248,353.205 534.912,234.652 535.576,362.404 536.24,343.855 536.904,272.514 537.567,286.634 538.231,339.076 538.895,299.997 539.559,289.655 540.223,330.163 540.887,391.113 541.551,331.868 542.215,325.112 542.879,331.568 543.543,504.793 544.207,305.601 544.871,351.509 545.535,325.932 546.199,286.021 546.863,355.354 547.527,301.546 548.19,309.495 548.854,198.804 549.518,365.961 550.182,295.853 550.846,264.211 551.51,254.865 552.174,238.883 552.838,269.998 553.502,299.707 554.166,161.006 554.83,260.007 555.494,312.165 556.158,114.598 556.822,351.495 557.486,151.855 558.15,291.242 558.813,244.248 559.477,326.645 560.141,327.309 560.805,263.862 561.469,338.554 562.133,320.363 562.797,320.952 563.461,261.1 564.125,367.116 564.789,334.385 565.453,331.123 566.117,314.91 566.781,277.712 567.445,249.903 568.109,266.036 568.773,314.169 569.437,305.08 570.1,273.897 570.764,325.967 571.428,297.643 572.092,320.922 572.756,263.139 573.42,302.885 574.084,288.565 574.748,319.083 575.412,327.313 576.076,350.271 576.74,346.552 577.404,342.555 578.068,282.83 578.732,393.287 579.396,308.088 580.06,331.169 580.723,256.818 581.387,290.244 582.051,300.886 582.715,287.164 583.379,287.094 584.043,259.855 584.707,313.893 585.371,265.367 586.035,247.074 586.699,344.458 587.363,345.008 588.027,232.561 588.691,329.673 589.355,287.165 590.019,290.814 590.683,316.52 591.346,275.713 592.01,242.971 592.674,230.833 593.338,254.368 594.002,266.206 594.666,329.928 595.33,399.706 595.994,248.259 596.658,1316.63 597.322,280.673 597.986,294.321 598.65,293.147 599.314,335.916 599.978,326.515 600.642,292.635 601.306,351.321 601.97,269.783 602.633,304.192 603.297,307.565 603.961,205.204 604.625,317.976 605.289,268.542 605.953,276.95 606.617,206.43 607.281,228.891 607.945,331.72 608.609,255.365 609.273,275.58 609.937,156.547 610.601,325.031 611.265,218.063 611.929,281.552 612.593,287.278 613.256,307.641 613.92,292.373 614.584,230.84 615.248,256.85 615.912,310.026 616.576,263.427 617.24,379.033 617.904,199.572 618.568,293.875 619.232,272.292 619.896,209.717 620.56,256.982 621.224,266.671 621.888,262.488 622.552,262.057 623.216,277.9 623.879,171.21 624.543,241.345 625.207,264.631 625.871,245.027 626.535,212.228 627.199,279.437 627.863,273.751 628.527,259.637 629.191,257.738 629.855,260.605 630.519,262.202 631.183,251.186 631.847,343.278 632.511,269.205 633.175,241.885 633.839,284.95 634.503,229.002 635.166,289.796 635.83,271.569 636.494,340.725 637.158,261.498 637.822,261.936 638.486,255.132 639.15,276.104 639.814,237.141 640.478,281.153 641.142,256.149 641.806,253.348 642.47,307.841 643.134,262.256 643.798,308.889 644.462,244.652 645.126,261.991 645.789,211.154 646.453,279.975 647.117,305.614 647.781,201.074 648.445,264.631 649.109,164.709 649.773,281.673 650.437,271.882 651.101,266.922 651.765,258.518 652.429,374.906 653.093,290.483 653.757,271.608 654.421,235.599 655.085,210.127 655.749,212.1 656.412,301.312 657.076,287.1 657.74,255.982 658.404,232.794 659.068,245.983 659.732,317.977 660.396,271.283 661.06,220.263 661.724,283.753 662.388,198.392 663.052,233.032 663.716,213.736 664.38,208.986 665.044,316.006 665.708,270.835 666.372,215.902 667.036,266.354 667.699,257.307 668.363,273.781 669.027,194.684 669.691,254.486 670.355,203.384 671.019,212.859 671.683,303.166 672.347,243.545 673.011,177.945 673.675,240.365 674.339,270.267 675.003,237.072 675.667,312.013 676.331,226.423 676.995,255.353 677.659,278.831 678.322,228.06 678.986,221.309 679.65,185.242 680.314,204.259 680.978,210.12 681.642,208.932 682.306,272.201 682.97,218.086 683.634,272.406 684.298,251.401 684.962,237.961 685.626,183.367 686.29,234.516 686.954,258.099 687.618,235.702 688.282,276.781 688.945,162.034 689.609,259.615 690.273,257.19 690.937,244 691.601,220.713 692.265,169.816 692.929,192.537 693.593,322.732 694.257,236.074 694.921,248.776 695.585,269.716 696.249,240.365 696.913,273.361 697.577,248.511 698.241,257.602 698.905,229.561 699.569,260.805 700.232,209.705 700.896,250.99 701.56,298.82 702.224,272.509 702.888,247.693 703.552,257.096 704.216,220.234 704.88,205.559 705.544,244.914 706.208,334.691 706.872,173.223 707.536,169.024 708.2,229.122 708.864,268.639 709.528,194.718 710.192,298.13 710.855,224.924 711.519,242.651 712.183,167.095 712.847,193.204 713.511,280.809 714.175,258.001 714.839,188.044 715.503,242.502 716.167,249.776 716.831,243.355 717.495,232.427 718.159,242.386 718.823,258.674 719.487,175.608 720.151,235.052 720.815,362.481 721.478,247.854 722.142,211.48 722.806,161.867 723.47,187.86 724.134,305.544 724.798,179.062 725.462,256.464 726.126,260.399 726.79,193.192 727.454,286.447 728.118,250.026 728.782,231.515 729.446,249.673 730.11,244.676 730.774,228.87 731.438,257.388 732.101,260.226 732.765,256.337 733.429,253.786 734.093,249.826 734.757,233.379 735.421,193.708 736.085,264.863 736.749,194.587 737.413,207.73 738.077,242.071 738.741,158.99 739.405,229.815 740.069,229.282 740.733,233.182 741.397,247.306 742.061,313.382 742.725,190.98 743.388,222.394 744.052,253.366 744.716,232.705 745.38,264.962 746.044,245.487 746.708,230.359 747.372,202.056 748.036,183.34 748.7,208.61 749.364,223.443 750.028,226.184 750.692,233.083 751.356,230.003 752.02,246.561 752.684,237.942 753.348,318.445 754.011,186.119 754.675,251.568 755.339,261.72 756.003,173.388 756.667,222.897 757.331,167.305 757.995,211.685 758.659,248.258 759.323,240.251 759.987,231.008 760.651,269.924 761.315,193.487 761.979,204.037 762.643,233.112 763.307,251.664 763.971,248.962 764.634,207.935 765.298,350.542 765.962,230.639 766.626,170.746 767.29,223.256 767.954,243.081 768.618,194.89 769.282,190.104 769.946,231.511 770.61,199.649 771.274,268.255 771.938,217.207 772.602,187.446 773.266,228.481 773.93,228.48 774.594,225.459 775.258,240.425 775.921,156.297 776.585,223.308 777.249,223.598 777.913,226.56 778.577,244.015 779.241,214.937 779.905,204.293 780.569,200.739 781.233,187.235 781.897,273.121 782.561,246.532 783.225,271.119 783.889,213.215 784.553,222.85 785.217,181.959 785.881,223.278 786.544,219.749 787.208,234.09 787.872,215.07 788.536,236.408 789.2,220.225 789.864,231.236 790.528,218.789 791.192,218.498 791.856,237.69 792.52,356.35 793.184,224.343 793.848,231.663 794.512,205.981 795.176,211.295 795.84,257.222 796.504,260.403 797.167,193.857 797.831,259.126 798.495,175.915 799.159,148.535 799.823,239.475 800.487,195.695 801.151,230.327 801.815,210.529 802.479,215.895 803.143,212.359 803.807,183.084 804.471,240.449 805.135,229.819 805.799,205.773 806.463,231.903 807.127,229.348 807.791,237.859 808.454,211.653 809.118,168.762 809.782,251.156 810.446,229.785 811.11,233.394 811.774,158.202 812.438,188.854 813.102,179.126 813.766,212.982 814.43,237.108 815.094,213.281 815.758,223.504 816.422,211.891 817.086,216.094 817.75,183.188 818.414,288.719 819.077,202.784 819.741,191.788 820.405,298.708 821.069,223.113 821.733,195.712 822.397,230.356 823.061,199.862 823.725,249.462 824.389,199.075 825.053,176.603 825.717,240.63 826.381,219.418 827.045,177.156 827.709,211.002 828.373,186.569 829.037,230.976 829.7,311.877 830.364,195.686 831.028,215.601 831.692,218.244 832.356,258.067 833.02,226.955 833.684,174.814 834.348,233.012 835.012,181.053 835.676,209.386 836.34,223.818 837.004,234.509 837.668,165.636 838.332,189.582 838.996,116.254 839.66,214.239 840.324,210.496 840.987,243.492 841.651,240.554 842.315,240.979 842.979,235.078 843.643,203.529 844.307,220.354 844.971,229.266 845.635,230.399 846.299,212.251 846.963,169.614 847.627,154.575 848.291,196.831 848.955,212.393 849.619,191.452 850.283,202.266 850.947,186.404 851.61,205.037 852.274,236.216 852.938,224.505 853.602,155.738 854.266,242.101 854.93,226.959 855.594,233.94 856.258,262.498 856.922,211.757 857.586,184.671 858.25,222.239 858.914,204.291 859.578,199.764 860.242,143.592 860.906,229.612 861.57,204.015 862.233,190.165 862.897,226.653 863.561,224.031 864.225,183.177 864.889,173.11 865.553,233.914 866.217,203.443 866.881,227.78 867.545,243.239 868.209,176.417 868.873,187.302 869.537,206.679 870.201,147.477 870.865,190.723 871.529,202.194 872.193,150.345 872.856,202.911 873.52,201.894 874.184,184.021 874.848,208.193 875.512,229.874 876.176,211.171 876.84,192.503 877.504,217.752 878.168,218.27 878.832,150.95 879.496,267.142 880.16,204.122 880.824,241.571 881.488,224.645 882.152,229.578 882.816,172.301 883.48,180.893 884.143,192.546 884.807,156.606 885.471,206.261 886.135,207.677 886.799,185.94 887.463,217.177 888.127,217.241 888.791,207.721 889.455,208.473 890.119,213.152 890.783,223.546 891.447,186.964 892.111,184.908 892.775,190.159 893.439,180.228 894.103,197.407 894.766,201.812 895.43,221.842 896.094,292.8 896.758,199.949 897.422,204.462 898.086,220.955 898.75,211.591 899.414,291.756 900.078,182.985 900.742,215.142 901.406,203.867 902.07,179.136 902.734,174.756 903.398,222.663 904.062,205.68 904.726,176.427 905.389,227.39 906.053,208.886 906.717,233.172 907.381,167.906 908.045,214.34 908.709,245.135 909.373,202.944 910.037,144.565 910.701,248.518 911.365,192.512 912.029,202.537 912.693,250.461 913.357,320.769 914.021,179.158 914.685,201.446 915.349,198.064 916.013,355.763 916.676,198.926 917.34,164.569 918.004,207.964 918.668,204.121 919.332,165.51 919.996,241.432 920.66,182.469 921.324,213.581 921.988,209.618 922.652,211.288 923.316,219.547 923.98,219.696 924.644,172.329 925.308,200.704 925.972,203.842 926.636,180.878 927.299,161.611 927.963,305.007 928.627,154.222 929.291,206.719 929.955,240.052 930.619,184.967 931.283,213.538 931.947,189.863 932.611,184.257 933.275,165.579 933.939,229.319 934.603,184.621 935.267,209.498 935.931,195.161 936.595,248.35 937.259,222.413 937.922,194.144 938.586,196.264 939.25,175.943 939.914,213.566 940.578,169.836 941.242,201.178 941.906,185.071 942.57,209.225 943.234,179.941 943.898,202.322 944.562,183.02 945.226,206.851 945.89,208.074 946.554,174.793 947.218,158.388 947.882,200.603 948.546,201.053 949.209,268.434 949.873,208.692 950.537,161.21 951.201,229.693 951.865,209.467 952.529,175.669 953.193,215.469 953.857,181.785 954.521,157.989 955.185,190.92 955.849,286.171 956.513,106.772 957.177,173.039 957.841,223.455 958.505,205.334 959.169,170.796 959.832,133.872 960.496,172.638 961.16,165.008 961.824,170.179 962.488,200.672 963.152,218.299 963.816,201.076 964.48,209.676 965.144,210.648 965.808,168.767 966.472,185.796 967.136,161.123 967.8,180.361 968.464,209.743 969.128,191.978 969.792,158.108 970.455,151.77 971.119,157.163 971.783,209.599 972.447,217.642 973.111,203.038 973.775,200.429 974.439,192.289 975.103,194.571 975.767,195.505 976.431,167.758 977.095,202.537 977.759,200.218 978.423,173.049 979.087,157.246 979.751,154.136 980.415,151.693 981.079,212.27 981.742,196.201 982.406,170.874 983.07,200.347 983.734,195.138 984.398,132.34 985.062,114.243 985.726,119.028 986.39,154.123 987.054,187.645 987.718,203.484 988.382,175.943 989.046,170.298 989.71,254.03 990.374,223.032 991.038,210.315 991.702,180.518 992.365,167.927 993.029,201.306 993.693,170.396 994.357,179.412 995.021,158.361 995.685,203.841 996.349,177.659 997.013,210.786 997.677,189.216 998.341,138.077 999.005,180.406 999.669,180.362 1000.33,190.047 1001,191.126 1001.66,187.351 1002.32,108.879 1002.99,204.969 1003.65,178.684 1004.32,184.709 1004.98,181.486 1005.64,192.444 1006.31,164.362 1006.97,294.321 1007.64,166.938 1008.3,198.859 1008.96,205.56 1009.63,195.86 1010.29,149.028 1010.96,176.722 1011.62,187.557 1012.28,227.857 1012.95,221.442 1013.61,198.286 1014.28,137.585 1014.94,133.014 1015.6,224.453 1016.27,220.629 1016.93,169.461 1017.6,195.8 1018.26,187.932 1018.92,200.644 1019.59,209.727 1020.25,192.915 1020.91,290.771 1021.58,180.016 1022.24,199.908 1022.91,196.78 1023.57,187.629 1024.23,181.783 1024.9,236.753 1025.56,302.676 1026.23,145.013 1026.89,177.79 1027.55,233.773 1028.22,107.483 1028.88,171.05 1029.55,188.864 1030.21,150.734 1030.87,238.637 1031.54,198.853 1032.2,163.606 1032.87,214.251 1033.53,179.322 1034.19,188.209 1034.86,174.597 1035.52,185.138 1036.19,184.748 1036.85,187.052 1037.51,172.09 1038.18,206.531 1038.84,141.989 1039.51,223.635 1040.17,193.35 1040.83,202.74 1041.5,195.286 1042.16,169.161 1042.82,151.724 1043.49,198.658 1044.15,143.257 1044.82,201.983 1045.48,156.282 1046.14,200.077 1046.81,141.973 1047.47,239.386 1048.14,190.287 1048.8,198.367 1049.46,159.889 1050.13,199.76 1050.79,194.657 1051.46,197.44 1052.12,210.836 1052.78,162.288 1053.45,223.79 1054.11,191.005 1054.78,163.685 1055.44,205.128 1056.1,183.211 1056.77,174.305 1057.43,164.626 1058.1,214.129 1058.76,143.883 1059.42,182.603 1060.09,194.208 1060.75,180.991 1061.42,175.899 1062.08,200.949 1062.74,188.82 1063.41,196.577 1064.07,243.234 1064.73,201.986 1065.4,171.887 1066.06,212.063 1066.73,201.466 1067.39,273.724 1068.05,181.491 1068.72,172.888 1069.38,193.45 1070.05,197.615 1070.71,151.458 1071.37,190.805 1072.04,171.959 1072.7,180.339 1073.37,178.334 1074.03,195.001 1074.69,213.539 1075.36,215.507 1076.02,192.019 1076.69,165.843 1077.35,215.438 1078.01,131.492 1078.68,174.788 1079.34,188.078 1080.01,177.448 1080.67,155.468 1081.33,192.482 1082,184.725 1082.66,184.26 1083.33,183.781 1083.99,188.396 1084.65,179.902 1085.32,175.447 1085.98,197.755 1086.64,177.029 1087.31,149.551 1087.97,190.55 1088.64,176.971 1089.3,189.263 1089.96,218.59 1090.63,179.308 1091.29,229.423 1091.96,201.903 1092.62,184.519 1093.28,170.416 1093.95,162.874 1094.61,208.288 1095.28,175.645 1095.94,200.782 1096.6,212.326 1097.27,182.116 1097.93,171.247 1098.6,201.361 1099.26,147.146 1099.92,179.776 1100.59,185.144 1101.25,139.528 1101.92,193.742 1102.58,190.227 1103.24,189.029 1103.91,182.63 1104.57,192.522 1105.24,173.578 1105.9,166.849 1106.56,230.266 1107.23,154.028 1107.89,194.718 1108.55,180.389 1109.22,271.185 1109.88,146.026 1110.55,163.702 1111.21,196.594 1111.87,183.078 1112.54,190.074 1113.2,175.242 1113.87,179.337 1114.53,175.315 1115.19,147.106 1115.86,137.247 1116.52,184.597 1117.19,178.529 1117.85,157.997 1118.51,187.071 1119.18,156.766 1119.84,314.454 1120.51,168.734 1121.17,164.614 1121.83,137.873 1122.5,218.907 1123.16,128.385 1123.83,155.219 1124.49,139.337 1125.15,197.335 1125.82,174.295 1126.48,162.673 1127.15,170.647 1127.81,178.098 1128.47,137.525 1129.14,189.818 1129.8,175.858 1130.46,226.425 1131.13,197.007 1131.79,142.56 1132.46,175.876 1133.12,232.005 1133.78,148.332 1134.45,170.442 1135.11,168.108 1135.78,182.126 1136.44,208.956 1137.1,166.775 1137.77,167.736 1138.43,167.906 1139.1,189.912 1139.76,148.018 1140.42,183.262 1141.09,187.849 1141.75,199.457 1142.42,164.117 1143.08,186.198 1143.74,211.122 1144.41,186.172 1145.07,187.152 1145.74,198.72 1146.4,171.876 1147.06,215.925 1147.73,161.385 1148.39,221.502 1149.05,150.924 1149.72,189.982 1150.38,278.445 1151.05,242.434 1151.71,242.331 1152.37,164.35 1153.04,202.882 1153.7,168.784 1154.37,166.464 1155.03,183.915 1155.69,191.462 1156.36,195.246 1157.02,187.14 1157.69,194.853 1158.35,179.076 1159.01,167.448 1159.68,162.16 1160.34,171.662 1161.01,172.395 1161.67,170.981 1162.33,130.115 1163,164.616 1163.66,201.05 1164.33,191.553 1164.99,211.304 1165.65,169.945 1166.32,180.261 1166.98,210.348 1167.65,165.669 1168.31,209.584 1168.97,177.28 1169.64,127.785 1170.3,197.818 1170.96,184.551 1171.63,157.754 1172.29,210.572 1172.96,241.281 1173.62,146.631 1174.28,195.083 1174.95,203.696 1175.61,217.621 1176.28,182.898 1176.94,161.52 1177.6,210.588 1178.27,179.061 1178.93,145.994 1179.6,164.375 1180.26,212.463 1180.92,161.422 1181.59,136.176 1182.25,180.657 1182.92,189.182 1183.58,184.657 1184.24,215.544 1184.91,174.622 1185.57,186.483 1186.24,176.217 1186.9,189.399 1187.56,164.252 1188.23,172.72 1188.89,191.659 1189.56,183.818 1190.22,149.633 1190.88,172.42 1191.55,188.46 1192.21,157.753 1192.87,189.107 1193.54,188.383 1194.2,168.527 1194.87,180.239 1195.53,180.967 1196.19,173.593 1196.86,172.608 1197.52,169.276 1198.19,184.87 1198.85,166.165 1199.51,188.097 1200.18,212.777 1200.84,176.279 1201.51,194.161 1202.17,194.451 1202.83,188.681 1203.5,160.171 1204.16,114.229 1204.83,165.691 1205.49,178.083 1206.15,208.36 1206.82,196.639 1207.48,181.295 1208.15,197.76 1208.81,173.029 1209.47,196.991 1210.14,165.566 1210.8,166.237 1211.47,196.679 1212.13,168.657 1212.79,173.163 1213.46,184.583 1214.12,163.628 1214.78,183.925 1215.45,164.912 1216.11,183.607 1216.78,152.142 1217.44,149.842 1218.1,154.833 1218.77,270.186 1219.43,157.254 1220.1,197.702 1220.76,144.147 1221.42,162.087 1222.09,169.79 1222.75,158.794 1223.42,178.921 1224.08,180.334 1224.74,178.632 1225.41,162.647 1226.07,174.222 1226.74,130.133 1227.4,131.658 1228.06,191.955 1228.73,189.68 1229.39,134.266 1230.06,169.28 1230.72,157.238 1231.38,162.984 1232.05,152.724 1232.71,167.992 1233.38,160.486 1234.04,172.098 1234.7,174.257 1235.37,175.744 1236.03,161.195 1236.69,234.969 1237.36,160.271 1238.02,199.066 1238.69,177.366 1239.35,208.046 1240.01,187.491 1240.68,182.953 1241.34,187.56 1242.01,174.008 1242.67,171.349 1243.33,144.802 1244,182.238 1244.66,189.486 1245.33,172.588 1245.99,236.509 1246.65,187.931 1247.32,156.889 1247.98,179.545 1248.65,197.808 1249.31,249.995 1249.97,160.283 1250.64,159.654 1251.3,102.251 1251.97,247.485 1252.63,211.072 1253.29,198.878 1253.96,167.519 1254.62,183.233 1255.29,175.302 1255.95,185.677 1256.61,140.809 1257.28,165.963 1257.94,208.037 1258.6,152.185 1259.27,185.701 1259.93,178.319 1260.6,166.441 1261.26,127.644 1261.92,148.901 1262.59,183.369 1263.25,155.517 1263.92,190.274 1264.58,160.508 1265.24,171.638 1265.91,221.907 1266.57,194.501 1267.24,129.358 1267.9,183.384 1268.56,181.024 1269.23,160.049 1269.89,170.208 1270.56,183.504 1271.22,173.788 1271.88,236.82 1272.55,190.368 1273.21,98.4788 1273.88,171.997 1274.54,152.91 1275.2,202.385 1275.87,161.565 1276.53,172.32 1277.2,185.744 1277.86,167.321 1278.52,154.45 1279.19,173.255 1279.85,175.267 1280.51,117.571 1281.18,166.692 1281.84,183.464 1282.51,170.453 1283.17,172.886 1283.83,176.396 1284.5,171.905 1285.16,213.831 1285.83,161.339 1286.49,139.595 1287.15,194.036 1287.82,283.942 1288.48,205.078 1289.15,193.812 1289.81,176.879 1290.47,132.892 1291.14,161.373 1291.8,158.809 1292.47,172.407 1293.13,195.098 1293.79,191.232 1294.46,183.727 1295.12,172.444 1295.79,210.05 1296.45,197.51 1297.11,232.717 1297.78,162.956 1298.44,171.527 1299.11,159.693 1299.77,200.157 1300.43,165.939 1301.1,184.582 1301.76,186.58 1302.42,222.563 1303.09,171.885 1303.75,164.486 1304.42,269.073 1305.08,177.501 1305.74,184.979 1306.41,171.944 1307.07,172.086 1307.74,199.357 1308.4,179.921 1309.06,181.154 1309.73,165.119 1310.39,171.154 1311.06,161.373 1311.72,114.273 1312.38,184.765 1313.05,174.103 1313.71,181.814 1314.38,180.913 1315.04,185.118 1315.7,207.482 1316.37,176.835 1317.03,136.249 1317.7,190.414 1318.36,184.035 1319.02,160.705 1319.69,314.873 1320.35,170.188 1321.02,201.156 1321.68,248.654 1322.34,154.779 1323.01,160.691 1323.67,145.71 1324.33,160.756 1325,128.222 1325.66,170.273 1326.33,178.878 1326.99,155.617 1327.65,185.556 1328.32,183.692 1328.98,188.114 1329.65,158.003 1330.31,166.827 1330.97,206.698 1331.64,171.653 1332.3,208.527 1332.97,160.69 1333.63,200.06 1334.29,185.205 1334.96,159.591 1335.62,174.953 1336.29,174.361 1336.95,163.205 1337.61,169.035 1338.28,201.527 1338.94,153.618 1339.61,195.967 1340.27,156.458 1340.93,256.105 1341.6,143.516 1342.26,135.218 1342.93,136.212 1343.59,175.694 1344.25,135.189 1344.92,142.608 1345.58,193.288 1346.24,159.762 1346.91,200.874 1347.57,175.041 1348.24,175.958 1348.9,200.123 1349.56,199.532 1350.23,168.547 1350.89,141.39 1351.56,137.072 1352.22,194 1352.88,107.816 1353.55,158.336 1354.21,183.65 1354.88,156.064 1355.54,191.649 1356.2,152.116 1356.87,156.514 1357.53,143.774 1358.2,182.029 1358.86,214.181 1359.52,186.001 1360.19,152.264 1360.85,149.07 1361.52,175.907 1362.18,162.095 1362.84,161.498 1363.51,97.257 1364.17,184.473 1364.84,215.997 1365.5,165.065 1366.16,195.315 1366.83,164.663 1367.49,205.851 1368.15,145.269 1368.82,152.644 1369.48,100.735 1370.15,225.877 1370.81,184.901 1371.47,127.973 1372.14,191.702 1372.8,166.283 1373.47,186.553 1374.13,171.462 1374.79,181.483 1375.46,182.182 1376.12,143.447 1376.79,316.721 1377.45,176.285 1378.11,246.466 1378.78,176.621 1379.44,162.756 1380.11,149.269 1380.77,182.035 1381.43,165.097 1382.1,137.302 1382.76,201.811 1383.43,147.105 1384.09,193.526 1384.75,199.951 1385.42,169.057 1386.08,192.723 1386.75,149.775 1387.41,203.27 1388.07,167.582 1388.74,165.328 1389.4,170.507 1390.06,126.422 1390.73,188.989 1391.39,189.305 1392.06,191.911 1392.72,167.945 1393.38,170.642 1394.05,104.445 1394.71,191.752 1395.38,128.09 1396.04,175.102 1396.7,183.623 1397.37,162.595 1398.03,188.109 1398.7,166.684 1399.36,193.169 1400.02,162.177 1400.69,197.87 1401.35,178.341 1402.02,191.513 1402.68,231.557 1403.34,172.032 1404.01,166.007 1404.67,175.892 1405.34,166.76 1406,186.795 1406.66,170.175 1407.33,228.008 1407.99,134.837 1408.66,172.304 1409.32,207.199 1409.98,154.603 1410.65,187.335 1411.31,193.851 1411.97,188.02 1412.64,147.907 1413.3,187.429 1413.97,164.474 1414.63,179.662 1415.29,273.676 1415.96,154.811 1416.62,176.864 1417.29,210.91 1417.95,184.424 1418.61,160.581 1419.28,184.331 1419.94,169.055 1420.61,152.508 1421.27,170.353 1421.93,163.873 1422.6,165.612 1423.26,183.523 1423.93,157.235 1424.59,168.489 1425.25,182.541 1425.92,176.927 1426.58,148.479 1427.25,143.841 1427.91,177.605 1428.57,174.392 1429.24,183.404 1429.9,169.827 1430.56,261.496 1431.23,148.908 1431.89,163.234 1432.56,175.323 1433.22,176.223 1433.88,174.759 1434.55,176.014 1435.21,147.489 1435.88,178.216 1436.54,179.394 1437.2,148.006 1437.87,176.121 1438.53,144.952 1439.2,165.052 1439.86,183.274 1440.52,184.199 1441.19,180.009 1441.85,181.342 1442.52,167.453 1443.18,178.313 1443.84,176.785 1444.51,152.258 1445.17,200.75 1445.84,142.093 1446.5,159.093 1447.16,168.602 1447.83,171.143 1448.49,181.261 1449.16,190.406 1449.82,153.232 1450.48,164.57 1451.15,161.388 1451.81,172.93 1452.47,160.563 1453.14,172.313 1453.8,190.432 1454.47,135.182 1455.13,181.242 1455.79,170.774 1456.46,139.576 1457.12,179.805 1457.79,176.06 1458.45,190.863 1459.11,194.669 1459.78,169.582 1460.44,174.077 1461.11,175.633 1461.77,205.755 1462.43,168.704 1463.1,179.249 1463.76,142.285 1464.43,164.845 1465.09,172.843 1465.75,182.442 1466.42,186.445 1467.08,178.047 1467.75,124.941 1468.41,214.184 1469.07,158.681 1469.74,177.27 1470.4,192.905 1471.07,158.881 1471.73,139.502 1472.39,170.769 1473.06,173.394 1473.72,184.841 1474.38,174.358 1475.05,188.009 1475.71,144.465 1476.38,168.015 1477.04,181.21 1477.7,164.89 1478.37,146.909 1479.03,189.335 1479.7,162.535 1480.36,159.653 1481.02,115.534 1481.69,106.115 1482.35,264.457 1483.02,205.64 1483.68,165.586 1484.34,169.508 1485.01,162.627 1485.67,190.216 1486.34,141.697 1487,159.411 1487.66,176.268 1488.33,161.076 1488.99,177.831 1489.66,132.823 1490.32,204.001 1490.98,198.118 1491.65,170.88 1492.31,172.462 1492.98,47.2441 1493.64,157.432 1494.3,171.565 1494.97,174.656 1495.63,143.081 1496.29,179.942 1496.96,179.865 1497.62,186.412 1498.29,161.538 1498.95,167.975 1499.61,165.289 1500.28,248.507 1500.94,166.063 1501.61,169.99 1502.27,176.069 1502.93,171.032 1503.6,171.11 1504.26,182.46 1504.93,144.555 1505.59,146.166 1506.25,118.834 1506.92,174.094 1507.58,155.041 1508.25,157.394 1508.91,177.16 1509.57,154.6 1510.24,158.701 1510.9,127.579 1511.57,233.58 1512.23,167.585 1512.89,127.965 1513.56,132.823 1514.22,170.198 1514.89,176.152 1515.55,151.102 1516.21,131.402 1516.88,270.344 1517.54,251.939 1518.2,111.986 1518.87,169.818 1519.53,172.38 1520.2,152.438 1520.86,177.736 1521.52,172.053 1522.19,184.006 1522.85,168.708 1523.52,183.177 1524.18,170.695 1524.84,182.324 1525.51,268.993 1526.17,164.122 1526.84,193.152 1527.5,183.861 1528.16,156.321 1528.83,169.871 1529.49,211.937 1530.16,174.534 1530.82,155.824 1531.48,191.464 1532.15,147.815 1532.81,153.305 1533.48,192.258 1534.14,174.516 1534.8,185.089 1535.47,194.066 1536.13,175.771 1536.8,170.405 1537.46,147.293 1538.12,192.754 1538.79,172.749 1539.45,163.846 1540.11,166.48 1540.78,172.351 1541.44,187.174 1542.11,168.318 1542.77,149.469 1543.43,173.109 1544.1,166.119 1544.76,261.304 1545.43,164.75 1546.09,171.728 1546.75,183.921 1547.42,188.504 1548.08,160.649 1548.75,198.231 1549.41,181.01 1550.07,157.649 1550.74,181.003 1551.4,193.289 1552.07,172.437 1552.73,185.506 1553.39,147.317 1554.06,120.874 1554.72,103.984 1555.39,184.571 1556.05,223.96 1556.71,184.134 1557.38,169.787 1558.04,147.079 1558.71,172.935 1559.37,144.54 1560.03,201.785 1560.7,165.944 1561.36,178.598 1562.02,149.56 1562.69,128.248 1563.35,174.624 1564.02,183.126 1564.68,187.505 1565.34,197.762 1566.01,187.647 1566.67,135.026 1567.34,189.657 1568,170.317 1568.66,146.758 1569.33,171.863 1569.99,150.988 1570.66,157.225 1571.32,199.409 1571.98,203.579 1572.65,194.242 1573.31,103.263 1573.98,195.425 1574.64,146.419 1575.3,171.32 1575.97,163.036 1576.63,146.63 1577.3,182.704 1577.96,293.422 1578.62,137.146 1579.29,157.556 1579.95,198.464 1580.62,169.328 1581.28,80.2538 1581.94,169.151 1582.61,178.329 1583.27,178.941 1583.93,135.015 1584.6,155.571 1585.26,262.918 1585.93,179.064 1586.59,184.227 1587.25,160.482 1587.92,147.268 1588.58,162.913 1589.25,170.175 1589.91,200.51 1590.57,169.341 1591.24,187.418 1591.9,179.967 1592.57,178.915 1593.23,199.785 1593.89,186.909 1594.56,162.616 1595.22,160.568 1595.89,179.651 1596.55,135.269 1597.21,168.277 1597.88,135.207 1598.54,165.167 1599.21,152.63 1599.87,176.563 1600.53,171.021 1601.2,136.435 1601.86,156.02 1602.53,155.508 1603.19,192.08 1603.85,164.079 1604.52,154.139 1605.18,211.415 1605.84,166.057 1606.51,117.609 1607.17,155.731 1607.84,174.227 1608.5,165.773 1609.16,137.081 1609.83,206.268 1610.49,140.939 1611.16,169.595 1611.82,313.542 1612.48,244.455 1613.15,166.527 1613.81,180.26 1614.48,150.208 1615.14,183.594 1615.8,150.799 1616.47,157.639 1617.13,147.113 1617.8,172.75 1618.46,181.419 1619.12,235.964 1619.79,150.609 1620.45,155.845 1621.12,153.61 1621.78,179.732 1622.44,159.066 1623.11,152.57 1623.77,175.459 1624.44,171.799 1625.1,133.304 1625.76,172.032 1626.43,181.902 1627.09,156.087 1627.75,210.191 1628.42,166.36 1629.08,161.258 1629.75,209.6 1630.41,142.417 1631.07,154.223 1631.74,171.786 1632.4,169.694 1633.07,144.846 1633.73,154.965 1634.39,177.275 1635.06,169.657 1635.72,157.467 1636.39,170.469 1637.05,189.509 1637.71,203.181 1638.38,129.832 1639.04,174.882 1639.71,178.539 1640.37,164.311 1641.03,184.651 1641.7,166.228 1642.36,186.726 1643.03,133.253 1643.69,180.365 1644.35,181.583 1645.02,147.827 1645.68,193.422 1646.35,138.768 1647.01,158.151 1647.67,173.204 1648.34,180.774 1649,142.562 1649.66,141.208 1650.33,150.917 1650.99,173.275 1651.66,168.584 1652.32,160.357 1652.98,146.419 1653.65,190.195 1654.31,174.829 1654.98,156.032 1655.64,164.198 1656.3,167.931 1656.97,144.395 1657.63,149.919 1658.3,178.661 1658.96,172.151 1659.62,164.278 1660.29,214.678 1660.95,144.208 1661.62,212.832 1662.28,158.058 1662.94,169.94 1663.61,114.239 1664.27,159.205 1664.94,257.286 1665.6,181.33 1666.26,174.242 1666.93,160.762 1667.59,162.551 1668.26,153.032 1668.92,255.29 1669.58,114.063 1670.25,162.125 1670.91,198.277 1671.57,180.269 1672.24,174.405 1672.9,165.721 1673.57,174.069 1674.23,143.307 1674.89,159.115 1675.56,166.11 1676.22,158.862 1676.89,224.144 1677.55,175.414 1678.21,167.806 1678.88,198.362 1679.54,268.603 1680.21,180.452 1680.87,143.387 1681.53,176.953 1682.2,136.834 1682.86,172.475 1683.53,186.175 1684.19,183.815 1684.85,154.117 1685.52,178.169 1686.18,170.679 1686.85,190.297 1687.51,170.238 1688.17,179.872 1688.84,151.821 1689.5,166.547 1690.17,155.934 1690.83,177.921 1691.49,141.075 1692.16,179.763 1692.82,171.259 1693.48,159.407 1694.15,170.757 1694.81,170.005 1695.48,268.762 1696.14,141.205 1696.8,172.754 1697.47,188.126 1698.13,166.042 1698.8,174.298 1699.46,173.154 1700.12,172.062 1700.79,144.108 1701.45,169.175 1702.12,181.423 1702.78,169.728 1703.44,140.553 1704.11,125.005 1704.77,224.664 1705.44,179.539 1706.1,154.827 1706.76,148.687 1707.43,195.445 1708.09,144.668 1708.76,163.768 1709.42,192.887 1710.08,174.139 1710.75,177.069 1711.41,175.018 1712.07,153.933 1712.74,163.985 1713.4,185.965 1714.07,161.273 1714.73,177.408 1715.39,138.744 1716.06,192.816 1716.72,204.771 1717.39,216.728 1718.05,241.644 1718.71,166.15 1719.38,184.057 1720.04,172.154 1720.71,147.283 1721.37,172.592 1722.03,147.673 1722.7,163.908 1723.36,137.775 1724.03,165.57 1724.69,161.929 1725.35,169.838 1726.02,145.324 1726.68,174.632 1727.35,182.35 1728.01,192.707 1728.67,133.784 1729.34,150.413 1730,171.833 1730.67,160.671 1731.33,185.849 1731.99,142.857 1732.66,171.842 1733.32,182.907 1733.98,180.153 1734.65,142.154 1735.31,176.181 1735.98,145.579 1736.64,170.22 1737.3,171.149 1737.97,126.009 1738.63,150.145 1739.3,151.354 1739.96,152.916 1740.62,146.419 1741.29,139.888 1741.95,173.42 1742.62,108.562 1743.28,166.553 1743.94,172.133 1744.61,153.321 1745.27,162.445 1745.94,201.78 1746.6,157.406 1747.26,162.36 1747.93,161.19 1748.59,165.985 1749.26,179.09 1749.92,179.637 1750.58,183.677 1751.25,162.602 1751.91,175.792 1752.58,167.04 1753.24,175.335 1753.9,182.476 1754.57,168.777 1755.23,147.779 1755.89,148.268 1756.56,152.405 1757.22,99.3385 1757.89,167.199 1758.55,150.457 1759.21,184.215 1759.88,83.7391 1760.54,161.203 1761.21,149.893 1761.87,165.289 1762.53,158.016 1763.2,126.091 1763.86,149.372 1764.53,182.291 1765.19,180.451 1765.85,162.55 1766.52,236.767 1767.18,203.318 1767.85,185.068 1768.51,171.218 1769.17,175.722 1769.84,191.344 1770.5,182.574 1771.17,157.941 1771.83,164.381 1772.49,165.949 1773.16,177.323 1773.82,187.063 1774.49,135.387 1775.15,142.918 1775.81,125.828 1776.48,254.919 1777.14,155.728 1777.8,129.345 1778.47,183.499 1779.13,177.477 1779.8,139.088 1780.46,194.041 1781.12,166.365 1781.79,170.913 1782.45,149.809 1783.12,121.44 1783.78,179.514 1784.44,141.468 1785.11,194.651 1785.77,164.189 1786.44,241.551 1787.1,152.369 1787.76,165.436 1788.43,154.811 1789.09,232.468 1789.76,180.3 1790.42,191.481 1791.08,171.819 1791.75,151.912 1792.41,182.891 1793.08,188.31 1793.74,208.403 1794.4,176.992 1795.07,186.676 1795.73,184.433 1796.4,187.213 1797.06,166.189 1797.72,172.248 1798.39,160.685 1799.05,171.612 1799.71,170.781 1800.38,163.888 1801.04,174.05 1801.71,198.674 1802.37,164.806 1803.03,179.291 1803.7,175.057 1804.36,150.48 1805.03,160.348 1805.69,174.987 1806.35,127.925 1807.02,163.052 1807.68,151.702 1808.35,152.871 1809.01,163.935 1809.67,173.842 1810.34,173.891 1811,163.498 1811.67,178.6 1812.33,195.823 1812.99,164.891 1813.66,155.319 1814.32,132.846 1814.99,148.02 1815.65,144.504 1816.31,172.117 1816.98,185.662 1817.64,170.761 1818.31,174.566 1818.97,183.463 1819.63,188.695 1820.3,185.177 1820.96,170.03 1821.62,175.142 1822.29,152.52 1822.95,167.619 1823.62,177.584 1824.28,170.574 1824.94,142.185 1825.61,208.401 1826.27,169.732 1826.94,163.498 1827.6,171.553 1828.26,234.837 1828.93,142.289 1829.59,202.957 1830.26,182.944 1830.92,177.305 1831.58,180.943 1832.25,181.001 1832.91,184.308 1833.58,175.939 1834.24,144.934 1834.9,173.133 1835.57,160.036 1836.23,127.861 1836.9,182.551 1837.56,138.623 1838.22,169.137 1838.89,189.271 1839.55,188.664 1840.22,161.887 1840.88,159.905 1841.54,155.546 1842.21,188.29 1842.87,194.608 1843.53,177.898 1844.2,157.329 1844.86,156.929 1845.53,190.675 1846.19,154.907 1846.85,162.25 1847.52,164.361 1848.18,164.976 1848.85,173.612 1849.51,173.231 1850.17,169.684 1850.84,141.785 1851.5,177.773 1852.17,156.724 1852.83,184.878 1853.49,190.158 1854.16,173.322 1854.82,205.804 1855.49,152.21 1856.15,164.559 1856.81,166.979 1857.48,150.931 1858.14,179.557 1858.81,144.335 1859.47,159.956 1860.13,170.415 1860.8,176.237 1861.46,188.787 1862.13,167.003 1862.79,152.854 1863.45,164.493 1864.12,174.441 1864.78,174.405 1865.44,159.698 1866.11,157.595 1866.77,162.31 1867.44,153.717 1868.1,182.201 1868.76,179.04 1869.43,177.548 1870.09,156.354 1870.76,149.964 1871.42,179.689 1872.08,153.703 1872.75,171.597 1873.41,161.224 1874.08,172.54 1874.74,156.643 1875.4,154.688 1876.07,170.867 1876.73,180.918 1877.4,161.965 1878.06,166.032 1878.72,169.485 1879.39,170.576 1880.05,131.09 1880.72,174.42 1881.38,177.509 1882.04,154.752 1882.71,77.0713 1883.37,165.755 1884.04,152.606 1884.7,161.631 1885.36,173.729 1886.03,157.91 1886.69,173.045 1887.35,183.663 1888.02,196.402 1888.68,156.78 1889.35,179.852 1890.01,161.829 1890.67,128.122 1891.34,172.204 1892,160.086 1892.67,137.588 1893.33,153.979 1893.99,146.579 1894.66,182.675 1895.32,131.597 1895.99,147.372 1896.65,133.993 1897.31,208.648 1897.98,191.138 1898.64,148.476 1899.31,128.19 1899.97,174.249 1900.63,212.048 1901.3,183.261 1901.96,165.769 1902.63,151.868 1903.29,171.057 1903.95,165.677 1904.62,168.998 1905.28,170.78 1905.95,148.886 1906.61,121.891 1907.27,166.909 1907.94,130.445 1908.6,149.228 1909.26,111.465 1909.93,178.112 1910.59,160.654 1911.26,164.497 1911.92,120.441 1912.58,185.501 1913.25,186.097 1913.91,172.842 1914.58,185.08 1915.24,176.642 1915.9,182.077 1916.57,152.95 1917.23,178.793 1917.9,143.312 1918.56,160.036 1919.22,181.3 1919.89,174.928 1920.55,157.883 1921.22,158.277 1921.88,164.118 1922.54,178.954 1923.21,144.633 1923.87,192.565 1924.54,164.565 1925.2,155.5 1925.86,163.976 1926.53,190.528 1927.19,181.003 1927.86,122.749 1928.52,181.539 1929.18,170.729 1929.85,145.875 1930.51,172.546 1931.17,195.338 1931.84,177.705 1932.5,184.758 1933.17,180.851 1933.83,173.465 1934.49,133.531 1935.16,177.671 1935.82,176.288 1936.49,187.702 1937.15,186.711 1937.81,219.262 1938.48,157.397 1939.14,178.619 1939.81,176.684 1940.47,173.243 1941.13,154.588 1941.8,159.255 1942.46,153.797 1943.13,181.057 1943.79,175.718 1944.45,146.206 1945.12,167.291 1945.78,122.105 1946.45,175.761 1947.11,162.409 1947.77,161.109 1948.44,169.626 1949.1,162.021 1949.77,129.27 1950.43,166.306 1951.09,180.089 1951.76,157.448 1952.42,178.82 1953.08,144.205 1953.75,150.635 1954.41,147.133 1955.08,165.339 1955.74,115.359 1956.4,170.414 1957.07,148.41 1957.73,172.655 1958.4,145.287 1959.06,161.115 1959.72,178.115 1960.39,153.962 1961.05,178.895 1961.72,165.177 1962.38,121.224 1963.04,174.225 1963.71,125.329 1964.37,153.65 1965.04,149.856 1965.7,160.81 1966.36,157.215 1967.03,183.141 1967.69,167.743 1968.36,187.188 1969.02,184.971 1969.68,163.35 1970.35,167.715 1971.01,139.678 1971.68,161.765 1972.34,117.558 1973,148.734 1973.67,174.251 1974.33,151.65 1974.99,144.485 1975.66,173.43 1976.32,205.957 1976.99,155.646 1977.65,156.327 1978.31,210.016 1978.98,146.695 1979.64,181.048 1980.31,147.679 1980.97,151.135 1981.63,164.836 1982.3,177.701 1982.96,137.499 1983.63,175.495 1984.29,165.164 1984.95,185.437 1985.62,186.144 1986.28,213.872 1986.95,172.257 1987.61,94.0627 1988.27,143.264 1988.94,159.659 1989.6,180.432 1990.27,169.972 1990.93,155.26 1991.59,143.018 1992.26,159.814 1992.92,166.859 1993.58,149.847 1994.25,106.193 1994.91,152.539 1995.58,135.055 1996.24,163.786 1996.9,165.335 1997.57,148.741 1998.23,145.818 1998.9,187.753 1999.56,134.74 2000.22,141.107 2000.89,142.115 2001.55,138.475 2002.22,113.634 2002.88,129.282 2003.54,131.374 2004.21,196.736 2004.87,147.592 2005.54,141.642 2006.2,209.259 2006.86,156.666 2007.53,152.243 2008.19,158.184 2008.86,149.785 2009.52,139.878 2010.18,175.885 2010.85,145.221 2011.51,150.65 2012.18,172.375 2012.84,159.068 2013.5,161.689 2014.17,141.427 2014.83,130.776 2015.49,170.838 2016.16,129.811 2016.82,172.589 2017.49,164.45 2018.15,230.294 2018.81,181.575 2019.48,260.718 2020.14,171.778 2020.81,166.516 2021.47,158.556 2022.13,178.963 2022.8,148.369 2023.46,130.215 2024.13,144.71 2024.79,189.556 2025.45,176.944 2026.12,160.985 2026.78,128.412 2027.45,175.98 2028.11,172.162 2028.77,171.347 2029.44,150.629 2030.1,174.961 2030.77,158.899 2031.43,168.191 2032.09,206.927 2032.76,219.291 2033.42,137.949 2034.09,232.707 2034.75,164.876 2035.41,146.746 2036.08,169.001 2036.74,185.257 2037.4,183.689 2038.07,136.625 2038.73,159.822 2039.4,195.066 2040.06,129.96 2040.72,177.978 2041.39,180.994 2042.05,172.063 2042.72,159.983 2043.38,171.121 2044.04,143.485 2044.71,202.596 2045.37,165.032 2046.04,200.874 2046.7,175.671 2047.36,170.778 2048.03,185.512 2048.69,164.952 2049.36,166.77 2050.02,159.624 2050.68,144.454 2051.35,164.35 2052.01,183.119 2052.68,133.405 2053.34,180.094 2054,179.318 2054.67,190.354 2055.33,168.836 2056,155.288 2056.66,161.684 2057.32,160.337 2057.99,149.67 2058.65,189.093 2059.31,161.08 2059.98,162.393 2060.64,192.012 2061.31,160.288 2061.97,167.149 2062.63,157.674 2063.3,139.586 2063.96,240.612 2064.63,171.513 2065.29,242.933 2065.95,173.145 2066.62,171.8 2067.28,170.161 2067.95,179.738 2068.61,178.861 2069.27,109.229 2069.94,145.611 2070.6,171.215 2071.27,166.013 2071.93,150.855 2072.59,149.249 2073.26,201.262 2073.92,146.548 2074.59,134.385 2075.25,183.082 2075.91,164.191 2076.58,175.51 2077.24,155.681 2077.91,161.828 2078.57,172.683 2079.23,155.808 2079.9,147.821 2080.56,153.564 2081.22,178.921 2081.89,155.958 2082.55,189.455 2083.22,173.461 2083.88,173.259 2084.54,156.112 2085.21,162.565 2085.87,168.08 2086.54,145.837 2087.2,139.994 2087.86,157.171 2088.53,134.925 2089.19,167.844 2089.86,136.726 2090.52,135.495 2091.18,164.277 2091.85,129.162 2092.51,168.323 2093.18,156.829 2093.84,150.879 2094.5,165.469 2095.17,156.547 2095.83,137.441 2096.5,159.54 2097.16,181.501 2097.82,181.702 2098.49,166.207 2099.15,168.03 2099.82,137.821 2100.48,170.818 2101.14,140.592 2101.81,163.443 2102.47,160.626 2103.13,172.342 2103.8,161.585 2104.46,148.417 2105.13,149.665 2105.79,145.965 2106.45,177.71 2107.12,182.863 2107.78,173.572 2108.45,148.494 2109.11,178.327 2109.77,175.772 2110.44,161.673 2111.1,165.451 2111.77,154.096 2112.43,173.246 2113.09,154.538 2113.76,140.753 2114.42,187.388 2115.09,247.929 2115.75,156.718 2116.41,184.725 2117.08,169.389 2117.74,213.56 2118.41,139.201 2119.07,254.995 2119.73,169.998 2120.4,195.417 2121.06,162.407 2121.73,139.172 2122.39,163.435 2123.05,205.932 2123.72,151.757 2124.38,155.019 2125.04,156.325 2125.71,197.694 2126.37,199.233 2127.04,143.116 2127.7,149.227 2128.36,168.097 2129.03,157.122 2129.69,157.578 2130.36,164.77 2131.02,132.342 2131.68,158.476 2132.35,139.397 2133.01,188.018 2133.68,168.121 2134.34,143.962 2135,157.553 2135.67,160.066 2136.33,166.221 2137,185.981 2137.66,167.726 2138.32,174.213 2138.99,144.585 2139.65,161.423 2140.32,176.911 2140.98,185.548 2141.64,177.628 2142.31,156.906 2142.97,150.026 2143.64,152.144 2144.3,192.785 2144.96,149.42 2145.63,157.507 2146.29,154.791 2146.95,112.136 2147.62,154.294 2148.28,182.822 2148.95,148.145 2149.61,122.783 2150.27,174.482 2150.94,170.489 2151.6,160.483 2152.27,167.697 2152.93,159.488 2153.59,185.934 2154.26,180.318 2154.92,178.093 2155.59,140.233 2156.25,155.25 2156.91,166.058 2157.58,123.44 2158.24,190.151 2158.91,202.146 2159.57,121.03 2160.23,170.604 2160.9,193.34 2161.56,163.751 2162.23,159.249 2162.89,210.657 2163.55,164.001 2164.22,192.043 2164.88,175.522 2165.55,139.704 2166.21,175.987 2166.87,138.988 2167.54,128.544 2168.2,160.372 2168.86,223.007 2169.53,168.788 2170.19,144.264 2170.86,158.87 2171.52,163.361 2172.18,148.373 2172.85,175.364 2173.51,157.623 2174.18,185.818 2174.84,158.297 2175.5,155.457 2176.17,159.475 2176.83,176.787 2177.5,159.878 2178.16,150.089 2178.82,149.385 2179.49,148.259 2180.15,182.317 2180.82,142.294 2181.48,150.324 2182.14,156.444 2182.81,172.221 2183.47,168.823 2184.14,155.088 2184.8,160.908 2185.46,143.074 2186.13,184.626 2186.79,145.27 2187.46,193.141 2188.12,159.325 2188.78,193.641 2189.45,168.094 2190.11,179.212 2190.77,121.482 2191.44,171.022 2192.1,193.663 2192.77,179.659 2193.43,186.547 2194.09,183.567 2194.76,140.306 2195.42,154.887 2196.09,183.02 2196.75,167.306 2197.41,137.72 2198.08,130.187 2198.74,158.988 2199.41,152.485 2200.07,163.262 2200.73,174.219 2201.4,236.306 2202.06,165.683 2202.73,179.567 2203.39,177.399 2204.05,155.104 2204.72,139.354 2205.38,187.59 2206.05,175.962 2206.71,150.03 2207.37,154.732 2208.04,142.775 2208.7,157.26 2209.37,230.023 2210.03,182.084 2210.69,145.492 2211.36,424.791 2212.02,184.818 2212.68,236.368 2213.35,189.888 2214.01,131.767 2214.68,157.697 2215.34,169.226 2216,145.046 2216.67,163.631 2217.33,167.452 2218,147.598 2218.66,159.141 2219.32,229.488 2219.99,160.685 2220.65,160.089 2221.32,157.43 2221.98,174.875 2222.64,160.28 2223.31,143.542 2223.97,147.863 2224.64,147.131 2225.3,148.53 2225.96,155.992 2226.63,157.318 2227.29,155.766 2227.96,166.133 2228.62,194.231 2229.28,169.107 2229.95,170.661 2230.61,166.709 2231.28,156.135 2231.94,157.289 2232.6,172.717 2233.27,148.013 2233.93,165.035 2234.59,173.013 2235.26,159.019 2235.92,154.187 2236.59,177.533 2237.25,159.722 2237.91,155.366 2238.58,174.576 2239.24,197.326 2239.91,165.815 2240.57,169.598 2241.23,160.092 2241.9,173.113 2242.56,165.765 2243.23,167.578 2243.89,153.368 2244.55,145.38 2245.22,169.893 2245.88,156.554 2246.55,183.939 2247.21,129.227 2247.87,134.093 2248.54,173.571 2249.2,155.334 2249.87,156.647 2250.53,160.166 2251.19,144.833 2251.86,141.046 2252.52,179.981 2253.19,169.965 2253.85,125.035 2254.51,165.656 2255.18,175.073 2255.84,175.535 2256.5,155.589 2257.17,148.756 2257.83,165.257 2258.5,157.64 2259.16,182.675 2259.82,155.731 2260.49,130.344 2261.15,159.307 2261.82,164.788 2262.48,128.759 2263.14,141.968 2263.81,169.608 2264.47,142.913 2265.14,165.295 2265.8,142.324 2266.46,182.104 2267.13,157.916 2267.79,168.621 2268.46,168.444 2269.12,162.298 2269.78,164.814 2270.45,168.513 2271.11,140.524 2271.78,156.973 2272.44,162.405 2273.1,175.502 2273.77,169.044 2274.43,126.234 2275.09,135.483 2275.76,180.893 2276.42,169.937 2277.09,176.897 2277.75,160.972 2278.41,158.291 2279.08,161.562 2279.74,152.46 2280.41,176.587 2281.07,166.199 2281.73,161.507 2282.4,177.46 2283.06,164.959 2283.73,78.0714 2284.39,184.169 2285.05,150.792 2285.72,170.654 2286.38,131.356 2287.05,147.298 2287.71,176.024 2288.37,132.396 2289.04,140.691 2289.7,130.037 2290.37,164.848 2291.03,170.385 2291.69,179.163 2292.36,187.766 2293.02,134.485 "/>
<path clip-path="url(#clip930)" d="M2018.91 1377.32 L2282.4 1377.32 L2282.4 1273.64 L2018.91 1273.64  Z" fill="#ffffff" fill-rule="evenodd" fill-opacity="1"/>
<polyline clip-path="url(#clip930)" style="stroke:#000000; stroke-linecap:round; stroke-linejoin:round; stroke-width:4; stroke-opacity:1; fill:none" points="2018.91,1377.32 2282.4,1377.32 2282.4,1273.64 2018.91,1273.64 2018.91,1377.32 "/>
<polyline clip-path="url(#clip930)" style="stroke:#009af9; stroke-linecap:round; stroke-linejoin:round; stroke-width:4; stroke-opacity:1; fill:none" points="2042.36,1325.48 2183.07,1325.48 "/>
<path clip-path="url(#clip930)" d="M2220.36 1345.16 Q2218.56 1349.79 2216.84 1351.2 Q2215.13 1352.62 2212.26 1352.62 L2208.86 1352.62 L2208.86 1349.05 L2211.36 1349.05 Q2213.12 1349.05 2214.09 1348.22 Q2215.06 1347.38 2216.24 1344.28 L2217.01 1342.34 L2206.52 1316.83 L2211.03 1316.83 L2219.14 1337.11 L2227.24 1316.83 L2231.75 1316.83 L2220.36 1345.16 Z" fill="#000000" fill-rule="nonzero" fill-opacity="1" /><path clip-path="url(#clip930)" d="M2239.04 1338.82 L2246.68 1338.82 L2246.68 1312.45 L2238.37 1314.12 L2238.37 1309.86 L2246.64 1308.2 L2251.31 1308.2 L2251.31 1338.82 L2258.95 1338.82 L2258.95 1342.76 L2239.04 1342.76 L2239.04 1338.82 Z" fill="#000000" fill-rule="nonzero" fill-opacity="1" /></svg>
