<?xml version="1.0" encoding="utf-8"?>
<svg xmlns="http://www.w3.org/2000/svg" xmlns:xlink="http://www.w3.org/1999/xlink" width="600" height="400" viewBox="0 0 2400 1600">
<defs>
  <clipPath id="clip430">
    <rect x="0" y="0" width="2400" height="1600"/>
  </clipPath>
</defs>
<path clip-path="url(#clip430)" d="M0 1600 L2400 1600 L2400 0 L0 0  Z" fill="#ffffff" fill-rule="evenodd" fill-opacity="1"/>
<defs>
  <clipPath id="clip431">
    <rect x="480" y="0" width="1681" height="1600"/>
  </clipPath>
</defs>
<path clip-path="url(#clip430)" d="M332.62 1423.18 L2352.76 1423.18 L2352.76 47.2441 L332.62 47.2441  Z" fill="#ffffff" fill-rule="evenodd" fill-opacity="1"/>
<defs>
  <clipPath id="clip432">
    <rect x="332" y="47" width="2021" height="1377"/>
  </clipPath>
</defs>
<polyline clip-path="url(#clip432)" style="stroke:#000000; stroke-linecap:round; stroke-linejoin:round; stroke-width:2; stroke-opacity:0.1; fill:none" points="357.858,1423.18 357.858,47.2441 "/>
<polyline clip-path="url(#clip432)" style="stroke:#000000; stroke-linecap:round; stroke-linejoin:round; stroke-width:2; stroke-opacity:0.1; fill:none" points="972.265,1423.18 972.265,47.2441 "/>
<polyline clip-path="url(#clip432)" style="stroke:#000000; stroke-linecap:round; stroke-linejoin:round; stroke-width:2; stroke-opacity:0.1; fill:none" points="1586.67,1423.18 1586.67,47.2441 "/>
<polyline clip-path="url(#clip432)" style="stroke:#000000; stroke-linecap:round; stroke-linejoin:round; stroke-width:2; stroke-opacity:0.1; fill:none" points="2201.08,1423.18 2201.08,47.2441 "/>
<polyline clip-path="url(#clip432)" style="stroke:#000000; stroke-linecap:round; stroke-linejoin:round; stroke-width:2; stroke-opacity:0.1; fill:none" points="332.62,1223.78 2352.76,1223.78 "/>
<polyline clip-path="url(#clip432)" style="stroke:#000000; stroke-linecap:round; stroke-linejoin:round; stroke-width:2; stroke-opacity:0.1; fill:none" points="332.62,868.333 2352.76,868.333 "/>
<polyline clip-path="url(#clip432)" style="stroke:#000000; stroke-linecap:round; stroke-linejoin:round; stroke-width:2; stroke-opacity:0.1; fill:none" points="332.62,512.89 2352.76,512.89 "/>
<polyline clip-path="url(#clip432)" style="stroke:#000000; stroke-linecap:round; stroke-linejoin:round; stroke-width:2; stroke-opacity:0.1; fill:none" points="332.62,157.447 2352.76,157.447 "/>
<polyline clip-path="url(#clip430)" style="stroke:#000000; stroke-linecap:round; stroke-linejoin:round; stroke-width:4; stroke-opacity:1; fill:none" points="332.62,1423.18 2352.76,1423.18 "/>
<polyline clip-path="url(#clip430)" style="stroke:#000000; stroke-linecap:round; stroke-linejoin:round; stroke-width:4; stroke-opacity:1; fill:none" points="357.858,1423.18 357.858,1404.28 "/>
<polyline clip-path="url(#clip430)" style="stroke:#000000; stroke-linecap:round; stroke-linejoin:round; stroke-width:4; stroke-opacity:1; fill:none" points="972.265,1423.18 972.265,1404.28 "/>
<polyline clip-path="url(#clip430)" style="stroke:#000000; stroke-linecap:round; stroke-linejoin:round; stroke-width:4; stroke-opacity:1; fill:none" points="1586.67,1423.18 1586.67,1404.28 "/>
<polyline clip-path="url(#clip430)" style="stroke:#000000; stroke-linecap:round; stroke-linejoin:round; stroke-width:4; stroke-opacity:1; fill:none" points="2201.08,1423.18 2201.08,1404.28 "/>
<path clip-path="url(#clip430)" d="M357.858 1454.1 Q354.247 1454.1 352.418 1457.66 Q350.613 1461.2 350.613 1468.33 Q350.613 1475.44 352.418 1479.01 Q354.247 1482.55 357.858 1482.55 Q361.492 1482.55 363.298 1479.01 Q365.127 1475.44 365.127 1468.33 Q365.127 1461.2 363.298 1457.66 Q361.492 1454.1 357.858 1454.1 M357.858 1450.39 Q363.668 1450.39 366.724 1455 Q369.803 1459.58 369.803 1468.33 Q369.803 1477.06 366.724 1481.67 Q363.668 1486.25 357.858 1486.25 Q352.048 1486.25 348.969 1481.67 Q345.914 1477.06 345.914 1468.33 Q345.914 1459.58 348.969 1455 Q352.048 1450.39 357.858 1450.39 Z" fill="#000000" fill-rule="nonzero" fill-opacity="1" /><path clip-path="url(#clip430)" d="M946.953 1481.64 L954.592 1481.64 L954.592 1455.28 L946.281 1456.95 L946.281 1452.69 L954.545 1451.02 L959.221 1451.02 L959.221 1481.64 L966.86 1481.64 L966.86 1485.58 L946.953 1485.58 L946.953 1481.64 Z" fill="#000000" fill-rule="nonzero" fill-opacity="1" /><path clip-path="url(#clip430)" d="M986.304 1454.1 Q982.693 1454.1 980.865 1457.66 Q979.059 1461.2 979.059 1468.33 Q979.059 1475.44 980.865 1479.01 Q982.693 1482.55 986.304 1482.55 Q989.939 1482.55 991.744 1479.01 Q993.573 1475.44 993.573 1468.33 Q993.573 1461.2 991.744 1457.66 Q989.939 1454.1 986.304 1454.1 M986.304 1450.39 Q992.114 1450.39 995.17 1455 Q998.249 1459.58 998.249 1468.33 Q998.249 1477.06 995.17 1481.67 Q992.114 1486.25 986.304 1486.25 Q980.494 1486.25 977.415 1481.67 Q974.36 1477.06 974.36 1468.33 Q974.36 1459.58 977.415 1455 Q980.494 1450.39 986.304 1450.39 Z" fill="#000000" fill-rule="nonzero" fill-opacity="1" /><path clip-path="url(#clip430)" d="M1565.45 1481.64 L1581.76 1481.64 L1581.76 1485.58 L1559.82 1485.58 L1559.82 1481.64 Q1562.48 1478.89 1567.07 1474.26 Q1571.67 1469.61 1572.85 1468.27 Q1575.1 1465.74 1575.98 1464.01 Q1576.88 1462.25 1576.88 1460.56 Q1576.88 1457.8 1574.94 1456.07 Q1573.01 1454.33 1569.91 1454.33 Q1567.71 1454.33 1565.26 1455.09 Q1562.83 1455.86 1560.05 1457.41 L1560.05 1452.69 Q1562.88 1451.55 1565.33 1450.97 Q1567.78 1450.39 1569.82 1450.39 Q1575.19 1450.39 1578.38 1453.08 Q1581.58 1455.77 1581.58 1460.26 Q1581.58 1462.39 1580.77 1464.31 Q1579.98 1466.2 1577.88 1468.8 Q1577.3 1469.47 1574.2 1472.69 Q1571.09 1475.88 1565.45 1481.64 Z" fill="#000000" fill-rule="nonzero" fill-opacity="1" /><path clip-path="url(#clip430)" d="M1601.58 1454.1 Q1597.97 1454.1 1596.14 1457.66 Q1594.33 1461.2 1594.33 1468.33 Q1594.33 1475.44 1596.14 1479.01 Q1597.97 1482.55 1601.58 1482.55 Q1605.21 1482.55 1607.02 1479.01 Q1608.85 1475.44 1608.85 1468.33 Q1608.85 1461.2 1607.02 1457.66 Q1605.21 1454.1 1601.58 1454.1 M1601.58 1450.39 Q1607.39 1450.39 1610.44 1455 Q1613.52 1459.58 1613.52 1468.33 Q1613.52 1477.06 1610.44 1481.67 Q1607.39 1486.25 1601.58 1486.25 Q1595.77 1486.25 1592.69 1481.67 Q1589.63 1477.06 1589.63 1468.33 Q1589.63 1459.58 1592.69 1455 Q1595.77 1450.39 1601.58 1450.39 Z" fill="#000000" fill-rule="nonzero" fill-opacity="1" /><path clip-path="url(#clip430)" d="M2189.92 1466.95 Q2193.28 1467.66 2195.15 1469.93 Q2197.05 1472.2 2197.05 1475.53 Q2197.05 1480.65 2193.53 1483.45 Q2190.01 1486.25 2183.53 1486.25 Q2181.36 1486.25 2179.04 1485.81 Q2176.75 1485.39 2174.3 1484.54 L2174.3 1480.02 Q2176.24 1481.16 2178.56 1481.74 Q2180.87 1482.32 2183.39 1482.32 Q2187.79 1482.32 2190.08 1480.58 Q2192.4 1478.84 2192.4 1475.53 Q2192.4 1472.48 2190.25 1470.77 Q2188.12 1469.03 2184.3 1469.03 L2180.27 1469.03 L2180.27 1465.19 L2184.48 1465.19 Q2187.93 1465.19 2189.76 1463.82 Q2191.59 1462.43 2191.59 1459.84 Q2191.59 1457.18 2189.69 1455.77 Q2187.81 1454.33 2184.3 1454.33 Q2182.38 1454.33 2180.18 1454.75 Q2177.98 1455.16 2175.34 1456.04 L2175.34 1451.88 Q2178 1451.14 2180.31 1450.77 Q2182.65 1450.39 2184.71 1450.39 Q2190.04 1450.39 2193.14 1452.83 Q2196.24 1455.23 2196.24 1459.35 Q2196.24 1462.22 2194.6 1464.21 Q2192.95 1466.18 2189.92 1466.95 Z" fill="#000000" fill-rule="nonzero" fill-opacity="1" /><path clip-path="url(#clip430)" d="M2215.92 1454.1 Q2212.31 1454.1 2210.48 1457.66 Q2208.67 1461.2 2208.67 1468.33 Q2208.67 1475.44 2210.48 1479.01 Q2212.31 1482.55 2215.92 1482.55 Q2219.55 1482.55 2221.36 1479.01 Q2223.18 1475.44 2223.18 1468.33 Q2223.18 1461.2 2221.36 1457.66 Q2219.55 1454.1 2215.92 1454.1 M2215.92 1450.39 Q2221.73 1450.39 2224.78 1455 Q2227.86 1459.58 2227.86 1468.33 Q2227.86 1477.06 2224.78 1481.67 Q2221.73 1486.25 2215.92 1486.25 Q2210.11 1486.25 2207.03 1481.67 Q2203.97 1477.06 2203.97 1468.33 Q2203.97 1459.58 2207.03 1455 Q2210.11 1450.39 2215.92 1450.39 Z" fill="#000000" fill-rule="nonzero" fill-opacity="1" /><path clip-path="url(#clip430)" d="M1013.77 1520.52 L1020.27 1520.52 L1030.26 1560.69 L1040.22 1520.52 L1047.45 1520.52 L1057.44 1560.69 L1067.4 1520.52 L1073.93 1520.52 L1061.99 1568.04 L1053.91 1568.04 L1043.88 1526.79 L1033.76 1568.04 L1025.68 1568.04 L1013.77 1520.52 Z" fill="#000000" fill-rule="nonzero" fill-opacity="1" /><path clip-path="url(#clip430)" d="M1094.23 1550.12 Q1087.14 1550.12 1084.4 1551.75 Q1081.66 1553.37 1081.66 1557.29 Q1081.66 1560.4 1083.7 1562.25 Q1085.77 1564.07 1089.3 1564.07 Q1094.17 1564.07 1097.1 1560.63 Q1100.06 1557.16 1100.06 1551.43 L1100.06 1550.12 L1094.23 1550.12 M1105.92 1547.71 L1105.92 1568.04 L1100.06 1568.04 L1100.06 1562.63 Q1098.05 1565.88 1095.06 1567.44 Q1092.07 1568.97 1087.74 1568.97 Q1082.27 1568.97 1079.02 1565.91 Q1075.81 1562.82 1075.81 1557.67 Q1075.81 1551.65 1079.82 1548.6 Q1083.86 1545.54 1091.85 1545.54 L1100.06 1545.54 L1100.06 1544.97 Q1100.06 1540.93 1097.39 1538.73 Q1094.74 1536.5 1089.94 1536.5 Q1086.88 1536.5 1083.99 1537.23 Q1081.09 1537.97 1078.42 1539.43 L1078.42 1534.02 Q1081.63 1532.78 1084.65 1532.17 Q1087.68 1531.54 1090.54 1531.54 Q1098.28 1531.54 1102.1 1535.55 Q1105.92 1539.56 1105.92 1547.71 Z" fill="#000000" fill-rule="nonzero" fill-opacity="1" /><path clip-path="url(#clip430)" d="M1117.98 1518.52 L1123.84 1518.52 L1123.84 1568.04 L1117.98 1568.04 L1117.98 1518.52 Z" fill="#000000" fill-rule="nonzero" fill-opacity="1" /><path clip-path="url(#clip430)" d="M1136.09 1518.52 L1141.95 1518.52 L1141.95 1568.04 L1136.09 1568.04 L1136.09 1518.52 Z" fill="#000000" fill-rule="nonzero" fill-opacity="1" /><path clip-path="url(#clip430)" d="M1179.85 1533.76 L1179.85 1539.24 Q1177.37 1537.87 1174.86 1537.2 Q1172.37 1536.5 1169.83 1536.5 Q1164.13 1536.5 1160.98 1540.13 Q1157.83 1543.73 1157.83 1550.25 Q1157.83 1556.78 1160.98 1560.4 Q1164.13 1564 1169.83 1564 Q1172.37 1564 1174.86 1563.33 Q1177.37 1562.63 1179.85 1561.26 L1179.85 1566.68 Q1177.4 1567.82 1174.76 1568.39 Q1172.15 1568.97 1169.19 1568.97 Q1161.14 1568.97 1156.4 1563.91 Q1151.65 1558.85 1151.65 1550.25 Q1151.65 1541.53 1156.43 1536.53 Q1161.23 1531.54 1169.57 1531.54 Q1172.28 1531.54 1174.86 1532.11 Q1177.43 1532.65 1179.85 1533.76 Z" fill="#000000" fill-rule="nonzero" fill-opacity="1" /><path clip-path="url(#clip430)" d="M1190.04 1518.52 L1195.89 1518.52 L1195.89 1568.04 L1190.04 1568.04 L1190.04 1518.52 Z" fill="#000000" fill-rule="nonzero" fill-opacity="1" /><path clip-path="url(#clip430)" d="M1221.96 1536.5 Q1217.25 1536.5 1214.51 1540.19 Q1211.78 1543.85 1211.78 1550.25 Q1211.78 1556.65 1214.48 1560.34 Q1217.22 1564 1221.96 1564 Q1226.64 1564 1229.38 1560.31 Q1232.12 1556.62 1232.12 1550.25 Q1232.12 1543.92 1229.38 1540.23 Q1226.64 1536.5 1221.96 1536.5 M1221.96 1531.54 Q1229.6 1531.54 1233.96 1536.5 Q1238.32 1541.47 1238.32 1550.25 Q1238.32 1559 1233.96 1564 Q1229.6 1568.97 1221.96 1568.97 Q1214.29 1568.97 1209.93 1564 Q1205.6 1559 1205.6 1550.25 Q1205.6 1541.47 1209.93 1536.5 Q1214.29 1531.54 1221.96 1531.54 Z" fill="#000000" fill-rule="nonzero" fill-opacity="1" /><path clip-path="url(#clip430)" d="M1273.68 1533.76 L1273.68 1539.24 Q1271.2 1537.87 1268.69 1537.2 Q1266.2 1536.5 1263.66 1536.5 Q1257.96 1536.5 1254.81 1540.13 Q1251.66 1543.73 1251.66 1550.25 Q1251.66 1556.78 1254.81 1560.4 Q1257.96 1564 1263.66 1564 Q1266.2 1564 1268.69 1563.33 Q1271.2 1562.63 1273.68 1561.26 L1273.68 1566.68 Q1271.23 1567.82 1268.59 1568.39 Q1265.98 1568.97 1263.02 1568.97 Q1254.97 1568.97 1250.23 1563.91 Q1245.48 1558.85 1245.48 1550.25 Q1245.48 1541.53 1250.26 1536.53 Q1255.06 1531.54 1263.4 1531.54 Q1266.11 1531.54 1268.69 1532.11 Q1271.26 1532.65 1273.68 1533.76 Z" fill="#000000" fill-rule="nonzero" fill-opacity="1" /><path clip-path="url(#clip430)" d="M1283.65 1518.52 L1289.53 1518.52 L1289.53 1547.77 L1307.01 1532.4 L1314.49 1532.4 L1295.58 1549.07 L1315.28 1568.04 L1307.64 1568.04 L1289.53 1550.63 L1289.53 1568.04 L1283.65 1568.04 L1283.65 1518.52 Z" fill="#000000" fill-rule="nonzero" fill-opacity="1" /><path clip-path="url(#clip430)" d="M1336 1520.52 L1376.2 1520.52 L1376.2 1525.93 L1359.33 1525.93 L1359.33 1568.04 L1352.87 1568.04 L1352.87 1525.93 L1336 1525.93 L1336 1520.52 Z" fill="#000000" fill-rule="nonzero" fill-opacity="1" /><path clip-path="url(#clip430)" d="M1380.15 1532.4 L1386.01 1532.4 L1386.01 1568.04 L1380.15 1568.04 L1380.15 1532.4 M1380.15 1518.52 L1386.01 1518.52 L1386.01 1525.93 L1380.15 1525.93 L1380.15 1518.52 Z" fill="#000000" fill-rule="nonzero" fill-opacity="1" /><path clip-path="url(#clip430)" d="M1426.02 1539.24 Q1428.21 1535.29 1431.27 1533.41 Q1434.32 1531.54 1438.46 1531.54 Q1444.03 1531.54 1447.05 1535.45 Q1450.08 1539.33 1450.08 1546.53 L1450.08 1568.04 L1444.19 1568.04 L1444.19 1546.72 Q1444.19 1541.59 1442.38 1539.11 Q1440.56 1536.63 1436.84 1536.63 Q1432.29 1536.63 1429.64 1539.65 Q1427 1542.68 1427 1547.9 L1427 1568.04 L1421.11 1568.04 L1421.11 1546.72 Q1421.11 1541.56 1419.3 1539.11 Q1417.49 1536.63 1413.7 1536.63 Q1409.21 1536.63 1406.57 1539.68 Q1403.93 1542.71 1403.93 1547.9 L1403.93 1568.04 L1398.04 1568.04 L1398.04 1532.4 L1403.93 1532.4 L1403.93 1537.93 Q1405.93 1534.66 1408.73 1533.1 Q1411.53 1531.54 1415.38 1531.54 Q1419.27 1531.54 1421.97 1533.51 Q1424.71 1535.48 1426.02 1539.24 Z" fill="#000000" fill-rule="nonzero" fill-opacity="1" /><path clip-path="url(#clip430)" d="M1492.25 1548.76 L1492.25 1551.62 L1465.32 1551.62 Q1465.71 1557.67 1468.95 1560.85 Q1472.23 1564 1478.05 1564 Q1481.43 1564 1484.58 1563.17 Q1487.76 1562.35 1490.88 1560.69 L1490.88 1566.23 Q1487.73 1567.57 1484.42 1568.27 Q1481.11 1568.97 1477.7 1568.97 Q1469.17 1568.97 1464.18 1564 Q1459.21 1559.04 1459.21 1550.57 Q1459.21 1541.82 1463.92 1536.69 Q1468.67 1531.54 1476.69 1531.54 Q1483.88 1531.54 1488.05 1536.18 Q1492.25 1540.8 1492.25 1548.76 M1486.39 1547.04 Q1486.33 1542.23 1483.69 1539.37 Q1481.08 1536.5 1476.75 1536.5 Q1471.85 1536.5 1468.89 1539.27 Q1465.96 1542.04 1465.51 1547.07 L1486.39 1547.04 Z" fill="#000000" fill-rule="nonzero" fill-opacity="1" /><path clip-path="url(#clip430)" d="M1536.65 1518.58 Q1532.39 1525.9 1530.32 1533.06 Q1528.25 1540.23 1528.25 1547.58 Q1528.25 1554.93 1530.32 1562.16 Q1532.42 1569.35 1536.65 1576.64 L1531.56 1576.64 Q1526.78 1569.16 1524.4 1561.93 Q1522.04 1554.71 1522.04 1547.58 Q1522.04 1540.48 1524.4 1533.29 Q1526.75 1526.09 1531.56 1518.58 L1536.65 1518.58 Z" fill="#000000" fill-rule="nonzero" fill-opacity="1" /><path clip-path="url(#clip430)" d="M1570.74 1533.45 L1570.74 1538.98 Q1568.26 1537.71 1565.58 1537.07 Q1562.91 1536.44 1560.05 1536.44 Q1555.68 1536.44 1553.49 1537.77 Q1551.32 1539.11 1551.32 1541.79 Q1551.32 1543.82 1552.88 1545 Q1554.44 1546.15 1559.15 1547.2 L1561.16 1547.64 Q1567.4 1548.98 1570.01 1551.43 Q1572.65 1553.85 1572.65 1558.21 Q1572.65 1563.17 1568.7 1566.07 Q1564.79 1568.97 1557.91 1568.97 Q1555.05 1568.97 1551.93 1568.39 Q1548.84 1567.85 1545.4 1566.74 L1545.4 1560.69 Q1548.65 1562.38 1551.8 1563.24 Q1554.95 1564.07 1558.04 1564.07 Q1562.18 1564.07 1564.41 1562.66 Q1566.63 1561.23 1566.63 1558.65 Q1566.63 1556.27 1565.01 1554.99 Q1563.42 1553.72 1557.98 1552.54 L1555.94 1552.07 Q1550.5 1550.92 1548.08 1548.56 Q1545.66 1546.18 1545.66 1542.04 Q1545.66 1537.01 1549.22 1534.27 Q1552.79 1531.54 1559.34 1531.54 Q1562.59 1531.54 1565.46 1532.01 Q1568.32 1532.49 1570.74 1533.45 Z" fill="#000000" fill-rule="nonzero" fill-opacity="1" /><path clip-path="url(#clip430)" d="M1612.47 1548.76 L1612.47 1551.62 L1585.54 1551.62 Q1585.92 1557.67 1589.17 1560.85 Q1592.45 1564 1598.27 1564 Q1601.65 1564 1604.8 1563.17 Q1607.98 1562.35 1611.1 1560.69 L1611.1 1566.23 Q1607.95 1567.57 1604.64 1568.27 Q1601.33 1568.97 1597.92 1568.97 Q1589.39 1568.97 1584.39 1564 Q1579.43 1559.04 1579.43 1550.57 Q1579.43 1541.82 1584.14 1536.69 Q1588.88 1531.54 1596.9 1531.54 Q1604.1 1531.54 1608.27 1536.18 Q1612.47 1540.8 1612.47 1548.76 M1606.61 1547.04 Q1606.55 1542.23 1603.9 1539.37 Q1601.29 1536.5 1596.97 1536.5 Q1592.06 1536.5 1589.1 1539.27 Q1586.18 1542.04 1585.73 1547.07 L1606.61 1547.04 Z" fill="#000000" fill-rule="nonzero" fill-opacity="1" /><path clip-path="url(#clip430)" d="M1647.73 1533.76 L1647.73 1539.24 Q1645.25 1537.87 1642.74 1537.2 Q1640.25 1536.5 1637.71 1536.5 Q1632.01 1536.5 1628.86 1540.13 Q1625.71 1543.73 1625.71 1550.25 Q1625.71 1556.78 1628.86 1560.4 Q1632.01 1564 1637.71 1564 Q1640.25 1564 1642.74 1563.33 Q1645.25 1562.63 1647.73 1561.26 L1647.73 1566.68 Q1645.28 1567.82 1642.64 1568.39 Q1640.03 1568.97 1637.07 1568.97 Q1629.02 1568.97 1624.28 1563.91 Q1619.53 1558.85 1619.53 1550.25 Q1619.53 1541.53 1624.31 1536.53 Q1629.11 1531.54 1637.45 1531.54 Q1640.16 1531.54 1642.74 1532.11 Q1645.31 1532.65 1647.73 1533.76 Z" fill="#000000" fill-rule="nonzero" fill-opacity="1" /><path clip-path="url(#clip430)" d="M1656.99 1518.58 L1662.09 1518.58 Q1666.86 1526.09 1669.22 1533.29 Q1671.6 1540.48 1671.6 1547.58 Q1671.6 1554.71 1669.22 1561.93 Q1666.86 1569.16 1662.09 1576.64 L1656.99 1576.64 Q1661.23 1569.35 1663.3 1562.16 Q1665.4 1554.93 1665.4 1547.58 Q1665.4 1540.23 1663.3 1533.06 Q1661.23 1525.9 1656.99 1518.58 Z" fill="#000000" fill-rule="nonzero" fill-opacity="1" /><polyline clip-path="url(#clip430)" style="stroke:#000000; stroke-linecap:round; stroke-linejoin:round; stroke-width:4; stroke-opacity:1; fill:none" points="332.62,1423.18 332.62,47.2441 "/>
<polyline clip-path="url(#clip430)" style="stroke:#000000; stroke-linecap:round; stroke-linejoin:round; stroke-width:4; stroke-opacity:1; fill:none" points="332.62,1223.78 351.518,1223.78 "/>
<polyline clip-path="url(#clip430)" style="stroke:#000000; stroke-linecap:round; stroke-linejoin:round; stroke-width:4; stroke-opacity:1; fill:none" points="332.62,868.333 351.518,868.333 "/>
<polyline clip-path="url(#clip430)" style="stroke:#000000; stroke-linecap:round; stroke-linejoin:round; stroke-width:4; stroke-opacity:1; fill:none" points="332.62,512.89 351.518,512.89 "/>
<polyline clip-path="url(#clip430)" style="stroke:#000000; stroke-linecap:round; stroke-linejoin:round; stroke-width:4; stroke-opacity:1; fill:none" points="332.62,157.447 351.518,157.447 "/>
<path clip-path="url(#clip430)" d="M114.26 1224.23 L143.936 1224.23 L143.936 1228.16 L114.26 1228.16 L114.26 1224.23 Z" fill="#000000" fill-rule="nonzero" fill-opacity="1" /><path clip-path="url(#clip430)" d="M154.839 1237.12 L162.477 1237.12 L162.477 1210.75 L154.167 1212.42 L154.167 1208.16 L162.431 1206.5 L167.107 1206.5 L167.107 1237.12 L174.746 1237.12 L174.746 1241.06 L154.839 1241.06 L154.839 1237.12 Z" fill="#000000" fill-rule="nonzero" fill-opacity="1" /><path clip-path="url(#clip430)" d="M188.218 1237.12 L204.537 1237.12 L204.537 1241.06 L182.593 1241.06 L182.593 1237.12 Q185.255 1234.37 189.838 1229.74 Q194.445 1225.08 195.625 1223.74 Q197.871 1221.22 198.75 1219.48 Q199.653 1217.72 199.653 1216.03 Q199.653 1213.28 197.709 1211.54 Q195.787 1209.81 192.686 1209.81 Q190.487 1209.81 188.033 1210.57 Q185.602 1211.33 182.825 1212.88 L182.825 1208.16 Q185.649 1207.03 188.102 1206.45 Q190.556 1205.87 192.593 1205.87 Q197.963 1205.87 201.158 1208.56 Q204.352 1211.24 204.352 1215.73 Q204.352 1217.86 203.542 1219.78 Q202.755 1221.68 200.649 1224.27 Q200.07 1224.94 196.968 1228.16 Q193.866 1231.36 188.218 1237.12 Z" fill="#000000" fill-rule="nonzero" fill-opacity="1" /><path clip-path="url(#clip430)" d="M224.352 1209.57 Q220.741 1209.57 218.912 1213.14 Q217.107 1216.68 217.107 1223.81 Q217.107 1230.92 218.912 1234.48 Q220.741 1238.02 224.352 1238.02 Q227.986 1238.02 229.792 1234.48 Q231.621 1230.92 231.621 1223.81 Q231.621 1216.68 229.792 1213.14 Q227.986 1209.57 224.352 1209.57 M224.352 1205.87 Q230.162 1205.87 233.218 1210.48 Q236.297 1215.06 236.297 1223.81 Q236.297 1232.54 233.218 1237.14 Q230.162 1241.73 224.352 1241.73 Q218.542 1241.73 215.463 1237.14 Q212.408 1232.54 212.408 1223.81 Q212.408 1215.06 215.463 1210.48 Q218.542 1205.87 224.352 1205.87 Z" fill="#000000" fill-rule="nonzero" fill-opacity="1" /><path clip-path="url(#clip430)" d="M254.514 1209.57 Q250.903 1209.57 249.074 1213.14 Q247.269 1216.68 247.269 1223.81 Q247.269 1230.92 249.074 1234.48 Q250.903 1238.02 254.514 1238.02 Q258.148 1238.02 259.954 1234.48 Q261.783 1230.92 261.783 1223.81 Q261.783 1216.68 259.954 1213.14 Q258.148 1209.57 254.514 1209.57 M254.514 1205.87 Q260.324 1205.87 263.38 1210.48 Q266.458 1215.06 266.458 1223.81 Q266.458 1232.54 263.38 1237.14 Q260.324 1241.73 254.514 1241.73 Q248.704 1241.73 245.625 1237.14 Q242.57 1232.54 242.57 1223.81 Q242.57 1215.06 245.625 1210.48 Q248.704 1205.87 254.514 1205.87 Z" fill="#000000" fill-rule="nonzero" fill-opacity="1" /><path clip-path="url(#clip430)" d="M284.676 1209.57 Q281.065 1209.57 279.236 1213.14 Q277.431 1216.68 277.431 1223.81 Q277.431 1230.92 279.236 1234.48 Q281.065 1238.02 284.676 1238.02 Q288.31 1238.02 290.116 1234.48 Q291.944 1230.92 291.944 1223.81 Q291.944 1216.68 290.116 1213.14 Q288.31 1209.57 284.676 1209.57 M284.676 1205.87 Q290.486 1205.87 293.542 1210.48 Q296.62 1215.06 296.62 1223.81 Q296.62 1232.54 293.542 1237.14 Q290.486 1241.73 284.676 1241.73 Q278.866 1241.73 275.787 1237.14 Q272.732 1232.54 272.732 1223.81 Q272.732 1215.06 275.787 1210.48 Q278.866 1205.87 284.676 1205.87 Z" fill="#000000" fill-rule="nonzero" fill-opacity="1" /><path clip-path="url(#clip430)" d="M114.26 868.784 L143.936 868.784 L143.936 872.72 L114.26 872.72 L114.26 868.784 Z" fill="#000000" fill-rule="nonzero" fill-opacity="1" /><path clip-path="url(#clip430)" d="M154.839 881.678 L162.477 881.678 L162.477 855.312 L154.167 856.979 L154.167 852.72 L162.431 851.053 L167.107 851.053 L167.107 881.678 L174.746 881.678 L174.746 885.613 L154.839 885.613 L154.839 881.678 Z" fill="#000000" fill-rule="nonzero" fill-opacity="1" /><path clip-path="url(#clip430)" d="M194.19 854.132 Q190.579 854.132 188.75 857.696 Q186.945 861.238 186.945 868.368 Q186.945 875.474 188.75 879.039 Q190.579 882.581 194.19 882.581 Q197.825 882.581 199.63 879.039 Q201.459 875.474 201.459 868.368 Q201.459 861.238 199.63 857.696 Q197.825 854.132 194.19 854.132 M194.19 850.428 Q200 850.428 203.056 855.034 Q206.135 859.618 206.135 868.368 Q206.135 877.095 203.056 881.701 Q200 886.284 194.19 886.284 Q188.38 886.284 185.301 881.701 Q182.246 877.095 182.246 868.368 Q182.246 859.618 185.301 855.034 Q188.38 850.428 194.19 850.428 Z" fill="#000000" fill-rule="nonzero" fill-opacity="1" /><path clip-path="url(#clip430)" d="M224.352 854.132 Q220.741 854.132 218.912 857.696 Q217.107 861.238 217.107 868.368 Q217.107 875.474 218.912 879.039 Q220.741 882.581 224.352 882.581 Q227.986 882.581 229.792 879.039 Q231.621 875.474 231.621 868.368 Q231.621 861.238 229.792 857.696 Q227.986 854.132 224.352 854.132 M224.352 850.428 Q230.162 850.428 233.218 855.034 Q236.297 859.618 236.297 868.368 Q236.297 877.095 233.218 881.701 Q230.162 886.284 224.352 886.284 Q218.542 886.284 215.463 881.701 Q212.408 877.095 212.408 868.368 Q212.408 859.618 215.463 855.034 Q218.542 850.428 224.352 850.428 Z" fill="#000000" fill-rule="nonzero" fill-opacity="1" /><path clip-path="url(#clip430)" d="M254.514 854.132 Q250.903 854.132 249.074 857.696 Q247.269 861.238 247.269 868.368 Q247.269 875.474 249.074 879.039 Q250.903 882.581 254.514 882.581 Q258.148 882.581 259.954 879.039 Q261.783 875.474 261.783 868.368 Q261.783 861.238 259.954 857.696 Q258.148 854.132 254.514 854.132 M254.514 850.428 Q260.324 850.428 263.38 855.034 Q266.458 859.618 266.458 868.368 Q266.458 877.095 263.38 881.701 Q260.324 886.284 254.514 886.284 Q248.704 886.284 245.625 881.701 Q242.57 877.095 242.57 868.368 Q242.57 859.618 245.625 855.034 Q248.704 850.428 254.514 850.428 Z" fill="#000000" fill-rule="nonzero" fill-opacity="1" /><path clip-path="url(#clip430)" d="M284.676 854.132 Q281.065 854.132 279.236 857.696 Q277.431 861.238 277.431 868.368 Q277.431 875.474 279.236 879.039 Q281.065 882.581 284.676 882.581 Q288.31 882.581 290.116 879.039 Q291.944 875.474 291.944 868.368 Q291.944 861.238 290.116 857.696 Q288.31 854.132 284.676 854.132 M284.676 850.428 Q290.486 850.428 293.542 855.034 Q296.62 859.618 296.62 868.368 Q296.62 877.095 293.542 881.701 Q290.486 886.284 284.676 886.284 Q278.866 886.284 275.787 881.701 Q272.732 877.095 272.732 868.368 Q272.732 859.618 275.787 855.034 Q278.866 850.428 284.676 850.428 Z" fill="#000000" fill-rule="nonzero" fill-opacity="1" /><path clip-path="url(#clip430)" d="M144.422 513.342 L174.098 513.342 L174.098 517.277 L144.422 517.277 L144.422 513.342 Z" fill="#000000" fill-rule="nonzero" fill-opacity="1" /><path clip-path="url(#clip430)" d="M194.19 513.758 Q190.857 513.758 188.936 515.541 Q187.038 517.323 187.038 520.448 Q187.038 523.573 188.936 525.355 Q190.857 527.138 194.19 527.138 Q197.524 527.138 199.445 525.355 Q201.366 523.55 201.366 520.448 Q201.366 517.323 199.445 515.541 Q197.547 513.758 194.19 513.758 M189.514 511.768 Q186.505 511.027 184.815 508.967 Q183.149 506.906 183.149 503.944 Q183.149 499.8 186.088 497.393 Q189.051 494.985 194.19 494.985 Q199.352 494.985 202.292 497.393 Q205.232 499.8 205.232 503.944 Q205.232 506.906 203.542 508.967 Q201.875 511.027 198.889 511.768 Q202.269 512.555 204.144 514.846 Q206.042 517.138 206.042 520.448 Q206.042 525.471 202.963 528.156 Q199.908 530.842 194.19 530.842 Q188.473 530.842 185.394 528.156 Q182.338 525.471 182.338 520.448 Q182.338 517.138 184.237 514.846 Q186.135 512.555 189.514 511.768 M187.801 504.383 Q187.801 507.068 189.468 508.573 Q191.158 510.078 194.19 510.078 Q197.2 510.078 198.889 508.573 Q200.602 507.068 200.602 504.383 Q200.602 501.698 198.889 500.194 Q197.2 498.689 194.19 498.689 Q191.158 498.689 189.468 500.194 Q187.801 501.698 187.801 504.383 Z" fill="#000000" fill-rule="nonzero" fill-opacity="1" /><path clip-path="url(#clip430)" d="M224.352 498.689 Q220.741 498.689 218.912 502.254 Q217.107 505.795 217.107 512.925 Q217.107 520.031 218.912 523.596 Q220.741 527.138 224.352 527.138 Q227.986 527.138 229.792 523.596 Q231.621 520.031 231.621 512.925 Q231.621 505.795 229.792 502.254 Q227.986 498.689 224.352 498.689 M224.352 494.985 Q230.162 494.985 233.218 499.592 Q236.297 504.175 236.297 512.925 Q236.297 521.652 233.218 526.258 Q230.162 530.842 224.352 530.842 Q218.542 530.842 215.463 526.258 Q212.408 521.652 212.408 512.925 Q212.408 504.175 215.463 499.592 Q218.542 494.985 224.352 494.985 Z" fill="#000000" fill-rule="nonzero" fill-opacity="1" /><path clip-path="url(#clip430)" d="M254.514 498.689 Q250.903 498.689 249.074 502.254 Q247.269 505.795 247.269 512.925 Q247.269 520.031 249.074 523.596 Q250.903 527.138 254.514 527.138 Q258.148 527.138 259.954 523.596 Q261.783 520.031 261.783 512.925 Q261.783 505.795 259.954 502.254 Q258.148 498.689 254.514 498.689 M254.514 494.985 Q260.324 494.985 263.38 499.592 Q266.458 504.175 266.458 512.925 Q266.458 521.652 263.38 526.258 Q260.324 530.842 254.514 530.842 Q248.704 530.842 245.625 526.258 Q242.57 521.652 242.57 512.925 Q242.57 504.175 245.625 499.592 Q248.704 494.985 254.514 494.985 Z" fill="#000000" fill-rule="nonzero" fill-opacity="1" /><path clip-path="url(#clip430)" d="M284.676 498.689 Q281.065 498.689 279.236 502.254 Q277.431 505.795 277.431 512.925 Q277.431 520.031 279.236 523.596 Q281.065 527.138 284.676 527.138 Q288.31 527.138 290.116 523.596 Q291.944 520.031 291.944 512.925 Q291.944 505.795 290.116 502.254 Q288.31 498.689 284.676 498.689 M284.676 494.985 Q290.486 494.985 293.542 499.592 Q296.62 504.175 296.62 512.925 Q296.62 521.652 293.542 526.258 Q290.486 530.842 284.676 530.842 Q278.866 530.842 275.787 526.258 Q272.732 521.652 272.732 512.925 Q272.732 504.175 275.787 499.592 Q278.866 494.985 284.676 494.985 Z" fill="#000000" fill-rule="nonzero" fill-opacity="1" /><path clip-path="url(#clip430)" d="M144.422 157.899 L174.098 157.899 L174.098 161.834 L144.422 161.834 L144.422 157.899 Z" fill="#000000" fill-rule="nonzero" fill-opacity="1" /><path clip-path="url(#clip430)" d="M194.769 155.584 Q191.621 155.584 189.769 157.737 Q187.94 159.89 187.94 163.64 Q187.94 167.366 189.769 169.542 Q191.621 171.695 194.769 171.695 Q197.917 171.695 199.746 169.542 Q201.598 167.366 201.598 163.64 Q201.598 159.89 199.746 157.737 Q197.917 155.584 194.769 155.584 M204.051 140.931 L204.051 145.191 Q202.292 144.357 200.487 143.917 Q198.704 143.478 196.945 143.478 Q192.315 143.478 189.862 146.603 Q187.431 149.728 187.084 156.047 Q188.45 154.033 190.51 152.968 Q192.57 151.88 195.047 151.88 Q200.255 151.88 203.264 155.052 Q206.297 158.2 206.297 163.64 Q206.297 168.964 203.149 172.181 Q200 175.399 194.769 175.399 Q188.774 175.399 185.602 170.815 Q182.431 166.209 182.431 157.482 Q182.431 149.288 186.32 144.427 Q190.209 139.542 196.76 139.542 Q198.519 139.542 200.301 139.89 Q202.107 140.237 204.051 140.931 Z" fill="#000000" fill-rule="nonzero" fill-opacity="1" /><path clip-path="url(#clip430)" d="M224.352 143.246 Q220.741 143.246 218.912 146.811 Q217.107 150.353 217.107 157.482 Q217.107 164.589 218.912 168.153 Q220.741 171.695 224.352 171.695 Q227.986 171.695 229.792 168.153 Q231.621 164.589 231.621 157.482 Q231.621 150.353 229.792 146.811 Q227.986 143.246 224.352 143.246 M224.352 139.542 Q230.162 139.542 233.218 144.149 Q236.297 148.732 236.297 157.482 Q236.297 166.209 233.218 170.815 Q230.162 175.399 224.352 175.399 Q218.542 175.399 215.463 170.815 Q212.408 166.209 212.408 157.482 Q212.408 148.732 215.463 144.149 Q218.542 139.542 224.352 139.542 Z" fill="#000000" fill-rule="nonzero" fill-opacity="1" /><path clip-path="url(#clip430)" d="M254.514 143.246 Q250.903 143.246 249.074 146.811 Q247.269 150.353 247.269 157.482 Q247.269 164.589 249.074 168.153 Q250.903 171.695 254.514 171.695 Q258.148 171.695 259.954 168.153 Q261.783 164.589 261.783 157.482 Q261.783 150.353 259.954 146.811 Q258.148 143.246 254.514 143.246 M254.514 139.542 Q260.324 139.542 263.38 144.149 Q266.458 148.732 266.458 157.482 Q266.458 166.209 263.38 170.815 Q260.324 175.399 254.514 175.399 Q248.704 175.399 245.625 170.815 Q242.57 166.209 242.57 157.482 Q242.57 148.732 245.625 144.149 Q248.704 139.542 254.514 139.542 Z" fill="#000000" fill-rule="nonzero" fill-opacity="1" /><path clip-path="url(#clip430)" d="M284.676 143.246 Q281.065 143.246 279.236 146.811 Q277.431 150.353 277.431 157.482 Q277.431 164.589 279.236 168.153 Q281.065 171.695 284.676 171.695 Q288.31 171.695 290.116 168.153 Q291.944 164.589 291.944 157.482 Q291.944 150.353 290.116 146.811 Q288.31 143.246 284.676 143.246 M284.676 139.542 Q290.486 139.542 293.542 144.149 Q296.62 148.732 296.62 157.482 Q296.62 166.209 293.542 170.815 Q290.486 175.399 284.676 175.399 Q278.866 175.399 275.787 170.815 Q272.732 166.209 272.732 157.482 Q272.732 148.732 275.787 144.149 Q278.866 139.542 284.676 139.542 Z" fill="#000000" fill-rule="nonzero" fill-opacity="1" /><path clip-path="url(#clip430)" d="M16.4842 816.375 L16.4842 786.329 L21.895 786.329 L21.895 809.945 L35.9632 809.945 L35.9632 787.315 L41.3741 787.315 L41.3741 809.945 L58.5933 809.945 L58.5933 785.756 L64.0042 785.756 L64.0042 816.375 L16.4842 816.375 Z" fill="#000000" fill-rule="nonzero" fill-opacity="1" /><path clip-path="url(#clip430)" d="M16.4842 775.189 L16.4842 768.759 L58.5933 768.759 L58.5933 745.62 L64.0042 745.62 L64.0042 775.189 L16.4842 775.189 Z" fill="#000000" fill-rule="nonzero" fill-opacity="1" /><path clip-path="url(#clip430)" d="M41.3104 732.443 L58.7206 732.443 L58.7206 722.13 Q58.7206 716.942 56.5881 714.46 Q54.4238 711.945 49.9996 711.945 Q45.5436 711.945 43.4429 714.46 Q41.3104 716.942 41.3104 722.13 L41.3104 732.443 M21.7677 732.443 L36.0905 732.443 L36.0905 722.926 Q36.0905 718.216 34.34 715.924 Q32.5576 713.6 28.9291 713.6 Q25.3325 713.6 23.5501 715.924 Q21.7677 718.216 21.7677 722.926 L21.7677 732.443 M16.4842 738.872 L16.4842 722.449 Q16.4842 715.096 19.5397 711.118 Q22.5952 707.139 28.2289 707.139 Q32.5894 707.139 35.1675 709.176 Q37.7456 711.213 38.3822 715.16 Q39.4007 710.418 42.6472 707.808 Q45.8619 705.166 50.6998 705.166 Q57.0655 705.166 60.5348 709.495 Q64.0042 713.823 64.0042 721.812 L64.0042 738.872 L16.4842 738.872 Z" fill="#000000" fill-rule="nonzero" fill-opacity="1" /><path clip-path="url(#clip430)" d="M20.8447 676.011 Q20.8447 683.013 26.0645 687.151 Q31.2844 691.257 40.2919 691.257 Q49.2675 691.257 54.4874 687.151 Q59.7073 683.013 59.7073 676.011 Q59.7073 669.009 54.4874 664.935 Q49.2675 660.829 40.2919 660.829 Q31.2844 660.829 26.0645 664.935 Q20.8447 669.009 20.8447 676.011 M15.6248 676.011 Q15.6248 666.017 22.3406 660.033 Q29.0246 654.049 40.2919 654.049 Q51.5274 654.049 58.2432 660.033 Q64.9272 666.017 64.9272 676.011 Q64.9272 686.037 58.2432 692.052 Q51.5592 698.036 40.2919 698.036 Q29.0246 698.036 22.3406 692.052 Q15.6248 686.037 15.6248 676.011 Z" fill="#000000" fill-rule="nonzero" fill-opacity="1" /><polyline clip-path="url(#clip432)" style="stroke:#009af9; stroke-linecap:round; stroke-linejoin:round; stroke-width:4; stroke-opacity:1; fill:none" points="429.443,1228.53 500.016,922.977 562.385,432.347 624.909,368.016 686.489,319.37 749.451,293.246 810.187,278.801 870.298,256.196 930.3,253.476 989.825,245.504 1049.78,239.068 1112.06,232.338 1172.07,215.922 1232.68,213.018 1294.86,206.821 1357.89,195.223 1417.19,185.147 1475.7,177.157 1535.06,171.863 1594.52,161.855 1653.56,157.79 1713.73,151.514 1772.74,146.46 1831.47,138.555 1890.06,128.29 1946.92,124.363 2003.84,114.982 2060.63,116.753 2120.44,106.302 2180.3,96.1177 2238.71,91.1872 2295.58,86.1857 "/>
<polyline clip-path="url(#clip432)" style="stroke:#e26f46; stroke-linecap:round; stroke-linejoin:round; stroke-width:4; stroke-opacity:1; fill:none" points="389.794,1384.24 417.434,798.463 428.542,573.529 439.124,358.498 454.271,331.626 464.757,315.522 475.217,283.984 485.645,270.924 496.202,264.03 506.688,262.059 516.949,255.937 527.632,238.194 538.094,235.817 548.645,224.89 559.146,219.572 569.56,216.94 580.075,206.459 590.825,204.094 601.343,196.821 612.081,190.091 623.024,181.8 634.024,177.621 644.568,180.171 655.204,171.628 665.777,160.753 676.223,156.828 686.603,157.191 697.152,153.27 707.549,145.414 717.958,139.587 728.438,138.288 738.993,128.639 "/>
<path clip-path="url(#clip430)" d="M1784.1 1377.32 L2285.42 1377.32 L2285.42 1221.8 L1784.1 1221.8  Z" fill="#ffffff" fill-rule="evenodd" fill-opacity="1"/>
<polyline clip-path="url(#clip430)" style="stroke:#000000; stroke-linecap:round; stroke-linejoin:round; stroke-width:4; stroke-opacity:1; fill:none" points="1784.1,1377.32 2285.42,1377.32 2285.42,1221.8 1784.1,1221.8 1784.1,1377.32 "/>
<polyline clip-path="url(#clip430)" style="stroke:#009af9; stroke-linecap:round; stroke-linejoin:round; stroke-width:4; stroke-opacity:1; fill:none" points="1806.55,1273.64 1941.22,1273.64 "/>
<path clip-path="url(#clip430)" d="M1963.67 1256.36 L1983.53 1256.36 L1983.53 1260.29 L1968.34 1260.29 L1968.34 1270.48 L1982.05 1270.48 L1982.05 1274.41 L1968.34 1274.41 L1968.34 1290.92 L1963.67 1290.92 L1963.67 1256.36 Z" fill="#000000" fill-rule="nonzero" fill-opacity="1" /><path clip-path="url(#clip430)" d="M1987.72 1280.68 L1987.72 1264.99 L1991.98 1264.99 L1991.98 1280.52 Q1991.98 1284.2 1993.41 1286.05 Q1994.85 1287.88 1997.72 1287.88 Q2001.17 1287.88 2003.16 1285.68 Q2005.17 1283.48 2005.17 1279.69 L2005.17 1264.99 L2009.43 1264.99 L2009.43 1290.92 L2005.17 1290.92 L2005.17 1286.93 Q2003.62 1289.29 2001.56 1290.45 Q1999.52 1291.59 1996.82 1291.59 Q1992.35 1291.59 1990.03 1288.81 Q1987.72 1286.03 1987.72 1280.68 M1998.44 1264.36 L1998.44 1264.36 Z" fill="#000000" fill-rule="nonzero" fill-opacity="1" /><path clip-path="url(#clip430)" d="M2018.2 1254.9 L2022.46 1254.9 L2022.46 1290.92 L2018.2 1290.92 L2018.2 1254.9 Z" fill="#000000" fill-rule="nonzero" fill-opacity="1" /><path clip-path="url(#clip430)" d="M2031.38 1254.9 L2035.64 1254.9 L2035.64 1290.92 L2031.38 1290.92 L2031.38 1254.9 Z" fill="#000000" fill-rule="nonzero" fill-opacity="1" /><path clip-path="url(#clip430)" d="M2064.48 1274.41 L2064.48 1287.07 L2071.98 1287.07 Q2075.75 1287.07 2077.56 1285.52 Q2079.39 1283.95 2079.39 1280.73 Q2079.39 1277.49 2077.56 1275.96 Q2075.75 1274.41 2071.98 1274.41 L2064.48 1274.41 M2064.48 1260.2 L2064.48 1270.61 L2071.4 1270.61 Q2074.82 1270.61 2076.49 1269.34 Q2078.18 1268.05 2078.18 1265.41 Q2078.18 1262.79 2076.49 1261.49 Q2074.82 1260.2 2071.4 1260.2 L2064.48 1260.2 M2059.8 1256.36 L2071.75 1256.36 Q2077.09 1256.36 2079.99 1258.58 Q2082.88 1260.8 2082.88 1264.9 Q2082.88 1268.07 2081.4 1269.94 Q2079.92 1271.82 2077.05 1272.28 Q2080.5 1273.02 2082.39 1275.38 Q2084.32 1277.72 2084.32 1281.24 Q2084.32 1285.87 2081.17 1288.39 Q2078.02 1290.92 2072.21 1290.92 L2059.8 1290.92 L2059.8 1256.36 Z" fill="#000000" fill-rule="nonzero" fill-opacity="1" /><path clip-path="url(#clip430)" d="M2103.92 1277.88 Q2098.76 1277.88 2096.77 1279.06 Q2094.78 1280.24 2094.78 1283.09 Q2094.78 1285.36 2096.26 1286.7 Q2097.76 1288.02 2100.33 1288.02 Q2103.88 1288.02 2106.01 1285.52 Q2108.16 1283 2108.16 1278.83 L2108.16 1277.88 L2103.92 1277.88 M2112.42 1276.12 L2112.42 1290.92 L2108.16 1290.92 L2108.16 1286.98 Q2106.7 1289.34 2104.52 1290.48 Q2102.35 1291.59 2099.2 1291.59 Q2095.22 1291.59 2092.86 1289.36 Q2090.52 1287.12 2090.52 1283.37 Q2090.52 1278.99 2093.44 1276.77 Q2096.38 1274.55 2102.19 1274.55 L2108.16 1274.55 L2108.16 1274.13 Q2108.16 1271.19 2106.21 1269.6 Q2104.29 1267.98 2100.8 1267.98 Q2098.57 1267.98 2096.47 1268.51 Q2094.36 1269.04 2092.42 1270.11 L2092.42 1266.17 Q2094.76 1265.27 2096.95 1264.83 Q2099.15 1264.36 2101.24 1264.36 Q2106.86 1264.36 2109.64 1267.28 Q2112.42 1270.2 2112.42 1276.12 Z" fill="#000000" fill-rule="nonzero" fill-opacity="1" /><path clip-path="url(#clip430)" d="M2125.4 1257.63 L2125.4 1264.99 L2134.18 1264.99 L2134.18 1268.3 L2125.4 1268.3 L2125.4 1282.37 Q2125.4 1285.54 2126.26 1286.45 Q2127.14 1287.35 2129.8 1287.35 L2134.18 1287.35 L2134.18 1290.92 L2129.8 1290.92 Q2124.87 1290.92 2123 1289.09 Q2121.12 1287.23 2121.12 1282.37 L2121.12 1268.3 L2118 1268.3 L2118 1264.99 L2121.12 1264.99 L2121.12 1257.63 L2125.4 1257.63 Z" fill="#000000" fill-rule="nonzero" fill-opacity="1" /><path clip-path="url(#clip430)" d="M2158.44 1265.98 L2158.44 1269.97 Q2156.63 1268.97 2154.8 1268.48 Q2153 1267.98 2151.14 1267.98 Q2147 1267.98 2144.71 1270.61 Q2142.42 1273.23 2142.42 1277.98 Q2142.42 1282.72 2144.71 1285.36 Q2147 1287.98 2151.14 1287.98 Q2153 1287.98 2154.8 1287.49 Q2156.63 1286.98 2158.44 1285.98 L2158.44 1289.92 Q2156.65 1290.75 2154.73 1291.17 Q2152.83 1291.59 2150.68 1291.59 Q2144.82 1291.59 2141.38 1287.91 Q2137.93 1284.23 2137.93 1277.98 Q2137.93 1271.63 2141.4 1268 Q2144.89 1264.36 2150.96 1264.36 Q2152.93 1264.36 2154.8 1264.78 Q2156.68 1265.17 2158.44 1265.98 Z" fill="#000000" fill-rule="nonzero" fill-opacity="1" /><path clip-path="url(#clip430)" d="M2187.39 1275.27 L2187.39 1290.92 L2183.13 1290.92 L2183.13 1275.41 Q2183.13 1271.73 2181.7 1269.9 Q2180.26 1268.07 2177.39 1268.07 Q2173.94 1268.07 2171.95 1270.27 Q2169.96 1272.47 2169.96 1276.26 L2169.96 1290.92 L2165.68 1290.92 L2165.68 1254.9 L2169.96 1254.9 L2169.96 1269.02 Q2171.49 1266.68 2173.55 1265.52 Q2175.63 1264.36 2178.34 1264.36 Q2182.81 1264.36 2185.1 1267.14 Q2187.39 1269.9 2187.39 1275.27 Z" fill="#000000" fill-rule="nonzero" fill-opacity="1" /><polyline clip-path="url(#clip430)" style="stroke:#e26f46; stroke-linecap:round; stroke-linejoin:round; stroke-width:4; stroke-opacity:1; fill:none" points="1806.55,1325.48 1941.22,1325.48 "/>
<path clip-path="url(#clip430)" d="M1985.91 1309.33 L1985.91 1313.89 Q1983.25 1312.62 1980.89 1311.99 Q1978.53 1311.37 1976.33 1311.37 Q1972.51 1311.37 1970.43 1312.85 Q1968.37 1314.33 1968.37 1317.06 Q1968.37 1319.35 1969.73 1320.53 Q1971.12 1321.69 1974.96 1322.41 L1977.79 1322.99 Q1983.02 1323.98 1985.5 1326.51 Q1988 1329.01 1988 1333.22 Q1988 1338.24 1984.62 1340.83 Q1981.26 1343.43 1974.76 1343.43 Q1972.3 1343.43 1969.52 1342.87 Q1966.77 1342.32 1963.81 1341.23 L1963.81 1336.41 Q1966.65 1338.01 1969.39 1338.82 Q1972.12 1339.63 1974.76 1339.63 Q1978.76 1339.63 1980.94 1338.06 Q1983.11 1336.48 1983.11 1333.57 Q1983.11 1331.02 1981.54 1329.58 Q1979.99 1328.15 1976.42 1327.43 L1973.58 1326.88 Q1968.34 1325.83 1966.01 1323.61 Q1963.67 1321.39 1963.67 1317.43 Q1963.67 1312.85 1966.89 1310.21 Q1970.13 1307.57 1975.8 1307.57 Q1978.23 1307.57 1980.75 1308.01 Q1983.27 1308.45 1985.91 1309.33 Z" fill="#000000" fill-rule="nonzero" fill-opacity="1" /><path clip-path="url(#clip430)" d="M1994.66 1332.52 L1994.66 1316.83 L1998.92 1316.83 L1998.92 1332.36 Q1998.92 1336.04 2000.36 1337.89 Q2001.79 1339.72 2004.66 1339.72 Q2008.11 1339.72 2010.1 1337.52 Q2012.12 1335.32 2012.12 1331.53 L2012.12 1316.83 L2016.38 1316.83 L2016.38 1342.76 L2012.12 1342.76 L2012.12 1338.77 Q2010.57 1341.13 2008.51 1342.29 Q2006.47 1343.43 2003.76 1343.43 Q1999.29 1343.43 1996.98 1340.65 Q1994.66 1337.87 1994.66 1332.52 M2005.38 1316.2 L2005.38 1316.2 Z" fill="#000000" fill-rule="nonzero" fill-opacity="1" /><path clip-path="url(#clip430)" d="M2043.76 1329.82 Q2043.76 1325.12 2041.82 1322.45 Q2039.89 1319.77 2036.51 1319.77 Q2033.14 1319.77 2031.19 1322.45 Q2029.27 1325.12 2029.27 1329.82 Q2029.27 1334.51 2031.19 1337.2 Q2033.14 1339.86 2036.51 1339.86 Q2039.89 1339.86 2041.82 1337.2 Q2043.76 1334.51 2043.76 1329.82 M2029.27 1320.76 Q2030.61 1318.45 2032.65 1317.34 Q2034.71 1316.2 2037.56 1316.2 Q2042.28 1316.2 2045.22 1319.95 Q2048.18 1323.7 2048.18 1329.82 Q2048.18 1335.93 2045.22 1339.68 Q2042.28 1343.43 2037.56 1343.43 Q2034.71 1343.43 2032.65 1342.32 Q2030.61 1341.18 2029.27 1338.87 L2029.27 1342.76 L2024.99 1342.76 L2024.99 1306.74 L2029.27 1306.74 L2029.27 1320.76 Z" fill="#000000" fill-rule="nonzero" fill-opacity="1" /><path clip-path="url(#clip430)" d="M2071.77 1317.59 L2071.77 1321.62 Q2069.96 1320.7 2068.02 1320.23 Q2066.08 1319.77 2063.99 1319.77 Q2060.82 1319.77 2059.22 1320.74 Q2057.65 1321.71 2057.65 1323.66 Q2057.65 1325.14 2058.78 1326 Q2059.92 1326.83 2063.34 1327.59 L2064.8 1327.92 Q2069.34 1328.89 2071.24 1330.67 Q2073.16 1332.43 2073.16 1335.6 Q2073.16 1339.21 2070.29 1341.32 Q2067.44 1343.43 2062.44 1343.43 Q2060.36 1343.43 2058.09 1343.01 Q2055.84 1342.62 2053.34 1341.81 L2053.34 1337.41 Q2055.7 1338.63 2058 1339.26 Q2060.29 1339.86 2062.53 1339.86 Q2065.54 1339.86 2067.16 1338.84 Q2068.78 1337.8 2068.78 1335.93 Q2068.78 1334.19 2067.6 1333.26 Q2066.45 1332.34 2062.49 1331.48 L2061.01 1331.14 Q2057.05 1330.3 2055.29 1328.59 Q2053.53 1326.85 2053.53 1323.84 Q2053.53 1320.19 2056.12 1318.2 Q2058.71 1316.2 2063.48 1316.2 Q2065.84 1316.2 2067.93 1316.55 Q2070.01 1316.9 2071.77 1317.59 Z" fill="#000000" fill-rule="nonzero" fill-opacity="1" /><path clip-path="url(#clip430)" d="M2091.72 1329.72 Q2086.56 1329.72 2084.57 1330.9 Q2082.58 1332.08 2082.58 1334.93 Q2082.58 1337.2 2084.06 1338.54 Q2085.57 1339.86 2088.14 1339.86 Q2091.68 1339.86 2093.81 1337.36 Q2095.96 1334.84 2095.96 1330.67 L2095.96 1329.72 L2091.72 1329.72 M2100.22 1327.96 L2100.22 1342.76 L2095.96 1342.76 L2095.96 1338.82 Q2094.5 1341.18 2092.32 1342.32 Q2090.15 1343.43 2087 1343.43 Q2083.02 1343.43 2080.66 1341.2 Q2078.32 1338.96 2078.32 1335.21 Q2078.32 1330.83 2081.24 1328.61 Q2084.18 1326.39 2089.99 1326.39 L2095.96 1326.39 L2095.96 1325.97 Q2095.96 1323.03 2094.01 1321.44 Q2092.09 1319.82 2088.6 1319.82 Q2086.38 1319.82 2084.27 1320.35 Q2082.16 1320.88 2080.22 1321.95 L2080.22 1318.01 Q2082.56 1317.11 2084.76 1316.67 Q2086.95 1316.2 2089.04 1316.2 Q2094.66 1316.2 2097.44 1319.12 Q2100.22 1322.04 2100.22 1327.96 Z" fill="#000000" fill-rule="nonzero" fill-opacity="1" /><path clip-path="url(#clip430)" d="M2129.18 1321.81 Q2130.77 1318.94 2133 1317.57 Q2135.22 1316.2 2138.23 1316.2 Q2142.28 1316.2 2144.48 1319.05 Q2146.68 1321.88 2146.68 1327.11 L2146.68 1342.76 L2142.39 1342.76 L2142.39 1327.25 Q2142.39 1323.52 2141.07 1321.71 Q2139.76 1319.91 2137.05 1319.91 Q2133.74 1319.91 2131.82 1322.11 Q2129.89 1324.31 2129.89 1328.1 L2129.89 1342.76 L2125.61 1342.76 L2125.61 1327.25 Q2125.61 1323.5 2124.29 1321.71 Q2122.97 1319.91 2120.22 1319.91 Q2116.95 1319.91 2115.03 1322.13 Q2113.11 1324.33 2113.11 1328.1 L2113.11 1342.76 L2108.83 1342.76 L2108.83 1316.83 L2113.11 1316.83 L2113.11 1320.86 Q2114.57 1318.47 2116.61 1317.34 Q2118.64 1316.2 2121.45 1316.2 Q2124.27 1316.2 2126.24 1317.64 Q2128.23 1319.07 2129.18 1321.81 Z" fill="#000000" fill-rule="nonzero" fill-opacity="1" /><path clip-path="url(#clip430)" d="M2159.29 1338.87 L2159.29 1352.62 L2155.01 1352.62 L2155.01 1316.83 L2159.29 1316.83 L2159.29 1320.76 Q2160.63 1318.45 2162.67 1317.34 Q2164.73 1316.2 2167.58 1316.2 Q2172.3 1316.2 2175.24 1319.95 Q2178.2 1323.7 2178.2 1329.82 Q2178.2 1335.93 2175.24 1339.68 Q2172.3 1343.43 2167.58 1343.43 Q2164.73 1343.43 2162.67 1342.32 Q2160.63 1341.18 2159.29 1338.87 M2173.78 1329.82 Q2173.78 1325.12 2171.84 1322.45 Q2169.92 1319.77 2166.54 1319.77 Q2163.16 1319.77 2161.21 1322.45 Q2159.29 1325.12 2159.29 1329.82 Q2159.29 1334.51 2161.21 1337.2 Q2163.16 1339.86 2166.54 1339.86 Q2169.92 1339.86 2171.84 1337.2 Q2173.78 1334.51 2173.78 1329.82 Z" fill="#000000" fill-rule="nonzero" fill-opacity="1" /><path clip-path="url(#clip430)" d="M2185.26 1306.74 L2189.52 1306.74 L2189.52 1342.76 L2185.26 1342.76 L2185.26 1306.74 Z" fill="#000000" fill-rule="nonzero" fill-opacity="1" /><path clip-path="url(#clip430)" d="M2198.44 1316.83 L2202.69 1316.83 L2202.69 1342.76 L2198.44 1342.76 L2198.44 1316.83 M2198.44 1306.74 L2202.69 1306.74 L2202.69 1312.13 L2198.44 1312.13 L2198.44 1306.74 Z" fill="#000000" fill-rule="nonzero" fill-opacity="1" /><path clip-path="url(#clip430)" d="M2233.16 1327.11 L2233.16 1342.76 L2228.9 1342.76 L2228.9 1327.25 Q2228.9 1323.57 2227.46 1321.74 Q2226.03 1319.91 2223.16 1319.91 Q2219.71 1319.91 2217.72 1322.11 Q2215.73 1324.31 2215.73 1328.1 L2215.73 1342.76 L2211.44 1342.76 L2211.44 1316.83 L2215.73 1316.83 L2215.73 1320.86 Q2217.25 1318.52 2219.31 1317.36 Q2221.4 1316.2 2224.11 1316.2 Q2228.57 1316.2 2230.87 1318.98 Q2233.16 1321.74 2233.16 1327.11 Z" fill="#000000" fill-rule="nonzero" fill-opacity="1" /><path clip-path="url(#clip430)" d="M2258.71 1329.49 Q2258.71 1324.86 2256.79 1322.32 Q2254.89 1319.77 2251.44 1319.77 Q2248.02 1319.77 2246.1 1322.32 Q2244.2 1324.86 2244.2 1329.49 Q2244.2 1334.1 2246.1 1336.64 Q2248.02 1339.19 2251.44 1339.19 Q2254.89 1339.19 2256.79 1336.64 Q2258.71 1334.1 2258.71 1329.49 M2262.97 1339.54 Q2262.97 1346.16 2260.03 1349.38 Q2257.09 1352.62 2251.03 1352.62 Q2248.78 1352.62 2246.79 1352.27 Q2244.8 1351.95 2242.93 1351.25 L2242.93 1347.11 Q2244.8 1348.13 2246.63 1348.61 Q2248.46 1349.1 2250.36 1349.1 Q2254.55 1349.1 2256.63 1346.9 Q2258.71 1344.72 2258.71 1340.3 L2258.71 1338.2 Q2257.39 1340.49 2255.33 1341.62 Q2253.27 1342.76 2250.4 1342.76 Q2245.63 1342.76 2242.72 1339.12 Q2239.8 1335.49 2239.8 1329.49 Q2239.8 1323.47 2242.72 1319.84 Q2245.63 1316.2 2250.4 1316.2 Q2253.27 1316.2 2255.33 1317.34 Q2257.39 1318.47 2258.71 1320.76 L2258.71 1316.83 L2262.97 1316.83 L2262.97 1339.54 Z" fill="#000000" fill-rule="nonzero" fill-opacity="1" /></svg>
