<?xml version="1.0" encoding="utf-8"?>
<svg xmlns="http://www.w3.org/2000/svg" xmlns:xlink="http://www.w3.org/1999/xlink" width="600" height="400" viewBox="0 0 2400 1600">
<defs>
  <clipPath id="clip260">
    <rect x="0" y="0" width="2400" height="1600"/>
  </clipPath>
</defs>
<path clip-path="url(#clip260)" d="M0 1600 L2400 1600 L2400 0 L0 0  Z" fill="#ffffff" fill-rule="evenodd" fill-opacity="1"/>
<defs>
  <clipPath id="clip261">
    <rect x="251" y="47" width="2102" height="1377"/>
  </clipPath>
</defs>
<path clip-path="url(#clip260)" d="M242.135 1423.18 L2352.76 1423.18 L2352.76 47.2441 L242.135 47.2441  Z" fill="#ffffff" fill-rule="evenodd" fill-opacity="1"/>
<defs>
  <clipPath id="clip262">
    <rect x="242" y="47" width="2112" height="1377"/>
  </clipPath>
</defs>
<polyline clip-path="url(#clip262)" style="stroke:#000000; stroke-linecap:round; stroke-linejoin:round; stroke-width:2; stroke-opacity:0.1; fill:none" points="299.876,1423.18 299.876,47.2441 "/>
<polyline clip-path="url(#clip262)" style="stroke:#000000; stroke-linecap:round; stroke-linejoin:round; stroke-width:2; stroke-opacity:0.1; fill:none" points="798.162,1423.18 798.162,47.2441 "/>
<polyline clip-path="url(#clip262)" style="stroke:#000000; stroke-linecap:round; stroke-linejoin:round; stroke-width:2; stroke-opacity:0.1; fill:none" points="1296.45,1423.18 1296.45,47.2441 "/>
<polyline clip-path="url(#clip262)" style="stroke:#000000; stroke-linecap:round; stroke-linejoin:round; stroke-width:2; stroke-opacity:0.1; fill:none" points="1794.74,1423.18 1794.74,47.2441 "/>
<polyline clip-path="url(#clip262)" style="stroke:#000000; stroke-linecap:round; stroke-linejoin:round; stroke-width:2; stroke-opacity:0.1; fill:none" points="2293.02,1423.18 2293.02,47.2441 "/>
<polyline clip-path="url(#clip262)" style="stroke:#000000; stroke-linecap:round; stroke-linejoin:round; stroke-width:2; stroke-opacity:0.1; fill:none" points="242.135,1244.98 2352.76,1244.98 "/>
<polyline clip-path="url(#clip262)" style="stroke:#000000; stroke-linecap:round; stroke-linejoin:round; stroke-width:2; stroke-opacity:0.1; fill:none" points="242.135,907.242 2352.76,907.242 "/>
<polyline clip-path="url(#clip262)" style="stroke:#000000; stroke-linecap:round; stroke-linejoin:round; stroke-width:2; stroke-opacity:0.1; fill:none" points="242.135,569.503 2352.76,569.503 "/>
<polyline clip-path="url(#clip262)" style="stroke:#000000; stroke-linecap:round; stroke-linejoin:round; stroke-width:2; stroke-opacity:0.1; fill:none" points="242.135,231.763 2352.76,231.763 "/>
<polyline clip-path="url(#clip260)" style="stroke:#000000; stroke-linecap:round; stroke-linejoin:round; stroke-width:4; stroke-opacity:1; fill:none" points="242.135,1423.18 2352.76,1423.18 "/>
<polyline clip-path="url(#clip260)" style="stroke:#000000; stroke-linecap:round; stroke-linejoin:round; stroke-width:4; stroke-opacity:1; fill:none" points="299.876,1423.18 299.876,1404.28 "/>
<polyline clip-path="url(#clip260)" style="stroke:#000000; stroke-linecap:round; stroke-linejoin:round; stroke-width:4; stroke-opacity:1; fill:none" points="798.162,1423.18 798.162,1404.28 "/>
<polyline clip-path="url(#clip260)" style="stroke:#000000; stroke-linecap:round; stroke-linejoin:round; stroke-width:4; stroke-opacity:1; fill:none" points="1296.45,1423.18 1296.45,1404.28 "/>
<polyline clip-path="url(#clip260)" style="stroke:#000000; stroke-linecap:round; stroke-linejoin:round; stroke-width:4; stroke-opacity:1; fill:none" points="1794.74,1423.18 1794.74,1404.28 "/>
<polyline clip-path="url(#clip260)" style="stroke:#000000; stroke-linecap:round; stroke-linejoin:round; stroke-width:4; stroke-opacity:1; fill:none" points="2293.02,1423.18 2293.02,1404.28 "/>
<path clip-path="url(#clip260)" d="M299.876 1454.1 Q296.265 1454.1 294.436 1457.66 Q292.631 1461.2 292.631 1468.33 Q292.631 1475.44 294.436 1479.01 Q296.265 1482.55 299.876 1482.55 Q303.51 1482.55 305.316 1479.01 Q307.145 1475.44 307.145 1468.33 Q307.145 1461.2 305.316 1457.66 Q303.51 1454.1 299.876 1454.1 M299.876 1450.39 Q305.686 1450.39 308.742 1455 Q311.82 1459.58 311.82 1468.33 Q311.82 1477.06 308.742 1481.67 Q305.686 1486.25 299.876 1486.25 Q294.066 1486.25 290.987 1481.67 Q287.932 1477.06 287.932 1468.33 Q287.932 1459.58 290.987 1455 Q294.066 1450.39 299.876 1450.39 Z" fill="#000000" fill-rule="nonzero" fill-opacity="1" /><path clip-path="url(#clip260)" d="M761.855 1481.64 L778.174 1481.64 L778.174 1485.58 L756.23 1485.58 L756.23 1481.64 Q758.892 1478.89 763.475 1474.26 Q768.082 1469.61 769.262 1468.27 Q771.507 1465.74 772.387 1464.01 Q773.29 1462.25 773.29 1460.56 Q773.29 1457.8 771.345 1456.07 Q769.424 1454.33 766.322 1454.33 Q764.123 1454.33 761.67 1455.09 Q759.239 1455.86 756.461 1457.41 L756.461 1452.69 Q759.285 1451.55 761.739 1450.97 Q764.193 1450.39 766.23 1450.39 Q771.6 1450.39 774.794 1453.08 Q777.989 1455.77 777.989 1460.26 Q777.989 1462.39 777.179 1464.31 Q776.392 1466.2 774.285 1468.8 Q773.707 1469.47 770.605 1472.69 Q767.503 1475.88 761.855 1481.64 Z" fill="#000000" fill-rule="nonzero" fill-opacity="1" /><path clip-path="url(#clip260)" d="M788.035 1451.02 L806.392 1451.02 L806.392 1454.96 L792.318 1454.96 L792.318 1463.43 Q793.336 1463.08 794.355 1462.92 Q795.373 1462.73 796.392 1462.73 Q802.179 1462.73 805.558 1465.9 Q808.938 1469.08 808.938 1474.49 Q808.938 1480.07 805.466 1483.17 Q801.993 1486.25 795.674 1486.25 Q793.498 1486.25 791.23 1485.88 Q788.984 1485.51 786.577 1484.77 L786.577 1480.07 Q788.66 1481.2 790.882 1481.76 Q793.105 1482.32 795.581 1482.32 Q799.586 1482.32 801.924 1480.21 Q804.262 1478.1 804.262 1474.49 Q804.262 1470.88 801.924 1468.77 Q799.586 1466.67 795.581 1466.67 Q793.706 1466.67 791.831 1467.08 Q789.98 1467.5 788.035 1468.38 L788.035 1451.02 Z" fill="#000000" fill-rule="nonzero" fill-opacity="1" /><path clip-path="url(#clip260)" d="M828.151 1454.1 Q824.54 1454.1 822.711 1457.66 Q820.905 1461.2 820.905 1468.33 Q820.905 1475.44 822.711 1479.01 Q824.54 1482.55 828.151 1482.55 Q831.785 1482.55 833.59 1479.01 Q835.419 1475.44 835.419 1468.33 Q835.419 1461.2 833.59 1457.66 Q831.785 1454.1 828.151 1454.1 M828.151 1450.39 Q833.961 1450.39 837.016 1455 Q840.095 1459.58 840.095 1468.33 Q840.095 1477.06 837.016 1481.67 Q833.961 1486.25 828.151 1486.25 Q822.341 1486.25 819.262 1481.67 Q816.206 1477.06 816.206 1468.33 Q816.206 1459.58 819.262 1455 Q822.341 1450.39 828.151 1450.39 Z" fill="#000000" fill-rule="nonzero" fill-opacity="1" /><path clip-path="url(#clip260)" d="M1256.07 1451.02 L1274.42 1451.02 L1274.42 1454.96 L1260.35 1454.96 L1260.35 1463.43 Q1261.37 1463.08 1262.39 1462.92 Q1263.4 1462.73 1264.42 1462.73 Q1270.21 1462.73 1273.59 1465.9 Q1276.97 1469.08 1276.97 1474.49 Q1276.97 1480.07 1273.5 1483.17 Q1270.03 1486.25 1263.71 1486.25 Q1261.53 1486.25 1259.26 1485.88 Q1257.02 1485.51 1254.61 1484.77 L1254.61 1480.07 Q1256.69 1481.2 1258.91 1481.76 Q1261.14 1482.32 1263.61 1482.32 Q1267.62 1482.32 1269.96 1480.21 Q1272.29 1478.1 1272.29 1474.49 Q1272.29 1470.88 1269.96 1468.77 Q1267.62 1466.67 1263.61 1466.67 Q1261.74 1466.67 1259.86 1467.08 Q1258.01 1467.5 1256.07 1468.38 L1256.07 1451.02 Z" fill="#000000" fill-rule="nonzero" fill-opacity="1" /><path clip-path="url(#clip260)" d="M1296.18 1454.1 Q1292.57 1454.1 1290.74 1457.66 Q1288.94 1461.2 1288.94 1468.33 Q1288.94 1475.44 1290.74 1479.01 Q1292.57 1482.55 1296.18 1482.55 Q1299.82 1482.55 1301.62 1479.01 Q1303.45 1475.44 1303.45 1468.33 Q1303.45 1461.2 1301.62 1457.66 Q1299.82 1454.1 1296.18 1454.1 M1296.18 1450.39 Q1301.99 1450.39 1305.05 1455 Q1308.13 1459.58 1308.13 1468.33 Q1308.13 1477.06 1305.05 1481.67 Q1301.99 1486.25 1296.18 1486.25 Q1290.37 1486.25 1287.29 1481.67 Q1284.24 1477.06 1284.24 1468.33 Q1284.24 1459.58 1287.29 1455 Q1290.37 1450.39 1296.18 1450.39 Z" fill="#000000" fill-rule="nonzero" fill-opacity="1" /><path clip-path="url(#clip260)" d="M1326.34 1454.1 Q1322.73 1454.1 1320.9 1457.66 Q1319.1 1461.2 1319.1 1468.33 Q1319.1 1475.44 1320.9 1479.01 Q1322.73 1482.55 1326.34 1482.55 Q1329.98 1482.55 1331.78 1479.01 Q1333.61 1475.44 1333.61 1468.33 Q1333.61 1461.2 1331.78 1457.66 Q1329.98 1454.1 1326.34 1454.1 M1326.34 1450.39 Q1332.15 1450.39 1335.21 1455 Q1338.29 1459.58 1338.29 1468.33 Q1338.29 1477.06 1335.21 1481.67 Q1332.15 1486.25 1326.34 1486.25 Q1320.53 1486.25 1317.46 1481.67 Q1314.4 1477.06 1314.4 1468.33 Q1314.4 1459.58 1317.46 1455 Q1320.53 1450.39 1326.34 1450.39 Z" fill="#000000" fill-rule="nonzero" fill-opacity="1" /><path clip-path="url(#clip260)" d="M1753.01 1451.02 L1775.23 1451.02 L1775.23 1453.01 L1762.69 1485.58 L1757.8 1485.58 L1769.61 1454.96 L1753.01 1454.96 L1753.01 1451.02 Z" fill="#000000" fill-rule="nonzero" fill-opacity="1" /><path clip-path="url(#clip260)" d="M1784.4 1451.02 L1802.76 1451.02 L1802.76 1454.96 L1788.68 1454.96 L1788.68 1463.43 Q1789.7 1463.08 1790.72 1462.92 Q1791.74 1462.73 1792.76 1462.73 Q1798.54 1462.73 1801.92 1465.9 Q1805.3 1469.08 1805.3 1474.49 Q1805.3 1480.07 1801.83 1483.17 Q1798.36 1486.25 1792.04 1486.25 Q1789.86 1486.25 1787.59 1485.88 Q1785.35 1485.51 1782.94 1484.77 L1782.94 1480.07 Q1785.02 1481.2 1787.25 1481.76 Q1789.47 1482.32 1791.95 1482.32 Q1795.95 1482.32 1798.29 1480.21 Q1800.63 1478.1 1800.63 1474.49 Q1800.63 1470.88 1798.29 1468.77 Q1795.95 1466.67 1791.95 1466.67 Q1790.07 1466.67 1788.2 1467.08 Q1786.34 1467.5 1784.4 1468.38 L1784.4 1451.02 Z" fill="#000000" fill-rule="nonzero" fill-opacity="1" /><path clip-path="url(#clip260)" d="M1824.51 1454.1 Q1820.9 1454.1 1819.08 1457.66 Q1817.27 1461.2 1817.27 1468.33 Q1817.27 1475.44 1819.08 1479.01 Q1820.9 1482.55 1824.51 1482.55 Q1828.15 1482.55 1829.95 1479.01 Q1831.78 1475.44 1831.78 1468.33 Q1831.78 1461.2 1829.95 1457.66 Q1828.15 1454.1 1824.51 1454.1 M1824.51 1450.39 Q1830.33 1450.39 1833.38 1455 Q1836.46 1459.58 1836.46 1468.33 Q1836.46 1477.06 1833.38 1481.67 Q1830.33 1486.25 1824.51 1486.25 Q1818.7 1486.25 1815.63 1481.67 Q1812.57 1477.06 1812.57 1468.33 Q1812.57 1459.58 1815.63 1455 Q1818.7 1450.39 1824.51 1450.39 Z" fill="#000000" fill-rule="nonzero" fill-opacity="1" /><path clip-path="url(#clip260)" d="M2237.55 1481.64 L2245.19 1481.64 L2245.19 1455.28 L2236.88 1456.95 L2236.88 1452.69 L2245.14 1451.02 L2249.82 1451.02 L2249.82 1481.64 L2257.45 1481.64 L2257.45 1485.58 L2237.55 1485.58 L2237.55 1481.64 Z" fill="#000000" fill-rule="nonzero" fill-opacity="1" /><path clip-path="url(#clip260)" d="M2276.9 1454.1 Q2273.29 1454.1 2271.46 1457.66 Q2269.65 1461.2 2269.65 1468.33 Q2269.65 1475.44 2271.46 1479.01 Q2273.29 1482.55 2276.9 1482.55 Q2280.53 1482.55 2282.34 1479.01 Q2284.17 1475.44 2284.17 1468.33 Q2284.17 1461.2 2282.34 1457.66 Q2280.53 1454.1 2276.9 1454.1 M2276.9 1450.39 Q2282.71 1450.39 2285.76 1455 Q2288.84 1459.58 2288.84 1468.33 Q2288.84 1477.06 2285.76 1481.67 Q2282.71 1486.25 2276.9 1486.25 Q2271.09 1486.25 2268.01 1481.67 Q2264.95 1477.06 2264.95 1468.33 Q2264.95 1459.58 2268.01 1455 Q2271.09 1450.39 2276.9 1450.39 Z" fill="#000000" fill-rule="nonzero" fill-opacity="1" /><path clip-path="url(#clip260)" d="M2307.06 1454.1 Q2303.45 1454.1 2301.62 1457.66 Q2299.82 1461.2 2299.82 1468.33 Q2299.82 1475.44 2301.62 1479.01 Q2303.45 1482.55 2307.06 1482.55 Q2310.69 1482.55 2312.5 1479.01 Q2314.33 1475.44 2314.33 1468.33 Q2314.33 1461.2 2312.5 1457.66 Q2310.69 1454.1 2307.06 1454.1 M2307.06 1450.39 Q2312.87 1450.39 2315.93 1455 Q2319 1459.58 2319 1468.33 Q2319 1477.06 2315.93 1481.67 Q2312.87 1486.25 2307.06 1486.25 Q2301.25 1486.25 2298.17 1481.67 Q2295.12 1477.06 2295.12 1468.33 Q2295.12 1459.58 2298.17 1455 Q2301.25 1450.39 2307.06 1450.39 Z" fill="#000000" fill-rule="nonzero" fill-opacity="1" /><path clip-path="url(#clip260)" d="M2337.22 1454.1 Q2333.61 1454.1 2331.78 1457.66 Q2329.98 1461.2 2329.98 1468.33 Q2329.98 1475.44 2331.78 1479.01 Q2333.61 1482.55 2337.22 1482.55 Q2340.86 1482.55 2342.66 1479.01 Q2344.49 1475.44 2344.49 1468.33 Q2344.49 1461.2 2342.66 1457.66 Q2340.86 1454.1 2337.22 1454.1 M2337.22 1450.39 Q2343.03 1450.39 2346.09 1455 Q2349.17 1459.58 2349.17 1468.33 Q2349.17 1477.06 2346.09 1481.67 Q2343.03 1486.25 2337.22 1486.25 Q2331.41 1486.25 2328.33 1481.67 Q2325.28 1477.06 2325.28 1468.33 Q2325.28 1459.58 2328.33 1455 Q2331.41 1450.39 2337.22 1450.39 Z" fill="#000000" fill-rule="nonzero" fill-opacity="1" /><path clip-path="url(#clip260)" d="M1165.17 1520.52 L1171.6 1520.52 L1171.6 1568.04 L1165.17 1568.04 L1165.17 1520.52 Z" fill="#000000" fill-rule="nonzero" fill-opacity="1" /><path clip-path="url(#clip260)" d="M1189.93 1522.27 L1189.93 1532.4 L1201.99 1532.4 L1201.99 1536.95 L1189.93 1536.95 L1189.93 1556.3 Q1189.93 1560.66 1191.11 1561.9 Q1192.32 1563.14 1195.98 1563.14 L1201.99 1563.14 L1201.99 1568.04 L1195.98 1568.04 Q1189.2 1568.04 1186.62 1565.53 Q1184.04 1562.98 1184.04 1556.3 L1184.04 1536.95 L1179.74 1536.95 L1179.74 1532.4 L1184.04 1532.4 L1184.04 1522.27 L1189.93 1522.27 Z" fill="#000000" fill-rule="nonzero" fill-opacity="1" /><path clip-path="url(#clip260)" d="M1240.19 1548.76 L1240.19 1551.62 L1213.26 1551.62 Q1213.64 1557.67 1216.89 1560.85 Q1220.17 1564 1225.99 1564 Q1229.36 1564 1232.52 1563.17 Q1235.7 1562.35 1238.82 1560.69 L1238.82 1566.23 Q1235.67 1567.57 1232.36 1568.27 Q1229.05 1568.97 1225.64 1568.97 Q1217.11 1568.97 1212.11 1564 Q1207.15 1559.04 1207.15 1550.57 Q1207.15 1541.82 1211.86 1536.69 Q1216.6 1531.54 1224.62 1531.54 Q1231.81 1531.54 1235.98 1536.18 Q1240.19 1540.8 1240.19 1548.76 M1234.33 1547.04 Q1234.27 1542.23 1231.62 1539.37 Q1229.01 1536.5 1224.69 1536.5 Q1219.78 1536.5 1216.82 1539.27 Q1213.9 1542.04 1213.45 1547.07 L1234.33 1547.04 Z" fill="#000000" fill-rule="nonzero" fill-opacity="1" /><path clip-path="url(#clip260)" d="M1270.45 1537.87 Q1269.47 1537.3 1268.29 1537.04 Q1267.14 1536.76 1265.74 1536.76 Q1260.78 1536.76 1258.11 1540 Q1255.46 1543.22 1255.46 1549.27 L1255.46 1568.04 L1249.58 1568.04 L1249.58 1532.4 L1255.46 1532.4 L1255.46 1537.93 Q1257.31 1534.69 1260.27 1533.13 Q1263.23 1531.54 1267.46 1531.54 Q1268.07 1531.54 1268.8 1531.63 Q1269.53 1531.7 1270.42 1531.85 L1270.45 1537.87 Z" fill="#000000" fill-rule="nonzero" fill-opacity="1" /><path clip-path="url(#clip260)" d="M1292.8 1550.12 Q1285.7 1550.12 1282.96 1551.75 Q1280.23 1553.37 1280.23 1557.29 Q1280.23 1560.4 1282.26 1562.25 Q1284.33 1564.07 1287.86 1564.07 Q1292.73 1564.07 1295.66 1560.63 Q1298.62 1557.16 1298.62 1551.43 L1298.62 1550.12 L1292.8 1550.12 M1304.48 1547.71 L1304.48 1568.04 L1298.62 1568.04 L1298.62 1562.63 Q1296.62 1565.88 1293.63 1567.44 Q1290.63 1568.97 1286.31 1568.97 Q1280.83 1568.97 1277.58 1565.91 Q1274.37 1562.82 1274.37 1557.67 Q1274.37 1551.65 1278.38 1548.6 Q1282.42 1545.54 1290.41 1545.54 L1298.62 1545.54 L1298.62 1544.97 Q1298.62 1540.93 1295.95 1538.73 Q1293.31 1536.5 1288.5 1536.5 Q1285.45 1536.5 1282.55 1537.23 Q1279.65 1537.97 1276.98 1539.43 L1276.98 1534.02 Q1280.19 1532.78 1283.22 1532.17 Q1286.24 1531.54 1289.11 1531.54 Q1296.84 1531.54 1300.66 1535.55 Q1304.48 1539.56 1304.48 1547.71 Z" fill="#000000" fill-rule="nonzero" fill-opacity="1" /><path clip-path="url(#clip260)" d="M1322.34 1522.27 L1322.34 1532.4 L1334.4 1532.4 L1334.4 1536.95 L1322.34 1536.95 L1322.34 1556.3 Q1322.34 1560.66 1323.51 1561.9 Q1324.72 1563.14 1328.38 1563.14 L1334.4 1563.14 L1334.4 1568.04 L1328.38 1568.04 Q1321.6 1568.04 1319.03 1565.53 Q1316.45 1562.98 1316.45 1556.3 L1316.45 1536.95 L1312.15 1536.95 L1312.15 1532.4 L1316.45 1532.4 L1316.45 1522.27 L1322.34 1522.27 Z" fill="#000000" fill-rule="nonzero" fill-opacity="1" /><path clip-path="url(#clip260)" d="M1342.1 1532.4 L1347.96 1532.4 L1347.96 1568.04 L1342.1 1568.04 L1342.1 1532.4 M1342.1 1518.52 L1347.96 1518.52 L1347.96 1525.93 L1342.1 1525.93 L1342.1 1518.52 Z" fill="#000000" fill-rule="nonzero" fill-opacity="1" /><path clip-path="url(#clip260)" d="M1374.02 1536.5 Q1369.31 1536.5 1366.58 1540.19 Q1363.84 1543.85 1363.84 1550.25 Q1363.84 1556.65 1366.55 1560.34 Q1369.28 1564 1374.02 1564 Q1378.7 1564 1381.44 1560.31 Q1384.18 1556.62 1384.18 1550.25 Q1384.18 1543.92 1381.44 1540.23 Q1378.7 1536.5 1374.02 1536.5 M1374.02 1531.54 Q1381.66 1531.54 1386.02 1536.5 Q1390.38 1541.47 1390.38 1550.25 Q1390.38 1559 1386.02 1564 Q1381.66 1568.97 1374.02 1568.97 Q1366.35 1568.97 1361.99 1564 Q1357.66 1559 1357.66 1550.25 Q1357.66 1541.47 1361.99 1536.5 Q1366.35 1531.54 1374.02 1531.54 Z" fill="#000000" fill-rule="nonzero" fill-opacity="1" /><path clip-path="url(#clip260)" d="M1429.72 1546.53 L1429.72 1568.04 L1423.87 1568.04 L1423.87 1546.72 Q1423.87 1541.66 1421.89 1539.14 Q1419.92 1536.63 1415.97 1536.63 Q1411.23 1536.63 1408.5 1539.65 Q1405.76 1542.68 1405.76 1547.9 L1405.76 1568.04 L1399.87 1568.04 L1399.87 1532.4 L1405.76 1532.4 L1405.76 1537.93 Q1407.86 1534.72 1410.69 1533.13 Q1413.56 1531.54 1417.28 1531.54 Q1423.42 1531.54 1426.57 1535.36 Q1429.72 1539.14 1429.72 1546.53 Z" fill="#000000" fill-rule="nonzero" fill-opacity="1" /><polyline clip-path="url(#clip260)" style="stroke:#000000; stroke-linecap:round; stroke-linejoin:round; stroke-width:4; stroke-opacity:1; fill:none" points="242.135,1423.18 242.135,47.2441 "/>
<polyline clip-path="url(#clip260)" style="stroke:#000000; stroke-linecap:round; stroke-linejoin:round; stroke-width:4; stroke-opacity:1; fill:none" points="242.135,1244.98 261.032,1244.98 "/>
<polyline clip-path="url(#clip260)" style="stroke:#000000; stroke-linecap:round; stroke-linejoin:round; stroke-width:4; stroke-opacity:1; fill:none" points="242.135,907.242 261.032,907.242 "/>
<polyline clip-path="url(#clip260)" style="stroke:#000000; stroke-linecap:round; stroke-linejoin:round; stroke-width:4; stroke-opacity:1; fill:none" points="242.135,569.503 261.032,569.503 "/>
<polyline clip-path="url(#clip260)" style="stroke:#000000; stroke-linecap:round; stroke-linejoin:round; stroke-width:4; stroke-opacity:1; fill:none" points="242.135,231.763 261.032,231.763 "/>
<path clip-path="url(#clip260)" d="M114.26 1245.43 L143.936 1245.43 L143.936 1249.37 L114.26 1249.37 L114.26 1245.43 Z" fill="#000000" fill-rule="nonzero" fill-opacity="1" /><path clip-path="url(#clip260)" d="M168.195 1243.63 Q171.552 1244.35 173.427 1246.61 Q175.325 1248.88 175.325 1252.22 Q175.325 1257.33 171.806 1260.13 Q168.288 1262.93 161.806 1262.93 Q159.63 1262.93 157.315 1262.49 Q155.024 1262.08 152.57 1261.22 L152.57 1256.71 Q154.515 1257.84 156.829 1258.42 Q159.144 1259 161.667 1259 Q166.065 1259 168.357 1257.26 Q170.672 1255.53 170.672 1252.22 Q170.672 1249.16 168.519 1247.45 Q166.39 1245.71 162.57 1245.71 L158.542 1245.71 L158.542 1241.87 L162.755 1241.87 Q166.204 1241.87 168.033 1240.5 Q169.862 1239.11 169.862 1236.52 Q169.862 1233.86 167.964 1232.45 Q166.089 1231.01 162.57 1231.01 Q160.649 1231.01 158.45 1231.43 Q156.251 1231.85 153.612 1232.73 L153.612 1228.56 Q156.274 1227.82 158.589 1227.45 Q160.927 1227.08 162.987 1227.08 Q168.311 1227.08 171.413 1229.51 Q174.514 1231.92 174.514 1236.04 Q174.514 1238.91 172.871 1240.9 Q171.227 1242.86 168.195 1243.63 Z" fill="#000000" fill-rule="nonzero" fill-opacity="1" /><path clip-path="url(#clip260)" d="M194.19 1230.78 Q190.579 1230.78 188.75 1234.35 Q186.945 1237.89 186.945 1245.02 Q186.945 1252.12 188.75 1255.69 Q190.579 1259.23 194.19 1259.23 Q197.825 1259.23 199.63 1255.69 Q201.459 1252.12 201.459 1245.02 Q201.459 1237.89 199.63 1234.35 Q197.825 1230.78 194.19 1230.78 M194.19 1227.08 Q200 1227.08 203.056 1231.68 Q206.135 1236.27 206.135 1245.02 Q206.135 1253.74 203.056 1258.35 Q200 1262.93 194.19 1262.93 Q188.38 1262.93 185.301 1258.35 Q182.246 1253.74 182.246 1245.02 Q182.246 1236.27 185.301 1231.68 Q188.38 1227.08 194.19 1227.08 Z" fill="#000000" fill-rule="nonzero" fill-opacity="1" /><path clip-path="url(#clip260)" d="M114.26 907.694 L143.936 907.694 L143.936 911.629 L114.26 911.629 L114.26 907.694 Z" fill="#000000" fill-rule="nonzero" fill-opacity="1" /><path clip-path="url(#clip260)" d="M158.056 920.587 L174.376 920.587 L174.376 924.522 L152.431 924.522 L152.431 920.587 Q155.093 917.833 159.677 913.203 Q164.283 908.55 165.464 907.208 Q167.709 904.685 168.589 902.948 Q169.491 901.189 169.491 899.499 Q169.491 896.745 167.547 895.009 Q165.626 893.273 162.524 893.273 Q160.325 893.273 157.871 894.036 Q155.44 894.8 152.663 896.351 L152.663 891.629 Q155.487 890.495 157.94 889.916 Q160.394 889.337 162.431 889.337 Q167.802 889.337 170.996 892.023 Q174.19 894.708 174.19 899.198 Q174.19 901.328 173.38 903.249 Q172.593 905.148 170.487 907.74 Q169.908 908.411 166.806 911.629 Q163.704 914.823 158.056 920.587 Z" fill="#000000" fill-rule="nonzero" fill-opacity="1" /><path clip-path="url(#clip260)" d="M194.19 893.041 Q190.579 893.041 188.75 896.606 Q186.945 900.148 186.945 907.277 Q186.945 914.384 188.75 917.948 Q190.579 921.49 194.19 921.49 Q197.825 921.49 199.63 917.948 Q201.459 914.384 201.459 907.277 Q201.459 900.148 199.63 896.606 Q197.825 893.041 194.19 893.041 M194.19 889.337 Q200 889.337 203.056 893.944 Q206.135 898.527 206.135 907.277 Q206.135 916.004 203.056 920.61 Q200 925.194 194.19 925.194 Q188.38 925.194 185.301 920.61 Q182.246 916.004 182.246 907.277 Q182.246 898.527 185.301 893.944 Q188.38 889.337 194.19 889.337 Z" fill="#000000" fill-rule="nonzero" fill-opacity="1" /><path clip-path="url(#clip260)" d="M114.26 569.954 L143.936 569.954 L143.936 573.889 L114.26 573.889 L114.26 569.954 Z" fill="#000000" fill-rule="nonzero" fill-opacity="1" /><path clip-path="url(#clip260)" d="M154.839 582.847 L162.477 582.847 L162.477 556.482 L154.167 558.148 L154.167 553.889 L162.431 552.223 L167.107 552.223 L167.107 582.847 L174.746 582.847 L174.746 586.783 L154.839 586.783 L154.839 582.847 Z" fill="#000000" fill-rule="nonzero" fill-opacity="1" /><path clip-path="url(#clip260)" d="M194.19 555.301 Q190.579 555.301 188.75 558.866 Q186.945 562.408 186.945 569.537 Q186.945 576.644 188.75 580.208 Q190.579 583.75 194.19 583.75 Q197.825 583.75 199.63 580.208 Q201.459 576.644 201.459 569.537 Q201.459 562.408 199.63 558.866 Q197.825 555.301 194.19 555.301 M194.19 551.598 Q200 551.598 203.056 556.204 Q206.135 560.787 206.135 569.537 Q206.135 578.264 203.056 582.87 Q200 587.454 194.19 587.454 Q188.38 587.454 185.301 582.87 Q182.246 578.264 182.246 569.537 Q182.246 560.787 185.301 556.204 Q188.38 551.598 194.19 551.598 Z" fill="#000000" fill-rule="nonzero" fill-opacity="1" /><path clip-path="url(#clip260)" d="M194.19 217.561 Q190.579 217.561 188.75 221.126 Q186.945 224.668 186.945 231.797 Q186.945 238.904 188.75 242.469 Q190.579 246.01 194.19 246.01 Q197.825 246.01 199.63 242.469 Q201.459 238.904 201.459 231.797 Q201.459 224.668 199.63 221.126 Q197.825 217.561 194.19 217.561 M194.19 213.858 Q200 213.858 203.056 218.464 Q206.135 223.047 206.135 231.797 Q206.135 240.524 203.056 245.131 Q200 249.714 194.19 249.714 Q188.38 249.714 185.301 245.131 Q182.246 240.524 182.246 231.797 Q182.246 223.047 185.301 218.464 Q188.38 213.858 194.19 213.858 Z" fill="#000000" fill-rule="nonzero" fill-opacity="1" /><path clip-path="url(#clip260)" d="M16.4842 816.375 L16.4842 786.329 L21.895 786.329 L21.895 809.945 L35.9632 809.945 L35.9632 787.315 L41.3741 787.315 L41.3741 809.945 L58.5933 809.945 L58.5933 785.756 L64.0042 785.756 L64.0042 816.375 L16.4842 816.375 Z" fill="#000000" fill-rule="nonzero" fill-opacity="1" /><path clip-path="url(#clip260)" d="M16.4842 775.189 L16.4842 768.759 L58.5933 768.759 L58.5933 745.62 L64.0042 745.62 L64.0042 775.189 L16.4842 775.189 Z" fill="#000000" fill-rule="nonzero" fill-opacity="1" /><path clip-path="url(#clip260)" d="M41.3104 732.443 L58.7206 732.443 L58.7206 722.13 Q58.7206 716.942 56.5881 714.46 Q54.4238 711.945 49.9996 711.945 Q45.5436 711.945 43.4429 714.46 Q41.3104 716.942 41.3104 722.13 L41.3104 732.443 M21.7677 732.443 L36.0905 732.443 L36.0905 722.926 Q36.0905 718.216 34.34 715.924 Q32.5576 713.6 28.9291 713.6 Q25.3325 713.6 23.5501 715.924 Q21.7677 718.216 21.7677 722.926 L21.7677 732.443 M16.4842 738.872 L16.4842 722.449 Q16.4842 715.096 19.5397 711.118 Q22.5952 707.139 28.2289 707.139 Q32.5894 707.139 35.1675 709.176 Q37.7456 711.213 38.3822 715.16 Q39.4007 710.418 42.6472 707.808 Q45.8619 705.166 50.6998 705.166 Q57.0655 705.166 60.5348 709.495 Q64.0042 713.823 64.0042 721.812 L64.0042 738.872 L16.4842 738.872 Z" fill="#000000" fill-rule="nonzero" fill-opacity="1" /><path clip-path="url(#clip260)" d="M20.8447 676.011 Q20.8447 683.013 26.0645 687.151 Q31.2844 691.257 40.2919 691.257 Q49.2675 691.257 54.4874 687.151 Q59.7073 683.013 59.7073 676.011 Q59.7073 669.009 54.4874 664.935 Q49.2675 660.829 40.2919 660.829 Q31.2844 660.829 26.0645 664.935 Q20.8447 669.009 20.8447 676.011 M15.6248 676.011 Q15.6248 666.017 22.3406 660.033 Q29.0246 654.049 40.2919 654.049 Q51.5274 654.049 58.2432 660.033 Q64.9272 666.017 64.9272 676.011 Q64.9272 686.037 58.2432 692.052 Q51.5592 698.036 40.2919 698.036 Q29.0246 698.036 22.3406 692.052 Q15.6248 686.037 15.6248 676.011 Z" fill="#000000" fill-rule="nonzero" fill-opacity="1" /><polyline clip-path="url(#clip262)" style="stroke:#009af9; stroke-linecap:round; stroke-linejoin:round; stroke-width:4; stroke-opacity:1; fill:none" points="301.869,975.075 303.862,967.876 305.856,927.258 307.849,1011.93 309.842,738.113 311.835,893.928 313.828,994.584 315.821,973.132 317.814,1143.84 319.808,1384.24 321.801,776.886 323.794,809.729 325.787,657.296 327.78,895.406 329.773,1059.46 331.766,891.589 333.76,697.708 335.753,435.629 337.746,547.214 339.739,779.063 341.732,911.894 343.725,857.84 345.718,531.327 347.712,502.509 349.705,1266.68 351.698,795.367 353.691,899.551 355.684,726.354 357.677,546.484 359.67,778.788 361.664,812.274 363.657,385.69 365.65,684.194 367.643,786.462 369.636,1025.17 371.629,712.118 373.622,498.277 375.616,485.675 377.609,689.523 379.602,508.202 381.595,698.368 383.588,714.85 385.581,729.239 387.574,580.683 389.568,1274 391.561,498.486 393.554,469.361 395.547,608.628 397.54,449.844 399.533,434.371 401.526,867.215 403.52,707.595 405.513,816.701 407.506,655.738 409.499,707.731 411.492,464.427 413.485,972.613 415.479,412.956 417.472,356.855 419.465,827.605 421.458,701.561 423.451,666.826 425.444,937.542 427.437,662.358 429.431,402.681 431.424,456.239 433.417,500.824 435.41,605.006 437.403,317.327 439.396,616.315 441.389,575.898 443.383,747.086 445.376,672.13 447.369,255.551 449.362,515.474 451.355,546.391 453.348,426.753 455.341,319.831 457.335,660.843 459.328,422.627 461.321,570.971 463.314,303.448 465.307,673.86 467.3,400.803 469.293,740.124 471.287,433.013 473.28,709.25 475.273,405.68 477.266,261.258 479.259,345.88 481.252,477.786 483.245,523.63 485.239,546.502 487.232,487.233 489.225,463.129 491.218,696.737 493.211,409.316 495.204,417.6 497.197,394.285 499.191,192.671 501.184,471.47 503.177,354.24 505.17,454.717 507.163,397.879 509.156,261.176 511.149,458.073 513.143,386.187 515.136,415.043 517.129,414.026 519.122,611.222 521.115,671.877 523.108,355.57 525.101,391.34 527.095,338.25 529.088,315.434 531.081,445.998 533.074,317.248 535.067,339.648 537.06,419.534 539.054,350.593 541.047,470.338 543.04,661.81 545.033,326.442 547.026,438.575 549.019,332.878 551.012,533.166 553.006,472.137 554.999,452.124 556.992,477.248 558.985,237.734 560.978,360.14 562.971,690.277 564.964,436.913 566.958,513.58 568.951,506.336 570.944,369.047 572.937,542.82 574.93,412.093 576.923,389.156 578.916,202.469 580.91,389.632 582.903,577.851 584.896,399.422 586.889,219.978 588.882,347.827 590.875,376.576 592.868,360.949 594.862,450.411 596.855,154.671 598.848,181.005 600.841,341.23 602.834,435.229 604.827,362.2 606.82,732.31 608.814,312.836 610.807,283.698 612.8,277.562 614.793,420.83 616.786,416.53 618.779,292.418 620.772,234.447 622.766,374.664 624.759,525.131 626.752,324.596 628.745,318.364 630.738,378.02 632.731,377.665 634.724,267.096 636.718,349.397 638.711,454.251 640.704,350.565 642.697,356.047 644.69,285.613 646.683,306.778 648.677,288.195 650.67,307.606 652.663,389.199 654.656,256.087 656.649,442.812 658.642,234.009 660.635,443.145 662.629,273.351 664.622,264.378 666.615,234.289 668.608,169.867 670.601,461.164 672.594,229.202 674.587,198.558 676.581,255.018 678.574,242.703 680.567,240.607 682.56,246.872 684.553,338.952 686.546,353.853 688.539,266.178 690.533,387.861 692.526,184.682 694.519,268.863 696.512,365.065 698.505,159.291 700.498,339.251 702.491,398.414 704.485,223.395 706.478,208.588 708.471,337.786 710.464,223.453 712.457,371.745 714.45,345.481 716.443,224.265 718.437,557.313 720.43,227.695 722.423,375.444 724.416,108.967 726.409,379.503 728.402,214.823 730.395,149.741 732.389,210.488 734.382,361.126 736.375,168.757 738.368,198.031 740.361,627.513 742.354,272.006 744.347,403.052 746.341,192.526 748.334,475.014 750.327,491.181 752.32,373.119 754.313,445.702 756.306,329.232 758.299,348.001 760.293,180.931 762.286,164.682 764.279,297.525 766.272,236.489 768.265,381.829 770.258,306.211 772.252,233.292 774.245,367.615 776.238,86.1857 778.231,226.441 780.224,119.888 782.217,210.377 784.21,280.941 786.204,237.274 788.197,130.87 790.19,293.401 792.183,240.889 794.176,251.778 796.169,283.135 798.162,123.678 800.156,247.885 802.149,220.923 804.142,158.3 806.135,379.781 808.128,281.921 810.121,132.171 812.114,308.041 814.108,342.507 816.101,180.26 818.094,186.516 820.087,270.922 822.08,344.562 824.073,199.845 826.066,394.486 828.06,281.164 830.053,239.058 832.046,334.008 834.039,255.248 836.032,240.573 838.025,192.818 840.018,303.086 842.012,279.028 844.005,136.94 845.998,174.122 847.991,275.101 849.984,287.114 851.977,303.497 853.97,130.78 855.964,320.718 857.957,180.473 859.95,255.72 861.943,302.898 863.936,219.634 865.929,277.823 867.922,223.695 869.916,240.017 871.909,260.444 873.902,258.851 875.895,132.109 877.888,123.848 879.881,223.716 881.874,415.963 883.868,275.778 885.861,274.227 887.854,221.728 889.847,207.555 891.84,336.896 893.833,236.796 895.827,184.088 897.82,326.871 899.813,419.554 901.806,183.546 903.799,246.76 905.792,145.195 907.785,162.596 909.779,258.541 911.772,177.117 913.765,363.938 915.758,284.398 917.751,177.894 919.744,280.974 921.737,297.031 923.731,187.711 925.724,305.055 927.717,295.665 929.71,224.414 931.703,356.075 933.696,238.838 935.689,264.978 937.683,314.748 939.676,381.197 941.669,225.085 943.662,157.389 945.655,281.325 947.648,313.15 949.641,244.393 951.635,301.427 953.628,224.193 955.621,381.476 957.614,132.898 959.607,191.632 961.6,218.275 963.593,460.783 965.587,196.947 967.58,261.056 969.573,301.898 971.566,176.439 973.559,301.5 975.552,185.004 977.545,400.797 979.539,369.102 981.532,174.336 983.525,237.013 985.518,261.542 987.511,332.675 989.504,289.981 991.497,289.682 993.491,258.257 995.484,215.489 997.477,293.662 999.47,227.962 1001.46,209.025 1003.46,144.577 1005.45,123.027 1007.44,205.884 1009.44,215.14 1011.43,164.567 1013.42,272.744 1015.42,358.531 1017.41,205.421 1019.4,147.657 1021.39,311.168 1023.39,622.138 1025.38,259.765 1027.37,114.371 1029.37,181.569 1031.36,242.19 1033.35,344.827 1035.35,279.368 1037.34,134.007 1039.33,327.551 1041.33,232.143 1043.32,146.404 1045.31,277.223 1047.31,275.512 1049.3,340.423 1051.29,263.769 1053.28,260.806 1055.28,253.759 1057.27,176.629 1059.26,274.098 1061.26,311.379 1063.25,219.783 1065.24,277.378 1067.24,130.611 1069.23,206.382 1071.22,269.286 1073.22,122.084 1075.21,209.996 1077.2,139.879 1079.2,283.374 1081.19,174.398 1083.18,243.527 1085.18,381.278 1087.17,274.107 1089.16,214.493 1091.15,248.995 1093.15,302.789 1095.14,261.576 1097.13,210.384 1099.13,250.693 1101.12,160.181 1103.11,201.54 1105.11,169.779 1107.1,154.662 1109.09,224.414 1111.09,162.587 1113.08,170.465 1115.07,289.831 1117.07,279.992 1119.06,252.852 1121.05,303.568 1123.05,280.37 1125.04,199.354 1127.03,125.924 1129.02,237.877 1131.02,142.745 1133.01,192.845 1135,215.945 1137,412.701 1138.99,256.094 1140.98,246.19 1142.98,220.564 1144.97,144.773 1146.96,227.125 1148.96,271.015 1150.95,269.877 1152.94,229.8 1154.94,191.941 1156.93,181.055 1158.92,229.368 1160.91,138.783 1162.91,160.015 1164.9,219.828 1166.89,235.973 1168.89,166.084 1170.88,170.476 1172.87,199.176 1174.87,197.375 1176.86,162.745 1178.85,240.729 1180.85,257.57 1182.84,199.344 1184.83,387.777 1186.83,239.845 1188.82,200.656 1190.81,412.996 1192.81,252.953 1194.8,156.396 1196.79,276.14 1198.78,266.218 1200.78,253.009 1202.77,272.742 1204.76,243.783 1206.76,323.548 1208.75,384.133 1210.74,263.338 1212.74,290.941 1214.73,243.374 1216.72,250.791 1218.72,109.091 1220.71,114.343 1222.7,249.443 1224.7,193.127 1226.69,234.897 1228.68,295.672 1230.67,299.282 1232.67,160.895 1234.66,178.443 1236.65,188.716 1238.65,180.586 1240.64,287.059 1242.63,172.831 1244.63,143.987 1246.62,230.32 1248.61,151.424 1250.61,331.362 1252.6,246.418 1254.59,178.922 1256.59,307.105 1258.58,159.789 1260.57,262.661 1262.57,194.222 1264.56,211.631 1266.55,202.364 1268.54,216.728 1270.54,348.754 1272.53,265.088 1274.52,176.662 1276.52,424.644 1278.51,230.463 1280.5,272.128 1282.5,250.764 1284.49,149.688 1286.48,263.657 1288.48,303.506 1290.47,96.7836 1292.46,264.551 1294.46,271.865 1296.45,202.979 1298.44,313.588 1300.44,303.189 1302.43,157.913 1304.42,224.384 1306.41,220.561 1308.41,140.281 1310.4,224.949 1312.39,252.306 1314.39,267.821 1316.38,254.277 1318.37,209.958 1320.37,218.068 1322.36,512.688 1324.35,185.709 1326.35,210.698 1328.34,93.825 1330.33,116.829 1332.33,144.41 1334.32,292.458 1336.31,191.247 1338.3,188.244 1340.3,249.776 1342.29,143.545 1344.28,178.089 1346.28,175.394 1348.27,187.355 1350.26,160.863 1352.26,149.348 1354.25,211.571 1356.24,258.256 1358.24,238.44 1360.23,176.18 1362.22,195.83 1364.22,235.212 1366.21,349.781 1368.2,215.33 1370.2,284.84 1372.19,310.013 1374.18,222.623 1376.17,170.498 1378.17,198.746 1380.16,286.895 1382.15,256.573 1384.15,173.69 1386.14,263.558 1388.13,254.665 1390.13,259.469 1392.12,157.825 1394.11,275.674 1396.11,150.958 1398.1,371.874 1400.09,122.994 1402.09,168.124 1404.08,224.895 1406.07,235.27 1408.06,222.182 1410.06,160.458 1412.05,293.31 1414.04,353.744 1416.04,348.06 1418.03,377.657 1420.02,131.51 1422.02,203.812 1424.01,244.964 1426,297.675 1428,217.893 1429.99,366.677 1431.98,213.529 1433.98,207.71 1435.97,235.503 1437.96,362.625 1439.96,426.154 1441.95,226.014 1443.94,155.096 1445.93,239.118 1447.93,280.31 1449.92,136.593 1451.91,240.921 1453.91,169.398 1455.9,330.261 1457.89,193.036 1459.89,166.344 1461.88,162.319 1463.87,177.813 1465.87,186.429 1467.86,268.45 1469.85,157.958 1471.85,235.253 1473.84,242.242 1475.83,267.542 1477.82,192.079 1479.82,267.713 1481.81,290.555 1483.8,129.371 1485.8,249.529 1487.79,146.516 1489.78,218.424 1491.78,189.244 1493.77,148.595 1495.76,181.852 1497.76,293.227 1499.75,306.559 1501.74,147.346 1503.74,141.958 1505.73,216.256 1507.72,293.824 1509.72,240.125 1511.71,135.143 1513.7,170.112 1515.69,279.237 1517.69,381.791 1519.68,189.48 1521.67,178.241 1523.67,280.58 1525.66,251.965 1527.65,261.192 1529.65,324.08 1531.64,196.794 1533.63,394.3 1535.63,203.711 1537.62,166.396 1539.61,158.949 1541.61,279.336 1543.6,157.27 1545.59,288.161 1547.59,329.64 1549.58,163.819 1551.57,313.226 1553.56,188.429 1555.56,115.457 1557.55,211.484 1559.54,249.232 1561.54,258.194 1563.53,189.226 1565.52,236.287 1567.52,215.85 1569.51,176.16 1571.5,228.839 1573.5,197.595 1575.49,306.302 1577.48,206.658 1579.48,151.289 1581.47,495.548 1583.46,292.734 1585.45,308.666 1587.45,277.979 1589.44,285.535 1591.43,153.525 1593.43,130.024 1595.42,230.444 1597.41,129.007 1599.41,136.506 1601.4,191.011 1603.39,349.427 1605.39,248.48 1607.38,208.352 1609.37,144.812 1611.37,296.975 1613.36,356.823 1615.35,303.009 1617.35,176.36 1619.34,251.008 1621.33,200.708 1623.32,170.992 1625.32,213.434 1627.31,172.021 1629.3,126.116 1631.3,294.862 1633.29,419.919 1635.28,325.422 1637.28,146.949 1639.27,201.605 1641.26,565.492 1643.26,239.374 1645.25,230.74 1647.24,263.548 1649.24,225.287 1651.23,220.901 1653.22,186.169 1655.21,255.821 1657.21,316.689 1659.2,194.66 1661.19,456.922 1663.19,121.53 1665.18,147.68 1667.17,158.733 1669.17,470.832 1671.16,180.493 1673.15,184.886 1675.15,270.973 1677.14,249.958 1679.13,263.936 1681.13,130.336 1683.12,219.11 1685.11,165.375 1687.11,298.195 1689.1,159.5 1691.09,91.8551 1693.08,139.901 1695.08,109.76 1697.07,155.122 1699.06,242.374 1701.06,232.306 1703.05,224.213 1705.04,294.4 1707.04,214.02 1709.03,301.767 1711.02,128.733 1713.02,172.465 1715.01,138.664 1717,250.685 1719,244.974 1720.99,342.185 1722.98,132.873 1724.97,318.336 1726.97,227.685 1728.96,275.146 1730.95,309.659 1732.95,200.787 1734.94,218.601 1736.93,228.329 1738.93,288.127 1740.92,220.02 1742.91,158.941 1744.91,131.212 1746.9,137.182 1748.89,171.958 1750.89,409.176 1752.88,125.732 1754.87,291.131 1756.87,247.568 1758.86,282.731 1760.85,166.6 1762.84,244.595 1764.84,218.414 1766.83,164.387 1768.82,376.336 1770.82,255.318 1772.81,234.359 1774.8,207.45 1776.8,232.131 1778.79,275.532 1780.78,303.242 1782.78,171.988 1784.77,300.358 1786.76,326.464 1788.76,164.506 1790.75,208.506 1792.74,218.564 1794.74,234.78 1796.73,160.492 1798.72,192.876 1800.71,254.546 1802.71,154.91 1804.7,291.795 1806.69,154.294 1808.69,248.908 1810.68,162.727 1812.67,140.956 1814.67,239.832 1816.66,330.352 1818.65,286.596 1820.65,247.256 1822.64,292.623 1824.63,263.01 1826.63,150.395 1828.62,233.104 1830.61,140.11 1832.6,197.574 1834.6,115.712 1836.59,136.03 1838.58,275.291 1840.58,220.534 1842.57,133.755 1844.56,125.29 1846.56,194.098 1848.55,322.326 1850.54,184.274 1852.54,197.092 1854.53,185.049 1856.52,158.852 1858.52,152.929 1860.51,136.461 1862.5,196.498 1864.5,188.299 1866.49,146.189 1868.48,178.242 1870.47,183.004 1872.47,126.957 1874.46,113.314 1876.45,203.924 1878.45,178.48 1880.44,207.422 1882.43,320.713 1884.43,335.588 1886.42,279.32 1888.41,357.023 1890.41,388.591 1892.4,319.804 1894.39,290.397 1896.39,253.921 1898.38,286.192 1900.37,214.156 1902.36,182.883 1904.36,348.706 1906.35,255.705 1908.34,179.64 1910.34,224.928 1912.33,237.921 1914.32,103.79 1916.32,174.157 1918.31,105.34 1920.3,143.321 1922.3,131.969 1924.29,229.056 1926.28,247.574 1928.28,242.045 1930.27,135.479 1932.26,238.608 1934.26,309.171 1936.25,170.898 1938.24,234.612 1940.23,173.437 1942.23,225.088 1944.22,361.118 1946.21,218.512 1948.21,358.496 1950.2,240.73 1952.19,223.714 1954.19,232.774 1956.18,147.914 1958.17,219.026 1960.17,213.608 1962.16,115.841 1964.15,228.69 1966.15,279.707 1968.14,261.989 1970.13,272.251 1972.12,434.163 1974.12,225.461 1976.11,153.169 1978.1,417.187 1980.1,190.279 1982.09,360.886 1984.08,239.652 1986.08,121.529 1988.07,220.605 1990.06,178.997 1992.06,232.237 1994.05,202.308 1996.04,211.396 1998.04,228.504 2000.03,199.187 2002.02,200.474 2004.02,208.658 2006.01,178.42 2008,155.012 2009.99,230.217 2011.99,243.176 2013.98,147.668 2015.97,221.34 2017.97,308.764 2019.96,139.89 2021.95,164.05 2023.95,195.247 2025.94,330.27 2027.93,311.575 2029.93,185.246 2031.92,288.007 2033.91,221.569 2035.91,305.829 2037.9,167.954 2039.89,228.729 2041.89,264.279 2043.88,231.239 2045.87,362.084 2047.86,182.052 2049.86,321.711 2051.85,140.864 2053.84,180.665 2055.84,157.364 2057.83,151.951 2059.82,192.627 2061.82,177.583 2063.81,171.757 2065.8,564.321 2067.8,98.0043 2069.79,210.331 2071.78,104.556 2073.78,185.121 2075.77,251.186 2077.76,147.418 2079.75,181.497 2081.75,361.182 2083.74,280.07 2085.73,329.712 2087.73,196.202 2089.72,159.17 2091.71,353.227 2093.71,170.103 2095.7,213.487 2097.69,210.392 2099.69,190.194 2101.68,267.197 2103.67,375.162 2105.67,303.301 2107.66,216.636 2109.65,143.874 2111.65,325.861 2113.64,184.567 2115.63,207.408 2117.62,187.862 2119.62,266.07 2121.61,119.136 2123.6,197.656 2125.6,248.393 2127.59,190.799 2129.58,262.999 2131.58,211.562 2133.57,192.072 2135.56,222.2 2137.56,280.964 2139.55,233.071 2141.54,346.634 2143.54,253.064 2145.53,234.152 2147.52,193.23 2149.51,263.68 2151.51,327.319 2153.5,332.08 2155.49,234.333 2157.49,297.493 2159.48,163.046 2161.47,219.572 2163.47,205.957 2165.46,250.07 2167.45,195.711 2169.45,282.36 2171.44,148.773 2173.43,191.083 2175.43,109.881 2177.42,286.254 2179.41,207.575 2181.41,155.197 2183.4,194.085 2185.39,207.862 2187.38,239.037 2189.38,339.037 2191.37,178.51 2193.36,260.823 2195.36,261.592 2197.35,220.348 2199.34,283.503 2201.34,289.381 2203.33,270.523 2205.32,199.23 2207.32,257.052 2209.31,213.758 2211.3,231.79 2213.3,124.512 2215.29,206.778 2217.28,267.61 2219.27,181.858 2221.27,185.432 2223.26,165.059 2225.25,150.606 2227.25,156.358 2229.24,236.12 2231.23,348.038 2233.23,329.263 2235.22,138.456 2237.21,185.786 2239.21,214.846 2241.2,355.11 2243.19,485.679 2245.19,477.548 2247.18,461.354 2249.17,410.039 2251.17,131.823 2253.16,318.607 2255.15,252.677 2257.14,150.633 2259.14,195.47 2261.13,413.501 2263.12,281.103 2265.12,269.991 2267.11,283.97 2269.1,178.997 2271.1,212.351 2273.09,227.858 2275.08,260.66 2277.08,239.019 2279.07,241.034 2281.06,274.947 2283.06,289.189 2285.05,304.4 2287.04,306.605 2289.04,314.896 2291.03,223.663 2293.02,175.081 "/>
<polyline clip-path="url(#clip262)" style="stroke:#e26f46; stroke-linecap:round; stroke-linejoin:round; stroke-width:4; stroke-opacity:1; fill:none" points="301.869,919.485 303.862,897.198 305.856,893.223 307.849,885.405 309.842,867.386 311.835,892.283 313.828,870.387 315.821,882.425 317.814,862.181 319.808,852.996 321.801,837.904 323.794,868.34 325.787,831.975 327.78,815.791 329.773,816.418 331.766,798.588 333.76,814.98 335.753,806.39 337.746,802.12 339.739,780.114 341.732,772.693 343.725,778.999 345.718,775.113 347.712,774.358 349.705,753.04 351.698,755.108 353.691,752.061 355.684,753.868 357.677,724.997 359.67,742.07 361.664,732.263 363.657,712.34 365.65,726.636 367.643,693.283 369.636,691.511 371.629,708.94 373.622,683.078 375.616,687.493 377.609,692.186 379.602,672.738 381.595,656.89 383.588,681.72 385.581,672.128 387.574,653.921 389.568,653.268 391.561,650.642 393.554,641.364 395.547,617.362 397.54,614.093 399.533,620.131 401.526,625.468 403.52,605.448 405.513,621.415 407.506,604.075 409.499,613.123 411.492,610.089 413.485,606.128 415.479,590.218 417.472,577.685 419.465,581.652 421.458,589.834 423.451,573.873 425.444,579.715 427.437,554.899 429.431,578.94 431.424,559.317 433.417,549.875 435.41,551.406 437.403,528.55 439.396,526.514 441.389,543.415 443.383,537.404 445.376,521.958 447.369,524.835 449.362,515.654 451.355,515.423 453.348,497.657 455.341,513.841 457.335,519.686 459.328,494.151 461.321,479.488 463.314,498.808 465.307,477.712 467.3,477.993 469.293,490.821 471.287,492.013 473.28,480.543 475.273,481.911 477.266,449.512 479.259,470.03 481.252,470.617 483.245,474.378 485.239,443.798 487.232,469.922 489.225,441.874 491.218,455.711 493.211,434.647 495.204,451.599 497.197,446.998 499.191,451.005 501.184,432.667 503.177,441.926 505.17,429.891 507.163,424.597 509.156,421.421 511.149,430.868 513.143,426.095 515.136,426.528 517.129,405.864 519.122,410.714 521.115,410.216 523.108,409.069 525.101,405.89 527.095,403.761 529.088,393.407 531.081,406.237 533.074,387.077 535.067,390.908 537.06,389.921 539.054,376.537 541.047,369.09 543.04,384.286 545.033,382.525 547.026,387.576 549.019,383.155 551.012,373.56 553.006,361.508 554.999,381.778 556.992,364.309 558.985,397.01 560.978,363.448 562.971,383.154 564.964,353.147 566.958,358.753 568.951,345.079 570.944,360.414 572.937,353.552 574.93,356.999 576.923,373.593 578.916,344.321 580.91,356.275 582.903,341.586 584.896,350.526 586.889,340.521 588.882,349.491 590.875,347.736 592.868,333.238 594.862,338.424 596.855,329.228 598.848,324.536 600.841,332.432 602.834,331.022 604.827,323.012 606.82,338.585 608.814,319.874 610.807,313.168 612.8,313.978 614.793,309.031 616.786,302.969 618.779,329.37 620.772,324.746 622.766,320.074 624.759,312.29 626.752,305.228 628.745,307.421 630.738,301.507 632.731,318.32 634.724,299.464 636.718,299.55 638.711,302.062 640.704,295.703 642.697,296.114 644.69,315.377 646.683,300.797 648.677,300.034 650.67,299.927 652.663,302.504 654.656,307.199 656.649,283.138 658.642,274.888 660.635,284.976 662.629,295.799 664.622,291.918 666.615,299.031 668.608,282.556 670.601,303.276 672.594,287.254 674.587,288.619 676.581,283.105 678.574,294.129 680.567,287.048 682.56,278.15 684.553,281.043 686.546,275.582 688.539,268.309 690.533,270.047 692.526,273.848 694.519,272.914 696.512,271.912 698.505,284.845 700.498,271.344 702.491,264.421 704.485,277.038 706.478,270.469 708.471,259.082 710.464,283.24 712.457,278.079 714.45,269.568 716.443,260.894 718.437,282.694 720.43,262.594 722.423,258.697 724.416,272.228 726.409,260.987 728.402,252.718 730.395,257.563 732.389,246.125 734.382,262.956 736.375,263.291 738.368,259.61 740.361,272.403 742.354,259.564 744.347,263.875 746.341,249.82 748.334,254.649 750.327,238.145 752.32,264.367 754.313,251.861 756.306,258.276 758.299,262.352 760.293,252.005 762.286,246.839 764.279,265.196 766.272,246.405 768.265,257.548 770.258,276.137 772.252,249.564 774.245,254.937 776.238,275.056 778.231,259.544 780.224,249.855 782.217,244.694 784.21,249.333 786.204,251.438 788.197,246.382 790.19,243.587 792.183,253.703 794.176,252.863 796.169,261.043 798.162,253.691 800.156,248.167 802.149,262.977 804.142,252.148 806.135,251.461 808.128,262.602 810.121,250.96 812.114,251.654 814.108,254.84 816.101,261.406 818.094,235.898 820.087,251.485 822.08,237.343 824.073,244.238 826.066,245.734 828.06,244.388 830.053,230.125 832.046,238.101 834.039,243.21 836.032,230.616 838.025,237.115 840.018,230.19 842.012,239.972 844.005,252.377 845.998,239.359 847.991,257.032 849.984,239.819 851.977,236.283 853.97,238.319 855.964,250.281 857.957,254.533 859.95,237.704 861.943,245.407 863.936,238.335 865.929,242.861 867.922,226.805 869.916,229.256 871.909,240.298 873.902,232.958 875.895,228.713 877.888,231.884 879.881,244.178 881.874,235.249 883.868,231.357 885.861,233.406 887.854,230.583 889.847,230.352 891.84,251.713 893.833,249.586 895.827,248.23 897.82,235.986 899.813,230.613 901.806,226.967 903.799,234.936 905.792,238.697 907.785,238.955 909.779,243.057 911.772,247.909 913.765,238.512 915.758,230.154 917.751,228.305 919.744,247.345 921.737,250.526 923.731,226.305 925.724,246.842 927.717,236.082 929.71,239.374 931.703,249.253 933.696,231.323 935.689,229.027 937.683,238.573 939.676,223.049 941.669,242.753 943.662,243.905 945.655,233.129 947.648,225.564 949.641,249.481 951.635,234.043 953.628,237.155 955.621,234.01 957.614,236.044 959.607,239.899 961.6,230.013 963.593,234.601 965.587,243.594 967.58,232.646 969.573,243.883 971.566,249.746 973.559,234.54 975.552,253.849 977.545,241.395 979.539,253.927 981.532,221.613 983.525,222.678 985.518,225.024 987.511,239.766 989.504,220.956 991.497,233.401 993.491,238.328 995.484,232.686 997.477,230.137 999.47,230.368 1001.46,243.658 1003.46,235.736 1005.45,223.071 1007.44,238.722 1009.44,243.589 1011.43,225.534 1013.42,236.163 1015.42,230.646 1017.41,231.56 1019.4,243.448 1021.39,229.687 1023.39,233.188 1025.38,252.992 1027.37,246.494 1029.37,246.927 1031.36,231.158 1033.35,224.604 1035.35,235.174 1037.34,232.857 1039.33,220.144 1041.33,218.413 1043.32,227.868 1045.31,236.204 1047.31,236.162 1049.3,242.26 1051.29,237.629 1053.28,227.309 1055.28,231.905 1057.27,226.217 1059.26,223.457 1061.26,234.099 1063.25,239.142 1065.24,238.274 1067.24,223.665 1069.23,229.156 1071.22,222.085 1073.22,232.706 1075.21,230.078 1077.2,224.144 1079.2,230.135 1081.19,235.385 1083.18,226.275 1085.18,224.02 1087.17,233.82 1089.16,235.823 1091.15,218.118 1093.15,210.807 1095.14,242.052 1097.13,226.913 1099.13,222.229 1101.12,224.411 1103.11,228.781 1105.11,237.208 1107.1,230.347 1109.09,239.999 1111.09,233.541 1113.08,246.932 1115.07,228.364 1117.07,234.08 1119.06,240.198 1121.05,242.76 1123.05,239.403 1125.04,226.213 1127.03,237.226 1129.02,230.192 1131.02,229.359 1133.01,238.673 1135,227.283 1137,226.765 1138.99,229.509 1140.98,237.226 1142.98,225.78 1144.97,245.037 1146.96,230.521 1148.96,220.404 1150.95,228.043 1152.94,224.531 1154.94,238.349 1156.93,251.046 1158.92,221.571 1160.91,220.64 1162.91,224.708 1164.9,235.047 1166.89,235.119 1168.89,224.055 1170.88,231.776 1172.87,229.292 1174.87,230.229 1176.86,246.487 1178.85,240.069 1180.85,235.052 1182.84,243.595 1184.83,224.649 1186.83,232.633 1188.82,243.563 1190.81,222.781 1192.81,235.3 1194.8,241.547 1196.79,234.001 1198.78,232.545 1200.78,232.963 1202.77,223.611 1204.76,232.889 1206.76,226.372 1208.75,224.291 1210.74,232.9 1212.74,219.4 1214.73,239.874 1216.72,220.055 1218.72,232.977 1220.71,238.499 1222.7,223.218 1224.7,236.433 1226.69,227.16 1228.68,217.824 1230.67,227.858 1232.67,239.525 1234.66,224.538 1236.65,233.319 1238.65,212.684 1240.64,223.842 1242.63,235.33 1244.63,215.242 1246.62,234.831 1248.61,237.952 1250.61,234.989 1252.6,229.761 1254.59,227.592 1256.59,215.373 1258.58,241.77 1260.57,237.956 1262.57,220.637 1264.56,231.071 1266.55,212.856 1268.54,227.894 1270.54,239.222 1272.53,233.33 1274.52,233.697 1276.52,234.083 1278.51,252.632 1280.5,232.737 1282.5,225.769 1284.49,227.191 1286.48,220.068 1288.48,229.204 1290.47,242.708 1292.46,235.743 1294.46,226.397 1296.45,219.662 1298.44,228.349 1300.44,230.29 1302.43,240.348 1304.42,223.111 1306.41,223.948 1308.41,239.561 1310.4,243.023 1312.39,250.581 1314.39,231.685 1316.38,225.157 1318.37,233.006 1320.37,225.868 1322.36,238.657 1324.35,244.038 1326.35,221.195 1328.34,224.919 1330.33,234.98 1332.33,233.268 1334.32,224.386 1336.31,243.643 1338.3,227.48 1340.3,227.097 1342.29,228.227 1344.28,235.954 1346.28,220.866 1348.27,234.331 1350.26,225.262 1352.26,233.514 1354.25,225.53 1356.24,234.057 1358.24,243.7 1360.23,241.802 1362.22,244.729 1364.22,223.059 1366.21,227.691 1368.2,238.306 1370.2,231.503 1372.19,237.688 1374.18,220.68 1376.17,220.754 1378.17,236.916 1380.16,247.655 1382.15,239.906 1384.15,240.279 1386.14,250.469 1388.13,242.245 1390.13,234.385 1392.12,237.112 1394.11,241.678 1396.11,238.442 1398.1,223.939 1400.09,221.58 1402.09,225.022 1404.08,224.09 1406.07,222.942 1408.06,224.74 1410.06,229.715 1412.05,224.917 1414.04,237.277 1416.04,242.39 1418.03,227.298 1420.02,254.767 1422.02,221.244 1424.01,231.875 1426,240.498 1428,236.979 1429.99,228.295 1431.98,231.845 1433.98,232.961 1435.97,231.93 1437.96,227.166 1439.96,228.578 1441.95,234.756 1443.94,225.806 1445.93,249.347 1447.93,229.102 1449.92,242.501 1451.91,221.709 1453.91,230.293 1455.9,229.709 1457.89,236.327 1459.89,228.692 1461.88,238.371 1463.87,236.769 1465.87,236.646 1467.86,236.627 1469.85,230.398 1471.85,229.774 1473.84,236.933 1475.83,230.929 1477.82,249.743 1479.82,235.486 1481.81,215.344 1483.8,226.148 1485.8,240.968 1487.79,238.988 1489.78,232.875 1491.78,217.926 1493.77,238.837 1495.76,237.068 1497.76,240.4 1499.75,231.354 1501.74,232.525 1503.74,250.837 1505.73,229.397 1507.72,220.644 1509.72,222.637 1511.71,253.428 1513.7,230.751 1515.69,238.059 1517.69,225.598 1519.68,225.774 1521.67,234.918 1523.67,220.474 1525.66,222.508 1527.65,237.073 1529.65,215.811 1531.64,215.568 1533.63,235.538 1535.63,234.194 1537.62,221.352 1539.61,222.402 1541.61,234.798 1543.6,236.392 1545.59,219.227 1547.59,234.891 1549.58,244.878 1551.57,235.341 1553.56,230.04 1555.56,220.905 1557.55,233.786 1559.54,230.036 1561.54,230.782 1563.53,232.358 1565.52,235.614 1567.52,238.93 1569.51,228.257 1571.5,229.72 1573.5,221.786 1575.49,248.5 1577.48,222.11 1579.48,251.778 1581.47,227.714 1583.46,248.478 1585.45,232.111 1587.45,237.415 1589.44,229.933 1591.43,243.585 1593.43,228.891 1595.42,231.455 1597.41,239.653 1599.41,255.406 1601.4,234.904 1603.39,226.077 1605.39,217.882 1607.38,235.821 1609.37,242.285 1611.37,230.498 1613.36,233.137 1615.35,247.267 1617.35,236.334 1619.34,225.845 1621.33,232.346 1623.32,224.948 1625.32,229.318 1627.31,236.289 1629.3,224.185 1631.3,225.448 1633.29,223.371 1635.28,233.375 1637.28,235.862 1639.27,223.84 1641.26,229.25 1643.26,236.978 1645.25,234.068 1647.24,230.156 1649.24,224.395 1651.23,223.588 1653.22,240.166 1655.21,235.785 1657.21,243.988 1659.2,233.134 1661.19,228.979 1663.19,240.18 1665.18,230.329 1667.17,246.502 1669.17,228.399 1671.16,235.864 1673.15,221.231 1675.15,230.622 1677.14,229.623 1679.13,230.483 1681.13,223.341 1683.12,214.429 1685.11,251.165 1687.11,229.831 1689.1,235.43 1691.09,224.083 1693.08,224.32 1695.08,236.666 1697.07,228.133 1699.06,226.726 1701.06,220.967 1703.05,237.163 1705.04,228.023 1707.04,247.836 1709.03,221.784 1711.02,236.501 1713.02,232.668 1715.01,227.763 1717,241.282 1719,237.185 1720.99,224.57 1722.98,227.895 1724.97,230.63 1726.97,230.201 1728.96,248.901 1730.95,226.765 1732.95,241.94 1734.94,219.162 1736.93,229.761 1738.93,232.75 1740.92,239.71 1742.91,220.499 1744.91,241.739 1746.9,236.927 1748.89,237.683 1750.89,224.287 1752.88,236.125 1754.87,227.027 1756.87,235.544 1758.86,222.07 1760.85,231.094 1762.84,237.985 1764.84,221.437 1766.83,233.446 1768.82,237.222 1770.82,230.116 1772.81,244.558 1774.8,235.414 1776.8,229.34 1778.79,228.979 1780.78,219.006 1782.78,235.228 1784.77,228.542 1786.76,236.494 1788.76,232.601 1790.75,255.536 1792.74,233.382 1794.74,218.466 1796.73,238.336 1798.72,230.239 1800.71,216.659 1802.71,236.976 1804.7,235.481 1806.69,230.199 1808.69,226.693 1810.68,242.6 1812.67,216.949 1814.67,239.857 1816.66,228.958 1818.65,219.126 1820.65,233.331 1822.64,243.652 1824.63,227.224 1826.63,222.434 1828.62,232.037 1830.61,220.234 1832.6,236.112 1834.6,240.298 1836.59,225.724 1838.58,250.378 1840.58,247.844 1842.57,230.003 1844.56,217.659 1846.56,236.236 1848.55,230.34 1850.54,224.711 1852.54,233.495 1854.53,233.277 1856.52,250.701 1858.52,237.924 1860.51,239.67 1862.5,234.406 1864.5,228.149 1866.49,244.904 1868.48,235.816 1870.47,236.676 1872.47,231.304 1874.46,238.125 1876.45,237.582 1878.45,224.327 1880.44,240.463 1882.43,235.658 1884.43,228.288 1886.42,221.046 1888.41,236.147 1890.41,235.399 1892.4,234.593 1894.39,232.894 1896.39,232.01 1898.38,236.852 1900.37,227.049 1902.36,229.452 1904.36,218.618 1906.35,235.483 1908.34,223.343 1910.34,234.295 1912.33,224.239 1914.32,243.288 1916.32,216.882 1918.31,233.976 1920.3,219.6 1922.3,228.713 1924.29,222.146 1926.28,234.786 1928.28,233.07 1930.27,231.015 1932.26,229.979 1934.26,234.972 1936.25,227.801 1938.24,231.316 1940.23,238.273 1942.23,213.34 1944.22,240.82 1946.21,224.871 1948.21,219.655 1950.2,245.209 1952.19,229.8 1954.19,235.325 1956.18,240.295 1958.17,237.192 1960.17,246.138 1962.16,219.477 1964.15,230.648 1966.15,241.257 1968.14,215.855 1970.13,236.338 1972.12,237.006 1974.12,231.958 1976.11,239.482 1978.1,222.44 1980.1,224.37 1982.09,223.004 1984.08,231.903 1986.08,234.581 1988.07,230.179 1990.06,224.118 1992.06,220.633 1994.05,232.999 1996.04,220.915 1998.04,234.12 2000.03,227.686 2002.02,229.62 2004.02,239.167 2006.01,253.623 2008,236.69 2009.99,224.829 2011.99,220.039 2013.98,219.957 2015.97,233.857 2017.97,234.007 2019.96,229.79 2021.95,226.37 2023.95,223.705 2025.94,218.561 2027.93,234.864 2029.93,229.249 2031.92,238.704 2033.91,223.372 2035.91,240.601 2037.9,249.86 2039.89,253.183 2041.89,225.873 2043.88,228.487 2045.87,232.886 2047.86,216.126 2049.86,240.842 2051.85,242.336 2053.84,226.597 2055.84,219.943 2057.83,231.198 2059.82,236.339 2061.82,228.637 2063.81,226.596 2065.8,234.793 2067.8,230.467 2069.79,221.553 2071.78,217.415 2073.78,238.11 2075.77,216.89 2077.76,221.746 2079.75,239.964 2081.75,229.142 2083.74,222.756 2085.73,232.027 2087.73,220.613 2089.72,242.887 2091.71,242.589 2093.71,233.403 2095.7,244.359 2097.69,226.369 2099.69,232.442 2101.68,237.362 2103.67,238.75 2105.67,233.263 2107.66,244.938 2109.65,232.986 2111.65,226.884 2113.64,239.569 2115.63,230.055 2117.62,228.109 2119.62,241.629 2121.61,231.542 2123.6,234.73 2125.6,230.549 2127.59,226.126 2129.58,232.789 2131.58,224.099 2133.57,228.079 2135.56,230.49 2137.56,238.314 2139.55,252.99 2141.54,247.045 2143.54,233.98 2145.53,220.19 2147.52,243.857 2149.51,224.291 2151.51,224.641 2153.5,244.554 2155.49,233.108 2157.49,231.591 2159.48,230.31 2161.47,225.202 2163.47,232.431 2165.46,237.97 2167.45,233.603 2169.45,233.012 2171.44,239.222 2173.43,232.93 2175.43,231.93 2177.42,232.01 2179.41,223.187 2181.41,226.115 2183.4,235.13 2185.39,247.772 2187.38,220.621 2189.38,235.638 2191.37,236.791 2193.36,231.63 2195.36,238.626 2197.35,239.084 2199.34,232.501 2201.34,227.149 2203.33,226.805 2205.32,238.152 2207.32,229.456 2209.31,228.334 2211.3,224.24 2213.3,226.914 2215.29,222.729 2217.28,234.125 2219.27,228.141 2221.27,233.183 2223.26,226.075 2225.25,232.995 2227.25,219.349 2229.24,225.01 2231.23,230.663 2233.23,254.336 2235.22,240.428 2237.21,227.053 2239.21,231.294 2241.2,232.485 2243.19,221.523 2245.19,240.346 2247.18,228.539 2249.17,228.353 2251.17,228.307 2253.16,233.182 2255.15,230.051 2257.14,232.089 2259.14,223.665 2261.13,249.163 2263.12,245.517 2265.12,241.253 2267.11,215.526 2269.1,226.34 2271.1,221.696 2273.09,236.245 2275.08,237.808 2277.08,231.052 2279.07,232.714 2281.06,223.041 2283.06,224.687 2285.05,233.356 2287.04,248.336 2289.04,231.922 2291.03,245.513 2293.02,218.187 "/>
<path clip-path="url(#clip260)" d="M1736.78 1377.32 L2282.4 1377.32 L2282.4 1221.8 L1736.78 1221.8  Z" fill="#ffffff" fill-rule="evenodd" fill-opacity="1"/>
<polyline clip-path="url(#clip260)" style="stroke:#000000; stroke-linecap:round; stroke-linejoin:round; stroke-width:4; stroke-opacity:1; fill:none" points="1736.78,1377.32 2282.4,1377.32 2282.4,1221.8 1736.78,1221.8 1736.78,1377.32 "/>
<polyline clip-path="url(#clip260)" style="stroke:#009af9; stroke-linecap:round; stroke-linejoin:round; stroke-width:4; stroke-opacity:1; fill:none" points="1760.23,1273.64 1900.94,1273.64 "/>
<path clip-path="url(#clip260)" d="M1929.07 1274.41 L1929.07 1287.07 L1936.57 1287.07 Q1940.34 1287.07 1942.15 1285.52 Q1943.98 1283.95 1943.98 1280.73 Q1943.98 1277.49 1942.15 1275.96 Q1940.34 1274.41 1936.57 1274.41 L1929.07 1274.41 M1929.07 1260.2 L1929.07 1270.61 L1935.99 1270.61 Q1939.42 1270.61 1941.08 1269.34 Q1942.77 1268.05 1942.77 1265.41 Q1942.77 1262.79 1941.08 1261.49 Q1939.42 1260.2 1935.99 1260.2 L1929.07 1260.2 M1924.39 1256.36 L1936.34 1256.36 Q1941.68 1256.36 1944.58 1258.58 Q1947.47 1260.8 1947.47 1264.9 Q1947.47 1268.07 1945.99 1269.94 Q1944.51 1271.82 1941.64 1272.28 Q1945.09 1273.02 1946.98 1275.38 Q1948.91 1277.72 1948.91 1281.24 Q1948.91 1285.87 1945.76 1288.39 Q1942.61 1290.92 1936.8 1290.92 L1924.39 1290.92 L1924.39 1256.36 Z" fill="#000000" fill-rule="nonzero" fill-opacity="1" /><path clip-path="url(#clip260)" d="M1961.59 1274.41 L1961.59 1287.07 L1969.09 1287.07 Q1972.86 1287.07 1974.67 1285.52 Q1976.5 1283.95 1976.5 1280.73 Q1976.5 1277.49 1974.67 1275.96 Q1972.86 1274.41 1969.09 1274.41 L1961.59 1274.41 M1961.59 1260.2 L1961.59 1270.61 L1968.51 1270.61 Q1971.94 1270.61 1973.6 1269.34 Q1975.29 1268.05 1975.29 1265.41 Q1975.29 1262.79 1973.6 1261.49 Q1971.94 1260.2 1968.51 1260.2 L1961.59 1260.2 M1956.92 1256.36 L1968.86 1256.36 Q1974.21 1256.36 1977.1 1258.58 Q1979.99 1260.8 1979.99 1264.9 Q1979.99 1268.07 1978.51 1269.94 Q1977.03 1271.82 1974.16 1272.28 Q1977.61 1273.02 1979.51 1275.38 Q1981.43 1277.72 1981.43 1281.24 Q1981.43 1285.87 1978.28 1288.39 Q1975.13 1290.92 1969.32 1290.92 L1956.92 1290.92 L1956.92 1256.36 Z" fill="#000000" fill-rule="nonzero" fill-opacity="1" /><path clip-path="url(#clip260)" d="M1996.89 1290.92 L1983.7 1256.36 L1988.58 1256.36 L1999.53 1285.45 L2010.5 1256.36 L2015.36 1256.36 L2002.19 1290.92 L1996.89 1290.92 Z" fill="#000000" fill-rule="nonzero" fill-opacity="1" /><path clip-path="url(#clip260)" d="M2020.41 1256.36 L2025.09 1256.36 L2025.09 1290.92 L2020.41 1290.92 L2020.41 1256.36 Z" fill="#000000" fill-rule="nonzero" fill-opacity="1" /><path clip-path="url(#clip260)" d="M2075.34 1259.02 L2075.34 1263.95 Q2072.98 1261.75 2070.29 1260.66 Q2067.63 1259.57 2064.62 1259.57 Q2058.7 1259.57 2055.55 1263.21 Q2052.4 1266.82 2052.4 1273.67 Q2052.4 1280.5 2055.55 1284.13 Q2058.7 1287.74 2064.62 1287.74 Q2067.63 1287.74 2070.29 1286.66 Q2072.98 1285.57 2075.34 1283.37 L2075.34 1288.25 Q2072.89 1289.92 2070.13 1290.75 Q2067.4 1291.59 2064.35 1291.59 Q2056.5 1291.59 2051.98 1286.79 Q2047.47 1281.98 2047.47 1273.67 Q2047.47 1265.34 2051.98 1260.55 Q2056.5 1255.73 2064.35 1255.73 Q2067.45 1255.73 2070.18 1256.56 Q2072.93 1257.37 2075.34 1259.02 Z" fill="#000000" fill-rule="nonzero" fill-opacity="1" /><path clip-path="url(#clip260)" d="M2082.56 1256.36 L2102.42 1256.36 L2102.42 1260.29 L2087.24 1260.29 L2087.24 1270.48 L2100.94 1270.48 L2100.94 1274.41 L2087.24 1274.41 L2087.24 1290.92 L2082.56 1290.92 L2082.56 1256.36 Z" fill="#000000" fill-rule="nonzero" fill-opacity="1" /><path clip-path="url(#clip260)" d="M2109.83 1256.36 L2131.68 1256.36 L2131.68 1260.29 L2114.51 1260.29 L2114.51 1270.52 L2130.97 1270.52 L2130.97 1274.46 L2114.51 1274.46 L2114.51 1286.98 L2132.1 1286.98 L2132.1 1290.92 L2109.83 1290.92 L2109.83 1256.36 Z" fill="#000000" fill-rule="nonzero" fill-opacity="1" /><polyline clip-path="url(#clip260)" style="stroke:#e26f46; stroke-linecap:round; stroke-linejoin:round; stroke-width:4; stroke-opacity:1; fill:none" points="1760.23,1325.48 1900.94,1325.48 "/>
<path clip-path="url(#clip260)" d="M1929.07 1326.25 L1929.07 1338.91 L1936.57 1338.91 Q1940.34 1338.91 1942.15 1337.36 Q1943.98 1335.79 1943.98 1332.57 Q1943.98 1329.33 1942.15 1327.8 Q1940.34 1326.25 1936.57 1326.25 L1929.07 1326.25 M1929.07 1312.04 L1929.07 1322.45 L1935.99 1322.45 Q1939.42 1322.45 1941.08 1321.18 Q1942.77 1319.89 1942.77 1317.25 Q1942.77 1314.63 1941.08 1313.33 Q1939.42 1312.04 1935.99 1312.04 L1929.07 1312.04 M1924.39 1308.2 L1936.34 1308.2 Q1941.68 1308.2 1944.58 1310.42 Q1947.47 1312.64 1947.47 1316.74 Q1947.47 1319.91 1945.99 1321.78 Q1944.51 1323.66 1941.64 1324.12 Q1945.09 1324.86 1946.98 1327.22 Q1948.91 1329.56 1948.91 1333.08 Q1948.91 1337.71 1945.76 1340.23 Q1942.61 1342.76 1936.8 1342.76 L1924.39 1342.76 L1924.39 1308.2 Z" fill="#000000" fill-rule="nonzero" fill-opacity="1" /><path clip-path="url(#clip260)" d="M1961.59 1326.25 L1961.59 1338.91 L1969.09 1338.91 Q1972.86 1338.91 1974.67 1337.36 Q1976.5 1335.79 1976.5 1332.57 Q1976.5 1329.33 1974.67 1327.8 Q1972.86 1326.25 1969.09 1326.25 L1961.59 1326.25 M1961.59 1312.04 L1961.59 1322.45 L1968.51 1322.45 Q1971.94 1322.45 1973.6 1321.18 Q1975.29 1319.89 1975.29 1317.25 Q1975.29 1314.63 1973.6 1313.33 Q1971.94 1312.04 1968.51 1312.04 L1961.59 1312.04 M1956.92 1308.2 L1968.86 1308.2 Q1974.21 1308.2 1977.1 1310.42 Q1979.99 1312.64 1979.99 1316.74 Q1979.99 1319.91 1978.51 1321.78 Q1977.03 1323.66 1974.16 1324.12 Q1977.61 1324.86 1979.51 1327.22 Q1981.43 1329.56 1981.43 1333.08 Q1981.43 1337.71 1978.28 1340.23 Q1975.13 1342.76 1969.32 1342.76 L1956.92 1342.76 L1956.92 1308.2 Z" fill="#000000" fill-rule="nonzero" fill-opacity="1" /><path clip-path="url(#clip260)" d="M1996.89 1342.76 L1983.7 1308.2 L1988.58 1308.2 L1999.53 1337.29 L2010.5 1308.2 L2015.36 1308.2 L2002.19 1342.76 L1996.89 1342.76 Z" fill="#000000" fill-rule="nonzero" fill-opacity="1" /><path clip-path="url(#clip260)" d="M2020.41 1308.2 L2025.09 1308.2 L2025.09 1342.76 L2020.41 1342.76 L2020.41 1308.2 Z" fill="#000000" fill-rule="nonzero" fill-opacity="1" /><path clip-path="url(#clip260)" d="M2075.34 1310.86 L2075.34 1315.79 Q2072.98 1313.59 2070.29 1312.5 Q2067.63 1311.41 2064.62 1311.41 Q2058.7 1311.41 2055.55 1315.05 Q2052.4 1318.66 2052.4 1325.51 Q2052.4 1332.34 2055.55 1335.97 Q2058.7 1339.58 2064.62 1339.58 Q2067.63 1339.58 2070.29 1338.5 Q2072.98 1337.41 2075.34 1335.21 L2075.34 1340.09 Q2072.89 1341.76 2070.13 1342.59 Q2067.4 1343.43 2064.35 1343.43 Q2056.5 1343.43 2051.98 1338.63 Q2047.47 1333.82 2047.47 1325.51 Q2047.47 1317.18 2051.98 1312.39 Q2056.5 1307.57 2064.35 1307.57 Q2067.45 1307.57 2070.18 1308.4 Q2072.93 1309.21 2075.34 1310.86 Z" fill="#000000" fill-rule="nonzero" fill-opacity="1" /><path clip-path="url(#clip260)" d="M2082.56 1308.2 L2102.42 1308.2 L2102.42 1312.13 L2087.24 1312.13 L2087.24 1322.32 L2100.94 1322.32 L2100.94 1326.25 L2087.24 1326.25 L2087.24 1342.76 L2082.56 1342.76 L2082.56 1308.2 Z" fill="#000000" fill-rule="nonzero" fill-opacity="1" /><path clip-path="url(#clip260)" d="M2109.83 1308.2 L2131.68 1308.2 L2131.68 1312.13 L2114.51 1312.13 L2114.51 1322.36 L2130.97 1322.36 L2130.97 1326.3 L2114.51 1326.3 L2114.51 1338.82 L2132.1 1338.82 L2132.1 1342.76 L2109.83 1342.76 L2109.83 1308.2 Z" fill="#000000" fill-rule="nonzero" fill-opacity="1" /><path clip-path="url(#clip260)" d="M2168.88 1311.37 Q2163.79 1311.37 2160.78 1315.16 Q2157.79 1318.96 2157.79 1325.51 Q2157.79 1332.04 2160.78 1335.83 Q2163.79 1339.63 2168.88 1339.63 Q2173.97 1339.63 2176.94 1335.83 Q2179.92 1332.04 2179.92 1325.51 Q2179.92 1318.96 2176.94 1315.16 Q2173.97 1311.37 2168.88 1311.37 M2175.43 1342.13 L2181.59 1348.87 L2175.94 1348.87 L2170.83 1343.33 Q2170.06 1343.38 2169.65 1343.4 Q2169.25 1343.43 2168.88 1343.43 Q2161.59 1343.43 2157.21 1338.57 Q2152.86 1333.68 2152.86 1325.51 Q2152.86 1317.32 2157.21 1312.45 Q2161.59 1307.57 2168.88 1307.57 Q2176.15 1307.57 2180.5 1312.45 Q2184.85 1317.32 2184.85 1325.51 Q2184.85 1331.53 2182.42 1335.81 Q2180.02 1340.09 2175.43 1342.13 Z" fill="#000000" fill-rule="nonzero" fill-opacity="1" /><path clip-path="url(#clip260)" d="M2192.17 1308.2 L2199.14 1308.2 L2207.96 1331.71 L2216.82 1308.2 L2223.79 1308.2 L2223.79 1342.76 L2219.23 1342.76 L2219.23 1312.41 L2210.32 1336.11 L2205.62 1336.11 L2196.71 1312.41 L2196.71 1342.76 L2192.17 1342.76 L2192.17 1308.2 Z" fill="#000000" fill-rule="nonzero" fill-opacity="1" /><path clip-path="url(#clip260)" d="M2258.95 1310.86 L2258.95 1315.79 Q2256.59 1313.59 2253.9 1312.5 Q2251.24 1311.41 2248.23 1311.41 Q2242.31 1311.41 2239.16 1315.05 Q2236.01 1318.66 2236.01 1325.51 Q2236.01 1332.34 2239.16 1335.97 Q2242.31 1339.58 2248.23 1339.58 Q2251.24 1339.58 2253.9 1338.5 Q2256.59 1337.41 2258.95 1335.21 L2258.95 1340.09 Q2256.5 1341.76 2253.74 1342.59 Q2251.01 1343.43 2247.96 1343.43 Q2240.11 1343.43 2235.59 1338.63 Q2231.08 1333.82 2231.08 1325.51 Q2231.08 1317.18 2235.59 1312.39 Q2240.11 1307.57 2247.96 1307.57 Q2251.06 1307.57 2253.79 1308.4 Q2256.54 1309.21 2258.95 1310.86 Z" fill="#000000" fill-rule="nonzero" fill-opacity="1" /></svg>
