<?xml version="1.0" encoding="utf-8"?>
<svg xmlns="http://www.w3.org/2000/svg" xmlns:xlink="http://www.w3.org/1999/xlink" width="600" height="400" viewBox="0 0 2400 1600">
<defs>
  <clipPath id="clip900">
    <rect x="0" y="0" width="2400" height="1600"/>
  </clipPath>
</defs>
<path clip-path="url(#clip900)" d="M0 1600 L2400 1600 L2400 0 L0 0  Z" fill="#ffffff" fill-rule="evenodd" fill-opacity="1"/>
<defs>
  <clipPath id="clip901">
    <rect x="202" y="47" width="2152" height="1377"/>
  </clipPath>
</defs>
<path clip-path="url(#clip900)" d="M242.135 1423.18 L2352.76 1423.18 L2352.76 47.2441 L242.135 47.2441  Z" fill="#ffffff" fill-rule="evenodd" fill-opacity="1"/>
<defs>
  <clipPath id="clip902">
    <rect x="242" y="47" width="2112" height="1377"/>
  </clipPath>
</defs>
<polyline clip-path="url(#clip902)" style="stroke:#000000; stroke-linecap:round; stroke-linejoin:round; stroke-width:2; stroke-opacity:0.1; fill:none" points="299.876,1423.18 299.876,47.2441 "/>
<polyline clip-path="url(#clip902)" style="stroke:#000000; stroke-linecap:round; stroke-linejoin:round; stroke-width:2; stroke-opacity:0.1; fill:none" points="798.162,1423.18 798.162,47.2441 "/>
<polyline clip-path="url(#clip902)" style="stroke:#000000; stroke-linecap:round; stroke-linejoin:round; stroke-width:2; stroke-opacity:0.1; fill:none" points="1296.45,1423.18 1296.45,47.2441 "/>
<polyline clip-path="url(#clip902)" style="stroke:#000000; stroke-linecap:round; stroke-linejoin:round; stroke-width:2; stroke-opacity:0.1; fill:none" points="1794.74,1423.18 1794.74,47.2441 "/>
<polyline clip-path="url(#clip902)" style="stroke:#000000; stroke-linecap:round; stroke-linejoin:round; stroke-width:2; stroke-opacity:0.1; fill:none" points="2293.02,1423.18 2293.02,47.2441 "/>
<polyline clip-path="url(#clip902)" style="stroke:#000000; stroke-linecap:round; stroke-linejoin:round; stroke-width:2; stroke-opacity:0.1; fill:none" points="242.135,1170.37 2352.76,1170.37 "/>
<polyline clip-path="url(#clip902)" style="stroke:#000000; stroke-linecap:round; stroke-linejoin:round; stroke-width:2; stroke-opacity:0.1; fill:none" points="242.135,859.952 2352.76,859.952 "/>
<polyline clip-path="url(#clip902)" style="stroke:#000000; stroke-linecap:round; stroke-linejoin:round; stroke-width:2; stroke-opacity:0.1; fill:none" points="242.135,549.531 2352.76,549.531 "/>
<polyline clip-path="url(#clip902)" style="stroke:#000000; stroke-linecap:round; stroke-linejoin:round; stroke-width:2; stroke-opacity:0.1; fill:none" points="242.135,239.11 2352.76,239.11 "/>
<polyline clip-path="url(#clip900)" style="stroke:#000000; stroke-linecap:round; stroke-linejoin:round; stroke-width:4; stroke-opacity:1; fill:none" points="242.135,1423.18 2352.76,1423.18 "/>
<polyline clip-path="url(#clip900)" style="stroke:#000000; stroke-linecap:round; stroke-linejoin:round; stroke-width:4; stroke-opacity:1; fill:none" points="299.876,1423.18 299.876,1404.28 "/>
<polyline clip-path="url(#clip900)" style="stroke:#000000; stroke-linecap:round; stroke-linejoin:round; stroke-width:4; stroke-opacity:1; fill:none" points="798.162,1423.18 798.162,1404.28 "/>
<polyline clip-path="url(#clip900)" style="stroke:#000000; stroke-linecap:round; stroke-linejoin:round; stroke-width:4; stroke-opacity:1; fill:none" points="1296.45,1423.18 1296.45,1404.28 "/>
<polyline clip-path="url(#clip900)" style="stroke:#000000; stroke-linecap:round; stroke-linejoin:round; stroke-width:4; stroke-opacity:1; fill:none" points="1794.74,1423.18 1794.74,1404.28 "/>
<polyline clip-path="url(#clip900)" style="stroke:#000000; stroke-linecap:round; stroke-linejoin:round; stroke-width:4; stroke-opacity:1; fill:none" points="2293.02,1423.18 2293.02,1404.28 "/>
<path clip-path="url(#clip900)" d="M299.876 1454.1 Q296.265 1454.1 294.436 1457.66 Q292.631 1461.2 292.631 1468.33 Q292.631 1475.44 294.436 1479.01 Q296.265 1482.55 299.876 1482.55 Q303.51 1482.55 305.316 1479.01 Q307.145 1475.44 307.145 1468.33 Q307.145 1461.2 305.316 1457.66 Q303.51 1454.1 299.876 1454.1 M299.876 1450.39 Q305.686 1450.39 308.742 1455 Q311.82 1459.58 311.82 1468.33 Q311.82 1477.06 308.742 1481.67 Q305.686 1486.25 299.876 1486.25 Q294.066 1486.25 290.987 1481.67 Q287.932 1477.06 287.932 1468.33 Q287.932 1459.58 290.987 1455 Q294.066 1450.39 299.876 1450.39 Z" fill="#000000" fill-rule="nonzero" fill-opacity="1" /><path clip-path="url(#clip900)" d="M761.855 1481.64 L778.174 1481.64 L778.174 1485.58 L756.23 1485.58 L756.23 1481.64 Q758.892 1478.89 763.475 1474.26 Q768.082 1469.61 769.262 1468.27 Q771.507 1465.74 772.387 1464.01 Q773.29 1462.25 773.29 1460.56 Q773.29 1457.8 771.345 1456.07 Q769.424 1454.33 766.322 1454.33 Q764.123 1454.33 761.67 1455.09 Q759.239 1455.86 756.461 1457.41 L756.461 1452.69 Q759.285 1451.55 761.739 1450.97 Q764.193 1450.39 766.23 1450.39 Q771.6 1450.39 774.794 1453.08 Q777.989 1455.77 777.989 1460.26 Q777.989 1462.39 777.179 1464.31 Q776.392 1466.2 774.285 1468.8 Q773.707 1469.47 770.605 1472.69 Q767.503 1475.88 761.855 1481.64 Z" fill="#000000" fill-rule="nonzero" fill-opacity="1" /><path clip-path="url(#clip900)" d="M788.035 1451.02 L806.392 1451.02 L806.392 1454.96 L792.318 1454.96 L792.318 1463.43 Q793.336 1463.08 794.355 1462.92 Q795.373 1462.73 796.392 1462.73 Q802.179 1462.73 805.558 1465.9 Q808.938 1469.08 808.938 1474.49 Q808.938 1480.07 805.466 1483.17 Q801.993 1486.25 795.674 1486.25 Q793.498 1486.25 791.23 1485.88 Q788.984 1485.51 786.577 1484.77 L786.577 1480.07 Q788.66 1481.2 790.882 1481.76 Q793.105 1482.32 795.581 1482.32 Q799.586 1482.32 801.924 1480.21 Q804.262 1478.1 804.262 1474.49 Q804.262 1470.88 801.924 1468.77 Q799.586 1466.67 795.581 1466.67 Q793.706 1466.67 791.831 1467.08 Q789.98 1467.5 788.035 1468.38 L788.035 1451.02 Z" fill="#000000" fill-rule="nonzero" fill-opacity="1" /><path clip-path="url(#clip900)" d="M828.151 1454.1 Q824.54 1454.1 822.711 1457.66 Q820.905 1461.2 820.905 1468.33 Q820.905 1475.44 822.711 1479.01 Q824.54 1482.55 828.151 1482.55 Q831.785 1482.55 833.59 1479.01 Q835.419 1475.44 835.419 1468.33 Q835.419 1461.2 833.59 1457.66 Q831.785 1454.1 828.151 1454.1 M828.151 1450.39 Q833.961 1450.39 837.016 1455 Q840.095 1459.58 840.095 1468.33 Q840.095 1477.06 837.016 1481.67 Q833.961 1486.25 828.151 1486.25 Q822.341 1486.25 819.262 1481.67 Q816.206 1477.06 816.206 1468.33 Q816.206 1459.58 819.262 1455 Q822.341 1450.39 828.151 1450.39 Z" fill="#000000" fill-rule="nonzero" fill-opacity="1" /><path clip-path="url(#clip900)" d="M1256.07 1451.02 L1274.42 1451.02 L1274.42 1454.96 L1260.35 1454.96 L1260.35 1463.43 Q1261.37 1463.08 1262.39 1462.92 Q1263.4 1462.73 1264.42 1462.73 Q1270.21 1462.73 1273.59 1465.9 Q1276.97 1469.08 1276.97 1474.49 Q1276.97 1480.07 1273.5 1483.17 Q1270.03 1486.25 1263.71 1486.25 Q1261.53 1486.25 1259.26 1485.88 Q1257.02 1485.51 1254.61 1484.77 L1254.61 1480.07 Q1256.69 1481.2 1258.91 1481.76 Q1261.14 1482.32 1263.61 1482.32 Q1267.62 1482.32 1269.96 1480.21 Q1272.29 1478.1 1272.29 1474.49 Q1272.29 1470.88 1269.96 1468.77 Q1267.62 1466.67 1263.61 1466.67 Q1261.74 1466.67 1259.86 1467.08 Q1258.01 1467.5 1256.07 1468.38 L1256.07 1451.02 Z" fill="#000000" fill-rule="nonzero" fill-opacity="1" /><path clip-path="url(#clip900)" d="M1296.18 1454.1 Q1292.57 1454.1 1290.74 1457.66 Q1288.94 1461.2 1288.94 1468.33 Q1288.94 1475.44 1290.74 1479.01 Q1292.57 1482.55 1296.18 1482.55 Q1299.82 1482.55 1301.62 1479.01 Q1303.45 1475.44 1303.45 1468.33 Q1303.45 1461.2 1301.62 1457.66 Q1299.82 1454.1 1296.18 1454.1 M1296.18 1450.39 Q1301.99 1450.39 1305.05 1455 Q1308.13 1459.58 1308.13 1468.33 Q1308.13 1477.06 1305.05 1481.67 Q1301.99 1486.25 1296.18 1486.25 Q1290.37 1486.25 1287.29 1481.67 Q1284.24 1477.06 1284.24 1468.33 Q1284.24 1459.58 1287.29 1455 Q1290.37 1450.39 1296.18 1450.39 Z" fill="#000000" fill-rule="nonzero" fill-opacity="1" /><path clip-path="url(#clip900)" d="M1326.34 1454.1 Q1322.73 1454.1 1320.9 1457.66 Q1319.1 1461.2 1319.1 1468.33 Q1319.1 1475.44 1320.9 1479.01 Q1322.73 1482.55 1326.34 1482.55 Q1329.98 1482.55 1331.78 1479.01 Q1333.61 1475.44 1333.61 1468.33 Q1333.61 1461.2 1331.78 1457.66 Q1329.98 1454.1 1326.34 1454.1 M1326.34 1450.39 Q1332.15 1450.39 1335.21 1455 Q1338.29 1459.58 1338.29 1468.33 Q1338.29 1477.06 1335.21 1481.67 Q1332.15 1486.25 1326.34 1486.25 Q1320.53 1486.25 1317.46 1481.67 Q1314.4 1477.06 1314.4 1468.33 Q1314.4 1459.58 1317.46 1455 Q1320.53 1450.39 1326.34 1450.39 Z" fill="#000000" fill-rule="nonzero" fill-opacity="1" /><path clip-path="url(#clip900)" d="M1753.01 1451.02 L1775.23 1451.02 L1775.23 1453.01 L1762.69 1485.58 L1757.8 1485.58 L1769.61 1454.96 L1753.01 1454.96 L1753.01 1451.02 Z" fill="#000000" fill-rule="nonzero" fill-opacity="1" /><path clip-path="url(#clip900)" d="M1784.4 1451.02 L1802.76 1451.02 L1802.76 1454.96 L1788.68 1454.96 L1788.68 1463.43 Q1789.7 1463.08 1790.72 1462.92 Q1791.74 1462.73 1792.76 1462.73 Q1798.54 1462.73 1801.92 1465.9 Q1805.3 1469.08 1805.3 1474.49 Q1805.3 1480.07 1801.83 1483.17 Q1798.36 1486.25 1792.04 1486.25 Q1789.86 1486.25 1787.59 1485.88 Q1785.35 1485.51 1782.94 1484.77 L1782.94 1480.07 Q1785.02 1481.2 1787.25 1481.76 Q1789.47 1482.32 1791.95 1482.32 Q1795.95 1482.32 1798.29 1480.21 Q1800.63 1478.1 1800.63 1474.49 Q1800.63 1470.88 1798.29 1468.77 Q1795.95 1466.67 1791.95 1466.67 Q1790.07 1466.67 1788.2 1467.08 Q1786.34 1467.5 1784.4 1468.38 L1784.4 1451.02 Z" fill="#000000" fill-rule="nonzero" fill-opacity="1" /><path clip-path="url(#clip900)" d="M1824.51 1454.1 Q1820.9 1454.1 1819.08 1457.66 Q1817.27 1461.2 1817.27 1468.33 Q1817.27 1475.44 1819.08 1479.01 Q1820.9 1482.55 1824.51 1482.55 Q1828.15 1482.55 1829.95 1479.01 Q1831.78 1475.44 1831.78 1468.33 Q1831.78 1461.2 1829.95 1457.66 Q1828.15 1454.1 1824.51 1454.1 M1824.51 1450.39 Q1830.33 1450.39 1833.38 1455 Q1836.46 1459.58 1836.46 1468.33 Q1836.46 1477.06 1833.38 1481.67 Q1830.33 1486.25 1824.51 1486.25 Q1818.7 1486.25 1815.63 1481.67 Q1812.57 1477.06 1812.57 1468.33 Q1812.57 1459.58 1815.63 1455 Q1818.7 1450.39 1824.51 1450.39 Z" fill="#000000" fill-rule="nonzero" fill-opacity="1" /><path clip-path="url(#clip900)" d="M2237.55 1481.64 L2245.19 1481.64 L2245.19 1455.28 L2236.88 1456.95 L2236.88 1452.69 L2245.14 1451.02 L2249.82 1451.02 L2249.82 1481.64 L2257.45 1481.64 L2257.45 1485.58 L2237.55 1485.58 L2237.55 1481.64 Z" fill="#000000" fill-rule="nonzero" fill-opacity="1" /><path clip-path="url(#clip900)" d="M2276.9 1454.1 Q2273.29 1454.1 2271.46 1457.66 Q2269.65 1461.2 2269.65 1468.33 Q2269.65 1475.44 2271.46 1479.01 Q2273.29 1482.55 2276.9 1482.55 Q2280.53 1482.55 2282.34 1479.01 Q2284.17 1475.44 2284.17 1468.33 Q2284.17 1461.2 2282.34 1457.66 Q2280.53 1454.1 2276.9 1454.1 M2276.9 1450.39 Q2282.71 1450.39 2285.76 1455 Q2288.84 1459.58 2288.84 1468.33 Q2288.84 1477.06 2285.76 1481.67 Q2282.71 1486.25 2276.9 1486.25 Q2271.09 1486.25 2268.01 1481.67 Q2264.95 1477.06 2264.95 1468.33 Q2264.95 1459.58 2268.01 1455 Q2271.09 1450.39 2276.9 1450.39 Z" fill="#000000" fill-rule="nonzero" fill-opacity="1" /><path clip-path="url(#clip900)" d="M2307.06 1454.1 Q2303.45 1454.1 2301.62 1457.66 Q2299.82 1461.2 2299.82 1468.33 Q2299.82 1475.44 2301.62 1479.01 Q2303.45 1482.55 2307.06 1482.55 Q2310.69 1482.55 2312.5 1479.01 Q2314.33 1475.44 2314.33 1468.33 Q2314.33 1461.2 2312.5 1457.66 Q2310.69 1454.1 2307.06 1454.1 M2307.06 1450.39 Q2312.87 1450.39 2315.93 1455 Q2319 1459.58 2319 1468.33 Q2319 1477.06 2315.93 1481.67 Q2312.87 1486.25 2307.06 1486.25 Q2301.25 1486.25 2298.17 1481.67 Q2295.12 1477.06 2295.12 1468.33 Q2295.12 1459.58 2298.17 1455 Q2301.25 1450.39 2307.06 1450.39 Z" fill="#000000" fill-rule="nonzero" fill-opacity="1" /><path clip-path="url(#clip900)" d="M2337.22 1454.1 Q2333.61 1454.1 2331.78 1457.66 Q2329.98 1461.2 2329.98 1468.33 Q2329.98 1475.44 2331.78 1479.01 Q2333.61 1482.55 2337.22 1482.55 Q2340.86 1482.55 2342.66 1479.01 Q2344.49 1475.44 2344.49 1468.33 Q2344.49 1461.2 2342.66 1457.66 Q2340.86 1454.1 2337.22 1454.1 M2337.22 1450.39 Q2343.03 1450.39 2346.09 1455 Q2349.17 1459.58 2349.17 1468.33 Q2349.17 1477.06 2346.09 1481.67 Q2343.03 1486.25 2337.22 1486.25 Q2331.41 1486.25 2328.33 1481.67 Q2325.28 1477.06 2325.28 1468.33 Q2325.28 1459.58 2328.33 1455 Q2331.41 1450.39 2337.22 1450.39 Z" fill="#000000" fill-rule="nonzero" fill-opacity="1" /><path clip-path="url(#clip900)" d="M1165.17 1520.52 L1171.6 1520.52 L1171.6 1568.04 L1165.17 1568.04 L1165.17 1520.52 Z" fill="#000000" fill-rule="nonzero" fill-opacity="1" /><path clip-path="url(#clip900)" d="M1189.93 1522.27 L1189.93 1532.4 L1201.99 1532.4 L1201.99 1536.95 L1189.93 1536.95 L1189.93 1556.3 Q1189.93 1560.66 1191.11 1561.9 Q1192.32 1563.14 1195.98 1563.14 L1201.99 1563.14 L1201.99 1568.04 L1195.98 1568.04 Q1189.2 1568.04 1186.62 1565.53 Q1184.04 1562.98 1184.04 1556.3 L1184.04 1536.95 L1179.74 1536.95 L1179.74 1532.4 L1184.04 1532.4 L1184.04 1522.27 L1189.93 1522.27 Z" fill="#000000" fill-rule="nonzero" fill-opacity="1" /><path clip-path="url(#clip900)" d="M1240.19 1548.76 L1240.19 1551.62 L1213.26 1551.62 Q1213.64 1557.67 1216.89 1560.85 Q1220.17 1564 1225.99 1564 Q1229.36 1564 1232.52 1563.17 Q1235.7 1562.35 1238.82 1560.69 L1238.82 1566.23 Q1235.67 1567.57 1232.36 1568.27 Q1229.05 1568.97 1225.64 1568.97 Q1217.11 1568.97 1212.11 1564 Q1207.15 1559.04 1207.15 1550.57 Q1207.15 1541.82 1211.86 1536.69 Q1216.6 1531.54 1224.62 1531.54 Q1231.81 1531.54 1235.98 1536.18 Q1240.19 1540.8 1240.19 1548.76 M1234.33 1547.04 Q1234.27 1542.23 1231.62 1539.37 Q1229.01 1536.5 1224.69 1536.5 Q1219.78 1536.5 1216.82 1539.27 Q1213.9 1542.04 1213.45 1547.07 L1234.33 1547.04 Z" fill="#000000" fill-rule="nonzero" fill-opacity="1" /><path clip-path="url(#clip900)" d="M1270.45 1537.87 Q1269.47 1537.3 1268.29 1537.04 Q1267.14 1536.76 1265.74 1536.76 Q1260.78 1536.76 1258.11 1540 Q1255.46 1543.22 1255.46 1549.27 L1255.46 1568.04 L1249.58 1568.04 L1249.58 1532.4 L1255.46 1532.4 L1255.46 1537.93 Q1257.31 1534.69 1260.27 1533.13 Q1263.23 1531.54 1267.46 1531.54 Q1268.07 1531.54 1268.8 1531.63 Q1269.53 1531.7 1270.42 1531.85 L1270.45 1537.87 Z" fill="#000000" fill-rule="nonzero" fill-opacity="1" /><path clip-path="url(#clip900)" d="M1292.8 1550.12 Q1285.7 1550.12 1282.96 1551.75 Q1280.23 1553.37 1280.23 1557.29 Q1280.23 1560.4 1282.26 1562.25 Q1284.33 1564.07 1287.86 1564.07 Q1292.73 1564.07 1295.66 1560.63 Q1298.62 1557.16 1298.62 1551.43 L1298.62 1550.12 L1292.8 1550.12 M1304.48 1547.71 L1304.48 1568.04 L1298.62 1568.04 L1298.62 1562.63 Q1296.62 1565.88 1293.63 1567.44 Q1290.63 1568.97 1286.31 1568.97 Q1280.83 1568.97 1277.58 1565.91 Q1274.37 1562.82 1274.37 1557.67 Q1274.37 1551.65 1278.38 1548.6 Q1282.42 1545.54 1290.41 1545.54 L1298.62 1545.54 L1298.62 1544.97 Q1298.62 1540.93 1295.95 1538.73 Q1293.31 1536.5 1288.5 1536.5 Q1285.45 1536.5 1282.55 1537.23 Q1279.65 1537.97 1276.98 1539.43 L1276.98 1534.02 Q1280.19 1532.78 1283.22 1532.17 Q1286.24 1531.54 1289.11 1531.54 Q1296.84 1531.54 1300.66 1535.55 Q1304.48 1539.56 1304.48 1547.71 Z" fill="#000000" fill-rule="nonzero" fill-opacity="1" /><path clip-path="url(#clip900)" d="M1322.34 1522.27 L1322.34 1532.4 L1334.4 1532.4 L1334.4 1536.95 L1322.34 1536.95 L1322.34 1556.3 Q1322.34 1560.66 1323.51 1561.9 Q1324.72 1563.14 1328.38 1563.14 L1334.4 1563.14 L1334.4 1568.04 L1328.38 1568.04 Q1321.6 1568.04 1319.03 1565.53 Q1316.45 1562.98 1316.45 1556.3 L1316.45 1536.95 L1312.15 1536.95 L1312.15 1532.4 L1316.45 1532.4 L1316.45 1522.27 L1322.34 1522.27 Z" fill="#000000" fill-rule="nonzero" fill-opacity="1" /><path clip-path="url(#clip900)" d="M1342.1 1532.4 L1347.96 1532.4 L1347.96 1568.04 L1342.1 1568.04 L1342.1 1532.4 M1342.1 1518.52 L1347.96 1518.52 L1347.96 1525.93 L1342.1 1525.93 L1342.1 1518.52 Z" fill="#000000" fill-rule="nonzero" fill-opacity="1" /><path clip-path="url(#clip900)" d="M1374.02 1536.5 Q1369.31 1536.5 1366.58 1540.19 Q1363.84 1543.85 1363.84 1550.25 Q1363.84 1556.65 1366.55 1560.34 Q1369.28 1564 1374.02 1564 Q1378.7 1564 1381.44 1560.31 Q1384.18 1556.62 1384.18 1550.25 Q1384.18 1543.92 1381.44 1540.23 Q1378.7 1536.5 1374.02 1536.5 M1374.02 1531.54 Q1381.66 1531.54 1386.02 1536.5 Q1390.38 1541.47 1390.38 1550.25 Q1390.38 1559 1386.02 1564 Q1381.66 1568.97 1374.02 1568.97 Q1366.35 1568.97 1361.99 1564 Q1357.66 1559 1357.66 1550.25 Q1357.66 1541.47 1361.99 1536.5 Q1366.35 1531.54 1374.02 1531.54 Z" fill="#000000" fill-rule="nonzero" fill-opacity="1" /><path clip-path="url(#clip900)" d="M1429.72 1546.53 L1429.72 1568.04 L1423.87 1568.04 L1423.87 1546.72 Q1423.87 1541.66 1421.89 1539.14 Q1419.92 1536.63 1415.97 1536.63 Q1411.23 1536.63 1408.5 1539.65 Q1405.76 1542.68 1405.76 1547.9 L1405.76 1568.04 L1399.87 1568.04 L1399.87 1532.4 L1405.76 1532.4 L1405.76 1537.93 Q1407.86 1534.72 1410.69 1533.13 Q1413.56 1531.54 1417.28 1531.54 Q1423.42 1531.54 1426.57 1535.36 Q1429.72 1539.14 1429.72 1546.53 Z" fill="#000000" fill-rule="nonzero" fill-opacity="1" /><polyline clip-path="url(#clip900)" style="stroke:#000000; stroke-linecap:round; stroke-linejoin:round; stroke-width:4; stroke-opacity:1; fill:none" points="242.135,1423.18 242.135,47.2441 "/>
<polyline clip-path="url(#clip900)" style="stroke:#000000; stroke-linecap:round; stroke-linejoin:round; stroke-width:4; stroke-opacity:1; fill:none" points="242.135,1170.37 261.032,1170.37 "/>
<polyline clip-path="url(#clip900)" style="stroke:#000000; stroke-linecap:round; stroke-linejoin:round; stroke-width:4; stroke-opacity:1; fill:none" points="242.135,859.952 261.032,859.952 "/>
<polyline clip-path="url(#clip900)" style="stroke:#000000; stroke-linecap:round; stroke-linejoin:round; stroke-width:4; stroke-opacity:1; fill:none" points="242.135,549.531 261.032,549.531 "/>
<polyline clip-path="url(#clip900)" style="stroke:#000000; stroke-linecap:round; stroke-linejoin:round; stroke-width:4; stroke-opacity:1; fill:none" points="242.135,239.11 261.032,239.11 "/>
<path clip-path="url(#clip900)" d="M114.26 1170.82 L143.936 1170.82 L143.936 1174.76 L114.26 1174.76 L114.26 1170.82 Z" fill="#000000" fill-rule="nonzero" fill-opacity="1" /><path clip-path="url(#clip900)" d="M168.195 1169.02 Q171.552 1169.74 173.427 1172.01 Q175.325 1174.27 175.325 1177.61 Q175.325 1182.72 171.806 1185.52 Q168.288 1188.32 161.806 1188.32 Q159.63 1188.32 157.315 1187.88 Q155.024 1187.47 152.57 1186.61 L152.57 1182.1 Q154.515 1183.23 156.829 1183.81 Q159.144 1184.39 161.667 1184.39 Q166.065 1184.39 168.357 1182.65 Q170.672 1180.92 170.672 1177.61 Q170.672 1174.55 168.519 1172.84 Q166.39 1171.1 162.57 1171.1 L158.542 1171.1 L158.542 1167.26 L162.755 1167.26 Q166.204 1167.26 168.033 1165.89 Q169.862 1164.51 169.862 1161.91 Q169.862 1159.25 167.964 1157.84 Q166.089 1156.4 162.57 1156.4 Q160.649 1156.4 158.45 1156.82 Q156.251 1157.24 153.612 1158.12 L153.612 1153.95 Q156.274 1153.21 158.589 1152.84 Q160.927 1152.47 162.987 1152.47 Q168.311 1152.47 171.413 1154.9 Q174.514 1157.31 174.514 1161.43 Q174.514 1164.3 172.871 1166.29 Q171.227 1168.26 168.195 1169.02 Z" fill="#000000" fill-rule="nonzero" fill-opacity="1" /><path clip-path="url(#clip900)" d="M194.19 1156.17 Q190.579 1156.17 188.75 1159.74 Q186.945 1163.28 186.945 1170.41 Q186.945 1177.51 188.75 1181.08 Q190.579 1184.62 194.19 1184.62 Q197.825 1184.62 199.63 1181.08 Q201.459 1177.51 201.459 1170.41 Q201.459 1163.28 199.63 1159.74 Q197.825 1156.17 194.19 1156.17 M194.19 1152.47 Q200 1152.47 203.056 1157.07 Q206.135 1161.66 206.135 1170.41 Q206.135 1179.13 203.056 1183.74 Q200 1188.32 194.19 1188.32 Q188.38 1188.32 185.301 1183.74 Q182.246 1179.13 182.246 1170.41 Q182.246 1161.66 185.301 1157.07 Q188.38 1152.47 194.19 1152.47 Z" fill="#000000" fill-rule="nonzero" fill-opacity="1" /><path clip-path="url(#clip900)" d="M114.26 860.404 L143.936 860.404 L143.936 864.339 L114.26 864.339 L114.26 860.404 Z" fill="#000000" fill-rule="nonzero" fill-opacity="1" /><path clip-path="url(#clip900)" d="M158.056 873.297 L174.376 873.297 L174.376 877.232 L152.431 877.232 L152.431 873.297 Q155.093 870.543 159.677 865.913 Q164.283 861.26 165.464 859.918 Q167.709 857.394 168.589 855.658 Q169.491 853.899 169.491 852.209 Q169.491 849.455 167.547 847.719 Q165.626 845.982 162.524 845.982 Q160.325 845.982 157.871 846.746 Q155.44 847.51 152.663 849.061 L152.663 844.339 Q155.487 843.205 157.94 842.626 Q160.394 842.047 162.431 842.047 Q167.802 842.047 170.996 844.732 Q174.19 847.418 174.19 851.908 Q174.19 854.038 173.38 855.959 Q172.593 857.857 170.487 860.45 Q169.908 861.121 166.806 864.339 Q163.704 867.533 158.056 873.297 Z" fill="#000000" fill-rule="nonzero" fill-opacity="1" /><path clip-path="url(#clip900)" d="M194.19 845.751 Q190.579 845.751 188.75 849.316 Q186.945 852.857 186.945 859.987 Q186.945 867.093 188.75 870.658 Q190.579 874.2 194.19 874.2 Q197.825 874.2 199.63 870.658 Q201.459 867.093 201.459 859.987 Q201.459 852.857 199.63 849.316 Q197.825 845.751 194.19 845.751 M194.19 842.047 Q200 842.047 203.056 846.654 Q206.135 851.237 206.135 859.987 Q206.135 868.714 203.056 873.32 Q200 877.904 194.19 877.904 Q188.38 877.904 185.301 873.32 Q182.246 868.714 182.246 859.987 Q182.246 851.237 185.301 846.654 Q188.38 842.047 194.19 842.047 Z" fill="#000000" fill-rule="nonzero" fill-opacity="1" /><path clip-path="url(#clip900)" d="M114.26 549.983 L143.936 549.983 L143.936 553.918 L114.26 553.918 L114.26 549.983 Z" fill="#000000" fill-rule="nonzero" fill-opacity="1" /><path clip-path="url(#clip900)" d="M154.839 562.876 L162.477 562.876 L162.477 536.51 L154.167 538.177 L154.167 533.918 L162.431 532.251 L167.107 532.251 L167.107 562.876 L174.746 562.876 L174.746 566.811 L154.839 566.811 L154.839 562.876 Z" fill="#000000" fill-rule="nonzero" fill-opacity="1" /><path clip-path="url(#clip900)" d="M194.19 535.33 Q190.579 535.33 188.75 538.895 Q186.945 542.436 186.945 549.566 Q186.945 556.672 188.75 560.237 Q190.579 563.779 194.19 563.779 Q197.825 563.779 199.63 560.237 Q201.459 556.672 201.459 549.566 Q201.459 542.436 199.63 538.895 Q197.825 535.33 194.19 535.33 M194.19 531.626 Q200 531.626 203.056 536.233 Q206.135 540.816 206.135 549.566 Q206.135 558.293 203.056 562.899 Q200 567.482 194.19 567.482 Q188.38 567.482 185.301 562.899 Q182.246 558.293 182.246 549.566 Q182.246 540.816 185.301 536.233 Q188.38 531.626 194.19 531.626 Z" fill="#000000" fill-rule="nonzero" fill-opacity="1" /><path clip-path="url(#clip900)" d="M194.19 224.909 Q190.579 224.909 188.75 228.473 Q186.945 232.015 186.945 239.145 Q186.945 246.251 188.75 249.816 Q190.579 253.358 194.19 253.358 Q197.825 253.358 199.63 249.816 Q201.459 246.251 201.459 239.145 Q201.459 232.015 199.63 228.473 Q197.825 224.909 194.19 224.909 M194.19 221.205 Q200 221.205 203.056 225.811 Q206.135 230.395 206.135 239.145 Q206.135 247.872 203.056 252.478 Q200 257.061 194.19 257.061 Q188.38 257.061 185.301 252.478 Q182.246 247.872 182.246 239.145 Q182.246 230.395 185.301 225.811 Q188.38 221.205 194.19 221.205 Z" fill="#000000" fill-rule="nonzero" fill-opacity="1" /><path clip-path="url(#clip900)" d="M16.4842 816.375 L16.4842 786.329 L21.895 786.329 L21.895 809.945 L35.9632 809.945 L35.9632 787.315 L41.3741 787.315 L41.3741 809.945 L58.5933 809.945 L58.5933 785.756 L64.0042 785.756 L64.0042 816.375 L16.4842 816.375 Z" fill="#000000" fill-rule="nonzero" fill-opacity="1" /><path clip-path="url(#clip900)" d="M16.4842 775.189 L16.4842 768.759 L58.5933 768.759 L58.5933 745.62 L64.0042 745.62 L64.0042 775.189 L16.4842 775.189 Z" fill="#000000" fill-rule="nonzero" fill-opacity="1" /><path clip-path="url(#clip900)" d="M41.3104 732.443 L58.7206 732.443 L58.7206 722.13 Q58.7206 716.942 56.5881 714.46 Q54.4238 711.945 49.9996 711.945 Q45.5436 711.945 43.4429 714.46 Q41.3104 716.942 41.3104 722.13 L41.3104 732.443 M21.7677 732.443 L36.0905 732.443 L36.0905 722.926 Q36.0905 718.216 34.34 715.924 Q32.5576 713.6 28.9291 713.6 Q25.3325 713.6 23.5501 715.924 Q21.7677 718.216 21.7677 722.926 L21.7677 732.443 M16.4842 738.872 L16.4842 722.449 Q16.4842 715.096 19.5397 711.118 Q22.5952 707.139 28.2289 707.139 Q32.5894 707.139 35.1675 709.176 Q37.7456 711.213 38.3822 715.16 Q39.4007 710.418 42.6472 707.808 Q45.8619 705.166 50.6998 705.166 Q57.0655 705.166 60.5348 709.495 Q64.0042 713.823 64.0042 721.812 L64.0042 738.872 L16.4842 738.872 Z" fill="#000000" fill-rule="nonzero" fill-opacity="1" /><path clip-path="url(#clip900)" d="M20.8447 676.011 Q20.8447 683.013 26.0645 687.151 Q31.2844 691.257 40.2919 691.257 Q49.2675 691.257 54.4874 687.151 Q59.7073 683.013 59.7073 676.011 Q59.7073 669.009 54.4874 664.935 Q49.2675 660.829 40.2919 660.829 Q31.2844 660.829 26.0645 664.935 Q20.8447 669.009 20.8447 676.011 M15.6248 676.011 Q15.6248 666.017 22.3406 660.033 Q29.0246 654.049 40.2919 654.049 Q51.5274 654.049 58.2432 660.033 Q64.9272 666.017 64.9272 676.011 Q64.9272 686.037 58.2432 692.052 Q51.5592 698.036 40.2919 698.036 Q29.0246 698.036 22.3406 692.052 Q15.6248 686.037 15.6248 676.011 Z" fill="#000000" fill-rule="nonzero" fill-opacity="1" /><polyline clip-path="url(#clip902)" style="stroke:#009af9; stroke-linecap:round; stroke-linejoin:round; stroke-width:4; stroke-opacity:1; fill:none" points="301.869,947.89 303.862,988.872 305.856,723.486 307.849,941.817 309.842,880.655 311.835,1179.21 313.828,563.094 315.821,796.891 317.814,1115.52 319.808,856.463 321.801,704.316 323.794,1384.24 325.787,846.389 327.78,918.978 329.773,1028.07 331.766,672.886 333.76,513.235 335.753,520.49 337.746,1069.88 339.739,545.004 341.732,510.426 343.725,541.792 345.718,523.285 347.712,619.056 349.705,1006.21 351.698,629.925 353.691,471.328 355.684,386.277 357.677,687.96 359.67,676.866 361.664,386.247 363.657,844.43 365.65,920.536 367.643,626.843 369.636,425.199 371.629,724.013 373.622,524.368 375.616,639.897 377.609,1098.48 379.602,595.094 381.595,403.744 383.588,719.543 385.581,519.927 387.574,639.268 389.568,652.39 391.561,439.252 393.554,603.627 395.547,545.759 397.54,493.281 399.533,554.797 401.526,396.43 403.52,307.587 405.513,399.433 407.506,486.43 409.499,560.536 411.492,913.522 413.485,743.229 415.479,386.297 417.472,659.734 419.465,366.03 421.458,652.372 423.451,502.798 425.444,789.168 427.437,511.877 429.431,569.668 431.424,674.81 433.417,660.163 435.41,170.409 437.403,607.13 439.396,741.097 441.389,801.862 443.383,626.868 445.376,639.148 447.369,546.127 449.362,704.022 451.355,596.239 453.348,643.436 455.341,339.595 457.335,325.924 459.328,580.865 461.321,552.409 463.314,710.697 465.307,436.333 467.3,440.325 469.293,672.871 471.287,357.753 473.28,663.882 475.273,732.186 477.266,578.871 479.259,872.28 481.252,1060.54 483.245,479.037 485.239,426.692 487.232,532.571 489.225,588.495 491.218,361.778 493.211,406.133 495.204,464.26 497.197,597.251 499.191,634.921 501.184,382.741 503.177,425.761 505.17,305.48 507.163,407.984 509.156,405.322 511.149,351.83 513.143,470.266 515.136,438.632 517.129,525.317 519.122,307.134 521.115,175.309 523.108,730.084 525.101,551.551 527.095,453.868 529.088,518.986 531.081,348.453 533.074,729.279 535.067,498.521 537.06,543.514 539.054,437.032 541.047,311.825 543.04,241.725 545.033,560.582 547.026,480.889 549.019,382.906 551.012,269.317 553.006,658.848 554.999,454.147 556.992,298.43 558.985,239.79 560.978,438.762 562.971,361.653 564.964,445.148 566.958,467.932 568.951,358.258 570.944,397.528 572.937,733.447 574.93,409.975 576.923,592.536 578.916,431.957 580.91,439.143 582.903,491.248 584.896,295.69 586.889,249.59 588.882,172.388 590.875,492.477 592.868,383.818 594.862,735.923 596.855,377.766 598.848,431.638 600.841,401.435 602.834,465.533 604.827,256.572 606.82,467.292 608.814,270.637 610.807,491.282 612.8,470.794 614.793,309.974 616.786,206.625 618.779,238.944 620.772,305.534 622.766,340.278 624.759,252.214 626.752,282.234 628.745,146.688 630.738,260.908 632.731,474.487 634.724,348.201 636.718,258.52 638.711,164.492 640.704,361.422 642.697,245.298 644.69,170.782 646.683,342.134 648.677,257.894 650.67,540.89 652.663,418.962 654.656,353.287 656.649,332.781 658.642,283.417 660.635,203.63 662.629,378.949 664.622,157.441 666.615,598.215 668.608,239.231 670.601,320.522 672.594,175.389 674.587,340.492 676.581,224.152 678.574,411.94 680.567,367.986 682.56,355.41 684.553,286.034 686.546,360.575 688.539,257.038 690.533,329.244 692.526,253.108 694.519,423.164 696.512,396.078 698.505,395.061 700.498,198.955 702.491,260.858 704.485,488.627 706.478,235.234 708.471,191.333 710.464,607.656 712.457,265.948 714.45,314.901 716.443,244.655 718.437,277.588 720.43,226.167 722.423,282.99 724.416,459.304 726.409,191.752 728.402,249.318 730.395,224.103 732.389,321.914 734.382,276.359 736.375,212.057 738.368,272.029 740.361,250.11 742.354,280.027 744.347,323.983 746.341,323.366 748.334,351.032 750.327,324.044 752.32,242.248 754.313,216.509 756.306,412.137 758.299,309.573 760.293,203.571 762.286,202.53 764.279,193.501 766.272,297.537 768.265,213.769 770.258,387.018 772.252,310.839 774.245,299.365 776.238,407.822 778.231,316.582 780.224,225.986 782.217,266.704 784.21,208.741 786.204,232.285 788.197,227.656 790.19,364.452 792.183,525.595 794.176,395.195 796.169,184.667 798.162,265.127 800.156,384.867 802.149,422.769 804.142,403.91 806.135,238.877 808.128,193.544 810.121,304.413 812.114,274.534 814.108,338.566 816.101,202.051 818.094,202.531 820.087,209.371 822.08,248.702 824.073,206.122 826.066,170.112 828.06,225.954 830.053,289.455 832.046,348.902 834.039,236.886 836.032,200.12 838.025,173.235 840.018,186.616 842.012,308.545 844.005,241.075 845.998,263.016 847.991,273.885 849.984,222.172 851.977,252.089 853.97,231.692 855.964,217.268 857.957,139.283 859.95,159.791 861.943,265.985 863.936,415.676 865.929,118.998 867.922,361.18 869.916,396.401 871.909,391.955 873.902,131.449 875.895,360.742 877.888,310.588 879.881,264.032 881.874,312.74 883.868,250.309 885.861,256.192 887.854,275.375 889.847,167.968 891.84,195.253 893.833,419.87 895.827,201.338 897.82,181.216 899.813,252.959 901.806,213.264 903.799,185.723 905.792,228.22 907.785,355.229 909.779,227.813 911.772,204.114 913.765,223.244 915.758,269.798 917.751,207.814 919.744,256.909 921.737,205.723 923.731,243.778 925.724,217.324 927.717,306.15 929.71,404.65 931.703,305.84 933.696,239.895 935.689,250.595 937.683,207.255 939.676,311.09 941.669,363.248 943.662,337.892 945.655,253.092 947.648,257.424 949.641,183.414 951.635,282.596 953.628,261.854 955.621,313.455 957.614,298.741 959.607,260.531 961.6,158.468 963.593,338.819 965.587,230.324 967.58,245.293 969.573,232.117 971.566,208.955 973.559,234.745 975.552,240.783 977.545,129.339 979.539,217.013 981.532,232.336 983.525,249.593 985.518,150.77 987.511,256.036 989.504,380.089 991.497,223.226 993.491,322.207 995.484,262.848 997.477,268.086 999.47,186.887 1001.46,172.202 1003.46,255.189 1005.45,176.513 1007.44,150.811 1009.44,204.89 1011.43,280.518 1013.42,225.991 1015.42,228.72 1017.41,301.684 1019.4,123.806 1021.39,226.772 1023.39,308.826 1025.38,268.219 1027.37,187.183 1029.37,154.114 1031.36,291.233 1033.35,238.748 1035.35,186.216 1037.34,429.107 1039.33,201.079 1041.33,450.285 1043.32,258.543 1045.31,556.383 1047.31,255.188 1049.3,163.475 1051.29,118.853 1053.28,151.47 1055.28,254.627 1057.27,197.124 1059.26,163.093 1061.26,195.749 1063.25,151.85 1065.24,333.097 1067.24,219.07 1069.23,307.299 1071.22,279.796 1073.22,285.618 1075.21,177.196 1077.2,154.245 1079.2,419.234 1081.19,293.906 1083.18,164.066 1085.18,144.464 1087.17,267.047 1089.16,212.896 1091.15,299.856 1093.15,239.955 1095.14,307.452 1097.13,125.594 1099.13,272.97 1101.12,227.944 1103.11,290.668 1105.11,293.267 1107.1,199.948 1109.09,311.48 1111.09,374.117 1113.08,227.776 1115.07,274.794 1117.07,129.409 1119.06,258.634 1121.05,340.336 1123.05,253.063 1125.04,195.583 1127.03,396.555 1129.02,256.397 1131.02,261.81 1133.01,243.605 1135,195.24 1137,196.113 1138.99,273.772 1140.98,234.969 1142.98,212.256 1144.97,236.954 1146.96,172.049 1148.96,144.164 1150.95,225.414 1152.94,273.932 1154.94,163.642 1156.93,216.099 1158.92,259.025 1160.91,344.366 1162.91,262.788 1164.9,279.73 1166.89,214.684 1168.89,168.206 1170.88,160.064 1172.87,280.458 1174.87,194.765 1176.86,176.23 1178.85,371.354 1180.85,233.32 1182.84,174.218 1184.83,324.084 1186.83,142.937 1188.82,185.108 1190.81,346.363 1192.81,248.715 1194.8,195.963 1196.79,180.488 1198.78,329.415 1200.78,242.2 1202.77,226.164 1204.76,249.781 1206.76,330.503 1208.75,205.858 1210.74,123.4 1212.74,208.353 1214.73,232.328 1216.72,193.384 1218.72,245.395 1220.71,237.007 1222.7,236.881 1224.7,189.219 1226.69,461.068 1228.68,234.579 1230.67,228.704 1232.67,183.543 1234.66,260.313 1236.65,374.307 1238.65,138.73 1240.64,110.696 1242.63,188.538 1244.63,164.716 1246.62,429.975 1248.61,376.705 1250.61,145.484 1252.6,192.92 1254.59,206.851 1256.59,244.308 1258.58,303.1 1260.57,286.277 1262.57,230.842 1264.56,242.458 1266.55,135.769 1268.54,212.251 1270.54,235.362 1272.53,203.078 1274.52,202.257 1276.52,144.457 1278.51,220.147 1280.5,307.77 1282.5,276.317 1284.49,314.976 1286.48,165.364 1288.48,223.696 1290.47,167.586 1292.46,322.213 1294.46,208.706 1296.45,155.861 1298.44,223.341 1300.44,405.216 1302.43,286.964 1304.42,324.054 1306.41,253.829 1308.41,399.127 1310.4,389.895 1312.39,148.866 1314.39,291.934 1316.38,230.531 1318.37,170.383 1320.37,222.348 1322.36,210.464 1324.35,147.93 1326.35,228.213 1328.34,220.442 1330.33,314.387 1332.33,205.096 1334.32,151.292 1336.31,184.417 1338.3,137.097 1340.3,162.293 1342.29,342.2 1344.28,241.798 1346.28,224.749 1348.27,242.454 1350.26,162.838 1352.26,180.077 1354.25,193.081 1356.24,190.334 1358.24,163.041 1360.23,283.473 1362.22,310.505 1364.22,213.44 1366.21,205.465 1368.2,209.548 1370.2,170.527 1372.19,290.356 1374.18,219.059 1376.17,176.083 1378.17,219.705 1380.16,187.043 1382.15,197.323 1384.15,182.971 1386.14,150.767 1388.13,298.727 1390.13,192.77 1392.12,244.572 1394.11,222.37 1396.11,154.583 1398.1,541.84 1400.09,292.768 1402.09,168.843 1404.08,230.56 1406.07,266.739 1408.06,208.3 1410.06,268.548 1412.05,278.502 1414.04,295.405 1416.04,140.033 1418.03,128.711 1420.02,306.11 1422.02,375.316 1424.01,246.589 1426,298.81 1428,216.186 1429.99,269.073 1431.98,262.4 1433.98,232.795 1435.97,195.337 1437.96,228.327 1439.96,197.013 1441.95,308.49 1443.94,453.74 1445.93,184.379 1447.93,315.217 1449.92,219.894 1451.91,187.446 1453.91,286.988 1455.9,217.145 1457.89,224.007 1459.89,332.453 1461.88,173.549 1463.87,167.584 1465.87,266.755 1467.86,179.174 1469.85,151.441 1471.85,173.876 1473.84,323.64 1475.83,348.207 1477.82,243.803 1479.82,330.121 1481.81,377.25 1483.8,309.209 1485.8,176.567 1487.79,205.631 1489.78,220.257 1491.78,168.112 1493.77,368.552 1495.76,161.303 1497.76,352.208 1499.75,196.494 1501.74,195.788 1503.74,374.573 1505.73,213.818 1507.72,275.023 1509.72,482.441 1511.71,200.79 1513.7,167.382 1515.69,267.826 1517.69,263.234 1519.68,151.518 1521.67,258.581 1523.67,260.938 1525.66,203.057 1527.65,334.045 1529.65,161.818 1531.64,212.757 1533.63,153.46 1535.63,301.175 1537.62,199.284 1539.61,386.289 1541.61,224.524 1543.6,360.545 1545.59,279.524 1547.59,193.541 1549.58,201.772 1551.57,222.706 1553.56,187.295 1555.56,142.153 1557.55,362.738 1559.54,170.982 1561.54,255.115 1563.53,162.517 1565.52,306.669 1567.52,226.096 1569.51,181.653 1571.5,324.417 1573.5,254.725 1575.49,371.719 1577.48,359.959 1579.48,147.605 1581.47,226.529 1583.46,146.125 1585.45,255.002 1587.45,247.49 1589.44,256.523 1591.43,255.026 1593.43,210.235 1595.42,190.302 1597.41,346.146 1599.41,258.378 1601.4,197.274 1603.39,199.797 1605.39,229.019 1607.38,303.193 1609.37,250.002 1611.37,244.758 1613.36,163.795 1615.35,279.166 1617.35,149.12 1619.34,226.171 1621.33,199.612 1623.32,187.758 1625.32,272.853 1627.31,259.948 1629.3,184.368 1631.3,207.714 1633.29,244.17 1635.28,212.572 1637.28,283.121 1639.27,179.934 1641.26,158.906 1643.26,272.074 1645.25,200.087 1647.24,194.141 1649.24,229.604 1651.23,355.414 1653.22,422.331 1655.21,211.456 1657.21,206.719 1659.2,146.72 1661.19,157.452 1663.19,279.26 1665.18,223.193 1667.17,261.283 1669.17,158.83 1671.16,153.6 1673.15,160.411 1675.15,212.18 1677.14,210.117 1679.13,215.113 1681.13,220.512 1683.12,187.428 1685.11,502.56 1687.11,150.524 1689.1,218.358 1691.09,372.086 1693.08,250.127 1695.08,124.501 1697.07,243.658 1699.06,223.098 1701.06,274.45 1703.05,155.8 1705.04,232.57 1707.04,173.549 1709.03,244.593 1711.02,301.948 1713.02,229.306 1715.01,242.215 1717,216.399 1719,398.216 1720.99,351.157 1722.98,283.435 1724.97,313.359 1726.97,223.088 1728.96,338.558 1730.95,235.56 1732.95,396.744 1734.94,299.224 1736.93,132.806 1738.93,182.896 1740.92,167.043 1742.91,185.292 1744.91,238.549 1746.9,300.853 1748.89,209.026 1750.89,190.897 1752.88,372.37 1754.87,273.253 1756.87,430.055 1758.86,243.601 1760.85,382.699 1762.84,293.838 1764.84,180.14 1766.83,248.427 1768.82,169.109 1770.82,347.619 1772.81,164.941 1774.8,235.846 1776.8,400.303 1778.79,351.334 1780.78,386.552 1782.78,317.825 1784.77,211.264 1786.76,245.56 1788.76,178.747 1790.75,323.821 1792.74,266.929 1794.74,320.619 1796.73,279.977 1798.72,230.686 1800.71,372.27 1802.71,336.631 1804.7,249.415 1806.69,259.157 1808.69,202.73 1810.68,191.157 1812.67,251.341 1814.67,143.883 1816.66,152.515 1818.65,232.267 1820.65,269.907 1822.64,224.999 1824.63,192.079 1826.63,149.141 1828.62,195.323 1830.61,232.593 1832.6,216.149 1834.6,229.259 1836.59,187.785 1838.58,458.985 1840.58,201.909 1842.57,233.402 1844.56,216.647 1846.56,221.632 1848.55,158.007 1850.54,306.387 1852.54,196.835 1854.53,281.678 1856.52,262.709 1858.52,202.386 1860.51,205.958 1862.5,307.886 1864.5,221.779 1866.49,223.371 1868.48,370.298 1870.47,203.507 1872.47,256.566 1874.46,248.663 1876.45,313.884 1878.45,189.655 1880.44,175.572 1882.43,163.982 1884.43,256.034 1886.42,199.55 1888.41,311.913 1890.41,245.015 1892.4,190.835 1894.39,267.266 1896.39,332.598 1898.38,249.063 1900.37,293.556 1902.36,291.029 1904.36,261.877 1906.35,159.185 1908.34,206.064 1910.34,208.533 1912.33,206.363 1914.32,195.649 1916.32,235.744 1918.31,222.912 1920.3,226.46 1922.3,281.286 1924.29,200.51 1926.28,249.379 1928.28,176.741 1930.27,205.745 1932.26,258.196 1934.26,116.465 1936.25,290.949 1938.24,254.325 1940.23,336.61 1942.23,158.278 1944.22,251.69 1946.21,128.742 1948.21,317.888 1950.2,272.527 1952.19,250.798 1954.19,210.261 1956.18,181.754 1958.17,297.464 1960.17,247.666 1962.16,231.454 1964.15,251.425 1966.15,164.905 1968.14,294.846 1970.13,240.533 1972.12,253.732 1974.12,250.454 1976.11,272.143 1978.1,213.872 1980.1,181.151 1982.09,199.172 1984.08,239.48 1986.08,265.376 1988.07,165.5 1990.06,179.633 1992.06,261.584 1994.05,268.29 1996.04,223.983 1998.04,258.719 2000.03,278.983 2002.02,185.556 2004.02,352.372 2006.01,141.151 2008,159.055 2009.99,213.081 2011.99,301.229 2013.98,164.25 2015.97,234.105 2017.97,184.643 2019.96,417.879 2021.95,187.45 2023.95,417.826 2025.94,258.485 2027.93,261.731 2029.93,204.521 2031.92,156.304 2033.91,203.054 2035.91,121.862 2037.9,255.363 2039.89,245.422 2041.89,199.57 2043.88,227.287 2045.87,175.329 2047.86,206.935 2049.86,190.286 2051.85,175.162 2053.84,260.661 2055.84,231.369 2057.83,256.77 2059.82,224.837 2061.82,105.958 2063.81,265.011 2065.8,230.075 2067.8,197.886 2069.79,304.183 2071.78,207.351 2073.78,287.5 2075.77,173.199 2077.76,278.882 2079.75,270.382 2081.75,213.471 2083.74,220.458 2085.73,178.935 2087.73,138.512 2089.72,390.343 2091.71,509.485 2093.71,307.441 2095.7,195.044 2097.69,169.843 2099.69,380.239 2101.68,202.413 2103.67,226.133 2105.67,241.684 2107.66,150.185 2109.65,163.376 2111.65,247.775 2113.64,211.346 2115.63,219.793 2117.62,227.412 2119.62,176.157 2121.61,291.056 2123.6,234.408 2125.6,134.052 2127.59,284.047 2129.58,354.851 2131.58,297.366 2133.57,143.143 2135.56,212.318 2137.56,194.548 2139.55,294.062 2141.54,197.671 2143.54,236.921 2145.53,455.459 2147.52,348.5 2149.51,233.358 2151.51,398.365 2153.5,315.587 2155.49,277.4 2157.49,210.002 2159.48,256.993 2161.47,139.844 2163.47,140.688 2165.46,173.957 2167.45,211.713 2169.45,201.619 2171.44,145.247 2173.43,147.359 2175.43,387.134 2177.42,434.395 2179.41,228.545 2181.41,301.318 2183.4,185.813 2185.39,323.849 2187.38,172.466 2189.38,195.183 2191.37,290.45 2193.36,256.644 2195.36,166.151 2197.35,123.2 2199.34,212.686 2201.34,290.426 2203.33,243.78 2205.32,299.026 2207.32,288.595 2209.31,314.866 2211.3,251.466 2213.3,330.19 2215.29,309.769 2217.28,201.325 2219.27,238.444 2221.27,269.034 2223.26,189.763 2225.25,192.739 2227.25,273.371 2229.24,146.857 2231.23,183.443 2233.23,400.388 2235.22,221 2237.21,298.263 2239.21,213.457 2241.2,168.087 2243.19,182.513 2245.19,268.944 2247.18,199.324 2249.17,235.031 2251.17,257.338 2253.16,243.6 2255.15,187.82 2257.14,226.321 2259.14,491.363 2261.13,244.277 2263.12,266.999 2265.12,182.813 2267.11,301.853 2269.1,253.975 2271.1,183.37 2273.09,246.095 2275.08,251.223 2277.08,418.02 2279.07,252.28 2281.06,193.364 2283.06,137.268 2285.05,376.226 2287.04,269.182 2289.04,150.512 2291.03,232.189 2293.02,251.114 "/>
<polyline clip-path="url(#clip902)" style="stroke:#e26f46; stroke-linecap:round; stroke-linejoin:round; stroke-width:4; stroke-opacity:1; fill:none" points="301.869,1240.11 303.862,732.538 305.856,977.569 307.849,1056.27 309.842,977.39 311.835,740.416 313.828,673.297 315.821,803.838 317.814,682.42 319.808,834.585 321.801,899.323 323.794,561.779 325.787,522.961 327.78,1101.54 329.773,938.045 331.766,859.039 333.76,988.314 335.753,335.918 337.746,501.61 339.739,524.605 341.732,380.132 343.725,913.513 345.718,875.726 347.712,755.468 349.705,708.614 351.698,724.732 353.691,932.145 355.684,799.311 357.677,554.674 359.67,840.808 361.664,556.579 363.657,850.377 365.65,423.312 367.643,525.165 369.636,608.145 371.629,554.101 373.622,543.839 375.616,784.787 377.609,533.525 379.602,944.031 381.595,661.245 383.588,800.241 385.581,448.1 387.574,781.709 389.568,707.097 391.561,765.931 393.554,845.436 395.547,513.88 397.54,604.683 399.533,835.372 401.526,687.066 403.52,547.764 405.513,748.371 407.506,522.318 409.499,590.351 411.492,735.159 413.485,646.571 415.479,409.907 417.472,526.031 419.465,421.721 421.458,474.604 423.451,534.044 425.444,791.267 427.437,671.267 429.431,413.507 431.424,494.678 433.417,779.168 435.41,375.298 437.403,525.295 439.396,382.516 441.389,696.528 443.383,355.457 445.376,627.217 447.369,442.536 449.362,528.129 451.355,439.756 453.348,546.466 455.341,402.921 457.335,495.47 459.328,558.322 461.321,415.27 463.314,566.419 465.307,543.007 467.3,534.09 469.293,464.95 471.287,603.805 473.28,343.616 475.273,454.054 477.266,512.345 479.259,388.451 481.252,86.1857 483.245,416.727 485.239,542.303 487.232,677.274 489.225,442.425 491.218,486.593 493.211,328.327 495.204,553.525 497.197,534.353 499.191,269.529 501.184,469.569 503.177,490.772 505.17,469.271 507.163,515.225 509.156,450.443 511.149,319.714 513.143,444.966 515.136,436.103 517.129,331.205 519.122,395.971 521.115,391.152 523.108,360.569 525.101,433.345 527.095,503.312 529.088,594.576 531.081,548.282 533.074,413.68 535.067,383.269 537.06,501.307 539.054,263.353 541.047,393.441 543.04,247.156 545.033,436.772 547.026,377.027 549.019,342.5 551.012,275.313 553.006,392.597 554.999,486.155 556.992,426.34 558.985,427.874 560.978,295.516 562.971,359.349 564.964,362.152 566.958,318.749 568.951,360.447 570.944,426.153 572.937,262.486 574.93,256.778 576.923,403.485 578.916,437.591 580.91,314.556 582.903,354.603 584.896,478.709 586.889,185.585 588.882,381.261 590.875,386.394 592.868,356.669 594.862,179.555 596.855,408.712 598.848,254.087 600.841,307.112 602.834,243.081 604.827,301.782 606.82,319.22 608.814,340.24 610.807,299.011 612.8,344.959 614.793,369.466 616.786,296.691 618.779,285.557 620.772,473.976 622.766,310.321 624.759,287.238 626.752,313.406 628.745,335.703 630.738,356.244 632.731,331.371 634.724,343.087 636.718,418.779 638.711,245.738 640.704,301.053 642.697,212.23 644.69,215.496 646.683,397.694 648.677,282.099 650.67,329.947 652.663,281.898 654.656,364.087 656.649,289.895 658.642,289.444 660.635,186.735 662.629,336.119 664.622,270.46 666.615,383.472 668.608,298.603 670.601,269.65 672.594,352.21 674.587,248.125 676.581,303.038 678.574,329.654 680.567,267.571 682.56,284.207 684.553,278.253 686.546,297.076 688.539,275.262 690.533,253.281 692.526,303.413 694.519,276.88 696.512,250.428 698.505,267.196 700.498,250.258 702.491,268.631 704.485,237.863 706.478,365.013 708.471,290.766 710.464,247.476 712.457,219.109 714.45,271.686 716.443,222.703 718.437,251.872 720.43,283.064 722.423,318.968 724.416,288.241 726.409,247.309 728.402,292.679 730.395,245.383 732.389,297.889 734.382,293.3 736.375,247.348 738.368,263.336 740.361,289.969 742.354,269.874 744.347,250.31 746.341,243.204 748.334,230.855 750.327,249.175 752.32,299.133 754.313,251.304 756.306,276.012 758.299,289.836 760.293,302.759 762.286,286.327 764.279,351.406 766.272,255.727 768.265,239.795 770.258,203.148 772.252,252.542 774.245,281.857 776.238,238.909 778.231,210.238 780.224,296.573 782.217,249.773 784.21,256.148 786.204,209.215 788.197,250.096 790.19,307.975 792.183,290.648 794.176,265.918 796.169,296.04 798.162,248.246 800.156,241.968 802.149,212.562 804.142,241.296 806.135,323.1 808.128,277.223 810.121,214.382 812.114,234.32 814.108,243.378 816.101,231.598 818.094,258.131 820.087,282.409 822.08,254.297 824.073,253.262 826.066,275.723 828.06,230.688 830.053,247.882 832.046,265.041 834.039,232.99 836.032,278.546 838.025,245.44 840.018,271.871 842.012,235.773 844.005,216.719 845.998,263.074 847.991,242.041 849.984,248.619 851.977,226.588 853.97,205.036 855.964,203.599 857.957,234.981 859.95,219.869 861.943,207.694 863.936,243.219 865.929,243.629 867.922,270.991 869.916,262.288 871.909,252.003 873.902,241.507 875.895,217.716 877.888,220.79 879.881,209.778 881.874,209.64 883.868,223.259 885.861,213.026 887.854,211.174 889.847,237.699 891.84,235.407 893.833,242.494 895.827,268.906 897.82,248.738 899.813,266.35 901.806,266.225 903.799,251.147 905.792,248.384 907.785,258.43 909.779,232.418 911.772,244.55 913.765,217.008 915.758,233.843 917.751,249.106 919.744,233.198 921.737,240.766 923.731,259.747 925.724,256.755 927.717,258.39 929.71,256.41 931.703,217.943 933.696,261.867 935.689,229.535 937.683,252.61 939.676,242.857 941.669,231.51 943.662,236.75 945.655,244.889 947.648,235.82 949.641,243.959 951.635,241.745 953.628,249.015 955.621,256.334 957.614,238.721 959.607,226.082 961.6,260.164 963.593,238.94 965.587,239.922 967.58,243.523 969.573,243.463 971.566,238.936 973.559,254.387 975.552,232.557 977.545,251.552 979.539,237.86 981.532,245.305 983.525,237.606 985.518,237.677 987.511,238.695 989.504,255.801 991.497,247.082 993.491,246.936 995.484,247.957 997.477,227.78 999.47,246.669 1001.46,242.228 1003.46,248.694 1005.45,225.796 1007.44,254.181 1009.44,225.436 1011.43,234.113 1013.42,248.412 1015.42,232.076 1017.41,223.255 1019.4,230.591 1021.39,245.239 1023.39,241.118 1025.38,248.788 1027.37,238.631 1029.37,234.132 1031.36,234.891 1033.35,245.924 1035.35,238.573 1037.34,245.509 1039.33,227.854 1041.33,230.061 1043.32,240.47 1045.31,244.473 1047.31,238.53 1049.3,236.228 1051.29,236.534 1053.28,244.953 1055.28,244.312 1057.27,253.657 1059.26,235.599 1061.26,246.968 1063.25,231.638 1065.24,233.993 1067.24,244.302 1069.23,231.326 1071.22,230.797 1073.22,239.288 1075.21,239.578 1077.2,239.097 1079.2,241.066 1081.19,238.922 1083.18,243.39 1085.18,237.277 1087.17,238.574 1089.16,241.264 1091.15,242.323 1093.15,239.245 1095.14,241.446 1097.13,241.502 1099.13,242.169 1101.12,245.311 1103.11,243.274 1105.11,239.835 1107.1,243.737 1109.09,243.035 1111.09,237.413 1113.08,235.995 1115.07,236.045 1117.07,241.152 1119.06,246.655 1121.05,241.572 1123.05,236.461 1125.04,243.799 1127.03,241.102 1129.02,236.375 1131.02,240.61 1133.01,230.92 1135,235.517 1137,233.347 1138.99,233.835 1140.98,237.113 1142.98,246.775 1144.97,232.371 1146.96,234.874 1148.96,240.415 1150.95,242.318 1152.94,239.85 1154.94,242.747 1156.93,239.409 1158.92,234.119 1160.91,244.936 1162.91,242.272 1164.9,235.702 1166.89,242.191 1168.89,247.188 1170.88,244.463 1172.87,242.148 1174.87,242.174 1176.86,239.225 1178.85,240.395 1180.85,241.828 1182.84,239.015 1184.83,239.454 1186.83,238.028 1188.82,235.665 1190.81,241.43 1192.81,239.399 1194.8,244.22 1196.79,238.664 1198.78,238.821 1200.78,235.316 1202.77,241.045 1204.76,242.161 1206.76,240.804 1208.75,240.59 1210.74,240.274 1212.74,242.726 1214.73,240.211 1216.72,240.084 1218.72,235.882 1220.71,240.382 1222.7,242.842 1224.7,236.512 1226.69,238.206 1228.68,236.066 1230.67,236.45 1232.67,242.991 1234.66,238.912 1236.65,240.176 1238.65,237.411 1240.64,240.881 1242.63,238.247 1244.63,238.857 1246.62,238.57 1248.61,236.514 1250.61,240.529 1252.6,241.287 1254.59,240.604 1256.59,241.526 1258.58,241.045 1260.57,239.428 1262.57,239.078 1264.56,238.433 1266.55,237.156 1268.54,240.352 1270.54,239.734 1272.53,239.265 1274.52,236.508 1276.52,239.145 1278.51,239.922 1280.5,239.602 1282.5,238.126 1284.49,239.2 1286.48,238.264 1288.48,238.483 1290.47,238.209 1292.46,239.997 1294.46,240.066 1296.45,239.071 1298.44,238.266 1300.44,239.603 1302.43,240.285 1304.42,239.608 1306.41,239.066 1308.41,238.727 1310.4,239.071 1312.39,238.264 1314.39,238.7 1316.38,240.129 1318.37,237.954 1320.37,237.117 1322.36,239.538 1324.35,240.29 1326.35,239.824 1328.34,240.432 1330.33,238.211 1332.33,238.538 1334.32,240.216 1336.31,238.55 1338.3,240.809 1340.3,238.955 1342.29,237.849 1344.28,239.544 1346.28,239.902 1348.27,238.736 1350.26,239.091 1352.26,239.954 1354.25,239.415 1356.24,238.319 1358.24,238.853 1360.23,238.348 1362.22,239.212 1364.22,239.646 1366.21,238.686 1368.2,239.579 1370.2,238.298 1372.19,238.418 1374.18,239.446 1376.17,238.455 1378.17,239.907 1380.16,239.535 1382.15,238.934 1384.15,239.214 1386.14,239.826 1388.13,239.475 1390.13,238.954 1392.12,239.324 1394.11,239.866 1396.11,238.89 1398.1,238.593 1400.09,238.005 1402.09,239.374 1404.08,238.693 1406.07,238.726 1408.06,239.079 1410.06,239.591 1412.05,238.828 1414.04,239.631 1416.04,239.126 1418.03,238.979 1420.02,238.393 1422.02,239.356 1424.01,238.467 1426,239.753 1428,238.627 1429.99,238.961 1431.98,238.455 1433.98,239.359 1435.97,239.548 1437.96,239.03 1439.96,239.508 1441.95,239.706 1443.94,238.769 1445.93,238.774 1447.93,238.89 1449.92,239.432 1451.91,239.219 1453.91,238.897 1455.9,239.322 1457.89,238.79 1459.89,239.229 1461.88,238.482 1463.87,239.043 1465.87,239.152 1467.86,238.934 1469.85,239.746 1471.85,238.932 1473.84,239.319 1475.83,238.947 1477.82,239.441 1479.82,239.155 1481.81,238.887 1483.8,239.257 1485.8,239.029 1487.79,238.968 1489.78,239.459 1491.78,239.476 1493.77,238.97 1495.76,239.318 1497.76,239.181 1499.75,239.207 1501.74,239.165 1503.74,239.334 1505.73,239.097 1507.72,239.149 1509.72,239.199 1511.71,239.144 1513.7,239.06 1515.69,238.768 1517.69,238.882 1519.68,239.032 1521.67,238.846 1523.67,239.109 1525.66,239.354 1527.65,239.643 1529.65,239.04 1531.64,239.037 1533.63,239.209 1535.63,239.147 1537.62,239.084 1539.61,238.972 1541.61,238.976 1543.6,238.964 1545.59,238.938 1547.59,239.092 1549.58,239.093 1551.57,239.047 1553.56,239.181 1555.56,239.19 1557.55,239.278 1559.54,239.04 1561.54,238.985 1563.53,238.893 1565.52,239.033 1567.52,238.865 1569.51,239.18 1571.5,239.077 1573.5,239.207 1575.49,239.022 1577.48,239.09 1579.48,238.936 1581.47,239.154 1583.46,239.158 1585.45,239.116 1587.45,239.107 1589.44,239.164 1591.43,238.991 1593.43,239.069 1595.42,239.099 1597.41,239.055 1599.41,238.983 1601.4,239.212 1603.39,239.057 1605.39,239.128 1607.38,239.177 1609.37,238.948 1611.37,239.069 1613.36,239.049 1615.35,239.13 1617.35,239.063 1619.34,239.042 1621.33,239.028 1623.32,239.06 1625.32,239.175 1627.31,239.099 1629.3,239.15 1631.3,239.062 1633.29,238.995 1635.28,239.127 1637.28,239.036 1639.27,239.068 1641.26,239.038 1643.26,239.139 1645.25,239.094 1647.24,239.119 1649.24,239.136 1651.23,239.132 1653.22,239.106 1655.21,239.045 1657.21,239.067 1659.2,239.118 1661.19,239.09 1663.19,239.163 1665.18,239.027 1667.17,239.106 1669.17,239.136 1671.16,239.025 1673.15,239.078 1675.15,239.109 1677.14,239.066 1679.13,239.086 1681.13,239.095 1683.12,239.123 1685.11,239.139 1687.11,239.136 1689.1,239.108 1691.09,239.089 1693.08,239.089 1695.08,239.088 1697.07,239.088 1699.06,239.115 1701.06,239.117 1703.05,239.1 1705.04,239.107 1707.04,239.077 1709.03,239.119 1711.02,239.071 1713.02,239.102 1715.01,239.081 1717,239.119 1719,239.094 1720.99,239.123 1722.98,239.108 1724.97,239.129 1726.97,239.121 1728.96,239.091 1730.95,239.138 1732.95,239.114 1734.94,239.115 1736.93,239.131 1738.93,239.089 1740.92,239.137 1742.91,239.081 1744.91,239.13 1746.9,239.085 1748.89,239.104 1750.89,239.119 1752.88,239.121 1754.87,239.114 1756.87,239.092 1758.86,239.098 1760.85,239.11 1762.84,239.132 1764.84,239.104 1766.83,239.11 1768.82,239.117 1770.82,239.109 1772.81,239.14 1774.8,239.125 1776.8,239.115 1778.79,239.107 1780.78,239.106 1782.78,239.111 1784.77,239.108 1786.76,239.108 1788.76,239.099 1790.75,239.116 1792.74,239.106 1794.74,239.103 1796.73,239.111 1798.72,239.122 1800.71,239.092 1802.71,239.119 1804.7,239.111 1806.69,239.12 1808.69,239.101 1810.68,239.105 1812.67,239.106 1814.67,239.105 1816.66,239.115 1818.65,239.114 1820.65,239.108 1822.64,239.109 1824.63,239.116 1826.63,239.103 1828.62,239.107 1830.61,239.113 1832.6,239.121 1834.6,239.106 1836.59,239.11 1838.58,239.116 1840.58,239.092 1842.57,239.12 1844.56,239.113 1846.56,239.113 1848.55,239.101 1850.54,239.108 1852.54,239.102 1854.53,239.108 1856.52,239.104 1858.52,239.108 1860.51,239.109 1862.5,239.107 1864.5,239.108 1866.49,239.104 1868.48,239.115 1870.47,239.117 1872.47,239.112 1874.46,239.116 1876.45,239.104 1878.45,239.116 1880.44,239.11 1882.43,239.11 1884.43,239.11 1886.42,239.112 1888.41,239.106 1890.41,239.109 1892.4,239.111 1894.39,239.111 1896.39,239.105 1898.38,239.115 1900.37,239.108 1902.36,239.109 1904.36,239.113 1906.35,239.108 1908.34,239.115 1910.34,239.111 1912.33,239.112 1914.32,239.111 1916.32,239.105 1918.31,239.109 1920.3,239.11 1922.3,239.109 1924.29,239.111 1926.28,239.11 1928.28,239.111 1930.27,239.11 1932.26,239.111 1934.26,239.115 1936.25,239.11 1938.24,239.111 1940.23,239.111 1942.23,239.113 1944.22,239.112 1946.21,239.109 1948.21,239.109 1950.2,239.11 1952.19,239.108 1954.19,239.111 1956.18,239.108 1958.17,239.109 1960.17,239.109 1962.16,239.11 1964.15,239.108 1966.15,239.111 1968.14,239.111 1970.13,239.112 1972.12,239.108 1974.12,239.111 1976.11,239.11 1978.1,239.111 1980.1,239.109 1982.09,239.11 1984.08,239.11 1986.08,239.109 1988.07,239.109 1990.06,239.11 1992.06,239.11 1994.05,239.11 1996.04,239.11 1998.04,239.109 2000.03,239.111 2002.02,239.11 2004.02,239.11 2006.01,239.11 2008,239.11 2009.99,239.11 2011.99,239.111 2013.98,239.11 2015.97,239.11 2017.97,239.11 2019.96,239.11 2021.95,239.109 2023.95,239.11 2025.94,239.11 2027.93,239.109 2029.93,239.11 2031.92,239.11 2033.91,239.11 2035.91,239.11 2037.9,239.109 2039.89,239.11 2041.89,239.11 2043.88,239.11 2045.87,239.11 2047.86,239.11 2049.86,239.11 2051.85,239.11 2053.84,239.11 2055.84,239.11 2057.83,239.11 2059.82,239.11 2061.82,239.109 2063.81,239.109 2065.8,239.11 2067.8,239.11 2069.79,239.11 2071.78,239.11 2073.78,239.11 2075.77,239.11 2077.76,239.11 2079.75,239.11 2081.75,239.11 2083.74,239.11 2085.73,239.11 2087.73,239.11 2089.72,239.11 2091.71,239.11 2093.71,239.11 2095.7,239.11 2097.69,239.11 2099.69,239.11 2101.68,239.11 2103.67,239.11 2105.67,239.11 2107.66,239.11 2109.65,239.11 2111.65,239.11 2113.64,239.11 2115.63,239.11 2117.62,239.11 2119.62,239.11 2121.61,239.11 2123.6,239.11 2125.6,239.11 2127.59,239.11 2129.58,239.11 2131.58,239.11 2133.57,239.11 2135.56,239.11 2137.56,239.11 2139.55,239.11 2141.54,239.11 2143.54,239.11 2145.53,239.11 2147.52,239.11 2149.51,239.11 2151.51,239.11 2153.5,239.11 2155.49,239.11 2157.49,239.11 2159.48,239.11 2161.47,239.11 2163.47,239.11 2165.46,239.11 2167.45,239.11 2169.45,239.11 2171.44,239.11 2173.43,239.11 2175.43,239.11 2177.42,239.11 2179.41,239.11 2181.41,239.11 2183.4,239.11 2185.39,239.11 2187.38,239.11 2189.38,239.11 2191.37,239.11 2193.36,239.11 2195.36,239.11 2197.35,239.11 2199.34,239.11 2201.34,239.11 2203.33,239.11 2205.32,239.11 2207.32,239.11 2209.31,239.11 2211.3,239.11 2213.3,239.11 2215.29,239.11 2217.28,239.11 2219.27,239.11 2221.27,239.11 2223.26,239.11 2225.25,239.11 2227.25,239.11 2229.24,239.11 2231.23,239.11 2233.23,239.11 2235.22,239.11 2237.21,239.11 2239.21,239.11 2241.2,239.11 2243.19,239.11 2245.19,239.11 2247.18,239.11 2249.17,239.11 2251.17,239.11 2253.16,239.11 2255.15,239.11 2257.14,239.11 2259.14,239.11 2261.13,239.11 2263.12,239.11 2265.12,239.11 2267.11,239.11 2269.1,239.11 2271.1,239.11 2273.09,239.11 2275.08,239.11 2277.08,239.11 2279.07,239.11 2281.06,239.11 2283.06,239.11 2285.05,239.11 2287.04,239.11 2289.04,239.11 2291.03,239.11 2293.02,239.11 "/>
<path clip-path="url(#clip900)" d="M1863.63 1377.32 L2282.4 1377.32 L2282.4 1221.8 L1863.63 1221.8  Z" fill="#ffffff" fill-rule="evenodd" fill-opacity="1"/>
<polyline clip-path="url(#clip900)" style="stroke:#000000; stroke-linecap:round; stroke-linejoin:round; stroke-width:4; stroke-opacity:1; fill:none" points="1863.63,1377.32 2282.4,1377.32 2282.4,1221.8 1863.63,1221.8 1863.63,1377.32 "/>
<polyline clip-path="url(#clip900)" style="stroke:#009af9; stroke-linecap:round; stroke-linejoin:round; stroke-width:4; stroke-opacity:1; fill:none" points="1887.08,1273.64 2027.79,1273.64 "/>
<path clip-path="url(#clip900)" d="M2055.92 1274.41 L2055.92 1287.07 L2063.42 1287.07 Q2067.19 1287.07 2069 1285.52 Q2070.83 1283.95 2070.83 1280.73 Q2070.83 1277.49 2069 1275.96 Q2067.19 1274.41 2063.42 1274.41 L2055.92 1274.41 M2055.92 1260.2 L2055.92 1270.61 L2062.84 1270.61 Q2066.27 1270.61 2067.93 1269.34 Q2069.62 1268.05 2069.62 1265.41 Q2069.62 1262.79 2067.93 1261.49 Q2066.27 1260.2 2062.84 1260.2 L2055.92 1260.2 M2051.24 1256.36 L2063.19 1256.36 Q2068.53 1256.36 2071.43 1258.58 Q2074.32 1260.8 2074.32 1264.9 Q2074.32 1268.07 2072.84 1269.94 Q2071.36 1271.82 2068.49 1272.28 Q2071.94 1273.02 2073.84 1275.38 Q2075.76 1277.72 2075.76 1281.24 Q2075.76 1285.87 2072.61 1288.39 Q2069.46 1290.92 2063.65 1290.92 L2051.24 1290.92 L2051.24 1256.36 Z" fill="#000000" fill-rule="nonzero" fill-opacity="1" /><path clip-path="url(#clip900)" d="M2088.44 1274.41 L2088.44 1287.07 L2095.94 1287.07 Q2099.72 1287.07 2101.52 1285.52 Q2103.35 1283.95 2103.35 1280.73 Q2103.35 1277.49 2101.52 1275.96 Q2099.72 1274.41 2095.94 1274.41 L2088.44 1274.41 M2088.44 1260.2 L2088.44 1270.61 L2095.36 1270.61 Q2098.79 1270.61 2100.46 1269.34 Q2102.15 1268.05 2102.15 1265.41 Q2102.15 1262.79 2100.46 1261.49 Q2098.79 1260.2 2095.36 1260.2 L2088.44 1260.2 M2083.77 1256.36 L2095.71 1256.36 Q2101.06 1256.36 2103.95 1258.58 Q2106.84 1260.8 2106.84 1264.9 Q2106.84 1268.07 2105.36 1269.94 Q2103.88 1271.82 2101.01 1272.28 Q2104.46 1273.02 2106.36 1275.38 Q2108.28 1277.72 2108.28 1281.24 Q2108.28 1285.87 2105.13 1288.39 Q2101.98 1290.92 2096.17 1290.92 L2083.77 1290.92 L2083.77 1256.36 Z" fill="#000000" fill-rule="nonzero" fill-opacity="1" /><path clip-path="url(#clip900)" d="M2123.74 1290.92 L2110.55 1256.36 L2115.43 1256.36 L2126.38 1285.45 L2137.35 1256.36 L2142.22 1256.36 L2129.04 1290.92 L2123.74 1290.92 Z" fill="#000000" fill-rule="nonzero" fill-opacity="1" /><path clip-path="url(#clip900)" d="M2147.26 1256.36 L2151.94 1256.36 L2151.94 1290.92 L2147.26 1290.92 L2147.26 1256.36 Z" fill="#000000" fill-rule="nonzero" fill-opacity="1" /><path clip-path="url(#clip900)" d="M2202.19 1259.02 L2202.19 1263.95 Q2199.83 1261.75 2197.15 1260.66 Q2194.48 1259.57 2191.47 1259.57 Q2185.55 1259.57 2182.4 1263.21 Q2179.25 1266.82 2179.25 1273.67 Q2179.25 1280.5 2182.4 1284.13 Q2185.55 1287.74 2191.47 1287.74 Q2194.48 1287.74 2197.15 1286.66 Q2199.83 1285.57 2202.19 1283.37 L2202.19 1288.25 Q2199.74 1289.92 2196.98 1290.75 Q2194.25 1291.59 2191.2 1291.59 Q2183.35 1291.59 2178.84 1286.79 Q2174.32 1281.98 2174.32 1273.67 Q2174.32 1265.34 2178.84 1260.55 Q2183.35 1255.73 2191.2 1255.73 Q2194.3 1255.73 2197.03 1256.56 Q2199.78 1257.37 2202.19 1259.02 Z" fill="#000000" fill-rule="nonzero" fill-opacity="1" /><path clip-path="url(#clip900)" d="M2209.41 1256.36 L2229.27 1256.36 L2229.27 1260.29 L2214.09 1260.29 L2214.09 1270.48 L2227.79 1270.48 L2227.79 1274.41 L2214.09 1274.41 L2214.09 1290.92 L2209.41 1290.92 L2209.41 1256.36 Z" fill="#000000" fill-rule="nonzero" fill-opacity="1" /><path clip-path="url(#clip900)" d="M2236.68 1256.36 L2258.53 1256.36 L2258.53 1260.29 L2241.36 1260.29 L2241.36 1270.52 L2257.82 1270.52 L2257.82 1274.46 L2241.36 1274.46 L2241.36 1286.98 L2258.95 1286.98 L2258.95 1290.92 L2236.68 1290.92 L2236.68 1256.36 Z" fill="#000000" fill-rule="nonzero" fill-opacity="1" /><polyline clip-path="url(#clip900)" style="stroke:#e26f46; stroke-linecap:round; stroke-linejoin:round; stroke-width:4; stroke-opacity:1; fill:none" points="1887.08,1325.48 2027.79,1325.48 "/>
<path clip-path="url(#clip900)" d="M2055.92 1326.25 L2055.92 1338.91 L2063.42 1338.91 Q2067.19 1338.91 2069 1337.36 Q2070.83 1335.79 2070.83 1332.57 Q2070.83 1329.33 2069 1327.8 Q2067.19 1326.25 2063.42 1326.25 L2055.92 1326.25 M2055.92 1312.04 L2055.92 1322.45 L2062.84 1322.45 Q2066.27 1322.45 2067.93 1321.18 Q2069.62 1319.89 2069.62 1317.25 Q2069.62 1314.63 2067.93 1313.33 Q2066.27 1312.04 2062.84 1312.04 L2055.92 1312.04 M2051.24 1308.2 L2063.19 1308.2 Q2068.53 1308.2 2071.43 1310.42 Q2074.32 1312.64 2074.32 1316.74 Q2074.32 1319.91 2072.84 1321.78 Q2071.36 1323.66 2068.49 1324.12 Q2071.94 1324.86 2073.84 1327.22 Q2075.76 1329.56 2075.76 1333.08 Q2075.76 1337.71 2072.61 1340.23 Q2069.46 1342.76 2063.65 1342.76 L2051.24 1342.76 L2051.24 1308.2 Z" fill="#000000" fill-rule="nonzero" fill-opacity="1" /><path clip-path="url(#clip900)" d="M2088.44 1326.25 L2088.44 1338.91 L2095.94 1338.91 Q2099.72 1338.91 2101.52 1337.36 Q2103.35 1335.79 2103.35 1332.57 Q2103.35 1329.33 2101.52 1327.8 Q2099.72 1326.25 2095.94 1326.25 L2088.44 1326.25 M2088.44 1312.04 L2088.44 1322.45 L2095.36 1322.45 Q2098.79 1322.45 2100.46 1321.18 Q2102.15 1319.89 2102.15 1317.25 Q2102.15 1314.63 2100.46 1313.33 Q2098.79 1312.04 2095.36 1312.04 L2088.44 1312.04 M2083.77 1308.2 L2095.71 1308.2 Q2101.06 1308.2 2103.95 1310.42 Q2106.84 1312.64 2106.84 1316.74 Q2106.84 1319.91 2105.36 1321.78 Q2103.88 1323.66 2101.01 1324.12 Q2104.46 1324.86 2106.36 1327.22 Q2108.28 1329.56 2108.28 1333.08 Q2108.28 1337.71 2105.13 1340.23 Q2101.98 1342.76 2096.17 1342.76 L2083.77 1342.76 L2083.77 1308.2 Z" fill="#000000" fill-rule="nonzero" fill-opacity="1" /><path clip-path="url(#clip900)" d="M2123.74 1342.76 L2110.55 1308.2 L2115.43 1308.2 L2126.38 1337.29 L2137.35 1308.2 L2142.22 1308.2 L2129.04 1342.76 L2123.74 1342.76 Z" fill="#000000" fill-rule="nonzero" fill-opacity="1" /><path clip-path="url(#clip900)" d="M2147.26 1308.2 L2151.94 1308.2 L2151.94 1342.76 L2147.26 1342.76 L2147.26 1308.2 Z" fill="#000000" fill-rule="nonzero" fill-opacity="1" /><path clip-path="url(#clip900)" d="M2197.03 1309.33 L2197.03 1313.89 Q2194.37 1312.62 2192.01 1311.99 Q2189.65 1311.37 2187.45 1311.37 Q2183.63 1311.37 2181.54 1312.85 Q2179.48 1314.33 2179.48 1317.06 Q2179.48 1319.35 2180.85 1320.53 Q2182.24 1321.69 2186.08 1322.41 L2188.9 1322.99 Q2194.14 1323.98 2196.61 1326.51 Q2199.11 1329.01 2199.11 1333.22 Q2199.11 1338.24 2195.73 1340.83 Q2192.38 1343.43 2185.87 1343.43 Q2183.42 1343.43 2180.64 1342.87 Q2177.89 1342.32 2174.92 1341.23 L2174.92 1336.41 Q2177.77 1338.01 2180.5 1338.82 Q2183.23 1339.63 2185.87 1339.63 Q2189.88 1339.63 2192.05 1338.06 Q2194.23 1336.48 2194.23 1333.57 Q2194.23 1331.02 2192.65 1329.58 Q2191.1 1328.15 2187.54 1327.43 L2184.69 1326.88 Q2179.46 1325.83 2177.12 1323.61 Q2174.78 1321.39 2174.78 1317.43 Q2174.78 1312.85 2178 1310.21 Q2181.24 1307.57 2186.91 1307.57 Q2189.34 1307.57 2191.87 1308.01 Q2194.39 1308.45 2197.03 1309.33 Z" fill="#000000" fill-rule="nonzero" fill-opacity="1" /><path clip-path="url(#clip900)" d="M2201.61 1308.2 L2230.85 1308.2 L2230.85 1312.13 L2218.58 1312.13 L2218.58 1342.76 L2213.88 1342.76 L2213.88 1312.13 L2201.61 1312.13 L2201.61 1308.2 Z" fill="#000000" fill-rule="nonzero" fill-opacity="1" /><path clip-path="url(#clip900)" d="M2235.36 1308.2 L2240.04 1308.2 L2240.04 1338.82 L2256.87 1338.82 L2256.87 1342.76 L2235.36 1342.76 L2235.36 1308.2 Z" fill="#000000" fill-rule="nonzero" fill-opacity="1" /></svg>
