<?xml version="1.0" encoding="utf-8"?>
<svg xmlns="http://www.w3.org/2000/svg" xmlns:xlink="http://www.w3.org/1999/xlink" width="600" height="400" viewBox="0 0 2400 1600">
<defs>
  <clipPath id="clip410">
    <rect x="0" y="0" width="2400" height="1600"/>
  </clipPath>
</defs>
<path clip-path="url(#clip410)" d="M0 1600 L2400 1600 L2400 0 L0 0  Z" fill="#ffffff" fill-rule="evenodd" fill-opacity="1"/>
<defs>
  <clipPath id="clip411">
    <rect x="480" y="0" width="1681" height="1600"/>
  </clipPath>
</defs>
<path clip-path="url(#clip410)" d="M332.62 1423.18 L2352.76 1423.18 L2352.76 47.2441 L332.62 47.2441  Z" fill="#ffffff" fill-rule="evenodd" fill-opacity="1"/>
<defs>
  <clipPath id="clip412">
    <rect x="332" y="47" width="2021" height="1377"/>
  </clipPath>
</defs>
<polyline clip-path="url(#clip412)" style="stroke:#000000; stroke-linecap:round; stroke-linejoin:round; stroke-width:2; stroke-opacity:0.1; fill:none" points="354.597,1423.18 354.597,47.2441 "/>
<polyline clip-path="url(#clip412)" style="stroke:#000000; stroke-linecap:round; stroke-linejoin:round; stroke-width:2; stroke-opacity:0.1; fill:none" points="705.932,1423.18 705.932,47.2441 "/>
<polyline clip-path="url(#clip412)" style="stroke:#000000; stroke-linecap:round; stroke-linejoin:round; stroke-width:2; stroke-opacity:0.1; fill:none" points="1057.27,1423.18 1057.27,47.2441 "/>
<polyline clip-path="url(#clip412)" style="stroke:#000000; stroke-linecap:round; stroke-linejoin:round; stroke-width:2; stroke-opacity:0.1; fill:none" points="1408.6,1423.18 1408.6,47.2441 "/>
<polyline clip-path="url(#clip412)" style="stroke:#000000; stroke-linecap:round; stroke-linejoin:round; stroke-width:2; stroke-opacity:0.1; fill:none" points="1759.94,1423.18 1759.94,47.2441 "/>
<polyline clip-path="url(#clip412)" style="stroke:#000000; stroke-linecap:round; stroke-linejoin:round; stroke-width:2; stroke-opacity:0.1; fill:none" points="2111.27,1423.18 2111.27,47.2441 "/>
<polyline clip-path="url(#clip412)" style="stroke:#000000; stroke-linecap:round; stroke-linejoin:round; stroke-width:2; stroke-opacity:0.1; fill:none" points="332.62,1227.47 2352.76,1227.47 "/>
<polyline clip-path="url(#clip412)" style="stroke:#000000; stroke-linecap:round; stroke-linejoin:round; stroke-width:2; stroke-opacity:0.1; fill:none" points="332.62,870.541 2352.76,870.541 "/>
<polyline clip-path="url(#clip412)" style="stroke:#000000; stroke-linecap:round; stroke-linejoin:round; stroke-width:2; stroke-opacity:0.1; fill:none" points="332.62,513.614 2352.76,513.614 "/>
<polyline clip-path="url(#clip412)" style="stroke:#000000; stroke-linecap:round; stroke-linejoin:round; stroke-width:2; stroke-opacity:0.1; fill:none" points="332.62,156.686 2352.76,156.686 "/>
<polyline clip-path="url(#clip410)" style="stroke:#000000; stroke-linecap:round; stroke-linejoin:round; stroke-width:4; stroke-opacity:1; fill:none" points="332.62,1423.18 2352.76,1423.18 "/>
<polyline clip-path="url(#clip410)" style="stroke:#000000; stroke-linecap:round; stroke-linejoin:round; stroke-width:4; stroke-opacity:1; fill:none" points="354.597,1423.18 354.597,1404.28 "/>
<polyline clip-path="url(#clip410)" style="stroke:#000000; stroke-linecap:round; stroke-linejoin:round; stroke-width:4; stroke-opacity:1; fill:none" points="705.932,1423.18 705.932,1404.28 "/>
<polyline clip-path="url(#clip410)" style="stroke:#000000; stroke-linecap:round; stroke-linejoin:round; stroke-width:4; stroke-opacity:1; fill:none" points="1057.27,1423.18 1057.27,1404.28 "/>
<polyline clip-path="url(#clip410)" style="stroke:#000000; stroke-linecap:round; stroke-linejoin:round; stroke-width:4; stroke-opacity:1; fill:none" points="1408.6,1423.18 1408.6,1404.28 "/>
<polyline clip-path="url(#clip410)" style="stroke:#000000; stroke-linecap:round; stroke-linejoin:round; stroke-width:4; stroke-opacity:1; fill:none" points="1759.94,1423.18 1759.94,1404.28 "/>
<polyline clip-path="url(#clip410)" style="stroke:#000000; stroke-linecap:round; stroke-linejoin:round; stroke-width:4; stroke-opacity:1; fill:none" points="2111.27,1423.18 2111.27,1404.28 "/>
<path clip-path="url(#clip410)" d="M354.597 1454.1 Q350.986 1454.1 349.157 1457.66 Q347.352 1461.2 347.352 1468.33 Q347.352 1475.44 349.157 1479.01 Q350.986 1482.55 354.597 1482.55 Q358.231 1482.55 360.037 1479.01 Q361.866 1475.44 361.866 1468.33 Q361.866 1461.2 360.037 1457.66 Q358.231 1454.1 354.597 1454.1 M354.597 1450.39 Q360.407 1450.39 363.463 1455 Q366.541 1459.58 366.541 1468.33 Q366.541 1477.06 363.463 1481.67 Q360.407 1486.25 354.597 1486.25 Q348.787 1486.25 345.708 1481.67 Q342.653 1477.06 342.653 1468.33 Q342.653 1459.58 345.708 1455 Q348.787 1450.39 354.597 1450.39 Z" fill="#000000" fill-rule="nonzero" fill-opacity="1" /><path clip-path="url(#clip410)" d="M696.21 1451.02 L714.566 1451.02 L714.566 1454.96 L700.492 1454.96 L700.492 1463.43 Q701.511 1463.08 702.529 1462.92 Q703.548 1462.73 704.566 1462.73 Q710.353 1462.73 713.733 1465.9 Q717.112 1469.08 717.112 1474.49 Q717.112 1480.07 713.64 1483.17 Q710.168 1486.25 703.849 1486.25 Q701.673 1486.25 699.404 1485.88 Q697.159 1485.51 694.751 1484.77 L694.751 1480.07 Q696.835 1481.2 699.057 1481.76 Q701.279 1482.32 703.756 1482.32 Q707.761 1482.32 710.099 1480.21 Q712.437 1478.1 712.437 1474.49 Q712.437 1470.88 710.099 1468.77 Q707.761 1466.67 703.756 1466.67 Q701.881 1466.67 700.006 1467.08 Q698.154 1467.5 696.21 1468.38 L696.21 1451.02 Z" fill="#000000" fill-rule="nonzero" fill-opacity="1" /><path clip-path="url(#clip410)" d="M1031.95 1481.64 L1039.59 1481.64 L1039.59 1455.28 L1031.28 1456.95 L1031.28 1452.69 L1039.55 1451.02 L1044.22 1451.02 L1044.22 1481.64 L1051.86 1481.64 L1051.86 1485.58 L1031.95 1485.58 L1031.95 1481.64 Z" fill="#000000" fill-rule="nonzero" fill-opacity="1" /><path clip-path="url(#clip410)" d="M1071.31 1454.1 Q1067.69 1454.1 1065.87 1457.66 Q1064.06 1461.2 1064.06 1468.33 Q1064.06 1475.44 1065.87 1479.01 Q1067.69 1482.55 1071.31 1482.55 Q1074.94 1482.55 1076.75 1479.01 Q1078.57 1475.44 1078.57 1468.33 Q1078.57 1461.2 1076.75 1457.66 Q1074.94 1454.1 1071.31 1454.1 M1071.31 1450.39 Q1077.12 1450.39 1080.17 1455 Q1083.25 1459.58 1083.25 1468.33 Q1083.25 1477.06 1080.17 1481.67 Q1077.12 1486.25 1071.31 1486.25 Q1065.5 1486.25 1062.42 1481.67 Q1059.36 1477.06 1059.36 1468.33 Q1059.36 1459.58 1062.42 1455 Q1065.5 1450.39 1071.31 1450.39 Z" fill="#000000" fill-rule="nonzero" fill-opacity="1" /><path clip-path="url(#clip410)" d="M1383.79 1481.64 L1391.43 1481.64 L1391.43 1455.28 L1383.12 1456.95 L1383.12 1452.69 L1391.38 1451.02 L1396.06 1451.02 L1396.06 1481.64 L1403.69 1481.64 L1403.69 1485.58 L1383.79 1485.58 L1383.79 1481.64 Z" fill="#000000" fill-rule="nonzero" fill-opacity="1" /><path clip-path="url(#clip410)" d="M1413.18 1451.02 L1431.54 1451.02 L1431.54 1454.96 L1417.47 1454.96 L1417.47 1463.43 Q1418.49 1463.08 1419.5 1462.92 Q1420.52 1462.73 1421.54 1462.73 Q1427.33 1462.73 1430.71 1465.9 Q1434.09 1469.08 1434.09 1474.49 Q1434.09 1480.07 1430.62 1483.17 Q1427.14 1486.25 1420.82 1486.25 Q1418.65 1486.25 1416.38 1485.88 Q1414.13 1485.51 1411.73 1484.77 L1411.73 1480.07 Q1413.81 1481.2 1416.03 1481.76 Q1418.25 1482.32 1420.73 1482.32 Q1424.74 1482.32 1427.07 1480.21 Q1429.41 1478.1 1429.41 1474.49 Q1429.41 1470.88 1427.07 1468.77 Q1424.74 1466.67 1420.73 1466.67 Q1418.86 1466.67 1416.98 1467.08 Q1415.13 1467.5 1413.18 1468.38 L1413.18 1451.02 Z" fill="#000000" fill-rule="nonzero" fill-opacity="1" /><path clip-path="url(#clip410)" d="M1738.71 1481.64 L1755.03 1481.64 L1755.03 1485.58 L1733.08 1485.58 L1733.08 1481.64 Q1735.75 1478.89 1740.33 1474.26 Q1744.94 1469.61 1746.12 1468.27 Q1748.36 1465.74 1749.24 1464.01 Q1750.14 1462.25 1750.14 1460.56 Q1750.14 1457.8 1748.2 1456.07 Q1746.28 1454.33 1743.18 1454.33 Q1740.98 1454.33 1738.52 1455.09 Q1736.09 1455.86 1733.32 1457.41 L1733.32 1452.69 Q1736.14 1451.55 1738.59 1450.97 Q1741.05 1450.39 1743.08 1450.39 Q1748.46 1450.39 1751.65 1453.08 Q1754.84 1455.77 1754.84 1460.26 Q1754.84 1462.39 1754.03 1464.31 Q1753.25 1466.2 1751.14 1468.8 Q1750.56 1469.47 1747.46 1472.69 Q1744.36 1475.88 1738.71 1481.64 Z" fill="#000000" fill-rule="nonzero" fill-opacity="1" /><path clip-path="url(#clip410)" d="M1774.84 1454.1 Q1771.23 1454.1 1769.4 1457.66 Q1767.6 1461.2 1767.6 1468.33 Q1767.6 1475.44 1769.4 1479.01 Q1771.23 1482.55 1774.84 1482.55 Q1778.48 1482.55 1780.28 1479.01 Q1782.11 1475.44 1782.11 1468.33 Q1782.11 1461.2 1780.28 1457.66 Q1778.48 1454.1 1774.84 1454.1 M1774.84 1450.39 Q1780.65 1450.39 1783.71 1455 Q1786.79 1459.58 1786.79 1468.33 Q1786.79 1477.06 1783.71 1481.67 Q1780.65 1486.25 1774.84 1486.25 Q1769.03 1486.25 1765.95 1481.67 Q1762.9 1477.06 1762.9 1468.33 Q1762.9 1459.58 1765.95 1455 Q1769.03 1450.39 1774.84 1450.39 Z" fill="#000000" fill-rule="nonzero" fill-opacity="1" /><path clip-path="url(#clip410)" d="M2090.54 1481.64 L2106.86 1481.64 L2106.86 1485.58 L2084.92 1485.58 L2084.92 1481.64 Q2087.58 1478.89 2092.16 1474.26 Q2096.77 1469.61 2097.95 1468.27 Q2100.19 1465.74 2101.07 1464.01 Q2101.98 1462.25 2101.98 1460.56 Q2101.98 1457.8 2100.03 1456.07 Q2098.11 1454.33 2095.01 1454.33 Q2092.81 1454.33 2090.36 1455.09 Q2087.93 1455.86 2085.15 1457.41 L2085.15 1452.69 Q2087.97 1451.55 2090.43 1450.97 Q2092.88 1450.39 2094.92 1450.39 Q2100.29 1450.39 2103.48 1453.08 Q2106.68 1455.77 2106.68 1460.26 Q2106.68 1462.39 2105.87 1464.31 Q2105.08 1466.2 2102.97 1468.8 Q2102.39 1469.47 2099.29 1472.69 Q2096.19 1475.88 2090.54 1481.64 Z" fill="#000000" fill-rule="nonzero" fill-opacity="1" /><path clip-path="url(#clip410)" d="M2116.72 1451.02 L2135.08 1451.02 L2135.08 1454.96 L2121.01 1454.96 L2121.01 1463.43 Q2122.02 1463.08 2123.04 1462.92 Q2124.06 1462.73 2125.08 1462.73 Q2130.87 1462.73 2134.25 1465.9 Q2137.63 1469.08 2137.63 1474.49 Q2137.63 1480.07 2134.15 1483.17 Q2130.68 1486.25 2124.36 1486.25 Q2122.19 1486.25 2119.92 1485.88 Q2117.67 1485.51 2115.26 1484.77 L2115.26 1480.07 Q2117.35 1481.2 2119.57 1481.76 Q2121.79 1482.32 2124.27 1482.32 Q2128.27 1482.32 2130.61 1480.21 Q2132.95 1478.1 2132.95 1474.49 Q2132.95 1470.88 2130.61 1468.77 Q2128.27 1466.67 2124.27 1466.67 Q2122.39 1466.67 2120.52 1467.08 Q2118.67 1467.5 2116.72 1468.38 L2116.72 1451.02 Z" fill="#000000" fill-rule="nonzero" fill-opacity="1" /><path clip-path="url(#clip410)" d="M1013.77 1520.52 L1020.27 1520.52 L1030.26 1560.69 L1040.22 1520.52 L1047.45 1520.52 L1057.44 1560.69 L1067.4 1520.52 L1073.93 1520.52 L1061.99 1568.04 L1053.91 1568.04 L1043.88 1526.79 L1033.76 1568.04 L1025.68 1568.04 L1013.77 1520.52 Z" fill="#000000" fill-rule="nonzero" fill-opacity="1" /><path clip-path="url(#clip410)" d="M1094.23 1550.12 Q1087.14 1550.12 1084.4 1551.75 Q1081.66 1553.37 1081.66 1557.29 Q1081.66 1560.4 1083.7 1562.25 Q1085.77 1564.07 1089.3 1564.07 Q1094.17 1564.07 1097.1 1560.63 Q1100.06 1557.16 1100.06 1551.43 L1100.06 1550.12 L1094.23 1550.12 M1105.92 1547.71 L1105.92 1568.04 L1100.06 1568.04 L1100.06 1562.63 Q1098.05 1565.88 1095.06 1567.44 Q1092.07 1568.97 1087.74 1568.97 Q1082.27 1568.97 1079.02 1565.91 Q1075.81 1562.82 1075.81 1557.67 Q1075.81 1551.65 1079.82 1548.6 Q1083.86 1545.54 1091.85 1545.54 L1100.06 1545.54 L1100.06 1544.97 Q1100.06 1540.93 1097.39 1538.73 Q1094.74 1536.5 1089.94 1536.5 Q1086.88 1536.5 1083.99 1537.23 Q1081.09 1537.97 1078.42 1539.43 L1078.42 1534.02 Q1081.63 1532.78 1084.65 1532.17 Q1087.68 1531.54 1090.54 1531.54 Q1098.28 1531.54 1102.1 1535.55 Q1105.92 1539.56 1105.92 1547.71 Z" fill="#000000" fill-rule="nonzero" fill-opacity="1" /><path clip-path="url(#clip410)" d="M1117.98 1518.52 L1123.84 1518.52 L1123.84 1568.04 L1117.98 1568.04 L1117.98 1518.52 Z" fill="#000000" fill-rule="nonzero" fill-opacity="1" /><path clip-path="url(#clip410)" d="M1136.09 1518.52 L1141.95 1518.52 L1141.95 1568.04 L1136.09 1568.04 L1136.09 1518.52 Z" fill="#000000" fill-rule="nonzero" fill-opacity="1" /><path clip-path="url(#clip410)" d="M1179.85 1533.76 L1179.85 1539.24 Q1177.37 1537.87 1174.86 1537.2 Q1172.37 1536.5 1169.83 1536.5 Q1164.13 1536.5 1160.98 1540.13 Q1157.83 1543.73 1157.83 1550.25 Q1157.83 1556.78 1160.98 1560.4 Q1164.13 1564 1169.83 1564 Q1172.37 1564 1174.86 1563.33 Q1177.37 1562.63 1179.85 1561.26 L1179.85 1566.68 Q1177.4 1567.82 1174.76 1568.39 Q1172.15 1568.97 1169.19 1568.97 Q1161.14 1568.97 1156.4 1563.91 Q1151.65 1558.85 1151.65 1550.25 Q1151.65 1541.53 1156.43 1536.53 Q1161.23 1531.54 1169.57 1531.54 Q1172.28 1531.54 1174.86 1532.11 Q1177.43 1532.65 1179.85 1533.76 Z" fill="#000000" fill-rule="nonzero" fill-opacity="1" /><path clip-path="url(#clip410)" d="M1190.04 1518.52 L1195.89 1518.52 L1195.89 1568.04 L1190.04 1568.04 L1190.04 1518.52 Z" fill="#000000" fill-rule="nonzero" fill-opacity="1" /><path clip-path="url(#clip410)" d="M1221.96 1536.5 Q1217.25 1536.5 1214.51 1540.19 Q1211.78 1543.85 1211.78 1550.25 Q1211.78 1556.65 1214.48 1560.34 Q1217.22 1564 1221.96 1564 Q1226.64 1564 1229.38 1560.31 Q1232.12 1556.62 1232.12 1550.25 Q1232.12 1543.92 1229.38 1540.23 Q1226.64 1536.5 1221.96 1536.5 M1221.96 1531.54 Q1229.6 1531.54 1233.96 1536.5 Q1238.32 1541.47 1238.32 1550.25 Q1238.32 1559 1233.96 1564 Q1229.6 1568.97 1221.96 1568.97 Q1214.29 1568.97 1209.93 1564 Q1205.6 1559 1205.6 1550.25 Q1205.6 1541.47 1209.93 1536.5 Q1214.29 1531.54 1221.96 1531.54 Z" fill="#000000" fill-rule="nonzero" fill-opacity="1" /><path clip-path="url(#clip410)" d="M1273.68 1533.76 L1273.68 1539.24 Q1271.2 1537.87 1268.69 1537.2 Q1266.2 1536.5 1263.66 1536.5 Q1257.96 1536.5 1254.81 1540.13 Q1251.66 1543.73 1251.66 1550.25 Q1251.66 1556.78 1254.81 1560.4 Q1257.96 1564 1263.66 1564 Q1266.2 1564 1268.69 1563.33 Q1271.2 1562.63 1273.68 1561.26 L1273.68 1566.68 Q1271.23 1567.82 1268.59 1568.39 Q1265.98 1568.97 1263.02 1568.97 Q1254.97 1568.97 1250.23 1563.91 Q1245.48 1558.85 1245.48 1550.25 Q1245.48 1541.53 1250.26 1536.53 Q1255.06 1531.54 1263.4 1531.54 Q1266.11 1531.54 1268.69 1532.11 Q1271.26 1532.65 1273.68 1533.76 Z" fill="#000000" fill-rule="nonzero" fill-opacity="1" /><path clip-path="url(#clip410)" d="M1283.65 1518.52 L1289.53 1518.52 L1289.53 1547.77 L1307.01 1532.4 L1314.49 1532.4 L1295.58 1549.07 L1315.28 1568.04 L1307.64 1568.04 L1289.53 1550.63 L1289.53 1568.04 L1283.65 1568.04 L1283.65 1518.52 Z" fill="#000000" fill-rule="nonzero" fill-opacity="1" /><path clip-path="url(#clip410)" d="M1336 1520.52 L1376.2 1520.52 L1376.2 1525.93 L1359.33 1525.93 L1359.33 1568.04 L1352.87 1568.04 L1352.87 1525.93 L1336 1525.93 L1336 1520.52 Z" fill="#000000" fill-rule="nonzero" fill-opacity="1" /><path clip-path="url(#clip410)" d="M1380.15 1532.4 L1386.01 1532.4 L1386.01 1568.04 L1380.15 1568.04 L1380.15 1532.4 M1380.15 1518.52 L1386.01 1518.52 L1386.01 1525.93 L1380.15 1525.93 L1380.15 1518.52 Z" fill="#000000" fill-rule="nonzero" fill-opacity="1" /><path clip-path="url(#clip410)" d="M1426.02 1539.24 Q1428.21 1535.29 1431.27 1533.41 Q1434.32 1531.54 1438.46 1531.54 Q1444.03 1531.54 1447.05 1535.45 Q1450.08 1539.33 1450.08 1546.53 L1450.08 1568.04 L1444.19 1568.04 L1444.19 1546.72 Q1444.19 1541.59 1442.38 1539.11 Q1440.56 1536.63 1436.84 1536.63 Q1432.29 1536.63 1429.64 1539.65 Q1427 1542.68 1427 1547.9 L1427 1568.04 L1421.11 1568.04 L1421.11 1546.72 Q1421.11 1541.56 1419.3 1539.11 Q1417.49 1536.63 1413.7 1536.63 Q1409.21 1536.63 1406.57 1539.68 Q1403.93 1542.71 1403.93 1547.9 L1403.93 1568.04 L1398.04 1568.04 L1398.04 1532.4 L1403.93 1532.4 L1403.93 1537.93 Q1405.93 1534.66 1408.73 1533.1 Q1411.53 1531.54 1415.38 1531.54 Q1419.27 1531.54 1421.97 1533.51 Q1424.71 1535.48 1426.02 1539.24 Z" fill="#000000" fill-rule="nonzero" fill-opacity="1" /><path clip-path="url(#clip410)" d="M1492.25 1548.76 L1492.25 1551.62 L1465.32 1551.62 Q1465.71 1557.67 1468.95 1560.85 Q1472.23 1564 1478.05 1564 Q1481.43 1564 1484.58 1563.17 Q1487.76 1562.35 1490.88 1560.69 L1490.88 1566.23 Q1487.73 1567.57 1484.42 1568.27 Q1481.11 1568.97 1477.7 1568.97 Q1469.17 1568.97 1464.18 1564 Q1459.21 1559.04 1459.21 1550.57 Q1459.21 1541.82 1463.92 1536.69 Q1468.67 1531.54 1476.69 1531.54 Q1483.88 1531.54 1488.05 1536.18 Q1492.25 1540.8 1492.25 1548.76 M1486.39 1547.04 Q1486.33 1542.23 1483.69 1539.37 Q1481.08 1536.5 1476.75 1536.5 Q1471.85 1536.5 1468.89 1539.27 Q1465.96 1542.04 1465.51 1547.07 L1486.39 1547.04 Z" fill="#000000" fill-rule="nonzero" fill-opacity="1" /><path clip-path="url(#clip410)" d="M1536.65 1518.58 Q1532.39 1525.9 1530.32 1533.06 Q1528.25 1540.23 1528.25 1547.58 Q1528.25 1554.93 1530.32 1562.16 Q1532.42 1569.35 1536.65 1576.64 L1531.56 1576.64 Q1526.78 1569.16 1524.4 1561.93 Q1522.04 1554.71 1522.04 1547.58 Q1522.04 1540.48 1524.4 1533.29 Q1526.75 1526.09 1531.56 1518.58 L1536.65 1518.58 Z" fill="#000000" fill-rule="nonzero" fill-opacity="1" /><path clip-path="url(#clip410)" d="M1570.74 1533.45 L1570.74 1538.98 Q1568.26 1537.71 1565.58 1537.07 Q1562.91 1536.44 1560.05 1536.44 Q1555.68 1536.44 1553.49 1537.77 Q1551.32 1539.11 1551.32 1541.79 Q1551.32 1543.82 1552.88 1545 Q1554.44 1546.15 1559.15 1547.2 L1561.16 1547.64 Q1567.4 1548.98 1570.01 1551.43 Q1572.65 1553.85 1572.65 1558.21 Q1572.65 1563.17 1568.7 1566.07 Q1564.79 1568.97 1557.91 1568.97 Q1555.05 1568.97 1551.93 1568.39 Q1548.84 1567.85 1545.4 1566.74 L1545.4 1560.69 Q1548.65 1562.38 1551.8 1563.24 Q1554.95 1564.07 1558.04 1564.07 Q1562.18 1564.07 1564.41 1562.66 Q1566.63 1561.23 1566.63 1558.65 Q1566.63 1556.27 1565.01 1554.99 Q1563.42 1553.72 1557.98 1552.54 L1555.94 1552.07 Q1550.5 1550.92 1548.08 1548.56 Q1545.66 1546.18 1545.66 1542.04 Q1545.66 1537.01 1549.22 1534.27 Q1552.79 1531.54 1559.34 1531.54 Q1562.59 1531.54 1565.46 1532.01 Q1568.32 1532.49 1570.74 1533.45 Z" fill="#000000" fill-rule="nonzero" fill-opacity="1" /><path clip-path="url(#clip410)" d="M1612.47 1548.76 L1612.47 1551.62 L1585.54 1551.62 Q1585.92 1557.67 1589.17 1560.85 Q1592.45 1564 1598.27 1564 Q1601.65 1564 1604.8 1563.17 Q1607.98 1562.35 1611.1 1560.69 L1611.1 1566.23 Q1607.95 1567.57 1604.64 1568.27 Q1601.33 1568.97 1597.92 1568.97 Q1589.39 1568.97 1584.39 1564 Q1579.43 1559.04 1579.43 1550.57 Q1579.43 1541.82 1584.14 1536.69 Q1588.88 1531.54 1596.9 1531.54 Q1604.1 1531.54 1608.27 1536.18 Q1612.47 1540.8 1612.47 1548.76 M1606.61 1547.04 Q1606.55 1542.23 1603.9 1539.37 Q1601.29 1536.5 1596.97 1536.5 Q1592.06 1536.5 1589.1 1539.27 Q1586.18 1542.04 1585.73 1547.07 L1606.61 1547.04 Z" fill="#000000" fill-rule="nonzero" fill-opacity="1" /><path clip-path="url(#clip410)" d="M1647.73 1533.76 L1647.73 1539.24 Q1645.25 1537.87 1642.74 1537.2 Q1640.25 1536.5 1637.71 1536.5 Q1632.01 1536.5 1628.86 1540.13 Q1625.71 1543.73 1625.71 1550.25 Q1625.71 1556.78 1628.86 1560.4 Q1632.01 1564 1637.71 1564 Q1640.25 1564 1642.74 1563.33 Q1645.25 1562.63 1647.73 1561.26 L1647.73 1566.68 Q1645.28 1567.82 1642.64 1568.39 Q1640.03 1568.97 1637.07 1568.97 Q1629.02 1568.97 1624.28 1563.91 Q1619.53 1558.85 1619.53 1550.25 Q1619.53 1541.53 1624.31 1536.53 Q1629.11 1531.54 1637.45 1531.54 Q1640.16 1531.54 1642.74 1532.11 Q1645.31 1532.65 1647.73 1533.76 Z" fill="#000000" fill-rule="nonzero" fill-opacity="1" /><path clip-path="url(#clip410)" d="M1656.99 1518.58 L1662.09 1518.58 Q1666.86 1526.09 1669.22 1533.29 Q1671.6 1540.48 1671.6 1547.58 Q1671.6 1554.71 1669.22 1561.93 Q1666.86 1569.16 1662.09 1576.64 L1656.99 1576.64 Q1661.23 1569.35 1663.3 1562.16 Q1665.4 1554.93 1665.4 1547.58 Q1665.4 1540.23 1663.3 1533.06 Q1661.23 1525.9 1656.99 1518.58 Z" fill="#000000" fill-rule="nonzero" fill-opacity="1" /><polyline clip-path="url(#clip410)" style="stroke:#000000; stroke-linecap:round; stroke-linejoin:round; stroke-width:4; stroke-opacity:1; fill:none" points="332.62,1423.18 332.62,47.2441 "/>
<polyline clip-path="url(#clip410)" style="stroke:#000000; stroke-linecap:round; stroke-linejoin:round; stroke-width:4; stroke-opacity:1; fill:none" points="332.62,1227.47 351.518,1227.47 "/>
<polyline clip-path="url(#clip410)" style="stroke:#000000; stroke-linecap:round; stroke-linejoin:round; stroke-width:4; stroke-opacity:1; fill:none" points="332.62,870.541 351.518,870.541 "/>
<polyline clip-path="url(#clip410)" style="stroke:#000000; stroke-linecap:round; stroke-linejoin:round; stroke-width:4; stroke-opacity:1; fill:none" points="332.62,513.614 351.518,513.614 "/>
<polyline clip-path="url(#clip410)" style="stroke:#000000; stroke-linecap:round; stroke-linejoin:round; stroke-width:4; stroke-opacity:1; fill:none" points="332.62,156.686 351.518,156.686 "/>
<path clip-path="url(#clip410)" d="M114.26 1227.92 L143.936 1227.92 L143.936 1231.86 L114.26 1231.86 L114.26 1227.92 Z" fill="#000000" fill-rule="nonzero" fill-opacity="1" /><path clip-path="url(#clip410)" d="M154.839 1240.81 L162.477 1240.81 L162.477 1214.45 L154.167 1216.11 L154.167 1211.86 L162.431 1210.19 L167.107 1210.19 L167.107 1240.81 L174.746 1240.81 L174.746 1244.75 L154.839 1244.75 L154.839 1240.81 Z" fill="#000000" fill-rule="nonzero" fill-opacity="1" /><path clip-path="url(#clip410)" d="M188.218 1240.81 L204.537 1240.81 L204.537 1244.75 L182.593 1244.75 L182.593 1240.81 Q185.255 1238.06 189.838 1233.43 Q194.445 1228.78 195.625 1227.43 Q197.871 1224.91 198.75 1223.18 Q199.653 1221.42 199.653 1219.73 Q199.653 1216.97 197.709 1215.24 Q195.787 1213.5 192.686 1213.5 Q190.487 1213.5 188.033 1214.26 Q185.602 1215.03 182.825 1216.58 L182.825 1211.86 Q185.649 1210.72 188.102 1210.14 Q190.556 1209.56 192.593 1209.56 Q197.963 1209.56 201.158 1212.25 Q204.352 1214.93 204.352 1219.43 Q204.352 1221.55 203.542 1223.48 Q202.755 1225.37 200.649 1227.97 Q200.07 1228.64 196.968 1231.86 Q193.866 1235.05 188.218 1240.81 Z" fill="#000000" fill-rule="nonzero" fill-opacity="1" /><path clip-path="url(#clip410)" d="M224.352 1213.27 Q220.741 1213.27 218.912 1216.83 Q217.107 1220.37 217.107 1227.5 Q217.107 1234.61 218.912 1238.17 Q220.741 1241.72 224.352 1241.72 Q227.986 1241.72 229.792 1238.17 Q231.621 1234.61 231.621 1227.5 Q231.621 1220.37 229.792 1216.83 Q227.986 1213.27 224.352 1213.27 M224.352 1209.56 Q230.162 1209.56 233.218 1214.17 Q236.297 1218.75 236.297 1227.5 Q236.297 1236.23 233.218 1240.84 Q230.162 1245.42 224.352 1245.42 Q218.542 1245.42 215.463 1240.84 Q212.408 1236.23 212.408 1227.5 Q212.408 1218.75 215.463 1214.17 Q218.542 1209.56 224.352 1209.56 Z" fill="#000000" fill-rule="nonzero" fill-opacity="1" /><path clip-path="url(#clip410)" d="M254.514 1213.27 Q250.903 1213.27 249.074 1216.83 Q247.269 1220.37 247.269 1227.5 Q247.269 1234.61 249.074 1238.17 Q250.903 1241.72 254.514 1241.72 Q258.148 1241.72 259.954 1238.17 Q261.783 1234.61 261.783 1227.5 Q261.783 1220.37 259.954 1216.83 Q258.148 1213.27 254.514 1213.27 M254.514 1209.56 Q260.324 1209.56 263.38 1214.17 Q266.458 1218.75 266.458 1227.5 Q266.458 1236.23 263.38 1240.84 Q260.324 1245.42 254.514 1245.42 Q248.704 1245.42 245.625 1240.84 Q242.57 1236.23 242.57 1227.5 Q242.57 1218.75 245.625 1214.17 Q248.704 1209.56 254.514 1209.56 Z" fill="#000000" fill-rule="nonzero" fill-opacity="1" /><path clip-path="url(#clip410)" d="M284.676 1213.27 Q281.065 1213.27 279.236 1216.83 Q277.431 1220.37 277.431 1227.5 Q277.431 1234.61 279.236 1238.17 Q281.065 1241.72 284.676 1241.72 Q288.31 1241.72 290.116 1238.17 Q291.944 1234.61 291.944 1227.5 Q291.944 1220.37 290.116 1216.83 Q288.31 1213.27 284.676 1213.27 M284.676 1209.56 Q290.486 1209.56 293.542 1214.17 Q296.62 1218.75 296.62 1227.5 Q296.62 1236.23 293.542 1240.84 Q290.486 1245.42 284.676 1245.42 Q278.866 1245.42 275.787 1240.84 Q272.732 1236.23 272.732 1227.5 Q272.732 1218.75 275.787 1214.17 Q278.866 1209.56 284.676 1209.56 Z" fill="#000000" fill-rule="nonzero" fill-opacity="1" /><path clip-path="url(#clip410)" d="M114.26 870.993 L143.936 870.993 L143.936 874.928 L114.26 874.928 L114.26 870.993 Z" fill="#000000" fill-rule="nonzero" fill-opacity="1" /><path clip-path="url(#clip410)" d="M154.839 883.886 L162.477 883.886 L162.477 857.521 L154.167 859.187 L154.167 854.928 L162.431 853.261 L167.107 853.261 L167.107 883.886 L174.746 883.886 L174.746 887.821 L154.839 887.821 L154.839 883.886 Z" fill="#000000" fill-rule="nonzero" fill-opacity="1" /><path clip-path="url(#clip410)" d="M194.19 856.34 Q190.579 856.34 188.75 859.905 Q186.945 863.447 186.945 870.576 Q186.945 877.683 188.75 881.247 Q190.579 884.789 194.19 884.789 Q197.825 884.789 199.63 881.247 Q201.459 877.683 201.459 870.576 Q201.459 863.447 199.63 859.905 Q197.825 856.34 194.19 856.34 M194.19 852.636 Q200 852.636 203.056 857.243 Q206.135 861.826 206.135 870.576 Q206.135 879.303 203.056 883.909 Q200 888.493 194.19 888.493 Q188.38 888.493 185.301 883.909 Q182.246 879.303 182.246 870.576 Q182.246 861.826 185.301 857.243 Q188.38 852.636 194.19 852.636 Z" fill="#000000" fill-rule="nonzero" fill-opacity="1" /><path clip-path="url(#clip410)" d="M224.352 856.34 Q220.741 856.34 218.912 859.905 Q217.107 863.447 217.107 870.576 Q217.107 877.683 218.912 881.247 Q220.741 884.789 224.352 884.789 Q227.986 884.789 229.792 881.247 Q231.621 877.683 231.621 870.576 Q231.621 863.447 229.792 859.905 Q227.986 856.34 224.352 856.34 M224.352 852.636 Q230.162 852.636 233.218 857.243 Q236.297 861.826 236.297 870.576 Q236.297 879.303 233.218 883.909 Q230.162 888.493 224.352 888.493 Q218.542 888.493 215.463 883.909 Q212.408 879.303 212.408 870.576 Q212.408 861.826 215.463 857.243 Q218.542 852.636 224.352 852.636 Z" fill="#000000" fill-rule="nonzero" fill-opacity="1" /><path clip-path="url(#clip410)" d="M254.514 856.34 Q250.903 856.34 249.074 859.905 Q247.269 863.447 247.269 870.576 Q247.269 877.683 249.074 881.247 Q250.903 884.789 254.514 884.789 Q258.148 884.789 259.954 881.247 Q261.783 877.683 261.783 870.576 Q261.783 863.447 259.954 859.905 Q258.148 856.34 254.514 856.34 M254.514 852.636 Q260.324 852.636 263.38 857.243 Q266.458 861.826 266.458 870.576 Q266.458 879.303 263.38 883.909 Q260.324 888.493 254.514 888.493 Q248.704 888.493 245.625 883.909 Q242.57 879.303 242.57 870.576 Q242.57 861.826 245.625 857.243 Q248.704 852.636 254.514 852.636 Z" fill="#000000" fill-rule="nonzero" fill-opacity="1" /><path clip-path="url(#clip410)" d="M284.676 856.34 Q281.065 856.34 279.236 859.905 Q277.431 863.447 277.431 870.576 Q277.431 877.683 279.236 881.247 Q281.065 884.789 284.676 884.789 Q288.31 884.789 290.116 881.247 Q291.944 877.683 291.944 870.576 Q291.944 863.447 290.116 859.905 Q288.31 856.34 284.676 856.34 M284.676 852.636 Q290.486 852.636 293.542 857.243 Q296.62 861.826 296.62 870.576 Q296.62 879.303 293.542 883.909 Q290.486 888.493 284.676 888.493 Q278.866 888.493 275.787 883.909 Q272.732 879.303 272.732 870.576 Q272.732 861.826 275.787 857.243 Q278.866 852.636 284.676 852.636 Z" fill="#000000" fill-rule="nonzero" fill-opacity="1" /><path clip-path="url(#clip410)" d="M144.422 514.065 L174.098 514.065 L174.098 518 L144.422 518 L144.422 514.065 Z" fill="#000000" fill-rule="nonzero" fill-opacity="1" /><path clip-path="url(#clip410)" d="M194.19 514.482 Q190.857 514.482 188.936 516.264 Q187.038 518.047 187.038 521.172 Q187.038 524.297 188.936 526.079 Q190.857 527.862 194.19 527.862 Q197.524 527.862 199.445 526.079 Q201.366 524.274 201.366 521.172 Q201.366 518.047 199.445 516.264 Q197.547 514.482 194.19 514.482 M189.514 512.491 Q186.505 511.75 184.815 509.69 Q183.149 507.63 183.149 504.667 Q183.149 500.524 186.088 498.116 Q189.051 495.709 194.19 495.709 Q199.352 495.709 202.292 498.116 Q205.232 500.524 205.232 504.667 Q205.232 507.63 203.542 509.69 Q201.875 511.75 198.889 512.491 Q202.269 513.278 204.144 515.57 Q206.042 517.862 206.042 521.172 Q206.042 526.195 202.963 528.88 Q199.908 531.565 194.19 531.565 Q188.473 531.565 185.394 528.88 Q182.338 526.195 182.338 521.172 Q182.338 517.862 184.237 515.57 Q186.135 513.278 189.514 512.491 M187.801 505.107 Q187.801 507.792 189.468 509.297 Q191.158 510.801 194.19 510.801 Q197.2 510.801 198.889 509.297 Q200.602 507.792 200.602 505.107 Q200.602 502.422 198.889 500.917 Q197.2 499.413 194.19 499.413 Q191.158 499.413 189.468 500.917 Q187.801 502.422 187.801 505.107 Z" fill="#000000" fill-rule="nonzero" fill-opacity="1" /><path clip-path="url(#clip410)" d="M224.352 499.413 Q220.741 499.413 218.912 502.977 Q217.107 506.519 217.107 513.649 Q217.107 520.755 218.912 524.32 Q220.741 527.862 224.352 527.862 Q227.986 527.862 229.792 524.32 Q231.621 520.755 231.621 513.649 Q231.621 506.519 229.792 502.977 Q227.986 499.413 224.352 499.413 M224.352 495.709 Q230.162 495.709 233.218 500.315 Q236.297 504.899 236.297 513.649 Q236.297 522.375 233.218 526.982 Q230.162 531.565 224.352 531.565 Q218.542 531.565 215.463 526.982 Q212.408 522.375 212.408 513.649 Q212.408 504.899 215.463 500.315 Q218.542 495.709 224.352 495.709 Z" fill="#000000" fill-rule="nonzero" fill-opacity="1" /><path clip-path="url(#clip410)" d="M254.514 499.413 Q250.903 499.413 249.074 502.977 Q247.269 506.519 247.269 513.649 Q247.269 520.755 249.074 524.32 Q250.903 527.862 254.514 527.862 Q258.148 527.862 259.954 524.32 Q261.783 520.755 261.783 513.649 Q261.783 506.519 259.954 502.977 Q258.148 499.413 254.514 499.413 M254.514 495.709 Q260.324 495.709 263.38 500.315 Q266.458 504.899 266.458 513.649 Q266.458 522.375 263.38 526.982 Q260.324 531.565 254.514 531.565 Q248.704 531.565 245.625 526.982 Q242.57 522.375 242.57 513.649 Q242.57 504.899 245.625 500.315 Q248.704 495.709 254.514 495.709 Z" fill="#000000" fill-rule="nonzero" fill-opacity="1" /><path clip-path="url(#clip410)" d="M284.676 499.413 Q281.065 499.413 279.236 502.977 Q277.431 506.519 277.431 513.649 Q277.431 520.755 279.236 524.32 Q281.065 527.862 284.676 527.862 Q288.31 527.862 290.116 524.32 Q291.944 520.755 291.944 513.649 Q291.944 506.519 290.116 502.977 Q288.31 499.413 284.676 499.413 M284.676 495.709 Q290.486 495.709 293.542 500.315 Q296.62 504.899 296.62 513.649 Q296.62 522.375 293.542 526.982 Q290.486 531.565 284.676 531.565 Q278.866 531.565 275.787 526.982 Q272.732 522.375 272.732 513.649 Q272.732 504.899 275.787 500.315 Q278.866 495.709 284.676 495.709 Z" fill="#000000" fill-rule="nonzero" fill-opacity="1" /><path clip-path="url(#clip410)" d="M144.422 157.138 L174.098 157.138 L174.098 161.073 L144.422 161.073 L144.422 157.138 Z" fill="#000000" fill-rule="nonzero" fill-opacity="1" /><path clip-path="url(#clip410)" d="M194.769 154.823 Q191.621 154.823 189.769 156.976 Q187.94 159.128 187.94 162.878 Q187.94 166.605 189.769 168.781 Q191.621 170.934 194.769 170.934 Q197.917 170.934 199.746 168.781 Q201.598 166.605 201.598 162.878 Q201.598 159.128 199.746 156.976 Q197.917 154.823 194.769 154.823 M204.051 140.17 L204.051 144.429 Q202.292 143.596 200.487 143.156 Q198.704 142.717 196.945 142.717 Q192.315 142.717 189.862 145.841 Q187.431 148.966 187.084 155.286 Q188.45 153.272 190.51 152.207 Q192.57 151.119 195.047 151.119 Q200.255 151.119 203.264 154.291 Q206.297 157.439 206.297 162.878 Q206.297 168.202 203.149 171.42 Q200 174.638 194.769 174.638 Q188.774 174.638 185.602 170.054 Q182.431 165.448 182.431 156.721 Q182.431 148.527 186.32 143.666 Q190.209 138.781 196.76 138.781 Q198.519 138.781 200.301 139.129 Q202.107 139.476 204.051 140.17 Z" fill="#000000" fill-rule="nonzero" fill-opacity="1" /><path clip-path="url(#clip410)" d="M224.352 142.485 Q220.741 142.485 218.912 146.05 Q217.107 149.591 217.107 156.721 Q217.107 163.828 218.912 167.392 Q220.741 170.934 224.352 170.934 Q227.986 170.934 229.792 167.392 Q231.621 163.828 231.621 156.721 Q231.621 149.591 229.792 146.05 Q227.986 142.485 224.352 142.485 M224.352 138.781 Q230.162 138.781 233.218 143.388 Q236.297 147.971 236.297 156.721 Q236.297 165.448 233.218 170.054 Q230.162 174.638 224.352 174.638 Q218.542 174.638 215.463 170.054 Q212.408 165.448 212.408 156.721 Q212.408 147.971 215.463 143.388 Q218.542 138.781 224.352 138.781 Z" fill="#000000" fill-rule="nonzero" fill-opacity="1" /><path clip-path="url(#clip410)" d="M254.514 142.485 Q250.903 142.485 249.074 146.05 Q247.269 149.591 247.269 156.721 Q247.269 163.828 249.074 167.392 Q250.903 170.934 254.514 170.934 Q258.148 170.934 259.954 167.392 Q261.783 163.828 261.783 156.721 Q261.783 149.591 259.954 146.05 Q258.148 142.485 254.514 142.485 M254.514 138.781 Q260.324 138.781 263.38 143.388 Q266.458 147.971 266.458 156.721 Q266.458 165.448 263.38 170.054 Q260.324 174.638 254.514 174.638 Q248.704 174.638 245.625 170.054 Q242.57 165.448 242.57 156.721 Q242.57 147.971 245.625 143.388 Q248.704 138.781 254.514 138.781 Z" fill="#000000" fill-rule="nonzero" fill-opacity="1" /><path clip-path="url(#clip410)" d="M284.676 142.485 Q281.065 142.485 279.236 146.05 Q277.431 149.591 277.431 156.721 Q277.431 163.828 279.236 167.392 Q281.065 170.934 284.676 170.934 Q288.31 170.934 290.116 167.392 Q291.944 163.828 291.944 156.721 Q291.944 149.591 290.116 146.05 Q288.31 142.485 284.676 142.485 M284.676 138.781 Q290.486 138.781 293.542 143.388 Q296.62 147.971 296.62 156.721 Q296.62 165.448 293.542 170.054 Q290.486 174.638 284.676 174.638 Q278.866 174.638 275.787 170.054 Q272.732 165.448 272.732 156.721 Q272.732 147.971 275.787 143.388 Q278.866 138.781 284.676 138.781 Z" fill="#000000" fill-rule="nonzero" fill-opacity="1" /><path clip-path="url(#clip410)" d="M16.4842 816.375 L16.4842 786.329 L21.895 786.329 L21.895 809.945 L35.9632 809.945 L35.9632 787.315 L41.3741 787.315 L41.3741 809.945 L58.5933 809.945 L58.5933 785.756 L64.0042 785.756 L64.0042 816.375 L16.4842 816.375 Z" fill="#000000" fill-rule="nonzero" fill-opacity="1" /><path clip-path="url(#clip410)" d="M16.4842 775.189 L16.4842 768.759 L58.5933 768.759 L58.5933 745.62 L64.0042 745.62 L64.0042 775.189 L16.4842 775.189 Z" fill="#000000" fill-rule="nonzero" fill-opacity="1" /><path clip-path="url(#clip410)" d="M41.3104 732.443 L58.7206 732.443 L58.7206 722.13 Q58.7206 716.942 56.5881 714.46 Q54.4238 711.945 49.9996 711.945 Q45.5436 711.945 43.4429 714.46 Q41.3104 716.942 41.3104 722.13 L41.3104 732.443 M21.7677 732.443 L36.0905 732.443 L36.0905 722.926 Q36.0905 718.216 34.34 715.924 Q32.5576 713.6 28.9291 713.6 Q25.3325 713.6 23.5501 715.924 Q21.7677 718.216 21.7677 722.926 L21.7677 732.443 M16.4842 738.872 L16.4842 722.449 Q16.4842 715.096 19.5397 711.118 Q22.5952 707.139 28.2289 707.139 Q32.5894 707.139 35.1675 709.176 Q37.7456 711.213 38.3822 715.16 Q39.4007 710.418 42.6472 707.808 Q45.8619 705.166 50.6998 705.166 Q57.0655 705.166 60.5348 709.495 Q64.0042 713.823 64.0042 721.812 L64.0042 738.872 L16.4842 738.872 Z" fill="#000000" fill-rule="nonzero" fill-opacity="1" /><path clip-path="url(#clip410)" d="M20.8447 676.011 Q20.8447 683.013 26.0645 687.151 Q31.2844 691.257 40.2919 691.257 Q49.2675 691.257 54.4874 687.151 Q59.7073 683.013 59.7073 676.011 Q59.7073 669.009 54.4874 664.935 Q49.2675 660.829 40.2919 660.829 Q31.2844 660.829 26.0645 664.935 Q20.8447 669.009 20.8447 676.011 M15.6248 676.011 Q15.6248 666.017 22.3406 660.033 Q29.0246 654.049 40.2919 654.049 Q51.5274 654.049 58.2432 660.033 Q64.9272 666.017 64.9272 676.011 Q64.9272 686.037 58.2432 692.052 Q51.5592 698.036 40.2919 698.036 Q29.0246 698.036 22.3406 692.052 Q15.6248 686.037 15.6248 676.011 Z" fill="#000000" fill-rule="nonzero" fill-opacity="1" /><polyline clip-path="url(#clip412)" style="stroke:#009af9; stroke-linecap:round; stroke-linejoin:round; stroke-width:4; stroke-opacity:1; fill:none" points="440.038,1368.3 508.65,660.994 570.378,395.311 632.475,324.337 694.556,297.799 755.413,273.513 816.071,259.468 875.338,253.58 934.117,258.759 992.574,241.385 1052.37,227.754 1113.24,220.85 1172.02,213.347 1230.48,203.568 1289.52,198.784 1347.88,196.241 1406.92,182.424 1466.18,175.644 1525.68,167.123 1584.16,155.589 1642.68,156.053 1702.23,148.773 1762.01,147.081 1822,133.383 1880.97,125.887 1940.51,122.732 1999.94,115.68 2058.61,111.067 2117.91,98.8981 2176.87,94.4681 2236.43,86.1857 2295.58,87.8883 "/>
<polyline clip-path="url(#clip412)" style="stroke:#e26f46; stroke-linecap:round; stroke-linejoin:round; stroke-width:4; stroke-opacity:1; fill:none" points="389.794,1384.24 419.518,737.562 430.637,473.718 441.951,365.845 456.985,318.754 468.31,309.781 479.635,296.971 490.828,282.816 502.149,270.053 513.485,260.02 524.845,251.187 535.922,250.17 547.3,241.62 558.583,234.457 569.882,230.787 581.09,214.861 592.134,211.461 603.464,206.05 614.726,198.739 625.905,192.333 636.89,187.351 648.01,181.88 659.216,176.394 670.507,173.553 681.469,164.924 692.677,162.67 703.773,154.862 715.176,151.878 726.081,147.661 737.23,143.067 748.36,134.102 759.684,128.898 "/>
<path clip-path="url(#clip410)" d="M1784.1 1377.32 L2285.42 1377.32 L2285.42 1221.8 L1784.1 1221.8  Z" fill="#ffffff" fill-rule="evenodd" fill-opacity="1"/>
<polyline clip-path="url(#clip410)" style="stroke:#000000; stroke-linecap:round; stroke-linejoin:round; stroke-width:4; stroke-opacity:1; fill:none" points="1784.1,1377.32 2285.42,1377.32 2285.42,1221.8 1784.1,1221.8 1784.1,1377.32 "/>
<polyline clip-path="url(#clip410)" style="stroke:#009af9; stroke-linecap:round; stroke-linejoin:round; stroke-width:4; stroke-opacity:1; fill:none" points="1806.55,1273.64 1941.22,1273.64 "/>
<path clip-path="url(#clip410)" d="M1963.67 1256.36 L1983.53 1256.36 L1983.53 1260.29 L1968.34 1260.29 L1968.34 1270.48 L1982.05 1270.48 L1982.05 1274.41 L1968.34 1274.41 L1968.34 1290.92 L1963.67 1290.92 L1963.67 1256.36 Z" fill="#000000" fill-rule="nonzero" fill-opacity="1" /><path clip-path="url(#clip410)" d="M1987.72 1280.68 L1987.72 1264.99 L1991.98 1264.99 L1991.98 1280.52 Q1991.98 1284.2 1993.41 1286.05 Q1994.85 1287.88 1997.72 1287.88 Q2001.17 1287.88 2003.16 1285.68 Q2005.17 1283.48 2005.17 1279.69 L2005.17 1264.99 L2009.43 1264.99 L2009.43 1290.92 L2005.17 1290.92 L2005.17 1286.93 Q2003.62 1289.29 2001.56 1290.45 Q1999.52 1291.59 1996.82 1291.59 Q1992.35 1291.59 1990.03 1288.81 Q1987.72 1286.03 1987.72 1280.68 M1998.44 1264.36 L1998.44 1264.36 Z" fill="#000000" fill-rule="nonzero" fill-opacity="1" /><path clip-path="url(#clip410)" d="M2018.2 1254.9 L2022.46 1254.9 L2022.46 1290.92 L2018.2 1290.92 L2018.2 1254.9 Z" fill="#000000" fill-rule="nonzero" fill-opacity="1" /><path clip-path="url(#clip410)" d="M2031.38 1254.9 L2035.64 1254.9 L2035.64 1290.92 L2031.38 1290.92 L2031.38 1254.9 Z" fill="#000000" fill-rule="nonzero" fill-opacity="1" /><path clip-path="url(#clip410)" d="M2064.48 1274.41 L2064.48 1287.07 L2071.98 1287.07 Q2075.75 1287.07 2077.56 1285.52 Q2079.39 1283.95 2079.39 1280.73 Q2079.39 1277.49 2077.56 1275.96 Q2075.75 1274.41 2071.98 1274.41 L2064.48 1274.41 M2064.48 1260.2 L2064.48 1270.61 L2071.4 1270.61 Q2074.82 1270.61 2076.49 1269.34 Q2078.18 1268.05 2078.18 1265.41 Q2078.18 1262.79 2076.49 1261.49 Q2074.82 1260.2 2071.4 1260.2 L2064.48 1260.2 M2059.8 1256.36 L2071.75 1256.36 Q2077.09 1256.36 2079.99 1258.58 Q2082.88 1260.8 2082.88 1264.9 Q2082.88 1268.07 2081.4 1269.94 Q2079.92 1271.82 2077.05 1272.28 Q2080.5 1273.02 2082.39 1275.38 Q2084.32 1277.72 2084.32 1281.24 Q2084.32 1285.87 2081.17 1288.39 Q2078.02 1290.92 2072.21 1290.92 L2059.8 1290.92 L2059.8 1256.36 Z" fill="#000000" fill-rule="nonzero" fill-opacity="1" /><path clip-path="url(#clip410)" d="M2103.92 1277.88 Q2098.76 1277.88 2096.77 1279.06 Q2094.78 1280.24 2094.78 1283.09 Q2094.78 1285.36 2096.26 1286.7 Q2097.76 1288.02 2100.33 1288.02 Q2103.88 1288.02 2106.01 1285.52 Q2108.16 1283 2108.16 1278.83 L2108.16 1277.88 L2103.92 1277.88 M2112.42 1276.12 L2112.42 1290.92 L2108.16 1290.92 L2108.16 1286.98 Q2106.7 1289.34 2104.52 1290.48 Q2102.35 1291.59 2099.2 1291.59 Q2095.22 1291.59 2092.86 1289.36 Q2090.52 1287.12 2090.52 1283.37 Q2090.52 1278.99 2093.44 1276.77 Q2096.38 1274.55 2102.19 1274.55 L2108.16 1274.55 L2108.16 1274.13 Q2108.16 1271.19 2106.21 1269.6 Q2104.29 1267.98 2100.8 1267.98 Q2098.57 1267.98 2096.47 1268.51 Q2094.36 1269.04 2092.42 1270.11 L2092.42 1266.17 Q2094.76 1265.27 2096.95 1264.83 Q2099.15 1264.36 2101.24 1264.36 Q2106.86 1264.36 2109.64 1267.28 Q2112.42 1270.2 2112.42 1276.12 Z" fill="#000000" fill-rule="nonzero" fill-opacity="1" /><path clip-path="url(#clip410)" d="M2125.4 1257.63 L2125.4 1264.99 L2134.18 1264.99 L2134.18 1268.3 L2125.4 1268.3 L2125.4 1282.37 Q2125.4 1285.54 2126.26 1286.45 Q2127.14 1287.35 2129.8 1287.35 L2134.18 1287.35 L2134.18 1290.92 L2129.8 1290.92 Q2124.87 1290.92 2123 1289.09 Q2121.12 1287.23 2121.12 1282.37 L2121.12 1268.3 L2118 1268.3 L2118 1264.99 L2121.12 1264.99 L2121.12 1257.63 L2125.4 1257.63 Z" fill="#000000" fill-rule="nonzero" fill-opacity="1" /><path clip-path="url(#clip410)" d="M2158.44 1265.98 L2158.44 1269.97 Q2156.63 1268.97 2154.8 1268.48 Q2153 1267.98 2151.14 1267.98 Q2147 1267.98 2144.71 1270.61 Q2142.42 1273.23 2142.42 1277.98 Q2142.42 1282.72 2144.71 1285.36 Q2147 1287.98 2151.14 1287.98 Q2153 1287.98 2154.8 1287.49 Q2156.63 1286.98 2158.44 1285.98 L2158.44 1289.92 Q2156.65 1290.75 2154.73 1291.17 Q2152.83 1291.59 2150.68 1291.59 Q2144.82 1291.59 2141.38 1287.91 Q2137.93 1284.23 2137.93 1277.98 Q2137.93 1271.63 2141.4 1268 Q2144.89 1264.36 2150.96 1264.36 Q2152.93 1264.36 2154.8 1264.78 Q2156.68 1265.17 2158.44 1265.98 Z" fill="#000000" fill-rule="nonzero" fill-opacity="1" /><path clip-path="url(#clip410)" d="M2187.39 1275.27 L2187.39 1290.92 L2183.13 1290.92 L2183.13 1275.41 Q2183.13 1271.73 2181.7 1269.9 Q2180.26 1268.07 2177.39 1268.07 Q2173.94 1268.07 2171.95 1270.27 Q2169.96 1272.47 2169.96 1276.26 L2169.96 1290.92 L2165.68 1290.92 L2165.68 1254.9 L2169.96 1254.9 L2169.96 1269.02 Q2171.49 1266.68 2173.55 1265.52 Q2175.63 1264.36 2178.34 1264.36 Q2182.81 1264.36 2185.1 1267.14 Q2187.39 1269.9 2187.39 1275.27 Z" fill="#000000" fill-rule="nonzero" fill-opacity="1" /><polyline clip-path="url(#clip410)" style="stroke:#e26f46; stroke-linecap:round; stroke-linejoin:round; stroke-width:4; stroke-opacity:1; fill:none" points="1806.55,1325.48 1941.22,1325.48 "/>
<path clip-path="url(#clip410)" d="M1985.91 1309.33 L1985.91 1313.89 Q1983.25 1312.62 1980.89 1311.99 Q1978.53 1311.37 1976.33 1311.37 Q1972.51 1311.37 1970.43 1312.85 Q1968.37 1314.33 1968.37 1317.06 Q1968.37 1319.35 1969.73 1320.53 Q1971.12 1321.69 1974.96 1322.41 L1977.79 1322.99 Q1983.02 1323.98 1985.5 1326.51 Q1988 1329.01 1988 1333.22 Q1988 1338.24 1984.62 1340.83 Q1981.26 1343.43 1974.76 1343.43 Q1972.3 1343.43 1969.52 1342.87 Q1966.77 1342.32 1963.81 1341.23 L1963.81 1336.41 Q1966.65 1338.01 1969.39 1338.82 Q1972.12 1339.63 1974.76 1339.63 Q1978.76 1339.63 1980.94 1338.06 Q1983.11 1336.48 1983.11 1333.57 Q1983.11 1331.02 1981.54 1329.58 Q1979.99 1328.15 1976.42 1327.43 L1973.58 1326.88 Q1968.34 1325.83 1966.01 1323.61 Q1963.67 1321.39 1963.67 1317.43 Q1963.67 1312.85 1966.89 1310.21 Q1970.13 1307.57 1975.8 1307.57 Q1978.23 1307.57 1980.75 1308.01 Q1983.27 1308.45 1985.91 1309.33 Z" fill="#000000" fill-rule="nonzero" fill-opacity="1" /><path clip-path="url(#clip410)" d="M1994.66 1332.52 L1994.66 1316.83 L1998.92 1316.83 L1998.92 1332.36 Q1998.92 1336.04 2000.36 1337.89 Q2001.79 1339.72 2004.66 1339.72 Q2008.11 1339.72 2010.1 1337.52 Q2012.12 1335.32 2012.12 1331.53 L2012.12 1316.83 L2016.38 1316.83 L2016.38 1342.76 L2012.12 1342.76 L2012.12 1338.77 Q2010.57 1341.13 2008.51 1342.29 Q2006.47 1343.43 2003.76 1343.43 Q1999.29 1343.43 1996.98 1340.65 Q1994.66 1337.87 1994.66 1332.52 M2005.38 1316.2 L2005.38 1316.2 Z" fill="#000000" fill-rule="nonzero" fill-opacity="1" /><path clip-path="url(#clip410)" d="M2043.76 1329.82 Q2043.76 1325.12 2041.82 1322.45 Q2039.89 1319.77 2036.51 1319.77 Q2033.14 1319.77 2031.19 1322.45 Q2029.27 1325.12 2029.27 1329.82 Q2029.27 1334.51 2031.19 1337.2 Q2033.14 1339.86 2036.51 1339.86 Q2039.89 1339.86 2041.82 1337.2 Q2043.76 1334.51 2043.76 1329.82 M2029.27 1320.76 Q2030.61 1318.45 2032.65 1317.34 Q2034.71 1316.2 2037.56 1316.2 Q2042.28 1316.2 2045.22 1319.95 Q2048.18 1323.7 2048.18 1329.82 Q2048.18 1335.93 2045.22 1339.68 Q2042.28 1343.43 2037.56 1343.43 Q2034.71 1343.43 2032.65 1342.32 Q2030.61 1341.18 2029.27 1338.87 L2029.27 1342.76 L2024.99 1342.76 L2024.99 1306.74 L2029.27 1306.74 L2029.27 1320.76 Z" fill="#000000" fill-rule="nonzero" fill-opacity="1" /><path clip-path="url(#clip410)" d="M2071.77 1317.59 L2071.77 1321.62 Q2069.96 1320.7 2068.02 1320.23 Q2066.08 1319.77 2063.99 1319.77 Q2060.82 1319.77 2059.22 1320.74 Q2057.65 1321.71 2057.65 1323.66 Q2057.65 1325.14 2058.78 1326 Q2059.92 1326.83 2063.34 1327.59 L2064.8 1327.92 Q2069.34 1328.89 2071.24 1330.67 Q2073.16 1332.43 2073.16 1335.6 Q2073.16 1339.21 2070.29 1341.32 Q2067.44 1343.43 2062.44 1343.43 Q2060.36 1343.43 2058.09 1343.01 Q2055.84 1342.62 2053.34 1341.81 L2053.34 1337.41 Q2055.7 1338.63 2058 1339.26 Q2060.29 1339.86 2062.53 1339.86 Q2065.54 1339.86 2067.16 1338.84 Q2068.78 1337.8 2068.78 1335.93 Q2068.78 1334.19 2067.6 1333.26 Q2066.45 1332.34 2062.49 1331.48 L2061.01 1331.14 Q2057.05 1330.3 2055.29 1328.59 Q2053.53 1326.85 2053.53 1323.84 Q2053.53 1320.19 2056.12 1318.2 Q2058.71 1316.2 2063.48 1316.2 Q2065.84 1316.2 2067.93 1316.55 Q2070.01 1316.9 2071.77 1317.59 Z" fill="#000000" fill-rule="nonzero" fill-opacity="1" /><path clip-path="url(#clip410)" d="M2091.72 1329.72 Q2086.56 1329.72 2084.57 1330.9 Q2082.58 1332.08 2082.58 1334.93 Q2082.58 1337.2 2084.06 1338.54 Q2085.57 1339.86 2088.14 1339.86 Q2091.68 1339.86 2093.81 1337.36 Q2095.96 1334.84 2095.96 1330.67 L2095.96 1329.72 L2091.72 1329.72 M2100.22 1327.96 L2100.22 1342.76 L2095.96 1342.76 L2095.96 1338.82 Q2094.5 1341.18 2092.32 1342.32 Q2090.15 1343.43 2087 1343.43 Q2083.02 1343.43 2080.66 1341.2 Q2078.32 1338.96 2078.32 1335.21 Q2078.32 1330.83 2081.24 1328.61 Q2084.18 1326.39 2089.99 1326.39 L2095.96 1326.39 L2095.96 1325.97 Q2095.96 1323.03 2094.01 1321.44 Q2092.09 1319.82 2088.6 1319.82 Q2086.38 1319.82 2084.27 1320.35 Q2082.16 1320.88 2080.22 1321.95 L2080.22 1318.01 Q2082.56 1317.11 2084.76 1316.67 Q2086.95 1316.2 2089.04 1316.2 Q2094.66 1316.2 2097.44 1319.12 Q2100.22 1322.04 2100.22 1327.96 Z" fill="#000000" fill-rule="nonzero" fill-opacity="1" /><path clip-path="url(#clip410)" d="M2129.18 1321.81 Q2130.77 1318.94 2133 1317.57 Q2135.22 1316.2 2138.23 1316.2 Q2142.28 1316.2 2144.48 1319.05 Q2146.68 1321.88 2146.68 1327.11 L2146.68 1342.76 L2142.39 1342.76 L2142.39 1327.25 Q2142.39 1323.52 2141.07 1321.71 Q2139.76 1319.91 2137.05 1319.91 Q2133.74 1319.91 2131.82 1322.11 Q2129.89 1324.31 2129.89 1328.1 L2129.89 1342.76 L2125.61 1342.76 L2125.61 1327.25 Q2125.61 1323.5 2124.29 1321.71 Q2122.97 1319.91 2120.22 1319.91 Q2116.95 1319.91 2115.03 1322.13 Q2113.11 1324.33 2113.11 1328.1 L2113.11 1342.76 L2108.83 1342.76 L2108.83 1316.83 L2113.11 1316.83 L2113.11 1320.86 Q2114.57 1318.47 2116.61 1317.34 Q2118.64 1316.2 2121.45 1316.2 Q2124.27 1316.2 2126.24 1317.64 Q2128.23 1319.07 2129.18 1321.81 Z" fill="#000000" fill-rule="nonzero" fill-opacity="1" /><path clip-path="url(#clip410)" d="M2159.29 1338.87 L2159.29 1352.62 L2155.01 1352.62 L2155.01 1316.83 L2159.29 1316.83 L2159.29 1320.76 Q2160.63 1318.45 2162.67 1317.34 Q2164.73 1316.2 2167.58 1316.2 Q2172.3 1316.2 2175.24 1319.95 Q2178.2 1323.7 2178.2 1329.82 Q2178.2 1335.93 2175.24 1339.68 Q2172.3 1343.43 2167.58 1343.43 Q2164.73 1343.43 2162.67 1342.32 Q2160.63 1341.18 2159.29 1338.87 M2173.78 1329.82 Q2173.78 1325.12 2171.84 1322.45 Q2169.92 1319.77 2166.54 1319.77 Q2163.16 1319.77 2161.21 1322.45 Q2159.29 1325.12 2159.29 1329.82 Q2159.29 1334.51 2161.21 1337.2 Q2163.16 1339.86 2166.54 1339.86 Q2169.92 1339.86 2171.84 1337.2 Q2173.78 1334.51 2173.78 1329.82 Z" fill="#000000" fill-rule="nonzero" fill-opacity="1" /><path clip-path="url(#clip410)" d="M2185.26 1306.74 L2189.52 1306.74 L2189.52 1342.76 L2185.26 1342.76 L2185.26 1306.74 Z" fill="#000000" fill-rule="nonzero" fill-opacity="1" /><path clip-path="url(#clip410)" d="M2198.44 1316.83 L2202.69 1316.83 L2202.69 1342.76 L2198.44 1342.76 L2198.44 1316.83 M2198.44 1306.74 L2202.69 1306.74 L2202.69 1312.13 L2198.44 1312.13 L2198.44 1306.74 Z" fill="#000000" fill-rule="nonzero" fill-opacity="1" /><path clip-path="url(#clip410)" d="M2233.16 1327.11 L2233.16 1342.76 L2228.9 1342.76 L2228.9 1327.25 Q2228.9 1323.57 2227.46 1321.74 Q2226.03 1319.91 2223.16 1319.91 Q2219.71 1319.91 2217.72 1322.11 Q2215.73 1324.31 2215.73 1328.1 L2215.73 1342.76 L2211.44 1342.76 L2211.44 1316.83 L2215.73 1316.83 L2215.73 1320.86 Q2217.25 1318.52 2219.31 1317.36 Q2221.4 1316.2 2224.11 1316.2 Q2228.57 1316.2 2230.87 1318.98 Q2233.16 1321.74 2233.16 1327.11 Z" fill="#000000" fill-rule="nonzero" fill-opacity="1" /><path clip-path="url(#clip410)" d="M2258.71 1329.49 Q2258.71 1324.86 2256.79 1322.32 Q2254.89 1319.77 2251.44 1319.77 Q2248.02 1319.77 2246.1 1322.32 Q2244.2 1324.86 2244.2 1329.49 Q2244.2 1334.1 2246.1 1336.64 Q2248.02 1339.19 2251.44 1339.19 Q2254.89 1339.19 2256.79 1336.64 Q2258.71 1334.1 2258.71 1329.49 M2262.97 1339.54 Q2262.97 1346.16 2260.03 1349.38 Q2257.09 1352.62 2251.03 1352.62 Q2248.78 1352.62 2246.79 1352.27 Q2244.8 1351.95 2242.93 1351.25 L2242.93 1347.11 Q2244.8 1348.13 2246.63 1348.61 Q2248.46 1349.1 2250.36 1349.1 Q2254.55 1349.1 2256.63 1346.9 Q2258.71 1344.72 2258.71 1340.3 L2258.71 1338.2 Q2257.39 1340.49 2255.33 1341.62 Q2253.27 1342.76 2250.4 1342.76 Q2245.63 1342.76 2242.72 1339.12 Q2239.8 1335.49 2239.8 1329.49 Q2239.8 1323.47 2242.72 1319.84 Q2245.63 1316.2 2250.4 1316.2 Q2253.27 1316.2 2255.33 1317.34 Q2257.39 1318.47 2258.71 1320.76 L2258.71 1316.83 L2262.97 1316.83 L2262.97 1339.54 Z" fill="#000000" fill-rule="nonzero" fill-opacity="1" /></svg>
