<?xml version="1.0" encoding="utf-8"?>
<svg xmlns="http://www.w3.org/2000/svg" xmlns:xlink="http://www.w3.org/1999/xlink" width="600" height="400" viewBox="0 0 2400 1600">
<defs>
  <clipPath id="clip960">
    <rect x="0" y="0" width="2400" height="1600"/>
  </clipPath>
</defs>
<path clip-path="url(#clip960)" d="M0 1600 L2400 1600 L2400 0 L0 0  Z" fill="#ffffff" fill-rule="evenodd" fill-opacity="1"/>
<defs>
  <clipPath id="clip961">
    <rect x="175" y="47" width="2178" height="1377"/>
  </clipPath>
</defs>
<path clip-path="url(#clip960)" d="M242.135 1423.18 L2352.76 1423.18 L2352.76 47.2441 L242.135 47.2441  Z" fill="#ffffff" fill-rule="evenodd" fill-opacity="1"/>
<defs>
  <clipPath id="clip962">
    <rect x="242" y="47" width="2112" height="1377"/>
  </clipPath>
</defs>
<polyline clip-path="url(#clip962)" style="stroke:#000000; stroke-linecap:round; stroke-linejoin:round; stroke-width:2; stroke-opacity:0.1; fill:none" points="299.876,1423.18 299.876,47.2441 "/>
<polyline clip-path="url(#clip962)" style="stroke:#000000; stroke-linecap:round; stroke-linejoin:round; stroke-width:2; stroke-opacity:0.1; fill:none" points="798.162,1423.18 798.162,47.2441 "/>
<polyline clip-path="url(#clip962)" style="stroke:#000000; stroke-linecap:round; stroke-linejoin:round; stroke-width:2; stroke-opacity:0.1; fill:none" points="1296.45,1423.18 1296.45,47.2441 "/>
<polyline clip-path="url(#clip962)" style="stroke:#000000; stroke-linecap:round; stroke-linejoin:round; stroke-width:2; stroke-opacity:0.1; fill:none" points="1794.74,1423.18 1794.74,47.2441 "/>
<polyline clip-path="url(#clip962)" style="stroke:#000000; stroke-linecap:round; stroke-linejoin:round; stroke-width:2; stroke-opacity:0.1; fill:none" points="2293.02,1423.18 2293.02,47.2441 "/>
<polyline clip-path="url(#clip962)" style="stroke:#000000; stroke-linecap:round; stroke-linejoin:round; stroke-width:2; stroke-opacity:0.1; fill:none" points="242.135,1183.13 2352.76,1183.13 "/>
<polyline clip-path="url(#clip962)" style="stroke:#000000; stroke-linecap:round; stroke-linejoin:round; stroke-width:2; stroke-opacity:0.1; fill:none" points="242.135,863.331 2352.76,863.331 "/>
<polyline clip-path="url(#clip962)" style="stroke:#000000; stroke-linecap:round; stroke-linejoin:round; stroke-width:2; stroke-opacity:0.1; fill:none" points="242.135,543.532 2352.76,543.532 "/>
<polyline clip-path="url(#clip962)" style="stroke:#000000; stroke-linecap:round; stroke-linejoin:round; stroke-width:2; stroke-opacity:0.1; fill:none" points="242.135,223.732 2352.76,223.732 "/>
<polyline clip-path="url(#clip960)" style="stroke:#000000; stroke-linecap:round; stroke-linejoin:round; stroke-width:4; stroke-opacity:1; fill:none" points="242.135,1423.18 2352.76,1423.18 "/>
<polyline clip-path="url(#clip960)" style="stroke:#000000; stroke-linecap:round; stroke-linejoin:round; stroke-width:4; stroke-opacity:1; fill:none" points="299.876,1423.18 299.876,1404.28 "/>
<polyline clip-path="url(#clip960)" style="stroke:#000000; stroke-linecap:round; stroke-linejoin:round; stroke-width:4; stroke-opacity:1; fill:none" points="798.162,1423.18 798.162,1404.28 "/>
<polyline clip-path="url(#clip960)" style="stroke:#000000; stroke-linecap:round; stroke-linejoin:round; stroke-width:4; stroke-opacity:1; fill:none" points="1296.45,1423.18 1296.45,1404.28 "/>
<polyline clip-path="url(#clip960)" style="stroke:#000000; stroke-linecap:round; stroke-linejoin:round; stroke-width:4; stroke-opacity:1; fill:none" points="1794.74,1423.18 1794.74,1404.28 "/>
<polyline clip-path="url(#clip960)" style="stroke:#000000; stroke-linecap:round; stroke-linejoin:round; stroke-width:4; stroke-opacity:1; fill:none" points="2293.02,1423.18 2293.02,1404.28 "/>
<path clip-path="url(#clip960)" d="M299.876 1454.1 Q296.265 1454.1 294.436 1457.66 Q292.631 1461.2 292.631 1468.33 Q292.631 1475.44 294.436 1479.01 Q296.265 1482.55 299.876 1482.55 Q303.51 1482.55 305.316 1479.01 Q307.145 1475.44 307.145 1468.33 Q307.145 1461.2 305.316 1457.66 Q303.51 1454.1 299.876 1454.1 M299.876 1450.39 Q305.686 1450.39 308.742 1455 Q311.82 1459.58 311.82 1468.33 Q311.82 1477.06 308.742 1481.67 Q305.686 1486.25 299.876 1486.25 Q294.066 1486.25 290.987 1481.67 Q287.932 1477.06 287.932 1468.33 Q287.932 1459.58 290.987 1455 Q294.066 1450.39 299.876 1450.39 Z" fill="#000000" fill-rule="nonzero" fill-opacity="1" /><path clip-path="url(#clip960)" d="M761.855 1481.64 L778.174 1481.64 L778.174 1485.58 L756.23 1485.58 L756.23 1481.64 Q758.892 1478.89 763.475 1474.26 Q768.082 1469.61 769.262 1468.27 Q771.507 1465.74 772.387 1464.01 Q773.29 1462.25 773.29 1460.56 Q773.29 1457.8 771.345 1456.07 Q769.424 1454.33 766.322 1454.33 Q764.123 1454.33 761.67 1455.09 Q759.239 1455.86 756.461 1457.41 L756.461 1452.69 Q759.285 1451.55 761.739 1450.97 Q764.193 1450.39 766.23 1450.39 Q771.6 1450.39 774.794 1453.08 Q777.989 1455.77 777.989 1460.26 Q777.989 1462.39 777.179 1464.31 Q776.392 1466.2 774.285 1468.8 Q773.707 1469.47 770.605 1472.69 Q767.503 1475.88 761.855 1481.64 Z" fill="#000000" fill-rule="nonzero" fill-opacity="1" /><path clip-path="url(#clip960)" d="M788.035 1451.02 L806.392 1451.02 L806.392 1454.96 L792.318 1454.96 L792.318 1463.43 Q793.336 1463.08 794.355 1462.92 Q795.373 1462.73 796.392 1462.73 Q802.179 1462.73 805.558 1465.9 Q808.938 1469.08 808.938 1474.49 Q808.938 1480.07 805.466 1483.17 Q801.993 1486.25 795.674 1486.25 Q793.498 1486.25 791.23 1485.88 Q788.984 1485.51 786.577 1484.77 L786.577 1480.07 Q788.66 1481.2 790.882 1481.76 Q793.105 1482.32 795.581 1482.32 Q799.586 1482.32 801.924 1480.21 Q804.262 1478.1 804.262 1474.49 Q804.262 1470.88 801.924 1468.77 Q799.586 1466.67 795.581 1466.67 Q793.706 1466.67 791.831 1467.08 Q789.98 1467.5 788.035 1468.38 L788.035 1451.02 Z" fill="#000000" fill-rule="nonzero" fill-opacity="1" /><path clip-path="url(#clip960)" d="M828.151 1454.1 Q824.54 1454.1 822.711 1457.66 Q820.905 1461.2 820.905 1468.33 Q820.905 1475.44 822.711 1479.01 Q824.54 1482.55 828.151 1482.55 Q831.785 1482.55 833.59 1479.01 Q835.419 1475.44 835.419 1468.33 Q835.419 1461.2 833.59 1457.66 Q831.785 1454.1 828.151 1454.1 M828.151 1450.39 Q833.961 1450.39 837.016 1455 Q840.095 1459.58 840.095 1468.33 Q840.095 1477.06 837.016 1481.67 Q833.961 1486.25 828.151 1486.25 Q822.341 1486.25 819.262 1481.67 Q816.206 1477.06 816.206 1468.33 Q816.206 1459.58 819.262 1455 Q822.341 1450.39 828.151 1450.39 Z" fill="#000000" fill-rule="nonzero" fill-opacity="1" /><path clip-path="url(#clip960)" d="M1256.07 1451.02 L1274.42 1451.02 L1274.42 1454.96 L1260.35 1454.96 L1260.35 1463.43 Q1261.37 1463.08 1262.39 1462.92 Q1263.4 1462.73 1264.42 1462.73 Q1270.21 1462.73 1273.59 1465.9 Q1276.97 1469.08 1276.97 1474.49 Q1276.97 1480.07 1273.5 1483.17 Q1270.03 1486.25 1263.71 1486.25 Q1261.53 1486.25 1259.26 1485.88 Q1257.02 1485.51 1254.61 1484.77 L1254.61 1480.07 Q1256.69 1481.2 1258.91 1481.76 Q1261.14 1482.32 1263.61 1482.32 Q1267.62 1482.32 1269.96 1480.21 Q1272.29 1478.1 1272.29 1474.49 Q1272.29 1470.88 1269.96 1468.77 Q1267.62 1466.67 1263.61 1466.67 Q1261.74 1466.67 1259.86 1467.08 Q1258.01 1467.5 1256.07 1468.38 L1256.07 1451.02 Z" fill="#000000" fill-rule="nonzero" fill-opacity="1" /><path clip-path="url(#clip960)" d="M1296.18 1454.1 Q1292.57 1454.1 1290.74 1457.66 Q1288.94 1461.2 1288.94 1468.33 Q1288.94 1475.44 1290.74 1479.01 Q1292.57 1482.55 1296.18 1482.55 Q1299.82 1482.55 1301.62 1479.01 Q1303.45 1475.44 1303.45 1468.33 Q1303.45 1461.2 1301.62 1457.66 Q1299.82 1454.1 1296.18 1454.1 M1296.18 1450.39 Q1301.99 1450.39 1305.05 1455 Q1308.13 1459.58 1308.13 1468.33 Q1308.13 1477.06 1305.05 1481.67 Q1301.99 1486.25 1296.18 1486.25 Q1290.37 1486.25 1287.29 1481.67 Q1284.24 1477.06 1284.24 1468.33 Q1284.24 1459.58 1287.29 1455 Q1290.37 1450.39 1296.18 1450.39 Z" fill="#000000" fill-rule="nonzero" fill-opacity="1" /><path clip-path="url(#clip960)" d="M1326.34 1454.1 Q1322.73 1454.1 1320.9 1457.66 Q1319.1 1461.2 1319.1 1468.33 Q1319.1 1475.44 1320.9 1479.01 Q1322.73 1482.55 1326.34 1482.55 Q1329.98 1482.55 1331.78 1479.01 Q1333.61 1475.44 1333.61 1468.33 Q1333.61 1461.2 1331.78 1457.66 Q1329.98 1454.1 1326.34 1454.1 M1326.34 1450.39 Q1332.15 1450.39 1335.21 1455 Q1338.29 1459.58 1338.29 1468.33 Q1338.29 1477.06 1335.21 1481.67 Q1332.15 1486.25 1326.34 1486.25 Q1320.53 1486.25 1317.46 1481.67 Q1314.4 1477.06 1314.4 1468.33 Q1314.4 1459.58 1317.46 1455 Q1320.53 1450.39 1326.34 1450.39 Z" fill="#000000" fill-rule="nonzero" fill-opacity="1" /><path clip-path="url(#clip960)" d="M1753.01 1451.02 L1775.23 1451.02 L1775.23 1453.01 L1762.69 1485.58 L1757.8 1485.58 L1769.61 1454.96 L1753.01 1454.96 L1753.01 1451.02 Z" fill="#000000" fill-rule="nonzero" fill-opacity="1" /><path clip-path="url(#clip960)" d="M1784.4 1451.02 L1802.76 1451.02 L1802.76 1454.96 L1788.68 1454.96 L1788.68 1463.43 Q1789.7 1463.08 1790.72 1462.92 Q1791.74 1462.73 1792.76 1462.73 Q1798.54 1462.73 1801.92 1465.9 Q1805.3 1469.08 1805.3 1474.49 Q1805.3 1480.07 1801.83 1483.17 Q1798.36 1486.25 1792.04 1486.25 Q1789.86 1486.25 1787.59 1485.88 Q1785.35 1485.51 1782.94 1484.77 L1782.94 1480.07 Q1785.02 1481.2 1787.25 1481.76 Q1789.47 1482.32 1791.95 1482.32 Q1795.95 1482.32 1798.29 1480.21 Q1800.63 1478.1 1800.63 1474.49 Q1800.63 1470.88 1798.29 1468.77 Q1795.95 1466.67 1791.95 1466.67 Q1790.07 1466.67 1788.2 1467.08 Q1786.34 1467.5 1784.4 1468.38 L1784.4 1451.02 Z" fill="#000000" fill-rule="nonzero" fill-opacity="1" /><path clip-path="url(#clip960)" d="M1824.51 1454.1 Q1820.9 1454.1 1819.08 1457.66 Q1817.27 1461.2 1817.27 1468.33 Q1817.27 1475.44 1819.08 1479.01 Q1820.9 1482.55 1824.51 1482.55 Q1828.15 1482.55 1829.95 1479.01 Q1831.78 1475.44 1831.78 1468.33 Q1831.78 1461.2 1829.95 1457.66 Q1828.15 1454.1 1824.51 1454.1 M1824.51 1450.39 Q1830.33 1450.39 1833.38 1455 Q1836.46 1459.58 1836.46 1468.33 Q1836.46 1477.06 1833.38 1481.67 Q1830.33 1486.25 1824.51 1486.25 Q1818.7 1486.25 1815.63 1481.67 Q1812.57 1477.06 1812.57 1468.33 Q1812.57 1459.58 1815.63 1455 Q1818.7 1450.39 1824.51 1450.39 Z" fill="#000000" fill-rule="nonzero" fill-opacity="1" /><path clip-path="url(#clip960)" d="M2237.55 1481.64 L2245.19 1481.64 L2245.19 1455.28 L2236.88 1456.95 L2236.88 1452.69 L2245.14 1451.02 L2249.82 1451.02 L2249.82 1481.64 L2257.45 1481.64 L2257.45 1485.58 L2237.55 1485.58 L2237.55 1481.64 Z" fill="#000000" fill-rule="nonzero" fill-opacity="1" /><path clip-path="url(#clip960)" d="M2276.9 1454.1 Q2273.29 1454.1 2271.46 1457.66 Q2269.65 1461.2 2269.65 1468.33 Q2269.65 1475.44 2271.46 1479.01 Q2273.29 1482.55 2276.9 1482.55 Q2280.53 1482.55 2282.34 1479.01 Q2284.17 1475.44 2284.17 1468.33 Q2284.17 1461.2 2282.34 1457.66 Q2280.53 1454.1 2276.9 1454.1 M2276.9 1450.39 Q2282.71 1450.39 2285.76 1455 Q2288.84 1459.58 2288.84 1468.33 Q2288.84 1477.06 2285.76 1481.67 Q2282.71 1486.25 2276.9 1486.25 Q2271.09 1486.25 2268.01 1481.67 Q2264.95 1477.06 2264.95 1468.33 Q2264.95 1459.58 2268.01 1455 Q2271.09 1450.39 2276.9 1450.39 Z" fill="#000000" fill-rule="nonzero" fill-opacity="1" /><path clip-path="url(#clip960)" d="M2307.06 1454.1 Q2303.45 1454.1 2301.62 1457.66 Q2299.82 1461.2 2299.82 1468.33 Q2299.82 1475.44 2301.62 1479.01 Q2303.45 1482.55 2307.06 1482.55 Q2310.69 1482.55 2312.5 1479.01 Q2314.33 1475.44 2314.33 1468.33 Q2314.33 1461.2 2312.5 1457.66 Q2310.69 1454.1 2307.06 1454.1 M2307.06 1450.39 Q2312.87 1450.39 2315.93 1455 Q2319 1459.58 2319 1468.33 Q2319 1477.06 2315.93 1481.67 Q2312.87 1486.25 2307.06 1486.25 Q2301.25 1486.25 2298.17 1481.67 Q2295.12 1477.06 2295.12 1468.33 Q2295.12 1459.58 2298.17 1455 Q2301.25 1450.39 2307.06 1450.39 Z" fill="#000000" fill-rule="nonzero" fill-opacity="1" /><path clip-path="url(#clip960)" d="M2337.22 1454.1 Q2333.61 1454.1 2331.78 1457.66 Q2329.98 1461.2 2329.98 1468.33 Q2329.98 1475.44 2331.78 1479.01 Q2333.61 1482.55 2337.22 1482.55 Q2340.86 1482.55 2342.66 1479.01 Q2344.49 1475.44 2344.49 1468.33 Q2344.49 1461.2 2342.66 1457.66 Q2340.86 1454.1 2337.22 1454.1 M2337.22 1450.39 Q2343.03 1450.39 2346.09 1455 Q2349.17 1459.58 2349.17 1468.33 Q2349.17 1477.06 2346.09 1481.67 Q2343.03 1486.25 2337.22 1486.25 Q2331.41 1486.25 2328.33 1481.67 Q2325.28 1477.06 2325.28 1468.33 Q2325.28 1459.58 2328.33 1455 Q2331.41 1450.39 2337.22 1450.39 Z" fill="#000000" fill-rule="nonzero" fill-opacity="1" /><path clip-path="url(#clip960)" d="M1165.17 1520.52 L1171.6 1520.52 L1171.6 1568.04 L1165.17 1568.04 L1165.17 1520.52 Z" fill="#000000" fill-rule="nonzero" fill-opacity="1" /><path clip-path="url(#clip960)" d="M1189.93 1522.27 L1189.93 1532.4 L1201.99 1532.4 L1201.99 1536.95 L1189.93 1536.95 L1189.93 1556.3 Q1189.93 1560.66 1191.11 1561.9 Q1192.32 1563.14 1195.98 1563.14 L1201.99 1563.14 L1201.99 1568.04 L1195.98 1568.04 Q1189.2 1568.04 1186.62 1565.53 Q1184.04 1562.98 1184.04 1556.3 L1184.04 1536.95 L1179.74 1536.95 L1179.74 1532.4 L1184.04 1532.4 L1184.04 1522.27 L1189.93 1522.27 Z" fill="#000000" fill-rule="nonzero" fill-opacity="1" /><path clip-path="url(#clip960)" d="M1240.19 1548.76 L1240.19 1551.62 L1213.26 1551.62 Q1213.64 1557.67 1216.89 1560.85 Q1220.17 1564 1225.99 1564 Q1229.36 1564 1232.52 1563.17 Q1235.7 1562.35 1238.82 1560.69 L1238.82 1566.23 Q1235.67 1567.57 1232.36 1568.27 Q1229.05 1568.97 1225.64 1568.97 Q1217.11 1568.97 1212.11 1564 Q1207.15 1559.04 1207.15 1550.57 Q1207.15 1541.82 1211.86 1536.69 Q1216.6 1531.54 1224.62 1531.54 Q1231.81 1531.54 1235.98 1536.18 Q1240.19 1540.8 1240.19 1548.76 M1234.33 1547.04 Q1234.27 1542.23 1231.62 1539.37 Q1229.01 1536.5 1224.69 1536.5 Q1219.78 1536.5 1216.82 1539.27 Q1213.9 1542.04 1213.45 1547.07 L1234.33 1547.04 Z" fill="#000000" fill-rule="nonzero" fill-opacity="1" /><path clip-path="url(#clip960)" d="M1270.45 1537.87 Q1269.47 1537.3 1268.29 1537.04 Q1267.14 1536.76 1265.74 1536.76 Q1260.78 1536.76 1258.11 1540 Q1255.46 1543.22 1255.46 1549.27 L1255.46 1568.04 L1249.58 1568.04 L1249.58 1532.4 L1255.46 1532.4 L1255.46 1537.93 Q1257.31 1534.69 1260.27 1533.13 Q1263.23 1531.54 1267.46 1531.54 Q1268.07 1531.54 1268.8 1531.63 Q1269.53 1531.7 1270.42 1531.85 L1270.45 1537.87 Z" fill="#000000" fill-rule="nonzero" fill-opacity="1" /><path clip-path="url(#clip960)" d="M1292.8 1550.12 Q1285.7 1550.12 1282.96 1551.75 Q1280.23 1553.37 1280.23 1557.29 Q1280.23 1560.4 1282.26 1562.25 Q1284.33 1564.07 1287.86 1564.07 Q1292.73 1564.07 1295.66 1560.63 Q1298.62 1557.16 1298.62 1551.43 L1298.62 1550.12 L1292.8 1550.12 M1304.48 1547.71 L1304.48 1568.04 L1298.62 1568.04 L1298.62 1562.63 Q1296.62 1565.88 1293.63 1567.44 Q1290.63 1568.97 1286.31 1568.97 Q1280.83 1568.97 1277.58 1565.91 Q1274.37 1562.82 1274.37 1557.67 Q1274.37 1551.65 1278.38 1548.6 Q1282.42 1545.54 1290.41 1545.54 L1298.62 1545.54 L1298.62 1544.97 Q1298.62 1540.93 1295.95 1538.73 Q1293.31 1536.5 1288.5 1536.5 Q1285.45 1536.5 1282.55 1537.23 Q1279.65 1537.97 1276.98 1539.43 L1276.98 1534.02 Q1280.19 1532.78 1283.22 1532.17 Q1286.24 1531.54 1289.11 1531.54 Q1296.84 1531.54 1300.66 1535.55 Q1304.48 1539.56 1304.48 1547.71 Z" fill="#000000" fill-rule="nonzero" fill-opacity="1" /><path clip-path="url(#clip960)" d="M1322.34 1522.27 L1322.34 1532.4 L1334.4 1532.4 L1334.4 1536.95 L1322.34 1536.95 L1322.34 1556.3 Q1322.34 1560.66 1323.51 1561.9 Q1324.72 1563.14 1328.38 1563.14 L1334.4 1563.14 L1334.4 1568.04 L1328.38 1568.04 Q1321.6 1568.04 1319.03 1565.53 Q1316.45 1562.98 1316.45 1556.3 L1316.45 1536.95 L1312.15 1536.95 L1312.15 1532.4 L1316.45 1532.4 L1316.45 1522.27 L1322.34 1522.27 Z" fill="#000000" fill-rule="nonzero" fill-opacity="1" /><path clip-path="url(#clip960)" d="M1342.1 1532.4 L1347.96 1532.4 L1347.96 1568.04 L1342.1 1568.04 L1342.1 1532.4 M1342.1 1518.52 L1347.96 1518.52 L1347.96 1525.93 L1342.1 1525.93 L1342.1 1518.52 Z" fill="#000000" fill-rule="nonzero" fill-opacity="1" /><path clip-path="url(#clip960)" d="M1374.02 1536.5 Q1369.31 1536.5 1366.58 1540.19 Q1363.84 1543.85 1363.84 1550.25 Q1363.84 1556.65 1366.55 1560.34 Q1369.28 1564 1374.02 1564 Q1378.7 1564 1381.44 1560.31 Q1384.18 1556.62 1384.18 1550.25 Q1384.18 1543.92 1381.44 1540.23 Q1378.7 1536.5 1374.02 1536.5 M1374.02 1531.54 Q1381.66 1531.54 1386.02 1536.5 Q1390.38 1541.47 1390.38 1550.25 Q1390.38 1559 1386.02 1564 Q1381.66 1568.97 1374.02 1568.97 Q1366.35 1568.97 1361.99 1564 Q1357.66 1559 1357.66 1550.25 Q1357.66 1541.47 1361.99 1536.5 Q1366.35 1531.54 1374.02 1531.54 Z" fill="#000000" fill-rule="nonzero" fill-opacity="1" /><path clip-path="url(#clip960)" d="M1429.72 1546.53 L1429.72 1568.04 L1423.87 1568.04 L1423.87 1546.72 Q1423.87 1541.66 1421.89 1539.14 Q1419.92 1536.63 1415.97 1536.63 Q1411.23 1536.63 1408.5 1539.65 Q1405.76 1542.68 1405.76 1547.9 L1405.76 1568.04 L1399.87 1568.04 L1399.87 1532.4 L1405.76 1532.4 L1405.76 1537.93 Q1407.86 1534.72 1410.69 1533.13 Q1413.56 1531.54 1417.28 1531.54 Q1423.42 1531.54 1426.57 1535.36 Q1429.72 1539.14 1429.72 1546.53 Z" fill="#000000" fill-rule="nonzero" fill-opacity="1" /><polyline clip-path="url(#clip960)" style="stroke:#000000; stroke-linecap:round; stroke-linejoin:round; stroke-width:4; stroke-opacity:1; fill:none" points="242.135,1423.18 242.135,47.2441 "/>
<polyline clip-path="url(#clip960)" style="stroke:#000000; stroke-linecap:round; stroke-linejoin:round; stroke-width:4; stroke-opacity:1; fill:none" points="242.135,1183.13 261.032,1183.13 "/>
<polyline clip-path="url(#clip960)" style="stroke:#000000; stroke-linecap:round; stroke-linejoin:round; stroke-width:4; stroke-opacity:1; fill:none" points="242.135,863.331 261.032,863.331 "/>
<polyline clip-path="url(#clip960)" style="stroke:#000000; stroke-linecap:round; stroke-linejoin:round; stroke-width:4; stroke-opacity:1; fill:none" points="242.135,543.532 261.032,543.532 "/>
<polyline clip-path="url(#clip960)" style="stroke:#000000; stroke-linecap:round; stroke-linejoin:round; stroke-width:4; stroke-opacity:1; fill:none" points="242.135,223.732 261.032,223.732 "/>
<path clip-path="url(#clip960)" d="M114.26 1183.58 L143.936 1183.58 L143.936 1187.52 L114.26 1187.52 L114.26 1183.58 Z" fill="#000000" fill-rule="nonzero" fill-opacity="1" /><path clip-path="url(#clip960)" d="M168.195 1181.78 Q171.552 1182.49 173.427 1184.76 Q175.325 1187.03 175.325 1190.36 Q175.325 1195.48 171.806 1198.28 Q168.288 1201.08 161.806 1201.08 Q159.63 1201.08 157.315 1200.64 Q155.024 1200.22 152.57 1199.37 L152.57 1194.85 Q154.515 1195.99 156.829 1196.57 Q159.144 1197.15 161.667 1197.15 Q166.065 1197.15 168.357 1195.41 Q170.672 1193.67 170.672 1190.36 Q170.672 1187.31 168.519 1185.6 Q166.39 1183.86 162.57 1183.86 L158.542 1183.86 L158.542 1180.02 L162.755 1180.02 Q166.204 1180.02 168.033 1178.65 Q169.862 1177.26 169.862 1174.67 Q169.862 1172.01 167.964 1170.6 Q166.089 1169.16 162.57 1169.16 Q160.649 1169.16 158.45 1169.58 Q156.251 1169.99 153.612 1170.87 L153.612 1166.71 Q156.274 1165.97 158.589 1165.6 Q160.927 1165.23 162.987 1165.23 Q168.311 1165.23 171.413 1167.66 Q174.514 1170.06 174.514 1174.18 Q174.514 1177.05 172.871 1179.04 Q171.227 1181.01 168.195 1181.78 Z" fill="#000000" fill-rule="nonzero" fill-opacity="1" /><path clip-path="url(#clip960)" d="M194.19 1168.93 Q190.579 1168.93 188.75 1172.49 Q186.945 1176.04 186.945 1183.16 Q186.945 1190.27 188.75 1193.84 Q190.579 1197.38 194.19 1197.38 Q197.825 1197.38 199.63 1193.84 Q201.459 1190.27 201.459 1183.16 Q201.459 1176.04 199.63 1172.49 Q197.825 1168.93 194.19 1168.93 M194.19 1165.23 Q200 1165.23 203.056 1169.83 Q206.135 1174.41 206.135 1183.16 Q206.135 1191.89 203.056 1196.5 Q200 1201.08 194.19 1201.08 Q188.38 1201.08 185.301 1196.5 Q182.246 1191.89 182.246 1183.16 Q182.246 1174.41 185.301 1169.83 Q188.38 1165.23 194.19 1165.23 Z" fill="#000000" fill-rule="nonzero" fill-opacity="1" /><path clip-path="url(#clip960)" d="M114.26 863.782 L143.936 863.782 L143.936 867.717 L114.26 867.717 L114.26 863.782 Z" fill="#000000" fill-rule="nonzero" fill-opacity="1" /><path clip-path="url(#clip960)" d="M158.056 876.676 L174.376 876.676 L174.376 880.611 L152.431 880.611 L152.431 876.676 Q155.093 873.921 159.677 869.291 Q164.283 864.639 165.464 863.296 Q167.709 860.773 168.589 859.037 Q169.491 857.278 169.491 855.588 Q169.491 852.833 167.547 851.097 Q165.626 849.361 162.524 849.361 Q160.325 849.361 157.871 850.125 Q155.44 850.889 152.663 852.44 L152.663 847.718 Q155.487 846.583 157.94 846.005 Q160.394 845.426 162.431 845.426 Q167.802 845.426 170.996 848.111 Q174.19 850.796 174.19 855.287 Q174.19 857.417 173.38 859.338 Q172.593 861.236 170.487 863.829 Q169.908 864.5 166.806 867.717 Q163.704 870.912 158.056 876.676 Z" fill="#000000" fill-rule="nonzero" fill-opacity="1" /><path clip-path="url(#clip960)" d="M194.19 849.13 Q190.579 849.13 188.75 852.694 Q186.945 856.236 186.945 863.366 Q186.945 870.472 188.75 874.037 Q190.579 877.578 194.19 877.578 Q197.825 877.578 199.63 874.037 Q201.459 870.472 201.459 863.366 Q201.459 856.236 199.63 852.694 Q197.825 849.13 194.19 849.13 M194.19 845.426 Q200 845.426 203.056 850.032 Q206.135 854.616 206.135 863.366 Q206.135 872.092 203.056 876.699 Q200 881.282 194.19 881.282 Q188.38 881.282 185.301 876.699 Q182.246 872.092 182.246 863.366 Q182.246 854.616 185.301 850.032 Q188.38 845.426 194.19 845.426 Z" fill="#000000" fill-rule="nonzero" fill-opacity="1" /><path clip-path="url(#clip960)" d="M114.26 543.983 L143.936 543.983 L143.936 547.918 L114.26 547.918 L114.26 543.983 Z" fill="#000000" fill-rule="nonzero" fill-opacity="1" /><path clip-path="url(#clip960)" d="M154.839 556.876 L162.477 556.876 L162.477 530.511 L154.167 532.178 L154.167 527.918 L162.431 526.252 L167.107 526.252 L167.107 556.876 L174.746 556.876 L174.746 560.812 L154.839 560.812 L154.839 556.876 Z" fill="#000000" fill-rule="nonzero" fill-opacity="1" /><path clip-path="url(#clip960)" d="M194.19 529.33 Q190.579 529.33 188.75 532.895 Q186.945 536.437 186.945 543.566 Q186.945 550.673 188.75 554.238 Q190.579 557.779 194.19 557.779 Q197.825 557.779 199.63 554.238 Q201.459 550.673 201.459 543.566 Q201.459 536.437 199.63 532.895 Q197.825 529.33 194.19 529.33 M194.19 525.627 Q200 525.627 203.056 530.233 Q206.135 534.816 206.135 543.566 Q206.135 552.293 203.056 556.9 Q200 561.483 194.19 561.483 Q188.38 561.483 185.301 556.9 Q182.246 552.293 182.246 543.566 Q182.246 534.816 185.301 530.233 Q188.38 525.627 194.19 525.627 Z" fill="#000000" fill-rule="nonzero" fill-opacity="1" /><path clip-path="url(#clip960)" d="M194.19 209.531 Q190.579 209.531 188.75 213.096 Q186.945 216.638 186.945 223.767 Q186.945 230.874 188.75 234.438 Q190.579 237.98 194.19 237.98 Q197.825 237.98 199.63 234.438 Q201.459 230.874 201.459 223.767 Q201.459 216.638 199.63 213.096 Q197.825 209.531 194.19 209.531 M194.19 205.827 Q200 205.827 203.056 210.434 Q206.135 215.017 206.135 223.767 Q206.135 232.494 203.056 237.1 Q200 241.684 194.19 241.684 Q188.38 241.684 185.301 237.1 Q182.246 232.494 182.246 223.767 Q182.246 215.017 185.301 210.434 Q188.38 205.827 194.19 205.827 Z" fill="#000000" fill-rule="nonzero" fill-opacity="1" /><path clip-path="url(#clip960)" d="M16.4842 816.375 L16.4842 786.329 L21.895 786.329 L21.895 809.945 L35.9632 809.945 L35.9632 787.315 L41.3741 787.315 L41.3741 809.945 L58.5933 809.945 L58.5933 785.756 L64.0042 785.756 L64.0042 816.375 L16.4842 816.375 Z" fill="#000000" fill-rule="nonzero" fill-opacity="1" /><path clip-path="url(#clip960)" d="M16.4842 775.189 L16.4842 768.759 L58.5933 768.759 L58.5933 745.62 L64.0042 745.62 L64.0042 775.189 L16.4842 775.189 Z" fill="#000000" fill-rule="nonzero" fill-opacity="1" /><path clip-path="url(#clip960)" d="M41.3104 732.443 L58.7206 732.443 L58.7206 722.13 Q58.7206 716.942 56.5881 714.46 Q54.4238 711.945 49.9996 711.945 Q45.5436 711.945 43.4429 714.46 Q41.3104 716.942 41.3104 722.13 L41.3104 732.443 M21.7677 732.443 L36.0905 732.443 L36.0905 722.926 Q36.0905 718.216 34.34 715.924 Q32.5576 713.6 28.9291 713.6 Q25.3325 713.6 23.5501 715.924 Q21.7677 718.216 21.7677 722.926 L21.7677 732.443 M16.4842 738.872 L16.4842 722.449 Q16.4842 715.096 19.5397 711.118 Q22.5952 707.139 28.2289 707.139 Q32.5894 707.139 35.1675 709.176 Q37.7456 711.213 38.3822 715.16 Q39.4007 710.418 42.6472 707.808 Q45.8619 705.166 50.6998 705.166 Q57.0655 705.166 60.5348 709.495 Q64.0042 713.823 64.0042 721.812 L64.0042 738.872 L16.4842 738.872 Z" fill="#000000" fill-rule="nonzero" fill-opacity="1" /><path clip-path="url(#clip960)" d="M20.8447 676.011 Q20.8447 683.013 26.0645 687.151 Q31.2844 691.257 40.2919 691.257 Q49.2675 691.257 54.4874 687.151 Q59.7073 683.013 59.7073 676.011 Q59.7073 669.009 54.4874 664.935 Q49.2675 660.829 40.2919 660.829 Q31.2844 660.829 26.0645 664.935 Q20.8447 669.009 20.8447 676.011 M15.6248 676.011 Q15.6248 666.017 22.3406 660.033 Q29.0246 654.049 40.2919 654.049 Q51.5274 654.049 58.2432 660.033 Q64.9272 666.017 64.9272 676.011 Q64.9272 686.037 58.2432 692.052 Q51.5592 698.036 40.2919 698.036 Q29.0246 698.036 22.3406 692.052 Q15.6248 686.037 15.6248 676.011 Z" fill="#000000" fill-rule="nonzero" fill-opacity="1" /><polyline clip-path="url(#clip962)" style="stroke:#009af9; stroke-linecap:round; stroke-linejoin:round; stroke-width:4; stroke-opacity:1; fill:none" points="301.869,1185.13 303.862,1045.2 305.856,1054.16 307.849,669.747 309.842,908.631 311.835,916.592 313.828,575.65 315.821,1105.12 317.814,819.293 319.808,866.061 321.801,939.015 323.794,914.186 325.787,693.052 327.78,694.696 329.773,728.534 331.766,431.228 333.76,576.617 335.753,542.937 337.746,850.393 339.739,547.162 341.732,480.736 343.725,615.669 345.718,1384.24 347.712,689.959 349.705,1110.18 351.698,699.351 353.691,823.254 355.684,441.542 357.677,682.124 359.67,1109.67 361.664,969.768 363.657,596.015 365.65,1059.17 367.643,850.278 369.636,654.868 371.629,939.879 373.622,561.071 375.616,749.604 377.609,639.373 379.602,582.188 381.595,483.89 383.588,353.981 385.581,827.303 387.574,866.698 389.568,944.926 391.561,620.392 393.554,683.854 395.547,418.158 397.54,993.173 399.533,625.814 401.526,869.022 403.52,456.406 405.513,599.844 407.506,601.484 409.499,436.74 411.492,486.354 413.485,664.536 415.479,605.356 417.472,412.764 419.465,573.455 421.458,581.463 423.451,461.905 425.444,671.323 427.437,602.287 429.431,412.391 431.424,321.041 433.417,471.541 435.41,683.444 437.403,261.919 439.396,387.198 441.389,1284.24 443.383,504.4 445.376,749.463 447.369,742.313 449.362,373.58 451.355,591.835 453.348,645.273 455.341,538.674 457.335,611.989 459.328,407.402 461.321,259.77 463.314,464.974 465.307,246.696 467.3,468.518 469.293,525.56 471.287,616.589 473.28,597.199 475.273,355.607 477.266,437.566 479.259,335.121 481.252,374.979 483.245,412.226 485.239,404.882 487.232,472.791 489.225,463.712 491.218,404.357 493.211,352.488 495.204,428.134 497.197,495.104 499.191,424.425 501.184,393.529 503.177,698.745 505.17,340.751 507.163,367.407 509.156,291.196 511.149,453.942 513.143,407.029 515.136,503.41 517.129,255.188 519.122,243.364 521.115,436.36 523.108,351.166 525.101,504.244 527.095,403.693 529.088,481.98 531.081,419.829 533.074,422.594 535.067,551.542 537.06,496.438 539.054,350.892 541.047,708.628 543.04,555.406 545.033,299.841 547.026,464.697 549.019,405.265 551.012,454.42 553.006,203.115 554.999,357.864 556.992,356.132 558.985,760.406 560.978,145.598 562.971,440.329 564.964,578.765 566.958,350.563 568.951,160.185 570.944,423.097 572.937,292.346 574.93,408.716 576.923,518.388 578.916,368.621 580.91,288.05 582.903,428.996 584.896,444.93 586.889,337.046 588.882,268.4 590.875,278.242 592.868,383.424 594.862,461.21 596.855,663.959 598.848,290.298 600.841,418.1 602.834,333.49 604.827,308.289 606.82,331.695 608.814,355.353 610.807,424.605 612.8,549.49 614.793,462.659 616.786,216.118 618.779,226.553 620.772,437.81 622.766,228.018 624.759,399.489 626.752,237.86 628.745,190.407 630.738,245.846 632.731,481.832 634.724,138.889 636.718,383.266 638.711,238.054 640.704,456.482 642.697,272.623 644.69,231.143 646.683,397.405 648.677,307.285 650.67,370.448 652.663,569.4 654.656,303.816 656.649,249.967 658.642,189.379 660.635,186.36 662.629,254.881 664.622,405.531 666.615,348.454 668.608,464.92 670.601,201.955 672.594,252.879 674.587,143.151 676.581,335.676 678.574,456.928 680.567,299.826 682.56,276.959 684.553,304.577 686.546,393.162 688.539,418.299 690.533,229.041 692.526,238.964 694.519,335.678 696.512,296.394 698.505,290.819 700.498,228.391 702.491,379.403 704.485,302.8 706.478,208.035 708.471,270.554 710.464,222.356 712.457,322.697 714.45,290.78 716.443,154.901 718.437,286.054 720.43,302.404 722.423,213.299 724.416,348.496 726.409,337.409 728.402,203.115 730.395,321.531 732.389,424.684 734.382,206.956 736.375,292.142 738.368,371.588 740.361,180.069 742.354,275.536 744.347,123.562 746.341,256.983 748.334,237.703 750.327,269.995 752.32,194.684 754.313,151.697 756.306,456.091 758.299,426.002 760.293,293.8 762.286,260.933 764.279,320.761 766.272,286.455 768.265,131.285 770.258,137.817 772.252,269.073 774.245,216.183 776.238,193.38 778.231,237.499 780.224,308.865 782.217,190.422 784.21,318.16 786.204,237.774 788.197,268.762 790.19,188.141 792.183,506.225 794.176,346.633 796.169,104.887 798.162,225.422 800.156,147.154 802.149,165.43 804.142,345.067 806.135,227.279 808.128,225.702 810.121,171.259 812.114,133.164 814.108,171.012 816.101,164.109 818.094,103.49 820.087,303.653 822.08,285.651 824.073,181.418 826.066,278.803 828.06,137.231 830.053,191.646 832.046,297.96 834.039,181.139 836.032,342.521 838.025,107.796 840.018,178.583 842.012,161.454 844.005,214.168 845.998,395.657 847.991,207.089 849.984,425.428 851.977,243.196 853.97,417.999 855.964,466.679 857.957,185.825 859.95,279.677 861.943,307.053 863.936,136.538 865.929,362.415 867.922,227.174 869.916,219.379 871.909,173.273 873.902,193.99 875.895,189.972 877.888,241.08 879.881,213.107 881.874,136.659 883.868,229.733 885.861,377.45 887.854,288.669 889.847,202.879 891.84,217.804 893.833,258.004 895.827,349.365 897.82,458.381 899.813,419.199 901.806,361.85 903.799,220.61 905.792,408.439 907.785,229.2 909.779,135.333 911.772,179.926 913.765,294.621 915.758,211.209 917.751,266.316 919.744,187.827 921.737,95.4313 923.731,168.202 925.724,176.735 927.717,173.687 929.71,201.849 931.703,165.78 933.696,122.547 935.689,323.293 937.683,153.617 939.676,170.127 941.669,152.722 943.662,154.909 945.655,215.673 947.648,255.453 949.641,249.913 951.635,159.567 953.628,300.742 955.621,186.132 957.614,343.666 959.607,485.178 961.6,192.201 963.593,223.556 965.587,145.984 967.58,256.085 969.573,138.852 971.566,338.153 973.559,154.302 975.552,388.049 977.545,144.072 979.539,243.511 981.532,162.153 983.525,205.151 985.518,178.474 987.511,105.255 989.504,222.089 991.497,313.893 993.491,299.832 995.484,128.706 997.477,198.173 999.47,112.838 1001.46,218.078 1003.46,165.53 1005.45,156.746 1007.44,159.475 1009.44,246.853 1011.43,185.354 1013.42,174.221 1015.42,277.278 1017.41,180.307 1019.4,170.024 1021.39,274.317 1023.39,232.956 1025.38,204.481 1027.37,190.705 1029.37,274.491 1031.36,196.557 1033.35,293.445 1035.35,262.653 1037.34,136.646 1039.33,220.273 1041.33,127.769 1043.32,276.286 1045.31,133.767 1047.31,242.192 1049.3,254.575 1051.29,136.839 1053.28,515.578 1055.28,226.62 1057.27,207.201 1059.26,247.064 1061.26,164.662 1063.25,205.108 1065.24,390.954 1067.24,311.527 1069.23,260.526 1071.22,207.499 1073.22,169.276 1075.21,275.458 1077.2,183.283 1079.2,189.871 1081.19,177.361 1083.18,193.882 1085.18,282.514 1087.17,321.143 1089.16,227.215 1091.15,253.168 1093.15,314.914 1095.14,180.307 1097.13,113.322 1099.13,159.991 1101.12,199.761 1103.11,227.989 1105.11,200.928 1107.1,154.79 1109.09,205.5 1111.09,86.1857 1113.08,202.941 1115.07,157.105 1117.07,106.446 1119.06,150.653 1121.05,305.18 1123.05,246.058 1125.04,218.987 1127.03,131.359 1129.02,173.346 1131.02,325.954 1133.01,181.388 1135,166.013 1137,183.847 1138.99,206.664 1140.98,340.355 1142.98,178.974 1144.97,129.16 1146.96,246.98 1148.96,147.039 1150.95,117.02 1152.94,165.885 1154.94,204.614 1156.93,263.162 1158.92,159.887 1160.91,205.103 1162.91,136.767 1164.9,199.701 1166.89,266.222 1168.89,248.105 1170.88,163.96 1172.87,110.561 1174.87,257.595 1176.86,298.987 1178.85,235.57 1180.85,416.858 1182.84,105.025 1184.83,191.239 1186.83,166.11 1188.82,293.569 1190.81,250.423 1192.81,203.58 1194.8,279.697 1196.79,277.132 1198.78,151.203 1200.78,249.879 1202.77,166.294 1204.76,207.781 1206.76,259.121 1208.75,253.617 1210.74,271.117 1212.74,502.044 1214.73,185.423 1216.72,208.262 1218.72,171.813 1220.71,350.009 1222.7,313.352 1224.7,252.777 1226.69,162.753 1228.68,282.17 1230.67,323.098 1232.67,152.186 1234.66,224.397 1236.65,228.731 1238.65,137.624 1240.64,210.693 1242.63,259.615 1244.63,169.461 1246.62,235.313 1248.61,177.482 1250.61,433.688 1252.6,153.187 1254.59,131.296 1256.59,167.813 1258.58,93.7037 1260.57,329.678 1262.57,206.609 1264.56,278.486 1266.55,178.247 1268.54,235.343 1270.54,271.947 1272.53,250.586 1274.52,177.208 1276.52,219.284 1278.51,239.904 1280.5,140.533 1282.5,255.931 1284.49,203.75 1286.48,247.008 1288.48,381.669 1290.47,177.351 1292.46,149.287 1294.46,284.64 1296.45,213.863 1298.44,137.416 1300.44,379.524 1302.43,245.346 1304.42,324.334 1306.41,129.781 1308.41,264.177 1310.4,223.414 1312.39,184.292 1314.39,149.134 1316.38,151.048 1318.37,273.22 1320.37,223.938 1322.36,202.382 1324.35,157.52 1326.35,246.194 1328.34,185.096 1330.33,170.468 1332.33,214.839 1334.32,200.022 1336.31,192.492 1338.3,101.672 1340.3,353.346 1342.29,225.309 1344.28,330.793 1346.28,256.314 1348.27,95.4225 1350.26,180.561 1352.26,224.763 1354.25,225.836 1356.24,468.358 1358.24,154.862 1360.23,413.24 1362.22,218.072 1364.22,110.74 1366.21,249.871 1368.2,346.888 1370.2,144.083 1372.19,271.582 1374.18,287.302 1376.17,88.1529 1378.17,240.267 1380.16,321.05 1382.15,132.904 1384.15,200.743 1386.14,312.68 1388.13,194.283 1390.13,179.254 1392.12,138.431 1394.11,222.326 1396.11,196.642 1398.1,213.598 1400.09,210.298 1402.09,218.134 1404.08,390.393 1406.07,198.092 1408.06,253.487 1410.06,235.03 1412.05,182.839 1414.04,226.058 1416.04,293.604 1418.03,397.867 1420.02,171.648 1422.02,214.269 1424.01,247.055 1426,342.692 1428,209.887 1429.99,130.002 1431.98,174.906 1433.98,141.704 1435.97,188.743 1437.96,263.499 1439.96,311.46 1441.95,214.542 1443.94,398.049 1445.93,137.727 1447.93,270.181 1449.92,125.507 1451.91,265.373 1453.91,132.152 1455.9,187.028 1457.89,153.788 1459.89,296.294 1461.88,239.192 1463.87,211.14 1465.87,255.664 1467.86,232 1469.85,217.936 1471.85,308.831 1473.84,253.979 1475.83,253.093 1477.82,254.857 1479.82,326.084 1481.81,198.935 1483.8,236.898 1485.8,270.226 1487.79,200.282 1489.78,192.827 1491.78,194.811 1493.77,163.863 1495.76,307.571 1497.76,306.469 1499.75,328.239 1501.74,242.151 1503.74,147.823 1505.73,228.599 1507.72,339.951 1509.72,223.268 1511.71,202.785 1513.7,169.324 1515.69,173.921 1517.69,231.435 1519.68,285.277 1521.67,330.147 1523.67,230.404 1525.66,190.269 1527.65,366.721 1529.65,261.834 1531.64,325.012 1533.63,103.985 1535.63,216.035 1537.62,119.164 1539.61,214.498 1541.61,377.53 1543.6,198.274 1545.59,285.125 1547.59,389.039 1549.58,255.98 1551.57,229.841 1553.56,235.713 1555.56,321.172 1557.55,152.685 1559.54,298.035 1561.54,255.553 1563.53,272.18 1565.52,210.335 1567.52,250.459 1569.51,523.352 1571.5,194.68 1573.5,289.105 1575.49,213.282 1577.48,292.42 1579.48,136.417 1581.47,126.614 1583.46,286.331 1585.45,205.997 1587.45,218.746 1589.44,160.823 1591.43,264.401 1593.43,196.939 1595.42,265.643 1597.41,152.058 1599.41,430.302 1601.4,213.767 1603.39,214.214 1605.39,220.069 1607.38,163.746 1609.37,143.346 1611.37,140.538 1613.36,246.054 1615.35,218.198 1617.35,297.381 1619.34,291.673 1621.33,290.914 1623.32,194.468 1625.32,120.677 1627.31,298.687 1629.3,206.483 1631.3,318.535 1633.29,213.063 1635.28,248.646 1637.28,169.032 1639.27,195.293 1641.26,307.657 1643.26,166.724 1645.25,326.936 1647.24,193.81 1649.24,306.636 1651.23,200.633 1653.22,193.46 1655.21,209.412 1657.21,200.126 1659.2,319.669 1661.19,429.19 1663.19,299.897 1665.18,515.47 1667.17,280.984 1669.17,151.992 1671.16,261.71 1673.15,210.925 1675.15,157.394 1677.14,162.927 1679.13,220.59 1681.13,160.82 1683.12,299.975 1685.11,124.772 1687.11,204.62 1689.1,322.744 1691.09,318.027 1693.08,170.625 1695.08,215.146 1697.07,330.973 1699.06,258.78 1701.06,271.129 1703.05,291.711 1705.04,330.601 1707.04,241.609 1709.03,150.976 1711.02,202.49 1713.02,275.099 1715.01,323.27 1717,222.807 1719,159.907 1720.99,197.879 1722.98,170.996 1724.97,253.589 1726.97,203.187 1728.96,188.236 1730.95,257.71 1732.95,227.388 1734.94,267.905 1736.93,165.764 1738.93,217.834 1740.92,263.246 1742.91,200.197 1744.91,177.666 1746.9,350.01 1748.89,221.558 1750.89,288.504 1752.88,225.05 1754.87,217.379 1756.87,257.906 1758.86,207.506 1760.85,177.741 1762.84,216.761 1764.84,287.066 1766.83,188.313 1768.82,149.381 1770.82,178.169 1772.81,184.577 1774.8,208.88 1776.8,315.609 1778.79,340.646 1780.78,362.081 1782.78,177.124 1784.77,244.891 1786.76,159.362 1788.76,209.676 1790.75,341.594 1792.74,295.403 1794.74,238.757 1796.73,242.918 1798.72,304.26 1800.71,195.071 1802.71,397.273 1804.7,175.589 1806.69,184.185 1808.69,216.883 1810.68,188.477 1812.67,214.085 1814.67,230.596 1816.66,233.083 1818.65,349.988 1820.65,280.809 1822.64,277.248 1824.63,312.799 1826.63,244.198 1828.62,167.992 1830.61,213.64 1832.6,156.097 1834.6,258.803 1836.59,189.945 1838.58,194.293 1840.58,214.213 1842.57,169.345 1844.56,325.72 1846.56,203.031 1848.55,199.607 1850.54,162.044 1852.54,158.792 1854.53,273.905 1856.52,219.867 1858.52,236.595 1860.51,240.136 1862.5,175.411 1864.5,158.252 1866.49,203.777 1868.48,177.927 1870.47,132.53 1872.47,166.463 1874.46,302.93 1876.45,263.294 1878.45,198.072 1880.44,277.432 1882.43,156.091 1884.43,271.131 1886.42,344.671 1888.41,290.96 1890.41,276.3 1892.4,412.947 1894.39,308.798 1896.39,337.616 1898.38,158.272 1900.37,184.294 1902.36,146.824 1904.36,153.127 1906.35,192.998 1908.34,193.966 1910.34,360.431 1912.33,192.166 1914.32,199.068 1916.32,203.299 1918.31,248.116 1920.3,222.849 1922.3,222.627 1924.29,345.32 1926.28,187.327 1928.28,342.829 1930.27,278.533 1932.26,256.969 1934.26,185.069 1936.25,174.241 1938.24,257.455 1940.23,174.265 1942.23,256.796 1944.22,163.469 1946.21,156.175 1948.21,204.462 1950.2,190.134 1952.19,231.396 1954.19,220.259 1956.18,187.596 1958.17,213.354 1960.17,222.844 1962.16,157.586 1964.15,293.491 1966.15,320.882 1968.14,227.69 1970.13,193.944 1972.12,119.609 1974.12,225.412 1976.11,235.565 1978.1,154.843 1980.1,177.8 1982.09,317.786 1984.08,230.727 1986.08,328.939 1988.07,145.997 1990.06,196.474 1992.06,232.319 1994.05,229.871 1996.04,279.571 1998.04,273.645 2000.03,199.572 2002.02,202.681 2004.02,192.494 2006.01,284.596 2008,257.288 2009.99,168.831 2011.99,122.189 2013.98,325.893 2015.97,209.618 2017.97,279.343 2019.96,195.464 2021.95,235.298 2023.95,172.189 2025.94,248.981 2027.93,156.365 2029.93,274.739 2031.92,257.57 2033.91,303.956 2035.91,223.911 2037.9,185.857 2039.89,164.196 2041.89,278.899 2043.88,271.596 2045.87,252.277 2047.86,199.247 2049.86,224.036 2051.85,395.83 2053.84,105.625 2055.84,243.235 2057.83,132.711 2059.82,152.078 2061.82,154.407 2063.81,281.194 2065.8,267.96 2067.8,215.736 2069.79,320.575 2071.78,292.633 2073.78,128.967 2075.77,392.541 2077.76,168.02 2079.75,153.858 2081.75,437.758 2083.74,228.263 2085.73,146.31 2087.73,182.822 2089.72,146.274 2091.71,335.502 2093.71,114.152 2095.7,395.052 2097.69,208.194 2099.69,239.022 2101.68,227.51 2103.67,173.611 2105.67,151.868 2107.66,139.173 2109.65,150.63 2111.65,155.148 2113.64,306.666 2115.63,152.89 2117.62,147.114 2119.62,235.218 2121.61,215.649 2123.6,232.271 2125.6,307.154 2127.59,212.007 2129.58,155.558 2131.58,234.436 2133.57,245.772 2135.56,135.705 2137.56,329.691 2139.55,262.796 2141.54,190.833 2143.54,254.486 2145.53,189.248 2147.52,141.14 2149.51,223.934 2151.51,189.569 2153.5,146.185 2155.49,297.798 2157.49,129.828 2159.48,183.518 2161.47,155.43 2163.47,174.6 2165.46,157.596 2167.45,138.702 2169.45,313.468 2171.44,231.243 2173.43,331.801 2175.43,254.832 2177.42,211.696 2179.41,308.448 2181.41,181.392 2183.4,316.647 2185.39,252.827 2187.38,239.852 2189.38,156.599 2191.37,116.158 2193.36,177.619 2195.36,148.132 2197.35,494.226 2199.34,133.178 2201.34,297.861 2203.33,235.948 2205.32,191.444 2207.32,257.908 2209.31,230.881 2211.3,240.493 2213.3,170.801 2215.29,210.306 2217.28,193.686 2219.27,302.602 2221.27,184.893 2223.26,267.433 2225.25,151.872 2227.25,334.721 2229.24,174.433 2231.23,175.263 2233.23,235.562 2235.22,158.989 2237.21,110.294 2239.21,198.245 2241.2,308.337 2243.19,219.639 2245.19,163.522 2247.18,208.397 2249.17,179.395 2251.17,237.363 2253.16,258.237 2255.15,319.668 2257.14,245.977 2259.14,161.283 2261.13,145.054 2263.12,172.112 2265.12,130.745 2267.11,269.068 2269.1,206.26 2271.1,284.314 2273.09,254.438 2275.08,150.196 2277.08,182.053 2279.07,563.786 2281.06,191.926 2283.06,288.687 2285.05,539.575 2287.04,118.449 2289.04,182.583 2291.03,239.134 2293.02,171.621 "/>
<polyline clip-path="url(#clip962)" style="stroke:#e26f46; stroke-linecap:round; stroke-linejoin:round; stroke-width:4; stroke-opacity:1; fill:none" points="301.869,991.531 303.862,966.434 305.856,922.445 307.849,866.533 309.842,783.237 311.835,478.433 313.828,612.369 315.821,716.232 317.814,516.556 319.808,834.628 321.801,761.379 323.794,737.666 325.787,951.805 327.78,842.31 329.773,1016.73 331.766,746.472 333.76,1113.36 335.753,570.722 337.746,719.367 339.739,708.683 341.732,751.06 343.725,918.302 345.718,858.518 347.712,784.696 349.705,716.531 351.698,1041.27 353.691,453.204 355.684,639.878 357.677,830.432 359.67,685.946 361.664,614.344 363.657,733.267 365.65,705.291 367.643,859.095 369.636,747.224 371.629,908.439 373.622,498.301 375.616,921.06 377.609,576.182 379.602,540.357 381.595,836.156 383.588,754.036 385.581,478.039 387.574,790.656 389.568,845.55 391.561,432.322 393.554,959.903 395.547,544.298 397.54,403.552 399.533,775.967 401.526,634.917 403.52,402.974 405.513,580.645 407.506,573.331 409.499,561.329 411.492,674.048 413.485,633.606 415.479,739.269 417.472,674.966 419.465,420.909 421.458,678.771 423.451,671.436 425.444,353.159 427.437,150.429 429.431,545.172 431.424,611.407 433.417,494.195 435.41,456.366 437.403,502.611 439.396,518.885 441.389,399.41 443.383,605.802 445.376,565.939 447.369,477.251 449.362,460.818 451.355,621.315 453.348,258.521 455.341,392.868 457.335,423.422 459.328,525.685 461.321,721.273 463.314,596.028 465.307,420.486 467.3,390.78 469.293,396.633 471.287,598.323 473.28,340.687 475.273,423.896 477.266,387.998 479.259,452.173 481.252,489.954 483.245,422.458 485.239,591.461 487.232,425.134 489.225,149.301 491.218,423.309 493.211,750.907 495.204,443.431 497.197,504.815 499.191,411.802 501.184,264.466 503.177,413.337 505.17,432.255 507.163,409.812 509.156,376.079 511.149,381.205 513.143,268.62 515.136,363.723 517.129,423.581 519.122,459.784 521.115,437.44 523.108,342.644 525.101,259.744 527.095,150.288 529.088,251.043 531.081,341.813 533.074,192.736 535.067,347.46 537.06,413.077 539.054,250.876 541.047,370.504 543.04,340.516 545.033,442.832 547.026,370.661 549.019,288.745 551.012,433.38 553.006,384.501 554.999,432.745 556.992,305.825 558.985,220.512 560.978,424.058 562.971,239.837 564.964,417.965 566.958,392.997 568.951,335.412 570.944,345.858 572.937,287.494 574.93,291.067 576.923,278.159 578.916,366.574 580.91,341.946 582.903,393.225 584.896,281.145 586.889,181.716 588.882,398.236 590.875,457.327 592.868,395.664 594.862,347.364 596.855,223.793 598.848,329.68 600.841,325.344 602.834,290.025 604.827,294.056 606.82,258.951 608.814,419.725 610.807,436.837 612.8,386.167 614.793,280.282 616.786,300.392 618.779,223.654 620.772,449.604 622.766,207.359 624.759,303.613 626.752,334.549 628.745,324.311 630.738,237.76 632.731,194.974 634.724,260.559 636.718,263.213 638.711,281.906 640.704,359.806 642.697,321.857 644.69,370.092 646.683,363.257 648.677,169.047 650.67,286.803 652.663,258.861 654.656,291.951 656.649,265.911 658.642,270.232 660.635,110.359 662.629,353.157 664.622,327.806 666.615,267.616 668.608,418.644 670.601,258.371 672.594,278.167 674.587,336.449 676.581,341.805 678.574,340.182 680.567,291.572 682.56,390.217 684.553,374.544 686.546,288.26 688.539,254.134 690.533,233.184 692.526,174.536 694.519,251.502 696.512,348.419 698.505,331.5 700.498,198.315 702.491,280.914 704.485,305.987 706.478,268.28 708.471,320.258 710.464,365.042 712.457,289.476 714.45,247.37 716.443,418.461 718.437,252.56 720.43,270.614 722.423,243.395 724.416,306.047 726.409,287.48 728.402,295.339 730.395,280.685 732.389,236.651 734.382,292.021 736.375,341.201 738.368,258.134 740.361,250.855 742.354,222.943 744.347,258.08 746.341,222.987 748.334,311.42 750.327,274.015 752.32,172.924 754.313,283.161 756.306,220.392 758.299,225.786 760.293,239.383 762.286,216.925 764.279,271.188 766.272,300.868 768.265,251.335 770.258,199.389 772.252,230.022 774.245,218.344 776.238,253.229 778.231,272.153 780.224,238.022 782.217,291.378 784.21,236.731 786.204,287.623 788.197,217.418 790.19,229.475 792.183,256.795 794.176,260.417 796.169,215.814 798.162,230.708 800.156,253.073 802.149,262.647 804.142,242.192 806.135,301.401 808.128,251.582 810.121,230.673 812.114,277.726 814.108,256.846 816.101,215.123 818.094,241.242 820.087,219.02 822.08,227.607 824.073,218.947 826.066,244.325 828.06,237.023 830.053,234.254 832.046,215.088 834.039,201.696 836.032,216.039 838.025,226.362 840.018,287.948 842.012,253.783 844.005,235.185 845.998,302.178 847.991,197.909 849.984,236.991 851.977,225.875 853.97,221.389 855.964,239.041 857.957,256.962 859.95,227.237 861.943,234.256 863.936,251.241 865.929,259.497 867.922,203.648 869.916,271.965 871.909,215.42 873.902,235.101 875.895,271.27 877.888,230.311 879.881,193.845 881.874,245.846 883.868,212.731 885.861,235.621 887.854,230.746 889.847,224.07 891.84,272.604 893.833,235.421 895.827,239.984 897.82,258.402 899.813,198.749 901.806,252.31 903.799,220.267 905.792,216.439 907.785,237.363 909.779,226.16 911.772,228.01 913.765,182.785 915.758,224.749 917.751,236.939 919.744,216.884 921.737,220.977 923.731,222.627 925.724,193.039 927.717,219.893 929.71,237.453 931.703,222.72 933.696,221.475 935.689,243.363 937.683,198.768 939.676,240.989 941.669,220.507 943.662,242.312 945.655,208.062 947.648,218.805 949.641,226.353 951.635,228.958 953.628,211.485 955.621,201.432 957.614,256.638 959.607,238.157 961.6,208.791 963.593,235.51 965.587,228.469 967.58,231.01 969.573,236.996 971.566,213.053 973.559,240.003 975.552,233.101 977.545,234.656 979.539,245.865 981.532,211.306 983.525,223.848 985.518,227.381 987.511,224.489 989.504,220.871 991.497,228.387 993.491,224.76 995.484,228.6 997.477,203.549 999.47,224.545 1001.46,224.981 1003.46,220.961 1005.45,225.888 1007.44,236.968 1009.44,238.658 1011.43,226.059 1013.42,228.185 1015.42,216.283 1017.41,232.434 1019.4,222.905 1021.39,218.095 1023.39,228.15 1025.38,213.986 1027.37,225.241 1029.37,208.629 1031.36,220.14 1033.35,215.37 1035.35,203.776 1037.34,238.967 1039.33,221.872 1041.33,228.908 1043.32,216.668 1045.31,222.034 1047.31,229.493 1049.3,213.45 1051.29,231.597 1053.28,225.239 1055.28,223.862 1057.27,217.285 1059.26,230.362 1061.26,216.014 1063.25,221.466 1065.24,224.94 1067.24,221.462 1069.23,234.446 1071.22,226.093 1073.22,226.339 1075.21,220.45 1077.2,239.436 1079.2,216.114 1081.19,222.88 1083.18,232.037 1085.18,217.989 1087.17,221.358 1089.16,225.484 1091.15,222.609 1093.15,227.642 1095.14,228.382 1097.13,217.13 1099.13,226.9 1101.12,221.238 1103.11,229.097 1105.11,225.949 1107.1,225.757 1109.09,218.465 1111.09,228.063 1113.08,215.265 1115.07,227.663 1117.07,229.677 1119.06,216.484 1121.05,230.101 1123.05,219.245 1125.04,232.402 1127.03,222.469 1129.02,213.849 1131.02,225.778 1133.01,215.682 1135,230.019 1137,219.382 1138.99,221.222 1140.98,229.758 1142.98,224.05 1144.97,222.87 1146.96,224.695 1148.96,223.386 1150.95,229.885 1152.94,219.799 1154.94,230.939 1156.93,220.786 1158.92,227.133 1160.91,225.444 1162.91,226.3 1164.9,219.299 1166.89,225.137 1168.89,224.218 1170.88,223.879 1172.87,219.461 1174.87,222.241 1176.86,223.931 1178.85,225.689 1180.85,228.683 1182.84,229.375 1184.83,227.291 1186.83,222.03 1188.82,227.782 1190.81,225.213 1192.81,223.234 1194.8,220.001 1196.79,223.545 1198.78,223.092 1200.78,223.941 1202.77,222.046 1204.76,225.029 1206.76,226.453 1208.75,223.822 1210.74,225.599 1212.74,223.84 1214.73,222.716 1216.72,223.79 1218.72,223.878 1220.71,226.935 1222.7,225.912 1224.7,227.975 1226.69,224.766 1228.68,222.777 1230.67,222.032 1232.67,225.057 1234.66,219.91 1236.65,222.14 1238.65,226.865 1240.64,228.194 1242.63,222.527 1244.63,222.824 1246.62,225.506 1248.61,224.723 1250.61,225.048 1252.6,227.028 1254.59,223.876 1256.59,224.47 1258.58,224.049 1260.57,223.744 1262.57,223.34 1264.56,223.128 1266.55,226.238 1268.54,223.681 1270.54,224.244 1272.53,223.935 1274.52,222.434 1276.52,226.596 1278.51,222.941 1280.5,225.932 1282.5,222.994 1284.49,224.303 1286.48,222.663 1288.48,224.839 1290.47,221.818 1292.46,225.169 1294.46,223.445 1296.45,222.746 1298.44,223.338 1300.44,223.044 1302.43,225.719 1304.42,224.796 1306.41,222.079 1308.41,223.456 1310.4,223.133 1312.39,224.098 1314.39,224.419 1316.38,224.071 1318.37,223.751 1320.37,223.778 1322.36,222.771 1324.35,224.611 1326.35,224.229 1328.34,223.56 1330.33,223.463 1332.33,223.026 1334.32,223.965 1336.31,224.319 1338.3,224.773 1340.3,223.44 1342.29,224.646 1344.28,222.553 1346.28,223.126 1348.27,223.496 1350.26,222.427 1352.26,223.384 1354.25,223.447 1356.24,224.508 1358.24,224.955 1360.23,224.162 1362.22,223.628 1364.22,223.732 1366.21,223.378 1368.2,223.216 1370.2,223.668 1372.19,224.517 1374.18,223.58 1376.17,223.403 1378.17,224.862 1380.16,223.9 1382.15,222.934 1384.15,222.551 1386.14,224.079 1388.13,223.439 1390.13,223.997 1392.12,223.651 1394.11,222.907 1396.11,224.574 1398.1,224 1400.09,223.983 1402.09,223.525 1404.08,223.734 1406.07,223.06 1408.06,223.585 1410.06,223.598 1412.05,223.344 1414.04,223.32 1416.04,223.578 1418.03,223.639 1420.02,223.381 1422.02,223.737 1424.01,222.885 1426,223.969 1428,223.461 1429.99,224.112 1431.98,223.63 1433.98,223.69 1435.97,223.213 1437.96,223.508 1439.96,224.026 1441.95,223.844 1443.94,223.588 1445.93,223.95 1447.93,223.744 1449.92,223.763 1451.91,223.965 1453.91,223.357 1455.9,223.616 1457.89,224.08 1459.89,223.295 1461.88,223.524 1463.87,223.734 1465.87,223.674 1467.86,223.703 1469.85,223.417 1471.85,223.953 1473.84,223.589 1475.83,223.661 1477.82,223.795 1479.82,224.153 1481.81,223.623 1483.8,223.81 1485.8,223.783 1487.79,223.777 1489.78,223.968 1491.78,223.447 1493.77,223.497 1495.76,224.109 1497.76,223.668 1499.75,223.982 1501.74,223.327 1503.74,223.975 1505.73,223.595 1507.72,223.558 1509.72,223.673 1511.71,223.72 1513.7,223.591 1515.69,223.773 1517.69,223.737 1519.68,223.866 1521.67,223.701 1523.67,223.552 1525.66,223.673 1527.65,223.603 1529.65,223.817 1531.64,223.736 1533.63,223.793 1535.63,223.726 1537.62,223.558 1539.61,223.697 1541.61,223.588 1543.6,223.91 1545.59,223.528 1547.59,223.65 1549.58,223.75 1551.57,223.666 1553.56,223.555 1555.56,223.716 1557.55,223.752 1559.54,223.844 1561.54,223.87 1563.53,223.609 1565.52,223.802 1567.52,223.772 1569.51,223.743 1571.5,223.86 1573.5,223.576 1575.49,223.884 1577.48,223.792 1579.48,223.628 1581.47,223.976 1583.46,223.635 1585.45,223.698 1587.45,223.785 1589.44,223.663 1591.43,223.703 1593.43,223.643 1595.42,223.767 1597.41,223.81 1599.41,223.74 1601.4,223.734 1603.39,223.686 1605.39,223.71 1607.38,223.664 1609.37,223.667 1611.37,223.749 1613.36,223.7 1615.35,223.836 1617.35,223.775 1619.34,223.667 1621.33,223.774 1623.32,223.701 1625.32,223.766 1627.31,223.682 1629.3,223.752 1631.3,223.656 1633.29,223.752 1635.28,223.791 1637.28,223.77 1639.27,223.752 1641.26,223.752 1643.26,223.711 1645.25,223.709 1647.24,223.747 1649.24,223.73 1651.23,223.659 1653.22,223.778 1655.21,223.734 1657.21,223.71 1659.2,223.717 1661.19,223.757 1663.19,223.705 1665.18,223.788 1667.17,223.725 1669.17,223.691 1671.16,223.772 1673.15,223.708 1675.15,223.762 1677.14,223.684 1679.13,223.727 1681.13,223.691 1683.12,223.754 1685.11,223.715 1687.11,223.712 1689.1,223.778 1691.09,223.73 1693.08,223.73 1695.08,223.705 1697.07,223.749 1699.06,223.737 1701.06,223.71 1703.05,223.736 1705.04,223.755 1707.04,223.717 1709.03,223.727 1711.02,223.705 1713.02,223.75 1715.01,223.72 1717,223.714 1719,223.732 1720.99,223.739 1722.98,223.711 1724.97,223.743 1726.97,223.707 1728.96,223.712 1730.95,223.712 1732.95,223.709 1734.94,223.742 1736.93,223.758 1738.93,223.762 1740.92,223.719 1742.91,223.713 1744.91,223.726 1746.9,223.733 1748.89,223.741 1750.89,223.763 1752.88,223.744 1754.87,223.762 1756.87,223.739 1758.86,223.762 1760.85,223.732 1762.84,223.746 1764.84,223.734 1766.83,223.716 1768.82,223.714 1770.82,223.723 1772.81,223.739 1774.8,223.735 1776.8,223.716 1778.79,223.732 1780.78,223.739 1782.78,223.721 1784.77,223.73 1786.76,223.734 1788.76,223.718 1790.75,223.732 1792.74,223.758 1794.74,223.735 1796.73,223.737 1798.72,223.735 1800.71,223.735 1802.71,223.751 1804.7,223.75 1806.69,223.717 1808.69,223.734 1810.68,223.725 1812.67,223.745 1814.67,223.734 1816.66,223.717 1818.65,223.739 1820.65,223.731 1822.64,223.736 1824.63,223.737 1826.63,223.732 1828.62,223.737 1830.61,223.741 1832.6,223.735 1834.6,223.741 1836.59,223.729 1838.58,223.735 1840.58,223.728 1842.57,223.726 1844.56,223.736 1846.56,223.738 1848.55,223.742 1850.54,223.732 1852.54,223.735 1854.53,223.733 1856.52,223.738 1858.52,223.734 1860.51,223.726 1862.5,223.727 1864.5,223.731 1866.49,223.73 1868.48,223.732 1870.47,223.733 1872.47,223.733 1874.46,223.728 1876.45,223.733 1878.45,223.731 1880.44,223.74 1882.43,223.734 1884.43,223.731 1886.42,223.734 1888.41,223.734 1890.41,223.736 1892.4,223.733 1894.39,223.734 1896.39,223.733 1898.38,223.731 1900.37,223.734 1902.36,223.729 1904.36,223.731 1906.35,223.735 1908.34,223.726 1910.34,223.732 1912.33,223.734 1914.32,223.734 1916.32,223.734 1918.31,223.731 1920.3,223.731 1922.3,223.729 1924.29,223.734 1926.28,223.732 1928.28,223.733 1930.27,223.734 1932.26,223.731 1934.26,223.731 1936.25,223.733 1938.24,223.73 1940.23,223.73 1942.23,223.732 1944.22,223.732 1946.21,223.731 1948.21,223.732 1950.2,223.733 1952.19,223.73 1954.19,223.733 1956.18,223.733 1958.17,223.736 1960.17,223.734 1962.16,223.732 1964.15,223.731 1966.15,223.734 1968.14,223.731 1970.13,223.731 1972.12,223.731 1974.12,223.732 1976.11,223.734 1978.1,223.732 1980.1,223.732 1982.09,223.73 1984.08,223.734 1986.08,223.732 1988.07,223.734 1990.06,223.732 1992.06,223.733 1994.05,223.732 1996.04,223.731 1998.04,223.732 2000.03,223.732 2002.02,223.733 2004.02,223.733 2006.01,223.733 2008,223.731 2009.99,223.732 2011.99,223.733 2013.98,223.733 2015.97,223.732 2017.97,223.732 2019.96,223.733 2021.95,223.732 2023.95,223.733 2025.94,223.732 2027.93,223.732 2029.93,223.732 2031.92,223.732 2033.91,223.733 2035.91,223.732 2037.9,223.733 2039.89,223.733 2041.89,223.733 2043.88,223.732 2045.87,223.733 2047.86,223.732 2049.86,223.733 2051.85,223.732 2053.84,223.732 2055.84,223.733 2057.83,223.732 2059.82,223.732 2061.82,223.732 2063.81,223.732 2065.8,223.733 2067.8,223.732 2069.79,223.732 2071.78,223.733 2073.78,223.732 2075.77,223.733 2077.76,223.732 2079.75,223.733 2081.75,223.732 2083.74,223.732 2085.73,223.732 2087.73,223.733 2089.72,223.732 2091.71,223.732 2093.71,223.732 2095.7,223.733 2097.69,223.732 2099.69,223.733 2101.68,223.733 2103.67,223.732 2105.67,223.733 2107.66,223.732 2109.65,223.732 2111.65,223.733 2113.64,223.732 2115.63,223.733 2117.62,223.733 2119.62,223.733 2121.61,223.732 2123.6,223.732 2125.6,223.732 2127.59,223.732 2129.58,223.732 2131.58,223.732 2133.57,223.732 2135.56,223.732 2137.56,223.733 2139.55,223.732 2141.54,223.732 2143.54,223.732 2145.53,223.732 2147.52,223.732 2149.51,223.732 2151.51,223.732 2153.5,223.733 2155.49,223.733 2157.49,223.732 2159.48,223.732 2161.47,223.732 2163.47,223.733 2165.46,223.732 2167.45,223.732 2169.45,223.732 2171.44,223.732 2173.43,223.732 2175.43,223.733 2177.42,223.732 2179.41,223.732 2181.41,223.732 2183.4,223.732 2185.39,223.732 2187.38,223.732 2189.38,223.732 2191.37,223.732 2193.36,223.732 2195.36,223.732 2197.35,223.732 2199.34,223.732 2201.34,223.732 2203.33,223.732 2205.32,223.732 2207.32,223.732 2209.31,223.732 2211.3,223.732 2213.3,223.732 2215.29,223.732 2217.28,223.732 2219.27,223.732 2221.27,223.732 2223.26,223.732 2225.25,223.732 2227.25,223.732 2229.24,223.732 2231.23,223.732 2233.23,223.732 2235.22,223.732 2237.21,223.732 2239.21,223.732 2241.2,223.732 2243.19,223.732 2245.19,223.732 2247.18,223.732 2249.17,223.732 2251.17,223.732 2253.16,223.732 2255.15,223.732 2257.14,223.732 2259.14,223.732 2261.13,223.732 2263.12,223.732 2265.12,223.732 2267.11,223.732 2269.1,223.732 2271.1,223.732 2273.09,223.732 2275.08,223.732 2277.08,223.732 2279.07,223.732 2281.06,223.732 2283.06,223.732 2285.05,223.732 2287.04,223.732 2289.04,223.732 2291.03,223.732 2293.02,223.732 "/>
<path clip-path="url(#clip960)" d="M1863.63 1377.32 L2282.4 1377.32 L2282.4 1221.8 L1863.63 1221.8  Z" fill="#ffffff" fill-rule="evenodd" fill-opacity="1"/>
<polyline clip-path="url(#clip960)" style="stroke:#000000; stroke-linecap:round; stroke-linejoin:round; stroke-width:4; stroke-opacity:1; fill:none" points="1863.63,1377.32 2282.4,1377.32 2282.4,1221.8 1863.63,1221.8 1863.63,1377.32 "/>
<polyline clip-path="url(#clip960)" style="stroke:#009af9; stroke-linecap:round; stroke-linejoin:round; stroke-width:4; stroke-opacity:1; fill:none" points="1887.08,1273.64 2027.79,1273.64 "/>
<path clip-path="url(#clip960)" d="M2055.92 1274.41 L2055.92 1287.07 L2063.42 1287.07 Q2067.19 1287.07 2069 1285.52 Q2070.83 1283.95 2070.83 1280.73 Q2070.83 1277.49 2069 1275.96 Q2067.19 1274.41 2063.42 1274.41 L2055.92 1274.41 M2055.92 1260.2 L2055.92 1270.61 L2062.84 1270.61 Q2066.27 1270.61 2067.93 1269.34 Q2069.62 1268.05 2069.62 1265.41 Q2069.62 1262.79 2067.93 1261.49 Q2066.27 1260.2 2062.84 1260.2 L2055.92 1260.2 M2051.24 1256.36 L2063.19 1256.36 Q2068.53 1256.36 2071.43 1258.58 Q2074.32 1260.8 2074.32 1264.9 Q2074.32 1268.07 2072.84 1269.94 Q2071.36 1271.82 2068.49 1272.28 Q2071.94 1273.02 2073.84 1275.38 Q2075.76 1277.72 2075.76 1281.24 Q2075.76 1285.87 2072.61 1288.39 Q2069.46 1290.92 2063.65 1290.92 L2051.24 1290.92 L2051.24 1256.36 Z" fill="#000000" fill-rule="nonzero" fill-opacity="1" /><path clip-path="url(#clip960)" d="M2088.44 1274.41 L2088.44 1287.07 L2095.94 1287.07 Q2099.72 1287.07 2101.52 1285.52 Q2103.35 1283.95 2103.35 1280.73 Q2103.35 1277.49 2101.52 1275.96 Q2099.72 1274.41 2095.94 1274.41 L2088.44 1274.41 M2088.44 1260.2 L2088.44 1270.61 L2095.36 1270.61 Q2098.79 1270.61 2100.46 1269.34 Q2102.15 1268.05 2102.15 1265.41 Q2102.15 1262.79 2100.46 1261.49 Q2098.79 1260.2 2095.36 1260.2 L2088.44 1260.2 M2083.77 1256.36 L2095.71 1256.36 Q2101.06 1256.36 2103.95 1258.58 Q2106.84 1260.8 2106.84 1264.9 Q2106.84 1268.07 2105.36 1269.94 Q2103.88 1271.82 2101.01 1272.28 Q2104.46 1273.02 2106.36 1275.38 Q2108.28 1277.72 2108.28 1281.24 Q2108.28 1285.87 2105.13 1288.39 Q2101.98 1290.92 2096.17 1290.92 L2083.77 1290.92 L2083.77 1256.36 Z" fill="#000000" fill-rule="nonzero" fill-opacity="1" /><path clip-path="url(#clip960)" d="M2123.74 1290.92 L2110.55 1256.36 L2115.43 1256.36 L2126.38 1285.45 L2137.35 1256.36 L2142.22 1256.36 L2129.04 1290.92 L2123.74 1290.92 Z" fill="#000000" fill-rule="nonzero" fill-opacity="1" /><path clip-path="url(#clip960)" d="M2147.26 1256.36 L2151.94 1256.36 L2151.94 1290.92 L2147.26 1290.92 L2147.26 1256.36 Z" fill="#000000" fill-rule="nonzero" fill-opacity="1" /><path clip-path="url(#clip960)" d="M2202.19 1259.02 L2202.19 1263.95 Q2199.83 1261.75 2197.15 1260.66 Q2194.48 1259.57 2191.47 1259.57 Q2185.55 1259.57 2182.4 1263.21 Q2179.25 1266.82 2179.25 1273.67 Q2179.25 1280.5 2182.4 1284.13 Q2185.55 1287.74 2191.47 1287.74 Q2194.48 1287.74 2197.15 1286.66 Q2199.83 1285.57 2202.19 1283.37 L2202.19 1288.25 Q2199.74 1289.92 2196.98 1290.75 Q2194.25 1291.59 2191.2 1291.59 Q2183.35 1291.59 2178.84 1286.79 Q2174.32 1281.98 2174.32 1273.67 Q2174.32 1265.34 2178.84 1260.55 Q2183.35 1255.73 2191.2 1255.73 Q2194.3 1255.73 2197.03 1256.56 Q2199.78 1257.37 2202.19 1259.02 Z" fill="#000000" fill-rule="nonzero" fill-opacity="1" /><path clip-path="url(#clip960)" d="M2209.41 1256.36 L2229.27 1256.36 L2229.27 1260.29 L2214.09 1260.29 L2214.09 1270.48 L2227.79 1270.48 L2227.79 1274.41 L2214.09 1274.41 L2214.09 1290.92 L2209.41 1290.92 L2209.41 1256.36 Z" fill="#000000" fill-rule="nonzero" fill-opacity="1" /><path clip-path="url(#clip960)" d="M2236.68 1256.36 L2258.53 1256.36 L2258.53 1260.29 L2241.36 1260.29 L2241.36 1270.52 L2257.82 1270.52 L2257.82 1274.46 L2241.36 1274.46 L2241.36 1286.98 L2258.95 1286.98 L2258.95 1290.92 L2236.68 1290.92 L2236.68 1256.36 Z" fill="#000000" fill-rule="nonzero" fill-opacity="1" /><polyline clip-path="url(#clip960)" style="stroke:#e26f46; stroke-linecap:round; stroke-linejoin:round; stroke-width:4; stroke-opacity:1; fill:none" points="1887.08,1325.48 2027.79,1325.48 "/>
<path clip-path="url(#clip960)" d="M2055.92 1326.25 L2055.92 1338.91 L2063.42 1338.91 Q2067.19 1338.91 2069 1337.36 Q2070.83 1335.79 2070.83 1332.57 Q2070.83 1329.33 2069 1327.8 Q2067.19 1326.25 2063.42 1326.25 L2055.92 1326.25 M2055.92 1312.04 L2055.92 1322.45 L2062.84 1322.45 Q2066.27 1322.45 2067.93 1321.18 Q2069.62 1319.89 2069.62 1317.25 Q2069.62 1314.63 2067.93 1313.33 Q2066.27 1312.04 2062.84 1312.04 L2055.92 1312.04 M2051.24 1308.2 L2063.19 1308.2 Q2068.53 1308.2 2071.43 1310.42 Q2074.32 1312.64 2074.32 1316.74 Q2074.32 1319.91 2072.84 1321.78 Q2071.36 1323.66 2068.49 1324.12 Q2071.94 1324.86 2073.84 1327.22 Q2075.76 1329.56 2075.76 1333.08 Q2075.76 1337.71 2072.61 1340.23 Q2069.46 1342.76 2063.65 1342.76 L2051.24 1342.76 L2051.24 1308.2 Z" fill="#000000" fill-rule="nonzero" fill-opacity="1" /><path clip-path="url(#clip960)" d="M2088.44 1326.25 L2088.44 1338.91 L2095.94 1338.91 Q2099.72 1338.91 2101.52 1337.36 Q2103.35 1335.79 2103.35 1332.57 Q2103.35 1329.33 2101.52 1327.8 Q2099.72 1326.25 2095.94 1326.25 L2088.44 1326.25 M2088.44 1312.04 L2088.44 1322.45 L2095.36 1322.45 Q2098.79 1322.45 2100.46 1321.18 Q2102.15 1319.89 2102.15 1317.25 Q2102.15 1314.63 2100.46 1313.33 Q2098.79 1312.04 2095.36 1312.04 L2088.44 1312.04 M2083.77 1308.2 L2095.71 1308.2 Q2101.06 1308.2 2103.95 1310.42 Q2106.84 1312.64 2106.84 1316.74 Q2106.84 1319.91 2105.36 1321.78 Q2103.88 1323.66 2101.01 1324.12 Q2104.46 1324.86 2106.36 1327.22 Q2108.28 1329.56 2108.28 1333.08 Q2108.28 1337.71 2105.13 1340.23 Q2101.98 1342.76 2096.17 1342.76 L2083.77 1342.76 L2083.77 1308.2 Z" fill="#000000" fill-rule="nonzero" fill-opacity="1" /><path clip-path="url(#clip960)" d="M2123.74 1342.76 L2110.55 1308.2 L2115.43 1308.2 L2126.38 1337.29 L2137.35 1308.2 L2142.22 1308.2 L2129.04 1342.76 L2123.74 1342.76 Z" fill="#000000" fill-rule="nonzero" fill-opacity="1" /><path clip-path="url(#clip960)" d="M2147.26 1308.2 L2151.94 1308.2 L2151.94 1342.76 L2147.26 1342.76 L2147.26 1308.2 Z" fill="#000000" fill-rule="nonzero" fill-opacity="1" /><path clip-path="url(#clip960)" d="M2197.03 1309.33 L2197.03 1313.89 Q2194.37 1312.62 2192.01 1311.99 Q2189.65 1311.37 2187.45 1311.37 Q2183.63 1311.37 2181.54 1312.85 Q2179.48 1314.33 2179.48 1317.06 Q2179.48 1319.35 2180.85 1320.53 Q2182.24 1321.69 2186.08 1322.41 L2188.9 1322.99 Q2194.14 1323.98 2196.61 1326.51 Q2199.11 1329.01 2199.11 1333.22 Q2199.11 1338.24 2195.73 1340.83 Q2192.38 1343.43 2185.87 1343.43 Q2183.42 1343.43 2180.64 1342.87 Q2177.89 1342.32 2174.92 1341.23 L2174.92 1336.41 Q2177.77 1338.01 2180.5 1338.82 Q2183.23 1339.63 2185.87 1339.63 Q2189.88 1339.63 2192.05 1338.06 Q2194.23 1336.48 2194.23 1333.57 Q2194.23 1331.02 2192.65 1329.58 Q2191.1 1328.15 2187.54 1327.43 L2184.69 1326.88 Q2179.46 1325.83 2177.12 1323.61 Q2174.78 1321.39 2174.78 1317.43 Q2174.78 1312.85 2178 1310.21 Q2181.24 1307.57 2186.91 1307.57 Q2189.34 1307.57 2191.87 1308.01 Q2194.39 1308.45 2197.03 1309.33 Z" fill="#000000" fill-rule="nonzero" fill-opacity="1" /><path clip-path="url(#clip960)" d="M2201.61 1308.2 L2230.85 1308.2 L2230.85 1312.13 L2218.58 1312.13 L2218.58 1342.76 L2213.88 1342.76 L2213.88 1312.13 L2201.61 1312.13 L2201.61 1308.2 Z" fill="#000000" fill-rule="nonzero" fill-opacity="1" /><path clip-path="url(#clip960)" d="M2235.36 1308.2 L2240.04 1308.2 L2240.04 1338.82 L2256.87 1338.82 L2256.87 1342.76 L2235.36 1342.76 L2235.36 1308.2 Z" fill="#000000" fill-rule="nonzero" fill-opacity="1" /></svg>
