<?xml version="1.0" encoding="utf-8"?>
<svg xmlns="http://www.w3.org/2000/svg" xmlns:xlink="http://www.w3.org/1999/xlink" width="600" height="400" viewBox="0 0 2400 1600">
<defs>
  <clipPath id="clip810">
    <rect x="0" y="0" width="2400" height="1600"/>
  </clipPath>
</defs>
<path clip-path="url(#clip810)" d="M0 1600 L2400 1600 L2400 0 L0 0  Z" fill="#ffffff" fill-rule="evenodd" fill-opacity="1"/>
<defs>
  <clipPath id="clip811">
    <rect x="332" y="47" width="2021" height="1377"/>
  </clipPath>
</defs>
<path clip-path="url(#clip810)" d="M332.62 1423.18 L2352.76 1423.18 L2352.76 47.2441 L332.62 47.2441  Z" fill="#ffffff" fill-rule="evenodd" fill-opacity="1"/>
<polyline clip-path="url(#clip811)" style="stroke:#000000; stroke-linecap:round; stroke-linejoin:round; stroke-width:2; stroke-opacity:0.1; fill:none" points="347.946,1423.18 347.946,47.2441 "/>
<polyline clip-path="url(#clip811)" style="stroke:#000000; stroke-linecap:round; stroke-linejoin:round; stroke-width:2; stroke-opacity:0.1; fill:none" points="701.119,1423.18 701.119,47.2441 "/>
<polyline clip-path="url(#clip811)" style="stroke:#000000; stroke-linecap:round; stroke-linejoin:round; stroke-width:2; stroke-opacity:0.1; fill:none" points="1054.29,1423.18 1054.29,47.2441 "/>
<polyline clip-path="url(#clip811)" style="stroke:#000000; stroke-linecap:round; stroke-linejoin:round; stroke-width:2; stroke-opacity:0.1; fill:none" points="1407.47,1423.18 1407.47,47.2441 "/>
<polyline clip-path="url(#clip811)" style="stroke:#000000; stroke-linecap:round; stroke-linejoin:round; stroke-width:2; stroke-opacity:0.1; fill:none" points="1760.64,1423.18 1760.64,47.2441 "/>
<polyline clip-path="url(#clip811)" style="stroke:#000000; stroke-linecap:round; stroke-linejoin:round; stroke-width:2; stroke-opacity:0.1; fill:none" points="2113.81,1423.18 2113.81,47.2441 "/>
<polyline clip-path="url(#clip811)" style="stroke:#000000; stroke-linecap:round; stroke-linejoin:round; stroke-width:2; stroke-opacity:0.1; fill:none" points="332.62,1268.15 2352.76,1268.15 "/>
<polyline clip-path="url(#clip811)" style="stroke:#000000; stroke-linecap:round; stroke-linejoin:round; stroke-width:2; stroke-opacity:0.1; fill:none" points="332.62,1019.54 2352.76,1019.54 "/>
<polyline clip-path="url(#clip811)" style="stroke:#000000; stroke-linecap:round; stroke-linejoin:round; stroke-width:2; stroke-opacity:0.1; fill:none" points="332.62,770.922 2352.76,770.922 "/>
<polyline clip-path="url(#clip811)" style="stroke:#000000; stroke-linecap:round; stroke-linejoin:round; stroke-width:2; stroke-opacity:0.1; fill:none" points="332.62,522.308 2352.76,522.308 "/>
<polyline clip-path="url(#clip811)" style="stroke:#000000; stroke-linecap:round; stroke-linejoin:round; stroke-width:2; stroke-opacity:0.1; fill:none" points="332.62,273.695 2352.76,273.695 "/>
<polyline clip-path="url(#clip810)" style="stroke:#000000; stroke-linecap:round; stroke-linejoin:round; stroke-width:4; stroke-opacity:1; fill:none" points="332.62,1423.18 2352.76,1423.18 "/>
<polyline clip-path="url(#clip810)" style="stroke:#000000; stroke-linecap:round; stroke-linejoin:round; stroke-width:4; stroke-opacity:1; fill:none" points="347.946,1423.18 347.946,1404.28 "/>
<polyline clip-path="url(#clip810)" style="stroke:#000000; stroke-linecap:round; stroke-linejoin:round; stroke-width:4; stroke-opacity:1; fill:none" points="701.119,1423.18 701.119,1404.28 "/>
<polyline clip-path="url(#clip810)" style="stroke:#000000; stroke-linecap:round; stroke-linejoin:round; stroke-width:4; stroke-opacity:1; fill:none" points="1054.29,1423.18 1054.29,1404.28 "/>
<polyline clip-path="url(#clip810)" style="stroke:#000000; stroke-linecap:round; stroke-linejoin:round; stroke-width:4; stroke-opacity:1; fill:none" points="1407.47,1423.18 1407.47,1404.28 "/>
<polyline clip-path="url(#clip810)" style="stroke:#000000; stroke-linecap:round; stroke-linejoin:round; stroke-width:4; stroke-opacity:1; fill:none" points="1760.64,1423.18 1760.64,1404.28 "/>
<polyline clip-path="url(#clip810)" style="stroke:#000000; stroke-linecap:round; stroke-linejoin:round; stroke-width:4; stroke-opacity:1; fill:none" points="2113.81,1423.18 2113.81,1404.28 "/>
<path clip-path="url(#clip810)" d="M347.946 1454.1 Q344.335 1454.1 342.506 1457.66 Q340.701 1461.2 340.701 1468.33 Q340.701 1475.44 342.506 1479.01 Q344.335 1482.55 347.946 1482.55 Q351.58 1482.55 353.386 1479.01 Q355.215 1475.44 355.215 1468.33 Q355.215 1461.2 353.386 1457.66 Q351.58 1454.1 347.946 1454.1 M347.946 1450.39 Q353.756 1450.39 356.812 1455 Q359.891 1459.58 359.891 1468.33 Q359.891 1477.06 356.812 1481.67 Q353.756 1486.25 347.946 1486.25 Q342.136 1486.25 339.057 1481.67 Q336.002 1477.06 336.002 1468.33 Q336.002 1459.58 339.057 1455 Q342.136 1450.39 347.946 1450.39 Z" fill="#000000" fill-rule="nonzero" fill-opacity="1" /><path clip-path="url(#clip810)" d="M691.397 1451.02 L709.753 1451.02 L709.753 1454.96 L695.679 1454.96 L695.679 1463.43 Q696.698 1463.08 697.716 1462.92 Q698.735 1462.73 699.753 1462.73 Q705.54 1462.73 708.92 1465.9 Q712.3 1469.08 712.3 1474.49 Q712.3 1480.07 708.827 1483.17 Q705.355 1486.25 699.036 1486.25 Q696.86 1486.25 694.591 1485.88 Q692.346 1485.51 689.939 1484.77 L689.939 1480.07 Q692.022 1481.2 694.244 1481.76 Q696.466 1482.32 698.943 1482.32 Q702.948 1482.32 705.286 1480.21 Q707.624 1478.1 707.624 1474.49 Q707.624 1470.88 705.286 1468.77 Q702.948 1466.67 698.943 1466.67 Q697.068 1466.67 695.193 1467.08 Q693.341 1467.5 691.397 1468.38 L691.397 1451.02 Z" fill="#000000" fill-rule="nonzero" fill-opacity="1" /><path clip-path="url(#clip810)" d="M1028.98 1481.64 L1036.62 1481.64 L1036.62 1455.28 L1028.31 1456.95 L1028.31 1452.69 L1036.57 1451.02 L1041.25 1451.02 L1041.25 1481.64 L1048.89 1481.64 L1048.89 1485.58 L1028.98 1485.58 L1028.98 1481.64 Z" fill="#000000" fill-rule="nonzero" fill-opacity="1" /><path clip-path="url(#clip810)" d="M1068.33 1454.1 Q1064.72 1454.1 1062.89 1457.66 Q1061.09 1461.2 1061.09 1468.33 Q1061.09 1475.44 1062.89 1479.01 Q1064.72 1482.55 1068.33 1482.55 Q1071.97 1482.55 1073.77 1479.01 Q1075.6 1475.44 1075.6 1468.33 Q1075.6 1461.2 1073.77 1457.66 Q1071.97 1454.1 1068.33 1454.1 M1068.33 1450.39 Q1074.14 1450.39 1077.2 1455 Q1080.28 1459.58 1080.28 1468.33 Q1080.28 1477.06 1077.2 1481.67 Q1074.14 1486.25 1068.33 1486.25 Q1062.52 1486.25 1059.44 1481.67 Q1056.39 1477.06 1056.39 1468.33 Q1056.39 1459.58 1059.44 1455 Q1062.52 1450.39 1068.33 1450.39 Z" fill="#000000" fill-rule="nonzero" fill-opacity="1" /><path clip-path="url(#clip810)" d="M1382.65 1481.64 L1390.29 1481.64 L1390.29 1455.28 L1381.98 1456.95 L1381.98 1452.69 L1390.24 1451.02 L1394.92 1451.02 L1394.92 1481.64 L1402.56 1481.64 L1402.56 1485.58 L1382.65 1485.58 L1382.65 1481.64 Z" fill="#000000" fill-rule="nonzero" fill-opacity="1" /><path clip-path="url(#clip810)" d="M1412.05 1451.02 L1430.4 1451.02 L1430.4 1454.96 L1416.33 1454.96 L1416.33 1463.43 Q1417.35 1463.08 1418.37 1462.92 Q1419.39 1462.73 1420.4 1462.73 Q1426.19 1462.73 1429.57 1465.9 Q1432.95 1469.08 1432.95 1474.49 Q1432.95 1480.07 1429.48 1483.17 Q1426.01 1486.25 1419.69 1486.25 Q1417.51 1486.25 1415.24 1485.88 Q1413 1485.51 1410.59 1484.77 L1410.59 1480.07 Q1412.67 1481.2 1414.9 1481.76 Q1417.12 1482.32 1419.59 1482.32 Q1423.6 1482.32 1425.94 1480.21 Q1428.28 1478.1 1428.28 1474.49 Q1428.28 1470.88 1425.94 1468.77 Q1423.6 1466.67 1419.59 1466.67 Q1417.72 1466.67 1415.84 1467.08 Q1413.99 1467.5 1412.05 1468.38 L1412.05 1451.02 Z" fill="#000000" fill-rule="nonzero" fill-opacity="1" /><path clip-path="url(#clip810)" d="M1739.41 1481.64 L1755.73 1481.64 L1755.73 1485.58 L1733.79 1485.58 L1733.79 1481.64 Q1736.45 1478.89 1741.03 1474.26 Q1745.64 1469.61 1746.82 1468.27 Q1749.06 1465.74 1749.94 1464.01 Q1750.85 1462.25 1750.85 1460.56 Q1750.85 1457.8 1748.9 1456.07 Q1746.98 1454.33 1743.88 1454.33 Q1741.68 1454.33 1739.23 1455.09 Q1736.8 1455.86 1734.02 1457.41 L1734.02 1452.69 Q1736.84 1451.55 1739.3 1450.97 Q1741.75 1450.39 1743.79 1450.39 Q1749.16 1450.39 1752.35 1453.08 Q1755.55 1455.77 1755.55 1460.26 Q1755.55 1462.39 1754.74 1464.31 Q1753.95 1466.2 1751.84 1468.8 Q1751.26 1469.47 1748.16 1472.69 Q1745.06 1475.88 1739.41 1481.64 Z" fill="#000000" fill-rule="nonzero" fill-opacity="1" /><path clip-path="url(#clip810)" d="M1775.55 1454.1 Q1771.93 1454.1 1770.11 1457.66 Q1768.3 1461.2 1768.3 1468.33 Q1768.3 1475.44 1770.11 1479.01 Q1771.93 1482.55 1775.55 1482.55 Q1779.18 1482.55 1780.99 1479.01 Q1782.81 1475.44 1782.81 1468.33 Q1782.81 1461.2 1780.99 1457.66 Q1779.18 1454.1 1775.55 1454.1 M1775.55 1450.39 Q1781.36 1450.39 1784.41 1455 Q1787.49 1459.58 1787.49 1468.33 Q1787.49 1477.06 1784.41 1481.67 Q1781.36 1486.25 1775.55 1486.25 Q1769.74 1486.25 1766.66 1481.67 Q1763.6 1477.06 1763.6 1468.33 Q1763.6 1459.58 1766.66 1455 Q1769.74 1450.39 1775.55 1450.39 Z" fill="#000000" fill-rule="nonzero" fill-opacity="1" /><path clip-path="url(#clip810)" d="M2093.08 1481.64 L2109.4 1481.64 L2109.4 1485.58 L2087.46 1485.58 L2087.46 1481.64 Q2090.12 1478.89 2094.7 1474.26 Q2099.31 1469.61 2100.49 1468.27 Q2102.73 1465.74 2103.61 1464.01 Q2104.52 1462.25 2104.52 1460.56 Q2104.52 1457.8 2102.57 1456.07 Q2100.65 1454.33 2097.55 1454.33 Q2095.35 1454.33 2092.9 1455.09 Q2090.47 1455.86 2087.69 1457.41 L2087.69 1452.69 Q2090.51 1451.55 2092.97 1450.97 Q2095.42 1450.39 2097.46 1450.39 Q2102.83 1450.39 2106.02 1453.08 Q2109.22 1455.77 2109.22 1460.26 Q2109.22 1462.39 2108.41 1464.31 Q2107.62 1466.2 2105.51 1468.8 Q2104.93 1469.47 2101.83 1472.69 Q2098.73 1475.88 2093.08 1481.64 Z" fill="#000000" fill-rule="nonzero" fill-opacity="1" /><path clip-path="url(#clip810)" d="M2119.26 1451.02 L2137.62 1451.02 L2137.62 1454.96 L2123.54 1454.96 L2123.54 1463.43 Q2124.56 1463.08 2125.58 1462.92 Q2126.6 1462.73 2127.62 1462.73 Q2133.41 1462.73 2136.79 1465.9 Q2140.17 1469.08 2140.17 1474.49 Q2140.17 1480.07 2136.69 1483.17 Q2133.22 1486.25 2126.9 1486.25 Q2124.73 1486.25 2122.46 1485.88 Q2120.21 1485.51 2117.8 1484.77 L2117.8 1480.07 Q2119.89 1481.2 2122.11 1481.76 Q2124.33 1482.32 2126.81 1482.32 Q2130.81 1482.32 2133.15 1480.21 Q2135.49 1478.1 2135.49 1474.49 Q2135.49 1470.88 2133.15 1468.77 Q2130.81 1466.67 2126.81 1466.67 Q2124.93 1466.67 2123.06 1467.08 Q2121.21 1467.5 2119.26 1468.38 L2119.26 1451.02 Z" fill="#000000" fill-rule="nonzero" fill-opacity="1" /><path clip-path="url(#clip810)" d="M1013.77 1520.52 L1020.27 1520.52 L1030.26 1560.69 L1040.22 1520.52 L1047.45 1520.52 L1057.44 1560.69 L1067.4 1520.52 L1073.93 1520.52 L1061.99 1568.04 L1053.91 1568.04 L1043.88 1526.79 L1033.76 1568.04 L1025.68 1568.04 L1013.77 1520.52 Z" fill="#000000" fill-rule="nonzero" fill-opacity="1" /><path clip-path="url(#clip810)" d="M1094.23 1550.12 Q1087.14 1550.12 1084.4 1551.75 Q1081.66 1553.37 1081.66 1557.29 Q1081.66 1560.4 1083.7 1562.25 Q1085.77 1564.07 1089.3 1564.07 Q1094.17 1564.07 1097.1 1560.63 Q1100.06 1557.16 1100.06 1551.43 L1100.06 1550.12 L1094.23 1550.12 M1105.92 1547.71 L1105.92 1568.04 L1100.06 1568.04 L1100.06 1562.63 Q1098.05 1565.88 1095.06 1567.44 Q1092.07 1568.97 1087.74 1568.97 Q1082.27 1568.97 1079.02 1565.91 Q1075.81 1562.82 1075.81 1557.67 Q1075.81 1551.65 1079.82 1548.6 Q1083.86 1545.54 1091.85 1545.54 L1100.06 1545.54 L1100.06 1544.97 Q1100.06 1540.93 1097.39 1538.73 Q1094.74 1536.5 1089.94 1536.5 Q1086.88 1536.5 1083.99 1537.23 Q1081.09 1537.97 1078.42 1539.43 L1078.42 1534.02 Q1081.63 1532.78 1084.65 1532.17 Q1087.68 1531.54 1090.54 1531.54 Q1098.28 1531.54 1102.1 1535.55 Q1105.92 1539.56 1105.92 1547.71 Z" fill="#000000" fill-rule="nonzero" fill-opacity="1" /><path clip-path="url(#clip810)" d="M1117.98 1518.52 L1123.84 1518.52 L1123.84 1568.04 L1117.98 1568.04 L1117.98 1518.52 Z" fill="#000000" fill-rule="nonzero" fill-opacity="1" /><path clip-path="url(#clip810)" d="M1136.09 1518.52 L1141.95 1518.52 L1141.95 1568.04 L1136.09 1568.04 L1136.09 1518.52 Z" fill="#000000" fill-rule="nonzero" fill-opacity="1" /><path clip-path="url(#clip810)" d="M1179.85 1533.76 L1179.85 1539.24 Q1177.37 1537.87 1174.86 1537.2 Q1172.37 1536.5 1169.83 1536.5 Q1164.13 1536.5 1160.98 1540.13 Q1157.83 1543.73 1157.83 1550.25 Q1157.83 1556.78 1160.98 1560.4 Q1164.13 1564 1169.83 1564 Q1172.37 1564 1174.86 1563.33 Q1177.37 1562.63 1179.85 1561.26 L1179.85 1566.68 Q1177.4 1567.82 1174.76 1568.39 Q1172.15 1568.97 1169.19 1568.97 Q1161.14 1568.97 1156.4 1563.91 Q1151.65 1558.85 1151.65 1550.25 Q1151.65 1541.53 1156.43 1536.53 Q1161.23 1531.54 1169.57 1531.54 Q1172.28 1531.54 1174.86 1532.11 Q1177.43 1532.65 1179.85 1533.76 Z" fill="#000000" fill-rule="nonzero" fill-opacity="1" /><path clip-path="url(#clip810)" d="M1190.04 1518.52 L1195.89 1518.52 L1195.89 1568.04 L1190.04 1568.04 L1190.04 1518.52 Z" fill="#000000" fill-rule="nonzero" fill-opacity="1" /><path clip-path="url(#clip810)" d="M1221.96 1536.5 Q1217.25 1536.5 1214.51 1540.19 Q1211.78 1543.85 1211.78 1550.25 Q1211.78 1556.65 1214.48 1560.34 Q1217.22 1564 1221.96 1564 Q1226.64 1564 1229.38 1560.31 Q1232.12 1556.62 1232.12 1550.25 Q1232.12 1543.92 1229.38 1540.23 Q1226.64 1536.5 1221.96 1536.5 M1221.96 1531.54 Q1229.6 1531.54 1233.96 1536.5 Q1238.32 1541.47 1238.32 1550.25 Q1238.32 1559 1233.96 1564 Q1229.6 1568.97 1221.96 1568.97 Q1214.29 1568.97 1209.93 1564 Q1205.6 1559 1205.6 1550.25 Q1205.6 1541.47 1209.93 1536.5 Q1214.29 1531.54 1221.96 1531.54 Z" fill="#000000" fill-rule="nonzero" fill-opacity="1" /><path clip-path="url(#clip810)" d="M1273.68 1533.76 L1273.68 1539.24 Q1271.2 1537.87 1268.69 1537.2 Q1266.2 1536.5 1263.66 1536.5 Q1257.96 1536.5 1254.81 1540.13 Q1251.66 1543.73 1251.66 1550.25 Q1251.66 1556.78 1254.81 1560.4 Q1257.96 1564 1263.66 1564 Q1266.2 1564 1268.69 1563.33 Q1271.2 1562.63 1273.68 1561.26 L1273.68 1566.68 Q1271.23 1567.82 1268.59 1568.39 Q1265.98 1568.97 1263.02 1568.97 Q1254.97 1568.97 1250.23 1563.91 Q1245.48 1558.85 1245.48 1550.25 Q1245.48 1541.53 1250.26 1536.53 Q1255.06 1531.54 1263.4 1531.54 Q1266.11 1531.54 1268.69 1532.11 Q1271.26 1532.65 1273.68 1533.76 Z" fill="#000000" fill-rule="nonzero" fill-opacity="1" /><path clip-path="url(#clip810)" d="M1283.65 1518.52 L1289.53 1518.52 L1289.53 1547.77 L1307.01 1532.4 L1314.49 1532.4 L1295.58 1549.07 L1315.28 1568.04 L1307.64 1568.04 L1289.53 1550.63 L1289.53 1568.04 L1283.65 1568.04 L1283.65 1518.52 Z" fill="#000000" fill-rule="nonzero" fill-opacity="1" /><path clip-path="url(#clip810)" d="M1336 1520.52 L1376.2 1520.52 L1376.2 1525.93 L1359.33 1525.93 L1359.33 1568.04 L1352.87 1568.04 L1352.87 1525.93 L1336 1525.93 L1336 1520.52 Z" fill="#000000" fill-rule="nonzero" fill-opacity="1" /><path clip-path="url(#clip810)" d="M1380.15 1532.4 L1386.01 1532.4 L1386.01 1568.04 L1380.15 1568.04 L1380.15 1532.4 M1380.15 1518.52 L1386.01 1518.52 L1386.01 1525.93 L1380.15 1525.93 L1380.15 1518.52 Z" fill="#000000" fill-rule="nonzero" fill-opacity="1" /><path clip-path="url(#clip810)" d="M1426.02 1539.24 Q1428.21 1535.29 1431.27 1533.41 Q1434.32 1531.54 1438.46 1531.54 Q1444.03 1531.54 1447.05 1535.45 Q1450.08 1539.33 1450.08 1546.53 L1450.08 1568.04 L1444.19 1568.04 L1444.19 1546.72 Q1444.19 1541.59 1442.38 1539.11 Q1440.56 1536.63 1436.84 1536.63 Q1432.29 1536.63 1429.64 1539.65 Q1427 1542.68 1427 1547.9 L1427 1568.04 L1421.11 1568.04 L1421.11 1546.72 Q1421.11 1541.56 1419.3 1539.11 Q1417.49 1536.63 1413.7 1536.63 Q1409.21 1536.63 1406.57 1539.68 Q1403.93 1542.71 1403.93 1547.9 L1403.93 1568.04 L1398.04 1568.04 L1398.04 1532.4 L1403.93 1532.4 L1403.93 1537.93 Q1405.93 1534.66 1408.73 1533.1 Q1411.53 1531.54 1415.38 1531.54 Q1419.27 1531.54 1421.97 1533.51 Q1424.71 1535.48 1426.02 1539.24 Z" fill="#000000" fill-rule="nonzero" fill-opacity="1" /><path clip-path="url(#clip810)" d="M1492.25 1548.76 L1492.25 1551.62 L1465.32 1551.62 Q1465.71 1557.67 1468.95 1560.85 Q1472.23 1564 1478.05 1564 Q1481.43 1564 1484.58 1563.17 Q1487.76 1562.35 1490.88 1560.69 L1490.88 1566.23 Q1487.73 1567.57 1484.42 1568.27 Q1481.11 1568.97 1477.7 1568.97 Q1469.17 1568.97 1464.18 1564 Q1459.21 1559.04 1459.21 1550.57 Q1459.21 1541.82 1463.92 1536.69 Q1468.67 1531.54 1476.69 1531.54 Q1483.88 1531.54 1488.05 1536.18 Q1492.25 1540.8 1492.25 1548.76 M1486.39 1547.04 Q1486.33 1542.23 1483.69 1539.37 Q1481.08 1536.5 1476.75 1536.5 Q1471.85 1536.5 1468.89 1539.27 Q1465.96 1542.04 1465.51 1547.07 L1486.39 1547.04 Z" fill="#000000" fill-rule="nonzero" fill-opacity="1" /><path clip-path="url(#clip810)" d="M1536.65 1518.58 Q1532.39 1525.9 1530.32 1533.06 Q1528.25 1540.23 1528.25 1547.58 Q1528.25 1554.93 1530.32 1562.16 Q1532.42 1569.35 1536.65 1576.64 L1531.56 1576.64 Q1526.78 1569.16 1524.4 1561.93 Q1522.04 1554.71 1522.04 1547.58 Q1522.04 1540.48 1524.4 1533.29 Q1526.75 1526.09 1531.56 1518.58 L1536.65 1518.58 Z" fill="#000000" fill-rule="nonzero" fill-opacity="1" /><path clip-path="url(#clip810)" d="M1570.74 1533.45 L1570.74 1538.98 Q1568.26 1537.71 1565.58 1537.07 Q1562.91 1536.44 1560.05 1536.44 Q1555.68 1536.44 1553.49 1537.77 Q1551.32 1539.11 1551.32 1541.79 Q1551.32 1543.82 1552.88 1545 Q1554.44 1546.15 1559.15 1547.2 L1561.16 1547.64 Q1567.4 1548.98 1570.01 1551.43 Q1572.65 1553.85 1572.65 1558.21 Q1572.65 1563.17 1568.7 1566.07 Q1564.79 1568.97 1557.91 1568.97 Q1555.05 1568.97 1551.93 1568.39 Q1548.84 1567.85 1545.4 1566.74 L1545.4 1560.69 Q1548.65 1562.38 1551.8 1563.24 Q1554.95 1564.07 1558.04 1564.07 Q1562.18 1564.07 1564.41 1562.66 Q1566.63 1561.23 1566.63 1558.65 Q1566.63 1556.27 1565.01 1554.99 Q1563.42 1553.72 1557.98 1552.54 L1555.94 1552.07 Q1550.5 1550.92 1548.08 1548.56 Q1545.66 1546.18 1545.66 1542.04 Q1545.66 1537.01 1549.22 1534.27 Q1552.79 1531.54 1559.34 1531.54 Q1562.59 1531.54 1565.46 1532.01 Q1568.32 1532.49 1570.74 1533.45 Z" fill="#000000" fill-rule="nonzero" fill-opacity="1" /><path clip-path="url(#clip810)" d="M1612.47 1548.76 L1612.47 1551.62 L1585.54 1551.62 Q1585.92 1557.67 1589.17 1560.85 Q1592.45 1564 1598.27 1564 Q1601.65 1564 1604.8 1563.17 Q1607.98 1562.35 1611.1 1560.69 L1611.1 1566.23 Q1607.95 1567.57 1604.64 1568.27 Q1601.33 1568.97 1597.92 1568.97 Q1589.39 1568.97 1584.39 1564 Q1579.43 1559.04 1579.43 1550.57 Q1579.43 1541.82 1584.14 1536.69 Q1588.88 1531.54 1596.9 1531.54 Q1604.1 1531.54 1608.27 1536.18 Q1612.47 1540.8 1612.47 1548.76 M1606.61 1547.04 Q1606.55 1542.23 1603.9 1539.37 Q1601.29 1536.5 1596.97 1536.5 Q1592.06 1536.5 1589.1 1539.27 Q1586.18 1542.04 1585.73 1547.07 L1606.61 1547.04 Z" fill="#000000" fill-rule="nonzero" fill-opacity="1" /><path clip-path="url(#clip810)" d="M1647.73 1533.76 L1647.73 1539.24 Q1645.25 1537.87 1642.74 1537.2 Q1640.25 1536.5 1637.71 1536.5 Q1632.01 1536.5 1628.86 1540.13 Q1625.71 1543.73 1625.71 1550.25 Q1625.71 1556.78 1628.86 1560.4 Q1632.01 1564 1637.71 1564 Q1640.25 1564 1642.74 1563.33 Q1645.25 1562.63 1647.73 1561.26 L1647.73 1566.68 Q1645.28 1567.82 1642.64 1568.39 Q1640.03 1568.97 1637.07 1568.97 Q1629.02 1568.97 1624.28 1563.91 Q1619.53 1558.85 1619.53 1550.25 Q1619.53 1541.53 1624.31 1536.53 Q1629.11 1531.54 1637.45 1531.54 Q1640.16 1531.54 1642.74 1532.11 Q1645.31 1532.65 1647.73 1533.76 Z" fill="#000000" fill-rule="nonzero" fill-opacity="1" /><path clip-path="url(#clip810)" d="M1656.99 1518.58 L1662.09 1518.58 Q1666.86 1526.09 1669.22 1533.29 Q1671.6 1540.48 1671.6 1547.58 Q1671.6 1554.71 1669.22 1561.93 Q1666.86 1569.16 1662.09 1576.64 L1656.99 1576.64 Q1661.23 1569.35 1663.3 1562.16 Q1665.4 1554.93 1665.4 1547.58 Q1665.4 1540.23 1663.3 1533.06 Q1661.23 1525.9 1656.99 1518.58 Z" fill="#000000" fill-rule="nonzero" fill-opacity="1" /><polyline clip-path="url(#clip810)" style="stroke:#000000; stroke-linecap:round; stroke-linejoin:round; stroke-width:4; stroke-opacity:1; fill:none" points="332.62,1423.18 332.62,47.2441 "/>
<polyline clip-path="url(#clip810)" style="stroke:#000000; stroke-linecap:round; stroke-linejoin:round; stroke-width:4; stroke-opacity:1; fill:none" points="332.62,1268.15 351.518,1268.15 "/>
<polyline clip-path="url(#clip810)" style="stroke:#000000; stroke-linecap:round; stroke-linejoin:round; stroke-width:4; stroke-opacity:1; fill:none" points="332.62,1019.54 351.518,1019.54 "/>
<polyline clip-path="url(#clip810)" style="stroke:#000000; stroke-linecap:round; stroke-linejoin:round; stroke-width:4; stroke-opacity:1; fill:none" points="332.62,770.922 351.518,770.922 "/>
<polyline clip-path="url(#clip810)" style="stroke:#000000; stroke-linecap:round; stroke-linejoin:round; stroke-width:4; stroke-opacity:1; fill:none" points="332.62,522.308 351.518,522.308 "/>
<polyline clip-path="url(#clip810)" style="stroke:#000000; stroke-linecap:round; stroke-linejoin:round; stroke-width:4; stroke-opacity:1; fill:none" points="332.62,273.695 351.518,273.695 "/>
<path clip-path="url(#clip810)" d="M114.26 1268.6 L143.936 1268.6 L143.936 1272.54 L114.26 1272.54 L114.26 1268.6 Z" fill="#000000" fill-rule="nonzero" fill-opacity="1" /><path clip-path="url(#clip810)" d="M154.839 1281.49 L162.477 1281.49 L162.477 1255.13 L154.167 1256.79 L154.167 1252.54 L162.431 1250.87 L167.107 1250.87 L167.107 1281.49 L174.746 1281.49 L174.746 1285.43 L154.839 1285.43 L154.839 1281.49 Z" fill="#000000" fill-rule="nonzero" fill-opacity="1" /><path clip-path="url(#clip810)" d="M183.01 1250.87 L205.232 1250.87 L205.232 1252.86 L192.686 1285.43 L187.801 1285.43 L199.607 1254.8 L183.01 1254.8 L183.01 1250.87 Z" fill="#000000" fill-rule="nonzero" fill-opacity="1" /><path clip-path="url(#clip810)" d="M214.399 1250.87 L232.755 1250.87 L232.755 1254.8 L218.681 1254.8 L218.681 1263.28 Q219.699 1262.93 220.718 1262.77 Q221.736 1262.58 222.755 1262.58 Q228.542 1262.58 231.922 1265.75 Q235.301 1268.92 235.301 1274.34 Q235.301 1279.92 231.829 1283.02 Q228.357 1286.1 222.037 1286.1 Q219.861 1286.1 217.593 1285.73 Q215.348 1285.36 212.94 1284.62 L212.94 1279.92 Q215.024 1281.05 217.246 1281.61 Q219.468 1282.17 221.945 1282.17 Q225.949 1282.17 228.287 1280.06 Q230.625 1277.95 230.625 1274.34 Q230.625 1270.73 228.287 1268.62 Q225.949 1266.52 221.945 1266.52 Q220.07 1266.52 218.195 1266.93 Q216.343 1267.35 214.399 1268.23 L214.399 1250.87 Z" fill="#000000" fill-rule="nonzero" fill-opacity="1" /><path clip-path="url(#clip810)" d="M254.514 1253.95 Q250.903 1253.95 249.074 1257.51 Q247.269 1261.05 247.269 1268.18 Q247.269 1275.29 249.074 1278.86 Q250.903 1282.4 254.514 1282.4 Q258.148 1282.4 259.954 1278.86 Q261.783 1275.29 261.783 1268.18 Q261.783 1261.05 259.954 1257.51 Q258.148 1253.95 254.514 1253.95 M254.514 1250.24 Q260.324 1250.24 263.38 1254.85 Q266.458 1259.43 266.458 1268.18 Q266.458 1276.91 263.38 1281.52 Q260.324 1286.1 254.514 1286.1 Q248.704 1286.1 245.625 1281.52 Q242.57 1276.91 242.57 1268.18 Q242.57 1259.43 245.625 1254.85 Q248.704 1250.24 254.514 1250.24 Z" fill="#000000" fill-rule="nonzero" fill-opacity="1" /><path clip-path="url(#clip810)" d="M284.676 1253.95 Q281.065 1253.95 279.236 1257.51 Q277.431 1261.05 277.431 1268.18 Q277.431 1275.29 279.236 1278.86 Q281.065 1282.4 284.676 1282.4 Q288.31 1282.4 290.116 1278.86 Q291.944 1275.29 291.944 1268.18 Q291.944 1261.05 290.116 1257.51 Q288.31 1253.95 284.676 1253.95 M284.676 1250.24 Q290.486 1250.24 293.542 1254.85 Q296.62 1259.43 296.62 1268.18 Q296.62 1276.91 293.542 1281.52 Q290.486 1286.1 284.676 1286.1 Q278.866 1286.1 275.787 1281.52 Q272.732 1276.91 272.732 1268.18 Q272.732 1259.43 275.787 1254.85 Q278.866 1250.24 284.676 1250.24 Z" fill="#000000" fill-rule="nonzero" fill-opacity="1" /><path clip-path="url(#clip810)" d="M114.26 1019.99 L143.936 1019.99 L143.936 1023.92 L114.26 1023.92 L114.26 1019.99 Z" fill="#000000" fill-rule="nonzero" fill-opacity="1" /><path clip-path="url(#clip810)" d="M154.839 1032.88 L162.477 1032.88 L162.477 1006.51 L154.167 1008.18 L154.167 1003.92 L162.431 1002.26 L167.107 1002.26 L167.107 1032.88 L174.746 1032.88 L174.746 1036.82 L154.839 1036.82 L154.839 1032.88 Z" fill="#000000" fill-rule="nonzero" fill-opacity="1" /><path clip-path="url(#clip810)" d="M184.237 1002.26 L202.593 1002.26 L202.593 1006.19 L188.519 1006.19 L188.519 1014.66 Q189.538 1014.32 190.556 1014.15 Q191.575 1013.97 192.593 1013.97 Q198.38 1013.97 201.76 1017.14 Q205.139 1020.31 205.139 1025.73 Q205.139 1031.31 201.667 1034.41 Q198.195 1037.49 191.875 1037.49 Q189.7 1037.49 187.431 1037.12 Q185.186 1036.75 182.778 1036.01 L182.778 1031.31 Q184.862 1032.44 187.084 1033 Q189.306 1033.55 191.783 1033.55 Q195.787 1033.55 198.125 1031.45 Q200.463 1029.34 200.463 1025.73 Q200.463 1022.12 198.125 1020.01 Q195.787 1017.9 191.783 1017.9 Q189.908 1017.9 188.033 1018.32 Q186.181 1018.74 184.237 1019.62 L184.237 1002.26 Z" fill="#000000" fill-rule="nonzero" fill-opacity="1" /><path clip-path="url(#clip810)" d="M224.352 1005.33 Q220.741 1005.33 218.912 1008.9 Q217.107 1012.44 217.107 1019.57 Q217.107 1026.68 218.912 1030.24 Q220.741 1033.78 224.352 1033.78 Q227.986 1033.78 229.792 1030.24 Q231.621 1026.68 231.621 1019.57 Q231.621 1012.44 229.792 1008.9 Q227.986 1005.33 224.352 1005.33 M224.352 1001.63 Q230.162 1001.63 233.218 1006.24 Q236.297 1010.82 236.297 1019.57 Q236.297 1028.3 233.218 1032.9 Q230.162 1037.49 224.352 1037.49 Q218.542 1037.49 215.463 1032.9 Q212.408 1028.3 212.408 1019.57 Q212.408 1010.82 215.463 1006.24 Q218.542 1001.63 224.352 1001.63 Z" fill="#000000" fill-rule="nonzero" fill-opacity="1" /><path clip-path="url(#clip810)" d="M254.514 1005.33 Q250.903 1005.33 249.074 1008.9 Q247.269 1012.44 247.269 1019.57 Q247.269 1026.68 249.074 1030.24 Q250.903 1033.78 254.514 1033.78 Q258.148 1033.78 259.954 1030.24 Q261.783 1026.68 261.783 1019.57 Q261.783 1012.44 259.954 1008.9 Q258.148 1005.33 254.514 1005.33 M254.514 1001.63 Q260.324 1001.63 263.38 1006.24 Q266.458 1010.82 266.458 1019.57 Q266.458 1028.3 263.38 1032.9 Q260.324 1037.49 254.514 1037.49 Q248.704 1037.49 245.625 1032.9 Q242.57 1028.3 242.57 1019.57 Q242.57 1010.82 245.625 1006.24 Q248.704 1001.63 254.514 1001.63 Z" fill="#000000" fill-rule="nonzero" fill-opacity="1" /><path clip-path="url(#clip810)" d="M284.676 1005.33 Q281.065 1005.33 279.236 1008.9 Q277.431 1012.44 277.431 1019.57 Q277.431 1026.68 279.236 1030.24 Q281.065 1033.78 284.676 1033.78 Q288.31 1033.78 290.116 1030.24 Q291.944 1026.68 291.944 1019.57 Q291.944 1012.44 290.116 1008.9 Q288.31 1005.33 284.676 1005.33 M284.676 1001.63 Q290.486 1001.63 293.542 1006.24 Q296.62 1010.82 296.62 1019.57 Q296.62 1028.3 293.542 1032.9 Q290.486 1037.49 284.676 1037.49 Q278.866 1037.49 275.787 1032.9 Q272.732 1028.3 272.732 1019.57 Q272.732 1010.82 275.787 1006.24 Q278.866 1001.63 284.676 1001.63 Z" fill="#000000" fill-rule="nonzero" fill-opacity="1" /><path clip-path="url(#clip810)" d="M114.26 771.373 L143.936 771.373 L143.936 775.308 L114.26 775.308 L114.26 771.373 Z" fill="#000000" fill-rule="nonzero" fill-opacity="1" /><path clip-path="url(#clip810)" d="M154.839 784.267 L162.477 784.267 L162.477 757.901 L154.167 759.568 L154.167 755.308 L162.431 753.642 L167.107 753.642 L167.107 784.267 L174.746 784.267 L174.746 788.202 L154.839 788.202 L154.839 784.267 Z" fill="#000000" fill-rule="nonzero" fill-opacity="1" /><path clip-path="url(#clip810)" d="M188.218 784.267 L204.537 784.267 L204.537 788.202 L182.593 788.202 L182.593 784.267 Q185.255 781.512 189.838 776.882 Q194.445 772.23 195.625 770.887 Q197.871 768.364 198.75 766.628 Q199.653 764.869 199.653 763.179 Q199.653 760.424 197.709 758.688 Q195.787 756.952 192.686 756.952 Q190.487 756.952 188.033 757.716 Q185.602 758.48 182.825 760.031 L182.825 755.308 Q185.649 754.174 188.102 753.596 Q190.556 753.017 192.593 753.017 Q197.963 753.017 201.158 755.702 Q204.352 758.387 204.352 762.878 Q204.352 765.007 203.542 766.929 Q202.755 768.827 200.649 771.419 Q200.07 772.091 196.968 775.308 Q193.866 778.503 188.218 784.267 Z" fill="#000000" fill-rule="nonzero" fill-opacity="1" /><path clip-path="url(#clip810)" d="M214.399 753.642 L232.755 753.642 L232.755 757.577 L218.681 757.577 L218.681 766.049 Q219.699 765.702 220.718 765.54 Q221.736 765.355 222.755 765.355 Q228.542 765.355 231.922 768.526 Q235.301 771.697 235.301 777.114 Q235.301 782.693 231.829 785.794 Q228.357 788.873 222.037 788.873 Q219.861 788.873 217.593 788.503 Q215.348 788.132 212.94 787.392 L212.94 782.693 Q215.024 783.827 217.246 784.382 Q219.468 784.938 221.945 784.938 Q225.949 784.938 228.287 782.831 Q230.625 780.725 230.625 777.114 Q230.625 773.503 228.287 771.396 Q225.949 769.29 221.945 769.29 Q220.07 769.29 218.195 769.707 Q216.343 770.123 214.399 771.003 L214.399 753.642 Z" fill="#000000" fill-rule="nonzero" fill-opacity="1" /><path clip-path="url(#clip810)" d="M254.514 756.72 Q250.903 756.72 249.074 760.285 Q247.269 763.827 247.269 770.957 Q247.269 778.063 249.074 781.628 Q250.903 785.169 254.514 785.169 Q258.148 785.169 259.954 781.628 Q261.783 778.063 261.783 770.957 Q261.783 763.827 259.954 760.285 Q258.148 756.72 254.514 756.72 M254.514 753.017 Q260.324 753.017 263.38 757.623 Q266.458 762.207 266.458 770.957 Q266.458 779.683 263.38 784.29 Q260.324 788.873 254.514 788.873 Q248.704 788.873 245.625 784.29 Q242.57 779.683 242.57 770.957 Q242.57 762.207 245.625 757.623 Q248.704 753.017 254.514 753.017 Z" fill="#000000" fill-rule="nonzero" fill-opacity="1" /><path clip-path="url(#clip810)" d="M284.676 756.72 Q281.065 756.72 279.236 760.285 Q277.431 763.827 277.431 770.957 Q277.431 778.063 279.236 781.628 Q281.065 785.169 284.676 785.169 Q288.31 785.169 290.116 781.628 Q291.944 778.063 291.944 770.957 Q291.944 763.827 290.116 760.285 Q288.31 756.72 284.676 756.72 M284.676 753.017 Q290.486 753.017 293.542 757.623 Q296.62 762.207 296.62 770.957 Q296.62 779.683 293.542 784.29 Q290.486 788.873 284.676 788.873 Q278.866 788.873 275.787 784.29 Q272.732 779.683 272.732 770.957 Q272.732 762.207 275.787 757.623 Q278.866 753.017 284.676 753.017 Z" fill="#000000" fill-rule="nonzero" fill-opacity="1" /><path clip-path="url(#clip810)" d="M114.26 522.76 L143.936 522.76 L143.936 526.695 L114.26 526.695 L114.26 522.76 Z" fill="#000000" fill-rule="nonzero" fill-opacity="1" /><path clip-path="url(#clip810)" d="M154.839 535.653 L162.477 535.653 L162.477 509.287 L154.167 510.954 L154.167 506.695 L162.431 505.028 L167.107 505.028 L167.107 535.653 L174.746 535.653 L174.746 539.588 L154.839 539.588 L154.839 535.653 Z" fill="#000000" fill-rule="nonzero" fill-opacity="1" /><path clip-path="url(#clip810)" d="M194.19 508.107 Q190.579 508.107 188.75 511.672 Q186.945 515.213 186.945 522.343 Q186.945 529.449 188.75 533.014 Q190.579 536.556 194.19 536.556 Q197.825 536.556 199.63 533.014 Q201.459 529.449 201.459 522.343 Q201.459 515.213 199.63 511.672 Q197.825 508.107 194.19 508.107 M194.19 504.403 Q200 504.403 203.056 509.01 Q206.135 513.593 206.135 522.343 Q206.135 531.07 203.056 535.676 Q200 540.259 194.19 540.259 Q188.38 540.259 185.301 535.676 Q182.246 531.07 182.246 522.343 Q182.246 513.593 185.301 509.01 Q188.38 504.403 194.19 504.403 Z" fill="#000000" fill-rule="nonzero" fill-opacity="1" /><path clip-path="url(#clip810)" d="M224.352 508.107 Q220.741 508.107 218.912 511.672 Q217.107 515.213 217.107 522.343 Q217.107 529.449 218.912 533.014 Q220.741 536.556 224.352 536.556 Q227.986 536.556 229.792 533.014 Q231.621 529.449 231.621 522.343 Q231.621 515.213 229.792 511.672 Q227.986 508.107 224.352 508.107 M224.352 504.403 Q230.162 504.403 233.218 509.01 Q236.297 513.593 236.297 522.343 Q236.297 531.07 233.218 535.676 Q230.162 540.259 224.352 540.259 Q218.542 540.259 215.463 535.676 Q212.408 531.07 212.408 522.343 Q212.408 513.593 215.463 509.01 Q218.542 504.403 224.352 504.403 Z" fill="#000000" fill-rule="nonzero" fill-opacity="1" /><path clip-path="url(#clip810)" d="M254.514 508.107 Q250.903 508.107 249.074 511.672 Q247.269 515.213 247.269 522.343 Q247.269 529.449 249.074 533.014 Q250.903 536.556 254.514 536.556 Q258.148 536.556 259.954 533.014 Q261.783 529.449 261.783 522.343 Q261.783 515.213 259.954 511.672 Q258.148 508.107 254.514 508.107 M254.514 504.403 Q260.324 504.403 263.38 509.01 Q266.458 513.593 266.458 522.343 Q266.458 531.07 263.38 535.676 Q260.324 540.259 254.514 540.259 Q248.704 540.259 245.625 535.676 Q242.57 531.07 242.57 522.343 Q242.57 513.593 245.625 509.01 Q248.704 504.403 254.514 504.403 Z" fill="#000000" fill-rule="nonzero" fill-opacity="1" /><path clip-path="url(#clip810)" d="M284.676 508.107 Q281.065 508.107 279.236 511.672 Q277.431 515.213 277.431 522.343 Q277.431 529.449 279.236 533.014 Q281.065 536.556 284.676 536.556 Q288.31 536.556 290.116 533.014 Q291.944 529.449 291.944 522.343 Q291.944 515.213 290.116 511.672 Q288.31 508.107 284.676 508.107 M284.676 504.403 Q290.486 504.403 293.542 509.01 Q296.62 513.593 296.62 522.343 Q296.62 531.07 293.542 535.676 Q290.486 540.259 284.676 540.259 Q278.866 540.259 275.787 535.676 Q272.732 531.07 272.732 522.343 Q272.732 513.593 275.787 509.01 Q278.866 504.403 284.676 504.403 Z" fill="#000000" fill-rule="nonzero" fill-opacity="1" /><path clip-path="url(#clip810)" d="M144.422 274.146 L174.098 274.146 L174.098 278.081 L144.422 278.081 L144.422 274.146 Z" fill="#000000" fill-rule="nonzero" fill-opacity="1" /><path clip-path="url(#clip810)" d="M183.01 256.415 L205.232 256.415 L205.232 258.405 L192.686 290.975 L187.801 290.975 L199.607 260.35 L183.01 260.35 L183.01 256.415 Z" fill="#000000" fill-rule="nonzero" fill-opacity="1" /><path clip-path="url(#clip810)" d="M214.399 256.415 L232.755 256.415 L232.755 260.35 L218.681 260.35 L218.681 268.822 Q219.699 268.475 220.718 268.313 Q221.736 268.127 222.755 268.127 Q228.542 268.127 231.922 271.299 Q235.301 274.47 235.301 279.887 Q235.301 285.465 231.829 288.567 Q228.357 291.646 222.037 291.646 Q219.861 291.646 217.593 291.275 Q215.348 290.905 212.94 290.164 L212.94 285.465 Q215.024 286.6 217.246 287.155 Q219.468 287.711 221.945 287.711 Q225.949 287.711 228.287 285.604 Q230.625 283.498 230.625 279.887 Q230.625 276.276 228.287 274.169 Q225.949 272.063 221.945 272.063 Q220.07 272.063 218.195 272.479 Q216.343 272.896 214.399 273.776 L214.399 256.415 Z" fill="#000000" fill-rule="nonzero" fill-opacity="1" /><path clip-path="url(#clip810)" d="M254.514 259.493 Q250.903 259.493 249.074 263.058 Q247.269 266.6 247.269 273.729 Q247.269 280.836 249.074 284.4 Q250.903 287.942 254.514 287.942 Q258.148 287.942 259.954 284.4 Q261.783 280.836 261.783 273.729 Q261.783 266.6 259.954 263.058 Q258.148 259.493 254.514 259.493 M254.514 255.79 Q260.324 255.79 263.38 260.396 Q266.458 264.979 266.458 273.729 Q266.458 282.456 263.38 287.063 Q260.324 291.646 254.514 291.646 Q248.704 291.646 245.625 287.063 Q242.57 282.456 242.57 273.729 Q242.57 264.979 245.625 260.396 Q248.704 255.79 254.514 255.79 Z" fill="#000000" fill-rule="nonzero" fill-opacity="1" /><path clip-path="url(#clip810)" d="M284.676 259.493 Q281.065 259.493 279.236 263.058 Q277.431 266.6 277.431 273.729 Q277.431 280.836 279.236 284.4 Q281.065 287.942 284.676 287.942 Q288.31 287.942 290.116 284.4 Q291.944 280.836 291.944 273.729 Q291.944 266.6 290.116 263.058 Q288.31 259.493 284.676 259.493 M284.676 255.79 Q290.486 255.79 293.542 260.396 Q296.62 264.979 296.62 273.729 Q296.62 282.456 293.542 287.063 Q290.486 291.646 284.676 291.646 Q278.866 291.646 275.787 287.063 Q272.732 282.456 272.732 273.729 Q272.732 264.979 275.787 260.396 Q278.866 255.79 284.676 255.79 Z" fill="#000000" fill-rule="nonzero" fill-opacity="1" /><path clip-path="url(#clip810)" d="M16.4842 816.375 L16.4842 786.329 L21.895 786.329 L21.895 809.945 L35.9632 809.945 L35.9632 787.315 L41.3741 787.315 L41.3741 809.945 L58.5933 809.945 L58.5933 785.756 L64.0042 785.756 L64.0042 816.375 L16.4842 816.375 Z" fill="#000000" fill-rule="nonzero" fill-opacity="1" /><path clip-path="url(#clip810)" d="M16.4842 775.189 L16.4842 768.759 L58.5933 768.759 L58.5933 745.62 L64.0042 745.62 L64.0042 775.189 L16.4842 775.189 Z" fill="#000000" fill-rule="nonzero" fill-opacity="1" /><path clip-path="url(#clip810)" d="M41.3104 732.443 L58.7206 732.443 L58.7206 722.13 Q58.7206 716.942 56.5881 714.46 Q54.4238 711.945 49.9996 711.945 Q45.5436 711.945 43.4429 714.46 Q41.3104 716.942 41.3104 722.13 L41.3104 732.443 M21.7677 732.443 L36.0905 732.443 L36.0905 722.926 Q36.0905 718.216 34.34 715.924 Q32.5576 713.6 28.9291 713.6 Q25.3325 713.6 23.5501 715.924 Q21.7677 718.216 21.7677 722.926 L21.7677 732.443 M16.4842 738.872 L16.4842 722.449 Q16.4842 715.096 19.5397 711.118 Q22.5952 707.139 28.2289 707.139 Q32.5894 707.139 35.1675 709.176 Q37.7456 711.213 38.3822 715.16 Q39.4007 710.418 42.6472 707.808 Q45.8619 705.166 50.6998 705.166 Q57.0655 705.166 60.5348 709.495 Q64.0042 713.823 64.0042 721.812 L64.0042 738.872 L16.4842 738.872 Z" fill="#000000" fill-rule="nonzero" fill-opacity="1" /><path clip-path="url(#clip810)" d="M20.8447 676.011 Q20.8447 683.013 26.0645 687.151 Q31.2844 691.257 40.2919 691.257 Q49.2675 691.257 54.4874 687.151 Q59.7073 683.013 59.7073 676.011 Q59.7073 669.009 54.4874 664.935 Q49.2675 660.829 40.2919 660.829 Q31.2844 660.829 26.0645 664.935 Q20.8447 669.009 20.8447 676.011 M15.6248 676.011 Q15.6248 666.017 22.3406 660.033 Q29.0246 654.049 40.2919 654.049 Q51.5274 654.049 58.2432 660.033 Q64.9272 666.017 64.9272 676.011 Q64.9272 686.037 58.2432 692.052 Q51.5592 698.036 40.2919 698.036 Q29.0246 698.036 22.3406 692.052 Q15.6248 686.037 15.6248 676.011 Z" fill="#000000" fill-rule="nonzero" fill-opacity="1" /><polyline clip-path="url(#clip811)" style="stroke:#009af9; stroke-linecap:round; stroke-linejoin:round; stroke-width:4; stroke-opacity:1; fill:none" points="445.458,1356.27 512.972,750.173 573.189,405.988 632.278,287.213 690.486,239.527 749.944,216.149 810.154,197.375 869.394,186.587 930.315,176.232 988.429,173.97 1051.74,175.966 1114.35,168.332 1176.64,155.005 1239.83,153.266 1297.64,151.633 1355.33,143.397 1413.25,138.828 1471.8,132.532 1530.37,134.382 1590.41,126.67 1649.82,124.708 1708.74,119.795 1767.77,114.951 1826.4,109.91 1885.36,103.946 1944.78,102.035 2004.33,100.51 2062.37,96.4507 2120.49,92.8191 2178.72,94.0401 2236.35,89.7466 2295.58,86.1857 "/>
<polyline clip-path="url(#clip811)" style="stroke:#e26f46; stroke-linecap:round; stroke-linejoin:round; stroke-width:4; stroke-opacity:1; fill:none" points="389.794,1384.24 416.072,969.385 426.138,475.901 435.604,311.922 444.733,279.3 454.14,229.864 463.406,216.82 472.996,197.737 482.083,196.415 491.235,189.308 500.397,177.976 509.895,171.175 519.03,172.359 528.166,166.421 537.267,161.944 546.762,159.627 556.025,153.971 565.225,152.854 574.399,150.902 583.911,145.871 593.08,141.323 602.197,139.119 611.29,137.201 620.796,134.145 629.933,123.79 638.997,122.324 648.065,121.956 657.491,116.625 666.778,112.4 675.84,114.138 684.863,113.548 694.232,106.491 "/>
<path clip-path="url(#clip810)" d="M1784.1 1377.32 L2285.42 1377.32 L2285.42 1221.8 L1784.1 1221.8  Z" fill="#ffffff" fill-rule="evenodd" fill-opacity="1"/>
<polyline clip-path="url(#clip810)" style="stroke:#000000; stroke-linecap:round; stroke-linejoin:round; stroke-width:4; stroke-opacity:1; fill:none" points="1784.1,1377.32 2285.42,1377.32 2285.42,1221.8 1784.1,1221.8 1784.1,1377.32 "/>
<polyline clip-path="url(#clip810)" style="stroke:#009af9; stroke-linecap:round; stroke-linejoin:round; stroke-width:4; stroke-opacity:1; fill:none" points="1806.55,1273.64 1941.22,1273.64 "/>
<path clip-path="url(#clip810)" d="M1963.67 1256.36 L1983.53 1256.36 L1983.53 1260.29 L1968.34 1260.29 L1968.34 1270.48 L1982.05 1270.48 L1982.05 1274.41 L1968.34 1274.41 L1968.34 1290.92 L1963.67 1290.92 L1963.67 1256.36 Z" fill="#000000" fill-rule="nonzero" fill-opacity="1" /><path clip-path="url(#clip810)" d="M1987.72 1280.68 L1987.72 1264.99 L1991.98 1264.99 L1991.98 1280.52 Q1991.98 1284.2 1993.41 1286.05 Q1994.85 1287.88 1997.72 1287.88 Q2001.17 1287.88 2003.16 1285.68 Q2005.17 1283.48 2005.17 1279.69 L2005.17 1264.99 L2009.43 1264.99 L2009.43 1290.92 L2005.17 1290.92 L2005.17 1286.93 Q2003.62 1289.29 2001.56 1290.45 Q1999.52 1291.59 1996.82 1291.59 Q1992.35 1291.59 1990.03 1288.81 Q1987.72 1286.03 1987.72 1280.68 M1998.44 1264.36 L1998.44 1264.36 Z" fill="#000000" fill-rule="nonzero" fill-opacity="1" /><path clip-path="url(#clip810)" d="M2018.2 1254.9 L2022.46 1254.9 L2022.46 1290.92 L2018.2 1290.92 L2018.2 1254.9 Z" fill="#000000" fill-rule="nonzero" fill-opacity="1" /><path clip-path="url(#clip810)" d="M2031.38 1254.9 L2035.64 1254.9 L2035.64 1290.92 L2031.38 1290.92 L2031.38 1254.9 Z" fill="#000000" fill-rule="nonzero" fill-opacity="1" /><path clip-path="url(#clip810)" d="M2064.48 1274.41 L2064.48 1287.07 L2071.98 1287.07 Q2075.75 1287.07 2077.56 1285.52 Q2079.39 1283.95 2079.39 1280.73 Q2079.39 1277.49 2077.56 1275.96 Q2075.75 1274.41 2071.98 1274.41 L2064.48 1274.41 M2064.48 1260.2 L2064.48 1270.61 L2071.4 1270.61 Q2074.82 1270.61 2076.49 1269.34 Q2078.18 1268.05 2078.18 1265.41 Q2078.18 1262.79 2076.49 1261.49 Q2074.82 1260.2 2071.4 1260.2 L2064.48 1260.2 M2059.8 1256.36 L2071.75 1256.36 Q2077.09 1256.36 2079.99 1258.58 Q2082.88 1260.8 2082.88 1264.9 Q2082.88 1268.07 2081.4 1269.94 Q2079.92 1271.82 2077.05 1272.28 Q2080.5 1273.02 2082.39 1275.38 Q2084.32 1277.72 2084.32 1281.24 Q2084.32 1285.87 2081.17 1288.39 Q2078.02 1290.92 2072.21 1290.92 L2059.8 1290.92 L2059.8 1256.36 Z" fill="#000000" fill-rule="nonzero" fill-opacity="1" /><path clip-path="url(#clip810)" d="M2103.92 1277.88 Q2098.76 1277.88 2096.77 1279.06 Q2094.78 1280.24 2094.78 1283.09 Q2094.78 1285.36 2096.26 1286.7 Q2097.76 1288.02 2100.33 1288.02 Q2103.88 1288.02 2106.01 1285.52 Q2108.16 1283 2108.16 1278.83 L2108.16 1277.88 L2103.92 1277.88 M2112.42 1276.12 L2112.42 1290.92 L2108.16 1290.92 L2108.16 1286.98 Q2106.7 1289.34 2104.52 1290.48 Q2102.35 1291.59 2099.2 1291.59 Q2095.22 1291.59 2092.86 1289.36 Q2090.52 1287.12 2090.52 1283.37 Q2090.52 1278.99 2093.44 1276.77 Q2096.38 1274.55 2102.19 1274.55 L2108.16 1274.55 L2108.16 1274.13 Q2108.16 1271.19 2106.21 1269.6 Q2104.29 1267.98 2100.8 1267.98 Q2098.57 1267.98 2096.47 1268.51 Q2094.36 1269.04 2092.42 1270.11 L2092.42 1266.17 Q2094.76 1265.27 2096.95 1264.83 Q2099.15 1264.36 2101.24 1264.36 Q2106.86 1264.36 2109.64 1267.28 Q2112.42 1270.2 2112.42 1276.12 Z" fill="#000000" fill-rule="nonzero" fill-opacity="1" /><path clip-path="url(#clip810)" d="M2125.4 1257.63 L2125.4 1264.99 L2134.18 1264.99 L2134.18 1268.3 L2125.4 1268.3 L2125.4 1282.37 Q2125.4 1285.54 2126.26 1286.45 Q2127.14 1287.35 2129.8 1287.35 L2134.18 1287.35 L2134.18 1290.92 L2129.8 1290.92 Q2124.87 1290.92 2123 1289.09 Q2121.12 1287.23 2121.12 1282.37 L2121.12 1268.3 L2118 1268.3 L2118 1264.99 L2121.12 1264.99 L2121.12 1257.63 L2125.4 1257.63 Z" fill="#000000" fill-rule="nonzero" fill-opacity="1" /><path clip-path="url(#clip810)" d="M2158.44 1265.98 L2158.44 1269.97 Q2156.63 1268.97 2154.8 1268.48 Q2153 1267.98 2151.14 1267.98 Q2147 1267.98 2144.71 1270.61 Q2142.42 1273.23 2142.42 1277.98 Q2142.42 1282.72 2144.71 1285.36 Q2147 1287.98 2151.14 1287.98 Q2153 1287.98 2154.8 1287.49 Q2156.63 1286.98 2158.44 1285.98 L2158.44 1289.92 Q2156.65 1290.75 2154.73 1291.17 Q2152.83 1291.59 2150.68 1291.59 Q2144.82 1291.59 2141.38 1287.91 Q2137.93 1284.23 2137.93 1277.98 Q2137.93 1271.63 2141.4 1268 Q2144.89 1264.36 2150.96 1264.36 Q2152.93 1264.36 2154.8 1264.78 Q2156.68 1265.17 2158.44 1265.98 Z" fill="#000000" fill-rule="nonzero" fill-opacity="1" /><path clip-path="url(#clip810)" d="M2187.39 1275.27 L2187.39 1290.92 L2183.13 1290.92 L2183.13 1275.41 Q2183.13 1271.73 2181.7 1269.9 Q2180.26 1268.07 2177.39 1268.07 Q2173.94 1268.07 2171.95 1270.27 Q2169.96 1272.47 2169.96 1276.26 L2169.96 1290.92 L2165.68 1290.92 L2165.68 1254.9 L2169.96 1254.9 L2169.96 1269.02 Q2171.49 1266.68 2173.55 1265.52 Q2175.63 1264.36 2178.34 1264.36 Q2182.81 1264.36 2185.1 1267.14 Q2187.39 1269.9 2187.39 1275.27 Z" fill="#000000" fill-rule="nonzero" fill-opacity="1" /><polyline clip-path="url(#clip810)" style="stroke:#e26f46; stroke-linecap:round; stroke-linejoin:round; stroke-width:4; stroke-opacity:1; fill:none" points="1806.55,1325.48 1941.22,1325.48 "/>
<path clip-path="url(#clip810)" d="M1985.91 1309.33 L1985.91 1313.89 Q1983.25 1312.62 1980.89 1311.99 Q1978.53 1311.37 1976.33 1311.37 Q1972.51 1311.37 1970.43 1312.85 Q1968.37 1314.33 1968.37 1317.06 Q1968.37 1319.35 1969.73 1320.53 Q1971.12 1321.69 1974.96 1322.41 L1977.79 1322.99 Q1983.02 1323.98 1985.5 1326.51 Q1988 1329.01 1988 1333.22 Q1988 1338.24 1984.62 1340.83 Q1981.26 1343.43 1974.76 1343.43 Q1972.3 1343.43 1969.52 1342.87 Q1966.77 1342.32 1963.81 1341.23 L1963.81 1336.41 Q1966.65 1338.01 1969.39 1338.82 Q1972.12 1339.63 1974.76 1339.63 Q1978.76 1339.63 1980.94 1338.06 Q1983.11 1336.48 1983.11 1333.57 Q1983.11 1331.02 1981.54 1329.58 Q1979.99 1328.15 1976.42 1327.43 L1973.58 1326.88 Q1968.34 1325.83 1966.01 1323.61 Q1963.67 1321.39 1963.67 1317.43 Q1963.67 1312.85 1966.89 1310.21 Q1970.13 1307.57 1975.8 1307.57 Q1978.23 1307.57 1980.75 1308.01 Q1983.27 1308.45 1985.91 1309.33 Z" fill="#000000" fill-rule="nonzero" fill-opacity="1" /><path clip-path="url(#clip810)" d="M1994.66 1332.52 L1994.66 1316.83 L1998.92 1316.83 L1998.92 1332.36 Q1998.92 1336.04 2000.36 1337.89 Q2001.79 1339.72 2004.66 1339.72 Q2008.11 1339.72 2010.1 1337.52 Q2012.12 1335.32 2012.12 1331.53 L2012.12 1316.83 L2016.38 1316.83 L2016.38 1342.76 L2012.12 1342.76 L2012.12 1338.77 Q2010.57 1341.13 2008.51 1342.29 Q2006.47 1343.43 2003.76 1343.43 Q1999.29 1343.43 1996.98 1340.65 Q1994.66 1337.87 1994.66 1332.52 M2005.38 1316.2 L2005.38 1316.2 Z" fill="#000000" fill-rule="nonzero" fill-opacity="1" /><path clip-path="url(#clip810)" d="M2043.76 1329.82 Q2043.76 1325.12 2041.82 1322.45 Q2039.89 1319.77 2036.51 1319.77 Q2033.14 1319.77 2031.19 1322.45 Q2029.27 1325.12 2029.27 1329.82 Q2029.27 1334.51 2031.19 1337.2 Q2033.14 1339.86 2036.51 1339.86 Q2039.89 1339.86 2041.82 1337.2 Q2043.76 1334.51 2043.76 1329.82 M2029.27 1320.76 Q2030.61 1318.45 2032.65 1317.34 Q2034.71 1316.2 2037.56 1316.2 Q2042.28 1316.2 2045.22 1319.95 Q2048.18 1323.7 2048.18 1329.82 Q2048.18 1335.93 2045.22 1339.68 Q2042.28 1343.43 2037.56 1343.43 Q2034.71 1343.43 2032.65 1342.32 Q2030.61 1341.18 2029.27 1338.87 L2029.27 1342.76 L2024.99 1342.76 L2024.99 1306.74 L2029.27 1306.74 L2029.27 1320.76 Z" fill="#000000" fill-rule="nonzero" fill-opacity="1" /><path clip-path="url(#clip810)" d="M2071.77 1317.59 L2071.77 1321.62 Q2069.96 1320.7 2068.02 1320.23 Q2066.08 1319.77 2063.99 1319.77 Q2060.82 1319.77 2059.22 1320.74 Q2057.65 1321.71 2057.65 1323.66 Q2057.65 1325.14 2058.78 1326 Q2059.92 1326.83 2063.34 1327.59 L2064.8 1327.92 Q2069.34 1328.89 2071.24 1330.67 Q2073.16 1332.43 2073.16 1335.6 Q2073.16 1339.21 2070.29 1341.32 Q2067.44 1343.43 2062.44 1343.43 Q2060.36 1343.43 2058.09 1343.01 Q2055.84 1342.62 2053.34 1341.81 L2053.34 1337.41 Q2055.7 1338.63 2058 1339.26 Q2060.29 1339.86 2062.53 1339.86 Q2065.54 1339.86 2067.16 1338.84 Q2068.78 1337.8 2068.78 1335.93 Q2068.78 1334.19 2067.6 1333.26 Q2066.45 1332.34 2062.49 1331.48 L2061.01 1331.14 Q2057.05 1330.3 2055.29 1328.59 Q2053.53 1326.85 2053.53 1323.84 Q2053.53 1320.19 2056.12 1318.2 Q2058.71 1316.2 2063.48 1316.2 Q2065.84 1316.2 2067.93 1316.55 Q2070.01 1316.9 2071.77 1317.59 Z" fill="#000000" fill-rule="nonzero" fill-opacity="1" /><path clip-path="url(#clip810)" d="M2091.72 1329.72 Q2086.56 1329.72 2084.57 1330.9 Q2082.58 1332.08 2082.58 1334.93 Q2082.58 1337.2 2084.06 1338.54 Q2085.57 1339.86 2088.14 1339.86 Q2091.68 1339.86 2093.81 1337.36 Q2095.96 1334.84 2095.96 1330.67 L2095.96 1329.72 L2091.72 1329.72 M2100.22 1327.96 L2100.22 1342.76 L2095.96 1342.76 L2095.96 1338.82 Q2094.5 1341.18 2092.32 1342.32 Q2090.15 1343.43 2087 1343.43 Q2083.02 1343.43 2080.66 1341.2 Q2078.32 1338.96 2078.32 1335.21 Q2078.32 1330.83 2081.24 1328.61 Q2084.18 1326.39 2089.99 1326.39 L2095.96 1326.39 L2095.96 1325.97 Q2095.96 1323.03 2094.01 1321.44 Q2092.09 1319.82 2088.6 1319.82 Q2086.38 1319.82 2084.27 1320.35 Q2082.16 1320.88 2080.22 1321.95 L2080.22 1318.01 Q2082.56 1317.11 2084.76 1316.67 Q2086.95 1316.2 2089.04 1316.2 Q2094.66 1316.2 2097.44 1319.12 Q2100.22 1322.04 2100.22 1327.96 Z" fill="#000000" fill-rule="nonzero" fill-opacity="1" /><path clip-path="url(#clip810)" d="M2129.18 1321.81 Q2130.77 1318.94 2133 1317.57 Q2135.22 1316.2 2138.23 1316.2 Q2142.28 1316.2 2144.48 1319.05 Q2146.68 1321.88 2146.68 1327.11 L2146.68 1342.76 L2142.39 1342.76 L2142.39 1327.25 Q2142.39 1323.52 2141.07 1321.71 Q2139.76 1319.91 2137.05 1319.91 Q2133.74 1319.91 2131.82 1322.11 Q2129.89 1324.31 2129.89 1328.1 L2129.89 1342.76 L2125.61 1342.76 L2125.61 1327.25 Q2125.61 1323.5 2124.29 1321.71 Q2122.97 1319.91 2120.22 1319.91 Q2116.95 1319.91 2115.03 1322.13 Q2113.11 1324.33 2113.11 1328.1 L2113.11 1342.76 L2108.83 1342.76 L2108.83 1316.83 L2113.11 1316.83 L2113.11 1320.86 Q2114.57 1318.47 2116.61 1317.34 Q2118.64 1316.2 2121.45 1316.2 Q2124.27 1316.2 2126.24 1317.64 Q2128.23 1319.07 2129.18 1321.81 Z" fill="#000000" fill-rule="nonzero" fill-opacity="1" /><path clip-path="url(#clip810)" d="M2159.29 1338.87 L2159.29 1352.62 L2155.01 1352.62 L2155.01 1316.83 L2159.29 1316.83 L2159.29 1320.76 Q2160.63 1318.45 2162.67 1317.34 Q2164.73 1316.2 2167.58 1316.2 Q2172.3 1316.2 2175.24 1319.95 Q2178.2 1323.7 2178.2 1329.82 Q2178.2 1335.93 2175.24 1339.68 Q2172.3 1343.43 2167.58 1343.43 Q2164.73 1343.43 2162.67 1342.32 Q2160.63 1341.18 2159.29 1338.87 M2173.78 1329.82 Q2173.78 1325.12 2171.84 1322.45 Q2169.92 1319.77 2166.54 1319.77 Q2163.16 1319.77 2161.21 1322.45 Q2159.29 1325.12 2159.29 1329.82 Q2159.29 1334.51 2161.21 1337.2 Q2163.16 1339.86 2166.54 1339.86 Q2169.92 1339.86 2171.84 1337.2 Q2173.78 1334.51 2173.78 1329.82 Z" fill="#000000" fill-rule="nonzero" fill-opacity="1" /><path clip-path="url(#clip810)" d="M2185.26 1306.74 L2189.52 1306.74 L2189.52 1342.76 L2185.26 1342.76 L2185.26 1306.74 Z" fill="#000000" fill-rule="nonzero" fill-opacity="1" /><path clip-path="url(#clip810)" d="M2198.44 1316.83 L2202.69 1316.83 L2202.69 1342.76 L2198.44 1342.76 L2198.44 1316.83 M2198.44 1306.74 L2202.69 1306.74 L2202.69 1312.13 L2198.44 1312.13 L2198.44 1306.74 Z" fill="#000000" fill-rule="nonzero" fill-opacity="1" /><path clip-path="url(#clip810)" d="M2233.16 1327.11 L2233.16 1342.76 L2228.9 1342.76 L2228.9 1327.25 Q2228.9 1323.57 2227.46 1321.74 Q2226.03 1319.91 2223.16 1319.91 Q2219.71 1319.91 2217.72 1322.11 Q2215.73 1324.31 2215.73 1328.1 L2215.73 1342.76 L2211.44 1342.76 L2211.44 1316.83 L2215.73 1316.83 L2215.73 1320.86 Q2217.25 1318.52 2219.31 1317.36 Q2221.4 1316.2 2224.11 1316.2 Q2228.57 1316.2 2230.87 1318.98 Q2233.16 1321.74 2233.16 1327.11 Z" fill="#000000" fill-rule="nonzero" fill-opacity="1" /><path clip-path="url(#clip810)" d="M2258.71 1329.49 Q2258.71 1324.86 2256.79 1322.32 Q2254.89 1319.77 2251.44 1319.77 Q2248.02 1319.77 2246.1 1322.32 Q2244.2 1324.86 2244.2 1329.49 Q2244.2 1334.1 2246.1 1336.64 Q2248.02 1339.19 2251.44 1339.19 Q2254.89 1339.19 2256.79 1336.64 Q2258.71 1334.1 2258.71 1329.49 M2262.97 1339.54 Q2262.97 1346.16 2260.03 1349.38 Q2257.09 1352.62 2251.03 1352.62 Q2248.78 1352.62 2246.79 1352.27 Q2244.8 1351.95 2242.93 1351.25 L2242.93 1347.11 Q2244.8 1348.13 2246.63 1348.61 Q2248.46 1349.1 2250.36 1349.1 Q2254.55 1349.1 2256.63 1346.9 Q2258.71 1344.72 2258.71 1340.3 L2258.71 1338.2 Q2257.39 1340.49 2255.33 1341.62 Q2253.27 1342.76 2250.4 1342.76 Q2245.63 1342.76 2242.72 1339.12 Q2239.8 1335.49 2239.8 1329.49 Q2239.8 1323.47 2242.72 1319.84 Q2245.63 1316.2 2250.4 1316.2 Q2253.27 1316.2 2255.33 1317.34 Q2257.39 1318.47 2258.71 1320.76 L2258.71 1316.83 L2262.97 1316.83 L2262.97 1339.54 Z" fill="#000000" fill-rule="nonzero" fill-opacity="1" /></svg>
