<?xml version="1.0" encoding="utf-8"?>
<svg xmlns="http://www.w3.org/2000/svg" xmlns:xlink="http://www.w3.org/1999/xlink" width="600" height="400" viewBox="0 0 2400 1600">
<defs>
  <clipPath id="clip710">
    <rect x="0" y="0" width="2400" height="1600"/>
  </clipPath>
</defs>
<path clip-path="url(#clip710)" d="M0 1600 L2400 1600 L2400 0 L0 0  Z" fill="#ffffff" fill-rule="evenodd" fill-opacity="1"/>
<defs>
  <clipPath id="clip711">
    <rect x="480" y="0" width="1681" height="1600"/>
  </clipPath>
</defs>
<path clip-path="url(#clip710)" d="M242.135 1423.18 L2352.76 1423.18 L2352.76 47.2441 L242.135 47.2441  Z" fill="#ffffff" fill-rule="evenodd" fill-opacity="1"/>
<defs>
  <clipPath id="clip712">
    <rect x="242" y="47" width="2112" height="1377"/>
  </clipPath>
</defs>
<polyline clip-path="url(#clip712)" style="stroke:#000000; stroke-linecap:round; stroke-linejoin:round; stroke-width:2; stroke-opacity:0.1; fill:none" points="301.205,1423.18 301.205,47.2441 "/>
<polyline clip-path="url(#clip712)" style="stroke:#000000; stroke-linecap:round; stroke-linejoin:round; stroke-width:2; stroke-opacity:0.1; fill:none" points="965.144,1423.18 965.144,47.2441 "/>
<polyline clip-path="url(#clip712)" style="stroke:#000000; stroke-linecap:round; stroke-linejoin:round; stroke-width:2; stroke-opacity:0.1; fill:none" points="1629.08,1423.18 1629.08,47.2441 "/>
<polyline clip-path="url(#clip712)" style="stroke:#000000; stroke-linecap:round; stroke-linejoin:round; stroke-width:2; stroke-opacity:0.1; fill:none" points="2293.02,1423.18 2293.02,47.2441 "/>
<polyline clip-path="url(#clip712)" style="stroke:#000000; stroke-linecap:round; stroke-linejoin:round; stroke-width:2; stroke-opacity:0.1; fill:none" points="242.135,1423.18 2352.76,1423.18 "/>
<polyline clip-path="url(#clip712)" style="stroke:#000000; stroke-linecap:round; stroke-linejoin:round; stroke-width:2; stroke-opacity:0.1; fill:none" points="242.135,1048.44 2352.76,1048.44 "/>
<polyline clip-path="url(#clip712)" style="stroke:#000000; stroke-linecap:round; stroke-linejoin:round; stroke-width:2; stroke-opacity:0.1; fill:none" points="242.135,673.7 2352.76,673.7 "/>
<polyline clip-path="url(#clip712)" style="stroke:#000000; stroke-linecap:round; stroke-linejoin:round; stroke-width:2; stroke-opacity:0.1; fill:none" points="242.135,298.96 2352.76,298.96 "/>
<polyline clip-path="url(#clip710)" style="stroke:#000000; stroke-linecap:round; stroke-linejoin:round; stroke-width:4; stroke-opacity:1; fill:none" points="242.135,1423.18 2352.76,1423.18 "/>
<polyline clip-path="url(#clip710)" style="stroke:#000000; stroke-linecap:round; stroke-linejoin:round; stroke-width:4; stroke-opacity:1; fill:none" points="301.205,1423.18 301.205,1404.28 "/>
<polyline clip-path="url(#clip710)" style="stroke:#000000; stroke-linecap:round; stroke-linejoin:round; stroke-width:4; stroke-opacity:1; fill:none" points="965.144,1423.18 965.144,1404.28 "/>
<polyline clip-path="url(#clip710)" style="stroke:#000000; stroke-linecap:round; stroke-linejoin:round; stroke-width:4; stroke-opacity:1; fill:none" points="1629.08,1423.18 1629.08,1404.28 "/>
<polyline clip-path="url(#clip710)" style="stroke:#000000; stroke-linecap:round; stroke-linejoin:round; stroke-width:4; stroke-opacity:1; fill:none" points="2293.02,1423.18 2293.02,1404.28 "/>
<path clip-path="url(#clip710)" d="M301.205 1454.1 Q297.594 1454.1 295.766 1457.66 Q293.96 1461.2 293.96 1468.33 Q293.96 1475.44 295.766 1479.01 Q297.594 1482.55 301.205 1482.55 Q304.84 1482.55 306.645 1479.01 Q308.474 1475.44 308.474 1468.33 Q308.474 1461.2 306.645 1457.66 Q304.84 1454.1 301.205 1454.1 M301.205 1450.39 Q307.015 1450.39 310.071 1455 Q313.15 1459.58 313.15 1468.33 Q313.15 1477.06 310.071 1481.67 Q307.015 1486.25 301.205 1486.25 Q295.395 1486.25 292.316 1481.67 Q289.261 1477.06 289.261 1468.33 Q289.261 1459.58 292.316 1455 Q295.395 1450.39 301.205 1450.39 Z" fill="#000000" fill-rule="nonzero" fill-opacity="1" /><path clip-path="url(#clip710)" d="M909.67 1481.64 L917.309 1481.64 L917.309 1455.28 L908.998 1456.95 L908.998 1452.69 L917.262 1451.02 L921.938 1451.02 L921.938 1481.64 L929.577 1481.64 L929.577 1485.58 L909.67 1485.58 L909.67 1481.64 Z" fill="#000000" fill-rule="nonzero" fill-opacity="1" /><path clip-path="url(#clip710)" d="M949.021 1454.1 Q945.41 1454.1 943.582 1457.66 Q941.776 1461.2 941.776 1468.33 Q941.776 1475.44 943.582 1479.01 Q945.41 1482.55 949.021 1482.55 Q952.656 1482.55 954.461 1479.01 Q956.29 1475.44 956.29 1468.33 Q956.29 1461.2 954.461 1457.66 Q952.656 1454.1 949.021 1454.1 M949.021 1450.39 Q954.832 1450.39 957.887 1455 Q960.966 1459.58 960.966 1468.33 Q960.966 1477.06 957.887 1481.67 Q954.832 1486.25 949.021 1486.25 Q943.211 1486.25 940.133 1481.67 Q937.077 1477.06 937.077 1468.33 Q937.077 1459.58 940.133 1455 Q943.211 1450.39 949.021 1450.39 Z" fill="#000000" fill-rule="nonzero" fill-opacity="1" /><path clip-path="url(#clip710)" d="M979.183 1454.1 Q975.572 1454.1 973.743 1457.66 Q971.938 1461.2 971.938 1468.33 Q971.938 1475.44 973.743 1479.01 Q975.572 1482.55 979.183 1482.55 Q982.817 1482.55 984.623 1479.01 Q986.452 1475.44 986.452 1468.33 Q986.452 1461.2 984.623 1457.66 Q982.817 1454.1 979.183 1454.1 M979.183 1450.39 Q984.993 1450.39 988.049 1455 Q991.128 1459.58 991.128 1468.33 Q991.128 1477.06 988.049 1481.67 Q984.993 1486.25 979.183 1486.25 Q973.373 1486.25 970.294 1481.67 Q967.239 1477.06 967.239 1468.33 Q967.239 1459.58 970.294 1455 Q973.373 1450.39 979.183 1450.39 Z" fill="#000000" fill-rule="nonzero" fill-opacity="1" /><path clip-path="url(#clip710)" d="M1009.35 1454.1 Q1005.73 1454.1 1003.91 1457.66 Q1002.1 1461.2 1002.1 1468.33 Q1002.1 1475.44 1003.91 1479.01 Q1005.73 1482.55 1009.35 1482.55 Q1012.98 1482.55 1014.78 1479.01 Q1016.61 1475.44 1016.61 1468.33 Q1016.61 1461.2 1014.78 1457.66 Q1012.98 1454.1 1009.35 1454.1 M1009.35 1450.39 Q1015.16 1450.39 1018.21 1455 Q1021.29 1459.58 1021.29 1468.33 Q1021.29 1477.06 1018.21 1481.67 Q1015.16 1486.25 1009.35 1486.25 Q1003.53 1486.25 1000.46 1481.67 Q997.401 1477.06 997.401 1468.33 Q997.401 1459.58 1000.46 1455 Q1003.53 1450.39 1009.35 1450.39 Z" fill="#000000" fill-rule="nonzero" fill-opacity="1" /><path clip-path="url(#clip710)" d="M1577.69 1481.64 L1594.01 1481.64 L1594.01 1485.58 L1572.07 1485.58 L1572.07 1481.64 Q1574.73 1478.89 1579.31 1474.26 Q1583.92 1469.61 1585.1 1468.27 Q1587.35 1465.74 1588.23 1464.01 Q1589.13 1462.25 1589.13 1460.56 Q1589.13 1457.8 1587.18 1456.07 Q1585.26 1454.33 1582.16 1454.33 Q1579.96 1454.33 1577.51 1455.09 Q1575.08 1455.86 1572.3 1457.41 L1572.3 1452.69 Q1575.12 1451.55 1577.58 1450.97 Q1580.03 1450.39 1582.07 1450.39 Q1587.44 1450.39 1590.63 1453.08 Q1593.83 1455.77 1593.83 1460.26 Q1593.83 1462.39 1593.02 1464.31 Q1592.23 1466.2 1590.12 1468.8 Q1589.55 1469.47 1586.44 1472.69 Q1583.34 1475.88 1577.69 1481.64 Z" fill="#000000" fill-rule="nonzero" fill-opacity="1" /><path clip-path="url(#clip710)" d="M1613.83 1454.1 Q1610.22 1454.1 1608.39 1457.66 Q1606.58 1461.2 1606.58 1468.33 Q1606.58 1475.44 1608.39 1479.01 Q1610.22 1482.55 1613.83 1482.55 Q1617.46 1482.55 1619.27 1479.01 Q1621.1 1475.44 1621.1 1468.33 Q1621.1 1461.2 1619.27 1457.66 Q1617.46 1454.1 1613.83 1454.1 M1613.83 1450.39 Q1619.64 1450.39 1622.69 1455 Q1625.77 1459.58 1625.77 1468.33 Q1625.77 1477.06 1622.69 1481.67 Q1619.64 1486.25 1613.83 1486.25 Q1608.02 1486.25 1604.94 1481.67 Q1601.88 1477.06 1601.88 1468.33 Q1601.88 1459.58 1604.94 1455 Q1608.02 1450.39 1613.83 1450.39 Z" fill="#000000" fill-rule="nonzero" fill-opacity="1" /><path clip-path="url(#clip710)" d="M1643.99 1454.1 Q1640.38 1454.1 1638.55 1457.66 Q1636.74 1461.2 1636.74 1468.33 Q1636.74 1475.44 1638.55 1479.01 Q1640.38 1482.55 1643.99 1482.55 Q1647.62 1482.55 1649.43 1479.01 Q1651.26 1475.44 1651.26 1468.33 Q1651.26 1461.2 1649.43 1457.66 Q1647.62 1454.1 1643.99 1454.1 M1643.99 1450.39 Q1649.8 1450.39 1652.86 1455 Q1655.93 1459.58 1655.93 1468.33 Q1655.93 1477.06 1652.86 1481.67 Q1649.8 1486.25 1643.99 1486.25 Q1638.18 1486.25 1635.1 1481.67 Q1632.05 1477.06 1632.05 1468.33 Q1632.05 1459.58 1635.1 1455 Q1638.18 1450.39 1643.99 1450.39 Z" fill="#000000" fill-rule="nonzero" fill-opacity="1" /><path clip-path="url(#clip710)" d="M1674.15 1454.1 Q1670.54 1454.1 1668.71 1457.66 Q1666.91 1461.2 1666.91 1468.33 Q1666.91 1475.44 1668.71 1479.01 Q1670.54 1482.55 1674.15 1482.55 Q1677.79 1482.55 1679.59 1479.01 Q1681.42 1475.44 1681.42 1468.33 Q1681.42 1461.2 1679.59 1457.66 Q1677.79 1454.1 1674.15 1454.1 M1674.15 1450.39 Q1679.96 1450.39 1683.02 1455 Q1686.1 1459.58 1686.1 1468.33 Q1686.1 1477.06 1683.02 1481.67 Q1679.96 1486.25 1674.15 1486.25 Q1668.34 1486.25 1665.26 1481.67 Q1662.21 1477.06 1662.21 1468.33 Q1662.21 1459.58 1665.26 1455 Q1668.34 1450.39 1674.15 1450.39 Z" fill="#000000" fill-rule="nonzero" fill-opacity="1" /><path clip-path="url(#clip710)" d="M2251.7 1466.95 Q2255.06 1467.66 2256.93 1469.93 Q2258.83 1472.2 2258.83 1475.53 Q2258.83 1480.65 2255.31 1483.45 Q2251.79 1486.25 2245.31 1486.25 Q2243.14 1486.25 2240.82 1485.81 Q2238.53 1485.39 2236.08 1484.54 L2236.08 1480.02 Q2238.02 1481.16 2240.34 1481.74 Q2242.65 1482.32 2245.17 1482.32 Q2249.57 1482.32 2251.86 1480.58 Q2254.18 1478.84 2254.18 1475.53 Q2254.18 1472.48 2252.03 1470.77 Q2249.9 1469.03 2246.08 1469.03 L2242.05 1469.03 L2242.05 1465.19 L2246.26 1465.19 Q2249.71 1465.19 2251.54 1463.82 Q2253.37 1462.43 2253.37 1459.84 Q2253.37 1457.18 2251.47 1455.77 Q2249.6 1454.33 2246.08 1454.33 Q2244.16 1454.33 2241.96 1454.75 Q2239.76 1455.16 2237.12 1456.04 L2237.12 1451.88 Q2239.78 1451.14 2242.1 1450.77 Q2244.43 1450.39 2246.49 1450.39 Q2251.82 1450.39 2254.92 1452.83 Q2258.02 1455.23 2258.02 1459.35 Q2258.02 1462.22 2256.38 1464.21 Q2254.73 1466.18 2251.7 1466.95 Z" fill="#000000" fill-rule="nonzero" fill-opacity="1" /><path clip-path="url(#clip710)" d="M2277.7 1454.1 Q2274.09 1454.1 2272.26 1457.66 Q2270.45 1461.2 2270.45 1468.33 Q2270.45 1475.44 2272.26 1479.01 Q2274.09 1482.55 2277.7 1482.55 Q2281.33 1482.55 2283.14 1479.01 Q2284.97 1475.44 2284.97 1468.33 Q2284.97 1461.2 2283.14 1457.66 Q2281.33 1454.1 2277.7 1454.1 M2277.7 1450.39 Q2283.51 1450.39 2286.56 1455 Q2289.64 1459.58 2289.64 1468.33 Q2289.64 1477.06 2286.56 1481.67 Q2283.51 1486.25 2277.7 1486.25 Q2271.89 1486.25 2268.81 1481.67 Q2265.75 1477.06 2265.75 1468.33 Q2265.75 1459.58 2268.81 1455 Q2271.89 1450.39 2277.7 1450.39 Z" fill="#000000" fill-rule="nonzero" fill-opacity="1" /><path clip-path="url(#clip710)" d="M2307.86 1454.1 Q2304.25 1454.1 2302.42 1457.66 Q2300.61 1461.2 2300.61 1468.33 Q2300.61 1475.44 2302.42 1479.01 Q2304.25 1482.55 2307.86 1482.55 Q2311.49 1482.55 2313.3 1479.01 Q2315.13 1475.44 2315.13 1468.33 Q2315.13 1461.2 2313.3 1457.66 Q2311.49 1454.1 2307.86 1454.1 M2307.86 1450.39 Q2313.67 1450.39 2316.72 1455 Q2319.8 1459.58 2319.8 1468.33 Q2319.8 1477.06 2316.72 1481.67 Q2313.67 1486.25 2307.86 1486.25 Q2302.05 1486.25 2298.97 1481.67 Q2295.91 1477.06 2295.91 1468.33 Q2295.91 1459.58 2298.97 1455 Q2302.05 1450.39 2307.86 1450.39 Z" fill="#000000" fill-rule="nonzero" fill-opacity="1" /><path clip-path="url(#clip710)" d="M2338.02 1454.1 Q2334.41 1454.1 2332.58 1457.66 Q2330.78 1461.2 2330.78 1468.33 Q2330.78 1475.44 2332.58 1479.01 Q2334.41 1482.55 2338.02 1482.55 Q2341.66 1482.55 2343.46 1479.01 Q2345.29 1475.44 2345.29 1468.33 Q2345.29 1461.2 2343.46 1457.66 Q2341.66 1454.1 2338.02 1454.1 M2338.02 1450.39 Q2343.83 1450.39 2346.89 1455 Q2349.97 1459.58 2349.97 1468.33 Q2349.97 1477.06 2346.89 1481.67 Q2343.83 1486.25 2338.02 1486.25 Q2332.21 1486.25 2329.13 1481.67 Q2326.08 1477.06 2326.08 1468.33 Q2326.08 1459.58 2329.13 1455 Q2332.21 1450.39 2338.02 1450.39 Z" fill="#000000" fill-rule="nonzero" fill-opacity="1" /><path clip-path="url(#clip710)" d="M1165.17 1520.52 L1171.6 1520.52 L1171.6 1568.04 L1165.17 1568.04 L1165.17 1520.52 Z" fill="#000000" fill-rule="nonzero" fill-opacity="1" /><path clip-path="url(#clip710)" d="M1189.93 1522.27 L1189.93 1532.4 L1201.99 1532.4 L1201.99 1536.95 L1189.93 1536.95 L1189.93 1556.3 Q1189.93 1560.66 1191.11 1561.9 Q1192.32 1563.14 1195.98 1563.14 L1201.99 1563.14 L1201.99 1568.04 L1195.98 1568.04 Q1189.2 1568.04 1186.62 1565.53 Q1184.04 1562.98 1184.04 1556.3 L1184.04 1536.95 L1179.74 1536.95 L1179.74 1532.4 L1184.04 1532.4 L1184.04 1522.27 L1189.93 1522.27 Z" fill="#000000" fill-rule="nonzero" fill-opacity="1" /><path clip-path="url(#clip710)" d="M1240.19 1548.76 L1240.19 1551.62 L1213.26 1551.62 Q1213.64 1557.67 1216.89 1560.85 Q1220.17 1564 1225.99 1564 Q1229.36 1564 1232.52 1563.17 Q1235.7 1562.35 1238.82 1560.69 L1238.82 1566.23 Q1235.67 1567.57 1232.36 1568.27 Q1229.05 1568.97 1225.64 1568.97 Q1217.11 1568.97 1212.11 1564 Q1207.15 1559.04 1207.15 1550.57 Q1207.15 1541.82 1211.86 1536.69 Q1216.6 1531.54 1224.62 1531.54 Q1231.81 1531.54 1235.98 1536.18 Q1240.19 1540.8 1240.19 1548.76 M1234.33 1547.04 Q1234.27 1542.23 1231.62 1539.37 Q1229.01 1536.5 1224.69 1536.5 Q1219.78 1536.5 1216.82 1539.27 Q1213.9 1542.04 1213.45 1547.07 L1234.33 1547.04 Z" fill="#000000" fill-rule="nonzero" fill-opacity="1" /><path clip-path="url(#clip710)" d="M1270.45 1537.87 Q1269.47 1537.3 1268.29 1537.04 Q1267.14 1536.76 1265.74 1536.76 Q1260.78 1536.76 1258.11 1540 Q1255.46 1543.22 1255.46 1549.27 L1255.46 1568.04 L1249.58 1568.04 L1249.58 1532.4 L1255.46 1532.4 L1255.46 1537.93 Q1257.31 1534.69 1260.27 1533.13 Q1263.23 1531.54 1267.46 1531.54 Q1268.07 1531.54 1268.8 1531.63 Q1269.53 1531.7 1270.42 1531.85 L1270.45 1537.87 Z" fill="#000000" fill-rule="nonzero" fill-opacity="1" /><path clip-path="url(#clip710)" d="M1292.8 1550.12 Q1285.7 1550.12 1282.96 1551.75 Q1280.23 1553.37 1280.23 1557.29 Q1280.23 1560.4 1282.26 1562.25 Q1284.33 1564.07 1287.86 1564.07 Q1292.73 1564.07 1295.66 1560.63 Q1298.62 1557.16 1298.62 1551.43 L1298.62 1550.12 L1292.8 1550.12 M1304.48 1547.71 L1304.48 1568.04 L1298.62 1568.04 L1298.62 1562.63 Q1296.62 1565.88 1293.63 1567.44 Q1290.63 1568.97 1286.31 1568.97 Q1280.83 1568.97 1277.58 1565.91 Q1274.37 1562.82 1274.37 1557.67 Q1274.37 1551.65 1278.38 1548.6 Q1282.42 1545.54 1290.41 1545.54 L1298.62 1545.54 L1298.62 1544.97 Q1298.62 1540.93 1295.95 1538.73 Q1293.31 1536.5 1288.5 1536.5 Q1285.45 1536.5 1282.55 1537.23 Q1279.65 1537.97 1276.98 1539.43 L1276.98 1534.02 Q1280.19 1532.78 1283.22 1532.17 Q1286.24 1531.54 1289.11 1531.54 Q1296.84 1531.54 1300.66 1535.55 Q1304.48 1539.56 1304.48 1547.71 Z" fill="#000000" fill-rule="nonzero" fill-opacity="1" /><path clip-path="url(#clip710)" d="M1322.34 1522.27 L1322.34 1532.4 L1334.4 1532.4 L1334.4 1536.95 L1322.34 1536.95 L1322.34 1556.3 Q1322.34 1560.66 1323.51 1561.9 Q1324.72 1563.14 1328.38 1563.14 L1334.4 1563.14 L1334.4 1568.04 L1328.38 1568.04 Q1321.6 1568.04 1319.03 1565.53 Q1316.45 1562.98 1316.45 1556.3 L1316.45 1536.95 L1312.15 1536.95 L1312.15 1532.4 L1316.45 1532.4 L1316.45 1522.27 L1322.34 1522.27 Z" fill="#000000" fill-rule="nonzero" fill-opacity="1" /><path clip-path="url(#clip710)" d="M1342.1 1532.4 L1347.96 1532.4 L1347.96 1568.04 L1342.1 1568.04 L1342.1 1532.4 M1342.1 1518.52 L1347.96 1518.52 L1347.96 1525.93 L1342.1 1525.93 L1342.1 1518.52 Z" fill="#000000" fill-rule="nonzero" fill-opacity="1" /><path clip-path="url(#clip710)" d="M1374.02 1536.5 Q1369.31 1536.5 1366.58 1540.19 Q1363.84 1543.85 1363.84 1550.25 Q1363.84 1556.65 1366.55 1560.34 Q1369.28 1564 1374.02 1564 Q1378.7 1564 1381.44 1560.31 Q1384.18 1556.62 1384.18 1550.25 Q1384.18 1543.92 1381.44 1540.23 Q1378.7 1536.5 1374.02 1536.5 M1374.02 1531.54 Q1381.66 1531.54 1386.02 1536.5 Q1390.38 1541.47 1390.38 1550.25 Q1390.38 1559 1386.02 1564 Q1381.66 1568.97 1374.02 1568.97 Q1366.35 1568.97 1361.99 1564 Q1357.66 1559 1357.66 1550.25 Q1357.66 1541.47 1361.99 1536.5 Q1366.35 1531.54 1374.02 1531.54 Z" fill="#000000" fill-rule="nonzero" fill-opacity="1" /><path clip-path="url(#clip710)" d="M1429.72 1546.53 L1429.72 1568.04 L1423.87 1568.04 L1423.87 1546.72 Q1423.87 1541.66 1421.89 1539.14 Q1419.92 1536.63 1415.97 1536.63 Q1411.23 1536.63 1408.5 1539.65 Q1405.76 1542.68 1405.76 1547.9 L1405.76 1568.04 L1399.87 1568.04 L1399.87 1532.4 L1405.76 1532.4 L1405.76 1537.93 Q1407.86 1534.72 1410.69 1533.13 Q1413.56 1531.54 1417.28 1531.54 Q1423.42 1531.54 1426.57 1535.36 Q1429.72 1539.14 1429.72 1546.53 Z" fill="#000000" fill-rule="nonzero" fill-opacity="1" /><polyline clip-path="url(#clip710)" style="stroke:#000000; stroke-linecap:round; stroke-linejoin:round; stroke-width:4; stroke-opacity:1; fill:none" points="242.135,1423.18 242.135,47.2441 "/>
<polyline clip-path="url(#clip710)" style="stroke:#000000; stroke-linecap:round; stroke-linejoin:round; stroke-width:4; stroke-opacity:1; fill:none" points="242.135,1423.18 261.032,1423.18 "/>
<polyline clip-path="url(#clip710)" style="stroke:#000000; stroke-linecap:round; stroke-linejoin:round; stroke-width:4; stroke-opacity:1; fill:none" points="242.135,1048.44 261.032,1048.44 "/>
<polyline clip-path="url(#clip710)" style="stroke:#000000; stroke-linecap:round; stroke-linejoin:round; stroke-width:4; stroke-opacity:1; fill:none" points="242.135,673.7 261.032,673.7 "/>
<polyline clip-path="url(#clip710)" style="stroke:#000000; stroke-linecap:round; stroke-linejoin:round; stroke-width:4; stroke-opacity:1; fill:none" points="242.135,298.96 261.032,298.96 "/>
<path clip-path="url(#clip710)" d="M114.26 1423.63 L143.936 1423.63 L143.936 1427.57 L114.26 1427.57 L114.26 1423.63 Z" fill="#000000" fill-rule="nonzero" fill-opacity="1" /><path clip-path="url(#clip710)" d="M154.839 1436.52 L162.477 1436.52 L162.477 1410.16 L154.167 1411.83 L154.167 1407.57 L162.431 1405.9 L167.107 1405.9 L167.107 1436.52 L174.746 1436.52 L174.746 1440.46 L154.839 1440.46 L154.839 1436.52 Z" fill="#000000" fill-rule="nonzero" fill-opacity="1" /><path clip-path="url(#clip710)" d="M194.19 1408.98 Q190.579 1408.98 188.75 1412.54 Q186.945 1416.08 186.945 1423.21 Q186.945 1430.32 188.75 1433.89 Q190.579 1437.43 194.19 1437.43 Q197.825 1437.43 199.63 1433.89 Q201.459 1430.32 201.459 1423.21 Q201.459 1416.08 199.63 1412.54 Q197.825 1408.98 194.19 1408.98 M194.19 1405.27 Q200 1405.27 203.056 1409.88 Q206.135 1414.46 206.135 1423.21 Q206.135 1431.94 203.056 1436.55 Q200 1441.13 194.19 1441.13 Q188.38 1441.13 185.301 1436.55 Q182.246 1431.94 182.246 1423.21 Q182.246 1414.46 185.301 1409.88 Q188.38 1405.27 194.19 1405.27 Z" fill="#000000" fill-rule="nonzero" fill-opacity="1" /><path clip-path="url(#clip710)" d="M144.515 1048.89 L174.19 1048.89 L174.19 1052.83 L144.515 1052.83 L144.515 1048.89 Z" fill="#000000" fill-rule="nonzero" fill-opacity="1" /><path clip-path="url(#clip710)" d="M194.283 1049.31 Q190.95 1049.31 189.028 1051.09 Q187.13 1052.87 187.13 1056 Q187.13 1059.12 189.028 1060.9 Q190.95 1062.69 194.283 1062.69 Q197.616 1062.69 199.537 1060.9 Q201.459 1059.1 201.459 1056 Q201.459 1052.87 199.537 1051.09 Q197.639 1049.31 194.283 1049.31 M189.607 1047.32 Q186.598 1046.58 184.908 1044.52 Q183.241 1042.46 183.241 1039.49 Q183.241 1035.35 186.181 1032.94 Q189.144 1030.53 194.283 1030.53 Q199.445 1030.53 202.385 1032.94 Q205.324 1035.35 205.324 1039.49 Q205.324 1042.46 203.635 1044.52 Q201.968 1046.58 198.982 1047.32 Q202.362 1048.1 204.237 1050.4 Q206.135 1052.69 206.135 1056 Q206.135 1061.02 203.056 1063.71 Q200 1066.39 194.283 1066.39 Q188.565 1066.39 185.487 1063.71 Q182.431 1061.02 182.431 1056 Q182.431 1052.69 184.329 1050.4 Q186.227 1048.1 189.607 1047.32 M187.894 1039.93 Q187.894 1042.62 189.561 1044.12 Q191.25 1045.63 194.283 1045.63 Q197.292 1045.63 198.982 1044.12 Q200.695 1042.62 200.695 1039.93 Q200.695 1037.25 198.982 1035.74 Q197.292 1034.24 194.283 1034.24 Q191.25 1034.24 189.561 1035.74 Q187.894 1037.25 187.894 1039.93 Z" fill="#000000" fill-rule="nonzero" fill-opacity="1" /><path clip-path="url(#clip710)" d="M144.26 674.151 L173.936 674.151 L173.936 678.086 L144.26 678.086 L144.26 674.151 Z" fill="#000000" fill-rule="nonzero" fill-opacity="1" /><path clip-path="url(#clip710)" d="M194.607 671.836 Q191.459 671.836 189.607 673.989 Q187.778 676.142 187.778 679.892 Q187.778 683.619 189.607 685.795 Q191.459 687.947 194.607 687.947 Q197.755 687.947 199.584 685.795 Q201.436 683.619 201.436 679.892 Q201.436 676.142 199.584 673.989 Q197.755 671.836 194.607 671.836 M203.889 657.184 L203.889 661.443 Q202.13 660.609 200.325 660.17 Q198.542 659.73 196.783 659.73 Q192.153 659.73 189.7 662.855 Q187.269 665.98 186.922 672.299 Q188.288 670.285 190.348 669.221 Q192.408 668.133 194.885 668.133 Q200.093 668.133 203.102 671.304 Q206.135 674.452 206.135 679.892 Q206.135 685.216 202.987 688.433 Q199.838 691.651 194.607 691.651 Q188.612 691.651 185.44 687.068 Q182.269 682.461 182.269 673.734 Q182.269 665.54 186.158 660.679 Q190.047 655.795 196.598 655.795 Q198.357 655.795 200.139 656.142 Q201.945 656.489 203.889 657.184 Z" fill="#000000" fill-rule="nonzero" fill-opacity="1" /><path clip-path="url(#clip710)" d="M143.936 299.411 L173.612 299.411 L173.612 303.346 L143.936 303.346 L143.936 299.411 Z" fill="#000000" fill-rule="nonzero" fill-opacity="1" /><path clip-path="url(#clip710)" d="M196.551 285.754 L184.746 304.203 L196.551 304.203 L196.551 285.754 M195.325 281.68 L201.204 281.68 L201.204 304.203 L206.135 304.203 L206.135 308.091 L201.204 308.091 L201.204 316.24 L196.551 316.24 L196.551 308.091 L180.95 308.091 L180.95 303.578 L195.325 281.68 Z" fill="#000000" fill-rule="nonzero" fill-opacity="1" /><path clip-path="url(#clip710)" d="M16.4842 816.375 L16.4842 786.329 L21.895 786.329 L21.895 809.945 L35.9632 809.945 L35.9632 787.315 L41.3741 787.315 L41.3741 809.945 L58.5933 809.945 L58.5933 785.756 L64.0042 785.756 L64.0042 816.375 L16.4842 816.375 Z" fill="#000000" fill-rule="nonzero" fill-opacity="1" /><path clip-path="url(#clip710)" d="M16.4842 775.189 L16.4842 768.759 L58.5933 768.759 L58.5933 745.62 L64.0042 745.62 L64.0042 775.189 L16.4842 775.189 Z" fill="#000000" fill-rule="nonzero" fill-opacity="1" /><path clip-path="url(#clip710)" d="M41.3104 732.443 L58.7206 732.443 L58.7206 722.13 Q58.7206 716.942 56.5881 714.46 Q54.4238 711.945 49.9996 711.945 Q45.5436 711.945 43.4429 714.46 Q41.3104 716.942 41.3104 722.13 L41.3104 732.443 M21.7677 732.443 L36.0905 732.443 L36.0905 722.926 Q36.0905 718.216 34.34 715.924 Q32.5576 713.6 28.9291 713.6 Q25.3325 713.6 23.5501 715.924 Q21.7677 718.216 21.7677 722.926 L21.7677 732.443 M16.4842 738.872 L16.4842 722.449 Q16.4842 715.096 19.5397 711.118 Q22.5952 707.139 28.2289 707.139 Q32.5894 707.139 35.1675 709.176 Q37.7456 711.213 38.3822 715.16 Q39.4007 710.418 42.6472 707.808 Q45.8619 705.166 50.6998 705.166 Q57.0655 705.166 60.5348 709.495 Q64.0042 713.823 64.0042 721.812 L64.0042 738.872 L16.4842 738.872 Z" fill="#000000" fill-rule="nonzero" fill-opacity="1" /><path clip-path="url(#clip710)" d="M20.8447 676.011 Q20.8447 683.013 26.0645 687.151 Q31.2844 691.257 40.2919 691.257 Q49.2675 691.257 54.4874 687.151 Q59.7073 683.013 59.7073 676.011 Q59.7073 669.009 54.4874 664.935 Q49.2675 660.829 40.2919 660.829 Q31.2844 660.829 26.0645 664.935 Q20.8447 669.009 20.8447 676.011 M15.6248 676.011 Q15.6248 666.017 22.3406 660.033 Q29.0246 654.049 40.2919 654.049 Q51.5274 654.049 58.2432 660.033 Q64.9272 666.017 64.9272 676.011 Q64.9272 686.037 58.2432 692.052 Q51.5592 698.036 40.2919 698.036 Q29.0246 698.036 22.3406 692.052 Q15.6248 686.037 15.6248 676.011 Z" fill="#000000" fill-rule="nonzero" fill-opacity="1" /><polyline clip-path="url(#clip712)" style="stroke:#009af9; stroke-linecap:round; stroke-linejoin:round; stroke-width:4; stroke-opacity:1; fill:none" points="301.869,1528.3 302.533,756.07 303.197,1871.87 303.861,874.161 304.525,1206.14 305.189,1428.76 305.853,1750.58 306.517,1156.08 307.181,671.749 307.845,1046.61 308.509,1358.86 309.173,1185.27 309.836,1223.23 310.5,906.843 311.164,1693.27 311.828,1571.72 312.492,1228.69 313.156,958.683 313.82,927.226 314.484,819.037 315.148,842.662 315.812,687.311 316.476,1084.09 317.14,2273.15 317.804,916.002 318.468,792.215 319.132,1124.83 319.796,361.331 320.46,887.169 321.123,631.041 321.787,644.553 322.451,459.787 323.115,595.982 323.779,461.016 324.443,500.949 325.107,678.959 325.771,461.155 326.435,660.697 327.099,479.18 327.763,622.725 328.427,235.156 329.091,421.523 329.755,882.303 330.419,710.056 331.083,751.756 331.746,621.29 332.41,1079.68 333.074,1045.61 333.738,827.33 334.402,905.124 335.066,667.782 335.73,654.336 336.394,624.462 337.058,451.905 337.722,403.737 338.386,462.069 339.05,380.148 339.714,331.211 340.378,296.355 341.042,306.522 341.706,197.217 342.369,334.527 343.033,317.521 343.697,276.237 344.361,242.849 345.025,285.816 345.689,304.724 346.353,168.459 347.017,421.302 347.681,275.721 348.345,311.097 349.009,232.265 349.673,274.35 350.337,163.513 351.001,189.705 351.665,263.41 352.329,228.623 352.993,326.62 353.656,176.9 354.32,239.314 354.984,219.57 355.648,248.274 356.312,211.714 356.976,219.566 357.64,245.938 358.304,224.798 358.968,231.039 359.632,174.133 360.296,447.745 360.96,506.392 361.624,249.339 362.288,234.278 362.952,226.603 363.616,234.65 364.279,253.16 364.943,407.012 365.607,231.583 366.271,152.255 366.935,215.146 367.599,175.588 368.263,218.304 368.927,160.742 369.591,184.401 370.255,191.418 370.919,333.926 371.583,296.316 372.247,224.276 372.911,157.949 373.575,201.577 374.239,233.194 374.902,243.978 375.566,378.488 376.23,178.088 376.894,184 377.558,183.809 378.222,152.009 378.886,226.691 379.55,216.648 380.214,161.615 380.878,172.536 381.542,166.128 382.206,344.265 382.87,133.383 383.534,204.111 384.198,218.116 384.862,195.874 385.526,159.079 386.189,178.269 386.853,140.249 387.517,302.152 388.181,272.493 388.845,156.78 389.509,170.468 390.173,175.894 390.837,154.687 391.501,189.048 392.165,157.388 392.829,182.476 393.493,210.591 394.157,165.819 394.821,126.738 395.485,171.24 396.149,197.625 396.812,273.26 397.476,156.033 398.14,195.403 398.804,167.115 399.468,247.699 400.132,329.368 400.796,207.683 401.46,138.445 402.124,387.377 402.788,428.913 403.452,170.48 404.116,166.483 404.78,132.533 405.444,128.881 406.108,214.113 406.772,166.655 407.435,270.444 408.099,187.318 408.763,160.776 409.427,194.46 410.091,204.551 410.755,162.313 411.419,164.831 412.083,164.388 412.747,161.2 413.411,163.109 414.075,121.949 414.739,70.4073 415.403,192.224 416.067,139.469 416.731,193.945 417.395,209.068 418.058,147.567 418.722,204.865 419.386,253.582 420.05,149.635 420.714,167.365 421.378,168.129 422.042,148.293 422.706,101.837 423.37,204.872 424.034,192.527 424.698,249.857 425.362,173.498 426.026,259.437 426.69,219.496 427.354,152.071 428.018,201.817 428.682,166.38 429.345,189.771 430.009,153.616 430.673,181.841 431.337,144.059 432.001,159.108 432.665,180.335 433.329,174.102 433.993,136.648 434.657,128.712 435.321,220.39 435.985,167.643 436.649,170.815 437.313,144.909 437.977,142.028 438.641,164.275 439.305,154.938 439.968,173.597 440.632,205.524 441.296,226.914 441.96,229.572 442.624,201.415 443.288,156.725 443.952,191.521 444.616,141.083 445.28,164.097 445.944,172.67 446.608,141.981 447.272,181.809 447.936,210.508 448.6,235.062 449.264,196.696 449.928,202.361 450.591,160.151 451.255,195.552 451.919,154.188 452.583,178.694 453.247,150.704 453.911,205.294 454.575,141.849 455.239,161.346 455.903,170.2 456.567,193.664 457.231,152.981 457.895,165.36 458.559,166.472 459.223,172.825 459.887,175.669 460.551,153.679 461.215,143.09 461.878,217.972 462.542,198.44 463.206,216.819 463.87,170.855 464.534,169.752 465.198,162.381 465.862,166.211 466.526,159.944 467.19,398.209 467.854,222.984 468.518,220.72 469.182,197.965 469.846,211.66 470.51,190.356 471.174,133.24 471.838,197.592 472.501,191.854 473.165,147.816 473.829,137.992 474.493,169.671 475.157,152.968 475.821,160.318 476.485,151.347 477.149,189.198 477.813,181.057 478.477,164.016 479.141,147.285 479.805,202.847 480.469,171.558 481.133,161.506 481.797,145.66 482.461,128.782 483.124,169.744 483.788,147.116 484.452,216.258 485.116,149.862 485.78,200.003 486.444,466.026 487.108,353.754 487.772,281.187 488.436,273.265 489.1,247.068 489.764,239.032 490.428,204.618 491.092,181.675 491.756,207.247 492.42,177.322 493.084,216.577 493.748,231.736 494.411,156.474 495.075,241.976 495.739,266.506 496.403,221.927 497.067,158.914 497.731,171.633 498.395,160.589 499.059,179.725 499.723,183.193 500.387,78.1358 501.051,266.723 501.715,158.724 502.379,160.413 503.043,192.088 503.707,151.202 504.371,177.216 505.034,242.925 505.698,233.496 506.362,166.08 507.026,174.248 507.69,171.362 508.354,163.289 509.018,203.404 509.682,166.983 510.346,146.761 511.01,182.233 511.674,156.647 512.338,231.738 513.002,174.074 513.666,150.492 514.33,201.453 514.994,321.221 515.657,213.273 516.321,169.125 516.985,181.6 517.649,195.163 518.313,212.721 518.977,208.988 519.641,157.092 520.305,188.302 520.969,152.491 521.633,196.311 522.297,207.796 522.961,187.729 523.625,198.349 524.289,187.083 524.953,162.152 525.617,194.823 526.281,150.012 526.944,192.417 527.608,197.726 528.272,166.718 528.936,199.6 529.6,174.969 530.264,172.358 530.928,130.955 531.592,168.564 532.256,157.976 532.92,138.88 533.584,59.8893 534.248,206.445 534.912,648.977 535.576,306.587 536.24,278.946 536.904,155.942 537.567,277.161 538.231,174.265 538.895,224.156 539.559,81.8694 540.223,251.793 540.887,236.349 541.551,233.145 542.215,200.456 542.879,218.057 543.543,186.667 544.207,160.715 544.871,191.778 545.535,200.867 546.199,143.725 546.863,252.26 547.527,203.895 548.19,200.97 548.854,195.971 549.518,153.73 550.182,199.626 550.846,178.925 551.51,223.019 552.174,192.447 552.838,173.905 553.502,173.36 554.166,159.512 554.83,238.103 555.494,173.139 556.158,185.58 556.822,192.769 557.486,167.694 558.15,196.997 558.813,172.599 559.477,201.659 560.141,129.724 560.805,206.518 561.469,189.923 562.133,246.066 562.797,200.138 563.461,163.904 564.125,160.802 564.789,260.199 565.453,165.033 566.117,145.822 566.781,171.59 567.445,157.857 568.109,196.166 568.773,141.832 569.437,182.071 570.1,185.148 570.764,179.654 571.428,168.229 572.092,186.564 572.756,118.229 573.42,199.762 574.084,197.553 574.748,176.973 575.412,145.472 576.076,156.514 576.74,156.261 577.404,142.04 578.068,221.885 578.732,161.432 579.396,154.128 580.06,147.366 580.723,188.446 581.387,174.516 582.051,166.689 582.715,192.381 583.379,167.425 584.043,198.34 584.707,148.036 585.371,138.379 586.035,172.239 586.699,140.077 587.363,179.323 588.027,149.86 588.691,200.583 589.355,137.281 590.019,157.471 590.683,173.485 591.346,137.685 592.01,266.013 592.674,130.143 593.338,172.2 594.002,214.035 594.666,178.428 595.33,168.647 595.994,154.178 596.658,163.913 597.322,176.101 597.986,213.742 598.65,161.93 599.314,145.387 599.978,193.779 600.642,184.364 601.306,182.444 601.97,188.921 602.633,258.081 603.297,170.19 603.961,158.903 604.625,217.26 605.289,182.679 605.953,163.054 606.617,180.386 607.281,170.473 607.945,166.144 608.609,149.314 609.273,162.847 609.937,164.891 610.601,195.644 611.265,169.42 611.929,196.534 612.593,178.691 613.256,180.841 613.92,190.542 614.584,179.687 615.248,182.751 615.912,176.703 616.576,178.552 617.24,220.177 617.904,155.673 618.568,177.377 619.232,182.476 619.896,190.935 620.56,145.061 621.224,154.453 621.888,154.345 622.552,157.199 623.216,114.056 623.879,153.791 624.543,239.864 625.207,123.445 625.871,169.397 626.535,148.107 627.199,241.772 627.863,150.252 628.527,159.013 629.191,169.921 629.855,110.692 630.519,255.562 631.183,143.5 631.847,220.092 632.511,165.477 633.175,145.687 633.839,172.539 634.503,155.78 635.166,136.101 635.83,169.632 636.494,221.112 637.158,186.043 637.822,215.057 638.486,202.265 639.15,156.014 639.814,179.888 640.478,191.241 641.142,177.218 641.806,142.502 642.47,205.63 643.134,156.25 643.798,108.875 644.462,164.143 645.126,239.574 645.789,108.377 646.453,141.576 647.117,156.389 647.781,183.881 648.445,175.226 649.109,141.083 649.773,186.048 650.437,180.485 651.101,154.881 651.765,152.517 652.429,138.112 653.093,165.989 653.757,165.124 654.421,204.074 655.085,147.137 655.749,190.267 656.412,158.511 657.076,151.519 657.74,184.678 658.404,153.089 659.068,153.712 659.732,177.367 660.396,137.383 661.06,173.248 661.724,189.41 662.388,226.551 663.052,203.09 663.716,155.005 664.38,155.5 665.044,204.542 665.708,221.402 666.372,169.19 667.036,153.825 667.699,144.409 668.363,162.069 669.027,164.272 669.691,171.445 670.355,132.613 671.019,185.663 671.683,145.22 672.347,180.828 673.011,167.253 673.675,185.768 674.339,176.339 675.003,167.702 675.667,148.525 676.331,143.567 676.995,98.9715 677.659,117.921 678.322,178.784 678.986,163.254 679.65,191.549 680.314,171.524 680.978,139.142 681.642,151.08 682.306,148.43 682.97,125.95 683.634,123.005 684.298,149.179 684.962,151.796 685.626,172.992 686.29,148.177 686.954,192.86 687.618,141.608 688.282,160.258 688.945,158.652 689.609,158.786 690.273,147.037 690.937,182.047 691.601,159.286 692.265,151.784 692.929,263.217 693.593,170.57 694.257,194.299 694.921,150.766 695.585,136.969 696.249,152.51 696.913,147.849 697.577,156.155 698.241,193.977 698.905,209.684 699.569,180.644 700.232,158.441 700.896,163.723 701.56,182.731 702.224,190.994 702.888,156.554 703.552,154.578 704.216,148.039 704.88,125.541 705.544,138.131 706.208,186.734 706.872,155.995 707.536,175.452 708.2,188.003 708.864,170.073 709.528,123.921 710.192,158.632 710.855,167.764 711.519,168.481 712.183,153.608 712.847,155.163 713.511,142.933 714.175,188.097 714.839,136.829 715.503,165.118 716.167,217.044 716.831,123.065 717.495,138.541 718.159,149.748 718.823,161.403 719.487,160.082 720.151,93.2636 720.815,168.143 721.478,115.93 722.142,162.065 722.806,199.203 723.47,198.052 724.134,152.453 724.798,149.864 725.462,168.68 726.126,202.727 726.79,163.283 727.454,131.642 728.118,121.661 728.782,176.267 729.446,172.647 730.11,166.63 730.774,157.434 731.438,190.873 732.101,129.708 732.765,146.381 733.429,178.104 734.093,139.299 734.757,207.526 735.421,180.874 736.085,219.594 736.749,179.87 737.413,217.969 738.077,168.325 738.741,189.509 739.405,140.4 740.069,180.948 740.733,165.164 741.397,144.306 742.061,149.296 742.725,143.28 743.388,157.738 744.052,165.541 744.716,193.089 745.38,142.683 746.044,148.693 746.708,159.743 747.372,213.898 748.036,151.374 748.7,174.955 749.364,153.292 750.028,168.761 750.692,176.858 751.356,149.003 752.02,147.379 752.684,234.279 753.348,191.387 754.011,199.321 754.675,143.153 755.339,212.401 756.003,147.639 756.667,173.641 757.331,146.929 757.995,160.519 758.659,248.79 759.323,162.192 759.987,155.09 760.651,178.953 761.315,127.465 761.979,197.593 762.643,123.262 763.307,233.803 763.971,121.805 764.634,136.308 765.298,174.625 765.962,168.437 766.626,162.925 767.29,136.862 767.954,155.926 768.618,191.23 769.282,168.366 769.946,173.98 770.61,162.244 771.274,159.315 771.938,160.598 772.602,235.001 773.266,163.172 773.93,132.926 774.594,138.323 775.258,211.296 775.921,160.207 776.585,187.691 777.249,166.952 777.913,147.776 778.577,171.583 779.241,167.758 779.905,167.88 780.569,136.458 781.233,206.421 781.897,170.002 782.561,159.514 783.225,162.503 783.889,196.497 784.553,186.353 785.217,172.146 785.881,179.964 786.544,165.011 787.208,140.711 787.872,175.31 788.536,137.196 789.2,169.902 789.864,155.394 790.528,166.345 791.192,147.237 791.856,175.922 792.52,186.433 793.184,177.949 793.848,141.22 794.512,155.835 795.176,159.413 795.84,157.169 796.504,166.08 797.167,236.348 797.831,185.252 798.495,227.954 799.159,118.772 799.823,156.067 800.487,186.203 801.151,145.818 801.815,181.556 802.479,162.443 803.143,170.205 803.807,134.404 804.471,144.568 805.135,165.776 805.799,148.289 806.463,134.488 807.127,167.339 807.791,170.87 808.454,165.358 809.118,158.834 809.782,161.724 810.446,204.491 811.11,147.343 811.774,158.58 812.438,154.381 813.102,157.044 813.766,153.931 814.43,164.008 815.094,114.798 815.758,151.689 816.422,201.141 817.086,123.909 817.75,145.872 818.414,117.81 819.077,160.18 819.741,214.259 820.405,213.987 821.069,180.235 821.733,193.412 822.397,204.061 823.061,155.06 823.725,153.978 824.389,165.062 825.053,129.645 825.717,160.729 826.381,203.419 827.045,188.434 827.709,167.73 828.373,183.346 829.037,157.062 829.7,143.461 830.364,170.435 831.028,164.291 831.692,171.473 832.356,149.756 833.02,188.258 833.684,136.777 834.348,151.039 835.012,175.331 835.676,160.904 836.34,169.462 837.004,137.22 837.668,171.01 838.332,139.418 838.996,156.469 839.66,153.777 840.324,163.139 840.987,126.366 841.651,215.939 842.315,165.811 842.979,142.36 843.643,170.423 844.307,155.963 844.971,195.399 845.635,136.677 846.299,120.131 846.963,230.037 847.627,148.455 848.291,166.733 848.955,180.371 849.619,210.727 850.283,143.036 850.947,166.905 851.61,151.005 852.274,120.239 852.938,148.534 853.602,162.058 854.266,171.294 854.93,150.825 855.594,133.453 856.258,161.879 856.922,118.941 857.586,165.729 858.25,152.934 858.914,155.106 859.578,134.409 860.242,263.154 860.906,134.041 861.57,147.245 862.233,174.687 862.897,187.913 863.561,170.007 864.225,131.734 864.889,153.18 865.553,151.208 866.217,159.053 866.881,158.217 867.545,165.065 868.209,151.528 868.873,170.723 869.537,171.093 870.201,190.194 870.865,156.119 871.529,162.219 872.193,159.409 872.856,187.619 873.52,196.702 874.184,175.467 874.848,144.786 875.512,216.104 876.176,171.946 876.84,153.226 877.504,176.138 878.168,156.849 878.832,181.474 879.496,146.242 880.16,111.209 880.824,168.339 881.488,139.423 882.152,158.118 882.816,215.606 883.48,165.345 884.143,183.575 884.807,151.263 885.471,152.402 886.135,151.265 886.799,160.059 887.463,193.596 888.127,155.051 888.791,165.793 889.455,179.105 890.119,153.429 890.783,183.63 891.447,150.234 892.111,109.202 892.775,157.824 893.439,142.422 894.103,180.864 894.766,112.901 895.43,211.685 896.094,156.779 896.758,171.931 897.422,138.999 898.086,170.666 898.75,142.133 899.414,146.661 900.078,191.029 900.742,159.715 901.406,125.127 902.07,178.133 902.734,176.398 903.398,201.664 904.062,146.629 904.726,144.092 905.389,179.255 906.053,174.815 906.717,144.966 907.381,243.03 908.045,194.749 908.709,161.602 909.373,143.514 910.037,146.87 910.701,159.851 911.365,150.463 912.029,149.755 912.693,140.516 913.357,140.075 914.021,159.254 914.685,143.939 915.349,205.212 916.013,147.846 916.676,165.448 917.34,156.787 918.004,158.938 918.668,166.656 919.332,160.21 919.996,155.396 920.66,192.008 921.324,162.035 921.988,171.466 922.652,153.842 923.316,176.973 923.98,141.049 924.644,164.654 925.308,153.634 925.972,127.762 926.636,162.584 927.299,152.474 927.963,165.846 928.627,151.434 929.291,147.961 929.955,204.33 930.619,141.571 931.283,136.64 931.947,160.922 932.611,156.539 933.275,146.156 933.939,167.849 934.603,177.491 935.267,176.406 935.931,177.907 936.595,154.795 937.259,142.237 937.922,129.787 938.586,175.891 939.25,169.512 939.914,146.354 940.578,230.043 941.242,121.751 941.906,161.676 942.57,189.582 943.234,181.319 943.898,167.175 944.562,168.32 945.226,179.014 945.89,146.655 946.554,151.993 947.218,166.95 947.882,173.734 948.546,146.597 949.209,128.284 949.873,147.647 950.537,179.308 951.201,154.639 951.865,131.262 952.529,176.768 953.193,171.642 953.857,157.883 954.521,166.08 955.185,189.547 955.849,149.022 956.513,172.711 957.177,168.074 957.841,181.957 958.505,180.514 959.169,156.499 959.832,162.093 960.496,172.177 961.16,152.575 961.824,154.185 962.488,161.939 963.152,201.593 963.816,168.271 964.48,163.947 965.144,156 965.808,151.325 966.472,182.038 967.136,163.161 967.8,126.921 968.464,213.094 969.128,135.269 969.792,202.678 970.455,145.294 971.119,181.447 971.783,168.582 972.447,150.949 973.111,169.508 973.775,160.787 974.439,162.633 975.103,155.648 975.767,181.523 976.431,160.124 977.095,135.835 977.759,163.389 978.423,113.144 979.087,184.472 979.751,141.626 980.415,140.907 981.079,133.648 981.742,146.412 982.406,160.188 983.07,163.015 983.734,154.282 984.398,186.831 985.062,183.354 985.726,153.842 986.39,156.426 987.054,192.575 987.718,142.803 988.382,177.149 989.046,150.5 989.71,169.751 990.374,165.52 991.038,144.323 991.702,153.482 992.365,157.185 993.029,145.126 993.693,154.672 994.357,157.217 995.021,173.508 995.685,145.597 996.349,199.332 997.013,150.914 997.677,169.788 998.341,140.487 999.005,137.829 999.669,151.805 1000.33,124.8 1001,177.122 1001.66,148.33 1002.32,139.605 1002.99,202.834 1003.65,193.139 1004.32,172.266 1004.98,146.272 1005.64,178.142 1006.31,157.621 1006.97,185.262 1007.64,142.43 1008.3,165.858 1008.96,163.234 1009.63,127.307 1010.29,190.756 1010.96,173.543 1011.62,154.792 1012.28,164.457 1012.95,178.752 1013.61,151.756 1014.28,145.846 1014.94,153.407 1015.6,181.368 1016.27,183.502 1016.93,143.603 1017.6,148.448 1018.26,163.067 1018.92,163.349 1019.59,135.528 1020.25,188.448 1020.91,154.463 1021.58,188.093 1022.24,130.598 1022.91,167.22 1023.57,179.301 1024.23,161.003 1024.9,167.816 1025.56,150.519 1026.23,198.422 1026.89,143.037 1027.55,142.177 1028.22,172.769 1028.88,158.615 1029.55,169.1 1030.21,180.97 1030.87,219.858 1031.54,161.324 1032.2,180.077 1032.87,134.619 1033.53,126.306 1034.19,156.316 1034.86,172.363 1035.52,160.754 1036.19,224.056 1036.85,103.047 1037.51,253.146 1038.18,178.698 1038.84,143.113 1039.51,189.623 1040.17,194.535 1040.83,146.429 1041.5,183.594 1042.16,128.641 1042.82,175.002 1043.49,160.659 1044.15,171.593 1044.82,136.807 1045.48,186.909 1046.14,145.408 1046.81,214.656 1047.47,152.312 1048.14,128.275 1048.8,171.318 1049.46,168.177 1050.13,171.346 1050.79,144.478 1051.46,157.065 1052.12,165.909 1052.78,152.861 1053.45,156.393 1054.11,123.563 1054.78,151.653 1055.44,209.756 1056.1,144.031 1056.77,143.831 1057.43,169.081 1058.1,90.7917 1058.76,144.95 1059.42,143.128 1060.09,177.862 1060.75,190.102 1061.42,173.286 1062.08,166.776 1062.74,150.418 1063.41,159.221 1064.07,137.655 1064.73,174.083 1065.4,159.461 1066.06,159.371 1066.73,182.032 1067.39,165.571 1068.05,149.449 1068.72,164.28 1069.38,156.041 1070.05,183.607 1070.71,164.661 1071.37,168.878 1072.04,117.333 1072.7,160.457 1073.37,170.484 1074.03,153.741 1074.69,154.859 1075.36,130.991 1076.02,182.562 1076.69,142.357 1077.35,148.718 1078.01,122.562 1078.68,153.213 1079.34,226.756 1080.01,152.834 1080.67,162.459 1081.33,171.049 1082,180.442 1082.66,139.635 1083.33,166.589 1083.99,166.241 1084.65,142.701 1085.32,141.129 1085.98,175.456 1086.64,146.354 1087.31,114.412 1087.97,157.29 1088.64,153.051 1089.3,318.368 1089.96,173.309 1090.63,145.091 1091.29,171.439 1091.96,154.063 1092.62,193.62 1093.28,144.454 1093.95,177.18 1094.61,151.489 1095.28,134.996 1095.94,145.236 1096.6,142.196 1097.27,145.711 1097.93,157.68 1098.6,163.596 1099.26,151.778 1099.92,175.57 1100.59,155.118 1101.25,149.184 1101.92,143.822 1102.58,133.37 1103.24,176.679 1103.91,200.281 1104.57,180.202 1105.24,140.784 1105.9,160.692 1106.56,168.583 1107.23,142.821 1107.89,162.814 1108.55,133.344 1109.22,140.09 1109.88,181.396 1110.55,145.185 1111.21,162.625 1111.87,165.174 1112.54,167.974 1113.2,238.652 1113.87,187.521 1114.53,139.882 1115.19,131.786 1115.86,147.455 1116.52,158.901 1117.19,200.61 1117.85,112.418 1118.51,190.762 1119.18,163.555 1119.84,143.966 1120.51,138.283 1121.17,151.019 1121.83,168.511 1122.5,170.257 1123.16,154.997 1123.83,168.656 1124.49,178.086 1125.15,153.656 1125.82,156.958 1126.48,164.251 1127.15,156.118 1127.81,178.078 1128.47,161.045 1129.14,144.79 1129.8,178.19 1130.46,117.713 1131.13,117.026 1131.79,146.238 1132.46,163.105 1133.12,177.937 1133.78,160.642 1134.45,170.045 1135.11,148.403 1135.78,146.897 1136.44,163.518 1137.1,209.788 1137.77,166.625 1138.43,166.184 1139.1,148.063 1139.76,122.972 1140.42,169.861 1141.09,153.339 1141.75,167.463 1142.42,172.414 1143.08,161.075 1143.74,171.188 1144.41,174.754 1145.07,158.184 1145.74,148.895 1146.4,156.851 1147.06,97.8338 1147.73,187.698 1148.39,173.016 1149.05,158.105 1149.72,162.899 1150.38,151.792 1151.05,157.141 1151.71,149.82 1152.37,166.532 1153.04,179.06 1153.7,151.063 1154.37,148.265 1155.03,146.865 1155.69,153.058 1156.36,163.241 1157.02,148.879 1157.69,158.126 1158.35,148.008 1159.01,162.679 1159.68,155.141 1160.34,178.148 1161.01,151.896 1161.67,134.104 1162.33,159.048 1163,230.329 1163.66,152.66 1164.33,172.351 1164.99,144.12 1165.65,157.082 1166.32,150.66 1166.98,160.001 1167.65,169.191 1168.31,168.996 1168.97,140.674 1169.64,118.932 1170.3,220.97 1170.96,155.818 1171.63,154.745 1172.29,129.932 1172.96,179.233 1173.62,143.437 1174.28,157.269 1174.95,148.545 1175.61,149.364 1176.28,175.922 1176.94,170.017 1177.6,138.207 1178.27,185.89 1178.93,140.031 1179.6,187.875 1180.26,125.084 1180.92,150.772 1181.59,179.048 1182.25,142.373 1182.92,139.61 1183.58,173.165 1184.24,151.655 1184.91,177.873 1185.57,149.256 1186.24,170.979 1186.9,162.173 1187.56,234.929 1188.23,170.829 1188.89,86.4776 1189.56,142.337 1190.22,176.082 1190.88,139.202 1191.55,193.336 1192.21,165.518 1192.87,115.215 1193.54,159.43 1194.2,163.008 1194.87,172.884 1195.53,181.087 1196.19,157.053 1196.86,141.011 1197.52,133.61 1198.19,154.609 1198.85,157.109 1199.51,167.736 1200.18,148.556 1200.84,162.667 1201.51,164.009 1202.17,159.597 1202.83,155.521 1203.5,144.032 1204.16,144.619 1204.83,151.719 1205.49,154.412 1206.15,166.208 1206.82,164.866 1207.48,140.206 1208.15,158.015 1208.81,150.28 1209.47,224.184 1210.14,135.27 1210.8,166.875 1211.47,182.317 1212.13,157.018 1212.79,150.58 1213.46,215.084 1214.12,189.376 1214.78,175.469 1215.45,224.591 1216.11,183.369 1216.78,173.207 1217.44,133.53 1218.1,198.191 1218.77,136.709 1219.43,197.124 1220.1,191.908 1220.76,149.536 1221.42,162.524 1222.09,162.083 1222.75,159.669 1223.42,179.923 1224.08,170.29 1224.74,171.898 1225.41,148.025 1226.07,157.511 1226.74,170.717 1227.4,165.603 1228.06,163.29 1228.73,177.763 1229.39,149.549 1230.06,142.961 1230.72,162.492 1231.38,137.092 1232.05,179.667 1232.71,139.07 1233.38,155.206 1234.04,146.403 1234.7,213.491 1235.37,150.163 1236.03,148.833 1236.69,169.249 1237.36,190.487 1238.02,163.173 1238.69,184.858 1239.35,181.56 1240.01,117.98 1240.68,175.414 1241.34,145.789 1242.01,167.032 1242.67,162.636 1243.33,166.65 1244,188.049 1244.66,164.966 1245.33,154.201 1245.99,167.019 1246.65,169.828 1247.32,164.113 1247.98,166.262 1248.65,157.394 1249.31,164.331 1249.97,160.319 1250.64,133.215 1251.3,158.303 1251.97,149.138 1252.63,166.289 1253.29,181.109 1253.96,118.246 1254.62,154.747 1255.29,147.909 1255.95,189.352 1256.61,195.261 1257.28,161.994 1257.94,153.731 1258.6,157.675 1259.27,153.706 1259.93,147.029 1260.6,197.527 1261.26,144.592 1261.92,140.511 1262.59,156.609 1263.25,156.011 1263.92,141.031 1264.58,147.545 1265.24,157.84 1265.91,180.51 1266.57,145.813 1267.24,183.744 1267.9,145.369 1268.56,167.151 1269.23,141.737 1269.89,142.76 1270.56,160.529 1271.22,185.054 1271.88,173.948 1272.55,167.41 1273.21,153.212 1273.88,148.557 1274.54,171.688 1275.2,142.268 1275.87,196.017 1276.53,190.468 1277.2,159.129 1277.86,144.899 1278.52,177.59 1279.19,174.778 1279.85,149.087 1280.51,122.537 1281.18,201.47 1281.84,169.564 1282.51,149.117 1283.17,162.146 1283.83,137.834 1284.5,198.122 1285.16,173.442 1285.83,169.846 1286.49,159.037 1287.15,156.917 1287.82,157.446 1288.48,142.986 1289.15,158.606 1289.81,151.641 1290.47,147.536 1291.14,156.614 1291.8,191.851 1292.47,164.632 1293.13,144.783 1293.79,179.67 1294.46,191.116 1295.12,145.923 1295.79,168.41 1296.45,151.235 1297.11,155.872 1297.78,139.159 1298.44,149.797 1299.11,143.433 1299.77,157.452 1300.43,176.941 1301.1,149.787 1301.76,145.684 1302.42,147.275 1303.09,149.526 1303.75,172.965 1304.42,154.238 1305.08,133.449 1305.74,176.742 1306.41,179.016 1307.07,271.15 1307.74,147.457 1308.4,158.112 1309.06,171.33 1309.73,160.449 1310.39,185.668 1311.06,151.288 1311.72,144.73 1312.38,181.91 1313.05,148.717 1313.71,148.224 1314.38,148.875 1315.04,179.748 1315.7,116.522 1316.37,184.03 1317.03,171.575 1317.7,152.653 1318.36,154.314 1319.02,139.191 1319.69,160.705 1320.35,126.604 1321.02,172.824 1321.68,158.551 1322.34,165.542 1323.01,168.125 1323.67,160.635 1324.33,113.355 1325,161.841 1325.66,180.839 1326.33,188.886 1326.99,188.088 1327.65,152.635 1328.32,148.687 1328.98,186.509 1329.65,159.505 1330.31,155.583 1330.97,173.269 1331.64,155.211 1332.3,159.54 1332.97,184.964 1333.63,157.862 1334.29,172.27 1334.96,161.108 1335.62,163.94 1336.29,148.382 1336.95,167.816 1337.61,166.293 1338.28,165.198 1338.94,165.856 1339.61,154.021 1340.27,146.961 1340.93,170.692 1341.6,166.532 1342.26,143.897 1342.93,172.614 1343.59,152.189 1344.25,158.139 1344.92,170.236 1345.58,105.887 1346.24,180.909 1346.91,177.092 1347.57,149.55 1348.24,151.788 1348.9,144.523 1349.56,163.346 1350.23,149.191 1350.89,197.521 1351.56,189.713 1352.22,158.21 1352.88,170.991 1353.55,175.57 1354.21,155.667 1354.88,159.985 1355.54,140.208 1356.2,165.942 1356.87,142.615 1357.53,170.525 1358.2,120.781 1358.86,176.961 1359.52,176.006 1360.19,164.793 1360.85,183.504 1361.52,131.348 1362.18,164.04 1362.84,169.192 1363.51,149.127 1364.17,186.685 1364.84,157.81 1365.5,135.935 1366.16,210.662 1366.83,198.78 1367.49,147.689 1368.15,144.076 1368.82,148.143 1369.48,166.73 1370.15,165.945 1370.81,135.812 1371.47,146.882 1372.14,207.267 1372.8,133.502 1373.47,153.097 1374.13,194.541 1374.79,173.736 1375.46,158.644 1376.12,173.584 1376.79,161.165 1377.45,136.066 1378.11,148.364 1378.78,210.687 1379.44,158.119 1380.11,157.956 1380.77,155.565 1381.43,150.551 1382.1,162.868 1382.76,186.932 1383.43,128.966 1384.09,187.14 1384.75,181.198 1385.42,136.539 1386.08,171.419 1386.75,159.25 1387.41,156.424 1388.07,157.891 1388.74,158.194 1389.4,184.749 1390.06,153.031 1390.73,167.815 1391.39,166.766 1392.06,162.564 1392.72,157.193 1393.38,154.921 1394.05,158.204 1394.71,154.027 1395.38,157.684 1396.04,177.441 1396.7,156.24 1397.37,159.076 1398.03,146.688 1398.7,184.496 1399.36,145.565 1400.02,165.362 1400.69,149.023 1401.35,165.691 1402.02,160.873 1402.68,153.025 1403.34,164.398 1404.01,163.761 1404.67,150.155 1405.34,148.488 1406,176.553 1406.66,152.3 1407.33,174.693 1407.99,154.402 1408.66,146.974 1409.32,148.27 1409.98,154.803 1410.65,169.075 1411.31,158.916 1411.97,137.131 1412.64,135.805 1413.3,143.9 1413.97,150.482 1414.63,156.645 1415.29,186.871 1415.96,182.036 1416.62,159.369 1417.29,138.161 1417.95,145.725 1418.61,129.768 1419.28,164.792 1419.94,139.857 1420.61,170.457 1421.27,148.352 1421.93,173.955 1422.6,147.557 1423.26,143.091 1423.93,120.213 1424.59,170.001 1425.25,244.638 1425.92,150.195 1426.58,144.41 1427.25,174.518 1427.91,159.369 1428.57,136.548 1429.24,206.374 1429.9,140.391 1430.56,196.167 1431.23,145.226 1431.89,157.534 1432.56,203.235 1433.22,160.284 1433.88,155.132 1434.55,144.711 1435.21,167.716 1435.88,117.824 1436.54,191.568 1437.2,115.637 1437.87,137.421 1438.53,130.278 1439.2,155.883 1439.86,126.297 1440.52,177.43 1441.19,164.536 1441.85,163.378 1442.52,180.743 1443.18,178.716 1443.84,169.305 1444.51,152.9 1445.17,127.218 1445.84,179.108 1446.5,155.267 1447.16,174.417 1447.83,152.884 1448.49,151.313 1449.16,173.864 1449.82,163.139 1450.48,171.443 1451.15,155.725 1451.81,154.65 1452.47,165.054 1453.14,149.683 1453.8,140.088 1454.47,180.419 1455.13,154.636 1455.79,139.868 1456.46,164.392 1457.12,146.826 1457.79,145.307 1458.45,129.166 1459.11,141.579 1459.78,190.937 1460.44,180.626 1461.11,158.63 1461.77,170.779 1462.43,153 1463.1,181.465 1463.76,154.198 1464.43,182.922 1465.09,155.2 1465.75,168.505 1466.42,136.092 1467.08,172.506 1467.75,128.857 1468.41,344.819 1469.07,200.862 1469.74,189.656 1470.4,173.178 1471.07,195.905 1471.73,177.766 1472.39,146.091 1473.06,186.822 1473.72,167.735 1474.38,163.509 1475.05,165.545 1475.71,157.144 1476.38,169.28 1477.04,159.995 1477.7,161.401 1478.37,162.608 1479.03,72.0207 1479.7,160.584 1480.36,193.558 1481.02,172.098 1481.69,155.735 1482.35,150.49 1483.02,159.918 1483.68,173.611 1484.34,148.263 1485.01,177.97 1485.67,182.649 1486.34,159.018 1487,140.419 1487.66,143.216 1488.33,133.704 1488.99,152.202 1489.66,199.074 1490.32,141.856 1490.98,161.655 1491.65,176.631 1492.31,152.283 1492.98,110.259 1493.64,181.274 1494.3,164.757 1494.97,156.339 1495.63,151.113 1496.29,167.082 1496.96,180.862 1497.62,181.225 1498.29,159.796 1498.95,153.395 1499.61,177.336 1500.28,149.522 1500.94,162.349 1501.61,179.22 1502.27,170.719 1502.93,153.854 1503.6,162.537 1504.26,145.579 1504.93,172.889 1505.59,163.947 1506.25,128.519 1506.92,313.304 1507.58,228.336 1508.25,47.2441 1508.91,192.57 1509.57,210.509 1510.24,97.8147 1510.9,193.977 1511.57,207.552 1512.23,215.922 1512.89,159.35 1513.56,178.838 1514.22,161.218 1514.89,170.625 1515.55,171.154 1516.21,180.364 1516.88,164.074 1517.54,171.189 1518.2,165.307 1518.87,161.315 1519.53,183.662 1520.2,140.021 1520.86,185.319 1521.52,174.251 1522.19,168.009 1522.85,160.541 1523.52,156.136 1524.18,164.203 1524.84,140.196 1525.51,148.671 1526.17,145.176 1526.84,134.341 1527.5,200.81 1528.16,148.043 1528.83,177.593 1529.49,143.277 1530.16,132.837 1530.82,188.303 1531.48,165.477 1532.15,135.633 1532.81,162.12 1533.48,177.188 1534.14,151.034 1534.8,156.081 1535.47,174.269 1536.13,167.163 1536.8,139.522 1537.46,125.793 1538.12,236.803 1538.79,158.052 1539.45,168.315 1540.11,155.168 1540.78,168.963 1541.44,146.088 1542.11,155.529 1542.77,159.161 1543.43,168.768 1544.1,161.631 1544.76,172.618 1545.43,157.194 1546.09,164.678 1546.75,168.477 1547.42,145.841 1548.08,149.414 1548.75,150.556 1549.41,148.277 1550.07,153.056 1550.74,181.661 1551.4,162.095 1552.07,174.535 1552.73,144.16 1553.39,157.053 1554.06,170.716 1554.72,175.915 1555.39,136.98 1556.05,155.018 1556.71,171.539 1557.38,187.994 1558.04,165.769 1558.71,149.697 1559.37,191.487 1560.03,160.459 1560.7,156.366 1561.36,171.284 1562.02,165.66 1562.69,151.847 1563.35,151.796 1564.02,137.828 1564.68,151.505 1565.34,144.88 1566.01,183.029 1566.67,156.925 1567.34,135.489 1568,161.398 1568.66,134.917 1569.33,157.063 1569.99,156.518 1570.66,155.64 1571.32,164.275 1571.98,167.144 1572.65,149.731 1573.31,131.846 1573.98,152.903 1574.64,172.138 1575.3,141.952 1575.97,148.618 1576.63,173.303 1577.3,157.617 1577.96,161.829 1578.62,166.465 1579.29,136.51 1579.95,145.866 1580.62,164.337 1581.28,166.882 1581.94,146.515 1582.61,158.394 1583.27,141.327 1583.93,168.876 1584.6,148.623 1585.26,150.594 1585.93,159.22 1586.59,135.246 1587.25,174.266 1587.92,149.212 1588.58,164.579 1589.25,159.815 1589.91,249.989 1590.57,148.327 1591.24,195.022 1591.9,174.142 1592.57,150.701 1593.23,134.608 1593.89,178.431 1594.56,172.179 1595.22,152.755 1595.89,164.183 1596.55,148.238 1597.21,166.763 1597.88,144.891 1598.54,388.979 1599.21,229.29 1599.87,212.658 1600.53,192.026 1601.2,184.288 1601.86,181.959 1602.53,162.772 1603.19,167.533 1603.85,129.212 1604.52,197.687 1605.18,164.386 1605.84,167.081 1606.51,177.454 1607.17,145.924 1607.84,156.239 1608.5,121.989 1609.16,179.689 1609.83,194.948 1610.49,170.418 1611.16,156.533 1611.82,176.399 1612.48,192.367 1613.15,161.386 1613.81,168.903 1614.48,173.291 1615.14,153.536 1615.8,174.601 1616.47,133.446 1617.13,167.672 1617.8,154.149 1618.46,146.475 1619.12,150.617 1619.79,165.977 1620.45,148.833 1621.12,177.488 1621.78,157.408 1622.44,133.157 1623.11,157.827 1623.77,150.624 1624.44,177.401 1625.1,187.031 1625.76,164.033 1626.43,143.61 1627.09,164.045 1627.75,180.409 1628.42,130.123 1629.08,152.97 1629.75,156.332 1630.41,174.948 1631.07,158.965 1631.74,150.42 1632.4,172.286 1633.07,154.414 1633.73,157.874 1634.39,149.099 1635.06,158.632 1635.72,145.258 1636.39,181.381 1637.05,164.084 1637.71,157.955 1638.38,160.223 1639.04,122.373 1639.71,138.8 1640.37,196.952 1641.03,168.153 1641.7,186.014 1642.36,148.464 1643.03,176.85 1643.69,165.19 1644.35,148.217 1645.02,156.066 1645.68,178.021 1646.35,170.405 1647.01,150.069 1647.67,152.984 1648.34,155.251 1649,206.079 1649.66,161.911 1650.33,160.505 1650.99,153.235 1651.66,171.07 1652.32,140.029 1652.98,154.286 1653.65,166.884 1654.31,153.064 1654.98,123.627 1655.64,155.735 1656.3,180.923 1656.97,147.834 1657.63,162.433 1658.3,153.65 1658.96,146.348 1659.62,157.029 1660.29,148.845 1660.95,155.517 1661.62,122.812 1662.28,194.209 1662.94,161.313 1663.61,147.49 1664.27,148.84 1664.94,161.33 1665.6,171.723 1666.26,201.889 1666.93,162.09 1667.59,165.605 1668.26,160.642 1668.92,150.202 1669.58,200.04 1670.25,167.365 1670.91,153.589 1671.57,148.222 1672.24,148.877 1672.9,153.378 1673.57,158.534 1674.23,152.697 1674.89,191.141 1675.56,143.028 1676.22,152.868 1676.89,179.809 1677.55,174.08 1678.21,174.348 1678.88,147.668 1679.54,176.182 1680.21,154.016 1680.87,151.368 1681.53,142.494 1682.2,157.398 1682.86,148.102 1683.53,156.018 1684.19,185.527 1684.85,171.651 1685.52,156.243 1686.18,146.901 1686.85,160.488 1687.51,149.779 1688.17,133.668 1688.84,155.575 1689.5,171.804 1690.17,165.195 1690.83,154.646 1691.49,157.393 1692.16,178.268 1692.82,129.009 1693.48,210.173 1694.15,137.589 1694.81,170.324 1695.48,155.594 1696.14,155.394 1696.8,195.727 1697.47,146.749 1698.13,177.578 1698.8,138.661 1699.46,155.938 1700.12,188.39 1700.79,157.414 1701.45,170.544 1702.12,137.717 1702.78,157.169 1703.44,176.609 1704.11,167.197 1704.77,170.121 1705.44,164.24 1706.1,152.677 1706.76,174.061 1707.43,155.398 1708.09,163.816 1708.76,142.893 1709.42,149.802 1710.08,152.218 1710.75,160.866 1711.41,162.799 1712.07,125.067 1712.74,182.413 1713.4,120.711 1714.07,130.639 1714.73,182.489 1715.39,167.331 1716.06,234.574 1716.72,162.815 1717.39,156.914 1718.05,134.74 1718.71,157.896 1719.38,242.109 1720.04,178.2 1720.71,188.117 1721.37,150.443 1722.03,178.65 1722.7,152.301 1723.36,162.71 1724.03,162.844 1724.69,157.578 1725.35,160.727 1726.02,144.237 1726.68,155.924 1727.35,144.164 1728.01,215.881 1728.67,152.567 1729.34,167.466 1730,157.057 1730.67,103.852 1731.33,160.627 1731.99,185.307 1732.66,185.875 1733.32,151.314 1733.98,166.432 1734.65,186.312 1735.31,158.868 1735.98,152.443 1736.64,159.548 1737.3,187.86 1737.97,188.382 1738.63,169.895 1739.3,157.883 1739.96,156.484 1740.62,158.052 1741.29,155.616 1741.95,169.214 1742.62,147.306 1743.28,154.643 1743.94,159.089 1744.61,151.634 1745.27,189.367 1745.94,149.429 1746.6,179.459 1747.26,164.965 1747.93,160.113 1748.59,150.237 1749.26,177.63 1749.92,164.426 1750.58,161.388 1751.25,167.469 1751.91,167.142 1752.58,141.402 1753.24,142.3 1753.9,187.937 1754.57,162.837 1755.23,162.164 1755.89,158.485 1756.56,147.76 1757.22,146.514 1757.89,162.355 1758.55,156.49 1759.21,148.584 1759.88,145.627 1760.54,163.605 1761.21,157.955 1761.87,219.519 1762.53,187.785 1763.2,160.293 1763.86,167.327 1764.53,171.403 1765.19,160.619 1765.85,144.347 1766.52,151.065 1767.18,158.128 1767.85,150.204 1768.51,155.717 1769.17,151.068 1769.84,159.292 1770.5,157.997 1771.17,147.603 1771.83,150.364 1772.49,157.307 1773.16,220.579 1773.82,139.184 1774.49,177.423 1775.15,162.899 1775.81,169.285 1776.48,153.853 1777.14,143.942 1777.8,158.996 1778.47,167.246 1779.13,149.171 1779.8,158.016 1780.46,155.433 1781.12,159.36 1781.79,173.628 1782.45,153.333 1783.12,157.246 1783.78,172.201 1784.44,146.436 1785.11,180.087 1785.77,207.926 1786.44,149.704 1787.1,170.384 1787.76,149.24 1788.43,134.739 1789.09,186.235 1789.76,174.085 1790.42,153.343 1791.08,132.96 1791.75,210.603 1792.41,150.691 1793.08,154.022 1793.74,166.709 1794.4,143.989 1795.07,162.86 1795.73,151.979 1796.4,167.481 1797.06,139.952 1797.72,153.661 1798.39,172.344 1799.05,149.194 1799.71,179.643 1800.38,154.093 1801.04,157.769 1801.71,132.3 1802.37,210.925 1803.03,155.774 1803.7,158.47 1804.36,151.091 1805.03,137.496 1805.69,156.67 1806.35,135.704 1807.02,174.247 1807.68,164.174 1808.35,162.827 1809.01,138.479 1809.67,148.068 1810.34,155.817 1811,180.119 1811.67,153.997 1812.33,179.002 1812.99,136.999 1813.66,147.859 1814.32,208.571 1814.99,154.144 1815.65,137.883 1816.31,182.327 1816.98,155.091 1817.64,149.709 1818.31,165.166 1818.97,148.51 1819.63,213.455 1820.3,159.58 1820.96,154.594 1821.62,146.668 1822.29,144.138 1822.95,170.76 1823.62,200.213 1824.28,172.335 1824.94,158.032 1825.61,156.896 1826.27,148.688 1826.94,155.908 1827.6,143.637 1828.26,166.522 1828.93,142.254 1829.59,166.477 1830.26,147.843 1830.92,150.574 1831.58,160.093 1832.25,152.625 1832.91,145.411 1833.58,164.626 1834.24,164.725 1834.9,157.108 1835.57,142.311 1836.23,168.093 1836.9,175.028 1837.56,132.438 1838.22,211.633 1838.89,148.674 1839.55,148.621 1840.22,150.694 1840.88,142.577 1841.54,165.972 1842.21,174.645 1842.87,159.226 1843.53,153.045 1844.2,164.09 1844.86,147.986 1845.53,138.594 1846.19,196.078 1846.85,165.393 1847.52,182.346 1848.18,132.135 1848.85,114.142 1849.51,158.579 1850.17,163.232 1850.84,172.769 1851.5,152.731 1852.17,161.626 1852.83,142.754 1853.49,159.876 1854.16,151.537 1854.82,233.052 1855.49,154.331 1856.15,191.616 1856.81,103.168 1857.48,202.814 1858.14,183.054 1858.81,171.635 1859.47,172.748 1860.13,173.791 1860.8,158.491 1861.46,153.981 1862.13,149.7 1862.79,193.605 1863.45,158.529 1864.12,156.922 1864.78,186.829 1865.44,151.83 1866.11,186.018 1866.77,146.948 1867.44,144.911 1868.1,167.516 1868.76,169.741 1869.43,134.155 1870.09,143.543 1870.76,178.738 1871.42,155.728 1872.08,136.187 1872.75,158.718 1873.41,214.135 1874.08,157.302 1874.74,180.335 1875.4,149.065 1876.07,160.7 1876.73,163.61 1877.4,156.719 1878.06,157.94 1878.72,137.391 1879.39,148.106 1880.05,141.485 1880.72,142.411 1881.38,165.006 1882.04,116.287 1882.71,161.186 1883.37,174.866 1884.04,181.952 1884.7,164.433 1885.36,168.441 1886.03,153.785 1886.69,145.03 1887.35,146.6 1888.02,146.371 1888.68,196.102 1889.35,149.168 1890.01,146.778 1890.67,155.431 1891.34,136.448 1892,141.969 1892.67,178.904 1893.33,164.688 1893.99,157.214 1894.66,163.148 1895.32,138.926 1895.99,153.596 1896.65,163.083 1897.31,154.353 1897.98,131.723 1898.64,141.716 1899.31,178.229 1899.97,170.022 1900.63,174.429 1901.3,117.421 1901.96,186.787 1902.63,123.306 1903.29,155.878 1903.95,146.443 1904.62,149.604 1905.28,215.24 1905.95,114.536 1906.61,150.153 1907.27,122.474 1907.94,197.934 1908.6,180.768 1909.26,173.86 1909.93,165.532 1910.59,156.89 1911.26,150.007 1911.92,170.863 1912.58,140.54 1913.25,149.285 1913.91,183.646 1914.58,145.272 1915.24,184.365 1915.9,172.595 1916.57,154.025 1917.23,154.772 1917.9,169.963 1918.56,168.105 1919.22,189.397 1919.89,187.766 1920.55,147.244 1921.22,146.537 1921.88,166.5 1922.54,131.786 1923.21,178.627 1923.87,181.167 1924.54,173.662 1925.2,141.415 1925.86,151.648 1926.53,174.312 1927.19,164.017 1927.86,163.151 1928.52,161.399 1929.18,166.759 1929.85,142.07 1930.51,156.448 1931.17,153.983 1931.84,134.071 1932.5,208.515 1933.17,148.079 1933.83,157.001 1934.49,151.127 1935.16,161.409 1935.82,153.795 1936.49,164.752 1937.15,146.237 1937.81,157.123 1938.48,156.472 1939.14,142.644 1939.81,192.758 1940.47,138.236 1941.13,155.204 1941.8,163.861 1942.46,151.46 1943.13,159.624 1943.79,132.979 1944.45,135.61 1945.12,154.579 1945.78,143.912 1946.45,179.095 1947.11,167.707 1947.77,127.495 1948.44,138.772 1949.1,172.509 1949.77,157.516 1950.43,157.339 1951.09,147.853 1951.76,174.158 1952.42,152.986 1953.08,130.527 1953.75,176.936 1954.41,135.049 1955.08,165.751 1955.74,153.924 1956.4,156.574 1957.07,148.451 1957.73,150.206 1958.4,151.38 1959.06,156.436 1959.72,169.942 1960.39,170.219 1961.05,208.435 1961.72,164.252 1962.38,154.132 1963.04,147.706 1963.71,184.328 1964.37,153.446 1965.04,140.286 1965.7,152.362 1966.36,134.468 1967.03,172.398 1967.69,157.844 1968.36,152.373 1969.02,175.66 1969.68,139.468 1970.35,167.222 1971.01,161.016 1971.68,145.967 1972.34,146.064 1973,192.959 1973.67,158.2 1974.33,168.562 1974.99,153.037 1975.66,173.936 1976.32,148.907 1976.99,164.102 1977.65,159.033 1978.31,139.434 1978.98,123.512 1979.64,91.1316 1980.31,153.095 1980.97,168.871 1981.63,146.64 1982.3,195.309 1982.96,122.649 1983.63,91.6593 1984.29,148.721 1984.95,162.253 1985.62,153.606 1986.28,169.295 1986.95,140.255 1987.61,193.767 1988.27,160.192 1988.94,171.981 1989.6,154.421 1990.27,166.747 1990.93,157.467 1991.59,144.119 1992.26,191.619 1992.92,169.921 1993.58,153.566 1994.25,159.427 1994.91,155.726 1995.58,167.004 1996.24,162.786 1996.9,137.933 1997.57,189.399 1998.23,160.165 1998.9,153.254 1999.56,208.917 2000.22,169.656 2000.89,168.878 2001.55,159.772 2002.22,150.68 2002.88,157.106 2003.54,162.273 2004.21,139.862 2004.87,154.326 2005.54,143.828 2006.2,196.32 2006.86,167.114 2007.53,178.059 2008.19,175.655 2008.86,155.227 2009.52,152.724 2010.18,143.594 2010.85,151.294 2011.51,201.828 2012.18,152.051 2012.84,174.092 2013.5,167.155 2014.17,174.426 2014.83,160.907 2015.49,151.231 2016.16,177.326 2016.82,128.634 2017.49,153.174 2018.15,172.719 2018.81,162.663 2019.48,140.927 2020.14,149.907 2020.81,125.928 2021.47,212.169 2022.13,170.762 2022.8,139.882 2023.46,127.222 2024.13,107.781 2024.79,154.996 2025.45,118.232 2026.12,177.677 2026.78,138.886 2027.45,202.333 2028.11,194.404 2028.77,158.451 2029.44,154.058 2030.1,181.689 2030.77,146.829 2031.43,153.407 2032.09,166.933 2032.76,166.682 2033.42,164.642 2034.09,167.978 2034.75,141.984 2035.41,144.984 2036.08,164.65 2036.74,158.16 2037.4,153.696 2038.07,178.235 2038.73,156.087 2039.4,158.974 2040.06,168.814 2040.72,154.615 2041.39,162.491 2042.05,157.101 2042.72,209.216 2043.38,127.405 2044.04,162.875 2044.71,169.166 2045.37,179.39 2046.04,146 2046.7,144.439 2047.36,181.767 2048.03,157.968 2048.69,158.37 2049.36,147.516 2050.02,145.837 2050.68,142.817 2051.35,159.278 2052.01,150.989 2052.68,133.598 2053.34,165.237 2054,123.85 2054.67,124.629 2055.33,168.222 2056,178.571 2056.66,163.865 2057.32,160.8 2057.99,156.438 2058.65,184.443 2059.31,156.414 2059.98,145.565 2060.64,189.35 2061.31,182.524 2061.97,173.045 2062.63,167.155 2063.3,154.257 2063.96,170.128 2064.63,162.909 2065.29,152.649 2065.95,150.424 2066.62,178.213 2067.28,141.237 2067.95,75.3386 2068.61,164.065 2069.27,151.16 2069.94,184.586 2070.6,167.092 2071.27,165.024 2071.93,143.151 2072.59,160.521 2073.26,163.403 2073.92,153.202 2074.59,148.31 2075.25,185.806 2075.91,141.982 2076.58,147.595 2077.24,173.507 2077.91,153.745 2078.57,154.083 2079.23,152.216 2079.9,147.27 2080.56,115.593 2081.22,175.373 2081.89,179.911 2082.55,159.437 2083.22,175.185 2083.88,159.648 2084.54,130.391 2085.21,157.962 2085.87,176.864 2086.54,149.761 2087.2,158.02 2087.86,151.414 2088.53,154.343 2089.19,144.957 2089.86,172.97 2090.52,149.213 2091.18,156.066 2091.85,166.982 2092.51,160.001 2093.18,143.159 2093.84,126.4 2094.5,168.161 2095.17,162.718 2095.83,145.813 2096.5,141.361 2097.16,141.345 2097.82,171.932 2098.49,148.277 2099.15,139.696 2099.82,181.268 2100.48,195.107 2101.14,132.343 2101.81,181.325 2102.47,171.004 2103.13,153.961 2103.8,157.239 2104.46,187.586 2105.13,152.28 2105.79,191.188 2106.45,156.273 2107.12,145.223 2107.78,141.985 2108.45,162.019 2109.11,167.272 2109.77,160.683 2110.44,165.494 2111.1,159.586 2111.77,168.232 2112.43,158.103 2113.09,150.888 2113.76,153.549 2114.42,139.57 2115.09,162.583 2115.75,143.301 2116.41,132.272 2117.08,177.076 2117.74,188.466 2118.41,170.658 2119.07,171.682 2119.73,140.323 2120.4,172.963 2121.06,132.18 2121.73,160.594 2122.39,186.617 2123.05,164.371 2123.72,176.393 2124.38,167.763 2125.04,160.681 2125.71,147.221 2126.37,137.926 2127.04,167.694 2127.7,160.865 2128.36,159.343 2129.03,175.247 2129.69,160.25 2130.36,159.684 2131.02,144.946 2131.68,159.156 2132.35,159.398 2133.01,141.847 2133.68,154.723 2134.34,176.393 2135,183.08 2135.67,137.055 2136.33,141.882 2137,151.811 2137.66,139.521 2138.32,141.292 2138.99,186.116 2139.65,159.108 2140.32,163.79 2140.98,146.292 2141.64,171.764 2142.31,157.911 2142.97,176.34 2143.64,144.664 2144.3,157.61 2144.96,172.733 2145.63,147.621 2146.29,164.44 2146.95,138.476 2147.62,157.145 2148.28,185.661 2148.95,155.137 2149.61,169.818 2150.27,158.307 2150.94,154.278 2151.6,136.765 2152.27,162.261 2152.93,150.601 2153.59,164.569 2154.26,160.183 2154.92,160.599 2155.59,243.681 2156.25,150.481 2156.91,117.128 2157.58,172.338 2158.24,106.592 2158.91,151.594 2159.57,161.648 2160.23,158.162 2160.9,130.148 2161.56,166.568 2162.23,133.372 2162.89,133.33 2163.55,131.126 2164.22,140.589 2164.88,165.26 2165.55,155.211 2166.21,154.105 2166.87,182.053 2167.54,167.485 2168.2,169.357 2168.86,161.345 2169.53,165.341 2170.19,172.111 2170.86,134.919 2171.52,143.298 2172.18,176.356 2172.85,132.334 2173.51,148.911 2174.18,151.774 2174.84,154.12 2175.5,185.067 2176.17,158.149 2176.83,165.862 2177.5,210.226 2178.16,140.957 2178.82,136.276 2179.49,167.038 2180.15,126.442 2180.82,206.416 2181.48,179.462 2182.14,176.532 2182.81,155.932 2183.47,189.779 2184.14,155.368 2184.8,152.146 2185.46,163.324 2186.13,167.553 2186.79,134.053 2187.46,164.217 2188.12,161.88 2188.78,179.068 2189.45,159.38 2190.11,156.105 2190.77,157.669 2191.44,156.965 2192.1,149.447 2192.77,164.233 2193.43,157.866 2194.09,182.935 2194.76,190.776 2195.42,166.831 2196.09,171.14 2196.75,168.145 2197.41,152.589 2198.08,163.133 2198.74,162.439 2199.41,167.459 2200.07,159.268 2200.73,173.96 2201.4,146.339 2202.06,167.353 2202.73,168.947 2203.39,156.07 2204.05,158.812 2204.72,150.15 2205.38,177.709 2206.05,150.116 2206.71,165.659 2207.37,158.697 2208.04,178.986 2208.7,170.805 2209.37,154.799 2210.03,159.447 2210.69,145.722 2211.36,145.946 2212.02,180.517 2212.68,150.635 2213.35,192.099 2214.01,126.493 2214.68,158.586 2215.34,158.674 2216,133.227 2216.67,152.525 2217.33,136.009 2218,138.501 2218.66,153.649 2219.32,225.064 2219.99,163.007 2220.65,149.95 2221.32,158.591 2221.98,154.476 2222.64,150.176 2223.31,176.898 2223.97,176.127 2224.64,128.023 2225.3,178.831 2225.96,150.215 2226.63,133.861 2227.29,164.727 2227.96,166.851 2228.62,171.248 2229.28,153.739 2229.95,133.982 2230.61,159.543 2231.28,157.736 2231.94,154.429 2232.6,148.592 2233.27,122.994 2233.93,152.489 2234.59,167.029 2235.26,190.451 2235.92,156.29 2236.59,138.351 2237.25,173.724 2237.91,147.543 2238.58,178.996 2239.24,154.792 2239.91,163.932 2240.57,168.647 2241.23,151.059 2241.9,159.12 2242.56,173.865 2243.23,150.985 2243.89,180.692 2244.55,150.435 2245.22,171.015 2245.88,153.233 2246.55,146.641 2247.21,162.323 2247.87,157.354 2248.54,159.861 2249.2,157.96 2249.87,151.119 2250.53,137.846 2251.19,147.802 2251.86,149.814 2252.52,138.902 2253.19,151.892 2253.85,159.397 2254.51,195.389 2255.18,167.988 2255.84,171.767 2256.5,187.162 2257.17,184.093 2257.83,162.273 2258.5,182.716 2259.16,154.649 2259.82,159.693 2260.49,156.328 2261.15,150.894 2261.82,149.43 2262.48,184.233 2263.14,154.868 2263.81,146.185 2264.47,153.142 2265.14,170.096 2265.8,185.376 2266.46,151.458 2267.13,151.413 2267.79,179.692 2268.46,160.814 2269.12,155.203 2269.78,152.153 2270.45,173.2 2271.11,165.778 2271.78,145.244 2272.44,146.155 2273.1,159.202 2273.77,141.895 2274.43,159.184 2275.09,170.96 2275.76,130.315 2276.42,166.89 2277.09,163.184 2277.75,161.764 2278.41,164.69 2279.08,154.073 2279.74,169.707 2280.41,121.05 2281.07,175.372 2281.73,173.628 2282.4,160.967 2283.06,150.396 2283.73,171.211 2284.39,134.375 2285.05,168.414 2285.72,153.135 2286.38,163.099 2287.05,131.406 2287.71,149.229 2288.37,180.515 2289.04,163.282 2289.7,160.247 2290.37,168.672 2291.03,118.331 2291.69,152.797 2292.36,167.574 2293.02,115.169 "/>
<path clip-path="url(#clip710)" d="M2018.91 1377.32 L2282.4 1377.32 L2282.4 1273.64 L2018.91 1273.64  Z" fill="#ffffff" fill-rule="evenodd" fill-opacity="1"/>
<polyline clip-path="url(#clip710)" style="stroke:#000000; stroke-linecap:round; stroke-linejoin:round; stroke-width:4; stroke-opacity:1; fill:none" points="2018.91,1377.32 2282.4,1377.32 2282.4,1273.64 2018.91,1273.64 2018.91,1377.32 "/>
<polyline clip-path="url(#clip710)" style="stroke:#009af9; stroke-linecap:round; stroke-linejoin:round; stroke-width:4; stroke-opacity:1; fill:none" points="2042.36,1325.48 2183.07,1325.48 "/>
<path clip-path="url(#clip710)" d="M2220.36 1345.16 Q2218.56 1349.79 2216.84 1351.2 Q2215.13 1352.62 2212.26 1352.62 L2208.86 1352.62 L2208.86 1349.05 L2211.36 1349.05 Q2213.12 1349.05 2214.09 1348.22 Q2215.06 1347.38 2216.24 1344.28 L2217.01 1342.34 L2206.52 1316.83 L2211.03 1316.83 L2219.14 1337.11 L2227.24 1316.83 L2231.75 1316.83 L2220.36 1345.16 Z" fill="#000000" fill-rule="nonzero" fill-opacity="1" /><path clip-path="url(#clip710)" d="M2239.04 1338.82 L2246.68 1338.82 L2246.68 1312.45 L2238.37 1314.12 L2238.37 1309.86 L2246.64 1308.2 L2251.31 1308.2 L2251.31 1338.82 L2258.95 1338.82 L2258.95 1342.76 L2239.04 1342.76 L2239.04 1338.82 Z" fill="#000000" fill-rule="nonzero" fill-opacity="1" /></svg>
