<?xml version="1.0" encoding="utf-8"?>
<svg xmlns="http://www.w3.org/2000/svg" xmlns:xlink="http://www.w3.org/1999/xlink" width="600" height="400" viewBox="0 0 2400 1600">
<defs>
  <clipPath id="clip900">
    <rect x="0" y="0" width="2400" height="1600"/>
  </clipPath>
</defs>
<path clip-path="url(#clip900)" d="M0 1600 L2400 1600 L2400 0 L0 0  Z" fill="#ffffff" fill-rule="evenodd" fill-opacity="1"/>
<defs>
  <clipPath id="clip901">
    <rect x="480" y="0" width="1681" height="1600"/>
  </clipPath>
</defs>
<path clip-path="url(#clip900)" d="M332.62 1423.18 L2352.76 1423.18 L2352.76 47.2441 L332.62 47.2441  Z" fill="#ffffff" fill-rule="evenodd" fill-opacity="1"/>
<defs>
  <clipPath id="clip902">
    <rect x="332" y="47" width="2021" height="1377"/>
  </clipPath>
</defs>
<polyline clip-path="url(#clip902)" style="stroke:#000000; stroke-linecap:round; stroke-linejoin:round; stroke-width:2; stroke-opacity:0.1; fill:none" points="357.473,1423.18 357.473,47.2441 "/>
<polyline clip-path="url(#clip902)" style="stroke:#000000; stroke-linecap:round; stroke-linejoin:round; stroke-width:2; stroke-opacity:0.1; fill:none" points="996.448,1423.18 996.448,47.2441 "/>
<polyline clip-path="url(#clip902)" style="stroke:#000000; stroke-linecap:round; stroke-linejoin:round; stroke-width:2; stroke-opacity:0.1; fill:none" points="1635.42,1423.18 1635.42,47.2441 "/>
<polyline clip-path="url(#clip902)" style="stroke:#000000; stroke-linecap:round; stroke-linejoin:round; stroke-width:2; stroke-opacity:0.1; fill:none" points="2274.4,1423.18 2274.4,47.2441 "/>
<polyline clip-path="url(#clip902)" style="stroke:#000000; stroke-linecap:round; stroke-linejoin:round; stroke-width:2; stroke-opacity:0.1; fill:none" points="332.62,1290 2352.76,1290 "/>
<polyline clip-path="url(#clip902)" style="stroke:#000000; stroke-linecap:round; stroke-linejoin:round; stroke-width:2; stroke-opacity:0.1; fill:none" points="332.62,1101.96 2352.76,1101.96 "/>
<polyline clip-path="url(#clip902)" style="stroke:#000000; stroke-linecap:round; stroke-linejoin:round; stroke-width:2; stroke-opacity:0.1; fill:none" points="332.62,913.919 2352.76,913.919 "/>
<polyline clip-path="url(#clip902)" style="stroke:#000000; stroke-linecap:round; stroke-linejoin:round; stroke-width:2; stroke-opacity:0.1; fill:none" points="332.62,725.88 2352.76,725.88 "/>
<polyline clip-path="url(#clip902)" style="stroke:#000000; stroke-linecap:round; stroke-linejoin:round; stroke-width:2; stroke-opacity:0.1; fill:none" points="332.62,537.842 2352.76,537.842 "/>
<polyline clip-path="url(#clip902)" style="stroke:#000000; stroke-linecap:round; stroke-linejoin:round; stroke-width:2; stroke-opacity:0.1; fill:none" points="332.62,349.804 2352.76,349.804 "/>
<polyline clip-path="url(#clip902)" style="stroke:#000000; stroke-linecap:round; stroke-linejoin:round; stroke-width:2; stroke-opacity:0.1; fill:none" points="332.62,161.765 2352.76,161.765 "/>
<polyline clip-path="url(#clip900)" style="stroke:#000000; stroke-linecap:round; stroke-linejoin:round; stroke-width:4; stroke-opacity:1; fill:none" points="332.62,1423.18 2352.76,1423.18 "/>
<polyline clip-path="url(#clip900)" style="stroke:#000000; stroke-linecap:round; stroke-linejoin:round; stroke-width:4; stroke-opacity:1; fill:none" points="357.473,1423.18 357.473,1404.28 "/>
<polyline clip-path="url(#clip900)" style="stroke:#000000; stroke-linecap:round; stroke-linejoin:round; stroke-width:4; stroke-opacity:1; fill:none" points="996.448,1423.18 996.448,1404.28 "/>
<polyline clip-path="url(#clip900)" style="stroke:#000000; stroke-linecap:round; stroke-linejoin:round; stroke-width:4; stroke-opacity:1; fill:none" points="1635.42,1423.18 1635.42,1404.28 "/>
<polyline clip-path="url(#clip900)" style="stroke:#000000; stroke-linecap:round; stroke-linejoin:round; stroke-width:4; stroke-opacity:1; fill:none" points="2274.4,1423.18 2274.4,1404.28 "/>
<path clip-path="url(#clip900)" d="M357.473 1454.1 Q353.862 1454.1 352.033 1457.66 Q350.228 1461.2 350.228 1468.33 Q350.228 1475.44 352.033 1479.01 Q353.862 1482.55 357.473 1482.55 Q361.107 1482.55 362.913 1479.01 Q364.742 1475.44 364.742 1468.33 Q364.742 1461.2 362.913 1457.66 Q361.107 1454.1 357.473 1454.1 M357.473 1450.39 Q363.283 1450.39 366.339 1455 Q369.417 1459.58 369.417 1468.33 Q369.417 1477.06 366.339 1481.67 Q363.283 1486.25 357.473 1486.25 Q351.663 1486.25 348.584 1481.67 Q345.529 1477.06 345.529 1468.33 Q345.529 1459.58 348.584 1455 Q351.663 1450.39 357.473 1450.39 Z" fill="#000000" fill-rule="nonzero" fill-opacity="1" /><path clip-path="url(#clip900)" d="M971.135 1481.64 L978.774 1481.64 L978.774 1455.28 L970.464 1456.95 L970.464 1452.69 L978.728 1451.02 L983.404 1451.02 L983.404 1481.64 L991.043 1481.64 L991.043 1485.58 L971.135 1485.58 L971.135 1481.64 Z" fill="#000000" fill-rule="nonzero" fill-opacity="1" /><path clip-path="url(#clip900)" d="M1010.49 1454.1 Q1006.88 1454.1 1005.05 1457.66 Q1003.24 1461.2 1003.24 1468.33 Q1003.24 1475.44 1005.05 1479.01 Q1006.88 1482.55 1010.49 1482.55 Q1014.12 1482.55 1015.93 1479.01 Q1017.76 1475.44 1017.76 1468.33 Q1017.76 1461.2 1015.93 1457.66 Q1014.12 1454.1 1010.49 1454.1 M1010.49 1450.39 Q1016.3 1450.39 1019.35 1455 Q1022.43 1459.58 1022.43 1468.33 Q1022.43 1477.06 1019.35 1481.67 Q1016.3 1486.25 1010.49 1486.25 Q1004.68 1486.25 1001.6 1481.67 Q998.543 1477.06 998.543 1468.33 Q998.543 1459.58 1001.6 1455 Q1004.68 1450.39 1010.49 1450.39 Z" fill="#000000" fill-rule="nonzero" fill-opacity="1" /><path clip-path="url(#clip900)" d="M1614.2 1481.64 L1630.52 1481.64 L1630.52 1485.58 L1608.57 1485.58 L1608.57 1481.64 Q1611.23 1478.89 1615.82 1474.26 Q1620.42 1469.61 1621.6 1468.27 Q1623.85 1465.74 1624.73 1464.01 Q1625.63 1462.25 1625.63 1460.56 Q1625.63 1457.8 1623.69 1456.07 Q1621.77 1454.33 1618.66 1454.33 Q1616.46 1454.33 1614.01 1455.09 Q1611.58 1455.86 1608.8 1457.41 L1608.8 1452.69 Q1611.63 1451.55 1614.08 1450.97 Q1616.53 1450.39 1618.57 1450.39 Q1623.94 1450.39 1627.14 1453.08 Q1630.33 1455.77 1630.33 1460.26 Q1630.33 1462.39 1629.52 1464.31 Q1628.73 1466.2 1626.63 1468.8 Q1626.05 1469.47 1622.95 1472.69 Q1619.84 1475.88 1614.2 1481.64 Z" fill="#000000" fill-rule="nonzero" fill-opacity="1" /><path clip-path="url(#clip900)" d="M1650.33 1454.1 Q1646.72 1454.1 1644.89 1457.66 Q1643.08 1461.2 1643.08 1468.33 Q1643.08 1475.44 1644.89 1479.01 Q1646.72 1482.55 1650.33 1482.55 Q1653.96 1482.55 1655.77 1479.01 Q1657.6 1475.44 1657.6 1468.33 Q1657.6 1461.2 1655.77 1457.66 Q1653.96 1454.1 1650.33 1454.1 M1650.33 1450.39 Q1656.14 1450.39 1659.2 1455 Q1662.27 1459.58 1662.27 1468.33 Q1662.27 1477.06 1659.2 1481.67 Q1656.14 1486.25 1650.33 1486.25 Q1644.52 1486.25 1641.44 1481.67 Q1638.39 1477.06 1638.39 1468.33 Q1638.39 1459.58 1641.44 1455 Q1644.52 1450.39 1650.33 1450.39 Z" fill="#000000" fill-rule="nonzero" fill-opacity="1" /><path clip-path="url(#clip900)" d="M2263.24 1466.95 Q2266.6 1467.66 2268.47 1469.93 Q2270.37 1472.2 2270.37 1475.53 Q2270.37 1480.65 2266.85 1483.45 Q2263.33 1486.25 2256.85 1486.25 Q2254.68 1486.25 2252.36 1485.81 Q2250.07 1485.39 2247.62 1484.54 L2247.62 1480.02 Q2249.56 1481.16 2251.87 1481.74 Q2254.19 1482.32 2256.71 1482.32 Q2261.11 1482.32 2263.4 1480.58 Q2265.72 1478.84 2265.72 1475.53 Q2265.72 1472.48 2263.56 1470.77 Q2261.43 1469.03 2257.62 1469.03 L2253.59 1469.03 L2253.59 1465.19 L2257.8 1465.19 Q2261.25 1465.19 2263.08 1463.82 Q2264.91 1462.43 2264.91 1459.84 Q2264.91 1457.18 2263.01 1455.77 Q2261.13 1454.33 2257.62 1454.33 Q2255.69 1454.33 2253.49 1454.75 Q2251.3 1455.16 2248.66 1456.04 L2248.66 1451.88 Q2251.32 1451.14 2253.63 1450.77 Q2255.97 1450.39 2258.03 1450.39 Q2263.36 1450.39 2266.46 1452.83 Q2269.56 1455.23 2269.56 1459.35 Q2269.56 1462.22 2267.92 1464.21 Q2266.27 1466.18 2263.24 1466.95 Z" fill="#000000" fill-rule="nonzero" fill-opacity="1" /><path clip-path="url(#clip900)" d="M2289.24 1454.1 Q2285.62 1454.1 2283.8 1457.66 Q2281.99 1461.2 2281.99 1468.33 Q2281.99 1475.44 2283.8 1479.01 Q2285.62 1482.55 2289.24 1482.55 Q2292.87 1482.55 2294.68 1479.01 Q2296.5 1475.44 2296.5 1468.33 Q2296.5 1461.2 2294.68 1457.66 Q2292.87 1454.1 2289.24 1454.1 M2289.24 1450.39 Q2295.05 1450.39 2298.1 1455 Q2301.18 1459.58 2301.18 1468.33 Q2301.18 1477.06 2298.1 1481.67 Q2295.05 1486.25 2289.24 1486.25 Q2283.43 1486.25 2280.35 1481.67 Q2277.29 1477.06 2277.29 1468.33 Q2277.29 1459.58 2280.35 1455 Q2283.43 1450.39 2289.24 1450.39 Z" fill="#000000" fill-rule="nonzero" fill-opacity="1" /><path clip-path="url(#clip900)" d="M1013.77 1520.52 L1020.27 1520.52 L1030.26 1560.69 L1040.22 1520.52 L1047.45 1520.52 L1057.44 1560.69 L1067.4 1520.52 L1073.93 1520.52 L1061.99 1568.04 L1053.91 1568.04 L1043.88 1526.79 L1033.76 1568.04 L1025.68 1568.04 L1013.77 1520.52 Z" fill="#000000" fill-rule="nonzero" fill-opacity="1" /><path clip-path="url(#clip900)" d="M1094.23 1550.12 Q1087.14 1550.12 1084.4 1551.75 Q1081.66 1553.37 1081.66 1557.29 Q1081.66 1560.4 1083.7 1562.25 Q1085.77 1564.07 1089.3 1564.07 Q1094.17 1564.07 1097.1 1560.63 Q1100.06 1557.16 1100.06 1551.43 L1100.06 1550.12 L1094.23 1550.12 M1105.92 1547.71 L1105.92 1568.04 L1100.06 1568.04 L1100.06 1562.63 Q1098.05 1565.88 1095.06 1567.44 Q1092.07 1568.97 1087.74 1568.97 Q1082.27 1568.97 1079.02 1565.91 Q1075.81 1562.82 1075.81 1557.67 Q1075.81 1551.65 1079.82 1548.6 Q1083.86 1545.54 1091.85 1545.54 L1100.06 1545.54 L1100.06 1544.97 Q1100.06 1540.93 1097.39 1538.73 Q1094.74 1536.5 1089.94 1536.5 Q1086.88 1536.5 1083.99 1537.23 Q1081.09 1537.97 1078.42 1539.43 L1078.42 1534.02 Q1081.63 1532.78 1084.65 1532.17 Q1087.68 1531.54 1090.54 1531.54 Q1098.28 1531.54 1102.1 1535.55 Q1105.92 1539.56 1105.92 1547.71 Z" fill="#000000" fill-rule="nonzero" fill-opacity="1" /><path clip-path="url(#clip900)" d="M1117.98 1518.52 L1123.84 1518.52 L1123.84 1568.04 L1117.98 1568.04 L1117.98 1518.52 Z" fill="#000000" fill-rule="nonzero" fill-opacity="1" /><path clip-path="url(#clip900)" d="M1136.09 1518.52 L1141.95 1518.52 L1141.95 1568.04 L1136.09 1568.04 L1136.09 1518.52 Z" fill="#000000" fill-rule="nonzero" fill-opacity="1" /><path clip-path="url(#clip900)" d="M1179.85 1533.76 L1179.85 1539.24 Q1177.37 1537.87 1174.86 1537.2 Q1172.37 1536.5 1169.83 1536.5 Q1164.13 1536.5 1160.98 1540.13 Q1157.83 1543.73 1157.83 1550.25 Q1157.83 1556.78 1160.98 1560.4 Q1164.13 1564 1169.83 1564 Q1172.37 1564 1174.86 1563.33 Q1177.37 1562.63 1179.85 1561.26 L1179.85 1566.68 Q1177.4 1567.82 1174.76 1568.39 Q1172.15 1568.97 1169.19 1568.97 Q1161.14 1568.97 1156.4 1563.91 Q1151.65 1558.85 1151.65 1550.25 Q1151.65 1541.53 1156.43 1536.53 Q1161.23 1531.54 1169.57 1531.54 Q1172.28 1531.54 1174.86 1532.11 Q1177.43 1532.65 1179.85 1533.76 Z" fill="#000000" fill-rule="nonzero" fill-opacity="1" /><path clip-path="url(#clip900)" d="M1190.04 1518.52 L1195.89 1518.52 L1195.89 1568.04 L1190.04 1568.04 L1190.04 1518.52 Z" fill="#000000" fill-rule="nonzero" fill-opacity="1" /><path clip-path="url(#clip900)" d="M1221.96 1536.5 Q1217.25 1536.5 1214.51 1540.19 Q1211.78 1543.85 1211.78 1550.25 Q1211.78 1556.65 1214.48 1560.34 Q1217.22 1564 1221.96 1564 Q1226.64 1564 1229.38 1560.31 Q1232.12 1556.62 1232.12 1550.25 Q1232.12 1543.92 1229.38 1540.23 Q1226.64 1536.5 1221.96 1536.5 M1221.96 1531.54 Q1229.6 1531.54 1233.96 1536.5 Q1238.32 1541.47 1238.32 1550.25 Q1238.32 1559 1233.96 1564 Q1229.6 1568.97 1221.96 1568.97 Q1214.29 1568.97 1209.93 1564 Q1205.6 1559 1205.6 1550.25 Q1205.6 1541.47 1209.93 1536.5 Q1214.29 1531.54 1221.96 1531.54 Z" fill="#000000" fill-rule="nonzero" fill-opacity="1" /><path clip-path="url(#clip900)" d="M1273.68 1533.76 L1273.68 1539.24 Q1271.2 1537.87 1268.69 1537.2 Q1266.2 1536.5 1263.66 1536.5 Q1257.96 1536.5 1254.81 1540.13 Q1251.66 1543.73 1251.66 1550.25 Q1251.66 1556.78 1254.81 1560.4 Q1257.96 1564 1263.66 1564 Q1266.2 1564 1268.69 1563.33 Q1271.2 1562.63 1273.68 1561.26 L1273.68 1566.68 Q1271.23 1567.82 1268.59 1568.39 Q1265.98 1568.97 1263.02 1568.97 Q1254.97 1568.97 1250.23 1563.91 Q1245.48 1558.85 1245.48 1550.25 Q1245.48 1541.53 1250.26 1536.53 Q1255.06 1531.54 1263.4 1531.54 Q1266.11 1531.54 1268.69 1532.11 Q1271.26 1532.65 1273.68 1533.76 Z" fill="#000000" fill-rule="nonzero" fill-opacity="1" /><path clip-path="url(#clip900)" d="M1283.65 1518.52 L1289.53 1518.52 L1289.53 1547.77 L1307.01 1532.4 L1314.49 1532.4 L1295.58 1549.07 L1315.28 1568.04 L1307.64 1568.04 L1289.53 1550.63 L1289.53 1568.04 L1283.65 1568.04 L1283.65 1518.52 Z" fill="#000000" fill-rule="nonzero" fill-opacity="1" /><path clip-path="url(#clip900)" d="M1336 1520.52 L1376.2 1520.52 L1376.2 1525.93 L1359.33 1525.93 L1359.33 1568.04 L1352.87 1568.04 L1352.87 1525.93 L1336 1525.93 L1336 1520.52 Z" fill="#000000" fill-rule="nonzero" fill-opacity="1" /><path clip-path="url(#clip900)" d="M1380.15 1532.4 L1386.01 1532.4 L1386.01 1568.04 L1380.15 1568.04 L1380.15 1532.4 M1380.15 1518.52 L1386.01 1518.52 L1386.01 1525.93 L1380.15 1525.93 L1380.15 1518.52 Z" fill="#000000" fill-rule="nonzero" fill-opacity="1" /><path clip-path="url(#clip900)" d="M1426.02 1539.24 Q1428.21 1535.29 1431.27 1533.41 Q1434.32 1531.54 1438.46 1531.54 Q1444.03 1531.54 1447.05 1535.45 Q1450.08 1539.33 1450.08 1546.53 L1450.08 1568.04 L1444.19 1568.04 L1444.19 1546.72 Q1444.19 1541.59 1442.38 1539.11 Q1440.56 1536.63 1436.84 1536.63 Q1432.29 1536.63 1429.64 1539.65 Q1427 1542.68 1427 1547.9 L1427 1568.04 L1421.11 1568.04 L1421.11 1546.72 Q1421.11 1541.56 1419.3 1539.11 Q1417.49 1536.63 1413.7 1536.63 Q1409.21 1536.63 1406.57 1539.68 Q1403.93 1542.71 1403.93 1547.9 L1403.93 1568.04 L1398.04 1568.04 L1398.04 1532.4 L1403.93 1532.4 L1403.93 1537.93 Q1405.93 1534.66 1408.73 1533.1 Q1411.53 1531.54 1415.38 1531.54 Q1419.27 1531.54 1421.97 1533.51 Q1424.71 1535.48 1426.02 1539.24 Z" fill="#000000" fill-rule="nonzero" fill-opacity="1" /><path clip-path="url(#clip900)" d="M1492.25 1548.76 L1492.25 1551.62 L1465.32 1551.62 Q1465.71 1557.67 1468.95 1560.85 Q1472.23 1564 1478.05 1564 Q1481.43 1564 1484.58 1563.17 Q1487.76 1562.35 1490.88 1560.69 L1490.88 1566.23 Q1487.73 1567.57 1484.42 1568.27 Q1481.11 1568.97 1477.7 1568.97 Q1469.17 1568.97 1464.18 1564 Q1459.21 1559.04 1459.21 1550.57 Q1459.21 1541.82 1463.92 1536.69 Q1468.67 1531.54 1476.69 1531.54 Q1483.88 1531.54 1488.05 1536.18 Q1492.25 1540.8 1492.25 1548.76 M1486.39 1547.04 Q1486.33 1542.23 1483.69 1539.37 Q1481.08 1536.5 1476.75 1536.5 Q1471.85 1536.5 1468.89 1539.27 Q1465.96 1542.04 1465.51 1547.07 L1486.39 1547.04 Z" fill="#000000" fill-rule="nonzero" fill-opacity="1" /><path clip-path="url(#clip900)" d="M1536.65 1518.58 Q1532.39 1525.9 1530.32 1533.06 Q1528.25 1540.23 1528.25 1547.58 Q1528.25 1554.93 1530.32 1562.16 Q1532.42 1569.35 1536.65 1576.64 L1531.56 1576.64 Q1526.78 1569.16 1524.4 1561.93 Q1522.04 1554.71 1522.04 1547.58 Q1522.04 1540.48 1524.4 1533.29 Q1526.75 1526.09 1531.56 1518.58 L1536.65 1518.58 Z" fill="#000000" fill-rule="nonzero" fill-opacity="1" /><path clip-path="url(#clip900)" d="M1570.74 1533.45 L1570.74 1538.98 Q1568.26 1537.71 1565.58 1537.07 Q1562.91 1536.44 1560.05 1536.44 Q1555.68 1536.44 1553.49 1537.77 Q1551.32 1539.11 1551.32 1541.79 Q1551.32 1543.82 1552.88 1545 Q1554.44 1546.15 1559.15 1547.2 L1561.16 1547.64 Q1567.4 1548.98 1570.01 1551.43 Q1572.65 1553.85 1572.65 1558.21 Q1572.65 1563.17 1568.7 1566.07 Q1564.79 1568.97 1557.91 1568.97 Q1555.05 1568.97 1551.93 1568.39 Q1548.84 1567.85 1545.4 1566.74 L1545.4 1560.69 Q1548.65 1562.38 1551.8 1563.24 Q1554.95 1564.07 1558.04 1564.07 Q1562.18 1564.07 1564.41 1562.66 Q1566.63 1561.23 1566.63 1558.65 Q1566.63 1556.27 1565.01 1554.99 Q1563.42 1553.72 1557.98 1552.54 L1555.94 1552.07 Q1550.5 1550.92 1548.08 1548.56 Q1545.66 1546.18 1545.66 1542.04 Q1545.66 1537.01 1549.22 1534.27 Q1552.79 1531.54 1559.34 1531.54 Q1562.59 1531.54 1565.46 1532.01 Q1568.32 1532.49 1570.74 1533.45 Z" fill="#000000" fill-rule="nonzero" fill-opacity="1" /><path clip-path="url(#clip900)" d="M1612.47 1548.76 L1612.47 1551.62 L1585.54 1551.62 Q1585.92 1557.67 1589.17 1560.85 Q1592.45 1564 1598.27 1564 Q1601.65 1564 1604.8 1563.17 Q1607.98 1562.35 1611.1 1560.69 L1611.1 1566.23 Q1607.95 1567.57 1604.64 1568.27 Q1601.33 1568.97 1597.92 1568.97 Q1589.39 1568.97 1584.39 1564 Q1579.43 1559.04 1579.43 1550.57 Q1579.43 1541.82 1584.14 1536.69 Q1588.88 1531.54 1596.9 1531.54 Q1604.1 1531.54 1608.27 1536.18 Q1612.47 1540.8 1612.47 1548.76 M1606.61 1547.04 Q1606.55 1542.23 1603.9 1539.37 Q1601.29 1536.5 1596.97 1536.5 Q1592.06 1536.5 1589.1 1539.27 Q1586.18 1542.04 1585.73 1547.07 L1606.61 1547.04 Z" fill="#000000" fill-rule="nonzero" fill-opacity="1" /><path clip-path="url(#clip900)" d="M1647.73 1533.76 L1647.73 1539.24 Q1645.25 1537.87 1642.74 1537.2 Q1640.25 1536.5 1637.71 1536.5 Q1632.01 1536.5 1628.86 1540.13 Q1625.71 1543.73 1625.71 1550.25 Q1625.71 1556.78 1628.86 1560.4 Q1632.01 1564 1637.71 1564 Q1640.25 1564 1642.74 1563.33 Q1645.25 1562.63 1647.73 1561.26 L1647.73 1566.68 Q1645.28 1567.82 1642.64 1568.39 Q1640.03 1568.97 1637.07 1568.97 Q1629.02 1568.97 1624.28 1563.91 Q1619.53 1558.85 1619.53 1550.25 Q1619.53 1541.53 1624.31 1536.53 Q1629.11 1531.54 1637.45 1531.54 Q1640.16 1531.54 1642.74 1532.11 Q1645.31 1532.65 1647.73 1533.76 Z" fill="#000000" fill-rule="nonzero" fill-opacity="1" /><path clip-path="url(#clip900)" d="M1656.99 1518.58 L1662.09 1518.58 Q1666.86 1526.09 1669.22 1533.29 Q1671.6 1540.48 1671.6 1547.58 Q1671.6 1554.71 1669.22 1561.93 Q1666.86 1569.16 1662.09 1576.64 L1656.99 1576.64 Q1661.23 1569.35 1663.3 1562.16 Q1665.4 1554.93 1665.4 1547.58 Q1665.4 1540.23 1663.3 1533.06 Q1661.23 1525.9 1656.99 1518.58 Z" fill="#000000" fill-rule="nonzero" fill-opacity="1" /><polyline clip-path="url(#clip900)" style="stroke:#000000; stroke-linecap:round; stroke-linejoin:round; stroke-width:4; stroke-opacity:1; fill:none" points="332.62,1423.18 332.62,47.2441 "/>
<polyline clip-path="url(#clip900)" style="stroke:#000000; stroke-linecap:round; stroke-linejoin:round; stroke-width:4; stroke-opacity:1; fill:none" points="332.62,1290 351.518,1290 "/>
<polyline clip-path="url(#clip900)" style="stroke:#000000; stroke-linecap:round; stroke-linejoin:round; stroke-width:4; stroke-opacity:1; fill:none" points="332.62,1101.96 351.518,1101.96 "/>
<polyline clip-path="url(#clip900)" style="stroke:#000000; stroke-linecap:round; stroke-linejoin:round; stroke-width:4; stroke-opacity:1; fill:none" points="332.62,913.919 351.518,913.919 "/>
<polyline clip-path="url(#clip900)" style="stroke:#000000; stroke-linecap:round; stroke-linejoin:round; stroke-width:4; stroke-opacity:1; fill:none" points="332.62,725.88 351.518,725.88 "/>
<polyline clip-path="url(#clip900)" style="stroke:#000000; stroke-linecap:round; stroke-linejoin:round; stroke-width:4; stroke-opacity:1; fill:none" points="332.62,537.842 351.518,537.842 "/>
<polyline clip-path="url(#clip900)" style="stroke:#000000; stroke-linecap:round; stroke-linejoin:round; stroke-width:4; stroke-opacity:1; fill:none" points="332.62,349.804 351.518,349.804 "/>
<polyline clip-path="url(#clip900)" style="stroke:#000000; stroke-linecap:round; stroke-linejoin:round; stroke-width:4; stroke-opacity:1; fill:none" points="332.62,161.765 351.518,161.765 "/>
<path clip-path="url(#clip900)" d="M114.26 1290.45 L143.936 1290.45 L143.936 1294.38 L114.26 1294.38 L114.26 1290.45 Z" fill="#000000" fill-rule="nonzero" fill-opacity="1" /><path clip-path="url(#clip900)" d="M154.839 1303.34 L162.477 1303.34 L162.477 1276.97 L154.167 1278.64 L154.167 1274.38 L162.431 1272.72 L167.107 1272.72 L167.107 1303.34 L174.746 1303.34 L174.746 1307.28 L154.839 1307.28 L154.839 1303.34 Z" fill="#000000" fill-rule="nonzero" fill-opacity="1" /><path clip-path="url(#clip900)" d="M188.218 1303.34 L204.537 1303.34 L204.537 1307.28 L182.593 1307.28 L182.593 1303.34 Q185.255 1300.59 189.838 1295.96 Q194.445 1291.3 195.625 1289.96 Q197.871 1287.44 198.75 1285.7 Q199.653 1283.94 199.653 1282.25 Q199.653 1279.5 197.709 1277.76 Q195.787 1276.03 192.686 1276.03 Q190.487 1276.03 188.033 1276.79 Q185.602 1277.55 182.825 1279.1 L182.825 1274.38 Q185.649 1273.25 188.102 1272.67 Q190.556 1272.09 192.593 1272.09 Q197.963 1272.09 201.158 1274.78 Q204.352 1277.46 204.352 1281.95 Q204.352 1284.08 203.542 1286 Q202.755 1287.9 200.649 1290.49 Q200.07 1291.16 196.968 1294.38 Q193.866 1297.58 188.218 1303.34 Z" fill="#000000" fill-rule="nonzero" fill-opacity="1" /><path clip-path="url(#clip900)" d="M224.352 1275.79 Q220.741 1275.79 218.912 1279.36 Q217.107 1282.9 217.107 1290.03 Q217.107 1297.14 218.912 1300.7 Q220.741 1304.24 224.352 1304.24 Q227.986 1304.24 229.792 1300.7 Q231.621 1297.14 231.621 1290.03 Q231.621 1282.9 229.792 1279.36 Q227.986 1275.79 224.352 1275.79 M224.352 1272.09 Q230.162 1272.09 233.218 1276.7 Q236.297 1281.28 236.297 1290.03 Q236.297 1298.76 233.218 1303.36 Q230.162 1307.95 224.352 1307.95 Q218.542 1307.95 215.463 1303.36 Q212.408 1298.76 212.408 1290.03 Q212.408 1281.28 215.463 1276.7 Q218.542 1272.09 224.352 1272.09 Z" fill="#000000" fill-rule="nonzero" fill-opacity="1" /><path clip-path="url(#clip900)" d="M254.514 1275.79 Q250.903 1275.79 249.074 1279.36 Q247.269 1282.9 247.269 1290.03 Q247.269 1297.14 249.074 1300.7 Q250.903 1304.24 254.514 1304.24 Q258.148 1304.24 259.954 1300.7 Q261.783 1297.14 261.783 1290.03 Q261.783 1282.9 259.954 1279.36 Q258.148 1275.79 254.514 1275.79 M254.514 1272.09 Q260.324 1272.09 263.38 1276.7 Q266.458 1281.28 266.458 1290.03 Q266.458 1298.76 263.38 1303.36 Q260.324 1307.95 254.514 1307.95 Q248.704 1307.95 245.625 1303.36 Q242.57 1298.76 242.57 1290.03 Q242.57 1281.28 245.625 1276.7 Q248.704 1272.09 254.514 1272.09 Z" fill="#000000" fill-rule="nonzero" fill-opacity="1" /><path clip-path="url(#clip900)" d="M284.676 1275.79 Q281.065 1275.79 279.236 1279.36 Q277.431 1282.9 277.431 1290.03 Q277.431 1297.14 279.236 1300.7 Q281.065 1304.24 284.676 1304.24 Q288.31 1304.24 290.116 1300.7 Q291.944 1297.14 291.944 1290.03 Q291.944 1282.9 290.116 1279.36 Q288.31 1275.79 284.676 1275.79 M284.676 1272.09 Q290.486 1272.09 293.542 1276.7 Q296.62 1281.28 296.62 1290.03 Q296.62 1298.76 293.542 1303.36 Q290.486 1307.95 284.676 1307.95 Q278.866 1307.95 275.787 1303.36 Q272.732 1298.76 272.732 1290.03 Q272.732 1281.28 275.787 1276.7 Q278.866 1272.09 284.676 1272.09 Z" fill="#000000" fill-rule="nonzero" fill-opacity="1" /><path clip-path="url(#clip900)" d="M114.26 1102.41 L143.936 1102.41 L143.936 1106.34 L114.26 1106.34 L114.26 1102.41 Z" fill="#000000" fill-rule="nonzero" fill-opacity="1" /><path clip-path="url(#clip900)" d="M154.839 1115.3 L162.477 1115.3 L162.477 1088.94 L154.167 1090.6 L154.167 1086.34 L162.431 1084.68 L167.107 1084.68 L167.107 1115.3 L174.746 1115.3 L174.746 1119.24 L154.839 1119.24 L154.839 1115.3 Z" fill="#000000" fill-rule="nonzero" fill-opacity="1" /><path clip-path="url(#clip900)" d="M185.001 1115.3 L192.639 1115.3 L192.639 1088.94 L184.329 1090.6 L184.329 1086.34 L192.593 1084.68 L197.269 1084.68 L197.269 1115.3 L204.908 1115.3 L204.908 1119.24 L185.001 1119.24 L185.001 1115.3 Z" fill="#000000" fill-rule="nonzero" fill-opacity="1" /><path clip-path="url(#clip900)" d="M224.352 1087.76 Q220.741 1087.76 218.912 1091.32 Q217.107 1094.86 217.107 1101.99 Q217.107 1109.1 218.912 1112.66 Q220.741 1116.2 224.352 1116.2 Q227.986 1116.2 229.792 1112.66 Q231.621 1109.1 231.621 1101.99 Q231.621 1094.86 229.792 1091.32 Q227.986 1087.76 224.352 1087.76 M224.352 1084.05 Q230.162 1084.05 233.218 1088.66 Q236.297 1093.24 236.297 1101.99 Q236.297 1110.72 233.218 1115.33 Q230.162 1119.91 224.352 1119.91 Q218.542 1119.91 215.463 1115.33 Q212.408 1110.72 212.408 1101.99 Q212.408 1093.24 215.463 1088.66 Q218.542 1084.05 224.352 1084.05 Z" fill="#000000" fill-rule="nonzero" fill-opacity="1" /><path clip-path="url(#clip900)" d="M254.514 1087.76 Q250.903 1087.76 249.074 1091.32 Q247.269 1094.86 247.269 1101.99 Q247.269 1109.1 249.074 1112.66 Q250.903 1116.2 254.514 1116.2 Q258.148 1116.2 259.954 1112.66 Q261.783 1109.1 261.783 1101.99 Q261.783 1094.86 259.954 1091.32 Q258.148 1087.76 254.514 1087.76 M254.514 1084.05 Q260.324 1084.05 263.38 1088.66 Q266.458 1093.24 266.458 1101.99 Q266.458 1110.72 263.38 1115.33 Q260.324 1119.91 254.514 1119.91 Q248.704 1119.91 245.625 1115.33 Q242.57 1110.72 242.57 1101.99 Q242.57 1093.24 245.625 1088.66 Q248.704 1084.05 254.514 1084.05 Z" fill="#000000" fill-rule="nonzero" fill-opacity="1" /><path clip-path="url(#clip900)" d="M284.676 1087.76 Q281.065 1087.76 279.236 1091.32 Q277.431 1094.86 277.431 1101.99 Q277.431 1109.1 279.236 1112.66 Q281.065 1116.2 284.676 1116.2 Q288.31 1116.2 290.116 1112.66 Q291.944 1109.1 291.944 1101.99 Q291.944 1094.86 290.116 1091.32 Q288.31 1087.76 284.676 1087.76 M284.676 1084.05 Q290.486 1084.05 293.542 1088.66 Q296.62 1093.24 296.62 1101.99 Q296.62 1110.72 293.542 1115.33 Q290.486 1119.91 284.676 1119.91 Q278.866 1119.91 275.787 1115.33 Q272.732 1110.72 272.732 1101.99 Q272.732 1093.24 275.787 1088.66 Q278.866 1084.05 284.676 1084.05 Z" fill="#000000" fill-rule="nonzero" fill-opacity="1" /><path clip-path="url(#clip900)" d="M114.26 914.37 L143.936 914.37 L143.936 918.305 L114.26 918.305 L114.26 914.37 Z" fill="#000000" fill-rule="nonzero" fill-opacity="1" /><path clip-path="url(#clip900)" d="M154.839 927.264 L162.477 927.264 L162.477 900.898 L154.167 902.565 L154.167 898.306 L162.431 896.639 L167.107 896.639 L167.107 927.264 L174.746 927.264 L174.746 931.199 L154.839 931.199 L154.839 927.264 Z" fill="#000000" fill-rule="nonzero" fill-opacity="1" /><path clip-path="url(#clip900)" d="M194.19 899.718 Q190.579 899.718 188.75 903.282 Q186.945 906.824 186.945 913.954 Q186.945 921.06 188.75 924.625 Q190.579 928.166 194.19 928.166 Q197.825 928.166 199.63 924.625 Q201.459 921.06 201.459 913.954 Q201.459 906.824 199.63 903.282 Q197.825 899.718 194.19 899.718 M194.19 896.014 Q200 896.014 203.056 900.62 Q206.135 905.204 206.135 913.954 Q206.135 922.68 203.056 927.287 Q200 931.87 194.19 931.87 Q188.38 931.87 185.301 927.287 Q182.246 922.68 182.246 913.954 Q182.246 905.204 185.301 900.62 Q188.38 896.014 194.19 896.014 Z" fill="#000000" fill-rule="nonzero" fill-opacity="1" /><path clip-path="url(#clip900)" d="M224.352 899.718 Q220.741 899.718 218.912 903.282 Q217.107 906.824 217.107 913.954 Q217.107 921.06 218.912 924.625 Q220.741 928.166 224.352 928.166 Q227.986 928.166 229.792 924.625 Q231.621 921.06 231.621 913.954 Q231.621 906.824 229.792 903.282 Q227.986 899.718 224.352 899.718 M224.352 896.014 Q230.162 896.014 233.218 900.62 Q236.297 905.204 236.297 913.954 Q236.297 922.68 233.218 927.287 Q230.162 931.87 224.352 931.87 Q218.542 931.87 215.463 927.287 Q212.408 922.68 212.408 913.954 Q212.408 905.204 215.463 900.62 Q218.542 896.014 224.352 896.014 Z" fill="#000000" fill-rule="nonzero" fill-opacity="1" /><path clip-path="url(#clip900)" d="M254.514 899.718 Q250.903 899.718 249.074 903.282 Q247.269 906.824 247.269 913.954 Q247.269 921.06 249.074 924.625 Q250.903 928.166 254.514 928.166 Q258.148 928.166 259.954 924.625 Q261.783 921.06 261.783 913.954 Q261.783 906.824 259.954 903.282 Q258.148 899.718 254.514 899.718 M254.514 896.014 Q260.324 896.014 263.38 900.62 Q266.458 905.204 266.458 913.954 Q266.458 922.68 263.38 927.287 Q260.324 931.87 254.514 931.87 Q248.704 931.87 245.625 927.287 Q242.57 922.68 242.57 913.954 Q242.57 905.204 245.625 900.62 Q248.704 896.014 254.514 896.014 Z" fill="#000000" fill-rule="nonzero" fill-opacity="1" /><path clip-path="url(#clip900)" d="M284.676 899.718 Q281.065 899.718 279.236 903.282 Q277.431 906.824 277.431 913.954 Q277.431 921.06 279.236 924.625 Q281.065 928.166 284.676 928.166 Q288.31 928.166 290.116 924.625 Q291.944 921.06 291.944 913.954 Q291.944 906.824 290.116 903.282 Q288.31 899.718 284.676 899.718 M284.676 896.014 Q290.486 896.014 293.542 900.62 Q296.62 905.204 296.62 913.954 Q296.62 922.68 293.542 927.287 Q290.486 931.87 284.676 931.87 Q278.866 931.87 275.787 927.287 Q272.732 922.68 272.732 913.954 Q272.732 905.204 275.787 900.62 Q278.866 896.014 284.676 896.014 Z" fill="#000000" fill-rule="nonzero" fill-opacity="1" /><path clip-path="url(#clip900)" d="M144.422 726.332 L174.098 726.332 L174.098 730.267 L144.422 730.267 L144.422 726.332 Z" fill="#000000" fill-rule="nonzero" fill-opacity="1" /><path clip-path="url(#clip900)" d="M184.329 742.443 L184.329 738.184 Q186.088 739.017 187.894 739.457 Q189.7 739.897 191.436 739.897 Q196.065 739.897 198.496 736.795 Q200.95 733.67 201.297 727.327 Q199.954 729.318 197.894 730.383 Q195.834 731.448 193.334 731.448 Q188.149 731.448 185.116 728.323 Q182.107 725.174 182.107 719.735 Q182.107 714.411 185.255 711.193 Q188.403 707.975 193.635 707.975 Q199.63 707.975 202.778 712.582 Q205.949 717.165 205.949 725.915 Q205.949 734.086 202.061 738.971 Q198.195 743.832 191.644 743.832 Q189.885 743.832 188.079 743.485 Q186.274 743.137 184.329 742.443 M193.635 727.79 Q196.783 727.79 198.612 725.637 Q200.463 723.485 200.463 719.735 Q200.463 716.008 198.612 713.855 Q196.783 711.679 193.635 711.679 Q190.487 711.679 188.635 713.855 Q186.806 716.008 186.806 719.735 Q186.806 723.485 188.635 725.637 Q190.487 727.79 193.635 727.79 Z" fill="#000000" fill-rule="nonzero" fill-opacity="1" /><path clip-path="url(#clip900)" d="M224.352 711.679 Q220.741 711.679 218.912 715.244 Q217.107 718.786 217.107 725.915 Q217.107 733.022 218.912 736.586 Q220.741 740.128 224.352 740.128 Q227.986 740.128 229.792 736.586 Q231.621 733.022 231.621 725.915 Q231.621 718.786 229.792 715.244 Q227.986 711.679 224.352 711.679 M224.352 707.975 Q230.162 707.975 233.218 712.582 Q236.297 717.165 236.297 725.915 Q236.297 734.642 233.218 739.248 Q230.162 743.832 224.352 743.832 Q218.542 743.832 215.463 739.248 Q212.408 734.642 212.408 725.915 Q212.408 717.165 215.463 712.582 Q218.542 707.975 224.352 707.975 Z" fill="#000000" fill-rule="nonzero" fill-opacity="1" /><path clip-path="url(#clip900)" d="M254.514 711.679 Q250.903 711.679 249.074 715.244 Q247.269 718.786 247.269 725.915 Q247.269 733.022 249.074 736.586 Q250.903 740.128 254.514 740.128 Q258.148 740.128 259.954 736.586 Q261.783 733.022 261.783 725.915 Q261.783 718.786 259.954 715.244 Q258.148 711.679 254.514 711.679 M254.514 707.975 Q260.324 707.975 263.38 712.582 Q266.458 717.165 266.458 725.915 Q266.458 734.642 263.38 739.248 Q260.324 743.832 254.514 743.832 Q248.704 743.832 245.625 739.248 Q242.57 734.642 242.57 725.915 Q242.57 717.165 245.625 712.582 Q248.704 707.975 254.514 707.975 Z" fill="#000000" fill-rule="nonzero" fill-opacity="1" /><path clip-path="url(#clip900)" d="M284.676 711.679 Q281.065 711.679 279.236 715.244 Q277.431 718.786 277.431 725.915 Q277.431 733.022 279.236 736.586 Q281.065 740.128 284.676 740.128 Q288.31 740.128 290.116 736.586 Q291.944 733.022 291.944 725.915 Q291.944 718.786 290.116 715.244 Q288.31 711.679 284.676 711.679 M284.676 707.975 Q290.486 707.975 293.542 712.582 Q296.62 717.165 296.62 725.915 Q296.62 734.642 293.542 739.248 Q290.486 743.832 284.676 743.832 Q278.866 743.832 275.787 739.248 Q272.732 734.642 272.732 725.915 Q272.732 717.165 275.787 712.582 Q278.866 707.975 284.676 707.975 Z" fill="#000000" fill-rule="nonzero" fill-opacity="1" /><path clip-path="url(#clip900)" d="M144.422 538.294 L174.098 538.294 L174.098 542.229 L144.422 542.229 L144.422 538.294 Z" fill="#000000" fill-rule="nonzero" fill-opacity="1" /><path clip-path="url(#clip900)" d="M194.19 538.71 Q190.857 538.71 188.936 540.493 Q187.038 542.275 187.038 545.4 Q187.038 548.525 188.936 550.307 Q190.857 552.09 194.19 552.09 Q197.524 552.09 199.445 550.307 Q201.366 548.502 201.366 545.4 Q201.366 542.275 199.445 540.493 Q197.547 538.71 194.19 538.71 M189.514 536.719 Q186.505 535.979 184.815 533.919 Q183.149 531.858 183.149 528.895 Q183.149 524.752 186.088 522.345 Q189.051 519.937 194.19 519.937 Q199.352 519.937 202.292 522.345 Q205.232 524.752 205.232 528.895 Q205.232 531.858 203.542 533.919 Q201.875 535.979 198.889 536.719 Q202.269 537.506 204.144 539.798 Q206.042 542.09 206.042 545.4 Q206.042 550.423 202.963 553.108 Q199.908 555.793 194.19 555.793 Q188.473 555.793 185.394 553.108 Q182.338 550.423 182.338 545.4 Q182.338 542.09 184.237 539.798 Q186.135 537.506 189.514 536.719 M187.801 529.335 Q187.801 532.02 189.468 533.525 Q191.158 535.03 194.19 535.03 Q197.2 535.03 198.889 533.525 Q200.602 532.02 200.602 529.335 Q200.602 526.65 198.889 525.145 Q197.2 523.641 194.19 523.641 Q191.158 523.641 189.468 525.145 Q187.801 526.65 187.801 529.335 Z" fill="#000000" fill-rule="nonzero" fill-opacity="1" /><path clip-path="url(#clip900)" d="M224.352 523.641 Q220.741 523.641 218.912 527.206 Q217.107 530.747 217.107 537.877 Q217.107 544.983 218.912 548.548 Q220.741 552.09 224.352 552.09 Q227.986 552.09 229.792 548.548 Q231.621 544.983 231.621 537.877 Q231.621 530.747 229.792 527.206 Q227.986 523.641 224.352 523.641 M224.352 519.937 Q230.162 519.937 233.218 524.544 Q236.297 529.127 236.297 537.877 Q236.297 546.604 233.218 551.21 Q230.162 555.793 224.352 555.793 Q218.542 555.793 215.463 551.21 Q212.408 546.604 212.408 537.877 Q212.408 529.127 215.463 524.544 Q218.542 519.937 224.352 519.937 Z" fill="#000000" fill-rule="nonzero" fill-opacity="1" /><path clip-path="url(#clip900)" d="M254.514 523.641 Q250.903 523.641 249.074 527.206 Q247.269 530.747 247.269 537.877 Q247.269 544.983 249.074 548.548 Q250.903 552.09 254.514 552.09 Q258.148 552.09 259.954 548.548 Q261.783 544.983 261.783 537.877 Q261.783 530.747 259.954 527.206 Q258.148 523.641 254.514 523.641 M254.514 519.937 Q260.324 519.937 263.38 524.544 Q266.458 529.127 266.458 537.877 Q266.458 546.604 263.38 551.21 Q260.324 555.793 254.514 555.793 Q248.704 555.793 245.625 551.21 Q242.57 546.604 242.57 537.877 Q242.57 529.127 245.625 524.544 Q248.704 519.937 254.514 519.937 Z" fill="#000000" fill-rule="nonzero" fill-opacity="1" /><path clip-path="url(#clip900)" d="M284.676 523.641 Q281.065 523.641 279.236 527.206 Q277.431 530.747 277.431 537.877 Q277.431 544.983 279.236 548.548 Q281.065 552.09 284.676 552.09 Q288.31 552.09 290.116 548.548 Q291.944 544.983 291.944 537.877 Q291.944 530.747 290.116 527.206 Q288.31 523.641 284.676 523.641 M284.676 519.937 Q290.486 519.937 293.542 524.544 Q296.62 529.127 296.62 537.877 Q296.62 546.604 293.542 551.21 Q290.486 555.793 284.676 555.793 Q278.866 555.793 275.787 551.21 Q272.732 546.604 272.732 537.877 Q272.732 529.127 275.787 524.544 Q278.866 519.937 284.676 519.937 Z" fill="#000000" fill-rule="nonzero" fill-opacity="1" /><path clip-path="url(#clip900)" d="M144.422 350.255 L174.098 350.255 L174.098 354.19 L144.422 354.19 L144.422 350.255 Z" fill="#000000" fill-rule="nonzero" fill-opacity="1" /><path clip-path="url(#clip900)" d="M183.01 332.524 L205.232 332.524 L205.232 334.514 L192.686 367.084 L187.801 367.084 L199.607 336.459 L183.01 336.459 L183.01 332.524 Z" fill="#000000" fill-rule="nonzero" fill-opacity="1" /><path clip-path="url(#clip900)" d="M224.352 335.602 Q220.741 335.602 218.912 339.167 Q217.107 342.709 217.107 349.838 Q217.107 356.945 218.912 360.51 Q220.741 364.051 224.352 364.051 Q227.986 364.051 229.792 360.51 Q231.621 356.945 231.621 349.838 Q231.621 342.709 229.792 339.167 Q227.986 335.602 224.352 335.602 M224.352 331.899 Q230.162 331.899 233.218 336.505 Q236.297 341.089 236.297 349.838 Q236.297 358.565 233.218 363.172 Q230.162 367.755 224.352 367.755 Q218.542 367.755 215.463 363.172 Q212.408 358.565 212.408 349.838 Q212.408 341.089 215.463 336.505 Q218.542 331.899 224.352 331.899 Z" fill="#000000" fill-rule="nonzero" fill-opacity="1" /><path clip-path="url(#clip900)" d="M254.514 335.602 Q250.903 335.602 249.074 339.167 Q247.269 342.709 247.269 349.838 Q247.269 356.945 249.074 360.51 Q250.903 364.051 254.514 364.051 Q258.148 364.051 259.954 360.51 Q261.783 356.945 261.783 349.838 Q261.783 342.709 259.954 339.167 Q258.148 335.602 254.514 335.602 M254.514 331.899 Q260.324 331.899 263.38 336.505 Q266.458 341.089 266.458 349.838 Q266.458 358.565 263.38 363.172 Q260.324 367.755 254.514 367.755 Q248.704 367.755 245.625 363.172 Q242.57 358.565 242.57 349.838 Q242.57 341.089 245.625 336.505 Q248.704 331.899 254.514 331.899 Z" fill="#000000" fill-rule="nonzero" fill-opacity="1" /><path clip-path="url(#clip900)" d="M284.676 335.602 Q281.065 335.602 279.236 339.167 Q277.431 342.709 277.431 349.838 Q277.431 356.945 279.236 360.51 Q281.065 364.051 284.676 364.051 Q288.31 364.051 290.116 360.51 Q291.944 356.945 291.944 349.838 Q291.944 342.709 290.116 339.167 Q288.31 335.602 284.676 335.602 M284.676 331.899 Q290.486 331.899 293.542 336.505 Q296.62 341.089 296.62 349.838 Q296.62 358.565 293.542 363.172 Q290.486 367.755 284.676 367.755 Q278.866 367.755 275.787 363.172 Q272.732 358.565 272.732 349.838 Q272.732 341.089 275.787 336.505 Q278.866 331.899 284.676 331.899 Z" fill="#000000" fill-rule="nonzero" fill-opacity="1" /><path clip-path="url(#clip900)" d="M144.422 162.217 L174.098 162.217 L174.098 166.152 L144.422 166.152 L144.422 162.217 Z" fill="#000000" fill-rule="nonzero" fill-opacity="1" /><path clip-path="url(#clip900)" d="M194.769 159.902 Q191.621 159.902 189.769 162.055 Q187.94 164.207 187.94 167.957 Q187.94 171.684 189.769 173.86 Q191.621 176.013 194.769 176.013 Q197.917 176.013 199.746 173.86 Q201.598 171.684 201.598 167.957 Q201.598 164.207 199.746 162.055 Q197.917 159.902 194.769 159.902 M204.051 145.249 L204.051 149.508 Q202.292 148.675 200.487 148.235 Q198.704 147.796 196.945 147.796 Q192.315 147.796 189.862 150.921 Q187.431 154.045 187.084 160.365 Q188.45 158.351 190.51 157.286 Q192.57 156.198 195.047 156.198 Q200.255 156.198 203.264 159.37 Q206.297 162.518 206.297 167.957 Q206.297 173.282 203.149 176.499 Q200 179.717 194.769 179.717 Q188.774 179.717 185.602 175.133 Q182.431 170.527 182.431 161.8 Q182.431 153.606 186.32 148.745 Q190.209 143.86 196.76 143.86 Q198.519 143.86 200.301 144.208 Q202.107 144.555 204.051 145.249 Z" fill="#000000" fill-rule="nonzero" fill-opacity="1" /><path clip-path="url(#clip900)" d="M224.352 147.564 Q220.741 147.564 218.912 151.129 Q217.107 154.67 217.107 161.8 Q217.107 168.907 218.912 172.471 Q220.741 176.013 224.352 176.013 Q227.986 176.013 229.792 172.471 Q231.621 168.907 231.621 161.8 Q231.621 154.67 229.792 151.129 Q227.986 147.564 224.352 147.564 M224.352 143.86 Q230.162 143.86 233.218 148.467 Q236.297 153.05 236.297 161.8 Q236.297 170.527 233.218 175.133 Q230.162 179.717 224.352 179.717 Q218.542 179.717 215.463 175.133 Q212.408 170.527 212.408 161.8 Q212.408 153.05 215.463 148.467 Q218.542 143.86 224.352 143.86 Z" fill="#000000" fill-rule="nonzero" fill-opacity="1" /><path clip-path="url(#clip900)" d="M254.514 147.564 Q250.903 147.564 249.074 151.129 Q247.269 154.67 247.269 161.8 Q247.269 168.907 249.074 172.471 Q250.903 176.013 254.514 176.013 Q258.148 176.013 259.954 172.471 Q261.783 168.907 261.783 161.8 Q261.783 154.67 259.954 151.129 Q258.148 147.564 254.514 147.564 M254.514 143.86 Q260.324 143.86 263.38 148.467 Q266.458 153.05 266.458 161.8 Q266.458 170.527 263.38 175.133 Q260.324 179.717 254.514 179.717 Q248.704 179.717 245.625 175.133 Q242.57 170.527 242.57 161.8 Q242.57 153.05 245.625 148.467 Q248.704 143.86 254.514 143.86 Z" fill="#000000" fill-rule="nonzero" fill-opacity="1" /><path clip-path="url(#clip900)" d="M284.676 147.564 Q281.065 147.564 279.236 151.129 Q277.431 154.67 277.431 161.8 Q277.431 168.907 279.236 172.471 Q281.065 176.013 284.676 176.013 Q288.31 176.013 290.116 172.471 Q291.944 168.907 291.944 161.8 Q291.944 154.67 290.116 151.129 Q288.31 147.564 284.676 147.564 M284.676 143.86 Q290.486 143.86 293.542 148.467 Q296.62 153.05 296.62 161.8 Q296.62 170.527 293.542 175.133 Q290.486 179.717 284.676 179.717 Q278.866 179.717 275.787 175.133 Q272.732 170.527 272.732 161.8 Q272.732 153.05 275.787 148.467 Q278.866 143.86 284.676 143.86 Z" fill="#000000" fill-rule="nonzero" fill-opacity="1" /><path clip-path="url(#clip900)" d="M16.4842 816.375 L16.4842 786.329 L21.895 786.329 L21.895 809.945 L35.9632 809.945 L35.9632 787.315 L41.3741 787.315 L41.3741 809.945 L58.5933 809.945 L58.5933 785.756 L64.0042 785.756 L64.0042 816.375 L16.4842 816.375 Z" fill="#000000" fill-rule="nonzero" fill-opacity="1" /><path clip-path="url(#clip900)" d="M16.4842 775.189 L16.4842 768.759 L58.5933 768.759 L58.5933 745.62 L64.0042 745.62 L64.0042 775.189 L16.4842 775.189 Z" fill="#000000" fill-rule="nonzero" fill-opacity="1" /><path clip-path="url(#clip900)" d="M41.3104 732.443 L58.7206 732.443 L58.7206 722.13 Q58.7206 716.942 56.5881 714.46 Q54.4238 711.945 49.9996 711.945 Q45.5436 711.945 43.4429 714.46 Q41.3104 716.942 41.3104 722.13 L41.3104 732.443 M21.7677 732.443 L36.0905 732.443 L36.0905 722.926 Q36.0905 718.216 34.34 715.924 Q32.5576 713.6 28.9291 713.6 Q25.3325 713.6 23.5501 715.924 Q21.7677 718.216 21.7677 722.926 L21.7677 732.443 M16.4842 738.872 L16.4842 722.449 Q16.4842 715.096 19.5397 711.118 Q22.5952 707.139 28.2289 707.139 Q32.5894 707.139 35.1675 709.176 Q37.7456 711.213 38.3822 715.16 Q39.4007 710.418 42.6472 707.808 Q45.8619 705.166 50.6998 705.166 Q57.0655 705.166 60.5348 709.495 Q64.0042 713.823 64.0042 721.812 L64.0042 738.872 L16.4842 738.872 Z" fill="#000000" fill-rule="nonzero" fill-opacity="1" /><path clip-path="url(#clip900)" d="M20.8447 676.011 Q20.8447 683.013 26.0645 687.151 Q31.2844 691.257 40.2919 691.257 Q49.2675 691.257 54.4874 687.151 Q59.7073 683.013 59.7073 676.011 Q59.7073 669.009 54.4874 664.935 Q49.2675 660.829 40.2919 660.829 Q31.2844 660.829 26.0645 664.935 Q20.8447 669.009 20.8447 676.011 M15.6248 676.011 Q15.6248 666.017 22.3406 660.033 Q29.0246 654.049 40.2919 654.049 Q51.5274 654.049 58.2432 660.033 Q64.9272 666.017 64.9272 676.011 Q64.9272 686.037 58.2432 692.052 Q51.5592 698.036 40.2919 698.036 Q29.0246 698.036 22.3406 692.052 Q15.6248 686.037 15.6248 676.011 Z" fill="#000000" fill-rule="nonzero" fill-opacity="1" /><polyline clip-path="url(#clip902)" style="stroke:#009af9; stroke-linecap:round; stroke-linejoin:round; stroke-width:4; stroke-opacity:1; fill:none" points="430.696,1384.24 498.223,723.717 559.292,424.741 619.525,359.652 680.135,317.618 739.073,292.882 797.178,274.87 854.636,260.605 913.074,257.424 971.368,245.977 1031.74,246.984 1088.13,233.922 1148.02,228.961 1204.26,220.527 1262.9,216.255 1319.85,204.73 1377.98,189.728 1436.35,181.226 1495.88,176.386 1555.14,165.835 1612.78,162.264 1670.45,154.107 1726.69,152.452 1783.37,144.711 1841.08,136.73 1902.27,130.29 1959.7,122.556 2016.25,119.093 2074.29,116.157 2176.28,101.834 2236.23,92.4871 2295.58,86.1857 "/>
<polyline clip-path="url(#clip902)" style="stroke:#e26f46; stroke-linecap:round; stroke-linejoin:round; stroke-width:4; stroke-opacity:1; fill:none" points="389.794,1265.28 419.198,827.539 430.452,525.156 441.392,376.484 455.296,344.182 466.501,324.55 477.218,292.675 487.76,284.874 498.46,274.9 509.291,278.691 519.803,254.691 530.521,247.518 540.911,250.132 551.584,239.757 562.314,228.825 572.838,228.27 583.591,220.922 594.348,213.714 604.866,207.782 615.658,201.019 626.327,197.073 636.816,190.583 647.57,185.245 658.29,179.869 668.882,173.814 679.548,164.143 689.955,164.085 700.739,157.172 711.441,155.197 721.988,150.95 732.679,142.847 743.324,137.623 "/>
<path clip-path="url(#clip900)" d="M1784.1 1377.32 L2285.42 1377.32 L2285.42 1221.8 L1784.1 1221.8  Z" fill="#ffffff" fill-rule="evenodd" fill-opacity="1"/>
<polyline clip-path="url(#clip900)" style="stroke:#000000; stroke-linecap:round; stroke-linejoin:round; stroke-width:4; stroke-opacity:1; fill:none" points="1784.1,1377.32 2285.42,1377.32 2285.42,1221.8 1784.1,1221.8 1784.1,1377.32 "/>
<polyline clip-path="url(#clip900)" style="stroke:#009af9; stroke-linecap:round; stroke-linejoin:round; stroke-width:4; stroke-opacity:1; fill:none" points="1806.55,1273.64 1941.22,1273.64 "/>
<path clip-path="url(#clip900)" d="M1963.67 1256.36 L1983.53 1256.36 L1983.53 1260.29 L1968.34 1260.29 L1968.34 1270.48 L1982.05 1270.48 L1982.05 1274.41 L1968.34 1274.41 L1968.34 1290.92 L1963.67 1290.92 L1963.67 1256.36 Z" fill="#000000" fill-rule="nonzero" fill-opacity="1" /><path clip-path="url(#clip900)" d="M1987.72 1280.68 L1987.72 1264.99 L1991.98 1264.99 L1991.98 1280.52 Q1991.98 1284.2 1993.41 1286.05 Q1994.85 1287.88 1997.72 1287.88 Q2001.17 1287.88 2003.16 1285.68 Q2005.17 1283.48 2005.17 1279.69 L2005.17 1264.99 L2009.43 1264.99 L2009.43 1290.92 L2005.17 1290.92 L2005.17 1286.93 Q2003.62 1289.29 2001.56 1290.45 Q1999.52 1291.59 1996.82 1291.59 Q1992.35 1291.59 1990.03 1288.81 Q1987.72 1286.03 1987.72 1280.68 M1998.44 1264.36 L1998.44 1264.36 Z" fill="#000000" fill-rule="nonzero" fill-opacity="1" /><path clip-path="url(#clip900)" d="M2018.2 1254.9 L2022.46 1254.9 L2022.46 1290.92 L2018.2 1290.92 L2018.2 1254.9 Z" fill="#000000" fill-rule="nonzero" fill-opacity="1" /><path clip-path="url(#clip900)" d="M2031.38 1254.9 L2035.64 1254.9 L2035.64 1290.92 L2031.38 1290.92 L2031.38 1254.9 Z" fill="#000000" fill-rule="nonzero" fill-opacity="1" /><path clip-path="url(#clip900)" d="M2064.48 1274.41 L2064.48 1287.07 L2071.98 1287.07 Q2075.75 1287.07 2077.56 1285.52 Q2079.39 1283.95 2079.39 1280.73 Q2079.39 1277.49 2077.56 1275.96 Q2075.75 1274.41 2071.98 1274.41 L2064.48 1274.41 M2064.48 1260.2 L2064.48 1270.61 L2071.4 1270.61 Q2074.82 1270.61 2076.49 1269.34 Q2078.18 1268.05 2078.18 1265.41 Q2078.18 1262.79 2076.49 1261.49 Q2074.82 1260.2 2071.4 1260.2 L2064.48 1260.2 M2059.8 1256.36 L2071.75 1256.36 Q2077.09 1256.36 2079.99 1258.58 Q2082.88 1260.8 2082.88 1264.9 Q2082.88 1268.07 2081.4 1269.94 Q2079.92 1271.82 2077.05 1272.28 Q2080.5 1273.02 2082.39 1275.38 Q2084.32 1277.72 2084.32 1281.24 Q2084.32 1285.87 2081.17 1288.39 Q2078.02 1290.92 2072.21 1290.92 L2059.8 1290.92 L2059.8 1256.36 Z" fill="#000000" fill-rule="nonzero" fill-opacity="1" /><path clip-path="url(#clip900)" d="M2103.92 1277.88 Q2098.76 1277.88 2096.77 1279.06 Q2094.78 1280.24 2094.78 1283.09 Q2094.78 1285.36 2096.26 1286.7 Q2097.76 1288.02 2100.33 1288.02 Q2103.88 1288.02 2106.01 1285.52 Q2108.16 1283 2108.16 1278.83 L2108.16 1277.88 L2103.92 1277.88 M2112.42 1276.12 L2112.42 1290.92 L2108.16 1290.92 L2108.16 1286.98 Q2106.7 1289.34 2104.52 1290.48 Q2102.35 1291.59 2099.2 1291.59 Q2095.22 1291.59 2092.86 1289.36 Q2090.52 1287.12 2090.52 1283.37 Q2090.52 1278.99 2093.44 1276.77 Q2096.38 1274.55 2102.19 1274.55 L2108.16 1274.55 L2108.16 1274.13 Q2108.16 1271.19 2106.21 1269.6 Q2104.29 1267.98 2100.8 1267.98 Q2098.57 1267.98 2096.47 1268.51 Q2094.36 1269.04 2092.42 1270.11 L2092.42 1266.17 Q2094.76 1265.27 2096.95 1264.83 Q2099.15 1264.36 2101.24 1264.36 Q2106.86 1264.36 2109.64 1267.28 Q2112.42 1270.2 2112.42 1276.12 Z" fill="#000000" fill-rule="nonzero" fill-opacity="1" /><path clip-path="url(#clip900)" d="M2125.4 1257.63 L2125.4 1264.99 L2134.18 1264.99 L2134.18 1268.3 L2125.4 1268.3 L2125.4 1282.37 Q2125.4 1285.54 2126.26 1286.45 Q2127.14 1287.35 2129.8 1287.35 L2134.18 1287.35 L2134.18 1290.92 L2129.8 1290.92 Q2124.87 1290.92 2123 1289.09 Q2121.12 1287.23 2121.12 1282.37 L2121.12 1268.3 L2118 1268.3 L2118 1264.99 L2121.12 1264.99 L2121.12 1257.63 L2125.4 1257.63 Z" fill="#000000" fill-rule="nonzero" fill-opacity="1" /><path clip-path="url(#clip900)" d="M2158.44 1265.98 L2158.44 1269.97 Q2156.63 1268.97 2154.8 1268.48 Q2153 1267.98 2151.14 1267.98 Q2147 1267.98 2144.71 1270.61 Q2142.42 1273.23 2142.42 1277.98 Q2142.42 1282.72 2144.71 1285.36 Q2147 1287.98 2151.14 1287.98 Q2153 1287.98 2154.8 1287.49 Q2156.63 1286.98 2158.44 1285.98 L2158.44 1289.92 Q2156.65 1290.75 2154.73 1291.17 Q2152.83 1291.59 2150.68 1291.59 Q2144.82 1291.59 2141.38 1287.91 Q2137.93 1284.23 2137.93 1277.98 Q2137.93 1271.63 2141.4 1268 Q2144.89 1264.36 2150.96 1264.36 Q2152.93 1264.36 2154.8 1264.78 Q2156.68 1265.17 2158.44 1265.98 Z" fill="#000000" fill-rule="nonzero" fill-opacity="1" /><path clip-path="url(#clip900)" d="M2187.39 1275.27 L2187.39 1290.92 L2183.13 1290.92 L2183.13 1275.41 Q2183.13 1271.73 2181.7 1269.9 Q2180.26 1268.07 2177.39 1268.07 Q2173.94 1268.07 2171.95 1270.27 Q2169.96 1272.47 2169.96 1276.26 L2169.96 1290.92 L2165.68 1290.92 L2165.68 1254.9 L2169.96 1254.9 L2169.96 1269.02 Q2171.49 1266.68 2173.55 1265.52 Q2175.63 1264.36 2178.34 1264.36 Q2182.81 1264.36 2185.1 1267.14 Q2187.39 1269.9 2187.39 1275.27 Z" fill="#000000" fill-rule="nonzero" fill-opacity="1" /><polyline clip-path="url(#clip900)" style="stroke:#e26f46; stroke-linecap:round; stroke-linejoin:round; stroke-width:4; stroke-opacity:1; fill:none" points="1806.55,1325.48 1941.22,1325.48 "/>
<path clip-path="url(#clip900)" d="M1985.91 1309.33 L1985.91 1313.89 Q1983.25 1312.62 1980.89 1311.99 Q1978.53 1311.37 1976.33 1311.37 Q1972.51 1311.37 1970.43 1312.85 Q1968.37 1314.33 1968.37 1317.06 Q1968.37 1319.35 1969.73 1320.53 Q1971.12 1321.69 1974.96 1322.41 L1977.79 1322.99 Q1983.02 1323.98 1985.5 1326.51 Q1988 1329.01 1988 1333.22 Q1988 1338.24 1984.62 1340.83 Q1981.26 1343.43 1974.76 1343.43 Q1972.3 1343.43 1969.52 1342.87 Q1966.77 1342.32 1963.81 1341.23 L1963.81 1336.41 Q1966.65 1338.01 1969.39 1338.82 Q1972.12 1339.63 1974.76 1339.63 Q1978.76 1339.63 1980.94 1338.06 Q1983.11 1336.48 1983.11 1333.57 Q1983.11 1331.02 1981.54 1329.58 Q1979.99 1328.15 1976.42 1327.43 L1973.58 1326.88 Q1968.34 1325.83 1966.01 1323.61 Q1963.67 1321.39 1963.67 1317.43 Q1963.67 1312.85 1966.89 1310.21 Q1970.13 1307.57 1975.8 1307.57 Q1978.23 1307.57 1980.75 1308.01 Q1983.27 1308.45 1985.91 1309.33 Z" fill="#000000" fill-rule="nonzero" fill-opacity="1" /><path clip-path="url(#clip900)" d="M1994.66 1332.52 L1994.66 1316.83 L1998.92 1316.83 L1998.92 1332.36 Q1998.92 1336.04 2000.36 1337.89 Q2001.79 1339.72 2004.66 1339.72 Q2008.11 1339.72 2010.1 1337.52 Q2012.12 1335.32 2012.12 1331.53 L2012.12 1316.83 L2016.38 1316.83 L2016.38 1342.76 L2012.12 1342.76 L2012.12 1338.77 Q2010.57 1341.13 2008.51 1342.29 Q2006.47 1343.43 2003.76 1343.43 Q1999.29 1343.43 1996.98 1340.65 Q1994.66 1337.87 1994.66 1332.52 M2005.38 1316.2 L2005.38 1316.2 Z" fill="#000000" fill-rule="nonzero" fill-opacity="1" /><path clip-path="url(#clip900)" d="M2043.76 1329.82 Q2043.76 1325.12 2041.82 1322.45 Q2039.89 1319.77 2036.51 1319.77 Q2033.14 1319.77 2031.19 1322.45 Q2029.27 1325.12 2029.27 1329.82 Q2029.27 1334.51 2031.19 1337.2 Q2033.14 1339.86 2036.51 1339.86 Q2039.89 1339.86 2041.82 1337.2 Q2043.76 1334.51 2043.76 1329.82 M2029.27 1320.76 Q2030.61 1318.45 2032.65 1317.34 Q2034.71 1316.2 2037.56 1316.2 Q2042.28 1316.2 2045.22 1319.95 Q2048.18 1323.7 2048.18 1329.82 Q2048.18 1335.93 2045.22 1339.68 Q2042.28 1343.43 2037.56 1343.43 Q2034.71 1343.43 2032.65 1342.32 Q2030.61 1341.18 2029.27 1338.87 L2029.27 1342.76 L2024.99 1342.76 L2024.99 1306.74 L2029.27 1306.74 L2029.27 1320.76 Z" fill="#000000" fill-rule="nonzero" fill-opacity="1" /><path clip-path="url(#clip900)" d="M2071.77 1317.59 L2071.77 1321.62 Q2069.96 1320.7 2068.02 1320.23 Q2066.08 1319.77 2063.99 1319.77 Q2060.82 1319.77 2059.22 1320.74 Q2057.65 1321.71 2057.65 1323.66 Q2057.65 1325.14 2058.78 1326 Q2059.92 1326.83 2063.34 1327.59 L2064.8 1327.92 Q2069.34 1328.89 2071.24 1330.67 Q2073.16 1332.43 2073.16 1335.6 Q2073.16 1339.21 2070.29 1341.32 Q2067.44 1343.43 2062.44 1343.43 Q2060.36 1343.43 2058.09 1343.01 Q2055.84 1342.62 2053.34 1341.81 L2053.34 1337.41 Q2055.7 1338.63 2058 1339.26 Q2060.29 1339.86 2062.53 1339.86 Q2065.54 1339.86 2067.16 1338.84 Q2068.78 1337.8 2068.78 1335.93 Q2068.78 1334.19 2067.6 1333.26 Q2066.45 1332.34 2062.49 1331.48 L2061.01 1331.14 Q2057.05 1330.3 2055.29 1328.59 Q2053.53 1326.85 2053.53 1323.84 Q2053.53 1320.19 2056.12 1318.2 Q2058.71 1316.2 2063.48 1316.2 Q2065.84 1316.2 2067.93 1316.55 Q2070.01 1316.9 2071.77 1317.59 Z" fill="#000000" fill-rule="nonzero" fill-opacity="1" /><path clip-path="url(#clip900)" d="M2091.72 1329.72 Q2086.56 1329.72 2084.57 1330.9 Q2082.58 1332.08 2082.58 1334.93 Q2082.58 1337.2 2084.06 1338.54 Q2085.57 1339.86 2088.14 1339.86 Q2091.68 1339.86 2093.81 1337.36 Q2095.96 1334.84 2095.96 1330.67 L2095.96 1329.72 L2091.72 1329.72 M2100.22 1327.96 L2100.22 1342.76 L2095.96 1342.76 L2095.96 1338.82 Q2094.5 1341.18 2092.32 1342.32 Q2090.15 1343.43 2087 1343.43 Q2083.02 1343.43 2080.66 1341.2 Q2078.32 1338.96 2078.32 1335.21 Q2078.32 1330.83 2081.24 1328.61 Q2084.18 1326.39 2089.99 1326.39 L2095.96 1326.39 L2095.96 1325.97 Q2095.96 1323.03 2094.01 1321.44 Q2092.09 1319.82 2088.6 1319.82 Q2086.38 1319.82 2084.27 1320.35 Q2082.16 1320.88 2080.22 1321.95 L2080.22 1318.01 Q2082.56 1317.11 2084.76 1316.67 Q2086.95 1316.2 2089.04 1316.2 Q2094.66 1316.2 2097.44 1319.12 Q2100.22 1322.04 2100.22 1327.96 Z" fill="#000000" fill-rule="nonzero" fill-opacity="1" /><path clip-path="url(#clip900)" d="M2129.18 1321.81 Q2130.77 1318.94 2133 1317.57 Q2135.22 1316.2 2138.23 1316.2 Q2142.28 1316.2 2144.48 1319.05 Q2146.68 1321.88 2146.68 1327.11 L2146.68 1342.76 L2142.39 1342.76 L2142.39 1327.25 Q2142.39 1323.52 2141.07 1321.71 Q2139.76 1319.91 2137.05 1319.91 Q2133.74 1319.91 2131.82 1322.11 Q2129.89 1324.31 2129.89 1328.1 L2129.89 1342.76 L2125.61 1342.76 L2125.61 1327.25 Q2125.61 1323.5 2124.29 1321.71 Q2122.97 1319.91 2120.22 1319.91 Q2116.95 1319.91 2115.03 1322.13 Q2113.11 1324.33 2113.11 1328.1 L2113.11 1342.76 L2108.83 1342.76 L2108.83 1316.83 L2113.11 1316.83 L2113.11 1320.86 Q2114.57 1318.47 2116.61 1317.34 Q2118.64 1316.2 2121.45 1316.2 Q2124.27 1316.2 2126.24 1317.64 Q2128.23 1319.07 2129.18 1321.81 Z" fill="#000000" fill-rule="nonzero" fill-opacity="1" /><path clip-path="url(#clip900)" d="M2159.29 1338.87 L2159.29 1352.62 L2155.01 1352.62 L2155.01 1316.83 L2159.29 1316.83 L2159.29 1320.76 Q2160.63 1318.45 2162.67 1317.34 Q2164.73 1316.2 2167.58 1316.2 Q2172.3 1316.2 2175.24 1319.95 Q2178.2 1323.7 2178.2 1329.82 Q2178.2 1335.93 2175.24 1339.68 Q2172.3 1343.43 2167.58 1343.43 Q2164.73 1343.43 2162.67 1342.32 Q2160.63 1341.18 2159.29 1338.87 M2173.78 1329.82 Q2173.78 1325.12 2171.84 1322.45 Q2169.92 1319.77 2166.54 1319.77 Q2163.16 1319.77 2161.21 1322.45 Q2159.29 1325.12 2159.29 1329.82 Q2159.29 1334.51 2161.21 1337.2 Q2163.16 1339.86 2166.54 1339.86 Q2169.92 1339.86 2171.84 1337.2 Q2173.78 1334.51 2173.78 1329.82 Z" fill="#000000" fill-rule="nonzero" fill-opacity="1" /><path clip-path="url(#clip900)" d="M2185.26 1306.74 L2189.52 1306.74 L2189.52 1342.76 L2185.26 1342.76 L2185.26 1306.74 Z" fill="#000000" fill-rule="nonzero" fill-opacity="1" /><path clip-path="url(#clip900)" d="M2198.44 1316.83 L2202.69 1316.83 L2202.69 1342.76 L2198.44 1342.76 L2198.44 1316.83 M2198.44 1306.74 L2202.69 1306.74 L2202.69 1312.13 L2198.44 1312.13 L2198.44 1306.74 Z" fill="#000000" fill-rule="nonzero" fill-opacity="1" /><path clip-path="url(#clip900)" d="M2233.16 1327.11 L2233.16 1342.76 L2228.9 1342.76 L2228.9 1327.25 Q2228.9 1323.57 2227.46 1321.74 Q2226.03 1319.91 2223.16 1319.91 Q2219.71 1319.91 2217.72 1322.11 Q2215.73 1324.31 2215.73 1328.1 L2215.73 1342.76 L2211.44 1342.76 L2211.44 1316.83 L2215.73 1316.83 L2215.73 1320.86 Q2217.25 1318.52 2219.31 1317.36 Q2221.4 1316.2 2224.11 1316.2 Q2228.57 1316.2 2230.87 1318.98 Q2233.16 1321.74 2233.16 1327.11 Z" fill="#000000" fill-rule="nonzero" fill-opacity="1" /><path clip-path="url(#clip900)" d="M2258.71 1329.49 Q2258.71 1324.86 2256.79 1322.32 Q2254.89 1319.77 2251.44 1319.77 Q2248.02 1319.77 2246.1 1322.32 Q2244.2 1324.86 2244.2 1329.49 Q2244.2 1334.1 2246.1 1336.64 Q2248.02 1339.19 2251.44 1339.19 Q2254.89 1339.19 2256.79 1336.64 Q2258.71 1334.1 2258.71 1329.49 M2262.97 1339.54 Q2262.97 1346.16 2260.03 1349.38 Q2257.09 1352.62 2251.03 1352.62 Q2248.78 1352.62 2246.79 1352.27 Q2244.8 1351.95 2242.93 1351.25 L2242.93 1347.11 Q2244.8 1348.13 2246.63 1348.61 Q2248.46 1349.1 2250.36 1349.1 Q2254.55 1349.1 2256.63 1346.9 Q2258.71 1344.72 2258.71 1340.3 L2258.71 1338.2 Q2257.39 1340.49 2255.33 1341.62 Q2253.27 1342.76 2250.4 1342.76 Q2245.63 1342.76 2242.72 1339.12 Q2239.8 1335.49 2239.8 1329.49 Q2239.8 1323.47 2242.72 1319.84 Q2245.63 1316.2 2250.4 1316.2 Q2253.27 1316.2 2255.33 1317.34 Q2257.39 1318.47 2258.71 1320.76 L2258.71 1316.83 L2262.97 1316.83 L2262.97 1339.54 Z" fill="#000000" fill-rule="nonzero" fill-opacity="1" /></svg>
