<?xml version="1.0" encoding="utf-8"?>
<svg xmlns="http://www.w3.org/2000/svg" xmlns:xlink="http://www.w3.org/1999/xlink" width="600" height="400" viewBox="0 0 2400 1600">
<defs>
  <clipPath id="clip430">
    <rect x="0" y="0" width="2400" height="1600"/>
  </clipPath>
</defs>
<path clip-path="url(#clip430)" d="M0 1600 L2400 1600 L2400 0 L0 0  Z" fill="#ffffff" fill-rule="evenodd" fill-opacity="1"/>
<defs>
  <clipPath id="clip431">
    <rect x="242" y="47" width="2112" height="1377"/>
  </clipPath>
</defs>
<path clip-path="url(#clip430)" d="M251.372 1423.18 L2352.76 1423.18 L2352.76 47.2441 L251.372 47.2441  Z" fill="#ffffff" fill-rule="evenodd" fill-opacity="1"/>
<defs>
  <clipPath id="clip432">
    <rect x="251" y="47" width="2102" height="1377"/>
  </clipPath>
</defs>
<polyline clip-path="url(#clip432)" style="stroke:#000000; stroke-linecap:round; stroke-linejoin:round; stroke-width:2; stroke-opacity:0.1; fill:none" points="308.861,1423.18 308.861,47.2441 "/>
<polyline clip-path="url(#clip432)" style="stroke:#000000; stroke-linecap:round; stroke-linejoin:round; stroke-width:2; stroke-opacity:0.1; fill:none" points="804.966,1423.18 804.966,47.2441 "/>
<polyline clip-path="url(#clip432)" style="stroke:#000000; stroke-linecap:round; stroke-linejoin:round; stroke-width:2; stroke-opacity:0.1; fill:none" points="1301.07,1423.18 1301.07,47.2441 "/>
<polyline clip-path="url(#clip432)" style="stroke:#000000; stroke-linecap:round; stroke-linejoin:round; stroke-width:2; stroke-opacity:0.1; fill:none" points="1797.18,1423.18 1797.18,47.2441 "/>
<polyline clip-path="url(#clip432)" style="stroke:#000000; stroke-linecap:round; stroke-linejoin:round; stroke-width:2; stroke-opacity:0.1; fill:none" points="2293.28,1423.18 2293.28,47.2441 "/>
<polyline clip-path="url(#clip432)" style="stroke:#000000; stroke-linecap:round; stroke-linejoin:round; stroke-width:2; stroke-opacity:0.1; fill:none" points="251.372,1126.11 2352.76,1126.11 "/>
<polyline clip-path="url(#clip432)" style="stroke:#000000; stroke-linecap:round; stroke-linejoin:round; stroke-width:2; stroke-opacity:0.1; fill:none" points="251.372,548.15 2352.76,548.15 "/>
<polyline clip-path="url(#clip430)" style="stroke:#000000; stroke-linecap:round; stroke-linejoin:round; stroke-width:4; stroke-opacity:1; fill:none" points="251.372,1423.18 2352.76,1423.18 "/>
<polyline clip-path="url(#clip430)" style="stroke:#000000; stroke-linecap:round; stroke-linejoin:round; stroke-width:4; stroke-opacity:1; fill:none" points="308.861,1423.18 308.861,1404.28 "/>
<polyline clip-path="url(#clip430)" style="stroke:#000000; stroke-linecap:round; stroke-linejoin:round; stroke-width:4; stroke-opacity:1; fill:none" points="804.966,1423.18 804.966,1404.28 "/>
<polyline clip-path="url(#clip430)" style="stroke:#000000; stroke-linecap:round; stroke-linejoin:round; stroke-width:4; stroke-opacity:1; fill:none" points="1301.07,1423.18 1301.07,1404.28 "/>
<polyline clip-path="url(#clip430)" style="stroke:#000000; stroke-linecap:round; stroke-linejoin:round; stroke-width:4; stroke-opacity:1; fill:none" points="1797.18,1423.18 1797.18,1404.28 "/>
<polyline clip-path="url(#clip430)" style="stroke:#000000; stroke-linecap:round; stroke-linejoin:round; stroke-width:4; stroke-opacity:1; fill:none" points="2293.28,1423.18 2293.28,1404.28 "/>
<path clip-path="url(#clip430)" d="M308.861 1454.1 Q305.25 1454.1 303.421 1457.66 Q301.616 1461.2 301.616 1468.33 Q301.616 1475.44 303.421 1479.01 Q305.25 1482.55 308.861 1482.55 Q312.495 1482.55 314.301 1479.01 Q316.129 1475.44 316.129 1468.33 Q316.129 1461.2 314.301 1457.66 Q312.495 1454.1 308.861 1454.1 M308.861 1450.39 Q314.671 1450.39 317.727 1455 Q320.805 1459.58 320.805 1468.33 Q320.805 1477.06 317.727 1481.67 Q314.671 1486.25 308.861 1486.25 Q303.051 1486.25 299.972 1481.67 Q296.916 1477.06 296.916 1468.33 Q296.916 1459.58 299.972 1455 Q303.051 1450.39 308.861 1450.39 Z" fill="#000000" fill-rule="nonzero" fill-opacity="1" /><path clip-path="url(#clip430)" d="M768.659 1481.64 L784.978 1481.64 L784.978 1485.58 L763.034 1485.58 L763.034 1481.64 Q765.696 1478.89 770.279 1474.26 Q774.885 1469.61 776.066 1468.27 Q778.311 1465.74 779.191 1464.01 Q780.094 1462.25 780.094 1460.56 Q780.094 1457.8 778.149 1456.07 Q776.228 1454.33 773.126 1454.33 Q770.927 1454.33 768.473 1455.09 Q766.043 1455.86 763.265 1457.41 L763.265 1452.69 Q766.089 1451.55 768.543 1450.97 Q770.997 1450.39 773.034 1450.39 Q778.404 1450.39 781.598 1453.08 Q784.793 1455.77 784.793 1460.26 Q784.793 1462.39 783.983 1464.31 Q783.196 1466.2 781.089 1468.8 Q780.51 1469.47 777.409 1472.69 Q774.307 1475.88 768.659 1481.64 Z" fill="#000000" fill-rule="nonzero" fill-opacity="1" /><path clip-path="url(#clip430)" d="M794.839 1451.02 L813.195 1451.02 L813.195 1454.96 L799.121 1454.96 L799.121 1463.43 Q800.14 1463.08 801.159 1462.92 Q802.177 1462.73 803.196 1462.73 Q808.983 1462.73 812.362 1465.9 Q815.742 1469.08 815.742 1474.49 Q815.742 1480.07 812.27 1483.17 Q808.797 1486.25 802.478 1486.25 Q800.302 1486.25 798.034 1485.88 Q795.788 1485.51 793.381 1484.77 L793.381 1480.07 Q795.464 1481.2 797.686 1481.76 Q799.909 1482.32 802.385 1482.32 Q806.39 1482.32 808.728 1480.21 Q811.066 1478.1 811.066 1474.49 Q811.066 1470.88 808.728 1468.77 Q806.39 1466.67 802.385 1466.67 Q800.51 1466.67 798.635 1467.08 Q796.784 1467.5 794.839 1468.38 L794.839 1451.02 Z" fill="#000000" fill-rule="nonzero" fill-opacity="1" /><path clip-path="url(#clip430)" d="M834.955 1454.1 Q831.344 1454.1 829.515 1457.66 Q827.709 1461.2 827.709 1468.33 Q827.709 1475.44 829.515 1479.01 Q831.344 1482.55 834.955 1482.55 Q838.589 1482.55 840.394 1479.01 Q842.223 1475.44 842.223 1468.33 Q842.223 1461.2 840.394 1457.66 Q838.589 1454.1 834.955 1454.1 M834.955 1450.39 Q840.765 1450.39 843.82 1455 Q846.899 1459.58 846.899 1468.33 Q846.899 1477.06 843.82 1481.67 Q840.765 1486.25 834.955 1486.25 Q829.144 1486.25 826.066 1481.67 Q823.01 1477.06 823.01 1468.33 Q823.01 1459.58 826.066 1455 Q829.144 1450.39 834.955 1450.39 Z" fill="#000000" fill-rule="nonzero" fill-opacity="1" /><path clip-path="url(#clip430)" d="M1260.69 1451.02 L1279.05 1451.02 L1279.05 1454.96 L1264.97 1454.96 L1264.97 1463.43 Q1265.99 1463.08 1267.01 1462.92 Q1268.03 1462.73 1269.05 1462.73 Q1274.83 1462.73 1278.21 1465.9 Q1281.59 1469.08 1281.59 1474.49 Q1281.59 1480.07 1278.12 1483.17 Q1274.65 1486.25 1268.33 1486.25 Q1266.15 1486.25 1263.88 1485.88 Q1261.64 1485.51 1259.23 1484.77 L1259.23 1480.07 Q1261.32 1481.2 1263.54 1481.76 Q1265.76 1482.32 1268.24 1482.32 Q1272.24 1482.32 1274.58 1480.21 Q1276.92 1478.1 1276.92 1474.49 Q1276.92 1470.88 1274.58 1468.77 Q1272.24 1466.67 1268.24 1466.67 Q1266.36 1466.67 1264.49 1467.08 Q1262.63 1467.5 1260.69 1468.38 L1260.69 1451.02 Z" fill="#000000" fill-rule="nonzero" fill-opacity="1" /><path clip-path="url(#clip430)" d="M1300.81 1454.1 Q1297.19 1454.1 1295.37 1457.66 Q1293.56 1461.2 1293.56 1468.33 Q1293.56 1475.44 1295.37 1479.01 Q1297.19 1482.55 1300.81 1482.55 Q1304.44 1482.55 1306.25 1479.01 Q1308.07 1475.44 1308.07 1468.33 Q1308.07 1461.2 1306.25 1457.66 Q1304.44 1454.1 1300.81 1454.1 M1300.81 1450.39 Q1306.62 1450.39 1309.67 1455 Q1312.75 1459.58 1312.75 1468.33 Q1312.75 1477.06 1309.67 1481.67 Q1306.62 1486.25 1300.81 1486.25 Q1295 1486.25 1291.92 1481.67 Q1288.86 1477.06 1288.86 1468.33 Q1288.86 1459.58 1291.92 1455 Q1295 1450.39 1300.81 1450.39 Z" fill="#000000" fill-rule="nonzero" fill-opacity="1" /><path clip-path="url(#clip430)" d="M1330.97 1454.1 Q1327.36 1454.1 1325.53 1457.66 Q1323.72 1461.2 1323.72 1468.33 Q1323.72 1475.44 1325.53 1479.01 Q1327.36 1482.55 1330.97 1482.55 Q1334.6 1482.55 1336.41 1479.01 Q1338.24 1475.44 1338.24 1468.33 Q1338.24 1461.2 1336.41 1457.66 Q1334.6 1454.1 1330.97 1454.1 M1330.97 1450.39 Q1336.78 1450.39 1339.83 1455 Q1342.91 1459.58 1342.91 1468.33 Q1342.91 1477.06 1339.83 1481.67 Q1336.78 1486.25 1330.97 1486.25 Q1325.16 1486.25 1322.08 1481.67 Q1319.02 1477.06 1319.02 1468.33 Q1319.02 1459.58 1322.08 1455 Q1325.16 1450.39 1330.97 1450.39 Z" fill="#000000" fill-rule="nonzero" fill-opacity="1" /><path clip-path="url(#clip430)" d="M1755.45 1451.02 L1777.68 1451.02 L1777.68 1453.01 L1765.13 1485.58 L1760.24 1485.58 L1772.05 1454.96 L1755.45 1454.96 L1755.45 1451.02 Z" fill="#000000" fill-rule="nonzero" fill-opacity="1" /><path clip-path="url(#clip430)" d="M1786.84 1451.02 L1805.2 1451.02 L1805.2 1454.96 L1791.12 1454.96 L1791.12 1463.43 Q1792.14 1463.08 1793.16 1462.92 Q1794.18 1462.73 1795.2 1462.73 Q1800.99 1462.73 1804.36 1465.9 Q1807.74 1469.08 1807.74 1474.49 Q1807.74 1480.07 1804.27 1483.17 Q1800.8 1486.25 1794.48 1486.25 Q1792.3 1486.25 1790.04 1485.88 Q1787.79 1485.51 1785.38 1484.77 L1785.38 1480.07 Q1787.47 1481.2 1789.69 1481.76 Q1791.91 1482.32 1794.39 1482.32 Q1798.39 1482.32 1800.73 1480.21 Q1803.07 1478.1 1803.07 1474.49 Q1803.07 1470.88 1800.73 1468.77 Q1798.39 1466.67 1794.39 1466.67 Q1792.51 1466.67 1790.64 1467.08 Q1788.79 1467.5 1786.84 1468.38 L1786.84 1451.02 Z" fill="#000000" fill-rule="nonzero" fill-opacity="1" /><path clip-path="url(#clip430)" d="M1826.96 1454.1 Q1823.35 1454.1 1821.52 1457.66 Q1819.71 1461.2 1819.71 1468.33 Q1819.71 1475.44 1821.52 1479.01 Q1823.35 1482.55 1826.96 1482.55 Q1830.59 1482.55 1832.4 1479.01 Q1834.23 1475.44 1834.23 1468.33 Q1834.23 1461.2 1832.4 1457.66 Q1830.59 1454.1 1826.96 1454.1 M1826.96 1450.39 Q1832.77 1450.39 1835.82 1455 Q1838.9 1459.58 1838.9 1468.33 Q1838.9 1477.06 1835.82 1481.67 Q1832.77 1486.25 1826.96 1486.25 Q1821.15 1486.25 1818.07 1481.67 Q1815.01 1477.06 1815.01 1468.33 Q1815.01 1459.58 1818.07 1455 Q1821.15 1450.39 1826.96 1450.39 Z" fill="#000000" fill-rule="nonzero" fill-opacity="1" /><path clip-path="url(#clip430)" d="M2237.81 1481.64 L2245.45 1481.64 L2245.45 1455.28 L2237.14 1456.95 L2237.14 1452.69 L2245.4 1451.02 L2250.08 1451.02 L2250.08 1481.64 L2257.72 1481.64 L2257.72 1485.58 L2237.81 1485.58 L2237.81 1481.64 Z" fill="#000000" fill-rule="nonzero" fill-opacity="1" /><path clip-path="url(#clip430)" d="M2277.16 1454.1 Q2273.55 1454.1 2271.72 1457.66 Q2269.91 1461.2 2269.91 1468.33 Q2269.91 1475.44 2271.72 1479.01 Q2273.55 1482.55 2277.16 1482.55 Q2280.79 1482.55 2282.6 1479.01 Q2284.43 1475.44 2284.43 1468.33 Q2284.43 1461.2 2282.6 1457.66 Q2280.79 1454.1 2277.16 1454.1 M2277.16 1450.39 Q2282.97 1450.39 2286.03 1455 Q2289.1 1459.58 2289.1 1468.33 Q2289.1 1477.06 2286.03 1481.67 Q2282.97 1486.25 2277.16 1486.25 Q2271.35 1486.25 2268.27 1481.67 Q2265.22 1477.06 2265.22 1468.33 Q2265.22 1459.58 2268.27 1455 Q2271.35 1450.39 2277.16 1450.39 Z" fill="#000000" fill-rule="nonzero" fill-opacity="1" /><path clip-path="url(#clip430)" d="M2307.32 1454.1 Q2303.71 1454.1 2301.88 1457.66 Q2300.08 1461.2 2300.08 1468.33 Q2300.08 1475.44 2301.88 1479.01 Q2303.71 1482.55 2307.32 1482.55 Q2310.96 1482.55 2312.76 1479.01 Q2314.59 1475.44 2314.59 1468.33 Q2314.59 1461.2 2312.76 1457.66 Q2310.96 1454.1 2307.32 1454.1 M2307.32 1450.39 Q2313.13 1450.39 2316.19 1455 Q2319.27 1459.58 2319.27 1468.33 Q2319.27 1477.06 2316.19 1481.67 Q2313.13 1486.25 2307.32 1486.25 Q2301.51 1486.25 2298.43 1481.67 Q2295.38 1477.06 2295.38 1468.33 Q2295.38 1459.58 2298.43 1455 Q2301.51 1450.39 2307.32 1450.39 Z" fill="#000000" fill-rule="nonzero" fill-opacity="1" /><path clip-path="url(#clip430)" d="M2337.48 1454.1 Q2333.87 1454.1 2332.04 1457.66 Q2330.24 1461.2 2330.24 1468.33 Q2330.24 1475.44 2332.04 1479.01 Q2333.87 1482.55 2337.48 1482.55 Q2341.12 1482.55 2342.92 1479.01 Q2344.75 1475.44 2344.75 1468.33 Q2344.75 1461.2 2342.92 1457.66 Q2341.12 1454.1 2337.48 1454.1 M2337.48 1450.39 Q2343.29 1450.39 2346.35 1455 Q2349.43 1459.58 2349.43 1468.33 Q2349.43 1477.06 2346.35 1481.67 Q2343.29 1486.25 2337.48 1486.25 Q2331.67 1486.25 2328.6 1481.67 Q2325.54 1477.06 2325.54 1468.33 Q2325.54 1459.58 2328.6 1455 Q2331.67 1450.39 2337.48 1450.39 Z" fill="#000000" fill-rule="nonzero" fill-opacity="1" /><path clip-path="url(#clip430)" d="M1169.78 1520.52 L1176.21 1520.52 L1176.21 1568.04 L1169.78 1568.04 L1169.78 1520.52 Z" fill="#000000" fill-rule="nonzero" fill-opacity="1" /><path clip-path="url(#clip430)" d="M1194.55 1522.27 L1194.55 1532.4 L1206.61 1532.4 L1206.61 1536.95 L1194.55 1536.95 L1194.55 1556.3 Q1194.55 1560.66 1195.72 1561.9 Q1196.93 1563.14 1200.59 1563.14 L1206.61 1563.14 L1206.61 1568.04 L1200.59 1568.04 Q1193.82 1568.04 1191.24 1565.53 Q1188.66 1562.98 1188.66 1556.3 L1188.66 1536.95 L1184.36 1536.95 L1184.36 1532.4 L1188.66 1532.4 L1188.66 1522.27 L1194.55 1522.27 Z" fill="#000000" fill-rule="nonzero" fill-opacity="1" /><path clip-path="url(#clip430)" d="M1244.8 1548.76 L1244.8 1551.62 L1217.88 1551.62 Q1218.26 1557.67 1221.51 1560.85 Q1224.78 1564 1230.61 1564 Q1233.98 1564 1237.13 1563.17 Q1240.32 1562.35 1243.44 1560.69 L1243.44 1566.23 Q1240.28 1567.57 1236.97 1568.27 Q1233.66 1568.97 1230.26 1568.97 Q1221.73 1568.97 1216.73 1564 Q1211.77 1559.04 1211.77 1550.57 Q1211.77 1541.82 1216.48 1536.69 Q1221.22 1531.54 1229.24 1531.54 Q1236.43 1531.54 1240.6 1536.18 Q1244.8 1540.8 1244.8 1548.76 M1238.95 1547.04 Q1238.88 1542.23 1236.24 1539.37 Q1233.63 1536.5 1229.3 1536.5 Q1224.4 1536.5 1221.44 1539.27 Q1218.51 1542.04 1218.07 1547.07 L1238.95 1547.04 Z" fill="#000000" fill-rule="nonzero" fill-opacity="1" /><path clip-path="url(#clip430)" d="M1275.07 1537.87 Q1274.09 1537.3 1272.91 1537.04 Q1271.76 1536.76 1270.36 1536.76 Q1265.4 1536.76 1262.72 1540 Q1260.08 1543.22 1260.08 1549.27 L1260.08 1568.04 L1254.19 1568.04 L1254.19 1532.4 L1260.08 1532.4 L1260.08 1537.93 Q1261.93 1534.69 1264.89 1533.13 Q1267.85 1531.54 1272.08 1531.54 Q1272.69 1531.54 1273.42 1531.63 Q1274.15 1531.7 1275.04 1531.85 L1275.07 1537.87 Z" fill="#000000" fill-rule="nonzero" fill-opacity="1" /><path clip-path="url(#clip430)" d="M1297.42 1550.12 Q1290.32 1550.12 1287.58 1551.75 Q1284.84 1553.37 1284.84 1557.29 Q1284.84 1560.4 1286.88 1562.25 Q1288.95 1564.07 1292.48 1564.07 Q1297.35 1564.07 1300.28 1560.63 Q1303.24 1557.16 1303.24 1551.43 L1303.24 1550.12 L1297.42 1550.12 M1309.1 1547.71 L1309.1 1568.04 L1303.24 1568.04 L1303.24 1562.63 Q1301.24 1565.88 1298.24 1567.44 Q1295.25 1568.97 1290.92 1568.97 Q1285.45 1568.97 1282.2 1565.91 Q1278.99 1562.82 1278.99 1557.67 Q1278.99 1551.65 1283 1548.6 Q1287.04 1545.54 1295.03 1545.54 L1303.24 1545.54 L1303.24 1544.97 Q1303.24 1540.93 1300.57 1538.73 Q1297.93 1536.5 1293.12 1536.5 Q1290.06 1536.5 1287.17 1537.23 Q1284.27 1537.97 1281.6 1539.43 L1281.6 1534.02 Q1284.81 1532.78 1287.84 1532.17 Q1290.86 1531.54 1293.72 1531.54 Q1301.46 1531.54 1305.28 1535.55 Q1309.1 1539.56 1309.1 1547.71 Z" fill="#000000" fill-rule="nonzero" fill-opacity="1" /><path clip-path="url(#clip430)" d="M1326.95 1522.27 L1326.95 1532.4 L1339.02 1532.4 L1339.02 1536.95 L1326.95 1536.95 L1326.95 1556.3 Q1326.95 1560.66 1328.13 1561.9 Q1329.34 1563.14 1333 1563.14 L1339.02 1563.14 L1339.02 1568.04 L1333 1568.04 Q1326.22 1568.04 1323.64 1565.53 Q1321.07 1562.98 1321.07 1556.3 L1321.07 1536.95 L1316.77 1536.95 L1316.77 1532.4 L1321.07 1532.4 L1321.07 1522.27 L1326.95 1522.27 Z" fill="#000000" fill-rule="nonzero" fill-opacity="1" /><path clip-path="url(#clip430)" d="M1346.72 1532.4 L1352.58 1532.4 L1352.58 1568.04 L1346.72 1568.04 L1346.72 1532.4 M1346.72 1518.52 L1352.58 1518.52 L1352.58 1525.93 L1346.72 1525.93 L1346.72 1518.52 Z" fill="#000000" fill-rule="nonzero" fill-opacity="1" /><path clip-path="url(#clip430)" d="M1378.64 1536.5 Q1373.93 1536.5 1371.2 1540.19 Q1368.46 1543.85 1368.46 1550.25 Q1368.46 1556.65 1371.16 1560.34 Q1373.9 1564 1378.64 1564 Q1383.32 1564 1386.06 1560.31 Q1388.8 1556.62 1388.8 1550.25 Q1388.8 1543.92 1386.06 1540.23 Q1383.32 1536.5 1378.64 1536.5 M1378.64 1531.54 Q1386.28 1531.54 1390.64 1536.5 Q1395 1541.47 1395 1550.25 Q1395 1559 1390.64 1564 Q1386.28 1568.97 1378.64 1568.97 Q1370.97 1568.97 1366.61 1564 Q1362.28 1559 1362.28 1550.25 Q1362.28 1541.47 1366.61 1536.5 Q1370.97 1531.54 1378.64 1531.54 Z" fill="#000000" fill-rule="nonzero" fill-opacity="1" /><path clip-path="url(#clip430)" d="M1434.34 1546.53 L1434.34 1568.04 L1428.49 1568.04 L1428.49 1546.72 Q1428.49 1541.66 1426.51 1539.14 Q1424.54 1536.63 1420.59 1536.63 Q1415.85 1536.63 1413.11 1539.65 Q1410.38 1542.68 1410.38 1547.9 L1410.38 1568.04 L1404.49 1568.04 L1404.49 1532.4 L1410.38 1532.4 L1410.38 1537.93 Q1412.48 1534.72 1415.31 1533.13 Q1418.17 1531.54 1421.9 1531.54 Q1428.04 1531.54 1431.19 1535.36 Q1434.34 1539.14 1434.34 1546.53 Z" fill="#000000" fill-rule="nonzero" fill-opacity="1" /><polyline clip-path="url(#clip430)" style="stroke:#000000; stroke-linecap:round; stroke-linejoin:round; stroke-width:4; stroke-opacity:1; fill:none" points="251.372,1423.18 251.372,47.2441 "/>
<polyline clip-path="url(#clip430)" style="stroke:#000000; stroke-linecap:round; stroke-linejoin:round; stroke-width:4; stroke-opacity:1; fill:none" points="251.372,1126.11 270.27,1126.11 "/>
<polyline clip-path="url(#clip430)" style="stroke:#000000; stroke-linecap:round; stroke-linejoin:round; stroke-width:4; stroke-opacity:1; fill:none" points="251.372,548.15 270.27,548.15 "/>
<path clip-path="url(#clip430)" d="M114.931 1145.91 L122.57 1145.91 L122.57 1119.54 L114.26 1121.21 L114.26 1116.95 L122.524 1115.28 L127.2 1115.28 L127.2 1145.91 L134.839 1145.91 L134.839 1149.84 L114.931 1149.84 L114.931 1145.91 Z" fill="#000000" fill-rule="nonzero" fill-opacity="1" /><path clip-path="url(#clip430)" d="M154.283 1118.36 Q150.672 1118.36 148.843 1121.92 Q147.038 1125.47 147.038 1132.6 Q147.038 1139.7 148.843 1143.27 Q150.672 1146.81 154.283 1146.81 Q157.917 1146.81 159.723 1143.27 Q161.552 1139.7 161.552 1132.6 Q161.552 1125.47 159.723 1121.92 Q157.917 1118.36 154.283 1118.36 M154.283 1114.66 Q160.093 1114.66 163.149 1119.26 Q166.227 1123.85 166.227 1132.6 Q166.227 1141.32 163.149 1145.93 Q160.093 1150.51 154.283 1150.51 Q148.473 1150.51 145.394 1145.93 Q142.339 1141.32 142.339 1132.6 Q142.339 1123.85 145.394 1119.26 Q148.473 1114.66 154.283 1114.66 Z" fill="#000000" fill-rule="nonzero" fill-opacity="1" /><path clip-path="url(#clip430)" d="M166.227 1108.76 L190.339 1108.76 L190.339 1111.95 L166.227 1111.95 L166.227 1108.76 Z" fill="#000000" fill-rule="nonzero" fill-opacity="1" /><path clip-path="url(#clip430)" d="M199.197 1119.23 L205.404 1119.23 L205.404 1097.81 L198.652 1099.16 L198.652 1095.7 L205.366 1094.35 L209.166 1094.35 L209.166 1119.23 L215.372 1119.23 L215.372 1122.43 L199.197 1122.43 L199.197 1119.23 Z" fill="#000000" fill-rule="nonzero" fill-opacity="1" /><path clip-path="url(#clip430)" d="M144.667 567.942 L152.305 567.942 L152.305 541.577 L143.995 543.243 L143.995 538.984 L152.259 537.317 L156.935 537.317 L156.935 567.942 L164.574 567.942 L164.574 571.877 L144.667 571.877 L144.667 567.942 Z" fill="#000000" fill-rule="nonzero" fill-opacity="1" /><path clip-path="url(#clip430)" d="M184.018 540.396 Q180.407 540.396 178.578 543.961 Q176.773 547.502 176.773 554.632 Q176.773 561.738 178.578 565.303 Q180.407 568.845 184.018 568.845 Q187.652 568.845 189.458 565.303 Q191.287 561.738 191.287 554.632 Q191.287 547.502 189.458 543.961 Q187.652 540.396 184.018 540.396 M184.018 536.692 Q189.828 536.692 192.884 541.299 Q195.963 545.882 195.963 554.632 Q195.963 563.359 192.884 567.965 Q189.828 572.549 184.018 572.549 Q178.208 572.549 175.129 567.965 Q172.074 563.359 172.074 554.632 Q172.074 545.882 175.129 541.299 Q178.208 536.692 184.018 536.692 Z" fill="#000000" fill-rule="nonzero" fill-opacity="1" /><path clip-path="url(#clip430)" d="M205.667 518.888 Q202.733 518.888 201.248 521.785 Q199.781 524.662 199.781 530.455 Q199.781 536.229 201.248 539.125 Q202.733 542.003 205.667 542.003 Q208.62 542.003 210.087 539.125 Q211.573 536.229 211.573 530.455 Q211.573 524.662 210.087 521.785 Q208.62 518.888 205.667 518.888 M205.667 515.879 Q210.388 515.879 212.871 519.622 Q215.372 523.346 215.372 530.455 Q215.372 537.546 212.871 541.288 Q210.388 545.012 205.667 545.012 Q200.947 545.012 198.445 541.288 Q195.963 537.546 195.963 530.455 Q195.963 523.346 198.445 519.622 Q200.947 515.879 205.667 515.879 Z" fill="#000000" fill-rule="nonzero" fill-opacity="1" /><path clip-path="url(#clip430)" d="M33.7671 1042.8 L14.479 1042.8 L14.479 1036.95 L64.0042 1036.95 L64.0042 1042.8 L58.657 1042.8 Q61.8398 1044.65 63.3994 1047.48 Q64.9272 1050.28 64.9272 1054.23 Q64.9272 1060.69 59.771 1064.76 Q54.6147 1068.81 46.212 1068.81 Q37.8093 1068.81 32.6531 1064.76 Q27.4968 1060.69 27.4968 1054.23 Q27.4968 1050.28 29.0564 1047.48 Q30.5842 1044.65 33.7671 1042.8 M46.212 1062.76 Q52.6732 1062.76 56.3653 1060.12 Q60.0256 1057.44 60.0256 1052.8 Q60.0256 1048.15 56.3653 1045.48 Q52.6732 1042.8 46.212 1042.8 Q39.7508 1042.8 36.0905 1045.48 Q32.3984 1048.15 32.3984 1052.8 Q32.3984 1057.44 36.0905 1060.12 Q39.7508 1062.76 46.212 1062.76 Z" fill="#000000" fill-rule="nonzero" fill-opacity="1" /><path clip-path="url(#clip430)" d="M28.3562 1024.88 L28.3562 1019.03 L64.0042 1019.03 L64.0042 1024.88 L28.3562 1024.88 M14.479 1024.88 L14.479 1019.03 L21.895 1019.03 L21.895 1024.88 L14.479 1024.88 Z" fill="#000000" fill-rule="nonzero" fill-opacity="1" /><path clip-path="url(#clip430)" d="M29.4065 984.047 L34.9447 984.047 Q33.6716 986.53 33.035 989.204 Q32.3984 991.877 32.3984 994.742 Q32.3984 999.102 33.7352 1001.3 Q35.072 1003.46 37.7456 1003.46 Q39.7826 1003.46 40.9603 1001.9 Q42.1061 1000.34 43.1565 995.633 L43.6021 993.628 Q44.9389 987.389 47.3897 984.779 Q49.8086 982.138 54.1691 982.138 Q59.1344 982.138 62.0308 986.084 Q64.9272 989.999 64.9272 996.874 Q64.9272 999.739 64.3543 1002.86 Q63.8132 1005.95 62.6992 1009.38 L56.6518 1009.38 Q58.3387 1006.14 59.198 1002.99 Q60.0256 999.834 60.0256 996.747 Q60.0256 992.609 58.6251 990.381 Q57.1929 988.153 54.6147 988.153 Q52.2276 988.153 50.9545 989.777 Q49.6813 991.368 48.5037 996.811 L48.0262 998.848 Q46.8804 1004.29 44.5251 1006.71 Q42.138 1009.13 38.0002 1009.13 Q32.9713 1009.13 30.2341 1005.56 Q27.4968 1002 27.4968 995.442 Q27.4968 992.196 27.9743 989.331 Q28.4517 986.466 29.4065 984.047 Z" fill="#000000" fill-rule="nonzero" fill-opacity="1" /><path clip-path="url(#clip430)" d="M18.2347 967.019 L28.3562 967.019 L28.3562 954.956 L32.9077 954.956 L32.9077 967.019 L52.2594 967.019 Q56.6199 967.019 57.8613 965.842 Q59.1026 964.632 59.1026 960.972 L59.1026 954.956 L64.0042 954.956 L64.0042 960.972 Q64.0042 967.751 61.4897 970.329 Q58.9434 972.907 52.2594 972.907 L32.9077 972.907 L32.9077 977.204 L28.3562 977.204 L28.3562 972.907 L18.2347 972.907 L18.2347 967.019 Z" fill="#000000" fill-rule="nonzero" fill-opacity="1" /><path clip-path="url(#clip430)" d="M46.0847 931.053 Q46.0847 938.151 47.7079 940.888 Q49.3312 943.625 53.2461 943.625 Q56.3653 943.625 58.2114 941.588 Q60.0256 939.519 60.0256 935.986 Q60.0256 931.117 56.5881 928.188 Q53.1188 925.228 47.3897 925.228 L46.0847 925.228 L46.0847 931.053 M43.6657 919.372 L64.0042 919.372 L64.0042 925.228 L58.5933 925.228 Q61.8398 927.234 63.3994 930.225 Q64.9272 933.217 64.9272 937.546 Q64.9272 943.02 61.8716 946.267 Q58.7843 949.482 53.6281 949.482 Q47.6125 949.482 44.5569 945.471 Q41.5014 941.429 41.5014 933.44 L41.5014 925.228 L40.9285 925.228 Q36.8862 925.228 34.6901 927.902 Q32.4621 930.544 32.4621 935.35 Q32.4621 938.405 33.1941 941.302 Q33.9262 944.198 35.3903 946.872 L29.9795 946.872 Q28.7381 943.657 28.1334 940.633 Q27.4968 937.61 27.4968 934.745 Q27.4968 927.011 31.5072 923.191 Q35.5176 919.372 43.6657 919.372 Z" fill="#000000" fill-rule="nonzero" fill-opacity="1" /><path clip-path="url(#clip430)" d="M42.4881 877.676 L64.0042 877.676 L64.0042 883.533 L42.679 883.533 Q37.6183 883.533 35.1038 885.506 Q32.5894 887.48 32.5894 891.426 Q32.5894 896.169 35.6131 898.906 Q38.6368 901.643 43.8567 901.643 L64.0042 901.643 L64.0042 907.532 L28.3562 907.532 L28.3562 901.643 L33.8944 901.643 Q30.6797 899.543 29.0883 896.71 Q27.4968 893.845 27.4968 890.121 Q27.4968 883.979 31.3163 880.828 Q35.1038 877.676 42.4881 877.676 Z" fill="#000000" fill-rule="nonzero" fill-opacity="1" /><path clip-path="url(#clip430)" d="M29.7248 840.342 L35.1993 840.342 Q33.8307 842.824 33.1623 845.339 Q32.4621 847.821 32.4621 850.368 Q32.4621 856.065 36.0905 859.216 Q39.6872 862.367 46.212 862.367 Q52.7369 862.367 56.3653 859.216 Q59.9619 856.065 59.9619 850.368 Q59.9619 847.821 59.2935 845.339 Q58.5933 842.824 57.2247 840.342 L62.6355 840.342 Q63.7814 842.792 64.3543 845.434 Q64.9272 848.044 64.9272 851.004 Q64.9272 859.057 59.8664 863.799 Q54.8057 868.542 46.212 868.542 Q37.491 868.542 32.4939 863.767 Q27.4968 858.961 27.4968 850.622 Q27.4968 847.917 28.0697 845.339 Q28.6108 842.761 29.7248 840.342 Z" fill="#000000" fill-rule="nonzero" fill-opacity="1" /><path clip-path="url(#clip430)" d="M44.7161 799.665 L47.5806 799.665 L47.5806 826.592 Q53.6281 826.21 56.8109 822.963 Q59.9619 819.685 59.9619 813.86 Q59.9619 810.486 59.1344 807.335 Q58.3069 804.153 56.6518 801.033 L62.1899 801.033 Q63.5267 804.184 64.227 807.495 Q64.9272 810.805 64.9272 814.21 Q64.9272 822.74 59.9619 827.738 Q54.9967 832.703 46.5303 832.703 Q37.7774 832.703 32.6531 827.992 Q27.4968 823.25 27.4968 815.229 Q27.4968 808.036 32.1438 803.866 Q36.7589 799.665 44.7161 799.665 M42.9973 805.521 Q38.1912 805.585 35.3266 808.227 Q32.4621 810.837 32.4621 815.165 Q32.4621 820.067 35.2312 823.027 Q38.0002 825.955 43.0292 826.401 L42.9973 805.521 Z" fill="#000000" fill-rule="nonzero" fill-opacity="1" /><path clip-path="url(#clip430)" d="M18.2347 763.539 L28.3562 763.539 L28.3562 751.476 L32.9077 751.476 L32.9077 763.539 L52.2594 763.539 Q56.6199 763.539 57.8613 762.362 Q59.1026 761.152 59.1026 757.492 L59.1026 751.476 L64.0042 751.476 L64.0042 757.492 Q64.0042 764.271 61.4897 766.85 Q58.9434 769.428 52.2594 769.428 L32.9077 769.428 L32.9077 773.724 L28.3562 773.724 L28.3562 769.428 L18.2347 769.428 L18.2347 763.539 Z" fill="#000000" fill-rule="nonzero" fill-opacity="1" /><path clip-path="url(#clip430)" d="M32.4621 729.96 Q32.4621 734.671 36.1542 737.408 Q39.8145 740.145 46.212 740.145 Q52.6095 740.145 56.3017 737.44 Q59.9619 734.703 59.9619 729.96 Q59.9619 725.281 56.2698 722.544 Q52.5777 719.807 46.212 719.807 Q39.8781 719.807 36.186 722.544 Q32.4621 725.281 32.4621 729.96 M27.4968 729.96 Q27.4968 722.321 32.4621 717.961 Q37.4273 713.6 46.212 713.6 Q54.9649 713.6 59.9619 717.961 Q64.9272 722.321 64.9272 729.96 Q64.9272 737.631 59.9619 741.991 Q54.9649 746.32 46.212 746.32 Q37.4273 746.32 32.4621 741.991 Q27.4968 737.631 27.4968 729.96 Z" fill="#000000" fill-rule="nonzero" fill-opacity="1" /><path clip-path="url(#clip430)" d="M32.4621 669.359 Q32.4621 674.069 36.1542 676.807 Q39.8145 679.544 46.212 679.544 Q52.6095 679.544 56.3017 676.838 Q59.9619 674.101 59.9619 669.359 Q59.9619 664.68 56.2698 661.943 Q52.5777 659.205 46.212 659.205 Q39.8781 659.205 36.186 661.943 Q32.4621 664.68 32.4621 669.359 M27.4968 669.359 Q27.4968 661.72 32.4621 657.359 Q37.4273 652.999 46.212 652.999 Q54.9649 652.999 59.9619 657.359 Q64.9272 661.72 64.9272 669.359 Q64.9272 677.029 59.9619 681.39 Q54.9649 685.719 46.212 685.719 Q37.4273 685.719 32.4621 681.39 Q27.4968 677.029 27.4968 669.359 Z" fill="#000000" fill-rule="nonzero" fill-opacity="1" /><path clip-path="url(#clip430)" d="M58.657 637.626 L77.5631 637.626 L77.5631 643.514 L28.3562 643.514 L28.3562 637.626 L33.7671 637.626 Q30.5842 635.78 29.0564 632.979 Q27.4968 630.146 27.4968 626.231 Q27.4968 619.738 32.6531 615.696 Q37.8093 611.622 46.212 611.622 Q54.6147 611.622 59.771 615.696 Q64.9272 619.738 64.9272 626.231 Q64.9272 630.146 63.3994 632.979 Q61.8398 635.78 58.657 637.626 M46.212 617.701 Q39.7508 617.701 36.0905 620.375 Q32.3984 623.016 32.3984 627.663 Q32.3984 632.31 36.0905 634.984 Q39.7508 637.626 46.212 637.626 Q52.6732 637.626 56.3653 634.984 Q60.0256 632.31 60.0256 627.663 Q60.0256 623.016 56.3653 620.375 Q52.6732 617.701 46.212 617.701 Z" fill="#000000" fill-rule="nonzero" fill-opacity="1" /><path clip-path="url(#clip430)" d="M18.2347 596.121 L28.3562 596.121 L28.3562 584.058 L32.9077 584.058 L32.9077 596.121 L52.2594 596.121 Q56.6199 596.121 57.8613 594.944 Q59.1026 593.734 59.1026 590.074 L59.1026 584.058 L64.0042 584.058 L64.0042 590.074 Q64.0042 596.853 61.4897 599.431 Q58.9434 602.01 52.2594 602.01 L32.9077 602.01 L32.9077 606.306 L28.3562 606.306 L28.3562 602.01 L18.2347 602.01 L18.2347 596.121 Z" fill="#000000" fill-rule="nonzero" fill-opacity="1" /><path clip-path="url(#clip430)" d="M28.3562 576.356 L28.3562 570.499 L64.0042 570.499 L64.0042 576.356 L28.3562 576.356 M14.479 576.356 L14.479 570.499 L21.895 570.499 L21.895 576.356 L14.479 576.356 Z" fill="#000000" fill-rule="nonzero" fill-opacity="1" /><path clip-path="url(#clip430)" d="M35.1993 530.491 Q31.2526 528.295 29.3747 525.239 Q27.4968 522.184 27.4968 518.046 Q27.4968 512.476 31.4117 509.452 Q35.2948 506.428 42.4881 506.428 L64.0042 506.428 L64.0042 512.317 L42.679 512.317 Q37.5546 512.317 35.072 514.131 Q32.5894 515.945 32.5894 519.669 Q32.5894 524.221 35.6131 526.862 Q38.6368 529.504 43.8567 529.504 L64.0042 529.504 L64.0042 535.392 L42.679 535.392 Q37.5228 535.392 35.072 537.207 Q32.5894 539.021 32.5894 542.808 Q32.5894 547.296 35.6449 549.938 Q38.6686 552.58 43.8567 552.58 L64.0042 552.58 L64.0042 558.468 L28.3562 558.468 L28.3562 552.58 L33.8944 552.58 Q30.616 550.575 29.0564 547.774 Q27.4968 544.973 27.4968 541.122 Q27.4968 537.238 29.4702 534.533 Q31.4436 531.796 35.1993 530.491 Z" fill="#000000" fill-rule="nonzero" fill-opacity="1" /><path clip-path="url(#clip430)" d="M49.9359 495.352 L28.3562 495.352 L28.3562 489.496 L49.7131 489.496 Q54.7739 489.496 57.3202 487.522 Q59.8346 485.549 59.8346 481.602 Q59.8346 476.86 56.8109 474.123 Q53.7872 471.353 48.5673 471.353 L28.3562 471.353 L28.3562 465.497 L64.0042 465.497 L64.0042 471.353 L58.5296 471.353 Q61.7762 473.486 63.3676 476.319 Q64.9272 479.12 64.9272 482.844 Q64.9272 488.986 61.1078 492.169 Q57.2883 495.352 49.9359 495.352 M27.4968 480.616 L27.4968 480.616 Z" fill="#000000" fill-rule="nonzero" fill-opacity="1" /><path clip-path="url(#clip430)" d="M35.1993 425.679 Q31.2526 423.483 29.3747 420.428 Q27.4968 417.372 27.4968 413.235 Q27.4968 407.665 31.4117 404.641 Q35.2948 401.617 42.4881 401.617 L64.0042 401.617 L64.0042 407.505 L42.679 407.505 Q37.5546 407.505 35.072 409.32 Q32.5894 411.134 32.5894 414.858 Q32.5894 419.409 35.6131 422.051 Q38.6368 424.693 43.8567 424.693 L64.0042 424.693 L64.0042 430.581 L42.679 430.581 Q37.5228 430.581 35.072 432.395 Q32.5894 434.21 32.5894 437.997 Q32.5894 442.485 35.6449 445.127 Q38.6686 447.768 43.8567 447.768 L64.0042 447.768 L64.0042 453.657 L28.3562 453.657 L28.3562 447.768 L33.8944 447.768 Q30.616 445.763 29.0564 442.962 Q27.4968 440.161 27.4968 436.31 Q27.4968 432.427 29.4702 429.722 Q31.4436 426.984 35.1993 425.679 Z" fill="#000000" fill-rule="nonzero" fill-opacity="1" /><polyline clip-path="url(#clip432)" style="stroke:#009af9; stroke-linecap:round; stroke-linejoin:round; stroke-width:4; stroke-opacity:1; fill:none" points="310.845,86.1857 312.83,87.1761 314.814,88.2342 316.799,89.2864 318.783,90.3935 320.767,91.5075 322.752,92.6121 324.736,93.7225 326.721,94.8525 328.705,95.9968 330.69,97.176 332.674,98.3526 334.658,99.539 336.643,100.722 338.627,101.917 340.612,103.126 342.596,104.319 344.58,105.52 346.565,106.741 348.549,107.939 350.534,109.125 352.518,110.317 354.503,111.506 356.487,112.714 358.471,113.922 360.456,115.154 362.44,116.404 364.425,117.608 366.409,118.802 368.394,120.037 370.378,121.276 372.362,122.518 374.347,123.773 376.331,125.01 378.316,126.235 380.3,127.473 382.284,128.732 384.269,130.025 386.253,131.315 388.238,132.619 390.222,133.904 392.207,135.225 394.191,136.534 396.175,137.817 398.16,139.083 400.144,140.384 402.129,141.696 404.113,143.02 406.098,144.336 408.082,145.631 410.066,146.95 412.051,148.268 414.035,149.594 416.02,150.91 418.004,152.258 419.989,153.618 421.973,154.978 423.957,156.375 425.942,157.798 427.926,159.218 429.911,160.652 431.895,162.072 433.879,163.493 435.864,164.893 437.848,166.329 439.833,167.789 441.817,169.201 443.802,170.607 445.786,172.039 447.77,173.509 449.755,174.947 451.739,176.416 453.724,177.893 455.708,179.347 457.693,180.789 459.677,182.26 461.661,183.7 463.646,185.152 465.63,186.601 467.615,187.97 469.599,189.318 471.583,190.69 473.568,192.033 475.552,193.403 477.537,194.756 479.521,196.077 481.506,197.391 483.49,198.689 485.474,200.018 487.459,201.319 489.443,202.571 491.428,203.84 493.412,205.184 495.397,206.55 497.381,207.913 499.365,209.265 501.35,210.62 503.334,211.96 505.319,213.337 507.303,214.696 509.287,216.022 511.272,217.337 513.256,218.628 515.241,219.938 517.225,221.305 519.21,222.706 521.194,224.036 523.178,225.41 525.163,226.792 527.147,228.237 529.132,229.642 531.116,231.035 533.101,232.39 535.085,233.81 537.069,235.251 539.054,236.721 541.038,238.196 543.023,239.654 545.007,241.122 546.992,242.582 548.976,244.041 550.96,245.558 552.945,247.036 554.929,248.509 556.914,249.977 558.898,251.422 560.882,252.911 562.867,254.366 564.851,255.842 566.836,257.329 568.82,258.848 570.805,260.328 572.789,261.741 574.773,263.166 576.758,264.625 578.742,266.092 580.727,267.61 582.711,269.068 584.696,270.543 586.68,272.097 588.664,273.589 590.649,275.172 592.633,276.836 594.618,278.532 596.602,280.218 598.586,281.783 600.571,283.404 602.555,285.016 604.54,286.572 606.524,288.138 608.509,289.737 610.493,291.388 612.477,292.938 614.462,294.441 616.446,295.911 618.431,297.364 620.415,298.835 622.4,300.377 624.384,301.849 626.368,303.289 628.353,304.764 630.337,306.208 632.322,307.686 634.306,309.176 636.29,310.627 638.275,312.092 640.259,313.548 642.244,315.031 644.228,316.609 646.213,318.201 648.197,319.78 650.181,321.152 652.166,322.682 654.15,324.407 656.135,326.079 658.119,327.783 660.104,329.415 662.088,331.074 664.072,332.687 666.057,334.31 668.041,335.809 670.026,337.335 672.01,339.037 673.995,340.824 675.979,342.551 677.963,344.354 679.948,346.003 681.932,347.703 683.917,349.372 685.901,351.032 687.885,352.682 689.87,354.376 691.854,356.062 693.839,357.713 695.823,359.279 697.808,360.955 699.792,362.557 701.776,364.074 703.761,365.639 705.745,367.261 707.73,368.833 709.714,370.373 711.699,371.951 713.683,373.605 715.667,375.265 717.652,376.988 719.636,378.814 721.621,380.674 723.605,382.615 725.589,384.506 727.574,386.268 729.558,387.985 731.543,389.601 733.527,391.192 735.512,392.905 737.496,394.704 739.48,396.496 741.465,398.436 743.449,400.32 745.434,402.083 747.418,403.862 749.403,405.558 751.387,407.326 753.371,409.141 755.356,410.727 757.34,412.348 759.325,414.103 761.309,415.885 763.293,417.558 765.278,419.12 767.262,420.73 769.247,422.383 771.231,424.031 773.216,425.736 775.2,427.489 777.184,429.443 779.169,431.149 781.153,432.862 783.138,434.431 785.122,436.042 787.107,437.777 789.091,439.419 791.075,441.102 793.06,442.736 795.044,444.348 797.029,446.031 799.013,447.767 800.998,449.456 802.982,450.935 804.966,452.356 806.951,453.762 808.935,455.15 810.92,456.396 812.904,457.675 814.888,459.026 816.873,460.386 818.857,461.879 820.842,463.524 822.826,465.31 824.811,467.19 826.795,469.139 828.779,471.162 830.764,473.168 832.748,475.169 834.733,477.208 836.717,479.41 838.702,481.523 840.686,483.518 842.67,485.529 844.655,487.833 846.639,490.157 848.624,492.551 850.608,494.976 852.592,497.127 854.577,499.306 856.561,501.399 858.546,503.443 860.53,505.47 862.515,507.588 864.499,509.709 866.483,511.69 868.468,513.748 870.452,515.789 872.437,517.934 874.421,519.814 876.406,521.62 878.39,523.57 880.374,525.531 882.359,527.475 884.343,529.472 886.328,531.124 888.312,533.052 890.296,534.98 892.281,537.122 894.265,539.087 896.25,541.083 898.234,543.272 900.219,545.465 902.203,548.046 904.187,550.576 906.172,553.099 908.156,555.572 910.141,558.255 912.125,560.731 914.11,562.775 916.094,564.864 918.078,566.739 920.063,568.609 922.047,570.364 924.032,572.211 926.016,573.9 928.001,575.707 929.985,577.435 931.969,578.93 933.954,580.316 935.938,581.741 937.923,582.961 939.907,584.647 941.891,586.346 943.876,588.22 945.86,590.058 947.845,591.709 949.829,593.076 951.814,594.419 953.798,595.597 955.782,596.863 957.767,598.141 959.751,599.69 961.736,601.001 963.72,602.641 965.705,604.377 967.689,606.329 969.673,608.074 971.658,609.807 973.642,611.04 975.627,611.888 977.611,612.716 979.595,613.612 981.58,614.794 983.564,615.966 985.549,617.183 987.533,618.931 989.518,620.718 991.502,622.627 993.486,624.252 995.471,626.197 997.455,628.298 999.44,630.29 1001.42,632.105 1003.41,633.714 1005.39,635.192 1007.38,636.991 1009.36,639.338 1011.35,641.47 1013.33,643.889 1015.32,645.923 1017.3,647.883 1019.28,649.923 1021.27,652.046 1023.25,653.9 1025.24,655.636 1027.22,657.248 1029.21,659.222 1031.19,660.658 1033.17,662.7 1035.16,664.619 1037.14,666.001 1039.13,667.561 1041.11,669.198 1043.1,670.994 1045.08,672.95 1047.07,674.469 1049.05,676.509 1051.03,678.223 1053.02,679.622 1055,680.477 1056.99,681.769 1058.97,683.628 1060.96,685.306 1062.94,686.847 1064.93,688.314 1066.91,690.101 1068.89,692.27 1070.88,694.349 1072.86,696.905 1074.85,698.729 1076.83,701.107 1078.82,703.508 1080.8,705.183 1082.79,706.825 1084.77,708.364 1086.75,710.341 1088.74,712.391 1090.72,713.894 1092.71,715.276 1094.69,717.085 1096.68,718.353 1098.66,719.441 1100.65,720.597 1102.63,721.578 1104.61,723.136 1106.6,724.852 1108.58,726.592 1110.57,728.142 1112.55,729.515 1114.54,730.569 1116.52,732.127 1118.51,733.019 1120.49,734.107 1122.47,735.415 1124.46,736.807 1126.44,738.45 1128.43,739.339 1130.41,740.204 1132.4,741.763 1134.38,743.173 1136.36,745.104 1138.35,747.036 1140.33,748.692 1142.32,750.135 1144.3,751.813 1146.29,753.361 1148.27,755.234 1150.26,756.955 1152.24,758.529 1154.22,760.49 1156.21,762.061 1158.19,763.383 1160.18,765.305 1162.16,766.369 1164.15,767.215 1166.13,767.633 1168.12,768.288 1170.1,769.579 1172.08,770.151 1174.07,770.989 1176.05,772.258 1178.04,774.833 1180.02,777.49 1182.01,779.253 1183.99,781.376 1185.98,783.971 1187.96,786.658 1189.94,789.443 1191.93,791.812 1193.91,793.593 1195.9,795.366 1197.88,797.198 1199.87,798.874 1201.85,800.795 1203.84,802.713 1205.82,803.522 1207.8,804.22 1209.79,805.062 1211.77,806.234 1213.76,807.606 1215.74,809.173 1217.73,810.851 1219.71,812.544 1221.69,813.984 1223.68,814.756 1225.66,815.517 1227.65,815.868 1229.63,816.792 1231.62,818.744 1233.6,820.106 1235.59,821.868 1237.57,823.995 1239.55,825.97 1241.54,827.58 1243.52,828.882 1245.51,831.205 1247.49,832.159 1249.48,833.244 1251.46,834.373 1253.45,835.219 1255.43,836.973 1257.41,838.183 1259.4,838.987 1261.38,839.908 1263.37,840.573 1265.35,841.399 1267.34,842.936 1269.32,845.035 1271.31,847.114 1273.29,847.844 1275.27,849.369 1277.26,851.71 1279.24,853.822 1281.23,856.507 1283.21,857.389 1285.2,858.945 1287.18,860.586 1289.17,861.698 1291.15,862.18 1293.13,861.708 1295.12,861.267 1297.1,860.431 1299.09,859.581 1301.07,858.259 1303.06,856.554 1305.04,854.73 1307.03,852.925 1309.01,850.02 1310.99,848.477 1312.98,846.548 1314.96,845.283 1316.95,844.853 1318.93,843.837 1320.92,843.237 1322.9,842.838 1324.88,841.572 1326.87,841.652 1328.85,842.147 1330.84,842.628 1332.82,843.438 1334.81,844.07 1336.79,844.336 1338.78,844.879 1340.76,844.818 1342.74,844.739 1344.73,844.184 1346.71,842.998 1348.7,842.1 1350.68,841.393 1352.67,840.545 1354.65,841.864 1356.64,844.498 1358.62,846.61 1360.6,847.01 1362.59,847.848 1364.57,848.148 1366.56,850.237 1368.54,851.792 1370.53,855.239 1372.51,858.786 1374.5,862.293 1376.48,865.055 1378.46,868.371 1380.45,870.183 1382.43,873.027 1384.42,874.956 1386.4,876.4 1388.39,877.73 1390.37,879.231 1392.36,880.837 1394.34,881.683 1396.32,883.074 1398.31,883.702 1400.29,884.418 1402.28,884.808 1404.26,884.818 1406.25,883.816 1408.23,883.317 1410.22,883.131 1412.2,883.111 1414.18,884.351 1416.17,885.567 1418.15,886.946 1420.14,888.09 1422.12,889.404 1424.11,889.465 1426.09,889.636 1428.07,890.272 1430.06,890.449 1432.04,890.811 1434.03,890.538 1436.01,891.943 1438,894.346 1439.98,896.397 1441.97,898.345 1443.95,901.075 1445.93,902.89 1447.92,905.237 1449.9,908.129 1451.89,911.428 1453.87,914.197 1455.86,916.256 1457.84,918.179 1459.83,920.25 1461.81,922.153 1463.79,921.499 1465.78,920.697 1467.76,920.894 1469.75,921.212 1471.73,920.14 1473.72,917.529 1475.7,913.484 1477.69,910.144 1479.67,906.958 1481.65,904.396 1483.64,902.427 1485.62,900.491 1487.61,899.011 1489.59,897.259 1491.58,895.061 1493.56,893.626 1495.55,892.292 1497.53,890.249 1499.51,889.088 1501.5,887.589 1503.48,886.243 1505.47,885.1 1507.45,884.296 1509.44,883.451 1511.42,882.231 1513.4,880.149 1515.39,877.327 1517.37,874.746 1519.36,873.405 1521.34,871.932 1523.33,871.126 1525.31,870.23 1527.3,869.405 1529.28,868.487 1531.26,867.728 1533.25,868.244 1535.23,868.639 1537.22,868.571 1539.2,869.194 1541.19,870.171 1543.17,870.773 1545.16,871.912 1547.14,873.428 1549.12,874.832 1551.11,875.956 1553.09,877.384 1555.08,878.385 1557.06,879.129 1559.05,879.69 1561.03,882.39 1563.02,884.606 1565,887.45 1566.98,889.36 1568.97,891.612 1570.95,893.504 1572.94,895.436 1574.92,896.327 1576.91,897.069 1578.89,898.717 1580.88,900.971 1582.86,903.786 1584.84,906.289 1586.83,907.569 1588.81,907.176 1590.8,907.005 1592.78,907.937 1594.77,908.687 1596.75,908.17 1598.74,908.135 1600.72,907.829 1602.7,907.381 1604.69,908.53 1606.67,910.433 1608.66,911.865 1610.64,913.243 1612.63,913.489 1614.61,913.25 1616.59,914.831 1618.58,916.967 1620.56,919.83 1622.55,923.197 1624.53,925.331 1626.52,926.272 1628.5,926.12 1630.49,926.778 1632.47,927.427 1634.45,927.837 1636.44,928.21 1638.42,927.955 1640.41,927.437 1642.39,927.294 1644.38,928.083 1646.36,928.233 1648.35,927.703 1650.33,928.69 1652.31,929.494 1654.3,929.785 1656.28,930.428 1658.27,932.047 1660.25,934.65 1662.24,937.103 1664.22,939.29 1666.21,939.673 1668.19,939.647 1670.17,939.984 1672.16,939.382 1674.14,938.223 1676.13,938.237 1678.11,938.402 1680.1,937.916 1682.08,937.185 1684.07,936.669 1686.05,937.442 1688.03,935.166 1690.02,932.836 1692,930.269 1693.99,928.383 1695.97,927.809 1697.96,927.19 1699.94,926.51 1701.93,926.831 1703.91,926.946 1705.89,925.882 1707.88,927.37 1709.86,929.044 1711.85,929.314 1713.83,929.326 1715.82,928.973 1717.8,930.104 1719.78,931.295 1721.77,932.997 1723.75,933.927 1725.74,934.861 1727.72,936.051 1729.71,935.941 1731.69,935.631 1733.68,935.787 1735.66,936.916 1737.64,937.995 1739.63,937.935 1741.61,936.496 1743.6,935.608 1745.58,934.256 1747.57,933.309 1749.55,932.414 1751.54,932.599 1753.52,932.807 1755.5,933.463 1757.49,933.637 1759.47,932.83 1761.46,931.666 1763.44,929.547 1765.43,927.882 1767.41,927.102 1769.4,924.487 1771.38,921.428 1773.36,918.425 1775.35,915.424 1777.33,914.714 1779.32,914.742 1781.3,914.773 1783.29,915.017 1785.27,916.608 1787.26,917.495 1789.24,918.31 1791.22,920.142 1793.21,921.634 1795.19,922.451 1797.18,923.026 1799.16,923.151 1801.15,922.364 1803.13,923.974 1805.11,924.664 1807.1,925.749 1809.08,925.863 1811.07,925.874 1813.05,925.686 1815.04,925.956 1817.02,925.549 1819.01,925.687 1820.99,924.911 1822.97,923.475 1824.96,922.135 1826.94,921.074 1828.93,919.492 1830.91,917.574 1832.9,914.18 1834.88,910.126 1836.87,907.315 1838.85,903.701 1840.83,903.381 1842.82,903.133 1844.8,902.098 1846.79,901.07 1848.77,898.958 1850.76,897.491 1852.74,895.643 1854.73,895.675 1856.71,895.089 1858.69,895.369 1860.68,895.707 1862.66,896.291 1864.65,896.622 1866.63,897.851 1868.62,898.987 1870.6,901.092 1872.59,902.584 1874.57,902.632 1876.55,901.774 1878.54,900.441 1880.52,898.487 1882.51,897.083 1884.49,897.053 1886.48,897.82 1888.46,897.547 1890.45,898.412 1892.43,899.491 1894.41,899.761 1896.4,899.503 1898.38,899.288 1900.37,897.997 1902.35,896.938 1904.34,896.014 1906.32,894.438 1908.3,892.104 1910.29,890.466 1912.27,889.511 1914.26,888.156 1916.24,884.769 1918.23,881.113 1920.21,878.048 1922.2,875.261 1924.18,874.814 1926.16,873.255 1928.15,872.555 1930.13,871.241 1932.12,869.734 1934.1,870.034 1936.09,870.279 1938.07,869.99 1940.06,871.572 1942.04,873.156 1944.02,875.473 1946.01,878.691 1947.99,882.326 1949.98,884.656 1951.96,886.183 1953.95,887.027 1955.93,887.702 1957.92,889.242 1959.9,890.65 1961.88,891.086 1963.87,892.281 1965.85,895.292 1967.84,896.876 1969.82,898.012 1971.81,899.666 1973.79,901.705 1975.78,903.646 1977.76,904.574 1979.74,906.875 1981.73,909.306 1983.71,912.445 1985.7,915.257 1987.68,918.187 1989.67,919.736 1991.65,921.29 1993.64,922.735 1995.62,922.227 1997.6,920.865 1999.59,919.854 2001.57,915.996 2003.56,912.708 2005.54,910.402 2007.53,907.391 2009.51,904.482 2011.49,902.059 2013.48,900.587 2015.46,900.142 2017.45,900.119 2019.43,900.014 2021.42,900.345 2023.4,900.742 2025.39,901.402 2027.37,901.921 2029.35,902.892 2031.34,899.404 2033.32,895.575 2035.31,891.428 2037.29,887.044 2039.28,882.801 2041.26,879.219 2043.25,876.05 2045.23,873.984 2047.21,873.303 2049.2,872.67 2051.18,872.298 2053.17,871.828 2055.15,871.888 2057.14,872.511 2059.12,873.851 2061.11,874.604 2063.09,874.881 2065.07,875.932 2067.06,876.289 2069.04,875.661 2071.03,875.677 2073.01,875.661 2075,875.019 2076.98,873.9 2078.97,872.811 2080.95,872.318 2082.93,871.234 2084.92,870.242 2086.9,869.518 2088.89,871.531 2090.87,873.675 2092.86,875.551 2094.84,875.8 2096.83,876.789 2098.81,878.747 2100.79,880.113 2102.78,881.064 2104.76,884.355 2106.75,887.282 2108.73,889.456 2110.72,891.826 2112.7,893.767 2114.68,896.054 2116.67,897.221 2118.65,898.641 2120.64,898.947 2122.62,898.795 2124.61,898.691 2126.59,900.852 2128.58,903.876 2130.56,906.126 2132.54,906.505 2134.53,906.503 2136.51,905.791 2138.5,904.01 2140.48,900.788 2142.47,897.982 2144.45,894.714 2146.44,893.846 2148.42,892.011 2150.4,889.636 2152.39,886.632 2154.37,883.267 2156.36,880.331 2158.34,876.426 2160.33,872.845 2162.31,869.281 2164.3,866.793 2166.28,865.582 2168.26,866.001 2170.25,866.123 2172.23,866.581 2174.22,867.549 2176.2,868.331 2178.19,869.019 2180.17,870.397 2182.16,872.045 2184.14,872.98 2186.12,872.882 2188.11,872.586 2190.09,872.793 2192.08,873.86 2194.06,875.065 2196.05,875.62 2198.03,875.566 2200.01,874.25 2202,872.751 2203.98,872.32 2205.97,872.451 2207.95,874.259 2209.94,876.688 2211.92,880.81 2213.91,884.055 2215.89,886.593 2217.87,888.826 2219.86,890.608 2221.84,891.648 2223.83,891.312 2225.81,891.706 2227.8,890.861 2229.78,889.015 2231.77,886.769 2233.75,885.958 2235.73,887.233 2237.72,887.734 2239.7,888.038 2241.69,888.389 2243.67,889.874 2245.66,891.013 2247.64,891.65 2249.63,890.968 2251.61,889.109 2253.59,887.011 2255.58,884.637 2257.56,882.582 2259.55,879.839 2261.53,876.87 2263.52,874.236 2265.5,873.191 2267.49,873.357 2269.47,872.595 2271.45,871.839 2273.44,871.089 2275.42,870.403 2277.41,869.893 2279.39,869.618 2281.38,869.487 2283.36,869.624 2285.35,867.883 2287.33,866.027 2289.31,865.019 2291.3,863.846 2293.28,862.986 "/>
<polyline clip-path="url(#clip432)" style="stroke:#e26f46; stroke-linecap:round; stroke-linejoin:round; stroke-width:4; stroke-opacity:1; fill:none" points="310.845,86.4389 312.83,87.6994 314.814,88.9661 316.799,90.2388 318.783,91.5165 320.767,92.8014 322.752,94.0935 324.736,95.3949 326.721,96.7029 328.705,98.0179 330.69,99.3403 332.674,100.667 334.658,101.999 336.643,103.336 338.627,104.677 340.612,106.022 342.596,107.371 344.58,108.726 346.565,110.085 348.549,111.45 350.534,112.819 352.518,114.192 354.503,115.57 356.487,116.955 358.471,118.346 360.456,119.743 362.44,121.146 364.425,122.553 366.409,123.967 368.394,125.386 370.378,126.808 372.362,128.237 374.347,129.671 376.331,131.11 378.316,132.552 380.3,134 382.284,135.45 384.269,136.903 386.253,138.361 388.238,139.822 390.222,141.288 392.207,142.757 394.191,144.232 396.175,145.711 398.16,147.198 400.144,148.689 402.129,150.184 404.113,151.685 406.098,153.189 408.082,154.696 410.066,156.207 412.051,157.722 414.035,159.242 416.02,160.767 418.004,162.296 419.989,163.829 421.973,165.365 423.957,166.903 425.942,168.444 427.926,169.991 429.911,171.541 431.895,173.097 433.879,174.657 435.864,176.22 437.848,177.785 439.833,179.354 441.817,180.927 443.802,182.504 445.786,184.085 447.77,185.673 449.755,187.269 451.739,188.868 453.724,190.471 455.708,192.078 457.693,193.691 459.677,195.311 461.661,196.934 463.646,198.565 465.63,200.204 467.615,201.847 469.599,203.494 471.583,205.147 473.568,206.802 475.552,208.462 477.537,210.123 479.521,211.787 481.506,213.454 483.49,215.125 485.474,216.798 487.459,218.475 489.443,220.159 491.428,221.846 493.412,223.54 495.397,225.238 497.381,226.943 499.365,228.651 501.35,230.364 503.334,232.086 505.319,233.809 507.303,235.54 509.287,237.276 511.272,239.016 513.256,240.759 515.241,242.507 517.225,244.259 519.21,246.02 521.194,247.787 523.178,249.563 525.163,251.343 527.147,253.126 529.132,254.917 531.116,256.71 533.101,258.51 535.085,260.312 537.069,262.121 539.054,263.934 541.038,265.749 543.023,267.565 545.007,269.385 546.992,271.207 548.976,273.034 550.96,274.868 552.945,276.708 554.929,278.555 556.914,280.404 558.898,282.254 560.882,284.115 562.867,285.981 564.851,287.851 566.836,289.727 568.82,291.609 570.805,293.493 572.789,295.387 574.773,297.281 576.758,299.185 578.742,301.089 580.727,303.005 582.711,304.929 584.696,306.859 586.68,308.795 588.664,310.735 590.649,312.674 592.633,314.616 594.618,316.57 596.602,318.527 598.586,320.494 600.571,322.465 602.555,324.441 604.54,326.421 606.524,328.413 608.509,330.411 610.493,332.418 612.477,334.426 614.462,336.438 616.446,338.454 618.431,340.47 620.415,342.491 622.4,344.514 624.384,346.541 626.368,348.574 628.353,350.604 630.337,352.636 632.322,354.678 634.306,356.724 636.29,358.773 638.275,360.823 640.259,362.873 642.244,364.926 644.228,366.984 646.213,369.056 648.197,371.133 650.181,373.219 652.166,375.318 654.15,377.427 656.135,379.546 658.119,381.672 660.104,383.799 662.088,385.932 664.072,388.079 666.057,390.238 668.041,392.404 670.026,394.579 672.01,396.757 673.995,398.941 675.979,401.128 677.963,403.308 679.948,405.492 681.932,407.673 683.917,409.854 685.901,412.043 687.885,414.243 689.87,416.441 691.854,418.64 693.839,420.848 695.823,423.064 697.808,425.291 699.792,427.531 701.776,429.797 703.761,432.073 705.745,434.357 707.73,436.649 709.714,438.931 711.699,441.219 713.683,443.512 715.667,445.802 717.652,448.096 719.636,450.403 721.621,452.734 723.605,455.06 725.589,457.392 727.574,459.715 729.558,462.021 731.543,464.324 733.527,466.635 735.512,468.942 737.496,471.276 739.48,473.6 741.465,475.936 743.449,478.294 745.434,480.665 747.418,483.045 749.403,485.445 751.387,487.854 753.371,490.275 755.356,492.702 757.34,495.139 759.325,497.587 761.309,500.031 763.293,502.468 765.278,504.885 767.262,507.299 769.247,509.737 771.231,512.187 773.216,514.654 775.2,517.109 777.184,519.575 779.169,522.048 781.153,524.509 783.138,526.964 785.122,529.427 787.107,531.885 789.091,534.359 791.075,536.845 793.06,539.338 795.044,541.874 797.029,544.431 799.013,547.03 800.998,549.629 802.982,552.245 804.966,554.856 806.951,557.472 808.935,560.063 810.92,562.641 812.904,565.236 814.888,567.829 816.873,570.411 818.857,572.982 820.842,575.539 822.826,578.111 824.811,580.693 826.795,583.264 828.779,585.828 830.764,588.403 832.748,590.951 834.733,593.54 836.717,596.175 838.702,598.814 840.686,601.479 842.67,604.122 844.655,606.789 846.639,609.496 848.624,612.202 850.608,614.939 852.592,617.681 854.577,620.424 856.561,623.177 858.546,625.929 860.53,628.682 862.515,631.434 864.499,634.192 866.483,636.914 868.468,639.644 870.452,642.411 872.437,645.208 874.421,647.941 876.406,650.666 878.39,653.407 880.374,656.185 882.359,659 884.343,661.792 886.328,664.504 888.312,667.219 890.296,669.899 892.281,672.633 894.265,675.424 896.25,678.227 898.234,681.098 900.219,684.021 902.203,686.969 904.187,689.852 906.172,692.74 908.156,695.647 910.141,698.578 912.125,701.464 914.11,704.319 916.094,707.219 918.078,710.09 920.063,712.961 922.047,715.796 924.032,718.541 926.016,721.278 928.001,724 929.985,726.697 931.969,729.436 933.954,732.137 935.938,734.858 937.923,737.618 939.907,740.294 941.891,743.06 943.876,745.731 945.86,748.375 947.845,751.136 949.829,753.926 951.814,756.639 953.798,759.312 955.782,761.928 957.767,764.54 959.751,767.348 961.736,770.25 963.72,773.162 965.705,775.933 967.689,778.842 969.673,781.658 971.658,784.467 973.642,787.26 975.627,790.367 977.611,793.334 979.595,796.379 981.58,799.94 983.564,803.526 985.549,807.202 987.533,810.786 989.518,814.207 991.502,817.6 993.486,821.109 995.471,824.637 997.455,828.051 999.44,831.42 1001.42,834.728 1003.41,838.142 1005.39,841.551 1007.38,844.892 1009.36,848.186 1011.35,851.365 1013.33,854.454 1015.32,857.378 1017.3,860.335 1019.28,863.072 1021.27,865.623 1023.25,867.924 1025.24,870.109 1027.22,872.241 1029.21,874.484 1031.19,876.625 1033.17,878.562 1035.16,880.75 1037.14,883.264 1039.13,885.686 1041.11,888.038 1043.1,890.424 1045.08,893.573 1047.07,896.932 1049.05,900.979 1051.03,904.981 1053.02,908.632 1055,912.208 1056.99,915.717 1058.97,919.179 1060.96,922.388 1062.94,926.149 1064.93,930.041 1066.91,933.624 1068.89,937.878 1070.88,941.994 1072.86,946.102 1074.85,950.321 1076.83,954.252 1078.82,957.419 1080.8,960.601 1082.79,963.75 1084.77,966.832 1086.75,970.189 1088.74,972.704 1090.72,974.652 1092.71,976.038 1094.69,977.321 1096.68,979.402 1098.66,981.339 1100.65,983.691 1102.63,986.614 1104.61,989.91 1106.6,993.048 1108.58,995.851 1110.57,997.889 1112.55,1000.18 1114.54,1002.84 1116.52,1005.48 1118.51,1008.17 1120.49,1010.93 1122.47,1013.91 1124.46,1018.22 1126.44,1021.5 1128.43,1025.01 1130.41,1028.76 1132.4,1032 1134.38,1034.28 1136.36,1036.97 1138.35,1039.99 1140.33,1043.71 1142.32,1046.85 1144.3,1050.59 1146.29,1054.72 1148.27,1058.32 1150.26,1061.38 1152.24,1063.6 1154.22,1066.46 1156.21,1068.47 1158.19,1070.44 1160.18,1071.92 1162.16,1073.28 1164.15,1075.47 1166.13,1077.66 1168.12,1079.77 1170.1,1083.26 1172.08,1086.09 1174.07,1089.15 1176.05,1090.26 1178.04,1090.42 1180.02,1088.82 1182.01,1086.86 1183.99,1085.68 1185.98,1086.05 1187.96,1085.06 1189.94,1085.66 1191.93,1089.03 1193.91,1096.86 1195.9,1106.18 1197.88,1115 1199.87,1125.31 1201.85,1134.6 1203.84,1144.66 1205.82,1152.48 1207.8,1157.63 1209.79,1161.07 1211.77,1164.74 1213.76,1169.9 1215.74,1172.41 1217.73,1175.05 1219.71,1178.33 1221.69,1181.12 1223.68,1181.88 1225.66,1183.71 1227.65,1183.66 1229.63,1183.65 1231.62,1180.59 1233.6,1174.66 1235.59,1167.13 1237.57,1159.51 1239.55,1151.3 1241.54,1147.42 1243.52,1146.57 1245.51,1145.85 1247.49,1146.86 1249.48,1148.13 1251.46,1150.39 1253.45,1151.2 1255.43,1152.27 1257.41,1147.84 1259.4,1143.78 1261.38,1140.95 1263.37,1141.6 1265.35,1143.41 1267.34,1147.26 1269.32,1142.7 1271.31,1140.29 1273.29,1140.94 1275.27,1144.28 1277.26,1147.29 1279.24,1146.13 1281.23,1147.31 1283.21,1153.32 1285.2,1159.79 1287.18,1166.19 1289.17,1169.71 1291.15,1175.56 1293.13,1182.28 1295.12,1187.34 1297.1,1195.83 1299.09,1205.6 1301.07,1211.43 1303.06,1212.61 1305.04,1207 1307.03,1202.29 1309.01,1200.22 1310.99,1202.36 1312.98,1201.54 1314.96,1200.57 1316.95,1202.9 1318.93,1204.38 1320.92,1207.86 1322.9,1210.91 1324.88,1217 1326.87,1222.76 1328.85,1229.09 1330.84,1238.66 1332.82,1247.45 1334.81,1259.5 1336.79,1270.86 1338.78,1279.66 1340.76,1288.67 1342.74,1291.19 1344.73,1294.39 1346.71,1297.25 1348.7,1297.53 1350.68,1296.51 1352.67,1300.41 1354.65,1304.41 1356.64,1305.2 1358.62,1301.76 1360.6,1284.33 1362.59,1270.48 1364.57,1263.24 1366.56,1256.38 1368.54,1249.81 1370.53,1240.91 1372.51,1236.22 1374.5,1238.65 1376.48,1243 1378.46,1246.03 1380.45,1252.48 1382.43,1269.13 1384.42,1283.21 1386.4,1294.88 1388.39,1298.8 1390.37,1299.6 1392.36,1297.69 1394.34,1292.33 1396.32,1287.85 1398.31,1280.96 1400.29,1275.16 1402.28,1271.97 1404.26,1268.13 1406.25,1267.73 1408.23,1267.43 1410.22,1265.32 1412.2,1270.19 1414.18,1270.56 1416.17,1271.45 1418.15,1269.37 1420.14,1265.31 1422.12,1263.22 1424.11,1267.53 1426.09,1273.5 1428.07,1279.99 1430.06,1287.72 1432.04,1292 1434.03,1286.85 1436.01,1289.93 1438,1296.98 1439.98,1307.46 1441.97,1325.16 1443.95,1337.7 1445.93,1345.79 1447.92,1348.32 1449.9,1349.23 1451.89,1347.88 1453.87,1339.84 1455.86,1324.2 1457.84,1315.75 1459.83,1304.71 1461.81,1293.85 1463.79,1293.85 1465.78,1287.42 1467.76,1279.01 1469.75,1271.72 1471.73,1266.41 1473.72,1260.59 1475.7,1260.83 1477.69,1265.22 1479.67,1274.93 1481.65,1281.36 1483.64,1283.22 1485.62,1277.03 1487.61,1275.14 1489.59,1270.36 1491.58,1262.06 1493.56,1259.78 1495.55,1260.41 1497.53,1260.94 1499.51,1265.74 1501.5,1268.77 1503.48,1279.06 1505.47,1287.08 1507.45,1298.25 1509.44,1311.7 1511.42,1319.73 1513.4,1310.76 1515.39,1302.93 1517.37,1300.98 1519.36,1296.37 1521.34,1287.5 1523.33,1277.11 1525.31,1274.64 1527.3,1274.63 1529.28,1277.46 1531.26,1282.14 1533.25,1287.84 1535.23,1291.55 1537.22,1287.27 1539.2,1279.95 1541.19,1273.76 1543.17,1269.12 1545.16,1266.91 1547.14,1267.26 1549.12,1283.78 1551.11,1306.78 1553.09,1332.11 1555.08,1346.45 1557.06,1337.98 1559.05,1336.72 1561.03,1328.69 1563.02,1312.96 1565,1299.34 1566.98,1283.68 1568.97,1273 1570.95,1265.85 1572.94,1260.58 1574.92,1261.9 1576.91,1269.83 1578.89,1280.78 1580.88,1291.96 1582.86,1308.1 1584.84,1321.09 1586.83,1339.58 1588.81,1347.58 1590.8,1357.52 1592.78,1352.64 1594.77,1329.64 1596.75,1308.76 1598.74,1290.82 1600.72,1264.78 1602.7,1250.68 1604.69,1244.19 1606.67,1238.73 1608.66,1229.97 1610.64,1226.63 1612.63,1227.72 1614.61,1227.07 1616.59,1226.84 1618.58,1230.83 1620.56,1238.33 1622.55,1247.85 1624.53,1262.2 1626.52,1280.08 1628.5,1294.81 1630.49,1302.22 1632.47,1296.25 1634.45,1287.49 1636.44,1281.08 1638.42,1273.51 1640.41,1263.36 1642.39,1265.28 1644.38,1263.55 1646.36,1261.03 1648.35,1251.07 1650.33,1237.61 1652.31,1226.38 1654.3,1217.66 1656.28,1216.84 1658.27,1213.46 1660.25,1207.31 1662.24,1201.54 1664.22,1200.12 1666.21,1202.7 1668.19,1208.17 1670.17,1219.67 1672.16,1231.89 1674.14,1244.6 1676.13,1258.35 1678.11,1273.86 1680.1,1288.63 1682.08,1300.69 1684.07,1307.34 1686.05,1323.09 1688.03,1336.49 1690.02,1348.64 1692,1350.06 1693.99,1349.99 1695.97,1346.25 1697.96,1349.5 1699.94,1348.8 1701.93,1340.2 1703.91,1326.54 1705.89,1309.6 1707.88,1295.45 1709.86,1282.14 1711.85,1279.54 1713.83,1266.65 1715.82,1258.29 1717.8,1253.59 1719.78,1252.97 1721.77,1251.92 1723.75,1254.14 1725.74,1259.66 1727.72,1264.21 1729.71,1263.88 1731.69,1256.95 1733.68,1245.66 1735.66,1237.42 1737.64,1228.32 1739.63,1219.81 1741.61,1217.49 1743.6,1210.54 1745.58,1198.24 1747.57,1185.34 1749.55,1173.65 1751.54,1156.65 1753.52,1144.66 1755.5,1141.78 1757.49,1142.3 1759.47,1148.08 1761.46,1153.05 1763.44,1158.61 1765.43,1167.64 1767.41,1182.22 1769.4,1199.86 1771.38,1220.07 1773.36,1234.8 1775.35,1248.15 1777.33,1259.88 1779.32,1276.61 1781.3,1284.34 1783.29,1290.54 1785.27,1291.36 1787.26,1294.88 1789.24,1297.49 1791.22,1297.42 1793.21,1291.52 1795.19,1281.91 1797.18,1279.62 1799.16,1278.58 1801.15,1273.6 1803.13,1271.48 1805.11,1267.63 1807.1,1263.07 1809.08,1258.26 1811.07,1246.94 1813.05,1238.4 1815.04,1235.54 1817.02,1236.59 1819.01,1229.43 1820.99,1227.69 1822.97,1226.48 1824.96,1227.88 1826.94,1232.12 1828.93,1238.96 1830.91,1247.59 1832.9,1253.28 1834.88,1249.58 1836.87,1237.06 1838.85,1222 1840.83,1206.52 1842.82,1197.52 1844.8,1186.29 1846.79,1181.75 1848.77,1181.54 1850.76,1182.86 1852.74,1183.34 1854.73,1187.33 1856.71,1191.03 1858.69,1193.72 1860.68,1196.52 1862.66,1200.12 1864.65,1197.46 1866.63,1196.24 1868.62,1195.88 1870.6,1193.67 1872.59,1197.89 1874.57,1205.25 1876.55,1221.7 1878.54,1236.22 1880.52,1248.43 1882.51,1268.37 1884.49,1291.43 1886.48,1313.85 1888.46,1325.36 1890.45,1339.94 1892.43,1339.24 1894.41,1332.79 1896.4,1319.47 1898.38,1312.56 1900.37,1298.41 1902.35,1279.18 1904.34,1262.04 1906.32,1247.85 1908.3,1232.64 1910.29,1219.43 1912.27,1208.94 1914.26,1205.93 1916.24,1206.69 1918.23,1208.97 1920.21,1216.96 1922.2,1240.27 1924.18,1267.08 1926.16,1301.11 1928.15,1338.03 1930.13,1362.87 1932.12,1377.55 1934.1,1384.24 1936.09,1368.18 1938.07,1342.24 1940.06,1318.11 1942.04,1291.01 1944.02,1276.39 1946.01,1265.55 1947.99,1256.32 1949.98,1256.73 1951.96,1252.55 1953.95,1249.85 1955.93,1244.45 1957.92,1240.98 1959.9,1238.6 1961.88,1240.34 1963.87,1239.43 1965.85,1230.24 1967.84,1227.14 1969.82,1233.26 1971.81,1232.84 1973.79,1234.41 1975.78,1238.99 1977.76,1245.17 1979.74,1246.79 1981.73,1254.24 1983.71,1260.6 1985.7,1267.05 1987.68,1272.69 1989.67,1279.44 1991.65,1293.83 1993.64,1307.81 1995.62,1317.93 1997.6,1320.05 1999.59,1309.3 2001.57,1305.09 2003.56,1293.2 2005.54,1285.32 2007.53,1277.54 2009.51,1275.99 2011.49,1275.33 2013.48,1281.03 2015.46,1289.97 2017.45,1297.94 2019.43,1304.33 2021.42,1314.78 2023.4,1332.29 2025.39,1344.45 2027.37,1352.43 2029.35,1344.53 2031.34,1331.77 2033.32,1310.94 2035.31,1290.6 2037.29,1270.23 2039.28,1247.49 2041.26,1224.17 2043.25,1202.47 2045.23,1192.3 2047.21,1188.08 2049.2,1189.02 2051.18,1191.12 2053.17,1197.98 2055.15,1206.56 2057.14,1216.46 2059.12,1228.18 2061.11,1245.51 2063.09,1257.81 2065.07,1268.99 2067.06,1279.15 2069.04,1287.47 2071.03,1298.88 2073.01,1312.36 2075,1323.52 2076.98,1345.27 2078.97,1358.16 2080.95,1364.46 2082.93,1366.86 2084.92,1361.85 2086.9,1341.49 2088.89,1321.82 2090.87,1308.54 2092.86,1300.15 2094.84,1292.33 2096.83,1286.38 2098.81,1283.94 2100.79,1282.06 2102.78,1281.99 2104.76,1277.59 2106.75,1275.85 2108.73,1272.96 2110.72,1273.73 2112.7,1274.16 2114.68,1272.81 2116.67,1271.15 2118.65,1261.22 2120.64,1251.27 2122.62,1244.57 2124.61,1244.71 2126.59,1249.53 2128.58,1250.72 2130.56,1250.55 2132.54,1249.03 2134.53,1246.92 2136.51,1242.54 2138.5,1234.51 2140.48,1227.1 2142.47,1218.08 2144.45,1208.66 2146.44,1207.88 2148.42,1205.08 2150.4,1203.48 2152.39,1207.33 2154.37,1212.14 2156.36,1223.16 2158.34,1233.51 2160.33,1247.03 2162.31,1262.46 2164.3,1276.21 2166.28,1284.2 2168.26,1293.66 2170.25,1300.02 2172.23,1306.61 2174.22,1306.09 2176.2,1298.36 2178.19,1285.3 2180.17,1270.18 2182.16,1259.71 2184.14,1246.99 2186.12,1239.65 2188.11,1230.75 2190.09,1225.27 2192.08,1219.66 2194.06,1223.7 2196.05,1227.22 2198.03,1227.84 2200.01,1227.2 2202,1223.16 2203.98,1220.68 2205.97,1223.3 2207.95,1224.9 2209.94,1227.15 2211.92,1235.35 2213.91,1243.62 2215.89,1251.13 2217.87,1261.99 2219.86,1272.07 2221.84,1285.96 2223.83,1299.11 2225.81,1308.62 2227.8,1314.61 2229.78,1322.92 2231.77,1328.6 2233.75,1336.88 2235.73,1343.63 2237.72,1337.67 2239.7,1336.53 2241.69,1331.62 2243.67,1330.51 2245.66,1329.56 2247.64,1328.5 2249.63,1325.9 2251.61,1320.21 2253.59,1322.81 2255.58,1325.86 2257.56,1323.54 2259.55,1323.76 2261.53,1323.92 2263.52,1323.22 2265.5,1325.95 2267.49,1314.13 2269.47,1311.28 2271.45,1312.49 2273.44,1312.45 2275.42,1311.42 2277.41,1318.95 2279.39,1325.4 2281.38,1319.5 2283.36,1300.26 2285.35,1285.99 2287.33,1266.45 2289.31,1251.57 2291.3,1240.18 2293.28,1232.05 "/>
<path clip-path="url(#clip430)" d="M1738.01 248.629 L2282.71 248.629 L2282.71 93.1086 L1738.01 93.1086  Z" fill="#ffffff" fill-rule="evenodd" fill-opacity="1"/>
<polyline clip-path="url(#clip430)" style="stroke:#000000; stroke-linecap:round; stroke-linejoin:round; stroke-width:4; stroke-opacity:1; fill:none" points="1738.01,248.629 2282.71,248.629 2282.71,93.1086 1738.01,93.1086 1738.01,248.629 "/>
<polyline clip-path="url(#clip430)" style="stroke:#009af9; stroke-linecap:round; stroke-linejoin:round; stroke-width:4; stroke-opacity:1; fill:none" points="1761.36,144.949 1901.45,144.949 "/>
<path clip-path="url(#clip430)" d="M1929.48 145.724 L1929.48 158.386 L1936.98 158.386 Q1940.75 158.386 1942.56 156.835 Q1944.39 155.261 1944.39 152.043 Q1944.39 148.803 1942.56 147.275 Q1940.75 145.724 1936.98 145.724 L1929.48 145.724 M1929.48 131.511 L1929.48 141.928 L1936.4 141.928 Q1939.83 141.928 1941.49 140.655 Q1943.18 139.358 1943.18 136.719 Q1943.18 134.104 1941.49 132.807 Q1939.83 131.511 1936.4 131.511 L1929.48 131.511 M1924.8 127.669 L1936.75 127.669 Q1942.09 127.669 1944.99 129.891 Q1947.88 132.113 1947.88 136.21 Q1947.88 139.382 1946.4 141.257 Q1944.92 143.131 1942.05 143.594 Q1945.5 144.335 1947.4 146.696 Q1949.32 149.034 1949.32 152.553 Q1949.32 157.182 1946.17 159.705 Q1943.02 162.229 1937.21 162.229 L1924.8 162.229 L1924.8 127.669 Z" fill="#000000" fill-rule="nonzero" fill-opacity="1" /><path clip-path="url(#clip430)" d="M1962 145.724 L1962 158.386 L1969.5 158.386 Q1973.27 158.386 1975.08 156.835 Q1976.91 155.261 1976.91 152.043 Q1976.91 148.803 1975.08 147.275 Q1973.27 145.724 1969.5 145.724 L1962 145.724 M1962 131.511 L1962 141.928 L1968.92 141.928 Q1972.35 141.928 1974.02 140.655 Q1975.71 139.358 1975.71 136.719 Q1975.71 134.104 1974.02 132.807 Q1972.35 131.511 1968.92 131.511 L1962 131.511 M1957.33 127.669 L1969.27 127.669 Q1974.62 127.669 1977.51 129.891 Q1980.4 132.113 1980.4 136.21 Q1980.4 139.382 1978.92 141.257 Q1977.44 143.131 1974.57 143.594 Q1978.02 144.335 1979.92 146.696 Q1981.84 149.034 1981.84 152.553 Q1981.84 157.182 1978.69 159.705 Q1975.54 162.229 1969.73 162.229 L1957.33 162.229 L1957.33 127.669 Z" fill="#000000" fill-rule="nonzero" fill-opacity="1" /><path clip-path="url(#clip430)" d="M1997.3 162.229 L1984.11 127.669 L1988.99 127.669 L1999.94 156.766 L2010.91 127.669 L2015.77 127.669 L2002.6 162.229 L1997.3 162.229 Z" fill="#000000" fill-rule="nonzero" fill-opacity="1" /><path clip-path="url(#clip430)" d="M2020.82 127.669 L2025.5 127.669 L2025.5 162.229 L2020.82 162.229 L2020.82 127.669 Z" fill="#000000" fill-rule="nonzero" fill-opacity="1" /><path clip-path="url(#clip430)" d="M2075.75 130.331 L2075.75 135.261 Q2073.39 133.062 2070.7 131.974 Q2068.04 130.886 2065.03 130.886 Q2059.11 130.886 2055.96 134.52 Q2052.81 138.132 2052.81 144.983 Q2052.81 151.812 2055.96 155.446 Q2059.11 159.057 2065.03 159.057 Q2068.04 159.057 2070.7 157.969 Q2073.39 156.881 2075.75 154.682 L2075.75 159.567 Q2073.3 161.233 2070.54 162.067 Q2067.81 162.9 2064.76 162.9 Q2056.91 162.9 2052.39 158.108 Q2047.88 153.293 2047.88 144.983 Q2047.88 136.65 2052.39 131.858 Q2056.91 127.044 2064.76 127.044 Q2067.86 127.044 2070.59 127.877 Q2073.34 128.687 2075.75 130.331 Z" fill="#000000" fill-rule="nonzero" fill-opacity="1" /><path clip-path="url(#clip430)" d="M2082.97 127.669 L2102.83 127.669 L2102.83 131.604 L2087.65 131.604 L2087.65 141.789 L2101.35 141.789 L2101.35 145.724 L2087.65 145.724 L2087.65 162.229 L2082.97 162.229 L2082.97 127.669 Z" fill="#000000" fill-rule="nonzero" fill-opacity="1" /><path clip-path="url(#clip430)" d="M2110.24 127.669 L2132.09 127.669 L2132.09 131.604 L2114.92 131.604 L2114.92 141.835 L2131.38 141.835 L2131.38 145.77 L2114.92 145.77 L2114.92 158.293 L2132.51 158.293 L2132.51 162.229 L2110.24 162.229 L2110.24 127.669 Z" fill="#000000" fill-rule="nonzero" fill-opacity="1" /><polyline clip-path="url(#clip430)" style="stroke:#e26f46; stroke-linecap:round; stroke-linejoin:round; stroke-width:4; stroke-opacity:1; fill:none" points="1761.36,196.789 1901.45,196.789 "/>
<path clip-path="url(#clip430)" d="M1929.48 197.564 L1929.48 210.226 L1936.98 210.226 Q1940.75 210.226 1942.56 208.675 Q1944.39 207.101 1944.39 203.883 Q1944.39 200.643 1942.56 199.115 Q1940.75 197.564 1936.98 197.564 L1929.48 197.564 M1929.48 183.351 L1929.48 193.768 L1936.4 193.768 Q1939.83 193.768 1941.49 192.495 Q1943.18 191.198 1943.18 188.559 Q1943.18 185.944 1941.49 184.647 Q1939.83 183.351 1936.4 183.351 L1929.48 183.351 M1924.8 179.509 L1936.75 179.509 Q1942.09 179.509 1944.99 181.731 Q1947.88 183.953 1947.88 188.05 Q1947.88 191.222 1946.4 193.097 Q1944.92 194.971 1942.05 195.434 Q1945.5 196.175 1947.4 198.536 Q1949.32 200.874 1949.32 204.393 Q1949.32 209.022 1946.17 211.545 Q1943.02 214.069 1937.21 214.069 L1924.8 214.069 L1924.8 179.509 Z" fill="#000000" fill-rule="nonzero" fill-opacity="1" /><path clip-path="url(#clip430)" d="M1962 197.564 L1962 210.226 L1969.5 210.226 Q1973.27 210.226 1975.08 208.675 Q1976.91 207.101 1976.91 203.883 Q1976.91 200.643 1975.08 199.115 Q1973.27 197.564 1969.5 197.564 L1962 197.564 M1962 183.351 L1962 193.768 L1968.92 193.768 Q1972.35 193.768 1974.02 192.495 Q1975.71 191.198 1975.71 188.559 Q1975.71 185.944 1974.02 184.647 Q1972.35 183.351 1968.92 183.351 L1962 183.351 M1957.33 179.509 L1969.27 179.509 Q1974.62 179.509 1977.51 181.731 Q1980.4 183.953 1980.4 188.05 Q1980.4 191.222 1978.92 193.097 Q1977.44 194.971 1974.57 195.434 Q1978.02 196.175 1979.92 198.536 Q1981.84 200.874 1981.84 204.393 Q1981.84 209.022 1978.69 211.545 Q1975.54 214.069 1969.73 214.069 L1957.33 214.069 L1957.33 179.509 Z" fill="#000000" fill-rule="nonzero" fill-opacity="1" /><path clip-path="url(#clip430)" d="M1997.3 214.069 L1984.11 179.509 L1988.99 179.509 L1999.94 208.606 L2010.91 179.509 L2015.77 179.509 L2002.6 214.069 L1997.3 214.069 Z" fill="#000000" fill-rule="nonzero" fill-opacity="1" /><path clip-path="url(#clip430)" d="M2020.82 179.509 L2025.5 179.509 L2025.5 214.069 L2020.82 214.069 L2020.82 179.509 Z" fill="#000000" fill-rule="nonzero" fill-opacity="1" /><path clip-path="url(#clip430)" d="M2075.75 182.171 L2075.75 187.101 Q2073.39 184.902 2070.7 183.814 Q2068.04 182.726 2065.03 182.726 Q2059.11 182.726 2055.96 186.36 Q2052.81 189.972 2052.81 196.823 Q2052.81 203.652 2055.96 207.286 Q2059.11 210.897 2065.03 210.897 Q2068.04 210.897 2070.7 209.809 Q2073.39 208.721 2075.75 206.522 L2075.75 211.407 Q2073.3 213.073 2070.54 213.907 Q2067.81 214.74 2064.76 214.74 Q2056.91 214.74 2052.39 209.948 Q2047.88 205.133 2047.88 196.823 Q2047.88 188.49 2052.39 183.698 Q2056.91 178.884 2064.76 178.884 Q2067.86 178.884 2070.59 179.717 Q2073.34 180.527 2075.75 182.171 Z" fill="#000000" fill-rule="nonzero" fill-opacity="1" /><path clip-path="url(#clip430)" d="M2082.97 179.509 L2102.83 179.509 L2102.83 183.444 L2087.65 183.444 L2087.65 193.629 L2101.35 193.629 L2101.35 197.564 L2087.65 197.564 L2087.65 214.069 L2082.97 214.069 L2082.97 179.509 Z" fill="#000000" fill-rule="nonzero" fill-opacity="1" /><path clip-path="url(#clip430)" d="M2110.24 179.509 L2132.09 179.509 L2132.09 183.444 L2114.92 183.444 L2114.92 193.675 L2131.38 193.675 L2131.38 197.61 L2114.92 197.61 L2114.92 210.133 L2132.51 210.133 L2132.51 214.069 L2110.24 214.069 L2110.24 179.509 Z" fill="#000000" fill-rule="nonzero" fill-opacity="1" /><path clip-path="url(#clip430)" d="M2169.29 182.68 Q2164.2 182.68 2161.19 186.476 Q2158.2 190.272 2158.2 196.823 Q2158.2 203.351 2161.19 207.147 Q2164.2 210.944 2169.29 210.944 Q2174.38 210.944 2177.35 207.147 Q2180.33 203.351 2180.33 196.823 Q2180.33 190.272 2177.35 186.476 Q2174.38 182.68 2169.29 182.68 M2175.84 213.444 L2182 220.18 L2176.35 220.18 L2171.24 214.647 Q2170.47 214.694 2170.06 214.717 Q2169.66 214.74 2169.29 214.74 Q2162 214.74 2157.63 209.879 Q2153.27 204.995 2153.27 196.823 Q2153.27 188.629 2157.63 183.768 Q2162 178.884 2169.29 178.884 Q2176.56 178.884 2180.91 183.768 Q2185.26 188.629 2185.26 196.823 Q2185.26 202.842 2182.83 207.124 Q2180.43 211.407 2175.84 213.444 Z" fill="#000000" fill-rule="nonzero" fill-opacity="1" /><path clip-path="url(#clip430)" d="M2192.58 179.509 L2199.55 179.509 L2208.37 203.027 L2217.23 179.509 L2224.2 179.509 L2224.2 214.069 L2219.64 214.069 L2219.64 183.722 L2210.73 207.425 L2206.03 207.425 L2197.12 183.722 L2197.12 214.069 L2192.58 214.069 L2192.58 179.509 Z" fill="#000000" fill-rule="nonzero" fill-opacity="1" /><path clip-path="url(#clip430)" d="M2259.36 182.171 L2259.36 187.101 Q2257 184.902 2254.31 183.814 Q2251.65 182.726 2248.64 182.726 Q2242.72 182.726 2239.57 186.36 Q2236.42 189.972 2236.42 196.823 Q2236.42 203.652 2239.57 207.286 Q2242.72 210.897 2248.64 210.897 Q2251.65 210.897 2254.31 209.809 Q2257 208.721 2259.36 206.522 L2259.36 211.407 Q2256.91 213.073 2254.15 213.907 Q2251.42 214.74 2248.37 214.74 Q2240.52 214.74 2236 209.948 Q2231.49 205.133 2231.49 196.823 Q2231.49 188.49 2236 183.698 Q2240.52 178.884 2248.37 178.884 Q2251.47 178.884 2254.2 179.717 Q2256.95 180.527 2259.36 182.171 Z" fill="#000000" fill-rule="nonzero" fill-opacity="1" /></svg>
