<?xml version="1.0" encoding="utf-8"?>
<svg xmlns="http://www.w3.org/2000/svg" xmlns:xlink="http://www.w3.org/1999/xlink" width="600" height="400" viewBox="0 0 2400 1600">
<defs>
  <clipPath id="clip670">
    <rect x="0" y="0" width="2400" height="1600"/>
  </clipPath>
</defs>
<path clip-path="url(#clip670)" d="M0 1600 L2400 1600 L2400 0 L0 0  Z" fill="#ffffff" fill-rule="evenodd" fill-opacity="1"/>
<defs>
  <clipPath id="clip671">
    <rect x="203" y="47" width="1910" height="1377"/>
  </clipPath>
</defs>
<path clip-path="url(#clip670)" d="M242.135 1423.18 L2352.76 1423.18 L2352.76 47.2441 L242.135 47.2441  Z" fill="#ffffff" fill-rule="evenodd" fill-opacity="1"/>
<defs>
  <clipPath id="clip672">
    <rect x="242" y="47" width="2112" height="1377"/>
  </clipPath>
</defs>
<polyline clip-path="url(#clip672)" style="stroke:#000000; stroke-linecap:round; stroke-linejoin:round; stroke-width:2; stroke-opacity:0.1; fill:none" points="295.21,1423.18 295.21,47.2441 "/>
<polyline clip-path="url(#clip672)" style="stroke:#000000; stroke-linecap:round; stroke-linejoin:round; stroke-width:2; stroke-opacity:0.1; fill:none" points="961.147,1423.18 961.147,47.2441 "/>
<polyline clip-path="url(#clip672)" style="stroke:#000000; stroke-linecap:round; stroke-linejoin:round; stroke-width:2; stroke-opacity:0.1; fill:none" points="1627.08,1423.18 1627.08,47.2441 "/>
<polyline clip-path="url(#clip672)" style="stroke:#000000; stroke-linecap:round; stroke-linejoin:round; stroke-width:2; stroke-opacity:0.1; fill:none" points="2293.02,1423.18 2293.02,47.2441 "/>
<polyline clip-path="url(#clip672)" style="stroke:#000000; stroke-linecap:round; stroke-linejoin:round; stroke-width:2; stroke-opacity:0.1; fill:none" points="242.135,1423.18 2352.76,1423.18 "/>
<polyline clip-path="url(#clip672)" style="stroke:#000000; stroke-linecap:round; stroke-linejoin:round; stroke-width:2; stroke-opacity:0.1; fill:none" points="242.135,1034.72 2352.76,1034.72 "/>
<polyline clip-path="url(#clip672)" style="stroke:#000000; stroke-linecap:round; stroke-linejoin:round; stroke-width:2; stroke-opacity:0.1; fill:none" points="242.135,646.267 2352.76,646.267 "/>
<polyline clip-path="url(#clip672)" style="stroke:#000000; stroke-linecap:round; stroke-linejoin:round; stroke-width:2; stroke-opacity:0.1; fill:none" points="242.135,257.81 2352.76,257.81 "/>
<polyline clip-path="url(#clip670)" style="stroke:#000000; stroke-linecap:round; stroke-linejoin:round; stroke-width:4; stroke-opacity:1; fill:none" points="242.135,1423.18 2352.76,1423.18 "/>
<polyline clip-path="url(#clip670)" style="stroke:#000000; stroke-linecap:round; stroke-linejoin:round; stroke-width:4; stroke-opacity:1; fill:none" points="295.21,1423.18 295.21,1404.28 "/>
<polyline clip-path="url(#clip670)" style="stroke:#000000; stroke-linecap:round; stroke-linejoin:round; stroke-width:4; stroke-opacity:1; fill:none" points="961.147,1423.18 961.147,1404.28 "/>
<polyline clip-path="url(#clip670)" style="stroke:#000000; stroke-linecap:round; stroke-linejoin:round; stroke-width:4; stroke-opacity:1; fill:none" points="1627.08,1423.18 1627.08,1404.28 "/>
<polyline clip-path="url(#clip670)" style="stroke:#000000; stroke-linecap:round; stroke-linejoin:round; stroke-width:4; stroke-opacity:1; fill:none" points="2293.02,1423.18 2293.02,1404.28 "/>
<path clip-path="url(#clip670)" d="M295.21 1454.1 Q291.599 1454.1 289.77 1457.66 Q287.965 1461.2 287.965 1468.33 Q287.965 1475.44 289.77 1479.01 Q291.599 1482.55 295.21 1482.55 Q298.844 1482.55 300.65 1479.01 Q302.478 1475.44 302.478 1468.33 Q302.478 1461.2 300.65 1457.66 Q298.844 1454.1 295.21 1454.1 M295.21 1450.39 Q301.02 1450.39 304.076 1455 Q307.154 1459.58 307.154 1468.33 Q307.154 1477.06 304.076 1481.67 Q301.02 1486.25 295.21 1486.25 Q289.4 1486.25 286.321 1481.67 Q283.265 1477.06 283.265 1468.33 Q283.265 1459.58 286.321 1455 Q289.4 1450.39 295.21 1450.39 Z" fill="#000000" fill-rule="nonzero" fill-opacity="1" /><path clip-path="url(#clip670)" d="M920.754 1481.64 L928.393 1481.64 L928.393 1455.28 L920.082 1456.95 L920.082 1452.69 L928.346 1451.02 L933.022 1451.02 L933.022 1481.64 L940.661 1481.64 L940.661 1485.58 L920.754 1485.58 L920.754 1481.64 Z" fill="#000000" fill-rule="nonzero" fill-opacity="1" /><path clip-path="url(#clip670)" d="M960.105 1454.1 Q956.494 1454.1 954.666 1457.66 Q952.86 1461.2 952.86 1468.33 Q952.86 1475.44 954.666 1479.01 Q956.494 1482.55 960.105 1482.55 Q963.74 1482.55 965.545 1479.01 Q967.374 1475.44 967.374 1468.33 Q967.374 1461.2 965.545 1457.66 Q963.74 1454.1 960.105 1454.1 M960.105 1450.39 Q965.916 1450.39 968.971 1455 Q972.05 1459.58 972.05 1468.33 Q972.05 1477.06 968.971 1481.67 Q965.916 1486.25 960.105 1486.25 Q954.295 1486.25 951.217 1481.67 Q948.161 1477.06 948.161 1468.33 Q948.161 1459.58 951.217 1455 Q954.295 1450.39 960.105 1450.39 Z" fill="#000000" fill-rule="nonzero" fill-opacity="1" /><path clip-path="url(#clip670)" d="M990.267 1454.1 Q986.656 1454.1 984.827 1457.66 Q983.022 1461.2 983.022 1468.33 Q983.022 1475.44 984.827 1479.01 Q986.656 1482.55 990.267 1482.55 Q993.901 1482.55 995.707 1479.01 Q997.536 1475.44 997.536 1468.33 Q997.536 1461.2 995.707 1457.66 Q993.901 1454.1 990.267 1454.1 M990.267 1450.39 Q996.077 1450.39 999.133 1455 Q1002.21 1459.58 1002.21 1468.33 Q1002.21 1477.06 999.133 1481.67 Q996.077 1486.25 990.267 1486.25 Q984.457 1486.25 981.378 1481.67 Q978.323 1477.06 978.323 1468.33 Q978.323 1459.58 981.378 1455 Q984.457 1450.39 990.267 1450.39 Z" fill="#000000" fill-rule="nonzero" fill-opacity="1" /><path clip-path="url(#clip670)" d="M1590.78 1481.64 L1607.1 1481.64 L1607.1 1485.58 L1585.15 1485.58 L1585.15 1481.64 Q1587.81 1478.89 1592.4 1474.26 Q1597 1469.61 1598.18 1468.27 Q1600.43 1465.74 1601.31 1464.01 Q1602.21 1462.25 1602.21 1460.56 Q1602.21 1457.8 1600.27 1456.07 Q1598.35 1454.33 1595.24 1454.33 Q1593.05 1454.33 1590.59 1455.09 Q1588.16 1455.86 1585.38 1457.41 L1585.38 1452.69 Q1588.21 1451.55 1590.66 1450.97 Q1593.11 1450.39 1595.15 1450.39 Q1600.52 1450.39 1603.72 1453.08 Q1606.91 1455.77 1606.91 1460.26 Q1606.91 1462.39 1606.1 1464.31 Q1605.31 1466.2 1603.21 1468.8 Q1602.63 1469.47 1599.53 1472.69 Q1596.42 1475.88 1590.78 1481.64 Z" fill="#000000" fill-rule="nonzero" fill-opacity="1" /><path clip-path="url(#clip670)" d="M1626.91 1454.1 Q1623.3 1454.1 1621.47 1457.66 Q1619.67 1461.2 1619.67 1468.33 Q1619.67 1475.44 1621.47 1479.01 Q1623.3 1482.55 1626.91 1482.55 Q1630.54 1482.55 1632.35 1479.01 Q1634.18 1475.44 1634.18 1468.33 Q1634.18 1461.2 1632.35 1457.66 Q1630.54 1454.1 1626.91 1454.1 M1626.91 1450.39 Q1632.72 1450.39 1635.78 1455 Q1638.85 1459.58 1638.85 1468.33 Q1638.85 1477.06 1635.78 1481.67 Q1632.72 1486.25 1626.91 1486.25 Q1621.1 1486.25 1618.02 1481.67 Q1614.97 1477.06 1614.97 1468.33 Q1614.97 1459.58 1618.02 1455 Q1621.1 1450.39 1626.91 1450.39 Z" fill="#000000" fill-rule="nonzero" fill-opacity="1" /><path clip-path="url(#clip670)" d="M1657.07 1454.1 Q1653.46 1454.1 1651.63 1457.66 Q1649.83 1461.2 1649.83 1468.33 Q1649.83 1475.44 1651.63 1479.01 Q1653.46 1482.55 1657.07 1482.55 Q1660.71 1482.55 1662.51 1479.01 Q1664.34 1475.44 1664.34 1468.33 Q1664.34 1461.2 1662.51 1457.66 Q1660.71 1454.1 1657.07 1454.1 M1657.07 1450.39 Q1662.88 1450.39 1665.94 1455 Q1669.02 1459.58 1669.02 1468.33 Q1669.02 1477.06 1665.94 1481.67 Q1662.88 1486.25 1657.07 1486.25 Q1651.26 1486.25 1648.18 1481.67 Q1645.13 1477.06 1645.13 1468.33 Q1645.13 1459.58 1648.18 1455 Q1651.26 1450.39 1657.07 1450.39 Z" fill="#000000" fill-rule="nonzero" fill-opacity="1" /><path clip-path="url(#clip670)" d="M2266.78 1466.95 Q2270.14 1467.66 2272.01 1469.93 Q2273.91 1472.2 2273.91 1475.53 Q2273.91 1480.65 2270.39 1483.45 Q2266.88 1486.25 2260.39 1486.25 Q2258.22 1486.25 2255.9 1485.81 Q2253.61 1485.39 2251.16 1484.54 L2251.16 1480.02 Q2253.1 1481.16 2255.42 1481.74 Q2257.73 1482.32 2260.26 1482.32 Q2264.65 1482.32 2266.95 1480.58 Q2269.26 1478.84 2269.26 1475.53 Q2269.26 1472.48 2267.11 1470.77 Q2264.98 1469.03 2261.16 1469.03 L2257.13 1469.03 L2257.13 1465.19 L2261.34 1465.19 Q2264.79 1465.19 2266.62 1463.82 Q2268.45 1462.43 2268.45 1459.84 Q2268.45 1457.18 2266.55 1455.77 Q2264.68 1454.33 2261.16 1454.33 Q2259.24 1454.33 2257.04 1454.75 Q2254.84 1455.16 2252.2 1456.04 L2252.2 1451.88 Q2254.86 1451.14 2257.18 1450.77 Q2259.51 1450.39 2261.57 1450.39 Q2266.9 1450.39 2270 1452.83 Q2273.1 1455.23 2273.1 1459.35 Q2273.1 1462.22 2271.46 1464.21 Q2269.82 1466.18 2266.78 1466.95 Z" fill="#000000" fill-rule="nonzero" fill-opacity="1" /><path clip-path="url(#clip670)" d="M2292.78 1454.1 Q2289.17 1454.1 2287.34 1457.66 Q2285.53 1461.2 2285.53 1468.33 Q2285.53 1475.44 2287.34 1479.01 Q2289.17 1482.55 2292.78 1482.55 Q2296.41 1482.55 2298.22 1479.01 Q2300.05 1475.44 2300.05 1468.33 Q2300.05 1461.2 2298.22 1457.66 Q2296.41 1454.1 2292.78 1454.1 M2292.78 1450.39 Q2298.59 1450.39 2301.64 1455 Q2304.72 1459.58 2304.72 1468.33 Q2304.72 1477.06 2301.64 1481.67 Q2298.59 1486.25 2292.78 1486.25 Q2286.97 1486.25 2283.89 1481.67 Q2280.83 1477.06 2280.83 1468.33 Q2280.83 1459.58 2283.89 1455 Q2286.97 1450.39 2292.78 1450.39 Z" fill="#000000" fill-rule="nonzero" fill-opacity="1" /><path clip-path="url(#clip670)" d="M2322.94 1454.1 Q2319.33 1454.1 2317.5 1457.66 Q2315.69 1461.2 2315.69 1468.33 Q2315.69 1475.44 2317.5 1479.01 Q2319.33 1482.55 2322.94 1482.55 Q2326.57 1482.55 2328.38 1479.01 Q2330.21 1475.44 2330.21 1468.33 Q2330.21 1461.2 2328.38 1457.66 Q2326.57 1454.1 2322.94 1454.1 M2322.94 1450.39 Q2328.75 1450.39 2331.81 1455 Q2334.88 1459.58 2334.88 1468.33 Q2334.88 1477.06 2331.81 1481.67 Q2328.75 1486.25 2322.94 1486.25 Q2317.13 1486.25 2314.05 1481.67 Q2311 1477.06 2311 1468.33 Q2311 1459.58 2314.05 1455 Q2317.13 1450.39 2322.94 1450.39 Z" fill="#000000" fill-rule="nonzero" fill-opacity="1" /><path clip-path="url(#clip670)" d="M1165.17 1520.52 L1171.6 1520.52 L1171.6 1568.04 L1165.17 1568.04 L1165.17 1520.52 Z" fill="#000000" fill-rule="nonzero" fill-opacity="1" /><path clip-path="url(#clip670)" d="M1189.93 1522.27 L1189.93 1532.4 L1201.99 1532.4 L1201.99 1536.95 L1189.93 1536.95 L1189.93 1556.3 Q1189.93 1560.66 1191.11 1561.9 Q1192.32 1563.14 1195.98 1563.14 L1201.99 1563.14 L1201.99 1568.04 L1195.98 1568.04 Q1189.2 1568.04 1186.62 1565.53 Q1184.04 1562.98 1184.04 1556.3 L1184.04 1536.95 L1179.74 1536.95 L1179.74 1532.4 L1184.04 1532.4 L1184.04 1522.27 L1189.93 1522.27 Z" fill="#000000" fill-rule="nonzero" fill-opacity="1" /><path clip-path="url(#clip670)" d="M1240.19 1548.76 L1240.19 1551.62 L1213.26 1551.62 Q1213.64 1557.67 1216.89 1560.85 Q1220.17 1564 1225.99 1564 Q1229.36 1564 1232.52 1563.17 Q1235.7 1562.35 1238.82 1560.69 L1238.82 1566.23 Q1235.67 1567.57 1232.36 1568.27 Q1229.05 1568.97 1225.64 1568.97 Q1217.11 1568.97 1212.11 1564 Q1207.15 1559.04 1207.15 1550.57 Q1207.15 1541.82 1211.86 1536.69 Q1216.6 1531.54 1224.62 1531.54 Q1231.81 1531.54 1235.98 1536.18 Q1240.19 1540.8 1240.19 1548.76 M1234.33 1547.04 Q1234.27 1542.23 1231.62 1539.37 Q1229.01 1536.5 1224.69 1536.5 Q1219.78 1536.5 1216.82 1539.27 Q1213.9 1542.04 1213.45 1547.07 L1234.33 1547.04 Z" fill="#000000" fill-rule="nonzero" fill-opacity="1" /><path clip-path="url(#clip670)" d="M1270.45 1537.87 Q1269.47 1537.3 1268.29 1537.04 Q1267.14 1536.76 1265.74 1536.76 Q1260.78 1536.76 1258.11 1540 Q1255.46 1543.22 1255.46 1549.27 L1255.46 1568.04 L1249.58 1568.04 L1249.58 1532.4 L1255.46 1532.4 L1255.46 1537.93 Q1257.31 1534.69 1260.27 1533.13 Q1263.23 1531.54 1267.46 1531.54 Q1268.07 1531.54 1268.8 1531.63 Q1269.53 1531.7 1270.42 1531.85 L1270.45 1537.87 Z" fill="#000000" fill-rule="nonzero" fill-opacity="1" /><path clip-path="url(#clip670)" d="M1292.8 1550.12 Q1285.7 1550.12 1282.96 1551.75 Q1280.23 1553.37 1280.23 1557.29 Q1280.23 1560.4 1282.26 1562.25 Q1284.33 1564.07 1287.86 1564.07 Q1292.73 1564.07 1295.66 1560.63 Q1298.62 1557.16 1298.62 1551.43 L1298.62 1550.12 L1292.8 1550.12 M1304.48 1547.71 L1304.48 1568.04 L1298.62 1568.04 L1298.62 1562.63 Q1296.62 1565.88 1293.63 1567.44 Q1290.63 1568.97 1286.31 1568.97 Q1280.83 1568.97 1277.58 1565.91 Q1274.37 1562.82 1274.37 1557.67 Q1274.37 1551.65 1278.38 1548.6 Q1282.42 1545.54 1290.41 1545.54 L1298.62 1545.54 L1298.62 1544.97 Q1298.62 1540.93 1295.95 1538.73 Q1293.31 1536.5 1288.5 1536.5 Q1285.45 1536.5 1282.55 1537.23 Q1279.65 1537.97 1276.98 1539.43 L1276.98 1534.02 Q1280.19 1532.78 1283.22 1532.17 Q1286.24 1531.54 1289.11 1531.54 Q1296.84 1531.54 1300.66 1535.55 Q1304.48 1539.56 1304.48 1547.71 Z" fill="#000000" fill-rule="nonzero" fill-opacity="1" /><path clip-path="url(#clip670)" d="M1322.34 1522.27 L1322.34 1532.4 L1334.4 1532.4 L1334.4 1536.95 L1322.34 1536.95 L1322.34 1556.3 Q1322.34 1560.66 1323.51 1561.9 Q1324.72 1563.14 1328.38 1563.14 L1334.4 1563.14 L1334.4 1568.04 L1328.38 1568.04 Q1321.6 1568.04 1319.03 1565.53 Q1316.45 1562.98 1316.45 1556.3 L1316.45 1536.95 L1312.15 1536.95 L1312.15 1532.4 L1316.45 1532.4 L1316.45 1522.27 L1322.34 1522.27 Z" fill="#000000" fill-rule="nonzero" fill-opacity="1" /><path clip-path="url(#clip670)" d="M1342.1 1532.4 L1347.96 1532.4 L1347.96 1568.04 L1342.1 1568.04 L1342.1 1532.4 M1342.1 1518.52 L1347.96 1518.52 L1347.96 1525.93 L1342.1 1525.93 L1342.1 1518.52 Z" fill="#000000" fill-rule="nonzero" fill-opacity="1" /><path clip-path="url(#clip670)" d="M1374.02 1536.5 Q1369.31 1536.5 1366.58 1540.19 Q1363.84 1543.85 1363.84 1550.25 Q1363.84 1556.65 1366.55 1560.34 Q1369.28 1564 1374.02 1564 Q1378.7 1564 1381.44 1560.31 Q1384.18 1556.62 1384.18 1550.25 Q1384.18 1543.92 1381.44 1540.23 Q1378.7 1536.5 1374.02 1536.5 M1374.02 1531.54 Q1381.66 1531.54 1386.02 1536.5 Q1390.38 1541.47 1390.38 1550.25 Q1390.38 1559 1386.02 1564 Q1381.66 1568.97 1374.02 1568.97 Q1366.35 1568.97 1361.99 1564 Q1357.66 1559 1357.66 1550.25 Q1357.66 1541.47 1361.99 1536.5 Q1366.35 1531.54 1374.02 1531.54 Z" fill="#000000" fill-rule="nonzero" fill-opacity="1" /><path clip-path="url(#clip670)" d="M1429.72 1546.53 L1429.72 1568.04 L1423.87 1568.04 L1423.87 1546.72 Q1423.87 1541.66 1421.89 1539.14 Q1419.92 1536.63 1415.97 1536.63 Q1411.23 1536.63 1408.5 1539.65 Q1405.76 1542.68 1405.76 1547.9 L1405.76 1568.04 L1399.87 1568.04 L1399.87 1532.4 L1405.76 1532.4 L1405.76 1537.93 Q1407.86 1534.72 1410.69 1533.13 Q1413.56 1531.54 1417.28 1531.54 Q1423.42 1531.54 1426.57 1535.36 Q1429.72 1539.14 1429.72 1546.53 Z" fill="#000000" fill-rule="nonzero" fill-opacity="1" /><polyline clip-path="url(#clip670)" style="stroke:#000000; stroke-linecap:round; stroke-linejoin:round; stroke-width:4; stroke-opacity:1; fill:none" points="242.135,1423.18 242.135,47.2441 "/>
<polyline clip-path="url(#clip670)" style="stroke:#000000; stroke-linecap:round; stroke-linejoin:round; stroke-width:4; stroke-opacity:1; fill:none" points="242.135,1423.18 261.032,1423.18 "/>
<polyline clip-path="url(#clip670)" style="stroke:#000000; stroke-linecap:round; stroke-linejoin:round; stroke-width:4; stroke-opacity:1; fill:none" points="242.135,1034.72 261.032,1034.72 "/>
<polyline clip-path="url(#clip670)" style="stroke:#000000; stroke-linecap:round; stroke-linejoin:round; stroke-width:4; stroke-opacity:1; fill:none" points="242.135,646.267 261.032,646.267 "/>
<polyline clip-path="url(#clip670)" style="stroke:#000000; stroke-linecap:round; stroke-linejoin:round; stroke-width:4; stroke-opacity:1; fill:none" points="242.135,257.81 261.032,257.81 "/>
<path clip-path="url(#clip670)" d="M114.26 1423.63 L143.936 1423.63 L143.936 1427.57 L114.26 1427.57 L114.26 1423.63 Z" fill="#000000" fill-rule="nonzero" fill-opacity="1" /><path clip-path="url(#clip670)" d="M154.839 1436.52 L162.477 1436.52 L162.477 1410.16 L154.167 1411.83 L154.167 1407.57 L162.431 1405.9 L167.107 1405.9 L167.107 1436.52 L174.746 1436.52 L174.746 1440.46 L154.839 1440.46 L154.839 1436.52 Z" fill="#000000" fill-rule="nonzero" fill-opacity="1" /><path clip-path="url(#clip670)" d="M194.19 1408.98 Q190.579 1408.98 188.75 1412.54 Q186.945 1416.08 186.945 1423.21 Q186.945 1430.32 188.75 1433.89 Q190.579 1437.43 194.19 1437.43 Q197.825 1437.43 199.63 1433.89 Q201.459 1430.32 201.459 1423.21 Q201.459 1416.08 199.63 1412.54 Q197.825 1408.98 194.19 1408.98 M194.19 1405.27 Q200 1405.27 203.056 1409.88 Q206.135 1414.46 206.135 1423.21 Q206.135 1431.94 203.056 1436.55 Q200 1441.13 194.19 1441.13 Q188.38 1441.13 185.301 1436.55 Q182.246 1431.94 182.246 1423.21 Q182.246 1414.46 185.301 1409.88 Q188.38 1405.27 194.19 1405.27 Z" fill="#000000" fill-rule="nonzero" fill-opacity="1" /><path clip-path="url(#clip670)" d="M144.515 1035.17 L174.19 1035.17 L174.19 1039.11 L144.515 1039.11 L144.515 1035.17 Z" fill="#000000" fill-rule="nonzero" fill-opacity="1" /><path clip-path="url(#clip670)" d="M194.283 1035.59 Q190.95 1035.59 189.028 1037.37 Q187.13 1039.16 187.13 1042.28 Q187.13 1045.41 189.028 1047.19 Q190.95 1048.97 194.283 1048.97 Q197.616 1048.97 199.537 1047.19 Q201.459 1045.38 201.459 1042.28 Q201.459 1039.16 199.537 1037.37 Q197.639 1035.59 194.283 1035.59 M189.607 1033.6 Q186.598 1032.86 184.908 1030.8 Q183.241 1028.74 183.241 1025.78 Q183.241 1021.63 186.181 1019.23 Q189.144 1016.82 194.283 1016.82 Q199.445 1016.82 202.385 1019.23 Q205.324 1021.63 205.324 1025.78 Q205.324 1028.74 203.635 1030.8 Q201.968 1032.86 198.982 1033.6 Q202.362 1034.39 204.237 1036.68 Q206.135 1038.97 206.135 1042.28 Q206.135 1047.3 203.056 1049.99 Q200 1052.67 194.283 1052.67 Q188.565 1052.67 185.487 1049.99 Q182.431 1047.3 182.431 1042.28 Q182.431 1038.97 184.329 1036.68 Q186.227 1034.39 189.607 1033.6 M187.894 1026.22 Q187.894 1028.9 189.561 1030.41 Q191.25 1031.91 194.283 1031.91 Q197.292 1031.91 198.982 1030.41 Q200.695 1028.9 200.695 1026.22 Q200.695 1023.53 198.982 1022.03 Q197.292 1020.52 194.283 1020.52 Q191.25 1020.52 189.561 1022.03 Q187.894 1023.53 187.894 1026.22 Z" fill="#000000" fill-rule="nonzero" fill-opacity="1" /><path clip-path="url(#clip670)" d="M144.26 646.718 L173.936 646.718 L173.936 650.653 L144.26 650.653 L144.26 646.718 Z" fill="#000000" fill-rule="nonzero" fill-opacity="1" /><path clip-path="url(#clip670)" d="M194.607 644.403 Q191.459 644.403 189.607 646.556 Q187.778 648.709 187.778 652.459 Q187.778 656.186 189.607 658.362 Q191.459 660.514 194.607 660.514 Q197.755 660.514 199.584 658.362 Q201.436 656.186 201.436 652.459 Q201.436 648.709 199.584 646.556 Q197.755 644.403 194.607 644.403 M203.889 629.751 L203.889 634.01 Q202.13 633.176 200.325 632.737 Q198.542 632.297 196.783 632.297 Q192.153 632.297 189.7 635.422 Q187.269 638.547 186.922 644.866 Q188.288 642.852 190.348 641.788 Q192.408 640.7 194.885 640.7 Q200.093 640.7 203.102 643.871 Q206.135 647.019 206.135 652.459 Q206.135 657.783 202.987 661 Q199.838 664.218 194.607 664.218 Q188.612 664.218 185.44 659.635 Q182.269 655.028 182.269 646.301 Q182.269 638.107 186.158 633.246 Q190.047 628.362 196.598 628.362 Q198.357 628.362 200.139 628.709 Q201.945 629.056 203.889 629.751 Z" fill="#000000" fill-rule="nonzero" fill-opacity="1" /><path clip-path="url(#clip670)" d="M143.936 258.261 L173.612 258.261 L173.612 262.197 L143.936 262.197 L143.936 258.261 Z" fill="#000000" fill-rule="nonzero" fill-opacity="1" /><path clip-path="url(#clip670)" d="M196.551 244.604 L184.746 263.053 L196.551 263.053 L196.551 244.604 M195.325 240.53 L201.204 240.53 L201.204 263.053 L206.135 263.053 L206.135 266.942 L201.204 266.942 L201.204 275.09 L196.551 275.09 L196.551 266.942 L180.95 266.942 L180.95 262.428 L195.325 240.53 Z" fill="#000000" fill-rule="nonzero" fill-opacity="1" /><path clip-path="url(#clip670)" d="M16.4842 816.375 L16.4842 786.329 L21.895 786.329 L21.895 809.945 L35.9632 809.945 L35.9632 787.315 L41.3741 787.315 L41.3741 809.945 L58.5933 809.945 L58.5933 785.756 L64.0042 785.756 L64.0042 816.375 L16.4842 816.375 Z" fill="#000000" fill-rule="nonzero" fill-opacity="1" /><path clip-path="url(#clip670)" d="M16.4842 775.189 L16.4842 768.759 L58.5933 768.759 L58.5933 745.62 L64.0042 745.62 L64.0042 775.189 L16.4842 775.189 Z" fill="#000000" fill-rule="nonzero" fill-opacity="1" /><path clip-path="url(#clip670)" d="M41.3104 732.443 L58.7206 732.443 L58.7206 722.13 Q58.7206 716.942 56.5881 714.46 Q54.4238 711.945 49.9996 711.945 Q45.5436 711.945 43.4429 714.46 Q41.3104 716.942 41.3104 722.13 L41.3104 732.443 M21.7677 732.443 L36.0905 732.443 L36.0905 722.926 Q36.0905 718.216 34.34 715.924 Q32.5576 713.6 28.9291 713.6 Q25.3325 713.6 23.5501 715.924 Q21.7677 718.216 21.7677 722.926 L21.7677 732.443 M16.4842 738.872 L16.4842 722.449 Q16.4842 715.096 19.5397 711.118 Q22.5952 707.139 28.2289 707.139 Q32.5894 707.139 35.1675 709.176 Q37.7456 711.213 38.3822 715.16 Q39.4007 710.418 42.6472 707.808 Q45.8619 705.166 50.6998 705.166 Q57.0655 705.166 60.5348 709.495 Q64.0042 713.823 64.0042 721.812 L64.0042 738.872 L16.4842 738.872 Z" fill="#000000" fill-rule="nonzero" fill-opacity="1" /><path clip-path="url(#clip670)" d="M20.8447 676.011 Q20.8447 683.013 26.0645 687.151 Q31.2844 691.257 40.2919 691.257 Q49.2675 691.257 54.4874 687.151 Q59.7073 683.013 59.7073 676.011 Q59.7073 669.009 54.4874 664.935 Q49.2675 660.829 40.2919 660.829 Q31.2844 660.829 26.0645 664.935 Q20.8447 669.009 20.8447 676.011 M15.6248 676.011 Q15.6248 666.017 22.3406 660.033 Q29.0246 654.049 40.2919 654.049 Q51.5274 654.049 58.2432 660.033 Q64.9272 666.017 64.9272 676.011 Q64.9272 686.037 58.2432 692.052 Q51.5592 698.036 40.2919 698.036 Q29.0246 698.036 22.3406 692.052 Q15.6248 686.037 15.6248 676.011 Z" fill="#000000" fill-rule="nonzero" fill-opacity="1" /><polyline clip-path="url(#clip672)" style="stroke:#009af9; stroke-linecap:round; stroke-linejoin:round; stroke-width:4; stroke-opacity:1; fill:none" points="301.869,29259.5 308.529,1880.5 315.188,680.17 321.847,876.94 328.507,810.123 335.166,798.093 341.825,801.338 348.485,845.891 355.144,1053.03 361.804,771.412 368.463,771.356 375.122,800.053 381.782,621.241 388.441,548.192 395.1,514.068 401.76,754.789 408.419,931.935 415.079,656.044 421.738,526.501 428.397,406.257 435.057,612.66 441.716,1515.17 448.375,1529.75 455.035,36177.7 461.694,340.91 468.354,697.995 475.013,684.739 481.672,657.495 488.332,870.47 494.991,846.354 501.65,943.183 508.31,908.378 514.969,1008.78 521.628,929.148 528.288,946.723 534.947,901.686 541.607,985.94 548.266,1006.85 554.925,980.699 561.585,1052.26 568.244,1095.72 574.903,1042.59 581.563,1028.49 588.222,1077.12 594.882,1112.5 601.541,1062.53 608.2,1019.76 614.86,1094.5 621.519,1081.46 628.178,1008.77 634.838,1104.63 641.497,1075.14 648.157,1074.64 654.816,1076.83 661.475,1046.56 668.135,1009.06 674.794,1098.05 681.453,1100.45 688.113,1040.63 694.772,1043.08 701.432,1079.2 708.091,1116.54 714.75,1053.69 721.41,1073.21 728.069,1081.31 734.728,1056.66 741.388,1087.41 748.047,1045.14 754.706,1041.42 761.366,1056.84 768.025,1052.97 774.685,921.891 781.344,960.67 788.003,1014.44 794.663,984.679 801.322,936.96 807.981,978.184 814.641,865.752 821.3,998.591 827.96,945.898 834.619,1009.57 841.278,924.648 847.938,938.014 854.597,955.102 861.256,882.181 867.916,869.448 874.575,928.545 881.235,934.228 887.894,937.455 894.553,840.785 901.213,833.93 907.872,846.097 914.531,817.741 921.191,817.507 927.85,878.571 934.51,707.419 941.169,823.245 947.828,835.996 954.488,742.099 961.147,811.757 967.806,701.805 974.466,716.423 981.125,791.339 987.785,767.642 994.444,673.503 1001.1,635.477 1007.76,684.838 1014.42,628.974 1021.08,593.645 1027.74,687.825 1034.4,633.139 1041.06,649.83 1047.72,621.337 1054.38,546.159 1061.04,487.709 1067.7,477.37 1074.36,522.074 1081.02,460.439 1087.68,407.485 1094.33,491.563 1100.99,403.268 1107.65,407.227 1114.31,422.346 1120.97,401.785 1127.63,358.919 1134.29,309.401 1140.95,360.491 1147.61,312.421 1154.27,301.711 1160.93,399.973 1167.59,361.801 1174.25,409.455 1180.91,349.102 1187.57,396.415 1194.23,356.181 1200.88,365.513 1207.54,329.729 1214.2,386.628 1220.86,387.153 1227.52,337.563 1234.18,307.632 1240.84,276.49 1247.5,396.655 1254.16,376.679 1260.82,288.274 1267.48,306.253 1274.14,329.564 1280.8,358.557 1287.46,360.406 1294.12,292.302 1300.77,295.335 1307.43,230.237 1314.09,221.68 1320.75,188.555 1327.41,276.192 1334.07,203.292 1340.73,274.963 1347.39,316.376 1354.05,286.501 1360.71,131.907 1367.37,178.867 1374.03,203.498 1380.69,170.96 1387.35,221.881 1394.01,256.644 1400.67,262.328 1407.32,195.113 1413.98,153.323 1420.64,108.879 1427.3,423.636 1433.96,234.417 1440.62,181.819 1447.28,322.053 1453.94,181.677 1460.6,253.381 1467.26,193.653 1473.92,240.139 1480.58,205.033 1487.24,242.007 1493.9,249.999 1500.56,233.131 1507.22,239.873 1513.87,191.631 1520.53,246.659 1527.19,201.303 1533.85,163.225 1540.51,160.815 1547.17,248.359 1553.83,174.32 1560.49,140.31 1567.15,187.751 1573.81,514.173 1580.47,212.486 1587.13,107.757 1593.79,225.087 1600.45,157.808 1607.11,188.55 1613.77,200.247 1620.42,247.782 1627.08,211.836 1633.74,203.013 1640.4,184.177 1647.06,215.476 1653.72,224.806 1660.38,123.141 1667.04,194.992 1673.7,243.493 1680.36,211.959 1687.02,171.66 1693.68,149.397 1700.34,172.717 1707,198.524 1713.66,47.2441 1720.32,176.861 1726.97,253.019 1733.63,165.963 1740.29,502.505 1746.95,103.879 1753.61,200.075 1760.27,51.793 1766.93,199.776 1773.59,151.92 1780.25,90.3735 1786.91,210.234 1793.57,201.455 1800.23,192.861 1806.89,168.037 1813.55,211.774 1820.21,388.84 1826.87,242.96 1833.52,187.966 1840.18,159.265 1846.84,158.429 1853.5,184.833 1860.16,158.884 1866.82,216.729 1873.48,249.406 1880.14,216.657 1886.8,195.743 1893.46,141.616 1900.12,196.081 1906.78,206.971 1913.44,210.582 1920.1,164.381 1926.76,190.917 1933.42,105.597 1940.07,109.711 1946.73,179 1953.39,183.349 1960.05,93.6473 1966.71,158.547 1973.37,187.982 1980.03,180.922 1986.69,97.9998 1993.35,110.053 2000.01,165.039 2006.67,107.391 2013.33,116.435 2019.99,147.377 2026.65,185.489 2033.31,118.341 2039.97,156.056 2046.62,149.066 2053.28,151.833 2059.94,150.045 2066.6,103.835 2073.26,151.597 2079.92,112.693 2086.58,124.325 2093.24,112.791 2099.9,123.239 2106.56,165.152 2113.22,135.616 2119.88,146.341 2126.54,347.364 2133.2,175.965 2139.86,253.773 2146.52,124.531 2153.17,150.03 2159.83,143.828 2166.49,129.242 2173.15,156.124 2179.81,115.518 2186.47,164.246 2193.13,135.511 2199.79,179.58 2206.45,154.521 2213.11,157.613 2219.77,154.09 2226.43,127.923 2233.09,189.825 2239.75,125.141 2246.41,135.606 2253.07,158.01 2259.72,144.163 2266.38,165.227 2273.04,160.288 2279.7,161.149 2286.36,155.147 2293.02,157.182 "/>
<path clip-path="url(#clip670)" d="M2018.91 1377.32 L2282.4 1377.32 L2282.4 1273.64 L2018.91 1273.64  Z" fill="#ffffff" fill-rule="evenodd" fill-opacity="1"/>
<polyline clip-path="url(#clip670)" style="stroke:#000000; stroke-linecap:round; stroke-linejoin:round; stroke-width:4; stroke-opacity:1; fill:none" points="2018.91,1377.32 2282.4,1377.32 2282.4,1273.64 2018.91,1273.64 2018.91,1377.32 "/>
<polyline clip-path="url(#clip670)" style="stroke:#009af9; stroke-linecap:round; stroke-linejoin:round; stroke-width:4; stroke-opacity:1; fill:none" points="2042.36,1325.48 2183.07,1325.48 "/>
<path clip-path="url(#clip670)" d="M2220.36 1345.16 Q2218.56 1349.79 2216.84 1351.2 Q2215.13 1352.62 2212.26 1352.62 L2208.86 1352.62 L2208.86 1349.05 L2211.36 1349.05 Q2213.12 1349.05 2214.09 1348.22 Q2215.06 1347.38 2216.24 1344.28 L2217.01 1342.34 L2206.52 1316.83 L2211.03 1316.83 L2219.14 1337.11 L2227.24 1316.83 L2231.75 1316.83 L2220.36 1345.16 Z" fill="#000000" fill-rule="nonzero" fill-opacity="1" /><path clip-path="url(#clip670)" d="M2239.04 1338.82 L2246.68 1338.82 L2246.68 1312.45 L2238.37 1314.12 L2238.37 1309.86 L2246.64 1308.2 L2251.31 1308.2 L2251.31 1338.82 L2258.95 1338.82 L2258.95 1342.76 L2239.04 1342.76 L2239.04 1338.82 Z" fill="#000000" fill-rule="nonzero" fill-opacity="1" /></svg>
