<?xml version="1.0" encoding="utf-8"?>
<svg xmlns="http://www.w3.org/2000/svg" xmlns:xlink="http://www.w3.org/1999/xlink" width="600" height="400" viewBox="0 0 2400 1600">
<defs>
  <clipPath id="clip110">
    <rect x="0" y="0" width="2400" height="1600"/>
  </clipPath>
</defs>
<path clip-path="url(#clip110)" d="M0 1600 L2400 1600 L2400 0 L0 0  Z" fill="#ffffff" fill-rule="evenodd" fill-opacity="1"/>
<defs>
  <clipPath id="clip111">
    <rect x="251" y="47" width="2102" height="1377"/>
  </clipPath>
</defs>
<path clip-path="url(#clip110)" d="M242.135 1423.18 L2352.76 1423.18 L2352.76 47.2441 L242.135 47.2441  Z" fill="#ffffff" fill-rule="evenodd" fill-opacity="1"/>
<defs>
  <clipPath id="clip112">
    <rect x="242" y="47" width="2112" height="1377"/>
  </clipPath>
</defs>
<polyline clip-path="url(#clip112)" style="stroke:#000000; stroke-linecap:round; stroke-linejoin:round; stroke-width:2; stroke-opacity:0.1; fill:none" points="299.876,1423.18 299.876,47.2441 "/>
<polyline clip-path="url(#clip112)" style="stroke:#000000; stroke-linecap:round; stroke-linejoin:round; stroke-width:2; stroke-opacity:0.1; fill:none" points="798.162,1423.18 798.162,47.2441 "/>
<polyline clip-path="url(#clip112)" style="stroke:#000000; stroke-linecap:round; stroke-linejoin:round; stroke-width:2; stroke-opacity:0.1; fill:none" points="1296.45,1423.18 1296.45,47.2441 "/>
<polyline clip-path="url(#clip112)" style="stroke:#000000; stroke-linecap:round; stroke-linejoin:round; stroke-width:2; stroke-opacity:0.1; fill:none" points="1794.74,1423.18 1794.74,47.2441 "/>
<polyline clip-path="url(#clip112)" style="stroke:#000000; stroke-linecap:round; stroke-linejoin:round; stroke-width:2; stroke-opacity:0.1; fill:none" points="2293.02,1423.18 2293.02,47.2441 "/>
<polyline clip-path="url(#clip112)" style="stroke:#000000; stroke-linecap:round; stroke-linejoin:round; stroke-width:2; stroke-opacity:0.1; fill:none" points="242.135,1241.18 2352.76,1241.18 "/>
<polyline clip-path="url(#clip112)" style="stroke:#000000; stroke-linecap:round; stroke-linejoin:round; stroke-width:2; stroke-opacity:0.1; fill:none" points="242.135,904.543 2352.76,904.543 "/>
<polyline clip-path="url(#clip112)" style="stroke:#000000; stroke-linecap:round; stroke-linejoin:round; stroke-width:2; stroke-opacity:0.1; fill:none" points="242.135,567.904 2352.76,567.904 "/>
<polyline clip-path="url(#clip112)" style="stroke:#000000; stroke-linecap:round; stroke-linejoin:round; stroke-width:2; stroke-opacity:0.1; fill:none" points="242.135,231.265 2352.76,231.265 "/>
<polyline clip-path="url(#clip110)" style="stroke:#000000; stroke-linecap:round; stroke-linejoin:round; stroke-width:4; stroke-opacity:1; fill:none" points="242.135,1423.18 2352.76,1423.18 "/>
<polyline clip-path="url(#clip110)" style="stroke:#000000; stroke-linecap:round; stroke-linejoin:round; stroke-width:4; stroke-opacity:1; fill:none" points="299.876,1423.18 299.876,1404.28 "/>
<polyline clip-path="url(#clip110)" style="stroke:#000000; stroke-linecap:round; stroke-linejoin:round; stroke-width:4; stroke-opacity:1; fill:none" points="798.162,1423.18 798.162,1404.28 "/>
<polyline clip-path="url(#clip110)" style="stroke:#000000; stroke-linecap:round; stroke-linejoin:round; stroke-width:4; stroke-opacity:1; fill:none" points="1296.45,1423.18 1296.45,1404.28 "/>
<polyline clip-path="url(#clip110)" style="stroke:#000000; stroke-linecap:round; stroke-linejoin:round; stroke-width:4; stroke-opacity:1; fill:none" points="1794.74,1423.18 1794.74,1404.28 "/>
<polyline clip-path="url(#clip110)" style="stroke:#000000; stroke-linecap:round; stroke-linejoin:round; stroke-width:4; stroke-opacity:1; fill:none" points="2293.02,1423.18 2293.02,1404.28 "/>
<path clip-path="url(#clip110)" d="M299.876 1454.1 Q296.265 1454.1 294.436 1457.66 Q292.631 1461.2 292.631 1468.33 Q292.631 1475.44 294.436 1479.01 Q296.265 1482.55 299.876 1482.55 Q303.51 1482.55 305.316 1479.01 Q307.145 1475.44 307.145 1468.33 Q307.145 1461.2 305.316 1457.66 Q303.51 1454.1 299.876 1454.1 M299.876 1450.39 Q305.686 1450.39 308.742 1455 Q311.82 1459.58 311.82 1468.33 Q311.82 1477.06 308.742 1481.67 Q305.686 1486.25 299.876 1486.25 Q294.066 1486.25 290.987 1481.67 Q287.932 1477.06 287.932 1468.33 Q287.932 1459.58 290.987 1455 Q294.066 1450.39 299.876 1450.39 Z" fill="#000000" fill-rule="nonzero" fill-opacity="1" /><path clip-path="url(#clip110)" d="M761.855 1481.64 L778.174 1481.64 L778.174 1485.58 L756.23 1485.58 L756.23 1481.64 Q758.892 1478.89 763.475 1474.26 Q768.082 1469.61 769.262 1468.27 Q771.507 1465.74 772.387 1464.01 Q773.29 1462.25 773.29 1460.56 Q773.29 1457.8 771.345 1456.07 Q769.424 1454.33 766.322 1454.33 Q764.123 1454.33 761.67 1455.09 Q759.239 1455.86 756.461 1457.41 L756.461 1452.69 Q759.285 1451.55 761.739 1450.97 Q764.193 1450.39 766.23 1450.39 Q771.6 1450.39 774.794 1453.08 Q777.989 1455.77 777.989 1460.26 Q777.989 1462.39 777.179 1464.31 Q776.392 1466.2 774.285 1468.8 Q773.707 1469.47 770.605 1472.69 Q767.503 1475.88 761.855 1481.64 Z" fill="#000000" fill-rule="nonzero" fill-opacity="1" /><path clip-path="url(#clip110)" d="M788.035 1451.02 L806.392 1451.02 L806.392 1454.96 L792.318 1454.96 L792.318 1463.43 Q793.336 1463.08 794.355 1462.92 Q795.373 1462.73 796.392 1462.73 Q802.179 1462.73 805.558 1465.9 Q808.938 1469.08 808.938 1474.49 Q808.938 1480.07 805.466 1483.17 Q801.993 1486.25 795.674 1486.25 Q793.498 1486.25 791.23 1485.88 Q788.984 1485.51 786.577 1484.77 L786.577 1480.07 Q788.66 1481.2 790.882 1481.76 Q793.105 1482.32 795.581 1482.32 Q799.586 1482.32 801.924 1480.21 Q804.262 1478.1 804.262 1474.49 Q804.262 1470.88 801.924 1468.77 Q799.586 1466.67 795.581 1466.67 Q793.706 1466.67 791.831 1467.08 Q789.98 1467.5 788.035 1468.38 L788.035 1451.02 Z" fill="#000000" fill-rule="nonzero" fill-opacity="1" /><path clip-path="url(#clip110)" d="M828.151 1454.1 Q824.54 1454.1 822.711 1457.66 Q820.905 1461.2 820.905 1468.33 Q820.905 1475.44 822.711 1479.01 Q824.54 1482.55 828.151 1482.55 Q831.785 1482.55 833.59 1479.01 Q835.419 1475.44 835.419 1468.33 Q835.419 1461.2 833.59 1457.66 Q831.785 1454.1 828.151 1454.1 M828.151 1450.39 Q833.961 1450.39 837.016 1455 Q840.095 1459.58 840.095 1468.33 Q840.095 1477.06 837.016 1481.67 Q833.961 1486.25 828.151 1486.25 Q822.341 1486.25 819.262 1481.67 Q816.206 1477.06 816.206 1468.33 Q816.206 1459.58 819.262 1455 Q822.341 1450.39 828.151 1450.39 Z" fill="#000000" fill-rule="nonzero" fill-opacity="1" /><path clip-path="url(#clip110)" d="M1256.07 1451.02 L1274.42 1451.02 L1274.42 1454.96 L1260.35 1454.96 L1260.35 1463.43 Q1261.37 1463.08 1262.39 1462.92 Q1263.4 1462.73 1264.42 1462.73 Q1270.21 1462.73 1273.59 1465.9 Q1276.97 1469.08 1276.97 1474.49 Q1276.97 1480.07 1273.5 1483.17 Q1270.03 1486.25 1263.71 1486.25 Q1261.53 1486.25 1259.26 1485.88 Q1257.02 1485.51 1254.61 1484.77 L1254.61 1480.07 Q1256.69 1481.2 1258.91 1481.76 Q1261.14 1482.32 1263.61 1482.32 Q1267.62 1482.32 1269.96 1480.21 Q1272.29 1478.1 1272.29 1474.49 Q1272.29 1470.88 1269.96 1468.77 Q1267.62 1466.67 1263.61 1466.67 Q1261.74 1466.67 1259.86 1467.08 Q1258.01 1467.5 1256.07 1468.38 L1256.07 1451.02 Z" fill="#000000" fill-rule="nonzero" fill-opacity="1" /><path clip-path="url(#clip110)" d="M1296.18 1454.1 Q1292.57 1454.1 1290.74 1457.66 Q1288.94 1461.2 1288.94 1468.33 Q1288.94 1475.44 1290.74 1479.01 Q1292.57 1482.55 1296.18 1482.55 Q1299.82 1482.55 1301.62 1479.01 Q1303.45 1475.44 1303.45 1468.33 Q1303.45 1461.2 1301.62 1457.66 Q1299.82 1454.1 1296.18 1454.1 M1296.18 1450.39 Q1301.99 1450.39 1305.05 1455 Q1308.13 1459.58 1308.13 1468.33 Q1308.13 1477.06 1305.05 1481.67 Q1301.99 1486.25 1296.18 1486.25 Q1290.37 1486.25 1287.29 1481.67 Q1284.24 1477.06 1284.24 1468.33 Q1284.24 1459.58 1287.29 1455 Q1290.37 1450.39 1296.18 1450.39 Z" fill="#000000" fill-rule="nonzero" fill-opacity="1" /><path clip-path="url(#clip110)" d="M1326.34 1454.1 Q1322.73 1454.1 1320.9 1457.66 Q1319.1 1461.2 1319.1 1468.33 Q1319.1 1475.44 1320.9 1479.01 Q1322.73 1482.55 1326.34 1482.55 Q1329.98 1482.55 1331.78 1479.01 Q1333.61 1475.44 1333.61 1468.33 Q1333.61 1461.2 1331.78 1457.66 Q1329.98 1454.1 1326.34 1454.1 M1326.34 1450.39 Q1332.15 1450.39 1335.21 1455 Q1338.29 1459.58 1338.29 1468.33 Q1338.29 1477.06 1335.21 1481.67 Q1332.15 1486.25 1326.34 1486.25 Q1320.53 1486.25 1317.46 1481.67 Q1314.4 1477.06 1314.4 1468.33 Q1314.4 1459.58 1317.46 1455 Q1320.53 1450.39 1326.34 1450.39 Z" fill="#000000" fill-rule="nonzero" fill-opacity="1" /><path clip-path="url(#clip110)" d="M1753.01 1451.02 L1775.23 1451.02 L1775.23 1453.01 L1762.69 1485.58 L1757.8 1485.58 L1769.61 1454.96 L1753.01 1454.96 L1753.01 1451.02 Z" fill="#000000" fill-rule="nonzero" fill-opacity="1" /><path clip-path="url(#clip110)" d="M1784.4 1451.02 L1802.76 1451.02 L1802.76 1454.96 L1788.68 1454.96 L1788.68 1463.43 Q1789.7 1463.08 1790.72 1462.92 Q1791.74 1462.73 1792.76 1462.73 Q1798.54 1462.73 1801.92 1465.9 Q1805.3 1469.08 1805.3 1474.49 Q1805.3 1480.07 1801.83 1483.17 Q1798.36 1486.25 1792.04 1486.25 Q1789.86 1486.25 1787.59 1485.88 Q1785.35 1485.51 1782.94 1484.77 L1782.94 1480.07 Q1785.02 1481.2 1787.25 1481.76 Q1789.47 1482.32 1791.95 1482.32 Q1795.95 1482.32 1798.29 1480.21 Q1800.63 1478.1 1800.63 1474.49 Q1800.63 1470.88 1798.29 1468.77 Q1795.95 1466.67 1791.95 1466.67 Q1790.07 1466.67 1788.2 1467.08 Q1786.34 1467.5 1784.4 1468.38 L1784.4 1451.02 Z" fill="#000000" fill-rule="nonzero" fill-opacity="1" /><path clip-path="url(#clip110)" d="M1824.51 1454.1 Q1820.9 1454.1 1819.08 1457.66 Q1817.27 1461.2 1817.27 1468.33 Q1817.27 1475.44 1819.08 1479.01 Q1820.9 1482.55 1824.51 1482.55 Q1828.15 1482.55 1829.95 1479.01 Q1831.78 1475.44 1831.78 1468.33 Q1831.78 1461.2 1829.95 1457.66 Q1828.15 1454.1 1824.51 1454.1 M1824.51 1450.39 Q1830.33 1450.39 1833.38 1455 Q1836.46 1459.58 1836.46 1468.33 Q1836.46 1477.06 1833.38 1481.67 Q1830.33 1486.25 1824.51 1486.25 Q1818.7 1486.25 1815.63 1481.67 Q1812.57 1477.06 1812.57 1468.33 Q1812.57 1459.58 1815.63 1455 Q1818.7 1450.39 1824.51 1450.39 Z" fill="#000000" fill-rule="nonzero" fill-opacity="1" /><path clip-path="url(#clip110)" d="M2237.55 1481.64 L2245.19 1481.64 L2245.19 1455.28 L2236.88 1456.95 L2236.88 1452.69 L2245.14 1451.02 L2249.82 1451.02 L2249.82 1481.64 L2257.45 1481.64 L2257.45 1485.58 L2237.55 1485.58 L2237.55 1481.64 Z" fill="#000000" fill-rule="nonzero" fill-opacity="1" /><path clip-path="url(#clip110)" d="M2276.9 1454.1 Q2273.29 1454.1 2271.46 1457.66 Q2269.65 1461.2 2269.65 1468.33 Q2269.65 1475.44 2271.46 1479.01 Q2273.29 1482.55 2276.9 1482.55 Q2280.53 1482.55 2282.34 1479.01 Q2284.17 1475.44 2284.17 1468.33 Q2284.17 1461.2 2282.34 1457.66 Q2280.53 1454.1 2276.9 1454.1 M2276.9 1450.39 Q2282.71 1450.39 2285.76 1455 Q2288.84 1459.58 2288.84 1468.33 Q2288.84 1477.06 2285.76 1481.67 Q2282.71 1486.25 2276.9 1486.25 Q2271.09 1486.25 2268.01 1481.67 Q2264.95 1477.06 2264.95 1468.33 Q2264.95 1459.58 2268.01 1455 Q2271.09 1450.39 2276.9 1450.39 Z" fill="#000000" fill-rule="nonzero" fill-opacity="1" /><path clip-path="url(#clip110)" d="M2307.06 1454.1 Q2303.45 1454.1 2301.62 1457.66 Q2299.82 1461.2 2299.82 1468.33 Q2299.82 1475.44 2301.62 1479.01 Q2303.45 1482.55 2307.06 1482.55 Q2310.69 1482.55 2312.5 1479.01 Q2314.33 1475.44 2314.33 1468.33 Q2314.33 1461.2 2312.5 1457.66 Q2310.69 1454.1 2307.06 1454.1 M2307.06 1450.39 Q2312.87 1450.39 2315.93 1455 Q2319 1459.58 2319 1468.33 Q2319 1477.06 2315.93 1481.67 Q2312.87 1486.25 2307.06 1486.25 Q2301.25 1486.25 2298.17 1481.67 Q2295.12 1477.06 2295.12 1468.33 Q2295.12 1459.58 2298.17 1455 Q2301.25 1450.39 2307.06 1450.39 Z" fill="#000000" fill-rule="nonzero" fill-opacity="1" /><path clip-path="url(#clip110)" d="M2337.22 1454.1 Q2333.61 1454.1 2331.78 1457.66 Q2329.98 1461.2 2329.98 1468.33 Q2329.98 1475.44 2331.78 1479.01 Q2333.61 1482.55 2337.22 1482.55 Q2340.86 1482.55 2342.66 1479.01 Q2344.49 1475.44 2344.49 1468.33 Q2344.49 1461.2 2342.66 1457.66 Q2340.86 1454.1 2337.22 1454.1 M2337.22 1450.39 Q2343.03 1450.39 2346.09 1455 Q2349.17 1459.58 2349.17 1468.33 Q2349.17 1477.06 2346.09 1481.67 Q2343.03 1486.25 2337.22 1486.25 Q2331.41 1486.25 2328.33 1481.67 Q2325.28 1477.06 2325.28 1468.33 Q2325.28 1459.58 2328.33 1455 Q2331.41 1450.39 2337.22 1450.39 Z" fill="#000000" fill-rule="nonzero" fill-opacity="1" /><path clip-path="url(#clip110)" d="M1165.17 1520.52 L1171.6 1520.52 L1171.6 1568.04 L1165.17 1568.04 L1165.17 1520.52 Z" fill="#000000" fill-rule="nonzero" fill-opacity="1" /><path clip-path="url(#clip110)" d="M1189.93 1522.27 L1189.93 1532.4 L1201.99 1532.4 L1201.99 1536.95 L1189.93 1536.95 L1189.93 1556.3 Q1189.93 1560.66 1191.11 1561.9 Q1192.32 1563.14 1195.98 1563.14 L1201.99 1563.14 L1201.99 1568.04 L1195.98 1568.04 Q1189.2 1568.04 1186.62 1565.53 Q1184.04 1562.98 1184.04 1556.3 L1184.04 1536.95 L1179.74 1536.95 L1179.74 1532.4 L1184.04 1532.4 L1184.04 1522.27 L1189.93 1522.27 Z" fill="#000000" fill-rule="nonzero" fill-opacity="1" /><path clip-path="url(#clip110)" d="M1240.19 1548.76 L1240.19 1551.62 L1213.26 1551.62 Q1213.64 1557.67 1216.89 1560.85 Q1220.17 1564 1225.99 1564 Q1229.36 1564 1232.52 1563.17 Q1235.7 1562.35 1238.82 1560.69 L1238.82 1566.23 Q1235.67 1567.57 1232.36 1568.27 Q1229.05 1568.97 1225.64 1568.97 Q1217.11 1568.97 1212.11 1564 Q1207.15 1559.04 1207.15 1550.57 Q1207.15 1541.82 1211.86 1536.69 Q1216.6 1531.54 1224.62 1531.54 Q1231.81 1531.54 1235.98 1536.18 Q1240.19 1540.8 1240.19 1548.76 M1234.33 1547.04 Q1234.27 1542.23 1231.62 1539.37 Q1229.01 1536.5 1224.69 1536.5 Q1219.78 1536.5 1216.82 1539.27 Q1213.9 1542.04 1213.45 1547.07 L1234.33 1547.04 Z" fill="#000000" fill-rule="nonzero" fill-opacity="1" /><path clip-path="url(#clip110)" d="M1270.45 1537.87 Q1269.47 1537.3 1268.29 1537.04 Q1267.14 1536.76 1265.74 1536.76 Q1260.78 1536.76 1258.11 1540 Q1255.46 1543.22 1255.46 1549.27 L1255.46 1568.04 L1249.58 1568.04 L1249.58 1532.4 L1255.46 1532.4 L1255.46 1537.93 Q1257.31 1534.69 1260.27 1533.13 Q1263.23 1531.54 1267.46 1531.54 Q1268.07 1531.54 1268.8 1531.63 Q1269.53 1531.7 1270.42 1531.85 L1270.45 1537.87 Z" fill="#000000" fill-rule="nonzero" fill-opacity="1" /><path clip-path="url(#clip110)" d="M1292.8 1550.12 Q1285.7 1550.12 1282.96 1551.75 Q1280.23 1553.37 1280.23 1557.29 Q1280.23 1560.4 1282.26 1562.25 Q1284.33 1564.07 1287.86 1564.07 Q1292.73 1564.07 1295.66 1560.63 Q1298.62 1557.16 1298.62 1551.43 L1298.62 1550.12 L1292.8 1550.12 M1304.48 1547.71 L1304.48 1568.04 L1298.62 1568.04 L1298.62 1562.63 Q1296.62 1565.88 1293.63 1567.44 Q1290.63 1568.97 1286.31 1568.97 Q1280.83 1568.97 1277.58 1565.91 Q1274.37 1562.82 1274.37 1557.67 Q1274.37 1551.65 1278.38 1548.6 Q1282.42 1545.54 1290.41 1545.54 L1298.62 1545.54 L1298.62 1544.97 Q1298.62 1540.93 1295.95 1538.73 Q1293.31 1536.5 1288.5 1536.5 Q1285.45 1536.5 1282.55 1537.23 Q1279.65 1537.97 1276.98 1539.43 L1276.98 1534.02 Q1280.19 1532.78 1283.22 1532.17 Q1286.24 1531.54 1289.11 1531.54 Q1296.84 1531.54 1300.66 1535.55 Q1304.48 1539.56 1304.48 1547.71 Z" fill="#000000" fill-rule="nonzero" fill-opacity="1" /><path clip-path="url(#clip110)" d="M1322.34 1522.27 L1322.34 1532.4 L1334.4 1532.4 L1334.4 1536.95 L1322.34 1536.95 L1322.34 1556.3 Q1322.34 1560.66 1323.51 1561.9 Q1324.72 1563.14 1328.38 1563.14 L1334.4 1563.14 L1334.4 1568.04 L1328.38 1568.04 Q1321.6 1568.04 1319.03 1565.53 Q1316.45 1562.98 1316.45 1556.3 L1316.45 1536.95 L1312.15 1536.95 L1312.15 1532.4 L1316.45 1532.4 L1316.45 1522.27 L1322.34 1522.27 Z" fill="#000000" fill-rule="nonzero" fill-opacity="1" /><path clip-path="url(#clip110)" d="M1342.1 1532.4 L1347.96 1532.4 L1347.96 1568.04 L1342.1 1568.04 L1342.1 1532.4 M1342.1 1518.52 L1347.96 1518.52 L1347.96 1525.93 L1342.1 1525.93 L1342.1 1518.52 Z" fill="#000000" fill-rule="nonzero" fill-opacity="1" /><path clip-path="url(#clip110)" d="M1374.02 1536.5 Q1369.31 1536.5 1366.58 1540.19 Q1363.84 1543.85 1363.84 1550.25 Q1363.84 1556.65 1366.55 1560.34 Q1369.28 1564 1374.02 1564 Q1378.7 1564 1381.44 1560.31 Q1384.18 1556.62 1384.18 1550.25 Q1384.18 1543.92 1381.44 1540.23 Q1378.7 1536.5 1374.02 1536.5 M1374.02 1531.54 Q1381.66 1531.54 1386.02 1536.5 Q1390.38 1541.47 1390.38 1550.25 Q1390.38 1559 1386.02 1564 Q1381.66 1568.97 1374.02 1568.97 Q1366.35 1568.97 1361.99 1564 Q1357.66 1559 1357.66 1550.25 Q1357.66 1541.47 1361.99 1536.5 Q1366.35 1531.54 1374.02 1531.54 Z" fill="#000000" fill-rule="nonzero" fill-opacity="1" /><path clip-path="url(#clip110)" d="M1429.72 1546.53 L1429.72 1568.04 L1423.87 1568.04 L1423.87 1546.72 Q1423.87 1541.66 1421.89 1539.14 Q1419.92 1536.63 1415.97 1536.63 Q1411.23 1536.63 1408.5 1539.65 Q1405.76 1542.68 1405.76 1547.9 L1405.76 1568.04 L1399.87 1568.04 L1399.87 1532.4 L1405.76 1532.4 L1405.76 1537.93 Q1407.86 1534.72 1410.69 1533.13 Q1413.56 1531.54 1417.28 1531.54 Q1423.42 1531.54 1426.57 1535.36 Q1429.72 1539.14 1429.72 1546.53 Z" fill="#000000" fill-rule="nonzero" fill-opacity="1" /><polyline clip-path="url(#clip110)" style="stroke:#000000; stroke-linecap:round; stroke-linejoin:round; stroke-width:4; stroke-opacity:1; fill:none" points="242.135,1423.18 242.135,47.2441 "/>
<polyline clip-path="url(#clip110)" style="stroke:#000000; stroke-linecap:round; stroke-linejoin:round; stroke-width:4; stroke-opacity:1; fill:none" points="242.135,1241.18 261.032,1241.18 "/>
<polyline clip-path="url(#clip110)" style="stroke:#000000; stroke-linecap:round; stroke-linejoin:round; stroke-width:4; stroke-opacity:1; fill:none" points="242.135,904.543 261.032,904.543 "/>
<polyline clip-path="url(#clip110)" style="stroke:#000000; stroke-linecap:round; stroke-linejoin:round; stroke-width:4; stroke-opacity:1; fill:none" points="242.135,567.904 261.032,567.904 "/>
<polyline clip-path="url(#clip110)" style="stroke:#000000; stroke-linecap:round; stroke-linejoin:round; stroke-width:4; stroke-opacity:1; fill:none" points="242.135,231.265 261.032,231.265 "/>
<path clip-path="url(#clip110)" d="M114.26 1241.63 L143.936 1241.63 L143.936 1245.57 L114.26 1245.57 L114.26 1241.63 Z" fill="#000000" fill-rule="nonzero" fill-opacity="1" /><path clip-path="url(#clip110)" d="M168.195 1239.83 Q171.552 1240.55 173.427 1242.81 Q175.325 1245.08 175.325 1248.42 Q175.325 1253.53 171.806 1256.33 Q168.288 1259.13 161.806 1259.13 Q159.63 1259.13 157.315 1258.69 Q155.024 1258.28 152.57 1257.42 L152.57 1252.91 Q154.515 1254.04 156.829 1254.62 Q159.144 1255.2 161.667 1255.2 Q166.065 1255.2 168.357 1253.46 Q170.672 1251.73 170.672 1248.42 Q170.672 1245.36 168.519 1243.65 Q166.39 1241.91 162.57 1241.91 L158.542 1241.91 L158.542 1238.07 L162.755 1238.07 Q166.204 1238.07 168.033 1236.7 Q169.862 1235.31 169.862 1232.72 Q169.862 1230.06 167.964 1228.65 Q166.089 1227.21 162.57 1227.21 Q160.649 1227.21 158.45 1227.63 Q156.251 1228.05 153.612 1228.92 L153.612 1224.76 Q156.274 1224.02 158.589 1223.65 Q160.927 1223.28 162.987 1223.28 Q168.311 1223.28 171.413 1225.71 Q174.514 1228.11 174.514 1232.23 Q174.514 1235.11 172.871 1237.1 Q171.227 1239.06 168.195 1239.83 Z" fill="#000000" fill-rule="nonzero" fill-opacity="1" /><path clip-path="url(#clip110)" d="M194.19 1226.98 Q190.579 1226.98 188.75 1230.55 Q186.945 1234.09 186.945 1241.22 Q186.945 1248.32 188.75 1251.89 Q190.579 1255.43 194.19 1255.43 Q197.825 1255.43 199.63 1251.89 Q201.459 1248.32 201.459 1241.22 Q201.459 1234.09 199.63 1230.55 Q197.825 1226.98 194.19 1226.98 M194.19 1223.28 Q200 1223.28 203.056 1227.88 Q206.135 1232.47 206.135 1241.22 Q206.135 1249.94 203.056 1254.55 Q200 1259.13 194.19 1259.13 Q188.38 1259.13 185.301 1254.55 Q182.246 1249.94 182.246 1241.22 Q182.246 1232.47 185.301 1227.88 Q188.38 1223.28 194.19 1223.28 Z" fill="#000000" fill-rule="nonzero" fill-opacity="1" /><path clip-path="url(#clip110)" d="M114.26 904.994 L143.936 904.994 L143.936 908.929 L114.26 908.929 L114.26 904.994 Z" fill="#000000" fill-rule="nonzero" fill-opacity="1" /><path clip-path="url(#clip110)" d="M158.056 917.888 L174.376 917.888 L174.376 921.823 L152.431 921.823 L152.431 917.888 Q155.093 915.133 159.677 910.503 Q164.283 905.851 165.464 904.508 Q167.709 901.985 168.589 900.249 Q169.491 898.489 169.491 896.8 Q169.491 894.045 167.547 892.309 Q165.626 890.573 162.524 890.573 Q160.325 890.573 157.871 891.337 Q155.44 892.101 152.663 893.652 L152.663 888.929 Q155.487 887.795 157.94 887.216 Q160.394 886.638 162.431 886.638 Q167.802 886.638 170.996 889.323 Q174.19 892.008 174.19 896.499 Q174.19 898.628 173.38 900.55 Q172.593 902.448 170.487 905.04 Q169.908 905.712 166.806 908.929 Q163.704 912.124 158.056 917.888 Z" fill="#000000" fill-rule="nonzero" fill-opacity="1" /><path clip-path="url(#clip110)" d="M194.19 890.341 Q190.579 890.341 188.75 893.906 Q186.945 897.448 186.945 904.577 Q186.945 911.684 188.75 915.249 Q190.579 918.79 194.19 918.79 Q197.825 918.79 199.63 915.249 Q201.459 911.684 201.459 904.577 Q201.459 897.448 199.63 893.906 Q197.825 890.341 194.19 890.341 M194.19 886.638 Q200 886.638 203.056 891.244 Q206.135 895.827 206.135 904.577 Q206.135 913.304 203.056 917.911 Q200 922.494 194.19 922.494 Q188.38 922.494 185.301 917.911 Q182.246 913.304 182.246 904.577 Q182.246 895.827 185.301 891.244 Q188.38 886.638 194.19 886.638 Z" fill="#000000" fill-rule="nonzero" fill-opacity="1" /><path clip-path="url(#clip110)" d="M114.26 568.355 L143.936 568.355 L143.936 572.29 L114.26 572.29 L114.26 568.355 Z" fill="#000000" fill-rule="nonzero" fill-opacity="1" /><path clip-path="url(#clip110)" d="M154.839 581.249 L162.477 581.249 L162.477 554.883 L154.167 556.55 L154.167 552.29 L162.431 550.624 L167.107 550.624 L167.107 581.249 L174.746 581.249 L174.746 585.184 L154.839 585.184 L154.839 581.249 Z" fill="#000000" fill-rule="nonzero" fill-opacity="1" /><path clip-path="url(#clip110)" d="M194.19 553.702 Q190.579 553.702 188.75 557.267 Q186.945 560.809 186.945 567.938 Q186.945 575.045 188.75 578.61 Q190.579 582.151 194.19 582.151 Q197.825 582.151 199.63 578.61 Q201.459 575.045 201.459 567.938 Q201.459 560.809 199.63 557.267 Q197.825 553.702 194.19 553.702 M194.19 549.999 Q200 549.999 203.056 554.605 Q206.135 559.189 206.135 567.938 Q206.135 576.665 203.056 581.272 Q200 585.855 194.19 585.855 Q188.38 585.855 185.301 581.272 Q182.246 576.665 182.246 567.938 Q182.246 559.189 185.301 554.605 Q188.38 549.999 194.19 549.999 Z" fill="#000000" fill-rule="nonzero" fill-opacity="1" /><path clip-path="url(#clip110)" d="M194.19 217.063 Q190.579 217.063 188.75 220.628 Q186.945 224.17 186.945 231.3 Q186.945 238.406 188.75 241.971 Q190.579 245.512 194.19 245.512 Q197.825 245.512 199.63 241.971 Q201.459 238.406 201.459 231.3 Q201.459 224.17 199.63 220.628 Q197.825 217.063 194.19 217.063 M194.19 213.36 Q200 213.36 203.056 217.966 Q206.135 222.55 206.135 231.3 Q206.135 240.026 203.056 244.633 Q200 249.216 194.19 249.216 Q188.38 249.216 185.301 244.633 Q182.246 240.026 182.246 231.3 Q182.246 222.55 185.301 217.966 Q188.38 213.36 194.19 213.36 Z" fill="#000000" fill-rule="nonzero" fill-opacity="1" /><path clip-path="url(#clip110)" d="M16.4842 816.375 L16.4842 786.329 L21.895 786.329 L21.895 809.945 L35.9632 809.945 L35.9632 787.315 L41.3741 787.315 L41.3741 809.945 L58.5933 809.945 L58.5933 785.756 L64.0042 785.756 L64.0042 816.375 L16.4842 816.375 Z" fill="#000000" fill-rule="nonzero" fill-opacity="1" /><path clip-path="url(#clip110)" d="M16.4842 775.189 L16.4842 768.759 L58.5933 768.759 L58.5933 745.62 L64.0042 745.62 L64.0042 775.189 L16.4842 775.189 Z" fill="#000000" fill-rule="nonzero" fill-opacity="1" /><path clip-path="url(#clip110)" d="M41.3104 732.443 L58.7206 732.443 L58.7206 722.13 Q58.7206 716.942 56.5881 714.46 Q54.4238 711.945 49.9996 711.945 Q45.5436 711.945 43.4429 714.46 Q41.3104 716.942 41.3104 722.13 L41.3104 732.443 M21.7677 732.443 L36.0905 732.443 L36.0905 722.926 Q36.0905 718.216 34.34 715.924 Q32.5576 713.6 28.9291 713.6 Q25.3325 713.6 23.5501 715.924 Q21.7677 718.216 21.7677 722.926 L21.7677 732.443 M16.4842 738.872 L16.4842 722.449 Q16.4842 715.096 19.5397 711.118 Q22.5952 707.139 28.2289 707.139 Q32.5894 707.139 35.1675 709.176 Q37.7456 711.213 38.3822 715.16 Q39.4007 710.418 42.6472 707.808 Q45.8619 705.166 50.6998 705.166 Q57.0655 705.166 60.5348 709.495 Q64.0042 713.823 64.0042 721.812 L64.0042 738.872 L16.4842 738.872 Z" fill="#000000" fill-rule="nonzero" fill-opacity="1" /><path clip-path="url(#clip110)" d="M20.8447 676.011 Q20.8447 683.013 26.0645 687.151 Q31.2844 691.257 40.2919 691.257 Q49.2675 691.257 54.4874 687.151 Q59.7073 683.013 59.7073 676.011 Q59.7073 669.009 54.4874 664.935 Q49.2675 660.829 40.2919 660.829 Q31.2844 660.829 26.0645 664.935 Q20.8447 669.009 20.8447 676.011 M15.6248 676.011 Q15.6248 666.017 22.3406 660.033 Q29.0246 654.049 40.2919 654.049 Q51.5274 654.049 58.2432 660.033 Q64.9272 666.017 64.9272 676.011 Q64.9272 686.037 58.2432 692.052 Q51.5592 698.036 40.2919 698.036 Q29.0246 698.036 22.3406 692.052 Q15.6248 686.037 15.6248 676.011 Z" fill="#000000" fill-rule="nonzero" fill-opacity="1" /><polyline clip-path="url(#clip112)" style="stroke:#009af9; stroke-linecap:round; stroke-linejoin:round; stroke-width:4; stroke-opacity:1; fill:none" points="301.869,1018.41 303.862,1136.2 305.856,836.863 307.849,989.721 309.842,702.414 311.835,931.193 313.828,801.664 315.821,875.445 317.814,635.565 319.808,1229.79 321.801,1384.24 323.794,734.932 325.787,1350.16 327.78,1051.02 329.773,811.909 331.766,782.57 333.76,619.749 335.753,803.612 337.746,540.153 339.739,593.11 341.732,1172.44 343.725,798.481 345.718,827.15 347.712,789.503 349.705,513.914 351.698,1056.66 353.691,908.919 355.684,467.178 357.677,981.611 359.67,543.819 361.664,903.263 363.657,556.795 365.65,1003.34 367.643,653.516 369.636,454.506 371.629,677.574 373.622,547.167 375.616,456.27 377.609,716.897 379.602,444.031 381.595,738.476 383.588,522.924 385.581,1084.47 387.574,444.48 389.568,584.276 391.561,656.927 393.554,764.137 395.547,481.62 397.54,488.382 399.533,685.707 401.526,684.504 403.52,442.253 405.513,813.022 407.506,313.649 409.499,627.566 411.492,950.096 413.485,785.605 415.479,572.59 417.472,813.486 419.465,705.63 421.458,318.294 423.451,591.825 425.444,645.925 427.437,632.306 429.431,668.899 431.424,753.291 433.417,558.907 435.41,893.794 437.403,501.181 439.396,592.329 441.389,697.437 443.383,418.267 445.376,377.338 447.369,594.264 449.362,445.563 451.355,517.21 453.348,608.174 455.341,357.347 457.335,471.274 459.328,858.776 461.321,369.944 463.314,385.577 465.307,618.173 467.3,712.595 469.293,436.489 471.287,389.476 473.28,668.634 475.273,486.712 477.266,774.32 479.259,463.463 481.252,620.554 483.245,394.336 485.239,350.412 487.232,341.825 489.225,588.466 491.218,319.352 493.211,409.038 495.204,702.962 497.197,252.136 499.191,510.221 501.184,442.308 503.177,554.713 505.17,655.988 507.163,423.937 509.156,313.704 511.149,488.327 513.143,365.175 515.136,697.602 517.129,677.44 519.122,385.163 521.115,418.169 523.108,509.162 525.101,486.453 527.095,619.197 529.088,206.528 531.081,226.938 533.074,519.075 535.067,375.312 537.06,366.104 539.054,250.949 541.047,451.287 543.04,349.593 545.033,264.858 547.026,663.471 549.019,417.346 551.012,330.959 553.006,838.424 554.999,498.173 556.992,400.79 558.985,438.155 560.978,567.688 562.971,519.154 564.964,396.134 566.958,586.224 568.951,385.752 570.944,320.845 572.937,416.228 574.93,363.121 576.923,507.54 578.916,655.903 580.91,707.7 582.903,259.335 584.896,384.553 586.889,321.733 588.882,209.727 590.875,382.608 592.868,335.652 594.862,465.759 596.855,517.652 598.848,371.036 600.841,440.815 602.834,281.046 604.827,501.268 606.82,179.425 608.814,418.822 610.807,449.058 612.8,228.353 614.793,316.249 616.786,210.89 618.779,399.73 620.772,339.379 622.766,180.134 624.759,263.521 626.752,484.296 628.745,227.439 630.738,359.992 632.731,402.512 634.724,179.797 636.718,374.177 638.711,315.605 640.704,223.448 642.697,235.907 644.69,310.055 646.683,163.88 648.677,292.606 650.67,238.039 652.663,164.32 654.656,262.409 656.649,251.391 658.642,242.315 660.635,130.495 662.629,192.06 664.622,370.878 666.615,282.85 668.608,197.275 670.601,299.112 672.594,559.953 674.587,410.251 676.581,248.28 678.574,280.303 680.567,223.255 682.56,507.687 684.553,353.051 686.546,194.507 688.539,220.284 690.533,302.031 692.526,310.942 694.519,371.013 696.512,382.896 698.505,177.372 700.498,382.64 702.491,319.502 704.485,233.162 706.478,202.641 708.471,289.296 710.464,375.995 712.457,409.166 714.45,391.343 716.443,265.934 718.437,213.99 720.43,384.747 722.423,524.398 724.416,418.898 726.409,159.773 728.402,189.66 730.395,334.434 732.389,117.545 734.382,207.565 736.375,417.067 738.368,210.508 740.361,216.764 742.354,226.663 744.347,445.753 746.341,299.025 748.334,169.142 750.327,164.562 752.32,490.586 754.313,265.835 756.306,347.541 758.299,309.635 760.293,252.834 762.286,124.261 764.279,360.435 766.272,193.19 768.265,386.562 770.258,415.396 772.252,561.432 774.245,193.177 776.238,194.677 778.231,227.602 780.224,355.323 782.217,292.306 784.21,260.786 786.204,300.239 788.197,159.499 790.19,224.145 792.183,380.1 794.176,332.606 796.169,310.647 798.162,200.571 800.156,307.211 802.149,443.167 804.142,236.476 806.135,210.321 808.128,307.431 810.121,281.749 812.114,205.119 814.108,270.656 816.101,329.475 818.094,292.425 820.087,236.296 822.08,318.33 824.073,392.22 826.066,343.917 828.06,345.141 830.053,279.198 832.046,426.463 834.039,217.269 836.032,330.985 838.025,270.941 840.018,260.968 842.012,313.211 844.005,307.257 845.998,189.307 847.991,294.836 849.984,270.404 851.977,197.596 853.97,221.065 855.964,253.84 857.957,167.554 859.95,270.004 861.943,240.629 863.936,472.153 865.929,137.085 867.922,247.633 869.916,232.583 871.909,283.889 873.902,222.02 875.895,289.114 877.888,113.387 879.881,228.269 881.874,320.826 883.868,391.593 885.861,214.014 887.854,218.677 889.847,375.255 891.84,158.662 893.833,193.353 895.827,320.189 897.82,413.561 899.813,340.685 901.806,153.949 903.799,122.093 905.792,131.546 907.785,379.22 909.779,189.548 911.772,519.084 913.765,246.159 915.758,257.817 917.751,170.084 919.744,205.161 921.737,391.509 923.731,142.202 925.724,419.845 927.717,236.636 929.71,195.346 931.703,345.645 933.696,182.566 935.689,295.722 937.683,232.682 939.676,271.562 941.669,288.59 943.662,262.3 945.655,194.966 947.648,287.503 949.641,454.982 951.635,149.89 953.628,164.733 955.621,176.86 957.614,475.195 959.607,133.885 961.6,167.133 963.593,222.347 965.587,203.019 967.58,221.831 969.573,483.074 971.566,271.994 973.559,270.682 975.552,200.112 977.545,292.433 979.539,227.567 981.532,177.537 983.525,192.845 985.518,331.706 987.511,226.483 989.504,392.682 991.497,270.627 993.491,115.79 995.484,293.658 997.477,178.517 999.47,227.703 1001.46,374.49 1003.46,367.465 1005.45,141.266 1007.44,243.727 1009.44,253.222 1011.43,244.069 1013.42,359.933 1015.42,225.749 1017.41,211.152 1019.4,225.32 1021.39,345.963 1023.39,376.186 1025.38,209.73 1027.37,179.566 1029.37,165.361 1031.36,449.348 1033.35,273.803 1035.35,280.208 1037.34,270.248 1039.33,336.572 1041.33,178.75 1043.32,374.112 1045.31,276.736 1047.31,230.064 1049.3,353.627 1051.29,213.693 1053.28,338.522 1055.28,317.209 1057.27,156.921 1059.26,245.481 1061.26,288.328 1063.25,367.13 1065.24,374.617 1067.24,216.455 1069.23,264.894 1071.22,137.861 1073.22,215.825 1075.21,283.313 1077.2,449.561 1079.2,201.77 1081.19,200.845 1083.18,335.661 1085.18,236.54 1087.17,335.869 1089.16,117.278 1091.15,205.952 1093.15,251.058 1095.14,246.153 1097.13,195.941 1099.13,211.704 1101.12,295.645 1103.11,172.564 1105.11,245.505 1107.1,206.887 1109.09,380.789 1111.09,317.393 1113.08,253.69 1115.07,220.202 1117.07,218.128 1119.06,200.696 1121.05,184.802 1123.05,189.714 1125.04,340.305 1127.03,213.278 1129.02,174.257 1131.02,237.379 1133.01,159.975 1135,348.157 1137,285.018 1138.99,180.257 1140.98,154.063 1142.98,313.605 1144.97,260.651 1146.96,196.128 1148.96,170.117 1150.95,210.942 1152.94,233.001 1154.94,168.355 1156.93,212.243 1158.92,223.462 1160.91,293.113 1162.91,299.745 1164.9,183.25 1166.89,179.091 1168.89,294.963 1170.88,300.021 1172.87,247.687 1174.87,325.462 1176.86,172.539 1178.85,131.58 1180.85,210.463 1182.84,283.998 1184.83,258.132 1186.83,299.479 1188.82,181.405 1190.81,149.695 1192.81,333.996 1194.8,298.097 1196.79,285.763 1198.78,189.125 1200.78,281.403 1202.77,338.624 1204.76,247.546 1206.76,382.116 1208.75,173.189 1210.74,259.086 1212.74,141.727 1214.73,213.082 1216.72,162.135 1218.72,212.579 1220.71,134.678 1222.7,191.792 1224.7,139.987 1226.69,209.75 1228.68,273.043 1230.67,248.098 1232.67,363.625 1234.66,167.427 1236.65,315.782 1238.65,142.351 1240.64,227.057 1242.63,251.545 1244.63,249.24 1246.62,265.567 1248.61,501.612 1250.61,332.631 1252.6,222.69 1254.59,138.404 1256.59,111.813 1258.58,131.301 1260.57,211.745 1262.57,174.404 1264.56,208.98 1266.55,188.241 1268.54,158.058 1270.54,184.74 1272.53,209.336 1274.52,173.084 1276.52,251.611 1278.51,148.406 1280.5,88.5334 1282.5,139.858 1284.49,398.668 1286.48,237.771 1288.48,337.467 1290.47,251.682 1292.46,170.579 1294.46,175.531 1296.45,258.477 1298.44,299.321 1300.44,146.558 1302.43,248.459 1304.42,222.456 1306.41,322.593 1308.41,144.838 1310.4,355.084 1312.39,149.188 1314.39,310.339 1316.38,262.812 1318.37,216.997 1320.37,317.976 1322.36,217.452 1324.35,264.464 1326.35,133.72 1328.34,153.87 1330.33,169.065 1332.33,219.717 1334.32,152.721 1336.31,252.241 1338.3,211.661 1340.3,132.936 1342.29,148.09 1344.28,184.962 1346.28,224.615 1348.27,381.037 1350.26,142.409 1352.26,216.953 1354.25,106.851 1356.24,210.435 1358.24,242.154 1360.23,272.028 1362.22,166.833 1364.22,161.961 1366.21,236.312 1368.2,288.926 1370.2,257.357 1372.19,200.8 1374.18,172.312 1376.17,168.615 1378.17,253.087 1380.16,213.225 1382.15,304.452 1384.15,280.363 1386.14,170.727 1388.13,356.353 1390.13,296.403 1392.12,171.881 1394.11,228.19 1396.11,173.944 1398.1,247.432 1400.09,427.523 1402.09,375.228 1404.08,310.497 1406.07,294.126 1408.06,256.567 1410.06,208.876 1412.05,339.323 1414.04,232.519 1416.04,407.277 1418.03,178.521 1420.02,229.237 1422.02,183.569 1424.01,403.316 1426,245.248 1428,288.032 1429.99,266.32 1431.98,153.398 1433.98,185.512 1435.97,210.59 1437.96,262.192 1439.96,179.159 1441.95,214.301 1443.94,249.539 1445.93,238.196 1447.93,238.727 1449.92,360.347 1451.91,282.403 1453.91,193.672 1455.9,257.012 1457.89,273.226 1459.89,184.839 1461.88,217.282 1463.87,162.928 1465.87,154.887 1467.86,280.647 1469.85,175.534 1471.85,190.277 1473.84,336.2 1475.83,379.955 1477.82,304.835 1479.82,249.424 1481.81,256.55 1483.8,410.389 1485.8,302.552 1487.79,243.821 1489.78,268.624 1491.78,218.406 1493.77,169.852 1495.76,451.789 1497.76,124.724 1499.75,176.626 1501.74,304.018 1503.74,235.529 1505.73,226.453 1507.72,240.28 1509.72,253.102 1511.71,210.237 1513.7,162.936 1515.69,218.977 1517.69,245.931 1519.68,231.585 1521.67,262.338 1523.67,169.502 1525.66,239.312 1527.65,427.487 1529.65,416.107 1531.64,227.499 1533.63,192.1 1535.63,193.148 1537.62,148.44 1539.61,356.249 1541.61,355.399 1543.6,178.202 1545.59,228.249 1547.59,135.811 1549.58,222.905 1551.57,169.443 1553.56,221.347 1555.56,254.727 1557.55,175.37 1559.54,209.454 1561.54,323.25 1563.53,313.536 1565.52,216.177 1567.52,270.226 1569.51,155.693 1571.5,334.355 1573.5,194.365 1575.49,308.843 1577.48,287.026 1579.48,188.764 1581.47,250.028 1583.46,276.043 1585.45,257.7 1587.45,284.461 1589.44,309.421 1591.43,463.575 1593.43,309.652 1595.42,136.632 1597.41,287.618 1599.41,272.959 1601.4,246.851 1603.39,150.505 1605.39,136.565 1607.38,230.114 1609.37,212.099 1611.37,249.663 1613.36,153.908 1615.35,388.406 1617.35,191.1 1619.34,275.274 1621.33,129.832 1623.32,253.206 1625.32,152.718 1627.31,110.99 1629.3,259.057 1631.3,188.22 1633.29,193.59 1635.28,232.404 1637.28,233.802 1639.27,177.269 1641.26,110.325 1643.26,182.591 1645.25,156.829 1647.24,120.952 1649.24,358.133 1651.23,284.5 1653.22,145.478 1655.21,486.711 1657.21,169.323 1659.2,138.69 1661.19,188.661 1663.19,217.728 1665.18,205.874 1667.17,366.665 1669.17,342.357 1671.16,257.336 1673.15,181.662 1675.15,186.071 1677.14,387.237 1679.13,149.488 1681.13,330.552 1683.12,240.328 1685.11,381.854 1687.11,237.41 1689.1,189.241 1691.09,217.68 1693.08,336.567 1695.08,221.106 1697.07,326.892 1699.06,228.289 1701.06,232.113 1703.05,272.746 1705.04,139.382 1707.04,221.366 1709.03,183.314 1711.02,189.08 1713.02,137.017 1715.01,307.228 1717,224.166 1719,184.843 1720.99,210.733 1722.98,211.614 1724.97,199.358 1726.97,153.694 1728.96,423.082 1730.95,298.338 1732.95,214.892 1734.94,294.315 1736.93,214.21 1738.93,257.307 1740.92,169.813 1742.91,208.9 1744.91,389.737 1746.9,214.82 1748.89,422.174 1750.89,144.747 1752.88,194.047 1754.87,358.082 1756.87,224.845 1758.86,145.532 1760.85,298.746 1762.84,394.689 1764.84,183.617 1766.83,198.22 1768.82,185.346 1770.82,239.435 1772.81,218.201 1774.8,161.395 1776.8,156.309 1778.79,231.755 1780.78,153.95 1782.78,219.515 1784.77,191.567 1786.76,187.184 1788.76,231.437 1790.75,241.164 1792.74,323.836 1794.74,240.903 1796.73,275.299 1798.72,250.322 1800.71,212.598 1802.71,236.682 1804.7,224.167 1806.69,218.737 1808.69,186.139 1810.68,129.703 1812.67,342.616 1814.67,226.341 1816.66,214.757 1818.65,254.25 1820.65,371.967 1822.64,117.853 1824.63,252.26 1826.63,269.175 1828.62,564.823 1830.61,292.479 1832.6,160.201 1834.6,212.006 1836.59,342.247 1838.58,187.114 1840.58,417.753 1842.57,128.666 1844.56,318.832 1846.56,257.603 1848.55,221.113 1850.54,170.156 1852.54,302.037 1854.53,259.573 1856.52,225.829 1858.52,334.698 1860.51,422.139 1862.5,348.22 1864.5,186.033 1866.49,182.487 1868.48,167.552 1870.47,199.34 1872.47,179.459 1874.46,266.023 1876.45,210.834 1878.45,244.832 1880.44,375.161 1882.43,202.789 1884.43,190.626 1886.42,247.239 1888.41,180.842 1890.41,249.35 1892.4,185.831 1894.39,298.392 1896.39,244.933 1898.38,266.412 1900.37,343.77 1902.36,212.39 1904.36,321.769 1906.35,294.442 1908.34,143.844 1910.34,213.638 1912.33,241.098 1914.32,287.605 1916.32,306.971 1918.31,312.139 1920.3,174.584 1922.3,415.938 1924.29,190.925 1926.28,242.681 1928.28,108.063 1930.27,108.622 1932.26,303.522 1934.26,165.99 1936.25,141.947 1938.24,223.42 1940.23,223.231 1942.23,136.222 1944.22,461.13 1946.21,195.949 1948.21,325.905 1950.2,198.222 1952.19,220.404 1954.19,217.088 1956.18,206.934 1958.17,266.164 1960.17,330.827 1962.16,194.267 1964.15,192.858 1966.15,174.854 1968.14,263.57 1970.13,167.053 1972.12,186.772 1974.12,210.941 1976.11,86.1857 1978.1,255.731 1980.1,186.372 1982.09,254.686 1984.08,388.78 1986.08,256.748 1988.07,333.248 1990.06,201.158 1992.06,410.953 1994.05,368.903 1996.04,260.798 1998.04,179.345 2000.03,311.702 2002.02,256.783 2004.02,295.952 2006.01,379.928 2008,178.139 2009.99,297.85 2011.99,238.065 2013.98,273.907 2015.97,200.417 2017.97,312.19 2019.96,195.688 2021.95,336.16 2023.95,368.061 2025.94,214.918 2027.93,280.352 2029.93,202.254 2031.92,405.924 2033.91,379.077 2035.91,166.016 2037.9,177.415 2039.89,258.851 2041.89,203.376 2043.88,219.677 2045.87,299.967 2047.86,214.063 2049.86,242.095 2051.85,282.112 2053.84,208.846 2055.84,298.634 2057.83,144.024 2059.82,387.339 2061.82,155.213 2063.81,292.135 2065.8,308.783 2067.8,174.148 2069.79,259.467 2071.78,257.487 2073.78,216.592 2075.77,332.398 2077.76,251.307 2079.75,177.854 2081.75,99.1119 2083.74,207.99 2085.73,239.602 2087.73,253.381 2089.72,192.255 2091.71,202.739 2093.71,395.33 2095.7,165.66 2097.69,211.659 2099.69,206.009 2101.68,287.665 2103.67,151.01 2105.67,138.903 2107.66,246.801 2109.65,212.868 2111.65,164.385 2113.64,335.523 2115.63,370.545 2117.62,142.926 2119.62,194.386 2121.61,199.798 2123.6,282.614 2125.6,193.927 2127.59,319.078 2129.58,229.095 2131.58,241.154 2133.57,420.019 2135.56,173.512 2137.56,164.139 2139.55,263.764 2141.54,287.127 2143.54,148.872 2145.53,181.327 2147.52,95.6663 2149.51,140.778 2151.51,220.288 2153.5,270.937 2155.49,118.742 2157.49,259.809 2159.48,190.085 2161.47,182.861 2163.47,206.175 2165.46,269.728 2167.45,363.508 2169.45,290.021 2171.44,434.265 2173.43,182.54 2175.43,172.9 2177.42,205.598 2179.41,236.66 2181.41,186.065 2183.4,233.428 2185.39,170.133 2187.38,157.742 2189.38,532.279 2191.37,286.849 2193.36,224.786 2195.36,247.398 2197.35,173.083 2199.34,316.587 2201.34,139.648 2203.33,302.109 2205.32,239.026 2207.32,194.175 2209.31,267.376 2211.3,227.057 2213.3,261.7 2215.29,273.126 2217.28,384.63 2219.27,266.602 2221.27,277.689 2223.26,246.717 2225.25,179.389 2227.25,176.634 2229.24,228.069 2231.23,159.605 2233.23,228.646 2235.22,234.858 2237.21,274.445 2239.21,285.03 2241.2,337.317 2243.19,122.839 2245.19,147.3 2247.18,221.033 2249.17,327.375 2251.17,116.878 2253.16,201.55 2255.15,169.67 2257.14,165.065 2259.14,254.475 2261.13,246.362 2263.12,243.578 2265.12,133.924 2267.11,221.405 2269.1,199.551 2271.1,260.231 2273.09,129.64 2275.08,220.233 2277.08,177.507 2279.07,351.113 2281.06,272.628 2283.06,257.624 2285.05,98.7173 2287.04,232.282 2289.04,267.118 2291.03,333.414 2293.02,220.335 "/>
<polyline clip-path="url(#clip112)" style="stroke:#e26f46; stroke-linecap:round; stroke-linejoin:round; stroke-width:4; stroke-opacity:1; fill:none" points="301.869,902.215 303.862,883.264 305.856,898.036 307.849,884.029 309.842,878.724 311.835,885.709 313.828,859.564 315.821,859.351 317.814,868.397 319.808,850.516 321.801,836.401 323.794,824.656 325.787,819.876 327.78,825.189 329.773,804.431 331.766,807.576 333.76,785.052 335.753,794.255 337.746,780.729 339.739,771.081 341.732,779.704 343.725,763.213 345.718,757.212 347.712,762.792 349.705,756.242 351.698,752.857 353.691,744.636 355.684,749.087 357.677,740.401 359.67,708.496 361.664,721.064 363.657,712.184 365.65,710.645 367.643,715.931 369.636,688.567 371.629,687.072 373.622,709.28 375.616,679.993 377.609,658.982 379.602,676.737 381.595,664.948 383.588,660.481 385.581,660.507 387.574,644.278 389.568,633.764 391.561,636.679 393.554,655.87 395.547,635.211 397.54,627.113 399.533,623.568 401.526,611.731 403.52,599.824 405.513,607.707 407.506,607.382 409.499,596.306 411.492,617.143 413.485,590.625 415.479,598.311 417.472,588.561 419.465,562.883 421.458,598.421 423.451,569.352 425.444,563.478 427.437,568.926 429.431,560.331 431.424,558.103 433.417,575.123 435.41,545.187 437.403,549.578 439.396,529.23 441.389,571.371 443.383,528.745 445.376,525.311 447.369,514.849 449.362,525.519 451.355,497.482 453.348,500.335 455.341,508.215 457.335,506.685 459.328,498.608 461.321,509.385 463.314,484.137 465.307,488.059 467.3,484.909 469.293,471.969 471.287,478.882 473.28,475.66 475.273,464.372 477.266,471.665 479.259,448.955 481.252,463.973 483.245,446.58 485.239,457.318 487.232,443.5 489.225,473.052 491.218,456.007 493.211,442.498 495.204,447.877 497.197,436.867 499.191,428.767 501.184,447.272 503.177,451.382 505.17,424.337 507.163,421.196 509.156,423.966 511.149,402.196 513.143,423.943 515.136,410.329 517.129,425.096 519.122,412.866 521.115,404.337 523.108,395.008 525.101,398.082 527.095,400 529.088,405.309 531.081,387.447 533.074,391.097 535.067,386.099 537.06,386.514 539.054,392.169 541.047,375.296 543.04,369.484 545.033,371.831 547.026,382.47 549.019,377.229 551.012,388.505 553.006,362.915 554.999,369.039 556.992,360.517 558.985,374.266 560.978,365.759 562.971,352.283 564.964,357.467 566.958,366.794 568.951,355.551 570.944,364.463 572.937,340.391 574.93,349.934 576.923,343.879 578.916,341.49 580.91,339.289 582.903,349.557 584.896,345.974 586.889,335.932 588.882,342.223 590.875,344.993 592.868,334.093 594.862,334.45 596.855,329.007 598.848,341.521 600.841,328.378 602.834,325.929 604.827,327.128 606.82,308.997 608.814,321.252 610.807,329.148 612.8,318.151 614.793,322.419 616.786,297.369 618.779,308.438 620.772,318.391 622.766,312.659 624.759,294.238 626.752,325.224 628.745,303.519 630.738,294.175 632.731,313.188 634.724,312.803 636.718,312.726 638.711,308.986 640.704,315.928 642.697,308.512 644.69,302.065 646.683,285.495 648.677,296.939 650.67,305.065 652.663,293.552 654.656,287.65 656.649,293.126 658.642,286.755 660.635,292.898 662.629,291.112 664.622,289.754 666.615,282.181 668.608,279.386 670.601,295.737 672.594,277.943 674.587,278.065 676.581,304.59 678.574,289.959 680.567,269.031 682.56,279.443 684.553,271.773 686.546,282.877 688.539,279.2 690.533,293.041 692.526,273.015 694.519,261.067 696.512,271.969 698.505,262.892 700.498,274.253 702.491,257.574 704.485,268.389 706.478,269.824 708.471,277.586 710.464,274.569 712.457,262.087 714.45,263.916 716.443,259.171 718.437,270.336 720.43,262.67 722.423,253.171 724.416,269.817 726.409,256.722 728.402,264.257 730.395,260.905 732.389,253.326 734.382,272.377 736.375,257.394 738.368,259.438 740.361,260.6 742.354,250.802 744.347,259.763 746.341,253.123 748.334,251.606 750.327,266.885 752.32,262.628 754.313,287.477 756.306,250.884 758.299,260.166 760.293,249.156 762.286,237.718 764.279,260.626 766.272,247.588 768.265,242.448 770.258,245.01 772.252,251.973 774.245,252.131 776.238,263.49 778.231,256.82 780.224,234.759 782.217,238.518 784.21,246.993 786.204,239.131 788.197,238.103 790.19,247.649 792.183,236.556 794.176,251.275 796.169,237.096 798.162,243.711 800.156,251.706 802.149,256.648 804.142,234.685 806.135,242.722 808.128,263.519 810.121,233.14 812.114,238.29 814.108,243.523 816.101,236.656 818.094,242.511 820.087,240.324 822.08,233.698 824.073,247.57 826.066,236.862 828.06,231.856 830.053,250.359 832.046,246.647 834.039,227.004 836.032,247.576 838.025,234.009 840.018,231.11 842.012,229.476 844.005,234.861 845.998,224.884 847.991,235.09 849.984,240.358 851.977,244.341 853.97,242.917 855.964,244.147 857.957,243.301 859.95,231.689 861.943,245.78 863.936,251.006 865.929,243.109 867.922,246.266 869.916,243.861 871.909,233.428 873.902,234.282 875.895,250.773 877.888,232.218 879.881,257.575 881.874,245.938 883.868,237.763 885.861,234.592 887.854,235.344 889.847,234.602 891.84,230.576 893.833,227.816 895.827,253.178 897.82,226.416 899.813,231.813 901.806,234.669 903.799,239.978 905.792,226.941 907.785,248.396 909.779,250.273 911.772,234.271 913.765,236.46 915.758,230.283 917.751,257.234 919.744,249.364 921.737,238.064 923.731,233.623 925.724,251.821 927.717,239.747 929.71,243.649 931.703,242.592 933.696,232.07 935.689,236.949 937.683,245.148 939.676,241.285 941.669,236.435 943.662,240.723 945.655,252.833 947.648,235.919 949.641,244.511 951.635,225.165 953.628,228.589 955.621,222.345 957.614,231.42 959.607,239.345 961.6,229.477 963.593,225.085 965.587,223.832 967.58,228.169 969.573,236.534 971.566,230.297 973.559,234.756 975.552,222.728 977.545,257.343 979.539,235.934 981.532,223.227 983.525,229.772 985.518,225.901 987.511,231.706 989.504,231.392 991.497,226.861 993.491,249.743 995.484,230.846 997.477,237.21 999.47,240.418 1001.46,227.059 1003.46,219.417 1005.45,253.654 1007.44,227.838 1009.44,226.997 1011.43,239.976 1013.42,216.097 1015.42,217.451 1017.41,223.83 1019.4,229.638 1021.39,221.478 1023.39,227.435 1025.38,233.415 1027.37,238.773 1029.37,230.676 1031.36,243.434 1033.35,240.14 1035.35,231.861 1037.34,235.764 1039.33,236.179 1041.33,221.139 1043.32,242.791 1045.31,233.048 1047.31,234.879 1049.3,230.236 1051.29,232.512 1053.28,227.976 1055.28,231.481 1057.27,228.769 1059.26,228.249 1061.26,221.619 1063.25,244.117 1065.24,228.031 1067.24,234.197 1069.23,243.445 1071.22,227.535 1073.22,232.103 1075.21,227.568 1077.2,228.896 1079.2,241.129 1081.19,236.689 1083.18,226.128 1085.18,221.186 1087.17,237.776 1089.16,225.936 1091.15,232.3 1093.15,226.27 1095.14,242.171 1097.13,233.527 1099.13,220.463 1101.12,240.781 1103.11,222.465 1105.11,234.848 1107.1,225.41 1109.09,229.118 1111.09,221.214 1113.08,241.03 1115.07,221.68 1117.07,242.428 1119.06,227.384 1121.05,228.505 1123.05,231.007 1125.04,236.579 1127.03,225.898 1129.02,232.266 1131.02,218.528 1133.01,235.873 1135,225.334 1137,244.237 1138.99,233.429 1140.98,236.09 1142.98,237.435 1144.97,234.224 1146.96,239.152 1148.96,228.524 1150.95,237.583 1152.94,208.708 1154.94,230.272 1156.93,226.254 1158.92,227.237 1160.91,250.26 1162.91,231.977 1164.9,241.793 1166.89,223.88 1168.89,233.253 1170.88,222.801 1172.87,230.192 1174.87,235.172 1176.86,246.43 1178.85,222.904 1180.85,225.252 1182.84,231.971 1184.83,234.563 1186.83,237.273 1188.82,232.448 1190.81,225.725 1192.81,228.034 1194.8,227.805 1196.79,213.713 1198.78,233.437 1200.78,252.577 1202.77,229.327 1204.76,225.915 1206.76,248.371 1208.75,222.427 1210.74,239.695 1212.74,222.237 1214.73,241.475 1216.72,232.104 1218.72,239.543 1220.71,228.327 1222.7,217.987 1224.7,230.734 1226.69,249.511 1228.68,230.969 1230.67,234.973 1232.67,235.887 1234.66,226.479 1236.65,236.011 1238.65,217.566 1240.64,231.545 1242.63,227.999 1244.63,242.526 1246.62,235.577 1248.61,240.788 1250.61,225.834 1252.6,238.03 1254.59,231.042 1256.59,235.038 1258.58,234.574 1260.57,217.946 1262.57,238.215 1264.56,234.144 1266.55,225.66 1268.54,234.159 1270.54,232.395 1272.53,217.689 1274.52,243.053 1276.52,215.504 1278.51,236.792 1280.5,234.261 1282.5,231.375 1284.49,230.104 1286.48,228.164 1288.48,229.27 1290.47,224.384 1292.46,232.015 1294.46,235.039 1296.45,231.611 1298.44,244.859 1300.44,219.801 1302.43,236.991 1304.42,223.593 1306.41,250.209 1308.41,228.412 1310.4,222.645 1312.39,233.033 1314.39,238.213 1316.38,240.402 1318.37,243.89 1320.37,240.388 1322.36,225.652 1324.35,219.038 1326.35,231.253 1328.34,237.813 1330.33,228.39 1332.33,236.581 1334.32,238.653 1336.31,232.268 1338.3,226.719 1340.3,223.407 1342.29,225.713 1344.28,232.335 1346.28,232.505 1348.27,227.114 1350.26,237.475 1352.26,228.617 1354.25,227.866 1356.24,226.304 1358.24,226.889 1360.23,243.642 1362.22,235.647 1364.22,223.491 1366.21,232.503 1368.2,236.617 1370.2,227.25 1372.19,233.186 1374.18,225.342 1376.17,243.442 1378.17,230.905 1380.16,222.805 1382.15,227.737 1384.15,220.977 1386.14,236.242 1388.13,228.702 1390.13,223.34 1392.12,221.403 1394.11,235.188 1396.11,231.33 1398.1,234.814 1400.09,241.285 1402.09,220.095 1404.08,229.72 1406.07,227.5 1408.06,226.297 1410.06,243.08 1412.05,249.174 1414.04,226.992 1416.04,244.746 1418.03,239.22 1420.02,225.038 1422.02,234.825 1424.01,225.108 1426,237.067 1428,237.48 1429.99,223.285 1431.98,225.966 1433.98,231.557 1435.97,227.423 1437.96,234.194 1439.96,232.742 1441.95,238.526 1443.94,229.519 1445.93,223.567 1447.93,240.939 1449.92,218.677 1451.91,228.931 1453.91,252.629 1455.9,215.821 1457.89,232.225 1459.89,225.772 1461.88,244.197 1463.87,229.605 1465.87,219.496 1467.86,239.759 1469.85,243.339 1471.85,240.016 1473.84,234.612 1475.83,225.971 1477.82,231.255 1479.82,244.346 1481.81,219.906 1483.8,232.681 1485.8,219.675 1487.79,229.012 1489.78,226.219 1491.78,239.275 1493.77,238.078 1495.76,232.336 1497.76,213.745 1499.75,231.991 1501.74,246.275 1503.74,233.431 1505.73,224.18 1507.72,225.8 1509.72,233.77 1511.71,222.209 1513.7,220.306 1515.69,221.58 1517.69,237.111 1519.68,223.779 1521.67,231.709 1523.67,240.2 1525.66,243.365 1527.65,228.084 1529.65,228.45 1531.64,211.908 1533.63,239.801 1535.63,232.178 1537.62,239.001 1539.61,238.689 1541.61,225.24 1543.6,232.951 1545.59,244.514 1547.59,230.89 1549.58,238.869 1551.57,237.076 1553.56,237.59 1555.56,229.607 1557.55,235.612 1559.54,230.013 1561.54,230.547 1563.53,238.133 1565.52,227.921 1567.52,236.928 1569.51,259.857 1571.5,245.437 1573.5,231.333 1575.49,225.164 1577.48,229.726 1579.48,234.368 1581.47,225.034 1583.46,231.212 1585.45,235.714 1587.45,228.85 1589.44,220.172 1591.43,245.216 1593.43,242.879 1595.42,223.579 1597.41,233.881 1599.41,216.909 1601.4,227.953 1603.39,235.728 1605.39,234.084 1607.38,230.16 1609.37,230.149 1611.37,227.292 1613.36,232.771 1615.35,223.082 1617.35,234.011 1619.34,229.397 1621.33,246.349 1623.32,226.833 1625.32,218.984 1627.31,223.473 1629.3,243.189 1631.3,239.349 1633.29,224.409 1635.28,216.746 1637.28,243.222 1639.27,233.464 1641.26,244.748 1643.26,231.788 1645.25,225.442 1647.24,232.046 1649.24,231.375 1651.23,222.033 1653.22,235.433 1655.21,235.157 1657.21,238.562 1659.2,221.583 1661.19,225.215 1663.19,240.046 1665.18,220.761 1667.17,230.643 1669.17,242.163 1671.16,229.162 1673.15,234.123 1675.15,228.935 1677.14,237.548 1679.13,237.638 1681.13,228.247 1683.12,231.709 1685.11,226.977 1687.11,233.994 1689.1,232.285 1691.09,228.284 1693.08,236.501 1695.08,237.306 1697.07,238.467 1699.06,226.308 1701.06,235.184 1703.05,223.017 1705.04,226.687 1707.04,234.887 1709.03,231.996 1711.02,237.766 1713.02,231.443 1715.01,241.95 1717,236.912 1719,219.077 1720.99,241.428 1722.98,208.657 1724.97,235.195 1726.97,218.518 1728.96,227.392 1730.95,244.156 1732.95,239.651 1734.94,216.303 1736.93,234.876 1738.93,221.359 1740.92,241.983 1742.91,213.105 1744.91,238.693 1746.9,223.357 1748.89,227.918 1750.89,239.93 1752.88,227.93 1754.87,227.745 1756.87,244.809 1758.86,242.38 1760.85,229.259 1762.84,233.035 1764.84,220.045 1766.83,231.726 1768.82,228.782 1770.82,226.046 1772.81,225.934 1774.8,243.253 1776.8,248.158 1778.79,250.231 1780.78,245.251 1782.78,224.755 1784.77,235.481 1786.76,226.548 1788.76,237.845 1790.75,222.505 1792.74,225.784 1794.74,218.57 1796.73,232.262 1798.72,233.109 1800.71,223.324 1802.71,222.143 1804.7,234.825 1806.69,222.075 1808.69,224.943 1810.68,227.519 1812.67,226.768 1814.67,225.28 1816.66,224.705 1818.65,224.873 1820.65,226.118 1822.64,231.36 1824.63,239.557 1826.63,225.996 1828.62,220.034 1830.61,221.668 1832.6,237.367 1834.6,238.887 1836.59,217.663 1838.58,235.398 1840.58,222.738 1842.57,242.746 1844.56,228.939 1846.56,217.632 1848.55,228.069 1850.54,233.059 1852.54,219.518 1854.53,249.391 1856.52,220.34 1858.52,234.898 1860.51,233.391 1862.5,227.2 1864.5,227.302 1866.49,229.466 1868.48,227.52 1870.47,234.165 1872.47,235.376 1874.46,240.59 1876.45,232.249 1878.45,228.052 1880.44,242.025 1882.43,240.164 1884.43,245.365 1886.42,254.823 1888.41,242.382 1890.41,228.828 1892.4,218.121 1894.39,241.803 1896.39,234.3 1898.38,221.409 1900.37,236.766 1902.36,221.924 1904.36,244.265 1906.35,220.647 1908.34,215.263 1910.34,238.949 1912.33,229.423 1914.32,224.035 1916.32,227.821 1918.31,220.317 1920.3,224.455 1922.3,234.486 1924.29,228.678 1926.28,231.176 1928.28,213.675 1930.27,230.312 1932.26,231.691 1934.26,228.461 1936.25,246.342 1938.24,231.745 1940.23,221.743 1942.23,229.5 1944.22,230.048 1946.21,246.004 1948.21,212.99 1950.2,221.897 1952.19,228.103 1954.19,222.615 1956.18,228.257 1958.17,242.066 1960.17,233.891 1962.16,219.102 1964.15,225.547 1966.15,231.699 1968.14,236.262 1970.13,235.691 1972.12,236.17 1974.12,224.778 1976.11,233.632 1978.1,236.581 1980.1,250.889 1982.09,224.074 1984.08,234.027 1986.08,225.134 1988.07,234.12 1990.06,241.864 1992.06,233.956 1994.05,228.995 1996.04,229.239 1998.04,225.595 2000.03,225.322 2002.02,226.989 2004.02,224.806 2006.01,240.655 2008,227.862 2009.99,243.157 2011.99,226.69 2013.98,221.787 2015.97,215.381 2017.97,236.412 2019.96,216.266 2021.95,228.574 2023.95,232.929 2025.94,229.432 2027.93,224.14 2029.93,236.882 2031.92,221.798 2033.91,224.437 2035.91,236.633 2037.9,228.815 2039.89,244.062 2041.89,238.866 2043.88,234.38 2045.87,229.759 2047.86,235.379 2049.86,256.422 2051.85,229.552 2053.84,233.605 2055.84,218.036 2057.83,242.14 2059.82,219.421 2061.82,242.575 2063.81,225.255 2065.8,245.041 2067.8,242.211 2069.79,225.268 2071.78,227.418 2073.78,232.686 2075.77,234.291 2077.76,224.39 2079.75,226.297 2081.75,232.095 2083.74,217 2085.73,221.74 2087.73,233.232 2089.72,244.887 2091.71,232.197 2093.71,228.564 2095.7,238.319 2097.69,218.434 2099.69,252.075 2101.68,246.904 2103.67,232.209 2105.67,218.686 2107.66,227.044 2109.65,217.104 2111.65,232.992 2113.64,225.551 2115.63,227.689 2117.62,222.873 2119.62,229.993 2121.61,245.445 2123.6,238.553 2125.6,227.065 2127.59,231.097 2129.58,234.397 2131.58,219.271 2133.57,232.353 2135.56,237.911 2137.56,230.728 2139.55,218.882 2141.54,221.118 2143.54,235.684 2145.53,250.733 2147.52,235.756 2149.51,239.945 2151.51,232.752 2153.5,237.338 2155.49,224.659 2157.49,231.371 2159.48,230.878 2161.47,233.59 2163.47,228.948 2165.46,229.137 2167.45,232.371 2169.45,223.369 2171.44,215.825 2173.43,225.868 2175.43,225.435 2177.42,222.844 2179.41,226.749 2181.41,233.084 2183.4,231.489 2185.39,226.833 2187.38,233.57 2189.38,231.878 2191.37,243.553 2193.36,228.74 2195.36,232.774 2197.35,238.188 2199.34,221.916 2201.34,231.666 2203.33,232.654 2205.32,244.342 2207.32,230.735 2209.31,241.596 2211.3,247.817 2213.3,229.708 2215.29,239.188 2217.28,233.512 2219.27,226.106 2221.27,236.259 2223.26,238.934 2225.25,223.038 2227.25,226.989 2229.24,231.162 2231.23,224.428 2233.23,226.572 2235.22,226.061 2237.21,232.821 2239.21,236.247 2241.2,239.826 2243.19,224.224 2245.19,231.985 2247.18,226.08 2249.17,230.504 2251.17,239.008 2253.16,221.876 2255.15,239.827 2257.14,221.095 2259.14,241.936 2261.13,227.098 2263.12,237.861 2265.12,219.544 2267.11,221.871 2269.1,244.247 2271.1,234.423 2273.09,231.447 2275.08,226.556 2277.08,228.12 2279.07,226.048 2281.06,222.981 2283.06,232.126 2285.05,245.719 2287.04,220.573 2289.04,242.044 2291.03,226.538 2293.02,235.504 "/>
<path clip-path="url(#clip110)" d="M1736.78 1377.32 L2282.4 1377.32 L2282.4 1221.8 L1736.78 1221.8  Z" fill="#ffffff" fill-rule="evenodd" fill-opacity="1"/>
<polyline clip-path="url(#clip110)" style="stroke:#000000; stroke-linecap:round; stroke-linejoin:round; stroke-width:4; stroke-opacity:1; fill:none" points="1736.78,1377.32 2282.4,1377.32 2282.4,1221.8 1736.78,1221.8 1736.78,1377.32 "/>
<polyline clip-path="url(#clip110)" style="stroke:#009af9; stroke-linecap:round; stroke-linejoin:round; stroke-width:4; stroke-opacity:1; fill:none" points="1760.23,1273.64 1900.94,1273.64 "/>
<path clip-path="url(#clip110)" d="M1929.07 1274.41 L1929.07 1287.07 L1936.57 1287.07 Q1940.34 1287.07 1942.15 1285.52 Q1943.98 1283.95 1943.98 1280.73 Q1943.98 1277.49 1942.15 1275.96 Q1940.34 1274.41 1936.57 1274.41 L1929.07 1274.41 M1929.07 1260.2 L1929.07 1270.61 L1935.99 1270.61 Q1939.42 1270.61 1941.08 1269.34 Q1942.77 1268.05 1942.77 1265.41 Q1942.77 1262.79 1941.08 1261.49 Q1939.42 1260.2 1935.99 1260.2 L1929.07 1260.2 M1924.39 1256.36 L1936.34 1256.36 Q1941.68 1256.36 1944.58 1258.58 Q1947.47 1260.8 1947.47 1264.9 Q1947.47 1268.07 1945.99 1269.94 Q1944.51 1271.82 1941.64 1272.28 Q1945.09 1273.02 1946.98 1275.38 Q1948.91 1277.72 1948.91 1281.24 Q1948.91 1285.87 1945.76 1288.39 Q1942.61 1290.92 1936.8 1290.92 L1924.39 1290.92 L1924.39 1256.36 Z" fill="#000000" fill-rule="nonzero" fill-opacity="1" /><path clip-path="url(#clip110)" d="M1961.59 1274.41 L1961.59 1287.07 L1969.09 1287.07 Q1972.86 1287.07 1974.67 1285.52 Q1976.5 1283.95 1976.5 1280.73 Q1976.5 1277.49 1974.67 1275.96 Q1972.86 1274.41 1969.09 1274.41 L1961.59 1274.41 M1961.59 1260.2 L1961.59 1270.61 L1968.51 1270.61 Q1971.94 1270.61 1973.6 1269.34 Q1975.29 1268.05 1975.29 1265.41 Q1975.29 1262.79 1973.6 1261.49 Q1971.94 1260.2 1968.51 1260.2 L1961.59 1260.2 M1956.92 1256.36 L1968.86 1256.36 Q1974.21 1256.36 1977.1 1258.58 Q1979.99 1260.8 1979.99 1264.9 Q1979.99 1268.07 1978.51 1269.94 Q1977.03 1271.82 1974.16 1272.28 Q1977.61 1273.02 1979.51 1275.38 Q1981.43 1277.72 1981.43 1281.24 Q1981.43 1285.87 1978.28 1288.39 Q1975.13 1290.92 1969.32 1290.92 L1956.92 1290.92 L1956.92 1256.36 Z" fill="#000000" fill-rule="nonzero" fill-opacity="1" /><path clip-path="url(#clip110)" d="M1996.89 1290.92 L1983.7 1256.36 L1988.58 1256.36 L1999.53 1285.45 L2010.5 1256.36 L2015.36 1256.36 L2002.19 1290.92 L1996.89 1290.92 Z" fill="#000000" fill-rule="nonzero" fill-opacity="1" /><path clip-path="url(#clip110)" d="M2020.41 1256.36 L2025.09 1256.36 L2025.09 1290.92 L2020.41 1290.92 L2020.41 1256.36 Z" fill="#000000" fill-rule="nonzero" fill-opacity="1" /><path clip-path="url(#clip110)" d="M2075.34 1259.02 L2075.34 1263.95 Q2072.98 1261.75 2070.29 1260.66 Q2067.63 1259.57 2064.62 1259.57 Q2058.7 1259.57 2055.55 1263.21 Q2052.4 1266.82 2052.4 1273.67 Q2052.4 1280.5 2055.55 1284.13 Q2058.7 1287.74 2064.62 1287.74 Q2067.63 1287.74 2070.29 1286.66 Q2072.98 1285.57 2075.34 1283.37 L2075.34 1288.25 Q2072.89 1289.92 2070.13 1290.75 Q2067.4 1291.59 2064.35 1291.59 Q2056.5 1291.59 2051.98 1286.79 Q2047.47 1281.98 2047.47 1273.67 Q2047.47 1265.34 2051.98 1260.55 Q2056.5 1255.73 2064.35 1255.73 Q2067.45 1255.73 2070.18 1256.56 Q2072.93 1257.37 2075.34 1259.02 Z" fill="#000000" fill-rule="nonzero" fill-opacity="1" /><path clip-path="url(#clip110)" d="M2082.56 1256.36 L2102.42 1256.36 L2102.42 1260.29 L2087.24 1260.29 L2087.24 1270.48 L2100.94 1270.48 L2100.94 1274.41 L2087.24 1274.41 L2087.24 1290.92 L2082.56 1290.92 L2082.56 1256.36 Z" fill="#000000" fill-rule="nonzero" fill-opacity="1" /><path clip-path="url(#clip110)" d="M2109.83 1256.36 L2131.68 1256.36 L2131.68 1260.29 L2114.51 1260.29 L2114.51 1270.52 L2130.97 1270.52 L2130.97 1274.46 L2114.51 1274.46 L2114.51 1286.98 L2132.1 1286.98 L2132.1 1290.92 L2109.83 1290.92 L2109.83 1256.36 Z" fill="#000000" fill-rule="nonzero" fill-opacity="1" /><polyline clip-path="url(#clip110)" style="stroke:#e26f46; stroke-linecap:round; stroke-linejoin:round; stroke-width:4; stroke-opacity:1; fill:none" points="1760.23,1325.48 1900.94,1325.48 "/>
<path clip-path="url(#clip110)" d="M1929.07 1326.25 L1929.07 1338.91 L1936.57 1338.91 Q1940.34 1338.91 1942.15 1337.36 Q1943.98 1335.79 1943.98 1332.57 Q1943.98 1329.33 1942.15 1327.8 Q1940.34 1326.25 1936.57 1326.25 L1929.07 1326.25 M1929.07 1312.04 L1929.07 1322.45 L1935.99 1322.45 Q1939.42 1322.45 1941.08 1321.18 Q1942.77 1319.89 1942.77 1317.25 Q1942.77 1314.63 1941.08 1313.33 Q1939.42 1312.04 1935.99 1312.04 L1929.07 1312.04 M1924.39 1308.2 L1936.34 1308.2 Q1941.68 1308.2 1944.58 1310.42 Q1947.47 1312.64 1947.47 1316.74 Q1947.47 1319.91 1945.99 1321.78 Q1944.51 1323.66 1941.64 1324.12 Q1945.09 1324.86 1946.98 1327.22 Q1948.91 1329.56 1948.91 1333.08 Q1948.91 1337.71 1945.76 1340.23 Q1942.61 1342.76 1936.8 1342.76 L1924.39 1342.76 L1924.39 1308.2 Z" fill="#000000" fill-rule="nonzero" fill-opacity="1" /><path clip-path="url(#clip110)" d="M1961.59 1326.25 L1961.59 1338.91 L1969.09 1338.91 Q1972.86 1338.91 1974.67 1337.36 Q1976.5 1335.79 1976.5 1332.57 Q1976.5 1329.33 1974.67 1327.8 Q1972.86 1326.25 1969.09 1326.25 L1961.59 1326.25 M1961.59 1312.04 L1961.59 1322.45 L1968.51 1322.45 Q1971.94 1322.45 1973.6 1321.18 Q1975.29 1319.89 1975.29 1317.25 Q1975.29 1314.63 1973.6 1313.33 Q1971.94 1312.04 1968.51 1312.04 L1961.59 1312.04 M1956.92 1308.2 L1968.86 1308.2 Q1974.21 1308.2 1977.1 1310.42 Q1979.99 1312.64 1979.99 1316.74 Q1979.99 1319.91 1978.51 1321.78 Q1977.03 1323.66 1974.16 1324.12 Q1977.61 1324.86 1979.51 1327.22 Q1981.43 1329.56 1981.43 1333.08 Q1981.43 1337.71 1978.28 1340.23 Q1975.13 1342.76 1969.32 1342.76 L1956.92 1342.76 L1956.92 1308.2 Z" fill="#000000" fill-rule="nonzero" fill-opacity="1" /><path clip-path="url(#clip110)" d="M1996.89 1342.76 L1983.7 1308.2 L1988.58 1308.2 L1999.53 1337.29 L2010.5 1308.2 L2015.36 1308.2 L2002.19 1342.76 L1996.89 1342.76 Z" fill="#000000" fill-rule="nonzero" fill-opacity="1" /><path clip-path="url(#clip110)" d="M2020.41 1308.2 L2025.09 1308.2 L2025.09 1342.76 L2020.41 1342.76 L2020.41 1308.2 Z" fill="#000000" fill-rule="nonzero" fill-opacity="1" /><path clip-path="url(#clip110)" d="M2075.34 1310.86 L2075.34 1315.79 Q2072.98 1313.59 2070.29 1312.5 Q2067.63 1311.41 2064.62 1311.41 Q2058.7 1311.41 2055.55 1315.05 Q2052.4 1318.66 2052.4 1325.51 Q2052.4 1332.34 2055.55 1335.97 Q2058.7 1339.58 2064.62 1339.58 Q2067.63 1339.58 2070.29 1338.5 Q2072.98 1337.41 2075.34 1335.21 L2075.34 1340.09 Q2072.89 1341.76 2070.13 1342.59 Q2067.4 1343.43 2064.35 1343.43 Q2056.5 1343.43 2051.98 1338.63 Q2047.47 1333.82 2047.47 1325.51 Q2047.47 1317.18 2051.98 1312.39 Q2056.5 1307.57 2064.35 1307.57 Q2067.45 1307.57 2070.18 1308.4 Q2072.93 1309.21 2075.34 1310.86 Z" fill="#000000" fill-rule="nonzero" fill-opacity="1" /><path clip-path="url(#clip110)" d="M2082.56 1308.2 L2102.42 1308.2 L2102.42 1312.13 L2087.24 1312.13 L2087.24 1322.32 L2100.94 1322.32 L2100.94 1326.25 L2087.24 1326.25 L2087.24 1342.76 L2082.56 1342.76 L2082.56 1308.2 Z" fill="#000000" fill-rule="nonzero" fill-opacity="1" /><path clip-path="url(#clip110)" d="M2109.83 1308.2 L2131.68 1308.2 L2131.68 1312.13 L2114.51 1312.13 L2114.51 1322.36 L2130.97 1322.36 L2130.97 1326.3 L2114.51 1326.3 L2114.51 1338.82 L2132.1 1338.82 L2132.1 1342.76 L2109.83 1342.76 L2109.83 1308.2 Z" fill="#000000" fill-rule="nonzero" fill-opacity="1" /><path clip-path="url(#clip110)" d="M2168.88 1311.37 Q2163.79 1311.37 2160.78 1315.16 Q2157.79 1318.96 2157.79 1325.51 Q2157.79 1332.04 2160.78 1335.83 Q2163.79 1339.63 2168.88 1339.63 Q2173.97 1339.63 2176.94 1335.83 Q2179.92 1332.04 2179.92 1325.51 Q2179.92 1318.96 2176.94 1315.16 Q2173.97 1311.37 2168.88 1311.37 M2175.43 1342.13 L2181.59 1348.87 L2175.94 1348.87 L2170.83 1343.33 Q2170.06 1343.38 2169.65 1343.4 Q2169.25 1343.43 2168.88 1343.43 Q2161.59 1343.43 2157.21 1338.57 Q2152.86 1333.68 2152.86 1325.51 Q2152.86 1317.32 2157.21 1312.45 Q2161.59 1307.57 2168.88 1307.57 Q2176.15 1307.57 2180.5 1312.45 Q2184.85 1317.32 2184.85 1325.51 Q2184.85 1331.53 2182.42 1335.81 Q2180.02 1340.09 2175.43 1342.13 Z" fill="#000000" fill-rule="nonzero" fill-opacity="1" /><path clip-path="url(#clip110)" d="M2192.17 1308.2 L2199.14 1308.2 L2207.96 1331.71 L2216.82 1308.2 L2223.79 1308.2 L2223.79 1342.76 L2219.23 1342.76 L2219.23 1312.41 L2210.32 1336.11 L2205.62 1336.11 L2196.71 1312.41 L2196.71 1342.76 L2192.17 1342.76 L2192.17 1308.2 Z" fill="#000000" fill-rule="nonzero" fill-opacity="1" /><path clip-path="url(#clip110)" d="M2258.95 1310.86 L2258.95 1315.79 Q2256.59 1313.59 2253.9 1312.5 Q2251.24 1311.41 2248.23 1311.41 Q2242.31 1311.41 2239.16 1315.05 Q2236.01 1318.66 2236.01 1325.51 Q2236.01 1332.34 2239.16 1335.97 Q2242.31 1339.58 2248.23 1339.58 Q2251.24 1339.58 2253.9 1338.5 Q2256.59 1337.41 2258.95 1335.21 L2258.95 1340.09 Q2256.5 1341.76 2253.74 1342.59 Q2251.01 1343.43 2247.96 1343.43 Q2240.11 1343.43 2235.59 1338.63 Q2231.08 1333.82 2231.08 1325.51 Q2231.08 1317.18 2235.59 1312.39 Q2240.11 1307.57 2247.96 1307.57 Q2251.06 1307.57 2253.79 1308.4 Q2256.54 1309.21 2258.95 1310.86 Z" fill="#000000" fill-rule="nonzero" fill-opacity="1" /></svg>
