<?xml version="1.0" encoding="utf-8"?>
<svg xmlns="http://www.w3.org/2000/svg" xmlns:xlink="http://www.w3.org/1999/xlink" width="600" height="400" viewBox="0 0 2400 1600">
<defs>
  <clipPath id="clip680">
    <rect x="0" y="0" width="2400" height="1600"/>
  </clipPath>
</defs>
<path clip-path="url(#clip680)" d="M0 1600 L2400 1600 L2400 0 L0 0  Z" fill="#ffffff" fill-rule="evenodd" fill-opacity="1"/>
<defs>
  <clipPath id="clip681">
    <rect x="203" y="47" width="1910" height="1377"/>
  </clipPath>
</defs>
<path clip-path="url(#clip680)" d="M242.135 1423.18 L2352.76 1423.18 L2352.76 47.2441 L242.135 47.2441  Z" fill="#ffffff" fill-rule="evenodd" fill-opacity="1"/>
<defs>
  <clipPath id="clip682">
    <rect x="242" y="47" width="2112" height="1377"/>
  </clipPath>
</defs>
<polyline clip-path="url(#clip682)" style="stroke:#000000; stroke-linecap:round; stroke-linejoin:round; stroke-width:2; stroke-opacity:0.1; fill:none" points="295.21,1423.18 295.21,47.2441 "/>
<polyline clip-path="url(#clip682)" style="stroke:#000000; stroke-linecap:round; stroke-linejoin:round; stroke-width:2; stroke-opacity:0.1; fill:none" points="961.147,1423.18 961.147,47.2441 "/>
<polyline clip-path="url(#clip682)" style="stroke:#000000; stroke-linecap:round; stroke-linejoin:round; stroke-width:2; stroke-opacity:0.1; fill:none" points="1627.08,1423.18 1627.08,47.2441 "/>
<polyline clip-path="url(#clip682)" style="stroke:#000000; stroke-linecap:round; stroke-linejoin:round; stroke-width:2; stroke-opacity:0.1; fill:none" points="2293.02,1423.18 2293.02,47.2441 "/>
<polyline clip-path="url(#clip682)" style="stroke:#000000; stroke-linecap:round; stroke-linejoin:round; stroke-width:2; stroke-opacity:0.1; fill:none" points="242.135,1423.18 2352.76,1423.18 "/>
<polyline clip-path="url(#clip682)" style="stroke:#000000; stroke-linecap:round; stroke-linejoin:round; stroke-width:2; stroke-opacity:0.1; fill:none" points="242.135,1222.49 2352.76,1222.49 "/>
<polyline clip-path="url(#clip682)" style="stroke:#000000; stroke-linecap:round; stroke-linejoin:round; stroke-width:2; stroke-opacity:0.1; fill:none" points="242.135,1021.8 2352.76,1021.8 "/>
<polyline clip-path="url(#clip682)" style="stroke:#000000; stroke-linecap:round; stroke-linejoin:round; stroke-width:2; stroke-opacity:0.1; fill:none" points="242.135,821.112 2352.76,821.112 "/>
<polyline clip-path="url(#clip682)" style="stroke:#000000; stroke-linecap:round; stroke-linejoin:round; stroke-width:2; stroke-opacity:0.1; fill:none" points="242.135,620.422 2352.76,620.422 "/>
<polyline clip-path="url(#clip682)" style="stroke:#000000; stroke-linecap:round; stroke-linejoin:round; stroke-width:2; stroke-opacity:0.1; fill:none" points="242.135,419.733 2352.76,419.733 "/>
<polyline clip-path="url(#clip682)" style="stroke:#000000; stroke-linecap:round; stroke-linejoin:round; stroke-width:2; stroke-opacity:0.1; fill:none" points="242.135,219.043 2352.76,219.043 "/>
<polyline clip-path="url(#clip680)" style="stroke:#000000; stroke-linecap:round; stroke-linejoin:round; stroke-width:4; stroke-opacity:1; fill:none" points="242.135,1423.18 2352.76,1423.18 "/>
<polyline clip-path="url(#clip680)" style="stroke:#000000; stroke-linecap:round; stroke-linejoin:round; stroke-width:4; stroke-opacity:1; fill:none" points="295.21,1423.18 295.21,1404.28 "/>
<polyline clip-path="url(#clip680)" style="stroke:#000000; stroke-linecap:round; stroke-linejoin:round; stroke-width:4; stroke-opacity:1; fill:none" points="961.147,1423.18 961.147,1404.28 "/>
<polyline clip-path="url(#clip680)" style="stroke:#000000; stroke-linecap:round; stroke-linejoin:round; stroke-width:4; stroke-opacity:1; fill:none" points="1627.08,1423.18 1627.08,1404.28 "/>
<polyline clip-path="url(#clip680)" style="stroke:#000000; stroke-linecap:round; stroke-linejoin:round; stroke-width:4; stroke-opacity:1; fill:none" points="2293.02,1423.18 2293.02,1404.28 "/>
<path clip-path="url(#clip680)" d="M295.21 1454.1 Q291.599 1454.1 289.77 1457.66 Q287.965 1461.2 287.965 1468.33 Q287.965 1475.44 289.77 1479.01 Q291.599 1482.55 295.21 1482.55 Q298.844 1482.55 300.65 1479.01 Q302.478 1475.44 302.478 1468.33 Q302.478 1461.2 300.65 1457.66 Q298.844 1454.1 295.21 1454.1 M295.21 1450.39 Q301.02 1450.39 304.076 1455 Q307.154 1459.58 307.154 1468.33 Q307.154 1477.06 304.076 1481.67 Q301.02 1486.25 295.21 1486.25 Q289.4 1486.25 286.321 1481.67 Q283.265 1477.06 283.265 1468.33 Q283.265 1459.58 286.321 1455 Q289.4 1450.39 295.21 1450.39 Z" fill="#000000" fill-rule="nonzero" fill-opacity="1" /><path clip-path="url(#clip680)" d="M920.754 1481.64 L928.393 1481.64 L928.393 1455.28 L920.082 1456.95 L920.082 1452.69 L928.346 1451.02 L933.022 1451.02 L933.022 1481.64 L940.661 1481.64 L940.661 1485.58 L920.754 1485.58 L920.754 1481.64 Z" fill="#000000" fill-rule="nonzero" fill-opacity="1" /><path clip-path="url(#clip680)" d="M960.105 1454.1 Q956.494 1454.1 954.666 1457.66 Q952.86 1461.2 952.86 1468.33 Q952.86 1475.44 954.666 1479.01 Q956.494 1482.55 960.105 1482.55 Q963.74 1482.55 965.545 1479.01 Q967.374 1475.44 967.374 1468.33 Q967.374 1461.2 965.545 1457.66 Q963.74 1454.1 960.105 1454.1 M960.105 1450.39 Q965.916 1450.39 968.971 1455 Q972.05 1459.58 972.05 1468.33 Q972.05 1477.06 968.971 1481.67 Q965.916 1486.25 960.105 1486.25 Q954.295 1486.25 951.217 1481.67 Q948.161 1477.06 948.161 1468.33 Q948.161 1459.58 951.217 1455 Q954.295 1450.39 960.105 1450.39 Z" fill="#000000" fill-rule="nonzero" fill-opacity="1" /><path clip-path="url(#clip680)" d="M990.267 1454.1 Q986.656 1454.1 984.827 1457.66 Q983.022 1461.2 983.022 1468.33 Q983.022 1475.44 984.827 1479.01 Q986.656 1482.55 990.267 1482.55 Q993.901 1482.55 995.707 1479.01 Q997.536 1475.44 997.536 1468.33 Q997.536 1461.2 995.707 1457.66 Q993.901 1454.1 990.267 1454.1 M990.267 1450.39 Q996.077 1450.39 999.133 1455 Q1002.21 1459.58 1002.21 1468.33 Q1002.21 1477.06 999.133 1481.67 Q996.077 1486.25 990.267 1486.25 Q984.457 1486.25 981.378 1481.67 Q978.323 1477.06 978.323 1468.33 Q978.323 1459.58 981.378 1455 Q984.457 1450.39 990.267 1450.39 Z" fill="#000000" fill-rule="nonzero" fill-opacity="1" /><path clip-path="url(#clip680)" d="M1590.78 1481.64 L1607.1 1481.64 L1607.1 1485.58 L1585.15 1485.58 L1585.15 1481.64 Q1587.81 1478.89 1592.4 1474.26 Q1597 1469.61 1598.18 1468.27 Q1600.43 1465.74 1601.31 1464.01 Q1602.21 1462.25 1602.21 1460.56 Q1602.21 1457.8 1600.27 1456.07 Q1598.35 1454.33 1595.24 1454.33 Q1593.05 1454.33 1590.59 1455.09 Q1588.16 1455.86 1585.38 1457.41 L1585.38 1452.69 Q1588.21 1451.55 1590.66 1450.97 Q1593.11 1450.39 1595.15 1450.39 Q1600.52 1450.39 1603.72 1453.08 Q1606.91 1455.77 1606.91 1460.26 Q1606.91 1462.39 1606.1 1464.31 Q1605.31 1466.2 1603.21 1468.8 Q1602.63 1469.47 1599.53 1472.69 Q1596.42 1475.88 1590.78 1481.64 Z" fill="#000000" fill-rule="nonzero" fill-opacity="1" /><path clip-path="url(#clip680)" d="M1626.91 1454.1 Q1623.3 1454.1 1621.47 1457.66 Q1619.67 1461.2 1619.67 1468.33 Q1619.67 1475.44 1621.47 1479.01 Q1623.3 1482.55 1626.91 1482.55 Q1630.54 1482.55 1632.35 1479.01 Q1634.18 1475.44 1634.18 1468.33 Q1634.18 1461.2 1632.35 1457.66 Q1630.54 1454.1 1626.91 1454.1 M1626.91 1450.39 Q1632.72 1450.39 1635.78 1455 Q1638.85 1459.58 1638.85 1468.33 Q1638.85 1477.06 1635.78 1481.67 Q1632.72 1486.25 1626.91 1486.25 Q1621.1 1486.25 1618.02 1481.67 Q1614.97 1477.06 1614.97 1468.33 Q1614.97 1459.58 1618.02 1455 Q1621.1 1450.39 1626.91 1450.39 Z" fill="#000000" fill-rule="nonzero" fill-opacity="1" /><path clip-path="url(#clip680)" d="M1657.07 1454.1 Q1653.46 1454.1 1651.63 1457.66 Q1649.83 1461.2 1649.83 1468.33 Q1649.83 1475.44 1651.63 1479.01 Q1653.46 1482.55 1657.07 1482.55 Q1660.71 1482.55 1662.51 1479.01 Q1664.34 1475.44 1664.34 1468.33 Q1664.34 1461.2 1662.51 1457.66 Q1660.71 1454.1 1657.07 1454.1 M1657.07 1450.39 Q1662.88 1450.39 1665.94 1455 Q1669.02 1459.58 1669.02 1468.33 Q1669.02 1477.06 1665.94 1481.67 Q1662.88 1486.25 1657.07 1486.25 Q1651.26 1486.25 1648.18 1481.67 Q1645.13 1477.06 1645.13 1468.33 Q1645.13 1459.58 1648.18 1455 Q1651.26 1450.39 1657.07 1450.39 Z" fill="#000000" fill-rule="nonzero" fill-opacity="1" /><path clip-path="url(#clip680)" d="M2266.78 1466.95 Q2270.14 1467.66 2272.01 1469.93 Q2273.91 1472.2 2273.91 1475.53 Q2273.91 1480.65 2270.39 1483.45 Q2266.88 1486.25 2260.39 1486.25 Q2258.22 1486.25 2255.9 1485.81 Q2253.61 1485.39 2251.16 1484.54 L2251.16 1480.02 Q2253.1 1481.16 2255.42 1481.74 Q2257.73 1482.32 2260.26 1482.32 Q2264.65 1482.32 2266.95 1480.58 Q2269.26 1478.84 2269.26 1475.53 Q2269.26 1472.48 2267.11 1470.77 Q2264.98 1469.03 2261.16 1469.03 L2257.13 1469.03 L2257.13 1465.19 L2261.34 1465.19 Q2264.79 1465.19 2266.62 1463.82 Q2268.45 1462.43 2268.45 1459.84 Q2268.45 1457.18 2266.55 1455.77 Q2264.68 1454.33 2261.16 1454.33 Q2259.24 1454.33 2257.04 1454.75 Q2254.84 1455.16 2252.2 1456.04 L2252.2 1451.88 Q2254.86 1451.14 2257.18 1450.77 Q2259.51 1450.39 2261.57 1450.39 Q2266.9 1450.39 2270 1452.83 Q2273.1 1455.23 2273.1 1459.35 Q2273.1 1462.22 2271.46 1464.21 Q2269.82 1466.18 2266.78 1466.95 Z" fill="#000000" fill-rule="nonzero" fill-opacity="1" /><path clip-path="url(#clip680)" d="M2292.78 1454.1 Q2289.17 1454.1 2287.34 1457.66 Q2285.53 1461.2 2285.53 1468.33 Q2285.53 1475.44 2287.34 1479.01 Q2289.17 1482.55 2292.78 1482.55 Q2296.41 1482.55 2298.22 1479.01 Q2300.05 1475.44 2300.05 1468.33 Q2300.05 1461.2 2298.22 1457.66 Q2296.41 1454.1 2292.78 1454.1 M2292.78 1450.39 Q2298.59 1450.39 2301.64 1455 Q2304.72 1459.58 2304.72 1468.33 Q2304.72 1477.06 2301.64 1481.67 Q2298.59 1486.25 2292.78 1486.25 Q2286.97 1486.25 2283.89 1481.67 Q2280.83 1477.06 2280.83 1468.33 Q2280.83 1459.58 2283.89 1455 Q2286.97 1450.39 2292.78 1450.39 Z" fill="#000000" fill-rule="nonzero" fill-opacity="1" /><path clip-path="url(#clip680)" d="M2322.94 1454.1 Q2319.33 1454.1 2317.5 1457.66 Q2315.69 1461.2 2315.69 1468.33 Q2315.69 1475.44 2317.5 1479.01 Q2319.33 1482.55 2322.94 1482.55 Q2326.57 1482.55 2328.38 1479.01 Q2330.21 1475.44 2330.21 1468.33 Q2330.21 1461.2 2328.38 1457.66 Q2326.57 1454.1 2322.94 1454.1 M2322.94 1450.39 Q2328.75 1450.39 2331.81 1455 Q2334.88 1459.58 2334.88 1468.33 Q2334.88 1477.06 2331.81 1481.67 Q2328.75 1486.25 2322.94 1486.25 Q2317.13 1486.25 2314.05 1481.67 Q2311 1477.06 2311 1468.33 Q2311 1459.58 2314.05 1455 Q2317.13 1450.39 2322.94 1450.39 Z" fill="#000000" fill-rule="nonzero" fill-opacity="1" /><path clip-path="url(#clip680)" d="M1165.17 1520.52 L1171.6 1520.52 L1171.6 1568.04 L1165.17 1568.04 L1165.17 1520.52 Z" fill="#000000" fill-rule="nonzero" fill-opacity="1" /><path clip-path="url(#clip680)" d="M1189.93 1522.27 L1189.93 1532.4 L1201.99 1532.4 L1201.99 1536.95 L1189.93 1536.95 L1189.93 1556.3 Q1189.93 1560.66 1191.11 1561.9 Q1192.32 1563.14 1195.98 1563.14 L1201.99 1563.14 L1201.99 1568.04 L1195.98 1568.04 Q1189.2 1568.04 1186.62 1565.53 Q1184.04 1562.98 1184.04 1556.3 L1184.04 1536.95 L1179.74 1536.95 L1179.74 1532.4 L1184.04 1532.4 L1184.04 1522.27 L1189.93 1522.27 Z" fill="#000000" fill-rule="nonzero" fill-opacity="1" /><path clip-path="url(#clip680)" d="M1240.19 1548.76 L1240.19 1551.62 L1213.26 1551.62 Q1213.64 1557.67 1216.89 1560.85 Q1220.17 1564 1225.99 1564 Q1229.36 1564 1232.52 1563.17 Q1235.7 1562.35 1238.82 1560.69 L1238.82 1566.23 Q1235.67 1567.57 1232.36 1568.27 Q1229.05 1568.97 1225.64 1568.97 Q1217.11 1568.97 1212.11 1564 Q1207.15 1559.04 1207.15 1550.57 Q1207.15 1541.82 1211.86 1536.69 Q1216.6 1531.54 1224.62 1531.54 Q1231.81 1531.54 1235.98 1536.18 Q1240.19 1540.8 1240.19 1548.76 M1234.33 1547.04 Q1234.27 1542.23 1231.62 1539.37 Q1229.01 1536.5 1224.69 1536.5 Q1219.78 1536.5 1216.82 1539.27 Q1213.9 1542.04 1213.45 1547.07 L1234.33 1547.04 Z" fill="#000000" fill-rule="nonzero" fill-opacity="1" /><path clip-path="url(#clip680)" d="M1270.45 1537.87 Q1269.47 1537.3 1268.29 1537.04 Q1267.14 1536.76 1265.74 1536.76 Q1260.78 1536.76 1258.11 1540 Q1255.46 1543.22 1255.46 1549.27 L1255.46 1568.04 L1249.58 1568.04 L1249.58 1532.4 L1255.46 1532.4 L1255.46 1537.93 Q1257.31 1534.69 1260.27 1533.13 Q1263.23 1531.54 1267.46 1531.54 Q1268.07 1531.54 1268.8 1531.63 Q1269.53 1531.7 1270.42 1531.85 L1270.45 1537.87 Z" fill="#000000" fill-rule="nonzero" fill-opacity="1" /><path clip-path="url(#clip680)" d="M1292.8 1550.12 Q1285.7 1550.12 1282.96 1551.75 Q1280.23 1553.37 1280.23 1557.29 Q1280.23 1560.4 1282.26 1562.25 Q1284.33 1564.07 1287.86 1564.07 Q1292.73 1564.07 1295.66 1560.63 Q1298.62 1557.16 1298.62 1551.43 L1298.62 1550.12 L1292.8 1550.12 M1304.48 1547.71 L1304.48 1568.04 L1298.62 1568.04 L1298.62 1562.63 Q1296.62 1565.88 1293.63 1567.44 Q1290.63 1568.97 1286.31 1568.97 Q1280.83 1568.97 1277.58 1565.91 Q1274.37 1562.82 1274.37 1557.67 Q1274.37 1551.65 1278.38 1548.6 Q1282.42 1545.54 1290.41 1545.54 L1298.62 1545.54 L1298.62 1544.97 Q1298.62 1540.93 1295.95 1538.73 Q1293.31 1536.5 1288.5 1536.5 Q1285.45 1536.5 1282.55 1537.23 Q1279.65 1537.97 1276.98 1539.43 L1276.98 1534.02 Q1280.19 1532.78 1283.22 1532.17 Q1286.24 1531.54 1289.11 1531.54 Q1296.84 1531.54 1300.66 1535.55 Q1304.48 1539.56 1304.48 1547.71 Z" fill="#000000" fill-rule="nonzero" fill-opacity="1" /><path clip-path="url(#clip680)" d="M1322.34 1522.27 L1322.34 1532.4 L1334.4 1532.4 L1334.4 1536.95 L1322.34 1536.95 L1322.34 1556.3 Q1322.34 1560.66 1323.51 1561.9 Q1324.72 1563.14 1328.38 1563.14 L1334.4 1563.14 L1334.4 1568.04 L1328.38 1568.04 Q1321.6 1568.04 1319.03 1565.53 Q1316.45 1562.98 1316.45 1556.3 L1316.45 1536.95 L1312.15 1536.95 L1312.15 1532.4 L1316.45 1532.4 L1316.45 1522.27 L1322.34 1522.27 Z" fill="#000000" fill-rule="nonzero" fill-opacity="1" /><path clip-path="url(#clip680)" d="M1342.1 1532.4 L1347.96 1532.4 L1347.96 1568.04 L1342.1 1568.04 L1342.1 1532.4 M1342.1 1518.52 L1347.96 1518.52 L1347.96 1525.93 L1342.1 1525.93 L1342.1 1518.52 Z" fill="#000000" fill-rule="nonzero" fill-opacity="1" /><path clip-path="url(#clip680)" d="M1374.02 1536.5 Q1369.31 1536.5 1366.58 1540.19 Q1363.84 1543.85 1363.84 1550.25 Q1363.84 1556.65 1366.55 1560.34 Q1369.28 1564 1374.02 1564 Q1378.7 1564 1381.44 1560.31 Q1384.18 1556.62 1384.18 1550.25 Q1384.18 1543.92 1381.44 1540.23 Q1378.7 1536.5 1374.02 1536.5 M1374.02 1531.54 Q1381.66 1531.54 1386.02 1536.5 Q1390.38 1541.47 1390.38 1550.25 Q1390.38 1559 1386.02 1564 Q1381.66 1568.97 1374.02 1568.97 Q1366.35 1568.97 1361.99 1564 Q1357.66 1559 1357.66 1550.25 Q1357.66 1541.47 1361.99 1536.5 Q1366.35 1531.54 1374.02 1531.54 Z" fill="#000000" fill-rule="nonzero" fill-opacity="1" /><path clip-path="url(#clip680)" d="M1429.72 1546.53 L1429.72 1568.04 L1423.87 1568.04 L1423.87 1546.72 Q1423.87 1541.66 1421.89 1539.14 Q1419.92 1536.63 1415.97 1536.63 Q1411.23 1536.63 1408.5 1539.65 Q1405.76 1542.68 1405.76 1547.9 L1405.76 1568.04 L1399.87 1568.04 L1399.87 1532.4 L1405.76 1532.4 L1405.76 1537.93 Q1407.86 1534.72 1410.69 1533.13 Q1413.56 1531.54 1417.28 1531.54 Q1423.42 1531.54 1426.57 1535.36 Q1429.72 1539.14 1429.72 1546.53 Z" fill="#000000" fill-rule="nonzero" fill-opacity="1" /><polyline clip-path="url(#clip680)" style="stroke:#000000; stroke-linecap:round; stroke-linejoin:round; stroke-width:4; stroke-opacity:1; fill:none" points="242.135,1423.18 242.135,47.2441 "/>
<polyline clip-path="url(#clip680)" style="stroke:#000000; stroke-linecap:round; stroke-linejoin:round; stroke-width:4; stroke-opacity:1; fill:none" points="242.135,1423.18 261.032,1423.18 "/>
<polyline clip-path="url(#clip680)" style="stroke:#000000; stroke-linecap:round; stroke-linejoin:round; stroke-width:4; stroke-opacity:1; fill:none" points="242.135,1222.49 261.032,1222.49 "/>
<polyline clip-path="url(#clip680)" style="stroke:#000000; stroke-linecap:round; stroke-linejoin:round; stroke-width:4; stroke-opacity:1; fill:none" points="242.135,1021.8 261.032,1021.8 "/>
<polyline clip-path="url(#clip680)" style="stroke:#000000; stroke-linecap:round; stroke-linejoin:round; stroke-width:4; stroke-opacity:1; fill:none" points="242.135,821.112 261.032,821.112 "/>
<polyline clip-path="url(#clip680)" style="stroke:#000000; stroke-linecap:round; stroke-linejoin:round; stroke-width:4; stroke-opacity:1; fill:none" points="242.135,620.422 261.032,620.422 "/>
<polyline clip-path="url(#clip680)" style="stroke:#000000; stroke-linecap:round; stroke-linejoin:round; stroke-width:4; stroke-opacity:1; fill:none" points="242.135,419.733 261.032,419.733 "/>
<polyline clip-path="url(#clip680)" style="stroke:#000000; stroke-linecap:round; stroke-linejoin:round; stroke-width:4; stroke-opacity:1; fill:none" points="242.135,219.043 261.032,219.043 "/>
<path clip-path="url(#clip680)" d="M114.26 1423.63 L143.936 1423.63 L143.936 1427.57 L114.26 1427.57 L114.26 1423.63 Z" fill="#000000" fill-rule="nonzero" fill-opacity="1" /><path clip-path="url(#clip680)" d="M154.839 1436.52 L162.477 1436.52 L162.477 1410.16 L154.167 1411.83 L154.167 1407.57 L162.431 1405.9 L167.107 1405.9 L167.107 1436.52 L174.746 1436.52 L174.746 1440.46 L154.839 1440.46 L154.839 1436.52 Z" fill="#000000" fill-rule="nonzero" fill-opacity="1" /><path clip-path="url(#clip680)" d="M194.19 1408.98 Q190.579 1408.98 188.75 1412.54 Q186.945 1416.08 186.945 1423.21 Q186.945 1430.32 188.75 1433.89 Q190.579 1437.43 194.19 1437.43 Q197.825 1437.43 199.63 1433.89 Q201.459 1430.32 201.459 1423.21 Q201.459 1416.08 199.63 1412.54 Q197.825 1408.98 194.19 1408.98 M194.19 1405.27 Q200 1405.27 203.056 1409.88 Q206.135 1414.46 206.135 1423.21 Q206.135 1431.94 203.056 1436.55 Q200 1441.13 194.19 1441.13 Q188.38 1441.13 185.301 1436.55 Q182.246 1431.94 182.246 1423.21 Q182.246 1414.46 185.301 1409.88 Q188.38 1405.27 194.19 1405.27 Z" fill="#000000" fill-rule="nonzero" fill-opacity="1" /><path clip-path="url(#clip680)" d="M144.607 1222.94 L174.283 1222.94 L174.283 1226.88 L144.607 1226.88 L144.607 1222.94 Z" fill="#000000" fill-rule="nonzero" fill-opacity="1" /><path clip-path="url(#clip680)" d="M184.514 1239.05 L184.514 1234.79 Q186.274 1235.63 188.079 1236.07 Q189.885 1236.51 191.621 1236.51 Q196.25 1236.51 198.681 1233.4 Q201.135 1230.28 201.482 1223.94 Q200.139 1225.93 198.079 1226.99 Q196.019 1228.06 193.519 1228.06 Q188.334 1228.06 185.301 1224.93 Q182.292 1221.78 182.292 1216.34 Q182.292 1211.02 185.44 1207.8 Q188.588 1204.59 193.82 1204.59 Q199.815 1204.59 202.963 1209.19 Q206.135 1213.78 206.135 1222.53 Q206.135 1230.7 202.246 1235.58 Q198.38 1240.44 191.829 1240.44 Q190.07 1240.44 188.264 1240.09 Q186.459 1239.75 184.514 1239.05 M193.82 1224.4 Q196.968 1224.4 198.797 1222.25 Q200.649 1220.09 200.649 1216.34 Q200.649 1212.62 198.797 1210.47 Q196.968 1208.29 193.82 1208.29 Q190.672 1208.29 188.82 1210.47 Q186.991 1212.62 186.991 1216.34 Q186.991 1220.09 188.82 1222.25 Q190.672 1224.4 193.82 1224.4 Z" fill="#000000" fill-rule="nonzero" fill-opacity="1" /><path clip-path="url(#clip680)" d="M144.515 1022.25 L174.19 1022.25 L174.19 1026.19 L144.515 1026.19 L144.515 1022.25 Z" fill="#000000" fill-rule="nonzero" fill-opacity="1" /><path clip-path="url(#clip680)" d="M194.283 1022.67 Q190.95 1022.67 189.028 1024.45 Q187.13 1026.23 187.13 1029.36 Q187.13 1032.48 189.028 1034.27 Q190.95 1036.05 194.283 1036.05 Q197.616 1036.05 199.537 1034.27 Q201.459 1032.46 201.459 1029.36 Q201.459 1026.23 199.537 1024.45 Q197.639 1022.67 194.283 1022.67 M189.607 1020.68 Q186.598 1019.94 184.908 1017.88 Q183.241 1015.82 183.241 1012.85 Q183.241 1008.71 186.181 1006.3 Q189.144 1003.9 194.283 1003.9 Q199.445 1003.9 202.385 1006.3 Q205.324 1008.71 205.324 1012.85 Q205.324 1015.82 203.635 1017.88 Q201.968 1019.94 198.982 1020.68 Q202.362 1021.47 204.237 1023.76 Q206.135 1026.05 206.135 1029.36 Q206.135 1034.38 203.056 1037.07 Q200 1039.75 194.283 1039.75 Q188.565 1039.75 185.487 1037.07 Q182.431 1034.38 182.431 1029.36 Q182.431 1026.05 184.329 1023.76 Q186.227 1021.47 189.607 1020.68 M187.894 1013.29 Q187.894 1015.98 189.561 1017.48 Q191.25 1018.99 194.283 1018.99 Q197.292 1018.99 198.982 1017.48 Q200.695 1015.98 200.695 1013.29 Q200.695 1010.61 198.982 1009.1 Q197.292 1007.6 194.283 1007.6 Q191.25 1007.6 189.561 1009.1 Q187.894 1010.61 187.894 1013.29 Z" fill="#000000" fill-rule="nonzero" fill-opacity="1" /><path clip-path="url(#clip680)" d="M145.325 821.563 L175.001 821.563 L175.001 825.498 L145.325 825.498 L145.325 821.563 Z" fill="#000000" fill-rule="nonzero" fill-opacity="1" /><path clip-path="url(#clip680)" d="M183.913 803.832 L206.135 803.832 L206.135 805.822 L193.588 838.392 L188.704 838.392 L200.51 807.767 L183.913 807.767 L183.913 803.832 Z" fill="#000000" fill-rule="nonzero" fill-opacity="1" /><path clip-path="url(#clip680)" d="M144.26 620.874 L173.936 620.874 L173.936 624.809 L144.26 624.809 L144.26 620.874 Z" fill="#000000" fill-rule="nonzero" fill-opacity="1" /><path clip-path="url(#clip680)" d="M194.607 618.559 Q191.459 618.559 189.607 620.712 Q187.778 622.864 187.778 626.614 Q187.778 630.341 189.607 632.517 Q191.459 634.67 194.607 634.67 Q197.755 634.67 199.584 632.517 Q201.436 630.341 201.436 626.614 Q201.436 622.864 199.584 620.712 Q197.755 618.559 194.607 618.559 M203.889 603.906 L203.889 608.165 Q202.13 607.332 200.325 606.892 Q198.542 606.452 196.783 606.452 Q192.153 606.452 189.7 609.577 Q187.269 612.702 186.922 619.022 Q188.288 617.008 190.348 615.943 Q192.408 614.855 194.885 614.855 Q200.093 614.855 203.102 618.026 Q206.135 621.175 206.135 626.614 Q206.135 631.938 202.987 635.156 Q199.838 638.374 194.607 638.374 Q188.612 638.374 185.44 633.79 Q182.269 629.184 182.269 620.457 Q182.269 612.263 186.158 607.402 Q190.047 602.517 196.598 602.517 Q198.357 602.517 200.139 602.865 Q201.945 603.212 203.889 603.906 Z" fill="#000000" fill-rule="nonzero" fill-opacity="1" /><path clip-path="url(#clip680)" d="M145.417 420.184 L175.093 420.184 L175.093 424.119 L145.417 424.119 L145.417 420.184 Z" fill="#000000" fill-rule="nonzero" fill-opacity="1" /><path clip-path="url(#clip680)" d="M185.232 402.453 L203.588 402.453 L203.588 406.388 L189.514 406.388 L189.514 414.86 Q190.533 414.513 191.551 414.351 Q192.57 414.166 193.588 414.166 Q199.375 414.166 202.755 417.337 Q206.135 420.508 206.135 425.925 Q206.135 431.504 202.662 434.605 Q199.19 437.684 192.871 437.684 Q190.695 437.684 188.426 437.314 Q186.181 436.943 183.774 436.203 L183.774 431.504 Q185.857 432.638 188.079 433.193 Q190.301 433.749 192.778 433.749 Q196.783 433.749 199.121 431.643 Q201.459 429.536 201.459 425.925 Q201.459 422.314 199.121 420.207 Q196.783 418.101 192.778 418.101 Q190.903 418.101 189.028 418.518 Q187.176 418.934 185.232 419.814 L185.232 402.453 Z" fill="#000000" fill-rule="nonzero" fill-opacity="1" /><path clip-path="url(#clip680)" d="M143.936 219.495 L173.612 219.495 L173.612 223.43 L143.936 223.43 L143.936 219.495 Z" fill="#000000" fill-rule="nonzero" fill-opacity="1" /><path clip-path="url(#clip680)" d="M196.551 205.838 L184.746 224.287 L196.551 224.287 L196.551 205.838 M195.325 201.763 L201.204 201.763 L201.204 224.287 L206.135 224.287 L206.135 228.175 L201.204 228.175 L201.204 236.323 L196.551 236.323 L196.551 228.175 L180.95 228.175 L180.95 223.662 L195.325 201.763 Z" fill="#000000" fill-rule="nonzero" fill-opacity="1" /><path clip-path="url(#clip680)" d="M16.4842 816.375 L16.4842 786.329 L21.895 786.329 L21.895 809.945 L35.9632 809.945 L35.9632 787.315 L41.3741 787.315 L41.3741 809.945 L58.5933 809.945 L58.5933 785.756 L64.0042 785.756 L64.0042 816.375 L16.4842 816.375 Z" fill="#000000" fill-rule="nonzero" fill-opacity="1" /><path clip-path="url(#clip680)" d="M16.4842 775.189 L16.4842 768.759 L58.5933 768.759 L58.5933 745.62 L64.0042 745.62 L64.0042 775.189 L16.4842 775.189 Z" fill="#000000" fill-rule="nonzero" fill-opacity="1" /><path clip-path="url(#clip680)" d="M41.3104 732.443 L58.7206 732.443 L58.7206 722.13 Q58.7206 716.942 56.5881 714.46 Q54.4238 711.945 49.9996 711.945 Q45.5436 711.945 43.4429 714.46 Q41.3104 716.942 41.3104 722.13 L41.3104 732.443 M21.7677 732.443 L36.0905 732.443 L36.0905 722.926 Q36.0905 718.216 34.34 715.924 Q32.5576 713.6 28.9291 713.6 Q25.3325 713.6 23.5501 715.924 Q21.7677 718.216 21.7677 722.926 L21.7677 732.443 M16.4842 738.872 L16.4842 722.449 Q16.4842 715.096 19.5397 711.118 Q22.5952 707.139 28.2289 707.139 Q32.5894 707.139 35.1675 709.176 Q37.7456 711.213 38.3822 715.16 Q39.4007 710.418 42.6472 707.808 Q45.8619 705.166 50.6998 705.166 Q57.0655 705.166 60.5348 709.495 Q64.0042 713.823 64.0042 721.812 L64.0042 738.872 L16.4842 738.872 Z" fill="#000000" fill-rule="nonzero" fill-opacity="1" /><path clip-path="url(#clip680)" d="M20.8447 676.011 Q20.8447 683.013 26.0645 687.151 Q31.2844 691.257 40.2919 691.257 Q49.2675 691.257 54.4874 687.151 Q59.7073 683.013 59.7073 676.011 Q59.7073 669.009 54.4874 664.935 Q49.2675 660.829 40.2919 660.829 Q31.2844 660.829 26.0645 664.935 Q20.8447 669.009 20.8447 676.011 M15.6248 676.011 Q15.6248 666.017 22.3406 660.033 Q29.0246 654.049 40.2919 654.049 Q51.5274 654.049 58.2432 660.033 Q64.9272 666.017 64.9272 676.011 Q64.9272 686.037 58.2432 692.052 Q51.5592 698.036 40.2919 698.036 Q29.0246 698.036 22.3406 692.052 Q15.6248 686.037 15.6248 676.011 Z" fill="#000000" fill-rule="nonzero" fill-opacity="1" /><polyline clip-path="url(#clip682)" style="stroke:#009af9; stroke-linecap:round; stroke-linejoin:round; stroke-width:4; stroke-opacity:1; fill:none" points="301.869,1362.08 308.529,896.389 315.188,670.21 321.847,494.992 328.507,1142.23 335.166,590.303 341.825,415.711 348.485,842.832 355.144,602.001 361.804,810.477 368.463,419.413 375.122,425.725 381.782,418.909 388.441,425.505 395.1,331.597 401.76,420.443 408.419,275.765 415.079,284.267 421.738,364.905 428.397,304.024 435.057,494.387 441.716,246.63 448.375,292.487 455.035,225.805 461.694,257.907 468.354,261.125 475.013,202.244 481.672,250.024 488.332,227.714 494.991,239.527 501.65,214.103 508.31,195 514.969,250.831 521.628,206.112 528.288,193.565 534.947,129.652 541.607,69.3312 548.266,123.941 554.925,131.828 561.585,161.705 568.244,163.292 574.903,54.0806 581.563,273.189 588.222,122.23 594.882,127.508 601.541,63.5723 608.2,95.9018 614.86,75.7291 621.519,101.34 628.178,94.261 634.838,99.4958 641.497,119.375 648.157,101.189 654.816,85.4054 661.475,74.6609 668.135,134.27 674.794,71.6398 681.453,3541.81 688.113,76.4302 694.772,49.095 701.432,124.828 708.091,137.442 714.75,201.085 721.41,209.514 728.069,225.528 734.728,243.215 741.388,204.758 748.047,178.026 754.706,225.51 761.366,369.652 768.025,295.564 774.685,213.377 781.344,282.935 788.003,240.839 794.663,176.484 801.322,152.565 807.981,209.678 814.641,250.76 821.3,259.623 827.96,185.513 834.619,244.493 841.278,256.714 847.938,144.513 854.597,230.361 861.256,287.902 867.916,173.679 874.575,241.864 881.235,215.828 887.894,204.135 894.553,192.688 901.213,128.855 907.872,216.675 914.531,206.787 921.191,194.257 927.85,212.265 934.51,202.807 941.169,189.556 947.828,168.234 954.488,145.434 961.147,119.606 967.806,146.639 974.466,166.547 981.125,113.362 987.785,202.52 994.444,157.476 1001.1,171.512 1007.76,181.685 1014.42,109.813 1021.08,142.078 1027.74,125.614 1034.4,140.013 1041.06,67.1467 1047.72,110.031 1054.38,146.444 1061.04,115.63 1067.7,109.198 1074.36,92.3158 1081.02,52.3194 1087.68,86.6127 1094.33,92.7327 1100.99,69.2765 1107.65,62.8995 1114.31,115.309 1120.97,116.862 1127.63,89.8983 1134.29,93.9542 1140.95,52.1309 1147.61,117.845 1154.27,77.9695 1160.93,103.432 1167.59,53.5916 1174.25,82.8179 1180.91,96.1279 1187.57,79.9123 1194.23,132.469 1200.88,90.4414 1207.54,89.433 1214.2,115.945 1220.86,117.001 1227.52,105.41 1234.18,73.148 1240.84,133.101 1247.5,86.3445 1254.16,104.44 1260.82,61.5345 1267.48,81.7956 1274.14,95.2471 1280.8,100.721 1287.46,72.4373 1294.12,105.703 1300.77,75.4149 1307.43,106.706 1314.09,98.0462 1320.75,47.2441 1327.41,77.5554 1334.07,60.3962 1340.73,73.5481 1347.39,91.0443 1354.05,97.7219 1360.71,78.5184 1367.37,114.826 1374.03,67.3865 1380.69,69.5108 1387.35,79.9315 1394.01,66.2198 1400.67,77.2696 1407.32,51.6085 1413.98,93.0244 1420.64,63.8108 1427.3,60.5105 1433.96,1011.51 1440.62,240.891 1447.28,171.711 1453.94,74.3043 1460.6,122.577 1467.26,179.726 1473.92,153.39 1480.58,123.484 1487.24,110.268 1493.9,190.751 1500.56,149.667 1507.22,187.868 1513.87,118.089 1520.53,158.466 1527.19,174.72 1533.85,153.401 1540.51,184.932 1547.17,218.93 1553.83,181.034 1560.49,151.979 1567.15,184.834 1573.81,178.839 1580.47,174.971 1587.13,161.292 1593.79,146.217 1600.45,115.637 1607.11,159.294 1613.77,115.172 1620.42,124.58 1627.08,128.874 1633.74,147.31 1640.4,107.939 1647.06,219.637 1653.72,110.782 1660.38,142.34 1667.04,88.9489 1673.7,149.041 1680.36,121.034 1687.02,113.467 1693.68,113.008 1700.34,137.366 1707,108.692 1713.66,114.598 1720.32,143.571 1726.97,141.442 1733.63,122.401 1740.29,108.363 1746.95,165.337 1753.61,166.281 1760.27,152.328 1766.93,124.874 1773.59,155.396 1780.25,150.117 1786.91,148.008 1793.57,122.069 1800.23,80.408 1806.89,101.399 1813.55,120.306 1820.21,135.272 1826.87,154.877 1833.52,100.7 1840.18,128.189 1846.84,103.785 1853.5,113.614 1860.16,127.328 1866.82,131.518 1873.48,113.603 1880.14,103.276 1886.8,98.2917 1893.46,132.336 1900.12,96.2848 1906.78,134.666 1913.44,121.559 1920.1,101.678 1926.76,106.699 1933.42,116.493 1940.07,97.4426 1946.73,82.1156 1953.39,118.7 1960.05,115.594 1966.71,120.531 1973.37,96.489 1980.03,123.903 1986.69,116.433 1993.35,130.232 2000.01,119.743 2006.67,100.586 2013.33,124.402 2019.99,166.557 2026.65,117.858 2033.31,127.807 2039.97,169.338 2046.62,141.231 2053.28,128.876 2059.94,137.874 2066.6,162.91 2073.26,110.915 2079.92,162.962 2086.58,196.24 2093.24,174.484 2099.9,174.774 2106.56,148.966 2113.22,175.418 2119.88,71.8042 2126.54,140.538 2133.2,153.163 2139.86,148.041 2146.52,165.687 2153.17,155.08 2159.83,100.263 2166.49,199.754 2173.15,99.3432 2179.81,126.482 2186.47,104.743 2193.13,147.102 2199.79,126.932 2206.45,119.115 2213.11,109.045 2219.77,98.6591 2226.43,56.6272 2233.09,69.2073 2239.75,95.4248 2246.41,101.069 2253.07,95.6346 2259.72,128.197 2266.38,88.4738 2273.04,122.899 2279.7,261.162 2286.36,102.8 2293.02,131.725 "/>
<path clip-path="url(#clip680)" d="M2018.91 1377.32 L2282.4 1377.32 L2282.4 1273.64 L2018.91 1273.64  Z" fill="#ffffff" fill-rule="evenodd" fill-opacity="1"/>
<polyline clip-path="url(#clip680)" style="stroke:#000000; stroke-linecap:round; stroke-linejoin:round; stroke-width:4; stroke-opacity:1; fill:none" points="2018.91,1377.32 2282.4,1377.32 2282.4,1273.64 2018.91,1273.64 2018.91,1377.32 "/>
<polyline clip-path="url(#clip680)" style="stroke:#009af9; stroke-linecap:round; stroke-linejoin:round; stroke-width:4; stroke-opacity:1; fill:none" points="2042.36,1325.48 2183.07,1325.48 "/>
<path clip-path="url(#clip680)" d="M2220.36 1345.16 Q2218.56 1349.79 2216.84 1351.2 Q2215.13 1352.62 2212.26 1352.62 L2208.86 1352.62 L2208.86 1349.05 L2211.36 1349.05 Q2213.12 1349.05 2214.09 1348.22 Q2215.06 1347.38 2216.24 1344.28 L2217.01 1342.34 L2206.52 1316.83 L2211.03 1316.83 L2219.14 1337.11 L2227.24 1316.83 L2231.75 1316.83 L2220.36 1345.16 Z" fill="#000000" fill-rule="nonzero" fill-opacity="1" /><path clip-path="url(#clip680)" d="M2239.04 1338.82 L2246.68 1338.82 L2246.68 1312.45 L2238.37 1314.12 L2238.37 1309.86 L2246.64 1308.2 L2251.31 1308.2 L2251.31 1338.82 L2258.95 1338.82 L2258.95 1342.76 L2239.04 1342.76 L2239.04 1338.82 Z" fill="#000000" fill-rule="nonzero" fill-opacity="1" /></svg>
