<?xml version="1.0" encoding="utf-8"?>
<svg xmlns="http://www.w3.org/2000/svg" xmlns:xlink="http://www.w3.org/1999/xlink" width="600" height="400" viewBox="0 0 2400 1600">
<defs>
  <clipPath id="clip800">
    <rect x="0" y="0" width="2400" height="1600"/>
  </clipPath>
</defs>
<path clip-path="url(#clip800)" d="M0 1600 L2400 1600 L2400 0 L0 0  Z" fill="#ffffff" fill-rule="evenodd" fill-opacity="1"/>
<defs>
  <clipPath id="clip801">
    <rect x="407" y="47" width="1946" height="1377"/>
  </clipPath>
</defs>
<path clip-path="url(#clip800)" d="M407.875 1423.18 L2352.76 1423.18 L2352.76 47.2441 L407.875 47.2441  Z" fill="#ffffff" fill-rule="evenodd" fill-opacity="1"/>
<polyline clip-path="url(#clip801)" style="stroke:#000000; stroke-linecap:round; stroke-linejoin:round; stroke-width:2; stroke-opacity:0.1; fill:none" points="429.314,1423.18 429.314,47.2441 "/>
<polyline clip-path="url(#clip801)" style="stroke:#000000; stroke-linecap:round; stroke-linejoin:round; stroke-width:2; stroke-opacity:0.1; fill:none" points="1062.25,1423.18 1062.25,47.2441 "/>
<polyline clip-path="url(#clip801)" style="stroke:#000000; stroke-linecap:round; stroke-linejoin:round; stroke-width:2; stroke-opacity:0.1; fill:none" points="1695.19,1423.18 1695.19,47.2441 "/>
<polyline clip-path="url(#clip801)" style="stroke:#000000; stroke-linecap:round; stroke-linejoin:round; stroke-width:2; stroke-opacity:0.1; fill:none" points="2328.13,1423.18 2328.13,47.2441 "/>
<polyline clip-path="url(#clip801)" style="stroke:#000000; stroke-linecap:round; stroke-linejoin:round; stroke-width:2; stroke-opacity:0.1; fill:none" points="407.875,1198.6 2352.76,1198.6 "/>
<polyline clip-path="url(#clip801)" style="stroke:#000000; stroke-linecap:round; stroke-linejoin:round; stroke-width:2; stroke-opacity:0.1; fill:none" points="407.875,929.615 2352.76,929.615 "/>
<polyline clip-path="url(#clip801)" style="stroke:#000000; stroke-linecap:round; stroke-linejoin:round; stroke-width:2; stroke-opacity:0.1; fill:none" points="407.875,660.632 2352.76,660.632 "/>
<polyline clip-path="url(#clip801)" style="stroke:#000000; stroke-linecap:round; stroke-linejoin:round; stroke-width:2; stroke-opacity:0.1; fill:none" points="407.875,391.649 2352.76,391.649 "/>
<polyline clip-path="url(#clip801)" style="stroke:#000000; stroke-linecap:round; stroke-linejoin:round; stroke-width:2; stroke-opacity:0.1; fill:none" points="407.875,122.667 2352.76,122.667 "/>
<polyline clip-path="url(#clip800)" style="stroke:#000000; stroke-linecap:round; stroke-linejoin:round; stroke-width:4; stroke-opacity:1; fill:none" points="407.875,1423.18 2352.76,1423.18 "/>
<polyline clip-path="url(#clip800)" style="stroke:#000000; stroke-linecap:round; stroke-linejoin:round; stroke-width:4; stroke-opacity:1; fill:none" points="429.314,1423.18 429.314,1404.28 "/>
<polyline clip-path="url(#clip800)" style="stroke:#000000; stroke-linecap:round; stroke-linejoin:round; stroke-width:4; stroke-opacity:1; fill:none" points="1062.25,1423.18 1062.25,1404.28 "/>
<polyline clip-path="url(#clip800)" style="stroke:#000000; stroke-linecap:round; stroke-linejoin:round; stroke-width:4; stroke-opacity:1; fill:none" points="1695.19,1423.18 1695.19,1404.28 "/>
<polyline clip-path="url(#clip800)" style="stroke:#000000; stroke-linecap:round; stroke-linejoin:round; stroke-width:4; stroke-opacity:1; fill:none" points="2328.13,1423.18 2328.13,1404.28 "/>
<path clip-path="url(#clip800)" d="M429.314 1454.1 Q425.702 1454.1 423.874 1457.66 Q422.068 1461.2 422.068 1468.33 Q422.068 1475.44 423.874 1479.01 Q425.702 1482.55 429.314 1482.55 Q432.948 1482.55 434.753 1479.01 Q436.582 1475.44 436.582 1468.33 Q436.582 1461.2 434.753 1457.66 Q432.948 1454.1 429.314 1454.1 M429.314 1450.39 Q435.124 1450.39 438.179 1455 Q441.258 1459.58 441.258 1468.33 Q441.258 1477.06 438.179 1481.67 Q435.124 1486.25 429.314 1486.25 Q423.503 1486.25 420.425 1481.67 Q417.369 1477.06 417.369 1468.33 Q417.369 1459.58 420.425 1455 Q423.503 1450.39 429.314 1450.39 Z" fill="#000000" fill-rule="nonzero" fill-opacity="1" /><path clip-path="url(#clip800)" d="M1036.94 1481.64 L1044.58 1481.64 L1044.58 1455.28 L1036.27 1456.95 L1036.27 1452.69 L1044.53 1451.02 L1049.21 1451.02 L1049.21 1481.64 L1056.85 1481.64 L1056.85 1485.58 L1036.94 1485.58 L1036.94 1481.64 Z" fill="#000000" fill-rule="nonzero" fill-opacity="1" /><path clip-path="url(#clip800)" d="M1076.29 1454.1 Q1072.68 1454.1 1070.85 1457.66 Q1069.05 1461.2 1069.05 1468.33 Q1069.05 1475.44 1070.85 1479.01 Q1072.68 1482.55 1076.29 1482.55 Q1079.92 1482.55 1081.73 1479.01 Q1083.56 1475.44 1083.56 1468.33 Q1083.56 1461.2 1081.73 1457.66 Q1079.92 1454.1 1076.29 1454.1 M1076.29 1450.39 Q1082.1 1450.39 1085.16 1455 Q1088.23 1459.58 1088.23 1468.33 Q1088.23 1477.06 1085.16 1481.67 Q1082.1 1486.25 1076.29 1486.25 Q1070.48 1486.25 1067.4 1481.67 Q1064.35 1477.06 1064.35 1468.33 Q1064.35 1459.58 1067.4 1455 Q1070.48 1450.39 1076.29 1450.39 Z" fill="#000000" fill-rule="nonzero" fill-opacity="1" /><path clip-path="url(#clip800)" d="M1673.96 1481.64 L1690.28 1481.64 L1690.28 1485.58 L1668.34 1485.58 L1668.34 1481.64 Q1671 1478.89 1675.58 1474.26 Q1680.19 1469.61 1681.37 1468.27 Q1683.61 1465.74 1684.49 1464.01 Q1685.4 1462.25 1685.4 1460.56 Q1685.4 1457.8 1683.45 1456.07 Q1681.53 1454.33 1678.43 1454.33 Q1676.23 1454.33 1673.78 1455.09 Q1671.35 1455.86 1668.57 1457.41 L1668.57 1452.69 Q1671.39 1451.55 1673.85 1450.97 Q1676.3 1450.39 1678.34 1450.39 Q1683.71 1450.39 1686.9 1453.08 Q1690.1 1455.77 1690.1 1460.26 Q1690.1 1462.39 1689.29 1464.31 Q1688.5 1466.2 1686.39 1468.8 Q1685.81 1469.47 1682.71 1472.69 Q1679.61 1475.88 1673.96 1481.64 Z" fill="#000000" fill-rule="nonzero" fill-opacity="1" /><path clip-path="url(#clip800)" d="M1710.1 1454.1 Q1706.48 1454.1 1704.66 1457.66 Q1702.85 1461.2 1702.85 1468.33 Q1702.85 1475.44 1704.66 1479.01 Q1706.48 1482.55 1710.1 1482.55 Q1713.73 1482.55 1715.54 1479.01 Q1717.36 1475.44 1717.36 1468.33 Q1717.36 1461.2 1715.54 1457.66 Q1713.73 1454.1 1710.1 1454.1 M1710.1 1450.39 Q1715.91 1450.39 1718.96 1455 Q1722.04 1459.58 1722.04 1468.33 Q1722.04 1477.06 1718.96 1481.67 Q1715.91 1486.25 1710.1 1486.25 Q1704.29 1486.25 1701.21 1481.67 Q1698.15 1477.06 1698.15 1468.33 Q1698.15 1459.58 1701.21 1455 Q1704.29 1450.39 1710.1 1450.39 Z" fill="#000000" fill-rule="nonzero" fill-opacity="1" /><path clip-path="url(#clip800)" d="M2316.97 1466.95 Q2320.33 1467.66 2322.2 1469.93 Q2324.1 1472.2 2324.1 1475.53 Q2324.1 1480.65 2320.58 1483.45 Q2317.06 1486.25 2310.58 1486.25 Q2308.4 1486.25 2306.09 1485.81 Q2303.8 1485.39 2301.34 1484.54 L2301.34 1480.02 Q2303.29 1481.16 2305.6 1481.74 Q2307.92 1482.32 2310.44 1482.32 Q2314.84 1482.32 2317.13 1480.58 Q2319.45 1478.84 2319.45 1475.53 Q2319.45 1472.48 2317.29 1470.77 Q2315.16 1469.03 2311.34 1469.03 L2307.32 1469.03 L2307.32 1465.19 L2311.53 1465.19 Q2314.98 1465.19 2316.81 1463.82 Q2318.64 1462.43 2318.64 1459.84 Q2318.64 1457.18 2316.74 1455.77 Q2314.86 1454.33 2311.34 1454.33 Q2309.42 1454.33 2307.22 1454.75 Q2305.02 1455.16 2302.39 1456.04 L2302.39 1451.88 Q2305.05 1451.14 2307.36 1450.77 Q2309.7 1450.39 2311.76 1450.39 Q2317.08 1450.39 2320.19 1452.83 Q2323.29 1455.23 2323.29 1459.35 Q2323.29 1462.22 2321.64 1464.21 Q2320 1466.18 2316.97 1466.95 Z" fill="#000000" fill-rule="nonzero" fill-opacity="1" /><path clip-path="url(#clip800)" d="M2342.96 1454.1 Q2339.35 1454.1 2337.52 1457.66 Q2335.72 1461.2 2335.72 1468.33 Q2335.72 1475.44 2337.52 1479.01 Q2339.35 1482.55 2342.96 1482.55 Q2346.6 1482.55 2348.4 1479.01 Q2350.23 1475.44 2350.23 1468.33 Q2350.23 1461.2 2348.4 1457.66 Q2346.6 1454.1 2342.96 1454.1 M2342.96 1450.39 Q2348.77 1450.39 2351.83 1455 Q2354.91 1459.58 2354.91 1468.33 Q2354.91 1477.06 2351.83 1481.67 Q2348.77 1486.25 2342.96 1486.25 Q2337.15 1486.25 2334.08 1481.67 Q2331.02 1477.06 2331.02 1468.33 Q2331.02 1459.58 2334.08 1455 Q2337.15 1450.39 2342.96 1450.39 Z" fill="#000000" fill-rule="nonzero" fill-opacity="1" /><path clip-path="url(#clip800)" d="M1051.4 1520.52 L1057.89 1520.52 L1067.89 1560.69 L1077.85 1520.52 L1085.07 1520.52 L1095.07 1560.69 L1105.03 1520.52 L1111.56 1520.52 L1099.62 1568.04 L1091.53 1568.04 L1081.51 1526.79 L1071.39 1568.04 L1063.3 1568.04 L1051.4 1520.52 Z" fill="#000000" fill-rule="nonzero" fill-opacity="1" /><path clip-path="url(#clip800)" d="M1131.86 1550.12 Q1124.76 1550.12 1122.03 1551.75 Q1119.29 1553.37 1119.29 1557.29 Q1119.29 1560.4 1121.33 1562.25 Q1123.4 1564.07 1126.93 1564.07 Q1131.8 1564.07 1134.73 1560.63 Q1137.69 1557.16 1137.69 1551.43 L1137.69 1550.12 L1131.86 1550.12 M1143.54 1547.71 L1143.54 1568.04 L1137.69 1568.04 L1137.69 1562.63 Q1135.68 1565.88 1132.69 1567.44 Q1129.7 1568.97 1125.37 1568.97 Q1119.89 1568.97 1116.65 1565.91 Q1113.43 1562.82 1113.43 1557.67 Q1113.43 1551.65 1117.44 1548.6 Q1121.49 1545.54 1129.47 1545.54 L1137.69 1545.54 L1137.69 1544.97 Q1137.69 1540.93 1135.01 1538.73 Q1132.37 1536.5 1127.56 1536.5 Q1124.51 1536.5 1121.61 1537.23 Q1118.72 1537.97 1116.04 1539.43 L1116.04 1534.02 Q1119.26 1532.78 1122.28 1532.17 Q1125.31 1531.54 1128.17 1531.54 Q1135.9 1531.54 1139.72 1535.55 Q1143.54 1539.56 1143.54 1547.71 Z" fill="#000000" fill-rule="nonzero" fill-opacity="1" /><path clip-path="url(#clip800)" d="M1155.61 1518.52 L1161.46 1518.52 L1161.46 1568.04 L1155.61 1568.04 L1155.61 1518.52 Z" fill="#000000" fill-rule="nonzero" fill-opacity="1" /><path clip-path="url(#clip800)" d="M1173.72 1518.52 L1179.57 1518.52 L1179.57 1568.04 L1173.72 1568.04 L1173.72 1518.52 Z" fill="#000000" fill-rule="nonzero" fill-opacity="1" /><path clip-path="url(#clip800)" d="M1217.48 1533.76 L1217.48 1539.24 Q1215 1537.87 1212.48 1537.2 Q1210 1536.5 1207.45 1536.5 Q1201.76 1536.5 1198.61 1540.13 Q1195.46 1543.73 1195.46 1550.25 Q1195.46 1556.78 1198.61 1560.4 Q1201.76 1564 1207.45 1564 Q1210 1564 1212.48 1563.33 Q1215 1562.63 1217.48 1561.26 L1217.48 1566.68 Q1215.03 1567.82 1212.39 1568.39 Q1209.78 1568.97 1206.82 1568.97 Q1198.77 1568.97 1194.02 1563.91 Q1189.28 1558.85 1189.28 1550.25 Q1189.28 1541.53 1194.05 1536.53 Q1198.86 1531.54 1207.2 1531.54 Q1209.91 1531.54 1212.48 1532.11 Q1215.06 1532.65 1217.48 1533.76 Z" fill="#000000" fill-rule="nonzero" fill-opacity="1" /><path clip-path="url(#clip800)" d="M1227.67 1518.52 L1233.52 1518.52 L1233.52 1568.04 L1227.67 1568.04 L1227.67 1518.52 Z" fill="#000000" fill-rule="nonzero" fill-opacity="1" /><path clip-path="url(#clip800)" d="M1259.59 1536.5 Q1254.88 1536.5 1252.14 1540.19 Q1249.4 1543.85 1249.4 1550.25 Q1249.4 1556.65 1252.11 1560.34 Q1254.85 1564 1259.59 1564 Q1264.27 1564 1267.01 1560.31 Q1269.74 1556.62 1269.74 1550.25 Q1269.74 1543.92 1267.01 1540.23 Q1264.27 1536.5 1259.59 1536.5 M1259.59 1531.54 Q1267.23 1531.54 1271.59 1536.5 Q1275.95 1541.47 1275.95 1550.25 Q1275.95 1559 1271.59 1564 Q1267.23 1568.97 1259.59 1568.97 Q1251.92 1568.97 1247.56 1564 Q1243.23 1559 1243.23 1550.25 Q1243.23 1541.47 1247.56 1536.5 Q1251.92 1531.54 1259.59 1531.54 Z" fill="#000000" fill-rule="nonzero" fill-opacity="1" /><path clip-path="url(#clip800)" d="M1311.31 1533.76 L1311.31 1539.24 Q1308.83 1537.87 1306.31 1537.2 Q1303.83 1536.5 1301.28 1536.5 Q1295.59 1536.5 1292.44 1540.13 Q1289.29 1543.73 1289.29 1550.25 Q1289.29 1556.78 1292.44 1560.4 Q1295.59 1564 1301.28 1564 Q1303.83 1564 1306.31 1563.33 Q1308.83 1562.63 1311.31 1561.26 L1311.31 1566.68 Q1308.86 1567.82 1306.22 1568.39 Q1303.61 1568.97 1300.65 1568.97 Q1292.6 1568.97 1287.85 1563.91 Q1283.11 1558.85 1283.11 1550.25 Q1283.11 1541.53 1287.89 1536.53 Q1292.69 1531.54 1301.03 1531.54 Q1303.74 1531.54 1306.31 1532.11 Q1308.89 1532.65 1311.31 1533.76 Z" fill="#000000" fill-rule="nonzero" fill-opacity="1" /><path clip-path="url(#clip800)" d="M1321.27 1518.52 L1327.16 1518.52 L1327.16 1547.77 L1344.64 1532.4 L1352.12 1532.4 L1333.21 1549.07 L1352.91 1568.04 L1345.27 1568.04 L1327.16 1550.63 L1327.16 1568.04 L1321.27 1568.04 L1321.27 1518.52 Z" fill="#000000" fill-rule="nonzero" fill-opacity="1" /><path clip-path="url(#clip800)" d="M1373.63 1520.52 L1413.83 1520.52 L1413.83 1525.93 L1396.96 1525.93 L1396.96 1568.04 L1390.5 1568.04 L1390.5 1525.93 L1373.63 1525.93 L1373.63 1520.52 Z" fill="#000000" fill-rule="nonzero" fill-opacity="1" /><path clip-path="url(#clip800)" d="M1417.78 1532.4 L1423.63 1532.4 L1423.63 1568.04 L1417.78 1568.04 L1417.78 1532.4 M1417.78 1518.52 L1423.63 1518.52 L1423.63 1525.93 L1417.78 1525.93 L1417.78 1518.52 Z" fill="#000000" fill-rule="nonzero" fill-opacity="1" /><path clip-path="url(#clip800)" d="M1463.64 1539.24 Q1465.84 1535.29 1468.89 1533.41 Q1471.95 1531.54 1476.09 1531.54 Q1481.66 1531.54 1484.68 1535.45 Q1487.7 1539.33 1487.7 1546.53 L1487.7 1568.04 L1481.82 1568.04 L1481.82 1546.72 Q1481.82 1541.59 1480 1539.11 Q1478.19 1536.63 1474.46 1536.63 Q1469.91 1536.63 1467.27 1539.65 Q1464.63 1542.68 1464.63 1547.9 L1464.63 1568.04 L1458.74 1568.04 L1458.74 1546.72 Q1458.74 1541.56 1456.93 1539.11 Q1455.11 1536.63 1451.32 1536.63 Q1446.84 1536.63 1444.2 1539.68 Q1441.55 1542.71 1441.55 1547.9 L1441.55 1568.04 L1435.67 1568.04 L1435.67 1532.4 L1441.55 1532.4 L1441.55 1537.93 Q1443.56 1534.66 1446.36 1533.1 Q1449.16 1531.54 1453.01 1531.54 Q1456.89 1531.54 1459.6 1533.51 Q1462.34 1535.48 1463.64 1539.24 Z" fill="#000000" fill-rule="nonzero" fill-opacity="1" /><path clip-path="url(#clip800)" d="M1529.88 1548.76 L1529.88 1551.62 L1502.95 1551.62 Q1503.33 1557.67 1506.58 1560.85 Q1509.86 1564 1515.68 1564 Q1519.06 1564 1522.21 1563.17 Q1525.39 1562.35 1528.51 1560.69 L1528.51 1566.23 Q1525.36 1567.57 1522.05 1568.27 Q1518.74 1568.97 1515.33 1568.97 Q1506.8 1568.97 1501.8 1564 Q1496.84 1559.04 1496.84 1550.57 Q1496.84 1541.82 1501.55 1536.69 Q1506.29 1531.54 1514.31 1531.54 Q1521.51 1531.54 1525.68 1536.18 Q1529.88 1540.8 1529.88 1548.76 M1524.02 1547.04 Q1523.96 1542.23 1521.32 1539.37 Q1518.71 1536.5 1514.38 1536.5 Q1509.48 1536.5 1506.52 1539.27 Q1503.59 1542.04 1503.14 1547.07 L1524.02 1547.04 Z" fill="#000000" fill-rule="nonzero" fill-opacity="1" /><path clip-path="url(#clip800)" d="M1574.28 1518.58 Q1570.01 1525.9 1567.94 1533.06 Q1565.88 1540.23 1565.88 1547.58 Q1565.88 1554.93 1567.94 1562.16 Q1570.05 1569.35 1574.28 1576.64 L1569.19 1576.64 Q1564.41 1569.16 1562.02 1561.93 Q1559.67 1554.71 1559.67 1547.58 Q1559.67 1540.48 1562.02 1533.29 Q1564.38 1526.09 1569.19 1518.58 L1574.28 1518.58 Z" fill="#000000" fill-rule="nonzero" fill-opacity="1" /><path clip-path="url(#clip800)" d="M1608.37 1533.45 L1608.37 1538.98 Q1605.88 1537.71 1603.21 1537.07 Q1600.54 1536.44 1597.67 1536.44 Q1593.31 1536.44 1591.12 1537.77 Q1588.95 1539.11 1588.95 1541.79 Q1588.95 1543.82 1590.51 1545 Q1592.07 1546.15 1596.78 1547.2 L1598.79 1547.64 Q1605.02 1548.98 1607.63 1551.43 Q1610.28 1553.85 1610.28 1558.21 Q1610.28 1563.17 1606.33 1566.07 Q1602.41 1568.97 1595.54 1568.97 Q1592.68 1568.97 1589.56 1568.39 Q1586.47 1567.85 1583.03 1566.74 L1583.03 1560.69 Q1586.28 1562.38 1589.43 1563.24 Q1592.58 1564.07 1595.67 1564.07 Q1599.8 1564.07 1602.03 1562.66 Q1604.26 1561.23 1604.26 1558.65 Q1604.26 1556.27 1602.64 1554.99 Q1601.05 1553.72 1595.6 1552.54 L1593.57 1552.07 Q1588.12 1550.92 1585.7 1548.56 Q1583.29 1546.18 1583.29 1542.04 Q1583.29 1537.01 1586.85 1534.27 Q1590.42 1531.54 1596.97 1531.54 Q1600.22 1531.54 1603.08 1532.01 Q1605.95 1532.49 1608.37 1533.45 Z" fill="#000000" fill-rule="nonzero" fill-opacity="1" /><path clip-path="url(#clip800)" d="M1650.09 1548.76 L1650.09 1551.62 L1623.17 1551.62 Q1623.55 1557.67 1626.8 1560.85 Q1630.07 1564 1635.9 1564 Q1639.27 1564 1642.42 1563.17 Q1645.61 1562.35 1648.73 1560.69 L1648.73 1566.23 Q1645.57 1567.57 1642.26 1568.27 Q1638.95 1568.97 1635.55 1568.97 Q1627.02 1568.97 1622.02 1564 Q1617.06 1559.04 1617.06 1550.57 Q1617.06 1541.82 1621.77 1536.69 Q1626.51 1531.54 1634.53 1531.54 Q1641.72 1531.54 1645.89 1536.18 Q1650.09 1540.8 1650.09 1548.76 M1644.24 1547.04 Q1644.17 1542.23 1641.53 1539.37 Q1638.92 1536.5 1634.59 1536.5 Q1629.69 1536.5 1626.73 1539.27 Q1623.8 1542.04 1623.36 1547.07 L1644.24 1547.04 Z" fill="#000000" fill-rule="nonzero" fill-opacity="1" /><path clip-path="url(#clip800)" d="M1685.36 1533.76 L1685.36 1539.24 Q1682.88 1537.87 1680.36 1537.2 Q1677.88 1536.5 1675.33 1536.5 Q1669.64 1536.5 1666.49 1540.13 Q1663.33 1543.73 1663.33 1550.25 Q1663.33 1556.78 1666.49 1560.4 Q1669.64 1564 1675.33 1564 Q1677.88 1564 1680.36 1563.33 Q1682.88 1562.63 1685.36 1561.26 L1685.36 1566.68 Q1682.91 1567.82 1680.27 1568.39 Q1677.66 1568.97 1674.7 1568.97 Q1666.64 1568.97 1661.9 1563.91 Q1657.16 1558.85 1657.16 1550.25 Q1657.16 1541.53 1661.93 1536.53 Q1666.74 1531.54 1675.08 1531.54 Q1677.78 1531.54 1680.36 1532.11 Q1682.94 1532.65 1685.36 1533.76 Z" fill="#000000" fill-rule="nonzero" fill-opacity="1" /><path clip-path="url(#clip800)" d="M1694.62 1518.58 L1699.71 1518.58 Q1704.49 1526.09 1706.84 1533.29 Q1709.23 1540.48 1709.23 1547.58 Q1709.23 1554.71 1706.84 1561.93 Q1704.49 1569.16 1699.71 1576.64 L1694.62 1576.64 Q1698.86 1569.35 1700.92 1562.16 Q1703.02 1554.93 1703.02 1547.58 Q1703.02 1540.23 1700.92 1533.06 Q1698.86 1525.9 1694.62 1518.58 Z" fill="#000000" fill-rule="nonzero" fill-opacity="1" /><polyline clip-path="url(#clip800)" style="stroke:#000000; stroke-linecap:round; stroke-linejoin:round; stroke-width:4; stroke-opacity:1; fill:none" points="407.875,1423.18 407.875,47.2441 "/>
<polyline clip-path="url(#clip800)" style="stroke:#000000; stroke-linecap:round; stroke-linejoin:round; stroke-width:4; stroke-opacity:1; fill:none" points="407.875,1198.6 426.772,1198.6 "/>
<polyline clip-path="url(#clip800)" style="stroke:#000000; stroke-linecap:round; stroke-linejoin:round; stroke-width:4; stroke-opacity:1; fill:none" points="407.875,929.615 426.772,929.615 "/>
<polyline clip-path="url(#clip800)" style="stroke:#000000; stroke-linecap:round; stroke-linejoin:round; stroke-width:4; stroke-opacity:1; fill:none" points="407.875,660.632 426.772,660.632 "/>
<polyline clip-path="url(#clip800)" style="stroke:#000000; stroke-linecap:round; stroke-linejoin:round; stroke-width:4; stroke-opacity:1; fill:none" points="407.875,391.649 426.772,391.649 "/>
<polyline clip-path="url(#clip800)" style="stroke:#000000; stroke-linecap:round; stroke-linejoin:round; stroke-width:4; stroke-opacity:1; fill:none" points="407.875,122.667 426.772,122.667 "/>
<path clip-path="url(#clip800)" d="M114.26 1205.5 L143.936 1205.5 L143.936 1209.43 L114.26 1209.43 L114.26 1205.5 Z" fill="#000000" fill-rule="nonzero" fill-opacity="1" /><path clip-path="url(#clip800)" d="M154.839 1218.39 L162.477 1218.39 L162.477 1192.02 L154.167 1193.69 L154.167 1189.43 L162.431 1187.76 L167.107 1187.76 L167.107 1218.39 L174.746 1218.39 L174.746 1222.32 L154.839 1222.32 L154.839 1218.39 Z" fill="#000000" fill-rule="nonzero" fill-opacity="1" /><path clip-path="url(#clip800)" d="M184.19 1216.45 L189.075 1216.45 L189.075 1222.32 L184.19 1222.32 L184.19 1216.45 Z" fill="#000000" fill-rule="nonzero" fill-opacity="1" /><path clip-path="url(#clip800)" d="M209.26 1205.91 Q205.926 1205.91 204.005 1207.7 Q202.107 1209.48 202.107 1212.6 Q202.107 1215.73 204.005 1217.51 Q205.926 1219.29 209.26 1219.29 Q212.593 1219.29 214.514 1217.51 Q216.436 1215.7 216.436 1212.6 Q216.436 1209.48 214.514 1207.7 Q212.616 1205.91 209.26 1205.91 M204.584 1203.92 Q201.575 1203.18 199.885 1201.12 Q198.218 1199.06 198.218 1196.1 Q198.218 1191.95 201.158 1189.55 Q204.121 1187.14 209.26 1187.14 Q214.422 1187.14 217.361 1189.55 Q220.301 1191.95 220.301 1196.1 Q220.301 1199.06 218.611 1201.12 Q216.945 1203.18 213.959 1203.92 Q217.338 1204.71 219.213 1207 Q221.111 1209.29 221.111 1212.6 Q221.111 1217.63 218.033 1220.31 Q214.977 1223 209.26 1223 Q203.542 1223 200.463 1220.31 Q197.408 1217.63 197.408 1212.6 Q197.408 1209.29 199.306 1207 Q201.204 1204.71 204.584 1203.92 M202.871 1196.54 Q202.871 1199.22 204.537 1200.73 Q206.227 1202.23 209.26 1202.23 Q212.269 1202.23 213.959 1200.73 Q215.672 1199.22 215.672 1196.54 Q215.672 1193.85 213.959 1192.35 Q212.269 1190.84 209.26 1190.84 Q206.227 1190.84 204.537 1192.35 Q202.871 1193.85 202.871 1196.54 Z" fill="#000000" fill-rule="nonzero" fill-opacity="1" /><path clip-path="url(#clip800)" d="M239.422 1190.84 Q235.81 1190.84 233.982 1194.41 Q232.176 1197.95 232.176 1205.08 Q232.176 1212.19 233.982 1215.75 Q235.81 1219.29 239.422 1219.29 Q243.056 1219.29 244.861 1215.75 Q246.69 1212.19 246.69 1205.08 Q246.69 1197.95 244.861 1194.41 Q243.056 1190.84 239.422 1190.84 M239.422 1187.14 Q245.232 1187.14 248.287 1191.75 Q251.366 1196.33 251.366 1205.08 Q251.366 1213.81 248.287 1218.41 Q245.232 1223 239.422 1223 Q233.611 1223 230.533 1218.41 Q227.477 1213.81 227.477 1205.08 Q227.477 1196.33 230.533 1191.75 Q233.611 1187.14 239.422 1187.14 Z" fill="#000000" fill-rule="nonzero" fill-opacity="1" /><path clip-path="url(#clip800)" d="M287.755 1196.86 L277.176 1207.49 L287.755 1218.07 L285 1220.87 L274.375 1210.24 L263.75 1220.87 L261.019 1218.07 L271.574 1207.49 L261.019 1196.86 L263.75 1194.06 L274.375 1204.69 L285 1194.06 L287.755 1196.86 Z" fill="#000000" fill-rule="nonzero" fill-opacity="1" /><path clip-path="url(#clip800)" d="M300.116 1218.39 L307.754 1218.39 L307.754 1192.02 L299.444 1193.69 L299.444 1189.43 L307.708 1187.76 L312.384 1187.76 L312.384 1218.39 L320.023 1218.39 L320.023 1222.32 L300.116 1222.32 L300.116 1218.39 Z" fill="#000000" fill-rule="nonzero" fill-opacity="1" /><path clip-path="url(#clip800)" d="M339.467 1190.84 Q335.856 1190.84 334.027 1194.41 Q332.222 1197.95 332.222 1205.08 Q332.222 1212.19 334.027 1215.75 Q335.856 1219.29 339.467 1219.29 Q343.102 1219.29 344.907 1215.75 Q346.736 1212.19 346.736 1205.08 Q346.736 1197.95 344.907 1194.41 Q343.102 1190.84 339.467 1190.84 M339.467 1187.14 Q345.277 1187.14 348.333 1191.75 Q351.412 1196.33 351.412 1205.08 Q351.412 1213.81 348.333 1218.41 Q345.277 1223 339.467 1223 Q333.657 1223 330.578 1218.41 Q327.523 1213.81 327.523 1205.08 Q327.523 1196.33 330.578 1191.75 Q333.657 1187.14 339.467 1187.14 Z" fill="#000000" fill-rule="nonzero" fill-opacity="1" /><path clip-path="url(#clip800)" d="M364.088 1170.14 L354.496 1185.13 L364.088 1185.13 L364.088 1170.14 M363.091 1166.83 L367.868 1166.83 L367.868 1185.13 L371.875 1185.13 L371.875 1188.29 L367.868 1188.29 L367.868 1194.91 L364.088 1194.91 L364.088 1188.29 L351.412 1188.29 L351.412 1184.63 L363.091 1166.83 Z" fill="#000000" fill-rule="nonzero" fill-opacity="1" /><path clip-path="url(#clip800)" d="M114.26 936.514 L143.936 936.514 L143.936 940.449 L114.26 940.449 L114.26 936.514 Z" fill="#000000" fill-rule="nonzero" fill-opacity="1" /><path clip-path="url(#clip800)" d="M154.839 949.407 L162.477 949.407 L162.477 923.041 L154.167 924.708 L154.167 920.449 L162.431 918.782 L167.107 918.782 L167.107 949.407 L174.746 949.407 L174.746 953.342 L154.839 953.342 L154.839 949.407 Z" fill="#000000" fill-rule="nonzero" fill-opacity="1" /><path clip-path="url(#clip800)" d="M184.19 947.463 L189.075 947.463 L189.075 953.342 L184.19 953.342 L184.19 947.463 Z" fill="#000000" fill-rule="nonzero" fill-opacity="1" /><path clip-path="url(#clip800)" d="M199.306 918.782 L217.662 918.782 L217.662 922.717 L203.588 922.717 L203.588 931.19 Q204.607 930.842 205.625 930.68 Q206.644 930.495 207.662 930.495 Q213.449 930.495 216.829 933.666 Q220.209 936.838 220.209 942.254 Q220.209 947.833 216.736 950.935 Q213.264 954.014 206.945 954.014 Q204.769 954.014 202.5 953.643 Q200.255 953.273 197.848 952.532 L197.848 947.833 Q199.931 948.967 202.153 949.523 Q204.375 950.078 206.852 950.078 Q210.857 950.078 213.195 947.972 Q215.533 945.865 215.533 942.254 Q215.533 938.643 213.195 936.537 Q210.857 934.43 206.852 934.43 Q204.977 934.43 203.102 934.847 Q201.25 935.264 199.306 936.143 L199.306 918.782 Z" fill="#000000" fill-rule="nonzero" fill-opacity="1" /><path clip-path="url(#clip800)" d="M239.422 921.861 Q235.81 921.861 233.982 925.426 Q232.176 928.967 232.176 936.097 Q232.176 943.203 233.982 946.768 Q235.81 950.31 239.422 950.31 Q243.056 950.31 244.861 946.768 Q246.69 943.203 246.69 936.097 Q246.69 928.967 244.861 925.426 Q243.056 921.861 239.422 921.861 M239.422 918.157 Q245.232 918.157 248.287 922.764 Q251.366 927.347 251.366 936.097 Q251.366 944.824 248.287 949.43 Q245.232 954.014 239.422 954.014 Q233.611 954.014 230.533 949.43 Q227.477 944.824 227.477 936.097 Q227.477 927.347 230.533 922.764 Q233.611 918.157 239.422 918.157 Z" fill="#000000" fill-rule="nonzero" fill-opacity="1" /><path clip-path="url(#clip800)" d="M287.755 927.879 L277.176 938.504 L287.755 949.083 L285 951.884 L274.375 941.259 L263.75 951.884 L261.019 949.083 L271.574 938.504 L261.019 927.879 L263.75 925.078 L274.375 935.703 L285 925.078 L287.755 927.879 Z" fill="#000000" fill-rule="nonzero" fill-opacity="1" /><path clip-path="url(#clip800)" d="M300.116 949.407 L307.754 949.407 L307.754 923.041 L299.444 924.708 L299.444 920.449 L307.708 918.782 L312.384 918.782 L312.384 949.407 L320.023 949.407 L320.023 953.342 L300.116 953.342 L300.116 949.407 Z" fill="#000000" fill-rule="nonzero" fill-opacity="1" /><path clip-path="url(#clip800)" d="M339.467 921.861 Q335.856 921.861 334.027 925.426 Q332.222 928.967 332.222 936.097 Q332.222 943.203 334.027 946.768 Q335.856 950.31 339.467 950.31 Q343.102 950.31 344.907 946.768 Q346.736 943.203 346.736 936.097 Q346.736 928.967 344.907 925.426 Q343.102 921.861 339.467 921.861 M339.467 918.157 Q345.277 918.157 348.333 922.764 Q351.412 927.347 351.412 936.097 Q351.412 944.824 348.333 949.43 Q345.277 954.014 339.467 954.014 Q333.657 954.014 330.578 949.43 Q327.523 944.824 327.523 936.097 Q327.523 927.347 330.578 922.764 Q333.657 918.157 339.467 918.157 Z" fill="#000000" fill-rule="nonzero" fill-opacity="1" /><path clip-path="url(#clip800)" d="M364.088 901.162 L354.496 916.152 L364.088 916.152 L364.088 901.162 M363.091 897.852 L367.868 897.852 L367.868 916.152 L371.875 916.152 L371.875 919.311 L367.868 919.311 L367.868 925.932 L364.088 925.932 L364.088 919.311 L351.412 919.311 L351.412 915.644 L363.091 897.852 Z" fill="#000000" fill-rule="nonzero" fill-opacity="1" /><path clip-path="url(#clip800)" d="M114.26 667.531 L143.936 667.531 L143.936 671.466 L114.26 671.466 L114.26 667.531 Z" fill="#000000" fill-rule="nonzero" fill-opacity="1" /><path clip-path="url(#clip800)" d="M154.839 680.424 L162.477 680.424 L162.477 654.059 L154.167 655.725 L154.167 651.466 L162.431 649.8 L167.107 649.8 L167.107 680.424 L174.746 680.424 L174.746 684.36 L154.839 684.36 L154.839 680.424 Z" fill="#000000" fill-rule="nonzero" fill-opacity="1" /><path clip-path="url(#clip800)" d="M184.19 678.48 L189.075 678.48 L189.075 684.36 L184.19 684.36 L184.19 678.48 Z" fill="#000000" fill-rule="nonzero" fill-opacity="1" /><path clip-path="url(#clip800)" d="M203.287 680.424 L219.607 680.424 L219.607 684.36 L197.662 684.36 L197.662 680.424 Q200.325 677.67 204.908 673.04 Q209.514 668.387 210.695 667.045 Q212.94 664.522 213.82 662.786 Q214.723 661.026 214.723 659.337 Q214.723 656.582 212.778 654.846 Q210.857 653.11 207.755 653.11 Q205.556 653.11 203.102 653.874 Q200.672 654.637 197.894 656.188 L197.894 651.466 Q200.718 650.332 203.172 649.753 Q205.625 649.175 207.662 649.175 Q213.033 649.175 216.227 651.86 Q219.422 654.545 219.422 659.036 Q219.422 661.165 218.611 663.086 Q217.824 664.985 215.718 667.577 Q215.139 668.248 212.037 671.466 Q208.936 674.661 203.287 680.424 Z" fill="#000000" fill-rule="nonzero" fill-opacity="1" /><path clip-path="url(#clip800)" d="M239.422 652.878 Q235.81 652.878 233.982 656.443 Q232.176 659.985 232.176 667.114 Q232.176 674.221 233.982 677.785 Q235.81 681.327 239.422 681.327 Q243.056 681.327 244.861 677.785 Q246.69 674.221 246.69 667.114 Q246.69 659.985 244.861 656.443 Q243.056 652.878 239.422 652.878 M239.422 649.175 Q245.232 649.175 248.287 653.781 Q251.366 658.364 251.366 667.114 Q251.366 675.841 248.287 680.448 Q245.232 685.031 239.422 685.031 Q233.611 685.031 230.533 680.448 Q227.477 675.841 227.477 667.114 Q227.477 658.364 230.533 653.781 Q233.611 649.175 239.422 649.175 Z" fill="#000000" fill-rule="nonzero" fill-opacity="1" /><path clip-path="url(#clip800)" d="M287.755 658.897 L277.176 669.522 L287.755 680.1 L285 682.901 L274.375 672.276 L263.75 682.901 L261.019 680.1 L271.574 669.522 L261.019 658.897 L263.75 656.096 L274.375 666.721 L285 656.096 L287.755 658.897 Z" fill="#000000" fill-rule="nonzero" fill-opacity="1" /><path clip-path="url(#clip800)" d="M300.116 680.424 L307.754 680.424 L307.754 654.059 L299.444 655.725 L299.444 651.466 L307.708 649.8 L312.384 649.8 L312.384 680.424 L320.023 680.424 L320.023 684.36 L300.116 684.36 L300.116 680.424 Z" fill="#000000" fill-rule="nonzero" fill-opacity="1" /><path clip-path="url(#clip800)" d="M339.467 652.878 Q335.856 652.878 334.027 656.443 Q332.222 659.985 332.222 667.114 Q332.222 674.221 334.027 677.785 Q335.856 681.327 339.467 681.327 Q343.102 681.327 344.907 677.785 Q346.736 674.221 346.736 667.114 Q346.736 659.985 344.907 656.443 Q343.102 652.878 339.467 652.878 M339.467 649.175 Q345.277 649.175 348.333 653.781 Q351.412 658.364 351.412 667.114 Q351.412 675.841 348.333 680.448 Q345.277 685.031 339.467 685.031 Q333.657 685.031 330.578 680.448 Q327.523 675.841 327.523 667.114 Q327.523 658.364 330.578 653.781 Q333.657 649.175 339.467 649.175 Z" fill="#000000" fill-rule="nonzero" fill-opacity="1" /><path clip-path="url(#clip800)" d="M364.088 632.179 L354.496 647.169 L364.088 647.169 L364.088 632.179 M363.091 628.869 L367.868 628.869 L367.868 647.169 L371.875 647.169 L371.875 650.329 L367.868 650.329 L367.868 656.949 L364.088 656.949 L364.088 650.329 L351.412 650.329 L351.412 646.661 L363.091 628.869 Z" fill="#000000" fill-rule="nonzero" fill-opacity="1" /><path clip-path="url(#clip800)" d="M116.235 398.548 L145.911 398.548 L145.911 402.483 L116.235 402.483 L116.235 398.548 Z" fill="#000000" fill-rule="nonzero" fill-opacity="1" /><path clip-path="url(#clip800)" d="M156.142 414.659 L156.142 410.4 Q157.901 411.233 159.707 411.673 Q161.513 412.113 163.249 412.113 Q167.878 412.113 170.309 409.011 Q172.762 405.886 173.11 399.544 Q171.767 401.534 169.707 402.599 Q167.647 403.664 165.147 403.664 Q159.962 403.664 156.929 400.539 Q153.92 397.391 153.92 391.951 Q153.92 386.627 157.068 383.409 Q160.216 380.192 165.448 380.192 Q171.443 380.192 174.591 384.798 Q177.762 389.382 177.762 398.132 Q177.762 406.303 173.874 411.187 Q170.008 416.048 163.457 416.048 Q161.698 416.048 159.892 415.701 Q158.087 415.354 156.142 414.659 M165.448 400.007 Q168.596 400.007 170.424 397.854 Q172.276 395.701 172.276 391.951 Q172.276 388.224 170.424 386.071 Q168.596 383.896 165.448 383.896 Q162.3 383.896 160.448 386.071 Q158.619 388.224 158.619 391.951 Q158.619 395.701 160.448 397.854 Q162.3 400.007 165.448 400.007 Z" fill="#000000" fill-rule="nonzero" fill-opacity="1" /><path clip-path="url(#clip800)" d="M186.165 409.497 L191.049 409.497 L191.049 415.377 L186.165 415.377 L186.165 409.497 Z" fill="#000000" fill-rule="nonzero" fill-opacity="1" /><path clip-path="url(#clip800)" d="M211.234 383.896 Q207.623 383.896 205.795 387.46 Q203.989 391.002 203.989 398.132 Q203.989 405.238 205.795 408.803 Q207.623 412.344 211.234 412.344 Q214.869 412.344 216.674 408.803 Q218.503 405.238 218.503 398.132 Q218.503 391.002 216.674 387.46 Q214.869 383.896 211.234 383.896 M211.234 380.192 Q217.045 380.192 220.1 384.798 Q223.179 389.382 223.179 398.132 Q223.179 406.858 220.1 411.465 Q217.045 416.048 211.234 416.048 Q205.424 416.048 202.346 411.465 Q199.29 406.858 199.29 398.132 Q199.29 389.382 202.346 384.798 Q205.424 380.192 211.234 380.192 Z" fill="#000000" fill-rule="nonzero" fill-opacity="1" /><path clip-path="url(#clip800)" d="M241.396 383.896 Q237.785 383.896 235.957 387.46 Q234.151 391.002 234.151 398.132 Q234.151 405.238 235.957 408.803 Q237.785 412.344 241.396 412.344 Q245.031 412.344 246.836 408.803 Q248.665 405.238 248.665 398.132 Q248.665 391.002 246.836 387.46 Q245.031 383.896 241.396 383.896 M241.396 380.192 Q247.206 380.192 250.262 384.798 Q253.341 389.382 253.341 398.132 Q253.341 406.858 250.262 411.465 Q247.206 416.048 241.396 416.048 Q235.586 416.048 232.507 411.465 Q229.452 406.858 229.452 398.132 Q229.452 389.382 232.507 384.798 Q235.586 380.192 241.396 380.192 Z" fill="#000000" fill-rule="nonzero" fill-opacity="1" /><path clip-path="url(#clip800)" d="M289.729 389.914 L279.151 400.539 L289.729 411.118 L286.975 413.919 L276.35 403.294 L265.725 413.919 L262.993 411.118 L273.549 400.539 L262.993 389.914 L265.725 387.113 L276.35 397.738 L286.975 387.113 L289.729 389.914 Z" fill="#000000" fill-rule="nonzero" fill-opacity="1" /><path clip-path="url(#clip800)" d="M302.09 411.442 L309.729 411.442 L309.729 385.076 L301.419 386.743 L301.419 382.483 L309.683 380.817 L314.359 380.817 L314.359 411.442 L321.998 411.442 L321.998 415.377 L302.09 415.377 L302.09 411.442 Z" fill="#000000" fill-rule="nonzero" fill-opacity="1" /><path clip-path="url(#clip800)" d="M341.442 383.896 Q337.831 383.896 336.002 387.46 Q334.197 391.002 334.197 398.132 Q334.197 405.238 336.002 408.803 Q337.831 412.344 341.442 412.344 Q345.076 412.344 346.882 408.803 Q348.711 405.238 348.711 398.132 Q348.711 391.002 346.882 387.46 Q345.076 383.896 341.442 383.896 M341.442 380.192 Q347.252 380.192 350.308 384.798 Q353.386 389.382 353.386 398.132 Q353.386 406.858 350.308 411.465 Q347.252 416.048 341.442 416.048 Q335.632 416.048 332.553 411.465 Q329.498 406.858 329.498 398.132 Q329.498 389.382 332.553 384.798 Q335.632 380.192 341.442 380.192 Z" fill="#000000" fill-rule="nonzero" fill-opacity="1" /><path clip-path="url(#clip800)" d="M366.082 372.826 Q368.809 373.409 370.332 375.252 Q371.875 377.096 371.875 379.804 Q371.875 383.96 369.016 386.236 Q366.157 388.512 360.891 388.512 Q359.123 388.512 357.242 388.155 Q355.38 387.816 353.386 387.12 L353.386 383.453 Q354.966 384.374 356.847 384.844 Q358.728 385.315 360.778 385.315 Q364.351 385.315 366.213 383.904 Q368.094 382.493 368.094 379.804 Q368.094 377.321 366.345 375.929 Q364.615 374.519 361.511 374.519 L358.239 374.519 L358.239 371.397 L361.662 371.397 Q364.464 371.397 365.95 370.287 Q367.436 369.159 367.436 367.052 Q367.436 364.889 365.894 363.742 Q364.37 362.576 361.511 362.576 Q359.95 362.576 358.164 362.914 Q356.377 363.253 354.233 363.968 L354.233 360.582 Q356.396 359.98 358.277 359.68 Q360.176 359.379 361.85 359.379 Q366.176 359.379 368.696 361.353 Q371.216 363.309 371.216 366.657 Q371.216 368.989 369.881 370.607 Q368.546 372.206 366.082 372.826 Z" fill="#000000" fill-rule="nonzero" fill-opacity="1" /><path clip-path="url(#clip800)" d="M116.235 129.566 L145.911 129.566 L145.911 133.501 L116.235 133.501 L116.235 129.566 Z" fill="#000000" fill-rule="nonzero" fill-opacity="1" /><path clip-path="url(#clip800)" d="M166.582 127.251 Q163.434 127.251 161.582 129.403 Q159.753 131.556 159.753 135.306 Q159.753 139.033 161.582 141.209 Q163.434 143.362 166.582 143.362 Q169.73 143.362 171.559 141.209 Q173.411 139.033 173.411 135.306 Q173.411 131.556 171.559 129.403 Q169.73 127.251 166.582 127.251 M175.864 112.598 L175.864 116.857 Q174.105 116.024 172.299 115.584 Q170.517 115.144 168.758 115.144 Q164.128 115.144 161.675 118.269 Q159.244 121.394 158.897 127.714 Q160.263 125.7 162.323 124.635 Q164.383 123.547 166.86 123.547 Q172.068 123.547 175.077 126.718 Q178.11 129.866 178.11 135.306 Q178.11 140.63 174.962 143.848 Q171.813 147.065 166.582 147.065 Q160.587 147.065 157.415 142.482 Q154.244 137.876 154.244 129.149 Q154.244 120.954 158.133 116.093 Q162.022 111.209 168.573 111.209 Q170.332 111.209 172.114 111.556 Q173.92 111.904 175.864 112.598 Z" fill="#000000" fill-rule="nonzero" fill-opacity="1" /><path clip-path="url(#clip800)" d="M186.165 140.515 L191.049 140.515 L191.049 146.394 L186.165 146.394 L186.165 140.515 Z" fill="#000000" fill-rule="nonzero" fill-opacity="1" /><path clip-path="url(#clip800)" d="M211.234 114.913 Q207.623 114.913 205.795 118.478 Q203.989 122.019 203.989 129.149 Q203.989 136.255 205.795 139.82 Q207.623 143.362 211.234 143.362 Q214.869 143.362 216.674 139.82 Q218.503 136.255 218.503 129.149 Q218.503 122.019 216.674 118.478 Q214.869 114.913 211.234 114.913 M211.234 111.209 Q217.045 111.209 220.1 115.816 Q223.179 120.399 223.179 129.149 Q223.179 137.876 220.1 142.482 Q217.045 147.065 211.234 147.065 Q205.424 147.065 202.346 142.482 Q199.29 137.876 199.29 129.149 Q199.29 120.399 202.346 115.816 Q205.424 111.209 211.234 111.209 Z" fill="#000000" fill-rule="nonzero" fill-opacity="1" /><path clip-path="url(#clip800)" d="M241.396 114.913 Q237.785 114.913 235.957 118.478 Q234.151 122.019 234.151 129.149 Q234.151 136.255 235.957 139.82 Q237.785 143.362 241.396 143.362 Q245.031 143.362 246.836 139.82 Q248.665 136.255 248.665 129.149 Q248.665 122.019 246.836 118.478 Q245.031 114.913 241.396 114.913 M241.396 111.209 Q247.206 111.209 250.262 115.816 Q253.341 120.399 253.341 129.149 Q253.341 137.876 250.262 142.482 Q247.206 147.065 241.396 147.065 Q235.586 147.065 232.507 142.482 Q229.452 137.876 229.452 129.149 Q229.452 120.399 232.507 115.816 Q235.586 111.209 241.396 111.209 Z" fill="#000000" fill-rule="nonzero" fill-opacity="1" /><path clip-path="url(#clip800)" d="M289.729 120.931 L279.151 131.556 L289.729 142.135 L286.975 144.936 L276.35 134.311 L265.725 144.936 L262.993 142.135 L273.549 131.556 L262.993 120.931 L265.725 118.13 L276.35 128.755 L286.975 118.13 L289.729 120.931 Z" fill="#000000" fill-rule="nonzero" fill-opacity="1" /><path clip-path="url(#clip800)" d="M302.09 142.459 L309.729 142.459 L309.729 116.093 L301.419 117.76 L301.419 113.501 L309.683 111.834 L314.359 111.834 L314.359 142.459 L321.998 142.459 L321.998 146.394 L302.09 146.394 L302.09 142.459 Z" fill="#000000" fill-rule="nonzero" fill-opacity="1" /><path clip-path="url(#clip800)" d="M341.442 114.913 Q337.831 114.913 336.002 118.478 Q334.197 122.019 334.197 129.149 Q334.197 136.255 336.002 139.82 Q337.831 143.362 341.442 143.362 Q345.076 143.362 346.882 139.82 Q348.711 136.255 348.711 129.149 Q348.711 122.019 346.882 118.478 Q345.076 114.913 341.442 114.913 M341.442 111.209 Q347.252 111.209 350.308 115.816 Q353.386 120.399 353.386 129.149 Q353.386 137.876 350.308 142.482 Q347.252 147.065 341.442 147.065 Q335.632 147.065 332.553 142.482 Q329.498 137.876 329.498 129.149 Q329.498 120.399 332.553 115.816 Q335.632 111.209 341.442 111.209 Z" fill="#000000" fill-rule="nonzero" fill-opacity="1" /><path clip-path="url(#clip800)" d="M366.082 103.843 Q368.809 104.427 370.332 106.27 Q371.875 108.113 371.875 110.821 Q371.875 114.978 369.016 117.253 Q366.157 119.529 360.891 119.529 Q359.123 119.529 357.242 119.172 Q355.38 118.833 353.386 118.137 L353.386 114.47 Q354.966 115.391 356.847 115.862 Q358.728 116.332 360.778 116.332 Q364.351 116.332 366.213 114.921 Q368.094 113.511 368.094 110.821 Q368.094 108.339 366.345 106.947 Q364.615 105.536 361.511 105.536 L358.239 105.536 L358.239 102.414 L361.662 102.414 Q364.464 102.414 365.95 101.304 Q367.436 100.176 367.436 98.0695 Q367.436 95.9066 365.894 94.7593 Q364.37 93.5932 361.511 93.5932 Q359.95 93.5932 358.164 93.9318 Q356.377 94.2703 354.233 94.985 L354.233 91.5996 Q356.396 90.9978 358.277 90.6968 Q360.176 90.3959 361.85 90.3959 Q366.176 90.3959 368.696 92.3707 Q371.216 94.3267 371.216 97.6745 Q371.216 100.007 369.881 101.624 Q368.546 103.223 366.082 103.843 Z" fill="#000000" fill-rule="nonzero" fill-opacity="1" /><path clip-path="url(#clip800)" d="M16.4842 816.375 L16.4842 786.329 L21.895 786.329 L21.895 809.945 L35.9632 809.945 L35.9632 787.315 L41.3741 787.315 L41.3741 809.945 L58.5933 809.945 L58.5933 785.756 L64.0042 785.756 L64.0042 816.375 L16.4842 816.375 Z" fill="#000000" fill-rule="nonzero" fill-opacity="1" /><path clip-path="url(#clip800)" d="M16.4842 775.189 L16.4842 768.759 L58.5933 768.759 L58.5933 745.62 L64.0042 745.62 L64.0042 775.189 L16.4842 775.189 Z" fill="#000000" fill-rule="nonzero" fill-opacity="1" /><path clip-path="url(#clip800)" d="M41.3104 732.443 L58.7206 732.443 L58.7206 722.13 Q58.7206 716.942 56.5881 714.46 Q54.4238 711.945 49.9996 711.945 Q45.5436 711.945 43.4429 714.46 Q41.3104 716.942 41.3104 722.13 L41.3104 732.443 M21.7677 732.443 L36.0905 732.443 L36.0905 722.926 Q36.0905 718.216 34.34 715.924 Q32.5576 713.6 28.9291 713.6 Q25.3325 713.6 23.5501 715.924 Q21.7677 718.216 21.7677 722.926 L21.7677 732.443 M16.4842 738.872 L16.4842 722.449 Q16.4842 715.096 19.5397 711.118 Q22.5952 707.139 28.2289 707.139 Q32.5894 707.139 35.1675 709.176 Q37.7456 711.213 38.3822 715.16 Q39.4007 710.418 42.6472 707.808 Q45.8619 705.166 50.6998 705.166 Q57.0655 705.166 60.5348 709.495 Q64.0042 713.823 64.0042 721.812 L64.0042 738.872 L16.4842 738.872 Z" fill="#000000" fill-rule="nonzero" fill-opacity="1" /><path clip-path="url(#clip800)" d="M20.8447 676.011 Q20.8447 683.013 26.0645 687.151 Q31.2844 691.257 40.2919 691.257 Q49.2675 691.257 54.4874 687.151 Q59.7073 683.013 59.7073 676.011 Q59.7073 669.009 54.4874 664.935 Q49.2675 660.829 40.2919 660.829 Q31.2844 660.829 26.0645 664.935 Q20.8447 669.009 20.8447 676.011 M15.6248 676.011 Q15.6248 666.017 22.3406 660.033 Q29.0246 654.049 40.2919 654.049 Q51.5274 654.049 58.2432 660.033 Q64.9272 666.017 64.9272 676.011 Q64.9272 686.037 58.2432 692.052 Q51.5592 698.036 40.2919 698.036 Q29.0246 698.036 22.3406 692.052 Q15.6248 686.037 15.6248 676.011 Z" fill="#000000" fill-rule="nonzero" fill-opacity="1" /><polyline clip-path="url(#clip801)" style="stroke:#009af9; stroke-linecap:round; stroke-linejoin:round; stroke-width:4; stroke-opacity:1; fill:none" points="515.03,1214.97 578.58,1013.95 636.787,480.868 693.541,283.456 750.336,226.558 808.072,205.794 867.739,187.118 924.675,175.846 987.431,163.778 1050.49,158.942 1106.32,152.23 1161.58,151.515 1217.09,147.356 1276.85,144.078 1332.32,139.851 1387.8,138.444 1443.81,132.89 1499.78,128.206 1556.22,127.232 1614.03,128.266 1671.58,123.339 1727.7,120.364 1783.27,119.314 1840.02,112.949 1896.7,113.404 1953.47,104.084 2010.77,100.759 2068.54,99.7651 2126.4,96.9244 2183.87,92.9313 2240.62,86.9807 2297.71,86.1857 "/>
<polyline clip-path="url(#clip801)" style="stroke:#e26f46; stroke-linecap:round; stroke-linejoin:round; stroke-width:4; stroke-opacity:1; fill:none" points="462.918,1384.24 486.37,608.591 494.884,481.279 503.316,305.979 515.174,244.815 524.342,214.258 532.979,197.659 541.605,185.641 550.226,172.725 559.074,178.93 567.656,173.624 576.263,168.722 584.869,160.116 593.734,160.703 602.334,153.562 610.913,150.898 619.476,153.317 628.07,146.573 636.917,141.556 645.487,141.161 654,137.173 662.546,136.874 671.423,131.036 679.969,126.094 688.542,125.132 697.034,125.206 705.816,118.55 714.325,112.593 722.867,112.925 731.36,106.946 739.887,108.379 748.687,107.442 "/>
<path clip-path="url(#clip800)" d="M1794.13 1377.32 L2287.93 1377.32 L2287.93 1221.8 L1794.13 1221.8  Z" fill="#ffffff" fill-rule="evenodd" fill-opacity="1"/>
<polyline clip-path="url(#clip800)" style="stroke:#000000; stroke-linecap:round; stroke-linejoin:round; stroke-width:4; stroke-opacity:1; fill:none" points="1794.13,1377.32 2287.93,1377.32 2287.93,1221.8 1794.13,1221.8 1794.13,1377.32 "/>
<polyline clip-path="url(#clip800)" style="stroke:#009af9; stroke-linecap:round; stroke-linejoin:round; stroke-width:4; stroke-opacity:1; fill:none" points="1815.74,1273.64 1945.4,1273.64 "/>
<path clip-path="url(#clip800)" d="M1967.01 1256.36 L1986.87 1256.36 L1986.87 1260.29 L1971.69 1260.29 L1971.69 1270.48 L1985.39 1270.48 L1985.39 1274.41 L1971.69 1274.41 L1971.69 1290.92 L1967.01 1290.92 L1967.01 1256.36 Z" fill="#000000" fill-rule="nonzero" fill-opacity="1" /><path clip-path="url(#clip800)" d="M1991.06 1280.68 L1991.06 1264.99 L1995.32 1264.99 L1995.32 1280.52 Q1995.32 1284.2 1996.76 1286.05 Q1998.19 1287.88 2001.06 1287.88 Q2004.51 1287.88 2006.5 1285.68 Q2008.52 1283.48 2008.52 1279.69 L2008.52 1264.99 L2012.78 1264.99 L2012.78 1290.92 L2008.52 1290.92 L2008.52 1286.93 Q2006.97 1289.29 2004.91 1290.45 Q2002.87 1291.59 2000.16 1291.59 Q1995.69 1291.59 1993.38 1288.81 Q1991.06 1286.03 1991.06 1280.68 M2001.78 1264.36 L2001.78 1264.36 Z" fill="#000000" fill-rule="nonzero" fill-opacity="1" /><path clip-path="url(#clip800)" d="M2021.55 1254.9 L2025.81 1254.9 L2025.81 1290.92 L2021.55 1290.92 L2021.55 1254.9 Z" fill="#000000" fill-rule="nonzero" fill-opacity="1" /><path clip-path="url(#clip800)" d="M2034.72 1254.9 L2038.98 1254.9 L2038.98 1290.92 L2034.72 1290.92 L2034.72 1254.9 Z" fill="#000000" fill-rule="nonzero" fill-opacity="1" /><path clip-path="url(#clip800)" d="M2067.82 1274.41 L2067.82 1287.07 L2075.32 1287.07 Q2079.1 1287.07 2080.9 1285.52 Q2082.73 1283.95 2082.73 1280.73 Q2082.73 1277.49 2080.9 1275.96 Q2079.1 1274.41 2075.32 1274.41 L2067.82 1274.41 M2067.82 1260.2 L2067.82 1270.61 L2074.74 1270.61 Q2078.17 1270.61 2079.84 1269.34 Q2081.53 1268.05 2081.53 1265.41 Q2081.53 1262.79 2079.84 1261.49 Q2078.17 1260.2 2074.74 1260.2 L2067.82 1260.2 M2063.15 1256.36 L2075.09 1256.36 Q2080.44 1256.36 2083.33 1258.58 Q2086.23 1260.8 2086.23 1264.9 Q2086.23 1268.07 2084.74 1269.94 Q2083.26 1271.82 2080.39 1272.28 Q2083.84 1273.02 2085.74 1275.38 Q2087.66 1277.72 2087.66 1281.24 Q2087.66 1285.87 2084.51 1288.39 Q2081.36 1290.92 2075.55 1290.92 L2063.15 1290.92 L2063.15 1256.36 Z" fill="#000000" fill-rule="nonzero" fill-opacity="1" /><path clip-path="url(#clip800)" d="M2107.27 1277.88 Q2102.1 1277.88 2100.11 1279.06 Q2098.12 1280.24 2098.12 1283.09 Q2098.12 1285.36 2099.6 1286.7 Q2101.11 1288.02 2103.68 1288.02 Q2107.22 1288.02 2109.35 1285.52 Q2111.5 1283 2111.5 1278.83 L2111.5 1277.88 L2107.27 1277.88 M2115.76 1276.12 L2115.76 1290.92 L2111.5 1290.92 L2111.5 1286.98 Q2110.04 1289.34 2107.87 1290.48 Q2105.69 1291.59 2102.54 1291.59 Q2098.56 1291.59 2096.2 1289.36 Q2093.86 1287.12 2093.86 1283.37 Q2093.86 1278.99 2096.78 1276.77 Q2099.72 1274.55 2105.53 1274.55 L2111.5 1274.55 L2111.5 1274.13 Q2111.5 1271.19 2109.56 1269.6 Q2107.64 1267.98 2104.14 1267.98 Q2101.92 1267.98 2099.81 1268.51 Q2097.71 1269.04 2095.76 1270.11 L2095.76 1266.17 Q2098.1 1265.27 2100.3 1264.83 Q2102.5 1264.36 2104.58 1264.36 Q2110.21 1264.36 2112.98 1267.28 Q2115.76 1270.2 2115.76 1276.12 Z" fill="#000000" fill-rule="nonzero" fill-opacity="1" /><path clip-path="url(#clip800)" d="M2128.75 1257.63 L2128.75 1264.99 L2137.52 1264.99 L2137.52 1268.3 L2128.75 1268.3 L2128.75 1282.37 Q2128.75 1285.54 2129.6 1286.45 Q2130.48 1287.35 2133.15 1287.35 L2137.52 1287.35 L2137.52 1290.92 L2133.15 1290.92 Q2128.22 1290.92 2126.34 1289.09 Q2124.47 1287.23 2124.47 1282.37 L2124.47 1268.3 L2121.34 1268.3 L2121.34 1264.99 L2124.47 1264.99 L2124.47 1257.63 L2128.75 1257.63 Z" fill="#000000" fill-rule="nonzero" fill-opacity="1" /><path clip-path="url(#clip800)" d="M2161.78 1265.98 L2161.78 1269.97 Q2159.97 1268.97 2158.15 1268.48 Q2156.34 1267.98 2154.49 1267.98 Q2150.35 1267.98 2148.05 1270.61 Q2145.76 1273.23 2145.76 1277.98 Q2145.76 1282.72 2148.05 1285.36 Q2150.35 1287.98 2154.49 1287.98 Q2156.34 1287.98 2158.15 1287.49 Q2159.97 1286.98 2161.78 1285.98 L2161.78 1289.92 Q2160 1290.75 2158.08 1291.17 Q2156.18 1291.59 2154.03 1291.59 Q2148.17 1291.59 2144.72 1287.91 Q2141.27 1284.23 2141.27 1277.98 Q2141.27 1271.63 2144.74 1268 Q2148.24 1264.36 2154.3 1264.36 Q2156.27 1264.36 2158.15 1264.78 Q2160.02 1265.17 2161.78 1265.98 Z" fill="#000000" fill-rule="nonzero" fill-opacity="1" /><path clip-path="url(#clip800)" d="M2190.74 1275.27 L2190.74 1290.92 L2186.48 1290.92 L2186.48 1275.41 Q2186.48 1271.73 2185.04 1269.9 Q2183.61 1268.07 2180.74 1268.07 Q2177.29 1268.07 2175.3 1270.27 Q2173.31 1272.47 2173.31 1276.26 L2173.31 1290.92 L2169.03 1290.92 L2169.03 1254.9 L2173.31 1254.9 L2173.31 1269.02 Q2174.84 1266.68 2176.9 1265.52 Q2178.98 1264.36 2181.69 1264.36 Q2186.16 1264.36 2188.45 1267.14 Q2190.74 1269.9 2190.74 1275.27 Z" fill="#000000" fill-rule="nonzero" fill-opacity="1" /><polyline clip-path="url(#clip800)" style="stroke:#e26f46; stroke-linecap:round; stroke-linejoin:round; stroke-width:4; stroke-opacity:1; fill:none" points="1815.74,1325.48 1945.4,1325.48 "/>
<path clip-path="url(#clip800)" d="M1989.26 1309.33 L1989.26 1313.89 Q1986.6 1312.62 1984.23 1311.99 Q1981.87 1311.37 1979.67 1311.37 Q1975.86 1311.37 1973.77 1312.85 Q1971.71 1314.33 1971.71 1317.06 Q1971.71 1319.35 1973.08 1320.53 Q1974.47 1321.69 1978.31 1322.41 L1981.13 1322.99 Q1986.36 1323.98 1988.84 1326.51 Q1991.34 1329.01 1991.34 1333.22 Q1991.34 1338.24 1987.96 1340.83 Q1984.61 1343.43 1978.1 1343.43 Q1975.65 1343.43 1972.87 1342.87 Q1970.11 1342.32 1967.15 1341.23 L1967.15 1336.41 Q1970 1338.01 1972.73 1338.82 Q1975.46 1339.63 1978.1 1339.63 Q1982.11 1339.63 1984.28 1338.06 Q1986.46 1336.48 1986.46 1333.57 Q1986.46 1331.02 1984.88 1329.58 Q1983.33 1328.15 1979.77 1327.43 L1976.92 1326.88 Q1971.69 1325.83 1969.35 1323.61 Q1967.01 1321.39 1967.01 1317.43 Q1967.01 1312.85 1970.23 1310.21 Q1973.47 1307.57 1979.14 1307.57 Q1981.57 1307.57 1984.1 1308.01 Q1986.62 1308.45 1989.26 1309.33 Z" fill="#000000" fill-rule="nonzero" fill-opacity="1" /><path clip-path="url(#clip800)" d="M1998.01 1332.52 L1998.01 1316.83 L2002.27 1316.83 L2002.27 1332.36 Q2002.27 1336.04 2003.7 1337.89 Q2005.14 1339.72 2008.01 1339.72 Q2011.46 1339.72 2013.45 1337.52 Q2015.46 1335.32 2015.46 1331.53 L2015.46 1316.83 L2019.72 1316.83 L2019.72 1342.76 L2015.46 1342.76 L2015.46 1338.77 Q2013.91 1341.13 2011.85 1342.29 Q2009.81 1343.43 2007.11 1343.43 Q2002.64 1343.43 2000.32 1340.65 Q1998.01 1337.87 1998.01 1332.52 M2008.73 1316.2 L2008.73 1316.2 Z" fill="#000000" fill-rule="nonzero" fill-opacity="1" /><path clip-path="url(#clip800)" d="M2047.1 1329.82 Q2047.1 1325.12 2045.16 1322.45 Q2043.24 1319.77 2039.86 1319.77 Q2036.48 1319.77 2034.54 1322.45 Q2032.61 1325.12 2032.61 1329.82 Q2032.61 1334.51 2034.54 1337.2 Q2036.48 1339.86 2039.86 1339.86 Q2043.24 1339.86 2045.16 1337.2 Q2047.1 1334.51 2047.1 1329.82 M2032.61 1320.76 Q2033.96 1318.45 2035.99 1317.34 Q2038.05 1316.2 2040.9 1316.2 Q2045.62 1316.2 2048.56 1319.95 Q2051.53 1323.7 2051.53 1329.82 Q2051.53 1335.93 2048.56 1339.68 Q2045.62 1343.43 2040.9 1343.43 Q2038.05 1343.43 2035.99 1342.32 Q2033.96 1341.18 2032.61 1338.87 L2032.61 1342.76 L2028.33 1342.76 L2028.33 1306.74 L2032.61 1306.74 L2032.61 1320.76 Z" fill="#000000" fill-rule="nonzero" fill-opacity="1" /><path clip-path="url(#clip800)" d="M2075.11 1317.59 L2075.11 1321.62 Q2073.31 1320.7 2071.36 1320.23 Q2069.42 1319.77 2067.34 1319.77 Q2064.17 1319.77 2062.57 1320.74 Q2060.99 1321.71 2060.99 1323.66 Q2060.99 1325.14 2062.13 1326 Q2063.26 1326.83 2066.69 1327.59 L2068.15 1327.92 Q2072.68 1328.89 2074.58 1330.67 Q2076.5 1332.43 2076.5 1335.6 Q2076.5 1339.21 2073.63 1341.32 Q2070.79 1343.43 2065.79 1343.43 Q2063.7 1343.43 2061.43 1343.01 Q2059.19 1342.62 2056.69 1341.81 L2056.69 1337.41 Q2059.05 1338.63 2061.34 1339.26 Q2063.63 1339.86 2065.88 1339.86 Q2068.89 1339.86 2070.51 1338.84 Q2072.13 1337.8 2072.13 1335.93 Q2072.13 1334.19 2070.95 1333.26 Q2069.79 1332.34 2065.83 1331.48 L2064.35 1331.14 Q2060.39 1330.3 2058.63 1328.59 Q2056.87 1326.85 2056.87 1323.84 Q2056.87 1320.19 2059.47 1318.2 Q2062.06 1316.2 2066.83 1316.2 Q2069.19 1316.2 2071.27 1316.55 Q2073.35 1316.9 2075.11 1317.59 Z" fill="#000000" fill-rule="nonzero" fill-opacity="1" /><path clip-path="url(#clip800)" d="M2095.07 1329.72 Q2089.91 1329.72 2087.91 1330.9 Q2085.92 1332.08 2085.92 1334.93 Q2085.92 1337.2 2087.41 1338.54 Q2088.91 1339.86 2091.48 1339.86 Q2095.02 1339.86 2097.15 1337.36 Q2099.3 1334.84 2099.3 1330.67 L2099.3 1329.72 L2095.07 1329.72 M2103.56 1327.96 L2103.56 1342.76 L2099.3 1342.76 L2099.3 1338.82 Q2097.85 1341.18 2095.67 1342.32 Q2093.49 1343.43 2090.35 1343.43 Q2086.36 1343.43 2084 1341.2 Q2081.66 1338.96 2081.66 1335.21 Q2081.66 1330.83 2084.58 1328.61 Q2087.52 1326.39 2093.33 1326.39 L2099.3 1326.39 L2099.3 1325.97 Q2099.3 1323.03 2097.36 1321.44 Q2095.44 1319.82 2091.94 1319.82 Q2089.72 1319.82 2087.61 1320.35 Q2085.51 1320.88 2083.56 1321.95 L2083.56 1318.01 Q2085.9 1317.11 2088.1 1316.67 Q2090.3 1316.2 2092.38 1316.2 Q2098.01 1316.2 2100.79 1319.12 Q2103.56 1322.04 2103.56 1327.96 Z" fill="#000000" fill-rule="nonzero" fill-opacity="1" /><path clip-path="url(#clip800)" d="M2132.52 1321.81 Q2134.12 1318.94 2136.34 1317.57 Q2138.56 1316.2 2141.57 1316.2 Q2145.62 1316.2 2147.82 1319.05 Q2150.02 1321.88 2150.02 1327.11 L2150.02 1342.76 L2145.74 1342.76 L2145.74 1327.25 Q2145.74 1323.52 2144.42 1321.71 Q2143.1 1319.91 2140.39 1319.91 Q2137.08 1319.91 2135.16 1322.11 Q2133.24 1324.31 2133.24 1328.1 L2133.24 1342.76 L2128.96 1342.76 L2128.96 1327.25 Q2128.96 1323.5 2127.64 1321.71 Q2126.32 1319.91 2123.56 1319.91 Q2120.3 1319.91 2118.38 1322.13 Q2116.46 1324.33 2116.46 1328.1 L2116.46 1342.76 L2112.17 1342.76 L2112.17 1316.83 L2116.46 1316.83 L2116.46 1320.86 Q2117.91 1318.47 2119.95 1317.34 Q2121.99 1316.2 2124.79 1316.2 Q2127.61 1316.2 2129.58 1317.64 Q2131.57 1319.07 2132.52 1321.81 Z" fill="#000000" fill-rule="nonzero" fill-opacity="1" /><path clip-path="url(#clip800)" d="M2162.64 1338.87 L2162.64 1352.62 L2158.35 1352.62 L2158.35 1316.83 L2162.64 1316.83 L2162.64 1320.76 Q2163.98 1318.45 2166.02 1317.34 Q2168.08 1316.2 2170.92 1316.2 Q2175.65 1316.2 2178.59 1319.95 Q2181.55 1323.7 2181.55 1329.82 Q2181.55 1335.93 2178.59 1339.68 Q2175.65 1343.43 2170.92 1343.43 Q2168.08 1343.43 2166.02 1342.32 Q2163.98 1341.18 2162.64 1338.87 M2177.13 1329.82 Q2177.13 1325.12 2175.18 1322.45 Q2173.26 1319.77 2169.88 1319.77 Q2166.5 1319.77 2164.56 1322.45 Q2162.64 1325.12 2162.64 1329.82 Q2162.64 1334.51 2164.56 1337.2 Q2166.5 1339.86 2169.88 1339.86 Q2173.26 1339.86 2175.18 1337.2 Q2177.13 1334.51 2177.13 1329.82 Z" fill="#000000" fill-rule="nonzero" fill-opacity="1" /><path clip-path="url(#clip800)" d="M2188.61 1306.74 L2192.87 1306.74 L2192.87 1342.76 L2188.61 1342.76 L2188.61 1306.74 Z" fill="#000000" fill-rule="nonzero" fill-opacity="1" /><path clip-path="url(#clip800)" d="M2201.78 1316.83 L2206.04 1316.83 L2206.04 1342.76 L2201.78 1342.76 L2201.78 1316.83 M2201.78 1306.74 L2206.04 1306.74 L2206.04 1312.13 L2201.78 1312.13 L2201.78 1306.74 Z" fill="#000000" fill-rule="nonzero" fill-opacity="1" /><path clip-path="url(#clip800)" d="M2236.5 1327.11 L2236.5 1342.76 L2232.24 1342.76 L2232.24 1327.25 Q2232.24 1323.57 2230.81 1321.74 Q2229.37 1319.91 2226.5 1319.91 Q2223.05 1319.91 2221.06 1322.11 Q2219.07 1324.31 2219.07 1328.1 L2219.07 1342.76 L2214.79 1342.76 L2214.79 1316.83 L2219.07 1316.83 L2219.07 1320.86 Q2220.6 1318.52 2222.66 1317.36 Q2224.74 1316.2 2227.45 1316.2 Q2231.92 1316.2 2234.21 1318.98 Q2236.5 1321.74 2236.5 1327.11 Z" fill="#000000" fill-rule="nonzero" fill-opacity="1" /><path clip-path="url(#clip800)" d="M2262.06 1329.49 Q2262.06 1324.86 2260.14 1322.32 Q2258.24 1319.77 2254.79 1319.77 Q2251.36 1319.77 2249.44 1322.32 Q2247.54 1324.86 2247.54 1329.49 Q2247.54 1334.1 2249.44 1336.64 Q2251.36 1339.19 2254.79 1339.19 Q2258.24 1339.19 2260.14 1336.64 Q2262.06 1334.1 2262.06 1329.49 M2266.32 1339.54 Q2266.32 1346.16 2263.38 1349.38 Q2260.44 1352.62 2254.37 1352.62 Q2252.13 1352.62 2250.14 1352.27 Q2248.15 1351.95 2246.27 1351.25 L2246.27 1347.11 Q2248.15 1348.13 2249.97 1348.61 Q2251.8 1349.1 2253.7 1349.1 Q2257.89 1349.1 2259.97 1346.9 Q2262.06 1344.72 2262.06 1340.3 L2262.06 1338.2 Q2260.74 1340.49 2258.68 1341.62 Q2256.62 1342.76 2253.75 1342.76 Q2248.98 1342.76 2246.06 1339.12 Q2243.15 1335.49 2243.15 1329.49 Q2243.15 1323.47 2246.06 1319.84 Q2248.98 1316.2 2253.75 1316.2 Q2256.62 1316.2 2258.68 1317.34 Q2260.74 1318.47 2262.06 1320.76 L2262.06 1316.83 L2266.32 1316.83 L2266.32 1339.54 Z" fill="#000000" fill-rule="nonzero" fill-opacity="1" /></svg>
