<?xml version="1.0" encoding="utf-8"?>
<svg xmlns="http://www.w3.org/2000/svg" xmlns:xlink="http://www.w3.org/1999/xlink" width="600" height="400" viewBox="0 0 2400 1600">
<defs>
  <clipPath id="clip760">
    <rect x="0" y="0" width="2400" height="1600"/>
  </clipPath>
</defs>
<path clip-path="url(#clip760)" d="M0 1600 L2400 1600 L2400 0 L0 0  Z" fill="#ffffff" fill-rule="evenodd" fill-opacity="1"/>
<defs>
  <clipPath id="clip761">
    <rect x="438" y="47" width="1916" height="1377"/>
  </clipPath>
</defs>
<path clip-path="url(#clip760)" d="M438.036 1423.18 L2352.76 1423.18 L2352.76 47.2441 L438.036 47.2441  Z" fill="#ffffff" fill-rule="evenodd" fill-opacity="1"/>
<polyline clip-path="url(#clip761)" style="stroke:#000000; stroke-linecap:round; stroke-linejoin:round; stroke-width:2; stroke-opacity:0.1; fill:none" points="452.73,1423.18 452.73,47.2441 "/>
<polyline clip-path="url(#clip761)" style="stroke:#000000; stroke-linecap:round; stroke-linejoin:round; stroke-width:2; stroke-opacity:0.1; fill:none" points="795.144,1423.18 795.144,47.2441 "/>
<polyline clip-path="url(#clip761)" style="stroke:#000000; stroke-linecap:round; stroke-linejoin:round; stroke-width:2; stroke-opacity:0.1; fill:none" points="1137.56,1423.18 1137.56,47.2441 "/>
<polyline clip-path="url(#clip761)" style="stroke:#000000; stroke-linecap:round; stroke-linejoin:round; stroke-width:2; stroke-opacity:0.1; fill:none" points="1479.97,1423.18 1479.97,47.2441 "/>
<polyline clip-path="url(#clip761)" style="stroke:#000000; stroke-linecap:round; stroke-linejoin:round; stroke-width:2; stroke-opacity:0.1; fill:none" points="1822.39,1423.18 1822.39,47.2441 "/>
<polyline clip-path="url(#clip761)" style="stroke:#000000; stroke-linecap:round; stroke-linejoin:round; stroke-width:2; stroke-opacity:0.1; fill:none" points="2164.8,1423.18 2164.8,47.2441 "/>
<polyline clip-path="url(#clip761)" style="stroke:#000000; stroke-linecap:round; stroke-linejoin:round; stroke-width:2; stroke-opacity:0.1; fill:none" points="438.036,1367 2352.76,1367 "/>
<polyline clip-path="url(#clip761)" style="stroke:#000000; stroke-linecap:round; stroke-linejoin:round; stroke-width:2; stroke-opacity:0.1; fill:none" points="438.036,1177.79 2352.76,1177.79 "/>
<polyline clip-path="url(#clip761)" style="stroke:#000000; stroke-linecap:round; stroke-linejoin:round; stroke-width:2; stroke-opacity:0.1; fill:none" points="438.036,988.582 2352.76,988.582 "/>
<polyline clip-path="url(#clip761)" style="stroke:#000000; stroke-linecap:round; stroke-linejoin:round; stroke-width:2; stroke-opacity:0.1; fill:none" points="438.036,799.373 2352.76,799.373 "/>
<polyline clip-path="url(#clip761)" style="stroke:#000000; stroke-linecap:round; stroke-linejoin:round; stroke-width:2; stroke-opacity:0.1; fill:none" points="438.036,610.165 2352.76,610.165 "/>
<polyline clip-path="url(#clip761)" style="stroke:#000000; stroke-linecap:round; stroke-linejoin:round; stroke-width:2; stroke-opacity:0.1; fill:none" points="438.036,420.956 2352.76,420.956 "/>
<polyline clip-path="url(#clip761)" style="stroke:#000000; stroke-linecap:round; stroke-linejoin:round; stroke-width:2; stroke-opacity:0.1; fill:none" points="438.036,231.748 2352.76,231.748 "/>
<polyline clip-path="url(#clip760)" style="stroke:#000000; stroke-linecap:round; stroke-linejoin:round; stroke-width:4; stroke-opacity:1; fill:none" points="438.036,1423.18 2352.76,1423.18 "/>
<polyline clip-path="url(#clip760)" style="stroke:#000000; stroke-linecap:round; stroke-linejoin:round; stroke-width:4; stroke-opacity:1; fill:none" points="452.73,1423.18 452.73,1404.28 "/>
<polyline clip-path="url(#clip760)" style="stroke:#000000; stroke-linecap:round; stroke-linejoin:round; stroke-width:4; stroke-opacity:1; fill:none" points="795.144,1423.18 795.144,1404.28 "/>
<polyline clip-path="url(#clip760)" style="stroke:#000000; stroke-linecap:round; stroke-linejoin:round; stroke-width:4; stroke-opacity:1; fill:none" points="1137.56,1423.18 1137.56,1404.28 "/>
<polyline clip-path="url(#clip760)" style="stroke:#000000; stroke-linecap:round; stroke-linejoin:round; stroke-width:4; stroke-opacity:1; fill:none" points="1479.97,1423.18 1479.97,1404.28 "/>
<polyline clip-path="url(#clip760)" style="stroke:#000000; stroke-linecap:round; stroke-linejoin:round; stroke-width:4; stroke-opacity:1; fill:none" points="1822.39,1423.18 1822.39,1404.28 "/>
<polyline clip-path="url(#clip760)" style="stroke:#000000; stroke-linecap:round; stroke-linejoin:round; stroke-width:4; stroke-opacity:1; fill:none" points="2164.8,1423.18 2164.8,1404.28 "/>
<path clip-path="url(#clip760)" d="M452.73 1454.1 Q449.119 1454.1 447.29 1457.66 Q445.484 1461.2 445.484 1468.33 Q445.484 1475.44 447.29 1479.01 Q449.119 1482.55 452.73 1482.55 Q456.364 1482.55 458.169 1479.01 Q459.998 1475.44 459.998 1468.33 Q459.998 1461.2 458.169 1457.66 Q456.364 1454.1 452.73 1454.1 M452.73 1450.39 Q458.54 1450.39 461.595 1455 Q464.674 1459.58 464.674 1468.33 Q464.674 1477.06 461.595 1481.67 Q458.54 1486.25 452.73 1486.25 Q446.92 1486.25 443.841 1481.67 Q440.785 1477.06 440.785 1468.33 Q440.785 1459.58 443.841 1455 Q446.92 1450.39 452.73 1450.39 Z" fill="#000000" fill-rule="nonzero" fill-opacity="1" /><path clip-path="url(#clip760)" d="M785.422 1451.02 L803.778 1451.02 L803.778 1454.96 L789.704 1454.96 L789.704 1463.43 Q790.723 1463.08 791.741 1462.92 Q792.76 1462.73 793.778 1462.73 Q799.565 1462.73 802.945 1465.9 Q806.325 1469.08 806.325 1474.49 Q806.325 1480.07 802.852 1483.17 Q799.38 1486.25 793.061 1486.25 Q790.885 1486.25 788.616 1485.88 Q786.371 1485.51 783.964 1484.77 L783.964 1480.07 Q786.047 1481.2 788.269 1481.76 Q790.491 1482.32 792.968 1482.32 Q796.973 1482.32 799.311 1480.21 Q801.649 1478.1 801.649 1474.49 Q801.649 1470.88 799.311 1468.77 Q796.973 1466.67 792.968 1466.67 Q791.093 1466.67 789.218 1467.08 Q787.366 1467.5 785.422 1468.38 L785.422 1451.02 Z" fill="#000000" fill-rule="nonzero" fill-opacity="1" /><path clip-path="url(#clip760)" d="M1112.25 1481.64 L1119.89 1481.64 L1119.89 1455.28 L1111.57 1456.95 L1111.57 1452.69 L1119.84 1451.02 L1124.51 1451.02 L1124.51 1481.64 L1132.15 1481.64 L1132.15 1485.58 L1112.25 1485.58 L1112.25 1481.64 Z" fill="#000000" fill-rule="nonzero" fill-opacity="1" /><path clip-path="url(#clip760)" d="M1151.6 1454.1 Q1147.99 1454.1 1146.16 1457.66 Q1144.35 1461.2 1144.35 1468.33 Q1144.35 1475.44 1146.16 1479.01 Q1147.99 1482.55 1151.6 1482.55 Q1155.23 1482.55 1157.04 1479.01 Q1158.87 1475.44 1158.87 1468.33 Q1158.87 1461.2 1157.04 1457.66 Q1155.23 1454.1 1151.6 1454.1 M1151.6 1450.39 Q1157.41 1450.39 1160.46 1455 Q1163.54 1459.58 1163.54 1468.33 Q1163.54 1477.06 1160.46 1481.67 Q1157.41 1486.25 1151.6 1486.25 Q1145.79 1486.25 1142.71 1481.67 Q1139.65 1477.06 1139.65 1468.33 Q1139.65 1459.58 1142.71 1455 Q1145.79 1450.39 1151.6 1450.39 Z" fill="#000000" fill-rule="nonzero" fill-opacity="1" /><path clip-path="url(#clip760)" d="M1455.16 1481.64 L1462.8 1481.64 L1462.8 1455.28 L1454.49 1456.95 L1454.49 1452.69 L1462.75 1451.02 L1467.43 1451.02 L1467.43 1481.64 L1475.07 1481.64 L1475.07 1485.58 L1455.16 1485.58 L1455.16 1481.64 Z" fill="#000000" fill-rule="nonzero" fill-opacity="1" /><path clip-path="url(#clip760)" d="M1484.56 1451.02 L1502.91 1451.02 L1502.91 1454.96 L1488.84 1454.96 L1488.84 1463.43 Q1489.86 1463.08 1490.88 1462.92 Q1491.89 1462.73 1492.91 1462.73 Q1498.7 1462.73 1502.08 1465.9 Q1505.46 1469.08 1505.46 1474.49 Q1505.46 1480.07 1501.99 1483.17 Q1498.51 1486.25 1492.2 1486.25 Q1490.02 1486.25 1487.75 1485.88 Q1485.51 1485.51 1483.1 1484.77 L1483.1 1480.07 Q1485.18 1481.2 1487.4 1481.76 Q1489.63 1482.32 1492.1 1482.32 Q1496.11 1482.32 1498.45 1480.21 Q1500.78 1478.1 1500.78 1474.49 Q1500.78 1470.88 1498.45 1468.77 Q1496.11 1466.67 1492.1 1466.67 Q1490.23 1466.67 1488.35 1467.08 Q1486.5 1467.5 1484.56 1468.38 L1484.56 1451.02 Z" fill="#000000" fill-rule="nonzero" fill-opacity="1" /><path clip-path="url(#clip760)" d="M1801.16 1481.64 L1817.48 1481.64 L1817.48 1485.58 L1795.54 1485.58 L1795.54 1481.64 Q1798.2 1478.89 1802.78 1474.26 Q1807.39 1469.61 1808.57 1468.27 Q1810.81 1465.74 1811.69 1464.01 Q1812.6 1462.25 1812.6 1460.56 Q1812.6 1457.8 1810.65 1456.07 Q1808.73 1454.33 1805.63 1454.33 Q1803.43 1454.33 1800.98 1455.09 Q1798.54 1455.86 1795.77 1457.41 L1795.77 1452.69 Q1798.59 1451.55 1801.04 1450.97 Q1803.5 1450.39 1805.54 1450.39 Q1810.91 1450.39 1814.1 1453.08 Q1817.29 1455.77 1817.29 1460.26 Q1817.29 1462.39 1816.48 1464.31 Q1815.7 1466.2 1813.59 1468.8 Q1813.01 1469.47 1809.91 1472.69 Q1806.81 1475.88 1801.16 1481.64 Z" fill="#000000" fill-rule="nonzero" fill-opacity="1" /><path clip-path="url(#clip760)" d="M1837.29 1454.1 Q1833.68 1454.1 1831.85 1457.66 Q1830.05 1461.2 1830.05 1468.33 Q1830.05 1475.44 1831.85 1479.01 Q1833.68 1482.55 1837.29 1482.55 Q1840.93 1482.55 1842.73 1479.01 Q1844.56 1475.44 1844.56 1468.33 Q1844.56 1461.2 1842.73 1457.66 Q1840.93 1454.1 1837.29 1454.1 M1837.29 1450.39 Q1843.1 1450.39 1846.16 1455 Q1849.24 1459.58 1849.24 1468.33 Q1849.24 1477.06 1846.16 1481.67 Q1843.1 1486.25 1837.29 1486.25 Q1831.48 1486.25 1828.41 1481.67 Q1825.35 1477.06 1825.35 1468.33 Q1825.35 1459.58 1828.41 1455 Q1831.48 1450.39 1837.29 1450.39 Z" fill="#000000" fill-rule="nonzero" fill-opacity="1" /><path clip-path="url(#clip760)" d="M2144.07 1481.64 L2160.39 1481.64 L2160.39 1485.58 L2138.45 1485.58 L2138.45 1481.64 Q2141.11 1478.89 2145.69 1474.26 Q2150.3 1469.61 2151.48 1468.27 Q2153.73 1465.74 2154.61 1464.01 Q2155.51 1462.25 2155.51 1460.56 Q2155.51 1457.8 2153.56 1456.07 Q2151.64 1454.33 2148.54 1454.33 Q2146.34 1454.33 2143.89 1455.09 Q2141.46 1455.86 2138.68 1457.41 L2138.68 1452.69 Q2141.5 1451.55 2143.96 1450.97 Q2146.41 1450.39 2148.45 1450.39 Q2153.82 1450.39 2157.01 1453.08 Q2160.21 1455.77 2160.21 1460.26 Q2160.21 1462.39 2159.4 1464.31 Q2158.61 1466.2 2156.5 1468.8 Q2155.92 1469.47 2152.82 1472.69 Q2149.72 1475.88 2144.07 1481.64 Z" fill="#000000" fill-rule="nonzero" fill-opacity="1" /><path clip-path="url(#clip760)" d="M2170.25 1451.02 L2188.61 1451.02 L2188.61 1454.96 L2174.54 1454.96 L2174.54 1463.43 Q2175.55 1463.08 2176.57 1462.92 Q2177.59 1462.73 2178.61 1462.73 Q2184.4 1462.73 2187.78 1465.9 Q2191.16 1469.08 2191.16 1474.49 Q2191.16 1480.07 2187.68 1483.17 Q2184.21 1486.25 2177.89 1486.25 Q2175.72 1486.25 2173.45 1485.88 Q2171.2 1485.51 2168.79 1484.77 L2168.79 1480.07 Q2170.88 1481.2 2173.1 1481.76 Q2175.32 1482.32 2177.8 1482.32 Q2181.8 1482.32 2184.14 1480.21 Q2186.48 1478.1 2186.48 1474.49 Q2186.48 1470.88 2184.14 1468.77 Q2181.8 1466.67 2177.8 1466.67 Q2175.92 1466.67 2174.05 1467.08 Q2172.2 1467.5 2170.25 1468.38 L2170.25 1451.02 Z" fill="#000000" fill-rule="nonzero" fill-opacity="1" /><path clip-path="url(#clip760)" d="M1066.48 1520.52 L1072.97 1520.52 L1082.97 1560.69 L1092.93 1520.52 L1100.15 1520.52 L1110.15 1560.69 L1120.11 1520.52 L1126.64 1520.52 L1114.7 1568.04 L1106.62 1568.04 L1096.59 1526.79 L1086.47 1568.04 L1078.38 1568.04 L1066.48 1520.52 Z" fill="#000000" fill-rule="nonzero" fill-opacity="1" /><path clip-path="url(#clip760)" d="M1146.94 1550.12 Q1139.84 1550.12 1137.11 1551.75 Q1134.37 1553.37 1134.37 1557.29 Q1134.37 1560.4 1136.41 1562.25 Q1138.48 1564.07 1142.01 1564.07 Q1146.88 1564.07 1149.81 1560.63 Q1152.77 1557.16 1152.77 1551.43 L1152.77 1550.12 L1146.94 1550.12 M1158.62 1547.71 L1158.62 1568.04 L1152.77 1568.04 L1152.77 1562.63 Q1150.76 1565.88 1147.77 1567.44 Q1144.78 1568.97 1140.45 1568.97 Q1134.98 1568.97 1131.73 1565.91 Q1128.51 1562.82 1128.51 1557.67 Q1128.51 1551.65 1132.52 1548.6 Q1136.57 1545.54 1144.56 1545.54 L1152.77 1545.54 L1152.77 1544.97 Q1152.77 1540.93 1150.09 1538.73 Q1147.45 1536.5 1142.65 1536.5 Q1139.59 1536.5 1136.69 1537.23 Q1133.8 1537.97 1131.12 1539.43 L1131.12 1534.02 Q1134.34 1532.78 1137.36 1532.17 Q1140.39 1531.54 1143.25 1531.54 Q1150.98 1531.54 1154.8 1535.55 Q1158.62 1539.56 1158.62 1547.71 Z" fill="#000000" fill-rule="nonzero" fill-opacity="1" /><path clip-path="url(#clip760)" d="M1170.69 1518.52 L1176.54 1518.52 L1176.54 1568.04 L1170.69 1568.04 L1170.69 1518.52 Z" fill="#000000" fill-rule="nonzero" fill-opacity="1" /><path clip-path="url(#clip760)" d="M1188.8 1518.52 L1194.65 1518.52 L1194.65 1568.04 L1188.8 1568.04 L1188.8 1518.52 Z" fill="#000000" fill-rule="nonzero" fill-opacity="1" /><path clip-path="url(#clip760)" d="M1232.56 1533.76 L1232.56 1539.24 Q1230.08 1537.87 1227.56 1537.2 Q1225.08 1536.5 1222.54 1536.5 Q1216.84 1536.5 1213.69 1540.13 Q1210.54 1543.73 1210.54 1550.25 Q1210.54 1556.78 1213.69 1560.4 Q1216.84 1564 1222.54 1564 Q1225.08 1564 1227.56 1563.33 Q1230.08 1562.63 1232.56 1561.26 L1232.56 1566.68 Q1230.11 1567.82 1227.47 1568.39 Q1224.86 1568.97 1221.9 1568.97 Q1213.85 1568.97 1209.1 1563.91 Q1204.36 1558.85 1204.36 1550.25 Q1204.36 1541.53 1209.14 1536.53 Q1213.94 1531.54 1222.28 1531.54 Q1224.99 1531.54 1227.56 1532.11 Q1230.14 1532.65 1232.56 1533.76 Z" fill="#000000" fill-rule="nonzero" fill-opacity="1" /><path clip-path="url(#clip760)" d="M1242.75 1518.52 L1248.6 1518.52 L1248.6 1568.04 L1242.75 1568.04 L1242.75 1518.52 Z" fill="#000000" fill-rule="nonzero" fill-opacity="1" /><path clip-path="url(#clip760)" d="M1274.67 1536.5 Q1269.96 1536.5 1267.22 1540.19 Q1264.49 1543.85 1264.49 1550.25 Q1264.49 1556.65 1267.19 1560.34 Q1269.93 1564 1274.67 1564 Q1279.35 1564 1282.09 1560.31 Q1284.82 1556.62 1284.82 1550.25 Q1284.82 1543.92 1282.09 1540.23 Q1279.35 1536.5 1274.67 1536.5 M1274.67 1531.54 Q1282.31 1531.54 1286.67 1536.5 Q1291.03 1541.47 1291.03 1550.25 Q1291.03 1559 1286.67 1564 Q1282.31 1568.97 1274.67 1568.97 Q1267 1568.97 1262.64 1564 Q1258.31 1559 1258.31 1550.25 Q1258.31 1541.47 1262.64 1536.5 Q1267 1531.54 1274.67 1531.54 Z" fill="#000000" fill-rule="nonzero" fill-opacity="1" /><path clip-path="url(#clip760)" d="M1326.39 1533.76 L1326.39 1539.24 Q1323.91 1537.87 1321.39 1537.2 Q1318.91 1536.5 1316.37 1536.5 Q1310.67 1536.5 1307.52 1540.13 Q1304.37 1543.73 1304.37 1550.25 Q1304.37 1556.78 1307.52 1560.4 Q1310.67 1564 1316.37 1564 Q1318.91 1564 1321.39 1563.33 Q1323.91 1562.63 1326.39 1561.26 L1326.39 1566.68 Q1323.94 1567.82 1321.3 1568.39 Q1318.69 1568.97 1315.73 1568.97 Q1307.68 1568.97 1302.93 1563.91 Q1298.19 1558.85 1298.19 1550.25 Q1298.19 1541.53 1302.97 1536.53 Q1307.77 1531.54 1316.11 1531.54 Q1318.82 1531.54 1321.39 1532.11 Q1323.97 1532.65 1326.39 1533.76 Z" fill="#000000" fill-rule="nonzero" fill-opacity="1" /><path clip-path="url(#clip760)" d="M1336.35 1518.52 L1342.24 1518.52 L1342.24 1547.77 L1359.72 1532.4 L1367.2 1532.4 L1348.29 1549.07 L1367.99 1568.04 L1360.35 1568.04 L1342.24 1550.63 L1342.24 1568.04 L1336.35 1568.04 L1336.35 1518.52 Z" fill="#000000" fill-rule="nonzero" fill-opacity="1" /><path clip-path="url(#clip760)" d="M1388.71 1520.52 L1428.91 1520.52 L1428.91 1525.93 L1412.04 1525.93 L1412.04 1568.04 L1405.58 1568.04 L1405.58 1525.93 L1388.71 1525.93 L1388.71 1520.52 Z" fill="#000000" fill-rule="nonzero" fill-opacity="1" /><path clip-path="url(#clip760)" d="M1432.86 1532.4 L1438.71 1532.4 L1438.71 1568.04 L1432.86 1568.04 L1432.86 1532.4 M1432.86 1518.52 L1438.71 1518.52 L1438.71 1525.93 L1432.86 1525.93 L1432.86 1518.52 Z" fill="#000000" fill-rule="nonzero" fill-opacity="1" /><path clip-path="url(#clip760)" d="M1478.72 1539.24 Q1480.92 1535.29 1483.97 1533.41 Q1487.03 1531.54 1491.17 1531.54 Q1496.74 1531.54 1499.76 1535.45 Q1502.79 1539.33 1502.79 1546.53 L1502.79 1568.04 L1496.9 1568.04 L1496.9 1546.72 Q1496.9 1541.59 1495.08 1539.11 Q1493.27 1536.63 1489.54 1536.63 Q1484.99 1536.63 1482.35 1539.65 Q1479.71 1542.68 1479.71 1547.9 L1479.71 1568.04 L1473.82 1568.04 L1473.82 1546.72 Q1473.82 1541.56 1472.01 1539.11 Q1470.19 1536.63 1466.41 1536.63 Q1461.92 1536.63 1459.28 1539.68 Q1456.63 1542.71 1456.63 1547.9 L1456.63 1568.04 L1450.75 1568.04 L1450.75 1532.4 L1456.63 1532.4 L1456.63 1537.93 Q1458.64 1534.66 1461.44 1533.1 Q1464.24 1531.54 1468.09 1531.54 Q1471.98 1531.54 1474.68 1533.51 Q1477.42 1535.48 1478.72 1539.24 Z" fill="#000000" fill-rule="nonzero" fill-opacity="1" /><path clip-path="url(#clip760)" d="M1544.96 1548.76 L1544.96 1551.62 L1518.03 1551.62 Q1518.41 1557.67 1521.66 1560.85 Q1524.94 1564 1530.76 1564 Q1534.14 1564 1537.29 1563.17 Q1540.47 1562.35 1543.59 1560.69 L1543.59 1566.23 Q1540.44 1567.57 1537.13 1568.27 Q1533.82 1568.97 1530.41 1568.97 Q1521.88 1568.97 1516.89 1564 Q1511.92 1559.04 1511.92 1550.57 Q1511.92 1541.82 1516.63 1536.69 Q1521.37 1531.54 1529.39 1531.54 Q1536.59 1531.54 1540.76 1536.18 Q1544.96 1540.8 1544.96 1548.76 M1539.1 1547.04 Q1539.04 1542.23 1536.4 1539.37 Q1533.79 1536.5 1529.46 1536.5 Q1524.56 1536.5 1521.6 1539.27 Q1518.67 1542.04 1518.22 1547.07 L1539.1 1547.04 Z" fill="#000000" fill-rule="nonzero" fill-opacity="1" /><path clip-path="url(#clip760)" d="M1589.36 1518.58 Q1585.09 1525.9 1583.03 1533.06 Q1580.96 1540.23 1580.96 1547.58 Q1580.96 1554.93 1583.03 1562.16 Q1585.13 1569.35 1589.36 1576.64 L1584.27 1576.64 Q1579.49 1569.16 1577.11 1561.93 Q1574.75 1554.71 1574.75 1547.58 Q1574.75 1540.48 1577.11 1533.29 Q1579.46 1526.09 1584.27 1518.58 L1589.36 1518.58 Z" fill="#000000" fill-rule="nonzero" fill-opacity="1" /><path clip-path="url(#clip760)" d="M1623.45 1533.45 L1623.45 1538.98 Q1620.96 1537.71 1618.29 1537.07 Q1615.62 1536.44 1612.75 1536.44 Q1608.39 1536.44 1606.2 1537.77 Q1604.03 1539.11 1604.03 1541.79 Q1604.03 1543.82 1605.59 1545 Q1607.15 1546.15 1611.86 1547.2 L1613.87 1547.64 Q1620.11 1548.98 1622.72 1551.43 Q1625.36 1553.85 1625.36 1558.21 Q1625.36 1563.17 1621.41 1566.07 Q1617.5 1568.97 1610.62 1568.97 Q1607.76 1568.97 1604.64 1568.39 Q1601.55 1567.85 1598.11 1566.74 L1598.11 1560.69 Q1601.36 1562.38 1604.51 1563.24 Q1607.66 1564.07 1610.75 1564.07 Q1614.89 1564.07 1617.11 1562.66 Q1619.34 1561.23 1619.34 1558.65 Q1619.34 1556.27 1617.72 1554.99 Q1616.13 1553.72 1610.68 1552.54 L1608.65 1552.07 Q1603.2 1550.92 1600.79 1548.56 Q1598.37 1546.18 1598.37 1542.04 Q1598.37 1537.01 1601.93 1534.27 Q1605.5 1531.54 1612.05 1531.54 Q1615.3 1531.54 1618.16 1532.01 Q1621.03 1532.49 1623.45 1533.45 Z" fill="#000000" fill-rule="nonzero" fill-opacity="1" /><path clip-path="url(#clip760)" d="M1665.17 1548.76 L1665.17 1551.62 L1638.25 1551.62 Q1638.63 1557.67 1641.88 1560.85 Q1645.15 1564 1650.98 1564 Q1654.35 1564 1657.5 1563.17 Q1660.69 1562.35 1663.81 1560.69 L1663.81 1566.23 Q1660.66 1567.57 1657.34 1568.27 Q1654.03 1568.97 1650.63 1568.97 Q1642.1 1568.97 1637.1 1564 Q1632.14 1559.04 1632.14 1550.57 Q1632.14 1541.82 1636.85 1536.69 Q1641.59 1531.54 1649.61 1531.54 Q1656.8 1531.54 1660.97 1536.18 Q1665.17 1540.8 1665.17 1548.76 M1659.32 1547.04 Q1659.25 1542.23 1656.61 1539.37 Q1654 1536.5 1649.67 1536.5 Q1644.77 1536.5 1641.81 1539.27 Q1638.88 1542.04 1638.44 1547.07 L1659.32 1547.04 Z" fill="#000000" fill-rule="nonzero" fill-opacity="1" /><path clip-path="url(#clip760)" d="M1700.44 1533.76 L1700.44 1539.24 Q1697.96 1537.87 1695.44 1537.2 Q1692.96 1536.5 1690.41 1536.5 Q1684.72 1536.5 1681.57 1540.13 Q1678.42 1543.73 1678.42 1550.25 Q1678.42 1556.78 1681.57 1560.4 Q1684.72 1564 1690.41 1564 Q1692.96 1564 1695.44 1563.33 Q1697.96 1562.63 1700.44 1561.26 L1700.44 1566.68 Q1697.99 1567.82 1695.35 1568.39 Q1692.74 1568.97 1689.78 1568.97 Q1681.73 1568.97 1676.98 1563.91 Q1672.24 1558.85 1672.24 1550.25 Q1672.24 1541.53 1677.02 1536.53 Q1681.82 1531.54 1690.16 1531.54 Q1692.87 1531.54 1695.44 1532.11 Q1698.02 1532.65 1700.44 1533.76 Z" fill="#000000" fill-rule="nonzero" fill-opacity="1" /><path clip-path="url(#clip760)" d="M1709.7 1518.58 L1714.8 1518.58 Q1719.57 1526.09 1721.93 1533.29 Q1724.31 1540.48 1724.31 1547.58 Q1724.31 1554.71 1721.93 1561.93 Q1719.57 1569.16 1714.8 1576.64 L1709.7 1576.64 Q1713.94 1569.35 1716 1562.16 Q1718.11 1554.93 1718.11 1547.58 Q1718.11 1540.23 1716 1533.06 Q1713.94 1525.9 1709.7 1518.58 Z" fill="#000000" fill-rule="nonzero" fill-opacity="1" /><polyline clip-path="url(#clip760)" style="stroke:#000000; stroke-linecap:round; stroke-linejoin:round; stroke-width:4; stroke-opacity:1; fill:none" points="438.036,1423.18 438.036,47.2441 "/>
<polyline clip-path="url(#clip760)" style="stroke:#000000; stroke-linecap:round; stroke-linejoin:round; stroke-width:4; stroke-opacity:1; fill:none" points="438.036,1367 456.934,1367 "/>
<polyline clip-path="url(#clip760)" style="stroke:#000000; stroke-linecap:round; stroke-linejoin:round; stroke-width:4; stroke-opacity:1; fill:none" points="438.036,1177.79 456.934,1177.79 "/>
<polyline clip-path="url(#clip760)" style="stroke:#000000; stroke-linecap:round; stroke-linejoin:round; stroke-width:4; stroke-opacity:1; fill:none" points="438.036,988.582 456.934,988.582 "/>
<polyline clip-path="url(#clip760)" style="stroke:#000000; stroke-linecap:round; stroke-linejoin:round; stroke-width:4; stroke-opacity:1; fill:none" points="438.036,799.373 456.934,799.373 "/>
<polyline clip-path="url(#clip760)" style="stroke:#000000; stroke-linecap:round; stroke-linejoin:round; stroke-width:4; stroke-opacity:1; fill:none" points="438.036,610.165 456.934,610.165 "/>
<polyline clip-path="url(#clip760)" style="stroke:#000000; stroke-linecap:round; stroke-linejoin:round; stroke-width:4; stroke-opacity:1; fill:none" points="438.036,420.956 456.934,420.956 "/>
<polyline clip-path="url(#clip760)" style="stroke:#000000; stroke-linecap:round; stroke-linejoin:round; stroke-width:4; stroke-opacity:1; fill:none" points="438.036,231.748 456.934,231.748 "/>
<path clip-path="url(#clip760)" d="M114.26 1373.9 L143.936 1373.9 L143.936 1377.83 L114.26 1377.83 L114.26 1373.9 Z" fill="#000000" fill-rule="nonzero" fill-opacity="1" /><path clip-path="url(#clip760)" d="M158.056 1386.79 L174.376 1386.79 L174.376 1390.73 L152.431 1390.73 L152.431 1386.79 Q155.093 1384.04 159.677 1379.41 Q164.283 1374.75 165.464 1373.41 Q167.709 1370.89 168.589 1369.15 Q169.491 1367.39 169.491 1365.7 Q169.491 1362.95 167.547 1361.21 Q165.626 1359.48 162.524 1359.48 Q160.325 1359.48 157.871 1360.24 Q155.44 1361 152.663 1362.56 L152.663 1357.83 Q155.487 1356.7 157.94 1356.12 Q160.394 1355.54 162.431 1355.54 Q167.802 1355.54 170.996 1358.23 Q174.19 1360.91 174.19 1365.4 Q174.19 1367.53 173.38 1369.45 Q172.593 1371.35 170.487 1373.94 Q169.908 1374.62 166.806 1377.83 Q163.704 1381.03 158.056 1386.79 Z" fill="#000000" fill-rule="nonzero" fill-opacity="1" /><path clip-path="url(#clip760)" d="M184.19 1384.85 L189.075 1384.85 L189.075 1390.73 L184.19 1390.73 L184.19 1384.85 Z" fill="#000000" fill-rule="nonzero" fill-opacity="1" /><path clip-path="url(#clip760)" d="M203.287 1386.79 L219.607 1386.79 L219.607 1390.73 L197.662 1390.73 L197.662 1386.79 Q200.325 1384.04 204.908 1379.41 Q209.514 1374.75 210.695 1373.41 Q212.94 1370.89 213.82 1369.15 Q214.723 1367.39 214.723 1365.7 Q214.723 1362.95 212.778 1361.21 Q210.857 1359.48 207.755 1359.48 Q205.556 1359.48 203.102 1360.24 Q200.672 1361 197.894 1362.56 L197.894 1357.83 Q200.718 1356.7 203.172 1356.12 Q205.625 1355.54 207.662 1355.54 Q213.033 1355.54 216.227 1358.23 Q219.422 1360.91 219.422 1365.4 Q219.422 1367.53 218.611 1369.45 Q217.824 1371.35 215.718 1373.94 Q215.139 1374.62 212.037 1377.83 Q208.936 1381.03 203.287 1386.79 Z" fill="#000000" fill-rule="nonzero" fill-opacity="1" /><path clip-path="url(#clip760)" d="M229.468 1356.17 L247.824 1356.17 L247.824 1360.1 L233.75 1360.1 L233.75 1368.57 Q234.769 1368.23 235.787 1368.06 Q236.806 1367.88 237.824 1367.88 Q243.611 1367.88 246.991 1371.05 Q250.371 1374.22 250.371 1379.64 Q250.371 1385.22 246.898 1388.32 Q243.426 1391.4 237.107 1391.4 Q234.931 1391.4 232.662 1391.03 Q230.417 1390.66 228.01 1389.92 L228.01 1385.22 Q230.093 1386.35 232.315 1386.91 Q234.537 1387.46 237.014 1387.46 Q241.019 1387.46 243.357 1385.36 Q245.695 1383.25 245.695 1379.64 Q245.695 1376.03 243.357 1373.92 Q241.019 1371.81 237.014 1371.81 Q235.139 1371.81 233.264 1372.23 Q231.412 1372.65 229.468 1373.53 L229.468 1356.17 Z" fill="#000000" fill-rule="nonzero" fill-opacity="1" /><path clip-path="url(#clip760)" d="M269.583 1359.24 Q265.972 1359.24 264.144 1362.81 Q262.338 1366.35 262.338 1373.48 Q262.338 1380.59 264.144 1384.15 Q265.972 1387.69 269.583 1387.69 Q273.218 1387.69 275.023 1384.15 Q276.852 1380.59 276.852 1373.48 Q276.852 1366.35 275.023 1362.81 Q273.218 1359.24 269.583 1359.24 M269.583 1355.54 Q275.394 1355.54 278.449 1360.15 Q281.528 1364.73 281.528 1373.48 Q281.528 1382.21 278.449 1386.81 Q275.394 1391.4 269.583 1391.4 Q263.773 1391.4 260.695 1386.81 Q257.639 1382.21 257.639 1373.48 Q257.639 1364.73 260.695 1360.15 Q263.773 1355.54 269.583 1355.54 Z" fill="#000000" fill-rule="nonzero" fill-opacity="1" /><path clip-path="url(#clip760)" d="M317.916 1365.26 L307.338 1375.89 L317.916 1386.47 L315.162 1389.27 L304.537 1378.64 L293.912 1389.27 L291.181 1386.47 L301.736 1375.89 L291.181 1365.26 L293.912 1362.46 L304.537 1373.09 L315.162 1362.46 L317.916 1365.26 Z" fill="#000000" fill-rule="nonzero" fill-opacity="1" /><path clip-path="url(#clip760)" d="M330.278 1386.79 L337.916 1386.79 L337.916 1360.43 L329.606 1362.09 L329.606 1357.83 L337.87 1356.17 L342.546 1356.17 L342.546 1386.79 L350.185 1386.79 L350.185 1390.73 L330.278 1390.73 L330.278 1386.79 Z" fill="#000000" fill-rule="nonzero" fill-opacity="1" /><path clip-path="url(#clip760)" d="M369.629 1359.24 Q366.018 1359.24 364.189 1362.81 Q362.384 1366.35 362.384 1373.48 Q362.384 1380.59 364.189 1384.15 Q366.018 1387.69 369.629 1387.69 Q373.263 1387.69 375.069 1384.15 Q376.898 1380.59 376.898 1373.48 Q376.898 1366.35 375.069 1362.81 Q373.263 1359.24 369.629 1359.24 M369.629 1355.54 Q375.439 1355.54 378.495 1360.15 Q381.574 1364.73 381.574 1373.48 Q381.574 1382.21 378.495 1386.81 Q375.439 1391.4 369.629 1391.4 Q363.819 1391.4 360.74 1386.81 Q357.685 1382.21 357.685 1373.48 Q357.685 1364.73 360.74 1360.15 Q363.819 1355.54 369.629 1355.54 Z" fill="#000000" fill-rule="nonzero" fill-opacity="1" /><path clip-path="url(#clip760)" d="M394.25 1338.55 L384.658 1353.54 L394.25 1353.54 L394.25 1338.55 M393.253 1335.24 L398.03 1335.24 L398.03 1353.54 L402.036 1353.54 L402.036 1356.7 L398.03 1356.7 L398.03 1363.32 L394.25 1363.32 L394.25 1356.7 L381.574 1356.7 L381.574 1353.03 L393.253 1335.24 Z" fill="#000000" fill-rule="nonzero" fill-opacity="1" /><path clip-path="url(#clip760)" d="M114.26 1184.69 L143.936 1184.69 L143.936 1188.62 L114.26 1188.62 L114.26 1184.69 Z" fill="#000000" fill-rule="nonzero" fill-opacity="1" /><path clip-path="url(#clip760)" d="M158.056 1197.58 L174.376 1197.58 L174.376 1201.52 L152.431 1201.52 L152.431 1197.58 Q155.093 1194.83 159.677 1190.2 Q164.283 1185.55 165.464 1184.2 Q167.709 1181.68 168.589 1179.94 Q169.491 1178.18 169.491 1176.49 Q169.491 1173.74 167.547 1172 Q165.626 1170.27 162.524 1170.27 Q160.325 1170.27 157.871 1171.03 Q155.44 1171.8 152.663 1173.35 L152.663 1168.62 Q155.487 1167.49 157.94 1166.91 Q160.394 1166.33 162.431 1166.33 Q167.802 1166.33 170.996 1169.02 Q174.19 1171.7 174.19 1176.19 Q174.19 1178.32 173.38 1180.24 Q172.593 1182.14 170.487 1184.74 Q169.908 1185.41 166.806 1188.62 Q163.704 1191.82 158.056 1197.58 Z" fill="#000000" fill-rule="nonzero" fill-opacity="1" /><path clip-path="url(#clip760)" d="M184.19 1195.64 L189.075 1195.64 L189.075 1201.52 L184.19 1201.52 L184.19 1195.64 Z" fill="#000000" fill-rule="nonzero" fill-opacity="1" /><path clip-path="url(#clip760)" d="M209.26 1170.04 Q205.649 1170.04 203.82 1173.6 Q202.014 1177.14 202.014 1184.27 Q202.014 1191.38 203.82 1194.94 Q205.649 1198.49 209.26 1198.49 Q212.894 1198.49 214.699 1194.94 Q216.528 1191.38 216.528 1184.27 Q216.528 1177.14 214.699 1173.6 Q212.894 1170.04 209.26 1170.04 M209.26 1166.33 Q215.07 1166.33 218.125 1170.94 Q221.204 1175.52 221.204 1184.27 Q221.204 1193 218.125 1197.61 Q215.07 1202.19 209.26 1202.19 Q203.449 1202.19 200.371 1197.61 Q197.315 1193 197.315 1184.27 Q197.315 1175.52 200.371 1170.94 Q203.449 1166.33 209.26 1166.33 Z" fill="#000000" fill-rule="nonzero" fill-opacity="1" /><path clip-path="url(#clip760)" d="M239.422 1170.04 Q235.81 1170.04 233.982 1173.6 Q232.176 1177.14 232.176 1184.27 Q232.176 1191.38 233.982 1194.94 Q235.81 1198.49 239.422 1198.49 Q243.056 1198.49 244.861 1194.94 Q246.69 1191.38 246.69 1184.27 Q246.69 1177.14 244.861 1173.6 Q243.056 1170.04 239.422 1170.04 M239.422 1166.33 Q245.232 1166.33 248.287 1170.94 Q251.366 1175.52 251.366 1184.27 Q251.366 1193 248.287 1197.61 Q245.232 1202.19 239.422 1202.19 Q233.611 1202.19 230.533 1197.61 Q227.477 1193 227.477 1184.27 Q227.477 1175.52 230.533 1170.94 Q233.611 1166.33 239.422 1166.33 Z" fill="#000000" fill-rule="nonzero" fill-opacity="1" /><path clip-path="url(#clip760)" d="M269.583 1170.04 Q265.972 1170.04 264.144 1173.6 Q262.338 1177.14 262.338 1184.27 Q262.338 1191.38 264.144 1194.94 Q265.972 1198.49 269.583 1198.49 Q273.218 1198.49 275.023 1194.94 Q276.852 1191.38 276.852 1184.27 Q276.852 1177.14 275.023 1173.6 Q273.218 1170.04 269.583 1170.04 M269.583 1166.33 Q275.394 1166.33 278.449 1170.94 Q281.528 1175.52 281.528 1184.27 Q281.528 1193 278.449 1197.61 Q275.394 1202.19 269.583 1202.19 Q263.773 1202.19 260.695 1197.61 Q257.639 1193 257.639 1184.27 Q257.639 1175.52 260.695 1170.94 Q263.773 1166.33 269.583 1166.33 Z" fill="#000000" fill-rule="nonzero" fill-opacity="1" /><path clip-path="url(#clip760)" d="M317.916 1176.05 L307.338 1186.68 L317.916 1197.26 L315.162 1200.06 L304.537 1189.43 L293.912 1200.06 L291.181 1197.26 L301.736 1186.68 L291.181 1176.05 L293.912 1173.25 L304.537 1183.88 L315.162 1173.25 L317.916 1176.05 Z" fill="#000000" fill-rule="nonzero" fill-opacity="1" /><path clip-path="url(#clip760)" d="M330.278 1197.58 L337.916 1197.58 L337.916 1171.22 L329.606 1172.88 L329.606 1168.62 L337.87 1166.96 L342.546 1166.96 L342.546 1197.58 L350.185 1197.58 L350.185 1201.52 L330.278 1201.52 L330.278 1197.58 Z" fill="#000000" fill-rule="nonzero" fill-opacity="1" /><path clip-path="url(#clip760)" d="M369.629 1170.04 Q366.018 1170.04 364.189 1173.6 Q362.384 1177.14 362.384 1184.27 Q362.384 1191.38 364.189 1194.94 Q366.018 1198.49 369.629 1198.49 Q373.263 1198.49 375.069 1194.94 Q376.898 1191.38 376.898 1184.27 Q376.898 1177.14 375.069 1173.6 Q373.263 1170.04 369.629 1170.04 M369.629 1166.33 Q375.439 1166.33 378.495 1170.94 Q381.574 1175.52 381.574 1184.27 Q381.574 1193 378.495 1197.61 Q375.439 1202.19 369.629 1202.19 Q363.819 1202.19 360.74 1197.61 Q357.685 1193 357.685 1184.27 Q357.685 1175.52 360.74 1170.94 Q363.819 1166.33 369.629 1166.33 Z" fill="#000000" fill-rule="nonzero" fill-opacity="1" /><path clip-path="url(#clip760)" d="M394.25 1149.34 L384.658 1164.33 L394.25 1164.33 L394.25 1149.34 M393.253 1146.03 L398.03 1146.03 L398.03 1164.33 L402.036 1164.33 L402.036 1167.49 L398.03 1167.49 L398.03 1174.11 L394.25 1174.11 L394.25 1167.49 L381.574 1167.49 L381.574 1163.82 L393.253 1146.03 Z" fill="#000000" fill-rule="nonzero" fill-opacity="1" /><path clip-path="url(#clip760)" d="M114.26 995.481 L143.936 995.481 L143.936 999.416 L114.26 999.416 L114.26 995.481 Z" fill="#000000" fill-rule="nonzero" fill-opacity="1" /><path clip-path="url(#clip760)" d="M154.839 1008.37 L162.477 1008.37 L162.477 982.009 L154.167 983.675 L154.167 979.416 L162.431 977.749 L167.107 977.749 L167.107 1008.37 L174.746 1008.37 L174.746 1012.31 L154.839 1012.31 L154.839 1008.37 Z" fill="#000000" fill-rule="nonzero" fill-opacity="1" /><path clip-path="url(#clip760)" d="M184.19 1006.43 L189.075 1006.43 L189.075 1012.31 L184.19 1012.31 L184.19 1006.43 Z" fill="#000000" fill-rule="nonzero" fill-opacity="1" /><path clip-path="url(#clip760)" d="M198.079 977.749 L220.301 977.749 L220.301 979.74 L207.755 1012.31 L202.871 1012.31 L214.676 981.685 L198.079 981.685 L198.079 977.749 Z" fill="#000000" fill-rule="nonzero" fill-opacity="1" /><path clip-path="url(#clip760)" d="M229.468 977.749 L247.824 977.749 L247.824 981.685 L233.75 981.685 L233.75 990.157 Q234.769 989.809 235.787 989.647 Q236.806 989.462 237.824 989.462 Q243.611 989.462 246.991 992.634 Q250.371 995.805 250.371 1001.22 Q250.371 1006.8 246.898 1009.9 Q243.426 1012.98 237.107 1012.98 Q234.931 1012.98 232.662 1012.61 Q230.417 1012.24 228.01 1011.5 L228.01 1006.8 Q230.093 1007.93 232.315 1008.49 Q234.537 1009.05 237.014 1009.05 Q241.019 1009.05 243.357 1006.94 Q245.695 1004.83 245.695 1001.22 Q245.695 997.61 243.357 995.504 Q241.019 993.397 237.014 993.397 Q235.139 993.397 233.264 993.814 Q231.412 994.231 229.468 995.11 L229.468 977.749 Z" fill="#000000" fill-rule="nonzero" fill-opacity="1" /><path clip-path="url(#clip760)" d="M269.583 980.828 Q265.972 980.828 264.144 984.393 Q262.338 987.934 262.338 995.064 Q262.338 1002.17 264.144 1005.74 Q265.972 1009.28 269.583 1009.28 Q273.218 1009.28 275.023 1005.74 Q276.852 1002.17 276.852 995.064 Q276.852 987.934 275.023 984.393 Q273.218 980.828 269.583 980.828 M269.583 977.124 Q275.394 977.124 278.449 981.731 Q281.528 986.314 281.528 995.064 Q281.528 1003.79 278.449 1008.4 Q275.394 1012.98 269.583 1012.98 Q263.773 1012.98 260.695 1008.4 Q257.639 1003.79 257.639 995.064 Q257.639 986.314 260.695 981.731 Q263.773 977.124 269.583 977.124 Z" fill="#000000" fill-rule="nonzero" fill-opacity="1" /><path clip-path="url(#clip760)" d="M317.916 986.847 L307.338 997.471 L317.916 1008.05 L315.162 1010.85 L304.537 1000.23 L293.912 1010.85 L291.181 1008.05 L301.736 997.471 L291.181 986.847 L293.912 984.046 L304.537 994.671 L315.162 984.046 L317.916 986.847 Z" fill="#000000" fill-rule="nonzero" fill-opacity="1" /><path clip-path="url(#clip760)" d="M330.278 1008.37 L337.916 1008.37 L337.916 982.009 L329.606 983.675 L329.606 979.416 L337.87 977.749 L342.546 977.749 L342.546 1008.37 L350.185 1008.37 L350.185 1012.31 L330.278 1012.31 L330.278 1008.37 Z" fill="#000000" fill-rule="nonzero" fill-opacity="1" /><path clip-path="url(#clip760)" d="M369.629 980.828 Q366.018 980.828 364.189 984.393 Q362.384 987.934 362.384 995.064 Q362.384 1002.17 364.189 1005.74 Q366.018 1009.28 369.629 1009.28 Q373.263 1009.28 375.069 1005.74 Q376.898 1002.17 376.898 995.064 Q376.898 987.934 375.069 984.393 Q373.263 980.828 369.629 980.828 M369.629 977.124 Q375.439 977.124 378.495 981.731 Q381.574 986.314 381.574 995.064 Q381.574 1003.79 378.495 1008.4 Q375.439 1012.98 369.629 1012.98 Q363.819 1012.98 360.74 1008.4 Q357.685 1003.79 357.685 995.064 Q357.685 986.314 360.74 981.731 Q363.819 977.124 369.629 977.124 Z" fill="#000000" fill-rule="nonzero" fill-opacity="1" /><path clip-path="url(#clip760)" d="M394.25 960.129 L384.658 975.119 L394.25 975.119 L394.25 960.129 M393.253 956.819 L398.03 956.819 L398.03 975.119 L402.036 975.119 L402.036 978.279 L398.03 978.279 L398.03 984.899 L394.25 984.899 L394.25 978.279 L381.574 978.279 L381.574 974.611 L393.253 956.819 Z" fill="#000000" fill-rule="nonzero" fill-opacity="1" /><path clip-path="url(#clip760)" d="M114.26 806.272 L143.936 806.272 L143.936 810.207 L114.26 810.207 L114.26 806.272 Z" fill="#000000" fill-rule="nonzero" fill-opacity="1" /><path clip-path="url(#clip760)" d="M154.839 819.166 L162.477 819.166 L162.477 792.8 L154.167 794.467 L154.167 790.208 L162.431 788.541 L167.107 788.541 L167.107 819.166 L174.746 819.166 L174.746 823.101 L154.839 823.101 L154.839 819.166 Z" fill="#000000" fill-rule="nonzero" fill-opacity="1" /><path clip-path="url(#clip760)" d="M184.19 817.221 L189.075 817.221 L189.075 823.101 L184.19 823.101 L184.19 817.221 Z" fill="#000000" fill-rule="nonzero" fill-opacity="1" /><path clip-path="url(#clip760)" d="M199.306 788.541 L217.662 788.541 L217.662 792.476 L203.588 792.476 L203.588 800.948 Q204.607 800.601 205.625 800.439 Q206.644 800.254 207.662 800.254 Q213.449 800.254 216.829 803.425 Q220.209 806.596 220.209 812.013 Q220.209 817.592 216.736 820.694 Q213.264 823.772 206.945 823.772 Q204.769 823.772 202.5 823.402 Q200.255 823.031 197.848 822.291 L197.848 817.592 Q199.931 818.726 202.153 819.281 Q204.375 819.837 206.852 819.837 Q210.857 819.837 213.195 817.731 Q215.533 815.624 215.533 812.013 Q215.533 808.402 213.195 806.295 Q210.857 804.189 206.852 804.189 Q204.977 804.189 203.102 804.606 Q201.25 805.022 199.306 805.902 L199.306 788.541 Z" fill="#000000" fill-rule="nonzero" fill-opacity="1" /><path clip-path="url(#clip760)" d="M239.422 791.62 Q235.81 791.62 233.982 795.184 Q232.176 798.726 232.176 805.856 Q232.176 812.962 233.982 816.527 Q235.81 820.069 239.422 820.069 Q243.056 820.069 244.861 816.527 Q246.69 812.962 246.69 805.856 Q246.69 798.726 244.861 795.184 Q243.056 791.62 239.422 791.62 M239.422 787.916 Q245.232 787.916 248.287 792.522 Q251.366 797.106 251.366 805.856 Q251.366 814.582 248.287 819.189 Q245.232 823.772 239.422 823.772 Q233.611 823.772 230.533 819.189 Q227.477 814.582 227.477 805.856 Q227.477 797.106 230.533 792.522 Q233.611 787.916 239.422 787.916 Z" fill="#000000" fill-rule="nonzero" fill-opacity="1" /><path clip-path="url(#clip760)" d="M269.583 791.62 Q265.972 791.62 264.144 795.184 Q262.338 798.726 262.338 805.856 Q262.338 812.962 264.144 816.527 Q265.972 820.069 269.583 820.069 Q273.218 820.069 275.023 816.527 Q276.852 812.962 276.852 805.856 Q276.852 798.726 275.023 795.184 Q273.218 791.62 269.583 791.62 M269.583 787.916 Q275.394 787.916 278.449 792.522 Q281.528 797.106 281.528 805.856 Q281.528 814.582 278.449 819.189 Q275.394 823.772 269.583 823.772 Q263.773 823.772 260.695 819.189 Q257.639 814.582 257.639 805.856 Q257.639 797.106 260.695 792.522 Q263.773 787.916 269.583 787.916 Z" fill="#000000" fill-rule="nonzero" fill-opacity="1" /><path clip-path="url(#clip760)" d="M317.916 797.638 L307.338 808.263 L317.916 818.842 L315.162 821.643 L304.537 811.018 L293.912 821.643 L291.181 818.842 L301.736 808.263 L291.181 797.638 L293.912 794.837 L304.537 805.462 L315.162 794.837 L317.916 797.638 Z" fill="#000000" fill-rule="nonzero" fill-opacity="1" /><path clip-path="url(#clip760)" d="M330.278 819.166 L337.916 819.166 L337.916 792.8 L329.606 794.467 L329.606 790.208 L337.87 788.541 L342.546 788.541 L342.546 819.166 L350.185 819.166 L350.185 823.101 L330.278 823.101 L330.278 819.166 Z" fill="#000000" fill-rule="nonzero" fill-opacity="1" /><path clip-path="url(#clip760)" d="M369.629 791.62 Q366.018 791.62 364.189 795.184 Q362.384 798.726 362.384 805.856 Q362.384 812.962 364.189 816.527 Q366.018 820.069 369.629 820.069 Q373.263 820.069 375.069 816.527 Q376.898 812.962 376.898 805.856 Q376.898 798.726 375.069 795.184 Q373.263 791.62 369.629 791.62 M369.629 787.916 Q375.439 787.916 378.495 792.522 Q381.574 797.106 381.574 805.856 Q381.574 814.582 378.495 819.189 Q375.439 823.772 369.629 823.772 Q363.819 823.772 360.74 819.189 Q357.685 814.582 357.685 805.856 Q357.685 797.106 360.74 792.522 Q363.819 787.916 369.629 787.916 Z" fill="#000000" fill-rule="nonzero" fill-opacity="1" /><path clip-path="url(#clip760)" d="M394.25 770.921 L384.658 785.91 L394.25 785.91 L394.25 770.921 M393.253 767.611 L398.03 767.611 L398.03 785.91 L402.036 785.91 L402.036 789.07 L398.03 789.07 L398.03 795.691 L394.25 795.691 L394.25 789.07 L381.574 789.07 L381.574 785.403 L393.253 767.611 Z" fill="#000000" fill-rule="nonzero" fill-opacity="1" /><path clip-path="url(#clip760)" d="M114.26 617.064 L143.936 617.064 L143.936 620.999 L114.26 620.999 L114.26 617.064 Z" fill="#000000" fill-rule="nonzero" fill-opacity="1" /><path clip-path="url(#clip760)" d="M154.839 629.957 L162.477 629.957 L162.477 603.592 L154.167 605.258 L154.167 600.999 L162.431 599.332 L167.107 599.332 L167.107 629.957 L174.746 629.957 L174.746 633.892 L154.839 633.892 L154.839 629.957 Z" fill="#000000" fill-rule="nonzero" fill-opacity="1" /><path clip-path="url(#clip760)" d="M184.19 628.013 L189.075 628.013 L189.075 633.892 L184.19 633.892 L184.19 628.013 Z" fill="#000000" fill-rule="nonzero" fill-opacity="1" /><path clip-path="url(#clip760)" d="M203.287 629.957 L219.607 629.957 L219.607 633.892 L197.662 633.892 L197.662 629.957 Q200.325 627.203 204.908 622.573 Q209.514 617.92 210.695 616.578 Q212.94 614.055 213.82 612.318 Q214.723 610.559 214.723 608.869 Q214.723 606.115 212.778 604.379 Q210.857 602.643 207.755 602.643 Q205.556 602.643 203.102 603.407 Q200.672 604.17 197.894 605.721 L197.894 600.999 Q200.718 599.865 203.172 599.286 Q205.625 598.707 207.662 598.707 Q213.033 598.707 216.227 601.393 Q219.422 604.078 219.422 608.569 Q219.422 610.698 218.611 612.619 Q217.824 614.518 215.718 617.11 Q215.139 617.781 212.037 620.999 Q208.936 624.193 203.287 629.957 Z" fill="#000000" fill-rule="nonzero" fill-opacity="1" /><path clip-path="url(#clip760)" d="M229.468 599.332 L247.824 599.332 L247.824 603.268 L233.75 603.268 L233.75 611.74 Q234.769 611.393 235.787 611.231 Q236.806 611.045 237.824 611.045 Q243.611 611.045 246.991 614.217 Q250.371 617.388 250.371 622.805 Q250.371 628.383 246.898 631.485 Q243.426 634.564 237.107 634.564 Q234.931 634.564 232.662 634.193 Q230.417 633.823 228.01 633.082 L228.01 628.383 Q230.093 629.517 232.315 630.073 Q234.537 630.629 237.014 630.629 Q241.019 630.629 243.357 628.522 Q245.695 626.416 245.695 622.805 Q245.695 619.193 243.357 617.087 Q241.019 614.981 237.014 614.981 Q235.139 614.981 233.264 615.397 Q231.412 615.814 229.468 616.693 L229.468 599.332 Z" fill="#000000" fill-rule="nonzero" fill-opacity="1" /><path clip-path="url(#clip760)" d="M269.583 602.411 Q265.972 602.411 264.144 605.976 Q262.338 609.518 262.338 616.647 Q262.338 623.754 264.144 627.318 Q265.972 630.86 269.583 630.86 Q273.218 630.86 275.023 627.318 Q276.852 623.754 276.852 616.647 Q276.852 609.518 275.023 605.976 Q273.218 602.411 269.583 602.411 M269.583 598.707 Q275.394 598.707 278.449 603.314 Q281.528 607.897 281.528 616.647 Q281.528 625.374 278.449 629.98 Q275.394 634.564 269.583 634.564 Q263.773 634.564 260.695 629.98 Q257.639 625.374 257.639 616.647 Q257.639 607.897 260.695 603.314 Q263.773 598.707 269.583 598.707 Z" fill="#000000" fill-rule="nonzero" fill-opacity="1" /><path clip-path="url(#clip760)" d="M317.916 608.43 L307.338 619.055 L317.916 629.633 L315.162 632.434 L304.537 621.809 L293.912 632.434 L291.181 629.633 L301.736 619.055 L291.181 608.43 L293.912 605.629 L304.537 616.254 L315.162 605.629 L317.916 608.43 Z" fill="#000000" fill-rule="nonzero" fill-opacity="1" /><path clip-path="url(#clip760)" d="M330.278 629.957 L337.916 629.957 L337.916 603.592 L329.606 605.258 L329.606 600.999 L337.87 599.332 L342.546 599.332 L342.546 629.957 L350.185 629.957 L350.185 633.892 L330.278 633.892 L330.278 629.957 Z" fill="#000000" fill-rule="nonzero" fill-opacity="1" /><path clip-path="url(#clip760)" d="M369.629 602.411 Q366.018 602.411 364.189 605.976 Q362.384 609.518 362.384 616.647 Q362.384 623.754 364.189 627.318 Q366.018 630.86 369.629 630.86 Q373.263 630.86 375.069 627.318 Q376.898 623.754 376.898 616.647 Q376.898 609.518 375.069 605.976 Q373.263 602.411 369.629 602.411 M369.629 598.707 Q375.439 598.707 378.495 603.314 Q381.574 607.897 381.574 616.647 Q381.574 625.374 378.495 629.98 Q375.439 634.564 369.629 634.564 Q363.819 634.564 360.74 629.98 Q357.685 625.374 357.685 616.647 Q357.685 607.897 360.74 603.314 Q363.819 598.707 369.629 598.707 Z" fill="#000000" fill-rule="nonzero" fill-opacity="1" /><path clip-path="url(#clip760)" d="M394.25 581.712 L384.658 596.702 L394.25 596.702 L394.25 581.712 M393.253 578.402 L398.03 578.402 L398.03 596.702 L402.036 596.702 L402.036 599.862 L398.03 599.862 L398.03 606.482 L394.25 606.482 L394.25 599.862 L381.574 599.862 L381.574 596.194 L393.253 578.402 Z" fill="#000000" fill-rule="nonzero" fill-opacity="1" /><path clip-path="url(#clip760)" d="M114.26 427.855 L143.936 427.855 L143.936 431.791 L114.26 431.791 L114.26 427.855 Z" fill="#000000" fill-rule="nonzero" fill-opacity="1" /><path clip-path="url(#clip760)" d="M154.839 440.749 L162.477 440.749 L162.477 414.383 L154.167 416.05 L154.167 411.791 L162.431 410.124 L167.107 410.124 L167.107 440.749 L174.746 440.749 L174.746 444.684 L154.839 444.684 L154.839 440.749 Z" fill="#000000" fill-rule="nonzero" fill-opacity="1" /><path clip-path="url(#clip760)" d="M184.19 438.804 L189.075 438.804 L189.075 444.684 L184.19 444.684 L184.19 438.804 Z" fill="#000000" fill-rule="nonzero" fill-opacity="1" /><path clip-path="url(#clip760)" d="M209.26 413.203 Q205.649 413.203 203.82 416.767 Q202.014 420.309 202.014 427.439 Q202.014 434.545 203.82 438.11 Q205.649 441.652 209.26 441.652 Q212.894 441.652 214.699 438.11 Q216.528 434.545 216.528 427.439 Q216.528 420.309 214.699 416.767 Q212.894 413.203 209.26 413.203 M209.26 409.499 Q215.07 409.499 218.125 414.105 Q221.204 418.689 221.204 427.439 Q221.204 436.166 218.125 440.772 Q215.07 445.355 209.26 445.355 Q203.449 445.355 200.371 440.772 Q197.315 436.166 197.315 427.439 Q197.315 418.689 200.371 414.105 Q203.449 409.499 209.26 409.499 Z" fill="#000000" fill-rule="nonzero" fill-opacity="1" /><path clip-path="url(#clip760)" d="M239.422 413.203 Q235.81 413.203 233.982 416.767 Q232.176 420.309 232.176 427.439 Q232.176 434.545 233.982 438.11 Q235.81 441.652 239.422 441.652 Q243.056 441.652 244.861 438.11 Q246.69 434.545 246.69 427.439 Q246.69 420.309 244.861 416.767 Q243.056 413.203 239.422 413.203 M239.422 409.499 Q245.232 409.499 248.287 414.105 Q251.366 418.689 251.366 427.439 Q251.366 436.166 248.287 440.772 Q245.232 445.355 239.422 445.355 Q233.611 445.355 230.533 440.772 Q227.477 436.166 227.477 427.439 Q227.477 418.689 230.533 414.105 Q233.611 409.499 239.422 409.499 Z" fill="#000000" fill-rule="nonzero" fill-opacity="1" /><path clip-path="url(#clip760)" d="M269.583 413.203 Q265.972 413.203 264.144 416.767 Q262.338 420.309 262.338 427.439 Q262.338 434.545 264.144 438.11 Q265.972 441.652 269.583 441.652 Q273.218 441.652 275.023 438.11 Q276.852 434.545 276.852 427.439 Q276.852 420.309 275.023 416.767 Q273.218 413.203 269.583 413.203 M269.583 409.499 Q275.394 409.499 278.449 414.105 Q281.528 418.689 281.528 427.439 Q281.528 436.166 278.449 440.772 Q275.394 445.355 269.583 445.355 Q263.773 445.355 260.695 440.772 Q257.639 436.166 257.639 427.439 Q257.639 418.689 260.695 414.105 Q263.773 409.499 269.583 409.499 Z" fill="#000000" fill-rule="nonzero" fill-opacity="1" /><path clip-path="url(#clip760)" d="M317.916 419.221 L307.338 429.846 L317.916 440.425 L315.162 443.226 L304.537 432.601 L293.912 443.226 L291.181 440.425 L301.736 429.846 L291.181 419.221 L293.912 416.42 L304.537 427.045 L315.162 416.42 L317.916 419.221 Z" fill="#000000" fill-rule="nonzero" fill-opacity="1" /><path clip-path="url(#clip760)" d="M330.278 440.749 L337.916 440.749 L337.916 414.383 L329.606 416.05 L329.606 411.791 L337.87 410.124 L342.546 410.124 L342.546 440.749 L350.185 440.749 L350.185 444.684 L330.278 444.684 L330.278 440.749 Z" fill="#000000" fill-rule="nonzero" fill-opacity="1" /><path clip-path="url(#clip760)" d="M369.629 413.203 Q366.018 413.203 364.189 416.767 Q362.384 420.309 362.384 427.439 Q362.384 434.545 364.189 438.11 Q366.018 441.652 369.629 441.652 Q373.263 441.652 375.069 438.11 Q376.898 434.545 376.898 427.439 Q376.898 420.309 375.069 416.767 Q373.263 413.203 369.629 413.203 M369.629 409.499 Q375.439 409.499 378.495 414.105 Q381.574 418.689 381.574 427.439 Q381.574 436.166 378.495 440.772 Q375.439 445.355 369.629 445.355 Q363.819 445.355 360.74 440.772 Q357.685 436.166 357.685 427.439 Q357.685 418.689 360.74 414.105 Q363.819 409.499 369.629 409.499 Z" fill="#000000" fill-rule="nonzero" fill-opacity="1" /><path clip-path="url(#clip760)" d="M394.25 392.504 L384.658 407.494 L394.25 407.494 L394.25 392.504 M393.253 389.194 L398.03 389.194 L398.03 407.494 L402.036 407.494 L402.036 410.653 L398.03 410.653 L398.03 417.274 L394.25 417.274 L394.25 410.653 L381.574 410.653 L381.574 406.986 L393.253 389.194 Z" fill="#000000" fill-rule="nonzero" fill-opacity="1" /><path clip-path="url(#clip760)" d="M116.235 238.647 L145.911 238.647 L145.911 242.582 L116.235 242.582 L116.235 238.647 Z" fill="#000000" fill-rule="nonzero" fill-opacity="1" /><path clip-path="url(#clip760)" d="M154.823 220.916 L177.045 220.916 L177.045 222.906 L164.499 255.476 L159.614 255.476 L171.42 224.851 L154.823 224.851 L154.823 220.916 Z" fill="#000000" fill-rule="nonzero" fill-opacity="1" /><path clip-path="url(#clip760)" d="M186.165 249.596 L191.049 249.596 L191.049 255.476 L186.165 255.476 L186.165 249.596 Z" fill="#000000" fill-rule="nonzero" fill-opacity="1" /><path clip-path="url(#clip760)" d="M201.281 220.916 L219.637 220.916 L219.637 224.851 L205.563 224.851 L205.563 233.323 Q206.582 232.976 207.6 232.814 Q208.619 232.628 209.637 232.628 Q215.424 232.628 218.804 235.8 Q222.183 238.971 222.183 244.388 Q222.183 249.966 218.711 253.068 Q215.239 256.147 208.92 256.147 Q206.744 256.147 204.475 255.776 Q202.23 255.406 199.822 254.665 L199.822 249.966 Q201.906 251.101 204.128 251.656 Q206.35 252.212 208.827 252.212 Q212.832 252.212 215.17 250.105 Q217.508 247.999 217.508 244.388 Q217.508 240.777 215.17 238.67 Q212.832 236.564 208.827 236.564 Q206.952 236.564 205.077 236.98 Q203.225 237.397 201.281 238.277 L201.281 220.916 Z" fill="#000000" fill-rule="nonzero" fill-opacity="1" /><path clip-path="url(#clip760)" d="M241.396 223.994 Q237.785 223.994 235.957 227.559 Q234.151 231.101 234.151 238.23 Q234.151 245.337 235.957 248.901 Q237.785 252.443 241.396 252.443 Q245.031 252.443 246.836 248.901 Q248.665 245.337 248.665 238.23 Q248.665 231.101 246.836 227.559 Q245.031 223.994 241.396 223.994 M241.396 220.291 Q247.206 220.291 250.262 224.897 Q253.341 229.48 253.341 238.23 Q253.341 246.957 250.262 251.564 Q247.206 256.147 241.396 256.147 Q235.586 256.147 232.507 251.564 Q229.452 246.957 229.452 238.23 Q229.452 229.48 232.507 224.897 Q235.586 220.291 241.396 220.291 Z" fill="#000000" fill-rule="nonzero" fill-opacity="1" /><path clip-path="url(#clip760)" d="M271.558 223.994 Q267.947 223.994 266.118 227.559 Q264.313 231.101 264.313 238.23 Q264.313 245.337 266.118 248.901 Q267.947 252.443 271.558 252.443 Q275.192 252.443 276.998 248.901 Q278.827 245.337 278.827 238.23 Q278.827 231.101 276.998 227.559 Q275.192 223.994 271.558 223.994 M271.558 220.291 Q277.368 220.291 280.424 224.897 Q283.503 229.48 283.503 238.23 Q283.503 246.957 280.424 251.564 Q277.368 256.147 271.558 256.147 Q265.748 256.147 262.669 251.564 Q259.614 246.957 259.614 238.23 Q259.614 229.48 262.669 224.897 Q265.748 220.291 271.558 220.291 Z" fill="#000000" fill-rule="nonzero" fill-opacity="1" /><path clip-path="url(#clip760)" d="M319.891 230.013 L309.313 240.638 L319.891 251.216 L317.137 254.017 L306.512 243.392 L295.887 254.017 L293.155 251.216 L303.711 240.638 L293.155 230.013 L295.887 227.212 L306.512 237.837 L317.137 227.212 L319.891 230.013 Z" fill="#000000" fill-rule="nonzero" fill-opacity="1" /><path clip-path="url(#clip760)" d="M332.252 251.54 L339.891 251.54 L339.891 225.175 L331.581 226.841 L331.581 222.582 L339.845 220.916 L344.521 220.916 L344.521 251.54 L352.16 251.54 L352.16 255.476 L332.252 255.476 L332.252 251.54 Z" fill="#000000" fill-rule="nonzero" fill-opacity="1" /><path clip-path="url(#clip760)" d="M371.604 223.994 Q367.993 223.994 366.164 227.559 Q364.359 231.101 364.359 238.23 Q364.359 245.337 366.164 248.901 Q367.993 252.443 371.604 252.443 Q375.238 252.443 377.044 248.901 Q378.872 245.337 378.872 238.23 Q378.872 231.101 377.044 227.559 Q375.238 223.994 371.604 223.994 M371.604 220.291 Q377.414 220.291 380.47 224.897 Q383.548 229.48 383.548 238.23 Q383.548 246.957 380.47 251.564 Q377.414 256.147 371.604 256.147 Q365.794 256.147 362.715 251.564 Q359.66 246.957 359.66 238.23 Q359.66 229.48 362.715 224.897 Q365.794 220.291 371.604 220.291 Z" fill="#000000" fill-rule="nonzero" fill-opacity="1" /><path clip-path="url(#clip760)" d="M396.244 212.925 Q398.971 213.508 400.494 215.351 Q402.036 217.194 402.036 219.903 Q402.036 224.059 399.178 226.335 Q396.319 228.611 391.053 228.611 Q389.285 228.611 387.404 228.253 Q385.542 227.915 383.548 227.219 L383.548 223.551 Q385.128 224.473 387.009 224.943 Q388.89 225.413 390.94 225.413 Q394.513 225.413 396.375 224.003 Q398.256 222.592 398.256 219.903 Q398.256 217.42 396.507 216.028 Q394.777 214.618 391.673 214.618 L388.401 214.618 L388.401 211.495 L391.824 211.495 Q394.626 211.495 396.112 210.386 Q397.598 209.257 397.598 207.151 Q397.598 204.988 396.056 203.841 Q394.532 202.675 391.673 202.675 Q390.112 202.675 388.326 203.013 Q386.539 203.352 384.395 204.066 L384.395 200.681 Q386.558 200.079 388.438 199.778 Q390.338 199.477 392.012 199.477 Q396.338 199.477 398.858 201.452 Q401.378 203.408 401.378 206.756 Q401.378 209.088 400.043 210.706 Q398.707 212.304 396.244 212.925 Z" fill="#000000" fill-rule="nonzero" fill-opacity="1" /><path clip-path="url(#clip760)" d="M16.4842 816.375 L16.4842 786.329 L21.895 786.329 L21.895 809.945 L35.9632 809.945 L35.9632 787.315 L41.3741 787.315 L41.3741 809.945 L58.5933 809.945 L58.5933 785.756 L64.0042 785.756 L64.0042 816.375 L16.4842 816.375 Z" fill="#000000" fill-rule="nonzero" fill-opacity="1" /><path clip-path="url(#clip760)" d="M16.4842 775.189 L16.4842 768.759 L58.5933 768.759 L58.5933 745.62 L64.0042 745.62 L64.0042 775.189 L16.4842 775.189 Z" fill="#000000" fill-rule="nonzero" fill-opacity="1" /><path clip-path="url(#clip760)" d="M41.3104 732.443 L58.7206 732.443 L58.7206 722.13 Q58.7206 716.942 56.5881 714.46 Q54.4238 711.945 49.9996 711.945 Q45.5436 711.945 43.4429 714.46 Q41.3104 716.942 41.3104 722.13 L41.3104 732.443 M21.7677 732.443 L36.0905 732.443 L36.0905 722.926 Q36.0905 718.216 34.34 715.924 Q32.5576 713.6 28.9291 713.6 Q25.3325 713.6 23.5501 715.924 Q21.7677 718.216 21.7677 722.926 L21.7677 732.443 M16.4842 738.872 L16.4842 722.449 Q16.4842 715.096 19.5397 711.118 Q22.5952 707.139 28.2289 707.139 Q32.5894 707.139 35.1675 709.176 Q37.7456 711.213 38.3822 715.16 Q39.4007 710.418 42.6472 707.808 Q45.8619 705.166 50.6998 705.166 Q57.0655 705.166 60.5348 709.495 Q64.0042 713.823 64.0042 721.812 L64.0042 738.872 L16.4842 738.872 Z" fill="#000000" fill-rule="nonzero" fill-opacity="1" /><path clip-path="url(#clip760)" d="M20.8447 676.011 Q20.8447 683.013 26.0645 687.151 Q31.2844 691.257 40.2919 691.257 Q49.2675 691.257 54.4874 687.151 Q59.7073 683.013 59.7073 676.011 Q59.7073 669.009 54.4874 664.935 Q49.2675 660.829 40.2919 660.829 Q31.2844 660.829 26.0645 664.935 Q20.8447 669.009 20.8447 676.011 M15.6248 676.011 Q15.6248 666.017 22.3406 660.033 Q29.0246 654.049 40.2919 654.049 Q51.5274 654.049 58.2432 660.033 Q64.9272 666.017 64.9272 676.011 Q64.9272 686.037 58.2432 692.052 Q51.5592 698.036 40.2919 698.036 Q29.0246 698.036 22.3406 692.052 Q15.6248 686.037 15.6248 676.011 Z" fill="#000000" fill-rule="nonzero" fill-opacity="1" /><polyline clip-path="url(#clip761)" style="stroke:#009af9; stroke-linecap:round; stroke-linejoin:round; stroke-width:4; stroke-opacity:1; fill:none" points="544.85,1167.67 611.355,412.032 669.021,262.483 726.253,223.165 783.537,206.249 840.735,180.273 897.509,166.915 954.71,158.191 1012.1,154.76 1069.12,153.839 1126.39,145.119 1183.11,147.155 1240.73,147.731 1298.03,139.655 1355.35,134.385 1412.64,129.752 1469.34,125.667 1525.82,123.441 1582.17,120.846 1638.43,121.495 1694.28,115.802 1749.82,111.379 1804.8,107.54 1859.69,106.705 1914.55,103.104 1969.52,101.676 2024.23,98.9165 2079.19,96.2149 2134,97.1439 2188.77,91.4325 2243.44,89.1662 2298.57,86.1857 "/>
<polyline clip-path="url(#clip761)" style="stroke:#e26f46; stroke-linecap:round; stroke-linejoin:round; stroke-width:4; stroke-opacity:1; fill:none" points="492.227,1042.15 517.082,1384.24 526.687,697.168 535.411,429.576 544.281,267.693 553.375,221.646 562.264,193.058 571.367,181.889 580.33,171.074 589.425,160.349 598.383,149.974 607.601,146.398 616.563,142.597 625.813,141.33 634.802,138.515 643.731,133.31 652.911,135.1 661.893,131.345 671.068,128.456 680.067,124.35 689.229,121.232 698.186,121.22 707.396,117.71 716.265,117.273 725.122,117.678 734.277,115.272 743.329,109.495 752.476,109.429 761.403,106.729 770.562,108.327 779.454,103.876 788.572,104.504 "/>
<path clip-path="url(#clip760)" d="M1798.16 1377.32 L2288.93 1377.32 L2288.93 1221.8 L1798.16 1221.8  Z" fill="#ffffff" fill-rule="evenodd" fill-opacity="1"/>
<polyline clip-path="url(#clip760)" style="stroke:#000000; stroke-linecap:round; stroke-linejoin:round; stroke-width:4; stroke-opacity:1; fill:none" points="1798.16,1377.32 2288.93,1377.32 2288.93,1221.8 1798.16,1221.8 1798.16,1377.32 "/>
<polyline clip-path="url(#clip760)" style="stroke:#009af9; stroke-linecap:round; stroke-linejoin:round; stroke-width:4; stroke-opacity:1; fill:none" points="1819.43,1273.64 1947.08,1273.64 "/>
<path clip-path="url(#clip760)" d="M1968.35 1256.36 L1988.21 1256.36 L1988.21 1260.29 L1973.03 1260.29 L1973.03 1270.48 L1986.73 1270.48 L1986.73 1274.41 L1973.03 1274.41 L1973.03 1290.92 L1968.35 1290.92 L1968.35 1256.36 Z" fill="#000000" fill-rule="nonzero" fill-opacity="1" /><path clip-path="url(#clip760)" d="M1992.4 1280.68 L1992.4 1264.99 L1996.66 1264.99 L1996.66 1280.52 Q1996.66 1284.2 1998.1 1286.05 Q1999.53 1287.88 2002.4 1287.88 Q2005.85 1287.88 2007.84 1285.68 Q2009.86 1283.48 2009.86 1279.69 L2009.86 1264.99 L2014.12 1264.99 L2014.12 1290.92 L2009.86 1290.92 L2009.86 1286.93 Q2008.31 1289.29 2006.25 1290.45 Q2004.21 1291.59 2001.5 1291.59 Q1997.03 1291.59 1994.72 1288.81 Q1992.4 1286.03 1992.4 1280.68 M2003.12 1264.36 L2003.12 1264.36 Z" fill="#000000" fill-rule="nonzero" fill-opacity="1" /><path clip-path="url(#clip760)" d="M2022.89 1254.9 L2027.15 1254.9 L2027.15 1290.92 L2022.89 1290.92 L2022.89 1254.9 Z" fill="#000000" fill-rule="nonzero" fill-opacity="1" /><path clip-path="url(#clip760)" d="M2036.06 1254.9 L2040.32 1254.9 L2040.32 1290.92 L2036.06 1290.92 L2036.06 1254.9 Z" fill="#000000" fill-rule="nonzero" fill-opacity="1" /><path clip-path="url(#clip760)" d="M2069.16 1274.41 L2069.16 1287.07 L2076.66 1287.07 Q2080.44 1287.07 2082.24 1285.52 Q2084.07 1283.95 2084.07 1280.73 Q2084.07 1277.49 2082.24 1275.96 Q2080.44 1274.41 2076.66 1274.41 L2069.16 1274.41 M2069.16 1260.2 L2069.16 1270.61 L2076.08 1270.61 Q2079.51 1270.61 2081.18 1269.34 Q2082.87 1268.05 2082.87 1265.41 Q2082.87 1262.79 2081.18 1261.49 Q2079.51 1260.2 2076.08 1260.2 L2069.16 1260.2 M2064.49 1256.36 L2076.43 1256.36 Q2081.78 1256.36 2084.67 1258.58 Q2087.57 1260.8 2087.57 1264.9 Q2087.57 1268.07 2086.08 1269.94 Q2084.6 1271.82 2081.73 1272.28 Q2085.18 1273.02 2087.08 1275.38 Q2089 1277.72 2089 1281.24 Q2089 1285.87 2085.85 1288.39 Q2082.7 1290.92 2076.89 1290.92 L2064.49 1290.92 L2064.49 1256.36 Z" fill="#000000" fill-rule="nonzero" fill-opacity="1" /><path clip-path="url(#clip760)" d="M2108.61 1277.88 Q2103.45 1277.88 2101.45 1279.06 Q2099.46 1280.24 2099.46 1283.09 Q2099.46 1285.36 2100.95 1286.7 Q2102.45 1288.02 2105.02 1288.02 Q2108.56 1288.02 2110.69 1285.52 Q2112.84 1283 2112.84 1278.83 L2112.84 1277.88 L2108.61 1277.88 M2117.1 1276.12 L2117.1 1290.92 L2112.84 1290.92 L2112.84 1286.98 Q2111.38 1289.34 2109.21 1290.48 Q2107.03 1291.59 2103.88 1291.59 Q2099.9 1291.59 2097.54 1289.36 Q2095.2 1287.12 2095.2 1283.37 Q2095.2 1278.99 2098.12 1276.77 Q2101.06 1274.55 2106.87 1274.55 L2112.84 1274.55 L2112.84 1274.13 Q2112.84 1271.19 2110.9 1269.6 Q2108.98 1267.98 2105.48 1267.98 Q2103.26 1267.98 2101.15 1268.51 Q2099.05 1269.04 2097.1 1270.11 L2097.1 1266.17 Q2099.44 1265.27 2101.64 1264.83 Q2103.84 1264.36 2105.92 1264.36 Q2111.55 1264.36 2114.32 1267.28 Q2117.1 1270.2 2117.1 1276.12 Z" fill="#000000" fill-rule="nonzero" fill-opacity="1" /><path clip-path="url(#clip760)" d="M2130.09 1257.63 L2130.09 1264.99 L2138.86 1264.99 L2138.86 1268.3 L2130.09 1268.3 L2130.09 1282.37 Q2130.09 1285.54 2130.95 1286.45 Q2131.82 1287.35 2134.49 1287.35 L2138.86 1287.35 L2138.86 1290.92 L2134.49 1290.92 Q2129.56 1290.92 2127.68 1289.09 Q2125.81 1287.23 2125.81 1282.37 L2125.81 1268.3 L2122.68 1268.3 L2122.68 1264.99 L2125.81 1264.99 L2125.81 1257.63 L2130.09 1257.63 Z" fill="#000000" fill-rule="nonzero" fill-opacity="1" /><path clip-path="url(#clip760)" d="M2163.12 1265.98 L2163.12 1269.97 Q2161.32 1268.97 2159.49 1268.48 Q2157.68 1267.98 2155.83 1267.98 Q2151.69 1267.98 2149.39 1270.61 Q2147.1 1273.23 2147.1 1277.98 Q2147.1 1282.72 2149.39 1285.36 Q2151.69 1287.98 2155.83 1287.98 Q2157.68 1287.98 2159.49 1287.49 Q2161.32 1286.98 2163.12 1285.98 L2163.12 1289.92 Q2161.34 1290.75 2159.42 1291.17 Q2157.52 1291.59 2155.37 1291.59 Q2149.51 1291.59 2146.06 1287.91 Q2142.61 1284.23 2142.61 1277.98 Q2142.61 1271.63 2146.08 1268 Q2149.58 1264.36 2155.64 1264.36 Q2157.61 1264.36 2159.49 1264.78 Q2161.36 1265.17 2163.12 1265.98 Z" fill="#000000" fill-rule="nonzero" fill-opacity="1" /><path clip-path="url(#clip760)" d="M2192.08 1275.27 L2192.08 1290.92 L2187.82 1290.92 L2187.82 1275.41 Q2187.82 1271.73 2186.38 1269.9 Q2184.95 1268.07 2182.08 1268.07 Q2178.63 1268.07 2176.64 1270.27 Q2174.65 1272.47 2174.65 1276.26 L2174.65 1290.92 L2170.37 1290.92 L2170.37 1254.9 L2174.65 1254.9 L2174.65 1269.02 Q2176.18 1266.68 2178.24 1265.52 Q2180.32 1264.36 2183.03 1264.36 Q2187.5 1264.36 2189.79 1267.14 Q2192.08 1269.9 2192.08 1275.27 Z" fill="#000000" fill-rule="nonzero" fill-opacity="1" /><polyline clip-path="url(#clip760)" style="stroke:#e26f46; stroke-linecap:round; stroke-linejoin:round; stroke-width:4; stroke-opacity:1; fill:none" points="1819.43,1325.48 1947.08,1325.48 "/>
<path clip-path="url(#clip760)" d="M1990.6 1309.33 L1990.6 1313.89 Q1987.94 1312.62 1985.58 1311.99 Q1983.21 1311.37 1981.02 1311.37 Q1977.2 1311.37 1975.11 1312.85 Q1973.05 1314.33 1973.05 1317.06 Q1973.05 1319.35 1974.42 1320.53 Q1975.81 1321.69 1979.65 1322.41 L1982.47 1322.99 Q1987.71 1323.98 1990.18 1326.51 Q1992.68 1329.01 1992.68 1333.22 Q1992.68 1338.24 1989.3 1340.83 Q1985.95 1343.43 1979.44 1343.43 Q1976.99 1343.43 1974.21 1342.87 Q1971.46 1342.32 1968.49 1341.23 L1968.49 1336.41 Q1971.34 1338.01 1974.07 1338.82 Q1976.8 1339.63 1979.44 1339.63 Q1983.45 1339.63 1985.62 1338.06 Q1987.8 1336.48 1987.8 1333.57 Q1987.8 1331.02 1986.22 1329.58 Q1984.67 1328.15 1981.11 1327.43 L1978.26 1326.88 Q1973.03 1325.83 1970.69 1323.61 Q1968.35 1321.39 1968.35 1317.43 Q1968.35 1312.85 1971.57 1310.21 Q1974.81 1307.57 1980.48 1307.57 Q1982.91 1307.57 1985.44 1308.01 Q1987.96 1308.45 1990.6 1309.33 Z" fill="#000000" fill-rule="nonzero" fill-opacity="1" /><path clip-path="url(#clip760)" d="M1999.35 1332.52 L1999.35 1316.83 L2003.61 1316.83 L2003.61 1332.36 Q2003.61 1336.04 2005.04 1337.89 Q2006.48 1339.72 2009.35 1339.72 Q2012.8 1339.72 2014.79 1337.52 Q2016.8 1335.32 2016.8 1331.53 L2016.8 1316.83 L2021.06 1316.83 L2021.06 1342.76 L2016.8 1342.76 L2016.8 1338.77 Q2015.25 1341.13 2013.19 1342.29 Q2011.15 1343.43 2008.45 1343.43 Q2003.98 1343.43 2001.66 1340.65 Q1999.35 1337.87 1999.35 1332.52 M2010.07 1316.2 L2010.07 1316.2 Z" fill="#000000" fill-rule="nonzero" fill-opacity="1" /><path clip-path="url(#clip760)" d="M2048.45 1329.82 Q2048.45 1325.12 2046.5 1322.45 Q2044.58 1319.77 2041.2 1319.77 Q2037.82 1319.77 2035.88 1322.45 Q2033.95 1325.12 2033.95 1329.82 Q2033.95 1334.51 2035.88 1337.2 Q2037.82 1339.86 2041.2 1339.86 Q2044.58 1339.86 2046.5 1337.2 Q2048.45 1334.51 2048.45 1329.82 M2033.95 1320.76 Q2035.3 1318.45 2037.33 1317.34 Q2039.39 1316.2 2042.24 1316.2 Q2046.96 1316.2 2049.9 1319.95 Q2052.87 1323.7 2052.87 1329.82 Q2052.87 1335.93 2049.9 1339.68 Q2046.96 1343.43 2042.24 1343.43 Q2039.39 1343.43 2037.33 1342.32 Q2035.3 1341.18 2033.95 1338.87 L2033.95 1342.76 L2029.67 1342.76 L2029.67 1306.74 L2033.95 1306.74 L2033.95 1320.76 Z" fill="#000000" fill-rule="nonzero" fill-opacity="1" /><path clip-path="url(#clip760)" d="M2076.45 1317.59 L2076.45 1321.62 Q2074.65 1320.7 2072.7 1320.23 Q2070.76 1319.77 2068.68 1319.77 Q2065.51 1319.77 2063.91 1320.74 Q2062.33 1321.71 2062.33 1323.66 Q2062.33 1325.14 2063.47 1326 Q2064.6 1326.83 2068.03 1327.59 L2069.49 1327.92 Q2074.02 1328.89 2075.92 1330.67 Q2077.84 1332.43 2077.84 1335.6 Q2077.84 1339.21 2074.97 1341.32 Q2072.13 1343.43 2067.13 1343.43 Q2065.04 1343.43 2062.77 1343.01 Q2060.53 1342.62 2058.03 1341.81 L2058.03 1337.41 Q2060.39 1338.63 2062.68 1339.26 Q2064.97 1339.86 2067.22 1339.86 Q2070.23 1339.86 2071.85 1338.84 Q2073.47 1337.8 2073.47 1335.93 Q2073.47 1334.19 2072.29 1333.26 Q2071.13 1332.34 2067.17 1331.48 L2065.69 1331.14 Q2061.73 1330.3 2059.97 1328.59 Q2058.21 1326.85 2058.21 1323.84 Q2058.21 1320.19 2060.81 1318.2 Q2063.4 1316.2 2068.17 1316.2 Q2070.53 1316.2 2072.61 1316.55 Q2074.7 1316.9 2076.45 1317.59 Z" fill="#000000" fill-rule="nonzero" fill-opacity="1" /><path clip-path="url(#clip760)" d="M2096.41 1329.72 Q2091.25 1329.72 2089.26 1330.9 Q2087.26 1332.08 2087.26 1334.93 Q2087.26 1337.2 2088.75 1338.54 Q2090.25 1339.86 2092.82 1339.86 Q2096.36 1339.86 2098.49 1337.36 Q2100.64 1334.84 2100.64 1330.67 L2100.64 1329.72 L2096.41 1329.72 M2104.9 1327.96 L2104.9 1342.76 L2100.64 1342.76 L2100.64 1338.82 Q2099.19 1341.18 2097.01 1342.32 Q2094.83 1343.43 2091.69 1343.43 Q2087.7 1343.43 2085.34 1341.2 Q2083.01 1338.96 2083.01 1335.21 Q2083.01 1330.83 2085.92 1328.61 Q2088.86 1326.39 2094.67 1326.39 L2100.64 1326.39 L2100.64 1325.97 Q2100.64 1323.03 2098.7 1321.44 Q2096.78 1319.82 2093.28 1319.82 Q2091.06 1319.82 2088.95 1320.35 Q2086.85 1320.88 2084.9 1321.95 L2084.9 1318.01 Q2087.24 1317.11 2089.44 1316.67 Q2091.64 1316.2 2093.72 1316.2 Q2099.35 1316.2 2102.13 1319.12 Q2104.9 1322.04 2104.9 1327.96 Z" fill="#000000" fill-rule="nonzero" fill-opacity="1" /><path clip-path="url(#clip760)" d="M2133.86 1321.81 Q2135.46 1318.94 2137.68 1317.57 Q2139.9 1316.2 2142.91 1316.2 Q2146.96 1316.2 2149.16 1319.05 Q2151.36 1321.88 2151.36 1327.11 L2151.36 1342.76 L2147.08 1342.76 L2147.08 1327.25 Q2147.08 1323.52 2145.76 1321.71 Q2144.44 1319.91 2141.73 1319.91 Q2138.42 1319.91 2136.5 1322.11 Q2134.58 1324.31 2134.58 1328.1 L2134.58 1342.76 L2130.3 1342.76 L2130.3 1327.25 Q2130.3 1323.5 2128.98 1321.71 Q2127.66 1319.91 2124.9 1319.91 Q2121.64 1319.91 2119.72 1322.13 Q2117.8 1324.33 2117.8 1328.1 L2117.8 1342.76 L2113.51 1342.76 L2113.51 1316.83 L2117.8 1316.83 L2117.8 1320.86 Q2119.26 1318.47 2121.29 1317.34 Q2123.33 1316.2 2126.13 1316.2 Q2128.95 1316.2 2130.92 1317.64 Q2132.91 1319.07 2133.86 1321.81 Z" fill="#000000" fill-rule="nonzero" fill-opacity="1" /><path clip-path="url(#clip760)" d="M2163.98 1338.87 L2163.98 1352.62 L2159.69 1352.62 L2159.69 1316.83 L2163.98 1316.83 L2163.98 1320.76 Q2165.32 1318.45 2167.36 1317.34 Q2169.42 1316.2 2172.26 1316.2 Q2176.99 1316.2 2179.93 1319.95 Q2182.89 1323.7 2182.89 1329.82 Q2182.89 1335.93 2179.93 1339.68 Q2176.99 1343.43 2172.26 1343.43 Q2169.42 1343.43 2167.36 1342.32 Q2165.32 1341.18 2163.98 1338.87 M2178.47 1329.82 Q2178.47 1325.12 2176.52 1322.45 Q2174.6 1319.77 2171.22 1319.77 Q2167.84 1319.77 2165.9 1322.45 Q2163.98 1325.12 2163.98 1329.82 Q2163.98 1334.51 2165.9 1337.2 Q2167.84 1339.86 2171.22 1339.86 Q2174.6 1339.86 2176.52 1337.2 Q2178.47 1334.51 2178.47 1329.82 Z" fill="#000000" fill-rule="nonzero" fill-opacity="1" /><path clip-path="url(#clip760)" d="M2189.95 1306.74 L2194.21 1306.74 L2194.21 1342.76 L2189.95 1342.76 L2189.95 1306.74 Z" fill="#000000" fill-rule="nonzero" fill-opacity="1" /><path clip-path="url(#clip760)" d="M2203.12 1316.83 L2207.38 1316.83 L2207.38 1342.76 L2203.12 1342.76 L2203.12 1316.83 M2203.12 1306.74 L2207.38 1306.74 L2207.38 1312.13 L2203.12 1312.13 L2203.12 1306.74 Z" fill="#000000" fill-rule="nonzero" fill-opacity="1" /><path clip-path="url(#clip760)" d="M2237.84 1327.11 L2237.84 1342.76 L2233.58 1342.76 L2233.58 1327.25 Q2233.58 1323.57 2232.15 1321.74 Q2230.71 1319.91 2227.84 1319.91 Q2224.39 1319.91 2222.4 1322.11 Q2220.41 1324.31 2220.41 1328.1 L2220.41 1342.76 L2216.13 1342.76 L2216.13 1316.83 L2220.41 1316.83 L2220.41 1320.86 Q2221.94 1318.52 2224 1317.36 Q2226.08 1316.2 2228.79 1316.2 Q2233.26 1316.2 2235.55 1318.98 Q2237.84 1321.74 2237.84 1327.11 Z" fill="#000000" fill-rule="nonzero" fill-opacity="1" /><path clip-path="url(#clip760)" d="M2263.4 1329.49 Q2263.4 1324.86 2261.48 1322.32 Q2259.58 1319.77 2256.13 1319.77 Q2252.7 1319.77 2250.78 1322.32 Q2248.88 1324.86 2248.88 1329.49 Q2248.88 1334.1 2250.78 1336.64 Q2252.7 1339.19 2256.13 1339.19 Q2259.58 1339.19 2261.48 1336.64 Q2263.4 1334.1 2263.4 1329.49 M2267.66 1339.54 Q2267.66 1346.16 2264.72 1349.38 Q2261.78 1352.62 2255.71 1352.62 Q2253.47 1352.62 2251.48 1352.27 Q2249.49 1351.95 2247.61 1351.25 L2247.61 1347.11 Q2249.49 1348.13 2251.31 1348.61 Q2253.14 1349.1 2255.04 1349.1 Q2259.23 1349.1 2261.31 1346.9 Q2263.4 1344.72 2263.4 1340.3 L2263.4 1338.2 Q2262.08 1340.49 2260.02 1341.62 Q2257.96 1342.76 2255.09 1342.76 Q2250.32 1342.76 2247.4 1339.12 Q2244.49 1335.49 2244.49 1329.49 Q2244.49 1323.47 2247.4 1319.84 Q2250.32 1316.2 2255.09 1316.2 Q2257.96 1316.2 2260.02 1317.34 Q2262.08 1318.47 2263.4 1320.76 L2263.4 1316.83 L2267.66 1316.83 L2267.66 1339.54 Z" fill="#000000" fill-rule="nonzero" fill-opacity="1" /></svg>
