<?xml version="1.0" encoding="utf-8"?>
<svg xmlns="http://www.w3.org/2000/svg" xmlns:xlink="http://www.w3.org/1999/xlink" width="600" height="400" viewBox="0 0 2400 1600">
<defs>
  <clipPath id="clip810">
    <rect x="0" y="0" width="2400" height="1600"/>
  </clipPath>
</defs>
<path clip-path="url(#clip810)" d="M0 1600 L2400 1600 L2400 0 L0 0  Z" fill="#ffffff" fill-rule="evenodd" fill-opacity="1"/>
<defs>
  <clipPath id="clip811">
    <rect x="251" y="47" width="2102" height="1377"/>
  </clipPath>
</defs>
<path clip-path="url(#clip810)" d="M242.135 1423.18 L2352.76 1423.18 L2352.76 47.2441 L242.135 47.2441  Z" fill="#ffffff" fill-rule="evenodd" fill-opacity="1"/>
<defs>
  <clipPath id="clip812">
    <rect x="242" y="47" width="2112" height="1377"/>
  </clipPath>
</defs>
<polyline clip-path="url(#clip812)" style="stroke:#000000; stroke-linecap:round; stroke-linejoin:round; stroke-width:2; stroke-opacity:0.1; fill:none" points="299.876,1423.18 299.876,47.2441 "/>
<polyline clip-path="url(#clip812)" style="stroke:#000000; stroke-linecap:round; stroke-linejoin:round; stroke-width:2; stroke-opacity:0.1; fill:none" points="798.162,1423.18 798.162,47.2441 "/>
<polyline clip-path="url(#clip812)" style="stroke:#000000; stroke-linecap:round; stroke-linejoin:round; stroke-width:2; stroke-opacity:0.1; fill:none" points="1296.45,1423.18 1296.45,47.2441 "/>
<polyline clip-path="url(#clip812)" style="stroke:#000000; stroke-linecap:round; stroke-linejoin:round; stroke-width:2; stroke-opacity:0.1; fill:none" points="1794.74,1423.18 1794.74,47.2441 "/>
<polyline clip-path="url(#clip812)" style="stroke:#000000; stroke-linecap:round; stroke-linejoin:round; stroke-width:2; stroke-opacity:0.1; fill:none" points="2293.02,1423.18 2293.02,47.2441 "/>
<polyline clip-path="url(#clip812)" style="stroke:#000000; stroke-linecap:round; stroke-linejoin:round; stroke-width:2; stroke-opacity:0.1; fill:none" points="242.135,1281.57 2352.76,1281.57 "/>
<polyline clip-path="url(#clip812)" style="stroke:#000000; stroke-linecap:round; stroke-linejoin:round; stroke-width:2; stroke-opacity:0.1; fill:none" points="242.135,934.334 2352.76,934.334 "/>
<polyline clip-path="url(#clip812)" style="stroke:#000000; stroke-linecap:round; stroke-linejoin:round; stroke-width:2; stroke-opacity:0.1; fill:none" points="242.135,587.1 2352.76,587.1 "/>
<polyline clip-path="url(#clip812)" style="stroke:#000000; stroke-linecap:round; stroke-linejoin:round; stroke-width:2; stroke-opacity:0.1; fill:none" points="242.135,239.866 2352.76,239.866 "/>
<polyline clip-path="url(#clip810)" style="stroke:#000000; stroke-linecap:round; stroke-linejoin:round; stroke-width:4; stroke-opacity:1; fill:none" points="242.135,1423.18 2352.76,1423.18 "/>
<polyline clip-path="url(#clip810)" style="stroke:#000000; stroke-linecap:round; stroke-linejoin:round; stroke-width:4; stroke-opacity:1; fill:none" points="299.876,1423.18 299.876,1404.28 "/>
<polyline clip-path="url(#clip810)" style="stroke:#000000; stroke-linecap:round; stroke-linejoin:round; stroke-width:4; stroke-opacity:1; fill:none" points="798.162,1423.18 798.162,1404.28 "/>
<polyline clip-path="url(#clip810)" style="stroke:#000000; stroke-linecap:round; stroke-linejoin:round; stroke-width:4; stroke-opacity:1; fill:none" points="1296.45,1423.18 1296.45,1404.28 "/>
<polyline clip-path="url(#clip810)" style="stroke:#000000; stroke-linecap:round; stroke-linejoin:round; stroke-width:4; stroke-opacity:1; fill:none" points="1794.74,1423.18 1794.74,1404.28 "/>
<polyline clip-path="url(#clip810)" style="stroke:#000000; stroke-linecap:round; stroke-linejoin:round; stroke-width:4; stroke-opacity:1; fill:none" points="2293.02,1423.18 2293.02,1404.28 "/>
<path clip-path="url(#clip810)" d="M299.876 1454.1 Q296.265 1454.1 294.436 1457.66 Q292.631 1461.2 292.631 1468.33 Q292.631 1475.44 294.436 1479.01 Q296.265 1482.55 299.876 1482.55 Q303.51 1482.55 305.316 1479.01 Q307.145 1475.44 307.145 1468.33 Q307.145 1461.2 305.316 1457.66 Q303.51 1454.1 299.876 1454.1 M299.876 1450.39 Q305.686 1450.39 308.742 1455 Q311.82 1459.58 311.82 1468.33 Q311.82 1477.06 308.742 1481.67 Q305.686 1486.25 299.876 1486.25 Q294.066 1486.25 290.987 1481.67 Q287.932 1477.06 287.932 1468.33 Q287.932 1459.58 290.987 1455 Q294.066 1450.39 299.876 1450.39 Z" fill="#000000" fill-rule="nonzero" fill-opacity="1" /><path clip-path="url(#clip810)" d="M761.855 1481.64 L778.174 1481.64 L778.174 1485.58 L756.23 1485.58 L756.23 1481.64 Q758.892 1478.89 763.475 1474.26 Q768.082 1469.61 769.262 1468.27 Q771.507 1465.74 772.387 1464.01 Q773.29 1462.25 773.29 1460.56 Q773.29 1457.8 771.345 1456.07 Q769.424 1454.33 766.322 1454.33 Q764.123 1454.33 761.67 1455.09 Q759.239 1455.86 756.461 1457.41 L756.461 1452.69 Q759.285 1451.55 761.739 1450.97 Q764.193 1450.39 766.23 1450.39 Q771.6 1450.39 774.794 1453.08 Q777.989 1455.77 777.989 1460.26 Q777.989 1462.39 777.179 1464.31 Q776.392 1466.2 774.285 1468.8 Q773.707 1469.47 770.605 1472.69 Q767.503 1475.88 761.855 1481.64 Z" fill="#000000" fill-rule="nonzero" fill-opacity="1" /><path clip-path="url(#clip810)" d="M788.035 1451.02 L806.392 1451.02 L806.392 1454.96 L792.318 1454.96 L792.318 1463.43 Q793.336 1463.08 794.355 1462.92 Q795.373 1462.73 796.392 1462.73 Q802.179 1462.73 805.558 1465.9 Q808.938 1469.08 808.938 1474.49 Q808.938 1480.07 805.466 1483.17 Q801.993 1486.25 795.674 1486.25 Q793.498 1486.25 791.23 1485.88 Q788.984 1485.51 786.577 1484.77 L786.577 1480.07 Q788.66 1481.2 790.882 1481.76 Q793.105 1482.32 795.581 1482.32 Q799.586 1482.32 801.924 1480.21 Q804.262 1478.1 804.262 1474.49 Q804.262 1470.88 801.924 1468.77 Q799.586 1466.67 795.581 1466.67 Q793.706 1466.67 791.831 1467.08 Q789.98 1467.5 788.035 1468.38 L788.035 1451.02 Z" fill="#000000" fill-rule="nonzero" fill-opacity="1" /><path clip-path="url(#clip810)" d="M828.151 1454.1 Q824.54 1454.1 822.711 1457.66 Q820.905 1461.2 820.905 1468.33 Q820.905 1475.44 822.711 1479.01 Q824.54 1482.55 828.151 1482.55 Q831.785 1482.55 833.59 1479.01 Q835.419 1475.44 835.419 1468.33 Q835.419 1461.2 833.59 1457.66 Q831.785 1454.1 828.151 1454.1 M828.151 1450.39 Q833.961 1450.39 837.016 1455 Q840.095 1459.58 840.095 1468.33 Q840.095 1477.06 837.016 1481.67 Q833.961 1486.25 828.151 1486.25 Q822.341 1486.25 819.262 1481.67 Q816.206 1477.06 816.206 1468.33 Q816.206 1459.58 819.262 1455 Q822.341 1450.39 828.151 1450.39 Z" fill="#000000" fill-rule="nonzero" fill-opacity="1" /><path clip-path="url(#clip810)" d="M1256.07 1451.02 L1274.42 1451.02 L1274.42 1454.96 L1260.35 1454.96 L1260.35 1463.43 Q1261.37 1463.08 1262.39 1462.92 Q1263.4 1462.73 1264.42 1462.73 Q1270.21 1462.73 1273.59 1465.9 Q1276.97 1469.08 1276.97 1474.49 Q1276.97 1480.07 1273.5 1483.17 Q1270.03 1486.25 1263.71 1486.25 Q1261.53 1486.25 1259.26 1485.88 Q1257.02 1485.51 1254.61 1484.77 L1254.61 1480.07 Q1256.69 1481.2 1258.91 1481.76 Q1261.14 1482.32 1263.61 1482.32 Q1267.62 1482.32 1269.96 1480.21 Q1272.29 1478.1 1272.29 1474.49 Q1272.29 1470.88 1269.96 1468.77 Q1267.62 1466.67 1263.61 1466.67 Q1261.74 1466.67 1259.86 1467.08 Q1258.01 1467.5 1256.07 1468.38 L1256.07 1451.02 Z" fill="#000000" fill-rule="nonzero" fill-opacity="1" /><path clip-path="url(#clip810)" d="M1296.18 1454.1 Q1292.57 1454.1 1290.74 1457.66 Q1288.94 1461.2 1288.94 1468.33 Q1288.94 1475.44 1290.74 1479.01 Q1292.57 1482.55 1296.18 1482.55 Q1299.82 1482.55 1301.62 1479.01 Q1303.45 1475.44 1303.45 1468.33 Q1303.45 1461.2 1301.62 1457.66 Q1299.82 1454.1 1296.18 1454.1 M1296.18 1450.39 Q1301.99 1450.39 1305.05 1455 Q1308.13 1459.58 1308.13 1468.33 Q1308.13 1477.06 1305.05 1481.67 Q1301.99 1486.25 1296.18 1486.25 Q1290.37 1486.25 1287.29 1481.67 Q1284.24 1477.06 1284.24 1468.33 Q1284.24 1459.58 1287.29 1455 Q1290.37 1450.39 1296.18 1450.39 Z" fill="#000000" fill-rule="nonzero" fill-opacity="1" /><path clip-path="url(#clip810)" d="M1326.34 1454.1 Q1322.73 1454.1 1320.9 1457.66 Q1319.1 1461.2 1319.1 1468.33 Q1319.1 1475.44 1320.9 1479.01 Q1322.73 1482.55 1326.34 1482.55 Q1329.98 1482.55 1331.78 1479.01 Q1333.61 1475.44 1333.61 1468.33 Q1333.61 1461.2 1331.78 1457.66 Q1329.98 1454.1 1326.34 1454.1 M1326.34 1450.39 Q1332.15 1450.39 1335.21 1455 Q1338.29 1459.58 1338.29 1468.33 Q1338.29 1477.06 1335.21 1481.67 Q1332.15 1486.25 1326.34 1486.25 Q1320.53 1486.25 1317.46 1481.67 Q1314.4 1477.06 1314.4 1468.33 Q1314.4 1459.58 1317.46 1455 Q1320.53 1450.39 1326.34 1450.39 Z" fill="#000000" fill-rule="nonzero" fill-opacity="1" /><path clip-path="url(#clip810)" d="M1753.01 1451.02 L1775.23 1451.02 L1775.23 1453.01 L1762.69 1485.58 L1757.8 1485.58 L1769.61 1454.96 L1753.01 1454.96 L1753.01 1451.02 Z" fill="#000000" fill-rule="nonzero" fill-opacity="1" /><path clip-path="url(#clip810)" d="M1784.4 1451.02 L1802.76 1451.02 L1802.76 1454.96 L1788.68 1454.96 L1788.68 1463.43 Q1789.7 1463.08 1790.72 1462.92 Q1791.74 1462.73 1792.76 1462.73 Q1798.54 1462.73 1801.92 1465.9 Q1805.3 1469.08 1805.3 1474.49 Q1805.3 1480.07 1801.83 1483.17 Q1798.36 1486.25 1792.04 1486.25 Q1789.86 1486.25 1787.59 1485.88 Q1785.35 1485.51 1782.94 1484.77 L1782.94 1480.07 Q1785.02 1481.2 1787.25 1481.76 Q1789.47 1482.32 1791.95 1482.32 Q1795.95 1482.32 1798.29 1480.21 Q1800.63 1478.1 1800.63 1474.49 Q1800.63 1470.88 1798.29 1468.77 Q1795.95 1466.67 1791.95 1466.67 Q1790.07 1466.67 1788.2 1467.08 Q1786.34 1467.5 1784.4 1468.38 L1784.4 1451.02 Z" fill="#000000" fill-rule="nonzero" fill-opacity="1" /><path clip-path="url(#clip810)" d="M1824.51 1454.1 Q1820.9 1454.1 1819.08 1457.66 Q1817.27 1461.2 1817.27 1468.33 Q1817.27 1475.44 1819.08 1479.01 Q1820.9 1482.55 1824.51 1482.55 Q1828.15 1482.55 1829.95 1479.01 Q1831.78 1475.44 1831.78 1468.33 Q1831.78 1461.2 1829.95 1457.66 Q1828.15 1454.1 1824.51 1454.1 M1824.51 1450.39 Q1830.33 1450.39 1833.38 1455 Q1836.46 1459.58 1836.46 1468.33 Q1836.46 1477.06 1833.38 1481.67 Q1830.33 1486.25 1824.51 1486.25 Q1818.7 1486.25 1815.63 1481.67 Q1812.57 1477.06 1812.57 1468.33 Q1812.57 1459.58 1815.63 1455 Q1818.7 1450.39 1824.51 1450.39 Z" fill="#000000" fill-rule="nonzero" fill-opacity="1" /><path clip-path="url(#clip810)" d="M2237.55 1481.64 L2245.19 1481.64 L2245.19 1455.28 L2236.88 1456.95 L2236.88 1452.69 L2245.14 1451.02 L2249.82 1451.02 L2249.82 1481.64 L2257.45 1481.64 L2257.45 1485.58 L2237.55 1485.58 L2237.55 1481.64 Z" fill="#000000" fill-rule="nonzero" fill-opacity="1" /><path clip-path="url(#clip810)" d="M2276.9 1454.1 Q2273.29 1454.1 2271.46 1457.66 Q2269.65 1461.2 2269.65 1468.33 Q2269.65 1475.44 2271.46 1479.01 Q2273.29 1482.55 2276.9 1482.55 Q2280.53 1482.55 2282.34 1479.01 Q2284.17 1475.44 2284.17 1468.33 Q2284.17 1461.2 2282.34 1457.66 Q2280.53 1454.1 2276.9 1454.1 M2276.9 1450.39 Q2282.71 1450.39 2285.76 1455 Q2288.84 1459.58 2288.84 1468.33 Q2288.84 1477.06 2285.76 1481.67 Q2282.71 1486.25 2276.9 1486.25 Q2271.09 1486.25 2268.01 1481.67 Q2264.95 1477.06 2264.95 1468.33 Q2264.95 1459.58 2268.01 1455 Q2271.09 1450.39 2276.9 1450.39 Z" fill="#000000" fill-rule="nonzero" fill-opacity="1" /><path clip-path="url(#clip810)" d="M2307.06 1454.1 Q2303.45 1454.1 2301.62 1457.66 Q2299.82 1461.2 2299.82 1468.33 Q2299.82 1475.44 2301.62 1479.01 Q2303.45 1482.55 2307.06 1482.55 Q2310.69 1482.55 2312.5 1479.01 Q2314.33 1475.44 2314.33 1468.33 Q2314.33 1461.2 2312.5 1457.66 Q2310.69 1454.1 2307.06 1454.1 M2307.06 1450.39 Q2312.87 1450.39 2315.93 1455 Q2319 1459.58 2319 1468.33 Q2319 1477.06 2315.93 1481.67 Q2312.87 1486.25 2307.06 1486.25 Q2301.25 1486.25 2298.17 1481.67 Q2295.12 1477.06 2295.12 1468.33 Q2295.12 1459.58 2298.17 1455 Q2301.25 1450.39 2307.06 1450.39 Z" fill="#000000" fill-rule="nonzero" fill-opacity="1" /><path clip-path="url(#clip810)" d="M2337.22 1454.1 Q2333.61 1454.1 2331.78 1457.66 Q2329.98 1461.2 2329.98 1468.33 Q2329.98 1475.44 2331.78 1479.01 Q2333.61 1482.55 2337.22 1482.55 Q2340.86 1482.55 2342.66 1479.01 Q2344.49 1475.44 2344.49 1468.33 Q2344.49 1461.2 2342.66 1457.66 Q2340.86 1454.1 2337.22 1454.1 M2337.22 1450.39 Q2343.03 1450.39 2346.09 1455 Q2349.17 1459.58 2349.17 1468.33 Q2349.17 1477.06 2346.09 1481.67 Q2343.03 1486.25 2337.22 1486.25 Q2331.41 1486.25 2328.33 1481.67 Q2325.28 1477.06 2325.28 1468.33 Q2325.28 1459.58 2328.33 1455 Q2331.41 1450.39 2337.22 1450.39 Z" fill="#000000" fill-rule="nonzero" fill-opacity="1" /><path clip-path="url(#clip810)" d="M1165.17 1520.52 L1171.6 1520.52 L1171.6 1568.04 L1165.17 1568.04 L1165.17 1520.52 Z" fill="#000000" fill-rule="nonzero" fill-opacity="1" /><path clip-path="url(#clip810)" d="M1189.93 1522.27 L1189.93 1532.4 L1201.99 1532.4 L1201.99 1536.95 L1189.93 1536.95 L1189.93 1556.3 Q1189.93 1560.66 1191.11 1561.9 Q1192.32 1563.14 1195.98 1563.14 L1201.99 1563.14 L1201.99 1568.04 L1195.98 1568.04 Q1189.2 1568.04 1186.62 1565.53 Q1184.04 1562.98 1184.04 1556.3 L1184.04 1536.95 L1179.74 1536.95 L1179.74 1532.4 L1184.04 1532.4 L1184.04 1522.27 L1189.93 1522.27 Z" fill="#000000" fill-rule="nonzero" fill-opacity="1" /><path clip-path="url(#clip810)" d="M1240.19 1548.76 L1240.19 1551.62 L1213.26 1551.62 Q1213.64 1557.67 1216.89 1560.85 Q1220.17 1564 1225.99 1564 Q1229.36 1564 1232.52 1563.17 Q1235.7 1562.35 1238.82 1560.69 L1238.82 1566.23 Q1235.67 1567.57 1232.36 1568.27 Q1229.05 1568.97 1225.64 1568.97 Q1217.11 1568.97 1212.11 1564 Q1207.15 1559.04 1207.15 1550.57 Q1207.15 1541.82 1211.86 1536.69 Q1216.6 1531.54 1224.62 1531.54 Q1231.81 1531.54 1235.98 1536.18 Q1240.19 1540.8 1240.19 1548.76 M1234.33 1547.04 Q1234.27 1542.23 1231.62 1539.37 Q1229.01 1536.5 1224.69 1536.5 Q1219.78 1536.5 1216.82 1539.27 Q1213.9 1542.04 1213.45 1547.07 L1234.33 1547.04 Z" fill="#000000" fill-rule="nonzero" fill-opacity="1" /><path clip-path="url(#clip810)" d="M1270.45 1537.87 Q1269.47 1537.3 1268.29 1537.04 Q1267.14 1536.76 1265.74 1536.76 Q1260.78 1536.76 1258.11 1540 Q1255.46 1543.22 1255.46 1549.27 L1255.46 1568.04 L1249.58 1568.04 L1249.58 1532.4 L1255.46 1532.4 L1255.46 1537.93 Q1257.31 1534.69 1260.27 1533.13 Q1263.23 1531.54 1267.46 1531.54 Q1268.07 1531.54 1268.8 1531.63 Q1269.53 1531.7 1270.42 1531.85 L1270.45 1537.87 Z" fill="#000000" fill-rule="nonzero" fill-opacity="1" /><path clip-path="url(#clip810)" d="M1292.8 1550.12 Q1285.7 1550.12 1282.96 1551.75 Q1280.23 1553.37 1280.23 1557.29 Q1280.23 1560.4 1282.26 1562.25 Q1284.33 1564.07 1287.86 1564.07 Q1292.73 1564.07 1295.66 1560.63 Q1298.62 1557.16 1298.62 1551.43 L1298.62 1550.12 L1292.8 1550.12 M1304.48 1547.71 L1304.48 1568.04 L1298.62 1568.04 L1298.62 1562.63 Q1296.62 1565.88 1293.63 1567.44 Q1290.63 1568.97 1286.31 1568.97 Q1280.83 1568.97 1277.58 1565.91 Q1274.37 1562.82 1274.37 1557.67 Q1274.37 1551.65 1278.38 1548.6 Q1282.42 1545.54 1290.41 1545.54 L1298.62 1545.54 L1298.62 1544.97 Q1298.62 1540.93 1295.95 1538.73 Q1293.31 1536.5 1288.5 1536.5 Q1285.45 1536.5 1282.55 1537.23 Q1279.65 1537.97 1276.98 1539.43 L1276.98 1534.02 Q1280.19 1532.78 1283.22 1532.17 Q1286.24 1531.54 1289.11 1531.54 Q1296.84 1531.54 1300.66 1535.55 Q1304.48 1539.56 1304.48 1547.71 Z" fill="#000000" fill-rule="nonzero" fill-opacity="1" /><path clip-path="url(#clip810)" d="M1322.34 1522.27 L1322.34 1532.4 L1334.4 1532.4 L1334.4 1536.95 L1322.34 1536.95 L1322.34 1556.3 Q1322.34 1560.66 1323.51 1561.9 Q1324.72 1563.14 1328.38 1563.14 L1334.4 1563.14 L1334.4 1568.04 L1328.38 1568.04 Q1321.6 1568.04 1319.03 1565.53 Q1316.45 1562.98 1316.45 1556.3 L1316.45 1536.95 L1312.15 1536.95 L1312.15 1532.4 L1316.45 1532.4 L1316.45 1522.27 L1322.34 1522.27 Z" fill="#000000" fill-rule="nonzero" fill-opacity="1" /><path clip-path="url(#clip810)" d="M1342.1 1532.4 L1347.96 1532.4 L1347.96 1568.04 L1342.1 1568.04 L1342.1 1532.4 M1342.1 1518.52 L1347.96 1518.52 L1347.96 1525.93 L1342.1 1525.93 L1342.1 1518.52 Z" fill="#000000" fill-rule="nonzero" fill-opacity="1" /><path clip-path="url(#clip810)" d="M1374.02 1536.5 Q1369.31 1536.5 1366.58 1540.19 Q1363.84 1543.85 1363.84 1550.25 Q1363.84 1556.65 1366.55 1560.34 Q1369.28 1564 1374.02 1564 Q1378.7 1564 1381.44 1560.31 Q1384.18 1556.62 1384.18 1550.25 Q1384.18 1543.92 1381.44 1540.23 Q1378.7 1536.5 1374.02 1536.5 M1374.02 1531.54 Q1381.66 1531.54 1386.02 1536.5 Q1390.38 1541.47 1390.38 1550.25 Q1390.38 1559 1386.02 1564 Q1381.66 1568.97 1374.02 1568.97 Q1366.35 1568.97 1361.99 1564 Q1357.66 1559 1357.66 1550.25 Q1357.66 1541.47 1361.99 1536.5 Q1366.35 1531.54 1374.02 1531.54 Z" fill="#000000" fill-rule="nonzero" fill-opacity="1" /><path clip-path="url(#clip810)" d="M1429.72 1546.53 L1429.72 1568.04 L1423.87 1568.04 L1423.87 1546.72 Q1423.87 1541.66 1421.89 1539.14 Q1419.92 1536.63 1415.97 1536.63 Q1411.23 1536.63 1408.5 1539.65 Q1405.76 1542.68 1405.76 1547.9 L1405.76 1568.04 L1399.87 1568.04 L1399.87 1532.4 L1405.76 1532.4 L1405.76 1537.93 Q1407.86 1534.72 1410.69 1533.13 Q1413.56 1531.54 1417.28 1531.54 Q1423.42 1531.54 1426.57 1535.36 Q1429.72 1539.14 1429.72 1546.53 Z" fill="#000000" fill-rule="nonzero" fill-opacity="1" /><polyline clip-path="url(#clip810)" style="stroke:#000000; stroke-linecap:round; stroke-linejoin:round; stroke-width:4; stroke-opacity:1; fill:none" points="242.135,1423.18 242.135,47.2441 "/>
<polyline clip-path="url(#clip810)" style="stroke:#000000; stroke-linecap:round; stroke-linejoin:round; stroke-width:4; stroke-opacity:1; fill:none" points="242.135,1281.57 261.032,1281.57 "/>
<polyline clip-path="url(#clip810)" style="stroke:#000000; stroke-linecap:round; stroke-linejoin:round; stroke-width:4; stroke-opacity:1; fill:none" points="242.135,934.334 261.032,934.334 "/>
<polyline clip-path="url(#clip810)" style="stroke:#000000; stroke-linecap:round; stroke-linejoin:round; stroke-width:4; stroke-opacity:1; fill:none" points="242.135,587.1 261.032,587.1 "/>
<polyline clip-path="url(#clip810)" style="stroke:#000000; stroke-linecap:round; stroke-linejoin:round; stroke-width:4; stroke-opacity:1; fill:none" points="242.135,239.866 261.032,239.866 "/>
<path clip-path="url(#clip810)" d="M114.26 1282.02 L143.936 1282.02 L143.936 1285.95 L114.26 1285.95 L114.26 1282.02 Z" fill="#000000" fill-rule="nonzero" fill-opacity="1" /><path clip-path="url(#clip810)" d="M168.195 1280.21 Q171.552 1280.93 173.427 1283.2 Q175.325 1285.47 175.325 1288.8 Q175.325 1293.92 171.806 1296.72 Q168.288 1299.52 161.806 1299.52 Q159.63 1299.52 157.315 1299.08 Q155.024 1298.66 152.57 1297.81 L152.57 1293.29 Q154.515 1294.43 156.829 1295.01 Q159.144 1295.58 161.667 1295.58 Q166.065 1295.58 168.357 1293.85 Q170.672 1292.11 170.672 1288.8 Q170.672 1285.75 168.519 1284.03 Q166.39 1282.3 162.57 1282.3 L158.542 1282.3 L158.542 1278.45 L162.755 1278.45 Q166.204 1278.45 168.033 1277.09 Q169.862 1275.7 169.862 1273.11 Q169.862 1270.45 167.964 1269.03 Q166.089 1267.6 162.57 1267.6 Q160.649 1267.6 158.45 1268.01 Q156.251 1268.43 153.612 1269.31 L153.612 1265.14 Q156.274 1264.4 158.589 1264.03 Q160.927 1263.66 162.987 1263.66 Q168.311 1263.66 171.413 1266.09 Q174.514 1268.5 174.514 1272.62 Q174.514 1275.49 172.871 1277.48 Q171.227 1279.45 168.195 1280.21 Z" fill="#000000" fill-rule="nonzero" fill-opacity="1" /><path clip-path="url(#clip810)" d="M194.19 1267.37 Q190.579 1267.37 188.75 1270.93 Q186.945 1274.47 186.945 1281.6 Q186.945 1288.71 188.75 1292.27 Q190.579 1295.82 194.19 1295.82 Q197.825 1295.82 199.63 1292.27 Q201.459 1288.71 201.459 1281.6 Q201.459 1274.47 199.63 1270.93 Q197.825 1267.37 194.19 1267.37 M194.19 1263.66 Q200 1263.66 203.056 1268.27 Q206.135 1272.85 206.135 1281.6 Q206.135 1290.33 203.056 1294.94 Q200 1299.52 194.19 1299.52 Q188.38 1299.52 185.301 1294.94 Q182.246 1290.33 182.246 1281.6 Q182.246 1272.85 185.301 1268.27 Q188.38 1263.66 194.19 1263.66 Z" fill="#000000" fill-rule="nonzero" fill-opacity="1" /><path clip-path="url(#clip810)" d="M114.26 934.786 L143.936 934.786 L143.936 938.721 L114.26 938.721 L114.26 934.786 Z" fill="#000000" fill-rule="nonzero" fill-opacity="1" /><path clip-path="url(#clip810)" d="M158.056 947.679 L174.376 947.679 L174.376 951.614 L152.431 951.614 L152.431 947.679 Q155.093 944.924 159.677 940.295 Q164.283 935.642 165.464 934.299 Q167.709 931.776 168.589 930.04 Q169.491 928.281 169.491 926.591 Q169.491 923.836 167.547 922.1 Q165.626 920.364 162.524 920.364 Q160.325 920.364 157.871 921.128 Q155.44 921.892 152.663 923.443 L152.663 918.721 Q155.487 917.587 157.94 917.008 Q160.394 916.429 162.431 916.429 Q167.802 916.429 170.996 919.114 Q174.19 921.799 174.19 926.29 Q174.19 928.42 173.38 930.341 Q172.593 932.239 170.487 934.832 Q169.908 935.503 166.806 938.721 Q163.704 941.915 158.056 947.679 Z" fill="#000000" fill-rule="nonzero" fill-opacity="1" /><path clip-path="url(#clip810)" d="M194.19 920.133 Q190.579 920.133 188.75 923.698 Q186.945 927.239 186.945 934.369 Q186.945 941.475 188.75 945.04 Q190.579 948.582 194.19 948.582 Q197.825 948.582 199.63 945.04 Q201.459 941.475 201.459 934.369 Q201.459 927.239 199.63 923.698 Q197.825 920.133 194.19 920.133 M194.19 916.429 Q200 916.429 203.056 921.036 Q206.135 925.619 206.135 934.369 Q206.135 943.096 203.056 947.702 Q200 952.285 194.19 952.285 Q188.38 952.285 185.301 947.702 Q182.246 943.096 182.246 934.369 Q182.246 925.619 185.301 921.036 Q188.38 916.429 194.19 916.429 Z" fill="#000000" fill-rule="nonzero" fill-opacity="1" /><path clip-path="url(#clip810)" d="M114.26 587.552 L143.936 587.552 L143.936 591.487 L114.26 591.487 L114.26 587.552 Z" fill="#000000" fill-rule="nonzero" fill-opacity="1" /><path clip-path="url(#clip810)" d="M154.839 600.445 L162.477 600.445 L162.477 574.079 L154.167 575.746 L154.167 571.487 L162.431 569.82 L167.107 569.82 L167.107 600.445 L174.746 600.445 L174.746 604.38 L154.839 604.38 L154.839 600.445 Z" fill="#000000" fill-rule="nonzero" fill-opacity="1" /><path clip-path="url(#clip810)" d="M194.19 572.899 Q190.579 572.899 188.75 576.464 Q186.945 580.005 186.945 587.135 Q186.945 594.241 188.75 597.806 Q190.579 601.348 194.19 601.348 Q197.825 601.348 199.63 597.806 Q201.459 594.241 201.459 587.135 Q201.459 580.005 199.63 576.464 Q197.825 572.899 194.19 572.899 M194.19 569.195 Q200 569.195 203.056 573.802 Q206.135 578.385 206.135 587.135 Q206.135 595.862 203.056 600.468 Q200 605.052 194.19 605.052 Q188.38 605.052 185.301 600.468 Q182.246 595.862 182.246 587.135 Q182.246 578.385 185.301 573.802 Q188.38 569.195 194.19 569.195 Z" fill="#000000" fill-rule="nonzero" fill-opacity="1" /><path clip-path="url(#clip810)" d="M194.19 225.665 Q190.579 225.665 188.75 229.23 Q186.945 232.772 186.945 239.901 Q186.945 247.008 188.75 250.572 Q190.579 254.114 194.19 254.114 Q197.825 254.114 199.63 250.572 Q201.459 247.008 201.459 239.901 Q201.459 232.772 199.63 229.23 Q197.825 225.665 194.19 225.665 M194.19 221.961 Q200 221.961 203.056 226.568 Q206.135 231.151 206.135 239.901 Q206.135 248.628 203.056 253.234 Q200 257.818 194.19 257.818 Q188.38 257.818 185.301 253.234 Q182.246 248.628 182.246 239.901 Q182.246 231.151 185.301 226.568 Q188.38 221.961 194.19 221.961 Z" fill="#000000" fill-rule="nonzero" fill-opacity="1" /><path clip-path="url(#clip810)" d="M16.4842 816.375 L16.4842 786.329 L21.895 786.329 L21.895 809.945 L35.9632 809.945 L35.9632 787.315 L41.3741 787.315 L41.3741 809.945 L58.5933 809.945 L58.5933 785.756 L64.0042 785.756 L64.0042 816.375 L16.4842 816.375 Z" fill="#000000" fill-rule="nonzero" fill-opacity="1" /><path clip-path="url(#clip810)" d="M16.4842 775.189 L16.4842 768.759 L58.5933 768.759 L58.5933 745.62 L64.0042 745.62 L64.0042 775.189 L16.4842 775.189 Z" fill="#000000" fill-rule="nonzero" fill-opacity="1" /><path clip-path="url(#clip810)" d="M41.3104 732.443 L58.7206 732.443 L58.7206 722.13 Q58.7206 716.942 56.5881 714.46 Q54.4238 711.945 49.9996 711.945 Q45.5436 711.945 43.4429 714.46 Q41.3104 716.942 41.3104 722.13 L41.3104 732.443 M21.7677 732.443 L36.0905 732.443 L36.0905 722.926 Q36.0905 718.216 34.34 715.924 Q32.5576 713.6 28.9291 713.6 Q25.3325 713.6 23.5501 715.924 Q21.7677 718.216 21.7677 722.926 L21.7677 732.443 M16.4842 738.872 L16.4842 722.449 Q16.4842 715.096 19.5397 711.118 Q22.5952 707.139 28.2289 707.139 Q32.5894 707.139 35.1675 709.176 Q37.7456 711.213 38.3822 715.16 Q39.4007 710.418 42.6472 707.808 Q45.8619 705.166 50.6998 705.166 Q57.0655 705.166 60.5348 709.495 Q64.0042 713.823 64.0042 721.812 L64.0042 738.872 L16.4842 738.872 Z" fill="#000000" fill-rule="nonzero" fill-opacity="1" /><path clip-path="url(#clip810)" d="M20.8447 676.011 Q20.8447 683.013 26.0645 687.151 Q31.2844 691.257 40.2919 691.257 Q49.2675 691.257 54.4874 687.151 Q59.7073 683.013 59.7073 676.011 Q59.7073 669.009 54.4874 664.935 Q49.2675 660.829 40.2919 660.829 Q31.2844 660.829 26.0645 664.935 Q20.8447 669.009 20.8447 676.011 M15.6248 676.011 Q15.6248 666.017 22.3406 660.033 Q29.0246 654.049 40.2919 654.049 Q51.5274 654.049 58.2432 660.033 Q64.9272 666.017 64.9272 676.011 Q64.9272 686.037 58.2432 692.052 Q51.5592 698.036 40.2919 698.036 Q29.0246 698.036 22.3406 692.052 Q15.6248 686.037 15.6248 676.011 Z" fill="#000000" fill-rule="nonzero" fill-opacity="1" /><polyline clip-path="url(#clip812)" style="stroke:#009af9; stroke-linecap:round; stroke-linejoin:round; stroke-width:4; stroke-opacity:1; fill:none" points="301.869,1014.86 303.862,1035.66 305.856,840.059 307.849,988.721 309.842,824.545 311.835,780.552 313.828,598.837 315.821,560.721 317.814,802.692 319.808,982.861 321.801,1356.21 323.794,1384.24 325.787,1091.98 327.78,1264.86 329.773,659.408 331.766,973.842 333.76,701.277 335.753,665.647 337.746,706.267 339.739,884.42 341.732,787.9 343.725,528.824 345.718,1037.9 347.712,1028.55 349.705,797.162 351.698,873.151 353.691,601.32 355.684,907.837 357.677,917.129 359.67,493.458 361.664,383.05 363.657,749.309 365.65,921.553 367.643,641.126 369.636,927.927 371.629,847.165 373.622,581.697 375.616,296.104 377.609,1003.09 379.602,953.495 381.595,925.375 383.588,640.188 385.581,668.422 387.574,686.96 389.568,637.458 391.561,927.53 393.554,918.684 395.547,668.61 397.54,782.669 399.533,866.54 401.526,741.943 403.52,693.698 405.513,300.053 407.506,610.068 409.499,539.103 411.492,317.939 413.485,879.018 415.479,572.564 417.472,632.912 419.465,1196.57 421.458,503.866 423.451,776.622 425.444,614.568 427.437,529.031 429.431,342.785 431.424,418.001 433.417,267.505 435.41,435.866 437.403,879.279 439.396,453.541 441.389,645.309 443.383,435.212 445.376,959.106 447.369,743.257 449.362,402.024 451.355,364.039 453.348,359.991 455.341,571.729 457.335,735.879 459.328,1105.41 461.321,458.44 463.314,489.532 465.307,453.164 467.3,640.522 469.293,801.314 471.287,373.482 473.28,798.923 475.273,688.934 477.266,608.365 479.259,588.29 481.252,560.602 483.245,387.806 485.239,987.904 487.232,545.365 489.225,385.671 491.218,549.272 493.211,484.07 495.204,766.904 497.197,268.213 499.191,482.386 501.184,522.215 503.177,539.235 505.17,699.671 507.163,489.387 509.156,331.253 511.149,334.359 513.143,464.265 515.136,551.288 517.129,277.118 519.122,427.521 521.115,269.934 523.108,556.064 525.101,471.042 527.095,270.671 529.088,364.247 531.081,273.314 533.074,641.976 535.067,754.861 537.06,433.747 539.054,400.948 541.047,711.573 543.04,549.668 545.033,203.848 547.026,366.477 549.019,663.693 551.012,381.291 553.006,546.716 554.999,524.588 556.992,250.131 558.985,435.388 560.978,597.445 562.971,828.291 564.964,137.003 566.958,359.539 568.951,336.641 570.944,246.301 572.937,334.369 574.93,483.274 576.923,482.892 578.916,196.397 580.91,564.556 582.903,224.395 584.896,361.104 586.889,442.861 588.882,384.299 590.875,233.236 592.868,160.074 594.862,494.387 596.855,327.545 598.848,485.866 600.841,433.351 602.834,193.115 604.827,308.495 606.82,202.997 608.814,404.414 610.807,359.845 612.8,417.144 614.793,448.356 616.786,323.803 618.779,356.388 620.772,197.295 622.766,386.244 624.759,461.842 626.752,470.936 628.745,102.917 630.738,245.694 632.731,198.873 634.724,256.015 636.718,545.714 638.711,324.035 640.704,286.491 642.697,348.409 644.69,331.869 646.683,399.721 648.677,290.814 650.67,143.274 652.663,166.531 654.656,362.294 656.649,517.368 658.642,347.74 660.635,429.007 662.629,255.921 664.622,327.323 666.615,331.696 668.608,227.885 670.601,236.649 672.594,319.244 674.587,319.554 676.581,245.243 678.574,142.273 680.567,463.584 682.56,335.161 684.553,242.052 686.546,315.861 688.539,298.512 690.533,218.312 692.526,379.779 694.519,273.605 696.512,511.86 698.505,270.751 700.498,150.861 702.491,509.646 704.485,239.175 706.478,287.033 708.471,407.645 710.464,184.382 712.457,382.482 714.45,201.415 716.443,427.703 718.437,284.065 720.43,231.809 722.423,376.367 724.416,376.651 726.409,261.245 728.402,278.648 730.395,374.176 732.389,169.087 734.382,189.259 736.375,253.338 738.368,316.556 740.361,226.545 742.354,156.699 744.347,226.199 746.341,227.048 748.334,498.207 750.327,300.273 752.32,300.977 754.313,235.681 756.306,382.715 758.299,149.521 760.293,234.414 762.286,341.325 764.279,231.831 766.272,258.02 768.265,569.754 770.258,350.736 772.252,426.927 774.245,215.964 776.238,415.653 778.231,118.454 780.224,128.432 782.217,462.235 784.21,277.107 786.204,264.615 788.197,336.392 790.19,219.06 792.183,411.925 794.176,151.191 796.169,253.686 798.162,400.002 800.156,355.654 802.149,377.178 804.142,327.784 806.135,399.209 808.128,322.25 810.121,240.433 812.114,156.318 814.108,476.099 816.101,346.032 818.094,202.794 820.087,597.218 822.08,344.35 824.073,307.941 826.066,317.613 828.06,274.028 830.053,239.778 832.046,316.071 834.039,209.993 836.032,213.866 838.025,233.093 840.018,280.261 842.012,483.096 844.005,158.115 845.998,253.249 847.991,182.877 849.984,249.85 851.977,281.666 853.97,284.779 855.964,381.207 857.957,297.616 859.95,293.194 861.943,149.159 863.936,147.028 865.929,276.018 867.922,235.804 869.916,248.139 871.909,296.147 873.902,330.379 875.895,163.718 877.888,212.558 879.881,117.55 881.874,413.969 883.868,260.19 885.861,147.888 887.854,338.041 889.847,285.758 891.84,143.152 893.833,244.612 895.827,288.466 897.82,372.831 899.813,333.771 901.806,253.944 903.799,204.656 905.792,279.462 907.785,239.849 909.779,350.856 911.772,218.085 913.765,607.483 915.758,214.816 917.751,329.4 919.744,227.317 921.737,134.519 923.731,218.17 925.724,233.739 927.717,280.815 929.71,212.468 931.703,316.279 933.696,231.89 935.689,309.011 937.683,283.358 939.676,285.703 941.669,235.765 943.662,322.251 945.655,179.078 947.648,302.728 949.641,299.948 951.635,249.547 953.628,121.898 955.621,382.05 957.614,299.055 959.607,182.915 961.6,256.492 963.593,323.376 965.587,128.821 967.58,187.474 969.573,140.346 971.566,200.872 973.559,293.722 975.552,259.214 977.545,302.986 979.539,167.838 981.532,145.881 983.525,183.116 985.518,198.972 987.511,292.064 989.504,229.883 991.497,289.074 993.491,205.253 995.484,337.129 997.477,195.039 999.47,241.21 1001.46,260.808 1003.46,326.33 1005.45,215.988 1007.44,298.599 1009.44,231.139 1011.43,223.698 1013.42,241.65 1015.42,246.198 1017.41,234.884 1019.4,173.236 1021.39,246.576 1023.39,247.709 1025.38,184.449 1027.37,282.353 1029.37,270.963 1031.36,230.197 1033.35,241.681 1035.35,190.764 1037.34,298.919 1039.33,195.954 1041.33,108.28 1043.32,221.493 1045.31,189.903 1047.31,386.365 1049.3,469.43 1051.29,157.198 1053.28,389.195 1055.28,370.32 1057.27,264.549 1059.26,272.964 1061.26,235.6 1063.25,203.587 1065.24,86.1857 1067.24,315.735 1069.23,331.056 1071.22,129.07 1073.22,188.096 1075.21,292.617 1077.2,137.747 1079.2,394.084 1081.19,415.648 1083.18,198.484 1085.18,137.742 1087.17,231.733 1089.16,219.288 1091.15,287.464 1093.15,301.717 1095.14,194.02 1097.13,314.734 1099.13,326.116 1101.12,195.166 1103.11,297.203 1105.11,186.231 1107.1,282.458 1109.09,215.87 1111.09,162.238 1113.08,163.999 1115.07,445.819 1117.07,184.224 1119.06,162.039 1121.05,384.015 1123.05,160.279 1125.04,450.985 1127.03,254.053 1129.02,126.784 1131.02,219.452 1133.01,187.36 1135,122.288 1137,149.417 1138.99,332.353 1140.98,285.543 1142.98,314.174 1144.97,180.537 1146.96,186.871 1148.96,371.245 1150.95,557.72 1152.94,257.235 1154.94,341.933 1156.93,248.916 1158.92,269.29 1160.91,175.938 1162.91,329.756 1164.9,282.787 1166.89,125.696 1168.89,306.369 1170.88,221.88 1172.87,340.619 1174.87,403.535 1176.86,117.001 1178.85,268.371 1180.85,168.861 1182.84,365.106 1184.83,313.867 1186.83,195.093 1188.82,221.03 1190.81,327.14 1192.81,294.494 1194.8,244.841 1196.79,220.912 1198.78,173.415 1200.78,256.237 1202.77,371.417 1204.76,175.985 1206.76,239.617 1208.75,228.742 1210.74,171.096 1212.74,233.356 1214.73,222.799 1216.72,121.298 1218.72,174.934 1220.71,214.175 1222.7,330.016 1224.7,170.158 1226.69,257.463 1228.68,449.342 1230.67,285.292 1232.67,261.655 1234.66,501.746 1236.65,215.088 1238.65,187.018 1240.64,245.854 1242.63,174.533 1244.63,160.225 1246.62,312.865 1248.61,170.186 1250.61,263.62 1252.6,331.11 1254.59,303.228 1256.59,327.479 1258.58,199.883 1260.57,269.646 1262.57,136.918 1264.56,175.167 1266.55,252.891 1268.54,247.418 1270.54,419.585 1272.53,206.963 1274.52,204.659 1276.52,183.432 1278.51,306.691 1280.5,612.486 1282.5,210.157 1284.49,304.419 1286.48,134.803 1288.48,131.229 1290.47,166.764 1292.46,125.54 1294.46,295.426 1296.45,273.761 1298.44,234.679 1300.44,264.81 1302.43,182.733 1304.42,308.193 1306.41,221.788 1308.41,154.526 1310.4,191.733 1312.39,283.858 1314.39,216.004 1316.38,286.598 1318.37,181.415 1320.37,265.262 1322.36,129.221 1324.35,147.672 1326.35,373.403 1328.34,391.475 1330.33,341.711 1332.33,208.318 1334.32,251.667 1336.31,272.241 1338.3,328.979 1340.3,128.122 1342.29,260.896 1344.28,266.62 1346.28,315.253 1348.27,332.789 1350.26,311.164 1352.26,212.677 1354.25,285.194 1356.24,175.199 1358.24,248.102 1360.23,223.013 1362.22,144.654 1364.22,189.388 1366.21,316.646 1368.2,236.179 1370.2,405.472 1372.19,188.663 1374.18,135.137 1376.17,261.055 1378.17,120.643 1380.16,141.785 1382.15,551.168 1384.15,280.455 1386.14,303.157 1388.13,211.894 1390.13,179.888 1392.12,347.346 1394.11,338.76 1396.11,364.586 1398.1,179.798 1400.09,200.715 1402.09,220.598 1404.08,284.383 1406.07,242.107 1408.06,499.112 1410.06,262.36 1412.05,225.567 1414.04,182.459 1416.04,330.572 1418.03,245.723 1420.02,279.563 1422.02,160.021 1424.01,107.458 1426,232.801 1428,322.436 1429.99,205.534 1431.98,268.503 1433.98,240.194 1435.97,217.259 1437.96,179.308 1439.96,158.422 1441.95,251.561 1443.94,314.17 1445.93,277.742 1447.93,176.3 1449.92,169.89 1451.91,276.497 1453.91,247.755 1455.9,225.728 1457.89,222.266 1459.89,181.688 1461.88,146.725 1463.87,276.533 1465.87,564.63 1467.86,288.242 1469.85,190.466 1471.85,238.615 1473.84,333.715 1475.83,194.772 1477.82,384.693 1479.82,214.609 1481.81,219.582 1483.8,317 1485.8,384.235 1487.79,137.66 1489.78,494.982 1491.78,166.534 1493.77,185.622 1495.76,200.899 1497.76,236.927 1499.75,239.027 1501.74,251.568 1503.74,223.881 1505.73,146.217 1507.72,440.11 1509.72,165.044 1511.71,222.038 1513.7,244.185 1515.69,193.884 1517.69,221.077 1519.68,199.789 1521.67,184.634 1523.67,162.065 1525.66,199.841 1527.65,268.245 1529.65,237.516 1531.64,313.337 1533.63,184.489 1535.63,190.169 1537.62,209.121 1539.61,332.308 1541.61,247.06 1543.6,177.412 1545.59,220.663 1547.59,122.74 1549.58,170.056 1551.57,171.623 1553.56,317.668 1555.56,277.809 1557.55,387.306 1559.54,208.598 1561.54,294.812 1563.53,291.873 1565.52,344.136 1567.52,227.811 1569.51,260.655 1571.5,158.918 1573.5,135.36 1575.49,279.22 1577.48,173.605 1579.48,278.402 1581.47,409.704 1583.46,163.766 1585.45,379.697 1587.45,256.245 1589.44,171.875 1591.43,277.909 1593.43,217.291 1595.42,272.146 1597.41,162.507 1599.41,192.645 1601.4,307.654 1603.39,178.233 1605.39,191.907 1607.38,232.504 1609.37,227.401 1611.37,219.429 1613.36,157.281 1615.35,253.659 1617.35,252.706 1619.34,248.736 1621.33,144.939 1623.32,272.151 1625.32,225.838 1627.31,386.266 1629.3,235.522 1631.3,258.793 1633.29,276.28 1635.28,153.622 1637.28,322.799 1639.27,140.82 1641.26,426.397 1643.26,283.732 1645.25,128.232 1647.24,154.659 1649.24,165.804 1651.23,254.115 1653.22,435.58 1655.21,230.565 1657.21,268.126 1659.2,273.322 1661.19,252.883 1663.19,229.619 1665.18,323.435 1667.17,280.194 1669.17,201.742 1671.16,182.929 1673.15,352.02 1675.15,168.292 1677.14,212.195 1679.13,228.023 1681.13,245.762 1683.12,230.199 1685.11,135.779 1687.11,263.393 1689.1,302.443 1691.09,351.835 1693.08,237.869 1695.08,245.902 1697.07,314.932 1699.06,143.703 1701.06,205.444 1703.05,329.581 1705.04,214.492 1707.04,292.825 1709.03,210.252 1711.02,151.023 1713.02,190.644 1715.01,167.172 1717,270.19 1719,256.995 1720.99,94.5411 1722.98,232.967 1724.97,189.979 1726.97,186.997 1728.96,198.035 1730.95,218.89 1732.95,199.909 1734.94,278.396 1736.93,161.494 1738.93,191.36 1740.92,110.897 1742.91,227.698 1744.91,258.627 1746.9,118.205 1748.89,194.375 1750.89,320.118 1752.88,272.718 1754.87,194.53 1756.87,206.389 1758.86,253.902 1760.85,199.065 1762.84,155.835 1764.84,228.207 1766.83,221.687 1768.82,171.811 1770.82,316.531 1772.81,207.879 1774.8,234.129 1776.8,201.505 1778.79,262.288 1780.78,157.387 1782.78,174.08 1784.77,334.296 1786.76,248.621 1788.76,212.034 1790.75,213.897 1792.74,227.031 1794.74,304.398 1796.73,354.318 1798.72,155.479 1800.71,352.182 1802.71,247.079 1804.7,278.907 1806.69,194.711 1808.69,390.456 1810.68,194.56 1812.67,243.33 1814.67,237.322 1816.66,206.979 1818.65,184.255 1820.65,205.008 1822.64,217.708 1824.63,355.714 1826.63,240.663 1828.62,231.806 1830.61,246.351 1832.6,280.318 1834.6,351.159 1836.59,184.52 1838.58,267.927 1840.58,212.875 1842.57,110.252 1844.56,215.467 1846.56,118.876 1848.55,266.945 1850.54,158.975 1852.54,230.13 1854.53,174.404 1856.52,217.378 1858.52,257.898 1860.51,429.842 1862.5,236.186 1864.5,414.691 1866.49,228.431 1868.48,359.74 1870.47,217.513 1872.47,173.72 1874.46,176.873 1876.45,312.754 1878.45,143.181 1880.44,332.079 1882.43,161.673 1884.43,113.335 1886.42,220.493 1888.41,204.846 1890.41,174.969 1892.4,342.58 1894.39,273.476 1896.39,158.445 1898.38,261.774 1900.37,199.749 1902.36,514.05 1904.36,274.978 1906.35,168.632 1908.34,222.76 1910.34,193.813 1912.33,238.181 1914.32,362.131 1916.32,144.141 1918.31,212.617 1920.3,217.889 1922.3,147.689 1924.29,115.521 1926.28,189.408 1928.28,188.403 1930.27,218.37 1932.26,188.389 1934.26,347.005 1936.25,222.844 1938.24,320.474 1940.23,308.16 1942.23,204.315 1944.22,137.723 1946.21,348.244 1948.21,174.225 1950.2,285.88 1952.19,210.306 1954.19,198.047 1956.18,168.824 1958.17,307.111 1960.17,234.697 1962.16,153.061 1964.15,156.82 1966.15,255.858 1968.14,234.422 1970.13,199.191 1972.12,288.252 1974.12,298.411 1976.11,189.312 1978.1,179.492 1980.1,146.273 1982.09,204.788 1984.08,198.898 1986.08,185.001 1988.07,457.234 1990.06,191.759 1992.06,252.992 1994.05,111.884 1996.04,228.761 1998.04,233.621 2000.03,294.04 2002.02,153.722 2004.02,307.913 2006.01,404.103 2008,208.934 2009.99,187.267 2011.99,158.803 2013.98,152.684 2015.97,198.114 2017.97,188.55 2019.96,304.378 2021.95,180.416 2023.95,416.048 2025.94,210.8 2027.93,248.672 2029.93,366.059 2031.92,165.761 2033.91,294.907 2035.91,308.337 2037.9,208.483 2039.89,323.629 2041.89,224.929 2043.88,281.781 2045.87,284.964 2047.86,154.095 2049.86,156.802 2051.85,307.907 2053.84,294.376 2055.84,272.696 2057.83,159.388 2059.82,263.141 2061.82,269.21 2063.81,163.77 2065.8,196.815 2067.8,187.228 2069.79,165.585 2071.78,181.469 2073.78,257.262 2075.77,158.306 2077.76,243.426 2079.75,228.576 2081.75,193.87 2083.74,358.1 2085.73,345.724 2087.73,150.419 2089.72,150.007 2091.71,269.328 2093.71,271.198 2095.7,180.03 2097.69,382.954 2099.69,165.033 2101.68,179.335 2103.67,199.717 2105.67,169.559 2107.66,176.468 2109.65,164.937 2111.65,392.635 2113.64,125.113 2115.63,157.528 2117.62,382.449 2119.62,161.396 2121.61,234.054 2123.6,329.743 2125.6,424.833 2127.59,273.161 2129.58,242.773 2131.58,369.234 2133.57,263.56 2135.56,213.421 2137.56,200.366 2139.55,156.195 2141.54,139.058 2143.54,330.66 2145.53,220.798 2147.52,190.157 2149.51,168.042 2151.51,302.786 2153.5,232.104 2155.49,313.399 2157.49,256.068 2159.48,235.666 2161.47,168.456 2163.47,197.875 2165.46,187.109 2167.45,257.049 2169.45,133.154 2171.44,377.761 2173.43,251.679 2175.43,249.871 2177.42,145.788 2179.41,257.682 2181.41,228.33 2183.4,187.607 2185.39,190.395 2187.38,186.003 2189.38,231.604 2191.37,123.901 2193.36,251.521 2195.36,317.488 2197.35,309.432 2199.34,341.207 2201.34,196.127 2203.33,237.505 2205.32,144.799 2207.32,200.866 2209.31,199.018 2211.3,154.678 2213.3,196.245 2215.29,273.582 2217.28,348.245 2219.27,217.116 2221.27,229.962 2223.26,290.506 2225.25,172.42 2227.25,228.008 2229.24,331.991 2231.23,547.251 2233.23,363.85 2235.22,282.2 2237.21,132.54 2239.21,251.027 2241.2,229.118 2243.19,310.687 2245.19,341.608 2247.18,251.024 2249.17,201.241 2251.17,216.901 2253.16,245.005 2255.15,159.833 2257.14,278.887 2259.14,255.905 2261.13,124.999 2263.12,172.896 2265.12,139.333 2267.11,271.333 2269.1,329.874 2271.1,267.883 2273.09,186.686 2275.08,324.495 2277.08,304.208 2279.07,314.845 2281.06,249.537 2283.06,144.586 2285.05,204.947 2287.04,166.136 2289.04,185.603 2291.03,229.178 2293.02,207.348 "/>
<polyline clip-path="url(#clip812)" style="stroke:#e26f46; stroke-linecap:round; stroke-linejoin:round; stroke-width:4; stroke-opacity:1; fill:none" points="301.869,926.134 303.862,935.419 305.856,930.511 307.849,914.899 309.842,888.202 311.835,922.598 313.828,882.385 315.821,887.589 317.814,904.111 319.808,871.048 321.801,876.157 323.794,866.561 325.787,847.513 327.78,857.939 329.773,824.899 331.766,830.52 333.76,829.724 335.753,806.523 337.746,840.396 339.739,820.717 341.732,798.074 343.725,798.523 345.718,783.447 347.712,785.751 349.705,760.89 351.698,784.306 353.691,751.289 355.684,765.22 357.677,744.474 359.67,746.414 361.664,737.421 363.657,729.16 365.65,727.586 367.643,721.207 369.636,708.031 371.629,696.131 373.622,716.92 375.616,712.057 377.609,685.034 379.602,702.854 381.595,693.197 383.588,677.847 385.581,672.008 387.574,689.511 389.568,686.808 391.561,670.212 393.554,661.291 395.547,645.511 397.54,679.116 399.533,635.789 401.526,638.096 403.52,618.419 405.513,644.534 407.506,641.718 409.499,638.916 411.492,617.746 413.485,594.194 415.479,616.409 417.472,618.773 419.465,597.33 421.458,579.492 423.451,598.728 425.444,593.012 427.437,588.019 429.431,559.333 431.424,582.519 433.417,563.036 435.41,551.331 437.403,559.848 439.396,563.577 441.389,578.518 443.383,532.048 445.376,542.346 447.369,544.057 449.362,547.483 451.355,551.839 453.348,543.433 455.341,510.389 457.335,518.149 459.328,516.279 461.321,498.644 463.314,510.734 465.307,508.575 467.3,519.642 469.293,482.498 471.287,480.296 473.28,510.123 475.273,487.533 477.266,475.596 479.259,488.963 481.252,488.104 483.245,464.454 485.239,490.242 487.232,467.288 489.225,469.459 491.218,459.649 493.211,471.903 495.204,452.457 497.197,451.351 499.191,464.037 501.184,437.889 503.177,438.403 505.17,445.265 507.163,430.39 509.156,450.17 511.149,445.519 513.143,446.483 515.136,450.585 517.129,426.95 519.122,412.315 521.115,419.889 523.108,418.517 525.101,410.72 527.095,393.508 529.088,413.833 531.081,412.427 533.074,400.294 535.067,401.721 537.06,402.643 539.054,402.008 541.047,406.24 543.04,393.233 545.033,401.392 547.026,379.993 549.019,385.038 551.012,376.387 553.006,386.408 554.999,393.067 556.992,386.38 558.985,388.989 560.978,369.763 562.971,362.981 564.964,361.767 566.958,375.031 568.951,374.603 570.944,378.06 572.937,367.235 574.93,359.613 576.923,348.285 578.916,371.109 580.91,358.099 582.903,348.778 584.896,344.367 586.889,349.349 588.882,344.411 590.875,358.463 592.868,361.054 594.862,345.419 596.855,346.794 598.848,346.28 600.841,363.283 602.834,348.404 604.827,341.95 606.82,335.077 608.814,340.56 610.807,335.013 612.8,330.818 614.793,333.063 616.786,327.798 618.779,314.923 620.772,326.061 622.766,314.956 624.759,333.178 626.752,335.095 628.745,319.268 630.738,312.104 632.731,317.67 634.724,317.709 636.718,302.024 638.711,318.16 640.704,309.327 642.697,291.41 644.69,306.13 646.683,311.703 648.677,309.782 650.67,306.439 652.663,304.768 654.656,318.092 656.649,310.217 658.642,298.26 660.635,304.34 662.629,303.236 664.622,299.129 666.615,295.147 668.608,287.788 670.601,294.9 672.594,293.362 674.587,292.238 676.581,299.677 678.574,303.229 680.567,290.235 682.56,276.122 684.553,290.821 686.546,303.495 688.539,287.368 690.533,290.824 692.526,304.275 694.519,279.277 696.512,267.326 698.505,296.202 700.498,282.423 702.491,281.121 704.485,279.999 706.478,284.35 708.471,277.895 710.464,278.162 712.457,281.905 714.45,285.036 716.443,275.758 718.437,274.505 720.43,291.258 722.423,285.493 724.416,272.848 726.409,269.518 728.402,277.302 730.395,274.082 732.389,272.833 734.382,261.228 736.375,261.568 738.368,267.476 740.361,271.18 742.354,274.091 744.347,259.896 746.341,268.651 748.334,244.691 750.327,258.187 752.32,262.657 754.313,275.527 756.306,278.121 758.299,254.156 760.293,263.229 762.286,281.075 764.279,262.489 766.272,265.528 768.265,262.561 770.258,251.648 772.252,258.626 774.245,251.245 776.238,252.398 778.231,275.041 780.224,258.906 782.217,265.137 784.21,255.099 786.204,258.383 788.197,251.444 790.19,261.072 792.183,254.198 794.176,255.214 796.169,245.65 798.162,238.613 800.156,257.161 802.149,270.873 804.142,252.754 806.135,243.755 808.128,265.17 810.121,260.526 812.114,253.074 814.108,253.708 816.101,269.198 818.094,246.873 820.087,259.675 822.08,256.526 824.073,273.019 826.066,269.157 828.06,262.827 830.053,240.273 832.046,255.197 834.039,254.787 836.032,256.484 838.025,241.771 840.018,255.465 842.012,248.407 844.005,263.746 845.998,254.508 847.991,244.227 849.984,241.712 851.977,253.94 853.97,250.684 855.964,246.297 857.957,247.758 859.95,253.338 861.943,236.676 863.936,260.438 865.929,235.076 867.922,228.73 869.916,242.912 871.909,259.142 873.902,241.533 875.895,242.082 877.888,257.27 879.881,249.615 881.874,246.054 883.868,245.334 885.861,239.719 887.854,243.765 889.847,232.336 891.84,251.296 893.833,249.04 895.827,245.118 897.82,242.412 899.813,252.118 901.806,250.746 903.799,241.56 905.792,247.381 907.785,239.957 909.779,242.863 911.772,239.618 913.765,239.39 915.758,245.506 917.751,236.26 919.744,248.089 921.737,237.5 923.731,231.92 925.724,243.659 927.717,250.554 929.71,231.736 931.703,235.499 933.696,240.143 935.689,229.527 937.683,242.767 939.676,234.93 941.669,244.26 943.662,241.848 945.655,238.79 947.648,238.658 949.641,261.643 951.635,236.325 953.628,236.516 955.621,257.682 957.614,259.056 959.607,245.041 961.6,251.047 963.593,239.979 965.587,243.218 967.58,253.877 969.573,235.45 971.566,267.729 973.559,250.18 975.552,232.046 977.545,241.175 979.539,263.647 981.532,255.969 983.525,251.216 985.518,229.296 987.511,241.197 989.504,238.564 991.497,247.106 993.491,230.909 995.484,237.509 997.477,227.1 999.47,239.492 1001.46,255.21 1003.46,257.359 1005.45,240.876 1007.44,237.792 1009.44,235.474 1011.43,234.693 1013.42,236.089 1015.42,249.466 1017.41,248.453 1019.4,238.339 1021.39,239.08 1023.39,230.008 1025.38,239.616 1027.37,230.103 1029.37,249.474 1031.36,257.914 1033.35,262.298 1035.35,232.984 1037.34,235.851 1039.33,234.496 1041.33,232.045 1043.32,262.011 1045.31,245.566 1047.31,242.957 1049.3,248.912 1051.29,241.907 1053.28,236.721 1055.28,237.191 1057.27,239.979 1059.26,249.736 1061.26,241.105 1063.25,246.386 1065.24,242.547 1067.24,240.117 1069.23,234.742 1071.22,233.679 1073.22,245.087 1075.21,230.803 1077.2,244.843 1079.2,242.7 1081.19,249.314 1083.18,244.89 1085.18,244.215 1087.17,241.854 1089.16,239.78 1091.15,236.737 1093.15,255.264 1095.14,237.01 1097.13,238.675 1099.13,232.886 1101.12,238.766 1103.11,251.533 1105.11,229.435 1107.1,247.825 1109.09,249.574 1111.09,227.454 1113.08,238.166 1115.07,227.043 1117.07,241.181 1119.06,226.858 1121.05,238.824 1123.05,244.454 1125.04,258.047 1127.03,244.449 1129.02,246.576 1131.02,246.781 1133.01,230.304 1135,242.64 1137,248.989 1138.99,245.761 1140.98,239.865 1142.98,241.413 1144.97,234.3 1146.96,250.418 1148.96,250.786 1150.95,236.753 1152.94,234.901 1154.94,234.893 1156.93,227.371 1158.92,234.15 1160.91,226.659 1162.91,251.951 1164.9,233.732 1166.89,231.534 1168.89,252.434 1170.88,245.849 1172.87,235.568 1174.87,252.897 1176.86,244.5 1178.85,253.221 1180.85,244.937 1182.84,246.335 1184.83,253.882 1186.83,239.085 1188.82,240.454 1190.81,229.293 1192.81,237.697 1194.8,232.29 1196.79,247.233 1198.78,232.683 1200.78,237.716 1202.77,228.681 1204.76,257.633 1206.76,244.205 1208.75,240.453 1210.74,221.256 1212.74,249.143 1214.73,241.58 1216.72,237.835 1218.72,241.318 1220.71,239.287 1222.7,246.107 1224.7,242.491 1226.69,243.311 1228.68,237.164 1230.67,238.259 1232.67,231.416 1234.66,233.376 1236.65,233.881 1238.65,260.144 1240.64,241.166 1242.63,230.463 1244.63,222.662 1246.62,230.116 1248.61,230.254 1250.61,227.151 1252.6,244.782 1254.59,243.25 1256.59,235.911 1258.58,231.342 1260.57,238.193 1262.57,228.437 1264.56,251.111 1266.55,243.929 1268.54,230.436 1270.54,232.914 1272.53,251.326 1274.52,231.072 1276.52,242.219 1278.51,240.396 1280.5,241.248 1282.5,237.269 1284.49,243.362 1286.48,243.567 1288.48,248.638 1290.47,241.965 1292.46,233.678 1294.46,244.981 1296.45,225.045 1298.44,233.854 1300.44,243.717 1302.43,253.589 1304.42,233.058 1306.41,224.129 1308.41,243.516 1310.4,242.612 1312.39,243.893 1314.39,234.002 1316.38,225.361 1318.37,242.817 1320.37,250.097 1322.36,236.339 1324.35,250.134 1326.35,233.151 1328.34,244.819 1330.33,228.226 1332.33,249.795 1334.32,247.401 1336.31,229.088 1338.3,237.843 1340.3,229.128 1342.29,246.209 1344.28,238.3 1346.28,233.978 1348.27,232.69 1350.26,232.553 1352.26,256.292 1354.25,248.064 1356.24,243.581 1358.24,225.425 1360.23,228.189 1362.22,221.693 1364.22,242.021 1366.21,253.971 1368.2,249.96 1370.2,227.51 1372.19,244.878 1374.18,248.61 1376.17,241.791 1378.17,245.99 1380.16,236.084 1382.15,248.171 1384.15,226.229 1386.14,265.937 1388.13,250.009 1390.13,238.728 1392.12,243.744 1394.11,244.277 1396.11,245.476 1398.1,252.432 1400.09,243.49 1402.09,242.69 1404.08,252.49 1406.07,243.494 1408.06,225.235 1410.06,249.579 1412.05,241.946 1414.04,249.928 1416.04,243.416 1418.03,253.444 1420.02,250.312 1422.02,244.485 1424.01,239.871 1426,229.901 1428,234.607 1429.99,237.949 1431.98,230.75 1433.98,253.756 1435.97,242.33 1437.96,240.541 1439.96,238.546 1441.95,239.406 1443.94,242.211 1445.93,244.077 1447.93,232.137 1449.92,238.994 1451.91,233.371 1453.91,242.07 1455.9,234.702 1457.89,217.305 1459.89,248.983 1461.88,227.44 1463.87,245.398 1465.87,237.29 1467.86,231.801 1469.85,243.324 1471.85,239.029 1473.84,229.934 1475.83,246.401 1477.82,244.034 1479.82,223.793 1481.81,234.047 1483.8,263.94 1485.8,235.195 1487.79,224.384 1489.78,263.16 1491.78,225.121 1493.77,238.671 1495.76,237.917 1497.76,235.224 1499.75,226.39 1501.74,248.276 1503.74,243.346 1505.73,240.114 1507.72,253.653 1509.72,225.146 1511.71,234.118 1513.7,255.896 1515.69,245.904 1517.69,281.707 1519.68,249.943 1521.67,240.93 1523.67,225.811 1525.66,227.349 1527.65,235.552 1529.65,242.713 1531.64,252.145 1533.63,236.614 1535.63,227.682 1537.62,246.356 1539.61,228.658 1541.61,247.927 1543.6,241.536 1545.59,240.731 1547.59,246.961 1549.58,240.462 1551.57,231.424 1553.56,241.95 1555.56,241.737 1557.55,247.778 1559.54,236.879 1561.54,237.05 1563.53,254.802 1565.52,234.884 1567.52,238.87 1569.51,250.001 1571.5,244.095 1573.5,237.227 1575.49,237.495 1577.48,234.082 1579.48,240 1581.47,231.428 1583.46,237.174 1585.45,250.687 1587.45,218.05 1589.44,243.615 1591.43,239.717 1593.43,243.371 1595.42,230.788 1597.41,245.559 1599.41,229.157 1601.4,238.627 1603.39,237.666 1605.39,241.025 1607.38,239.133 1609.37,228.465 1611.37,243.325 1613.36,250.652 1615.35,237.539 1617.35,241.783 1619.34,228.82 1621.33,242.332 1623.32,230.635 1625.32,229.948 1627.31,232.662 1629.3,242.805 1631.3,255.311 1633.29,236.101 1635.28,241.131 1637.28,238.511 1639.27,233.182 1641.26,239.301 1643.26,227.386 1645.25,240.302 1647.24,226.846 1649.24,254.741 1651.23,239.376 1653.22,250.322 1655.21,246.473 1657.21,248.726 1659.2,233.676 1661.19,228.934 1663.19,227.637 1665.18,246.891 1667.17,228.151 1669.17,239.904 1671.16,230.353 1673.15,246.245 1675.15,237.326 1677.14,239.475 1679.13,224.74 1681.13,259.66 1683.12,249.325 1685.11,249.27 1687.11,238.906 1689.1,237.889 1691.09,237.908 1693.08,243.109 1695.08,239.468 1697.07,240.549 1699.06,249.706 1701.06,240.303 1703.05,226.554 1705.04,280.649 1707.04,252.402 1709.03,229.173 1711.02,243.53 1713.02,236.285 1715.01,233.891 1717,228.385 1719,241.449 1720.99,241.648 1722.98,223.338 1724.97,245.61 1726.97,241.838 1728.96,238.701 1730.95,251.755 1732.95,242.817 1734.94,233.903 1736.93,238.748 1738.93,232.639 1740.92,230.826 1742.91,228.356 1744.91,264.226 1746.9,250.567 1748.89,248.792 1750.89,238.821 1752.88,233.355 1754.87,227.481 1756.87,239.59 1758.86,241.665 1760.85,255.169 1762.84,232.324 1764.84,229.727 1766.83,230.408 1768.82,234.414 1770.82,248.042 1772.81,236.613 1774.8,243.768 1776.8,229.669 1778.79,237.578 1780.78,247.767 1782.78,253.715 1784.77,250.787 1786.76,242.915 1788.76,243.176 1790.75,254.359 1792.74,258.608 1794.74,249.857 1796.73,233.659 1798.72,238.873 1800.71,224.984 1802.71,237.998 1804.7,239.97 1806.69,234.676 1808.69,244.621 1810.68,239.599 1812.67,235.41 1814.67,231.325 1816.66,234.23 1818.65,247.553 1820.65,243.866 1822.64,229.922 1824.63,231.682 1826.63,247.959 1828.62,246.253 1830.61,237.353 1832.6,226.792 1834.6,243.116 1836.59,239.485 1838.58,241.944 1840.58,246.831 1842.57,252.166 1844.56,254.095 1846.56,241.377 1848.55,240.619 1850.54,239.592 1852.54,239.512 1854.53,237.867 1856.52,236.416 1858.52,247.692 1860.51,233.159 1862.5,255.84 1864.5,240.135 1866.49,231.394 1868.48,237.467 1870.47,247.018 1872.47,232.423 1874.46,239.181 1876.45,249.691 1878.45,245.727 1880.44,246.098 1882.43,232.045 1884.43,229.975 1886.42,240.292 1888.41,231.808 1890.41,251.415 1892.4,241.429 1894.39,247.927 1896.39,240.552 1898.38,252.783 1900.37,234.615 1902.36,244.949 1904.36,266.063 1906.35,242.08 1908.34,257.641 1910.34,250.199 1912.33,227.068 1914.32,230.408 1916.32,243.788 1918.31,252.973 1920.3,250.407 1922.3,236.892 1924.29,246.803 1926.28,248.999 1928.28,227.772 1930.27,234.799 1932.26,246.177 1934.26,245.433 1936.25,236.681 1938.24,256.917 1940.23,233.632 1942.23,227.559 1944.22,231.037 1946.21,245.449 1948.21,239.811 1950.2,236.214 1952.19,249.31 1954.19,240.827 1956.18,247.776 1958.17,242.2 1960.17,238.002 1962.16,236.657 1964.15,246.852 1966.15,241.647 1968.14,246.035 1970.13,235.092 1972.12,230.851 1974.12,261.503 1976.11,238.987 1978.1,231.945 1980.1,232.24 1982.09,240.001 1984.08,236.564 1986.08,230.648 1988.07,250.532 1990.06,233.229 1992.06,244.025 1994.05,239.749 1996.04,229.284 1998.04,226.456 2000.03,249.647 2002.02,227.361 2004.02,245.928 2006.01,239.987 2008,247.842 2009.99,237.065 2011.99,232.455 2013.98,237.188 2015.97,239.457 2017.97,231.072 2019.96,238.093 2021.95,239.84 2023.95,253.361 2025.94,236.754 2027.93,242.674 2029.93,223.796 2031.92,226.51 2033.91,244.545 2035.91,232.506 2037.9,230.372 2039.89,251.064 2041.89,232.322 2043.88,248.141 2045.87,241.389 2047.86,236.055 2049.86,237.988 2051.85,238.352 2053.84,231.805 2055.84,243.34 2057.83,246.774 2059.82,235.3 2061.82,250.157 2063.81,222.166 2065.8,238.539 2067.8,235.063 2069.79,232.055 2071.78,249.634 2073.78,239.121 2075.77,230.435 2077.76,229.878 2079.75,246.789 2081.75,243.089 2083.74,238.343 2085.73,257.773 2087.73,237.519 2089.72,240.463 2091.71,243.302 2093.71,230.21 2095.7,233.433 2097.69,244.226 2099.69,240.682 2101.68,239.065 2103.67,227.288 2105.67,234.555 2107.66,249.302 2109.65,229.528 2111.65,239.881 2113.64,237.754 2115.63,232.371 2117.62,247.873 2119.62,234.824 2121.61,239.558 2123.6,241.458 2125.6,238.343 2127.59,245.435 2129.58,250.422 2131.58,242.676 2133.57,231.77 2135.56,234.83 2137.56,238.498 2139.55,245.564 2141.54,242.205 2143.54,238.458 2145.53,257.328 2147.52,232.945 2149.51,245.521 2151.51,230.661 2153.5,262.979 2155.49,241.836 2157.49,243.34 2159.48,234.136 2161.47,250.119 2163.47,232.172 2165.46,243.322 2167.45,233.285 2169.45,244.185 2171.44,246.005 2173.43,233.142 2175.43,242.938 2177.42,229.395 2179.41,236.19 2181.41,246.719 2183.4,244.626 2185.39,224.429 2187.38,231.033 2189.38,235.666 2191.37,230.362 2193.36,246.906 2195.36,256.531 2197.35,224.649 2199.34,254.016 2201.34,238.122 2203.33,249.575 2205.32,233.932 2207.32,228.287 2209.31,242.065 2211.3,245.939 2213.3,256.021 2215.29,255.047 2217.28,248.173 2219.27,237.922 2221.27,238.477 2223.26,233.207 2225.25,243.639 2227.25,250.626 2229.24,250.887 2231.23,237.445 2233.23,248.572 2235.22,240.71 2237.21,241.397 2239.21,237.01 2241.2,237.393 2243.19,234.626 2245.19,248.128 2247.18,238.177 2249.17,234.925 2251.17,242.797 2253.16,241.809 2255.15,236.436 2257.14,238.122 2259.14,246.069 2261.13,227.072 2263.12,230.78 2265.12,235.143 2267.11,238.874 2269.1,235.271 2271.1,235.916 2273.09,246.743 2275.08,247.938 2277.08,230.501 2279.07,233.162 2281.06,230.921 2283.06,241.443 2285.05,245.713 2287.04,233.967 2289.04,247.115 2291.03,236.865 2293.02,233.205 "/>
<path clip-path="url(#clip810)" d="M1736.78 1377.32 L2282.4 1377.32 L2282.4 1221.8 L1736.78 1221.8  Z" fill="#ffffff" fill-rule="evenodd" fill-opacity="1"/>
<polyline clip-path="url(#clip810)" style="stroke:#000000; stroke-linecap:round; stroke-linejoin:round; stroke-width:4; stroke-opacity:1; fill:none" points="1736.78,1377.32 2282.4,1377.32 2282.4,1221.8 1736.78,1221.8 1736.78,1377.32 "/>
<polyline clip-path="url(#clip810)" style="stroke:#009af9; stroke-linecap:round; stroke-linejoin:round; stroke-width:4; stroke-opacity:1; fill:none" points="1760.23,1273.64 1900.94,1273.64 "/>
<path clip-path="url(#clip810)" d="M1929.07 1274.41 L1929.07 1287.07 L1936.57 1287.07 Q1940.34 1287.07 1942.15 1285.52 Q1943.98 1283.95 1943.98 1280.73 Q1943.98 1277.49 1942.15 1275.96 Q1940.34 1274.41 1936.57 1274.41 L1929.07 1274.41 M1929.07 1260.2 L1929.07 1270.61 L1935.99 1270.61 Q1939.42 1270.61 1941.08 1269.34 Q1942.77 1268.05 1942.77 1265.41 Q1942.77 1262.79 1941.08 1261.49 Q1939.42 1260.2 1935.99 1260.2 L1929.07 1260.2 M1924.39 1256.36 L1936.34 1256.36 Q1941.68 1256.36 1944.58 1258.58 Q1947.47 1260.8 1947.47 1264.9 Q1947.47 1268.07 1945.99 1269.94 Q1944.51 1271.82 1941.64 1272.28 Q1945.09 1273.02 1946.98 1275.38 Q1948.91 1277.72 1948.91 1281.24 Q1948.91 1285.87 1945.76 1288.39 Q1942.61 1290.92 1936.8 1290.92 L1924.39 1290.92 L1924.39 1256.36 Z" fill="#000000" fill-rule="nonzero" fill-opacity="1" /><path clip-path="url(#clip810)" d="M1961.59 1274.41 L1961.59 1287.07 L1969.09 1287.07 Q1972.86 1287.07 1974.67 1285.52 Q1976.5 1283.95 1976.5 1280.73 Q1976.5 1277.49 1974.67 1275.96 Q1972.86 1274.41 1969.09 1274.41 L1961.59 1274.41 M1961.59 1260.2 L1961.59 1270.61 L1968.51 1270.61 Q1971.94 1270.61 1973.6 1269.34 Q1975.29 1268.05 1975.29 1265.41 Q1975.29 1262.79 1973.6 1261.49 Q1971.94 1260.2 1968.51 1260.2 L1961.59 1260.2 M1956.92 1256.36 L1968.86 1256.36 Q1974.21 1256.36 1977.1 1258.58 Q1979.99 1260.8 1979.99 1264.9 Q1979.99 1268.07 1978.51 1269.94 Q1977.03 1271.82 1974.16 1272.28 Q1977.61 1273.02 1979.51 1275.38 Q1981.43 1277.72 1981.43 1281.24 Q1981.43 1285.87 1978.28 1288.39 Q1975.13 1290.92 1969.32 1290.92 L1956.92 1290.92 L1956.92 1256.36 Z" fill="#000000" fill-rule="nonzero" fill-opacity="1" /><path clip-path="url(#clip810)" d="M1996.89 1290.92 L1983.7 1256.36 L1988.58 1256.36 L1999.53 1285.45 L2010.5 1256.36 L2015.36 1256.36 L2002.19 1290.92 L1996.89 1290.92 Z" fill="#000000" fill-rule="nonzero" fill-opacity="1" /><path clip-path="url(#clip810)" d="M2020.41 1256.36 L2025.09 1256.36 L2025.09 1290.92 L2020.41 1290.92 L2020.41 1256.36 Z" fill="#000000" fill-rule="nonzero" fill-opacity="1" /><path clip-path="url(#clip810)" d="M2075.34 1259.02 L2075.34 1263.95 Q2072.98 1261.75 2070.29 1260.66 Q2067.63 1259.57 2064.62 1259.57 Q2058.7 1259.57 2055.55 1263.21 Q2052.4 1266.82 2052.4 1273.67 Q2052.4 1280.5 2055.55 1284.13 Q2058.7 1287.74 2064.62 1287.74 Q2067.63 1287.74 2070.29 1286.66 Q2072.98 1285.57 2075.34 1283.37 L2075.34 1288.25 Q2072.89 1289.92 2070.13 1290.75 Q2067.4 1291.59 2064.35 1291.59 Q2056.5 1291.59 2051.98 1286.79 Q2047.47 1281.98 2047.47 1273.67 Q2047.47 1265.34 2051.98 1260.55 Q2056.5 1255.73 2064.35 1255.73 Q2067.45 1255.73 2070.18 1256.56 Q2072.93 1257.37 2075.34 1259.02 Z" fill="#000000" fill-rule="nonzero" fill-opacity="1" /><path clip-path="url(#clip810)" d="M2082.56 1256.36 L2102.42 1256.36 L2102.42 1260.29 L2087.24 1260.29 L2087.24 1270.48 L2100.94 1270.48 L2100.94 1274.41 L2087.24 1274.41 L2087.24 1290.92 L2082.56 1290.92 L2082.56 1256.36 Z" fill="#000000" fill-rule="nonzero" fill-opacity="1" /><path clip-path="url(#clip810)" d="M2109.83 1256.36 L2131.68 1256.36 L2131.68 1260.29 L2114.51 1260.29 L2114.51 1270.52 L2130.97 1270.52 L2130.97 1274.46 L2114.51 1274.46 L2114.51 1286.98 L2132.1 1286.98 L2132.1 1290.92 L2109.83 1290.92 L2109.83 1256.36 Z" fill="#000000" fill-rule="nonzero" fill-opacity="1" /><polyline clip-path="url(#clip810)" style="stroke:#e26f46; stroke-linecap:round; stroke-linejoin:round; stroke-width:4; stroke-opacity:1; fill:none" points="1760.23,1325.48 1900.94,1325.48 "/>
<path clip-path="url(#clip810)" d="M1929.07 1326.25 L1929.07 1338.91 L1936.57 1338.91 Q1940.34 1338.91 1942.15 1337.36 Q1943.98 1335.79 1943.98 1332.57 Q1943.98 1329.33 1942.15 1327.8 Q1940.34 1326.25 1936.57 1326.25 L1929.07 1326.25 M1929.07 1312.04 L1929.07 1322.45 L1935.99 1322.45 Q1939.42 1322.45 1941.08 1321.18 Q1942.77 1319.89 1942.77 1317.25 Q1942.77 1314.63 1941.08 1313.33 Q1939.42 1312.04 1935.99 1312.04 L1929.07 1312.04 M1924.39 1308.2 L1936.34 1308.2 Q1941.68 1308.2 1944.58 1310.42 Q1947.47 1312.64 1947.47 1316.74 Q1947.47 1319.91 1945.99 1321.78 Q1944.51 1323.66 1941.64 1324.12 Q1945.09 1324.86 1946.98 1327.22 Q1948.91 1329.56 1948.91 1333.08 Q1948.91 1337.71 1945.76 1340.23 Q1942.61 1342.76 1936.8 1342.76 L1924.39 1342.76 L1924.39 1308.2 Z" fill="#000000" fill-rule="nonzero" fill-opacity="1" /><path clip-path="url(#clip810)" d="M1961.59 1326.25 L1961.59 1338.91 L1969.09 1338.91 Q1972.86 1338.91 1974.67 1337.36 Q1976.5 1335.79 1976.5 1332.57 Q1976.5 1329.33 1974.67 1327.8 Q1972.86 1326.25 1969.09 1326.25 L1961.59 1326.25 M1961.59 1312.04 L1961.59 1322.45 L1968.51 1322.45 Q1971.94 1322.45 1973.6 1321.18 Q1975.29 1319.89 1975.29 1317.25 Q1975.29 1314.63 1973.6 1313.33 Q1971.94 1312.04 1968.51 1312.04 L1961.59 1312.04 M1956.92 1308.2 L1968.86 1308.2 Q1974.21 1308.2 1977.1 1310.42 Q1979.99 1312.64 1979.99 1316.74 Q1979.99 1319.91 1978.51 1321.78 Q1977.03 1323.66 1974.16 1324.12 Q1977.61 1324.86 1979.51 1327.22 Q1981.43 1329.56 1981.43 1333.08 Q1981.43 1337.71 1978.28 1340.23 Q1975.13 1342.76 1969.32 1342.76 L1956.92 1342.76 L1956.92 1308.2 Z" fill="#000000" fill-rule="nonzero" fill-opacity="1" /><path clip-path="url(#clip810)" d="M1996.89 1342.76 L1983.7 1308.2 L1988.58 1308.2 L1999.53 1337.29 L2010.5 1308.2 L2015.36 1308.2 L2002.19 1342.76 L1996.89 1342.76 Z" fill="#000000" fill-rule="nonzero" fill-opacity="1" /><path clip-path="url(#clip810)" d="M2020.41 1308.2 L2025.09 1308.2 L2025.09 1342.76 L2020.41 1342.76 L2020.41 1308.2 Z" fill="#000000" fill-rule="nonzero" fill-opacity="1" /><path clip-path="url(#clip810)" d="M2075.34 1310.86 L2075.34 1315.79 Q2072.98 1313.59 2070.29 1312.5 Q2067.63 1311.41 2064.62 1311.41 Q2058.7 1311.41 2055.55 1315.05 Q2052.4 1318.66 2052.4 1325.51 Q2052.4 1332.34 2055.55 1335.97 Q2058.7 1339.58 2064.62 1339.58 Q2067.63 1339.58 2070.29 1338.5 Q2072.98 1337.41 2075.34 1335.21 L2075.34 1340.09 Q2072.89 1341.76 2070.13 1342.59 Q2067.4 1343.43 2064.35 1343.43 Q2056.5 1343.43 2051.98 1338.63 Q2047.47 1333.82 2047.47 1325.51 Q2047.47 1317.18 2051.98 1312.39 Q2056.5 1307.57 2064.35 1307.57 Q2067.45 1307.57 2070.18 1308.4 Q2072.93 1309.21 2075.34 1310.86 Z" fill="#000000" fill-rule="nonzero" fill-opacity="1" /><path clip-path="url(#clip810)" d="M2082.56 1308.2 L2102.42 1308.2 L2102.42 1312.13 L2087.24 1312.13 L2087.24 1322.32 L2100.94 1322.32 L2100.94 1326.25 L2087.24 1326.25 L2087.24 1342.76 L2082.56 1342.76 L2082.56 1308.2 Z" fill="#000000" fill-rule="nonzero" fill-opacity="1" /><path clip-path="url(#clip810)" d="M2109.83 1308.2 L2131.68 1308.2 L2131.68 1312.13 L2114.51 1312.13 L2114.51 1322.36 L2130.97 1322.36 L2130.97 1326.3 L2114.51 1326.3 L2114.51 1338.82 L2132.1 1338.82 L2132.1 1342.76 L2109.83 1342.76 L2109.83 1308.2 Z" fill="#000000" fill-rule="nonzero" fill-opacity="1" /><path clip-path="url(#clip810)" d="M2168.88 1311.37 Q2163.79 1311.37 2160.78 1315.16 Q2157.79 1318.96 2157.79 1325.51 Q2157.79 1332.04 2160.78 1335.83 Q2163.79 1339.63 2168.88 1339.63 Q2173.97 1339.63 2176.94 1335.83 Q2179.92 1332.04 2179.92 1325.51 Q2179.92 1318.96 2176.94 1315.16 Q2173.97 1311.37 2168.88 1311.37 M2175.43 1342.13 L2181.59 1348.87 L2175.94 1348.87 L2170.83 1343.33 Q2170.06 1343.38 2169.65 1343.4 Q2169.25 1343.43 2168.88 1343.43 Q2161.59 1343.43 2157.21 1338.57 Q2152.86 1333.68 2152.86 1325.51 Q2152.86 1317.32 2157.21 1312.45 Q2161.59 1307.57 2168.88 1307.57 Q2176.15 1307.57 2180.5 1312.45 Q2184.85 1317.32 2184.85 1325.51 Q2184.85 1331.53 2182.42 1335.81 Q2180.02 1340.09 2175.43 1342.13 Z" fill="#000000" fill-rule="nonzero" fill-opacity="1" /><path clip-path="url(#clip810)" d="M2192.17 1308.2 L2199.14 1308.2 L2207.96 1331.71 L2216.82 1308.2 L2223.79 1308.2 L2223.79 1342.76 L2219.23 1342.76 L2219.23 1312.41 L2210.32 1336.11 L2205.62 1336.11 L2196.71 1312.41 L2196.71 1342.76 L2192.17 1342.76 L2192.17 1308.2 Z" fill="#000000" fill-rule="nonzero" fill-opacity="1" /><path clip-path="url(#clip810)" d="M2258.95 1310.86 L2258.95 1315.79 Q2256.59 1313.59 2253.9 1312.5 Q2251.24 1311.41 2248.23 1311.41 Q2242.31 1311.41 2239.16 1315.05 Q2236.01 1318.66 2236.01 1325.51 Q2236.01 1332.34 2239.16 1335.97 Q2242.31 1339.58 2248.23 1339.58 Q2251.24 1339.58 2253.9 1338.5 Q2256.59 1337.41 2258.95 1335.21 L2258.95 1340.09 Q2256.5 1341.76 2253.74 1342.59 Q2251.01 1343.43 2247.96 1343.43 Q2240.11 1343.43 2235.59 1338.63 Q2231.08 1333.82 2231.08 1325.51 Q2231.08 1317.18 2235.59 1312.39 Q2240.11 1307.57 2247.96 1307.57 Q2251.06 1307.57 2253.79 1308.4 Q2256.54 1309.21 2258.95 1310.86 Z" fill="#000000" fill-rule="nonzero" fill-opacity="1" /></svg>
