<?xml version="1.0" encoding="utf-8"?>
<svg xmlns="http://www.w3.org/2000/svg" xmlns:xlink="http://www.w3.org/1999/xlink" width="600" height="400" viewBox="0 0 2400 1600">
<defs>
  <clipPath id="clip750">
    <rect x="0" y="0" width="2400" height="1600"/>
  </clipPath>
</defs>
<path clip-path="url(#clip750)" d="M0 1600 L2400 1600 L2400 0 L0 0  Z" fill="#ffffff" fill-rule="evenodd" fill-opacity="1"/>
<defs>
  <clipPath id="clip751">
    <rect x="175" y="47" width="2178" height="1377"/>
  </clipPath>
</defs>
<path clip-path="url(#clip750)" d="M242.135 1423.18 L2352.76 1423.18 L2352.76 47.2441 L242.135 47.2441  Z" fill="#ffffff" fill-rule="evenodd" fill-opacity="1"/>
<defs>
  <clipPath id="clip752">
    <rect x="242" y="47" width="2112" height="1377"/>
  </clipPath>
</defs>
<polyline clip-path="url(#clip752)" style="stroke:#000000; stroke-linecap:round; stroke-linejoin:round; stroke-width:2; stroke-opacity:0.1; fill:none" points="299.876,1423.18 299.876,47.2441 "/>
<polyline clip-path="url(#clip752)" style="stroke:#000000; stroke-linecap:round; stroke-linejoin:round; stroke-width:2; stroke-opacity:0.1; fill:none" points="798.162,1423.18 798.162,47.2441 "/>
<polyline clip-path="url(#clip752)" style="stroke:#000000; stroke-linecap:round; stroke-linejoin:round; stroke-width:2; stroke-opacity:0.1; fill:none" points="1296.45,1423.18 1296.45,47.2441 "/>
<polyline clip-path="url(#clip752)" style="stroke:#000000; stroke-linecap:round; stroke-linejoin:round; stroke-width:2; stroke-opacity:0.1; fill:none" points="1794.74,1423.18 1794.74,47.2441 "/>
<polyline clip-path="url(#clip752)" style="stroke:#000000; stroke-linecap:round; stroke-linejoin:round; stroke-width:2; stroke-opacity:0.1; fill:none" points="2293.02,1423.18 2293.02,47.2441 "/>
<polyline clip-path="url(#clip752)" style="stroke:#000000; stroke-linecap:round; stroke-linejoin:round; stroke-width:2; stroke-opacity:0.1; fill:none" points="242.135,1361.62 2352.76,1361.62 "/>
<polyline clip-path="url(#clip752)" style="stroke:#000000; stroke-linecap:round; stroke-linejoin:round; stroke-width:2; stroke-opacity:0.1; fill:none" points="242.135,1074.52 2352.76,1074.52 "/>
<polyline clip-path="url(#clip752)" style="stroke:#000000; stroke-linecap:round; stroke-linejoin:round; stroke-width:2; stroke-opacity:0.1; fill:none" points="242.135,787.433 2352.76,787.433 "/>
<polyline clip-path="url(#clip752)" style="stroke:#000000; stroke-linecap:round; stroke-linejoin:round; stroke-width:2; stroke-opacity:0.1; fill:none" points="242.135,500.341 2352.76,500.341 "/>
<polyline clip-path="url(#clip752)" style="stroke:#000000; stroke-linecap:round; stroke-linejoin:round; stroke-width:2; stroke-opacity:0.1; fill:none" points="242.135,213.249 2352.76,213.249 "/>
<polyline clip-path="url(#clip750)" style="stroke:#000000; stroke-linecap:round; stroke-linejoin:round; stroke-width:4; stroke-opacity:1; fill:none" points="242.135,1423.18 2352.76,1423.18 "/>
<polyline clip-path="url(#clip750)" style="stroke:#000000; stroke-linecap:round; stroke-linejoin:round; stroke-width:4; stroke-opacity:1; fill:none" points="299.876,1423.18 299.876,1404.28 "/>
<polyline clip-path="url(#clip750)" style="stroke:#000000; stroke-linecap:round; stroke-linejoin:round; stroke-width:4; stroke-opacity:1; fill:none" points="798.162,1423.18 798.162,1404.28 "/>
<polyline clip-path="url(#clip750)" style="stroke:#000000; stroke-linecap:round; stroke-linejoin:round; stroke-width:4; stroke-opacity:1; fill:none" points="1296.45,1423.18 1296.45,1404.28 "/>
<polyline clip-path="url(#clip750)" style="stroke:#000000; stroke-linecap:round; stroke-linejoin:round; stroke-width:4; stroke-opacity:1; fill:none" points="1794.74,1423.18 1794.74,1404.28 "/>
<polyline clip-path="url(#clip750)" style="stroke:#000000; stroke-linecap:round; stroke-linejoin:round; stroke-width:4; stroke-opacity:1; fill:none" points="2293.02,1423.18 2293.02,1404.28 "/>
<path clip-path="url(#clip750)" d="M299.876 1454.1 Q296.265 1454.1 294.436 1457.66 Q292.631 1461.2 292.631 1468.33 Q292.631 1475.44 294.436 1479.01 Q296.265 1482.55 299.876 1482.55 Q303.51 1482.55 305.316 1479.01 Q307.145 1475.44 307.145 1468.33 Q307.145 1461.2 305.316 1457.66 Q303.51 1454.1 299.876 1454.1 M299.876 1450.39 Q305.686 1450.39 308.742 1455 Q311.82 1459.58 311.82 1468.33 Q311.82 1477.06 308.742 1481.67 Q305.686 1486.25 299.876 1486.25 Q294.066 1486.25 290.987 1481.67 Q287.932 1477.06 287.932 1468.33 Q287.932 1459.58 290.987 1455 Q294.066 1450.39 299.876 1450.39 Z" fill="#000000" fill-rule="nonzero" fill-opacity="1" /><path clip-path="url(#clip750)" d="M761.855 1481.64 L778.174 1481.64 L778.174 1485.58 L756.23 1485.58 L756.23 1481.64 Q758.892 1478.89 763.475 1474.26 Q768.082 1469.61 769.262 1468.27 Q771.507 1465.74 772.387 1464.01 Q773.29 1462.25 773.29 1460.56 Q773.29 1457.8 771.345 1456.07 Q769.424 1454.33 766.322 1454.33 Q764.123 1454.33 761.67 1455.09 Q759.239 1455.86 756.461 1457.41 L756.461 1452.69 Q759.285 1451.55 761.739 1450.97 Q764.193 1450.39 766.23 1450.39 Q771.6 1450.39 774.794 1453.08 Q777.989 1455.77 777.989 1460.26 Q777.989 1462.39 777.179 1464.31 Q776.392 1466.2 774.285 1468.8 Q773.707 1469.47 770.605 1472.69 Q767.503 1475.88 761.855 1481.64 Z" fill="#000000" fill-rule="nonzero" fill-opacity="1" /><path clip-path="url(#clip750)" d="M788.035 1451.02 L806.392 1451.02 L806.392 1454.96 L792.318 1454.96 L792.318 1463.43 Q793.336 1463.08 794.355 1462.92 Q795.373 1462.73 796.392 1462.73 Q802.179 1462.73 805.558 1465.9 Q808.938 1469.08 808.938 1474.49 Q808.938 1480.07 805.466 1483.17 Q801.993 1486.25 795.674 1486.25 Q793.498 1486.25 791.23 1485.88 Q788.984 1485.51 786.577 1484.77 L786.577 1480.07 Q788.66 1481.2 790.882 1481.76 Q793.105 1482.32 795.581 1482.32 Q799.586 1482.32 801.924 1480.21 Q804.262 1478.1 804.262 1474.49 Q804.262 1470.88 801.924 1468.77 Q799.586 1466.67 795.581 1466.67 Q793.706 1466.67 791.831 1467.08 Q789.98 1467.5 788.035 1468.38 L788.035 1451.02 Z" fill="#000000" fill-rule="nonzero" fill-opacity="1" /><path clip-path="url(#clip750)" d="M828.151 1454.1 Q824.54 1454.1 822.711 1457.66 Q820.905 1461.2 820.905 1468.33 Q820.905 1475.44 822.711 1479.01 Q824.54 1482.55 828.151 1482.55 Q831.785 1482.55 833.59 1479.01 Q835.419 1475.44 835.419 1468.33 Q835.419 1461.2 833.59 1457.66 Q831.785 1454.1 828.151 1454.1 M828.151 1450.39 Q833.961 1450.39 837.016 1455 Q840.095 1459.58 840.095 1468.33 Q840.095 1477.06 837.016 1481.67 Q833.961 1486.25 828.151 1486.25 Q822.341 1486.25 819.262 1481.67 Q816.206 1477.06 816.206 1468.33 Q816.206 1459.58 819.262 1455 Q822.341 1450.39 828.151 1450.39 Z" fill="#000000" fill-rule="nonzero" fill-opacity="1" /><path clip-path="url(#clip750)" d="M1256.07 1451.02 L1274.42 1451.02 L1274.42 1454.96 L1260.35 1454.96 L1260.35 1463.43 Q1261.37 1463.08 1262.39 1462.92 Q1263.4 1462.73 1264.42 1462.73 Q1270.21 1462.73 1273.59 1465.9 Q1276.97 1469.08 1276.97 1474.49 Q1276.97 1480.07 1273.5 1483.17 Q1270.03 1486.25 1263.71 1486.25 Q1261.53 1486.25 1259.26 1485.88 Q1257.02 1485.51 1254.61 1484.77 L1254.61 1480.07 Q1256.69 1481.2 1258.91 1481.76 Q1261.14 1482.32 1263.61 1482.32 Q1267.62 1482.32 1269.96 1480.21 Q1272.29 1478.1 1272.29 1474.49 Q1272.29 1470.88 1269.96 1468.77 Q1267.62 1466.67 1263.61 1466.67 Q1261.74 1466.67 1259.86 1467.08 Q1258.01 1467.5 1256.07 1468.38 L1256.07 1451.02 Z" fill="#000000" fill-rule="nonzero" fill-opacity="1" /><path clip-path="url(#clip750)" d="M1296.18 1454.1 Q1292.57 1454.1 1290.74 1457.66 Q1288.94 1461.2 1288.94 1468.33 Q1288.94 1475.44 1290.74 1479.01 Q1292.57 1482.55 1296.18 1482.55 Q1299.82 1482.55 1301.62 1479.01 Q1303.45 1475.44 1303.45 1468.33 Q1303.45 1461.2 1301.62 1457.66 Q1299.82 1454.1 1296.18 1454.1 M1296.18 1450.39 Q1301.99 1450.39 1305.05 1455 Q1308.13 1459.58 1308.13 1468.33 Q1308.13 1477.06 1305.05 1481.67 Q1301.99 1486.25 1296.18 1486.25 Q1290.37 1486.25 1287.29 1481.67 Q1284.24 1477.06 1284.24 1468.33 Q1284.24 1459.58 1287.29 1455 Q1290.37 1450.39 1296.18 1450.39 Z" fill="#000000" fill-rule="nonzero" fill-opacity="1" /><path clip-path="url(#clip750)" d="M1326.34 1454.1 Q1322.73 1454.1 1320.9 1457.66 Q1319.1 1461.2 1319.1 1468.33 Q1319.1 1475.44 1320.9 1479.01 Q1322.73 1482.55 1326.34 1482.55 Q1329.98 1482.55 1331.78 1479.01 Q1333.61 1475.44 1333.61 1468.33 Q1333.61 1461.2 1331.78 1457.66 Q1329.98 1454.1 1326.34 1454.1 M1326.34 1450.39 Q1332.15 1450.39 1335.21 1455 Q1338.29 1459.58 1338.29 1468.33 Q1338.29 1477.06 1335.21 1481.67 Q1332.15 1486.25 1326.34 1486.25 Q1320.53 1486.25 1317.46 1481.67 Q1314.4 1477.06 1314.4 1468.33 Q1314.4 1459.58 1317.46 1455 Q1320.53 1450.39 1326.34 1450.39 Z" fill="#000000" fill-rule="nonzero" fill-opacity="1" /><path clip-path="url(#clip750)" d="M1753.01 1451.02 L1775.23 1451.02 L1775.23 1453.01 L1762.69 1485.58 L1757.8 1485.58 L1769.61 1454.96 L1753.01 1454.96 L1753.01 1451.02 Z" fill="#000000" fill-rule="nonzero" fill-opacity="1" /><path clip-path="url(#clip750)" d="M1784.4 1451.02 L1802.76 1451.02 L1802.76 1454.96 L1788.68 1454.96 L1788.68 1463.43 Q1789.7 1463.08 1790.72 1462.92 Q1791.74 1462.73 1792.76 1462.73 Q1798.54 1462.73 1801.92 1465.9 Q1805.3 1469.08 1805.3 1474.49 Q1805.3 1480.07 1801.83 1483.17 Q1798.36 1486.25 1792.04 1486.25 Q1789.86 1486.25 1787.59 1485.88 Q1785.35 1485.51 1782.94 1484.77 L1782.94 1480.07 Q1785.02 1481.2 1787.25 1481.76 Q1789.47 1482.32 1791.95 1482.32 Q1795.95 1482.32 1798.29 1480.21 Q1800.63 1478.1 1800.63 1474.49 Q1800.63 1470.88 1798.29 1468.77 Q1795.95 1466.67 1791.95 1466.67 Q1790.07 1466.67 1788.2 1467.08 Q1786.34 1467.5 1784.4 1468.38 L1784.4 1451.02 Z" fill="#000000" fill-rule="nonzero" fill-opacity="1" /><path clip-path="url(#clip750)" d="M1824.51 1454.1 Q1820.9 1454.1 1819.08 1457.66 Q1817.27 1461.2 1817.27 1468.33 Q1817.27 1475.44 1819.08 1479.01 Q1820.9 1482.55 1824.51 1482.55 Q1828.15 1482.55 1829.95 1479.01 Q1831.78 1475.44 1831.78 1468.33 Q1831.78 1461.2 1829.95 1457.66 Q1828.15 1454.1 1824.51 1454.1 M1824.51 1450.39 Q1830.33 1450.39 1833.38 1455 Q1836.46 1459.58 1836.46 1468.33 Q1836.46 1477.06 1833.38 1481.67 Q1830.33 1486.25 1824.51 1486.25 Q1818.7 1486.25 1815.63 1481.67 Q1812.57 1477.06 1812.57 1468.33 Q1812.57 1459.58 1815.63 1455 Q1818.7 1450.39 1824.51 1450.39 Z" fill="#000000" fill-rule="nonzero" fill-opacity="1" /><path clip-path="url(#clip750)" d="M2237.55 1481.64 L2245.19 1481.64 L2245.19 1455.28 L2236.88 1456.95 L2236.88 1452.69 L2245.14 1451.02 L2249.82 1451.02 L2249.82 1481.64 L2257.45 1481.64 L2257.45 1485.58 L2237.55 1485.58 L2237.55 1481.64 Z" fill="#000000" fill-rule="nonzero" fill-opacity="1" /><path clip-path="url(#clip750)" d="M2276.9 1454.1 Q2273.29 1454.1 2271.46 1457.66 Q2269.65 1461.2 2269.65 1468.33 Q2269.65 1475.44 2271.46 1479.01 Q2273.29 1482.55 2276.9 1482.55 Q2280.53 1482.55 2282.34 1479.01 Q2284.17 1475.44 2284.17 1468.33 Q2284.17 1461.2 2282.34 1457.66 Q2280.53 1454.1 2276.9 1454.1 M2276.9 1450.39 Q2282.71 1450.39 2285.76 1455 Q2288.84 1459.58 2288.84 1468.33 Q2288.84 1477.06 2285.76 1481.67 Q2282.71 1486.25 2276.9 1486.25 Q2271.09 1486.25 2268.01 1481.67 Q2264.95 1477.06 2264.95 1468.33 Q2264.95 1459.58 2268.01 1455 Q2271.09 1450.39 2276.9 1450.39 Z" fill="#000000" fill-rule="nonzero" fill-opacity="1" /><path clip-path="url(#clip750)" d="M2307.06 1454.1 Q2303.45 1454.1 2301.62 1457.66 Q2299.82 1461.2 2299.82 1468.33 Q2299.82 1475.44 2301.62 1479.01 Q2303.45 1482.55 2307.06 1482.55 Q2310.69 1482.55 2312.5 1479.01 Q2314.33 1475.44 2314.33 1468.33 Q2314.33 1461.2 2312.5 1457.66 Q2310.69 1454.1 2307.06 1454.1 M2307.06 1450.39 Q2312.87 1450.39 2315.93 1455 Q2319 1459.58 2319 1468.33 Q2319 1477.06 2315.93 1481.67 Q2312.87 1486.25 2307.06 1486.25 Q2301.25 1486.25 2298.17 1481.67 Q2295.12 1477.06 2295.12 1468.33 Q2295.12 1459.58 2298.17 1455 Q2301.25 1450.39 2307.06 1450.39 Z" fill="#000000" fill-rule="nonzero" fill-opacity="1" /><path clip-path="url(#clip750)" d="M2337.22 1454.1 Q2333.61 1454.1 2331.78 1457.66 Q2329.98 1461.2 2329.98 1468.33 Q2329.98 1475.44 2331.78 1479.01 Q2333.61 1482.55 2337.22 1482.55 Q2340.86 1482.55 2342.66 1479.01 Q2344.49 1475.44 2344.49 1468.33 Q2344.49 1461.2 2342.66 1457.66 Q2340.86 1454.1 2337.22 1454.1 M2337.22 1450.39 Q2343.03 1450.39 2346.09 1455 Q2349.17 1459.58 2349.17 1468.33 Q2349.17 1477.06 2346.09 1481.67 Q2343.03 1486.25 2337.22 1486.25 Q2331.41 1486.25 2328.33 1481.67 Q2325.28 1477.06 2325.28 1468.33 Q2325.28 1459.58 2328.33 1455 Q2331.41 1450.39 2337.22 1450.39 Z" fill="#000000" fill-rule="nonzero" fill-opacity="1" /><path clip-path="url(#clip750)" d="M1165.17 1520.52 L1171.6 1520.52 L1171.6 1568.04 L1165.17 1568.04 L1165.17 1520.52 Z" fill="#000000" fill-rule="nonzero" fill-opacity="1" /><path clip-path="url(#clip750)" d="M1189.93 1522.27 L1189.93 1532.4 L1201.99 1532.4 L1201.99 1536.95 L1189.93 1536.95 L1189.93 1556.3 Q1189.93 1560.66 1191.11 1561.9 Q1192.32 1563.14 1195.98 1563.14 L1201.99 1563.14 L1201.99 1568.04 L1195.98 1568.04 Q1189.2 1568.04 1186.62 1565.53 Q1184.04 1562.98 1184.04 1556.3 L1184.04 1536.95 L1179.74 1536.95 L1179.74 1532.4 L1184.04 1532.4 L1184.04 1522.27 L1189.93 1522.27 Z" fill="#000000" fill-rule="nonzero" fill-opacity="1" /><path clip-path="url(#clip750)" d="M1240.19 1548.76 L1240.19 1551.62 L1213.26 1551.62 Q1213.64 1557.67 1216.89 1560.85 Q1220.17 1564 1225.99 1564 Q1229.36 1564 1232.52 1563.17 Q1235.7 1562.35 1238.82 1560.69 L1238.82 1566.23 Q1235.67 1567.57 1232.36 1568.27 Q1229.05 1568.97 1225.64 1568.97 Q1217.11 1568.97 1212.11 1564 Q1207.15 1559.04 1207.15 1550.57 Q1207.15 1541.82 1211.86 1536.69 Q1216.6 1531.54 1224.62 1531.54 Q1231.81 1531.54 1235.98 1536.18 Q1240.19 1540.8 1240.19 1548.76 M1234.33 1547.04 Q1234.27 1542.23 1231.62 1539.37 Q1229.01 1536.5 1224.69 1536.5 Q1219.78 1536.5 1216.82 1539.27 Q1213.9 1542.04 1213.45 1547.07 L1234.33 1547.04 Z" fill="#000000" fill-rule="nonzero" fill-opacity="1" /><path clip-path="url(#clip750)" d="M1270.45 1537.87 Q1269.47 1537.3 1268.29 1537.04 Q1267.14 1536.76 1265.74 1536.76 Q1260.78 1536.76 1258.11 1540 Q1255.46 1543.22 1255.46 1549.27 L1255.46 1568.04 L1249.58 1568.04 L1249.58 1532.4 L1255.46 1532.4 L1255.46 1537.93 Q1257.31 1534.69 1260.27 1533.13 Q1263.23 1531.54 1267.46 1531.54 Q1268.07 1531.54 1268.8 1531.63 Q1269.53 1531.7 1270.42 1531.85 L1270.45 1537.87 Z" fill="#000000" fill-rule="nonzero" fill-opacity="1" /><path clip-path="url(#clip750)" d="M1292.8 1550.12 Q1285.7 1550.12 1282.96 1551.75 Q1280.23 1553.37 1280.23 1557.29 Q1280.23 1560.4 1282.26 1562.25 Q1284.33 1564.07 1287.86 1564.07 Q1292.73 1564.07 1295.66 1560.63 Q1298.62 1557.16 1298.62 1551.43 L1298.62 1550.12 L1292.8 1550.12 M1304.48 1547.71 L1304.48 1568.04 L1298.62 1568.04 L1298.62 1562.63 Q1296.62 1565.88 1293.63 1567.44 Q1290.63 1568.97 1286.31 1568.97 Q1280.83 1568.97 1277.58 1565.91 Q1274.37 1562.82 1274.37 1557.67 Q1274.37 1551.65 1278.38 1548.6 Q1282.42 1545.54 1290.41 1545.54 L1298.62 1545.54 L1298.62 1544.97 Q1298.62 1540.93 1295.95 1538.73 Q1293.31 1536.5 1288.5 1536.5 Q1285.45 1536.5 1282.55 1537.23 Q1279.65 1537.97 1276.98 1539.43 L1276.98 1534.02 Q1280.19 1532.78 1283.22 1532.17 Q1286.24 1531.54 1289.11 1531.54 Q1296.84 1531.54 1300.66 1535.55 Q1304.48 1539.56 1304.48 1547.71 Z" fill="#000000" fill-rule="nonzero" fill-opacity="1" /><path clip-path="url(#clip750)" d="M1322.34 1522.27 L1322.34 1532.4 L1334.4 1532.4 L1334.4 1536.95 L1322.34 1536.95 L1322.34 1556.3 Q1322.34 1560.66 1323.51 1561.9 Q1324.72 1563.14 1328.38 1563.14 L1334.4 1563.14 L1334.4 1568.04 L1328.38 1568.04 Q1321.6 1568.04 1319.03 1565.53 Q1316.45 1562.98 1316.45 1556.3 L1316.45 1536.95 L1312.15 1536.95 L1312.15 1532.4 L1316.45 1532.4 L1316.45 1522.27 L1322.34 1522.27 Z" fill="#000000" fill-rule="nonzero" fill-opacity="1" /><path clip-path="url(#clip750)" d="M1342.1 1532.4 L1347.96 1532.4 L1347.96 1568.04 L1342.1 1568.04 L1342.1 1532.4 M1342.1 1518.52 L1347.96 1518.52 L1347.96 1525.93 L1342.1 1525.93 L1342.1 1518.52 Z" fill="#000000" fill-rule="nonzero" fill-opacity="1" /><path clip-path="url(#clip750)" d="M1374.02 1536.5 Q1369.31 1536.5 1366.58 1540.19 Q1363.84 1543.85 1363.84 1550.25 Q1363.84 1556.65 1366.55 1560.34 Q1369.28 1564 1374.02 1564 Q1378.7 1564 1381.44 1560.31 Q1384.18 1556.62 1384.18 1550.25 Q1384.18 1543.92 1381.44 1540.23 Q1378.7 1536.5 1374.02 1536.5 M1374.02 1531.54 Q1381.66 1531.54 1386.02 1536.5 Q1390.38 1541.47 1390.38 1550.25 Q1390.38 1559 1386.02 1564 Q1381.66 1568.97 1374.02 1568.97 Q1366.35 1568.97 1361.99 1564 Q1357.66 1559 1357.66 1550.25 Q1357.66 1541.47 1361.99 1536.5 Q1366.35 1531.54 1374.02 1531.54 Z" fill="#000000" fill-rule="nonzero" fill-opacity="1" /><path clip-path="url(#clip750)" d="M1429.72 1546.53 L1429.72 1568.04 L1423.87 1568.04 L1423.87 1546.72 Q1423.87 1541.66 1421.89 1539.14 Q1419.92 1536.63 1415.97 1536.63 Q1411.23 1536.63 1408.5 1539.65 Q1405.76 1542.68 1405.76 1547.9 L1405.76 1568.04 L1399.87 1568.04 L1399.87 1532.4 L1405.76 1532.4 L1405.76 1537.93 Q1407.86 1534.72 1410.69 1533.13 Q1413.56 1531.54 1417.28 1531.54 Q1423.42 1531.54 1426.57 1535.36 Q1429.72 1539.14 1429.72 1546.53 Z" fill="#000000" fill-rule="nonzero" fill-opacity="1" /><polyline clip-path="url(#clip750)" style="stroke:#000000; stroke-linecap:round; stroke-linejoin:round; stroke-width:4; stroke-opacity:1; fill:none" points="242.135,1423.18 242.135,47.2441 "/>
<polyline clip-path="url(#clip750)" style="stroke:#000000; stroke-linecap:round; stroke-linejoin:round; stroke-width:4; stroke-opacity:1; fill:none" points="242.135,1361.62 261.032,1361.62 "/>
<polyline clip-path="url(#clip750)" style="stroke:#000000; stroke-linecap:round; stroke-linejoin:round; stroke-width:4; stroke-opacity:1; fill:none" points="242.135,1074.52 261.032,1074.52 "/>
<polyline clip-path="url(#clip750)" style="stroke:#000000; stroke-linecap:round; stroke-linejoin:round; stroke-width:4; stroke-opacity:1; fill:none" points="242.135,787.433 261.032,787.433 "/>
<polyline clip-path="url(#clip750)" style="stroke:#000000; stroke-linecap:round; stroke-linejoin:round; stroke-width:4; stroke-opacity:1; fill:none" points="242.135,500.341 261.032,500.341 "/>
<polyline clip-path="url(#clip750)" style="stroke:#000000; stroke-linecap:round; stroke-linejoin:round; stroke-width:4; stroke-opacity:1; fill:none" points="242.135,213.249 261.032,213.249 "/>
<path clip-path="url(#clip750)" d="M114.26 1362.07 L143.936 1362.07 L143.936 1366 L114.26 1366 L114.26 1362.07 Z" fill="#000000" fill-rule="nonzero" fill-opacity="1" /><path clip-path="url(#clip750)" d="M166.876 1348.41 L155.07 1366.86 L166.876 1366.86 L166.876 1348.41 M165.649 1344.34 L171.528 1344.34 L171.528 1366.86 L176.459 1366.86 L176.459 1370.75 L171.528 1370.75 L171.528 1378.9 L166.876 1378.9 L166.876 1370.75 L151.274 1370.75 L151.274 1366.24 L165.649 1344.34 Z" fill="#000000" fill-rule="nonzero" fill-opacity="1" /><path clip-path="url(#clip750)" d="M194.19 1347.42 Q190.579 1347.42 188.75 1350.98 Q186.945 1354.52 186.945 1361.65 Q186.945 1368.76 188.75 1372.32 Q190.579 1375.86 194.19 1375.86 Q197.825 1375.86 199.63 1372.32 Q201.459 1368.76 201.459 1361.65 Q201.459 1354.52 199.63 1350.98 Q197.825 1347.42 194.19 1347.42 M194.19 1343.71 Q200 1343.71 203.056 1348.32 Q206.135 1352.9 206.135 1361.65 Q206.135 1370.38 203.056 1374.99 Q200 1379.57 194.19 1379.57 Q188.38 1379.57 185.301 1374.99 Q182.246 1370.38 182.246 1361.65 Q182.246 1352.9 185.301 1348.32 Q188.38 1343.71 194.19 1343.71 Z" fill="#000000" fill-rule="nonzero" fill-opacity="1" /><path clip-path="url(#clip750)" d="M114.26 1074.98 L143.936 1074.98 L143.936 1078.91 L114.26 1078.91 L114.26 1074.98 Z" fill="#000000" fill-rule="nonzero" fill-opacity="1" /><path clip-path="url(#clip750)" d="M168.195 1073.17 Q171.552 1073.89 173.427 1076.16 Q175.325 1078.43 175.325 1081.76 Q175.325 1086.87 171.806 1089.68 Q168.288 1092.48 161.806 1092.48 Q159.63 1092.48 157.315 1092.04 Q155.024 1091.62 152.57 1090.76 L152.57 1086.25 Q154.515 1087.38 156.829 1087.96 Q159.144 1088.54 161.667 1088.54 Q166.065 1088.54 168.357 1086.8 Q170.672 1085.07 170.672 1081.76 Q170.672 1078.7 168.519 1076.99 Q166.39 1075.25 162.57 1075.25 L158.542 1075.25 L158.542 1071.41 L162.755 1071.41 Q166.204 1071.41 168.033 1070.05 Q169.862 1068.66 169.862 1066.06 Q169.862 1063.4 167.964 1061.99 Q166.089 1060.56 162.57 1060.56 Q160.649 1060.56 158.45 1060.97 Q156.251 1061.39 153.612 1062.27 L153.612 1058.1 Q156.274 1057.36 158.589 1056.99 Q160.927 1056.62 162.987 1056.62 Q168.311 1056.62 171.413 1059.05 Q174.514 1061.46 174.514 1065.58 Q174.514 1068.45 172.871 1070.44 Q171.227 1072.41 168.195 1073.17 Z" fill="#000000" fill-rule="nonzero" fill-opacity="1" /><path clip-path="url(#clip750)" d="M194.19 1060.32 Q190.579 1060.32 188.75 1063.89 Q186.945 1067.43 186.945 1074.56 Q186.945 1081.67 188.75 1085.23 Q190.579 1088.77 194.19 1088.77 Q197.825 1088.77 199.63 1085.23 Q201.459 1081.67 201.459 1074.56 Q201.459 1067.43 199.63 1063.89 Q197.825 1060.32 194.19 1060.32 M194.19 1056.62 Q200 1056.62 203.056 1061.23 Q206.135 1065.81 206.135 1074.56 Q206.135 1083.29 203.056 1087.89 Q200 1092.48 194.19 1092.48 Q188.38 1092.48 185.301 1087.89 Q182.246 1083.29 182.246 1074.56 Q182.246 1065.81 185.301 1061.23 Q188.38 1056.62 194.19 1056.62 Z" fill="#000000" fill-rule="nonzero" fill-opacity="1" /><path clip-path="url(#clip750)" d="M114.26 787.884 L143.936 787.884 L143.936 791.819 L114.26 791.819 L114.26 787.884 Z" fill="#000000" fill-rule="nonzero" fill-opacity="1" /><path clip-path="url(#clip750)" d="M158.056 800.778 L174.376 800.778 L174.376 804.713 L152.431 804.713 L152.431 800.778 Q155.093 798.023 159.677 793.393 Q164.283 788.741 165.464 787.398 Q167.709 784.875 168.589 783.139 Q169.491 781.38 169.491 779.69 Q169.491 776.935 167.547 775.199 Q165.626 773.463 162.524 773.463 Q160.325 773.463 157.871 774.227 Q155.44 774.991 152.663 776.542 L152.663 771.819 Q155.487 770.685 157.94 770.106 Q160.394 769.528 162.431 769.528 Q167.802 769.528 170.996 772.213 Q174.19 774.898 174.19 779.389 Q174.19 781.518 173.38 783.44 Q172.593 785.338 170.487 787.93 Q169.908 788.602 166.806 791.819 Q163.704 795.014 158.056 800.778 Z" fill="#000000" fill-rule="nonzero" fill-opacity="1" /><path clip-path="url(#clip750)" d="M194.19 773.231 Q190.579 773.231 188.75 776.796 Q186.945 780.338 186.945 787.467 Q186.945 794.574 188.75 798.139 Q190.579 801.68 194.19 801.68 Q197.825 801.68 199.63 798.139 Q201.459 794.574 201.459 787.467 Q201.459 780.338 199.63 776.796 Q197.825 773.231 194.19 773.231 M194.19 769.528 Q200 769.528 203.056 774.134 Q206.135 778.718 206.135 787.467 Q206.135 796.194 203.056 800.801 Q200 805.384 194.19 805.384 Q188.38 805.384 185.301 800.801 Q182.246 796.194 182.246 787.467 Q182.246 778.718 185.301 774.134 Q188.38 769.528 194.19 769.528 Z" fill="#000000" fill-rule="nonzero" fill-opacity="1" /><path clip-path="url(#clip750)" d="M114.26 500.792 L143.936 500.792 L143.936 504.727 L114.26 504.727 L114.26 500.792 Z" fill="#000000" fill-rule="nonzero" fill-opacity="1" /><path clip-path="url(#clip750)" d="M154.839 513.685 L162.477 513.685 L162.477 487.32 L154.167 488.987 L154.167 484.727 L162.431 483.061 L167.107 483.061 L167.107 513.685 L174.746 513.685 L174.746 517.621 L154.839 517.621 L154.839 513.685 Z" fill="#000000" fill-rule="nonzero" fill-opacity="1" /><path clip-path="url(#clip750)" d="M194.19 486.139 Q190.579 486.139 188.75 489.704 Q186.945 493.246 186.945 500.375 Q186.945 507.482 188.75 511.047 Q190.579 514.588 194.19 514.588 Q197.825 514.588 199.63 511.047 Q201.459 507.482 201.459 500.375 Q201.459 493.246 199.63 489.704 Q197.825 486.139 194.19 486.139 M194.19 482.436 Q200 482.436 203.056 487.042 Q206.135 491.625 206.135 500.375 Q206.135 509.102 203.056 513.709 Q200 518.292 194.19 518.292 Q188.38 518.292 185.301 513.709 Q182.246 509.102 182.246 500.375 Q182.246 491.625 185.301 487.042 Q188.38 482.436 194.19 482.436 Z" fill="#000000" fill-rule="nonzero" fill-opacity="1" /><path clip-path="url(#clip750)" d="M194.19 199.047 Q190.579 199.047 188.75 202.612 Q186.945 206.154 186.945 213.283 Q186.945 220.39 188.75 223.954 Q190.579 227.496 194.19 227.496 Q197.825 227.496 199.63 223.954 Q201.459 220.39 201.459 213.283 Q201.459 206.154 199.63 202.612 Q197.825 199.047 194.19 199.047 M194.19 195.344 Q200 195.344 203.056 199.95 Q206.135 204.533 206.135 213.283 Q206.135 222.01 203.056 226.617 Q200 231.2 194.19 231.2 Q188.38 231.2 185.301 226.617 Q182.246 222.01 182.246 213.283 Q182.246 204.533 185.301 199.95 Q188.38 195.344 194.19 195.344 Z" fill="#000000" fill-rule="nonzero" fill-opacity="1" /><path clip-path="url(#clip750)" d="M16.4842 816.375 L16.4842 786.329 L21.895 786.329 L21.895 809.945 L35.9632 809.945 L35.9632 787.315 L41.3741 787.315 L41.3741 809.945 L58.5933 809.945 L58.5933 785.756 L64.0042 785.756 L64.0042 816.375 L16.4842 816.375 Z" fill="#000000" fill-rule="nonzero" fill-opacity="1" /><path clip-path="url(#clip750)" d="M16.4842 775.189 L16.4842 768.759 L58.5933 768.759 L58.5933 745.62 L64.0042 745.62 L64.0042 775.189 L16.4842 775.189 Z" fill="#000000" fill-rule="nonzero" fill-opacity="1" /><path clip-path="url(#clip750)" d="M41.3104 732.443 L58.7206 732.443 L58.7206 722.13 Q58.7206 716.942 56.5881 714.46 Q54.4238 711.945 49.9996 711.945 Q45.5436 711.945 43.4429 714.46 Q41.3104 716.942 41.3104 722.13 L41.3104 732.443 M21.7677 732.443 L36.0905 732.443 L36.0905 722.926 Q36.0905 718.216 34.34 715.924 Q32.5576 713.6 28.9291 713.6 Q25.3325 713.6 23.5501 715.924 Q21.7677 718.216 21.7677 722.926 L21.7677 732.443 M16.4842 738.872 L16.4842 722.449 Q16.4842 715.096 19.5397 711.118 Q22.5952 707.139 28.2289 707.139 Q32.5894 707.139 35.1675 709.176 Q37.7456 711.213 38.3822 715.16 Q39.4007 710.418 42.6472 707.808 Q45.8619 705.166 50.6998 705.166 Q57.0655 705.166 60.5348 709.495 Q64.0042 713.823 64.0042 721.812 L64.0042 738.872 L16.4842 738.872 Z" fill="#000000" fill-rule="nonzero" fill-opacity="1" /><path clip-path="url(#clip750)" d="M20.8447 676.011 Q20.8447 683.013 26.0645 687.151 Q31.2844 691.257 40.2919 691.257 Q49.2675 691.257 54.4874 687.151 Q59.7073 683.013 59.7073 676.011 Q59.7073 669.009 54.4874 664.935 Q49.2675 660.829 40.2919 660.829 Q31.2844 660.829 26.0645 664.935 Q20.8447 669.009 20.8447 676.011 M15.6248 676.011 Q15.6248 666.017 22.3406 660.033 Q29.0246 654.049 40.2919 654.049 Q51.5274 654.049 58.2432 660.033 Q64.9272 666.017 64.9272 676.011 Q64.9272 686.037 58.2432 692.052 Q51.5592 698.036 40.2919 698.036 Q29.0246 698.036 22.3406 692.052 Q15.6248 686.037 15.6248 676.011 Z" fill="#000000" fill-rule="nonzero" fill-opacity="1" /><polyline clip-path="url(#clip752)" style="stroke:#009af9; stroke-linecap:round; stroke-linejoin:round; stroke-width:4; stroke-opacity:1; fill:none" points="301.869,854.013 303.862,871.212 305.856,709.486 307.849,832.4 309.842,696.66 311.835,660.286 313.828,510.044 315.821,478.53 317.814,678.591 319.808,827.554 321.801,1136.24 323.794,1159.41 325.787,917.771 327.78,1060.71 329.773,560.124 331.766,820.098 333.76,594.742 335.753,565.283 337.746,598.867 339.739,746.164 341.732,666.362 343.725,452.158 345.718,873.064 347.712,865.331 349.705,674.019 351.698,736.847 353.691,512.098 355.684,765.525 357.677,773.208 359.67,422.918 361.664,331.632 363.657,634.455 365.65,776.865 367.643,545.009 369.636,782.135 371.629,715.362 373.622,495.873 375.616,259.746 377.609,844.277 379.602,803.275 381.595,780.025 383.588,544.233 385.581,567.577 387.574,582.905 389.568,541.976 391.561,781.807 393.554,774.494 395.547,567.733 397.54,662.036 399.533,731.38 401.526,628.365 403.52,588.475 405.513,263.011 407.506,519.33 409.499,460.656 411.492,277.799 413.485,741.697 415.479,488.322 417.472,538.217 419.465,1004.25 421.458,431.523 423.451,657.036 425.444,523.051 427.437,452.329 429.431,298.341 431.424,360.53 433.417,236.1 435.41,375.301 437.403,741.913 439.396,389.914 441.389,548.467 443.383,374.76 445.376,807.914 447.369,629.45 449.362,347.32 451.355,315.914 453.348,312.567 455.341,487.631 457.335,623.351 459.328,928.88 461.321,393.965 463.314,419.672 465.307,389.603 467.3,544.51 469.293,677.452 471.287,323.721 473.28,675.475 475.273,584.537 477.266,517.922 479.259,501.324 481.252,478.432 483.245,335.565 485.239,831.724 487.232,465.834 489.225,333.799 491.218,469.064 493.211,415.155 495.204,649.002 497.197,236.685 499.191,413.763 501.184,446.694 503.177,460.766 505.17,593.414 507.163,419.552 509.156,288.807 511.149,291.374 513.143,398.781 515.136,470.731 517.129,244.048 519.122,368.401 521.115,238.108 523.108,474.68 525.101,404.384 527.095,238.718 529.088,316.087 531.081,240.903 533.074,545.712 535.067,639.045 537.06,373.548 539.054,346.43 541.047,603.254 543.04,469.392 545.033,183.469 547.026,317.93 549.019,563.667 551.012,330.178 553.006,466.951 554.999,448.655 556.992,221.735 558.985,374.906 560.978,508.894 562.971,699.757 564.964,128.201 566.958,312.193 568.951,293.262 570.944,218.569 572.937,291.383 574.93,414.497 576.923,414.182 578.916,177.308 580.91,481.701 582.903,200.457 584.896,313.488 586.889,381.084 588.882,332.665 590.875,207.767 592.868,147.276 594.862,423.686 596.855,285.741 598.848,416.641 600.841,373.221 602.834,174.595 604.827,269.99 606.82,182.765 608.814,349.296 610.807,312.446 612.8,359.821 614.793,385.628 616.786,282.647 618.779,309.588 620.772,178.05 622.766,334.273 624.759,396.777 626.752,404.296 628.745,100.019 630.738,218.067 632.731,179.355 634.724,226.6 636.718,466.123 638.711,282.839 640.704,251.798 642.697,302.992 644.69,289.316 646.683,345.416 648.677,255.372 650.67,133.386 652.663,152.615 654.656,314.471 656.649,442.686 658.642,302.438 660.635,369.63 662.629,226.523 664.622,285.558 666.615,289.173 668.608,203.343 670.601,210.588 672.594,278.878 674.587,279.134 676.581,217.694 678.574,132.558 680.567,398.218 682.56,292.038 684.553,215.056 686.546,276.081 688.539,261.736 690.533,195.427 692.526,328.928 694.519,241.144 696.512,438.132 698.505,238.783 700.498,139.659 702.491,436.302 704.485,212.677 706.478,252.246 708.471,351.967 710.464,167.374 712.457,331.163 714.45,181.457 716.443,368.551 718.437,249.791 720.43,206.587 722.423,326.107 724.416,326.341 726.409,230.924 728.402,245.313 730.395,324.295 732.389,154.728 734.382,171.407 736.375,224.387 738.368,276.656 740.361,202.235 742.354,144.486 744.347,201.949 746.341,202.65 748.334,426.844 750.327,263.193 752.32,263.775 754.313,209.788 756.306,331.355 758.299,138.551 760.293,208.74 762.286,297.134 764.279,206.605 766.272,228.258 768.265,485.999 770.258,304.915 772.252,367.91 774.245,193.486 776.238,358.589 778.231,112.865 780.224,121.115 782.217,397.102 784.21,244.039 786.204,233.711 788.197,293.056 790.19,196.046 792.183,355.506 794.176,139.932 796.169,224.674 798.162,345.648 800.156,308.982 802.149,326.778 804.142,285.939 806.135,344.992 808.128,281.363 810.121,213.717 812.114,144.171 814.108,408.565 816.101,301.026 818.094,182.597 820.087,508.706 822.08,299.635 824.073,269.532 826.066,277.529 828.06,241.493 830.053,213.175 832.046,276.255 834.039,188.549 836.032,191.752 838.025,207.648 840.018,246.647 842.012,414.35 844.005,145.657 845.998,224.313 847.991,166.13 849.984,221.503 851.977,247.808 853.97,250.382 855.964,330.108 857.957,260.996 859.95,257.34 861.943,138.252 863.936,136.49 865.929,243.138 867.922,209.89 869.916,220.089 871.909,259.781 873.902,288.084 875.895,150.289 877.888,190.67 879.881,112.118 881.874,357.196 883.868,230.052 885.861,137.201 887.854,294.419 889.847,251.192 891.84,133.286 893.833,217.173 895.827,253.431 897.82,323.183 899.813,290.888 901.806,224.888 903.799,184.137 905.792,245.986 907.785,213.234 909.779,305.014 911.772,195.24 913.765,517.193 915.758,192.537 917.751,287.275 919.744,202.872 921.737,126.147 923.731,195.31 925.724,208.183 927.717,247.105 929.71,190.595 931.703,276.426 933.696,206.654 935.689,270.417 937.683,249.208 939.676,251.147 941.669,209.857 943.662,281.364 945.655,162.989 947.648,265.222 949.641,262.924 951.635,221.252 953.628,115.712 955.621,330.806 957.614,262.186 959.607,166.161 961.6,226.994 963.593,282.294 965.587,121.436 967.58,169.93 969.573,130.965 971.566,181.008 973.559,257.776 975.552,229.245 977.545,265.436 979.539,153.696 981.532,135.542 983.525,166.327 985.518,179.437 987.511,256.405 989.504,204.994 991.497,253.933 993.491,184.631 995.484,293.665 997.477,176.185 999.47,214.359 1001.46,230.563 1003.46,284.737 1005.45,193.506 1007.44,261.809 1009.44,206.033 1011.43,199.881 1013.42,214.723 1015.42,218.483 1017.41,209.129 1019.4,158.158 1021.39,218.796 1023.39,219.732 1025.38,167.429 1027.37,248.376 1029.37,238.959 1031.36,205.254 1033.35,214.749 1035.35,172.651 1037.34,262.073 1039.33,176.942 1041.33,104.453 1043.32,198.058 1045.31,171.939 1047.31,334.373 1049.3,403.052 1051.29,144.898 1053.28,336.713 1055.28,321.107 1057.27,233.656 1059.26,240.613 1061.26,209.721 1063.25,183.253 1065.24,86.1857 1067.24,275.977 1069.23,288.644 1071.22,121.642 1073.22,170.445 1075.21,256.863 1077.2,128.816 1079.2,340.756 1081.19,358.584 1083.18,179.034 1085.18,128.813 1087.17,206.524 1089.16,196.234 1091.15,252.602 1093.15,264.386 1095.14,175.343 1097.13,275.149 1099.13,284.56 1101.12,176.291 1103.11,260.654 1105.11,168.903 1107.1,248.463 1109.09,193.408 1111.09,149.066 1113.08,150.521 1115.07,383.53 1117.07,167.243 1119.06,148.901 1121.05,332.43 1123.05,147.446 1125.04,387.801 1127.03,224.978 1129.02,119.753 1131.02,196.37 1133.01,169.836 1135,116.035 1137,138.465 1138.99,289.716 1140.98,251.014 1142.98,274.686 1144.97,164.195 1146.96,169.432 1148.96,321.872 1150.95,476.049 1152.94,227.609 1154.94,297.637 1156.93,220.731 1158.92,237.576 1160.91,160.393 1162.91,287.569 1164.9,248.735 1166.89,118.853 1168.89,268.233 1170.88,198.378 1172.87,296.551 1174.87,348.569 1176.86,111.664 1178.85,236.816 1180.85,154.541 1182.84,316.796 1184.83,274.432 1186.83,176.23 1188.82,197.675 1190.81,285.406 1192.81,258.415 1194.8,217.362 1196.79,197.577 1198.78,158.307 1200.78,226.784 1202.77,322.015 1204.76,160.431 1206.76,213.042 1208.75,204.051 1210.74,156.389 1212.74,207.866 1214.73,199.137 1216.72,115.217 1218.72,159.563 1220.71,192.007 1222.7,287.784 1224.7,155.614 1226.69,227.797 1228.68,386.442 1230.67,250.806 1232.67,231.263 1234.66,429.77 1236.65,192.762 1238.65,169.554 1240.64,218.199 1242.63,159.231 1244.63,147.401 1246.62,273.604 1248.61,155.637 1250.61,232.888 1252.6,288.688 1254.59,265.635 1256.59,285.687 1258.58,180.19 1260.57,237.87 1262.57,128.131 1264.56,159.755 1266.55,224.018 1268.54,219.492 1270.54,361.839 1272.53,186.044 1274.52,184.139 1276.52,166.589 1278.51,268.499 1280.5,521.33 1282.5,188.685 1284.49,266.62 1286.48,126.382 1288.48,123.427 1290.47,152.808 1292.46,118.724 1294.46,259.185 1296.45,241.273 1298.44,208.959 1300.44,233.872 1302.43,166.011 1304.42,269.741 1306.41,198.301 1308.41,142.689 1310.4,173.452 1312.39,249.621 1314.39,193.519 1316.38,251.886 1318.37,164.921 1320.37,234.246 1322.36,121.767 1324.35,137.022 1326.35,323.656 1328.34,338.598 1330.33,297.453 1332.33,187.165 1334.32,223.005 1336.31,240.015 1338.3,286.926 1340.3,120.859 1342.29,230.635 1344.28,235.369 1346.28,275.578 1348.27,290.077 1350.26,272.197 1352.26,190.768 1354.25,250.725 1356.24,159.781 1358.24,220.058 1360.23,199.314 1362.22,134.527 1364.22,171.513 1366.21,276.73 1368.2,210.199 1370.2,350.17 1372.19,170.914 1374.18,126.658 1376.17,230.768 1378.17,114.675 1380.16,132.155 1382.15,470.632 1384.15,246.807 1386.14,265.577 1388.13,190.121 1390.13,163.659 1392.12,302.113 1394.11,295.013 1396.11,316.367 1398.1,163.584 1400.09,180.878 1402.09,197.317 1404.08,250.055 1406.07,215.101 1408.06,427.593 1410.06,231.847 1412.05,201.426 1414.04,165.784 1416.04,288.243 1418.03,218.091 1420.02,246.07 1422.02,147.233 1424.01,103.774 1426,207.407 1428,281.517 1429.99,184.862 1431.98,236.925 1433.98,213.519 1435.97,194.557 1437.96,163.179 1439.96,145.911 1441.95,222.917 1443.94,274.683 1445.93,244.564 1447.93,160.692 1449.92,155.392 1451.91,243.535 1453.91,219.771 1455.9,201.559 1457.89,198.697 1459.89,165.147 1461.88,136.24 1463.87,243.564 1465.87,481.763 1467.86,253.245 1469.85,172.404 1471.85,212.214 1473.84,290.842 1475.83,175.965 1477.82,332.991 1479.82,192.366 1481.81,196.478 1483.8,277.022 1485.8,332.612 1487.79,128.744 1489.78,424.177 1491.78,152.617 1493.77,168.399 1495.76,181.031 1497.76,210.818 1499.75,212.554 1501.74,222.923 1503.74,200.032 1505.73,135.819 1507.72,378.81 1509.72,151.385 1511.71,198.508 1513.7,216.82 1515.69,175.23 1517.69,197.713 1519.68,180.113 1521.67,167.582 1523.67,148.923 1525.66,180.156 1527.65,236.712 1529.65,211.305 1531.64,273.994 1533.63,167.463 1535.63,172.159 1537.62,187.828 1539.61,289.679 1541.61,219.196 1543.6,161.612 1545.59,197.371 1547.59,116.409 1549.58,155.53 1551.57,156.825 1553.56,277.575 1555.56,244.619 1557.55,335.151 1559.54,187.396 1561.54,258.678 1563.53,256.247 1565.52,299.458 1567.52,203.281 1569.51,230.437 1571.5,146.321 1573.5,126.843 1575.49,245.786 1577.48,158.464 1579.48,245.11 1581.47,353.67 1583.46,150.329 1585.45,328.86 1587.45,226.79 1589.44,157.033 1591.43,244.702 1593.43,194.583 1595.42,239.937 1597.41,149.288 1599.41,174.206 1601.4,269.295 1603.39,162.29 1605.39,173.596 1607.38,207.161 1609.37,202.942 1611.37,196.351 1613.36,144.967 1615.35,224.652 1617.35,223.864 1619.34,220.582 1621.33,134.763 1623.32,239.942 1625.32,201.65 1627.31,334.292 1629.3,209.656 1631.3,228.897 1633.29,243.355 1635.28,141.942 1637.28,281.817 1639.27,131.357 1641.26,367.472 1643.26,249.517 1645.25,120.95 1647.24,142.799 1649.24,152.014 1651.23,225.029 1653.22,375.064 1655.21,205.558 1657.21,236.614 1659.2,240.909 1661.19,224.011 1663.19,204.776 1665.18,282.342 1667.17,246.591 1669.17,181.727 1671.16,166.173 1673.15,305.977 1675.15,154.071 1677.14,190.37 1679.13,203.457 1681.13,218.123 1683.12,205.256 1685.11,127.189 1687.11,232.7 1689.1,264.987 1691.09,305.824 1693.08,211.597 1695.08,218.239 1697.07,275.312 1699.06,133.741 1701.06,184.789 1703.05,287.425 1705.04,192.269 1707.04,257.034 1709.03,188.763 1711.02,139.793 1713.02,172.551 1715.01,153.145 1717,238.32 1719,227.411 1720.99,93.0939 1722.98,207.544 1724.97,172.002 1726.97,169.536 1728.96,178.662 1730.95,195.905 1732.95,180.212 1734.94,245.105 1736.93,148.45 1738.93,173.144 1740.92,106.617 1742.91,203.188 1744.91,228.759 1746.9,112.659 1748.89,175.636 1750.89,279.601 1752.88,240.411 1754.87,175.764 1756.87,185.57 1758.86,224.853 1760.85,179.514 1762.84,143.772 1764.84,203.609 1766.83,198.218 1768.82,156.981 1770.82,276.635 1772.81,186.802 1774.8,208.505 1776.8,181.531 1778.79,231.787 1780.78,145.055 1782.78,158.857 1784.77,291.322 1786.76,220.487 1788.76,190.237 1790.75,191.777 1792.74,202.636 1794.74,266.603 1796.73,307.877 1798.72,143.477 1800.71,306.111 1802.71,219.212 1804.7,245.527 1806.69,175.914 1808.69,337.755 1810.68,175.789 1812.67,216.112 1814.67,211.145 1816.66,186.057 1818.65,167.269 1820.65,184.428 1822.64,194.928 1824.63,309.031 1826.63,213.907 1828.62,206.584 1830.61,218.61 1832.6,246.694 1834.6,305.265 1836.59,167.488 1838.58,236.449 1840.58,190.932 1842.57,106.084 1844.56,193.075 1846.56,113.214 1848.55,235.637 1850.54,146.368 1852.54,205.198 1854.53,159.124 1856.52,194.655 1858.52,228.157 1860.51,370.32 1862.5,210.205 1864.5,357.793 1866.49,203.794 1868.48,312.36 1870.47,194.766 1872.47,158.559 1874.46,161.166 1876.45,273.511 1878.45,133.309 1880.44,289.49 1882.43,148.598 1884.43,108.633 1886.42,197.23 1888.41,184.294 1890.41,159.591 1892.4,298.172 1894.39,241.037 1896.39,145.929 1898.38,231.361 1900.37,180.08 1902.36,439.943 1904.36,242.279 1906.35,154.352 1908.34,199.105 1910.34,175.171 1912.33,211.855 1914.32,314.336 1916.32,134.103 1918.31,190.719 1920.3,195.078 1922.3,137.036 1924.29,110.44 1926.28,171.529 1928.28,170.698 1930.27,195.475 1932.26,170.687 1934.26,301.831 1936.25,199.175 1938.24,279.895 1940.23,269.714 1942.23,183.855 1944.22,128.797 1946.21,302.855 1948.21,158.976 1950.2,251.292 1952.19,188.808 1954.19,178.673 1956.18,154.511 1958.17,268.846 1960.17,208.974 1962.16,141.478 1964.15,144.586 1966.15,226.47 1968.14,208.747 1970.13,179.619 1972.12,253.254 1974.12,261.653 1976.11,171.45 1978.1,163.331 1980.1,135.866 1982.09,184.246 1984.08,179.376 1986.08,167.886 1988.07,392.967 1990.06,173.474 1992.06,224.1 1994.05,107.433 1996.04,204.067 1998.04,208.085 2000.03,258.039 2002.02,142.025 2004.02,269.509 2006.01,349.039 2008,187.673 2009.99,169.76 2011.99,146.225 2013.98,141.167 2015.97,178.728 2017.97,170.82 2019.96,266.586 2021.95,164.095 2023.95,358.915 2025.94,189.216 2027.93,220.529 2029.93,317.584 2031.92,151.978 2033.91,258.756 2035.91,269.86 2037.9,187.301 2039.89,282.504 2041.89,200.899 2043.88,247.903 2045.87,250.535 2047.86,142.333 2049.86,144.571 2051.85,269.504 2053.84,258.317 2055.84,240.392 2057.83,146.709 2059.82,232.492 2061.82,237.51 2063.81,150.332 2065.8,177.654 2067.8,169.727 2069.79,151.833 2071.78,164.966 2073.78,227.631 2075.77,145.814 2077.76,216.192 2079.75,203.914 2081.75,175.218 2083.74,311.004 2085.73,300.771 2087.73,139.294 2089.72,138.953 2091.71,237.608 2093.71,239.154 2095.7,163.776 2097.69,331.553 2099.69,151.377 2101.68,163.201 2103.67,180.053 2105.67,155.118 2107.66,160.831 2109.65,151.297 2111.65,339.557 2113.64,118.371 2115.63,145.172 2117.62,331.135 2119.62,148.37 2121.61,208.442 2123.6,287.558 2125.6,366.179 2127.59,240.776 2129.58,215.652 2131.58,320.209 2133.57,232.838 2135.56,191.383 2137.56,180.59 2139.55,144.069 2141.54,129.9 2143.54,288.317 2145.53,197.483 2147.52,172.149 2149.51,153.864 2151.51,265.27 2153.5,206.83 2155.49,274.045 2157.49,226.644 2159.48,209.775 2161.47,154.206 2163.47,178.53 2165.46,169.629 2167.45,227.455 2169.45,125.019 2171.44,327.26 2173.43,223.015 2175.43,221.521 2177.42,135.464 2179.41,227.979 2181.41,203.71 2183.4,170.041 2185.39,172.346 2187.38,168.714 2189.38,206.417 2191.37,117.369 2193.36,222.884 2195.36,277.426 2197.35,270.766 2199.34,297.036 2201.34,177.085 2203.33,211.296 2205.32,134.647 2207.32,181.003 2209.31,179.475 2211.3,142.815 2213.3,177.183 2215.29,241.124 2217.28,302.856 2219.27,194.438 2221.27,205.06 2223.26,255.117 2225.25,157.484 2227.25,203.444 2229.24,289.417 2231.23,467.393 2233.23,315.758 2235.22,248.25 2237.21,124.511 2239.21,222.476 2241.2,204.362 2243.19,271.803 2245.19,297.368 2247.18,222.473 2249.17,181.313 2251.17,194.261 2253.16,217.497 2255.15,147.077 2257.14,245.511 2259.14,226.509 2261.13,118.276 2263.12,157.878 2265.12,130.128 2267.11,239.265 2269.1,287.666 2271.1,236.413 2273.09,169.279 2275.08,283.219 2277.08,266.446 2279.07,275.241 2281.06,221.244 2283.06,134.471 2285.05,184.377 2287.04,152.289 2289.04,168.384 2291.03,204.412 2293.02,186.363 "/>
<polyline clip-path="url(#clip752)" style="stroke:#e26f46; stroke-linecap:round; stroke-linejoin:round; stroke-width:4; stroke-opacity:1; fill:none" points="301.869,1384.24 303.862,563.855 305.856,641.694 307.849,936.272 309.842,739.881 311.835,817.574 313.828,422.603 315.821,759.755 317.814,555.329 319.808,743.328 321.801,708.601 323.794,944.42 325.787,583.185 327.78,818.66 329.773,796.596 331.766,701.622 333.76,588.635 335.753,676.238 337.746,818.4 339.739,889.159 341.732,842.58 343.725,767.87 345.718,718.544 347.712,725.471 349.705,598.225 351.698,419.07 353.691,598.533 355.684,428.513 357.677,951.695 359.67,581.537 361.664,492.675 363.657,600.364 365.65,709.081 367.643,899.286 369.636,725.394 371.629,808.603 373.622,631.428 375.616,480.091 377.609,339.33 379.602,556.969 381.595,379.49 383.588,504.707 385.581,640.368 387.574,757.663 389.568,592.499 391.561,464.522 393.554,482.923 395.547,602.13 397.54,571.678 399.533,702.397 401.526,546.07 403.52,629.7 405.513,517.342 407.506,386.925 409.499,792.083 411.492,553.877 413.485,489.152 415.479,585.966 417.472,499.458 419.465,653.099 421.458,484.126 423.451,530.407 425.444,581.588 427.437,489.933 429.431,575.875 431.424,499.308 433.417,397.009 435.41,564.165 437.403,338.653 439.396,567.37 441.389,502.972 443.383,586.012 445.376,359.452 447.369,619.798 449.362,536.341 451.355,525.635 453.348,388.825 455.341,379.301 457.335,527.384 459.328,523.524 461.321,446.339 463.314,348.204 465.307,287.428 467.3,484.745 469.293,317.683 471.287,458.996 473.28,391.014 475.273,375.974 477.266,465.183 479.259,459.674 481.252,541.957 483.245,380.799 485.239,534.915 487.232,182.456 489.225,530.486 491.218,320.567 493.211,256.074 495.204,337.838 497.197,218.062 499.191,390.972 501.184,574.888 503.177,393.85 505.17,292.832 507.163,580.166 509.156,534.356 511.149,383.723 513.143,398.997 515.136,482.666 517.129,406.018 519.122,217.759 521.115,367.876 523.108,554.085 525.101,478.328 527.095,361.74 529.088,368.746 531.081,366.611 533.074,334.192 535.067,350.506 537.06,316.269 539.054,239.808 541.047,296.67 543.04,322.296 545.033,324.74 547.026,193.158 549.019,272.359 551.012,387.844 553.006,348.951 554.999,502.433 556.992,233.758 558.985,466.806 560.978,276.74 562.971,392.059 564.964,268.585 566.958,416.017 568.951,292.317 570.944,244.782 572.937,223.249 574.93,452.795 576.923,318.318 578.916,416.125 580.91,265.887 582.903,418.078 584.896,381.606 586.889,161.915 588.882,371.238 590.875,288.757 592.868,378.725 594.862,315.322 596.855,267.247 598.848,381.402 600.841,263.952 602.834,277.19 604.827,304.544 606.82,305.173 608.814,325.402 610.807,402.424 612.8,274.374 614.793,388.087 616.786,272.204 618.779,266.852 620.772,339.732 622.766,289.195 624.759,187.932 626.752,281.712 628.745,336.525 630.738,295.988 632.731,232.038 634.724,320.749 636.718,233.157 638.711,409.383 640.704,212.423 642.697,259.178 644.69,240.715 646.683,266.071 648.677,110.316 650.67,358.254 652.663,279.945 654.656,199.993 656.649,240.805 658.642,252.869 660.635,355.233 662.629,294.705 664.622,296.332 666.615,302.594 668.608,332.724 670.601,262.417 672.594,182.046 674.587,273.159 676.581,223.551 678.574,292.59 680.567,177.81 682.56,217.38 684.553,247.396 686.546,314.524 688.539,335.725 690.533,213.171 692.526,247.97 694.519,261.727 696.512,300.014 698.505,261.881 700.498,237.219 702.491,208.424 704.485,204.965 706.478,219.072 708.471,207.735 710.464,241.157 712.457,152.49 714.45,280.569 716.443,213.417 718.437,188.014 720.43,265.567 722.423,252.785 724.416,205.953 726.409,318.489 728.402,271.52 730.395,269.563 732.389,313.752 734.382,277.733 736.375,242.322 738.368,239.156 740.361,232.146 742.354,280.754 744.347,206.064 746.341,250.96 748.334,199.546 750.327,164.758 752.32,232.293 754.313,223.461 756.306,284.312 758.299,225.815 760.293,196.136 762.286,247.255 764.279,276.815 766.272,334.968 768.265,214.972 770.258,239.842 772.252,230.434 774.245,193.988 776.238,261.476 778.231,184.071 780.224,205.782 782.217,226.648 784.21,215.499 786.204,236.992 788.197,211.815 790.19,180.687 792.183,226.207 794.176,195.291 796.169,235.316 798.162,243.173 800.156,229.679 802.149,235.67 804.142,176.111 806.135,204.16 808.128,234.188 810.121,229.118 812.114,222.241 814.108,224.254 816.101,216.179 818.094,207.645 820.087,249.624 822.08,213.313 824.073,222.837 826.066,257.795 828.06,215.297 830.053,189.363 832.046,222.156 834.039,225.917 836.032,224.297 838.025,235.879 840.018,229.637 842.012,238.166 844.005,185.699 845.998,247.241 847.991,240.114 849.984,217.749 851.977,218.882 853.97,239.486 855.964,226.783 857.957,235.886 859.95,190.957 861.943,257.43 863.936,246.594 865.929,225.808 867.922,197.027 869.916,218.549 871.909,224.858 873.902,227.991 875.895,232.336 877.888,249.602 879.881,235.744 881.874,168.595 883.868,222.403 885.861,227.808 887.854,207.712 889.847,225.904 891.84,252.615 893.833,215.991 895.827,210.046 897.82,218.868 899.813,216.528 901.806,218.083 903.799,220.505 905.792,201.657 907.785,228.735 909.779,218.824 911.772,206.459 913.765,211.781 915.758,222.694 917.751,213.954 919.744,218.623 921.737,226.473 923.731,229.337 925.724,217.91 927.717,194.042 929.71,243.745 931.703,203.407 933.696,210.621 935.689,194.043 937.683,224.265 939.676,216.216 941.669,218.871 943.662,218.4 945.655,208.563 947.648,211.22 949.641,216.225 951.635,226.883 953.628,213.091 955.621,243.156 957.614,227.413 959.607,215.587 961.6,195.21 963.593,234.477 965.587,218.422 967.58,202.827 969.573,206.238 971.566,217.904 973.559,211.615 975.552,209.404 977.545,220.278 979.539,226.529 981.532,208.617 983.525,202.274 985.518,213.045 987.511,228.557 989.504,213.388 991.497,233.172 993.491,202.697 995.484,212.649 997.477,221.667 999.47,227.264 1001.46,203.79 1003.46,229.174 1005.45,214.98 1007.44,228.173 1009.44,208.314 1011.43,207.365 1013.42,215.624 1015.42,219.911 1017.41,204.221 1019.4,216.283 1021.39,226.411 1023.39,182.593 1025.38,202.492 1027.37,226.394 1029.37,213.732 1031.36,202.015 1033.35,213.955 1035.35,214.602 1037.34,200.074 1039.33,203.186 1041.33,215.886 1043.32,221.946 1045.31,215.918 1047.31,224.92 1049.3,226.707 1051.29,217.969 1053.28,227.802 1055.28,220.701 1057.27,223.617 1059.26,213.733 1061.26,204.262 1063.25,215.234 1065.24,217.663 1067.24,205.344 1069.23,215.191 1071.22,212.31 1073.22,212.773 1075.21,211.252 1077.2,207.182 1079.2,216.135 1081.19,210.312 1083.18,211.77 1085.18,215.138 1087.17,212.938 1089.16,216.541 1091.15,209.163 1093.15,216.558 1095.14,220.466 1097.13,215.249 1099.13,203.34 1101.12,216.196 1103.11,219.075 1105.11,218.612 1107.1,209.419 1109.09,216.326 1111.09,211.42 1113.08,210.315 1115.07,214.677 1117.07,210.974 1119.06,213.206 1121.05,211.959 1123.05,218.753 1125.04,219.834 1127.03,209.728 1129.02,221.117 1131.02,215.719 1133.01,210.171 1135,214.233 1137,210.871 1138.99,213.192 1140.98,217.044 1142.98,210.11 1144.97,215.063 1146.96,207.813 1148.96,209.134 1150.95,213.275 1152.94,212.125 1154.94,218.624 1156.93,216.911 1158.92,207.08 1160.91,216.927 1162.91,208.994 1164.9,210.9 1166.89,216.024 1168.89,212.298 1170.88,216.047 1172.87,211.896 1174.87,213.132 1176.86,214.259 1178.85,210.839 1180.85,213.259 1182.84,212.32 1184.83,212.563 1186.83,212.684 1188.82,209.905 1190.81,220.251 1192.81,213.41 1194.8,211.088 1196.79,210.67 1198.78,214.156 1200.78,213.485 1202.77,217.098 1204.76,215.167 1206.76,215.634 1208.75,211.622 1210.74,212.63 1212.74,215.194 1214.73,212.632 1216.72,211.965 1218.72,215.772 1220.71,212.553 1222.7,216.058 1224.7,212.785 1226.69,213.297 1228.68,211.195 1230.67,211.788 1232.67,209.992 1234.66,215.883 1236.65,212.742 1238.65,211.15 1240.64,212.019 1242.63,214.063 1244.63,212.715 1246.62,213.985 1248.61,213.593 1250.61,215.938 1252.6,211.51 1254.59,210.748 1256.59,213.379 1258.58,214.908 1260.57,212.45 1262.57,215.668 1264.56,213.363 1266.55,213.338 1268.54,213.37 1270.54,214.727 1272.53,213.045 1274.52,214.207 1276.52,211.359 1278.51,212.988 1280.5,213.905 1282.5,212.153 1284.49,213.361 1286.48,215.274 1288.48,212.569 1290.47,212.532 1292.46,212.408 1294.46,214.795 1296.45,212.811 1298.44,212.85 1300.44,213.306 1302.43,213.456 1304.42,213.032 1306.41,212.417 1308.41,212.03 1310.4,214.772 1312.39,214.15 1314.39,211.503 1316.38,213.954 1318.37,212.766 1320.37,211.855 1322.36,212.864 1324.35,214.058 1326.35,212.62 1328.34,212.316 1330.33,213.745 1332.33,214.225 1334.32,213.737 1336.31,213.994 1338.3,213.273 1340.3,212.914 1342.29,213.554 1344.28,213.627 1346.28,213.098 1348.27,213.878 1350.26,213.057 1352.26,212.607 1354.25,213.258 1356.24,212.669 1358.24,212.565 1360.23,213.974 1362.22,212.228 1364.22,212.482 1366.21,212.014 1368.2,213.178 1370.2,213.49 1372.19,213.885 1374.18,212.651 1376.17,212.827 1378.17,214.745 1380.16,213.651 1382.15,213.189 1384.15,213.495 1386.14,213.265 1388.13,212.121 1390.13,212.702 1392.12,213.447 1394.11,212.804 1396.11,213.292 1398.1,213.033 1400.09,213.185 1402.09,213.781 1404.08,212.854 1406.07,213.618 1408.06,213.08 1410.06,213.428 1412.05,213.231 1414.04,213.349 1416.04,213.336 1418.03,213.529 1420.02,213.436 1422.02,212.755 1424.01,213.396 1426,213.763 1428,212.337 1429.99,213.546 1431.98,213.152 1433.98,212.973 1435.97,212.734 1437.96,212.947 1439.96,212.837 1441.95,213.497 1443.94,213.572 1445.93,213.086 1447.93,213.233 1449.92,213.007 1451.91,213.083 1453.91,213.365 1455.9,213.259 1457.89,212.978 1459.89,213.924 1461.88,213.104 1463.87,213.55 1465.87,213.209 1467.86,213.341 1469.85,213.307 1471.85,213.264 1473.84,213.185 1475.83,212.947 1477.82,213.527 1479.82,213.53 1481.81,213.294 1483.8,212.873 1485.8,213.472 1487.79,213.404 1489.78,213.187 1491.78,213.385 1493.77,213.72 1495.76,213.141 1497.76,213.27 1499.75,213.429 1501.74,212.951 1503.74,213.355 1505.73,213.162 1507.72,213.38 1509.72,213.187 1511.71,213.142 1513.7,213.336 1515.69,212.854 1517.69,213.041 1519.68,213.323 1521.67,213.22 1523.67,213.214 1525.66,213.253 1527.65,213.144 1529.65,213.211 1531.64,213.182 1533.63,213.163 1535.63,213.365 1537.62,213.281 1539.61,213.26 1541.61,213.229 1543.6,213.235 1545.59,213.335 1547.59,213.252 1549.58,213.334 1551.57,213.174 1553.56,213.207 1555.56,213.334 1557.55,213.317 1559.54,213.261 1561.54,213.078 1563.53,213.454 1565.52,213.217 1567.52,213.2 1569.51,213.187 1571.5,213.116 1573.5,213.342 1575.49,213.242 1577.48,213.306 1579.48,213.431 1581.47,213.235 1583.46,213.317 1585.45,213.272 1587.45,213.202 1589.44,213.15 1591.43,213.349 1593.43,213.139 1595.42,213.314 1597.41,213.372 1599.41,213.208 1601.4,213.274 1603.39,213.295 1605.39,213.142 1607.38,213.324 1609.37,213.192 1611.37,213.338 1613.36,213.289 1615.35,213.175 1617.35,213.314 1619.34,213.203 1621.33,213.225 1623.32,213.241 1625.32,213.177 1627.31,213.223 1629.3,213.323 1631.3,213.18 1633.29,213.22 1635.28,213.238 1637.28,213.162 1639.27,213.311 1641.26,213.228 1643.26,213.216 1645.25,213.239 1647.24,213.22 1649.24,213.233 1651.23,213.262 1653.22,213.162 1655.21,213.226 1657.21,213.227 1659.2,213.304 1661.19,213.283 1663.19,213.216 1665.18,213.204 1667.17,213.246 1669.17,213.174 1671.16,213.307 1673.15,213.301 1675.15,213.215 1677.14,213.233 1679.13,213.218 1681.13,213.219 1683.12,213.213 1685.11,213.227 1687.11,213.23 1689.1,213.264 1691.09,213.235 1693.08,213.245 1695.08,213.258 1697.07,213.233 1699.06,213.227 1701.06,213.228 1703.05,213.239 1705.04,213.254 1707.04,213.273 1709.03,213.268 1711.02,213.252 1713.02,213.264 1715.01,213.259 1717,213.229 1719,213.26 1720.99,213.243 1722.98,213.272 1724.97,213.281 1726.97,213.242 1728.96,213.25 1730.95,213.243 1732.95,213.262 1734.94,213.259 1736.93,213.275 1738.93,213.253 1740.92,213.244 1742.91,213.251 1744.91,213.235 1746.9,213.259 1748.89,213.273 1750.89,213.285 1752.88,213.237 1754.87,213.249 1756.87,213.245 1758.86,213.24 1760.85,213.235 1762.84,213.225 1764.84,213.235 1766.83,213.258 1768.82,213.264 1770.82,213.229 1772.81,213.228 1774.8,213.255 1776.8,213.24 1778.79,213.242 1780.78,213.263 1782.78,213.255 1784.77,213.242 1786.76,213.248 1788.76,213.221 1790.75,213.25 1792.74,213.252 1794.74,213.239 1796.73,213.255 1798.72,213.241 1800.71,213.269 1802.71,213.258 1804.7,213.246 1806.69,213.244 1808.69,213.245 1810.68,213.25 1812.67,213.245 1814.67,213.247 1816.66,213.249 1818.65,213.236 1820.65,213.243 1822.64,213.251 1824.63,213.247 1826.63,213.259 1828.62,213.256 1830.61,213.253 1832.6,213.254 1834.6,213.25 1836.59,213.239 1838.58,213.244 1840.58,213.256 1842.57,213.243 1844.56,213.245 1846.56,213.237 1848.55,213.249 1850.54,213.24 1852.54,213.247 1854.53,213.244 1856.52,213.247 1858.52,213.247 1860.51,213.242 1862.5,213.245 1864.5,213.253 1866.49,213.248 1868.48,213.248 1870.47,213.246 1872.47,213.25 1874.46,213.243 1876.45,213.252 1878.45,213.248 1880.44,213.247 1882.43,213.247 1884.43,213.25 1886.42,213.243 1888.41,213.245 1890.41,213.248 1892.4,213.245 1894.39,213.249 1896.39,213.25 1898.38,213.25 1900.37,213.246 1902.36,213.25 1904.36,213.249 1906.35,213.25 1908.34,213.248 1910.34,213.25 1912.33,213.251 1914.32,213.249 1916.32,213.249 1918.31,213.249 1920.3,213.251 1922.3,213.25 1924.29,213.248 1926.28,213.25 1928.28,213.249 1930.27,213.253 1932.26,213.248 1934.26,213.248 1936.25,213.25 1938.24,213.248 1940.23,213.247 1942.23,213.248 1944.22,213.247 1946.21,213.246 1948.21,213.249 1950.2,213.247 1952.19,213.249 1954.19,213.25 1956.18,213.249 1958.17,213.249 1960.17,213.249 1962.16,213.25 1964.15,213.248 1966.15,213.249 1968.14,213.249 1970.13,213.25 1972.12,213.247 1974.12,213.248 1976.11,213.248 1978.1,213.249 1980.1,213.248 1982.09,213.25 1984.08,213.249 1986.08,213.246 1988.07,213.247 1990.06,213.249 1992.06,213.249 1994.05,213.249 1996.04,213.249 1998.04,213.248 2000.03,213.248 2002.02,213.248 2004.02,213.25 2006.01,213.25 2008,213.248 2009.99,213.248 2011.99,213.249 2013.98,213.249 2015.97,213.248 2017.97,213.249 2019.96,213.249 2021.95,213.249 2023.95,213.249 2025.94,213.249 2027.93,213.248 2029.93,213.247 2031.92,213.248 2033.91,213.249 2035.91,213.249 2037.9,213.248 2039.89,213.248 2041.89,213.248 2043.88,213.249 2045.87,213.249 2047.86,213.248 2049.86,213.249 2051.85,213.249 2053.84,213.249 2055.84,213.249 2057.83,213.249 2059.82,213.249 2061.82,213.249 2063.81,213.248 2065.8,213.249 2067.8,213.248 2069.79,213.249 2071.78,213.248 2073.78,213.248 2075.77,213.249 2077.76,213.248 2079.75,213.248 2081.75,213.249 2083.74,213.248 2085.73,213.248 2087.73,213.249 2089.72,213.248 2091.71,213.248 2093.71,213.248 2095.7,213.249 2097.69,213.248 2099.69,213.249 2101.68,213.249 2103.67,213.249 2105.67,213.249 2107.66,213.248 2109.65,213.249 2111.65,213.248 2113.64,213.248 2115.63,213.248 2117.62,213.249 2119.62,213.249 2121.61,213.249 2123.6,213.248 2125.6,213.248 2127.59,213.248 2129.58,213.249 2131.58,213.249 2133.57,213.249 2135.56,213.249 2137.56,213.249 2139.55,213.248 2141.54,213.248 2143.54,213.249 2145.53,213.249 2147.52,213.248 2149.51,213.249 2151.51,213.249 2153.5,213.248 2155.49,213.249 2157.49,213.248 2159.48,213.249 2161.47,213.248 2163.47,213.248 2165.46,213.249 2167.45,213.248 2169.45,213.249 2171.44,213.249 2173.43,213.248 2175.43,213.248 2177.42,213.249 2179.41,213.248 2181.41,213.248 2183.4,213.248 2185.39,213.249 2187.38,213.249 2189.38,213.249 2191.37,213.249 2193.36,213.249 2195.36,213.249 2197.35,213.249 2199.34,213.249 2201.34,213.249 2203.33,213.249 2205.32,213.248 2207.32,213.249 2209.31,213.248 2211.3,213.249 2213.3,213.249 2215.29,213.249 2217.28,213.249 2219.27,213.248 2221.27,213.249 2223.26,213.249 2225.25,213.248 2227.25,213.249 2229.24,213.249 2231.23,213.249 2233.23,213.249 2235.22,213.249 2237.21,213.249 2239.21,213.248 2241.2,213.248 2243.19,213.249 2245.19,213.249 2247.18,213.249 2249.17,213.249 2251.17,213.249 2253.16,213.249 2255.15,213.249 2257.14,213.249 2259.14,213.249 2261.13,213.249 2263.12,213.248 2265.12,213.249 2267.11,213.249 2269.1,213.249 2271.1,213.249 2273.09,213.249 2275.08,213.249 2277.08,213.249 2279.07,213.249 2281.06,213.249 2283.06,213.249 2285.05,213.249 2287.04,213.249 2289.04,213.249 2291.03,213.249 2293.02,213.249 "/>
<path clip-path="url(#clip750)" d="M1863.63 1377.32 L2282.4 1377.32 L2282.4 1221.8 L1863.63 1221.8  Z" fill="#ffffff" fill-rule="evenodd" fill-opacity="1"/>
<polyline clip-path="url(#clip750)" style="stroke:#000000; stroke-linecap:round; stroke-linejoin:round; stroke-width:4; stroke-opacity:1; fill:none" points="1863.63,1377.32 2282.4,1377.32 2282.4,1221.8 1863.63,1221.8 1863.63,1377.32 "/>
<polyline clip-path="url(#clip750)" style="stroke:#009af9; stroke-linecap:round; stroke-linejoin:round; stroke-width:4; stroke-opacity:1; fill:none" points="1887.08,1273.64 2027.79,1273.64 "/>
<path clip-path="url(#clip750)" d="M2055.92 1274.41 L2055.92 1287.07 L2063.42 1287.07 Q2067.19 1287.07 2069 1285.52 Q2070.83 1283.95 2070.83 1280.73 Q2070.83 1277.49 2069 1275.96 Q2067.19 1274.41 2063.42 1274.41 L2055.92 1274.41 M2055.92 1260.2 L2055.92 1270.61 L2062.84 1270.61 Q2066.27 1270.61 2067.93 1269.34 Q2069.62 1268.05 2069.62 1265.41 Q2069.62 1262.79 2067.93 1261.49 Q2066.27 1260.2 2062.84 1260.2 L2055.92 1260.2 M2051.24 1256.36 L2063.19 1256.36 Q2068.53 1256.36 2071.43 1258.58 Q2074.32 1260.8 2074.32 1264.9 Q2074.32 1268.07 2072.84 1269.94 Q2071.36 1271.82 2068.49 1272.28 Q2071.94 1273.02 2073.84 1275.38 Q2075.76 1277.72 2075.76 1281.24 Q2075.76 1285.87 2072.61 1288.39 Q2069.46 1290.92 2063.65 1290.92 L2051.24 1290.92 L2051.24 1256.36 Z" fill="#000000" fill-rule="nonzero" fill-opacity="1" /><path clip-path="url(#clip750)" d="M2088.44 1274.41 L2088.44 1287.07 L2095.94 1287.07 Q2099.72 1287.07 2101.52 1285.52 Q2103.35 1283.95 2103.35 1280.73 Q2103.35 1277.49 2101.52 1275.96 Q2099.72 1274.41 2095.94 1274.41 L2088.44 1274.41 M2088.44 1260.2 L2088.44 1270.61 L2095.36 1270.61 Q2098.79 1270.61 2100.46 1269.34 Q2102.15 1268.05 2102.15 1265.41 Q2102.15 1262.79 2100.46 1261.49 Q2098.79 1260.2 2095.36 1260.2 L2088.44 1260.2 M2083.77 1256.36 L2095.71 1256.36 Q2101.06 1256.36 2103.95 1258.58 Q2106.84 1260.8 2106.84 1264.9 Q2106.84 1268.07 2105.36 1269.94 Q2103.88 1271.82 2101.01 1272.28 Q2104.46 1273.02 2106.36 1275.38 Q2108.28 1277.72 2108.28 1281.24 Q2108.28 1285.87 2105.13 1288.39 Q2101.98 1290.92 2096.17 1290.92 L2083.77 1290.92 L2083.77 1256.36 Z" fill="#000000" fill-rule="nonzero" fill-opacity="1" /><path clip-path="url(#clip750)" d="M2123.74 1290.92 L2110.55 1256.36 L2115.43 1256.36 L2126.38 1285.45 L2137.35 1256.36 L2142.22 1256.36 L2129.04 1290.92 L2123.74 1290.92 Z" fill="#000000" fill-rule="nonzero" fill-opacity="1" /><path clip-path="url(#clip750)" d="M2147.26 1256.36 L2151.94 1256.36 L2151.94 1290.92 L2147.26 1290.92 L2147.26 1256.36 Z" fill="#000000" fill-rule="nonzero" fill-opacity="1" /><path clip-path="url(#clip750)" d="M2202.19 1259.02 L2202.19 1263.95 Q2199.83 1261.75 2197.15 1260.66 Q2194.48 1259.57 2191.47 1259.57 Q2185.55 1259.57 2182.4 1263.21 Q2179.25 1266.82 2179.25 1273.67 Q2179.25 1280.5 2182.4 1284.13 Q2185.55 1287.74 2191.47 1287.74 Q2194.48 1287.74 2197.15 1286.66 Q2199.83 1285.57 2202.19 1283.37 L2202.19 1288.25 Q2199.74 1289.92 2196.98 1290.75 Q2194.25 1291.59 2191.2 1291.59 Q2183.35 1291.59 2178.84 1286.79 Q2174.32 1281.98 2174.32 1273.67 Q2174.32 1265.34 2178.84 1260.55 Q2183.35 1255.73 2191.2 1255.73 Q2194.3 1255.73 2197.03 1256.56 Q2199.78 1257.37 2202.19 1259.02 Z" fill="#000000" fill-rule="nonzero" fill-opacity="1" /><path clip-path="url(#clip750)" d="M2209.41 1256.36 L2229.27 1256.36 L2229.27 1260.29 L2214.09 1260.29 L2214.09 1270.48 L2227.79 1270.48 L2227.79 1274.41 L2214.09 1274.41 L2214.09 1290.92 L2209.41 1290.92 L2209.41 1256.36 Z" fill="#000000" fill-rule="nonzero" fill-opacity="1" /><path clip-path="url(#clip750)" d="M2236.68 1256.36 L2258.53 1256.36 L2258.53 1260.29 L2241.36 1260.29 L2241.36 1270.52 L2257.82 1270.52 L2257.82 1274.46 L2241.36 1274.46 L2241.36 1286.98 L2258.95 1286.98 L2258.95 1290.92 L2236.68 1290.92 L2236.68 1256.36 Z" fill="#000000" fill-rule="nonzero" fill-opacity="1" /><polyline clip-path="url(#clip750)" style="stroke:#e26f46; stroke-linecap:round; stroke-linejoin:round; stroke-width:4; stroke-opacity:1; fill:none" points="1887.08,1325.48 2027.79,1325.48 "/>
<path clip-path="url(#clip750)" d="M2055.92 1326.25 L2055.92 1338.91 L2063.42 1338.91 Q2067.19 1338.91 2069 1337.36 Q2070.83 1335.79 2070.83 1332.57 Q2070.83 1329.33 2069 1327.8 Q2067.19 1326.25 2063.42 1326.25 L2055.92 1326.25 M2055.92 1312.04 L2055.92 1322.45 L2062.84 1322.45 Q2066.27 1322.45 2067.93 1321.18 Q2069.62 1319.89 2069.62 1317.25 Q2069.62 1314.63 2067.93 1313.33 Q2066.27 1312.04 2062.84 1312.04 L2055.92 1312.04 M2051.24 1308.2 L2063.19 1308.2 Q2068.53 1308.2 2071.43 1310.42 Q2074.32 1312.64 2074.32 1316.74 Q2074.32 1319.91 2072.84 1321.78 Q2071.36 1323.66 2068.49 1324.12 Q2071.94 1324.86 2073.84 1327.22 Q2075.76 1329.56 2075.76 1333.08 Q2075.76 1337.71 2072.61 1340.23 Q2069.46 1342.76 2063.65 1342.76 L2051.24 1342.76 L2051.24 1308.2 Z" fill="#000000" fill-rule="nonzero" fill-opacity="1" /><path clip-path="url(#clip750)" d="M2088.44 1326.25 L2088.44 1338.91 L2095.94 1338.91 Q2099.72 1338.91 2101.52 1337.36 Q2103.35 1335.79 2103.35 1332.57 Q2103.35 1329.33 2101.52 1327.8 Q2099.72 1326.25 2095.94 1326.25 L2088.44 1326.25 M2088.44 1312.04 L2088.44 1322.45 L2095.36 1322.45 Q2098.79 1322.45 2100.46 1321.18 Q2102.15 1319.89 2102.15 1317.25 Q2102.15 1314.63 2100.46 1313.33 Q2098.79 1312.04 2095.36 1312.04 L2088.44 1312.04 M2083.77 1308.2 L2095.71 1308.2 Q2101.06 1308.2 2103.95 1310.42 Q2106.84 1312.64 2106.84 1316.74 Q2106.84 1319.91 2105.36 1321.78 Q2103.88 1323.66 2101.01 1324.12 Q2104.46 1324.86 2106.36 1327.22 Q2108.28 1329.56 2108.28 1333.08 Q2108.28 1337.71 2105.13 1340.23 Q2101.98 1342.76 2096.17 1342.76 L2083.77 1342.76 L2083.77 1308.2 Z" fill="#000000" fill-rule="nonzero" fill-opacity="1" /><path clip-path="url(#clip750)" d="M2123.74 1342.76 L2110.55 1308.2 L2115.43 1308.2 L2126.38 1337.29 L2137.35 1308.2 L2142.22 1308.2 L2129.04 1342.76 L2123.74 1342.76 Z" fill="#000000" fill-rule="nonzero" fill-opacity="1" /><path clip-path="url(#clip750)" d="M2147.26 1308.2 L2151.94 1308.2 L2151.94 1342.76 L2147.26 1342.76 L2147.26 1308.2 Z" fill="#000000" fill-rule="nonzero" fill-opacity="1" /><path clip-path="url(#clip750)" d="M2197.03 1309.33 L2197.03 1313.89 Q2194.37 1312.62 2192.01 1311.99 Q2189.65 1311.37 2187.45 1311.37 Q2183.63 1311.37 2181.54 1312.85 Q2179.48 1314.33 2179.48 1317.06 Q2179.48 1319.35 2180.85 1320.53 Q2182.24 1321.69 2186.08 1322.41 L2188.9 1322.99 Q2194.14 1323.98 2196.61 1326.51 Q2199.11 1329.01 2199.11 1333.22 Q2199.11 1338.24 2195.73 1340.83 Q2192.38 1343.43 2185.87 1343.43 Q2183.42 1343.43 2180.64 1342.87 Q2177.89 1342.32 2174.92 1341.23 L2174.92 1336.41 Q2177.77 1338.01 2180.5 1338.82 Q2183.23 1339.63 2185.87 1339.63 Q2189.88 1339.63 2192.05 1338.06 Q2194.23 1336.48 2194.23 1333.57 Q2194.23 1331.02 2192.65 1329.58 Q2191.1 1328.15 2187.54 1327.43 L2184.69 1326.88 Q2179.46 1325.83 2177.12 1323.61 Q2174.78 1321.39 2174.78 1317.43 Q2174.78 1312.85 2178 1310.21 Q2181.24 1307.57 2186.91 1307.57 Q2189.34 1307.57 2191.87 1308.01 Q2194.39 1308.45 2197.03 1309.33 Z" fill="#000000" fill-rule="nonzero" fill-opacity="1" /><path clip-path="url(#clip750)" d="M2201.61 1308.2 L2230.85 1308.2 L2230.85 1312.13 L2218.58 1312.13 L2218.58 1342.76 L2213.88 1342.76 L2213.88 1312.13 L2201.61 1312.13 L2201.61 1308.2 Z" fill="#000000" fill-rule="nonzero" fill-opacity="1" /><path clip-path="url(#clip750)" d="M2235.36 1308.2 L2240.04 1308.2 L2240.04 1338.82 L2256.87 1338.82 L2256.87 1342.76 L2235.36 1342.76 L2235.36 1308.2 Z" fill="#000000" fill-rule="nonzero" fill-opacity="1" /></svg>
