<?xml version="1.0" encoding="utf-8"?>
<svg xmlns="http://www.w3.org/2000/svg" xmlns:xlink="http://www.w3.org/1999/xlink" width="600" height="400" viewBox="0 0 2400 1600">
<defs>
  <clipPath id="clip520">
    <rect x="0" y="0" width="2400" height="1600"/>
  </clipPath>
</defs>
<path clip-path="url(#clip520)" d="M0 1600 L2400 1600 L2400 0 L0 0  Z" fill="#ffffff" fill-rule="evenodd" fill-opacity="1"/>
<defs>
  <clipPath id="clip521">
    <rect x="242" y="47" width="2112" height="1377"/>
  </clipPath>
</defs>
<path clip-path="url(#clip520)" d="M251.56 1423.18 L2352.76 1423.18 L2352.76 47.2441 L251.56 47.2441  Z" fill="#ffffff" fill-rule="evenodd" fill-opacity="1"/>
<defs>
  <clipPath id="clip522">
    <rect x="251" y="47" width="2102" height="1377"/>
  </clipPath>
</defs>
<polyline clip-path="url(#clip522)" style="stroke:#000000; stroke-linecap:round; stroke-linejoin:round; stroke-width:2; stroke-opacity:0.1; fill:none" points="309.044,1423.18 309.044,47.2441 "/>
<polyline clip-path="url(#clip522)" style="stroke:#000000; stroke-linecap:round; stroke-linejoin:round; stroke-width:2; stroke-opacity:0.1; fill:none" points="805.105,1423.18 805.105,47.2441 "/>
<polyline clip-path="url(#clip522)" style="stroke:#000000; stroke-linecap:round; stroke-linejoin:round; stroke-width:2; stroke-opacity:0.1; fill:none" points="1301.17,1423.18 1301.17,47.2441 "/>
<polyline clip-path="url(#clip522)" style="stroke:#000000; stroke-linecap:round; stroke-linejoin:round; stroke-width:2; stroke-opacity:0.1; fill:none" points="1797.23,1423.18 1797.23,47.2441 "/>
<polyline clip-path="url(#clip522)" style="stroke:#000000; stroke-linecap:round; stroke-linejoin:round; stroke-width:2; stroke-opacity:0.1; fill:none" points="2293.29,1423.18 2293.29,47.2441 "/>
<polyline clip-path="url(#clip522)" style="stroke:#000000; stroke-linecap:round; stroke-linejoin:round; stroke-width:2; stroke-opacity:0.1; fill:none" points="251.56,1117.39 2352.76,1117.39 "/>
<polyline clip-path="url(#clip522)" style="stroke:#000000; stroke-linecap:round; stroke-linejoin:round; stroke-width:2; stroke-opacity:0.1; fill:none" points="251.56,228.246 2352.76,228.246 "/>
<polyline clip-path="url(#clip520)" style="stroke:#000000; stroke-linecap:round; stroke-linejoin:round; stroke-width:4; stroke-opacity:1; fill:none" points="251.56,1423.18 2352.76,1423.18 "/>
<polyline clip-path="url(#clip520)" style="stroke:#000000; stroke-linecap:round; stroke-linejoin:round; stroke-width:4; stroke-opacity:1; fill:none" points="309.044,1423.18 309.044,1404.28 "/>
<polyline clip-path="url(#clip520)" style="stroke:#000000; stroke-linecap:round; stroke-linejoin:round; stroke-width:4; stroke-opacity:1; fill:none" points="805.105,1423.18 805.105,1404.28 "/>
<polyline clip-path="url(#clip520)" style="stroke:#000000; stroke-linecap:round; stroke-linejoin:round; stroke-width:4; stroke-opacity:1; fill:none" points="1301.17,1423.18 1301.17,1404.28 "/>
<polyline clip-path="url(#clip520)" style="stroke:#000000; stroke-linecap:round; stroke-linejoin:round; stroke-width:4; stroke-opacity:1; fill:none" points="1797.23,1423.18 1797.23,1404.28 "/>
<polyline clip-path="url(#clip520)" style="stroke:#000000; stroke-linecap:round; stroke-linejoin:round; stroke-width:4; stroke-opacity:1; fill:none" points="2293.29,1423.18 2293.29,1404.28 "/>
<path clip-path="url(#clip520)" d="M309.044 1454.1 Q305.433 1454.1 303.604 1457.66 Q301.798 1461.2 301.798 1468.33 Q301.798 1475.44 303.604 1479.01 Q305.433 1482.55 309.044 1482.55 Q312.678 1482.55 314.484 1479.01 Q316.312 1475.44 316.312 1468.33 Q316.312 1461.2 314.484 1457.66 Q312.678 1454.1 309.044 1454.1 M309.044 1450.39 Q314.854 1450.39 317.91 1455 Q320.988 1459.58 320.988 1468.33 Q320.988 1477.06 317.91 1481.67 Q314.854 1486.25 309.044 1486.25 Q303.234 1486.25 300.155 1481.67 Q297.099 1477.06 297.099 1468.33 Q297.099 1459.58 300.155 1455 Q303.234 1450.39 309.044 1450.39 Z" fill="#000000" fill-rule="nonzero" fill-opacity="1" /><path clip-path="url(#clip520)" d="M768.797 1481.64 L785.117 1481.64 L785.117 1485.58 L763.172 1485.58 L763.172 1481.64 Q765.834 1478.89 770.418 1474.26 Q775.024 1469.61 776.205 1468.27 Q778.45 1465.74 779.33 1464.01 Q780.232 1462.25 780.232 1460.56 Q780.232 1457.8 778.288 1456.07 Q776.367 1454.33 773.265 1454.33 Q771.066 1454.33 768.612 1455.09 Q766.181 1455.86 763.404 1457.41 L763.404 1452.69 Q766.228 1451.55 768.681 1450.97 Q771.135 1450.39 773.172 1450.39 Q778.543 1450.39 781.737 1453.08 Q784.931 1455.77 784.931 1460.26 Q784.931 1462.39 784.121 1464.31 Q783.334 1466.2 781.228 1468.8 Q780.649 1469.47 777.547 1472.69 Q774.445 1475.88 768.797 1481.64 Z" fill="#000000" fill-rule="nonzero" fill-opacity="1" /><path clip-path="url(#clip520)" d="M794.978 1451.02 L813.334 1451.02 L813.334 1454.96 L799.26 1454.96 L799.26 1463.43 Q800.279 1463.08 801.297 1462.92 Q802.316 1462.73 803.334 1462.73 Q809.121 1462.73 812.501 1465.9 Q815.88 1469.08 815.88 1474.49 Q815.88 1480.07 812.408 1483.17 Q808.936 1486.25 802.616 1486.25 Q800.441 1486.25 798.172 1485.88 Q795.927 1485.51 793.519 1484.77 L793.519 1480.07 Q795.603 1481.2 797.825 1481.76 Q800.047 1482.32 802.524 1482.32 Q806.528 1482.32 808.866 1480.21 Q811.204 1478.1 811.204 1474.49 Q811.204 1470.88 808.866 1468.77 Q806.528 1466.67 802.524 1466.67 Q800.649 1466.67 798.774 1467.08 Q796.922 1467.5 794.978 1468.38 L794.978 1451.02 Z" fill="#000000" fill-rule="nonzero" fill-opacity="1" /><path clip-path="url(#clip520)" d="M835.093 1454.1 Q831.482 1454.1 829.653 1457.66 Q827.848 1461.2 827.848 1468.33 Q827.848 1475.44 829.653 1479.01 Q831.482 1482.55 835.093 1482.55 Q838.727 1482.55 840.533 1479.01 Q842.362 1475.44 842.362 1468.33 Q842.362 1461.2 840.533 1457.66 Q838.727 1454.1 835.093 1454.1 M835.093 1450.39 Q840.903 1450.39 843.959 1455 Q847.038 1459.58 847.038 1468.33 Q847.038 1477.06 843.959 1481.67 Q840.903 1486.25 835.093 1486.25 Q829.283 1486.25 826.204 1481.67 Q823.149 1477.06 823.149 1468.33 Q823.149 1459.58 826.204 1455 Q829.283 1450.39 835.093 1450.39 Z" fill="#000000" fill-rule="nonzero" fill-opacity="1" /><path clip-path="url(#clip520)" d="M1260.78 1451.02 L1279.14 1451.02 L1279.14 1454.96 L1265.07 1454.96 L1265.07 1463.43 Q1266.09 1463.08 1267.1 1462.92 Q1268.12 1462.73 1269.14 1462.73 Q1274.93 1462.73 1278.31 1465.9 Q1281.69 1469.08 1281.69 1474.49 Q1281.69 1480.07 1278.21 1483.17 Q1274.74 1486.25 1268.42 1486.25 Q1266.25 1486.25 1263.98 1485.88 Q1261.73 1485.51 1259.33 1484.77 L1259.33 1480.07 Q1261.41 1481.2 1263.63 1481.76 Q1265.85 1482.32 1268.33 1482.32 Q1272.34 1482.32 1274.67 1480.21 Q1277.01 1478.1 1277.01 1474.49 Q1277.01 1470.88 1274.67 1468.77 Q1272.34 1466.67 1268.33 1466.67 Q1266.46 1466.67 1264.58 1467.08 Q1262.73 1467.5 1260.78 1468.38 L1260.78 1451.02 Z" fill="#000000" fill-rule="nonzero" fill-opacity="1" /><path clip-path="url(#clip520)" d="M1300.9 1454.1 Q1297.29 1454.1 1295.46 1457.66 Q1293.65 1461.2 1293.65 1468.33 Q1293.65 1475.44 1295.46 1479.01 Q1297.29 1482.55 1300.9 1482.55 Q1304.53 1482.55 1306.34 1479.01 Q1308.17 1475.44 1308.17 1468.33 Q1308.17 1461.2 1306.34 1457.66 Q1304.53 1454.1 1300.9 1454.1 M1300.9 1450.39 Q1306.71 1450.39 1309.77 1455 Q1312.84 1459.58 1312.84 1468.33 Q1312.84 1477.06 1309.77 1481.67 Q1306.71 1486.25 1300.9 1486.25 Q1295.09 1486.25 1292.01 1481.67 Q1288.96 1477.06 1288.96 1468.33 Q1288.96 1459.58 1292.01 1455 Q1295.09 1450.39 1300.9 1450.39 Z" fill="#000000" fill-rule="nonzero" fill-opacity="1" /><path clip-path="url(#clip520)" d="M1331.06 1454.1 Q1327.45 1454.1 1325.62 1457.66 Q1323.82 1461.2 1323.82 1468.33 Q1323.82 1475.44 1325.62 1479.01 Q1327.45 1482.55 1331.06 1482.55 Q1334.7 1482.55 1336.5 1479.01 Q1338.33 1475.44 1338.33 1468.33 Q1338.33 1461.2 1336.5 1457.66 Q1334.7 1454.1 1331.06 1454.1 M1331.06 1450.39 Q1336.87 1450.39 1339.93 1455 Q1343.01 1459.58 1343.01 1468.33 Q1343.01 1477.06 1339.93 1481.67 Q1336.87 1486.25 1331.06 1486.25 Q1325.25 1486.25 1322.17 1481.67 Q1319.12 1477.06 1319.12 1468.33 Q1319.12 1459.58 1322.17 1455 Q1325.25 1450.39 1331.06 1450.39 Z" fill="#000000" fill-rule="nonzero" fill-opacity="1" /><path clip-path="url(#clip520)" d="M1755.5 1451.02 L1777.72 1451.02 L1777.72 1453.01 L1765.18 1485.58 L1760.29 1485.58 L1772.1 1454.96 L1755.5 1454.96 L1755.5 1451.02 Z" fill="#000000" fill-rule="nonzero" fill-opacity="1" /><path clip-path="url(#clip520)" d="M1786.89 1451.02 L1805.25 1451.02 L1805.25 1454.96 L1791.17 1454.96 L1791.17 1463.43 Q1792.19 1463.08 1793.21 1462.92 Q1794.23 1462.73 1795.25 1462.73 Q1801.03 1462.73 1804.41 1465.9 Q1807.79 1469.08 1807.79 1474.49 Q1807.79 1480.07 1804.32 1483.17 Q1800.85 1486.25 1794.53 1486.25 Q1792.35 1486.25 1790.09 1485.88 Q1787.84 1485.51 1785.43 1484.77 L1785.43 1480.07 Q1787.52 1481.2 1789.74 1481.76 Q1791.96 1482.32 1794.44 1482.32 Q1798.44 1482.32 1800.78 1480.21 Q1803.12 1478.1 1803.12 1474.49 Q1803.12 1470.88 1800.78 1468.77 Q1798.44 1466.67 1794.44 1466.67 Q1792.56 1466.67 1790.69 1467.08 Q1788.84 1467.5 1786.89 1468.38 L1786.89 1451.02 Z" fill="#000000" fill-rule="nonzero" fill-opacity="1" /><path clip-path="url(#clip520)" d="M1827.01 1454.1 Q1823.4 1454.1 1821.57 1457.66 Q1819.76 1461.2 1819.76 1468.33 Q1819.76 1475.44 1821.57 1479.01 Q1823.4 1482.55 1827.01 1482.55 Q1830.64 1482.55 1832.45 1479.01 Q1834.28 1475.44 1834.28 1468.33 Q1834.28 1461.2 1832.45 1457.66 Q1830.64 1454.1 1827.01 1454.1 M1827.01 1450.39 Q1832.82 1450.39 1835.87 1455 Q1838.95 1459.58 1838.95 1468.33 Q1838.95 1477.06 1835.87 1481.67 Q1832.82 1486.25 1827.01 1486.25 Q1821.2 1486.25 1818.12 1481.67 Q1815.06 1477.06 1815.06 1468.33 Q1815.06 1459.58 1818.12 1455 Q1821.2 1450.39 1827.01 1450.39 Z" fill="#000000" fill-rule="nonzero" fill-opacity="1" /><path clip-path="url(#clip520)" d="M2237.81 1481.64 L2245.45 1481.64 L2245.45 1455.28 L2237.14 1456.95 L2237.14 1452.69 L2245.41 1451.02 L2250.08 1451.02 L2250.08 1481.64 L2257.72 1481.64 L2257.72 1485.58 L2237.81 1485.58 L2237.81 1481.64 Z" fill="#000000" fill-rule="nonzero" fill-opacity="1" /><path clip-path="url(#clip520)" d="M2277.17 1454.1 Q2273.55 1454.1 2271.73 1457.66 Q2269.92 1461.2 2269.92 1468.33 Q2269.92 1475.44 2271.73 1479.01 Q2273.55 1482.55 2277.17 1482.55 Q2280.8 1482.55 2282.61 1479.01 Q2284.43 1475.44 2284.43 1468.33 Q2284.43 1461.2 2282.61 1457.66 Q2280.8 1454.1 2277.17 1454.1 M2277.17 1450.39 Q2282.98 1450.39 2286.03 1455 Q2289.11 1459.58 2289.11 1468.33 Q2289.11 1477.06 2286.03 1481.67 Q2282.98 1486.25 2277.17 1486.25 Q2271.36 1486.25 2268.28 1481.67 Q2265.22 1477.06 2265.22 1468.33 Q2265.22 1459.58 2268.28 1455 Q2271.36 1450.39 2277.17 1450.39 Z" fill="#000000" fill-rule="nonzero" fill-opacity="1" /><path clip-path="url(#clip520)" d="M2307.33 1454.1 Q2303.72 1454.1 2301.89 1457.66 Q2300.08 1461.2 2300.08 1468.33 Q2300.08 1475.44 2301.89 1479.01 Q2303.72 1482.55 2307.33 1482.55 Q2310.96 1482.55 2312.77 1479.01 Q2314.6 1475.44 2314.6 1468.33 Q2314.6 1461.2 2312.77 1457.66 Q2310.96 1454.1 2307.33 1454.1 M2307.33 1450.39 Q2313.14 1450.39 2316.19 1455 Q2319.27 1459.58 2319.27 1468.33 Q2319.27 1477.06 2316.19 1481.67 Q2313.14 1486.25 2307.33 1486.25 Q2301.52 1486.25 2298.44 1481.67 Q2295.38 1477.06 2295.38 1468.33 Q2295.38 1459.58 2298.44 1455 Q2301.52 1450.39 2307.33 1450.39 Z" fill="#000000" fill-rule="nonzero" fill-opacity="1" /><path clip-path="url(#clip520)" d="M2337.49 1454.1 Q2333.88 1454.1 2332.05 1457.66 Q2330.24 1461.2 2330.24 1468.33 Q2330.24 1475.44 2332.05 1479.01 Q2333.88 1482.55 2337.49 1482.55 Q2341.12 1482.55 2342.93 1479.01 Q2344.76 1475.44 2344.76 1468.33 Q2344.76 1461.2 2342.93 1457.66 Q2341.12 1454.1 2337.49 1454.1 M2337.49 1450.39 Q2343.3 1450.39 2346.35 1455 Q2349.43 1459.58 2349.43 1468.33 Q2349.43 1477.06 2346.35 1481.67 Q2343.3 1486.25 2337.49 1486.25 Q2331.68 1486.25 2328.6 1481.67 Q2325.54 1477.06 2325.54 1468.33 Q2325.54 1459.58 2328.6 1455 Q2331.68 1450.39 2337.49 1450.39 Z" fill="#000000" fill-rule="nonzero" fill-opacity="1" /><path clip-path="url(#clip520)" d="M1169.88 1520.52 L1176.31 1520.52 L1176.31 1568.04 L1169.88 1568.04 L1169.88 1520.52 Z" fill="#000000" fill-rule="nonzero" fill-opacity="1" /><path clip-path="url(#clip520)" d="M1194.64 1522.27 L1194.64 1532.4 L1206.7 1532.4 L1206.7 1536.95 L1194.64 1536.95 L1194.64 1556.3 Q1194.64 1560.66 1195.82 1561.9 Q1197.03 1563.14 1200.69 1563.14 L1206.7 1563.14 L1206.7 1568.04 L1200.69 1568.04 Q1193.91 1568.04 1191.33 1565.53 Q1188.75 1562.98 1188.75 1556.3 L1188.75 1536.95 L1184.46 1536.95 L1184.46 1532.4 L1188.75 1532.4 L1188.75 1522.27 L1194.64 1522.27 Z" fill="#000000" fill-rule="nonzero" fill-opacity="1" /><path clip-path="url(#clip520)" d="M1244.9 1548.76 L1244.9 1551.62 L1217.97 1551.62 Q1218.35 1557.67 1221.6 1560.85 Q1224.88 1564 1230.7 1564 Q1234.08 1564 1237.23 1563.17 Q1240.41 1562.35 1243.53 1560.69 L1243.53 1566.23 Q1240.38 1567.57 1237.07 1568.27 Q1233.76 1568.97 1230.35 1568.97 Q1221.82 1568.97 1216.83 1564 Q1211.86 1559.04 1211.86 1550.57 Q1211.86 1541.82 1216.57 1536.69 Q1221.31 1531.54 1229.33 1531.54 Q1236.53 1531.54 1240.7 1536.18 Q1244.9 1540.8 1244.9 1548.76 M1239.04 1547.04 Q1238.98 1542.23 1236.34 1539.37 Q1233.73 1536.5 1229.4 1536.5 Q1224.5 1536.5 1221.54 1539.27 Q1218.61 1542.04 1218.16 1547.07 L1239.04 1547.04 Z" fill="#000000" fill-rule="nonzero" fill-opacity="1" /><path clip-path="url(#clip520)" d="M1275.17 1537.87 Q1274.18 1537.3 1273 1537.04 Q1271.86 1536.76 1270.46 1536.76 Q1265.49 1536.76 1262.82 1540 Q1260.18 1543.22 1260.18 1549.27 L1260.18 1568.04 L1254.29 1568.04 L1254.29 1532.4 L1260.18 1532.4 L1260.18 1537.93 Q1262.02 1534.69 1264.98 1533.13 Q1267.94 1531.54 1272.18 1531.54 Q1272.78 1531.54 1273.51 1531.63 Q1274.24 1531.7 1275.14 1531.85 L1275.17 1537.87 Z" fill="#000000" fill-rule="nonzero" fill-opacity="1" /><path clip-path="url(#clip520)" d="M1297.51 1550.12 Q1290.41 1550.12 1287.68 1551.75 Q1284.94 1553.37 1284.94 1557.29 Q1284.94 1560.4 1286.98 1562.25 Q1289.04 1564.07 1292.58 1564.07 Q1297.45 1564.07 1300.38 1560.63 Q1303.34 1557.16 1303.34 1551.43 L1303.34 1550.12 L1297.51 1550.12 M1309.19 1547.71 L1309.19 1568.04 L1303.34 1568.04 L1303.34 1562.63 Q1301.33 1565.88 1298.34 1567.44 Q1295.35 1568.97 1291.02 1568.97 Q1285.54 1568.97 1282.3 1565.91 Q1279.08 1562.82 1279.08 1557.67 Q1279.08 1551.65 1283.09 1548.6 Q1287.14 1545.54 1295.12 1545.54 L1303.34 1545.54 L1303.34 1544.97 Q1303.34 1540.93 1300.66 1538.73 Q1298.02 1536.5 1293.21 1536.5 Q1290.16 1536.5 1287.26 1537.23 Q1284.37 1537.97 1281.69 1539.43 L1281.69 1534.02 Q1284.91 1532.78 1287.93 1532.17 Q1290.95 1531.54 1293.82 1531.54 Q1301.55 1531.54 1305.37 1535.55 Q1309.19 1539.56 1309.19 1547.71 Z" fill="#000000" fill-rule="nonzero" fill-opacity="1" /><path clip-path="url(#clip520)" d="M1327.05 1522.27 L1327.05 1532.4 L1339.11 1532.4 L1339.11 1536.95 L1327.05 1536.95 L1327.05 1556.3 Q1327.05 1560.66 1328.23 1561.9 Q1329.44 1563.14 1333.1 1563.14 L1339.11 1563.14 L1339.11 1568.04 L1333.1 1568.04 Q1326.32 1568.04 1323.74 1565.53 Q1321.16 1562.98 1321.16 1556.3 L1321.16 1536.95 L1316.86 1536.95 L1316.86 1532.4 L1321.16 1532.4 L1321.16 1522.27 L1327.05 1522.27 Z" fill="#000000" fill-rule="nonzero" fill-opacity="1" /><path clip-path="url(#clip520)" d="M1346.81 1532.4 L1352.67 1532.4 L1352.67 1568.04 L1346.81 1568.04 L1346.81 1532.4 M1346.81 1518.52 L1352.67 1518.52 L1352.67 1525.93 L1346.81 1525.93 L1346.81 1518.52 Z" fill="#000000" fill-rule="nonzero" fill-opacity="1" /><path clip-path="url(#clip520)" d="M1378.74 1536.5 Q1374.03 1536.5 1371.29 1540.19 Q1368.55 1543.85 1368.55 1550.25 Q1368.55 1556.65 1371.26 1560.34 Q1374 1564 1378.74 1564 Q1383.42 1564 1386.15 1560.31 Q1388.89 1556.62 1388.89 1550.25 Q1388.89 1543.92 1386.15 1540.23 Q1383.42 1536.5 1378.74 1536.5 M1378.74 1531.54 Q1386.38 1531.54 1390.74 1536.5 Q1395.1 1541.47 1395.1 1550.25 Q1395.1 1559 1390.74 1564 Q1386.38 1568.97 1378.74 1568.97 Q1371.07 1568.97 1366.71 1564 Q1362.38 1559 1362.38 1550.25 Q1362.38 1541.47 1366.71 1536.5 Q1371.07 1531.54 1378.74 1531.54 Z" fill="#000000" fill-rule="nonzero" fill-opacity="1" /><path clip-path="url(#clip520)" d="M1434.44 1546.53 L1434.44 1568.04 L1428.58 1568.04 L1428.58 1546.72 Q1428.58 1541.66 1426.61 1539.14 Q1424.63 1536.63 1420.69 1536.63 Q1415.95 1536.63 1413.21 1539.65 Q1410.47 1542.68 1410.47 1547.9 L1410.47 1568.04 L1404.58 1568.04 L1404.58 1532.4 L1410.47 1532.4 L1410.47 1537.93 Q1412.57 1534.72 1415.4 1533.13 Q1418.27 1531.54 1421.99 1531.54 Q1428.14 1531.54 1431.29 1535.36 Q1434.44 1539.14 1434.44 1546.53 Z" fill="#000000" fill-rule="nonzero" fill-opacity="1" /><polyline clip-path="url(#clip520)" style="stroke:#000000; stroke-linecap:round; stroke-linejoin:round; stroke-width:4; stroke-opacity:1; fill:none" points="251.56,1423.18 251.56,47.2441 "/>
<polyline clip-path="url(#clip520)" style="stroke:#000000; stroke-linecap:round; stroke-linejoin:round; stroke-width:4; stroke-opacity:1; fill:none" points="251.56,1117.39 270.458,1117.39 "/>
<polyline clip-path="url(#clip520)" style="stroke:#000000; stroke-linecap:round; stroke-linejoin:round; stroke-width:4; stroke-opacity:1; fill:none" points="251.56,228.246 270.458,228.246 "/>
<path clip-path="url(#clip520)" d="M114.931 1137.18 L122.57 1137.18 L122.57 1110.81 L114.26 1112.48 L114.26 1108.22 L122.524 1106.56 L127.2 1106.56 L127.2 1137.18 L134.839 1137.18 L134.839 1141.12 L114.931 1141.12 L114.931 1137.18 Z" fill="#000000" fill-rule="nonzero" fill-opacity="1" /><path clip-path="url(#clip520)" d="M154.283 1109.63 Q150.672 1109.63 148.843 1113.2 Q147.038 1116.74 147.038 1123.87 Q147.038 1130.98 148.843 1134.54 Q150.672 1138.08 154.283 1138.08 Q157.917 1138.08 159.723 1134.54 Q161.552 1130.98 161.552 1123.87 Q161.552 1116.74 159.723 1113.2 Q157.917 1109.63 154.283 1109.63 M154.283 1105.93 Q160.093 1105.93 163.149 1110.54 Q166.227 1115.12 166.227 1123.87 Q166.227 1132.6 163.149 1137.2 Q160.093 1141.79 154.283 1141.79 Q148.473 1141.79 145.394 1137.2 Q142.339 1132.6 142.339 1123.87 Q142.339 1115.12 145.394 1110.54 Q148.473 1105.93 154.283 1105.93 Z" fill="#000000" fill-rule="nonzero" fill-opacity="1" /><path clip-path="url(#clip520)" d="M166.227 1100.03 L190.339 1100.03 L190.339 1103.23 L166.227 1103.23 L166.227 1100.03 Z" fill="#000000" fill-rule="nonzero" fill-opacity="1" /><path clip-path="url(#clip520)" d="M198.577 1085.63 L213.491 1085.63 L213.491 1088.82 L202.056 1088.82 L202.056 1095.71 Q202.884 1095.42 203.711 1095.29 Q204.539 1095.14 205.366 1095.14 Q210.068 1095.14 212.814 1097.72 Q215.56 1100.3 215.56 1104.7 Q215.56 1109.23 212.739 1111.75 Q209.918 1114.25 204.783 1114.25 Q203.015 1114.25 201.172 1113.95 Q199.348 1113.65 197.392 1113.05 L197.392 1109.23 Q199.085 1110.15 200.89 1110.6 Q202.696 1111.05 204.708 1111.05 Q207.962 1111.05 209.861 1109.34 Q211.761 1107.63 211.761 1104.7 Q211.761 1101.76 209.861 1100.05 Q207.962 1098.34 204.708 1098.34 Q203.185 1098.34 201.661 1098.68 Q200.157 1099.02 198.577 1099.73 L198.577 1085.63 Z" fill="#000000" fill-rule="nonzero" fill-opacity="1" /><path clip-path="url(#clip520)" d="M144.855 248.038 L152.493 248.038 L152.493 221.672 L144.183 223.339 L144.183 219.08 L152.447 217.413 L157.123 217.413 L157.123 248.038 L164.762 248.038 L164.762 251.973 L144.855 251.973 L144.855 248.038 Z" fill="#000000" fill-rule="nonzero" fill-opacity="1" /><path clip-path="url(#clip520)" d="M184.206 220.492 Q180.595 220.492 178.766 224.057 Q176.961 227.598 176.961 234.728 Q176.961 241.834 178.766 245.399 Q180.595 248.941 184.206 248.941 Q187.84 248.941 189.646 245.399 Q191.475 241.834 191.475 234.728 Q191.475 227.598 189.646 224.057 Q187.84 220.492 184.206 220.492 M184.206 216.788 Q190.016 216.788 193.072 221.395 Q196.151 225.978 196.151 234.728 Q196.151 243.455 193.072 248.061 Q190.016 252.644 184.206 252.644 Q178.396 252.644 175.317 248.061 Q172.262 243.455 172.262 234.728 Q172.262 225.978 175.317 221.395 Q178.396 216.788 184.206 216.788 Z" fill="#000000" fill-rule="nonzero" fill-opacity="1" /><path clip-path="url(#clip520)" d="M205.855 198.984 Q202.921 198.984 201.436 201.881 Q199.969 204.758 199.969 210.551 Q199.969 216.325 201.436 219.221 Q202.921 222.099 205.855 222.099 Q208.808 222.099 210.275 219.221 Q211.761 216.325 211.761 210.551 Q211.761 204.758 210.275 201.881 Q208.808 198.984 205.855 198.984 M205.855 195.975 Q210.576 195.975 213.059 199.718 Q215.56 203.442 215.56 210.551 Q215.56 217.641 213.059 221.384 Q210.576 225.108 205.855 225.108 Q201.135 225.108 198.633 221.384 Q196.151 217.641 196.151 210.551 Q196.151 203.442 198.633 199.718 Q201.135 195.975 205.855 195.975 Z" fill="#000000" fill-rule="nonzero" fill-opacity="1" /><path clip-path="url(#clip520)" d="M33.7671 1042.8 L14.479 1042.8 L14.479 1036.95 L64.0042 1036.95 L64.0042 1042.8 L58.657 1042.8 Q61.8398 1044.65 63.3994 1047.48 Q64.9272 1050.28 64.9272 1054.23 Q64.9272 1060.69 59.771 1064.76 Q54.6147 1068.81 46.212 1068.81 Q37.8093 1068.81 32.6531 1064.76 Q27.4968 1060.69 27.4968 1054.23 Q27.4968 1050.28 29.0564 1047.48 Q30.5842 1044.65 33.7671 1042.8 M46.212 1062.76 Q52.6732 1062.76 56.3653 1060.12 Q60.0256 1057.44 60.0256 1052.8 Q60.0256 1048.15 56.3653 1045.48 Q52.6732 1042.8 46.212 1042.8 Q39.7508 1042.8 36.0905 1045.48 Q32.3984 1048.15 32.3984 1052.8 Q32.3984 1057.44 36.0905 1060.12 Q39.7508 1062.76 46.212 1062.76 Z" fill="#000000" fill-rule="nonzero" fill-opacity="1" /><path clip-path="url(#clip520)" d="M28.3562 1024.88 L28.3562 1019.03 L64.0042 1019.03 L64.0042 1024.88 L28.3562 1024.88 M14.479 1024.88 L14.479 1019.03 L21.895 1019.03 L21.895 1024.88 L14.479 1024.88 Z" fill="#000000" fill-rule="nonzero" fill-opacity="1" /><path clip-path="url(#clip520)" d="M29.4065 984.047 L34.9447 984.047 Q33.6716 986.53 33.035 989.204 Q32.3984 991.877 32.3984 994.742 Q32.3984 999.102 33.7352 1001.3 Q35.072 1003.46 37.7456 1003.46 Q39.7826 1003.46 40.9603 1001.9 Q42.1061 1000.34 43.1565 995.633 L43.6021 993.628 Q44.9389 987.389 47.3897 984.779 Q49.8086 982.138 54.1691 982.138 Q59.1344 982.138 62.0308 986.084 Q64.9272 989.999 64.9272 996.874 Q64.9272 999.739 64.3543 1002.86 Q63.8132 1005.95 62.6992 1009.38 L56.6518 1009.38 Q58.3387 1006.14 59.198 1002.99 Q60.0256 999.834 60.0256 996.747 Q60.0256 992.609 58.6251 990.381 Q57.1929 988.153 54.6147 988.153 Q52.2276 988.153 50.9545 989.777 Q49.6813 991.368 48.5037 996.811 L48.0262 998.848 Q46.8804 1004.29 44.5251 1006.71 Q42.138 1009.13 38.0002 1009.13 Q32.9713 1009.13 30.2341 1005.56 Q27.4968 1002 27.4968 995.442 Q27.4968 992.196 27.9743 989.331 Q28.4517 986.466 29.4065 984.047 Z" fill="#000000" fill-rule="nonzero" fill-opacity="1" /><path clip-path="url(#clip520)" d="M18.2347 967.019 L28.3562 967.019 L28.3562 954.956 L32.9077 954.956 L32.9077 967.019 L52.2594 967.019 Q56.6199 967.019 57.8613 965.842 Q59.1026 964.632 59.1026 960.972 L59.1026 954.956 L64.0042 954.956 L64.0042 960.972 Q64.0042 967.751 61.4897 970.329 Q58.9434 972.907 52.2594 972.907 L32.9077 972.907 L32.9077 977.204 L28.3562 977.204 L28.3562 972.907 L18.2347 972.907 L18.2347 967.019 Z" fill="#000000" fill-rule="nonzero" fill-opacity="1" /><path clip-path="url(#clip520)" d="M46.0847 931.053 Q46.0847 938.151 47.7079 940.888 Q49.3312 943.625 53.2461 943.625 Q56.3653 943.625 58.2114 941.588 Q60.0256 939.519 60.0256 935.986 Q60.0256 931.117 56.5881 928.188 Q53.1188 925.228 47.3897 925.228 L46.0847 925.228 L46.0847 931.053 M43.6657 919.372 L64.0042 919.372 L64.0042 925.228 L58.5933 925.228 Q61.8398 927.234 63.3994 930.225 Q64.9272 933.217 64.9272 937.546 Q64.9272 943.02 61.8716 946.267 Q58.7843 949.482 53.6281 949.482 Q47.6125 949.482 44.5569 945.471 Q41.5014 941.429 41.5014 933.44 L41.5014 925.228 L40.9285 925.228 Q36.8862 925.228 34.6901 927.902 Q32.4621 930.544 32.4621 935.35 Q32.4621 938.405 33.1941 941.302 Q33.9262 944.198 35.3903 946.872 L29.9795 946.872 Q28.7381 943.657 28.1334 940.633 Q27.4968 937.61 27.4968 934.745 Q27.4968 927.011 31.5072 923.191 Q35.5176 919.372 43.6657 919.372 Z" fill="#000000" fill-rule="nonzero" fill-opacity="1" /><path clip-path="url(#clip520)" d="M42.4881 877.676 L64.0042 877.676 L64.0042 883.533 L42.679 883.533 Q37.6183 883.533 35.1038 885.506 Q32.5894 887.48 32.5894 891.426 Q32.5894 896.169 35.6131 898.906 Q38.6368 901.643 43.8567 901.643 L64.0042 901.643 L64.0042 907.532 L28.3562 907.532 L28.3562 901.643 L33.8944 901.643 Q30.6797 899.543 29.0883 896.71 Q27.4968 893.845 27.4968 890.121 Q27.4968 883.979 31.3163 880.828 Q35.1038 877.676 42.4881 877.676 Z" fill="#000000" fill-rule="nonzero" fill-opacity="1" /><path clip-path="url(#clip520)" d="M29.7248 840.342 L35.1993 840.342 Q33.8307 842.824 33.1623 845.339 Q32.4621 847.821 32.4621 850.368 Q32.4621 856.065 36.0905 859.216 Q39.6872 862.367 46.212 862.367 Q52.7369 862.367 56.3653 859.216 Q59.9619 856.065 59.9619 850.368 Q59.9619 847.821 59.2935 845.339 Q58.5933 842.824 57.2247 840.342 L62.6355 840.342 Q63.7814 842.792 64.3543 845.434 Q64.9272 848.044 64.9272 851.004 Q64.9272 859.057 59.8664 863.799 Q54.8057 868.542 46.212 868.542 Q37.491 868.542 32.4939 863.767 Q27.4968 858.961 27.4968 850.622 Q27.4968 847.917 28.0697 845.339 Q28.6108 842.761 29.7248 840.342 Z" fill="#000000" fill-rule="nonzero" fill-opacity="1" /><path clip-path="url(#clip520)" d="M44.7161 799.665 L47.5806 799.665 L47.5806 826.592 Q53.6281 826.21 56.8109 822.963 Q59.9619 819.685 59.9619 813.86 Q59.9619 810.486 59.1344 807.335 Q58.3069 804.153 56.6518 801.033 L62.1899 801.033 Q63.5267 804.184 64.227 807.495 Q64.9272 810.805 64.9272 814.21 Q64.9272 822.74 59.9619 827.738 Q54.9967 832.703 46.5303 832.703 Q37.7774 832.703 32.6531 827.992 Q27.4968 823.25 27.4968 815.229 Q27.4968 808.036 32.1438 803.866 Q36.7589 799.665 44.7161 799.665 M42.9973 805.521 Q38.1912 805.585 35.3266 808.227 Q32.4621 810.837 32.4621 815.165 Q32.4621 820.067 35.2312 823.027 Q38.0002 825.955 43.0292 826.401 L42.9973 805.521 Z" fill="#000000" fill-rule="nonzero" fill-opacity="1" /><path clip-path="url(#clip520)" d="M18.2347 763.539 L28.3562 763.539 L28.3562 751.476 L32.9077 751.476 L32.9077 763.539 L52.2594 763.539 Q56.6199 763.539 57.8613 762.362 Q59.1026 761.152 59.1026 757.492 L59.1026 751.476 L64.0042 751.476 L64.0042 757.492 Q64.0042 764.271 61.4897 766.85 Q58.9434 769.428 52.2594 769.428 L32.9077 769.428 L32.9077 773.724 L28.3562 773.724 L28.3562 769.428 L18.2347 769.428 L18.2347 763.539 Z" fill="#000000" fill-rule="nonzero" fill-opacity="1" /><path clip-path="url(#clip520)" d="M32.4621 729.96 Q32.4621 734.671 36.1542 737.408 Q39.8145 740.145 46.212 740.145 Q52.6095 740.145 56.3017 737.44 Q59.9619 734.703 59.9619 729.96 Q59.9619 725.281 56.2698 722.544 Q52.5777 719.807 46.212 719.807 Q39.8781 719.807 36.186 722.544 Q32.4621 725.281 32.4621 729.96 M27.4968 729.96 Q27.4968 722.321 32.4621 717.961 Q37.4273 713.6 46.212 713.6 Q54.9649 713.6 59.9619 717.961 Q64.9272 722.321 64.9272 729.96 Q64.9272 737.631 59.9619 741.991 Q54.9649 746.32 46.212 746.32 Q37.4273 746.32 32.4621 741.991 Q27.4968 737.631 27.4968 729.96 Z" fill="#000000" fill-rule="nonzero" fill-opacity="1" /><path clip-path="url(#clip520)" d="M32.4621 669.359 Q32.4621 674.069 36.1542 676.807 Q39.8145 679.544 46.212 679.544 Q52.6095 679.544 56.3017 676.838 Q59.9619 674.101 59.9619 669.359 Q59.9619 664.68 56.2698 661.943 Q52.5777 659.205 46.212 659.205 Q39.8781 659.205 36.186 661.943 Q32.4621 664.68 32.4621 669.359 M27.4968 669.359 Q27.4968 661.72 32.4621 657.359 Q37.4273 652.999 46.212 652.999 Q54.9649 652.999 59.9619 657.359 Q64.9272 661.72 64.9272 669.359 Q64.9272 677.029 59.9619 681.39 Q54.9649 685.719 46.212 685.719 Q37.4273 685.719 32.4621 681.39 Q27.4968 677.029 27.4968 669.359 Z" fill="#000000" fill-rule="nonzero" fill-opacity="1" /><path clip-path="url(#clip520)" d="M58.657 637.626 L77.5631 637.626 L77.5631 643.514 L28.3562 643.514 L28.3562 637.626 L33.7671 637.626 Q30.5842 635.78 29.0564 632.979 Q27.4968 630.146 27.4968 626.231 Q27.4968 619.738 32.6531 615.696 Q37.8093 611.622 46.212 611.622 Q54.6147 611.622 59.771 615.696 Q64.9272 619.738 64.9272 626.231 Q64.9272 630.146 63.3994 632.979 Q61.8398 635.78 58.657 637.626 M46.212 617.701 Q39.7508 617.701 36.0905 620.375 Q32.3984 623.016 32.3984 627.663 Q32.3984 632.31 36.0905 634.984 Q39.7508 637.626 46.212 637.626 Q52.6732 637.626 56.3653 634.984 Q60.0256 632.31 60.0256 627.663 Q60.0256 623.016 56.3653 620.375 Q52.6732 617.701 46.212 617.701 Z" fill="#000000" fill-rule="nonzero" fill-opacity="1" /><path clip-path="url(#clip520)" d="M18.2347 596.121 L28.3562 596.121 L28.3562 584.058 L32.9077 584.058 L32.9077 596.121 L52.2594 596.121 Q56.6199 596.121 57.8613 594.944 Q59.1026 593.734 59.1026 590.074 L59.1026 584.058 L64.0042 584.058 L64.0042 590.074 Q64.0042 596.853 61.4897 599.431 Q58.9434 602.01 52.2594 602.01 L32.9077 602.01 L32.9077 606.306 L28.3562 606.306 L28.3562 602.01 L18.2347 602.01 L18.2347 596.121 Z" fill="#000000" fill-rule="nonzero" fill-opacity="1" /><path clip-path="url(#clip520)" d="M28.3562 576.356 L28.3562 570.499 L64.0042 570.499 L64.0042 576.356 L28.3562 576.356 M14.479 576.356 L14.479 570.499 L21.895 570.499 L21.895 576.356 L14.479 576.356 Z" fill="#000000" fill-rule="nonzero" fill-opacity="1" /><path clip-path="url(#clip520)" d="M35.1993 530.491 Q31.2526 528.295 29.3747 525.239 Q27.4968 522.184 27.4968 518.046 Q27.4968 512.476 31.4117 509.452 Q35.2948 506.428 42.4881 506.428 L64.0042 506.428 L64.0042 512.317 L42.679 512.317 Q37.5546 512.317 35.072 514.131 Q32.5894 515.945 32.5894 519.669 Q32.5894 524.221 35.6131 526.862 Q38.6368 529.504 43.8567 529.504 L64.0042 529.504 L64.0042 535.392 L42.679 535.392 Q37.5228 535.392 35.072 537.207 Q32.5894 539.021 32.5894 542.808 Q32.5894 547.296 35.6449 549.938 Q38.6686 552.58 43.8567 552.58 L64.0042 552.58 L64.0042 558.468 L28.3562 558.468 L28.3562 552.58 L33.8944 552.58 Q30.616 550.575 29.0564 547.774 Q27.4968 544.973 27.4968 541.122 Q27.4968 537.238 29.4702 534.533 Q31.4436 531.796 35.1993 530.491 Z" fill="#000000" fill-rule="nonzero" fill-opacity="1" /><path clip-path="url(#clip520)" d="M49.9359 495.352 L28.3562 495.352 L28.3562 489.496 L49.7131 489.496 Q54.7739 489.496 57.3202 487.522 Q59.8346 485.549 59.8346 481.602 Q59.8346 476.86 56.8109 474.123 Q53.7872 471.353 48.5673 471.353 L28.3562 471.353 L28.3562 465.497 L64.0042 465.497 L64.0042 471.353 L58.5296 471.353 Q61.7762 473.486 63.3676 476.319 Q64.9272 479.12 64.9272 482.844 Q64.9272 488.986 61.1078 492.169 Q57.2883 495.352 49.9359 495.352 M27.4968 480.616 L27.4968 480.616 Z" fill="#000000" fill-rule="nonzero" fill-opacity="1" /><path clip-path="url(#clip520)" d="M35.1993 425.679 Q31.2526 423.483 29.3747 420.428 Q27.4968 417.372 27.4968 413.235 Q27.4968 407.665 31.4117 404.641 Q35.2948 401.617 42.4881 401.617 L64.0042 401.617 L64.0042 407.505 L42.679 407.505 Q37.5546 407.505 35.072 409.32 Q32.5894 411.134 32.5894 414.858 Q32.5894 419.409 35.6131 422.051 Q38.6368 424.693 43.8567 424.693 L64.0042 424.693 L64.0042 430.581 L42.679 430.581 Q37.5228 430.581 35.072 432.395 Q32.5894 434.21 32.5894 437.997 Q32.5894 442.485 35.6449 445.127 Q38.6686 447.768 43.8567 447.768 L64.0042 447.768 L64.0042 453.657 L28.3562 453.657 L28.3562 447.768 L33.8944 447.768 Q30.616 445.763 29.0564 442.962 Q27.4968 440.161 27.4968 436.31 Q27.4968 432.427 29.4702 429.722 Q31.4436 426.984 35.1993 425.679 Z" fill="#000000" fill-rule="nonzero" fill-opacity="1" /><polyline clip-path="url(#clip522)" style="stroke:#009af9; stroke-linecap:round; stroke-linejoin:round; stroke-width:4; stroke-opacity:1; fill:none" points="311.028,86.1857 313.012,86.5599 314.997,86.9294 316.981,87.2966 318.965,87.6603 320.949,88.0179 322.934,88.3751 324.918,88.7332 326.902,89.087 328.886,89.443 330.87,89.8025 332.855,90.1629 334.839,90.5256 336.823,90.8913 338.807,91.2573 340.792,91.6262 342.776,91.9983 344.76,92.3745 346.744,92.7469 348.729,93.1157 350.713,93.4867 352.697,93.8705 354.681,94.2589 356.666,94.6458 358.65,95.0309 360.634,95.4225 362.618,95.8084 364.603,96.1947 366.587,96.5858 368.571,96.965 370.555,97.3437 372.54,97.717 374.524,98.0985 376.508,98.4835 378.492,98.879 380.477,99.2801 382.461,99.6745 384.445,100.074 386.429,100.465 388.414,100.838 390.398,101.22 392.382,101.608 394.366,101.991 396.351,102.378 398.335,102.754 400.319,103.125 402.303,103.502 404.288,103.875 406.272,104.252 408.256,104.641 410.24,105.042 412.225,105.441 414.209,105.85 416.193,106.27 418.177,106.682 420.161,107.083 422.146,107.502 424.13,107.929 426.114,108.372 428.098,108.809 430.083,109.255 432.067,109.691 434.051,110.136 436.035,110.565 438.02,110.993 440.004,111.416 441.988,111.839 443.972,112.254 445.957,112.663 447.941,113.068 449.925,113.483 451.909,113.898 453.894,114.321 455.878,114.744 457.862,115.175 459.846,115.605 461.831,116.031 463.815,116.455 465.799,116.867 467.783,117.282 469.768,117.705 471.752,118.117 473.736,118.543 475.72,118.978 477.705,119.41 479.689,119.836 481.673,120.273 483.657,120.709 485.642,121.15 487.626,121.602 489.61,122.046 491.594,122.498 493.579,122.959 495.563,123.409 497.547,123.864 499.531,124.321 501.516,124.76 503.5,125.198 505.484,125.636 507.468,126.069 509.452,126.502 511.437,126.935 513.421,127.379 515.405,127.828 517.389,128.269 519.374,128.709 521.358,129.157 523.342,129.599 525.326,130.051 527.311,130.5 529.295,130.961 531.279,131.415 533.263,131.863 535.248,132.312 537.232,132.778 539.216,133.228 541.2,133.667 543.185,134.107 545.169,134.559 547.153,135.042 549.137,135.53 551.122,136.037 553.106,136.524 555.09,136.998 557.074,137.459 559.059,137.93 561.043,138.384 563.027,138.825 565.011,139.265 566.996,139.713 568.98,140.153 570.964,140.62 572.948,141.089 574.933,141.556 576.917,142.014 578.901,142.46 580.885,142.924 582.87,143.371 584.854,143.809 586.838,144.239 588.822,144.668 590.806,145.087 592.791,145.51 594.775,145.924 596.759,146.325 598.743,146.714 600.728,147.095 602.712,147.474 604.696,147.858 606.68,148.228 608.665,148.599 610.649,148.994 612.633,149.418 614.617,149.83 616.602,150.241 618.586,150.694 620.57,151.177 622.554,151.644 624.539,152.123 626.523,152.613 628.507,153.107 630.491,153.586 632.476,154.069 634.46,154.555 636.444,155.03 638.428,155.509 640.413,155.998 642.397,156.466 644.381,156.934 646.365,157.386 648.35,157.818 650.334,158.252 652.318,158.671 654.302,159.095 656.287,159.527 658.271,159.967 660.255,160.392 662.239,160.861 664.224,161.364 666.208,161.864 668.192,162.365 670.176,162.849 672.161,163.32 674.145,163.794 676.129,164.306 678.113,164.813 680.097,165.317 682.082,165.789 684.066,166.264 686.05,166.749 688.034,167.227 690.019,167.721 692.003,168.173 693.987,168.64 695.971,169.124 697.956,169.575 699.94,170.023 701.924,170.464 703.908,170.939 705.893,171.437 707.877,171.917 709.861,172.394 711.845,172.907 713.83,173.416 715.814,173.907 717.798,174.416 719.782,174.912 721.767,175.403 723.751,175.863 725.735,176.309 727.719,176.771 729.704,177.152 731.688,177.557 733.672,177.945 735.656,178.357 737.641,178.775 739.625,179.156 741.609,179.593 743.593,180.04 745.578,180.493 747.562,180.952 749.546,181.424 751.53,181.889 753.515,182.365 755.499,182.803 757.483,183.269 759.467,183.739 761.452,184.19 763.436,184.624 765.42,185.092 767.404,185.575 769.388,186.04 771.373,186.493 773.357,186.896 775.341,187.272 777.325,187.63 779.31,187.973 781.294,188.311 783.278,188.679 785.262,189.104 787.247,189.523 789.231,189.939 791.215,190.359 793.199,190.847 795.184,191.341 797.168,191.858 799.152,192.438 801.136,192.997 803.121,193.587 805.105,194.144 807.089,194.685 809.073,195.177 811.058,195.648 813.042,196.128 815.026,196.616 817.01,197.128 818.995,197.751 820.979,198.377 822.963,199.005 824.947,199.649 826.932,200.298 828.916,200.986 830.9,201.631 832.884,202.205 834.869,202.779 836.853,203.351 838.837,203.891 840.821,204.5 842.806,205.118 844.79,205.734 846.774,206.269 848.758,206.87 850.743,207.433 852.727,208.004 854.711,208.572 856.695,209.121 858.679,209.609 860.664,210.068 862.648,210.456 864.632,210.932 866.616,211.371 868.601,211.846 870.585,212.326 872.569,212.878 874.553,213.52 876.538,214.117 878.522,214.772 880.506,215.411 882.49,216.052 884.475,216.728 886.459,217.369 888.443,218.042 890.427,218.764 892.412,219.471 894.396,220.172 896.38,220.946 898.364,221.706 900.349,222.39 902.333,222.994 904.317,223.534 906.301,224.02 908.286,224.436 910.27,224.882 912.254,225.398 914.238,225.854 916.223,226.24 918.207,226.568 920.191,226.914 922.175,227.286 924.16,227.655 926.144,228.035 928.128,228.447 930.112,228.86 932.097,229.252 934.081,229.774 936.065,230.176 938.049,230.695 940.033,231.25 942.018,231.842 944.002,232.564 945.986,233.238 947.97,233.86 949.955,234.419 951.939,234.946 953.923,235.492 955.907,235.988 957.892,236.517 959.876,237.073 961.86,237.709 963.844,238.476 965.829,239.292 967.813,240.27 969.797,241.166 971.781,242.032 973.766,242.901 975.75,243.71 977.734,244.456 979.718,245.159 981.703,245.834 983.687,246.497 985.671,247.076 987.655,247.715 989.64,248.354 991.624,248.992 993.608,249.525 995.592,250.057 997.577,250.583 999.561,251.155 1001.55,251.702 1003.53,252.276 1005.51,252.802 1007.5,253.282 1009.48,253.825 1011.47,254.321 1013.45,254.874 1015.43,255.435 1017.42,255.989 1019.4,256.553 1021.39,257.143 1023.37,257.745 1025.36,258.325 1027.34,258.985 1029.32,259.622 1031.31,260.243 1033.29,261.114 1035.28,261.958 1037.26,262.625 1039.25,263.186 1041.23,263.707 1043.21,264.239 1045.2,264.613 1047.18,265.114 1049.17,265.623 1051.15,266.124 1053.14,266.69 1055.12,267.313 1057.1,268.023 1059.09,268.588 1061.07,269.096 1063.06,269.579 1065.04,270.033 1067.03,270.533 1069.01,270.956 1070.99,271.422 1072.98,271.917 1074.96,272.389 1076.95,272.759 1078.93,273.069 1080.91,273.339 1082.9,273.64 1084.88,273.915 1086.87,273.979 1088.85,274.157 1090.84,274.281 1092.82,274.393 1094.8,274.435 1096.79,274.468 1098.77,274.57 1100.76,274.729 1102.74,274.982 1104.73,275.124 1106.71,275.113 1108.69,274.977 1110.68,274.81 1112.66,274.657 1114.65,274.646 1116.63,274.659 1118.62,274.721 1120.6,274.874 1122.58,275.178 1124.57,275.496 1126.55,275.853 1128.54,276.105 1130.52,276.776 1132.51,277.341 1134.49,277.747 1136.47,278.208 1138.46,278.732 1140.44,279.114 1142.43,279.477 1144.41,279.889 1146.39,280.349 1148.38,280.817 1150.36,281.345 1152.35,281.959 1154.33,282.674 1156.32,283.57 1158.3,284.49 1160.28,285.229 1162.27,285.885 1164.25,286.578 1166.24,287.196 1168.22,287.931 1170.21,288.618 1172.19,289.121 1174.17,289.705 1176.16,290.174 1178.14,290.579 1180.13,290.943 1182.11,291.25 1184.1,291.72 1186.08,292.125 1188.06,292.367 1190.05,292.561 1192.03,292.765 1194.02,293.043 1196,293.429 1197.99,293.825 1199.97,294.324 1201.95,294.722 1203.94,294.99 1205.92,295.09 1207.91,295.151 1209.89,295.048 1211.87,294.859 1213.86,294.904 1215.84,294.789 1217.83,294.649 1219.81,294.58 1221.8,294.521 1223.78,294.751 1225.76,294.906 1227.75,294.921 1229.73,294.877 1231.72,294.8 1233.7,294.636 1235.69,294.563 1237.67,294.927 1239.65,295.27 1241.64,295.843 1243.62,296.64 1245.61,297.471 1247.59,298.257 1249.58,299.025 1251.56,299.664 1253.54,300.038 1255.53,300.643 1257.51,301.329 1259.5,301.883 1261.48,302.556 1263.47,303.171 1265.45,303.928 1267.43,304.602 1269.42,304.867 1271.4,305.054 1273.39,305.225 1275.37,305.353 1277.36,305.348 1279.34,305.28 1281.32,305.476 1283.31,305.618 1285.29,305.737 1287.28,306.052 1289.26,306.325 1291.24,306.453 1293.23,306.976 1295.21,307.201 1297.2,307.34 1299.18,307.326 1301.17,307.122 1303.15,306.652 1305.13,306.285 1307.12,305.898 1309.1,305.613 1311.09,305.255 1313.07,304.886 1315.06,305.09 1317.04,305.05 1319.02,305.237 1321.01,305.31 1322.99,305.342 1324.98,305.463 1326.96,305.55 1328.95,305.525 1330.93,305.354 1332.91,305.294 1334.9,305.046 1336.88,304.854 1338.87,305.245 1340.85,305.458 1342.84,305.412 1344.82,305.406 1346.8,305.535 1348.79,305.546 1350.77,305.468 1352.76,305.55 1354.74,305.521 1356.72,305.411 1358.71,305.319 1360.69,305.359 1362.68,305.371 1364.66,305.729 1366.65,306.276 1368.63,306.632 1370.61,306.808 1372.6,306.989 1374.58,307.217 1376.57,307.572 1378.55,307.833 1380.54,307.835 1382.52,307.722 1384.5,307.46 1386.49,307.196 1388.47,306.745 1390.46,306.209 1392.44,305.953 1394.43,305.704 1396.41,305.318 1398.39,304.816 1400.38,304.344 1402.36,304.457 1404.35,304.596 1406.33,304.786 1408.32,305.052 1410.3,305.234 1412.28,305.709 1414.27,306.497 1416.25,307.25 1418.24,308.654 1420.22,310.073 1422.2,311.168 1424.19,312.079 1426.17,312.933 1428.16,313.602 1430.14,313.945 1432.13,314.384 1434.11,314.588 1436.09,315.105 1438.08,315.265 1440.06,315.74 1442.05,315.878 1444.03,315.775 1446.02,315.744 1448,315.459 1449.98,315.097 1451.97,314.687 1453.95,314.185 1455.94,313.734 1457.92,313.502 1459.91,313.461 1461.89,313.339 1463.87,313.243 1465.86,313.048 1467.84,312.724 1469.83,312.207 1471.81,311.591 1473.8,311.411 1475.78,311.739 1477.76,311.804 1479.75,311.906 1481.73,312.627 1483.72,313.203 1485.7,313.862 1487.68,314.457 1489.67,314.937 1491.65,315.769 1493.64,316.74 1495.62,317.657 1497.61,318.197 1499.59,318.526 1501.57,318.744 1503.56,318.482 1505.54,318.151 1507.53,317.629 1509.51,317.897 1511.5,317.968 1513.48,317.991 1515.46,318.509 1517.45,319.089 1519.43,319.447 1521.42,319.975 1523.4,320.67 1525.39,321.704 1527.37,323.187 1529.35,324.509 1531.34,325.498 1533.32,326.287 1535.31,327.135 1537.29,328.045 1539.28,328.976 1541.26,329.95 1543.24,330.608 1545.23,331.44 1547.21,331.992 1549.2,332.917 1551.18,333.189 1553.16,333.001 1555.15,333.089 1557.13,333.405 1559.12,334.032 1561.1,334.828 1563.09,335.353 1565.07,335.46 1567.05,335.471 1569.04,335.32 1571.02,335.055 1573.01,334.773 1574.99,334.551 1576.98,334.136 1578.96,333.796 1580.94,333.682 1582.93,333.489 1584.91,333.051 1586.9,332.662 1588.88,331.867 1590.87,331.129 1592.85,330.632 1594.83,330.279 1596.82,330.083 1598.8,330.034 1600.79,329.77 1602.77,329.407 1604.76,328.472 1606.74,327.621 1608.72,326.983 1610.71,326.368 1612.69,325.576 1614.68,324.379 1616.66,323.314 1618.65,322.548 1620.63,321.76 1622.61,321.123 1624.6,320.791 1626.58,320.544 1628.57,320.308 1630.55,319.842 1632.53,319.497 1634.52,319.268 1636.5,319.471 1638.49,319.38 1640.47,319.198 1642.46,319.049 1644.44,318.617 1646.42,317.998 1648.41,317.339 1650.39,316.725 1652.38,316.326 1654.36,316.262 1656.35,316.313 1658.33,316.293 1660.31,316.713 1662.3,317.166 1664.28,317.346 1666.27,317.555 1668.25,317.582 1670.24,317.643 1672.22,317.898 1674.2,318.078 1676.19,318.473 1678.17,318.961 1680.16,319.575 1682.14,320.013 1684.13,320.293 1686.11,320.569 1688.09,320.828 1690.08,320.821 1692.06,320.796 1694.05,320.865 1696.03,320.828 1698.01,320.587 1700,320.918 1701.98,321.342 1703.97,322.58 1705.95,323.347 1707.94,323.871 1709.92,324.207 1711.9,324.795 1713.89,325.159 1715.87,325.017 1717.86,324.883 1719.84,324.771 1721.83,324.441 1723.81,323.993 1725.79,323.426 1727.78,323.255 1729.76,323.003 1731.75,323.01 1733.73,323 1735.72,322.57 1737.7,321.971 1739.68,321.275 1741.67,320.324 1743.65,319.018 1745.64,317.855 1747.62,316.785 1749.61,315.906 1751.59,315.29 1753.57,314.722 1755.56,314.365 1757.54,314.014 1759.53,314.032 1761.51,314.166 1763.49,314.369 1765.48,314.775 1767.46,315.202 1769.45,315.691 1771.43,316.237 1773.42,316.86 1775.4,317.551 1777.38,318.3 1779.37,318.665 1781.35,318.82 1783.34,318.987 1785.32,319.068 1787.31,319.188 1789.29,319.357 1791.27,319.11 1793.26,318.721 1795.24,318.263 1797.23,317.444 1799.21,316.868 1801.2,316.414 1803.18,316.081 1805.16,314.855 1807.15,313.961 1809.13,313.393 1811.12,313.013 1813.1,312.777 1815.09,312.525 1817.07,312.349 1819.05,312.185 1821.04,312.29 1823.02,312.69 1825.01,313.364 1826.99,314.143 1828.97,314.884 1830.96,315.768 1832.94,316.714 1834.93,317.798 1836.91,319.008 1838.9,320.362 1840.88,321.731 1842.86,322.901 1844.85,323.895 1846.83,324.994 1848.82,325.396 1850.8,326.032 1852.79,326.469 1854.77,326.86 1856.75,327.185 1858.74,327.538 1860.72,327.966 1862.71,328.445 1864.69,328.727 1866.68,328.849 1868.66,329.176 1870.64,328.903 1872.63,328.996 1874.61,329.284 1876.6,329.474 1878.58,329.973 1880.57,330.208 1882.55,329.782 1884.53,329.764 1886.52,330.165 1888.5,330.386 1890.49,330.847 1892.47,331.584 1894.46,332.206 1896.44,332.589 1898.42,333.133 1900.41,333.827 1902.39,334.842 1904.38,335.825 1906.36,336.756 1908.34,337.304 1910.33,337.891 1912.31,338.679 1914.3,339.347 1916.28,339.826 1918.27,340.267 1920.25,340.374 1922.23,340.483 1924.22,340.594 1926.2,340.773 1928.19,340.822 1930.17,340.814 1932.16,340.85 1934.14,341.096 1936.12,341.33 1938.11,341.144 1940.09,340.841 1942.08,339.857 1944.06,338.999 1946.05,338.155 1948.03,337.796 1950.01,336.891 1952,335.937 1953.98,334.962 1955.97,334.001 1957.95,333.547 1959.94,332.923 1961.92,332.242 1963.9,331.98 1965.89,331.983 1967.87,331.887 1969.86,331.762 1971.84,331.809 1973.82,331.538 1975.81,331.41 1977.79,330.87 1979.78,330.268 1981.76,329.659 1983.75,329.375 1985.73,329.183 1987.71,329.141 1989.7,329.269 1991.68,329.383 1993.67,329.42 1995.65,329.518 1997.64,329.742 1999.62,330.083 2001.6,330.478 2003.59,330.776 2005.57,330.96 2007.56,331.52 2009.54,331.778 2011.53,331.825 2013.51,331.476 2015.49,331.369 2017.48,331.169 2019.46,331.216 2021.45,331.29 2023.43,331.73 2025.42,331.953 2027.4,332.396 2029.38,332.967 2031.37,333.418 2033.35,333.712 2035.34,333.881 2037.32,333.953 2039.3,334.069 2041.29,334.133 2043.27,334.023 2045.26,333.307 2047.24,332.7 2049.23,331.99 2051.21,331.647 2053.19,331.328 2055.18,331.282 2057.16,331.247 2059.15,331.074 2061.13,331.105 2063.12,331.142 2065.1,331.04 2067.08,330.766 2069.07,330.578 2071.05,330.306 2073.04,330.132 2075.02,329.539 2077.01,329.273 2078.99,328.872 2080.97,328.331 2082.96,328.014 2084.94,328.119 2086.93,328.026 2088.91,328.647 2090.9,329.282 2092.88,329.959 2094.86,330.681 2096.85,331.627 2098.83,332.489 2100.82,333.464 2102.8,334.077 2104.78,334.773 2106.77,335.64 2108.75,336.681 2110.74,337.78 2112.72,338.54 2114.71,339.675 2116.69,340.366 2118.67,341.035 2120.66,342.033 2122.64,342.985 2124.63,343.45 2126.61,343.603 2128.6,343.734 2130.58,343.861 2132.56,343.667 2134.55,343.139 2136.53,342.429 2138.52,341.439 2140.5,340.661 2142.49,341.063 2144.47,341.708 2146.45,342.044 2148.44,342.434 2150.42,342.758 2152.41,342.788 2154.39,342.572 2156.38,342.718 2158.36,343.113 2160.34,343.25 2162.33,343.146 2164.31,343.562 2166.3,343.615 2168.28,343.161 2170.26,343.584 2172.25,343.928 2174.23,344.129 2176.22,343.45 2178.2,342.997 2180.19,342.719 2182.17,342.391 2184.15,341.956 2186.14,341.034 2188.12,340.247 2190.11,339.789 2192.09,339.451 2194.08,339.229 2196.06,338.81 2198.04,338.246 2200.03,337.719 2202.01,336.993 2204,336.22 2205.98,335.2 2207.97,334.925 2209.95,334.499 2211.93,333.935 2213.92,333.334 2215.9,332.704 2217.89,332.252 2219.87,331.554 2221.86,330.407 2223.84,329.192 2225.82,328.093 2227.81,327.272 2229.79,326.257 2231.78,325.355 2233.76,324.24 2235.75,323.234 2237.73,322.391 2239.71,321.659 2241.7,320.719 2243.68,320.178 2245.67,320.138 2247.65,320.091 2249.63,320.142 2251.62,320.365 2253.6,320.33 2255.59,320.391 2257.57,320.145 2259.56,320.425 2261.54,321.142 2263.52,321.819 2265.51,322.349 2267.49,322.943 2269.48,323.503 2271.46,324.465 2273.45,325.531 2275.43,326.16 2277.41,326.535 2279.4,327.216 2281.38,327.55 2283.37,327.694 2285.35,327.442 2287.34,327.248 2289.32,326.908 2291.3,326.967 2293.29,327.052 "/>
<polyline clip-path="url(#clip522)" style="stroke:#e26f46; stroke-linecap:round; stroke-linejoin:round; stroke-width:4; stroke-opacity:1; fill:none" points="311.028,86.1857 313.012,86.5741 314.997,86.9645 316.981,87.3568 318.965,87.7505 320.949,88.1457 322.934,88.5428 324.918,88.9414 326.902,89.3412 328.886,89.7424 330.87,90.1448 332.855,90.5487 334.839,90.9547 336.823,91.3615 338.807,91.7695 340.792,92.1792 342.776,92.5901 344.76,93.0023 346.744,93.418 348.729,93.8367 350.713,94.2558 352.697,94.6754 354.681,95.0968 356.666,95.519 358.65,95.942 360.634,96.368 362.618,96.7972 364.603,97.2262 366.587,97.6564 368.571,98.0873 370.555,98.5187 372.54,98.9533 374.524,99.3891 376.508,99.8249 378.492,100.261 380.477,100.701 382.461,101.142 384.445,101.585 386.429,102.027 388.414,102.471 390.398,102.918 392.382,103.366 394.366,103.816 396.351,104.266 398.335,104.72 400.319,105.174 402.303,105.629 404.288,106.086 406.272,106.544 408.256,107.003 410.24,107.464 412.225,107.929 414.209,108.395 416.193,108.866 418.177,109.341 420.161,109.818 422.146,110.294 424.13,110.774 426.114,111.254 428.098,111.734 430.083,112.215 432.067,112.701 434.051,113.19 436.035,113.677 438.02,114.167 440.004,114.659 441.988,115.151 443.972,115.642 445.957,116.134 447.941,116.629 449.925,117.124 451.909,117.62 453.894,118.117 455.878,118.62 457.862,119.123 459.846,119.628 461.831,120.135 463.815,120.641 465.799,121.149 467.783,121.657 469.768,122.165 471.752,122.674 473.736,123.184 475.72,123.695 477.705,124.207 479.689,124.721 481.673,125.235 483.657,125.75 485.642,126.263 487.626,126.776 489.61,127.29 491.594,127.806 493.579,128.325 495.563,128.846 497.547,129.371 499.531,129.896 501.516,130.421 503.5,130.949 505.484,131.477 507.468,132.011 509.452,132.547 511.437,133.084 513.421,133.621 515.405,134.158 517.389,134.697 519.374,135.239 521.358,135.781 523.342,136.323 525.326,136.865 527.311,137.411 529.295,137.955 531.279,138.499 533.263,139.042 535.248,139.586 537.232,140.133 539.216,140.681 541.2,141.231 543.185,141.783 545.169,142.338 547.153,142.898 549.137,143.456 551.122,144.017 553.106,144.579 555.09,145.14 557.074,145.704 559.059,146.272 561.043,146.844 563.027,147.418 565.011,147.997 566.996,148.576 568.98,149.156 570.964,149.737 572.948,150.32 574.933,150.903 576.917,151.491 578.901,152.077 580.885,152.664 582.87,153.246 584.854,153.836 586.838,154.43 588.822,155.023 590.806,155.618 592.791,156.215 594.775,156.809 596.759,157.401 598.743,157.995 600.728,158.59 602.712,159.186 604.696,159.777 606.68,160.372 608.665,160.966 610.649,161.565 612.633,162.158 614.617,162.756 616.602,163.354 618.586,163.956 620.57,164.559 622.554,165.164 624.539,165.773 626.523,166.383 628.507,167 630.491,167.624 632.476,168.249 634.46,168.868 636.444,169.495 638.428,170.123 640.413,170.757 642.397,171.386 644.381,172.008 646.365,172.629 648.35,173.248 650.334,173.865 652.318,174.493 654.302,175.125 656.287,175.754 658.271,176.384 660.255,177.017 662.239,177.655 664.224,178.296 666.208,178.94 668.192,179.596 670.176,180.253 672.161,180.916 674.145,181.575 676.129,182.228 678.113,182.888 680.097,183.549 682.082,184.216 684.066,184.889 686.05,185.565 688.034,186.245 690.019,186.932 692.003,187.613 693.987,188.306 695.971,189.005 697.956,189.708 699.94,190.404 701.924,191.117 703.908,191.836 705.893,192.56 707.877,193.276 709.861,194.003 711.845,194.727 713.83,195.46 715.814,196.189 717.798,196.925 719.782,197.661 721.767,198.396 723.751,199.129 725.735,199.859 727.719,200.597 729.704,201.335 731.688,202.08 733.672,202.823 735.656,203.57 737.641,204.323 739.625,205.078 741.609,205.835 743.593,206.591 745.578,207.347 747.562,208.103 749.546,208.857 751.53,209.608 753.515,210.354 755.499,211.098 757.483,211.849 759.467,212.602 761.452,213.353 763.436,214.106 765.42,214.861 767.404,215.618 769.388,216.378 771.373,217.146 773.357,217.912 775.341,218.675 777.325,219.438 779.31,220.201 781.294,220.964 783.278,221.731 785.262,222.496 787.247,223.258 789.231,224.016 791.215,224.778 793.199,225.546 795.184,226.32 797.168,227.091 799.152,227.86 801.136,228.631 803.121,229.405 805.105,230.181 807.089,230.954 809.073,231.726 811.058,232.5 813.042,233.273 815.026,234.048 817.01,234.826 818.995,235.611 820.979,236.392 822.963,237.178 824.947,237.968 826.932,238.756 828.916,239.549 830.9,240.334 832.884,241.114 834.869,241.895 836.853,242.682 838.837,243.471 840.821,244.27 842.806,245.067 844.79,245.866 846.774,246.662 848.758,247.468 850.743,248.284 852.727,249.102 854.711,249.922 856.695,250.736 858.679,251.55 860.664,252.361 862.648,253.18 864.632,254.004 866.616,254.827 868.601,255.651 870.585,256.481 872.569,257.302 874.553,258.119 876.538,258.939 878.522,259.759 880.506,260.587 882.49,261.421 884.475,262.251 886.459,263.083 888.443,263.914 890.427,264.753 892.412,265.591 894.396,266.437 896.38,267.288 898.364,268.146 900.349,269.024 902.333,269.907 904.317,270.804 906.301,271.701 908.286,272.597 910.27,273.483 912.254,274.365 914.238,275.251 916.223,276.133 918.207,277.016 920.191,277.899 922.175,278.783 924.16,279.685 926.144,280.594 928.128,281.504 930.112,282.417 932.097,283.323 934.081,284.231 936.065,285.126 938.049,286.027 940.033,286.929 942.018,287.832 944.002,288.728 945.986,289.629 947.97,290.552 949.955,291.484 951.939,292.411 953.923,293.341 955.907,294.285 957.892,295.234 959.876,296.176 961.86,297.104 963.844,298.035 965.829,298.971 967.813,299.918 969.797,300.864 971.781,301.815 973.766,302.763 975.75,303.711 977.734,304.661 979.718,305.623 981.703,306.586 983.687,307.553 985.671,308.534 987.655,309.513 989.64,310.491 991.624,311.471 993.608,312.442 995.592,313.42 997.577,314.402 999.561,315.376 1001.55,316.353 1003.53,317.318 1005.51,318.289 1007.5,319.256 1009.48,320.224 1011.47,321.201 1013.45,322.177 1015.43,323.15 1017.42,324.126 1019.4,325.112 1021.39,326.097 1023.37,327.084 1025.36,328.071 1027.34,329.068 1029.32,330.071 1031.31,331.085 1033.29,332.097 1035.28,333.105 1037.26,334.106 1039.25,335.105 1041.23,336.103 1043.21,337.109 1045.2,338.112 1047.18,339.131 1049.17,340.158 1051.15,341.196 1053.14,342.233 1055.12,343.271 1057.1,344.302 1059.09,345.34 1061.07,346.384 1063.06,347.434 1065.04,348.483 1067.03,349.532 1069.01,350.575 1070.99,351.625 1072.98,352.676 1074.96,353.729 1076.95,354.793 1078.93,355.849 1080.91,356.899 1082.9,357.949 1084.88,359.01 1086.87,360.061 1088.85,361.119 1090.84,362.181 1092.82,363.241 1094.8,364.305 1096.79,365.369 1098.77,366.432 1100.76,367.489 1102.74,368.55 1104.73,369.61 1106.71,370.662 1108.69,371.713 1110.68,372.768 1112.66,373.834 1114.65,374.911 1116.63,375.99 1118.62,377.065 1120.6,378.139 1122.58,379.222 1124.57,380.318 1126.55,381.419 1128.54,382.517 1130.52,383.619 1132.51,384.731 1134.49,385.847 1136.47,386.965 1138.46,388.08 1140.44,389.189 1142.43,390.304 1144.41,391.414 1146.39,392.522 1148.38,393.627 1150.36,394.737 1152.35,395.848 1154.33,396.956 1156.32,398.061 1158.3,399.173 1160.28,400.275 1162.27,401.381 1164.25,402.497 1166.24,403.616 1168.22,404.729 1170.21,405.855 1172.19,406.982 1174.17,408.11 1176.16,409.233 1178.14,410.349 1180.13,411.473 1182.11,412.62 1184.1,413.768 1186.08,414.907 1188.06,416.059 1190.05,417.212 1192.03,418.349 1194.02,419.485 1196,420.629 1197.99,421.78 1199.97,422.932 1201.95,424.086 1203.94,425.248 1205.92,426.417 1207.91,427.587 1209.89,428.746 1211.87,429.903 1213.86,431.054 1215.84,432.206 1217.83,433.362 1219.81,434.523 1221.8,435.683 1223.78,436.859 1225.76,438.032 1227.75,439.204 1229.73,440.368 1231.72,441.558 1233.7,442.754 1235.69,443.96 1237.67,445.185 1239.65,446.417 1241.64,447.647 1243.62,448.875 1245.61,450.107 1247.59,451.319 1249.58,452.523 1251.56,453.733 1253.54,454.947 1255.53,456.163 1257.51,457.38 1259.5,458.61 1261.48,459.837 1263.47,461.07 1265.45,462.301 1267.43,463.532 1269.42,464.745 1271.4,465.96 1273.39,467.174 1275.37,468.428 1277.36,469.671 1279.34,470.915 1281.32,472.163 1283.31,473.411 1285.29,474.663 1287.28,475.908 1289.26,477.148 1291.24,478.398 1293.23,479.661 1295.21,480.94 1297.2,482.228 1299.18,483.516 1301.17,484.804 1303.15,486.087 1305.13,487.391 1307.12,488.684 1309.1,489.972 1311.09,491.269 1313.07,492.559 1315.06,493.856 1317.04,495.152 1319.02,496.439 1321.01,497.726 1322.99,499.012 1324.98,500.284 1326.96,501.552 1328.95,502.803 1330.93,504.062 1332.91,505.32 1334.9,506.578 1336.88,507.844 1338.87,509.099 1340.85,510.359 1342.84,511.631 1344.82,512.9 1346.8,514.163 1348.79,515.425 1350.77,516.687 1352.76,517.961 1354.74,519.241 1356.72,520.529 1358.71,521.819 1360.69,523.108 1362.68,524.394 1364.66,525.677 1366.65,526.968 1368.63,528.266 1370.61,529.561 1372.6,530.871 1374.58,532.18 1376.57,533.533 1378.55,534.883 1380.54,536.243 1382.52,537.603 1384.5,538.961 1386.49,540.302 1388.47,541.662 1390.46,543.005 1392.44,544.349 1394.43,545.702 1396.41,547.057 1398.39,548.401 1400.38,549.749 1402.36,551.1 1404.35,552.45 1406.33,553.823 1408.32,555.203 1410.3,556.563 1412.28,557.945 1414.27,559.341 1416.25,560.764 1418.24,562.175 1420.22,563.595 1422.2,565.008 1424.19,566.426 1426.17,567.827 1428.16,569.244 1430.14,570.643 1432.13,572.032 1434.11,573.421 1436.09,574.807 1438.08,576.188 1440.06,577.559 1442.05,578.962 1444.03,580.363 1446.02,581.775 1448,583.182 1449.98,584.588 1451.97,585.994 1453.95,587.389 1455.94,588.771 1457.92,590.142 1459.91,591.523 1461.89,592.9 1463.87,594.281 1465.86,595.678 1467.84,597.077 1469.83,598.521 1471.81,599.955 1473.8,601.41 1475.78,602.858 1477.76,604.326 1479.75,605.796 1481.73,607.25 1483.72,608.68 1485.7,610.114 1487.68,611.532 1489.67,612.958 1491.65,614.389 1493.64,615.835 1495.62,617.319 1497.61,618.787 1499.59,620.241 1501.57,621.714 1503.56,623.177 1505.54,624.621 1507.53,626.087 1509.51,627.567 1511.5,629.034 1513.48,630.498 1515.46,631.954 1517.45,633.406 1519.43,634.854 1521.42,636.321 1523.4,637.803 1525.39,639.263 1527.37,640.723 1529.35,642.192 1531.34,643.649 1533.32,645.095 1535.31,646.551 1537.29,648.005 1539.28,649.467 1541.26,650.929 1543.24,652.399 1545.23,653.876 1547.21,655.346 1549.2,656.805 1551.18,658.256 1553.16,659.695 1555.15,661.132 1557.13,662.565 1559.12,663.996 1561.1,665.453 1563.09,666.894 1565.07,668.319 1567.05,669.751 1569.04,671.211 1571.02,672.678 1573.01,674.178 1574.99,675.685 1576.98,677.198 1578.96,678.707 1580.94,680.234 1582.93,681.747 1584.91,683.273 1586.9,684.784 1588.88,686.283 1590.87,687.771 1592.85,689.285 1594.83,690.808 1596.82,692.341 1598.8,693.903 1600.79,695.493 1602.77,697.067 1604.76,698.642 1606.74,700.202 1608.72,701.786 1610.71,703.363 1612.69,704.947 1614.68,706.525 1616.66,708.109 1618.65,709.705 1620.63,711.343 1622.61,712.956 1624.6,714.582 1626.58,716.215 1628.57,717.854 1630.55,719.479 1632.53,721.103 1634.52,722.743 1636.5,724.356 1638.49,725.987 1640.47,727.612 1642.46,729.266 1644.44,730.914 1646.42,732.556 1648.41,734.183 1650.39,735.817 1652.38,737.44 1654.36,739.059 1656.35,740.701 1658.33,742.344 1660.31,744.011 1662.3,745.653 1664.28,747.275 1666.27,748.891 1668.25,750.494 1670.24,752.123 1672.22,753.741 1674.2,755.345 1676.19,756.947 1678.17,758.545 1680.16,760.144 1682.14,761.736 1684.13,763.338 1686.11,764.913 1688.09,766.487 1690.08,768.075 1692.06,769.676 1694.05,771.291 1696.03,772.929 1698.01,774.597 1700,776.281 1701.98,777.958 1703.97,779.644 1705.95,781.333 1707.94,783.002 1709.92,784.686 1711.9,786.39 1713.89,788.084 1715.87,789.773 1717.86,791.475 1719.84,793.158 1721.83,794.832 1723.81,796.503 1725.79,798.157 1727.78,799.804 1729.76,801.462 1731.75,803.11 1733.73,804.74 1735.72,806.372 1737.7,807.987 1739.68,809.59 1741.67,811.204 1743.65,812.825 1745.64,814.469 1747.62,816.121 1749.61,817.764 1751.59,819.438 1753.57,821.116 1755.56,822.777 1757.54,824.447 1759.53,826.151 1761.51,827.856 1763.49,829.548 1765.48,831.229 1767.46,832.938 1769.45,834.649 1771.43,836.353 1773.42,838.073 1775.4,839.809 1777.38,841.529 1779.37,843.317 1781.35,845.108 1783.34,846.881 1785.32,848.669 1787.31,850.421 1789.29,852.18 1791.27,853.949 1793.26,855.764 1795.24,857.597 1797.23,859.41 1799.21,861.251 1801.2,863.086 1803.18,864.945 1805.16,866.785 1807.15,868.621 1809.13,870.447 1811.12,872.262 1813.1,874.079 1815.09,875.9 1817.07,877.704 1819.05,879.497 1821.04,881.268 1823.02,883.009 1825.01,884.751 1826.99,886.497 1828.97,888.257 1830.96,890.036 1832.94,891.8 1834.93,893.579 1836.91,895.318 1838.9,897.076 1840.88,898.796 1842.86,900.555 1844.85,902.351 1846.83,904.133 1848.82,905.953 1850.8,907.769 1852.79,909.594 1854.77,911.426 1856.75,913.303 1858.74,915.162 1860.72,917.009 1862.71,918.849 1864.69,920.727 1866.68,922.592 1868.66,924.467 1870.64,926.352 1872.63,928.223 1874.61,930.108 1876.6,931.958 1878.58,933.811 1880.57,935.707 1882.55,937.622 1884.53,939.512 1886.52,941.374 1888.5,943.228 1890.49,945.092 1892.47,946.955 1894.46,948.804 1896.44,950.708 1898.42,952.626 1900.41,954.504 1902.39,956.379 1904.38,958.268 1906.36,960.151 1908.34,962.003 1910.33,963.87 1912.31,965.748 1914.3,967.58 1916.28,969.424 1918.27,971.322 1920.25,973.204 1922.23,975.053 1924.22,976.891 1926.2,978.731 1928.19,980.585 1930.17,982.482 1932.16,984.341 1934.14,986.211 1936.12,988.078 1938.11,989.904 1940.09,991.841 1942.08,993.753 1944.06,995.639 1946.05,997.559 1948.03,999.479 1950.01,1001.38 1952,1003.32 1953.98,1005.32 1955.97,1007.32 1957.95,1009.3 1959.94,1011.39 1961.92,1013.5 1963.9,1015.61 1965.89,1017.7 1967.87,1019.8 1969.86,1021.87 1971.84,1023.89 1973.82,1025.91 1975.81,1027.89 1977.79,1029.86 1979.78,1031.79 1981.76,1033.74 1983.75,1035.7 1985.73,1037.63 1987.71,1039.56 1989.7,1041.53 1991.68,1043.5 1993.67,1045.48 1995.65,1047.5 1997.64,1049.53 1999.62,1051.52 2001.6,1053.51 2003.59,1055.47 2005.57,1057.45 2007.56,1059.46 2009.54,1061.47 2011.53,1063.49 2013.51,1065.51 2015.49,1067.5 2017.48,1069.58 2019.46,1071.64 2021.45,1073.7 2023.43,1075.79 2025.42,1077.85 2027.4,1079.93 2029.38,1081.99 2031.37,1084.05 2033.35,1086.12 2035.34,1088.2 2037.32,1090.27 2039.3,1092.38 2041.29,1094.48 2043.27,1096.58 2045.26,1098.65 2047.24,1100.73 2049.23,1102.82 2051.21,1104.91 2053.19,1107.01 2055.18,1109.11 2057.16,1111.22 2059.15,1113.32 2061.13,1115.44 2063.12,1117.57 2065.1,1119.69 2067.08,1121.81 2069.07,1123.93 2071.05,1126.06 2073.04,1128.24 2075.02,1130.41 2077.01,1132.54 2078.99,1134.66 2080.97,1136.75 2082.96,1138.84 2084.94,1140.95 2086.93,1143.07 2088.91,1145.2 2090.9,1147.32 2092.88,1149.42 2094.86,1151.51 2096.85,1153.61 2098.83,1155.71 2100.82,1157.85 2102.8,1159.96 2104.78,1162.12 2106.77,1164.25 2108.75,1166.47 2110.74,1168.7 2112.72,1170.91 2114.71,1173.1 2116.69,1175.29 2118.67,1177.53 2120.66,1179.78 2122.64,1182.04 2124.63,1184.28 2126.61,1186.55 2128.6,1188.79 2130.58,1191.09 2132.56,1193.41 2134.55,1195.76 2136.53,1198.15 2138.52,1200.51 2140.5,1202.82 2142.49,1205.17 2144.47,1207.52 2146.45,1209.88 2148.44,1212.21 2150.42,1214.53 2152.41,1216.83 2154.39,1219.14 2156.38,1221.46 2158.36,1223.79 2160.34,1226.11 2162.33,1228.43 2164.31,1230.72 2166.3,1233.01 2168.28,1235.28 2170.26,1237.55 2172.25,1239.81 2174.23,1242.08 2176.22,1244.35 2178.2,1246.61 2180.19,1248.88 2182.17,1251.14 2184.15,1253.42 2186.14,1255.69 2188.12,1258 2190.11,1260.34 2192.09,1262.68 2194.08,1265.02 2196.06,1267.33 2198.04,1269.67 2200.03,1272.01 2202.01,1274.36 2204,1276.68 2205.98,1279.03 2207.97,1281.37 2209.95,1283.71 2211.93,1286.1 2213.92,1288.47 2215.9,1290.88 2217.89,1293.27 2219.87,1295.63 2221.86,1298.01 2223.84,1300.44 2225.82,1302.85 2227.81,1305.25 2229.79,1307.61 2231.78,1310.02 2233.76,1312.42 2235.75,1314.84 2237.73,1317.25 2239.71,1319.67 2241.7,1322.13 2243.68,1324.57 2245.67,1327.03 2247.65,1329.48 2249.63,1331.91 2251.62,1334.34 2253.6,1336.76 2255.59,1339.16 2257.57,1341.55 2259.56,1343.92 2261.54,1346.29 2263.52,1348.64 2265.51,1350.95 2267.49,1353.28 2269.48,1355.62 2271.46,1357.93 2273.45,1360.19 2275.43,1362.47 2277.41,1364.83 2279.4,1367.21 2281.38,1369.57 2283.37,1371.95 2285.35,1374.36 2287.34,1376.8 2289.32,1379.28 2291.3,1381.77 2293.29,1384.24 "/>
<path clip-path="url(#clip520)" d="M1864.89 248.629 L2282.72 248.629 L2282.72 93.1086 L1864.89 93.1086  Z" fill="#ffffff" fill-rule="evenodd" fill-opacity="1"/>
<polyline clip-path="url(#clip520)" style="stroke:#000000; stroke-linecap:round; stroke-linejoin:round; stroke-width:4; stroke-opacity:1; fill:none" points="1864.89,248.629 2282.72,248.629 2282.72,93.1086 1864.89,93.1086 1864.89,248.629 "/>
<polyline clip-path="url(#clip520)" style="stroke:#009af9; stroke-linecap:round; stroke-linejoin:round; stroke-width:4; stroke-opacity:1; fill:none" points="1888.24,144.949 2028.32,144.949 "/>
<path clip-path="url(#clip520)" d="M2056.34 145.724 L2056.34 158.386 L2063.84 158.386 Q2067.61 158.386 2069.42 156.835 Q2071.25 155.261 2071.25 152.043 Q2071.25 148.803 2069.42 147.275 Q2067.61 145.724 2063.84 145.724 L2056.34 145.724 M2056.34 131.511 L2056.34 141.928 L2063.26 141.928 Q2066.69 141.928 2068.35 140.655 Q2070.04 139.358 2070.04 136.719 Q2070.04 134.104 2068.35 132.807 Q2066.69 131.511 2063.26 131.511 L2056.34 131.511 M2051.66 127.669 L2063.61 127.669 Q2068.95 127.669 2071.85 129.891 Q2074.74 132.113 2074.74 136.21 Q2074.74 139.382 2073.26 141.257 Q2071.78 143.131 2068.91 143.594 Q2072.36 144.335 2074.25 146.696 Q2076.18 149.034 2076.18 152.553 Q2076.18 157.182 2073.03 159.705 Q2069.88 162.229 2064.07 162.229 L2051.66 162.229 L2051.66 127.669 Z" fill="#000000" fill-rule="nonzero" fill-opacity="1" /><path clip-path="url(#clip520)" d="M2088.86 145.724 L2088.86 158.386 L2096.36 158.386 Q2100.13 158.386 2101.94 156.835 Q2103.77 155.261 2103.77 152.043 Q2103.77 148.803 2101.94 147.275 Q2100.13 145.724 2096.36 145.724 L2088.86 145.724 M2088.86 131.511 L2088.86 141.928 L2095.78 141.928 Q2099.21 141.928 2100.87 140.655 Q2102.56 139.358 2102.56 136.719 Q2102.56 134.104 2100.87 132.807 Q2099.21 131.511 2095.78 131.511 L2088.86 131.511 M2084.19 127.669 L2096.13 127.669 Q2101.48 127.669 2104.37 129.891 Q2107.26 132.113 2107.26 136.21 Q2107.26 139.382 2105.78 141.257 Q2104.3 143.131 2101.43 143.594 Q2104.88 144.335 2106.78 146.696 Q2108.7 149.034 2108.7 152.553 Q2108.7 157.182 2105.55 159.705 Q2102.4 162.229 2096.59 162.229 L2084.19 162.229 L2084.19 127.669 Z" fill="#000000" fill-rule="nonzero" fill-opacity="1" /><path clip-path="url(#clip520)" d="M2124.16 162.229 L2110.97 127.669 L2115.85 127.669 L2126.8 156.766 L2137.77 127.669 L2142.63 127.669 L2129.46 162.229 L2124.16 162.229 Z" fill="#000000" fill-rule="nonzero" fill-opacity="1" /><path clip-path="url(#clip520)" d="M2147.68 127.669 L2152.36 127.669 L2152.36 162.229 L2147.68 162.229 L2147.68 127.669 Z" fill="#000000" fill-rule="nonzero" fill-opacity="1" /><path clip-path="url(#clip520)" d="M2202.61 130.331 L2202.61 135.261 Q2200.25 133.062 2197.56 131.974 Q2194.9 130.886 2191.89 130.886 Q2185.97 130.886 2182.82 134.52 Q2179.67 138.132 2179.67 144.983 Q2179.67 151.812 2182.82 155.446 Q2185.97 159.057 2191.89 159.057 Q2194.9 159.057 2197.56 157.969 Q2200.25 156.881 2202.61 154.682 L2202.61 159.567 Q2200.16 161.233 2197.4 162.067 Q2194.67 162.9 2191.62 162.9 Q2183.77 162.9 2179.25 158.108 Q2174.74 153.293 2174.74 144.983 Q2174.74 136.65 2179.25 131.858 Q2183.77 127.044 2191.62 127.044 Q2194.72 127.044 2197.45 127.877 Q2200.2 128.687 2202.61 130.331 Z" fill="#000000" fill-rule="nonzero" fill-opacity="1" /><path clip-path="url(#clip520)" d="M2209.83 127.669 L2229.69 127.669 L2229.69 131.604 L2214.51 131.604 L2214.51 141.789 L2228.21 141.789 L2228.21 145.724 L2214.51 145.724 L2214.51 162.229 L2209.83 162.229 L2209.83 127.669 Z" fill="#000000" fill-rule="nonzero" fill-opacity="1" /><path clip-path="url(#clip520)" d="M2237.1 127.669 L2258.95 127.669 L2258.95 131.604 L2241.78 131.604 L2241.78 141.835 L2258.24 141.835 L2258.24 145.77 L2241.78 145.77 L2241.78 158.293 L2259.37 158.293 L2259.37 162.229 L2237.1 162.229 L2237.1 127.669 Z" fill="#000000" fill-rule="nonzero" fill-opacity="1" /><polyline clip-path="url(#clip520)" style="stroke:#e26f46; stroke-linecap:round; stroke-linejoin:round; stroke-width:4; stroke-opacity:1; fill:none" points="1888.24,196.789 2028.32,196.789 "/>
<path clip-path="url(#clip520)" d="M2056.34 197.564 L2056.34 210.226 L2063.84 210.226 Q2067.61 210.226 2069.42 208.675 Q2071.25 207.101 2071.25 203.883 Q2071.25 200.643 2069.42 199.115 Q2067.61 197.564 2063.84 197.564 L2056.34 197.564 M2056.34 183.351 L2056.34 193.768 L2063.26 193.768 Q2066.69 193.768 2068.35 192.495 Q2070.04 191.198 2070.04 188.559 Q2070.04 185.944 2068.35 184.647 Q2066.69 183.351 2063.26 183.351 L2056.34 183.351 M2051.66 179.509 L2063.61 179.509 Q2068.95 179.509 2071.85 181.731 Q2074.74 183.953 2074.74 188.05 Q2074.74 191.222 2073.26 193.097 Q2071.78 194.971 2068.91 195.434 Q2072.36 196.175 2074.25 198.536 Q2076.18 200.874 2076.18 204.393 Q2076.18 209.022 2073.03 211.545 Q2069.88 214.069 2064.07 214.069 L2051.66 214.069 L2051.66 179.509 Z" fill="#000000" fill-rule="nonzero" fill-opacity="1" /><path clip-path="url(#clip520)" d="M2088.86 197.564 L2088.86 210.226 L2096.36 210.226 Q2100.13 210.226 2101.94 208.675 Q2103.77 207.101 2103.77 203.883 Q2103.77 200.643 2101.94 199.115 Q2100.13 197.564 2096.36 197.564 L2088.86 197.564 M2088.86 183.351 L2088.86 193.768 L2095.78 193.768 Q2099.21 193.768 2100.87 192.495 Q2102.56 191.198 2102.56 188.559 Q2102.56 185.944 2100.87 184.647 Q2099.21 183.351 2095.78 183.351 L2088.86 183.351 M2084.19 179.509 L2096.13 179.509 Q2101.48 179.509 2104.37 181.731 Q2107.26 183.953 2107.26 188.05 Q2107.26 191.222 2105.78 193.097 Q2104.3 194.971 2101.43 195.434 Q2104.88 196.175 2106.78 198.536 Q2108.7 200.874 2108.7 204.393 Q2108.7 209.022 2105.55 211.545 Q2102.4 214.069 2096.59 214.069 L2084.19 214.069 L2084.19 179.509 Z" fill="#000000" fill-rule="nonzero" fill-opacity="1" /><path clip-path="url(#clip520)" d="M2124.16 214.069 L2110.97 179.509 L2115.85 179.509 L2126.8 208.606 L2137.77 179.509 L2142.63 179.509 L2129.46 214.069 L2124.16 214.069 Z" fill="#000000" fill-rule="nonzero" fill-opacity="1" /><path clip-path="url(#clip520)" d="M2147.68 179.509 L2152.36 179.509 L2152.36 214.069 L2147.68 214.069 L2147.68 179.509 Z" fill="#000000" fill-rule="nonzero" fill-opacity="1" /><path clip-path="url(#clip520)" d="M2197.45 180.643 L2197.45 185.203 Q2194.79 183.93 2192.43 183.305 Q2190.06 182.68 2187.87 182.68 Q2184.05 182.68 2181.96 184.161 Q2179.9 185.643 2179.9 188.374 Q2179.9 190.666 2181.27 191.847 Q2182.66 193.004 2186.5 193.722 L2189.32 194.3 Q2194.55 195.296 2197.03 197.819 Q2199.53 200.319 2199.53 204.532 Q2199.53 209.555 2196.15 212.147 Q2192.8 214.74 2186.29 214.74 Q2183.84 214.74 2181.06 214.184 Q2178.31 213.629 2175.34 212.541 L2175.34 207.726 Q2178.19 209.323 2180.92 210.133 Q2183.65 210.944 2186.29 210.944 Q2190.3 210.944 2192.47 209.37 Q2194.65 207.796 2194.65 204.879 Q2194.65 202.333 2193.07 200.897 Q2191.52 199.462 2187.96 198.745 L2185.11 198.189 Q2179.88 197.147 2177.54 194.925 Q2175.2 192.703 2175.2 188.745 Q2175.2 184.161 2178.42 181.522 Q2181.66 178.884 2187.33 178.884 Q2189.76 178.884 2192.29 179.323 Q2194.81 179.763 2197.45 180.643 Z" fill="#000000" fill-rule="nonzero" fill-opacity="1" /><path clip-path="url(#clip520)" d="M2202.03 179.509 L2231.27 179.509 L2231.27 183.444 L2219 183.444 L2219 214.069 L2214.3 214.069 L2214.3 183.444 L2202.03 183.444 L2202.03 179.509 Z" fill="#000000" fill-rule="nonzero" fill-opacity="1" /><path clip-path="url(#clip520)" d="M2235.78 179.509 L2240.46 179.509 L2240.46 210.133 L2257.29 210.133 L2257.29 214.069 L2235.78 214.069 L2235.78 179.509 Z" fill="#000000" fill-rule="nonzero" fill-opacity="1" /></svg>
