<?xml version="1.0" encoding="utf-8"?>
<svg xmlns="http://www.w3.org/2000/svg" xmlns:xlink="http://www.w3.org/1999/xlink" width="600" height="400" viewBox="0 0 2400 1600">
<defs>
  <clipPath id="clip530">
    <rect x="0" y="0" width="2400" height="1600"/>
  </clipPath>
</defs>
<path clip-path="url(#clip530)" d="M0 1600 L2400 1600 L2400 0 L0 0  Z" fill="#ffffff" fill-rule="evenodd" fill-opacity="1"/>
<defs>
  <clipPath id="clip531">
    <rect x="175" y="47" width="2178" height="1377"/>
  </clipPath>
</defs>
<path clip-path="url(#clip530)" d="M242.135 1423.18 L2352.76 1423.18 L2352.76 47.2441 L242.135 47.2441  Z" fill="#ffffff" fill-rule="evenodd" fill-opacity="1"/>
<defs>
  <clipPath id="clip532">
    <rect x="242" y="47" width="2112" height="1377"/>
  </clipPath>
</defs>
<polyline clip-path="url(#clip532)" style="stroke:#000000; stroke-linecap:round; stroke-linejoin:round; stroke-width:2; stroke-opacity:0.1; fill:none" points="299.876,1423.18 299.876,47.2441 "/>
<polyline clip-path="url(#clip532)" style="stroke:#000000; stroke-linecap:round; stroke-linejoin:round; stroke-width:2; stroke-opacity:0.1; fill:none" points="798.162,1423.18 798.162,47.2441 "/>
<polyline clip-path="url(#clip532)" style="stroke:#000000; stroke-linecap:round; stroke-linejoin:round; stroke-width:2; stroke-opacity:0.1; fill:none" points="1296.45,1423.18 1296.45,47.2441 "/>
<polyline clip-path="url(#clip532)" style="stroke:#000000; stroke-linecap:round; stroke-linejoin:round; stroke-width:2; stroke-opacity:0.1; fill:none" points="1794.74,1423.18 1794.74,47.2441 "/>
<polyline clip-path="url(#clip532)" style="stroke:#000000; stroke-linecap:round; stroke-linejoin:round; stroke-width:2; stroke-opacity:0.1; fill:none" points="2293.02,1423.18 2293.02,47.2441 "/>
<polyline clip-path="url(#clip532)" style="stroke:#000000; stroke-linecap:round; stroke-linejoin:round; stroke-width:2; stroke-opacity:0.1; fill:none" points="242.135,1234.69 2352.76,1234.69 "/>
<polyline clip-path="url(#clip532)" style="stroke:#000000; stroke-linecap:round; stroke-linejoin:round; stroke-width:2; stroke-opacity:0.1; fill:none" points="242.135,901.759 2352.76,901.759 "/>
<polyline clip-path="url(#clip532)" style="stroke:#000000; stroke-linecap:round; stroke-linejoin:round; stroke-width:2; stroke-opacity:0.1; fill:none" points="242.135,568.832 2352.76,568.832 "/>
<polyline clip-path="url(#clip532)" style="stroke:#000000; stroke-linecap:round; stroke-linejoin:round; stroke-width:2; stroke-opacity:0.1; fill:none" points="242.135,235.905 2352.76,235.905 "/>
<polyline clip-path="url(#clip530)" style="stroke:#000000; stroke-linecap:round; stroke-linejoin:round; stroke-width:4; stroke-opacity:1; fill:none" points="242.135,1423.18 2352.76,1423.18 "/>
<polyline clip-path="url(#clip530)" style="stroke:#000000; stroke-linecap:round; stroke-linejoin:round; stroke-width:4; stroke-opacity:1; fill:none" points="299.876,1423.18 299.876,1404.28 "/>
<polyline clip-path="url(#clip530)" style="stroke:#000000; stroke-linecap:round; stroke-linejoin:round; stroke-width:4; stroke-opacity:1; fill:none" points="798.162,1423.18 798.162,1404.28 "/>
<polyline clip-path="url(#clip530)" style="stroke:#000000; stroke-linecap:round; stroke-linejoin:round; stroke-width:4; stroke-opacity:1; fill:none" points="1296.45,1423.18 1296.45,1404.28 "/>
<polyline clip-path="url(#clip530)" style="stroke:#000000; stroke-linecap:round; stroke-linejoin:round; stroke-width:4; stroke-opacity:1; fill:none" points="1794.74,1423.18 1794.74,1404.28 "/>
<polyline clip-path="url(#clip530)" style="stroke:#000000; stroke-linecap:round; stroke-linejoin:round; stroke-width:4; stroke-opacity:1; fill:none" points="2293.02,1423.18 2293.02,1404.28 "/>
<path clip-path="url(#clip530)" d="M299.876 1454.1 Q296.265 1454.1 294.436 1457.66 Q292.631 1461.2 292.631 1468.33 Q292.631 1475.44 294.436 1479.01 Q296.265 1482.55 299.876 1482.55 Q303.51 1482.55 305.316 1479.01 Q307.145 1475.44 307.145 1468.33 Q307.145 1461.2 305.316 1457.66 Q303.51 1454.1 299.876 1454.1 M299.876 1450.39 Q305.686 1450.39 308.742 1455 Q311.82 1459.58 311.82 1468.33 Q311.82 1477.06 308.742 1481.67 Q305.686 1486.25 299.876 1486.25 Q294.066 1486.25 290.987 1481.67 Q287.932 1477.06 287.932 1468.33 Q287.932 1459.58 290.987 1455 Q294.066 1450.39 299.876 1450.39 Z" fill="#000000" fill-rule="nonzero" fill-opacity="1" /><path clip-path="url(#clip530)" d="M761.855 1481.64 L778.174 1481.64 L778.174 1485.58 L756.23 1485.58 L756.23 1481.64 Q758.892 1478.89 763.475 1474.26 Q768.082 1469.61 769.262 1468.27 Q771.507 1465.74 772.387 1464.01 Q773.29 1462.25 773.29 1460.56 Q773.29 1457.8 771.345 1456.07 Q769.424 1454.33 766.322 1454.33 Q764.123 1454.33 761.67 1455.09 Q759.239 1455.86 756.461 1457.41 L756.461 1452.69 Q759.285 1451.55 761.739 1450.97 Q764.193 1450.39 766.23 1450.39 Q771.6 1450.39 774.794 1453.08 Q777.989 1455.77 777.989 1460.26 Q777.989 1462.39 777.179 1464.31 Q776.392 1466.2 774.285 1468.8 Q773.707 1469.47 770.605 1472.69 Q767.503 1475.88 761.855 1481.64 Z" fill="#000000" fill-rule="nonzero" fill-opacity="1" /><path clip-path="url(#clip530)" d="M788.035 1451.02 L806.392 1451.02 L806.392 1454.96 L792.318 1454.96 L792.318 1463.43 Q793.336 1463.08 794.355 1462.92 Q795.373 1462.73 796.392 1462.73 Q802.179 1462.73 805.558 1465.9 Q808.938 1469.08 808.938 1474.49 Q808.938 1480.07 805.466 1483.17 Q801.993 1486.25 795.674 1486.25 Q793.498 1486.25 791.23 1485.88 Q788.984 1485.51 786.577 1484.77 L786.577 1480.07 Q788.66 1481.2 790.882 1481.76 Q793.105 1482.32 795.581 1482.32 Q799.586 1482.32 801.924 1480.21 Q804.262 1478.1 804.262 1474.49 Q804.262 1470.88 801.924 1468.77 Q799.586 1466.67 795.581 1466.67 Q793.706 1466.67 791.831 1467.08 Q789.98 1467.5 788.035 1468.38 L788.035 1451.02 Z" fill="#000000" fill-rule="nonzero" fill-opacity="1" /><path clip-path="url(#clip530)" d="M828.151 1454.1 Q824.54 1454.1 822.711 1457.66 Q820.905 1461.2 820.905 1468.33 Q820.905 1475.44 822.711 1479.01 Q824.54 1482.55 828.151 1482.55 Q831.785 1482.55 833.59 1479.01 Q835.419 1475.44 835.419 1468.33 Q835.419 1461.2 833.59 1457.66 Q831.785 1454.1 828.151 1454.1 M828.151 1450.39 Q833.961 1450.39 837.016 1455 Q840.095 1459.58 840.095 1468.33 Q840.095 1477.06 837.016 1481.67 Q833.961 1486.25 828.151 1486.25 Q822.341 1486.25 819.262 1481.67 Q816.206 1477.06 816.206 1468.33 Q816.206 1459.58 819.262 1455 Q822.341 1450.39 828.151 1450.39 Z" fill="#000000" fill-rule="nonzero" fill-opacity="1" /><path clip-path="url(#clip530)" d="M1256.07 1451.02 L1274.42 1451.02 L1274.42 1454.96 L1260.35 1454.96 L1260.35 1463.43 Q1261.37 1463.08 1262.39 1462.92 Q1263.4 1462.73 1264.42 1462.73 Q1270.21 1462.73 1273.59 1465.9 Q1276.97 1469.08 1276.97 1474.49 Q1276.97 1480.07 1273.5 1483.17 Q1270.03 1486.25 1263.71 1486.25 Q1261.53 1486.25 1259.26 1485.88 Q1257.02 1485.51 1254.61 1484.77 L1254.61 1480.07 Q1256.69 1481.2 1258.91 1481.76 Q1261.14 1482.32 1263.61 1482.32 Q1267.62 1482.32 1269.96 1480.21 Q1272.29 1478.1 1272.29 1474.49 Q1272.29 1470.88 1269.96 1468.77 Q1267.62 1466.67 1263.61 1466.67 Q1261.74 1466.67 1259.86 1467.08 Q1258.01 1467.5 1256.07 1468.38 L1256.07 1451.02 Z" fill="#000000" fill-rule="nonzero" fill-opacity="1" /><path clip-path="url(#clip530)" d="M1296.18 1454.1 Q1292.57 1454.1 1290.74 1457.66 Q1288.94 1461.2 1288.94 1468.33 Q1288.94 1475.44 1290.74 1479.01 Q1292.57 1482.55 1296.18 1482.55 Q1299.82 1482.55 1301.62 1479.01 Q1303.45 1475.44 1303.45 1468.33 Q1303.45 1461.2 1301.62 1457.66 Q1299.82 1454.1 1296.18 1454.1 M1296.18 1450.39 Q1301.99 1450.39 1305.05 1455 Q1308.13 1459.58 1308.13 1468.33 Q1308.13 1477.06 1305.05 1481.67 Q1301.99 1486.25 1296.18 1486.25 Q1290.37 1486.25 1287.29 1481.67 Q1284.24 1477.06 1284.24 1468.33 Q1284.24 1459.58 1287.29 1455 Q1290.37 1450.39 1296.18 1450.39 Z" fill="#000000" fill-rule="nonzero" fill-opacity="1" /><path clip-path="url(#clip530)" d="M1326.34 1454.1 Q1322.73 1454.1 1320.9 1457.66 Q1319.1 1461.2 1319.1 1468.33 Q1319.1 1475.44 1320.9 1479.01 Q1322.73 1482.55 1326.34 1482.55 Q1329.98 1482.55 1331.78 1479.01 Q1333.61 1475.44 1333.61 1468.33 Q1333.61 1461.2 1331.78 1457.66 Q1329.98 1454.1 1326.34 1454.1 M1326.34 1450.39 Q1332.15 1450.39 1335.21 1455 Q1338.29 1459.58 1338.29 1468.33 Q1338.29 1477.06 1335.21 1481.67 Q1332.15 1486.25 1326.34 1486.25 Q1320.53 1486.25 1317.46 1481.67 Q1314.4 1477.06 1314.4 1468.33 Q1314.4 1459.58 1317.46 1455 Q1320.53 1450.39 1326.34 1450.39 Z" fill="#000000" fill-rule="nonzero" fill-opacity="1" /><path clip-path="url(#clip530)" d="M1753.01 1451.02 L1775.23 1451.02 L1775.23 1453.01 L1762.69 1485.58 L1757.8 1485.58 L1769.61 1454.96 L1753.01 1454.96 L1753.01 1451.02 Z" fill="#000000" fill-rule="nonzero" fill-opacity="1" /><path clip-path="url(#clip530)" d="M1784.4 1451.02 L1802.76 1451.02 L1802.76 1454.96 L1788.68 1454.96 L1788.68 1463.43 Q1789.7 1463.08 1790.72 1462.92 Q1791.74 1462.73 1792.76 1462.73 Q1798.54 1462.73 1801.92 1465.9 Q1805.3 1469.08 1805.3 1474.49 Q1805.3 1480.07 1801.83 1483.17 Q1798.36 1486.25 1792.04 1486.25 Q1789.86 1486.25 1787.59 1485.88 Q1785.35 1485.51 1782.94 1484.77 L1782.94 1480.07 Q1785.02 1481.2 1787.25 1481.76 Q1789.47 1482.32 1791.95 1482.32 Q1795.95 1482.32 1798.29 1480.21 Q1800.63 1478.1 1800.63 1474.49 Q1800.63 1470.88 1798.29 1468.77 Q1795.95 1466.67 1791.95 1466.67 Q1790.07 1466.67 1788.2 1467.08 Q1786.34 1467.5 1784.4 1468.38 L1784.4 1451.02 Z" fill="#000000" fill-rule="nonzero" fill-opacity="1" /><path clip-path="url(#clip530)" d="M1824.51 1454.1 Q1820.9 1454.1 1819.08 1457.66 Q1817.27 1461.2 1817.27 1468.33 Q1817.27 1475.44 1819.08 1479.01 Q1820.9 1482.55 1824.51 1482.55 Q1828.15 1482.55 1829.95 1479.01 Q1831.78 1475.44 1831.78 1468.33 Q1831.78 1461.2 1829.95 1457.66 Q1828.15 1454.1 1824.51 1454.1 M1824.51 1450.39 Q1830.33 1450.39 1833.38 1455 Q1836.46 1459.58 1836.46 1468.33 Q1836.46 1477.06 1833.38 1481.67 Q1830.33 1486.25 1824.51 1486.25 Q1818.7 1486.25 1815.63 1481.67 Q1812.57 1477.06 1812.57 1468.33 Q1812.57 1459.58 1815.63 1455 Q1818.7 1450.39 1824.51 1450.39 Z" fill="#000000" fill-rule="nonzero" fill-opacity="1" /><path clip-path="url(#clip530)" d="M2237.55 1481.64 L2245.19 1481.64 L2245.19 1455.28 L2236.88 1456.95 L2236.88 1452.69 L2245.14 1451.02 L2249.82 1451.02 L2249.82 1481.64 L2257.45 1481.64 L2257.45 1485.58 L2237.55 1485.58 L2237.55 1481.64 Z" fill="#000000" fill-rule="nonzero" fill-opacity="1" /><path clip-path="url(#clip530)" d="M2276.9 1454.1 Q2273.29 1454.1 2271.46 1457.66 Q2269.65 1461.2 2269.65 1468.33 Q2269.65 1475.44 2271.46 1479.01 Q2273.29 1482.55 2276.9 1482.55 Q2280.53 1482.55 2282.34 1479.01 Q2284.17 1475.44 2284.17 1468.33 Q2284.17 1461.2 2282.34 1457.66 Q2280.53 1454.1 2276.9 1454.1 M2276.9 1450.39 Q2282.71 1450.39 2285.76 1455 Q2288.84 1459.58 2288.84 1468.33 Q2288.84 1477.06 2285.76 1481.67 Q2282.71 1486.25 2276.9 1486.25 Q2271.09 1486.25 2268.01 1481.67 Q2264.95 1477.06 2264.95 1468.33 Q2264.95 1459.58 2268.01 1455 Q2271.09 1450.39 2276.9 1450.39 Z" fill="#000000" fill-rule="nonzero" fill-opacity="1" /><path clip-path="url(#clip530)" d="M2307.06 1454.1 Q2303.45 1454.1 2301.62 1457.66 Q2299.82 1461.2 2299.82 1468.33 Q2299.82 1475.44 2301.62 1479.01 Q2303.45 1482.55 2307.06 1482.55 Q2310.69 1482.55 2312.5 1479.01 Q2314.33 1475.44 2314.33 1468.33 Q2314.33 1461.2 2312.5 1457.66 Q2310.69 1454.1 2307.06 1454.1 M2307.06 1450.39 Q2312.87 1450.39 2315.93 1455 Q2319 1459.58 2319 1468.33 Q2319 1477.06 2315.93 1481.67 Q2312.87 1486.25 2307.06 1486.25 Q2301.25 1486.25 2298.17 1481.67 Q2295.12 1477.06 2295.12 1468.33 Q2295.12 1459.58 2298.17 1455 Q2301.25 1450.39 2307.06 1450.39 Z" fill="#000000" fill-rule="nonzero" fill-opacity="1" /><path clip-path="url(#clip530)" d="M2337.22 1454.1 Q2333.61 1454.1 2331.78 1457.66 Q2329.98 1461.2 2329.98 1468.33 Q2329.98 1475.44 2331.78 1479.01 Q2333.61 1482.55 2337.22 1482.55 Q2340.86 1482.55 2342.66 1479.01 Q2344.49 1475.44 2344.49 1468.33 Q2344.49 1461.2 2342.66 1457.66 Q2340.86 1454.1 2337.22 1454.1 M2337.22 1450.39 Q2343.03 1450.39 2346.09 1455 Q2349.17 1459.58 2349.17 1468.33 Q2349.17 1477.06 2346.09 1481.67 Q2343.03 1486.25 2337.22 1486.25 Q2331.41 1486.25 2328.33 1481.67 Q2325.28 1477.06 2325.28 1468.33 Q2325.28 1459.58 2328.33 1455 Q2331.41 1450.39 2337.22 1450.39 Z" fill="#000000" fill-rule="nonzero" fill-opacity="1" /><path clip-path="url(#clip530)" d="M1165.17 1520.52 L1171.6 1520.52 L1171.6 1568.04 L1165.17 1568.04 L1165.17 1520.52 Z" fill="#000000" fill-rule="nonzero" fill-opacity="1" /><path clip-path="url(#clip530)" d="M1189.93 1522.27 L1189.93 1532.4 L1201.99 1532.4 L1201.99 1536.95 L1189.93 1536.95 L1189.93 1556.3 Q1189.93 1560.66 1191.11 1561.9 Q1192.32 1563.14 1195.98 1563.14 L1201.99 1563.14 L1201.99 1568.04 L1195.98 1568.04 Q1189.2 1568.04 1186.62 1565.53 Q1184.04 1562.98 1184.04 1556.3 L1184.04 1536.95 L1179.74 1536.95 L1179.74 1532.4 L1184.04 1532.4 L1184.04 1522.27 L1189.93 1522.27 Z" fill="#000000" fill-rule="nonzero" fill-opacity="1" /><path clip-path="url(#clip530)" d="M1240.19 1548.76 L1240.19 1551.62 L1213.26 1551.62 Q1213.64 1557.67 1216.89 1560.85 Q1220.17 1564 1225.99 1564 Q1229.36 1564 1232.52 1563.17 Q1235.7 1562.35 1238.82 1560.69 L1238.82 1566.23 Q1235.67 1567.57 1232.36 1568.27 Q1229.05 1568.97 1225.64 1568.97 Q1217.11 1568.97 1212.11 1564 Q1207.15 1559.04 1207.15 1550.57 Q1207.15 1541.82 1211.86 1536.69 Q1216.6 1531.54 1224.62 1531.54 Q1231.81 1531.54 1235.98 1536.18 Q1240.19 1540.8 1240.19 1548.76 M1234.33 1547.04 Q1234.27 1542.23 1231.62 1539.37 Q1229.01 1536.5 1224.69 1536.5 Q1219.78 1536.5 1216.82 1539.27 Q1213.9 1542.04 1213.45 1547.07 L1234.33 1547.04 Z" fill="#000000" fill-rule="nonzero" fill-opacity="1" /><path clip-path="url(#clip530)" d="M1270.45 1537.87 Q1269.47 1537.3 1268.29 1537.04 Q1267.14 1536.76 1265.74 1536.76 Q1260.78 1536.76 1258.11 1540 Q1255.46 1543.22 1255.46 1549.27 L1255.46 1568.04 L1249.58 1568.04 L1249.58 1532.4 L1255.46 1532.4 L1255.46 1537.93 Q1257.31 1534.69 1260.27 1533.13 Q1263.23 1531.54 1267.46 1531.54 Q1268.07 1531.54 1268.8 1531.63 Q1269.53 1531.7 1270.42 1531.85 L1270.45 1537.87 Z" fill="#000000" fill-rule="nonzero" fill-opacity="1" /><path clip-path="url(#clip530)" d="M1292.8 1550.12 Q1285.7 1550.12 1282.96 1551.75 Q1280.23 1553.37 1280.23 1557.29 Q1280.23 1560.4 1282.26 1562.25 Q1284.33 1564.07 1287.86 1564.07 Q1292.73 1564.07 1295.66 1560.63 Q1298.62 1557.16 1298.62 1551.43 L1298.62 1550.12 L1292.8 1550.12 M1304.48 1547.71 L1304.48 1568.04 L1298.62 1568.04 L1298.62 1562.63 Q1296.62 1565.88 1293.63 1567.44 Q1290.63 1568.97 1286.31 1568.97 Q1280.83 1568.97 1277.58 1565.91 Q1274.37 1562.82 1274.37 1557.67 Q1274.37 1551.65 1278.38 1548.6 Q1282.42 1545.54 1290.41 1545.54 L1298.62 1545.54 L1298.62 1544.97 Q1298.62 1540.93 1295.95 1538.73 Q1293.31 1536.5 1288.5 1536.5 Q1285.45 1536.5 1282.55 1537.23 Q1279.65 1537.97 1276.98 1539.43 L1276.98 1534.02 Q1280.19 1532.78 1283.22 1532.17 Q1286.24 1531.54 1289.11 1531.54 Q1296.84 1531.54 1300.66 1535.55 Q1304.48 1539.56 1304.48 1547.71 Z" fill="#000000" fill-rule="nonzero" fill-opacity="1" /><path clip-path="url(#clip530)" d="M1322.34 1522.27 L1322.34 1532.4 L1334.4 1532.4 L1334.4 1536.95 L1322.34 1536.95 L1322.34 1556.3 Q1322.34 1560.66 1323.51 1561.9 Q1324.72 1563.14 1328.38 1563.14 L1334.4 1563.14 L1334.4 1568.04 L1328.38 1568.04 Q1321.6 1568.04 1319.03 1565.53 Q1316.45 1562.98 1316.45 1556.3 L1316.45 1536.95 L1312.15 1536.95 L1312.15 1532.4 L1316.45 1532.4 L1316.45 1522.27 L1322.34 1522.27 Z" fill="#000000" fill-rule="nonzero" fill-opacity="1" /><path clip-path="url(#clip530)" d="M1342.1 1532.4 L1347.96 1532.4 L1347.96 1568.04 L1342.1 1568.04 L1342.1 1532.4 M1342.1 1518.52 L1347.96 1518.52 L1347.96 1525.93 L1342.1 1525.93 L1342.1 1518.52 Z" fill="#000000" fill-rule="nonzero" fill-opacity="1" /><path clip-path="url(#clip530)" d="M1374.02 1536.5 Q1369.31 1536.5 1366.58 1540.19 Q1363.84 1543.85 1363.84 1550.25 Q1363.84 1556.65 1366.55 1560.34 Q1369.28 1564 1374.02 1564 Q1378.7 1564 1381.44 1560.31 Q1384.18 1556.62 1384.18 1550.25 Q1384.18 1543.92 1381.44 1540.23 Q1378.7 1536.5 1374.02 1536.5 M1374.02 1531.54 Q1381.66 1531.54 1386.02 1536.5 Q1390.38 1541.47 1390.38 1550.25 Q1390.38 1559 1386.02 1564 Q1381.66 1568.97 1374.02 1568.97 Q1366.35 1568.97 1361.99 1564 Q1357.66 1559 1357.66 1550.25 Q1357.66 1541.47 1361.99 1536.5 Q1366.35 1531.54 1374.02 1531.54 Z" fill="#000000" fill-rule="nonzero" fill-opacity="1" /><path clip-path="url(#clip530)" d="M1429.72 1546.53 L1429.72 1568.04 L1423.87 1568.04 L1423.87 1546.72 Q1423.87 1541.66 1421.89 1539.14 Q1419.92 1536.63 1415.97 1536.63 Q1411.23 1536.63 1408.5 1539.65 Q1405.76 1542.68 1405.76 1547.9 L1405.76 1568.04 L1399.87 1568.04 L1399.87 1532.4 L1405.76 1532.4 L1405.76 1537.93 Q1407.86 1534.72 1410.69 1533.13 Q1413.56 1531.54 1417.28 1531.54 Q1423.42 1531.54 1426.57 1535.36 Q1429.72 1539.14 1429.72 1546.53 Z" fill="#000000" fill-rule="nonzero" fill-opacity="1" /><polyline clip-path="url(#clip530)" style="stroke:#000000; stroke-linecap:round; stroke-linejoin:round; stroke-width:4; stroke-opacity:1; fill:none" points="242.135,1423.18 242.135,47.2441 "/>
<polyline clip-path="url(#clip530)" style="stroke:#000000; stroke-linecap:round; stroke-linejoin:round; stroke-width:4; stroke-opacity:1; fill:none" points="242.135,1234.69 261.032,1234.69 "/>
<polyline clip-path="url(#clip530)" style="stroke:#000000; stroke-linecap:round; stroke-linejoin:round; stroke-width:4; stroke-opacity:1; fill:none" points="242.135,901.759 261.032,901.759 "/>
<polyline clip-path="url(#clip530)" style="stroke:#000000; stroke-linecap:round; stroke-linejoin:round; stroke-width:4; stroke-opacity:1; fill:none" points="242.135,568.832 261.032,568.832 "/>
<polyline clip-path="url(#clip530)" style="stroke:#000000; stroke-linecap:round; stroke-linejoin:round; stroke-width:4; stroke-opacity:1; fill:none" points="242.135,235.905 261.032,235.905 "/>
<path clip-path="url(#clip530)" d="M114.26 1235.14 L143.936 1235.14 L143.936 1239.07 L114.26 1239.07 L114.26 1235.14 Z" fill="#000000" fill-rule="nonzero" fill-opacity="1" /><path clip-path="url(#clip530)" d="M168.195 1233.33 Q171.552 1234.05 173.427 1236.32 Q175.325 1238.59 175.325 1241.92 Q175.325 1247.04 171.806 1249.84 Q168.288 1252.64 161.806 1252.64 Q159.63 1252.64 157.315 1252.2 Q155.024 1251.78 152.57 1250.92 L152.57 1246.41 Q154.515 1247.55 156.829 1248.12 Q159.144 1248.7 161.667 1248.7 Q166.065 1248.7 168.357 1246.97 Q170.672 1245.23 170.672 1241.92 Q170.672 1238.86 168.519 1237.15 Q166.39 1235.42 162.57 1235.42 L158.542 1235.42 L158.542 1231.57 L162.755 1231.57 Q166.204 1231.57 168.033 1230.21 Q169.862 1228.82 169.862 1226.23 Q169.862 1223.56 167.964 1222.15 Q166.089 1220.72 162.57 1220.72 Q160.649 1220.72 158.45 1221.13 Q156.251 1221.55 153.612 1222.43 L153.612 1218.26 Q156.274 1217.52 158.589 1217.15 Q160.927 1216.78 162.987 1216.78 Q168.311 1216.78 171.413 1219.21 Q174.514 1221.62 174.514 1225.74 Q174.514 1228.61 172.871 1230.6 Q171.227 1232.57 168.195 1233.33 Z" fill="#000000" fill-rule="nonzero" fill-opacity="1" /><path clip-path="url(#clip530)" d="M194.19 1220.49 Q190.579 1220.49 188.75 1224.05 Q186.945 1227.59 186.945 1234.72 Q186.945 1241.83 188.75 1245.39 Q190.579 1248.93 194.19 1248.93 Q197.825 1248.93 199.63 1245.39 Q201.459 1241.83 201.459 1234.72 Q201.459 1227.59 199.63 1224.05 Q197.825 1220.49 194.19 1220.49 M194.19 1216.78 Q200 1216.78 203.056 1221.39 Q206.135 1225.97 206.135 1234.72 Q206.135 1243.45 203.056 1248.05 Q200 1252.64 194.19 1252.64 Q188.38 1252.64 185.301 1248.05 Q182.246 1243.45 182.246 1234.72 Q182.246 1225.97 185.301 1221.39 Q188.38 1216.78 194.19 1216.78 Z" fill="#000000" fill-rule="nonzero" fill-opacity="1" /><path clip-path="url(#clip530)" d="M114.26 902.211 L143.936 902.211 L143.936 906.146 L114.26 906.146 L114.26 902.211 Z" fill="#000000" fill-rule="nonzero" fill-opacity="1" /><path clip-path="url(#clip530)" d="M158.056 915.104 L174.376 915.104 L174.376 919.039 L152.431 919.039 L152.431 915.104 Q155.093 912.349 159.677 907.72 Q164.283 903.067 165.464 901.724 Q167.709 899.201 168.589 897.465 Q169.491 895.706 169.491 894.016 Q169.491 891.262 167.547 889.525 Q165.626 887.789 162.524 887.789 Q160.325 887.789 157.871 888.553 Q155.44 889.317 152.663 890.868 L152.663 886.146 Q155.487 885.012 157.94 884.433 Q160.394 883.854 162.431 883.854 Q167.802 883.854 170.996 886.539 Q174.19 889.225 174.19 893.715 Q174.19 895.845 173.38 897.766 Q172.593 899.664 170.487 902.257 Q169.908 902.928 166.806 906.146 Q163.704 909.34 158.056 915.104 Z" fill="#000000" fill-rule="nonzero" fill-opacity="1" /><path clip-path="url(#clip530)" d="M194.19 887.558 Q190.579 887.558 188.75 891.123 Q186.945 894.664 186.945 901.794 Q186.945 908.9 188.75 912.465 Q190.579 916.007 194.19 916.007 Q197.825 916.007 199.63 912.465 Q201.459 908.9 201.459 901.794 Q201.459 894.664 199.63 891.123 Q197.825 887.558 194.19 887.558 M194.19 883.854 Q200 883.854 203.056 888.461 Q206.135 893.044 206.135 901.794 Q206.135 910.521 203.056 915.127 Q200 919.71 194.19 919.71 Q188.38 919.71 185.301 915.127 Q182.246 910.521 182.246 901.794 Q182.246 893.044 185.301 888.461 Q188.38 883.854 194.19 883.854 Z" fill="#000000" fill-rule="nonzero" fill-opacity="1" /><path clip-path="url(#clip530)" d="M114.26 569.283 L143.936 569.283 L143.936 573.218 L114.26 573.218 L114.26 569.283 Z" fill="#000000" fill-rule="nonzero" fill-opacity="1" /><path clip-path="url(#clip530)" d="M154.839 582.177 L162.477 582.177 L162.477 555.811 L154.167 557.478 L154.167 553.219 L162.431 551.552 L167.107 551.552 L167.107 582.177 L174.746 582.177 L174.746 586.112 L154.839 586.112 L154.839 582.177 Z" fill="#000000" fill-rule="nonzero" fill-opacity="1" /><path clip-path="url(#clip530)" d="M194.19 554.631 Q190.579 554.631 188.75 558.195 Q186.945 561.737 186.945 568.867 Q186.945 575.973 188.75 579.538 Q190.579 583.08 194.19 583.08 Q197.825 583.08 199.63 579.538 Q201.459 575.973 201.459 568.867 Q201.459 561.737 199.63 558.195 Q197.825 554.631 194.19 554.631 M194.19 550.927 Q200 550.927 203.056 555.533 Q206.135 560.117 206.135 568.867 Q206.135 577.593 203.056 582.2 Q200 586.783 194.19 586.783 Q188.38 586.783 185.301 582.2 Q182.246 577.593 182.246 568.867 Q182.246 560.117 185.301 555.533 Q188.38 550.927 194.19 550.927 Z" fill="#000000" fill-rule="nonzero" fill-opacity="1" /><path clip-path="url(#clip530)" d="M194.19 221.703 Q190.579 221.703 188.75 225.268 Q186.945 228.81 186.945 235.939 Q186.945 243.046 188.75 246.611 Q190.579 250.152 194.19 250.152 Q197.825 250.152 199.63 246.611 Q201.459 243.046 201.459 235.939 Q201.459 228.81 199.63 225.268 Q197.825 221.703 194.19 221.703 M194.19 218 Q200 218 203.056 222.606 Q206.135 227.189 206.135 235.939 Q206.135 244.666 203.056 249.273 Q200 253.856 194.19 253.856 Q188.38 253.856 185.301 249.273 Q182.246 244.666 182.246 235.939 Q182.246 227.189 185.301 222.606 Q188.38 218 194.19 218 Z" fill="#000000" fill-rule="nonzero" fill-opacity="1" /><path clip-path="url(#clip530)" d="M16.4842 816.375 L16.4842 786.329 L21.895 786.329 L21.895 809.945 L35.9632 809.945 L35.9632 787.315 L41.3741 787.315 L41.3741 809.945 L58.5933 809.945 L58.5933 785.756 L64.0042 785.756 L64.0042 816.375 L16.4842 816.375 Z" fill="#000000" fill-rule="nonzero" fill-opacity="1" /><path clip-path="url(#clip530)" d="M16.4842 775.189 L16.4842 768.759 L58.5933 768.759 L58.5933 745.62 L64.0042 745.62 L64.0042 775.189 L16.4842 775.189 Z" fill="#000000" fill-rule="nonzero" fill-opacity="1" /><path clip-path="url(#clip530)" d="M41.3104 732.443 L58.7206 732.443 L58.7206 722.13 Q58.7206 716.942 56.5881 714.46 Q54.4238 711.945 49.9996 711.945 Q45.5436 711.945 43.4429 714.46 Q41.3104 716.942 41.3104 722.13 L41.3104 732.443 M21.7677 732.443 L36.0905 732.443 L36.0905 722.926 Q36.0905 718.216 34.34 715.924 Q32.5576 713.6 28.9291 713.6 Q25.3325 713.6 23.5501 715.924 Q21.7677 718.216 21.7677 722.926 L21.7677 732.443 M16.4842 738.872 L16.4842 722.449 Q16.4842 715.096 19.5397 711.118 Q22.5952 707.139 28.2289 707.139 Q32.5894 707.139 35.1675 709.176 Q37.7456 711.213 38.3822 715.16 Q39.4007 710.418 42.6472 707.808 Q45.8619 705.166 50.6998 705.166 Q57.0655 705.166 60.5348 709.495 Q64.0042 713.823 64.0042 721.812 L64.0042 738.872 L16.4842 738.872 Z" fill="#000000" fill-rule="nonzero" fill-opacity="1" /><path clip-path="url(#clip530)" d="M20.8447 676.011 Q20.8447 683.013 26.0645 687.151 Q31.2844 691.257 40.2919 691.257 Q49.2675 691.257 54.4874 687.151 Q59.7073 683.013 59.7073 676.011 Q59.7073 669.009 54.4874 664.935 Q49.2675 660.829 40.2919 660.829 Q31.2844 660.829 26.0645 664.935 Q20.8447 669.009 20.8447 676.011 M15.6248 676.011 Q15.6248 666.017 22.3406 660.033 Q29.0246 654.049 40.2919 654.049 Q51.5274 654.049 58.2432 660.033 Q64.9272 666.017 64.9272 676.011 Q64.9272 686.037 58.2432 692.052 Q51.5592 698.036 40.2919 698.036 Q29.0246 698.036 22.3406 692.052 Q15.6248 686.037 15.6248 676.011 Z" fill="#000000" fill-rule="nonzero" fill-opacity="1" /><polyline clip-path="url(#clip532)" style="stroke:#009af9; stroke-linecap:round; stroke-linejoin:round; stroke-width:4; stroke-opacity:1; fill:none" points="301.869,838.923 303.862,619.948 305.856,950.964 307.849,959.694 309.842,355.388 311.835,595.818 313.828,873.637 315.821,577.402 317.814,853.658 319.808,754.558 321.801,601.868 323.794,858.464 325.787,1344.69 327.78,1035.96 329.773,433.117 331.766,804.026 333.76,794.275 335.753,881.8 337.746,809.149 339.739,1384.24 341.732,866.569 343.725,644.561 345.718,959.548 347.712,622.985 349.705,468.893 351.698,996.474 353.691,1170.07 355.684,905.881 357.677,424.467 359.67,1314.43 361.664,587.442 363.657,650.656 365.65,819.198 367.643,503.128 369.636,586.585 371.629,561.46 373.622,760.585 375.616,752.205 377.609,497.77 379.602,399.632 381.595,837.686 383.588,644.664 385.581,755.313 387.574,1009.38 389.568,667.219 391.561,484.618 393.554,335.959 395.547,722.087 397.54,646.783 399.533,590.832 401.526,523.429 403.52,528.569 405.513,398.744 407.506,968.595 409.499,489.527 411.492,552.886 413.485,587.457 415.479,526.839 417.472,649.893 419.465,887.759 421.458,449.193 423.451,442.323 425.444,655.622 427.437,466.603 429.431,365.715 431.424,571.975 433.417,503.436 435.41,645.762 437.403,723.079 439.396,671.097 441.389,557.294 443.383,448.391 445.376,728.316 447.369,712.234 449.362,459.277 451.355,329.259 453.348,486.461 455.341,710.824 457.335,387.068 459.328,410.158 461.321,530.603 463.314,730.567 465.307,342.872 467.3,319.823 469.293,932.246 471.287,562.918 473.28,718.962 475.273,475.321 477.266,213.442 479.259,465.306 481.252,566.857 483.245,473.846 485.239,858.472 487.232,346.371 489.225,642.68 491.218,355.82 493.211,885.971 495.204,614.585 497.197,655.342 499.191,469.653 501.184,614.899 503.177,441.877 505.17,472.356 507.163,269.577 509.156,552.309 511.149,233.152 513.143,476.783 515.136,780.702 517.129,347.703 519.122,601.815 521.115,412.631 523.108,347.833 525.101,695.677 527.095,486.486 529.088,410.745 531.081,248.648 533.074,372.74 535.067,537.905 537.06,344.868 539.054,506.986 541.047,278.392 543.04,603.416 545.033,811.779 547.026,388.366 549.019,758.524 551.012,283.176 553.006,484.643 554.999,703.928 556.992,394.977 558.985,277.812 560.978,343.796 562.971,482.013 564.964,496.217 566.958,359.968 568.951,421.216 570.944,322.775 572.937,324.522 574.93,489.895 576.923,575.324 578.916,386.986 580.91,401.373 582.903,326.083 584.896,428.904 586.889,279.095 588.882,387.111 590.875,528.982 592.868,321.705 594.862,156.59 596.855,354.513 598.848,351.052 600.841,430.591 602.834,335.147 604.827,322.953 606.82,453.198 608.814,306.016 610.807,380.003 612.8,389.486 614.793,444.072 616.786,323.642 618.779,459.427 620.772,432.049 622.766,269.232 624.759,207.317 626.752,301.083 628.745,275.091 630.738,287.978 632.731,220.528 634.724,524.848 636.718,342.856 638.711,451.276 640.704,396.462 642.697,305.432 644.69,570.289 646.683,237.956 648.677,312.146 650.67,482.217 652.663,334.326 654.656,279.679 656.649,259.56 658.642,295.89 660.635,258.09 662.629,397.98 664.622,294.27 666.615,339.824 668.608,217.729 670.601,178.781 672.594,321.983 674.587,247.741 676.581,456.377 678.574,269.805 680.567,422.43 682.56,550.9 684.553,422.682 686.546,153.999 688.539,310.465 690.533,256.979 692.526,287.927 694.519,388.491 696.512,340.562 698.505,377.144 700.498,328.757 702.491,276.204 704.485,266.361 706.478,227.416 708.471,306.033 710.464,377.859 712.457,266.157 714.45,395.658 716.443,359.406 718.437,309.2 720.43,321.628 722.423,458.74 724.416,252.176 726.409,665.879 728.402,416.906 730.395,304.44 732.389,166.603 734.382,245.125 736.375,281.914 738.368,303.358 740.361,277.971 742.354,387.554 744.347,228.801 746.341,374.057 748.334,410.691 750.327,412.386 752.32,238.647 754.313,432.137 756.306,508.328 758.299,251.915 760.293,463.439 762.286,611.55 764.279,249.349 766.272,332.417 768.265,301.02 770.258,446.187 772.252,153.279 774.245,303.08 776.238,155.027 778.231,356.381 780.224,436.414 782.217,321.419 784.21,323.081 786.204,246.248 788.197,205.511 790.19,207.1 792.183,204.358 794.176,281.1 796.169,160.942 798.162,285.895 800.156,198.607 802.149,199.148 804.142,243.374 806.135,351.946 808.128,271.848 810.121,215.242 812.114,181.332 814.108,354.838 816.101,387.304 818.094,172.623 820.087,391.378 822.08,257.22 824.073,216.771 826.066,290.619 828.06,153.846 830.053,282.839 832.046,154.491 834.039,371.629 836.032,237.999 838.025,292.165 840.018,285.96 842.012,300.146 844.005,525.86 845.998,343.597 847.991,246.376 849.984,233.91 851.977,196.957 853.97,261.345 855.964,244.7 857.957,167.765 859.95,304.712 861.943,300.586 863.936,152.816 865.929,247.29 867.922,407.483 869.916,391.356 871.909,484.34 873.902,193.624 875.895,311.283 877.888,299.936 879.881,294.171 881.874,242.834 883.868,196.725 885.861,282.663 887.854,246.801 889.847,222.843 891.84,219.466 893.833,195.693 895.827,307.256 897.82,169.257 899.813,221.351 901.806,204.193 903.799,161.133 905.792,217.072 907.785,332.854 909.779,266.122 911.772,345.227 913.765,254.725 915.758,172.19 917.751,279.309 919.744,220.59 921.737,503.707 923.731,156.286 925.724,222.793 927.717,196.103 929.71,384.295 931.703,150.851 933.696,244.905 935.689,362.263 937.683,179.716 939.676,383.192 941.669,266.167 943.662,372.682 945.655,309.917 947.648,358.265 949.641,184.845 951.635,153.016 953.628,162.85 955.621,235.243 957.614,323.267 959.607,265.505 961.6,142.924 963.593,181.562 965.587,310.595 967.58,152.839 969.573,215.14 971.566,205.741 973.559,148.076 975.552,198.995 977.545,420.975 979.539,227.444 981.532,229.027 983.525,208.503 985.518,203.878 987.511,288.177 989.504,301.718 991.497,203.979 993.491,188.345 995.484,207.643 997.477,256.811 999.47,241.69 1001.46,168.292 1003.46,139.8 1005.45,225.774 1007.44,201.327 1009.44,131.434 1011.43,260.454 1013.42,207.032 1015.42,414.351 1017.41,448.348 1019.4,354.986 1021.39,251.285 1023.39,244.478 1025.38,147.593 1027.37,252.979 1029.37,235.777 1031.36,212.632 1033.35,243.811 1035.35,314.901 1037.34,253.324 1039.33,129.806 1041.33,202.858 1043.32,168.423 1045.31,172.285 1047.31,186.578 1049.3,159.859 1051.29,256.784 1053.28,308.954 1055.28,343.785 1057.27,149.333 1059.26,176.026 1061.26,235.122 1063.25,287.523 1065.24,201.814 1067.24,208.456 1069.23,264.703 1071.22,246.271 1073.22,166.436 1075.21,163.753 1077.2,216.577 1079.2,186.581 1081.19,229.551 1083.18,360.208 1085.18,234.842 1087.17,209.617 1089.16,301.241 1091.15,131.294 1093.15,270.413 1095.14,149.333 1097.13,251.288 1099.13,291.423 1101.12,313.366 1103.11,179.223 1105.11,311.803 1107.1,205.379 1109.09,205.441 1111.09,210.45 1113.08,239.274 1115.07,299.02 1117.07,268.519 1119.06,108.612 1121.05,306.507 1123.05,309.489 1125.04,194.62 1127.03,193.741 1129.02,337.23 1131.02,426.877 1133.01,378.515 1135,186.778 1137,189.419 1138.99,259.208 1140.98,265.831 1142.98,364.746 1144.97,460.529 1146.96,225.983 1148.96,145.077 1150.95,283.452 1152.94,154.49 1154.94,267.919 1156.93,270.833 1158.92,220.68 1160.91,209.39 1162.91,125.447 1164.9,234.011 1166.89,155.358 1168.89,274.352 1170.88,163.077 1172.87,302.687 1174.87,174.904 1176.86,203.599 1178.85,114.017 1180.85,295.347 1182.84,337.793 1184.83,242.429 1186.83,369.294 1188.82,326.425 1190.81,188.792 1192.81,401.395 1194.8,340.637 1196.79,237.562 1198.78,114.565 1200.78,333.617 1202.77,266.814 1204.76,257.153 1206.76,278.681 1208.75,239.578 1210.74,304.819 1212.74,268.014 1214.73,131.199 1216.72,223.193 1218.72,227.972 1220.71,355.806 1222.7,292.981 1224.7,244.698 1226.69,299.528 1228.68,193.364 1230.67,205.624 1232.67,436.008 1234.66,246.061 1236.65,341.382 1238.65,244.722 1240.64,239.957 1242.63,136.603 1244.63,239.175 1246.62,239.482 1248.61,145.892 1250.61,351.764 1252.6,288.85 1254.59,347.987 1256.59,251.978 1258.58,485.561 1260.57,192.255 1262.57,261.474 1264.56,142.771 1266.55,167.969 1268.54,383.216 1270.54,353.801 1272.53,231.924 1274.52,148.251 1276.52,175.832 1278.51,268.509 1280.5,224.523 1282.5,268.501 1284.49,197.872 1286.48,149.652 1288.48,226.014 1290.47,321.62 1292.46,267.647 1294.46,189.586 1296.45,297.619 1298.44,219.144 1300.44,373.24 1302.43,117.993 1304.42,207.543 1306.41,184.979 1308.41,233.206 1310.4,235.838 1312.39,295.803 1314.39,177.463 1316.38,302.685 1318.37,241.479 1320.37,281.187 1322.36,174.23 1324.35,196.809 1326.35,306.125 1328.34,150.537 1330.33,140.805 1332.33,262.724 1334.32,232.393 1336.31,146.888 1338.3,230.958 1340.3,206.418 1342.29,137.38 1344.28,220.978 1346.28,232.879 1348.27,261.437 1350.26,171.656 1352.26,206.302 1354.25,403.535 1356.24,220.715 1358.24,222.842 1360.23,285.342 1362.22,163.815 1364.22,171.077 1366.21,199.984 1368.2,324.305 1370.2,346.061 1372.19,225.924 1374.18,114.743 1376.17,155.068 1378.17,254.37 1380.16,184.298 1382.15,306.365 1384.15,198.308 1386.14,86.1857 1388.13,189.614 1390.13,179.063 1392.12,299.515 1394.11,235.258 1396.11,220.982 1398.1,199.82 1400.09,286.569 1402.09,351.285 1404.08,471.034 1406.07,179.576 1408.06,154.14 1410.06,135.441 1412.05,177.563 1414.04,161.001 1416.04,287.126 1418.03,197.869 1420.02,199.141 1422.02,229.276 1424.01,397.041 1426,431.821 1428,255.751 1429.99,332.379 1431.98,203.635 1433.98,149.3 1435.97,278.366 1437.96,226.677 1439.96,181.788 1441.95,490.225 1443.94,101.554 1445.93,225.819 1447.93,285.254 1449.92,266.127 1451.91,379.258 1453.91,169.239 1455.9,231.94 1457.89,185.582 1459.89,294.937 1461.88,299.739 1463.87,124.827 1465.87,252.448 1467.86,285.664 1469.85,275.028 1471.85,409.139 1473.84,239.132 1475.83,159.692 1477.82,274.129 1479.82,170.333 1481.81,271.265 1483.8,284.933 1485.8,244.603 1487.79,244.277 1489.78,155.246 1491.78,252.998 1493.77,229.981 1495.76,186.943 1497.76,171.876 1499.75,265.966 1501.74,201.608 1503.74,326.025 1505.73,212.816 1507.72,268.85 1509.72,177.114 1511.71,327.894 1513.7,348.294 1515.69,169.07 1517.69,273.237 1519.68,289.656 1521.67,252.432 1523.67,152.199 1525.66,185.927 1527.65,187.342 1529.65,183.412 1531.64,240.992 1533.63,208.151 1535.63,177.899 1537.62,376.659 1539.61,204.69 1541.61,242.891 1543.6,269.202 1545.59,168.792 1547.59,207.461 1549.58,136.426 1551.57,265.151 1553.56,215.592 1555.56,237.563 1557.55,191.948 1559.54,278.036 1561.54,144.196 1563.53,263.768 1565.52,225.151 1567.52,358.751 1569.51,255.86 1571.5,299.067 1573.5,173.608 1575.49,200.058 1577.48,278.787 1579.48,142.302 1581.47,209.384 1583.46,192.465 1585.45,208.193 1587.45,404.78 1589.44,175.871 1591.43,160.38 1593.43,177.584 1595.42,340.437 1597.41,143.966 1599.41,227.382 1601.4,148.396 1603.39,280.54 1605.39,250.028 1607.38,267.352 1609.37,131.289 1611.37,239.541 1613.36,158.549 1615.35,257.063 1617.35,248.219 1619.34,376.479 1621.33,149.538 1623.32,211.695 1625.32,222.138 1627.31,312.714 1629.3,234.17 1631.3,194.43 1633.29,224.048 1635.28,246.019 1637.28,254.43 1639.27,258.999 1641.26,196.933 1643.26,419.404 1645.25,197.594 1647.24,245.636 1649.24,198.88 1651.23,170.554 1653.22,147.164 1655.21,377.139 1657.21,185.439 1659.2,188.93 1661.19,348.155 1663.19,298.983 1665.18,168.875 1667.17,223.714 1669.17,261.82 1671.16,278.572 1673.15,151.374 1675.15,219.204 1677.14,219.862 1679.13,223.759 1681.13,334.868 1683.12,166.195 1685.11,242.558 1687.11,214.98 1689.1,271.628 1691.09,240.912 1693.08,279.033 1695.08,208.837 1697.07,197.277 1699.06,241.471 1701.06,114.341 1703.05,356.252 1705.04,279.072 1707.04,198.109 1709.03,233.779 1711.02,184.089 1713.02,164.338 1715.01,317.349 1717,164.639 1719,188.694 1720.99,230.16 1722.98,231.503 1724.97,283.97 1726.97,126.958 1728.96,172.471 1730.95,230.032 1732.95,230.174 1734.94,401.816 1736.93,258.53 1738.93,156.194 1740.92,282.774 1742.91,234.841 1744.91,215.448 1746.9,402.613 1748.89,460.48 1750.89,331.649 1752.88,223.412 1754.87,139.786 1756.87,314.011 1758.86,179.988 1760.85,264.079 1762.84,225.54 1764.84,233.588 1766.83,138.179 1768.82,153.853 1770.82,328.936 1772.81,174.339 1774.8,296.663 1776.8,219.747 1778.79,272.085 1780.78,245.08 1782.78,190.018 1784.77,232.598 1786.76,193.05 1788.76,285.91 1790.75,396.661 1792.74,187.497 1794.74,302.558 1796.73,241.378 1798.72,314.083 1800.71,265.298 1802.71,268.431 1804.7,256.314 1806.69,144.024 1808.69,188.576 1810.68,249.429 1812.67,347.085 1814.67,232.871 1816.66,186.17 1818.65,162.05 1820.65,191.818 1822.64,342.931 1824.63,151.579 1826.63,150.806 1828.62,210.852 1830.61,192.812 1832.6,311.707 1834.6,255.771 1836.59,308.334 1838.58,360.527 1840.58,199.75 1842.57,134.012 1844.56,153.973 1846.56,216.193 1848.55,156.469 1850.54,157.042 1852.54,337.574 1854.53,128.681 1856.52,161.505 1858.52,267.88 1860.51,152.934 1862.5,142.995 1864.5,471.777 1866.49,305.613 1868.48,177.409 1870.47,138.6 1872.47,185.448 1874.46,344.519 1876.45,281.135 1878.45,215.914 1880.44,376.141 1882.43,138.476 1884.43,206.187 1886.42,201.022 1888.41,211.553 1890.41,189.426 1892.4,257.774 1894.39,195.791 1896.39,162.339 1898.38,268.67 1900.37,236.134 1902.36,171.702 1904.36,417.684 1906.35,252.263 1908.34,241.931 1910.34,163.311 1912.33,185.505 1914.32,180.576 1916.32,228.774 1918.31,143.537 1920.3,203.753 1922.3,153.659 1924.29,184.719 1926.28,145.879 1928.28,146.893 1930.27,253.036 1932.26,219.23 1934.26,259.89 1936.25,206.831 1938.24,160.22 1940.23,265.032 1942.23,298.328 1944.22,336.166 1946.21,338.724 1948.21,198.575 1950.2,341.547 1952.19,281.64 1954.19,216.409 1956.18,217.583 1958.17,226.258 1960.17,276.289 1962.16,177.842 1964.15,311.443 1966.15,276.011 1968.14,194.572 1970.13,296.125 1972.12,181.819 1974.12,300.944 1976.11,131.594 1978.1,249.965 1980.1,211.082 1982.09,249.853 1984.08,137.886 1986.08,262.594 1988.07,279.669 1990.06,320.021 1992.06,266.398 1994.05,201.721 1996.04,149.163 1998.04,150.746 2000.03,145.097 2002.02,281.462 2004.02,140.674 2006.01,162.538 2008,291.908 2009.99,209.093 2011.99,345.213 2013.98,165.489 2015.97,219.778 2017.97,197.098 2019.96,279.934 2021.95,149.133 2023.95,211.405 2025.94,280.786 2027.93,114.279 2029.93,161.304 2031.92,151.223 2033.91,264.631 2035.91,112.865 2037.9,331.533 2039.89,204.784 2041.89,295.684 2043.88,229.446 2045.87,183.25 2047.86,124.988 2049.86,245.061 2051.85,191.125 2053.84,275.085 2055.84,176.275 2057.83,188.9 2059.82,172.952 2061.82,211.142 2063.81,144.456 2065.8,262.39 2067.8,158.477 2069.79,197.605 2071.78,282.899 2073.78,207.435 2075.77,213.185 2077.76,133.859 2079.75,95.0972 2081.75,160.532 2083.74,229.459 2085.73,298.024 2087.73,362.823 2089.72,319.021 2091.71,157.516 2093.71,197.021 2095.7,210.886 2097.69,228.217 2099.69,287.097 2101.68,258.058 2103.67,174.039 2105.67,165.439 2107.66,290.969 2109.65,369.204 2111.65,309.965 2113.64,274.317 2115.63,181.63 2117.62,579.938 2119.62,234.022 2121.61,171.335 2123.6,176.556 2125.6,559.826 2127.59,261.609 2129.58,216.459 2131.58,244.338 2133.57,373.718 2135.56,197.479 2137.56,238.745 2139.55,96.1581 2141.54,278.186 2143.54,218.835 2145.53,396.274 2147.52,115.256 2149.51,215.324 2151.51,137.022 2153.5,288.822 2155.49,169.54 2157.49,303.28 2159.48,208.043 2161.47,272.387 2163.47,248.168 2165.46,236.678 2167.45,191.848 2169.45,175.814 2171.44,149.356 2173.43,168.256 2175.43,239.993 2177.42,294.258 2179.41,296.81 2181.41,272.475 2183.4,164.518 2185.39,329.735 2187.38,237.198 2189.38,259.325 2191.37,227.054 2193.36,273.643 2195.36,263.862 2197.35,264.456 2199.34,238.207 2201.34,167.56 2203.33,193.947 2205.32,299.892 2207.32,144.12 2209.31,680.033 2211.3,384.951 2213.3,308.377 2215.29,249.821 2217.28,331.067 2219.27,173.891 2221.27,275.966 2223.26,99.7593 2225.25,216.167 2227.25,239.647 2229.24,271.915 2231.23,202.879 2233.23,157.554 2235.22,202.814 2237.21,191.527 2239.21,309.063 2241.2,309.721 2243.19,207.756 2245.19,248.066 2247.18,260.544 2249.17,177.876 2251.17,137.364 2253.16,263.883 2255.15,301.141 2257.14,255.2 2259.14,166.541 2261.13,216.843 2263.12,153.414 2265.12,299.074 2267.11,358.613 2269.1,536.404 2271.1,313.94 2273.09,160.742 2275.08,213.722 2277.08,151.816 2279.07,122.983 2281.06,226.966 2283.06,216.832 2285.05,158.221 2287.04,130.182 2289.04,228.882 2291.03,190.881 2293.02,179.206 "/>
<polyline clip-path="url(#clip532)" style="stroke:#e26f46; stroke-linecap:round; stroke-linejoin:round; stroke-width:4; stroke-opacity:1; fill:none" points="301.869,1017.88 303.862,686.8 305.856,815.35 307.849,950.841 309.842,655.078 311.835,1117.84 313.828,973.323 315.821,700.168 317.814,1216.47 319.808,984.053 321.801,1154.53 323.794,549.691 325.787,692.689 327.78,585.13 329.773,1206.79 331.766,832.753 333.76,753.887 335.753,785.81 337.746,1041.57 339.739,883.816 341.732,696.388 343.725,664.91 345.718,721.821 347.712,815.376 349.705,662.57 351.698,542.686 353.691,734.351 355.684,663.982 357.677,638.879 359.67,875.628 361.664,860.54 363.657,604.521 365.65,832.108 367.643,680.168 369.636,723.175 371.629,995.377 373.622,856.645 375.616,832.65 377.609,651.237 379.602,810.91 381.595,510.28 383.588,625.051 385.581,726.423 387.574,672.677 389.568,973.271 391.561,705.986 393.554,680.608 395.547,394.977 397.54,740.561 399.533,747.68 401.526,737.615 403.52,547.641 405.513,790.265 407.506,517.099 409.499,608.233 411.492,680.088 413.485,345.463 415.479,600.922 417.472,609.483 419.465,541.06 421.458,460.27 423.451,476.443 425.444,515.614 427.437,887.708 429.431,418.712 431.424,591.484 433.417,300.549 435.41,361.407 437.403,539.908 439.396,615.779 441.389,675.063 443.383,541.795 445.376,528.348 447.369,438.082 449.362,539.429 451.355,326.261 453.348,631.977 455.341,585.142 457.335,613.551 459.328,498.13 461.321,550.563 463.314,335.256 465.307,451.312 467.3,345.567 469.293,430.664 471.287,287.697 473.28,558.352 475.273,507.899 477.266,401.095 479.259,685.689 481.252,503.308 483.245,292.126 485.239,675.164 487.232,324.516 489.225,408.718 491.218,473.436 493.211,502.906 495.204,582.698 497.197,637.667 499.191,410.715 501.184,565.625 503.177,505.112 505.17,427.515 507.163,504.574 509.156,459.791 511.149,461.003 513.143,530.074 515.136,367.117 517.129,254.291 519.122,419.328 521.115,419.247 523.108,405.86 525.101,608.981 527.095,514.75 529.088,247.985 531.081,456.423 533.074,412.607 535.067,366.857 537.06,309.819 539.054,603.756 541.047,395.463 543.04,470.017 545.033,343.697 547.026,329.54 549.019,458.413 551.012,181.811 553.006,336.664 554.999,458.968 556.992,244.407 558.985,378.755 560.978,286.033 562.971,391.253 564.964,284.65 566.958,414.021 568.951,199.655 570.944,425.895 572.937,262.848 574.93,496.971 576.923,331.561 578.916,490.103 580.91,393.182 582.903,320.988 584.896,391.311 586.889,274.103 588.882,442.174 590.875,275.506 592.868,252.988 594.862,336.62 596.855,418.314 598.848,359.098 600.841,313.95 602.834,281.453 604.827,408.105 606.82,372.339 608.814,361.331 610.807,181.932 612.8,412.224 614.793,388.574 616.786,439.115 618.779,240.064 620.772,289.317 622.766,205.058 624.759,260.711 626.752,331.377 628.745,337.726 630.738,338.834 632.731,212.851 634.724,277.635 636.718,259.293 638.711,282.416 640.704,329.199 642.697,250.352 644.69,270.153 646.683,315.572 648.677,187.128 650.67,228.635 652.663,248.686 654.656,255.865 656.649,272.094 658.642,318.372 660.635,351.948 662.629,228.846 664.622,313.238 666.615,276.232 668.608,250.732 670.601,309.395 672.594,232.821 674.587,314.764 676.581,241.99 678.574,228.052 680.567,238.94 682.56,145.922 684.553,256.039 686.546,198.049 688.539,306.334 690.533,288.559 692.526,282.029 694.519,256.231 696.512,256.481 698.505,328.377 700.498,165.672 702.491,233.481 704.485,187.898 706.478,296.741 708.471,302.378 710.464,363.341 712.457,331.55 714.45,321.838 716.443,287.302 718.437,207.638 720.43,201.138 722.423,229.493 724.416,305.093 726.409,244.303 728.402,273.475 730.395,308.119 732.389,259.294 734.382,259.085 736.375,273.819 738.368,268.092 740.361,314.257 742.354,268.251 744.347,250.575 746.341,285.297 748.334,281.574 750.327,247.417 752.32,219.201 754.313,310.696 756.306,357.343 758.299,296.239 760.293,196.618 762.286,263.091 764.279,294.935 766.272,199.985 768.265,308.19 770.258,261.162 772.252,232.347 774.245,217.401 776.238,257.677 778.231,187.127 780.224,281.573 782.217,177.821 784.21,251.293 786.204,231.693 788.197,223.684 790.19,252.13 792.183,244.535 794.176,293.257 796.169,217.006 798.162,177.391 800.156,225.648 802.149,260.945 804.142,176.457 806.135,246.901 808.128,256.166 810.121,228.994 812.114,276.56 814.108,298.012 816.101,248.299 818.094,210.586 820.087,290.615 822.08,261.489 824.073,255.098 826.066,236.915 828.06,238.425 830.053,251.702 832.046,231.761 834.039,231.561 836.032,220.843 838.025,251.503 840.018,272.947 842.012,231.92 844.005,250.191 845.998,213.552 847.991,233.616 849.984,231.162 851.977,215.729 853.97,248.435 855.964,270.692 857.957,218.636 859.95,224.024 861.943,234.521 863.936,254.819 865.929,253.688 867.922,246.208 869.916,187.595 871.909,223.114 873.902,265.277 875.895,219.597 877.888,281.347 879.881,219.545 881.874,266.868 883.868,254.951 885.861,253.287 887.854,229.429 889.847,252.55 891.84,243.246 893.833,265.01 895.827,247.542 897.82,242.932 899.813,242.53 901.806,240.276 903.799,254.346 905.792,232.836 907.785,233.263 909.779,239.538 911.772,267.831 913.765,235.368 915.758,237.97 917.751,217.733 919.744,246.745 921.737,218.892 923.731,227.342 925.724,219.8 927.717,228.953 929.71,249.689 931.703,254.871 933.696,242.586 935.689,251.232 937.683,228.125 939.676,239.046 941.669,279.117 943.662,224.001 945.655,251.183 947.648,223.593 949.641,226.359 951.635,218.786 953.628,243.807 955.621,222.996 957.614,238.706 959.607,254.276 961.6,252.462 963.593,250.944 965.587,232.486 967.58,252.477 969.573,249.55 971.566,211.415 973.559,240.404 975.552,256.078 977.545,235.525 979.539,233.337 981.532,234.61 983.525,240.923 985.518,221.465 987.511,253.562 989.504,220.446 991.497,231.642 993.491,255.932 995.484,236.952 997.477,230.877 999.47,232.007 1001.46,243.405 1003.46,237.881 1005.45,224.452 1007.44,237.18 1009.44,231.681 1011.43,250.359 1013.42,248.968 1015.42,245.468 1017.41,232.303 1019.4,245.072 1021.39,228.591 1023.39,252.365 1025.38,238.919 1027.37,218.496 1029.37,240.421 1031.36,227.074 1033.35,240.467 1035.35,231.289 1037.34,243.196 1039.33,234.526 1041.33,237.844 1043.32,235.549 1045.31,239.459 1047.31,238.753 1049.3,234.576 1051.29,221.91 1053.28,232.051 1055.28,238.87 1057.27,239.528 1059.26,220.784 1061.26,233.595 1063.25,241.195 1065.24,231.859 1067.24,232.76 1069.23,226.639 1071.22,239.877 1073.22,244.062 1075.21,244.657 1077.2,236.607 1079.2,244.257 1081.19,240.303 1083.18,229.438 1085.18,234.143 1087.17,237.058 1089.16,236.249 1091.15,236.824 1093.15,236.993 1095.14,235.397 1097.13,239.398 1099.13,241.486 1101.12,228.456 1103.11,240.504 1105.11,242.394 1107.1,238.078 1109.09,239.471 1111.09,242.029 1113.08,242.278 1115.07,232.5 1117.07,246.074 1119.06,241.201 1121.05,233.943 1123.05,232.726 1125.04,236.162 1127.03,238.953 1129.02,233.594 1131.02,242.56 1133.01,240.078 1135,238.466 1137,243.232 1138.99,232.086 1140.98,234.752 1142.98,234.828 1144.97,238.416 1146.96,239.502 1148.96,231.041 1150.95,246.106 1152.94,232.739 1154.94,231.029 1156.93,236.903 1158.92,232.44 1160.91,240.34 1162.91,239.063 1164.9,234.503 1166.89,240.881 1168.89,229.656 1170.88,232.652 1172.87,231.638 1174.87,234.646 1176.86,233.959 1178.85,239.171 1180.85,236.226 1182.84,235.113 1184.83,238.302 1186.83,240.018 1188.82,238.275 1190.81,234.34 1192.81,236.722 1194.8,231.146 1196.79,233.351 1198.78,235.706 1200.78,229.59 1202.77,239.001 1204.76,235.078 1206.76,232.054 1208.75,237.312 1210.74,235.509 1212.74,234.349 1214.73,239.633 1216.72,233.93 1218.72,234.138 1220.71,233.885 1222.7,233.651 1224.7,237.248 1226.69,232.204 1228.68,233.417 1230.67,233.338 1232.67,237.21 1234.66,234.484 1236.65,236.336 1238.65,238.795 1240.64,236.907 1242.63,239.271 1244.63,236.437 1246.62,234.648 1248.61,235.821 1250.61,237.694 1252.6,235.156 1254.59,233.751 1256.59,237.801 1258.58,233.407 1260.57,234.827 1262.57,235.688 1264.56,238.031 1266.55,236.272 1268.54,233.204 1270.54,236.04 1272.53,236.923 1274.52,237.689 1276.52,234.948 1278.51,236.473 1280.5,236.905 1282.5,235.845 1284.49,236.981 1286.48,235.275 1288.48,234.479 1290.47,235.3 1292.46,234.161 1294.46,236.452 1296.45,235.335 1298.44,235.643 1300.44,235.584 1302.43,237.402 1304.42,236.573 1306.41,235.105 1308.41,235.229 1310.4,236.246 1312.39,233.956 1314.39,236.071 1316.38,235.994 1318.37,235.212 1320.37,236.332 1322.36,236.075 1324.35,234.869 1326.35,236.094 1328.34,235.681 1330.33,235.882 1332.33,236.492 1334.32,235.708 1336.31,236.325 1338.3,236.811 1340.3,236.751 1342.29,236.151 1344.28,236.335 1346.28,236.912 1348.27,235.349 1350.26,236.458 1352.26,236.745 1354.25,235.985 1356.24,235.573 1358.24,235.556 1360.23,234.106 1362.22,235.631 1364.22,235.073 1366.21,235.791 1368.2,237.229 1370.2,236.001 1372.19,235.388 1374.18,236.25 1376.17,234.809 1378.17,235.424 1380.16,234.677 1382.15,235.674 1384.15,237.076 1386.14,237.018 1388.13,235.893 1390.13,235.577 1392.12,237.746 1394.11,235.58 1396.11,236.56 1398.1,235.852 1400.09,235.499 1402.09,236.55 1404.08,236.08 1406.07,236.719 1408.06,236.606 1410.06,235.229 1412.05,235.846 1414.04,235.788 1416.04,235.914 1418.03,235.786 1420.02,235.885 1422.02,235.301 1424.01,236.098 1426,234.752 1428,236.614 1429.99,235.885 1431.98,235.411 1433.98,236.181 1435.97,236.461 1437.96,235.63 1439.96,235.454 1441.95,236.294 1443.94,236.263 1445.93,235.862 1447.93,235.607 1449.92,236.371 1451.91,235.695 1453.91,235.592 1455.9,235.692 1457.89,235.772 1459.89,235.73 1461.88,236.626 1463.87,235.24 1465.87,235.387 1467.86,236.118 1469.85,235.928 1471.85,235.681 1473.84,235.81 1475.83,236.327 1477.82,236.113 1479.82,236.127 1481.81,236.192 1483.8,235.558 1485.8,236.196 1487.79,235.868 1489.78,235.655 1491.78,236.625 1493.77,235.922 1495.76,236.068 1497.76,235.475 1499.75,235.641 1501.74,235.947 1503.74,235.931 1505.73,235.795 1507.72,236.165 1509.72,235.969 1511.71,235.75 1513.7,235.614 1515.69,235.851 1517.69,235.767 1519.68,235.991 1521.67,235.689 1523.67,236.09 1525.66,235.738 1527.65,235.583 1529.65,235.895 1531.64,235.756 1533.63,235.752 1535.63,235.929 1537.62,235.91 1539.61,235.725 1541.61,235.679 1543.6,235.818 1545.59,236.077 1547.59,235.993 1549.58,235.457 1551.57,235.865 1553.56,235.806 1555.56,235.752 1557.55,236.066 1559.54,235.907 1561.54,235.828 1563.53,235.904 1565.52,235.868 1567.52,235.897 1569.51,235.859 1571.5,236.165 1573.5,235.855 1575.49,235.94 1577.48,236.032 1579.48,235.759 1581.47,235.888 1583.46,235.822 1585.45,235.991 1587.45,235.957 1589.44,235.936 1591.43,235.967 1593.43,235.871 1595.42,235.95 1597.41,235.947 1599.41,235.875 1601.4,235.881 1603.39,236.023 1605.39,235.894 1607.38,235.958 1609.37,235.925 1611.37,235.856 1613.36,235.778 1615.35,235.912 1617.35,235.978 1619.34,235.881 1621.33,235.895 1623.32,235.931 1625.32,235.862 1627.31,235.833 1629.3,235.812 1631.3,235.874 1633.29,235.956 1635.28,235.897 1637.28,235.849 1639.27,235.876 1641.26,235.851 1643.26,235.842 1645.25,235.888 1647.24,235.921 1649.24,235.93 1651.23,235.923 1653.22,235.921 1655.21,235.839 1657.21,235.863 1659.2,235.904 1661.19,235.896 1663.19,235.825 1665.18,235.956 1667.17,235.861 1669.17,235.918 1671.16,235.875 1673.15,235.886 1675.15,235.928 1677.14,235.905 1679.13,235.878 1681.13,235.862 1683.12,235.901 1685.11,235.842 1687.11,235.882 1689.1,235.855 1691.09,235.878 1693.08,235.877 1695.08,235.93 1697.07,235.886 1699.06,235.937 1701.06,235.899 1703.05,235.921 1705.04,235.897 1707.04,235.924 1709.03,235.864 1711.02,235.931 1713.02,235.902 1715.01,235.948 1717,235.93 1719,235.907 1720.99,235.887 1722.98,235.895 1724.97,235.895 1726.97,235.897 1728.96,235.925 1730.95,235.885 1732.95,235.892 1734.94,235.897 1736.93,235.906 1738.93,235.881 1740.92,235.885 1742.91,235.928 1744.91,235.888 1746.9,235.904 1748.89,235.88 1750.89,235.903 1752.88,235.896 1754.87,235.895 1756.87,235.893 1758.86,235.902 1760.85,235.881 1762.84,235.867 1764.84,235.907 1766.83,235.851 1768.82,235.904 1770.82,235.89 1772.81,235.907 1774.8,235.888 1776.8,235.91 1778.79,235.905 1780.78,235.898 1782.78,235.888 1784.77,235.885 1786.76,235.903 1788.76,235.906 1790.75,235.898 1792.74,235.896 1794.74,235.906 1796.73,235.914 1798.72,235.906 1800.71,235.903 1802.71,235.903 1804.7,235.906 1806.69,235.896 1808.69,235.908 1810.68,235.913 1812.67,235.916 1814.67,235.898 1816.66,235.902 1818.65,235.909 1820.65,235.899 1822.64,235.902 1824.63,235.919 1826.63,235.932 1828.62,235.902 1830.61,235.924 1832.6,235.913 1834.6,235.904 1836.59,235.903 1838.58,235.896 1840.58,235.906 1842.57,235.9 1844.56,235.908 1846.56,235.907 1848.55,235.903 1850.54,235.898 1852.54,235.91 1854.53,235.898 1856.52,235.906 1858.52,235.907 1860.51,235.904 1862.5,235.91 1864.5,235.905 1866.49,235.91 1868.48,235.903 1870.47,235.908 1872.47,235.912 1874.46,235.906 1876.45,235.906 1878.45,235.908 1880.44,235.901 1882.43,235.908 1884.43,235.904 1886.42,235.906 1888.41,235.903 1890.41,235.904 1892.4,235.902 1894.39,235.907 1896.39,235.906 1898.38,235.904 1900.37,235.903 1902.36,235.902 1904.36,235.907 1906.35,235.9 1908.34,235.904 1910.34,235.902 1912.33,235.905 1914.32,235.899 1916.32,235.907 1918.31,235.906 1920.3,235.904 1922.3,235.902 1924.29,235.906 1926.28,235.901 1928.28,235.903 1930.27,235.906 1932.26,235.902 1934.26,235.907 1936.25,235.907 1938.24,235.901 1940.23,235.902 1942.23,235.904 1944.22,235.906 1946.21,235.906 1948.21,235.903 1950.2,235.904 1952.19,235.904 1954.19,235.905 1956.18,235.904 1958.17,235.905 1960.17,235.905 1962.16,235.905 1964.15,235.905 1966.15,235.906 1968.14,235.905 1970.13,235.904 1972.12,235.905 1974.12,235.906 1976.11,235.903 1978.1,235.905 1980.1,235.904 1982.09,235.905 1984.08,235.906 1986.08,235.906 1988.07,235.905 1990.06,235.904 1992.06,235.903 1994.05,235.904 1996.04,235.906 1998.04,235.906 2000.03,235.906 2002.02,235.903 2004.02,235.904 2006.01,235.905 2008,235.905 2009.99,235.905 2011.99,235.904 2013.98,235.904 2015.97,235.905 2017.97,235.904 2019.96,235.903 2021.95,235.905 2023.95,235.904 2025.94,235.905 2027.93,235.905 2029.93,235.904 2031.92,235.905 2033.91,235.904 2035.91,235.905 2037.9,235.905 2039.89,235.904 2041.89,235.904 2043.88,235.904 2045.87,235.906 2047.86,235.905 2049.86,235.905 2051.85,235.904 2053.84,235.905 2055.84,235.904 2057.83,235.905 2059.82,235.905 2061.82,235.905 2063.81,235.905 2065.8,235.905 2067.8,235.905 2069.79,235.905 2071.78,235.904 2073.78,235.905 2075.77,235.905 2077.76,235.905 2079.75,235.905 2081.75,235.904 2083.74,235.905 2085.73,235.905 2087.73,235.905 2089.72,235.905 2091.71,235.904 2093.71,235.905 2095.7,235.905 2097.69,235.905 2099.69,235.905 2101.68,235.905 2103.67,235.905 2105.67,235.905 2107.66,235.905 2109.65,235.904 2111.65,235.905 2113.64,235.905 2115.63,235.905 2117.62,235.905 2119.62,235.905 2121.61,235.905 2123.6,235.905 2125.6,235.905 2127.59,235.905 2129.58,235.905 2131.58,235.905 2133.57,235.905 2135.56,235.905 2137.56,235.905 2139.55,235.905 2141.54,235.905 2143.54,235.905 2145.53,235.905 2147.52,235.905 2149.51,235.905 2151.51,235.905 2153.5,235.905 2155.49,235.905 2157.49,235.905 2159.48,235.905 2161.47,235.905 2163.47,235.905 2165.46,235.905 2167.45,235.905 2169.45,235.905 2171.44,235.905 2173.43,235.905 2175.43,235.905 2177.42,235.905 2179.41,235.905 2181.41,235.905 2183.4,235.905 2185.39,235.905 2187.38,235.905 2189.38,235.905 2191.37,235.905 2193.36,235.905 2195.36,235.905 2197.35,235.905 2199.34,235.905 2201.34,235.905 2203.33,235.905 2205.32,235.905 2207.32,235.905 2209.31,235.905 2211.3,235.905 2213.3,235.905 2215.29,235.905 2217.28,235.905 2219.27,235.905 2221.27,235.905 2223.26,235.905 2225.25,235.905 2227.25,235.905 2229.24,235.905 2231.23,235.905 2233.23,235.905 2235.22,235.905 2237.21,235.905 2239.21,235.905 2241.2,235.905 2243.19,235.905 2245.19,235.905 2247.18,235.905 2249.17,235.905 2251.17,235.905 2253.16,235.905 2255.15,235.905 2257.14,235.905 2259.14,235.905 2261.13,235.905 2263.12,235.905 2265.12,235.905 2267.11,235.905 2269.1,235.905 2271.1,235.905 2273.09,235.905 2275.08,235.905 2277.08,235.905 2279.07,235.905 2281.06,235.905 2283.06,235.905 2285.05,235.905 2287.04,235.905 2289.04,235.905 2291.03,235.905 2293.02,235.905 "/>
<path clip-path="url(#clip530)" d="M1863.63 1377.32 L2282.4 1377.32 L2282.4 1221.8 L1863.63 1221.8  Z" fill="#ffffff" fill-rule="evenodd" fill-opacity="1"/>
<polyline clip-path="url(#clip530)" style="stroke:#000000; stroke-linecap:round; stroke-linejoin:round; stroke-width:4; stroke-opacity:1; fill:none" points="1863.63,1377.32 2282.4,1377.32 2282.4,1221.8 1863.63,1221.8 1863.63,1377.32 "/>
<polyline clip-path="url(#clip530)" style="stroke:#009af9; stroke-linecap:round; stroke-linejoin:round; stroke-width:4; stroke-opacity:1; fill:none" points="1887.08,1273.64 2027.79,1273.64 "/>
<path clip-path="url(#clip530)" d="M2055.92 1274.41 L2055.92 1287.07 L2063.42 1287.07 Q2067.19 1287.07 2069 1285.52 Q2070.83 1283.95 2070.83 1280.73 Q2070.83 1277.49 2069 1275.96 Q2067.19 1274.41 2063.42 1274.41 L2055.92 1274.41 M2055.92 1260.2 L2055.92 1270.61 L2062.84 1270.61 Q2066.27 1270.61 2067.93 1269.34 Q2069.62 1268.05 2069.62 1265.41 Q2069.62 1262.79 2067.93 1261.49 Q2066.27 1260.2 2062.84 1260.2 L2055.92 1260.2 M2051.24 1256.36 L2063.19 1256.36 Q2068.53 1256.36 2071.43 1258.58 Q2074.32 1260.8 2074.32 1264.9 Q2074.32 1268.07 2072.84 1269.94 Q2071.36 1271.82 2068.49 1272.28 Q2071.94 1273.02 2073.84 1275.38 Q2075.76 1277.72 2075.76 1281.24 Q2075.76 1285.87 2072.61 1288.39 Q2069.46 1290.92 2063.65 1290.92 L2051.24 1290.92 L2051.24 1256.36 Z" fill="#000000" fill-rule="nonzero" fill-opacity="1" /><path clip-path="url(#clip530)" d="M2088.44 1274.41 L2088.44 1287.07 L2095.94 1287.07 Q2099.72 1287.07 2101.52 1285.52 Q2103.35 1283.95 2103.35 1280.73 Q2103.35 1277.49 2101.52 1275.96 Q2099.72 1274.41 2095.94 1274.41 L2088.44 1274.41 M2088.44 1260.2 L2088.44 1270.61 L2095.36 1270.61 Q2098.79 1270.61 2100.46 1269.34 Q2102.15 1268.05 2102.15 1265.41 Q2102.15 1262.79 2100.46 1261.49 Q2098.79 1260.2 2095.36 1260.2 L2088.44 1260.2 M2083.77 1256.36 L2095.71 1256.36 Q2101.06 1256.36 2103.95 1258.58 Q2106.84 1260.8 2106.84 1264.9 Q2106.84 1268.07 2105.36 1269.94 Q2103.88 1271.82 2101.01 1272.28 Q2104.46 1273.02 2106.36 1275.38 Q2108.28 1277.72 2108.28 1281.24 Q2108.28 1285.87 2105.13 1288.39 Q2101.98 1290.92 2096.17 1290.92 L2083.77 1290.92 L2083.77 1256.36 Z" fill="#000000" fill-rule="nonzero" fill-opacity="1" /><path clip-path="url(#clip530)" d="M2123.74 1290.92 L2110.55 1256.36 L2115.43 1256.36 L2126.38 1285.45 L2137.35 1256.36 L2142.22 1256.36 L2129.04 1290.92 L2123.74 1290.92 Z" fill="#000000" fill-rule="nonzero" fill-opacity="1" /><path clip-path="url(#clip530)" d="M2147.26 1256.36 L2151.94 1256.36 L2151.94 1290.92 L2147.26 1290.92 L2147.26 1256.36 Z" fill="#000000" fill-rule="nonzero" fill-opacity="1" /><path clip-path="url(#clip530)" d="M2202.19 1259.02 L2202.19 1263.95 Q2199.83 1261.75 2197.15 1260.66 Q2194.48 1259.57 2191.47 1259.57 Q2185.55 1259.57 2182.4 1263.21 Q2179.25 1266.82 2179.25 1273.67 Q2179.25 1280.5 2182.4 1284.13 Q2185.55 1287.74 2191.47 1287.74 Q2194.48 1287.74 2197.15 1286.66 Q2199.83 1285.57 2202.19 1283.37 L2202.19 1288.25 Q2199.74 1289.92 2196.98 1290.75 Q2194.25 1291.59 2191.2 1291.59 Q2183.35 1291.59 2178.84 1286.79 Q2174.32 1281.98 2174.32 1273.67 Q2174.32 1265.34 2178.84 1260.55 Q2183.35 1255.73 2191.2 1255.73 Q2194.3 1255.73 2197.03 1256.56 Q2199.78 1257.37 2202.19 1259.02 Z" fill="#000000" fill-rule="nonzero" fill-opacity="1" /><path clip-path="url(#clip530)" d="M2209.41 1256.36 L2229.27 1256.36 L2229.27 1260.29 L2214.09 1260.29 L2214.09 1270.48 L2227.79 1270.48 L2227.79 1274.41 L2214.09 1274.41 L2214.09 1290.92 L2209.41 1290.92 L2209.41 1256.36 Z" fill="#000000" fill-rule="nonzero" fill-opacity="1" /><path clip-path="url(#clip530)" d="M2236.68 1256.36 L2258.53 1256.36 L2258.53 1260.29 L2241.36 1260.29 L2241.36 1270.52 L2257.82 1270.52 L2257.82 1274.46 L2241.36 1274.46 L2241.36 1286.98 L2258.95 1286.98 L2258.95 1290.92 L2236.68 1290.92 L2236.68 1256.36 Z" fill="#000000" fill-rule="nonzero" fill-opacity="1" /><polyline clip-path="url(#clip530)" style="stroke:#e26f46; stroke-linecap:round; stroke-linejoin:round; stroke-width:4; stroke-opacity:1; fill:none" points="1887.08,1325.48 2027.79,1325.48 "/>
<path clip-path="url(#clip530)" d="M2055.92 1326.25 L2055.92 1338.91 L2063.42 1338.91 Q2067.19 1338.91 2069 1337.36 Q2070.83 1335.79 2070.83 1332.57 Q2070.83 1329.33 2069 1327.8 Q2067.19 1326.25 2063.42 1326.25 L2055.92 1326.25 M2055.92 1312.04 L2055.92 1322.45 L2062.84 1322.45 Q2066.27 1322.45 2067.93 1321.18 Q2069.62 1319.89 2069.62 1317.25 Q2069.62 1314.63 2067.93 1313.33 Q2066.27 1312.04 2062.84 1312.04 L2055.92 1312.04 M2051.24 1308.2 L2063.19 1308.2 Q2068.53 1308.2 2071.43 1310.42 Q2074.32 1312.64 2074.32 1316.74 Q2074.32 1319.91 2072.84 1321.78 Q2071.36 1323.66 2068.49 1324.12 Q2071.94 1324.86 2073.84 1327.22 Q2075.76 1329.56 2075.76 1333.08 Q2075.76 1337.71 2072.61 1340.23 Q2069.46 1342.76 2063.65 1342.76 L2051.24 1342.76 L2051.24 1308.2 Z" fill="#000000" fill-rule="nonzero" fill-opacity="1" /><path clip-path="url(#clip530)" d="M2088.44 1326.25 L2088.44 1338.91 L2095.94 1338.91 Q2099.72 1338.91 2101.52 1337.36 Q2103.35 1335.79 2103.35 1332.57 Q2103.35 1329.33 2101.52 1327.8 Q2099.72 1326.25 2095.94 1326.25 L2088.44 1326.25 M2088.44 1312.04 L2088.44 1322.45 L2095.36 1322.45 Q2098.79 1322.45 2100.46 1321.18 Q2102.15 1319.89 2102.15 1317.25 Q2102.15 1314.63 2100.46 1313.33 Q2098.79 1312.04 2095.36 1312.04 L2088.44 1312.04 M2083.77 1308.2 L2095.71 1308.2 Q2101.06 1308.2 2103.95 1310.42 Q2106.84 1312.64 2106.84 1316.74 Q2106.84 1319.91 2105.36 1321.78 Q2103.88 1323.66 2101.01 1324.12 Q2104.46 1324.86 2106.36 1327.22 Q2108.28 1329.56 2108.28 1333.08 Q2108.28 1337.71 2105.13 1340.23 Q2101.98 1342.76 2096.17 1342.76 L2083.77 1342.76 L2083.77 1308.2 Z" fill="#000000" fill-rule="nonzero" fill-opacity="1" /><path clip-path="url(#clip530)" d="M2123.74 1342.76 L2110.55 1308.2 L2115.43 1308.2 L2126.38 1337.29 L2137.35 1308.2 L2142.22 1308.2 L2129.04 1342.76 L2123.74 1342.76 Z" fill="#000000" fill-rule="nonzero" fill-opacity="1" /><path clip-path="url(#clip530)" d="M2147.26 1308.2 L2151.94 1308.2 L2151.94 1342.76 L2147.26 1342.76 L2147.26 1308.2 Z" fill="#000000" fill-rule="nonzero" fill-opacity="1" /><path clip-path="url(#clip530)" d="M2197.03 1309.33 L2197.03 1313.89 Q2194.37 1312.62 2192.01 1311.99 Q2189.65 1311.37 2187.45 1311.37 Q2183.63 1311.37 2181.54 1312.85 Q2179.48 1314.33 2179.48 1317.06 Q2179.48 1319.35 2180.85 1320.53 Q2182.24 1321.69 2186.08 1322.41 L2188.9 1322.99 Q2194.14 1323.98 2196.61 1326.51 Q2199.11 1329.01 2199.11 1333.22 Q2199.11 1338.24 2195.73 1340.83 Q2192.38 1343.43 2185.87 1343.43 Q2183.42 1343.43 2180.64 1342.87 Q2177.89 1342.32 2174.92 1341.23 L2174.92 1336.41 Q2177.77 1338.01 2180.5 1338.82 Q2183.23 1339.63 2185.87 1339.63 Q2189.88 1339.63 2192.05 1338.06 Q2194.23 1336.48 2194.23 1333.57 Q2194.23 1331.02 2192.65 1329.58 Q2191.1 1328.15 2187.54 1327.43 L2184.69 1326.88 Q2179.46 1325.83 2177.12 1323.61 Q2174.78 1321.39 2174.78 1317.43 Q2174.78 1312.85 2178 1310.21 Q2181.24 1307.57 2186.91 1307.57 Q2189.34 1307.57 2191.87 1308.01 Q2194.39 1308.45 2197.03 1309.33 Z" fill="#000000" fill-rule="nonzero" fill-opacity="1" /><path clip-path="url(#clip530)" d="M2201.61 1308.2 L2230.85 1308.2 L2230.85 1312.13 L2218.58 1312.13 L2218.58 1342.76 L2213.88 1342.76 L2213.88 1312.13 L2201.61 1312.13 L2201.61 1308.2 Z" fill="#000000" fill-rule="nonzero" fill-opacity="1" /><path clip-path="url(#clip530)" d="M2235.36 1308.2 L2240.04 1308.2 L2240.04 1338.82 L2256.87 1338.82 L2256.87 1342.76 L2235.36 1342.76 L2235.36 1308.2 Z" fill="#000000" fill-rule="nonzero" fill-opacity="1" /></svg>
