<?xml version="1.0" encoding="utf-8"?>
<svg xmlns="http://www.w3.org/2000/svg" xmlns:xlink="http://www.w3.org/1999/xlink" width="600" height="400" viewBox="0 0 2400 1600">
<defs>
  <clipPath id="clip130">
    <rect x="0" y="0" width="2400" height="1600"/>
  </clipPath>
</defs>
<path clip-path="url(#clip130)" d="M0 1600 L2400 1600 L2400 0 L0 0  Z" fill="#ffffff" fill-rule="evenodd" fill-opacity="1"/>
<defs>
  <clipPath id="clip131">
    <rect x="175" y="47" width="2178" height="1377"/>
  </clipPath>
</defs>
<path clip-path="url(#clip130)" d="M242.135 1423.18 L2352.76 1423.18 L2352.76 47.2441 L242.135 47.2441  Z" fill="#ffffff" fill-rule="evenodd" fill-opacity="1"/>
<defs>
  <clipPath id="clip132">
    <rect x="242" y="47" width="2112" height="1377"/>
  </clipPath>
</defs>
<polyline clip-path="url(#clip132)" style="stroke:#000000; stroke-linecap:round; stroke-linejoin:round; stroke-width:2; stroke-opacity:0.1; fill:none" points="299.876,1423.18 299.876,47.2441 "/>
<polyline clip-path="url(#clip132)" style="stroke:#000000; stroke-linecap:round; stroke-linejoin:round; stroke-width:2; stroke-opacity:0.1; fill:none" points="798.162,1423.18 798.162,47.2441 "/>
<polyline clip-path="url(#clip132)" style="stroke:#000000; stroke-linecap:round; stroke-linejoin:round; stroke-width:2; stroke-opacity:0.1; fill:none" points="1296.45,1423.18 1296.45,47.2441 "/>
<polyline clip-path="url(#clip132)" style="stroke:#000000; stroke-linecap:round; stroke-linejoin:round; stroke-width:2; stroke-opacity:0.1; fill:none" points="1794.74,1423.18 1794.74,47.2441 "/>
<polyline clip-path="url(#clip132)" style="stroke:#000000; stroke-linecap:round; stroke-linejoin:round; stroke-width:2; stroke-opacity:0.1; fill:none" points="2293.02,1423.18 2293.02,47.2441 "/>
<polyline clip-path="url(#clip132)" style="stroke:#000000; stroke-linecap:round; stroke-linejoin:round; stroke-width:2; stroke-opacity:0.1; fill:none" points="242.135,1416.52 2352.76,1416.52 "/>
<polyline clip-path="url(#clip132)" style="stroke:#000000; stroke-linecap:round; stroke-linejoin:round; stroke-width:2; stroke-opacity:0.1; fill:none" points="242.135,1117.68 2352.76,1117.68 "/>
<polyline clip-path="url(#clip132)" style="stroke:#000000; stroke-linecap:round; stroke-linejoin:round; stroke-width:2; stroke-opacity:0.1; fill:none" points="242.135,818.844 2352.76,818.844 "/>
<polyline clip-path="url(#clip132)" style="stroke:#000000; stroke-linecap:round; stroke-linejoin:round; stroke-width:2; stroke-opacity:0.1; fill:none" points="242.135,520.005 2352.76,520.005 "/>
<polyline clip-path="url(#clip132)" style="stroke:#000000; stroke-linecap:round; stroke-linejoin:round; stroke-width:2; stroke-opacity:0.1; fill:none" points="242.135,221.165 2352.76,221.165 "/>
<polyline clip-path="url(#clip130)" style="stroke:#000000; stroke-linecap:round; stroke-linejoin:round; stroke-width:4; stroke-opacity:1; fill:none" points="242.135,1423.18 2352.76,1423.18 "/>
<polyline clip-path="url(#clip130)" style="stroke:#000000; stroke-linecap:round; stroke-linejoin:round; stroke-width:4; stroke-opacity:1; fill:none" points="299.876,1423.18 299.876,1404.28 "/>
<polyline clip-path="url(#clip130)" style="stroke:#000000; stroke-linecap:round; stroke-linejoin:round; stroke-width:4; stroke-opacity:1; fill:none" points="798.162,1423.18 798.162,1404.28 "/>
<polyline clip-path="url(#clip130)" style="stroke:#000000; stroke-linecap:round; stroke-linejoin:round; stroke-width:4; stroke-opacity:1; fill:none" points="1296.45,1423.18 1296.45,1404.28 "/>
<polyline clip-path="url(#clip130)" style="stroke:#000000; stroke-linecap:round; stroke-linejoin:round; stroke-width:4; stroke-opacity:1; fill:none" points="1794.74,1423.18 1794.74,1404.28 "/>
<polyline clip-path="url(#clip130)" style="stroke:#000000; stroke-linecap:round; stroke-linejoin:round; stroke-width:4; stroke-opacity:1; fill:none" points="2293.02,1423.18 2293.02,1404.28 "/>
<path clip-path="url(#clip130)" d="M299.876 1454.1 Q296.265 1454.1 294.436 1457.66 Q292.631 1461.2 292.631 1468.33 Q292.631 1475.44 294.436 1479.01 Q296.265 1482.55 299.876 1482.55 Q303.51 1482.55 305.316 1479.01 Q307.145 1475.44 307.145 1468.33 Q307.145 1461.2 305.316 1457.66 Q303.51 1454.1 299.876 1454.1 M299.876 1450.39 Q305.686 1450.39 308.742 1455 Q311.82 1459.58 311.82 1468.33 Q311.82 1477.06 308.742 1481.67 Q305.686 1486.25 299.876 1486.25 Q294.066 1486.25 290.987 1481.67 Q287.932 1477.06 287.932 1468.33 Q287.932 1459.58 290.987 1455 Q294.066 1450.39 299.876 1450.39 Z" fill="#000000" fill-rule="nonzero" fill-opacity="1" /><path clip-path="url(#clip130)" d="M761.855 1481.64 L778.174 1481.64 L778.174 1485.58 L756.23 1485.58 L756.23 1481.64 Q758.892 1478.89 763.475 1474.26 Q768.082 1469.61 769.262 1468.27 Q771.507 1465.74 772.387 1464.01 Q773.29 1462.25 773.29 1460.56 Q773.29 1457.8 771.345 1456.07 Q769.424 1454.33 766.322 1454.33 Q764.123 1454.33 761.67 1455.09 Q759.239 1455.86 756.461 1457.41 L756.461 1452.69 Q759.285 1451.55 761.739 1450.97 Q764.193 1450.39 766.23 1450.39 Q771.6 1450.39 774.794 1453.08 Q777.989 1455.77 777.989 1460.26 Q777.989 1462.39 777.179 1464.31 Q776.392 1466.2 774.285 1468.8 Q773.707 1469.47 770.605 1472.69 Q767.503 1475.88 761.855 1481.64 Z" fill="#000000" fill-rule="nonzero" fill-opacity="1" /><path clip-path="url(#clip130)" d="M788.035 1451.02 L806.392 1451.02 L806.392 1454.96 L792.318 1454.96 L792.318 1463.43 Q793.336 1463.08 794.355 1462.92 Q795.373 1462.73 796.392 1462.73 Q802.179 1462.73 805.558 1465.9 Q808.938 1469.08 808.938 1474.49 Q808.938 1480.07 805.466 1483.17 Q801.993 1486.25 795.674 1486.25 Q793.498 1486.25 791.23 1485.88 Q788.984 1485.51 786.577 1484.77 L786.577 1480.07 Q788.66 1481.2 790.882 1481.76 Q793.105 1482.32 795.581 1482.32 Q799.586 1482.32 801.924 1480.21 Q804.262 1478.1 804.262 1474.49 Q804.262 1470.88 801.924 1468.77 Q799.586 1466.67 795.581 1466.67 Q793.706 1466.67 791.831 1467.08 Q789.98 1467.5 788.035 1468.38 L788.035 1451.02 Z" fill="#000000" fill-rule="nonzero" fill-opacity="1" /><path clip-path="url(#clip130)" d="M828.151 1454.1 Q824.54 1454.1 822.711 1457.66 Q820.905 1461.2 820.905 1468.33 Q820.905 1475.44 822.711 1479.01 Q824.54 1482.55 828.151 1482.55 Q831.785 1482.55 833.59 1479.01 Q835.419 1475.44 835.419 1468.33 Q835.419 1461.2 833.59 1457.66 Q831.785 1454.1 828.151 1454.1 M828.151 1450.39 Q833.961 1450.39 837.016 1455 Q840.095 1459.58 840.095 1468.33 Q840.095 1477.06 837.016 1481.67 Q833.961 1486.25 828.151 1486.25 Q822.341 1486.25 819.262 1481.67 Q816.206 1477.06 816.206 1468.33 Q816.206 1459.58 819.262 1455 Q822.341 1450.39 828.151 1450.39 Z" fill="#000000" fill-rule="nonzero" fill-opacity="1" /><path clip-path="url(#clip130)" d="M1256.07 1451.02 L1274.42 1451.02 L1274.42 1454.96 L1260.35 1454.96 L1260.35 1463.43 Q1261.37 1463.08 1262.39 1462.92 Q1263.4 1462.73 1264.42 1462.73 Q1270.21 1462.73 1273.59 1465.9 Q1276.97 1469.08 1276.97 1474.49 Q1276.97 1480.07 1273.5 1483.17 Q1270.03 1486.25 1263.71 1486.25 Q1261.53 1486.25 1259.26 1485.88 Q1257.02 1485.51 1254.61 1484.77 L1254.61 1480.07 Q1256.69 1481.2 1258.91 1481.76 Q1261.14 1482.32 1263.61 1482.32 Q1267.62 1482.32 1269.96 1480.21 Q1272.29 1478.1 1272.29 1474.49 Q1272.29 1470.88 1269.96 1468.77 Q1267.62 1466.67 1263.61 1466.67 Q1261.74 1466.67 1259.86 1467.08 Q1258.01 1467.5 1256.07 1468.38 L1256.07 1451.02 Z" fill="#000000" fill-rule="nonzero" fill-opacity="1" /><path clip-path="url(#clip130)" d="M1296.18 1454.1 Q1292.57 1454.1 1290.74 1457.66 Q1288.94 1461.2 1288.94 1468.33 Q1288.94 1475.44 1290.74 1479.01 Q1292.57 1482.55 1296.18 1482.55 Q1299.82 1482.55 1301.62 1479.01 Q1303.45 1475.44 1303.45 1468.33 Q1303.45 1461.2 1301.62 1457.66 Q1299.82 1454.1 1296.18 1454.1 M1296.18 1450.39 Q1301.99 1450.39 1305.05 1455 Q1308.13 1459.58 1308.13 1468.33 Q1308.13 1477.06 1305.05 1481.67 Q1301.99 1486.25 1296.18 1486.25 Q1290.37 1486.25 1287.29 1481.67 Q1284.24 1477.06 1284.24 1468.33 Q1284.24 1459.58 1287.29 1455 Q1290.37 1450.39 1296.18 1450.39 Z" fill="#000000" fill-rule="nonzero" fill-opacity="1" /><path clip-path="url(#clip130)" d="M1326.34 1454.1 Q1322.73 1454.1 1320.9 1457.66 Q1319.1 1461.2 1319.1 1468.33 Q1319.1 1475.44 1320.9 1479.01 Q1322.73 1482.55 1326.34 1482.55 Q1329.98 1482.55 1331.78 1479.01 Q1333.61 1475.44 1333.61 1468.33 Q1333.61 1461.2 1331.78 1457.66 Q1329.98 1454.1 1326.34 1454.1 M1326.34 1450.39 Q1332.15 1450.39 1335.21 1455 Q1338.29 1459.58 1338.29 1468.33 Q1338.29 1477.06 1335.21 1481.67 Q1332.15 1486.25 1326.34 1486.25 Q1320.53 1486.25 1317.46 1481.67 Q1314.4 1477.06 1314.4 1468.33 Q1314.4 1459.58 1317.46 1455 Q1320.53 1450.39 1326.34 1450.39 Z" fill="#000000" fill-rule="nonzero" fill-opacity="1" /><path clip-path="url(#clip130)" d="M1753.01 1451.02 L1775.23 1451.02 L1775.23 1453.01 L1762.69 1485.58 L1757.8 1485.58 L1769.61 1454.96 L1753.01 1454.96 L1753.01 1451.02 Z" fill="#000000" fill-rule="nonzero" fill-opacity="1" /><path clip-path="url(#clip130)" d="M1784.4 1451.02 L1802.76 1451.02 L1802.76 1454.96 L1788.68 1454.96 L1788.68 1463.43 Q1789.7 1463.08 1790.72 1462.92 Q1791.74 1462.73 1792.76 1462.73 Q1798.54 1462.73 1801.92 1465.9 Q1805.3 1469.08 1805.3 1474.49 Q1805.3 1480.07 1801.83 1483.17 Q1798.36 1486.25 1792.04 1486.25 Q1789.86 1486.25 1787.59 1485.88 Q1785.35 1485.51 1782.94 1484.77 L1782.94 1480.07 Q1785.02 1481.2 1787.25 1481.76 Q1789.47 1482.32 1791.95 1482.32 Q1795.95 1482.32 1798.29 1480.21 Q1800.63 1478.1 1800.63 1474.49 Q1800.63 1470.88 1798.29 1468.77 Q1795.95 1466.67 1791.95 1466.67 Q1790.07 1466.67 1788.2 1467.08 Q1786.34 1467.5 1784.4 1468.38 L1784.4 1451.02 Z" fill="#000000" fill-rule="nonzero" fill-opacity="1" /><path clip-path="url(#clip130)" d="M1824.51 1454.1 Q1820.9 1454.1 1819.08 1457.66 Q1817.27 1461.2 1817.27 1468.33 Q1817.27 1475.44 1819.08 1479.01 Q1820.9 1482.55 1824.51 1482.55 Q1828.15 1482.55 1829.95 1479.01 Q1831.78 1475.44 1831.78 1468.33 Q1831.78 1461.2 1829.95 1457.66 Q1828.15 1454.1 1824.51 1454.1 M1824.51 1450.39 Q1830.33 1450.39 1833.38 1455 Q1836.46 1459.58 1836.46 1468.33 Q1836.46 1477.06 1833.38 1481.67 Q1830.33 1486.25 1824.51 1486.25 Q1818.7 1486.25 1815.63 1481.67 Q1812.57 1477.06 1812.57 1468.33 Q1812.57 1459.58 1815.63 1455 Q1818.7 1450.39 1824.51 1450.39 Z" fill="#000000" fill-rule="nonzero" fill-opacity="1" /><path clip-path="url(#clip130)" d="M2237.55 1481.64 L2245.19 1481.64 L2245.19 1455.28 L2236.88 1456.95 L2236.88 1452.69 L2245.14 1451.02 L2249.82 1451.02 L2249.82 1481.64 L2257.45 1481.64 L2257.45 1485.58 L2237.55 1485.58 L2237.55 1481.64 Z" fill="#000000" fill-rule="nonzero" fill-opacity="1" /><path clip-path="url(#clip130)" d="M2276.9 1454.1 Q2273.29 1454.1 2271.46 1457.66 Q2269.65 1461.2 2269.65 1468.33 Q2269.65 1475.44 2271.46 1479.01 Q2273.29 1482.55 2276.9 1482.55 Q2280.53 1482.55 2282.34 1479.01 Q2284.17 1475.44 2284.17 1468.33 Q2284.17 1461.2 2282.34 1457.66 Q2280.53 1454.1 2276.9 1454.1 M2276.9 1450.39 Q2282.71 1450.39 2285.76 1455 Q2288.84 1459.58 2288.84 1468.33 Q2288.84 1477.06 2285.76 1481.67 Q2282.71 1486.25 2276.9 1486.25 Q2271.09 1486.25 2268.01 1481.67 Q2264.95 1477.06 2264.95 1468.33 Q2264.95 1459.58 2268.01 1455 Q2271.09 1450.39 2276.9 1450.39 Z" fill="#000000" fill-rule="nonzero" fill-opacity="1" /><path clip-path="url(#clip130)" d="M2307.06 1454.1 Q2303.45 1454.1 2301.62 1457.66 Q2299.82 1461.2 2299.82 1468.33 Q2299.82 1475.44 2301.62 1479.01 Q2303.45 1482.55 2307.06 1482.55 Q2310.69 1482.55 2312.5 1479.01 Q2314.33 1475.44 2314.33 1468.33 Q2314.33 1461.2 2312.5 1457.66 Q2310.69 1454.1 2307.06 1454.1 M2307.06 1450.39 Q2312.87 1450.39 2315.93 1455 Q2319 1459.58 2319 1468.33 Q2319 1477.06 2315.93 1481.67 Q2312.87 1486.25 2307.06 1486.25 Q2301.25 1486.25 2298.17 1481.67 Q2295.12 1477.06 2295.12 1468.33 Q2295.12 1459.58 2298.17 1455 Q2301.25 1450.39 2307.06 1450.39 Z" fill="#000000" fill-rule="nonzero" fill-opacity="1" /><path clip-path="url(#clip130)" d="M2337.22 1454.1 Q2333.61 1454.1 2331.78 1457.66 Q2329.98 1461.2 2329.98 1468.33 Q2329.98 1475.44 2331.78 1479.01 Q2333.61 1482.55 2337.22 1482.55 Q2340.86 1482.55 2342.66 1479.01 Q2344.49 1475.44 2344.49 1468.33 Q2344.49 1461.2 2342.66 1457.66 Q2340.86 1454.1 2337.22 1454.1 M2337.22 1450.39 Q2343.03 1450.39 2346.09 1455 Q2349.17 1459.58 2349.17 1468.33 Q2349.17 1477.06 2346.09 1481.67 Q2343.03 1486.25 2337.22 1486.25 Q2331.41 1486.25 2328.33 1481.67 Q2325.28 1477.06 2325.28 1468.33 Q2325.28 1459.58 2328.33 1455 Q2331.41 1450.39 2337.22 1450.39 Z" fill="#000000" fill-rule="nonzero" fill-opacity="1" /><path clip-path="url(#clip130)" d="M1165.17 1520.52 L1171.6 1520.52 L1171.6 1568.04 L1165.17 1568.04 L1165.17 1520.52 Z" fill="#000000" fill-rule="nonzero" fill-opacity="1" /><path clip-path="url(#clip130)" d="M1189.93 1522.27 L1189.93 1532.4 L1201.99 1532.4 L1201.99 1536.95 L1189.93 1536.95 L1189.93 1556.3 Q1189.93 1560.66 1191.11 1561.9 Q1192.32 1563.14 1195.98 1563.14 L1201.99 1563.14 L1201.99 1568.04 L1195.98 1568.04 Q1189.2 1568.04 1186.62 1565.53 Q1184.04 1562.98 1184.04 1556.3 L1184.04 1536.95 L1179.74 1536.95 L1179.74 1532.4 L1184.04 1532.4 L1184.04 1522.27 L1189.93 1522.27 Z" fill="#000000" fill-rule="nonzero" fill-opacity="1" /><path clip-path="url(#clip130)" d="M1240.19 1548.76 L1240.19 1551.62 L1213.26 1551.62 Q1213.64 1557.67 1216.89 1560.85 Q1220.17 1564 1225.99 1564 Q1229.36 1564 1232.52 1563.17 Q1235.7 1562.35 1238.82 1560.69 L1238.82 1566.23 Q1235.67 1567.57 1232.36 1568.27 Q1229.05 1568.97 1225.64 1568.97 Q1217.11 1568.97 1212.11 1564 Q1207.15 1559.04 1207.15 1550.57 Q1207.15 1541.82 1211.86 1536.69 Q1216.6 1531.54 1224.62 1531.54 Q1231.81 1531.54 1235.98 1536.18 Q1240.19 1540.8 1240.19 1548.76 M1234.33 1547.04 Q1234.27 1542.23 1231.62 1539.37 Q1229.01 1536.5 1224.69 1536.5 Q1219.78 1536.5 1216.82 1539.27 Q1213.9 1542.04 1213.45 1547.07 L1234.33 1547.04 Z" fill="#000000" fill-rule="nonzero" fill-opacity="1" /><path clip-path="url(#clip130)" d="M1270.45 1537.87 Q1269.47 1537.3 1268.29 1537.04 Q1267.14 1536.76 1265.74 1536.76 Q1260.78 1536.76 1258.11 1540 Q1255.46 1543.22 1255.46 1549.27 L1255.46 1568.04 L1249.58 1568.04 L1249.58 1532.4 L1255.46 1532.4 L1255.46 1537.93 Q1257.31 1534.69 1260.27 1533.13 Q1263.23 1531.54 1267.46 1531.54 Q1268.07 1531.54 1268.8 1531.63 Q1269.53 1531.7 1270.42 1531.85 L1270.45 1537.87 Z" fill="#000000" fill-rule="nonzero" fill-opacity="1" /><path clip-path="url(#clip130)" d="M1292.8 1550.12 Q1285.7 1550.12 1282.96 1551.75 Q1280.23 1553.37 1280.23 1557.29 Q1280.23 1560.4 1282.26 1562.25 Q1284.33 1564.07 1287.86 1564.07 Q1292.73 1564.07 1295.66 1560.63 Q1298.62 1557.16 1298.62 1551.43 L1298.62 1550.12 L1292.8 1550.12 M1304.48 1547.71 L1304.48 1568.04 L1298.62 1568.04 L1298.62 1562.63 Q1296.62 1565.88 1293.63 1567.44 Q1290.63 1568.97 1286.31 1568.97 Q1280.83 1568.97 1277.58 1565.91 Q1274.37 1562.82 1274.37 1557.67 Q1274.37 1551.65 1278.38 1548.6 Q1282.42 1545.54 1290.41 1545.54 L1298.62 1545.54 L1298.62 1544.97 Q1298.62 1540.93 1295.95 1538.73 Q1293.31 1536.5 1288.5 1536.5 Q1285.45 1536.5 1282.55 1537.23 Q1279.65 1537.97 1276.98 1539.43 L1276.98 1534.02 Q1280.19 1532.78 1283.22 1532.17 Q1286.24 1531.54 1289.11 1531.54 Q1296.84 1531.54 1300.66 1535.55 Q1304.48 1539.56 1304.48 1547.71 Z" fill="#000000" fill-rule="nonzero" fill-opacity="1" /><path clip-path="url(#clip130)" d="M1322.34 1522.27 L1322.34 1532.4 L1334.4 1532.4 L1334.4 1536.95 L1322.34 1536.95 L1322.34 1556.3 Q1322.34 1560.66 1323.51 1561.9 Q1324.72 1563.14 1328.38 1563.14 L1334.4 1563.14 L1334.4 1568.04 L1328.38 1568.04 Q1321.6 1568.04 1319.03 1565.53 Q1316.45 1562.98 1316.45 1556.3 L1316.45 1536.95 L1312.15 1536.95 L1312.15 1532.4 L1316.45 1532.4 L1316.45 1522.27 L1322.34 1522.27 Z" fill="#000000" fill-rule="nonzero" fill-opacity="1" /><path clip-path="url(#clip130)" d="M1342.1 1532.4 L1347.96 1532.4 L1347.96 1568.04 L1342.1 1568.04 L1342.1 1532.4 M1342.1 1518.52 L1347.96 1518.52 L1347.96 1525.93 L1342.1 1525.93 L1342.1 1518.52 Z" fill="#000000" fill-rule="nonzero" fill-opacity="1" /><path clip-path="url(#clip130)" d="M1374.02 1536.5 Q1369.31 1536.5 1366.58 1540.19 Q1363.84 1543.85 1363.84 1550.25 Q1363.84 1556.65 1366.55 1560.34 Q1369.28 1564 1374.02 1564 Q1378.7 1564 1381.44 1560.31 Q1384.18 1556.62 1384.18 1550.25 Q1384.18 1543.92 1381.44 1540.23 Q1378.7 1536.5 1374.02 1536.5 M1374.02 1531.54 Q1381.66 1531.54 1386.02 1536.5 Q1390.38 1541.47 1390.38 1550.25 Q1390.38 1559 1386.02 1564 Q1381.66 1568.97 1374.02 1568.97 Q1366.35 1568.97 1361.99 1564 Q1357.66 1559 1357.66 1550.25 Q1357.66 1541.47 1361.99 1536.5 Q1366.35 1531.54 1374.02 1531.54 Z" fill="#000000" fill-rule="nonzero" fill-opacity="1" /><path clip-path="url(#clip130)" d="M1429.72 1546.53 L1429.72 1568.04 L1423.87 1568.04 L1423.87 1546.72 Q1423.87 1541.66 1421.89 1539.14 Q1419.92 1536.63 1415.97 1536.63 Q1411.23 1536.63 1408.5 1539.65 Q1405.76 1542.68 1405.76 1547.9 L1405.76 1568.04 L1399.87 1568.04 L1399.87 1532.4 L1405.76 1532.4 L1405.76 1537.93 Q1407.86 1534.72 1410.69 1533.13 Q1413.56 1531.54 1417.28 1531.54 Q1423.42 1531.54 1426.57 1535.36 Q1429.72 1539.14 1429.72 1546.53 Z" fill="#000000" fill-rule="nonzero" fill-opacity="1" /><polyline clip-path="url(#clip130)" style="stroke:#000000; stroke-linecap:round; stroke-linejoin:round; stroke-width:4; stroke-opacity:1; fill:none" points="242.135,1423.18 242.135,47.2441 "/>
<polyline clip-path="url(#clip130)" style="stroke:#000000; stroke-linecap:round; stroke-linejoin:round; stroke-width:4; stroke-opacity:1; fill:none" points="242.135,1416.52 261.032,1416.52 "/>
<polyline clip-path="url(#clip130)" style="stroke:#000000; stroke-linecap:round; stroke-linejoin:round; stroke-width:4; stroke-opacity:1; fill:none" points="242.135,1117.68 261.032,1117.68 "/>
<polyline clip-path="url(#clip130)" style="stroke:#000000; stroke-linecap:round; stroke-linejoin:round; stroke-width:4; stroke-opacity:1; fill:none" points="242.135,818.844 261.032,818.844 "/>
<polyline clip-path="url(#clip130)" style="stroke:#000000; stroke-linecap:round; stroke-linejoin:round; stroke-width:4; stroke-opacity:1; fill:none" points="242.135,520.005 261.032,520.005 "/>
<polyline clip-path="url(#clip130)" style="stroke:#000000; stroke-linecap:round; stroke-linejoin:round; stroke-width:4; stroke-opacity:1; fill:none" points="242.135,221.165 261.032,221.165 "/>
<path clip-path="url(#clip130)" d="M114.26 1416.97 L143.936 1416.97 L143.936 1420.91 L114.26 1420.91 L114.26 1416.97 Z" fill="#000000" fill-rule="nonzero" fill-opacity="1" /><path clip-path="url(#clip130)" d="M166.876 1403.32 L155.07 1421.77 L166.876 1421.77 L166.876 1403.32 M165.649 1399.24 L171.528 1399.24 L171.528 1421.77 L176.459 1421.77 L176.459 1425.65 L171.528 1425.65 L171.528 1433.8 L166.876 1433.8 L166.876 1425.65 L151.274 1425.65 L151.274 1421.14 L165.649 1399.24 Z" fill="#000000" fill-rule="nonzero" fill-opacity="1" /><path clip-path="url(#clip130)" d="M194.19 1402.32 Q190.579 1402.32 188.75 1405.89 Q186.945 1409.43 186.945 1416.56 Q186.945 1423.66 188.75 1427.23 Q190.579 1430.77 194.19 1430.77 Q197.825 1430.77 199.63 1427.23 Q201.459 1423.66 201.459 1416.56 Q201.459 1409.43 199.63 1405.89 Q197.825 1402.32 194.19 1402.32 M194.19 1398.62 Q200 1398.62 203.056 1403.22 Q206.135 1407.81 206.135 1416.56 Q206.135 1425.28 203.056 1429.89 Q200 1434.47 194.19 1434.47 Q188.38 1434.47 185.301 1429.89 Q182.246 1425.28 182.246 1416.56 Q182.246 1407.81 185.301 1403.22 Q188.38 1398.62 194.19 1398.62 Z" fill="#000000" fill-rule="nonzero" fill-opacity="1" /><path clip-path="url(#clip130)" d="M114.26 1118.13 L143.936 1118.13 L143.936 1122.07 L114.26 1122.07 L114.26 1118.13 Z" fill="#000000" fill-rule="nonzero" fill-opacity="1" /><path clip-path="url(#clip130)" d="M168.195 1116.33 Q171.552 1117.05 173.427 1119.32 Q175.325 1121.58 175.325 1124.92 Q175.325 1130.03 171.806 1132.83 Q168.288 1135.63 161.806 1135.63 Q159.63 1135.63 157.315 1135.2 Q155.024 1134.78 152.57 1133.92 L152.57 1129.41 Q154.515 1130.54 156.829 1131.12 Q159.144 1131.7 161.667 1131.7 Q166.065 1131.7 168.357 1129.96 Q170.672 1128.23 170.672 1124.92 Q170.672 1121.86 168.519 1120.15 Q166.39 1118.41 162.57 1118.41 L158.542 1118.41 L158.542 1114.57 L162.755 1114.57 Q166.204 1114.57 168.033 1113.2 Q169.862 1111.82 169.862 1109.22 Q169.862 1106.56 167.964 1105.15 Q166.089 1103.71 162.57 1103.71 Q160.649 1103.71 158.45 1104.13 Q156.251 1104.55 153.612 1105.43 L153.612 1101.26 Q156.274 1100.52 158.589 1100.15 Q160.927 1099.78 162.987 1099.78 Q168.311 1099.78 171.413 1102.21 Q174.514 1104.62 174.514 1108.74 Q174.514 1111.61 172.871 1113.6 Q171.227 1115.57 168.195 1116.33 Z" fill="#000000" fill-rule="nonzero" fill-opacity="1" /><path clip-path="url(#clip130)" d="M194.19 1103.48 Q190.579 1103.48 188.75 1107.05 Q186.945 1110.59 186.945 1117.72 Q186.945 1124.82 188.75 1128.39 Q190.579 1131.93 194.19 1131.93 Q197.825 1131.93 199.63 1128.39 Q201.459 1124.82 201.459 1117.72 Q201.459 1110.59 199.63 1107.05 Q197.825 1103.48 194.19 1103.48 M194.19 1099.78 Q200 1099.78 203.056 1104.38 Q206.135 1108.97 206.135 1117.72 Q206.135 1126.45 203.056 1131.05 Q200 1135.63 194.19 1135.63 Q188.38 1135.63 185.301 1131.05 Q182.246 1126.45 182.246 1117.72 Q182.246 1108.97 185.301 1104.38 Q188.38 1099.78 194.19 1099.78 Z" fill="#000000" fill-rule="nonzero" fill-opacity="1" /><path clip-path="url(#clip130)" d="M114.26 819.295 L143.936 819.295 L143.936 823.231 L114.26 823.231 L114.26 819.295 Z" fill="#000000" fill-rule="nonzero" fill-opacity="1" /><path clip-path="url(#clip130)" d="M158.056 832.189 L174.376 832.189 L174.376 836.124 L152.431 836.124 L152.431 832.189 Q155.093 829.434 159.677 824.805 Q164.283 820.152 165.464 818.809 Q167.709 816.286 168.589 814.55 Q169.491 812.791 169.491 811.101 Q169.491 808.346 167.547 806.61 Q165.626 804.874 162.524 804.874 Q160.325 804.874 157.871 805.638 Q155.44 806.402 152.663 807.953 L152.663 803.231 Q155.487 802.096 157.94 801.518 Q160.394 800.939 162.431 800.939 Q167.802 800.939 170.996 803.624 Q174.19 806.309 174.19 810.8 Q174.19 812.93 173.38 814.851 Q172.593 816.749 170.487 819.342 Q169.908 820.013 166.806 823.231 Q163.704 826.425 158.056 832.189 Z" fill="#000000" fill-rule="nonzero" fill-opacity="1" /><path clip-path="url(#clip130)" d="M194.19 804.643 Q190.579 804.643 188.75 808.208 Q186.945 811.749 186.945 818.879 Q186.945 825.985 188.75 829.55 Q190.579 833.092 194.19 833.092 Q197.825 833.092 199.63 829.55 Q201.459 825.985 201.459 818.879 Q201.459 811.749 199.63 808.208 Q197.825 804.643 194.19 804.643 M194.19 800.939 Q200 800.939 203.056 805.546 Q206.135 810.129 206.135 818.879 Q206.135 827.606 203.056 832.212 Q200 836.795 194.19 836.795 Q188.38 836.795 185.301 832.212 Q182.246 827.606 182.246 818.879 Q182.246 810.129 185.301 805.546 Q188.38 800.939 194.19 800.939 Z" fill="#000000" fill-rule="nonzero" fill-opacity="1" /><path clip-path="url(#clip130)" d="M114.26 520.456 L143.936 520.456 L143.936 524.391 L114.26 524.391 L114.26 520.456 Z" fill="#000000" fill-rule="nonzero" fill-opacity="1" /><path clip-path="url(#clip130)" d="M154.839 533.349 L162.477 533.349 L162.477 506.984 L154.167 508.651 L154.167 504.391 L162.431 502.725 L167.107 502.725 L167.107 533.349 L174.746 533.349 L174.746 537.285 L154.839 537.285 L154.839 533.349 Z" fill="#000000" fill-rule="nonzero" fill-opacity="1" /><path clip-path="url(#clip130)" d="M194.19 505.803 Q190.579 505.803 188.75 509.368 Q186.945 512.91 186.945 520.039 Q186.945 527.146 188.75 530.711 Q190.579 534.252 194.19 534.252 Q197.825 534.252 199.63 530.711 Q201.459 527.146 201.459 520.039 Q201.459 512.91 199.63 509.368 Q197.825 505.803 194.19 505.803 M194.19 502.1 Q200 502.1 203.056 506.706 Q206.135 511.289 206.135 520.039 Q206.135 528.766 203.056 533.373 Q200 537.956 194.19 537.956 Q188.38 537.956 185.301 533.373 Q182.246 528.766 182.246 520.039 Q182.246 511.289 185.301 506.706 Q188.38 502.1 194.19 502.1 Z" fill="#000000" fill-rule="nonzero" fill-opacity="1" /><path clip-path="url(#clip130)" d="M194.19 206.964 Q190.579 206.964 188.75 210.529 Q186.945 214.07 186.945 221.2 Q186.945 228.306 188.75 231.871 Q190.579 235.413 194.19 235.413 Q197.825 235.413 199.63 231.871 Q201.459 228.306 201.459 221.2 Q201.459 214.07 199.63 210.529 Q197.825 206.964 194.19 206.964 M194.19 203.26 Q200 203.26 203.056 207.867 Q206.135 212.45 206.135 221.2 Q206.135 229.927 203.056 234.533 Q200 239.117 194.19 239.117 Q188.38 239.117 185.301 234.533 Q182.246 229.927 182.246 221.2 Q182.246 212.45 185.301 207.867 Q188.38 203.26 194.19 203.26 Z" fill="#000000" fill-rule="nonzero" fill-opacity="1" /><path clip-path="url(#clip130)" d="M16.4842 816.375 L16.4842 786.329 L21.895 786.329 L21.895 809.945 L35.9632 809.945 L35.9632 787.315 L41.3741 787.315 L41.3741 809.945 L58.5933 809.945 L58.5933 785.756 L64.0042 785.756 L64.0042 816.375 L16.4842 816.375 Z" fill="#000000" fill-rule="nonzero" fill-opacity="1" /><path clip-path="url(#clip130)" d="M16.4842 775.189 L16.4842 768.759 L58.5933 768.759 L58.5933 745.62 L64.0042 745.62 L64.0042 775.189 L16.4842 775.189 Z" fill="#000000" fill-rule="nonzero" fill-opacity="1" /><path clip-path="url(#clip130)" d="M41.3104 732.443 L58.7206 732.443 L58.7206 722.13 Q58.7206 716.942 56.5881 714.46 Q54.4238 711.945 49.9996 711.945 Q45.5436 711.945 43.4429 714.46 Q41.3104 716.942 41.3104 722.13 L41.3104 732.443 M21.7677 732.443 L36.0905 732.443 L36.0905 722.926 Q36.0905 718.216 34.34 715.924 Q32.5576 713.6 28.9291 713.6 Q25.3325 713.6 23.5501 715.924 Q21.7677 718.216 21.7677 722.926 L21.7677 732.443 M16.4842 738.872 L16.4842 722.449 Q16.4842 715.096 19.5397 711.118 Q22.5952 707.139 28.2289 707.139 Q32.5894 707.139 35.1675 709.176 Q37.7456 711.213 38.3822 715.16 Q39.4007 710.418 42.6472 707.808 Q45.8619 705.166 50.6998 705.166 Q57.0655 705.166 60.5348 709.495 Q64.0042 713.823 64.0042 721.812 L64.0042 738.872 L16.4842 738.872 Z" fill="#000000" fill-rule="nonzero" fill-opacity="1" /><path clip-path="url(#clip130)" d="M20.8447 676.011 Q20.8447 683.013 26.0645 687.151 Q31.2844 691.257 40.2919 691.257 Q49.2675 691.257 54.4874 687.151 Q59.7073 683.013 59.7073 676.011 Q59.7073 669.009 54.4874 664.935 Q49.2675 660.829 40.2919 660.829 Q31.2844 660.829 26.0645 664.935 Q20.8447 669.009 20.8447 676.011 M15.6248 676.011 Q15.6248 666.017 22.3406 660.033 Q29.0246 654.049 40.2919 654.049 Q51.5274 654.049 58.2432 660.033 Q64.9272 666.017 64.9272 676.011 Q64.9272 686.037 58.2432 692.052 Q51.5592 698.036 40.2919 698.036 Q29.0246 698.036 22.3406 692.052 Q15.6248 686.037 15.6248 676.011 Z" fill="#000000" fill-rule="nonzero" fill-opacity="1" /><polyline clip-path="url(#clip132)" style="stroke:#009af9; stroke-linecap:round; stroke-linejoin:round; stroke-width:4; stroke-opacity:1; fill:none" points="301.869,726.86 303.862,674.346 305.856,754.118 307.849,965.422 309.842,640.263 311.835,658.967 313.828,956.567 315.821,297.653 317.814,1120.17 319.808,784.224 321.801,628.707 323.794,1384.24 325.787,714.689 327.78,574.851 329.773,800.741 331.766,580.959 333.76,995.457 335.753,491.521 337.746,683.987 339.739,938.714 341.732,621.924 343.725,488.944 345.718,674.613 347.712,504.99 349.705,654.447 351.698,945.11 353.691,311.653 355.684,643.869 357.677,430.778 359.67,873.023 361.664,489.108 363.657,558.759 365.65,635.655 367.643,467.413 369.636,608.994 371.629,604.327 373.622,604.282 375.616,598.148 377.609,638.163 379.602,433.93 381.595,614.472 383.588,477.455 385.581,353.111 387.574,616.76 389.568,562.81 391.561,456.495 393.554,660.426 395.547,627.371 397.54,809.592 399.533,780.096 401.526,584.215 403.52,462.876 405.513,516.576 407.506,582.114 409.499,539.293 411.492,1368.54 413.485,472.658 415.479,465.167 417.472,567.121 419.465,505.21 421.458,405.443 423.451,529.804 425.444,818.779 427.437,900.034 429.431,318.409 431.424,545.73 433.417,710.111 435.41,737.245 437.403,496.72 439.396,443.21 441.389,753.504 443.383,372.208 445.376,392.599 447.369,468.826 449.362,423.182 451.355,546.234 453.348,819.91 455.341,609.635 457.335,436.449 459.328,689.215 461.321,666.989 463.314,537.558 465.307,307.833 467.3,630.212 469.293,380.754 471.287,776.288 473.28,400.907 475.273,463.92 477.266,286.24 479.259,391.26 481.252,437.228 483.245,379.254 485.239,625.921 487.232,371.327 489.225,455.258 491.218,595.737 493.211,789.128 495.204,298.829 497.197,650.529 499.191,402.308 501.184,292.77 503.177,572.849 505.17,494.03 507.163,589.333 509.156,342.092 511.149,499.126 513.143,252.013 515.136,402.954 517.129,286.168 519.122,291.093 521.115,346.988 523.108,257.098 525.101,618.919 527.095,395.848 529.088,459.269 531.081,374.833 533.074,618.18 535.067,697.09 537.06,276.314 539.054,322.984 541.047,245.031 543.04,539.706 545.033,229.393 547.026,262.673 549.019,586.836 551.012,530.985 553.006,226.595 554.999,150.17 556.992,377.373 558.985,367.956 560.978,246.283 562.971,417.169 564.964,240.996 566.958,184.08 568.951,383.956 570.944,358.002 572.937,179.132 574.93,351.791 576.923,309.548 578.916,193.067 580.91,287.108 582.903,491.462 584.896,310.559 586.889,294.531 588.882,368.757 590.875,497 592.868,217.164 594.862,315.035 596.855,435.006 598.848,671.14 600.841,401.609 602.834,345.052 604.827,419.132 606.82,246.785 608.814,365.924 610.807,324.757 612.8,184.149 614.793,306.931 616.786,160.54 618.779,401.854 620.772,216.122 622.766,198.164 624.759,368.301 626.752,305.446 628.745,294.388 630.738,262.332 632.731,229.361 634.724,323.795 636.718,472.542 638.711,190.064 640.704,403.997 642.697,264.002 644.69,341.135 646.683,242.159 648.677,187.069 650.67,274.766 652.663,341.434 654.656,450.942 656.649,377.889 658.642,477.103 660.635,300.318 662.629,465.1 664.622,209.477 666.615,412.174 668.608,307.419 670.601,298.497 672.594,124.476 674.587,416.345 676.581,210.674 678.574,298.518 680.567,264.03 682.56,155.964 684.553,212.818 686.546,305.329 688.539,599.037 690.533,193.139 692.526,378.939 694.519,302.902 696.512,417.674 698.505,298.758 700.498,252.976 702.491,266.074 704.485,169.28 706.478,220.211 708.471,171.126 710.464,268.559 712.457,208.712 714.45,360.486 716.443,514.748 718.437,415.76 720.43,240.389 722.423,431.318 724.416,211.944 726.409,196.858 728.402,361.615 730.395,241.129 732.389,179.477 734.382,257.188 736.375,329.294 738.368,432.236 740.361,236.457 742.354,289.893 744.347,419.177 746.341,215.582 748.334,263.752 750.327,413.887 752.32,243.652 754.313,299.465 756.306,177.978 758.299,206.204 760.293,162.195 762.286,148.443 764.279,229.025 766.272,294.366 768.265,245.656 770.258,265.891 772.252,279.746 774.245,195.145 776.238,306.693 778.231,310.811 780.224,270.361 782.217,193.835 784.21,140.998 786.204,274.534 788.197,187.517 790.19,220.297 792.183,194.369 794.176,335.515 796.169,402.507 798.162,142.751 800.156,258.342 802.149,247.567 804.142,208.897 806.135,212.074 808.128,188.964 810.121,208.693 812.114,227.986 814.108,220.203 816.101,197.444 818.094,323.678 820.087,209.219 822.08,308.046 824.073,308.614 826.066,240.069 828.06,148.257 830.053,154.389 832.046,134.415 834.039,229.714 836.032,230.485 838.025,191.266 840.018,123.947 842.012,181.789 844.005,213.598 845.998,338.972 847.991,210.049 849.984,213.022 851.977,390.61 853.97,248.346 855.964,241.725 857.957,182.635 859.95,224.162 861.943,206.834 863.936,156.067 865.929,133.528 867.922,373.239 869.916,268.463 871.909,280.417 873.902,536.683 875.895,147.065 877.888,120.641 879.881,213.216 881.874,229.396 883.868,163.969 885.861,271.513 887.854,312.592 889.847,160.043 891.84,193.074 893.833,127.342 895.827,287.679 897.82,139.587 899.813,149.881 901.806,298.728 903.799,231.419 905.792,142.127 907.785,139.799 909.779,236.115 911.772,211.271 913.765,216.358 915.758,341.356 917.751,292.207 919.744,167.545 921.737,131.01 923.731,324.048 925.724,313.928 927.717,170.562 929.71,232.914 931.703,196.797 933.696,337.82 935.689,251.534 937.683,124.915 939.676,257.891 941.669,291.278 943.662,224.725 945.655,294.894 947.648,129.738 949.641,296.018 951.635,142.207 953.628,227.865 955.621,181.174 957.614,164.287 959.607,140.632 961.6,289.308 963.593,210.938 965.587,229.99 967.58,321.819 969.573,173.275 971.566,314.724 973.559,277.178 975.552,204.098 977.545,397.892 979.539,242.897 981.532,244.351 983.525,144.752 985.518,107.262 987.511,152.39 989.504,257.806 991.497,156.573 993.491,297.293 995.484,176.949 997.477,310.234 999.47,343.397 1001.46,290.485 1003.46,146.402 1005.45,184.707 1007.44,205.573 1009.44,362.514 1011.43,292.662 1013.42,389.492 1015.42,202.593 1017.41,304.574 1019.4,333.302 1021.39,244.534 1023.39,329.771 1025.38,317.56 1027.37,222.537 1029.37,263.632 1031.36,254.905 1033.35,224.198 1035.35,183.204 1037.34,310.432 1039.33,314.134 1041.33,328.113 1043.32,138.759 1045.31,208.591 1047.31,389.164 1049.3,195.567 1051.29,164.479 1053.28,225.93 1055.28,153.369 1057.27,275.113 1059.26,124.893 1061.26,299.48 1063.25,169.59 1065.24,273.645 1067.24,289.641 1069.23,232.432 1071.22,271.295 1073.22,181.468 1075.21,177.607 1077.2,196.479 1079.2,181.409 1081.19,201.388 1083.18,236.58 1085.18,254.914 1087.17,180.204 1089.16,161.268 1091.15,179.561 1093.15,290.657 1095.14,266.641 1097.13,139.968 1099.13,240.396 1101.12,163.343 1103.11,163.154 1105.11,180.447 1107.1,467.514 1109.09,166.157 1111.09,266.827 1113.08,145.459 1115.07,246.345 1117.07,131.937 1119.06,193.236 1121.05,288.266 1123.05,189.038 1125.04,251.649 1127.03,117.233 1129.02,114.621 1131.02,327.198 1133.01,140.124 1135,177.702 1137,146.782 1138.99,172.221 1140.98,237.801 1142.98,86.1859 1144.97,132.61 1146.96,244.732 1148.96,187.719 1150.95,244.477 1152.94,217.585 1154.94,167.14 1156.93,253.616 1158.92,248.847 1160.91,131.249 1162.91,228.278 1164.9,280.353 1166.89,191.273 1168.89,132.031 1170.88,231.055 1172.87,371.252 1174.87,134.859 1176.86,86.1857 1178.85,201.458 1180.85,307.981 1182.84,135.13 1184.83,184.23 1186.83,374.112 1188.82,177.639 1190.81,185.686 1192.81,209.544 1194.8,243.655 1196.79,219.113 1198.78,212.768 1200.78,121.694 1202.77,271.087 1204.76,190.943 1206.76,265.327 1208.75,212.46 1210.74,272.721 1212.74,176.341 1214.73,184.157 1216.72,166.716 1218.72,192.636 1220.71,144.989 1222.7,337.318 1224.7,174.231 1226.69,281.778 1228.68,173.854 1230.67,193.431 1232.67,146.732 1234.66,174.588 1236.65,234.772 1238.65,136.501 1240.64,120.159 1242.63,228.787 1244.63,220.365 1246.62,192.027 1248.61,325.088 1250.61,205.768 1252.6,134.359 1254.59,184.312 1256.59,183.681 1258.58,285.675 1260.57,122.877 1262.57,223.471 1264.56,381.877 1266.55,184.515 1268.54,242.005 1270.54,263.391 1272.53,180.04 1274.52,221.937 1276.52,175.488 1278.51,130.608 1280.5,256.868 1282.5,266.086 1284.49,305.579 1286.48,145.384 1288.48,220.289 1290.47,249.036 1292.46,201.836 1294.46,181.181 1296.45,209.82 1298.44,143.388 1300.44,245.542 1302.43,151.036 1304.42,227.4 1306.41,362.199 1308.41,199.194 1310.4,210.036 1312.39,124.565 1314.39,190.199 1316.38,291.425 1318.37,184.745 1320.37,199.357 1322.36,178.095 1324.35,489.852 1326.35,270.452 1328.34,310.662 1330.33,200.403 1332.33,179.348 1334.32,271.09 1336.31,137.219 1338.3,200.763 1340.3,203.855 1342.29,371.094 1344.28,191.595 1346.28,305.156 1348.27,350.174 1350.26,167.662 1352.26,107.491 1354.25,298.613 1356.24,289.79 1358.24,200.903 1360.23,190.747 1362.22,197.885 1364.22,253.851 1366.21,236.309 1368.2,389.865 1370.2,397.589 1372.19,177.517 1374.18,164.3 1376.17,208.68 1378.17,329.095 1380.16,180.11 1382.15,249.53 1384.15,182.362 1386.14,285.749 1388.13,332.506 1390.13,154.246 1392.12,335.703 1394.11,250.736 1396.11,238.347 1398.1,404.021 1400.09,238.512 1402.09,168.524 1404.08,224.869 1406.07,300.401 1408.06,341.005 1410.06,321.203 1412.05,272.552 1414.04,161.829 1416.04,163.079 1418.03,214.986 1420.02,333.439 1422.02,204.485 1424.01,341.963 1426,235.207 1428,228.774 1429.99,243.5 1431.98,250.259 1433.98,208.406 1435.97,275.895 1437.96,220.06 1439.96,519.989 1441.95,287.895 1443.94,150.537 1445.93,209.655 1447.93,318.34 1449.92,261.647 1451.91,248.407 1453.91,303.427 1455.9,157.267 1457.89,131.752 1459.89,250.93 1461.88,238.123 1463.87,215.891 1465.87,174.3 1467.86,193.098 1469.85,204.211 1471.85,281.907 1473.84,320.564 1475.83,205.441 1477.82,185.662 1479.82,292.849 1481.81,186.44 1483.8,223.891 1485.8,204.527 1487.79,193.661 1489.78,213.364 1491.78,181.737 1493.77,210.223 1495.76,359.23 1497.76,232.22 1499.75,296.959 1501.74,256.135 1503.74,169.802 1505.73,211.721 1507.72,200.946 1509.72,225.438 1511.71,305.654 1513.7,339.31 1515.69,176.156 1517.69,121.261 1519.68,188.178 1521.67,336.908 1523.67,198.408 1525.66,310.409 1527.65,195.364 1529.65,245.871 1531.64,257.627 1533.63,203.13 1535.63,221.154 1537.62,359.87 1539.61,344.981 1541.61,329.611 1543.6,198.716 1545.59,279.702 1547.59,258.105 1549.58,246.205 1551.57,120.388 1553.56,205.508 1555.56,171.729 1557.55,287.969 1559.54,178.653 1561.54,290.123 1563.53,220.045 1565.52,232.805 1567.52,227.695 1569.51,276.234 1571.5,179.353 1573.5,236.791 1575.49,135.009 1577.48,374.831 1579.48,310.234 1581.47,249.846 1583.46,207.925 1585.45,213.71 1587.45,148.785 1589.44,282.138 1591.43,354.134 1593.43,247.919 1595.42,194.919 1597.41,173.062 1599.41,189.94 1601.4,232.218 1603.39,210.687 1605.39,226.81 1607.38,297.636 1609.37,218.655 1611.37,310.259 1613.36,174.996 1615.35,132.993 1617.35,165.303 1619.34,178.744 1621.33,191.955 1623.32,201.849 1625.32,172.001 1627.31,132.972 1629.3,192.641 1631.3,285.031 1633.29,237.438 1635.28,155.951 1637.28,201.503 1639.27,256.717 1641.26,259.811 1643.26,190.921 1645.25,271.463 1647.24,372.289 1649.24,180.05 1651.23,149.894 1653.22,242.539 1655.21,165.312 1657.21,216.204 1659.2,155.369 1661.19,171.181 1663.19,222.503 1665.18,306.496 1667.17,233.253 1669.17,202.449 1671.16,251.896 1673.15,279.875 1675.15,149.099 1677.14,235.459 1679.13,318.35 1681.13,200.734 1683.12,252.447 1685.11,271.52 1687.11,186.634 1689.1,247.402 1691.09,218.505 1693.08,172.89 1695.08,129.893 1697.07,151.071 1699.06,283.192 1701.06,243.532 1703.05,266.484 1705.04,148.35 1707.04,119.946 1709.03,168.816 1711.02,229.989 1713.02,253.392 1715.01,238.148 1717,178.384 1719,223.315 1720.99,185.876 1722.98,252.157 1724.97,317.079 1726.97,190.029 1728.96,244.178 1730.95,294.897 1732.95,422.64 1734.94,192.514 1736.93,156.64 1738.93,216.994 1740.92,173.976 1742.91,199.451 1744.91,271.55 1746.9,285.327 1748.89,341.082 1750.89,97.9721 1752.88,223.131 1754.87,128.1 1756.87,190.975 1758.86,170.913 1760.85,169.911 1762.84,201.065 1764.84,281.674 1766.83,227.483 1768.82,199.126 1770.82,322.285 1772.81,336.083 1774.8,361.905 1776.8,134.159 1778.79,184.53 1780.78,176.798 1782.78,330.557 1784.77,301.407 1786.76,279.861 1788.76,246.799 1790.75,272.531 1792.74,157.646 1794.74,121.34 1796.73,184.593 1798.72,328.571 1800.71,123.896 1802.71,225.637 1804.7,183.055 1806.69,347.771 1808.69,181.409 1810.68,118.973 1812.67,219.279 1814.67,290.775 1816.66,204.686 1818.65,191.238 1820.65,295.357 1822.64,292.288 1824.63,383.371 1826.63,271.984 1828.62,275.672 1830.61,227.524 1832.6,178.107 1834.6,162.72 1836.59,120.08 1838.58,160.984 1840.58,198.841 1842.57,226.965 1844.56,163.388 1846.56,317.487 1848.55,241.493 1850.54,111.193 1852.54,288.288 1854.53,306.862 1856.52,182.255 1858.52,120.175 1860.51,223.346 1862.5,184.308 1864.5,306.805 1866.49,201.558 1868.48,350.541 1870.47,195.28 1872.47,141.445 1874.46,202.82 1876.45,192.242 1878.45,205.543 1880.44,156.623 1882.43,289.298 1884.43,178.86 1886.42,168.207 1888.41,217.004 1890.41,217.91 1892.4,121.53 1894.39,216.294 1896.39,208.449 1898.38,223.916 1900.37,158.49 1902.36,273.847 1904.36,223.964 1906.35,226.993 1908.34,212.803 1910.34,161.777 1912.33,144.778 1914.32,265.596 1916.32,192.271 1918.31,191.341 1920.3,193.21 1922.3,236.178 1924.29,198.656 1926.28,360.504 1928.28,364.291 1930.27,189.899 1932.26,150.728 1934.26,205.325 1936.25,172.046 1938.24,206.717 1940.23,181.166 1942.23,218.114 1944.22,328.927 1946.21,176.501 1948.21,271.286 1950.2,283.317 1952.19,163.783 1954.19,132.943 1956.18,223.919 1958.17,231.661 1960.17,205.968 1962.16,163.992 1964.15,231.303 1966.15,262.923 1968.14,344.946 1970.13,275.065 1972.12,285.338 1974.12,195.676 1976.11,267.569 1978.1,332.398 1980.1,190.942 1982.09,118.291 1984.08,205.814 1986.08,216.531 1988.07,233.553 1990.06,292.088 1992.06,212.644 1994.05,188.545 1996.04,224.461 1998.04,132.277 2000.03,304.785 2002.02,168.823 2004.02,190.642 2006.01,232.769 2008,128.645 2009.99,254.16 2011.99,176.781 2013.98,231.279 2015.97,183.614 2017.97,229.948 2019.96,241.386 2021.95,149.78 2023.95,201.948 2025.94,241.331 2027.93,133.777 2029.93,157.923 2031.92,197.361 2033.91,380.753 2035.91,239.414 2037.9,237.933 2039.89,113.974 2041.89,319.669 2043.88,406.281 2045.87,200.091 2047.86,218.924 2049.86,209.237 2051.85,222.002 2053.84,240.648 2055.84,151.637 2057.83,206.089 2059.82,200.031 2061.82,211.195 2063.81,246.902 2065.8,289.761 2067.8,204.55 2069.79,194.663 2071.78,129.393 2073.78,208.48 2075.77,156.388 2077.76,163.491 2079.75,168.002 2081.75,127.357 2083.74,178.668 2085.73,272.476 2087.73,193.31 2089.72,137.03 2091.71,268.922 2093.71,232.389 2095.7,185.531 2097.69,242.643 2099.69,227.433 2101.68,300.787 2103.67,261.747 2105.67,238.277 2107.66,140.855 2109.65,293.476 2111.65,225.106 2113.64,126.662 2115.63,247.77 2117.62,217.025 2119.62,300.764 2121.61,257.343 2123.6,223.849 2125.6,167.581 2127.59,171.8 2129.58,265.291 2131.58,233.865 2133.57,205.546 2135.56,246.423 2137.56,342.293 2139.55,142.042 2141.54,216.539 2143.54,174.089 2145.53,316.625 2147.52,147.507 2149.51,167.028 2151.51,148.86 2153.5,233.138 2155.49,257.026 2157.49,137.245 2159.48,277.957 2161.47,216.155 2163.47,108.691 2165.46,194.057 2167.45,289.488 2169.45,113.545 2171.44,396.034 2173.43,193.11 2175.43,273.971 2177.42,219.957 2179.41,175.322 2181.41,169.043 2183.4,179.138 2185.39,153.619 2187.38,213.831 2189.38,208.335 2191.37,138.914 2193.36,199.698 2195.36,221.988 2197.35,177.731 2199.34,159.528 2201.34,498.082 2203.33,200.28 2205.32,183.307 2207.32,261.894 2209.31,238.913 2211.3,289.986 2213.3,151.94 2215.29,182.255 2217.28,353.492 2219.27,294.077 2221.27,232.256 2223.26,210.343 2225.25,249.366 2227.25,127.196 2229.24,213.25 2231.23,133.003 2233.23,137.407 2235.22,120.636 2237.21,143.401 2239.21,183.02 2241.2,195.65 2243.19,221.076 2245.19,384.265 2247.18,206.989 2249.17,224.882 2251.17,229.989 2253.16,378.934 2255.15,184.387 2257.14,176.796 2259.14,247.673 2261.13,269.362 2263.12,127.871 2265.12,143.817 2267.11,247.182 2269.1,183.287 2271.1,181.629 2273.09,212.249 2275.08,207.228 2277.08,239.966 2279.07,133.061 2281.06,131.164 2283.06,140.703 2285.05,203.062 2287.04,227.73 2289.04,257.382 2291.03,195.941 2293.02,311.666 "/>
<polyline clip-path="url(#clip132)" style="stroke:#e26f46; stroke-linecap:round; stroke-linejoin:round; stroke-width:4; stroke-opacity:1; fill:none" points="301.869,754.046 303.862,660.237 305.856,1013.62 307.849,1086.31 309.842,587.813 311.835,780.65 313.828,847.957 315.821,1208.23 317.814,634.578 319.808,979.182 321.801,943.043 323.794,992.667 325.787,637.519 327.78,527.12 329.773,883.647 331.766,883.759 333.76,934.642 335.753,726.552 337.746,849.768 339.739,645.546 341.732,656.547 343.725,562.733 345.718,624.374 347.712,720.736 349.705,865.593 351.698,686.651 353.691,818.913 355.684,630.431 357.677,687.078 359.67,190.782 361.664,653.936 363.657,700.625 365.65,771.928 367.643,750.399 369.636,636.35 371.629,466.045 373.622,626.704 375.616,384.704 377.609,506.882 379.602,606.812 381.595,409.203 383.588,620.501 385.581,507.715 387.574,517.944 389.568,634.767 391.561,571.145 393.554,205.893 395.547,599.906 397.54,536.977 399.533,451.307 401.526,502.888 403.52,338.874 405.513,714.724 407.506,511.864 409.499,536.935 411.492,443.057 413.485,270.034 415.479,362.393 417.472,687.492 419.465,470.118 421.458,464.402 423.451,309.85 425.444,710.007 427.437,846.44 429.431,634.797 431.424,641.246 433.417,251.625 435.41,523.038 437.403,423.481 439.396,439.539 441.389,459.368 443.383,381.575 445.376,707.813 447.369,540.513 449.362,386.164 451.355,234.461 453.348,472.474 455.341,284.055 457.335,468.869 459.328,455.7 461.321,294.617 463.314,491.37 465.307,437.014 467.3,283.217 469.293,389.961 471.287,436.73 473.28,240.281 475.273,248.757 477.266,442.174 479.259,226.229 481.252,451.008 483.245,434.028 485.239,613.715 487.232,705.326 489.225,324.918 491.218,473.711 493.211,313.772 495.204,393.118 497.197,216.57 499.191,422.408 501.184,358.708 503.177,475.874 505.17,518.146 507.163,229.947 509.156,479.923 511.149,456.541 513.143,333.391 515.136,402.074 517.129,373.278 519.122,334.74 521.115,276.189 523.108,407.414 525.101,355.408 527.095,419.142 529.088,572.183 531.081,311.633 533.074,165.811 535.067,384.09 537.06,206.224 539.054,138.642 541.047,340.901 543.04,481.34 545.033,317.273 547.026,415.851 549.019,431.124 551.012,318.995 553.006,409.212 554.999,407.32 556.992,397.603 558.985,211.134 560.978,387.07 562.971,361.225 564.964,343.771 566.958,421.304 568.951,303.803 570.944,258.736 572.937,304.878 574.93,304.769 576.923,250.661 578.916,196.267 580.91,400.632 582.903,387.502 584.896,319.823 586.889,262.093 588.882,411.068 590.875,318.034 592.868,382.363 594.862,332.167 596.855,326.285 598.848,318.878 600.841,279.518 602.834,292.925 604.827,350.984 606.82,229.357 608.814,259.385 610.807,304.06 612.8,211.819 614.793,337.439 616.786,302.809 618.779,307.91 620.772,333.13 622.766,274.766 624.759,313.077 626.752,342.399 628.745,400.607 630.738,388.935 632.731,314.385 634.724,248.136 636.718,331.404 638.711,278.729 640.704,318.588 642.697,230.278 644.69,239.74 646.683,172.81 648.677,178.283 650.67,362.958 652.663,305.158 654.656,257.73 656.649,318.64 658.642,129.974 660.635,236.226 662.629,294.165 664.622,300.244 666.615,257.678 668.608,237.854 670.601,343.94 672.594,328.042 674.587,241.485 676.581,366.906 678.574,269.054 680.567,358.628 682.56,264.958 684.553,202.685 686.546,307.232 688.539,333.966 690.533,202.803 692.526,263.973 694.519,323.631 696.512,238.909 698.505,229.822 700.498,219.863 702.491,248.625 704.485,296.617 706.478,308.584 708.471,274.246 710.464,183.385 712.457,239.711 714.45,258.045 716.443,304.096 718.437,240.675 720.43,234.313 722.423,317.177 724.416,258.262 726.409,264.932 728.402,279.152 730.395,261.052 732.389,255.745 734.382,256.452 736.375,253.003 738.368,237.344 740.361,185.831 742.354,148.311 744.347,256.561 746.341,214.97 748.334,312.933 750.327,234.942 752.32,187.732 754.313,253.935 756.306,308.976 758.299,210.223 760.293,177.633 762.286,292.063 764.279,260.152 766.272,225.413 768.265,235.033 770.258,305.131 772.252,239.968 774.245,206.878 776.238,279.474 778.231,227.381 780.224,245.694 782.217,233.098 784.21,220.438 786.204,240.019 788.197,270.446 790.19,272.156 792.183,268.42 794.176,199.987 796.169,234.639 798.162,262.174 800.156,258.891 802.149,234.44 804.142,239.855 806.135,240.202 808.128,201.778 810.121,220.141 812.114,236.201 814.108,232.726 816.101,207.157 818.094,201.841 820.087,223.124 822.08,243.726 824.073,282.482 826.066,282.931 828.06,218.717 830.053,240.697 832.046,200.959 834.039,229.72 836.032,216.244 838.025,244.285 840.018,217.29 842.012,254.457 844.005,221.502 845.998,266.683 847.991,205.813 849.984,241.726 851.977,263.239 853.97,267.202 855.964,212.691 857.957,223.532 859.95,214.067 861.943,261.386 863.936,226.63 865.929,227.861 867.922,255.555 869.916,228.199 871.909,248.296 873.902,195.671 875.895,239.698 877.888,236.724 879.881,237.527 881.874,201.721 883.868,194.376 885.861,230.105 887.854,237.493 889.847,225.394 891.84,207.636 893.833,226.363 895.827,244.965 897.82,234.713 899.813,219.374 901.806,229.053 903.799,245.797 905.792,232.831 907.785,230.133 909.779,242.607 911.772,227.009 913.765,196.936 915.758,239.386 917.751,247.239 919.744,211.998 921.737,230.876 923.731,189.026 925.724,208.701 927.717,219.995 929.71,237.909 931.703,237.409 933.696,221.813 935.689,224.905 937.683,223.159 939.676,189.719 941.669,202.572 943.662,235.894 945.655,223.983 947.648,205.185 949.641,245.648 951.635,200.054 953.628,225.616 955.621,232.552 957.614,229.868 959.607,218.19 961.6,245.96 963.593,224.731 965.587,213.282 967.58,226.815 969.573,204.142 971.566,206.299 973.559,205.834 975.552,212.391 977.545,217.761 979.539,228.949 981.532,217.552 983.525,225.146 985.518,205.895 987.511,216.759 989.504,206.038 991.497,213.383 993.491,223.159 995.484,210.225 997.477,211.681 999.47,216.835 1001.46,239.293 1003.46,230.193 1005.45,238.603 1007.44,215.194 1009.44,222.458 1011.43,221.428 1013.42,221.982 1015.42,221.476 1017.41,229.163 1019.4,230.296 1021.39,228.081 1023.39,232.624 1025.38,211.106 1027.37,212.596 1029.37,223.461 1031.36,203.786 1033.35,216.729 1035.35,223.631 1037.34,225.786 1039.33,227.269 1041.33,226.423 1043.32,218.059 1045.31,233.101 1047.31,235.465 1049.3,227.877 1051.29,227.297 1053.28,222.053 1055.28,216.347 1057.27,218.03 1059.26,224.683 1061.26,224.725 1063.25,222.913 1065.24,215.636 1067.24,217.911 1069.23,219.943 1071.22,218.518 1073.22,212.935 1075.21,225.745 1077.2,228.058 1079.2,222.16 1081.19,236.227 1083.18,214.933 1085.18,234.234 1087.17,223.191 1089.16,224.282 1091.15,216.074 1093.15,214.921 1095.14,230.487 1097.13,227.617 1099.13,218.751 1101.12,215.588 1103.11,214.809 1105.11,227.35 1107.1,221.264 1109.09,222.83 1111.09,216.693 1113.08,224.651 1115.07,215.084 1117.07,222.252 1119.06,223.628 1121.05,223.656 1123.05,217.579 1125.04,223.363 1127.03,214.17 1129.02,224.245 1131.02,221.773 1133.01,219.996 1135,222 1137,223.715 1138.99,219.325 1140.98,223.427 1142.98,221.553 1144.97,221.149 1146.96,216.071 1148.96,218.243 1150.95,222.211 1152.94,221.541 1154.94,219.393 1156.93,222.055 1158.92,220.345 1160.91,217.703 1162.91,223.564 1164.9,223.608 1166.89,224.989 1168.89,218.524 1170.88,222.811 1172.87,222.571 1174.87,219.82 1176.86,221.039 1178.85,218.772 1180.85,226.041 1182.84,219.317 1184.83,220.1 1186.83,221.508 1188.82,221.511 1190.81,221.35 1192.81,217.795 1194.8,220.715 1196.79,223.206 1198.78,222.525 1200.78,220.96 1202.77,224.97 1204.76,221.805 1206.76,223.017 1208.75,221.186 1210.74,221.305 1212.74,217.003 1214.73,220.344 1216.72,219.333 1218.72,219.597 1220.71,219.791 1222.7,221.267 1224.7,220.641 1226.69,220.426 1228.68,219.486 1230.67,227.035 1232.67,221.581 1234.66,217.317 1236.65,222.662 1238.65,218.515 1240.64,219.115 1242.63,221.995 1244.63,222.2 1246.62,221.778 1248.61,219.989 1250.61,221.171 1252.6,222.333 1254.59,220.562 1256.59,221.737 1258.58,221.882 1260.57,221.369 1262.57,221.913 1264.56,220.909 1266.55,220.817 1268.54,220.534 1270.54,220.841 1272.53,221.751 1274.52,222.197 1276.52,220.777 1278.51,223.478 1280.5,222.082 1282.5,222.399 1284.49,221.421 1286.48,221.246 1288.48,220.456 1290.47,221.455 1292.46,221.191 1294.46,218.799 1296.45,222.574 1298.44,220.819 1300.44,222.903 1302.43,221.331 1304.42,221.372 1306.41,220.585 1308.41,221.143 1310.4,221.647 1312.39,219.761 1314.39,223.119 1316.38,221.234 1318.37,220.276 1320.37,220.97 1322.36,222.5 1324.35,220.816 1326.35,220.681 1328.34,221.217 1330.33,221.401 1332.33,222.409 1334.32,219.531 1336.31,221.958 1338.3,221.562 1340.3,221.211 1342.29,220.353 1344.28,221.485 1346.28,222.601 1348.27,221.309 1350.26,221.777 1352.26,221.018 1354.25,221.481 1356.24,220.922 1358.24,221.014 1360.23,222.563 1362.22,222.386 1364.22,220.98 1366.21,221.471 1368.2,221.442 1370.2,221.265 1372.19,220.146 1374.18,221.234 1376.17,222.448 1378.17,221.563 1380.16,220.066 1382.15,221.917 1384.15,221.02 1386.14,220.646 1388.13,220.276 1390.13,220.977 1392.12,222.054 1394.11,221.724 1396.11,221.433 1398.1,221.41 1400.09,221.336 1402.09,221.593 1404.08,221.102 1406.07,221.12 1408.06,221.151 1410.06,221.964 1412.05,221.083 1414.04,221.398 1416.04,221.56 1418.03,220.797 1420.02,222.225 1422.02,221.67 1424.01,221.229 1426,221.222 1428,221.15 1429.99,221.104 1431.98,221.147 1433.98,221.575 1435.97,221.531 1437.96,221.145 1439.96,221.034 1441.95,221.573 1443.94,221.235 1445.93,221.106 1447.93,220.975 1449.92,221.206 1451.91,221.077 1453.91,221.086 1455.9,221.155 1457.89,221.36 1459.89,220.879 1461.88,221.053 1463.87,221.043 1465.87,221.351 1467.86,221.405 1469.85,221.049 1471.85,221.286 1473.84,221.221 1475.83,221.117 1477.82,221.235 1479.82,221.095 1481.81,221.091 1483.8,221.352 1485.8,221.035 1487.79,221.133 1489.78,221.125 1491.78,221.368 1493.77,221.019 1495.76,221.562 1497.76,221.425 1499.75,221.002 1501.74,221.116 1503.74,221.265 1505.73,221.433 1507.72,221.503 1509.72,221.389 1511.71,221.292 1513.7,220.954 1515.69,221.31 1517.69,221.47 1519.68,221.109 1521.67,221.243 1523.67,221.378 1525.66,221.419 1527.65,221.34 1529.65,221.198 1531.64,221.247 1533.63,221.133 1535.63,221.258 1537.62,221.097 1539.61,220.906 1541.61,221.304 1543.6,221.245 1545.59,221.193 1547.59,220.791 1549.58,221.018 1551.57,221.242 1553.56,221.192 1555.56,221.315 1557.55,221.253 1559.54,221.149 1561.54,221.115 1563.53,220.982 1565.52,221.164 1567.52,221.224 1569.51,221.014 1571.5,221.267 1573.5,221.197 1575.49,221.214 1577.48,221.325 1579.48,221.198 1581.47,221.105 1583.46,221.051 1585.45,221.13 1587.45,221.247 1589.44,221.251 1591.43,221.081 1593.43,221.21 1595.42,221.236 1597.41,221.15 1599.41,221.258 1601.4,221.09 1603.39,221.026 1605.39,221.126 1607.38,221.161 1609.37,221.139 1611.37,221.213 1613.36,221.214 1615.35,221.246 1617.35,221.252 1619.34,221.035 1621.33,221.126 1623.32,221.204 1625.32,221.247 1627.31,221.205 1629.3,221.076 1631.3,221.127 1633.29,221.219 1635.28,221.157 1637.28,221.254 1639.27,221.198 1641.26,221.121 1643.26,221.042 1645.25,221.193 1647.24,221.117 1649.24,221.125 1651.23,221.252 1653.22,221.134 1655.21,221.261 1657.21,221.175 1659.2,221.14 1661.19,221.167 1663.19,221.193 1665.18,221.206 1667.17,221.144 1669.17,221.184 1671.16,221.143 1673.15,221.215 1675.15,221.161 1677.14,221.136 1679.13,221.184 1681.13,221.127 1683.12,221.081 1685.11,221.162 1687.11,221.178 1689.1,221.165 1691.09,221.184 1693.08,221.174 1695.08,221.185 1697.07,221.174 1699.06,221.187 1701.06,221.132 1703.05,221.171 1705.04,221.118 1707.04,221.165 1709.03,221.162 1711.02,221.151 1713.02,221.143 1715.01,221.18 1717,221.165 1719,221.134 1720.99,221.169 1722.98,221.152 1724.97,221.147 1726.97,221.185 1728.96,221.165 1730.95,221.159 1732.95,221.175 1734.94,221.172 1736.93,221.151 1738.93,221.173 1740.92,221.173 1742.91,221.183 1744.91,221.166 1746.9,221.174 1748.89,221.144 1750.89,221.171 1752.88,221.162 1754.87,221.165 1756.87,221.156 1758.86,221.156 1760.85,221.155 1762.84,221.161 1764.84,221.147 1766.83,221.176 1768.82,221.155 1770.82,221.15 1772.81,221.189 1774.8,221.169 1776.8,221.152 1778.79,221.167 1780.78,221.171 1782.78,221.164 1784.77,221.148 1786.76,221.181 1788.76,221.158 1790.75,221.164 1792.74,221.164 1794.74,221.157 1796.73,221.169 1798.72,221.152 1800.71,221.167 1802.71,221.168 1804.7,221.159 1806.69,221.158 1808.69,221.174 1810.68,221.166 1812.67,221.172 1814.67,221.176 1816.66,221.165 1818.65,221.168 1820.65,221.159 1822.64,221.16 1824.63,221.16 1826.63,221.162 1828.62,221.174 1830.61,221.171 1832.6,221.16 1834.6,221.166 1836.59,221.168 1838.58,221.167 1840.58,221.169 1842.57,221.172 1844.56,221.159 1846.56,221.161 1848.55,221.164 1850.54,221.17 1852.54,221.169 1854.53,221.17 1856.52,221.16 1858.52,221.165 1860.51,221.161 1862.5,221.161 1864.5,221.167 1866.49,221.176 1868.48,221.168 1870.47,221.161 1872.47,221.165 1874.46,221.171 1876.45,221.162 1878.45,221.171 1880.44,221.164 1882.43,221.167 1884.43,221.163 1886.42,221.165 1888.41,221.166 1890.41,221.169 1892.4,221.172 1894.39,221.168 1896.39,221.165 1898.38,221.162 1900.37,221.165 1902.36,221.167 1904.36,221.165 1906.35,221.167 1908.34,221.166 1910.34,221.164 1912.33,221.166 1914.32,221.167 1916.32,221.162 1918.31,221.163 1920.3,221.162 1922.3,221.163 1924.29,221.162 1926.28,221.166 1928.28,221.165 1930.27,221.165 1932.26,221.167 1934.26,221.166 1936.25,221.166 1938.24,221.165 1940.23,221.164 1942.23,221.165 1944.22,221.165 1946.21,221.165 1948.21,221.164 1950.2,221.165 1952.19,221.165 1954.19,221.166 1956.18,221.166 1958.17,221.166 1960.17,221.163 1962.16,221.166 1964.15,221.166 1966.15,221.167 1968.14,221.165 1970.13,221.165 1972.12,221.164 1974.12,221.165 1976.11,221.164 1978.1,221.162 1980.1,221.166 1982.09,221.165 1984.08,221.165 1986.08,221.165 1988.07,221.166 1990.06,221.166 1992.06,221.165 1994.05,221.165 1996.04,221.165 1998.04,221.165 2000.03,221.165 2002.02,221.165 2004.02,221.165 2006.01,221.164 2008,221.165 2009.99,221.166 2011.99,221.165 2013.98,221.166 2015.97,221.165 2017.97,221.165 2019.96,221.166 2021.95,221.166 2023.95,221.166 2025.94,221.165 2027.93,221.166 2029.93,221.165 2031.92,221.166 2033.91,221.165 2035.91,221.165 2037.9,221.166 2039.89,221.165 2041.89,221.165 2043.88,221.165 2045.87,221.165 2047.86,221.165 2049.86,221.165 2051.85,221.165 2053.84,221.166 2055.84,221.166 2057.83,221.165 2059.82,221.166 2061.82,221.165 2063.81,221.165 2065.8,221.166 2067.8,221.165 2069.79,221.165 2071.78,221.165 2073.78,221.165 2075.77,221.165 2077.76,221.165 2079.75,221.165 2081.75,221.165 2083.74,221.165 2085.73,221.165 2087.73,221.165 2089.72,221.165 2091.71,221.165 2093.71,221.165 2095.7,221.165 2097.69,221.165 2099.69,221.165 2101.68,221.165 2103.67,221.165 2105.67,221.165 2107.66,221.165 2109.65,221.165 2111.65,221.166 2113.64,221.165 2115.63,221.165 2117.62,221.165 2119.62,221.165 2121.61,221.165 2123.6,221.165 2125.6,221.165 2127.59,221.165 2129.58,221.165 2131.58,221.165 2133.57,221.165 2135.56,221.165 2137.56,221.165 2139.55,221.165 2141.54,221.165 2143.54,221.165 2145.53,221.165 2147.52,221.165 2149.51,221.165 2151.51,221.165 2153.5,221.165 2155.49,221.165 2157.49,221.165 2159.48,221.165 2161.47,221.165 2163.47,221.165 2165.46,221.165 2167.45,221.165 2169.45,221.165 2171.44,221.165 2173.43,221.165 2175.43,221.165 2177.42,221.165 2179.41,221.165 2181.41,221.165 2183.4,221.165 2185.39,221.165 2187.38,221.165 2189.38,221.165 2191.37,221.165 2193.36,221.165 2195.36,221.165 2197.35,221.165 2199.34,221.165 2201.34,221.165 2203.33,221.165 2205.32,221.165 2207.32,221.165 2209.31,221.165 2211.3,221.165 2213.3,221.165 2215.29,221.165 2217.28,221.165 2219.27,221.165 2221.27,221.165 2223.26,221.165 2225.25,221.165 2227.25,221.165 2229.24,221.165 2231.23,221.165 2233.23,221.165 2235.22,221.165 2237.21,221.165 2239.21,221.165 2241.2,221.165 2243.19,221.165 2245.19,221.165 2247.18,221.165 2249.17,221.165 2251.17,221.165 2253.16,221.165 2255.15,221.165 2257.14,221.165 2259.14,221.165 2261.13,221.165 2263.12,221.165 2265.12,221.165 2267.11,221.165 2269.1,221.165 2271.1,221.165 2273.09,221.165 2275.08,221.165 2277.08,221.165 2279.07,221.165 2281.06,221.165 2283.06,221.165 2285.05,221.165 2287.04,221.165 2289.04,221.165 2291.03,221.165 2293.02,221.165 "/>
<path clip-path="url(#clip130)" d="M1863.63 1377.32 L2282.4 1377.32 L2282.4 1221.8 L1863.63 1221.8  Z" fill="#ffffff" fill-rule="evenodd" fill-opacity="1"/>
<polyline clip-path="url(#clip130)" style="stroke:#000000; stroke-linecap:round; stroke-linejoin:round; stroke-width:4; stroke-opacity:1; fill:none" points="1863.63,1377.32 2282.4,1377.32 2282.4,1221.8 1863.63,1221.8 1863.63,1377.32 "/>
<polyline clip-path="url(#clip130)" style="stroke:#009af9; stroke-linecap:round; stroke-linejoin:round; stroke-width:4; stroke-opacity:1; fill:none" points="1887.08,1273.64 2027.79,1273.64 "/>
<path clip-path="url(#clip130)" d="M2055.92 1274.41 L2055.92 1287.07 L2063.42 1287.07 Q2067.19 1287.07 2069 1285.52 Q2070.83 1283.95 2070.83 1280.73 Q2070.83 1277.49 2069 1275.96 Q2067.19 1274.41 2063.42 1274.41 L2055.92 1274.41 M2055.92 1260.2 L2055.92 1270.61 L2062.84 1270.61 Q2066.27 1270.61 2067.93 1269.34 Q2069.62 1268.05 2069.62 1265.41 Q2069.62 1262.79 2067.93 1261.49 Q2066.27 1260.2 2062.84 1260.2 L2055.92 1260.2 M2051.24 1256.36 L2063.19 1256.36 Q2068.53 1256.36 2071.43 1258.58 Q2074.32 1260.8 2074.32 1264.9 Q2074.32 1268.07 2072.84 1269.94 Q2071.36 1271.82 2068.49 1272.28 Q2071.94 1273.02 2073.84 1275.38 Q2075.76 1277.72 2075.76 1281.24 Q2075.76 1285.87 2072.61 1288.39 Q2069.46 1290.92 2063.65 1290.92 L2051.24 1290.92 L2051.24 1256.36 Z" fill="#000000" fill-rule="nonzero" fill-opacity="1" /><path clip-path="url(#clip130)" d="M2088.44 1274.41 L2088.44 1287.07 L2095.94 1287.07 Q2099.72 1287.07 2101.52 1285.52 Q2103.35 1283.95 2103.35 1280.73 Q2103.35 1277.49 2101.52 1275.96 Q2099.72 1274.41 2095.94 1274.41 L2088.44 1274.41 M2088.44 1260.2 L2088.44 1270.61 L2095.36 1270.61 Q2098.79 1270.61 2100.46 1269.34 Q2102.15 1268.05 2102.15 1265.41 Q2102.15 1262.79 2100.46 1261.49 Q2098.79 1260.2 2095.36 1260.2 L2088.44 1260.2 M2083.77 1256.36 L2095.71 1256.36 Q2101.06 1256.36 2103.95 1258.58 Q2106.84 1260.8 2106.84 1264.9 Q2106.84 1268.07 2105.36 1269.94 Q2103.88 1271.82 2101.01 1272.28 Q2104.46 1273.02 2106.36 1275.38 Q2108.28 1277.72 2108.28 1281.24 Q2108.28 1285.87 2105.13 1288.39 Q2101.98 1290.92 2096.17 1290.92 L2083.77 1290.92 L2083.77 1256.36 Z" fill="#000000" fill-rule="nonzero" fill-opacity="1" /><path clip-path="url(#clip130)" d="M2123.74 1290.92 L2110.55 1256.36 L2115.43 1256.36 L2126.38 1285.45 L2137.35 1256.36 L2142.22 1256.36 L2129.04 1290.92 L2123.74 1290.92 Z" fill="#000000" fill-rule="nonzero" fill-opacity="1" /><path clip-path="url(#clip130)" d="M2147.26 1256.36 L2151.94 1256.36 L2151.94 1290.92 L2147.26 1290.92 L2147.26 1256.36 Z" fill="#000000" fill-rule="nonzero" fill-opacity="1" /><path clip-path="url(#clip130)" d="M2202.19 1259.02 L2202.19 1263.95 Q2199.83 1261.75 2197.15 1260.66 Q2194.48 1259.57 2191.47 1259.57 Q2185.55 1259.57 2182.4 1263.21 Q2179.25 1266.82 2179.25 1273.67 Q2179.25 1280.5 2182.4 1284.13 Q2185.55 1287.74 2191.47 1287.74 Q2194.48 1287.74 2197.15 1286.66 Q2199.83 1285.57 2202.19 1283.37 L2202.19 1288.25 Q2199.74 1289.92 2196.98 1290.75 Q2194.25 1291.59 2191.2 1291.59 Q2183.35 1291.59 2178.84 1286.79 Q2174.32 1281.98 2174.32 1273.67 Q2174.32 1265.34 2178.84 1260.55 Q2183.35 1255.73 2191.2 1255.73 Q2194.3 1255.73 2197.03 1256.56 Q2199.78 1257.37 2202.19 1259.02 Z" fill="#000000" fill-rule="nonzero" fill-opacity="1" /><path clip-path="url(#clip130)" d="M2209.41 1256.36 L2229.27 1256.36 L2229.27 1260.29 L2214.09 1260.29 L2214.09 1270.48 L2227.79 1270.48 L2227.79 1274.41 L2214.09 1274.41 L2214.09 1290.92 L2209.41 1290.92 L2209.41 1256.36 Z" fill="#000000" fill-rule="nonzero" fill-opacity="1" /><path clip-path="url(#clip130)" d="M2236.68 1256.36 L2258.53 1256.36 L2258.53 1260.29 L2241.36 1260.29 L2241.36 1270.52 L2257.82 1270.52 L2257.82 1274.46 L2241.36 1274.46 L2241.36 1286.98 L2258.95 1286.98 L2258.95 1290.92 L2236.68 1290.92 L2236.68 1256.36 Z" fill="#000000" fill-rule="nonzero" fill-opacity="1" /><polyline clip-path="url(#clip130)" style="stroke:#e26f46; stroke-linecap:round; stroke-linejoin:round; stroke-width:4; stroke-opacity:1; fill:none" points="1887.08,1325.48 2027.79,1325.48 "/>
<path clip-path="url(#clip130)" d="M2055.92 1326.25 L2055.92 1338.91 L2063.42 1338.91 Q2067.19 1338.91 2069 1337.36 Q2070.83 1335.79 2070.83 1332.57 Q2070.83 1329.33 2069 1327.8 Q2067.19 1326.25 2063.42 1326.25 L2055.92 1326.25 M2055.92 1312.04 L2055.92 1322.45 L2062.84 1322.45 Q2066.27 1322.45 2067.93 1321.18 Q2069.62 1319.89 2069.62 1317.25 Q2069.62 1314.63 2067.93 1313.33 Q2066.27 1312.04 2062.84 1312.04 L2055.92 1312.04 M2051.24 1308.2 L2063.19 1308.2 Q2068.53 1308.2 2071.43 1310.42 Q2074.32 1312.64 2074.32 1316.74 Q2074.32 1319.91 2072.84 1321.78 Q2071.36 1323.66 2068.49 1324.12 Q2071.94 1324.86 2073.84 1327.22 Q2075.76 1329.56 2075.76 1333.08 Q2075.76 1337.71 2072.61 1340.23 Q2069.46 1342.76 2063.65 1342.76 L2051.24 1342.76 L2051.24 1308.2 Z" fill="#000000" fill-rule="nonzero" fill-opacity="1" /><path clip-path="url(#clip130)" d="M2088.44 1326.25 L2088.44 1338.91 L2095.94 1338.91 Q2099.72 1338.91 2101.52 1337.36 Q2103.35 1335.79 2103.35 1332.57 Q2103.35 1329.33 2101.52 1327.8 Q2099.72 1326.25 2095.94 1326.25 L2088.44 1326.25 M2088.44 1312.04 L2088.44 1322.45 L2095.36 1322.45 Q2098.79 1322.45 2100.46 1321.18 Q2102.15 1319.89 2102.15 1317.25 Q2102.15 1314.63 2100.46 1313.33 Q2098.79 1312.04 2095.36 1312.04 L2088.44 1312.04 M2083.77 1308.2 L2095.71 1308.2 Q2101.06 1308.2 2103.95 1310.42 Q2106.84 1312.64 2106.84 1316.74 Q2106.84 1319.91 2105.36 1321.78 Q2103.88 1323.66 2101.01 1324.12 Q2104.46 1324.86 2106.36 1327.22 Q2108.28 1329.56 2108.28 1333.08 Q2108.28 1337.71 2105.13 1340.23 Q2101.98 1342.76 2096.17 1342.76 L2083.77 1342.76 L2083.77 1308.2 Z" fill="#000000" fill-rule="nonzero" fill-opacity="1" /><path clip-path="url(#clip130)" d="M2123.74 1342.76 L2110.55 1308.2 L2115.43 1308.2 L2126.38 1337.29 L2137.35 1308.2 L2142.22 1308.2 L2129.04 1342.76 L2123.74 1342.76 Z" fill="#000000" fill-rule="nonzero" fill-opacity="1" /><path clip-path="url(#clip130)" d="M2147.26 1308.2 L2151.94 1308.2 L2151.94 1342.76 L2147.26 1342.76 L2147.26 1308.2 Z" fill="#000000" fill-rule="nonzero" fill-opacity="1" /><path clip-path="url(#clip130)" d="M2197.03 1309.33 L2197.03 1313.89 Q2194.37 1312.62 2192.01 1311.99 Q2189.65 1311.37 2187.45 1311.37 Q2183.63 1311.37 2181.54 1312.85 Q2179.48 1314.33 2179.48 1317.06 Q2179.48 1319.35 2180.85 1320.53 Q2182.24 1321.69 2186.08 1322.41 L2188.9 1322.99 Q2194.14 1323.98 2196.61 1326.51 Q2199.11 1329.01 2199.11 1333.22 Q2199.11 1338.24 2195.73 1340.83 Q2192.38 1343.43 2185.87 1343.43 Q2183.42 1343.43 2180.64 1342.87 Q2177.89 1342.32 2174.92 1341.23 L2174.92 1336.41 Q2177.77 1338.01 2180.5 1338.82 Q2183.23 1339.63 2185.87 1339.63 Q2189.88 1339.63 2192.05 1338.06 Q2194.23 1336.48 2194.23 1333.57 Q2194.23 1331.02 2192.65 1329.58 Q2191.1 1328.15 2187.54 1327.43 L2184.69 1326.88 Q2179.46 1325.83 2177.12 1323.61 Q2174.78 1321.39 2174.78 1317.43 Q2174.78 1312.85 2178 1310.21 Q2181.24 1307.57 2186.91 1307.57 Q2189.34 1307.57 2191.87 1308.01 Q2194.39 1308.45 2197.03 1309.33 Z" fill="#000000" fill-rule="nonzero" fill-opacity="1" /><path clip-path="url(#clip130)" d="M2201.61 1308.2 L2230.85 1308.2 L2230.85 1312.13 L2218.58 1312.13 L2218.58 1342.76 L2213.88 1342.76 L2213.88 1312.13 L2201.61 1312.13 L2201.61 1308.2 Z" fill="#000000" fill-rule="nonzero" fill-opacity="1" /><path clip-path="url(#clip130)" d="M2235.36 1308.2 L2240.04 1308.2 L2240.04 1338.82 L2256.87 1338.82 L2256.87 1342.76 L2235.36 1342.76 L2235.36 1308.2 Z" fill="#000000" fill-rule="nonzero" fill-opacity="1" /></svg>
