<?xml version="1.0" encoding="utf-8"?>
<svg xmlns="http://www.w3.org/2000/svg" xmlns:xlink="http://www.w3.org/1999/xlink" width="600" height="400" viewBox="0 0 2400 1600">
<defs>
  <clipPath id="clip560">
    <rect x="0" y="0" width="2400" height="1600"/>
  </clipPath>
</defs>
<path clip-path="url(#clip560)" d="M0 1600 L2400 1600 L2400 0 L0 0  Z" fill="#ffffff" fill-rule="evenodd" fill-opacity="1"/>
<defs>
  <clipPath id="clip561">
    <rect x="242" y="47" width="2112" height="1377"/>
  </clipPath>
</defs>
<path clip-path="url(#clip560)" d="M251.56 1423.18 L2352.76 1423.18 L2352.76 47.2441 L251.56 47.2441  Z" fill="#ffffff" fill-rule="evenodd" fill-opacity="1"/>
<defs>
  <clipPath id="clip562">
    <rect x="251" y="47" width="2102" height="1377"/>
  </clipPath>
</defs>
<polyline clip-path="url(#clip562)" style="stroke:#000000; stroke-linecap:round; stroke-linejoin:round; stroke-width:2; stroke-opacity:0.1; fill:none" points="309.044,1423.18 309.044,47.2441 "/>
<polyline clip-path="url(#clip562)" style="stroke:#000000; stroke-linecap:round; stroke-linejoin:round; stroke-width:2; stroke-opacity:0.1; fill:none" points="805.105,1423.18 805.105,47.2441 "/>
<polyline clip-path="url(#clip562)" style="stroke:#000000; stroke-linecap:round; stroke-linejoin:round; stroke-width:2; stroke-opacity:0.1; fill:none" points="1301.17,1423.18 1301.17,47.2441 "/>
<polyline clip-path="url(#clip562)" style="stroke:#000000; stroke-linecap:round; stroke-linejoin:round; stroke-width:2; stroke-opacity:0.1; fill:none" points="1797.23,1423.18 1797.23,47.2441 "/>
<polyline clip-path="url(#clip562)" style="stroke:#000000; stroke-linecap:round; stroke-linejoin:round; stroke-width:2; stroke-opacity:0.1; fill:none" points="2293.29,1423.18 2293.29,47.2441 "/>
<polyline clip-path="url(#clip562)" style="stroke:#000000; stroke-linecap:round; stroke-linejoin:round; stroke-width:2; stroke-opacity:0.1; fill:none" points="251.56,1125.69 2352.76,1125.69 "/>
<polyline clip-path="url(#clip562)" style="stroke:#000000; stroke-linecap:round; stroke-linejoin:round; stroke-width:2; stroke-opacity:0.1; fill:none" points="251.56,229.389 2352.76,229.389 "/>
<polyline clip-path="url(#clip560)" style="stroke:#000000; stroke-linecap:round; stroke-linejoin:round; stroke-width:4; stroke-opacity:1; fill:none" points="251.56,1423.18 2352.76,1423.18 "/>
<polyline clip-path="url(#clip560)" style="stroke:#000000; stroke-linecap:round; stroke-linejoin:round; stroke-width:4; stroke-opacity:1; fill:none" points="309.044,1423.18 309.044,1404.28 "/>
<polyline clip-path="url(#clip560)" style="stroke:#000000; stroke-linecap:round; stroke-linejoin:round; stroke-width:4; stroke-opacity:1; fill:none" points="805.105,1423.18 805.105,1404.28 "/>
<polyline clip-path="url(#clip560)" style="stroke:#000000; stroke-linecap:round; stroke-linejoin:round; stroke-width:4; stroke-opacity:1; fill:none" points="1301.17,1423.18 1301.17,1404.28 "/>
<polyline clip-path="url(#clip560)" style="stroke:#000000; stroke-linecap:round; stroke-linejoin:round; stroke-width:4; stroke-opacity:1; fill:none" points="1797.23,1423.18 1797.23,1404.28 "/>
<polyline clip-path="url(#clip560)" style="stroke:#000000; stroke-linecap:round; stroke-linejoin:round; stroke-width:4; stroke-opacity:1; fill:none" points="2293.29,1423.18 2293.29,1404.28 "/>
<path clip-path="url(#clip560)" d="M309.044 1454.1 Q305.433 1454.1 303.604 1457.66 Q301.798 1461.2 301.798 1468.33 Q301.798 1475.44 303.604 1479.01 Q305.433 1482.55 309.044 1482.55 Q312.678 1482.55 314.484 1479.01 Q316.312 1475.44 316.312 1468.33 Q316.312 1461.2 314.484 1457.66 Q312.678 1454.1 309.044 1454.1 M309.044 1450.39 Q314.854 1450.39 317.91 1455 Q320.988 1459.58 320.988 1468.33 Q320.988 1477.06 317.91 1481.67 Q314.854 1486.25 309.044 1486.25 Q303.234 1486.25 300.155 1481.67 Q297.099 1477.06 297.099 1468.33 Q297.099 1459.58 300.155 1455 Q303.234 1450.39 309.044 1450.39 Z" fill="#000000" fill-rule="nonzero" fill-opacity="1" /><path clip-path="url(#clip560)" d="M768.797 1481.64 L785.117 1481.64 L785.117 1485.58 L763.172 1485.58 L763.172 1481.64 Q765.834 1478.89 770.418 1474.26 Q775.024 1469.61 776.205 1468.27 Q778.45 1465.74 779.33 1464.01 Q780.232 1462.25 780.232 1460.56 Q780.232 1457.8 778.288 1456.07 Q776.367 1454.33 773.265 1454.33 Q771.066 1454.33 768.612 1455.09 Q766.181 1455.86 763.404 1457.41 L763.404 1452.69 Q766.228 1451.55 768.681 1450.97 Q771.135 1450.39 773.172 1450.39 Q778.543 1450.39 781.737 1453.08 Q784.931 1455.77 784.931 1460.26 Q784.931 1462.39 784.121 1464.31 Q783.334 1466.2 781.228 1468.8 Q780.649 1469.47 777.547 1472.69 Q774.445 1475.88 768.797 1481.64 Z" fill="#000000" fill-rule="nonzero" fill-opacity="1" /><path clip-path="url(#clip560)" d="M794.978 1451.02 L813.334 1451.02 L813.334 1454.96 L799.26 1454.96 L799.26 1463.43 Q800.279 1463.08 801.297 1462.92 Q802.316 1462.73 803.334 1462.73 Q809.121 1462.73 812.501 1465.9 Q815.88 1469.08 815.88 1474.49 Q815.88 1480.07 812.408 1483.17 Q808.936 1486.25 802.616 1486.25 Q800.441 1486.25 798.172 1485.88 Q795.927 1485.51 793.519 1484.77 L793.519 1480.07 Q795.603 1481.2 797.825 1481.76 Q800.047 1482.32 802.524 1482.32 Q806.528 1482.32 808.866 1480.21 Q811.204 1478.1 811.204 1474.49 Q811.204 1470.88 808.866 1468.77 Q806.528 1466.67 802.524 1466.67 Q800.649 1466.67 798.774 1467.08 Q796.922 1467.5 794.978 1468.38 L794.978 1451.02 Z" fill="#000000" fill-rule="nonzero" fill-opacity="1" /><path clip-path="url(#clip560)" d="M835.093 1454.1 Q831.482 1454.1 829.653 1457.66 Q827.848 1461.2 827.848 1468.33 Q827.848 1475.44 829.653 1479.01 Q831.482 1482.55 835.093 1482.55 Q838.727 1482.55 840.533 1479.01 Q842.362 1475.44 842.362 1468.33 Q842.362 1461.2 840.533 1457.66 Q838.727 1454.1 835.093 1454.1 M835.093 1450.39 Q840.903 1450.39 843.959 1455 Q847.038 1459.58 847.038 1468.33 Q847.038 1477.06 843.959 1481.67 Q840.903 1486.25 835.093 1486.25 Q829.283 1486.25 826.204 1481.67 Q823.149 1477.06 823.149 1468.33 Q823.149 1459.58 826.204 1455 Q829.283 1450.39 835.093 1450.39 Z" fill="#000000" fill-rule="nonzero" fill-opacity="1" /><path clip-path="url(#clip560)" d="M1260.78 1451.02 L1279.14 1451.02 L1279.14 1454.96 L1265.07 1454.96 L1265.07 1463.43 Q1266.09 1463.08 1267.1 1462.92 Q1268.12 1462.73 1269.14 1462.73 Q1274.93 1462.73 1278.31 1465.9 Q1281.69 1469.08 1281.69 1474.49 Q1281.69 1480.07 1278.21 1483.17 Q1274.74 1486.25 1268.42 1486.25 Q1266.25 1486.25 1263.98 1485.88 Q1261.73 1485.51 1259.33 1484.77 L1259.33 1480.07 Q1261.41 1481.2 1263.63 1481.76 Q1265.85 1482.32 1268.33 1482.32 Q1272.34 1482.32 1274.67 1480.21 Q1277.01 1478.1 1277.01 1474.49 Q1277.01 1470.88 1274.67 1468.77 Q1272.34 1466.67 1268.33 1466.67 Q1266.46 1466.67 1264.58 1467.08 Q1262.73 1467.5 1260.78 1468.38 L1260.78 1451.02 Z" fill="#000000" fill-rule="nonzero" fill-opacity="1" /><path clip-path="url(#clip560)" d="M1300.9 1454.1 Q1297.29 1454.1 1295.46 1457.66 Q1293.65 1461.2 1293.65 1468.33 Q1293.65 1475.44 1295.46 1479.01 Q1297.29 1482.55 1300.9 1482.55 Q1304.53 1482.55 1306.34 1479.01 Q1308.17 1475.44 1308.17 1468.33 Q1308.17 1461.2 1306.34 1457.66 Q1304.53 1454.1 1300.9 1454.1 M1300.9 1450.39 Q1306.71 1450.39 1309.77 1455 Q1312.84 1459.58 1312.84 1468.33 Q1312.84 1477.06 1309.77 1481.67 Q1306.71 1486.25 1300.9 1486.25 Q1295.09 1486.25 1292.01 1481.67 Q1288.96 1477.06 1288.96 1468.33 Q1288.96 1459.58 1292.01 1455 Q1295.09 1450.39 1300.9 1450.39 Z" fill="#000000" fill-rule="nonzero" fill-opacity="1" /><path clip-path="url(#clip560)" d="M1331.06 1454.1 Q1327.45 1454.1 1325.62 1457.66 Q1323.82 1461.2 1323.82 1468.33 Q1323.82 1475.44 1325.62 1479.01 Q1327.45 1482.55 1331.06 1482.55 Q1334.7 1482.55 1336.5 1479.01 Q1338.33 1475.44 1338.33 1468.33 Q1338.33 1461.2 1336.5 1457.66 Q1334.7 1454.1 1331.06 1454.1 M1331.06 1450.39 Q1336.87 1450.39 1339.93 1455 Q1343.01 1459.58 1343.01 1468.33 Q1343.01 1477.06 1339.93 1481.67 Q1336.87 1486.25 1331.06 1486.25 Q1325.25 1486.25 1322.17 1481.67 Q1319.12 1477.06 1319.12 1468.33 Q1319.12 1459.58 1322.17 1455 Q1325.25 1450.39 1331.06 1450.39 Z" fill="#000000" fill-rule="nonzero" fill-opacity="1" /><path clip-path="url(#clip560)" d="M1755.5 1451.02 L1777.72 1451.02 L1777.72 1453.01 L1765.18 1485.58 L1760.29 1485.58 L1772.1 1454.96 L1755.5 1454.96 L1755.5 1451.02 Z" fill="#000000" fill-rule="nonzero" fill-opacity="1" /><path clip-path="url(#clip560)" d="M1786.89 1451.02 L1805.25 1451.02 L1805.25 1454.96 L1791.17 1454.96 L1791.17 1463.43 Q1792.19 1463.08 1793.21 1462.92 Q1794.23 1462.73 1795.25 1462.73 Q1801.03 1462.73 1804.41 1465.9 Q1807.79 1469.08 1807.79 1474.49 Q1807.79 1480.07 1804.32 1483.17 Q1800.85 1486.25 1794.53 1486.25 Q1792.35 1486.25 1790.09 1485.88 Q1787.84 1485.51 1785.43 1484.77 L1785.43 1480.07 Q1787.52 1481.2 1789.74 1481.76 Q1791.96 1482.32 1794.44 1482.32 Q1798.44 1482.32 1800.78 1480.21 Q1803.12 1478.1 1803.12 1474.49 Q1803.12 1470.88 1800.78 1468.77 Q1798.44 1466.67 1794.44 1466.67 Q1792.56 1466.67 1790.69 1467.08 Q1788.84 1467.5 1786.89 1468.38 L1786.89 1451.02 Z" fill="#000000" fill-rule="nonzero" fill-opacity="1" /><path clip-path="url(#clip560)" d="M1827.01 1454.1 Q1823.4 1454.1 1821.57 1457.66 Q1819.76 1461.2 1819.76 1468.33 Q1819.76 1475.44 1821.57 1479.01 Q1823.4 1482.55 1827.01 1482.55 Q1830.64 1482.55 1832.45 1479.01 Q1834.28 1475.44 1834.28 1468.33 Q1834.28 1461.2 1832.45 1457.66 Q1830.64 1454.1 1827.01 1454.1 M1827.01 1450.39 Q1832.82 1450.39 1835.87 1455 Q1838.95 1459.58 1838.95 1468.33 Q1838.95 1477.06 1835.87 1481.67 Q1832.82 1486.25 1827.01 1486.25 Q1821.2 1486.25 1818.12 1481.67 Q1815.06 1477.06 1815.06 1468.33 Q1815.06 1459.58 1818.12 1455 Q1821.2 1450.39 1827.01 1450.39 Z" fill="#000000" fill-rule="nonzero" fill-opacity="1" /><path clip-path="url(#clip560)" d="M2237.81 1481.64 L2245.45 1481.64 L2245.45 1455.28 L2237.14 1456.95 L2237.14 1452.69 L2245.41 1451.02 L2250.08 1451.02 L2250.08 1481.64 L2257.72 1481.64 L2257.72 1485.58 L2237.81 1485.58 L2237.81 1481.64 Z" fill="#000000" fill-rule="nonzero" fill-opacity="1" /><path clip-path="url(#clip560)" d="M2277.17 1454.1 Q2273.55 1454.1 2271.73 1457.66 Q2269.92 1461.2 2269.92 1468.33 Q2269.92 1475.44 2271.73 1479.01 Q2273.55 1482.55 2277.17 1482.55 Q2280.8 1482.55 2282.61 1479.01 Q2284.43 1475.44 2284.43 1468.33 Q2284.43 1461.2 2282.61 1457.66 Q2280.8 1454.1 2277.17 1454.1 M2277.17 1450.39 Q2282.98 1450.39 2286.03 1455 Q2289.11 1459.58 2289.11 1468.33 Q2289.11 1477.06 2286.03 1481.67 Q2282.98 1486.25 2277.17 1486.25 Q2271.36 1486.25 2268.28 1481.67 Q2265.22 1477.06 2265.22 1468.33 Q2265.22 1459.58 2268.28 1455 Q2271.36 1450.39 2277.17 1450.39 Z" fill="#000000" fill-rule="nonzero" fill-opacity="1" /><path clip-path="url(#clip560)" d="M2307.33 1454.1 Q2303.72 1454.1 2301.89 1457.66 Q2300.08 1461.2 2300.08 1468.33 Q2300.08 1475.44 2301.89 1479.01 Q2303.72 1482.55 2307.33 1482.55 Q2310.96 1482.55 2312.77 1479.01 Q2314.6 1475.44 2314.6 1468.33 Q2314.6 1461.2 2312.77 1457.66 Q2310.96 1454.1 2307.33 1454.1 M2307.33 1450.39 Q2313.14 1450.39 2316.19 1455 Q2319.27 1459.58 2319.27 1468.33 Q2319.27 1477.06 2316.19 1481.67 Q2313.14 1486.25 2307.33 1486.25 Q2301.52 1486.25 2298.44 1481.67 Q2295.38 1477.06 2295.38 1468.33 Q2295.38 1459.58 2298.44 1455 Q2301.52 1450.39 2307.33 1450.39 Z" fill="#000000" fill-rule="nonzero" fill-opacity="1" /><path clip-path="url(#clip560)" d="M2337.49 1454.1 Q2333.88 1454.1 2332.05 1457.66 Q2330.24 1461.2 2330.24 1468.33 Q2330.24 1475.44 2332.05 1479.01 Q2333.88 1482.55 2337.49 1482.55 Q2341.12 1482.55 2342.93 1479.01 Q2344.76 1475.44 2344.76 1468.33 Q2344.76 1461.2 2342.93 1457.66 Q2341.12 1454.1 2337.49 1454.1 M2337.49 1450.39 Q2343.3 1450.39 2346.35 1455 Q2349.43 1459.58 2349.43 1468.33 Q2349.43 1477.06 2346.35 1481.67 Q2343.3 1486.25 2337.49 1486.25 Q2331.68 1486.25 2328.6 1481.67 Q2325.54 1477.06 2325.54 1468.33 Q2325.54 1459.58 2328.6 1455 Q2331.68 1450.39 2337.49 1450.39 Z" fill="#000000" fill-rule="nonzero" fill-opacity="1" /><path clip-path="url(#clip560)" d="M1169.88 1520.52 L1176.31 1520.52 L1176.31 1568.04 L1169.88 1568.04 L1169.88 1520.52 Z" fill="#000000" fill-rule="nonzero" fill-opacity="1" /><path clip-path="url(#clip560)" d="M1194.64 1522.27 L1194.64 1532.4 L1206.7 1532.4 L1206.7 1536.95 L1194.64 1536.95 L1194.64 1556.3 Q1194.64 1560.66 1195.82 1561.9 Q1197.03 1563.14 1200.69 1563.14 L1206.7 1563.14 L1206.7 1568.04 L1200.69 1568.04 Q1193.91 1568.04 1191.33 1565.53 Q1188.75 1562.98 1188.75 1556.3 L1188.75 1536.95 L1184.46 1536.95 L1184.46 1532.4 L1188.75 1532.4 L1188.75 1522.27 L1194.64 1522.27 Z" fill="#000000" fill-rule="nonzero" fill-opacity="1" /><path clip-path="url(#clip560)" d="M1244.9 1548.76 L1244.9 1551.62 L1217.97 1551.62 Q1218.35 1557.67 1221.6 1560.85 Q1224.88 1564 1230.7 1564 Q1234.08 1564 1237.23 1563.17 Q1240.41 1562.35 1243.53 1560.69 L1243.53 1566.23 Q1240.38 1567.57 1237.07 1568.27 Q1233.76 1568.97 1230.35 1568.97 Q1221.82 1568.97 1216.83 1564 Q1211.86 1559.04 1211.86 1550.57 Q1211.86 1541.82 1216.57 1536.69 Q1221.31 1531.54 1229.33 1531.54 Q1236.53 1531.54 1240.7 1536.18 Q1244.9 1540.8 1244.9 1548.76 M1239.04 1547.04 Q1238.98 1542.23 1236.34 1539.37 Q1233.73 1536.5 1229.4 1536.5 Q1224.5 1536.5 1221.54 1539.27 Q1218.61 1542.04 1218.16 1547.07 L1239.04 1547.04 Z" fill="#000000" fill-rule="nonzero" fill-opacity="1" /><path clip-path="url(#clip560)" d="M1275.17 1537.87 Q1274.18 1537.3 1273 1537.04 Q1271.86 1536.76 1270.46 1536.76 Q1265.49 1536.76 1262.82 1540 Q1260.18 1543.22 1260.18 1549.27 L1260.18 1568.04 L1254.29 1568.04 L1254.29 1532.4 L1260.18 1532.4 L1260.18 1537.93 Q1262.02 1534.69 1264.98 1533.13 Q1267.94 1531.54 1272.18 1531.54 Q1272.78 1531.54 1273.51 1531.63 Q1274.24 1531.7 1275.14 1531.85 L1275.17 1537.87 Z" fill="#000000" fill-rule="nonzero" fill-opacity="1" /><path clip-path="url(#clip560)" d="M1297.51 1550.12 Q1290.41 1550.12 1287.68 1551.75 Q1284.94 1553.37 1284.94 1557.29 Q1284.94 1560.4 1286.98 1562.25 Q1289.04 1564.07 1292.58 1564.07 Q1297.45 1564.07 1300.38 1560.63 Q1303.34 1557.16 1303.34 1551.43 L1303.34 1550.12 L1297.51 1550.12 M1309.19 1547.71 L1309.19 1568.04 L1303.34 1568.04 L1303.34 1562.63 Q1301.33 1565.88 1298.34 1567.44 Q1295.35 1568.97 1291.02 1568.97 Q1285.54 1568.97 1282.3 1565.91 Q1279.08 1562.82 1279.08 1557.67 Q1279.08 1551.65 1283.09 1548.6 Q1287.14 1545.54 1295.12 1545.54 L1303.34 1545.54 L1303.34 1544.97 Q1303.34 1540.93 1300.66 1538.73 Q1298.02 1536.5 1293.21 1536.5 Q1290.16 1536.5 1287.26 1537.23 Q1284.37 1537.97 1281.69 1539.43 L1281.69 1534.02 Q1284.91 1532.78 1287.93 1532.17 Q1290.95 1531.54 1293.82 1531.54 Q1301.55 1531.54 1305.37 1535.55 Q1309.19 1539.56 1309.19 1547.71 Z" fill="#000000" fill-rule="nonzero" fill-opacity="1" /><path clip-path="url(#clip560)" d="M1327.05 1522.27 L1327.05 1532.4 L1339.11 1532.4 L1339.11 1536.95 L1327.05 1536.95 L1327.05 1556.3 Q1327.05 1560.66 1328.23 1561.9 Q1329.44 1563.14 1333.1 1563.14 L1339.11 1563.14 L1339.11 1568.04 L1333.1 1568.04 Q1326.32 1568.04 1323.74 1565.53 Q1321.16 1562.98 1321.16 1556.3 L1321.16 1536.95 L1316.86 1536.95 L1316.86 1532.4 L1321.16 1532.4 L1321.16 1522.27 L1327.05 1522.27 Z" fill="#000000" fill-rule="nonzero" fill-opacity="1" /><path clip-path="url(#clip560)" d="M1346.81 1532.4 L1352.67 1532.4 L1352.67 1568.04 L1346.81 1568.04 L1346.81 1532.4 M1346.81 1518.52 L1352.67 1518.52 L1352.67 1525.93 L1346.81 1525.93 L1346.81 1518.52 Z" fill="#000000" fill-rule="nonzero" fill-opacity="1" /><path clip-path="url(#clip560)" d="M1378.74 1536.5 Q1374.03 1536.5 1371.29 1540.19 Q1368.55 1543.85 1368.55 1550.25 Q1368.55 1556.65 1371.26 1560.34 Q1374 1564 1378.74 1564 Q1383.42 1564 1386.15 1560.31 Q1388.89 1556.62 1388.89 1550.25 Q1388.89 1543.92 1386.15 1540.23 Q1383.42 1536.5 1378.74 1536.5 M1378.74 1531.54 Q1386.38 1531.54 1390.74 1536.5 Q1395.1 1541.47 1395.1 1550.25 Q1395.1 1559 1390.74 1564 Q1386.38 1568.97 1378.74 1568.97 Q1371.07 1568.97 1366.71 1564 Q1362.38 1559 1362.38 1550.25 Q1362.38 1541.47 1366.71 1536.5 Q1371.07 1531.54 1378.74 1531.54 Z" fill="#000000" fill-rule="nonzero" fill-opacity="1" /><path clip-path="url(#clip560)" d="M1434.44 1546.53 L1434.44 1568.04 L1428.58 1568.04 L1428.58 1546.72 Q1428.58 1541.66 1426.61 1539.14 Q1424.63 1536.63 1420.69 1536.63 Q1415.95 1536.63 1413.21 1539.65 Q1410.47 1542.68 1410.47 1547.9 L1410.47 1568.04 L1404.58 1568.04 L1404.58 1532.4 L1410.47 1532.4 L1410.47 1537.93 Q1412.57 1534.72 1415.4 1533.13 Q1418.27 1531.54 1421.99 1531.54 Q1428.14 1531.54 1431.29 1535.36 Q1434.44 1539.14 1434.44 1546.53 Z" fill="#000000" fill-rule="nonzero" fill-opacity="1" /><polyline clip-path="url(#clip560)" style="stroke:#000000; stroke-linecap:round; stroke-linejoin:round; stroke-width:4; stroke-opacity:1; fill:none" points="251.56,1423.18 251.56,47.2441 "/>
<polyline clip-path="url(#clip560)" style="stroke:#000000; stroke-linecap:round; stroke-linejoin:round; stroke-width:4; stroke-opacity:1; fill:none" points="251.56,1125.69 270.458,1125.69 "/>
<polyline clip-path="url(#clip560)" style="stroke:#000000; stroke-linecap:round; stroke-linejoin:round; stroke-width:4; stroke-opacity:1; fill:none" points="251.56,229.389 270.458,229.389 "/>
<path clip-path="url(#clip560)" d="M114.931 1145.48 L122.57 1145.48 L122.57 1119.12 L114.26 1120.78 L114.26 1116.52 L122.524 1114.86 L127.2 1114.86 L127.2 1145.48 L134.839 1145.48 L134.839 1149.42 L114.931 1149.42 L114.931 1145.48 Z" fill="#000000" fill-rule="nonzero" fill-opacity="1" /><path clip-path="url(#clip560)" d="M154.283 1117.94 Q150.672 1117.94 148.843 1121.5 Q147.038 1125.04 147.038 1132.17 Q147.038 1139.28 148.843 1142.84 Q150.672 1146.38 154.283 1146.38 Q157.917 1146.38 159.723 1142.84 Q161.552 1139.28 161.552 1132.17 Q161.552 1125.04 159.723 1121.5 Q157.917 1117.94 154.283 1117.94 M154.283 1114.23 Q160.093 1114.23 163.149 1118.84 Q166.227 1123.42 166.227 1132.17 Q166.227 1140.9 163.149 1145.51 Q160.093 1150.09 154.283 1150.09 Q148.473 1150.09 145.394 1145.51 Q142.339 1140.9 142.339 1132.17 Q142.339 1123.42 145.394 1118.84 Q148.473 1114.23 154.283 1114.23 Z" fill="#000000" fill-rule="nonzero" fill-opacity="1" /><path clip-path="url(#clip560)" d="M166.227 1108.33 L190.339 1108.33 L190.339 1111.53 L166.227 1111.53 L166.227 1108.33 Z" fill="#000000" fill-rule="nonzero" fill-opacity="1" /><path clip-path="url(#clip560)" d="M198.577 1093.93 L213.491 1093.93 L213.491 1097.12 L202.056 1097.12 L202.056 1104.01 Q202.884 1103.73 203.711 1103.59 Q204.539 1103.44 205.366 1103.44 Q210.068 1103.44 212.814 1106.02 Q215.56 1108.6 215.56 1113 Q215.56 1117.53 212.739 1120.05 Q209.918 1122.55 204.783 1122.55 Q203.015 1122.55 201.172 1122.25 Q199.348 1121.95 197.392 1121.35 L197.392 1117.53 Q199.085 1118.45 200.89 1118.9 Q202.696 1119.36 204.708 1119.36 Q207.962 1119.36 209.861 1117.64 Q211.761 1115.93 211.761 1113 Q211.761 1110.06 209.861 1108.35 Q207.962 1106.64 204.708 1106.64 Q203.185 1106.64 201.661 1106.98 Q200.157 1107.32 198.577 1108.03 L198.577 1093.93 Z" fill="#000000" fill-rule="nonzero" fill-opacity="1" /><path clip-path="url(#clip560)" d="M144.855 249.182 L152.493 249.182 L152.493 222.816 L144.183 224.483 L144.183 220.223 L152.447 218.557 L157.123 218.557 L157.123 249.182 L164.762 249.182 L164.762 253.117 L144.855 253.117 L144.855 249.182 Z" fill="#000000" fill-rule="nonzero" fill-opacity="1" /><path clip-path="url(#clip560)" d="M184.206 221.635 Q180.595 221.635 178.766 225.2 Q176.961 228.742 176.961 235.871 Q176.961 242.978 178.766 246.543 Q180.595 250.084 184.206 250.084 Q187.84 250.084 189.646 246.543 Q191.475 242.978 191.475 235.871 Q191.475 228.742 189.646 225.2 Q187.84 221.635 184.206 221.635 M184.206 217.932 Q190.016 217.932 193.072 222.538 Q196.151 227.122 196.151 235.871 Q196.151 244.598 193.072 249.205 Q190.016 253.788 184.206 253.788 Q178.396 253.788 175.317 249.205 Q172.262 244.598 172.262 235.871 Q172.262 227.122 175.317 222.538 Q178.396 217.932 184.206 217.932 Z" fill="#000000" fill-rule="nonzero" fill-opacity="1" /><path clip-path="url(#clip560)" d="M205.855 200.128 Q202.921 200.128 201.436 203.024 Q199.969 205.902 199.969 211.695 Q199.969 217.469 201.436 220.365 Q202.921 223.243 205.855 223.243 Q208.808 223.243 210.275 220.365 Q211.761 217.469 211.761 211.695 Q211.761 205.902 210.275 203.024 Q208.808 200.128 205.855 200.128 M205.855 197.119 Q210.576 197.119 213.059 200.861 Q215.56 204.585 215.56 211.695 Q215.56 218.785 213.059 222.528 Q210.576 226.252 205.855 226.252 Q201.135 226.252 198.633 222.528 Q196.151 218.785 196.151 211.695 Q196.151 204.585 198.633 200.861 Q201.135 197.119 205.855 197.119 Z" fill="#000000" fill-rule="nonzero" fill-opacity="1" /><path clip-path="url(#clip560)" d="M33.7671 1042.8 L14.479 1042.8 L14.479 1036.95 L64.0042 1036.95 L64.0042 1042.8 L58.657 1042.8 Q61.8398 1044.65 63.3994 1047.48 Q64.9272 1050.28 64.9272 1054.23 Q64.9272 1060.69 59.771 1064.76 Q54.6147 1068.81 46.212 1068.81 Q37.8093 1068.81 32.6531 1064.76 Q27.4968 1060.69 27.4968 1054.23 Q27.4968 1050.28 29.0564 1047.48 Q30.5842 1044.65 33.7671 1042.8 M46.212 1062.76 Q52.6732 1062.76 56.3653 1060.12 Q60.0256 1057.44 60.0256 1052.8 Q60.0256 1048.15 56.3653 1045.48 Q52.6732 1042.8 46.212 1042.8 Q39.7508 1042.8 36.0905 1045.48 Q32.3984 1048.15 32.3984 1052.8 Q32.3984 1057.44 36.0905 1060.12 Q39.7508 1062.76 46.212 1062.76 Z" fill="#000000" fill-rule="nonzero" fill-opacity="1" /><path clip-path="url(#clip560)" d="M28.3562 1024.88 L28.3562 1019.03 L64.0042 1019.03 L64.0042 1024.88 L28.3562 1024.88 M14.479 1024.88 L14.479 1019.03 L21.895 1019.03 L21.895 1024.88 L14.479 1024.88 Z" fill="#000000" fill-rule="nonzero" fill-opacity="1" /><path clip-path="url(#clip560)" d="M29.4065 984.047 L34.9447 984.047 Q33.6716 986.53 33.035 989.204 Q32.3984 991.877 32.3984 994.742 Q32.3984 999.102 33.7352 1001.3 Q35.072 1003.46 37.7456 1003.46 Q39.7826 1003.46 40.9603 1001.9 Q42.1061 1000.34 43.1565 995.633 L43.6021 993.628 Q44.9389 987.389 47.3897 984.779 Q49.8086 982.138 54.1691 982.138 Q59.1344 982.138 62.0308 986.084 Q64.9272 989.999 64.9272 996.874 Q64.9272 999.739 64.3543 1002.86 Q63.8132 1005.95 62.6992 1009.38 L56.6518 1009.38 Q58.3387 1006.14 59.198 1002.99 Q60.0256 999.834 60.0256 996.747 Q60.0256 992.609 58.6251 990.381 Q57.1929 988.153 54.6147 988.153 Q52.2276 988.153 50.9545 989.777 Q49.6813 991.368 48.5037 996.811 L48.0262 998.848 Q46.8804 1004.29 44.5251 1006.71 Q42.138 1009.13 38.0002 1009.13 Q32.9713 1009.13 30.2341 1005.56 Q27.4968 1002 27.4968 995.442 Q27.4968 992.196 27.9743 989.331 Q28.4517 986.466 29.4065 984.047 Z" fill="#000000" fill-rule="nonzero" fill-opacity="1" /><path clip-path="url(#clip560)" d="M18.2347 967.019 L28.3562 967.019 L28.3562 954.956 L32.9077 954.956 L32.9077 967.019 L52.2594 967.019 Q56.6199 967.019 57.8613 965.842 Q59.1026 964.632 59.1026 960.972 L59.1026 954.956 L64.0042 954.956 L64.0042 960.972 Q64.0042 967.751 61.4897 970.329 Q58.9434 972.907 52.2594 972.907 L32.9077 972.907 L32.9077 977.204 L28.3562 977.204 L28.3562 972.907 L18.2347 972.907 L18.2347 967.019 Z" fill="#000000" fill-rule="nonzero" fill-opacity="1" /><path clip-path="url(#clip560)" d="M46.0847 931.053 Q46.0847 938.151 47.7079 940.888 Q49.3312 943.625 53.2461 943.625 Q56.3653 943.625 58.2114 941.588 Q60.0256 939.519 60.0256 935.986 Q60.0256 931.117 56.5881 928.188 Q53.1188 925.228 47.3897 925.228 L46.0847 925.228 L46.0847 931.053 M43.6657 919.372 L64.0042 919.372 L64.0042 925.228 L58.5933 925.228 Q61.8398 927.234 63.3994 930.225 Q64.9272 933.217 64.9272 937.546 Q64.9272 943.02 61.8716 946.267 Q58.7843 949.482 53.6281 949.482 Q47.6125 949.482 44.5569 945.471 Q41.5014 941.429 41.5014 933.44 L41.5014 925.228 L40.9285 925.228 Q36.8862 925.228 34.6901 927.902 Q32.4621 930.544 32.4621 935.35 Q32.4621 938.405 33.1941 941.302 Q33.9262 944.198 35.3903 946.872 L29.9795 946.872 Q28.7381 943.657 28.1334 940.633 Q27.4968 937.61 27.4968 934.745 Q27.4968 927.011 31.5072 923.191 Q35.5176 919.372 43.6657 919.372 Z" fill="#000000" fill-rule="nonzero" fill-opacity="1" /><path clip-path="url(#clip560)" d="M42.4881 877.676 L64.0042 877.676 L64.0042 883.533 L42.679 883.533 Q37.6183 883.533 35.1038 885.506 Q32.5894 887.48 32.5894 891.426 Q32.5894 896.169 35.6131 898.906 Q38.6368 901.643 43.8567 901.643 L64.0042 901.643 L64.0042 907.532 L28.3562 907.532 L28.3562 901.643 L33.8944 901.643 Q30.6797 899.543 29.0883 896.71 Q27.4968 893.845 27.4968 890.121 Q27.4968 883.979 31.3163 880.828 Q35.1038 877.676 42.4881 877.676 Z" fill="#000000" fill-rule="nonzero" fill-opacity="1" /><path clip-path="url(#clip560)" d="M29.7248 840.342 L35.1993 840.342 Q33.8307 842.824 33.1623 845.339 Q32.4621 847.821 32.4621 850.368 Q32.4621 856.065 36.0905 859.216 Q39.6872 862.367 46.212 862.367 Q52.7369 862.367 56.3653 859.216 Q59.9619 856.065 59.9619 850.368 Q59.9619 847.821 59.2935 845.339 Q58.5933 842.824 57.2247 840.342 L62.6355 840.342 Q63.7814 842.792 64.3543 845.434 Q64.9272 848.044 64.9272 851.004 Q64.9272 859.057 59.8664 863.799 Q54.8057 868.542 46.212 868.542 Q37.491 868.542 32.4939 863.767 Q27.4968 858.961 27.4968 850.622 Q27.4968 847.917 28.0697 845.339 Q28.6108 842.761 29.7248 840.342 Z" fill="#000000" fill-rule="nonzero" fill-opacity="1" /><path clip-path="url(#clip560)" d="M44.7161 799.665 L47.5806 799.665 L47.5806 826.592 Q53.6281 826.21 56.8109 822.963 Q59.9619 819.685 59.9619 813.86 Q59.9619 810.486 59.1344 807.335 Q58.3069 804.153 56.6518 801.033 L62.1899 801.033 Q63.5267 804.184 64.227 807.495 Q64.9272 810.805 64.9272 814.21 Q64.9272 822.74 59.9619 827.738 Q54.9967 832.703 46.5303 832.703 Q37.7774 832.703 32.6531 827.992 Q27.4968 823.25 27.4968 815.229 Q27.4968 808.036 32.1438 803.866 Q36.7589 799.665 44.7161 799.665 M42.9973 805.521 Q38.1912 805.585 35.3266 808.227 Q32.4621 810.837 32.4621 815.165 Q32.4621 820.067 35.2312 823.027 Q38.0002 825.955 43.0292 826.401 L42.9973 805.521 Z" fill="#000000" fill-rule="nonzero" fill-opacity="1" /><path clip-path="url(#clip560)" d="M18.2347 763.539 L28.3562 763.539 L28.3562 751.476 L32.9077 751.476 L32.9077 763.539 L52.2594 763.539 Q56.6199 763.539 57.8613 762.362 Q59.1026 761.152 59.1026 757.492 L59.1026 751.476 L64.0042 751.476 L64.0042 757.492 Q64.0042 764.271 61.4897 766.85 Q58.9434 769.428 52.2594 769.428 L32.9077 769.428 L32.9077 773.724 L28.3562 773.724 L28.3562 769.428 L18.2347 769.428 L18.2347 763.539 Z" fill="#000000" fill-rule="nonzero" fill-opacity="1" /><path clip-path="url(#clip560)" d="M32.4621 729.96 Q32.4621 734.671 36.1542 737.408 Q39.8145 740.145 46.212 740.145 Q52.6095 740.145 56.3017 737.44 Q59.9619 734.703 59.9619 729.96 Q59.9619 725.281 56.2698 722.544 Q52.5777 719.807 46.212 719.807 Q39.8781 719.807 36.186 722.544 Q32.4621 725.281 32.4621 729.96 M27.4968 729.96 Q27.4968 722.321 32.4621 717.961 Q37.4273 713.6 46.212 713.6 Q54.9649 713.6 59.9619 717.961 Q64.9272 722.321 64.9272 729.96 Q64.9272 737.631 59.9619 741.991 Q54.9649 746.32 46.212 746.32 Q37.4273 746.32 32.4621 741.991 Q27.4968 737.631 27.4968 729.96 Z" fill="#000000" fill-rule="nonzero" fill-opacity="1" /><path clip-path="url(#clip560)" d="M32.4621 669.359 Q32.4621 674.069 36.1542 676.807 Q39.8145 679.544 46.212 679.544 Q52.6095 679.544 56.3017 676.838 Q59.9619 674.101 59.9619 669.359 Q59.9619 664.68 56.2698 661.943 Q52.5777 659.205 46.212 659.205 Q39.8781 659.205 36.186 661.943 Q32.4621 664.68 32.4621 669.359 M27.4968 669.359 Q27.4968 661.72 32.4621 657.359 Q37.4273 652.999 46.212 652.999 Q54.9649 652.999 59.9619 657.359 Q64.9272 661.72 64.9272 669.359 Q64.9272 677.029 59.9619 681.39 Q54.9649 685.719 46.212 685.719 Q37.4273 685.719 32.4621 681.39 Q27.4968 677.029 27.4968 669.359 Z" fill="#000000" fill-rule="nonzero" fill-opacity="1" /><path clip-path="url(#clip560)" d="M58.657 637.626 L77.5631 637.626 L77.5631 643.514 L28.3562 643.514 L28.3562 637.626 L33.7671 637.626 Q30.5842 635.78 29.0564 632.979 Q27.4968 630.146 27.4968 626.231 Q27.4968 619.738 32.6531 615.696 Q37.8093 611.622 46.212 611.622 Q54.6147 611.622 59.771 615.696 Q64.9272 619.738 64.9272 626.231 Q64.9272 630.146 63.3994 632.979 Q61.8398 635.78 58.657 637.626 M46.212 617.701 Q39.7508 617.701 36.0905 620.375 Q32.3984 623.016 32.3984 627.663 Q32.3984 632.31 36.0905 634.984 Q39.7508 637.626 46.212 637.626 Q52.6732 637.626 56.3653 634.984 Q60.0256 632.31 60.0256 627.663 Q60.0256 623.016 56.3653 620.375 Q52.6732 617.701 46.212 617.701 Z" fill="#000000" fill-rule="nonzero" fill-opacity="1" /><path clip-path="url(#clip560)" d="M18.2347 596.121 L28.3562 596.121 L28.3562 584.058 L32.9077 584.058 L32.9077 596.121 L52.2594 596.121 Q56.6199 596.121 57.8613 594.944 Q59.1026 593.734 59.1026 590.074 L59.1026 584.058 L64.0042 584.058 L64.0042 590.074 Q64.0042 596.853 61.4897 599.431 Q58.9434 602.01 52.2594 602.01 L32.9077 602.01 L32.9077 606.306 L28.3562 606.306 L28.3562 602.01 L18.2347 602.01 L18.2347 596.121 Z" fill="#000000" fill-rule="nonzero" fill-opacity="1" /><path clip-path="url(#clip560)" d="M28.3562 576.356 L28.3562 570.499 L64.0042 570.499 L64.0042 576.356 L28.3562 576.356 M14.479 576.356 L14.479 570.499 L21.895 570.499 L21.895 576.356 L14.479 576.356 Z" fill="#000000" fill-rule="nonzero" fill-opacity="1" /><path clip-path="url(#clip560)" d="M35.1993 530.491 Q31.2526 528.295 29.3747 525.239 Q27.4968 522.184 27.4968 518.046 Q27.4968 512.476 31.4117 509.452 Q35.2948 506.428 42.4881 506.428 L64.0042 506.428 L64.0042 512.317 L42.679 512.317 Q37.5546 512.317 35.072 514.131 Q32.5894 515.945 32.5894 519.669 Q32.5894 524.221 35.6131 526.862 Q38.6368 529.504 43.8567 529.504 L64.0042 529.504 L64.0042 535.392 L42.679 535.392 Q37.5228 535.392 35.072 537.207 Q32.5894 539.021 32.5894 542.808 Q32.5894 547.296 35.6449 549.938 Q38.6686 552.58 43.8567 552.58 L64.0042 552.58 L64.0042 558.468 L28.3562 558.468 L28.3562 552.58 L33.8944 552.58 Q30.616 550.575 29.0564 547.774 Q27.4968 544.973 27.4968 541.122 Q27.4968 537.238 29.4702 534.533 Q31.4436 531.796 35.1993 530.491 Z" fill="#000000" fill-rule="nonzero" fill-opacity="1" /><path clip-path="url(#clip560)" d="M49.9359 495.352 L28.3562 495.352 L28.3562 489.496 L49.7131 489.496 Q54.7739 489.496 57.3202 487.522 Q59.8346 485.549 59.8346 481.602 Q59.8346 476.86 56.8109 474.123 Q53.7872 471.353 48.5673 471.353 L28.3562 471.353 L28.3562 465.497 L64.0042 465.497 L64.0042 471.353 L58.5296 471.353 Q61.7762 473.486 63.3676 476.319 Q64.9272 479.12 64.9272 482.844 Q64.9272 488.986 61.1078 492.169 Q57.2883 495.352 49.9359 495.352 M27.4968 480.616 L27.4968 480.616 Z" fill="#000000" fill-rule="nonzero" fill-opacity="1" /><path clip-path="url(#clip560)" d="M35.1993 425.679 Q31.2526 423.483 29.3747 420.428 Q27.4968 417.372 27.4968 413.235 Q27.4968 407.665 31.4117 404.641 Q35.2948 401.617 42.4881 401.617 L64.0042 401.617 L64.0042 407.505 L42.679 407.505 Q37.5546 407.505 35.072 409.32 Q32.5894 411.134 32.5894 414.858 Q32.5894 419.409 35.6131 422.051 Q38.6368 424.693 43.8567 424.693 L64.0042 424.693 L64.0042 430.581 L42.679 430.581 Q37.5228 430.581 35.072 432.395 Q32.5894 434.21 32.5894 437.997 Q32.5894 442.485 35.6449 445.127 Q38.6686 447.768 43.8567 447.768 L64.0042 447.768 L64.0042 453.657 L28.3562 453.657 L28.3562 447.768 L33.8944 447.768 Q30.616 445.763 29.0564 442.962 Q27.4968 440.161 27.4968 436.31 Q27.4968 432.427 29.4702 429.722 Q31.4436 426.984 35.1993 425.679 Z" fill="#000000" fill-rule="nonzero" fill-opacity="1" /><polyline clip-path="url(#clip562)" style="stroke:#009af9; stroke-linecap:round; stroke-linejoin:round; stroke-width:4; stroke-opacity:1; fill:none" points="311.028,86.1857 313.012,86.5571 314.997,86.9242 316.981,87.2902 318.965,87.6388 320.949,87.9878 322.934,88.3463 324.918,88.7005 326.902,89.0616 328.886,89.4059 330.87,89.7515 332.855,90.106 334.839,90.4734 336.823,90.8455 338.807,91.2134 340.792,91.5828 342.776,91.9577 344.76,92.3378 346.744,92.7203 348.729,93.1112 350.713,93.5039 352.697,93.8941 354.681,94.2879 356.666,94.6791 358.65,95.0605 360.634,95.4436 362.618,95.8335 364.603,96.2276 366.587,96.6071 368.571,96.9965 370.555,97.3823 372.54,97.7684 374.524,98.1572 376.508,98.5428 378.492,98.922 380.477,99.2909 382.461,99.6666 384.445,100.05 386.429,100.434 388.414,100.803 390.398,101.178 392.382,101.552 394.366,101.93 396.351,102.322 398.335,102.715 400.319,103.097 402.303,103.471 404.288,103.853 406.272,104.236 408.256,104.617 410.24,104.998 412.225,105.381 414.209,105.761 416.193,106.157 418.177,106.551 420.161,106.948 422.146,107.338 424.13,107.726 426.114,108.119 428.098,108.52 430.083,108.918 432.067,109.314 434.051,109.719 436.035,110.122 438.02,110.507 440.004,110.898 441.988,111.293 443.972,111.694 445.957,112.106 447.941,112.525 449.925,112.948 451.909,113.363 453.894,113.785 455.878,114.217 457.862,114.645 459.846,115.059 461.831,115.463 463.815,115.882 465.799,116.283 467.783,116.683 469.768,117.09 471.752,117.508 473.736,117.917 475.72,118.307 477.705,118.722 479.689,119.148 481.673,119.585 483.657,120.013 485.642,120.414 487.626,120.816 489.61,121.228 491.594,121.634 493.579,122.06 495.563,122.482 497.547,122.92 499.531,123.346 501.516,123.788 503.5,124.246 505.484,124.716 507.468,125.174 509.452,125.645 511.437,126.114 513.421,126.591 515.405,127.048 517.389,127.511 519.374,127.957 521.358,128.405 523.342,128.882 525.326,129.348 527.311,129.825 529.295,130.296 531.279,130.76 533.263,131.236 535.248,131.724 537.232,132.207 539.216,132.664 541.2,133.126 543.185,133.592 545.169,134.055 547.153,134.524 549.137,134.984 551.122,135.458 553.106,135.95 555.09,136.441 557.074,136.962 559.059,137.464 561.043,137.958 563.027,138.48 565.011,138.985 566.996,139.472 568.98,139.956 570.964,140.431 572.948,140.916 574.933,141.404 576.917,141.896 578.901,142.379 580.885,142.845 582.87,143.318 584.854,143.804 586.838,144.294 588.822,144.786 590.806,145.263 592.791,145.761 594.775,146.237 596.759,146.694 598.743,147.156 600.728,147.609 602.712,148.047 604.696,148.487 606.68,148.927 608.665,149.389 610.649,149.854 612.633,150.291 614.617,150.737 616.602,151.175 618.586,151.612 620.57,152.06 622.554,152.51 624.539,152.948 626.523,153.413 628.507,153.891 630.491,154.355 632.476,154.797 634.46,155.234 636.444,155.663 638.428,156.065 640.413,156.459 642.397,156.863 644.381,157.263 646.365,157.685 648.35,158.143 650.334,158.614 652.318,159.09 654.302,159.568 656.287,160.034 658.271,160.516 660.255,161.014 662.239,161.504 664.224,161.987 666.208,162.476 668.192,162.923 670.176,163.389 672.161,163.857 674.145,164.319 676.129,164.758 678.113,165.195 680.097,165.648 682.082,166.089 684.066,166.58 686.05,167.077 688.034,167.604 690.019,168.147 692.003,168.723 693.987,169.277 695.971,169.846 697.956,170.402 699.94,170.961 701.924,171.524 703.908,172.028 705.893,172.554 707.877,173.059 709.861,173.57 711.845,174.086 713.83,174.592 715.814,175.09 717.798,175.59 719.782,176.09 721.767,176.539 723.751,177.021 725.735,177.499 727.719,177.97 729.704,178.482 731.688,178.96 733.672,179.513 735.656,180.079 737.641,180.623 739.625,181.141 741.609,181.658 743.593,182.19 745.578,182.735 747.562,183.28 749.546,183.812 751.53,184.344 753.515,184.918 755.499,185.511 757.483,186.078 759.467,186.638 761.452,187.237 763.436,187.899 765.42,188.545 767.404,189.189 769.388,189.869 771.373,190.523 773.357,191.15 775.341,191.779 777.325,192.419 779.31,193.017 781.294,193.625 783.278,194.193 785.262,194.772 787.247,195.272 789.231,195.787 791.215,196.326 793.199,196.855 795.184,197.36 797.168,197.83 799.152,198.286 801.136,198.767 803.121,199.205 805.105,199.652 807.089,200.104 809.073,200.586 811.058,201.046 813.042,201.566 815.026,202.113 817.01,202.619 818.995,203.11 820.979,203.547 822.963,204.048 824.947,204.508 826.932,204.953 828.916,205.399 830.9,205.879 832.884,206.332 834.869,206.788 836.853,207.259 838.837,207.725 840.821,208.234 842.806,208.695 844.79,209.215 846.774,209.765 848.758,210.295 850.743,210.896 852.727,211.536 854.711,212.066 856.695,212.559 858.679,213.052 860.664,213.567 862.648,214.129 864.632,214.664 866.616,215.207 868.601,215.795 870.585,216.326 872.569,216.906 874.553,217.549 876.538,218.222 878.522,218.991 880.506,219.789 882.49,220.611 884.475,221.367 886.459,222.148 888.443,222.943 890.427,223.621 892.412,224.279 894.396,224.837 896.38,225.398 898.364,226.016 900.349,226.61 902.333,227.201 904.317,227.789 906.301,228.355 908.286,228.964 910.27,229.57 912.254,230.188 914.238,230.868 916.223,231.56 918.207,232.193 920.191,232.874 922.175,233.544 924.16,234.243 926.144,234.944 928.128,235.667 930.112,236.341 932.097,236.944 934.081,237.533 936.065,238.062 938.049,238.491 940.033,238.883 942.018,239.328 944.002,239.752 945.986,240.273 947.97,240.778 949.955,241.326 951.939,241.882 953.923,242.415 955.907,242.855 957.892,243.23 959.876,243.573 961.86,243.781 963.844,244.037 965.829,244.198 967.813,244.393 969.797,244.574 971.781,244.919 973.766,245.314 975.75,245.728 977.734,246.141 979.718,246.569 981.703,246.946 983.687,247.437 985.671,247.933 987.655,248.436 989.64,248.893 991.624,249.264 993.608,249.778 995.592,250.271 997.577,250.774 999.561,251.355 1001.55,251.873 1003.53,252.434 1005.51,253.039 1007.5,253.591 1009.48,254.139 1011.47,254.62 1013.45,255.167 1015.43,255.616 1017.42,256.003 1019.4,256.474 1021.39,257.021 1023.37,257.861 1025.36,258.57 1027.34,259.229 1029.32,260.009 1031.31,260.741 1033.29,261.438 1035.28,262.078 1037.26,262.652 1039.25,263.314 1041.23,264.052 1043.21,264.79 1045.2,265.424 1047.18,265.9 1049.17,266.393 1051.15,266.82 1053.14,267.264 1055.12,267.622 1057.1,267.99 1059.09,268.29 1061.07,268.549 1063.06,268.877 1065.04,269.173 1067.03,269.486 1069.01,269.81 1070.99,270.187 1072.98,270.453 1074.96,270.929 1076.95,271.249 1078.93,271.559 1080.91,271.877 1082.9,272.178 1084.88,272.49 1086.87,272.929 1088.85,273.249 1090.84,273.491 1092.82,273.767 1094.8,274.179 1096.79,274.64 1098.77,275.101 1100.76,275.522 1102.74,275.956 1104.73,276.211 1106.71,276.288 1108.69,276.409 1110.68,276.818 1112.66,277.277 1114.65,277.788 1116.63,278.158 1118.62,278.656 1120.6,279.202 1122.58,279.581 1124.57,279.946 1126.55,280.267 1128.54,280.641 1130.52,280.989 1132.51,281.26 1134.49,281.539 1136.47,281.979 1138.46,282.565 1140.44,283.118 1142.43,283.685 1144.41,284.192 1146.39,284.596 1148.38,285.129 1150.36,285.796 1152.35,286.382 1154.33,286.954 1156.32,287.625 1158.3,288.03 1160.28,288.475 1162.27,288.869 1164.25,289.269 1166.24,289.757 1168.22,290.165 1170.21,290.514 1172.19,290.837 1174.17,291.168 1176.16,291.438 1178.14,292.072 1180.13,292.657 1182.11,293.216 1184.1,293.604 1186.08,293.827 1188.06,294.43 1190.05,294.991 1192.03,295.656 1194.02,296.368 1196,297.075 1197.99,297.775 1199.97,298.312 1201.95,298.831 1203.94,299.346 1205.92,300.038 1207.91,300.64 1209.89,301.336 1211.87,302.164 1213.86,303.088 1215.84,303.891 1217.83,304.501 1219.81,304.969 1221.8,305.267 1223.78,305.595 1225.76,306.02 1227.75,306.19 1229.73,306.337 1231.72,306.804 1233.7,307.142 1235.69,307.47 1237.67,307.929 1239.65,308.518 1241.64,309.095 1243.62,309.615 1245.61,310.064 1247.59,310.343 1249.58,310.564 1251.56,310.907 1253.54,311.292 1255.53,311.467 1257.51,311.385 1259.5,311.145 1261.48,311.194 1263.47,311.256 1265.45,311.351 1267.43,311.409 1269.42,311.601 1271.4,311.766 1273.39,312.265 1275.37,312.813 1277.36,313.233 1279.34,313.576 1281.32,313.802 1283.31,313.99 1285.29,314.158 1287.28,313.717 1289.26,313.426 1291.24,313.209 1293.23,312.916 1295.21,312.981 1297.2,312.856 1299.18,312.922 1301.17,312.831 1303.15,312.761 1305.13,312.298 1307.12,311.962 1309.1,311.866 1311.09,311.673 1313.07,311.479 1315.06,311.326 1317.04,311.443 1319.02,311.415 1321.01,311.072 1322.99,310.798 1324.98,310.893 1326.96,310.846 1328.95,310.705 1330.93,310.714 1332.91,310.744 1334.9,310.775 1336.88,310.769 1338.87,310.629 1340.85,310.657 1342.84,310.856 1344.82,311.153 1346.8,311.393 1348.79,311.426 1350.77,311.19 1352.76,310.954 1354.74,310.694 1356.72,310.021 1358.71,309.279 1360.69,308.74 1362.68,308.231 1364.66,307.685 1366.65,307.133 1368.63,306.78 1370.61,306.402 1372.6,306.136 1374.58,306.136 1376.57,306.253 1378.55,306.34 1380.54,306.591 1382.52,306.933 1384.5,307.233 1386.49,307.477 1388.47,307.549 1390.46,307.521 1392.44,307.292 1394.43,306.965 1396.41,306.825 1398.39,306.527 1400.38,306.47 1402.36,306.283 1404.35,306.109 1406.33,305.884 1408.32,305.578 1410.3,305.397 1412.28,305.188 1414.27,305.095 1416.25,305.03 1418.24,304.687 1420.22,304.504 1422.2,304.424 1424.19,304.25 1426.17,303.911 1428.16,303.67 1430.14,303.355 1432.13,303.337 1434.11,303.679 1436.09,304.019 1438.08,304.191 1440.06,304.374 1442.05,304.623 1444.03,304.931 1446.02,305.476 1448,306.043 1449.98,306.83 1451.97,307.319 1453.95,307.499 1455.94,307.842 1457.92,308.258 1459.91,308.375 1461.89,308.464 1463.87,308.575 1465.86,308.92 1467.84,309.21 1469.83,309.33 1471.81,309.457 1473.8,309.499 1475.78,309.719 1477.76,309.892 1479.75,310.106 1481.73,310.364 1483.72,310.759 1485.7,310.838 1487.68,310.781 1489.67,310.844 1491.65,310.97 1493.64,311.201 1495.62,311.419 1497.61,311.444 1499.59,311.398 1501.57,311.478 1503.56,312.191 1505.54,312.843 1507.53,313.086 1509.51,313.428 1511.5,313.639 1513.48,313.669 1515.46,313.334 1517.45,313.22 1519.43,313.118 1521.42,312.571 1523.4,312.213 1525.39,312.298 1527.37,312.397 1529.35,312.449 1531.34,312.631 1533.32,312.745 1535.31,313.071 1537.29,313.538 1539.28,313.939 1541.26,314.456 1543.24,315.325 1545.23,315.813 1547.21,315.991 1549.2,316.087 1551.18,315.832 1553.16,315.559 1555.15,315.21 1557.13,314.78 1559.12,314.337 1561.1,313.882 1563.09,313.334 1565.07,312.673 1567.05,312.276 1569.04,311.71 1571.02,311.302 1573.01,310.77 1574.99,310.44 1576.98,310.054 1578.96,309.728 1580.94,309.815 1582.93,309.874 1584.91,310.054 1586.9,310.225 1588.88,310.365 1590.87,310.608 1592.85,310.809 1594.83,310.716 1596.82,310.753 1598.8,311.154 1600.79,311.52 1602.77,312.004 1604.76,312.507 1606.74,312.813 1608.72,313.197 1610.71,313.269 1612.69,313.029 1614.68,312.448 1616.66,312.021 1618.65,311.659 1620.63,311.598 1622.61,311.782 1624.6,311.944 1626.58,312.115 1628.57,312.372 1630.55,313.069 1632.53,313.828 1634.52,314.405 1636.5,314.91 1638.49,315.573 1640.47,316.329 1642.46,317.049 1644.44,317.416 1646.42,317.949 1648.41,318.275 1650.39,318.661 1652.38,318.579 1654.36,318.608 1656.35,318.422 1658.33,317.913 1660.31,317.265 1662.3,316.792 1664.28,316.411 1666.27,316.257 1668.25,315.715 1670.24,315.135 1672.22,314.496 1674.2,313.979 1676.19,313.445 1678.17,313.054 1680.16,312.506 1682.14,312.072 1684.13,311.681 1686.11,311.445 1688.09,311.018 1690.08,310.751 1692.06,310.688 1694.05,310.752 1696.03,311.188 1698.01,311.829 1700,312.443 1701.98,312.981 1703.97,313.249 1705.95,313.606 1707.94,313.929 1709.92,314.371 1711.9,314.957 1713.89,315.234 1715.87,315.402 1717.86,315.421 1719.84,315.32 1721.83,315.227 1723.81,315.197 1725.79,315.264 1727.78,315.315 1729.76,315.305 1731.75,315.461 1733.73,315.415 1735.72,315.652 1737.7,315.403 1739.68,315.298 1741.67,315.312 1743.65,314.833 1745.64,314.49 1747.62,314.174 1749.61,314.665 1751.59,315.536 1753.57,316.226 1755.56,317.082 1757.54,317.835 1759.53,318.715 1761.51,319.388 1763.49,320.013 1765.48,320.423 1767.46,320.712 1769.45,320.855 1771.43,320.764 1773.42,320.835 1775.4,321.13 1777.38,321.638 1779.37,322.38 1781.35,323.147 1783.34,323.899 1785.32,324.28 1787.31,324.582 1789.29,325.015 1791.27,325.907 1793.26,325.764 1795.24,325.723 1797.23,326.012 1799.21,326.411 1801.2,327.148 1803.18,327.71 1805.16,328.646 1807.15,329.519 1809.13,330.401 1811.12,331.407 1813.1,332.592 1815.09,333.748 1817.07,334.928 1819.05,335.572 1821.04,336.257 1823.02,336.941 1825.01,337.519 1826.99,338.052 1828.97,338.332 1830.96,338.786 1832.94,339.36 1834.93,340.478 1836.91,341.569 1838.9,342.547 1840.88,343.739 1842.86,344.24 1844.85,344.615 1846.83,345.109 1848.82,345.368 1850.8,345.143 1852.79,344.745 1854.77,344.76 1856.75,344.62 1858.74,344.626 1860.72,344.915 1862.71,344.769 1864.69,344.718 1866.68,344.944 1868.66,344.818 1870.64,344.416 1872.63,343.843 1874.61,343.017 1876.6,343.096 1878.58,343.077 1880.57,343.061 1882.55,343.525 1884.53,343.853 1886.52,344.271 1888.5,344.276 1890.49,344.313 1892.47,343.908 1894.46,343.309 1896.44,342.575 1898.42,341.677 1900.41,340.726 1902.39,340.019 1904.38,339.668 1906.36,339.564 1908.34,339.591 1910.33,339.909 1912.31,340.318 1914.3,340.685 1916.28,341.047 1918.27,340.967 1920.25,340.666 1922.23,340.423 1924.22,340.065 1926.2,339.422 1928.19,338.889 1930.17,338.271 1932.16,337.623 1934.14,336.776 1936.12,336.516 1938.11,336.083 1940.09,335.501 1942.08,335.57 1944.06,335.359 1946.05,335.252 1948.03,335.086 1950.01,335.173 1952,335.443 1953.98,336.084 1955.97,336.472 1957.95,336.872 1959.94,337.674 1961.92,338.375 1963.9,338.597 1965.89,338.715 1967.87,339.087 1969.86,339.085 1971.84,338.939 1973.82,338.56 1975.81,338.539 1977.79,338.41 1979.78,338.582 1981.76,338.743 1983.75,339.169 1985.73,339.671 1987.71,340.279 1989.7,341.054 1991.68,342.095 1993.67,343.181 1995.65,343.831 1997.64,344.194 1999.62,344.494 2001.6,344.677 2003.59,344.518 2005.57,344.566 2007.56,344.5 2009.54,344.442 2011.53,344.059 2013.51,343.214 2015.49,341.99 2017.48,340.497 2019.46,339.093 2021.45,338.287 2023.43,337.436 2025.42,336.946 2027.4,336.316 2029.38,335.629 2031.37,334.729 2033.35,333.938 2035.34,333.55 2037.32,333.1 2039.3,332.457 2041.29,331.448 2043.27,330.807 2045.26,330.115 2047.24,329.2 2049.23,328.363 2051.21,327.752 2053.19,327.19 2055.18,326.642 2057.16,326.309 2059.15,326.141 2061.13,325.837 2063.12,325.131 2065.1,324.503 2067.08,323.694 2069.07,322.896 2071.05,322.113 2073.04,321.712 2075.02,321.556 2077.01,321.047 2078.99,320.608 2080.97,319.871 2082.96,319.248 2084.94,318.599 2086.93,317.96 2088.91,317.899 2090.9,317.883 2092.88,317.753 2094.86,317.677 2096.85,317.725 2098.83,317.832 2100.82,317.884 2102.8,317.626 2104.78,317.416 2106.77,317.165 2108.75,317.085 2110.74,317.38 2112.72,318.033 2114.71,318.716 2116.69,319.19 2118.67,319.985 2120.66,320.696 2122.64,321.26 2124.63,321.641 2126.61,322.268 2128.6,323.01 2130.58,323.317 2132.56,323.265 2134.55,323.59 2136.53,323.525 2138.52,323.405 2140.5,323.098 2142.49,322.98 2144.47,322.971 2146.45,323.347 2148.44,323.383 2150.42,323.146 2152.41,322.892 2154.39,322.536 2156.38,322.048 2158.36,321.793 2160.34,321.963 2162.33,322.611 2164.31,323.476 2166.3,324.387 2168.28,325.241 2170.26,325.918 2172.25,326.443 2174.23,326.884 2176.22,327.138 2178.2,327.261 2180.19,327.688 2182.17,328.095 2184.15,328.484 2186.14,328.803 2188.12,329.122 2190.11,329.41 2192.09,329.756 2194.08,329.95 2196.06,330.652 2198.04,331.793 2200.03,333.25 2202.01,334.52 2204,335.454 2205.98,336.018 2207.97,336.224 2209.95,336.859 2211.93,337.11 2213.92,337.138 2215.9,337.041 2217.89,336.396 2219.87,335.466 2221.86,334.358 2223.84,333.319 2225.82,332.921 2227.81,332.447 2229.79,332.078 2231.78,331.864 2233.76,331.762 2235.75,331.481 2237.73,331.393 2239.71,331.031 2241.7,330.575 2243.68,330.18 2245.67,329.778 2247.65,329.038 2249.63,328.544 2251.62,328.1 2253.6,328.19 2255.59,328.051 2257.57,327.997 2259.56,327.852 2261.54,327.442 2263.52,327.046 2265.51,327.015 2267.49,326.442 2269.48,326.105 2271.46,326.157 2273.45,326.031 2275.43,326.058 2277.41,325.77 2279.4,325.416 2281.38,325.443 2283.37,325.348 2285.35,325.487 2287.34,325.531 2289.32,325.435 2291.3,325.292 2293.29,325.092 "/>
<polyline clip-path="url(#clip562)" style="stroke:#e26f46; stroke-linecap:round; stroke-linejoin:round; stroke-width:4; stroke-opacity:1; fill:none" points="311.028,86.1857 313.012,86.5767 314.997,86.9694 316.981,87.3636 318.965,87.76 320.949,88.1582 322.934,88.5585 324.918,88.9601 326.902,89.3638 328.886,89.7684 330.87,90.1754 332.855,90.5837 334.839,90.994 336.823,91.4056 338.807,91.819 340.792,92.2333 342.776,92.6483 344.76,93.0651 346.744,93.4844 348.729,93.9058 350.713,94.3284 352.697,94.7526 354.681,95.1784 356.666,95.6058 358.65,96.0376 360.634,96.47 362.618,96.9049 364.603,97.341 366.587,97.7776 368.571,98.2162 370.555,98.6584 372.54,99.1 374.524,99.5438 376.508,99.989 378.492,100.434 380.477,100.881 382.461,101.332 384.445,101.785 386.429,102.241 388.414,102.698 390.398,103.158 392.382,103.621 394.366,104.084 396.351,104.548 398.335,105.011 400.319,105.475 402.303,105.941 404.288,106.409 406.272,106.877 408.256,107.344 410.24,107.812 412.225,108.283 414.209,108.752 416.193,109.224 418.177,109.697 420.161,110.171 422.146,110.649 424.13,111.126 426.114,111.605 428.098,112.086 430.083,112.569 432.067,113.053 434.051,113.537 436.035,114.022 438.02,114.507 440.004,114.995 441.988,115.485 443.972,115.977 445.957,116.47 447.941,116.962 449.925,117.455 451.909,117.949 453.894,118.444 455.878,118.941 457.862,119.441 459.846,119.942 461.831,120.445 463.815,120.951 465.799,121.458 467.783,121.968 469.768,122.477 471.752,122.988 473.736,123.5 475.72,124.012 477.705,124.525 479.689,125.041 481.673,125.56 483.657,126.079 485.642,126.599 487.626,127.119 489.61,127.642 491.594,128.168 493.579,128.698 495.563,129.228 497.547,129.763 499.531,130.301 501.516,130.842 503.5,131.382 505.484,131.921 507.468,132.462 509.452,133.003 511.437,133.545 513.421,134.088 515.405,134.63 517.389,135.173 519.374,135.718 521.358,136.263 523.342,136.811 525.326,137.361 527.311,137.912 529.295,138.464 531.279,139.014 533.263,139.565 535.248,140.118 537.232,140.672 539.216,141.231 541.2,141.792 543.185,142.355 545.169,142.922 547.153,143.491 549.137,144.06 551.122,144.627 553.106,145.192 555.09,145.759 557.074,146.327 559.059,146.896 561.043,147.467 563.027,148.038 565.011,148.609 566.996,149.186 568.98,149.767 570.964,150.348 572.948,150.935 574.933,151.523 576.917,152.113 578.901,152.699 580.885,153.287 582.87,153.879 584.854,154.475 586.838,155.074 588.822,155.674 590.806,156.279 592.791,156.882 594.775,157.488 596.759,158.092 598.743,158.698 600.728,159.305 602.712,159.909 604.696,160.516 606.68,161.123 608.665,161.733 610.649,162.348 612.633,162.962 614.617,163.576 616.602,164.191 618.586,164.807 620.57,165.433 622.554,166.06 624.539,166.689 626.523,167.322 628.507,167.951 630.491,168.591 632.476,169.227 634.46,169.865 636.444,170.498 638.428,171.132 640.413,171.777 642.397,172.423 644.381,173.072 646.365,173.715 648.35,174.363 650.334,175.019 652.318,175.679 654.302,176.341 656.287,177.004 658.271,177.673 660.255,178.348 662.239,179.026 664.224,179.702 666.208,180.378 668.192,181.056 670.176,181.736 672.161,182.415 674.145,183.1 676.129,183.787 678.113,184.475 680.097,185.163 682.082,185.854 684.066,186.544 686.05,187.234 688.034,187.925 690.019,188.614 692.003,189.307 693.987,190 695.971,190.695 697.956,191.393 699.94,192.093 701.924,192.792 703.908,193.493 705.893,194.198 707.877,194.902 709.861,195.606 711.845,196.311 713.83,197.018 715.814,197.729 717.798,198.446 719.782,199.167 721.767,199.893 723.751,200.619 725.735,201.343 727.719,202.065 729.704,202.786 731.688,203.511 733.672,204.234 735.656,204.961 737.641,205.691 739.625,206.421 741.609,207.153 743.593,207.889 745.578,208.625 747.562,209.367 749.546,210.11 751.53,210.855 753.515,211.603 755.499,212.354 757.483,213.106 759.467,213.855 761.452,214.609 763.436,215.371 765.42,216.137 767.404,216.9 769.388,217.664 771.373,218.428 773.357,219.19 775.341,219.955 777.325,220.718 779.31,221.484 781.294,222.253 783.278,223.022 785.262,223.791 787.247,224.563 789.231,225.33 791.215,226.102 793.199,226.878 795.184,227.655 797.168,228.434 799.152,229.214 801.136,229.998 803.121,230.784 805.105,231.571 807.089,232.36 809.073,233.152 811.058,233.942 813.042,234.734 815.026,235.525 817.01,236.321 818.995,237.122 820.979,237.93 822.963,238.739 824.947,239.546 826.932,240.357 828.916,241.17 830.9,241.985 832.884,242.802 834.869,243.621 836.853,244.444 838.837,245.268 840.821,246.089 842.806,246.909 844.79,247.734 846.774,248.566 848.758,249.397 850.743,250.234 852.727,251.065 854.711,251.898 856.695,252.727 858.679,253.555 860.664,254.385 862.648,255.214 864.632,256.039 866.616,256.861 868.601,257.688 870.585,258.517 872.569,259.356 874.553,260.198 876.538,261.033 878.522,261.868 880.506,262.707 882.49,263.539 884.475,264.377 886.459,265.214 888.443,266.064 890.427,266.913 892.412,267.767 894.396,268.618 896.38,269.471 898.364,270.327 900.349,271.184 902.333,272.044 904.317,272.911 906.301,273.78 908.286,274.65 910.27,275.531 912.254,276.416 914.238,277.308 916.223,278.195 918.207,279.089 920.191,279.987 922.175,280.889 924.16,281.8 926.144,282.713 928.128,283.618 930.112,284.52 932.097,285.415 934.081,286.319 936.065,287.226 938.049,288.142 940.033,289.053 942.018,289.971 944.002,290.888 945.986,291.804 947.97,292.728 949.955,293.654 951.939,294.583 953.923,295.511 955.907,296.437 957.892,297.369 959.876,298.297 961.86,299.213 963.844,300.121 965.829,301.042 967.813,301.962 969.797,302.89 971.781,303.818 973.766,304.761 975.75,305.711 977.734,306.658 979.718,307.628 981.703,308.602 983.687,309.581 985.671,310.576 987.655,311.574 989.64,312.569 991.624,313.552 993.608,314.535 995.592,315.51 997.577,316.481 999.561,317.461 1001.55,318.442 1003.53,319.42 1005.51,320.4 1007.5,321.378 1009.48,322.349 1011.47,323.31 1013.45,324.271 1015.43,325.242 1017.42,326.227 1019.4,327.236 1021.39,328.248 1023.37,329.265 1025.36,330.287 1027.34,331.303 1029.32,332.322 1031.31,333.337 1033.29,334.35 1035.28,335.372 1037.26,336.397 1039.25,337.418 1041.23,338.435 1043.21,339.45 1045.2,340.465 1047.18,341.477 1049.17,342.493 1051.15,343.508 1053.14,344.531 1055.12,345.55 1057.1,346.566 1059.09,347.589 1061.07,348.613 1063.06,349.637 1065.04,350.662 1067.03,351.684 1069.01,352.726 1070.99,353.768 1072.98,354.812 1074.96,355.85 1076.95,356.89 1078.93,357.94 1080.91,358.997 1082.9,360.053 1084.88,361.109 1086.87,362.164 1088.85,363.21 1090.84,364.252 1092.82,365.3 1094.8,366.357 1096.79,367.418 1098.77,368.477 1100.76,369.53 1102.74,370.592 1104.73,371.656 1106.71,372.714 1108.69,373.776 1110.68,374.84 1112.66,375.914 1114.65,376.996 1116.63,378.08 1118.62,379.163 1120.6,380.243 1122.58,381.341 1124.57,382.447 1126.55,383.539 1128.54,384.622 1130.52,385.709 1132.51,386.793 1134.49,387.872 1136.47,388.956 1138.46,390.047 1140.44,391.126 1142.43,392.196 1144.41,393.291 1146.39,394.375 1148.38,395.453 1150.36,396.523 1152.35,397.599 1154.33,398.681 1156.32,399.752 1158.3,400.823 1160.28,401.907 1162.27,402.977 1164.25,404.058 1166.24,405.134 1168.22,406.212 1170.21,407.289 1172.19,408.375 1174.17,409.458 1176.16,410.55 1178.14,411.647 1180.13,412.772 1182.11,413.917 1184.1,415.059 1186.08,416.206 1188.06,417.347 1190.05,418.484 1192.03,419.62 1194.02,420.769 1196,421.923 1197.99,423.078 1199.97,424.226 1201.95,425.369 1203.94,426.517 1205.92,427.697 1207.91,428.886 1209.89,430.089 1211.87,431.315 1213.86,432.531 1215.84,433.749 1217.83,434.967 1219.81,436.178 1221.8,437.389 1223.78,438.612 1225.76,439.813 1227.75,441.002 1229.73,442.194 1231.72,443.385 1233.7,444.571 1235.69,445.753 1237.67,446.926 1239.65,448.083 1241.64,449.265 1243.62,450.469 1245.61,451.673 1247.59,452.875 1249.58,454.094 1251.56,455.301 1253.54,456.499 1255.53,457.699 1257.51,458.896 1259.5,460.09 1261.48,461.282 1263.47,462.475 1265.45,463.669 1267.43,464.864 1269.42,466.069 1271.4,467.278 1273.39,468.471 1275.37,469.665 1277.36,470.861 1279.34,472.08 1281.32,473.287 1283.31,474.505 1285.29,475.725 1287.28,476.936 1289.26,478.147 1291.24,479.367 1293.23,480.579 1295.21,481.807 1297.2,483.033 1299.18,484.254 1301.17,485.457 1303.15,486.674 1305.13,487.897 1307.12,489.123 1309.1,490.367 1311.09,491.62 1313.07,492.881 1315.06,494.151 1317.04,495.406 1319.02,496.66 1321.01,497.915 1322.99,499.17 1324.98,500.418 1326.96,501.662 1328.95,502.922 1330.93,504.176 1332.91,505.444 1334.9,506.698 1336.88,507.977 1338.87,509.23 1340.85,510.496 1342.84,511.755 1344.82,513.027 1346.8,514.285 1348.79,515.563 1350.77,516.866 1352.76,518.193 1354.74,519.52 1356.72,520.843 1358.71,522.161 1360.69,523.477 1362.68,524.798 1364.66,526.114 1366.65,527.417 1368.63,528.714 1370.61,530.032 1372.6,531.361 1374.58,532.701 1376.57,534.065 1378.55,535.43 1380.54,536.805 1382.52,538.188 1384.5,539.574 1386.49,540.952 1388.47,542.338 1390.46,543.734 1392.44,545.118 1394.43,546.494 1396.41,547.896 1398.39,549.285 1400.38,550.678 1402.36,552.072 1404.35,553.447 1406.33,554.819 1408.32,556.203 1410.3,557.591 1412.28,558.991 1414.27,560.385 1416.25,561.785 1418.24,563.186 1420.22,564.573 1422.2,565.953 1424.19,567.318 1426.17,568.698 1428.16,570.076 1430.14,571.467 1432.13,572.848 1434.11,574.209 1436.09,575.59 1438.08,576.988 1440.06,578.382 1442.05,579.788 1444.03,581.197 1446.02,582.641 1448,584.068 1449.98,585.463 1451.97,586.853 1453.95,588.269 1455.94,589.684 1457.92,591.093 1459.91,592.502 1461.89,593.898 1463.87,595.294 1465.86,596.709 1467.84,598.122 1469.83,599.533 1471.81,600.97 1473.8,602.401 1475.78,603.833 1477.76,605.269 1479.75,606.719 1481.73,608.165 1483.72,609.614 1485.7,611.062 1487.68,612.508 1489.67,613.974 1491.65,615.454 1493.64,616.917 1495.62,618.368 1497.61,619.822 1499.59,621.286 1501.57,622.758 1503.56,624.241 1505.54,625.725 1507.53,627.218 1509.51,628.717 1511.5,630.221 1513.48,631.715 1515.46,633.203 1517.45,634.696 1519.43,636.177 1521.42,637.653 1523.4,639.133 1525.39,640.607 1527.37,642.071 1529.35,643.547 1531.34,645.029 1533.32,646.525 1535.31,648.039 1537.29,649.547 1539.28,651.037 1541.26,652.525 1543.24,654.011 1545.23,655.477 1547.21,656.955 1549.2,658.44 1551.18,659.94 1553.16,661.436 1555.15,662.935 1557.13,664.426 1559.12,665.904 1561.1,667.407 1563.09,668.906 1565.07,670.403 1567.05,671.92 1569.04,673.451 1571.02,674.994 1573.01,676.519 1574.99,678.047 1576.98,679.582 1578.96,681.106 1580.94,682.626 1582.93,684.136 1584.91,685.651 1586.9,687.152 1588.88,688.66 1590.87,690.172 1592.85,691.695 1594.83,693.246 1596.82,694.783 1598.8,696.313 1600.79,697.863 1602.77,699.432 1604.76,700.991 1606.74,702.55 1608.72,704.122 1610.71,705.704 1612.69,707.29 1614.68,708.857 1616.66,710.405 1618.65,711.948 1620.63,713.49 1622.61,715.044 1624.6,716.635 1626.58,718.23 1628.57,719.823 1630.55,721.421 1632.53,723.022 1634.52,724.619 1636.5,726.227 1638.49,727.842 1640.47,729.454 1642.46,731.108 1644.44,732.748 1646.42,734.376 1648.41,735.984 1650.39,737.601 1652.38,739.254 1654.36,740.92 1656.35,742.608 1658.33,744.302 1660.31,745.977 1662.3,747.654 1664.28,749.33 1666.27,750.99 1668.25,752.662 1670.24,754.344 1672.22,756.008 1674.2,757.662 1676.19,759.307 1678.17,760.948 1680.16,762.592 1682.14,764.231 1684.13,765.858 1686.11,767.5 1688.09,769.132 1690.08,770.762 1692.06,772.383 1694.05,774.006 1696.03,775.637 1698.01,777.287 1700,778.926 1701.98,780.599 1703.97,782.264 1705.95,783.949 1707.94,785.618 1709.92,787.282 1711.9,788.927 1713.89,790.602 1715.87,792.278 1717.86,793.985 1719.84,795.693 1721.83,797.387 1723.81,799.076 1725.79,800.762 1727.78,802.454 1729.76,804.142 1731.75,805.841 1733.73,807.526 1735.72,809.205 1737.7,810.91 1739.68,812.641 1741.67,814.345 1743.65,816.064 1745.64,817.797 1747.62,819.514 1749.61,821.213 1751.59,822.89 1753.57,824.586 1755.56,826.282 1757.54,827.962 1759.53,829.635 1761.51,831.311 1763.49,832.954 1765.48,834.579 1767.46,836.198 1769.45,837.788 1771.43,839.372 1773.42,840.926 1775.4,842.502 1777.38,844.05 1779.37,845.627 1781.35,847.26 1783.34,848.89 1785.32,850.494 1787.31,852.103 1789.29,853.701 1791.27,855.327 1793.26,856.939 1795.24,858.592 1797.23,860.24 1799.21,861.907 1801.2,863.582 1803.18,865.269 1805.16,866.96 1807.15,868.673 1809.13,870.383 1811.12,872.099 1813.1,873.867 1815.09,875.696 1817.07,877.492 1819.05,879.268 1821.04,881.079 1823.02,882.886 1825.01,884.712 1826.99,886.577 1828.97,888.5 1830.96,890.377 1832.94,892.352 1834.93,894.335 1836.91,896.335 1838.9,898.301 1840.88,900.234 1842.86,902.16 1844.85,904.067 1846.83,905.989 1848.82,907.914 1850.8,909.843 1852.79,911.738 1854.77,913.65 1856.75,915.511 1858.74,917.414 1860.72,919.317 1862.71,921.217 1864.69,923.159 1866.68,925.104 1868.66,927.072 1870.64,929.006 1872.63,930.956 1874.61,932.913 1876.6,934.904 1878.58,936.887 1880.57,938.851 1882.55,940.797 1884.53,942.741 1886.52,944.677 1888.5,946.61 1890.49,948.528 1892.47,950.443 1894.46,952.361 1896.44,954.268 1898.42,956.16 1900.41,958.044 1902.39,959.928 1904.38,961.807 1906.36,963.662 1908.34,965.53 1910.33,967.383 1912.31,969.245 1914.3,971.11 1916.28,973.006 1918.27,974.879 1920.25,976.771 1922.23,978.644 1924.22,980.556 1926.2,982.482 1928.19,984.405 1930.17,986.318 1932.16,988.21 1934.14,990.112 1936.12,992.005 1938.11,993.883 1940.09,995.82 1942.08,997.736 1944.06,999.666 1946.05,1001.6 1948.03,1003.57 1950.01,1005.51 1952,1007.43 1953.98,1009.36 1955.97,1011.28 1957.95,1013.17 1959.94,1015.08 1961.92,1016.97 1963.9,1018.89 1965.89,1020.78 1967.87,1022.76 1969.86,1024.76 1971.84,1026.72 1973.82,1028.65 1975.81,1030.64 1977.79,1032.59 1979.78,1034.57 1981.76,1036.55 1983.75,1038.55 1985.73,1040.54 1987.71,1042.53 1989.7,1044.48 1991.68,1046.39 1993.67,1048.29 1995.65,1050.19 1997.64,1052.14 1999.62,1054.14 2001.6,1056.12 2003.59,1058.14 2005.57,1060.18 2007.56,1062.19 2009.54,1064.19 2011.53,1066.17 2013.51,1068.14 2015.49,1070.14 2017.48,1072.1 2019.46,1074.09 2021.45,1076.06 2023.43,1078.01 2025.42,1080.01 2027.4,1082.01 2029.38,1084 2031.37,1085.98 2033.35,1088.01 2035.34,1090.04 2037.32,1092.07 2039.3,1094.11 2041.29,1096.11 2043.27,1098.14 2045.26,1100.2 2047.24,1102.25 2049.23,1104.24 2051.21,1106.23 2053.19,1108.24 2055.18,1110.24 2057.16,1112.24 2059.15,1114.28 2061.13,1116.35 2063.12,1118.47 2065.1,1120.57 2067.08,1122.66 2069.07,1124.73 2071.05,1126.81 2073.04,1128.87 2075.02,1130.9 2077.01,1132.88 2078.99,1134.83 2080.97,1136.82 2082.96,1138.79 2084.94,1140.75 2086.93,1142.79 2088.91,1144.81 2090.9,1146.82 2092.88,1148.83 2094.86,1150.88 2096.85,1152.96 2098.83,1155.04 2100.82,1157.13 2102.8,1159.22 2104.78,1161.32 2106.77,1163.41 2108.75,1165.47 2110.74,1167.57 2112.72,1169.66 2114.71,1171.76 2116.69,1173.85 2118.67,1175.91 2120.66,1177.98 2122.64,1180.04 2124.63,1182.16 2126.61,1184.29 2128.6,1186.41 2130.58,1188.59 2132.56,1190.77 2134.55,1192.92 2136.53,1195.14 2138.52,1197.38 2140.5,1199.67 2142.49,1201.97 2144.47,1204.28 2146.45,1206.61 2148.44,1208.94 2150.42,1211.26 2152.41,1213.64 2154.39,1216.02 2156.38,1218.35 2158.36,1220.62 2160.34,1222.93 2162.33,1225.29 2164.31,1227.66 2166.3,1230.02 2168.28,1232.39 2170.26,1234.7 2172.25,1237.05 2174.23,1239.45 2176.22,1241.84 2178.2,1244.23 2180.19,1246.61 2182.17,1248.97 2184.15,1251.3 2186.14,1253.6 2188.12,1255.9 2190.11,1258.19 2192.09,1260.47 2194.08,1262.73 2196.06,1264.97 2198.04,1267.27 2200.03,1269.57 2202.01,1271.86 2204,1274.19 2205.98,1276.49 2207.97,1278.81 2209.95,1281.14 2211.93,1283.46 2213.92,1285.75 2215.9,1288.05 2217.89,1290.46 2219.87,1292.89 2221.86,1295.31 2223.84,1297.71 2225.82,1300.13 2227.81,1302.66 2229.79,1305.2 2231.78,1307.74 2233.76,1310.24 2235.75,1312.73 2237.73,1315.23 2239.71,1317.73 2241.7,1320.16 2243.68,1322.61 2245.67,1325.09 2247.65,1327.61 2249.63,1330.16 2251.62,1332.7 2253.6,1335.22 2255.59,1337.72 2257.57,1340.2 2259.56,1342.65 2261.54,1345.1 2263.52,1347.56 2265.51,1350.02 2267.49,1352.47 2269.48,1354.95 2271.46,1357.44 2273.45,1359.92 2275.43,1362.38 2277.41,1364.79 2279.4,1367.23 2281.38,1369.72 2283.37,1372.17 2285.35,1374.64 2287.34,1377.1 2289.32,1379.53 2291.3,1381.9 2293.29,1384.24 "/>
<path clip-path="url(#clip560)" d="M1864.89 248.629 L2282.72 248.629 L2282.72 93.1086 L1864.89 93.1086  Z" fill="#ffffff" fill-rule="evenodd" fill-opacity="1"/>
<polyline clip-path="url(#clip560)" style="stroke:#000000; stroke-linecap:round; stroke-linejoin:round; stroke-width:4; stroke-opacity:1; fill:none" points="1864.89,248.629 2282.72,248.629 2282.72,93.1086 1864.89,93.1086 1864.89,248.629 "/>
<polyline clip-path="url(#clip560)" style="stroke:#009af9; stroke-linecap:round; stroke-linejoin:round; stroke-width:4; stroke-opacity:1; fill:none" points="1888.24,144.949 2028.32,144.949 "/>
<path clip-path="url(#clip560)" d="M2056.34 145.724 L2056.34 158.386 L2063.84 158.386 Q2067.61 158.386 2069.42 156.835 Q2071.25 155.261 2071.25 152.043 Q2071.25 148.803 2069.42 147.275 Q2067.61 145.724 2063.84 145.724 L2056.34 145.724 M2056.34 131.511 L2056.34 141.928 L2063.26 141.928 Q2066.69 141.928 2068.35 140.655 Q2070.04 139.358 2070.04 136.719 Q2070.04 134.104 2068.35 132.807 Q2066.69 131.511 2063.26 131.511 L2056.34 131.511 M2051.66 127.669 L2063.61 127.669 Q2068.95 127.669 2071.85 129.891 Q2074.74 132.113 2074.74 136.21 Q2074.74 139.382 2073.26 141.257 Q2071.78 143.131 2068.91 143.594 Q2072.36 144.335 2074.25 146.696 Q2076.18 149.034 2076.18 152.553 Q2076.18 157.182 2073.03 159.705 Q2069.88 162.229 2064.07 162.229 L2051.66 162.229 L2051.66 127.669 Z" fill="#000000" fill-rule="nonzero" fill-opacity="1" /><path clip-path="url(#clip560)" d="M2088.86 145.724 L2088.86 158.386 L2096.36 158.386 Q2100.13 158.386 2101.94 156.835 Q2103.77 155.261 2103.77 152.043 Q2103.77 148.803 2101.94 147.275 Q2100.13 145.724 2096.36 145.724 L2088.86 145.724 M2088.86 131.511 L2088.86 141.928 L2095.78 141.928 Q2099.21 141.928 2100.87 140.655 Q2102.56 139.358 2102.56 136.719 Q2102.56 134.104 2100.87 132.807 Q2099.21 131.511 2095.78 131.511 L2088.86 131.511 M2084.19 127.669 L2096.13 127.669 Q2101.48 127.669 2104.37 129.891 Q2107.26 132.113 2107.26 136.21 Q2107.26 139.382 2105.78 141.257 Q2104.3 143.131 2101.43 143.594 Q2104.88 144.335 2106.78 146.696 Q2108.7 149.034 2108.7 152.553 Q2108.7 157.182 2105.55 159.705 Q2102.4 162.229 2096.59 162.229 L2084.19 162.229 L2084.19 127.669 Z" fill="#000000" fill-rule="nonzero" fill-opacity="1" /><path clip-path="url(#clip560)" d="M2124.16 162.229 L2110.97 127.669 L2115.85 127.669 L2126.8 156.766 L2137.77 127.669 L2142.63 127.669 L2129.46 162.229 L2124.16 162.229 Z" fill="#000000" fill-rule="nonzero" fill-opacity="1" /><path clip-path="url(#clip560)" d="M2147.68 127.669 L2152.36 127.669 L2152.36 162.229 L2147.68 162.229 L2147.68 127.669 Z" fill="#000000" fill-rule="nonzero" fill-opacity="1" /><path clip-path="url(#clip560)" d="M2202.61 130.331 L2202.61 135.261 Q2200.25 133.062 2197.56 131.974 Q2194.9 130.886 2191.89 130.886 Q2185.97 130.886 2182.82 134.52 Q2179.67 138.132 2179.67 144.983 Q2179.67 151.812 2182.82 155.446 Q2185.97 159.057 2191.89 159.057 Q2194.9 159.057 2197.56 157.969 Q2200.25 156.881 2202.61 154.682 L2202.61 159.567 Q2200.16 161.233 2197.4 162.067 Q2194.67 162.9 2191.62 162.9 Q2183.77 162.9 2179.25 158.108 Q2174.74 153.293 2174.74 144.983 Q2174.74 136.65 2179.25 131.858 Q2183.77 127.044 2191.62 127.044 Q2194.72 127.044 2197.45 127.877 Q2200.2 128.687 2202.61 130.331 Z" fill="#000000" fill-rule="nonzero" fill-opacity="1" /><path clip-path="url(#clip560)" d="M2209.83 127.669 L2229.69 127.669 L2229.69 131.604 L2214.51 131.604 L2214.51 141.789 L2228.21 141.789 L2228.21 145.724 L2214.51 145.724 L2214.51 162.229 L2209.83 162.229 L2209.83 127.669 Z" fill="#000000" fill-rule="nonzero" fill-opacity="1" /><path clip-path="url(#clip560)" d="M2237.1 127.669 L2258.95 127.669 L2258.95 131.604 L2241.78 131.604 L2241.78 141.835 L2258.24 141.835 L2258.24 145.77 L2241.78 145.77 L2241.78 158.293 L2259.37 158.293 L2259.37 162.229 L2237.1 162.229 L2237.1 127.669 Z" fill="#000000" fill-rule="nonzero" fill-opacity="1" /><polyline clip-path="url(#clip560)" style="stroke:#e26f46; stroke-linecap:round; stroke-linejoin:round; stroke-width:4; stroke-opacity:1; fill:none" points="1888.24,196.789 2028.32,196.789 "/>
<path clip-path="url(#clip560)" d="M2056.34 197.564 L2056.34 210.226 L2063.84 210.226 Q2067.61 210.226 2069.42 208.675 Q2071.25 207.101 2071.25 203.883 Q2071.25 200.643 2069.42 199.115 Q2067.61 197.564 2063.84 197.564 L2056.34 197.564 M2056.34 183.351 L2056.34 193.768 L2063.26 193.768 Q2066.69 193.768 2068.35 192.495 Q2070.04 191.198 2070.04 188.559 Q2070.04 185.944 2068.35 184.647 Q2066.69 183.351 2063.26 183.351 L2056.34 183.351 M2051.66 179.509 L2063.61 179.509 Q2068.95 179.509 2071.85 181.731 Q2074.74 183.953 2074.74 188.05 Q2074.74 191.222 2073.26 193.097 Q2071.78 194.971 2068.91 195.434 Q2072.36 196.175 2074.25 198.536 Q2076.18 200.874 2076.18 204.393 Q2076.18 209.022 2073.03 211.545 Q2069.88 214.069 2064.07 214.069 L2051.66 214.069 L2051.66 179.509 Z" fill="#000000" fill-rule="nonzero" fill-opacity="1" /><path clip-path="url(#clip560)" d="M2088.86 197.564 L2088.86 210.226 L2096.36 210.226 Q2100.13 210.226 2101.94 208.675 Q2103.77 207.101 2103.77 203.883 Q2103.77 200.643 2101.94 199.115 Q2100.13 197.564 2096.36 197.564 L2088.86 197.564 M2088.86 183.351 L2088.86 193.768 L2095.78 193.768 Q2099.21 193.768 2100.87 192.495 Q2102.56 191.198 2102.56 188.559 Q2102.56 185.944 2100.87 184.647 Q2099.21 183.351 2095.78 183.351 L2088.86 183.351 M2084.19 179.509 L2096.13 179.509 Q2101.48 179.509 2104.37 181.731 Q2107.26 183.953 2107.26 188.05 Q2107.26 191.222 2105.78 193.097 Q2104.3 194.971 2101.43 195.434 Q2104.88 196.175 2106.78 198.536 Q2108.7 200.874 2108.7 204.393 Q2108.7 209.022 2105.55 211.545 Q2102.4 214.069 2096.59 214.069 L2084.19 214.069 L2084.19 179.509 Z" fill="#000000" fill-rule="nonzero" fill-opacity="1" /><path clip-path="url(#clip560)" d="M2124.16 214.069 L2110.97 179.509 L2115.85 179.509 L2126.8 208.606 L2137.77 179.509 L2142.63 179.509 L2129.46 214.069 L2124.16 214.069 Z" fill="#000000" fill-rule="nonzero" fill-opacity="1" /><path clip-path="url(#clip560)" d="M2147.68 179.509 L2152.36 179.509 L2152.36 214.069 L2147.68 214.069 L2147.68 179.509 Z" fill="#000000" fill-rule="nonzero" fill-opacity="1" /><path clip-path="url(#clip560)" d="M2197.45 180.643 L2197.45 185.203 Q2194.79 183.93 2192.43 183.305 Q2190.06 182.68 2187.87 182.68 Q2184.05 182.68 2181.96 184.161 Q2179.9 185.643 2179.9 188.374 Q2179.9 190.666 2181.27 191.847 Q2182.66 193.004 2186.5 193.722 L2189.32 194.3 Q2194.55 195.296 2197.03 197.819 Q2199.53 200.319 2199.53 204.532 Q2199.53 209.555 2196.15 212.147 Q2192.8 214.74 2186.29 214.74 Q2183.84 214.74 2181.06 214.184 Q2178.31 213.629 2175.34 212.541 L2175.34 207.726 Q2178.19 209.323 2180.92 210.133 Q2183.65 210.944 2186.29 210.944 Q2190.3 210.944 2192.47 209.37 Q2194.65 207.796 2194.65 204.879 Q2194.65 202.333 2193.07 200.897 Q2191.52 199.462 2187.96 198.745 L2185.11 198.189 Q2179.88 197.147 2177.54 194.925 Q2175.2 192.703 2175.2 188.745 Q2175.2 184.161 2178.42 181.522 Q2181.66 178.884 2187.33 178.884 Q2189.76 178.884 2192.29 179.323 Q2194.81 179.763 2197.45 180.643 Z" fill="#000000" fill-rule="nonzero" fill-opacity="1" /><path clip-path="url(#clip560)" d="M2202.03 179.509 L2231.27 179.509 L2231.27 183.444 L2219 183.444 L2219 214.069 L2214.3 214.069 L2214.3 183.444 L2202.03 183.444 L2202.03 179.509 Z" fill="#000000" fill-rule="nonzero" fill-opacity="1" /><path clip-path="url(#clip560)" d="M2235.78 179.509 L2240.46 179.509 L2240.46 210.133 L2257.29 210.133 L2257.29 214.069 L2235.78 214.069 L2235.78 179.509 Z" fill="#000000" fill-rule="nonzero" fill-opacity="1" /></svg>
