<?xml version="1.0" encoding="utf-8"?>
<svg xmlns="http://www.w3.org/2000/svg" xmlns:xlink="http://www.w3.org/1999/xlink" width="600" height="400" viewBox="0 0 2400 1600">
<defs>
  <clipPath id="clip490">
    <rect x="0" y="0" width="2400" height="1600"/>
  </clipPath>
</defs>
<path clip-path="url(#clip490)" d="M0 1600 L2400 1600 L2400 0 L0 0  Z" fill="#ffffff" fill-rule="evenodd" fill-opacity="1"/>
<defs>
  <clipPath id="clip491">
    <rect x="251" y="47" width="2102" height="1377"/>
  </clipPath>
</defs>
<path clip-path="url(#clip490)" d="M242.135 1423.18 L2352.76 1423.18 L2352.76 47.2441 L242.135 47.2441  Z" fill="#ffffff" fill-rule="evenodd" fill-opacity="1"/>
<defs>
  <clipPath id="clip492">
    <rect x="242" y="47" width="2112" height="1377"/>
  </clipPath>
</defs>
<polyline clip-path="url(#clip492)" style="stroke:#000000; stroke-linecap:round; stroke-linejoin:round; stroke-width:2; stroke-opacity:0.1; fill:none" points="299.876,1423.18 299.876,47.2441 "/>
<polyline clip-path="url(#clip492)" style="stroke:#000000; stroke-linecap:round; stroke-linejoin:round; stroke-width:2; stroke-opacity:0.1; fill:none" points="798.162,1423.18 798.162,47.2441 "/>
<polyline clip-path="url(#clip492)" style="stroke:#000000; stroke-linecap:round; stroke-linejoin:round; stroke-width:2; stroke-opacity:0.1; fill:none" points="1296.45,1423.18 1296.45,47.2441 "/>
<polyline clip-path="url(#clip492)" style="stroke:#000000; stroke-linecap:round; stroke-linejoin:round; stroke-width:2; stroke-opacity:0.1; fill:none" points="1794.74,1423.18 1794.74,47.2441 "/>
<polyline clip-path="url(#clip492)" style="stroke:#000000; stroke-linecap:round; stroke-linejoin:round; stroke-width:2; stroke-opacity:0.1; fill:none" points="2293.02,1423.18 2293.02,47.2441 "/>
<polyline clip-path="url(#clip492)" style="stroke:#000000; stroke-linecap:round; stroke-linejoin:round; stroke-width:2; stroke-opacity:0.1; fill:none" points="242.135,1350.52 2352.76,1350.52 "/>
<polyline clip-path="url(#clip492)" style="stroke:#000000; stroke-linecap:round; stroke-linejoin:round; stroke-width:2; stroke-opacity:0.1; fill:none" points="242.135,979.47 2352.76,979.47 "/>
<polyline clip-path="url(#clip492)" style="stroke:#000000; stroke-linecap:round; stroke-linejoin:round; stroke-width:2; stroke-opacity:0.1; fill:none" points="242.135,608.419 2352.76,608.419 "/>
<polyline clip-path="url(#clip492)" style="stroke:#000000; stroke-linecap:round; stroke-linejoin:round; stroke-width:2; stroke-opacity:0.1; fill:none" points="242.135,237.368 2352.76,237.368 "/>
<polyline clip-path="url(#clip490)" style="stroke:#000000; stroke-linecap:round; stroke-linejoin:round; stroke-width:4; stroke-opacity:1; fill:none" points="242.135,1423.18 2352.76,1423.18 "/>
<polyline clip-path="url(#clip490)" style="stroke:#000000; stroke-linecap:round; stroke-linejoin:round; stroke-width:4; stroke-opacity:1; fill:none" points="299.876,1423.18 299.876,1404.28 "/>
<polyline clip-path="url(#clip490)" style="stroke:#000000; stroke-linecap:round; stroke-linejoin:round; stroke-width:4; stroke-opacity:1; fill:none" points="798.162,1423.18 798.162,1404.28 "/>
<polyline clip-path="url(#clip490)" style="stroke:#000000; stroke-linecap:round; stroke-linejoin:round; stroke-width:4; stroke-opacity:1; fill:none" points="1296.45,1423.18 1296.45,1404.28 "/>
<polyline clip-path="url(#clip490)" style="stroke:#000000; stroke-linecap:round; stroke-linejoin:round; stroke-width:4; stroke-opacity:1; fill:none" points="1794.74,1423.18 1794.74,1404.28 "/>
<polyline clip-path="url(#clip490)" style="stroke:#000000; stroke-linecap:round; stroke-linejoin:round; stroke-width:4; stroke-opacity:1; fill:none" points="2293.02,1423.18 2293.02,1404.28 "/>
<path clip-path="url(#clip490)" d="M299.876 1454.1 Q296.265 1454.1 294.436 1457.66 Q292.631 1461.2 292.631 1468.33 Q292.631 1475.44 294.436 1479.01 Q296.265 1482.55 299.876 1482.55 Q303.51 1482.55 305.316 1479.01 Q307.145 1475.44 307.145 1468.33 Q307.145 1461.2 305.316 1457.66 Q303.51 1454.1 299.876 1454.1 M299.876 1450.39 Q305.686 1450.39 308.742 1455 Q311.82 1459.58 311.82 1468.33 Q311.82 1477.06 308.742 1481.67 Q305.686 1486.25 299.876 1486.25 Q294.066 1486.25 290.987 1481.67 Q287.932 1477.06 287.932 1468.33 Q287.932 1459.58 290.987 1455 Q294.066 1450.39 299.876 1450.39 Z" fill="#000000" fill-rule="nonzero" fill-opacity="1" /><path clip-path="url(#clip490)" d="M761.855 1481.64 L778.174 1481.64 L778.174 1485.58 L756.23 1485.58 L756.23 1481.64 Q758.892 1478.89 763.475 1474.26 Q768.082 1469.61 769.262 1468.27 Q771.507 1465.74 772.387 1464.01 Q773.29 1462.25 773.29 1460.56 Q773.29 1457.8 771.345 1456.07 Q769.424 1454.33 766.322 1454.33 Q764.123 1454.33 761.67 1455.09 Q759.239 1455.86 756.461 1457.41 L756.461 1452.69 Q759.285 1451.55 761.739 1450.97 Q764.193 1450.39 766.23 1450.39 Q771.6 1450.39 774.794 1453.08 Q777.989 1455.77 777.989 1460.26 Q777.989 1462.39 777.179 1464.31 Q776.392 1466.2 774.285 1468.8 Q773.707 1469.47 770.605 1472.69 Q767.503 1475.88 761.855 1481.64 Z" fill="#000000" fill-rule="nonzero" fill-opacity="1" /><path clip-path="url(#clip490)" d="M788.035 1451.02 L806.392 1451.02 L806.392 1454.96 L792.318 1454.96 L792.318 1463.43 Q793.336 1463.08 794.355 1462.92 Q795.373 1462.73 796.392 1462.73 Q802.179 1462.73 805.558 1465.9 Q808.938 1469.08 808.938 1474.49 Q808.938 1480.07 805.466 1483.17 Q801.993 1486.25 795.674 1486.25 Q793.498 1486.25 791.23 1485.88 Q788.984 1485.51 786.577 1484.77 L786.577 1480.07 Q788.66 1481.2 790.882 1481.76 Q793.105 1482.32 795.581 1482.32 Q799.586 1482.32 801.924 1480.21 Q804.262 1478.1 804.262 1474.49 Q804.262 1470.88 801.924 1468.77 Q799.586 1466.67 795.581 1466.67 Q793.706 1466.67 791.831 1467.08 Q789.98 1467.5 788.035 1468.38 L788.035 1451.02 Z" fill="#000000" fill-rule="nonzero" fill-opacity="1" /><path clip-path="url(#clip490)" d="M828.151 1454.1 Q824.54 1454.1 822.711 1457.66 Q820.905 1461.2 820.905 1468.33 Q820.905 1475.44 822.711 1479.01 Q824.54 1482.55 828.151 1482.55 Q831.785 1482.55 833.59 1479.01 Q835.419 1475.44 835.419 1468.33 Q835.419 1461.2 833.59 1457.66 Q831.785 1454.1 828.151 1454.1 M828.151 1450.39 Q833.961 1450.39 837.016 1455 Q840.095 1459.58 840.095 1468.33 Q840.095 1477.06 837.016 1481.67 Q833.961 1486.25 828.151 1486.25 Q822.341 1486.25 819.262 1481.67 Q816.206 1477.06 816.206 1468.33 Q816.206 1459.58 819.262 1455 Q822.341 1450.39 828.151 1450.39 Z" fill="#000000" fill-rule="nonzero" fill-opacity="1" /><path clip-path="url(#clip490)" d="M1256.07 1451.02 L1274.42 1451.02 L1274.42 1454.96 L1260.35 1454.96 L1260.35 1463.43 Q1261.37 1463.08 1262.39 1462.92 Q1263.4 1462.73 1264.42 1462.73 Q1270.21 1462.73 1273.59 1465.9 Q1276.97 1469.08 1276.97 1474.49 Q1276.97 1480.07 1273.5 1483.17 Q1270.03 1486.25 1263.71 1486.25 Q1261.53 1486.25 1259.26 1485.88 Q1257.02 1485.51 1254.61 1484.77 L1254.61 1480.07 Q1256.69 1481.2 1258.91 1481.76 Q1261.14 1482.32 1263.61 1482.32 Q1267.62 1482.32 1269.96 1480.21 Q1272.29 1478.1 1272.29 1474.49 Q1272.29 1470.88 1269.96 1468.77 Q1267.62 1466.67 1263.61 1466.67 Q1261.74 1466.67 1259.86 1467.08 Q1258.01 1467.5 1256.07 1468.38 L1256.07 1451.02 Z" fill="#000000" fill-rule="nonzero" fill-opacity="1" /><path clip-path="url(#clip490)" d="M1296.18 1454.1 Q1292.57 1454.1 1290.74 1457.66 Q1288.94 1461.2 1288.94 1468.33 Q1288.94 1475.44 1290.74 1479.01 Q1292.57 1482.55 1296.18 1482.55 Q1299.82 1482.55 1301.62 1479.01 Q1303.45 1475.44 1303.45 1468.33 Q1303.45 1461.2 1301.62 1457.66 Q1299.82 1454.1 1296.18 1454.1 M1296.18 1450.39 Q1301.99 1450.39 1305.05 1455 Q1308.13 1459.58 1308.13 1468.33 Q1308.13 1477.06 1305.05 1481.67 Q1301.99 1486.25 1296.18 1486.25 Q1290.37 1486.25 1287.29 1481.67 Q1284.24 1477.06 1284.24 1468.33 Q1284.24 1459.58 1287.29 1455 Q1290.37 1450.39 1296.18 1450.39 Z" fill="#000000" fill-rule="nonzero" fill-opacity="1" /><path clip-path="url(#clip490)" d="M1326.34 1454.1 Q1322.73 1454.1 1320.9 1457.66 Q1319.1 1461.2 1319.1 1468.33 Q1319.1 1475.44 1320.9 1479.01 Q1322.73 1482.55 1326.34 1482.55 Q1329.98 1482.55 1331.78 1479.01 Q1333.61 1475.44 1333.61 1468.33 Q1333.61 1461.2 1331.78 1457.66 Q1329.98 1454.1 1326.34 1454.1 M1326.34 1450.39 Q1332.15 1450.39 1335.21 1455 Q1338.29 1459.58 1338.29 1468.33 Q1338.29 1477.06 1335.21 1481.67 Q1332.15 1486.25 1326.34 1486.25 Q1320.53 1486.25 1317.46 1481.67 Q1314.4 1477.06 1314.4 1468.33 Q1314.4 1459.58 1317.46 1455 Q1320.53 1450.39 1326.34 1450.39 Z" fill="#000000" fill-rule="nonzero" fill-opacity="1" /><path clip-path="url(#clip490)" d="M1753.01 1451.02 L1775.23 1451.02 L1775.23 1453.01 L1762.69 1485.58 L1757.8 1485.58 L1769.61 1454.96 L1753.01 1454.96 L1753.01 1451.02 Z" fill="#000000" fill-rule="nonzero" fill-opacity="1" /><path clip-path="url(#clip490)" d="M1784.4 1451.02 L1802.76 1451.02 L1802.76 1454.96 L1788.68 1454.96 L1788.68 1463.43 Q1789.7 1463.08 1790.72 1462.92 Q1791.74 1462.73 1792.76 1462.73 Q1798.54 1462.73 1801.92 1465.9 Q1805.3 1469.08 1805.3 1474.49 Q1805.3 1480.07 1801.83 1483.17 Q1798.36 1486.25 1792.04 1486.25 Q1789.86 1486.25 1787.59 1485.88 Q1785.35 1485.51 1782.94 1484.77 L1782.94 1480.07 Q1785.02 1481.2 1787.25 1481.76 Q1789.47 1482.32 1791.95 1482.32 Q1795.95 1482.32 1798.29 1480.21 Q1800.63 1478.1 1800.63 1474.49 Q1800.63 1470.88 1798.29 1468.77 Q1795.95 1466.67 1791.95 1466.67 Q1790.07 1466.67 1788.2 1467.08 Q1786.34 1467.5 1784.4 1468.38 L1784.4 1451.02 Z" fill="#000000" fill-rule="nonzero" fill-opacity="1" /><path clip-path="url(#clip490)" d="M1824.51 1454.1 Q1820.9 1454.1 1819.08 1457.66 Q1817.27 1461.2 1817.27 1468.33 Q1817.27 1475.44 1819.08 1479.01 Q1820.9 1482.55 1824.51 1482.55 Q1828.15 1482.55 1829.95 1479.01 Q1831.78 1475.44 1831.78 1468.33 Q1831.78 1461.2 1829.95 1457.66 Q1828.15 1454.1 1824.51 1454.1 M1824.51 1450.39 Q1830.33 1450.39 1833.38 1455 Q1836.46 1459.58 1836.46 1468.33 Q1836.46 1477.06 1833.38 1481.67 Q1830.33 1486.25 1824.51 1486.25 Q1818.7 1486.25 1815.63 1481.67 Q1812.57 1477.06 1812.57 1468.33 Q1812.57 1459.58 1815.63 1455 Q1818.7 1450.39 1824.51 1450.39 Z" fill="#000000" fill-rule="nonzero" fill-opacity="1" /><path clip-path="url(#clip490)" d="M2237.55 1481.64 L2245.19 1481.64 L2245.19 1455.28 L2236.88 1456.95 L2236.88 1452.69 L2245.14 1451.02 L2249.82 1451.02 L2249.82 1481.64 L2257.45 1481.64 L2257.45 1485.58 L2237.55 1485.58 L2237.55 1481.64 Z" fill="#000000" fill-rule="nonzero" fill-opacity="1" /><path clip-path="url(#clip490)" d="M2276.9 1454.1 Q2273.29 1454.1 2271.46 1457.66 Q2269.65 1461.2 2269.65 1468.33 Q2269.65 1475.44 2271.46 1479.01 Q2273.29 1482.55 2276.9 1482.55 Q2280.53 1482.55 2282.34 1479.01 Q2284.17 1475.44 2284.17 1468.33 Q2284.17 1461.2 2282.34 1457.66 Q2280.53 1454.1 2276.9 1454.1 M2276.9 1450.39 Q2282.71 1450.39 2285.76 1455 Q2288.84 1459.58 2288.84 1468.33 Q2288.84 1477.06 2285.76 1481.67 Q2282.71 1486.25 2276.9 1486.25 Q2271.09 1486.25 2268.01 1481.67 Q2264.95 1477.06 2264.95 1468.33 Q2264.95 1459.58 2268.01 1455 Q2271.09 1450.39 2276.9 1450.39 Z" fill="#000000" fill-rule="nonzero" fill-opacity="1" /><path clip-path="url(#clip490)" d="M2307.06 1454.1 Q2303.45 1454.1 2301.62 1457.66 Q2299.82 1461.2 2299.82 1468.33 Q2299.82 1475.44 2301.62 1479.01 Q2303.45 1482.55 2307.06 1482.55 Q2310.69 1482.55 2312.5 1479.01 Q2314.33 1475.44 2314.33 1468.33 Q2314.33 1461.2 2312.5 1457.66 Q2310.69 1454.1 2307.06 1454.1 M2307.06 1450.39 Q2312.87 1450.39 2315.93 1455 Q2319 1459.58 2319 1468.33 Q2319 1477.06 2315.93 1481.67 Q2312.87 1486.25 2307.06 1486.25 Q2301.25 1486.25 2298.17 1481.67 Q2295.12 1477.06 2295.12 1468.33 Q2295.12 1459.58 2298.17 1455 Q2301.25 1450.39 2307.06 1450.39 Z" fill="#000000" fill-rule="nonzero" fill-opacity="1" /><path clip-path="url(#clip490)" d="M2337.22 1454.1 Q2333.61 1454.1 2331.78 1457.66 Q2329.98 1461.2 2329.98 1468.33 Q2329.98 1475.44 2331.78 1479.01 Q2333.61 1482.55 2337.22 1482.55 Q2340.86 1482.55 2342.66 1479.01 Q2344.49 1475.44 2344.49 1468.33 Q2344.49 1461.2 2342.66 1457.66 Q2340.86 1454.1 2337.22 1454.1 M2337.22 1450.39 Q2343.03 1450.39 2346.09 1455 Q2349.17 1459.58 2349.17 1468.33 Q2349.17 1477.06 2346.09 1481.67 Q2343.03 1486.25 2337.22 1486.25 Q2331.41 1486.25 2328.33 1481.67 Q2325.28 1477.06 2325.28 1468.33 Q2325.28 1459.58 2328.33 1455 Q2331.41 1450.39 2337.22 1450.39 Z" fill="#000000" fill-rule="nonzero" fill-opacity="1" /><path clip-path="url(#clip490)" d="M1165.17 1520.52 L1171.6 1520.52 L1171.6 1568.04 L1165.17 1568.04 L1165.17 1520.52 Z" fill="#000000" fill-rule="nonzero" fill-opacity="1" /><path clip-path="url(#clip490)" d="M1189.93 1522.27 L1189.93 1532.4 L1201.99 1532.4 L1201.99 1536.95 L1189.93 1536.95 L1189.93 1556.3 Q1189.93 1560.66 1191.11 1561.9 Q1192.32 1563.14 1195.98 1563.14 L1201.99 1563.14 L1201.99 1568.04 L1195.98 1568.04 Q1189.2 1568.04 1186.62 1565.53 Q1184.04 1562.98 1184.04 1556.3 L1184.04 1536.95 L1179.74 1536.95 L1179.74 1532.4 L1184.04 1532.4 L1184.04 1522.27 L1189.93 1522.27 Z" fill="#000000" fill-rule="nonzero" fill-opacity="1" /><path clip-path="url(#clip490)" d="M1240.19 1548.76 L1240.19 1551.62 L1213.26 1551.62 Q1213.64 1557.67 1216.89 1560.85 Q1220.17 1564 1225.99 1564 Q1229.36 1564 1232.52 1563.17 Q1235.7 1562.35 1238.82 1560.69 L1238.82 1566.23 Q1235.67 1567.57 1232.36 1568.27 Q1229.05 1568.97 1225.64 1568.97 Q1217.11 1568.97 1212.11 1564 Q1207.15 1559.04 1207.15 1550.57 Q1207.15 1541.82 1211.86 1536.69 Q1216.6 1531.54 1224.62 1531.54 Q1231.81 1531.54 1235.98 1536.18 Q1240.19 1540.8 1240.19 1548.76 M1234.33 1547.04 Q1234.27 1542.23 1231.62 1539.37 Q1229.01 1536.5 1224.69 1536.5 Q1219.78 1536.5 1216.82 1539.27 Q1213.9 1542.04 1213.45 1547.07 L1234.33 1547.04 Z" fill="#000000" fill-rule="nonzero" fill-opacity="1" /><path clip-path="url(#clip490)" d="M1270.45 1537.87 Q1269.47 1537.3 1268.29 1537.04 Q1267.14 1536.76 1265.74 1536.76 Q1260.78 1536.76 1258.11 1540 Q1255.46 1543.22 1255.46 1549.27 L1255.46 1568.04 L1249.58 1568.04 L1249.58 1532.4 L1255.46 1532.4 L1255.46 1537.93 Q1257.31 1534.69 1260.27 1533.13 Q1263.23 1531.54 1267.46 1531.54 Q1268.07 1531.54 1268.8 1531.63 Q1269.53 1531.7 1270.42 1531.85 L1270.45 1537.87 Z" fill="#000000" fill-rule="nonzero" fill-opacity="1" /><path clip-path="url(#clip490)" d="M1292.8 1550.12 Q1285.7 1550.12 1282.96 1551.75 Q1280.23 1553.37 1280.23 1557.29 Q1280.23 1560.4 1282.26 1562.25 Q1284.33 1564.07 1287.86 1564.07 Q1292.73 1564.07 1295.66 1560.63 Q1298.62 1557.16 1298.62 1551.43 L1298.62 1550.12 L1292.8 1550.12 M1304.48 1547.71 L1304.48 1568.04 L1298.62 1568.04 L1298.62 1562.63 Q1296.62 1565.88 1293.63 1567.44 Q1290.63 1568.97 1286.31 1568.97 Q1280.83 1568.97 1277.58 1565.91 Q1274.37 1562.82 1274.37 1557.67 Q1274.37 1551.65 1278.38 1548.6 Q1282.42 1545.54 1290.41 1545.54 L1298.62 1545.54 L1298.62 1544.97 Q1298.62 1540.93 1295.95 1538.73 Q1293.31 1536.5 1288.5 1536.5 Q1285.45 1536.5 1282.55 1537.23 Q1279.65 1537.97 1276.98 1539.43 L1276.98 1534.02 Q1280.19 1532.78 1283.22 1532.17 Q1286.24 1531.54 1289.11 1531.54 Q1296.84 1531.54 1300.66 1535.55 Q1304.48 1539.56 1304.48 1547.71 Z" fill="#000000" fill-rule="nonzero" fill-opacity="1" /><path clip-path="url(#clip490)" d="M1322.34 1522.27 L1322.34 1532.4 L1334.4 1532.4 L1334.4 1536.95 L1322.34 1536.95 L1322.34 1556.3 Q1322.34 1560.66 1323.51 1561.9 Q1324.72 1563.14 1328.38 1563.14 L1334.4 1563.14 L1334.4 1568.04 L1328.38 1568.04 Q1321.6 1568.04 1319.03 1565.53 Q1316.45 1562.98 1316.45 1556.3 L1316.45 1536.95 L1312.15 1536.95 L1312.15 1532.4 L1316.45 1532.4 L1316.45 1522.27 L1322.34 1522.27 Z" fill="#000000" fill-rule="nonzero" fill-opacity="1" /><path clip-path="url(#clip490)" d="M1342.1 1532.4 L1347.96 1532.4 L1347.96 1568.04 L1342.1 1568.04 L1342.1 1532.4 M1342.1 1518.52 L1347.96 1518.52 L1347.96 1525.93 L1342.1 1525.93 L1342.1 1518.52 Z" fill="#000000" fill-rule="nonzero" fill-opacity="1" /><path clip-path="url(#clip490)" d="M1374.02 1536.5 Q1369.31 1536.5 1366.58 1540.19 Q1363.84 1543.85 1363.84 1550.25 Q1363.84 1556.65 1366.55 1560.34 Q1369.28 1564 1374.02 1564 Q1378.7 1564 1381.44 1560.31 Q1384.18 1556.62 1384.18 1550.25 Q1384.18 1543.92 1381.44 1540.23 Q1378.7 1536.5 1374.02 1536.5 M1374.02 1531.54 Q1381.66 1531.54 1386.02 1536.5 Q1390.38 1541.47 1390.38 1550.25 Q1390.38 1559 1386.02 1564 Q1381.66 1568.97 1374.02 1568.97 Q1366.35 1568.97 1361.99 1564 Q1357.66 1559 1357.66 1550.25 Q1357.66 1541.47 1361.99 1536.5 Q1366.35 1531.54 1374.02 1531.54 Z" fill="#000000" fill-rule="nonzero" fill-opacity="1" /><path clip-path="url(#clip490)" d="M1429.72 1546.53 L1429.72 1568.04 L1423.87 1568.04 L1423.87 1546.72 Q1423.87 1541.66 1421.89 1539.14 Q1419.92 1536.63 1415.97 1536.63 Q1411.23 1536.63 1408.5 1539.65 Q1405.76 1542.68 1405.76 1547.9 L1405.76 1568.04 L1399.87 1568.04 L1399.87 1532.4 L1405.76 1532.4 L1405.76 1537.93 Q1407.86 1534.72 1410.69 1533.13 Q1413.56 1531.54 1417.28 1531.54 Q1423.42 1531.54 1426.57 1535.36 Q1429.72 1539.14 1429.72 1546.53 Z" fill="#000000" fill-rule="nonzero" fill-opacity="1" /><polyline clip-path="url(#clip490)" style="stroke:#000000; stroke-linecap:round; stroke-linejoin:round; stroke-width:4; stroke-opacity:1; fill:none" points="242.135,1423.18 242.135,47.2441 "/>
<polyline clip-path="url(#clip490)" style="stroke:#000000; stroke-linecap:round; stroke-linejoin:round; stroke-width:4; stroke-opacity:1; fill:none" points="242.135,1350.52 261.032,1350.52 "/>
<polyline clip-path="url(#clip490)" style="stroke:#000000; stroke-linecap:round; stroke-linejoin:round; stroke-width:4; stroke-opacity:1; fill:none" points="242.135,979.47 261.032,979.47 "/>
<polyline clip-path="url(#clip490)" style="stroke:#000000; stroke-linecap:round; stroke-linejoin:round; stroke-width:4; stroke-opacity:1; fill:none" points="242.135,608.419 261.032,608.419 "/>
<polyline clip-path="url(#clip490)" style="stroke:#000000; stroke-linecap:round; stroke-linejoin:round; stroke-width:4; stroke-opacity:1; fill:none" points="242.135,237.368 261.032,237.368 "/>
<path clip-path="url(#clip490)" d="M114.26 1350.97 L143.936 1350.97 L143.936 1354.91 L114.26 1354.91 L114.26 1350.97 Z" fill="#000000" fill-rule="nonzero" fill-opacity="1" /><path clip-path="url(#clip490)" d="M168.195 1349.17 Q171.552 1349.88 173.427 1352.15 Q175.325 1354.42 175.325 1357.76 Q175.325 1362.87 171.806 1365.67 Q168.288 1368.47 161.806 1368.47 Q159.63 1368.47 157.315 1368.03 Q155.024 1367.62 152.57 1366.76 L152.57 1362.25 Q154.515 1363.38 156.829 1363.96 Q159.144 1364.54 161.667 1364.54 Q166.065 1364.54 168.357 1362.8 Q170.672 1361.07 170.672 1357.76 Q170.672 1354.7 168.519 1352.99 Q166.39 1351.25 162.57 1351.25 L158.542 1351.25 L158.542 1347.41 L162.755 1347.41 Q166.204 1347.41 168.033 1346.04 Q169.862 1344.65 169.862 1342.06 Q169.862 1339.4 167.964 1337.99 Q166.089 1336.55 162.57 1336.55 Q160.649 1336.55 158.45 1336.97 Q156.251 1337.39 153.612 1338.26 L153.612 1334.1 Q156.274 1333.36 158.589 1332.99 Q160.927 1332.62 162.987 1332.62 Q168.311 1332.62 171.413 1335.05 Q174.514 1337.45 174.514 1341.57 Q174.514 1344.45 172.871 1346.44 Q171.227 1348.4 168.195 1349.17 Z" fill="#000000" fill-rule="nonzero" fill-opacity="1" /><path clip-path="url(#clip490)" d="M194.19 1336.32 Q190.579 1336.32 188.75 1339.89 Q186.945 1343.43 186.945 1350.56 Q186.945 1357.66 188.75 1361.23 Q190.579 1364.77 194.19 1364.77 Q197.825 1364.77 199.63 1361.23 Q201.459 1357.66 201.459 1350.56 Q201.459 1343.43 199.63 1339.89 Q197.825 1336.32 194.19 1336.32 M194.19 1332.62 Q200 1332.62 203.056 1337.22 Q206.135 1341.81 206.135 1350.56 Q206.135 1359.28 203.056 1363.89 Q200 1368.47 194.19 1368.47 Q188.38 1368.47 185.301 1363.89 Q182.246 1359.28 182.246 1350.56 Q182.246 1341.81 185.301 1337.22 Q188.38 1332.62 194.19 1332.62 Z" fill="#000000" fill-rule="nonzero" fill-opacity="1" /><path clip-path="url(#clip490)" d="M114.26 979.922 L143.936 979.922 L143.936 983.857 L114.26 983.857 L114.26 979.922 Z" fill="#000000" fill-rule="nonzero" fill-opacity="1" /><path clip-path="url(#clip490)" d="M158.056 992.815 L174.376 992.815 L174.376 996.75 L152.431 996.75 L152.431 992.815 Q155.093 990.06 159.677 985.431 Q164.283 980.778 165.464 979.436 Q167.709 976.912 168.589 975.176 Q169.491 973.417 169.491 971.727 Q169.491 968.973 167.547 967.236 Q165.626 965.5 162.524 965.5 Q160.325 965.5 157.871 966.264 Q155.44 967.028 152.663 968.579 L152.663 963.857 Q155.487 962.723 157.94 962.144 Q160.394 961.565 162.431 961.565 Q167.802 961.565 170.996 964.25 Q174.19 966.936 174.19 971.426 Q174.19 973.556 173.38 975.477 Q172.593 977.375 170.487 979.968 Q169.908 980.639 166.806 983.857 Q163.704 987.051 158.056 992.815 Z" fill="#000000" fill-rule="nonzero" fill-opacity="1" /><path clip-path="url(#clip490)" d="M194.19 965.269 Q190.579 965.269 188.75 968.834 Q186.945 972.375 186.945 979.505 Q186.945 986.611 188.75 990.176 Q190.579 993.718 194.19 993.718 Q197.825 993.718 199.63 990.176 Q201.459 986.611 201.459 979.505 Q201.459 972.375 199.63 968.834 Q197.825 965.269 194.19 965.269 M194.19 961.565 Q200 961.565 203.056 966.172 Q206.135 970.755 206.135 979.505 Q206.135 988.232 203.056 992.838 Q200 997.422 194.19 997.422 Q188.38 997.422 185.301 992.838 Q182.246 988.232 182.246 979.505 Q182.246 970.755 185.301 966.172 Q188.38 961.565 194.19 961.565 Z" fill="#000000" fill-rule="nonzero" fill-opacity="1" /><path clip-path="url(#clip490)" d="M114.26 608.87 L143.936 608.87 L143.936 612.805 L114.26 612.805 L114.26 608.87 Z" fill="#000000" fill-rule="nonzero" fill-opacity="1" /><path clip-path="url(#clip490)" d="M154.839 621.764 L162.477 621.764 L162.477 595.398 L154.167 597.065 L154.167 592.806 L162.431 591.139 L167.107 591.139 L167.107 621.764 L174.746 621.764 L174.746 625.699 L154.839 625.699 L154.839 621.764 Z" fill="#000000" fill-rule="nonzero" fill-opacity="1" /><path clip-path="url(#clip490)" d="M194.19 594.218 Q190.579 594.218 188.75 597.782 Q186.945 601.324 186.945 608.454 Q186.945 615.56 188.75 619.125 Q190.579 622.667 194.19 622.667 Q197.825 622.667 199.63 619.125 Q201.459 615.56 201.459 608.454 Q201.459 601.324 199.63 597.782 Q197.825 594.218 194.19 594.218 M194.19 590.514 Q200 590.514 203.056 595.12 Q206.135 599.704 206.135 608.454 Q206.135 617.18 203.056 621.787 Q200 626.37 194.19 626.37 Q188.38 626.37 185.301 621.787 Q182.246 617.18 182.246 608.454 Q182.246 599.704 185.301 595.12 Q188.38 590.514 194.19 590.514 Z" fill="#000000" fill-rule="nonzero" fill-opacity="1" /><path clip-path="url(#clip490)" d="M194.19 223.166 Q190.579 223.166 188.75 226.731 Q186.945 230.273 186.945 237.402 Q186.945 244.509 188.75 248.074 Q190.579 251.615 194.19 251.615 Q197.825 251.615 199.63 248.074 Q201.459 244.509 201.459 237.402 Q201.459 230.273 199.63 226.731 Q197.825 223.166 194.19 223.166 M194.19 219.463 Q200 219.463 203.056 224.069 Q206.135 228.652 206.135 237.402 Q206.135 246.129 203.056 250.736 Q200 255.319 194.19 255.319 Q188.38 255.319 185.301 250.736 Q182.246 246.129 182.246 237.402 Q182.246 228.652 185.301 224.069 Q188.38 219.463 194.19 219.463 Z" fill="#000000" fill-rule="nonzero" fill-opacity="1" /><path clip-path="url(#clip490)" d="M16.4842 816.375 L16.4842 786.329 L21.895 786.329 L21.895 809.945 L35.9632 809.945 L35.9632 787.315 L41.3741 787.315 L41.3741 809.945 L58.5933 809.945 L58.5933 785.756 L64.0042 785.756 L64.0042 816.375 L16.4842 816.375 Z" fill="#000000" fill-rule="nonzero" fill-opacity="1" /><path clip-path="url(#clip490)" d="M16.4842 775.189 L16.4842 768.759 L58.5933 768.759 L58.5933 745.62 L64.0042 745.62 L64.0042 775.189 L16.4842 775.189 Z" fill="#000000" fill-rule="nonzero" fill-opacity="1" /><path clip-path="url(#clip490)" d="M41.3104 732.443 L58.7206 732.443 L58.7206 722.13 Q58.7206 716.942 56.5881 714.46 Q54.4238 711.945 49.9996 711.945 Q45.5436 711.945 43.4429 714.46 Q41.3104 716.942 41.3104 722.13 L41.3104 732.443 M21.7677 732.443 L36.0905 732.443 L36.0905 722.926 Q36.0905 718.216 34.34 715.924 Q32.5576 713.6 28.9291 713.6 Q25.3325 713.6 23.5501 715.924 Q21.7677 718.216 21.7677 722.926 L21.7677 732.443 M16.4842 738.872 L16.4842 722.449 Q16.4842 715.096 19.5397 711.118 Q22.5952 707.139 28.2289 707.139 Q32.5894 707.139 35.1675 709.176 Q37.7456 711.213 38.3822 715.16 Q39.4007 710.418 42.6472 707.808 Q45.8619 705.166 50.6998 705.166 Q57.0655 705.166 60.5348 709.495 Q64.0042 713.823 64.0042 721.812 L64.0042 738.872 L16.4842 738.872 Z" fill="#000000" fill-rule="nonzero" fill-opacity="1" /><path clip-path="url(#clip490)" d="M20.8447 676.011 Q20.8447 683.013 26.0645 687.151 Q31.2844 691.257 40.2919 691.257 Q49.2675 691.257 54.4874 687.151 Q59.7073 683.013 59.7073 676.011 Q59.7073 669.009 54.4874 664.935 Q49.2675 660.829 40.2919 660.829 Q31.2844 660.829 26.0645 664.935 Q20.8447 669.009 20.8447 676.011 M15.6248 676.011 Q15.6248 666.017 22.3406 660.033 Q29.0246 654.049 40.2919 654.049 Q51.5274 654.049 58.2432 660.033 Q64.9272 666.017 64.9272 676.011 Q64.9272 686.037 58.2432 692.052 Q51.5592 698.036 40.2919 698.036 Q29.0246 698.036 22.3406 692.052 Q15.6248 686.037 15.6248 676.011 Z" fill="#000000" fill-rule="nonzero" fill-opacity="1" /><polyline clip-path="url(#clip492)" style="stroke:#009af9; stroke-linecap:round; stroke-linejoin:round; stroke-width:4; stroke-opacity:1; fill:none" points="301.869,1366.49 303.862,1124.24 305.856,1290.4 307.849,1137.4 309.842,922.041 311.835,848.772 313.828,1262.32 315.821,880.162 317.814,787.963 319.808,709.912 321.801,920.593 323.794,504.045 325.787,1077.21 327.78,865.866 329.773,1384.24 331.766,897.446 333.76,720.538 335.753,963.828 337.746,1087.29 339.739,1091.01 341.732,883.3 343.725,616.623 345.718,678.797 347.712,781.349 349.705,521.015 351.698,695.708 353.691,547.434 355.684,1136.42 357.677,983.209 359.67,1326.27 361.664,905.078 363.657,1349.54 365.65,878.916 367.643,1202.06 369.636,604.504 371.629,813.718 373.622,908.238 375.616,932.43 377.609,623.253 379.602,763.361 381.595,578.752 383.588,678.437 385.581,935.046 387.574,1036.03 389.568,990.708 391.561,582.823 393.554,1097.77 395.547,750.291 397.54,549.338 399.533,587.843 401.526,829.337 403.52,695.764 405.513,670.386 407.506,416.562 409.499,774.883 411.492,749.514 413.485,598.944 415.479,986.307 417.472,421.357 419.465,480.657 421.458,968.249 423.451,424.916 425.444,452.016 427.437,336.999 429.431,722.969 431.424,500.589 433.417,770.723 435.41,819.052 437.403,450.934 439.396,207.597 441.389,537.606 443.383,667.358 445.376,637.709 447.369,485.179 449.362,576.494 451.355,793.567 453.348,752.038 455.341,445.291 457.335,613.137 459.328,709.095 461.321,409.107 463.314,541.866 465.307,978.482 467.3,624.774 469.293,725.421 471.287,489.189 473.28,423.524 475.273,567.212 477.266,269.367 479.259,537.772 481.252,491.791 483.245,322.863 485.239,495.094 487.232,357.901 489.225,599.841 491.218,576.957 493.211,425.818 495.204,744.694 497.197,758.501 499.191,265.389 501.184,559.125 503.177,313.898 505.17,417.389 507.163,528.415 509.156,423.092 511.149,347.149 513.143,776.948 515.136,494.295 517.129,499.573 519.122,343.341 521.115,408.562 523.108,528.705 525.101,557.726 527.095,475.504 529.088,369.835 531.081,439.549 533.074,385.93 535.067,490.285 537.06,733.862 539.054,684.028 541.047,554.217 543.04,584.422 545.033,573.988 547.026,621.21 549.019,402.646 551.012,355.571 553.006,284.969 554.999,349.758 556.992,580.14 558.985,468.412 560.978,740.33 562.971,327.739 564.964,525.108 566.958,580.196 568.951,668.19 570.944,382.927 572.937,336.561 574.93,310.828 576.923,334.835 578.916,357.466 580.91,556.46 582.903,417.492 584.896,496.84 586.889,231.812 588.882,749.704 590.875,407.615 592.868,456.808 594.862,563.928 596.855,661.633 598.848,240.312 600.841,277.625 602.834,244.528 604.827,550.432 606.82,467.721 608.814,343.424 610.807,553.365 612.8,295.471 614.793,577.569 616.786,367.806 618.779,308.251 620.772,305.817 622.766,424.078 624.759,649.261 626.752,331.013 628.745,154.687 630.738,189.021 632.731,275.531 634.724,278.399 636.718,163.362 638.711,319.155 640.704,320.666 642.697,202.584 644.69,476.567 646.683,213.804 648.677,339.21 650.67,290.229 652.663,407.249 654.656,392.256 656.649,611.088 658.642,214.742 660.635,430.959 662.629,286.83 664.622,326.303 666.615,293 668.608,243.824 670.601,396.886 672.594,290.984 674.587,310.313 676.581,701.998 678.574,348.263 680.567,492.807 682.56,141.924 684.553,246.853 686.546,424.518 688.539,229.191 690.533,434.478 692.526,195.189 694.519,247.806 696.512,273.24 698.505,519.651 700.498,597.803 702.491,264.86 704.485,301.925 706.478,178.466 708.471,384.798 710.464,314.452 712.457,316.917 714.45,294.454 716.443,299.293 718.437,192.325 720.43,403.277 722.423,665.137 724.416,404.284 726.409,258.942 728.402,307.04 730.395,193.39 732.389,252.623 734.382,361.223 736.375,222.366 738.368,194.426 740.361,131.393 742.354,143.561 744.347,305.675 746.341,179.579 748.334,286.918 750.327,259.644 752.32,372.454 754.313,263.901 756.306,189.608 758.299,182.089 760.293,265.196 762.286,289.21 764.279,254.174 766.272,197.535 768.265,222.35 770.258,259.2 772.252,365.654 774.245,112.042 776.238,178.034 778.231,323.175 780.224,251.102 782.217,461.406 784.21,160.173 786.204,644.551 788.197,223.449 790.19,199.913 792.183,230.295 794.176,226.235 796.169,357.179 798.162,215.039 800.156,377.062 802.149,344.358 804.142,262.352 806.135,271.319 808.128,410.475 810.121,275.912 812.114,160.395 814.108,288.482 816.101,190.438 818.094,154.327 820.087,334.284 822.08,258.963 824.073,280.74 826.066,135.278 828.06,233.986 830.053,210.216 832.046,229.564 834.039,166.069 836.032,250.583 838.025,354.561 840.018,205.176 842.012,421.123 844.005,165.749 845.998,387.396 847.991,241.048 849.984,201.653 851.977,327.079 853.97,230.643 855.964,177.549 857.957,309.893 859.95,217.896 861.943,135.567 863.936,192.02 865.929,185.901 867.922,173.635 869.916,221.188 871.909,166.945 873.902,300.485 875.895,237.648 877.888,202.903 879.881,221.387 881.874,231.121 883.868,111.16 885.861,241.526 887.854,261.599 889.847,280.887 891.84,380.295 893.833,250.046 895.827,213.21 897.82,334.374 899.813,139.433 901.806,290.351 903.799,131.815 905.792,151.203 907.785,610.09 909.779,266.245 911.772,264.651 913.765,293.897 915.758,319.709 917.751,475.359 919.744,218.679 921.737,134.088 923.731,267.51 925.724,296.335 927.717,155.503 929.71,216.978 931.703,323.019 933.696,260.278 935.689,162.079 937.683,238.775 939.676,215.679 941.669,361.056 943.662,258.029 945.655,220.468 947.648,174.725 949.641,333.917 951.635,224.803 953.628,284.656 955.621,182.766 957.614,145.701 959.607,250.163 961.6,213.24 963.593,112.141 965.587,350.225 967.58,225.206 969.573,229.07 971.566,117.332 973.559,242.157 975.552,411.933 977.545,264.985 979.539,176.058 981.532,173.841 983.525,97.8517 985.518,209.711 987.511,267.741 989.504,191.432 991.497,190.618 993.491,302.639 995.484,261.11 997.477,165.016 999.47,197.413 1001.46,343.711 1003.46,242.32 1005.45,312.337 1007.44,225.214 1009.44,229.577 1011.43,150.159 1013.42,340.582 1015.42,204.583 1017.41,247.145 1019.4,213.521 1021.39,157.823 1023.39,271.869 1025.38,202.44 1027.37,210.591 1029.37,322.728 1031.36,171.822 1033.35,174.993 1035.35,234.042 1037.34,293.464 1039.33,211.014 1041.33,211.316 1043.32,154.071 1045.31,229.386 1047.31,297.372 1049.3,218.47 1051.29,180.814 1053.28,318.351 1055.28,407.966 1057.27,480.75 1059.26,168.826 1061.26,189.003 1063.25,317.214 1065.24,130.065 1067.24,201.444 1069.23,247.246 1071.22,246.227 1073.22,230.928 1075.21,264.596 1077.2,211.737 1079.2,214.951 1081.19,321.763 1083.18,334.597 1085.18,337.714 1087.17,202.173 1089.16,336.312 1091.15,184.54 1093.15,247.597 1095.14,188.492 1097.13,102.934 1099.13,233.732 1101.12,133.565 1103.11,389.479 1105.11,141.09 1107.1,451.094 1109.09,204.787 1111.09,371.06 1113.08,195.873 1115.07,142.628 1117.07,223.93 1119.06,121.076 1121.05,192.865 1123.05,390.355 1125.04,268.12 1127.03,269.782 1129.02,179.078 1131.02,132.828 1133.01,142.456 1135,157.661 1137,184.356 1138.99,151.591 1140.98,153.242 1142.98,361.745 1144.97,105.138 1146.96,333.947 1148.96,173.605 1150.95,346.177 1152.94,243.137 1154.94,127.562 1156.93,317.235 1158.92,131.107 1160.91,130.623 1162.91,159.785 1164.9,338.581 1166.89,144.616 1168.89,349.066 1170.88,182.468 1172.87,310.68 1174.87,313.872 1176.86,345.607 1178.85,480.993 1180.85,249.839 1182.84,206.63 1184.83,228.856 1186.83,290.335 1188.82,160.558 1190.81,440.331 1192.81,126.664 1194.8,272.336 1196.79,133.162 1198.78,293.38 1200.78,189.24 1202.77,186.253 1204.76,248.503 1206.76,107.409 1208.75,195.224 1210.74,394.272 1212.74,236.926 1214.73,269.779 1216.72,217.87 1218.72,265.567 1220.71,212.639 1222.7,321.249 1224.7,189.228 1226.69,255.737 1228.68,327.739 1230.67,464.694 1232.67,315.082 1234.66,187.422 1236.65,384.942 1238.65,177.147 1240.64,242.585 1242.63,199.602 1244.63,223.992 1246.62,221.703 1248.61,239.169 1250.61,161.365 1252.6,254.294 1254.59,173.306 1256.59,86.9301 1258.58,133.074 1260.57,365.344 1262.57,260.13 1264.56,274.205 1266.55,236.71 1268.54,242.709 1270.54,161.642 1272.53,361.66 1274.52,194.219 1276.52,282.366 1278.51,193.498 1280.5,197.23 1282.5,168.958 1284.49,290.027 1286.48,143.355 1288.48,408.648 1290.47,154.892 1292.46,243.003 1294.46,459.346 1296.45,278.682 1298.44,224.29 1300.44,181.247 1302.43,375.775 1304.42,521.778 1306.41,469.926 1308.41,522.564 1310.4,187.525 1312.39,350.222 1314.39,359.644 1316.38,265.192 1318.37,167.143 1320.37,179.462 1322.36,161.261 1324.35,361.202 1326.35,209.252 1328.34,142.838 1330.33,213.374 1332.33,163.837 1334.32,210.199 1336.31,222.765 1338.3,322.903 1340.3,233.645 1342.29,205.545 1344.28,309.974 1346.28,360.149 1348.27,250.66 1350.26,183.288 1352.26,272.355 1354.25,273.157 1356.24,235.167 1358.24,284.674 1360.23,318.994 1362.22,168.583 1364.22,186.57 1366.21,145.062 1368.2,222.929 1370.2,285.869 1372.19,238.687 1374.18,241.598 1376.17,140.422 1378.17,324.086 1380.16,210.346 1382.15,179.47 1384.15,216.546 1386.14,167.892 1388.13,204.894 1390.13,174.686 1392.12,331.015 1394.11,146.113 1396.11,122.684 1398.1,214.49 1400.09,359.873 1402.09,194.99 1404.08,218.469 1406.07,347.688 1408.06,263.982 1410.06,231.493 1412.05,316.998 1414.04,297.072 1416.04,286.924 1418.03,306.926 1420.02,86.1857 1422.02,200.629 1424.01,241.742 1426,236.389 1428,290.504 1429.99,172.8 1431.98,353.446 1433.98,151.113 1435.97,243.823 1437.96,174.36 1439.96,114.127 1441.95,240.973 1443.94,310.929 1445.93,230.652 1447.93,127.7 1449.92,263.592 1451.91,183.485 1453.91,365.269 1455.9,506.386 1457.89,252.617 1459.89,284.109 1461.88,391.537 1463.87,177.255 1465.87,358.426 1467.86,251.988 1469.85,214.568 1471.85,97.1905 1473.84,299.613 1475.83,232.533 1477.82,159.958 1479.82,131.85 1481.81,128.795 1483.8,194.576 1485.8,208.873 1487.79,90.1202 1489.78,247.209 1491.78,184.296 1493.77,326.837 1495.76,257.514 1497.76,217.677 1499.75,365.35 1501.74,320.685 1503.74,327.705 1505.73,125.402 1507.72,227.091 1509.72,180.895 1511.71,238.991 1513.7,157.833 1515.69,129.225 1517.69,226.613 1519.68,199.991 1521.67,146.551 1523.67,293.194 1525.66,188.873 1527.65,281.492 1529.65,302.775 1531.64,141.399 1533.63,227.757 1535.63,134.574 1537.62,303.662 1539.61,195.578 1541.61,158.302 1543.6,445.981 1545.59,176.81 1547.59,296.52 1549.58,128.172 1551.57,336.668 1553.56,243.778 1555.56,269.934 1557.55,321.453 1559.54,206.607 1561.54,466.519 1563.53,160.056 1565.52,220.068 1567.52,188.097 1569.51,173.899 1571.5,323.26 1573.5,254.585 1575.49,422.26 1577.48,112.835 1579.48,208.217 1581.47,220.245 1583.46,266.741 1585.45,277.255 1587.45,299.688 1589.44,426.251 1591.43,458.303 1593.43,218.384 1595.42,260.617 1597.41,333.356 1599.41,284.879 1601.4,181.103 1603.39,304.955 1605.39,296.689 1607.38,178.74 1609.37,164.006 1611.37,239.694 1613.36,298.331 1615.35,128.522 1617.35,259.46 1619.34,358.957 1621.33,211.641 1623.32,147.017 1625.32,194.058 1627.31,205.02 1629.3,399.62 1631.3,194.101 1633.29,200.164 1635.28,254.226 1637.28,318.429 1639.27,297.88 1641.26,137.522 1643.26,269.86 1645.25,235.015 1647.24,218.321 1649.24,344.012 1651.23,162.072 1653.22,324.367 1655.21,217.089 1657.21,398.272 1659.2,201.45 1661.19,224.476 1663.19,189.558 1665.18,188.129 1667.17,132.211 1669.17,218.484 1671.16,290.64 1673.15,323.794 1675.15,189.859 1677.14,206.548 1679.13,255.131 1681.13,288.719 1683.12,174.614 1685.11,260.846 1687.11,169.975 1689.1,242.366 1691.09,152.648 1693.08,287.164 1695.08,233.504 1697.07,475.544 1699.06,229.885 1701.06,369.568 1703.05,243.318 1705.04,167.438 1707.04,264.939 1709.03,322.033 1711.02,230.055 1713.02,224.894 1715.01,319.667 1717,289.275 1719,260.61 1720.99,190.682 1722.98,271.838 1724.97,265.023 1726.97,139.729 1728.96,142.183 1730.95,214.962 1732.95,335.408 1734.94,176.832 1736.93,326.283 1738.93,181.184 1740.92,199.433 1742.91,147.701 1744.91,286.781 1746.9,199.6 1748.89,202.931 1750.89,159.912 1752.88,397.89 1754.87,173.061 1756.87,285.905 1758.86,188.844 1760.85,283.95 1762.84,354.228 1764.84,321.889 1766.83,296.912 1768.82,230.782 1770.82,245.428 1772.81,213.982 1774.8,240.688 1776.8,537.189 1778.79,115.551 1780.78,273.134 1782.78,269.224 1784.77,199.856 1786.76,277.187 1788.76,456.819 1790.75,180.235 1792.74,197.144 1794.74,197.499 1796.73,129.668 1798.72,221.042 1800.71,203.686 1802.71,257.374 1804.7,153.05 1806.69,206.071 1808.69,238.847 1810.68,348.623 1812.67,159.468 1814.67,172.392 1816.66,200.492 1818.65,184.2 1820.65,180.593 1822.64,190.91 1824.63,165.169 1826.63,383.108 1828.62,221.888 1830.61,181.941 1832.6,147.868 1834.6,230.425 1836.59,211.226 1838.58,223.603 1840.58,235.07 1842.57,278.874 1844.56,136.835 1846.56,238.222 1848.55,225.344 1850.54,263.465 1852.54,203.408 1854.53,481.934 1856.52,164.89 1858.52,377.525 1860.51,212.755 1862.5,277.928 1864.5,379.174 1866.49,340.677 1868.48,265.796 1870.47,213.176 1872.47,387.84 1874.46,164.818 1876.45,114.471 1878.45,164.758 1880.44,229.14 1882.43,316.66 1884.43,213.743 1886.42,157.157 1888.41,204.013 1890.41,152.963 1892.4,202.92 1894.39,152.815 1896.39,152.658 1898.38,258.411 1900.37,202.915 1902.36,145.602 1904.36,269.922 1906.35,207.902 1908.34,257.907 1910.34,141.653 1912.33,172.871 1914.32,276.662 1916.32,314.011 1918.31,216.946 1920.3,94.9757 1922.3,324.717 1924.29,173.996 1926.28,253.648 1928.28,333.83 1930.27,241.498 1932.26,228.598 1934.26,185.5 1936.25,299.384 1938.24,382.193 1940.23,437.111 1942.23,170.277 1944.22,246.827 1946.21,374.558 1948.21,171.673 1950.2,311.822 1952.19,169.59 1954.19,135.228 1956.18,218.556 1958.17,311.014 1960.17,297.7 1962.16,258.259 1964.15,201.03 1966.15,250.328 1968.14,267.173 1970.13,212.262 1972.12,201.784 1974.12,110.098 1976.11,295.548 1978.1,291.759 1980.1,195.991 1982.09,322.088 1984.08,267.453 1986.08,213.837 1988.07,133.797 1990.06,234.179 1992.06,229.039 1994.05,331.461 1996.04,202.754 1998.04,121.08 2000.03,232.919 2002.02,276.347 2004.02,223.525 2006.01,146.397 2008,202.375 2009.99,91.8937 2011.99,118.935 2013.98,344.62 2015.97,323.04 2017.97,209.89 2019.96,119.867 2021.95,234.458 2023.95,231.886 2025.94,375.286 2027.93,155.123 2029.93,270.25 2031.92,305.173 2033.91,211.282 2035.91,183.403 2037.9,279.954 2039.89,215.351 2041.89,432.42 2043.88,238.483 2045.87,156.367 2047.86,199.618 2049.86,94.2173 2051.85,301.287 2053.84,667.013 2055.84,161.71 2057.83,229.002 2059.82,177.811 2061.82,247.206 2063.81,190.875 2065.8,419.742 2067.8,164.974 2069.79,386.719 2071.78,212.476 2073.78,392.353 2075.77,261.007 2077.76,166.413 2079.75,450.686 2081.75,250.046 2083.74,162.957 2085.73,187.23 2087.73,384.429 2089.72,246.517 2091.71,450.965 2093.71,251.32 2095.7,196.854 2097.69,213.661 2099.69,253.496 2101.68,276.923 2103.67,199.71 2105.67,140.159 2107.66,148.787 2109.65,162.369 2111.65,196.69 2113.64,208.965 2115.63,246.423 2117.62,249.825 2119.62,218.925 2121.61,133.401 2123.6,131.15 2125.6,247.512 2127.59,201.714 2129.58,308.236 2131.58,224.395 2133.57,426.292 2135.56,282.525 2137.56,245.082 2139.55,223.52 2141.54,402.976 2143.54,135.67 2145.53,244.009 2147.52,218.155 2149.51,161.417 2151.51,92.7949 2153.5,301.392 2155.49,181.352 2157.49,191.263 2159.48,125.341 2161.47,303.284 2163.47,259.605 2165.46,140.7 2167.45,188.698 2169.45,305.996 2171.44,229.461 2173.43,271.985 2175.43,302.26 2177.42,254.118 2179.41,127.872 2181.41,320.451 2183.4,200.85 2185.39,143.487 2187.38,143.822 2189.38,243.865 2191.37,276.711 2193.36,340.703 2195.36,291.621 2197.35,280.459 2199.34,297.269 2201.34,256.664 2203.33,274.62 2205.32,318.145 2207.32,272.837 2209.31,332.131 2211.3,179.076 2213.3,320.982 2215.29,344.173 2217.28,301.873 2219.27,253.178 2221.27,248.216 2223.26,322.365 2225.25,236.485 2227.25,169.965 2229.24,148.152 2231.23,218.436 2233.23,178.646 2235.22,398.121 2237.21,186.93 2239.21,320.873 2241.2,244.438 2243.19,153.385 2245.19,220.996 2247.18,421.393 2249.17,264.85 2251.17,158.578 2253.16,204.538 2255.15,346.409 2257.14,210.3 2259.14,305.33 2261.13,259.044 2263.12,319.197 2265.12,391.142 2267.11,200.268 2269.1,128.418 2271.1,348.504 2273.09,302.504 2275.08,207.135 2277.08,263.372 2279.07,222.834 2281.06,244.011 2283.06,304.476 2285.05,195.859 2287.04,241.409 2289.04,386.173 2291.03,260.552 2293.02,106.713 "/>
<polyline clip-path="url(#clip492)" style="stroke:#e26f46; stroke-linecap:round; stroke-linejoin:round; stroke-width:4; stroke-opacity:1; fill:none" points="301.869,983.488 303.862,968.655 305.856,954.256 307.849,973.071 309.842,949.085 311.835,923.393 313.828,933.288 315.821,920.785 317.814,929.857 319.808,914.485 321.801,917.598 323.794,885.536 325.787,898.12 327.78,888.577 329.773,869.651 331.766,873.289 333.76,865.97 335.753,849.449 337.746,856.561 339.739,855.829 341.732,830.64 343.725,837.647 345.718,818.948 347.712,811.054 349.705,827.828 351.698,816.746 353.691,796.525 355.684,791 357.677,798.964 359.67,754.016 361.664,767.4 363.657,760.451 365.65,748.493 367.643,762.012 369.636,757.584 371.629,759.352 373.622,775.028 375.616,758.895 377.609,734.469 379.602,737.039 381.595,716.461 383.588,706.923 385.581,701.565 387.574,705.511 389.568,682.435 391.561,668.308 393.554,682.766 395.547,682.672 397.54,678.318 399.533,695.18 401.526,651.798 403.52,643.479 405.513,636.507 407.506,634.553 409.499,654.59 411.492,644.237 413.485,636.584 415.479,630.844 417.472,623.809 419.465,628.458 421.458,605.398 423.451,604.421 425.444,614.062 427.437,615.095 429.431,581.972 431.424,582.404 433.417,577.899 435.41,574.083 437.403,616.447 439.396,579.602 441.389,573.976 443.383,563.517 445.376,564.993 447.369,575.188 449.362,552.18 451.355,567.375 453.348,542.684 455.341,550.14 457.335,536.272 459.328,543.742 461.321,549.96 463.314,518.615 465.307,511.77 467.3,528.902 469.293,508.07 471.287,497.165 473.28,499.15 475.273,508.863 477.266,486.656 479.259,490.747 481.252,485.265 483.245,472.357 485.239,487.479 487.232,481.334 489.225,488.864 491.218,470.521 493.211,454.796 495.204,476.071 497.197,459.182 499.191,455.418 501.184,456.699 503.177,437.214 505.17,460.879 507.163,446.001 509.156,464.725 511.149,447.387 513.143,451.611 515.136,433.105 517.129,430.415 519.122,442.045 521.115,445.47 523.108,426.275 525.101,416.444 527.095,420.01 529.088,411.71 531.081,416.051 533.074,415.632 535.067,410.962 537.06,406.611 539.054,401.222 541.047,393.156 543.04,394.943 545.033,405.839 547.026,391.508 549.019,401.484 551.012,385.639 553.006,385.007 554.999,383.924 556.992,374.684 558.985,376.077 560.978,388.159 562.971,397.888 564.964,380.033 566.958,400.191 568.951,368.012 570.944,365.495 572.937,378.917 574.93,365.748 576.923,360.328 578.916,389.596 580.91,371.338 582.903,348.389 584.896,366.512 586.889,379.762 588.882,356.361 590.875,349.043 592.868,364.731 594.862,349.198 596.855,354.597 598.848,360.25 600.841,357.544 602.834,346.54 604.827,344.805 606.82,334.196 608.814,342.74 610.807,334.775 612.8,360.694 614.793,336.26 616.786,330.487 618.779,332.114 620.772,325.981 622.766,325.582 624.759,324.623 626.752,327.291 628.745,327.06 630.738,326.413 632.731,333.334 634.724,313.706 636.718,312.768 638.711,319.135 640.704,321.952 642.697,302.317 644.69,308.098 646.683,315.127 648.677,312.326 650.67,308.584 652.663,297.558 654.656,301.853 656.649,306.113 658.642,307.185 660.635,312.975 662.629,301.724 664.622,294.152 666.615,295.169 668.608,305.702 670.601,288.765 672.594,282.79 674.587,284.604 676.581,296.151 678.574,302.012 680.567,293.594 682.56,283.505 684.553,307.794 686.546,294.953 688.539,285.984 690.533,278.716 692.526,285.052 694.519,292.874 696.512,283.617 698.505,292.241 700.498,281.307 702.491,298.951 704.485,263.301 706.478,281.797 708.471,296.31 710.464,283.188 712.457,297.474 714.45,292.036 716.443,292.138 718.437,273.399 720.43,283.06 722.423,286.066 724.416,289.453 726.409,273.148 728.402,291.359 730.395,260.962 732.389,264.817 734.382,258.949 736.375,265.082 738.368,261.765 740.361,247.517 742.354,262.758 744.347,254.571 746.341,286.855 748.334,260.542 750.327,267.099 752.32,261.372 754.313,261.194 756.306,256 758.299,264.909 760.293,261.884 762.286,258.469 764.279,252.227 766.272,257.767 768.265,255.99 770.258,256.51 772.252,264.216 774.245,247.266 776.238,272.166 778.231,270.047 780.224,267.899 782.217,278.29 784.21,254.794 786.204,263.084 788.197,287.677 790.19,246.807 792.183,250.838 794.176,249.48 796.169,258.056 798.162,269.142 800.156,259.489 802.149,240.851 804.142,256.953 806.135,248.68 808.128,263.394 810.121,246.553 812.114,243.233 814.108,268.993 816.101,249.284 818.094,248.563 820.087,254.729 822.08,259.158 824.073,245.729 826.066,244.118 828.06,261.473 830.053,233.832 832.046,249.768 834.039,263.927 836.032,242.889 838.025,234.743 840.018,246.273 842.012,242.225 844.005,235.452 845.998,229.37 847.991,240.81 849.984,252.645 851.977,257.107 853.97,231.596 855.964,239.515 857.957,240.39 859.95,262.228 861.943,268.472 863.936,273.333 865.929,239.161 867.922,250.931 869.916,245.03 871.909,268.727 873.902,269.091 875.895,242.539 877.888,245.699 879.881,251.2 881.874,242.569 883.868,238.032 885.861,241.084 887.854,245.234 889.847,252.262 891.84,240.563 893.833,231.567 895.827,253.964 897.82,258.004 899.813,261.066 901.806,264.342 903.799,240.529 905.792,253.038 907.785,241.084 909.779,233.26 911.772,245.575 913.765,235.477 915.758,232.855 917.751,228.971 919.744,236.549 921.737,230.516 923.731,238.57 925.724,259.729 927.717,234.201 929.71,239.265 931.703,242.372 933.696,229.505 935.689,254.588 937.683,232.628 939.676,230.903 941.669,247.704 943.662,224.726 945.655,231.864 947.648,238.037 949.641,233.028 951.635,236.045 953.628,237.818 955.621,247.092 957.614,224.493 959.607,249.446 961.6,265.206 963.593,243.421 965.587,233.402 967.58,236.154 969.573,214.157 971.566,264.851 973.559,247.537 975.552,247.768 977.545,245.922 979.539,243.382 981.532,239.82 983.525,240.257 985.518,227.982 987.511,230.746 989.504,238.563 991.497,241.364 993.491,247.976 995.484,236.814 997.477,236.717 999.47,265.045 1001.46,228.939 1003.46,241.819 1005.45,235.827 1007.44,233.841 1009.44,244.355 1011.43,233.402 1013.42,231.798 1015.42,243.236 1017.41,229.448 1019.4,226.68 1021.39,229.922 1023.39,236.506 1025.38,228.988 1027.37,229.082 1029.37,222.279 1031.36,232.654 1033.35,237.67 1035.35,230.641 1037.34,236.956 1039.33,228.587 1041.33,248.887 1043.32,224.318 1045.31,225.269 1047.31,238.902 1049.3,231.827 1051.29,244.133 1053.28,231.117 1055.28,236.44 1057.27,240.713 1059.26,234.435 1061.26,236.504 1063.25,246.068 1065.24,233.651 1067.24,243.405 1069.23,235.629 1071.22,255.514 1073.22,254.926 1075.21,230.364 1077.2,231.662 1079.2,230.427 1081.19,236.449 1083.18,222.922 1085.18,240 1087.17,231.802 1089.16,228.365 1091.15,249.546 1093.15,237.069 1095.14,228.51 1097.13,240.996 1099.13,229.08 1101.12,244.124 1103.11,239.316 1105.11,240.462 1107.1,230.883 1109.09,232.604 1111.09,231.591 1113.08,243.757 1115.07,236.848 1117.07,241.037 1119.06,238.159 1121.05,233.361 1123.05,247.443 1125.04,244.772 1127.03,234.127 1129.02,239.14 1131.02,243.348 1133.01,234.576 1135,263.281 1137,237.348 1138.99,239.201 1140.98,227.745 1142.98,241.999 1144.97,229.002 1146.96,236.939 1148.96,250.015 1150.95,241.602 1152.94,241.827 1154.94,236.92 1156.93,247.613 1158.92,247.855 1160.91,250.109 1162.91,229.297 1164.9,233.055 1166.89,226.305 1168.89,234.586 1170.88,230.245 1172.87,234.544 1174.87,246.157 1176.86,255.72 1178.85,234.145 1180.85,247 1182.84,224.131 1184.83,255.945 1186.83,244.98 1188.82,221.677 1190.81,228.873 1192.81,239.608 1194.8,238.611 1196.79,230.644 1198.78,224.055 1200.78,255.785 1202.77,247.007 1204.76,227.517 1206.76,234.689 1208.75,246.836 1210.74,228.179 1212.74,238.153 1214.73,239.243 1216.72,224.677 1218.72,235.877 1220.71,230.82 1222.7,221.317 1224.7,238.626 1226.69,234.853 1228.68,227.188 1230.67,239.9 1232.67,228.181 1234.66,235.296 1236.65,229.223 1238.65,232.225 1240.64,229.201 1242.63,230.513 1244.63,227.255 1246.62,247.75 1248.61,239.038 1250.61,243.169 1252.6,236.859 1254.59,246.637 1256.59,258.081 1258.58,237.214 1260.57,226.883 1262.57,236.544 1264.56,241.685 1266.55,235.545 1268.54,226.679 1270.54,235.344 1272.53,248.269 1274.52,229.269 1276.52,242.75 1278.51,243.758 1280.5,240.15 1282.5,239.12 1284.49,235.993 1286.48,227.448 1288.48,236.206 1290.47,247.786 1292.46,243.482 1294.46,221.705 1296.45,237.383 1298.44,245.918 1300.44,238.578 1302.43,227.264 1304.42,246.974 1306.41,247.62 1308.41,233.368 1310.4,239.225 1312.39,242.782 1314.39,244.163 1316.38,245.919 1318.37,270.033 1320.37,246.55 1322.36,227.55 1324.35,223.684 1326.35,239.562 1328.34,247.748 1330.33,237.161 1332.33,242.079 1334.32,235.239 1336.31,231.894 1338.3,241.69 1340.3,233.744 1342.29,238.081 1344.28,225.484 1346.28,240.452 1348.27,241.079 1350.26,240.809 1352.26,226.896 1354.25,231.515 1356.24,252.534 1358.24,225.496 1360.23,236.765 1362.22,245.838 1364.22,238.996 1366.21,227.065 1368.2,227.142 1370.2,244.351 1372.19,232.634 1374.18,241.587 1376.17,247.896 1378.17,232.101 1380.16,246.596 1382.15,252.319 1384.15,236.293 1386.14,231.545 1388.13,240.504 1390.13,225.194 1392.12,233.958 1394.11,239.558 1396.11,247.024 1398.1,237.406 1400.09,230.457 1402.09,245.966 1404.08,238.673 1406.07,239.463 1408.06,230.293 1410.06,235.899 1412.05,242.405 1414.04,244.42 1416.04,245.024 1418.03,232.698 1420.02,245.847 1422.02,224.514 1424.01,230.024 1426,234.041 1428,229.022 1429.99,234.994 1431.98,243.031 1433.98,253.087 1435.97,238.015 1437.96,241.569 1439.96,227.631 1441.95,234.144 1443.94,230.827 1445.93,238.908 1447.93,258.094 1449.92,240.397 1451.91,228.938 1453.91,226.576 1455.9,235.021 1457.89,224.814 1459.89,242.308 1461.88,233.984 1463.87,232.35 1465.87,241.042 1467.86,249.269 1469.85,240.322 1471.85,233.082 1473.84,233.016 1475.83,224.412 1477.82,250.67 1479.82,224.741 1481.81,231.11 1483.8,226.121 1485.8,228.255 1487.79,233.95 1489.78,232.394 1491.78,233.473 1493.77,245.182 1495.76,235.894 1497.76,230.248 1499.75,235.26 1501.74,231.671 1503.74,234.44 1505.73,238.96 1507.72,236.043 1509.72,221.652 1511.71,234.988 1513.7,239.769 1515.69,242.146 1517.69,241.68 1519.68,236.918 1521.67,228.47 1523.67,239.717 1525.66,231.13 1527.65,234.334 1529.65,227.537 1531.64,236.206 1533.63,232.266 1535.63,255.068 1537.62,237.443 1539.61,249.272 1541.61,245.9 1543.6,233.374 1545.59,230.4 1547.59,246.458 1549.58,245.973 1551.57,253.115 1553.56,223.319 1555.56,236.147 1557.55,251.523 1559.54,242.174 1561.54,262.538 1563.53,234.969 1565.52,235.426 1567.52,237.55 1569.51,240.908 1571.5,237.536 1573.5,227.662 1575.49,226.234 1577.48,248.429 1579.48,252.539 1581.47,231.662 1583.46,225.588 1585.45,226.68 1587.45,235.98 1589.44,240.99 1591.43,242.645 1593.43,232.288 1595.42,239.402 1597.41,240.099 1599.41,232.535 1601.4,246.497 1603.39,237.914 1605.39,229.717 1607.38,235.965 1609.37,231.651 1611.37,247.119 1613.36,223.835 1615.35,228.993 1617.35,231.993 1619.34,251.624 1621.33,232.861 1623.32,240.606 1625.32,238.65 1627.31,254.969 1629.3,226.617 1631.3,231.795 1633.29,244.51 1635.28,246.125 1637.28,234.252 1639.27,234.128 1641.26,239.454 1643.26,227.458 1645.25,241.496 1647.24,227.773 1649.24,227.686 1651.23,253.923 1653.22,247.497 1655.21,252.737 1657.21,235.669 1659.2,237.438 1661.19,236.235 1663.19,228.978 1665.18,257.119 1667.17,243.204 1669.17,228.425 1671.16,235.381 1673.15,245.701 1675.15,246.397 1677.14,247.662 1679.13,227.641 1681.13,225.414 1683.12,232.484 1685.11,232.516 1687.11,237.019 1689.1,241.331 1691.09,236.509 1693.08,238.365 1695.08,236.872 1697.07,231.436 1699.06,235.319 1701.06,235.688 1703.05,236.347 1705.04,229.053 1707.04,249.693 1709.03,242.229 1711.02,253.905 1713.02,245.888 1715.01,243.249 1717,237.086 1719,229.842 1720.99,234.309 1722.98,241.921 1724.97,245.975 1726.97,233.064 1728.96,221.154 1730.95,238.437 1732.95,237.331 1734.94,248.493 1736.93,243.686 1738.93,235.346 1740.92,248.562 1742.91,248.069 1744.91,240.907 1746.9,228.409 1748.89,225.148 1750.89,237.574 1752.88,235.351 1754.87,234.006 1756.87,236.256 1758.86,230.473 1760.85,226.494 1762.84,237.264 1764.84,247.387 1766.83,236.444 1768.82,226.774 1770.82,246.603 1772.81,236.395 1774.8,226.372 1776.8,235.369 1778.79,234.048 1780.78,228.662 1782.78,246.166 1784.77,232.539 1786.76,227.02 1788.76,229.981 1790.75,232.316 1792.74,241.36 1794.74,231.149 1796.73,236.551 1798.72,252.666 1800.71,241.163 1802.71,234.079 1804.7,234.51 1806.69,245.34 1808.69,238.873 1810.68,237.662 1812.67,226.09 1814.67,228.179 1816.66,238.699 1818.65,242.447 1820.65,226.12 1822.64,227.029 1824.63,237.036 1826.63,235.479 1828.62,222.483 1830.61,224.386 1832.6,248.176 1834.6,232.489 1836.59,238.212 1838.58,225.835 1840.58,252.699 1842.57,250.632 1844.56,237.858 1846.56,231.729 1848.55,236.858 1850.54,236.921 1852.54,235.385 1854.53,225.177 1856.52,229.067 1858.52,235.921 1860.51,241.788 1862.5,258.98 1864.5,236.438 1866.49,237.741 1868.48,239.432 1870.47,242.073 1872.47,241.816 1874.46,240.866 1876.45,235.785 1878.45,234.636 1880.44,219.559 1882.43,238.249 1884.43,242.59 1886.42,230.342 1888.41,224.504 1890.41,242.008 1892.4,239.462 1894.39,245.36 1896.39,244.171 1898.38,251.667 1900.37,238.009 1902.36,237.779 1904.36,225.756 1906.35,239.512 1908.34,244.582 1910.34,236.95 1912.33,241.265 1914.32,242.464 1916.32,227.83 1918.31,238.913 1920.3,236.664 1922.3,238.761 1924.29,242.797 1926.28,245.503 1928.28,232.865 1930.27,249.89 1932.26,250.687 1934.26,237.538 1936.25,243.061 1938.24,237.401 1940.23,248.81 1942.23,230.333 1944.22,239.626 1946.21,227.627 1948.21,249.542 1950.2,234.684 1952.19,252.628 1954.19,248.39 1956.18,237.897 1958.17,232.884 1960.17,222.06 1962.16,223.552 1964.15,233.527 1966.15,227.716 1968.14,227.469 1970.13,234.952 1972.12,236.122 1974.12,228.206 1976.11,240.336 1978.1,251.691 1980.1,239.922 1982.09,228.879 1984.08,230.44 1986.08,233.838 1988.07,237.628 1990.06,230.606 1992.06,236.068 1994.05,229.526 1996.04,246.958 1998.04,235.716 2000.03,235.973 2002.02,238.648 2004.02,255.064 2006.01,226.109 2008,226.429 2009.99,247.77 2011.99,236.917 2013.98,227.664 2015.97,234.45 2017.97,227.083 2019.96,237.606 2021.95,234.838 2023.95,223.008 2025.94,253.154 2027.93,239.356 2029.93,249.321 2031.92,237.751 2033.91,240.829 2035.91,243.248 2037.9,230.101 2039.89,235.493 2041.89,224.705 2043.88,239.767 2045.87,245.498 2047.86,237.571 2049.86,236.531 2051.85,241.852 2053.84,227.348 2055.84,239.266 2057.83,243.023 2059.82,237.058 2061.82,228.765 2063.81,241.405 2065.8,232.095 2067.8,225.809 2069.79,251.079 2071.78,234.871 2073.78,225.145 2075.77,244.514 2077.76,232.19 2079.75,227.985 2081.75,233.293 2083.74,230.002 2085.73,245.055 2087.73,226.018 2089.72,242.949 2091.71,229.109 2093.71,239.895 2095.7,233.386 2097.69,230.86 2099.69,237.086 2101.68,236.099 2103.67,240.811 2105.67,236.897 2107.66,233.595 2109.65,241.984 2111.65,244.54 2113.64,246.974 2115.63,237.608 2117.62,243.945 2119.62,231.018 2121.61,240.127 2123.6,234.601 2125.6,242.85 2127.59,228.512 2129.58,246.987 2131.58,258.834 2133.57,225.321 2135.56,248.122 2137.56,232.527 2139.55,243.924 2141.54,223.636 2143.54,231.546 2145.53,231.237 2147.52,240.049 2149.51,230.85 2151.51,236.046 2153.5,224.665 2155.49,243.037 2157.49,233.558 2159.48,234.594 2161.47,240.609 2163.47,227.792 2165.46,223.847 2167.45,238.229 2169.45,226.46 2171.44,265.941 2173.43,246.322 2175.43,235.115 2177.42,239.575 2179.41,236.761 2181.41,241.029 2183.4,239.529 2185.39,230.455 2187.38,228.449 2189.38,225.232 2191.37,231.937 2193.36,233.067 2195.36,272.957 2197.35,235.919 2199.34,243.442 2201.34,222.386 2203.33,230.095 2205.32,231.614 2207.32,233.629 2209.31,237.408 2211.3,235.298 2213.3,231.627 2215.29,237.816 2217.28,230.618 2219.27,231.173 2221.27,234.159 2223.26,227.802 2225.25,229.141 2227.25,226.436 2229.24,240.868 2231.23,240.923 2233.23,224.7 2235.22,225.403 2237.21,244.323 2239.21,239.006 2241.2,260.317 2243.19,234.828 2245.19,241.325 2247.18,236.161 2249.17,242.881 2251.17,245.963 2253.16,234.232 2255.15,240.433 2257.14,240.679 2259.14,240.409 2261.13,229.453 2263.12,229.201 2265.12,246.069 2267.11,240.645 2269.1,240.201 2271.1,223.373 2273.09,235.612 2275.08,244.076 2277.08,239.36 2279.07,257.104 2281.06,237.931 2283.06,236.524 2285.05,227.273 2287.04,242.267 2289.04,235.449 2291.03,250.25 2293.02,221.807 "/>
<path clip-path="url(#clip490)" d="M1736.78 1377.32 L2282.4 1377.32 L2282.4 1221.8 L1736.78 1221.8  Z" fill="#ffffff" fill-rule="evenodd" fill-opacity="1"/>
<polyline clip-path="url(#clip490)" style="stroke:#000000; stroke-linecap:round; stroke-linejoin:round; stroke-width:4; stroke-opacity:1; fill:none" points="1736.78,1377.32 2282.4,1377.32 2282.4,1221.8 1736.78,1221.8 1736.78,1377.32 "/>
<polyline clip-path="url(#clip490)" style="stroke:#009af9; stroke-linecap:round; stroke-linejoin:round; stroke-width:4; stroke-opacity:1; fill:none" points="1760.23,1273.64 1900.94,1273.64 "/>
<path clip-path="url(#clip490)" d="M1929.07 1274.41 L1929.07 1287.07 L1936.57 1287.07 Q1940.34 1287.07 1942.15 1285.52 Q1943.98 1283.95 1943.98 1280.73 Q1943.98 1277.49 1942.15 1275.96 Q1940.34 1274.41 1936.57 1274.41 L1929.07 1274.41 M1929.07 1260.2 L1929.07 1270.61 L1935.99 1270.61 Q1939.42 1270.61 1941.08 1269.34 Q1942.77 1268.05 1942.77 1265.41 Q1942.77 1262.79 1941.08 1261.49 Q1939.42 1260.2 1935.99 1260.2 L1929.07 1260.2 M1924.39 1256.36 L1936.34 1256.36 Q1941.68 1256.36 1944.58 1258.58 Q1947.47 1260.8 1947.47 1264.9 Q1947.47 1268.07 1945.99 1269.94 Q1944.51 1271.82 1941.64 1272.28 Q1945.09 1273.02 1946.98 1275.38 Q1948.91 1277.72 1948.91 1281.24 Q1948.91 1285.87 1945.76 1288.39 Q1942.61 1290.92 1936.8 1290.92 L1924.39 1290.92 L1924.39 1256.36 Z" fill="#000000" fill-rule="nonzero" fill-opacity="1" /><path clip-path="url(#clip490)" d="M1961.59 1274.41 L1961.59 1287.07 L1969.09 1287.07 Q1972.86 1287.07 1974.67 1285.52 Q1976.5 1283.95 1976.5 1280.73 Q1976.5 1277.49 1974.67 1275.96 Q1972.86 1274.41 1969.09 1274.41 L1961.59 1274.41 M1961.59 1260.2 L1961.59 1270.61 L1968.51 1270.61 Q1971.94 1270.61 1973.6 1269.34 Q1975.29 1268.05 1975.29 1265.41 Q1975.29 1262.79 1973.6 1261.49 Q1971.94 1260.2 1968.51 1260.2 L1961.59 1260.2 M1956.92 1256.36 L1968.86 1256.36 Q1974.21 1256.36 1977.1 1258.58 Q1979.99 1260.8 1979.99 1264.9 Q1979.99 1268.07 1978.51 1269.94 Q1977.03 1271.82 1974.16 1272.28 Q1977.61 1273.02 1979.51 1275.38 Q1981.43 1277.72 1981.43 1281.24 Q1981.43 1285.87 1978.28 1288.39 Q1975.13 1290.92 1969.32 1290.92 L1956.92 1290.92 L1956.92 1256.36 Z" fill="#000000" fill-rule="nonzero" fill-opacity="1" /><path clip-path="url(#clip490)" d="M1996.89 1290.92 L1983.7 1256.36 L1988.58 1256.36 L1999.53 1285.45 L2010.5 1256.36 L2015.36 1256.36 L2002.19 1290.92 L1996.89 1290.92 Z" fill="#000000" fill-rule="nonzero" fill-opacity="1" /><path clip-path="url(#clip490)" d="M2020.41 1256.36 L2025.09 1256.36 L2025.09 1290.92 L2020.41 1290.92 L2020.41 1256.36 Z" fill="#000000" fill-rule="nonzero" fill-opacity="1" /><path clip-path="url(#clip490)" d="M2075.34 1259.02 L2075.34 1263.95 Q2072.98 1261.75 2070.29 1260.66 Q2067.63 1259.57 2064.62 1259.57 Q2058.7 1259.57 2055.55 1263.21 Q2052.4 1266.82 2052.4 1273.67 Q2052.4 1280.5 2055.55 1284.13 Q2058.7 1287.74 2064.62 1287.74 Q2067.63 1287.74 2070.29 1286.66 Q2072.98 1285.57 2075.34 1283.37 L2075.34 1288.25 Q2072.89 1289.92 2070.13 1290.75 Q2067.4 1291.59 2064.35 1291.59 Q2056.5 1291.59 2051.98 1286.79 Q2047.47 1281.98 2047.47 1273.67 Q2047.47 1265.34 2051.98 1260.55 Q2056.5 1255.73 2064.35 1255.73 Q2067.45 1255.73 2070.18 1256.56 Q2072.93 1257.37 2075.34 1259.02 Z" fill="#000000" fill-rule="nonzero" fill-opacity="1" /><path clip-path="url(#clip490)" d="M2082.56 1256.36 L2102.42 1256.36 L2102.42 1260.29 L2087.24 1260.29 L2087.24 1270.48 L2100.94 1270.48 L2100.94 1274.41 L2087.24 1274.41 L2087.24 1290.92 L2082.56 1290.92 L2082.56 1256.36 Z" fill="#000000" fill-rule="nonzero" fill-opacity="1" /><path clip-path="url(#clip490)" d="M2109.83 1256.36 L2131.68 1256.36 L2131.68 1260.29 L2114.51 1260.29 L2114.51 1270.52 L2130.97 1270.52 L2130.97 1274.46 L2114.51 1274.46 L2114.51 1286.98 L2132.1 1286.98 L2132.1 1290.92 L2109.83 1290.92 L2109.83 1256.36 Z" fill="#000000" fill-rule="nonzero" fill-opacity="1" /><polyline clip-path="url(#clip490)" style="stroke:#e26f46; stroke-linecap:round; stroke-linejoin:round; stroke-width:4; stroke-opacity:1; fill:none" points="1760.23,1325.48 1900.94,1325.48 "/>
<path clip-path="url(#clip490)" d="M1929.07 1326.25 L1929.07 1338.91 L1936.57 1338.91 Q1940.34 1338.91 1942.15 1337.36 Q1943.98 1335.79 1943.98 1332.57 Q1943.98 1329.33 1942.15 1327.8 Q1940.34 1326.25 1936.57 1326.25 L1929.07 1326.25 M1929.07 1312.04 L1929.07 1322.45 L1935.99 1322.45 Q1939.42 1322.45 1941.08 1321.18 Q1942.77 1319.89 1942.77 1317.25 Q1942.77 1314.63 1941.08 1313.33 Q1939.42 1312.04 1935.99 1312.04 L1929.07 1312.04 M1924.39 1308.2 L1936.34 1308.2 Q1941.68 1308.2 1944.58 1310.42 Q1947.47 1312.64 1947.47 1316.74 Q1947.47 1319.91 1945.99 1321.78 Q1944.51 1323.66 1941.64 1324.12 Q1945.09 1324.86 1946.98 1327.22 Q1948.91 1329.56 1948.91 1333.08 Q1948.91 1337.71 1945.76 1340.23 Q1942.61 1342.76 1936.8 1342.76 L1924.39 1342.76 L1924.39 1308.2 Z" fill="#000000" fill-rule="nonzero" fill-opacity="1" /><path clip-path="url(#clip490)" d="M1961.59 1326.25 L1961.59 1338.91 L1969.09 1338.91 Q1972.86 1338.91 1974.67 1337.36 Q1976.5 1335.79 1976.5 1332.57 Q1976.5 1329.33 1974.67 1327.8 Q1972.86 1326.25 1969.09 1326.25 L1961.59 1326.25 M1961.59 1312.04 L1961.59 1322.45 L1968.51 1322.45 Q1971.94 1322.45 1973.6 1321.18 Q1975.29 1319.89 1975.29 1317.25 Q1975.29 1314.63 1973.6 1313.33 Q1971.94 1312.04 1968.51 1312.04 L1961.59 1312.04 M1956.92 1308.2 L1968.86 1308.2 Q1974.21 1308.2 1977.1 1310.42 Q1979.99 1312.64 1979.99 1316.74 Q1979.99 1319.91 1978.51 1321.78 Q1977.03 1323.66 1974.16 1324.12 Q1977.61 1324.86 1979.51 1327.22 Q1981.43 1329.56 1981.43 1333.08 Q1981.43 1337.71 1978.28 1340.23 Q1975.13 1342.76 1969.32 1342.76 L1956.92 1342.76 L1956.92 1308.2 Z" fill="#000000" fill-rule="nonzero" fill-opacity="1" /><path clip-path="url(#clip490)" d="M1996.89 1342.76 L1983.7 1308.2 L1988.58 1308.2 L1999.53 1337.29 L2010.5 1308.2 L2015.36 1308.2 L2002.19 1342.76 L1996.89 1342.76 Z" fill="#000000" fill-rule="nonzero" fill-opacity="1" /><path clip-path="url(#clip490)" d="M2020.41 1308.2 L2025.09 1308.2 L2025.09 1342.76 L2020.41 1342.76 L2020.41 1308.2 Z" fill="#000000" fill-rule="nonzero" fill-opacity="1" /><path clip-path="url(#clip490)" d="M2075.34 1310.86 L2075.34 1315.79 Q2072.98 1313.59 2070.29 1312.5 Q2067.63 1311.41 2064.62 1311.41 Q2058.7 1311.41 2055.55 1315.05 Q2052.4 1318.66 2052.4 1325.51 Q2052.4 1332.34 2055.55 1335.97 Q2058.7 1339.58 2064.62 1339.58 Q2067.63 1339.58 2070.29 1338.5 Q2072.98 1337.41 2075.34 1335.21 L2075.34 1340.09 Q2072.89 1341.76 2070.13 1342.59 Q2067.4 1343.43 2064.35 1343.43 Q2056.5 1343.43 2051.98 1338.63 Q2047.47 1333.82 2047.47 1325.51 Q2047.47 1317.18 2051.98 1312.39 Q2056.5 1307.57 2064.35 1307.57 Q2067.45 1307.57 2070.18 1308.4 Q2072.93 1309.21 2075.34 1310.86 Z" fill="#000000" fill-rule="nonzero" fill-opacity="1" /><path clip-path="url(#clip490)" d="M2082.56 1308.2 L2102.42 1308.2 L2102.42 1312.13 L2087.24 1312.13 L2087.24 1322.32 L2100.94 1322.32 L2100.94 1326.25 L2087.24 1326.25 L2087.24 1342.76 L2082.56 1342.76 L2082.56 1308.2 Z" fill="#000000" fill-rule="nonzero" fill-opacity="1" /><path clip-path="url(#clip490)" d="M2109.83 1308.2 L2131.68 1308.2 L2131.68 1312.13 L2114.51 1312.13 L2114.51 1322.36 L2130.97 1322.36 L2130.97 1326.3 L2114.51 1326.3 L2114.51 1338.82 L2132.1 1338.82 L2132.1 1342.76 L2109.83 1342.76 L2109.83 1308.2 Z" fill="#000000" fill-rule="nonzero" fill-opacity="1" /><path clip-path="url(#clip490)" d="M2168.88 1311.37 Q2163.79 1311.37 2160.78 1315.16 Q2157.79 1318.96 2157.79 1325.51 Q2157.79 1332.04 2160.78 1335.83 Q2163.79 1339.63 2168.88 1339.63 Q2173.97 1339.63 2176.94 1335.83 Q2179.92 1332.04 2179.92 1325.51 Q2179.92 1318.96 2176.94 1315.16 Q2173.97 1311.37 2168.88 1311.37 M2175.43 1342.13 L2181.59 1348.87 L2175.94 1348.87 L2170.83 1343.33 Q2170.06 1343.38 2169.65 1343.4 Q2169.25 1343.43 2168.88 1343.43 Q2161.59 1343.43 2157.21 1338.57 Q2152.86 1333.68 2152.86 1325.51 Q2152.86 1317.32 2157.21 1312.45 Q2161.59 1307.57 2168.88 1307.57 Q2176.15 1307.57 2180.5 1312.45 Q2184.85 1317.32 2184.85 1325.51 Q2184.85 1331.53 2182.42 1335.81 Q2180.02 1340.09 2175.43 1342.13 Z" fill="#000000" fill-rule="nonzero" fill-opacity="1" /><path clip-path="url(#clip490)" d="M2192.17 1308.2 L2199.14 1308.2 L2207.96 1331.71 L2216.82 1308.2 L2223.79 1308.2 L2223.79 1342.76 L2219.23 1342.76 L2219.23 1312.41 L2210.32 1336.11 L2205.62 1336.11 L2196.71 1312.41 L2196.71 1342.76 L2192.17 1342.76 L2192.17 1308.2 Z" fill="#000000" fill-rule="nonzero" fill-opacity="1" /><path clip-path="url(#clip490)" d="M2258.95 1310.86 L2258.95 1315.79 Q2256.59 1313.59 2253.9 1312.5 Q2251.24 1311.41 2248.23 1311.41 Q2242.31 1311.41 2239.16 1315.05 Q2236.01 1318.66 2236.01 1325.51 Q2236.01 1332.34 2239.16 1335.97 Q2242.31 1339.58 2248.23 1339.58 Q2251.24 1339.58 2253.9 1338.5 Q2256.59 1337.41 2258.95 1335.21 L2258.95 1340.09 Q2256.5 1341.76 2253.74 1342.59 Q2251.01 1343.43 2247.96 1343.43 Q2240.11 1343.43 2235.59 1338.63 Q2231.08 1333.82 2231.08 1325.51 Q2231.08 1317.18 2235.59 1312.39 Q2240.11 1307.57 2247.96 1307.57 Q2251.06 1307.57 2253.79 1308.4 Q2256.54 1309.21 2258.95 1310.86 Z" fill="#000000" fill-rule="nonzero" fill-opacity="1" /></svg>
