<?xml version="1.0" encoding="utf-8"?>
<svg xmlns="http://www.w3.org/2000/svg" xmlns:xlink="http://www.w3.org/1999/xlink" width="600" height="400" viewBox="0 0 2400 1600">
<defs>
  <clipPath id="clip140">
    <rect x="0" y="0" width="2400" height="1600"/>
  </clipPath>
</defs>
<path clip-path="url(#clip140)" d="M0 1600 L2400 1600 L2400 0 L0 0  Z" fill="#ffffff" fill-rule="evenodd" fill-opacity="1"/>
<defs>
  <clipPath id="clip141">
    <rect x="332" y="47" width="2021" height="1377"/>
  </clipPath>
</defs>
<path clip-path="url(#clip140)" d="M332.62 1423.18 L2352.76 1423.18 L2352.76 47.2441 L332.62 47.2441  Z" fill="#ffffff" fill-rule="evenodd" fill-opacity="1"/>
<polyline clip-path="url(#clip141)" style="stroke:#000000; stroke-linecap:round; stroke-linejoin:round; stroke-width:2; stroke-opacity:0.1; fill:none" points="355.093,1423.18 355.093,47.2441 "/>
<polyline clip-path="url(#clip141)" style="stroke:#000000; stroke-linecap:round; stroke-linejoin:round; stroke-width:2; stroke-opacity:0.1; fill:none" points="700.291,1423.18 700.291,47.2441 "/>
<polyline clip-path="url(#clip141)" style="stroke:#000000; stroke-linecap:round; stroke-linejoin:round; stroke-width:2; stroke-opacity:0.1; fill:none" points="1045.49,1423.18 1045.49,47.2441 "/>
<polyline clip-path="url(#clip141)" style="stroke:#000000; stroke-linecap:round; stroke-linejoin:round; stroke-width:2; stroke-opacity:0.1; fill:none" points="1390.69,1423.18 1390.69,47.2441 "/>
<polyline clip-path="url(#clip141)" style="stroke:#000000; stroke-linecap:round; stroke-linejoin:round; stroke-width:2; stroke-opacity:0.1; fill:none" points="1735.89,1423.18 1735.89,47.2441 "/>
<polyline clip-path="url(#clip141)" style="stroke:#000000; stroke-linecap:round; stroke-linejoin:round; stroke-width:2; stroke-opacity:0.1; fill:none" points="2081.08,1423.18 2081.08,47.2441 "/>
<polyline clip-path="url(#clip141)" style="stroke:#000000; stroke-linecap:round; stroke-linejoin:round; stroke-width:2; stroke-opacity:0.1; fill:none" points="332.62,1213.92 2352.76,1213.92 "/>
<polyline clip-path="url(#clip141)" style="stroke:#000000; stroke-linecap:round; stroke-linejoin:round; stroke-width:2; stroke-opacity:0.1; fill:none" points="332.62,861.601 2352.76,861.601 "/>
<polyline clip-path="url(#clip141)" style="stroke:#000000; stroke-linecap:round; stroke-linejoin:round; stroke-width:2; stroke-opacity:0.1; fill:none" points="332.62,509.279 2352.76,509.279 "/>
<polyline clip-path="url(#clip141)" style="stroke:#000000; stroke-linecap:round; stroke-linejoin:round; stroke-width:2; stroke-opacity:0.1; fill:none" points="332.62,156.957 2352.76,156.957 "/>
<polyline clip-path="url(#clip140)" style="stroke:#000000; stroke-linecap:round; stroke-linejoin:round; stroke-width:4; stroke-opacity:1; fill:none" points="332.62,1423.18 2352.76,1423.18 "/>
<polyline clip-path="url(#clip140)" style="stroke:#000000; stroke-linecap:round; stroke-linejoin:round; stroke-width:4; stroke-opacity:1; fill:none" points="355.093,1423.18 355.093,1404.28 "/>
<polyline clip-path="url(#clip140)" style="stroke:#000000; stroke-linecap:round; stroke-linejoin:round; stroke-width:4; stroke-opacity:1; fill:none" points="700.291,1423.18 700.291,1404.28 "/>
<polyline clip-path="url(#clip140)" style="stroke:#000000; stroke-linecap:round; stroke-linejoin:round; stroke-width:4; stroke-opacity:1; fill:none" points="1045.49,1423.18 1045.49,1404.28 "/>
<polyline clip-path="url(#clip140)" style="stroke:#000000; stroke-linecap:round; stroke-linejoin:round; stroke-width:4; stroke-opacity:1; fill:none" points="1390.69,1423.18 1390.69,1404.28 "/>
<polyline clip-path="url(#clip140)" style="stroke:#000000; stroke-linecap:round; stroke-linejoin:round; stroke-width:4; stroke-opacity:1; fill:none" points="1735.89,1423.18 1735.89,1404.28 "/>
<polyline clip-path="url(#clip140)" style="stroke:#000000; stroke-linecap:round; stroke-linejoin:round; stroke-width:4; stroke-opacity:1; fill:none" points="2081.08,1423.18 2081.08,1404.28 "/>
<path clip-path="url(#clip140)" d="M355.093 1454.1 Q351.481 1454.1 349.653 1457.66 Q347.847 1461.2 347.847 1468.33 Q347.847 1475.44 349.653 1479.01 Q351.481 1482.55 355.093 1482.55 Q358.727 1482.55 360.532 1479.01 Q362.361 1475.44 362.361 1468.33 Q362.361 1461.2 360.532 1457.66 Q358.727 1454.1 355.093 1454.1 M355.093 1450.39 Q360.903 1450.39 363.958 1455 Q367.037 1459.58 367.037 1468.33 Q367.037 1477.06 363.958 1481.67 Q360.903 1486.25 355.093 1486.25 Q349.282 1486.25 346.204 1481.67 Q343.148 1477.06 343.148 1468.33 Q343.148 1459.58 346.204 1455 Q349.282 1450.39 355.093 1450.39 Z" fill="#000000" fill-rule="nonzero" fill-opacity="1" /><path clip-path="url(#clip140)" d="M690.569 1451.02 L708.925 1451.02 L708.925 1454.96 L694.851 1454.96 L694.851 1463.43 Q695.87 1463.08 696.888 1462.92 Q697.907 1462.73 698.925 1462.73 Q704.712 1462.73 708.092 1465.9 Q711.471 1469.08 711.471 1474.49 Q711.471 1480.07 707.999 1483.17 Q704.527 1486.25 698.208 1486.25 Q696.032 1486.25 693.763 1485.88 Q691.518 1485.51 689.11 1484.77 L689.11 1480.07 Q691.194 1481.2 693.416 1481.76 Q695.638 1482.32 698.115 1482.32 Q702.12 1482.32 704.458 1480.21 Q706.795 1478.1 706.795 1474.49 Q706.795 1470.88 704.458 1468.77 Q702.12 1466.67 698.115 1466.67 Q696.24 1466.67 694.365 1467.08 Q692.513 1467.5 690.569 1468.38 L690.569 1451.02 Z" fill="#000000" fill-rule="nonzero" fill-opacity="1" /><path clip-path="url(#clip140)" d="M1020.18 1481.64 L1027.82 1481.64 L1027.82 1455.28 L1019.51 1456.95 L1019.51 1452.69 L1027.77 1451.02 L1032.45 1451.02 L1032.45 1481.64 L1040.08 1481.64 L1040.08 1485.58 L1020.18 1485.58 L1020.18 1481.64 Z" fill="#000000" fill-rule="nonzero" fill-opacity="1" /><path clip-path="url(#clip140)" d="M1059.53 1454.1 Q1055.92 1454.1 1054.09 1457.66 Q1052.28 1461.2 1052.28 1468.33 Q1052.28 1475.44 1054.09 1479.01 Q1055.92 1482.55 1059.53 1482.55 Q1063.16 1482.55 1064.97 1479.01 Q1066.8 1475.44 1066.8 1468.33 Q1066.8 1461.2 1064.97 1457.66 Q1063.16 1454.1 1059.53 1454.1 M1059.53 1450.39 Q1065.34 1450.39 1068.39 1455 Q1071.47 1459.58 1071.47 1468.33 Q1071.47 1477.06 1068.39 1481.67 Q1065.34 1486.25 1059.53 1486.25 Q1053.72 1486.25 1050.64 1481.67 Q1047.58 1477.06 1047.58 1468.33 Q1047.58 1459.58 1050.64 1455 Q1053.72 1450.39 1059.53 1450.39 Z" fill="#000000" fill-rule="nonzero" fill-opacity="1" /><path clip-path="url(#clip140)" d="M1365.87 1481.64 L1373.51 1481.64 L1373.51 1455.28 L1365.2 1456.95 L1365.2 1452.69 L1373.47 1451.02 L1378.14 1451.02 L1378.14 1481.64 L1385.78 1481.64 L1385.78 1485.58 L1365.87 1485.58 L1365.87 1481.64 Z" fill="#000000" fill-rule="nonzero" fill-opacity="1" /><path clip-path="url(#clip140)" d="M1395.27 1451.02 L1413.63 1451.02 L1413.63 1454.96 L1399.55 1454.96 L1399.55 1463.43 Q1400.57 1463.08 1401.59 1462.92 Q1402.61 1462.73 1403.63 1462.73 Q1409.41 1462.73 1412.79 1465.9 Q1416.17 1469.08 1416.17 1474.49 Q1416.17 1480.07 1412.7 1483.17 Q1409.23 1486.25 1402.91 1486.25 Q1400.73 1486.25 1398.47 1485.88 Q1396.22 1485.51 1393.81 1484.77 L1393.81 1480.07 Q1395.9 1481.2 1398.12 1481.76 Q1400.34 1482.32 1402.82 1482.32 Q1406.82 1482.32 1409.16 1480.21 Q1411.5 1478.1 1411.5 1474.49 Q1411.5 1470.88 1409.16 1468.77 Q1406.82 1466.67 1402.82 1466.67 Q1400.94 1466.67 1399.07 1467.08 Q1397.22 1467.5 1395.27 1468.38 L1395.27 1451.02 Z" fill="#000000" fill-rule="nonzero" fill-opacity="1" /><path clip-path="url(#clip140)" d="M1714.66 1481.64 L1730.98 1481.64 L1730.98 1485.58 L1709.03 1485.58 L1709.03 1481.64 Q1711.7 1478.89 1716.28 1474.26 Q1720.89 1469.61 1722.07 1468.27 Q1724.31 1465.74 1725.19 1464.01 Q1726.09 1462.25 1726.09 1460.56 Q1726.09 1457.8 1724.15 1456.07 Q1722.23 1454.33 1719.13 1454.33 Q1716.93 1454.33 1714.47 1455.09 Q1712.04 1455.86 1709.27 1457.41 L1709.27 1452.69 Q1712.09 1451.55 1714.54 1450.97 Q1717 1450.39 1719.03 1450.39 Q1724.4 1450.39 1727.6 1453.08 Q1730.79 1455.77 1730.79 1460.26 Q1730.79 1462.39 1729.98 1464.31 Q1729.2 1466.2 1727.09 1468.8 Q1726.51 1469.47 1723.41 1472.69 Q1720.31 1475.88 1714.66 1481.64 Z" fill="#000000" fill-rule="nonzero" fill-opacity="1" /><path clip-path="url(#clip140)" d="M1750.79 1454.1 Q1747.18 1454.1 1745.35 1457.66 Q1743.55 1461.2 1743.55 1468.33 Q1743.55 1475.44 1745.35 1479.01 Q1747.18 1482.55 1750.79 1482.55 Q1754.43 1482.55 1756.23 1479.01 Q1758.06 1475.44 1758.06 1468.33 Q1758.06 1461.2 1756.23 1457.66 Q1754.43 1454.1 1750.79 1454.1 M1750.79 1450.39 Q1756.6 1450.39 1759.66 1455 Q1762.74 1459.58 1762.74 1468.33 Q1762.74 1477.06 1759.66 1481.67 Q1756.6 1486.25 1750.79 1486.25 Q1744.98 1486.25 1741.9 1481.67 Q1738.85 1477.06 1738.85 1468.33 Q1738.85 1459.58 1741.9 1455 Q1744.98 1450.39 1750.79 1450.39 Z" fill="#000000" fill-rule="nonzero" fill-opacity="1" /><path clip-path="url(#clip140)" d="M2060.36 1481.64 L2076.67 1481.64 L2076.67 1485.58 L2054.73 1485.58 L2054.73 1481.64 Q2057.39 1478.89 2061.98 1474.26 Q2066.58 1469.61 2067.76 1468.27 Q2070.01 1465.74 2070.89 1464.01 Q2071.79 1462.25 2071.79 1460.56 Q2071.79 1457.8 2069.85 1456.07 Q2067.92 1454.33 2064.82 1454.33 Q2062.62 1454.33 2060.17 1455.09 Q2057.74 1455.86 2054.96 1457.41 L2054.96 1452.69 Q2057.79 1451.55 2060.24 1450.97 Q2062.69 1450.39 2064.73 1450.39 Q2070.1 1450.39 2073.3 1453.08 Q2076.49 1455.77 2076.49 1460.26 Q2076.49 1462.39 2075.68 1464.31 Q2074.89 1466.2 2072.79 1468.8 Q2072.21 1469.47 2069.11 1472.69 Q2066 1475.88 2060.36 1481.64 Z" fill="#000000" fill-rule="nonzero" fill-opacity="1" /><path clip-path="url(#clip140)" d="M2086.54 1451.02 L2104.89 1451.02 L2104.89 1454.96 L2090.82 1454.96 L2090.82 1463.43 Q2091.84 1463.08 2092.86 1462.92 Q2093.87 1462.73 2094.89 1462.73 Q2100.68 1462.73 2104.06 1465.9 Q2107.44 1469.08 2107.44 1474.49 Q2107.44 1480.07 2103.97 1483.17 Q2100.49 1486.25 2094.17 1486.25 Q2092 1486.25 2089.73 1485.88 Q2087.48 1485.51 2085.08 1484.77 L2085.08 1480.07 Q2087.16 1481.2 2089.38 1481.76 Q2091.61 1482.32 2094.08 1482.32 Q2098.09 1482.32 2100.42 1480.21 Q2102.76 1478.1 2102.76 1474.49 Q2102.76 1470.88 2100.42 1468.77 Q2098.09 1466.67 2094.08 1466.67 Q2092.21 1466.67 2090.33 1467.08 Q2088.48 1467.5 2086.54 1468.38 L2086.54 1451.02 Z" fill="#000000" fill-rule="nonzero" fill-opacity="1" /><path clip-path="url(#clip140)" d="M1013.77 1520.52 L1020.27 1520.52 L1030.26 1560.69 L1040.22 1520.52 L1047.45 1520.52 L1057.44 1560.69 L1067.4 1520.52 L1073.93 1520.52 L1061.99 1568.04 L1053.91 1568.04 L1043.88 1526.79 L1033.76 1568.04 L1025.68 1568.04 L1013.77 1520.52 Z" fill="#000000" fill-rule="nonzero" fill-opacity="1" /><path clip-path="url(#clip140)" d="M1094.23 1550.12 Q1087.14 1550.12 1084.4 1551.75 Q1081.66 1553.37 1081.66 1557.29 Q1081.66 1560.4 1083.7 1562.25 Q1085.77 1564.07 1089.3 1564.07 Q1094.17 1564.07 1097.1 1560.63 Q1100.06 1557.16 1100.06 1551.43 L1100.06 1550.12 L1094.23 1550.12 M1105.92 1547.71 L1105.92 1568.04 L1100.06 1568.04 L1100.06 1562.63 Q1098.05 1565.88 1095.06 1567.44 Q1092.07 1568.97 1087.74 1568.97 Q1082.27 1568.97 1079.02 1565.91 Q1075.81 1562.82 1075.81 1557.67 Q1075.81 1551.65 1079.82 1548.6 Q1083.86 1545.54 1091.85 1545.54 L1100.06 1545.54 L1100.06 1544.97 Q1100.06 1540.93 1097.39 1538.73 Q1094.74 1536.5 1089.94 1536.5 Q1086.88 1536.5 1083.99 1537.23 Q1081.09 1537.97 1078.42 1539.43 L1078.42 1534.02 Q1081.63 1532.78 1084.65 1532.17 Q1087.68 1531.54 1090.54 1531.54 Q1098.28 1531.54 1102.1 1535.55 Q1105.92 1539.56 1105.92 1547.71 Z" fill="#000000" fill-rule="nonzero" fill-opacity="1" /><path clip-path="url(#clip140)" d="M1117.98 1518.52 L1123.84 1518.52 L1123.84 1568.04 L1117.98 1568.04 L1117.98 1518.52 Z" fill="#000000" fill-rule="nonzero" fill-opacity="1" /><path clip-path="url(#clip140)" d="M1136.09 1518.52 L1141.95 1518.52 L1141.95 1568.04 L1136.09 1568.04 L1136.09 1518.52 Z" fill="#000000" fill-rule="nonzero" fill-opacity="1" /><path clip-path="url(#clip140)" d="M1179.85 1533.76 L1179.85 1539.24 Q1177.37 1537.87 1174.86 1537.2 Q1172.37 1536.5 1169.83 1536.5 Q1164.13 1536.5 1160.98 1540.13 Q1157.83 1543.73 1157.83 1550.25 Q1157.83 1556.78 1160.98 1560.4 Q1164.13 1564 1169.83 1564 Q1172.37 1564 1174.86 1563.33 Q1177.37 1562.63 1179.85 1561.26 L1179.85 1566.68 Q1177.4 1567.82 1174.76 1568.39 Q1172.15 1568.97 1169.19 1568.97 Q1161.14 1568.97 1156.4 1563.91 Q1151.65 1558.85 1151.65 1550.25 Q1151.65 1541.53 1156.43 1536.53 Q1161.23 1531.54 1169.57 1531.54 Q1172.28 1531.54 1174.86 1532.11 Q1177.43 1532.65 1179.85 1533.76 Z" fill="#000000" fill-rule="nonzero" fill-opacity="1" /><path clip-path="url(#clip140)" d="M1190.04 1518.52 L1195.89 1518.52 L1195.89 1568.04 L1190.04 1568.04 L1190.04 1518.52 Z" fill="#000000" fill-rule="nonzero" fill-opacity="1" /><path clip-path="url(#clip140)" d="M1221.96 1536.5 Q1217.25 1536.5 1214.51 1540.19 Q1211.78 1543.85 1211.78 1550.25 Q1211.78 1556.65 1214.48 1560.34 Q1217.22 1564 1221.96 1564 Q1226.64 1564 1229.38 1560.31 Q1232.12 1556.62 1232.12 1550.25 Q1232.12 1543.92 1229.38 1540.23 Q1226.64 1536.5 1221.96 1536.5 M1221.96 1531.54 Q1229.6 1531.54 1233.96 1536.5 Q1238.32 1541.47 1238.32 1550.25 Q1238.32 1559 1233.96 1564 Q1229.6 1568.97 1221.96 1568.97 Q1214.29 1568.97 1209.93 1564 Q1205.6 1559 1205.6 1550.25 Q1205.6 1541.47 1209.93 1536.5 Q1214.29 1531.54 1221.96 1531.54 Z" fill="#000000" fill-rule="nonzero" fill-opacity="1" /><path clip-path="url(#clip140)" d="M1273.68 1533.76 L1273.68 1539.24 Q1271.2 1537.87 1268.69 1537.2 Q1266.2 1536.5 1263.66 1536.5 Q1257.96 1536.5 1254.81 1540.13 Q1251.66 1543.73 1251.66 1550.25 Q1251.66 1556.78 1254.81 1560.4 Q1257.96 1564 1263.66 1564 Q1266.2 1564 1268.69 1563.33 Q1271.2 1562.63 1273.68 1561.26 L1273.68 1566.68 Q1271.23 1567.82 1268.59 1568.39 Q1265.98 1568.97 1263.02 1568.97 Q1254.97 1568.97 1250.23 1563.91 Q1245.48 1558.85 1245.48 1550.25 Q1245.48 1541.53 1250.26 1536.53 Q1255.06 1531.54 1263.4 1531.54 Q1266.11 1531.54 1268.69 1532.11 Q1271.26 1532.65 1273.68 1533.76 Z" fill="#000000" fill-rule="nonzero" fill-opacity="1" /><path clip-path="url(#clip140)" d="M1283.65 1518.52 L1289.53 1518.52 L1289.53 1547.77 L1307.01 1532.4 L1314.49 1532.4 L1295.58 1549.07 L1315.28 1568.04 L1307.64 1568.04 L1289.53 1550.63 L1289.53 1568.04 L1283.65 1568.04 L1283.65 1518.52 Z" fill="#000000" fill-rule="nonzero" fill-opacity="1" /><path clip-path="url(#clip140)" d="M1336 1520.52 L1376.2 1520.52 L1376.2 1525.93 L1359.33 1525.93 L1359.33 1568.04 L1352.87 1568.04 L1352.87 1525.93 L1336 1525.93 L1336 1520.52 Z" fill="#000000" fill-rule="nonzero" fill-opacity="1" /><path clip-path="url(#clip140)" d="M1380.15 1532.4 L1386.01 1532.4 L1386.01 1568.04 L1380.15 1568.04 L1380.15 1532.4 M1380.15 1518.52 L1386.01 1518.52 L1386.01 1525.93 L1380.15 1525.93 L1380.15 1518.52 Z" fill="#000000" fill-rule="nonzero" fill-opacity="1" /><path clip-path="url(#clip140)" d="M1426.02 1539.24 Q1428.21 1535.29 1431.27 1533.41 Q1434.32 1531.54 1438.46 1531.54 Q1444.03 1531.54 1447.05 1535.45 Q1450.08 1539.33 1450.08 1546.53 L1450.08 1568.04 L1444.19 1568.04 L1444.19 1546.72 Q1444.19 1541.59 1442.38 1539.11 Q1440.56 1536.63 1436.84 1536.63 Q1432.29 1536.63 1429.64 1539.65 Q1427 1542.68 1427 1547.9 L1427 1568.04 L1421.11 1568.04 L1421.11 1546.72 Q1421.11 1541.56 1419.3 1539.11 Q1417.49 1536.63 1413.7 1536.63 Q1409.21 1536.63 1406.57 1539.68 Q1403.93 1542.71 1403.93 1547.9 L1403.93 1568.04 L1398.04 1568.04 L1398.04 1532.4 L1403.93 1532.4 L1403.93 1537.93 Q1405.93 1534.66 1408.73 1533.1 Q1411.53 1531.54 1415.38 1531.54 Q1419.27 1531.54 1421.97 1533.51 Q1424.71 1535.48 1426.02 1539.24 Z" fill="#000000" fill-rule="nonzero" fill-opacity="1" /><path clip-path="url(#clip140)" d="M1492.25 1548.76 L1492.25 1551.62 L1465.32 1551.62 Q1465.71 1557.67 1468.95 1560.85 Q1472.23 1564 1478.05 1564 Q1481.43 1564 1484.58 1563.17 Q1487.76 1562.35 1490.88 1560.69 L1490.88 1566.23 Q1487.73 1567.57 1484.42 1568.27 Q1481.11 1568.97 1477.7 1568.97 Q1469.17 1568.97 1464.18 1564 Q1459.21 1559.04 1459.21 1550.57 Q1459.21 1541.82 1463.92 1536.69 Q1468.67 1531.54 1476.69 1531.54 Q1483.88 1531.54 1488.05 1536.18 Q1492.25 1540.8 1492.25 1548.76 M1486.39 1547.04 Q1486.33 1542.23 1483.69 1539.37 Q1481.08 1536.5 1476.75 1536.5 Q1471.85 1536.5 1468.89 1539.27 Q1465.96 1542.04 1465.51 1547.07 L1486.39 1547.04 Z" fill="#000000" fill-rule="nonzero" fill-opacity="1" /><path clip-path="url(#clip140)" d="M1536.65 1518.58 Q1532.39 1525.9 1530.32 1533.06 Q1528.25 1540.23 1528.25 1547.58 Q1528.25 1554.93 1530.32 1562.16 Q1532.42 1569.35 1536.65 1576.64 L1531.56 1576.64 Q1526.78 1569.16 1524.4 1561.93 Q1522.04 1554.71 1522.04 1547.58 Q1522.04 1540.48 1524.4 1533.29 Q1526.75 1526.09 1531.56 1518.58 L1536.65 1518.58 Z" fill="#000000" fill-rule="nonzero" fill-opacity="1" /><path clip-path="url(#clip140)" d="M1570.74 1533.45 L1570.74 1538.98 Q1568.26 1537.71 1565.58 1537.07 Q1562.91 1536.44 1560.05 1536.44 Q1555.68 1536.44 1553.49 1537.77 Q1551.32 1539.11 1551.32 1541.79 Q1551.32 1543.82 1552.88 1545 Q1554.44 1546.15 1559.15 1547.2 L1561.16 1547.64 Q1567.4 1548.98 1570.01 1551.43 Q1572.65 1553.85 1572.65 1558.21 Q1572.65 1563.17 1568.7 1566.07 Q1564.79 1568.97 1557.91 1568.97 Q1555.05 1568.97 1551.93 1568.39 Q1548.84 1567.85 1545.4 1566.74 L1545.4 1560.69 Q1548.65 1562.38 1551.8 1563.24 Q1554.95 1564.07 1558.04 1564.07 Q1562.18 1564.07 1564.41 1562.66 Q1566.63 1561.23 1566.63 1558.65 Q1566.63 1556.27 1565.01 1554.99 Q1563.42 1553.72 1557.98 1552.54 L1555.94 1552.07 Q1550.5 1550.92 1548.08 1548.56 Q1545.66 1546.18 1545.66 1542.04 Q1545.66 1537.01 1549.22 1534.27 Q1552.79 1531.54 1559.34 1531.54 Q1562.59 1531.54 1565.46 1532.01 Q1568.32 1532.49 1570.74 1533.45 Z" fill="#000000" fill-rule="nonzero" fill-opacity="1" /><path clip-path="url(#clip140)" d="M1612.47 1548.76 L1612.47 1551.62 L1585.54 1551.62 Q1585.92 1557.67 1589.17 1560.85 Q1592.45 1564 1598.27 1564 Q1601.65 1564 1604.8 1563.17 Q1607.98 1562.35 1611.1 1560.69 L1611.1 1566.23 Q1607.95 1567.57 1604.64 1568.27 Q1601.33 1568.97 1597.92 1568.97 Q1589.39 1568.97 1584.39 1564 Q1579.43 1559.04 1579.43 1550.57 Q1579.43 1541.82 1584.14 1536.69 Q1588.88 1531.54 1596.9 1531.54 Q1604.1 1531.54 1608.27 1536.18 Q1612.47 1540.8 1612.47 1548.76 M1606.61 1547.04 Q1606.55 1542.23 1603.9 1539.37 Q1601.29 1536.5 1596.97 1536.5 Q1592.06 1536.5 1589.1 1539.27 Q1586.18 1542.04 1585.73 1547.07 L1606.61 1547.04 Z" fill="#000000" fill-rule="nonzero" fill-opacity="1" /><path clip-path="url(#clip140)" d="M1647.73 1533.76 L1647.73 1539.24 Q1645.25 1537.87 1642.74 1537.2 Q1640.25 1536.5 1637.71 1536.5 Q1632.01 1536.5 1628.86 1540.13 Q1625.71 1543.73 1625.71 1550.25 Q1625.71 1556.78 1628.86 1560.4 Q1632.01 1564 1637.71 1564 Q1640.25 1564 1642.74 1563.33 Q1645.25 1562.63 1647.73 1561.26 L1647.73 1566.68 Q1645.28 1567.82 1642.64 1568.39 Q1640.03 1568.97 1637.07 1568.97 Q1629.02 1568.97 1624.28 1563.91 Q1619.53 1558.85 1619.53 1550.25 Q1619.53 1541.53 1624.31 1536.53 Q1629.11 1531.54 1637.45 1531.54 Q1640.16 1531.54 1642.74 1532.11 Q1645.31 1532.65 1647.73 1533.76 Z" fill="#000000" fill-rule="nonzero" fill-opacity="1" /><path clip-path="url(#clip140)" d="M1656.99 1518.58 L1662.09 1518.58 Q1666.86 1526.09 1669.22 1533.29 Q1671.6 1540.48 1671.6 1547.58 Q1671.6 1554.71 1669.22 1561.93 Q1666.86 1569.16 1662.09 1576.64 L1656.99 1576.64 Q1661.23 1569.35 1663.3 1562.16 Q1665.4 1554.93 1665.4 1547.58 Q1665.4 1540.23 1663.3 1533.06 Q1661.23 1525.9 1656.99 1518.58 Z" fill="#000000" fill-rule="nonzero" fill-opacity="1" /><polyline clip-path="url(#clip140)" style="stroke:#000000; stroke-linecap:round; stroke-linejoin:round; stroke-width:4; stroke-opacity:1; fill:none" points="332.62,1423.18 332.62,47.2441 "/>
<polyline clip-path="url(#clip140)" style="stroke:#000000; stroke-linecap:round; stroke-linejoin:round; stroke-width:4; stroke-opacity:1; fill:none" points="332.62,1213.92 351.518,1213.92 "/>
<polyline clip-path="url(#clip140)" style="stroke:#000000; stroke-linecap:round; stroke-linejoin:round; stroke-width:4; stroke-opacity:1; fill:none" points="332.62,861.601 351.518,861.601 "/>
<polyline clip-path="url(#clip140)" style="stroke:#000000; stroke-linecap:round; stroke-linejoin:round; stroke-width:4; stroke-opacity:1; fill:none" points="332.62,509.279 351.518,509.279 "/>
<polyline clip-path="url(#clip140)" style="stroke:#000000; stroke-linecap:round; stroke-linejoin:round; stroke-width:4; stroke-opacity:1; fill:none" points="332.62,156.957 351.518,156.957 "/>
<path clip-path="url(#clip140)" d="M114.26 1214.37 L143.936 1214.37 L143.936 1218.31 L114.26 1218.31 L114.26 1214.37 Z" fill="#000000" fill-rule="nonzero" fill-opacity="1" /><path clip-path="url(#clip140)" d="M154.839 1227.27 L162.477 1227.27 L162.477 1200.9 L154.167 1202.57 L154.167 1198.31 L162.431 1196.64 L167.107 1196.64 L167.107 1227.27 L174.746 1227.27 L174.746 1231.2 L154.839 1231.2 L154.839 1227.27 Z" fill="#000000" fill-rule="nonzero" fill-opacity="1" /><path clip-path="url(#clip140)" d="M188.218 1227.27 L204.537 1227.27 L204.537 1231.2 L182.593 1231.2 L182.593 1227.27 Q185.255 1224.51 189.838 1219.88 Q194.445 1215.23 195.625 1213.89 Q197.871 1211.36 198.75 1209.63 Q199.653 1207.87 199.653 1206.18 Q199.653 1203.42 197.709 1201.69 Q195.787 1199.95 192.686 1199.95 Q190.487 1199.95 188.033 1200.72 Q185.602 1201.48 182.825 1203.03 L182.825 1198.31 Q185.649 1197.17 188.102 1196.6 Q190.556 1196.02 192.593 1196.02 Q197.963 1196.02 201.158 1198.7 Q204.352 1201.39 204.352 1205.88 Q204.352 1208.01 203.542 1209.93 Q202.755 1211.83 200.649 1214.42 Q200.07 1215.09 196.968 1218.31 Q193.866 1221.5 188.218 1227.27 Z" fill="#000000" fill-rule="nonzero" fill-opacity="1" /><path clip-path="url(#clip140)" d="M224.352 1199.72 Q220.741 1199.72 218.912 1203.29 Q217.107 1206.83 217.107 1213.96 Q217.107 1221.06 218.912 1224.63 Q220.741 1228.17 224.352 1228.17 Q227.986 1228.17 229.792 1224.63 Q231.621 1221.06 231.621 1213.96 Q231.621 1206.83 229.792 1203.29 Q227.986 1199.72 224.352 1199.72 M224.352 1196.02 Q230.162 1196.02 233.218 1200.62 Q236.297 1205.21 236.297 1213.96 Q236.297 1222.68 233.218 1227.29 Q230.162 1231.87 224.352 1231.87 Q218.542 1231.87 215.463 1227.29 Q212.408 1222.68 212.408 1213.96 Q212.408 1205.21 215.463 1200.62 Q218.542 1196.02 224.352 1196.02 Z" fill="#000000" fill-rule="nonzero" fill-opacity="1" /><path clip-path="url(#clip140)" d="M254.514 1199.72 Q250.903 1199.72 249.074 1203.29 Q247.269 1206.83 247.269 1213.96 Q247.269 1221.06 249.074 1224.63 Q250.903 1228.17 254.514 1228.17 Q258.148 1228.17 259.954 1224.63 Q261.783 1221.06 261.783 1213.96 Q261.783 1206.83 259.954 1203.29 Q258.148 1199.72 254.514 1199.72 M254.514 1196.02 Q260.324 1196.02 263.38 1200.62 Q266.458 1205.21 266.458 1213.96 Q266.458 1222.68 263.38 1227.29 Q260.324 1231.87 254.514 1231.87 Q248.704 1231.87 245.625 1227.29 Q242.57 1222.68 242.57 1213.96 Q242.57 1205.21 245.625 1200.62 Q248.704 1196.02 254.514 1196.02 Z" fill="#000000" fill-rule="nonzero" fill-opacity="1" /><path clip-path="url(#clip140)" d="M284.676 1199.72 Q281.065 1199.72 279.236 1203.29 Q277.431 1206.83 277.431 1213.96 Q277.431 1221.06 279.236 1224.63 Q281.065 1228.17 284.676 1228.17 Q288.31 1228.17 290.116 1224.63 Q291.944 1221.06 291.944 1213.96 Q291.944 1206.83 290.116 1203.29 Q288.31 1199.72 284.676 1199.72 M284.676 1196.02 Q290.486 1196.02 293.542 1200.62 Q296.62 1205.21 296.62 1213.96 Q296.62 1222.68 293.542 1227.29 Q290.486 1231.87 284.676 1231.87 Q278.866 1231.87 275.787 1227.29 Q272.732 1222.68 272.732 1213.96 Q272.732 1205.21 275.787 1200.62 Q278.866 1196.02 284.676 1196.02 Z" fill="#000000" fill-rule="nonzero" fill-opacity="1" /><path clip-path="url(#clip140)" d="M114.26 862.052 L143.936 862.052 L143.936 865.987 L114.26 865.987 L114.26 862.052 Z" fill="#000000" fill-rule="nonzero" fill-opacity="1" /><path clip-path="url(#clip140)" d="M154.839 874.946 L162.477 874.946 L162.477 848.58 L154.167 850.247 L154.167 845.988 L162.431 844.321 L167.107 844.321 L167.107 874.946 L174.746 874.946 L174.746 878.881 L154.839 878.881 L154.839 874.946 Z" fill="#000000" fill-rule="nonzero" fill-opacity="1" /><path clip-path="url(#clip140)" d="M194.19 847.4 Q190.579 847.4 188.75 850.964 Q186.945 854.506 186.945 861.636 Q186.945 868.742 188.75 872.307 Q190.579 875.848 194.19 875.848 Q197.825 875.848 199.63 872.307 Q201.459 868.742 201.459 861.636 Q201.459 854.506 199.63 850.964 Q197.825 847.4 194.19 847.4 M194.19 843.696 Q200 843.696 203.056 848.302 Q206.135 852.886 206.135 861.636 Q206.135 870.362 203.056 874.969 Q200 879.552 194.19 879.552 Q188.38 879.552 185.301 874.969 Q182.246 870.362 182.246 861.636 Q182.246 852.886 185.301 848.302 Q188.38 843.696 194.19 843.696 Z" fill="#000000" fill-rule="nonzero" fill-opacity="1" /><path clip-path="url(#clip140)" d="M224.352 847.4 Q220.741 847.4 218.912 850.964 Q217.107 854.506 217.107 861.636 Q217.107 868.742 218.912 872.307 Q220.741 875.848 224.352 875.848 Q227.986 875.848 229.792 872.307 Q231.621 868.742 231.621 861.636 Q231.621 854.506 229.792 850.964 Q227.986 847.4 224.352 847.4 M224.352 843.696 Q230.162 843.696 233.218 848.302 Q236.297 852.886 236.297 861.636 Q236.297 870.362 233.218 874.969 Q230.162 879.552 224.352 879.552 Q218.542 879.552 215.463 874.969 Q212.408 870.362 212.408 861.636 Q212.408 852.886 215.463 848.302 Q218.542 843.696 224.352 843.696 Z" fill="#000000" fill-rule="nonzero" fill-opacity="1" /><path clip-path="url(#clip140)" d="M254.514 847.4 Q250.903 847.4 249.074 850.964 Q247.269 854.506 247.269 861.636 Q247.269 868.742 249.074 872.307 Q250.903 875.848 254.514 875.848 Q258.148 875.848 259.954 872.307 Q261.783 868.742 261.783 861.636 Q261.783 854.506 259.954 850.964 Q258.148 847.4 254.514 847.4 M254.514 843.696 Q260.324 843.696 263.38 848.302 Q266.458 852.886 266.458 861.636 Q266.458 870.362 263.38 874.969 Q260.324 879.552 254.514 879.552 Q248.704 879.552 245.625 874.969 Q242.57 870.362 242.57 861.636 Q242.57 852.886 245.625 848.302 Q248.704 843.696 254.514 843.696 Z" fill="#000000" fill-rule="nonzero" fill-opacity="1" /><path clip-path="url(#clip140)" d="M284.676 847.4 Q281.065 847.4 279.236 850.964 Q277.431 854.506 277.431 861.636 Q277.431 868.742 279.236 872.307 Q281.065 875.848 284.676 875.848 Q288.31 875.848 290.116 872.307 Q291.944 868.742 291.944 861.636 Q291.944 854.506 290.116 850.964 Q288.31 847.4 284.676 847.4 M284.676 843.696 Q290.486 843.696 293.542 848.302 Q296.62 852.886 296.62 861.636 Q296.62 870.362 293.542 874.969 Q290.486 879.552 284.676 879.552 Q278.866 879.552 275.787 874.969 Q272.732 870.362 272.732 861.636 Q272.732 852.886 275.787 848.302 Q278.866 843.696 284.676 843.696 Z" fill="#000000" fill-rule="nonzero" fill-opacity="1" /><path clip-path="url(#clip140)" d="M144.422 509.731 L174.098 509.731 L174.098 513.666 L144.422 513.666 L144.422 509.731 Z" fill="#000000" fill-rule="nonzero" fill-opacity="1" /><path clip-path="url(#clip140)" d="M194.19 510.147 Q190.857 510.147 188.936 511.93 Q187.038 513.712 187.038 516.837 Q187.038 519.962 188.936 521.744 Q190.857 523.527 194.19 523.527 Q197.524 523.527 199.445 521.744 Q201.366 519.939 201.366 516.837 Q201.366 513.712 199.445 511.93 Q197.547 510.147 194.19 510.147 M189.514 508.156 Q186.505 507.416 184.815 505.356 Q183.149 503.295 183.149 500.332 Q183.149 496.189 186.088 493.782 Q189.051 491.374 194.19 491.374 Q199.352 491.374 202.292 493.782 Q205.232 496.189 205.232 500.332 Q205.232 503.295 203.542 505.356 Q201.875 507.416 198.889 508.156 Q202.269 508.943 204.144 511.235 Q206.042 513.527 206.042 516.837 Q206.042 521.86 202.963 524.545 Q199.908 527.23 194.19 527.23 Q188.473 527.23 185.394 524.545 Q182.338 521.86 182.338 516.837 Q182.338 513.527 184.237 511.235 Q186.135 508.943 189.514 508.156 M187.801 500.772 Q187.801 503.457 189.468 504.962 Q191.158 506.467 194.19 506.467 Q197.2 506.467 198.889 504.962 Q200.602 503.457 200.602 500.772 Q200.602 498.087 198.889 496.582 Q197.2 495.078 194.19 495.078 Q191.158 495.078 189.468 496.582 Q187.801 498.087 187.801 500.772 Z" fill="#000000" fill-rule="nonzero" fill-opacity="1" /><path clip-path="url(#clip140)" d="M224.352 495.078 Q220.741 495.078 218.912 498.643 Q217.107 502.184 217.107 509.314 Q217.107 516.42 218.912 519.985 Q220.741 523.527 224.352 523.527 Q227.986 523.527 229.792 519.985 Q231.621 516.42 231.621 509.314 Q231.621 502.184 229.792 498.643 Q227.986 495.078 224.352 495.078 M224.352 491.374 Q230.162 491.374 233.218 495.981 Q236.297 500.564 236.297 509.314 Q236.297 518.041 233.218 522.647 Q230.162 527.23 224.352 527.23 Q218.542 527.23 215.463 522.647 Q212.408 518.041 212.408 509.314 Q212.408 500.564 215.463 495.981 Q218.542 491.374 224.352 491.374 Z" fill="#000000" fill-rule="nonzero" fill-opacity="1" /><path clip-path="url(#clip140)" d="M254.514 495.078 Q250.903 495.078 249.074 498.643 Q247.269 502.184 247.269 509.314 Q247.269 516.42 249.074 519.985 Q250.903 523.527 254.514 523.527 Q258.148 523.527 259.954 519.985 Q261.783 516.42 261.783 509.314 Q261.783 502.184 259.954 498.643 Q258.148 495.078 254.514 495.078 M254.514 491.374 Q260.324 491.374 263.38 495.981 Q266.458 500.564 266.458 509.314 Q266.458 518.041 263.38 522.647 Q260.324 527.23 254.514 527.23 Q248.704 527.23 245.625 522.647 Q242.57 518.041 242.57 509.314 Q242.57 500.564 245.625 495.981 Q248.704 491.374 254.514 491.374 Z" fill="#000000" fill-rule="nonzero" fill-opacity="1" /><path clip-path="url(#clip140)" d="M284.676 495.078 Q281.065 495.078 279.236 498.643 Q277.431 502.184 277.431 509.314 Q277.431 516.42 279.236 519.985 Q281.065 523.527 284.676 523.527 Q288.31 523.527 290.116 519.985 Q291.944 516.42 291.944 509.314 Q291.944 502.184 290.116 498.643 Q288.31 495.078 284.676 495.078 M284.676 491.374 Q290.486 491.374 293.542 495.981 Q296.62 500.564 296.62 509.314 Q296.62 518.041 293.542 522.647 Q290.486 527.23 284.676 527.23 Q278.866 527.23 275.787 522.647 Q272.732 518.041 272.732 509.314 Q272.732 500.564 275.787 495.981 Q278.866 491.374 284.676 491.374 Z" fill="#000000" fill-rule="nonzero" fill-opacity="1" /><path clip-path="url(#clip140)" d="M144.422 157.409 L174.098 157.409 L174.098 161.344 L144.422 161.344 L144.422 157.409 Z" fill="#000000" fill-rule="nonzero" fill-opacity="1" /><path clip-path="url(#clip140)" d="M194.769 155.094 Q191.621 155.094 189.769 157.247 Q187.94 159.4 187.94 163.15 Q187.94 166.876 189.769 169.052 Q191.621 171.205 194.769 171.205 Q197.917 171.205 199.746 169.052 Q201.598 166.876 201.598 163.15 Q201.598 159.4 199.746 157.247 Q197.917 155.094 194.769 155.094 M204.051 140.441 L204.051 144.701 Q202.292 143.867 200.487 143.427 Q198.704 142.988 196.945 142.988 Q192.315 142.988 189.862 146.113 Q187.431 149.238 187.084 155.557 Q188.45 153.543 190.51 152.478 Q192.57 151.39 195.047 151.39 Q200.255 151.39 203.264 154.562 Q206.297 157.71 206.297 163.15 Q206.297 168.474 203.149 171.691 Q200 174.909 194.769 174.909 Q188.774 174.909 185.602 170.325 Q182.431 165.719 182.431 156.992 Q182.431 148.798 186.32 143.937 Q190.209 139.052 196.76 139.052 Q198.519 139.052 200.301 139.4 Q202.107 139.747 204.051 140.441 Z" fill="#000000" fill-rule="nonzero" fill-opacity="1" /><path clip-path="url(#clip140)" d="M224.352 142.756 Q220.741 142.756 218.912 146.321 Q217.107 149.863 217.107 156.992 Q217.107 164.099 218.912 167.663 Q220.741 171.205 224.352 171.205 Q227.986 171.205 229.792 167.663 Q231.621 164.099 231.621 156.992 Q231.621 149.863 229.792 146.321 Q227.986 142.756 224.352 142.756 M224.352 139.052 Q230.162 139.052 233.218 143.659 Q236.297 148.242 236.297 156.992 Q236.297 165.719 233.218 170.325 Q230.162 174.909 224.352 174.909 Q218.542 174.909 215.463 170.325 Q212.408 165.719 212.408 156.992 Q212.408 148.242 215.463 143.659 Q218.542 139.052 224.352 139.052 Z" fill="#000000" fill-rule="nonzero" fill-opacity="1" /><path clip-path="url(#clip140)" d="M254.514 142.756 Q250.903 142.756 249.074 146.321 Q247.269 149.863 247.269 156.992 Q247.269 164.099 249.074 167.663 Q250.903 171.205 254.514 171.205 Q258.148 171.205 259.954 167.663 Q261.783 164.099 261.783 156.992 Q261.783 149.863 259.954 146.321 Q258.148 142.756 254.514 142.756 M254.514 139.052 Q260.324 139.052 263.38 143.659 Q266.458 148.242 266.458 156.992 Q266.458 165.719 263.38 170.325 Q260.324 174.909 254.514 174.909 Q248.704 174.909 245.625 170.325 Q242.57 165.719 242.57 156.992 Q242.57 148.242 245.625 143.659 Q248.704 139.052 254.514 139.052 Z" fill="#000000" fill-rule="nonzero" fill-opacity="1" /><path clip-path="url(#clip140)" d="M284.676 142.756 Q281.065 142.756 279.236 146.321 Q277.431 149.863 277.431 156.992 Q277.431 164.099 279.236 167.663 Q281.065 171.205 284.676 171.205 Q288.31 171.205 290.116 167.663 Q291.944 164.099 291.944 156.992 Q291.944 149.863 290.116 146.321 Q288.31 142.756 284.676 142.756 M284.676 139.052 Q290.486 139.052 293.542 143.659 Q296.62 148.242 296.62 156.992 Q296.62 165.719 293.542 170.325 Q290.486 174.909 284.676 174.909 Q278.866 174.909 275.787 170.325 Q272.732 165.719 272.732 156.992 Q272.732 148.242 275.787 143.659 Q278.866 139.052 284.676 139.052 Z" fill="#000000" fill-rule="nonzero" fill-opacity="1" /><path clip-path="url(#clip140)" d="M16.4842 816.375 L16.4842 786.329 L21.895 786.329 L21.895 809.945 L35.9632 809.945 L35.9632 787.315 L41.3741 787.315 L41.3741 809.945 L58.5933 809.945 L58.5933 785.756 L64.0042 785.756 L64.0042 816.375 L16.4842 816.375 Z" fill="#000000" fill-rule="nonzero" fill-opacity="1" /><path clip-path="url(#clip140)" d="M16.4842 775.189 L16.4842 768.759 L58.5933 768.759 L58.5933 745.62 L64.0042 745.62 L64.0042 775.189 L16.4842 775.189 Z" fill="#000000" fill-rule="nonzero" fill-opacity="1" /><path clip-path="url(#clip140)" d="M41.3104 732.443 L58.7206 732.443 L58.7206 722.13 Q58.7206 716.942 56.5881 714.46 Q54.4238 711.945 49.9996 711.945 Q45.5436 711.945 43.4429 714.46 Q41.3104 716.942 41.3104 722.13 L41.3104 732.443 M21.7677 732.443 L36.0905 732.443 L36.0905 722.926 Q36.0905 718.216 34.34 715.924 Q32.5576 713.6 28.9291 713.6 Q25.3325 713.6 23.5501 715.924 Q21.7677 718.216 21.7677 722.926 L21.7677 732.443 M16.4842 738.872 L16.4842 722.449 Q16.4842 715.096 19.5397 711.118 Q22.5952 707.139 28.2289 707.139 Q32.5894 707.139 35.1675 709.176 Q37.7456 711.213 38.3822 715.16 Q39.4007 710.418 42.6472 707.808 Q45.8619 705.166 50.6998 705.166 Q57.0655 705.166 60.5348 709.495 Q64.0042 713.823 64.0042 721.812 L64.0042 738.872 L16.4842 738.872 Z" fill="#000000" fill-rule="nonzero" fill-opacity="1" /><path clip-path="url(#clip140)" d="M20.8447 676.011 Q20.8447 683.013 26.0645 687.151 Q31.2844 691.257 40.2919 691.257 Q49.2675 691.257 54.4874 687.151 Q59.7073 683.013 59.7073 676.011 Q59.7073 669.009 54.4874 664.935 Q49.2675 660.829 40.2919 660.829 Q31.2844 660.829 26.0645 664.935 Q20.8447 669.009 20.8447 676.011 M15.6248 676.011 Q15.6248 666.017 22.3406 660.033 Q29.0246 654.049 40.2919 654.049 Q51.5274 654.049 58.2432 660.033 Q64.9272 666.017 64.9272 676.011 Q64.9272 686.037 58.2432 692.052 Q51.5592 698.036 40.2919 698.036 Q29.0246 698.036 22.3406 692.052 Q15.6248 686.037 15.6248 676.011 Z" fill="#000000" fill-rule="nonzero" fill-opacity="1" /><polyline clip-path="url(#clip141)" style="stroke:#009af9; stroke-linecap:round; stroke-linejoin:round; stroke-width:4; stroke-opacity:1; fill:none" points="428.65,1305.92 497.151,994.403 559.159,420.605 621.124,345.523 680.433,309.852 739.942,282.583 799.459,265.168 859.441,252.183 922.349,241.858 982.693,233.416 1041.96,228.88 1100.12,222.8 1158.25,214.286 1217.08,200.881 1275.41,198.451 1334.19,182.778 1392.32,184.418 1456.15,182.733 1515.52,175.369 1580.02,163.843 1638.07,160.636 1696.21,152.151 1757.51,142.996 1817.92,131.281 1876,133.272 1934.83,125.467 1997.57,120.876 2056.86,112.072 2116.5,105.83 2175.72,97.909 2235.94,92.1072 2295.58,86.1857 "/>
<polyline clip-path="url(#clip141)" style="stroke:#e26f46; stroke-linecap:round; stroke-linejoin:round; stroke-width:4; stroke-opacity:1; fill:none" points="389.794,1384.24 418.891,775.124 430.773,555.999 441.833,401.066 452.731,340.492 463.949,309.577 474.946,285.627 486.183,277.2 497.21,265.058 508.185,259.747 519.448,249.258 530.421,241.779 541.413,232.952 552.751,227.309 563.763,226.039 575.073,219.141 586.071,209.925 597.009,208.072 608.27,206.173 619.439,191.794 630.614,186.176 641.497,183.639 652.381,175.66 663.699,170.018 674.591,163.517 685.461,155.395 696.736,155.831 707.58,149.632 718.772,146.408 729.664,138.482 740.513,139.926 751.725,132.296 "/>
<path clip-path="url(#clip140)" d="M1784.1 1377.32 L2285.42 1377.32 L2285.42 1221.8 L1784.1 1221.8  Z" fill="#ffffff" fill-rule="evenodd" fill-opacity="1"/>
<polyline clip-path="url(#clip140)" style="stroke:#000000; stroke-linecap:round; stroke-linejoin:round; stroke-width:4; stroke-opacity:1; fill:none" points="1784.1,1377.32 2285.42,1377.32 2285.42,1221.8 1784.1,1221.8 1784.1,1377.32 "/>
<polyline clip-path="url(#clip140)" style="stroke:#009af9; stroke-linecap:round; stroke-linejoin:round; stroke-width:4; stroke-opacity:1; fill:none" points="1806.55,1273.64 1941.22,1273.64 "/>
<path clip-path="url(#clip140)" d="M1963.67 1256.36 L1983.53 1256.36 L1983.53 1260.29 L1968.34 1260.29 L1968.34 1270.48 L1982.05 1270.48 L1982.05 1274.41 L1968.34 1274.41 L1968.34 1290.92 L1963.67 1290.92 L1963.67 1256.36 Z" fill="#000000" fill-rule="nonzero" fill-opacity="1" /><path clip-path="url(#clip140)" d="M1987.72 1280.68 L1987.72 1264.99 L1991.98 1264.99 L1991.98 1280.52 Q1991.98 1284.2 1993.41 1286.05 Q1994.85 1287.88 1997.72 1287.88 Q2001.17 1287.88 2003.16 1285.68 Q2005.17 1283.48 2005.17 1279.69 L2005.17 1264.99 L2009.43 1264.99 L2009.43 1290.92 L2005.17 1290.92 L2005.17 1286.93 Q2003.62 1289.29 2001.56 1290.45 Q1999.52 1291.59 1996.82 1291.59 Q1992.35 1291.59 1990.03 1288.81 Q1987.72 1286.03 1987.72 1280.68 M1998.44 1264.36 L1998.44 1264.36 Z" fill="#000000" fill-rule="nonzero" fill-opacity="1" /><path clip-path="url(#clip140)" d="M2018.2 1254.9 L2022.46 1254.9 L2022.46 1290.92 L2018.2 1290.92 L2018.2 1254.9 Z" fill="#000000" fill-rule="nonzero" fill-opacity="1" /><path clip-path="url(#clip140)" d="M2031.38 1254.9 L2035.64 1254.9 L2035.64 1290.92 L2031.38 1290.92 L2031.38 1254.9 Z" fill="#000000" fill-rule="nonzero" fill-opacity="1" /><path clip-path="url(#clip140)" d="M2064.48 1274.41 L2064.48 1287.07 L2071.98 1287.07 Q2075.75 1287.07 2077.56 1285.52 Q2079.39 1283.95 2079.39 1280.73 Q2079.39 1277.49 2077.56 1275.96 Q2075.75 1274.41 2071.98 1274.41 L2064.48 1274.41 M2064.48 1260.2 L2064.48 1270.61 L2071.4 1270.61 Q2074.82 1270.61 2076.49 1269.34 Q2078.18 1268.05 2078.18 1265.41 Q2078.18 1262.79 2076.49 1261.49 Q2074.82 1260.2 2071.4 1260.2 L2064.48 1260.2 M2059.8 1256.36 L2071.75 1256.36 Q2077.09 1256.36 2079.99 1258.58 Q2082.88 1260.8 2082.88 1264.9 Q2082.88 1268.07 2081.4 1269.94 Q2079.92 1271.82 2077.05 1272.28 Q2080.5 1273.02 2082.39 1275.38 Q2084.32 1277.72 2084.32 1281.24 Q2084.32 1285.87 2081.17 1288.39 Q2078.02 1290.92 2072.21 1290.92 L2059.8 1290.92 L2059.8 1256.36 Z" fill="#000000" fill-rule="nonzero" fill-opacity="1" /><path clip-path="url(#clip140)" d="M2103.92 1277.88 Q2098.76 1277.88 2096.77 1279.06 Q2094.78 1280.24 2094.78 1283.09 Q2094.78 1285.36 2096.26 1286.7 Q2097.76 1288.02 2100.33 1288.02 Q2103.88 1288.02 2106.01 1285.52 Q2108.16 1283 2108.16 1278.83 L2108.16 1277.88 L2103.92 1277.88 M2112.42 1276.12 L2112.42 1290.92 L2108.16 1290.92 L2108.16 1286.98 Q2106.7 1289.34 2104.52 1290.48 Q2102.35 1291.59 2099.2 1291.59 Q2095.22 1291.59 2092.86 1289.36 Q2090.52 1287.12 2090.52 1283.37 Q2090.52 1278.99 2093.44 1276.77 Q2096.38 1274.55 2102.19 1274.55 L2108.16 1274.55 L2108.16 1274.13 Q2108.16 1271.19 2106.21 1269.6 Q2104.29 1267.98 2100.8 1267.98 Q2098.57 1267.98 2096.47 1268.51 Q2094.36 1269.04 2092.42 1270.11 L2092.42 1266.17 Q2094.76 1265.27 2096.95 1264.83 Q2099.15 1264.36 2101.24 1264.36 Q2106.86 1264.36 2109.64 1267.28 Q2112.42 1270.2 2112.42 1276.12 Z" fill="#000000" fill-rule="nonzero" fill-opacity="1" /><path clip-path="url(#clip140)" d="M2125.4 1257.63 L2125.4 1264.99 L2134.18 1264.99 L2134.18 1268.3 L2125.4 1268.3 L2125.4 1282.37 Q2125.4 1285.54 2126.26 1286.45 Q2127.14 1287.35 2129.8 1287.35 L2134.18 1287.35 L2134.18 1290.92 L2129.8 1290.92 Q2124.87 1290.92 2123 1289.09 Q2121.12 1287.23 2121.12 1282.37 L2121.12 1268.3 L2118 1268.3 L2118 1264.99 L2121.12 1264.99 L2121.12 1257.63 L2125.4 1257.63 Z" fill="#000000" fill-rule="nonzero" fill-opacity="1" /><path clip-path="url(#clip140)" d="M2158.44 1265.98 L2158.44 1269.97 Q2156.63 1268.97 2154.8 1268.48 Q2153 1267.98 2151.14 1267.98 Q2147 1267.98 2144.71 1270.61 Q2142.42 1273.23 2142.42 1277.98 Q2142.42 1282.72 2144.71 1285.36 Q2147 1287.98 2151.14 1287.98 Q2153 1287.98 2154.8 1287.49 Q2156.63 1286.98 2158.44 1285.98 L2158.44 1289.92 Q2156.65 1290.75 2154.73 1291.17 Q2152.83 1291.59 2150.68 1291.59 Q2144.82 1291.59 2141.38 1287.91 Q2137.93 1284.23 2137.93 1277.98 Q2137.93 1271.63 2141.4 1268 Q2144.89 1264.36 2150.96 1264.36 Q2152.93 1264.36 2154.8 1264.78 Q2156.68 1265.17 2158.44 1265.98 Z" fill="#000000" fill-rule="nonzero" fill-opacity="1" /><path clip-path="url(#clip140)" d="M2187.39 1275.27 L2187.39 1290.92 L2183.13 1290.92 L2183.13 1275.41 Q2183.13 1271.73 2181.7 1269.9 Q2180.26 1268.07 2177.39 1268.07 Q2173.94 1268.07 2171.95 1270.27 Q2169.96 1272.47 2169.96 1276.26 L2169.96 1290.92 L2165.68 1290.92 L2165.68 1254.9 L2169.96 1254.9 L2169.96 1269.02 Q2171.49 1266.68 2173.55 1265.52 Q2175.63 1264.36 2178.34 1264.36 Q2182.81 1264.36 2185.1 1267.14 Q2187.39 1269.9 2187.39 1275.27 Z" fill="#000000" fill-rule="nonzero" fill-opacity="1" /><polyline clip-path="url(#clip140)" style="stroke:#e26f46; stroke-linecap:round; stroke-linejoin:round; stroke-width:4; stroke-opacity:1; fill:none" points="1806.55,1325.48 1941.22,1325.48 "/>
<path clip-path="url(#clip140)" d="M1985.91 1309.33 L1985.91 1313.89 Q1983.25 1312.62 1980.89 1311.99 Q1978.53 1311.37 1976.33 1311.37 Q1972.51 1311.37 1970.43 1312.85 Q1968.37 1314.33 1968.37 1317.06 Q1968.37 1319.35 1969.73 1320.53 Q1971.12 1321.69 1974.96 1322.41 L1977.79 1322.99 Q1983.02 1323.98 1985.5 1326.51 Q1988 1329.01 1988 1333.22 Q1988 1338.24 1984.62 1340.83 Q1981.26 1343.43 1974.76 1343.43 Q1972.3 1343.43 1969.52 1342.87 Q1966.77 1342.32 1963.81 1341.23 L1963.81 1336.41 Q1966.65 1338.01 1969.39 1338.82 Q1972.12 1339.63 1974.76 1339.63 Q1978.76 1339.63 1980.94 1338.06 Q1983.11 1336.48 1983.11 1333.57 Q1983.11 1331.02 1981.54 1329.58 Q1979.99 1328.15 1976.42 1327.43 L1973.58 1326.88 Q1968.34 1325.83 1966.01 1323.61 Q1963.67 1321.39 1963.67 1317.43 Q1963.67 1312.85 1966.89 1310.21 Q1970.13 1307.57 1975.8 1307.57 Q1978.23 1307.57 1980.75 1308.01 Q1983.27 1308.45 1985.91 1309.33 Z" fill="#000000" fill-rule="nonzero" fill-opacity="1" /><path clip-path="url(#clip140)" d="M1994.66 1332.52 L1994.66 1316.83 L1998.92 1316.83 L1998.92 1332.36 Q1998.92 1336.04 2000.36 1337.89 Q2001.79 1339.72 2004.66 1339.72 Q2008.11 1339.72 2010.1 1337.52 Q2012.12 1335.32 2012.12 1331.53 L2012.12 1316.83 L2016.38 1316.83 L2016.38 1342.76 L2012.12 1342.76 L2012.12 1338.77 Q2010.57 1341.13 2008.51 1342.29 Q2006.47 1343.43 2003.76 1343.43 Q1999.29 1343.43 1996.98 1340.65 Q1994.66 1337.87 1994.66 1332.52 M2005.38 1316.2 L2005.38 1316.2 Z" fill="#000000" fill-rule="nonzero" fill-opacity="1" /><path clip-path="url(#clip140)" d="M2043.76 1329.82 Q2043.76 1325.12 2041.82 1322.45 Q2039.89 1319.77 2036.51 1319.77 Q2033.14 1319.77 2031.19 1322.45 Q2029.27 1325.12 2029.27 1329.82 Q2029.27 1334.51 2031.19 1337.2 Q2033.14 1339.86 2036.51 1339.86 Q2039.89 1339.86 2041.82 1337.2 Q2043.76 1334.51 2043.76 1329.82 M2029.27 1320.76 Q2030.61 1318.45 2032.65 1317.34 Q2034.71 1316.2 2037.56 1316.2 Q2042.28 1316.2 2045.22 1319.95 Q2048.18 1323.7 2048.18 1329.82 Q2048.18 1335.93 2045.22 1339.68 Q2042.28 1343.43 2037.56 1343.43 Q2034.71 1343.43 2032.65 1342.32 Q2030.61 1341.18 2029.27 1338.87 L2029.27 1342.76 L2024.99 1342.76 L2024.99 1306.74 L2029.27 1306.74 L2029.27 1320.76 Z" fill="#000000" fill-rule="nonzero" fill-opacity="1" /><path clip-path="url(#clip140)" d="M2071.77 1317.59 L2071.77 1321.62 Q2069.96 1320.7 2068.02 1320.23 Q2066.08 1319.77 2063.99 1319.77 Q2060.82 1319.77 2059.22 1320.74 Q2057.65 1321.71 2057.65 1323.66 Q2057.65 1325.14 2058.78 1326 Q2059.92 1326.83 2063.34 1327.59 L2064.8 1327.92 Q2069.34 1328.89 2071.24 1330.67 Q2073.16 1332.43 2073.16 1335.6 Q2073.16 1339.21 2070.29 1341.32 Q2067.44 1343.43 2062.44 1343.43 Q2060.36 1343.43 2058.09 1343.01 Q2055.84 1342.62 2053.34 1341.81 L2053.34 1337.41 Q2055.7 1338.63 2058 1339.26 Q2060.29 1339.86 2062.53 1339.86 Q2065.54 1339.86 2067.16 1338.84 Q2068.78 1337.8 2068.78 1335.93 Q2068.78 1334.19 2067.6 1333.26 Q2066.45 1332.34 2062.49 1331.48 L2061.01 1331.14 Q2057.05 1330.3 2055.29 1328.59 Q2053.53 1326.85 2053.53 1323.84 Q2053.53 1320.19 2056.12 1318.2 Q2058.71 1316.2 2063.48 1316.2 Q2065.84 1316.2 2067.93 1316.55 Q2070.01 1316.9 2071.77 1317.59 Z" fill="#000000" fill-rule="nonzero" fill-opacity="1" /><path clip-path="url(#clip140)" d="M2091.72 1329.72 Q2086.56 1329.72 2084.57 1330.9 Q2082.58 1332.08 2082.58 1334.93 Q2082.58 1337.2 2084.06 1338.54 Q2085.57 1339.86 2088.14 1339.86 Q2091.68 1339.86 2093.81 1337.36 Q2095.96 1334.84 2095.96 1330.67 L2095.96 1329.72 L2091.72 1329.72 M2100.22 1327.96 L2100.22 1342.76 L2095.96 1342.76 L2095.96 1338.82 Q2094.5 1341.18 2092.32 1342.32 Q2090.15 1343.43 2087 1343.43 Q2083.02 1343.43 2080.66 1341.2 Q2078.32 1338.96 2078.32 1335.21 Q2078.32 1330.83 2081.24 1328.61 Q2084.18 1326.39 2089.99 1326.39 L2095.96 1326.39 L2095.96 1325.97 Q2095.96 1323.03 2094.01 1321.44 Q2092.09 1319.82 2088.6 1319.82 Q2086.38 1319.82 2084.27 1320.35 Q2082.16 1320.88 2080.22 1321.95 L2080.22 1318.01 Q2082.56 1317.11 2084.76 1316.67 Q2086.95 1316.2 2089.04 1316.2 Q2094.66 1316.2 2097.44 1319.12 Q2100.22 1322.04 2100.22 1327.96 Z" fill="#000000" fill-rule="nonzero" fill-opacity="1" /><path clip-path="url(#clip140)" d="M2129.18 1321.81 Q2130.77 1318.94 2133 1317.57 Q2135.22 1316.2 2138.23 1316.2 Q2142.28 1316.2 2144.48 1319.05 Q2146.68 1321.88 2146.68 1327.11 L2146.68 1342.76 L2142.39 1342.76 L2142.39 1327.25 Q2142.39 1323.52 2141.07 1321.71 Q2139.76 1319.91 2137.05 1319.91 Q2133.74 1319.91 2131.82 1322.11 Q2129.89 1324.31 2129.89 1328.1 L2129.89 1342.76 L2125.61 1342.76 L2125.61 1327.25 Q2125.61 1323.5 2124.29 1321.71 Q2122.97 1319.91 2120.22 1319.91 Q2116.95 1319.91 2115.03 1322.13 Q2113.11 1324.33 2113.11 1328.1 L2113.11 1342.76 L2108.83 1342.76 L2108.83 1316.83 L2113.11 1316.83 L2113.11 1320.86 Q2114.57 1318.47 2116.61 1317.34 Q2118.64 1316.2 2121.45 1316.2 Q2124.27 1316.2 2126.24 1317.64 Q2128.23 1319.07 2129.18 1321.81 Z" fill="#000000" fill-rule="nonzero" fill-opacity="1" /><path clip-path="url(#clip140)" d="M2159.29 1338.87 L2159.29 1352.62 L2155.01 1352.62 L2155.01 1316.83 L2159.29 1316.83 L2159.29 1320.76 Q2160.63 1318.45 2162.67 1317.34 Q2164.73 1316.2 2167.58 1316.2 Q2172.3 1316.2 2175.24 1319.95 Q2178.2 1323.7 2178.2 1329.82 Q2178.2 1335.93 2175.24 1339.68 Q2172.3 1343.43 2167.58 1343.43 Q2164.73 1343.43 2162.67 1342.32 Q2160.63 1341.18 2159.29 1338.87 M2173.78 1329.82 Q2173.78 1325.12 2171.84 1322.45 Q2169.92 1319.77 2166.54 1319.77 Q2163.16 1319.77 2161.21 1322.45 Q2159.29 1325.12 2159.29 1329.82 Q2159.29 1334.51 2161.21 1337.2 Q2163.16 1339.86 2166.54 1339.86 Q2169.92 1339.86 2171.84 1337.2 Q2173.78 1334.51 2173.78 1329.82 Z" fill="#000000" fill-rule="nonzero" fill-opacity="1" /><path clip-path="url(#clip140)" d="M2185.26 1306.74 L2189.52 1306.74 L2189.52 1342.76 L2185.26 1342.76 L2185.26 1306.74 Z" fill="#000000" fill-rule="nonzero" fill-opacity="1" /><path clip-path="url(#clip140)" d="M2198.44 1316.83 L2202.69 1316.83 L2202.69 1342.76 L2198.44 1342.76 L2198.44 1316.83 M2198.44 1306.74 L2202.69 1306.74 L2202.69 1312.13 L2198.44 1312.13 L2198.44 1306.74 Z" fill="#000000" fill-rule="nonzero" fill-opacity="1" /><path clip-path="url(#clip140)" d="M2233.16 1327.11 L2233.16 1342.76 L2228.9 1342.76 L2228.9 1327.25 Q2228.9 1323.57 2227.46 1321.74 Q2226.03 1319.91 2223.16 1319.91 Q2219.71 1319.91 2217.72 1322.11 Q2215.73 1324.31 2215.73 1328.1 L2215.73 1342.76 L2211.44 1342.76 L2211.44 1316.83 L2215.73 1316.83 L2215.73 1320.86 Q2217.25 1318.52 2219.31 1317.36 Q2221.4 1316.2 2224.11 1316.2 Q2228.57 1316.2 2230.87 1318.98 Q2233.16 1321.74 2233.16 1327.11 Z" fill="#000000" fill-rule="nonzero" fill-opacity="1" /><path clip-path="url(#clip140)" d="M2258.71 1329.49 Q2258.71 1324.86 2256.79 1322.32 Q2254.89 1319.77 2251.44 1319.77 Q2248.02 1319.77 2246.1 1322.32 Q2244.2 1324.86 2244.2 1329.49 Q2244.2 1334.1 2246.1 1336.64 Q2248.02 1339.19 2251.44 1339.19 Q2254.89 1339.19 2256.79 1336.64 Q2258.71 1334.1 2258.71 1329.49 M2262.97 1339.54 Q2262.97 1346.16 2260.03 1349.38 Q2257.09 1352.62 2251.03 1352.62 Q2248.78 1352.62 2246.79 1352.27 Q2244.8 1351.95 2242.93 1351.25 L2242.93 1347.11 Q2244.8 1348.13 2246.63 1348.61 Q2248.46 1349.1 2250.36 1349.1 Q2254.55 1349.1 2256.63 1346.9 Q2258.71 1344.72 2258.71 1340.3 L2258.71 1338.2 Q2257.39 1340.49 2255.33 1341.62 Q2253.27 1342.76 2250.4 1342.76 Q2245.63 1342.76 2242.72 1339.12 Q2239.8 1335.49 2239.8 1329.49 Q2239.8 1323.47 2242.72 1319.84 Q2245.63 1316.2 2250.4 1316.2 Q2253.27 1316.2 2255.33 1317.34 Q2257.39 1318.47 2258.71 1320.76 L2258.71 1316.83 L2262.97 1316.83 L2262.97 1339.54 Z" fill="#000000" fill-rule="nonzero" fill-opacity="1" /></svg>
