<?xml version="1.0" encoding="utf-8"?>
<svg xmlns="http://www.w3.org/2000/svg" xmlns:xlink="http://www.w3.org/1999/xlink" width="600" height="400" viewBox="0 0 2400 1600">
<defs>
  <clipPath id="clip400">
    <rect x="0" y="0" width="2400" height="1600"/>
  </clipPath>
</defs>
<path clip-path="url(#clip400)" d="M0 1600 L2400 1600 L2400 0 L0 0  Z" fill="#ffffff" fill-rule="evenodd" fill-opacity="1"/>
<defs>
  <clipPath id="clip401">
    <rect x="480" y="0" width="1681" height="1600"/>
  </clipPath>
</defs>
<path clip-path="url(#clip400)" d="M242.135 1423.18 L2352.76 1423.18 L2352.76 47.2441 L242.135 47.2441  Z" fill="#ffffff" fill-rule="evenodd" fill-opacity="1"/>
<defs>
  <clipPath id="clip402">
    <rect x="242" y="47" width="2112" height="1377"/>
  </clipPath>
</defs>
<polyline clip-path="url(#clip402)" style="stroke:#000000; stroke-linecap:round; stroke-linejoin:round; stroke-width:2; stroke-opacity:0.1; fill:none" points="301.205,1423.18 301.205,47.2441 "/>
<polyline clip-path="url(#clip402)" style="stroke:#000000; stroke-linecap:round; stroke-linejoin:round; stroke-width:2; stroke-opacity:0.1; fill:none" points="965.144,1423.18 965.144,47.2441 "/>
<polyline clip-path="url(#clip402)" style="stroke:#000000; stroke-linecap:round; stroke-linejoin:round; stroke-width:2; stroke-opacity:0.1; fill:none" points="1629.08,1423.18 1629.08,47.2441 "/>
<polyline clip-path="url(#clip402)" style="stroke:#000000; stroke-linecap:round; stroke-linejoin:round; stroke-width:2; stroke-opacity:0.1; fill:none" points="2293.02,1423.18 2293.02,47.2441 "/>
<polyline clip-path="url(#clip402)" style="stroke:#000000; stroke-linecap:round; stroke-linejoin:round; stroke-width:2; stroke-opacity:0.1; fill:none" points="242.135,1423.18 2352.76,1423.18 "/>
<polyline clip-path="url(#clip402)" style="stroke:#000000; stroke-linecap:round; stroke-linejoin:round; stroke-width:2; stroke-opacity:0.1; fill:none" points="242.135,1063.44 2352.76,1063.44 "/>
<polyline clip-path="url(#clip402)" style="stroke:#000000; stroke-linecap:round; stroke-linejoin:round; stroke-width:2; stroke-opacity:0.1; fill:none" points="242.135,703.694 2352.76,703.694 "/>
<polyline clip-path="url(#clip402)" style="stroke:#000000; stroke-linecap:round; stroke-linejoin:round; stroke-width:2; stroke-opacity:0.1; fill:none" points="242.135,343.951 2352.76,343.951 "/>
<polyline clip-path="url(#clip400)" style="stroke:#000000; stroke-linecap:round; stroke-linejoin:round; stroke-width:4; stroke-opacity:1; fill:none" points="242.135,1423.18 2352.76,1423.18 "/>
<polyline clip-path="url(#clip400)" style="stroke:#000000; stroke-linecap:round; stroke-linejoin:round; stroke-width:4; stroke-opacity:1; fill:none" points="301.205,1423.18 301.205,1404.28 "/>
<polyline clip-path="url(#clip400)" style="stroke:#000000; stroke-linecap:round; stroke-linejoin:round; stroke-width:4; stroke-opacity:1; fill:none" points="965.144,1423.18 965.144,1404.28 "/>
<polyline clip-path="url(#clip400)" style="stroke:#000000; stroke-linecap:round; stroke-linejoin:round; stroke-width:4; stroke-opacity:1; fill:none" points="1629.08,1423.18 1629.08,1404.28 "/>
<polyline clip-path="url(#clip400)" style="stroke:#000000; stroke-linecap:round; stroke-linejoin:round; stroke-width:4; stroke-opacity:1; fill:none" points="2293.02,1423.18 2293.02,1404.28 "/>
<path clip-path="url(#clip400)" d="M301.205 1454.1 Q297.594 1454.1 295.766 1457.66 Q293.96 1461.2 293.96 1468.33 Q293.96 1475.44 295.766 1479.01 Q297.594 1482.55 301.205 1482.55 Q304.84 1482.55 306.645 1479.01 Q308.474 1475.44 308.474 1468.33 Q308.474 1461.2 306.645 1457.66 Q304.84 1454.1 301.205 1454.1 M301.205 1450.39 Q307.015 1450.39 310.071 1455 Q313.15 1459.58 313.15 1468.33 Q313.15 1477.06 310.071 1481.67 Q307.015 1486.25 301.205 1486.25 Q295.395 1486.25 292.316 1481.67 Q289.261 1477.06 289.261 1468.33 Q289.261 1459.58 292.316 1455 Q295.395 1450.39 301.205 1450.39 Z" fill="#000000" fill-rule="nonzero" fill-opacity="1" /><path clip-path="url(#clip400)" d="M909.67 1481.64 L917.309 1481.64 L917.309 1455.28 L908.998 1456.95 L908.998 1452.69 L917.262 1451.02 L921.938 1451.02 L921.938 1481.64 L929.577 1481.64 L929.577 1485.58 L909.67 1485.58 L909.67 1481.64 Z" fill="#000000" fill-rule="nonzero" fill-opacity="1" /><path clip-path="url(#clip400)" d="M949.021 1454.1 Q945.41 1454.1 943.582 1457.66 Q941.776 1461.2 941.776 1468.33 Q941.776 1475.44 943.582 1479.01 Q945.41 1482.55 949.021 1482.55 Q952.656 1482.55 954.461 1479.01 Q956.29 1475.44 956.29 1468.33 Q956.29 1461.2 954.461 1457.66 Q952.656 1454.1 949.021 1454.1 M949.021 1450.39 Q954.832 1450.39 957.887 1455 Q960.966 1459.58 960.966 1468.33 Q960.966 1477.06 957.887 1481.67 Q954.832 1486.25 949.021 1486.25 Q943.211 1486.25 940.133 1481.67 Q937.077 1477.06 937.077 1468.33 Q937.077 1459.58 940.133 1455 Q943.211 1450.39 949.021 1450.39 Z" fill="#000000" fill-rule="nonzero" fill-opacity="1" /><path clip-path="url(#clip400)" d="M979.183 1454.1 Q975.572 1454.1 973.743 1457.66 Q971.938 1461.2 971.938 1468.33 Q971.938 1475.44 973.743 1479.01 Q975.572 1482.55 979.183 1482.55 Q982.817 1482.55 984.623 1479.01 Q986.452 1475.44 986.452 1468.33 Q986.452 1461.2 984.623 1457.66 Q982.817 1454.1 979.183 1454.1 M979.183 1450.39 Q984.993 1450.39 988.049 1455 Q991.128 1459.58 991.128 1468.33 Q991.128 1477.06 988.049 1481.67 Q984.993 1486.25 979.183 1486.25 Q973.373 1486.25 970.294 1481.67 Q967.239 1477.06 967.239 1468.33 Q967.239 1459.58 970.294 1455 Q973.373 1450.39 979.183 1450.39 Z" fill="#000000" fill-rule="nonzero" fill-opacity="1" /><path clip-path="url(#clip400)" d="M1009.35 1454.1 Q1005.73 1454.1 1003.91 1457.66 Q1002.1 1461.2 1002.1 1468.33 Q1002.1 1475.44 1003.91 1479.01 Q1005.73 1482.55 1009.35 1482.55 Q1012.98 1482.55 1014.78 1479.01 Q1016.61 1475.44 1016.61 1468.33 Q1016.61 1461.2 1014.78 1457.66 Q1012.98 1454.1 1009.35 1454.1 M1009.35 1450.39 Q1015.16 1450.39 1018.21 1455 Q1021.29 1459.58 1021.29 1468.33 Q1021.29 1477.06 1018.21 1481.67 Q1015.16 1486.25 1009.35 1486.25 Q1003.53 1486.25 1000.46 1481.67 Q997.401 1477.06 997.401 1468.33 Q997.401 1459.58 1000.46 1455 Q1003.53 1450.39 1009.35 1450.39 Z" fill="#000000" fill-rule="nonzero" fill-opacity="1" /><path clip-path="url(#clip400)" d="M1577.69 1481.64 L1594.01 1481.64 L1594.01 1485.58 L1572.07 1485.58 L1572.07 1481.64 Q1574.73 1478.89 1579.31 1474.26 Q1583.92 1469.61 1585.1 1468.27 Q1587.35 1465.74 1588.23 1464.01 Q1589.13 1462.25 1589.13 1460.56 Q1589.13 1457.8 1587.18 1456.07 Q1585.26 1454.33 1582.16 1454.33 Q1579.96 1454.33 1577.51 1455.09 Q1575.08 1455.86 1572.3 1457.41 L1572.3 1452.69 Q1575.12 1451.55 1577.58 1450.97 Q1580.03 1450.39 1582.07 1450.39 Q1587.44 1450.39 1590.63 1453.08 Q1593.83 1455.77 1593.83 1460.26 Q1593.83 1462.39 1593.02 1464.31 Q1592.23 1466.2 1590.12 1468.8 Q1589.55 1469.47 1586.44 1472.69 Q1583.34 1475.88 1577.69 1481.64 Z" fill="#000000" fill-rule="nonzero" fill-opacity="1" /><path clip-path="url(#clip400)" d="M1613.83 1454.1 Q1610.22 1454.1 1608.39 1457.66 Q1606.58 1461.2 1606.58 1468.33 Q1606.58 1475.44 1608.39 1479.01 Q1610.22 1482.55 1613.83 1482.55 Q1617.46 1482.55 1619.27 1479.01 Q1621.1 1475.44 1621.1 1468.33 Q1621.1 1461.2 1619.27 1457.66 Q1617.46 1454.1 1613.83 1454.1 M1613.83 1450.39 Q1619.64 1450.39 1622.69 1455 Q1625.77 1459.58 1625.77 1468.33 Q1625.77 1477.06 1622.69 1481.67 Q1619.64 1486.25 1613.83 1486.25 Q1608.02 1486.25 1604.94 1481.67 Q1601.88 1477.06 1601.88 1468.33 Q1601.88 1459.58 1604.94 1455 Q1608.02 1450.39 1613.83 1450.39 Z" fill="#000000" fill-rule="nonzero" fill-opacity="1" /><path clip-path="url(#clip400)" d="M1643.99 1454.1 Q1640.38 1454.1 1638.55 1457.66 Q1636.74 1461.2 1636.74 1468.33 Q1636.74 1475.44 1638.55 1479.01 Q1640.38 1482.55 1643.99 1482.55 Q1647.62 1482.55 1649.43 1479.01 Q1651.26 1475.44 1651.26 1468.33 Q1651.26 1461.2 1649.43 1457.66 Q1647.62 1454.1 1643.99 1454.1 M1643.99 1450.39 Q1649.8 1450.39 1652.86 1455 Q1655.93 1459.58 1655.93 1468.33 Q1655.93 1477.06 1652.86 1481.67 Q1649.8 1486.25 1643.99 1486.25 Q1638.18 1486.25 1635.1 1481.67 Q1632.05 1477.06 1632.05 1468.33 Q1632.05 1459.58 1635.1 1455 Q1638.18 1450.39 1643.99 1450.39 Z" fill="#000000" fill-rule="nonzero" fill-opacity="1" /><path clip-path="url(#clip400)" d="M1674.15 1454.1 Q1670.54 1454.1 1668.71 1457.66 Q1666.91 1461.2 1666.91 1468.33 Q1666.91 1475.44 1668.71 1479.01 Q1670.54 1482.55 1674.15 1482.55 Q1677.79 1482.55 1679.59 1479.01 Q1681.42 1475.44 1681.42 1468.33 Q1681.42 1461.2 1679.59 1457.66 Q1677.79 1454.1 1674.15 1454.1 M1674.15 1450.39 Q1679.96 1450.39 1683.02 1455 Q1686.1 1459.58 1686.1 1468.33 Q1686.1 1477.06 1683.02 1481.67 Q1679.96 1486.25 1674.15 1486.25 Q1668.34 1486.25 1665.26 1481.67 Q1662.21 1477.06 1662.21 1468.33 Q1662.21 1459.58 1665.26 1455 Q1668.34 1450.39 1674.15 1450.39 Z" fill="#000000" fill-rule="nonzero" fill-opacity="1" /><path clip-path="url(#clip400)" d="M2251.7 1466.95 Q2255.06 1467.66 2256.93 1469.93 Q2258.83 1472.2 2258.83 1475.53 Q2258.83 1480.65 2255.31 1483.45 Q2251.79 1486.25 2245.31 1486.25 Q2243.14 1486.25 2240.82 1485.81 Q2238.53 1485.39 2236.08 1484.54 L2236.08 1480.02 Q2238.02 1481.16 2240.34 1481.74 Q2242.65 1482.32 2245.17 1482.32 Q2249.57 1482.32 2251.86 1480.58 Q2254.18 1478.84 2254.18 1475.53 Q2254.18 1472.48 2252.03 1470.77 Q2249.9 1469.03 2246.08 1469.03 L2242.05 1469.03 L2242.05 1465.19 L2246.26 1465.19 Q2249.71 1465.19 2251.54 1463.82 Q2253.37 1462.43 2253.37 1459.84 Q2253.37 1457.18 2251.47 1455.77 Q2249.6 1454.33 2246.08 1454.33 Q2244.16 1454.33 2241.96 1454.75 Q2239.76 1455.16 2237.12 1456.04 L2237.12 1451.88 Q2239.78 1451.14 2242.1 1450.77 Q2244.43 1450.39 2246.49 1450.39 Q2251.82 1450.39 2254.92 1452.83 Q2258.02 1455.23 2258.02 1459.35 Q2258.02 1462.22 2256.38 1464.21 Q2254.73 1466.18 2251.7 1466.95 Z" fill="#000000" fill-rule="nonzero" fill-opacity="1" /><path clip-path="url(#clip400)" d="M2277.7 1454.1 Q2274.09 1454.1 2272.26 1457.66 Q2270.45 1461.2 2270.45 1468.33 Q2270.45 1475.44 2272.26 1479.01 Q2274.09 1482.55 2277.7 1482.55 Q2281.33 1482.55 2283.14 1479.01 Q2284.97 1475.44 2284.97 1468.33 Q2284.97 1461.2 2283.14 1457.66 Q2281.33 1454.1 2277.7 1454.1 M2277.7 1450.39 Q2283.51 1450.39 2286.56 1455 Q2289.64 1459.58 2289.64 1468.33 Q2289.64 1477.06 2286.56 1481.67 Q2283.51 1486.25 2277.7 1486.25 Q2271.89 1486.25 2268.81 1481.67 Q2265.75 1477.06 2265.75 1468.33 Q2265.75 1459.58 2268.81 1455 Q2271.89 1450.39 2277.7 1450.39 Z" fill="#000000" fill-rule="nonzero" fill-opacity="1" /><path clip-path="url(#clip400)" d="M2307.86 1454.1 Q2304.25 1454.1 2302.42 1457.66 Q2300.61 1461.2 2300.61 1468.33 Q2300.61 1475.44 2302.42 1479.01 Q2304.25 1482.55 2307.86 1482.55 Q2311.49 1482.55 2313.3 1479.01 Q2315.13 1475.44 2315.13 1468.33 Q2315.13 1461.2 2313.3 1457.66 Q2311.49 1454.1 2307.86 1454.1 M2307.86 1450.39 Q2313.67 1450.39 2316.72 1455 Q2319.8 1459.58 2319.8 1468.33 Q2319.8 1477.06 2316.72 1481.67 Q2313.67 1486.25 2307.86 1486.25 Q2302.05 1486.25 2298.97 1481.67 Q2295.91 1477.06 2295.91 1468.33 Q2295.91 1459.58 2298.97 1455 Q2302.05 1450.39 2307.86 1450.39 Z" fill="#000000" fill-rule="nonzero" fill-opacity="1" /><path clip-path="url(#clip400)" d="M2338.02 1454.1 Q2334.41 1454.1 2332.58 1457.66 Q2330.78 1461.2 2330.78 1468.33 Q2330.78 1475.44 2332.58 1479.01 Q2334.41 1482.55 2338.02 1482.55 Q2341.66 1482.55 2343.46 1479.01 Q2345.29 1475.44 2345.29 1468.33 Q2345.29 1461.2 2343.46 1457.66 Q2341.66 1454.1 2338.02 1454.1 M2338.02 1450.39 Q2343.83 1450.39 2346.89 1455 Q2349.97 1459.58 2349.97 1468.33 Q2349.97 1477.06 2346.89 1481.67 Q2343.83 1486.25 2338.02 1486.25 Q2332.21 1486.25 2329.13 1481.67 Q2326.08 1477.06 2326.08 1468.33 Q2326.08 1459.58 2329.13 1455 Q2332.21 1450.39 2338.02 1450.39 Z" fill="#000000" fill-rule="nonzero" fill-opacity="1" /><path clip-path="url(#clip400)" d="M1165.17 1520.52 L1171.6 1520.52 L1171.6 1568.04 L1165.17 1568.04 L1165.17 1520.52 Z" fill="#000000" fill-rule="nonzero" fill-opacity="1" /><path clip-path="url(#clip400)" d="M1189.93 1522.27 L1189.93 1532.4 L1201.99 1532.4 L1201.99 1536.95 L1189.93 1536.95 L1189.93 1556.3 Q1189.93 1560.66 1191.11 1561.9 Q1192.32 1563.14 1195.98 1563.14 L1201.99 1563.14 L1201.99 1568.04 L1195.98 1568.04 Q1189.2 1568.04 1186.62 1565.53 Q1184.04 1562.98 1184.04 1556.3 L1184.04 1536.95 L1179.74 1536.95 L1179.74 1532.4 L1184.04 1532.4 L1184.04 1522.27 L1189.93 1522.27 Z" fill="#000000" fill-rule="nonzero" fill-opacity="1" /><path clip-path="url(#clip400)" d="M1240.19 1548.76 L1240.19 1551.62 L1213.26 1551.62 Q1213.64 1557.67 1216.89 1560.85 Q1220.17 1564 1225.99 1564 Q1229.36 1564 1232.52 1563.17 Q1235.7 1562.35 1238.82 1560.69 L1238.82 1566.23 Q1235.67 1567.57 1232.36 1568.27 Q1229.05 1568.97 1225.64 1568.97 Q1217.11 1568.97 1212.11 1564 Q1207.15 1559.04 1207.15 1550.57 Q1207.15 1541.82 1211.86 1536.69 Q1216.6 1531.54 1224.62 1531.54 Q1231.81 1531.54 1235.98 1536.18 Q1240.19 1540.8 1240.19 1548.76 M1234.33 1547.04 Q1234.27 1542.23 1231.62 1539.37 Q1229.01 1536.5 1224.69 1536.5 Q1219.78 1536.5 1216.82 1539.27 Q1213.9 1542.04 1213.45 1547.07 L1234.33 1547.04 Z" fill="#000000" fill-rule="nonzero" fill-opacity="1" /><path clip-path="url(#clip400)" d="M1270.45 1537.87 Q1269.47 1537.3 1268.29 1537.04 Q1267.14 1536.76 1265.74 1536.76 Q1260.78 1536.76 1258.11 1540 Q1255.46 1543.22 1255.46 1549.27 L1255.46 1568.04 L1249.58 1568.04 L1249.58 1532.4 L1255.46 1532.4 L1255.46 1537.93 Q1257.31 1534.69 1260.27 1533.13 Q1263.23 1531.54 1267.46 1531.54 Q1268.07 1531.54 1268.8 1531.63 Q1269.53 1531.7 1270.42 1531.85 L1270.45 1537.87 Z" fill="#000000" fill-rule="nonzero" fill-opacity="1" /><path clip-path="url(#clip400)" d="M1292.8 1550.12 Q1285.7 1550.12 1282.96 1551.75 Q1280.23 1553.37 1280.23 1557.29 Q1280.23 1560.4 1282.26 1562.25 Q1284.33 1564.07 1287.86 1564.07 Q1292.73 1564.07 1295.66 1560.63 Q1298.62 1557.16 1298.62 1551.43 L1298.62 1550.12 L1292.8 1550.12 M1304.48 1547.71 L1304.48 1568.04 L1298.62 1568.04 L1298.62 1562.63 Q1296.62 1565.88 1293.63 1567.44 Q1290.63 1568.97 1286.31 1568.97 Q1280.83 1568.97 1277.58 1565.91 Q1274.37 1562.82 1274.37 1557.67 Q1274.37 1551.65 1278.38 1548.6 Q1282.42 1545.54 1290.41 1545.54 L1298.62 1545.54 L1298.62 1544.97 Q1298.62 1540.93 1295.95 1538.73 Q1293.31 1536.5 1288.5 1536.5 Q1285.45 1536.5 1282.55 1537.23 Q1279.65 1537.97 1276.98 1539.43 L1276.98 1534.02 Q1280.19 1532.78 1283.22 1532.17 Q1286.24 1531.54 1289.11 1531.54 Q1296.84 1531.54 1300.66 1535.55 Q1304.48 1539.56 1304.48 1547.71 Z" fill="#000000" fill-rule="nonzero" fill-opacity="1" /><path clip-path="url(#clip400)" d="M1322.34 1522.27 L1322.34 1532.4 L1334.4 1532.4 L1334.4 1536.95 L1322.34 1536.95 L1322.34 1556.3 Q1322.34 1560.66 1323.51 1561.9 Q1324.72 1563.14 1328.38 1563.14 L1334.4 1563.14 L1334.4 1568.04 L1328.38 1568.04 Q1321.6 1568.04 1319.03 1565.53 Q1316.45 1562.98 1316.45 1556.3 L1316.45 1536.95 L1312.15 1536.95 L1312.15 1532.4 L1316.45 1532.4 L1316.45 1522.27 L1322.34 1522.27 Z" fill="#000000" fill-rule="nonzero" fill-opacity="1" /><path clip-path="url(#clip400)" d="M1342.1 1532.4 L1347.96 1532.4 L1347.96 1568.04 L1342.1 1568.04 L1342.1 1532.4 M1342.1 1518.52 L1347.96 1518.52 L1347.96 1525.93 L1342.1 1525.93 L1342.1 1518.52 Z" fill="#000000" fill-rule="nonzero" fill-opacity="1" /><path clip-path="url(#clip400)" d="M1374.02 1536.5 Q1369.31 1536.5 1366.58 1540.19 Q1363.84 1543.85 1363.84 1550.25 Q1363.84 1556.65 1366.55 1560.34 Q1369.28 1564 1374.02 1564 Q1378.7 1564 1381.44 1560.31 Q1384.18 1556.62 1384.18 1550.25 Q1384.18 1543.92 1381.44 1540.23 Q1378.7 1536.5 1374.02 1536.5 M1374.02 1531.54 Q1381.66 1531.54 1386.02 1536.5 Q1390.38 1541.47 1390.38 1550.25 Q1390.38 1559 1386.02 1564 Q1381.66 1568.97 1374.02 1568.97 Q1366.35 1568.97 1361.99 1564 Q1357.66 1559 1357.66 1550.25 Q1357.66 1541.47 1361.99 1536.5 Q1366.35 1531.54 1374.02 1531.54 Z" fill="#000000" fill-rule="nonzero" fill-opacity="1" /><path clip-path="url(#clip400)" d="M1429.72 1546.53 L1429.72 1568.04 L1423.87 1568.04 L1423.87 1546.72 Q1423.87 1541.66 1421.89 1539.14 Q1419.92 1536.63 1415.97 1536.63 Q1411.23 1536.63 1408.5 1539.65 Q1405.76 1542.68 1405.76 1547.9 L1405.76 1568.04 L1399.87 1568.04 L1399.87 1532.4 L1405.76 1532.4 L1405.76 1537.93 Q1407.86 1534.72 1410.69 1533.13 Q1413.56 1531.54 1417.28 1531.54 Q1423.42 1531.54 1426.57 1535.36 Q1429.72 1539.14 1429.72 1546.53 Z" fill="#000000" fill-rule="nonzero" fill-opacity="1" /><polyline clip-path="url(#clip400)" style="stroke:#000000; stroke-linecap:round; stroke-linejoin:round; stroke-width:4; stroke-opacity:1; fill:none" points="242.135,1423.18 242.135,47.2441 "/>
<polyline clip-path="url(#clip400)" style="stroke:#000000; stroke-linecap:round; stroke-linejoin:round; stroke-width:4; stroke-opacity:1; fill:none" points="242.135,1423.18 261.032,1423.18 "/>
<polyline clip-path="url(#clip400)" style="stroke:#000000; stroke-linecap:round; stroke-linejoin:round; stroke-width:4; stroke-opacity:1; fill:none" points="242.135,1063.44 261.032,1063.44 "/>
<polyline clip-path="url(#clip400)" style="stroke:#000000; stroke-linecap:round; stroke-linejoin:round; stroke-width:4; stroke-opacity:1; fill:none" points="242.135,703.694 261.032,703.694 "/>
<polyline clip-path="url(#clip400)" style="stroke:#000000; stroke-linecap:round; stroke-linejoin:round; stroke-width:4; stroke-opacity:1; fill:none" points="242.135,343.951 261.032,343.951 "/>
<path clip-path="url(#clip400)" d="M114.26 1423.63 L143.936 1423.63 L143.936 1427.57 L114.26 1427.57 L114.26 1423.63 Z" fill="#000000" fill-rule="nonzero" fill-opacity="1" /><path clip-path="url(#clip400)" d="M154.839 1436.52 L162.477 1436.52 L162.477 1410.16 L154.167 1411.83 L154.167 1407.57 L162.431 1405.9 L167.107 1405.9 L167.107 1436.52 L174.746 1436.52 L174.746 1440.46 L154.839 1440.46 L154.839 1436.52 Z" fill="#000000" fill-rule="nonzero" fill-opacity="1" /><path clip-path="url(#clip400)" d="M194.19 1408.98 Q190.579 1408.98 188.75 1412.54 Q186.945 1416.08 186.945 1423.21 Q186.945 1430.32 188.75 1433.89 Q190.579 1437.43 194.19 1437.43 Q197.825 1437.43 199.63 1433.89 Q201.459 1430.32 201.459 1423.21 Q201.459 1416.08 199.63 1412.54 Q197.825 1408.98 194.19 1408.98 M194.19 1405.27 Q200 1405.27 203.056 1409.88 Q206.135 1414.46 206.135 1423.21 Q206.135 1431.94 203.056 1436.55 Q200 1441.13 194.19 1441.13 Q188.38 1441.13 185.301 1436.55 Q182.246 1431.94 182.246 1423.21 Q182.246 1414.46 185.301 1409.88 Q188.38 1405.27 194.19 1405.27 Z" fill="#000000" fill-rule="nonzero" fill-opacity="1" /><path clip-path="url(#clip400)" d="M144.515 1063.89 L174.19 1063.89 L174.19 1067.82 L144.515 1067.82 L144.515 1063.89 Z" fill="#000000" fill-rule="nonzero" fill-opacity="1" /><path clip-path="url(#clip400)" d="M194.283 1064.3 Q190.95 1064.3 189.028 1066.09 Q187.13 1067.87 187.13 1070.99 Q187.13 1074.12 189.028 1075.9 Q190.95 1077.68 194.283 1077.68 Q197.616 1077.68 199.537 1075.9 Q201.459 1074.1 201.459 1070.99 Q201.459 1067.87 199.537 1066.09 Q197.639 1064.3 194.283 1064.3 M189.607 1062.31 Q186.598 1061.57 184.908 1059.51 Q183.241 1057.45 183.241 1054.49 Q183.241 1050.35 186.181 1047.94 Q189.144 1045.53 194.283 1045.53 Q199.445 1045.53 202.385 1047.94 Q205.324 1050.35 205.324 1054.49 Q205.324 1057.45 203.635 1059.51 Q201.968 1061.57 198.982 1062.31 Q202.362 1063.1 204.237 1065.39 Q206.135 1067.68 206.135 1070.99 Q206.135 1076.02 203.056 1078.7 Q200 1081.39 194.283 1081.39 Q188.565 1081.39 185.487 1078.7 Q182.431 1076.02 182.431 1070.99 Q182.431 1067.68 184.329 1065.39 Q186.227 1063.1 189.607 1062.31 M187.894 1054.93 Q187.894 1057.62 189.561 1059.12 Q191.25 1060.62 194.283 1060.62 Q197.292 1060.62 198.982 1059.12 Q200.695 1057.62 200.695 1054.93 Q200.695 1052.24 198.982 1050.74 Q197.292 1049.24 194.283 1049.24 Q191.25 1049.24 189.561 1050.74 Q187.894 1052.24 187.894 1054.93 Z" fill="#000000" fill-rule="nonzero" fill-opacity="1" /><path clip-path="url(#clip400)" d="M144.26 704.145 L173.936 704.145 L173.936 708.081 L144.26 708.081 L144.26 704.145 Z" fill="#000000" fill-rule="nonzero" fill-opacity="1" /><path clip-path="url(#clip400)" d="M194.607 701.831 Q191.459 701.831 189.607 703.983 Q187.778 706.136 187.778 709.886 Q187.778 713.613 189.607 715.789 Q191.459 717.942 194.607 717.942 Q197.755 717.942 199.584 715.789 Q201.436 713.613 201.436 709.886 Q201.436 706.136 199.584 703.983 Q197.755 701.831 194.607 701.831 M203.889 687.178 L203.889 691.437 Q202.13 690.604 200.325 690.164 Q198.542 689.724 196.783 689.724 Q192.153 689.724 189.7 692.849 Q187.269 695.974 186.922 702.294 Q188.288 700.28 190.348 699.215 Q192.408 698.127 194.885 698.127 Q200.093 698.127 203.102 701.298 Q206.135 704.446 206.135 709.886 Q206.135 715.21 202.987 718.428 Q199.838 721.645 194.607 721.645 Q188.612 721.645 185.44 717.062 Q182.269 712.455 182.269 703.729 Q182.269 695.534 186.158 690.673 Q190.047 685.789 196.598 685.789 Q198.357 685.789 200.139 686.136 Q201.945 686.483 203.889 687.178 Z" fill="#000000" fill-rule="nonzero" fill-opacity="1" /><path clip-path="url(#clip400)" d="M143.936 344.402 L173.612 344.402 L173.612 348.338 L143.936 348.338 L143.936 344.402 Z" fill="#000000" fill-rule="nonzero" fill-opacity="1" /><path clip-path="url(#clip400)" d="M196.551 330.745 L184.746 349.194 L196.551 349.194 L196.551 330.745 M195.325 326.671 L201.204 326.671 L201.204 349.194 L206.135 349.194 L206.135 353.083 L201.204 353.083 L201.204 361.231 L196.551 361.231 L196.551 353.083 L180.95 353.083 L180.95 348.569 L195.325 326.671 Z" fill="#000000" fill-rule="nonzero" fill-opacity="1" /><path clip-path="url(#clip400)" d="M16.4842 816.375 L16.4842 786.329 L21.895 786.329 L21.895 809.945 L35.9632 809.945 L35.9632 787.315 L41.3741 787.315 L41.3741 809.945 L58.5933 809.945 L58.5933 785.756 L64.0042 785.756 L64.0042 816.375 L16.4842 816.375 Z" fill="#000000" fill-rule="nonzero" fill-opacity="1" /><path clip-path="url(#clip400)" d="M16.4842 775.189 L16.4842 768.759 L58.5933 768.759 L58.5933 745.62 L64.0042 745.62 L64.0042 775.189 L16.4842 775.189 Z" fill="#000000" fill-rule="nonzero" fill-opacity="1" /><path clip-path="url(#clip400)" d="M41.3104 732.443 L58.7206 732.443 L58.7206 722.13 Q58.7206 716.942 56.5881 714.46 Q54.4238 711.945 49.9996 711.945 Q45.5436 711.945 43.4429 714.46 Q41.3104 716.942 41.3104 722.13 L41.3104 732.443 M21.7677 732.443 L36.0905 732.443 L36.0905 722.926 Q36.0905 718.216 34.34 715.924 Q32.5576 713.6 28.9291 713.6 Q25.3325 713.6 23.5501 715.924 Q21.7677 718.216 21.7677 722.926 L21.7677 732.443 M16.4842 738.872 L16.4842 722.449 Q16.4842 715.096 19.5397 711.118 Q22.5952 707.139 28.2289 707.139 Q32.5894 707.139 35.1675 709.176 Q37.7456 711.213 38.3822 715.16 Q39.4007 710.418 42.6472 707.808 Q45.8619 705.166 50.6998 705.166 Q57.0655 705.166 60.5348 709.495 Q64.0042 713.823 64.0042 721.812 L64.0042 738.872 L16.4842 738.872 Z" fill="#000000" fill-rule="nonzero" fill-opacity="1" /><path clip-path="url(#clip400)" d="M20.8447 676.011 Q20.8447 683.013 26.0645 687.151 Q31.2844 691.257 40.2919 691.257 Q49.2675 691.257 54.4874 687.151 Q59.7073 683.013 59.7073 676.011 Q59.7073 669.009 54.4874 664.935 Q49.2675 660.829 40.2919 660.829 Q31.2844 660.829 26.0645 664.935 Q20.8447 669.009 20.8447 676.011 M15.6248 676.011 Q15.6248 666.017 22.3406 660.033 Q29.0246 654.049 40.2919 654.049 Q51.5274 654.049 58.2432 660.033 Q64.9272 666.017 64.9272 676.011 Q64.9272 686.037 58.2432 692.052 Q51.5592 698.036 40.2919 698.036 Q29.0246 698.036 22.3406 692.052 Q15.6248 686.037 15.6248 676.011 Z" fill="#000000" fill-rule="nonzero" fill-opacity="1" /><polyline clip-path="url(#clip402)" style="stroke:#009af9; stroke-linecap:round; stroke-linejoin:round; stroke-width:4; stroke-opacity:1; fill:none" points="301.869,1211.31 302.533,1282.75 303.197,1307.09 303.861,1099.26 304.525,929.559 305.189,1093.49 305.853,1236.81 306.517,1264.13 307.181,1029.52 307.845,1591.48 308.509,1320.28 309.173,1248.04 309.836,1130.91 310.5,1107.72 311.164,1322.49 311.828,1208.81 312.492,1323.99 313.156,1258.4 313.82,1068.01 314.484,976.113 315.148,999.32 315.812,855.573 316.476,777.945 317.14,503.663 317.804,316.904 318.468,188341 319.132,705.505 319.796,655.807 320.46,715.161 321.123,582.538 321.787,676.782 322.451,574.083 323.115,709.696 323.779,556.93 324.443,638.336 325.107,658.949 325.771,721.191 326.435,604.01 327.099,573.801 327.763,671.466 328.427,723.024 329.091,672.444 329.755,721.927 330.419,587.289 331.083,613.595 331.746,684.699 332.41,580.562 333.074,577.826 333.738,625.185 334.402,706.561 335.066,675.399 335.73,724.153 336.394,551.664 337.058,651.443 337.722,652.572 338.386,692.447 339.05,720.179 339.714,610.466 340.378,669.915 341.042,661.997 341.706,727.271 342.369,664.185 343.033,601.815 343.697,538.601 344.361,645.39 345.025,667.184 345.689,602.15 346.353,693.765 347.017,721.657 347.681,608.011 348.345,624.241 349.009,657.085 349.673,676.965 350.337,718.461 351.001,682.063 351.665,654.799 352.329,582.379 352.993,670.579 353.656,563.763 354.32,683.804 354.984,681.357 355.648,668.011 356.312,436.632 356.976,676.238 357.64,542.051 358.304,556.245 358.968,618.317 359.632,641.499 360.296,686.031 360.96,666.316 361.624,623.516 362.288,602.585 362.952,628.968 363.616,645.526 364.279,608.276 364.943,691.586 365.607,563.288 366.271,634.616 366.935,631.87 367.599,604.725 368.263,688.652 368.927,581.735 369.591,543.044 370.255,604.237 370.919,651.758 371.583,633.388 372.247,601.772 372.911,637.231 373.575,622.578 374.239,651.919 374.902,623.291 375.566,624.475 376.23,637.119 376.894,655.266 377.558,634.66 378.222,577.553 378.886,591.997 379.55,620.94 380.214,605.73 380.878,567.62 381.542,596.943 382.206,498.404 382.87,571.721 383.534,570.288 384.198,600.953 384.862,579.679 385.526,468.278 386.189,550.405 386.853,532.84 387.517,561.518 388.181,385.898 388.845,515.979 389.509,676.991 390.173,619.653 390.837,639.716 391.501,613.981 392.165,572.182 392.829,581.84 393.493,495.155 394.157,655.41 394.821,617.087 395.485,517.915 396.149,535.455 396.812,567.015 397.476,623.12 398.14,584.217 398.804,578.815 399.468,481.265 400.132,619.198 400.796,519.616 401.46,599.933 402.124,526.56 402.788,615.883 403.452,614.996 404.116,541.173 404.78,505.243 405.444,583.118 406.108,532.665 406.772,586.721 407.435,501.439 408.099,606.462 408.763,626.978 409.427,542.619 410.091,587.95 410.755,533.643 411.419,501.15 412.083,524.789 412.747,592.343 413.411,506.175 414.075,582.807 414.739,584.271 415.403,570.67 416.067,572.292 416.731,537.102 417.395,526.879 418.058,576.724 418.722,571.16 419.386,563.016 420.05,499 420.714,552.662 421.378,453.855 422.042,470.217 422.706,585.327 423.37,506.8 424.034,567.533 424.698,483.955 425.362,627.151 426.026,529.675 426.69,594.774 427.354,578.279 428.018,543.194 428.682,540.753 429.345,471.279 430.009,566.996 430.673,592.708 431.337,559.862 432.001,592.024 432.665,611.967 433.329,511.875 433.993,563.971 434.657,550.992 435.321,542.126 435.985,592.204 436.649,546.215 437.313,573.954 437.977,552.311 438.641,583.504 439.305,469.711 439.968,515.377 440.632,528.557 441.296,373.954 441.96,474.867 442.624,525.003 443.288,445.412 443.952,590.081 444.616,592.144 445.28,483.19 445.944,570.849 446.608,565.002 447.272,551.579 447.936,489.214 448.6,555.438 449.264,584.518 449.928,591.515 450.591,540.284 451.255,521.593 451.919,446.232 452.583,509.047 453.247,518.436 453.911,523.781 454.575,590.806 455.239,527.313 455.903,549.5 456.567,507.881 457.231,556.35 457.895,516.746 458.559,540.365 459.223,453.884 459.887,586.471 460.551,523.217 461.215,499.313 461.878,560.629 462.542,599.331 463.206,573.019 463.87,452.315 464.534,524.4 465.198,548.094 465.862,522.376 466.526,575.109 467.19,511.917 467.854,564.73 468.518,432.845 469.182,472.38 469.846,536.852 470.51,575.986 471.174,515.349 471.838,526.624 472.501,464.772 473.165,553.257 473.829,499.84 474.493,460.691 475.157,521.904 475.821,477.44 476.485,462.508 477.149,508.859 477.813,487.146 478.477,556.196 479.141,340.985 479.805,561.913 480.469,524.844 481.133,484.478 481.797,395.701 482.461,460.061 483.124,563.634 483.788,523.263 484.452,517.355 485.116,438.531 485.78,420.008 486.444,540.834 487.108,504.845 487.772,379.098 488.436,373.983 489.1,462.841 489.764,546.368 490.428,467.524 491.092,510.651 491.756,481.163 492.42,508.449 493.084,481.777 493.748,528.932 494.411,483.561 495.075,530.078 495.739,526.355 496.403,508.999 497.067,361.534 497.731,496.289 498.395,526.419 499.059,536.494 499.723,513.305 500.387,517.842 501.051,532.789 501.715,512.827 502.379,535.705 503.043,495.668 503.707,449.657 504.371,488.514 505.034,549.607 505.698,479.754 506.362,457.978 507.026,443.741 507.69,476.907 508.354,512.437 509.018,467.844 509.682,552.724 510.346,456.007 511.01,572.546 511.674,535.208 512.338,492.28 513.002,440.987 513.666,430.31 514.33,485.69 514.994,445.827 515.657,523.983 516.321,483.571 516.985,449.853 517.649,446.307 518.313,443.895 518.977,490.951 519.641,397.295 520.305,415.517 520.969,505.353 521.633,469.484 522.297,488.06 522.961,482.092 523.625,527.452 524.289,502.487 524.953,431.564 525.617,485.528 526.281,515.52 526.944,511.598 527.608,517.357 528.272,495.904 528.936,482.523 529.6,440.807 530.264,524.167 530.928,515.766 531.592,447.106 532.256,525.83 532.92,527.766 533.584,418.139 534.248,506.979 534.912,461.851 535.576,479.766 536.24,382.259 536.904,504.781 537.567,462.466 538.231,498.509 538.895,448.294 539.559,425.746 540.223,430.37 540.887,460.816 541.551,511.534 542.215,531.014 542.879,422.451 543.543,458.757 544.207,534.616 544.871,460.663 545.535,489.071 546.199,520.53 546.863,464.911 547.527,501.412 548.19,306.046 548.854,486.131 549.518,503.495 550.182,492.118 550.846,495.793 551.51,504.591 552.174,414.405 552.838,414.348 553.502,503.786 554.166,483.573 554.83,482.803 555.494,460.703 556.158,460.039 556.822,493.86 557.486,366.21 558.15,486.723 558.813,440.841 559.477,444.351 560.141,506.894 560.805,450.311 561.469,366.797 562.133,429.538 562.797,425.545 563.461,444.36 564.125,442.041 564.789,411.332 565.453,457.622 566.117,532.529 566.781,463.926 567.445,495.791 568.109,467.268 568.773,479.012 569.437,371.007 570.1,442.507 570.764,357.855 571.428,463.411 572.092,264.612 572.756,461.5 573.42,472.03 574.084,282.381 574.748,506.749 575.412,486.321 576.076,432.707 576.74,372.537 577.404,515.926 578.068,427.741 578.732,441.484 579.396,482.334 580.06,402.319 580.723,382.14 581.387,499.779 582.051,406.631 582.715,439.59 583.379,467.419 584.043,438.258 584.707,491.794 585.371,456.989 586.035,510.275 586.699,440.177 587.363,448.813 588.027,380.156 588.691,445.698 589.355,422.829 590.019,473.821 590.683,481.743 591.346,366.609 592.01,404.195 592.674,390.768 593.338,392.203 594.002,427.533 594.666,424.28 595.33,410.42 595.994,508.452 596.658,411.077 597.322,437.361 597.986,448.08 598.65,442.687 599.314,434.585 599.978,480.795 600.642,361.532 601.306,461.175 601.97,496.799 602.633,372.86 603.297,422.726 603.961,375.391 604.625,460.26 605.289,394.707 605.953,430.062 606.617,483.176 607.281,384.77 607.945,428.179 608.609,419.377 609.273,399.905 609.937,434.304 610.601,424.189 611.265,327.067 611.929,397.947 612.593,364.58 613.256,420.19 613.92,413.519 614.584,489.802 615.248,496.413 615.912,389.045 616.576,411.743 617.24,425.11 617.904,439.556 618.568,407.353 619.232,436.102 619.896,427.397 620.56,444.515 621.224,379.924 621.888,435.806 622.552,461.921 623.216,431.03 623.879,415.705 624.543,423.515 625.207,421.138 625.871,441.8 626.535,463.569 627.199,301.295 627.863,475.712 628.527,513.39 629.191,439.624 629.855,478.296 630.519,482.057 631.183,389.755 631.847,411.017 632.511,401.279 633.175,437.56 633.839,472.206 634.503,397.516 635.166,442.55 635.83,480.473 636.494,413.487 637.158,373.733 637.822,405.98 638.486,417.049 639.15,448.564 639.814,419.665 640.478,380.761 641.142,499.068 641.806,447.891 642.47,418.034 643.134,457.384 643.798,466.899 644.462,432.708 645.126,238.654 645.789,360.203 646.453,418.412 647.117,416.194 647.781,406.857 648.445,399.453 649.109,378.703 649.773,458.159 650.437,448.976 651.101,349.216 651.765,354.926 652.429,461.202 653.093,460.534 653.757,433.318 654.421,458.984 655.085,315.949 655.749,312.087 656.412,459.171 657.076,465.602 657.74,413.356 658.404,445.039 659.068,437.474 659.732,318.6 660.396,398.28 661.06,465.887 661.724,404.172 662.388,359.9 663.052,412.554 663.716,446.029 664.38,390.087 665.044,463.673 665.708,445.758 666.372,384.867 667.036,404.889 667.699,414.618 668.363,448.82 669.027,427.29 669.691,463.528 670.355,435.505 671.019,470.487 671.683,388.024 672.347,355.767 673.011,393.35 673.675,354.497 674.339,361.695 675.003,421.763 675.667,425.733 676.331,396.682 676.995,267.027 677.659,378.428 678.322,390.069 678.986,434.588 679.65,471.756 680.314,421.81 680.978,438.232 681.642,428.579 682.306,440.123 682.97,397.298 683.634,364.292 684.298,467.184 684.962,401.25 685.626,438.249 686.29,401.302 686.954,435.593 687.618,402.593 688.282,414.089 688.945,455.319 689.609,409.97 690.273,478.12 690.937,363.306 691.601,438.333 692.265,385.493 692.929,432.96 693.593,437.301 694.257,410.566 694.921,321.094 695.585,356.223 696.249,443.617 696.913,324.238 697.577,321.272 698.241,467.601 698.905,461.815 699.569,457.299 700.232,442.696 700.896,477.312 701.56,374.076 702.224,417.174 702.888,392.688 703.552,343.737 704.216,477.932 704.88,460.91 705.544,398.805 706.208,426.792 706.872,430.648 707.536,477.134 708.2,400.172 708.864,262.933 709.528,391.143 710.192,402.903 710.855,448.891 711.519,396.433 712.183,417.591 712.847,429.225 713.511,305.383 714.175,380.699 714.839,369.859 715.503,454.065 716.167,398.206 716.831,342.478 717.495,473.93 718.159,441.6 718.823,459.496 719.487,387.032 720.151,323.168 720.815,438.846 721.478,428.811 722.142,452.782 722.806,353.236 723.47,297.69 724.134,420.999 724.798,419.878 725.462,355.755 726.126,430.654 726.79,452.64 727.454,293.84 728.118,394.154 728.782,377.089 729.446,426.45 730.11,436.842 730.774,350.518 731.438,434.613 732.101,289.933 732.765,318.78 733.429,294.758 734.093,453.125 734.757,398.296 735.421,403.269 736.085,336.285 736.749,403.119 737.413,373.562 738.077,400.69 738.741,295.142 739.405,431.763 740.069,295.881 740.733,387.401 741.397,430.846 742.061,397.371 742.725,399.973 743.388,407.73 744.052,446.85 744.716,461.146 745.38,437.793 746.044,460.66 746.708,425.415 747.372,367.882 748.036,448.484 748.7,314.344 749.364,437.759 750.028,426.173 750.692,465.507 751.356,365.122 752.02,329.552 752.684,424.143 753.348,390.167 754.011,384.528 754.675,361.168 755.339,370.544 756.003,398.789 756.667,360.103 757.331,353.743 757.995,361.846 758.659,367.955 759.323,358.699 759.987,426.998 760.651,341.721 761.315,338.186 761.979,370.489 762.643,320.252 763.307,373.685 763.971,361.217 764.634,412.367 765.298,400.8 765.962,368.122 766.626,445.131 767.29,364.977 767.954,422.947 768.618,403.517 769.282,364.528 769.946,398.436 770.61,362.946 771.274,435.516 771.938,322.533 772.602,393.791 773.266,411.926 773.93,414.731 774.594,428.154 775.258,383.048 775.921,415.362 776.585,401.398 777.249,327.673 777.913,394.01 778.577,322.333 779.241,339.933 779.905,364.134 780.569,338.63 781.233,436.805 781.897,429.093 782.561,309.5 783.225,447.285 783.889,318.315 784.553,310.95 785.217,405.575 785.881,402.301 786.544,298.273 787.208,441.892 787.872,378.901 788.536,354.083 789.2,347.275 789.864,417.899 790.528,384.459 791.192,334.918 791.856,409.332 792.52,395.312 793.184,424.941 793.848,340.255 794.512,442.958 795.176,318.229 795.84,380.616 796.504,309.217 797.167,455.542 797.831,377.215 798.495,330.153 799.159,387.77 799.823,420.947 800.487,346.851 801.151,446.04 801.815,375.988 802.479,452.744 803.143,356.286 803.807,408.997 804.471,387.098 805.135,399.721 805.799,416.281 806.463,386.566 807.127,417.811 807.791,444.181 808.454,347.332 809.118,389.94 809.782,371.601 810.446,360.205 811.11,379.596 811.774,333.157 812.438,353.648 813.102,432.595 813.766,344.331 814.43,372.247 815.094,338.294 815.758,401.264 816.422,408.456 817.086,405.905 817.75,353.545 818.414,311.204 819.077,415.176 819.741,334.035 820.405,377.508 821.069,380.012 821.733,382.482 822.397,381.533 823.061,390.011 823.725,270.795 824.389,358.063 825.053,436.584 825.717,421.107 826.381,418.356 827.045,317.033 827.709,422.631 828.373,371.548 829.037,389.172 829.7,372.616 830.364,400.95 831.028,369.228 831.692,410.127 832.356,383.739 833.02,427.627 833.684,385.721 834.348,339.529 835.012,393.194 835.676,367.241 836.34,363.753 837.004,328.992 837.668,338 838.332,431.455 838.996,428.86 839.66,427.553 840.324,376.694 840.987,425.869 841.651,322.512 842.315,392.179 842.979,340.878 843.643,384.867 844.307,408.299 844.971,413.93 845.635,275.089 846.299,344.493 846.963,339.235 847.627,345.539 848.291,365.711 848.955,404.755 849.619,440.342 850.283,426.324 850.947,390.344 851.61,391.604 852.274,341.73 852.938,373.055 853.602,331.43 854.266,263.721 854.93,333.518 855.594,379.964 856.258,437.73 856.922,425.501 857.586,421.808 858.25,401.504 858.914,392.334 859.578,270.846 860.242,387.164 860.906,375.113 861.57,374.51 862.233,422.105 862.897,368.913 863.561,339.787 864.225,392.477 864.889,302.424 865.553,438.534 866.217,337.169 866.881,427.047 867.545,320.376 868.209,338.99 868.873,453.331 869.537,418.748 870.201,379.081 870.865,368.452 871.529,399.257 872.193,353.683 872.856,364.88 873.52,353.404 874.184,323.23 874.848,416.538 875.512,305.837 876.176,422.351 876.84,417.416 877.504,380.844 878.168,356.321 878.832,353.688 879.496,387.887 880.16,434.23 880.824,351.515 881.488,317.312 882.152,420.225 882.816,410.377 883.48,415.395 884.143,345.503 884.807,410.435 885.471,364.852 886.135,394.248 886.799,437.867 887.463,342.424 888.127,322.984 888.791,404.311 889.455,384.043 890.119,407.716 890.783,427.217 891.447,390.391 892.111,321.599 892.775,344.478 893.439,387.953 894.103,322.138 894.766,371.425 895.43,363.671 896.094,427.752 896.758,311.814 897.422,275.384 898.086,320.069 898.75,429.109 899.414,304.93 900.078,419.738 900.742,406.742 901.406,419.777 902.07,324.545 902.734,319.793 903.398,392.532 904.062,425.013 904.726,399.602 905.389,358.969 906.053,402.913 906.717,294.139 907.381,387.173 908.045,307.163 908.709,309.277 909.373,432.995 910.037,373.588 910.701,328.954 911.365,255.385 912.029,293.165 912.693,457.787 913.357,366.636 914.021,430.959 914.685,381.425 915.349,379.756 916.013,161.808 916.676,329.557 917.34,375.578 918.004,344.436 918.668,397.042 919.332,372.117 919.996,378.684 920.66,376.792 921.324,385.273 921.988,381.797 922.652,403.082 923.316,424.696 923.98,433.445 924.644,350.13 925.308,354.734 925.972,388.254 926.636,407.457 927.299,403.139 927.963,386.906 928.627,343.726 929.291,422.259 929.955,324.646 930.619,383.515 931.283,395.556 931.947,385.46 932.611,391.151 933.275,400.773 933.939,387.22 934.603,302.097 935.267,368.47 935.931,407.066 936.595,388.214 937.259,368.741 937.922,437.546 938.586,397.746 939.25,393.895 939.914,371.441 940.578,331.717 941.242,367.99 941.906,338.314 942.57,391.691 943.234,353.904 943.898,328.844 944.562,370.903 945.226,239.725 945.89,398.124 946.554,431.546 947.218,400.075 947.882,397.706 948.546,312.567 949.209,418.109 949.873,302.634 950.537,382.242 951.201,428.474 951.865,388.173 952.529,401.909 953.193,276.482 953.857,327.443 954.521,384.17 955.185,294.497 955.849,407.848 956.513,334.825 957.177,413.423 957.841,334.363 958.505,363.151 959.169,429.556 959.832,416.589 960.496,358.085 961.16,367.302 961.824,247.732 962.488,412.515 963.152,419.766 963.816,352.799 964.48,367.438 965.144,246.843 965.808,385.464 966.472,384.266 967.136,318 967.8,386.372 968.464,338.006 969.128,388.67 969.792,422.455 970.455,403.476 971.119,403.722 971.783,431.856 972.447,411.441 973.111,408.004 973.775,355.341 974.439,320.689 975.103,362.713 975.767,394.735 976.431,382.421 977.095,322.307 977.759,399.578 978.423,360.17 979.087,376.261 979.751,365.663 980.415,344.594 981.079,387.026 981.742,378.292 982.406,353.098 983.07,365.969 983.734,332.523 984.398,417.201 985.062,371.862 985.726,425.613 986.39,343.15 987.054,347.142 987.718,349.011 988.382,355.85 989.046,396.84 989.71,368.054 990.374,413.561 991.038,320.299 991.702,386.958 992.365,388.282 993.029,374.815 993.693,313.305 994.357,425.817 995.021,329.297 995.685,371.16 996.349,401.039 997.013,338.327 997.677,370.83 998.341,383.132 999.005,325.753 999.669,372.864 1000.33,382.638 1001,298.377 1001.66,277.38 1002.32,328.253 1002.99,250.618 1003.65,432.455 1004.32,372.995 1004.98,367.136 1005.64,323.97 1006.31,390.963 1006.97,381.247 1007.64,229.625 1008.3,412.218 1008.96,350.973 1009.63,329.006 1010.29,368.708 1010.96,320.976 1011.62,421.906 1012.28,362.181 1012.95,406.043 1013.61,372.457 1014.28,402.567 1014.94,385.289 1015.6,336.871 1016.27,324.832 1016.93,423.689 1017.6,376.797 1018.26,360.702 1018.92,362.371 1019.59,260.462 1020.25,285.136 1020.91,362.069 1021.58,389.13 1022.24,423.169 1022.91,385.307 1023.57,411.2 1024.23,331.427 1024.9,375.841 1025.56,324.069 1026.23,351.167 1026.89,352.023 1027.55,385.028 1028.22,281.84 1028.88,391.674 1029.55,395.265 1030.21,298.59 1030.87,405.181 1031.54,396.871 1032.2,415.758 1032.87,367.099 1033.53,387.824 1034.19,369.291 1034.86,403.756 1035.52,364.558 1036.19,306.835 1036.85,397.603 1037.51,270.162 1038.18,374.833 1038.84,374.483 1039.51,334.186 1040.17,421.521 1040.83,243.697 1041.5,425.195 1042.16,331.738 1042.82,418.075 1043.49,393.913 1044.15,310.628 1044.82,257.393 1045.48,304.434 1046.14,390.554 1046.81,413.665 1047.47,365.225 1048.14,396.65 1048.8,348.937 1049.46,302.955 1050.13,396.597 1050.79,390.38 1051.46,413.28 1052.12,363.011 1052.78,304.498 1053.45,351.559 1054.11,358.482 1054.78,377.722 1055.44,389.289 1056.1,310.17 1056.77,326.092 1057.43,370.746 1058.1,380.425 1058.76,404.965 1059.42,289.686 1060.09,284.15 1060.75,351.662 1061.42,324.937 1062.08,369.549 1062.74,338.621 1063.41,328.263 1064.07,320.563 1064.73,282.659 1065.4,310.993 1066.06,248.24 1066.73,187.53 1067.39,406.63 1068.05,382.251 1068.72,341.265 1069.38,248.687 1070.05,353.513 1070.71,325.769 1071.37,312.946 1072.04,352.211 1072.7,411.001 1073.37,333.735 1074.03,301.764 1074.69,377.258 1075.36,303.591 1076.02,424.364 1076.69,375.871 1077.35,378.646 1078.01,297.83 1078.68,413.949 1079.34,305.872 1080.01,367.801 1080.67,406.211 1081.33,357.955 1082,300.443 1082.66,374.448 1083.33,338.025 1083.99,289.642 1084.65,297.103 1085.32,294.739 1085.98,408.493 1086.64,305.093 1087.31,349.767 1087.97,337.48 1088.64,306.619 1089.3,374.402 1089.96,310.213 1090.63,344.828 1091.29,387.961 1091.96,313.432 1092.62,385.854 1093.28,368.09 1093.95,356.646 1094.61,393.646 1095.28,356.681 1095.94,362.683 1096.6,368.255 1097.27,374.596 1097.93,379.565 1098.6,280.227 1099.26,355.601 1099.92,350.3 1100.59,398.73 1101.25,367.756 1101.92,377.488 1102.58,386.583 1103.24,380.689 1103.91,359.865 1104.57,296.577 1105.24,352.256 1105.9,343.392 1106.56,394.645 1107.23,300.974 1107.89,363.965 1108.55,340.407 1109.22,377.768 1109.88,314.426 1110.55,267.414 1111.21,335.845 1111.87,309.491 1112.54,376.026 1113.2,339.198 1113.87,306.47 1114.53,387.863 1115.19,323.773 1115.86,296.572 1116.52,407.497 1117.19,344.828 1117.85,337.192 1118.51,375.353 1119.18,343.702 1119.84,376.203 1120.51,351.044 1121.17,365.185 1121.83,336.681 1122.5,385.509 1123.16,421.54 1123.83,316.454 1124.49,393.969 1125.15,419.342 1125.82,337.446 1126.48,401.269 1127.15,350.416 1127.81,346.067 1128.47,346.588 1129.14,252.569 1129.8,401.801 1130.46,347.581 1131.13,377.062 1131.79,361.014 1132.46,347.471 1133.12,290.201 1133.78,344.725 1134.45,276.016 1135.11,384.441 1135.78,316.882 1136.44,345.774 1137.1,300.739 1137.77,347.383 1138.43,381.262 1139.1,340.834 1139.76,324.401 1140.42,364.076 1141.09,337.714 1141.75,299.349 1142.42,346.873 1143.08,373.254 1143.74,410.931 1144.41,148.884 1145.07,395.912 1145.74,284.685 1146.4,282.591 1147.06,252.179 1147.73,389.164 1148.39,322.932 1149.05,374.29 1149.72,258.409 1150.38,332.707 1151.05,332.826 1151.71,276.606 1152.37,344.795 1153.04,266.223 1153.7,218.58 1154.37,375.265 1155.03,390.263 1155.69,376.066 1156.36,355.624 1157.02,394.132 1157.69,340.681 1158.35,299.203 1159.01,291.018 1159.68,400.447 1160.34,378.513 1161.01,336.728 1161.67,350.92 1162.33,387.961 1163,291.712 1163.66,312.157 1164.33,375.816 1164.99,367.561 1165.65,293.191 1166.32,319.7 1166.98,345.451 1167.65,373.095 1168.31,346.234 1168.97,364.046 1169.64,288.474 1170.3,358.763 1170.96,338.092 1171.63,395.776 1172.29,340.929 1172.96,245.152 1173.62,389.548 1174.28,373.245 1174.95,293.594 1175.61,334.011 1176.28,285.947 1176.94,317.208 1177.6,402.831 1178.27,332.002 1178.93,383.244 1179.6,333.473 1180.26,364.816 1180.92,379.962 1181.59,405.035 1182.25,156.871 1182.92,345.278 1183.58,382.723 1184.24,334.64 1184.91,363.912 1185.57,369.59 1186.24,370.289 1186.9,336.245 1187.56,346.847 1188.23,335.474 1188.89,271.753 1189.56,397.328 1190.22,375.512 1190.88,354.672 1191.55,377.573 1192.21,343.453 1192.87,331.487 1193.54,360.834 1194.2,365.393 1194.87,370.539 1195.53,376.463 1196.19,362.416 1196.86,319.228 1197.52,298.513 1198.19,374.159 1198.85,371.964 1199.51,161.917 1200.18,344.254 1200.84,374.131 1201.51,340.536 1202.17,376.494 1202.83,357.298 1203.5,333.522 1204.16,354.553 1204.83,391.537 1205.49,367.235 1206.15,363.892 1206.82,288.5 1207.48,282.897 1208.15,303.7 1208.81,268.968 1209.47,266.024 1210.14,226.3 1210.8,312.786 1211.47,277.124 1212.13,298.872 1212.79,329.283 1213.46,348.639 1214.12,335.045 1214.78,392.339 1215.45,302.852 1216.11,324.577 1216.78,352.329 1217.44,429.83 1218.1,322.905 1218.77,320.215 1219.43,387.633 1220.1,375.433 1220.76,397.565 1221.42,332.941 1222.09,362.681 1222.75,412.258 1223.42,275.446 1224.08,359.028 1224.74,245.822 1225.41,369.593 1226.07,288.912 1226.74,281.228 1227.4,291.523 1228.06,292.416 1228.73,287.431 1229.39,344.636 1230.06,323.02 1230.72,367.565 1231.38,398.984 1232.05,348.575 1232.71,338.17 1233.38,360.609 1234.04,400.905 1234.7,363.671 1235.37,237.332 1236.03,326.541 1236.69,360.614 1237.36,348.511 1238.02,312.43 1238.69,346.078 1239.35,335.274 1240.01,300.145 1240.68,375.711 1241.34,301.045 1242.01,362.522 1242.67,274.431 1243.33,349.608 1244,248.144 1244.66,359.253 1245.33,360.743 1245.99,344.235 1246.65,316.211 1247.32,330.224 1247.98,370.858 1248.65,420.681 1249.31,408.647 1249.97,325.131 1250.64,287.822 1251.3,370.219 1251.97,344.793 1252.63,366.833 1253.29,293.219 1253.96,364.092 1254.62,337.103 1255.29,330.578 1255.95,261.54 1256.61,365.407 1257.28,387.781 1257.94,278.319 1258.6,366.584 1259.27,358.481 1259.93,394.044 1260.6,331.406 1261.26,336.615 1261.92,321.191 1262.59,314.238 1263.25,281.233 1263.92,317.453 1264.58,223.138 1265.24,318.631 1265.91,383.027 1266.57,353.825 1267.24,334.562 1267.9,379.46 1268.56,338.084 1269.23,344.457 1269.89,348.2 1270.56,417.523 1271.22,316.826 1271.88,391.448 1272.55,277.911 1273.21,328.615 1273.88,283.574 1274.54,337.809 1275.2,266.6 1275.87,288.954 1276.53,317.54 1277.2,386.163 1277.86,324.824 1278.52,356.545 1279.19,358.757 1279.85,326.06 1280.51,329.281 1281.18,345.73 1281.84,303.016 1282.51,320.008 1283.17,336.737 1283.83,395.774 1284.5,386.038 1285.16,300.152 1285.83,223.862 1286.49,197.529 1287.15,348.88 1287.82,347.389 1288.48,367.059 1289.15,217.71 1289.81,352.364 1290.47,315.836 1291.14,261.963 1291.8,283.968 1292.47,352.288 1293.13,317.775 1293.79,292.74 1294.46,272.465 1295.12,322.68 1295.79,280.398 1296.45,346.427 1297.11,355.078 1297.78,389.353 1298.44,380.276 1299.11,358.538 1299.77,352.478 1300.43,323.884 1301.1,252.852 1301.76,289.365 1302.42,367.169 1303.09,359.071 1303.75,397.953 1304.42,390.053 1305.08,404.842 1305.74,320.068 1306.41,372.524 1307.07,283.589 1307.74,385.726 1308.4,374.553 1309.06,328.094 1309.73,369.554 1310.39,358.084 1311.06,385.124 1311.72,331.609 1312.38,367.294 1313.05,385.278 1313.71,323.668 1314.38,357.891 1315.04,315.627 1315.7,215.666 1316.37,359.81 1317.03,313.113 1317.7,357.756 1318.36,354.455 1319.02,395.463 1319.69,368.911 1320.35,343.348 1321.02,291.797 1321.68,254.333 1322.34,351.792 1323.01,338.708 1323.67,379.043 1324.33,370.202 1325,312.631 1325.66,368.932 1326.33,330.187 1326.99,307.3 1327.65,289.724 1328.32,381.22 1328.98,358.308 1329.65,315.415 1330.31,321.72 1330.97,344.958 1331.64,282.842 1332.3,358.978 1332.97,360.352 1333.63,357.748 1334.29,344.141 1334.96,274.761 1335.62,361.872 1336.29,248.092 1336.95,388.158 1337.61,304.124 1338.28,348.938 1338.94,308.824 1339.61,335.427 1340.27,363.069 1340.93,267.79 1341.6,364.047 1342.26,370.492 1342.93,209.379 1343.59,286.119 1344.25,373.946 1344.92,338.334 1345.58,321.374 1346.24,337.395 1346.91,397.912 1347.57,337.131 1348.24,372.117 1348.9,289.308 1349.56,342.171 1350.23,338.341 1350.89,335.328 1351.56,348.358 1352.22,362.925 1352.88,280.554 1353.55,297.559 1354.21,323.786 1354.88,302.49 1355.54,432.514 1356.2,364.532 1356.87,235.349 1357.53,353.15 1358.2,360.09 1358.86,375.803 1359.52,397.644 1360.19,242.12 1360.85,389.951 1361.52,295.261 1362.18,349.866 1362.84,397.406 1363.51,287.206 1364.17,386.936 1364.84,288 1365.5,314.424 1366.16,371.638 1366.83,296.708 1367.49,354.563 1368.15,325.349 1368.82,365.291 1369.48,362.497 1370.15,317.378 1370.81,292.521 1371.47,348.867 1372.14,393.779 1372.8,308.735 1373.47,358.539 1374.13,314.411 1374.79,336.371 1375.46,336.052 1376.12,392.916 1376.79,309.723 1377.45,344.211 1378.11,362.14 1378.78,363.225 1379.44,265.22 1380.11,308.365 1380.77,356.221 1381.43,388.941 1382.1,325.336 1382.76,319.088 1383.43,354.785 1384.09,317.993 1384.75,320.095 1385.42,254.153 1386.08,179.87 1386.75,329.207 1387.41,281.473 1388.07,345.065 1388.74,348.539 1389.4,374.362 1390.06,280.078 1390.73,333.652 1391.39,300.289 1392.06,255.011 1392.72,365.814 1393.38,309.274 1394.05,321.56 1394.71,279.309 1395.38,324.595 1396.04,269.17 1396.7,349.9 1397.37,307.759 1398.03,337.973 1398.7,264.927 1399.36,288.582 1400.02,309.694 1400.69,286.995 1401.35,344.688 1402.02,301.599 1402.68,362.736 1403.34,405.259 1404.01,275.474 1404.67,344.217 1405.34,328.016 1406,250.852 1406.66,353.303 1407.33,254.403 1407.99,321.337 1408.66,338.918 1409.32,340.361 1409.98,279.833 1410.65,322.076 1411.31,351.345 1411.97,415.85 1412.64,244.982 1413.3,346.021 1413.97,337.05 1414.63,364.503 1415.29,364.013 1415.96,335.657 1416.62,307.424 1417.29,371.695 1417.95,321.696 1418.61,341.765 1419.28,349.39 1419.94,348.726 1420.61,331.075 1421.27,269.974 1421.93,332.749 1422.6,203.195 1423.26,321.37 1423.93,328.697 1424.59,374.466 1425.25,326.644 1425.92,360.45 1426.58,311.192 1427.25,359.791 1427.91,263.887 1428.57,314.862 1429.24,358.707 1429.9,403.725 1430.56,387.757 1431.23,391.137 1431.89,371.623 1432.56,327.484 1433.22,342.686 1433.88,356.431 1434.55,304.577 1435.21,293.097 1435.88,339.059 1436.54,311.218 1437.2,167.218 1437.87,371.037 1438.53,256.261 1439.2,311.945 1439.86,352.033 1440.52,330.601 1441.19,338.179 1441.85,348.011 1442.52,344.631 1443.18,377.51 1443.84,295.073 1444.51,377.609 1445.17,336.796 1445.84,257.124 1446.5,397.931 1447.16,361.77 1447.83,378.834 1448.49,286.269 1449.16,378.8 1449.82,233.168 1450.48,374.372 1451.15,221.089 1451.81,356.271 1452.47,328.088 1453.14,281.834 1453.8,349.821 1454.47,332.071 1455.13,312.616 1455.79,326.94 1456.46,361.257 1457.12,340.606 1457.79,320.248 1458.45,322.65 1459.11,356.75 1459.78,330.796 1460.44,237.088 1461.11,302.756 1461.77,386.017 1462.43,346.169 1463.1,362.307 1463.76,332.953 1464.43,340.596 1465.09,399.07 1465.75,271.983 1466.42,371.061 1467.08,354.095 1467.75,340.476 1468.41,215.147 1469.07,350.384 1469.74,353.236 1470.4,347.676 1471.07,324.073 1471.73,313.364 1472.39,245.21 1473.06,323.306 1473.72,348.767 1474.38,271.839 1475.05,282.305 1475.71,326.574 1476.38,325.97 1477.04,303.566 1477.7,334.162 1478.37,298.614 1479.03,256.877 1479.7,237.646 1480.36,314.507 1481.02,361.505 1481.69,326.578 1482.35,334.387 1483.02,310.199 1483.68,337.751 1484.34,387.18 1485.01,263.584 1485.67,251.223 1486.34,314.897 1487,347.751 1487.66,344.475 1488.33,237.171 1488.99,295.385 1489.66,276.381 1490.32,305.137 1490.98,285.171 1491.65,353.465 1492.31,320.932 1492.98,340.756 1493.64,352.289 1494.3,319.388 1494.97,264.39 1495.63,328.957 1496.29,357.066 1496.96,362.326 1497.62,315.325 1498.29,304.763 1498.95,305.267 1499.61,340.277 1500.28,360.98 1500.94,318.675 1501.61,335.046 1502.27,187.423 1502.93,335.272 1503.6,301.867 1504.26,234.29 1504.93,292.821 1505.59,295.539 1506.25,360.84 1506.92,322.609 1507.58,190.883 1508.25,318.098 1508.91,314.702 1509.57,333.083 1510.24,354.04 1510.9,301.096 1511.57,271.396 1512.23,292.265 1512.89,252.426 1513.56,336.157 1514.22,352.041 1514.89,320.432 1515.55,381.029 1516.21,365.286 1516.88,269.117 1517.54,288.095 1518.2,365.344 1518.87,284.729 1519.53,338.185 1520.2,303.955 1520.86,327.236 1521.52,321.255 1522.19,307.144 1522.85,298.035 1523.52,335.325 1524.18,313.328 1524.84,370.94 1525.51,323.446 1526.17,328.224 1526.84,204.063 1527.5,297.049 1528.16,303.65 1528.83,251.949 1529.49,331.303 1530.16,365.345 1530.82,293.982 1531.48,381.52 1532.15,311.174 1532.81,251.374 1533.48,309.187 1534.14,251.682 1534.8,368.667 1535.47,310.273 1536.13,356.271 1536.8,288.143 1537.46,311.428 1538.12,354.818 1538.79,358.569 1539.45,249.589 1540.11,342.525 1540.78,281.484 1541.44,276.092 1542.11,319.59 1542.77,266.385 1543.43,357.887 1544.1,352.387 1544.76,314.719 1545.43,291.429 1546.09,318.121 1546.75,297.83 1547.42,383.787 1548.08,378.136 1548.75,348.844 1549.41,283.894 1550.07,290.096 1550.74,351.378 1551.4,337.41 1552.07,329.293 1552.73,302.561 1553.39,340.638 1554.06,331.602 1554.72,177.387 1555.39,326.307 1556.05,284.896 1556.71,336.306 1557.38,380.59 1558.04,325.877 1558.71,341.008 1559.37,364.34 1560.03,316.535 1560.7,351.748 1561.36,329.974 1562.02,356.922 1562.69,313.592 1563.35,262.324 1564.02,346.274 1564.68,290.259 1565.34,328.754 1566.01,303.36 1566.67,329.894 1567.34,340.338 1568,288.7 1568.66,329.813 1569.33,287.259 1569.99,336.952 1570.66,320.904 1571.32,331.455 1571.98,312.794 1572.65,349.876 1573.31,389.375 1573.98,317.076 1574.64,345.648 1575.3,357.895 1575.97,253.71 1576.63,313.624 1577.3,302.289 1577.96,330.07 1578.62,318.19 1579.29,312.545 1579.95,302.85 1580.62,386.329 1581.28,275.49 1581.94,361.928 1582.61,357.41 1583.27,356.639 1583.93,358.172 1584.6,287.145 1585.26,298.925 1585.93,308.165 1586.59,298.381 1587.25,185.038 1587.92,290.78 1588.58,299.479 1589.25,309.076 1589.91,342.268 1590.57,258.351 1591.24,301.686 1591.9,314.087 1592.57,325.258 1593.23,323.322 1593.89,357.664 1594.56,346.245 1595.22,303.526 1595.89,320.406 1596.55,302.071 1597.21,266.385 1597.88,304.603 1598.54,338.592 1599.21,298.579 1599.87,340.693 1600.53,344.961 1601.2,360.584 1601.86,216.835 1602.53,327.177 1603.19,260.637 1603.85,272.369 1604.52,363.873 1605.18,291.562 1605.84,247.048 1606.51,393.035 1607.17,218.378 1607.84,298.671 1608.5,292.196 1609.16,351.365 1609.83,271.829 1610.49,271.092 1611.16,348.769 1611.82,381.322 1612.48,215.945 1613.15,318.997 1613.81,298.182 1614.48,310.903 1615.14,245.705 1615.8,336.739 1616.47,250.466 1617.13,333.654 1617.8,251.854 1618.46,345.915 1619.12,346.314 1619.79,241.292 1620.45,345.129 1621.12,331.474 1621.78,280.886 1622.44,330.329 1623.11,339.481 1623.77,258.296 1624.44,303.172 1625.1,274.946 1625.76,299.461 1626.43,425.344 1627.09,303.475 1627.75,275.386 1628.42,340.358 1629.08,253.008 1629.75,332.748 1630.41,333.25 1631.07,405.062 1631.74,353.426 1632.4,311.668 1633.07,353.373 1633.73,217.968 1634.39,315.136 1635.06,382.078 1635.72,320.332 1636.39,336.283 1637.05,323.309 1637.71,227.029 1638.38,284.712 1639.04,330.222 1639.71,319.031 1640.37,312.104 1641.03,328.043 1641.7,245.694 1642.36,301.051 1643.03,283.909 1643.69,341.084 1644.35,317.885 1645.02,301.619 1645.68,294.287 1646.35,324.001 1647.01,337.741 1647.67,271.069 1648.34,339.134 1649,362.601 1649.66,349.772 1650.33,243.703 1650.99,376.925 1651.66,266 1652.32,357.694 1652.98,296.407 1653.65,314.94 1654.31,294.512 1654.98,301.831 1655.64,302.725 1656.3,298.762 1656.97,280.602 1657.63,349.619 1658.3,47.2441 1658.96,329.781 1659.62,309.334 1660.29,252.79 1660.95,359.281 1661.62,289.384 1662.28,322.203 1662.94,297.411 1663.61,260.512 1664.27,261.525 1664.94,351.767 1665.6,323.688 1666.26,358.822 1666.93,332.065 1667.59,170.349 1668.26,300.678 1668.92,345.698 1669.58,341.892 1670.25,323.507 1670.91,332.92 1671.57,288.16 1672.24,210.635 1672.9,283.12 1673.57,311.796 1674.23,338.371 1674.89,306.47 1675.56,239.097 1676.22,312.101 1676.89,351.533 1677.55,337.13 1678.21,318.623 1678.88,371.333 1679.54,323.769 1680.21,284.956 1680.87,317.901 1681.53,368.487 1682.2,323.608 1682.86,362.598 1683.53,368.108 1684.19,369.284 1684.85,280.536 1685.52,234.633 1686.18,312.918 1686.85,295.546 1687.51,259.917 1688.17,300.702 1688.84,332.198 1689.5,373.16 1690.17,294.442 1690.83,269.332 1691.49,348.789 1692.16,391.116 1692.82,247.699 1693.48,337.342 1694.15,326.548 1694.81,264.223 1695.48,310.811 1696.14,317.9 1696.8,251.396 1697.47,308.831 1698.13,372.391 1698.8,314.51 1699.46,303.147 1700.12,333.558 1700.79,292.25 1701.45,364.695 1702.12,353.345 1702.78,343.528 1703.44,53.3564 1704.11,364.973 1704.77,316.295 1705.44,261.055 1706.1,213.7 1706.76,331.616 1707.43,305.816 1708.09,342.376 1708.76,261.258 1709.42,346.52 1710.08,337.135 1710.75,366.457 1711.41,298.969 1712.07,357.622 1712.74,299.316 1713.4,320.186 1714.07,259.504 1714.73,275.126 1715.39,295.359 1716.06,310.07 1716.72,323.229 1717.39,295.725 1718.05,342.61 1718.71,263.688 1719.38,348.743 1720.04,273.864 1720.71,301.092 1721.37,348.034 1722.03,299.208 1722.7,344.868 1723.36,300.813 1724.03,230.391 1724.69,358.737 1725.35,276.371 1726.02,302.342 1726.68,268.054 1727.35,272.497 1728.01,255.735 1728.67,267.876 1729.34,326.821 1730,375.082 1730.67,215.305 1731.33,291.269 1731.99,278.758 1732.66,329.347 1733.32,315.901 1733.98,318.696 1734.65,326.238 1735.31,325.521 1735.98,248.032 1736.64,316.789 1737.3,306.716 1737.97,385.743 1738.63,355.188 1739.3,338.549 1739.96,350.48 1740.62,279.977 1741.29,301.058 1741.95,307.087 1742.62,387.001 1743.28,311.008 1743.94,332.934 1744.61,249.277 1745.27,338.197 1745.94,258.247 1746.6,367.41 1747.26,291.676 1747.93,316.666 1748.59,358.203 1749.26,306.823 1749.92,329.621 1750.58,279.428 1751.25,335.845 1751.91,308.15 1752.58,338.578 1753.24,323.922 1753.9,314.549 1754.57,306.834 1755.23,339.616 1755.89,265.332 1756.56,341.469 1757.22,343.873 1757.89,314.433 1758.55,285.782 1759.21,280.304 1759.88,334.6 1760.54,324.483 1761.21,312.45 1761.87,296.718 1762.53,331.894 1763.2,329.8 1763.86,217.332 1764.53,348.793 1765.19,266.028 1765.85,351.231 1766.52,304.084 1767.18,320.83 1767.85,234.077 1768.51,293.419 1769.17,257.161 1769.84,314.74 1770.5,215.735 1771.17,273.305 1771.83,290.989 1772.49,270.358 1773.16,284.099 1773.82,326.771 1774.49,319.278 1775.15,322.965 1775.81,348.086 1776.48,259.743 1777.14,308.42 1777.8,188.63 1778.47,323.372 1779.13,274.874 1779.8,310.8 1780.46,386.131 1781.12,305.864 1781.79,286.365 1782.45,365.098 1783.12,261.6 1783.78,329.682 1784.44,347.266 1785.11,294.751 1785.77,364.435 1786.44,269.423 1787.1,291.431 1787.76,326.875 1788.43,257.889 1789.09,293.896 1789.76,159.643 1790.42,292.805 1791.08,269.386 1791.75,230.933 1792.41,273.796 1793.08,341.299 1793.74,313.838 1794.4,289.669 1795.07,273.207 1795.73,267.618 1796.4,214.165 1797.06,313.628 1797.72,280.806 1798.39,352.658 1799.05,303.699 1799.71,331.852 1800.38,330.909 1801.04,308.28 1801.71,287.66 1802.37,345.772 1803.03,305.955 1803.7,323.068 1804.36,391.485 1805.03,335.543 1805.69,384.475 1806.35,344.012 1807.02,297.175 1807.68,253.388 1808.35,299.347 1809.01,352.222 1809.67,375.693 1810.34,365.83 1811,230.647 1811.67,266.356 1812.33,299.426 1812.99,306.788 1813.66,353.41 1814.32,308.051 1814.99,253.686 1815.65,269.332 1816.31,293.679 1816.98,219.438 1817.64,295.612 1818.31,292.913 1818.97,306.761 1819.63,303.943 1820.3,242.045 1820.96,261.506 1821.62,272.965 1822.29,351.641 1822.95,310.536 1823.62,343.42 1824.28,313.128 1824.94,259.813 1825.61,282.008 1826.27,270.969 1826.94,278.434 1827.6,350.444 1828.26,253.481 1828.93,309.353 1829.59,319.863 1830.26,229.441 1830.92,192.362 1831.58,259.788 1832.25,263.992 1832.91,254.134 1833.58,343.539 1834.24,324.16 1834.9,272.564 1835.57,337.585 1836.23,383.45 1836.9,303.272 1837.56,324.602 1838.22,282.47 1838.89,310.968 1839.55,290.327 1840.22,351.934 1840.88,363.799 1841.54,350.608 1842.21,263.818 1842.87,318.783 1843.53,269.997 1844.2,329.311 1844.86,181.15 1845.53,296.784 1846.19,250.712 1846.85,291.222 1847.52,312.344 1848.18,318.163 1848.85,123.48 1849.51,300.867 1850.17,279.042 1850.84,336.575 1851.5,224.811 1852.17,301.233 1852.83,314.649 1853.49,321.064 1854.16,288.794 1854.82,313.694 1855.49,319.684 1856.15,297.063 1856.81,308.462 1857.48,381.367 1858.14,325.239 1858.81,279.276 1859.47,234.614 1860.13,261.725 1860.8,309.773 1861.46,334.152 1862.13,376.522 1862.79,320.352 1863.45,339.62 1864.12,242.571 1864.78,288.809 1865.44,305.839 1866.11,166.847 1866.77,316.873 1867.44,346.662 1868.1,327.662 1868.76,172.632 1869.43,390.631 1870.09,223.182 1870.76,348.813 1871.42,329.789 1872.08,336.539 1872.75,322.158 1873.41,287.037 1874.08,308.099 1874.74,306.54 1875.4,350.609 1876.07,339.675 1876.73,317.039 1877.4,237.744 1878.06,315.311 1878.72,291.301 1879.39,309.855 1880.05,283.923 1880.72,328.512 1881.38,340.097 1882.04,270.638 1882.71,324.834 1883.37,399.224 1884.04,310.286 1884.7,263.468 1885.36,316.484 1886.03,354.484 1886.69,340.946 1887.35,286.461 1888.02,325.792 1888.68,292.593 1889.35,294.512 1890.01,355.695 1890.67,300.669 1891.34,294.262 1892,388.264 1892.67,321.732 1893.33,230.337 1893.99,262.778 1894.66,308.227 1895.32,275.818 1895.99,295.815 1896.65,340.216 1897.31,341.938 1897.98,250.7 1898.64,333.13 1899.31,322.141 1899.97,325.281 1900.63,266.598 1901.3,345.749 1901.96,297.468 1902.63,290.323 1903.29,307.206 1903.95,263.684 1904.62,247.246 1905.28,293.483 1905.95,223.109 1906.61,436.236 1907.27,363.994 1907.94,337.145 1908.6,280.185 1909.26,332.162 1909.93,232.77 1910.59,271.76 1911.26,300.991 1911.92,295.547 1912.58,188.53 1913.25,318.932 1913.91,289.671 1914.58,206.395 1915.24,294.305 1915.9,325.512 1916.57,269.983 1917.23,309.256 1917.9,317.284 1918.56,352.873 1919.22,245.709 1919.89,281.058 1920.55,288.462 1921.22,287.754 1921.88,313.832 1922.54,288.671 1923.21,331.398 1923.87,270.36 1924.54,307.66 1925.2,328.505 1925.86,200.618 1926.53,202.683 1927.19,298.504 1927.86,280.561 1928.52,345.754 1929.18,348.95 1929.85,332.333 1930.51,318.937 1931.17,217.408 1931.84,314.968 1932.5,310.674 1933.17,333.291 1933.83,352.976 1934.49,161.549 1935.16,300.167 1935.82,271.018 1936.49,300.606 1937.15,282.306 1937.81,326.468 1938.48,308.008 1939.14,315.554 1939.81,207.371 1940.47,280.29 1941.13,297.024 1941.8,309.103 1942.46,334.547 1943.13,284.663 1943.79,305.883 1944.45,320.214 1945.12,296.476 1945.78,280.017 1946.45,288.669 1947.11,239.615 1947.77,366.567 1948.44,280.88 1949.1,284.776 1949.77,303.462 1950.43,322.697 1951.09,307.76 1951.76,262.73 1952.42,301.363 1953.08,304.409 1953.75,237.795 1954.41,315.691 1955.08,370.702 1955.74,286.932 1956.4,317.537 1957.07,220.829 1957.73,338.341 1958.4,257.756 1959.06,287.685 1959.72,282.98 1960.39,316.55 1961.05,314.883 1961.72,340.446 1962.38,336.441 1963.04,259.025 1963.71,293.974 1964.37,313.876 1965.04,288.091 1965.7,263.033 1966.36,314.659 1967.03,305.833 1967.69,358.356 1968.36,327.036 1969.02,319.806 1969.68,334.035 1970.35,316.862 1971.01,271.554 1971.68,281.469 1972.34,258.855 1973,330.61 1973.67,295.103 1974.33,310.839 1974.99,328.855 1975.66,351.782 1976.32,294.889 1976.99,229.152 1977.65,265.973 1978.31,271.15 1978.98,315.167 1979.64,268.661 1980.31,261.819 1980.97,348.466 1981.63,308.21 1982.3,274.865 1982.96,339.446 1983.63,221.456 1984.29,398.164 1984.95,264.23 1985.62,280.516 1986.28,239.237 1986.95,330.146 1987.61,355.135 1988.27,263.077 1988.94,218.786 1989.6,155.693 1990.27,323.339 1990.93,331.306 1991.59,240.28 1992.26,286.317 1992.92,317.472 1993.58,297.58 1994.25,314.388 1994.91,326.006 1995.58,327.43 1996.24,366.467 1996.9,276.2 1997.57,263.754 1998.23,143.227 1998.9,274.968 1999.56,346.236 2000.22,329.151 2000.89,265.765 2001.55,232.272 2002.22,329.772 2002.88,335.658 2003.54,305.184 2004.21,283.227 2004.87,322.856 2005.54,287.661 2006.2,241.725 2006.86,293.649 2007.53,307.743 2008.19,308.889 2008.86,341.212 2009.52,284.534 2010.18,249.675 2010.85,314.535 2011.51,342.015 2012.18,281.147 2012.84,288.13 2013.5,367.284 2014.17,354.891 2014.83,320.264 2015.49,319.178 2016.16,308.428 2016.82,249.217 2017.49,241.183 2018.15,319.263 2018.81,329.657 2019.48,364.298 2020.14,244.34 2020.81,371.099 2021.47,253.058 2022.13,349.361 2022.8,302.092 2023.46,319.243 2024.13,318.298 2024.79,303.66 2025.45,264.584 2026.12,292.087 2026.78,251.166 2027.45,315.253 2028.11,338.59 2028.77,325.526 2029.44,277.837 2030.1,282.189 2030.77,319.728 2031.43,286.736 2032.09,305.66 2032.76,296.004 2033.42,314.516 2034.09,271.046 2034.75,224.63 2035.41,287.306 2036.08,267.276 2036.74,229.306 2037.4,333.233 2038.07,296.544 2038.73,194.996 2039.4,338.369 2040.06,293.885 2040.72,304.739 2041.39,270.031 2042.05,303.15 2042.72,270.383 2043.38,332.692 2044.04,340.154 2044.71,269.136 2045.37,318.215 2046.04,302.111 2046.7,223.628 2047.36,322.37 2048.03,273.16 2048.69,244.944 2049.36,272.112 2050.02,285.309 2050.68,238.095 2051.35,317.464 2052.01,203.172 2052.68,281.563 2053.34,361.97 2054,276.159 2054.67,296.898 2055.33,264.826 2056,326.825 2056.66,363.663 2057.32,352.819 2057.99,221.35 2058.65,279.07 2059.31,371.638 2059.98,331.796 2060.64,310.894 2061.31,253.306 2061.97,346.69 2062.63,335.771 2063.3,299.931 2063.96,293.643 2064.63,361.453 2065.29,278.09 2065.95,342.725 2066.62,149.907 2067.28,255.745 2067.95,284.175 2068.61,270.929 2069.27,288.857 2069.94,233.135 2070.6,284.597 2071.27,283.794 2071.93,327.937 2072.59,323.19 2073.26,253.075 2073.92,372.775 2074.59,352.336 2075.25,232.811 2075.91,227.358 2076.58,315.529 2077.24,310.769 2077.91,170.215 2078.57,272.204 2079.23,338.237 2079.9,330.633 2080.56,274.152 2081.22,319.199 2081.89,339.116 2082.55,247.944 2083.22,304.767 2083.88,277.461 2084.54,340.016 2085.21,263.039 2085.87,252.07 2086.54,312.197 2087.2,338.497 2087.86,362.281 2088.53,338.305 2089.19,299.141 2089.86,364.954 2090.52,246.234 2091.18,244.155 2091.85,344.566 2092.51,327.138 2093.18,275.477 2093.84,281.058 2094.5,344.554 2095.17,307.578 2095.83,242.919 2096.5,317.874 2097.16,291.932 2097.82,274.207 2098.49,238.92 2099.15,327.685 2099.82,326.561 2100.48,309.362 2101.14,308.266 2101.81,283.237 2102.47,195.371 2103.13,357.011 2103.8,336.997 2104.46,268.463 2105.13,239.439 2105.79,269.795 2106.45,321.846 2107.12,242.152 2107.78,327.768 2108.45,264.12 2109.11,301.432 2109.77,273.657 2110.44,343.235 2111.1,288.82 2111.77,332.434 2112.43,299.852 2113.09,336.597 2113.76,311.98 2114.42,213.446 2115.09,227.685 2115.75,266.431 2116.41,285.989 2117.08,255.165 2117.74,297.877 2118.41,317.326 2119.07,282.37 2119.73,351.702 2120.4,279.135 2121.06,328.177 2121.73,283.669 2122.39,323.813 2123.05,236.747 2123.72,286.512 2124.38,331.948 2125.04,224.159 2125.71,257.617 2126.37,298.285 2127.04,291.169 2127.7,242.3 2128.36,221.2 2129.03,245.412 2129.69,285.26 2130.36,223.256 2131.02,323.738 2131.68,200.238 2132.35,271.69 2133.01,235.538 2133.68,334.833 2134.34,310.522 2135,312.694 2135.67,322.042 2136.33,323.152 2137,295.256 2137.66,265.7 2138.32,309.427 2138.99,305.082 2139.65,319.252 2140.32,254.086 2140.98,249.001 2141.64,250.051 2142.31,252.511 2142.97,334.617 2143.64,265.762 2144.3,242.996 2144.96,290.255 2145.63,248.235 2146.29,338.584 2146.95,356.385 2147.62,273.866 2148.28,285.016 2148.95,285.736 2149.61,276.039 2150.27,286.019 2150.94,268.893 2151.6,289.564 2152.27,273.976 2152.93,253.636 2153.59,255.832 2154.26,310.132 2154.92,280.114 2155.59,291.337 2156.25,264.797 2156.91,301.438 2157.58,234.425 2158.24,281.317 2158.91,258.281 2159.57,266.15 2160.23,247.434 2160.9,363.825 2161.56,317.998 2162.23,312.668 2162.89,284.62 2163.55,290.34 2164.22,269.36 2164.88,335.804 2165.55,287.601 2166.21,241.321 2166.87,313.468 2167.54,290.368 2168.2,315.781 2168.86,292.907 2169.53,300.892 2170.19,313.587 2170.86,358.192 2171.52,317.358 2172.18,236.266 2172.85,409.693 2173.51,274.591 2174.18,306.858 2174.84,240.397 2175.5,275.319 2176.17,308.923 2176.83,315.931 2177.5,256.788 2178.16,330.624 2178.82,309.35 2179.49,332.046 2180.15,311.347 2180.82,337.553 2181.48,314.637 2182.14,248.116 2182.81,254.134 2183.47,238.395 2184.14,287.919 2184.8,330.853 2185.46,251.82 2186.13,218.155 2186.79,242.815 2187.46,265.081 2188.12,263.237 2188.78,302.923 2189.45,330.058 2190.11,278.854 2190.77,256.698 2191.44,278.338 2192.1,328.107 2192.77,189.883 2193.43,255.686 2194.09,217.136 2194.76,307.929 2195.42,290.139 2196.09,315.674 2196.75,321.224 2197.41,292.464 2198.08,263.197 2198.74,276.84 2199.41,286.571 2200.07,297.068 2200.73,276.417 2201.4,290.423 2202.06,287.575 2202.73,254.604 2203.39,279.126 2204.05,312.346 2204.72,345.243 2205.38,287.052 2206.05,318.628 2206.71,322.383 2207.37,290.821 2208.04,253.512 2208.7,292.312 2209.37,267.629 2210.03,320.191 2210.69,314.818 2211.36,301.008 2212.02,263.596 2212.68,292.996 2213.35,258.781 2214.01,163.537 2214.68,335.464 2215.34,336.448 2216,227.778 2216.67,259.959 2217.33,245.55 2218,221.038 2218.66,278.622 2219.32,291.788 2219.99,286.982 2220.65,342.736 2221.32,299.797 2221.98,274.844 2222.64,281.999 2223.31,317.505 2223.97,251.745 2224.64,249.094 2225.3,296.578 2225.96,298.653 2226.63,231.181 2227.29,273.612 2227.96,368.978 2228.62,219.723 2229.28,243.896 2229.95,212.438 2230.61,239.408 2231.28,318.896 2231.94,277.725 2232.6,276.788 2233.27,310.158 2233.93,275.764 2234.59,294.132 2235.26,309.473 2235.92,292.269 2236.59,246.257 2237.25,225.08 2237.91,299.874 2238.58,374.173 2239.24,280.596 2239.91,358.84 2240.57,290.978 2241.23,269.889 2241.9,224.012 2242.56,303.057 2243.23,192.466 2243.89,279.519 2244.55,264.888 2245.22,336.302 2245.88,279.175 2246.55,284.496 2247.21,232 2247.87,279.43 2248.54,307.634 2249.2,204.301 2249.87,275.127 2250.53,361.056 2251.19,276.658 2251.86,267.461 2252.52,336.837 2253.19,326.237 2253.85,311.952 2254.51,247.354 2255.18,244.307 2255.84,144.337 2256.5,271.933 2257.17,225.303 2257.83,345.575 2258.5,320.711 2259.16,270.361 2259.82,283.358 2260.49,298.413 2261.15,301.813 2261.82,276.874 2262.48,319.758 2263.14,265.929 2263.81,278.333 2264.47,312.677 2265.14,313.997 2265.8,280.501 2266.46,292.378 2267.13,288.953 2267.79,294.607 2268.46,340.563 2269.12,227.618 2269.78,240.83 2270.45,334.811 2271.11,242.24 2271.78,349.855 2272.44,323.08 2273.1,345.991 2273.77,239.993 2274.43,296.147 2275.09,319.329 2275.76,276.895 2276.42,337.97 2277.09,292.586 2277.75,297.854 2278.41,230.771 2279.08,243.629 2279.74,335.572 2280.41,309.333 2281.07,248.369 2281.73,234.631 2282.4,321.232 2283.06,276.599 2283.73,278.146 2284.39,257.65 2285.05,315.684 2285.72,201.631 2286.38,314.985 2287.05,279.325 2287.71,269.524 2288.37,334.514 2289.04,257.727 2289.7,279.198 2290.37,191.822 2291.03,270.45 2291.69,315.057 2292.36,304.342 2293.02,263.63 "/>
<path clip-path="url(#clip400)" d="M2018.91 1377.32 L2282.4 1377.32 L2282.4 1273.64 L2018.91 1273.64  Z" fill="#ffffff" fill-rule="evenodd" fill-opacity="1"/>
<polyline clip-path="url(#clip400)" style="stroke:#000000; stroke-linecap:round; stroke-linejoin:round; stroke-width:4; stroke-opacity:1; fill:none" points="2018.91,1377.32 2282.4,1377.32 2282.4,1273.64 2018.91,1273.64 2018.91,1377.32 "/>
<polyline clip-path="url(#clip400)" style="stroke:#009af9; stroke-linecap:round; stroke-linejoin:round; stroke-width:4; stroke-opacity:1; fill:none" points="2042.36,1325.48 2183.07,1325.48 "/>
<path clip-path="url(#clip400)" d="M2220.36 1345.16 Q2218.56 1349.79 2216.84 1351.2 Q2215.13 1352.62 2212.26 1352.62 L2208.86 1352.62 L2208.86 1349.05 L2211.36 1349.05 Q2213.12 1349.05 2214.09 1348.22 Q2215.06 1347.38 2216.24 1344.28 L2217.01 1342.34 L2206.52 1316.83 L2211.03 1316.83 L2219.14 1337.11 L2227.24 1316.83 L2231.75 1316.83 L2220.36 1345.16 Z" fill="#000000" fill-rule="nonzero" fill-opacity="1" /><path clip-path="url(#clip400)" d="M2239.04 1338.82 L2246.68 1338.82 L2246.68 1312.45 L2238.37 1314.12 L2238.37 1309.86 L2246.64 1308.2 L2251.31 1308.2 L2251.31 1338.82 L2258.95 1338.82 L2258.95 1342.76 L2239.04 1342.76 L2239.04 1338.82 Z" fill="#000000" fill-rule="nonzero" fill-opacity="1" /></svg>
