<?xml version="1.0" encoding="utf-8"?>
<svg xmlns="http://www.w3.org/2000/svg" xmlns:xlink="http://www.w3.org/1999/xlink" width="600" height="400" viewBox="0 0 2400 1600">
<defs>
  <clipPath id="clip270">
    <rect x="0" y="0" width="2400" height="1600"/>
  </clipPath>
</defs>
<path clip-path="url(#clip270)" d="M0 1600 L2400 1600 L2400 0 L0 0  Z" fill="#ffffff" fill-rule="evenodd" fill-opacity="1"/>
<defs>
  <clipPath id="clip271">
    <rect x="480" y="0" width="1681" height="1600"/>
  </clipPath>
</defs>
<path clip-path="url(#clip270)" d="M203.964 1423.18 L2112.76 1423.18 L2112.76 47.2441 L203.964 47.2441  Z" fill="#ffffff" fill-rule="evenodd" fill-opacity="1"/>
<defs>
  <clipPath id="clip272">
    <rect x="203" y="47" width="1910" height="1377"/>
  </clipPath>
</defs>
<polyline clip-path="url(#clip272)" style="stroke:#000000; stroke-linecap:round; stroke-linejoin:round; stroke-width:2; stroke-opacity:0.1; fill:none" points="203.964,1423.18 203.964,47.2441 "/>
<polyline clip-path="url(#clip272)" style="stroke:#000000; stroke-linecap:round; stroke-linejoin:round; stroke-width:2; stroke-opacity:0.1; fill:none" points="681.162,1423.18 681.162,47.2441 "/>
<polyline clip-path="url(#clip272)" style="stroke:#000000; stroke-linecap:round; stroke-linejoin:round; stroke-width:2; stroke-opacity:0.1; fill:none" points="1158.36,1423.18 1158.36,47.2441 "/>
<polyline clip-path="url(#clip272)" style="stroke:#000000; stroke-linecap:round; stroke-linejoin:round; stroke-width:2; stroke-opacity:0.1; fill:none" points="1635.56,1423.18 1635.56,47.2441 "/>
<polyline clip-path="url(#clip272)" style="stroke:#000000; stroke-linecap:round; stroke-linejoin:round; stroke-width:2; stroke-opacity:0.1; fill:none" points="2112.76,1423.18 2112.76,47.2441 "/>
<polyline clip-path="url(#clip272)" style="stroke:#000000; stroke-linecap:round; stroke-linejoin:round; stroke-width:2; stroke-opacity:0.1; fill:none" points="203.964,1275.76 2112.76,1275.76 "/>
<polyline clip-path="url(#clip272)" style="stroke:#000000; stroke-linecap:round; stroke-linejoin:round; stroke-width:2; stroke-opacity:0.1; fill:none" points="203.964,1030.06 2112.76,1030.06 "/>
<polyline clip-path="url(#clip272)" style="stroke:#000000; stroke-linecap:round; stroke-linejoin:round; stroke-width:2; stroke-opacity:0.1; fill:none" points="203.964,784.353 2112.76,784.353 "/>
<polyline clip-path="url(#clip272)" style="stroke:#000000; stroke-linecap:round; stroke-linejoin:round; stroke-width:2; stroke-opacity:0.1; fill:none" points="203.964,538.65 2112.76,538.65 "/>
<polyline clip-path="url(#clip272)" style="stroke:#000000; stroke-linecap:round; stroke-linejoin:round; stroke-width:2; stroke-opacity:0.1; fill:none" points="203.964,292.947 2112.76,292.947 "/>
<polyline clip-path="url(#clip272)" style="stroke:#000000; stroke-linecap:round; stroke-linejoin:round; stroke-width:2; stroke-opacity:0.1; fill:none" points="203.964,47.2441 2112.76,47.2441 "/>
<polyline clip-path="url(#clip270)" style="stroke:#000000; stroke-linecap:round; stroke-linejoin:round; stroke-width:4; stroke-opacity:1; fill:none" points="203.964,1423.18 2112.76,1423.18 "/>
<polyline clip-path="url(#clip270)" style="stroke:#000000; stroke-linecap:round; stroke-linejoin:round; stroke-width:4; stroke-opacity:1; fill:none" points="203.964,1423.18 203.964,1404.28 "/>
<polyline clip-path="url(#clip270)" style="stroke:#000000; stroke-linecap:round; stroke-linejoin:round; stroke-width:4; stroke-opacity:1; fill:none" points="681.162,1423.18 681.162,1404.28 "/>
<polyline clip-path="url(#clip270)" style="stroke:#000000; stroke-linecap:round; stroke-linejoin:round; stroke-width:4; stroke-opacity:1; fill:none" points="1158.36,1423.18 1158.36,1404.28 "/>
<polyline clip-path="url(#clip270)" style="stroke:#000000; stroke-linecap:round; stroke-linejoin:round; stroke-width:4; stroke-opacity:1; fill:none" points="1635.56,1423.18 1635.56,1404.28 "/>
<polyline clip-path="url(#clip270)" style="stroke:#000000; stroke-linecap:round; stroke-linejoin:round; stroke-width:4; stroke-opacity:1; fill:none" points="2112.76,1423.18 2112.76,1404.28 "/>
<path clip-path="url(#clip270)" d="M203.964 1454.1 Q200.352 1454.1 198.524 1457.66 Q196.718 1461.2 196.718 1468.33 Q196.718 1475.44 198.524 1479.01 Q200.352 1482.55 203.964 1482.55 Q207.598 1482.55 209.403 1479.01 Q211.232 1475.44 211.232 1468.33 Q211.232 1461.2 209.403 1457.66 Q207.598 1454.1 203.964 1454.1 M203.964 1450.39 Q209.774 1450.39 212.829 1455 Q215.908 1459.58 215.908 1468.33 Q215.908 1477.06 212.829 1481.67 Q209.774 1486.25 203.964 1486.25 Q198.153 1486.25 195.075 1481.67 Q192.019 1477.06 192.019 1468.33 Q192.019 1459.58 195.075 1455 Q198.153 1450.39 203.964 1450.39 Z" fill="#000000" fill-rule="nonzero" fill-opacity="1" /><path clip-path="url(#clip270)" d="M671.544 1481.64 L679.183 1481.64 L679.183 1455.28 L670.872 1456.95 L670.872 1452.69 L679.136 1451.02 L683.812 1451.02 L683.812 1481.64 L691.451 1481.64 L691.451 1485.58 L671.544 1485.58 L671.544 1481.64 Z" fill="#000000" fill-rule="nonzero" fill-opacity="1" /><path clip-path="url(#clip270)" d="M1153.01 1481.64 L1169.33 1481.64 L1169.33 1485.58 L1147.39 1485.58 L1147.39 1481.64 Q1150.05 1478.89 1154.63 1474.26 Q1159.24 1469.61 1160.42 1468.27 Q1162.67 1465.74 1163.54 1464.01 Q1164.45 1462.25 1164.45 1460.56 Q1164.45 1457.8 1162.5 1456.07 Q1160.58 1454.33 1157.48 1454.33 Q1155.28 1454.33 1152.83 1455.09 Q1150.4 1455.86 1147.62 1457.41 L1147.62 1452.69 Q1150.44 1451.55 1152.9 1450.97 Q1155.35 1450.39 1157.39 1450.39 Q1162.76 1450.39 1165.95 1453.08 Q1169.15 1455.77 1169.15 1460.26 Q1169.15 1462.39 1168.34 1464.31 Q1167.55 1466.2 1165.44 1468.8 Q1164.86 1469.47 1161.76 1472.69 Q1158.66 1475.88 1153.01 1481.64 Z" fill="#000000" fill-rule="nonzero" fill-opacity="1" /><path clip-path="url(#clip270)" d="M1639.81 1466.95 Q1643.16 1467.66 1645.04 1469.93 Q1646.94 1472.2 1646.94 1475.53 Q1646.94 1480.65 1643.42 1483.45 Q1639.9 1486.25 1633.42 1486.25 Q1631.24 1486.25 1628.93 1485.81 Q1626.63 1485.39 1624.18 1484.54 L1624.18 1480.02 Q1626.13 1481.16 1628.44 1481.74 Q1630.75 1482.32 1633.28 1482.32 Q1637.68 1482.32 1639.97 1480.58 Q1642.28 1478.84 1642.28 1475.53 Q1642.28 1472.48 1640.13 1470.77 Q1638 1469.03 1634.18 1469.03 L1630.15 1469.03 L1630.15 1465.19 L1634.37 1465.19 Q1637.81 1465.19 1639.64 1463.82 Q1641.47 1462.43 1641.47 1459.84 Q1641.47 1457.18 1639.57 1455.77 Q1637.7 1454.33 1634.18 1454.33 Q1632.26 1454.33 1630.06 1454.75 Q1627.86 1455.16 1625.22 1456.04 L1625.22 1451.88 Q1627.88 1451.14 1630.2 1450.77 Q1632.54 1450.39 1634.6 1450.39 Q1639.92 1450.39 1643.02 1452.83 Q1646.12 1455.23 1646.12 1459.35 Q1646.12 1462.22 1644.48 1464.21 Q1642.84 1466.18 1639.81 1466.95 Z" fill="#000000" fill-rule="nonzero" fill-opacity="1" /><path clip-path="url(#clip270)" d="M2115.77 1455.09 L2103.96 1473.54 L2115.77 1473.54 L2115.77 1455.09 M2114.54 1451.02 L2120.42 1451.02 L2120.42 1473.54 L2125.35 1473.54 L2125.35 1477.43 L2120.42 1477.43 L2120.42 1485.58 L2115.77 1485.58 L2115.77 1477.43 L2100.16 1477.43 L2100.16 1472.92 L2114.54 1451.02 Z" fill="#000000" fill-rule="nonzero" fill-opacity="1" /><path clip-path="url(#clip270)" d="M1163.56 1551.46 L1162.16 1544.11 Q1160.73 1536.57 1155.07 1536.57 Q1150.8 1536.57 1148.86 1540.07 Q1146.41 1544.46 1146.41 1550.25 Q1146.41 1557.25 1148.8 1560.6 Q1151.21 1564 1155.07 1564 Q1159.33 1564 1161.62 1557.22 L1163.56 1551.46 M1166.84 1541.72 L1169.99 1532.4 L1175.21 1532.4 L1168.69 1551.72 L1169.96 1558.69 Q1170.25 1560.25 1171.36 1561.55 Q1172.67 1563.08 1173.69 1563.08 L1176.49 1563.08 L1176.49 1568.04 L1172.98 1568.04 Q1169.99 1568.04 1167.32 1565.37 Q1166.01 1564.03 1165.47 1561.23 Q1164.01 1564.77 1161.02 1567.53 Q1159.62 1568.84 1155.07 1568.84 Q1147.59 1568.84 1143.96 1564 Q1140.23 1559 1140.23 1550.25 Q1140.23 1540.89 1144.28 1536.5 Q1148.76 1531.6 1155.07 1531.6 Q1164.96 1531.6 1166.84 1541.72 Z" fill="#000000" fill-rule="nonzero" fill-opacity="1" /><polyline clip-path="url(#clip270)" style="stroke:#000000; stroke-linecap:round; stroke-linejoin:round; stroke-width:4; stroke-opacity:1; fill:none" points="203.964,1423.18 203.964,47.2441 "/>
<polyline clip-path="url(#clip270)" style="stroke:#000000; stroke-linecap:round; stroke-linejoin:round; stroke-width:4; stroke-opacity:1; fill:none" points="203.964,1275.76 220.751,1275.76 "/>
<polyline clip-path="url(#clip270)" style="stroke:#000000; stroke-linecap:round; stroke-linejoin:round; stroke-width:4; stroke-opacity:1; fill:none" points="203.964,1030.06 220.751,1030.06 "/>
<polyline clip-path="url(#clip270)" style="stroke:#000000; stroke-linecap:round; stroke-linejoin:round; stroke-width:4; stroke-opacity:1; fill:none" points="203.964,784.353 220.751,784.353 "/>
<polyline clip-path="url(#clip270)" style="stroke:#000000; stroke-linecap:round; stroke-linejoin:round; stroke-width:4; stroke-opacity:1; fill:none" points="203.964,538.65 220.751,538.65 "/>
<polyline clip-path="url(#clip270)" style="stroke:#000000; stroke-linecap:round; stroke-linejoin:round; stroke-width:4; stroke-opacity:1; fill:none" points="203.964,292.947 220.751,292.947 "/>
<polyline clip-path="url(#clip270)" style="stroke:#000000; stroke-linecap:round; stroke-linejoin:round; stroke-width:4; stroke-opacity:1; fill:none" points="203.964,47.2441 220.751,47.2441 "/>
<path clip-path="url(#clip270)" d="M156.019 1261.56 Q152.408 1261.56 150.579 1265.12 Q148.774 1268.66 148.774 1275.79 Q148.774 1282.9 150.579 1286.46 Q152.408 1290.01 156.019 1290.01 Q159.653 1290.01 161.459 1286.46 Q163.288 1282.9 163.288 1275.79 Q163.288 1268.66 161.459 1265.12 Q159.653 1261.56 156.019 1261.56 M156.019 1257.85 Q161.829 1257.85 164.885 1262.46 Q167.964 1267.04 167.964 1275.79 Q167.964 1284.52 164.885 1289.13 Q161.829 1293.71 156.019 1293.71 Q150.209 1293.71 147.13 1289.13 Q144.075 1284.52 144.075 1275.79 Q144.075 1267.04 147.13 1262.46 Q150.209 1257.85 156.019 1257.85 Z" fill="#000000" fill-rule="nonzero" fill-opacity="1" /><path clip-path="url(#clip270)" d="M147.061 1012.78 L165.417 1012.78 L165.417 1016.71 L151.343 1016.71 L151.343 1025.18 Q152.362 1024.84 153.38 1024.67 Q154.399 1024.49 155.417 1024.49 Q161.204 1024.49 164.584 1027.66 Q167.964 1030.83 167.964 1036.25 Q167.964 1041.83 164.491 1044.93 Q161.019 1048.01 154.7 1048.01 Q152.524 1048.01 150.255 1047.64 Q148.01 1047.27 145.603 1046.53 L145.603 1041.83 Q147.686 1042.96 149.908 1043.52 Q152.13 1044.07 154.607 1044.07 Q158.612 1044.07 160.95 1041.97 Q163.288 1039.86 163.288 1036.25 Q163.288 1032.64 160.95 1030.53 Q158.612 1028.42 154.607 1028.42 Q152.732 1028.42 150.857 1028.84 Q149.005 1029.26 147.061 1030.14 L147.061 1012.78 Z" fill="#000000" fill-rule="nonzero" fill-opacity="1" /><path clip-path="url(#clip270)" d="M116.668 797.697 L124.306 797.697 L124.306 771.332 L115.996 772.998 L115.996 768.739 L124.26 767.073 L128.936 767.073 L128.936 797.697 L136.575 797.697 L136.575 801.633 L116.668 801.633 L116.668 797.697 Z" fill="#000000" fill-rule="nonzero" fill-opacity="1" /><path clip-path="url(#clip270)" d="M156.019 770.151 Q152.408 770.151 150.579 773.716 Q148.774 777.258 148.774 784.387 Q148.774 791.494 150.579 795.058 Q152.408 798.6 156.019 798.6 Q159.653 798.6 161.459 795.058 Q163.288 791.494 163.288 784.387 Q163.288 777.258 161.459 773.716 Q159.653 770.151 156.019 770.151 M156.019 766.448 Q161.829 766.448 164.885 771.054 Q167.964 775.637 167.964 784.387 Q167.964 793.114 164.885 797.721 Q161.829 802.304 156.019 802.304 Q150.209 802.304 147.13 797.721 Q144.075 793.114 144.075 784.387 Q144.075 775.637 147.13 771.054 Q150.209 766.448 156.019 766.448 Z" fill="#000000" fill-rule="nonzero" fill-opacity="1" /><path clip-path="url(#clip270)" d="M117.663 551.995 L125.302 551.995 L125.302 525.629 L116.992 527.296 L116.992 523.036 L125.255 521.37 L129.931 521.37 L129.931 551.995 L137.57 551.995 L137.57 555.93 L117.663 555.93 L117.663 551.995 Z" fill="#000000" fill-rule="nonzero" fill-opacity="1" /><path clip-path="url(#clip270)" d="M147.061 521.37 L165.417 521.37 L165.417 525.305 L151.343 525.305 L151.343 533.777 Q152.362 533.43 153.38 533.268 Q154.399 533.083 155.417 533.083 Q161.204 533.083 164.584 536.254 Q167.964 539.425 167.964 544.842 Q167.964 550.42 164.491 553.522 Q161.019 556.601 154.7 556.601 Q152.524 556.601 150.255 556.231 Q148.01 555.86 145.603 555.12 L145.603 550.42 Q147.686 551.555 149.908 552.11 Q152.13 552.666 154.607 552.666 Q158.612 552.666 160.95 550.559 Q163.288 548.453 163.288 544.842 Q163.288 541.231 160.95 539.124 Q158.612 537.018 154.607 537.018 Q152.732 537.018 150.857 537.434 Q149.005 537.851 147.061 538.731 L147.061 521.37 Z" fill="#000000" fill-rule="nonzero" fill-opacity="1" /><path clip-path="url(#clip270)" d="M119.885 306.292 L136.204 306.292 L136.204 310.227 L114.26 310.227 L114.26 306.292 Q116.922 303.537 121.505 298.908 Q126.112 294.255 127.292 292.912 Q129.538 290.389 130.417 288.653 Q131.32 286.894 131.32 285.204 Q131.32 282.449 129.376 280.713 Q127.455 278.977 124.353 278.977 Q122.154 278.977 119.7 279.741 Q117.269 280.505 114.492 282.056 L114.492 277.334 Q117.316 276.199 119.769 275.621 Q122.223 275.042 124.26 275.042 Q129.63 275.042 132.825 277.727 Q136.019 280.412 136.019 284.903 Q136.019 287.033 135.209 288.954 Q134.422 290.852 132.316 293.445 Q131.737 294.116 128.635 297.333 Q125.533 300.528 119.885 306.292 Z" fill="#000000" fill-rule="nonzero" fill-opacity="1" /><path clip-path="url(#clip270)" d="M156.019 278.746 Q152.408 278.746 150.579 282.31 Q148.774 285.852 148.774 292.982 Q148.774 300.088 150.579 303.653 Q152.408 307.195 156.019 307.195 Q159.653 307.195 161.459 303.653 Q163.288 300.088 163.288 292.982 Q163.288 285.852 161.459 282.31 Q159.653 278.746 156.019 278.746 M156.019 275.042 Q161.829 275.042 164.885 279.648 Q167.964 284.232 167.964 292.982 Q167.964 301.708 164.885 306.315 Q161.829 310.898 156.019 310.898 Q150.209 310.898 147.13 306.315 Q144.075 301.708 144.075 292.982 Q144.075 284.232 147.13 279.648 Q150.209 275.042 156.019 275.042 Z" fill="#000000" fill-rule="nonzero" fill-opacity="1" /><path clip-path="url(#clip270)" d="M120.88 60.5889 L137.2 60.5889 L137.2 64.5241 L115.256 64.5241 L115.256 60.5889 Q117.918 57.8343 122.501 53.2047 Q127.107 48.552 128.288 47.2094 Q130.533 44.6862 131.413 42.9501 Q132.316 41.1909 132.316 39.5011 Q132.316 36.7465 130.371 35.0104 Q128.45 33.2743 125.348 33.2743 Q123.149 33.2743 120.695 34.0381 Q118.265 34.802 115.487 36.3529 L115.487 31.6308 Q118.311 30.4965 120.765 29.9178 Q123.218 29.3391 125.255 29.3391 Q130.626 29.3391 133.82 32.0243 Q137.015 34.7094 137.015 39.2002 Q137.015 41.3298 136.204 43.2511 Q135.417 45.1492 133.311 47.7418 Q132.732 48.4131 129.63 51.6306 Q126.529 54.8251 120.88 60.5889 Z" fill="#000000" fill-rule="nonzero" fill-opacity="1" /><path clip-path="url(#clip270)" d="M147.061 29.9641 L165.417 29.9641 L165.417 33.8993 L151.343 33.8993 L151.343 42.3714 Q152.362 42.0242 153.38 41.8622 Q154.399 41.677 155.417 41.677 Q161.204 41.677 164.584 44.8483 Q167.964 48.0196 167.964 53.4362 Q167.964 59.0149 164.491 62.1167 Q161.019 65.1954 154.7 65.1954 Q152.524 65.1954 150.255 64.825 Q148.01 64.4547 145.603 63.7139 L145.603 59.0149 Q147.686 60.1491 149.908 60.7047 Q152.13 61.2602 154.607 61.2602 Q158.612 61.2602 160.95 59.1538 Q163.288 57.0473 163.288 53.4362 Q163.288 49.8251 160.95 47.7186 Q158.612 45.6122 154.607 45.6122 Q152.732 45.6122 150.857 46.0288 Q149.005 46.4455 147.061 47.3251 L147.061 29.9641 Z" fill="#000000" fill-rule="nonzero" fill-opacity="1" /><path clip-path="url(#clip270)" d="M61.808 744.729 L77.5631 744.729 L77.5631 750.617 L28.579 750.617 Q14.0652 750.617 14.0652 737.058 Q14.0652 723.244 26.3192 723.244 Q35.0402 723.244 38.223 728.719 Q41.0876 719.807 49.5858 719.807 Q64.6726 719.807 64.6726 735.148 Q64.6726 741.896 61.808 744.729 M54.1691 744.729 Q59.6755 741.196 59.6755 734.926 Q59.6755 725.759 49.6813 725.759 Q40.7057 725.759 41.4059 740.527 L35.995 740.527 Q35.995 728.974 25.8099 728.974 Q18.8395 728.974 18.8395 736.421 Q18.8395 744.729 28.77 744.729 L54.1691 744.729 Z" fill="#000000" fill-rule="nonzero" fill-opacity="1" /><polyline clip-path="url(#clip272)" style="stroke:#090621; stroke-linecap:round; stroke-linejoin:round; stroke-width:4; stroke-opacity:1; fill:none" points="2112.76,1249.11 2082.46,1249.19 2052.16,1249.26 2021.86,1249.32 1991.56,1249.38 1961.26,1249.43 1930.97,1249.48 1900.67,1249.52 1870.37,1249.56 1840.07,1249.59 1809.77,1249.62 1779.47,1249.64 1749.18,1249.66 1718.88,1249.67 1688.58,1249.67 1658.28,1249.67 1627.98,1249.66 1597.68,1249.65 1567.39,1249.63 1537.09,1249.6 1506.79,1249.57 1476.49,1249.53 1446.19,1249.49 1415.9,1249.44 1385.6,1249.38 1355.3,1249.32 1325,1249.24 1294.7,1249.16 1264.4,1249.07 1234.11,1248.97 1203.81,1248.86 1173.51,1248.74 1143.21,1248.61 1112.91,1248.47 1111.04,1248.46 1082.61,1248.23 1052.32,1247.99 1022.02,1247.72 991.719,1247.45 961.421,1247.16 931.123,1246.85 900.824,1246.51 870.526,1246.15 840.228,1245.76 809.929,1245.34 779.631,1244.87 749.333,1244.35 719.035,1243.76 688.736,1243.1 658.438,1242.34 628.14,1241.45 597.841,1240.4 567.543,1239.13 537.245,1237.57 506.946,1235.58 476.648,1233 446.35,1229.51 427.743,1226.62 416.052,1224.4 385.753,1216.53 356.864,1204.78 355.455,1204.07 327.11,1182.94 325.157,1181.09 310.703,1161.1 298.497,1139.26 294.858,1131.51 290.48,1117.42 284.655,1095.58 279.703,1073.74 275.436,1051.9 271.716,1030.06 268.438,1008.22 265.524,986.375 264.56,978.453 263.582,964.535 262.188,942.694 260.934,920.854 259.806,899.014 258.792,877.174 257.883,855.333 257.069,833.493 256.344,811.653 255.7,789.813 255.133,767.972 254.638,746.132 254.21,724.292 253.846,702.452 253.544,680.611 253.3,658.771 253.113,636.931 252.981,615.091 252.903,593.25 252.877,571.41 252.904,549.57 252.982,527.73 253.112,505.889 253.295,484.049 253.529,462.209 253.818,440.369 254.161,418.528 254.56,396.688 255.017,374.848 255.535,353.008 256.116,331.167 256.763,309.327 257.48,287.487 258.271,265.647 259.14,243.806 260.094,221.966 261.139,200.126 262.282,178.286 263.531,156.445 264.56,139.908 268.704,156.445 276.474,178.286 289.366,200.126 294.858,206.533 296.678,221.966 299.504,243.806 302.702,265.647 306.356,287.487 310.575,309.327 315.508,331.167 321.361,353.008 325.157,365.412 326.574,374.848 330.079,396.688 334.028,418.528 338.513,440.369 343.655,462.209 349.616,484.049 355.455,502.597 356.125,505.889 360.776,527.73 366.069,549.57 372.15,571.41 379.216,593.25 385.753,610.842 386.921,615.091 393.263,636.931 400.608,658.771 409.221,680.611 416.052,695.791 418.468,702.452 427.015,724.292 437.127,746.132 446.35,763.249 448.54,767.972 459.425,789.813 472.561,811.653 476.648,817.867 485.945,833.493 501.191,855.333 506.946,862.772 517.481,877.174 536.363,899.014 537.245,899.976 556.056,920.854 567.543,931.965 578.805,942.694 597.841,958.996 604.596,964.535 628.14,982.386 633.784,986.375 658.438,1002.93 667.112,1008.22 688.736,1021.09 705.84,1030.06 719.035,1037.03 749.333,1050.87 751.758,1051.9 779.631,1064.19 806.066,1073.74 809.929,1075.26 840.228,1086.27 870.526,1095.12 872.173,1095.58 900.824,1104.58 931.123,1112.39 953.895,1117.42 961.421,1119.45 991.719,1126.91 1022.02,1133.09 1052.32,1138.3 1058.31,1139.26 1082.61,1144.4 1112.91,1149.89 1143.21,1154.52 1173.51,1158.5 1195.83,1161.1 1203.81,1162.48 1234.11,1167.31 1264.4,1171.4 1294.7,1174.9 1325,1177.94 1355.3,1180.61 1385.28,1182.94 1385.6,1182.98 1415.9,1186.99 1446.19,1190.38 1476.49,1193.29 1506.79,1195.81 1537.09,1198.02 1567.39,1199.98 1597.68,1201.72 1627.98,1203.28 1658.28,1204.69 1660.17,1204.78 1688.58,1208.02 1718.88,1210.91 1749.18,1213.34 1779.47,1215.42 1809.77,1217.22 1840.07,1218.8 1870.37,1220.19 1900.67,1221.42 1930.97,1222.53 1961.26,1223.53 1991.56,1224.43 2021.86,1225.26 2052.16,1226.01 2078.34,1226.62 2082.46,1229.17 2112.76,1238.85 "/>
<polyline clip-path="url(#clip272)" style="stroke:#1f0c47; stroke-linecap:round; stroke-linejoin:round; stroke-width:4; stroke-opacity:1; fill:none" points="2012.99,1226.62 1991.56,1236.36 1961.26,1241.34 1930.97,1243.58 1900.67,1244.84 1870.37,1245.61 1840.07,1246.13 1809.77,1246.48 1779.47,1246.72 1749.18,1246.89 1718.88,1247.01 1688.58,1247.08 1658.28,1247.12 1627.98,1247.13 1597.68,1247.12 1567.39,1247.09 1537.09,1247.04 1506.79,1246.98 1476.49,1246.91 1446.19,1246.82 1415.9,1246.72 1385.6,1246.61 1355.3,1246.48 1325,1246.35 1294.7,1246.2 1264.4,1246.04 1234.11,1245.87 1203.81,1245.69 1173.51,1245.49 1143.21,1245.28 1112.91,1245.05 1082.61,1244.8 1052.32,1244.54 1022.02,1244.26 991.719,1243.95 961.421,1243.62 931.123,1243.27 900.824,1242.87 870.526,1242.45 840.228,1241.98 809.929,1241.46 779.631,1240.89 749.333,1240.24 719.035,1239.51 688.736,1238.69 658.438,1237.73 628.14,1236.62 597.841,1235.31 567.543,1233.72 537.245,1231.78 506.946,1229.35 480.348,1226.62 476.648,1226.16 446.35,1221.54 416.052,1215.26 385.753,1206.17 382.324,1204.78 355.455,1191.2 344.365,1182.94 325.157,1164.76 322.511,1161.1 309.212,1139.26 298.646,1117.42 294.858,1108.24 291.33,1095.58 286.033,1073.74 281.478,1051.9 277.517,1030.06 274.037,1008.22 270.954,986.375 268.199,964.535 265.72,942.694 264.56,931.513 263.921,920.854 262.729,899.014 261.657,877.174 260.695,855.333 259.834,833.493 259.065,811.653 258.382,789.813 257.78,767.972 257.253,746.132 256.797,724.292 256.408,702.452 256.083,680.611 255.82,658.771 255.617,636.931 255.471,615.091 255.381,593.25 255.347,571.41 255.367,549.57 255.441,527.73 255.57,505.889 255.753,484.049 255.991,462.209 256.285,440.369 256.636,418.528 257.045,396.688 257.515,374.848 258.049,353.008 258.648,331.167 259.316,309.327 260.057,287.487 260.875,265.647 261.775,243.806 262.763,221.966 263.845,200.126 264.56,186.868 269.743,200.126 284.978,221.966 294.858,229.8 296.569,243.806 299.495,265.647 302.832,287.487 306.68,309.327 311.171,331.167 316.492,353.008 322.908,374.848 325.157,381.692 327.478,396.688 331.183,418.528 335.385,440.369 340.197,462.209 345.768,484.049 352.302,505.889 355.455,515.4 358.043,527.73 363.05,549.57 368.795,571.41 375.46,593.25 383.297,615.091 385.753,621.392 390.172,636.931 397.142,658.771 405.303,680.611 415,702.452 416.052,704.68 423.443,724.292 433.05,746.132 444.583,767.972 446.35,771.1 455.398,789.813 467.886,811.653 476.648,824.975 481.716,833.493 496.223,855.333 506.946,869.193 512.784,877.174 530.748,899.014 537.245,906.108 550.532,920.854 567.543,937.309 573.196,942.694 597.841,963.8 598.737,964.535 627.39,986.375 628.14,986.914 658.438,1007.15 660.182,1008.22 688.736,1025.21 697.974,1030.06 719.035,1041.18 742.832,1051.9 749.333,1054.95 779.631,1067.81 796.048,1073.74 809.929,1079.21 840.228,1089.61 860.805,1095.58 870.526,1098.82 900.824,1107.88 931.123,1115.25 940.956,1117.42 961.421,1122.94 991.719,1129.95 1022.02,1135.76 1042.88,1139.26 1052.32,1141.37 1082.61,1147.52 1112.91,1152.64 1143.21,1156.98 1173.51,1160.7 1176.92,1161.1 1203.81,1165.77 1234.11,1170.23 1264.4,1174.01 1294.7,1177.26 1325,1180.08 1355.3,1182.55 1360.24,1182.94 1385.6,1186.5 1415.9,1190.13 1446.19,1193.2 1476.49,1195.84 1506.79,1198.13 1537.09,1200.15 1567.39,1201.93 1597.68,1203.52 1623.97,1204.78 1627.98,1205.32 1658.28,1208.98 1688.58,1211.96 1718.88,1214.43 1749.18,1216.51 1779.47,1218.3 1809.77,1219.85 1840.07,1221.21 1870.37,1222.41 1900.67,1223.48 1930.97,1224.44 1961.26,1225.31 1991.56,1226.1 2012.99,1226.62 "/>
<polyline clip-path="url(#clip272)" style="stroke:#3b0964; stroke-linecap:round; stroke-linejoin:round; stroke-width:4; stroke-opacity:1; fill:none" points="1941.32,1226.62 1930.97,1228.68 1900.67,1232.88 1870.37,1235.58 1840.07,1237.43 1809.77,1238.77 1779.47,1239.76 1749.18,1240.53 1718.88,1241.12 1688.58,1241.59 1658.28,1241.95 1627.98,1242.24 1597.68,1242.46 1567.39,1242.63 1537.09,1242.76 1506.79,1242.84 1476.49,1242.9 1446.19,1242.92 1415.9,1242.91 1385.6,1242.88 1355.3,1242.83 1325,1242.75 1294.7,1242.66 1264.4,1242.54 1234.11,1242.4 1203.81,1242.24 1173.51,1242.06 1143.21,1241.85 1112.91,1241.63 1082.61,1241.38 1052.32,1241.1 1022.02,1240.79 991.719,1240.46 961.421,1240.09 931.123,1239.68 900.824,1239.24 870.526,1238.74 840.228,1238.2 809.929,1237.59 779.631,1236.9 749.333,1236.14 719.035,1235.27 688.736,1234.27 658.438,1233.13 628.14,1231.79 597.841,1230.21 567.543,1228.32 544.901,1226.62 537.245,1225.91 506.946,1222.65 476.648,1218.58 446.35,1213.29 416.052,1206.11 411.68,1204.78 385.753,1195.11 362.931,1182.94 355.455,1178.03 336.865,1161.1 325.157,1147.69 319.926,1139.26 308.542,1117.42 299.23,1095.58 294.858,1083.68 292.363,1073.74 287.52,1051.9 283.318,1030.06 279.636,1008.22 276.384,986.375 273.488,964.535 270.892,942.694 268.552,920.854 266.43,899.014 264.56,877.906 264.523,877.174 263.508,855.333 262.599,833.493 261.787,811.653 261.065,789.813 260.427,767.972 259.868,746.132 259.384,724.292 258.97,702.452 258.623,680.611 258.341,658.771 258.12,636.931 257.961,615.091 257.86,593.25 257.816,571.41 257.83,549.57 257.901,527.73 258.027,505.889 258.211,484.049 258.452,462.209 258.751,440.369 259.11,418.528 259.53,396.688 260.014,374.848 260.562,353.008 261.18,331.167 261.869,309.327 262.634,287.487 263.479,265.647 264.41,243.806 264.56,240.553 268.21,243.806 294.858,254.369 296.288,265.647 299.309,287.487 302.785,309.327 306.835,331.167 311.622,353.008 317.385,374.848 324.472,396.688 325.157,398.612 328.337,418.528 332.258,440.369 336.74,462.209 341.92,484.049 347.985,505.889 355.197,527.73 355.455,528.465 360.031,549.57 365.44,571.41 371.705,593.25 379.059,615.091 385.753,632.264 387.08,636.931 393.676,658.771 401.385,680.611 410.529,702.452 416.052,714.159 419.871,724.292 428.972,746.132 439.879,767.972 446.35,779.427 451.372,789.813 463.212,811.653 476.648,832.083 477.487,833.493 491.255,855.333 506.946,875.613 508.088,877.174 525.132,899.014 537.245,912.239 545.007,920.854 567.543,942.653 567.586,942.694 591.956,964.535 597.841,969.319 620.039,986.375 628.14,992.202 652.435,1008.22 658.438,1012.04 688.736,1029.34 690.107,1030.06 719.035,1045.34 733.601,1051.9 749.333,1059.29 779.631,1071.43 786.031,1073.74 809.929,1083.16 840.228,1092.95 849.27,1095.58 870.526,1102.67 900.824,1111.17 927.72,1117.42 931.123,1118.39 961.421,1126.43 991.719,1132.98 1022.02,1138.42 1026.98,1139.26 1052.32,1144.94 1082.61,1150.64 1112.91,1155.4 1143.21,1159.44 1156.91,1161.1 1173.51,1164.16 1203.81,1169.06 1234.11,1173.15 1264.4,1176.62 1294.7,1179.61 1325,1182.21 1333.99,1182.94 1355.3,1186.13 1385.6,1190.02 1415.9,1193.26 1446.19,1196.02 1476.49,1198.39 1506.79,1200.46 1537.09,1202.28 1567.39,1203.89 1585.5,1204.78 1597.68,1206.58 1627.98,1210.4 1658.28,1213.42 1688.58,1215.89 1718.88,1217.95 1749.18,1219.69 1779.47,1221.18 1809.77,1222.48 1840.07,1223.62 1870.37,1224.63 1900.67,1225.54 1930.97,1226.35 1941.32,1226.62 "/>
<polyline clip-path="url(#clip272)" style="stroke:#550f6d; stroke-linecap:round; stroke-linejoin:round; stroke-width:4; stroke-opacity:1; fill:none" points="1861.06,1226.62 1840.07,1228.73 1809.77,1231.05 1779.47,1232.8 1749.18,1234.16 1718.88,1235.23 1688.58,1236.09 1658.28,1236.79 1627.98,1237.35 1597.68,1237.8 1567.39,1238.17 1537.09,1238.47 1506.79,1238.7 1476.49,1238.88 1446.19,1239.02 1415.9,1239.11 1385.6,1239.16 1355.3,1239.18 1325,1239.16 1294.7,1239.11 1264.4,1239.03 1234.11,1238.93 1203.81,1238.79 1173.51,1238.62 1143.21,1238.43 1112.91,1238.2 1082.61,1237.95 1052.32,1237.65 1022.02,1237.33 991.719,1236.96 961.421,1236.56 931.123,1236.1 900.824,1235.6 870.526,1235.04 840.228,1234.41 809.929,1233.71 779.631,1232.92 749.333,1232.03 719.035,1231.02 688.736,1229.86 658.438,1228.52 628.14,1226.96 622.252,1226.62 597.841,1224.84 567.543,1222.29 537.245,1219.27 506.946,1215.6 476.648,1211 446.35,1205.03 445.284,1204.78 416.052,1196.24 385.753,1183.95 383.858,1182.94 355.455,1164.28 351.955,1161.1 332.13,1139.26 325.157,1129.87 318.438,1117.42 308.501,1095.58 300.183,1073.74 294.858,1057.61 293.562,1051.9 289.119,1030.06 285.235,1008.22 281.813,986.375 278.777,964.535 276.065,942.694 273.63,920.854 271.433,899.014 269.442,877.174 267.631,855.333 265.979,833.493 264.56,813 264.508,811.653 263.747,789.813 263.074,767.972 262.483,746.132 261.971,724.292 261.531,702.452 261.162,680.611 260.861,658.771 260.624,636.931 260.45,615.091 260.338,593.25 260.286,571.41 260.293,549.57 260.36,527.73 260.485,505.889 260.669,484.049 260.913,462.209 261.218,440.369 261.585,418.528 262.016,396.688 262.512,374.848 263.076,353.008 263.712,331.167 264.422,309.327 264.56,305.471 279.396,287.487 294.858,280.457 295.786,287.487 298.89,309.327 302.498,331.167 306.753,353.008 311.861,374.848 318.128,396.688 325.157,416.428 325.492,418.528 329.13,440.369 333.282,462.209 338.072,484.049 343.669,505.889 350.311,527.73 355.455,542.386 357.013,549.57 362.085,571.41 367.95,593.25 374.821,615.091 382.997,636.931 385.753,643.646 390.209,658.771 397.467,680.611 406.057,702.452 416.052,723.638 416.298,724.292 424.895,746.132 435.175,767.972 446.35,787.753 447.346,789.813 458.537,811.653 472.236,833.493 476.648,839.878 486.288,855.333 502.457,877.174 506.946,882.693 519.517,899.014 537.245,918.371 539.482,920.854 560.817,942.694 567.543,948.875 585.009,964.535 597.841,974.967 612.688,986.375 628.14,997.49 644.412,1008.22 658.438,1017.15 681.268,1030.06 688.736,1034.28 719.035,1049.49 724.369,1051.9 749.333,1063.63 775.56,1073.74 779.631,1075.45 809.929,1087.11 837.454,1095.58 840.228,1096.56 870.526,1106.52 900.824,1114.46 913.542,1117.42 931.123,1122.47 961.421,1129.93 991.719,1136.02 1010.14,1139.26 1022.02,1142.09 1052.32,1148.5 1082.61,1153.76 1112.91,1158.16 1136.16,1161.1 1143.21,1162.49 1173.51,1167.9 1203.81,1172.35 1234.11,1176.07 1264.4,1179.24 1294.7,1181.97 1306.33,1182.94 1325,1185.95 1355.3,1190.11 1385.6,1193.53 1415.9,1196.4 1446.19,1198.84 1476.49,1200.94 1506.79,1202.78 1537.09,1204.4 1544.49,1204.78 1567.39,1208.57 1597.68,1212.47 1627.98,1215.48 1658.28,1217.87 1688.58,1219.83 1718.88,1221.47 1749.18,1222.86 1779.47,1224.06 1809.77,1225.11 1840.07,1226.03 1861.06,1226.62 "/>
<polyline clip-path="url(#clip272)" style="stroke:#6e186e; stroke-linecap:round; stroke-linejoin:round; stroke-width:4; stroke-opacity:1; fill:none" points="1768.13,1226.62 1749.18,1227.8 1718.88,1229.35 1688.58,1230.6 1658.28,1231.62 1627.98,1232.46 1597.68,1233.14 1567.39,1233.71 1537.09,1234.18 1506.79,1234.56 1476.49,1234.87 1446.19,1235.12 1415.9,1235.3 1385.6,1235.44 1355.3,1235.52 1325,1235.57 1294.7,1235.57 1264.4,1235.53 1234.11,1235.45 1203.81,1235.34 1173.51,1235.19 1143.21,1235 1112.91,1234.78 1082.61,1234.52 1052.32,1234.21 1022.02,1233.86 991.719,1233.47 961.421,1233.02 931.123,1232.52 900.824,1231.96 870.526,1231.33 840.228,1230.63 809.929,1229.83 779.631,1228.94 749.333,1227.92 719.035,1226.77 715.45,1226.62 688.736,1225.14 658.438,1223.28 628.14,1221.19 597.841,1218.78 567.543,1215.98 537.245,1212.63 506.946,1208.54 484.256,1204.78 476.648,1203.24 446.35,1195.9 416.052,1186.24 407.986,1182.94 385.753,1171.92 369.456,1161.1 355.455,1149.76 345.753,1139.26 329.202,1117.42 325.157,1111.14 317.772,1095.58 308.974,1073.74 301.473,1051.9 294.945,1030.06 294.858,1029.74 290.835,1008.22 287.243,986.375 284.065,964.535 281.237,942.694 278.707,920.854 276.435,899.014 274.387,877.174 272.537,855.333 270.861,833.493 269.341,811.653 267.962,789.813 266.711,767.972 265.578,746.132 264.56,724.405 264.557,724.292 264.093,702.452 263.702,680.611 263.381,658.771 263.128,636.931 262.94,615.091 262.816,593.25 262.755,571.41 262.756,549.57 262.819,527.73 262.942,505.889 263.127,484.049 263.375,462.209 263.685,440.369 264.06,418.528 264.501,396.688 264.56,394.125 266.975,374.848 271.26,353.008 278.681,331.167 293.772,309.327 294.858,308.332 294.995,309.327 298.162,331.167 301.884,353.008 306.338,374.848 311.785,396.688 318.63,418.528 325.157,435.242 326.003,440.369 329.824,462.209 334.224,484.049 339.353,505.889 345.426,527.73 352.749,549.57 355.455,556.81 358.73,571.41 364.194,593.25 370.582,615.091 378.167,636.931 385.753,655.411 386.743,658.771 393.548,680.611 401.586,702.452 411.247,724.292 416.052,733.974 420.818,746.132 430.47,767.972 442.211,789.813 446.35,796.779 453.862,811.653 466.732,833.493 476.648,847.843 481.32,855.333 496.526,877.174 506.946,889.984 513.901,899.014 533.169,920.854 537.245,925.083 554.039,942.694 567.543,955.104 578.062,964.535 597.841,980.615 605.337,986.375 628.14,1002.78 636.389,1008.22 658.438,1022.26 672.224,1030.06 688.736,1039.39 714.573,1051.9 719.035,1054.14 749.333,1067.98 764.288,1073.74 779.631,1080.2 809.929,1091.06 824.617,1095.58 840.228,1101.14 870.526,1110.37 899.209,1117.42 900.824,1117.91 931.123,1126.54 961.421,1133.42 991.719,1139.05 992.874,1139.26 1022.02,1146.22 1052.32,1152.07 1082.61,1156.88 1112.91,1160.91 1114.37,1161.1 1143.21,1166.79 1173.51,1171.64 1203.81,1175.64 1234.11,1178.99 1264.4,1181.85 1276.96,1182.94 1294.7,1186.05 1325,1190.51 1355.3,1194.09 1385.6,1197.05 1415.9,1199.54 1446.19,1201.66 1476.49,1203.5 1500.12,1204.78 1506.79,1206.28 1537.09,1211.73 1567.39,1215.54 1597.68,1218.36 1627.98,1220.56 1658.28,1222.32 1688.58,1223.77 1718.88,1224.99 1749.18,1226.03 1768.13,1226.62 "/>
<polyline clip-path="url(#clip272)" style="stroke:#88216a; stroke-linecap:round; stroke-linejoin:round; stroke-width:4; stroke-opacity:1; fill:none" points="1653.96,1226.62 1627.98,1227.56 1597.68,1228.49 1567.39,1229.25 1537.09,1229.89 1506.79,1230.42 1476.49,1230.86 1446.19,1231.21 1415.9,1231.5 1385.6,1231.71 1355.3,1231.87 1325,1231.97 1294.7,1232.02 1264.4,1232.03 1234.11,1231.98 1203.81,1231.89 1173.51,1231.76 1143.21,1231.58 1112.91,1231.36 1082.61,1231.09 1052.32,1230.77 1022.02,1230.4 991.719,1229.97 961.421,1229.49 931.123,1228.94 900.824,1228.32 870.526,1227.63 840.228,1226.84 832.375,1226.62 809.929,1225.7 779.631,1224.36 749.333,1222.92 719.035,1221.33 688.736,1219.57 658.438,1217.59 628.14,1215.34 597.841,1212.73 567.543,1209.66 537.245,1205.99 528.728,1204.78 506.946,1200.99 476.648,1194.68 446.35,1186.73 434.787,1182.94 416.052,1175.55 388.022,1161.1 385.753,1159.69 360.213,1139.26 355.455,1134.67 341.802,1117.42 327.574,1095.58 325.157,1091.32 317.764,1073.74 309.895,1051.9 303.088,1030.06 297.092,1008.22 294.858,999.23 292.673,986.375 289.354,964.535 286.409,942.694 283.785,920.854 281.438,899.014 279.333,877.174 277.443,855.333 275.743,833.493 274.215,811.653 272.844,789.813 271.616,767.972 270.523,746.132 269.556,724.292 268.71,702.452 267.983,680.611 267.373,658.771 266.882,636.931 266.514,615.091 266.278,593.25 266.185,571.41 266.252,549.57 266.506,527.73 266.98,505.889 267.727,484.049 268.824,462.209 270.384,440.369 272.589,418.528 275.744,396.688 280.392,374.848 287.617,353.008 294.858,338.809 297.014,353.008 300.814,374.848 305.441,396.688 311.231,418.528 318.735,440.369 325.157,455.127 326.367,462.209 330.375,484.049 335.037,505.889 340.54,527.73 347.158,549.57 355.299,571.41 355.455,571.798 360.439,593.25 366.344,615.091 373.337,636.931 381.775,658.771 385.753,667.929 389.63,680.611 397.114,702.452 406.086,724.292 416.052,744.374 416.741,746.132 425.766,767.972 436.712,789.813 446.35,806.034 449.188,811.653 461.228,833.493 476.255,855.333 476.648,855.873 490.595,877.174 506.946,897.275 508.286,899.014 526.318,920.854 537.245,932.191 547.26,942.694 567.543,961.333 571.114,964.535 597.841,986.263 597.986,986.375 628.14,1008.07 628.366,1008.22 658.438,1027.37 663.18,1030.06 688.736,1044.51 704.005,1051.9 719.035,1059.47 749.333,1072.32 753.016,1073.74 779.631,1084.95 809.929,1095.01 811.78,1095.58 840.228,1105.72 870.526,1114.22 883.529,1117.42 900.824,1122.74 931.123,1130.61 961.421,1136.92 974.087,1139.26 991.719,1143.78 1022.02,1150.35 1052.32,1155.64 1082.61,1160 1090.91,1161.1 1112.91,1165.78 1143.21,1171.09 1173.51,1175.38 1203.81,1178.92 1234.11,1181.91 1245.52,1182.94 1264.4,1186.58 1294.7,1191.34 1325,1195.06 1355.3,1198.08 1385.6,1200.57 1415.9,1202.67 1446.19,1204.48 1451.48,1204.78 1476.49,1211.77 1506.79,1216.87 1537.09,1220.17 1567.39,1222.5 1597.68,1224.25 1627.98,1225.64 1653.96,1226.62 "/>
<polyline clip-path="url(#clip272)" style="stroke:#a12b61; stroke-linecap:round; stroke-linejoin:round; stroke-width:4; stroke-opacity:1; fill:none" points="1489.14,1226.62 1476.49,1226.85 1446.19,1227.31 1415.9,1227.69 1385.6,1227.99 1355.3,1228.22 1325,1228.38 1294.7,1228.48 1264.4,1228.52 1234.11,1228.51 1203.81,1228.44 1173.51,1228.33 1143.21,1228.16 1112.91,1227.93 1082.61,1227.66 1052.32,1227.32 1022.02,1226.93 1001.04,1226.62 991.719,1226.37 961.421,1225.51 931.123,1224.6 900.824,1223.64 870.526,1222.61 840.228,1221.5 809.929,1220.29 779.631,1218.96 749.333,1217.49 719.035,1215.85 688.736,1214.01 658.438,1211.91 628.14,1209.49 597.841,1206.68 580.243,1204.78 567.543,1203.06 537.245,1198.4 506.946,1192.87 476.648,1186.12 464.889,1182.94 446.35,1176.89 416.052,1164.52 409.42,1161.1 385.753,1146.47 376.745,1139.26 355.455,1118.75 354.402,1117.42 339.458,1095.58 326.97,1073.74 325.157,1070.16 318.318,1051.9 311.232,1030.06 305.032,1008.22 299.52,986.375 294.858,965.931 294.643,964.535 291.581,942.694 288.862,920.854 286.44,899.014 284.279,877.174 282.349,855.333 280.625,833.493 279.09,811.653 277.726,789.813 276.521,767.972 275.467,746.132 274.557,724.292 273.785,702.452 273.152,680.611 272.658,658.771 272.308,636.931 272.109,615.091 272.074,593.25 272.22,571.41 272.574,549.57 273.172,527.73 274.063,505.889 275.32,484.049 277.048,462.209 279.409,440.369 282.653,418.528 287.201,396.688 293.808,374.848 294.858,372.158 295.291,374.848 299.098,396.688 303.832,418.528 309.93,440.369 318.162,462.209 325.157,476.318 326.527,484.049 330.721,505.889 335.655,527.73 341.568,549.57 348.815,571.41 355.455,587.963 356.683,593.25 362.106,615.091 368.508,636.931 376.207,658.771 385.684,680.611 385.753,680.761 392.643,702.452 400.925,724.292 411.034,746.132 416.052,755.703 421.062,767.972 431.214,789.813 443.783,811.653 446.35,815.747 455.724,833.493 469.662,855.333 476.648,864.932 484.664,877.174 501.444,899.014 506.946,905.437 519.468,920.854 537.245,939.299 540.482,942.694 563.392,964.535 567.543,968.162 589.158,986.375 597.841,993.092 618.877,1008.22 628.14,1014.56 653.377,1030.06 658.438,1033.14 688.736,1049.62 693.436,1051.9 719.035,1064.8 740.657,1073.74 749.333,1077.67 779.631,1089.7 797.543,1095.58 809.929,1100.33 840.228,1110.29 867.532,1117.42 870.526,1118.41 900.824,1127.56 931.123,1134.68 954.542,1139.26 961.421,1141.17 991.719,1148.63 1022.02,1154.47 1052.32,1159.2 1065.96,1161.1 1082.61,1164.96 1112.91,1170.8 1143.21,1175.4 1173.51,1179.12 1203.81,1182.21 1211.51,1182.94 1234.11,1187.83 1264.4,1192.83 1294.7,1196.63 1325,1199.62 1355.3,1202.06 1385.6,1204.09 1396.91,1204.78 1415.9,1216.55 1446.19,1222.99 1476.49,1225.81 1489.14,1226.62 "/>
<polyline clip-path="url(#clip272)" style="stroke:#ba3655; stroke-linecap:round; stroke-linejoin:round; stroke-width:4; stroke-opacity:1; fill:none" points="1333.9,1204.78 1325,1209.26 1294.7,1216.41 1264.4,1219.33 1234.11,1220.77 1203.81,1221.5 1173.51,1221.84 1143.21,1221.92 1112.91,1221.82 1082.61,1221.59 1052.32,1221.23 1022.02,1220.78 991.719,1220.24 961.421,1219.6 931.123,1218.87 900.824,1218.04 870.526,1217.11 840.228,1216.06 809.929,1214.88 779.631,1213.56 749.333,1212.07 719.035,1210.37 688.736,1208.44 658.438,1206.22 641.267,1204.78 628.14,1203.34 597.841,1199.66 567.543,1195.47 537.245,1190.59 506.946,1184.76 498.981,1182.94 476.648,1176.76 446.35,1166.59 433.154,1161.1 416.052,1152.61 394.701,1139.26 385.753,1132.62 369.623,1117.42 355.455,1101.56 351.342,1095.58 338.365,1073.74 327.241,1051.9 325.157,1047.32 319.375,1030.06 312.972,1008.22 307.322,986.375 302.266,964.535 297.679,942.694 294.858,928.075 293.94,920.854 291.443,899.014 289.225,877.174 287.255,855.333 285.508,833.493 283.964,811.653 282.608,789.813 281.427,767.972 280.412,746.132 279.558,724.292 278.861,702.452 278.322,680.611 277.944,658.771 277.733,636.931 277.703,615.091 277.869,593.25 278.256,571.41 278.897,549.57 279.838,527.73 281.145,505.889 282.912,484.049 285.273,462.209 288.433,440.369 292.716,418.528 294.858,409.991 296.433,418.528 301.126,440.369 307.401,462.209 316.359,484.049 325.157,499.121 326.405,505.889 330.769,527.73 335.977,549.57 342.331,571.41 350.309,593.25 355.455,605.081 357.868,615.091 363.678,636.931 370.639,658.771 379.173,680.611 385.753,694.839 388.171,702.452 395.764,724.292 404.994,746.132 416.052,767.222 416.358,767.972 425.715,789.813 437.251,811.653 446.35,826.166 450.22,833.493 463.069,855.333 476.648,873.99 478.733,877.174 494.219,899.014 506.946,913.872 512.617,920.854 532.766,942.694 537.245,947.111 554.85,964.535 567.543,975.626 580.299,986.375 597.841,999.944 609.346,1008.22 628.14,1021.09 642.737,1030.06 658.438,1039.62 681.872,1051.9 688.736,1055.63 719.035,1070.13 727.769,1073.74 749.333,1083.51 779.631,1094.45 783.07,1095.58 809.929,1105.88 840.228,1114.87 849.992,1117.42 870.526,1124.25 900.824,1132.39 931.123,1138.76 933.679,1139.26 961.421,1146.97 991.719,1153.47 1022.02,1158.6 1039.09,1161.1 1052.32,1164.5 1082.61,1170.93 1112.91,1175.83 1143.21,1179.7 1173.51,1182.86 1174.29,1182.94 1203.81,1190.28 1234.11,1195.38 1264.4,1199.08 1294.7,1201.92 1325,1204.18 1333.9,1204.78 "/>
<polyline clip-path="url(#clip272)" style="stroke:#d04544; stroke-linecap:round; stroke-linejoin:round; stroke-width:4; stroke-opacity:1; fill:none" points="1256.38,1204.78 1234.11,1207.92 1203.81,1210.63 1173.51,1212.32 1143.21,1213.39 1112.91,1214.03 1082.61,1214.37 1052.32,1214.46 1022.02,1214.36 991.719,1214.1 961.421,1213.69 931.123,1213.13 900.824,1212.44 870.526,1211.6 840.228,1210.62 809.929,1209.48 779.631,1208.16 749.333,1206.64 719.035,1204.89 717.271,1204.78 688.736,1202.2 658.438,1199.23 628.14,1195.93 597.841,1192.2 567.543,1187.89 538.083,1182.94 537.245,1182.76 506.946,1175.52 476.648,1166.92 459.716,1161.1 446.35,1155.59 416.052,1140.31 414.363,1139.26 385.753,1118.05 385.083,1117.42 365.152,1095.58 355.455,1083.2 349.761,1073.74 338.33,1051.9 328.329,1030.06 325.157,1022.37 320.912,1008.22 315.124,986.375 309.988,964.535 305.378,942.694 301.189,920.854 297.338,899.014 294.858,883.832 294.17,877.174 292.16,855.333 290.39,833.493 288.838,811.653 287.489,789.813 286.332,767.972 285.356,746.132 284.558,724.292 283.936,702.452 283.491,680.611 283.229,658.771 283.159,636.931 283.297,615.091 283.665,593.25 284.291,571.41 285.219,549.57 286.504,527.73 288.228,505.889 290.504,484.049 293.497,462.209 294.858,454.24 296.639,462.209 302.695,484.049 312.079,505.889 325.157,523.948 325.884,527.73 330.386,549.57 335.847,571.41 342.66,593.25 351.484,615.091 355.455,623.391 358.848,636.931 365.071,658.771 372.661,680.611 382.193,702.452 385.753,709.622 390.603,724.292 398.955,746.132 409.331,767.972 416.052,780.038 420.216,789.813 430.718,811.653 444,833.493 446.35,837.03 456.476,855.333 471.414,877.174 476.648,883.982 486.994,899.014 505.391,920.854 506.946,922.576 524.191,942.694 537.245,955.565 546.308,964.535 567.543,983.091 571.44,986.375 597.841,1006.8 599.815,1008.22 628.14,1027.63 632.096,1030.06 658.438,1046.09 669.51,1051.9 688.736,1062.36 714.185,1073.74 719.035,1076.13 749.333,1089.36 766.984,1095.58 779.631,1100.85 809.929,1111.43 831.405,1117.42 840.228,1120.63 870.526,1130.08 900.824,1137.21 910.69,1139.26 931.123,1145.5 961.421,1152.77 991.719,1158.32 1009.65,1161.1 1022.02,1164.7 1052.32,1171.76 1082.61,1176.9 1112.91,1180.85 1131.9,1182.94 1143.21,1187.24 1173.51,1195.01 1203.81,1199.71 1234.11,1202.93 1256.38,1204.78 "/>
<polyline clip-path="url(#clip272)" style="stroke:#e35832; stroke-linecap:round; stroke-linejoin:round; stroke-width:4; stroke-opacity:1; fill:none" points="1144.59,1204.78 1143.21,1204.86 1112.91,1206.24 1082.61,1207.15 1052.32,1207.69 1022.02,1207.95 991.719,1207.96 961.421,1207.77 931.123,1207.39 900.824,1206.83 870.526,1206.1 840.228,1205.18 829.287,1204.78 809.929,1203.61 779.631,1201.64 749.333,1199.53 719.035,1197.22 688.736,1194.67 658.438,1191.8 628.14,1188.53 597.841,1184.74 585.401,1182.94 567.543,1179.63 537.245,1173.31 506.946,1165.95 490.141,1161.1 476.648,1156.38 446.35,1143.82 437.322,1139.26 416.052,1126.56 403.706,1117.42 385.753,1101.89 379.981,1095.58 362.733,1073.74 355.455,1063.28 349.419,1051.9 339.267,1030.06 330.243,1008.22 325.157,994.688 322.925,986.375 317.711,964.535 313.076,942.694 308.918,920.854 305.153,899.014 301.713,877.174 298.537,855.333 295.575,833.493 294.858,827.71 293.712,811.653 292.371,789.813 291.237,767.972 290.301,746.132 289.559,724.292 289.012,702.452 288.661,680.611 288.515,658.771 288.585,636.931 288.892,615.091 289.46,593.25 290.327,571.41 291.541,549.57 293.171,527.73 294.858,510.29 301.805,527.73 321.833,549.57 325.157,551.55 329.362,571.41 335.012,593.25 342.264,615.091 352.05,636.931 355.455,643.272 359.503,658.771 366.15,680.611 374.441,702.452 385.183,724.292 385.753,725.35 392.916,746.132 402.143,767.972 413.928,789.813 416.052,793.375 424.186,811.653 436.081,833.493 446.35,848.947 449.883,855.333 463.342,877.174 476.648,894.48 479.768,899.014 496.356,920.854 506.946,932.58 515.616,942.694 537.245,964.019 537.765,964.535 561.293,986.375 567.543,991.59 588.523,1008.22 597.841,1015.12 620.017,1030.06 628.14,1035.42 656.882,1051.9 658.438,1052.82 688.736,1069.09 699.135,1073.74 719.035,1083.54 749.333,1095.2 750.394,1095.58 779.631,1107.76 809.929,1116.98 811.503,1117.42 840.228,1127.87 870.526,1135.91 885.639,1139.26 900.824,1144.46 931.123,1152.61 961.421,1158.57 976.724,1161.1 991.719,1166.23 1022.02,1173.82 1052.32,1179.02 1082.61,1182.87 1083.2,1182.94 1112.91,1199.45 1143.21,1204.61 1144.59,1204.78 "/>
<polyline clip-path="url(#clip272)" style="stroke:#f0701e; stroke-linecap:round; stroke-linejoin:round; stroke-width:4; stroke-opacity:1; fill:none" points="1021.92,1182.94 991.719,1192.73 961.421,1195.86 931.123,1196.93 900.824,1197.06 870.526,1196.63 840.228,1195.81 809.929,1194.68 779.631,1193.25 749.333,1191.53 719.035,1189.51 688.736,1187.14 658.438,1184.37 645.116,1182.94 628.14,1180.46 597.841,1175.58 567.543,1170.13 537.245,1163.85 525.978,1161.1 506.946,1155.37 476.648,1144.82 463.305,1139.26 446.35,1130.86 423.892,1117.42 416.052,1111.95 397.059,1095.58 385.753,1084.4 377.277,1073.74 362.095,1051.9 355.455,1041.26 350.204,1030.06 341.172,1008.22 333.055,986.375 325.563,964.535 325.157,963.242 320.775,942.694 316.648,920.854 312.969,899.014 309.674,877.174 306.711,855.333 304.038,833.493 301.623,811.653 299.44,789.813 297.471,767.972 295.706,746.132 294.858,733.734 294.56,724.292 294.087,702.452 293.83,680.611 293.8,658.771 294.011,636.931 294.486,615.091 294.858,604.332 300.673,593.25 325.157,583.401 327.364,593.25 333.044,615.091 340.601,636.931 351.404,658.771 355.455,665.285 359.638,680.611 366.688,702.452 375.736,724.292 385.753,742.874 386.876,746.132 394.954,767.972 405.182,789.813 416.052,808.052 417.654,811.653 428.162,833.493 441.775,855.333 446.35,861.792 455.271,877.174 470.87,899.014 476.648,906.107 487.321,920.854 506.946,942.584 507.041,942.694 526.813,964.535 537.245,974.329 550.134,986.375 567.543,1000.9 576.772,1008.22 597.841,1023.83 607.085,1030.06 628.14,1043.96 641.982,1051.9 658.438,1061.66 683.144,1073.74 688.736,1076.77 719.035,1090.96 731.138,1095.58 749.333,1103.94 779.631,1114.68 788.743,1117.42 809.929,1126.01 840.228,1135.11 857.586,1139.26 870.526,1144.38 900.824,1153.48 931.123,1159.73 938.836,1161.1 961.421,1170.73 991.719,1178.24 1021.92,1182.94 "/>
<polyline clip-path="url(#clip272)" style="stroke:#f98c09; stroke-linecap:round; stroke-linejoin:round; stroke-width:4; stroke-opacity:1; fill:none" points="926.38,1182.94 900.824,1184.87 870.526,1185.92 840.228,1186.14 809.929,1185.74 779.631,1184.86 749.333,1183.54 739.151,1182.94 719.035,1181 688.736,1177.79 658.438,1174.28 628.14,1170.36 597.841,1165.87 570.311,1161.1 567.543,1160.47 537.245,1152.6 506.946,1143.74 494.021,1139.26 476.648,1131.99 446.92,1117.42 446.35,1117.09 416.052,1095.99 415.573,1095.58 393.62,1073.74 385.753,1064.98 376.665,1051.9 363.207,1030.06 355.455,1016.32 352.1,1008.22 344.117,986.375 336.911,964.535 330.246,942.694 325.157,924.997 324.377,920.854 320.785,899.014 317.636,877.174 314.885,855.333 312.501,833.493 310.467,811.653 308.78,789.813 307.457,767.972 306.541,746.132 306.115,724.292 306.338,702.452 307.517,680.611 310.302,658.771 316.293,636.931 325.157,621.489 329.152,636.931 336.569,658.771 348.105,680.611 355.455,690.293 358.936,702.452 366.288,724.292 376.079,746.132 385.753,762.385 387.765,767.972 396.435,789.813 407.781,811.653 416.052,824.489 420.244,833.493 431.917,855.333 446.35,875.709 447.199,877.174 460.7,899.014 476.648,918.591 478.286,920.854 495.373,942.694 506.946,954.848 515.703,964.535 537.245,984.759 538.974,986.375 564.25,1008.22 567.543,1010.87 593.134,1030.06 597.841,1033.46 626.807,1051.9 628.14,1052.77 658.438,1070.5 665.049,1073.74 688.736,1086.6 710.173,1095.58 719.035,1100.18 749.333,1112.88 763.167,1117.42 779.631,1125.09 809.929,1135.35 824.919,1139.26 840.228,1146.69 870.526,1156.41 892.177,1161.1 900.824,1171.92 926.38,1182.94 "/>
<polyline clip-path="url(#clip272)" style="stroke:#fbaa0e; stroke-linecap:round; stroke-linejoin:round; stroke-width:4; stroke-opacity:1; fill:none" points="824.812,1161.1 809.929,1165.31 779.631,1168.46 749.333,1168.89 719.035,1167.97 688.736,1166.14 658.438,1163.56 636.196,1161.1 628.14,1159.77 597.841,1154.02 567.543,1147.75 537.245,1140.6 532.576,1139.26 506.946,1130.14 476.648,1117.98 475.497,1117.42 446.35,1100.65 439.06,1095.58 416.052,1077.3 412.472,1073.74 393.224,1051.9 385.753,1042.65 378.117,1030.06 366.272,1008.22 355.455,987.135 355.179,986.375 348.259,964.535 342.057,942.694 336.392,920.854 331.094,899.014 325.981,877.174 325.157,873.297 323.059,855.333 320.964,833.493 319.311,811.653 318.121,789.813 317.444,767.972 317.375,746.132 318.085,724.292 319.874,702.452 323.318,680.611 325.157,673.289 327.549,680.611 337.719,702.452 355.455,719.698 356.841,724.292 364.196,746.132 374.48,767.972 385.753,784.68 387.688,789.813 396.823,811.653 409.317,833.493 416.052,843.009 422.06,855.333 434.96,877.174 446.35,892.139 450.53,899.014 465.731,920.854 476.648,933.458 483.67,942.694 503.569,964.535 506.946,967.908 524.471,986.375 537.245,997.876 548.903,1008.22 567.543,1023.24 576.628,1030.06 597.841,1045.41 608.035,1051.9 628.14,1065.11 644.026,1073.74 658.438,1082.57 686.151,1095.58 688.736,1097.16 719.035,1112.38 732.843,1117.42 749.333,1126.77 779.631,1137.81 784.607,1139.26 809.929,1156.29 824.812,1161.1 "/>
<polyline clip-path="url(#clip272)" style="stroke:#f8c931; stroke-linecap:round; stroke-linejoin:round; stroke-width:4; stroke-opacity:1; fill:none" points="722.702,1139.26 719.035,1141.24 688.736,1146.54 658.438,1146.29 628.14,1143.9 597.841,1140.1 593.161,1139.26 567.543,1132.89 537.245,1124.69 514.325,1117.42 506.946,1114.49 476.648,1100.34 468.182,1095.58 446.35,1081.4 436.784,1073.74 416.052,1055.3 413.077,1051.9 396.359,1030.06 385.753,1015.58 381.88,1008.22 371.806,986.375 362.263,964.535 355.455,948.557 353.869,942.694 348.888,920.854 344.568,899.014 340.856,877.174 337.743,855.333 335.306,833.493 333.806,811.653 334.129,789.813 340.723,767.972 355.455,758.168 358.827,767.972 368.47,789.813 385.753,811.373 385.864,811.653 395.006,833.493 408.272,855.333 416.052,865.07 422.232,877.174 436.133,899.014 446.35,911.353 452.397,920.854 469.224,942.694 476.648,950.725 487.619,964.535 506.946,983.838 509.354,986.375 531.908,1008.22 537.245,1012.92 557.259,1030.06 567.543,1038.34 586.225,1051.9 597.841,1060.58 618.965,1073.74 628.14,1080.4 655.759,1095.58 658.438,1097.75 688.736,1115.4 693.533,1117.42 719.035,1137.63 722.702,1139.26 "/>
<polyline clip-path="url(#clip272)" style="stroke:#f1e864; stroke-linecap:round; stroke-linejoin:round; stroke-width:4; stroke-opacity:1; fill:none" points="608.054,1095.58 597.841,1112.28 567.543,1109.8 537.245,1102.97 513.395,1095.58 506.946,1093.02 476.648,1077.76 470.327,1073.74 446.35,1056.68 441.165,1051.9 419.584,1030.06 416.052,1026.33 404.585,1008.22 390.989,986.375 385.753,977.846 380.866,964.535 374.098,942.694 368.046,920.854 362.442,899.014 356.626,877.174 355.455,870.897 354.676,855.333 355.42,833.493 355.455,833.247 355.603,833.493 385.753,849.447 388.352,855.333 400.086,877.174 416.052,893.893 418.785,899.014 432.223,920.854 446.35,936.178 450.664,942.694 467.727,964.535 476.648,973.539 487.134,986.375 506.946,1005.4 509.704,1008.22 532.557,1030.06 537.245,1034.42 557.06,1051.9 567.543,1061.48 583.411,1073.74 597.841,1088.09 608.054,1095.58 "/>
<defs>
  <clipPath id="clip273">
    <rect x="2160" y="47" width="73" height="1377"/>
  </clipPath>
</defs>
<polyline clip-path="url(#clip273)" style="stroke:#0a0723; stroke-linecap:round; stroke-linejoin:round; stroke-width:4; stroke-opacity:1; fill:none" points="2160.76,1337.18 2232.76,1337.18 "/>
<polyline clip-path="url(#clip273)" style="stroke:#200c4a; stroke-linecap:round; stroke-linejoin:round; stroke-width:4; stroke-opacity:1; fill:none" points="2160.76,1251.19 2232.76,1251.19 "/>
<polyline clip-path="url(#clip273)" style="stroke:#3c0965; stroke-linecap:round; stroke-linejoin:round; stroke-width:4; stroke-opacity:1; fill:none" points="2160.76,1165.19 2232.76,1165.19 "/>
<polyline clip-path="url(#clip273)" style="stroke:#570f6d; stroke-linecap:round; stroke-linejoin:round; stroke-width:4; stroke-opacity:1; fill:none" points="2160.76,1079.2 2232.76,1079.2 "/>
<polyline clip-path="url(#clip273)" style="stroke:#70196e; stroke-linecap:round; stroke-linejoin:round; stroke-width:4; stroke-opacity:1; fill:none" points="2160.76,993.2 2232.76,993.2 "/>
<polyline clip-path="url(#clip273)" style="stroke:#892269; stroke-linecap:round; stroke-linejoin:round; stroke-width:4; stroke-opacity:1; fill:none" points="2160.76,907.204 2232.76,907.204 "/>
<polyline clip-path="url(#clip273)" style="stroke:#a32b61; stroke-linecap:round; stroke-linejoin:round; stroke-width:4; stroke-opacity:1; fill:none" points="2160.76,821.208 2232.76,821.208 "/>
<polyline clip-path="url(#clip273)" style="stroke:#bb3754; stroke-linecap:round; stroke-linejoin:round; stroke-width:4; stroke-opacity:1; fill:none" points="2160.76,735.212 2232.76,735.212 "/>
<polyline clip-path="url(#clip273)" style="stroke:#d04544; stroke-linecap:round; stroke-linejoin:round; stroke-width:4; stroke-opacity:1; fill:none" points="2160.76,649.216 2232.76,649.216 "/>
<polyline clip-path="url(#clip273)" style="stroke:#e35832; stroke-linecap:round; stroke-linejoin:round; stroke-width:4; stroke-opacity:1; fill:none" points="2160.76,563.22 2232.76,563.22 "/>
<polyline clip-path="url(#clip273)" style="stroke:#f0701e; stroke-linecap:round; stroke-linejoin:round; stroke-width:4; stroke-opacity:1; fill:none" points="2160.76,477.224 2232.76,477.224 "/>
<polyline clip-path="url(#clip273)" style="stroke:#f98c09; stroke-linecap:round; stroke-linejoin:round; stroke-width:4; stroke-opacity:1; fill:none" points="2160.76,391.228 2232.76,391.228 "/>
<polyline clip-path="url(#clip273)" style="stroke:#fbaa0e; stroke-linecap:round; stroke-linejoin:round; stroke-width:4; stroke-opacity:1; fill:none" points="2160.76,305.232 2232.76,305.232 "/>
<polyline clip-path="url(#clip273)" style="stroke:#f8c931; stroke-linecap:round; stroke-linejoin:round; stroke-width:4; stroke-opacity:1; fill:none" points="2160.76,219.236 2232.76,219.236 "/>
<polyline clip-path="url(#clip273)" style="stroke:#f1e864; stroke-linecap:round; stroke-linejoin:round; stroke-width:4; stroke-opacity:1; fill:none" points="2160.76,133.24 2232.76,133.24 "/>
<path clip-path="url(#clip270)" d="M2268.76 1420 L2298.43 1420 L2298.43 1423.94 L2268.76 1423.94 L2268.76 1420 Z" fill="#000000" fill-rule="nonzero" fill-opacity="1" /><path clip-path="url(#clip270)" d="M2318.52 1420.42 Q2315.19 1420.42 2313.27 1422.2 Q2311.37 1423.98 2311.37 1427.11 Q2311.37 1430.23 2313.27 1432.02 Q2315.19 1433.8 2318.52 1433.8 Q2321.86 1433.8 2323.78 1432.02 Q2325.7 1430.21 2325.7 1427.11 Q2325.7 1423.98 2323.78 1422.2 Q2321.88 1420.42 2318.52 1420.42 M2313.85 1418.43 Q2310.84 1417.69 2309.15 1415.63 Q2307.48 1413.57 2307.48 1410.6 Q2307.48 1406.46 2310.42 1404.05 Q2313.39 1401.65 2318.52 1401.65 Q2323.69 1401.65 2326.63 1404.05 Q2329.57 1406.46 2329.57 1410.6 Q2329.57 1413.57 2327.88 1415.63 Q2326.21 1417.69 2323.22 1418.43 Q2326.6 1419.22 2328.48 1421.51 Q2330.38 1423.8 2330.38 1427.11 Q2330.38 1432.13 2327.3 1434.82 Q2324.24 1437.5 2318.52 1437.5 Q2312.81 1437.5 2309.73 1434.82 Q2306.67 1432.13 2306.67 1427.11 Q2306.67 1423.8 2308.57 1421.51 Q2310.47 1419.22 2313.85 1418.43 M2312.14 1411.04 Q2312.14 1413.73 2313.8 1415.23 Q2315.49 1416.74 2318.52 1416.74 Q2321.53 1416.74 2323.22 1415.23 Q2324.94 1413.73 2324.94 1411.04 Q2324.94 1408.36 2323.22 1406.85 Q2321.53 1405.35 2318.52 1405.35 Q2315.49 1405.35 2313.8 1406.85 Q2312.14 1408.36 2312.14 1411.04 Z" fill="#000000" fill-rule="nonzero" fill-opacity="1" /><path clip-path="url(#clip270)" d="M2338.69 1430.95 L2343.57 1430.95 L2343.57 1436.83 L2338.69 1436.83 L2338.69 1430.95 Z" fill="#000000" fill-rule="nonzero" fill-opacity="1" /><path clip-path="url(#clip270)" d="M2363.76 1405.35 Q2360.14 1405.35 2358.32 1408.91 Q2356.51 1412.46 2356.51 1419.59 Q2356.51 1426.69 2358.32 1430.26 Q2360.14 1433.8 2363.76 1433.8 Q2367.39 1433.8 2369.2 1430.26 Q2371.02 1426.69 2371.02 1419.59 Q2371.02 1412.46 2369.2 1408.91 Q2367.39 1405.35 2363.76 1405.35 M2363.76 1401.65 Q2369.57 1401.65 2372.62 1406.25 Q2375.7 1410.84 2375.7 1419.59 Q2375.7 1428.31 2372.62 1432.92 Q2369.57 1437.5 2363.76 1437.5 Q2357.95 1437.5 2354.87 1432.92 Q2351.81 1428.31 2351.81 1419.59 Q2351.81 1410.84 2354.87 1406.25 Q2357.95 1401.65 2363.76 1401.65 Z" fill="#000000" fill-rule="nonzero" fill-opacity="1" /><polyline clip-path="url(#clip270)" style="stroke:#000000; stroke-linecap:round; stroke-linejoin:round; stroke-width:4; stroke-opacity:1; fill:none" points="2232.76,1423.18 2256.76,1423.18 "/>
<path clip-path="url(#clip270)" d="M2268.76 1206.02 L2298.43 1206.02 L2298.43 1209.96 L2268.76 1209.96 L2268.76 1206.02 Z" fill="#000000" fill-rule="nonzero" fill-opacity="1" /><path clip-path="url(#clip270)" d="M2307.34 1188.29 L2329.57 1188.29 L2329.57 1190.28 L2317.02 1222.85 L2312.14 1222.85 L2323.94 1192.23 L2307.34 1192.23 L2307.34 1188.29 Z" fill="#000000" fill-rule="nonzero" fill-opacity="1" /><path clip-path="url(#clip270)" d="M2338.69 1216.97 L2343.57 1216.97 L2343.57 1222.85 L2338.69 1222.85 L2338.69 1216.97 Z" fill="#000000" fill-rule="nonzero" fill-opacity="1" /><path clip-path="url(#clip270)" d="M2353.8 1188.29 L2372.16 1188.29 L2372.16 1192.23 L2358.08 1192.23 L2358.08 1200.7 Q2359.1 1200.35 2360.12 1200.19 Q2361.14 1200.01 2362.16 1200.01 Q2367.95 1200.01 2371.32 1203.18 Q2374.7 1206.35 2374.7 1211.76 Q2374.7 1217.34 2371.23 1220.45 Q2367.76 1223.52 2361.44 1223.52 Q2359.26 1223.52 2357 1223.15 Q2354.75 1222.78 2352.34 1222.04 L2352.34 1217.34 Q2354.43 1218.48 2356.65 1219.03 Q2358.87 1219.59 2361.35 1219.59 Q2365.35 1219.59 2367.69 1217.48 Q2370.03 1215.38 2370.03 1211.76 Q2370.03 1208.15 2367.69 1206.05 Q2365.35 1203.94 2361.35 1203.94 Q2359.47 1203.94 2357.6 1204.36 Q2355.75 1204.77 2353.8 1205.65 L2353.8 1188.29 Z" fill="#000000" fill-rule="nonzero" fill-opacity="1" /><polyline clip-path="url(#clip270)" style="stroke:#000000; stroke-linecap:round; stroke-linejoin:round; stroke-width:4; stroke-opacity:1; fill:none" points="2232.76,1209.2 2256.76,1209.2 "/>
<path clip-path="url(#clip270)" d="M2268.76 992.046 L2298.43 992.046 L2298.43 995.981 L2268.76 995.981 L2268.76 992.046 Z" fill="#000000" fill-rule="nonzero" fill-opacity="1" /><path clip-path="url(#clip270)" d="M2307.34 974.315 L2329.57 974.315 L2329.57 976.305 L2317.02 1008.87 L2312.14 1008.87 L2323.94 978.25 L2307.34 978.25 L2307.34 974.315 Z" fill="#000000" fill-rule="nonzero" fill-opacity="1" /><path clip-path="url(#clip270)" d="M2338.69 1002.99 L2343.57 1002.99 L2343.57 1008.87 L2338.69 1008.87 L2338.69 1002.99 Z" fill="#000000" fill-rule="nonzero" fill-opacity="1" /><path clip-path="url(#clip270)" d="M2363.76 977.393 Q2360.14 977.393 2358.32 980.958 Q2356.51 984.5 2356.51 991.629 Q2356.51 998.736 2358.32 1002.3 Q2360.14 1005.84 2363.76 1005.84 Q2367.39 1005.84 2369.2 1002.3 Q2371.02 998.736 2371.02 991.629 Q2371.02 984.5 2369.2 980.958 Q2367.39 977.393 2363.76 977.393 M2363.76 973.69 Q2369.57 973.69 2372.62 978.296 Q2375.7 982.879 2375.7 991.629 Q2375.7 1000.36 2372.62 1004.96 Q2369.57 1009.55 2363.76 1009.55 Q2357.95 1009.55 2354.87 1004.96 Q2351.81 1000.36 2351.81 991.629 Q2351.81 982.879 2354.87 978.296 Q2357.95 973.69 2363.76 973.69 Z" fill="#000000" fill-rule="nonzero" fill-opacity="1" /><polyline clip-path="url(#clip270)" style="stroke:#000000; stroke-linecap:round; stroke-linejoin:round; stroke-width:4; stroke-opacity:1; fill:none" points="2232.76,995.223 2256.76,995.223 "/>
<path clip-path="url(#clip270)" d="M2268.76 778.068 L2298.43 778.068 L2298.43 782.003 L2268.76 782.003 L2268.76 778.068 Z" fill="#000000" fill-rule="nonzero" fill-opacity="1" /><path clip-path="url(#clip270)" d="M2319.1 775.753 Q2315.95 775.753 2314.1 777.906 Q2312.27 780.058 2312.27 783.808 Q2312.27 787.535 2314.1 789.711 Q2315.95 791.864 2319.1 791.864 Q2322.25 791.864 2324.08 789.711 Q2325.93 787.535 2325.93 783.808 Q2325.93 780.058 2324.08 777.906 Q2322.25 775.753 2319.1 775.753 M2328.39 761.1 L2328.39 765.359 Q2326.63 764.526 2324.82 764.086 Q2323.04 763.646 2321.28 763.646 Q2316.65 763.646 2314.2 766.771 Q2311.76 769.896 2311.42 776.216 Q2312.78 774.202 2314.84 773.137 Q2316.9 772.049 2319.38 772.049 Q2324.59 772.049 2327.6 775.22 Q2330.63 778.369 2330.63 783.808 Q2330.63 789.132 2327.48 792.35 Q2324.33 795.568 2319.1 795.568 Q2313.11 795.568 2309.94 790.984 Q2306.76 786.378 2306.76 777.651 Q2306.76 769.457 2310.65 764.595 Q2314.54 759.711 2321.09 759.711 Q2322.85 759.711 2324.64 760.058 Q2326.44 760.406 2328.39 761.1 Z" fill="#000000" fill-rule="nonzero" fill-opacity="1" /><path clip-path="url(#clip270)" d="M2338.69 789.017 L2343.57 789.017 L2343.57 794.896 L2338.69 794.896 L2338.69 789.017 Z" fill="#000000" fill-rule="nonzero" fill-opacity="1" /><path clip-path="url(#clip270)" d="M2353.8 760.336 L2372.16 760.336 L2372.16 764.271 L2358.08 764.271 L2358.08 772.744 Q2359.1 772.396 2360.12 772.234 Q2361.14 772.049 2362.16 772.049 Q2367.95 772.049 2371.32 775.22 Q2374.7 778.392 2374.7 783.808 Q2374.7 789.387 2371.23 792.489 Q2367.76 795.568 2361.44 795.568 Q2359.26 795.568 2357 795.197 Q2354.75 794.827 2352.34 794.086 L2352.34 789.387 Q2354.43 790.521 2356.65 791.077 Q2358.87 791.632 2361.35 791.632 Q2365.35 791.632 2367.69 789.526 Q2370.03 787.419 2370.03 783.808 Q2370.03 780.197 2367.69 778.091 Q2365.35 775.984 2361.35 775.984 Q2359.47 775.984 2357.6 776.401 Q2355.75 776.818 2353.8 777.697 L2353.8 760.336 Z" fill="#000000" fill-rule="nonzero" fill-opacity="1" /><polyline clip-path="url(#clip270)" style="stroke:#000000; stroke-linecap:round; stroke-linejoin:round; stroke-width:4; stroke-opacity:1; fill:none" points="2232.76,781.245 2256.76,781.245 "/>
<path clip-path="url(#clip270)" d="M2268.76 564.089 L2298.43 564.089 L2298.43 568.025 L2268.76 568.025 L2268.76 564.089 Z" fill="#000000" fill-rule="nonzero" fill-opacity="1" /><path clip-path="url(#clip270)" d="M2319.1 561.775 Q2315.95 561.775 2314.1 563.927 Q2312.27 566.08 2312.27 569.83 Q2312.27 573.557 2314.1 575.733 Q2315.95 577.886 2319.1 577.886 Q2322.25 577.886 2324.08 575.733 Q2325.93 573.557 2325.93 569.83 Q2325.93 566.08 2324.08 563.927 Q2322.25 561.775 2319.1 561.775 M2328.39 547.122 L2328.39 551.381 Q2326.63 550.548 2324.82 550.108 Q2323.04 549.668 2321.28 549.668 Q2316.65 549.668 2314.2 552.793 Q2311.76 555.918 2311.42 562.238 Q2312.78 560.224 2314.84 559.159 Q2316.9 558.071 2319.38 558.071 Q2324.59 558.071 2327.6 561.242 Q2330.63 564.39 2330.63 569.83 Q2330.63 575.154 2327.48 578.372 Q2324.33 581.589 2319.1 581.589 Q2313.11 581.589 2309.94 577.006 Q2306.76 572.399 2306.76 563.673 Q2306.76 555.478 2310.65 550.617 Q2314.54 545.733 2321.09 545.733 Q2322.85 545.733 2324.64 546.08 Q2326.44 546.427 2328.39 547.122 Z" fill="#000000" fill-rule="nonzero" fill-opacity="1" /><path clip-path="url(#clip270)" d="M2338.69 575.038 L2343.57 575.038 L2343.57 580.918 L2338.69 580.918 L2338.69 575.038 Z" fill="#000000" fill-rule="nonzero" fill-opacity="1" /><path clip-path="url(#clip270)" d="M2363.76 549.437 Q2360.14 549.437 2358.32 553.001 Q2356.51 556.543 2356.51 563.673 Q2356.51 570.779 2358.32 574.344 Q2360.14 577.886 2363.76 577.886 Q2367.39 577.886 2369.2 574.344 Q2371.02 570.779 2371.02 563.673 Q2371.02 556.543 2369.2 553.001 Q2367.39 549.437 2363.76 549.437 M2363.76 545.733 Q2369.57 545.733 2372.62 550.339 Q2375.7 554.923 2375.7 563.673 Q2375.7 572.399 2372.62 577.006 Q2369.57 581.589 2363.76 581.589 Q2357.95 581.589 2354.87 577.006 Q2351.81 572.399 2351.81 563.673 Q2351.81 554.923 2354.87 550.339 Q2357.95 545.733 2363.76 545.733 Z" fill="#000000" fill-rule="nonzero" fill-opacity="1" /><polyline clip-path="url(#clip270)" style="stroke:#000000; stroke-linecap:round; stroke-linejoin:round; stroke-width:4; stroke-opacity:1; fill:none" points="2232.76,567.267 2256.76,567.267 "/>
<path clip-path="url(#clip270)" d="M2268.76 350.111 L2298.43 350.111 L2298.43 354.046 L2268.76 354.046 L2268.76 350.111 Z" fill="#000000" fill-rule="nonzero" fill-opacity="1" /><path clip-path="url(#clip270)" d="M2308.57 332.38 L2326.93 332.38 L2326.93 336.315 L2312.85 336.315 L2312.85 344.787 Q2313.87 344.44 2314.89 344.278 Q2315.91 344.093 2316.93 344.093 Q2322.71 344.093 2326.09 347.264 Q2329.47 350.435 2329.47 355.852 Q2329.47 361.43 2326 364.532 Q2322.53 367.611 2316.21 367.611 Q2314.03 367.611 2311.76 367.241 Q2309.52 366.87 2307.11 366.13 L2307.11 361.43 Q2309.2 362.565 2311.42 363.12 Q2313.64 363.676 2316.12 363.676 Q2320.12 363.676 2322.46 361.569 Q2324.8 359.463 2324.8 355.852 Q2324.8 352.241 2322.46 350.134 Q2320.12 348.028 2316.12 348.028 Q2314.24 348.028 2312.37 348.444 Q2310.51 348.861 2308.57 349.741 L2308.57 332.38 Z" fill="#000000" fill-rule="nonzero" fill-opacity="1" /><path clip-path="url(#clip270)" d="M2338.69 361.06 L2343.57 361.06 L2343.57 366.94 L2338.69 366.94 L2338.69 361.06 Z" fill="#000000" fill-rule="nonzero" fill-opacity="1" /><path clip-path="url(#clip270)" d="M2353.8 332.38 L2372.16 332.38 L2372.16 336.315 L2358.08 336.315 L2358.08 344.787 Q2359.1 344.44 2360.12 344.278 Q2361.14 344.093 2362.16 344.093 Q2367.95 344.093 2371.32 347.264 Q2374.7 350.435 2374.7 355.852 Q2374.7 361.43 2371.23 364.532 Q2367.76 367.611 2361.44 367.611 Q2359.26 367.611 2357 367.241 Q2354.75 366.87 2352.34 366.13 L2352.34 361.43 Q2354.43 362.565 2356.65 363.12 Q2358.87 363.676 2361.35 363.676 Q2365.35 363.676 2367.69 361.569 Q2370.03 359.463 2370.03 355.852 Q2370.03 352.241 2367.69 350.134 Q2365.35 348.028 2361.35 348.028 Q2359.47 348.028 2357.6 348.444 Q2355.75 348.861 2353.8 349.741 L2353.8 332.38 Z" fill="#000000" fill-rule="nonzero" fill-opacity="1" /><polyline clip-path="url(#clip270)" style="stroke:#000000; stroke-linecap:round; stroke-linejoin:round; stroke-width:4; stroke-opacity:1; fill:none" points="2232.76,353.288 2256.76,353.288 "/>
<path clip-path="url(#clip270)" d="M2268.76 136.133 L2298.43 136.133 L2298.43 140.068 L2268.76 140.068 L2268.76 136.133 Z" fill="#000000" fill-rule="nonzero" fill-opacity="1" /><path clip-path="url(#clip270)" d="M2308.57 118.401 L2326.93 118.401 L2326.93 122.337 L2312.85 122.337 L2312.85 130.809 Q2313.87 130.462 2314.89 130.3 Q2315.91 130.114 2316.93 130.114 Q2322.71 130.114 2326.09 133.286 Q2329.47 136.457 2329.47 141.874 Q2329.47 147.452 2326 150.554 Q2322.53 153.633 2316.21 153.633 Q2314.03 153.633 2311.76 153.262 Q2309.52 152.892 2307.11 152.151 L2307.11 147.452 Q2309.2 148.586 2311.42 149.142 Q2313.64 149.698 2316.12 149.698 Q2320.12 149.698 2322.46 147.591 Q2324.8 145.485 2324.8 141.874 Q2324.8 138.262 2322.46 136.156 Q2320.12 134.049 2316.12 134.049 Q2314.24 134.049 2312.37 134.466 Q2310.51 134.883 2308.57 135.762 L2308.57 118.401 Z" fill="#000000" fill-rule="nonzero" fill-opacity="1" /><path clip-path="url(#clip270)" d="M2338.69 147.082 L2343.57 147.082 L2343.57 152.961 L2338.69 152.961 L2338.69 147.082 Z" fill="#000000" fill-rule="nonzero" fill-opacity="1" /><path clip-path="url(#clip270)" d="M2363.76 121.48 Q2360.14 121.48 2358.32 125.045 Q2356.51 128.587 2356.51 135.716 Q2356.51 142.823 2358.32 146.387 Q2360.14 149.929 2363.76 149.929 Q2367.39 149.929 2369.2 146.387 Q2371.02 142.823 2371.02 135.716 Q2371.02 128.587 2369.2 125.045 Q2367.39 121.48 2363.76 121.48 M2363.76 117.776 Q2369.57 117.776 2372.62 122.383 Q2375.7 126.966 2375.7 135.716 Q2375.7 144.443 2372.62 149.049 Q2369.57 153.633 2363.76 153.633 Q2357.95 153.633 2354.87 149.049 Q2351.81 144.443 2351.81 135.716 Q2351.81 126.966 2354.87 122.383 Q2357.95 117.776 2363.76 117.776 Z" fill="#000000" fill-rule="nonzero" fill-opacity="1" /><polyline clip-path="url(#clip270)" style="stroke:#000000; stroke-linecap:round; stroke-linejoin:round; stroke-width:4; stroke-opacity:1; fill:none" points="2232.76,139.31 2256.76,139.31 "/>
<polyline clip-path="url(#clip270)" style="stroke:#000000; stroke-linecap:round; stroke-linejoin:round; stroke-width:4; stroke-opacity:1; fill:none" points="2232.76,1423.18 2232.76,47.2441 "/>
</svg>
