<?xml version="1.0" encoding="utf-8"?>
<svg xmlns="http://www.w3.org/2000/svg" xmlns:xlink="http://www.w3.org/1999/xlink" width="600" height="400" viewBox="0 0 2400 1600">
<defs>
  <clipPath id="clip800">
    <rect x="0" y="0" width="2400" height="1600"/>
  </clipPath>
</defs>
<path clip-path="url(#clip800)" d="M0 1600 L2400 1600 L2400 0 L0 0  Z" fill="#ffffff" fill-rule="evenodd" fill-opacity="1"/>
<defs>
  <clipPath id="clip801">
    <rect x="480" y="0" width="1681" height="1600"/>
  </clipPath>
</defs>
<path clip-path="url(#clip800)" d="M242.135 1423.18 L2352.76 1423.18 L2352.76 47.2441 L242.135 47.2441  Z" fill="#ffffff" fill-rule="evenodd" fill-opacity="1"/>
<defs>
  <clipPath id="clip802">
    <rect x="242" y="47" width="2112" height="1377"/>
  </clipPath>
</defs>
<polyline clip-path="url(#clip802)" style="stroke:#000000; stroke-linecap:round; stroke-linejoin:round; stroke-width:2; stroke-opacity:0.1; fill:none" points="301.205,1423.18 301.205,47.2441 "/>
<polyline clip-path="url(#clip802)" style="stroke:#000000; stroke-linecap:round; stroke-linejoin:round; stroke-width:2; stroke-opacity:0.1; fill:none" points="965.144,1423.18 965.144,47.2441 "/>
<polyline clip-path="url(#clip802)" style="stroke:#000000; stroke-linecap:round; stroke-linejoin:round; stroke-width:2; stroke-opacity:0.1; fill:none" points="1629.08,1423.18 1629.08,47.2441 "/>
<polyline clip-path="url(#clip802)" style="stroke:#000000; stroke-linecap:round; stroke-linejoin:round; stroke-width:2; stroke-opacity:0.1; fill:none" points="2293.02,1423.18 2293.02,47.2441 "/>
<polyline clip-path="url(#clip802)" style="stroke:#000000; stroke-linecap:round; stroke-linejoin:round; stroke-width:2; stroke-opacity:0.1; fill:none" points="242.135,1423.18 2352.76,1423.18 "/>
<polyline clip-path="url(#clip802)" style="stroke:#000000; stroke-linecap:round; stroke-linejoin:round; stroke-width:2; stroke-opacity:0.1; fill:none" points="242.135,1038.25 2352.76,1038.25 "/>
<polyline clip-path="url(#clip802)" style="stroke:#000000; stroke-linecap:round; stroke-linejoin:round; stroke-width:2; stroke-opacity:0.1; fill:none" points="242.135,653.319 2352.76,653.319 "/>
<polyline clip-path="url(#clip802)" style="stroke:#000000; stroke-linecap:round; stroke-linejoin:round; stroke-width:2; stroke-opacity:0.1; fill:none" points="242.135,268.389 2352.76,268.389 "/>
<polyline clip-path="url(#clip800)" style="stroke:#000000; stroke-linecap:round; stroke-linejoin:round; stroke-width:4; stroke-opacity:1; fill:none" points="242.135,1423.18 2352.76,1423.18 "/>
<polyline clip-path="url(#clip800)" style="stroke:#000000; stroke-linecap:round; stroke-linejoin:round; stroke-width:4; stroke-opacity:1; fill:none" points="301.205,1423.18 301.205,1404.28 "/>
<polyline clip-path="url(#clip800)" style="stroke:#000000; stroke-linecap:round; stroke-linejoin:round; stroke-width:4; stroke-opacity:1; fill:none" points="965.144,1423.18 965.144,1404.28 "/>
<polyline clip-path="url(#clip800)" style="stroke:#000000; stroke-linecap:round; stroke-linejoin:round; stroke-width:4; stroke-opacity:1; fill:none" points="1629.08,1423.18 1629.08,1404.28 "/>
<polyline clip-path="url(#clip800)" style="stroke:#000000; stroke-linecap:round; stroke-linejoin:round; stroke-width:4; stroke-opacity:1; fill:none" points="2293.02,1423.18 2293.02,1404.28 "/>
<path clip-path="url(#clip800)" d="M301.205 1454.1 Q297.594 1454.1 295.766 1457.66 Q293.96 1461.2 293.96 1468.33 Q293.96 1475.44 295.766 1479.01 Q297.594 1482.55 301.205 1482.55 Q304.84 1482.55 306.645 1479.01 Q308.474 1475.44 308.474 1468.33 Q308.474 1461.2 306.645 1457.66 Q304.84 1454.1 301.205 1454.1 M301.205 1450.39 Q307.015 1450.39 310.071 1455 Q313.15 1459.58 313.15 1468.33 Q313.15 1477.06 310.071 1481.67 Q307.015 1486.25 301.205 1486.25 Q295.395 1486.25 292.316 1481.67 Q289.261 1477.06 289.261 1468.33 Q289.261 1459.58 292.316 1455 Q295.395 1450.39 301.205 1450.39 Z" fill="#000000" fill-rule="nonzero" fill-opacity="1" /><path clip-path="url(#clip800)" d="M909.67 1481.64 L917.309 1481.64 L917.309 1455.28 L908.998 1456.95 L908.998 1452.69 L917.262 1451.02 L921.938 1451.02 L921.938 1481.64 L929.577 1481.64 L929.577 1485.58 L909.67 1485.58 L909.67 1481.64 Z" fill="#000000" fill-rule="nonzero" fill-opacity="1" /><path clip-path="url(#clip800)" d="M949.021 1454.1 Q945.41 1454.1 943.582 1457.66 Q941.776 1461.2 941.776 1468.33 Q941.776 1475.44 943.582 1479.01 Q945.41 1482.55 949.021 1482.55 Q952.656 1482.55 954.461 1479.01 Q956.29 1475.44 956.29 1468.33 Q956.29 1461.2 954.461 1457.66 Q952.656 1454.1 949.021 1454.1 M949.021 1450.39 Q954.832 1450.39 957.887 1455 Q960.966 1459.58 960.966 1468.33 Q960.966 1477.06 957.887 1481.67 Q954.832 1486.25 949.021 1486.25 Q943.211 1486.25 940.133 1481.67 Q937.077 1477.06 937.077 1468.33 Q937.077 1459.58 940.133 1455 Q943.211 1450.39 949.021 1450.39 Z" fill="#000000" fill-rule="nonzero" fill-opacity="1" /><path clip-path="url(#clip800)" d="M979.183 1454.1 Q975.572 1454.1 973.743 1457.66 Q971.938 1461.2 971.938 1468.33 Q971.938 1475.44 973.743 1479.01 Q975.572 1482.55 979.183 1482.55 Q982.817 1482.55 984.623 1479.01 Q986.452 1475.44 986.452 1468.33 Q986.452 1461.2 984.623 1457.66 Q982.817 1454.1 979.183 1454.1 M979.183 1450.39 Q984.993 1450.39 988.049 1455 Q991.128 1459.58 991.128 1468.33 Q991.128 1477.06 988.049 1481.67 Q984.993 1486.25 979.183 1486.25 Q973.373 1486.25 970.294 1481.67 Q967.239 1477.06 967.239 1468.33 Q967.239 1459.58 970.294 1455 Q973.373 1450.39 979.183 1450.39 Z" fill="#000000" fill-rule="nonzero" fill-opacity="1" /><path clip-path="url(#clip800)" d="M1009.35 1454.1 Q1005.73 1454.1 1003.91 1457.66 Q1002.1 1461.2 1002.1 1468.33 Q1002.1 1475.44 1003.91 1479.01 Q1005.73 1482.55 1009.35 1482.55 Q1012.98 1482.55 1014.78 1479.01 Q1016.61 1475.44 1016.61 1468.33 Q1016.61 1461.2 1014.78 1457.66 Q1012.98 1454.1 1009.35 1454.1 M1009.35 1450.39 Q1015.16 1450.39 1018.21 1455 Q1021.29 1459.58 1021.29 1468.33 Q1021.29 1477.06 1018.21 1481.67 Q1015.16 1486.25 1009.35 1486.25 Q1003.53 1486.25 1000.46 1481.67 Q997.401 1477.06 997.401 1468.33 Q997.401 1459.58 1000.46 1455 Q1003.53 1450.39 1009.35 1450.39 Z" fill="#000000" fill-rule="nonzero" fill-opacity="1" /><path clip-path="url(#clip800)" d="M1577.69 1481.64 L1594.01 1481.64 L1594.01 1485.58 L1572.07 1485.58 L1572.07 1481.64 Q1574.73 1478.89 1579.31 1474.26 Q1583.92 1469.61 1585.1 1468.27 Q1587.35 1465.74 1588.23 1464.01 Q1589.13 1462.25 1589.13 1460.56 Q1589.13 1457.8 1587.18 1456.07 Q1585.26 1454.33 1582.16 1454.33 Q1579.96 1454.33 1577.51 1455.09 Q1575.08 1455.86 1572.3 1457.41 L1572.3 1452.69 Q1575.12 1451.55 1577.58 1450.97 Q1580.03 1450.39 1582.07 1450.39 Q1587.44 1450.39 1590.63 1453.08 Q1593.83 1455.77 1593.83 1460.26 Q1593.83 1462.39 1593.02 1464.31 Q1592.23 1466.2 1590.12 1468.8 Q1589.55 1469.47 1586.44 1472.69 Q1583.34 1475.88 1577.69 1481.64 Z" fill="#000000" fill-rule="nonzero" fill-opacity="1" /><path clip-path="url(#clip800)" d="M1613.83 1454.1 Q1610.22 1454.1 1608.39 1457.66 Q1606.58 1461.2 1606.58 1468.33 Q1606.58 1475.44 1608.39 1479.01 Q1610.22 1482.55 1613.83 1482.55 Q1617.46 1482.55 1619.27 1479.01 Q1621.1 1475.44 1621.1 1468.33 Q1621.1 1461.2 1619.27 1457.66 Q1617.46 1454.1 1613.83 1454.1 M1613.83 1450.39 Q1619.64 1450.39 1622.69 1455 Q1625.77 1459.58 1625.77 1468.33 Q1625.77 1477.06 1622.69 1481.67 Q1619.64 1486.25 1613.83 1486.25 Q1608.02 1486.25 1604.94 1481.67 Q1601.88 1477.06 1601.88 1468.33 Q1601.88 1459.58 1604.94 1455 Q1608.02 1450.39 1613.83 1450.39 Z" fill="#000000" fill-rule="nonzero" fill-opacity="1" /><path clip-path="url(#clip800)" d="M1643.99 1454.1 Q1640.38 1454.1 1638.55 1457.66 Q1636.74 1461.2 1636.74 1468.33 Q1636.74 1475.44 1638.55 1479.01 Q1640.38 1482.55 1643.99 1482.55 Q1647.62 1482.55 1649.43 1479.01 Q1651.26 1475.44 1651.26 1468.33 Q1651.26 1461.2 1649.43 1457.66 Q1647.62 1454.1 1643.99 1454.1 M1643.99 1450.39 Q1649.8 1450.39 1652.86 1455 Q1655.93 1459.58 1655.93 1468.33 Q1655.93 1477.06 1652.86 1481.67 Q1649.8 1486.25 1643.99 1486.25 Q1638.18 1486.25 1635.1 1481.67 Q1632.05 1477.06 1632.05 1468.33 Q1632.05 1459.58 1635.1 1455 Q1638.18 1450.39 1643.99 1450.39 Z" fill="#000000" fill-rule="nonzero" fill-opacity="1" /><path clip-path="url(#clip800)" d="M1674.15 1454.1 Q1670.54 1454.1 1668.71 1457.66 Q1666.91 1461.2 1666.91 1468.33 Q1666.91 1475.44 1668.71 1479.01 Q1670.54 1482.55 1674.15 1482.55 Q1677.79 1482.55 1679.59 1479.01 Q1681.42 1475.44 1681.42 1468.33 Q1681.42 1461.2 1679.59 1457.66 Q1677.79 1454.1 1674.15 1454.1 M1674.15 1450.39 Q1679.96 1450.39 1683.02 1455 Q1686.1 1459.58 1686.1 1468.33 Q1686.1 1477.06 1683.02 1481.67 Q1679.96 1486.25 1674.15 1486.25 Q1668.34 1486.25 1665.26 1481.67 Q1662.21 1477.06 1662.21 1468.33 Q1662.21 1459.58 1665.26 1455 Q1668.34 1450.39 1674.15 1450.39 Z" fill="#000000" fill-rule="nonzero" fill-opacity="1" /><path clip-path="url(#clip800)" d="M2251.7 1466.95 Q2255.06 1467.66 2256.93 1469.93 Q2258.83 1472.2 2258.83 1475.53 Q2258.83 1480.65 2255.31 1483.45 Q2251.79 1486.25 2245.31 1486.25 Q2243.14 1486.25 2240.82 1485.81 Q2238.53 1485.39 2236.08 1484.54 L2236.08 1480.02 Q2238.02 1481.16 2240.34 1481.74 Q2242.65 1482.32 2245.17 1482.32 Q2249.57 1482.32 2251.86 1480.58 Q2254.18 1478.84 2254.18 1475.53 Q2254.18 1472.48 2252.03 1470.77 Q2249.9 1469.03 2246.08 1469.03 L2242.05 1469.03 L2242.05 1465.19 L2246.26 1465.19 Q2249.71 1465.19 2251.54 1463.82 Q2253.37 1462.43 2253.37 1459.84 Q2253.37 1457.18 2251.47 1455.77 Q2249.6 1454.33 2246.08 1454.33 Q2244.16 1454.33 2241.96 1454.75 Q2239.76 1455.16 2237.12 1456.04 L2237.12 1451.88 Q2239.78 1451.14 2242.1 1450.77 Q2244.43 1450.39 2246.49 1450.39 Q2251.82 1450.39 2254.92 1452.83 Q2258.02 1455.23 2258.02 1459.35 Q2258.02 1462.22 2256.38 1464.21 Q2254.73 1466.18 2251.7 1466.95 Z" fill="#000000" fill-rule="nonzero" fill-opacity="1" /><path clip-path="url(#clip800)" d="M2277.7 1454.1 Q2274.09 1454.1 2272.26 1457.66 Q2270.45 1461.2 2270.45 1468.33 Q2270.45 1475.44 2272.26 1479.01 Q2274.09 1482.55 2277.7 1482.55 Q2281.33 1482.55 2283.14 1479.01 Q2284.97 1475.44 2284.97 1468.33 Q2284.97 1461.2 2283.14 1457.66 Q2281.33 1454.1 2277.7 1454.1 M2277.7 1450.39 Q2283.51 1450.39 2286.56 1455 Q2289.64 1459.58 2289.64 1468.33 Q2289.64 1477.06 2286.56 1481.67 Q2283.51 1486.25 2277.7 1486.25 Q2271.89 1486.25 2268.81 1481.67 Q2265.75 1477.06 2265.75 1468.33 Q2265.75 1459.58 2268.81 1455 Q2271.89 1450.39 2277.7 1450.39 Z" fill="#000000" fill-rule="nonzero" fill-opacity="1" /><path clip-path="url(#clip800)" d="M2307.86 1454.1 Q2304.25 1454.1 2302.42 1457.66 Q2300.61 1461.2 2300.61 1468.33 Q2300.61 1475.44 2302.42 1479.01 Q2304.25 1482.55 2307.86 1482.55 Q2311.49 1482.55 2313.3 1479.01 Q2315.13 1475.44 2315.13 1468.33 Q2315.13 1461.2 2313.3 1457.66 Q2311.49 1454.1 2307.86 1454.1 M2307.86 1450.39 Q2313.67 1450.39 2316.72 1455 Q2319.8 1459.58 2319.8 1468.33 Q2319.8 1477.06 2316.72 1481.67 Q2313.67 1486.25 2307.86 1486.25 Q2302.05 1486.25 2298.97 1481.67 Q2295.91 1477.06 2295.91 1468.33 Q2295.91 1459.58 2298.97 1455 Q2302.05 1450.39 2307.86 1450.39 Z" fill="#000000" fill-rule="nonzero" fill-opacity="1" /><path clip-path="url(#clip800)" d="M2338.02 1454.1 Q2334.41 1454.1 2332.58 1457.66 Q2330.78 1461.2 2330.78 1468.33 Q2330.78 1475.44 2332.58 1479.01 Q2334.41 1482.55 2338.02 1482.55 Q2341.66 1482.55 2343.46 1479.01 Q2345.29 1475.44 2345.29 1468.33 Q2345.29 1461.2 2343.46 1457.66 Q2341.66 1454.1 2338.02 1454.1 M2338.02 1450.39 Q2343.83 1450.39 2346.89 1455 Q2349.97 1459.58 2349.97 1468.33 Q2349.97 1477.06 2346.89 1481.67 Q2343.83 1486.25 2338.02 1486.25 Q2332.21 1486.25 2329.13 1481.67 Q2326.08 1477.06 2326.08 1468.33 Q2326.08 1459.58 2329.13 1455 Q2332.21 1450.39 2338.02 1450.39 Z" fill="#000000" fill-rule="nonzero" fill-opacity="1" /><path clip-path="url(#clip800)" d="M1165.17 1520.52 L1171.6 1520.52 L1171.6 1568.04 L1165.17 1568.04 L1165.17 1520.52 Z" fill="#000000" fill-rule="nonzero" fill-opacity="1" /><path clip-path="url(#clip800)" d="M1189.93 1522.27 L1189.93 1532.4 L1201.99 1532.4 L1201.99 1536.95 L1189.93 1536.95 L1189.93 1556.3 Q1189.93 1560.66 1191.11 1561.9 Q1192.32 1563.14 1195.98 1563.14 L1201.99 1563.14 L1201.99 1568.04 L1195.98 1568.04 Q1189.2 1568.04 1186.62 1565.53 Q1184.04 1562.98 1184.04 1556.3 L1184.04 1536.95 L1179.74 1536.95 L1179.74 1532.4 L1184.04 1532.4 L1184.04 1522.27 L1189.93 1522.27 Z" fill="#000000" fill-rule="nonzero" fill-opacity="1" /><path clip-path="url(#clip800)" d="M1240.19 1548.76 L1240.19 1551.62 L1213.26 1551.62 Q1213.64 1557.67 1216.89 1560.85 Q1220.17 1564 1225.99 1564 Q1229.36 1564 1232.52 1563.17 Q1235.7 1562.35 1238.82 1560.69 L1238.82 1566.23 Q1235.67 1567.57 1232.36 1568.27 Q1229.05 1568.97 1225.64 1568.97 Q1217.11 1568.97 1212.11 1564 Q1207.15 1559.04 1207.15 1550.57 Q1207.15 1541.82 1211.86 1536.69 Q1216.6 1531.54 1224.62 1531.54 Q1231.81 1531.54 1235.98 1536.18 Q1240.19 1540.8 1240.19 1548.76 M1234.33 1547.04 Q1234.27 1542.23 1231.62 1539.37 Q1229.01 1536.5 1224.69 1536.5 Q1219.78 1536.5 1216.82 1539.27 Q1213.9 1542.04 1213.45 1547.07 L1234.33 1547.04 Z" fill="#000000" fill-rule="nonzero" fill-opacity="1" /><path clip-path="url(#clip800)" d="M1270.45 1537.87 Q1269.47 1537.3 1268.29 1537.04 Q1267.14 1536.76 1265.74 1536.76 Q1260.78 1536.76 1258.11 1540 Q1255.46 1543.22 1255.46 1549.27 L1255.46 1568.04 L1249.58 1568.04 L1249.58 1532.4 L1255.46 1532.4 L1255.46 1537.93 Q1257.31 1534.69 1260.27 1533.13 Q1263.23 1531.54 1267.46 1531.54 Q1268.07 1531.54 1268.8 1531.63 Q1269.53 1531.7 1270.42 1531.85 L1270.45 1537.87 Z" fill="#000000" fill-rule="nonzero" fill-opacity="1" /><path clip-path="url(#clip800)" d="M1292.8 1550.12 Q1285.7 1550.12 1282.96 1551.75 Q1280.23 1553.37 1280.23 1557.29 Q1280.23 1560.4 1282.26 1562.25 Q1284.33 1564.07 1287.86 1564.07 Q1292.73 1564.07 1295.66 1560.63 Q1298.62 1557.16 1298.62 1551.43 L1298.62 1550.12 L1292.8 1550.12 M1304.48 1547.71 L1304.48 1568.04 L1298.62 1568.04 L1298.62 1562.63 Q1296.62 1565.88 1293.63 1567.44 Q1290.63 1568.97 1286.31 1568.97 Q1280.83 1568.97 1277.58 1565.91 Q1274.37 1562.82 1274.37 1557.67 Q1274.37 1551.65 1278.38 1548.6 Q1282.42 1545.54 1290.41 1545.54 L1298.62 1545.54 L1298.62 1544.97 Q1298.62 1540.93 1295.95 1538.73 Q1293.31 1536.5 1288.5 1536.5 Q1285.45 1536.5 1282.55 1537.23 Q1279.65 1537.97 1276.98 1539.43 L1276.98 1534.02 Q1280.19 1532.78 1283.22 1532.17 Q1286.24 1531.54 1289.11 1531.54 Q1296.84 1531.54 1300.66 1535.55 Q1304.48 1539.56 1304.48 1547.71 Z" fill="#000000" fill-rule="nonzero" fill-opacity="1" /><path clip-path="url(#clip800)" d="M1322.34 1522.27 L1322.34 1532.4 L1334.4 1532.4 L1334.4 1536.95 L1322.34 1536.95 L1322.34 1556.3 Q1322.34 1560.66 1323.51 1561.9 Q1324.72 1563.14 1328.38 1563.14 L1334.4 1563.14 L1334.4 1568.04 L1328.38 1568.04 Q1321.6 1568.04 1319.03 1565.53 Q1316.45 1562.98 1316.45 1556.3 L1316.45 1536.95 L1312.15 1536.95 L1312.15 1532.4 L1316.45 1532.4 L1316.45 1522.27 L1322.34 1522.27 Z" fill="#000000" fill-rule="nonzero" fill-opacity="1" /><path clip-path="url(#clip800)" d="M1342.1 1532.4 L1347.96 1532.4 L1347.96 1568.04 L1342.1 1568.04 L1342.1 1532.4 M1342.1 1518.52 L1347.96 1518.52 L1347.96 1525.93 L1342.1 1525.93 L1342.1 1518.52 Z" fill="#000000" fill-rule="nonzero" fill-opacity="1" /><path clip-path="url(#clip800)" d="M1374.02 1536.5 Q1369.31 1536.5 1366.58 1540.19 Q1363.84 1543.85 1363.84 1550.25 Q1363.84 1556.65 1366.55 1560.34 Q1369.28 1564 1374.02 1564 Q1378.7 1564 1381.44 1560.31 Q1384.18 1556.62 1384.18 1550.25 Q1384.18 1543.92 1381.44 1540.23 Q1378.7 1536.5 1374.02 1536.5 M1374.02 1531.54 Q1381.66 1531.54 1386.02 1536.5 Q1390.38 1541.47 1390.38 1550.25 Q1390.38 1559 1386.02 1564 Q1381.66 1568.97 1374.02 1568.97 Q1366.35 1568.97 1361.99 1564 Q1357.66 1559 1357.66 1550.25 Q1357.66 1541.47 1361.99 1536.5 Q1366.35 1531.54 1374.02 1531.54 Z" fill="#000000" fill-rule="nonzero" fill-opacity="1" /><path clip-path="url(#clip800)" d="M1429.72 1546.53 L1429.72 1568.04 L1423.87 1568.04 L1423.87 1546.72 Q1423.87 1541.66 1421.89 1539.14 Q1419.92 1536.63 1415.97 1536.63 Q1411.23 1536.63 1408.5 1539.65 Q1405.76 1542.68 1405.76 1547.9 L1405.76 1568.04 L1399.87 1568.04 L1399.87 1532.4 L1405.76 1532.4 L1405.76 1537.93 Q1407.86 1534.72 1410.69 1533.13 Q1413.56 1531.54 1417.28 1531.54 Q1423.42 1531.54 1426.57 1535.36 Q1429.72 1539.14 1429.72 1546.53 Z" fill="#000000" fill-rule="nonzero" fill-opacity="1" /><polyline clip-path="url(#clip800)" style="stroke:#000000; stroke-linecap:round; stroke-linejoin:round; stroke-width:4; stroke-opacity:1; fill:none" points="242.135,1423.18 242.135,47.2441 "/>
<polyline clip-path="url(#clip800)" style="stroke:#000000; stroke-linecap:round; stroke-linejoin:round; stroke-width:4; stroke-opacity:1; fill:none" points="242.135,1423.18 261.032,1423.18 "/>
<polyline clip-path="url(#clip800)" style="stroke:#000000; stroke-linecap:round; stroke-linejoin:round; stroke-width:4; stroke-opacity:1; fill:none" points="242.135,1038.25 261.032,1038.25 "/>
<polyline clip-path="url(#clip800)" style="stroke:#000000; stroke-linecap:round; stroke-linejoin:round; stroke-width:4; stroke-opacity:1; fill:none" points="242.135,653.319 261.032,653.319 "/>
<polyline clip-path="url(#clip800)" style="stroke:#000000; stroke-linecap:round; stroke-linejoin:round; stroke-width:4; stroke-opacity:1; fill:none" points="242.135,268.389 261.032,268.389 "/>
<path clip-path="url(#clip800)" d="M114.26 1423.63 L143.936 1423.63 L143.936 1427.57 L114.26 1427.57 L114.26 1423.63 Z" fill="#000000" fill-rule="nonzero" fill-opacity="1" /><path clip-path="url(#clip800)" d="M154.839 1436.52 L162.477 1436.52 L162.477 1410.16 L154.167 1411.83 L154.167 1407.57 L162.431 1405.9 L167.107 1405.9 L167.107 1436.52 L174.746 1436.52 L174.746 1440.46 L154.839 1440.46 L154.839 1436.52 Z" fill="#000000" fill-rule="nonzero" fill-opacity="1" /><path clip-path="url(#clip800)" d="M194.19 1408.98 Q190.579 1408.98 188.75 1412.54 Q186.945 1416.08 186.945 1423.21 Q186.945 1430.32 188.75 1433.89 Q190.579 1437.43 194.19 1437.43 Q197.825 1437.43 199.63 1433.89 Q201.459 1430.32 201.459 1423.21 Q201.459 1416.08 199.63 1412.54 Q197.825 1408.98 194.19 1408.98 M194.19 1405.27 Q200 1405.27 203.056 1409.88 Q206.135 1414.46 206.135 1423.21 Q206.135 1431.94 203.056 1436.55 Q200 1441.13 194.19 1441.13 Q188.38 1441.13 185.301 1436.55 Q182.246 1431.94 182.246 1423.21 Q182.246 1414.46 185.301 1409.88 Q188.38 1405.27 194.19 1405.27 Z" fill="#000000" fill-rule="nonzero" fill-opacity="1" /><path clip-path="url(#clip800)" d="M144.515 1038.7 L174.19 1038.7 L174.19 1042.64 L144.515 1042.64 L144.515 1038.7 Z" fill="#000000" fill-rule="nonzero" fill-opacity="1" /><path clip-path="url(#clip800)" d="M194.283 1039.12 Q190.95 1039.12 189.028 1040.9 Q187.13 1042.68 187.13 1045.81 Q187.13 1048.93 189.028 1050.71 Q190.95 1052.5 194.283 1052.5 Q197.616 1052.5 199.537 1050.71 Q201.459 1048.91 201.459 1045.81 Q201.459 1042.68 199.537 1040.9 Q197.639 1039.12 194.283 1039.12 M189.607 1037.13 Q186.598 1036.39 184.908 1034.33 Q183.241 1032.27 183.241 1029.3 Q183.241 1025.16 186.181 1022.75 Q189.144 1020.34 194.283 1020.34 Q199.445 1020.34 202.385 1022.75 Q205.324 1025.16 205.324 1029.3 Q205.324 1032.27 203.635 1034.33 Q201.968 1036.39 198.982 1037.13 Q202.362 1037.91 204.237 1040.21 Q206.135 1042.5 206.135 1045.81 Q206.135 1050.83 203.056 1053.52 Q200 1056.2 194.283 1056.2 Q188.565 1056.2 185.487 1053.52 Q182.431 1050.83 182.431 1045.81 Q182.431 1042.5 184.329 1040.21 Q186.227 1037.91 189.607 1037.13 M187.894 1029.74 Q187.894 1032.43 189.561 1033.93 Q191.25 1035.44 194.283 1035.44 Q197.292 1035.44 198.982 1033.93 Q200.695 1032.43 200.695 1029.74 Q200.695 1027.06 198.982 1025.55 Q197.292 1024.05 194.283 1024.05 Q191.25 1024.05 189.561 1025.55 Q187.894 1027.06 187.894 1029.74 Z" fill="#000000" fill-rule="nonzero" fill-opacity="1" /><path clip-path="url(#clip800)" d="M144.26 653.771 L173.936 653.771 L173.936 657.706 L144.26 657.706 L144.26 653.771 Z" fill="#000000" fill-rule="nonzero" fill-opacity="1" /><path clip-path="url(#clip800)" d="M194.607 651.456 Q191.459 651.456 189.607 653.609 Q187.778 655.761 187.778 659.511 Q187.778 663.238 189.607 665.414 Q191.459 667.567 194.607 667.567 Q197.755 667.567 199.584 665.414 Q201.436 663.238 201.436 659.511 Q201.436 655.761 199.584 653.609 Q197.755 651.456 194.607 651.456 M203.889 636.803 L203.889 641.062 Q202.13 640.229 200.325 639.789 Q198.542 639.35 196.783 639.35 Q192.153 639.35 189.7 642.474 Q187.269 645.599 186.922 651.919 Q188.288 649.905 190.348 648.84 Q192.408 647.752 194.885 647.752 Q200.093 647.752 203.102 650.924 Q206.135 654.072 206.135 659.511 Q206.135 664.835 202.987 668.053 Q199.838 671.271 194.607 671.271 Q188.612 671.271 185.44 666.687 Q182.269 662.081 182.269 653.354 Q182.269 645.16 186.158 640.299 Q190.047 635.414 196.598 635.414 Q198.357 635.414 200.139 635.762 Q201.945 636.109 203.889 636.803 Z" fill="#000000" fill-rule="nonzero" fill-opacity="1" /><path clip-path="url(#clip800)" d="M143.936 268.84 L173.612 268.84 L173.612 272.776 L143.936 272.776 L143.936 268.84 Z" fill="#000000" fill-rule="nonzero" fill-opacity="1" /><path clip-path="url(#clip800)" d="M196.551 255.183 L184.746 273.632 L196.551 273.632 L196.551 255.183 M195.325 251.109 L201.204 251.109 L201.204 273.632 L206.135 273.632 L206.135 277.521 L201.204 277.521 L201.204 285.669 L196.551 285.669 L196.551 277.521 L180.95 277.521 L180.95 273.007 L195.325 251.109 Z" fill="#000000" fill-rule="nonzero" fill-opacity="1" /><path clip-path="url(#clip800)" d="M16.4842 816.375 L16.4842 786.329 L21.895 786.329 L21.895 809.945 L35.9632 809.945 L35.9632 787.315 L41.3741 787.315 L41.3741 809.945 L58.5933 809.945 L58.5933 785.756 L64.0042 785.756 L64.0042 816.375 L16.4842 816.375 Z" fill="#000000" fill-rule="nonzero" fill-opacity="1" /><path clip-path="url(#clip800)" d="M16.4842 775.189 L16.4842 768.759 L58.5933 768.759 L58.5933 745.62 L64.0042 745.62 L64.0042 775.189 L16.4842 775.189 Z" fill="#000000" fill-rule="nonzero" fill-opacity="1" /><path clip-path="url(#clip800)" d="M41.3104 732.443 L58.7206 732.443 L58.7206 722.13 Q58.7206 716.942 56.5881 714.46 Q54.4238 711.945 49.9996 711.945 Q45.5436 711.945 43.4429 714.46 Q41.3104 716.942 41.3104 722.13 L41.3104 732.443 M21.7677 732.443 L36.0905 732.443 L36.0905 722.926 Q36.0905 718.216 34.34 715.924 Q32.5576 713.6 28.9291 713.6 Q25.3325 713.6 23.5501 715.924 Q21.7677 718.216 21.7677 722.926 L21.7677 732.443 M16.4842 738.872 L16.4842 722.449 Q16.4842 715.096 19.5397 711.118 Q22.5952 707.139 28.2289 707.139 Q32.5894 707.139 35.1675 709.176 Q37.7456 711.213 38.3822 715.16 Q39.4007 710.418 42.6472 707.808 Q45.8619 705.166 50.6998 705.166 Q57.0655 705.166 60.5348 709.495 Q64.0042 713.823 64.0042 721.812 L64.0042 738.872 L16.4842 738.872 Z" fill="#000000" fill-rule="nonzero" fill-opacity="1" /><path clip-path="url(#clip800)" d="M20.8447 676.011 Q20.8447 683.013 26.0645 687.151 Q31.2844 691.257 40.2919 691.257 Q49.2675 691.257 54.4874 687.151 Q59.7073 683.013 59.7073 676.011 Q59.7073 669.009 54.4874 664.935 Q49.2675 660.829 40.2919 660.829 Q31.2844 660.829 26.0645 664.935 Q20.8447 669.009 20.8447 676.011 M15.6248 676.011 Q15.6248 666.017 22.3406 660.033 Q29.0246 654.049 40.2919 654.049 Q51.5274 654.049 58.2432 660.033 Q64.9272 666.017 64.9272 676.011 Q64.9272 686.037 58.2432 692.052 Q51.5592 698.036 40.2919 698.036 Q29.0246 698.036 22.3406 692.052 Q15.6248 686.037 15.6248 676.011 Z" fill="#000000" fill-rule="nonzero" fill-opacity="1" /><polyline clip-path="url(#clip802)" style="stroke:#009af9; stroke-linecap:round; stroke-linejoin:round; stroke-width:4; stroke-opacity:1; fill:none" points="301.869,1390.01 302.533,1688.49 303.197,1087.92 303.861,1079.37 304.525,1238.69 305.189,1352.04 305.853,1237.16 306.517,1544.27 307.181,3086.4 307.845,1620.17 308.509,1099.5 309.173,3945.39 309.836,1304.97 310.5,1220.95 311.164,833.547 311.828,1435.92 312.492,1287.16 313.156,856.455 313.82,1063.58 314.484,1119.46 315.148,747.542 315.812,816.95 316.476,1756.56 317.14,1340.8 317.804,1439.37 318.468,741.943 319.132,1023.48 319.796,1069.03 320.46,932.141 321.123,958.197 321.787,1165.11 322.451,514.656 323.115,1529.79 323.779,1203.42 324.443,1364.37 325.107,964.309 325.771,478.804 326.435,996.289 327.099,324.814 327.763,924.058 328.427,675.478 329.091,1506.25 329.755,745.517 330.419,821.967 331.083,668.732 331.746,707.305 332.41,609.139 333.074,698.968 333.738,541.682 334.402,658.158 335.066,783.285 335.73,671.671 336.394,643.111 337.058,576.128 337.722,741.084 338.386,538.984 339.05,424.037 339.714,1225.89 340.378,770.072 341.042,775.488 341.706,724.084 342.369,680.217 343.033,573.565 343.697,436.39 344.361,457.721 345.025,553.416 345.689,483.616 346.353,296.957 347.017,358.174 347.681,315.291 348.345,334.413 349.009,370.499 349.673,427.127 350.337,438.88 351.001,265.113 351.665,341.742 352.329,238.944 352.993,301.947 353.656,213.119 354.32,256.851 354.984,182.59 355.648,296.886 356.312,268.062 356.976,845.677 357.64,330.349 358.304,405.469 358.968,279.88 359.632,525.053 360.296,1239.95 360.96,716.827 361.624,535.453 362.288,428.297 362.952,286.807 363.616,389.682 364.279,361.239 364.943,288.564 365.607,315.969 366.271,308.936 366.935,373.369 367.599,293.56 368.263,518.213 368.927,885.481 369.591,661.462 370.255,383.361 370.919,302.002 371.583,302.394 372.247,835.712 372.911,378.393 373.575,352.482 374.239,442.685 374.902,324.999 375.566,285.326 376.23,389.529 376.894,253.059 377.558,200.456 378.222,348.721 378.886,164.327 379.55,241.982 380.214,143.816 380.878,397.758 381.542,509.044 382.206,282.626 382.87,220.05 383.534,247.665 384.198,352.029 384.862,251.848 385.526,223.766 386.189,187.392 386.853,218.085 387.517,225.892 388.181,671.06 388.845,152.971 389.509,161.233 390.173,635.04 390.837,962.031 391.501,507.082 392.165,379.01 392.829,288.509 393.493,310.14 394.157,203.689 394.821,184.195 395.485,174.784 396.149,215.831 396.812,225.305 397.476,268.224 398.14,233.086 398.804,215.98 399.468,175.824 400.132,168.081 400.796,190.393 401.46,101.626 402.124,259.556 402.788,302.795 403.452,202.069 404.116,136.406 404.78,365.284 405.444,167.933 406.108,131.907 406.772,468.526 407.435,333.621 408.099,284.363 408.763,275.703 409.427,264.537 410.091,243.684 410.755,207.974 411.419,283.653 412.083,200.557 412.747,216.458 413.411,173.447 414.075,240.768 414.739,236.068 415.403,194.517 416.067,294.726 416.731,256.767 417.395,215.758 418.058,191.238 418.722,187.529 419.386,241.428 420.05,202.404 420.714,247.17 421.378,183.269 422.042,559.705 422.706,735.472 423.37,455.284 424.034,291.01 424.698,191.203 425.362,216.742 426.026,187.267 426.69,203.236 427.354,187.026 428.018,164.112 428.682,180.717 429.345,159.067 430.009,206.819 430.673,157.567 431.337,163.589 432.001,146.471 432.665,122.158 433.329,162.968 433.993,177.075 434.657,169.24 435.321,197.686 435.985,138.174 436.649,153.297 437.313,147.619 437.977,141.139 438.641,291.77 439.305,165.007 439.968,141.644 440.632,118.065 441.296,164.129 441.96,181.364 442.624,177.478 443.288,165.211 443.952,230.561 444.616,242.665 445.28,190.637 445.944,131.792 446.608,227.861 447.272,183.519 447.936,116.89 448.6,154.86 449.264,163.702 449.928,134.945 450.591,145.981 451.255,90.9883 451.919,169.525 452.583,140.929 453.247,152.027 453.911,105.874 454.575,160.225 455.239,131.151 455.903,195.516 456.567,236.274 457.231,184.214 457.895,89.981 458.559,187.178 459.223,121.522 459.887,157.041 460.551,165.706 461.215,190.051 461.878,160.739 462.542,146.006 463.206,157.053 463.87,99.1506 464.534,148.433 465.198,112.025 465.862,209.898 466.526,175.923 467.19,149.846 467.854,170.069 468.518,130.773 469.182,140.803 469.846,120.255 470.51,126.033 471.174,150.371 471.838,146.722 472.501,95.0332 473.165,151.179 473.829,161.144 474.493,123.7 475.157,128.816 475.821,104.449 476.485,142.759 477.149,451.896 477.813,267.962 478.477,273.35 479.141,201.837 479.805,173.174 480.469,163.733 481.133,219.801 481.797,160.117 482.461,182.471 483.124,202.512 483.788,149.802 484.452,122.485 485.116,176.262 485.78,209.759 486.444,140.35 487.108,172.469 487.772,140.969 488.436,169.799 489.1,147.626 489.764,147.036 490.428,111.087 491.092,156.69 491.756,116.854 492.42,156.07 493.084,132.447 493.748,176.957 494.411,173.896 495.075,145.451 495.739,189.438 496.403,164.478 497.067,147.744 497.731,122.424 498.395,178.739 499.059,122.761 499.723,124.597 500.387,141.508 501.051,106.546 501.715,114.88 502.379,237.696 503.043,98.8274 503.707,137.102 504.371,72.5914 505.034,122.67 505.698,160.771 506.362,164.896 507.026,141.352 507.69,154.664 508.354,143.636 509.018,172.378 509.682,122.359 510.346,94.0151 511.01,133.798 511.674,90.815 512.338,171.45 513.002,106.917 513.666,229.528 514.33,89.8349 514.994,184.894 515.657,122.884 516.321,107.762 516.985,148.934 517.649,91.5274 518.313,157.344 518.977,101.622 519.641,109.406 520.305,108.683 520.969,210.082 521.633,157.451 522.297,120.15 522.961,130.13 523.625,147.573 524.289,153.647 524.953,110.516 525.617,136.439 526.281,126.015 526.944,113.749 527.608,132.926 528.272,117.404 528.936,111.847 529.6,163.643 530.264,177.431 530.928,146.288 531.592,122.195 532.256,118.57 532.92,146.979 533.584,131.36 534.248,103.054 534.912,149.772 535.576,128.574 536.24,127.762 536.904,123.512 537.567,127.831 538.231,134.208 538.895,119.894 539.559,197.459 540.223,110.009 540.887,122.674 541.551,122.526 542.215,141.404 542.879,94.7947 543.543,136.848 544.207,373.797 544.871,277.921 545.535,208.655 546.199,281.032 546.863,235.097 547.527,281.353 548.19,271.795 548.854,236.241 549.518,195.124 550.182,170.976 550.846,221.674 551.51,129.02 552.174,146.617 552.838,140.788 553.502,212.039 554.166,193.756 554.83,88.7123 555.494,145.535 556.158,142.323 556.822,151.424 557.486,198.345 558.15,168.381 558.813,111.069 559.477,150.817 560.141,99.1019 560.805,155.389 561.469,157.714 562.133,136.883 562.797,133.528 563.461,145.736 564.125,119.661 564.789,187.05 565.453,157.888 566.117,141.841 566.781,192.256 567.445,126.36 568.109,132.633 568.773,65.8308 569.437,170.954 570.1,158.793 570.764,177.105 571.428,121.148 572.092,231.782 572.756,177.961 573.42,70.5649 574.084,156.634 574.748,107.14 575.412,204.692 576.076,117.563 576.74,124.58 577.404,114.355 578.068,184.618 578.732,172.451 579.396,142.66 580.06,168.533 580.723,190.708 581.387,135.46 582.051,138.056 582.715,162.265 583.379,107.262 584.043,122.829 584.707,114.475 585.371,118.502 586.035,89.8237 586.699,94.085 587.363,134.725 588.027,105.115 588.691,160.147 589.355,136.564 590.019,83.5013 590.683,144.483 591.346,155.452 592.01,272.422 592.674,239.111 593.338,117.113 594.002,145.813 594.666,120.876 595.33,142.721 595.994,136.826 596.658,133.493 597.322,144.973 597.986,123.724 598.65,214.277 599.314,90.0262 599.978,140.197 600.642,140.814 601.306,144.205 601.97,141.183 602.633,196.234 603.297,109.878 603.961,138.098 604.625,168.771 605.289,117.502 605.953,135.917 606.617,128.047 607.281,131.197 607.945,118.738 608.609,135.566 609.273,136.006 609.937,189.549 610.601,143.85 611.265,113.8 611.929,114.777 612.593,131.436 613.256,115.072 613.92,139.137 614.584,186.705 615.248,163.146 615.912,124.689 616.576,128.248 617.24,191.014 617.904,175.545 618.568,127.386 619.232,169.624 619.896,139.643 620.56,124.639 621.224,152.486 621.888,145.49 622.552,137.422 623.216,132.172 623.879,138.783 624.543,78.2949 625.207,203.466 625.871,123.184 626.535,190.811 627.199,174.321 627.863,130.884 628.527,157.338 629.191,101.415 629.855,123.118 630.519,101.57 631.183,170.439 631.847,169.225 632.511,138.243 633.175,267.446 633.839,120.408 634.503,127.052 635.166,147.058 635.83,123.844 636.494,106.701 637.158,141.509 637.822,158.235 638.486,99.5147 639.15,154.86 639.814,160.458 640.478,100.36 641.142,190.768 641.806,132.742 642.47,106.917 643.134,110.536 643.798,133.025 644.462,159.697 645.126,100.513 645.789,225.425 646.453,274.421 647.117,152.136 647.781,97.9029 648.445,211.095 649.109,134.52 649.773,114.049 650.437,162.584 651.101,127.539 651.765,148.023 652.429,93.374 653.093,141.606 653.757,151.052 654.421,117.66 655.085,140.548 655.749,124.962 656.412,139.582 657.076,132.31 657.74,118.547 658.404,144.105 659.068,143.452 659.732,116.42 660.396,160.287 661.06,128.162 661.724,101.094 662.388,93.1219 663.052,201.341 663.716,115.402 664.38,117.111 665.044,141.411 665.708,139.632 666.372,125.61 667.036,157.263 667.699,107.266 668.363,132.241 669.027,134.694 669.691,47.2441 670.355,167.323 671.019,197.304 671.683,141.975 672.347,143.691 673.011,126.108 673.675,138.63 674.339,87.1462 675.003,116.671 675.667,147.445 676.331,177.53 676.995,211.891 677.659,394.792 678.322,191.125 678.986,199.868 679.65,107.182 680.314,161.611 680.978,145.604 681.642,186.164 682.306,169.502 682.97,156.109 683.634,168.747 684.298,143.13 684.962,90.9824 685.626,180.024 686.29,156.489 686.954,143.737 687.618,151.169 688.282,142.333 688.945,131.053 689.609,180.469 690.273,183.305 690.937,193.757 691.601,169.271 692.265,129.99 692.929,156.362 693.593,131.455 694.257,133.151 694.921,137.005 695.585,148.279 696.249,139.802 696.913,122.918 697.577,133.188 698.241,130.243 698.905,153.913 699.569,114.473 700.232,142.558 700.896,150.959 701.56,138.13 702.224,102.219 702.888,155.428 703.552,125.249 704.216,100.19 704.88,177.303 705.544,184.379 706.208,143.473 706.872,159.01 707.536,70.7307 708.2,211.119 708.864,184.54 709.528,143.503 710.192,128.709 710.855,66.9961 711.519,141.15 712.183,147.16 712.847,134.64 713.511,140.572 714.175,1067.21 714.839,427.37 715.503,303.651 716.167,331.733 716.831,249.043 717.495,190.817 718.159,198.874 718.823,232.982 719.487,255.48 720.151,191.682 720.815,244.809 721.478,227.92 722.142,182.555 722.806,180.298 723.47,198.795 724.134,163.949 724.798,223.284 725.462,231.758 726.126,175.528 726.79,197.912 727.454,183.408 728.118,196.138 728.782,176.569 729.446,168.413 730.11,112.361 730.774,191.281 731.438,181.279 732.101,179.269 732.765,165.828 733.429,155.031 734.093,140.76 734.757,210.136 735.421,137.009 736.085,168.322 736.749,168.718 737.413,117.511 738.077,159.69 738.741,167.391 739.405,197.996 740.069,150.65 740.733,156.77 741.397,159.616 742.061,193.335 742.725,169.846 743.388,179.27 744.052,166.221 744.716,131.972 745.38,201.037 746.044,177.424 746.708,155.414 747.372,140.866 748.036,89.4305 748.7,202.113 749.364,153.058 750.028,144.965 750.692,140.82 751.356,172.594 752.02,94.446 752.684,167.626 753.348,119.644 754.011,137.689 754.675,131.411 755.339,171.144 756.003,136.002 756.667,149.759 757.331,187.099 757.995,120.907 758.659,174.618 759.323,150.745 759.987,123.906 760.651,161.884 761.315,122.242 761.979,164.049 762.643,146.094 763.307,179.148 763.971,158.556 764.634,140.406 765.298,145.057 765.962,134.996 766.626,149.377 767.29,100.845 767.954,133.621 768.618,163.548 769.282,107.71 769.946,135.651 770.61,114.58 771.274,138.87 771.938,136.694 772.602,161.805 773.266,194.938 773.93,132.022 774.594,118.734 775.258,150.791 775.921,118.719 776.585,129.719 777.249,126.975 777.913,96.5865 778.577,171.13 779.241,117.284 779.905,148.453 780.569,114.316 781.233,178.289 781.897,134.62 782.561,156.256 783.225,149.598 783.889,137.772 784.553,141.983 785.217,140.654 785.881,125.304 786.544,132.922 787.208,108.315 787.872,140.416 788.536,120.821 789.2,118.047 789.864,158.182 790.528,112.848 791.192,178.887 791.856,125.887 792.52,151.909 793.184,111.261 793.848,211.067 794.512,139.844 795.176,136.75 795.84,121.221 796.504,92.117 797.167,117.819 797.831,95.6298 798.495,155.448 799.159,128.021 799.823,234.959 800.487,165.352 801.151,184.131 801.815,141.059 802.479,143.644 803.143,114.966 803.807,126.453 804.471,144.23 805.135,127.909 805.799,126.488 806.463,173.2 807.127,138.367 807.791,138.263 808.454,123.678 809.118,108.203 809.782,112.633 810.446,182.144 811.11,193.224 811.774,143.862 812.438,129.572 813.102,140.792 813.766,122.357 814.43,243.987 815.094,135.927 815.758,133.511 816.422,124.064 817.086,131.298 817.75,127.781 818.414,134.585 819.077,121.46 819.741,116.713 820.405,131.911 821.069,160.179 821.733,154.946 822.397,124.623 823.061,150.572 823.725,105.97 824.389,132.103 825.053,130.574 825.717,111.887 826.381,201.725 827.045,100.456 827.709,100.707 828.373,116.534 829.037,105.831 829.7,216.521 830.364,121.418 831.028,127.98 831.692,131.676 832.356,133.054 833.02,135.444 833.684,124.296 834.348,179.859 835.012,186.882 835.676,149.662 836.34,111.44 837.004,170.703 837.668,172.178 838.332,132.365 838.996,146.232 839.66,118.169 840.324,156.17 840.987,140.808 841.651,132.464 842.315,143.54 842.979,99.4452 843.643,162.874 844.307,172.617 844.971,126.694 845.635,125.636 846.299,147.674 846.963,104.688 847.627,86.5124 848.291,157.443 848.955,156.469 849.619,116.159 850.283,81.3168 850.947,126.465 851.61,83.8058 852.274,157.018 852.938,133.696 853.602,110.295 854.266,133.635 854.93,101.391 855.594,192.944 856.258,114.306 856.922,118.6 857.586,131.333 858.25,108.92 858.914,121.468 859.578,147.996 860.242,103.859 860.906,151.108 861.57,196.377 862.233,131.803 862.897,136.247 863.561,119.594 864.225,87.2981 864.889,154.24 865.553,105.857 866.217,116.385 866.881,165.989 867.545,104.398 868.209,126.762 868.873,123.834 869.537,114.103 870.201,150.254 870.865,136.779 871.529,152.046 872.193,145.994 872.856,127.388 873.52,145.029 874.184,112.765 874.848,142.284 875.512,108.572 876.176,123.135 876.84,95.842 877.504,92.7286 878.168,75.3639 878.832,136.713 879.496,168.916 880.16,82.3673 880.824,216.714 881.488,134.719 882.152,96.636 882.816,127.068 883.48,134.365 884.143,104.836 884.807,112.818 885.471,107.826 886.135,162.036 886.799,166.818 887.463,138.921 888.127,156.528 888.791,134.265 889.455,154.911 890.119,119.26 890.783,64.3365 891.447,94.0744 892.111,104.467 892.775,113.456 893.439,171.268 894.103,104.288 894.766,163.899 895.43,127.888 896.094,138.662 896.758,122.573 897.422,139.561 898.086,149.81 898.75,143.608 899.414,110.418 900.078,109.04 900.742,103.689 901.406,150.55 902.07,190.768 902.734,172.088 903.398,111.393 904.062,136.927 904.726,128.02 905.389,129.222 906.053,116.554 906.717,130.246 907.381,98.3419 908.045,97.3777 908.709,122.474 909.373,82.7066 910.037,152.665 910.701,131.749 911.365,138.604 912.029,113.938 912.693,184.241 913.357,120.009 914.021,165.008 914.685,112.344 915.349,134.938 916.013,122.134 916.676,116.352 917.34,126.388 918.004,116.544 918.668,182 919.332,123.92 919.996,159.452 920.66,170.938 921.324,127.622 921.988,131.67 922.652,166.883 923.316,120.518 923.98,125.596 924.644,132.168 925.308,117.881 925.972,113.076 926.636,150.795 927.299,114.226 927.963,164.549 928.627,130.754 929.291,122.663 929.955,148.055 930.619,123.613 931.283,130.762 931.947,134.176 932.611,125.592 933.275,156.115 933.939,99.8336 934.603,179.024 935.267,133.168 935.931,113.266 936.595,156.397 937.259,175.693 937.922,122.908 938.586,121.942 939.25,124.144 939.914,132.617 940.578,135.633 941.242,141.043 941.906,125.645 942.57,151.309 943.234,142.665 943.898,122.519 944.562,82.8199 945.226,123.102 945.89,108.733 946.554,145.757 947.218,128.04 947.882,128.976 948.546,132.373 949.209,125.466 949.873,59.2255 950.537,136.649 951.201,149.955 951.865,145.33 952.529,127.765 953.193,109.281 953.857,123.523 954.521,130.618 955.185,113.514 955.849,157.307 956.513,126.072 957.177,115.12 957.841,156.927 958.505,145.396 959.169,174.271 959.832,122.355 960.496,118.873 961.16,189.343 961.824,120.905 962.488,149.911 963.152,235.228 963.816,105.464 964.48,175.47 965.144,80.344 965.808,163.283 966.472,130.896 967.136,118.726 967.8,91.7391 968.464,172.375 969.128,149.023 969.792,150.367 970.455,140.586 971.119,142.459 971.783,161.608 972.447,70.6745 973.111,111.581 973.775,186.365 974.439,165.358 975.103,170.416 975.767,127.389 976.431,140.033 977.095,136.325 977.759,111.54 978.423,83.8787 979.087,142.619 979.751,140.155 980.415,147.12 981.079,113.501 981.742,123.876 982.406,102.288 983.07,132.124 983.734,120.596 984.398,145.948 985.062,129.253 985.726,141.734 986.39,95.4215 987.054,142.671 987.718,152.486 988.382,125.788 989.046,114.114 989.71,170.742 990.374,122.664 991.038,97.2276 991.702,122.896 992.365,102.821 993.029,162.475 993.693,145.324 994.357,134.685 995.021,117.556 995.685,129.602 996.349,111.581 997.013,247.715 997.677,158.913 998.341,136.201 999.005,122.84 999.669,86.0852 1000.33,147.684 1001,176.627 1001.66,144.733 1002.32,133.648 1002.99,177.582 1003.65,114.738 1004.32,120.93 1004.98,137.131 1005.64,99.1757 1006.31,150.046 1006.97,157.284 1007.64,126.549 1008.3,128.806 1008.96,118.583 1009.63,128.096 1010.29,143.504 1010.96,120.717 1011.62,149.764 1012.28,124.431 1012.95,127.036 1013.61,97.1899 1014.28,100.929 1014.94,110.989 1015.6,133.21 1016.27,165.749 1016.93,124.084 1017.6,127.092 1018.26,133.406 1018.92,107.379 1019.59,119.3 1020.25,172.068 1020.91,112.558 1021.58,132.667 1022.24,113.046 1022.91,125.298 1023.57,116.832 1024.23,100.949 1024.9,144.765 1025.56,151.006 1026.23,120.815 1026.89,109.276 1027.55,126.856 1028.22,118.007 1028.88,81.6904 1029.55,100.495 1030.21,129.82 1030.87,115.974 1031.54,140.003 1032.2,79.9884 1032.87,121.823 1033.53,90.2764 1034.19,78.6705 1034.86,165.878 1035.52,134.577 1036.19,166.914 1036.85,111.538 1037.51,99.1186 1038.18,140.177 1038.84,121.149 1039.51,128.94 1040.17,86.8505 1040.83,137.4 1041.5,116.676 1042.16,119.289 1042.82,189.293 1043.49,104.881 1044.15,128.511 1044.82,102.074 1045.48,128.347 1046.14,131.474 1046.81,104.59 1047.47,178.991 1048.14,179.347 1048.8,127.437 1049.46,118.201 1050.13,86.6975 1050.79,162.015 1051.46,125.484 1052.12,120.08 1052.78,162.36 1053.45,103.245 1054.11,85.65 1054.78,159.315 1055.44,111.036 1056.1,130.499 1056.77,124.83 1057.43,117.555 1058.1,134.713 1058.76,125.475 1059.42,125.408 1060.09,133.091 1060.75,143.574 1061.42,171.798 1062.08,108.485 1062.74,141.677 1063.41,123.056 1064.07,132.443 1064.73,133.541 1065.4,131.575 1066.06,123.889 1066.73,130.24 1067.39,154.475 1068.05,114.71 1068.72,93.6481 1069.38,97.8711 1070.05,132.171 1070.71,139.913 1071.37,133.813 1072.04,131.278 1072.7,116.449 1073.37,110.801 1074.03,133.168 1074.69,179.205 1075.36,126.316 1076.02,127.525 1076.69,175.268 1077.35,90.2673 1078.01,164.081 1078.68,128.541 1079.34,119.716 1080.01,118.561 1080.67,163.64 1081.33,128.869 1082,147.517 1082.66,149.084 1083.33,123.561 1083.99,93.3722 1084.65,175.717 1085.32,149.999 1085.98,136.642 1086.64,120.412 1087.31,137.546 1087.97,134.132 1088.64,122.398 1089.3,137.283 1089.96,126.171 1090.63,83.3109 1091.29,175.711 1091.96,152.603 1092.62,119.587 1093.28,148.892 1093.95,126.77 1094.61,147.606 1095.28,119.563 1095.94,136.21 1096.6,154.191 1097.27,129.54 1097.93,111.503 1098.6,82.2143 1099.26,83.4957 1099.92,103.465 1100.59,152.74 1101.25,128.869 1101.92,128.678 1102.58,111.253 1103.24,154.307 1103.91,130.447 1104.57,116.821 1105.24,140.776 1105.9,133.297 1106.56,151.627 1107.23,117.244 1107.89,95.2077 1108.55,107.44 1109.22,208.776 1109.88,101.315 1110.55,128.119 1111.21,114.825 1111.87,154.218 1112.54,227.779 1113.2,147.223 1113.87,122.759 1114.53,133.408 1115.19,120.247 1115.86,104.01 1116.52,96.7235 1117.19,120.237 1117.85,113.465 1118.51,126.352 1119.18,133.113 1119.84,84.1452 1120.51,122.02 1121.17,129.337 1121.83,168.807 1122.5,126.177 1123.16,133.014 1123.83,162.863 1124.49,101.118 1125.15,148.377 1125.82,151.234 1126.48,119.909 1127.15,130.795 1127.81,117.693 1128.47,171.142 1129.14,173.641 1129.8,126.81 1130.46,148.916 1131.13,123.288 1131.79,130.772 1132.46,115.681 1133.12,127.261 1133.78,141.514 1134.45,125.247 1135.11,137.491 1135.78,152.943 1136.44,161.444 1137.1,117.785 1137.77,139.968 1138.43,124.288 1139.1,137.475 1139.76,97.5969 1140.42,118.543 1141.09,130.153 1141.75,114.405 1142.42,125.806 1143.08,227.883 1143.74,130.147 1144.41,196.028 1145.07,153.96 1145.74,139.162 1146.4,116.611 1147.06,148.75 1147.73,166.047 1148.39,138.683 1149.05,151.04 1149.72,138.219 1150.38,162.864 1151.05,130.664 1151.71,92.9412 1152.37,230.569 1153.04,124.323 1153.7,153.347 1154.37,142.382 1155.03,198.027 1155.69,148.792 1156.36,121.002 1157.02,120.899 1157.69,117.081 1158.35,127.997 1159.01,164.785 1159.68,162.757 1160.34,131.578 1161.01,100.664 1161.67,140.657 1162.33,157.629 1163,152.488 1163.66,138.186 1164.33,137.813 1164.99,148.998 1165.65,128.023 1166.32,138.207 1166.98,175.398 1167.65,157.896 1168.31,130.215 1168.97,90.7827 1169.64,126.461 1170.3,127.658 1170.96,184.842 1171.63,140.192 1172.29,159.754 1172.96,122.84 1173.62,135.304 1174.28,140.104 1174.95,137.096 1175.61,129.93 1176.28,117.761 1176.94,155.821 1177.6,128.401 1178.27,157.265 1178.93,157.52 1179.6,135.113 1180.26,144.119 1180.92,141.755 1181.59,143.791 1182.25,133.997 1182.92,161.152 1183.58,147.743 1184.24,169.582 1184.91,131.328 1185.57,141.411 1186.24,118.271 1186.9,159.855 1187.56,102.911 1188.23,123.417 1188.89,137.885 1189.56,148.634 1190.22,64.7781 1190.88,171.329 1191.55,132.504 1192.21,100.626 1192.87,165.349 1193.54,145.841 1194.2,146.494 1194.87,129.211 1195.53,143.427 1196.19,149.479 1196.86,110.801 1197.52,125.725 1198.19,100.656 1198.85,125.302 1199.51,131.592 1200.18,128.843 1200.84,127.465 1201.51,128.047 1202.17,160.646 1202.83,129.441 1203.5,109.671 1204.16,159.265 1204.83,151.764 1205.49,115.517 1206.15,144.755 1206.82,138.062 1207.48,137.264 1208.15,136.441 1208.81,148.482 1209.47,130.041 1210.14,88.9518 1210.8,139.975 1211.47,232.164 1212.13,114.534 1212.79,152.363 1213.46,105.247 1214.12,190.782 1214.78,114.867 1215.45,131.605 1216.11,128.547 1216.78,147.055 1217.44,135.504 1218.1,122.222 1218.77,102.888 1219.43,118.149 1220.1,149.115 1220.76,113.322 1221.42,141.061 1222.09,128.343 1222.75,164.893 1223.42,118.722 1224.08,154.959 1224.74,85.8474 1225.41,133.786 1226.07,103.673 1226.74,170.203 1227.4,115.964 1228.06,94.5738 1228.73,113.256 1229.39,159.629 1230.06,183.508 1230.72,148.215 1231.38,148.114 1232.05,102.311 1232.71,110.288 1233.38,162.856 1234.04,132.367 1234.7,154.512 1235.37,120.401 1236.03,129.931 1236.69,146.534 1237.36,116.088 1238.02,116.859 1238.69,140.634 1239.35,92.0977 1240.01,109.303 1240.68,134.088 1241.34,105.656 1242.01,135.172 1242.67,129.81 1243.33,131.662 1244,152.69 1244.66,118.804 1245.33,119.241 1245.99,114.277 1246.65,162.508 1247.32,129.578 1247.98,102.99 1248.65,99.9686 1249.31,123.256 1249.97,120.301 1250.64,92.1081 1251.3,138.596 1251.97,112.874 1252.63,154.896 1253.29,180.943 1253.96,144.072 1254.62,115.184 1255.29,124.388 1255.95,156.042 1256.61,119.633 1257.28,115.686 1257.94,149.631 1258.6,143.326 1259.27,126.486 1259.93,113.997 1260.6,125.466 1261.26,130.551 1261.92,188.157 1262.59,114.372 1263.25,108.597 1263.92,127.529 1264.58,138.688 1265.24,96.4674 1265.91,114.986 1266.57,120.561 1267.24,125.836 1267.9,119.506 1268.56,108.867 1269.23,143.522 1269.89,118.17 1270.56,115.934 1271.22,144.892 1271.88,136.086 1272.55,120.528 1273.21,156.477 1273.88,108.75 1274.54,132.059 1275.2,107.864 1275.87,148.93 1276.53,136.228 1277.2,124.091 1277.86,136.944 1278.52,126.185 1279.19,130.474 1279.85,121.246 1280.51,118.858 1281.18,107.21 1281.84,306.267 1282.51,150.177 1283.17,121.729 1283.83,177.759 1284.5,150.939 1285.16,91.156 1285.83,154.641 1286.49,106.555 1287.15,137.931 1287.82,198.605 1288.48,154.87 1289.15,129.954 1289.81,122.52 1290.47,86.3519 1291.14,167.796 1291.8,109.3 1292.47,119.79 1293.13,92.2788 1293.79,142.602 1294.46,139.112 1295.12,113.005 1295.79,121.109 1296.45,140.896 1297.11,139.637 1297.78,146.451 1298.44,120.287 1299.11,125.035 1299.77,115.93 1300.43,142.754 1301.1,141.111 1301.76,135.656 1302.42,150.936 1303.09,117.076 1303.75,125.504 1304.42,96.7587 1305.08,120.807 1305.74,145.024 1306.41,174.653 1307.07,154.356 1307.74,139.136 1308.4,97.2482 1309.06,100.882 1309.73,120.967 1310.39,197.741 1311.06,122.18 1311.72,105.281 1312.38,122.412 1313.05,131.835 1313.71,145.007 1314.38,99.9396 1315.04,125.581 1315.7,129.149 1316.37,127.058 1317.03,122.305 1317.7,140.604 1318.36,124.282 1319.02,161.042 1319.69,109.312 1320.35,113.068 1321.02,94.2708 1321.68,79.7131 1322.34,117.667 1323.01,147.289 1323.67,152.005 1324.33,107.848 1325,107.718 1325.66,70.9115 1326.33,138.415 1326.99,122.145 1327.65,133.923 1328.32,100.352 1328.98,93.3457 1329.65,144.095 1330.31,115.593 1330.97,152.261 1331.64,173.601 1332.3,80.8111 1332.97,223.129 1333.63,145.573 1334.29,106.788 1334.96,120.268 1335.62,145.4 1336.29,148.262 1336.95,112.761 1337.61,118.177 1338.28,129.856 1338.94,119.088 1339.61,93.0316 1340.27,130.926 1340.93,126.244 1341.6,158.056 1342.26,110.103 1342.93,117.911 1343.59,141.093 1344.25,157.941 1344.92,104.394 1345.58,150.924 1346.24,140.289 1346.91,120.978 1347.57,114.096 1348.24,123.161 1348.9,158.551 1349.56,117.411 1350.23,123.976 1350.89,122.495 1351.56,126.731 1352.22,132.421 1352.88,80.7631 1353.55,128.276 1354.21,111.971 1354.88,100.863 1355.54,134.478 1356.2,137.127 1356.87,126.76 1357.53,136.958 1358.2,108.713 1358.86,116.917 1359.52,117.555 1360.19,118.12 1360.85,138.845 1361.52,127.622 1362.18,113.183 1362.84,128.201 1363.51,126.418 1364.17,115.936 1364.84,150.718 1365.5,117.767 1366.16,121.235 1366.83,190.605 1367.49,88.8115 1368.15,183.676 1368.82,115.702 1369.48,113.181 1370.15,135.784 1370.81,131.666 1371.47,181.408 1372.14,136.22 1372.8,138.119 1373.47,134.423 1374.13,114.873 1374.79,126.292 1375.46,111.97 1376.12,131.881 1376.79,145.201 1377.45,148.201 1378.11,91.714 1378.78,118.86 1379.44,117.454 1380.11,141.082 1380.77,113.023 1381.43,127.255 1382.1,139.48 1382.76,100.283 1383.43,118.473 1384.09,114.887 1384.75,135.635 1385.42,118.617 1386.08,119.66 1386.75,124.113 1387.41,70.0702 1388.07,138.114 1388.74,173.511 1389.4,130.047 1390.06,118.68 1390.73,122.422 1391.39,100.633 1392.06,134.036 1392.72,124.092 1393.38,111.23 1394.05,148.026 1394.71,96.8212 1395.38,89.9563 1396.04,146.422 1396.7,120.306 1397.37,108.913 1398.03,141.543 1398.7,125.277 1399.36,129.652 1400.02,107.378 1400.69,96.8673 1401.35,107.017 1402.02,110.246 1402.68,130.103 1403.34,194.801 1404.01,159.2 1404.67,117.236 1405.34,123.226 1406,139.393 1406.66,136.868 1407.33,140.786 1407.99,103.016 1408.66,161.128 1409.32,93.5093 1409.98,136.411 1410.65,112.637 1411.31,134.107 1411.97,126.014 1412.64,139.532 1413.3,149.154 1413.97,128.813 1414.63,117.894 1415.29,130.794 1415.96,111.832 1416.62,137.998 1417.29,124.093 1417.95,164.383 1418.61,143.13 1419.28,127.293 1419.94,123.853 1420.61,101.971 1421.27,129.399 1421.93,116.229 1422.6,148.346 1423.26,145.276 1423.93,124.213 1424.59,122.298 1425.25,112.88 1425.92,120.388 1426.58,126.035 1427.25,137.697 1427.91,111.738 1428.57,112.9 1429.24,119.264 1429.9,161.806 1430.56,124.765 1431.23,128.112 1431.89,111.065 1432.56,113.675 1433.22,117.973 1433.88,118.805 1434.55,103.221 1435.21,139.042 1435.88,130.05 1436.54,143.234 1437.2,123.606 1437.87,113.883 1438.53,118.3 1439.2,128.222 1439.86,135.001 1440.52,129.273 1441.19,100.808 1441.85,116.888 1442.52,93.3604 1443.18,170.183 1443.84,121.776 1444.51,134.407 1445.17,110.7 1445.84,120.574 1446.5,145.448 1447.16,129.101 1447.83,123.269 1448.49,112.747 1449.16,100.169 1449.82,119.944 1450.48,136.033 1451.15,112.813 1451.81,135.065 1452.47,122.899 1453.14,136.32 1453.8,113.307 1454.47,169.301 1455.13,131.453 1455.79,147.794 1456.46,137.624 1457.12,156.001 1457.79,108.447 1458.45,125.238 1459.11,128.61 1459.78,131.099 1460.44,135.788 1461.11,108.801 1461.77,130.496 1462.43,144.694 1463.1,140.525 1463.76,133.651 1464.43,131.013 1465.09,103.617 1465.75,139.519 1466.42,149.236 1467.08,125.922 1467.75,131.58 1468.41,112.87 1469.07,125.242 1469.74,122.853 1470.4,120.573 1471.07,134.272 1471.73,101.119 1472.39,140.988 1473.06,125.606 1473.72,144.283 1474.38,107.481 1475.05,107.229 1475.71,161.897 1476.38,147.914 1477.04,111.776 1477.7,133.7 1478.37,158.838 1479.03,123.739 1479.7,104.472 1480.36,129.061 1481.02,155.971 1481.69,131.229 1482.35,132.27 1483.02,103.581 1483.68,131.045 1484.34,136.999 1485.01,95.2807 1485.67,117.682 1486.34,115.235 1487,138.112 1487.66,111.102 1488.33,96.4535 1488.99,101.573 1489.66,110.953 1490.32,123.761 1490.98,106.706 1491.65,165.671 1492.31,105.803 1492.98,85.3908 1493.64,153.151 1494.3,140.83 1494.97,108.976 1495.63,114.795 1496.29,154.409 1496.96,151.137 1497.62,117.651 1498.29,102.252 1498.95,142.143 1499.61,152.781 1500.28,111.598 1500.94,114.054 1501.61,114.131 1502.27,96.7087 1502.93,114.213 1503.6,126.212 1504.26,117.602 1504.93,86.7222 1505.59,119.396 1506.25,140.281 1506.92,122.681 1507.58,91.0887 1508.25,130.346 1508.91,136.309 1509.57,108.484 1510.24,133.957 1510.9,97.3378 1511.57,131.255 1512.23,123.838 1512.89,105.233 1513.56,135.348 1514.22,138.446 1514.89,104.501 1515.55,126.636 1516.21,120.595 1516.88,133.283 1517.54,140.175 1518.2,88.6058 1518.87,131.973 1519.53,114.364 1520.2,97.4942 1520.86,126.944 1521.52,104.828 1522.19,133.067 1522.85,108.465 1523.52,108.408 1524.18,118.355 1524.84,122.097 1525.51,132.457 1526.17,139.186 1526.84,149.039 1527.5,131.141 1528.16,132.52 1528.83,127.569 1529.49,116.97 1530.16,145.715 1530.82,113.032 1531.48,124.784 1532.15,112.743 1532.81,94.594 1533.48,121.515 1534.14,163.619 1534.8,150.278 1535.47,161.508 1536.13,100.128 1536.8,88.6935 1537.46,185.943 1538.12,106.907 1538.79,120.331 1539.45,115.358 1540.11,122.575 1540.78,122.846 1541.44,121.886 1542.11,114.937 1542.77,119.326 1543.43,127.061 1544.1,132.781 1544.76,134.832 1545.43,111.801 1546.09,177.933 1546.75,183.731 1547.42,143.955 1548.08,120.467 1548.75,104.558 1549.41,73.8279 1550.07,182.866 1550.74,116.603 1551.4,112.564 1552.07,134.672 1552.73,113.226 1553.39,119.567 1554.06,155.152 1554.72,160.735 1555.39,165.917 1556.05,154.781 1556.71,130.35 1557.38,123.987 1558.04,92.5769 1558.71,122.551 1559.37,111.733 1560.03,99.2065 1560.7,173.599 1561.36,131.57 1562.02,161.047 1562.69,129.964 1563.35,109.438 1564.02,129.79 1564.68,127.366 1565.34,85.8052 1566.01,90.2914 1566.67,144.094 1567.34,99.1228 1568,124.287 1568.66,132.265 1569.33,145.896 1569.99,135.796 1570.66,129.216 1571.32,114.766 1571.98,133.554 1572.65,120.28 1573.31,132.967 1573.98,131.686 1574.64,108.845 1575.3,132.302 1575.97,95.6917 1576.63,117.743 1577.3,134.11 1577.96,117.905 1578.62,139.367 1579.29,105.419 1579.95,139.174 1580.62,115.393 1581.28,128.777 1581.94,104.636 1582.61,134.989 1583.27,115.55 1583.93,107.779 1584.6,108.729 1585.26,81.2872 1585.93,147.214 1586.59,140.955 1587.25,126.08 1587.92,111.264 1588.58,147.138 1589.25,150.518 1589.91,115.829 1590.57,128.117 1591.24,128.992 1591.9,108.88 1592.57,135.476 1593.23,111.766 1593.89,112.738 1594.56,110.115 1595.22,120.323 1595.89,85.6285 1596.55,122.393 1597.21,130.63 1597.88,117.926 1598.54,145.139 1599.21,115.693 1599.87,114.362 1600.53,156.139 1601.2,145.208 1601.86,139.403 1602.53,115.057 1603.19,96.6947 1603.85,105.107 1604.52,120.399 1605.18,124.688 1605.84,103.281 1606.51,101.74 1607.17,111.99 1607.84,138.199 1608.5,195.253 1609.16,114.317 1609.83,113.868 1610.49,120.76 1611.16,119.419 1611.82,113.269 1612.48,114.856 1613.15,155.805 1613.81,117.927 1614.48,119.164 1615.14,126.14 1615.8,116.884 1616.47,130.202 1617.13,125.605 1617.8,115.993 1618.46,142.715 1619.12,123.311 1619.79,113.759 1620.45,133.009 1621.12,137.055 1621.78,138.326 1622.44,128.249 1623.11,105.634 1623.77,140.81 1624.44,126.404 1625.1,162.009 1625.76,127.678 1626.43,130.192 1627.09,132.472 1627.75,115.676 1628.42,131.388 1629.08,124.228 1629.75,139.853 1630.41,106.139 1631.07,109.198 1631.74,89.2958 1632.4,144.236 1633.07,137.157 1633.73,126.137 1634.39,136.734 1635.06,124.988 1635.72,107.767 1636.39,107.883 1637.05,125.35 1637.71,132.822 1638.38,125.153 1639.04,123.017 1639.71,85.6618 1640.37,139.15 1641.03,72.4579 1641.7,194.859 1642.36,97.5835 1643.03,128.24 1643.69,106.223 1644.35,167.525 1645.02,144.097 1645.68,108.636 1646.35,99.0981 1647.01,113.602 1647.67,104.815 1648.34,119.415 1649,178.844 1649.66,137.495 1650.33,119.775 1650.99,119.587 1651.66,134.583 1652.32,137.558 1652.98,92.1727 1653.65,173.86 1654.31,124.672 1654.98,121.597 1655.64,93.5535 1656.3,139.571 1656.97,117.104 1657.63,148.144 1658.3,121.994 1658.96,120.953 1659.62,109.385 1660.29,142.765 1660.95,108.643 1661.62,136.964 1662.28,164.957 1662.94,156.167 1663.61,87.8615 1664.27,149.027 1664.94,115.863 1665.6,103.359 1666.26,159.325 1666.93,117.627 1667.59,129.606 1668.26,107.344 1668.92,107.777 1669.58,116.318 1670.25,146.148 1670.91,143.654 1671.57,66.8683 1672.24,148.769 1672.9,120.632 1673.57,115.868 1674.23,112.979 1674.89,98.6701 1675.56,118.099 1676.22,113.225 1676.89,135.866 1677.55,110.743 1678.21,191.509 1678.88,125.845 1679.54,131.509 1680.21,98.3502 1680.87,140.677 1681.53,101.237 1682.2,124.699 1682.86,135.14 1683.53,123.942 1684.19,87.4415 1684.85,73.508 1685.52,144.316 1686.18,137.103 1686.85,156.703 1687.51,146.91 1688.17,74.788 1688.84,98.7264 1689.5,132.715 1690.17,130.306 1690.83,138.43 1691.49,173.225 1692.16,126.405 1692.82,136.787 1693.48,132.06 1694.15,145.174 1694.81,100.078 1695.48,127.028 1696.14,133.447 1696.8,114.428 1697.47,123.275 1698.13,114.956 1698.8,145.421 1699.46,111.213 1700.12,112.389 1700.79,132.25 1701.45,138.051 1702.12,163.592 1702.78,156.991 1703.44,122.638 1704.11,151.571 1704.77,124.717 1705.44,145.236 1706.1,134.314 1706.76,94.7891 1707.43,142.183 1708.09,127.366 1708.76,106.164 1709.42,153.949 1710.08,156.024 1710.75,106.155 1711.41,111.606 1712.07,110.158 1712.74,119.399 1713.4,117.769 1714.07,107.545 1714.73,135.466 1715.39,135.545 1716.06,132.19 1716.72,121.065 1717.39,137.704 1718.05,117.681 1718.71,145.649 1719.38,116.276 1720.04,128.442 1720.71,112.097 1721.37,119.137 1722.03,129.626 1722.7,113.397 1723.36,144.364 1724.03,132.146 1724.69,129.813 1725.35,116.523 1726.02,93.0665 1726.68,151.092 1727.35,127.145 1728.01,122.454 1728.67,124.646 1729.34,109.448 1730,107.734 1730.67,85.1076 1731.33,170.733 1731.99,105.75 1732.66,159.961 1733.32,135.591 1733.98,148.279 1734.65,154.748 1735.31,112.457 1735.98,126.031 1736.64,114.2 1737.3,128.522 1737.97,122.098 1738.63,141.325 1739.3,128.446 1739.96,110.074 1740.62,155.442 1741.29,133.952 1741.95,119.115 1742.62,140.386 1743.28,132.409 1743.94,116.856 1744.61,105.305 1745.27,112.9 1745.94,93.1755 1746.6,197.381 1747.26,98.6822 1747.93,176.14 1748.59,158.79 1749.26,212.124 1749.92,137.975 1750.58,133.966 1751.25,119.065 1751.91,125.527 1752.58,163.683 1753.24,173.676 1753.9,120.571 1754.57,117.995 1755.23,182.265 1755.89,120.15 1756.56,124.315 1757.22,111.088 1757.89,129.017 1758.55,141.049 1759.21,105.494 1759.88,120.979 1760.54,119.791 1761.21,124.778 1761.87,128.271 1762.53,121.381 1763.2,114.727 1763.86,109.243 1764.53,156.402 1765.19,121.675 1765.85,139.133 1766.52,119.467 1767.18,129.984 1767.85,129.341 1768.51,126.868 1769.17,112.93 1769.84,139.707 1770.5,128.482 1771.17,127.453 1771.83,107.894 1772.49,136.545 1773.16,113.335 1773.82,111.423 1774.49,129.484 1775.15,122.355 1775.81,139.066 1776.48,134.641 1777.14,116.68 1777.8,139.509 1778.47,113.051 1779.13,169.515 1779.8,106.712 1780.46,139.336 1781.12,107.378 1781.79,135.419 1782.45,144.937 1783.12,110.241 1783.78,93.7671 1784.44,103.35 1785.11,150.537 1785.77,109.398 1786.44,97.9435 1787.1,176.482 1787.76,160.594 1788.43,129.563 1789.09,134.679 1789.76,105.141 1790.42,99.2151 1791.08,96.2243 1791.75,99.7705 1792.41,109.123 1793.08,87.39 1793.74,143.51 1794.4,105.868 1795.07,127.56 1795.73,113.001 1796.4,113.921 1797.06,205.243 1797.72,130.623 1798.39,95.3451 1799.05,139.701 1799.71,123.628 1800.38,115.071 1801.04,123.65 1801.71,128.529 1802.37,128.03 1803.03,125.403 1803.7,126.207 1804.36,119.774 1805.03,126.698 1805.69,103.407 1806.35,137.257 1807.02,102.36 1807.68,58.8171 1808.35,150.092 1809.01,101.591 1809.67,196.455 1810.34,152.414 1811,180.344 1811.67,161.288 1812.33,139.531 1812.99,136.054 1813.66,134.455 1814.32,135.268 1814.99,82.3302 1815.65,145.247 1816.31,121.496 1816.98,105.94 1817.64,111.402 1818.31,148.099 1818.97,139.185 1819.63,116.155 1820.3,131.924 1820.96,113.83 1821.62,139.828 1822.29,124.913 1822.95,127.714 1823.62,104.546 1824.28,184.116 1824.94,137.552 1825.61,147.361 1826.27,122.17 1826.94,135.753 1827.6,127.441 1828.26,126.563 1828.93,115.615 1829.59,126.929 1830.26,111.042 1830.92,130.487 1831.58,122.166 1832.25,113.072 1832.91,204.634 1833.58,151.469 1834.24,125.182 1834.9,119.28 1835.57,73.9101 1836.23,117.787 1836.9,146.888 1837.56,99.6782 1838.22,124.484 1838.89,103.183 1839.55,178.42 1840.22,128.005 1840.88,110.052 1841.54,161.486 1842.21,130.713 1842.87,146.086 1843.53,116.365 1844.2,129.736 1844.86,141.01 1845.53,154.098 1846.19,111.878 1846.85,131.103 1847.52,129.092 1848.18,130.459 1848.85,124.345 1849.51,138.593 1850.17,135.322 1850.84,114.569 1851.5,136.123 1852.17,89.3421 1852.83,121.73 1853.49,137.255 1854.16,122.565 1854.82,111.16 1855.49,120.185 1856.15,139.337 1856.81,120.809 1857.48,130.97 1858.14,125.933 1858.81,133.69 1859.47,127.134 1860.13,130.473 1860.8,156.771 1861.46,139.799 1862.13,125.583 1862.79,118.448 1863.45,95.7884 1864.12,152.717 1864.78,151.308 1865.44,141.762 1866.11,135.582 1866.77,126.674 1867.44,134.799 1868.1,119.639 1868.76,112.144 1869.43,113.063 1870.09,122.588 1870.76,127.558 1871.42,118.826 1872.08,129.804 1872.75,127.68 1873.41,131.082 1874.08,134.357 1874.74,126.702 1875.4,125.88 1876.07,128.152 1876.73,123.412 1877.4,126.128 1878.06,110.283 1878.72,140.319 1879.39,147.839 1880.05,104.423 1880.72,90.4335 1881.38,166.07 1882.04,144.186 1882.71,150.359 1883.37,115.609 1884.04,103.52 1884.7,101.587 1885.36,163.394 1886.03,129.658 1886.69,121.649 1887.35,119.256 1888.02,123.211 1888.68,101.887 1889.35,138.546 1890.01,149.831 1890.67,140.472 1891.34,107.708 1892,127.134 1892.67,123.649 1893.33,120.441 1893.99,113.656 1894.66,105.012 1895.32,123.157 1895.99,108.506 1896.65,156.465 1897.31,115.176 1897.98,126.536 1898.64,144.053 1899.31,100.192 1899.97,115.676 1900.63,129.715 1901.3,152.943 1901.96,124.597 1902.63,111.214 1903.29,123.192 1903.95,113.438 1904.62,94.3349 1905.28,163.642 1905.95,98.9306 1906.61,163.909 1907.27,108.618 1907.94,137.429 1908.6,103.912 1909.26,117.086 1909.93,96.1907 1910.59,166.304 1911.26,121.552 1911.92,111.038 1912.58,128.263 1913.25,103.479 1913.91,122.316 1914.58,111.265 1915.24,130.941 1915.9,112.358 1916.57,142.751 1917.23,153.241 1917.9,112.574 1918.56,161.86 1919.22,113.64 1919.89,134.434 1920.55,111.348 1921.22,105.994 1921.88,119.259 1922.54,126.578 1923.21,123.873 1923.87,133.708 1924.54,120.637 1925.2,128.602 1925.86,101.196 1926.53,175.451 1927.19,123.74 1927.86,133.527 1928.52,121.349 1929.18,130.331 1929.85,130.388 1930.51,128.327 1931.17,121.31 1931.84,121.987 1932.5,125.941 1933.17,144.949 1933.83,164.689 1934.49,117.199 1935.16,168.252 1935.82,123.635 1936.49,133.431 1937.15,135.761 1937.81,121.129 1938.48,121.247 1939.14,129.376 1939.81,121.314 1940.47,147.691 1941.13,115.401 1941.8,117.906 1942.46,121.391 1943.13,127.636 1943.79,130.933 1944.45,116.49 1945.12,134.829 1945.78,120.077 1946.45,121.81 1947.11,109.205 1947.77,84.6108 1948.44,89.1409 1949.1,173.353 1949.77,169.161 1950.43,123.15 1951.09,127.985 1951.76,113.379 1952.42,136.335 1953.08,98.7734 1953.75,140.899 1954.41,112.357 1955.08,110.67 1955.74,112.568 1956.4,130.411 1957.07,193.884 1957.73,94.6662 1958.4,117.031 1959.06,142.884 1959.72,137.905 1960.39,135.192 1961.05,109.924 1961.72,160.58 1962.38,138.502 1963.04,124.923 1963.71,148.816 1964.37,112.921 1965.04,112.469 1965.7,136.55 1966.36,120.626 1967.03,94.188 1967.69,158.577 1968.36,114.159 1969.02,144.31 1969.68,135.837 1970.35,145.765 1971.01,128.621 1971.68,124.826 1972.34,121.56 1973,125.569 1973.67,143.071 1974.33,116.251 1974.99,121.343 1975.66,111.15 1976.32,135.638 1976.99,111.287 1977.65,141.334 1978.31,115.52 1978.98,131.624 1979.64,81.8456 1980.31,121.28 1980.97,128.73 1981.63,140.056 1982.3,98.2642 1982.96,123.521 1983.63,136.702 1984.29,133.687 1984.95,135.377 1985.62,137.648 1986.28,79.5802 1986.95,145.408 1987.61,106.992 1988.27,124.351 1988.94,151.125 1989.6,112.16 1990.27,147.159 1990.93,110.901 1991.59,121.686 1992.26,119.255 1992.92,122.98 1993.58,133.329 1994.25,121.426 1994.91,132.257 1995.58,121.071 1996.24,131.942 1996.9,131.894 1997.57,115.317 1998.23,124.709 1998.9,115.745 1999.56,124.497 2000.22,151.077 2000.89,130.281 2001.55,123.197 2002.22,112.199 2002.88,125.769 2003.54,129.039 2004.21,142.621 2004.87,128.088 2005.54,136.169 2006.2,89.2441 2006.86,118.329 2007.53,117.465 2008.19,130.993 2008.86,121.972 2009.52,111.088 2010.18,121.95 2010.85,129.049 2011.51,121.073 2012.18,139.831 2012.84,131.058 2013.5,120.212 2014.17,134.921 2014.83,111.373 2015.49,112.746 2016.16,95.4347 2016.82,118.32 2017.49,124.775 2018.15,128.908 2018.81,136.863 2019.48,129.581 2020.14,124.09 2020.81,133.951 2021.47,154.682 2022.13,126.276 2022.8,130.057 2023.46,109.817 2024.13,107.414 2024.79,132.012 2025.45,133.114 2026.12,137.165 2026.78,115.57 2027.45,158.23 2028.11,161.402 2028.77,130.431 2029.44,119.371 2030.1,116.182 2030.77,157.631 2031.43,117.804 2032.09,136.456 2032.76,114.527 2033.42,120.386 2034.09,117.773 2034.75,134.082 2035.41,113.658 2036.08,127.832 2036.74,152.999 2037.4,114.078 2038.07,142.327 2038.73,376.212 2039.4,122.317 2040.06,130.515 2040.72,145.392 2041.39,173.273 2042.05,138.642 2042.72,169.3 2043.38,160.736 2044.04,102.258 2044.71,165.223 2045.37,113.45 2046.04,168.51 2046.7,176.732 2047.36,176.967 2048.03,122.687 2048.69,182.874 2049.36,165.935 2050.02,177.195 2050.68,120.995 2051.35,172.071 2052.01,152.131 2052.68,139.289 2053.34,123.343 2054,155.691 2054.67,137.785 2055.33,103.788 2056,121.241 2056.66,119.936 2057.32,192.785 2057.99,148.278 2058.65,157.078 2059.31,144.85 2059.98,137.599 2060.64,125.408 2061.31,154.744 2061.97,139.624 2062.63,129.458 2063.3,124.075 2063.96,140.235 2064.63,186.297 2065.29,133.803 2065.95,134.247 2066.62,141.494 2067.28,146.837 2067.95,166.778 2068.61,180.107 2069.27,114.528 2069.94,157.112 2070.6,161.838 2071.27,150.704 2071.93,134.406 2072.59,113.757 2073.26,102.042 2073.92,131.662 2074.59,105.628 2075.25,148.668 2075.91,142.15 2076.58,133.663 2077.24,138.324 2077.91,129.8 2078.57,136.706 2079.23,107.275 2079.9,152.706 2080.56,153.134 2081.22,154.603 2081.89,142.412 2082.55,130.05 2083.22,114.558 2083.88,138.234 2084.54,183.052 2085.21,119.535 2085.87,99.7781 2086.54,158.494 2087.2,125.319 2087.86,134.04 2088.53,126.774 2089.19,129.143 2089.86,116.094 2090.52,90.3274 2091.18,96.3527 2091.85,119.77 2092.51,96.3398 2093.18,134.314 2093.84,262.287 2094.5,128.767 2095.17,144.685 2095.83,119.352 2096.5,155.329 2097.16,133.072 2097.82,137.631 2098.49,135.514 2099.15,118.934 2099.82,160.339 2100.48,143.519 2101.14,173.037 2101.81,118.279 2102.47,139.444 2103.13,132.743 2103.8,113.432 2104.46,117.074 2105.13,178.791 2105.79,137.569 2106.45,111.582 2107.12,138.824 2107.78,134.898 2108.45,141.105 2109.11,119.846 2109.77,128.389 2110.44,134.507 2111.1,144.309 2111.77,144.771 2112.43,129.456 2113.09,162.368 2113.76,132.984 2114.42,113.76 2115.09,115.507 2115.75,126.712 2116.41,108.183 2117.08,138.634 2117.74,110.365 2118.41,121.379 2119.07,174.714 2119.73,162.868 2120.4,116.661 2121.06,138.492 2121.73,99.8551 2122.39,174.316 2123.05,130.832 2123.72,135.956 2124.38,124.389 2125.04,134.427 2125.71,140.197 2126.37,120.407 2127.04,129.582 2127.7,117.911 2128.36,148.45 2129.03,124.545 2129.69,128.274 2130.36,119.28 2131.02,155.211 2131.68,136.226 2132.35,151.337 2133.01,131.27 2133.68,101.081 2134.34,139.068 2135,114.763 2135.67,119.316 2136.33,132.522 2137,138.637 2137.66,112.51 2138.32,111.519 2138.99,122.726 2139.65,105.589 2140.32,139.195 2140.98,159.47 2141.64,154.702 2142.31,120.841 2142.97,109.421 2143.64,120.325 2144.3,145.101 2144.96,135.762 2145.63,149.955 2146.29,132.481 2146.95,115.598 2147.62,141.446 2148.28,163.551 2148.95,116.072 2149.61,119.304 2150.27,133.268 2150.94,139.643 2151.6,111.699 2152.27,156.621 2152.93,119.303 2153.59,78.0913 2154.26,163.401 2154.92,167.354 2155.59,119.503 2156.25,145.717 2156.91,136.799 2157.58,126.277 2158.24,102.521 2158.91,126.882 2159.57,132.741 2160.23,113.917 2160.9,136.872 2161.56,138.103 2162.23,114.762 2162.89,146.357 2163.55,141.072 2164.22,111.397 2164.88,107.536 2165.55,120.461 2166.21,138.734 2166.87,130.669 2167.54,102.585 2168.2,144.472 2168.86,158.036 2169.53,134.32 2170.19,107.782 2170.86,154.251 2171.52,103.541 2172.18,104.938 2172.85,138.024 2173.51,137.743 2174.18,125.745 2174.84,135.836 2175.5,122.471 2176.17,125.095 2176.83,134.055 2177.5,157.153 2178.16,132.951 2178.82,169.007 2179.49,126.807 2180.15,158.452 2180.82,111.3 2181.48,143.519 2182.14,120.134 2182.81,113.976 2183.47,91.814 2184.14,91.1722 2184.8,119.177 2185.46,107.274 2186.13,119.401 2186.79,108.752 2187.46,120.651 2188.12,123.824 2188.78,89.6542 2189.45,133.195 2190.11,128.491 2190.77,114.584 2191.44,145.882 2192.1,134.336 2192.77,134.702 2193.43,128.411 2194.09,132.139 2194.76,118.497 2195.42,134.7 2196.09,127.17 2196.75,138.311 2197.41,141.597 2198.08,109.95 2198.74,183.107 2199.41,142.428 2200.07,132.518 2200.73,97.3925 2201.4,152.394 2202.06,133.975 2202.73,130.493 2203.39,151.49 2204.05,117.955 2204.72,92.7218 2205.38,96.0922 2206.05,128.282 2206.71,111.313 2207.37,134.095 2208.04,105 2208.7,141.446 2209.37,132.6 2210.03,119.665 2210.69,117.747 2211.36,114.435 2212.02,85.6038 2212.68,174.527 2213.35,138.835 2214.01,119.565 2214.68,129.125 2215.34,119.843 2216,146.864 2216.67,130.912 2217.33,115.936 2218,143.146 2218.66,105.879 2219.32,119.363 2219.99,117.517 2220.65,137.342 2221.32,140.001 2221.98,132.738 2222.64,98.8381 2223.31,117.27 2223.97,117.556 2224.64,115.37 2225.3,149.375 2225.96,107.837 2226.63,142.996 2227.29,177.661 2227.96,72.4826 2228.62,157.685 2229.28,115.082 2229.95,159.284 2230.61,111.428 2231.28,136.359 2231.94,113.279 2232.6,120.168 2233.27,125.814 2233.93,105.492 2234.59,126.689 2235.26,128.755 2235.92,103.454 2236.59,146.855 2237.25,122.99 2237.91,92.3316 2238.58,115.474 2239.24,144.913 2239.91,125.26 2240.57,124.06 2241.23,139.084 2241.9,140.488 2242.56,119.2 2243.23,127.836 2243.89,168.805 2244.55,152.573 2245.22,111.958 2245.88,116.623 2246.55,134.723 2247.21,114.936 2247.87,130.416 2248.54,111.375 2249.2,122.105 2249.87,148.823 2250.53,109.474 2251.19,129.295 2251.86,100.94 2252.52,132.29 2253.19,145.772 2253.85,131.627 2254.51,134.866 2255.18,95.7968 2255.84,121.841 2256.5,125.947 2257.17,128.333 2257.83,149.855 2258.5,124.123 2259.16,113.505 2259.82,132.461 2260.49,117.306 2261.15,123.041 2261.82,111.459 2262.48,121.914 2263.14,113.583 2263.81,124.859 2264.47,174.894 2265.14,126.942 2265.8,116.45 2266.46,103.741 2267.13,144.315 2267.79,132.979 2268.46,71.9905 2269.12,98.4857 2269.78,122.56 2270.45,114.119 2271.11,144.558 2271.78,133.88 2272.44,101.319 2273.1,111.952 2273.77,152.718 2274.43,129.083 2275.09,109.652 2275.76,111.192 2276.42,134.496 2277.09,167.755 2277.75,125.045 2278.41,115.339 2279.08,125.266 2279.74,126.201 2280.41,116.904 2281.07,139.515 2281.73,119.442 2282.4,104.249 2283.06,134.867 2283.73,87.6991 2284.39,118.668 2285.05,182.596 2285.72,113.746 2286.38,137.402 2287.05,107.954 2287.71,150.211 2288.37,139.955 2289.04,124.726 2289.7,124.216 2290.37,128.98 2291.03,120.188 2291.69,124.853 2292.36,141.657 2293.02,122.071 "/>
<path clip-path="url(#clip800)" d="M2018.91 1377.32 L2282.4 1377.32 L2282.4 1273.64 L2018.91 1273.64  Z" fill="#ffffff" fill-rule="evenodd" fill-opacity="1"/>
<polyline clip-path="url(#clip800)" style="stroke:#000000; stroke-linecap:round; stroke-linejoin:round; stroke-width:4; stroke-opacity:1; fill:none" points="2018.91,1377.32 2282.4,1377.32 2282.4,1273.64 2018.91,1273.64 2018.91,1377.32 "/>
<polyline clip-path="url(#clip800)" style="stroke:#009af9; stroke-linecap:round; stroke-linejoin:round; stroke-width:4; stroke-opacity:1; fill:none" points="2042.36,1325.48 2183.07,1325.48 "/>
<path clip-path="url(#clip800)" d="M2220.36 1345.16 Q2218.56 1349.79 2216.84 1351.2 Q2215.13 1352.62 2212.26 1352.62 L2208.86 1352.62 L2208.86 1349.05 L2211.36 1349.05 Q2213.12 1349.05 2214.09 1348.22 Q2215.06 1347.38 2216.24 1344.28 L2217.01 1342.34 L2206.52 1316.83 L2211.03 1316.83 L2219.14 1337.11 L2227.24 1316.83 L2231.75 1316.83 L2220.36 1345.16 Z" fill="#000000" fill-rule="nonzero" fill-opacity="1" /><path clip-path="url(#clip800)" d="M2239.04 1338.82 L2246.68 1338.82 L2246.68 1312.45 L2238.37 1314.12 L2238.37 1309.86 L2246.64 1308.2 L2251.31 1308.2 L2251.31 1338.82 L2258.95 1338.82 L2258.95 1342.76 L2239.04 1342.76 L2239.04 1338.82 Z" fill="#000000" fill-rule="nonzero" fill-opacity="1" /></svg>
