<?xml version="1.0" encoding="utf-8"?>
<svg xmlns="http://www.w3.org/2000/svg" xmlns:xlink="http://www.w3.org/1999/xlink" width="600" height="400" viewBox="0 0 2400 1600">
<defs>
  <clipPath id="clip680">
    <rect x="0" y="0" width="2400" height="1600"/>
  </clipPath>
</defs>
<path clip-path="url(#clip680)" d="M0 1600 L2400 1600 L2400 0 L0 0  Z" fill="#ffffff" fill-rule="evenodd" fill-opacity="1"/>
<defs>
  <clipPath id="clip681">
    <rect x="480" y="0" width="1681" height="1600"/>
  </clipPath>
</defs>
<path clip-path="url(#clip680)" d="M242.135 1423.18 L2352.76 1423.18 L2352.76 47.2441 L242.135 47.2441  Z" fill="#ffffff" fill-rule="evenodd" fill-opacity="1"/>
<defs>
  <clipPath id="clip682">
    <rect x="242" y="47" width="2112" height="1377"/>
  </clipPath>
</defs>
<polyline clip-path="url(#clip682)" style="stroke:#000000; stroke-linecap:round; stroke-linejoin:round; stroke-width:2; stroke-opacity:0.1; fill:none" points="301.205,1423.18 301.205,47.2441 "/>
<polyline clip-path="url(#clip682)" style="stroke:#000000; stroke-linecap:round; stroke-linejoin:round; stroke-width:2; stroke-opacity:0.1; fill:none" points="965.144,1423.18 965.144,47.2441 "/>
<polyline clip-path="url(#clip682)" style="stroke:#000000; stroke-linecap:round; stroke-linejoin:round; stroke-width:2; stroke-opacity:0.1; fill:none" points="1629.08,1423.18 1629.08,47.2441 "/>
<polyline clip-path="url(#clip682)" style="stroke:#000000; stroke-linecap:round; stroke-linejoin:round; stroke-width:2; stroke-opacity:0.1; fill:none" points="2293.02,1423.18 2293.02,47.2441 "/>
<polyline clip-path="url(#clip682)" style="stroke:#000000; stroke-linecap:round; stroke-linejoin:round; stroke-width:2; stroke-opacity:0.1; fill:none" points="242.135,1423.18 2352.76,1423.18 "/>
<polyline clip-path="url(#clip682)" style="stroke:#000000; stroke-linecap:round; stroke-linejoin:round; stroke-width:2; stroke-opacity:0.1; fill:none" points="242.135,1179.41 2352.76,1179.41 "/>
<polyline clip-path="url(#clip682)" style="stroke:#000000; stroke-linecap:round; stroke-linejoin:round; stroke-width:2; stroke-opacity:0.1; fill:none" points="242.135,935.643 2352.76,935.643 "/>
<polyline clip-path="url(#clip682)" style="stroke:#000000; stroke-linecap:round; stroke-linejoin:round; stroke-width:2; stroke-opacity:0.1; fill:none" points="242.135,691.874 2352.76,691.874 "/>
<polyline clip-path="url(#clip682)" style="stroke:#000000; stroke-linecap:round; stroke-linejoin:round; stroke-width:2; stroke-opacity:0.1; fill:none" points="242.135,448.106 2352.76,448.106 "/>
<polyline clip-path="url(#clip682)" style="stroke:#000000; stroke-linecap:round; stroke-linejoin:round; stroke-width:2; stroke-opacity:0.1; fill:none" points="242.135,204.337 2352.76,204.337 "/>
<polyline clip-path="url(#clip680)" style="stroke:#000000; stroke-linecap:round; stroke-linejoin:round; stroke-width:4; stroke-opacity:1; fill:none" points="242.135,1423.18 2352.76,1423.18 "/>
<polyline clip-path="url(#clip680)" style="stroke:#000000; stroke-linecap:round; stroke-linejoin:round; stroke-width:4; stroke-opacity:1; fill:none" points="301.205,1423.18 301.205,1404.28 "/>
<polyline clip-path="url(#clip680)" style="stroke:#000000; stroke-linecap:round; stroke-linejoin:round; stroke-width:4; stroke-opacity:1; fill:none" points="965.144,1423.18 965.144,1404.28 "/>
<polyline clip-path="url(#clip680)" style="stroke:#000000; stroke-linecap:round; stroke-linejoin:round; stroke-width:4; stroke-opacity:1; fill:none" points="1629.08,1423.18 1629.08,1404.28 "/>
<polyline clip-path="url(#clip680)" style="stroke:#000000; stroke-linecap:round; stroke-linejoin:round; stroke-width:4; stroke-opacity:1; fill:none" points="2293.02,1423.18 2293.02,1404.28 "/>
<path clip-path="url(#clip680)" d="M301.205 1454.1 Q297.594 1454.1 295.766 1457.66 Q293.96 1461.2 293.96 1468.33 Q293.96 1475.44 295.766 1479.01 Q297.594 1482.55 301.205 1482.55 Q304.84 1482.55 306.645 1479.01 Q308.474 1475.44 308.474 1468.33 Q308.474 1461.2 306.645 1457.66 Q304.84 1454.1 301.205 1454.1 M301.205 1450.39 Q307.015 1450.39 310.071 1455 Q313.15 1459.58 313.15 1468.33 Q313.15 1477.06 310.071 1481.67 Q307.015 1486.25 301.205 1486.25 Q295.395 1486.25 292.316 1481.67 Q289.261 1477.06 289.261 1468.33 Q289.261 1459.58 292.316 1455 Q295.395 1450.39 301.205 1450.39 Z" fill="#000000" fill-rule="nonzero" fill-opacity="1" /><path clip-path="url(#clip680)" d="M909.67 1481.64 L917.309 1481.64 L917.309 1455.28 L908.998 1456.95 L908.998 1452.69 L917.262 1451.02 L921.938 1451.02 L921.938 1481.64 L929.577 1481.64 L929.577 1485.58 L909.67 1485.58 L909.67 1481.64 Z" fill="#000000" fill-rule="nonzero" fill-opacity="1" /><path clip-path="url(#clip680)" d="M949.021 1454.1 Q945.41 1454.1 943.582 1457.66 Q941.776 1461.2 941.776 1468.33 Q941.776 1475.44 943.582 1479.01 Q945.41 1482.55 949.021 1482.55 Q952.656 1482.55 954.461 1479.01 Q956.29 1475.44 956.29 1468.33 Q956.29 1461.2 954.461 1457.66 Q952.656 1454.1 949.021 1454.1 M949.021 1450.39 Q954.832 1450.39 957.887 1455 Q960.966 1459.58 960.966 1468.33 Q960.966 1477.06 957.887 1481.67 Q954.832 1486.25 949.021 1486.25 Q943.211 1486.25 940.133 1481.67 Q937.077 1477.06 937.077 1468.33 Q937.077 1459.58 940.133 1455 Q943.211 1450.39 949.021 1450.39 Z" fill="#000000" fill-rule="nonzero" fill-opacity="1" /><path clip-path="url(#clip680)" d="M979.183 1454.1 Q975.572 1454.1 973.743 1457.66 Q971.938 1461.2 971.938 1468.33 Q971.938 1475.44 973.743 1479.01 Q975.572 1482.55 979.183 1482.55 Q982.817 1482.55 984.623 1479.01 Q986.452 1475.44 986.452 1468.33 Q986.452 1461.2 984.623 1457.66 Q982.817 1454.1 979.183 1454.1 M979.183 1450.39 Q984.993 1450.39 988.049 1455 Q991.128 1459.58 991.128 1468.33 Q991.128 1477.06 988.049 1481.67 Q984.993 1486.25 979.183 1486.25 Q973.373 1486.25 970.294 1481.67 Q967.239 1477.06 967.239 1468.33 Q967.239 1459.58 970.294 1455 Q973.373 1450.39 979.183 1450.39 Z" fill="#000000" fill-rule="nonzero" fill-opacity="1" /><path clip-path="url(#clip680)" d="M1009.35 1454.1 Q1005.73 1454.1 1003.91 1457.66 Q1002.1 1461.2 1002.1 1468.33 Q1002.1 1475.44 1003.91 1479.01 Q1005.73 1482.55 1009.35 1482.55 Q1012.98 1482.55 1014.78 1479.01 Q1016.61 1475.44 1016.61 1468.33 Q1016.61 1461.2 1014.78 1457.66 Q1012.98 1454.1 1009.35 1454.1 M1009.35 1450.39 Q1015.16 1450.39 1018.21 1455 Q1021.29 1459.58 1021.29 1468.33 Q1021.29 1477.06 1018.21 1481.67 Q1015.16 1486.25 1009.35 1486.25 Q1003.53 1486.25 1000.46 1481.67 Q997.401 1477.06 997.401 1468.33 Q997.401 1459.58 1000.46 1455 Q1003.53 1450.39 1009.35 1450.39 Z" fill="#000000" fill-rule="nonzero" fill-opacity="1" /><path clip-path="url(#clip680)" d="M1577.69 1481.64 L1594.01 1481.64 L1594.01 1485.58 L1572.07 1485.58 L1572.07 1481.64 Q1574.73 1478.89 1579.31 1474.26 Q1583.92 1469.61 1585.1 1468.27 Q1587.35 1465.74 1588.23 1464.01 Q1589.13 1462.25 1589.13 1460.56 Q1589.13 1457.8 1587.18 1456.07 Q1585.26 1454.33 1582.16 1454.33 Q1579.96 1454.33 1577.51 1455.09 Q1575.08 1455.86 1572.3 1457.41 L1572.3 1452.69 Q1575.12 1451.55 1577.58 1450.97 Q1580.03 1450.39 1582.07 1450.39 Q1587.44 1450.39 1590.63 1453.08 Q1593.83 1455.77 1593.83 1460.26 Q1593.83 1462.39 1593.02 1464.31 Q1592.23 1466.2 1590.12 1468.8 Q1589.55 1469.47 1586.44 1472.69 Q1583.34 1475.88 1577.69 1481.64 Z" fill="#000000" fill-rule="nonzero" fill-opacity="1" /><path clip-path="url(#clip680)" d="M1613.83 1454.1 Q1610.22 1454.1 1608.39 1457.66 Q1606.58 1461.2 1606.58 1468.33 Q1606.58 1475.44 1608.39 1479.01 Q1610.22 1482.55 1613.83 1482.55 Q1617.46 1482.55 1619.27 1479.01 Q1621.1 1475.44 1621.1 1468.33 Q1621.1 1461.2 1619.27 1457.66 Q1617.46 1454.1 1613.83 1454.1 M1613.83 1450.39 Q1619.64 1450.39 1622.69 1455 Q1625.77 1459.58 1625.77 1468.33 Q1625.77 1477.06 1622.69 1481.67 Q1619.64 1486.25 1613.83 1486.25 Q1608.02 1486.25 1604.94 1481.67 Q1601.88 1477.06 1601.88 1468.33 Q1601.88 1459.58 1604.94 1455 Q1608.02 1450.39 1613.83 1450.39 Z" fill="#000000" fill-rule="nonzero" fill-opacity="1" /><path clip-path="url(#clip680)" d="M1643.99 1454.1 Q1640.38 1454.1 1638.55 1457.66 Q1636.74 1461.2 1636.74 1468.33 Q1636.74 1475.44 1638.55 1479.01 Q1640.38 1482.55 1643.99 1482.55 Q1647.62 1482.55 1649.43 1479.01 Q1651.26 1475.44 1651.26 1468.33 Q1651.26 1461.2 1649.43 1457.66 Q1647.62 1454.1 1643.99 1454.1 M1643.99 1450.39 Q1649.8 1450.39 1652.86 1455 Q1655.93 1459.58 1655.93 1468.33 Q1655.93 1477.06 1652.86 1481.67 Q1649.8 1486.25 1643.99 1486.25 Q1638.18 1486.25 1635.1 1481.67 Q1632.05 1477.06 1632.05 1468.33 Q1632.05 1459.58 1635.1 1455 Q1638.18 1450.39 1643.99 1450.39 Z" fill="#000000" fill-rule="nonzero" fill-opacity="1" /><path clip-path="url(#clip680)" d="M1674.15 1454.1 Q1670.54 1454.1 1668.71 1457.66 Q1666.91 1461.2 1666.91 1468.33 Q1666.91 1475.44 1668.71 1479.01 Q1670.54 1482.55 1674.15 1482.55 Q1677.79 1482.55 1679.59 1479.01 Q1681.42 1475.44 1681.42 1468.33 Q1681.42 1461.2 1679.59 1457.66 Q1677.79 1454.1 1674.15 1454.1 M1674.15 1450.39 Q1679.96 1450.39 1683.02 1455 Q1686.1 1459.58 1686.1 1468.33 Q1686.1 1477.06 1683.02 1481.67 Q1679.96 1486.25 1674.15 1486.25 Q1668.34 1486.25 1665.26 1481.67 Q1662.21 1477.06 1662.21 1468.33 Q1662.21 1459.58 1665.26 1455 Q1668.34 1450.39 1674.15 1450.39 Z" fill="#000000" fill-rule="nonzero" fill-opacity="1" /><path clip-path="url(#clip680)" d="M2251.7 1466.95 Q2255.06 1467.66 2256.93 1469.93 Q2258.83 1472.2 2258.83 1475.53 Q2258.83 1480.65 2255.31 1483.45 Q2251.79 1486.25 2245.31 1486.25 Q2243.14 1486.25 2240.82 1485.81 Q2238.53 1485.39 2236.08 1484.54 L2236.08 1480.02 Q2238.02 1481.16 2240.34 1481.74 Q2242.65 1482.32 2245.17 1482.32 Q2249.57 1482.32 2251.86 1480.58 Q2254.18 1478.84 2254.18 1475.53 Q2254.18 1472.48 2252.03 1470.77 Q2249.9 1469.03 2246.08 1469.03 L2242.05 1469.03 L2242.05 1465.19 L2246.26 1465.19 Q2249.71 1465.19 2251.54 1463.82 Q2253.37 1462.43 2253.37 1459.84 Q2253.37 1457.18 2251.47 1455.77 Q2249.6 1454.33 2246.08 1454.33 Q2244.16 1454.33 2241.96 1454.75 Q2239.76 1455.16 2237.12 1456.04 L2237.12 1451.88 Q2239.78 1451.14 2242.1 1450.77 Q2244.43 1450.39 2246.49 1450.39 Q2251.82 1450.39 2254.92 1452.83 Q2258.02 1455.23 2258.02 1459.35 Q2258.02 1462.22 2256.38 1464.21 Q2254.73 1466.18 2251.7 1466.95 Z" fill="#000000" fill-rule="nonzero" fill-opacity="1" /><path clip-path="url(#clip680)" d="M2277.7 1454.1 Q2274.09 1454.1 2272.26 1457.66 Q2270.45 1461.2 2270.45 1468.33 Q2270.45 1475.44 2272.26 1479.01 Q2274.09 1482.55 2277.7 1482.55 Q2281.33 1482.55 2283.14 1479.01 Q2284.97 1475.44 2284.97 1468.33 Q2284.97 1461.2 2283.14 1457.66 Q2281.33 1454.1 2277.7 1454.1 M2277.7 1450.39 Q2283.51 1450.39 2286.56 1455 Q2289.64 1459.58 2289.64 1468.33 Q2289.64 1477.06 2286.56 1481.67 Q2283.51 1486.25 2277.7 1486.25 Q2271.89 1486.25 2268.81 1481.67 Q2265.75 1477.06 2265.75 1468.33 Q2265.75 1459.58 2268.81 1455 Q2271.89 1450.39 2277.7 1450.39 Z" fill="#000000" fill-rule="nonzero" fill-opacity="1" /><path clip-path="url(#clip680)" d="M2307.86 1454.1 Q2304.25 1454.1 2302.42 1457.66 Q2300.61 1461.2 2300.61 1468.33 Q2300.61 1475.44 2302.42 1479.01 Q2304.25 1482.55 2307.86 1482.55 Q2311.49 1482.55 2313.3 1479.01 Q2315.13 1475.44 2315.13 1468.33 Q2315.13 1461.2 2313.3 1457.66 Q2311.49 1454.1 2307.86 1454.1 M2307.86 1450.39 Q2313.67 1450.39 2316.72 1455 Q2319.8 1459.58 2319.8 1468.33 Q2319.8 1477.06 2316.72 1481.67 Q2313.67 1486.25 2307.86 1486.25 Q2302.05 1486.25 2298.97 1481.67 Q2295.91 1477.06 2295.91 1468.33 Q2295.91 1459.58 2298.97 1455 Q2302.05 1450.39 2307.86 1450.39 Z" fill="#000000" fill-rule="nonzero" fill-opacity="1" /><path clip-path="url(#clip680)" d="M2338.02 1454.1 Q2334.41 1454.1 2332.58 1457.66 Q2330.78 1461.2 2330.78 1468.33 Q2330.78 1475.44 2332.58 1479.01 Q2334.41 1482.55 2338.02 1482.55 Q2341.66 1482.55 2343.46 1479.01 Q2345.29 1475.44 2345.29 1468.33 Q2345.29 1461.2 2343.46 1457.66 Q2341.66 1454.1 2338.02 1454.1 M2338.02 1450.39 Q2343.83 1450.39 2346.89 1455 Q2349.97 1459.58 2349.97 1468.33 Q2349.97 1477.06 2346.89 1481.67 Q2343.83 1486.25 2338.02 1486.25 Q2332.21 1486.25 2329.13 1481.67 Q2326.08 1477.06 2326.08 1468.33 Q2326.08 1459.58 2329.13 1455 Q2332.21 1450.39 2338.02 1450.39 Z" fill="#000000" fill-rule="nonzero" fill-opacity="1" /><path clip-path="url(#clip680)" d="M1165.17 1520.52 L1171.6 1520.52 L1171.6 1568.04 L1165.17 1568.04 L1165.17 1520.52 Z" fill="#000000" fill-rule="nonzero" fill-opacity="1" /><path clip-path="url(#clip680)" d="M1189.93 1522.27 L1189.93 1532.4 L1201.99 1532.4 L1201.99 1536.95 L1189.93 1536.95 L1189.93 1556.3 Q1189.93 1560.66 1191.11 1561.9 Q1192.32 1563.14 1195.98 1563.14 L1201.99 1563.14 L1201.99 1568.04 L1195.98 1568.04 Q1189.2 1568.04 1186.62 1565.53 Q1184.04 1562.98 1184.04 1556.3 L1184.04 1536.95 L1179.74 1536.95 L1179.74 1532.4 L1184.04 1532.4 L1184.04 1522.27 L1189.93 1522.27 Z" fill="#000000" fill-rule="nonzero" fill-opacity="1" /><path clip-path="url(#clip680)" d="M1240.19 1548.76 L1240.19 1551.62 L1213.26 1551.62 Q1213.64 1557.67 1216.89 1560.85 Q1220.17 1564 1225.99 1564 Q1229.36 1564 1232.52 1563.17 Q1235.7 1562.35 1238.82 1560.69 L1238.82 1566.23 Q1235.67 1567.57 1232.36 1568.27 Q1229.05 1568.97 1225.64 1568.97 Q1217.11 1568.97 1212.11 1564 Q1207.15 1559.04 1207.15 1550.57 Q1207.15 1541.82 1211.86 1536.69 Q1216.6 1531.54 1224.62 1531.54 Q1231.81 1531.54 1235.98 1536.18 Q1240.19 1540.8 1240.19 1548.76 M1234.33 1547.04 Q1234.27 1542.23 1231.62 1539.37 Q1229.01 1536.5 1224.69 1536.5 Q1219.78 1536.5 1216.82 1539.27 Q1213.9 1542.04 1213.45 1547.07 L1234.33 1547.04 Z" fill="#000000" fill-rule="nonzero" fill-opacity="1" /><path clip-path="url(#clip680)" d="M1270.45 1537.87 Q1269.47 1537.3 1268.29 1537.04 Q1267.14 1536.76 1265.74 1536.76 Q1260.78 1536.76 1258.11 1540 Q1255.46 1543.22 1255.46 1549.27 L1255.46 1568.04 L1249.58 1568.04 L1249.58 1532.4 L1255.46 1532.4 L1255.46 1537.93 Q1257.31 1534.69 1260.27 1533.13 Q1263.23 1531.54 1267.46 1531.54 Q1268.07 1531.54 1268.8 1531.63 Q1269.53 1531.7 1270.42 1531.85 L1270.45 1537.87 Z" fill="#000000" fill-rule="nonzero" fill-opacity="1" /><path clip-path="url(#clip680)" d="M1292.8 1550.12 Q1285.7 1550.12 1282.96 1551.75 Q1280.23 1553.37 1280.23 1557.29 Q1280.23 1560.4 1282.26 1562.25 Q1284.33 1564.07 1287.86 1564.07 Q1292.73 1564.07 1295.66 1560.63 Q1298.62 1557.16 1298.62 1551.43 L1298.62 1550.12 L1292.8 1550.12 M1304.48 1547.71 L1304.48 1568.04 L1298.62 1568.04 L1298.62 1562.63 Q1296.62 1565.88 1293.63 1567.44 Q1290.63 1568.97 1286.31 1568.97 Q1280.83 1568.97 1277.58 1565.91 Q1274.37 1562.82 1274.37 1557.67 Q1274.37 1551.65 1278.38 1548.6 Q1282.42 1545.54 1290.41 1545.54 L1298.62 1545.54 L1298.62 1544.97 Q1298.62 1540.93 1295.95 1538.73 Q1293.31 1536.5 1288.5 1536.5 Q1285.45 1536.5 1282.55 1537.23 Q1279.65 1537.97 1276.98 1539.43 L1276.98 1534.02 Q1280.19 1532.78 1283.22 1532.17 Q1286.24 1531.54 1289.11 1531.54 Q1296.84 1531.54 1300.66 1535.55 Q1304.48 1539.56 1304.48 1547.71 Z" fill="#000000" fill-rule="nonzero" fill-opacity="1" /><path clip-path="url(#clip680)" d="M1322.34 1522.27 L1322.34 1532.4 L1334.4 1532.4 L1334.4 1536.95 L1322.34 1536.95 L1322.34 1556.3 Q1322.34 1560.66 1323.51 1561.9 Q1324.72 1563.14 1328.38 1563.14 L1334.4 1563.14 L1334.4 1568.04 L1328.38 1568.04 Q1321.6 1568.04 1319.03 1565.53 Q1316.45 1562.98 1316.45 1556.3 L1316.45 1536.95 L1312.15 1536.95 L1312.15 1532.4 L1316.45 1532.4 L1316.45 1522.27 L1322.34 1522.27 Z" fill="#000000" fill-rule="nonzero" fill-opacity="1" /><path clip-path="url(#clip680)" d="M1342.1 1532.4 L1347.96 1532.4 L1347.96 1568.04 L1342.1 1568.04 L1342.1 1532.4 M1342.1 1518.52 L1347.96 1518.52 L1347.96 1525.93 L1342.1 1525.93 L1342.1 1518.52 Z" fill="#000000" fill-rule="nonzero" fill-opacity="1" /><path clip-path="url(#clip680)" d="M1374.02 1536.5 Q1369.31 1536.5 1366.58 1540.19 Q1363.84 1543.85 1363.84 1550.25 Q1363.84 1556.65 1366.55 1560.34 Q1369.28 1564 1374.02 1564 Q1378.7 1564 1381.44 1560.31 Q1384.18 1556.62 1384.18 1550.25 Q1384.18 1543.92 1381.44 1540.23 Q1378.7 1536.5 1374.02 1536.5 M1374.02 1531.54 Q1381.66 1531.54 1386.02 1536.5 Q1390.38 1541.47 1390.38 1550.25 Q1390.38 1559 1386.02 1564 Q1381.66 1568.97 1374.02 1568.97 Q1366.35 1568.97 1361.99 1564 Q1357.66 1559 1357.66 1550.25 Q1357.66 1541.47 1361.99 1536.5 Q1366.35 1531.54 1374.02 1531.54 Z" fill="#000000" fill-rule="nonzero" fill-opacity="1" /><path clip-path="url(#clip680)" d="M1429.72 1546.53 L1429.72 1568.04 L1423.87 1568.04 L1423.87 1546.72 Q1423.87 1541.66 1421.89 1539.14 Q1419.92 1536.63 1415.97 1536.63 Q1411.23 1536.63 1408.5 1539.65 Q1405.76 1542.68 1405.76 1547.9 L1405.76 1568.04 L1399.87 1568.04 L1399.87 1532.4 L1405.76 1532.4 L1405.76 1537.93 Q1407.86 1534.72 1410.69 1533.13 Q1413.56 1531.54 1417.28 1531.54 Q1423.42 1531.54 1426.57 1535.36 Q1429.72 1539.14 1429.72 1546.53 Z" fill="#000000" fill-rule="nonzero" fill-opacity="1" /><polyline clip-path="url(#clip680)" style="stroke:#000000; stroke-linecap:round; stroke-linejoin:round; stroke-width:4; stroke-opacity:1; fill:none" points="242.135,1423.18 242.135,47.2441 "/>
<polyline clip-path="url(#clip680)" style="stroke:#000000; stroke-linecap:round; stroke-linejoin:round; stroke-width:4; stroke-opacity:1; fill:none" points="242.135,1423.18 261.032,1423.18 "/>
<polyline clip-path="url(#clip680)" style="stroke:#000000; stroke-linecap:round; stroke-linejoin:round; stroke-width:4; stroke-opacity:1; fill:none" points="242.135,1179.41 261.032,1179.41 "/>
<polyline clip-path="url(#clip680)" style="stroke:#000000; stroke-linecap:round; stroke-linejoin:round; stroke-width:4; stroke-opacity:1; fill:none" points="242.135,935.643 261.032,935.643 "/>
<polyline clip-path="url(#clip680)" style="stroke:#000000; stroke-linecap:round; stroke-linejoin:round; stroke-width:4; stroke-opacity:1; fill:none" points="242.135,691.874 261.032,691.874 "/>
<polyline clip-path="url(#clip680)" style="stroke:#000000; stroke-linecap:round; stroke-linejoin:round; stroke-width:4; stroke-opacity:1; fill:none" points="242.135,448.106 261.032,448.106 "/>
<polyline clip-path="url(#clip680)" style="stroke:#000000; stroke-linecap:round; stroke-linejoin:round; stroke-width:4; stroke-opacity:1; fill:none" points="242.135,204.337 261.032,204.337 "/>
<path clip-path="url(#clip680)" d="M114.26 1423.63 L143.936 1423.63 L143.936 1427.57 L114.26 1427.57 L114.26 1423.63 Z" fill="#000000" fill-rule="nonzero" fill-opacity="1" /><path clip-path="url(#clip680)" d="M154.839 1436.52 L162.477 1436.52 L162.477 1410.16 L154.167 1411.83 L154.167 1407.57 L162.431 1405.9 L167.107 1405.9 L167.107 1436.52 L174.746 1436.52 L174.746 1440.46 L154.839 1440.46 L154.839 1436.52 Z" fill="#000000" fill-rule="nonzero" fill-opacity="1" /><path clip-path="url(#clip680)" d="M194.19 1408.98 Q190.579 1408.98 188.75 1412.54 Q186.945 1416.08 186.945 1423.21 Q186.945 1430.32 188.75 1433.89 Q190.579 1437.43 194.19 1437.43 Q197.825 1437.43 199.63 1433.89 Q201.459 1430.32 201.459 1423.21 Q201.459 1416.08 199.63 1412.54 Q197.825 1408.98 194.19 1408.98 M194.19 1405.27 Q200 1405.27 203.056 1409.88 Q206.135 1414.46 206.135 1423.21 Q206.135 1431.94 203.056 1436.55 Q200 1441.13 194.19 1441.13 Q188.38 1441.13 185.301 1436.55 Q182.246 1431.94 182.246 1423.21 Q182.246 1414.46 185.301 1409.88 Q188.38 1405.27 194.19 1405.27 Z" fill="#000000" fill-rule="nonzero" fill-opacity="1" /><path clip-path="url(#clip680)" d="M144.607 1179.86 L174.283 1179.86 L174.283 1183.8 L144.607 1183.8 L144.607 1179.86 Z" fill="#000000" fill-rule="nonzero" fill-opacity="1" /><path clip-path="url(#clip680)" d="M184.514 1195.97 L184.514 1191.71 Q186.274 1192.55 188.079 1192.99 Q189.885 1193.43 191.621 1193.43 Q196.25 1193.43 198.681 1190.33 Q201.135 1187.2 201.482 1180.86 Q200.139 1182.85 198.079 1183.91 Q196.019 1184.98 193.519 1184.98 Q188.334 1184.98 185.301 1181.85 Q182.292 1178.71 182.292 1173.27 Q182.292 1167.94 185.44 1164.72 Q188.588 1161.51 193.82 1161.51 Q199.815 1161.51 202.963 1166.11 Q206.135 1170.7 206.135 1179.45 Q206.135 1187.62 202.246 1192.5 Q198.38 1197.36 191.829 1197.36 Q190.07 1197.36 188.264 1197.02 Q186.459 1196.67 184.514 1195.97 M193.82 1181.32 Q196.968 1181.32 198.797 1179.17 Q200.649 1177.02 200.649 1173.27 Q200.649 1169.54 198.797 1167.39 Q196.968 1165.21 193.82 1165.21 Q190.672 1165.21 188.82 1167.39 Q186.991 1169.54 186.991 1173.27 Q186.991 1177.02 188.82 1179.17 Q190.672 1181.32 193.82 1181.32 Z" fill="#000000" fill-rule="nonzero" fill-opacity="1" /><path clip-path="url(#clip680)" d="M144.515 936.094 L174.19 936.094 L174.19 940.029 L144.515 940.029 L144.515 936.094 Z" fill="#000000" fill-rule="nonzero" fill-opacity="1" /><path clip-path="url(#clip680)" d="M194.283 936.511 Q190.95 936.511 189.028 938.293 Q187.13 940.076 187.13 943.201 Q187.13 946.326 189.028 948.108 Q190.95 949.89 194.283 949.89 Q197.616 949.89 199.537 948.108 Q201.459 946.302 201.459 943.201 Q201.459 940.076 199.537 938.293 Q197.639 936.511 194.283 936.511 M189.607 934.52 Q186.598 933.779 184.908 931.719 Q183.241 929.659 183.241 926.696 Q183.241 922.553 186.181 920.145 Q189.144 917.738 194.283 917.738 Q199.445 917.738 202.385 920.145 Q205.324 922.553 205.324 926.696 Q205.324 929.659 203.635 931.719 Q201.968 933.779 198.982 934.52 Q202.362 935.307 204.237 937.599 Q206.135 939.89 206.135 943.201 Q206.135 948.224 203.056 950.909 Q200 953.594 194.283 953.594 Q188.565 953.594 185.487 950.909 Q182.431 948.224 182.431 943.201 Q182.431 939.89 184.329 937.599 Q186.227 935.307 189.607 934.52 M187.894 927.136 Q187.894 929.821 189.561 931.326 Q191.25 932.83 194.283 932.83 Q197.292 932.83 198.982 931.326 Q200.695 929.821 200.695 927.136 Q200.695 924.451 198.982 922.946 Q197.292 921.441 194.283 921.441 Q191.25 921.441 189.561 922.946 Q187.894 924.451 187.894 927.136 Z" fill="#000000" fill-rule="nonzero" fill-opacity="1" /><path clip-path="url(#clip680)" d="M145.325 692.326 L175.001 692.326 L175.001 696.261 L145.325 696.261 L145.325 692.326 Z" fill="#000000" fill-rule="nonzero" fill-opacity="1" /><path clip-path="url(#clip680)" d="M183.913 674.594 L206.135 674.594 L206.135 676.585 L193.588 709.154 L188.704 709.154 L200.51 678.529 L183.913 678.529 L183.913 674.594 Z" fill="#000000" fill-rule="nonzero" fill-opacity="1" /><path clip-path="url(#clip680)" d="M144.26 448.557 L173.936 448.557 L173.936 452.492 L144.26 452.492 L144.26 448.557 Z" fill="#000000" fill-rule="nonzero" fill-opacity="1" /><path clip-path="url(#clip680)" d="M194.607 446.242 Q191.459 446.242 189.607 448.395 Q187.778 450.548 187.778 454.298 Q187.778 458.025 189.607 460.201 Q191.459 462.353 194.607 462.353 Q197.755 462.353 199.584 460.201 Q201.436 458.025 201.436 454.298 Q201.436 450.548 199.584 448.395 Q197.755 446.242 194.607 446.242 M203.889 431.59 L203.889 435.849 Q202.13 435.016 200.325 434.576 Q198.542 434.136 196.783 434.136 Q192.153 434.136 189.7 437.261 Q187.269 440.386 186.922 446.705 Q188.288 444.691 190.348 443.627 Q192.408 442.539 194.885 442.539 Q200.093 442.539 203.102 445.71 Q206.135 448.858 206.135 454.298 Q206.135 459.622 202.987 462.839 Q199.838 466.057 194.607 466.057 Q188.612 466.057 185.44 461.474 Q182.269 456.867 182.269 448.14 Q182.269 439.946 186.158 435.085 Q190.047 430.201 196.598 430.201 Q198.357 430.201 200.139 430.548 Q201.945 430.895 203.889 431.59 Z" fill="#000000" fill-rule="nonzero" fill-opacity="1" /><path clip-path="url(#clip680)" d="M145.417 204.789 L175.093 204.789 L175.093 208.724 L145.417 208.724 L145.417 204.789 Z" fill="#000000" fill-rule="nonzero" fill-opacity="1" /><path clip-path="url(#clip680)" d="M185.232 187.057 L203.588 187.057 L203.588 190.992 L189.514 190.992 L189.514 199.465 Q190.533 199.117 191.551 198.955 Q192.57 198.77 193.588 198.77 Q199.375 198.77 202.755 201.941 Q206.135 205.113 206.135 210.529 Q206.135 216.108 202.662 219.21 Q199.19 222.289 192.871 222.289 Q190.695 222.289 188.426 221.918 Q186.181 221.548 183.774 220.807 L183.774 216.108 Q185.857 217.242 188.079 217.798 Q190.301 218.353 192.778 218.353 Q196.783 218.353 199.121 216.247 Q201.459 214.14 201.459 210.529 Q201.459 206.918 199.121 204.812 Q196.783 202.705 192.778 202.705 Q190.903 202.705 189.028 203.122 Q187.176 203.539 185.232 204.418 L185.232 187.057 Z" fill="#000000" fill-rule="nonzero" fill-opacity="1" /><path clip-path="url(#clip680)" d="M16.4842 816.375 L16.4842 786.329 L21.895 786.329 L21.895 809.945 L35.9632 809.945 L35.9632 787.315 L41.3741 787.315 L41.3741 809.945 L58.5933 809.945 L58.5933 785.756 L64.0042 785.756 L64.0042 816.375 L16.4842 816.375 Z" fill="#000000" fill-rule="nonzero" fill-opacity="1" /><path clip-path="url(#clip680)" d="M16.4842 775.189 L16.4842 768.759 L58.5933 768.759 L58.5933 745.62 L64.0042 745.62 L64.0042 775.189 L16.4842 775.189 Z" fill="#000000" fill-rule="nonzero" fill-opacity="1" /><path clip-path="url(#clip680)" d="M41.3104 732.443 L58.7206 732.443 L58.7206 722.13 Q58.7206 716.942 56.5881 714.46 Q54.4238 711.945 49.9996 711.945 Q45.5436 711.945 43.4429 714.46 Q41.3104 716.942 41.3104 722.13 L41.3104 732.443 M21.7677 732.443 L36.0905 732.443 L36.0905 722.926 Q36.0905 718.216 34.34 715.924 Q32.5576 713.6 28.9291 713.6 Q25.3325 713.6 23.5501 715.924 Q21.7677 718.216 21.7677 722.926 L21.7677 732.443 M16.4842 738.872 L16.4842 722.449 Q16.4842 715.096 19.5397 711.118 Q22.5952 707.139 28.2289 707.139 Q32.5894 707.139 35.1675 709.176 Q37.7456 711.213 38.3822 715.16 Q39.4007 710.418 42.6472 707.808 Q45.8619 705.166 50.6998 705.166 Q57.0655 705.166 60.5348 709.495 Q64.0042 713.823 64.0042 721.812 L64.0042 738.872 L16.4842 738.872 Z" fill="#000000" fill-rule="nonzero" fill-opacity="1" /><path clip-path="url(#clip680)" d="M20.8447 676.011 Q20.8447 683.013 26.0645 687.151 Q31.2844 691.257 40.2919 691.257 Q49.2675 691.257 54.4874 687.151 Q59.7073 683.013 59.7073 676.011 Q59.7073 669.009 54.4874 664.935 Q49.2675 660.829 40.2919 660.829 Q31.2844 660.829 26.0645 664.935 Q20.8447 669.009 20.8447 676.011 M15.6248 676.011 Q15.6248 666.017 22.3406 660.033 Q29.0246 654.049 40.2919 654.049 Q51.5274 654.049 58.2432 660.033 Q64.9272 666.017 64.9272 676.011 Q64.9272 686.037 58.2432 692.052 Q51.5592 698.036 40.2919 698.036 Q29.0246 698.036 22.3406 692.052 Q15.6248 686.037 15.6248 676.011 Z" fill="#000000" fill-rule="nonzero" fill-opacity="1" /><polyline clip-path="url(#clip682)" style="stroke:#009af9; stroke-linecap:round; stroke-linejoin:round; stroke-width:4; stroke-opacity:1; fill:none" points="301.869,1094.43 302.533,9782.76 303.197,1254.13 303.861,240395 304.525,2715.99 305.189,3376.88 305.853,45570 306.517,71274.5 307.181,190851 307.845,3640.09 308.509,709.332 309.173,1295.7 309.836,1078.29 310.5,8099.27 311.164,191915 311.828,140959 312.492,23333.5 313.156,746.267 313.82,1063.88 314.484,1751.77 315.148,4437.98 315.812,614.105 316.476,1272.76 317.14,9801.81 317.804,6080.47 318.468,1292.53 319.132,47746.1 319.796,1128.39 320.46,40285.1 321.123,671.766 321.787,11328.3 322.451,98887.4 323.115,1.37975e+06 323.779,6568.59 324.443,1956.51 325.107,15264.9 325.771,11912.6 326.435,93105 327.099,2262.56 327.763,5843.33 328.427,11401.4 329.091,4863.48 329.755,26793.2 330.419,1025.55 331.083,584.815 331.746,278894 332.41,5771.41 333.074,1111.25 333.738,7114.22 334.402,1260.1 335.066,3272.16 335.73,984.714 336.394,9344.57 337.058,3466.94 337.722,6072.27 338.386,3989.21 339.05,14727 339.714,1652.78 340.378,1211.34 341.042,1084.25 341.706,2458.5 342.369,2982.53 343.033,19391.7 343.697,2474.01 344.361,1361.82 345.025,619732 345.689,1464.68 346.353,692.782 347.017,8416.81 347.681,2681.18 348.345,4.1943e+06 349.009,1097.77 349.673,46606.9 350.337,5479.07 351.001,3661.11 351.665,2140.24 352.329,2725.8 352.993,1723.14 353.656,2333.21 354.32,2087.75 354.984,847.007 355.648,41122.5 356.312,1739.26 356.976,1407.75 357.64,32624.9 358.304,770.751 358.968,4345.37 359.632,7105.17 360.296,1330.73 360.96,3907.23 361.624,816.214 362.288,2289.89 362.952,1680.84 363.616,1919.48 364.279,2274.94 364.943,1121.64 365.607,1224.64 366.271,1336.12 366.935,786.127 367.599,16989.7 368.263,3691.2 368.927,1415.9 369.591,2506.23 370.255,1640.42 370.919,31339.8 371.583,1507.87 372.247,3415.24 372.911,759.984 373.575,73930.9 374.239,1407.32 374.902,15045.4 375.566,1592.83 376.23,1412.32 376.894,11748.3 377.558,998.694 378.222,628.637 378.886,7375.95 379.55,1391.43 380.214,7017 380.878,27847.4 381.542,1738.42 382.206,47859.8 382.87,4431.01 383.534,794.221 384.198,1840.57 384.862,8401.19 385.526,5005.89 386.189,721.197 386.853,91444.1 387.517,694.146 388.181,1447.7 388.845,6440.33 389.509,1616.94 390.173,1136.45 390.837,1016.23 391.501,1988.7 392.165,867.625 392.829,10337.1 393.493,2398.23 394.157,1169.09 394.821,1.80926e+06 395.485,1106.15 396.149,962.973 396.812,1589.06 397.476,1610.5 398.14,9625.28 398.804,1188.71 399.468,2385.56 400.132,1759.32 400.796,662.198 401.46,973.766 402.124,2282.73 402.788,880.482 403.452,1077.24 404.116,5539.5 404.78,1139.43 405.444,825.973 406.108,1020.8 406.772,1479.79 407.435,972.548 408.099,857.874 408.763,1118.83 409.427,746.418 410.091,1605.22 410.755,1628.75 411.419,887.974 412.083,953.098 412.747,936.412 413.411,1346.45 414.075,1719.78 414.739,1371 415.403,93105.7 416.067,14827.8 416.731,1041.96 417.395,853.471 418.058,1687.19 418.722,515.109 419.386,1712.61 420.05,8755.92 420.714,4111.6 421.378,7890.15 422.042,573.34 422.706,3542.27 423.37,2295.28 424.034,3418.43 424.698,149249 425.362,2191.19 426.026,1570.93 426.69,1544.22 427.354,1469.47 428.018,1001.23 428.682,1510.31 429.345,980.598 430.009,1163.07 430.673,476.936 431.337,2648.15 432.001,3087.33 432.665,1355.73 433.329,5788.4 433.993,1707.69 434.657,2034.97 435.321,2148.08 435.985,2173.95 436.649,2385.24 437.313,2374.7 437.977,1663.29 438.641,2431.75 439.305,1643.46 439.968,6277.19 440.632,883.062 441.296,1271.7 441.96,4839.92 442.624,1599.73 443.288,2469.34 443.952,1512.6 444.616,1292.81 445.28,816.581 445.944,1169.73 446.608,1188.76 447.272,852.192 447.936,993.491 448.6,4709.5 449.264,1313.51 449.928,1316.82 450.591,1169.88 451.255,97299.7 451.919,3193.84 452.583,1533.07 453.247,993.755 453.911,1930.12 454.575,3104.9 455.239,1396.94 455.903,2045.91 456.567,5834.88 457.231,1177.41 457.895,892.615 458.559,949.303 459.223,5080.22 459.887,1751.95 460.551,47302.4 461.215,1028.88 461.878,1892.6 462.542,90071 463.206,765908 463.87,2094.36 464.534,2331.43 465.198,5509.58 465.862,1340.57 466.526,1197.17 467.19,959.744 467.854,771.889 468.518,2325.43 469.182,644.784 469.846,1507.58 470.51,1984.6 471.174,1992.18 471.838,1732.28 472.501,1050.37 473.165,1394.79 473.829,1174.76 474.493,3103.39 475.157,3921.3 475.821,6669.72 476.485,1012.32 477.149,1659.09 477.813,2102.79 478.477,1806.16 479.141,1995.3 479.805,653.494 480.469,1299.27 481.133,1009.47 481.797,1569.84 482.461,3595.55 483.124,1651.06 483.788,1474.83 484.452,1052.6 485.116,67203.1 485.78,2565.01 486.444,1452.16 487.108,1669.46 487.772,1064.15 488.436,782.393 489.1,1404.51 489.764,1309.95 490.428,2787.53 491.092,1869.12 491.756,972.859 492.42,1039.91 493.084,2331.87 493.748,1660.18 494.411,1120.68 495.075,8421.49 495.739,427.385 496.403,939.263 497.067,2271.02 497.731,888.33 498.395,889.629 499.059,1541.73 499.723,2984.68 500.387,943.411 501.051,1175.27 501.715,954.878 502.379,9443.87 503.043,744.402 503.707,1698.02 504.371,1350.17 505.034,1493.74 505.698,1192.3 506.362,2513.54 507.026,1045.93 507.69,3872.54 508.354,973.891 509.018,1233.3 509.682,1051.43 510.346,968.768 511.01,665.554 511.674,1838.38 512.338,978.943 513.002,1742.4 513.666,1113.16 514.33,825.277 514.994,1344.19 515.657,7467.56 516.321,2911.22 516.985,1556.07 517.649,5699.87 518.313,3865.8 518.977,891.428 519.641,1477.43 520.305,2205.66 520.969,1674.6 521.633,907.676 522.297,2228.34 522.961,8438.33 523.625,959.209 524.289,1158 524.953,846.563 525.617,1392.96 526.281,1796.54 526.944,1017.17 527.608,4021.95 528.272,814.909 528.936,1162.17 529.6,2042.64 530.264,1152.78 530.928,618.682 531.592,2447.68 532.256,1354.78 532.92,171.779 533.584,2327.51 534.248,2031.74 534.912,4161.62 535.576,871.018 536.24,2646.71 536.904,1442.29 537.567,693.72 538.231,759.619 538.895,22310.9 539.559,935.269 540.223,912.634 540.887,4329.33 541.551,2154.71 542.215,926.036 542.879,1080.77 543.543,1139.94 544.207,3608.42 544.871,2280.88 545.535,1508.55 546.199,1360.86 546.863,1498.66 547.527,14392.7 548.19,1903.98 548.854,6225.01 549.518,176699 550.182,2632.67 550.846,979.23 551.51,947.467 552.174,752.684 552.838,4196.03 553.502,3663.04 554.166,363293 554.83,1507.87 555.494,1103.91 556.158,2247.29 556.822,910.748 557.486,956.829 558.15,2861.41 558.813,854.686 559.477,2011.63 560.141,947.278 560.805,2252.1 561.469,1392.92 562.133,751.208 562.797,32500.5 563.461,1291.24 564.125,867.287 564.789,1023.58 565.453,3981.34 566.117,1139.36 566.781,30103.6 567.445,1705.36 568.109,1596.21 568.773,1296.26 569.437,953.62 570.1,1032.23 570.764,1319.4 571.428,641.574 572.092,1371.23 572.756,1196.57 573.42,1766.13 574.084,1756.06 574.748,2180.89 575.412,2008.19 576.076,1945.07 576.74,1112.82 577.404,1168.07 578.068,647.657 578.732,1621.97 579.396,1143.91 580.06,1244.21 580.723,1941.06 581.387,1026.03 582.051,1226.68 582.715,1367.08 583.379,1879.6 584.043,803.361 584.707,1369.24 585.371,1583.6 586.035,1479.59 586.699,1292.24 587.363,772.895 588.027,1135.94 588.691,5436.57 589.355,3589.65 590.019,1219.79 590.683,1172.58 591.346,2414.25 592.01,2126.54 592.674,2138.45 593.338,19183.5 594.002,56512.8 594.666,681.384 595.33,2226.7 595.994,3854.13 596.658,1569.01 597.322,702.59 597.986,4491.33 598.65,1841.59 599.314,1496.87 599.978,940.587 600.642,4855.04 601.306,863.187 601.97,5898.97 602.633,860.045 603.297,1680.84 603.961,752.965 604.625,2714.28 605.289,2135.07 605.953,643.162 606.617,870.557 607.281,881.706 607.945,1987.16 608.609,883.507 609.273,2703.62 609.937,2938.61 610.601,2028.72 611.265,2090.71 611.929,1271.22 612.593,1237.98 613.256,1018.44 613.92,22088.2 614.584,897.229 615.248,3392.67 615.912,2684.47 616.576,2227.79 617.24,585.087 617.904,5223.17 618.568,1227.65 619.232,289.628 619.896,871.884 620.56,698.21 621.224,557.031 621.888,725.898 622.552,2786.05 623.216,5508.47 623.879,3038.65 624.543,1177.61 625.207,942.502 625.871,2260.34 626.535,533.23 627.199,6490.31 627.863,1008.01 628.527,1211.7 629.191,637.694 629.855,3676.54 630.519,1420.97 631.183,5024.2 631.847,1468.84 632.511,1199.88 633.175,1304.32 633.839,1967.02 634.503,1542.46 635.166,1478.62 635.83,586.288 636.494,1010.8 637.158,824.321 637.822,6414.38 638.486,4198.02 639.15,2705.67 639.814,1399.87 640.478,1625.75 641.142,1451.4 641.806,3446.4 642.47,4878.82 643.134,1158.46 643.798,3544.64 644.462,3912.59 645.126,19846.3 645.789,1387.03 646.453,1472.12 647.117,486.254 647.781,1296.93 648.445,943.146 649.109,493.299 649.773,2974.56 650.437,1080 651.101,2015.77 651.765,1066.08 652.429,966.013 653.093,1800.98 653.757,848.675 654.421,3079.28 655.085,2770.41 655.749,1325.15 656.412,792.788 657.076,1145.21 657.74,1877.7 658.404,631.936 659.068,1865.37 659.732,1681.63 660.396,870.752 661.06,1233.08 661.724,1817.49 662.388,1083.29 663.052,808.007 663.716,9238.51 664.38,2028.35 665.044,1090.08 665.708,10586.3 666.372,4981 667.036,1043.49 667.699,5036.27 668.363,1977.14 669.027,1485.07 669.691,1571.51 670.355,4165.96 671.019,927.788 671.683,2828.81 672.347,1217.7 673.011,1163.23 673.675,2150.41 674.339,2982.45 675.003,2219.59 675.667,1154.14 676.331,907.93 676.995,1118.11 677.659,2461.03 678.322,1535.56 678.986,1065.54 679.65,4213.83 680.314,969.651 680.978,1877.33 681.642,638.272 682.306,1105.92 682.97,2366.59 683.634,9010.94 684.298,1406.31 684.962,2238.86 685.626,1990.41 686.29,998.417 686.954,2784.6 687.618,24018 688.282,1221.83 688.945,1112.24 689.609,1500.77 690.273,6743.77 690.937,1175 691.601,1527.06 692.265,864.152 692.929,2270.89 693.593,984.689 694.257,2469.08 694.921,1454.31 695.585,24741.4 696.249,1378.69 696.913,1106.99 697.577,1718.46 698.241,884.745 698.905,648.38 699.569,5280.35 700.232,4466.01 700.896,1576.98 701.56,1124.57 702.224,926.174 702.888,1307.04 703.552,905.151 704.216,1120.47 704.88,1364.86 705.544,1134.57 706.208,1376.09 706.872,1038.09 707.536,1373.11 708.2,1823.5 708.864,1332.48 709.528,2031.12 710.192,3831.75 710.855,1458.02 711.519,1259.78 712.183,557.705 712.847,2982.02 713.511,1164.97 714.175,3546.78 714.839,1165.97 715.503,1295.63 716.167,1233.62 716.831,1497.35 717.495,2512.29 718.159,2596.82 718.823,1067.4 719.487,1401.7 720.151,2150.32 720.815,1122.45 721.478,1378.39 722.142,1429.87 722.806,275.349 723.47,892.541 724.134,1136.05 724.798,1795 725.462,758.393 726.126,873.061 726.79,600.275 727.454,1637.34 728.118,2194.1 728.782,5380.84 729.446,11509.4 730.11,1929.64 730.774,2718.86 731.438,673.485 732.101,1504.33 732.765,3406.53 733.429,1417.42 734.093,1182.6 734.757,712.57 735.421,930.598 736.085,15751.4 736.749,3959.76 737.413,774.676 738.077,1080.44 738.741,769.185 739.405,2425.91 740.069,12715 740.733,2297.13 741.397,758.84 742.061,2535.94 742.725,2797.09 743.388,681.934 744.052,665.371 744.716,977.789 745.38,1068.03 746.044,4886.67 746.708,1497.15 747.372,2532.27 748.036,1786.87 748.7,4771.61 749.364,1619.46 750.028,4214.67 750.692,2927.88 751.356,1542.72 752.02,684.574 752.684,1174.47 753.348,1453.89 754.011,3125.49 754.675,1162.38 755.339,1977.43 756.003,1230.23 756.667,3259.66 757.331,1909.41 757.995,1773.74 758.659,21078.5 759.323,2158.97 759.987,1413.07 760.651,2388.98 761.315,1930.92 761.979,527.411 762.643,566.807 763.307,1612.23 763.971,864.987 764.634,6802 765.298,2718.45 765.962,3572.29 766.626,2596.82 767.29,1890.13 767.954,951.513 768.618,7847.65 769.282,1134.68 769.946,876.565 770.61,3197.5 771.274,1366.34 771.938,4609.31 772.602,1302.46 773.266,412.426 773.93,1305.2 774.594,1086.28 775.258,7925.56 775.921,715.267 776.585,728.09 777.249,11099.4 777.913,4736.21 778.577,2134.78 779.241,729.138 779.905,2618.92 780.569,1388.38 781.233,1419.16 781.897,1015.95 782.561,5624.3 783.225,998.496 783.889,3346.66 784.553,4806.12 785.217,1483.68 785.881,1706.61 786.544,2474.71 787.208,1723.61 787.872,13194.3 788.536,1368.25 789.2,985.304 789.864,4767.31 790.528,1838.11 791.192,1722.16 791.856,1880.38 792.52,1301.45 793.184,829.424 793.848,1353.91 794.512,1275.87 795.176,1506.14 795.84,733.249 796.504,595.826 797.167,1599.82 797.831,958.18 798.495,1553.94 799.159,1717.65 799.823,19776.5 800.487,2484.75 801.151,897.5 801.815,996.355 802.479,906.039 803.143,904.313 803.807,3612.83 804.471,4019.83 805.135,1491.67 805.799,1073.61 806.463,843.316 807.127,679.029 807.791,884.71 808.454,1422.59 809.118,905.5 809.782,1218.05 810.446,1324.62 811.11,1274.82 811.774,1271.68 812.438,1235.68 813.102,559.192 813.766,1484.85 814.43,847.618 815.094,930.267 815.758,1084.36 816.422,1341.28 817.086,1162.65 817.75,16197.7 818.414,1262.7 819.077,1048.77 819.741,1915.05 820.405,3345.56 821.069,798.987 821.733,1202.27 822.397,2582.56 823.061,1130.27 823.725,991.557 824.389,517.688 825.053,1236.19 825.717,722.357 826.381,1515.16 827.045,1589.41 827.709,1627.95 828.373,1348.6 829.037,1238.96 829.7,3814.31 830.364,798.435 831.028,3345.57 831.692,724.374 832.356,1618.59 833.02,3750.84 833.684,1536.13 834.348,2139.8 835.012,2080.78 835.676,754.759 836.34,784.103 837.004,1743.19 837.668,3324.11 838.332,1453.25 838.996,2920.14 839.66,2764.27 840.324,1950 840.987,794.428 841.651,1905.94 842.315,1013.34 842.979,2043.87 843.643,3929.28 844.307,891.772 844.971,1355.65 845.635,1427.14 846.299,1383.85 846.963,3455.03 847.627,692.301 848.291,1238.71 848.955,1060.72 849.619,885.532 850.283,624.34 850.947,701.548 851.61,1231.89 852.274,6829.25 852.938,27889.3 853.602,1384.82 854.266,1884.4 854.93,1133.59 855.594,752.827 856.258,957.343 856.922,3693.87 857.586,642.816 858.25,855.807 858.914,1046.74 859.578,1194.12 860.242,901.75 860.906,7589.85 861.57,7355.48 862.233,1141.45 862.897,830.923 863.561,2350.42 864.225,827.134 864.889,1.03777e+06 865.553,1219.01 866.217,1523.36 866.881,1633.28 867.545,2304.04 868.209,907.549 868.873,645.166 869.537,845.319 870.201,107597 870.865,1870.44 871.529,1978.55 872.193,1137.8 872.856,1049.15 873.52,805.036 874.184,1212.83 874.848,908.609 875.512,1067.48 876.176,1732.28 876.84,931.255 877.504,692.334 878.168,2146.86 878.832,1197.65 879.496,1406.13 880.16,2183.26 880.824,6396.84 881.488,1029.28 882.152,1003.79 882.816,2459.47 883.48,2733.14 884.143,966.892 884.807,708.789 885.471,2937.96 886.135,705.908 886.799,1065.44 887.463,1155.81 888.127,2666.31 888.791,5459.31 889.455,1186.19 890.119,2208.26 890.783,723.19 891.447,1015.88 892.111,1878.82 892.775,973.582 893.439,880.75 894.103,1150.64 894.766,1425.97 895.43,948.682 896.094,1546.67 896.758,2784.84 897.422,724.379 898.086,463.688 898.75,4169.04 899.414,1311.05 900.078,1885.26 900.742,682.569 901.406,527.68 902.07,2281.67 902.734,2065.5 903.398,1194.69 904.062,2444.54 904.726,540.103 905.389,899.398 906.053,1059.33 906.717,835.885 907.381,850.368 908.045,1408.39 908.709,1574.45 909.373,1051.62 910.037,3428.04 910.701,1007.53 911.365,835.609 912.029,809.297 912.693,1825.08 913.357,7184.9 914.021,748.762 914.685,763.855 915.349,1430.54 916.013,1691.46 916.676,3080.08 917.34,2493.46 918.004,2687.13 918.668,1585.12 919.332,1112.5 919.996,1128.91 920.66,1235.34 921.324,762.909 921.988,526.388 922.652,2266.69 923.316,570.443 923.98,1105.57 924.644,3083.73 925.308,957.937 925.972,1681.43 926.636,1220.17 927.299,1526.77 927.963,1112.47 928.627,999.417 929.291,1264.71 929.955,1605.16 930.619,1518.47 931.283,716.199 931.947,83503.5 932.611,2036.41 933.275,1616.76 933.939,744.826 934.603,839.337 935.267,1368.71 935.931,796.248 936.595,707.487 937.259,8082.52 937.922,1339.18 938.586,5107.56 939.25,2992.86 939.914,1046.4 940.578,726.865 941.242,5062.71 941.906,838.103 942.57,1569.26 943.234,876.65 943.898,1883.05 944.562,1064.43 945.226,1545.14 945.89,2491.49 946.554,1125.15 947.218,1706.39 947.882,1311.96 948.546,10674 949.209,1891.02 949.873,807.61 950.537,461.737 951.201,1902.31 951.865,1939.76 952.529,1132.52 953.193,1115.83 953.857,1292.47 954.521,1924.33 955.185,1432.72 955.849,566.559 956.513,1699.76 957.177,1261.74 957.841,923.048 958.505,1418.27 959.169,1475.38 959.832,1390.17 960.496,1139.14 961.16,1327.45 961.824,1683.94 962.488,2293.72 963.152,911.558 963.816,1470.26 964.48,1847.12 965.144,1614.2 965.808,1181.53 966.472,1176.22 967.136,677.556 967.8,767.604 968.464,1394.19 969.128,3171.82 969.792,1424.93 970.455,1166.39 971.119,1317.61 971.783,1707 972.447,5765.99 973.111,1526.79 973.775,1250.9 974.439,4033.95 975.103,977.432 975.767,1005.26 976.431,2235.73 977.095,990.235 977.759,1571.39 978.423,1107.68 979.087,797.935 979.751,1387.26 980.415,753.355 981.079,1208.44 981.742,1115.94 982.406,1117.91 983.07,3487.23 983.734,2248.41 984.398,21283 985.062,985.534 985.726,4295.81 986.39,1766.48 987.054,496.064 987.718,1588.92 988.382,1424.64 989.046,1722.21 989.71,1406.8 990.374,15056.4 991.038,1236.22 991.702,1414.18 992.365,1599.53 993.029,946.887 993.693,834.438 994.357,1829.88 995.021,1102.47 995.685,1218.28 996.349,1067.09 997.013,965.454 997.677,1061.93 998.341,1656.56 999.005,1140.31 999.669,1927.94 1000.33,894.553 1001,724.166 1001.66,3638.73 1002.32,1548.31 1002.99,1923.63 1003.65,1217.72 1004.32,965.7 1004.98,888.337 1005.64,4989.27 1006.31,4120.02 1006.97,1048.23 1007.64,1135.76 1008.3,995.801 1008.96,2230.15 1009.63,1205.79 1010.29,1403.82 1010.96,988.792 1011.62,1930.18 1012.28,1098.15 1012.95,1072.28 1013.61,1523.06 1014.28,1154.18 1014.94,1573.19 1015.6,1636.98 1016.27,565.174 1016.93,1618.14 1017.6,906.539 1018.26,2476.22 1018.92,1334.94 1019.59,1013.72 1020.25,1498.49 1020.91,933.127 1021.58,360.272 1022.24,1792.35 1022.91,1174.02 1023.57,2950.8 1024.23,826.449 1024.9,2147.74 1025.56,1791.42 1026.23,681.12 1026.89,1279.81 1027.55,1139.56 1028.22,1853.49 1028.88,907.695 1029.55,2035.53 1030.21,1712.44 1030.87,1195.98 1031.54,993.588 1032.2,845.608 1032.87,2444.52 1033.53,1376.77 1034.19,862.525 1034.86,944.314 1035.52,1153.83 1036.19,1317.32 1036.85,739.235 1037.51,1803.68 1038.18,2671.65 1038.84,1719.12 1039.51,1808.57 1040.17,1226.38 1040.83,1282.57 1041.5,912.103 1042.16,1040.03 1042.82,3805.58 1043.49,10997.7 1044.15,2233.05 1044.82,3171.86 1045.48,1279.22 1046.14,1175.66 1046.81,839.972 1047.47,1513.29 1048.14,2028.72 1048.8,626.579 1049.46,1907.88 1050.13,1918.23 1050.79,1056.6 1051.46,1479.05 1052.12,1382.75 1052.78,819.672 1053.45,588.947 1054.11,1585.06 1054.78,985.523 1055.44,638.097 1056.1,847.325 1056.77,771.064 1057.43,831.242 1058.1,1278.76 1058.76,903.078 1059.42,1754.1 1060.09,940.749 1060.75,850.027 1061.42,1747.94 1062.08,1726.51 1062.74,1014.37 1063.41,1047.16 1064.07,2300.29 1064.73,1567.39 1065.4,2503.19 1066.06,614.874 1066.73,722.253 1067.39,1599.81 1068.05,1246.79 1068.72,954.834 1069.38,2256.54 1070.05,1476.43 1070.71,1018.77 1071.37,953.001 1072.04,4740.14 1072.7,1389.99 1073.37,882.119 1074.03,445.757 1074.69,10895.4 1075.36,1334.79 1076.02,1053.31 1076.69,1031.94 1077.35,1167.88 1078.01,1572.15 1078.68,5395.55 1079.34,2013.57 1080.01,981.061 1080.67,1544.84 1081.33,2142.2 1082,1045.51 1082.66,2561.08 1083.33,1550.12 1083.99,3658.2 1084.65,2598.78 1085.32,606.245 1085.98,2247.92 1086.64,676.351 1087.31,1097.01 1087.97,2154.25 1088.64,1428.26 1089.3,2182.16 1089.96,1390.31 1090.63,1512.02 1091.29,1223.02 1091.96,1516.01 1092.62,792.023 1093.28,794.594 1093.95,1196.97 1094.61,349.574 1095.28,989.354 1095.94,2361.59 1096.6,1449.68 1097.27,851.251 1097.93,2637.25 1098.6,2886.61 1099.26,2379.98 1099.92,1127.19 1100.59,1287.11 1101.25,888.242 1101.92,1088.46 1102.58,2100.14 1103.24,154.829 1103.91,1422.41 1104.57,1233.34 1105.24,1175.53 1105.9,671.689 1106.56,1223.29 1107.23,915.199 1107.89,3421.98 1108.55,768.525 1109.22,814.284 1109.88,1962.1 1110.55,1669.36 1111.21,1268.25 1111.87,749.959 1112.54,2685.44 1113.2,1151.71 1113.87,1310.27 1114.53,751.693 1115.19,1005.34 1115.86,3399.56 1116.52,22009.6 1117.19,782.998 1117.85,1142.95 1118.51,1134.42 1119.18,728.313 1119.84,3574.57 1120.51,924.753 1121.17,885.83 1121.83,2328.26 1122.5,1288.62 1123.16,1364.16 1123.83,1178.29 1124.49,1305.19 1125.15,1551.04 1125.82,621.45 1126.48,1181.13 1127.15,1263.36 1127.81,1867.05 1128.47,3547.93 1129.14,3133.43 1129.8,880.253 1130.46,1435.53 1131.13,2823.51 1131.79,1529.95 1132.46,707.962 1133.12,11023.2 1133.78,1043.23 1134.45,1799.71 1135.11,2958.48 1135.78,537.587 1136.44,3416.2 1137.1,1271.95 1137.77,1026.01 1138.43,1334.25 1139.1,1098.32 1139.76,5973.34 1140.42,713.558 1141.09,1811.88 1141.75,1465.02 1142.42,862.561 1143.08,1613.11 1143.74,889.841 1144.41,1118.32 1145.07,1493.73 1145.74,3095.11 1146.4,2906 1147.06,626.306 1147.73,3175.44 1148.39,1005.55 1149.05,5088.76 1149.72,1917.4 1150.38,1193.77 1151.05,1322.47 1151.71,861.046 1152.37,3994.61 1153.04,1177.62 1153.7,615.158 1154.37,876.197 1155.03,2056.12 1155.69,1241.75 1156.36,1496.55 1157.02,1012.22 1157.69,2568.61 1158.35,2104.94 1159.01,1883.21 1159.68,1301.78 1160.34,588.226 1161.01,1695.44 1161.67,1415.67 1162.33,3018.11 1163,1641.72 1163.66,5204.68 1164.33,455.297 1164.99,2404.63 1165.65,1066.05 1166.32,1599.96 1166.98,3781.67 1167.65,1934.96 1168.31,1382.64 1168.97,1228.62 1169.64,3171.95 1170.3,1017.59 1170.96,1095.22 1171.63,2148.19 1172.29,1134.77 1172.96,691.818 1173.62,914.006 1174.28,1176.24 1174.95,548.299 1175.61,20135.4 1176.28,1543.98 1176.94,917.974 1177.6,1975.37 1178.27,933.1 1178.93,562.088 1179.6,1354.24 1180.26,852.267 1180.92,973.237 1181.59,1184.32 1182.25,1004.87 1182.92,4818.36 1183.58,2113.48 1184.24,1093.67 1184.91,2024.86 1185.57,649.399 1186.24,1175.87 1186.9,718.258 1187.56,1591.32 1188.23,609.885 1188.89,1197.11 1189.56,595.589 1190.22,1023.57 1190.88,932.514 1191.55,1216.34 1192.21,1200.98 1192.87,2497.84 1193.54,1437.65 1194.2,1225.08 1194.87,2521.22 1195.53,701.417 1196.19,1599.65 1196.86,1257.51 1197.52,5186.55 1198.19,1541.58 1198.85,1200.65 1199.51,1816.25 1200.18,1372.1 1200.84,1112.97 1201.51,2599.75 1202.17,1272.68 1202.83,2595.94 1203.5,1478.06 1204.16,522.897 1204.83,1016.79 1205.49,1250.8 1206.15,5784.01 1206.82,1527.77 1207.48,1381.46 1208.15,2226.03 1208.81,1521.4 1209.47,1571.2 1210.14,842.747 1210.8,3804.57 1211.47,2848.11 1212.13,3154.79 1212.79,912.901 1213.46,1341.87 1214.12,1344.51 1214.78,1004.15 1215.45,740.366 1216.11,1948.97 1216.78,1190.27 1217.44,2263.74 1218.1,4156.82 1218.77,685.34 1219.43,1370.4 1220.1,1571.42 1220.76,827.719 1221.42,2543.43 1222.09,1537.65 1222.75,839.874 1223.42,1246.17 1224.08,1652.59 1224.74,712.133 1225.41,1444.44 1226.07,877.441 1226.74,1284.43 1227.4,2045.78 1228.06,1385.89 1228.73,916.391 1229.39,2442.79 1230.06,664.174 1230.72,6557.36 1231.38,743.146 1232.05,889.882 1232.71,546.893 1233.38,1343.53 1234.04,672.255 1234.7,1072.4 1235.37,957.667 1236.03,1616.86 1236.69,1161.14 1237.36,1406.96 1238.02,915.855 1238.69,1598.07 1239.35,1153.69 1240.01,1021.85 1240.68,1080.34 1241.34,1663.39 1242.01,1122.12 1242.67,1589.65 1243.33,3350.91 1244,763.228 1244.66,1515.14 1245.33,3394.34 1245.99,2070.19 1246.65,477.231 1247.32,1073.4 1247.98,1139.78 1248.65,1445.92 1249.31,1017.27 1249.97,1998.65 1250.64,1318.05 1251.3,1585.25 1251.97,682.276 1252.63,958.4 1253.29,891.732 1253.96,1389.11 1254.62,1428.38 1255.29,512.541 1255.95,4197.55 1256.61,1003.75 1257.28,1715.34 1257.94,869.267 1258.6,937.691 1259.27,597.841 1259.93,1705.08 1260.6,2998.8 1261.26,766.467 1261.92,1256.81 1262.59,1159.37 1263.25,2684.96 1263.92,693.777 1264.58,3254.19 1265.24,739.092 1265.91,1441.09 1266.57,302646 1267.24,1661.85 1267.9,1267.08 1268.56,2337.18 1269.23,1025.3 1269.89,2100.42 1270.56,498.273 1271.22,622.859 1271.88,940.432 1272.55,2402.88 1273.21,840.155 1273.88,1133.04 1274.54,1706.01 1275.2,1339.53 1275.87,1528.54 1276.53,2806.46 1277.2,1584.45 1277.86,2088.44 1278.52,1265.43 1279.19,964.685 1279.85,499.802 1280.51,1604.89 1281.18,744.477 1281.84,3136.71 1282.51,870.866 1283.17,1223.95 1283.83,440.622 1284.5,2109.07 1285.16,1287.57 1285.83,1150.1 1286.49,1779.06 1287.15,1184.62 1287.82,897.628 1288.48,814.628 1289.15,1467 1289.81,1704.87 1290.47,1013.61 1291.14,2669.4 1291.8,1282.43 1292.47,671.11 1293.13,614.121 1293.79,8092.73 1294.46,1011.32 1295.12,1086.34 1295.79,1138.17 1296.45,701.621 1297.11,1092.77 1297.78,1088.93 1298.44,1754.04 1299.11,1161.97 1299.77,1879.64 1300.43,877.754 1301.1,1292.58 1301.76,1862.14 1302.42,844.119 1303.09,1581.79 1303.75,648.985 1304.42,1018.73 1305.08,1757.21 1305.74,850.651 1306.41,567.432 1307.07,893.508 1307.74,1388.67 1308.4,579.81 1309.06,962.482 1309.73,793.327 1310.39,1787.44 1311.06,2097.86 1311.72,1761.42 1312.38,2945.91 1313.05,1657.03 1313.71,1007.24 1314.38,575.23 1315.04,1952.5 1315.7,1344.99 1316.37,1780.69 1317.03,1003.98 1317.7,1187.56 1318.36,954.836 1319.02,513.866 1319.69,1964.62 1320.35,832.414 1321.02,932.785 1321.68,955.566 1322.34,1103.18 1323.01,1254.42 1323.67,686.738 1324.33,1115.76 1325,1069.5 1325.66,698.142 1326.33,256.988 1326.99,2405.65 1327.65,2370.13 1328.32,1448.22 1328.98,1235.21 1329.65,799.984 1330.31,762.751 1330.97,1171.92 1331.64,1707.12 1332.3,1205.54 1332.97,714.495 1333.63,1565.49 1334.29,1196.29 1334.96,2471.76 1335.62,2537.8 1336.29,1045.47 1336.95,736.046 1337.61,995.718 1338.28,2285.25 1338.94,1529.97 1339.61,1236.74 1340.27,679.591 1340.93,882.122 1341.6,3381.98 1342.26,1652.04 1342.93,1157.51 1343.59,1355.66 1344.25,4529.37 1344.92,1172.77 1345.58,2444.47 1346.24,2182.07 1346.91,624.783 1347.57,1074.08 1348.24,1297.42 1348.9,879.515 1349.56,1740.57 1350.23,957.75 1350.89,3941.45 1351.56,2288.63 1352.22,2319.08 1352.88,644.966 1353.55,1018.9 1354.21,934.655 1354.88,1261.38 1355.54,1211.97 1356.2,5086.97 1356.87,911.356 1357.53,1888 1358.2,1226.94 1358.86,1019.03 1359.52,590.904 1360.19,2094.49 1360.85,2485.37 1361.52,1816.12 1362.18,596.433 1362.84,1591.75 1363.51,945.878 1364.17,952.721 1364.84,1117.5 1365.5,1012.13 1366.16,1134.35 1366.83,952.244 1367.49,927.203 1368.15,2744.14 1368.82,1397.93 1369.48,957.843 1370.15,1736.35 1370.81,2223.22 1371.47,773.673 1372.14,576.897 1372.8,889.371 1373.47,963.61 1374.13,3294.69 1374.79,10850.1 1375.46,1903.22 1376.12,1380.76 1376.79,1031.57 1377.45,226.216 1378.11,2831.41 1378.78,712.215 1379.44,747.682 1380.11,840.843 1380.77,1387.7 1381.43,1798.49 1382.1,1126.42 1382.76,749.174 1383.43,893.815 1384.09,793.685 1384.75,1019.03 1385.42,1182.52 1386.08,1889.05 1386.75,2096.66 1387.41,1497.55 1388.07,1611.93 1388.74,733.873 1389.4,898.787 1390.06,2901.42 1390.73,874.302 1391.39,2692.33 1392.06,645.546 1392.72,1053.27 1393.38,799.669 1394.05,908.276 1394.71,1037.44 1395.38,1032.68 1396.04,1906.67 1396.7,1084.41 1397.37,1118.32 1398.03,1697.41 1398.7,1220.57 1399.36,1121.52 1400.02,1234.24 1400.69,1635.53 1401.35,382.037 1402.02,990.009 1402.68,1868.07 1403.34,1317.85 1404.01,799.73 1404.67,3225.67 1405.34,876.662 1406,1093.54 1406.66,1254.51 1407.33,1815.79 1407.99,1255.51 1408.66,1592.87 1409.32,764.491 1409.98,1580.91 1410.65,2422.31 1411.31,5815.26 1411.97,1450.21 1412.64,1481.22 1413.3,961.36 1413.97,832.121 1414.63,1129.23 1415.29,565.408 1415.96,1215.34 1416.62,824.001 1417.29,635.635 1417.95,1175.61 1418.61,1016.15 1419.28,729.854 1419.94,2022.17 1420.61,1847.84 1421.27,4750.32 1421.93,6447.63 1422.6,504.787 1423.26,310.323 1423.93,1691.62 1424.59,2119.41 1425.25,716.822 1425.92,2228.59 1426.58,537.472 1427.25,1139.27 1427.91,1528.07 1428.57,867.449 1429.24,669.12 1429.9,9147.26 1430.56,1964.39 1431.23,1273.21 1431.89,951.809 1432.56,1484.02 1433.22,1176.07 1433.88,1436.59 1434.55,1005.37 1435.21,1270.84 1435.88,971.501 1436.54,1485.71 1437.2,1392.11 1437.87,1617.87 1438.53,562.601 1439.2,1110.46 1439.86,1971.33 1440.52,3606.56 1441.19,1155.19 1441.85,990.993 1442.52,1241.94 1443.18,1456.09 1443.84,785.752 1444.51,719.524 1445.17,6023.26 1445.84,948.588 1446.5,1728.15 1447.16,1446.23 1447.83,1092.62 1448.49,1066.1 1449.16,1685.74 1449.82,2012.55 1450.48,2443.71 1451.15,1277.29 1451.81,1066.95 1452.47,2332.28 1453.14,1173.07 1453.8,890.372 1454.47,1234.99 1455.13,1421.08 1455.79,2552.76 1456.46,803.273 1457.12,1031.02 1457.79,7523.69 1458.45,1132.5 1459.11,2859.79 1459.78,1540.97 1460.44,902.746 1461.11,1300.84 1461.77,729.685 1462.43,1037.03 1463.1,1209.69 1463.76,1259.61 1464.43,1166.07 1465.09,931.53 1465.75,924.285 1466.42,1374.8 1467.08,425.284 1467.75,986.039 1468.41,1762.63 1469.07,786.755 1469.74,2187.66 1470.4,1029.12 1471.07,2575.24 1471.73,1158.3 1472.39,2863.16 1473.06,574.595 1473.72,783.719 1474.38,1428.05 1475.05,984.927 1475.71,888.316 1476.38,1163.29 1477.04,995.21 1477.7,800.828 1478.37,1692.63 1479.03,1112.31 1479.7,2573.3 1480.36,1012.11 1481.02,3261.76 1481.69,2402.37 1482.35,1180.01 1483.02,854.173 1483.68,1249.1 1484.34,959.631 1485.01,883.019 1485.67,4854.36 1486.34,1177.57 1487,722.81 1487.66,1496.3 1488.33,795.028 1488.99,1506.78 1489.66,1078.1 1490.32,907.716 1490.98,2207.14 1491.65,1078.38 1492.31,1915.24 1492.98,1736.34 1493.64,1499.43 1494.3,1043.97 1494.97,718.202 1495.63,842.394 1496.29,767.096 1496.96,703.701 1497.62,2068.25 1498.29,1162.52 1498.95,758.215 1499.61,835.295 1500.28,815.279 1500.94,596.452 1501.61,1053.68 1502.27,747.755 1502.93,950.662 1503.6,1944.9 1504.26,1126.93 1504.93,1005.58 1505.59,3529.82 1506.25,1664.79 1506.92,1653.77 1507.58,2785.42 1508.25,1506.41 1508.91,1707.49 1509.57,700.848 1510.24,1038.44 1510.9,884.376 1511.57,1101.69 1512.23,1213.72 1512.89,804.5 1513.56,1242.86 1514.22,1063.64 1514.89,908.764 1515.55,684.054 1516.21,596.445 1516.88,1069.46 1517.54,1345.23 1518.2,1273.33 1518.87,1488.46 1519.53,7676.8 1520.2,858.056 1520.86,946.625 1521.52,2283.29 1522.19,1536.75 1522.85,1045.21 1523.52,5145.48 1524.18,2372.9 1524.84,6164.71 1525.51,914.824 1526.17,1048.06 1526.84,1077.64 1527.5,1080.08 1528.16,2737.94 1528.83,1646.97 1529.49,767.862 1530.16,819.037 1530.82,1260.91 1531.48,1338.09 1532.15,988.663 1532.81,1253.86 1533.48,850.295 1534.14,1367.41 1534.8,1120.89 1535.47,1556.51 1536.13,1066.61 1536.8,1100.41 1537.46,1610.87 1538.12,1478.8 1538.79,797.921 1539.45,936.365 1540.11,1243.68 1540.78,1579.95 1541.44,3847.75 1542.11,1159.25 1542.77,1468.43 1543.43,3515.73 1544.1,1015.75 1544.76,141972 1545.43,3864.67 1546.09,1871.43 1546.75,1442.72 1547.42,1096.58 1548.08,991.446 1548.75,1219.63 1549.41,7303.92 1550.07,882.458 1550.74,1780.43 1551.4,1170.79 1552.07,1137.63 1552.73,988.82 1553.39,1671.61 1554.06,862.256 1554.72,793.732 1555.39,1246.03 1556.05,1280.25 1556.71,2000.34 1557.38,740.019 1558.04,776.986 1558.71,3496.49 1559.37,1173.57 1560.03,882.615 1560.7,2548.14 1561.36,1513.85 1562.02,1735.69 1562.69,1914.51 1563.35,1087.14 1564.02,1179.81 1564.68,874.911 1565.34,1077.24 1566.01,907.998 1566.67,1084.23 1567.34,1610.69 1568,4637.53 1568.66,1354.84 1569.33,1352.83 1569.99,1008.61 1570.66,1981.86 1571.32,1000.93 1571.98,4327.25 1572.65,1344.75 1573.31,1136.4 1573.98,6885 1574.64,1126.51 1575.3,1133.18 1575.97,1774.57 1576.63,3135.87 1577.3,667.026 1577.96,3865.49 1578.62,2646.12 1579.29,836.294 1579.95,1322.46 1580.62,1331.8 1581.28,1251.05 1581.94,1040.86 1582.61,1641.1 1583.27,1041.92 1583.93,696.451 1584.6,4560.13 1585.26,900.28 1585.93,2147.18 1586.59,963.202 1587.25,946.365 1587.92,1806.84 1588.58,747.446 1589.25,732.276 1589.91,1097.75 1590.57,1487.89 1591.24,2380.5 1591.9,987.409 1592.57,918.233 1593.23,1460.55 1593.89,1296.16 1594.56,2018.73 1595.22,943.684 1595.89,2053.31 1596.55,1616.99 1597.21,1686.83 1597.88,927.617 1598.54,1483.54 1599.21,1269.81 1599.87,3352.86 1600.53,1102.97 1601.2,965.036 1601.86,1430.09 1602.53,2439.86 1603.19,1161.75 1603.85,4648.47 1604.52,619.918 1605.18,997.148 1605.84,1401.13 1606.51,1597.83 1607.17,1607.15 1607.84,1688.45 1608.5,588.808 1609.16,926.606 1609.83,18974.6 1610.49,819.206 1611.16,1384.45 1611.82,1295.15 1612.48,766.984 1613.15,2075.78 1613.81,1048.84 1614.48,15387.7 1615.14,1991.67 1615.8,1089.47 1616.47,797.707 1617.13,645.761 1617.8,3629.91 1618.46,1987.94 1619.12,989.984 1619.79,1186.04 1620.45,2551.21 1621.12,1398.32 1621.78,1223.66 1622.44,2642.76 1623.11,1104.41 1623.77,340.833 1624.44,1531.04 1625.1,1952.77 1625.76,1071.02 1626.43,867.847 1627.09,1231.75 1627.75,1091.04 1628.42,1897.36 1629.08,784.548 1629.75,1141.58 1630.41,1303.85 1631.07,1136.26 1631.74,962.25 1632.4,979.625 1633.07,1130.64 1633.73,929.941 1634.39,683.041 1635.06,1575.32 1635.72,47.2441 1636.39,1862.75 1637.05,727.624 1637.71,833.961 1638.38,1088.46 1639.04,1482.22 1639.71,879.172 1640.37,528.499 1641.03,1651.86 1641.7,3412.17 1642.36,1587.2 1643.03,575.46 1643.69,1640.83 1644.35,1381.11 1645.02,1894.3 1645.68,392.647 1646.35,763.438 1647.01,814.552 1647.67,1061.22 1648.34,869.633 1649,704.102 1649.66,1268.62 1650.33,1178.69 1650.99,1022.2 1651.66,1788.92 1652.32,1538.52 1652.98,963.191 1653.65,1780.95 1654.31,623.83 1654.98,1651.39 1655.64,1185.36 1656.3,2749.96 1656.97,879.978 1657.63,2019.94 1658.3,1095.16 1658.96,3210.56 1659.62,1921.46 1660.29,763.04 1660.95,2050.54 1661.62,793.144 1662.28,6924.01 1662.94,1177.45 1663.61,770.399 1664.27,1221.32 1664.94,1414.68 1665.6,2499.8 1666.26,1370.71 1666.93,880.796 1667.59,1392.43 1668.26,4300.1 1668.92,1225.13 1669.58,1140.6 1670.25,640.031 1670.91,1374.99 1671.57,1378.11 1672.24,1672.02 1672.9,915.494 1673.57,2343.59 1674.23,1824.09 1674.89,2303.71 1675.56,729.686 1676.22,1055.77 1676.89,1297.98 1677.55,1375.55 1678.21,435.436 1678.88,1363.81 1679.54,1364.8 1680.21,1622.04 1680.87,1619.45 1681.53,798.757 1682.2,2125.88 1682.86,963.366 1683.53,1115.5 1684.19,1131.28 1684.85,2525.05 1685.52,689.378 1686.18,1221.26 1686.85,958.341 1687.51,935.737 1688.17,725.752 1688.84,3808.15 1689.5,2038.44 1690.17,1671.01 1690.83,805.704 1691.49,1725.6 1692.16,1503.27 1692.82,1207.01 1693.48,1450.44 1694.15,871.718 1694.81,1723.76 1695.48,2045.64 1696.14,3539.65 1696.8,1344.73 1697.47,1064.33 1698.13,2651.81 1698.8,1308.62 1699.46,2261.14 1700.12,1412.13 1700.79,3618.26 1701.45,1872.23 1702.12,1116.06 1702.78,1172.1 1703.44,1378.46 1704.11,1057.08 1704.77,1226.35 1705.44,928.116 1706.1,1057.04 1706.76,3459.23 1707.43,1120.79 1708.09,1522.21 1708.76,3251.35 1709.42,1071.87 1710.08,711.065 1710.75,1399.26 1711.41,2211.16 1712.07,1151.1 1712.74,1172.82 1713.4,693.674 1714.07,950.456 1714.73,806.454 1715.39,642.298 1716.06,556.618 1716.72,769.344 1717.39,1146.18 1718.05,1206.53 1718.71,853.598 1719.38,1260.88 1720.04,1383.95 1720.71,1061.85 1721.37,568.292 1722.03,1088.85 1722.7,1416.26 1723.36,1076.2 1724.03,805.29 1724.69,1679.7 1725.35,1139.6 1726.02,2949.4 1726.68,669.065 1727.35,1540.65 1728.01,1204.99 1728.67,742 1729.34,2581.81 1730,649.983 1730.67,1217.21 1731.33,629.071 1731.99,1497.85 1732.66,949.026 1733.32,6860.76 1733.98,2379.22 1734.65,1099.8 1735.31,749.695 1735.98,1402.28 1736.64,1194.15 1737.3,659.883 1737.97,1688.26 1738.63,837.946 1739.3,1002.25 1739.96,758.716 1740.62,920.649 1741.29,1306.35 1741.95,3496.14 1742.62,2708.99 1743.28,1210.34 1743.94,1515.15 1744.61,1159.11 1745.27,935.152 1745.94,926.596 1746.6,1059.05 1747.26,811.133 1747.93,1356.13 1748.59,2265.7 1749.26,2933.51 1749.92,1120.17 1750.58,1133.46 1751.25,896.204 1751.91,860.041 1752.58,818.24 1753.24,1401.79 1753.9,3092.6 1754.57,1181.27 1755.23,7332.55 1755.89,3214.59 1756.56,2881.39 1757.22,3679.54 1757.89,1424.85 1758.55,4476.82 1759.21,1175.12 1759.88,1284.46 1760.54,1623.17 1761.21,1143.91 1761.87,1102.96 1762.53,657.555 1763.2,867.848 1763.86,710.526 1764.53,1243.94 1765.19,897.01 1765.85,12590.3 1766.52,1627.04 1767.18,1895.16 1767.85,493.382 1768.51,891.417 1769.17,1508.79 1769.84,2439.52 1770.5,523.726 1771.17,2005.3 1771.83,1265.99 1772.49,1009.34 1773.16,1387.89 1773.82,1552.56 1774.49,1639.16 1775.15,2658.67 1775.81,1387.49 1776.48,3625.83 1777.14,866.527 1777.8,1678.39 1778.47,2769.97 1779.13,1543.19 1779.8,1374.45 1780.46,736.772 1781.12,3146.79 1781.79,2358.74 1782.45,781.172 1783.12,2352.84 1783.78,1055.91 1784.44,822.77 1785.11,1646.55 1785.77,2457.88 1786.44,6226.07 1787.1,2658.83 1787.76,1118.46 1788.43,860.551 1789.09,1476.81 1789.76,659.681 1790.42,1195.56 1791.08,825.376 1791.75,980.783 1792.41,1273.93 1793.08,2671.58 1793.74,1654.83 1794.4,1019.3 1795.07,897.127 1795.73,1732.9 1796.4,2397.97 1797.06,934.661 1797.72,795.33 1798.39,893.727 1799.05,587.219 1799.71,992.894 1800.38,1275.56 1801.04,970.639 1801.71,901.773 1802.37,2120.93 1803.03,2032.68 1803.7,1099.04 1804.36,1103.6 1805.03,1096.26 1805.69,1592.99 1806.35,1809.87 1807.02,1592.91 1807.68,969.984 1808.35,940.4 1809.01,2950.6 1809.67,1411.09 1810.34,861.829 1811,1178.46 1811.67,1071.94 1812.33,1074.74 1812.99,1056.32 1813.66,1944.15 1814.32,189.731 1814.99,663.28 1815.65,1232.07 1816.31,1474.51 1816.98,1695.05 1817.64,1494.14 1818.31,2474.9 1818.97,1063.01 1819.63,1420.36 1820.3,1756.79 1820.96,1316.1 1821.62,1713.01 1822.29,1737.1 1822.95,1869.06 1823.62,1417.85 1824.28,601.81 1824.94,1328.29 1825.61,870.038 1826.27,5218.07 1826.94,1106.54 1827.6,1167.05 1828.26,973.902 1828.93,18407.1 1829.59,1645.19 1830.26,1634.6 1830.92,898.264 1831.58,4323.91 1832.25,2173.52 1832.91,788.999 1833.58,1155.37 1834.24,739.239 1834.9,845.145 1835.57,24728.4 1836.23,827.52 1836.9,1516.88 1837.56,990.048 1838.22,1666.4 1838.89,1307.29 1839.55,1979.36 1840.22,836.1 1840.88,1175.51 1841.54,12334 1842.21,5198.9 1842.87,931.64 1843.53,1210.01 1844.2,1916.04 1844.86,649.402 1845.53,873.69 1846.19,913.649 1846.85,2624.9 1847.52,4235.62 1848.18,1916.12 1848.85,1110.78 1849.51,675.305 1850.17,1351.45 1850.84,1800.19 1851.5,1339.17 1852.17,1618.59 1852.83,858.945 1853.49,1470.11 1854.16,1404.49 1854.82,1042.22 1855.49,1051.59 1856.15,1356.94 1856.81,3935.94 1857.48,961.72 1858.14,728.523 1858.81,713.729 1859.47,2051.95 1860.13,1379.9 1860.8,826.019 1861.46,745.938 1862.13,971.376 1862.79,2313.88 1863.45,1926.14 1864.12,2743.78 1864.78,966.813 1865.44,2186.78 1866.11,1205.11 1866.77,618.397 1867.44,869.674 1868.1,1342.53 1868.76,959.424 1869.43,2116.48 1870.09,882.539 1870.76,1122.87 1871.42,977.021 1872.08,1249.87 1872.75,5299.4 1873.41,404.724 1874.08,2328.26 1874.74,496.944 1875.4,3656.96 1876.07,2230.21 1876.73,851.017 1877.4,1031.18 1878.06,3551.31 1878.72,2785.46 1879.39,962.674 1880.05,1062.28 1880.72,813.169 1881.38,637.691 1882.04,1110.09 1882.71,1131.46 1883.37,894.657 1884.04,520.128 1884.7,1166.93 1885.36,3223.09 1886.03,1773.43 1886.69,3325.26 1887.35,1331.46 1888.02,2104.51 1888.68,1884.26 1889.35,1092.83 1890.01,1276.28 1890.67,929.491 1891.34,3868.49 1892,2096.23 1892.67,521.659 1893.33,1284.99 1893.99,1343.19 1894.66,992.697 1895.32,1651.61 1895.99,1604.71 1896.65,1578.66 1897.31,1071.18 1897.98,2660.49 1898.64,2303.48 1899.31,1759.8 1899.97,770.736 1900.63,1365.11 1901.3,1015.05 1901.96,944.186 1902.63,1177.04 1903.29,943.075 1903.95,1714.65 1904.62,500.612 1905.28,599.424 1905.95,3293.14 1906.61,1896.51 1907.27,327.764 1907.94,1551.24 1908.6,862.899 1909.26,2483.01 1909.93,821.54 1910.59,1116.19 1911.26,1302.12 1911.92,983.931 1912.58,5143.29 1913.25,1558.76 1913.91,1542.84 1914.58,1373.44 1915.24,1681.96 1915.9,1178.83 1916.57,910.265 1917.23,1242.37 1917.9,908.349 1918.56,1269.11 1919.22,956.882 1919.89,2064.24 1920.55,938.542 1921.22,1854.67 1921.88,1415.21 1922.54,952.037 1923.21,759.762 1923.87,1715.93 1924.54,2387.76 1925.2,1449.47 1925.86,2758.39 1926.53,1286.51 1927.19,898.971 1927.86,913.461 1928.52,1235.69 1929.18,792.671 1929.85,5712.91 1930.51,890.852 1931.17,1178 1931.84,982.432 1932.5,2616.59 1933.17,1204.8 1933.83,1055.82 1934.49,1032.63 1935.16,1590.94 1935.82,963.644 1936.49,1629.67 1937.15,907.918 1937.81,1188.8 1938.48,577.713 1939.14,845.56 1939.81,1462.55 1940.47,758.138 1941.13,1342.81 1941.8,1680.11 1942.46,1337.51 1943.13,570.246 1943.79,1839.63 1944.45,911.823 1945.12,1271.07 1945.78,4419.26 1946.45,1667.95 1947.11,1394.19 1947.77,824.018 1948.44,1317.2 1949.1,2612.08 1949.77,554.491 1950.43,2412.44 1951.09,953.702 1951.76,1228.62 1952.42,1561.48 1953.08,1988.61 1953.75,5083.17 1954.41,1487.46 1955.08,975.974 1955.74,1413.52 1956.4,2274.95 1957.07,2448.66 1957.73,1101.81 1958.4,869.98 1959.06,939.157 1959.72,1715.69 1960.39,5964.88 1961.05,2685.46 1961.72,852.611 1962.38,1580.69 1963.04,3021.44 1963.71,373.334 1964.37,791.546 1965.04,928.307 1965.7,573.957 1966.36,1505.8 1967.03,1483.77 1967.69,938.124 1968.36,1240.78 1969.02,1191.96 1969.68,1042.29 1970.35,1032.61 1971.01,872.023 1971.68,744.958 1972.34,1624.55 1973,1114.53 1973.67,1473.11 1974.33,484.097 1974.99,882.226 1975.66,2734.05 1976.32,1642.19 1976.99,1148.22 1977.65,1386.14 1978.31,850.864 1978.98,1115.28 1979.64,636.6 1980.31,1030.83 1980.97,11010.6 1981.63,6384.38 1982.3,997.61 1982.96,658.238 1983.63,566.349 1984.29,1391.78 1984.95,1369.71 1985.62,698.275 1986.28,1380.14 1986.95,862.356 1987.61,1280.55 1988.27,1065.19 1988.94,2545.79 1989.6,4189.99 1990.27,1331.67 1990.93,640.884 1991.59,1521.19 1992.26,1603.79 1992.92,1305.17 1993.58,1134.49 1994.25,1290.21 1994.91,1191.85 1995.58,1055.7 1996.24,889.702 1996.9,971.469 1997.57,2380.99 1998.23,5136.19 1998.9,766.45 1999.56,15990.7 2000.22,650.048 2000.89,1985.83 2001.55,1787.69 2002.22,1482.4 2002.88,950.781 2003.54,1078.77 2004.21,3982.31 2004.87,648.256 2005.54,1438.41 2006.2,1516.39 2006.86,1911.66 2007.53,1470.93 2008.19,5040.63 2008.86,1651.71 2009.52,1315.17 2010.18,1206.96 2010.85,1006.96 2011.51,817.536 2012.18,1423.9 2012.84,1789.51 2013.5,1583.76 2014.17,836.733 2014.83,920.576 2015.49,1683.76 2016.16,590.522 2016.82,869.928 2017.49,664.268 2018.15,1196.54 2018.81,1045.72 2019.48,810.323 2020.14,1153.32 2020.81,986.302 2021.47,1648.05 2022.13,1635.6 2022.8,991.997 2023.46,1807.83 2024.13,450.137 2024.79,1181.01 2025.45,2553.48 2026.12,2650.53 2026.78,1085.14 2027.45,973.078 2028.11,914.417 2028.77,1979.3 2029.44,808.226 2030.1,1980.47 2030.77,2230.13 2031.43,2301.4 2032.09,682.047 2032.76,842.915 2033.42,600.154 2034.09,1187.73 2034.75,1292.42 2035.41,659.068 2036.08,1475.18 2036.74,955.171 2037.4,2081.49 2038.07,894.759 2038.73,3487.36 2039.4,977.802 2040.06,828.139 2040.72,1271.52 2041.39,1098.58 2042.05,1149.29 2042.72,680.824 2043.38,1063.74 2044.04,1941.22 2044.71,2955.27 2045.37,367.143 2046.04,1675.52 2046.7,1806.43 2047.36,1837.02 2048.03,1437.63 2048.69,1090.31 2049.36,639.715 2050.02,1282.22 2050.68,1034.38 2051.35,1299.78 2052.01,1081.95 2052.68,1180.47 2053.34,1280.29 2054,899.238 2054.67,696.076 2055.33,1689.3 2056,2949.66 2056.66,1929.78 2057.32,766.879 2057.99,1261.63 2058.65,1097.56 2059.31,1196.69 2059.98,1510.47 2060.64,945.066 2061.31,967.772 2061.97,742.136 2062.63,12673.5 2063.3,946.148 2063.96,1668.19 2064.63,806.137 2065.29,1618.87 2065.95,1295.53 2066.62,1325.39 2067.28,2026.68 2067.95,2019.46 2068.61,1364.91 2069.27,825.782 2069.94,898.478 2070.6,1851.46 2071.27,899.055 2071.93,595.646 2072.59,1504.42 2073.26,1007.04 2073.92,528.673 2074.59,764.236 2075.25,2568 2075.91,1821.8 2076.58,768.863 2077.24,995.1 2077.91,918.128 2078.57,983.725 2079.23,1116.75 2079.9,2571.8 2080.56,1049.25 2081.22,960.332 2081.89,1603.75 2082.55,4972.27 2083.22,990.024 2083.88,1253.73 2084.54,1514.25 2085.21,1538.2 2085.87,1575.63 2086.54,307.415 2087.2,2141.88 2087.86,773.006 2088.53,819.988 2089.19,1283.63 2089.86,1777.91 2090.52,1058.61 2091.18,663.085 2091.85,1295.52 2092.51,1335.3 2093.18,920.968 2093.84,618.747 2094.5,757.5 2095.17,1029.01 2095.83,2943.31 2096.5,1125.56 2097.16,2105.92 2097.82,3086.09 2098.49,1296.37 2099.15,2377.44 2099.82,1004.17 2100.48,599.704 2101.14,1226.84 2101.81,4934.66 2102.47,777.415 2103.13,4357.6 2103.8,866.442 2104.46,1804.77 2105.13,931.795 2105.79,2848.28 2106.45,1505.26 2107.12,2315.78 2107.78,269.305 2108.45,1318.18 2109.11,1000.38 2109.77,912.352 2110.44,3951.65 2111.1,1711.32 2111.77,1288.92 2112.43,1382.71 2113.09,1415.52 2113.76,1405.91 2114.42,1309.16 2115.09,1321.77 2115.75,1290.85 2116.41,1150.5 2117.08,916.326 2117.74,1365.44 2118.41,7635.7 2119.07,2012.8 2119.73,1426.8 2120.4,968.175 2121.06,856.394 2121.73,1103.76 2122.39,3126.72 2123.05,1187.95 2123.72,1470.81 2124.38,1025.29 2125.04,647.062 2125.71,2704.4 2126.37,742.999 2127.04,943.067 2127.7,2678.13 2128.36,1030.54 2129.03,1420.01 2129.69,1860.78 2130.36,1373.68 2131.02,1118.68 2131.68,932.781 2132.35,652.905 2133.01,3496.4 2133.68,919.435 2134.34,1265.78 2135,1663.13 2135.67,725.018 2136.33,1410.48 2137,1344.64 2137.66,602.325 2138.32,663.02 2138.99,1819.52 2139.65,903.332 2140.32,1563.46 2140.98,1231.63 2141.64,6806.52 2142.31,1083.88 2142.97,1027.18 2143.64,1394.84 2144.3,1293.09 2144.96,11361.4 2145.63,706.276 2146.29,840.38 2146.95,585.333 2147.62,1429.58 2148.28,1046.17 2148.95,1485.47 2149.61,898.115 2150.27,855.818 2150.94,3324.67 2151.6,938.042 2152.27,954.941 2152.93,1042.04 2153.59,1196.19 2154.26,270.287 2154.92,1036.06 2155.59,1566.58 2156.25,1010.4 2156.91,1960.54 2157.58,1283.91 2158.24,971.093 2158.91,4030.98 2159.57,1639.65 2160.23,910.603 2160.9,740.574 2161.56,4524.35 2162.23,1896.01 2162.89,1864.3 2163.55,566.28 2164.22,1297.03 2164.88,1028.46 2165.55,1852.03 2166.21,1564.14 2166.87,1080.67 2167.54,1519.54 2168.2,876.643 2168.86,1626.51 2169.53,1665.87 2170.19,901.576 2170.86,1937.54 2171.52,1010.55 2172.18,9136.38 2172.85,969.001 2173.51,1188.18 2174.18,1500.32 2174.84,958.595 2175.5,1441.75 2176.17,1360.52 2176.83,866.6 2177.5,1176.65 2178.16,1166.61 2178.82,995.593 2179.49,1181.99 2180.15,1448.63 2180.82,799.958 2181.48,3293.7 2182.14,3887.24 2182.81,833.81 2183.47,595.845 2184.14,2472.36 2184.8,1744.29 2185.46,1646.29 2186.13,898.362 2186.79,15393.5 2187.46,1458.43 2188.12,799.596 2188.78,967.782 2189.45,3192.65 2190.11,16796.2 2190.77,1115.07 2191.44,1280.31 2192.1,748.761 2192.77,1067.98 2193.43,2176.09 2194.09,1008.45 2194.76,1004.84 2195.42,1091.68 2196.09,1888.05 2196.75,1381.43 2197.41,5256.66 2198.08,1173.51 2198.74,893.655 2199.41,911.328 2200.07,1242.98 2200.73,1371.24 2201.4,1038.36 2202.06,893.838 2202.73,2899.27 2203.39,874.732 2204.05,973.858 2204.72,3974.14 2205.38,1105.23 2206.05,1982.37 2206.71,1212.87 2207.37,1671.11 2208.04,801.008 2208.7,1769.56 2209.37,883.702 2210.03,1480.16 2210.69,1101.55 2211.36,977.324 2212.02,608.664 2212.68,2812.54 2213.35,886.795 2214.01,1253.95 2214.68,1556.65 2215.34,1476.3 2216,2305.35 2216.67,1706.94 2217.33,1114.44 2218,2246.24 2218.66,1846.56 2219.32,1131.35 2219.99,951.973 2220.65,925.844 2221.32,2742.49 2221.98,751.211 2222.64,977.246 2223.31,1292.56 2223.97,1464.6 2224.64,739.259 2225.3,1171.29 2225.96,644.641 2226.63,1802.5 2227.29,1886.34 2227.96,686.055 2228.62,993.331 2229.28,2112.61 2229.95,785.204 2230.61,1222.83 2231.28,1109.86 2231.94,2289.22 2232.6,1719.27 2233.27,1492.04 2233.93,612.035 2234.59,1176.31 2235.26,926.338 2235.92,1646.34 2236.59,1159.87 2237.25,1372.8 2237.91,1174.55 2238.58,937.205 2239.24,1184.27 2239.91,1413.75 2240.57,1737.59 2241.23,1054.28 2241.9,627.695 2242.56,1128.24 2243.23,2272.75 2243.89,1378 2244.55,2699.29 2245.22,1083.48 2245.88,796.376 2246.55,960.478 2247.21,1725.46 2247.87,1329.27 2248.54,1152.58 2249.2,297.273 2249.87,1133.28 2250.53,3820.37 2251.19,1547.92 2251.86,1696.52 2252.52,2003.46 2253.19,2093.45 2253.85,1005.05 2254.51,1349.94 2255.18,1139.32 2255.84,1154.05 2256.5,840.313 2257.17,1112.49 2257.83,52.1903 2258.5,1090.75 2259.16,1022.7 2259.82,1441.33 2260.49,858.304 2261.15,1161.12 2261.82,1089.01 2262.48,1278.75 2263.14,1018.97 2263.81,501.519 2264.47,1811.78 2265.14,687.869 2265.8,748.601 2266.46,1072.49 2267.13,2357.25 2267.79,936.96 2268.46,1730.9 2269.12,5043.41 2269.78,1101.34 2270.45,1752.03 2271.11,2495.67 2271.78,1943.4 2272.44,1227.35 2273.1,1161.04 2273.77,919.493 2274.43,2306.53 2275.09,1333.95 2275.76,907.597 2276.42,1602.96 2277.09,1440.81 2277.75,1530.23 2278.41,1482.68 2279.08,624.775 2279.74,2613.85 2280.41,2148.28 2281.07,1293.24 2281.73,2652.67 2282.4,867.194 2283.06,1300.9 2283.73,885.821 2284.39,653.769 2285.05,963.746 2285.72,1858.03 2286.38,1055.59 2287.05,2770.65 2287.71,1466.39 2288.37,2357.9 2289.04,873.861 2289.7,1170.29 2290.37,4192.99 2291.03,1001.35 2291.69,1139.12 2292.36,818.902 2293.02,908.223 "/>
<path clip-path="url(#clip680)" d="M312.489 196.789 L575.981 196.789 L575.981 93.1086 L312.489 93.1086  Z" fill="#ffffff" fill-rule="evenodd" fill-opacity="1"/>
<polyline clip-path="url(#clip680)" style="stroke:#000000; stroke-linecap:round; stroke-linejoin:round; stroke-width:4; stroke-opacity:1; fill:none" points="312.489,196.789 575.981,196.789 575.981,93.1086 312.489,93.1086 312.489,196.789 "/>
<polyline clip-path="url(#clip680)" style="stroke:#009af9; stroke-linecap:round; stroke-linejoin:round; stroke-width:4; stroke-opacity:1; fill:none" points="335.94,144.949 476.648,144.949 "/>
<path clip-path="url(#clip680)" d="M513.942 164.636 Q512.136 169.266 510.424 170.678 Q508.711 172.09 505.84 172.09 L502.437 172.09 L502.437 168.525 L504.937 168.525 Q506.697 168.525 507.669 167.692 Q508.641 166.858 509.822 163.756 L510.586 161.812 L500.099 136.303 L504.613 136.303 L512.715 156.581 L520.817 136.303 L525.331 136.303 L513.942 164.636 Z" fill="#000000" fill-rule="nonzero" fill-opacity="1" /><path clip-path="url(#clip680)" d="M532.622 158.293 L540.261 158.293 L540.261 131.928 L531.951 133.595 L531.951 129.335 L540.215 127.669 L544.891 127.669 L544.891 158.293 L552.53 158.293 L552.53 162.229 L532.622 162.229 L532.622 158.293 Z" fill="#000000" fill-rule="nonzero" fill-opacity="1" /></svg>
