<?xml version="1.0" encoding="utf-8"?>
<svg xmlns="http://www.w3.org/2000/svg" xmlns:xlink="http://www.w3.org/1999/xlink" width="600" height="400" viewBox="0 0 2400 1600">
<defs>
  <clipPath id="clip100">
    <rect x="0" y="0" width="2400" height="1600"/>
  </clipPath>
</defs>
<path clip-path="url(#clip100)" d="M0 1600 L2400 1600 L2400 0 L0 0  Z" fill="#ffffff" fill-rule="evenodd" fill-opacity="1"/>
<defs>
  <clipPath id="clip101">
    <rect x="480" y="0" width="1681" height="1600"/>
  </clipPath>
</defs>
<path clip-path="url(#clip100)" d="M242.135 1423.18 L2352.76 1423.18 L2352.76 47.2441 L242.135 47.2441  Z" fill="#ffffff" fill-rule="evenodd" fill-opacity="1"/>
<defs>
  <clipPath id="clip102">
    <rect x="242" y="47" width="2112" height="1377"/>
  </clipPath>
</defs>
<polyline clip-path="url(#clip102)" style="stroke:#000000; stroke-linecap:round; stroke-linejoin:round; stroke-width:2; stroke-opacity:0.1; fill:none" points="301.205,1423.18 301.205,47.2441 "/>
<polyline clip-path="url(#clip102)" style="stroke:#000000; stroke-linecap:round; stroke-linejoin:round; stroke-width:2; stroke-opacity:0.1; fill:none" points="965.144,1423.18 965.144,47.2441 "/>
<polyline clip-path="url(#clip102)" style="stroke:#000000; stroke-linecap:round; stroke-linejoin:round; stroke-width:2; stroke-opacity:0.1; fill:none" points="1629.08,1423.18 1629.08,47.2441 "/>
<polyline clip-path="url(#clip102)" style="stroke:#000000; stroke-linecap:round; stroke-linejoin:round; stroke-width:2; stroke-opacity:0.1; fill:none" points="2293.02,1423.18 2293.02,47.2441 "/>
<polyline clip-path="url(#clip102)" style="stroke:#000000; stroke-linecap:round; stroke-linejoin:round; stroke-width:2; stroke-opacity:0.1; fill:none" points="242.135,1423.18 2352.76,1423.18 "/>
<polyline clip-path="url(#clip102)" style="stroke:#000000; stroke-linecap:round; stroke-linejoin:round; stroke-width:2; stroke-opacity:0.1; fill:none" points="242.135,1049.13 2352.76,1049.13 "/>
<polyline clip-path="url(#clip102)" style="stroke:#000000; stroke-linecap:round; stroke-linejoin:round; stroke-width:2; stroke-opacity:0.1; fill:none" points="242.135,675.088 2352.76,675.088 "/>
<polyline clip-path="url(#clip102)" style="stroke:#000000; stroke-linecap:round; stroke-linejoin:round; stroke-width:2; stroke-opacity:0.1; fill:none" points="242.135,301.043 2352.76,301.043 "/>
<polyline clip-path="url(#clip100)" style="stroke:#000000; stroke-linecap:round; stroke-linejoin:round; stroke-width:4; stroke-opacity:1; fill:none" points="242.135,1423.18 2352.76,1423.18 "/>
<polyline clip-path="url(#clip100)" style="stroke:#000000; stroke-linecap:round; stroke-linejoin:round; stroke-width:4; stroke-opacity:1; fill:none" points="301.205,1423.18 301.205,1404.28 "/>
<polyline clip-path="url(#clip100)" style="stroke:#000000; stroke-linecap:round; stroke-linejoin:round; stroke-width:4; stroke-opacity:1; fill:none" points="965.144,1423.18 965.144,1404.28 "/>
<polyline clip-path="url(#clip100)" style="stroke:#000000; stroke-linecap:round; stroke-linejoin:round; stroke-width:4; stroke-opacity:1; fill:none" points="1629.08,1423.18 1629.08,1404.28 "/>
<polyline clip-path="url(#clip100)" style="stroke:#000000; stroke-linecap:round; stroke-linejoin:round; stroke-width:4; stroke-opacity:1; fill:none" points="2293.02,1423.18 2293.02,1404.28 "/>
<path clip-path="url(#clip100)" d="M301.205 1454.1 Q297.594 1454.1 295.766 1457.66 Q293.96 1461.2 293.96 1468.33 Q293.96 1475.44 295.766 1479.01 Q297.594 1482.55 301.205 1482.55 Q304.84 1482.55 306.645 1479.01 Q308.474 1475.44 308.474 1468.33 Q308.474 1461.2 306.645 1457.66 Q304.84 1454.1 301.205 1454.1 M301.205 1450.39 Q307.015 1450.39 310.071 1455 Q313.15 1459.58 313.15 1468.33 Q313.15 1477.06 310.071 1481.67 Q307.015 1486.25 301.205 1486.25 Q295.395 1486.25 292.316 1481.67 Q289.261 1477.06 289.261 1468.33 Q289.261 1459.58 292.316 1455 Q295.395 1450.39 301.205 1450.39 Z" fill="#000000" fill-rule="nonzero" fill-opacity="1" /><path clip-path="url(#clip100)" d="M909.67 1481.64 L917.309 1481.64 L917.309 1455.28 L908.998 1456.95 L908.998 1452.69 L917.262 1451.02 L921.938 1451.02 L921.938 1481.64 L929.577 1481.64 L929.577 1485.58 L909.67 1485.58 L909.67 1481.64 Z" fill="#000000" fill-rule="nonzero" fill-opacity="1" /><path clip-path="url(#clip100)" d="M949.021 1454.1 Q945.41 1454.1 943.582 1457.66 Q941.776 1461.2 941.776 1468.33 Q941.776 1475.44 943.582 1479.01 Q945.41 1482.55 949.021 1482.55 Q952.656 1482.55 954.461 1479.01 Q956.29 1475.44 956.29 1468.33 Q956.29 1461.2 954.461 1457.66 Q952.656 1454.1 949.021 1454.1 M949.021 1450.39 Q954.832 1450.39 957.887 1455 Q960.966 1459.58 960.966 1468.33 Q960.966 1477.06 957.887 1481.67 Q954.832 1486.25 949.021 1486.25 Q943.211 1486.25 940.133 1481.67 Q937.077 1477.06 937.077 1468.33 Q937.077 1459.58 940.133 1455 Q943.211 1450.39 949.021 1450.39 Z" fill="#000000" fill-rule="nonzero" fill-opacity="1" /><path clip-path="url(#clip100)" d="M979.183 1454.1 Q975.572 1454.1 973.743 1457.66 Q971.938 1461.2 971.938 1468.33 Q971.938 1475.44 973.743 1479.01 Q975.572 1482.55 979.183 1482.55 Q982.817 1482.55 984.623 1479.01 Q986.452 1475.44 986.452 1468.33 Q986.452 1461.2 984.623 1457.66 Q982.817 1454.1 979.183 1454.1 M979.183 1450.39 Q984.993 1450.39 988.049 1455 Q991.128 1459.58 991.128 1468.33 Q991.128 1477.06 988.049 1481.67 Q984.993 1486.25 979.183 1486.25 Q973.373 1486.25 970.294 1481.67 Q967.239 1477.06 967.239 1468.33 Q967.239 1459.58 970.294 1455 Q973.373 1450.39 979.183 1450.39 Z" fill="#000000" fill-rule="nonzero" fill-opacity="1" /><path clip-path="url(#clip100)" d="M1009.35 1454.1 Q1005.73 1454.1 1003.91 1457.66 Q1002.1 1461.2 1002.1 1468.33 Q1002.1 1475.44 1003.91 1479.01 Q1005.73 1482.55 1009.35 1482.55 Q1012.98 1482.55 1014.78 1479.01 Q1016.61 1475.44 1016.61 1468.33 Q1016.61 1461.2 1014.78 1457.66 Q1012.98 1454.1 1009.35 1454.1 M1009.35 1450.39 Q1015.16 1450.39 1018.21 1455 Q1021.29 1459.58 1021.29 1468.33 Q1021.29 1477.06 1018.21 1481.67 Q1015.16 1486.25 1009.35 1486.25 Q1003.53 1486.25 1000.46 1481.67 Q997.401 1477.06 997.401 1468.33 Q997.401 1459.58 1000.46 1455 Q1003.53 1450.39 1009.35 1450.39 Z" fill="#000000" fill-rule="nonzero" fill-opacity="1" /><path clip-path="url(#clip100)" d="M1577.69 1481.64 L1594.01 1481.64 L1594.01 1485.58 L1572.07 1485.58 L1572.07 1481.64 Q1574.73 1478.89 1579.31 1474.26 Q1583.92 1469.61 1585.1 1468.27 Q1587.35 1465.74 1588.23 1464.01 Q1589.13 1462.25 1589.13 1460.56 Q1589.13 1457.8 1587.18 1456.07 Q1585.26 1454.33 1582.16 1454.33 Q1579.96 1454.33 1577.51 1455.09 Q1575.08 1455.86 1572.3 1457.41 L1572.3 1452.69 Q1575.12 1451.55 1577.58 1450.97 Q1580.03 1450.39 1582.07 1450.39 Q1587.44 1450.39 1590.63 1453.08 Q1593.83 1455.77 1593.83 1460.26 Q1593.83 1462.39 1593.02 1464.31 Q1592.23 1466.2 1590.12 1468.8 Q1589.55 1469.47 1586.44 1472.69 Q1583.34 1475.88 1577.69 1481.64 Z" fill="#000000" fill-rule="nonzero" fill-opacity="1" /><path clip-path="url(#clip100)" d="M1613.83 1454.1 Q1610.22 1454.1 1608.39 1457.66 Q1606.58 1461.2 1606.58 1468.33 Q1606.58 1475.44 1608.39 1479.01 Q1610.22 1482.55 1613.83 1482.55 Q1617.46 1482.55 1619.27 1479.01 Q1621.1 1475.44 1621.1 1468.33 Q1621.1 1461.2 1619.27 1457.66 Q1617.46 1454.1 1613.83 1454.1 M1613.83 1450.39 Q1619.64 1450.39 1622.69 1455 Q1625.77 1459.58 1625.77 1468.33 Q1625.77 1477.06 1622.69 1481.67 Q1619.64 1486.25 1613.83 1486.25 Q1608.02 1486.25 1604.94 1481.67 Q1601.88 1477.06 1601.88 1468.33 Q1601.88 1459.58 1604.94 1455 Q1608.02 1450.39 1613.83 1450.39 Z" fill="#000000" fill-rule="nonzero" fill-opacity="1" /><path clip-path="url(#clip100)" d="M1643.99 1454.1 Q1640.38 1454.1 1638.55 1457.66 Q1636.74 1461.2 1636.74 1468.33 Q1636.74 1475.44 1638.55 1479.01 Q1640.38 1482.55 1643.99 1482.55 Q1647.62 1482.55 1649.43 1479.01 Q1651.26 1475.44 1651.26 1468.33 Q1651.26 1461.2 1649.43 1457.66 Q1647.62 1454.1 1643.99 1454.1 M1643.99 1450.39 Q1649.8 1450.39 1652.86 1455 Q1655.93 1459.58 1655.93 1468.33 Q1655.93 1477.06 1652.86 1481.67 Q1649.8 1486.25 1643.99 1486.25 Q1638.18 1486.25 1635.1 1481.67 Q1632.05 1477.06 1632.05 1468.33 Q1632.05 1459.58 1635.1 1455 Q1638.18 1450.39 1643.99 1450.39 Z" fill="#000000" fill-rule="nonzero" fill-opacity="1" /><path clip-path="url(#clip100)" d="M1674.15 1454.1 Q1670.54 1454.1 1668.71 1457.66 Q1666.91 1461.2 1666.91 1468.33 Q1666.91 1475.44 1668.71 1479.01 Q1670.54 1482.55 1674.15 1482.55 Q1677.79 1482.55 1679.59 1479.01 Q1681.42 1475.44 1681.42 1468.33 Q1681.42 1461.2 1679.59 1457.66 Q1677.79 1454.1 1674.15 1454.1 M1674.15 1450.39 Q1679.96 1450.39 1683.02 1455 Q1686.1 1459.58 1686.1 1468.33 Q1686.1 1477.06 1683.02 1481.67 Q1679.96 1486.25 1674.15 1486.25 Q1668.34 1486.25 1665.26 1481.67 Q1662.21 1477.06 1662.21 1468.33 Q1662.21 1459.58 1665.26 1455 Q1668.34 1450.39 1674.15 1450.39 Z" fill="#000000" fill-rule="nonzero" fill-opacity="1" /><path clip-path="url(#clip100)" d="M2251.7 1466.95 Q2255.06 1467.66 2256.93 1469.93 Q2258.83 1472.2 2258.83 1475.53 Q2258.83 1480.65 2255.31 1483.45 Q2251.79 1486.25 2245.31 1486.25 Q2243.14 1486.25 2240.82 1485.81 Q2238.53 1485.39 2236.08 1484.54 L2236.08 1480.02 Q2238.02 1481.16 2240.34 1481.74 Q2242.65 1482.32 2245.17 1482.32 Q2249.57 1482.32 2251.86 1480.58 Q2254.18 1478.84 2254.18 1475.53 Q2254.18 1472.48 2252.03 1470.77 Q2249.9 1469.03 2246.08 1469.03 L2242.05 1469.03 L2242.05 1465.19 L2246.26 1465.19 Q2249.71 1465.19 2251.54 1463.82 Q2253.37 1462.43 2253.37 1459.84 Q2253.37 1457.18 2251.47 1455.77 Q2249.6 1454.33 2246.08 1454.33 Q2244.16 1454.33 2241.96 1454.75 Q2239.76 1455.16 2237.12 1456.04 L2237.12 1451.88 Q2239.78 1451.14 2242.1 1450.77 Q2244.43 1450.39 2246.49 1450.39 Q2251.82 1450.39 2254.92 1452.83 Q2258.02 1455.23 2258.02 1459.35 Q2258.02 1462.22 2256.38 1464.21 Q2254.73 1466.18 2251.7 1466.95 Z" fill="#000000" fill-rule="nonzero" fill-opacity="1" /><path clip-path="url(#clip100)" d="M2277.7 1454.1 Q2274.09 1454.1 2272.26 1457.66 Q2270.45 1461.2 2270.45 1468.33 Q2270.45 1475.44 2272.26 1479.01 Q2274.09 1482.55 2277.7 1482.55 Q2281.33 1482.55 2283.14 1479.01 Q2284.97 1475.44 2284.97 1468.33 Q2284.97 1461.2 2283.14 1457.66 Q2281.33 1454.1 2277.7 1454.1 M2277.7 1450.39 Q2283.51 1450.39 2286.56 1455 Q2289.64 1459.58 2289.64 1468.33 Q2289.64 1477.06 2286.56 1481.67 Q2283.51 1486.25 2277.7 1486.25 Q2271.89 1486.25 2268.81 1481.67 Q2265.75 1477.06 2265.75 1468.33 Q2265.75 1459.58 2268.81 1455 Q2271.89 1450.39 2277.7 1450.39 Z" fill="#000000" fill-rule="nonzero" fill-opacity="1" /><path clip-path="url(#clip100)" d="M2307.86 1454.1 Q2304.25 1454.1 2302.42 1457.66 Q2300.61 1461.2 2300.61 1468.33 Q2300.61 1475.44 2302.42 1479.01 Q2304.25 1482.55 2307.86 1482.55 Q2311.49 1482.55 2313.3 1479.01 Q2315.13 1475.44 2315.13 1468.33 Q2315.13 1461.2 2313.3 1457.66 Q2311.49 1454.1 2307.86 1454.1 M2307.86 1450.39 Q2313.67 1450.39 2316.72 1455 Q2319.8 1459.58 2319.8 1468.33 Q2319.8 1477.06 2316.72 1481.67 Q2313.67 1486.25 2307.86 1486.25 Q2302.05 1486.25 2298.97 1481.67 Q2295.91 1477.06 2295.91 1468.33 Q2295.91 1459.58 2298.97 1455 Q2302.05 1450.39 2307.86 1450.39 Z" fill="#000000" fill-rule="nonzero" fill-opacity="1" /><path clip-path="url(#clip100)" d="M2338.02 1454.1 Q2334.41 1454.1 2332.58 1457.66 Q2330.78 1461.2 2330.78 1468.33 Q2330.78 1475.44 2332.58 1479.01 Q2334.41 1482.55 2338.02 1482.55 Q2341.66 1482.55 2343.46 1479.01 Q2345.29 1475.44 2345.29 1468.33 Q2345.29 1461.2 2343.46 1457.66 Q2341.66 1454.1 2338.02 1454.1 M2338.02 1450.39 Q2343.83 1450.39 2346.89 1455 Q2349.97 1459.58 2349.97 1468.33 Q2349.97 1477.06 2346.89 1481.67 Q2343.83 1486.25 2338.02 1486.25 Q2332.21 1486.25 2329.13 1481.67 Q2326.08 1477.06 2326.08 1468.33 Q2326.08 1459.58 2329.13 1455 Q2332.21 1450.39 2338.02 1450.39 Z" fill="#000000" fill-rule="nonzero" fill-opacity="1" /><path clip-path="url(#clip100)" d="M1165.17 1520.52 L1171.6 1520.52 L1171.6 1568.04 L1165.17 1568.04 L1165.17 1520.52 Z" fill="#000000" fill-rule="nonzero" fill-opacity="1" /><path clip-path="url(#clip100)" d="M1189.93 1522.27 L1189.93 1532.4 L1201.99 1532.4 L1201.99 1536.95 L1189.93 1536.95 L1189.93 1556.3 Q1189.93 1560.66 1191.11 1561.9 Q1192.32 1563.14 1195.98 1563.14 L1201.99 1563.14 L1201.99 1568.04 L1195.98 1568.04 Q1189.2 1568.04 1186.62 1565.53 Q1184.04 1562.98 1184.04 1556.3 L1184.04 1536.95 L1179.74 1536.95 L1179.74 1532.4 L1184.04 1532.4 L1184.04 1522.27 L1189.93 1522.27 Z" fill="#000000" fill-rule="nonzero" fill-opacity="1" /><path clip-path="url(#clip100)" d="M1240.19 1548.76 L1240.19 1551.62 L1213.26 1551.62 Q1213.64 1557.67 1216.89 1560.85 Q1220.17 1564 1225.99 1564 Q1229.36 1564 1232.52 1563.17 Q1235.7 1562.35 1238.82 1560.69 L1238.82 1566.23 Q1235.67 1567.57 1232.36 1568.27 Q1229.05 1568.97 1225.64 1568.97 Q1217.11 1568.97 1212.11 1564 Q1207.15 1559.04 1207.15 1550.57 Q1207.15 1541.82 1211.86 1536.69 Q1216.6 1531.54 1224.62 1531.54 Q1231.81 1531.54 1235.98 1536.18 Q1240.19 1540.8 1240.19 1548.76 M1234.33 1547.04 Q1234.27 1542.23 1231.62 1539.37 Q1229.01 1536.5 1224.69 1536.5 Q1219.78 1536.5 1216.82 1539.27 Q1213.9 1542.04 1213.45 1547.07 L1234.33 1547.04 Z" fill="#000000" fill-rule="nonzero" fill-opacity="1" /><path clip-path="url(#clip100)" d="M1270.45 1537.87 Q1269.47 1537.3 1268.29 1537.04 Q1267.14 1536.76 1265.74 1536.76 Q1260.78 1536.76 1258.11 1540 Q1255.46 1543.22 1255.46 1549.27 L1255.46 1568.04 L1249.58 1568.04 L1249.58 1532.4 L1255.46 1532.4 L1255.46 1537.93 Q1257.31 1534.69 1260.27 1533.13 Q1263.23 1531.54 1267.46 1531.54 Q1268.07 1531.54 1268.8 1531.63 Q1269.53 1531.7 1270.42 1531.85 L1270.45 1537.87 Z" fill="#000000" fill-rule="nonzero" fill-opacity="1" /><path clip-path="url(#clip100)" d="M1292.8 1550.12 Q1285.7 1550.12 1282.96 1551.75 Q1280.23 1553.37 1280.23 1557.29 Q1280.23 1560.4 1282.26 1562.25 Q1284.33 1564.07 1287.86 1564.07 Q1292.73 1564.07 1295.66 1560.63 Q1298.62 1557.16 1298.62 1551.43 L1298.62 1550.12 L1292.8 1550.12 M1304.48 1547.71 L1304.48 1568.04 L1298.62 1568.04 L1298.62 1562.63 Q1296.62 1565.88 1293.63 1567.44 Q1290.63 1568.97 1286.31 1568.97 Q1280.83 1568.97 1277.58 1565.91 Q1274.37 1562.82 1274.37 1557.67 Q1274.37 1551.65 1278.38 1548.6 Q1282.42 1545.54 1290.41 1545.54 L1298.62 1545.54 L1298.62 1544.97 Q1298.62 1540.93 1295.95 1538.73 Q1293.31 1536.5 1288.5 1536.5 Q1285.45 1536.5 1282.55 1537.23 Q1279.65 1537.97 1276.98 1539.43 L1276.98 1534.02 Q1280.19 1532.78 1283.22 1532.17 Q1286.24 1531.54 1289.11 1531.54 Q1296.84 1531.54 1300.66 1535.55 Q1304.48 1539.56 1304.48 1547.71 Z" fill="#000000" fill-rule="nonzero" fill-opacity="1" /><path clip-path="url(#clip100)" d="M1322.34 1522.27 L1322.34 1532.4 L1334.4 1532.4 L1334.4 1536.95 L1322.34 1536.95 L1322.34 1556.3 Q1322.34 1560.66 1323.51 1561.9 Q1324.72 1563.14 1328.38 1563.14 L1334.4 1563.14 L1334.4 1568.04 L1328.38 1568.04 Q1321.6 1568.04 1319.03 1565.53 Q1316.45 1562.98 1316.45 1556.3 L1316.45 1536.95 L1312.15 1536.95 L1312.15 1532.4 L1316.45 1532.4 L1316.45 1522.27 L1322.34 1522.27 Z" fill="#000000" fill-rule="nonzero" fill-opacity="1" /><path clip-path="url(#clip100)" d="M1342.1 1532.4 L1347.96 1532.4 L1347.96 1568.04 L1342.1 1568.04 L1342.1 1532.4 M1342.1 1518.52 L1347.96 1518.52 L1347.96 1525.93 L1342.1 1525.93 L1342.1 1518.52 Z" fill="#000000" fill-rule="nonzero" fill-opacity="1" /><path clip-path="url(#clip100)" d="M1374.02 1536.5 Q1369.31 1536.5 1366.58 1540.19 Q1363.84 1543.85 1363.84 1550.25 Q1363.84 1556.65 1366.55 1560.34 Q1369.28 1564 1374.02 1564 Q1378.7 1564 1381.44 1560.31 Q1384.18 1556.62 1384.18 1550.25 Q1384.18 1543.92 1381.44 1540.23 Q1378.7 1536.5 1374.02 1536.5 M1374.02 1531.54 Q1381.66 1531.54 1386.02 1536.5 Q1390.38 1541.47 1390.38 1550.25 Q1390.38 1559 1386.02 1564 Q1381.66 1568.97 1374.02 1568.97 Q1366.35 1568.97 1361.99 1564 Q1357.66 1559 1357.66 1550.25 Q1357.66 1541.47 1361.99 1536.5 Q1366.35 1531.54 1374.02 1531.54 Z" fill="#000000" fill-rule="nonzero" fill-opacity="1" /><path clip-path="url(#clip100)" d="M1429.72 1546.53 L1429.72 1568.04 L1423.87 1568.04 L1423.87 1546.72 Q1423.87 1541.66 1421.89 1539.14 Q1419.92 1536.63 1415.97 1536.63 Q1411.23 1536.63 1408.5 1539.65 Q1405.76 1542.68 1405.76 1547.9 L1405.76 1568.04 L1399.87 1568.04 L1399.87 1532.4 L1405.76 1532.4 L1405.76 1537.93 Q1407.86 1534.72 1410.69 1533.13 Q1413.56 1531.54 1417.28 1531.54 Q1423.42 1531.54 1426.57 1535.36 Q1429.72 1539.14 1429.72 1546.53 Z" fill="#000000" fill-rule="nonzero" fill-opacity="1" /><polyline clip-path="url(#clip100)" style="stroke:#000000; stroke-linecap:round; stroke-linejoin:round; stroke-width:4; stroke-opacity:1; fill:none" points="242.135,1423.18 242.135,47.2441 "/>
<polyline clip-path="url(#clip100)" style="stroke:#000000; stroke-linecap:round; stroke-linejoin:round; stroke-width:4; stroke-opacity:1; fill:none" points="242.135,1423.18 261.032,1423.18 "/>
<polyline clip-path="url(#clip100)" style="stroke:#000000; stroke-linecap:round; stroke-linejoin:round; stroke-width:4; stroke-opacity:1; fill:none" points="242.135,1049.13 261.032,1049.13 "/>
<polyline clip-path="url(#clip100)" style="stroke:#000000; stroke-linecap:round; stroke-linejoin:round; stroke-width:4; stroke-opacity:1; fill:none" points="242.135,675.088 261.032,675.088 "/>
<polyline clip-path="url(#clip100)" style="stroke:#000000; stroke-linecap:round; stroke-linejoin:round; stroke-width:4; stroke-opacity:1; fill:none" points="242.135,301.043 261.032,301.043 "/>
<path clip-path="url(#clip100)" d="M114.26 1423.63 L143.936 1423.63 L143.936 1427.57 L114.26 1427.57 L114.26 1423.63 Z" fill="#000000" fill-rule="nonzero" fill-opacity="1" /><path clip-path="url(#clip100)" d="M154.839 1436.52 L162.477 1436.52 L162.477 1410.16 L154.167 1411.83 L154.167 1407.57 L162.431 1405.9 L167.107 1405.9 L167.107 1436.52 L174.746 1436.52 L174.746 1440.46 L154.839 1440.46 L154.839 1436.52 Z" fill="#000000" fill-rule="nonzero" fill-opacity="1" /><path clip-path="url(#clip100)" d="M194.19 1408.98 Q190.579 1408.98 188.75 1412.54 Q186.945 1416.08 186.945 1423.21 Q186.945 1430.32 188.75 1433.89 Q190.579 1437.43 194.19 1437.43 Q197.825 1437.43 199.63 1433.89 Q201.459 1430.32 201.459 1423.21 Q201.459 1416.08 199.63 1412.54 Q197.825 1408.98 194.19 1408.98 M194.19 1405.27 Q200 1405.27 203.056 1409.88 Q206.135 1414.46 206.135 1423.21 Q206.135 1431.94 203.056 1436.55 Q200 1441.13 194.19 1441.13 Q188.38 1441.13 185.301 1436.55 Q182.246 1431.94 182.246 1423.21 Q182.246 1414.46 185.301 1409.88 Q188.38 1405.27 194.19 1405.27 Z" fill="#000000" fill-rule="nonzero" fill-opacity="1" /><path clip-path="url(#clip100)" d="M144.515 1049.59 L174.19 1049.59 L174.19 1053.52 L144.515 1053.52 L144.515 1049.59 Z" fill="#000000" fill-rule="nonzero" fill-opacity="1" /><path clip-path="url(#clip100)" d="M194.283 1050 Q190.95 1050 189.028 1051.78 Q187.13 1053.57 187.13 1056.69 Q187.13 1059.82 189.028 1061.6 Q190.95 1063.38 194.283 1063.38 Q197.616 1063.38 199.537 1061.6 Q201.459 1059.79 201.459 1056.69 Q201.459 1053.57 199.537 1051.78 Q197.639 1050 194.283 1050 M189.607 1048.01 Q186.598 1047.27 184.908 1045.21 Q183.241 1043.15 183.241 1040.19 Q183.241 1036.04 186.181 1033.64 Q189.144 1031.23 194.283 1031.23 Q199.445 1031.23 202.385 1033.64 Q205.324 1036.04 205.324 1040.19 Q205.324 1043.15 203.635 1045.21 Q201.968 1047.27 198.982 1048.01 Q202.362 1048.8 204.237 1051.09 Q206.135 1053.38 206.135 1056.69 Q206.135 1061.72 203.056 1064.4 Q200 1067.09 194.283 1067.09 Q188.565 1067.09 185.487 1064.4 Q182.431 1061.72 182.431 1056.69 Q182.431 1053.38 184.329 1051.09 Q186.227 1048.8 189.607 1048.01 M187.894 1040.63 Q187.894 1043.31 189.561 1044.82 Q191.25 1046.32 194.283 1046.32 Q197.292 1046.32 198.982 1044.82 Q200.695 1043.31 200.695 1040.63 Q200.695 1037.94 198.982 1036.44 Q197.292 1034.93 194.283 1034.93 Q191.25 1034.93 189.561 1036.44 Q187.894 1037.94 187.894 1040.63 Z" fill="#000000" fill-rule="nonzero" fill-opacity="1" /><path clip-path="url(#clip100)" d="M144.26 675.54 L173.936 675.54 L173.936 679.475 L144.26 679.475 L144.26 675.54 Z" fill="#000000" fill-rule="nonzero" fill-opacity="1" /><path clip-path="url(#clip100)" d="M194.607 673.225 Q191.459 673.225 189.607 675.378 Q187.778 677.531 187.778 681.281 Q187.778 685.007 189.607 687.183 Q191.459 689.336 194.607 689.336 Q197.755 689.336 199.584 687.183 Q201.436 685.007 201.436 681.281 Q201.436 677.531 199.584 675.378 Q197.755 673.225 194.607 673.225 M203.889 658.572 L203.889 662.832 Q202.13 661.998 200.325 661.558 Q198.542 661.119 196.783 661.119 Q192.153 661.119 189.7 664.244 Q187.269 667.369 186.922 673.688 Q188.288 671.674 190.348 670.609 Q192.408 669.521 194.885 669.521 Q200.093 669.521 203.102 672.693 Q206.135 675.841 206.135 681.281 Q206.135 686.605 202.987 689.822 Q199.838 693.04 194.607 693.04 Q188.612 693.04 185.44 688.456 Q182.269 683.85 182.269 675.123 Q182.269 666.929 186.158 662.068 Q190.047 657.183 196.598 657.183 Q198.357 657.183 200.139 657.531 Q201.945 657.878 203.889 658.572 Z" fill="#000000" fill-rule="nonzero" fill-opacity="1" /><path clip-path="url(#clip100)" d="M143.936 301.494 L173.612 301.494 L173.612 305.429 L143.936 305.429 L143.936 301.494 Z" fill="#000000" fill-rule="nonzero" fill-opacity="1" /><path clip-path="url(#clip100)" d="M196.551 287.837 L184.746 306.286 L196.551 306.286 L196.551 287.837 M195.325 283.763 L201.204 283.763 L201.204 306.286 L206.135 306.286 L206.135 310.175 L201.204 310.175 L201.204 318.323 L196.551 318.323 L196.551 310.175 L180.95 310.175 L180.95 305.661 L195.325 283.763 Z" fill="#000000" fill-rule="nonzero" fill-opacity="1" /><path clip-path="url(#clip100)" d="M16.4842 816.375 L16.4842 786.329 L21.895 786.329 L21.895 809.945 L35.9632 809.945 L35.9632 787.315 L41.3741 787.315 L41.3741 809.945 L58.5933 809.945 L58.5933 785.756 L64.0042 785.756 L64.0042 816.375 L16.4842 816.375 Z" fill="#000000" fill-rule="nonzero" fill-opacity="1" /><path clip-path="url(#clip100)" d="M16.4842 775.189 L16.4842 768.759 L58.5933 768.759 L58.5933 745.62 L64.0042 745.62 L64.0042 775.189 L16.4842 775.189 Z" fill="#000000" fill-rule="nonzero" fill-opacity="1" /><path clip-path="url(#clip100)" d="M41.3104 732.443 L58.7206 732.443 L58.7206 722.13 Q58.7206 716.942 56.5881 714.46 Q54.4238 711.945 49.9996 711.945 Q45.5436 711.945 43.4429 714.46 Q41.3104 716.942 41.3104 722.13 L41.3104 732.443 M21.7677 732.443 L36.0905 732.443 L36.0905 722.926 Q36.0905 718.216 34.34 715.924 Q32.5576 713.6 28.9291 713.6 Q25.3325 713.6 23.5501 715.924 Q21.7677 718.216 21.7677 722.926 L21.7677 732.443 M16.4842 738.872 L16.4842 722.449 Q16.4842 715.096 19.5397 711.118 Q22.5952 707.139 28.2289 707.139 Q32.5894 707.139 35.1675 709.176 Q37.7456 711.213 38.3822 715.16 Q39.4007 710.418 42.6472 707.808 Q45.8619 705.166 50.6998 705.166 Q57.0655 705.166 60.5348 709.495 Q64.0042 713.823 64.0042 721.812 L64.0042 738.872 L16.4842 738.872 Z" fill="#000000" fill-rule="nonzero" fill-opacity="1" /><path clip-path="url(#clip100)" d="M20.8447 676.011 Q20.8447 683.013 26.0645 687.151 Q31.2844 691.257 40.2919 691.257 Q49.2675 691.257 54.4874 687.151 Q59.7073 683.013 59.7073 676.011 Q59.7073 669.009 54.4874 664.935 Q49.2675 660.829 40.2919 660.829 Q31.2844 660.829 26.0645 664.935 Q20.8447 669.009 20.8447 676.011 M15.6248 676.011 Q15.6248 666.017 22.3406 660.033 Q29.0246 654.049 40.2919 654.049 Q51.5274 654.049 58.2432 660.033 Q64.9272 666.017 64.9272 676.011 Q64.9272 686.037 58.2432 692.052 Q51.5592 698.036 40.2919 698.036 Q29.0246 698.036 22.3406 692.052 Q15.6248 686.037 15.6248 676.011 Z" fill="#000000" fill-rule="nonzero" fill-opacity="1" /><polyline clip-path="url(#clip102)" style="stroke:#009af9; stroke-linecap:round; stroke-linejoin:round; stroke-width:4; stroke-opacity:1; fill:none" points="301.869,911.7 302.533,1685.13 303.197,2719.89 303.861,4407.03 304.525,1003.63 305.189,2208.87 305.853,1456.69 306.517,876.251 307.181,723.382 307.845,1019.57 308.509,1236.95 309.173,1104.12 309.836,1006.61 310.5,3840.81 311.164,1104.76 311.828,1457.68 312.492,755.553 313.156,1203.2 313.82,946.637 314.484,1066.19 315.148,1648.91 315.812,1250.25 316.476,2086.18 317.14,903.997 317.804,915.524 318.468,1248.26 319.132,1048.38 319.796,1244.61 320.46,1865.66 321.123,992.845 321.787,1062.34 322.451,2061.99 323.115,1243.28 323.779,3503.62 324.443,1137.22 325.107,924.281 325.771,3697.32 326.435,1632.65 327.099,825.072 327.763,937.993 328.427,2233.06 329.091,1972.94 329.755,1187.53 330.419,1920.02 331.083,1741.61 331.746,1047.41 332.41,869.474 333.074,1686.77 333.738,958.28 334.402,981.024 335.066,1001.38 335.73,963.196 336.394,901.404 337.058,867.915 337.722,973.967 338.386,922.093 339.05,806.022 339.714,722.036 340.378,881.479 341.042,794.527 341.706,670.899 342.369,752.903 343.033,706.927 343.697,622.694 344.361,2840.74 345.025,963.418 345.689,908.783 346.353,1025.56 347.017,844.357 347.681,938.551 348.345,938.495 349.009,936.086 349.673,896.637 350.337,818.659 351.001,865.667 351.665,859.773 352.329,823.712 352.993,901.007 353.656,687.986 354.32,826.113 354.984,766.032 355.648,649.212 356.312,735.348 356.976,704.627 357.64,850.777 358.304,844.351 358.968,721.553 359.632,452.465 360.296,567.681 360.96,620.949 361.624,727.397 362.288,498.395 362.952,640.387 363.616,599.815 364.279,498.157 364.943,513.735 365.607,493.459 366.271,396.784 366.935,389.27 367.599,345.092 368.263,342.337 368.927,388.517 369.591,535.141 370.255,408.153 370.919,485.523 371.583,464.62 372.247,314.154 372.911,349.992 373.575,253.686 374.239,448.65 374.902,458.624 375.566,278.091 376.23,473.206 376.894,288.504 377.558,297.221 378.222,401.547 378.886,394.908 379.55,385.422 380.214,423.372 380.878,448.752 381.542,346.229 382.206,383.35 382.87,414.309 383.534,400.399 384.198,258.172 384.862,411.082 385.526,307.754 386.189,329.433 386.853,297.979 387.517,310.699 388.181,318.783 388.845,315.293 389.509,397.756 390.173,217.073 390.837,341.794 391.501,283.014 392.165,264.941 392.829,452.097 393.493,251.866 394.157,343.836 394.821,282.795 395.485,320.995 396.149,252.245 396.812,267.652 397.476,320.278 398.14,243.842 398.804,383.858 399.468,220.308 400.132,351.794 400.796,293.044 401.46,363.665 402.124,414.379 402.788,297.777 403.452,276.528 404.116,226.614 404.78,266.219 405.444,306.331 406.108,366.46 406.772,240.771 407.435,293.237 408.099,307.97 408.763,349.794 409.427,256.601 410.091,402.003 410.755,215.374 411.419,235.394 412.083,267.969 412.747,255.694 413.411,320.924 414.075,255.487 414.739,247.679 415.403,325.136 416.067,243.92 416.731,145.943 417.395,261.861 418.058,195.057 418.722,221.074 419.386,313.285 420.05,289.409 420.714,230.948 421.378,534.442 422.042,361.276 422.706,219.981 423.37,225.999 424.034,199.256 424.698,320.043 425.362,219.502 426.026,260.807 426.69,308.48 427.354,331.827 428.018,257.464 428.682,351.046 429.345,294.844 430.009,234.684 430.673,264.644 431.337,264.051 432.001,279.305 432.665,184.811 433.329,197.87 433.993,177.51 434.657,452.517 435.321,877.788 435.985,415.208 436.649,217.152 437.313,209.621 437.977,286.612 438.641,571.754 439.305,570.222 439.968,331.054 440.632,309.371 441.296,199.986 441.96,300.244 442.624,273.694 443.288,255.539 443.952,214.838 444.616,225.83 445.28,264.701 445.944,218.823 446.608,179.393 447.272,162.016 447.936,279.47 448.6,251.7 449.264,282.863 449.928,230.591 450.591,402.65 451.255,503.115 451.919,303.764 452.583,294.813 453.247,237.063 453.911,198.62 454.575,342.215 455.239,313.444 455.903,233.675 456.567,260.993 457.231,215.055 457.895,256.072 458.559,253.054 459.223,213.306 459.887,269.471 460.551,321.858 461.215,352.022 461.878,233.853 462.542,185.367 463.206,259.36 463.87,236.051 464.534,272.339 465.198,233.02 465.862,267.516 466.526,309.426 467.19,194.909 467.854,226.826 468.518,251.307 469.182,261.99 469.846,237.819 470.51,318.529 471.174,129.277 471.838,246.01 472.501,611.201 473.165,200.345 473.829,162.388 474.493,247.855 475.157,251.264 475.821,321.422 476.485,221.282 477.149,150.385 477.813,214.498 478.477,373.823 479.141,668.315 479.805,225.313 480.469,187.792 481.133,358.257 481.797,178.314 482.461,307.246 483.124,219.401 483.788,265.043 484.452,269.477 485.116,318.528 485.78,227.721 486.444,242.238 487.108,210.719 487.772,227.006 488.436,249.46 489.1,253.897 489.764,257.85 490.428,181.531 491.092,174.758 491.756,209.764 492.42,238.265 493.084,247.978 493.748,253.559 494.411,222.042 495.075,183.495 495.739,163.765 496.403,157.474 497.067,317.093 497.731,317.942 498.395,262.671 499.059,266.618 499.723,242.456 500.387,232.712 501.051,224.142 501.715,312.357 502.379,331.385 503.043,176.636 503.707,179.235 504.371,331.102 505.034,408.612 505.698,234.169 506.362,331.123 507.026,182.712 507.69,194.41 508.354,220.625 509.018,210.779 509.682,196.652 510.346,213.52 511.01,211.3 511.674,229.216 512.338,278.169 513.002,286.417 513.666,319.494 514.33,218.022 514.994,127.702 515.657,359.206 516.321,343.992 516.985,241.633 517.649,279.158 518.313,280.973 518.977,240.424 519.641,206.92 520.305,231.209 520.969,275.433 521.633,254.465 522.297,335.469 522.961,159.794 523.625,228.803 524.289,179.66 524.953,303.195 525.617,188.232 526.281,232.364 526.944,161.454 527.608,161.826 528.272,276.334 528.936,213.833 529.6,300.348 530.264,272.708 530.928,227.216 531.592,324.853 532.256,363.628 532.92,314.345 533.584,225.034 534.248,152.79 534.912,221.112 535.576,197.685 536.24,153.167 536.904,193.78 537.567,214.614 538.231,196.625 538.895,216.788 539.559,232.303 540.223,163.163 540.887,692.393 541.551,848.586 542.215,448.148 542.879,207.079 543.543,223.756 544.207,180.335 544.871,194.622 545.535,234.316 546.199,174.67 546.863,229.242 547.527,271.592 548.19,207.931 548.854,152.743 549.518,282.221 550.182,224.151 550.846,257.096 551.51,200.744 552.174,170.531 552.838,289.282 553.502,291.907 554.166,266.562 554.83,195.926 555.494,222.416 556.158,47.2441 556.822,184.667 557.486,184.109 558.15,196.813 558.813,283.587 559.477,548.421 560.141,255.575 560.805,196.056 561.469,163.769 562.133,231.754 562.797,267.03 563.461,322.09 564.125,257.233 564.789,178.024 565.453,289.003 566.117,183.97 566.781,221.26 567.445,243.691 568.109,206.599 568.773,216.684 569.437,184.619 570.1,443.869 570.764,618.417 571.428,212.11 572.092,223.076 572.756,201.617 573.42,215.857 574.084,176.823 574.748,237.18 575.412,270.277 576.076,195.837 576.74,203.612 577.404,172.919 578.068,244.932 578.732,276.645 579.396,251.19 580.06,309.941 580.723,242.649 581.387,205.575 582.051,293.052 582.715,416.991 583.379,190.789 584.043,205.225 584.707,236.852 585.371,209.771 586.035,225.263 586.699,298.824 587.363,228.366 588.027,320.917 588.691,498.26 589.355,169.931 590.019,272.841 590.683,163.986 591.346,365.06 592.01,350.937 592.674,437.622 593.338,192.105 594.002,166.264 594.666,197.487 595.33,282.639 595.994,236.427 596.658,238.42 597.322,171.988 597.986,207.839 598.65,265.367 599.314,227.598 599.978,215.078 600.642,166.785 601.306,211.744 601.97,202.203 602.633,222.222 603.297,177.396 603.961,174.474 604.625,172.438 605.289,162.905 605.953,245.561 606.617,179.725 607.281,191.964 607.945,232.802 608.609,94.6596 609.273,132.9 609.937,168.783 610.601,186.297 611.265,234.196 611.929,159.042 612.593,127.308 613.256,172.537 613.92,260.101 614.584,163.693 615.248,244.588 615.912,84.0482 616.576,175.158 617.24,210.76 617.904,212.671 618.568,205.405 619.232,270.338 619.896,208.37 620.56,214.292 621.224,352.95 621.888,222.359 622.552,177.514 623.216,163.094 623.879,215.305 624.543,218.538 625.207,196.172 625.871,241.76 626.535,202.583 627.199,185.149 627.863,230.282 628.527,219.305 629.191,183.6 629.855,191.169 630.519,178.188 631.183,276.323 631.847,81.0031 632.511,143.342 633.175,226.749 633.839,254.009 634.503,172.556 635.166,254.455 635.83,278.941 636.494,179.227 637.158,316.581 637.822,201.691 638.486,261.992 639.15,161.202 639.814,151.407 640.478,252.767 641.142,229.392 641.806,412.239 642.47,245.472 643.134,249.659 643.798,160.852 644.462,193.036 645.126,233.852 645.789,196.535 646.453,367.951 647.117,268.101 647.781,261.317 648.445,202.289 649.109,78.7386 649.773,188.679 650.437,362.388 651.101,252.996 651.765,318.716 652.429,161.497 653.093,361.192 653.757,316.655 654.421,215.2 655.085,242.4 655.749,264.148 656.412,209.871 657.076,267.388 657.74,131.196 658.404,138.461 659.068,173.667 659.732,356.233 660.396,226.762 661.06,201 661.724,248.609 662.388,157.494 663.052,231.289 663.716,247.866 664.38,225.498 665.044,245.529 665.708,240.371 666.372,235.443 667.036,157.72 667.699,163.397 668.363,202.944 669.027,230.293 669.691,432.943 670.355,173.215 671.019,209.254 671.683,201.334 672.347,217.809 673.011,207.906 673.675,187.072 674.339,249.303 675.003,130.759 675.667,219.356 676.331,169.311 676.995,223.076 677.659,135.452 678.322,190.732 678.986,219.685 679.65,256.619 680.314,212.526 680.978,148.499 681.642,180.491 682.306,235.7 682.97,228.578 683.634,198.678 684.298,225.28 684.962,190.759 685.626,179.779 686.29,313.065 686.954,238.7 687.618,192.527 688.282,153.499 688.945,223.576 689.609,250.34 690.273,172.414 690.937,189.909 691.601,177.572 692.265,187.779 692.929,215.55 693.593,170.335 694.257,245.625 694.921,193.709 695.585,231.862 696.249,157.334 696.913,200.374 697.577,264.745 698.241,374.023 698.905,179.939 699.569,202.399 700.232,192.181 700.896,166.266 701.56,196.602 702.224,270.298 702.888,341.102 703.552,195.083 704.216,127.661 704.88,305.964 705.544,230.631 706.208,111.336 706.872,88.6135 707.536,232.147 708.2,238.909 708.864,189.785 709.528,194.51 710.192,259.647 710.855,212.799 711.519,187.485 712.183,231.509 712.847,198.708 713.511,117.264 714.175,162.254 714.839,199.371 715.503,171.42 716.167,158.829 716.831,109.551 717.495,281.072 718.159,195.306 718.823,171.592 719.487,158.638 720.151,211.029 720.815,199.931 721.478,186.486 722.142,178.258 722.806,192.009 723.47,213.96 724.134,190.945 724.798,211.256 725.462,172.724 726.126,136.869 726.79,306.058 727.454,145.534 728.118,163.68 728.782,250.838 729.446,215.404 730.11,212.536 730.774,164.364 731.438,146.16 732.101,219.773 732.765,236.968 733.429,191.146 734.093,100.091 734.757,226.437 735.421,232.949 736.085,174.888 736.749,132.596 737.413,158.647 738.077,209.987 738.741,200.423 739.405,131.442 740.069,243.296 740.733,167.801 741.397,206.304 742.061,141.079 742.725,195.356 743.388,160.291 744.052,208.152 744.716,136.452 745.38,204.169 746.044,175.6 746.708,203.304 747.372,210.607 748.036,246.956 748.7,189.164 749.364,235.188 750.028,174.125 750.692,176.362 751.356,183.508 752.02,137.153 752.684,234.908 753.348,178.021 754.011,129.163 754.675,168.689 755.339,202.439 756.003,247.18 756.667,269.12 757.331,316.118 757.995,187.481 758.659,177.596 759.323,161.733 759.987,214.205 760.651,214.622 761.315,208.817 761.979,176.485 762.643,182.725 763.307,195.082 763.971,179.88 764.634,104.022 765.298,205.899 765.962,181.804 766.626,130.072 767.29,161.326 767.954,149.375 768.618,233.012 769.282,115.176 769.946,138.052 770.61,183.33 771.274,164.49 771.938,177.135 772.602,194.535 773.266,122.75 773.93,251.7 774.594,289.972 775.258,161.653 775.921,146.304 776.585,354.437 777.249,356.036 777.913,139.057 778.577,240.208 779.241,263.954 779.905,228.574 780.569,159.619 781.233,146.747 781.897,183.218 782.561,89.0257 783.225,207.36 783.889,107.455 784.553,267.974 785.217,198.333 785.881,273.674 786.544,78.7652 787.208,206.677 787.872,212.161 788.536,187.611 789.2,151.405 789.864,188.112 790.528,204.46 791.192,178.96 791.856,260.489 792.52,169.242 793.184,214.267 793.848,206.576 794.512,151.421 795.176,179.514 795.84,213.629 796.504,205.949 797.167,169.549 797.831,212.879 798.495,211 799.159,190.023 799.823,242.28 800.487,163.651 801.151,165.679 801.815,175.888 802.479,248.945 803.143,220.76 803.807,254.561 804.471,256.469 805.135,185.231 805.799,129.014 806.463,180.04 807.127,191.191 807.791,299.844 808.454,208.86 809.118,145.263 809.782,242.882 810.446,85.2889 811.11,140.858 811.774,196.595 812.438,170.526 813.102,154.693 813.766,297.575 814.43,359.538 815.094,223.959 815.758,173.395 816.422,179.354 817.086,179.135 817.75,247.473 818.414,218.977 819.077,227.117 819.741,182.131 820.405,117.566 821.069,169.583 821.733,172.689 822.397,181.836 823.061,187.201 823.725,166.54 824.389,265.085 825.053,190.029 825.717,203.118 826.381,181.876 827.045,204.958 827.709,211.394 828.373,192.558 829.037,200.118 829.7,200.768 830.364,191.078 831.028,192.824 831.692,150.852 832.356,167.057 833.02,179.128 833.684,183.136 834.348,175.419 835.012,165.093 835.676,173.986 836.34,192.718 837.004,191.772 837.668,122.763 838.332,210.135 838.996,172.312 839.66,157.69 840.324,191.025 840.987,185.012 841.651,167.43 842.315,176.67 842.979,178.945 843.643,192.199 844.307,187.738 844.971,114.971 845.635,240.297 846.299,188.211 846.963,161.399 847.627,181.468 848.291,163.938 848.955,111.155 849.619,178.035 850.283,213.557 850.947,197.785 851.61,199.8 852.274,172.82 852.938,187.83 853.602,228.38 854.266,162.996 854.93,176.676 855.594,180.416 856.258,163.889 856.922,197.526 857.586,170.515 858.25,250.631 858.914,193.067 859.578,167.363 860.242,204.976 860.906,180.567 861.57,164.672 862.233,187.626 862.897,182.737 863.561,158.46 864.225,141.579 864.889,156.44 865.553,203.423 866.217,171.498 866.881,185.957 867.545,166.723 868.209,195.784 868.873,188.069 869.537,166.767 870.201,156.923 870.865,158.845 871.529,190.084 872.193,211.999 872.856,161.248 873.52,219.835 874.184,178.378 874.848,154.465 875.512,174.715 876.176,259.728 876.84,142.777 877.504,209.366 878.168,204.853 878.832,173.431 879.496,150.32 880.16,164.558 880.824,165.066 881.488,126.079 882.152,169.454 882.816,244.147 883.48,182.601 884.143,144.399 884.807,167.368 885.471,207.277 886.135,239.584 886.799,152.726 887.463,198.563 888.127,183.046 888.791,163.66 889.455,145.269 890.119,249.841 890.783,234.993 891.447,136.24 892.111,330.202 892.775,191.91 893.439,215.536 894.103,226.644 894.766,184.055 895.43,218.07 896.094,324.852 896.758,165.865 897.422,201.744 898.086,210.833 898.75,185.192 899.414,191.349 900.078,192.685 900.742,182.807 901.406,184.197 902.07,169.75 902.734,167.917 903.398,219.214 904.062,177.925 904.726,200.904 905.389,241.487 906.053,129.748 906.717,192.855 907.381,303.998 908.045,213.483 908.709,195.461 909.373,238.445 910.037,207.799 910.701,115.829 911.365,189.09 912.029,232.833 912.693,218.143 913.357,148.747 914.021,185.322 914.685,170.529 915.349,269.452 916.013,96.8366 916.676,308.213 917.34,388.578 918.004,274.913 918.668,178.474 919.332,230.006 919.996,158.336 920.66,214.162 921.324,187.117 921.988,166.068 922.652,229.135 923.316,114.751 923.98,207.717 924.644,210.104 925.308,236.609 925.972,242.603 926.636,162.352 927.299,195.061 927.963,249.075 928.627,123.22 929.291,162.982 929.955,197.275 930.619,229.415 931.283,166.732 931.947,154.201 932.611,60.4961 933.275,189.31 933.939,150.975 934.603,325.962 935.267,190.225 935.931,268.455 936.595,180.79 937.259,168.297 937.922,158.513 938.586,180.437 939.25,186.938 939.914,193.462 940.578,196.797 941.242,259.414 941.906,201.488 942.57,160.127 943.234,189.308 943.898,143.297 944.562,148.453 945.226,156.347 945.89,86.5071 946.554,189.97 947.218,165.79 947.882,206.621 948.546,176.963 949.209,154.061 949.873,143.071 950.537,188.912 951.201,196.854 951.865,145.429 952.529,160.618 953.193,179.365 953.857,251.736 954.521,222.777 955.185,170.889 955.849,196.616 956.513,158.27 957.177,190.126 957.841,139.716 958.505,203.666 959.169,210.549 959.832,252.117 960.496,186.525 961.16,200.146 961.824,158.764 962.488,480.461 963.152,304.205 963.816,210.971 964.48,286.759 965.144,200.326 965.808,216.382 966.472,190.14 967.136,173.675 967.8,136.969 968.464,210.551 969.128,197.9 969.792,141.028 970.455,226.784 971.119,216.158 971.783,128.399 972.447,212.75 973.111,186.828 973.775,164.889 974.439,200.644 975.103,158.351 975.767,182.86 976.431,90.6135 977.095,262.1 977.759,217.468 978.423,177.716 979.087,153.376 979.751,205.26 980.415,194.751 981.079,160.122 981.742,193.077 982.406,199.172 983.07,180.859 983.734,141.976 984.398,228.56 985.062,205.318 985.726,217.753 986.39,188.509 987.054,194.323 987.718,140.946 988.382,111.171 989.046,205.618 989.71,186.67 990.374,147.255 991.038,206.039 991.702,187.454 992.365,139.488 993.029,174.79 993.693,177.171 994.357,168.055 995.021,141.027 995.685,286.872 996.349,153.289 997.013,132.816 997.677,149.981 998.341,143.805 999.005,136.442 999.669,176.308 1000.33,119.17 1001,196.724 1001.66,251.666 1002.32,201.48 1002.99,147.707 1003.65,138.615 1004.32,155.327 1004.98,144.059 1005.64,222.27 1006.31,180.697 1006.97,143.169 1007.64,220.834 1008.3,179.405 1008.96,147.178 1009.63,168.354 1010.29,235.772 1010.96,307.744 1011.62,147.897 1012.28,224.128 1012.95,171.036 1013.61,225.426 1014.28,183.334 1014.94,245.503 1015.6,190.032 1016.27,143.602 1016.93,151.394 1017.6,157.858 1018.26,164.507 1018.92,145.252 1019.59,151.907 1020.25,222.366 1020.91,179.687 1021.58,168.057 1022.24,214.749 1022.91,207.885 1023.57,198.746 1024.23,189.067 1024.9,199.924 1025.56,206.898 1026.23,186.82 1026.89,176.39 1027.55,167.337 1028.22,232.765 1028.88,176.954 1029.55,181.373 1030.21,212.581 1030.87,193.676 1031.54,153.711 1032.2,200.218 1032.87,175.755 1033.53,154.889 1034.19,175.556 1034.86,134.518 1035.52,338.871 1036.19,160.868 1036.85,174.353 1037.51,183.876 1038.18,250.936 1038.84,195.11 1039.51,178.051 1040.17,184.09 1040.83,159.177 1041.5,168.028 1042.16,174.421 1042.82,159.439 1043.49,156.517 1044.15,204.712 1044.82,347.841 1045.48,198.04 1046.14,159.71 1046.81,204.004 1047.47,170.504 1048.14,182.496 1048.8,204.2 1049.46,216.982 1050.13,164.493 1050.79,171.99 1051.46,149.184 1052.12,197.509 1052.78,183.447 1053.45,226.784 1054.11,163.79 1054.78,130.932 1055.44,139.79 1056.1,183.521 1056.77,170.292 1057.43,160.333 1058.1,208.251 1058.76,158.759 1059.42,190.777 1060.09,188.98 1060.75,165.884 1061.42,187.016 1062.08,213.255 1062.74,140.942 1063.41,165.452 1064.07,171.465 1064.73,178.407 1065.4,208.893 1066.06,176.95 1066.73,177.201 1067.39,156.355 1068.05,172.846 1068.72,177.175 1069.38,153.142 1070.05,163.952 1070.71,227.334 1071.37,101.26 1072.04,230.227 1072.7,139.361 1073.37,209.185 1074.03,141.082 1074.69,218.243 1075.36,168.849 1076.02,170.969 1076.69,171.597 1077.35,172.553 1078.01,156.482 1078.68,238.411 1079.34,169.407 1080.01,253.786 1080.67,156.378 1081.33,150.053 1082,182.077 1082.66,120.73 1083.33,426.57 1083.99,219.958 1084.65,243.046 1085.32,250.392 1085.98,211.235 1086.64,136.071 1087.31,136.507 1087.97,210.648 1088.64,206.652 1089.3,187.106 1089.96,184.45 1090.63,171.263 1091.29,157.358 1091.96,315.172 1092.62,250.187 1093.28,188.039 1093.95,158.127 1094.61,204.491 1095.28,238.462 1095.94,153.473 1096.6,227.464 1097.27,142.979 1097.93,162.373 1098.6,159.81 1099.26,190.296 1099.92,156.766 1100.59,252.888 1101.25,56.0387 1101.92,170.58 1102.58,245.285 1103.24,153.984 1103.91,198.947 1104.57,306.081 1105.24,367.781 1105.9,208.381 1106.56,113.297 1107.23,172.313 1107.89,167.366 1108.55,156.183 1109.22,159.743 1109.88,196.534 1110.55,180.996 1111.21,150.614 1111.87,183.221 1112.54,169.758 1113.2,139.641 1113.87,222.566 1114.53,133.087 1115.19,148.1 1115.86,159.503 1116.52,118.598 1117.19,185.723 1117.85,157.175 1118.51,166.956 1119.18,309.221 1119.84,182.093 1120.51,221.719 1121.17,186.386 1121.83,128.079 1122.5,197.932 1123.16,145.434 1123.83,163.935 1124.49,191.155 1125.15,169.256 1125.82,177.508 1126.48,168.9 1127.15,221.262 1127.81,172.227 1128.47,169.214 1129.14,160.643 1129.8,143.103 1130.46,148.771 1131.13,189.639 1131.79,179.441 1132.46,200.196 1133.12,175.402 1133.78,159.707 1134.45,219.123 1135.11,151.097 1135.78,183.292 1136.44,213.95 1137.1,189.105 1137.77,191.258 1138.43,132.85 1139.1,155.549 1139.76,172.991 1140.42,203.397 1141.09,222.074 1141.75,157.761 1142.42,149.41 1143.08,153.337 1143.74,156.135 1144.41,152.851 1145.07,133.348 1145.74,177.089 1146.4,148.921 1147.06,229.967 1147.73,192.451 1148.39,212.155 1149.05,162.949 1149.72,153.134 1150.38,165.95 1151.05,201.141 1151.71,160.217 1152.37,200.037 1153.04,177.425 1153.7,150.297 1154.37,148.43 1155.03,178.842 1155.69,157.42 1156.36,222.023 1157.02,278.487 1157.69,286.357 1158.35,254.856 1159.01,162.368 1159.68,287.555 1160.34,233.541 1161.01,225.019 1161.67,191.718 1162.33,248.346 1163,234.826 1163.66,166.009 1164.33,166.555 1164.99,216.209 1165.65,187.956 1166.32,182.56 1166.98,181.863 1167.65,198.451 1168.31,202.442 1168.97,192.452 1169.64,181.078 1170.3,178.347 1170.96,220.393 1171.63,157.04 1172.29,193.272 1172.96,176.538 1173.62,202.786 1174.28,201.26 1174.95,162.773 1175.61,209.806 1176.28,100.869 1176.94,198.806 1177.6,173.165 1178.27,195.753 1178.93,231.606 1179.6,238.248 1180.26,204.318 1180.92,223.552 1181.59,200.744 1182.25,146.731 1182.92,152.212 1183.58,240.562 1184.24,244.197 1184.91,180.566 1185.57,276.501 1186.24,199.27 1186.9,197.861 1187.56,193.854 1188.23,203.429 1188.89,177.733 1189.56,180.413 1190.22,313.326 1190.88,205.098 1191.55,208.758 1192.21,216.889 1192.87,149.834 1193.54,268.783 1194.2,180.75 1194.87,190.337 1195.53,161.036 1196.19,207.671 1196.86,166.826 1197.52,148.122 1198.19,156.073 1198.85,444.788 1199.51,181.989 1200.18,220.574 1200.84,239.416 1201.51,213.257 1202.17,200.125 1202.83,200.688 1203.5,174.858 1204.16,140.766 1204.83,214.115 1205.49,184.054 1206.15,181.266 1206.82,152.683 1207.48,168.322 1208.15,201.303 1208.81,182.206 1209.47,189.622 1210.14,173.856 1210.8,163.085 1211.47,169.566 1212.13,169.884 1212.79,182.94 1213.46,196.534 1214.12,235.526 1214.78,205.318 1215.45,207.075 1216.11,264.933 1216.78,189.121 1217.44,172.832 1218.1,212.702 1218.77,179.577 1219.43,220.551 1220.1,144.548 1220.76,192.739 1221.42,159.048 1222.09,104.186 1222.75,223.804 1223.42,172.969 1224.08,156.496 1224.74,184.619 1225.41,179.591 1226.07,235.372 1226.74,208.201 1227.4,171.238 1228.06,192.992 1228.73,187.753 1229.39,218.217 1230.06,173.159 1230.72,130.479 1231.38,177.911 1232.05,192.832 1232.71,148.994 1233.38,174.138 1234.04,179.956 1234.7,187.36 1235.37,215.533 1236.03,189.21 1236.69,180.809 1237.36,173.101 1238.02,160.383 1238.69,179.491 1239.35,170.01 1240.01,179.064 1240.68,216.094 1241.34,151.427 1242.01,169.333 1242.67,180.182 1243.33,137.465 1244,158.546 1244.66,120.929 1245.33,246.78 1245.99,158.369 1246.65,201.344 1247.32,207.493 1247.98,214.679 1248.65,195.386 1249.31,135.308 1249.97,161.274 1250.64,164.986 1251.3,233.608 1251.97,179.214 1252.63,122.931 1253.29,180.733 1253.96,174.663 1254.62,187.626 1255.29,187.821 1255.95,190.355 1256.61,196.485 1257.28,166.9 1257.94,166.59 1258.6,173.162 1259.27,154.085 1259.93,330.544 1260.6,213.329 1261.26,183.391 1261.92,171.04 1262.59,233.332 1263.25,170.667 1263.92,157.947 1264.58,220.907 1265.24,148.253 1265.91,159.282 1266.57,192.572 1267.24,163.846 1267.9,222.145 1268.56,225.646 1269.23,207.279 1269.89,157.975 1270.56,194.491 1271.22,195.752 1271.88,114.838 1272.55,186.793 1273.21,177.486 1273.88,155.139 1274.54,176.015 1275.2,166.041 1275.87,238.579 1276.53,169.469 1277.2,143.311 1277.86,214.562 1278.52,176.602 1279.19,181.865 1279.85,176.543 1280.51,173.033 1281.18,114.975 1281.84,223.992 1282.51,197.116 1283.17,161.218 1283.83,1570.95 1284.5,491.465 1285.16,712.869 1285.83,400.888 1286.49,381.576 1287.15,400.11 1287.82,340.132 1288.48,396.137 1289.15,479.702 1289.81,422.13 1290.47,206.588 1291.14,338.062 1291.8,278.651 1292.47,295.728 1293.13,319.395 1293.79,359.094 1294.46,215.371 1295.12,200.431 1295.79,209.082 1296.45,291.006 1297.11,315.539 1297.78,499.868 1298.44,548.453 1299.11,210.575 1299.77,347.496 1300.43,330.818 1301.1,177.99 1301.76,285.089 1302.42,373.182 1303.09,344.48 1303.75,338.756 1304.42,488.287 1305.08,242.434 1305.74,243.839 1306.41,233.711 1307.07,236.231 1307.74,244.933 1308.4,219.185 1309.06,225.715 1309.73,229.562 1310.39,246.02 1311.06,317.608 1311.72,214.752 1312.38,264.294 1313.05,291.757 1313.71,276.762 1314.38,251.045 1315.04,200.116 1315.7,164.956 1316.37,234.239 1317.03,213.467 1317.7,234.229 1318.36,219.36 1319.02,242.153 1319.69,218.236 1320.35,253.831 1321.02,418.731 1321.68,398.024 1322.34,711.209 1323.01,566.553 1323.67,225.275 1324.33,266.228 1325,229.794 1325.66,235.6 1326.33,192.903 1326.99,182.66 1327.65,360.156 1328.32,225.553 1328.98,212.081 1329.65,340.574 1330.31,326.377 1330.97,315.87 1331.64,456.7 1332.3,245.99 1332.97,253.552 1333.63,265.593 1334.29,163.588 1334.96,240.721 1335.62,234.377 1336.29,223.201 1336.95,245.135 1337.61,346.337 1338.28,615.595 1338.94,232.988 1339.61,233.119 1340.27,210.174 1340.93,179.922 1341.6,241.626 1342.26,228.33 1342.93,268.053 1343.59,274.226 1344.25,298.102 1344.92,258.703 1345.58,199.959 1346.24,225.321 1346.91,243.443 1347.57,209.777 1348.24,225.603 1348.9,222.87 1349.56,139.106 1350.23,204.358 1350.89,315.887 1351.56,274.771 1352.22,287.468 1352.88,214.259 1353.55,227.613 1354.21,246.414 1354.88,244.763 1355.54,354.149 1356.2,207.57 1356.87,227.965 1357.53,192.297 1358.2,225.151 1358.86,243.621 1359.52,245.994 1360.19,372.374 1360.85,227.652 1361.52,185.598 1362.18,197.606 1362.84,271.837 1363.51,316.456 1364.17,195.151 1364.84,175.359 1365.5,242.657 1366.16,252.114 1366.83,195.419 1367.49,265.925 1368.15,219.241 1368.82,238.547 1369.48,241.851 1370.15,201.262 1370.81,200.149 1371.47,160.07 1372.14,158.218 1372.8,181.644 1373.47,251.207 1374.13,193.536 1374.79,219.354 1375.46,188.294 1376.12,214.505 1376.79,223.642 1377.45,189.708 1378.11,160.67 1378.78,216.871 1379.44,206.053 1380.11,192.163 1380.77,203.654 1381.43,168.64 1382.1,166.573 1382.76,167.884 1383.43,174.713 1384.09,217.006 1384.75,267.246 1385.42,242.347 1386.08,336.759 1386.75,237.223 1387.41,205.545 1388.07,173.675 1388.74,243.665 1389.4,183.71 1390.06,364.992 1390.73,386.629 1391.39,168.188 1392.06,138.282 1392.72,191.305 1393.38,315.966 1394.05,359.809 1394.71,305.855 1395.38,102.391 1396.04,207.58 1396.7,215.193 1397.37,194.949 1398.03,227.806 1398.7,207.496 1399.36,152.201 1400.02,251.329 1400.69,236.738 1401.35,217.874 1402.02,247.671 1402.68,224.852 1403.34,175.921 1404.01,268.005 1404.67,216.348 1405.34,214.423 1406,173.665 1406.66,230.253 1407.33,196.28 1407.99,236.078 1408.66,212.388 1409.32,201.669 1409.98,187.486 1410.65,180.733 1411.31,223.638 1411.97,237.367 1412.64,265.247 1413.3,272.881 1413.97,265.713 1414.63,170.902 1415.29,237.077 1415.96,213.801 1416.62,258.142 1417.29,203.215 1417.95,231.008 1418.61,195.724 1419.28,213.37 1419.94,225.267 1420.61,130.451 1421.27,192.213 1421.93,199.361 1422.6,203.658 1423.26,134.167 1423.93,381.331 1424.59,333.677 1425.25,193.381 1425.92,225.601 1426.58,151.644 1427.25,168.891 1427.91,172.129 1428.57,243.915 1429.24,171.668 1429.9,201.526 1430.56,175.313 1431.23,171.226 1431.89,213.864 1432.56,201.388 1433.22,171.561 1433.88,236.897 1434.55,210.709 1435.21,304.908 1435.88,232.021 1436.54,202.957 1437.2,165.954 1437.87,195.634 1438.53,283.766 1439.2,172.032 1439.86,214.083 1440.52,102.896 1441.19,218.726 1441.85,185.067 1442.52,166.018 1443.18,193.303 1443.84,190.154 1444.51,202.803 1445.17,199.41 1445.84,262.566 1446.5,154.983 1447.16,417.424 1447.83,226.778 1448.49,179.55 1449.16,393.786 1449.82,438.407 1450.48,209.568 1451.15,279.387 1451.81,177.677 1452.47,161.965 1453.14,205.084 1453.8,226.757 1454.47,218.39 1455.13,217.68 1455.79,184.056 1456.46,184.197 1457.12,200.773 1457.79,132.364 1458.45,186.928 1459.11,214.617 1459.78,208.977 1460.44,148.475 1461.11,195.788 1461.77,249.717 1462.43,302.763 1463.1,226.996 1463.76,259.388 1464.43,371.822 1465.09,234.389 1465.75,196.171 1466.42,209.526 1467.08,167.687 1467.75,223.195 1468.41,204.338 1469.07,153.719 1469.74,197.278 1470.4,198.988 1471.07,345.766 1471.73,194.819 1472.39,181.927 1473.06,181.573 1473.72,128.961 1474.38,155.436 1475.05,173.285 1475.71,149.598 1476.38,410.251 1477.04,784.114 1477.7,438.472 1478.37,267.174 1479.03,198.763 1479.7,220.125 1480.36,213.028 1481.02,215.652 1481.69,133.811 1482.35,261.397 1483.02,276.584 1483.68,159.471 1484.34,211.249 1485.01,203.92 1485.67,156.853 1486.34,212.93 1487,185.346 1487.66,202.581 1488.33,199.899 1488.99,210.041 1489.66,187.799 1490.32,198.864 1490.98,126.482 1491.65,214.67 1492.31,174.908 1492.98,175.803 1493.64,264.455 1494.3,204.369 1494.97,152.263 1495.63,151.397 1496.29,249.692 1496.96,264.81 1497.62,195.021 1498.29,275.453 1498.95,234.292 1499.61,220.769 1500.28,234.882 1500.94,212.27 1501.61,225.085 1502.27,223.974 1502.93,206.557 1503.6,275.646 1504.26,226.455 1504.93,222.377 1505.59,182.635 1506.25,231.991 1506.92,128.325 1507.58,213.974 1508.25,169.861 1508.91,220.183 1509.57,145.805 1510.24,241.815 1510.9,183.227 1511.57,295.628 1512.23,233.817 1512.89,198.413 1513.56,193.635 1514.22,160.666 1514.89,227.408 1515.55,232.11 1516.21,155.802 1516.88,251.827 1517.54,199.761 1518.2,190.191 1518.87,182.009 1519.53,200.427 1520.2,247.165 1520.86,227.432 1521.52,207.582 1522.19,185.628 1522.85,123.363 1523.52,221.776 1524.18,170.141 1524.84,249.86 1525.51,205.252 1526.17,217.147 1526.84,153.504 1527.5,186.171 1528.16,195.193 1528.83,160.417 1529.49,273.802 1530.16,206.659 1530.82,221.374 1531.48,48.2806 1532.15,171.731 1532.81,194.151 1533.48,195.482 1534.14,370.7 1534.8,410.221 1535.47,287.493 1536.13,267.648 1536.8,196.557 1537.46,185.502 1538.12,160.203 1538.79,245.013 1539.45,323.53 1540.11,162.114 1540.78,287.885 1541.44,201.789 1542.11,231.887 1542.77,304.24 1543.43,153.884 1544.1,199.103 1544.76,225.496 1545.43,210.283 1546.09,207.441 1546.75,224.577 1547.42,177.884 1548.08,149.423 1548.75,150.05 1549.41,207.705 1550.07,240.114 1550.74,215.926 1551.4,174.491 1552.07,199.412 1552.73,150.028 1553.39,145.168 1554.06,159.7 1554.72,184.782 1555.39,122.539 1556.05,251.628 1556.71,143.499 1557.38,320.776 1558.04,201.348 1558.71,169.142 1559.37,228.467 1560.03,209.69 1560.7,204.945 1561.36,232.697 1562.02,161.74 1562.69,173.286 1563.35,370.31 1564.02,337.271 1564.68,205.753 1565.34,149.725 1566.01,179.353 1566.67,252.647 1567.34,203.889 1568,196.945 1568.66,236.347 1569.33,185.511 1569.99,172.36 1570.66,172.428 1571.32,187.502 1571.98,164.592 1572.65,207.805 1573.31,116.313 1573.98,190.981 1574.64,173.711 1575.3,153.608 1575.97,245.552 1576.63,285.623 1577.3,172.585 1577.96,187.91 1578.62,268.322 1579.29,143.625 1579.95,126.44 1580.62,158.059 1581.28,141.851 1581.94,300.13 1582.61,214.076 1583.27,206.212 1583.93,194.73 1584.6,174.544 1585.26,176.746 1585.93,182.412 1586.59,209.693 1587.25,256.915 1587.92,199.229 1588.58,204.508 1589.25,308.547 1589.91,150.301 1590.57,227.421 1591.24,173.361 1591.9,221.577 1592.57,225.568 1593.23,181.263 1593.89,281.667 1594.56,195.98 1595.22,238.072 1595.89,223.648 1596.55,140.781 1597.21,192.417 1597.88,200.076 1598.54,205.405 1599.21,152.025 1599.87,179.696 1600.53,170.683 1601.2,202.415 1601.86,196.266 1602.53,178.105 1603.19,160.529 1603.85,175.168 1604.52,187.447 1605.18,216.591 1605.84,213.503 1606.51,195.377 1607.17,183.745 1607.84,139.341 1608.5,143.835 1609.16,166.473 1609.83,153.998 1610.49,375.782 1611.16,140.864 1611.82,459.999 1612.48,184.329 1613.15,129.94 1613.81,181.495 1614.48,141.144 1615.14,173.985 1615.8,238.754 1616.47,189.405 1617.13,151.453 1617.8,134.625 1618.46,210.249 1619.12,173.845 1619.79,179.105 1620.45,180.743 1621.12,205.891 1621.78,184.15 1622.44,310.809 1623.11,202.77 1623.77,242.823 1624.44,246.987 1625.1,201.02 1625.76,186.602 1626.43,182.061 1627.09,166.566 1627.75,228.052 1628.42,171.078 1629.08,154.349 1629.75,197.977 1630.41,206.741 1631.07,289.779 1631.74,205.642 1632.4,195.537 1633.07,178.449 1633.73,191.603 1634.39,187.107 1635.06,117.58 1635.72,280.456 1636.39,248.367 1637.05,192.42 1637.71,247.756 1638.38,165.448 1639.04,141.324 1639.71,254.562 1640.37,194.39 1641.03,158.159 1641.7,174.675 1642.36,178.031 1643.03,110.62 1643.69,162.649 1644.35,199.794 1645.02,313.919 1645.68,209.22 1646.35,163.062 1647.01,205.201 1647.67,233.74 1648.34,175.894 1649,193.89 1649.66,178.638 1650.33,165.616 1650.99,201.26 1651.66,172.155 1652.32,199.309 1652.98,234.231 1653.65,182.912 1654.31,223.975 1654.98,160.841 1655.64,186.379 1656.3,115.831 1656.97,163.52 1657.63,279.167 1658.3,264.482 1658.96,237.419 1659.62,133.519 1660.29,196.895 1660.95,169.552 1661.62,190.64 1662.28,190.429 1662.94,207.15 1663.61,177.632 1664.27,200.372 1664.94,173.259 1665.6,188.809 1666.26,172.709 1666.93,241.56 1667.59,282.889 1668.26,220.057 1668.92,212.373 1669.58,199.243 1670.25,197.947 1670.91,197.877 1671.57,171.84 1672.24,196.97 1672.9,203.439 1673.57,192.185 1674.23,173.4 1674.89,191.292 1675.56,136.341 1676.22,168.216 1676.89,204.772 1677.55,215.45 1678.21,166.571 1678.88,152.891 1679.54,217.08 1680.21,144.158 1680.87,180.948 1681.53,236.865 1682.2,180.028 1682.86,250.274 1683.53,132.607 1684.19,254.66 1684.85,148.941 1685.52,200.499 1686.18,155.763 1686.85,173.769 1687.51,205.32 1688.17,263.916 1688.84,190.202 1689.5,145.218 1690.17,170.907 1690.83,276.315 1691.49,201.505 1692.16,192.825 1692.82,167.78 1693.48,179.012 1694.15,220.774 1694.81,182.393 1695.48,178.947 1696.14,198.764 1696.8,174.862 1697.47,170.557 1698.13,223.305 1698.8,186.501 1699.46,201.009 1700.12,172.758 1700.79,160.582 1701.45,171.544 1702.12,202.023 1702.78,237.979 1703.44,266.225 1704.11,190.279 1704.77,202.752 1705.44,184.416 1706.1,205.687 1706.76,173.659 1707.43,178.562 1708.09,229.603 1708.76,185.452 1709.42,256.519 1710.08,199.474 1710.75,167.192 1711.41,182.807 1712.07,148.171 1712.74,138.928 1713.4,188.15 1714.07,211.056 1714.73,167.353 1715.39,304.437 1716.06,135.993 1716.72,180.706 1717.39,198.482 1718.05,180.872 1718.71,222.309 1719.38,174.284 1720.04,200.066 1720.71,195.857 1721.37,152.975 1722.03,186.443 1722.7,207.072 1723.36,191.341 1724.03,192.798 1724.69,146.57 1725.35,145.873 1726.02,173.08 1726.68,170.077 1727.35,208.77 1728.01,256.889 1728.67,162.701 1729.34,201.793 1730,174.597 1730.67,204.451 1731.33,190.165 1731.99,166.165 1732.66,155.884 1733.32,183.094 1733.98,135.753 1734.65,218.026 1735.31,187.373 1735.98,231.096 1736.64,172.213 1737.3,176.95 1737.97,174.683 1738.63,226.953 1739.3,139.055 1739.96,200.596 1740.62,277.855 1741.29,172.813 1741.95,191.679 1742.62,159.606 1743.28,181.958 1743.94,168.554 1744.61,234.741 1745.27,197.194 1745.94,204.671 1746.6,212.564 1747.26,143.501 1747.93,168.231 1748.59,129.658 1749.26,196.464 1749.92,225.19 1750.58,193.317 1751.25,143.179 1751.91,195.265 1752.58,164.792 1753.24,278.646 1753.9,250.232 1754.57,180.295 1755.23,170.373 1755.89,226.833 1756.56,165.386 1757.22,243.537 1757.89,192.277 1758.55,183.684 1759.21,158.1 1759.88,182.746 1760.54,296.986 1761.21,193.19 1761.87,289.911 1762.53,187.402 1763.2,172.25 1763.86,147.492 1764.53,177.232 1765.19,173.297 1765.85,169.167 1766.52,336.984 1767.18,170.649 1767.85,162.503 1768.51,223.072 1769.17,180.112 1769.84,194.558 1770.5,157.701 1771.17,246.046 1771.83,145.466 1772.49,177.595 1773.16,159.119 1773.82,143.643 1774.49,181.933 1775.15,217.102 1775.81,142.526 1776.48,166.372 1777.14,192.528 1777.8,113.608 1778.47,205.619 1779.13,202.626 1779.8,180.242 1780.46,194.072 1781.12,191.691 1781.79,144.849 1782.45,257.551 1783.12,242.629 1783.78,175.969 1784.44,171.917 1785.11,196.174 1785.77,164.215 1786.44,196.579 1787.1,152.061 1787.76,150.344 1788.43,204.204 1789.09,191.667 1789.76,149.711 1790.42,431.312 1791.08,396.372 1791.75,359.607 1792.41,186.276 1793.08,155.026 1793.74,157.574 1794.4,194.105 1795.07,176.725 1795.73,195.534 1796.4,187.057 1797.06,135.358 1797.72,190.261 1798.39,222.662 1799.05,196.075 1799.71,172.631 1800.38,216.603 1801.04,202.717 1801.71,195.918 1802.37,183.015 1803.03,206.236 1803.7,189.435 1804.36,155.052 1805.03,206.334 1805.69,169.169 1806.35,182.109 1807.02,133.005 1807.68,154.725 1808.35,170.187 1809.01,179.267 1809.67,159.025 1810.34,214.057 1811,172.192 1811.67,156.699 1812.33,187.229 1812.99,224.852 1813.66,135.962 1814.32,175.674 1814.99,159.099 1815.65,140.288 1816.31,177.554 1816.98,184.652 1817.64,194.071 1818.31,168.01 1818.97,233.573 1819.63,143.701 1820.3,182.308 1820.96,201.376 1821.62,192.287 1822.29,171.053 1822.95,203.737 1823.62,163.649 1824.28,172.804 1824.94,180.464 1825.61,149.637 1826.27,218.227 1826.94,191.058 1827.6,157.839 1828.26,195.004 1828.93,185.19 1829.59,119.824 1830.26,119.254 1830.92,439.756 1831.58,368.178 1832.25,332.241 1832.91,151.402 1833.58,171.658 1834.24,138.861 1834.9,147.494 1835.57,164.972 1836.23,233.674 1836.9,197.845 1837.56,172.438 1838.22,186.99 1838.89,188.742 1839.55,201.222 1840.22,165.884 1840.88,198.201 1841.54,174.791 1842.21,184.55 1842.87,170.549 1843.53,158.233 1844.2,170.414 1844.86,166.267 1845.53,154.114 1846.19,155.635 1846.85,163.455 1847.52,128.559 1848.18,172.264 1848.85,159.882 1849.51,268.78 1850.17,266.531 1850.84,296.443 1851.5,170.673 1852.17,193.059 1852.83,177.47 1853.49,181.92 1854.16,148.603 1854.82,159.863 1855.49,170.359 1856.15,169.309 1856.81,207.62 1857.48,241.003 1858.14,130.285 1858.81,216.564 1859.47,229.723 1860.13,143.636 1860.8,188.046 1861.46,171.615 1862.13,187.303 1862.79,203.496 1863.45,246.336 1864.12,163.501 1864.78,184.724 1865.44,158.762 1866.11,191.865 1866.77,150.824 1867.44,188.332 1868.1,164.805 1868.76,185.097 1869.43,165.507 1870.09,182.362 1870.76,209.105 1871.42,171.73 1872.08,148.206 1872.75,179.61 1873.41,169.271 1874.08,184.055 1874.74,194.63 1875.4,302.938 1876.07,195.606 1876.73,156.056 1877.4,179.037 1878.06,148.261 1878.72,305.863 1879.39,193.274 1880.05,155.174 1880.72,155.986 1881.38,175.982 1882.04,187.222 1882.71,175.238 1883.37,176.422 1884.04,184.958 1884.7,152.332 1885.36,168.841 1886.03,110.223 1886.69,165.9 1887.35,185.177 1888.02,168.355 1888.68,171.273 1889.35,205.529 1890.01,164.221 1890.67,168.253 1891.34,159.639 1892,142.9 1892.67,167.959 1893.33,162.747 1893.99,162.301 1894.66,159.492 1895.32,145.945 1895.99,165.948 1896.65,165.043 1897.31,164.577 1897.98,177.507 1898.64,169.77 1899.31,179.717 1899.97,155.07 1900.63,173.93 1901.3,168.873 1901.96,174.783 1902.63,188.093 1903.29,119.82 1903.95,190.567 1904.62,189.34 1905.28,179.271 1905.95,217.554 1906.61,288.9 1907.27,169.618 1907.94,161.941 1908.6,129.461 1909.26,196.677 1909.93,142.707 1910.59,126.754 1911.26,259.332 1911.92,191.239 1912.58,178.782 1913.25,172.035 1913.91,167.509 1914.58,165.964 1915.24,169.775 1915.9,165.388 1916.57,169.504 1917.23,202.774 1917.9,166.885 1918.56,143.995 1919.22,130.505 1919.89,177.025 1920.55,174.971 1921.22,142.31 1921.88,165.551 1922.54,166.53 1923.21,156.745 1923.87,145.26 1924.54,176.192 1925.2,202.935 1925.86,170.859 1926.53,186.499 1927.19,153.689 1927.86,169.459 1928.52,186.852 1929.18,160.331 1929.85,164.825 1930.51,192.301 1931.17,162.465 1931.84,170.689 1932.5,205.885 1933.17,167.456 1933.83,234.254 1934.49,153.418 1935.16,176.887 1935.82,172.441 1936.49,150.429 1937.15,175.304 1937.81,223.56 1938.48,208.023 1939.14,185.6 1939.81,178.294 1940.47,175.761 1941.13,162.943 1941.8,153.842 1942.46,161.384 1943.13,191.273 1943.79,140.195 1944.45,99.217 1945.12,217.717 1945.78,178.636 1946.45,169.034 1947.11,171.786 1947.77,155.854 1948.44,145.032 1949.1,163.173 1949.77,210.799 1950.43,160.226 1951.09,165.286 1951.76,193.62 1952.42,195.423 1953.08,165.385 1953.75,156.506 1954.41,212.992 1955.08,144.382 1955.74,183.52 1956.4,178.46 1957.07,169.928 1957.73,198.498 1958.4,165.312 1959.06,183.778 1959.72,175.009 1960.39,173.035 1961.05,154.31 1961.72,166.238 1962.38,362.816 1963.04,155.987 1963.71,250.162 1964.37,144.315 1965.04,172.174 1965.7,193.591 1966.36,164.68 1967.03,203.949 1967.69,163.786 1968.36,189.086 1969.02,197.722 1969.68,152.305 1970.35,158.594 1971.01,191.73 1971.68,174.155 1972.34,166.415 1973,154.644 1973.67,171.336 1974.33,168.859 1974.99,191.374 1975.66,169.069 1976.32,193.668 1976.99,192.112 1977.65,174.086 1978.31,127.411 1978.98,192.317 1979.64,158.108 1980.31,232.372 1980.97,175.101 1981.63,154.147 1982.3,179.514 1982.96,134.662 1983.63,147.001 1984.29,183.772 1984.95,178.727 1985.62,176.443 1986.28,134.665 1986.95,185.145 1987.61,129.794 1988.27,234.043 1988.94,232.503 1989.6,236.573 1990.27,276.264 1990.93,278.719 1991.59,179.178 1992.26,258.11 1992.92,209.337 1993.58,157.929 1994.25,157.996 1994.91,176.698 1995.58,132.345 1996.24,173.466 1996.9,112.294 1997.57,176.836 1998.23,170.292 1998.9,194.499 1999.56,191.28 2000.22,179.619 2000.89,160.786 2001.55,181.452 2002.22,158.528 2002.88,214.401 2003.54,174.055 2004.21,162.514 2004.87,195.876 2005.54,191.498 2006.2,175.01 2006.86,144.874 2007.53,164.176 2008.19,170.011 2008.86,169.706 2009.52,155.482 2010.18,155.478 2010.85,198.33 2011.51,178.852 2012.18,136.404 2012.84,176.351 2013.5,205.691 2014.17,224.179 2014.83,177.313 2015.49,156.212 2016.16,169.642 2016.82,168.313 2017.49,192.266 2018.15,145.417 2018.81,174.787 2019.48,190.99 2020.14,164.531 2020.81,176.232 2021.47,178.593 2022.13,162.939 2022.8,174.037 2023.46,135.146 2024.13,163.765 2024.79,167.826 2025.45,170.234 2026.12,144.394 2026.78,132.231 2027.45,209.161 2028.11,248.512 2028.77,253.288 2029.44,195.344 2030.1,181.306 2030.77,192.358 2031.43,121.868 2032.09,185.038 2032.76,161.889 2033.42,157.922 2034.09,152.655 2034.75,164.193 2035.41,174.474 2036.08,177.499 2036.74,151.744 2037.4,183.098 2038.07,136.495 2038.73,187.131 2039.4,138.877 2040.06,212.084 2040.72,189.479 2041.39,165.34 2042.05,170.672 2042.72,171.5 2043.38,166.238 2044.04,170.543 2044.71,152.071 2045.37,131.377 2046.04,197.829 2046.7,186.165 2047.36,159.222 2048.03,111.862 2048.69,230.819 2049.36,165.783 2050.02,148.866 2050.68,164.933 2051.35,176.814 2052.01,134.585 2052.68,204.942 2053.34,161.04 2054,166.153 2054.67,174.051 2055.33,154.22 2056,159.343 2056.66,167.92 2057.32,160.55 2057.99,169.07 2058.65,141.312 2059.31,131.183 2059.98,256.795 2060.64,143.008 2061.31,156.408 2061.97,133.793 2062.63,199.037 2063.3,173.759 2063.96,155.274 2064.63,175.789 2065.29,173.731 2065.95,169.167 2066.62,164.055 2067.28,171.575 2067.95,147.679 2068.61,217.612 2069.27,360.538 2069.94,294.147 2070.6,178.209 2071.27,159.983 2071.93,168.131 2072.59,131.762 2073.26,195.878 2073.92,179.817 2074.59,172.707 2075.25,162.717 2075.91,174.128 2076.58,153.714 2077.24,148.398 2077.91,251.473 2078.57,159.878 2079.23,173.421 2079.9,166.839 2080.56,134.262 2081.22,164.308 2081.89,146.159 2082.55,180.272 2083.22,158.269 2083.88,178.644 2084.54,149.588 2085.21,188.08 2085.87,173.151 2086.54,183.838 2087.2,177.348 2087.86,178.169 2088.53,162.01 2089.19,200.467 2089.86,151.878 2090.52,153.444 2091.18,162.649 2091.85,171.786 2092.51,165.694 2093.18,176.876 2093.84,248.375 2094.5,192.645 2095.17,186.987 2095.83,178.898 2096.5,155.162 2097.16,372.305 2097.82,446.578 2098.49,196.892 2099.15,193.041 2099.82,201.355 2100.48,160.591 2101.14,195.642 2101.81,192.788 2102.47,198.484 2103.13,171.544 2103.8,192.506 2104.46,209.484 2105.13,164.758 2105.79,217.831 2106.45,153.697 2107.12,178.182 2107.78,169.276 2108.45,174.655 2109.11,193.793 2109.77,178.373 2110.44,196.916 2111.1,184.224 2111.77,168.541 2112.43,159.757 2113.09,212.943 2113.76,120.119 2114.42,202.474 2115.09,177.232 2115.75,148.601 2116.41,168.825 2117.08,125.902 2117.74,186.887 2118.41,154.357 2119.07,191.293 2119.73,158.669 2120.4,169.649 2121.06,142.639 2121.73,166.059 2122.39,150.112 2123.05,149.687 2123.72,159.895 2124.38,178.646 2125.04,177.796 2125.71,182.962 2126.37,155.251 2127.04,160.343 2127.7,207.805 2128.36,163.05 2129.03,178.973 2129.69,141.746 2130.36,196.137 2131.02,129.492 2131.68,180.2 2132.35,152.274 2133.01,155.981 2133.68,161.484 2134.34,166.081 2135,175.311 2135.67,158.809 2136.33,115.434 2137,172.317 2137.66,178.627 2138.32,105.489 2138.99,191.613 2139.65,170.434 2140.32,188.232 2140.98,130.026 2141.64,184.569 2142.31,158.009 2142.97,163.68 2143.64,160.427 2144.3,162.771 2144.96,172.971 2145.63,171.308 2146.29,177.755 2146.95,139.474 2147.62,253.634 2148.28,176.941 2148.95,144.048 2149.61,132.855 2150.27,160.576 2150.94,193.876 2151.6,155.331 2152.27,130.124 2152.93,161.837 2153.59,193.499 2154.26,172.804 2154.92,154.616 2155.59,158.59 2156.25,206.054 2156.91,227.761 2157.58,138.455 2158.24,147.02 2158.91,188.604 2159.57,158.026 2160.23,220.483 2160.9,211.33 2161.56,180.718 2162.23,175.75 2162.89,155.171 2163.55,163.72 2164.22,181.329 2164.88,171.068 2165.55,188.554 2166.21,157.105 2166.87,179.868 2167.54,185.054 2168.2,164.558 2168.86,151.34 2169.53,219.114 2170.19,202.792 2170.86,246.114 2171.52,280.019 2172.18,199.396 2172.85,189.416 2173.51,231.974 2174.18,114.411 2174.84,219.733 2175.5,141.691 2176.17,195.015 2176.83,115.978 2177.5,173.876 2178.16,170.116 2178.82,164.407 2179.49,122.563 2180.15,162.876 2180.82,202.871 2181.48,174.636 2182.14,441.974 2182.81,151.918 2183.47,148.802 2184.14,204.785 2184.8,167.139 2185.46,157.128 2186.13,162.11 2186.79,163.699 2187.46,153.759 2188.12,190.811 2188.78,140.695 2189.45,144.708 2190.11,165.508 2190.77,179.616 2191.44,189.538 2192.1,152.913 2192.77,144.725 2193.43,168.906 2194.09,162.864 2194.76,155.65 2195.42,182.571 2196.09,259.334 2196.75,153.106 2197.41,160.054 2198.08,181.345 2198.74,147.31 2199.41,185.864 2200.07,180.89 2200.73,192.194 2201.4,176.863 2202.06,145.546 2202.73,153.844 2203.39,160.312 2204.05,156.014 2204.72,175.668 2205.38,234.617 2206.05,287.449 2206.71,161.823 2207.37,176.064 2208.04,169.878 2208.7,184.823 2209.37,171.349 2210.03,157.142 2210.69,174.609 2211.36,145.971 2212.02,180.98 2212.68,169.796 2213.35,201.604 2214.01,155.683 2214.68,151.092 2215.34,153.181 2216,168.808 2216.67,124.513 2217.33,171.865 2218,180.16 2218.66,159.37 2219.32,174.554 2219.99,161.837 2220.65,194.35 2221.32,141.238 2221.98,187.243 2222.64,166.251 2223.31,170.426 2223.97,167.545 2224.64,163.806 2225.3,173.839 2225.96,152.919 2226.63,178.713 2227.29,179.144 2227.96,188.287 2228.62,233.399 2229.28,158.066 2229.95,180.535 2230.61,156.077 2231.28,144.895 2231.94,127.994 2232.6,174.364 2233.27,150.693 2233.93,167.612 2234.59,177.459 2235.26,166.104 2235.92,135.191 2236.59,136.619 2237.25,180.379 2237.91,156.284 2238.58,162.414 2239.24,157.303 2239.91,145.649 2240.57,171.37 2241.23,141.286 2241.9,206.324 2242.56,148.278 2243.23,179.304 2243.89,313.409 2244.55,165.774 2245.22,152.953 2245.88,172.282 2246.55,152.824 2247.21,173.129 2247.87,187.521 2248.54,189.241 2249.2,167.637 2249.87,175.989 2250.53,168.623 2251.19,134.098 2251.86,184.037 2252.52,166.97 2253.19,159.229 2253.85,190.447 2254.51,149.944 2255.18,166.758 2255.84,178.512 2256.5,186.211 2257.17,164.841 2257.83,179.475 2258.5,157.201 2259.16,175.302 2259.82,184.773 2260.49,201.644 2261.15,204.398 2261.82,176.417 2262.48,155.496 2263.14,178.099 2263.81,181.697 2264.47,170.76 2265.14,161.055 2265.8,164.471 2266.46,146.394 2267.13,172.038 2267.79,176.802 2268.46,165.978 2269.12,135.134 2269.78,165.352 2270.45,158.81 2271.11,128.878 2271.78,359.482 2272.44,212.955 2273.1,159.832 2273.77,187.961 2274.43,184.475 2275.09,187.696 2275.76,228.578 2276.42,176.194 2277.09,149.197 2277.75,168.03 2278.41,137.689 2279.08,177.344 2279.74,144.531 2280.41,181.704 2281.07,152.53 2281.73,186.842 2282.4,172.551 2283.06,162.526 2283.73,143.781 2284.39,126.094 2285.05,182.106 2285.72,172.149 2286.38,199.775 2287.05,194.137 2287.71,182.312 2288.37,160.149 2289.04,170.166 2289.7,138.9 2290.37,145.936 2291.03,155.589 2291.69,135.266 2292.36,169.31 2293.02,153.443 "/>
<path clip-path="url(#clip100)" d="M2018.91 1377.32 L2282.4 1377.32 L2282.4 1273.64 L2018.91 1273.64  Z" fill="#ffffff" fill-rule="evenodd" fill-opacity="1"/>
<polyline clip-path="url(#clip100)" style="stroke:#000000; stroke-linecap:round; stroke-linejoin:round; stroke-width:4; stroke-opacity:1; fill:none" points="2018.91,1377.32 2282.4,1377.32 2282.4,1273.64 2018.91,1273.64 2018.91,1377.32 "/>
<polyline clip-path="url(#clip100)" style="stroke:#009af9; stroke-linecap:round; stroke-linejoin:round; stroke-width:4; stroke-opacity:1; fill:none" points="2042.36,1325.48 2183.07,1325.48 "/>
<path clip-path="url(#clip100)" d="M2220.36 1345.16 Q2218.56 1349.79 2216.84 1351.2 Q2215.13 1352.62 2212.26 1352.62 L2208.86 1352.62 L2208.86 1349.05 L2211.36 1349.05 Q2213.12 1349.05 2214.09 1348.22 Q2215.06 1347.38 2216.24 1344.28 L2217.01 1342.34 L2206.52 1316.83 L2211.03 1316.83 L2219.14 1337.11 L2227.24 1316.83 L2231.75 1316.83 L2220.36 1345.16 Z" fill="#000000" fill-rule="nonzero" fill-opacity="1" /><path clip-path="url(#clip100)" d="M2239.04 1338.82 L2246.68 1338.82 L2246.68 1312.45 L2238.37 1314.12 L2238.37 1309.86 L2246.64 1308.2 L2251.31 1308.2 L2251.31 1338.82 L2258.95 1338.82 L2258.95 1342.76 L2239.04 1342.76 L2239.04 1338.82 Z" fill="#000000" fill-rule="nonzero" fill-opacity="1" /></svg>
