<?xml version="1.0" encoding="utf-8"?>
<svg xmlns="http://www.w3.org/2000/svg" xmlns:xlink="http://www.w3.org/1999/xlink" width="600" height="400" viewBox="0 0 2400 1600">
<defs>
  <clipPath id="clip690">
    <rect x="0" y="0" width="2400" height="1600"/>
  </clipPath>
</defs>
<path clip-path="url(#clip690)" d="M0 1600 L2400 1600 L2400 0 L0 0  Z" fill="#ffffff" fill-rule="evenodd" fill-opacity="1"/>
<defs>
  <clipPath id="clip691">
    <rect x="480" y="0" width="1681" height="1600"/>
  </clipPath>
</defs>
<path clip-path="url(#clip690)" d="M242.135 1423.18 L2352.76 1423.18 L2352.76 47.2441 L242.135 47.2441  Z" fill="#ffffff" fill-rule="evenodd" fill-opacity="1"/>
<defs>
  <clipPath id="clip692">
    <rect x="242" y="47" width="2112" height="1377"/>
  </clipPath>
</defs>
<polyline clip-path="url(#clip692)" style="stroke:#000000; stroke-linecap:round; stroke-linejoin:round; stroke-width:2; stroke-opacity:0.1; fill:none" points="301.205,1423.18 301.205,47.2441 "/>
<polyline clip-path="url(#clip692)" style="stroke:#000000; stroke-linecap:round; stroke-linejoin:round; stroke-width:2; stroke-opacity:0.1; fill:none" points="965.144,1423.18 965.144,47.2441 "/>
<polyline clip-path="url(#clip692)" style="stroke:#000000; stroke-linecap:round; stroke-linejoin:round; stroke-width:2; stroke-opacity:0.1; fill:none" points="1629.08,1423.18 1629.08,47.2441 "/>
<polyline clip-path="url(#clip692)" style="stroke:#000000; stroke-linecap:round; stroke-linejoin:round; stroke-width:2; stroke-opacity:0.1; fill:none" points="2293.02,1423.18 2293.02,47.2441 "/>
<polyline clip-path="url(#clip692)" style="stroke:#000000; stroke-linecap:round; stroke-linejoin:round; stroke-width:2; stroke-opacity:0.1; fill:none" points="242.135,1423.18 2352.76,1423.18 "/>
<polyline clip-path="url(#clip692)" style="stroke:#000000; stroke-linecap:round; stroke-linejoin:round; stroke-width:2; stroke-opacity:0.1; fill:none" points="242.135,1171.53 2352.76,1171.53 "/>
<polyline clip-path="url(#clip692)" style="stroke:#000000; stroke-linecap:round; stroke-linejoin:round; stroke-width:2; stroke-opacity:0.1; fill:none" points="242.135,919.881 2352.76,919.881 "/>
<polyline clip-path="url(#clip692)" style="stroke:#000000; stroke-linecap:round; stroke-linejoin:round; stroke-width:2; stroke-opacity:0.1; fill:none" points="242.135,668.231 2352.76,668.231 "/>
<polyline clip-path="url(#clip692)" style="stroke:#000000; stroke-linecap:round; stroke-linejoin:round; stroke-width:2; stroke-opacity:0.1; fill:none" points="242.135,416.582 2352.76,416.582 "/>
<polyline clip-path="url(#clip692)" style="stroke:#000000; stroke-linecap:round; stroke-linejoin:round; stroke-width:2; stroke-opacity:0.1; fill:none" points="242.135,164.932 2352.76,164.932 "/>
<polyline clip-path="url(#clip690)" style="stroke:#000000; stroke-linecap:round; stroke-linejoin:round; stroke-width:4; stroke-opacity:1; fill:none" points="242.135,1423.18 2352.76,1423.18 "/>
<polyline clip-path="url(#clip690)" style="stroke:#000000; stroke-linecap:round; stroke-linejoin:round; stroke-width:4; stroke-opacity:1; fill:none" points="301.205,1423.18 301.205,1404.28 "/>
<polyline clip-path="url(#clip690)" style="stroke:#000000; stroke-linecap:round; stroke-linejoin:round; stroke-width:4; stroke-opacity:1; fill:none" points="965.144,1423.18 965.144,1404.28 "/>
<polyline clip-path="url(#clip690)" style="stroke:#000000; stroke-linecap:round; stroke-linejoin:round; stroke-width:4; stroke-opacity:1; fill:none" points="1629.08,1423.18 1629.08,1404.28 "/>
<polyline clip-path="url(#clip690)" style="stroke:#000000; stroke-linecap:round; stroke-linejoin:round; stroke-width:4; stroke-opacity:1; fill:none" points="2293.02,1423.18 2293.02,1404.28 "/>
<path clip-path="url(#clip690)" d="M301.205 1454.1 Q297.594 1454.1 295.766 1457.66 Q293.96 1461.2 293.96 1468.33 Q293.96 1475.44 295.766 1479.01 Q297.594 1482.55 301.205 1482.55 Q304.84 1482.55 306.645 1479.01 Q308.474 1475.44 308.474 1468.33 Q308.474 1461.2 306.645 1457.66 Q304.84 1454.1 301.205 1454.1 M301.205 1450.39 Q307.015 1450.39 310.071 1455 Q313.15 1459.58 313.15 1468.33 Q313.15 1477.06 310.071 1481.67 Q307.015 1486.25 301.205 1486.25 Q295.395 1486.25 292.316 1481.67 Q289.261 1477.06 289.261 1468.33 Q289.261 1459.58 292.316 1455 Q295.395 1450.39 301.205 1450.39 Z" fill="#000000" fill-rule="nonzero" fill-opacity="1" /><path clip-path="url(#clip690)" d="M909.67 1481.64 L917.309 1481.64 L917.309 1455.28 L908.998 1456.95 L908.998 1452.69 L917.262 1451.02 L921.938 1451.02 L921.938 1481.64 L929.577 1481.64 L929.577 1485.58 L909.67 1485.58 L909.67 1481.64 Z" fill="#000000" fill-rule="nonzero" fill-opacity="1" /><path clip-path="url(#clip690)" d="M949.021 1454.1 Q945.41 1454.1 943.582 1457.66 Q941.776 1461.2 941.776 1468.33 Q941.776 1475.44 943.582 1479.01 Q945.41 1482.55 949.021 1482.55 Q952.656 1482.55 954.461 1479.01 Q956.29 1475.44 956.29 1468.33 Q956.29 1461.2 954.461 1457.66 Q952.656 1454.1 949.021 1454.1 M949.021 1450.39 Q954.832 1450.39 957.887 1455 Q960.966 1459.58 960.966 1468.33 Q960.966 1477.06 957.887 1481.67 Q954.832 1486.25 949.021 1486.25 Q943.211 1486.25 940.133 1481.67 Q937.077 1477.06 937.077 1468.33 Q937.077 1459.58 940.133 1455 Q943.211 1450.39 949.021 1450.39 Z" fill="#000000" fill-rule="nonzero" fill-opacity="1" /><path clip-path="url(#clip690)" d="M979.183 1454.1 Q975.572 1454.1 973.743 1457.66 Q971.938 1461.2 971.938 1468.33 Q971.938 1475.44 973.743 1479.01 Q975.572 1482.55 979.183 1482.55 Q982.817 1482.55 984.623 1479.01 Q986.452 1475.44 986.452 1468.33 Q986.452 1461.2 984.623 1457.66 Q982.817 1454.1 979.183 1454.1 M979.183 1450.39 Q984.993 1450.39 988.049 1455 Q991.128 1459.58 991.128 1468.33 Q991.128 1477.06 988.049 1481.67 Q984.993 1486.25 979.183 1486.25 Q973.373 1486.25 970.294 1481.67 Q967.239 1477.06 967.239 1468.33 Q967.239 1459.58 970.294 1455 Q973.373 1450.39 979.183 1450.39 Z" fill="#000000" fill-rule="nonzero" fill-opacity="1" /><path clip-path="url(#clip690)" d="M1009.35 1454.1 Q1005.73 1454.1 1003.91 1457.66 Q1002.1 1461.2 1002.1 1468.33 Q1002.1 1475.44 1003.91 1479.01 Q1005.73 1482.55 1009.35 1482.55 Q1012.98 1482.55 1014.78 1479.01 Q1016.61 1475.44 1016.61 1468.33 Q1016.61 1461.2 1014.78 1457.66 Q1012.98 1454.1 1009.35 1454.1 M1009.35 1450.39 Q1015.16 1450.39 1018.21 1455 Q1021.29 1459.58 1021.29 1468.33 Q1021.29 1477.06 1018.21 1481.67 Q1015.16 1486.25 1009.35 1486.25 Q1003.53 1486.25 1000.46 1481.67 Q997.401 1477.06 997.401 1468.33 Q997.401 1459.58 1000.46 1455 Q1003.53 1450.39 1009.35 1450.39 Z" fill="#000000" fill-rule="nonzero" fill-opacity="1" /><path clip-path="url(#clip690)" d="M1577.69 1481.64 L1594.01 1481.64 L1594.01 1485.58 L1572.07 1485.58 L1572.07 1481.64 Q1574.73 1478.89 1579.31 1474.26 Q1583.92 1469.61 1585.1 1468.27 Q1587.35 1465.74 1588.23 1464.01 Q1589.13 1462.25 1589.13 1460.56 Q1589.13 1457.8 1587.18 1456.07 Q1585.26 1454.33 1582.16 1454.33 Q1579.96 1454.33 1577.51 1455.09 Q1575.08 1455.86 1572.3 1457.41 L1572.3 1452.69 Q1575.12 1451.55 1577.58 1450.97 Q1580.03 1450.39 1582.07 1450.39 Q1587.44 1450.39 1590.63 1453.08 Q1593.83 1455.77 1593.83 1460.26 Q1593.83 1462.39 1593.02 1464.31 Q1592.23 1466.2 1590.12 1468.8 Q1589.55 1469.47 1586.44 1472.69 Q1583.34 1475.88 1577.69 1481.64 Z" fill="#000000" fill-rule="nonzero" fill-opacity="1" /><path clip-path="url(#clip690)" d="M1613.83 1454.1 Q1610.22 1454.1 1608.39 1457.66 Q1606.58 1461.2 1606.58 1468.33 Q1606.58 1475.44 1608.39 1479.01 Q1610.22 1482.55 1613.83 1482.55 Q1617.46 1482.55 1619.27 1479.01 Q1621.1 1475.44 1621.1 1468.33 Q1621.1 1461.2 1619.27 1457.66 Q1617.46 1454.1 1613.83 1454.1 M1613.83 1450.39 Q1619.64 1450.39 1622.69 1455 Q1625.77 1459.58 1625.77 1468.33 Q1625.77 1477.06 1622.69 1481.67 Q1619.64 1486.25 1613.83 1486.25 Q1608.02 1486.25 1604.94 1481.67 Q1601.88 1477.06 1601.88 1468.33 Q1601.88 1459.58 1604.94 1455 Q1608.02 1450.39 1613.83 1450.39 Z" fill="#000000" fill-rule="nonzero" fill-opacity="1" /><path clip-path="url(#clip690)" d="M1643.99 1454.1 Q1640.38 1454.1 1638.55 1457.66 Q1636.74 1461.2 1636.74 1468.33 Q1636.74 1475.44 1638.55 1479.01 Q1640.38 1482.55 1643.99 1482.55 Q1647.62 1482.55 1649.43 1479.01 Q1651.26 1475.44 1651.26 1468.33 Q1651.26 1461.2 1649.43 1457.66 Q1647.62 1454.1 1643.99 1454.1 M1643.99 1450.39 Q1649.8 1450.39 1652.86 1455 Q1655.93 1459.58 1655.93 1468.33 Q1655.93 1477.06 1652.86 1481.67 Q1649.8 1486.25 1643.99 1486.25 Q1638.18 1486.25 1635.1 1481.67 Q1632.05 1477.06 1632.05 1468.33 Q1632.05 1459.58 1635.1 1455 Q1638.18 1450.39 1643.99 1450.39 Z" fill="#000000" fill-rule="nonzero" fill-opacity="1" /><path clip-path="url(#clip690)" d="M1674.15 1454.1 Q1670.54 1454.1 1668.71 1457.66 Q1666.91 1461.2 1666.91 1468.33 Q1666.91 1475.44 1668.71 1479.01 Q1670.54 1482.55 1674.15 1482.55 Q1677.79 1482.55 1679.59 1479.01 Q1681.42 1475.44 1681.42 1468.33 Q1681.42 1461.2 1679.59 1457.66 Q1677.79 1454.1 1674.15 1454.1 M1674.15 1450.39 Q1679.96 1450.39 1683.02 1455 Q1686.1 1459.58 1686.1 1468.33 Q1686.1 1477.06 1683.02 1481.67 Q1679.96 1486.25 1674.15 1486.25 Q1668.34 1486.25 1665.26 1481.67 Q1662.21 1477.06 1662.21 1468.33 Q1662.21 1459.58 1665.26 1455 Q1668.34 1450.39 1674.15 1450.39 Z" fill="#000000" fill-rule="nonzero" fill-opacity="1" /><path clip-path="url(#clip690)" d="M2251.7 1466.95 Q2255.06 1467.66 2256.93 1469.93 Q2258.83 1472.2 2258.83 1475.53 Q2258.83 1480.65 2255.31 1483.45 Q2251.79 1486.25 2245.31 1486.25 Q2243.14 1486.25 2240.82 1485.81 Q2238.53 1485.39 2236.08 1484.54 L2236.08 1480.02 Q2238.02 1481.16 2240.34 1481.74 Q2242.65 1482.32 2245.17 1482.32 Q2249.57 1482.32 2251.86 1480.58 Q2254.18 1478.84 2254.18 1475.53 Q2254.18 1472.48 2252.03 1470.77 Q2249.9 1469.03 2246.08 1469.03 L2242.05 1469.03 L2242.05 1465.19 L2246.26 1465.19 Q2249.71 1465.19 2251.54 1463.82 Q2253.37 1462.43 2253.37 1459.84 Q2253.37 1457.18 2251.47 1455.77 Q2249.6 1454.33 2246.08 1454.33 Q2244.16 1454.33 2241.96 1454.75 Q2239.76 1455.16 2237.12 1456.04 L2237.12 1451.88 Q2239.78 1451.14 2242.1 1450.77 Q2244.43 1450.39 2246.49 1450.39 Q2251.82 1450.39 2254.92 1452.83 Q2258.02 1455.23 2258.02 1459.35 Q2258.02 1462.22 2256.38 1464.21 Q2254.73 1466.18 2251.7 1466.95 Z" fill="#000000" fill-rule="nonzero" fill-opacity="1" /><path clip-path="url(#clip690)" d="M2277.7 1454.1 Q2274.09 1454.1 2272.26 1457.66 Q2270.45 1461.2 2270.45 1468.33 Q2270.45 1475.44 2272.26 1479.01 Q2274.09 1482.55 2277.7 1482.55 Q2281.33 1482.55 2283.14 1479.01 Q2284.97 1475.44 2284.97 1468.33 Q2284.97 1461.2 2283.14 1457.66 Q2281.33 1454.1 2277.7 1454.1 M2277.7 1450.39 Q2283.51 1450.39 2286.56 1455 Q2289.64 1459.58 2289.64 1468.33 Q2289.64 1477.06 2286.56 1481.67 Q2283.51 1486.25 2277.7 1486.25 Q2271.89 1486.25 2268.81 1481.67 Q2265.75 1477.06 2265.75 1468.33 Q2265.75 1459.58 2268.81 1455 Q2271.89 1450.39 2277.7 1450.39 Z" fill="#000000" fill-rule="nonzero" fill-opacity="1" /><path clip-path="url(#clip690)" d="M2307.86 1454.1 Q2304.25 1454.1 2302.42 1457.66 Q2300.61 1461.2 2300.61 1468.33 Q2300.61 1475.44 2302.42 1479.01 Q2304.25 1482.55 2307.86 1482.55 Q2311.49 1482.55 2313.3 1479.01 Q2315.13 1475.44 2315.13 1468.33 Q2315.13 1461.2 2313.3 1457.66 Q2311.49 1454.1 2307.86 1454.1 M2307.86 1450.39 Q2313.67 1450.39 2316.72 1455 Q2319.8 1459.58 2319.8 1468.33 Q2319.8 1477.06 2316.72 1481.67 Q2313.67 1486.25 2307.86 1486.25 Q2302.05 1486.25 2298.97 1481.67 Q2295.91 1477.06 2295.91 1468.33 Q2295.91 1459.58 2298.97 1455 Q2302.05 1450.39 2307.86 1450.39 Z" fill="#000000" fill-rule="nonzero" fill-opacity="1" /><path clip-path="url(#clip690)" d="M2338.02 1454.1 Q2334.41 1454.1 2332.58 1457.66 Q2330.78 1461.2 2330.78 1468.33 Q2330.78 1475.44 2332.58 1479.01 Q2334.41 1482.55 2338.02 1482.55 Q2341.66 1482.55 2343.46 1479.01 Q2345.29 1475.44 2345.29 1468.33 Q2345.29 1461.2 2343.46 1457.66 Q2341.66 1454.1 2338.02 1454.1 M2338.02 1450.39 Q2343.83 1450.39 2346.89 1455 Q2349.97 1459.58 2349.97 1468.33 Q2349.97 1477.06 2346.89 1481.67 Q2343.83 1486.25 2338.02 1486.25 Q2332.21 1486.25 2329.13 1481.67 Q2326.08 1477.06 2326.08 1468.33 Q2326.08 1459.58 2329.13 1455 Q2332.21 1450.39 2338.02 1450.39 Z" fill="#000000" fill-rule="nonzero" fill-opacity="1" /><path clip-path="url(#clip690)" d="M1165.17 1520.52 L1171.6 1520.52 L1171.6 1568.04 L1165.17 1568.04 L1165.17 1520.52 Z" fill="#000000" fill-rule="nonzero" fill-opacity="1" /><path clip-path="url(#clip690)" d="M1189.93 1522.27 L1189.93 1532.4 L1201.99 1532.4 L1201.99 1536.95 L1189.93 1536.95 L1189.93 1556.3 Q1189.93 1560.66 1191.11 1561.9 Q1192.32 1563.14 1195.98 1563.14 L1201.99 1563.14 L1201.99 1568.04 L1195.98 1568.04 Q1189.2 1568.04 1186.62 1565.53 Q1184.04 1562.98 1184.04 1556.3 L1184.04 1536.95 L1179.74 1536.95 L1179.74 1532.4 L1184.04 1532.4 L1184.04 1522.27 L1189.93 1522.27 Z" fill="#000000" fill-rule="nonzero" fill-opacity="1" /><path clip-path="url(#clip690)" d="M1240.19 1548.76 L1240.19 1551.62 L1213.26 1551.62 Q1213.64 1557.67 1216.89 1560.85 Q1220.17 1564 1225.99 1564 Q1229.36 1564 1232.52 1563.17 Q1235.7 1562.35 1238.82 1560.69 L1238.82 1566.23 Q1235.67 1567.57 1232.36 1568.27 Q1229.05 1568.97 1225.64 1568.97 Q1217.11 1568.97 1212.11 1564 Q1207.15 1559.04 1207.15 1550.57 Q1207.15 1541.82 1211.86 1536.69 Q1216.6 1531.54 1224.62 1531.54 Q1231.81 1531.54 1235.98 1536.18 Q1240.19 1540.8 1240.19 1548.76 M1234.33 1547.04 Q1234.27 1542.23 1231.62 1539.37 Q1229.01 1536.5 1224.69 1536.5 Q1219.78 1536.5 1216.82 1539.27 Q1213.9 1542.04 1213.45 1547.07 L1234.33 1547.04 Z" fill="#000000" fill-rule="nonzero" fill-opacity="1" /><path clip-path="url(#clip690)" d="M1270.45 1537.87 Q1269.47 1537.3 1268.29 1537.04 Q1267.14 1536.76 1265.74 1536.76 Q1260.78 1536.76 1258.11 1540 Q1255.46 1543.22 1255.46 1549.27 L1255.46 1568.04 L1249.58 1568.04 L1249.58 1532.4 L1255.46 1532.4 L1255.46 1537.93 Q1257.31 1534.69 1260.27 1533.13 Q1263.23 1531.54 1267.46 1531.54 Q1268.07 1531.54 1268.8 1531.63 Q1269.53 1531.7 1270.42 1531.85 L1270.45 1537.87 Z" fill="#000000" fill-rule="nonzero" fill-opacity="1" /><path clip-path="url(#clip690)" d="M1292.8 1550.12 Q1285.7 1550.12 1282.96 1551.75 Q1280.23 1553.37 1280.23 1557.29 Q1280.23 1560.4 1282.26 1562.25 Q1284.33 1564.07 1287.86 1564.07 Q1292.73 1564.07 1295.66 1560.63 Q1298.62 1557.16 1298.62 1551.43 L1298.62 1550.12 L1292.8 1550.12 M1304.48 1547.71 L1304.48 1568.04 L1298.62 1568.04 L1298.62 1562.63 Q1296.62 1565.88 1293.63 1567.44 Q1290.63 1568.97 1286.31 1568.97 Q1280.83 1568.97 1277.58 1565.91 Q1274.37 1562.82 1274.37 1557.67 Q1274.37 1551.65 1278.38 1548.6 Q1282.42 1545.54 1290.41 1545.54 L1298.62 1545.54 L1298.62 1544.97 Q1298.62 1540.93 1295.95 1538.73 Q1293.31 1536.5 1288.5 1536.5 Q1285.45 1536.5 1282.55 1537.23 Q1279.65 1537.97 1276.98 1539.43 L1276.98 1534.02 Q1280.19 1532.78 1283.22 1532.17 Q1286.24 1531.54 1289.11 1531.54 Q1296.84 1531.54 1300.66 1535.55 Q1304.48 1539.56 1304.48 1547.71 Z" fill="#000000" fill-rule="nonzero" fill-opacity="1" /><path clip-path="url(#clip690)" d="M1322.34 1522.27 L1322.34 1532.4 L1334.4 1532.4 L1334.4 1536.95 L1322.34 1536.95 L1322.34 1556.3 Q1322.34 1560.66 1323.51 1561.9 Q1324.72 1563.14 1328.38 1563.14 L1334.4 1563.14 L1334.4 1568.04 L1328.38 1568.04 Q1321.6 1568.04 1319.03 1565.53 Q1316.45 1562.98 1316.45 1556.3 L1316.45 1536.95 L1312.15 1536.95 L1312.15 1532.4 L1316.45 1532.4 L1316.45 1522.27 L1322.34 1522.27 Z" fill="#000000" fill-rule="nonzero" fill-opacity="1" /><path clip-path="url(#clip690)" d="M1342.1 1532.4 L1347.96 1532.4 L1347.96 1568.04 L1342.1 1568.04 L1342.1 1532.4 M1342.1 1518.52 L1347.96 1518.52 L1347.96 1525.93 L1342.1 1525.93 L1342.1 1518.52 Z" fill="#000000" fill-rule="nonzero" fill-opacity="1" /><path clip-path="url(#clip690)" d="M1374.02 1536.5 Q1369.31 1536.5 1366.58 1540.19 Q1363.84 1543.85 1363.84 1550.25 Q1363.84 1556.65 1366.55 1560.34 Q1369.28 1564 1374.02 1564 Q1378.7 1564 1381.44 1560.31 Q1384.18 1556.62 1384.18 1550.25 Q1384.18 1543.92 1381.44 1540.23 Q1378.7 1536.5 1374.02 1536.5 M1374.02 1531.54 Q1381.66 1531.54 1386.02 1536.5 Q1390.38 1541.47 1390.38 1550.25 Q1390.38 1559 1386.02 1564 Q1381.66 1568.97 1374.02 1568.97 Q1366.35 1568.97 1361.99 1564 Q1357.66 1559 1357.66 1550.25 Q1357.66 1541.47 1361.99 1536.5 Q1366.35 1531.54 1374.02 1531.54 Z" fill="#000000" fill-rule="nonzero" fill-opacity="1" /><path clip-path="url(#clip690)" d="M1429.72 1546.53 L1429.72 1568.04 L1423.87 1568.04 L1423.87 1546.72 Q1423.87 1541.66 1421.89 1539.14 Q1419.92 1536.63 1415.97 1536.63 Q1411.23 1536.63 1408.5 1539.65 Q1405.76 1542.68 1405.76 1547.9 L1405.76 1568.04 L1399.87 1568.04 L1399.87 1532.4 L1405.76 1532.4 L1405.76 1537.93 Q1407.86 1534.72 1410.69 1533.13 Q1413.56 1531.54 1417.28 1531.54 Q1423.42 1531.54 1426.57 1535.36 Q1429.72 1539.14 1429.72 1546.53 Z" fill="#000000" fill-rule="nonzero" fill-opacity="1" /><polyline clip-path="url(#clip690)" style="stroke:#000000; stroke-linecap:round; stroke-linejoin:round; stroke-width:4; stroke-opacity:1; fill:none" points="242.135,1423.18 242.135,47.2441 "/>
<polyline clip-path="url(#clip690)" style="stroke:#000000; stroke-linecap:round; stroke-linejoin:round; stroke-width:4; stroke-opacity:1; fill:none" points="242.135,1423.18 261.032,1423.18 "/>
<polyline clip-path="url(#clip690)" style="stroke:#000000; stroke-linecap:round; stroke-linejoin:round; stroke-width:4; stroke-opacity:1; fill:none" points="242.135,1171.53 261.032,1171.53 "/>
<polyline clip-path="url(#clip690)" style="stroke:#000000; stroke-linecap:round; stroke-linejoin:round; stroke-width:4; stroke-opacity:1; fill:none" points="242.135,919.881 261.032,919.881 "/>
<polyline clip-path="url(#clip690)" style="stroke:#000000; stroke-linecap:round; stroke-linejoin:round; stroke-width:4; stroke-opacity:1; fill:none" points="242.135,668.231 261.032,668.231 "/>
<polyline clip-path="url(#clip690)" style="stroke:#000000; stroke-linecap:round; stroke-linejoin:round; stroke-width:4; stroke-opacity:1; fill:none" points="242.135,416.582 261.032,416.582 "/>
<polyline clip-path="url(#clip690)" style="stroke:#000000; stroke-linecap:round; stroke-linejoin:round; stroke-width:4; stroke-opacity:1; fill:none" points="242.135,164.932 261.032,164.932 "/>
<path clip-path="url(#clip690)" d="M114.26 1423.63 L143.936 1423.63 L143.936 1427.57 L114.26 1427.57 L114.26 1423.63 Z" fill="#000000" fill-rule="nonzero" fill-opacity="1" /><path clip-path="url(#clip690)" d="M168.195 1421.83 Q171.552 1422.54 173.427 1424.81 Q175.325 1427.08 175.325 1430.41 Q175.325 1435.53 171.806 1438.33 Q168.288 1441.13 161.806 1441.13 Q159.63 1441.13 157.315 1440.69 Q155.024 1440.27 152.57 1439.42 L152.57 1434.9 Q154.515 1436.04 156.829 1436.62 Q159.144 1437.2 161.667 1437.2 Q166.065 1437.2 168.357 1435.46 Q170.672 1433.72 170.672 1430.41 Q170.672 1427.36 168.519 1425.65 Q166.39 1423.91 162.57 1423.91 L158.542 1423.91 L158.542 1420.07 L162.755 1420.07 Q166.204 1420.07 168.033 1418.7 Q169.862 1417.31 169.862 1414.72 Q169.862 1412.06 167.964 1410.65 Q166.089 1409.21 162.57 1409.21 Q160.649 1409.21 158.45 1409.63 Q156.251 1410.04 153.612 1410.92 L153.612 1406.76 Q156.274 1406.02 158.589 1405.65 Q160.927 1405.27 162.987 1405.27 Q168.311 1405.27 171.413 1407.71 Q174.514 1410.11 174.514 1414.23 Q174.514 1417.1 172.871 1419.09 Q171.227 1421.06 168.195 1421.83 Z" fill="#000000" fill-rule="nonzero" fill-opacity="1" /><path clip-path="url(#clip690)" d="M194.19 1408.98 Q190.579 1408.98 188.75 1412.54 Q186.945 1416.08 186.945 1423.21 Q186.945 1430.32 188.75 1433.89 Q190.579 1437.43 194.19 1437.43 Q197.825 1437.43 199.63 1433.89 Q201.459 1430.32 201.459 1423.21 Q201.459 1416.08 199.63 1412.54 Q197.825 1408.98 194.19 1408.98 M194.19 1405.27 Q200 1405.27 203.056 1409.88 Q206.135 1414.46 206.135 1423.21 Q206.135 1431.94 203.056 1436.55 Q200 1441.13 194.19 1441.13 Q188.38 1441.13 185.301 1436.55 Q182.246 1431.94 182.246 1423.21 Q182.246 1414.46 185.301 1409.88 Q188.38 1405.27 194.19 1405.27 Z" fill="#000000" fill-rule="nonzero" fill-opacity="1" /><path clip-path="url(#clip690)" d="M115.256 1171.98 L144.931 1171.98 L144.931 1175.92 L115.256 1175.92 L115.256 1171.98 Z" fill="#000000" fill-rule="nonzero" fill-opacity="1" /><path clip-path="url(#clip690)" d="M159.052 1184.88 L175.371 1184.88 L175.371 1188.81 L153.427 1188.81 L153.427 1184.88 Q156.089 1182.12 160.672 1177.49 Q165.278 1172.84 166.459 1171.5 Q168.704 1168.97 169.584 1167.24 Q170.487 1165.48 170.487 1163.79 Q170.487 1161.03 168.542 1159.3 Q166.621 1157.56 163.519 1157.56 Q161.32 1157.56 158.866 1158.32 Q156.436 1159.09 153.658 1160.64 L153.658 1155.92 Q156.482 1154.78 158.936 1154.2 Q161.39 1153.63 163.427 1153.63 Q168.797 1153.63 171.991 1156.31 Q175.186 1159 175.186 1163.49 Q175.186 1165.62 174.376 1167.54 Q173.589 1169.44 171.482 1172.03 Q170.903 1172.7 167.802 1175.92 Q164.7 1179.11 159.052 1184.88 Z" fill="#000000" fill-rule="nonzero" fill-opacity="1" /><path clip-path="url(#clip690)" d="M185.232 1154.25 L203.588 1154.25 L203.588 1158.19 L189.514 1158.19 L189.514 1166.66 Q190.533 1166.31 191.551 1166.15 Q192.57 1165.96 193.588 1165.96 Q199.375 1165.96 202.755 1169.13 Q206.135 1172.31 206.135 1177.72 Q206.135 1183.3 202.662 1186.4 Q199.19 1189.48 192.871 1189.48 Q190.695 1189.48 188.426 1189.11 Q186.181 1188.74 183.774 1188 L183.774 1183.3 Q185.857 1184.44 188.079 1184.99 Q190.301 1185.55 192.778 1185.55 Q196.783 1185.55 199.121 1183.44 Q201.459 1181.33 201.459 1177.72 Q201.459 1174.11 199.121 1172 Q196.783 1169.9 192.778 1169.9 Q190.903 1169.9 189.028 1170.32 Q187.176 1170.73 185.232 1171.61 L185.232 1154.25 Z" fill="#000000" fill-rule="nonzero" fill-opacity="1" /><path clip-path="url(#clip690)" d="M114.26 920.332 L143.936 920.332 L143.936 924.267 L114.26 924.267 L114.26 920.332 Z" fill="#000000" fill-rule="nonzero" fill-opacity="1" /><path clip-path="url(#clip690)" d="M158.056 933.226 L174.376 933.226 L174.376 937.161 L152.431 937.161 L152.431 933.226 Q155.093 930.471 159.677 925.841 Q164.283 921.189 165.464 919.846 Q167.709 917.323 168.589 915.587 Q169.491 913.828 169.491 912.138 Q169.491 909.383 167.547 907.647 Q165.626 905.911 162.524 905.911 Q160.325 905.911 157.871 906.675 Q155.44 907.439 152.663 908.99 L152.663 904.267 Q155.487 903.133 157.94 902.554 Q160.394 901.976 162.431 901.976 Q167.802 901.976 170.996 904.661 Q174.19 907.346 174.19 911.837 Q174.19 913.966 173.38 915.888 Q172.593 917.786 170.487 920.378 Q169.908 921.05 166.806 924.267 Q163.704 927.462 158.056 933.226 Z" fill="#000000" fill-rule="nonzero" fill-opacity="1" /><path clip-path="url(#clip690)" d="M194.19 905.679 Q190.579 905.679 188.75 909.244 Q186.945 912.786 186.945 919.915 Q186.945 927.022 188.75 930.587 Q190.579 934.128 194.19 934.128 Q197.825 934.128 199.63 930.587 Q201.459 927.022 201.459 919.915 Q201.459 912.786 199.63 909.244 Q197.825 905.679 194.19 905.679 M194.19 901.976 Q200 901.976 203.056 906.582 Q206.135 911.165 206.135 919.915 Q206.135 928.642 203.056 933.249 Q200 937.832 194.19 937.832 Q188.38 937.832 185.301 933.249 Q182.246 928.642 182.246 919.915 Q182.246 911.165 185.301 906.582 Q188.38 901.976 194.19 901.976 Z" fill="#000000" fill-rule="nonzero" fill-opacity="1" /><path clip-path="url(#clip690)" d="M115.256 668.683 L144.931 668.683 L144.931 672.618 L115.256 672.618 L115.256 668.683 Z" fill="#000000" fill-rule="nonzero" fill-opacity="1" /><path clip-path="url(#clip690)" d="M155.834 681.576 L163.473 681.576 L163.473 655.21 L155.163 656.877 L155.163 652.618 L163.427 650.951 L168.102 650.951 L168.102 681.576 L175.741 681.576 L175.741 685.511 L155.834 685.511 L155.834 681.576 Z" fill="#000000" fill-rule="nonzero" fill-opacity="1" /><path clip-path="url(#clip690)" d="M185.232 650.951 L203.588 650.951 L203.588 654.886 L189.514 654.886 L189.514 663.359 Q190.533 663.011 191.551 662.849 Q192.57 662.664 193.588 662.664 Q199.375 662.664 202.755 665.835 Q206.135 669.007 206.135 674.423 Q206.135 680.002 202.662 683.104 Q199.19 686.182 192.871 686.182 Q190.695 686.182 188.426 685.812 Q186.181 685.442 183.774 684.701 L183.774 680.002 Q185.857 681.136 188.079 681.692 Q190.301 682.247 192.778 682.247 Q196.783 682.247 199.121 680.141 Q201.459 678.034 201.459 674.423 Q201.459 670.812 199.121 668.706 Q196.783 666.599 192.778 666.599 Q190.903 666.599 189.028 667.016 Q187.176 667.433 185.232 668.312 L185.232 650.951 Z" fill="#000000" fill-rule="nonzero" fill-opacity="1" /><path clip-path="url(#clip690)" d="M114.26 417.033 L143.936 417.033 L143.936 420.968 L114.26 420.968 L114.26 417.033 Z" fill="#000000" fill-rule="nonzero" fill-opacity="1" /><path clip-path="url(#clip690)" d="M154.839 429.926 L162.477 429.926 L162.477 403.561 L154.167 405.227 L154.167 400.968 L162.431 399.302 L167.107 399.302 L167.107 429.926 L174.746 429.926 L174.746 433.862 L154.839 433.862 L154.839 429.926 Z" fill="#000000" fill-rule="nonzero" fill-opacity="1" /><path clip-path="url(#clip690)" d="M194.19 402.38 Q190.579 402.38 188.75 405.945 Q186.945 409.487 186.945 416.616 Q186.945 423.723 188.75 427.288 Q190.579 430.829 194.19 430.829 Q197.825 430.829 199.63 427.288 Q201.459 423.723 201.459 416.616 Q201.459 409.487 199.63 405.945 Q197.825 402.38 194.19 402.38 M194.19 398.677 Q200 398.677 203.056 403.283 Q206.135 407.866 206.135 416.616 Q206.135 425.343 203.056 429.95 Q200 434.533 194.19 434.533 Q188.38 434.533 185.301 429.95 Q182.246 425.343 182.246 416.616 Q182.246 407.866 185.301 403.283 Q188.38 398.677 194.19 398.677 Z" fill="#000000" fill-rule="nonzero" fill-opacity="1" /><path clip-path="url(#clip690)" d="M145.417 165.383 L175.093 165.383 L175.093 169.319 L145.417 169.319 L145.417 165.383 Z" fill="#000000" fill-rule="nonzero" fill-opacity="1" /><path clip-path="url(#clip690)" d="M185.232 147.652 L203.588 147.652 L203.588 151.587 L189.514 151.587 L189.514 160.059 Q190.533 159.712 191.551 159.55 Q192.57 159.365 193.588 159.365 Q199.375 159.365 202.755 162.536 Q206.135 165.708 206.135 171.124 Q206.135 176.703 202.662 179.805 Q199.19 182.883 192.871 182.883 Q190.695 182.883 188.426 182.513 Q186.181 182.143 183.774 181.402 L183.774 176.703 Q185.857 177.837 188.079 178.393 Q190.301 178.948 192.778 178.948 Q196.783 178.948 199.121 176.842 Q201.459 174.735 201.459 171.124 Q201.459 167.513 199.121 165.407 Q196.783 163.3 192.778 163.3 Q190.903 163.3 189.028 163.717 Q187.176 164.133 185.232 165.013 L185.232 147.652 Z" fill="#000000" fill-rule="nonzero" fill-opacity="1" /><path clip-path="url(#clip690)" d="M16.4842 816.375 L16.4842 786.329 L21.895 786.329 L21.895 809.945 L35.9632 809.945 L35.9632 787.315 L41.3741 787.315 L41.3741 809.945 L58.5933 809.945 L58.5933 785.756 L64.0042 785.756 L64.0042 816.375 L16.4842 816.375 Z" fill="#000000" fill-rule="nonzero" fill-opacity="1" /><path clip-path="url(#clip690)" d="M16.4842 775.189 L16.4842 768.759 L58.5933 768.759 L58.5933 745.62 L64.0042 745.62 L64.0042 775.189 L16.4842 775.189 Z" fill="#000000" fill-rule="nonzero" fill-opacity="1" /><path clip-path="url(#clip690)" d="M41.3104 732.443 L58.7206 732.443 L58.7206 722.13 Q58.7206 716.942 56.5881 714.46 Q54.4238 711.945 49.9996 711.945 Q45.5436 711.945 43.4429 714.46 Q41.3104 716.942 41.3104 722.13 L41.3104 732.443 M21.7677 732.443 L36.0905 732.443 L36.0905 722.926 Q36.0905 718.216 34.34 715.924 Q32.5576 713.6 28.9291 713.6 Q25.3325 713.6 23.5501 715.924 Q21.7677 718.216 21.7677 722.926 L21.7677 732.443 M16.4842 738.872 L16.4842 722.449 Q16.4842 715.096 19.5397 711.118 Q22.5952 707.139 28.2289 707.139 Q32.5894 707.139 35.1675 709.176 Q37.7456 711.213 38.3822 715.16 Q39.4007 710.418 42.6472 707.808 Q45.8619 705.166 50.6998 705.166 Q57.0655 705.166 60.5348 709.495 Q64.0042 713.823 64.0042 721.812 L64.0042 738.872 L16.4842 738.872 Z" fill="#000000" fill-rule="nonzero" fill-opacity="1" /><path clip-path="url(#clip690)" d="M20.8447 676.011 Q20.8447 683.013 26.0645 687.151 Q31.2844 691.257 40.2919 691.257 Q49.2675 691.257 54.4874 687.151 Q59.7073 683.013 59.7073 676.011 Q59.7073 669.009 54.4874 664.935 Q49.2675 660.829 40.2919 660.829 Q31.2844 660.829 26.0645 664.935 Q20.8447 669.009 20.8447 676.011 M15.6248 676.011 Q15.6248 666.017 22.3406 660.033 Q29.0246 654.049 40.2919 654.049 Q51.5274 654.049 58.2432 660.033 Q64.9272 666.017 64.9272 676.011 Q64.9272 686.037 58.2432 692.052 Q51.5592 698.036 40.2919 698.036 Q29.0246 698.036 22.3406 692.052 Q15.6248 686.037 15.6248 676.011 Z" fill="#000000" fill-rule="nonzero" fill-opacity="1" /><polyline clip-path="url(#clip692)" style="stroke:#009af9; stroke-linecap:round; stroke-linejoin:round; stroke-width:4; stroke-opacity:1; fill:none" points="301.869,577.311 302.533,495.89 303.197,342.234 303.861,361.745 304.525,404.43 305.189,417.995 305.853,309.342 306.517,278.473 307.181,490.642 307.845,568.267 308.509,313.11 309.173,594.783 309.836,604.283 310.5,320.661 311.164,690.742 311.828,560.035 312.492,491.447 313.156,601.207 313.82,1168.24 314.484,302.944 315.148,471.241 315.812,417.805 316.476,312.081 317.14,528.654 317.804,462.973 318.468,378.29 319.132,654.303 319.796,376.068 320.46,604.939 321.123,435.094 321.787,223.389 322.451,264.584 323.115,380.925 323.779,231.712 324.443,289.367 325.107,270.353 325.771,283.87 326.435,295.476 327.099,254.429 327.763,274.067 328.427,254.719 329.091,110.407 329.755,204.422 330.419,154.785 331.083,165.3 331.746,232.988 332.41,167.658 333.074,177.699 333.738,107.86 334.402,141.719 335.066,106.129 335.73,197.156 336.394,248.92 337.058,201.045 337.722,85.7943 338.386,240.624 339.05,99.5243 339.714,137.502 340.378,95.3271 341.042,100.331 341.706,110.229 342.369,138.73 343.033,119.354 343.697,120.506 344.361,81.3876 345.025,63.6245 345.689,451.976 346.353,237.858 347.017,180.659 347.681,212.413 348.345,173.034 349.009,121.884 349.673,135.164 350.337,127.638 351.001,115.242 351.665,187.815 352.329,173.856 352.993,156.358 353.656,115.489 354.32,105.705 354.984,105.473 355.648,96.1571 356.312,88.324 356.976,94.2873 357.64,76.3571 358.304,110.615 358.968,78.6671 359.632,104.761 360.296,72.0987 360.96,98.276 361.624,79.6909 362.288,96.2599 362.952,75.6841 363.616,74.1771 364.279,78.8643 364.943,84.0429 365.607,87.9929 366.271,88.9828 366.935,92.802 367.599,94.3924 368.263,92.9694 368.927,77.7211 369.591,82.7306 370.255,81.1978 370.919,86.321 371.583,85.1678 372.247,106.149 372.911,158.209 373.575,116.981 374.239,95.4559 374.902,79.7287 375.566,74.529 376.23,78.5975 376.894,72.2498 377.558,88.8071 378.222,78.9002 378.886,68.2195 379.55,52.7994 380.214,102.977 380.878,83.1298 381.542,91.8981 382.206,137.986 382.87,141.156 383.534,124.625 384.198,122.044 384.862,104.335 385.526,88.6064 386.189,100.822 386.853,101.547 387.517,77.3051 388.181,79.9602 388.845,87.5852 389.509,95.9732 390.173,85.1924 390.837,105.717 391.501,84.356 392.165,89.1276 392.829,87.6481 393.493,83.2677 394.157,95.5073 394.821,94.2559 395.485,77.168 396.149,70.0679 396.812,83.8402 397.476,74.9088 398.14,80.97 398.804,101.925 399.468,97.3823 400.132,66.9868 400.796,79.5549 401.46,76.9011 402.124,83.2799 402.788,85.0099 403.452,81.7915 404.116,78.1916 404.78,87.0844 405.444,74.8953 406.108,96.0066 406.772,97.2063 407.435,70.1695 408.099,88.0711 408.763,85.367 409.427,79.8088 410.091,78.1826 410.755,71.9926 411.419,69.636 412.083,76.0041 412.747,113.733 413.411,81.6363 414.075,78.3322 414.739,79.582 415.403,63.3287 416.067,103.603 416.731,77.7315 417.395,78.0314 418.058,82.058 418.722,74.8341 419.386,81.8448 420.05,77.188 420.714,83.8776 421.378,80.1956 422.042,69.751 422.706,76.6829 423.37,77.0908 424.034,97.9712 424.698,76.0903 425.362,77.2759 426.026,74.9692 426.69,78.9153 427.354,79.2893 428.018,101.225 428.682,88.5043 429.345,74.8945 430.009,87.7791 430.673,76.4393 431.337,81.098 432.001,81.5506 432.665,57.3074 433.329,74.9094 433.993,123.953 434.657,102.316 435.321,83.2903 435.985,92.9004 436.649,82.9444 437.313,99.9969 437.977,96.0069 438.641,82.9862 439.305,105.42 439.968,87.4886 440.632,85.4922 441.296,93.2267 441.96,85.1029 442.624,77.1391 443.288,75.3387 443.952,72.8972 444.616,79.7129 445.28,72.9792 445.944,70.084 446.608,85.8364 447.272,95.723 447.936,77.2263 448.6,71.1391 449.264,90.2333 449.928,76.283 450.591,73.2062 451.255,78.1875 451.919,80.282 452.583,101.228 453.247,67.9945 453.911,89.5514 454.575,74.9334 455.239,69.8138 455.903,96.1703 456.567,77.9219 457.231,86.996 457.895,82.2466 458.559,82.226 459.223,97.4169 459.887,71.7005 460.551,80.3489 461.215,74.2725 461.878,112.853 462.542,79.3578 463.206,83.7638 463.87,86.932 464.534,83.1815 465.198,85.2644 465.862,85.9236 466.526,76.8576 467.19,90.8462 467.854,80.0785 468.518,70.6454 469.182,81.0976 469.846,90.2212 470.51,81.1649 471.174,83.8643 471.838,85.9756 472.501,80.5725 473.165,78.6967 473.829,71.54 474.493,87.1009 475.157,72.803 475.821,79.2844 476.485,74.9567 477.149,71.5481 477.813,79.3076 478.477,76.8467 479.141,86.2023 479.805,85.9051 480.469,78.2028 481.133,93.0328 481.797,72.4059 482.461,70.1799 483.124,79.0378 483.788,73.4531 484.452,87.354 485.116,82.9757 485.78,81.8468 486.444,76.9996 487.108,66.5474 487.772,84.8627 488.436,57.2453 489.1,85.9382 489.764,87.2155 490.428,92.1437 491.092,82.5786 491.756,69.492 492.42,76.795 493.084,97.7148 493.748,94.7512 494.411,86.0474 495.075,92.0088 495.739,81.8985 496.403,72.5225 497.067,89.4065 497.731,78.716 498.395,71.9729 499.059,69.9212 499.723,74.8797 500.387,82.598 501.051,85.7285 501.715,80.0675 502.379,73.1941 503.043,81.7315 503.707,79.0262 504.371,62.9293 505.034,90.3427 505.698,71.994 506.362,72.2452 507.026,79.2446 507.69,69.0185 508.354,102.501 509.018,126.837 509.682,87.1137 510.346,69.634 511.01,75.2346 511.674,79.7547 512.338,103.474 513.002,97.3983 513.666,76.9533 514.33,86.7108 514.994,73.8405 515.657,86.1004 516.321,80.6872 516.985,75.3578 517.649,78.2708 518.313,76.0458 518.977,80.5705 519.641,76.751 520.305,82.5521 520.969,93.0386 521.633,85.5932 522.297,84.0661 522.961,84.1942 523.625,84.2145 524.289,79.3204 524.953,57.2582 525.617,71.9679 526.281,178.247 526.944,146.543 527.608,96.191 528.272,85.2019 528.936,77.0278 529.6,68.27 530.264,78.5032 530.928,79.9989 531.592,78.6963 532.256,91.0237 532.92,70.6627 533.584,84.5185 534.248,79.0659 534.912,90.5963 535.576,88.0151 536.24,84.8743 536.904,68.6497 537.567,87.4722 538.231,74.72 538.895,79.8575 539.559,77.1699 540.223,74.9467 540.887,83.5141 541.551,112.081 542.215,84.8356 542.879,82.0973 543.543,71.7449 544.207,67.072 544.871,83.3371 545.535,64.9007 546.199,71.3822 546.863,71.0012 547.527,83.8622 548.19,73.8275 548.854,80.5845 549.518,85.1069 550.182,81.6142 550.846,88.5133 551.51,74.9957 552.174,77.0758 552.838,72.4751 553.502,74.5641 554.166,72.9919 554.83,68.3386 555.494,73.2554 556.158,78.4376 556.822,79.6361 557.486,63.49 558.15,78.5741 558.813,83.4069 559.477,78.974 560.141,80.6583 560.805,77.0803 561.469,87.8464 562.133,102.035 562.797,89.2372 563.461,84.5836 564.125,84.5654 564.789,78.7877 565.453,85.3972 566.117,75.961 566.781,75.7982 567.445,83.9776 568.109,72.1904 568.773,85.6126 569.437,81.0826 570.1,80.2338 570.764,78.8415 571.428,81.6179 572.092,82.5617 572.756,76.9979 573.42,81.1278 574.084,73.1 574.748,76.4145 575.412,81.8827 576.076,74.1936 576.74,73.7265 577.404,79.0108 578.068,70.9557 578.732,156.087 579.396,150.205 580.06,168.271 580.723,98.1991 581.387,203.637 582.051,103.025 582.715,107.127 583.379,107.148 584.043,93.8438 584.707,101.744 585.371,79.0897 586.035,90.2421 586.699,88.2322 587.363,113.446 588.027,92.2995 588.691,98.192 589.355,47.2441 590.019,91.8507 590.683,234.419 591.346,108.434 592.01,112.855 592.674,92.7896 593.338,90.0019 594.002,90.4394 594.666,83.0203 595.33,106.326 595.994,88.7825 596.658,95.632 597.322,79.7108 597.986,81.2535 598.65,85.198 599.314,75.5922 599.978,105.6 600.642,99.8805 601.306,101.135 601.97,84.1445 602.633,110.72 603.297,82.4331 603.961,87.7741 604.625,112.887 605.289,80.8251 605.953,92.0149 606.617,94.5761 607.281,80.3575 607.945,89.696 608.609,92.4741 609.273,86.0326 609.937,86.0883 610.601,102.289 611.265,100.477 611.929,96.4999 612.593,72.3608 613.256,90.5213 613.92,76.1786 614.584,90.8349 615.248,91.5373 615.912,88.3699 616.576,77.6107 617.24,99.5734 617.904,79.3207 618.568,92.079 619.232,79.1959 619.896,89.8337 620.56,78.1265 621.224,85.0537 621.888,101.014 622.552,85.4506 623.216,81.9252 623.879,92.7149 624.543,87.4099 625.207,84.4828 625.871,69.8663 626.535,65.0909 627.199,85.4406 627.863,139.422 628.527,100.357 629.191,88.0636 629.855,82.0742 630.519,79.3594 631.183,83.398 631.847,100.998 632.511,89.6256 633.175,87.436 633.839,82.3936 634.503,81.7502 635.166,90.985 635.83,85.0591 636.494,84.0481 637.158,81.8573 637.822,106.319 638.486,66.3848 639.15,86.9534 639.814,122.573 640.478,85.4252 641.142,85.0785 641.806,90.2911 642.47,87.397 643.134,82.9228 643.798,84.2223 644.462,95.9333 645.126,90.1689 645.789,82.3388 646.453,83.7038 647.117,78.6761 647.781,74.3222 648.445,75.8428 649.109,79.0407 649.773,98.3694 650.437,83.9037 651.101,82.8675 651.765,73.2868 652.429,69.9441 653.093,82.6251 653.757,75.147 654.421,95.2377 655.085,91.5516 655.749,74.1864 656.412,84.6001 657.076,94.5123 657.74,68.9856 658.404,92.1324 659.068,87.7195 659.732,83.0163 660.396,79.4053 661.06,88.5251 661.724,87.0209 662.388,80.5327 663.052,82.4642 663.716,73.1104 664.38,84.5216 665.044,82.2232 665.708,76.4244 666.372,76.4024 667.036,77.856 667.699,72.879 668.363,71.7036 669.027,91.8944 669.691,83.0605 670.355,77.8836 671.019,82.4566 671.683,77.1535 672.347,82.1341 673.011,75.1489 673.675,79.2463 674.339,80.3514 675.003,70.7839 675.667,86.5321 676.331,75.9477 676.995,79.1473 677.659,89.3592 678.322,82.901 678.986,83.312 679.65,80.0573 680.314,84.8643 680.978,86.9857 681.642,84.0494 682.306,92.6771 682.97,79.7495 683.634,84.7714 684.298,83.3721 684.962,83.1352 685.626,91.2011 686.29,77.1345 686.954,88.6279 687.618,79.0332 688.282,71.161 688.945,104.103 689.609,85.4783 690.273,104.021 690.937,70.0113 691.601,99.6722 692.265,82.0524 692.929,81.5382 693.593,85.8077 694.257,64.2693 694.921,96.727 695.585,85.8734 696.249,83.4963 696.913,82.0207 697.577,81.1849 698.241,79.7954 698.905,84.7239 699.569,65.3341 700.232,75.2378 700.896,90.3161 701.56,83.9421 702.224,88.3873 702.888,77.9485 703.552,86.3473 704.216,78.8833 704.88,84.3685 705.544,85.3132 706.208,82.6263 706.872,93.1051 707.536,82.3901 708.2,85.6174 708.864,99.9792 709.528,101.053 710.192,81.2894 710.855,77.1136 711.519,83.658 712.183,72.851 712.847,78.1919 713.511,74.0285 714.175,73.9167 714.839,75.8456 715.503,99.2147 716.167,93.2459 716.831,72.6726 717.495,78.0825 718.159,87.6346 718.823,77.1107 719.487,71.6087 720.151,75.2013 720.815,74.2505 721.478,72.3465 722.142,77.6285 722.806,97.492 723.47,85.2018 724.134,88.9672 724.798,68.9714 725.462,75.5535 726.126,75.6974 726.79,77.1687 727.454,70.2363 728.118,71.4145 728.782,94.5189 729.446,83.132 730.11,65.8731 730.774,85.3875 731.438,78.5284 732.101,81.7893 732.765,73.3905 733.429,81.6508 734.093,71.5875 734.757,76.8424 735.421,87.7825 736.085,86.9563 736.749,96.4475 737.413,73.1525 738.077,80.1186 738.741,77.168 739.405,75.6837 740.069,78.8467 740.733,75.8663 741.397,75.5814 742.061,78.9185 742.725,74.4864 743.388,70.4417 744.052,122.84 744.716,76.2762 745.38,80.3804 746.044,77.3502 746.708,77.424 747.372,78.8158 748.036,78.3123 748.7,71.9378 749.364,86.6837 750.028,76.9924 750.692,90.8523 751.356,74.1194 752.02,83.2369 752.684,81.0577 753.348,80.3353 754.011,95.9318 754.675,79.0705 755.339,81.0724 756.003,76.2355 756.667,78.6628 757.331,75.07 757.995,74.7751 758.659,71.901 759.323,78.4484 759.987,74.3257 760.651,81.67 761.315,77.7431 761.979,77.7516 762.643,76.8238 763.307,69.5227 763.971,79.1142 764.634,68.3369 765.298,76.4534 765.962,80.6671 766.626,79.307 767.29,70.4572 767.954,66.4017 768.618,95.2595 769.282,74.1969 769.946,80.9663 770.61,77.4989 771.274,86.2193 771.938,82.4536 772.602,81.8703 773.266,80.5653 773.93,79.2944 774.594,80.5907 775.258,70.3609 775.921,82.1276 776.585,71.5774 777.249,70.9903 777.913,90.8216 778.577,81.2781 779.241,92.696 779.905,81.8641 780.569,85.8896 781.233,72.0075 781.897,88.2939 782.561,85.1405 783.225,75.6945 783.889,80.6406 784.553,78.5006 785.217,83.211 785.881,89.6123 786.544,74.4081 787.208,71.3353 787.872,94.0972 788.536,78.4903 789.2,84.7929 789.864,75.106 790.528,86.8916 791.192,92.4443 791.856,111.143 792.52,105.488 793.184,94.7675 793.848,80.5769 794.512,75.5648 795.176,89.2461 795.84,81.6839 796.504,80.6455 797.167,74.7255 797.831,72.34 798.495,87.0479 799.159,79.1879 799.823,81.3298 800.487,80.7224 801.151,81.3882 801.815,93.1242 802.479,78.6527 803.143,92.5889 803.807,72.2431 804.471,78.9885 805.135,84.0805 805.799,79.4932 806.463,84.0169 807.127,88.8592 807.791,74.722 808.454,74.9538 809.118,91.8932 809.782,74.9052 810.446,83.6285 811.11,84.3175 811.774,73.2463 812.438,81.5043 813.102,75.6423 813.766,78.3653 814.43,72.8393 815.094,84.2087 815.758,75.2129 816.422,66.8884 817.086,73.8651 817.75,66.2117 818.414,84.2902 819.077,72.2942 819.741,75.18 820.405,84.5146 821.069,77.3815 821.733,76.7436 822.397,90.4186 823.061,77.7917 823.725,81.648 824.389,83.976 825.053,78.864 825.717,71.9418 826.381,79.0065 827.045,74.8898 827.709,78.3798 828.373,68.1941 829.037,98.5167 829.7,84.051 830.364,103.184 831.028,82.3479 831.692,103.272 832.356,88.7706 833.02,89.5735 833.684,94.5902 834.348,83.3609 835.012,80.3708 835.676,86.0578 836.34,84.3842 837.004,78.7353 837.668,75.8737 838.332,68.9309 838.996,82.3007 839.66,70.851 840.324,66.5677 840.987,77.1162 841.651,79.9293 842.315,82.7602 842.979,106.861 843.643,83.2271 844.307,77.8469 844.971,80.4826 845.635,73.3956 846.299,76.9769 846.963,76.8783 847.627,74.5531 848.291,81.4734 848.955,74.326 849.619,78.2196 850.283,86.3837 850.947,80.387 851.61,74.9426 852.274,84.6961 852.938,82.9013 853.602,90.355 854.266,80.202 854.93,80.4392 855.594,79.3098 856.258,79.6157 856.922,62.2906 857.586,83.1036 858.25,80.0065 858.914,89.4354 859.578,79.7078 860.242,84.7777 860.906,83.11 861.57,72.9501 862.233,94.0647 862.897,75.8697 863.561,85.1326 864.225,78.4155 864.889,73.3578 865.553,85.1048 866.217,73.5334 866.881,77.6127 867.545,92.0688 868.209,75.9807 868.873,74.7691 869.537,73.4012 870.201,79.2786 870.865,81.5895 871.529,85.845 872.193,82.5051 872.856,78.7579 873.52,87.9933 874.184,82.4483 874.848,79.8931 875.512,72.3281 876.176,99.5579 876.84,86.5949 877.504,86.1255 878.168,78.2683 878.832,78.9382 879.496,80.0005 880.16,92.601 880.824,84.9992 881.488,79.2812 882.152,63.5646 882.816,84.7666 883.48,74.8459 884.143,89.7664 884.807,89.679 885.471,79.3352 886.135,79.9574 886.799,79.3676 887.463,76.721 888.127,94.6483 888.791,70.2824 889.455,80.5261 890.119,84.4738 890.783,80.5591 891.447,72.6807 892.111,77.016 892.775,79.6597 893.439,89.9132 894.103,82.5292 894.766,74.2093 895.43,77.6989 896.094,70.9368 896.758,104.884 897.422,73.7498 898.086,80.2936 898.75,78.6351 899.414,81.0114 900.078,74.727 900.742,84.3339 901.406,76.1394 902.07,72.5523 902.734,80.6949 903.398,74.6704 904.062,81.5795 904.726,76.0786 905.389,73.4511 906.053,79.9728 906.717,66.9983 907.381,65.2207 908.045,114.911 908.709,91.4241 909.373,65.3853 910.037,83.4327 910.701,80.9844 911.365,54.2211 912.029,110.571 912.693,74.1146 913.357,79.6256 914.021,72.9015 914.685,87.787 915.349,77.0631 916.013,70.6362 916.676,76.7343 917.34,72.9106 918.004,70.5375 918.668,87.7232 919.332,65.8851 919.996,72.9067 920.66,74.8226 921.324,76.5492 921.988,81.5115 922.652,88.7543 923.316,74.0724 923.98,88.3163 924.644,73.4912 925.308,78.4081 925.972,67.9839 926.636,99.0951 927.299,68.5315 927.963,66.0676 928.627,86.1324 929.291,80.2188 929.955,86.6771 930.619,74.183 931.283,78.7554 931.947,75.0889 932.611,84.96 933.275,86.5559 933.939,81.1322 934.603,68.3306 935.267,74.8738 935.931,72.5137 936.595,84.987 937.259,76.9727 937.922,78.4962 938.586,78.8074 939.25,76.5217 939.914,82.8803 940.578,73.7986 941.242,80.5393 941.906,77.935 942.57,71.0964 943.234,72.6414 943.898,72.7166 944.562,79.8479 945.226,78.784 945.89,77.8413 946.554,84.327 947.218,79.4748 947.882,78.6681 948.546,80.7735 949.209,78.7049 949.873,73.0399 950.537,77.7725 951.201,76.8507 951.865,77.2646 952.529,82.1113 953.193,75.1915 953.857,68.5881 954.521,90.5627 955.185,76.1244 955.849,80.7454 956.513,73.9678 957.177,68.1625 957.841,77.641 958.505,76.5852 959.169,74.8735 959.832,76.1828 960.496,72.2694 961.16,78.2845 961.824,79.4518 962.488,126.771 963.152,105.063 963.816,91.4485 964.48,75.4162 965.144,88.1091 965.808,83.0564 966.472,86.5968 967.136,86.6998 967.8,73.2309 968.464,81.6764 969.128,71.8174 969.792,77.1239 970.455,85.3679 971.119,85.7167 971.783,86.7957 972.447,63.5731 973.111,84.6553 973.775,77.886 974.439,81.6408 975.103,62.1703 975.767,81.8557 976.431,97.2306 977.095,97.2347 977.759,76.3115 978.423,76.4662 979.087,78.8793 979.751,81.349 980.415,81.176 981.079,77.497 981.742,76.4526 982.406,78.9446 983.07,70.6597 983.734,73.3141 984.398,74.0884 985.062,78.1064 985.726,85.3261 986.39,79.6351 987.054,80.1263 987.718,78.5394 988.382,73.5815 989.046,70.2191 989.71,74.3826 990.374,82.5614 991.038,74.5253 991.702,78.8143 992.365,78.541 993.029,72.0096 993.693,76.4172 994.357,73.5675 995.021,82.2141 995.685,88.6819 996.349,86.1123 997.013,78.5863 997.677,77.5934 998.341,83.7224 999.005,80.488 999.669,95.398 1000.33,86.6153 1001,59.0112 1001.66,85.8022 1002.32,84.7446 1002.99,75.0755 1003.65,78.0066 1004.32,81.3178 1004.98,72.3101 1005.64,93.9189 1006.31,64.548 1006.97,94.08 1007.64,88.0036 1008.3,51.9063 1008.96,85.8713 1009.63,76.5354 1010.29,93.0096 1010.96,78.5301 1011.62,82.686 1012.28,86.8444 1012.95,66.5321 1013.61,78.1856 1014.28,86.0169 1014.94,95.5894 1015.6,84.3082 1016.27,80.3808 1016.93,82.3984 1017.6,80.5747 1018.26,73.8232 1018.92,74.1431 1019.59,78.6817 1020.25,74.6089 1020.91,97.0077 1021.58,85.7193 1022.24,71.3799 1022.91,73.9783 1023.57,76.1015 1024.23,67.8735 1024.9,70.7343 1025.56,75.1985 1026.23,76.5388 1026.89,85.2286 1027.55,85.6744 1028.22,69.3912 1028.88,85.7114 1029.55,77.7634 1030.21,80.9396 1030.87,77.3547 1031.54,71.9852 1032.2,79.7926 1032.87,85.2744 1033.53,70.647 1034.19,77.1958 1034.86,78.2916 1035.52,75.3235 1036.19,79.8149 1036.85,71.6559 1037.51,80.0504 1038.18,80.2025 1038.84,80.3328 1039.51,79.715 1040.17,73.7866 1040.83,76.7435 1041.5,76.1074 1042.16,70.0081 1042.82,93.4702 1043.49,87.9029 1044.15,80.4793 1044.82,78.8676 1045.48,75.8128 1046.14,78.1047 1046.81,73.0266 1047.47,80.3038 1048.14,79.218 1048.8,81.4782 1049.46,74.5372 1050.13,98.5387 1050.79,73.2942 1051.46,83.0153 1052.12,94.2613 1052.78,77.3112 1053.45,76.9903 1054.11,85.2065 1054.78,78.9097 1055.44,84.4498 1056.1,74.7165 1056.77,88.0538 1057.43,85.7918 1058.1,72.1924 1058.76,88.4278 1059.42,76.9936 1060.09,293.924 1060.75,115.546 1061.42,87.3833 1062.08,103.391 1062.74,88.2313 1063.41,110.075 1064.07,98.3527 1064.73,80.203 1065.4,90.0945 1066.06,95.0358 1066.73,87.0162 1067.39,88.2449 1068.05,95.8111 1068.72,71.5905 1069.38,82.8356 1070.05,81.8629 1070.71,102.615 1071.37,69.7368 1072.04,104.662 1072.7,94.6342 1073.37,83.4491 1074.03,84.6394 1074.69,88.343 1075.36,76.3129 1076.02,81.7135 1076.69,87.0225 1077.35,85.6622 1078.01,76.1922 1078.68,86.8427 1079.34,95.9056 1080.01,83.0056 1080.67,49.9899 1081.33,82.7785 1082,85.374 1082.66,149.063 1083.33,99.5645 1083.99,69.6059 1084.65,96.8157 1085.32,96.2928 1085.98,96.079 1086.64,94.4515 1087.31,86.9841 1087.97,87.6161 1088.64,91.2251 1089.3,73.6861 1089.96,78.9282 1090.63,86.3989 1091.29,92.4598 1091.96,99.9507 1092.62,90.2469 1093.28,88.0127 1093.95,87.3335 1094.61,84.3703 1095.28,86.0909 1095.94,73.1605 1096.6,92.8611 1097.27,82.5995 1097.93,84.0756 1098.6,68.6479 1099.26,77.6908 1099.92,76.7119 1100.59,79.1131 1101.25,96.2265 1101.92,73.9569 1102.58,102.874 1103.24,75.1211 1103.91,84.1651 1104.57,67.8298 1105.24,90.2627 1105.9,85.5612 1106.56,50.5903 1107.23,80.5293 1107.89,96.6303 1108.55,79.9389 1109.22,58.5118 1109.88,83.1202 1110.55,89.3857 1111.21,79.3504 1111.87,87.3019 1112.54,82.491 1113.2,84.282 1113.87,73.6869 1114.53,90.3386 1115.19,73.2286 1115.86,84.2494 1116.52,86.118 1117.19,78.1985 1117.85,79.8572 1118.51,90.4163 1119.18,78.4524 1119.84,83.4868 1120.51,68.8717 1121.17,77.2688 1121.83,85.1657 1122.5,79.7551 1123.16,79.8427 1123.83,82.3556 1124.49,68.0189 1125.15,79.6543 1125.82,81.9876 1126.48,73.7675 1127.15,82.4992 1127.81,85.2285 1128.47,85.2163 1129.14,79.2886 1129.8,80.1454 1130.46,68.5897 1131.13,68.8542 1131.79,81.0708 1132.46,71.4902 1133.12,79.6771 1133.78,84.1039 1134.45,76.3301 1135.11,77.7835 1135.78,74.863 1136.44,73.3929 1137.1,72.4739 1137.77,81.3069 1138.43,70.8398 1139.1,73.0727 1139.76,77.0841 1140.42,81.6465 1141.09,70.6827 1141.75,87.4888 1142.42,70.5864 1143.08,87.177 1143.74,71.1378 1144.41,89.0683 1145.07,91.0425 1145.74,83.8292 1146.4,72.9844 1147.06,76.9581 1147.73,70.0987 1148.39,103.758 1149.05,71.1201 1149.72,85.5735 1150.38,71.5659 1151.05,80.1075 1151.71,83.8532 1152.37,71.8872 1153.04,76.8993 1153.7,77.1082 1154.37,86.829 1155.03,75.8329 1155.69,78.0518 1156.36,69.4506 1157.02,79.1774 1157.69,80.6664 1158.35,72.9598 1159.01,88.6988 1159.68,74.7854 1160.34,64.2617 1161.01,84.7428 1161.67,79.0322 1162.33,73.3401 1163,72.115 1163.66,77.6343 1164.33,73.1429 1164.99,75.1812 1165.65,89.5969 1166.32,78.4454 1166.98,75.8604 1167.65,91.086 1168.31,77.2091 1168.97,75.5674 1169.64,83.6765 1170.3,79.0439 1170.96,73.6906 1171.63,62.648 1172.29,75.271 1172.96,76.3231 1173.62,82.9053 1174.28,75.7239 1174.95,77.4959 1175.61,71.6103 1176.28,68.5145 1176.94,72.7232 1177.6,113.249 1178.27,89.764 1178.93,77.1382 1179.6,68.6416 1180.26,107.398 1180.92,86.3786 1181.59,72.5466 1182.25,82.2094 1182.92,76.3204 1183.58,74.0787 1184.24,80.9969 1184.91,71.5874 1185.57,82.4448 1186.24,77.8454 1186.9,80.992 1187.56,72.8525 1188.23,69.2971 1188.89,75.5664 1189.56,78.2525 1190.22,74.2074 1190.88,75.4525 1191.55,81.9388 1192.21,71.8279 1192.87,73.8204 1193.54,80.3618 1194.2,74.9328 1194.87,82.6527 1195.53,79.3889 1196.19,76.2229 1196.86,76.0793 1197.52,76.5996 1198.19,76.1178 1198.85,79.7659 1199.51,102.049 1200.18,90.5559 1200.84,77.5655 1201.51,77.6703 1202.17,76.3606 1202.83,96.1014 1203.5,77.2483 1204.16,100.292 1204.83,82.9838 1205.49,73.6217 1206.15,82.2171 1206.82,76.5708 1207.48,76.1645 1208.15,71.7934 1208.81,78.7237 1209.47,76.1234 1210.14,75.2566 1210.8,79.917 1211.47,73.712 1212.13,83.0336 1212.79,70.3606 1213.46,75.9097 1214.12,78.8518 1214.78,68.0057 1215.45,72.5853 1216.11,75.4268 1216.78,77.3476 1217.44,69.5072 1218.1,94.9046 1218.77,81.4072 1219.43,74.8664 1220.1,72.0086 1220.76,79.6202 1221.42,74.6203 1222.09,79.2024 1222.75,84.4668 1223.42,72.4708 1224.08,103.352 1224.74,100.739 1225.41,71.9607 1226.07,80.5979 1226.74,77.882 1227.4,83.7074 1228.06,76.7365 1228.73,75.1743 1229.39,92.2333 1230.06,65.2461 1230.72,82.6609 1231.38,74.2303 1232.05,71.94 1232.71,69.3566 1233.38,77.5844 1234.04,75.1707 1234.7,70.537 1235.37,96.5136 1236.03,77.41 1236.69,75.1691 1237.36,93.7767 1238.02,76.2708 1238.69,81.8264 1239.35,85.4168 1240.01,75.7888 1240.68,74.6953 1241.34,75.2114 1242.01,80.979 1242.67,78.5131 1243.33,72.6761 1244,78.1605 1244.66,68.549 1245.33,84.0859 1245.99,72.4641 1246.65,101.046 1247.32,86.812 1247.98,79.9831 1248.65,80.2215 1249.31,69.558 1249.97,79.3889 1250.64,98.3468 1251.3,82.9099 1251.97,74.4974 1252.63,77.4506 1253.29,82.206 1253.96,80.9457 1254.62,84.3963 1255.29,75.5433 1255.95,73.8203 1256.61,77.8044 1257.28,65.8713 1257.94,84.0901 1258.6,79.2169 1259.27,84.4871 1259.93,78.1921 1260.6,57.8007 1261.26,71.9345 1261.92,70.9353 1262.59,87.8066 1263.25,99.025 1263.92,78.6723 1264.58,79.3099 1265.24,69.3607 1265.91,87.4424 1266.57,75.8924 1267.24,83.0603 1267.9,72.7838 1268.56,81.1576 1269.23,74.0419 1269.89,70.3229 1270.56,77.4655 1271.22,79.6426 1271.88,74.9993 1272.55,79.8698 1273.21,77.1829 1273.88,74.2086 1274.54,78.2607 1275.2,73.3066 1275.87,78.6937 1276.53,82.8841 1277.2,70.2319 1277.86,82.3017 1278.52,73.1864 1279.19,80.4765 1279.85,79.6289 1280.51,74.4765 1281.18,72.7792 1281.84,73.5822 1282.51,75.9038 1283.17,72.5304 1283.83,69.832 1284.5,84.1234 1285.16,72.9344 1285.83,82.3863 1286.49,76.7765 1287.15,74.6123 1287.82,84.0032 1288.48,73.0877 1289.15,70.7776 1289.81,77.961 1290.47,85.0923 1291.14,76.0943 1291.8,74.9881 1292.47,79.3293 1293.13,79.1742 1293.79,97.8285 1294.46,66.2666 1295.12,79.5224 1295.79,73.1941 1296.45,82.3161 1297.11,78.1331 1297.78,81.4508 1298.44,75.0447 1299.11,80.7123 1299.77,78.4366 1300.43,75.2653 1301.1,76.086 1301.76,79.8792 1302.42,72.0365 1303.09,68.477 1303.75,107.819 1304.42,87.297 1305.08,89.2275 1305.74,79.8796 1306.41,75.0775 1307.07,72.0372 1307.74,72.471 1308.4,85.7779 1309.06,76.3218 1309.73,71.4998 1310.39,76.4683 1311.06,114.949 1311.72,123.299 1312.38,82.6936 1313.05,73.351 1313.71,86.834 1314.38,74.3913 1315.04,76.378 1315.7,73.2572 1316.37,80.6166 1317.03,82.9066 1317.7,81.245 1318.36,70.4545 1319.02,83.7816 1319.69,85.0298 1320.35,77.5454 1321.02,73.4334 1321.68,76.6524 1322.34,78.4213 1323.01,80.7915 1323.67,75.0623 1324.33,77.3092 1325,82.8533 1325.66,74.7429 1326.33,76.5302 1326.99,75.8339 1327.65,77.6322 1328.32,73.6336 1328.98,79.0398 1329.65,72.988 1330.31,75.5531 1330.97,87.6119 1331.64,84.4216 1332.3,77.0962 1332.97,71.4819 1333.63,80.3196 1334.29,78.6673 1334.96,67.9852 1335.62,81.5858 1336.29,76.1151 1336.95,68.9244 1337.61,79.3966 1338.28,78.3549 1338.94,81.2854 1339.61,84.3173 1340.27,79.8328 1340.93,79.9305 1341.6,74.245 1342.26,75.4743 1342.93,71.2612 1343.59,74.6949 1344.25,78.7969 1344.92,80.1623 1345.58,73.5462 1346.24,73.0364 1346.91,70.0151 1347.57,75.1864 1348.24,76.2268 1348.9,80.0603 1349.56,77.782 1350.23,83.2758 1350.89,67.9655 1351.56,75.2437 1352.22,75.3864 1352.88,85.1293 1353.55,86.1496 1354.21,79.9184 1354.88,78.097 1355.54,77.4879 1356.2,77.0636 1356.87,96.5225 1357.53,74.7273 1358.2,71.5876 1358.86,88.2128 1359.52,76.8078 1360.19,80.7942 1360.85,72.6038 1361.52,77.169 1362.18,77.4789 1362.84,62.7375 1363.51,98.3481 1364.17,76.6631 1364.84,77.5257 1365.5,83.7189 1366.16,75.1431 1366.83,88.0833 1367.49,83.8102 1368.15,74.767 1368.82,80.7536 1369.48,84.2403 1370.15,74.3467 1370.81,70.7165 1371.47,80.1874 1372.14,80.1835 1372.8,74.2231 1373.47,80.7604 1374.13,74.4655 1374.79,74.6848 1375.46,77.8799 1376.12,71.5747 1376.79,76.4406 1377.45,75.0966 1378.11,64.4166 1378.78,70.1587 1379.44,97.149 1380.11,82.7665 1380.77,74.6316 1381.43,78.3117 1382.1,72.9326 1382.76,74.4701 1383.43,83.0999 1384.09,79.2872 1384.75,76.9187 1385.42,76.1256 1386.08,78.9454 1386.75,80.9619 1387.41,68.898 1388.07,88.3062 1388.74,80.7137 1389.4,68.4871 1390.06,84.8605 1390.73,78.145 1391.39,83.0941 1392.06,79.1642 1392.72,72.4703 1393.38,76.3449 1394.05,75.9431 1394.71,73.7919 1395.38,79.9315 1396.04,78.297 1396.7,87.6215 1397.37,78.9965 1398.03,76.4501 1398.7,76.909 1399.36,81.8617 1400.02,74.1273 1400.69,75.412 1401.35,72.4125 1402.02,83.3845 1402.68,76.4154 1403.34,72.9397 1404.01,88.8575 1404.67,81.7971 1405.34,78.8123 1406,77.3715 1406.66,85.8638 1407.33,72.9266 1407.99,69.5595 1408.66,81.675 1409.32,77.5916 1409.98,77.1496 1410.65,80.6866 1411.31,79.4929 1411.97,77.1622 1412.64,66.1751 1413.3,74.8629 1413.97,82.6491 1414.63,80.7289 1415.29,73.8566 1415.96,70.5573 1416.62,86.6593 1417.29,77.8075 1417.95,78.1066 1418.61,80.3138 1419.28,80.523 1419.94,66.2076 1420.61,77.4904 1421.27,76.4682 1421.93,79.2243 1422.6,78.6635 1423.26,74.9523 1423.93,83.374 1424.59,76.3195 1425.25,87.3792 1425.92,77.8307 1426.58,83.2882 1427.25,87.4809 1427.91,77.5671 1428.57,71.2116 1429.24,72.5154 1429.9,59.477 1430.56,83.3034 1431.23,80.0311 1431.89,64.8246 1432.56,81.3506 1433.22,80.1687 1433.88,75.8755 1434.55,75.9017 1435.21,76.5464 1435.88,73.2255 1436.54,74.9764 1437.2,80.5608 1437.87,76.8373 1438.53,75.5636 1439.2,83.2173 1439.86,75.6363 1440.52,74.495 1441.19,82.1334 1441.85,81.8486 1442.52,82.0187 1443.18,80.6782 1443.84,81.6587 1444.51,74.3381 1445.17,74.1773 1445.84,84.8152 1446.5,77.6273 1447.16,74.6714 1447.83,77.1149 1448.49,76.75 1449.16,68.671 1449.82,69.5058 1450.48,77.9194 1451.15,77.672 1451.81,81.4258 1452.47,80.8566 1453.14,73.0523 1453.8,74.9919 1454.47,85.2607 1455.13,76.6001 1455.79,77.9634 1456.46,72.6106 1457.12,79.0387 1457.79,68.0716 1458.45,81.9658 1459.11,65.1252 1459.78,74.8152 1460.44,70.1001 1461.11,82.2207 1461.77,75.9645 1462.43,78.4326 1463.1,76.0656 1463.76,80.7172 1464.43,77.6316 1465.09,85.1457 1465.75,74.2273 1466.42,75.2502 1467.08,73.3326 1467.75,71.0565 1468.41,98.0665 1469.07,70.2439 1469.74,74.8432 1470.4,73.6021 1471.07,88.2319 1471.73,75.8443 1472.39,82.6474 1473.06,79.5586 1473.72,80.5325 1474.38,75.918 1475.05,74.9431 1475.71,73.9338 1476.38,74.167 1477.04,79.8146 1477.7,80.9456 1478.37,75.3176 1479.03,70.444 1479.7,77.0991 1480.36,77.0295 1481.02,93.1071 1481.69,72.9018 1482.35,76.5688 1483.02,85.2727 1483.68,84.7746 1484.34,74.9178 1485.01,86.83 1485.67,80.0751 1486.34,72.1015 1487,82.54 1487.66,77.665 1488.33,76.9969 1488.99,77.8774 1489.66,79.512 1490.32,76.1435 1490.98,74.8214 1491.65,78.7371 1492.31,83.8801 1492.98,86.9925 1493.64,102.416 1494.3,77.0457 1494.97,74.7195 1495.63,74.9416 1496.29,73.7192 1496.96,79.3945 1497.62,89.6735 1498.29,71.0817 1498.95,98.5968 1499.61,86.9858 1500.28,81.0231 1500.94,66.7687 1501.61,78.6043 1502.27,70.8122 1502.93,73.4035 1503.6,70.4038 1504.26,82.6496 1504.93,83.4381 1505.59,66.7918 1506.25,71.0521 1506.92,76.5909 1507.58,78.7467 1508.25,67.5778 1508.91,111.042 1509.57,89.9569 1510.24,80.3295 1510.9,74.7158 1511.57,82.6135 1512.23,80.3974 1512.89,88.005 1513.56,74.6328 1514.22,75.5136 1514.89,77.2777 1515.55,78.4229 1516.21,70.3718 1516.88,78.6648 1517.54,78.4013 1518.2,77.5933 1518.87,94.6388 1519.53,83.7646 1520.2,65.0303 1520.86,83.3997 1521.52,74.5679 1522.19,80.2945 1522.85,74.6566 1523.52,84.5119 1524.18,79.518 1524.84,73.3653 1525.51,80.1771 1526.17,79.6756 1526.84,72.2858 1527.5,84.7193 1528.16,79.3232 1528.83,74.5559 1529.49,75.6821 1530.16,71.609 1530.82,61.9116 1531.48,77.7904 1532.15,70.8957 1532.81,80.7342 1533.48,74.3811 1534.14,76.9246 1534.8,83.4125 1535.47,75.5219 1536.13,84.105 1536.8,80.892 1537.46,80.7902 1538.12,79.8027 1538.79,76.6853 1539.45,77.0286 1540.11,77.829 1540.78,70.7109 1541.44,85.5385 1542.11,75.3148 1542.77,85.4594 1543.43,77.6194 1544.1,79.581 1544.76,77.7558 1545.43,79.5632 1546.09,77.2934 1546.75,72.7707 1547.42,73.6192 1548.08,78.4214 1548.75,78.0811 1549.41,72.0234 1550.07,82.4276 1550.74,75.912 1551.4,72.1968 1552.07,75.2746 1552.73,68.9443 1553.39,89.5998 1554.06,76.7011 1554.72,78.8442 1555.39,69.2298 1556.05,75.1999 1556.71,73.3889 1557.38,84.8034 1558.04,75.2557 1558.71,82.7366 1559.37,75.0295 1560.03,80.0933 1560.7,75.3591 1561.36,72.8496 1562.02,76.9589 1562.69,75.6807 1563.35,77.4306 1564.02,76.6869 1564.68,79.5774 1565.34,75.3243 1566.01,79.0704 1566.67,68.6489 1567.34,80.9163 1568,76.7819 1568.66,73.3203 1569.33,88.6337 1569.99,73.0551 1570.66,68.7151 1571.32,83.491 1571.98,72.8681 1572.65,78.5157 1573.31,72.3683 1573.98,81.3054 1574.64,91.112 1575.3,81.0479 1575.97,83.5921 1576.63,79.4771 1577.3,76.357 1577.96,80.6038 1578.62,72.7787 1579.29,84.8548 1579.95,78.5012 1580.62,75.8782 1581.28,74.0917 1581.94,77.143 1582.61,77.4717 1583.27,74.0714 1583.93,79.0837 1584.6,75.4463 1585.26,79.6229 1585.93,83.1785 1586.59,77.7752 1587.25,74.043 1587.92,76.0143 1588.58,81.7916 1589.25,78.0382 1589.91,78.8062 1590.57,73.0209 1591.24,78.2769 1591.9,76.1376 1592.57,80.3224 1593.23,71.7377 1593.89,84.3707 1594.56,74.4869 1595.22,71.8979 1595.89,73.1482 1596.55,79.5187 1597.21,76.1762 1597.88,81.4205 1598.54,76.7801 1599.21,71.4093 1599.87,73.5051 1600.53,82.9655 1601.2,83.085 1601.86,74.8455 1602.53,74.2104 1603.19,78.9784 1603.85,70.4953 1604.52,67.3789 1605.18,79.8099 1605.84,76.006 1606.51,75.522 1607.17,76.9228 1607.84,82.3682 1608.5,80.837 1609.16,85.6125 1609.83,71.594 1610.49,69.2184 1611.16,81.4017 1611.82,76.1765 1612.48,75.2757 1613.15,70.347 1613.81,67.1064 1614.48,82.5532 1615.14,81.0173 1615.8,78.8771 1616.47,77.146 1617.13,75.4795 1617.8,80.0739 1618.46,90.8525 1619.12,85.4756 1619.79,80.5012 1620.45,73.7304 1621.12,74.0441 1621.78,73.617 1622.44,74.3587 1623.11,74.186 1623.77,76.1617 1624.44,66.0879 1625.1,72.057 1625.76,89.2573 1626.43,95.0416 1627.09,83.0023 1627.75,75.7693 1628.42,71.8754 1629.08,78.1455 1629.75,95.3286 1630.41,89.5179 1631.07,77.5556 1631.74,86.5293 1632.4,79.0582 1633.07,78.54 1633.73,79.2635 1634.39,75.5786 1635.06,79.5964 1635.72,82.4564 1636.39,82.3698 1637.05,76.1665 1637.71,79.9039 1638.38,83.5324 1639.04,83.7943 1639.71,72.869 1640.37,78.4483 1641.03,74.6258 1641.7,77.8738 1642.36,82.7544 1643.03,76.0203 1643.69,128.738 1644.35,75.5539 1645.02,97.4012 1645.68,73.4921 1646.35,69.7885 1647.01,77.7849 1647.67,76.8652 1648.34,78.633 1649,80.9923 1649.66,78.2108 1650.33,68.8623 1650.99,88.4112 1651.66,82.9433 1652.32,71.233 1652.98,80.1462 1653.65,71.6603 1654.31,70.326 1654.98,110.991 1655.64,81.3576 1656.3,81.5192 1656.97,82.5803 1657.63,81.1382 1658.3,80.8178 1658.96,76.7704 1659.62,73.343 1660.29,78.3998 1660.95,74.201 1661.62,86.177 1662.28,75.4246 1662.94,83.1754 1663.61,74.5866 1664.27,72.4793 1664.94,75.5 1665.6,80.9011 1666.26,76.9051 1666.93,70.2727 1667.59,80.4858 1668.26,77.5786 1668.92,76.8845 1669.58,77.1471 1670.25,75.1903 1670.91,76.6561 1671.57,73.8515 1672.24,79.0156 1672.9,73.0299 1673.57,78.356 1674.23,79.712 1674.89,76.5331 1675.56,75.3563 1676.22,78.081 1676.89,82.2924 1677.55,72.652 1678.21,83.7887 1678.88,81.6831 1679.54,77.6966 1680.21,79.5438 1680.87,77.4096 1681.53,74.631 1682.2,78.8383 1682.86,75.9281 1683.53,77.6872 1684.19,77.5686 1684.85,79.0074 1685.52,75.774 1686.18,75.8435 1686.85,79.3182 1687.51,79.8145 1688.17,82.985 1688.84,78.1332 1689.5,77.8652 1690.17,79.401 1690.83,81.3009 1691.49,78.7369 1692.16,73.4039 1692.82,87.4802 1693.48,78.4477 1694.15,76.1205 1694.81,75.338 1695.48,77.3915 1696.14,82.4386 1696.8,73.5152 1697.47,78.4838 1698.13,74.2718 1698.8,74.1565 1699.46,73.7488 1700.12,77.0587 1700.79,78.3327 1701.45,75.7088 1702.12,78.1199 1702.78,79.0342 1703.44,82.0824 1704.11,81.3564 1704.77,83.8115 1705.44,79.1688 1706.1,79.8704 1706.76,79.8898 1707.43,78.225 1708.09,154.93 1708.76,84.2324 1709.42,84.1004 1710.08,77.301 1710.75,76.4958 1711.41,74.1379 1712.07,81.0229 1712.74,76.3088 1713.4,86.3711 1714.07,86.1052 1714.73,85.0407 1715.39,84.4391 1716.06,83.2241 1716.72,81.8035 1717.39,81.1268 1718.05,79.4192 1718.71,76.7395 1719.38,73.8599 1720.04,82.0512 1720.71,77.7909 1721.37,73.6729 1722.03,78.3661 1722.7,74.1444 1723.36,79.2728 1724.03,76.7772 1724.69,78.4379 1725.35,78.9696 1726.02,96.8731 1726.68,82.6027 1727.35,82.4375 1728.01,78.8604 1728.67,76.8171 1729.34,76.6456 1730,68.2182 1730.67,63.9579 1731.33,90.4387 1731.99,78.5147 1732.66,82.8922 1733.32,73.5093 1733.98,79.4991 1734.65,74.6497 1735.31,85.8815 1735.98,79.4463 1736.64,75.3628 1737.3,72.7145 1737.97,85.8373 1738.63,74.2908 1739.3,80.373 1739.96,74.768 1740.62,67.828 1741.29,76.2052 1741.95,77.0896 1742.62,78.4327 1743.28,75.6692 1743.94,66.8193 1744.61,89.2716 1745.27,81.2522 1745.94,75.4052 1746.6,67.6891 1747.26,76.13 1747.93,65.0697 1748.59,70.0994 1749.26,102.556 1749.92,80.3092 1750.58,71.3243 1751.25,79.2058 1751.91,81.2402 1752.58,84.9429 1753.24,79.1458 1753.9,69.222 1754.57,75.5377 1755.23,83.1159 1755.89,74.4187 1756.56,82.0459 1757.22,80.9221 1757.89,80.3664 1758.55,79.6966 1759.21,80.8691 1759.88,78.9064 1760.54,81.5649 1761.21,69.5428 1761.87,82.3947 1762.53,76.8268 1763.2,73.4666 1763.86,75.5268 1764.53,74.6631 1765.19,71.7218 1765.85,74.8204 1766.52,71.4445 1767.18,81.7779 1767.85,76.0023 1768.51,79.6603 1769.17,71.5985 1769.84,75.7058 1770.5,80.4816 1771.17,82.7705 1771.83,78.7867 1772.49,80.029 1773.16,79.7586 1773.82,67.1077 1774.49,72.0589 1775.15,85.3698 1775.81,77.3802 1776.48,74.1257 1777.14,75.2728 1777.8,77.2856 1778.47,83.0689 1779.13,71.9104 1779.8,81.6663 1780.46,82.3765 1781.12,79.79 1781.79,87.6962 1782.45,62.008 1783.12,76.1963 1783.78,69.8183 1784.44,77.5504 1785.11,71.3307 1785.77,86.6771 1786.44,85.3776 1787.1,77.2249 1787.76,93.0617 1788.43,76.7933 1789.09,80.1349 1789.76,76.9707 1790.42,73.9771 1791.08,80.8726 1791.75,79.4792 1792.41,77.1615 1793.08,74.8638 1793.74,75.6169 1794.4,76.9214 1795.07,78.9747 1795.73,76.1408 1796.4,73.4419 1797.06,83.8103 1797.72,74.6528 1798.39,72.3458 1799.05,79.4288 1799.71,78.8601 1800.38,78.7557 1801.04,75.2269 1801.71,72.4626 1802.37,88.1243 1803.03,75.9728 1803.7,76.0625 1804.36,78.3859 1805.03,78.6236 1805.69,74.4254 1806.35,77.8911 1807.02,78.6574 1807.68,75.2684 1808.35,75.8979 1809.01,71.862 1809.67,86.4043 1810.34,75.6797 1811,75.0643 1811.67,79.2498 1812.33,76.3883 1812.99,79.8905 1813.66,78.9181 1814.32,79.7303 1814.99,76.016 1815.65,76.4769 1816.31,76.9544 1816.98,78.9921 1817.64,69.7524 1818.31,76.5986 1818.97,79.5414 1819.63,85.9273 1820.3,78.6783 1820.96,74.1577 1821.62,81.624 1822.29,76.2131 1822.95,78.3156 1823.62,75.6785 1824.28,84.4351 1824.94,75.6224 1825.61,96.8131 1826.27,87.3307 1826.94,78.5291 1827.6,69.5771 1828.26,73.1017 1828.93,74.8986 1829.59,81.6442 1830.26,75.8436 1830.92,72.6066 1831.58,75.0994 1832.25,74.1672 1832.91,104.196 1833.58,77.6269 1834.24,87.344 1834.9,75.7236 1835.57,74.4573 1836.23,79.6056 1836.9,80.3792 1837.56,79.8231 1838.22,87.3079 1838.89,81.7272 1839.55,77.2663 1840.22,72.7007 1840.88,73.6927 1841.54,75.6068 1842.21,72.0589 1842.87,78.8269 1843.53,77.1432 1844.2,78.6237 1844.86,71.4489 1845.53,67.1813 1846.19,84.1515 1846.85,75.4265 1847.52,87.486 1848.18,84.973 1848.85,73.495 1849.51,79.924 1850.17,86.5679 1850.84,73.0823 1851.5,69.6611 1852.17,91.2214 1852.83,82.4864 1853.49,77.135 1854.16,80.475 1854.82,79.1205 1855.49,70.8124 1856.15,69.6508 1856.81,74.7781 1857.48,74.866 1858.14,76.0658 1858.81,70.7538 1859.47,78.7131 1860.13,73.6272 1860.8,70.9395 1861.46,97.048 1862.13,74.4924 1862.79,75.006 1863.45,74.0537 1864.12,80.4509 1864.78,79.8388 1865.44,76.4202 1866.11,76.5382 1866.77,71.8161 1867.44,78.6175 1868.1,72.3022 1868.76,87.5587 1869.43,77.4296 1870.09,75.6658 1870.76,78.152 1871.42,76.3699 1872.08,73.8441 1872.75,70.0926 1873.41,81.4492 1874.08,79.9012 1874.74,72.2578 1875.4,74.067 1876.07,75.1652 1876.73,77.3723 1877.4,81.9691 1878.06,76.8214 1878.72,77.6443 1879.39,75.602 1880.05,76.2284 1880.72,80.3881 1881.38,80.8636 1882.04,74.1888 1882.71,73.3749 1883.37,74.9754 1884.04,74.4516 1884.7,86.7307 1885.36,80.6425 1886.03,73.9566 1886.69,79.1148 1887.35,77.0217 1888.02,71.5893 1888.68,73.0899 1889.35,78.0254 1890.01,78.6374 1890.67,71.5183 1891.34,79.3505 1892,77.7636 1892.67,77.9725 1893.33,76.0897 1893.99,75.5896 1894.66,74.1278 1895.32,74.5275 1895.99,76.3348 1896.65,88.6484 1897.31,75.4935 1897.98,81.3325 1898.64,70.6289 1899.31,75.8204 1899.97,69.6762 1900.63,99.08 1901.3,76.075 1901.96,77.3191 1902.63,89.719 1903.29,82.3283 1903.95,78.5189 1904.62,79.7176 1905.28,74.5667 1905.95,75.1875 1906.61,75.2396 1907.27,78.9898 1907.94,80.6242 1908.6,77.6664 1909.26,75.1684 1909.93,87.1056 1910.59,87.2291 1911.26,74.6981 1911.92,77.8079 1912.58,73.3722 1913.25,74.3904 1913.91,74.4912 1914.58,75.4773 1915.24,77.7418 1915.9,73.273 1916.57,82.0312 1917.23,79.9368 1917.9,76.8315 1918.56,87.9729 1919.22,79.7052 1919.89,77.4637 1920.55,74.9549 1921.22,75.0676 1921.88,79.9498 1922.54,77.4251 1923.21,78.117 1923.87,74.0474 1924.54,75.9147 1925.2,83.8114 1925.86,78.5867 1926.53,72.1668 1927.19,80.2581 1927.86,66.0642 1928.52,74.5873 1929.18,79.4429 1929.85,74.91 1930.51,77.166 1931.17,76.3266 1931.84,73.0809 1932.5,76.0465 1933.17,87.1288 1933.83,77.3511 1934.49,84.6282 1935.16,78.8268 1935.82,71.6429 1936.49,83.3809 1937.15,83.9332 1937.81,69.3353 1938.48,81.0999 1939.14,83.0721 1939.81,72.9346 1940.47,71.1802 1941.13,70.276 1941.8,94.0029 1942.46,75.0485 1943.13,77.6023 1943.79,72.8572 1944.45,82.4494 1945.12,69.0185 1945.78,77.8766 1946.45,73.1099 1947.11,77.6149 1947.77,73.6116 1948.44,72.264 1949.1,72.3147 1949.77,77.9286 1950.43,89.6926 1951.09,79.1304 1951.76,86.1306 1952.42,80.9038 1953.08,72.6853 1953.75,72.0494 1954.41,71.8838 1955.08,79.4764 1955.74,79.1312 1956.4,77.7251 1957.07,71.6334 1957.73,76.2201 1958.4,76.7179 1959.06,80.335 1959.72,81.0095 1960.39,76.3786 1961.05,87.0041 1961.72,78.2279 1962.38,75.1793 1963.04,67.3126 1963.71,72.1978 1964.37,76.1535 1965.04,82.4365 1965.7,79.0684 1966.36,77.6806 1967.03,75.6562 1967.69,82.3973 1968.36,80.3945 1969.02,72.6679 1969.68,71.2526 1970.35,87.5179 1971.01,78.4838 1971.68,80.2545 1972.34,72.1513 1973,84.9935 1973.67,70.8673 1974.33,76.6066 1974.99,79.0317 1975.66,76.2056 1976.32,72.1148 1976.99,79.1286 1977.65,80.863 1978.31,85.8861 1978.98,79.9191 1979.64,76.2545 1980.31,76.5996 1980.97,76.8798 1981.63,77.1047 1982.3,80.4108 1982.96,78.786 1983.63,83.7898 1984.29,75.2602 1984.95,80.0259 1985.62,74.6884 1986.28,66.0914 1986.95,76.76 1987.61,73.944 1988.27,72.0163 1988.94,91.2576 1989.6,68.1641 1990.27,63.338 1990.93,72.5005 1991.59,87.7076 1992.26,74.0748 1992.92,76.2888 1993.58,79.4632 1994.25,84.9431 1994.91,72.216 1995.58,114.37 1996.24,103.967 1996.9,86.7548 1997.57,76.5924 1998.23,74.1355 1998.9,78.8834 1999.56,75.6573 2000.22,84.1984 2000.89,73.5283 2001.55,79.8704 2002.22,70.0951 2002.88,86.5276 2003.54,77.691 2004.21,76.3384 2004.87,75.733 2005.54,77.1919 2006.2,75.3771 2006.86,70.4017 2007.53,85.3381 2008.19,75.3302 2008.86,76.8832 2009.52,72.8103 2010.18,72.791 2010.85,82.3449 2011.51,74.9247 2012.18,62.8091 2012.84,77.9087 2013.5,80.5876 2014.17,71.1969 2014.83,77.197 2015.49,68.2475 2016.16,73.4946 2016.82,86.9647 2017.49,72.9287 2018.15,74.6268 2018.81,83.7086 2019.48,80.7774 2020.14,70.6838 2020.81,75.2304 2021.47,79.3904 2022.13,74.6147 2022.8,76.0659 2023.46,80.7017 2024.13,74.6752 2024.79,77.0546 2025.45,79.8285 2026.12,79.6524 2026.78,74.3018 2027.45,76.7978 2028.11,78.8107 2028.77,71.1742 2029.44,80.1688 2030.1,84.6689 2030.77,77.2364 2031.43,76.3272 2032.09,70.4814 2032.76,81.7382 2033.42,68.4929 2034.09,91.034 2034.75,80.5576 2035.41,78.0626 2036.08,73.6709 2036.74,87.2607 2037.4,76.5094 2038.07,75.6651 2038.73,73.3494 2039.4,75.145 2040.06,77.5133 2040.72,75.0197 2041.39,73.0581 2042.05,87.1567 2042.72,65.708 2043.38,85.3644 2044.04,74.6081 2044.71,79.844 2045.37,80.0098 2046.04,75.3407 2046.7,73.4757 2047.36,81.3212 2048.03,77.8423 2048.69,83.3001 2049.36,79.5351 2050.02,73.9444 2050.68,76.8409 2051.35,76.1972 2052.01,68.4642 2052.68,74.5216 2053.34,77.7778 2054,72.4982 2054.67,71.3837 2055.33,77.9988 2056,75.7546 2056.66,79.8004 2057.32,70.8134 2057.99,67.5399 2058.65,87.2616 2059.31,85.8197 2059.98,67.5159 2060.64,75.4407 2061.31,71.4122 2061.97,77.6747 2062.63,84.2915 2063.3,79.2147 2063.96,86.4311 2064.63,70.1351 2065.29,74.9999 2065.95,82.021 2066.62,74.3891 2067.28,71.9428 2067.95,76.6322 2068.61,81.102 2069.27,80.1765 2069.94,76.1556 2070.6,69.9862 2071.27,73.7258 2071.93,87.4957 2072.59,74.0247 2073.26,74.7506 2073.92,88.1728 2074.59,79.1815 2075.25,75.6554 2075.91,71.6448 2076.58,76.959 2077.24,81.5709 2077.91,82.3259 2078.57,77.803 2079.23,83.1158 2079.9,75.7002 2080.56,70.0558 2081.22,77.8061 2081.89,73.2928 2082.55,82.3857 2083.22,78.5903 2083.88,79.3581 2084.54,74.3861 2085.21,69.5545 2085.87,78.2065 2086.54,76.597 2087.2,78.9843 2087.86,71.8502 2088.53,80.613 2089.19,78.274 2089.86,82.7297 2090.52,75.4614 2091.18,69.0047 2091.85,82.8593 2092.51,81.929 2093.18,78.7404 2093.84,84.0165 2094.5,74.2403 2095.17,79.6936 2095.83,80.8806 2096.5,73.8347 2097.16,75.9063 2097.82,72.3251 2098.49,77.4681 2099.15,84.264 2099.82,78.0893 2100.48,78.7199 2101.14,77.6587 2101.81,74.6368 2102.47,74.1378 2103.13,85.848 2103.8,72.5017 2104.46,75.2383 2105.13,74.8674 2105.79,73.4989 2106.45,73.112 2107.12,89.7823 2107.78,77.0399 2108.45,83.2993 2109.11,77.1586 2109.77,77.3462 2110.44,72.2549 2111.1,80.2374 2111.77,76.8719 2112.43,81.3001 2113.09,72.1115 2113.76,77.8209 2114.42,69.2326 2115.09,74.3226 2115.75,76.2996 2116.41,78.3222 2117.08,71.3905 2117.74,76.0504 2118.41,81.981 2119.07,76.156 2119.73,61.7955 2120.4,87.5219 2121.06,75.483 2121.73,85.5771 2122.39,77.9125 2123.05,81.9518 2123.72,70.769 2124.38,76.7079 2125.04,75.4075 2125.71,77.4422 2126.37,75.8116 2127.04,84.9671 2127.7,75.9013 2128.36,77.7993 2129.03,79.9414 2129.69,76.54 2130.36,76.7524 2131.02,72.7645 2131.68,81.8167 2132.35,74.0731 2133.01,75.8059 2133.68,81.8118 2134.34,79.1274 2135,68.4243 2135.67,75.8871 2136.33,77.9939 2137,81.2553 2137.66,79.2619 2138.32,77.6124 2138.99,81.9985 2139.65,80.4204 2140.32,76.2727 2140.98,73.739 2141.64,77.3353 2142.31,75.2101 2142.97,77.144 2143.64,77.7511 2144.3,69.2582 2144.96,79.2274 2145.63,78.9722 2146.29,82.3078 2146.95,75.372 2147.62,72.1202 2148.28,76.7834 2148.95,80.6816 2149.61,74.4697 2150.27,78.6888 2150.94,78.4547 2151.6,78.6136 2152.27,75.832 2152.93,86.736 2153.59,74.7712 2154.26,79.8057 2154.92,75.6355 2155.59,77.3571 2156.25,80.4665 2156.91,76.9563 2157.58,74.6019 2158.24,79.6495 2158.91,79.8656 2159.57,78.1549 2160.23,83.3684 2160.9,74.8619 2161.56,77.5954 2162.23,80.3942 2162.89,72.237 2163.55,73.3224 2164.22,88.1985 2164.88,72.9415 2165.55,76.5241 2166.21,82.4855 2166.87,76.4061 2167.54,69.7711 2168.2,92.6725 2168.86,74.998 2169.53,71.8791 2170.19,73.6528 2170.86,83.6046 2171.52,78.5424 2172.18,78.2458 2172.85,74.2546 2173.51,79.2337 2174.18,78.489 2174.84,75.7072 2175.5,72.7492 2176.17,71.6442 2176.83,81.2289 2177.5,74.0922 2178.16,73.5366 2178.82,73.0948 2179.49,81.9528 2180.15,77.5897 2180.82,75.8976 2181.48,74.5573 2182.14,73.4564 2182.81,80.6623 2183.47,74.9943 2184.14,77.8301 2184.8,79.3179 2185.46,82.7516 2186.13,79.7081 2186.79,74.1042 2187.46,77.1887 2188.12,74.7631 2188.78,76.8986 2189.45,74.3334 2190.11,73.0219 2190.77,80.1703 2191.44,76.812 2192.1,76.2099 2192.77,77.0429 2193.43,72.5569 2194.09,75.3613 2194.76,73.3742 2195.42,84.8471 2196.09,78.3607 2196.75,63.3421 2197.41,89.9264 2198.08,79.68 2198.74,76.3467 2199.41,78.0608 2200.07,74.2385 2200.73,76.7177 2201.4,84.1506 2202.06,78.1364 2202.73,65.6386 2203.39,81.3506 2204.05,79.1067 2204.72,69.3256 2205.38,88.951 2206.05,79.0199 2206.71,73.499 2207.37,75.4763 2208.04,75.9563 2208.7,98.6025 2209.37,76.3755 2210.03,72.8867 2210.69,93.0227 2211.36,74.8941 2212.02,73.1261 2212.68,77.1202 2213.35,73.7152 2214.01,81.5108 2214.68,80.6357 2215.34,71.5441 2216,75.4155 2216.67,76.8846 2217.33,74.4574 2218,81.3467 2218.66,71.3157 2219.32,79.0803 2219.99,74.4032 2220.65,73.964 2221.32,73.6929 2221.98,81.6713 2222.64,77.6298 2223.31,74.2239 2223.97,74.3712 2224.64,74.7861 2225.3,75.8756 2225.96,87.024 2226.63,78.696 2227.29,73.253 2227.96,67.1595 2228.62,71.806 2229.28,78.7729 2229.95,82.562 2230.61,84.3456 2231.28,78.115 2231.94,84.1119 2232.6,67.5434 2233.27,81.2711 2233.93,72.9334 2234.59,79.8912 2235.26,80.6137 2235.92,72.7283 2236.59,72.6989 2237.25,74.9326 2237.91,86.7105 2238.58,78.2189 2239.24,69.1578 2239.91,80.0662 2240.57,70.7911 2241.23,83.9546 2241.9,77.123 2242.56,74.6356 2243.23,74.2883 2243.89,71.5344 2244.55,76.8738 2245.22,74.4143 2245.88,82.7527 2246.55,76.5272 2247.21,80.061 2247.87,74.7824 2248.54,78.6318 2249.2,71.3949 2249.87,67.3881 2250.53,77.4149 2251.19,80.1882 2251.86,81.1653 2252.52,64.5753 2253.19,88.9895 2253.85,75.7021 2254.51,84.8569 2255.18,81.3417 2255.84,74.3279 2256.5,87.0775 2257.17,81.3353 2257.83,73.6597 2258.5,81.3655 2259.16,74.0133 2259.82,75.8988 2260.49,78.0904 2261.15,61.7992 2261.82,85.9164 2262.48,72.0909 2263.14,74.0448 2263.81,73.596 2264.47,66.822 2265.14,86.8012 2265.8,79.1116 2266.46,71.5644 2267.13,76.9886 2267.79,78.5194 2268.46,65.6613 2269.12,78.1461 2269.78,86.667 2270.45,90.7906 2271.11,79.3533 2271.78,85.5601 2272.44,77.7467 2273.1,77.4238 2273.77,76.286 2274.43,78.9413 2275.09,79.6515 2275.76,73.9679 2276.42,69.1053 2277.09,72.2953 2277.75,83.009 2278.41,95.5253 2279.08,72.902 2279.74,95.4376 2280.41,89.6131 2281.07,80.2651 2281.73,77.8736 2282.4,82.2654 2283.06,77.0559 2283.73,78.8713 2284.39,80.567 2285.05,92.6317 2285.72,80.8773 2286.38,73.6591 2287.05,75.7999 2287.71,70.681 2288.37,78.5479 2289.04,79.0183 2289.7,82.2212 2290.37,72.4045 2291.03,82.0491 2291.69,78.2363 2292.36,72.9213 2293.02,83.4606 "/>
<path clip-path="url(#clip690)" d="M2018.91 1377.32 L2282.4 1377.32 L2282.4 1273.64 L2018.91 1273.64  Z" fill="#ffffff" fill-rule="evenodd" fill-opacity="1"/>
<polyline clip-path="url(#clip690)" style="stroke:#000000; stroke-linecap:round; stroke-linejoin:round; stroke-width:4; stroke-opacity:1; fill:none" points="2018.91,1377.32 2282.4,1377.32 2282.4,1273.64 2018.91,1273.64 2018.91,1377.32 "/>
<polyline clip-path="url(#clip690)" style="stroke:#009af9; stroke-linecap:round; stroke-linejoin:round; stroke-width:4; stroke-opacity:1; fill:none" points="2042.36,1325.48 2183.07,1325.48 "/>
<path clip-path="url(#clip690)" d="M2220.36 1345.16 Q2218.56 1349.79 2216.84 1351.2 Q2215.13 1352.62 2212.26 1352.62 L2208.86 1352.62 L2208.86 1349.05 L2211.36 1349.05 Q2213.12 1349.05 2214.09 1348.22 Q2215.06 1347.38 2216.24 1344.28 L2217.01 1342.34 L2206.52 1316.83 L2211.03 1316.83 L2219.14 1337.11 L2227.24 1316.83 L2231.75 1316.83 L2220.36 1345.16 Z" fill="#000000" fill-rule="nonzero" fill-opacity="1" /><path clip-path="url(#clip690)" d="M2239.04 1338.82 L2246.68 1338.82 L2246.68 1312.45 L2238.37 1314.12 L2238.37 1309.86 L2246.64 1308.2 L2251.31 1308.2 L2251.31 1338.82 L2258.95 1338.82 L2258.95 1342.76 L2239.04 1342.76 L2239.04 1338.82 Z" fill="#000000" fill-rule="nonzero" fill-opacity="1" /></svg>
