<?xml version="1.0" encoding="utf-8"?>
<svg xmlns="http://www.w3.org/2000/svg" xmlns:xlink="http://www.w3.org/1999/xlink" width="600" height="400" viewBox="0 0 2400 1600">
<defs>
  <clipPath id="clip420">
    <rect x="0" y="0" width="2400" height="1600"/>
  </clipPath>
</defs>
<path clip-path="url(#clip420)" d="M0 1600 L2400 1600 L2400 0 L0 0  Z" fill="#ffffff" fill-rule="evenodd" fill-opacity="1"/>
<defs>
  <clipPath id="clip421">
    <rect x="480" y="0" width="1681" height="1600"/>
  </clipPath>
</defs>
<path clip-path="url(#clip420)" d="M242.135 1423.18 L2352.76 1423.18 L2352.76 47.2441 L242.135 47.2441  Z" fill="#ffffff" fill-rule="evenodd" fill-opacity="1"/>
<defs>
  <clipPath id="clip422">
    <rect x="242" y="47" width="2112" height="1377"/>
  </clipPath>
</defs>
<polyline clip-path="url(#clip422)" style="stroke:#000000; stroke-linecap:round; stroke-linejoin:round; stroke-width:2; stroke-opacity:0.1; fill:none" points="301.205,1423.18 301.205,47.2441 "/>
<polyline clip-path="url(#clip422)" style="stroke:#000000; stroke-linecap:round; stroke-linejoin:round; stroke-width:2; stroke-opacity:0.1; fill:none" points="965.144,1423.18 965.144,47.2441 "/>
<polyline clip-path="url(#clip422)" style="stroke:#000000; stroke-linecap:round; stroke-linejoin:round; stroke-width:2; stroke-opacity:0.1; fill:none" points="1629.08,1423.18 1629.08,47.2441 "/>
<polyline clip-path="url(#clip422)" style="stroke:#000000; stroke-linecap:round; stroke-linejoin:round; stroke-width:2; stroke-opacity:0.1; fill:none" points="2293.02,1423.18 2293.02,47.2441 "/>
<polyline clip-path="url(#clip422)" style="stroke:#000000; stroke-linecap:round; stroke-linejoin:round; stroke-width:2; stroke-opacity:0.1; fill:none" points="242.135,1423.18 2352.76,1423.18 "/>
<polyline clip-path="url(#clip422)" style="stroke:#000000; stroke-linecap:round; stroke-linejoin:round; stroke-width:2; stroke-opacity:0.1; fill:none" points="242.135,1053.8 2352.76,1053.8 "/>
<polyline clip-path="url(#clip422)" style="stroke:#000000; stroke-linecap:round; stroke-linejoin:round; stroke-width:2; stroke-opacity:0.1; fill:none" points="242.135,684.414 2352.76,684.414 "/>
<polyline clip-path="url(#clip422)" style="stroke:#000000; stroke-linecap:round; stroke-linejoin:round; stroke-width:2; stroke-opacity:0.1; fill:none" points="242.135,315.03 2352.76,315.03 "/>
<polyline clip-path="url(#clip420)" style="stroke:#000000; stroke-linecap:round; stroke-linejoin:round; stroke-width:4; stroke-opacity:1; fill:none" points="242.135,1423.18 2352.76,1423.18 "/>
<polyline clip-path="url(#clip420)" style="stroke:#000000; stroke-linecap:round; stroke-linejoin:round; stroke-width:4; stroke-opacity:1; fill:none" points="301.205,1423.18 301.205,1404.28 "/>
<polyline clip-path="url(#clip420)" style="stroke:#000000; stroke-linecap:round; stroke-linejoin:round; stroke-width:4; stroke-opacity:1; fill:none" points="965.144,1423.18 965.144,1404.28 "/>
<polyline clip-path="url(#clip420)" style="stroke:#000000; stroke-linecap:round; stroke-linejoin:round; stroke-width:4; stroke-opacity:1; fill:none" points="1629.08,1423.18 1629.08,1404.28 "/>
<polyline clip-path="url(#clip420)" style="stroke:#000000; stroke-linecap:round; stroke-linejoin:round; stroke-width:4; stroke-opacity:1; fill:none" points="2293.02,1423.18 2293.02,1404.28 "/>
<path clip-path="url(#clip420)" d="M301.205 1454.1 Q297.594 1454.1 295.766 1457.66 Q293.96 1461.2 293.96 1468.33 Q293.96 1475.44 295.766 1479.01 Q297.594 1482.55 301.205 1482.55 Q304.84 1482.55 306.645 1479.01 Q308.474 1475.44 308.474 1468.33 Q308.474 1461.2 306.645 1457.66 Q304.84 1454.1 301.205 1454.1 M301.205 1450.39 Q307.015 1450.39 310.071 1455 Q313.15 1459.58 313.15 1468.33 Q313.15 1477.06 310.071 1481.67 Q307.015 1486.25 301.205 1486.25 Q295.395 1486.25 292.316 1481.67 Q289.261 1477.06 289.261 1468.33 Q289.261 1459.58 292.316 1455 Q295.395 1450.39 301.205 1450.39 Z" fill="#000000" fill-rule="nonzero" fill-opacity="1" /><path clip-path="url(#clip420)" d="M909.67 1481.64 L917.309 1481.64 L917.309 1455.28 L908.998 1456.95 L908.998 1452.69 L917.262 1451.02 L921.938 1451.02 L921.938 1481.64 L929.577 1481.64 L929.577 1485.58 L909.67 1485.58 L909.67 1481.64 Z" fill="#000000" fill-rule="nonzero" fill-opacity="1" /><path clip-path="url(#clip420)" d="M949.021 1454.1 Q945.41 1454.1 943.582 1457.66 Q941.776 1461.2 941.776 1468.33 Q941.776 1475.44 943.582 1479.01 Q945.41 1482.55 949.021 1482.55 Q952.656 1482.55 954.461 1479.01 Q956.29 1475.44 956.29 1468.33 Q956.29 1461.2 954.461 1457.66 Q952.656 1454.1 949.021 1454.1 M949.021 1450.39 Q954.832 1450.39 957.887 1455 Q960.966 1459.58 960.966 1468.33 Q960.966 1477.06 957.887 1481.67 Q954.832 1486.25 949.021 1486.25 Q943.211 1486.25 940.133 1481.67 Q937.077 1477.06 937.077 1468.33 Q937.077 1459.58 940.133 1455 Q943.211 1450.39 949.021 1450.39 Z" fill="#000000" fill-rule="nonzero" fill-opacity="1" /><path clip-path="url(#clip420)" d="M979.183 1454.1 Q975.572 1454.1 973.743 1457.66 Q971.938 1461.2 971.938 1468.33 Q971.938 1475.44 973.743 1479.01 Q975.572 1482.55 979.183 1482.55 Q982.817 1482.55 984.623 1479.01 Q986.452 1475.44 986.452 1468.33 Q986.452 1461.2 984.623 1457.66 Q982.817 1454.1 979.183 1454.1 M979.183 1450.39 Q984.993 1450.39 988.049 1455 Q991.128 1459.58 991.128 1468.33 Q991.128 1477.06 988.049 1481.67 Q984.993 1486.25 979.183 1486.25 Q973.373 1486.25 970.294 1481.67 Q967.239 1477.06 967.239 1468.33 Q967.239 1459.58 970.294 1455 Q973.373 1450.39 979.183 1450.39 Z" fill="#000000" fill-rule="nonzero" fill-opacity="1" /><path clip-path="url(#clip420)" d="M1009.35 1454.1 Q1005.73 1454.1 1003.91 1457.66 Q1002.1 1461.2 1002.1 1468.33 Q1002.1 1475.44 1003.91 1479.01 Q1005.73 1482.55 1009.35 1482.55 Q1012.98 1482.55 1014.78 1479.01 Q1016.61 1475.44 1016.61 1468.33 Q1016.61 1461.2 1014.78 1457.66 Q1012.98 1454.1 1009.35 1454.1 M1009.35 1450.39 Q1015.16 1450.39 1018.21 1455 Q1021.29 1459.58 1021.29 1468.33 Q1021.29 1477.06 1018.21 1481.67 Q1015.16 1486.25 1009.35 1486.25 Q1003.53 1486.25 1000.46 1481.67 Q997.401 1477.06 997.401 1468.33 Q997.401 1459.58 1000.46 1455 Q1003.53 1450.39 1009.35 1450.39 Z" fill="#000000" fill-rule="nonzero" fill-opacity="1" /><path clip-path="url(#clip420)" d="M1577.69 1481.64 L1594.01 1481.64 L1594.01 1485.58 L1572.07 1485.58 L1572.07 1481.64 Q1574.73 1478.89 1579.31 1474.26 Q1583.92 1469.61 1585.1 1468.27 Q1587.35 1465.74 1588.23 1464.01 Q1589.13 1462.25 1589.13 1460.56 Q1589.13 1457.8 1587.18 1456.07 Q1585.26 1454.33 1582.16 1454.33 Q1579.96 1454.33 1577.51 1455.09 Q1575.08 1455.86 1572.3 1457.41 L1572.3 1452.69 Q1575.12 1451.55 1577.58 1450.97 Q1580.03 1450.39 1582.07 1450.39 Q1587.44 1450.39 1590.63 1453.08 Q1593.83 1455.77 1593.83 1460.26 Q1593.83 1462.39 1593.02 1464.31 Q1592.23 1466.2 1590.12 1468.8 Q1589.55 1469.47 1586.44 1472.69 Q1583.34 1475.88 1577.69 1481.64 Z" fill="#000000" fill-rule="nonzero" fill-opacity="1" /><path clip-path="url(#clip420)" d="M1613.83 1454.1 Q1610.22 1454.1 1608.39 1457.66 Q1606.58 1461.2 1606.58 1468.33 Q1606.58 1475.44 1608.39 1479.01 Q1610.22 1482.55 1613.83 1482.55 Q1617.46 1482.55 1619.27 1479.01 Q1621.1 1475.44 1621.1 1468.33 Q1621.1 1461.2 1619.27 1457.66 Q1617.46 1454.1 1613.83 1454.1 M1613.83 1450.39 Q1619.64 1450.39 1622.69 1455 Q1625.77 1459.58 1625.77 1468.33 Q1625.77 1477.06 1622.69 1481.67 Q1619.64 1486.25 1613.83 1486.25 Q1608.02 1486.25 1604.94 1481.67 Q1601.88 1477.06 1601.88 1468.33 Q1601.88 1459.58 1604.94 1455 Q1608.02 1450.39 1613.83 1450.39 Z" fill="#000000" fill-rule="nonzero" fill-opacity="1" /><path clip-path="url(#clip420)" d="M1643.99 1454.1 Q1640.38 1454.1 1638.55 1457.66 Q1636.74 1461.2 1636.74 1468.33 Q1636.74 1475.44 1638.55 1479.01 Q1640.38 1482.55 1643.99 1482.55 Q1647.62 1482.55 1649.43 1479.01 Q1651.26 1475.44 1651.26 1468.33 Q1651.26 1461.2 1649.43 1457.66 Q1647.62 1454.1 1643.99 1454.1 M1643.99 1450.39 Q1649.8 1450.39 1652.86 1455 Q1655.93 1459.58 1655.93 1468.33 Q1655.93 1477.06 1652.86 1481.67 Q1649.8 1486.25 1643.99 1486.25 Q1638.18 1486.25 1635.1 1481.67 Q1632.05 1477.06 1632.05 1468.33 Q1632.05 1459.58 1635.1 1455 Q1638.18 1450.39 1643.99 1450.39 Z" fill="#000000" fill-rule="nonzero" fill-opacity="1" /><path clip-path="url(#clip420)" d="M1674.15 1454.1 Q1670.54 1454.1 1668.71 1457.66 Q1666.91 1461.2 1666.91 1468.33 Q1666.91 1475.44 1668.71 1479.01 Q1670.54 1482.55 1674.15 1482.55 Q1677.79 1482.55 1679.59 1479.01 Q1681.42 1475.44 1681.42 1468.33 Q1681.42 1461.2 1679.59 1457.66 Q1677.79 1454.1 1674.15 1454.1 M1674.15 1450.39 Q1679.96 1450.39 1683.02 1455 Q1686.1 1459.58 1686.1 1468.33 Q1686.1 1477.06 1683.02 1481.67 Q1679.96 1486.25 1674.15 1486.25 Q1668.34 1486.25 1665.26 1481.67 Q1662.21 1477.06 1662.21 1468.33 Q1662.21 1459.58 1665.26 1455 Q1668.34 1450.39 1674.15 1450.39 Z" fill="#000000" fill-rule="nonzero" fill-opacity="1" /><path clip-path="url(#clip420)" d="M2251.7 1466.95 Q2255.06 1467.66 2256.93 1469.93 Q2258.83 1472.2 2258.83 1475.53 Q2258.83 1480.65 2255.31 1483.45 Q2251.79 1486.25 2245.31 1486.25 Q2243.14 1486.25 2240.82 1485.81 Q2238.53 1485.39 2236.08 1484.54 L2236.08 1480.02 Q2238.02 1481.16 2240.34 1481.74 Q2242.65 1482.32 2245.17 1482.32 Q2249.57 1482.32 2251.86 1480.58 Q2254.18 1478.84 2254.18 1475.53 Q2254.18 1472.48 2252.03 1470.77 Q2249.9 1469.03 2246.08 1469.03 L2242.05 1469.03 L2242.05 1465.19 L2246.26 1465.19 Q2249.71 1465.19 2251.54 1463.82 Q2253.37 1462.43 2253.37 1459.84 Q2253.37 1457.18 2251.47 1455.77 Q2249.6 1454.33 2246.08 1454.33 Q2244.16 1454.33 2241.96 1454.75 Q2239.76 1455.16 2237.12 1456.04 L2237.12 1451.88 Q2239.78 1451.14 2242.1 1450.77 Q2244.43 1450.39 2246.49 1450.39 Q2251.82 1450.39 2254.92 1452.83 Q2258.02 1455.23 2258.02 1459.35 Q2258.02 1462.22 2256.38 1464.21 Q2254.73 1466.18 2251.7 1466.95 Z" fill="#000000" fill-rule="nonzero" fill-opacity="1" /><path clip-path="url(#clip420)" d="M2277.7 1454.1 Q2274.09 1454.1 2272.26 1457.66 Q2270.45 1461.2 2270.45 1468.33 Q2270.45 1475.44 2272.26 1479.01 Q2274.09 1482.55 2277.7 1482.55 Q2281.33 1482.55 2283.14 1479.01 Q2284.97 1475.44 2284.97 1468.33 Q2284.97 1461.2 2283.14 1457.66 Q2281.33 1454.1 2277.7 1454.1 M2277.7 1450.39 Q2283.51 1450.39 2286.56 1455 Q2289.64 1459.58 2289.64 1468.33 Q2289.64 1477.06 2286.56 1481.67 Q2283.51 1486.25 2277.7 1486.25 Q2271.89 1486.25 2268.81 1481.67 Q2265.75 1477.06 2265.75 1468.33 Q2265.75 1459.58 2268.81 1455 Q2271.89 1450.39 2277.7 1450.39 Z" fill="#000000" fill-rule="nonzero" fill-opacity="1" /><path clip-path="url(#clip420)" d="M2307.86 1454.1 Q2304.25 1454.1 2302.42 1457.66 Q2300.61 1461.2 2300.61 1468.33 Q2300.61 1475.44 2302.42 1479.01 Q2304.25 1482.55 2307.86 1482.55 Q2311.49 1482.55 2313.3 1479.01 Q2315.13 1475.44 2315.13 1468.33 Q2315.13 1461.2 2313.3 1457.66 Q2311.49 1454.1 2307.86 1454.1 M2307.86 1450.39 Q2313.67 1450.39 2316.72 1455 Q2319.8 1459.58 2319.8 1468.33 Q2319.8 1477.06 2316.72 1481.67 Q2313.67 1486.25 2307.86 1486.25 Q2302.05 1486.25 2298.97 1481.67 Q2295.91 1477.06 2295.91 1468.33 Q2295.91 1459.58 2298.97 1455 Q2302.05 1450.39 2307.86 1450.39 Z" fill="#000000" fill-rule="nonzero" fill-opacity="1" /><path clip-path="url(#clip420)" d="M2338.02 1454.1 Q2334.41 1454.1 2332.58 1457.66 Q2330.78 1461.2 2330.78 1468.33 Q2330.78 1475.44 2332.58 1479.01 Q2334.41 1482.55 2338.02 1482.55 Q2341.66 1482.55 2343.46 1479.01 Q2345.29 1475.44 2345.29 1468.33 Q2345.29 1461.2 2343.46 1457.66 Q2341.66 1454.1 2338.02 1454.1 M2338.02 1450.39 Q2343.83 1450.39 2346.89 1455 Q2349.97 1459.58 2349.97 1468.33 Q2349.97 1477.06 2346.89 1481.67 Q2343.83 1486.25 2338.02 1486.25 Q2332.21 1486.25 2329.13 1481.67 Q2326.08 1477.06 2326.08 1468.33 Q2326.08 1459.58 2329.13 1455 Q2332.21 1450.39 2338.02 1450.39 Z" fill="#000000" fill-rule="nonzero" fill-opacity="1" /><path clip-path="url(#clip420)" d="M1165.17 1520.52 L1171.6 1520.52 L1171.6 1568.04 L1165.17 1568.04 L1165.17 1520.52 Z" fill="#000000" fill-rule="nonzero" fill-opacity="1" /><path clip-path="url(#clip420)" d="M1189.93 1522.27 L1189.93 1532.4 L1201.99 1532.4 L1201.99 1536.95 L1189.93 1536.95 L1189.93 1556.3 Q1189.93 1560.66 1191.11 1561.9 Q1192.32 1563.14 1195.98 1563.14 L1201.99 1563.14 L1201.99 1568.04 L1195.98 1568.04 Q1189.2 1568.04 1186.62 1565.53 Q1184.04 1562.98 1184.04 1556.3 L1184.04 1536.95 L1179.74 1536.95 L1179.74 1532.4 L1184.04 1532.4 L1184.04 1522.27 L1189.93 1522.27 Z" fill="#000000" fill-rule="nonzero" fill-opacity="1" /><path clip-path="url(#clip420)" d="M1240.19 1548.76 L1240.19 1551.62 L1213.26 1551.62 Q1213.64 1557.67 1216.89 1560.85 Q1220.17 1564 1225.99 1564 Q1229.36 1564 1232.52 1563.17 Q1235.7 1562.35 1238.82 1560.69 L1238.82 1566.23 Q1235.67 1567.57 1232.36 1568.27 Q1229.05 1568.97 1225.64 1568.97 Q1217.11 1568.97 1212.11 1564 Q1207.15 1559.04 1207.15 1550.57 Q1207.15 1541.82 1211.86 1536.69 Q1216.6 1531.54 1224.62 1531.54 Q1231.81 1531.54 1235.98 1536.18 Q1240.19 1540.8 1240.19 1548.76 M1234.33 1547.04 Q1234.27 1542.23 1231.62 1539.37 Q1229.01 1536.5 1224.69 1536.5 Q1219.78 1536.5 1216.82 1539.27 Q1213.9 1542.04 1213.45 1547.07 L1234.33 1547.04 Z" fill="#000000" fill-rule="nonzero" fill-opacity="1" /><path clip-path="url(#clip420)" d="M1270.45 1537.87 Q1269.47 1537.3 1268.29 1537.04 Q1267.14 1536.76 1265.74 1536.76 Q1260.78 1536.76 1258.11 1540 Q1255.46 1543.22 1255.46 1549.27 L1255.46 1568.04 L1249.58 1568.04 L1249.58 1532.4 L1255.46 1532.4 L1255.46 1537.93 Q1257.31 1534.69 1260.27 1533.13 Q1263.23 1531.54 1267.46 1531.54 Q1268.07 1531.54 1268.8 1531.63 Q1269.53 1531.7 1270.42 1531.85 L1270.45 1537.87 Z" fill="#000000" fill-rule="nonzero" fill-opacity="1" /><path clip-path="url(#clip420)" d="M1292.8 1550.12 Q1285.7 1550.12 1282.96 1551.75 Q1280.23 1553.37 1280.23 1557.29 Q1280.23 1560.4 1282.26 1562.25 Q1284.33 1564.07 1287.86 1564.07 Q1292.73 1564.07 1295.66 1560.63 Q1298.62 1557.16 1298.62 1551.43 L1298.62 1550.12 L1292.8 1550.12 M1304.48 1547.71 L1304.48 1568.04 L1298.62 1568.04 L1298.62 1562.63 Q1296.62 1565.88 1293.63 1567.44 Q1290.63 1568.97 1286.31 1568.97 Q1280.83 1568.97 1277.58 1565.91 Q1274.37 1562.82 1274.37 1557.67 Q1274.37 1551.65 1278.38 1548.6 Q1282.42 1545.54 1290.41 1545.54 L1298.62 1545.54 L1298.62 1544.97 Q1298.62 1540.93 1295.95 1538.73 Q1293.31 1536.5 1288.5 1536.5 Q1285.45 1536.5 1282.55 1537.23 Q1279.65 1537.97 1276.98 1539.43 L1276.98 1534.02 Q1280.19 1532.78 1283.22 1532.17 Q1286.24 1531.54 1289.11 1531.54 Q1296.84 1531.54 1300.66 1535.55 Q1304.48 1539.56 1304.48 1547.71 Z" fill="#000000" fill-rule="nonzero" fill-opacity="1" /><path clip-path="url(#clip420)" d="M1322.34 1522.27 L1322.34 1532.4 L1334.4 1532.4 L1334.4 1536.95 L1322.34 1536.95 L1322.34 1556.3 Q1322.34 1560.66 1323.51 1561.9 Q1324.72 1563.14 1328.38 1563.14 L1334.4 1563.14 L1334.4 1568.04 L1328.38 1568.04 Q1321.6 1568.04 1319.03 1565.53 Q1316.45 1562.98 1316.45 1556.3 L1316.45 1536.95 L1312.15 1536.95 L1312.15 1532.4 L1316.45 1532.4 L1316.45 1522.27 L1322.34 1522.27 Z" fill="#000000" fill-rule="nonzero" fill-opacity="1" /><path clip-path="url(#clip420)" d="M1342.1 1532.4 L1347.96 1532.4 L1347.96 1568.04 L1342.1 1568.04 L1342.1 1532.4 M1342.1 1518.52 L1347.96 1518.52 L1347.96 1525.93 L1342.1 1525.93 L1342.1 1518.52 Z" fill="#000000" fill-rule="nonzero" fill-opacity="1" /><path clip-path="url(#clip420)" d="M1374.02 1536.5 Q1369.31 1536.5 1366.58 1540.19 Q1363.84 1543.85 1363.84 1550.25 Q1363.84 1556.65 1366.55 1560.34 Q1369.28 1564 1374.02 1564 Q1378.7 1564 1381.44 1560.31 Q1384.18 1556.62 1384.18 1550.25 Q1384.18 1543.92 1381.44 1540.23 Q1378.7 1536.5 1374.02 1536.5 M1374.02 1531.54 Q1381.66 1531.54 1386.02 1536.5 Q1390.38 1541.47 1390.38 1550.25 Q1390.38 1559 1386.02 1564 Q1381.66 1568.97 1374.02 1568.97 Q1366.35 1568.97 1361.99 1564 Q1357.66 1559 1357.66 1550.25 Q1357.66 1541.47 1361.99 1536.5 Q1366.35 1531.54 1374.02 1531.54 Z" fill="#000000" fill-rule="nonzero" fill-opacity="1" /><path clip-path="url(#clip420)" d="M1429.72 1546.53 L1429.72 1568.04 L1423.87 1568.04 L1423.87 1546.72 Q1423.87 1541.66 1421.89 1539.14 Q1419.92 1536.63 1415.97 1536.63 Q1411.23 1536.63 1408.5 1539.65 Q1405.76 1542.68 1405.76 1547.9 L1405.76 1568.04 L1399.87 1568.04 L1399.87 1532.4 L1405.76 1532.4 L1405.76 1537.93 Q1407.86 1534.72 1410.69 1533.13 Q1413.56 1531.54 1417.28 1531.54 Q1423.42 1531.54 1426.57 1535.36 Q1429.72 1539.14 1429.72 1546.53 Z" fill="#000000" fill-rule="nonzero" fill-opacity="1" /><polyline clip-path="url(#clip420)" style="stroke:#000000; stroke-linecap:round; stroke-linejoin:round; stroke-width:4; stroke-opacity:1; fill:none" points="242.135,1423.18 242.135,47.2441 "/>
<polyline clip-path="url(#clip420)" style="stroke:#000000; stroke-linecap:round; stroke-linejoin:round; stroke-width:4; stroke-opacity:1; fill:none" points="242.135,1423.18 261.032,1423.18 "/>
<polyline clip-path="url(#clip420)" style="stroke:#000000; stroke-linecap:round; stroke-linejoin:round; stroke-width:4; stroke-opacity:1; fill:none" points="242.135,1053.8 261.032,1053.8 "/>
<polyline clip-path="url(#clip420)" style="stroke:#000000; stroke-linecap:round; stroke-linejoin:round; stroke-width:4; stroke-opacity:1; fill:none" points="242.135,684.414 261.032,684.414 "/>
<polyline clip-path="url(#clip420)" style="stroke:#000000; stroke-linecap:round; stroke-linejoin:round; stroke-width:4; stroke-opacity:1; fill:none" points="242.135,315.03 261.032,315.03 "/>
<path clip-path="url(#clip420)" d="M114.26 1423.63 L143.936 1423.63 L143.936 1427.57 L114.26 1427.57 L114.26 1423.63 Z" fill="#000000" fill-rule="nonzero" fill-opacity="1" /><path clip-path="url(#clip420)" d="M154.839 1436.52 L162.477 1436.52 L162.477 1410.16 L154.167 1411.83 L154.167 1407.57 L162.431 1405.9 L167.107 1405.9 L167.107 1436.52 L174.746 1436.52 L174.746 1440.46 L154.839 1440.46 L154.839 1436.52 Z" fill="#000000" fill-rule="nonzero" fill-opacity="1" /><path clip-path="url(#clip420)" d="M194.19 1408.98 Q190.579 1408.98 188.75 1412.54 Q186.945 1416.08 186.945 1423.21 Q186.945 1430.32 188.75 1433.89 Q190.579 1437.43 194.19 1437.43 Q197.825 1437.43 199.63 1433.89 Q201.459 1430.32 201.459 1423.21 Q201.459 1416.08 199.63 1412.54 Q197.825 1408.98 194.19 1408.98 M194.19 1405.27 Q200 1405.27 203.056 1409.88 Q206.135 1414.46 206.135 1423.21 Q206.135 1431.94 203.056 1436.55 Q200 1441.13 194.19 1441.13 Q188.38 1441.13 185.301 1436.55 Q182.246 1431.94 182.246 1423.21 Q182.246 1414.46 185.301 1409.88 Q188.38 1405.27 194.19 1405.27 Z" fill="#000000" fill-rule="nonzero" fill-opacity="1" /><path clip-path="url(#clip420)" d="M144.515 1054.25 L174.19 1054.25 L174.19 1058.18 L144.515 1058.18 L144.515 1054.25 Z" fill="#000000" fill-rule="nonzero" fill-opacity="1" /><path clip-path="url(#clip420)" d="M194.283 1054.66 Q190.95 1054.66 189.028 1056.45 Q187.13 1058.23 187.13 1061.35 Q187.13 1064.48 189.028 1066.26 Q190.95 1068.04 194.283 1068.04 Q197.616 1068.04 199.537 1066.26 Q201.459 1064.46 201.459 1061.35 Q201.459 1058.23 199.537 1056.45 Q197.639 1054.66 194.283 1054.66 M189.607 1052.67 Q186.598 1051.93 184.908 1049.87 Q183.241 1047.81 183.241 1044.85 Q183.241 1040.71 186.181 1038.3 Q189.144 1035.89 194.283 1035.89 Q199.445 1035.89 202.385 1038.3 Q205.324 1040.71 205.324 1044.85 Q205.324 1047.81 203.635 1049.87 Q201.968 1051.93 198.982 1052.67 Q202.362 1053.46 204.237 1055.75 Q206.135 1058.04 206.135 1061.35 Q206.135 1066.38 203.056 1069.06 Q200 1071.75 194.283 1071.75 Q188.565 1071.75 185.487 1069.06 Q182.431 1066.38 182.431 1061.35 Q182.431 1058.04 184.329 1055.75 Q186.227 1053.46 189.607 1052.67 M187.894 1045.29 Q187.894 1047.97 189.561 1049.48 Q191.25 1050.98 194.283 1050.98 Q197.292 1050.98 198.982 1049.48 Q200.695 1047.97 200.695 1045.29 Q200.695 1042.6 198.982 1041.1 Q197.292 1039.6 194.283 1039.6 Q191.25 1039.6 189.561 1041.1 Q187.894 1042.6 187.894 1045.29 Z" fill="#000000" fill-rule="nonzero" fill-opacity="1" /><path clip-path="url(#clip420)" d="M144.26 684.865 L173.936 684.865 L173.936 688.8 L144.26 688.8 L144.26 684.865 Z" fill="#000000" fill-rule="nonzero" fill-opacity="1" /><path clip-path="url(#clip420)" d="M194.607 682.55 Q191.459 682.55 189.607 684.703 Q187.778 686.856 187.778 690.606 Q187.778 694.332 189.607 696.508 Q191.459 698.661 194.607 698.661 Q197.755 698.661 199.584 696.508 Q201.436 694.332 201.436 690.606 Q201.436 686.856 199.584 684.703 Q197.755 682.55 194.607 682.55 M203.889 667.897 L203.889 672.157 Q202.13 671.323 200.325 670.884 Q198.542 670.444 196.783 670.444 Q192.153 670.444 189.7 673.569 Q187.269 676.694 186.922 683.013 Q188.288 680.999 190.348 679.934 Q192.408 678.846 194.885 678.846 Q200.093 678.846 203.102 682.018 Q206.135 685.166 206.135 690.606 Q206.135 695.93 202.987 699.147 Q199.838 702.365 194.607 702.365 Q188.612 702.365 185.44 697.782 Q182.269 693.175 182.269 684.448 Q182.269 676.254 186.158 671.393 Q190.047 666.509 196.598 666.509 Q198.357 666.509 200.139 666.856 Q201.945 667.203 203.889 667.897 Z" fill="#000000" fill-rule="nonzero" fill-opacity="1" /><path clip-path="url(#clip420)" d="M143.936 315.482 L173.612 315.482 L173.612 319.417 L143.936 319.417 L143.936 315.482 Z" fill="#000000" fill-rule="nonzero" fill-opacity="1" /><path clip-path="url(#clip420)" d="M196.551 301.824 L184.746 320.273 L196.551 320.273 L196.551 301.824 M195.325 297.75 L201.204 297.75 L201.204 320.273 L206.135 320.273 L206.135 324.162 L201.204 324.162 L201.204 332.31 L196.551 332.31 L196.551 324.162 L180.95 324.162 L180.95 319.648 L195.325 297.75 Z" fill="#000000" fill-rule="nonzero" fill-opacity="1" /><path clip-path="url(#clip420)" d="M16.4842 816.375 L16.4842 786.329 L21.895 786.329 L21.895 809.945 L35.9632 809.945 L35.9632 787.315 L41.3741 787.315 L41.3741 809.945 L58.5933 809.945 L58.5933 785.756 L64.0042 785.756 L64.0042 816.375 L16.4842 816.375 Z" fill="#000000" fill-rule="nonzero" fill-opacity="1" /><path clip-path="url(#clip420)" d="M16.4842 775.189 L16.4842 768.759 L58.5933 768.759 L58.5933 745.62 L64.0042 745.62 L64.0042 775.189 L16.4842 775.189 Z" fill="#000000" fill-rule="nonzero" fill-opacity="1" /><path clip-path="url(#clip420)" d="M41.3104 732.443 L58.7206 732.443 L58.7206 722.13 Q58.7206 716.942 56.5881 714.46 Q54.4238 711.945 49.9996 711.945 Q45.5436 711.945 43.4429 714.46 Q41.3104 716.942 41.3104 722.13 L41.3104 732.443 M21.7677 732.443 L36.0905 732.443 L36.0905 722.926 Q36.0905 718.216 34.34 715.924 Q32.5576 713.6 28.9291 713.6 Q25.3325 713.6 23.5501 715.924 Q21.7677 718.216 21.7677 722.926 L21.7677 732.443 M16.4842 738.872 L16.4842 722.449 Q16.4842 715.096 19.5397 711.118 Q22.5952 707.139 28.2289 707.139 Q32.5894 707.139 35.1675 709.176 Q37.7456 711.213 38.3822 715.16 Q39.4007 710.418 42.6472 707.808 Q45.8619 705.166 50.6998 705.166 Q57.0655 705.166 60.5348 709.495 Q64.0042 713.823 64.0042 721.812 L64.0042 738.872 L16.4842 738.872 Z" fill="#000000" fill-rule="nonzero" fill-opacity="1" /><path clip-path="url(#clip420)" d="M20.8447 676.011 Q20.8447 683.013 26.0645 687.151 Q31.2844 691.257 40.2919 691.257 Q49.2675 691.257 54.4874 687.151 Q59.7073 683.013 59.7073 676.011 Q59.7073 669.009 54.4874 664.935 Q49.2675 660.829 40.2919 660.829 Q31.2844 660.829 26.0645 664.935 Q20.8447 669.009 20.8447 676.011 M15.6248 676.011 Q15.6248 666.017 22.3406 660.033 Q29.0246 654.049 40.2919 654.049 Q51.5274 654.049 58.2432 660.033 Q64.9272 666.017 64.9272 676.011 Q64.9272 686.037 58.2432 692.052 Q51.5592 698.036 40.2919 698.036 Q29.0246 698.036 22.3406 692.052 Q15.6248 686.037 15.6248 676.011 Z" fill="#000000" fill-rule="nonzero" fill-opacity="1" /><polyline clip-path="url(#clip422)" style="stroke:#009af9; stroke-linecap:round; stroke-linejoin:round; stroke-width:4; stroke-opacity:1; fill:none" points="301.869,12132.9 302.533,1098.61 303.197,3104.14 303.861,1918.59 304.525,4330.55 305.189,1768.1 305.853,2163.6 306.517,1317.18 307.181,1282.28 307.845,2512.07 308.509,6946.57 309.173,826.362 309.836,2337.08 310.5,1566.56 311.164,1533.76 311.828,5171.88 312.492,4696.51 313.156,1368.56 313.82,4214.1 314.484,735.185 315.148,962.608 315.812,1110.73 316.476,1084.8 317.14,558.692 317.804,4504.31 318.468,857.721 319.132,1061.09 319.796,1037.84 320.46,1754.83 321.123,1153.97 321.787,1285.11 322.451,6721.17 323.115,795.665 323.779,3375.37 324.443,1145.24 325.107,1859.46 325.771,1334.92 326.435,1454.87 327.099,1165.59 327.763,2171.59 328.427,8651.17 329.091,4452.74 329.755,643.738 330.419,10048.7 331.083,5407.52 331.746,1386.34 332.41,995.234 333.074,1737.17 333.738,1035.29 334.402,1457.34 335.066,10722.6 335.73,3642.62 336.394,5362.83 337.058,2671.75 337.722,1616.08 338.386,779.912 339.05,976.419 339.714,539.725 340.378,908.648 341.042,1390.14 341.706,2135.92 342.369,1121.41 343.033,1190.88 343.697,2233.08 344.361,1062.03 345.025,843.704 345.689,1867.86 346.353,966.511 347.017,1156.93 347.681,1251.69 348.345,1118.86 349.009,559.494 349.673,1120.23 350.337,848.22 351.001,1407.26 351.665,2126.18 352.329,1206.05 352.993,1039.43 353.656,1583.47 354.32,961.901 354.984,1005.19 355.648,980.115 356.312,1343.6 356.976,1117.79 357.64,1034.14 358.304,1114.92 358.968,966.121 359.632,1009.35 360.296,653.411 360.96,796.084 361.624,1074.64 362.288,903.539 362.952,848.422 363.616,1175.83 364.279,1306.12 364.943,1179.57 365.607,934.716 366.271,917.817 366.935,388.461 367.599,660.322 368.263,842.101 368.927,696.639 369.591,554.517 370.255,771.279 370.919,841.305 371.583,610.279 372.247,652.673 372.911,442.116 373.575,445.658 374.239,469.883 374.902,538.561 375.566,926.198 376.23,636.816 376.894,565.503 377.558,703.956 378.222,281.391 378.886,711.347 379.55,678.269 380.214,674.944 380.878,2443.57 381.542,856.642 382.206,932.757 382.87,716.528 383.534,575.487 384.198,526.064 384.862,440.921 385.526,468.477 386.189,381.402 386.853,286.899 387.517,487.019 388.181,431.407 388.845,276.906 389.509,264.049 390.173,377.372 390.837,232.225 391.501,352.608 392.165,265.21 392.829,247.058 393.493,304.773 394.157,358.037 394.821,301.308 395.485,296.057 396.149,212.858 396.812,257.294 397.476,287.473 398.14,221.463 398.804,313.368 399.468,386.218 400.132,639.144 400.796,411.158 401.46,255.168 402.124,410.755 402.788,320.561 403.452,270.244 404.116,487.062 404.78,977.2 405.444,272.507 406.108,328.458 406.772,400.384 407.435,222.074 408.099,275.594 408.763,342.333 409.427,323.632 410.091,185.319 410.755,281.423 411.419,256.095 412.083,337.554 412.747,208.801 413.411,508.263 414.075,326.854 414.739,242.317 415.403,293.405 416.067,272.531 416.731,230.653 417.395,169.169 418.058,251.801 418.722,230.196 419.386,370.972 420.05,265.68 420.714,256.35 421.378,258.978 422.042,512.182 422.706,915.368 423.37,350.355 424.034,282.387 424.698,304.3 425.362,303.224 426.026,333.587 426.69,353.449 427.354,242.261 428.018,252.617 428.682,235.473 429.345,379.154 430.009,263.009 430.673,251.678 431.337,190.35 432.001,141.764 432.665,87.206 433.329,234.873 433.993,301.027 434.657,273.851 435.321,248.417 435.985,244.253 436.649,268.466 437.313,253.373 437.977,335.822 438.641,249.876 439.305,237.075 439.968,202.982 440.632,244.872 441.296,217.854 441.96,241.41 442.624,219.941 443.288,233.319 443.952,180.381 444.616,234.908 445.28,221.928 445.944,385.484 446.608,263.749 447.272,277.168 447.936,209.26 448.6,188.163 449.264,247.257 449.928,259.842 450.591,260.933 451.255,232.462 451.919,177.094 452.583,259.046 453.247,177.264 453.911,229.189 454.575,203.768 455.239,265.989 455.903,247.704 456.567,327.706 457.231,445.526 457.895,217.319 458.559,329.967 459.223,275.61 459.887,296.925 460.551,289.967 461.215,227.293 461.878,352.353 462.542,268.156 463.206,223.008 463.87,160.113 464.534,211.241 465.198,177.098 465.862,250.659 466.526,209.818 467.19,153.163 467.854,261.952 468.518,228.244 469.182,161.86 469.846,227.734 470.51,119.135 471.174,167.681 471.838,224.012 472.501,492.641 473.165,404.574 473.829,209.189 474.493,201.957 475.157,202.157 475.821,247.483 476.485,239.448 477.149,255.306 477.813,226.729 478.477,149.925 479.141,166.215 479.805,213.985 480.469,205.819 481.133,210.499 481.797,167.76 482.461,296.612 483.124,175.01 483.788,156.36 484.452,138.951 485.116,199.561 485.78,187.939 486.444,174.289 487.108,224.756 487.772,178.02 488.436,211.591 489.1,165.772 489.764,254.625 490.428,184.905 491.092,410.733 491.756,206.666 492.42,260.661 493.084,221.703 493.748,179.779 494.411,194.99 495.075,220.079 495.739,241.226 496.403,172.178 497.067,195.907 497.731,190.936 498.395,255.797 499.059,218.853 499.723,214.105 500.387,199.984 501.051,157.326 501.715,207.018 502.379,186.024 503.043,208.657 503.707,142.247 504.371,206.565 505.034,219.346 505.698,188.062 506.362,243.849 507.026,242.463 507.69,251.789 508.354,250.784 509.018,221.235 509.682,160.487 510.346,241.441 511.01,99.9752 511.674,200.232 512.338,190.068 513.002,191.999 513.666,128.574 514.33,267.008 514.994,219.602 515.657,192.879 516.321,176.402 516.985,244.773 517.649,202.467 518.313,160.621 518.977,171.525 519.641,186.458 520.305,139.839 520.969,182.113 521.633,211.392 522.297,163.221 522.961,126.016 523.625,177.646 524.289,205.432 524.953,164.546 525.617,228.738 526.281,221.444 526.944,216.96 527.608,159.06 528.272,187.014 528.936,170.113 529.6,203.195 530.264,142.022 530.928,200.29 531.592,198.878 532.256,160.49 532.92,154.059 533.584,161.245 534.248,139.844 534.912,929.228 535.576,349.841 536.24,387.765 536.904,410.643 537.567,366.212 538.231,310.039 538.895,334.983 539.559,285.464 540.223,315.426 540.887,231.138 541.551,296.148 542.215,225.735 542.879,234.99 543.543,257.438 544.207,182.166 544.871,246.059 545.535,207.744 546.199,258.885 546.863,220.539 547.527,295.428 548.19,239.173 548.854,191.518 549.518,214.09 550.182,177.722 550.846,222.47 551.51,258.644 552.174,222.526 552.838,205.793 553.502,183.679 554.166,285.044 554.83,282.239 555.494,225.057 556.158,235.853 556.822,227.728 557.486,179.17 558.15,211.126 558.813,191.746 559.477,194.232 560.141,239.066 560.805,153.614 561.469,164.889 562.133,130.443 562.797,205.282 563.461,305.509 564.125,189.531 564.789,231.186 565.453,209.653 566.117,225.179 566.781,183.195 567.445,142.956 568.109,220.427 568.773,195.201 569.437,193.665 570.1,174.845 570.764,181.88 571.428,207.27 572.092,183.468 572.756,252.834 573.42,162.225 574.084,176.939 574.748,218.929 575.412,163.161 576.076,184.214 576.74,217.505 577.404,175.289 578.068,187.979 578.732,184.311 579.396,305.475 580.06,165.371 580.723,229.443 581.387,192.896 582.051,148.206 582.715,189.68 583.379,177.429 584.043,200.381 584.707,110.013 585.371,226.542 586.035,201.538 586.699,195.456 587.363,182.798 588.027,144.461 588.691,214.64 589.355,165.35 590.019,164.963 590.683,145.575 591.346,216.802 592.01,163.635 592.674,241.1 593.338,196.568 594.002,185.83 594.666,154.979 595.33,215.222 595.994,179.418 596.658,171.295 597.322,167.276 597.986,184.794 598.65,240.982 599.314,169.376 599.978,140.732 600.642,200.851 601.306,213.014 601.97,269.051 602.633,247.562 603.297,162.934 603.961,176.03 604.625,170.282 605.289,187.822 605.953,156.742 606.617,173.162 607.281,242.819 607.945,193.035 608.609,146.824 609.273,197.836 609.937,183.614 610.601,176.168 611.265,188.732 611.929,210.836 612.593,203.898 613.256,215.551 613.92,184.907 614.584,167.09 615.248,136.423 615.912,155.541 616.576,231.657 617.24,173.209 617.904,213.682 618.568,179.525 619.232,164.752 619.896,192.735 620.56,176.837 621.224,195.846 621.888,185.26 622.552,236.148 623.216,250.793 623.879,163.071 624.543,216.215 625.207,202.172 625.871,161.562 626.535,191.077 627.199,181.182 627.863,177.556 628.527,180.28 629.191,172.971 629.855,152.961 630.519,171.775 631.183,170.195 631.847,284.631 632.511,174.721 633.175,184.131 633.839,175.855 634.503,181.124 635.166,196.224 635.83,176.809 636.494,158.128 637.158,298.757 637.822,204.092 638.486,176.442 639.15,186.897 639.814,196.814 640.478,170.857 641.142,196.561 641.806,192.705 642.47,192.014 643.134,112.315 643.798,189.248 644.462,205.053 645.126,169.337 645.789,192.198 646.453,147.891 647.117,177.577 647.781,84.9584 648.445,358.413 649.109,283.451 649.773,214.52 650.437,163.88 651.101,132.118 651.765,192.372 652.429,168.463 653.093,200.509 653.757,165.387 654.421,211.283 655.085,193.101 655.749,180.929 656.412,177.64 657.076,169.582 657.74,104.968 658.404,292.128 659.068,183.138 659.732,178.176 660.396,203.17 661.06,221.806 661.724,177.083 662.388,187.97 663.052,244.373 663.716,177.915 664.38,238.955 665.044,255.425 665.708,186.443 666.372,226.121 667.036,183.894 667.699,182.215 668.363,177.708 669.027,189.351 669.691,202.397 670.355,187.258 671.019,175.95 671.683,171.49 672.347,160.009 673.011,150.008 673.675,182.75 674.339,153.359 675.003,154.856 675.667,198.978 676.331,170.253 676.995,245.881 677.659,216.299 678.322,163.424 678.986,187.11 679.65,224.037 680.314,175.388 680.978,203.349 681.642,170.844 682.306,178.363 682.97,282.563 683.634,222.255 684.298,199.072 684.962,167.972 685.626,179.028 686.29,187.988 686.954,195.937 687.618,217.109 688.282,129.893 688.945,170.713 689.609,180.41 690.273,171.001 690.937,202.629 691.601,186.946 692.265,182.532 692.929,166.732 693.593,139.455 694.257,221.309 694.921,157.438 695.585,185.426 696.249,202.284 696.913,126.31 697.577,170.61 698.241,186.976 698.905,179.027 699.569,177.186 700.232,172.56 700.896,167.332 701.56,179.454 702.224,155.54 702.888,153.982 703.552,185.611 704.216,152.487 704.88,151.87 705.544,190.283 706.208,159.269 706.872,161.347 707.536,192.174 708.2,164.104 708.864,195.319 709.528,194.961 710.192,207.606 710.855,195.982 711.519,167.505 712.183,174.336 712.847,213.054 713.511,196.862 714.175,147.958 714.839,198.961 715.503,163.08 716.167,257.687 716.831,220.916 717.495,119.129 718.159,253.83 718.823,190.244 719.487,189.578 720.151,158.659 720.815,180.05 721.478,192.635 722.142,180.562 722.806,170.919 723.47,204.562 724.134,170.507 724.798,177.89 725.462,175.308 726.126,164.216 726.79,178.97 727.454,216.028 728.118,176.25 728.782,215.134 729.446,227.391 730.11,176.334 730.774,177.029 731.438,174.081 732.101,169.418 732.765,198.802 733.429,210.08 734.093,167.048 734.757,164.437 735.421,179.023 736.085,179.288 736.749,189.327 737.413,184.271 738.077,179.599 738.741,182.276 739.405,177.706 740.069,162.23 740.733,175.987 741.397,166.18 742.061,161.414 742.725,241.723 743.388,194.082 744.052,196.668 744.716,168.318 745.38,168.642 746.044,183.671 746.708,175.667 747.372,169.893 748.036,183.817 748.7,162.677 749.364,185.185 750.028,181.328 750.692,188.866 751.356,157.697 752.02,47.2441 752.684,289.58 753.348,192.549 754.011,212.03 754.675,174.689 755.339,176.666 756.003,160.965 756.667,179.38 757.331,132.038 757.995,191.748 758.659,150.358 759.323,215.075 759.987,197.344 760.651,176.404 761.315,183.009 761.979,172.532 762.643,170.143 763.307,172.594 763.971,426.504 764.634,195.142 765.298,156.554 765.962,242.486 766.626,185.107 767.29,189.038 767.954,252.236 768.618,196.027 769.282,212.966 769.946,202.091 770.61,190.376 771.274,196.257 771.938,177.663 772.602,190.603 773.266,187.916 773.93,178.977 774.594,238.617 775.258,206.616 775.921,196.229 776.585,174.967 777.249,442.671 777.913,173.02 778.577,205.964 779.241,155.055 779.905,245.222 780.569,189.818 781.233,134.3 781.897,194.311 782.561,198.043 783.225,207.16 783.889,180.18 784.553,228.181 785.217,209.669 785.881,194.494 786.544,153.844 787.208,191.675 787.872,224.39 788.536,185.385 789.2,198.774 789.864,166.624 790.528,187.738 791.192,172.398 791.856,201.364 792.52,169.554 793.184,203.947 793.848,184.184 794.512,179.621 795.176,191.277 795.84,206.497 796.504,172.64 797.167,182.507 797.831,191.162 798.495,159.44 799.159,184.62 799.823,213.3 800.487,149.571 801.151,203.558 801.815,222.737 802.479,159.996 803.143,203.588 803.807,159.885 804.471,249.957 805.135,219.066 805.799,185.258 806.463,182.765 807.127,189.642 807.791,179.521 808.454,189.889 809.118,176.002 809.782,160.683 810.446,201.661 811.11,194.427 811.774,179.897 812.438,292.587 813.102,202.931 813.766,217.546 814.43,186.859 815.094,191.566 815.758,208.35 816.422,183.226 817.086,193.963 817.75,204.228 818.414,189.084 819.077,128.513 819.741,232.639 820.405,181.923 821.069,168.414 821.733,134.691 822.397,183.243 823.061,165 823.725,169.071 824.389,161.782 825.053,150.304 825.717,158.302 826.381,212.228 827.045,174.89 827.709,159.712 828.373,184.061 829.037,110.527 829.7,244.662 830.364,182.666 831.028,184.895 831.692,192.496 832.356,172.058 833.02,170.074 833.684,189.184 834.348,189.96 835.012,186.411 835.676,171.393 836.34,199.703 837.004,196.754 837.668,149.652 838.332,122.933 838.996,217.111 839.66,211.965 840.324,195.062 840.987,186.247 841.651,166.129 842.315,176.637 842.979,147.963 843.643,138.56 844.307,237.275 844.971,192.192 845.635,234.943 846.299,221.716 846.963,192.035 847.627,174.523 848.291,169.704 848.955,132.892 849.619,198.211 850.283,174.647 850.947,213.143 851.61,175.371 852.274,172.547 852.938,211.657 853.602,179.28 854.266,168.49 854.93,182.65 855.594,189.293 856.258,165.544 856.922,154.067 857.586,219.956 858.25,195.469 858.914,155.448 859.578,164.169 860.242,172.393 860.906,254.243 861.57,199.409 862.233,238.353 862.897,171.293 863.561,174.707 864.225,177.734 864.889,180.035 865.553,168.851 866.217,213.801 866.881,170.538 867.545,161.822 868.209,192.608 868.873,187.444 869.537,191.859 870.201,185.22 870.865,187.49 871.529,176.98 872.193,193.707 872.856,170.506 873.52,195.295 874.184,154.059 874.848,181.619 875.512,185.872 876.176,164.308 876.84,153.547 877.504,136.199 878.168,271.739 878.832,184.441 879.496,182.135 880.16,167.929 880.824,216.446 881.488,185.641 882.152,200.563 882.816,143.188 883.48,185.84 884.143,190.833 884.807,213.829 885.471,154.011 886.135,183.387 886.799,160.96 887.463,187.187 888.127,193.997 888.791,163.97 889.455,144.756 890.119,233.715 890.783,175.179 891.447,185.32 892.111,183.572 892.775,162.666 893.439,231.53 894.103,173.299 894.766,138.961 895.43,202.288 896.094,178.559 896.758,201.189 897.422,178.19 898.086,171.315 898.75,139.165 899.414,137.3 900.078,282.886 900.742,158.397 901.406,154.884 902.07,203.632 902.734,197.314 903.398,170.58 904.062,159.433 904.726,215.754 905.389,177.285 906.053,163.477 906.717,195.936 907.381,208.083 908.045,186.812 908.709,149.06 909.373,187.79 910.037,178.308 910.701,176.661 911.365,180.235 912.029,187.857 912.693,172.524 913.357,189.822 914.021,204.076 914.685,151.905 915.349,184.861 916.013,221.161 916.676,172.891 917.34,284.334 918.004,221.75 918.668,164.774 919.332,199.086 919.996,197.01 920.66,159.314 921.324,298.553 921.988,149.479 922.652,192.388 923.316,201.625 923.98,179.682 924.644,205.007 925.308,154.582 925.972,185.136 926.636,176.27 927.299,168.267 927.963,181.543 928.627,200.381 929.291,153.156 929.955,177.198 930.619,251.951 931.283,185.685 931.947,199.012 932.611,161.505 933.275,252.16 933.939,132.519 934.603,173.087 935.267,176.521 935.931,168.877 936.595,144.35 937.259,191.717 937.922,153.584 938.586,222.193 939.25,165.09 939.914,189.45 940.578,127.349 941.242,191.128 941.906,161.189 942.57,172.208 943.234,154.999 943.898,168.438 944.562,168.98 945.226,236.963 945.89,181.764 946.554,174.814 947.218,169.687 947.882,167.385 948.546,181.383 949.209,161.695 949.873,190.258 950.537,225.722 951.201,193.18 951.865,202.946 952.529,190.722 953.193,176.68 953.857,169.819 954.521,135.036 955.185,124.133 955.849,212.957 956.513,177.756 957.177,180.184 957.841,164.856 958.505,159.419 959.169,186.395 959.832,183.088 960.496,162.376 961.16,209.581 961.824,167.713 962.488,149.255 963.152,173.761 963.816,174.634 964.48,173.09 965.144,202.15 965.808,186.05 966.472,199.87 967.136,187.301 967.8,191.291 968.464,182.409 969.128,170.841 969.792,187.042 970.455,197.329 971.119,176.441 971.783,184.47 972.447,158.04 973.111,147.819 973.775,176.228 974.439,177.236 975.103,173.504 975.767,170.226 976.431,147 977.095,172.329 977.759,189.809 978.423,202.031 979.087,180.768 979.751,183.504 980.415,223.036 981.079,177.196 981.742,200.868 982.406,181.574 983.07,133.841 983.734,186.582 984.398,164.154 985.062,154.824 985.726,164.072 986.39,272.815 987.054,200.782 987.718,173.595 988.382,165.618 989.046,184.047 989.71,192.984 990.374,173.538 991.038,183.722 991.702,166.443 992.365,188.959 993.029,177.16 993.693,169.126 994.357,200.347 995.021,187.188 995.685,149.443 996.349,195.841 997.013,178.185 997.677,254.409 998.341,184.174 999.005,207.33 999.669,183.227 1000.33,198.766 1001,169.619 1001.66,176.075 1002.32,177.128 1002.99,193.654 1003.65,186.563 1004.32,160.925 1004.98,183 1005.64,163.558 1006.31,182.485 1006.97,195.124 1007.64,179.255 1008.3,209.088 1008.96,192.456 1009.63,212.22 1010.29,164.783 1010.96,192.597 1011.62,209.11 1012.28,211.739 1012.95,184.679 1013.61,182.869 1014.28,171.066 1014.94,211.643 1015.6,246.096 1016.27,220.195 1016.93,154.664 1017.6,181.511 1018.26,157.274 1018.92,205.952 1019.59,186.946 1020.25,200.422 1020.91,177.132 1021.58,189.693 1022.24,173.416 1022.91,175.748 1023.57,149.972 1024.23,185.504 1024.9,180.265 1025.56,188.11 1026.23,175.507 1026.89,193.043 1027.55,177.326 1028.22,209.24 1028.88,213.762 1029.55,198.713 1030.21,173.766 1030.87,157.923 1031.54,183.419 1032.2,158.229 1032.87,166.887 1033.53,162.615 1034.19,228.854 1034.86,203.715 1035.52,184.955 1036.19,164.899 1036.85,172.634 1037.51,197.887 1038.18,180.383 1038.84,194.563 1039.51,186.015 1040.17,157.87 1040.83,277.573 1041.5,238.583 1042.16,163.056 1042.82,194.779 1043.49,190.263 1044.15,138.462 1044.82,145.076 1045.48,134.124 1046.14,139.575 1046.81,229.398 1047.47,200.91 1048.14,225.879 1048.8,216.786 1049.46,173.167 1050.13,179.187 1050.79,112.541 1051.46,264.334 1052.12,135.906 1052.78,232.291 1053.45,181.637 1054.11,168.422 1054.78,181.246 1055.44,185.117 1056.1,196.974 1056.77,161.827 1057.43,203.043 1058.1,161.69 1058.76,211.631 1059.42,164.692 1060.09,179.727 1060.75,173.877 1061.42,177.568 1062.08,167.214 1062.74,177.321 1063.41,178.47 1064.07,162.124 1064.73,179.31 1065.4,172.39 1066.06,160.272 1066.73,177.107 1067.39,219.403 1068.05,206.354 1068.72,148.25 1069.38,190.565 1070.05,186.208 1070.71,305.541 1071.37,166.675 1072.04,190.663 1072.7,183.688 1073.37,170.36 1074.03,130.332 1074.69,197.26 1075.36,191.499 1076.02,182.838 1076.69,149.002 1077.35,158.918 1078.01,277.293 1078.68,177.944 1079.34,197.995 1080.01,179.003 1080.67,178.823 1081.33,171.419 1082,159.104 1082.66,193.021 1083.33,188.82 1083.99,205.838 1084.65,191.415 1085.32,199.369 1085.98,177.165 1086.64,167.103 1087.31,180.585 1087.97,190.345 1088.64,175.362 1089.3,187.24 1089.96,183.267 1090.63,161.816 1091.29,177.368 1091.96,186.991 1092.62,155.486 1093.28,189.928 1093.95,170.155 1094.61,166.537 1095.28,179.407 1095.94,177.405 1096.6,181.778 1097.27,226.696 1097.93,185.509 1098.6,191.485 1099.26,180.843 1099.92,183.008 1100.59,151.34 1101.25,166.773 1101.92,183.227 1102.58,169.682 1103.24,182.182 1103.91,162.006 1104.57,180.019 1105.24,170.137 1105.9,199.262 1106.56,148.414 1107.23,160.853 1107.89,158.775 1108.55,223.817 1109.22,183.987 1109.88,161.272 1110.55,185.938 1111.21,143.26 1111.87,183.86 1112.54,181.994 1113.2,199.533 1113.87,173.891 1114.53,168.251 1115.19,214.255 1115.86,167.059 1116.52,185.966 1117.19,209.454 1117.85,184.276 1118.51,207.98 1119.18,179.364 1119.84,183.074 1120.51,177.315 1121.17,212.387 1121.83,183.829 1122.5,174.287 1123.16,148.555 1123.83,187.258 1124.49,157.475 1125.15,195.901 1125.82,200.615 1126.48,155.715 1127.15,153.483 1127.81,233.828 1128.47,183.771 1129.14,170.025 1129.8,183.872 1130.46,218.403 1131.13,197.768 1131.79,189.927 1132.46,183.934 1133.12,188.59 1133.78,194.307 1134.45,170.111 1135.11,163.532 1135.78,218.742 1136.44,156.742 1137.1,205.436 1137.77,183.422 1138.43,183.89 1139.1,191.11 1139.76,176.938 1140.42,222.401 1141.09,174.543 1141.75,170.124 1142.42,183.11 1143.08,197.117 1143.74,205.051 1144.41,176.442 1145.07,185.61 1145.74,185.955 1146.4,182.729 1147.06,175.727 1147.73,196.899 1148.39,173.227 1149.05,161.721 1149.72,183.449 1150.38,131.799 1151.05,154.278 1151.71,148.061 1152.37,155.194 1153.04,275.969 1153.7,162.417 1154.37,178.363 1155.03,166.605 1155.69,144.896 1156.36,151.383 1157.02,256.011 1157.69,123.483 1158.35,186.398 1159.01,215.281 1159.68,157.007 1160.34,157.776 1161.01,151.4 1161.67,168.067 1162.33,171.954 1163,168.412 1163.66,196.49 1164.33,183.683 1164.99,188.092 1165.65,157.79 1166.32,162.501 1166.98,202.235 1167.65,210.398 1168.31,179.906 1168.97,195.4 1169.64,173.737 1170.3,147.126 1170.96,172.218 1171.63,152.028 1172.29,181.625 1172.96,173.139 1173.62,161.288 1174.28,193.858 1174.95,172.478 1175.61,166.111 1176.28,157.993 1176.94,122.59 1177.6,235.925 1178.27,198.589 1178.93,167.563 1179.6,251.639 1180.26,181.13 1180.92,158.422 1181.59,213.138 1182.25,184.736 1182.92,168.391 1183.58,170.238 1184.24,161.639 1184.91,189.694 1185.57,173.7 1186.24,197.193 1186.9,205.194 1187.56,175.017 1188.23,167.928 1188.89,172.211 1189.56,176.433 1190.22,180.525 1190.88,182.582 1191.55,155.494 1192.21,186.036 1192.87,202.558 1193.54,190.584 1194.2,186.767 1194.87,175.895 1195.53,187.263 1196.19,188.017 1196.86,190.982 1197.52,218.503 1198.19,157.048 1198.85,182.427 1199.51,171.515 1200.18,183.004 1200.84,142.094 1201.51,189.581 1202.17,193.637 1202.83,144.032 1203.5,181.503 1204.16,162.943 1204.83,197.187 1205.49,232.802 1206.15,176.667 1206.82,207.229 1207.48,181.163 1208.15,191.754 1208.81,167.918 1209.47,199.064 1210.14,190.752 1210.8,186.61 1211.47,171.305 1212.13,185.732 1212.79,184.77 1213.46,214.405 1214.12,192.188 1214.78,205.554 1215.45,201.751 1216.11,178.548 1216.78,204.23 1217.44,204.199 1218.1,186.394 1218.77,178.156 1219.43,157.04 1220.1,169.079 1220.76,187.829 1221.42,189.157 1222.09,227.833 1222.75,191.27 1223.42,164.071 1224.08,159.884 1224.74,152.822 1225.41,176.04 1226.07,170.283 1226.74,199.914 1227.4,168.333 1228.06,195.037 1228.73,183.696 1229.39,187.23 1230.06,165.626 1230.72,160.032 1231.38,237.29 1232.05,166.196 1232.71,193.892 1233.38,157.581 1234.04,180.936 1234.7,170.97 1235.37,163.936 1236.03,161.295 1236.69,164.015 1237.36,201.267 1238.02,178.835 1238.69,161.314 1239.35,282.897 1240.01,176.08 1240.68,196.995 1241.34,175.073 1242.01,194.534 1242.67,184.159 1243.33,187.698 1244,190.061 1244.66,164.144 1245.33,179.751 1245.99,162.934 1246.65,214.16 1247.32,178.415 1247.98,173.679 1248.65,149.883 1249.31,288.996 1249.97,215.517 1250.64,260.2 1251.3,178.336 1251.97,153.304 1252.63,207.129 1253.29,191.952 1253.96,182.77 1254.62,199.928 1255.29,187.86 1255.95,188.289 1256.61,184.543 1257.28,179.449 1257.94,174.674 1258.6,168.815 1259.27,181.796 1259.93,156.31 1260.6,146.658 1261.26,194.148 1261.92,187.396 1262.59,202.497 1263.25,156.1 1263.92,185.316 1264.58,201.203 1265.24,184.035 1265.91,188.346 1266.57,184.094 1267.24,182.949 1267.9,182.219 1268.56,193.25 1269.23,172.395 1269.89,176.439 1270.56,155.285 1271.22,139.506 1271.88,183.742 1272.55,169.646 1273.21,203.775 1273.88,149.872 1274.54,175.302 1275.2,230.044 1275.87,184.7 1276.53,185.572 1277.2,194.762 1277.86,177.54 1278.52,146.608 1279.19,177.232 1279.85,207.174 1280.51,207.228 1281.18,165.303 1281.84,218.511 1282.51,170.774 1283.17,171.11 1283.83,181.094 1284.5,183.793 1285.16,176.063 1285.83,168.688 1286.49,201.55 1287.15,170.771 1287.82,172.416 1288.48,150.398 1289.15,171.81 1289.81,173.352 1290.47,176.961 1291.14,199.517 1291.8,174.692 1292.47,168.632 1293.13,235.181 1293.79,153.928 1294.46,190.442 1295.12,202.39 1295.79,182.396 1296.45,149.741 1297.11,195.047 1297.78,189.383 1298.44,201.614 1299.11,159.478 1299.77,191.86 1300.43,184.827 1301.1,187.534 1301.76,158.375 1302.42,222.629 1303.09,175.934 1303.75,157.033 1304.42,170.13 1305.08,170.009 1305.74,147.784 1306.41,211.163 1307.07,169.868 1307.74,190.266 1308.4,160.845 1309.06,172.481 1309.73,98.888 1310.39,180.678 1311.06,183.501 1311.72,329.177 1312.38,189.497 1313.05,167.203 1313.71,195.438 1314.38,180.494 1315.04,153.81 1315.7,183.119 1316.37,159.468 1317.03,230.917 1317.7,163.515 1318.36,167.532 1319.02,172.121 1319.69,192.44 1320.35,186.362 1321.02,202.575 1321.68,177.644 1322.34,174.039 1323.01,172.861 1323.67,163.184 1324.33,175.206 1325,164.298 1325.66,154.428 1326.33,224.915 1326.99,171.279 1327.65,192.726 1328.32,176.52 1328.98,190.282 1329.65,175.484 1330.31,164.782 1330.97,170.823 1331.64,176.325 1332.3,173.358 1332.97,172.942 1333.63,159.014 1334.29,156.197 1334.96,226.282 1335.62,164.558 1336.29,185.159 1336.95,147.762 1337.61,193.585 1338.28,185.584 1338.94,164.205 1339.61,190.789 1340.27,190.318 1340.93,149.91 1341.6,180.737 1342.26,186.76 1342.93,228.011 1343.59,178.001 1344.25,155.731 1344.92,191.96 1345.58,157.334 1346.24,188.041 1346.91,192.711 1347.57,171.316 1348.24,160.854 1348.9,138.93 1349.56,191.563 1350.23,170.044 1350.89,167.867 1351.56,209.394 1352.22,226.51 1352.88,175.834 1353.55,200.629 1354.21,211.211 1354.88,165.401 1355.54,167.54 1356.2,165.856 1356.87,173.823 1357.53,172.988 1358.2,183.021 1358.86,181.314 1359.52,173.451 1360.19,172.057 1360.85,152.095 1361.52,181.146 1362.18,181.527 1362.84,158.2 1363.51,165.893 1364.17,217.688 1364.84,168.228 1365.5,202.014 1366.16,180.436 1366.83,153.497 1367.49,191.192 1368.15,180.113 1368.82,182.31 1369.48,148.332 1370.15,172.468 1370.81,164.905 1371.47,175.463 1372.14,152.332 1372.8,192.588 1373.47,177.753 1374.13,165.758 1374.79,159.607 1375.46,201.659 1376.12,155.959 1376.79,207.579 1377.45,200.189 1378.11,180.183 1378.78,171.646 1379.44,169.901 1380.11,160.145 1380.77,164.985 1381.43,231.679 1382.1,160.585 1382.76,225.951 1383.43,145.244 1384.09,165.393 1384.75,235.677 1385.42,164.643 1386.08,166.702 1386.75,192.267 1387.41,148.853 1388.07,166.479 1388.74,185.48 1389.4,195.419 1390.06,177.664 1390.73,173.121 1391.39,149.379 1392.06,179.252 1392.72,161.937 1393.38,163.65 1394.05,166.221 1394.71,198.038 1395.38,207.041 1396.04,168.47 1396.7,176.705 1397.37,172.516 1398.03,144.083 1398.7,139.196 1399.36,167.553 1400.02,197.049 1400.69,170.409 1401.35,172.827 1402.02,182.756 1402.68,183.841 1403.34,165.501 1404.01,215.125 1404.67,160.027 1405.34,132.462 1406,198.009 1406.66,182.485 1407.33,152.142 1407.99,123.521 1408.66,246.459 1409.32,198.256 1409.98,191.411 1410.65,166.681 1411.31,166.389 1411.97,173.372 1412.64,190.368 1413.3,191.677 1413.97,179.853 1414.63,181.47 1415.29,161.242 1415.96,162.226 1416.62,162.049 1417.29,160.786 1417.95,170.29 1418.61,177.125 1419.28,170.283 1419.94,165.036 1420.61,181.619 1421.27,177.393 1421.93,158.373 1422.6,238.959 1423.26,251.178 1423.93,179.608 1424.59,190.881 1425.25,153.204 1425.92,203.336 1426.58,181.874 1427.25,168.598 1427.91,196.467 1428.57,173.041 1429.24,199.117 1429.9,163.751 1430.56,172.253 1431.23,175.302 1431.89,191.644 1432.56,159.114 1433.22,172.339 1433.88,255.302 1434.55,186.711 1435.21,207.144 1435.88,181.43 1436.54,126.259 1437.2,233.433 1437.87,190.649 1438.53,153.932 1439.2,165.519 1439.86,221.657 1440.52,194.448 1441.19,189.382 1441.85,174.1 1442.52,164.541 1443.18,184.687 1443.84,194.991 1444.51,171.628 1445.17,181.179 1445.84,196.093 1446.5,218.546 1447.16,203.609 1447.83,218.365 1448.49,174.544 1449.16,181.413 1449.82,180.018 1450.48,155.564 1451.15,157.927 1451.81,201.034 1452.47,156.413 1453.14,176.117 1453.8,219.612 1454.47,176.709 1455.13,198.542 1455.79,172.907 1456.46,159.008 1457.12,179.824 1457.79,200.618 1458.45,180.425 1459.11,172.17 1459.78,174.628 1460.44,193.519 1461.11,146.517 1461.77,173.385 1462.43,180.87 1463.1,182.191 1463.76,175.101 1464.43,172.313 1465.09,166.773 1465.75,173.841 1466.42,174.118 1467.08,181.971 1467.75,177.173 1468.41,186.567 1469.07,189.637 1469.74,181.641 1470.4,185.386 1471.07,180.945 1471.73,169.38 1472.39,172.203 1473.06,178.733 1473.72,175.15 1474.38,166.011 1475.05,160.249 1475.71,217.44 1476.38,184.4 1477.04,166.261 1477.7,187.72 1478.37,165.704 1479.03,173.407 1479.7,162.313 1480.36,166.559 1481.02,170.192 1481.69,190.532 1482.35,182.775 1483.02,193.834 1483.68,206.246 1484.34,179.381 1485.01,160.285 1485.67,167.303 1486.34,222.003 1487,206.641 1487.66,160.273 1488.33,163.052 1488.99,149.713 1489.66,212.367 1490.32,174.679 1490.98,171.636 1491.65,166.39 1492.31,191.769 1492.98,176.156 1493.64,178.462 1494.3,160.213 1494.97,192.335 1495.63,185.456 1496.29,156.457 1496.96,174.887 1497.62,168.775 1498.29,170.271 1498.95,153.906 1499.61,224.266 1500.28,180.203 1500.94,197.265 1501.61,167.207 1502.27,185.717 1502.93,178.591 1503.6,148.687 1504.26,192.884 1504.93,185.933 1505.59,168.445 1506.25,190.938 1506.92,175.667 1507.58,206.493 1508.25,172.564 1508.91,182.211 1509.57,157.835 1510.24,160.101 1510.9,183.79 1511.57,191.43 1512.23,207.738 1512.89,140.538 1513.56,211.393 1514.22,162.013 1514.89,159.344 1515.55,222.305 1516.21,180.404 1516.88,165.744 1517.54,204.603 1518.2,187.01 1518.87,174.984 1519.53,159.468 1520.2,174.088 1520.86,182.561 1521.52,173.3 1522.19,193.962 1522.85,163.227 1523.52,174.54 1524.18,199.818 1524.84,190.09 1525.51,163.744 1526.17,171.76 1526.84,207.087 1527.5,159.347 1528.16,191.927 1528.83,174.729 1529.49,177.849 1530.16,169.15 1530.82,166.517 1531.48,207.964 1532.15,179.244 1532.81,178.911 1533.48,161.419 1534.14,195.67 1534.8,198.695 1535.47,166.487 1536.13,157.447 1536.8,206.567 1537.46,167.22 1538.12,200.797 1538.79,186.318 1539.45,186.861 1540.11,243.823 1540.78,151.688 1541.44,201.116 1542.11,198.137 1542.77,172.841 1543.43,150.329 1544.1,186.761 1544.76,166.466 1545.43,165.702 1546.09,175.28 1546.75,146.348 1547.42,171.457 1548.08,168.127 1548.75,212.436 1549.41,229.053 1550.07,212.325 1550.74,178.084 1551.4,180.603 1552.07,167.976 1552.73,182.965 1553.39,175.682 1554.06,179.86 1554.72,162.936 1555.39,149.336 1556.05,148.445 1556.71,155.107 1557.38,202.686 1558.04,160.354 1558.71,177.283 1559.37,174.475 1560.03,181.997 1560.7,181.472 1561.36,167.396 1562.02,176.835 1562.69,174.837 1563.35,193.034 1564.02,170.676 1564.68,192.965 1565.34,191.767 1566.01,169.277 1566.67,189.061 1567.34,168.221 1568,147.538 1568.66,188.042 1569.33,195.84 1569.99,178.651 1570.66,141.411 1571.32,177.934 1571.98,190.766 1572.65,161.44 1573.31,185.07 1573.98,188.979 1574.64,196.38 1575.3,175.768 1575.97,187.719 1576.63,192.863 1577.3,197.95 1577.96,163.107 1578.62,194.888 1579.29,218.336 1579.95,154.056 1580.62,167.013 1581.28,174.473 1581.94,194.667 1582.61,183 1583.27,147.528 1583.93,166.768 1584.6,204.876 1585.26,198.791 1585.93,185.612 1586.59,161.011 1587.25,213.354 1587.92,196.992 1588.58,161.8 1589.25,176.666 1589.91,193.095 1590.57,186.743 1591.24,177.041 1591.9,258.388 1592.57,188.424 1593.23,160.942 1593.89,181.422 1594.56,187.031 1595.22,171.143 1595.89,189.736 1596.55,169.219 1597.21,188.593 1597.88,167.358 1598.54,201.998 1599.21,158.894 1599.87,177.528 1600.53,168.316 1601.2,179.292 1601.86,192.582 1602.53,226.308 1603.19,164.006 1603.85,163.338 1604.52,177.638 1605.18,163.25 1605.84,184.865 1606.51,187.467 1607.17,200.624 1607.84,148.019 1608.5,194.946 1609.16,185.297 1609.83,176.98 1610.49,161.201 1611.16,214.242 1611.82,131.866 1612.48,220.359 1613.15,172.825 1613.81,155.164 1614.48,162.055 1615.14,209.359 1615.8,182.348 1616.47,151.433 1617.13,169.727 1617.8,177.213 1618.46,180.458 1619.12,154.813 1619.79,195.939 1620.45,166.234 1621.12,154.245 1621.78,186.4 1622.44,152.608 1623.11,183.987 1623.77,188.301 1624.44,156.685 1625.1,177.467 1625.76,171.116 1626.43,164.484 1627.09,201.812 1627.75,198.207 1628.42,193.939 1629.08,182.613 1629.75,177.452 1630.41,164.049 1631.07,193.589 1631.74,185.933 1632.4,170.221 1633.07,189.732 1633.73,151.379 1634.39,164.626 1635.06,136.822 1635.72,198.372 1636.39,181.892 1637.05,184.021 1637.71,186 1638.38,195.231 1639.04,182.012 1639.71,175.27 1640.37,170.004 1641.03,174.068 1641.7,131.375 1642.36,213.158 1643.03,175.936 1643.69,167.012 1644.35,182.489 1645.02,170.694 1645.68,189.85 1646.35,179.053 1647.01,181.071 1647.67,170.774 1648.34,149.362 1649,182.864 1649.66,158.39 1650.33,151.558 1650.99,167.449 1651.66,217.499 1652.32,203.914 1652.98,135.404 1653.65,144.466 1654.31,157.288 1654.98,193.258 1655.64,257.219 1656.3,191.781 1656.97,166.004 1657.63,168.876 1658.3,171.028 1658.96,167.02 1659.62,156.831 1660.29,165.831 1660.95,165.717 1661.62,177.8 1662.28,171.401 1662.94,137.611 1663.61,173.067 1664.27,188.676 1664.94,178.468 1665.6,166.974 1666.26,158.629 1666.93,191.956 1667.59,198.063 1668.26,188.559 1668.92,191.911 1669.58,196.066 1670.25,183.553 1670.91,173.868 1671.57,154.226 1672.24,185.612 1672.9,176.439 1673.57,161.729 1674.23,182.61 1674.89,176.72 1675.56,170.319 1676.22,154.573 1676.89,214.105 1677.55,185.971 1678.21,167.31 1678.88,178.597 1679.54,191.22 1680.21,174.023 1680.87,192.768 1681.53,159.958 1682.2,195.174 1682.86,168.358 1683.53,197.562 1684.19,167.876 1684.85,159.551 1685.52,196.607 1686.18,175.992 1686.85,202.34 1687.51,169.897 1688.17,178.886 1688.84,179.382 1689.5,164.676 1690.17,168.445 1690.83,206.063 1691.49,174.599 1692.16,174.906 1692.82,158.574 1693.48,178.648 1694.15,175.274 1694.81,189.627 1695.48,166.597 1696.14,189.292 1696.8,180.816 1697.47,182.981 1698.13,153.268 1698.8,195.654 1699.46,166.948 1700.12,193.984 1700.79,189.205 1701.45,182.083 1702.12,170.334 1702.78,172.775 1703.44,214.904 1704.11,224.742 1704.77,175.246 1705.44,157.337 1706.1,235.104 1706.76,198.2 1707.43,171.723 1708.09,197.594 1708.76,185.108 1709.42,164.866 1710.08,201.829 1710.75,169.347 1711.41,165.304 1712.07,171.728 1712.74,150.909 1713.4,210.068 1714.07,145.988 1714.73,189.405 1715.39,176.504 1716.06,179.936 1716.72,170.346 1717.39,151.8 1718.05,138.608 1718.71,357 1719.38,249.314 1720.04,235.344 1720.71,165.53 1721.37,155.65 1722.03,165.577 1722.7,162.155 1723.36,221.948 1724.03,172.298 1724.69,151.5 1725.35,224.859 1726.02,197.543 1726.68,166.199 1727.35,185.422 1728.01,160.199 1728.67,206.693 1729.34,185.008 1730,176.951 1730.67,150.475 1731.33,181.332 1731.99,148.349 1732.66,190.932 1733.32,168.557 1733.98,163.82 1734.65,163.853 1735.31,149.178 1735.98,168.806 1736.64,154.66 1737.3,180.95 1737.97,144.826 1738.63,179.523 1739.3,181.048 1739.96,170.417 1740.62,173.272 1741.29,171.21 1741.95,174.37 1742.62,178.793 1743.28,173.157 1743.94,201.342 1744.61,186.239 1745.27,185.38 1745.94,163.175 1746.6,146.272 1747.26,181.177 1747.93,168.281 1748.59,188.673 1749.26,161.812 1749.92,212.421 1750.58,161.011 1751.25,161.815 1751.91,254.536 1752.58,177.466 1753.24,181.952 1753.9,141.372 1754.57,162.907 1755.23,187.252 1755.89,135.881 1756.56,192.707 1757.22,227.41 1757.89,170.375 1758.55,159.42 1759.21,140.531 1759.88,168.613 1760.54,188.331 1761.21,203.476 1761.87,169.156 1762.53,162.336 1763.2,201.585 1763.86,193.761 1764.53,164.088 1765.19,169.369 1765.85,167.076 1766.52,165.483 1767.18,181.227 1767.85,170.315 1768.51,178.835 1769.17,197.121 1769.84,203.307 1770.5,156.977 1771.17,209.709 1771.83,174.279 1772.49,170.328 1773.16,189.273 1773.82,167.025 1774.49,200.433 1775.15,159.596 1775.81,156.204 1776.48,212.655 1777.14,174.425 1777.8,193.144 1778.47,175.138 1779.13,161.372 1779.8,160.225 1780.46,192.263 1781.12,157.288 1781.79,169.964 1782.45,157.77 1783.12,218.393 1783.78,193.353 1784.44,152.863 1785.11,174.327 1785.77,190.307 1786.44,220.76 1787.1,153.751 1787.76,220.888 1788.43,198.186 1789.09,162.168 1789.76,158.411 1790.42,161.889 1791.08,145.672 1791.75,175.087 1792.41,182.97 1793.08,195.747 1793.74,186.181 1794.4,180.609 1795.07,195.615 1795.73,137.737 1796.4,180.207 1797.06,192.157 1797.72,175.752 1798.39,154.343 1799.05,217.102 1799.71,159.871 1800.38,209.76 1801.04,173.05 1801.71,179.015 1802.37,172.942 1803.03,186.99 1803.7,155.374 1804.36,170.684 1805.03,213.163 1805.69,173.23 1806.35,188.809 1807.02,145.372 1807.68,190.196 1808.35,166.302 1809.01,168.771 1809.67,189.221 1810.34,180.896 1811,149.398 1811.67,185.27 1812.33,190.922 1812.99,190.324 1813.66,173.082 1814.32,172.944 1814.99,167.244 1815.65,173.814 1816.31,167.907 1816.98,170.494 1817.64,169.399 1818.31,167.063 1818.97,182.274 1819.63,142.082 1820.3,172.895 1820.96,289.578 1821.62,177.486 1822.29,193.039 1822.95,187.027 1823.62,179.784 1824.28,154.068 1824.94,173.382 1825.61,192.227 1826.27,155.495 1826.94,163.273 1827.6,204.788 1828.26,182.069 1828.93,175.06 1829.59,181.351 1830.26,193.133 1830.92,175.216 1831.58,178.221 1832.25,174.002 1832.91,169.075 1833.58,176.37 1834.24,166.532 1834.9,201.737 1835.57,190.25 1836.23,171.203 1836.9,184.488 1837.56,169.227 1838.22,193.52 1838.89,190.351 1839.55,172.572 1840.22,166.224 1840.88,176.667 1841.54,172.894 1842.21,172.349 1842.87,169.834 1843.53,186.536 1844.2,181.546 1844.86,161.345 1845.53,172.744 1846.19,265 1846.85,198.156 1847.52,186.119 1848.18,150.905 1848.85,97.8952 1849.51,204.35 1850.17,184.367 1850.84,169.524 1851.5,205.502 1852.17,187.738 1852.83,171.436 1853.49,134.737 1854.16,200.617 1854.82,169.655 1855.49,170.839 1856.15,143.635 1856.81,171.895 1857.48,198.939 1858.14,162.168 1858.81,217.539 1859.47,146.874 1860.13,150.456 1860.8,209.388 1861.46,194.166 1862.13,149.626 1862.79,186.582 1863.45,180.041 1864.12,160.726 1864.78,189.734 1865.44,166.712 1866.11,187.083 1866.77,171.119 1867.44,164.586 1868.1,183.396 1868.76,168.732 1869.43,158.171 1870.09,195.304 1870.76,150.675 1871.42,239.32 1872.08,181.885 1872.75,166.822 1873.41,184.224 1874.08,181.84 1874.74,167.535 1875.4,178.196 1876.07,177.436 1876.73,186.642 1877.4,167.192 1878.06,192.018 1878.72,182.952 1879.39,183.865 1880.05,171.962 1880.72,168.553 1881.38,159.806 1882.04,164.992 1882.71,174.954 1883.37,190.975 1884.04,190.937 1884.7,163.376 1885.36,161.548 1886.03,165.041 1886.69,174.028 1887.35,160.278 1888.02,154.87 1888.68,173.208 1889.35,139.157 1890.01,205.582 1890.67,178.57 1891.34,141.513 1892,221.969 1892.67,172.761 1893.33,200.925 1893.99,195.041 1894.66,189.617 1895.32,184.784 1895.99,177.093 1896.65,192.012 1897.31,151.516 1897.98,126.762 1898.64,200.227 1899.31,209.524 1899.97,187.896 1900.63,169.374 1901.3,189.355 1901.96,172.401 1902.63,186.494 1903.29,176.132 1903.95,174.624 1904.62,190.411 1905.28,186.021 1905.95,186.995 1906.61,153.836 1907.27,179.834 1907.94,180.176 1908.6,178.07 1909.26,161.836 1909.93,191.255 1910.59,183.526 1911.26,178.71 1911.92,180.459 1912.58,185.89 1913.25,184.436 1913.91,186.359 1914.58,171.917 1915.24,171.934 1915.9,197.682 1916.57,151.208 1917.23,188.743 1917.9,178.734 1918.56,162.445 1919.22,195.638 1919.89,185.295 1920.55,181.226 1921.22,165.511 1921.88,171.289 1922.54,201.689 1923.21,169.497 1923.87,184.017 1924.54,182.07 1925.2,175.324 1925.86,175.726 1926.53,170.85 1927.19,192.574 1927.86,186.364 1928.52,189.231 1929.18,174.699 1929.85,199.561 1930.51,177.222 1931.17,167.725 1931.84,161.719 1932.5,186.687 1933.17,189.876 1933.83,158.639 1934.49,194.267 1935.16,192.581 1935.82,175.961 1936.49,179.216 1937.15,185.463 1937.81,171.682 1938.48,184.325 1939.14,177.075 1939.81,176.135 1940.47,166.947 1941.13,186.13 1941.8,172.874 1942.46,163.236 1943.13,181.696 1943.79,183.326 1944.45,213.575 1945.12,174.78 1945.78,212.457 1946.45,122.956 1947.11,144.93 1947.77,263.796 1948.44,171.281 1949.1,191.168 1949.77,173.894 1950.43,93.807 1951.09,203.943 1951.76,191.342 1952.42,177.576 1953.08,166.893 1953.75,171.418 1954.41,167.565 1955.08,156.055 1955.74,189.171 1956.4,186.12 1957.07,151.05 1957.73,224.27 1958.4,178.459 1959.06,179.793 1959.72,183.428 1960.39,167.691 1961.05,185.258 1961.72,186.721 1962.38,140.518 1963.04,176.093 1963.71,161.158 1964.37,176.241 1965.04,183.356 1965.7,168.603 1966.36,166.589 1967.03,181.673 1967.69,189.647 1968.36,184.348 1969.02,173.679 1969.68,171.199 1970.35,168.17 1971.01,211.438 1971.68,180.473 1972.34,179.219 1973,136.672 1973.67,176.26 1974.33,170.537 1974.99,220.588 1975.66,186.859 1976.32,186.121 1976.99,165.408 1977.65,200.477 1978.31,177.711 1978.98,170.044 1979.64,182.601 1980.31,203.227 1980.97,170.999 1981.63,171.083 1982.3,163.116 1982.96,188.997 1983.63,164.88 1984.29,192.473 1984.95,176.594 1985.62,174.3 1986.28,173.729 1986.95,180.419 1987.61,176.26 1988.27,189.384 1988.94,186.078 1989.6,172.785 1990.27,143.604 1990.93,163.321 1991.59,161.107 1992.26,193.169 1992.92,153.81 1993.58,160.236 1994.25,179.996 1994.91,188.46 1995.58,171.889 1996.24,180.766 1996.9,171.379 1997.57,178.896 1998.23,177.27 1998.9,170.741 1999.56,194.431 2000.22,176.356 2000.89,183.085 2001.55,193.137 2002.22,185.671 2002.88,145.269 2003.54,192.686 2004.21,205.04 2004.87,176.129 2005.54,188.244 2006.2,179.753 2006.86,171.132 2007.53,170.389 2008.19,190.776 2008.86,179.85 2009.52,181.198 2010.18,175.884 2010.85,122.077 2011.51,216.849 2012.18,189.333 2012.84,180.347 2013.5,153.836 2014.17,171.798 2014.83,215.907 2015.49,179.905 2016.16,159.866 2016.82,170.365 2017.49,183.449 2018.15,230.338 2018.81,194.603 2019.48,158.917 2020.14,179.042 2020.81,194.923 2021.47,168.542 2022.13,203.028 2022.8,177.779 2023.46,226.316 2024.13,143.191 2024.79,196.38 2025.45,199.501 2026.12,174.445 2026.78,170.262 2027.45,172.46 2028.11,174.096 2028.77,154.69 2029.44,167.806 2030.1,177.459 2030.77,135.49 2031.43,225.227 2032.09,145.337 2032.76,193.424 2033.42,154.211 2034.09,176.452 2034.75,168.388 2035.41,178.219 2036.08,167.302 2036.74,161.04 2037.4,198.988 2038.07,189.249 2038.73,180.402 2039.4,167.357 2040.06,180.218 2040.72,149.966 2041.39,196.809 2042.05,173.16 2042.72,218.037 2043.38,165.091 2044.04,164.48 2044.71,166.543 2045.37,246.773 2046.04,187.789 2046.7,188.971 2047.36,194.056 2048.03,160.289 2048.69,188.937 2049.36,151.752 2050.02,155.908 2050.68,222.684 2051.35,177.228 2052.01,145.737 2052.68,173.098 2053.34,183.189 2054,174.518 2054.67,181.143 2055.33,195.487 2056,165.326 2056.66,170.706 2057.32,174.067 2057.99,176.206 2058.65,188.442 2059.31,172.454 2059.98,157.902 2060.64,180.078 2061.31,171.749 2061.97,151.622 2062.63,141.719 2063.3,121.505 2063.96,180.841 2064.63,239.435 2065.29,164.932 2065.95,157.67 2066.62,166.457 2067.28,163.611 2067.95,153.046 2068.61,166.588 2069.27,186.747 2069.94,197.487 2070.6,192.655 2071.27,174.989 2071.93,170.724 2072.59,196.734 2073.26,229.269 2073.92,174.699 2074.59,150.293 2075.25,148.654 2075.91,226.442 2076.58,177.663 2077.24,171.176 2077.91,217.037 2078.57,174.231 2079.23,170.803 2079.9,175.103 2080.56,157.203 2081.22,166.383 2081.89,211.623 2082.55,186.079 2083.22,177.317 2083.88,161.466 2084.54,177.678 2085.21,172.73 2085.87,154.248 2086.54,171.128 2087.2,202.298 2087.86,164.165 2088.53,179.099 2089.19,184.926 2089.86,168.479 2090.52,184.031 2091.18,158.379 2091.85,174.259 2092.51,161.87 2093.18,177.584 2093.84,184.849 2094.5,173.586 2095.17,166.522 2095.83,193.31 2096.5,163.23 2097.16,180.981 2097.82,212.73 2098.49,170.306 2099.15,210.521 2099.82,162.896 2100.48,174.822 2101.14,176.473 2101.81,194.649 2102.47,183.486 2103.13,176.879 2103.8,172.716 2104.46,184.239 2105.13,191.585 2105.79,188.2 2106.45,195.148 2107.12,178.964 2107.78,165.689 2108.45,152.669 2109.11,181.46 2109.77,183.379 2110.44,135.366 2111.1,203.341 2111.77,149.599 2112.43,199.632 2113.09,181.525 2113.76,188.691 2114.42,161.946 2115.09,173.43 2115.75,173.506 2116.41,168.877 2117.08,181.371 2117.74,143.466 2118.41,144.956 2119.07,185.763 2119.73,155.484 2120.4,143.289 2121.06,195.918 2121.73,179.022 2122.39,201.531 2123.05,173.993 2123.72,151.883 2124.38,187.076 2125.04,169.966 2125.71,190.463 2126.37,173.07 2127.04,178.313 2127.7,142.702 2128.36,184.597 2129.03,180.264 2129.69,179.797 2130.36,179.58 2131.02,183.991 2131.68,178.036 2132.35,166.193 2133.01,170.494 2133.68,206.941 2134.34,197.149 2135,172.069 2135.67,192.225 2136.33,152.317 2137,166.557 2137.66,159.965 2138.32,199.391 2138.99,173.161 2139.65,182.031 2140.32,177.181 2140.98,180.04 2141.64,200.225 2142.31,175.286 2142.97,166.379 2143.64,172.855 2144.3,178.33 2144.96,171.399 2145.63,178.914 2146.29,167.442 2146.95,189.191 2147.62,172.401 2148.28,182.992 2148.95,164.257 2149.61,190.683 2150.27,162.366 2150.94,207.917 2151.6,190.75 2152.27,156.873 2152.93,166.672 2153.59,185.171 2154.26,180.71 2154.92,187.086 2155.59,151.484 2156.25,215.27 2156.91,170.283 2157.58,152.54 2158.24,181.252 2158.91,181.34 2159.57,193.596 2160.23,186.384 2160.9,164.947 2161.56,178.514 2162.23,183.808 2162.89,184.164 2163.55,158.708 2164.22,177.25 2164.88,182.942 2165.55,164.465 2166.21,168.177 2166.87,187.361 2167.54,159.522 2168.2,176.008 2168.86,159.003 2169.53,174.081 2170.19,170.71 2170.86,190.772 2171.52,175.285 2172.18,177.895 2172.85,176.826 2173.51,156.514 2174.18,191.052 2174.84,173.648 2175.5,182.327 2176.17,170.514 2176.83,200.032 2177.5,165.934 2178.16,182.606 2178.82,184.244 2179.49,177.701 2180.15,161.468 2180.82,203.997 2181.48,194.385 2182.14,190.008 2182.81,194.805 2183.47,156.263 2184.14,163.202 2184.8,178.485 2185.46,193.156 2186.13,174.703 2186.79,155.938 2187.46,174.459 2188.12,170.427 2188.78,180.549 2189.45,211.971 2190.11,151.737 2190.77,140.968 2191.44,181.116 2192.1,142.246 2192.77,208.484 2193.43,164.588 2194.09,184.994 2194.76,165.011 2195.42,196.589 2196.09,184.173 2196.75,181.358 2197.41,141.776 2198.08,170.372 2198.74,223.35 2199.41,201.68 2200.07,199.569 2200.73,231.06 2201.4,174.302 2202.06,191.854 2202.73,161.865 2203.39,176.221 2204.05,176.227 2204.72,207.062 2205.38,172.966 2206.05,183.664 2206.71,179.869 2207.37,174.482 2208.04,169.265 2208.7,182.986 2209.37,166.204 2210.03,170.633 2210.69,173.533 2211.36,189.541 2212.02,156.834 2212.68,161.73 2213.35,177.223 2214.01,162.692 2214.68,214.91 2215.34,172.435 2216,180.544 2216.67,171.492 2217.33,178.583 2218,197.061 2218.66,184.581 2219.32,201.615 2219.99,154.549 2220.65,204.915 2221.32,164.259 2221.98,193.654 2222.64,176.757 2223.31,173.336 2223.97,162.575 2224.64,170.548 2225.3,167.195 2225.96,184.568 2226.63,178.347 2227.29,185.855 2227.96,166.595 2228.62,173.607 2229.28,167.634 2229.95,168.501 2230.61,169.517 2231.28,185.989 2231.94,172.512 2232.6,173.798 2233.27,171.249 2233.93,183.517 2234.59,176.634 2235.26,154.725 2235.92,185.148 2236.59,175.724 2237.25,200.153 2237.91,165.957 2238.58,170.58 2239.24,193.303 2239.91,173.156 2240.57,179.426 2241.23,182.631 2241.9,204.768 2242.56,161.272 2243.23,187.075 2243.89,180.672 2244.55,165.151 2245.22,200.175 2245.88,176.429 2246.55,174.588 2247.21,180.699 2247.87,168.563 2248.54,173.417 2249.2,189.269 2249.87,159.865 2250.53,191.363 2251.19,183.162 2251.86,182.978 2252.52,175.133 2253.19,164.233 2253.85,170.201 2254.51,176.289 2255.18,191.174 2255.84,174.088 2256.5,186.043 2257.17,177.895 2257.83,170.301 2258.5,177.82 2259.16,156.952 2259.82,174.716 2260.49,137.061 2261.15,165.807 2261.82,185.962 2262.48,177.963 2263.14,175.982 2263.81,177.554 2264.47,178.489 2265.14,159.091 2265.8,172.721 2266.46,170.116 2267.13,199.004 2267.79,159.066 2268.46,214.399 2269.12,218.306 2269.78,180.582 2270.45,170.301 2271.11,167.949 2271.78,165.746 2272.44,168.029 2273.1,182.253 2273.77,149.747 2274.43,181.53 2275.09,153.608 2275.76,231.692 2276.42,162.437 2277.09,181.911 2277.75,162.164 2278.41,215.566 2279.08,168.288 2279.74,165.954 2280.41,245 2281.07,197.988 2281.73,184.614 2282.4,191.357 2283.06,163.035 2283.73,181.713 2284.39,168.531 2285.05,189.743 2285.72,205.027 2286.38,185.991 2287.05,172.452 2287.71,152.841 2288.37,169.388 2289.04,196.165 2289.7,158.545 2290.37,159.929 2291.03,217.489 2291.69,176.987 2292.36,178.017 2293.02,183.962 "/>
<path clip-path="url(#clip420)" d="M2018.91 1377.32 L2282.4 1377.32 L2282.4 1273.64 L2018.91 1273.64  Z" fill="#ffffff" fill-rule="evenodd" fill-opacity="1"/>
<polyline clip-path="url(#clip420)" style="stroke:#000000; stroke-linecap:round; stroke-linejoin:round; stroke-width:4; stroke-opacity:1; fill:none" points="2018.91,1377.32 2282.4,1377.32 2282.4,1273.64 2018.91,1273.64 2018.91,1377.32 "/>
<polyline clip-path="url(#clip420)" style="stroke:#009af9; stroke-linecap:round; stroke-linejoin:round; stroke-width:4; stroke-opacity:1; fill:none" points="2042.36,1325.48 2183.07,1325.48 "/>
<path clip-path="url(#clip420)" d="M2220.36 1345.16 Q2218.56 1349.79 2216.84 1351.2 Q2215.13 1352.62 2212.26 1352.62 L2208.86 1352.62 L2208.86 1349.05 L2211.36 1349.05 Q2213.12 1349.05 2214.09 1348.22 Q2215.06 1347.38 2216.24 1344.28 L2217.01 1342.34 L2206.52 1316.83 L2211.03 1316.83 L2219.14 1337.11 L2227.24 1316.83 L2231.75 1316.83 L2220.36 1345.16 Z" fill="#000000" fill-rule="nonzero" fill-opacity="1" /><path clip-path="url(#clip420)" d="M2239.04 1338.82 L2246.68 1338.82 L2246.68 1312.45 L2238.37 1314.12 L2238.37 1309.86 L2246.64 1308.2 L2251.31 1308.2 L2251.31 1338.82 L2258.95 1338.82 L2258.95 1342.76 L2239.04 1342.76 L2239.04 1338.82 Z" fill="#000000" fill-rule="nonzero" fill-opacity="1" /></svg>
