<?xml version="1.0" encoding="utf-8"?>
<svg xmlns="http://www.w3.org/2000/svg" xmlns:xlink="http://www.w3.org/1999/xlink" width="600" height="400" viewBox="0 0 2400 1600">
<defs>
  <clipPath id="clip580">
    <rect x="0" y="0" width="2400" height="1600"/>
  </clipPath>
</defs>
<path clip-path="url(#clip580)" d="M0 1600 L2400 1600 L2400 0 L0 0  Z" fill="#ffffff" fill-rule="evenodd" fill-opacity="1"/>
<defs>
  <clipPath id="clip581">
    <rect x="480" y="0" width="1681" height="1600"/>
  </clipPath>
</defs>
<path clip-path="url(#clip580)" d="M407.875 1423.18 L2352.76 1423.18 L2352.76 47.2441 L407.875 47.2441  Z" fill="#ffffff" fill-rule="evenodd" fill-opacity="1"/>
<defs>
  <clipPath id="clip582">
    <rect x="407" y="47" width="1946" height="1377"/>
  </clipPath>
</defs>
<polyline clip-path="url(#clip582)" style="stroke:#000000; stroke-linecap:round; stroke-linejoin:round; stroke-width:2; stroke-opacity:0.1; fill:none" points="431.42,1423.18 431.42,47.2441 "/>
<polyline clip-path="url(#clip582)" style="stroke:#000000; stroke-linecap:round; stroke-linejoin:round; stroke-width:2; stroke-opacity:0.1; fill:none" points="762.454,1423.18 762.454,47.2441 "/>
<polyline clip-path="url(#clip582)" style="stroke:#000000; stroke-linecap:round; stroke-linejoin:round; stroke-width:2; stroke-opacity:0.1; fill:none" points="1093.49,1423.18 1093.49,47.2441 "/>
<polyline clip-path="url(#clip582)" style="stroke:#000000; stroke-linecap:round; stroke-linejoin:round; stroke-width:2; stroke-opacity:0.1; fill:none" points="1424.52,1423.18 1424.52,47.2441 "/>
<polyline clip-path="url(#clip582)" style="stroke:#000000; stroke-linecap:round; stroke-linejoin:round; stroke-width:2; stroke-opacity:0.1; fill:none" points="1755.55,1423.18 1755.55,47.2441 "/>
<polyline clip-path="url(#clip582)" style="stroke:#000000; stroke-linecap:round; stroke-linejoin:round; stroke-width:2; stroke-opacity:0.1; fill:none" points="2086.59,1423.18 2086.59,47.2441 "/>
<polyline clip-path="url(#clip582)" style="stroke:#000000; stroke-linecap:round; stroke-linejoin:round; stroke-width:2; stroke-opacity:0.1; fill:none" points="407.875,1350.6 2352.76,1350.6 "/>
<polyline clip-path="url(#clip582)" style="stroke:#000000; stroke-linecap:round; stroke-linejoin:round; stroke-width:2; stroke-opacity:0.1; fill:none" points="407.875,1091.45 2352.76,1091.45 "/>
<polyline clip-path="url(#clip582)" style="stroke:#000000; stroke-linecap:round; stroke-linejoin:round; stroke-width:2; stroke-opacity:0.1; fill:none" points="407.875,832.301 2352.76,832.301 "/>
<polyline clip-path="url(#clip582)" style="stroke:#000000; stroke-linecap:round; stroke-linejoin:round; stroke-width:2; stroke-opacity:0.1; fill:none" points="407.875,573.152 2352.76,573.152 "/>
<polyline clip-path="url(#clip582)" style="stroke:#000000; stroke-linecap:round; stroke-linejoin:round; stroke-width:2; stroke-opacity:0.1; fill:none" points="407.875,314.003 2352.76,314.003 "/>
<polyline clip-path="url(#clip582)" style="stroke:#000000; stroke-linecap:round; stroke-linejoin:round; stroke-width:2; stroke-opacity:0.1; fill:none" points="407.875,54.8543 2352.76,54.8543 "/>
<polyline clip-path="url(#clip580)" style="stroke:#000000; stroke-linecap:round; stroke-linejoin:round; stroke-width:4; stroke-opacity:1; fill:none" points="407.875,1423.18 2352.76,1423.18 "/>
<polyline clip-path="url(#clip580)" style="stroke:#000000; stroke-linecap:round; stroke-linejoin:round; stroke-width:4; stroke-opacity:1; fill:none" points="431.42,1423.18 431.42,1404.28 "/>
<polyline clip-path="url(#clip580)" style="stroke:#000000; stroke-linecap:round; stroke-linejoin:round; stroke-width:4; stroke-opacity:1; fill:none" points="762.454,1423.18 762.454,1404.28 "/>
<polyline clip-path="url(#clip580)" style="stroke:#000000; stroke-linecap:round; stroke-linejoin:round; stroke-width:4; stroke-opacity:1; fill:none" points="1093.49,1423.18 1093.49,1404.28 "/>
<polyline clip-path="url(#clip580)" style="stroke:#000000; stroke-linecap:round; stroke-linejoin:round; stroke-width:4; stroke-opacity:1; fill:none" points="1424.52,1423.18 1424.52,1404.28 "/>
<polyline clip-path="url(#clip580)" style="stroke:#000000; stroke-linecap:round; stroke-linejoin:round; stroke-width:4; stroke-opacity:1; fill:none" points="1755.55,1423.18 1755.55,1404.28 "/>
<polyline clip-path="url(#clip580)" style="stroke:#000000; stroke-linecap:round; stroke-linejoin:round; stroke-width:4; stroke-opacity:1; fill:none" points="2086.59,1423.18 2086.59,1404.28 "/>
<path clip-path="url(#clip580)" d="M431.42 1454.1 Q427.809 1454.1 425.981 1457.66 Q424.175 1461.2 424.175 1468.33 Q424.175 1475.44 425.981 1479.01 Q427.809 1482.55 431.42 1482.55 Q435.055 1482.55 436.86 1479.01 Q438.689 1475.44 438.689 1468.33 Q438.689 1461.2 436.86 1457.66 Q435.055 1454.1 431.42 1454.1 M431.42 1450.39 Q437.231 1450.39 440.286 1455 Q443.365 1459.58 443.365 1468.33 Q443.365 1477.06 440.286 1481.67 Q437.231 1486.25 431.42 1486.25 Q425.61 1486.25 422.532 1481.67 Q419.476 1477.06 419.476 1468.33 Q419.476 1459.58 422.532 1455 Q425.61 1450.39 431.42 1450.39 Z" fill="#000000" fill-rule="nonzero" fill-opacity="1" /><path clip-path="url(#clip580)" d="M752.732 1451.02 L771.088 1451.02 L771.088 1454.96 L757.014 1454.96 L757.014 1463.43 Q758.033 1463.08 759.051 1462.92 Q760.07 1462.73 761.088 1462.73 Q766.875 1462.73 770.255 1465.9 Q773.635 1469.08 773.635 1474.49 Q773.635 1480.07 770.162 1483.17 Q766.69 1486.25 760.371 1486.25 Q758.195 1486.25 755.926 1485.88 Q753.681 1485.51 751.274 1484.77 L751.274 1480.07 Q753.357 1481.2 755.579 1481.76 Q757.801 1482.32 760.278 1482.32 Q764.283 1482.32 766.621 1480.21 Q768.959 1478.1 768.959 1474.49 Q768.959 1470.88 766.621 1468.77 Q764.283 1466.67 760.278 1466.67 Q758.403 1466.67 756.528 1467.08 Q754.676 1467.5 752.732 1468.38 L752.732 1451.02 Z" fill="#000000" fill-rule="nonzero" fill-opacity="1" /><path clip-path="url(#clip580)" d="M1068.18 1481.64 L1075.81 1481.64 L1075.81 1455.28 L1067.5 1456.95 L1067.5 1452.69 L1075.77 1451.02 L1080.44 1451.02 L1080.44 1481.64 L1088.08 1481.64 L1088.08 1485.58 L1068.18 1485.58 L1068.18 1481.64 Z" fill="#000000" fill-rule="nonzero" fill-opacity="1" /><path clip-path="url(#clip580)" d="M1107.53 1454.1 Q1103.92 1454.1 1102.09 1457.66 Q1100.28 1461.2 1100.28 1468.33 Q1100.28 1475.44 1102.09 1479.01 Q1103.92 1482.55 1107.53 1482.55 Q1111.16 1482.55 1112.97 1479.01 Q1114.8 1475.44 1114.8 1468.33 Q1114.8 1461.2 1112.97 1457.66 Q1111.16 1454.1 1107.53 1454.1 M1107.53 1450.39 Q1113.34 1450.39 1116.39 1455 Q1119.47 1459.58 1119.47 1468.33 Q1119.47 1477.06 1116.39 1481.67 Q1113.34 1486.25 1107.53 1486.25 Q1101.72 1486.25 1098.64 1481.67 Q1095.58 1477.06 1095.58 1468.33 Q1095.58 1459.58 1098.64 1455 Q1101.72 1450.39 1107.53 1450.39 Z" fill="#000000" fill-rule="nonzero" fill-opacity="1" /><path clip-path="url(#clip580)" d="M1399.71 1481.64 L1407.35 1481.64 L1407.35 1455.28 L1399.04 1456.95 L1399.04 1452.69 L1407.3 1451.02 L1411.97 1451.02 L1411.97 1481.64 L1419.61 1481.64 L1419.61 1485.58 L1399.71 1485.58 L1399.71 1481.64 Z" fill="#000000" fill-rule="nonzero" fill-opacity="1" /><path clip-path="url(#clip580)" d="M1429.1 1451.02 L1447.46 1451.02 L1447.46 1454.96 L1433.39 1454.96 L1433.39 1463.43 Q1434.41 1463.08 1435.42 1462.92 Q1436.44 1462.73 1437.46 1462.73 Q1443.25 1462.73 1446.63 1465.9 Q1450.01 1469.08 1450.01 1474.49 Q1450.01 1480.07 1446.53 1483.17 Q1443.06 1486.25 1436.74 1486.25 Q1434.57 1486.25 1432.3 1485.88 Q1430.05 1485.51 1427.65 1484.77 L1427.65 1480.07 Q1429.73 1481.2 1431.95 1481.76 Q1434.17 1482.32 1436.65 1482.32 Q1440.66 1482.32 1442.99 1480.21 Q1445.33 1478.1 1445.33 1474.49 Q1445.33 1470.88 1442.99 1468.77 Q1440.66 1466.67 1436.65 1466.67 Q1434.78 1466.67 1432.9 1467.08 Q1431.05 1467.5 1429.1 1468.38 L1429.1 1451.02 Z" fill="#000000" fill-rule="nonzero" fill-opacity="1" /><path clip-path="url(#clip580)" d="M1734.33 1481.64 L1750.65 1481.64 L1750.65 1485.58 L1728.7 1485.58 L1728.7 1481.64 Q1731.37 1478.89 1735.95 1474.26 Q1740.55 1469.61 1741.74 1468.27 Q1743.98 1465.74 1744.86 1464.01 Q1745.76 1462.25 1745.76 1460.56 Q1745.76 1457.8 1743.82 1456.07 Q1741.9 1454.33 1738.8 1454.33 Q1736.6 1454.33 1734.14 1455.09 Q1731.71 1455.86 1728.93 1457.41 L1728.93 1452.69 Q1731.76 1451.55 1734.21 1450.97 Q1736.67 1450.39 1738.7 1450.39 Q1744.07 1450.39 1747.27 1453.08 Q1750.46 1455.77 1750.46 1460.26 Q1750.46 1462.39 1749.65 1464.31 Q1748.87 1466.2 1746.76 1468.8 Q1746.18 1469.47 1743.08 1472.69 Q1739.98 1475.88 1734.33 1481.64 Z" fill="#000000" fill-rule="nonzero" fill-opacity="1" /><path clip-path="url(#clip580)" d="M1770.46 1454.1 Q1766.85 1454.1 1765.02 1457.66 Q1763.22 1461.2 1763.22 1468.33 Q1763.22 1475.44 1765.02 1479.01 Q1766.85 1482.55 1770.46 1482.55 Q1774.1 1482.55 1775.9 1479.01 Q1777.73 1475.44 1777.73 1468.33 Q1777.73 1461.2 1775.9 1457.66 Q1774.1 1454.1 1770.46 1454.1 M1770.46 1450.39 Q1776.27 1450.39 1779.33 1455 Q1782.41 1459.58 1782.41 1468.33 Q1782.41 1477.06 1779.33 1481.67 Q1776.27 1486.25 1770.46 1486.25 Q1764.65 1486.25 1761.57 1481.67 Q1758.52 1477.06 1758.52 1468.33 Q1758.52 1459.58 1761.57 1455 Q1764.65 1450.39 1770.46 1450.39 Z" fill="#000000" fill-rule="nonzero" fill-opacity="1" /><path clip-path="url(#clip580)" d="M2065.86 1481.64 L2082.18 1481.64 L2082.18 1485.58 L2060.23 1485.58 L2060.23 1481.64 Q2062.9 1478.89 2067.48 1474.26 Q2072.09 1469.61 2073.27 1468.27 Q2075.51 1465.74 2076.39 1464.01 Q2077.29 1462.25 2077.29 1460.56 Q2077.29 1457.8 2075.35 1456.07 Q2073.43 1454.33 2070.33 1454.33 Q2068.13 1454.33 2065.67 1455.09 Q2063.24 1455.86 2060.47 1457.41 L2060.47 1452.69 Q2063.29 1451.55 2065.74 1450.97 Q2068.2 1450.39 2070.23 1450.39 Q2075.6 1450.39 2078.8 1453.08 Q2081.99 1455.77 2081.99 1460.26 Q2081.99 1462.39 2081.18 1464.31 Q2080.4 1466.2 2078.29 1468.8 Q2077.71 1469.47 2074.61 1472.69 Q2071.51 1475.88 2065.86 1481.64 Z" fill="#000000" fill-rule="nonzero" fill-opacity="1" /><path clip-path="url(#clip580)" d="M2092.04 1451.02 L2110.4 1451.02 L2110.4 1454.96 L2096.32 1454.96 L2096.32 1463.43 Q2097.34 1463.08 2098.36 1462.92 Q2099.38 1462.73 2100.4 1462.73 Q2106.18 1462.73 2109.56 1465.9 Q2112.94 1469.08 2112.94 1474.49 Q2112.94 1480.07 2109.47 1483.17 Q2106 1486.25 2099.68 1486.25 Q2097.5 1486.25 2095.23 1485.88 Q2092.99 1485.51 2090.58 1484.77 L2090.58 1480.07 Q2092.66 1481.2 2094.89 1481.76 Q2097.11 1482.32 2099.59 1482.32 Q2103.59 1482.32 2105.93 1480.21 Q2108.27 1478.1 2108.27 1474.49 Q2108.27 1470.88 2105.93 1468.77 Q2103.59 1466.67 2099.59 1466.67 Q2097.71 1466.67 2095.84 1467.08 Q2093.98 1467.5 2092.04 1468.38 L2092.04 1451.02 Z" fill="#000000" fill-rule="nonzero" fill-opacity="1" /><path clip-path="url(#clip580)" d="M1051.4 1520.52 L1057.89 1520.52 L1067.89 1560.69 L1077.85 1520.52 L1085.07 1520.52 L1095.07 1560.69 L1105.03 1520.52 L1111.56 1520.52 L1099.62 1568.04 L1091.53 1568.04 L1081.51 1526.79 L1071.39 1568.04 L1063.3 1568.04 L1051.4 1520.52 Z" fill="#000000" fill-rule="nonzero" fill-opacity="1" /><path clip-path="url(#clip580)" d="M1131.86 1550.12 Q1124.76 1550.12 1122.03 1551.75 Q1119.29 1553.37 1119.29 1557.29 Q1119.29 1560.4 1121.33 1562.25 Q1123.4 1564.07 1126.93 1564.07 Q1131.8 1564.07 1134.73 1560.63 Q1137.69 1557.16 1137.69 1551.43 L1137.69 1550.12 L1131.86 1550.12 M1143.54 1547.71 L1143.54 1568.04 L1137.69 1568.04 L1137.69 1562.63 Q1135.68 1565.88 1132.69 1567.44 Q1129.7 1568.97 1125.37 1568.97 Q1119.89 1568.97 1116.65 1565.91 Q1113.43 1562.82 1113.43 1557.67 Q1113.43 1551.65 1117.44 1548.6 Q1121.49 1545.54 1129.47 1545.54 L1137.69 1545.54 L1137.69 1544.97 Q1137.69 1540.93 1135.01 1538.73 Q1132.37 1536.5 1127.56 1536.5 Q1124.51 1536.5 1121.61 1537.23 Q1118.72 1537.97 1116.04 1539.43 L1116.04 1534.02 Q1119.26 1532.78 1122.28 1532.17 Q1125.31 1531.54 1128.17 1531.54 Q1135.9 1531.54 1139.72 1535.55 Q1143.54 1539.56 1143.54 1547.71 Z" fill="#000000" fill-rule="nonzero" fill-opacity="1" /><path clip-path="url(#clip580)" d="M1155.61 1518.52 L1161.46 1518.52 L1161.46 1568.04 L1155.61 1568.04 L1155.61 1518.52 Z" fill="#000000" fill-rule="nonzero" fill-opacity="1" /><path clip-path="url(#clip580)" d="M1173.72 1518.52 L1179.57 1518.52 L1179.57 1568.04 L1173.72 1568.04 L1173.72 1518.52 Z" fill="#000000" fill-rule="nonzero" fill-opacity="1" /><path clip-path="url(#clip580)" d="M1217.48 1533.76 L1217.48 1539.24 Q1215 1537.87 1212.48 1537.2 Q1210 1536.5 1207.45 1536.5 Q1201.76 1536.5 1198.61 1540.13 Q1195.46 1543.73 1195.46 1550.25 Q1195.46 1556.78 1198.61 1560.4 Q1201.76 1564 1207.45 1564 Q1210 1564 1212.48 1563.33 Q1215 1562.63 1217.48 1561.26 L1217.48 1566.68 Q1215.03 1567.82 1212.39 1568.39 Q1209.78 1568.97 1206.82 1568.97 Q1198.77 1568.97 1194.02 1563.91 Q1189.28 1558.85 1189.28 1550.25 Q1189.28 1541.53 1194.05 1536.53 Q1198.86 1531.54 1207.2 1531.54 Q1209.91 1531.54 1212.48 1532.11 Q1215.06 1532.65 1217.48 1533.76 Z" fill="#000000" fill-rule="nonzero" fill-opacity="1" /><path clip-path="url(#clip580)" d="M1227.67 1518.52 L1233.52 1518.52 L1233.52 1568.04 L1227.67 1568.04 L1227.67 1518.52 Z" fill="#000000" fill-rule="nonzero" fill-opacity="1" /><path clip-path="url(#clip580)" d="M1259.59 1536.5 Q1254.88 1536.5 1252.14 1540.19 Q1249.4 1543.85 1249.4 1550.25 Q1249.4 1556.65 1252.11 1560.34 Q1254.85 1564 1259.59 1564 Q1264.27 1564 1267.01 1560.31 Q1269.74 1556.62 1269.74 1550.25 Q1269.74 1543.92 1267.01 1540.23 Q1264.27 1536.5 1259.59 1536.5 M1259.59 1531.54 Q1267.23 1531.54 1271.59 1536.5 Q1275.95 1541.47 1275.95 1550.25 Q1275.95 1559 1271.59 1564 Q1267.23 1568.97 1259.59 1568.97 Q1251.92 1568.97 1247.56 1564 Q1243.23 1559 1243.23 1550.25 Q1243.23 1541.47 1247.56 1536.5 Q1251.92 1531.54 1259.59 1531.54 Z" fill="#000000" fill-rule="nonzero" fill-opacity="1" /><path clip-path="url(#clip580)" d="M1311.31 1533.76 L1311.31 1539.24 Q1308.83 1537.87 1306.31 1537.2 Q1303.83 1536.5 1301.28 1536.5 Q1295.59 1536.5 1292.44 1540.13 Q1289.29 1543.73 1289.29 1550.25 Q1289.29 1556.78 1292.44 1560.4 Q1295.59 1564 1301.28 1564 Q1303.83 1564 1306.31 1563.33 Q1308.83 1562.63 1311.31 1561.26 L1311.31 1566.68 Q1308.86 1567.82 1306.22 1568.39 Q1303.61 1568.97 1300.65 1568.97 Q1292.6 1568.97 1287.85 1563.91 Q1283.11 1558.85 1283.11 1550.25 Q1283.11 1541.53 1287.89 1536.53 Q1292.69 1531.54 1301.03 1531.54 Q1303.74 1531.54 1306.31 1532.11 Q1308.89 1532.65 1311.31 1533.76 Z" fill="#000000" fill-rule="nonzero" fill-opacity="1" /><path clip-path="url(#clip580)" d="M1321.27 1518.52 L1327.16 1518.52 L1327.16 1547.77 L1344.64 1532.4 L1352.12 1532.4 L1333.21 1549.07 L1352.91 1568.04 L1345.27 1568.04 L1327.16 1550.63 L1327.16 1568.04 L1321.27 1568.04 L1321.27 1518.52 Z" fill="#000000" fill-rule="nonzero" fill-opacity="1" /><path clip-path="url(#clip580)" d="M1373.63 1520.52 L1413.83 1520.52 L1413.83 1525.93 L1396.96 1525.93 L1396.96 1568.04 L1390.5 1568.04 L1390.5 1525.93 L1373.63 1525.93 L1373.63 1520.52 Z" fill="#000000" fill-rule="nonzero" fill-opacity="1" /><path clip-path="url(#clip580)" d="M1417.78 1532.4 L1423.63 1532.4 L1423.63 1568.04 L1417.78 1568.04 L1417.78 1532.4 M1417.78 1518.52 L1423.63 1518.52 L1423.63 1525.93 L1417.78 1525.93 L1417.78 1518.52 Z" fill="#000000" fill-rule="nonzero" fill-opacity="1" /><path clip-path="url(#clip580)" d="M1463.64 1539.24 Q1465.84 1535.29 1468.89 1533.41 Q1471.95 1531.54 1476.09 1531.54 Q1481.66 1531.54 1484.68 1535.45 Q1487.7 1539.33 1487.7 1546.53 L1487.7 1568.04 L1481.82 1568.04 L1481.82 1546.72 Q1481.82 1541.59 1480 1539.11 Q1478.19 1536.63 1474.46 1536.63 Q1469.91 1536.63 1467.27 1539.65 Q1464.63 1542.68 1464.63 1547.9 L1464.63 1568.04 L1458.74 1568.04 L1458.74 1546.72 Q1458.74 1541.56 1456.93 1539.11 Q1455.11 1536.63 1451.32 1536.63 Q1446.84 1536.63 1444.2 1539.68 Q1441.55 1542.71 1441.55 1547.9 L1441.55 1568.04 L1435.67 1568.04 L1435.67 1532.4 L1441.55 1532.4 L1441.55 1537.93 Q1443.56 1534.66 1446.36 1533.1 Q1449.16 1531.54 1453.01 1531.54 Q1456.89 1531.54 1459.6 1533.51 Q1462.34 1535.48 1463.64 1539.24 Z" fill="#000000" fill-rule="nonzero" fill-opacity="1" /><path clip-path="url(#clip580)" d="M1529.88 1548.76 L1529.88 1551.62 L1502.95 1551.62 Q1503.33 1557.67 1506.58 1560.85 Q1509.86 1564 1515.68 1564 Q1519.06 1564 1522.21 1563.17 Q1525.39 1562.35 1528.51 1560.69 L1528.51 1566.23 Q1525.36 1567.57 1522.05 1568.27 Q1518.74 1568.97 1515.33 1568.97 Q1506.8 1568.97 1501.8 1564 Q1496.84 1559.04 1496.84 1550.57 Q1496.84 1541.82 1501.55 1536.69 Q1506.29 1531.54 1514.31 1531.54 Q1521.51 1531.54 1525.68 1536.18 Q1529.88 1540.8 1529.88 1548.76 M1524.02 1547.04 Q1523.96 1542.23 1521.32 1539.37 Q1518.71 1536.5 1514.38 1536.5 Q1509.48 1536.5 1506.52 1539.27 Q1503.59 1542.04 1503.14 1547.07 L1524.02 1547.04 Z" fill="#000000" fill-rule="nonzero" fill-opacity="1" /><path clip-path="url(#clip580)" d="M1574.28 1518.58 Q1570.01 1525.9 1567.94 1533.06 Q1565.88 1540.23 1565.88 1547.58 Q1565.88 1554.93 1567.94 1562.16 Q1570.05 1569.35 1574.28 1576.64 L1569.19 1576.64 Q1564.41 1569.16 1562.02 1561.93 Q1559.67 1554.71 1559.67 1547.58 Q1559.67 1540.48 1562.02 1533.29 Q1564.38 1526.09 1569.19 1518.58 L1574.28 1518.58 Z" fill="#000000" fill-rule="nonzero" fill-opacity="1" /><path clip-path="url(#clip580)" d="M1608.37 1533.45 L1608.37 1538.98 Q1605.88 1537.71 1603.21 1537.07 Q1600.54 1536.44 1597.67 1536.44 Q1593.31 1536.44 1591.12 1537.77 Q1588.95 1539.11 1588.95 1541.79 Q1588.95 1543.82 1590.51 1545 Q1592.07 1546.15 1596.78 1547.2 L1598.79 1547.64 Q1605.02 1548.98 1607.63 1551.43 Q1610.28 1553.85 1610.28 1558.21 Q1610.28 1563.17 1606.33 1566.07 Q1602.41 1568.97 1595.54 1568.97 Q1592.68 1568.97 1589.56 1568.39 Q1586.47 1567.85 1583.03 1566.74 L1583.03 1560.69 Q1586.28 1562.38 1589.43 1563.24 Q1592.58 1564.07 1595.67 1564.07 Q1599.8 1564.07 1602.03 1562.66 Q1604.26 1561.23 1604.26 1558.65 Q1604.26 1556.27 1602.64 1554.99 Q1601.05 1553.72 1595.6 1552.54 L1593.57 1552.07 Q1588.12 1550.92 1585.7 1548.56 Q1583.29 1546.18 1583.29 1542.04 Q1583.29 1537.01 1586.85 1534.27 Q1590.42 1531.54 1596.97 1531.54 Q1600.22 1531.54 1603.08 1532.01 Q1605.95 1532.49 1608.37 1533.45 Z" fill="#000000" fill-rule="nonzero" fill-opacity="1" /><path clip-path="url(#clip580)" d="M1650.09 1548.76 L1650.09 1551.62 L1623.17 1551.62 Q1623.55 1557.67 1626.8 1560.85 Q1630.07 1564 1635.9 1564 Q1639.27 1564 1642.42 1563.17 Q1645.61 1562.35 1648.73 1560.69 L1648.73 1566.23 Q1645.57 1567.57 1642.26 1568.27 Q1638.95 1568.97 1635.55 1568.97 Q1627.02 1568.97 1622.02 1564 Q1617.06 1559.04 1617.06 1550.57 Q1617.06 1541.82 1621.77 1536.69 Q1626.51 1531.54 1634.53 1531.54 Q1641.72 1531.54 1645.89 1536.18 Q1650.09 1540.8 1650.09 1548.76 M1644.24 1547.04 Q1644.17 1542.23 1641.53 1539.37 Q1638.92 1536.5 1634.59 1536.5 Q1629.69 1536.5 1626.73 1539.27 Q1623.8 1542.04 1623.36 1547.07 L1644.24 1547.04 Z" fill="#000000" fill-rule="nonzero" fill-opacity="1" /><path clip-path="url(#clip580)" d="M1685.36 1533.76 L1685.36 1539.24 Q1682.88 1537.87 1680.36 1537.2 Q1677.88 1536.5 1675.33 1536.5 Q1669.64 1536.5 1666.49 1540.13 Q1663.33 1543.73 1663.33 1550.25 Q1663.33 1556.78 1666.49 1560.4 Q1669.64 1564 1675.33 1564 Q1677.88 1564 1680.36 1563.33 Q1682.88 1562.63 1685.36 1561.26 L1685.36 1566.68 Q1682.91 1567.82 1680.27 1568.39 Q1677.66 1568.97 1674.7 1568.97 Q1666.64 1568.97 1661.9 1563.91 Q1657.16 1558.85 1657.16 1550.25 Q1657.16 1541.53 1661.93 1536.53 Q1666.74 1531.54 1675.08 1531.54 Q1677.78 1531.54 1680.36 1532.11 Q1682.94 1532.65 1685.36 1533.76 Z" fill="#000000" fill-rule="nonzero" fill-opacity="1" /><path clip-path="url(#clip580)" d="M1694.62 1518.58 L1699.71 1518.58 Q1704.49 1526.09 1706.84 1533.29 Q1709.23 1540.48 1709.23 1547.58 Q1709.23 1554.71 1706.84 1561.93 Q1704.49 1569.16 1699.71 1576.64 L1694.62 1576.64 Q1698.86 1569.35 1700.92 1562.16 Q1703.02 1554.93 1703.02 1547.58 Q1703.02 1540.23 1700.92 1533.06 Q1698.86 1525.9 1694.62 1518.58 Z" fill="#000000" fill-rule="nonzero" fill-opacity="1" /><polyline clip-path="url(#clip580)" style="stroke:#000000; stroke-linecap:round; stroke-linejoin:round; stroke-width:4; stroke-opacity:1; fill:none" points="407.875,1423.18 407.875,47.2441 "/>
<polyline clip-path="url(#clip580)" style="stroke:#000000; stroke-linecap:round; stroke-linejoin:round; stroke-width:4; stroke-opacity:1; fill:none" points="407.875,1350.6 426.772,1350.6 "/>
<polyline clip-path="url(#clip580)" style="stroke:#000000; stroke-linecap:round; stroke-linejoin:round; stroke-width:4; stroke-opacity:1; fill:none" points="407.875,1091.45 426.772,1091.45 "/>
<polyline clip-path="url(#clip580)" style="stroke:#000000; stroke-linecap:round; stroke-linejoin:round; stroke-width:4; stroke-opacity:1; fill:none" points="407.875,832.301 426.772,832.301 "/>
<polyline clip-path="url(#clip580)" style="stroke:#000000; stroke-linecap:round; stroke-linejoin:round; stroke-width:4; stroke-opacity:1; fill:none" points="407.875,573.152 426.772,573.152 "/>
<polyline clip-path="url(#clip580)" style="stroke:#000000; stroke-linecap:round; stroke-linejoin:round; stroke-width:4; stroke-opacity:1; fill:none" points="407.875,314.003 426.772,314.003 "/>
<polyline clip-path="url(#clip580)" style="stroke:#000000; stroke-linecap:round; stroke-linejoin:round; stroke-width:4; stroke-opacity:1; fill:none" points="407.875,54.8543 426.772,54.8543 "/>
<path clip-path="url(#clip580)" d="M114.26 1357.5 L143.936 1357.5 L143.936 1361.43 L114.26 1361.43 L114.26 1357.5 Z" fill="#000000" fill-rule="nonzero" fill-opacity="1" /><path clip-path="url(#clip580)" d="M168.195 1355.69 Q171.552 1356.41 173.427 1358.68 Q175.325 1360.95 175.325 1364.28 Q175.325 1369.4 171.806 1372.2 Q168.288 1375 161.806 1375 Q159.63 1375 157.315 1374.56 Q155.024 1374.14 152.57 1373.29 L152.57 1368.77 Q154.515 1369.91 156.829 1370.48 Q159.144 1371.06 161.667 1371.06 Q166.065 1371.06 168.357 1369.33 Q170.672 1367.59 170.672 1364.28 Q170.672 1361.23 168.519 1359.51 Q166.39 1357.78 162.57 1357.78 L158.542 1357.78 L158.542 1353.93 L162.755 1353.93 Q166.204 1353.93 168.033 1352.57 Q169.862 1351.18 169.862 1348.59 Q169.862 1345.92 167.964 1344.51 Q166.089 1343.08 162.57 1343.08 Q160.649 1343.08 158.45 1343.49 Q156.251 1343.91 153.612 1344.79 L153.612 1340.62 Q156.274 1339.88 158.589 1339.51 Q160.927 1339.14 162.987 1339.14 Q168.311 1339.14 171.413 1341.57 Q174.514 1343.98 174.514 1348.1 Q174.514 1350.97 172.871 1352.96 Q171.227 1354.93 168.195 1355.69 Z" fill="#000000" fill-rule="nonzero" fill-opacity="1" /><path clip-path="url(#clip580)" d="M184.19 1368.45 L189.075 1368.45 L189.075 1374.33 L184.19 1374.33 L184.19 1368.45 Z" fill="#000000" fill-rule="nonzero" fill-opacity="1" /><path clip-path="url(#clip580)" d="M209.26 1342.85 Q205.649 1342.85 203.82 1346.41 Q202.014 1349.95 202.014 1357.08 Q202.014 1364.19 203.82 1367.75 Q205.649 1371.29 209.26 1371.29 Q212.894 1371.29 214.699 1367.75 Q216.528 1364.19 216.528 1357.08 Q216.528 1349.95 214.699 1346.41 Q212.894 1342.85 209.26 1342.85 M209.26 1339.14 Q215.07 1339.14 218.125 1343.75 Q221.204 1348.33 221.204 1357.08 Q221.204 1365.81 218.125 1370.41 Q215.07 1375 209.26 1375 Q203.449 1375 200.371 1370.41 Q197.315 1365.81 197.315 1357.08 Q197.315 1348.33 200.371 1343.75 Q203.449 1339.14 209.26 1339.14 Z" fill="#000000" fill-rule="nonzero" fill-opacity="1" /><path clip-path="url(#clip580)" d="M239.422 1342.85 Q235.81 1342.85 233.982 1346.41 Q232.176 1349.95 232.176 1357.08 Q232.176 1364.19 233.982 1367.75 Q235.81 1371.29 239.422 1371.29 Q243.056 1371.29 244.861 1367.75 Q246.69 1364.19 246.69 1357.08 Q246.69 1349.95 244.861 1346.41 Q243.056 1342.85 239.422 1342.85 M239.422 1339.14 Q245.232 1339.14 248.287 1343.75 Q251.366 1348.33 251.366 1357.08 Q251.366 1365.81 248.287 1370.41 Q245.232 1375 239.422 1375 Q233.611 1375 230.533 1370.41 Q227.477 1365.81 227.477 1357.08 Q227.477 1348.33 230.533 1343.75 Q233.611 1339.14 239.422 1339.14 Z" fill="#000000" fill-rule="nonzero" fill-opacity="1" /><path clip-path="url(#clip580)" d="M287.755 1348.86 L277.176 1359.49 L287.755 1370.07 L285 1372.87 L274.375 1362.24 L263.75 1372.87 L261.019 1370.07 L271.574 1359.49 L261.019 1348.86 L263.75 1346.06 L274.375 1356.69 L285 1346.06 L287.755 1348.86 Z" fill="#000000" fill-rule="nonzero" fill-opacity="1" /><path clip-path="url(#clip580)" d="M300.116 1370.39 L307.754 1370.39 L307.754 1344.03 L299.444 1345.69 L299.444 1341.43 L307.708 1339.77 L312.384 1339.77 L312.384 1370.39 L320.023 1370.39 L320.023 1374.33 L300.116 1374.33 L300.116 1370.39 Z" fill="#000000" fill-rule="nonzero" fill-opacity="1" /><path clip-path="url(#clip580)" d="M339.467 1342.85 Q335.856 1342.85 334.027 1346.41 Q332.222 1349.95 332.222 1357.08 Q332.222 1364.19 334.027 1367.75 Q335.856 1371.29 339.467 1371.29 Q343.102 1371.29 344.907 1367.75 Q346.736 1364.19 346.736 1357.08 Q346.736 1349.95 344.907 1346.41 Q343.102 1342.85 339.467 1342.85 M339.467 1339.14 Q345.277 1339.14 348.333 1343.75 Q351.412 1348.33 351.412 1357.08 Q351.412 1365.81 348.333 1370.41 Q345.277 1375 339.467 1375 Q333.657 1375 330.578 1370.41 Q327.523 1365.81 327.523 1357.08 Q327.523 1348.33 330.578 1343.75 Q333.657 1339.14 339.467 1339.14 Z" fill="#000000" fill-rule="nonzero" fill-opacity="1" /><path clip-path="url(#clip580)" d="M364.088 1322.15 L354.496 1337.14 L364.088 1337.14 L364.088 1322.15 M363.091 1318.84 L367.868 1318.84 L367.868 1337.14 L371.875 1337.14 L371.875 1340.3 L367.868 1340.3 L367.868 1346.92 L364.088 1346.92 L364.088 1340.3 L351.412 1340.3 L351.412 1336.63 L363.091 1318.84 Z" fill="#000000" fill-rule="nonzero" fill-opacity="1" /><path clip-path="url(#clip580)" d="M114.26 1098.35 L143.936 1098.35 L143.936 1102.28 L114.26 1102.28 L114.26 1098.35 Z" fill="#000000" fill-rule="nonzero" fill-opacity="1" /><path clip-path="url(#clip580)" d="M158.056 1111.24 L174.376 1111.24 L174.376 1115.18 L152.431 1115.18 L152.431 1111.24 Q155.093 1108.49 159.677 1103.86 Q164.283 1099.21 165.464 1097.86 Q167.709 1095.34 168.589 1093.6 Q169.491 1091.84 169.491 1090.15 Q169.491 1087.4 167.547 1085.66 Q165.626 1083.93 162.524 1083.93 Q160.325 1083.93 157.871 1084.69 Q155.44 1085.46 152.663 1087.01 L152.663 1082.28 Q155.487 1081.15 157.94 1080.57 Q160.394 1079.99 162.431 1079.99 Q167.802 1079.99 170.996 1082.68 Q174.19 1085.36 174.19 1089.85 Q174.19 1091.98 173.38 1093.9 Q172.593 1095.8 170.487 1098.4 Q169.908 1099.07 166.806 1102.28 Q163.704 1105.48 158.056 1111.24 Z" fill="#000000" fill-rule="nonzero" fill-opacity="1" /><path clip-path="url(#clip580)" d="M184.19 1109.3 L189.075 1109.3 L189.075 1115.18 L184.19 1115.18 L184.19 1109.3 Z" fill="#000000" fill-rule="nonzero" fill-opacity="1" /><path clip-path="url(#clip580)" d="M199.306 1080.62 L217.662 1080.62 L217.662 1084.55 L203.588 1084.55 L203.588 1093.03 Q204.607 1092.68 205.625 1092.52 Q206.644 1092.33 207.662 1092.33 Q213.449 1092.33 216.829 1095.5 Q220.209 1098.67 220.209 1104.09 Q220.209 1109.67 216.736 1112.77 Q213.264 1115.85 206.945 1115.85 Q204.769 1115.85 202.5 1115.48 Q200.255 1115.11 197.848 1114.37 L197.848 1109.67 Q199.931 1110.8 202.153 1111.36 Q204.375 1111.91 206.852 1111.91 Q210.857 1111.91 213.195 1109.81 Q215.533 1107.7 215.533 1104.09 Q215.533 1100.48 213.195 1098.37 Q210.857 1096.27 206.852 1096.27 Q204.977 1096.27 203.102 1096.68 Q201.25 1097.1 199.306 1097.98 L199.306 1080.62 Z" fill="#000000" fill-rule="nonzero" fill-opacity="1" /><path clip-path="url(#clip580)" d="M239.422 1083.7 Q235.81 1083.7 233.982 1087.26 Q232.176 1090.8 232.176 1097.93 Q232.176 1105.04 233.982 1108.6 Q235.81 1112.15 239.422 1112.15 Q243.056 1112.15 244.861 1108.6 Q246.69 1105.04 246.69 1097.93 Q246.69 1090.8 244.861 1087.26 Q243.056 1083.7 239.422 1083.7 M239.422 1079.99 Q245.232 1079.99 248.287 1084.6 Q251.366 1089.18 251.366 1097.93 Q251.366 1106.66 248.287 1111.27 Q245.232 1115.85 239.422 1115.85 Q233.611 1115.85 230.533 1111.27 Q227.477 1106.66 227.477 1097.93 Q227.477 1089.18 230.533 1084.6 Q233.611 1079.99 239.422 1079.99 Z" fill="#000000" fill-rule="nonzero" fill-opacity="1" /><path clip-path="url(#clip580)" d="M287.755 1089.72 L277.176 1100.34 L287.755 1110.92 L285 1113.72 L274.375 1103.09 L263.75 1113.72 L261.019 1110.92 L271.574 1100.34 L261.019 1089.72 L263.75 1086.91 L274.375 1097.54 L285 1086.91 L287.755 1089.72 Z" fill="#000000" fill-rule="nonzero" fill-opacity="1" /><path clip-path="url(#clip580)" d="M300.116 1111.24 L307.754 1111.24 L307.754 1084.88 L299.444 1086.54 L299.444 1082.28 L307.708 1080.62 L312.384 1080.62 L312.384 1111.24 L320.023 1111.24 L320.023 1115.18 L300.116 1115.18 L300.116 1111.24 Z" fill="#000000" fill-rule="nonzero" fill-opacity="1" /><path clip-path="url(#clip580)" d="M339.467 1083.7 Q335.856 1083.7 334.027 1087.26 Q332.222 1090.8 332.222 1097.93 Q332.222 1105.04 334.027 1108.6 Q335.856 1112.15 339.467 1112.15 Q343.102 1112.15 344.907 1108.6 Q346.736 1105.04 346.736 1097.93 Q346.736 1090.8 344.907 1087.26 Q343.102 1083.7 339.467 1083.7 M339.467 1079.99 Q345.277 1079.99 348.333 1084.6 Q351.412 1089.18 351.412 1097.93 Q351.412 1106.66 348.333 1111.27 Q345.277 1115.85 339.467 1115.85 Q333.657 1115.85 330.578 1111.27 Q327.523 1106.66 327.523 1097.93 Q327.523 1089.18 330.578 1084.6 Q333.657 1079.99 339.467 1079.99 Z" fill="#000000" fill-rule="nonzero" fill-opacity="1" /><path clip-path="url(#clip580)" d="M364.088 1063 L354.496 1077.99 L364.088 1077.99 L364.088 1063 M363.091 1059.69 L367.868 1059.69 L367.868 1077.99 L371.875 1077.99 L371.875 1081.15 L367.868 1081.15 L367.868 1087.77 L364.088 1087.77 L364.088 1081.15 L351.412 1081.15 L351.412 1077.48 L363.091 1059.69 Z" fill="#000000" fill-rule="nonzero" fill-opacity="1" /><path clip-path="url(#clip580)" d="M114.26 839.2 L143.936 839.2 L143.936 843.135 L114.26 843.135 L114.26 839.2 Z" fill="#000000" fill-rule="nonzero" fill-opacity="1" /><path clip-path="url(#clip580)" d="M158.056 852.094 L174.376 852.094 L174.376 856.029 L152.431 856.029 L152.431 852.094 Q155.093 849.339 159.677 844.709 Q164.283 840.057 165.464 838.714 Q167.709 836.191 168.589 834.455 Q169.491 832.696 169.491 831.006 Q169.491 828.251 167.547 826.515 Q165.626 824.779 162.524 824.779 Q160.325 824.779 157.871 825.543 Q155.44 826.307 152.663 827.858 L152.663 823.136 Q155.487 822.001 157.94 821.423 Q160.394 820.844 162.431 820.844 Q167.802 820.844 170.996 823.529 Q174.19 826.214 174.19 830.705 Q174.19 832.835 173.38 834.756 Q172.593 836.654 170.487 839.247 Q169.908 839.918 166.806 843.135 Q163.704 846.33 158.056 852.094 Z" fill="#000000" fill-rule="nonzero" fill-opacity="1" /><path clip-path="url(#clip580)" d="M184.19 850.149 L189.075 850.149 L189.075 856.029 L184.19 856.029 L184.19 850.149 Z" fill="#000000" fill-rule="nonzero" fill-opacity="1" /><path clip-path="url(#clip580)" d="M209.26 824.548 Q205.649 824.548 203.82 828.112 Q202.014 831.654 202.014 838.784 Q202.014 845.89 203.82 849.455 Q205.649 852.996 209.26 852.996 Q212.894 852.996 214.699 849.455 Q216.528 845.89 216.528 838.784 Q216.528 831.654 214.699 828.112 Q212.894 824.548 209.26 824.548 M209.26 820.844 Q215.07 820.844 218.125 825.45 Q221.204 830.034 221.204 838.784 Q221.204 847.51 218.125 852.117 Q215.07 856.7 209.26 856.7 Q203.449 856.7 200.371 852.117 Q197.315 847.51 197.315 838.784 Q197.315 830.034 200.371 825.45 Q203.449 820.844 209.26 820.844 Z" fill="#000000" fill-rule="nonzero" fill-opacity="1" /><path clip-path="url(#clip580)" d="M239.422 824.548 Q235.81 824.548 233.982 828.112 Q232.176 831.654 232.176 838.784 Q232.176 845.89 233.982 849.455 Q235.81 852.996 239.422 852.996 Q243.056 852.996 244.861 849.455 Q246.69 845.89 246.69 838.784 Q246.69 831.654 244.861 828.112 Q243.056 824.548 239.422 824.548 M239.422 820.844 Q245.232 820.844 248.287 825.45 Q251.366 830.034 251.366 838.784 Q251.366 847.51 248.287 852.117 Q245.232 856.7 239.422 856.7 Q233.611 856.7 230.533 852.117 Q227.477 847.51 227.477 838.784 Q227.477 830.034 230.533 825.45 Q233.611 820.844 239.422 820.844 Z" fill="#000000" fill-rule="nonzero" fill-opacity="1" /><path clip-path="url(#clip580)" d="M287.755 830.566 L277.176 841.191 L287.755 851.77 L285 854.571 L274.375 843.946 L263.75 854.571 L261.019 851.77 L271.574 841.191 L261.019 830.566 L263.75 827.765 L274.375 838.39 L285 827.765 L287.755 830.566 Z" fill="#000000" fill-rule="nonzero" fill-opacity="1" /><path clip-path="url(#clip580)" d="M300.116 852.094 L307.754 852.094 L307.754 825.728 L299.444 827.395 L299.444 823.136 L307.708 821.469 L312.384 821.469 L312.384 852.094 L320.023 852.094 L320.023 856.029 L300.116 856.029 L300.116 852.094 Z" fill="#000000" fill-rule="nonzero" fill-opacity="1" /><path clip-path="url(#clip580)" d="M339.467 824.548 Q335.856 824.548 334.027 828.112 Q332.222 831.654 332.222 838.784 Q332.222 845.89 334.027 849.455 Q335.856 852.996 339.467 852.996 Q343.102 852.996 344.907 849.455 Q346.736 845.89 346.736 838.784 Q346.736 831.654 344.907 828.112 Q343.102 824.548 339.467 824.548 M339.467 820.844 Q345.277 820.844 348.333 825.45 Q351.412 830.034 351.412 838.784 Q351.412 847.51 348.333 852.117 Q345.277 856.7 339.467 856.7 Q333.657 856.7 330.578 852.117 Q327.523 847.51 327.523 838.784 Q327.523 830.034 330.578 825.45 Q333.657 820.844 339.467 820.844 Z" fill="#000000" fill-rule="nonzero" fill-opacity="1" /><path clip-path="url(#clip580)" d="M364.088 803.849 L354.496 818.838 L364.088 818.838 L364.088 803.849 M363.091 800.538 L367.868 800.538 L367.868 818.838 L371.875 818.838 L371.875 821.998 L367.868 821.998 L367.868 828.618 L364.088 828.618 L364.088 821.998 L351.412 821.998 L351.412 818.331 L363.091 800.538 Z" fill="#000000" fill-rule="nonzero" fill-opacity="1" /><path clip-path="url(#clip580)" d="M114.26 580.051 L143.936 580.051 L143.936 583.986 L114.26 583.986 L114.26 580.051 Z" fill="#000000" fill-rule="nonzero" fill-opacity="1" /><path clip-path="url(#clip580)" d="M154.839 592.945 L162.477 592.945 L162.477 566.579 L154.167 568.246 L154.167 563.987 L162.431 562.32 L167.107 562.32 L167.107 592.945 L174.746 592.945 L174.746 596.88 L154.839 596.88 L154.839 592.945 Z" fill="#000000" fill-rule="nonzero" fill-opacity="1" /><path clip-path="url(#clip580)" d="M184.19 591 L189.075 591 L189.075 596.88 L184.19 596.88 L184.19 591 Z" fill="#000000" fill-rule="nonzero" fill-opacity="1" /><path clip-path="url(#clip580)" d="M199.306 562.32 L217.662 562.32 L217.662 566.255 L203.588 566.255 L203.588 574.727 Q204.607 574.38 205.625 574.218 Q206.644 574.033 207.662 574.033 Q213.449 574.033 216.829 577.204 Q220.209 580.375 220.209 585.792 Q220.209 591.371 216.736 594.472 Q213.264 597.551 206.945 597.551 Q204.769 597.551 202.5 597.181 Q200.255 596.81 197.848 596.07 L197.848 591.371 Q199.931 592.505 202.153 593.06 Q204.375 593.616 206.852 593.616 Q210.857 593.616 213.195 591.51 Q215.533 589.403 215.533 585.792 Q215.533 582.181 213.195 580.074 Q210.857 577.968 206.852 577.968 Q204.977 577.968 203.102 578.385 Q201.25 578.801 199.306 579.681 L199.306 562.32 Z" fill="#000000" fill-rule="nonzero" fill-opacity="1" /><path clip-path="url(#clip580)" d="M239.422 565.399 Q235.81 565.399 233.982 568.963 Q232.176 572.505 232.176 579.635 Q232.176 586.741 233.982 590.306 Q235.81 593.847 239.422 593.847 Q243.056 593.847 244.861 590.306 Q246.69 586.741 246.69 579.635 Q246.69 572.505 244.861 568.963 Q243.056 565.399 239.422 565.399 M239.422 561.695 Q245.232 561.695 248.287 566.301 Q251.366 570.885 251.366 579.635 Q251.366 588.361 248.287 592.968 Q245.232 597.551 239.422 597.551 Q233.611 597.551 230.533 592.968 Q227.477 588.361 227.477 579.635 Q227.477 570.885 230.533 566.301 Q233.611 561.695 239.422 561.695 Z" fill="#000000" fill-rule="nonzero" fill-opacity="1" /><path clip-path="url(#clip580)" d="M287.755 571.417 L277.176 582.042 L287.755 592.621 L285 595.422 L274.375 584.797 L263.75 595.422 L261.019 592.621 L271.574 582.042 L261.019 571.417 L263.75 568.616 L274.375 579.241 L285 568.616 L287.755 571.417 Z" fill="#000000" fill-rule="nonzero" fill-opacity="1" /><path clip-path="url(#clip580)" d="M300.116 592.945 L307.754 592.945 L307.754 566.579 L299.444 568.246 L299.444 563.987 L307.708 562.32 L312.384 562.32 L312.384 592.945 L320.023 592.945 L320.023 596.88 L300.116 596.88 L300.116 592.945 Z" fill="#000000" fill-rule="nonzero" fill-opacity="1" /><path clip-path="url(#clip580)" d="M339.467 565.399 Q335.856 565.399 334.027 568.963 Q332.222 572.505 332.222 579.635 Q332.222 586.741 334.027 590.306 Q335.856 593.847 339.467 593.847 Q343.102 593.847 344.907 590.306 Q346.736 586.741 346.736 579.635 Q346.736 572.505 344.907 568.963 Q343.102 565.399 339.467 565.399 M339.467 561.695 Q345.277 561.695 348.333 566.301 Q351.412 570.885 351.412 579.635 Q351.412 588.361 348.333 592.968 Q345.277 597.551 339.467 597.551 Q333.657 597.551 330.578 592.968 Q327.523 588.361 327.523 579.635 Q327.523 570.885 330.578 566.301 Q333.657 561.695 339.467 561.695 Z" fill="#000000" fill-rule="nonzero" fill-opacity="1" /><path clip-path="url(#clip580)" d="M364.088 544.7 L354.496 559.689 L364.088 559.689 L364.088 544.7 M363.091 541.389 L367.868 541.389 L367.868 559.689 L371.875 559.689 L371.875 562.849 L367.868 562.849 L367.868 569.469 L364.088 569.469 L364.088 562.849 L351.412 562.849 L351.412 559.182 L363.091 541.389 Z" fill="#000000" fill-rule="nonzero" fill-opacity="1" /><path clip-path="url(#clip580)" d="M114.26 320.902 L143.936 320.902 L143.936 324.837 L114.26 324.837 L114.26 320.902 Z" fill="#000000" fill-rule="nonzero" fill-opacity="1" /><path clip-path="url(#clip580)" d="M154.839 333.796 L162.477 333.796 L162.477 307.43 L154.167 309.097 L154.167 304.838 L162.431 303.171 L167.107 303.171 L167.107 333.796 L174.746 333.796 L174.746 337.731 L154.839 337.731 L154.839 333.796 Z" fill="#000000" fill-rule="nonzero" fill-opacity="1" /><path clip-path="url(#clip580)" d="M184.19 331.851 L189.075 331.851 L189.075 337.731 L184.19 337.731 L184.19 331.851 Z" fill="#000000" fill-rule="nonzero" fill-opacity="1" /><path clip-path="url(#clip580)" d="M209.26 306.25 Q205.649 306.25 203.82 309.814 Q202.014 313.356 202.014 320.486 Q202.014 327.592 203.82 331.157 Q205.649 334.699 209.26 334.699 Q212.894 334.699 214.699 331.157 Q216.528 327.592 216.528 320.486 Q216.528 313.356 214.699 309.814 Q212.894 306.25 209.26 306.25 M209.26 302.546 Q215.07 302.546 218.125 307.152 Q221.204 311.736 221.204 320.486 Q221.204 329.212 218.125 333.819 Q215.07 338.402 209.26 338.402 Q203.449 338.402 200.371 333.819 Q197.315 329.212 197.315 320.486 Q197.315 311.736 200.371 307.152 Q203.449 302.546 209.26 302.546 Z" fill="#000000" fill-rule="nonzero" fill-opacity="1" /><path clip-path="url(#clip580)" d="M239.422 306.25 Q235.81 306.25 233.982 309.814 Q232.176 313.356 232.176 320.486 Q232.176 327.592 233.982 331.157 Q235.81 334.699 239.422 334.699 Q243.056 334.699 244.861 331.157 Q246.69 327.592 246.69 320.486 Q246.69 313.356 244.861 309.814 Q243.056 306.25 239.422 306.25 M239.422 302.546 Q245.232 302.546 248.287 307.152 Q251.366 311.736 251.366 320.486 Q251.366 329.212 248.287 333.819 Q245.232 338.402 239.422 338.402 Q233.611 338.402 230.533 333.819 Q227.477 329.212 227.477 320.486 Q227.477 311.736 230.533 307.152 Q233.611 302.546 239.422 302.546 Z" fill="#000000" fill-rule="nonzero" fill-opacity="1" /><path clip-path="url(#clip580)" d="M287.755 312.268 L277.176 322.893 L287.755 333.472 L285 336.273 L274.375 325.648 L263.75 336.273 L261.019 333.472 L271.574 322.893 L261.019 312.268 L263.75 309.467 L274.375 320.092 L285 309.467 L287.755 312.268 Z" fill="#000000" fill-rule="nonzero" fill-opacity="1" /><path clip-path="url(#clip580)" d="M300.116 333.796 L307.754 333.796 L307.754 307.43 L299.444 309.097 L299.444 304.838 L307.708 303.171 L312.384 303.171 L312.384 333.796 L320.023 333.796 L320.023 337.731 L300.116 337.731 L300.116 333.796 Z" fill="#000000" fill-rule="nonzero" fill-opacity="1" /><path clip-path="url(#clip580)" d="M339.467 306.25 Q335.856 306.25 334.027 309.814 Q332.222 313.356 332.222 320.486 Q332.222 327.592 334.027 331.157 Q335.856 334.699 339.467 334.699 Q343.102 334.699 344.907 331.157 Q346.736 327.592 346.736 320.486 Q346.736 313.356 344.907 309.814 Q343.102 306.25 339.467 306.25 M339.467 302.546 Q345.277 302.546 348.333 307.152 Q351.412 311.736 351.412 320.486 Q351.412 329.212 348.333 333.819 Q345.277 338.402 339.467 338.402 Q333.657 338.402 330.578 333.819 Q327.523 329.212 327.523 320.486 Q327.523 311.736 330.578 307.152 Q333.657 302.546 339.467 302.546 Z" fill="#000000" fill-rule="nonzero" fill-opacity="1" /><path clip-path="url(#clip580)" d="M364.088 285.551 L354.496 300.54 L364.088 300.54 L364.088 285.551 M363.091 282.241 L367.868 282.241 L367.868 300.54 L371.875 300.54 L371.875 303.7 L367.868 303.7 L367.868 310.321 L364.088 310.321 L364.088 303.7 L351.412 303.7 L351.412 300.033 L363.091 282.241 Z" fill="#000000" fill-rule="nonzero" fill-opacity="1" /><path clip-path="url(#clip580)" d="M116.235 61.7533 L145.911 61.7533 L145.911 65.6885 L116.235 65.6885 L116.235 61.7533 Z" fill="#000000" fill-rule="nonzero" fill-opacity="1" /><path clip-path="url(#clip580)" d="M156.05 44.0219 L174.406 44.0219 L174.406 47.9571 L160.332 47.9571 L160.332 56.4293 Q161.35 56.082 162.369 55.92 Q163.387 55.7348 164.406 55.7348 Q170.193 55.7348 173.573 58.9061 Q176.952 62.0774 176.952 67.494 Q176.952 73.0727 173.48 76.1745 Q170.008 79.2532 163.688 79.2532 Q161.513 79.2532 159.244 78.8828 Q156.999 78.5125 154.591 77.7717 L154.591 73.0727 Q156.675 74.2069 158.897 74.7625 Q161.119 75.318 163.596 75.318 Q167.6 75.318 169.938 73.2116 Q172.276 71.1051 172.276 67.494 Q172.276 63.8829 169.938 61.7764 Q167.6 59.67 163.596 59.67 Q161.721 59.67 159.846 60.0866 Q157.994 60.5033 156.05 61.3829 L156.05 44.0219 Z" fill="#000000" fill-rule="nonzero" fill-opacity="1" /><path clip-path="url(#clip580)" d="M186.165 72.7023 L191.049 72.7023 L191.049 78.5819 L186.165 78.5819 L186.165 72.7023 Z" fill="#000000" fill-rule="nonzero" fill-opacity="1" /><path clip-path="url(#clip580)" d="M211.234 47.1006 Q207.623 47.1006 205.795 50.6654 Q203.989 54.207 203.989 61.3366 Q203.989 68.4431 205.795 72.0079 Q207.623 75.5495 211.234 75.5495 Q214.869 75.5495 216.674 72.0079 Q218.503 68.4431 218.503 61.3366 Q218.503 54.207 216.674 50.6654 Q214.869 47.1006 211.234 47.1006 M211.234 43.3969 Q217.045 43.3969 220.1 48.0034 Q223.179 52.5867 223.179 61.3366 Q223.179 70.0634 220.1 74.6699 Q217.045 79.2532 211.234 79.2532 Q205.424 79.2532 202.346 74.6699 Q199.29 70.0634 199.29 61.3366 Q199.29 52.5867 202.346 48.0034 Q205.424 43.3969 211.234 43.3969 Z" fill="#000000" fill-rule="nonzero" fill-opacity="1" /><path clip-path="url(#clip580)" d="M241.396 47.1006 Q237.785 47.1006 235.957 50.6654 Q234.151 54.207 234.151 61.3366 Q234.151 68.4431 235.957 72.0079 Q237.785 75.5495 241.396 75.5495 Q245.031 75.5495 246.836 72.0079 Q248.665 68.4431 248.665 61.3366 Q248.665 54.207 246.836 50.6654 Q245.031 47.1006 241.396 47.1006 M241.396 43.3969 Q247.206 43.3969 250.262 48.0034 Q253.341 52.5867 253.341 61.3366 Q253.341 70.0634 250.262 74.6699 Q247.206 79.2532 241.396 79.2532 Q235.586 79.2532 232.507 74.6699 Q229.452 70.0634 229.452 61.3366 Q229.452 52.5867 232.507 48.0034 Q235.586 43.3969 241.396 43.3969 Z" fill="#000000" fill-rule="nonzero" fill-opacity="1" /><path clip-path="url(#clip580)" d="M289.729 53.1191 L279.151 63.744 L289.729 74.3227 L286.975 77.1236 L276.35 66.4986 L265.725 77.1236 L262.993 74.3227 L273.549 63.744 L262.993 53.1191 L265.725 50.3182 L276.35 60.9431 L286.975 50.3182 L289.729 53.1191 Z" fill="#000000" fill-rule="nonzero" fill-opacity="1" /><path clip-path="url(#clip580)" d="M302.09 74.6467 L309.729 74.6467 L309.729 48.2811 L301.419 49.9478 L301.419 45.6886 L309.683 44.0219 L314.359 44.0219 L314.359 74.6467 L321.998 74.6467 L321.998 78.5819 L302.09 78.5819 L302.09 74.6467 Z" fill="#000000" fill-rule="nonzero" fill-opacity="1" /><path clip-path="url(#clip580)" d="M341.442 47.1006 Q337.831 47.1006 336.002 50.6654 Q334.197 54.207 334.197 61.3366 Q334.197 68.4431 336.002 72.0079 Q337.831 75.5495 341.442 75.5495 Q345.076 75.5495 346.882 72.0079 Q348.711 68.4431 348.711 61.3366 Q348.711 54.207 346.882 50.6654 Q345.076 47.1006 341.442 47.1006 M341.442 43.3969 Q347.252 43.3969 350.308 48.0034 Q353.386 52.5867 353.386 61.3366 Q353.386 70.0634 350.308 74.6699 Q347.252 79.2532 341.442 79.2532 Q335.632 79.2532 332.553 74.6699 Q329.498 70.0634 329.498 61.3366 Q329.498 52.5867 332.553 48.0034 Q335.632 43.3969 341.442 43.3969 Z" fill="#000000" fill-rule="nonzero" fill-opacity="1" /><path clip-path="url(#clip580)" d="M366.082 36.0313 Q368.809 36.6143 370.332 38.4575 Q371.875 40.3006 371.875 43.0089 Q371.875 47.1655 369.016 49.4412 Q366.157 51.7169 360.891 51.7169 Q359.123 51.7169 357.242 51.3596 Q355.38 51.0211 353.386 50.3252 L353.386 46.6576 Q354.966 47.5792 356.847 48.0494 Q358.728 48.5196 360.778 48.5196 Q364.351 48.5196 366.213 47.109 Q368.094 45.6985 368.094 43.0089 Q368.094 40.5263 366.345 39.1345 Q364.615 37.724 361.511 37.724 L358.239 37.724 L358.239 34.6019 L361.662 34.6019 Q364.464 34.6019 365.95 33.4922 Q367.436 32.3637 367.436 30.2573 Q367.436 28.0944 365.894 26.9471 Q364.37 25.781 361.511 25.781 Q359.95 25.781 358.164 26.1196 Q356.377 26.4581 354.233 27.1728 L354.233 23.7874 Q356.396 23.1856 358.277 22.8846 Q360.176 22.5837 361.85 22.5837 Q366.176 22.5837 368.696 24.5585 Q371.216 26.5145 371.216 29.8623 Q371.216 32.1945 369.881 33.8119 Q368.546 35.4106 366.082 36.0313 Z" fill="#000000" fill-rule="nonzero" fill-opacity="1" /><path clip-path="url(#clip580)" d="M16.4842 816.375 L16.4842 786.329 L21.895 786.329 L21.895 809.945 L35.9632 809.945 L35.9632 787.315 L41.3741 787.315 L41.3741 809.945 L58.5933 809.945 L58.5933 785.756 L64.0042 785.756 L64.0042 816.375 L16.4842 816.375 Z" fill="#000000" fill-rule="nonzero" fill-opacity="1" /><path clip-path="url(#clip580)" d="M16.4842 775.189 L16.4842 768.759 L58.5933 768.759 L58.5933 745.62 L64.0042 745.62 L64.0042 775.189 L16.4842 775.189 Z" fill="#000000" fill-rule="nonzero" fill-opacity="1" /><path clip-path="url(#clip580)" d="M41.3104 732.443 L58.7206 732.443 L58.7206 722.13 Q58.7206 716.942 56.5881 714.46 Q54.4238 711.945 49.9996 711.945 Q45.5436 711.945 43.4429 714.46 Q41.3104 716.942 41.3104 722.13 L41.3104 732.443 M21.7677 732.443 L36.0905 732.443 L36.0905 722.926 Q36.0905 718.216 34.34 715.924 Q32.5576 713.6 28.9291 713.6 Q25.3325 713.6 23.5501 715.924 Q21.7677 718.216 21.7677 722.926 L21.7677 732.443 M16.4842 738.872 L16.4842 722.449 Q16.4842 715.096 19.5397 711.118 Q22.5952 707.139 28.2289 707.139 Q32.5894 707.139 35.1675 709.176 Q37.7456 711.213 38.3822 715.16 Q39.4007 710.418 42.6472 707.808 Q45.8619 705.166 50.6998 705.166 Q57.0655 705.166 60.5348 709.495 Q64.0042 713.823 64.0042 721.812 L64.0042 738.872 L16.4842 738.872 Z" fill="#000000" fill-rule="nonzero" fill-opacity="1" /><path clip-path="url(#clip580)" d="M20.8447 676.011 Q20.8447 683.013 26.0645 687.151 Q31.2844 691.257 40.2919 691.257 Q49.2675 691.257 54.4874 687.151 Q59.7073 683.013 59.7073 676.011 Q59.7073 669.009 54.4874 664.935 Q49.2675 660.829 40.2919 660.829 Q31.2844 660.829 26.0645 664.935 Q20.8447 669.009 20.8447 676.011 M15.6248 676.011 Q15.6248 666.017 22.3406 660.033 Q29.0246 654.049 40.2919 654.049 Q51.5274 654.049 58.2432 660.033 Q64.9272 666.017 64.9272 676.011 Q64.9272 686.037 58.2432 692.052 Q51.5592 698.036 40.2919 698.036 Q29.0246 698.036 22.3406 692.052 Q15.6248 686.037 15.6248 676.011 Z" fill="#000000" fill-rule="nonzero" fill-opacity="1" /><polyline clip-path="url(#clip582)" style="stroke:#009af9; stroke-linecap:round; stroke-linejoin:round; stroke-width:4; stroke-opacity:1; fill:none" points="511.047,1384.24 576.974,745.725 635.016,564.679 694.237,375.223 752.357,239.495 809.499,214.128 867.741,175.522 925.179,161.879 983.956,146.007 1045.4,139.33 1106.33,131.779 1164.18,130.881 1220.46,124.724 1277.77,124.364 1335.14,119.388 1391.45,121.157 1447.17,118.497 1503.36,118.315 1559.39,117.63 1616.24,114.977 1672.65,107.207 1728.59,105.462 1784.34,104.941 1844.16,101.683 1900.12,101.341 1956.15,99.861 2012.37,97.094 2069.08,96.5267 2125.39,94.5253 2182.68,92.2822 2240.94,90.5812 2297.71,86.1857 "/>
<polyline clip-path="url(#clip582)" style="stroke:#e26f46; stroke-linecap:round; stroke-linejoin:round; stroke-width:4; stroke-opacity:1; fill:none" points="462.918,1326.34 490.478,863.347 501.417,414.572 512.115,296.96 525.982,247.566 537.044,211.018 547.819,181.771 558.334,158.66 569.042,153.28 579.473,146.969 589.895,141.373 600.631,138.923 611.065,131.452 621.699,129.91 632.129,124.286 642.452,123.937 653.135,120.355 663.597,121.738 674.002,128.815 684.65,121.237 695.097,116.928 705.809,113.323 716.181,110.008 726.488,105.477 737.21,101.965 747.648,100.155 758.118,98.517 768.807,95.9343 779.154,94.2303 789.84,91.2737 800.152,91.6076 810.473,91.4719 "/>
<path clip-path="url(#clip580)" d="M2041.01 1377.32 L2287.93 1377.32 L2287.93 1221.8 L2041.01 1221.8  Z" fill="#ffffff" fill-rule="evenodd" fill-opacity="1"/>
<polyline clip-path="url(#clip580)" style="stroke:#000000; stroke-linecap:round; stroke-linejoin:round; stroke-width:4; stroke-opacity:1; fill:none" points="2041.01,1377.32 2287.93,1377.32 2287.93,1221.8 2041.01,1221.8 2041.01,1377.32 "/>
<polyline clip-path="url(#clip580)" style="stroke:#009af9; stroke-linecap:round; stroke-linejoin:round; stroke-width:4; stroke-opacity:1; fill:none" points="2062.62,1273.64 2192.28,1273.64 "/>
<path clip-path="url(#clip580)" d="M2227.73 1293.32 Q2225.92 1297.95 2224.21 1299.36 Q2222.5 1300.78 2219.63 1300.78 L2216.22 1300.78 L2216.22 1297.21 L2218.72 1297.21 Q2220.48 1297.21 2221.46 1296.38 Q2222.43 1295.54 2223.61 1292.44 L2224.37 1290.5 L2213.89 1264.99 L2218.4 1264.99 L2226.5 1285.27 L2234.6 1264.99 L2239.12 1264.99 L2227.73 1293.32 Z" fill="#000000" fill-rule="nonzero" fill-opacity="1" /><path clip-path="url(#clip580)" d="M2246.41 1286.98 L2254.05 1286.98 L2254.05 1260.61 L2245.74 1262.28 L2245.74 1258.02 L2254 1256.36 L2258.68 1256.36 L2258.68 1286.98 L2266.32 1286.98 L2266.32 1290.92 L2246.41 1290.92 L2246.41 1286.98 Z" fill="#000000" fill-rule="nonzero" fill-opacity="1" /><polyline clip-path="url(#clip580)" style="stroke:#e26f46; stroke-linecap:round; stroke-linejoin:round; stroke-width:4; stroke-opacity:1; fill:none" points="2062.62,1325.48 2192.28,1325.48 "/>
<path clip-path="url(#clip580)" d="M2227.73 1345.16 Q2225.92 1349.79 2224.21 1351.2 Q2222.5 1352.62 2219.63 1352.62 L2216.22 1352.62 L2216.22 1349.05 L2218.72 1349.05 Q2220.48 1349.05 2221.46 1348.22 Q2222.43 1347.38 2223.61 1344.28 L2224.37 1342.34 L2213.89 1316.83 L2218.4 1316.83 L2226.5 1337.11 L2234.6 1316.83 L2239.12 1316.83 L2227.73 1345.16 Z" fill="#000000" fill-rule="nonzero" fill-opacity="1" /><path clip-path="url(#clip580)" d="M2249.63 1338.82 L2265.95 1338.82 L2265.95 1342.76 L2244 1342.76 L2244 1338.82 Q2246.66 1336.07 2251.25 1331.44 Q2255.85 1326.78 2257.03 1325.44 Q2259.28 1322.92 2260.16 1321.18 Q2261.06 1319.42 2261.06 1317.73 Q2261.06 1314.98 2259.12 1313.24 Q2257.2 1311.51 2254.09 1311.51 Q2251.9 1311.51 2249.44 1312.27 Q2247.01 1313.03 2244.23 1314.58 L2244.23 1309.86 Q2247.06 1308.73 2249.51 1308.15 Q2251.96 1307.57 2254 1307.57 Q2259.37 1307.57 2262.57 1310.26 Q2265.76 1312.94 2265.76 1317.43 Q2265.76 1319.56 2264.95 1321.48 Q2264.16 1323.38 2262.06 1325.97 Q2261.48 1326.64 2258.38 1329.86 Q2255.28 1333.06 2249.63 1338.82 Z" fill="#000000" fill-rule="nonzero" fill-opacity="1" /></svg>
