<?xml version="1.0" encoding="utf-8"?>
<svg xmlns="http://www.w3.org/2000/svg" xmlns:xlink="http://www.w3.org/1999/xlink" width="600" height="400" viewBox="0 0 2400 1600">
<defs>
  <clipPath id="clip520">
    <rect x="0" y="0" width="2400" height="1600"/>
  </clipPath>
</defs>
<path clip-path="url(#clip520)" d="M0 1600 L2400 1600 L2400 0 L0 0  Z" fill="#ffffff" fill-rule="evenodd" fill-opacity="1"/>
<defs>
  <clipPath id="clip521">
    <rect x="480" y="0" width="1681" height="1600"/>
  </clipPath>
</defs>
<path clip-path="url(#clip520)" d="M302.458 1423.18 L2352.76 1423.18 L2352.76 47.2441 L302.458 47.2441  Z" fill="#ffffff" fill-rule="evenodd" fill-opacity="1"/>
<defs>
  <clipPath id="clip522">
    <rect x="302" y="47" width="2051" height="1377"/>
  </clipPath>
</defs>
<polyline clip-path="url(#clip522)" style="stroke:#000000; stroke-linecap:round; stroke-linejoin:round; stroke-width:2; stroke-opacity:0.1; fill:none" points="327.008,1423.18 327.008,47.2441 "/>
<polyline clip-path="url(#clip522)" style="stroke:#000000; stroke-linecap:round; stroke-linejoin:round; stroke-width:2; stroke-opacity:0.1; fill:none" points="956.842,1423.18 956.842,47.2441 "/>
<polyline clip-path="url(#clip522)" style="stroke:#000000; stroke-linecap:round; stroke-linejoin:round; stroke-width:2; stroke-opacity:0.1; fill:none" points="1586.67,1423.18 1586.67,47.2441 "/>
<polyline clip-path="url(#clip522)" style="stroke:#000000; stroke-linecap:round; stroke-linejoin:round; stroke-width:2; stroke-opacity:0.1; fill:none" points="2216.51,1423.18 2216.51,47.2441 "/>
<polyline clip-path="url(#clip522)" style="stroke:#000000; stroke-linecap:round; stroke-linejoin:round; stroke-width:2; stroke-opacity:0.1; fill:none" points="302.458,1273.24 2352.76,1273.24 "/>
<polyline clip-path="url(#clip522)" style="stroke:#000000; stroke-linecap:round; stroke-linejoin:round; stroke-width:2; stroke-opacity:0.1; fill:none" points="302.458,941.399 2352.76,941.399 "/>
<polyline clip-path="url(#clip522)" style="stroke:#000000; stroke-linecap:round; stroke-linejoin:round; stroke-width:2; stroke-opacity:0.1; fill:none" points="302.458,609.556 2352.76,609.556 "/>
<polyline clip-path="url(#clip522)" style="stroke:#000000; stroke-linecap:round; stroke-linejoin:round; stroke-width:2; stroke-opacity:0.1; fill:none" points="302.458,277.712 2352.76,277.712 "/>
<polyline clip-path="url(#clip520)" style="stroke:#000000; stroke-linecap:round; stroke-linejoin:round; stroke-width:4; stroke-opacity:1; fill:none" points="302.458,1423.18 2352.76,1423.18 "/>
<polyline clip-path="url(#clip520)" style="stroke:#000000; stroke-linecap:round; stroke-linejoin:round; stroke-width:4; stroke-opacity:1; fill:none" points="327.008,1423.18 327.008,1404.28 "/>
<polyline clip-path="url(#clip520)" style="stroke:#000000; stroke-linecap:round; stroke-linejoin:round; stroke-width:4; stroke-opacity:1; fill:none" points="956.842,1423.18 956.842,1404.28 "/>
<polyline clip-path="url(#clip520)" style="stroke:#000000; stroke-linecap:round; stroke-linejoin:round; stroke-width:4; stroke-opacity:1; fill:none" points="1586.67,1423.18 1586.67,1404.28 "/>
<polyline clip-path="url(#clip520)" style="stroke:#000000; stroke-linecap:round; stroke-linejoin:round; stroke-width:4; stroke-opacity:1; fill:none" points="2216.51,1423.18 2216.51,1404.28 "/>
<path clip-path="url(#clip520)" d="M327.008 1454.1 Q323.397 1454.1 321.569 1457.66 Q319.763 1461.2 319.763 1468.33 Q319.763 1475.44 321.569 1479.01 Q323.397 1482.55 327.008 1482.55 Q330.643 1482.55 332.448 1479.01 Q334.277 1475.44 334.277 1468.33 Q334.277 1461.2 332.448 1457.66 Q330.643 1454.1 327.008 1454.1 M327.008 1450.39 Q332.819 1450.39 335.874 1455 Q338.953 1459.58 338.953 1468.33 Q338.953 1477.06 335.874 1481.67 Q332.819 1486.25 327.008 1486.25 Q321.198 1486.25 318.12 1481.67 Q315.064 1477.06 315.064 1468.33 Q315.064 1459.58 318.12 1455 Q321.198 1450.39 327.008 1450.39 Z" fill="#000000" fill-rule="nonzero" fill-opacity="1" /><path clip-path="url(#clip520)" d="M931.529 1481.64 L939.168 1481.64 L939.168 1455.28 L930.858 1456.95 L930.858 1452.69 L939.122 1451.02 L943.798 1451.02 L943.798 1481.64 L951.437 1481.64 L951.437 1485.58 L931.529 1485.58 L931.529 1481.64 Z" fill="#000000" fill-rule="nonzero" fill-opacity="1" /><path clip-path="url(#clip520)" d="M970.881 1454.1 Q967.27 1454.1 965.441 1457.66 Q963.636 1461.2 963.636 1468.33 Q963.636 1475.44 965.441 1479.01 Q967.27 1482.55 970.881 1482.55 Q974.515 1482.55 976.321 1479.01 Q978.149 1475.44 978.149 1468.33 Q978.149 1461.2 976.321 1457.66 Q974.515 1454.1 970.881 1454.1 M970.881 1450.39 Q976.691 1450.39 979.747 1455 Q982.825 1459.58 982.825 1468.33 Q982.825 1477.06 979.747 1481.67 Q976.691 1486.25 970.881 1486.25 Q965.071 1486.25 961.992 1481.67 Q958.936 1477.06 958.936 1468.33 Q958.936 1459.58 961.992 1455 Q965.071 1450.39 970.881 1450.39 Z" fill="#000000" fill-rule="nonzero" fill-opacity="1" /><path clip-path="url(#clip520)" d="M1565.45 1481.64 L1581.77 1481.64 L1581.77 1485.58 L1559.82 1485.58 L1559.82 1481.64 Q1562.49 1478.89 1567.07 1474.26 Q1571.67 1469.61 1572.86 1468.27 Q1575.1 1465.74 1575.98 1464.01 Q1576.88 1462.25 1576.88 1460.56 Q1576.88 1457.8 1574.94 1456.07 Q1573.02 1454.33 1569.92 1454.33 Q1567.72 1454.33 1565.26 1455.09 Q1562.83 1455.86 1560.05 1457.41 L1560.05 1452.69 Q1562.88 1451.55 1565.33 1450.97 Q1567.79 1450.39 1569.82 1450.39 Q1575.19 1450.39 1578.39 1453.08 Q1581.58 1455.77 1581.58 1460.26 Q1581.58 1462.39 1580.77 1464.31 Q1579.98 1466.2 1577.88 1468.8 Q1577.3 1469.47 1574.2 1472.69 Q1571.1 1475.88 1565.45 1481.64 Z" fill="#000000" fill-rule="nonzero" fill-opacity="1" /><path clip-path="url(#clip520)" d="M1601.58 1454.1 Q1597.97 1454.1 1596.14 1457.66 Q1594.34 1461.2 1594.34 1468.33 Q1594.34 1475.44 1596.14 1479.01 Q1597.97 1482.55 1601.58 1482.55 Q1605.22 1482.55 1607.02 1479.01 Q1608.85 1475.44 1608.85 1468.33 Q1608.85 1461.2 1607.02 1457.66 Q1605.22 1454.1 1601.58 1454.1 M1601.58 1450.39 Q1607.39 1450.39 1610.45 1455 Q1613.53 1459.58 1613.53 1468.33 Q1613.53 1477.06 1610.45 1481.67 Q1607.39 1486.25 1601.58 1486.25 Q1595.77 1486.25 1592.69 1481.67 Q1589.64 1477.06 1589.64 1468.33 Q1589.64 1459.58 1592.69 1455 Q1595.77 1450.39 1601.58 1450.39 Z" fill="#000000" fill-rule="nonzero" fill-opacity="1" /><path clip-path="url(#clip520)" d="M2205.35 1466.95 Q2208.71 1467.66 2210.58 1469.93 Q2212.48 1472.2 2212.48 1475.53 Q2212.48 1480.65 2208.96 1483.45 Q2205.44 1486.25 2198.96 1486.25 Q2196.79 1486.25 2194.47 1485.81 Q2192.18 1485.39 2189.73 1484.54 L2189.73 1480.02 Q2191.67 1481.16 2193.98 1481.74 Q2196.3 1482.32 2198.82 1482.32 Q2203.22 1482.32 2205.51 1480.58 Q2207.83 1478.84 2207.83 1475.53 Q2207.83 1472.48 2205.67 1470.77 Q2203.54 1469.03 2199.73 1469.03 L2195.7 1469.03 L2195.7 1465.19 L2199.91 1465.19 Q2203.36 1465.19 2205.19 1463.82 Q2207.02 1462.43 2207.02 1459.84 Q2207.02 1457.18 2205.12 1455.77 Q2203.24 1454.33 2199.73 1454.33 Q2197.8 1454.33 2195.61 1454.75 Q2193.41 1455.16 2190.77 1456.04 L2190.77 1451.88 Q2193.43 1451.14 2195.74 1450.77 Q2198.08 1450.39 2200.14 1450.39 Q2205.47 1450.39 2208.57 1452.83 Q2211.67 1455.23 2211.67 1459.35 Q2211.67 1462.22 2210.03 1464.21 Q2208.38 1466.18 2205.35 1466.95 Z" fill="#000000" fill-rule="nonzero" fill-opacity="1" /><path clip-path="url(#clip520)" d="M2231.35 1454.1 Q2227.73 1454.1 2225.91 1457.66 Q2224.1 1461.2 2224.1 1468.33 Q2224.1 1475.44 2225.91 1479.01 Q2227.73 1482.55 2231.35 1482.55 Q2234.98 1482.55 2236.79 1479.01 Q2238.61 1475.44 2238.61 1468.33 Q2238.61 1461.2 2236.79 1457.66 Q2234.98 1454.1 2231.35 1454.1 M2231.35 1450.39 Q2237.16 1450.39 2240.21 1455 Q2243.29 1459.58 2243.29 1468.33 Q2243.29 1477.06 2240.21 1481.67 Q2237.16 1486.25 2231.35 1486.25 Q2225.54 1486.25 2222.46 1481.67 Q2219.4 1477.06 2219.4 1468.33 Q2219.4 1459.58 2222.46 1455 Q2225.54 1450.39 2231.35 1450.39 Z" fill="#000000" fill-rule="nonzero" fill-opacity="1" /><path clip-path="url(#clip520)" d="M998.691 1520.52 L1005.18 1520.52 L1015.18 1560.69 L1025.14 1520.52 L1032.37 1520.52 L1042.36 1560.69 L1052.32 1520.52 L1058.85 1520.52 L1046.91 1568.04 L1038.83 1568.04 L1028.8 1526.79 L1018.68 1568.04 L1010.59 1568.04 L998.691 1520.52 Z" fill="#000000" fill-rule="nonzero" fill-opacity="1" /><path clip-path="url(#clip520)" d="M1079.15 1550.12 Q1072.06 1550.12 1069.32 1551.75 Q1066.58 1553.37 1066.58 1557.29 Q1066.58 1560.4 1068.62 1562.25 Q1070.69 1564.07 1074.22 1564.07 Q1079.09 1564.07 1082.02 1560.63 Q1084.98 1557.16 1084.98 1551.43 L1084.98 1550.12 L1079.15 1550.12 M1090.83 1547.71 L1090.83 1568.04 L1084.98 1568.04 L1084.98 1562.63 Q1082.97 1565.88 1079.98 1567.44 Q1076.99 1568.97 1072.66 1568.97 Q1067.19 1568.97 1063.94 1565.91 Q1060.72 1562.82 1060.72 1557.67 Q1060.72 1551.65 1064.74 1548.6 Q1068.78 1545.54 1076.77 1545.54 L1084.98 1545.54 L1084.98 1544.97 Q1084.98 1540.93 1082.3 1538.73 Q1079.66 1536.5 1074.86 1536.5 Q1071.8 1536.5 1068.9 1537.23 Q1066.01 1537.97 1063.33 1539.43 L1063.33 1534.02 Q1066.55 1532.78 1069.57 1532.17 Q1072.6 1531.54 1075.46 1531.54 Q1083.2 1531.54 1087.02 1535.55 Q1090.83 1539.56 1090.83 1547.71 Z" fill="#000000" fill-rule="nonzero" fill-opacity="1" /><path clip-path="url(#clip520)" d="M1102.9 1518.52 L1108.75 1518.52 L1108.75 1568.04 L1102.9 1568.04 L1102.9 1518.52 Z" fill="#000000" fill-rule="nonzero" fill-opacity="1" /><path clip-path="url(#clip520)" d="M1121.01 1518.52 L1126.86 1518.52 L1126.86 1568.04 L1121.01 1568.04 L1121.01 1518.52 Z" fill="#000000" fill-rule="nonzero" fill-opacity="1" /><path clip-path="url(#clip520)" d="M1164.77 1533.76 L1164.77 1539.24 Q1162.29 1537.87 1159.78 1537.2 Q1157.29 1536.5 1154.75 1536.5 Q1149.05 1536.5 1145.9 1540.13 Q1142.75 1543.73 1142.75 1550.25 Q1142.75 1556.78 1145.9 1560.4 Q1149.05 1564 1154.75 1564 Q1157.29 1564 1159.78 1563.33 Q1162.29 1562.63 1164.77 1561.26 L1164.77 1566.68 Q1162.32 1567.82 1159.68 1568.39 Q1157.07 1568.97 1154.11 1568.97 Q1146.06 1568.97 1141.31 1563.91 Q1136.57 1558.85 1136.57 1550.25 Q1136.57 1541.53 1141.35 1536.53 Q1146.15 1531.54 1154.49 1531.54 Q1157.2 1531.54 1159.78 1532.11 Q1162.35 1532.65 1164.77 1533.76 Z" fill="#000000" fill-rule="nonzero" fill-opacity="1" /><path clip-path="url(#clip520)" d="M1174.96 1518.52 L1180.81 1518.52 L1180.81 1568.04 L1174.96 1568.04 L1174.96 1518.52 Z" fill="#000000" fill-rule="nonzero" fill-opacity="1" /><path clip-path="url(#clip520)" d="M1206.88 1536.5 Q1202.17 1536.5 1199.43 1540.19 Q1196.7 1543.85 1196.7 1550.25 Q1196.7 1556.65 1199.4 1560.34 Q1202.14 1564 1206.88 1564 Q1211.56 1564 1214.3 1560.31 Q1217.03 1556.62 1217.03 1550.25 Q1217.03 1543.92 1214.3 1540.23 Q1211.56 1536.5 1206.88 1536.5 M1206.88 1531.54 Q1214.52 1531.54 1218.88 1536.5 Q1223.24 1541.47 1223.24 1550.25 Q1223.24 1559 1218.88 1564 Q1214.52 1568.97 1206.88 1568.97 Q1199.21 1568.97 1194.85 1564 Q1190.52 1559 1190.52 1550.25 Q1190.52 1541.47 1194.85 1536.5 Q1199.21 1531.54 1206.88 1531.54 Z" fill="#000000" fill-rule="nonzero" fill-opacity="1" /><path clip-path="url(#clip520)" d="M1258.6 1533.76 L1258.6 1539.24 Q1256.12 1537.87 1253.61 1537.2 Q1251.12 1536.5 1248.58 1536.5 Q1242.88 1536.5 1239.73 1540.13 Q1236.58 1543.73 1236.58 1550.25 Q1236.58 1556.78 1239.73 1560.4 Q1242.88 1564 1248.58 1564 Q1251.12 1564 1253.61 1563.33 Q1256.12 1562.63 1258.6 1561.26 L1258.6 1566.68 Q1256.15 1567.82 1253.51 1568.39 Q1250.9 1568.97 1247.94 1568.97 Q1239.89 1568.97 1235.15 1563.91 Q1230.4 1558.85 1230.4 1550.25 Q1230.4 1541.53 1235.18 1536.53 Q1239.98 1531.54 1248.32 1531.54 Q1251.03 1531.54 1253.61 1532.11 Q1256.18 1532.65 1258.6 1533.76 Z" fill="#000000" fill-rule="nonzero" fill-opacity="1" /><path clip-path="url(#clip520)" d="M1268.57 1518.52 L1274.45 1518.52 L1274.45 1547.77 L1291.93 1532.4 L1299.41 1532.4 L1280.5 1549.07 L1300.2 1568.04 L1292.56 1568.04 L1274.45 1550.63 L1274.45 1568.04 L1268.57 1568.04 L1268.57 1518.52 Z" fill="#000000" fill-rule="nonzero" fill-opacity="1" /><path clip-path="url(#clip520)" d="M1320.92 1520.52 L1361.12 1520.52 L1361.12 1525.93 L1344.25 1525.93 L1344.25 1568.04 L1337.79 1568.04 L1337.79 1525.93 L1320.92 1525.93 L1320.92 1520.52 Z" fill="#000000" fill-rule="nonzero" fill-opacity="1" /><path clip-path="url(#clip520)" d="M1365.07 1532.4 L1370.93 1532.4 L1370.93 1568.04 L1365.07 1568.04 L1365.07 1532.4 M1365.07 1518.52 L1370.93 1518.52 L1370.93 1525.93 L1365.07 1525.93 L1365.07 1518.52 Z" fill="#000000" fill-rule="nonzero" fill-opacity="1" /><path clip-path="url(#clip520)" d="M1410.93 1539.24 Q1413.13 1535.29 1416.19 1533.41 Q1419.24 1531.54 1423.38 1531.54 Q1428.95 1531.54 1431.97 1535.45 Q1435 1539.33 1435 1546.53 L1435 1568.04 L1429.11 1568.04 L1429.11 1546.72 Q1429.11 1541.59 1427.29 1539.11 Q1425.48 1536.63 1421.76 1536.63 Q1417.2 1536.63 1414.56 1539.65 Q1411.92 1542.68 1411.92 1547.9 L1411.92 1568.04 L1406.03 1568.04 L1406.03 1546.72 Q1406.03 1541.56 1404.22 1539.11 Q1402.4 1536.63 1398.62 1536.63 Q1394.13 1536.63 1391.49 1539.68 Q1388.85 1542.71 1388.85 1547.9 L1388.85 1568.04 L1382.96 1568.04 L1382.96 1532.4 L1388.85 1532.4 L1388.85 1537.93 Q1390.85 1534.66 1393.65 1533.1 Q1396.45 1531.54 1400.3 1531.54 Q1404.19 1531.54 1406.89 1533.51 Q1409.63 1535.48 1410.93 1539.24 Z" fill="#000000" fill-rule="nonzero" fill-opacity="1" /><path clip-path="url(#clip520)" d="M1477.17 1548.76 L1477.17 1551.62 L1450.24 1551.62 Q1450.62 1557.67 1453.87 1560.85 Q1457.15 1564 1462.97 1564 Q1466.35 1564 1469.5 1563.17 Q1472.68 1562.35 1475.8 1560.69 L1475.8 1566.23 Q1472.65 1567.57 1469.34 1568.27 Q1466.03 1568.97 1462.62 1568.97 Q1454.09 1568.97 1449.1 1564 Q1444.13 1559.04 1444.13 1550.57 Q1444.13 1541.82 1448.84 1536.69 Q1453.58 1531.54 1461.61 1531.54 Q1468.8 1531.54 1472.97 1536.18 Q1477.17 1540.8 1477.17 1548.76 M1471.31 1547.04 Q1471.25 1542.23 1468.61 1539.37 Q1466 1536.5 1461.67 1536.5 Q1456.77 1536.5 1453.81 1539.27 Q1450.88 1542.04 1450.43 1547.07 L1471.31 1547.04 Z" fill="#000000" fill-rule="nonzero" fill-opacity="1" /><path clip-path="url(#clip520)" d="M1521.57 1518.58 Q1517.31 1525.9 1515.24 1533.06 Q1513.17 1540.23 1513.17 1547.58 Q1513.17 1554.93 1515.24 1562.16 Q1517.34 1569.35 1521.57 1576.64 L1516.48 1576.64 Q1511.7 1569.16 1509.32 1561.93 Q1506.96 1554.71 1506.96 1547.58 Q1506.96 1540.48 1509.32 1533.29 Q1511.67 1526.09 1516.48 1518.58 L1521.57 1518.58 Z" fill="#000000" fill-rule="nonzero" fill-opacity="1" /><path clip-path="url(#clip520)" d="M1555.66 1533.45 L1555.66 1538.98 Q1553.18 1537.71 1550.5 1537.07 Q1547.83 1536.44 1544.96 1536.44 Q1540.6 1536.44 1538.41 1537.77 Q1536.24 1539.11 1536.24 1541.79 Q1536.24 1543.82 1537.8 1545 Q1539.36 1546.15 1544.07 1547.2 L1546.08 1547.64 Q1552.32 1548.98 1554.93 1551.43 Q1557.57 1553.85 1557.57 1558.21 Q1557.57 1563.17 1553.62 1566.07 Q1549.71 1568.97 1542.83 1568.97 Q1539.97 1568.97 1536.85 1568.39 Q1533.76 1567.85 1530.32 1566.74 L1530.32 1560.69 Q1533.57 1562.38 1536.72 1563.24 Q1539.87 1564.07 1542.96 1564.07 Q1547.1 1564.07 1549.32 1562.66 Q1551.55 1561.23 1551.55 1558.65 Q1551.55 1556.27 1549.93 1554.99 Q1548.34 1553.72 1542.9 1552.54 L1540.86 1552.07 Q1535.42 1550.92 1533 1548.56 Q1530.58 1546.18 1530.58 1542.04 Q1530.58 1537.01 1534.14 1534.27 Q1537.71 1531.54 1544.26 1531.54 Q1547.51 1531.54 1550.38 1532.01 Q1553.24 1532.49 1555.66 1533.45 Z" fill="#000000" fill-rule="nonzero" fill-opacity="1" /><path clip-path="url(#clip520)" d="M1597.39 1548.76 L1597.39 1551.62 L1570.46 1551.62 Q1570.84 1557.67 1574.09 1560.85 Q1577.37 1564 1583.19 1564 Q1586.56 1564 1589.72 1563.17 Q1592.9 1562.35 1596.02 1560.69 L1596.02 1566.23 Q1592.87 1567.57 1589.56 1568.27 Q1586.25 1568.97 1582.84 1568.97 Q1574.31 1568.97 1569.31 1564 Q1564.35 1559.04 1564.35 1550.57 Q1564.35 1541.82 1569.06 1536.69 Q1573.8 1531.54 1581.82 1531.54 Q1589.01 1531.54 1593.18 1536.18 Q1597.39 1540.8 1597.39 1548.76 M1591.53 1547.04 Q1591.47 1542.23 1588.82 1539.37 Q1586.21 1536.5 1581.89 1536.5 Q1576.98 1536.5 1574.02 1539.27 Q1571.1 1542.04 1570.65 1547.07 L1591.53 1547.04 Z" fill="#000000" fill-rule="nonzero" fill-opacity="1" /><path clip-path="url(#clip520)" d="M1632.65 1533.76 L1632.65 1539.24 Q1630.17 1537.87 1627.65 1537.2 Q1625.17 1536.5 1622.63 1536.5 Q1616.93 1536.5 1613.78 1540.13 Q1610.63 1543.73 1610.63 1550.25 Q1610.63 1556.78 1613.78 1560.4 Q1616.93 1564 1622.63 1564 Q1625.17 1564 1627.65 1563.33 Q1630.17 1562.63 1632.65 1561.26 L1632.65 1566.68 Q1630.2 1567.82 1627.56 1568.39 Q1624.95 1568.97 1621.99 1568.97 Q1613.94 1568.97 1609.19 1563.91 Q1604.45 1558.85 1604.45 1550.25 Q1604.45 1541.53 1609.23 1536.53 Q1614.03 1531.54 1622.37 1531.54 Q1625.08 1531.54 1627.65 1532.11 Q1630.23 1532.65 1632.65 1533.76 Z" fill="#000000" fill-rule="nonzero" fill-opacity="1" /><path clip-path="url(#clip520)" d="M1641.91 1518.58 L1647.01 1518.58 Q1651.78 1526.09 1654.14 1533.29 Q1656.52 1540.48 1656.52 1547.58 Q1656.52 1554.71 1654.14 1561.93 Q1651.78 1569.16 1647.01 1576.64 L1641.91 1576.64 Q1646.15 1569.35 1648.22 1562.16 Q1650.32 1554.93 1650.32 1547.58 Q1650.32 1540.23 1648.22 1533.06 Q1646.15 1525.9 1641.91 1518.58 Z" fill="#000000" fill-rule="nonzero" fill-opacity="1" /><polyline clip-path="url(#clip520)" style="stroke:#000000; stroke-linecap:round; stroke-linejoin:round; stroke-width:4; stroke-opacity:1; fill:none" points="302.458,1423.18 302.458,47.2441 "/>
<polyline clip-path="url(#clip520)" style="stroke:#000000; stroke-linecap:round; stroke-linejoin:round; stroke-width:4; stroke-opacity:1; fill:none" points="302.458,1273.24 321.356,1273.24 "/>
<polyline clip-path="url(#clip520)" style="stroke:#000000; stroke-linecap:round; stroke-linejoin:round; stroke-width:4; stroke-opacity:1; fill:none" points="302.458,941.399 321.356,941.399 "/>
<polyline clip-path="url(#clip520)" style="stroke:#000000; stroke-linecap:round; stroke-linejoin:round; stroke-width:4; stroke-opacity:1; fill:none" points="302.458,609.556 321.356,609.556 "/>
<polyline clip-path="url(#clip520)" style="stroke:#000000; stroke-linecap:round; stroke-linejoin:round; stroke-width:4; stroke-opacity:1; fill:none" points="302.458,277.712 321.356,277.712 "/>
<path clip-path="url(#clip520)" d="M114.26 1273.69 L143.936 1273.69 L143.936 1277.63 L114.26 1277.63 L114.26 1273.69 Z" fill="#000000" fill-rule="nonzero" fill-opacity="1" /><path clip-path="url(#clip520)" d="M152.848 1255.96 L175.07 1255.96 L175.07 1257.95 L162.524 1290.52 L157.64 1290.52 L169.445 1259.9 L152.848 1259.9 L152.848 1255.96 Z" fill="#000000" fill-rule="nonzero" fill-opacity="1" /><path clip-path="url(#clip520)" d="M184.237 1255.96 L202.593 1255.96 L202.593 1259.9 L188.519 1259.9 L188.519 1268.37 Q189.538 1268.02 190.556 1267.86 Q191.575 1267.68 192.593 1267.68 Q198.38 1267.68 201.76 1270.85 Q205.139 1274.02 205.139 1279.43 Q205.139 1285.01 201.667 1288.12 Q198.195 1291.19 191.875 1291.19 Q189.7 1291.19 187.431 1290.82 Q185.186 1290.45 182.778 1289.71 L182.778 1285.01 Q184.862 1286.15 187.084 1286.7 Q189.306 1287.26 191.783 1287.26 Q195.787 1287.26 198.125 1285.15 Q200.463 1283.05 200.463 1279.43 Q200.463 1275.82 198.125 1273.72 Q195.787 1271.61 191.783 1271.61 Q189.908 1271.61 188.033 1272.03 Q186.181 1272.44 184.237 1273.32 L184.237 1255.96 Z" fill="#000000" fill-rule="nonzero" fill-opacity="1" /><path clip-path="url(#clip520)" d="M224.352 1259.04 Q220.741 1259.04 218.912 1262.61 Q217.107 1266.15 217.107 1273.28 Q217.107 1280.38 218.912 1283.95 Q220.741 1287.49 224.352 1287.49 Q227.986 1287.49 229.792 1283.95 Q231.621 1280.38 231.621 1273.28 Q231.621 1266.15 229.792 1262.61 Q227.986 1259.04 224.352 1259.04 M224.352 1255.34 Q230.162 1255.34 233.218 1259.94 Q236.297 1264.53 236.297 1273.28 Q236.297 1282 233.218 1286.61 Q230.162 1291.19 224.352 1291.19 Q218.542 1291.19 215.463 1286.61 Q212.408 1282 212.408 1273.28 Q212.408 1264.53 215.463 1259.94 Q218.542 1255.34 224.352 1255.34 Z" fill="#000000" fill-rule="nonzero" fill-opacity="1" /><path clip-path="url(#clip520)" d="M254.514 1259.04 Q250.903 1259.04 249.074 1262.61 Q247.269 1266.15 247.269 1273.28 Q247.269 1280.38 249.074 1283.95 Q250.903 1287.49 254.514 1287.49 Q258.148 1287.49 259.954 1283.95 Q261.783 1280.38 261.783 1273.28 Q261.783 1266.15 259.954 1262.61 Q258.148 1259.04 254.514 1259.04 M254.514 1255.34 Q260.324 1255.34 263.38 1259.94 Q266.458 1264.53 266.458 1273.28 Q266.458 1282 263.38 1286.61 Q260.324 1291.19 254.514 1291.19 Q248.704 1291.19 245.625 1286.61 Q242.57 1282 242.57 1273.28 Q242.57 1264.53 245.625 1259.94 Q248.704 1255.34 254.514 1255.34 Z" fill="#000000" fill-rule="nonzero" fill-opacity="1" /><path clip-path="url(#clip520)" d="M114.26 941.851 L143.936 941.851 L143.936 945.786 L114.26 945.786 L114.26 941.851 Z" fill="#000000" fill-rule="nonzero" fill-opacity="1" /><path clip-path="url(#clip520)" d="M152.848 924.119 L175.07 924.119 L175.07 926.11 L162.524 958.679 L157.64 958.679 L169.445 928.054 L152.848 928.054 L152.848 924.119 Z" fill="#000000" fill-rule="nonzero" fill-opacity="1" /><path clip-path="url(#clip520)" d="M194.19 927.198 Q190.579 927.198 188.75 930.763 Q186.945 934.304 186.945 941.434 Q186.945 948.54 188.75 952.105 Q190.579 955.647 194.19 955.647 Q197.825 955.647 199.63 952.105 Q201.459 948.54 201.459 941.434 Q201.459 934.304 199.63 930.763 Q197.825 927.198 194.19 927.198 M194.19 923.494 Q200 923.494 203.056 928.101 Q206.135 932.684 206.135 941.434 Q206.135 950.161 203.056 954.767 Q200 959.351 194.19 959.351 Q188.38 959.351 185.301 954.767 Q182.246 950.161 182.246 941.434 Q182.246 932.684 185.301 928.101 Q188.38 923.494 194.19 923.494 Z" fill="#000000" fill-rule="nonzero" fill-opacity="1" /><path clip-path="url(#clip520)" d="M224.352 927.198 Q220.741 927.198 218.912 930.763 Q217.107 934.304 217.107 941.434 Q217.107 948.54 218.912 952.105 Q220.741 955.647 224.352 955.647 Q227.986 955.647 229.792 952.105 Q231.621 948.54 231.621 941.434 Q231.621 934.304 229.792 930.763 Q227.986 927.198 224.352 927.198 M224.352 923.494 Q230.162 923.494 233.218 928.101 Q236.297 932.684 236.297 941.434 Q236.297 950.161 233.218 954.767 Q230.162 959.351 224.352 959.351 Q218.542 959.351 215.463 954.767 Q212.408 950.161 212.408 941.434 Q212.408 932.684 215.463 928.101 Q218.542 923.494 224.352 923.494 Z" fill="#000000" fill-rule="nonzero" fill-opacity="1" /><path clip-path="url(#clip520)" d="M254.514 927.198 Q250.903 927.198 249.074 930.763 Q247.269 934.304 247.269 941.434 Q247.269 948.54 249.074 952.105 Q250.903 955.647 254.514 955.647 Q258.148 955.647 259.954 952.105 Q261.783 948.54 261.783 941.434 Q261.783 934.304 259.954 930.763 Q258.148 927.198 254.514 927.198 M254.514 923.494 Q260.324 923.494 263.38 928.101 Q266.458 932.684 266.458 941.434 Q266.458 950.161 263.38 954.767 Q260.324 959.351 254.514 959.351 Q248.704 959.351 245.625 954.767 Q242.57 950.161 242.57 941.434 Q242.57 932.684 245.625 928.101 Q248.704 923.494 254.514 923.494 Z" fill="#000000" fill-rule="nonzero" fill-opacity="1" /><path clip-path="url(#clip520)" d="M114.26 610.007 L143.936 610.007 L143.936 613.942 L114.26 613.942 L114.26 610.007 Z" fill="#000000" fill-rule="nonzero" fill-opacity="1" /><path clip-path="url(#clip520)" d="M164.607 607.692 Q161.459 607.692 159.607 609.845 Q157.778 611.998 157.778 615.748 Q157.778 619.475 159.607 621.651 Q161.459 623.803 164.607 623.803 Q167.755 623.803 169.584 621.651 Q171.436 619.475 171.436 615.748 Q171.436 611.998 169.584 609.845 Q167.755 607.692 164.607 607.692 M173.889 593.04 L173.889 597.299 Q172.13 596.466 170.325 596.026 Q168.542 595.586 166.783 595.586 Q162.153 595.586 159.7 598.711 Q157.269 601.836 156.922 608.155 Q158.288 606.141 160.348 605.077 Q162.408 603.989 164.885 603.989 Q170.093 603.989 173.102 607.16 Q176.135 610.308 176.135 615.748 Q176.135 621.072 172.987 624.29 Q169.839 627.507 164.607 627.507 Q158.612 627.507 155.44 622.924 Q152.269 618.317 152.269 609.591 Q152.269 601.396 156.158 596.535 Q160.047 591.651 166.598 591.651 Q168.357 591.651 170.139 591.998 Q171.945 592.345 173.889 593.04 Z" fill="#000000" fill-rule="nonzero" fill-opacity="1" /><path clip-path="url(#clip520)" d="M184.237 592.276 L202.593 592.276 L202.593 596.211 L188.519 596.211 L188.519 604.683 Q189.538 604.336 190.556 604.174 Q191.575 603.989 192.593 603.989 Q198.38 603.989 201.76 607.16 Q205.139 610.331 205.139 615.748 Q205.139 621.327 201.667 624.428 Q198.195 627.507 191.875 627.507 Q189.7 627.507 187.431 627.137 Q185.186 626.766 182.778 626.026 L182.778 621.327 Q184.862 622.461 187.084 623.016 Q189.306 623.572 191.783 623.572 Q195.787 623.572 198.125 621.465 Q200.463 619.359 200.463 615.748 Q200.463 612.137 198.125 610.03 Q195.787 607.924 191.783 607.924 Q189.908 607.924 188.033 608.341 Q186.181 608.757 184.237 609.637 L184.237 592.276 Z" fill="#000000" fill-rule="nonzero" fill-opacity="1" /><path clip-path="url(#clip520)" d="M224.352 595.354 Q220.741 595.354 218.912 598.919 Q217.107 602.461 217.107 609.591 Q217.107 616.697 218.912 620.262 Q220.741 623.803 224.352 623.803 Q227.986 623.803 229.792 620.262 Q231.621 616.697 231.621 609.591 Q231.621 602.461 229.792 598.919 Q227.986 595.354 224.352 595.354 M224.352 591.651 Q230.162 591.651 233.218 596.257 Q236.297 600.841 236.297 609.591 Q236.297 618.317 233.218 622.924 Q230.162 627.507 224.352 627.507 Q218.542 627.507 215.463 622.924 Q212.408 618.317 212.408 609.591 Q212.408 600.841 215.463 596.257 Q218.542 591.651 224.352 591.651 Z" fill="#000000" fill-rule="nonzero" fill-opacity="1" /><path clip-path="url(#clip520)" d="M254.514 595.354 Q250.903 595.354 249.074 598.919 Q247.269 602.461 247.269 609.591 Q247.269 616.697 249.074 620.262 Q250.903 623.803 254.514 623.803 Q258.148 623.803 259.954 620.262 Q261.783 616.697 261.783 609.591 Q261.783 602.461 259.954 598.919 Q258.148 595.354 254.514 595.354 M254.514 591.651 Q260.324 591.651 263.38 596.257 Q266.458 600.841 266.458 609.591 Q266.458 618.317 263.38 622.924 Q260.324 627.507 254.514 627.507 Q248.704 627.507 245.625 622.924 Q242.57 618.317 242.57 609.591 Q242.57 600.841 245.625 596.257 Q248.704 591.651 254.514 591.651 Z" fill="#000000" fill-rule="nonzero" fill-opacity="1" /><path clip-path="url(#clip520)" d="M114.26 278.164 L143.936 278.164 L143.936 282.099 L114.26 282.099 L114.26 278.164 Z" fill="#000000" fill-rule="nonzero" fill-opacity="1" /><path clip-path="url(#clip520)" d="M164.607 275.849 Q161.459 275.849 159.607 278.002 Q157.778 280.154 157.778 283.904 Q157.778 287.631 159.607 289.807 Q161.459 291.96 164.607 291.96 Q167.755 291.96 169.584 289.807 Q171.436 287.631 171.436 283.904 Q171.436 280.154 169.584 278.002 Q167.755 275.849 164.607 275.849 M173.889 261.196 L173.889 265.455 Q172.13 264.622 170.325 264.182 Q168.542 263.743 166.783 263.743 Q162.153 263.743 159.7 266.868 Q157.269 269.993 156.922 276.312 Q158.288 274.298 160.348 273.233 Q162.408 272.145 164.885 272.145 Q170.093 272.145 173.102 275.317 Q176.135 278.465 176.135 283.904 Q176.135 289.229 172.987 292.446 Q169.839 295.664 164.607 295.664 Q158.612 295.664 155.44 291.08 Q152.269 286.474 152.269 277.747 Q152.269 269.553 156.158 264.692 Q160.047 259.807 166.598 259.807 Q168.357 259.807 170.139 260.155 Q171.945 260.502 173.889 261.196 Z" fill="#000000" fill-rule="nonzero" fill-opacity="1" /><path clip-path="url(#clip520)" d="M194.19 263.511 Q190.579 263.511 188.75 267.076 Q186.945 270.618 186.945 277.747 Q186.945 284.854 188.75 288.418 Q190.579 291.96 194.19 291.96 Q197.825 291.96 199.63 288.418 Q201.459 284.854 201.459 277.747 Q201.459 270.618 199.63 267.076 Q197.825 263.511 194.19 263.511 M194.19 259.807 Q200 259.807 203.056 264.414 Q206.135 268.997 206.135 277.747 Q206.135 286.474 203.056 291.08 Q200 295.664 194.19 295.664 Q188.38 295.664 185.301 291.08 Q182.246 286.474 182.246 277.747 Q182.246 268.997 185.301 264.414 Q188.38 259.807 194.19 259.807 Z" fill="#000000" fill-rule="nonzero" fill-opacity="1" /><path clip-path="url(#clip520)" d="M224.352 263.511 Q220.741 263.511 218.912 267.076 Q217.107 270.618 217.107 277.747 Q217.107 284.854 218.912 288.418 Q220.741 291.96 224.352 291.96 Q227.986 291.96 229.792 288.418 Q231.621 284.854 231.621 277.747 Q231.621 270.618 229.792 267.076 Q227.986 263.511 224.352 263.511 M224.352 259.807 Q230.162 259.807 233.218 264.414 Q236.297 268.997 236.297 277.747 Q236.297 286.474 233.218 291.08 Q230.162 295.664 224.352 295.664 Q218.542 295.664 215.463 291.08 Q212.408 286.474 212.408 277.747 Q212.408 268.997 215.463 264.414 Q218.542 259.807 224.352 259.807 Z" fill="#000000" fill-rule="nonzero" fill-opacity="1" /><path clip-path="url(#clip520)" d="M254.514 263.511 Q250.903 263.511 249.074 267.076 Q247.269 270.618 247.269 277.747 Q247.269 284.854 249.074 288.418 Q250.903 291.96 254.514 291.96 Q258.148 291.96 259.954 288.418 Q261.783 284.854 261.783 277.747 Q261.783 270.618 259.954 267.076 Q258.148 263.511 254.514 263.511 M254.514 259.807 Q260.324 259.807 263.38 264.414 Q266.458 268.997 266.458 277.747 Q266.458 286.474 263.38 291.08 Q260.324 295.664 254.514 295.664 Q248.704 295.664 245.625 291.08 Q242.57 286.474 242.57 277.747 Q242.57 268.997 245.625 264.414 Q248.704 259.807 254.514 259.807 Z" fill="#000000" fill-rule="nonzero" fill-opacity="1" /><path clip-path="url(#clip520)" d="M16.4842 816.375 L16.4842 786.329 L21.895 786.329 L21.895 809.945 L35.9632 809.945 L35.9632 787.315 L41.3741 787.315 L41.3741 809.945 L58.5933 809.945 L58.5933 785.756 L64.0042 785.756 L64.0042 816.375 L16.4842 816.375 Z" fill="#000000" fill-rule="nonzero" fill-opacity="1" /><path clip-path="url(#clip520)" d="M16.4842 775.189 L16.4842 768.759 L58.5933 768.759 L58.5933 745.62 L64.0042 745.62 L64.0042 775.189 L16.4842 775.189 Z" fill="#000000" fill-rule="nonzero" fill-opacity="1" /><path clip-path="url(#clip520)" d="M41.3104 732.443 L58.7206 732.443 L58.7206 722.13 Q58.7206 716.942 56.5881 714.46 Q54.4238 711.945 49.9996 711.945 Q45.5436 711.945 43.4429 714.46 Q41.3104 716.942 41.3104 722.13 L41.3104 732.443 M21.7677 732.443 L36.0905 732.443 L36.0905 722.926 Q36.0905 718.216 34.34 715.924 Q32.5576 713.6 28.9291 713.6 Q25.3325 713.6 23.5501 715.924 Q21.7677 718.216 21.7677 722.926 L21.7677 732.443 M16.4842 738.872 L16.4842 722.449 Q16.4842 715.096 19.5397 711.118 Q22.5952 707.139 28.2289 707.139 Q32.5894 707.139 35.1675 709.176 Q37.7456 711.213 38.3822 715.16 Q39.4007 710.418 42.6472 707.808 Q45.8619 705.166 50.6998 705.166 Q57.0655 705.166 60.5348 709.495 Q64.0042 713.823 64.0042 721.812 L64.0042 738.872 L16.4842 738.872 Z" fill="#000000" fill-rule="nonzero" fill-opacity="1" /><path clip-path="url(#clip520)" d="M20.8447 676.011 Q20.8447 683.013 26.0645 687.151 Q31.2844 691.257 40.2919 691.257 Q49.2675 691.257 54.4874 687.151 Q59.7073 683.013 59.7073 676.011 Q59.7073 669.009 54.4874 664.935 Q49.2675 660.829 40.2919 660.829 Q31.2844 660.829 26.0645 664.935 Q20.8447 669.009 20.8447 676.011 M15.6248 676.011 Q15.6248 666.017 22.3406 660.033 Q29.0246 654.049 40.2919 654.049 Q51.5274 654.049 58.2432 660.033 Q64.9272 666.017 64.9272 676.011 Q64.9272 686.037 58.2432 692.052 Q51.5592 698.036 40.2919 698.036 Q29.0246 698.036 22.3406 692.052 Q15.6248 686.037 15.6248 676.011 Z" fill="#000000" fill-rule="nonzero" fill-opacity="1" /><polyline clip-path="url(#clip522)" style="stroke:#009af9; stroke-linecap:round; stroke-linejoin:round; stroke-width:4; stroke-opacity:1; fill:none" points="412.073,1384.24 481.599,1077.69 542.774,901.116 605.074,795.678 667.766,756.745 730.735,700.517 792.791,671.726 855.049,656.216 917.303,645.699 979.214,589.434 1040.77,545.464 1102,523.717 1162.79,490.561 1223.19,464.141 1286.18,435.986 1347.62,459.041 1406.28,445.423 1465.02,424.463 1523.73,359.957 1583.68,325.537 1642.44,301.127 1701.01,274.363 1760.19,239.762 1819.14,200.443 1878.73,187.313 1938.46,152.255 1996.87,125.87 2055.06,121.08 2113.55,102.521 2174.23,104.337 2234.53,116.184 2294.73,86.1857 "/>
<polyline clip-path="url(#clip522)" style="stroke:#e26f46; stroke-linecap:round; stroke-linejoin:round; stroke-width:4; stroke-opacity:1; fill:none" points="360.486,1381.38 390.053,1052.22 400.444,1027.18 410.767,880.344 424.981,812.127 435.308,775.93 445.679,747.167 456.052,729.768 466.386,712.934 476.714,672.735 486.826,658.213 497.168,623.597 507.471,612.97 517.89,595.178 528.173,568.384 538.111,552.048 548.285,528.03 558.429,523.387 568.495,508.604 578.703,476.279 588.689,453.597 598.836,427.753 608.898,396.866 618.986,394.86 629.132,367.574 638.968,344.909 649.11,337.345 659.228,312.171 669.471,290.344 679.598,259.977 689.52,246.682 699.685,238.214 "/>
<path clip-path="url(#clip520)" d="M2026.95 1377.32 L2284.41 1377.32 L2284.41 1221.8 L2026.95 1221.8  Z" fill="#ffffff" fill-rule="evenodd" fill-opacity="1"/>
<polyline clip-path="url(#clip520)" style="stroke:#000000; stroke-linecap:round; stroke-linejoin:round; stroke-width:4; stroke-opacity:1; fill:none" points="2026.95,1377.32 2284.41,1377.32 2284.41,1221.8 2026.95,1221.8 2026.95,1377.32 "/>
<polyline clip-path="url(#clip520)" style="stroke:#009af9; stroke-linecap:round; stroke-linejoin:round; stroke-width:4; stroke-opacity:1; fill:none" points="2049.73,1273.64 2186.42,1273.64 "/>
<path clip-path="url(#clip520)" d="M2223.04 1293.32 Q2221.24 1297.95 2219.53 1299.36 Q2217.81 1300.78 2214.94 1300.78 L2211.54 1300.78 L2211.54 1297.21 L2214.04 1297.21 Q2215.8 1297.21 2216.77 1296.38 Q2217.74 1295.54 2218.92 1292.44 L2219.69 1290.5 L2209.2 1264.99 L2213.72 1264.99 L2221.82 1285.27 L2229.92 1264.99 L2234.43 1264.99 L2223.04 1293.32 Z" fill="#000000" fill-rule="nonzero" fill-opacity="1" /><path clip-path="url(#clip520)" d="M2241.72 1286.98 L2249.36 1286.98 L2249.36 1260.61 L2241.05 1262.28 L2241.05 1258.02 L2249.32 1256.36 L2253.99 1256.36 L2253.99 1286.98 L2261.63 1286.98 L2261.63 1290.92 L2241.72 1290.92 L2241.72 1286.98 Z" fill="#000000" fill-rule="nonzero" fill-opacity="1" /><polyline clip-path="url(#clip520)" style="stroke:#e26f46; stroke-linecap:round; stroke-linejoin:round; stroke-width:4; stroke-opacity:1; fill:none" points="2049.73,1325.48 2186.42,1325.48 "/>
<path clip-path="url(#clip520)" d="M2223.04 1345.16 Q2221.24 1349.79 2219.53 1351.2 Q2217.81 1352.62 2214.94 1352.62 L2211.54 1352.62 L2211.54 1349.05 L2214.04 1349.05 Q2215.8 1349.05 2216.77 1348.22 Q2217.74 1347.38 2218.92 1344.28 L2219.69 1342.34 L2209.2 1316.83 L2213.72 1316.83 L2221.82 1337.11 L2229.92 1316.83 L2234.43 1316.83 L2223.04 1345.16 Z" fill="#000000" fill-rule="nonzero" fill-opacity="1" /><path clip-path="url(#clip520)" d="M2244.94 1338.82 L2261.26 1338.82 L2261.26 1342.76 L2239.32 1342.76 L2239.32 1338.82 Q2241.98 1336.07 2246.56 1331.44 Q2251.17 1326.78 2252.35 1325.44 Q2254.59 1322.92 2255.47 1321.18 Q2256.38 1319.42 2256.38 1317.73 Q2256.38 1314.98 2254.43 1313.24 Q2252.51 1311.51 2249.41 1311.51 Q2247.21 1311.51 2244.76 1312.27 Q2242.33 1313.03 2239.55 1314.58 L2239.55 1309.86 Q2242.37 1308.73 2244.83 1308.15 Q2247.28 1307.57 2249.32 1307.57 Q2254.69 1307.57 2257.88 1310.26 Q2261.08 1312.94 2261.08 1317.43 Q2261.08 1319.56 2260.27 1321.48 Q2259.48 1323.38 2257.37 1325.97 Q2256.79 1326.64 2253.69 1329.86 Q2250.59 1333.06 2244.94 1338.82 Z" fill="#000000" fill-rule="nonzero" fill-opacity="1" /></svg>
