<?xml version="1.0" encoding="utf-8"?>
<svg xmlns="http://www.w3.org/2000/svg" xmlns:xlink="http://www.w3.org/1999/xlink" width="600" height="400" viewBox="0 0 2400 1600">
<defs>
  <clipPath id="clip800">
    <rect x="0" y="0" width="2400" height="1600"/>
  </clipPath>
</defs>
<path clip-path="url(#clip800)" d="M0 1600 L2400 1600 L2400 0 L0 0  Z" fill="#ffffff" fill-rule="evenodd" fill-opacity="1"/>
<defs>
  <clipPath id="clip801">
    <rect x="480" y="0" width="1681" height="1600"/>
  </clipPath>
</defs>
<path clip-path="url(#clip800)" d="M302.458 1423.18 L2352.76 1423.18 L2352.76 47.2441 L302.458 47.2441  Z" fill="#ffffff" fill-rule="evenodd" fill-opacity="1"/>
<defs>
  <clipPath id="clip802">
    <rect x="302" y="47" width="2051" height="1377"/>
  </clipPath>
</defs>
<polyline clip-path="url(#clip802)" style="stroke:#000000; stroke-linecap:round; stroke-linejoin:round; stroke-width:2; stroke-opacity:0.1; fill:none" points="326.816,1423.18 326.816,47.2441 "/>
<polyline clip-path="url(#clip802)" style="stroke:#000000; stroke-linecap:round; stroke-linejoin:round; stroke-width:2; stroke-opacity:0.1; fill:none" points="989.346,1423.18 989.346,47.2441 "/>
<polyline clip-path="url(#clip802)" style="stroke:#000000; stroke-linecap:round; stroke-linejoin:round; stroke-width:2; stroke-opacity:0.1; fill:none" points="1651.88,1423.18 1651.88,47.2441 "/>
<polyline clip-path="url(#clip802)" style="stroke:#000000; stroke-linecap:round; stroke-linejoin:round; stroke-width:2; stroke-opacity:0.1; fill:none" points="2314.41,1423.18 2314.41,47.2441 "/>
<polyline clip-path="url(#clip802)" style="stroke:#000000; stroke-linecap:round; stroke-linejoin:round; stroke-width:2; stroke-opacity:0.1; fill:none" points="302.458,1335.4 2352.76,1335.4 "/>
<polyline clip-path="url(#clip802)" style="stroke:#000000; stroke-linecap:round; stroke-linejoin:round; stroke-width:2; stroke-opacity:0.1; fill:none" points="302.458,1000.46 2352.76,1000.46 "/>
<polyline clip-path="url(#clip802)" style="stroke:#000000; stroke-linecap:round; stroke-linejoin:round; stroke-width:2; stroke-opacity:0.1; fill:none" points="302.458,665.516 2352.76,665.516 "/>
<polyline clip-path="url(#clip802)" style="stroke:#000000; stroke-linecap:round; stroke-linejoin:round; stroke-width:2; stroke-opacity:0.1; fill:none" points="302.458,330.574 2352.76,330.574 "/>
<polyline clip-path="url(#clip800)" style="stroke:#000000; stroke-linecap:round; stroke-linejoin:round; stroke-width:4; stroke-opacity:1; fill:none" points="302.458,1423.18 2352.76,1423.18 "/>
<polyline clip-path="url(#clip800)" style="stroke:#000000; stroke-linecap:round; stroke-linejoin:round; stroke-width:4; stroke-opacity:1; fill:none" points="326.816,1423.18 326.816,1404.28 "/>
<polyline clip-path="url(#clip800)" style="stroke:#000000; stroke-linecap:round; stroke-linejoin:round; stroke-width:4; stroke-opacity:1; fill:none" points="989.346,1423.18 989.346,1404.28 "/>
<polyline clip-path="url(#clip800)" style="stroke:#000000; stroke-linecap:round; stroke-linejoin:round; stroke-width:4; stroke-opacity:1; fill:none" points="1651.88,1423.18 1651.88,1404.28 "/>
<polyline clip-path="url(#clip800)" style="stroke:#000000; stroke-linecap:round; stroke-linejoin:round; stroke-width:4; stroke-opacity:1; fill:none" points="2314.41,1423.18 2314.41,1404.28 "/>
<path clip-path="url(#clip800)" d="M326.816 1454.1 Q323.205 1454.1 321.376 1457.66 Q319.57 1461.2 319.57 1468.33 Q319.57 1475.44 321.376 1479.01 Q323.205 1482.55 326.816 1482.55 Q330.45 1482.55 332.256 1479.01 Q334.084 1475.44 334.084 1468.33 Q334.084 1461.2 332.256 1457.66 Q330.45 1454.1 326.816 1454.1 M326.816 1450.39 Q332.626 1450.39 335.681 1455 Q338.76 1459.58 338.76 1468.33 Q338.76 1477.06 335.681 1481.67 Q332.626 1486.25 326.816 1486.25 Q321.006 1486.25 317.927 1481.67 Q314.871 1477.06 314.871 1468.33 Q314.871 1459.58 317.927 1455 Q321.006 1450.39 326.816 1450.39 Z" fill="#000000" fill-rule="nonzero" fill-opacity="1" /><path clip-path="url(#clip800)" d="M964.034 1481.64 L971.672 1481.64 L971.672 1455.28 L963.362 1456.95 L963.362 1452.69 L971.626 1451.02 L976.302 1451.02 L976.302 1481.64 L983.941 1481.64 L983.941 1485.58 L964.034 1485.58 L964.034 1481.64 Z" fill="#000000" fill-rule="nonzero" fill-opacity="1" /><path clip-path="url(#clip800)" d="M1003.39 1454.1 Q999.774 1454.1 997.945 1457.66 Q996.14 1461.2 996.14 1468.33 Q996.14 1475.44 997.945 1479.01 Q999.774 1482.55 1003.39 1482.55 Q1007.02 1482.55 1008.82 1479.01 Q1010.65 1475.44 1010.65 1468.33 Q1010.65 1461.2 1008.82 1457.66 Q1007.02 1454.1 1003.39 1454.1 M1003.39 1450.39 Q1009.2 1450.39 1012.25 1455 Q1015.33 1459.58 1015.33 1468.33 Q1015.33 1477.06 1012.25 1481.67 Q1009.2 1486.25 1003.39 1486.25 Q997.575 1486.25 994.496 1481.67 Q991.441 1477.06 991.441 1468.33 Q991.441 1459.58 994.496 1455 Q997.575 1450.39 1003.39 1450.39 Z" fill="#000000" fill-rule="nonzero" fill-opacity="1" /><path clip-path="url(#clip800)" d="M1630.65 1481.64 L1646.97 1481.64 L1646.97 1485.58 L1625.02 1485.58 L1625.02 1481.64 Q1627.69 1478.89 1632.27 1474.26 Q1636.88 1469.61 1638.06 1468.27 Q1640.3 1465.74 1641.18 1464.01 Q1642.08 1462.25 1642.08 1460.56 Q1642.08 1457.8 1640.14 1456.07 Q1638.22 1454.33 1635.12 1454.33 Q1632.92 1454.33 1630.46 1455.09 Q1628.03 1455.86 1625.26 1457.41 L1625.26 1452.69 Q1628.08 1451.55 1630.53 1450.97 Q1632.99 1450.39 1635.02 1450.39 Q1640.39 1450.39 1643.59 1453.08 Q1646.78 1455.77 1646.78 1460.26 Q1646.78 1462.39 1645.97 1464.31 Q1645.19 1466.2 1643.08 1468.8 Q1642.5 1469.47 1639.4 1472.69 Q1636.3 1475.88 1630.65 1481.64 Z" fill="#000000" fill-rule="nonzero" fill-opacity="1" /><path clip-path="url(#clip800)" d="M1666.78 1454.1 Q1663.17 1454.1 1661.34 1457.66 Q1659.54 1461.2 1659.54 1468.33 Q1659.54 1475.44 1661.34 1479.01 Q1663.17 1482.55 1666.78 1482.55 Q1670.42 1482.55 1672.22 1479.01 Q1674.05 1475.44 1674.05 1468.33 Q1674.05 1461.2 1672.22 1457.66 Q1670.42 1454.1 1666.78 1454.1 M1666.78 1450.39 Q1672.59 1450.39 1675.65 1455 Q1678.73 1459.58 1678.73 1468.33 Q1678.73 1477.06 1675.65 1481.67 Q1672.59 1486.25 1666.78 1486.25 Q1660.97 1486.25 1657.89 1481.67 Q1654.84 1477.06 1654.84 1468.33 Q1654.84 1459.58 1657.89 1455 Q1660.97 1450.39 1666.78 1450.39 Z" fill="#000000" fill-rule="nonzero" fill-opacity="1" /><path clip-path="url(#clip800)" d="M2303.25 1466.95 Q2306.61 1467.66 2308.48 1469.93 Q2310.38 1472.2 2310.38 1475.53 Q2310.38 1480.65 2306.86 1483.45 Q2303.34 1486.25 2296.86 1486.25 Q2294.68 1486.25 2292.37 1485.81 Q2290.08 1485.39 2287.62 1484.54 L2287.62 1480.02 Q2289.57 1481.16 2291.88 1481.74 Q2294.2 1482.32 2296.72 1482.32 Q2301.12 1482.32 2303.41 1480.58 Q2305.73 1478.84 2305.73 1475.53 Q2305.73 1472.48 2303.57 1470.77 Q2301.44 1469.03 2297.62 1469.03 L2293.6 1469.03 L2293.6 1465.19 L2297.81 1465.19 Q2301.26 1465.19 2303.09 1463.82 Q2304.92 1462.43 2304.92 1459.84 Q2304.92 1457.18 2303.02 1455.77 Q2301.14 1454.33 2297.62 1454.33 Q2295.7 1454.33 2293.5 1454.75 Q2291.3 1455.16 2288.67 1456.04 L2288.67 1451.88 Q2291.33 1451.14 2293.64 1450.77 Q2295.98 1450.39 2298.04 1450.39 Q2303.36 1450.39 2306.47 1452.83 Q2309.57 1455.23 2309.57 1459.35 Q2309.57 1462.22 2307.92 1464.21 Q2306.28 1466.18 2303.25 1466.95 Z" fill="#000000" fill-rule="nonzero" fill-opacity="1" /><path clip-path="url(#clip800)" d="M2329.24 1454.1 Q2325.63 1454.1 2323.8 1457.66 Q2322 1461.2 2322 1468.33 Q2322 1475.44 2323.8 1479.01 Q2325.63 1482.55 2329.24 1482.55 Q2332.88 1482.55 2334.68 1479.01 Q2336.51 1475.44 2336.51 1468.33 Q2336.51 1461.2 2334.68 1457.66 Q2332.88 1454.1 2329.24 1454.1 M2329.24 1450.39 Q2335.05 1450.39 2338.11 1455 Q2341.19 1459.58 2341.19 1468.33 Q2341.19 1477.06 2338.11 1481.67 Q2335.05 1486.25 2329.24 1486.25 Q2323.43 1486.25 2320.36 1481.67 Q2317.3 1477.06 2317.3 1468.33 Q2317.3 1459.58 2320.36 1455 Q2323.43 1450.39 2329.24 1450.39 Z" fill="#000000" fill-rule="nonzero" fill-opacity="1" /><path clip-path="url(#clip800)" d="M998.691 1520.52 L1005.18 1520.52 L1015.18 1560.69 L1025.14 1520.52 L1032.37 1520.52 L1042.36 1560.69 L1052.32 1520.52 L1058.85 1520.52 L1046.91 1568.04 L1038.83 1568.04 L1028.8 1526.79 L1018.68 1568.04 L1010.59 1568.04 L998.691 1520.52 Z" fill="#000000" fill-rule="nonzero" fill-opacity="1" /><path clip-path="url(#clip800)" d="M1079.15 1550.12 Q1072.06 1550.12 1069.32 1551.75 Q1066.58 1553.37 1066.58 1557.29 Q1066.58 1560.4 1068.62 1562.25 Q1070.69 1564.07 1074.22 1564.07 Q1079.09 1564.07 1082.02 1560.63 Q1084.98 1557.16 1084.98 1551.43 L1084.98 1550.12 L1079.15 1550.12 M1090.83 1547.71 L1090.83 1568.04 L1084.98 1568.04 L1084.98 1562.63 Q1082.97 1565.88 1079.98 1567.44 Q1076.99 1568.97 1072.66 1568.97 Q1067.19 1568.97 1063.94 1565.91 Q1060.72 1562.82 1060.72 1557.67 Q1060.72 1551.65 1064.74 1548.6 Q1068.78 1545.54 1076.77 1545.54 L1084.98 1545.54 L1084.98 1544.97 Q1084.98 1540.93 1082.3 1538.73 Q1079.66 1536.5 1074.86 1536.5 Q1071.8 1536.5 1068.9 1537.23 Q1066.01 1537.97 1063.33 1539.43 L1063.33 1534.02 Q1066.55 1532.78 1069.57 1532.17 Q1072.6 1531.54 1075.46 1531.54 Q1083.2 1531.54 1087.02 1535.55 Q1090.83 1539.56 1090.83 1547.71 Z" fill="#000000" fill-rule="nonzero" fill-opacity="1" /><path clip-path="url(#clip800)" d="M1102.9 1518.52 L1108.75 1518.52 L1108.75 1568.04 L1102.9 1568.04 L1102.9 1518.52 Z" fill="#000000" fill-rule="nonzero" fill-opacity="1" /><path clip-path="url(#clip800)" d="M1121.01 1518.52 L1126.86 1518.52 L1126.86 1568.04 L1121.01 1568.04 L1121.01 1518.52 Z" fill="#000000" fill-rule="nonzero" fill-opacity="1" /><path clip-path="url(#clip800)" d="M1164.77 1533.76 L1164.77 1539.24 Q1162.29 1537.87 1159.78 1537.2 Q1157.29 1536.5 1154.75 1536.5 Q1149.05 1536.5 1145.9 1540.13 Q1142.75 1543.73 1142.75 1550.25 Q1142.75 1556.78 1145.9 1560.4 Q1149.05 1564 1154.75 1564 Q1157.29 1564 1159.78 1563.33 Q1162.29 1562.63 1164.77 1561.26 L1164.77 1566.68 Q1162.32 1567.82 1159.68 1568.39 Q1157.07 1568.97 1154.11 1568.97 Q1146.06 1568.97 1141.31 1563.91 Q1136.57 1558.85 1136.57 1550.25 Q1136.57 1541.53 1141.35 1536.53 Q1146.15 1531.54 1154.49 1531.54 Q1157.2 1531.54 1159.78 1532.11 Q1162.35 1532.65 1164.77 1533.76 Z" fill="#000000" fill-rule="nonzero" fill-opacity="1" /><path clip-path="url(#clip800)" d="M1174.96 1518.52 L1180.81 1518.52 L1180.81 1568.04 L1174.96 1568.04 L1174.96 1518.52 Z" fill="#000000" fill-rule="nonzero" fill-opacity="1" /><path clip-path="url(#clip800)" d="M1206.88 1536.5 Q1202.17 1536.5 1199.43 1540.19 Q1196.7 1543.85 1196.7 1550.25 Q1196.7 1556.65 1199.4 1560.34 Q1202.14 1564 1206.88 1564 Q1211.56 1564 1214.3 1560.31 Q1217.03 1556.62 1217.03 1550.25 Q1217.03 1543.92 1214.3 1540.23 Q1211.56 1536.5 1206.88 1536.5 M1206.88 1531.54 Q1214.52 1531.54 1218.88 1536.5 Q1223.24 1541.47 1223.24 1550.25 Q1223.24 1559 1218.88 1564 Q1214.52 1568.97 1206.88 1568.97 Q1199.21 1568.97 1194.85 1564 Q1190.52 1559 1190.52 1550.25 Q1190.52 1541.47 1194.85 1536.5 Q1199.21 1531.54 1206.88 1531.54 Z" fill="#000000" fill-rule="nonzero" fill-opacity="1" /><path clip-path="url(#clip800)" d="M1258.6 1533.76 L1258.6 1539.24 Q1256.12 1537.87 1253.61 1537.2 Q1251.12 1536.5 1248.58 1536.5 Q1242.88 1536.5 1239.73 1540.13 Q1236.58 1543.73 1236.58 1550.25 Q1236.58 1556.78 1239.73 1560.4 Q1242.88 1564 1248.58 1564 Q1251.12 1564 1253.61 1563.33 Q1256.12 1562.63 1258.6 1561.26 L1258.6 1566.68 Q1256.15 1567.82 1253.51 1568.39 Q1250.9 1568.97 1247.94 1568.97 Q1239.89 1568.97 1235.15 1563.91 Q1230.4 1558.85 1230.4 1550.25 Q1230.4 1541.53 1235.18 1536.53 Q1239.98 1531.54 1248.32 1531.54 Q1251.03 1531.54 1253.61 1532.11 Q1256.18 1532.65 1258.6 1533.76 Z" fill="#000000" fill-rule="nonzero" fill-opacity="1" /><path clip-path="url(#clip800)" d="M1268.57 1518.52 L1274.45 1518.52 L1274.45 1547.77 L1291.93 1532.4 L1299.41 1532.4 L1280.5 1549.07 L1300.2 1568.04 L1292.56 1568.04 L1274.45 1550.63 L1274.45 1568.04 L1268.57 1568.04 L1268.57 1518.52 Z" fill="#000000" fill-rule="nonzero" fill-opacity="1" /><path clip-path="url(#clip800)" d="M1320.92 1520.52 L1361.12 1520.52 L1361.12 1525.93 L1344.25 1525.93 L1344.25 1568.04 L1337.79 1568.04 L1337.79 1525.93 L1320.92 1525.93 L1320.92 1520.52 Z" fill="#000000" fill-rule="nonzero" fill-opacity="1" /><path clip-path="url(#clip800)" d="M1365.07 1532.4 L1370.93 1532.4 L1370.93 1568.04 L1365.07 1568.04 L1365.07 1532.4 M1365.07 1518.52 L1370.93 1518.52 L1370.93 1525.93 L1365.07 1525.93 L1365.07 1518.52 Z" fill="#000000" fill-rule="nonzero" fill-opacity="1" /><path clip-path="url(#clip800)" d="M1410.93 1539.24 Q1413.13 1535.29 1416.19 1533.41 Q1419.24 1531.54 1423.38 1531.54 Q1428.95 1531.54 1431.97 1535.45 Q1435 1539.33 1435 1546.53 L1435 1568.04 L1429.11 1568.04 L1429.11 1546.72 Q1429.11 1541.59 1427.29 1539.11 Q1425.48 1536.63 1421.76 1536.63 Q1417.2 1536.63 1414.56 1539.65 Q1411.92 1542.68 1411.92 1547.9 L1411.92 1568.04 L1406.03 1568.04 L1406.03 1546.72 Q1406.03 1541.56 1404.22 1539.11 Q1402.4 1536.63 1398.62 1536.63 Q1394.13 1536.63 1391.49 1539.68 Q1388.85 1542.71 1388.85 1547.9 L1388.85 1568.04 L1382.96 1568.04 L1382.96 1532.4 L1388.85 1532.4 L1388.85 1537.93 Q1390.85 1534.66 1393.65 1533.1 Q1396.45 1531.54 1400.3 1531.54 Q1404.19 1531.54 1406.89 1533.51 Q1409.63 1535.48 1410.93 1539.24 Z" fill="#000000" fill-rule="nonzero" fill-opacity="1" /><path clip-path="url(#clip800)" d="M1477.17 1548.76 L1477.17 1551.62 L1450.24 1551.62 Q1450.62 1557.67 1453.87 1560.85 Q1457.15 1564 1462.97 1564 Q1466.35 1564 1469.5 1563.17 Q1472.68 1562.35 1475.8 1560.69 L1475.8 1566.23 Q1472.65 1567.57 1469.34 1568.27 Q1466.03 1568.97 1462.62 1568.97 Q1454.09 1568.97 1449.1 1564 Q1444.13 1559.04 1444.13 1550.57 Q1444.13 1541.82 1448.84 1536.69 Q1453.58 1531.54 1461.61 1531.54 Q1468.8 1531.54 1472.97 1536.18 Q1477.17 1540.8 1477.17 1548.76 M1471.31 1547.04 Q1471.25 1542.23 1468.61 1539.37 Q1466 1536.5 1461.67 1536.5 Q1456.77 1536.5 1453.81 1539.27 Q1450.88 1542.04 1450.43 1547.07 L1471.31 1547.04 Z" fill="#000000" fill-rule="nonzero" fill-opacity="1" /><path clip-path="url(#clip800)" d="M1521.57 1518.58 Q1517.31 1525.9 1515.24 1533.06 Q1513.17 1540.23 1513.17 1547.58 Q1513.17 1554.93 1515.24 1562.16 Q1517.34 1569.35 1521.57 1576.64 L1516.48 1576.64 Q1511.7 1569.16 1509.32 1561.93 Q1506.96 1554.71 1506.96 1547.58 Q1506.96 1540.48 1509.32 1533.29 Q1511.67 1526.09 1516.48 1518.58 L1521.57 1518.58 Z" fill="#000000" fill-rule="nonzero" fill-opacity="1" /><path clip-path="url(#clip800)" d="M1555.66 1533.45 L1555.66 1538.98 Q1553.18 1537.71 1550.5 1537.07 Q1547.83 1536.44 1544.96 1536.44 Q1540.6 1536.44 1538.41 1537.77 Q1536.24 1539.11 1536.24 1541.79 Q1536.24 1543.82 1537.8 1545 Q1539.36 1546.15 1544.07 1547.2 L1546.08 1547.64 Q1552.32 1548.98 1554.93 1551.43 Q1557.57 1553.85 1557.57 1558.21 Q1557.57 1563.17 1553.62 1566.07 Q1549.71 1568.97 1542.83 1568.97 Q1539.97 1568.97 1536.85 1568.39 Q1533.76 1567.85 1530.32 1566.74 L1530.32 1560.69 Q1533.57 1562.38 1536.72 1563.24 Q1539.87 1564.07 1542.96 1564.07 Q1547.1 1564.07 1549.32 1562.66 Q1551.55 1561.23 1551.55 1558.65 Q1551.55 1556.27 1549.93 1554.99 Q1548.34 1553.72 1542.9 1552.54 L1540.86 1552.07 Q1535.42 1550.92 1533 1548.56 Q1530.58 1546.18 1530.58 1542.04 Q1530.58 1537.01 1534.14 1534.27 Q1537.71 1531.54 1544.26 1531.54 Q1547.51 1531.54 1550.38 1532.01 Q1553.24 1532.49 1555.66 1533.45 Z" fill="#000000" fill-rule="nonzero" fill-opacity="1" /><path clip-path="url(#clip800)" d="M1597.39 1548.76 L1597.39 1551.62 L1570.46 1551.62 Q1570.84 1557.67 1574.09 1560.85 Q1577.37 1564 1583.19 1564 Q1586.56 1564 1589.72 1563.17 Q1592.9 1562.35 1596.02 1560.69 L1596.02 1566.23 Q1592.87 1567.57 1589.56 1568.27 Q1586.25 1568.97 1582.84 1568.97 Q1574.31 1568.97 1569.31 1564 Q1564.35 1559.04 1564.35 1550.57 Q1564.35 1541.82 1569.06 1536.69 Q1573.8 1531.54 1581.82 1531.54 Q1589.01 1531.54 1593.18 1536.18 Q1597.39 1540.8 1597.39 1548.76 M1591.53 1547.04 Q1591.47 1542.23 1588.82 1539.37 Q1586.21 1536.5 1581.89 1536.5 Q1576.98 1536.5 1574.02 1539.27 Q1571.1 1542.04 1570.65 1547.07 L1591.53 1547.04 Z" fill="#000000" fill-rule="nonzero" fill-opacity="1" /><path clip-path="url(#clip800)" d="M1632.65 1533.76 L1632.65 1539.24 Q1630.17 1537.87 1627.65 1537.2 Q1625.17 1536.5 1622.63 1536.5 Q1616.93 1536.5 1613.78 1540.13 Q1610.63 1543.73 1610.63 1550.25 Q1610.63 1556.78 1613.78 1560.4 Q1616.93 1564 1622.63 1564 Q1625.17 1564 1627.65 1563.33 Q1630.17 1562.63 1632.65 1561.26 L1632.65 1566.68 Q1630.2 1567.82 1627.56 1568.39 Q1624.95 1568.97 1621.99 1568.97 Q1613.94 1568.97 1609.19 1563.91 Q1604.45 1558.85 1604.45 1550.25 Q1604.45 1541.53 1609.23 1536.53 Q1614.03 1531.54 1622.37 1531.54 Q1625.08 1531.54 1627.65 1532.11 Q1630.23 1532.65 1632.65 1533.76 Z" fill="#000000" fill-rule="nonzero" fill-opacity="1" /><path clip-path="url(#clip800)" d="M1641.91 1518.58 L1647.01 1518.58 Q1651.78 1526.09 1654.14 1533.29 Q1656.52 1540.48 1656.52 1547.58 Q1656.52 1554.71 1654.14 1561.93 Q1651.78 1569.16 1647.01 1576.64 L1641.91 1576.64 Q1646.15 1569.35 1648.22 1562.16 Q1650.32 1554.93 1650.32 1547.58 Q1650.32 1540.23 1648.22 1533.06 Q1646.15 1525.9 1641.91 1518.58 Z" fill="#000000" fill-rule="nonzero" fill-opacity="1" /><polyline clip-path="url(#clip800)" style="stroke:#000000; stroke-linecap:round; stroke-linejoin:round; stroke-width:4; stroke-opacity:1; fill:none" points="302.458,1423.18 302.458,47.2441 "/>
<polyline clip-path="url(#clip800)" style="stroke:#000000; stroke-linecap:round; stroke-linejoin:round; stroke-width:4; stroke-opacity:1; fill:none" points="302.458,1335.4 321.356,1335.4 "/>
<polyline clip-path="url(#clip800)" style="stroke:#000000; stroke-linecap:round; stroke-linejoin:round; stroke-width:4; stroke-opacity:1; fill:none" points="302.458,1000.46 321.356,1000.46 "/>
<polyline clip-path="url(#clip800)" style="stroke:#000000; stroke-linecap:round; stroke-linejoin:round; stroke-width:4; stroke-opacity:1; fill:none" points="302.458,665.516 321.356,665.516 "/>
<polyline clip-path="url(#clip800)" style="stroke:#000000; stroke-linecap:round; stroke-linejoin:round; stroke-width:4; stroke-opacity:1; fill:none" points="302.458,330.574 321.356,330.574 "/>
<path clip-path="url(#clip800)" d="M114.26 1335.85 L143.936 1335.85 L143.936 1339.79 L114.26 1339.79 L114.26 1335.85 Z" fill="#000000" fill-rule="nonzero" fill-opacity="1" /><path clip-path="url(#clip800)" d="M152.848 1318.12 L175.07 1318.12 L175.07 1320.11 L162.524 1352.68 L157.64 1352.68 L169.445 1322.06 L152.848 1322.06 L152.848 1318.12 Z" fill="#000000" fill-rule="nonzero" fill-opacity="1" /><path clip-path="url(#clip800)" d="M184.237 1318.12 L202.593 1318.12 L202.593 1322.06 L188.519 1322.06 L188.519 1330.53 Q189.538 1330.18 190.556 1330.02 Q191.575 1329.83 192.593 1329.83 Q198.38 1329.83 201.76 1333 Q205.139 1336.18 205.139 1341.59 Q205.139 1347.17 201.667 1350.27 Q198.195 1353.35 191.875 1353.35 Q189.7 1353.35 187.431 1352.98 Q185.186 1352.61 182.778 1351.87 L182.778 1347.17 Q184.862 1348.31 187.084 1348.86 Q189.306 1349.42 191.783 1349.42 Q195.787 1349.42 198.125 1347.31 Q200.463 1345.2 200.463 1341.59 Q200.463 1337.98 198.125 1335.88 Q195.787 1333.77 191.783 1333.77 Q189.908 1333.77 188.033 1334.19 Q186.181 1334.6 184.237 1335.48 L184.237 1318.12 Z" fill="#000000" fill-rule="nonzero" fill-opacity="1" /><path clip-path="url(#clip800)" d="M224.352 1321.2 Q220.741 1321.2 218.912 1324.76 Q217.107 1328.31 217.107 1335.44 Q217.107 1342.54 218.912 1346.11 Q220.741 1349.65 224.352 1349.65 Q227.986 1349.65 229.792 1346.11 Q231.621 1342.54 231.621 1335.44 Q231.621 1328.31 229.792 1324.76 Q227.986 1321.2 224.352 1321.2 M224.352 1317.5 Q230.162 1317.5 233.218 1322.1 Q236.297 1326.69 236.297 1335.44 Q236.297 1344.16 233.218 1348.77 Q230.162 1353.35 224.352 1353.35 Q218.542 1353.35 215.463 1348.77 Q212.408 1344.16 212.408 1335.44 Q212.408 1326.69 215.463 1322.1 Q218.542 1317.5 224.352 1317.5 Z" fill="#000000" fill-rule="nonzero" fill-opacity="1" /><path clip-path="url(#clip800)" d="M254.514 1321.2 Q250.903 1321.2 249.074 1324.76 Q247.269 1328.31 247.269 1335.44 Q247.269 1342.54 249.074 1346.11 Q250.903 1349.65 254.514 1349.65 Q258.148 1349.65 259.954 1346.11 Q261.783 1342.54 261.783 1335.44 Q261.783 1328.31 259.954 1324.76 Q258.148 1321.2 254.514 1321.2 M254.514 1317.5 Q260.324 1317.5 263.38 1322.1 Q266.458 1326.69 266.458 1335.44 Q266.458 1344.16 263.38 1348.77 Q260.324 1353.35 254.514 1353.35 Q248.704 1353.35 245.625 1348.77 Q242.57 1344.16 242.57 1335.44 Q242.57 1326.69 245.625 1322.1 Q248.704 1317.5 254.514 1317.5 Z" fill="#000000" fill-rule="nonzero" fill-opacity="1" /><path clip-path="url(#clip800)" d="M114.26 1000.91 L143.936 1000.91 L143.936 1004.84 L114.26 1004.84 L114.26 1000.91 Z" fill="#000000" fill-rule="nonzero" fill-opacity="1" /><path clip-path="url(#clip800)" d="M152.848 983.178 L175.07 983.178 L175.07 985.169 L162.524 1017.74 L157.64 1017.74 L169.445 987.113 L152.848 987.113 L152.848 983.178 Z" fill="#000000" fill-rule="nonzero" fill-opacity="1" /><path clip-path="url(#clip800)" d="M194.19 986.257 Q190.579 986.257 188.75 989.822 Q186.945 993.363 186.945 1000.49 Q186.945 1007.6 188.75 1011.16 Q190.579 1014.71 194.19 1014.71 Q197.825 1014.71 199.63 1011.16 Q201.459 1007.6 201.459 1000.49 Q201.459 993.363 199.63 989.822 Q197.825 986.257 194.19 986.257 M194.19 982.553 Q200 982.553 203.056 987.16 Q206.135 991.743 206.135 1000.49 Q206.135 1009.22 203.056 1013.83 Q200 1018.41 194.19 1018.41 Q188.38 1018.41 185.301 1013.83 Q182.246 1009.22 182.246 1000.49 Q182.246 991.743 185.301 987.16 Q188.38 982.553 194.19 982.553 Z" fill="#000000" fill-rule="nonzero" fill-opacity="1" /><path clip-path="url(#clip800)" d="M224.352 986.257 Q220.741 986.257 218.912 989.822 Q217.107 993.363 217.107 1000.49 Q217.107 1007.6 218.912 1011.16 Q220.741 1014.71 224.352 1014.71 Q227.986 1014.71 229.792 1011.16 Q231.621 1007.6 231.621 1000.49 Q231.621 993.363 229.792 989.822 Q227.986 986.257 224.352 986.257 M224.352 982.553 Q230.162 982.553 233.218 987.16 Q236.297 991.743 236.297 1000.49 Q236.297 1009.22 233.218 1013.83 Q230.162 1018.41 224.352 1018.41 Q218.542 1018.41 215.463 1013.83 Q212.408 1009.22 212.408 1000.49 Q212.408 991.743 215.463 987.16 Q218.542 982.553 224.352 982.553 Z" fill="#000000" fill-rule="nonzero" fill-opacity="1" /><path clip-path="url(#clip800)" d="M254.514 986.257 Q250.903 986.257 249.074 989.822 Q247.269 993.363 247.269 1000.49 Q247.269 1007.6 249.074 1011.16 Q250.903 1014.71 254.514 1014.71 Q258.148 1014.71 259.954 1011.16 Q261.783 1007.6 261.783 1000.49 Q261.783 993.363 259.954 989.822 Q258.148 986.257 254.514 986.257 M254.514 982.553 Q260.324 982.553 263.38 987.16 Q266.458 991.743 266.458 1000.49 Q266.458 1009.22 263.38 1013.83 Q260.324 1018.41 254.514 1018.41 Q248.704 1018.41 245.625 1013.83 Q242.57 1009.22 242.57 1000.49 Q242.57 991.743 245.625 987.16 Q248.704 982.553 254.514 982.553 Z" fill="#000000" fill-rule="nonzero" fill-opacity="1" /><path clip-path="url(#clip800)" d="M114.26 665.967 L143.936 665.967 L143.936 669.902 L114.26 669.902 L114.26 665.967 Z" fill="#000000" fill-rule="nonzero" fill-opacity="1" /><path clip-path="url(#clip800)" d="M164.607 663.652 Q161.459 663.652 159.607 665.805 Q157.778 667.958 157.778 671.708 Q157.778 675.435 159.607 677.611 Q161.459 679.763 164.607 679.763 Q167.755 679.763 169.584 677.611 Q171.436 675.435 171.436 671.708 Q171.436 667.958 169.584 665.805 Q167.755 663.652 164.607 663.652 M173.889 649 L173.889 653.259 Q172.13 652.426 170.325 651.986 Q168.542 651.546 166.783 651.546 Q162.153 651.546 159.7 654.671 Q157.269 657.796 156.922 664.115 Q158.288 662.102 160.348 661.037 Q162.408 659.949 164.885 659.949 Q170.093 659.949 173.102 663.12 Q176.135 666.268 176.135 671.708 Q176.135 677.032 172.987 680.25 Q169.839 683.467 164.607 683.467 Q158.612 683.467 155.44 678.884 Q152.269 674.277 152.269 665.551 Q152.269 657.356 156.158 652.495 Q160.047 647.611 166.598 647.611 Q168.357 647.611 170.139 647.958 Q171.945 648.305 173.889 649 Z" fill="#000000" fill-rule="nonzero" fill-opacity="1" /><path clip-path="url(#clip800)" d="M184.237 648.236 L202.593 648.236 L202.593 652.171 L188.519 652.171 L188.519 660.643 Q189.538 660.296 190.556 660.134 Q191.575 659.949 192.593 659.949 Q198.38 659.949 201.76 663.12 Q205.139 666.291 205.139 671.708 Q205.139 677.287 201.667 680.388 Q198.195 683.467 191.875 683.467 Q189.7 683.467 187.431 683.097 Q185.186 682.726 182.778 681.986 L182.778 677.287 Q184.862 678.421 187.084 678.976 Q189.306 679.532 191.783 679.532 Q195.787 679.532 198.125 677.426 Q200.463 675.319 200.463 671.708 Q200.463 668.097 198.125 665.99 Q195.787 663.884 191.783 663.884 Q189.908 663.884 188.033 664.301 Q186.181 664.717 184.237 665.597 L184.237 648.236 Z" fill="#000000" fill-rule="nonzero" fill-opacity="1" /><path clip-path="url(#clip800)" d="M224.352 651.315 Q220.741 651.315 218.912 654.879 Q217.107 658.421 217.107 665.551 Q217.107 672.657 218.912 676.222 Q220.741 679.763 224.352 679.763 Q227.986 679.763 229.792 676.222 Q231.621 672.657 231.621 665.551 Q231.621 658.421 229.792 654.879 Q227.986 651.315 224.352 651.315 M224.352 647.611 Q230.162 647.611 233.218 652.217 Q236.297 656.801 236.297 665.551 Q236.297 674.277 233.218 678.884 Q230.162 683.467 224.352 683.467 Q218.542 683.467 215.463 678.884 Q212.408 674.277 212.408 665.551 Q212.408 656.801 215.463 652.217 Q218.542 647.611 224.352 647.611 Z" fill="#000000" fill-rule="nonzero" fill-opacity="1" /><path clip-path="url(#clip800)" d="M254.514 651.315 Q250.903 651.315 249.074 654.879 Q247.269 658.421 247.269 665.551 Q247.269 672.657 249.074 676.222 Q250.903 679.763 254.514 679.763 Q258.148 679.763 259.954 676.222 Q261.783 672.657 261.783 665.551 Q261.783 658.421 259.954 654.879 Q258.148 651.315 254.514 651.315 M254.514 647.611 Q260.324 647.611 263.38 652.217 Q266.458 656.801 266.458 665.551 Q266.458 674.277 263.38 678.884 Q260.324 683.467 254.514 683.467 Q248.704 683.467 245.625 678.884 Q242.57 674.277 242.57 665.551 Q242.57 656.801 245.625 652.217 Q248.704 647.611 254.514 647.611 Z" fill="#000000" fill-rule="nonzero" fill-opacity="1" /><path clip-path="url(#clip800)" d="M114.26 331.025 L143.936 331.025 L143.936 334.96 L114.26 334.96 L114.26 331.025 Z" fill="#000000" fill-rule="nonzero" fill-opacity="1" /><path clip-path="url(#clip800)" d="M164.607 328.71 Q161.459 328.71 159.607 330.863 Q157.778 333.016 157.778 336.766 Q157.778 340.492 159.607 342.668 Q161.459 344.821 164.607 344.821 Q167.755 344.821 169.584 342.668 Q171.436 340.492 171.436 336.766 Q171.436 333.016 169.584 330.863 Q167.755 328.71 164.607 328.71 M173.889 314.057 L173.889 318.317 Q172.13 317.483 170.325 317.044 Q168.542 316.604 166.783 316.604 Q162.153 316.604 159.7 319.729 Q157.269 322.854 156.922 329.173 Q158.288 327.159 160.348 326.094 Q162.408 325.006 164.885 325.006 Q170.093 325.006 173.102 328.178 Q176.135 331.326 176.135 336.766 Q176.135 342.09 172.987 345.307 Q169.839 348.525 164.607 348.525 Q158.612 348.525 155.44 343.942 Q152.269 339.335 152.269 330.608 Q152.269 322.414 156.158 317.553 Q160.047 312.669 166.598 312.669 Q168.357 312.669 170.139 313.016 Q171.945 313.363 173.889 314.057 Z" fill="#000000" fill-rule="nonzero" fill-opacity="1" /><path clip-path="url(#clip800)" d="M194.19 316.372 Q190.579 316.372 188.75 319.937 Q186.945 323.479 186.945 330.608 Q186.945 337.715 188.75 341.279 Q190.579 344.821 194.19 344.821 Q197.825 344.821 199.63 341.279 Q201.459 337.715 201.459 330.608 Q201.459 323.479 199.63 319.937 Q197.825 316.372 194.19 316.372 M194.19 312.669 Q200 312.669 203.056 317.275 Q206.135 321.858 206.135 330.608 Q206.135 339.335 203.056 343.942 Q200 348.525 194.19 348.525 Q188.38 348.525 185.301 343.942 Q182.246 339.335 182.246 330.608 Q182.246 321.858 185.301 317.275 Q188.38 312.669 194.19 312.669 Z" fill="#000000" fill-rule="nonzero" fill-opacity="1" /><path clip-path="url(#clip800)" d="M224.352 316.372 Q220.741 316.372 218.912 319.937 Q217.107 323.479 217.107 330.608 Q217.107 337.715 218.912 341.279 Q220.741 344.821 224.352 344.821 Q227.986 344.821 229.792 341.279 Q231.621 337.715 231.621 330.608 Q231.621 323.479 229.792 319.937 Q227.986 316.372 224.352 316.372 M224.352 312.669 Q230.162 312.669 233.218 317.275 Q236.297 321.858 236.297 330.608 Q236.297 339.335 233.218 343.942 Q230.162 348.525 224.352 348.525 Q218.542 348.525 215.463 343.942 Q212.408 339.335 212.408 330.608 Q212.408 321.858 215.463 317.275 Q218.542 312.669 224.352 312.669 Z" fill="#000000" fill-rule="nonzero" fill-opacity="1" /><path clip-path="url(#clip800)" d="M254.514 316.372 Q250.903 316.372 249.074 319.937 Q247.269 323.479 247.269 330.608 Q247.269 337.715 249.074 341.279 Q250.903 344.821 254.514 344.821 Q258.148 344.821 259.954 341.279 Q261.783 337.715 261.783 330.608 Q261.783 323.479 259.954 319.937 Q258.148 316.372 254.514 316.372 M254.514 312.669 Q260.324 312.669 263.38 317.275 Q266.458 321.858 266.458 330.608 Q266.458 339.335 263.38 343.942 Q260.324 348.525 254.514 348.525 Q248.704 348.525 245.625 343.942 Q242.57 339.335 242.57 330.608 Q242.57 321.858 245.625 317.275 Q248.704 312.669 254.514 312.669 Z" fill="#000000" fill-rule="nonzero" fill-opacity="1" /><path clip-path="url(#clip800)" d="M16.4842 816.375 L16.4842 786.329 L21.895 786.329 L21.895 809.945 L35.9632 809.945 L35.9632 787.315 L41.3741 787.315 L41.3741 809.945 L58.5933 809.945 L58.5933 785.756 L64.0042 785.756 L64.0042 816.375 L16.4842 816.375 Z" fill="#000000" fill-rule="nonzero" fill-opacity="1" /><path clip-path="url(#clip800)" d="M16.4842 775.189 L16.4842 768.759 L58.5933 768.759 L58.5933 745.62 L64.0042 745.62 L64.0042 775.189 L16.4842 775.189 Z" fill="#000000" fill-rule="nonzero" fill-opacity="1" /><path clip-path="url(#clip800)" d="M41.3104 732.443 L58.7206 732.443 L58.7206 722.13 Q58.7206 716.942 56.5881 714.46 Q54.4238 711.945 49.9996 711.945 Q45.5436 711.945 43.4429 714.46 Q41.3104 716.942 41.3104 722.13 L41.3104 732.443 M21.7677 732.443 L36.0905 732.443 L36.0905 722.926 Q36.0905 718.216 34.34 715.924 Q32.5576 713.6 28.9291 713.6 Q25.3325 713.6 23.5501 715.924 Q21.7677 718.216 21.7677 722.926 L21.7677 732.443 M16.4842 738.872 L16.4842 722.449 Q16.4842 715.096 19.5397 711.118 Q22.5952 707.139 28.2289 707.139 Q32.5894 707.139 35.1675 709.176 Q37.7456 711.213 38.3822 715.16 Q39.4007 710.418 42.6472 707.808 Q45.8619 705.166 50.6998 705.166 Q57.0655 705.166 60.5348 709.495 Q64.0042 713.823 64.0042 721.812 L64.0042 738.872 L16.4842 738.872 Z" fill="#000000" fill-rule="nonzero" fill-opacity="1" /><path clip-path="url(#clip800)" d="M20.8447 676.011 Q20.8447 683.013 26.0645 687.151 Q31.2844 691.257 40.2919 691.257 Q49.2675 691.257 54.4874 687.151 Q59.7073 683.013 59.7073 676.011 Q59.7073 669.009 54.4874 664.935 Q49.2675 660.829 40.2919 660.829 Q31.2844 660.829 26.0645 664.935 Q20.8447 669.009 20.8447 676.011 M15.6248 676.011 Q15.6248 666.017 22.3406 660.033 Q29.0246 654.049 40.2919 654.049 Q51.5274 654.049 58.2432 660.033 Q64.9272 666.017 64.9272 676.011 Q64.9272 686.037 58.2432 692.052 Q51.5592 698.036 40.2919 698.036 Q29.0246 698.036 22.3406 692.052 Q15.6248 686.037 15.6248 676.011 Z" fill="#000000" fill-rule="nonzero" fill-opacity="1" /><polyline clip-path="url(#clip802)" style="stroke:#009af9; stroke-linecap:round; stroke-linejoin:round; stroke-width:4; stroke-opacity:1; fill:none" points="407.887,1375.85 474.177,1099.61 534.172,931.169 593.207,843.84 652.636,810.905 711.285,792.447 770.532,714.659 829.911,677.916 889.024,651.946 950.983,649.698 1008.07,626.536 1065.26,598.206 1122.74,563.217 1179.4,521.203 1236.99,491.26 1294.82,450.437 1354.4,421.347 1411.76,403.032 1514.35,396.643 1574.26,362.141 1635.02,358.084 1695.71,337.799 1755.71,290.76 1816.68,267.925 1879.08,233.969 1939.31,210.649 1999.81,194.765 2058.14,157.63 2117.37,138.279 2178.23,128.453 2236.91,111.977 2294.73,86.1857 "/>
<polyline clip-path="url(#clip802)" style="stroke:#e26f46; stroke-linecap:round; stroke-linejoin:round; stroke-width:4; stroke-opacity:1; fill:none" points="360.486,1348.17 389.381,1384.24 401.199,1054.89 412.217,1010.53 426.064,915.107 437.511,845.281 448.114,818.567 458.99,823.097 469.685,785.178 480.302,751.72 491.375,746.291 502.003,706.34 512.988,676.422 523.664,658.872 534.32,635.066 545.343,627.363 556.191,609.851 567.006,580.674 578.056,553.885 588.598,528.35 599.598,498.381 610.317,482.088 620.996,470.194 632.09,452.054 642.833,427.435 653.895,401.874 664.762,397.85 675.397,370.102 686.465,356.293 697.12,340.493 707.807,308.52 718.848,288.259 "/>
<path clip-path="url(#clip800)" d="M1780.08 1377.32 L2284.41 1377.32 L2284.41 1221.8 L1780.08 1221.8  Z" fill="#ffffff" fill-rule="evenodd" fill-opacity="1"/>
<polyline clip-path="url(#clip800)" style="stroke:#000000; stroke-linecap:round; stroke-linejoin:round; stroke-width:4; stroke-opacity:1; fill:none" points="1780.08,1377.32 2284.41,1377.32 2284.41,1221.8 1780.08,1221.8 1780.08,1377.32 "/>
<polyline clip-path="url(#clip800)" style="stroke:#009af9; stroke-linecap:round; stroke-linejoin:round; stroke-width:4; stroke-opacity:1; fill:none" points="1802.86,1273.64 1939.55,1273.64 "/>
<path clip-path="url(#clip800)" d="M1962.33 1256.36 L1982.19 1256.36 L1982.19 1260.29 L1967 1260.29 L1967 1270.48 L1980.71 1270.48 L1980.71 1274.41 L1967 1274.41 L1967 1290.92 L1962.33 1290.92 L1962.33 1256.36 Z" fill="#000000" fill-rule="nonzero" fill-opacity="1" /><path clip-path="url(#clip800)" d="M1986.38 1280.68 L1986.38 1264.99 L1990.64 1264.99 L1990.64 1280.52 Q1990.64 1284.2 1992.07 1286.05 Q1993.51 1287.88 1996.38 1287.88 Q1999.83 1287.88 2001.82 1285.68 Q2003.83 1283.48 2003.83 1279.69 L2003.83 1264.99 L2008.09 1264.99 L2008.09 1290.92 L2003.83 1290.92 L2003.83 1286.93 Q2002.28 1289.29 2000.22 1290.45 Q1998.18 1291.59 1995.48 1291.59 Q1991.01 1291.59 1988.69 1288.81 Q1986.38 1286.03 1986.38 1280.68 M1997.1 1264.36 L1997.1 1264.36 Z" fill="#000000" fill-rule="nonzero" fill-opacity="1" /><path clip-path="url(#clip800)" d="M2016.86 1254.9 L2021.12 1254.9 L2021.12 1290.92 L2016.86 1290.92 L2016.86 1254.9 Z" fill="#000000" fill-rule="nonzero" fill-opacity="1" /><path clip-path="url(#clip800)" d="M2030.04 1254.9 L2034.29 1254.9 L2034.29 1290.92 L2030.04 1290.92 L2030.04 1254.9 Z" fill="#000000" fill-rule="nonzero" fill-opacity="1" /><path clip-path="url(#clip800)" d="M2063.14 1274.41 L2063.14 1287.07 L2070.64 1287.07 Q2074.41 1287.07 2076.22 1285.52 Q2078.04 1283.95 2078.04 1280.73 Q2078.04 1277.49 2076.22 1275.96 Q2074.41 1274.41 2070.64 1274.41 L2063.14 1274.41 M2063.14 1260.2 L2063.14 1270.61 L2070.06 1270.61 Q2073.48 1270.61 2075.15 1269.34 Q2076.84 1268.05 2076.84 1265.41 Q2076.84 1262.79 2075.15 1261.49 Q2073.48 1260.2 2070.06 1260.2 L2063.14 1260.2 M2058.46 1256.36 L2070.41 1256.36 Q2075.75 1256.36 2078.65 1258.58 Q2081.54 1260.8 2081.54 1264.9 Q2081.54 1268.07 2080.06 1269.94 Q2078.58 1271.82 2075.71 1272.28 Q2079.16 1273.02 2081.05 1275.38 Q2082.98 1277.72 2082.98 1281.24 Q2082.98 1285.87 2079.83 1288.39 Q2076.68 1290.92 2070.87 1290.92 L2058.46 1290.92 L2058.46 1256.36 Z" fill="#000000" fill-rule="nonzero" fill-opacity="1" /><path clip-path="url(#clip800)" d="M2102.58 1277.88 Q2097.42 1277.88 2095.43 1279.06 Q2093.44 1280.24 2093.44 1283.09 Q2093.44 1285.36 2094.92 1286.7 Q2096.42 1288.02 2098.99 1288.02 Q2102.54 1288.02 2104.66 1285.52 Q2106.82 1283 2106.82 1278.83 L2106.82 1277.88 L2102.58 1277.88 M2111.08 1276.12 L2111.08 1290.92 L2106.82 1290.92 L2106.82 1286.98 Q2105.36 1289.34 2103.18 1290.48 Q2101.01 1291.59 2097.86 1291.59 Q2093.88 1291.59 2091.52 1289.36 Q2089.18 1287.12 2089.18 1283.37 Q2089.18 1278.99 2092.1 1276.77 Q2095.04 1274.55 2100.85 1274.55 L2106.82 1274.55 L2106.82 1274.13 Q2106.82 1271.19 2104.87 1269.6 Q2102.95 1267.98 2099.46 1267.98 Q2097.23 1267.98 2095.13 1268.51 Q2093.02 1269.04 2091.08 1270.11 L2091.08 1266.17 Q2093.41 1265.27 2095.61 1264.83 Q2097.81 1264.36 2099.9 1264.36 Q2105.52 1264.36 2108.3 1267.28 Q2111.08 1270.2 2111.08 1276.12 Z" fill="#000000" fill-rule="nonzero" fill-opacity="1" /><path clip-path="url(#clip800)" d="M2124.06 1257.63 L2124.06 1264.99 L2132.84 1264.99 L2132.84 1268.3 L2124.06 1268.3 L2124.06 1282.37 Q2124.06 1285.54 2124.92 1286.45 Q2125.8 1287.35 2128.46 1287.35 L2132.84 1287.35 L2132.84 1290.92 L2128.46 1290.92 Q2123.53 1290.92 2121.66 1289.09 Q2119.78 1287.23 2119.78 1282.37 L2119.78 1268.3 L2116.66 1268.3 L2116.66 1264.99 L2119.78 1264.99 L2119.78 1257.63 L2124.06 1257.63 Z" fill="#000000" fill-rule="nonzero" fill-opacity="1" /><path clip-path="url(#clip800)" d="M2157.1 1265.98 L2157.1 1269.97 Q2155.29 1268.97 2153.46 1268.48 Q2151.66 1267.98 2149.8 1267.98 Q2145.66 1267.98 2143.37 1270.61 Q2141.08 1273.23 2141.08 1277.98 Q2141.08 1282.72 2143.37 1285.36 Q2145.66 1287.98 2149.8 1287.98 Q2151.66 1287.98 2153.46 1287.49 Q2155.29 1286.98 2157.1 1285.98 L2157.1 1289.92 Q2155.31 1290.75 2153.39 1291.17 Q2151.49 1291.59 2149.34 1291.59 Q2143.48 1291.59 2140.04 1287.91 Q2136.59 1284.23 2136.59 1277.98 Q2136.59 1271.63 2140.06 1268 Q2143.55 1264.36 2149.62 1264.36 Q2151.59 1264.36 2153.46 1264.78 Q2155.34 1265.17 2157.1 1265.98 Z" fill="#000000" fill-rule="nonzero" fill-opacity="1" /><path clip-path="url(#clip800)" d="M2186.05 1275.27 L2186.05 1290.92 L2181.79 1290.92 L2181.79 1275.41 Q2181.79 1271.73 2180.36 1269.9 Q2178.92 1268.07 2176.05 1268.07 Q2172.6 1268.07 2170.61 1270.27 Q2168.62 1272.47 2168.62 1276.26 L2168.62 1290.92 L2164.34 1290.92 L2164.34 1254.9 L2168.62 1254.9 L2168.62 1269.02 Q2170.15 1266.68 2172.21 1265.52 Q2174.29 1264.36 2177 1264.36 Q2181.47 1264.36 2183.76 1267.14 Q2186.05 1269.9 2186.05 1275.27 Z" fill="#000000" fill-rule="nonzero" fill-opacity="1" /><polyline clip-path="url(#clip800)" style="stroke:#e26f46; stroke-linecap:round; stroke-linejoin:round; stroke-width:4; stroke-opacity:1; fill:none" points="1802.86,1325.48 1939.55,1325.48 "/>
<path clip-path="url(#clip800)" d="M1984.57 1309.33 L1984.57 1313.89 Q1981.91 1312.62 1979.55 1311.99 Q1977.19 1311.37 1974.99 1311.37 Q1971.17 1311.37 1969.09 1312.85 Q1967.03 1314.33 1967.03 1317.06 Q1967.03 1319.35 1968.39 1320.53 Q1969.78 1321.69 1973.62 1322.41 L1976.45 1322.99 Q1981.68 1323.98 1984.16 1326.51 Q1986.66 1329.01 1986.66 1333.22 Q1986.66 1338.24 1983.28 1340.83 Q1979.92 1343.43 1973.42 1343.43 Q1970.96 1343.43 1968.18 1342.87 Q1965.43 1342.32 1962.47 1341.23 L1962.47 1336.41 Q1965.31 1338.01 1968.05 1338.82 Q1970.78 1339.63 1973.42 1339.63 Q1977.42 1339.63 1979.6 1338.06 Q1981.77 1336.48 1981.77 1333.57 Q1981.77 1331.02 1980.2 1329.58 Q1978.65 1328.15 1975.08 1327.43 L1972.23 1326.88 Q1967 1325.83 1964.67 1323.61 Q1962.33 1321.39 1962.33 1317.43 Q1962.33 1312.85 1965.55 1310.21 Q1968.79 1307.57 1974.46 1307.57 Q1976.89 1307.57 1979.41 1308.01 Q1981.93 1308.45 1984.57 1309.33 Z" fill="#000000" fill-rule="nonzero" fill-opacity="1" /><path clip-path="url(#clip800)" d="M1993.32 1332.52 L1993.32 1316.83 L1997.58 1316.83 L1997.58 1332.36 Q1997.58 1336.04 1999.02 1337.89 Q2000.45 1339.72 2003.32 1339.72 Q2006.77 1339.72 2008.76 1337.52 Q2010.78 1335.32 2010.78 1331.53 L2010.78 1316.83 L2015.04 1316.83 L2015.04 1342.76 L2010.78 1342.76 L2010.78 1338.77 Q2009.23 1341.13 2007.17 1342.29 Q2005.13 1343.43 2002.42 1343.43 Q1997.95 1343.43 1995.64 1340.65 Q1993.32 1337.87 1993.32 1332.52 M2004.04 1316.2 L2004.04 1316.2 Z" fill="#000000" fill-rule="nonzero" fill-opacity="1" /><path clip-path="url(#clip800)" d="M2042.42 1329.82 Q2042.42 1325.12 2040.48 1322.45 Q2038.55 1319.77 2035.17 1319.77 Q2031.79 1319.77 2029.85 1322.45 Q2027.93 1325.12 2027.93 1329.82 Q2027.93 1334.51 2029.85 1337.2 Q2031.79 1339.86 2035.17 1339.86 Q2038.55 1339.86 2040.48 1337.2 Q2042.42 1334.51 2042.42 1329.82 M2027.93 1320.76 Q2029.27 1318.45 2031.31 1317.34 Q2033.37 1316.2 2036.22 1316.2 Q2040.94 1316.2 2043.88 1319.95 Q2046.84 1323.7 2046.84 1329.82 Q2046.84 1335.93 2043.88 1339.68 Q2040.94 1343.43 2036.22 1343.43 Q2033.37 1343.43 2031.31 1342.32 Q2029.27 1341.18 2027.93 1338.87 L2027.93 1342.76 L2023.65 1342.76 L2023.65 1306.74 L2027.93 1306.74 L2027.93 1320.76 Z" fill="#000000" fill-rule="nonzero" fill-opacity="1" /><path clip-path="url(#clip800)" d="M2070.43 1317.59 L2070.43 1321.62 Q2068.62 1320.7 2066.68 1320.23 Q2064.73 1319.77 2062.65 1319.77 Q2059.48 1319.77 2057.88 1320.74 Q2056.31 1321.71 2056.31 1323.66 Q2056.31 1325.14 2057.44 1326 Q2058.58 1326.83 2062 1327.59 L2063.46 1327.92 Q2068 1328.89 2069.9 1330.67 Q2071.82 1332.43 2071.82 1335.6 Q2071.82 1339.21 2068.95 1341.32 Q2066.1 1343.43 2061.1 1343.43 Q2059.02 1343.43 2056.75 1343.01 Q2054.5 1342.62 2052 1341.81 L2052 1337.41 Q2054.36 1338.63 2056.66 1339.26 Q2058.95 1339.86 2061.19 1339.86 Q2064.2 1339.86 2065.82 1338.84 Q2067.44 1337.8 2067.44 1335.93 Q2067.44 1334.19 2066.26 1333.26 Q2065.1 1332.34 2061.15 1331.48 L2059.67 1331.14 Q2055.71 1330.3 2053.95 1328.59 Q2052.19 1326.85 2052.19 1323.84 Q2052.19 1320.19 2054.78 1318.2 Q2057.37 1316.2 2062.14 1316.2 Q2064.5 1316.2 2066.59 1316.55 Q2068.67 1316.9 2070.43 1317.59 Z" fill="#000000" fill-rule="nonzero" fill-opacity="1" /><path clip-path="url(#clip800)" d="M2090.38 1329.72 Q2085.22 1329.72 2083.23 1330.9 Q2081.24 1332.08 2081.24 1334.93 Q2081.24 1337.2 2082.72 1338.54 Q2084.23 1339.86 2086.79 1339.86 Q2090.34 1339.86 2092.47 1337.36 Q2094.62 1334.84 2094.62 1330.67 L2094.62 1329.72 L2090.38 1329.72 M2098.88 1327.96 L2098.88 1342.76 L2094.62 1342.76 L2094.62 1338.82 Q2093.16 1341.18 2090.98 1342.32 Q2088.81 1343.43 2085.66 1343.43 Q2081.68 1343.43 2079.32 1341.2 Q2076.98 1338.96 2076.98 1335.21 Q2076.98 1330.83 2079.9 1328.61 Q2082.84 1326.39 2088.65 1326.39 L2094.62 1326.39 L2094.62 1325.97 Q2094.62 1323.03 2092.67 1321.44 Q2090.75 1319.82 2087.26 1319.82 Q2085.04 1319.82 2082.93 1320.35 Q2080.82 1320.88 2078.88 1321.95 L2078.88 1318.01 Q2081.22 1317.11 2083.41 1316.67 Q2085.61 1316.2 2087.7 1316.2 Q2093.32 1316.2 2096.1 1319.12 Q2098.88 1322.04 2098.88 1327.96 Z" fill="#000000" fill-rule="nonzero" fill-opacity="1" /><path clip-path="url(#clip800)" d="M2127.84 1321.81 Q2129.43 1318.94 2131.66 1317.57 Q2133.88 1316.2 2136.89 1316.2 Q2140.94 1316.2 2143.14 1319.05 Q2145.34 1321.88 2145.34 1327.11 L2145.34 1342.76 L2141.05 1342.76 L2141.05 1327.25 Q2141.05 1323.52 2139.73 1321.71 Q2138.41 1319.91 2135.71 1319.91 Q2132.4 1319.91 2130.47 1322.11 Q2128.55 1324.31 2128.55 1328.1 L2128.55 1342.76 L2124.27 1342.76 L2124.27 1327.25 Q2124.27 1323.5 2122.95 1321.71 Q2121.63 1319.91 2118.88 1319.91 Q2115.61 1319.91 2113.69 1322.13 Q2111.77 1324.33 2111.77 1328.1 L2111.77 1342.76 L2107.49 1342.76 L2107.49 1316.83 L2111.77 1316.83 L2111.77 1320.86 Q2113.23 1318.47 2115.27 1317.34 Q2117.3 1316.2 2120.1 1316.2 Q2122.93 1316.2 2124.9 1317.64 Q2126.89 1319.07 2127.84 1321.81 Z" fill="#000000" fill-rule="nonzero" fill-opacity="1" /><path clip-path="url(#clip800)" d="M2157.95 1338.87 L2157.95 1352.62 L2153.67 1352.62 L2153.67 1316.83 L2157.95 1316.83 L2157.95 1320.76 Q2159.29 1318.45 2161.33 1317.34 Q2163.39 1316.2 2166.24 1316.2 Q2170.96 1316.2 2173.9 1319.95 Q2176.86 1323.7 2176.86 1329.82 Q2176.86 1335.93 2173.9 1339.68 Q2170.96 1343.43 2166.24 1343.43 Q2163.39 1343.43 2161.33 1342.32 Q2159.29 1341.18 2157.95 1338.87 M2172.44 1329.82 Q2172.44 1325.12 2170.5 1322.45 Q2168.58 1319.77 2165.2 1319.77 Q2161.82 1319.77 2159.87 1322.45 Q2157.95 1325.12 2157.95 1329.82 Q2157.95 1334.51 2159.87 1337.2 Q2161.82 1339.86 2165.2 1339.86 Q2168.58 1339.86 2170.5 1337.2 Q2172.44 1334.51 2172.44 1329.82 Z" fill="#000000" fill-rule="nonzero" fill-opacity="1" /><path clip-path="url(#clip800)" d="M2183.92 1306.74 L2188.18 1306.74 L2188.18 1342.76 L2183.92 1342.76 L2183.92 1306.74 Z" fill="#000000" fill-rule="nonzero" fill-opacity="1" /><path clip-path="url(#clip800)" d="M2197.09 1316.83 L2201.35 1316.83 L2201.35 1342.76 L2197.09 1342.76 L2197.09 1316.83 M2197.09 1306.74 L2201.35 1306.74 L2201.35 1312.13 L2197.09 1312.13 L2197.09 1306.74 Z" fill="#000000" fill-rule="nonzero" fill-opacity="1" /><path clip-path="url(#clip800)" d="M2231.82 1327.11 L2231.82 1342.76 L2227.56 1342.76 L2227.56 1327.25 Q2227.56 1323.57 2226.12 1321.74 Q2224.69 1319.91 2221.82 1319.91 Q2218.37 1319.91 2216.38 1322.11 Q2214.39 1324.31 2214.39 1328.1 L2214.39 1342.76 L2210.1 1342.76 L2210.1 1316.83 L2214.39 1316.83 L2214.39 1320.86 Q2215.91 1318.52 2217.97 1317.36 Q2220.06 1316.2 2222.77 1316.2 Q2227.23 1316.2 2229.53 1318.98 Q2231.82 1321.74 2231.82 1327.11 Z" fill="#000000" fill-rule="nonzero" fill-opacity="1" /><path clip-path="url(#clip800)" d="M2257.37 1329.49 Q2257.37 1324.86 2255.45 1322.32 Q2253.55 1319.77 2250.1 1319.77 Q2246.68 1319.77 2244.76 1322.32 Q2242.86 1324.86 2242.86 1329.49 Q2242.86 1334.1 2244.76 1336.64 Q2246.68 1339.19 2250.1 1339.19 Q2253.55 1339.19 2255.45 1336.64 Q2257.37 1334.1 2257.37 1329.49 M2261.63 1339.54 Q2261.63 1346.16 2258.69 1349.38 Q2255.75 1352.62 2249.69 1352.62 Q2247.44 1352.62 2245.45 1352.27 Q2243.46 1351.95 2241.59 1351.25 L2241.59 1347.11 Q2243.46 1348.13 2245.29 1348.61 Q2247.12 1349.1 2249.02 1349.1 Q2253.21 1349.1 2255.29 1346.9 Q2257.37 1344.72 2257.37 1340.3 L2257.37 1338.2 Q2256.05 1340.49 2253.99 1341.62 Q2251.93 1342.76 2249.06 1342.76 Q2244.29 1342.76 2241.38 1339.12 Q2238.46 1335.49 2238.46 1329.49 Q2238.46 1323.47 2241.38 1319.84 Q2244.29 1316.2 2249.06 1316.2 Q2251.93 1316.2 2253.99 1317.34 Q2256.05 1318.47 2257.37 1320.76 L2257.37 1316.83 L2261.63 1316.83 L2261.63 1339.54 Z" fill="#000000" fill-rule="nonzero" fill-opacity="1" /></svg>
