<?xml version="1.0" encoding="utf-8"?>
<svg xmlns="http://www.w3.org/2000/svg" xmlns:xlink="http://www.w3.org/1999/xlink" width="600" height="400" viewBox="0 0 2400 1600">
<defs>
  <clipPath id="clip450">
    <rect x="0" y="0" width="2400" height="1600"/>
  </clipPath>
</defs>
<path clip-path="url(#clip450)" d="M0 1600 L2400 1600 L2400 0 L0 0  Z" fill="#ffffff" fill-rule="evenodd" fill-opacity="1"/>
<defs>
  <clipPath id="clip451">
    <rect x="480" y="0" width="1681" height="1600"/>
  </clipPath>
</defs>
<path clip-path="url(#clip450)" d="M332.62 1423.18 L2352.76 1423.18 L2352.76 47.2441 L332.62 47.2441  Z" fill="#ffffff" fill-rule="evenodd" fill-opacity="1"/>
<defs>
  <clipPath id="clip452">
    <rect x="332" y="47" width="2021" height="1377"/>
  </clipPath>
</defs>
<polyline clip-path="url(#clip452)" style="stroke:#000000; stroke-linecap:round; stroke-linejoin:round; stroke-width:2; stroke-opacity:0.1; fill:none" points="357.323,1423.18 357.323,47.2441 "/>
<polyline clip-path="url(#clip452)" style="stroke:#000000; stroke-linecap:round; stroke-linejoin:round; stroke-width:2; stroke-opacity:0.1; fill:none" points="699.749,1423.18 699.749,47.2441 "/>
<polyline clip-path="url(#clip452)" style="stroke:#000000; stroke-linecap:round; stroke-linejoin:round; stroke-width:2; stroke-opacity:0.1; fill:none" points="1042.18,1423.18 1042.18,47.2441 "/>
<polyline clip-path="url(#clip452)" style="stroke:#000000; stroke-linecap:round; stroke-linejoin:round; stroke-width:2; stroke-opacity:0.1; fill:none" points="1384.6,1423.18 1384.6,47.2441 "/>
<polyline clip-path="url(#clip452)" style="stroke:#000000; stroke-linecap:round; stroke-linejoin:round; stroke-width:2; stroke-opacity:0.1; fill:none" points="1727.03,1423.18 1727.03,47.2441 "/>
<polyline clip-path="url(#clip452)" style="stroke:#000000; stroke-linecap:round; stroke-linejoin:round; stroke-width:2; stroke-opacity:0.1; fill:none" points="2069.46,1423.18 2069.46,47.2441 "/>
<polyline clip-path="url(#clip452)" style="stroke:#000000; stroke-linecap:round; stroke-linejoin:round; stroke-width:2; stroke-opacity:0.1; fill:none" points="332.62,1236.23 2352.76,1236.23 "/>
<polyline clip-path="url(#clip452)" style="stroke:#000000; stroke-linecap:round; stroke-linejoin:round; stroke-width:2; stroke-opacity:0.1; fill:none" points="332.62,875.201 2352.76,875.201 "/>
<polyline clip-path="url(#clip452)" style="stroke:#000000; stroke-linecap:round; stroke-linejoin:round; stroke-width:2; stroke-opacity:0.1; fill:none" points="332.62,514.172 2352.76,514.172 "/>
<polyline clip-path="url(#clip452)" style="stroke:#000000; stroke-linecap:round; stroke-linejoin:round; stroke-width:2; stroke-opacity:0.1; fill:none" points="332.62,153.143 2352.76,153.143 "/>
<polyline clip-path="url(#clip450)" style="stroke:#000000; stroke-linecap:round; stroke-linejoin:round; stroke-width:4; stroke-opacity:1; fill:none" points="332.62,1423.18 2352.76,1423.18 "/>
<polyline clip-path="url(#clip450)" style="stroke:#000000; stroke-linecap:round; stroke-linejoin:round; stroke-width:4; stroke-opacity:1; fill:none" points="357.323,1423.18 357.323,1404.28 "/>
<polyline clip-path="url(#clip450)" style="stroke:#000000; stroke-linecap:round; stroke-linejoin:round; stroke-width:4; stroke-opacity:1; fill:none" points="699.749,1423.18 699.749,1404.28 "/>
<polyline clip-path="url(#clip450)" style="stroke:#000000; stroke-linecap:round; stroke-linejoin:round; stroke-width:4; stroke-opacity:1; fill:none" points="1042.18,1423.18 1042.18,1404.28 "/>
<polyline clip-path="url(#clip450)" style="stroke:#000000; stroke-linecap:round; stroke-linejoin:round; stroke-width:4; stroke-opacity:1; fill:none" points="1384.6,1423.18 1384.6,1404.28 "/>
<polyline clip-path="url(#clip450)" style="stroke:#000000; stroke-linecap:round; stroke-linejoin:round; stroke-width:4; stroke-opacity:1; fill:none" points="1727.03,1423.18 1727.03,1404.28 "/>
<polyline clip-path="url(#clip450)" style="stroke:#000000; stroke-linecap:round; stroke-linejoin:round; stroke-width:4; stroke-opacity:1; fill:none" points="2069.46,1423.18 2069.46,1404.28 "/>
<path clip-path="url(#clip450)" d="M357.323 1454.1 Q353.712 1454.1 351.883 1457.66 Q350.077 1461.2 350.077 1468.33 Q350.077 1475.44 351.883 1479.01 Q353.712 1482.55 357.323 1482.55 Q360.957 1482.55 362.762 1479.01 Q364.591 1475.44 364.591 1468.33 Q364.591 1461.2 362.762 1457.66 Q360.957 1454.1 357.323 1454.1 M357.323 1450.39 Q363.133 1450.39 366.188 1455 Q369.267 1459.58 369.267 1468.33 Q369.267 1477.06 366.188 1481.67 Q363.133 1486.25 357.323 1486.25 Q351.513 1486.25 348.434 1481.67 Q345.378 1477.06 345.378 1468.33 Q345.378 1459.58 348.434 1455 Q351.513 1450.39 357.323 1450.39 Z" fill="#000000" fill-rule="nonzero" fill-opacity="1" /><path clip-path="url(#clip450)" d="M690.027 1451.02 L708.383 1451.02 L708.383 1454.96 L694.309 1454.96 L694.309 1463.43 Q695.328 1463.08 696.346 1462.92 Q697.365 1462.73 698.383 1462.73 Q704.17 1462.73 707.55 1465.9 Q710.93 1469.08 710.93 1474.49 Q710.93 1480.07 707.457 1483.17 Q703.985 1486.25 697.666 1486.25 Q695.49 1486.25 693.221 1485.88 Q690.976 1485.51 688.569 1484.77 L688.569 1480.07 Q690.652 1481.2 692.874 1481.76 Q695.096 1482.32 697.573 1482.32 Q701.578 1482.32 703.916 1480.21 Q706.254 1478.1 706.254 1474.49 Q706.254 1470.88 703.916 1468.77 Q701.578 1466.67 697.573 1466.67 Q695.698 1466.67 693.823 1467.08 Q691.971 1467.5 690.027 1468.38 L690.027 1451.02 Z" fill="#000000" fill-rule="nonzero" fill-opacity="1" /><path clip-path="url(#clip450)" d="M1016.86 1481.64 L1024.5 1481.64 L1024.5 1455.28 L1016.19 1456.95 L1016.19 1452.69 L1024.46 1451.02 L1029.13 1451.02 L1029.13 1481.64 L1036.77 1481.64 L1036.77 1485.58 L1016.86 1485.58 L1016.86 1481.64 Z" fill="#000000" fill-rule="nonzero" fill-opacity="1" /><path clip-path="url(#clip450)" d="M1056.21 1454.1 Q1052.6 1454.1 1050.78 1457.66 Q1048.97 1461.2 1048.97 1468.33 Q1048.97 1475.44 1050.78 1479.01 Q1052.6 1482.55 1056.21 1482.55 Q1059.85 1482.55 1061.65 1479.01 Q1063.48 1475.44 1063.48 1468.33 Q1063.48 1461.2 1061.65 1457.66 Q1059.85 1454.1 1056.21 1454.1 M1056.21 1450.39 Q1062.03 1450.39 1065.08 1455 Q1068.16 1459.58 1068.16 1468.33 Q1068.16 1477.06 1065.08 1481.67 Q1062.03 1486.25 1056.21 1486.25 Q1050.4 1486.25 1047.33 1481.67 Q1044.27 1477.06 1044.27 1468.33 Q1044.27 1459.58 1047.33 1455 Q1050.4 1450.39 1056.21 1450.39 Z" fill="#000000" fill-rule="nonzero" fill-opacity="1" /><path clip-path="url(#clip450)" d="M1359.79 1481.64 L1367.43 1481.64 L1367.43 1455.28 L1359.12 1456.95 L1359.12 1452.69 L1367.38 1451.02 L1372.06 1451.02 L1372.06 1481.64 L1379.69 1481.64 L1379.69 1485.58 L1359.79 1485.58 L1359.79 1481.64 Z" fill="#000000" fill-rule="nonzero" fill-opacity="1" /><path clip-path="url(#clip450)" d="M1389.19 1451.02 L1407.54 1451.02 L1407.54 1454.96 L1393.47 1454.96 L1393.47 1463.43 Q1394.49 1463.08 1395.5 1462.92 Q1396.52 1462.73 1397.54 1462.73 Q1403.33 1462.73 1406.71 1465.9 Q1410.09 1469.08 1410.09 1474.49 Q1410.09 1480.07 1406.62 1483.17 Q1403.14 1486.25 1396.82 1486.25 Q1394.65 1486.25 1392.38 1485.88 Q1390.13 1485.51 1387.73 1484.77 L1387.73 1480.07 Q1389.81 1481.2 1392.03 1481.76 Q1394.25 1482.32 1396.73 1482.32 Q1400.74 1482.32 1403.07 1480.21 Q1405.41 1478.1 1405.41 1474.49 Q1405.41 1470.88 1403.07 1468.77 Q1400.74 1466.67 1396.73 1466.67 Q1394.86 1466.67 1392.98 1467.08 Q1391.13 1467.5 1389.19 1468.38 L1389.19 1451.02 Z" fill="#000000" fill-rule="nonzero" fill-opacity="1" /><path clip-path="url(#clip450)" d="M1705.8 1481.64 L1722.12 1481.64 L1722.12 1485.58 L1700.18 1485.58 L1700.18 1481.64 Q1702.84 1478.89 1707.42 1474.26 Q1712.03 1469.61 1713.21 1468.27 Q1715.45 1465.74 1716.33 1464.01 Q1717.24 1462.25 1717.24 1460.56 Q1717.24 1457.8 1715.29 1456.07 Q1713.37 1454.33 1710.27 1454.33 Q1708.07 1454.33 1705.62 1455.09 Q1703.19 1455.86 1700.41 1457.41 L1700.41 1452.69 Q1703.23 1451.55 1705.69 1450.97 Q1708.14 1450.39 1710.18 1450.39 Q1715.55 1450.39 1718.74 1453.08 Q1721.94 1455.77 1721.94 1460.26 Q1721.94 1462.39 1721.13 1464.31 Q1720.34 1466.2 1718.23 1468.8 Q1717.65 1469.47 1714.55 1472.69 Q1711.45 1475.88 1705.8 1481.64 Z" fill="#000000" fill-rule="nonzero" fill-opacity="1" /><path clip-path="url(#clip450)" d="M1741.94 1454.1 Q1738.32 1454.1 1736.5 1457.66 Q1734.69 1461.2 1734.69 1468.33 Q1734.69 1475.44 1736.5 1479.01 Q1738.32 1482.55 1741.94 1482.55 Q1745.57 1482.55 1747.38 1479.01 Q1749.2 1475.44 1749.2 1468.33 Q1749.2 1461.2 1747.38 1457.66 Q1745.57 1454.1 1741.94 1454.1 M1741.94 1450.39 Q1747.75 1450.39 1750.8 1455 Q1753.88 1459.58 1753.88 1468.33 Q1753.88 1477.06 1750.8 1481.67 Q1747.75 1486.25 1741.94 1486.25 Q1736.13 1486.25 1733.05 1481.67 Q1729.99 1477.06 1729.99 1468.33 Q1729.99 1459.58 1733.05 1455 Q1736.13 1450.39 1741.94 1450.39 Z" fill="#000000" fill-rule="nonzero" fill-opacity="1" /><path clip-path="url(#clip450)" d="M2048.73 1481.64 L2065.05 1481.64 L2065.05 1485.58 L2043.1 1485.58 L2043.1 1481.64 Q2045.76 1478.89 2050.35 1474.26 Q2054.95 1469.61 2056.13 1468.27 Q2058.38 1465.74 2059.26 1464.01 Q2060.16 1462.25 2060.16 1460.56 Q2060.16 1457.8 2058.22 1456.07 Q2056.3 1454.33 2053.19 1454.33 Q2050.99 1454.33 2048.54 1455.09 Q2046.11 1455.86 2043.33 1457.41 L2043.33 1452.69 Q2046.16 1451.55 2048.61 1450.97 Q2051.06 1450.39 2053.1 1450.39 Q2058.47 1450.39 2061.67 1453.08 Q2064.86 1455.77 2064.86 1460.26 Q2064.86 1462.39 2064.05 1464.31 Q2063.26 1466.2 2061.16 1468.8 Q2060.58 1469.47 2057.48 1472.69 Q2054.37 1475.88 2048.73 1481.64 Z" fill="#000000" fill-rule="nonzero" fill-opacity="1" /><path clip-path="url(#clip450)" d="M2074.91 1451.02 L2093.26 1451.02 L2093.26 1454.96 L2079.19 1454.96 L2079.19 1463.43 Q2080.21 1463.08 2081.23 1462.92 Q2082.24 1462.73 2083.26 1462.73 Q2089.05 1462.73 2092.43 1465.9 Q2095.81 1469.08 2095.81 1474.49 Q2095.81 1480.07 2092.34 1483.17 Q2088.86 1486.25 2082.55 1486.25 Q2080.37 1486.25 2078.1 1485.88 Q2075.86 1485.51 2073.45 1484.77 L2073.45 1480.07 Q2075.53 1481.2 2077.75 1481.76 Q2079.98 1482.32 2082.45 1482.32 Q2086.46 1482.32 2088.8 1480.21 Q2091.13 1478.1 2091.13 1474.49 Q2091.13 1470.88 2088.8 1468.77 Q2086.46 1466.67 2082.45 1466.67 Q2080.58 1466.67 2078.7 1467.08 Q2076.85 1467.5 2074.91 1468.38 L2074.91 1451.02 Z" fill="#000000" fill-rule="nonzero" fill-opacity="1" /><path clip-path="url(#clip450)" d="M1013.77 1520.52 L1020.27 1520.52 L1030.26 1560.69 L1040.22 1520.52 L1047.45 1520.52 L1057.44 1560.69 L1067.4 1520.52 L1073.93 1520.52 L1061.99 1568.04 L1053.91 1568.04 L1043.88 1526.79 L1033.76 1568.04 L1025.68 1568.04 L1013.77 1520.52 Z" fill="#000000" fill-rule="nonzero" fill-opacity="1" /><path clip-path="url(#clip450)" d="M1094.23 1550.12 Q1087.14 1550.12 1084.4 1551.75 Q1081.66 1553.37 1081.66 1557.29 Q1081.66 1560.4 1083.7 1562.25 Q1085.77 1564.07 1089.3 1564.07 Q1094.17 1564.07 1097.1 1560.63 Q1100.06 1557.16 1100.06 1551.43 L1100.06 1550.12 L1094.23 1550.12 M1105.92 1547.71 L1105.92 1568.04 L1100.06 1568.04 L1100.06 1562.63 Q1098.05 1565.88 1095.06 1567.44 Q1092.07 1568.97 1087.74 1568.97 Q1082.27 1568.97 1079.02 1565.91 Q1075.81 1562.82 1075.81 1557.67 Q1075.81 1551.65 1079.82 1548.6 Q1083.86 1545.54 1091.85 1545.54 L1100.06 1545.54 L1100.06 1544.97 Q1100.06 1540.93 1097.39 1538.73 Q1094.74 1536.5 1089.94 1536.5 Q1086.88 1536.5 1083.99 1537.23 Q1081.09 1537.97 1078.42 1539.43 L1078.42 1534.02 Q1081.63 1532.78 1084.65 1532.17 Q1087.68 1531.54 1090.54 1531.54 Q1098.28 1531.54 1102.1 1535.55 Q1105.92 1539.56 1105.92 1547.71 Z" fill="#000000" fill-rule="nonzero" fill-opacity="1" /><path clip-path="url(#clip450)" d="M1117.98 1518.52 L1123.84 1518.52 L1123.84 1568.04 L1117.98 1568.04 L1117.98 1518.52 Z" fill="#000000" fill-rule="nonzero" fill-opacity="1" /><path clip-path="url(#clip450)" d="M1136.09 1518.52 L1141.95 1518.52 L1141.95 1568.04 L1136.09 1568.04 L1136.09 1518.52 Z" fill="#000000" fill-rule="nonzero" fill-opacity="1" /><path clip-path="url(#clip450)" d="M1179.85 1533.76 L1179.85 1539.24 Q1177.37 1537.87 1174.86 1537.2 Q1172.37 1536.5 1169.83 1536.5 Q1164.13 1536.5 1160.98 1540.13 Q1157.83 1543.73 1157.83 1550.25 Q1157.83 1556.78 1160.98 1560.4 Q1164.13 1564 1169.83 1564 Q1172.37 1564 1174.86 1563.33 Q1177.37 1562.63 1179.85 1561.26 L1179.85 1566.68 Q1177.4 1567.82 1174.76 1568.39 Q1172.15 1568.97 1169.19 1568.97 Q1161.14 1568.97 1156.4 1563.91 Q1151.65 1558.85 1151.65 1550.25 Q1151.65 1541.53 1156.43 1536.53 Q1161.23 1531.54 1169.57 1531.54 Q1172.28 1531.54 1174.86 1532.11 Q1177.43 1532.65 1179.85 1533.76 Z" fill="#000000" fill-rule="nonzero" fill-opacity="1" /><path clip-path="url(#clip450)" d="M1190.04 1518.52 L1195.89 1518.52 L1195.89 1568.04 L1190.04 1568.04 L1190.04 1518.52 Z" fill="#000000" fill-rule="nonzero" fill-opacity="1" /><path clip-path="url(#clip450)" d="M1221.96 1536.5 Q1217.25 1536.5 1214.51 1540.19 Q1211.78 1543.85 1211.78 1550.25 Q1211.78 1556.65 1214.48 1560.34 Q1217.22 1564 1221.96 1564 Q1226.64 1564 1229.38 1560.31 Q1232.12 1556.62 1232.12 1550.25 Q1232.12 1543.92 1229.38 1540.23 Q1226.64 1536.5 1221.96 1536.5 M1221.96 1531.54 Q1229.6 1531.54 1233.96 1536.5 Q1238.32 1541.47 1238.32 1550.25 Q1238.32 1559 1233.96 1564 Q1229.6 1568.97 1221.96 1568.97 Q1214.29 1568.97 1209.93 1564 Q1205.6 1559 1205.6 1550.25 Q1205.6 1541.47 1209.93 1536.5 Q1214.29 1531.54 1221.96 1531.54 Z" fill="#000000" fill-rule="nonzero" fill-opacity="1" /><path clip-path="url(#clip450)" d="M1273.68 1533.76 L1273.68 1539.24 Q1271.2 1537.87 1268.69 1537.2 Q1266.2 1536.5 1263.66 1536.5 Q1257.96 1536.5 1254.81 1540.13 Q1251.66 1543.73 1251.66 1550.25 Q1251.66 1556.78 1254.81 1560.4 Q1257.96 1564 1263.66 1564 Q1266.2 1564 1268.69 1563.33 Q1271.2 1562.63 1273.68 1561.26 L1273.68 1566.68 Q1271.23 1567.82 1268.59 1568.39 Q1265.98 1568.97 1263.02 1568.97 Q1254.97 1568.97 1250.23 1563.91 Q1245.48 1558.85 1245.48 1550.25 Q1245.48 1541.53 1250.26 1536.53 Q1255.06 1531.54 1263.4 1531.54 Q1266.11 1531.54 1268.69 1532.11 Q1271.26 1532.65 1273.68 1533.76 Z" fill="#000000" fill-rule="nonzero" fill-opacity="1" /><path clip-path="url(#clip450)" d="M1283.65 1518.52 L1289.53 1518.52 L1289.53 1547.77 L1307.01 1532.4 L1314.49 1532.4 L1295.58 1549.07 L1315.28 1568.04 L1307.64 1568.04 L1289.53 1550.63 L1289.53 1568.04 L1283.65 1568.04 L1283.65 1518.52 Z" fill="#000000" fill-rule="nonzero" fill-opacity="1" /><path clip-path="url(#clip450)" d="M1336 1520.52 L1376.2 1520.52 L1376.2 1525.93 L1359.33 1525.93 L1359.33 1568.04 L1352.87 1568.04 L1352.87 1525.93 L1336 1525.93 L1336 1520.52 Z" fill="#000000" fill-rule="nonzero" fill-opacity="1" /><path clip-path="url(#clip450)" d="M1380.15 1532.4 L1386.01 1532.4 L1386.01 1568.04 L1380.15 1568.04 L1380.15 1532.4 M1380.15 1518.52 L1386.01 1518.52 L1386.01 1525.93 L1380.15 1525.93 L1380.15 1518.52 Z" fill="#000000" fill-rule="nonzero" fill-opacity="1" /><path clip-path="url(#clip450)" d="M1426.02 1539.24 Q1428.21 1535.29 1431.27 1533.41 Q1434.32 1531.54 1438.46 1531.54 Q1444.03 1531.54 1447.05 1535.45 Q1450.08 1539.33 1450.08 1546.53 L1450.08 1568.04 L1444.19 1568.04 L1444.19 1546.72 Q1444.19 1541.59 1442.38 1539.11 Q1440.56 1536.63 1436.84 1536.63 Q1432.29 1536.63 1429.64 1539.65 Q1427 1542.68 1427 1547.9 L1427 1568.04 L1421.11 1568.04 L1421.11 1546.72 Q1421.11 1541.56 1419.3 1539.11 Q1417.49 1536.63 1413.7 1536.63 Q1409.21 1536.63 1406.57 1539.68 Q1403.93 1542.71 1403.93 1547.9 L1403.93 1568.04 L1398.04 1568.04 L1398.04 1532.4 L1403.93 1532.4 L1403.93 1537.93 Q1405.93 1534.66 1408.73 1533.1 Q1411.53 1531.54 1415.38 1531.54 Q1419.27 1531.54 1421.97 1533.51 Q1424.71 1535.48 1426.02 1539.24 Z" fill="#000000" fill-rule="nonzero" fill-opacity="1" /><path clip-path="url(#clip450)" d="M1492.25 1548.76 L1492.25 1551.62 L1465.32 1551.62 Q1465.71 1557.67 1468.95 1560.85 Q1472.23 1564 1478.05 1564 Q1481.43 1564 1484.58 1563.17 Q1487.76 1562.35 1490.88 1560.69 L1490.88 1566.23 Q1487.73 1567.57 1484.42 1568.27 Q1481.11 1568.97 1477.7 1568.97 Q1469.17 1568.97 1464.18 1564 Q1459.21 1559.04 1459.21 1550.57 Q1459.21 1541.82 1463.92 1536.69 Q1468.67 1531.54 1476.69 1531.54 Q1483.88 1531.54 1488.05 1536.18 Q1492.25 1540.8 1492.25 1548.76 M1486.39 1547.04 Q1486.33 1542.23 1483.69 1539.37 Q1481.08 1536.5 1476.75 1536.5 Q1471.85 1536.5 1468.89 1539.27 Q1465.96 1542.04 1465.51 1547.07 L1486.39 1547.04 Z" fill="#000000" fill-rule="nonzero" fill-opacity="1" /><path clip-path="url(#clip450)" d="M1536.65 1518.58 Q1532.39 1525.9 1530.32 1533.06 Q1528.25 1540.23 1528.25 1547.58 Q1528.25 1554.93 1530.32 1562.16 Q1532.42 1569.35 1536.65 1576.64 L1531.56 1576.64 Q1526.78 1569.16 1524.4 1561.93 Q1522.04 1554.71 1522.04 1547.58 Q1522.04 1540.48 1524.4 1533.29 Q1526.75 1526.09 1531.56 1518.58 L1536.65 1518.58 Z" fill="#000000" fill-rule="nonzero" fill-opacity="1" /><path clip-path="url(#clip450)" d="M1570.74 1533.45 L1570.74 1538.98 Q1568.26 1537.71 1565.58 1537.07 Q1562.91 1536.44 1560.05 1536.44 Q1555.68 1536.44 1553.49 1537.77 Q1551.32 1539.11 1551.32 1541.79 Q1551.32 1543.82 1552.88 1545 Q1554.44 1546.15 1559.15 1547.2 L1561.16 1547.64 Q1567.4 1548.98 1570.01 1551.43 Q1572.65 1553.85 1572.65 1558.21 Q1572.65 1563.17 1568.7 1566.07 Q1564.79 1568.97 1557.91 1568.97 Q1555.05 1568.97 1551.93 1568.39 Q1548.84 1567.85 1545.4 1566.74 L1545.4 1560.69 Q1548.65 1562.38 1551.8 1563.24 Q1554.95 1564.07 1558.04 1564.07 Q1562.18 1564.07 1564.41 1562.66 Q1566.63 1561.23 1566.63 1558.65 Q1566.63 1556.27 1565.01 1554.99 Q1563.42 1553.72 1557.98 1552.54 L1555.94 1552.07 Q1550.5 1550.92 1548.08 1548.56 Q1545.66 1546.18 1545.66 1542.04 Q1545.66 1537.01 1549.22 1534.27 Q1552.79 1531.54 1559.34 1531.54 Q1562.59 1531.54 1565.46 1532.01 Q1568.32 1532.49 1570.74 1533.45 Z" fill="#000000" fill-rule="nonzero" fill-opacity="1" /><path clip-path="url(#clip450)" d="M1612.47 1548.76 L1612.47 1551.62 L1585.54 1551.62 Q1585.92 1557.67 1589.17 1560.85 Q1592.45 1564 1598.27 1564 Q1601.65 1564 1604.8 1563.17 Q1607.98 1562.35 1611.1 1560.69 L1611.1 1566.23 Q1607.95 1567.57 1604.64 1568.27 Q1601.33 1568.97 1597.92 1568.97 Q1589.39 1568.97 1584.39 1564 Q1579.43 1559.04 1579.43 1550.57 Q1579.43 1541.82 1584.14 1536.69 Q1588.88 1531.54 1596.9 1531.54 Q1604.1 1531.54 1608.27 1536.18 Q1612.47 1540.8 1612.47 1548.76 M1606.61 1547.04 Q1606.55 1542.23 1603.9 1539.37 Q1601.29 1536.5 1596.97 1536.5 Q1592.06 1536.5 1589.1 1539.27 Q1586.18 1542.04 1585.73 1547.07 L1606.61 1547.04 Z" fill="#000000" fill-rule="nonzero" fill-opacity="1" /><path clip-path="url(#clip450)" d="M1647.73 1533.76 L1647.73 1539.24 Q1645.25 1537.87 1642.74 1537.2 Q1640.25 1536.5 1637.71 1536.5 Q1632.01 1536.5 1628.86 1540.13 Q1625.71 1543.73 1625.71 1550.25 Q1625.71 1556.78 1628.86 1560.4 Q1632.01 1564 1637.71 1564 Q1640.25 1564 1642.74 1563.33 Q1645.25 1562.63 1647.73 1561.26 L1647.73 1566.68 Q1645.28 1567.82 1642.64 1568.39 Q1640.03 1568.97 1637.07 1568.97 Q1629.02 1568.97 1624.28 1563.91 Q1619.53 1558.85 1619.53 1550.25 Q1619.53 1541.53 1624.31 1536.53 Q1629.11 1531.54 1637.45 1531.54 Q1640.16 1531.54 1642.74 1532.11 Q1645.31 1532.65 1647.73 1533.76 Z" fill="#000000" fill-rule="nonzero" fill-opacity="1" /><path clip-path="url(#clip450)" d="M1656.99 1518.58 L1662.09 1518.58 Q1666.86 1526.09 1669.22 1533.29 Q1671.6 1540.48 1671.6 1547.58 Q1671.6 1554.71 1669.22 1561.93 Q1666.86 1569.16 1662.09 1576.64 L1656.99 1576.64 Q1661.23 1569.35 1663.3 1562.16 Q1665.4 1554.93 1665.4 1547.58 Q1665.4 1540.23 1663.3 1533.06 Q1661.23 1525.9 1656.99 1518.58 Z" fill="#000000" fill-rule="nonzero" fill-opacity="1" /><polyline clip-path="url(#clip450)" style="stroke:#000000; stroke-linecap:round; stroke-linejoin:round; stroke-width:4; stroke-opacity:1; fill:none" points="332.62,1423.18 332.62,47.2441 "/>
<polyline clip-path="url(#clip450)" style="stroke:#000000; stroke-linecap:round; stroke-linejoin:round; stroke-width:4; stroke-opacity:1; fill:none" points="332.62,1236.23 351.518,1236.23 "/>
<polyline clip-path="url(#clip450)" style="stroke:#000000; stroke-linecap:round; stroke-linejoin:round; stroke-width:4; stroke-opacity:1; fill:none" points="332.62,875.201 351.518,875.201 "/>
<polyline clip-path="url(#clip450)" style="stroke:#000000; stroke-linecap:round; stroke-linejoin:round; stroke-width:4; stroke-opacity:1; fill:none" points="332.62,514.172 351.518,514.172 "/>
<polyline clip-path="url(#clip450)" style="stroke:#000000; stroke-linecap:round; stroke-linejoin:round; stroke-width:4; stroke-opacity:1; fill:none" points="332.62,153.143 351.518,153.143 "/>
<path clip-path="url(#clip450)" d="M114.26 1236.68 L143.936 1236.68 L143.936 1240.62 L114.26 1240.62 L114.26 1236.68 Z" fill="#000000" fill-rule="nonzero" fill-opacity="1" /><path clip-path="url(#clip450)" d="M154.839 1249.57 L162.477 1249.57 L162.477 1223.21 L154.167 1224.88 L154.167 1220.62 L162.431 1218.95 L167.107 1218.95 L167.107 1249.57 L174.746 1249.57 L174.746 1253.51 L154.839 1253.51 L154.839 1249.57 Z" fill="#000000" fill-rule="nonzero" fill-opacity="1" /><path clip-path="url(#clip450)" d="M188.218 1249.57 L204.537 1249.57 L204.537 1253.51 L182.593 1253.51 L182.593 1249.57 Q185.255 1246.82 189.838 1242.19 Q194.445 1237.54 195.625 1236.2 Q197.871 1233.67 198.75 1231.94 Q199.653 1230.18 199.653 1228.49 Q199.653 1225.73 197.709 1224 Q195.787 1222.26 192.686 1222.26 Q190.487 1222.26 188.033 1223.02 Q185.602 1223.79 182.825 1225.34 L182.825 1220.62 Q185.649 1219.48 188.102 1218.9 Q190.556 1218.32 192.593 1218.32 Q197.963 1218.32 201.158 1221.01 Q204.352 1223.7 204.352 1228.19 Q204.352 1230.32 203.542 1232.24 Q202.755 1234.14 200.649 1236.73 Q200.07 1237.4 196.968 1240.62 Q193.866 1243.81 188.218 1249.57 Z" fill="#000000" fill-rule="nonzero" fill-opacity="1" /><path clip-path="url(#clip450)" d="M224.352 1222.03 Q220.741 1222.03 218.912 1225.59 Q217.107 1229.14 217.107 1236.26 Q217.107 1243.37 218.912 1246.94 Q220.741 1250.48 224.352 1250.48 Q227.986 1250.48 229.792 1246.94 Q231.621 1243.37 231.621 1236.26 Q231.621 1229.14 229.792 1225.59 Q227.986 1222.03 224.352 1222.03 M224.352 1218.32 Q230.162 1218.32 233.218 1222.93 Q236.297 1227.51 236.297 1236.26 Q236.297 1244.99 233.218 1249.6 Q230.162 1254.18 224.352 1254.18 Q218.542 1254.18 215.463 1249.6 Q212.408 1244.99 212.408 1236.26 Q212.408 1227.51 215.463 1222.93 Q218.542 1218.32 224.352 1218.32 Z" fill="#000000" fill-rule="nonzero" fill-opacity="1" /><path clip-path="url(#clip450)" d="M254.514 1222.03 Q250.903 1222.03 249.074 1225.59 Q247.269 1229.14 247.269 1236.26 Q247.269 1243.37 249.074 1246.94 Q250.903 1250.48 254.514 1250.48 Q258.148 1250.48 259.954 1246.94 Q261.783 1243.37 261.783 1236.26 Q261.783 1229.14 259.954 1225.59 Q258.148 1222.03 254.514 1222.03 M254.514 1218.32 Q260.324 1218.32 263.38 1222.93 Q266.458 1227.51 266.458 1236.26 Q266.458 1244.99 263.38 1249.6 Q260.324 1254.18 254.514 1254.18 Q248.704 1254.18 245.625 1249.6 Q242.57 1244.99 242.57 1236.26 Q242.57 1227.51 245.625 1222.93 Q248.704 1218.32 254.514 1218.32 Z" fill="#000000" fill-rule="nonzero" fill-opacity="1" /><path clip-path="url(#clip450)" d="M284.676 1222.03 Q281.065 1222.03 279.236 1225.59 Q277.431 1229.14 277.431 1236.26 Q277.431 1243.37 279.236 1246.94 Q281.065 1250.48 284.676 1250.48 Q288.31 1250.48 290.116 1246.94 Q291.944 1243.37 291.944 1236.26 Q291.944 1229.14 290.116 1225.59 Q288.31 1222.03 284.676 1222.03 M284.676 1218.32 Q290.486 1218.32 293.542 1222.93 Q296.62 1227.51 296.62 1236.26 Q296.62 1244.99 293.542 1249.6 Q290.486 1254.18 284.676 1254.18 Q278.866 1254.18 275.787 1249.6 Q272.732 1244.99 272.732 1236.26 Q272.732 1227.51 275.787 1222.93 Q278.866 1218.32 284.676 1218.32 Z" fill="#000000" fill-rule="nonzero" fill-opacity="1" /><path clip-path="url(#clip450)" d="M114.26 875.652 L143.936 875.652 L143.936 879.588 L114.26 879.588 L114.26 875.652 Z" fill="#000000" fill-rule="nonzero" fill-opacity="1" /><path clip-path="url(#clip450)" d="M154.839 888.546 L162.477 888.546 L162.477 862.18 L154.167 863.847 L154.167 859.588 L162.431 857.921 L167.107 857.921 L167.107 888.546 L174.746 888.546 L174.746 892.481 L154.839 892.481 L154.839 888.546 Z" fill="#000000" fill-rule="nonzero" fill-opacity="1" /><path clip-path="url(#clip450)" d="M194.19 861 Q190.579 861 188.75 864.565 Q186.945 868.106 186.945 875.236 Q186.945 882.342 188.75 885.907 Q190.579 889.449 194.19 889.449 Q197.825 889.449 199.63 885.907 Q201.459 882.342 201.459 875.236 Q201.459 868.106 199.63 864.565 Q197.825 861 194.19 861 M194.19 857.296 Q200 857.296 203.056 861.903 Q206.135 866.486 206.135 875.236 Q206.135 883.963 203.056 888.569 Q200 893.152 194.19 893.152 Q188.38 893.152 185.301 888.569 Q182.246 883.963 182.246 875.236 Q182.246 866.486 185.301 861.903 Q188.38 857.296 194.19 857.296 Z" fill="#000000" fill-rule="nonzero" fill-opacity="1" /><path clip-path="url(#clip450)" d="M224.352 861 Q220.741 861 218.912 864.565 Q217.107 868.106 217.107 875.236 Q217.107 882.342 218.912 885.907 Q220.741 889.449 224.352 889.449 Q227.986 889.449 229.792 885.907 Q231.621 882.342 231.621 875.236 Q231.621 868.106 229.792 864.565 Q227.986 861 224.352 861 M224.352 857.296 Q230.162 857.296 233.218 861.903 Q236.297 866.486 236.297 875.236 Q236.297 883.963 233.218 888.569 Q230.162 893.152 224.352 893.152 Q218.542 893.152 215.463 888.569 Q212.408 883.963 212.408 875.236 Q212.408 866.486 215.463 861.903 Q218.542 857.296 224.352 857.296 Z" fill="#000000" fill-rule="nonzero" fill-opacity="1" /><path clip-path="url(#clip450)" d="M254.514 861 Q250.903 861 249.074 864.565 Q247.269 868.106 247.269 875.236 Q247.269 882.342 249.074 885.907 Q250.903 889.449 254.514 889.449 Q258.148 889.449 259.954 885.907 Q261.783 882.342 261.783 875.236 Q261.783 868.106 259.954 864.565 Q258.148 861 254.514 861 M254.514 857.296 Q260.324 857.296 263.38 861.903 Q266.458 866.486 266.458 875.236 Q266.458 883.963 263.38 888.569 Q260.324 893.152 254.514 893.152 Q248.704 893.152 245.625 888.569 Q242.57 883.963 242.57 875.236 Q242.57 866.486 245.625 861.903 Q248.704 857.296 254.514 857.296 Z" fill="#000000" fill-rule="nonzero" fill-opacity="1" /><path clip-path="url(#clip450)" d="M284.676 861 Q281.065 861 279.236 864.565 Q277.431 868.106 277.431 875.236 Q277.431 882.342 279.236 885.907 Q281.065 889.449 284.676 889.449 Q288.31 889.449 290.116 885.907 Q291.944 882.342 291.944 875.236 Q291.944 868.106 290.116 864.565 Q288.31 861 284.676 861 M284.676 857.296 Q290.486 857.296 293.542 861.903 Q296.62 866.486 296.62 875.236 Q296.62 883.963 293.542 888.569 Q290.486 893.152 284.676 893.152 Q278.866 893.152 275.787 888.569 Q272.732 883.963 272.732 875.236 Q272.732 866.486 275.787 861.903 Q278.866 857.296 284.676 857.296 Z" fill="#000000" fill-rule="nonzero" fill-opacity="1" /><path clip-path="url(#clip450)" d="M144.422 514.624 L174.098 514.624 L174.098 518.559 L144.422 518.559 L144.422 514.624 Z" fill="#000000" fill-rule="nonzero" fill-opacity="1" /><path clip-path="url(#clip450)" d="M194.19 515.04 Q190.857 515.04 188.936 516.823 Q187.038 518.605 187.038 521.73 Q187.038 524.855 188.936 526.637 Q190.857 528.42 194.19 528.42 Q197.524 528.42 199.445 526.637 Q201.366 524.832 201.366 521.73 Q201.366 518.605 199.445 516.823 Q197.547 515.04 194.19 515.04 M189.514 513.049 Q186.505 512.309 184.815 510.249 Q183.149 508.188 183.149 505.225 Q183.149 501.082 186.088 498.675 Q189.051 496.267 194.19 496.267 Q199.352 496.267 202.292 498.675 Q205.232 501.082 205.232 505.225 Q205.232 508.188 203.542 510.249 Q201.875 512.309 198.889 513.049 Q202.269 513.836 204.144 516.128 Q206.042 518.42 206.042 521.73 Q206.042 526.753 202.963 529.438 Q199.908 532.123 194.19 532.123 Q188.473 532.123 185.394 529.438 Q182.338 526.753 182.338 521.73 Q182.338 518.42 184.237 516.128 Q186.135 513.836 189.514 513.049 M187.801 505.665 Q187.801 508.35 189.468 509.855 Q191.158 511.36 194.19 511.36 Q197.2 511.36 198.889 509.855 Q200.602 508.35 200.602 505.665 Q200.602 502.98 198.889 501.475 Q197.2 499.971 194.19 499.971 Q191.158 499.971 189.468 501.475 Q187.801 502.98 187.801 505.665 Z" fill="#000000" fill-rule="nonzero" fill-opacity="1" /><path clip-path="url(#clip450)" d="M224.352 499.971 Q220.741 499.971 218.912 503.536 Q217.107 507.077 217.107 514.207 Q217.107 521.313 218.912 524.878 Q220.741 528.42 224.352 528.42 Q227.986 528.42 229.792 524.878 Q231.621 521.313 231.621 514.207 Q231.621 507.077 229.792 503.536 Q227.986 499.971 224.352 499.971 M224.352 496.267 Q230.162 496.267 233.218 500.874 Q236.297 505.457 236.297 514.207 Q236.297 522.934 233.218 527.54 Q230.162 532.123 224.352 532.123 Q218.542 532.123 215.463 527.54 Q212.408 522.934 212.408 514.207 Q212.408 505.457 215.463 500.874 Q218.542 496.267 224.352 496.267 Z" fill="#000000" fill-rule="nonzero" fill-opacity="1" /><path clip-path="url(#clip450)" d="M254.514 499.971 Q250.903 499.971 249.074 503.536 Q247.269 507.077 247.269 514.207 Q247.269 521.313 249.074 524.878 Q250.903 528.42 254.514 528.42 Q258.148 528.42 259.954 524.878 Q261.783 521.313 261.783 514.207 Q261.783 507.077 259.954 503.536 Q258.148 499.971 254.514 499.971 M254.514 496.267 Q260.324 496.267 263.38 500.874 Q266.458 505.457 266.458 514.207 Q266.458 522.934 263.38 527.54 Q260.324 532.123 254.514 532.123 Q248.704 532.123 245.625 527.54 Q242.57 522.934 242.57 514.207 Q242.57 505.457 245.625 500.874 Q248.704 496.267 254.514 496.267 Z" fill="#000000" fill-rule="nonzero" fill-opacity="1" /><path clip-path="url(#clip450)" d="M284.676 499.971 Q281.065 499.971 279.236 503.536 Q277.431 507.077 277.431 514.207 Q277.431 521.313 279.236 524.878 Q281.065 528.42 284.676 528.42 Q288.31 528.42 290.116 524.878 Q291.944 521.313 291.944 514.207 Q291.944 507.077 290.116 503.536 Q288.31 499.971 284.676 499.971 M284.676 496.267 Q290.486 496.267 293.542 500.874 Q296.62 505.457 296.62 514.207 Q296.62 522.934 293.542 527.54 Q290.486 532.123 284.676 532.123 Q278.866 532.123 275.787 527.54 Q272.732 522.934 272.732 514.207 Q272.732 505.457 275.787 500.874 Q278.866 496.267 284.676 496.267 Z" fill="#000000" fill-rule="nonzero" fill-opacity="1" /><path clip-path="url(#clip450)" d="M144.422 153.595 L174.098 153.595 L174.098 157.53 L144.422 157.53 L144.422 153.595 Z" fill="#000000" fill-rule="nonzero" fill-opacity="1" /><path clip-path="url(#clip450)" d="M194.769 151.28 Q191.621 151.28 189.769 153.433 Q187.94 155.585 187.94 159.335 Q187.94 163.062 189.769 165.238 Q191.621 167.391 194.769 167.391 Q197.917 167.391 199.746 165.238 Q201.598 163.062 201.598 159.335 Q201.598 155.585 199.746 153.433 Q197.917 151.28 194.769 151.28 M204.051 136.627 L204.051 140.886 Q202.292 140.053 200.487 139.613 Q198.704 139.173 196.945 139.173 Q192.315 139.173 189.862 142.298 Q187.431 145.423 187.084 151.743 Q188.45 149.729 190.51 148.664 Q192.57 147.576 195.047 147.576 Q200.255 147.576 203.264 150.747 Q206.297 153.896 206.297 159.335 Q206.297 164.659 203.149 167.877 Q200 171.095 194.769 171.095 Q188.774 171.095 185.602 166.511 Q182.431 161.905 182.431 153.178 Q182.431 144.984 186.32 140.122 Q190.209 135.238 196.76 135.238 Q198.519 135.238 200.301 135.585 Q202.107 135.933 204.051 136.627 Z" fill="#000000" fill-rule="nonzero" fill-opacity="1" /><path clip-path="url(#clip450)" d="M224.352 138.942 Q220.741 138.942 218.912 142.507 Q217.107 146.048 217.107 153.178 Q217.107 160.284 218.912 163.849 Q220.741 167.391 224.352 167.391 Q227.986 167.391 229.792 163.849 Q231.621 160.284 231.621 153.178 Q231.621 146.048 229.792 142.507 Q227.986 138.942 224.352 138.942 M224.352 135.238 Q230.162 135.238 233.218 139.845 Q236.297 144.428 236.297 153.178 Q236.297 161.905 233.218 166.511 Q230.162 171.095 224.352 171.095 Q218.542 171.095 215.463 166.511 Q212.408 161.905 212.408 153.178 Q212.408 144.428 215.463 139.845 Q218.542 135.238 224.352 135.238 Z" fill="#000000" fill-rule="nonzero" fill-opacity="1" /><path clip-path="url(#clip450)" d="M254.514 138.942 Q250.903 138.942 249.074 142.507 Q247.269 146.048 247.269 153.178 Q247.269 160.284 249.074 163.849 Q250.903 167.391 254.514 167.391 Q258.148 167.391 259.954 163.849 Q261.783 160.284 261.783 153.178 Q261.783 146.048 259.954 142.507 Q258.148 138.942 254.514 138.942 M254.514 135.238 Q260.324 135.238 263.38 139.845 Q266.458 144.428 266.458 153.178 Q266.458 161.905 263.38 166.511 Q260.324 171.095 254.514 171.095 Q248.704 171.095 245.625 166.511 Q242.57 161.905 242.57 153.178 Q242.57 144.428 245.625 139.845 Q248.704 135.238 254.514 135.238 Z" fill="#000000" fill-rule="nonzero" fill-opacity="1" /><path clip-path="url(#clip450)" d="M284.676 138.942 Q281.065 138.942 279.236 142.507 Q277.431 146.048 277.431 153.178 Q277.431 160.284 279.236 163.849 Q281.065 167.391 284.676 167.391 Q288.31 167.391 290.116 163.849 Q291.944 160.284 291.944 153.178 Q291.944 146.048 290.116 142.507 Q288.31 138.942 284.676 138.942 M284.676 135.238 Q290.486 135.238 293.542 139.845 Q296.62 144.428 296.62 153.178 Q296.62 161.905 293.542 166.511 Q290.486 171.095 284.676 171.095 Q278.866 171.095 275.787 166.511 Q272.732 161.905 272.732 153.178 Q272.732 144.428 275.787 139.845 Q278.866 135.238 284.676 135.238 Z" fill="#000000" fill-rule="nonzero" fill-opacity="1" /><path clip-path="url(#clip450)" d="M16.4842 816.375 L16.4842 786.329 L21.895 786.329 L21.895 809.945 L35.9632 809.945 L35.9632 787.315 L41.3741 787.315 L41.3741 809.945 L58.5933 809.945 L58.5933 785.756 L64.0042 785.756 L64.0042 816.375 L16.4842 816.375 Z" fill="#000000" fill-rule="nonzero" fill-opacity="1" /><path clip-path="url(#clip450)" d="M16.4842 775.189 L16.4842 768.759 L58.5933 768.759 L58.5933 745.62 L64.0042 745.62 L64.0042 775.189 L16.4842 775.189 Z" fill="#000000" fill-rule="nonzero" fill-opacity="1" /><path clip-path="url(#clip450)" d="M41.3104 732.443 L58.7206 732.443 L58.7206 722.13 Q58.7206 716.942 56.5881 714.46 Q54.4238 711.945 49.9996 711.945 Q45.5436 711.945 43.4429 714.46 Q41.3104 716.942 41.3104 722.13 L41.3104 732.443 M21.7677 732.443 L36.0905 732.443 L36.0905 722.926 Q36.0905 718.216 34.34 715.924 Q32.5576 713.6 28.9291 713.6 Q25.3325 713.6 23.5501 715.924 Q21.7677 718.216 21.7677 722.926 L21.7677 732.443 M16.4842 738.872 L16.4842 722.449 Q16.4842 715.096 19.5397 711.118 Q22.5952 707.139 28.2289 707.139 Q32.5894 707.139 35.1675 709.176 Q37.7456 711.213 38.3822 715.16 Q39.4007 710.418 42.6472 707.808 Q45.8619 705.166 50.6998 705.166 Q57.0655 705.166 60.5348 709.495 Q64.0042 713.823 64.0042 721.812 L64.0042 738.872 L16.4842 738.872 Z" fill="#000000" fill-rule="nonzero" fill-opacity="1" /><path clip-path="url(#clip450)" d="M20.8447 676.011 Q20.8447 683.013 26.0645 687.151 Q31.2844 691.257 40.2919 691.257 Q49.2675 691.257 54.4874 687.151 Q59.7073 683.013 59.7073 676.011 Q59.7073 669.009 54.4874 664.935 Q49.2675 660.829 40.2919 660.829 Q31.2844 660.829 26.0645 664.935 Q20.8447 669.009 20.8447 676.011 M15.6248 676.011 Q15.6248 666.017 22.3406 660.033 Q29.0246 654.049 40.2919 654.049 Q51.5274 654.049 58.2432 660.033 Q64.9272 666.017 64.9272 676.011 Q64.9272 686.037 58.2432 692.052 Q51.5592 698.036 40.2919 698.036 Q29.0246 698.036 22.3406 692.052 Q15.6248 686.037 15.6248 676.011 Z" fill="#000000" fill-rule="nonzero" fill-opacity="1" /><polyline clip-path="url(#clip452)" style="stroke:#009af9; stroke-linecap:round; stroke-linejoin:round; stroke-width:4; stroke-opacity:1; fill:none" points="440.425,1384.24 507.262,632.59 568.547,399.288 630.684,345.782 689.638,294.519 749.914,277.876 810.174,261.93 871.324,253.422 930.968,241.772 991.743,238.222 1051.76,232.608 1111.48,224.66 1171.37,215.147 1234.32,200.345 1292.8,194.771 1351.15,190.304 1410.83,179.787 1469.61,173.271 1527.39,163.554 1585.43,152.273 1645.16,145.591 1703.94,140.017 1762.29,140.291 1821.18,135.973 1879.78,135.004 1939.69,131.32 1999.63,124.07 2059.62,114.279 2119.22,101.981 2178.22,96.2459 2236.92,92.3448 2295.58,86.1857 "/>
<polyline clip-path="url(#clip452)" style="stroke:#e26f46; stroke-linecap:round; stroke-linejoin:round; stroke-width:4; stroke-opacity:1; fill:none" points="389.794,1274.31 418.41,750.177 429.788,478.791 440.724,345.465 454.831,329.572 465.982,307.804 477.084,280.893 487.899,264.09 498.994,267.476 509.734,265.226 520.482,245.305 531.522,235.514 542.219,235.926 552.906,225.843 563.86,219.682 574.671,216.285 586.8,204.61 597.806,199.78 608.469,202.081 619.213,192.849 630.225,189.218 640.888,180.611 651.809,175.291 662.464,168.276 673.132,161.918 684.051,164.398 694.675,154.416 705.241,141.267 716.121,138.956 726.693,136.642 737.275,129.502 748.322,132.433 "/>
<path clip-path="url(#clip450)" d="M1784.1 1377.32 L2285.42 1377.32 L2285.42 1221.8 L1784.1 1221.8  Z" fill="#ffffff" fill-rule="evenodd" fill-opacity="1"/>
<polyline clip-path="url(#clip450)" style="stroke:#000000; stroke-linecap:round; stroke-linejoin:round; stroke-width:4; stroke-opacity:1; fill:none" points="1784.1,1377.32 2285.42,1377.32 2285.42,1221.8 1784.1,1221.8 1784.1,1377.32 "/>
<polyline clip-path="url(#clip450)" style="stroke:#009af9; stroke-linecap:round; stroke-linejoin:round; stroke-width:4; stroke-opacity:1; fill:none" points="1806.55,1273.64 1941.22,1273.64 "/>
<path clip-path="url(#clip450)" d="M1963.67 1256.36 L1983.53 1256.36 L1983.53 1260.29 L1968.34 1260.29 L1968.34 1270.48 L1982.05 1270.48 L1982.05 1274.41 L1968.34 1274.41 L1968.34 1290.92 L1963.67 1290.92 L1963.67 1256.36 Z" fill="#000000" fill-rule="nonzero" fill-opacity="1" /><path clip-path="url(#clip450)" d="M1987.72 1280.68 L1987.72 1264.99 L1991.98 1264.99 L1991.98 1280.52 Q1991.98 1284.2 1993.41 1286.05 Q1994.85 1287.88 1997.72 1287.88 Q2001.17 1287.88 2003.16 1285.68 Q2005.17 1283.48 2005.17 1279.69 L2005.17 1264.99 L2009.43 1264.99 L2009.43 1290.92 L2005.17 1290.92 L2005.17 1286.93 Q2003.62 1289.29 2001.56 1290.45 Q1999.52 1291.59 1996.82 1291.59 Q1992.35 1291.59 1990.03 1288.81 Q1987.72 1286.03 1987.72 1280.68 M1998.44 1264.36 L1998.44 1264.36 Z" fill="#000000" fill-rule="nonzero" fill-opacity="1" /><path clip-path="url(#clip450)" d="M2018.2 1254.9 L2022.46 1254.9 L2022.46 1290.92 L2018.2 1290.92 L2018.2 1254.9 Z" fill="#000000" fill-rule="nonzero" fill-opacity="1" /><path clip-path="url(#clip450)" d="M2031.38 1254.9 L2035.64 1254.9 L2035.64 1290.92 L2031.38 1290.92 L2031.38 1254.9 Z" fill="#000000" fill-rule="nonzero" fill-opacity="1" /><path clip-path="url(#clip450)" d="M2064.48 1274.41 L2064.48 1287.07 L2071.98 1287.07 Q2075.75 1287.07 2077.56 1285.52 Q2079.39 1283.95 2079.39 1280.73 Q2079.39 1277.49 2077.56 1275.96 Q2075.75 1274.41 2071.98 1274.41 L2064.48 1274.41 M2064.48 1260.2 L2064.48 1270.61 L2071.4 1270.61 Q2074.82 1270.61 2076.49 1269.34 Q2078.18 1268.05 2078.18 1265.41 Q2078.18 1262.79 2076.49 1261.49 Q2074.82 1260.2 2071.4 1260.2 L2064.48 1260.2 M2059.8 1256.36 L2071.75 1256.36 Q2077.09 1256.36 2079.99 1258.58 Q2082.88 1260.8 2082.88 1264.9 Q2082.88 1268.07 2081.4 1269.94 Q2079.92 1271.82 2077.05 1272.28 Q2080.5 1273.02 2082.39 1275.38 Q2084.32 1277.72 2084.32 1281.24 Q2084.32 1285.87 2081.17 1288.39 Q2078.02 1290.92 2072.21 1290.92 L2059.8 1290.92 L2059.8 1256.36 Z" fill="#000000" fill-rule="nonzero" fill-opacity="1" /><path clip-path="url(#clip450)" d="M2103.92 1277.88 Q2098.76 1277.88 2096.77 1279.06 Q2094.78 1280.24 2094.78 1283.09 Q2094.78 1285.36 2096.26 1286.7 Q2097.76 1288.02 2100.33 1288.02 Q2103.88 1288.02 2106.01 1285.52 Q2108.16 1283 2108.16 1278.83 L2108.16 1277.88 L2103.92 1277.88 M2112.42 1276.12 L2112.42 1290.92 L2108.16 1290.92 L2108.16 1286.98 Q2106.7 1289.34 2104.52 1290.48 Q2102.35 1291.59 2099.2 1291.59 Q2095.22 1291.59 2092.86 1289.36 Q2090.52 1287.12 2090.52 1283.37 Q2090.52 1278.99 2093.44 1276.77 Q2096.38 1274.55 2102.19 1274.55 L2108.16 1274.55 L2108.16 1274.13 Q2108.16 1271.19 2106.21 1269.6 Q2104.29 1267.98 2100.8 1267.98 Q2098.57 1267.98 2096.47 1268.51 Q2094.36 1269.04 2092.42 1270.11 L2092.42 1266.17 Q2094.76 1265.27 2096.95 1264.83 Q2099.15 1264.36 2101.24 1264.36 Q2106.86 1264.36 2109.64 1267.28 Q2112.42 1270.2 2112.42 1276.12 Z" fill="#000000" fill-rule="nonzero" fill-opacity="1" /><path clip-path="url(#clip450)" d="M2125.4 1257.63 L2125.4 1264.99 L2134.18 1264.99 L2134.18 1268.3 L2125.4 1268.3 L2125.4 1282.37 Q2125.4 1285.54 2126.26 1286.45 Q2127.14 1287.35 2129.8 1287.35 L2134.18 1287.35 L2134.18 1290.92 L2129.8 1290.92 Q2124.87 1290.92 2123 1289.09 Q2121.12 1287.23 2121.12 1282.37 L2121.12 1268.3 L2118 1268.3 L2118 1264.99 L2121.12 1264.99 L2121.12 1257.63 L2125.4 1257.63 Z" fill="#000000" fill-rule="nonzero" fill-opacity="1" /><path clip-path="url(#clip450)" d="M2158.44 1265.98 L2158.44 1269.97 Q2156.63 1268.97 2154.8 1268.48 Q2153 1267.98 2151.14 1267.98 Q2147 1267.98 2144.71 1270.61 Q2142.42 1273.23 2142.42 1277.98 Q2142.42 1282.72 2144.71 1285.36 Q2147 1287.98 2151.14 1287.98 Q2153 1287.98 2154.8 1287.49 Q2156.63 1286.98 2158.44 1285.98 L2158.44 1289.92 Q2156.65 1290.75 2154.73 1291.17 Q2152.83 1291.59 2150.68 1291.59 Q2144.82 1291.59 2141.38 1287.91 Q2137.93 1284.23 2137.93 1277.98 Q2137.93 1271.63 2141.4 1268 Q2144.89 1264.36 2150.96 1264.36 Q2152.93 1264.36 2154.8 1264.78 Q2156.68 1265.17 2158.44 1265.98 Z" fill="#000000" fill-rule="nonzero" fill-opacity="1" /><path clip-path="url(#clip450)" d="M2187.39 1275.27 L2187.39 1290.92 L2183.13 1290.92 L2183.13 1275.41 Q2183.13 1271.73 2181.7 1269.9 Q2180.26 1268.07 2177.39 1268.07 Q2173.94 1268.07 2171.95 1270.27 Q2169.96 1272.47 2169.96 1276.26 L2169.96 1290.92 L2165.68 1290.92 L2165.68 1254.9 L2169.96 1254.9 L2169.96 1269.02 Q2171.49 1266.68 2173.55 1265.52 Q2175.63 1264.36 2178.34 1264.36 Q2182.81 1264.36 2185.1 1267.14 Q2187.39 1269.9 2187.39 1275.27 Z" fill="#000000" fill-rule="nonzero" fill-opacity="1" /><polyline clip-path="url(#clip450)" style="stroke:#e26f46; stroke-linecap:round; stroke-linejoin:round; stroke-width:4; stroke-opacity:1; fill:none" points="1806.55,1325.48 1941.22,1325.48 "/>
<path clip-path="url(#clip450)" d="M1985.91 1309.33 L1985.91 1313.89 Q1983.25 1312.62 1980.89 1311.99 Q1978.53 1311.37 1976.33 1311.37 Q1972.51 1311.37 1970.43 1312.85 Q1968.37 1314.33 1968.37 1317.06 Q1968.37 1319.35 1969.73 1320.53 Q1971.12 1321.69 1974.96 1322.41 L1977.79 1322.99 Q1983.02 1323.98 1985.5 1326.51 Q1988 1329.01 1988 1333.22 Q1988 1338.24 1984.62 1340.83 Q1981.26 1343.43 1974.76 1343.43 Q1972.3 1343.43 1969.52 1342.87 Q1966.77 1342.32 1963.81 1341.23 L1963.81 1336.41 Q1966.65 1338.01 1969.39 1338.82 Q1972.12 1339.63 1974.76 1339.63 Q1978.76 1339.63 1980.94 1338.06 Q1983.11 1336.48 1983.11 1333.57 Q1983.11 1331.02 1981.54 1329.58 Q1979.99 1328.15 1976.42 1327.43 L1973.58 1326.88 Q1968.34 1325.83 1966.01 1323.61 Q1963.67 1321.39 1963.67 1317.43 Q1963.67 1312.85 1966.89 1310.21 Q1970.13 1307.57 1975.8 1307.57 Q1978.23 1307.57 1980.75 1308.01 Q1983.27 1308.45 1985.91 1309.33 Z" fill="#000000" fill-rule="nonzero" fill-opacity="1" /><path clip-path="url(#clip450)" d="M1994.66 1332.52 L1994.66 1316.83 L1998.92 1316.83 L1998.92 1332.36 Q1998.92 1336.04 2000.36 1337.89 Q2001.79 1339.72 2004.66 1339.72 Q2008.11 1339.72 2010.1 1337.52 Q2012.12 1335.32 2012.12 1331.53 L2012.12 1316.83 L2016.38 1316.83 L2016.38 1342.76 L2012.12 1342.76 L2012.12 1338.77 Q2010.57 1341.13 2008.51 1342.29 Q2006.47 1343.43 2003.76 1343.43 Q1999.29 1343.43 1996.98 1340.65 Q1994.66 1337.87 1994.66 1332.52 M2005.38 1316.2 L2005.38 1316.2 Z" fill="#000000" fill-rule="nonzero" fill-opacity="1" /><path clip-path="url(#clip450)" d="M2043.76 1329.82 Q2043.76 1325.12 2041.82 1322.45 Q2039.89 1319.77 2036.51 1319.77 Q2033.14 1319.77 2031.19 1322.45 Q2029.27 1325.12 2029.27 1329.82 Q2029.27 1334.51 2031.19 1337.2 Q2033.14 1339.86 2036.51 1339.86 Q2039.89 1339.86 2041.82 1337.2 Q2043.76 1334.51 2043.76 1329.82 M2029.27 1320.76 Q2030.61 1318.45 2032.65 1317.34 Q2034.71 1316.2 2037.56 1316.2 Q2042.28 1316.2 2045.22 1319.95 Q2048.18 1323.7 2048.18 1329.82 Q2048.18 1335.93 2045.22 1339.68 Q2042.28 1343.43 2037.56 1343.43 Q2034.71 1343.43 2032.65 1342.32 Q2030.61 1341.18 2029.27 1338.87 L2029.27 1342.76 L2024.99 1342.76 L2024.99 1306.74 L2029.27 1306.74 L2029.27 1320.76 Z" fill="#000000" fill-rule="nonzero" fill-opacity="1" /><path clip-path="url(#clip450)" d="M2071.77 1317.59 L2071.77 1321.62 Q2069.96 1320.7 2068.02 1320.23 Q2066.08 1319.77 2063.99 1319.77 Q2060.82 1319.77 2059.22 1320.74 Q2057.65 1321.71 2057.65 1323.66 Q2057.65 1325.14 2058.78 1326 Q2059.92 1326.83 2063.34 1327.59 L2064.8 1327.92 Q2069.34 1328.89 2071.24 1330.67 Q2073.16 1332.43 2073.16 1335.6 Q2073.16 1339.21 2070.29 1341.32 Q2067.44 1343.43 2062.44 1343.43 Q2060.36 1343.43 2058.09 1343.01 Q2055.84 1342.62 2053.34 1341.81 L2053.34 1337.41 Q2055.7 1338.63 2058 1339.26 Q2060.29 1339.86 2062.53 1339.86 Q2065.54 1339.86 2067.16 1338.84 Q2068.78 1337.8 2068.78 1335.93 Q2068.78 1334.19 2067.6 1333.26 Q2066.45 1332.34 2062.49 1331.48 L2061.01 1331.14 Q2057.05 1330.3 2055.29 1328.59 Q2053.53 1326.85 2053.53 1323.84 Q2053.53 1320.19 2056.12 1318.2 Q2058.71 1316.2 2063.48 1316.2 Q2065.84 1316.2 2067.93 1316.55 Q2070.01 1316.9 2071.77 1317.59 Z" fill="#000000" fill-rule="nonzero" fill-opacity="1" /><path clip-path="url(#clip450)" d="M2091.72 1329.72 Q2086.56 1329.72 2084.57 1330.9 Q2082.58 1332.08 2082.58 1334.93 Q2082.58 1337.2 2084.06 1338.54 Q2085.57 1339.86 2088.14 1339.86 Q2091.68 1339.86 2093.81 1337.36 Q2095.96 1334.84 2095.96 1330.67 L2095.96 1329.72 L2091.72 1329.72 M2100.22 1327.96 L2100.22 1342.76 L2095.96 1342.76 L2095.96 1338.82 Q2094.5 1341.18 2092.32 1342.32 Q2090.15 1343.43 2087 1343.43 Q2083.02 1343.43 2080.66 1341.2 Q2078.32 1338.96 2078.32 1335.21 Q2078.32 1330.83 2081.24 1328.61 Q2084.18 1326.39 2089.99 1326.39 L2095.96 1326.39 L2095.96 1325.97 Q2095.96 1323.03 2094.01 1321.44 Q2092.09 1319.82 2088.6 1319.82 Q2086.38 1319.82 2084.27 1320.35 Q2082.16 1320.88 2080.22 1321.95 L2080.22 1318.01 Q2082.56 1317.11 2084.76 1316.67 Q2086.95 1316.2 2089.04 1316.2 Q2094.66 1316.2 2097.44 1319.12 Q2100.22 1322.04 2100.22 1327.96 Z" fill="#000000" fill-rule="nonzero" fill-opacity="1" /><path clip-path="url(#clip450)" d="M2129.18 1321.81 Q2130.77 1318.94 2133 1317.57 Q2135.22 1316.2 2138.23 1316.2 Q2142.28 1316.2 2144.48 1319.05 Q2146.68 1321.88 2146.68 1327.11 L2146.68 1342.76 L2142.39 1342.76 L2142.39 1327.25 Q2142.39 1323.52 2141.07 1321.71 Q2139.76 1319.91 2137.05 1319.91 Q2133.74 1319.91 2131.82 1322.11 Q2129.89 1324.31 2129.89 1328.1 L2129.89 1342.76 L2125.61 1342.76 L2125.61 1327.25 Q2125.61 1323.5 2124.29 1321.71 Q2122.97 1319.91 2120.22 1319.91 Q2116.95 1319.91 2115.03 1322.13 Q2113.11 1324.33 2113.11 1328.1 L2113.11 1342.76 L2108.83 1342.76 L2108.83 1316.83 L2113.11 1316.83 L2113.11 1320.86 Q2114.57 1318.47 2116.61 1317.34 Q2118.64 1316.2 2121.45 1316.2 Q2124.27 1316.2 2126.24 1317.64 Q2128.23 1319.07 2129.18 1321.81 Z" fill="#000000" fill-rule="nonzero" fill-opacity="1" /><path clip-path="url(#clip450)" d="M2159.29 1338.87 L2159.29 1352.62 L2155.01 1352.62 L2155.01 1316.83 L2159.29 1316.83 L2159.29 1320.76 Q2160.63 1318.45 2162.67 1317.34 Q2164.73 1316.2 2167.58 1316.2 Q2172.3 1316.2 2175.24 1319.95 Q2178.2 1323.7 2178.2 1329.82 Q2178.2 1335.93 2175.24 1339.68 Q2172.3 1343.43 2167.58 1343.43 Q2164.73 1343.43 2162.67 1342.32 Q2160.63 1341.18 2159.29 1338.87 M2173.78 1329.82 Q2173.78 1325.12 2171.84 1322.45 Q2169.92 1319.77 2166.54 1319.77 Q2163.16 1319.77 2161.21 1322.45 Q2159.29 1325.12 2159.29 1329.82 Q2159.29 1334.51 2161.21 1337.2 Q2163.16 1339.86 2166.54 1339.86 Q2169.92 1339.86 2171.84 1337.2 Q2173.78 1334.51 2173.78 1329.82 Z" fill="#000000" fill-rule="nonzero" fill-opacity="1" /><path clip-path="url(#clip450)" d="M2185.26 1306.74 L2189.52 1306.74 L2189.52 1342.76 L2185.26 1342.76 L2185.26 1306.74 Z" fill="#000000" fill-rule="nonzero" fill-opacity="1" /><path clip-path="url(#clip450)" d="M2198.44 1316.83 L2202.69 1316.83 L2202.69 1342.76 L2198.44 1342.76 L2198.44 1316.83 M2198.44 1306.74 L2202.69 1306.74 L2202.69 1312.13 L2198.44 1312.13 L2198.44 1306.74 Z" fill="#000000" fill-rule="nonzero" fill-opacity="1" /><path clip-path="url(#clip450)" d="M2233.16 1327.11 L2233.16 1342.76 L2228.9 1342.76 L2228.9 1327.25 Q2228.9 1323.57 2227.46 1321.74 Q2226.03 1319.91 2223.16 1319.91 Q2219.71 1319.91 2217.72 1322.11 Q2215.73 1324.31 2215.73 1328.1 L2215.73 1342.76 L2211.44 1342.76 L2211.44 1316.83 L2215.73 1316.83 L2215.73 1320.86 Q2217.25 1318.52 2219.31 1317.36 Q2221.4 1316.2 2224.11 1316.2 Q2228.57 1316.2 2230.87 1318.98 Q2233.16 1321.74 2233.16 1327.11 Z" fill="#000000" fill-rule="nonzero" fill-opacity="1" /><path clip-path="url(#clip450)" d="M2258.71 1329.49 Q2258.71 1324.86 2256.79 1322.32 Q2254.89 1319.77 2251.44 1319.77 Q2248.02 1319.77 2246.1 1322.32 Q2244.2 1324.86 2244.2 1329.49 Q2244.2 1334.1 2246.1 1336.64 Q2248.02 1339.19 2251.44 1339.19 Q2254.89 1339.19 2256.79 1336.64 Q2258.71 1334.1 2258.71 1329.49 M2262.97 1339.54 Q2262.97 1346.16 2260.03 1349.38 Q2257.09 1352.62 2251.03 1352.62 Q2248.78 1352.62 2246.79 1352.27 Q2244.8 1351.95 2242.93 1351.25 L2242.93 1347.11 Q2244.8 1348.13 2246.63 1348.61 Q2248.46 1349.1 2250.36 1349.1 Q2254.55 1349.1 2256.63 1346.9 Q2258.71 1344.72 2258.71 1340.3 L2258.71 1338.2 Q2257.39 1340.49 2255.33 1341.62 Q2253.27 1342.76 2250.4 1342.76 Q2245.63 1342.76 2242.72 1339.12 Q2239.8 1335.49 2239.8 1329.49 Q2239.8 1323.47 2242.72 1319.84 Q2245.63 1316.2 2250.4 1316.2 Q2253.27 1316.2 2255.33 1317.34 Q2257.39 1318.47 2258.71 1320.76 L2258.71 1316.83 L2262.97 1316.83 L2262.97 1339.54 Z" fill="#000000" fill-rule="nonzero" fill-opacity="1" /></svg>
