<?xml version="1.0" encoding="utf-8"?>
<svg xmlns="http://www.w3.org/2000/svg" xmlns:xlink="http://www.w3.org/1999/xlink" width="600" height="400" viewBox="0 0 2400 1600">
<defs>
  <clipPath id="clip490">
    <rect x="0" y="0" width="2400" height="1600"/>
  </clipPath>
</defs>
<path clip-path="url(#clip490)" d="M0 1600 L2400 1600 L2400 0 L0 0  Z" fill="#ffffff" fill-rule="evenodd" fill-opacity="1"/>
<defs>
  <clipPath id="clip491">
    <rect x="480" y="0" width="1681" height="1600"/>
  </clipPath>
</defs>
<path clip-path="url(#clip490)" d="M302.458 1423.18 L2352.76 1423.18 L2352.76 47.2441 L302.458 47.2441  Z" fill="#ffffff" fill-rule="evenodd" fill-opacity="1"/>
<defs>
  <clipPath id="clip492">
    <rect x="302" y="47" width="2051" height="1377"/>
  </clipPath>
</defs>
<polyline clip-path="url(#clip492)" style="stroke:#000000; stroke-linecap:round; stroke-linejoin:round; stroke-width:2; stroke-opacity:0.1; fill:none" points="359.862,1423.18 359.862,47.2441 "/>
<polyline clip-path="url(#clip492)" style="stroke:#000000; stroke-linecap:round; stroke-linejoin:round; stroke-width:2; stroke-opacity:0.1; fill:none" points="983.811,1423.18 983.811,47.2441 "/>
<polyline clip-path="url(#clip492)" style="stroke:#000000; stroke-linecap:round; stroke-linejoin:round; stroke-width:2; stroke-opacity:0.1; fill:none" points="1607.76,1423.18 1607.76,47.2441 "/>
<polyline clip-path="url(#clip492)" style="stroke:#000000; stroke-linecap:round; stroke-linejoin:round; stroke-width:2; stroke-opacity:0.1; fill:none" points="2231.71,1423.18 2231.71,47.2441 "/>
<polyline clip-path="url(#clip492)" style="stroke:#000000; stroke-linecap:round; stroke-linejoin:round; stroke-width:2; stroke-opacity:0.1; fill:none" points="302.458,1273.24 2352.76,1273.24 "/>
<polyline clip-path="url(#clip492)" style="stroke:#000000; stroke-linecap:round; stroke-linejoin:round; stroke-width:2; stroke-opacity:0.1; fill:none" points="302.458,941.399 2352.76,941.399 "/>
<polyline clip-path="url(#clip492)" style="stroke:#000000; stroke-linecap:round; stroke-linejoin:round; stroke-width:2; stroke-opacity:0.1; fill:none" points="302.458,609.556 2352.76,609.556 "/>
<polyline clip-path="url(#clip492)" style="stroke:#000000; stroke-linecap:round; stroke-linejoin:round; stroke-width:2; stroke-opacity:0.1; fill:none" points="302.458,277.712 2352.76,277.712 "/>
<polyline clip-path="url(#clip490)" style="stroke:#000000; stroke-linecap:round; stroke-linejoin:round; stroke-width:4; stroke-opacity:1; fill:none" points="302.458,1423.18 2352.76,1423.18 "/>
<polyline clip-path="url(#clip490)" style="stroke:#000000; stroke-linecap:round; stroke-linejoin:round; stroke-width:4; stroke-opacity:1; fill:none" points="359.862,1423.18 359.862,1404.28 "/>
<polyline clip-path="url(#clip490)" style="stroke:#000000; stroke-linecap:round; stroke-linejoin:round; stroke-width:4; stroke-opacity:1; fill:none" points="983.811,1423.18 983.811,1404.28 "/>
<polyline clip-path="url(#clip490)" style="stroke:#000000; stroke-linecap:round; stroke-linejoin:round; stroke-width:4; stroke-opacity:1; fill:none" points="1607.76,1423.18 1607.76,1404.28 "/>
<polyline clip-path="url(#clip490)" style="stroke:#000000; stroke-linecap:round; stroke-linejoin:round; stroke-width:4; stroke-opacity:1; fill:none" points="2231.71,1423.18 2231.71,1404.28 "/>
<path clip-path="url(#clip490)" d="M359.862 1454.1 Q356.251 1454.1 354.422 1457.66 Q352.616 1461.2 352.616 1468.33 Q352.616 1475.44 354.422 1479.01 Q356.251 1482.55 359.862 1482.55 Q363.496 1482.55 365.302 1479.01 Q367.13 1475.44 367.13 1468.33 Q367.13 1461.2 365.302 1457.66 Q363.496 1454.1 359.862 1454.1 M359.862 1450.39 Q365.672 1450.39 368.727 1455 Q371.806 1459.58 371.806 1468.33 Q371.806 1477.06 368.727 1481.67 Q365.672 1486.25 359.862 1486.25 Q354.052 1486.25 350.973 1481.67 Q347.917 1477.06 347.917 1468.33 Q347.917 1459.58 350.973 1455 Q354.052 1450.39 359.862 1450.39 Z" fill="#000000" fill-rule="nonzero" fill-opacity="1" /><path clip-path="url(#clip490)" d="M928.337 1481.64 L935.976 1481.64 L935.976 1455.28 L927.666 1456.95 L927.666 1452.69 L935.929 1451.02 L940.605 1451.02 L940.605 1481.64 L948.244 1481.64 L948.244 1485.58 L928.337 1485.58 L928.337 1481.64 Z" fill="#000000" fill-rule="nonzero" fill-opacity="1" /><path clip-path="url(#clip490)" d="M967.688 1454.1 Q964.077 1454.1 962.249 1457.66 Q960.443 1461.2 960.443 1468.33 Q960.443 1475.44 962.249 1479.01 Q964.077 1482.55 967.688 1482.55 Q971.323 1482.55 973.128 1479.01 Q974.957 1475.44 974.957 1468.33 Q974.957 1461.2 973.128 1457.66 Q971.323 1454.1 967.688 1454.1 M967.688 1450.39 Q973.499 1450.39 976.554 1455 Q979.633 1459.58 979.633 1468.33 Q979.633 1477.06 976.554 1481.67 Q973.499 1486.25 967.688 1486.25 Q961.878 1486.25 958.8 1481.67 Q955.744 1477.06 955.744 1468.33 Q955.744 1459.58 958.8 1455 Q961.878 1450.39 967.688 1450.39 Z" fill="#000000" fill-rule="nonzero" fill-opacity="1" /><path clip-path="url(#clip490)" d="M997.85 1454.1 Q994.239 1454.1 992.411 1457.66 Q990.605 1461.2 990.605 1468.33 Q990.605 1475.44 992.411 1479.01 Q994.239 1482.55 997.85 1482.55 Q1001.48 1482.55 1003.29 1479.01 Q1005.12 1475.44 1005.12 1468.33 Q1005.12 1461.2 1003.29 1457.66 Q1001.48 1454.1 997.85 1454.1 M997.85 1450.39 Q1003.66 1450.39 1006.72 1455 Q1009.79 1459.58 1009.79 1468.33 Q1009.79 1477.06 1006.72 1481.67 Q1003.66 1486.25 997.85 1486.25 Q992.04 1486.25 988.962 1481.67 Q985.906 1477.06 985.906 1468.33 Q985.906 1459.58 988.962 1455 Q992.04 1450.39 997.85 1450.39 Z" fill="#000000" fill-rule="nonzero" fill-opacity="1" /><path clip-path="url(#clip490)" d="M1028.01 1454.1 Q1024.4 1454.1 1022.57 1457.66 Q1020.77 1461.2 1020.77 1468.33 Q1020.77 1475.44 1022.57 1479.01 Q1024.4 1482.55 1028.01 1482.55 Q1031.65 1482.55 1033.45 1479.01 Q1035.28 1475.44 1035.28 1468.33 Q1035.28 1461.2 1033.45 1457.66 Q1031.65 1454.1 1028.01 1454.1 M1028.01 1450.39 Q1033.82 1450.39 1036.88 1455 Q1039.96 1459.58 1039.96 1468.33 Q1039.96 1477.06 1036.88 1481.67 Q1033.82 1486.25 1028.01 1486.25 Q1022.2 1486.25 1019.12 1481.67 Q1016.07 1477.06 1016.07 1468.33 Q1016.07 1459.58 1019.12 1455 Q1022.2 1450.39 1028.01 1450.39 Z" fill="#000000" fill-rule="nonzero" fill-opacity="1" /><path clip-path="url(#clip490)" d="M1556.37 1481.64 L1572.69 1481.64 L1572.69 1485.58 L1550.75 1485.58 L1550.75 1481.64 Q1553.41 1478.89 1557.99 1474.26 Q1562.6 1469.61 1563.78 1468.27 Q1566.02 1465.74 1566.9 1464.01 Q1567.81 1462.25 1567.81 1460.56 Q1567.81 1457.8 1565.86 1456.07 Q1563.94 1454.33 1560.84 1454.33 Q1558.64 1454.33 1556.19 1455.09 Q1553.76 1455.86 1550.98 1457.41 L1550.98 1452.69 Q1553.8 1451.55 1556.26 1450.97 Q1558.71 1450.39 1560.75 1450.39 Q1566.12 1450.39 1569.31 1453.08 Q1572.51 1455.77 1572.51 1460.26 Q1572.51 1462.39 1571.7 1464.31 Q1570.91 1466.2 1568.8 1468.8 Q1568.22 1469.47 1565.12 1472.69 Q1562.02 1475.88 1556.37 1481.64 Z" fill="#000000" fill-rule="nonzero" fill-opacity="1" /><path clip-path="url(#clip490)" d="M1592.51 1454.1 Q1588.89 1454.1 1587.07 1457.66 Q1585.26 1461.2 1585.26 1468.33 Q1585.26 1475.44 1587.07 1479.01 Q1588.89 1482.55 1592.51 1482.55 Q1596.14 1482.55 1597.95 1479.01 Q1599.77 1475.44 1599.77 1468.33 Q1599.77 1461.2 1597.95 1457.66 Q1596.14 1454.1 1592.51 1454.1 M1592.51 1450.39 Q1598.32 1450.39 1601.37 1455 Q1604.45 1459.58 1604.45 1468.33 Q1604.45 1477.06 1601.37 1481.67 Q1598.32 1486.25 1592.51 1486.25 Q1586.7 1486.25 1583.62 1481.67 Q1580.56 1477.06 1580.56 1468.33 Q1580.56 1459.58 1583.62 1455 Q1586.7 1450.39 1592.51 1450.39 Z" fill="#000000" fill-rule="nonzero" fill-opacity="1" /><path clip-path="url(#clip490)" d="M1622.67 1454.1 Q1619.06 1454.1 1617.23 1457.66 Q1615.42 1461.2 1615.42 1468.33 Q1615.42 1475.44 1617.23 1479.01 Q1619.06 1482.55 1622.67 1482.55 Q1626.3 1482.55 1628.11 1479.01 Q1629.94 1475.44 1629.94 1468.33 Q1629.94 1461.2 1628.11 1457.66 Q1626.3 1454.1 1622.67 1454.1 M1622.67 1450.39 Q1628.48 1450.39 1631.53 1455 Q1634.61 1459.58 1634.61 1468.33 Q1634.61 1477.06 1631.53 1481.67 Q1628.48 1486.25 1622.67 1486.25 Q1616.86 1486.25 1613.78 1481.67 Q1610.72 1477.06 1610.72 1468.33 Q1610.72 1459.58 1613.78 1455 Q1616.86 1450.39 1622.67 1450.39 Z" fill="#000000" fill-rule="nonzero" fill-opacity="1" /><path clip-path="url(#clip490)" d="M1652.83 1454.1 Q1649.22 1454.1 1647.39 1457.66 Q1645.58 1461.2 1645.58 1468.33 Q1645.58 1475.44 1647.39 1479.01 Q1649.22 1482.55 1652.83 1482.55 Q1656.46 1482.55 1658.27 1479.01 Q1660.1 1475.44 1660.1 1468.33 Q1660.1 1461.2 1658.27 1457.66 Q1656.46 1454.1 1652.83 1454.1 M1652.83 1450.39 Q1658.64 1450.39 1661.7 1455 Q1664.77 1459.58 1664.77 1468.33 Q1664.77 1477.06 1661.7 1481.67 Q1658.64 1486.25 1652.83 1486.25 Q1647.02 1486.25 1643.94 1481.67 Q1640.89 1477.06 1640.89 1468.33 Q1640.89 1459.58 1643.94 1455 Q1647.02 1450.39 1652.83 1450.39 Z" fill="#000000" fill-rule="nonzero" fill-opacity="1" /><path clip-path="url(#clip490)" d="M2190.39 1466.95 Q2193.75 1467.66 2195.62 1469.93 Q2197.52 1472.2 2197.52 1475.53 Q2197.52 1480.65 2194 1483.45 Q2190.48 1486.25 2184 1486.25 Q2181.83 1486.25 2179.51 1485.81 Q2177.22 1485.39 2174.77 1484.54 L2174.77 1480.02 Q2176.71 1481.16 2179.02 1481.74 Q2181.34 1482.32 2183.86 1482.32 Q2188.26 1482.32 2190.55 1480.58 Q2192.87 1478.84 2192.87 1475.53 Q2192.87 1472.48 2190.71 1470.77 Q2188.58 1469.03 2184.77 1469.03 L2180.74 1469.03 L2180.74 1465.19 L2184.95 1465.19 Q2188.4 1465.19 2190.23 1463.82 Q2192.06 1462.43 2192.06 1459.84 Q2192.06 1457.18 2190.16 1455.77 Q2188.28 1454.33 2184.77 1454.33 Q2182.84 1454.33 2180.65 1454.75 Q2178.45 1455.16 2175.81 1456.04 L2175.81 1451.88 Q2178.47 1451.14 2180.78 1450.77 Q2183.12 1450.39 2185.18 1450.39 Q2190.51 1450.39 2193.61 1452.83 Q2196.71 1455.23 2196.71 1459.35 Q2196.71 1462.22 2195.07 1464.21 Q2193.42 1466.18 2190.39 1466.95 Z" fill="#000000" fill-rule="nonzero" fill-opacity="1" /><path clip-path="url(#clip490)" d="M2216.39 1454.1 Q2212.77 1454.1 2210.95 1457.66 Q2209.14 1461.2 2209.14 1468.33 Q2209.14 1475.44 2210.95 1479.01 Q2212.77 1482.55 2216.39 1482.55 Q2220.02 1482.55 2221.83 1479.01 Q2223.65 1475.44 2223.65 1468.33 Q2223.65 1461.2 2221.83 1457.66 Q2220.02 1454.1 2216.39 1454.1 M2216.39 1450.39 Q2222.2 1450.39 2225.25 1455 Q2228.33 1459.58 2228.33 1468.33 Q2228.33 1477.06 2225.25 1481.67 Q2222.2 1486.25 2216.39 1486.25 Q2210.58 1486.25 2207.5 1481.67 Q2204.44 1477.06 2204.44 1468.33 Q2204.44 1459.58 2207.5 1455 Q2210.58 1450.39 2216.39 1450.39 Z" fill="#000000" fill-rule="nonzero" fill-opacity="1" /><path clip-path="url(#clip490)" d="M2246.55 1454.1 Q2242.94 1454.1 2241.11 1457.66 Q2239.3 1461.2 2239.3 1468.33 Q2239.3 1475.44 2241.11 1479.01 Q2242.94 1482.55 2246.55 1482.55 Q2250.18 1482.55 2251.99 1479.01 Q2253.82 1475.44 2253.82 1468.33 Q2253.82 1461.2 2251.99 1457.66 Q2250.18 1454.1 2246.55 1454.1 M2246.55 1450.39 Q2252.36 1450.39 2255.41 1455 Q2258.49 1459.58 2258.49 1468.33 Q2258.49 1477.06 2255.41 1481.67 Q2252.36 1486.25 2246.55 1486.25 Q2240.74 1486.25 2237.66 1481.67 Q2234.6 1477.06 2234.6 1468.33 Q2234.6 1459.58 2237.66 1455 Q2240.74 1450.39 2246.55 1450.39 Z" fill="#000000" fill-rule="nonzero" fill-opacity="1" /><path clip-path="url(#clip490)" d="M2276.71 1454.1 Q2273.1 1454.1 2271.27 1457.66 Q2269.46 1461.2 2269.46 1468.33 Q2269.46 1475.44 2271.27 1479.01 Q2273.1 1482.55 2276.71 1482.55 Q2280.34 1482.55 2282.15 1479.01 Q2283.98 1475.44 2283.98 1468.33 Q2283.98 1461.2 2282.15 1457.66 Q2280.34 1454.1 2276.71 1454.1 M2276.71 1450.39 Q2282.52 1450.39 2285.58 1455 Q2288.65 1459.58 2288.65 1468.33 Q2288.65 1477.06 2285.58 1481.67 Q2282.52 1486.25 2276.71 1486.25 Q2270.9 1486.25 2267.82 1481.67 Q2264.77 1477.06 2264.77 1468.33 Q2264.77 1459.58 2267.82 1455 Q2270.9 1450.39 2276.71 1450.39 Z" fill="#000000" fill-rule="nonzero" fill-opacity="1" /><path clip-path="url(#clip490)" d="M1195.33 1520.52 L1201.76 1520.52 L1201.76 1568.04 L1195.33 1568.04 L1195.33 1520.52 Z" fill="#000000" fill-rule="nonzero" fill-opacity="1" /><path clip-path="url(#clip490)" d="M1220.09 1522.27 L1220.09 1532.4 L1232.15 1532.4 L1232.15 1536.95 L1220.09 1536.95 L1220.09 1556.3 Q1220.09 1560.66 1221.27 1561.9 Q1222.48 1563.14 1226.14 1563.14 L1232.15 1563.14 L1232.15 1568.04 L1226.14 1568.04 Q1219.36 1568.04 1216.78 1565.53 Q1214.2 1562.98 1214.2 1556.3 L1214.2 1536.95 L1209.91 1536.95 L1209.91 1532.4 L1214.2 1532.4 L1214.2 1522.27 L1220.09 1522.27 Z" fill="#000000" fill-rule="nonzero" fill-opacity="1" /><path clip-path="url(#clip490)" d="M1270.35 1548.76 L1270.35 1551.62 L1243.42 1551.62 Q1243.8 1557.67 1247.05 1560.85 Q1250.33 1564 1256.15 1564 Q1259.53 1564 1262.68 1563.17 Q1265.86 1562.35 1268.98 1560.69 L1268.98 1566.23 Q1265.83 1567.57 1262.52 1568.27 Q1259.21 1568.97 1255.8 1568.97 Q1247.27 1568.97 1242.27 1564 Q1237.31 1559.04 1237.31 1550.57 Q1237.31 1541.82 1242.02 1536.69 Q1246.76 1531.54 1254.78 1531.54 Q1261.98 1531.54 1266.15 1536.18 Q1270.35 1540.8 1270.35 1548.76 M1264.49 1547.04 Q1264.43 1542.23 1261.79 1539.37 Q1259.18 1536.5 1254.85 1536.5 Q1249.95 1536.5 1246.99 1539.27 Q1244.06 1542.04 1243.61 1547.07 L1264.49 1547.04 Z" fill="#000000" fill-rule="nonzero" fill-opacity="1" /><path clip-path="url(#clip490)" d="M1300.62 1537.87 Q1299.63 1537.3 1298.45 1537.04 Q1297.31 1536.76 1295.91 1536.76 Q1290.94 1536.76 1288.27 1540 Q1285.63 1543.22 1285.63 1549.27 L1285.63 1568.04 L1279.74 1568.04 L1279.74 1532.4 L1285.63 1532.4 L1285.63 1537.93 Q1287.47 1534.69 1290.43 1533.13 Q1293.39 1531.54 1297.62 1531.54 Q1298.23 1531.54 1298.96 1531.63 Q1299.69 1531.7 1300.58 1531.85 L1300.62 1537.87 Z" fill="#000000" fill-rule="nonzero" fill-opacity="1" /><path clip-path="url(#clip490)" d="M1322.96 1550.12 Q1315.86 1550.12 1313.13 1551.75 Q1310.39 1553.37 1310.39 1557.29 Q1310.39 1560.4 1312.42 1562.25 Q1314.49 1564.07 1318.03 1564.07 Q1322.9 1564.07 1325.82 1560.63 Q1328.78 1557.16 1328.78 1551.43 L1328.78 1550.12 L1322.96 1550.12 M1334.64 1547.71 L1334.64 1568.04 L1328.78 1568.04 L1328.78 1562.63 Q1326.78 1565.88 1323.79 1567.44 Q1320.8 1568.97 1316.47 1568.97 Q1310.99 1568.97 1307.75 1565.91 Q1304.53 1562.82 1304.53 1557.67 Q1304.53 1551.65 1308.54 1548.6 Q1312.58 1545.54 1320.57 1545.54 L1328.78 1545.54 L1328.78 1544.97 Q1328.78 1540.93 1326.11 1538.73 Q1323.47 1536.5 1318.66 1536.5 Q1315.61 1536.5 1312.71 1537.23 Q1309.82 1537.97 1307.14 1539.43 L1307.14 1534.02 Q1310.36 1532.78 1313.38 1532.17 Q1316.4 1531.54 1319.27 1531.54 Q1327 1531.54 1330.82 1535.55 Q1334.64 1539.56 1334.64 1547.71 Z" fill="#000000" fill-rule="nonzero" fill-opacity="1" /><path clip-path="url(#clip490)" d="M1352.5 1522.27 L1352.5 1532.4 L1364.56 1532.4 L1364.56 1536.95 L1352.5 1536.95 L1352.5 1556.3 Q1352.5 1560.66 1353.67 1561.9 Q1354.88 1563.14 1358.54 1563.14 L1364.56 1563.14 L1364.56 1568.04 L1358.54 1568.04 Q1351.77 1568.04 1349.19 1565.53 Q1346.61 1562.98 1346.61 1556.3 L1346.61 1536.95 L1342.31 1536.95 L1342.31 1532.4 L1346.61 1532.4 L1346.61 1522.27 L1352.5 1522.27 Z" fill="#000000" fill-rule="nonzero" fill-opacity="1" /><path clip-path="url(#clip490)" d="M1372.26 1532.4 L1378.12 1532.4 L1378.12 1568.04 L1372.26 1568.04 L1372.26 1532.4 M1372.26 1518.52 L1378.12 1518.52 L1378.12 1525.93 L1372.26 1525.93 L1372.26 1518.52 Z" fill="#000000" fill-rule="nonzero" fill-opacity="1" /><path clip-path="url(#clip490)" d="M1404.19 1536.5 Q1399.48 1536.5 1396.74 1540.19 Q1394 1543.85 1394 1550.25 Q1394 1556.65 1396.71 1560.34 Q1399.44 1564 1404.19 1564 Q1408.87 1564 1411.6 1560.31 Q1414.34 1556.62 1414.34 1550.25 Q1414.34 1543.92 1411.6 1540.23 Q1408.87 1536.5 1404.19 1536.5 M1404.19 1531.54 Q1411.83 1531.54 1416.19 1536.5 Q1420.55 1541.47 1420.55 1550.25 Q1420.55 1559 1416.19 1564 Q1411.83 1568.97 1404.19 1568.97 Q1396.52 1568.97 1392.16 1564 Q1387.83 1559 1387.83 1550.25 Q1387.83 1541.47 1392.16 1536.5 Q1396.52 1531.54 1404.19 1531.54 Z" fill="#000000" fill-rule="nonzero" fill-opacity="1" /><path clip-path="url(#clip490)" d="M1459.89 1546.53 L1459.89 1568.04 L1454.03 1568.04 L1454.03 1546.72 Q1454.03 1541.66 1452.06 1539.14 Q1450.08 1536.63 1446.14 1536.63 Q1441.39 1536.63 1438.66 1539.65 Q1435.92 1542.68 1435.92 1547.9 L1435.92 1568.04 L1430.03 1568.04 L1430.03 1532.4 L1435.92 1532.4 L1435.92 1537.93 Q1438.02 1534.72 1440.85 1533.13 Q1443.72 1531.54 1447.44 1531.54 Q1453.58 1531.54 1456.74 1535.36 Q1459.89 1539.14 1459.89 1546.53 Z" fill="#000000" fill-rule="nonzero" fill-opacity="1" /><polyline clip-path="url(#clip490)" style="stroke:#000000; stroke-linecap:round; stroke-linejoin:round; stroke-width:4; stroke-opacity:1; fill:none" points="302.458,1423.18 302.458,47.2441 "/>
<polyline clip-path="url(#clip490)" style="stroke:#000000; stroke-linecap:round; stroke-linejoin:round; stroke-width:4; stroke-opacity:1; fill:none" points="302.458,1273.24 321.356,1273.24 "/>
<polyline clip-path="url(#clip490)" style="stroke:#000000; stroke-linecap:round; stroke-linejoin:round; stroke-width:4; stroke-opacity:1; fill:none" points="302.458,941.399 321.356,941.399 "/>
<polyline clip-path="url(#clip490)" style="stroke:#000000; stroke-linecap:round; stroke-linejoin:round; stroke-width:4; stroke-opacity:1; fill:none" points="302.458,609.556 321.356,609.556 "/>
<polyline clip-path="url(#clip490)" style="stroke:#000000; stroke-linecap:round; stroke-linejoin:round; stroke-width:4; stroke-opacity:1; fill:none" points="302.458,277.712 321.356,277.712 "/>
<path clip-path="url(#clip490)" d="M114.26 1273.69 L143.936 1273.69 L143.936 1277.63 L114.26 1277.63 L114.26 1273.69 Z" fill="#000000" fill-rule="nonzero" fill-opacity="1" /><path clip-path="url(#clip490)" d="M152.848 1255.96 L175.07 1255.96 L175.07 1257.95 L162.524 1290.52 L157.64 1290.52 L169.445 1259.9 L152.848 1259.9 L152.848 1255.96 Z" fill="#000000" fill-rule="nonzero" fill-opacity="1" /><path clip-path="url(#clip490)" d="M184.237 1255.96 L202.593 1255.96 L202.593 1259.9 L188.519 1259.9 L188.519 1268.37 Q189.538 1268.02 190.556 1267.86 Q191.575 1267.68 192.593 1267.68 Q198.38 1267.68 201.76 1270.85 Q205.139 1274.02 205.139 1279.43 Q205.139 1285.01 201.667 1288.12 Q198.195 1291.19 191.875 1291.19 Q189.7 1291.19 187.431 1290.82 Q185.186 1290.45 182.778 1289.71 L182.778 1285.01 Q184.862 1286.15 187.084 1286.7 Q189.306 1287.26 191.783 1287.26 Q195.787 1287.26 198.125 1285.15 Q200.463 1283.05 200.463 1279.43 Q200.463 1275.82 198.125 1273.72 Q195.787 1271.61 191.783 1271.61 Q189.908 1271.61 188.033 1272.03 Q186.181 1272.44 184.237 1273.32 L184.237 1255.96 Z" fill="#000000" fill-rule="nonzero" fill-opacity="1" /><path clip-path="url(#clip490)" d="M224.352 1259.04 Q220.741 1259.04 218.912 1262.61 Q217.107 1266.15 217.107 1273.28 Q217.107 1280.38 218.912 1283.95 Q220.741 1287.49 224.352 1287.49 Q227.986 1287.49 229.792 1283.95 Q231.621 1280.38 231.621 1273.28 Q231.621 1266.15 229.792 1262.61 Q227.986 1259.04 224.352 1259.04 M224.352 1255.34 Q230.162 1255.34 233.218 1259.94 Q236.297 1264.53 236.297 1273.28 Q236.297 1282 233.218 1286.61 Q230.162 1291.19 224.352 1291.19 Q218.542 1291.19 215.463 1286.61 Q212.408 1282 212.408 1273.28 Q212.408 1264.53 215.463 1259.94 Q218.542 1255.34 224.352 1255.34 Z" fill="#000000" fill-rule="nonzero" fill-opacity="1" /><path clip-path="url(#clip490)" d="M254.514 1259.04 Q250.903 1259.04 249.074 1262.61 Q247.269 1266.15 247.269 1273.28 Q247.269 1280.38 249.074 1283.95 Q250.903 1287.49 254.514 1287.49 Q258.148 1287.49 259.954 1283.95 Q261.783 1280.38 261.783 1273.28 Q261.783 1266.15 259.954 1262.61 Q258.148 1259.04 254.514 1259.04 M254.514 1255.34 Q260.324 1255.34 263.38 1259.94 Q266.458 1264.53 266.458 1273.28 Q266.458 1282 263.38 1286.61 Q260.324 1291.19 254.514 1291.19 Q248.704 1291.19 245.625 1286.61 Q242.57 1282 242.57 1273.28 Q242.57 1264.53 245.625 1259.94 Q248.704 1255.34 254.514 1255.34 Z" fill="#000000" fill-rule="nonzero" fill-opacity="1" /><path clip-path="url(#clip490)" d="M114.26 941.851 L143.936 941.851 L143.936 945.786 L114.26 945.786 L114.26 941.851 Z" fill="#000000" fill-rule="nonzero" fill-opacity="1" /><path clip-path="url(#clip490)" d="M152.848 924.119 L175.07 924.119 L175.07 926.11 L162.524 958.679 L157.64 958.679 L169.445 928.054 L152.848 928.054 L152.848 924.119 Z" fill="#000000" fill-rule="nonzero" fill-opacity="1" /><path clip-path="url(#clip490)" d="M194.19 927.198 Q190.579 927.198 188.75 930.763 Q186.945 934.304 186.945 941.434 Q186.945 948.54 188.75 952.105 Q190.579 955.647 194.19 955.647 Q197.825 955.647 199.63 952.105 Q201.459 948.54 201.459 941.434 Q201.459 934.304 199.63 930.763 Q197.825 927.198 194.19 927.198 M194.19 923.494 Q200 923.494 203.056 928.101 Q206.135 932.684 206.135 941.434 Q206.135 950.161 203.056 954.767 Q200 959.351 194.19 959.351 Q188.38 959.351 185.301 954.767 Q182.246 950.161 182.246 941.434 Q182.246 932.684 185.301 928.101 Q188.38 923.494 194.19 923.494 Z" fill="#000000" fill-rule="nonzero" fill-opacity="1" /><path clip-path="url(#clip490)" d="M224.352 927.198 Q220.741 927.198 218.912 930.763 Q217.107 934.304 217.107 941.434 Q217.107 948.54 218.912 952.105 Q220.741 955.647 224.352 955.647 Q227.986 955.647 229.792 952.105 Q231.621 948.54 231.621 941.434 Q231.621 934.304 229.792 930.763 Q227.986 927.198 224.352 927.198 M224.352 923.494 Q230.162 923.494 233.218 928.101 Q236.297 932.684 236.297 941.434 Q236.297 950.161 233.218 954.767 Q230.162 959.351 224.352 959.351 Q218.542 959.351 215.463 954.767 Q212.408 950.161 212.408 941.434 Q212.408 932.684 215.463 928.101 Q218.542 923.494 224.352 923.494 Z" fill="#000000" fill-rule="nonzero" fill-opacity="1" /><path clip-path="url(#clip490)" d="M254.514 927.198 Q250.903 927.198 249.074 930.763 Q247.269 934.304 247.269 941.434 Q247.269 948.54 249.074 952.105 Q250.903 955.647 254.514 955.647 Q258.148 955.647 259.954 952.105 Q261.783 948.54 261.783 941.434 Q261.783 934.304 259.954 930.763 Q258.148 927.198 254.514 927.198 M254.514 923.494 Q260.324 923.494 263.38 928.101 Q266.458 932.684 266.458 941.434 Q266.458 950.161 263.38 954.767 Q260.324 959.351 254.514 959.351 Q248.704 959.351 245.625 954.767 Q242.57 950.161 242.57 941.434 Q242.57 932.684 245.625 928.101 Q248.704 923.494 254.514 923.494 Z" fill="#000000" fill-rule="nonzero" fill-opacity="1" /><path clip-path="url(#clip490)" d="M114.26 610.007 L143.936 610.007 L143.936 613.942 L114.26 613.942 L114.26 610.007 Z" fill="#000000" fill-rule="nonzero" fill-opacity="1" /><path clip-path="url(#clip490)" d="M164.607 607.692 Q161.459 607.692 159.607 609.845 Q157.778 611.998 157.778 615.748 Q157.778 619.475 159.607 621.651 Q161.459 623.803 164.607 623.803 Q167.755 623.803 169.584 621.651 Q171.436 619.475 171.436 615.748 Q171.436 611.998 169.584 609.845 Q167.755 607.692 164.607 607.692 M173.889 593.04 L173.889 597.299 Q172.13 596.466 170.325 596.026 Q168.542 595.586 166.783 595.586 Q162.153 595.586 159.7 598.711 Q157.269 601.836 156.922 608.155 Q158.288 606.141 160.348 605.077 Q162.408 603.989 164.885 603.989 Q170.093 603.989 173.102 607.16 Q176.135 610.308 176.135 615.748 Q176.135 621.072 172.987 624.29 Q169.839 627.507 164.607 627.507 Q158.612 627.507 155.44 622.924 Q152.269 618.317 152.269 609.591 Q152.269 601.396 156.158 596.535 Q160.047 591.651 166.598 591.651 Q168.357 591.651 170.139 591.998 Q171.945 592.345 173.889 593.04 Z" fill="#000000" fill-rule="nonzero" fill-opacity="1" /><path clip-path="url(#clip490)" d="M184.237 592.276 L202.593 592.276 L202.593 596.211 L188.519 596.211 L188.519 604.683 Q189.538 604.336 190.556 604.174 Q191.575 603.989 192.593 603.989 Q198.38 603.989 201.76 607.16 Q205.139 610.331 205.139 615.748 Q205.139 621.327 201.667 624.428 Q198.195 627.507 191.875 627.507 Q189.7 627.507 187.431 627.137 Q185.186 626.766 182.778 626.026 L182.778 621.327 Q184.862 622.461 187.084 623.016 Q189.306 623.572 191.783 623.572 Q195.787 623.572 198.125 621.465 Q200.463 619.359 200.463 615.748 Q200.463 612.137 198.125 610.03 Q195.787 607.924 191.783 607.924 Q189.908 607.924 188.033 608.341 Q186.181 608.757 184.237 609.637 L184.237 592.276 Z" fill="#000000" fill-rule="nonzero" fill-opacity="1" /><path clip-path="url(#clip490)" d="M224.352 595.354 Q220.741 595.354 218.912 598.919 Q217.107 602.461 217.107 609.591 Q217.107 616.697 218.912 620.262 Q220.741 623.803 224.352 623.803 Q227.986 623.803 229.792 620.262 Q231.621 616.697 231.621 609.591 Q231.621 602.461 229.792 598.919 Q227.986 595.354 224.352 595.354 M224.352 591.651 Q230.162 591.651 233.218 596.257 Q236.297 600.841 236.297 609.591 Q236.297 618.317 233.218 622.924 Q230.162 627.507 224.352 627.507 Q218.542 627.507 215.463 622.924 Q212.408 618.317 212.408 609.591 Q212.408 600.841 215.463 596.257 Q218.542 591.651 224.352 591.651 Z" fill="#000000" fill-rule="nonzero" fill-opacity="1" /><path clip-path="url(#clip490)" d="M254.514 595.354 Q250.903 595.354 249.074 598.919 Q247.269 602.461 247.269 609.591 Q247.269 616.697 249.074 620.262 Q250.903 623.803 254.514 623.803 Q258.148 623.803 259.954 620.262 Q261.783 616.697 261.783 609.591 Q261.783 602.461 259.954 598.919 Q258.148 595.354 254.514 595.354 M254.514 591.651 Q260.324 591.651 263.38 596.257 Q266.458 600.841 266.458 609.591 Q266.458 618.317 263.38 622.924 Q260.324 627.507 254.514 627.507 Q248.704 627.507 245.625 622.924 Q242.57 618.317 242.57 609.591 Q242.57 600.841 245.625 596.257 Q248.704 591.651 254.514 591.651 Z" fill="#000000" fill-rule="nonzero" fill-opacity="1" /><path clip-path="url(#clip490)" d="M114.26 278.164 L143.936 278.164 L143.936 282.099 L114.26 282.099 L114.26 278.164 Z" fill="#000000" fill-rule="nonzero" fill-opacity="1" /><path clip-path="url(#clip490)" d="M164.607 275.849 Q161.459 275.849 159.607 278.002 Q157.778 280.154 157.778 283.904 Q157.778 287.631 159.607 289.807 Q161.459 291.96 164.607 291.96 Q167.755 291.96 169.584 289.807 Q171.436 287.631 171.436 283.904 Q171.436 280.154 169.584 278.002 Q167.755 275.849 164.607 275.849 M173.889 261.196 L173.889 265.455 Q172.13 264.622 170.325 264.182 Q168.542 263.743 166.783 263.743 Q162.153 263.743 159.7 266.868 Q157.269 269.993 156.922 276.312 Q158.288 274.298 160.348 273.233 Q162.408 272.145 164.885 272.145 Q170.093 272.145 173.102 275.317 Q176.135 278.465 176.135 283.904 Q176.135 289.229 172.987 292.446 Q169.839 295.664 164.607 295.664 Q158.612 295.664 155.44 291.08 Q152.269 286.474 152.269 277.747 Q152.269 269.553 156.158 264.692 Q160.047 259.807 166.598 259.807 Q168.357 259.807 170.139 260.155 Q171.945 260.502 173.889 261.196 Z" fill="#000000" fill-rule="nonzero" fill-opacity="1" /><path clip-path="url(#clip490)" d="M194.19 263.511 Q190.579 263.511 188.75 267.076 Q186.945 270.618 186.945 277.747 Q186.945 284.854 188.75 288.418 Q190.579 291.96 194.19 291.96 Q197.825 291.96 199.63 288.418 Q201.459 284.854 201.459 277.747 Q201.459 270.618 199.63 267.076 Q197.825 263.511 194.19 263.511 M194.19 259.807 Q200 259.807 203.056 264.414 Q206.135 268.997 206.135 277.747 Q206.135 286.474 203.056 291.08 Q200 295.664 194.19 295.664 Q188.38 295.664 185.301 291.08 Q182.246 286.474 182.246 277.747 Q182.246 268.997 185.301 264.414 Q188.38 259.807 194.19 259.807 Z" fill="#000000" fill-rule="nonzero" fill-opacity="1" /><path clip-path="url(#clip490)" d="M224.352 263.511 Q220.741 263.511 218.912 267.076 Q217.107 270.618 217.107 277.747 Q217.107 284.854 218.912 288.418 Q220.741 291.96 224.352 291.96 Q227.986 291.96 229.792 288.418 Q231.621 284.854 231.621 277.747 Q231.621 270.618 229.792 267.076 Q227.986 263.511 224.352 263.511 M224.352 259.807 Q230.162 259.807 233.218 264.414 Q236.297 268.997 236.297 277.747 Q236.297 286.474 233.218 291.08 Q230.162 295.664 224.352 295.664 Q218.542 295.664 215.463 291.08 Q212.408 286.474 212.408 277.747 Q212.408 268.997 215.463 264.414 Q218.542 259.807 224.352 259.807 Z" fill="#000000" fill-rule="nonzero" fill-opacity="1" /><path clip-path="url(#clip490)" d="M254.514 263.511 Q250.903 263.511 249.074 267.076 Q247.269 270.618 247.269 277.747 Q247.269 284.854 249.074 288.418 Q250.903 291.96 254.514 291.96 Q258.148 291.96 259.954 288.418 Q261.783 284.854 261.783 277.747 Q261.783 270.618 259.954 267.076 Q258.148 263.511 254.514 263.511 M254.514 259.807 Q260.324 259.807 263.38 264.414 Q266.458 268.997 266.458 277.747 Q266.458 286.474 263.38 291.08 Q260.324 295.664 254.514 295.664 Q248.704 295.664 245.625 291.08 Q242.57 286.474 242.57 277.747 Q242.57 268.997 245.625 264.414 Q248.704 259.807 254.514 259.807 Z" fill="#000000" fill-rule="nonzero" fill-opacity="1" /><path clip-path="url(#clip490)" d="M16.4842 816.375 L16.4842 786.329 L21.895 786.329 L21.895 809.945 L35.9632 809.945 L35.9632 787.315 L41.3741 787.315 L41.3741 809.945 L58.5933 809.945 L58.5933 785.756 L64.0042 785.756 L64.0042 816.375 L16.4842 816.375 Z" fill="#000000" fill-rule="nonzero" fill-opacity="1" /><path clip-path="url(#clip490)" d="M16.4842 775.189 L16.4842 768.759 L58.5933 768.759 L58.5933 745.62 L64.0042 745.62 L64.0042 775.189 L16.4842 775.189 Z" fill="#000000" fill-rule="nonzero" fill-opacity="1" /><path clip-path="url(#clip490)" d="M41.3104 732.443 L58.7206 732.443 L58.7206 722.13 Q58.7206 716.942 56.5881 714.46 Q54.4238 711.945 49.9996 711.945 Q45.5436 711.945 43.4429 714.46 Q41.3104 716.942 41.3104 722.13 L41.3104 732.443 M21.7677 732.443 L36.0905 732.443 L36.0905 722.926 Q36.0905 718.216 34.34 715.924 Q32.5576 713.6 28.9291 713.6 Q25.3325 713.6 23.5501 715.924 Q21.7677 718.216 21.7677 722.926 L21.7677 732.443 M16.4842 738.872 L16.4842 722.449 Q16.4842 715.096 19.5397 711.118 Q22.5952 707.139 28.2289 707.139 Q32.5894 707.139 35.1675 709.176 Q37.7456 711.213 38.3822 715.16 Q39.4007 710.418 42.6472 707.808 Q45.8619 705.166 50.6998 705.166 Q57.0655 705.166 60.5348 709.495 Q64.0042 713.823 64.0042 721.812 L64.0042 738.872 L16.4842 738.872 Z" fill="#000000" fill-rule="nonzero" fill-opacity="1" /><path clip-path="url(#clip490)" d="M20.8447 676.011 Q20.8447 683.013 26.0645 687.151 Q31.2844 691.257 40.2919 691.257 Q49.2675 691.257 54.4874 687.151 Q59.7073 683.013 59.7073 676.011 Q59.7073 669.009 54.4874 664.935 Q49.2675 660.829 40.2919 660.829 Q31.2844 660.829 26.0645 664.935 Q20.8447 669.009 20.8447 676.011 M15.6248 676.011 Q15.6248 666.017 22.3406 660.033 Q29.0246 654.049 40.2919 654.049 Q51.5274 654.049 58.2432 660.033 Q64.9272 666.017 64.9272 676.011 Q64.9272 686.037 58.2432 692.052 Q51.5592 698.036 40.2919 698.036 Q29.0246 698.036 22.3406 692.052 Q15.6248 686.037 15.6248 676.011 Z" fill="#000000" fill-rule="nonzero" fill-opacity="1" /><polyline clip-path="url(#clip492)" style="stroke:#009af9; stroke-linecap:round; stroke-linejoin:round; stroke-width:4; stroke-opacity:1; fill:none" points="360.486,1384.24 422.881,1077.69 485.276,901.116 547.671,795.678 610.065,756.745 672.46,700.517 734.855,671.726 797.25,656.216 859.645,645.699 922.04,589.434 984.435,545.464 1046.83,523.717 1109.22,490.561 1171.62,464.141 1234.01,435.986 1296.41,459.041 1358.8,445.423 1421.2,424.463 1483.59,359.957 1545.99,325.537 1608.38,301.127 1670.78,274.363 1733.17,239.762 1795.57,200.443 1857.96,187.313 1920.36,152.255 1982.75,125.87 2045.15,121.08 2107.54,102.521 2169.94,104.337 2232.33,116.184 2294.73,86.1857 "/>
<polyline clip-path="url(#clip492)" style="stroke:#e26f46; stroke-linecap:round; stroke-linejoin:round; stroke-width:4; stroke-opacity:1; fill:none" points="360.486,1381.38 422.881,1052.22 485.276,1027.18 547.671,880.344 610.065,812.127 672.46,775.93 734.855,747.167 797.25,729.768 859.645,712.934 922.04,672.735 984.435,658.213 1046.83,623.597 1109.22,612.97 1171.62,595.178 1234.01,568.384 1296.41,552.048 1358.8,528.03 1421.2,523.387 1483.59,508.604 1545.99,476.279 1608.38,453.597 1670.78,427.753 1733.17,396.866 1795.57,394.86 1857.96,367.574 1920.36,344.909 1982.75,337.345 2045.15,312.171 2107.54,290.344 2169.94,259.977 2232.33,246.682 2294.73,238.214 "/>
<path clip-path="url(#clip490)" d="M370.802 248.629 L628.262 248.629 L628.262 93.1086 L370.802 93.1086  Z" fill="#ffffff" fill-rule="evenodd" fill-opacity="1"/>
<polyline clip-path="url(#clip490)" style="stroke:#000000; stroke-linecap:round; stroke-linejoin:round; stroke-width:4; stroke-opacity:1; fill:none" points="370.802,248.629 628.262,248.629 628.262,93.1086 370.802,93.1086 370.802,248.629 "/>
<polyline clip-path="url(#clip490)" style="stroke:#009af9; stroke-linecap:round; stroke-linejoin:round; stroke-width:4; stroke-opacity:1; fill:none" points="393.583,144.949 530.269,144.949 "/>
<path clip-path="url(#clip490)" d="M566.893 164.636 Q565.087 169.266 563.374 170.678 Q561.661 172.09 558.791 172.09 L555.388 172.09 L555.388 168.525 L557.888 168.525 Q559.648 168.525 560.62 167.692 Q561.592 166.858 562.773 163.756 L563.536 161.812 L553.05 136.303 L557.564 136.303 L565.666 156.581 L573.768 136.303 L578.282 136.303 L566.893 164.636 Z" fill="#000000" fill-rule="nonzero" fill-opacity="1" /><path clip-path="url(#clip490)" d="M585.573 158.293 L593.212 158.293 L593.212 131.928 L584.902 133.595 L584.902 129.335 L593.166 127.669 L597.842 127.669 L597.842 158.293 L605.481 158.293 L605.481 162.229 L585.573 162.229 L585.573 158.293 Z" fill="#000000" fill-rule="nonzero" fill-opacity="1" /><polyline clip-path="url(#clip490)" style="stroke:#e26f46; stroke-linecap:round; stroke-linejoin:round; stroke-width:4; stroke-opacity:1; fill:none" points="393.583,196.789 530.269,196.789 "/>
<path clip-path="url(#clip490)" d="M566.893 216.476 Q565.087 221.106 563.374 222.518 Q561.661 223.93 558.791 223.93 L555.388 223.93 L555.388 220.365 L557.888 220.365 Q559.648 220.365 560.62 219.532 Q561.592 218.698 562.773 215.596 L563.536 213.652 L553.05 188.143 L557.564 188.143 L565.666 208.421 L573.768 188.143 L578.282 188.143 L566.893 216.476 Z" fill="#000000" fill-rule="nonzero" fill-opacity="1" /><path clip-path="url(#clip490)" d="M588.791 210.133 L605.11 210.133 L605.11 214.069 L583.166 214.069 L583.166 210.133 Q585.828 207.379 590.411 202.749 Q595.018 198.096 596.198 196.754 Q598.444 194.231 599.323 192.495 Q600.226 190.735 600.226 189.046 Q600.226 186.291 598.282 184.555 Q596.36 182.819 593.258 182.819 Q591.059 182.819 588.606 183.583 Q586.175 184.347 583.397 185.897 L583.397 181.175 Q586.221 180.041 588.675 179.462 Q591.129 178.884 593.166 178.884 Q598.536 178.884 601.731 181.569 Q604.925 184.254 604.925 188.745 Q604.925 190.874 604.115 192.796 Q603.328 194.694 601.221 197.286 Q600.643 197.958 597.541 201.175 Q594.439 204.37 588.791 210.133 Z" fill="#000000" fill-rule="nonzero" fill-opacity="1" /></svg>
