<?xml version="1.0" encoding="utf-8"?>
<svg xmlns="http://www.w3.org/2000/svg" xmlns:xlink="http://www.w3.org/1999/xlink" width="600" height="400" viewBox="0 0 2400 1600">
<defs>
  <clipPath id="clip950">
    <rect x="0" y="0" width="2400" height="1600"/>
  </clipPath>
</defs>
<path clip-path="url(#clip950)" d="M0 1600 L2400 1600 L2400 0 L0 0  Z" fill="#ffffff" fill-rule="evenodd" fill-opacity="1"/>
<defs>
  <clipPath id="clip951">
    <rect x="480" y="0" width="1681" height="1600"/>
  </clipPath>
</defs>
<path clip-path="url(#clip950)" d="M249.542 1423.18 L2352.76 1423.18 L2352.76 47.2441 L249.542 47.2441  Z" fill="#ffffff" fill-rule="evenodd" fill-opacity="1"/>
<defs>
  <clipPath id="clip952">
    <rect x="249" y="47" width="2104" height="1377"/>
  </clipPath>
</defs>
<polyline clip-path="url(#clip952)" style="stroke:#000000; stroke-linecap:round; stroke-linejoin:round; stroke-width:2; stroke-opacity:0.1; fill:none" points="274.476,1423.18 274.476,47.2441 "/>
<polyline clip-path="url(#clip952)" style="stroke:#000000; stroke-linecap:round; stroke-linejoin:round; stroke-width:2; stroke-opacity:0.1; fill:none" points="636.225,1423.18 636.225,47.2441 "/>
<polyline clip-path="url(#clip952)" style="stroke:#000000; stroke-linecap:round; stroke-linejoin:round; stroke-width:2; stroke-opacity:0.1; fill:none" points="997.974,1423.18 997.974,47.2441 "/>
<polyline clip-path="url(#clip952)" style="stroke:#000000; stroke-linecap:round; stroke-linejoin:round; stroke-width:2; stroke-opacity:0.1; fill:none" points="1359.72,1423.18 1359.72,47.2441 "/>
<polyline clip-path="url(#clip952)" style="stroke:#000000; stroke-linecap:round; stroke-linejoin:round; stroke-width:2; stroke-opacity:0.1; fill:none" points="1721.47,1423.18 1721.47,47.2441 "/>
<polyline clip-path="url(#clip952)" style="stroke:#000000; stroke-linecap:round; stroke-linejoin:round; stroke-width:2; stroke-opacity:0.1; fill:none" points="2083.22,1423.18 2083.22,47.2441 "/>
<polyline clip-path="url(#clip952)" style="stroke:#000000; stroke-linecap:round; stroke-linejoin:round; stroke-width:2; stroke-opacity:0.1; fill:none" points="249.542,1384.24 2352.76,1384.24 "/>
<polyline clip-path="url(#clip952)" style="stroke:#000000; stroke-linecap:round; stroke-linejoin:round; stroke-width:2; stroke-opacity:0.1; fill:none" points="249.542,1160.05 2352.76,1160.05 "/>
<polyline clip-path="url(#clip952)" style="stroke:#000000; stroke-linecap:round; stroke-linejoin:round; stroke-width:2; stroke-opacity:0.1; fill:none" points="249.542,935.861 2352.76,935.861 "/>
<polyline clip-path="url(#clip952)" style="stroke:#000000; stroke-linecap:round; stroke-linejoin:round; stroke-width:2; stroke-opacity:0.1; fill:none" points="249.542,711.672 2352.76,711.672 "/>
<polyline clip-path="url(#clip952)" style="stroke:#000000; stroke-linecap:round; stroke-linejoin:round; stroke-width:2; stroke-opacity:0.1; fill:none" points="249.542,487.483 2352.76,487.483 "/>
<polyline clip-path="url(#clip952)" style="stroke:#000000; stroke-linecap:round; stroke-linejoin:round; stroke-width:2; stroke-opacity:0.1; fill:none" points="249.542,263.295 2352.76,263.295 "/>
<polyline clip-path="url(#clip950)" style="stroke:#000000; stroke-linecap:round; stroke-linejoin:round; stroke-width:4; stroke-opacity:1; fill:none" points="249.542,1423.18 2352.76,1423.18 "/>
<polyline clip-path="url(#clip950)" style="stroke:#000000; stroke-linecap:round; stroke-linejoin:round; stroke-width:4; stroke-opacity:1; fill:none" points="274.476,1423.18 274.476,1404.28 "/>
<polyline clip-path="url(#clip950)" style="stroke:#000000; stroke-linecap:round; stroke-linejoin:round; stroke-width:4; stroke-opacity:1; fill:none" points="636.225,1423.18 636.225,1404.28 "/>
<polyline clip-path="url(#clip950)" style="stroke:#000000; stroke-linecap:round; stroke-linejoin:round; stroke-width:4; stroke-opacity:1; fill:none" points="997.974,1423.18 997.974,1404.28 "/>
<polyline clip-path="url(#clip950)" style="stroke:#000000; stroke-linecap:round; stroke-linejoin:round; stroke-width:4; stroke-opacity:1; fill:none" points="1359.72,1423.18 1359.72,1404.28 "/>
<polyline clip-path="url(#clip950)" style="stroke:#000000; stroke-linecap:round; stroke-linejoin:round; stroke-width:4; stroke-opacity:1; fill:none" points="1721.47,1423.18 1721.47,1404.28 "/>
<polyline clip-path="url(#clip950)" style="stroke:#000000; stroke-linecap:round; stroke-linejoin:round; stroke-width:4; stroke-opacity:1; fill:none" points="2083.22,1423.18 2083.22,1404.28 "/>
<path clip-path="url(#clip950)" d="M274.476 1454.1 Q270.865 1454.1 269.036 1457.66 Q267.231 1461.2 267.231 1468.33 Q267.231 1475.44 269.036 1479.01 Q270.865 1482.55 274.476 1482.55 Q278.11 1482.55 279.916 1479.01 Q281.745 1475.44 281.745 1468.33 Q281.745 1461.2 279.916 1457.66 Q278.11 1454.1 274.476 1454.1 M274.476 1450.39 Q280.286 1450.39 283.342 1455 Q286.421 1459.58 286.421 1468.33 Q286.421 1477.06 283.342 1481.67 Q280.286 1486.25 274.476 1486.25 Q268.666 1486.25 265.587 1481.67 Q262.532 1477.06 262.532 1468.33 Q262.532 1459.58 265.587 1455 Q268.666 1450.39 274.476 1450.39 Z" fill="#000000" fill-rule="nonzero" fill-opacity="1" /><path clip-path="url(#clip950)" d="M626.503 1451.02 L644.859 1451.02 L644.859 1454.96 L630.785 1454.96 L630.785 1463.43 Q631.804 1463.08 632.822 1462.92 Q633.841 1462.73 634.859 1462.73 Q640.646 1462.73 644.026 1465.9 Q647.405 1469.08 647.405 1474.49 Q647.405 1480.07 643.933 1483.17 Q640.461 1486.25 634.142 1486.25 Q631.966 1486.25 629.697 1485.88 Q627.452 1485.51 625.044 1484.77 L625.044 1480.07 Q627.128 1481.2 629.35 1481.76 Q631.572 1482.32 634.049 1482.32 Q638.054 1482.32 640.392 1480.21 Q642.73 1478.1 642.73 1474.49 Q642.73 1470.88 640.392 1468.77 Q638.054 1466.67 634.049 1466.67 Q632.174 1466.67 630.299 1467.08 Q628.447 1467.5 626.503 1468.38 L626.503 1451.02 Z" fill="#000000" fill-rule="nonzero" fill-opacity="1" /><path clip-path="url(#clip950)" d="M972.661 1481.64 L980.3 1481.64 L980.3 1455.28 L971.99 1456.95 L971.99 1452.69 L980.254 1451.02 L984.93 1451.02 L984.93 1481.64 L992.569 1481.64 L992.569 1485.58 L972.661 1485.58 L972.661 1481.64 Z" fill="#000000" fill-rule="nonzero" fill-opacity="1" /><path clip-path="url(#clip950)" d="M1012.01 1454.1 Q1008.4 1454.1 1006.57 1457.66 Q1004.77 1461.2 1004.77 1468.33 Q1004.77 1475.44 1006.57 1479.01 Q1008.4 1482.55 1012.01 1482.55 Q1015.65 1482.55 1017.45 1479.01 Q1019.28 1475.44 1019.28 1468.33 Q1019.28 1461.2 1017.45 1457.66 Q1015.65 1454.1 1012.01 1454.1 M1012.01 1450.39 Q1017.82 1450.39 1020.88 1455 Q1023.96 1459.58 1023.96 1468.33 Q1023.96 1477.06 1020.88 1481.67 Q1017.82 1486.25 1012.01 1486.25 Q1006.2 1486.25 1003.12 1481.67 Q1000.07 1477.06 1000.07 1468.33 Q1000.07 1459.58 1003.12 1455 Q1006.2 1450.39 1012.01 1450.39 Z" fill="#000000" fill-rule="nonzero" fill-opacity="1" /><path clip-path="url(#clip950)" d="M1334.91 1481.64 L1342.55 1481.64 L1342.55 1455.28 L1334.24 1456.95 L1334.24 1452.69 L1342.5 1451.02 L1347.18 1451.02 L1347.18 1481.64 L1354.81 1481.64 L1354.81 1485.58 L1334.91 1485.58 L1334.91 1481.64 Z" fill="#000000" fill-rule="nonzero" fill-opacity="1" /><path clip-path="url(#clip950)" d="M1364.31 1451.02 L1382.66 1451.02 L1382.66 1454.96 L1368.59 1454.96 L1368.59 1463.43 Q1369.61 1463.08 1370.63 1462.92 Q1371.64 1462.73 1372.66 1462.73 Q1378.45 1462.73 1381.83 1465.9 Q1385.21 1469.08 1385.21 1474.49 Q1385.21 1480.07 1381.74 1483.17 Q1378.26 1486.25 1371.94 1486.25 Q1369.77 1486.25 1367.5 1485.88 Q1365.25 1485.51 1362.85 1484.77 L1362.85 1480.07 Q1364.93 1481.2 1367.15 1481.76 Q1369.38 1482.32 1371.85 1482.32 Q1375.86 1482.32 1378.19 1480.21 Q1380.53 1478.1 1380.53 1474.49 Q1380.53 1470.88 1378.19 1468.77 Q1375.86 1466.67 1371.85 1466.67 Q1369.98 1466.67 1368.1 1467.08 Q1366.25 1467.5 1364.31 1468.38 L1364.31 1451.02 Z" fill="#000000" fill-rule="nonzero" fill-opacity="1" /><path clip-path="url(#clip950)" d="M1700.24 1481.64 L1716.56 1481.64 L1716.56 1485.58 L1694.62 1485.58 L1694.62 1481.64 Q1697.28 1478.89 1701.86 1474.26 Q1706.47 1469.61 1707.65 1468.27 Q1709.9 1465.74 1710.78 1464.01 Q1711.68 1462.25 1711.68 1460.56 Q1711.68 1457.8 1709.73 1456.07 Q1707.81 1454.33 1704.71 1454.33 Q1702.51 1454.33 1700.06 1455.09 Q1697.63 1455.86 1694.85 1457.41 L1694.85 1452.69 Q1697.67 1451.55 1700.13 1450.97 Q1702.58 1450.39 1704.62 1450.39 Q1709.99 1450.39 1713.18 1453.08 Q1716.38 1455.77 1716.38 1460.26 Q1716.38 1462.39 1715.57 1464.31 Q1714.78 1466.2 1712.67 1468.8 Q1712.1 1469.47 1708.99 1472.69 Q1705.89 1475.88 1700.24 1481.64 Z" fill="#000000" fill-rule="nonzero" fill-opacity="1" /><path clip-path="url(#clip950)" d="M1736.38 1454.1 Q1732.77 1454.1 1730.94 1457.66 Q1729.13 1461.2 1729.13 1468.33 Q1729.13 1475.44 1730.94 1479.01 Q1732.77 1482.55 1736.38 1482.55 Q1740.01 1482.55 1741.82 1479.01 Q1743.65 1475.44 1743.65 1468.33 Q1743.65 1461.2 1741.82 1457.66 Q1740.01 1454.1 1736.38 1454.1 M1736.38 1450.39 Q1742.19 1450.39 1745.24 1455 Q1748.32 1459.58 1748.32 1468.33 Q1748.32 1477.06 1745.24 1481.67 Q1742.19 1486.25 1736.38 1486.25 Q1730.57 1486.25 1727.49 1481.67 Q1724.43 1477.06 1724.43 1468.33 Q1724.43 1459.58 1727.49 1455 Q1730.57 1450.39 1736.38 1450.39 Z" fill="#000000" fill-rule="nonzero" fill-opacity="1" /><path clip-path="url(#clip950)" d="M2062.49 1481.64 L2078.81 1481.64 L2078.81 1485.58 L2056.87 1485.58 L2056.87 1481.64 Q2059.53 1478.89 2064.11 1474.26 Q2068.72 1469.61 2069.9 1468.27 Q2072.14 1465.74 2073.02 1464.01 Q2073.93 1462.25 2073.93 1460.56 Q2073.93 1457.8 2071.98 1456.07 Q2070.06 1454.33 2066.96 1454.33 Q2064.76 1454.33 2062.31 1455.09 Q2059.87 1455.86 2057.1 1457.41 L2057.1 1452.69 Q2059.92 1451.55 2062.37 1450.97 Q2064.83 1450.39 2066.87 1450.39 Q2072.24 1450.39 2075.43 1453.08 Q2078.62 1455.77 2078.62 1460.26 Q2078.62 1462.39 2077.81 1464.31 Q2077.03 1466.2 2074.92 1468.8 Q2074.34 1469.47 2071.24 1472.69 Q2068.14 1475.88 2062.49 1481.64 Z" fill="#000000" fill-rule="nonzero" fill-opacity="1" /><path clip-path="url(#clip950)" d="M2088.67 1451.02 L2107.03 1451.02 L2107.03 1454.96 L2092.95 1454.96 L2092.95 1463.43 Q2093.97 1463.08 2094.99 1462.92 Q2096.01 1462.73 2097.03 1462.73 Q2102.81 1462.73 2106.19 1465.9 Q2109.57 1469.08 2109.57 1474.49 Q2109.57 1480.07 2106.1 1483.17 Q2102.63 1486.25 2096.31 1486.25 Q2094.13 1486.25 2091.87 1485.88 Q2089.62 1485.51 2087.21 1484.77 L2087.21 1480.07 Q2089.3 1481.2 2091.52 1481.76 Q2093.74 1482.32 2096.22 1482.32 Q2100.22 1482.32 2102.56 1480.21 Q2104.9 1478.1 2104.9 1474.49 Q2104.9 1470.88 2102.56 1468.77 Q2100.22 1466.67 2096.22 1466.67 Q2094.34 1466.67 2092.47 1467.08 Q2090.62 1467.5 2088.67 1468.38 L2088.67 1451.02 Z" fill="#000000" fill-rule="nonzero" fill-opacity="1" /><path clip-path="url(#clip950)" d="M972.233 1520.52 L978.726 1520.52 L988.72 1560.69 L998.682 1520.52 L1005.91 1520.52 L1015.9 1560.69 L1025.86 1520.52 L1032.39 1520.52 L1020.45 1568.04 L1012.37 1568.04 L1002.34 1526.79 L992.221 1568.04 L984.137 1568.04 L972.233 1520.52 Z" fill="#000000" fill-rule="nonzero" fill-opacity="1" /><path clip-path="url(#clip950)" d="M1052.7 1550.12 Q1045.6 1550.12 1042.86 1551.75 Q1040.12 1553.37 1040.12 1557.29 Q1040.12 1560.4 1042.16 1562.25 Q1044.23 1564.07 1047.76 1564.07 Q1052.63 1564.07 1055.56 1560.63 Q1058.52 1557.16 1058.52 1551.43 L1058.52 1550.12 L1052.7 1550.12 M1064.38 1547.71 L1064.38 1568.04 L1058.52 1568.04 L1058.52 1562.63 Q1056.51 1565.88 1053.52 1567.44 Q1050.53 1568.97 1046.2 1568.97 Q1040.73 1568.97 1037.48 1565.91 Q1034.27 1562.82 1034.27 1557.67 Q1034.27 1551.65 1038.28 1548.6 Q1042.32 1545.54 1050.31 1545.54 L1058.52 1545.54 L1058.52 1544.97 Q1058.52 1540.93 1055.85 1538.73 Q1053.2 1536.5 1048.4 1536.5 Q1045.34 1536.5 1042.45 1537.23 Q1039.55 1537.97 1036.88 1539.43 L1036.88 1534.02 Q1040.09 1532.78 1043.12 1532.17 Q1046.14 1531.54 1049 1531.54 Q1056.74 1531.54 1060.56 1535.55 Q1064.38 1539.56 1064.38 1547.71 Z" fill="#000000" fill-rule="nonzero" fill-opacity="1" /><path clip-path="url(#clip950)" d="M1076.44 1518.52 L1082.3 1518.52 L1082.3 1568.04 L1076.44 1568.04 L1076.44 1518.52 Z" fill="#000000" fill-rule="nonzero" fill-opacity="1" /><path clip-path="url(#clip950)" d="M1094.55 1518.52 L1100.41 1518.52 L1100.41 1568.04 L1094.55 1568.04 L1094.55 1518.52 Z" fill="#000000" fill-rule="nonzero" fill-opacity="1" /><path clip-path="url(#clip950)" d="M1138.31 1533.76 L1138.31 1539.24 Q1135.83 1537.87 1133.32 1537.2 Q1130.83 1536.5 1128.29 1536.5 Q1122.59 1536.5 1119.44 1540.13 Q1116.29 1543.73 1116.29 1550.25 Q1116.29 1556.78 1119.44 1560.4 Q1122.59 1564 1128.29 1564 Q1130.83 1564 1133.32 1563.33 Q1135.83 1562.63 1138.31 1561.26 L1138.31 1566.68 Q1135.86 1567.82 1133.22 1568.39 Q1130.61 1568.97 1127.65 1568.97 Q1119.6 1568.97 1114.86 1563.91 Q1110.11 1558.85 1110.11 1550.25 Q1110.11 1541.53 1114.89 1536.53 Q1119.69 1531.54 1128.03 1531.54 Q1130.74 1531.54 1133.32 1532.11 Q1135.9 1532.65 1138.31 1533.76 Z" fill="#000000" fill-rule="nonzero" fill-opacity="1" /><path clip-path="url(#clip950)" d="M1148.5 1518.52 L1154.36 1518.52 L1154.36 1568.04 L1148.5 1568.04 L1148.5 1518.52 Z" fill="#000000" fill-rule="nonzero" fill-opacity="1" /><path clip-path="url(#clip950)" d="M1180.42 1536.5 Q1175.71 1536.5 1172.98 1540.19 Q1170.24 1543.85 1170.24 1550.25 Q1170.24 1556.65 1172.94 1560.34 Q1175.68 1564 1180.42 1564 Q1185.1 1564 1187.84 1560.31 Q1190.58 1556.62 1190.58 1550.25 Q1190.58 1543.92 1187.84 1540.23 Q1185.1 1536.5 1180.42 1536.5 M1180.42 1531.54 Q1188.06 1531.54 1192.42 1536.5 Q1196.78 1541.47 1196.78 1550.25 Q1196.78 1559 1192.42 1564 Q1188.06 1568.97 1180.42 1568.97 Q1172.75 1568.97 1168.39 1564 Q1164.06 1559 1164.06 1550.25 Q1164.06 1541.47 1168.39 1536.5 Q1172.75 1531.54 1180.42 1531.54 Z" fill="#000000" fill-rule="nonzero" fill-opacity="1" /><path clip-path="url(#clip950)" d="M1232.14 1533.76 L1232.14 1539.24 Q1229.66 1537.87 1227.15 1537.2 Q1224.67 1536.5 1222.12 1536.5 Q1216.42 1536.5 1213.27 1540.13 Q1210.12 1543.73 1210.12 1550.25 Q1210.12 1556.78 1213.27 1560.4 Q1216.42 1564 1222.12 1564 Q1224.67 1564 1227.15 1563.33 Q1229.66 1562.63 1232.14 1561.26 L1232.14 1566.68 Q1229.69 1567.82 1227.05 1568.39 Q1224.44 1568.97 1221.48 1568.97 Q1213.43 1568.97 1208.69 1563.91 Q1203.94 1558.85 1203.94 1550.25 Q1203.94 1541.53 1208.72 1536.53 Q1213.53 1531.54 1221.86 1531.54 Q1224.57 1531.54 1227.15 1532.11 Q1229.73 1532.65 1232.14 1533.76 Z" fill="#000000" fill-rule="nonzero" fill-opacity="1" /><path clip-path="url(#clip950)" d="M1242.11 1518.52 L1248 1518.52 L1248 1547.77 L1265.47 1532.4 L1272.95 1532.4 L1254.04 1549.07 L1273.74 1568.04 L1266.11 1568.04 L1248 1550.63 L1248 1568.04 L1242.11 1568.04 L1242.11 1518.52 Z" fill="#000000" fill-rule="nonzero" fill-opacity="1" /><path clip-path="url(#clip950)" d="M1294.46 1520.52 L1334.66 1520.52 L1334.66 1525.93 L1317.8 1525.93 L1317.8 1568.04 L1311.33 1568.04 L1311.33 1525.93 L1294.46 1525.93 L1294.46 1520.52 Z" fill="#000000" fill-rule="nonzero" fill-opacity="1" /><path clip-path="url(#clip950)" d="M1338.61 1532.4 L1344.47 1532.4 L1344.47 1568.04 L1338.61 1568.04 L1338.61 1532.4 M1338.61 1518.52 L1344.47 1518.52 L1344.47 1525.93 L1338.61 1525.93 L1338.61 1518.52 Z" fill="#000000" fill-rule="nonzero" fill-opacity="1" /><path clip-path="url(#clip950)" d="M1384.48 1539.24 Q1386.67 1535.29 1389.73 1533.41 Q1392.78 1531.54 1396.92 1531.54 Q1402.49 1531.54 1405.51 1535.45 Q1408.54 1539.33 1408.54 1546.53 L1408.54 1568.04 L1402.65 1568.04 L1402.65 1546.72 Q1402.65 1541.59 1400.84 1539.11 Q1399.02 1536.63 1395.3 1536.63 Q1390.75 1536.63 1388.1 1539.65 Q1385.46 1542.68 1385.46 1547.9 L1385.46 1568.04 L1379.57 1568.04 L1379.57 1546.72 Q1379.57 1541.56 1377.76 1539.11 Q1375.95 1536.63 1372.16 1536.63 Q1367.67 1536.63 1365.03 1539.68 Q1362.39 1542.71 1362.39 1547.9 L1362.39 1568.04 L1356.5 1568.04 L1356.5 1532.4 L1362.39 1532.4 L1362.39 1537.93 Q1364.39 1534.66 1367.19 1533.1 Q1369.99 1531.54 1373.85 1531.54 Q1377.73 1531.54 1380.43 1533.51 Q1383.17 1535.48 1384.48 1539.24 Z" fill="#000000" fill-rule="nonzero" fill-opacity="1" /><path clip-path="url(#clip950)" d="M1450.71 1548.76 L1450.71 1551.62 L1423.78 1551.62 Q1424.17 1557.67 1427.41 1560.85 Q1430.69 1564 1436.52 1564 Q1439.89 1564 1443.04 1563.17 Q1446.22 1562.35 1449.34 1560.69 L1449.34 1566.23 Q1446.19 1567.57 1442.88 1568.27 Q1439.57 1568.97 1436.17 1568.97 Q1427.64 1568.97 1422.64 1564 Q1417.67 1559.04 1417.67 1550.57 Q1417.67 1541.82 1422.38 1536.69 Q1427.13 1531.54 1435.15 1531.54 Q1442.34 1531.54 1446.51 1536.18 Q1450.71 1540.8 1450.71 1548.76 M1444.85 1547.04 Q1444.79 1542.23 1442.15 1539.37 Q1439.54 1536.5 1435.21 1536.5 Q1430.31 1536.5 1427.35 1539.27 Q1424.42 1542.04 1423.98 1547.07 L1444.85 1547.04 Z" fill="#000000" fill-rule="nonzero" fill-opacity="1" /><path clip-path="url(#clip950)" d="M1495.11 1518.58 Q1490.85 1525.9 1488.78 1533.06 Q1486.71 1540.23 1486.71 1547.58 Q1486.71 1554.93 1488.78 1562.16 Q1490.88 1569.35 1495.11 1576.64 L1490.02 1576.64 Q1485.25 1569.16 1482.86 1561.93 Q1480.5 1554.71 1480.5 1547.58 Q1480.5 1540.48 1482.86 1533.29 Q1485.21 1526.09 1490.02 1518.58 L1495.11 1518.58 Z" fill="#000000" fill-rule="nonzero" fill-opacity="1" /><path clip-path="url(#clip950)" d="M1529.2 1533.45 L1529.2 1538.98 Q1526.72 1537.71 1524.04 1537.07 Q1521.37 1536.44 1518.51 1536.44 Q1514.15 1536.44 1511.95 1537.77 Q1509.79 1539.11 1509.79 1541.79 Q1509.79 1543.82 1511.34 1545 Q1512.9 1546.15 1517.61 1547.2 L1519.62 1547.64 Q1525.86 1548.98 1528.47 1551.43 Q1531.11 1553.85 1531.11 1558.21 Q1531.11 1563.17 1527.16 1566.07 Q1523.25 1568.97 1516.37 1568.97 Q1513.51 1568.97 1510.39 1568.39 Q1507.3 1567.85 1503.86 1566.74 L1503.86 1560.69 Q1507.11 1562.38 1510.26 1563.24 Q1513.41 1564.07 1516.5 1564.07 Q1520.64 1564.07 1522.87 1562.66 Q1525.09 1561.23 1525.09 1558.65 Q1525.09 1556.27 1523.47 1554.99 Q1521.88 1553.72 1516.44 1552.54 L1514.4 1552.07 Q1508.96 1550.92 1506.54 1548.56 Q1504.12 1546.18 1504.12 1542.04 Q1504.12 1537.01 1507.68 1534.27 Q1511.25 1531.54 1517.81 1531.54 Q1521.05 1531.54 1523.92 1532.01 Q1526.78 1532.49 1529.2 1533.45 Z" fill="#000000" fill-rule="nonzero" fill-opacity="1" /><path clip-path="url(#clip950)" d="M1570.93 1548.76 L1570.93 1551.62 L1544 1551.62 Q1544.38 1557.67 1547.63 1560.85 Q1550.91 1564 1556.73 1564 Q1560.11 1564 1563.26 1563.17 Q1566.44 1562.35 1569.56 1560.69 L1569.56 1566.23 Q1566.41 1567.57 1563.1 1568.27 Q1559.79 1568.97 1556.38 1568.97 Q1547.85 1568.97 1542.85 1564 Q1537.89 1559.04 1537.89 1550.57 Q1537.89 1541.82 1542.6 1536.69 Q1547.34 1531.54 1555.36 1531.54 Q1562.56 1531.54 1566.73 1536.18 Q1570.93 1540.8 1570.93 1548.76 M1565.07 1547.04 Q1565.01 1542.23 1562.37 1539.37 Q1559.76 1536.5 1555.43 1536.5 Q1550.53 1536.5 1547.57 1539.27 Q1544.64 1542.04 1544.19 1547.07 L1565.07 1547.04 Z" fill="#000000" fill-rule="nonzero" fill-opacity="1" /><path clip-path="url(#clip950)" d="M1606.19 1533.76 L1606.19 1539.24 Q1603.71 1537.87 1601.2 1537.2 Q1598.71 1536.5 1596.17 1536.5 Q1590.47 1536.5 1587.32 1540.13 Q1584.17 1543.73 1584.17 1550.25 Q1584.17 1556.78 1587.32 1560.4 Q1590.47 1564 1596.17 1564 Q1598.71 1564 1601.2 1563.33 Q1603.71 1562.63 1606.19 1561.26 L1606.19 1566.68 Q1603.74 1567.82 1601.1 1568.39 Q1598.49 1568.97 1595.53 1568.97 Q1587.48 1568.97 1582.74 1563.91 Q1577.99 1558.85 1577.99 1550.25 Q1577.99 1541.53 1582.77 1536.53 Q1587.57 1531.54 1595.91 1531.54 Q1598.62 1531.54 1601.2 1532.11 Q1603.77 1532.65 1606.19 1533.76 Z" fill="#000000" fill-rule="nonzero" fill-opacity="1" /><path clip-path="url(#clip950)" d="M1615.46 1518.58 L1620.55 1518.58 Q1625.32 1526.09 1627.68 1533.29 Q1630.07 1540.48 1630.07 1547.58 Q1630.07 1554.71 1627.68 1561.93 Q1625.32 1569.16 1620.55 1576.64 L1615.46 1576.64 Q1619.69 1569.35 1621.76 1562.16 Q1623.86 1554.93 1623.86 1547.58 Q1623.86 1540.23 1621.76 1533.06 Q1619.69 1525.9 1615.46 1518.58 Z" fill="#000000" fill-rule="nonzero" fill-opacity="1" /><polyline clip-path="url(#clip950)" style="stroke:#000000; stroke-linecap:round; stroke-linejoin:round; stroke-width:4; stroke-opacity:1; fill:none" points="249.542,1423.18 249.542,47.2441 "/>
<polyline clip-path="url(#clip950)" style="stroke:#000000; stroke-linecap:round; stroke-linejoin:round; stroke-width:4; stroke-opacity:1; fill:none" points="249.542,1384.24 268.44,1384.24 "/>
<polyline clip-path="url(#clip950)" style="stroke:#000000; stroke-linecap:round; stroke-linejoin:round; stroke-width:4; stroke-opacity:1; fill:none" points="249.542,1160.05 268.44,1160.05 "/>
<polyline clip-path="url(#clip950)" style="stroke:#000000; stroke-linecap:round; stroke-linejoin:round; stroke-width:4; stroke-opacity:1; fill:none" points="249.542,935.861 268.44,935.861 "/>
<polyline clip-path="url(#clip950)" style="stroke:#000000; stroke-linecap:round; stroke-linejoin:round; stroke-width:4; stroke-opacity:1; fill:none" points="249.542,711.672 268.44,711.672 "/>
<polyline clip-path="url(#clip950)" style="stroke:#000000; stroke-linecap:round; stroke-linejoin:round; stroke-width:4; stroke-opacity:1; fill:none" points="249.542,487.483 268.44,487.483 "/>
<polyline clip-path="url(#clip950)" style="stroke:#000000; stroke-linecap:round; stroke-linejoin:round; stroke-width:4; stroke-opacity:1; fill:none" points="249.542,263.295 268.44,263.295 "/>
<path clip-path="url(#clip950)" d="M126.205 1370.04 Q122.593 1370.04 120.765 1373.6 Q118.959 1377.14 118.959 1384.27 Q118.959 1391.38 120.765 1394.94 Q122.593 1398.49 126.205 1398.49 Q129.839 1398.49 131.644 1394.94 Q133.473 1391.38 133.473 1384.27 Q133.473 1377.14 131.644 1373.6 Q129.839 1370.04 126.205 1370.04 M126.205 1366.33 Q132.015 1366.33 135.07 1370.94 Q138.149 1375.52 138.149 1384.27 Q138.149 1393 135.07 1397.61 Q132.015 1402.19 126.205 1402.19 Q120.394 1402.19 117.316 1397.61 Q114.26 1393 114.26 1384.27 Q114.26 1375.52 117.316 1370.94 Q120.394 1366.33 126.205 1366.33 Z" fill="#000000" fill-rule="nonzero" fill-opacity="1" /><path clip-path="url(#clip950)" d="M146.366 1395.64 L151.251 1395.64 L151.251 1401.52 L146.366 1401.52 L146.366 1395.64 Z" fill="#000000" fill-rule="nonzero" fill-opacity="1" /><path clip-path="url(#clip950)" d="M161.482 1366.96 L179.839 1366.96 L179.839 1370.89 L165.765 1370.89 L165.765 1379.37 Q166.783 1379.02 167.802 1378.86 Q168.82 1378.67 169.839 1378.67 Q175.626 1378.67 179.005 1381.84 Q182.385 1385.01 182.385 1390.43 Q182.385 1396.01 178.913 1399.11 Q175.44 1402.19 169.121 1402.19 Q166.945 1402.19 164.677 1401.82 Q162.431 1401.45 160.024 1400.71 L160.024 1396.01 Q162.107 1397.14 164.329 1397.7 Q166.552 1398.25 169.028 1398.25 Q173.033 1398.25 175.371 1396.15 Q177.709 1394.04 177.709 1390.43 Q177.709 1386.82 175.371 1384.71 Q173.033 1382.61 169.028 1382.61 Q167.153 1382.61 165.278 1383.02 Q163.427 1383.44 161.482 1384.32 L161.482 1366.96 Z" fill="#000000" fill-rule="nonzero" fill-opacity="1" /><path clip-path="url(#clip950)" d="M201.598 1370.04 Q197.987 1370.04 196.158 1373.6 Q194.352 1377.14 194.352 1384.27 Q194.352 1391.38 196.158 1394.94 Q197.987 1398.49 201.598 1398.49 Q205.232 1398.49 207.037 1394.94 Q208.866 1391.38 208.866 1384.27 Q208.866 1377.14 207.037 1373.6 Q205.232 1370.04 201.598 1370.04 M201.598 1366.33 Q207.408 1366.33 210.463 1370.94 Q213.542 1375.52 213.542 1384.27 Q213.542 1393 210.463 1397.61 Q207.408 1402.19 201.598 1402.19 Q195.787 1402.19 192.709 1397.61 Q189.653 1393 189.653 1384.27 Q189.653 1375.52 192.709 1370.94 Q195.787 1366.33 201.598 1366.33 Z" fill="#000000" fill-rule="nonzero" fill-opacity="1" /><path clip-path="url(#clip950)" d="M127.2 1145.85 Q123.589 1145.85 121.76 1149.41 Q119.955 1152.95 119.955 1160.08 Q119.955 1167.19 121.76 1170.76 Q123.589 1174.3 127.2 1174.3 Q130.834 1174.3 132.64 1170.76 Q134.468 1167.19 134.468 1160.08 Q134.468 1152.95 132.64 1149.41 Q130.834 1145.85 127.2 1145.85 M127.2 1142.14 Q133.01 1142.14 136.066 1146.75 Q139.144 1151.33 139.144 1160.08 Q139.144 1168.81 136.066 1173.42 Q133.01 1178 127.2 1178 Q121.39 1178 118.311 1173.42 Q115.256 1168.81 115.256 1160.08 Q115.256 1151.33 118.311 1146.75 Q121.39 1142.14 127.2 1142.14 Z" fill="#000000" fill-rule="nonzero" fill-opacity="1" /><path clip-path="url(#clip950)" d="M147.362 1171.45 L152.246 1171.45 L152.246 1177.33 L147.362 1177.33 L147.362 1171.45 Z" fill="#000000" fill-rule="nonzero" fill-opacity="1" /><path clip-path="url(#clip950)" d="M162.477 1142.77 L180.834 1142.77 L180.834 1146.7 L166.76 1146.7 L166.76 1155.18 Q167.778 1154.83 168.797 1154.67 Q169.815 1154.48 170.834 1154.48 Q176.621 1154.48 180.001 1157.65 Q183.38 1160.83 183.38 1166.24 Q183.38 1171.82 179.908 1174.92 Q176.436 1178 170.116 1178 Q167.94 1178 165.672 1177.63 Q163.427 1177.26 161.019 1176.52 L161.019 1171.82 Q163.102 1172.95 165.325 1173.51 Q167.547 1174.07 170.024 1174.07 Q174.028 1174.07 176.366 1171.96 Q178.704 1169.85 178.704 1166.24 Q178.704 1162.63 176.366 1160.52 Q174.028 1158.42 170.024 1158.42 Q168.149 1158.42 166.274 1158.83 Q164.422 1159.25 162.477 1160.13 L162.477 1142.77 Z" fill="#000000" fill-rule="nonzero" fill-opacity="1" /><path clip-path="url(#clip950)" d="M192.639 1142.77 L210.996 1142.77 L210.996 1146.7 L196.922 1146.7 L196.922 1155.18 Q197.94 1154.83 198.959 1154.67 Q199.977 1154.48 200.996 1154.48 Q206.783 1154.48 210.162 1157.65 Q213.542 1160.83 213.542 1166.24 Q213.542 1171.82 210.07 1174.92 Q206.598 1178 200.278 1178 Q198.102 1178 195.834 1177.63 Q193.588 1177.26 191.181 1176.52 L191.181 1171.82 Q193.264 1172.95 195.487 1173.51 Q197.709 1174.07 200.186 1174.07 Q204.19 1174.07 206.528 1171.96 Q208.866 1169.85 208.866 1166.24 Q208.866 1162.63 206.528 1160.52 Q204.19 1158.42 200.186 1158.42 Q198.311 1158.42 196.436 1158.83 Q194.584 1159.25 192.639 1160.13 L192.639 1142.77 Z" fill="#000000" fill-rule="nonzero" fill-opacity="1" /><path clip-path="url(#clip950)" d="M126.205 921.66 Q122.593 921.66 120.765 925.224 Q118.959 928.766 118.959 935.896 Q118.959 943.002 120.765 946.567 Q122.593 950.108 126.205 950.108 Q129.839 950.108 131.644 946.567 Q133.473 943.002 133.473 935.896 Q133.473 928.766 131.644 925.224 Q129.839 921.66 126.205 921.66 M126.205 917.956 Q132.015 917.956 135.07 922.562 Q138.149 927.146 138.149 935.896 Q138.149 944.622 135.07 949.229 Q132.015 953.812 126.205 953.812 Q120.394 953.812 117.316 949.229 Q114.26 944.622 114.26 935.896 Q114.26 927.146 117.316 922.562 Q120.394 917.956 126.205 917.956 Z" fill="#000000" fill-rule="nonzero" fill-opacity="1" /><path clip-path="url(#clip950)" d="M146.366 947.261 L151.251 947.261 L151.251 953.141 L146.366 953.141 L146.366 947.261 Z" fill="#000000" fill-rule="nonzero" fill-opacity="1" /><path clip-path="url(#clip950)" d="M172.014 933.997 Q168.866 933.997 167.015 936.15 Q165.186 938.303 165.186 942.053 Q165.186 945.78 167.015 947.956 Q168.866 950.108 172.014 950.108 Q175.163 950.108 176.991 947.956 Q178.843 945.78 178.843 942.053 Q178.843 938.303 176.991 936.15 Q175.163 933.997 172.014 933.997 M181.297 919.345 L181.297 923.604 Q179.538 922.771 177.732 922.331 Q175.95 921.891 174.19 921.891 Q169.561 921.891 167.107 925.016 Q164.677 928.141 164.329 934.46 Q165.695 932.447 167.755 931.382 Q169.815 930.294 172.292 930.294 Q177.501 930.294 180.51 933.465 Q183.542 936.613 183.542 942.053 Q183.542 947.377 180.394 950.595 Q177.246 953.812 172.014 953.812 Q166.019 953.812 162.848 949.229 Q159.677 944.622 159.677 935.896 Q159.677 927.701 163.565 922.84 Q167.454 917.956 174.005 917.956 Q175.764 917.956 177.547 918.303 Q179.352 918.65 181.297 919.345 Z" fill="#000000" fill-rule="nonzero" fill-opacity="1" /><path clip-path="url(#clip950)" d="M201.598 921.66 Q197.987 921.66 196.158 925.224 Q194.352 928.766 194.352 935.896 Q194.352 943.002 196.158 946.567 Q197.987 950.108 201.598 950.108 Q205.232 950.108 207.037 946.567 Q208.866 943.002 208.866 935.896 Q208.866 928.766 207.037 925.224 Q205.232 921.66 201.598 921.66 M201.598 917.956 Q207.408 917.956 210.463 922.562 Q213.542 927.146 213.542 935.896 Q213.542 944.622 210.463 949.229 Q207.408 953.812 201.598 953.812 Q195.787 953.812 192.709 949.229 Q189.653 944.622 189.653 935.896 Q189.653 927.146 192.709 922.562 Q195.787 917.956 201.598 917.956 Z" fill="#000000" fill-rule="nonzero" fill-opacity="1" /><path clip-path="url(#clip950)" d="M127.2 697.471 Q123.589 697.471 121.76 701.036 Q119.955 704.577 119.955 711.707 Q119.955 718.813 121.76 722.378 Q123.589 725.92 127.2 725.92 Q130.834 725.92 132.64 722.378 Q134.468 718.813 134.468 711.707 Q134.468 704.577 132.64 701.036 Q130.834 697.471 127.2 697.471 M127.2 693.767 Q133.01 693.767 136.066 698.374 Q139.144 702.957 139.144 711.707 Q139.144 720.434 136.066 725.04 Q133.01 729.623 127.2 729.623 Q121.39 729.623 118.311 725.04 Q115.256 720.434 115.256 711.707 Q115.256 702.957 118.311 698.374 Q121.39 693.767 127.2 693.767 Z" fill="#000000" fill-rule="nonzero" fill-opacity="1" /><path clip-path="url(#clip950)" d="M147.362 723.073 L152.246 723.073 L152.246 728.952 L147.362 728.952 L147.362 723.073 Z" fill="#000000" fill-rule="nonzero" fill-opacity="1" /><path clip-path="url(#clip950)" d="M173.01 709.809 Q169.862 709.809 168.01 711.962 Q166.181 714.114 166.181 717.864 Q166.181 721.591 168.01 723.767 Q169.862 725.92 173.01 725.92 Q176.158 725.92 177.987 723.767 Q179.839 721.591 179.839 717.864 Q179.839 714.114 177.987 711.962 Q176.158 709.809 173.01 709.809 M182.292 695.156 L182.292 699.415 Q180.533 698.582 178.727 698.142 Q176.945 697.702 175.186 697.702 Q170.556 697.702 168.102 700.827 Q165.672 703.952 165.325 710.272 Q166.69 708.258 168.751 707.193 Q170.811 706.105 173.288 706.105 Q178.496 706.105 181.505 709.276 Q184.538 712.424 184.538 717.864 Q184.538 723.188 181.389 726.406 Q178.241 729.623 173.01 729.623 Q167.015 729.623 163.843 725.04 Q160.672 720.434 160.672 711.707 Q160.672 703.512 164.561 698.651 Q168.45 693.767 175.001 693.767 Q176.76 693.767 178.542 694.114 Q180.348 694.462 182.292 695.156 Z" fill="#000000" fill-rule="nonzero" fill-opacity="1" /><path clip-path="url(#clip950)" d="M192.639 694.392 L210.996 694.392 L210.996 698.327 L196.922 698.327 L196.922 706.799 Q197.94 706.452 198.959 706.29 Q199.977 706.105 200.996 706.105 Q206.783 706.105 210.162 709.276 Q213.542 712.448 213.542 717.864 Q213.542 723.443 210.07 726.545 Q206.598 729.623 200.278 729.623 Q198.102 729.623 195.834 729.253 Q193.588 728.883 191.181 728.142 L191.181 723.443 Q193.264 724.577 195.487 725.133 Q197.709 725.688 200.186 725.688 Q204.19 725.688 206.528 723.582 Q208.866 721.475 208.866 717.864 Q208.866 714.253 206.528 712.147 Q204.19 710.04 200.186 710.04 Q198.311 710.04 196.436 710.457 Q194.584 710.874 192.639 711.753 L192.639 694.392 Z" fill="#000000" fill-rule="nonzero" fill-opacity="1" /><path clip-path="url(#clip950)" d="M126.205 473.282 Q122.593 473.282 120.765 476.847 Q118.959 480.389 118.959 487.518 Q118.959 494.625 120.765 498.189 Q122.593 501.731 126.205 501.731 Q129.839 501.731 131.644 498.189 Q133.473 494.625 133.473 487.518 Q133.473 480.389 131.644 476.847 Q129.839 473.282 126.205 473.282 M126.205 469.578 Q132.015 469.578 135.07 474.185 Q138.149 478.768 138.149 487.518 Q138.149 496.245 135.07 500.851 Q132.015 505.435 126.205 505.435 Q120.394 505.435 117.316 500.851 Q114.26 496.245 114.26 487.518 Q114.26 478.768 117.316 474.185 Q120.394 469.578 126.205 469.578 Z" fill="#000000" fill-rule="nonzero" fill-opacity="1" /><path clip-path="url(#clip950)" d="M146.366 498.884 L151.251 498.884 L151.251 504.763 L146.366 504.763 L146.366 498.884 Z" fill="#000000" fill-rule="nonzero" fill-opacity="1" /><path clip-path="url(#clip950)" d="M160.255 470.203 L182.477 470.203 L182.477 472.194 L169.931 504.763 L165.047 504.763 L176.852 474.139 L160.255 474.139 L160.255 470.203 Z" fill="#000000" fill-rule="nonzero" fill-opacity="1" /><path clip-path="url(#clip950)" d="M201.598 473.282 Q197.987 473.282 196.158 476.847 Q194.352 480.389 194.352 487.518 Q194.352 494.625 196.158 498.189 Q197.987 501.731 201.598 501.731 Q205.232 501.731 207.037 498.189 Q208.866 494.625 208.866 487.518 Q208.866 480.389 207.037 476.847 Q205.232 473.282 201.598 473.282 M201.598 469.578 Q207.408 469.578 210.463 474.185 Q213.542 478.768 213.542 487.518 Q213.542 496.245 210.463 500.851 Q207.408 505.435 201.598 505.435 Q195.787 505.435 192.709 500.851 Q189.653 496.245 189.653 487.518 Q189.653 478.768 192.709 474.185 Q195.787 469.578 201.598 469.578 Z" fill="#000000" fill-rule="nonzero" fill-opacity="1" /><path clip-path="url(#clip950)" d="M127.2 249.093 Q123.589 249.093 121.76 252.658 Q119.955 256.2 119.955 263.329 Q119.955 270.436 121.76 274.001 Q123.589 277.542 127.2 277.542 Q130.834 277.542 132.64 274.001 Q134.468 270.436 134.468 263.329 Q134.468 256.2 132.64 252.658 Q130.834 249.093 127.2 249.093 M127.2 245.39 Q133.01 245.39 136.066 249.996 Q139.144 254.58 139.144 263.329 Q139.144 272.056 136.066 276.663 Q133.01 281.246 127.2 281.246 Q121.39 281.246 118.311 276.663 Q115.256 272.056 115.256 263.329 Q115.256 254.58 118.311 249.996 Q121.39 245.39 127.2 245.39 Z" fill="#000000" fill-rule="nonzero" fill-opacity="1" /><path clip-path="url(#clip950)" d="M147.362 274.695 L152.246 274.695 L152.246 280.575 L147.362 280.575 L147.362 274.695 Z" fill="#000000" fill-rule="nonzero" fill-opacity="1" /><path clip-path="url(#clip950)" d="M161.251 246.015 L183.473 246.015 L183.473 248.005 L170.927 280.575 L166.042 280.575 L177.848 249.95 L161.251 249.95 L161.251 246.015 Z" fill="#000000" fill-rule="nonzero" fill-opacity="1" /><path clip-path="url(#clip950)" d="M192.639 246.015 L210.996 246.015 L210.996 249.95 L196.922 249.95 L196.922 258.422 Q197.94 258.075 198.959 257.913 Q199.977 257.728 200.996 257.728 Q206.783 257.728 210.162 260.899 Q213.542 264.07 213.542 269.487 Q213.542 275.066 210.07 278.167 Q206.598 281.246 200.278 281.246 Q198.102 281.246 195.834 280.876 Q193.588 280.505 191.181 279.765 L191.181 275.066 Q193.264 276.2 195.487 276.755 Q197.709 277.311 200.186 277.311 Q204.19 277.311 206.528 275.204 Q208.866 273.098 208.866 269.487 Q208.866 265.876 206.528 263.769 Q204.19 261.663 200.186 261.663 Q198.311 261.663 196.436 262.079 Q194.584 262.496 192.639 263.376 L192.639 246.015 Z" fill="#000000" fill-rule="nonzero" fill-opacity="1" /><path clip-path="url(#clip950)" d="M21.7677 1045.68 L39.6235 1045.68 L39.6235 1037.6 Q39.6235 1033.11 37.3 1030.66 Q34.9765 1028.21 30.6797 1028.21 Q26.4147 1028.21 24.0912 1030.66 Q21.7677 1033.11 21.7677 1037.6 L21.7677 1045.68 M16.4842 1052.11 L16.4842 1037.6 Q16.4842 1029.61 20.1126 1025.54 Q23.7092 1021.43 30.6797 1021.43 Q37.7138 1021.43 41.3104 1025.54 Q44.907 1029.61 44.907 1037.6 L44.907 1045.68 L64.0042 1045.68 L64.0042 1052.11 L16.4842 1052.11 Z" fill="#000000" fill-rule="nonzero" fill-opacity="1" /><path clip-path="url(#clip950)" d="M33.8307 993.548 Q33.2578 994.535 33.0032 995.713 Q32.7167 996.858 32.7167 998.259 Q32.7167 1003.22 35.9632 1005.9 Q39.1779 1008.54 45.2253 1008.54 L64.0042 1008.54 L64.0042 1014.43 L28.3562 1014.43 L28.3562 1008.54 L33.8944 1008.54 Q30.6479 1006.69 29.0883 1003.73 Q27.4968 1000.77 27.4968 996.54 Q27.4968 995.935 27.5923 995.203 Q27.656 994.471 27.8151 993.58 L33.8307 993.548 Z" fill="#000000" fill-rule="nonzero" fill-opacity="1" /><path clip-path="url(#clip950)" d="M44.7161 958.346 L47.5806 958.346 L47.5806 985.273 Q53.6281 984.891 56.8109 981.644 Q59.9619 978.366 59.9619 972.541 Q59.9619 969.168 59.1344 966.017 Q58.3069 962.834 56.6518 959.715 L62.1899 959.715 Q63.5267 962.866 64.227 966.176 Q64.9272 969.486 64.9272 972.892 Q64.9272 981.422 59.9619 986.419 Q54.9967 991.384 46.5303 991.384 Q37.7774 991.384 32.6531 986.673 Q27.4968 981.931 27.4968 973.91 Q27.4968 966.717 32.1438 962.547 Q36.7589 958.346 44.7161 958.346 M42.9973 964.202 Q38.1912 964.266 35.3266 966.908 Q32.4621 969.518 32.4621 973.846 Q32.4621 978.748 35.2312 981.708 Q38.0002 984.636 43.0292 985.082 L42.9973 964.202 Z" fill="#000000" fill-rule="nonzero" fill-opacity="1" /><path clip-path="url(#clip950)" d="M33.7671 925.276 L14.479 925.276 L14.479 919.42 L64.0042 919.42 L64.0042 925.276 L58.657 925.276 Q61.8398 927.122 63.3994 929.955 Q64.9272 932.756 64.9272 936.702 Q64.9272 943.164 59.771 947.238 Q54.6147 951.28 46.212 951.28 Q37.8093 951.28 32.6531 947.238 Q27.4968 943.164 27.4968 936.702 Q27.4968 932.756 29.0564 929.955 Q30.5842 927.122 33.7671 925.276 M46.212 945.233 Q52.6732 945.233 56.3653 942.591 Q60.0256 939.917 60.0256 935.27 Q60.0256 930.623 56.3653 927.95 Q52.6732 925.276 46.212 925.276 Q39.7508 925.276 36.0905 927.95 Q32.3984 930.623 32.3984 935.27 Q32.3984 939.917 36.0905 942.591 Q39.7508 945.233 46.212 945.233 Z" fill="#000000" fill-rule="nonzero" fill-opacity="1" /><path clip-path="url(#clip950)" d="M28.3562 907.357 L28.3562 901.5 L64.0042 901.5 L64.0042 907.357 L28.3562 907.357 M14.479 907.357 L14.479 901.5 L21.895 901.5 L21.895 907.357 L14.479 907.357 Z" fill="#000000" fill-rule="nonzero" fill-opacity="1" /><path clip-path="url(#clip950)" d="M29.7248 863.592 L35.1993 863.592 Q33.8307 866.075 33.1623 868.589 Q32.4621 871.072 32.4621 873.618 Q32.4621 879.316 36.0905 882.467 Q39.6872 885.618 46.212 885.618 Q52.7369 885.618 56.3653 882.467 Q59.9619 879.316 59.9619 873.618 Q59.9619 871.072 59.2935 868.589 Q58.5933 866.075 57.2247 863.592 L62.6355 863.592 Q63.7814 866.043 64.3543 868.685 Q64.9272 871.295 64.9272 874.255 Q64.9272 882.308 59.8664 887.05 Q54.8057 891.792 46.212 891.792 Q37.491 891.792 32.4939 887.018 Q27.4968 882.212 27.4968 873.873 Q27.4968 871.168 28.0697 868.589 Q28.6108 866.011 29.7248 863.592 Z" fill="#000000" fill-rule="nonzero" fill-opacity="1" /><path clip-path="url(#clip950)" d="M18.2347 847.614 L28.3562 847.614 L28.3562 835.551 L32.9077 835.551 L32.9077 847.614 L52.2594 847.614 Q56.6199 847.614 57.8613 846.437 Q59.1026 845.227 59.1026 841.567 L59.1026 835.551 L64.0042 835.551 L64.0042 841.567 Q64.0042 848.346 61.4897 850.925 Q58.9434 853.503 52.2594 853.503 L32.9077 853.503 L32.9077 857.8 L28.3562 857.8 L28.3562 853.503 L18.2347 853.503 L18.2347 847.614 Z" fill="#000000" fill-rule="nonzero" fill-opacity="1" /><path clip-path="url(#clip950)" d="M28.3562 827.849 L28.3562 821.992 L64.0042 821.992 L64.0042 827.849 L28.3562 827.849 M14.479 827.849 L14.479 821.992 L21.895 821.992 L21.895 827.849 L14.479 827.849 Z" fill="#000000" fill-rule="nonzero" fill-opacity="1" /><path clip-path="url(#clip950)" d="M32.4621 795.925 Q32.4621 800.636 36.1542 803.373 Q39.8145 806.11 46.212 806.11 Q52.6095 806.11 56.3017 803.405 Q59.9619 800.667 59.9619 795.925 Q59.9619 791.246 56.2698 788.509 Q52.5777 785.772 46.212 785.772 Q39.8781 785.772 36.186 788.509 Q32.4621 791.246 32.4621 795.925 M27.4968 795.925 Q27.4968 788.286 32.4621 783.926 Q37.4273 779.565 46.212 779.565 Q54.9649 779.565 59.9619 783.926 Q64.9272 788.286 64.9272 795.925 Q64.9272 803.596 59.9619 807.956 Q54.9649 812.285 46.212 812.285 Q37.4273 812.285 32.4621 807.956 Q27.4968 803.596 27.4968 795.925 Z" fill="#000000" fill-rule="nonzero" fill-opacity="1" /><path clip-path="url(#clip950)" d="M42.4881 740.225 L64.0042 740.225 L64.0042 746.081 L42.679 746.081 Q37.6183 746.081 35.1038 748.055 Q32.5894 750.028 32.5894 753.975 Q32.5894 758.717 35.6131 761.455 Q38.6368 764.192 43.8567 764.192 L64.0042 764.192 L64.0042 770.08 L28.3562 770.08 L28.3562 764.192 L33.8944 764.192 Q30.6797 762.091 29.0883 759.258 Q27.4968 756.394 27.4968 752.67 Q27.4968 746.527 31.3163 743.376 Q35.1038 740.225 42.4881 740.225 Z" fill="#000000" fill-rule="nonzero" fill-opacity="1" /><path clip-path="url(#clip950)" d="M22.818 691.686 L46.4666 700.407 L46.4666 682.934 L22.818 691.686 M16.4842 695.315 L16.4842 688.026 L64.0042 669.916 L64.0042 676.6 L51.8138 680.928 L51.8138 702.349 L64.0042 706.678 L64.0042 713.457 L16.4842 695.315 Z" fill="#000000" fill-rule="nonzero" fill-opacity="1" /><path clip-path="url(#clip950)" d="M29.7248 638.724 L35.1993 638.724 Q33.8307 641.206 33.1623 643.721 Q32.4621 646.203 32.4621 648.75 Q32.4621 654.447 36.0905 657.598 Q39.6872 660.749 46.212 660.749 Q52.7369 660.749 56.3653 657.598 Q59.9619 654.447 59.9619 648.75 Q59.9619 646.203 59.2935 643.721 Q58.5933 641.206 57.2247 638.724 L62.6355 638.724 Q63.7814 641.175 64.3543 643.816 Q64.9272 646.426 64.9272 649.386 Q64.9272 657.439 59.8664 662.181 Q54.8057 666.924 46.212 666.924 Q37.491 666.924 32.4939 662.15 Q27.4968 657.343 27.4968 649.004 Q27.4968 646.299 28.0697 643.721 Q28.6108 641.143 29.7248 638.724 Z" fill="#000000" fill-rule="nonzero" fill-opacity="1" /><path clip-path="url(#clip950)" d="M29.7248 602.885 L35.1993 602.885 Q33.8307 605.367 33.1623 607.882 Q32.4621 610.365 32.4621 612.911 Q32.4621 618.608 36.0905 621.759 Q39.6872 624.91 46.212 624.91 Q52.7369 624.91 56.3653 621.759 Q59.9619 618.608 59.9619 612.911 Q59.9619 610.365 59.2935 607.882 Q58.5933 605.367 57.2247 602.885 L62.6355 602.885 Q63.7814 605.336 64.3543 607.977 Q64.9272 610.587 64.9272 613.547 Q64.9272 621.6 59.8664 626.342 Q54.8057 631.085 46.212 631.085 Q37.491 631.085 32.4939 626.311 Q27.4968 621.505 27.4968 613.165 Q27.4968 610.46 28.0697 607.882 Q28.6108 605.304 29.7248 602.885 Z" fill="#000000" fill-rule="nonzero" fill-opacity="1" /><path clip-path="url(#clip950)" d="M49.9359 593.304 L28.3562 593.304 L28.3562 587.448 L49.7131 587.448 Q54.7739 587.448 57.3202 585.475 Q59.8346 583.501 59.8346 579.555 Q59.8346 574.812 56.8109 572.075 Q53.7872 569.306 48.5673 569.306 L28.3562 569.306 L28.3562 563.449 L64.0042 563.449 L64.0042 569.306 L58.5296 569.306 Q61.7762 571.438 63.3676 574.271 Q64.9272 577.072 64.9272 580.796 Q64.9272 586.939 61.1078 590.122 Q57.2883 593.304 49.9359 593.304 M27.4968 578.568 L27.4968 578.568 Z" fill="#000000" fill-rule="nonzero" fill-opacity="1" /><path clip-path="url(#clip950)" d="M33.8307 530.73 Q33.2578 531.716 33.0032 532.894 Q32.7167 534.04 32.7167 535.44 Q32.7167 540.405 35.9632 543.079 Q39.1779 545.721 45.2253 545.721 L64.0042 545.721 L64.0042 551.609 L28.3562 551.609 L28.3562 545.721 L33.8944 545.721 Q30.6479 543.875 29.0883 540.915 Q27.4968 537.955 27.4968 533.721 Q27.4968 533.117 27.5923 532.385 Q27.656 531.653 27.8151 530.761 L33.8307 530.73 Z" fill="#000000" fill-rule="nonzero" fill-opacity="1" /><path clip-path="url(#clip950)" d="M46.0847 508.386 Q46.0847 515.484 47.7079 518.221 Q49.3312 520.958 53.2461 520.958 Q56.3653 520.958 58.2114 518.921 Q60.0256 516.852 60.0256 513.319 Q60.0256 508.45 56.5881 505.521 Q53.1188 502.561 47.3897 502.561 L46.0847 502.561 L46.0847 508.386 M43.6657 496.705 L64.0042 496.705 L64.0042 502.561 L58.5933 502.561 Q61.8398 504.567 63.3994 507.558 Q64.9272 510.55 64.9272 514.879 Q64.9272 520.353 61.8716 523.6 Q58.7843 526.815 53.6281 526.815 Q47.6125 526.815 44.5569 522.804 Q41.5014 518.762 41.5014 510.773 L41.5014 502.561 L40.9285 502.561 Q36.8862 502.561 34.6901 505.235 Q32.4621 507.877 32.4621 512.683 Q32.4621 515.738 33.1941 518.635 Q33.9262 521.531 35.3903 524.205 L29.9795 524.205 Q28.7381 520.99 28.1334 517.966 Q27.4968 514.943 27.4968 512.078 Q27.4968 504.344 31.5072 500.524 Q35.5176 496.705 43.6657 496.705 Z" fill="#000000" fill-rule="nonzero" fill-opacity="1" /><path clip-path="url(#clip950)" d="M29.7248 458.988 L35.1993 458.988 Q33.8307 461.471 33.1623 463.985 Q32.4621 466.468 32.4621 469.014 Q32.4621 474.711 36.0905 477.862 Q39.6872 481.013 46.212 481.013 Q52.7369 481.013 56.3653 477.862 Q59.9619 474.711 59.9619 469.014 Q59.9619 466.468 59.2935 463.985 Q58.5933 461.471 57.2247 458.988 L62.6355 458.988 Q63.7814 461.439 64.3543 464.081 Q64.9272 466.691 64.9272 469.651 Q64.9272 477.703 59.8664 482.446 Q54.8057 487.188 46.212 487.188 Q37.491 487.188 32.4939 482.414 Q27.4968 477.608 27.4968 469.269 Q27.4968 466.563 28.0697 463.985 Q28.6108 461.407 29.7248 458.988 Z" fill="#000000" fill-rule="nonzero" fill-opacity="1" /><path clip-path="url(#clip950)" d="M67.3143 433.971 Q73.68 436.453 75.6216 438.809 Q77.5631 441.164 77.5631 445.111 L77.5631 449.79 L72.6615 449.79 L72.6615 446.352 Q72.6615 443.933 71.5157 442.596 Q70.3699 441.26 66.1048 439.636 L63.4312 438.586 L28.3562 453.004 L28.3562 446.798 L56.238 435.658 L28.3562 424.518 L28.3562 418.311 L67.3143 433.971 Z" fill="#000000" fill-rule="nonzero" fill-opacity="1" /><polyline clip-path="url(#clip952)" style="stroke:#009af9; stroke-linecap:round; stroke-linejoin:round; stroke-width:4; stroke-opacity:1; fill:none" points="361.971,1384.24 432.508,1264.52 497.157,580.746 560.714,528.734 623.911,498.693 686.255,480.309 748.682,435.472 812.584,410.811 878.267,396.014 939.865,357.454 1000.02,347.141 1061.69,316.652 1124.46,294.681 1185.07,283.92 1245.42,264.64 1306.78,231.46 1372.9,194.693 1434.86,176.758 1496.65,160.616 1558.63,141.784 1619.68,156.581 1680.91,164.203 1741.28,218.905 1801.96,155.684 1862.96,135.059 1924.45,93.3597 1985.9,129.678 2046.48,110.846 2108.42,148.51 2169.74,131.023 2230.12,86.1857 2293.23,91.1178 "/>
<polyline clip-path="url(#clip952)" style="stroke:#e26f46; stroke-linecap:round; stroke-linejoin:round; stroke-width:4; stroke-opacity:1; fill:none" points="309.067,1384.24 338.905,1384.24 349.965,600.026 360.959,869.501 376.255,582.091 387.365,516.628 398.603,487.483 410.044,480.758 421.335,445.784 432.697,442.646 443.92,413.95 454.939,430.091 466.202,395.118 477.323,369.112 488.403,341.761 499.738,321.584 510.836,315.755 522.208,322.032 533.328,298.268 544.498,291.543 555.942,258.363 567.012,272.262 578.06,222.492 589.402,229.218 600.469,210.386 611.943,174.964 623.026,153.891 633.986,139.991 645.282,130.127 656.271,147.613 667.212,133.265 678.492,148.51 "/>
<path clip-path="url(#clip950)" d="M1773.02 1377.32 L2282.65 1377.32 L2282.65 1221.8 L1773.02 1221.8  Z" fill="#ffffff" fill-rule="evenodd" fill-opacity="1"/>
<polyline clip-path="url(#clip950)" style="stroke:#000000; stroke-linecap:round; stroke-linejoin:round; stroke-width:4; stroke-opacity:1; fill:none" points="1773.02,1377.32 2282.65,1377.32 2282.65,1221.8 1773.02,1221.8 1773.02,1377.32 "/>
<polyline clip-path="url(#clip950)" style="stroke:#009af9; stroke-linecap:round; stroke-linejoin:round; stroke-width:4; stroke-opacity:1; fill:none" points="1796.39,1273.64 1936.61,1273.64 "/>
<path clip-path="url(#clip950)" d="M1959.98 1256.36 L1979.84 1256.36 L1979.84 1260.29 L1964.65 1260.29 L1964.65 1270.48 L1978.36 1270.48 L1978.36 1274.41 L1964.65 1274.41 L1964.65 1290.92 L1959.98 1290.92 L1959.98 1256.36 Z" fill="#000000" fill-rule="nonzero" fill-opacity="1" /><path clip-path="url(#clip950)" d="M1984.03 1280.68 L1984.03 1264.99 L1988.29 1264.99 L1988.29 1280.52 Q1988.29 1284.2 1989.72 1286.05 Q1991.16 1287.88 1994.03 1287.88 Q1997.48 1287.88 1999.47 1285.68 Q2001.48 1283.48 2001.48 1279.69 L2001.48 1264.99 L2005.74 1264.99 L2005.74 1290.92 L2001.48 1290.92 L2001.48 1286.93 Q1999.93 1289.29 1997.87 1290.45 Q1995.83 1291.59 1993.12 1291.59 Q1988.66 1291.59 1986.34 1288.81 Q1984.03 1286.03 1984.03 1280.68 M1994.74 1264.36 L1994.74 1264.36 Z" fill="#000000" fill-rule="nonzero" fill-opacity="1" /><path clip-path="url(#clip950)" d="M2014.51 1254.9 L2018.77 1254.9 L2018.77 1290.92 L2014.51 1290.92 L2014.51 1254.9 Z" fill="#000000" fill-rule="nonzero" fill-opacity="1" /><path clip-path="url(#clip950)" d="M2027.68 1254.9 L2031.94 1254.9 L2031.94 1290.92 L2027.68 1290.92 L2027.68 1254.9 Z" fill="#000000" fill-rule="nonzero" fill-opacity="1" /><path clip-path="url(#clip950)" d="M2060.79 1274.41 L2060.79 1287.07 L2068.29 1287.07 Q2072.06 1287.07 2073.86 1285.52 Q2075.69 1283.95 2075.69 1280.73 Q2075.69 1277.49 2073.86 1275.96 Q2072.06 1274.41 2068.29 1274.41 L2060.79 1274.41 M2060.79 1260.2 L2060.79 1270.61 L2067.71 1270.61 Q2071.13 1270.61 2072.8 1269.34 Q2074.49 1268.05 2074.49 1265.41 Q2074.49 1262.79 2072.8 1261.49 Q2071.13 1260.2 2067.71 1260.2 L2060.79 1260.2 M2056.11 1256.36 L2068.05 1256.36 Q2073.4 1256.36 2076.29 1258.58 Q2079.19 1260.8 2079.19 1264.9 Q2079.19 1268.07 2077.71 1269.94 Q2076.23 1271.82 2073.35 1272.28 Q2076.8 1273.02 2078.7 1275.38 Q2080.62 1277.72 2080.62 1281.24 Q2080.62 1285.87 2077.48 1288.39 Q2074.33 1290.92 2068.52 1290.92 L2056.11 1290.92 L2056.11 1256.36 Z" fill="#000000" fill-rule="nonzero" fill-opacity="1" /><path clip-path="url(#clip950)" d="M2100.23 1277.88 Q2095.07 1277.88 2093.08 1279.06 Q2091.09 1280.24 2091.09 1283.09 Q2091.09 1285.36 2092.57 1286.7 Q2094.07 1288.02 2096.64 1288.02 Q2100.18 1288.02 2102.31 1285.52 Q2104.47 1283 2104.47 1278.83 L2104.47 1277.88 L2100.23 1277.88 M2108.72 1276.12 L2108.72 1290.92 L2104.47 1290.92 L2104.47 1286.98 Q2103.01 1289.34 2100.83 1290.48 Q2098.66 1291.59 2095.51 1291.59 Q2091.53 1291.59 2089.16 1289.36 Q2086.83 1287.12 2086.83 1283.37 Q2086.83 1278.99 2089.74 1276.77 Q2092.68 1274.55 2098.49 1274.55 L2104.47 1274.55 L2104.47 1274.13 Q2104.47 1271.19 2102.52 1269.6 Q2100.6 1267.98 2097.1 1267.98 Q2094.88 1267.98 2092.78 1268.51 Q2090.67 1269.04 2088.73 1270.11 L2088.73 1266.17 Q2091.06 1265.27 2093.26 1264.83 Q2095.46 1264.36 2097.54 1264.36 Q2103.17 1264.36 2105.95 1267.28 Q2108.72 1270.2 2108.72 1276.12 Z" fill="#000000" fill-rule="nonzero" fill-opacity="1" /><path clip-path="url(#clip950)" d="M2121.71 1257.63 L2121.71 1264.99 L2130.48 1264.99 L2130.48 1268.3 L2121.71 1268.3 L2121.71 1282.37 Q2121.71 1285.54 2122.57 1286.45 Q2123.45 1287.35 2126.11 1287.35 L2130.48 1287.35 L2130.48 1290.92 L2126.11 1290.92 Q2121.18 1290.92 2119.3 1289.09 Q2117.43 1287.23 2117.43 1282.37 L2117.43 1268.3 L2114.3 1268.3 L2114.3 1264.99 L2117.43 1264.99 L2117.43 1257.63 L2121.71 1257.63 Z" fill="#000000" fill-rule="nonzero" fill-opacity="1" /><path clip-path="url(#clip950)" d="M2154.74 1265.98 L2154.74 1269.97 Q2152.94 1268.97 2151.11 1268.48 Q2149.3 1267.98 2147.45 1267.98 Q2143.31 1267.98 2141.02 1270.61 Q2138.72 1273.23 2138.72 1277.98 Q2138.72 1282.72 2141.02 1285.36 Q2143.31 1287.98 2147.45 1287.98 Q2149.3 1287.98 2151.11 1287.49 Q2152.94 1286.98 2154.74 1285.98 L2154.74 1289.92 Q2152.96 1290.75 2151.04 1291.17 Q2149.14 1291.59 2146.99 1291.59 Q2141.13 1291.59 2137.68 1287.91 Q2134.23 1284.23 2134.23 1277.98 Q2134.23 1271.63 2137.71 1268 Q2141.2 1264.36 2147.27 1264.36 Q2149.23 1264.36 2151.11 1264.78 Q2152.98 1265.17 2154.74 1265.98 Z" fill="#000000" fill-rule="nonzero" fill-opacity="1" /><path clip-path="url(#clip950)" d="M2183.7 1275.27 L2183.7 1290.92 L2179.44 1290.92 L2179.44 1275.41 Q2179.44 1271.73 2178.01 1269.9 Q2176.57 1268.07 2173.7 1268.07 Q2170.25 1268.07 2168.26 1270.27 Q2166.27 1272.47 2166.27 1276.26 L2166.27 1290.92 L2161.99 1290.92 L2161.99 1254.9 L2166.27 1254.9 L2166.27 1269.02 Q2167.8 1266.68 2169.86 1265.52 Q2171.94 1264.36 2174.65 1264.36 Q2179.12 1264.36 2181.41 1267.14 Q2183.7 1269.9 2183.7 1275.27 Z" fill="#000000" fill-rule="nonzero" fill-opacity="1" /><polyline clip-path="url(#clip950)" style="stroke:#e26f46; stroke-linecap:round; stroke-linejoin:round; stroke-width:4; stroke-opacity:1; fill:none" points="1796.39,1325.48 1936.61,1325.48 "/>
<path clip-path="url(#clip950)" d="M1982.22 1309.33 L1982.22 1313.89 Q1979.56 1312.62 1977.2 1311.99 Q1974.84 1311.37 1972.64 1311.37 Q1968.82 1311.37 1966.74 1312.85 Q1964.67 1314.33 1964.67 1317.06 Q1964.67 1319.35 1966.04 1320.53 Q1967.43 1321.69 1971.27 1322.41 L1974.1 1322.99 Q1979.33 1323.98 1981.8 1326.51 Q1984.3 1329.01 1984.3 1333.22 Q1984.3 1338.24 1980.92 1340.83 Q1977.57 1343.43 1971.06 1343.43 Q1968.61 1343.43 1965.83 1342.87 Q1963.08 1342.32 1960.11 1341.23 L1960.11 1336.41 Q1962.96 1338.01 1965.69 1338.82 Q1968.42 1339.63 1971.06 1339.63 Q1975.07 1339.63 1977.24 1338.06 Q1979.42 1336.48 1979.42 1333.57 Q1979.42 1331.02 1977.85 1329.58 Q1976.3 1328.15 1972.73 1327.43 L1969.88 1326.88 Q1964.65 1325.83 1962.31 1323.61 Q1959.98 1321.39 1959.98 1317.43 Q1959.98 1312.85 1963.19 1310.21 Q1966.43 1307.57 1972.11 1307.57 Q1974.54 1307.57 1977.06 1308.01 Q1979.58 1308.45 1982.22 1309.33 Z" fill="#000000" fill-rule="nonzero" fill-opacity="1" /><path clip-path="url(#clip950)" d="M1990.97 1332.52 L1990.97 1316.83 L1995.23 1316.83 L1995.23 1332.36 Q1995.23 1336.04 1996.67 1337.89 Q1998.1 1339.72 2000.97 1339.72 Q2004.42 1339.72 2006.41 1337.52 Q2008.42 1335.32 2008.42 1331.53 L2008.42 1316.83 L2012.68 1316.83 L2012.68 1342.76 L2008.42 1342.76 L2008.42 1338.77 Q2006.87 1341.13 2004.81 1342.29 Q2002.78 1343.43 2000.07 1343.43 Q1995.6 1343.43 1993.29 1340.65 Q1990.97 1337.87 1990.97 1332.52 M2001.69 1316.2 L2001.69 1316.2 Z" fill="#000000" fill-rule="nonzero" fill-opacity="1" /><path clip-path="url(#clip950)" d="M2040.07 1329.82 Q2040.07 1325.12 2038.12 1322.45 Q2036.2 1319.77 2032.82 1319.77 Q2029.44 1319.77 2027.5 1322.45 Q2025.58 1325.12 2025.58 1329.82 Q2025.58 1334.51 2027.5 1337.2 Q2029.44 1339.86 2032.82 1339.86 Q2036.2 1339.86 2038.12 1337.2 Q2040.07 1334.51 2040.07 1329.82 M2025.58 1320.76 Q2026.92 1318.45 2028.96 1317.34 Q2031.02 1316.2 2033.86 1316.2 Q2038.59 1316.2 2041.53 1319.95 Q2044.49 1323.7 2044.49 1329.82 Q2044.49 1335.93 2041.53 1339.68 Q2038.59 1343.43 2033.86 1343.43 Q2031.02 1343.43 2028.96 1342.32 Q2026.92 1341.18 2025.58 1338.87 L2025.58 1342.76 L2021.29 1342.76 L2021.29 1306.74 L2025.58 1306.74 L2025.58 1320.76 Z" fill="#000000" fill-rule="nonzero" fill-opacity="1" /><path clip-path="url(#clip950)" d="M2068.08 1317.59 L2068.08 1321.62 Q2066.27 1320.7 2064.33 1320.23 Q2062.38 1319.77 2060.3 1319.77 Q2057.13 1319.77 2055.53 1320.74 Q2053.96 1321.71 2053.96 1323.66 Q2053.96 1325.14 2055.09 1326 Q2056.23 1326.83 2059.65 1327.59 L2061.11 1327.92 Q2065.65 1328.89 2067.54 1330.67 Q2069.47 1332.43 2069.47 1335.6 Q2069.47 1339.21 2066.6 1341.32 Q2063.75 1343.43 2058.75 1343.43 Q2056.67 1343.43 2054.4 1343.01 Q2052.15 1342.62 2049.65 1341.81 L2049.65 1337.41 Q2052.01 1338.63 2054.3 1339.26 Q2056.6 1339.86 2058.84 1339.86 Q2061.85 1339.86 2063.47 1338.84 Q2065.09 1337.8 2065.09 1335.93 Q2065.09 1334.19 2063.91 1333.26 Q2062.75 1332.34 2058.79 1331.48 L2057.31 1331.14 Q2053.35 1330.3 2051.6 1328.59 Q2049.84 1326.85 2049.84 1323.84 Q2049.84 1320.19 2052.43 1318.2 Q2055.02 1316.2 2059.79 1316.2 Q2062.15 1316.2 2064.23 1316.55 Q2066.32 1316.9 2068.08 1317.59 Z" fill="#000000" fill-rule="nonzero" fill-opacity="1" /><path clip-path="url(#clip950)" d="M2088.03 1329.72 Q2082.87 1329.72 2080.88 1330.9 Q2078.89 1332.08 2078.89 1334.93 Q2078.89 1337.2 2080.37 1338.54 Q2081.87 1339.86 2084.44 1339.86 Q2087.98 1339.86 2090.11 1337.36 Q2092.27 1334.84 2092.27 1330.67 L2092.27 1329.72 L2088.03 1329.72 M2096.53 1327.96 L2096.53 1342.76 L2092.27 1342.76 L2092.27 1338.82 Q2090.81 1341.18 2088.63 1342.32 Q2086.46 1343.43 2083.31 1343.43 Q2079.33 1343.43 2076.97 1341.2 Q2074.63 1338.96 2074.63 1335.21 Q2074.63 1330.83 2077.54 1328.61 Q2080.48 1326.39 2086.29 1326.39 L2092.27 1326.39 L2092.27 1325.97 Q2092.27 1323.03 2090.32 1321.44 Q2088.4 1319.82 2084.91 1319.82 Q2082.68 1319.82 2080.58 1320.35 Q2078.47 1320.88 2076.53 1321.95 L2076.53 1318.01 Q2078.86 1317.11 2081.06 1316.67 Q2083.26 1316.2 2085.35 1316.2 Q2090.97 1316.2 2093.75 1319.12 Q2096.53 1322.04 2096.53 1327.96 Z" fill="#000000" fill-rule="nonzero" fill-opacity="1" /><path clip-path="url(#clip950)" d="M2125.48 1321.81 Q2127.08 1318.94 2129.3 1317.57 Q2131.53 1316.2 2134.54 1316.2 Q2138.59 1316.2 2140.78 1319.05 Q2142.98 1321.88 2142.98 1327.11 L2142.98 1342.76 L2138.7 1342.76 L2138.7 1327.25 Q2138.7 1323.52 2137.38 1321.71 Q2136.06 1319.91 2133.35 1319.91 Q2130.04 1319.91 2128.12 1322.11 Q2126.2 1324.31 2126.2 1328.1 L2126.2 1342.76 L2121.92 1342.76 L2121.92 1327.25 Q2121.92 1323.5 2120.6 1321.71 Q2119.28 1319.91 2116.53 1319.91 Q2113.26 1319.91 2111.34 1322.13 Q2109.42 1324.33 2109.42 1328.1 L2109.42 1342.76 L2105.14 1342.76 L2105.14 1316.83 L2109.42 1316.83 L2109.42 1320.86 Q2110.88 1318.47 2112.91 1317.34 Q2114.95 1316.2 2117.75 1316.2 Q2120.58 1316.2 2122.54 1317.64 Q2124.54 1319.07 2125.48 1321.81 Z" fill="#000000" fill-rule="nonzero" fill-opacity="1" /><path clip-path="url(#clip950)" d="M2155.6 1338.87 L2155.6 1352.62 L2151.32 1352.62 L2151.32 1316.83 L2155.6 1316.83 L2155.6 1320.76 Q2156.94 1318.45 2158.98 1317.34 Q2161.04 1316.2 2163.89 1316.2 Q2168.61 1316.2 2171.55 1319.95 Q2174.51 1323.7 2174.51 1329.82 Q2174.51 1335.93 2171.55 1339.68 Q2168.61 1343.43 2163.89 1343.43 Q2161.04 1343.43 2158.98 1342.32 Q2156.94 1341.18 2155.6 1338.87 M2170.09 1329.82 Q2170.09 1325.12 2168.15 1322.45 Q2166.22 1319.77 2162.85 1319.77 Q2159.47 1319.77 2157.52 1322.45 Q2155.6 1325.12 2155.6 1329.82 Q2155.6 1334.51 2157.52 1337.2 Q2159.47 1339.86 2162.85 1339.86 Q2166.22 1339.86 2168.15 1337.2 Q2170.09 1334.51 2170.09 1329.82 Z" fill="#000000" fill-rule="nonzero" fill-opacity="1" /><path clip-path="url(#clip950)" d="M2181.57 1306.74 L2185.83 1306.74 L2185.83 1342.76 L2181.57 1342.76 L2181.57 1306.74 Z" fill="#000000" fill-rule="nonzero" fill-opacity="1" /><path clip-path="url(#clip950)" d="M2194.74 1316.83 L2199 1316.83 L2199 1342.76 L2194.74 1342.76 L2194.74 1316.83 M2194.74 1306.74 L2199 1306.74 L2199 1312.13 L2194.74 1312.13 L2194.74 1306.74 Z" fill="#000000" fill-rule="nonzero" fill-opacity="1" /><path clip-path="url(#clip950)" d="M2229.47 1327.11 L2229.47 1342.76 L2225.21 1342.76 L2225.21 1327.25 Q2225.21 1323.57 2223.77 1321.74 Q2222.34 1319.91 2219.47 1319.91 Q2216.02 1319.91 2214.03 1322.11 Q2212.03 1324.31 2212.03 1328.1 L2212.03 1342.76 L2207.75 1342.76 L2207.75 1316.83 L2212.03 1316.83 L2212.03 1320.86 Q2213.56 1318.52 2215.62 1317.36 Q2217.71 1316.2 2220.41 1316.2 Q2224.88 1316.2 2227.17 1318.98 Q2229.47 1321.74 2229.47 1327.11 Z" fill="#000000" fill-rule="nonzero" fill-opacity="1" /><path clip-path="url(#clip950)" d="M2255.02 1329.49 Q2255.02 1324.86 2253.1 1322.32 Q2251.2 1319.77 2247.75 1319.77 Q2244.33 1319.77 2242.4 1322.32 Q2240.51 1324.86 2240.51 1329.49 Q2240.51 1334.1 2242.4 1336.64 Q2244.33 1339.19 2247.75 1339.19 Q2251.2 1339.19 2253.1 1336.64 Q2255.02 1334.1 2255.02 1329.49 M2259.28 1339.54 Q2259.28 1346.16 2256.34 1349.38 Q2253.4 1352.62 2247.34 1352.62 Q2245.09 1352.62 2243.1 1352.27 Q2241.11 1351.95 2239.23 1351.25 L2239.23 1347.11 Q2241.11 1348.13 2242.94 1348.61 Q2244.77 1349.1 2246.66 1349.1 Q2250.85 1349.1 2252.94 1346.9 Q2255.02 1344.72 2255.02 1340.3 L2255.02 1338.2 Q2253.7 1340.49 2251.64 1341.62 Q2249.58 1342.76 2246.71 1342.76 Q2241.94 1342.76 2239.03 1339.12 Q2236.11 1335.49 2236.11 1329.49 Q2236.11 1323.47 2239.03 1319.84 Q2241.94 1316.2 2246.71 1316.2 Q2249.58 1316.2 2251.64 1317.34 Q2253.7 1318.47 2255.02 1320.76 L2255.02 1316.83 L2259.28 1316.83 L2259.28 1339.54 Z" fill="#000000" fill-rule="nonzero" fill-opacity="1" /></svg>
