<?xml version="1.0" encoding="utf-8"?>
<svg xmlns="http://www.w3.org/2000/svg" xmlns:xlink="http://www.w3.org/1999/xlink" width="600" height="400" viewBox="0 0 2400 1600">
<defs>
  <clipPath id="clip510">
    <rect x="0" y="0" width="2400" height="1600"/>
  </clipPath>
</defs>
<path clip-path="url(#clip510)" d="M0 1600 L2400 1600 L2400 0 L0 0  Z" fill="#ffffff" fill-rule="evenodd" fill-opacity="1"/>
<defs>
  <clipPath id="clip511">
    <rect x="480" y="0" width="1681" height="1600"/>
  </clipPath>
</defs>
<path clip-path="url(#clip510)" d="M302.458 1423.18 L2352.76 1423.18 L2352.76 47.2441 L302.458 47.2441  Z" fill="#ffffff" fill-rule="evenodd" fill-opacity="1"/>
<defs>
  <clipPath id="clip512">
    <rect x="302" y="47" width="2051" height="1377"/>
  </clipPath>
</defs>
<polyline clip-path="url(#clip512)" style="stroke:#000000; stroke-linecap:round; stroke-linejoin:round; stroke-width:2; stroke-opacity:0.1; fill:none" points="359.862,1423.18 359.862,47.2441 "/>
<polyline clip-path="url(#clip512)" style="stroke:#000000; stroke-linecap:round; stroke-linejoin:round; stroke-width:2; stroke-opacity:0.1; fill:none" points="983.811,1423.18 983.811,47.2441 "/>
<polyline clip-path="url(#clip512)" style="stroke:#000000; stroke-linecap:round; stroke-linejoin:round; stroke-width:2; stroke-opacity:0.1; fill:none" points="1607.76,1423.18 1607.76,47.2441 "/>
<polyline clip-path="url(#clip512)" style="stroke:#000000; stroke-linecap:round; stroke-linejoin:round; stroke-width:2; stroke-opacity:0.1; fill:none" points="2231.71,1423.18 2231.71,47.2441 "/>
<polyline clip-path="url(#clip512)" style="stroke:#000000; stroke-linecap:round; stroke-linejoin:round; stroke-width:2; stroke-opacity:0.1; fill:none" points="302.458,1285.14 2352.76,1285.14 "/>
<polyline clip-path="url(#clip512)" style="stroke:#000000; stroke-linecap:round; stroke-linejoin:round; stroke-width:2; stroke-opacity:0.1; fill:none" points="302.458,967.369 2352.76,967.369 "/>
<polyline clip-path="url(#clip512)" style="stroke:#000000; stroke-linecap:round; stroke-linejoin:round; stroke-width:2; stroke-opacity:0.1; fill:none" points="302.458,649.595 2352.76,649.595 "/>
<polyline clip-path="url(#clip512)" style="stroke:#000000; stroke-linecap:round; stroke-linejoin:round; stroke-width:2; stroke-opacity:0.1; fill:none" points="302.458,331.82 2352.76,331.82 "/>
<polyline clip-path="url(#clip510)" style="stroke:#000000; stroke-linecap:round; stroke-linejoin:round; stroke-width:4; stroke-opacity:1; fill:none" points="302.458,1423.18 2352.76,1423.18 "/>
<polyline clip-path="url(#clip510)" style="stroke:#000000; stroke-linecap:round; stroke-linejoin:round; stroke-width:4; stroke-opacity:1; fill:none" points="359.862,1423.18 359.862,1404.28 "/>
<polyline clip-path="url(#clip510)" style="stroke:#000000; stroke-linecap:round; stroke-linejoin:round; stroke-width:4; stroke-opacity:1; fill:none" points="983.811,1423.18 983.811,1404.28 "/>
<polyline clip-path="url(#clip510)" style="stroke:#000000; stroke-linecap:round; stroke-linejoin:round; stroke-width:4; stroke-opacity:1; fill:none" points="1607.76,1423.18 1607.76,1404.28 "/>
<polyline clip-path="url(#clip510)" style="stroke:#000000; stroke-linecap:round; stroke-linejoin:round; stroke-width:4; stroke-opacity:1; fill:none" points="2231.71,1423.18 2231.71,1404.28 "/>
<path clip-path="url(#clip510)" d="M359.862 1454.1 Q356.251 1454.1 354.422 1457.66 Q352.616 1461.2 352.616 1468.33 Q352.616 1475.44 354.422 1479.01 Q356.251 1482.55 359.862 1482.55 Q363.496 1482.55 365.302 1479.01 Q367.13 1475.44 367.13 1468.33 Q367.13 1461.2 365.302 1457.66 Q363.496 1454.1 359.862 1454.1 M359.862 1450.39 Q365.672 1450.39 368.727 1455 Q371.806 1459.58 371.806 1468.33 Q371.806 1477.06 368.727 1481.67 Q365.672 1486.25 359.862 1486.25 Q354.052 1486.25 350.973 1481.67 Q347.917 1477.06 347.917 1468.33 Q347.917 1459.58 350.973 1455 Q354.052 1450.39 359.862 1450.39 Z" fill="#000000" fill-rule="nonzero" fill-opacity="1" /><path clip-path="url(#clip510)" d="M928.337 1481.64 L935.976 1481.64 L935.976 1455.28 L927.666 1456.95 L927.666 1452.69 L935.929 1451.02 L940.605 1451.02 L940.605 1481.64 L948.244 1481.64 L948.244 1485.58 L928.337 1485.58 L928.337 1481.64 Z" fill="#000000" fill-rule="nonzero" fill-opacity="1" /><path clip-path="url(#clip510)" d="M967.688 1454.1 Q964.077 1454.1 962.249 1457.66 Q960.443 1461.2 960.443 1468.33 Q960.443 1475.44 962.249 1479.01 Q964.077 1482.55 967.688 1482.55 Q971.323 1482.55 973.128 1479.01 Q974.957 1475.44 974.957 1468.33 Q974.957 1461.2 973.128 1457.66 Q971.323 1454.1 967.688 1454.1 M967.688 1450.39 Q973.499 1450.39 976.554 1455 Q979.633 1459.58 979.633 1468.33 Q979.633 1477.06 976.554 1481.67 Q973.499 1486.25 967.688 1486.25 Q961.878 1486.25 958.8 1481.67 Q955.744 1477.06 955.744 1468.33 Q955.744 1459.58 958.8 1455 Q961.878 1450.39 967.688 1450.39 Z" fill="#000000" fill-rule="nonzero" fill-opacity="1" /><path clip-path="url(#clip510)" d="M997.85 1454.1 Q994.239 1454.1 992.411 1457.66 Q990.605 1461.2 990.605 1468.33 Q990.605 1475.44 992.411 1479.01 Q994.239 1482.55 997.85 1482.55 Q1001.48 1482.55 1003.29 1479.01 Q1005.12 1475.44 1005.12 1468.33 Q1005.12 1461.2 1003.29 1457.66 Q1001.48 1454.1 997.85 1454.1 M997.85 1450.39 Q1003.66 1450.39 1006.72 1455 Q1009.79 1459.58 1009.79 1468.33 Q1009.79 1477.06 1006.72 1481.67 Q1003.66 1486.25 997.85 1486.25 Q992.04 1486.25 988.962 1481.67 Q985.906 1477.06 985.906 1468.33 Q985.906 1459.58 988.962 1455 Q992.04 1450.39 997.85 1450.39 Z" fill="#000000" fill-rule="nonzero" fill-opacity="1" /><path clip-path="url(#clip510)" d="M1028.01 1454.1 Q1024.4 1454.1 1022.57 1457.66 Q1020.77 1461.2 1020.77 1468.33 Q1020.77 1475.44 1022.57 1479.01 Q1024.4 1482.55 1028.01 1482.55 Q1031.65 1482.55 1033.45 1479.01 Q1035.28 1475.44 1035.28 1468.33 Q1035.28 1461.2 1033.45 1457.66 Q1031.65 1454.1 1028.01 1454.1 M1028.01 1450.39 Q1033.82 1450.39 1036.88 1455 Q1039.96 1459.58 1039.96 1468.33 Q1039.96 1477.06 1036.88 1481.67 Q1033.82 1486.25 1028.01 1486.25 Q1022.2 1486.25 1019.12 1481.67 Q1016.07 1477.06 1016.07 1468.33 Q1016.07 1459.58 1019.12 1455 Q1022.2 1450.39 1028.01 1450.39 Z" fill="#000000" fill-rule="nonzero" fill-opacity="1" /><path clip-path="url(#clip510)" d="M1556.37 1481.64 L1572.69 1481.64 L1572.69 1485.58 L1550.75 1485.58 L1550.75 1481.64 Q1553.41 1478.89 1557.99 1474.26 Q1562.6 1469.61 1563.78 1468.27 Q1566.02 1465.74 1566.9 1464.01 Q1567.81 1462.25 1567.81 1460.56 Q1567.81 1457.8 1565.86 1456.07 Q1563.94 1454.33 1560.84 1454.33 Q1558.64 1454.33 1556.19 1455.09 Q1553.76 1455.86 1550.98 1457.41 L1550.98 1452.69 Q1553.8 1451.55 1556.26 1450.97 Q1558.71 1450.39 1560.75 1450.39 Q1566.12 1450.39 1569.31 1453.08 Q1572.51 1455.77 1572.51 1460.26 Q1572.51 1462.39 1571.7 1464.31 Q1570.91 1466.2 1568.8 1468.8 Q1568.22 1469.47 1565.12 1472.69 Q1562.02 1475.88 1556.37 1481.64 Z" fill="#000000" fill-rule="nonzero" fill-opacity="1" /><path clip-path="url(#clip510)" d="M1592.51 1454.1 Q1588.89 1454.1 1587.07 1457.66 Q1585.26 1461.2 1585.26 1468.33 Q1585.26 1475.44 1587.07 1479.01 Q1588.89 1482.55 1592.51 1482.55 Q1596.14 1482.55 1597.95 1479.01 Q1599.77 1475.44 1599.77 1468.33 Q1599.77 1461.2 1597.95 1457.66 Q1596.14 1454.1 1592.51 1454.1 M1592.51 1450.39 Q1598.32 1450.39 1601.37 1455 Q1604.45 1459.58 1604.45 1468.33 Q1604.45 1477.06 1601.37 1481.67 Q1598.32 1486.25 1592.51 1486.25 Q1586.7 1486.25 1583.62 1481.67 Q1580.56 1477.06 1580.56 1468.33 Q1580.56 1459.58 1583.62 1455 Q1586.7 1450.39 1592.51 1450.39 Z" fill="#000000" fill-rule="nonzero" fill-opacity="1" /><path clip-path="url(#clip510)" d="M1622.67 1454.1 Q1619.06 1454.1 1617.23 1457.66 Q1615.42 1461.2 1615.42 1468.33 Q1615.42 1475.44 1617.23 1479.01 Q1619.06 1482.55 1622.67 1482.55 Q1626.3 1482.55 1628.11 1479.01 Q1629.94 1475.44 1629.94 1468.33 Q1629.94 1461.2 1628.11 1457.66 Q1626.3 1454.1 1622.67 1454.1 M1622.67 1450.39 Q1628.48 1450.39 1631.53 1455 Q1634.61 1459.58 1634.61 1468.33 Q1634.61 1477.06 1631.53 1481.67 Q1628.48 1486.25 1622.67 1486.25 Q1616.86 1486.25 1613.78 1481.67 Q1610.72 1477.06 1610.72 1468.33 Q1610.72 1459.58 1613.78 1455 Q1616.86 1450.39 1622.67 1450.39 Z" fill="#000000" fill-rule="nonzero" fill-opacity="1" /><path clip-path="url(#clip510)" d="M1652.83 1454.1 Q1649.22 1454.1 1647.39 1457.66 Q1645.58 1461.2 1645.58 1468.33 Q1645.58 1475.44 1647.39 1479.01 Q1649.22 1482.55 1652.83 1482.55 Q1656.46 1482.55 1658.27 1479.01 Q1660.1 1475.44 1660.1 1468.33 Q1660.1 1461.2 1658.27 1457.66 Q1656.46 1454.1 1652.83 1454.1 M1652.83 1450.39 Q1658.64 1450.39 1661.7 1455 Q1664.77 1459.58 1664.77 1468.33 Q1664.77 1477.06 1661.7 1481.67 Q1658.64 1486.25 1652.83 1486.25 Q1647.02 1486.25 1643.94 1481.67 Q1640.89 1477.06 1640.89 1468.33 Q1640.89 1459.58 1643.94 1455 Q1647.02 1450.39 1652.83 1450.39 Z" fill="#000000" fill-rule="nonzero" fill-opacity="1" /><path clip-path="url(#clip510)" d="M2190.39 1466.95 Q2193.75 1467.66 2195.62 1469.93 Q2197.52 1472.2 2197.52 1475.53 Q2197.52 1480.65 2194 1483.45 Q2190.48 1486.25 2184 1486.25 Q2181.83 1486.25 2179.51 1485.81 Q2177.22 1485.39 2174.77 1484.54 L2174.77 1480.02 Q2176.71 1481.16 2179.02 1481.74 Q2181.34 1482.32 2183.86 1482.32 Q2188.26 1482.32 2190.55 1480.58 Q2192.87 1478.84 2192.87 1475.53 Q2192.87 1472.48 2190.71 1470.77 Q2188.58 1469.03 2184.77 1469.03 L2180.74 1469.03 L2180.74 1465.19 L2184.95 1465.19 Q2188.4 1465.19 2190.23 1463.82 Q2192.06 1462.43 2192.06 1459.84 Q2192.06 1457.18 2190.16 1455.77 Q2188.28 1454.33 2184.77 1454.33 Q2182.84 1454.33 2180.65 1454.75 Q2178.45 1455.16 2175.81 1456.04 L2175.81 1451.88 Q2178.47 1451.14 2180.78 1450.77 Q2183.12 1450.39 2185.18 1450.39 Q2190.51 1450.39 2193.61 1452.83 Q2196.71 1455.23 2196.71 1459.35 Q2196.71 1462.22 2195.07 1464.21 Q2193.42 1466.18 2190.39 1466.95 Z" fill="#000000" fill-rule="nonzero" fill-opacity="1" /><path clip-path="url(#clip510)" d="M2216.39 1454.1 Q2212.77 1454.1 2210.95 1457.66 Q2209.14 1461.2 2209.14 1468.33 Q2209.14 1475.44 2210.95 1479.01 Q2212.77 1482.55 2216.39 1482.55 Q2220.02 1482.55 2221.83 1479.01 Q2223.65 1475.44 2223.65 1468.33 Q2223.65 1461.2 2221.83 1457.66 Q2220.02 1454.1 2216.39 1454.1 M2216.39 1450.39 Q2222.2 1450.39 2225.25 1455 Q2228.33 1459.58 2228.33 1468.33 Q2228.33 1477.06 2225.25 1481.67 Q2222.2 1486.25 2216.39 1486.25 Q2210.58 1486.25 2207.5 1481.67 Q2204.44 1477.06 2204.44 1468.33 Q2204.44 1459.58 2207.5 1455 Q2210.58 1450.39 2216.39 1450.39 Z" fill="#000000" fill-rule="nonzero" fill-opacity="1" /><path clip-path="url(#clip510)" d="M2246.55 1454.1 Q2242.94 1454.1 2241.11 1457.66 Q2239.3 1461.2 2239.3 1468.33 Q2239.3 1475.44 2241.11 1479.01 Q2242.94 1482.55 2246.55 1482.55 Q2250.18 1482.55 2251.99 1479.01 Q2253.82 1475.44 2253.82 1468.33 Q2253.82 1461.2 2251.99 1457.66 Q2250.18 1454.1 2246.55 1454.1 M2246.55 1450.39 Q2252.36 1450.39 2255.41 1455 Q2258.49 1459.58 2258.49 1468.33 Q2258.49 1477.06 2255.41 1481.67 Q2252.36 1486.25 2246.55 1486.25 Q2240.74 1486.25 2237.66 1481.67 Q2234.6 1477.06 2234.6 1468.33 Q2234.6 1459.58 2237.66 1455 Q2240.74 1450.39 2246.55 1450.39 Z" fill="#000000" fill-rule="nonzero" fill-opacity="1" /><path clip-path="url(#clip510)" d="M2276.71 1454.1 Q2273.1 1454.1 2271.27 1457.66 Q2269.46 1461.2 2269.46 1468.33 Q2269.46 1475.44 2271.27 1479.01 Q2273.1 1482.55 2276.71 1482.55 Q2280.34 1482.55 2282.15 1479.01 Q2283.98 1475.44 2283.98 1468.33 Q2283.98 1461.2 2282.15 1457.66 Q2280.34 1454.1 2276.71 1454.1 M2276.71 1450.39 Q2282.52 1450.39 2285.58 1455 Q2288.65 1459.58 2288.65 1468.33 Q2288.65 1477.06 2285.58 1481.67 Q2282.52 1486.25 2276.71 1486.25 Q2270.9 1486.25 2267.82 1481.67 Q2264.77 1477.06 2264.77 1468.33 Q2264.77 1459.58 2267.82 1455 Q2270.9 1450.39 2276.71 1450.39 Z" fill="#000000" fill-rule="nonzero" fill-opacity="1" /><path clip-path="url(#clip510)" d="M1195.33 1520.52 L1201.76 1520.52 L1201.76 1568.04 L1195.33 1568.04 L1195.33 1520.52 Z" fill="#000000" fill-rule="nonzero" fill-opacity="1" /><path clip-path="url(#clip510)" d="M1220.09 1522.27 L1220.09 1532.4 L1232.15 1532.4 L1232.15 1536.95 L1220.09 1536.95 L1220.09 1556.3 Q1220.09 1560.66 1221.27 1561.9 Q1222.48 1563.14 1226.14 1563.14 L1232.15 1563.14 L1232.15 1568.04 L1226.14 1568.04 Q1219.36 1568.04 1216.78 1565.53 Q1214.2 1562.98 1214.2 1556.3 L1214.2 1536.95 L1209.91 1536.95 L1209.91 1532.4 L1214.2 1532.4 L1214.2 1522.27 L1220.09 1522.27 Z" fill="#000000" fill-rule="nonzero" fill-opacity="1" /><path clip-path="url(#clip510)" d="M1270.35 1548.76 L1270.35 1551.62 L1243.42 1551.62 Q1243.8 1557.67 1247.05 1560.85 Q1250.33 1564 1256.15 1564 Q1259.53 1564 1262.68 1563.17 Q1265.86 1562.35 1268.98 1560.69 L1268.98 1566.23 Q1265.83 1567.57 1262.52 1568.27 Q1259.21 1568.97 1255.8 1568.97 Q1247.27 1568.97 1242.27 1564 Q1237.31 1559.04 1237.31 1550.57 Q1237.31 1541.82 1242.02 1536.69 Q1246.76 1531.54 1254.78 1531.54 Q1261.98 1531.54 1266.15 1536.18 Q1270.35 1540.8 1270.35 1548.76 M1264.49 1547.04 Q1264.43 1542.23 1261.79 1539.37 Q1259.18 1536.5 1254.85 1536.5 Q1249.95 1536.5 1246.99 1539.27 Q1244.06 1542.04 1243.61 1547.07 L1264.49 1547.04 Z" fill="#000000" fill-rule="nonzero" fill-opacity="1" /><path clip-path="url(#clip510)" d="M1300.62 1537.87 Q1299.63 1537.3 1298.45 1537.04 Q1297.31 1536.76 1295.91 1536.76 Q1290.94 1536.76 1288.27 1540 Q1285.63 1543.22 1285.63 1549.27 L1285.63 1568.04 L1279.74 1568.04 L1279.74 1532.4 L1285.63 1532.4 L1285.63 1537.93 Q1287.47 1534.69 1290.43 1533.13 Q1293.39 1531.54 1297.62 1531.54 Q1298.23 1531.54 1298.96 1531.63 Q1299.69 1531.7 1300.58 1531.85 L1300.62 1537.87 Z" fill="#000000" fill-rule="nonzero" fill-opacity="1" /><path clip-path="url(#clip510)" d="M1322.96 1550.12 Q1315.86 1550.12 1313.13 1551.75 Q1310.39 1553.37 1310.39 1557.29 Q1310.39 1560.4 1312.42 1562.25 Q1314.49 1564.07 1318.03 1564.07 Q1322.9 1564.07 1325.82 1560.63 Q1328.78 1557.16 1328.78 1551.43 L1328.78 1550.12 L1322.96 1550.12 M1334.64 1547.71 L1334.64 1568.04 L1328.78 1568.04 L1328.78 1562.63 Q1326.78 1565.88 1323.79 1567.44 Q1320.8 1568.97 1316.47 1568.97 Q1310.99 1568.97 1307.75 1565.91 Q1304.53 1562.82 1304.53 1557.67 Q1304.53 1551.65 1308.54 1548.6 Q1312.58 1545.54 1320.57 1545.54 L1328.78 1545.54 L1328.78 1544.97 Q1328.78 1540.93 1326.11 1538.73 Q1323.47 1536.5 1318.66 1536.5 Q1315.61 1536.5 1312.71 1537.23 Q1309.82 1537.97 1307.14 1539.43 L1307.14 1534.02 Q1310.36 1532.78 1313.38 1532.17 Q1316.4 1531.54 1319.27 1531.54 Q1327 1531.54 1330.82 1535.55 Q1334.64 1539.56 1334.64 1547.71 Z" fill="#000000" fill-rule="nonzero" fill-opacity="1" /><path clip-path="url(#clip510)" d="M1352.5 1522.27 L1352.5 1532.4 L1364.56 1532.4 L1364.56 1536.95 L1352.5 1536.95 L1352.5 1556.3 Q1352.5 1560.66 1353.67 1561.9 Q1354.88 1563.14 1358.54 1563.14 L1364.56 1563.14 L1364.56 1568.04 L1358.54 1568.04 Q1351.77 1568.04 1349.19 1565.53 Q1346.61 1562.98 1346.61 1556.3 L1346.61 1536.95 L1342.31 1536.95 L1342.31 1532.4 L1346.61 1532.4 L1346.61 1522.27 L1352.5 1522.27 Z" fill="#000000" fill-rule="nonzero" fill-opacity="1" /><path clip-path="url(#clip510)" d="M1372.26 1532.4 L1378.12 1532.4 L1378.12 1568.04 L1372.26 1568.04 L1372.26 1532.4 M1372.26 1518.52 L1378.12 1518.52 L1378.12 1525.93 L1372.26 1525.93 L1372.26 1518.52 Z" fill="#000000" fill-rule="nonzero" fill-opacity="1" /><path clip-path="url(#clip510)" d="M1404.19 1536.5 Q1399.48 1536.5 1396.74 1540.19 Q1394 1543.85 1394 1550.25 Q1394 1556.65 1396.71 1560.34 Q1399.44 1564 1404.19 1564 Q1408.87 1564 1411.6 1560.31 Q1414.34 1556.62 1414.34 1550.25 Q1414.34 1543.92 1411.6 1540.23 Q1408.87 1536.5 1404.19 1536.5 M1404.19 1531.54 Q1411.83 1531.54 1416.19 1536.5 Q1420.55 1541.47 1420.55 1550.25 Q1420.55 1559 1416.19 1564 Q1411.83 1568.97 1404.19 1568.97 Q1396.52 1568.97 1392.16 1564 Q1387.83 1559 1387.83 1550.25 Q1387.83 1541.47 1392.16 1536.5 Q1396.52 1531.54 1404.19 1531.54 Z" fill="#000000" fill-rule="nonzero" fill-opacity="1" /><path clip-path="url(#clip510)" d="M1459.89 1546.53 L1459.89 1568.04 L1454.03 1568.04 L1454.03 1546.72 Q1454.03 1541.66 1452.06 1539.14 Q1450.08 1536.63 1446.14 1536.63 Q1441.39 1536.63 1438.66 1539.65 Q1435.92 1542.68 1435.92 1547.9 L1435.92 1568.04 L1430.03 1568.04 L1430.03 1532.4 L1435.92 1532.4 L1435.92 1537.93 Q1438.02 1534.72 1440.85 1533.13 Q1443.72 1531.54 1447.44 1531.54 Q1453.58 1531.54 1456.74 1535.36 Q1459.89 1539.14 1459.89 1546.53 Z" fill="#000000" fill-rule="nonzero" fill-opacity="1" /><polyline clip-path="url(#clip510)" style="stroke:#000000; stroke-linecap:round; stroke-linejoin:round; stroke-width:4; stroke-opacity:1; fill:none" points="302.458,1423.18 302.458,47.2441 "/>
<polyline clip-path="url(#clip510)" style="stroke:#000000; stroke-linecap:round; stroke-linejoin:round; stroke-width:4; stroke-opacity:1; fill:none" points="302.458,1285.14 321.356,1285.14 "/>
<polyline clip-path="url(#clip510)" style="stroke:#000000; stroke-linecap:round; stroke-linejoin:round; stroke-width:4; stroke-opacity:1; fill:none" points="302.458,967.369 321.356,967.369 "/>
<polyline clip-path="url(#clip510)" style="stroke:#000000; stroke-linecap:round; stroke-linejoin:round; stroke-width:4; stroke-opacity:1; fill:none" points="302.458,649.595 321.356,649.595 "/>
<polyline clip-path="url(#clip510)" style="stroke:#000000; stroke-linecap:round; stroke-linejoin:round; stroke-width:4; stroke-opacity:1; fill:none" points="302.458,331.82 321.356,331.82 "/>
<path clip-path="url(#clip510)" d="M114.26 1285.59 L143.936 1285.59 L143.936 1289.53 L114.26 1289.53 L114.26 1285.59 Z" fill="#000000" fill-rule="nonzero" fill-opacity="1" /><path clip-path="url(#clip510)" d="M152.848 1267.86 L175.07 1267.86 L175.07 1269.85 L162.524 1302.42 L157.64 1302.42 L169.445 1271.8 L152.848 1271.8 L152.848 1267.86 Z" fill="#000000" fill-rule="nonzero" fill-opacity="1" /><path clip-path="url(#clip510)" d="M184.237 1267.86 L202.593 1267.86 L202.593 1271.8 L188.519 1271.8 L188.519 1280.27 Q189.538 1279.92 190.556 1279.76 Q191.575 1279.58 192.593 1279.58 Q198.38 1279.58 201.76 1282.75 Q205.139 1285.92 205.139 1291.34 Q205.139 1296.91 201.667 1300.02 Q198.195 1303.09 191.875 1303.09 Q189.7 1303.09 187.431 1302.72 Q185.186 1302.35 182.778 1301.61 L182.778 1296.91 Q184.862 1298.05 187.084 1298.6 Q189.306 1299.16 191.783 1299.16 Q195.787 1299.16 198.125 1297.05 Q200.463 1294.95 200.463 1291.34 Q200.463 1287.72 198.125 1285.62 Q195.787 1283.51 191.783 1283.51 Q189.908 1283.51 188.033 1283.93 Q186.181 1284.34 184.237 1285.22 L184.237 1267.86 Z" fill="#000000" fill-rule="nonzero" fill-opacity="1" /><path clip-path="url(#clip510)" d="M224.352 1270.94 Q220.741 1270.94 218.912 1274.51 Q217.107 1278.05 217.107 1285.18 Q217.107 1292.28 218.912 1295.85 Q220.741 1299.39 224.352 1299.39 Q227.986 1299.39 229.792 1295.85 Q231.621 1292.28 231.621 1285.18 Q231.621 1278.05 229.792 1274.51 Q227.986 1270.94 224.352 1270.94 M224.352 1267.24 Q230.162 1267.24 233.218 1271.85 Q236.297 1276.43 236.297 1285.18 Q236.297 1293.91 233.218 1298.51 Q230.162 1303.09 224.352 1303.09 Q218.542 1303.09 215.463 1298.51 Q212.408 1293.91 212.408 1285.18 Q212.408 1276.43 215.463 1271.85 Q218.542 1267.24 224.352 1267.24 Z" fill="#000000" fill-rule="nonzero" fill-opacity="1" /><path clip-path="url(#clip510)" d="M254.514 1270.94 Q250.903 1270.94 249.074 1274.51 Q247.269 1278.05 247.269 1285.18 Q247.269 1292.28 249.074 1295.85 Q250.903 1299.39 254.514 1299.39 Q258.148 1299.39 259.954 1295.85 Q261.783 1292.28 261.783 1285.18 Q261.783 1278.05 259.954 1274.51 Q258.148 1270.94 254.514 1270.94 M254.514 1267.24 Q260.324 1267.24 263.38 1271.85 Q266.458 1276.43 266.458 1285.18 Q266.458 1293.91 263.38 1298.51 Q260.324 1303.09 254.514 1303.09 Q248.704 1303.09 245.625 1298.51 Q242.57 1293.91 242.57 1285.18 Q242.57 1276.43 245.625 1271.85 Q248.704 1267.24 254.514 1267.24 Z" fill="#000000" fill-rule="nonzero" fill-opacity="1" /><path clip-path="url(#clip510)" d="M114.26 967.821 L143.936 967.821 L143.936 971.756 L114.26 971.756 L114.26 967.821 Z" fill="#000000" fill-rule="nonzero" fill-opacity="1" /><path clip-path="url(#clip510)" d="M152.848 950.089 L175.07 950.089 L175.07 952.08 L162.524 984.649 L157.64 984.649 L169.445 954.024 L152.848 954.024 L152.848 950.089 Z" fill="#000000" fill-rule="nonzero" fill-opacity="1" /><path clip-path="url(#clip510)" d="M194.19 953.168 Q190.579 953.168 188.75 956.733 Q186.945 960.274 186.945 967.404 Q186.945 974.51 188.75 978.075 Q190.579 981.617 194.19 981.617 Q197.825 981.617 199.63 978.075 Q201.459 974.51 201.459 967.404 Q201.459 960.274 199.63 956.733 Q197.825 953.168 194.19 953.168 M194.19 949.464 Q200 949.464 203.056 954.071 Q206.135 958.654 206.135 967.404 Q206.135 976.131 203.056 980.737 Q200 985.32 194.19 985.32 Q188.38 985.32 185.301 980.737 Q182.246 976.131 182.246 967.404 Q182.246 958.654 185.301 954.071 Q188.38 949.464 194.19 949.464 Z" fill="#000000" fill-rule="nonzero" fill-opacity="1" /><path clip-path="url(#clip510)" d="M224.352 953.168 Q220.741 953.168 218.912 956.733 Q217.107 960.274 217.107 967.404 Q217.107 974.51 218.912 978.075 Q220.741 981.617 224.352 981.617 Q227.986 981.617 229.792 978.075 Q231.621 974.51 231.621 967.404 Q231.621 960.274 229.792 956.733 Q227.986 953.168 224.352 953.168 M224.352 949.464 Q230.162 949.464 233.218 954.071 Q236.297 958.654 236.297 967.404 Q236.297 976.131 233.218 980.737 Q230.162 985.32 224.352 985.32 Q218.542 985.32 215.463 980.737 Q212.408 976.131 212.408 967.404 Q212.408 958.654 215.463 954.071 Q218.542 949.464 224.352 949.464 Z" fill="#000000" fill-rule="nonzero" fill-opacity="1" /><path clip-path="url(#clip510)" d="M254.514 953.168 Q250.903 953.168 249.074 956.733 Q247.269 960.274 247.269 967.404 Q247.269 974.51 249.074 978.075 Q250.903 981.617 254.514 981.617 Q258.148 981.617 259.954 978.075 Q261.783 974.51 261.783 967.404 Q261.783 960.274 259.954 956.733 Q258.148 953.168 254.514 953.168 M254.514 949.464 Q260.324 949.464 263.38 954.071 Q266.458 958.654 266.458 967.404 Q266.458 976.131 263.38 980.737 Q260.324 985.32 254.514 985.32 Q248.704 985.32 245.625 980.737 Q242.57 976.131 242.57 967.404 Q242.57 958.654 245.625 954.071 Q248.704 949.464 254.514 949.464 Z" fill="#000000" fill-rule="nonzero" fill-opacity="1" /><path clip-path="url(#clip510)" d="M114.26 650.046 L143.936 650.046 L143.936 653.981 L114.26 653.981 L114.26 650.046 Z" fill="#000000" fill-rule="nonzero" fill-opacity="1" /><path clip-path="url(#clip510)" d="M164.607 647.731 Q161.459 647.731 159.607 649.884 Q157.778 652.037 157.778 655.787 Q157.778 659.514 159.607 661.69 Q161.459 663.842 164.607 663.842 Q167.755 663.842 169.584 661.69 Q171.436 659.514 171.436 655.787 Q171.436 652.037 169.584 649.884 Q167.755 647.731 164.607 647.731 M173.889 633.079 L173.889 637.338 Q172.13 636.504 170.325 636.065 Q168.542 635.625 166.783 635.625 Q162.153 635.625 159.7 638.75 Q157.269 641.875 156.922 648.194 Q158.288 646.18 160.348 645.116 Q162.408 644.028 164.885 644.028 Q170.093 644.028 173.102 647.199 Q176.135 650.347 176.135 655.787 Q176.135 661.111 172.987 664.328 Q169.839 667.546 164.607 667.546 Q158.612 667.546 155.44 662.963 Q152.269 658.356 152.269 649.629 Q152.269 641.435 156.158 636.574 Q160.047 631.69 166.598 631.69 Q168.357 631.69 170.139 632.037 Q171.945 632.384 173.889 633.079 Z" fill="#000000" fill-rule="nonzero" fill-opacity="1" /><path clip-path="url(#clip510)" d="M184.237 632.315 L202.593 632.315 L202.593 636.25 L188.519 636.25 L188.519 644.722 Q189.538 644.375 190.556 644.213 Q191.575 644.028 192.593 644.028 Q198.38 644.028 201.76 647.199 Q205.139 650.37 205.139 655.787 Q205.139 661.365 201.667 664.467 Q198.195 667.546 191.875 667.546 Q189.7 667.546 187.431 667.176 Q185.186 666.805 182.778 666.064 L182.778 661.365 Q184.862 662.5 187.084 663.055 Q189.306 663.611 191.783 663.611 Q195.787 663.611 198.125 661.504 Q200.463 659.398 200.463 655.787 Q200.463 652.176 198.125 650.069 Q195.787 647.963 191.783 647.963 Q189.908 647.963 188.033 648.379 Q186.181 648.796 184.237 649.676 L184.237 632.315 Z" fill="#000000" fill-rule="nonzero" fill-opacity="1" /><path clip-path="url(#clip510)" d="M224.352 635.393 Q220.741 635.393 218.912 638.958 Q217.107 642.5 217.107 649.629 Q217.107 656.736 218.912 660.301 Q220.741 663.842 224.352 663.842 Q227.986 663.842 229.792 660.301 Q231.621 656.736 231.621 649.629 Q231.621 642.5 229.792 638.958 Q227.986 635.393 224.352 635.393 M224.352 631.69 Q230.162 631.69 233.218 636.296 Q236.297 640.879 236.297 649.629 Q236.297 658.356 233.218 662.963 Q230.162 667.546 224.352 667.546 Q218.542 667.546 215.463 662.963 Q212.408 658.356 212.408 649.629 Q212.408 640.879 215.463 636.296 Q218.542 631.69 224.352 631.69 Z" fill="#000000" fill-rule="nonzero" fill-opacity="1" /><path clip-path="url(#clip510)" d="M254.514 635.393 Q250.903 635.393 249.074 638.958 Q247.269 642.5 247.269 649.629 Q247.269 656.736 249.074 660.301 Q250.903 663.842 254.514 663.842 Q258.148 663.842 259.954 660.301 Q261.783 656.736 261.783 649.629 Q261.783 642.5 259.954 638.958 Q258.148 635.393 254.514 635.393 M254.514 631.69 Q260.324 631.69 263.38 636.296 Q266.458 640.879 266.458 649.629 Q266.458 658.356 263.38 662.963 Q260.324 667.546 254.514 667.546 Q248.704 667.546 245.625 662.963 Q242.57 658.356 242.57 649.629 Q242.57 640.879 245.625 636.296 Q248.704 631.69 254.514 631.69 Z" fill="#000000" fill-rule="nonzero" fill-opacity="1" /><path clip-path="url(#clip510)" d="M114.26 332.272 L143.936 332.272 L143.936 336.207 L114.26 336.207 L114.26 332.272 Z" fill="#000000" fill-rule="nonzero" fill-opacity="1" /><path clip-path="url(#clip510)" d="M164.607 329.957 Q161.459 329.957 159.607 332.11 Q157.778 334.262 157.778 338.012 Q157.778 341.739 159.607 343.915 Q161.459 346.068 164.607 346.068 Q167.755 346.068 169.584 343.915 Q171.436 341.739 171.436 338.012 Q171.436 334.262 169.584 332.11 Q167.755 329.957 164.607 329.957 M173.889 315.304 L173.889 319.563 Q172.13 318.73 170.325 318.29 Q168.542 317.85 166.783 317.85 Q162.153 317.85 159.7 320.975 Q157.269 324.1 156.922 330.42 Q158.288 328.406 160.348 327.341 Q162.408 326.253 164.885 326.253 Q170.093 326.253 173.102 329.424 Q176.135 332.573 176.135 338.012 Q176.135 343.336 172.987 346.554 Q169.839 349.772 164.607 349.772 Q158.612 349.772 155.44 345.188 Q152.269 340.582 152.269 331.855 Q152.269 323.661 156.158 318.799 Q160.047 313.915 166.598 313.915 Q168.357 313.915 170.139 314.262 Q171.945 314.61 173.889 315.304 Z" fill="#000000" fill-rule="nonzero" fill-opacity="1" /><path clip-path="url(#clip510)" d="M194.19 317.619 Q190.579 317.619 188.75 321.184 Q186.945 324.725 186.945 331.855 Q186.945 338.961 188.75 342.526 Q190.579 346.068 194.19 346.068 Q197.825 346.068 199.63 342.526 Q201.459 338.961 201.459 331.855 Q201.459 324.725 199.63 321.184 Q197.825 317.619 194.19 317.619 M194.19 313.915 Q200 313.915 203.056 318.522 Q206.135 323.105 206.135 331.855 Q206.135 340.582 203.056 345.188 Q200 349.772 194.19 349.772 Q188.38 349.772 185.301 345.188 Q182.246 340.582 182.246 331.855 Q182.246 323.105 185.301 318.522 Q188.38 313.915 194.19 313.915 Z" fill="#000000" fill-rule="nonzero" fill-opacity="1" /><path clip-path="url(#clip510)" d="M224.352 317.619 Q220.741 317.619 218.912 321.184 Q217.107 324.725 217.107 331.855 Q217.107 338.961 218.912 342.526 Q220.741 346.068 224.352 346.068 Q227.986 346.068 229.792 342.526 Q231.621 338.961 231.621 331.855 Q231.621 324.725 229.792 321.184 Q227.986 317.619 224.352 317.619 M224.352 313.915 Q230.162 313.915 233.218 318.522 Q236.297 323.105 236.297 331.855 Q236.297 340.582 233.218 345.188 Q230.162 349.772 224.352 349.772 Q218.542 349.772 215.463 345.188 Q212.408 340.582 212.408 331.855 Q212.408 323.105 215.463 318.522 Q218.542 313.915 224.352 313.915 Z" fill="#000000" fill-rule="nonzero" fill-opacity="1" /><path clip-path="url(#clip510)" d="M254.514 317.619 Q250.903 317.619 249.074 321.184 Q247.269 324.725 247.269 331.855 Q247.269 338.961 249.074 342.526 Q250.903 346.068 254.514 346.068 Q258.148 346.068 259.954 342.526 Q261.783 338.961 261.783 331.855 Q261.783 324.725 259.954 321.184 Q258.148 317.619 254.514 317.619 M254.514 313.915 Q260.324 313.915 263.38 318.522 Q266.458 323.105 266.458 331.855 Q266.458 340.582 263.38 345.188 Q260.324 349.772 254.514 349.772 Q248.704 349.772 245.625 345.188 Q242.57 340.582 242.57 331.855 Q242.57 323.105 245.625 318.522 Q248.704 313.915 254.514 313.915 Z" fill="#000000" fill-rule="nonzero" fill-opacity="1" /><path clip-path="url(#clip510)" d="M16.4842 816.375 L16.4842 786.329 L21.895 786.329 L21.895 809.945 L35.9632 809.945 L35.9632 787.315 L41.3741 787.315 L41.3741 809.945 L58.5933 809.945 L58.5933 785.756 L64.0042 785.756 L64.0042 816.375 L16.4842 816.375 Z" fill="#000000" fill-rule="nonzero" fill-opacity="1" /><path clip-path="url(#clip510)" d="M16.4842 775.189 L16.4842 768.759 L58.5933 768.759 L58.5933 745.62 L64.0042 745.62 L64.0042 775.189 L16.4842 775.189 Z" fill="#000000" fill-rule="nonzero" fill-opacity="1" /><path clip-path="url(#clip510)" d="M41.3104 732.443 L58.7206 732.443 L58.7206 722.13 Q58.7206 716.942 56.5881 714.46 Q54.4238 711.945 49.9996 711.945 Q45.5436 711.945 43.4429 714.46 Q41.3104 716.942 41.3104 722.13 L41.3104 732.443 M21.7677 732.443 L36.0905 732.443 L36.0905 722.926 Q36.0905 718.216 34.34 715.924 Q32.5576 713.6 28.9291 713.6 Q25.3325 713.6 23.5501 715.924 Q21.7677 718.216 21.7677 722.926 L21.7677 732.443 M16.4842 738.872 L16.4842 722.449 Q16.4842 715.096 19.5397 711.118 Q22.5952 707.139 28.2289 707.139 Q32.5894 707.139 35.1675 709.176 Q37.7456 711.213 38.3822 715.16 Q39.4007 710.418 42.6472 707.808 Q45.8619 705.166 50.6998 705.166 Q57.0655 705.166 60.5348 709.495 Q64.0042 713.823 64.0042 721.812 L64.0042 738.872 L16.4842 738.872 Z" fill="#000000" fill-rule="nonzero" fill-opacity="1" /><path clip-path="url(#clip510)" d="M20.8447 676.011 Q20.8447 683.013 26.0645 687.151 Q31.2844 691.257 40.2919 691.257 Q49.2675 691.257 54.4874 687.151 Q59.7073 683.013 59.7073 676.011 Q59.7073 669.009 54.4874 664.935 Q49.2675 660.829 40.2919 660.829 Q31.2844 660.829 26.0645 664.935 Q20.8447 669.009 20.8447 676.011 M15.6248 676.011 Q15.6248 666.017 22.3406 660.033 Q29.0246 654.049 40.2919 654.049 Q51.5274 654.049 58.2432 660.033 Q64.9272 666.017 64.9272 676.011 Q64.9272 686.037 58.2432 692.052 Q51.5592 698.036 40.2919 698.036 Q29.0246 698.036 22.3406 692.052 Q15.6248 686.037 15.6248 676.011 Z" fill="#000000" fill-rule="nonzero" fill-opacity="1" /><polyline clip-path="url(#clip512)" style="stroke:#009af9; stroke-linecap:round; stroke-linejoin:round; stroke-width:4; stroke-opacity:1; fill:none" points="360.486,1374.28 422.881,1068.05 485.276,942.816 547.671,892.83 610.065,771.232 672.46,741.964 734.855,686.01 797.25,673.941 859.645,648.057 922.04,615.654 984.435,593.928 1046.83,565.657 1109.22,517.7 1171.62,501.604 1234.01,485.992 1296.41,457.878 1358.8,428.577 1421.2,411.423 1483.59,370.606 1545.99,345.086 1608.38,329.453 1670.78,301.224 1733.17,289.414 1795.57,266.195 1857.96,242.397 1920.36,213.48 1982.75,196.69 2045.15,182.216 2107.54,136.878 2169.94,124.547 2232.33,98.7274 2294.73,86.1857 "/>
<polyline clip-path="url(#clip512)" style="stroke:#e26f46; stroke-linecap:round; stroke-linejoin:round; stroke-width:4; stroke-opacity:1; fill:none" points="360.486,1384.24 422.881,1068.51 485.276,959.196 547.671,892.961 610.065,832.142 672.46,805.768 734.855,804.308 797.25,746.523 859.645,725.467 922.04,700.879 984.435,681.286 1046.83,667.444 1109.22,657.971 1171.62,630.585 1234.01,605.316 1296.41,583.54 1358.8,568.902 1421.2,555.59 1483.59,529.08 1545.99,502.2 1608.38,476.966 1670.78,460.902 1733.17,448.568 1795.57,447.868 1857.96,424.273 1920.36,415.662 1982.75,384.928 2045.15,364.122 2107.54,340.851 2169.94,319.245 2232.33,300.521 2294.73,276.713 "/>
<path clip-path="url(#clip510)" d="M370.802 248.629 L875.135 248.629 L875.135 93.1086 L370.802 93.1086  Z" fill="#ffffff" fill-rule="evenodd" fill-opacity="1"/>
<polyline clip-path="url(#clip510)" style="stroke:#000000; stroke-linecap:round; stroke-linejoin:round; stroke-width:4; stroke-opacity:1; fill:none" points="370.802,248.629 875.135,248.629 875.135,93.1086 370.802,93.1086 370.802,248.629 "/>
<polyline clip-path="url(#clip510)" style="stroke:#009af9; stroke-linecap:round; stroke-linejoin:round; stroke-width:4; stroke-opacity:1; fill:none" points="393.583,144.949 530.269,144.949 "/>
<path clip-path="url(#clip510)" d="M553.05 127.669 L572.911 127.669 L572.911 131.604 L557.726 131.604 L557.726 141.789 L571.43 141.789 L571.43 145.724 L557.726 145.724 L557.726 162.229 L553.05 162.229 L553.05 127.669 Z" fill="#000000" fill-rule="nonzero" fill-opacity="1" /><path clip-path="url(#clip510)" d="M577.101 151.997 L577.101 136.303 L581.36 136.303 L581.36 151.835 Q581.36 155.516 582.796 157.368 Q584.231 159.196 587.101 159.196 Q590.55 159.196 592.541 156.997 Q594.555 154.798 594.555 151.002 L594.555 136.303 L598.814 136.303 L598.814 162.229 L594.555 162.229 L594.555 158.247 Q593.004 160.608 590.944 161.766 Q588.907 162.9 586.198 162.9 Q581.731 162.9 579.416 160.122 Q577.101 157.344 577.101 151.997 M587.819 135.678 L587.819 135.678 Z" fill="#000000" fill-rule="nonzero" fill-opacity="1" /><path clip-path="url(#clip510)" d="M607.587 126.21 L611.846 126.21 L611.846 162.229 L607.587 162.229 L607.587 126.21 Z" fill="#000000" fill-rule="nonzero" fill-opacity="1" /><path clip-path="url(#clip510)" d="M620.758 126.21 L625.018 126.21 L625.018 162.229 L620.758 162.229 L620.758 126.21 Z" fill="#000000" fill-rule="nonzero" fill-opacity="1" /><path clip-path="url(#clip510)" d="M653.86 145.724 L653.86 158.386 L661.36 158.386 Q665.133 158.386 666.939 156.835 Q668.767 155.261 668.767 152.043 Q668.767 148.803 666.939 147.275 Q665.133 145.724 661.36 145.724 L653.86 145.724 M653.86 131.511 L653.86 141.928 L660.781 141.928 Q664.207 141.928 665.874 140.655 Q667.564 139.358 667.564 136.719 Q667.564 134.104 665.874 132.807 Q664.207 131.511 660.781 131.511 L653.86 131.511 M649.184 127.669 L661.128 127.669 Q666.476 127.669 669.369 129.891 Q672.263 132.113 672.263 136.21 Q672.263 139.382 670.781 141.257 Q669.3 143.131 666.429 143.594 Q669.878 144.335 671.777 146.696 Q673.698 149.034 673.698 152.553 Q673.698 157.182 670.55 159.705 Q667.402 162.229 661.591 162.229 L649.184 162.229 L649.184 127.669 Z" fill="#000000" fill-rule="nonzero" fill-opacity="1" /><path clip-path="url(#clip510)" d="M693.304 149.196 Q688.142 149.196 686.151 150.377 Q684.161 151.557 684.161 154.405 Q684.161 156.673 685.642 158.016 Q687.147 159.335 689.716 159.335 Q693.258 159.335 695.388 156.835 Q697.54 154.312 697.54 150.145 L697.54 149.196 L693.304 149.196 M701.8 147.437 L701.8 162.229 L697.54 162.229 L697.54 158.293 Q696.082 160.655 693.906 161.789 Q691.73 162.9 688.582 162.9 Q684.601 162.9 682.239 160.678 Q679.902 158.432 679.902 154.682 Q679.902 150.307 682.818 148.085 Q685.758 145.863 691.568 145.863 L697.54 145.863 L697.54 145.446 Q697.54 142.507 695.596 140.909 Q693.675 139.289 690.179 139.289 Q687.957 139.289 685.851 139.821 Q683.744 140.354 681.8 141.419 L681.8 137.483 Q684.138 136.581 686.337 136.141 Q688.536 135.678 690.619 135.678 Q696.244 135.678 699.022 138.594 Q701.8 141.511 701.8 147.437 Z" fill="#000000" fill-rule="nonzero" fill-opacity="1" /><path clip-path="url(#clip510)" d="M714.786 128.942 L714.786 136.303 L723.559 136.303 L723.559 139.613 L714.786 139.613 L714.786 153.687 Q714.786 156.858 715.642 157.761 Q716.522 158.664 719.184 158.664 L723.559 158.664 L723.559 162.229 L719.184 162.229 Q714.253 162.229 712.378 160.4 Q710.503 158.548 710.503 153.687 L710.503 139.613 L707.378 139.613 L707.378 136.303 L710.503 136.303 L710.503 128.942 L714.786 128.942 Z" fill="#000000" fill-rule="nonzero" fill-opacity="1" /><path clip-path="url(#clip510)" d="M747.818 137.298 L747.818 141.28 Q746.012 140.284 744.184 139.798 Q742.378 139.289 740.526 139.289 Q736.383 139.289 734.091 141.928 Q731.799 144.544 731.799 149.289 Q731.799 154.034 734.091 156.673 Q736.383 159.289 740.526 159.289 Q742.378 159.289 744.184 158.803 Q746.012 158.293 747.818 157.298 L747.818 161.233 Q746.035 162.067 744.114 162.483 Q742.216 162.9 740.063 162.9 Q734.207 162.9 730.758 159.219 Q727.309 155.539 727.309 149.289 Q727.309 142.946 730.781 139.312 Q734.276 135.678 740.341 135.678 Q742.309 135.678 744.184 136.095 Q746.059 136.488 747.818 137.298 Z" fill="#000000" fill-rule="nonzero" fill-opacity="1" /><path clip-path="url(#clip510)" d="M776.776 146.581 L776.776 162.229 L772.517 162.229 L772.517 146.719 Q772.517 143.039 771.082 141.21 Q769.646 139.382 766.776 139.382 Q763.327 139.382 761.336 141.581 Q759.346 143.78 759.346 147.576 L759.346 162.229 L755.063 162.229 L755.063 126.21 L759.346 126.21 L759.346 140.331 Q760.873 137.993 762.933 136.835 Q765.017 135.678 767.725 135.678 Q772.193 135.678 774.484 138.456 Q776.776 141.21 776.776 146.581 Z" fill="#000000" fill-rule="nonzero" fill-opacity="1" /><polyline clip-path="url(#clip510)" style="stroke:#e26f46; stroke-linecap:round; stroke-linejoin:round; stroke-width:4; stroke-opacity:1; fill:none" points="393.583,196.789 530.269,196.789 "/>
<path clip-path="url(#clip510)" d="M575.296 180.643 L575.296 185.203 Q572.634 183.93 570.272 183.305 Q567.911 182.68 565.712 182.68 Q561.893 182.68 559.81 184.161 Q557.749 185.643 557.749 188.374 Q557.749 190.666 559.115 191.847 Q560.504 193.004 564.347 193.722 L567.171 194.3 Q572.402 195.296 574.879 197.819 Q577.379 200.319 577.379 204.532 Q577.379 209.555 573.999 212.147 Q570.643 214.74 564.138 214.74 Q561.685 214.74 558.907 214.184 Q556.152 213.629 553.189 212.541 L553.189 207.726 Q556.036 209.323 558.768 210.133 Q561.499 210.944 564.138 210.944 Q568.143 210.944 570.319 209.37 Q572.495 207.796 572.495 204.879 Q572.495 202.333 570.921 200.897 Q569.37 199.462 565.805 198.745 L562.958 198.189 Q557.726 197.147 555.388 194.925 Q553.05 192.703 553.05 188.745 Q553.05 184.161 556.268 181.522 Q559.509 178.884 565.18 178.884 Q567.61 178.884 570.134 179.323 Q572.657 179.763 575.296 180.643 Z" fill="#000000" fill-rule="nonzero" fill-opacity="1" /><path clip-path="url(#clip510)" d="M584.046 203.837 L584.046 188.143 L588.305 188.143 L588.305 203.675 Q588.305 207.356 589.74 209.208 Q591.175 211.036 594.045 211.036 Q597.495 211.036 599.485 208.837 Q601.499 206.638 601.499 202.842 L601.499 188.143 L605.758 188.143 L605.758 214.069 L601.499 214.069 L601.499 210.087 Q599.948 212.448 597.888 213.606 Q595.851 214.74 593.143 214.74 Q588.675 214.74 586.36 211.962 Q584.046 209.184 584.046 203.837 M594.763 187.518 L594.763 187.518 Z" fill="#000000" fill-rule="nonzero" fill-opacity="1" /><path clip-path="url(#clip510)" d="M633.142 201.129 Q633.142 196.43 631.198 193.768 Q629.277 191.083 625.897 191.083 Q622.518 191.083 620.573 193.768 Q618.652 196.43 618.652 201.129 Q618.652 205.828 620.573 208.513 Q622.518 211.175 625.897 211.175 Q629.277 211.175 631.198 208.513 Q633.142 205.828 633.142 201.129 M618.652 192.078 Q619.994 189.763 622.031 188.652 Q624.092 187.518 626.939 187.518 Q631.661 187.518 634.601 191.268 Q637.564 195.018 637.564 201.129 Q637.564 207.24 634.601 210.99 Q631.661 214.74 626.939 214.74 Q624.092 214.74 622.031 213.629 Q619.994 212.495 618.652 210.18 L618.652 214.069 L614.369 214.069 L614.369 178.05 L618.652 178.05 L618.652 192.078 Z" fill="#000000" fill-rule="nonzero" fill-opacity="1" /><path clip-path="url(#clip510)" d="M661.152 188.907 L661.152 192.934 Q659.346 192.009 657.402 191.546 Q655.457 191.083 653.374 191.083 Q650.203 191.083 648.605 192.055 Q647.031 193.027 647.031 194.971 Q647.031 196.453 648.166 197.309 Q649.3 198.143 652.726 198.907 L654.184 199.231 Q658.721 200.203 660.619 201.985 Q662.54 203.745 662.54 206.916 Q662.54 210.527 659.67 212.633 Q656.823 214.74 651.823 214.74 Q649.74 214.74 647.471 214.323 Q645.226 213.93 642.726 213.12 L642.726 208.721 Q645.087 209.948 647.379 210.573 Q649.67 211.175 651.916 211.175 Q654.925 211.175 656.545 210.157 Q658.166 209.115 658.166 207.24 Q658.166 205.504 656.985 204.578 Q655.828 203.652 651.869 202.796 L650.388 202.448 Q646.429 201.615 644.67 199.902 Q642.911 198.166 642.911 195.157 Q642.911 191.499 645.504 189.509 Q648.096 187.518 652.865 187.518 Q655.226 187.518 657.309 187.865 Q659.392 188.212 661.152 188.907 Z" fill="#000000" fill-rule="nonzero" fill-opacity="1" /><path clip-path="url(#clip510)" d="M681.105 201.036 Q675.943 201.036 673.952 202.217 Q671.962 203.397 671.962 206.245 Q671.962 208.513 673.443 209.856 Q674.948 211.175 677.517 211.175 Q681.059 211.175 683.189 208.675 Q685.341 206.152 685.341 201.985 L685.341 201.036 L681.105 201.036 M689.601 199.277 L689.601 214.069 L685.341 214.069 L685.341 210.133 Q683.883 212.495 681.707 213.629 Q679.531 214.74 676.383 214.74 Q672.402 214.74 670.04 212.518 Q667.702 210.272 667.702 206.522 Q667.702 202.147 670.619 199.925 Q673.559 197.703 679.369 197.703 L685.341 197.703 L685.341 197.286 Q685.341 194.347 683.397 192.749 Q681.476 191.129 677.98 191.129 Q675.758 191.129 673.652 191.661 Q671.545 192.194 669.601 193.259 L669.601 189.323 Q671.939 188.421 674.138 187.981 Q676.337 187.518 678.42 187.518 Q684.045 187.518 686.823 190.434 Q689.601 193.351 689.601 199.277 Z" fill="#000000" fill-rule="nonzero" fill-opacity="1" /><path clip-path="url(#clip510)" d="M718.559 193.12 Q720.156 190.249 722.378 188.884 Q724.6 187.518 727.61 187.518 Q731.66 187.518 733.86 190.365 Q736.059 193.189 736.059 198.421 L736.059 214.069 L731.776 214.069 L731.776 198.559 Q731.776 194.833 730.457 193.027 Q729.137 191.222 726.429 191.222 Q723.119 191.222 721.198 193.421 Q719.276 195.62 719.276 199.416 L719.276 214.069 L714.994 214.069 L714.994 198.559 Q714.994 194.809 713.674 193.027 Q712.355 191.222 709.6 191.222 Q706.337 191.222 704.415 193.444 Q702.494 195.643 702.494 199.416 L702.494 214.069 L698.212 214.069 L698.212 188.143 L702.494 188.143 L702.494 192.171 Q703.952 189.786 705.989 188.652 Q708.026 187.518 710.827 187.518 Q713.651 187.518 715.619 188.953 Q717.61 190.388 718.559 193.12 Z" fill="#000000" fill-rule="nonzero" fill-opacity="1" /><path clip-path="url(#clip510)" d="M748.674 210.18 L748.674 223.93 L744.392 223.93 L744.392 188.143 L748.674 188.143 L748.674 192.078 Q750.017 189.763 752.054 188.652 Q754.114 187.518 756.961 187.518 Q761.683 187.518 764.623 191.268 Q767.586 195.018 767.586 201.129 Q767.586 207.24 764.623 210.99 Q761.683 214.74 756.961 214.74 Q754.114 214.74 752.054 213.629 Q750.017 212.495 748.674 210.18 M763.165 201.129 Q763.165 196.43 761.221 193.768 Q759.299 191.083 755.92 191.083 Q752.54 191.083 750.596 193.768 Q748.674 196.43 748.674 201.129 Q748.674 205.828 750.596 208.513 Q752.54 211.175 755.92 211.175 Q759.299 211.175 761.221 208.513 Q763.165 205.828 763.165 201.129 Z" fill="#000000" fill-rule="nonzero" fill-opacity="1" /><path clip-path="url(#clip510)" d="M774.646 178.05 L778.906 178.05 L778.906 214.069 L774.646 214.069 L774.646 178.05 Z" fill="#000000" fill-rule="nonzero" fill-opacity="1" /><path clip-path="url(#clip510)" d="M787.818 188.143 L792.077 188.143 L792.077 214.069 L787.818 214.069 L787.818 188.143 M787.818 178.05 L792.077 178.05 L792.077 183.444 L787.818 183.444 L787.818 178.05 Z" fill="#000000" fill-rule="nonzero" fill-opacity="1" /><path clip-path="url(#clip510)" d="M822.54 198.421 L822.54 214.069 L818.28 214.069 L818.28 198.559 Q818.28 194.879 816.845 193.05 Q815.41 191.222 812.54 191.222 Q809.091 191.222 807.1 193.421 Q805.109 195.62 805.109 199.416 L805.109 214.069 L800.827 214.069 L800.827 188.143 L805.109 188.143 L805.109 192.171 Q806.637 189.833 808.697 188.675 Q810.78 187.518 813.489 187.518 Q817.956 187.518 820.248 190.296 Q822.54 193.05 822.54 198.421 Z" fill="#000000" fill-rule="nonzero" fill-opacity="1" /><path clip-path="url(#clip510)" d="M848.095 200.805 Q848.095 196.175 846.174 193.629 Q844.276 191.083 840.827 191.083 Q837.401 191.083 835.479 193.629 Q833.581 196.175 833.581 200.805 Q833.581 205.411 835.479 207.958 Q837.401 210.504 840.827 210.504 Q844.276 210.504 846.174 207.958 Q848.095 205.411 848.095 200.805 M852.354 210.851 Q852.354 217.471 849.414 220.689 Q846.475 223.93 840.41 223.93 Q838.165 223.93 836.174 223.582 Q834.183 223.258 832.308 222.564 L832.308 218.42 Q834.183 219.439 836.012 219.925 Q837.84 220.411 839.739 220.411 Q843.928 220.411 846.012 218.212 Q848.095 216.036 848.095 211.615 L848.095 209.508 Q846.776 211.8 844.715 212.934 Q842.655 214.069 839.785 214.069 Q835.016 214.069 832.1 210.434 Q829.183 206.8 829.183 200.805 Q829.183 194.786 832.1 191.152 Q835.016 187.518 839.785 187.518 Q842.655 187.518 844.715 188.652 Q846.776 189.786 848.095 192.078 L848.095 188.143 L852.354 188.143 L852.354 210.851 Z" fill="#000000" fill-rule="nonzero" fill-opacity="1" /></svg>
