<?xml version="1.0" encoding="utf-8"?>
<svg xmlns="http://www.w3.org/2000/svg" xmlns:xlink="http://www.w3.org/1999/xlink" width="600" height="400" viewBox="0 0 2400 1600">
<defs>
  <clipPath id="clip000">
    <rect x="0" y="0" width="2400" height="1600"/>
  </clipPath>
</defs>
<path clip-path="url(#clip000)" d="M0 1600 L2400 1600 L2400 0 L0 0  Z" fill="#ffffff" fill-rule="evenodd" fill-opacity="1"/>
<defs>
  <clipPath id="clip001">
    <rect x="242" y="47" width="2112" height="1377"/>
  </clipPath>
</defs>
<path clip-path="url(#clip000)" d="M251.56 1423.18 L2352.76 1423.18 L2352.76 47.2441 L251.56 47.2441  Z" fill="#ffffff" fill-rule="evenodd" fill-opacity="1"/>
<defs>
  <clipPath id="clip002">
    <rect x="251" y="47" width="2102" height="1377"/>
  </clipPath>
</defs>
<polyline clip-path="url(#clip002)" style="stroke:#000000; stroke-linecap:round; stroke-linejoin:round; stroke-width:2; stroke-opacity:0.1; fill:none" points="309.044,1423.18 309.044,47.2441 "/>
<polyline clip-path="url(#clip002)" style="stroke:#000000; stroke-linecap:round; stroke-linejoin:round; stroke-width:2; stroke-opacity:0.1; fill:none" points="805.105,1423.18 805.105,47.2441 "/>
<polyline clip-path="url(#clip002)" style="stroke:#000000; stroke-linecap:round; stroke-linejoin:round; stroke-width:2; stroke-opacity:0.1; fill:none" points="1301.17,1423.18 1301.17,47.2441 "/>
<polyline clip-path="url(#clip002)" style="stroke:#000000; stroke-linecap:round; stroke-linejoin:round; stroke-width:2; stroke-opacity:0.1; fill:none" points="1797.23,1423.18 1797.23,47.2441 "/>
<polyline clip-path="url(#clip002)" style="stroke:#000000; stroke-linecap:round; stroke-linejoin:round; stroke-width:2; stroke-opacity:0.1; fill:none" points="2293.29,1423.18 2293.29,47.2441 "/>
<polyline clip-path="url(#clip002)" style="stroke:#000000; stroke-linecap:round; stroke-linejoin:round; stroke-width:2; stroke-opacity:0.1; fill:none" points="251.56,1115.88 2352.76,1115.88 "/>
<polyline clip-path="url(#clip002)" style="stroke:#000000; stroke-linecap:round; stroke-linejoin:round; stroke-width:2; stroke-opacity:0.1; fill:none" points="251.56,228.037 2352.76,228.037 "/>
<polyline clip-path="url(#clip000)" style="stroke:#000000; stroke-linecap:round; stroke-linejoin:round; stroke-width:4; stroke-opacity:1; fill:none" points="251.56,1423.18 2352.76,1423.18 "/>
<polyline clip-path="url(#clip000)" style="stroke:#000000; stroke-linecap:round; stroke-linejoin:round; stroke-width:4; stroke-opacity:1; fill:none" points="309.044,1423.18 309.044,1404.28 "/>
<polyline clip-path="url(#clip000)" style="stroke:#000000; stroke-linecap:round; stroke-linejoin:round; stroke-width:4; stroke-opacity:1; fill:none" points="805.105,1423.18 805.105,1404.28 "/>
<polyline clip-path="url(#clip000)" style="stroke:#000000; stroke-linecap:round; stroke-linejoin:round; stroke-width:4; stroke-opacity:1; fill:none" points="1301.17,1423.18 1301.17,1404.28 "/>
<polyline clip-path="url(#clip000)" style="stroke:#000000; stroke-linecap:round; stroke-linejoin:round; stroke-width:4; stroke-opacity:1; fill:none" points="1797.23,1423.18 1797.23,1404.28 "/>
<polyline clip-path="url(#clip000)" style="stroke:#000000; stroke-linecap:round; stroke-linejoin:round; stroke-width:4; stroke-opacity:1; fill:none" points="2293.29,1423.18 2293.29,1404.28 "/>
<path clip-path="url(#clip000)" d="M309.044 1454.1 Q305.433 1454.1 303.604 1457.66 Q301.798 1461.2 301.798 1468.33 Q301.798 1475.44 303.604 1479.01 Q305.433 1482.55 309.044 1482.55 Q312.678 1482.55 314.484 1479.01 Q316.312 1475.44 316.312 1468.33 Q316.312 1461.2 314.484 1457.66 Q312.678 1454.1 309.044 1454.1 M309.044 1450.39 Q314.854 1450.39 317.91 1455 Q320.988 1459.58 320.988 1468.33 Q320.988 1477.06 317.91 1481.67 Q314.854 1486.25 309.044 1486.25 Q303.234 1486.25 300.155 1481.67 Q297.099 1477.06 297.099 1468.33 Q297.099 1459.58 300.155 1455 Q303.234 1450.39 309.044 1450.39 Z" fill="#000000" fill-rule="nonzero" fill-opacity="1" /><path clip-path="url(#clip000)" d="M768.797 1481.64 L785.117 1481.64 L785.117 1485.58 L763.172 1485.58 L763.172 1481.64 Q765.834 1478.89 770.418 1474.26 Q775.024 1469.61 776.205 1468.27 Q778.45 1465.74 779.33 1464.01 Q780.232 1462.25 780.232 1460.56 Q780.232 1457.8 778.288 1456.07 Q776.367 1454.33 773.265 1454.33 Q771.066 1454.33 768.612 1455.09 Q766.181 1455.86 763.404 1457.41 L763.404 1452.69 Q766.228 1451.55 768.681 1450.97 Q771.135 1450.39 773.172 1450.39 Q778.543 1450.39 781.737 1453.08 Q784.931 1455.77 784.931 1460.26 Q784.931 1462.39 784.121 1464.31 Q783.334 1466.2 781.228 1468.8 Q780.649 1469.47 777.547 1472.69 Q774.445 1475.88 768.797 1481.64 Z" fill="#000000" fill-rule="nonzero" fill-opacity="1" /><path clip-path="url(#clip000)" d="M794.978 1451.02 L813.334 1451.02 L813.334 1454.96 L799.26 1454.96 L799.26 1463.43 Q800.279 1463.08 801.297 1462.92 Q802.316 1462.73 803.334 1462.73 Q809.121 1462.73 812.501 1465.9 Q815.88 1469.08 815.88 1474.49 Q815.88 1480.07 812.408 1483.17 Q808.936 1486.25 802.616 1486.25 Q800.441 1486.25 798.172 1485.88 Q795.927 1485.51 793.519 1484.77 L793.519 1480.07 Q795.603 1481.2 797.825 1481.76 Q800.047 1482.32 802.524 1482.32 Q806.528 1482.32 808.866 1480.21 Q811.204 1478.1 811.204 1474.49 Q811.204 1470.88 808.866 1468.77 Q806.528 1466.67 802.524 1466.67 Q800.649 1466.67 798.774 1467.08 Q796.922 1467.5 794.978 1468.38 L794.978 1451.02 Z" fill="#000000" fill-rule="nonzero" fill-opacity="1" /><path clip-path="url(#clip000)" d="M835.093 1454.1 Q831.482 1454.1 829.653 1457.66 Q827.848 1461.2 827.848 1468.33 Q827.848 1475.44 829.653 1479.01 Q831.482 1482.55 835.093 1482.55 Q838.727 1482.55 840.533 1479.01 Q842.362 1475.44 842.362 1468.33 Q842.362 1461.2 840.533 1457.66 Q838.727 1454.1 835.093 1454.1 M835.093 1450.39 Q840.903 1450.39 843.959 1455 Q847.038 1459.58 847.038 1468.33 Q847.038 1477.06 843.959 1481.67 Q840.903 1486.25 835.093 1486.25 Q829.283 1486.25 826.204 1481.67 Q823.149 1477.06 823.149 1468.33 Q823.149 1459.58 826.204 1455 Q829.283 1450.39 835.093 1450.39 Z" fill="#000000" fill-rule="nonzero" fill-opacity="1" /><path clip-path="url(#clip000)" d="M1260.78 1451.02 L1279.14 1451.02 L1279.14 1454.96 L1265.07 1454.96 L1265.07 1463.43 Q1266.09 1463.08 1267.1 1462.92 Q1268.12 1462.73 1269.14 1462.73 Q1274.93 1462.73 1278.31 1465.9 Q1281.69 1469.08 1281.69 1474.49 Q1281.69 1480.07 1278.21 1483.17 Q1274.74 1486.25 1268.42 1486.25 Q1266.25 1486.25 1263.98 1485.88 Q1261.73 1485.51 1259.33 1484.77 L1259.33 1480.07 Q1261.41 1481.2 1263.63 1481.76 Q1265.85 1482.32 1268.33 1482.32 Q1272.34 1482.32 1274.67 1480.21 Q1277.01 1478.1 1277.01 1474.49 Q1277.01 1470.88 1274.67 1468.77 Q1272.34 1466.67 1268.33 1466.67 Q1266.46 1466.67 1264.58 1467.08 Q1262.73 1467.5 1260.78 1468.38 L1260.78 1451.02 Z" fill="#000000" fill-rule="nonzero" fill-opacity="1" /><path clip-path="url(#clip000)" d="M1300.9 1454.1 Q1297.29 1454.1 1295.46 1457.66 Q1293.65 1461.2 1293.65 1468.33 Q1293.65 1475.44 1295.46 1479.01 Q1297.29 1482.55 1300.9 1482.55 Q1304.53 1482.55 1306.34 1479.01 Q1308.17 1475.44 1308.17 1468.33 Q1308.17 1461.2 1306.34 1457.66 Q1304.53 1454.1 1300.9 1454.1 M1300.9 1450.39 Q1306.71 1450.39 1309.77 1455 Q1312.84 1459.58 1312.84 1468.33 Q1312.84 1477.06 1309.77 1481.67 Q1306.71 1486.25 1300.9 1486.25 Q1295.09 1486.25 1292.01 1481.67 Q1288.96 1477.06 1288.96 1468.33 Q1288.96 1459.58 1292.01 1455 Q1295.09 1450.39 1300.9 1450.39 Z" fill="#000000" fill-rule="nonzero" fill-opacity="1" /><path clip-path="url(#clip000)" d="M1331.06 1454.1 Q1327.45 1454.1 1325.62 1457.66 Q1323.82 1461.2 1323.82 1468.33 Q1323.82 1475.44 1325.62 1479.01 Q1327.45 1482.55 1331.06 1482.55 Q1334.7 1482.55 1336.5 1479.01 Q1338.33 1475.44 1338.33 1468.33 Q1338.33 1461.2 1336.5 1457.66 Q1334.7 1454.1 1331.06 1454.1 M1331.06 1450.39 Q1336.87 1450.39 1339.93 1455 Q1343.01 1459.58 1343.01 1468.33 Q1343.01 1477.06 1339.93 1481.67 Q1336.87 1486.25 1331.06 1486.25 Q1325.25 1486.25 1322.17 1481.67 Q1319.12 1477.06 1319.12 1468.33 Q1319.12 1459.58 1322.17 1455 Q1325.25 1450.39 1331.06 1450.39 Z" fill="#000000" fill-rule="nonzero" fill-opacity="1" /><path clip-path="url(#clip000)" d="M1755.5 1451.02 L1777.72 1451.02 L1777.72 1453.01 L1765.18 1485.58 L1760.29 1485.58 L1772.1 1454.96 L1755.5 1454.96 L1755.5 1451.02 Z" fill="#000000" fill-rule="nonzero" fill-opacity="1" /><path clip-path="url(#clip000)" d="M1786.89 1451.02 L1805.25 1451.02 L1805.25 1454.96 L1791.17 1454.96 L1791.17 1463.43 Q1792.19 1463.08 1793.21 1462.92 Q1794.23 1462.73 1795.25 1462.73 Q1801.03 1462.73 1804.41 1465.9 Q1807.79 1469.08 1807.79 1474.49 Q1807.79 1480.07 1804.32 1483.17 Q1800.85 1486.25 1794.53 1486.25 Q1792.35 1486.25 1790.09 1485.88 Q1787.84 1485.51 1785.43 1484.77 L1785.43 1480.07 Q1787.52 1481.2 1789.74 1481.76 Q1791.96 1482.32 1794.44 1482.32 Q1798.44 1482.32 1800.78 1480.21 Q1803.12 1478.1 1803.12 1474.49 Q1803.12 1470.88 1800.78 1468.77 Q1798.44 1466.67 1794.44 1466.67 Q1792.56 1466.67 1790.69 1467.08 Q1788.84 1467.5 1786.89 1468.38 L1786.89 1451.02 Z" fill="#000000" fill-rule="nonzero" fill-opacity="1" /><path clip-path="url(#clip000)" d="M1827.01 1454.1 Q1823.4 1454.1 1821.57 1457.66 Q1819.76 1461.2 1819.76 1468.33 Q1819.76 1475.44 1821.57 1479.01 Q1823.4 1482.55 1827.01 1482.55 Q1830.64 1482.55 1832.45 1479.01 Q1834.28 1475.44 1834.28 1468.33 Q1834.28 1461.2 1832.45 1457.66 Q1830.64 1454.1 1827.01 1454.1 M1827.01 1450.39 Q1832.82 1450.39 1835.87 1455 Q1838.95 1459.58 1838.95 1468.33 Q1838.95 1477.06 1835.87 1481.67 Q1832.82 1486.25 1827.01 1486.25 Q1821.2 1486.25 1818.12 1481.67 Q1815.06 1477.06 1815.06 1468.33 Q1815.06 1459.58 1818.12 1455 Q1821.2 1450.39 1827.01 1450.39 Z" fill="#000000" fill-rule="nonzero" fill-opacity="1" /><path clip-path="url(#clip000)" d="M2237.81 1481.64 L2245.45 1481.64 L2245.45 1455.28 L2237.14 1456.95 L2237.14 1452.69 L2245.41 1451.02 L2250.08 1451.02 L2250.08 1481.64 L2257.72 1481.64 L2257.72 1485.58 L2237.81 1485.58 L2237.81 1481.64 Z" fill="#000000" fill-rule="nonzero" fill-opacity="1" /><path clip-path="url(#clip000)" d="M2277.17 1454.1 Q2273.55 1454.1 2271.73 1457.66 Q2269.92 1461.2 2269.92 1468.33 Q2269.92 1475.44 2271.73 1479.01 Q2273.55 1482.55 2277.17 1482.55 Q2280.8 1482.55 2282.61 1479.01 Q2284.43 1475.44 2284.43 1468.33 Q2284.43 1461.2 2282.61 1457.66 Q2280.8 1454.1 2277.17 1454.1 M2277.17 1450.39 Q2282.98 1450.39 2286.03 1455 Q2289.11 1459.58 2289.11 1468.33 Q2289.11 1477.06 2286.03 1481.67 Q2282.98 1486.25 2277.17 1486.25 Q2271.36 1486.25 2268.28 1481.67 Q2265.22 1477.06 2265.22 1468.33 Q2265.22 1459.58 2268.28 1455 Q2271.36 1450.39 2277.17 1450.39 Z" fill="#000000" fill-rule="nonzero" fill-opacity="1" /><path clip-path="url(#clip000)" d="M2307.33 1454.1 Q2303.72 1454.1 2301.89 1457.66 Q2300.08 1461.2 2300.08 1468.33 Q2300.08 1475.44 2301.89 1479.01 Q2303.72 1482.55 2307.33 1482.55 Q2310.96 1482.55 2312.77 1479.01 Q2314.6 1475.44 2314.6 1468.33 Q2314.6 1461.2 2312.77 1457.66 Q2310.96 1454.1 2307.33 1454.1 M2307.33 1450.39 Q2313.14 1450.39 2316.19 1455 Q2319.27 1459.58 2319.27 1468.33 Q2319.27 1477.06 2316.19 1481.67 Q2313.14 1486.25 2307.33 1486.25 Q2301.52 1486.25 2298.44 1481.67 Q2295.38 1477.06 2295.38 1468.33 Q2295.38 1459.58 2298.44 1455 Q2301.52 1450.39 2307.33 1450.39 Z" fill="#000000" fill-rule="nonzero" fill-opacity="1" /><path clip-path="url(#clip000)" d="M2337.49 1454.1 Q2333.88 1454.1 2332.05 1457.66 Q2330.24 1461.2 2330.24 1468.33 Q2330.24 1475.44 2332.05 1479.01 Q2333.88 1482.55 2337.49 1482.55 Q2341.12 1482.55 2342.93 1479.01 Q2344.76 1475.44 2344.76 1468.33 Q2344.76 1461.2 2342.93 1457.66 Q2341.12 1454.1 2337.49 1454.1 M2337.49 1450.39 Q2343.3 1450.39 2346.35 1455 Q2349.43 1459.58 2349.43 1468.33 Q2349.43 1477.06 2346.35 1481.67 Q2343.3 1486.25 2337.49 1486.25 Q2331.68 1486.25 2328.6 1481.67 Q2325.54 1477.06 2325.54 1468.33 Q2325.54 1459.58 2328.6 1455 Q2331.68 1450.39 2337.49 1450.39 Z" fill="#000000" fill-rule="nonzero" fill-opacity="1" /><path clip-path="url(#clip000)" d="M1169.88 1520.52 L1176.31 1520.52 L1176.31 1568.04 L1169.88 1568.04 L1169.88 1520.52 Z" fill="#000000" fill-rule="nonzero" fill-opacity="1" /><path clip-path="url(#clip000)" d="M1194.64 1522.27 L1194.64 1532.4 L1206.7 1532.4 L1206.7 1536.95 L1194.64 1536.95 L1194.64 1556.3 Q1194.64 1560.66 1195.82 1561.9 Q1197.03 1563.14 1200.69 1563.14 L1206.7 1563.14 L1206.7 1568.04 L1200.69 1568.04 Q1193.91 1568.04 1191.33 1565.53 Q1188.75 1562.98 1188.75 1556.3 L1188.75 1536.95 L1184.46 1536.95 L1184.46 1532.4 L1188.75 1532.4 L1188.75 1522.27 L1194.64 1522.27 Z" fill="#000000" fill-rule="nonzero" fill-opacity="1" /><path clip-path="url(#clip000)" d="M1244.9 1548.76 L1244.9 1551.62 L1217.97 1551.62 Q1218.35 1557.67 1221.6 1560.85 Q1224.88 1564 1230.7 1564 Q1234.08 1564 1237.23 1563.17 Q1240.41 1562.35 1243.53 1560.69 L1243.53 1566.23 Q1240.38 1567.57 1237.07 1568.27 Q1233.76 1568.97 1230.35 1568.97 Q1221.82 1568.97 1216.83 1564 Q1211.86 1559.04 1211.86 1550.57 Q1211.86 1541.82 1216.57 1536.69 Q1221.31 1531.54 1229.33 1531.54 Q1236.53 1531.54 1240.7 1536.18 Q1244.9 1540.8 1244.9 1548.76 M1239.04 1547.04 Q1238.98 1542.23 1236.34 1539.37 Q1233.73 1536.5 1229.4 1536.5 Q1224.5 1536.5 1221.54 1539.27 Q1218.61 1542.04 1218.16 1547.07 L1239.04 1547.04 Z" fill="#000000" fill-rule="nonzero" fill-opacity="1" /><path clip-path="url(#clip000)" d="M1275.17 1537.87 Q1274.18 1537.3 1273 1537.04 Q1271.86 1536.76 1270.46 1536.76 Q1265.49 1536.76 1262.82 1540 Q1260.18 1543.22 1260.18 1549.27 L1260.18 1568.04 L1254.29 1568.04 L1254.29 1532.4 L1260.18 1532.4 L1260.18 1537.93 Q1262.02 1534.69 1264.98 1533.13 Q1267.94 1531.54 1272.18 1531.54 Q1272.78 1531.54 1273.51 1531.63 Q1274.24 1531.7 1275.14 1531.85 L1275.17 1537.87 Z" fill="#000000" fill-rule="nonzero" fill-opacity="1" /><path clip-path="url(#clip000)" d="M1297.51 1550.12 Q1290.41 1550.12 1287.68 1551.75 Q1284.94 1553.37 1284.94 1557.29 Q1284.94 1560.4 1286.98 1562.25 Q1289.04 1564.07 1292.58 1564.07 Q1297.45 1564.07 1300.38 1560.63 Q1303.34 1557.16 1303.34 1551.43 L1303.34 1550.12 L1297.51 1550.12 M1309.19 1547.71 L1309.19 1568.04 L1303.34 1568.04 L1303.34 1562.63 Q1301.33 1565.88 1298.34 1567.44 Q1295.35 1568.97 1291.02 1568.97 Q1285.54 1568.97 1282.3 1565.91 Q1279.08 1562.82 1279.08 1557.67 Q1279.08 1551.65 1283.09 1548.6 Q1287.14 1545.54 1295.12 1545.54 L1303.34 1545.54 L1303.34 1544.97 Q1303.34 1540.93 1300.66 1538.73 Q1298.02 1536.5 1293.21 1536.5 Q1290.16 1536.5 1287.26 1537.23 Q1284.37 1537.97 1281.69 1539.43 L1281.69 1534.02 Q1284.91 1532.78 1287.93 1532.17 Q1290.95 1531.54 1293.82 1531.54 Q1301.55 1531.54 1305.37 1535.55 Q1309.19 1539.56 1309.19 1547.71 Z" fill="#000000" fill-rule="nonzero" fill-opacity="1" /><path clip-path="url(#clip000)" d="M1327.05 1522.27 L1327.05 1532.4 L1339.11 1532.4 L1339.11 1536.95 L1327.05 1536.95 L1327.05 1556.3 Q1327.05 1560.66 1328.23 1561.9 Q1329.44 1563.14 1333.1 1563.14 L1339.11 1563.14 L1339.11 1568.04 L1333.1 1568.04 Q1326.32 1568.04 1323.74 1565.53 Q1321.16 1562.98 1321.16 1556.3 L1321.16 1536.95 L1316.86 1536.95 L1316.86 1532.4 L1321.16 1532.4 L1321.16 1522.27 L1327.05 1522.27 Z" fill="#000000" fill-rule="nonzero" fill-opacity="1" /><path clip-path="url(#clip000)" d="M1346.81 1532.4 L1352.67 1532.4 L1352.67 1568.04 L1346.81 1568.04 L1346.81 1532.4 M1346.81 1518.52 L1352.67 1518.52 L1352.67 1525.93 L1346.81 1525.93 L1346.81 1518.52 Z" fill="#000000" fill-rule="nonzero" fill-opacity="1" /><path clip-path="url(#clip000)" d="M1378.74 1536.5 Q1374.03 1536.5 1371.29 1540.19 Q1368.55 1543.85 1368.55 1550.25 Q1368.55 1556.65 1371.26 1560.34 Q1374 1564 1378.74 1564 Q1383.42 1564 1386.15 1560.31 Q1388.89 1556.62 1388.89 1550.25 Q1388.89 1543.92 1386.15 1540.23 Q1383.42 1536.5 1378.74 1536.5 M1378.74 1531.54 Q1386.38 1531.54 1390.74 1536.5 Q1395.1 1541.47 1395.1 1550.25 Q1395.1 1559 1390.74 1564 Q1386.38 1568.97 1378.74 1568.97 Q1371.07 1568.97 1366.71 1564 Q1362.38 1559 1362.38 1550.25 Q1362.38 1541.47 1366.71 1536.5 Q1371.07 1531.54 1378.74 1531.54 Z" fill="#000000" fill-rule="nonzero" fill-opacity="1" /><path clip-path="url(#clip000)" d="M1434.44 1546.53 L1434.44 1568.04 L1428.58 1568.04 L1428.58 1546.72 Q1428.58 1541.66 1426.61 1539.14 Q1424.63 1536.63 1420.69 1536.63 Q1415.95 1536.63 1413.21 1539.65 Q1410.47 1542.68 1410.47 1547.9 L1410.47 1568.04 L1404.58 1568.04 L1404.58 1532.4 L1410.47 1532.4 L1410.47 1537.93 Q1412.57 1534.72 1415.4 1533.13 Q1418.27 1531.54 1421.99 1531.54 Q1428.14 1531.54 1431.29 1535.36 Q1434.44 1539.14 1434.44 1546.53 Z" fill="#000000" fill-rule="nonzero" fill-opacity="1" /><polyline clip-path="url(#clip000)" style="stroke:#000000; stroke-linecap:round; stroke-linejoin:round; stroke-width:4; stroke-opacity:1; fill:none" points="251.56,1423.18 251.56,47.2441 "/>
<polyline clip-path="url(#clip000)" style="stroke:#000000; stroke-linecap:round; stroke-linejoin:round; stroke-width:4; stroke-opacity:1; fill:none" points="251.56,1115.88 270.458,1115.88 "/>
<polyline clip-path="url(#clip000)" style="stroke:#000000; stroke-linecap:round; stroke-linejoin:round; stroke-width:4; stroke-opacity:1; fill:none" points="251.56,228.037 270.458,228.037 "/>
<path clip-path="url(#clip000)" d="M114.931 1135.67 L122.57 1135.67 L122.57 1109.3 L114.26 1110.97 L114.26 1106.71 L122.524 1105.04 L127.2 1105.04 L127.2 1135.67 L134.839 1135.67 L134.839 1139.6 L114.931 1139.6 L114.931 1135.67 Z" fill="#000000" fill-rule="nonzero" fill-opacity="1" /><path clip-path="url(#clip000)" d="M154.283 1108.12 Q150.672 1108.12 148.843 1111.69 Q147.038 1115.23 147.038 1122.36 Q147.038 1129.46 148.843 1133.03 Q150.672 1136.57 154.283 1136.57 Q157.917 1136.57 159.723 1133.03 Q161.552 1129.46 161.552 1122.36 Q161.552 1115.23 159.723 1111.69 Q157.917 1108.12 154.283 1108.12 M154.283 1104.42 Q160.093 1104.42 163.149 1109.02 Q166.227 1113.61 166.227 1122.36 Q166.227 1131.08 163.149 1135.69 Q160.093 1140.27 154.283 1140.27 Q148.473 1140.27 145.394 1135.69 Q142.339 1131.08 142.339 1122.36 Q142.339 1113.61 145.394 1109.02 Q148.473 1104.42 154.283 1104.42 Z" fill="#000000" fill-rule="nonzero" fill-opacity="1" /><path clip-path="url(#clip000)" d="M166.227 1098.52 L190.339 1098.52 L190.339 1101.72 L166.227 1101.72 L166.227 1098.52 Z" fill="#000000" fill-rule="nonzero" fill-opacity="1" /><path clip-path="url(#clip000)" d="M198.577 1084.11 L213.491 1084.11 L213.491 1087.31 L202.056 1087.31 L202.056 1094.19 Q202.884 1093.91 203.711 1093.78 Q204.539 1093.63 205.366 1093.63 Q210.068 1093.63 212.814 1096.21 Q215.56 1098.78 215.56 1103.18 Q215.56 1107.72 212.739 1110.24 Q209.918 1112.74 204.783 1112.74 Q203.015 1112.74 201.172 1112.44 Q199.348 1112.14 197.392 1111.53 L197.392 1107.72 Q199.085 1108.64 200.89 1109.09 Q202.696 1109.54 204.708 1109.54 Q207.962 1109.54 209.861 1107.83 Q211.761 1106.12 211.761 1103.18 Q211.761 1100.25 209.861 1098.54 Q207.962 1096.83 204.708 1096.83 Q203.185 1096.83 201.661 1097.17 Q200.157 1097.5 198.577 1098.22 L198.577 1084.11 Z" fill="#000000" fill-rule="nonzero" fill-opacity="1" /><path clip-path="url(#clip000)" d="M144.855 247.83 L152.493 247.83 L152.493 221.464 L144.183 223.131 L144.183 218.871 L152.447 217.205 L157.123 217.205 L157.123 247.83 L164.762 247.83 L164.762 251.765 L144.855 251.765 L144.855 247.83 Z" fill="#000000" fill-rule="nonzero" fill-opacity="1" /><path clip-path="url(#clip000)" d="M184.206 220.283 Q180.595 220.283 178.766 223.848 Q176.961 227.39 176.961 234.519 Q176.961 241.626 178.766 245.191 Q180.595 248.732 184.206 248.732 Q187.84 248.732 189.646 245.191 Q191.475 241.626 191.475 234.519 Q191.475 227.39 189.646 223.848 Q187.84 220.283 184.206 220.283 M184.206 216.58 Q190.016 216.58 193.072 221.186 Q196.151 225.77 196.151 234.519 Q196.151 243.246 193.072 247.853 Q190.016 252.436 184.206 252.436 Q178.396 252.436 175.317 247.853 Q172.262 243.246 172.262 234.519 Q172.262 225.77 175.317 221.186 Q178.396 216.58 184.206 216.58 Z" fill="#000000" fill-rule="nonzero" fill-opacity="1" /><path clip-path="url(#clip000)" d="M205.855 198.776 Q202.921 198.776 201.436 201.672 Q199.969 204.55 199.969 210.343 Q199.969 216.117 201.436 219.013 Q202.921 221.891 205.855 221.891 Q208.808 221.891 210.275 219.013 Q211.761 216.117 211.761 210.343 Q211.761 204.55 210.275 201.672 Q208.808 198.776 205.855 198.776 M205.855 195.767 Q210.576 195.767 213.059 199.509 Q215.56 203.233 215.56 210.343 Q215.56 217.433 213.059 221.176 Q210.576 224.9 205.855 224.9 Q201.135 224.9 198.633 221.176 Q196.151 217.433 196.151 210.343 Q196.151 203.233 198.633 199.509 Q201.135 195.767 205.855 195.767 Z" fill="#000000" fill-rule="nonzero" fill-opacity="1" /><path clip-path="url(#clip000)" d="M33.7671 1042.8 L14.479 1042.8 L14.479 1036.95 L64.0042 1036.95 L64.0042 1042.8 L58.657 1042.8 Q61.8398 1044.65 63.3994 1047.48 Q64.9272 1050.28 64.9272 1054.23 Q64.9272 1060.69 59.771 1064.76 Q54.6147 1068.81 46.212 1068.81 Q37.8093 1068.81 32.6531 1064.76 Q27.4968 1060.69 27.4968 1054.23 Q27.4968 1050.28 29.0564 1047.48 Q30.5842 1044.65 33.7671 1042.8 M46.212 1062.76 Q52.6732 1062.76 56.3653 1060.12 Q60.0256 1057.44 60.0256 1052.8 Q60.0256 1048.15 56.3653 1045.48 Q52.6732 1042.8 46.212 1042.8 Q39.7508 1042.8 36.0905 1045.48 Q32.3984 1048.15 32.3984 1052.8 Q32.3984 1057.44 36.0905 1060.12 Q39.7508 1062.76 46.212 1062.76 Z" fill="#000000" fill-rule="nonzero" fill-opacity="1" /><path clip-path="url(#clip000)" d="M28.3562 1024.88 L28.3562 1019.03 L64.0042 1019.03 L64.0042 1024.88 L28.3562 1024.88 M14.479 1024.88 L14.479 1019.03 L21.895 1019.03 L21.895 1024.88 L14.479 1024.88 Z" fill="#000000" fill-rule="nonzero" fill-opacity="1" /><path clip-path="url(#clip000)" d="M29.4065 984.047 L34.9447 984.047 Q33.6716 986.53 33.035 989.204 Q32.3984 991.877 32.3984 994.742 Q32.3984 999.102 33.7352 1001.3 Q35.072 1003.46 37.7456 1003.46 Q39.7826 1003.46 40.9603 1001.9 Q42.1061 1000.34 43.1565 995.633 L43.6021 993.628 Q44.9389 987.389 47.3897 984.779 Q49.8086 982.138 54.1691 982.138 Q59.1344 982.138 62.0308 986.084 Q64.9272 989.999 64.9272 996.874 Q64.9272 999.739 64.3543 1002.86 Q63.8132 1005.95 62.6992 1009.38 L56.6518 1009.38 Q58.3387 1006.14 59.198 1002.99 Q60.0256 999.834 60.0256 996.747 Q60.0256 992.609 58.6251 990.381 Q57.1929 988.153 54.6147 988.153 Q52.2276 988.153 50.9545 989.777 Q49.6813 991.368 48.5037 996.811 L48.0262 998.848 Q46.8804 1004.29 44.5251 1006.71 Q42.138 1009.13 38.0002 1009.13 Q32.9713 1009.13 30.2341 1005.56 Q27.4968 1002 27.4968 995.442 Q27.4968 992.196 27.9743 989.331 Q28.4517 986.466 29.4065 984.047 Z" fill="#000000" fill-rule="nonzero" fill-opacity="1" /><path clip-path="url(#clip000)" d="M18.2347 967.019 L28.3562 967.019 L28.3562 954.956 L32.9077 954.956 L32.9077 967.019 L52.2594 967.019 Q56.6199 967.019 57.8613 965.842 Q59.1026 964.632 59.1026 960.972 L59.1026 954.956 L64.0042 954.956 L64.0042 960.972 Q64.0042 967.751 61.4897 970.329 Q58.9434 972.907 52.2594 972.907 L32.9077 972.907 L32.9077 977.204 L28.3562 977.204 L28.3562 972.907 L18.2347 972.907 L18.2347 967.019 Z" fill="#000000" fill-rule="nonzero" fill-opacity="1" /><path clip-path="url(#clip000)" d="M46.0847 931.053 Q46.0847 938.151 47.7079 940.888 Q49.3312 943.625 53.2461 943.625 Q56.3653 943.625 58.2114 941.588 Q60.0256 939.519 60.0256 935.986 Q60.0256 931.117 56.5881 928.188 Q53.1188 925.228 47.3897 925.228 L46.0847 925.228 L46.0847 931.053 M43.6657 919.372 L64.0042 919.372 L64.0042 925.228 L58.5933 925.228 Q61.8398 927.234 63.3994 930.225 Q64.9272 933.217 64.9272 937.546 Q64.9272 943.02 61.8716 946.267 Q58.7843 949.482 53.6281 949.482 Q47.6125 949.482 44.5569 945.471 Q41.5014 941.429 41.5014 933.44 L41.5014 925.228 L40.9285 925.228 Q36.8862 925.228 34.6901 927.902 Q32.4621 930.544 32.4621 935.35 Q32.4621 938.405 33.1941 941.302 Q33.9262 944.198 35.3903 946.872 L29.9795 946.872 Q28.7381 943.657 28.1334 940.633 Q27.4968 937.61 27.4968 934.745 Q27.4968 927.011 31.5072 923.191 Q35.5176 919.372 43.6657 919.372 Z" fill="#000000" fill-rule="nonzero" fill-opacity="1" /><path clip-path="url(#clip000)" d="M42.4881 877.676 L64.0042 877.676 L64.0042 883.533 L42.679 883.533 Q37.6183 883.533 35.1038 885.506 Q32.5894 887.48 32.5894 891.426 Q32.5894 896.169 35.6131 898.906 Q38.6368 901.643 43.8567 901.643 L64.0042 901.643 L64.0042 907.532 L28.3562 907.532 L28.3562 901.643 L33.8944 901.643 Q30.6797 899.543 29.0883 896.71 Q27.4968 893.845 27.4968 890.121 Q27.4968 883.979 31.3163 880.828 Q35.1038 877.676 42.4881 877.676 Z" fill="#000000" fill-rule="nonzero" fill-opacity="1" /><path clip-path="url(#clip000)" d="M29.7248 840.342 L35.1993 840.342 Q33.8307 842.824 33.1623 845.339 Q32.4621 847.821 32.4621 850.368 Q32.4621 856.065 36.0905 859.216 Q39.6872 862.367 46.212 862.367 Q52.7369 862.367 56.3653 859.216 Q59.9619 856.065 59.9619 850.368 Q59.9619 847.821 59.2935 845.339 Q58.5933 842.824 57.2247 840.342 L62.6355 840.342 Q63.7814 842.792 64.3543 845.434 Q64.9272 848.044 64.9272 851.004 Q64.9272 859.057 59.8664 863.799 Q54.8057 868.542 46.212 868.542 Q37.491 868.542 32.4939 863.767 Q27.4968 858.961 27.4968 850.622 Q27.4968 847.917 28.0697 845.339 Q28.6108 842.761 29.7248 840.342 Z" fill="#000000" fill-rule="nonzero" fill-opacity="1" /><path clip-path="url(#clip000)" d="M44.7161 799.665 L47.5806 799.665 L47.5806 826.592 Q53.6281 826.21 56.8109 822.963 Q59.9619 819.685 59.9619 813.86 Q59.9619 810.486 59.1344 807.335 Q58.3069 804.153 56.6518 801.033 L62.1899 801.033 Q63.5267 804.184 64.227 807.495 Q64.9272 810.805 64.9272 814.21 Q64.9272 822.74 59.9619 827.738 Q54.9967 832.703 46.5303 832.703 Q37.7774 832.703 32.6531 827.992 Q27.4968 823.25 27.4968 815.229 Q27.4968 808.036 32.1438 803.866 Q36.7589 799.665 44.7161 799.665 M42.9973 805.521 Q38.1912 805.585 35.3266 808.227 Q32.4621 810.837 32.4621 815.165 Q32.4621 820.067 35.2312 823.027 Q38.0002 825.955 43.0292 826.401 L42.9973 805.521 Z" fill="#000000" fill-rule="nonzero" fill-opacity="1" /><path clip-path="url(#clip000)" d="M18.2347 763.539 L28.3562 763.539 L28.3562 751.476 L32.9077 751.476 L32.9077 763.539 L52.2594 763.539 Q56.6199 763.539 57.8613 762.362 Q59.1026 761.152 59.1026 757.492 L59.1026 751.476 L64.0042 751.476 L64.0042 757.492 Q64.0042 764.271 61.4897 766.85 Q58.9434 769.428 52.2594 769.428 L32.9077 769.428 L32.9077 773.724 L28.3562 773.724 L28.3562 769.428 L18.2347 769.428 L18.2347 763.539 Z" fill="#000000" fill-rule="nonzero" fill-opacity="1" /><path clip-path="url(#clip000)" d="M32.4621 729.96 Q32.4621 734.671 36.1542 737.408 Q39.8145 740.145 46.212 740.145 Q52.6095 740.145 56.3017 737.44 Q59.9619 734.703 59.9619 729.96 Q59.9619 725.281 56.2698 722.544 Q52.5777 719.807 46.212 719.807 Q39.8781 719.807 36.186 722.544 Q32.4621 725.281 32.4621 729.96 M27.4968 729.96 Q27.4968 722.321 32.4621 717.961 Q37.4273 713.6 46.212 713.6 Q54.9649 713.6 59.9619 717.961 Q64.9272 722.321 64.9272 729.96 Q64.9272 737.631 59.9619 741.991 Q54.9649 746.32 46.212 746.32 Q37.4273 746.32 32.4621 741.991 Q27.4968 737.631 27.4968 729.96 Z" fill="#000000" fill-rule="nonzero" fill-opacity="1" /><path clip-path="url(#clip000)" d="M32.4621 669.359 Q32.4621 674.069 36.1542 676.807 Q39.8145 679.544 46.212 679.544 Q52.6095 679.544 56.3017 676.838 Q59.9619 674.101 59.9619 669.359 Q59.9619 664.68 56.2698 661.943 Q52.5777 659.205 46.212 659.205 Q39.8781 659.205 36.186 661.943 Q32.4621 664.68 32.4621 669.359 M27.4968 669.359 Q27.4968 661.72 32.4621 657.359 Q37.4273 652.999 46.212 652.999 Q54.9649 652.999 59.9619 657.359 Q64.9272 661.72 64.9272 669.359 Q64.9272 677.029 59.9619 681.39 Q54.9649 685.719 46.212 685.719 Q37.4273 685.719 32.4621 681.39 Q27.4968 677.029 27.4968 669.359 Z" fill="#000000" fill-rule="nonzero" fill-opacity="1" /><path clip-path="url(#clip000)" d="M58.657 637.626 L77.5631 637.626 L77.5631 643.514 L28.3562 643.514 L28.3562 637.626 L33.7671 637.626 Q30.5842 635.78 29.0564 632.979 Q27.4968 630.146 27.4968 626.231 Q27.4968 619.738 32.6531 615.696 Q37.8093 611.622 46.212 611.622 Q54.6147 611.622 59.771 615.696 Q64.9272 619.738 64.9272 626.231 Q64.9272 630.146 63.3994 632.979 Q61.8398 635.78 58.657 637.626 M46.212 617.701 Q39.7508 617.701 36.0905 620.375 Q32.3984 623.016 32.3984 627.663 Q32.3984 632.31 36.0905 634.984 Q39.7508 637.626 46.212 637.626 Q52.6732 637.626 56.3653 634.984 Q60.0256 632.31 60.0256 627.663 Q60.0256 623.016 56.3653 620.375 Q52.6732 617.701 46.212 617.701 Z" fill="#000000" fill-rule="nonzero" fill-opacity="1" /><path clip-path="url(#clip000)" d="M18.2347 596.121 L28.3562 596.121 L28.3562 584.058 L32.9077 584.058 L32.9077 596.121 L52.2594 596.121 Q56.6199 596.121 57.8613 594.944 Q59.1026 593.734 59.1026 590.074 L59.1026 584.058 L64.0042 584.058 L64.0042 590.074 Q64.0042 596.853 61.4897 599.431 Q58.9434 602.01 52.2594 602.01 L32.9077 602.01 L32.9077 606.306 L28.3562 606.306 L28.3562 602.01 L18.2347 602.01 L18.2347 596.121 Z" fill="#000000" fill-rule="nonzero" fill-opacity="1" /><path clip-path="url(#clip000)" d="M28.3562 576.356 L28.3562 570.499 L64.0042 570.499 L64.0042 576.356 L28.3562 576.356 M14.479 576.356 L14.479 570.499 L21.895 570.499 L21.895 576.356 L14.479 576.356 Z" fill="#000000" fill-rule="nonzero" fill-opacity="1" /><path clip-path="url(#clip000)" d="M35.1993 530.491 Q31.2526 528.295 29.3747 525.239 Q27.4968 522.184 27.4968 518.046 Q27.4968 512.476 31.4117 509.452 Q35.2948 506.428 42.4881 506.428 L64.0042 506.428 L64.0042 512.317 L42.679 512.317 Q37.5546 512.317 35.072 514.131 Q32.5894 515.945 32.5894 519.669 Q32.5894 524.221 35.6131 526.862 Q38.6368 529.504 43.8567 529.504 L64.0042 529.504 L64.0042 535.392 L42.679 535.392 Q37.5228 535.392 35.072 537.207 Q32.5894 539.021 32.5894 542.808 Q32.5894 547.296 35.6449 549.938 Q38.6686 552.58 43.8567 552.58 L64.0042 552.58 L64.0042 558.468 L28.3562 558.468 L28.3562 552.58 L33.8944 552.58 Q30.616 550.575 29.0564 547.774 Q27.4968 544.973 27.4968 541.122 Q27.4968 537.238 29.4702 534.533 Q31.4436 531.796 35.1993 530.491 Z" fill="#000000" fill-rule="nonzero" fill-opacity="1" /><path clip-path="url(#clip000)" d="M49.9359 495.352 L28.3562 495.352 L28.3562 489.496 L49.7131 489.496 Q54.7739 489.496 57.3202 487.522 Q59.8346 485.549 59.8346 481.602 Q59.8346 476.86 56.8109 474.123 Q53.7872 471.353 48.5673 471.353 L28.3562 471.353 L28.3562 465.497 L64.0042 465.497 L64.0042 471.353 L58.5296 471.353 Q61.7762 473.486 63.3676 476.319 Q64.9272 479.12 64.9272 482.844 Q64.9272 488.986 61.1078 492.169 Q57.2883 495.352 49.9359 495.352 M27.4968 480.616 L27.4968 480.616 Z" fill="#000000" fill-rule="nonzero" fill-opacity="1" /><path clip-path="url(#clip000)" d="M35.1993 425.679 Q31.2526 423.483 29.3747 420.428 Q27.4968 417.372 27.4968 413.235 Q27.4968 407.665 31.4117 404.641 Q35.2948 401.617 42.4881 401.617 L64.0042 401.617 L64.0042 407.505 L42.679 407.505 Q37.5546 407.505 35.072 409.32 Q32.5894 411.134 32.5894 414.858 Q32.5894 419.409 35.6131 422.051 Q38.6368 424.693 43.8567 424.693 L64.0042 424.693 L64.0042 430.581 L42.679 430.581 Q37.5228 430.581 35.072 432.395 Q32.5894 434.21 32.5894 437.997 Q32.5894 442.485 35.6449 445.127 Q38.6686 447.768 43.8567 447.768 L64.0042 447.768 L64.0042 453.657 L28.3562 453.657 L28.3562 447.768 L33.8944 447.768 Q30.616 445.763 29.0564 442.962 Q27.4968 440.161 27.4968 436.31 Q27.4968 432.427 29.4702 429.722 Q31.4436 426.984 35.1993 425.679 Z" fill="#000000" fill-rule="nonzero" fill-opacity="1" /><polyline clip-path="url(#clip002)" style="stroke:#009af9; stroke-linecap:round; stroke-linejoin:round; stroke-width:4; stroke-opacity:1; fill:none" points="311.028,86.1857 313.012,86.5277 314.997,86.8479 316.981,87.178 318.965,87.5133 320.949,87.8463 322.934,88.1861 324.918,88.527 326.902,88.8723 328.886,89.2185 330.87,89.5706 332.855,89.9208 334.839,90.2812 336.823,90.6513 338.807,91.0237 340.792,91.3895 342.776,91.7548 344.76,92.1197 346.744,92.4725 348.729,92.8187 350.713,93.1718 352.697,93.5373 354.681,93.9065 356.666,94.2792 358.65,94.6502 360.634,95.0191 362.618,95.3771 364.603,95.7459 366.587,96.1213 368.571,96.508 370.555,96.8855 372.54,97.2579 374.524,97.6309 376.508,98.0057 378.492,98.3965 380.477,98.7871 382.461,99.1707 384.445,99.5465 386.429,99.9135 388.414,100.28 390.398,100.654 392.382,101.032 394.366,101.41 396.351,101.788 398.335,102.167 400.319,102.554 402.303,102.945 404.288,103.339 406.272,103.741 408.256,104.142 410.24,104.55 412.225,104.954 414.209,105.375 416.193,105.802 418.177,106.234 420.161,106.67 422.146,107.104 424.13,107.548 426.114,107.994 428.098,108.436 430.083,108.883 432.067,109.331 434.051,109.775 436.035,110.201 438.02,110.619 440.004,111.04 441.988,111.481 443.972,111.916 445.957,112.356 447.941,112.783 449.925,113.215 451.909,113.646 453.894,114.059 455.878,114.466 457.862,114.87 459.846,115.277 461.831,115.691 463.815,116.1 465.799,116.506 467.783,116.913 469.768,117.301 471.752,117.693 473.736,118.076 475.72,118.453 477.705,118.83 479.689,119.206 481.673,119.581 483.657,119.956 485.642,120.333 487.626,120.704 489.61,121.066 491.594,121.448 493.579,121.857 495.563,122.279 497.547,122.713 499.531,123.152 501.516,123.59 503.5,124.04 505.484,124.493 507.468,124.969 509.452,125.446 511.437,125.912 513.421,126.384 515.405,126.859 517.389,127.322 519.374,127.78 521.358,128.243 523.342,128.709 525.326,129.162 527.311,129.62 529.295,130.074 531.279,130.549 533.263,131.02 535.248,131.481 537.232,131.945 539.216,132.414 541.2,132.871 543.185,133.311 545.169,133.742 547.153,134.211 549.137,134.685 551.122,135.149 553.106,135.628 555.09,136.088 557.074,136.554 559.059,136.996 561.043,137.428 563.027,137.862 565.011,138.272 566.996,138.674 568.98,139.091 570.964,139.504 572.948,139.919 574.933,140.351 576.917,140.79 578.901,141.232 580.885,141.654 582.87,142.113 584.854,142.584 586.838,143.041 588.822,143.52 590.806,144.02 592.791,144.535 594.775,145.047 596.759,145.568 598.743,146.088 600.728,146.605 602.712,147.11 604.696,147.613 606.68,148.119 608.665,148.635 610.649,149.147 612.633,149.691 614.617,150.241 616.602,150.769 618.586,151.295 620.57,151.801 622.554,152.315 624.539,152.825 626.523,153.335 628.507,153.871 630.491,154.399 632.476,154.885 634.46,155.359 636.444,155.826 638.428,156.277 640.413,156.694 642.397,157.114 644.381,157.578 646.365,158.041 648.35,158.563 650.334,159.081 652.318,159.62 654.302,160.149 656.287,160.693 658.271,161.261 660.255,161.814 662.239,162.369 664.224,162.931 666.208,163.504 668.192,164.1 670.176,164.698 672.161,165.296 674.145,165.901 676.129,166.497 678.113,167.102 680.097,167.698 682.082,168.235 684.066,168.743 686.05,169.245 688.034,169.763 690.019,170.311 692.003,170.823 693.987,171.33 695.971,171.86 697.956,172.423 699.94,172.95 701.924,173.464 703.908,173.973 705.893,174.502 707.877,175.052 709.861,175.582 711.845,176.075 713.83,176.612 715.814,177.147 717.798,177.66 719.782,178.151 721.767,178.624 723.751,179.096 725.735,179.536 727.719,179.988 729.704,180.43 731.688,180.88 733.672,181.323 735.656,181.812 737.641,182.313 739.625,182.826 741.609,183.336 743.593,183.832 745.578,184.331 747.562,184.866 749.546,185.371 751.53,185.86 753.515,186.37 755.499,186.868 757.483,187.398 759.467,187.919 761.452,188.446 763.436,188.945 765.42,189.42 767.404,189.869 769.388,190.337 771.373,190.754 773.357,191.194 775.341,191.642 777.325,192.084 779.31,192.541 781.294,193.036 783.278,193.511 785.262,194.047 787.247,194.636 789.231,195.171 791.215,195.693 793.199,196.204 795.184,196.67 797.168,197.121 799.152,197.52 801.136,197.984 803.121,198.475 805.105,198.903 807.089,199.272 809.073,199.675 811.058,200.118 813.042,200.511 815.026,200.856 817.01,201.247 818.995,201.669 820.979,202.11 822.963,202.557 824.947,203 826.932,203.448 828.916,203.853 830.9,204.275 832.884,204.738 834.869,205.182 836.853,205.657 838.837,206.132 840.821,206.609 842.806,207.086 844.79,207.583 846.774,208.095 848.758,208.622 850.743,209.119 852.727,209.63 854.711,210.146 856.695,210.669 858.679,211.186 860.664,211.761 862.648,212.309 864.632,212.9 866.616,213.511 868.601,214.1 870.585,214.667 872.569,215.219 874.553,215.74 876.538,216.316 878.522,216.88 880.506,217.392 882.49,217.866 884.475,218.223 886.459,218.593 888.443,219.076 890.427,219.603 892.412,220.095 894.396,220.649 896.38,221.213 898.364,221.808 900.349,222.393 902.333,222.996 904.317,223.613 906.301,224.217 908.286,224.752 910.27,225.235 912.254,225.7 914.238,226.139 916.223,226.61 918.207,227.135 920.191,227.696 922.175,228.152 924.16,228.681 926.144,229.246 928.128,229.844 930.112,230.423 932.097,230.959 934.081,231.619 936.065,232.206 938.049,232.752 940.033,233.334 942.018,233.869 944.002,234.43 945.986,234.934 947.97,235.423 949.955,235.96 951.939,236.469 953.923,237.022 955.907,237.656 957.892,238.308 959.876,239.028 961.86,239.679 963.844,240.317 965.829,240.958 967.813,241.528 969.797,242.149 971.781,242.701 973.766,243.239 975.75,243.838 977.734,244.375 979.718,244.917 981.703,245.468 983.687,245.923 985.671,246.255 987.655,246.706 989.64,247.103 991.624,247.426 993.608,247.747 995.592,248.124 997.577,248.419 999.561,248.693 1001.55,249.023 1003.53,249.282 1005.51,249.532 1007.5,249.876 1009.48,250.236 1011.47,250.669 1013.45,251.238 1015.43,251.763 1017.42,252.197 1019.4,252.55 1021.39,252.979 1023.37,253.263 1025.36,253.665 1027.34,254.126 1029.32,254.588 1031.31,254.918 1033.29,255.253 1035.28,255.558 1037.26,255.973 1039.25,256.541 1041.23,257.04 1043.21,257.518 1045.2,258.021 1047.18,258.435 1049.17,258.883 1051.15,259.407 1053.14,259.921 1055.12,260.526 1057.1,261.025 1059.09,261.638 1061.07,262.349 1063.06,263.007 1065.04,263.653 1067.03,264.231 1069.01,264.912 1070.99,265.654 1072.98,266.261 1074.96,266.753 1076.95,267.247 1078.93,267.723 1080.91,268.328 1082.9,268.885 1084.88,269.579 1086.87,270.049 1088.85,270.502 1090.84,270.948 1092.82,271.298 1094.8,271.768 1096.79,272.097 1098.77,272.419 1100.76,272.873 1102.74,273.42 1104.73,273.85 1106.71,274.184 1108.69,274.347 1110.68,274.42 1112.66,274.337 1114.65,274.426 1116.63,274.648 1118.62,274.863 1120.6,274.95 1122.58,275.011 1124.57,275.236 1126.55,275.501 1128.54,275.778 1130.52,276.194 1132.51,276.655 1134.49,277.133 1136.47,277.298 1138.46,277.481 1140.44,277.645 1142.43,277.784 1144.41,277.884 1146.39,278.129 1148.38,278.309 1150.36,278.573 1152.35,278.935 1154.33,279.238 1156.32,279.497 1158.3,279.855 1160.28,280.143 1162.27,280.494 1164.25,280.953 1166.24,281.688 1168.22,282.333 1170.21,282.962 1172.19,283.713 1174.17,284.403 1176.16,285.031 1178.14,285.605 1180.13,286.438 1182.11,287.199 1184.1,287.958 1186.08,288.617 1188.06,289.556 1190.05,290.41 1192.03,291.15 1194.02,291.701 1196,292.211 1197.99,292.721 1199.97,292.956 1201.95,293.249 1203.94,293.316 1205.92,293.511 1207.91,293.809 1209.89,294.232 1211.87,295.013 1213.86,295.837 1215.84,296.668 1217.83,297.496 1219.81,298.175 1221.8,298.658 1223.78,299.261 1225.76,299.632 1227.75,300.012 1229.73,300.426 1231.72,300.845 1233.7,301.416 1235.69,301.914 1237.67,302.475 1239.65,302.954 1241.64,303.479 1243.62,303.956 1245.61,304.572 1247.59,305.212 1249.58,305.632 1251.56,306.372 1253.54,306.939 1255.53,307.817 1257.51,308.717 1259.5,309.508 1261.48,310.484 1263.47,311.417 1265.45,312.233 1267.43,312.974 1269.42,313.678 1271.4,314.53 1273.39,315.283 1275.37,315.813 1277.36,316.449 1279.34,316.733 1281.32,317.061 1283.31,317.518 1285.29,317.791 1287.28,317.967 1289.26,317.961 1291.24,317.713 1293.23,317.702 1295.21,317.607 1297.2,317.549 1299.18,317.639 1301.17,317.942 1303.15,318.409 1305.13,318.488 1307.12,318.887 1309.1,319.041 1311.09,319.055 1313.07,318.761 1315.06,318.632 1317.04,318.626 1319.02,318.456 1321.01,318.173 1322.99,317.883 1324.98,317.577 1326.96,317.222 1328.95,317.265 1330.93,317.43 1332.91,317.421 1334.9,317.341 1336.88,317.571 1338.87,317.561 1340.85,317.907 1342.84,318.394 1344.82,319.091 1346.8,319.529 1348.79,320.083 1350.77,320.386 1352.76,321.098 1354.74,321.907 1356.72,322.832 1358.71,323.517 1360.69,324.334 1362.68,325.224 1364.66,326.293 1366.65,327.519 1368.63,328.775 1370.61,329.992 1372.6,330.964 1374.58,331.81 1376.57,332.563 1378.55,333.196 1380.54,333.738 1382.52,334.501 1384.5,334.902 1386.49,335.096 1388.47,334.981 1390.46,334.759 1392.44,334.395 1394.43,334.349 1396.41,334.048 1398.39,333.712 1400.38,333.289 1402.36,332.833 1404.35,333.071 1406.33,332.955 1408.32,332.905 1410.3,332.91 1412.28,332.712 1414.27,332.786 1416.25,333.388 1418.24,333.7 1420.22,334 1422.2,334.635 1424.19,335.24 1426.17,336.477 1428.16,338.302 1430.14,339.791 1432.13,341.047 1434.11,342.129 1436.09,343.161 1438.08,343.945 1440.06,344.629 1442.05,345.347 1444.03,346.377 1446.02,347.722 1448,348.777 1449.98,349.629 1451.97,350.409 1453.95,350.989 1455.94,351.37 1457.92,351.824 1459.91,352.62 1461.89,353.006 1463.87,353.584 1465.86,354.361 1467.84,354.628 1469.83,355.205 1471.81,356.038 1473.8,356.799 1475.78,357.43 1477.76,357.359 1479.75,356.897 1481.73,355.883 1483.72,354.919 1485.7,353.926 1487.68,353.304 1489.67,352.938 1491.65,352.394 1493.64,351.429 1495.62,350.657 1497.61,349.892 1499.59,349.438 1501.57,349.726 1503.56,349.762 1505.54,349.92 1507.53,349.901 1509.51,349.794 1511.5,349.335 1513.48,349.216 1515.46,349.094 1517.45,349.18 1519.43,349.445 1521.42,349.982 1523.4,350.726 1525.39,351.941 1527.37,353.515 1529.35,354.841 1531.34,356.045 1533.32,357.115 1535.31,358.224 1537.29,359.335 1539.28,360.706 1541.26,361.398 1543.24,361.574 1545.23,361.259 1547.21,361.26 1549.2,361.12 1551.18,361.748 1553.16,362.525 1555.15,363.692 1557.13,364.45 1559.12,365.089 1561.1,365.926 1563.09,366.724 1565.07,367.152 1567.05,367 1569.04,366.438 1571.02,366.077 1573.01,365.225 1574.99,363.813 1576.98,362.072 1578.96,360.098 1580.94,358.021 1582.93,356.299 1584.91,354.754 1586.9,354.062 1588.88,354.027 1590.87,353.92 1592.85,353.256 1594.83,352.226 1596.82,350.934 1598.8,349.575 1600.79,348.802 1602.77,347.356 1604.76,346.149 1606.74,344.704 1608.72,343.268 1610.71,341.693 1612.69,340.527 1614.68,339.735 1616.66,338.968 1618.65,337.694 1620.63,336.696 1622.61,335.89 1624.6,335.379 1626.58,335.029 1628.57,334.614 1630.55,334.203 1632.53,333.985 1634.52,333.783 1636.5,333.829 1638.49,333.567 1640.47,333.427 1642.46,333.553 1644.44,333.445 1646.42,333.216 1648.41,333.007 1650.39,333.161 1652.38,332.841 1654.36,332.461 1656.35,332.553 1658.33,332.636 1660.31,332.592 1662.3,332.67 1664.28,332.817 1666.27,332.457 1668.25,332.536 1670.24,332.849 1672.22,333.833 1674.2,334.787 1676.19,335.661 1678.17,336.525 1680.16,337.128 1682.14,337.925 1684.13,338.62 1686.11,339.511 1688.09,340.2 1690.08,340.864 1692.06,341.399 1694.05,341.73 1696.03,342.321 1698.01,342.994 1700,343.382 1701.98,343.396 1703.97,343.357 1705.95,343.183 1707.94,342.999 1709.92,342.81 1711.9,341.945 1713.89,340.71 1715.87,339.463 1717.86,338.37 1719.84,337.432 1721.83,336.934 1723.81,336.735 1725.79,336.744 1727.78,336.706 1729.76,336.674 1731.75,336.988 1733.73,337.727 1735.72,338.204 1737.7,338.956 1739.68,339.555 1741.67,340.211 1743.65,340.898 1745.64,341.513 1747.62,341.886 1749.61,342.665 1751.59,343.477 1753.57,343.936 1755.56,344.709 1757.54,345.967 1759.53,347.182 1761.51,347.73 1763.49,348.846 1765.48,349.908 1767.46,350.742 1769.45,351.259 1771.43,352.13 1773.42,353.279 1775.4,353.88 1777.38,354.248 1779.37,354.895 1781.35,355.567 1783.34,355.71 1785.32,356.143 1787.31,356.225 1789.29,356.571 1791.27,356.213 1793.26,355.233 1795.24,354.376 1797.23,353.05 1799.21,351.682 1801.2,349.387 1803.18,347.354 1805.16,345.403 1807.15,344.156 1809.13,343.034 1811.12,342.105 1813.1,341.264 1815.09,340.719 1817.07,340.452 1819.05,339.985 1821.04,339.664 1823.02,339.515 1825.01,339.32 1826.99,339.308 1828.97,339.873 1830.96,340.108 1832.94,340.212 1834.93,340.1 1836.91,339.396 1838.9,338.719 1840.88,338.307 1842.86,338.172 1844.85,338.376 1846.83,338.389 1848.82,337.943 1850.8,337.674 1852.79,337.705 1854.77,337.107 1856.75,337.231 1858.74,337.165 1860.72,337.081 1862.71,337.025 1864.69,336.884 1866.68,336.72 1868.66,336.617 1870.64,336.633 1872.63,336.928 1874.61,337.16 1876.6,337.176 1878.58,337.285 1880.57,337.458 1882.55,337.567 1884.53,337.501 1886.52,337.72 1888.5,337.838 1890.49,337.992 1892.47,338.478 1894.46,338.888 1896.44,339.01 1898.42,339.328 1900.41,339.48 1902.39,339.703 1904.38,339.686 1906.36,339.637 1908.34,339.608 1910.33,339.172 1912.31,338.416 1914.3,337.093 1916.28,335.542 1918.27,333.881 1920.25,332.679 1922.23,331.358 1924.22,331.238 1926.2,331.025 1928.19,331.008 1930.17,330.809 1932.16,330.798 1934.14,330.755 1936.12,330.655 1938.11,330.282 1940.09,329.954 1942.08,330.018 1944.06,329.89 1946.05,329.697 1948.03,329.559 1950.01,329.352 1952,329.441 1953.98,329.66 1955.97,330.21 1957.95,331.03 1959.94,331.871 1961.92,332.944 1963.9,333.541 1965.89,334.188 1967.87,334.591 1969.86,334.866 1971.84,335.266 1973.82,335.392 1975.81,335.847 1977.79,336.574 1979.78,337.448 1981.76,337.987 1983.75,338.474 1985.73,339.103 1987.71,340.236 1989.7,341.031 1991.68,341.219 1993.67,341.478 1995.65,341.965 1997.64,342.532 1999.62,342.966 2001.6,343.259 2003.59,343.261 2005.57,343.517 2007.56,343.689 2009.54,343.608 2011.53,343.852 2013.51,344.258 2015.49,345.114 2017.48,345.926 2019.46,346.561 2021.45,346.826 2023.43,347.118 2025.42,347.562 2027.4,347.486 2029.38,347.675 2031.37,347.399 2033.35,346.957 2035.34,346.453 2037.32,345.745 2039.3,345.121 2041.29,344.821 2043.27,344.439 2045.26,343.311 2047.24,342.041 2049.23,340.888 2051.21,339.523 2053.19,338.382 2055.18,337.357 2057.16,336.346 2059.15,335.001 2061.13,333.743 2063.12,332.709 2065.1,332.129 2067.08,331.162 2069.07,330.725 2071.05,330.268 2073.04,329.19 2075.02,328.523 2077.01,327.957 2078.99,327.435 2080.97,326.953 2082.96,326.716 2084.94,326.133 2086.93,325.48 2088.91,325.074 2090.9,324.425 2092.88,323.83 2094.86,323.332 2096.85,322.626 2098.83,321.627 2100.82,320.657 2102.8,320.038 2104.78,319.494 2106.77,318.66 2108.75,317.602 2110.74,316.822 2112.72,315.72 2114.71,315.23 2116.69,314.484 2118.67,313.88 2120.66,313.255 2122.64,312.629 2124.63,312.258 2126.61,312.297 2128.6,312.25 2130.58,312.453 2132.56,312.629 2134.55,312.742 2136.53,312.731 2138.52,312.795 2140.5,313.06 2142.49,313.765 2144.47,314.439 2146.45,315.075 2148.44,315.602 2150.42,315.692 2152.41,315.54 2154.39,315.338 2156.38,314.826 2158.36,314.418 2160.34,313.788 2162.33,313.314 2164.31,313.053 2166.3,312.755 2168.28,312.311 2170.26,311.911 2172.25,311.642 2174.23,311.383 2176.22,311.67 2178.2,311.913 2180.19,312.144 2182.17,312.351 2184.15,312.566 2186.14,312.001 2188.12,311.312 2190.11,310.702 2192.09,309.912 2194.08,309.312 2196.06,308.619 2198.04,307.955 2200.03,307.139 2202.01,306.455 2204,305.692 2205.98,305.04 2207.97,304.519 2209.95,304.151 2211.93,304.048 2213.92,303.917 2215.9,303.586 2217.89,303.421 2219.87,303.51 2221.86,303.785 2223.84,304.238 2225.82,304.665 2227.81,304.913 2229.79,305.179 2231.78,305.194 2233.76,305.208 2235.75,305.288 2237.73,305.295 2239.71,305.307 2241.7,305.388 2243.68,305.621 2245.67,305.799 2247.65,305.769 2249.63,305.754 2251.62,305.416 2253.6,305.226 2255.59,305.12 2257.57,304.915 2259.56,304.905 2261.54,305.056 2263.52,305.129 2265.51,305.261 2267.49,305.453 2269.48,305.571 2271.46,305.699 2273.45,305.666 2275.43,305.499 2277.41,305.702 2279.4,305.852 2281.38,306.079 2283.37,306.256 2285.35,306.165 2287.34,306.594 2289.32,306.766 2291.3,306.928 2293.29,306.964 "/>
<polyline clip-path="url(#clip002)" style="stroke:#e26f46; stroke-linecap:round; stroke-linejoin:round; stroke-width:4; stroke-opacity:1; fill:none" points="311.028,86.1857 313.012,86.5729 314.997,86.963 316.981,87.3544 318.965,87.7468 320.949,88.1422 322.934,88.5389 324.918,88.9376 326.902,89.3377 328.886,89.7397 330.87,90.1431 332.855,90.548 334.839,90.9544 336.823,91.3618 338.807,91.7704 340.792,92.181 342.776,92.5947 344.76,93.0099 346.744,93.4276 348.729,93.8451 350.713,94.2629 352.697,94.6832 354.681,95.105 356.666,95.5288 358.65,95.9545 360.634,96.3822 362.618,96.8109 364.603,97.2416 366.587,97.6733 368.571,98.107 370.555,98.541 372.54,98.9771 374.524,99.4144 376.508,99.8558 378.492,100.3 380.477,100.745 382.461,101.191 384.445,101.637 386.429,102.085 388.414,102.535 390.398,102.985 392.382,103.435 394.366,103.886 396.351,104.338 398.335,104.789 400.319,105.241 402.303,105.694 404.288,106.148 406.272,106.605 408.256,107.066 410.24,107.529 412.225,107.994 414.209,108.46 416.193,108.925 418.177,109.393 420.161,109.861 422.146,110.329 424.13,110.798 426.114,111.269 428.098,111.743 430.083,112.217 432.067,112.696 434.051,113.174 436.035,113.652 438.02,114.13 440.004,114.611 441.988,115.095 443.972,115.581 445.957,116.069 447.941,116.558 449.925,117.049 451.909,117.54 453.894,118.032 455.878,118.525 457.862,119.02 459.846,119.516 461.831,120.013 463.815,120.512 465.799,121.017 467.783,121.52 469.768,122.024 471.752,122.53 473.736,123.038 475.72,123.545 477.705,124.052 479.689,124.559 481.673,125.069 483.657,125.579 485.642,126.095 487.626,126.612 489.61,127.129 491.594,127.646 493.579,128.168 495.563,128.689 497.547,129.216 499.531,129.746 501.516,130.275 503.5,130.806 505.484,131.342 507.468,131.879 509.452,132.416 511.437,132.95 513.421,133.483 515.405,134.016 517.389,134.551 519.374,135.087 521.358,135.622 523.342,136.161 525.326,136.698 527.311,137.234 529.295,137.768 531.279,138.304 533.263,138.842 535.248,139.381 537.232,139.922 539.216,140.468 541.2,141.016 543.185,141.562 545.169,142.113 547.153,142.667 549.137,143.219 551.122,143.771 553.106,144.326 555.09,144.884 557.074,145.447 559.059,146.016 561.043,146.588 563.027,147.168 565.011,147.747 566.996,148.322 568.98,148.9 570.964,149.48 572.948,150.067 574.933,150.658 576.917,151.248 578.901,151.835 580.885,152.42 582.87,153.005 584.854,153.599 586.838,154.195 588.822,154.795 590.806,155.395 592.791,156.001 594.775,156.609 596.759,157.215 598.743,157.827 600.728,158.441 602.712,159.057 604.696,159.675 606.68,160.291 608.665,160.906 610.649,161.519 612.633,162.135 614.617,162.747 616.602,163.361 618.586,163.974 620.57,164.593 622.554,165.21 624.539,165.827 626.523,166.447 628.507,167.069 630.491,167.687 632.476,168.303 634.46,168.919 636.444,169.536 638.428,170.155 640.413,170.775 642.397,171.397 644.381,172.024 646.365,172.65 648.35,173.272 650.334,173.903 652.318,174.544 654.302,175.185 656.287,175.828 658.271,176.47 660.255,177.114 662.239,177.755 664.224,178.393 666.208,179.036 668.192,179.678 670.176,180.329 672.161,180.979 674.145,181.635 676.129,182.287 678.113,182.943 680.097,183.604 682.082,184.269 684.066,184.935 686.05,185.606 688.034,186.279 690.019,186.957 692.003,187.639 693.987,188.323 695.971,189.003 697.956,189.68 699.94,190.358 701.924,191.037 703.908,191.72 705.893,192.4 707.877,193.089 709.861,193.783 711.845,194.476 713.83,195.166 715.814,195.857 717.798,196.549 719.782,197.238 721.767,197.929 723.751,198.616 725.735,199.302 727.719,199.996 729.704,200.694 731.688,201.396 733.672,202.102 735.656,202.799 737.641,203.493 739.625,204.186 741.609,204.883 743.593,205.586 745.578,206.295 747.562,207.021 749.546,207.746 751.53,208.473 753.515,209.194 755.499,209.905 757.483,210.622 759.467,211.341 761.452,212.06 763.436,212.786 765.42,213.515 767.404,214.262 769.388,215.011 771.373,215.754 773.357,216.511 775.341,217.283 777.325,218.048 779.31,218.807 781.294,219.567 783.278,220.339 785.262,221.112 787.247,221.899 789.231,222.677 791.215,223.458 793.199,224.241 795.184,225.022 797.168,225.812 799.152,226.586 801.136,227.365 803.121,228.15 805.105,228.94 807.089,229.727 809.073,230.517 811.058,231.303 813.042,232.09 815.026,232.869 817.01,233.65 818.995,234.434 820.979,235.226 822.963,236.023 824.947,236.841 826.932,237.662 828.916,238.486 830.9,239.308 832.884,240.126 834.869,240.939 836.853,241.755 838.837,242.573 840.821,243.397 842.806,244.212 844.79,245.025 846.774,245.83 848.758,246.64 850.743,247.456 852.727,248.272 854.711,249.084 856.695,249.9 858.679,250.719 860.664,251.543 862.648,252.363 864.632,253.183 866.616,254.009 868.601,254.823 870.585,255.646 872.569,256.478 874.553,257.321 876.538,258.166 878.522,259.008 880.506,259.839 882.49,260.668 884.475,261.506 886.459,262.358 888.443,263.214 890.427,264.076 892.412,264.944 894.396,265.828 896.38,266.707 898.364,267.581 900.349,268.458 902.333,269.345 904.317,270.242 906.301,271.164 908.286,272.08 910.27,272.988 912.254,273.904 914.238,274.813 916.223,275.725 918.207,276.636 920.191,277.55 922.175,278.452 924.16,279.347 926.144,280.236 928.128,281.119 930.112,282.012 932.097,282.906 934.081,283.806 936.065,284.712 938.049,285.613 940.033,286.519 942.018,287.422 944.002,288.327 945.986,289.234 947.97,290.142 949.955,291.05 951.939,291.957 953.923,292.865 955.907,293.771 957.892,294.674 959.876,295.585 961.86,296.497 963.844,297.418 965.829,298.355 967.813,299.294 969.797,300.232 971.781,301.165 973.766,302.084 975.75,303.003 977.734,303.935 979.718,304.861 981.703,305.777 983.687,306.697 985.671,307.617 987.655,308.553 989.64,309.506 991.624,310.468 993.608,311.438 995.592,312.42 997.577,313.4 999.561,314.368 1001.55,315.342 1003.53,316.316 1005.51,317.304 1007.5,318.278 1009.48,319.26 1011.47,320.238 1013.45,321.22 1015.43,322.205 1017.42,323.19 1019.4,324.189 1021.39,325.191 1023.37,326.194 1025.36,327.193 1027.34,328.186 1029.32,329.184 1031.31,330.185 1033.29,331.194 1035.28,332.201 1037.26,333.205 1039.25,334.205 1041.23,335.203 1043.21,336.199 1045.2,337.206 1047.18,338.227 1049.17,339.234 1051.15,340.252 1053.14,341.284 1055.12,342.335 1057.1,343.372 1059.09,344.401 1061.07,345.44 1063.06,346.481 1065.04,347.526 1067.03,348.58 1069.01,349.643 1070.99,350.702 1072.98,351.755 1074.96,352.808 1076.95,353.85 1078.93,354.896 1080.91,355.939 1082.9,356.996 1084.88,358.054 1086.87,359.114 1088.85,360.174 1090.84,361.238 1092.82,362.303 1094.8,363.376 1096.79,364.454 1098.77,365.543 1100.76,366.646 1102.74,367.745 1104.73,368.83 1106.71,369.911 1108.69,370.99 1110.68,372.079 1112.66,373.176 1114.65,374.272 1116.63,375.367 1118.62,376.462 1120.6,377.544 1122.58,378.633 1124.57,379.733 1126.55,380.845 1128.54,381.964 1130.52,383.082 1132.51,384.197 1134.49,385.302 1136.47,386.405 1138.46,387.496 1140.44,388.59 1142.43,389.675 1144.41,390.761 1146.39,391.853 1148.38,392.958 1150.36,394.074 1152.35,395.189 1154.33,396.301 1156.32,397.401 1158.3,398.509 1160.28,399.622 1162.27,400.732 1164.25,401.846 1166.24,402.968 1168.22,404.092 1170.21,405.211 1172.19,406.335 1174.17,407.465 1176.16,408.605 1178.14,409.734 1180.13,410.854 1182.11,411.967 1184.1,413.088 1186.08,414.216 1188.06,415.349 1190.05,416.497 1192.03,417.643 1194.02,418.778 1196,419.906 1197.99,421.022 1199.97,422.152 1201.95,423.299 1203.94,424.467 1205.92,425.627 1207.91,426.798 1209.89,427.967 1211.87,429.145 1213.86,430.33 1215.84,431.508 1217.83,432.696 1219.81,433.888 1221.8,435.075 1223.78,436.268 1225.76,437.469 1227.75,438.662 1229.73,439.863 1231.72,441.048 1233.7,442.236 1235.69,443.428 1237.67,444.632 1239.65,445.848 1241.64,447.071 1243.62,448.297 1245.61,449.514 1247.59,450.724 1249.58,451.931 1251.56,453.142 1253.54,454.371 1255.53,455.602 1257.51,456.841 1259.5,458.077 1261.48,459.324 1263.47,460.575 1265.45,461.822 1267.43,463.075 1269.42,464.332 1271.4,465.597 1273.39,466.857 1275.37,468.115 1277.36,469.378 1279.34,470.627 1281.32,471.874 1283.31,473.124 1285.29,474.376 1287.28,475.623 1289.26,476.867 1291.24,478.099 1293.23,479.338 1295.21,480.575 1297.2,481.818 1299.18,483.059 1301.17,484.304 1303.15,485.537 1305.13,486.769 1307.12,488.009 1309.1,489.257 1311.09,490.525 1313.07,491.784 1315.06,493.052 1317.04,494.326 1319.02,495.59 1321.01,496.852 1322.99,498.103 1324.98,499.373 1326.96,500.637 1328.95,501.899 1330.93,503.163 1332.91,504.443 1334.9,505.725 1336.88,507.007 1338.87,508.306 1340.85,509.613 1342.84,510.914 1344.82,512.216 1346.8,513.516 1348.79,514.803 1350.77,516.093 1352.76,517.379 1354.74,518.663 1356.72,519.969 1358.71,521.279 1360.69,522.598 1362.68,523.908 1364.66,525.235 1366.65,526.564 1368.63,527.906 1370.61,529.264 1372.6,530.624 1374.58,531.997 1376.57,533.377 1378.55,534.749 1380.54,536.12 1382.52,537.488 1384.5,538.856 1386.49,540.22 1388.47,541.575 1390.46,542.924 1392.44,544.264 1394.43,545.612 1396.41,546.945 1398.39,548.279 1400.38,549.62 1402.36,550.956 1404.35,552.306 1406.33,553.654 1408.32,555.018 1410.3,556.377 1412.28,557.723 1414.27,559.073 1416.25,560.436 1418.24,561.793 1420.22,563.164 1422.2,564.518 1424.19,565.885 1426.17,567.234 1428.16,568.588 1430.14,569.938 1432.13,571.302 1434.11,572.678 1436.09,574.049 1438.08,575.437 1440.06,576.844 1442.05,578.245 1444.03,579.652 1446.02,581.063 1448,582.472 1449.98,583.882 1451.97,585.287 1453.95,586.685 1455.94,588.08 1457.92,589.481 1459.91,590.883 1461.89,592.281 1463.87,593.686 1465.86,595.083 1467.84,596.505 1469.83,597.921 1471.81,599.33 1473.8,600.749 1475.78,602.172 1477.76,603.622 1479.75,605.055 1481.73,606.487 1483.72,607.944 1485.7,609.397 1487.68,610.869 1489.67,612.358 1491.65,613.83 1493.64,615.298 1495.62,616.781 1497.61,618.272 1499.59,619.767 1501.57,621.254 1503.56,622.751 1505.54,624.224 1507.53,625.703 1509.51,627.166 1511.5,628.633 1513.48,630.109 1515.46,631.588 1517.45,633.064 1519.43,634.519 1521.42,635.99 1523.4,637.475 1525.39,638.972 1527.37,640.467 1529.35,641.961 1531.34,643.447 1533.32,644.921 1535.31,646.396 1537.29,647.866 1539.28,649.34 1541.26,650.826 1543.24,652.299 1545.23,653.771 1547.21,655.248 1549.2,656.721 1551.18,658.21 1553.16,659.712 1555.15,661.217 1557.13,662.723 1559.12,664.244 1561.1,665.761 1563.09,667.269 1565.07,668.759 1567.05,670.233 1569.04,671.684 1571.02,673.137 1573.01,674.592 1574.99,676.035 1576.98,677.495 1578.96,678.993 1580.94,680.49 1582.93,681.986 1584.91,683.51 1586.9,685.068 1588.88,686.612 1590.87,688.156 1592.85,689.707 1594.83,691.255 1596.82,692.821 1598.8,694.392 1600.79,695.944 1602.77,697.498 1604.76,699.054 1606.74,700.605 1608.72,702.131 1610.71,703.648 1612.69,705.161 1614.68,706.699 1616.66,708.253 1618.65,709.803 1620.63,711.386 1622.61,712.958 1624.6,714.556 1626.58,716.139 1628.57,717.73 1630.55,719.34 1632.53,720.937 1634.52,722.526 1636.5,724.126 1638.49,725.706 1640.47,727.318 1642.46,728.946 1644.44,730.565 1646.42,732.192 1648.41,733.836 1650.39,735.482 1652.38,737.122 1654.36,738.759 1656.35,740.404 1658.33,742.054 1660.31,743.677 1662.3,745.302 1664.28,746.949 1666.27,748.605 1668.25,750.254 1670.24,751.91 1672.22,753.568 1674.2,755.222 1676.19,756.872 1678.17,758.51 1680.16,760.16 1682.14,761.806 1684.13,763.473 1686.11,765.145 1688.09,766.837 1690.08,768.521 1692.06,770.211 1694.05,771.928 1696.03,773.641 1698.01,775.378 1700,777.137 1701.98,778.889 1703.97,780.64 1705.95,782.379 1707.94,784.13 1709.92,785.869 1711.9,787.609 1713.89,789.328 1715.87,791.06 1717.86,792.777 1719.84,794.508 1721.83,796.22 1723.81,797.948 1725.79,799.671 1727.78,801.396 1729.76,803.126 1731.75,804.857 1733.73,806.568 1735.72,808.279 1737.7,809.978 1739.68,811.674 1741.67,813.357 1743.65,815.05 1745.64,816.727 1747.62,818.408 1749.61,820.105 1751.59,821.767 1753.57,823.413 1755.56,825.054 1757.54,826.695 1759.53,828.366 1761.51,830.012 1763.49,831.652 1765.48,833.323 1767.46,834.968 1769.45,836.585 1771.43,838.24 1773.42,839.962 1775.4,841.677 1777.38,843.359 1779.37,845.075 1781.35,846.827 1783.34,848.582 1785.32,850.335 1787.31,852.117 1789.29,853.905 1791.27,855.709 1793.26,857.515 1795.24,859.327 1797.23,861.113 1799.21,862.859 1801.2,864.59 1803.18,866.317 1805.16,868.025 1807.15,869.727 1809.13,871.415 1811.12,873.136 1813.1,874.834 1815.09,876.519 1817.07,878.176 1819.05,879.828 1821.04,881.504 1823.02,883.206 1825.01,884.884 1826.99,886.578 1828.97,888.276 1830.96,889.967 1832.94,891.632 1834.93,893.314 1836.91,894.99 1838.9,896.692 1840.88,898.399 1842.86,900.169 1844.85,901.959 1846.83,903.745 1848.82,905.512 1850.8,907.271 1852.79,909.025 1854.77,910.774 1856.75,912.548 1858.74,914.294 1860.72,916.058 1862.71,917.842 1864.69,919.673 1866.68,921.497 1868.66,923.341 1870.64,925.19 1872.63,927.058 1874.61,928.939 1876.6,930.834 1878.58,932.747 1880.57,934.671 1882.55,936.619 1884.53,938.59 1886.52,940.551 1888.5,942.532 1890.49,944.506 1892.47,946.501 1894.46,948.455 1896.44,950.411 1898.42,952.358 1900.41,954.273 1902.39,956.169 1904.38,958.071 1906.36,959.966 1908.34,961.882 1910.33,963.815 1912.31,965.774 1914.3,967.716 1916.28,969.636 1918.27,971.545 1920.25,973.408 1922.23,975.302 1924.22,977.238 1926.2,979.153 1928.19,981.097 1930.17,983.036 1932.16,985.01 1934.14,987.029 1936.12,989.043 1938.11,991.044 1940.09,993.031 1942.08,995.031 1944.06,997.052 1946.05,999.069 1948.03,1001.06 1950.01,1003.02 1952,1004.99 1953.98,1006.95 1955.97,1008.92 1957.95,1010.92 1959.94,1012.92 1961.92,1014.9 1963.9,1016.91 1965.89,1018.93 1967.87,1020.93 1969.86,1022.94 1971.84,1024.93 1973.82,1026.89 1975.81,1028.83 1977.79,1030.77 1979.78,1032.69 1981.76,1034.67 1983.75,1036.68 1985.73,1038.73 1987.71,1040.75 1989.7,1042.76 1991.68,1044.79 1993.67,1046.79 1995.65,1048.75 1997.64,1050.72 1999.62,1052.68 2001.6,1054.69 2003.59,1056.73 2005.57,1058.78 2007.56,1060.86 2009.54,1062.95 2011.53,1065.03 2013.51,1067.08 2015.49,1069.15 2017.48,1071.19 2019.46,1073.24 2021.45,1075.34 2023.43,1077.47 2025.42,1079.57 2027.4,1081.63 2029.38,1083.68 2031.37,1085.75 2033.35,1087.81 2035.34,1089.84 2037.32,1091.9 2039.3,1093.96 2041.29,1096 2043.27,1098.09 2045.26,1100.19 2047.24,1102.29 2049.23,1104.38 2051.21,1106.5 2053.19,1108.64 2055.18,1110.74 2057.16,1112.86 2059.15,1114.97 2061.13,1117.1 2063.12,1119.26 2065.1,1121.4 2067.08,1123.54 2069.07,1125.69 2071.05,1127.84 2073.04,1129.97 2075.02,1132.1 2077.01,1134.22 2078.99,1136.31 2080.97,1138.4 2082.96,1140.53 2084.94,1142.67 2086.93,1144.81 2088.91,1146.94 2090.9,1149.12 2092.88,1151.32 2094.86,1153.51 2096.85,1155.68 2098.83,1157.86 2100.82,1160.02 2102.8,1162.14 2104.78,1164.28 2106.77,1166.39 2108.75,1168.51 2110.74,1170.62 2112.72,1172.73 2114.71,1174.89 2116.69,1177.03 2118.67,1179.2 2120.66,1181.35 2122.64,1183.49 2124.63,1185.65 2126.61,1187.81 2128.6,1189.97 2130.58,1192.18 2132.56,1194.41 2134.55,1196.65 2136.53,1198.87 2138.52,1201.11 2140.5,1203.34 2142.49,1205.61 2144.47,1207.86 2146.45,1210.11 2148.44,1212.35 2150.42,1214.59 2152.41,1216.81 2154.39,1219.05 2156.38,1221.29 2158.36,1223.52 2160.34,1225.77 2162.33,1228 2164.31,1230.22 2166.3,1232.46 2168.28,1234.69 2170.26,1236.94 2172.25,1239.19 2174.23,1241.45 2176.22,1243.72 2178.2,1245.98 2180.19,1248.27 2182.17,1250.56 2184.15,1252.86 2186.14,1255.16 2188.12,1257.49 2190.11,1259.84 2192.09,1262.16 2194.08,1264.5 2196.06,1266.81 2198.04,1269.12 2200.03,1271.41 2202.01,1273.74 2204,1276.06 2205.98,1278.4 2207.97,1280.78 2209.95,1283.15 2211.93,1285.5 2213.92,1287.86 2215.9,1290.21 2217.89,1292.58 2219.87,1294.97 2221.86,1297.36 2223.84,1299.81 2225.82,1302.26 2227.81,1304.7 2229.79,1307.15 2231.78,1309.59 2233.76,1312.01 2235.75,1314.42 2237.73,1316.82 2239.71,1319.22 2241.7,1321.56 2243.68,1323.88 2245.67,1326.21 2247.65,1328.51 2249.63,1330.84 2251.62,1333.12 2253.6,1335.35 2255.59,1337.62 2257.57,1339.89 2259.56,1342.17 2261.54,1344.5 2263.52,1346.8 2265.51,1349.08 2267.49,1351.37 2269.48,1353.69 2271.46,1356.09 2273.45,1358.5 2275.43,1360.94 2277.41,1363.38 2279.4,1365.87 2281.38,1368.5 2283.37,1371.09 2285.35,1373.69 2287.34,1376.36 2289.32,1378.98 2291.3,1381.64 2293.29,1384.24 "/>
<path clip-path="url(#clip000)" d="M1864.89 248.629 L2282.72 248.629 L2282.72 93.1086 L1864.89 93.1086  Z" fill="#ffffff" fill-rule="evenodd" fill-opacity="1"/>
<polyline clip-path="url(#clip000)" style="stroke:#000000; stroke-linecap:round; stroke-linejoin:round; stroke-width:4; stroke-opacity:1; fill:none" points="1864.89,248.629 2282.72,248.629 2282.72,93.1086 1864.89,93.1086 1864.89,248.629 "/>
<polyline clip-path="url(#clip000)" style="stroke:#009af9; stroke-linecap:round; stroke-linejoin:round; stroke-width:4; stroke-opacity:1; fill:none" points="1888.24,144.949 2028.32,144.949 "/>
<path clip-path="url(#clip000)" d="M2056.34 145.724 L2056.34 158.386 L2063.84 158.386 Q2067.61 158.386 2069.42 156.835 Q2071.25 155.261 2071.25 152.043 Q2071.25 148.803 2069.42 147.275 Q2067.61 145.724 2063.84 145.724 L2056.34 145.724 M2056.34 131.511 L2056.34 141.928 L2063.26 141.928 Q2066.69 141.928 2068.35 140.655 Q2070.04 139.358 2070.04 136.719 Q2070.04 134.104 2068.35 132.807 Q2066.69 131.511 2063.26 131.511 L2056.34 131.511 M2051.66 127.669 L2063.61 127.669 Q2068.95 127.669 2071.85 129.891 Q2074.74 132.113 2074.74 136.21 Q2074.74 139.382 2073.26 141.257 Q2071.78 143.131 2068.91 143.594 Q2072.36 144.335 2074.25 146.696 Q2076.18 149.034 2076.18 152.553 Q2076.18 157.182 2073.03 159.705 Q2069.88 162.229 2064.07 162.229 L2051.66 162.229 L2051.66 127.669 Z" fill="#000000" fill-rule="nonzero" fill-opacity="1" /><path clip-path="url(#clip000)" d="M2088.86 145.724 L2088.86 158.386 L2096.36 158.386 Q2100.13 158.386 2101.94 156.835 Q2103.77 155.261 2103.77 152.043 Q2103.77 148.803 2101.94 147.275 Q2100.13 145.724 2096.36 145.724 L2088.86 145.724 M2088.86 131.511 L2088.86 141.928 L2095.78 141.928 Q2099.21 141.928 2100.87 140.655 Q2102.56 139.358 2102.56 136.719 Q2102.56 134.104 2100.87 132.807 Q2099.21 131.511 2095.78 131.511 L2088.86 131.511 M2084.19 127.669 L2096.13 127.669 Q2101.48 127.669 2104.37 129.891 Q2107.26 132.113 2107.26 136.21 Q2107.26 139.382 2105.78 141.257 Q2104.3 143.131 2101.43 143.594 Q2104.88 144.335 2106.78 146.696 Q2108.7 149.034 2108.7 152.553 Q2108.7 157.182 2105.55 159.705 Q2102.4 162.229 2096.59 162.229 L2084.19 162.229 L2084.19 127.669 Z" fill="#000000" fill-rule="nonzero" fill-opacity="1" /><path clip-path="url(#clip000)" d="M2124.16 162.229 L2110.97 127.669 L2115.85 127.669 L2126.8 156.766 L2137.77 127.669 L2142.63 127.669 L2129.46 162.229 L2124.16 162.229 Z" fill="#000000" fill-rule="nonzero" fill-opacity="1" /><path clip-path="url(#clip000)" d="M2147.68 127.669 L2152.36 127.669 L2152.36 162.229 L2147.68 162.229 L2147.68 127.669 Z" fill="#000000" fill-rule="nonzero" fill-opacity="1" /><path clip-path="url(#clip000)" d="M2202.61 130.331 L2202.61 135.261 Q2200.25 133.062 2197.56 131.974 Q2194.9 130.886 2191.89 130.886 Q2185.97 130.886 2182.82 134.52 Q2179.67 138.132 2179.67 144.983 Q2179.67 151.812 2182.82 155.446 Q2185.97 159.057 2191.89 159.057 Q2194.9 159.057 2197.56 157.969 Q2200.25 156.881 2202.61 154.682 L2202.61 159.567 Q2200.16 161.233 2197.4 162.067 Q2194.67 162.9 2191.62 162.9 Q2183.77 162.9 2179.25 158.108 Q2174.74 153.293 2174.74 144.983 Q2174.74 136.65 2179.25 131.858 Q2183.77 127.044 2191.62 127.044 Q2194.72 127.044 2197.45 127.877 Q2200.2 128.687 2202.61 130.331 Z" fill="#000000" fill-rule="nonzero" fill-opacity="1" /><path clip-path="url(#clip000)" d="M2209.83 127.669 L2229.69 127.669 L2229.69 131.604 L2214.51 131.604 L2214.51 141.789 L2228.21 141.789 L2228.21 145.724 L2214.51 145.724 L2214.51 162.229 L2209.83 162.229 L2209.83 127.669 Z" fill="#000000" fill-rule="nonzero" fill-opacity="1" /><path clip-path="url(#clip000)" d="M2237.1 127.669 L2258.95 127.669 L2258.95 131.604 L2241.78 131.604 L2241.78 141.835 L2258.24 141.835 L2258.24 145.77 L2241.78 145.77 L2241.78 158.293 L2259.37 158.293 L2259.37 162.229 L2237.1 162.229 L2237.1 127.669 Z" fill="#000000" fill-rule="nonzero" fill-opacity="1" /><polyline clip-path="url(#clip000)" style="stroke:#e26f46; stroke-linecap:round; stroke-linejoin:round; stroke-width:4; stroke-opacity:1; fill:none" points="1888.24,196.789 2028.32,196.789 "/>
<path clip-path="url(#clip000)" d="M2056.34 197.564 L2056.34 210.226 L2063.84 210.226 Q2067.61 210.226 2069.42 208.675 Q2071.25 207.101 2071.25 203.883 Q2071.25 200.643 2069.42 199.115 Q2067.61 197.564 2063.84 197.564 L2056.34 197.564 M2056.34 183.351 L2056.34 193.768 L2063.26 193.768 Q2066.69 193.768 2068.35 192.495 Q2070.04 191.198 2070.04 188.559 Q2070.04 185.944 2068.35 184.647 Q2066.69 183.351 2063.26 183.351 L2056.34 183.351 M2051.66 179.509 L2063.61 179.509 Q2068.95 179.509 2071.85 181.731 Q2074.74 183.953 2074.74 188.05 Q2074.74 191.222 2073.26 193.097 Q2071.78 194.971 2068.91 195.434 Q2072.36 196.175 2074.25 198.536 Q2076.18 200.874 2076.18 204.393 Q2076.18 209.022 2073.03 211.545 Q2069.88 214.069 2064.07 214.069 L2051.66 214.069 L2051.66 179.509 Z" fill="#000000" fill-rule="nonzero" fill-opacity="1" /><path clip-path="url(#clip000)" d="M2088.86 197.564 L2088.86 210.226 L2096.36 210.226 Q2100.13 210.226 2101.94 208.675 Q2103.77 207.101 2103.77 203.883 Q2103.77 200.643 2101.94 199.115 Q2100.13 197.564 2096.36 197.564 L2088.86 197.564 M2088.86 183.351 L2088.86 193.768 L2095.78 193.768 Q2099.21 193.768 2100.87 192.495 Q2102.56 191.198 2102.56 188.559 Q2102.56 185.944 2100.87 184.647 Q2099.21 183.351 2095.78 183.351 L2088.86 183.351 M2084.19 179.509 L2096.13 179.509 Q2101.48 179.509 2104.37 181.731 Q2107.26 183.953 2107.26 188.05 Q2107.26 191.222 2105.78 193.097 Q2104.3 194.971 2101.43 195.434 Q2104.88 196.175 2106.78 198.536 Q2108.7 200.874 2108.7 204.393 Q2108.7 209.022 2105.55 211.545 Q2102.4 214.069 2096.59 214.069 L2084.19 214.069 L2084.19 179.509 Z" fill="#000000" fill-rule="nonzero" fill-opacity="1" /><path clip-path="url(#clip000)" d="M2124.16 214.069 L2110.97 179.509 L2115.85 179.509 L2126.8 208.606 L2137.77 179.509 L2142.63 179.509 L2129.46 214.069 L2124.16 214.069 Z" fill="#000000" fill-rule="nonzero" fill-opacity="1" /><path clip-path="url(#clip000)" d="M2147.68 179.509 L2152.36 179.509 L2152.36 214.069 L2147.68 214.069 L2147.68 179.509 Z" fill="#000000" fill-rule="nonzero" fill-opacity="1" /><path clip-path="url(#clip000)" d="M2197.45 180.643 L2197.45 185.203 Q2194.79 183.93 2192.43 183.305 Q2190.06 182.68 2187.87 182.68 Q2184.05 182.68 2181.96 184.161 Q2179.9 185.643 2179.9 188.374 Q2179.9 190.666 2181.27 191.847 Q2182.66 193.004 2186.5 193.722 L2189.32 194.3 Q2194.55 195.296 2197.03 197.819 Q2199.53 200.319 2199.53 204.532 Q2199.53 209.555 2196.15 212.147 Q2192.8 214.74 2186.29 214.74 Q2183.84 214.74 2181.06 214.184 Q2178.31 213.629 2175.34 212.541 L2175.34 207.726 Q2178.19 209.323 2180.92 210.133 Q2183.65 210.944 2186.29 210.944 Q2190.3 210.944 2192.47 209.37 Q2194.65 207.796 2194.65 204.879 Q2194.65 202.333 2193.07 200.897 Q2191.52 199.462 2187.96 198.745 L2185.11 198.189 Q2179.88 197.147 2177.54 194.925 Q2175.2 192.703 2175.2 188.745 Q2175.2 184.161 2178.42 181.522 Q2181.66 178.884 2187.33 178.884 Q2189.76 178.884 2192.29 179.323 Q2194.81 179.763 2197.45 180.643 Z" fill="#000000" fill-rule="nonzero" fill-opacity="1" /><path clip-path="url(#clip000)" d="M2202.03 179.509 L2231.27 179.509 L2231.27 183.444 L2219 183.444 L2219 214.069 L2214.3 214.069 L2214.3 183.444 L2202.03 183.444 L2202.03 179.509 Z" fill="#000000" fill-rule="nonzero" fill-opacity="1" /><path clip-path="url(#clip000)" d="M2235.78 179.509 L2240.46 179.509 L2240.46 210.133 L2257.29 210.133 L2257.29 214.069 L2235.78 214.069 L2235.78 179.509 Z" fill="#000000" fill-rule="nonzero" fill-opacity="1" /></svg>
