<?xml version="1.0" encoding="utf-8"?>
<svg xmlns="http://www.w3.org/2000/svg" xmlns:xlink="http://www.w3.org/1999/xlink" width="600" height="400" viewBox="0 0 2400 1600">
<defs>
  <clipPath id="clip680">
    <rect x="0" y="0" width="2400" height="1600"/>
  </clipPath>
</defs>
<path clip-path="url(#clip680)" d="M0 1600 L2400 1600 L2400 0 L0 0  Z" fill="#ffffff" fill-rule="evenodd" fill-opacity="1"/>
<defs>
  <clipPath id="clip681">
    <rect x="175" y="47" width="2178" height="1377"/>
  </clipPath>
</defs>
<path clip-path="url(#clip680)" d="M242.135 1423.18 L2352.76 1423.18 L2352.76 47.2441 L242.135 47.2441  Z" fill="#ffffff" fill-rule="evenodd" fill-opacity="1"/>
<defs>
  <clipPath id="clip682">
    <rect x="242" y="47" width="2112" height="1377"/>
  </clipPath>
</defs>
<polyline clip-path="url(#clip682)" style="stroke:#000000; stroke-linecap:round; stroke-linejoin:round; stroke-width:2; stroke-opacity:0.1; fill:none" points="299.876,1423.18 299.876,47.2441 "/>
<polyline clip-path="url(#clip682)" style="stroke:#000000; stroke-linecap:round; stroke-linejoin:round; stroke-width:2; stroke-opacity:0.1; fill:none" points="798.162,1423.18 798.162,47.2441 "/>
<polyline clip-path="url(#clip682)" style="stroke:#000000; stroke-linecap:round; stroke-linejoin:round; stroke-width:2; stroke-opacity:0.1; fill:none" points="1296.45,1423.18 1296.45,47.2441 "/>
<polyline clip-path="url(#clip682)" style="stroke:#000000; stroke-linecap:round; stroke-linejoin:round; stroke-width:2; stroke-opacity:0.1; fill:none" points="1794.74,1423.18 1794.74,47.2441 "/>
<polyline clip-path="url(#clip682)" style="stroke:#000000; stroke-linecap:round; stroke-linejoin:round; stroke-width:2; stroke-opacity:0.1; fill:none" points="2293.02,1423.18 2293.02,47.2441 "/>
<polyline clip-path="url(#clip682)" style="stroke:#000000; stroke-linecap:round; stroke-linejoin:round; stroke-width:2; stroke-opacity:0.1; fill:none" points="242.135,1206.92 2352.76,1206.92 "/>
<polyline clip-path="url(#clip682)" style="stroke:#000000; stroke-linecap:round; stroke-linejoin:round; stroke-width:2; stroke-opacity:0.1; fill:none" points="242.135,881.256 2352.76,881.256 "/>
<polyline clip-path="url(#clip682)" style="stroke:#000000; stroke-linecap:round; stroke-linejoin:round; stroke-width:2; stroke-opacity:0.1; fill:none" points="242.135,555.587 2352.76,555.587 "/>
<polyline clip-path="url(#clip682)" style="stroke:#000000; stroke-linecap:round; stroke-linejoin:round; stroke-width:2; stroke-opacity:0.1; fill:none" points="242.135,229.919 2352.76,229.919 "/>
<polyline clip-path="url(#clip680)" style="stroke:#000000; stroke-linecap:round; stroke-linejoin:round; stroke-width:4; stroke-opacity:1; fill:none" points="242.135,1423.18 2352.76,1423.18 "/>
<polyline clip-path="url(#clip680)" style="stroke:#000000; stroke-linecap:round; stroke-linejoin:round; stroke-width:4; stroke-opacity:1; fill:none" points="299.876,1423.18 299.876,1404.28 "/>
<polyline clip-path="url(#clip680)" style="stroke:#000000; stroke-linecap:round; stroke-linejoin:round; stroke-width:4; stroke-opacity:1; fill:none" points="798.162,1423.18 798.162,1404.28 "/>
<polyline clip-path="url(#clip680)" style="stroke:#000000; stroke-linecap:round; stroke-linejoin:round; stroke-width:4; stroke-opacity:1; fill:none" points="1296.45,1423.18 1296.45,1404.28 "/>
<polyline clip-path="url(#clip680)" style="stroke:#000000; stroke-linecap:round; stroke-linejoin:round; stroke-width:4; stroke-opacity:1; fill:none" points="1794.74,1423.18 1794.74,1404.28 "/>
<polyline clip-path="url(#clip680)" style="stroke:#000000; stroke-linecap:round; stroke-linejoin:round; stroke-width:4; stroke-opacity:1; fill:none" points="2293.02,1423.18 2293.02,1404.28 "/>
<path clip-path="url(#clip680)" d="M299.876 1454.1 Q296.265 1454.1 294.436 1457.66 Q292.631 1461.2 292.631 1468.33 Q292.631 1475.44 294.436 1479.01 Q296.265 1482.55 299.876 1482.55 Q303.51 1482.55 305.316 1479.01 Q307.145 1475.44 307.145 1468.33 Q307.145 1461.2 305.316 1457.66 Q303.51 1454.1 299.876 1454.1 M299.876 1450.39 Q305.686 1450.39 308.742 1455 Q311.82 1459.58 311.82 1468.33 Q311.82 1477.06 308.742 1481.67 Q305.686 1486.25 299.876 1486.25 Q294.066 1486.25 290.987 1481.67 Q287.932 1477.06 287.932 1468.33 Q287.932 1459.58 290.987 1455 Q294.066 1450.39 299.876 1450.39 Z" fill="#000000" fill-rule="nonzero" fill-opacity="1" /><path clip-path="url(#clip680)" d="M761.855 1481.64 L778.174 1481.64 L778.174 1485.58 L756.23 1485.58 L756.23 1481.64 Q758.892 1478.89 763.475 1474.26 Q768.082 1469.61 769.262 1468.27 Q771.507 1465.74 772.387 1464.01 Q773.29 1462.25 773.29 1460.56 Q773.29 1457.8 771.345 1456.07 Q769.424 1454.33 766.322 1454.33 Q764.123 1454.33 761.67 1455.09 Q759.239 1455.86 756.461 1457.41 L756.461 1452.69 Q759.285 1451.55 761.739 1450.97 Q764.193 1450.39 766.23 1450.39 Q771.6 1450.39 774.794 1453.08 Q777.989 1455.77 777.989 1460.26 Q777.989 1462.39 777.179 1464.31 Q776.392 1466.2 774.285 1468.8 Q773.707 1469.47 770.605 1472.69 Q767.503 1475.88 761.855 1481.64 Z" fill="#000000" fill-rule="nonzero" fill-opacity="1" /><path clip-path="url(#clip680)" d="M788.035 1451.02 L806.392 1451.02 L806.392 1454.96 L792.318 1454.96 L792.318 1463.43 Q793.336 1463.08 794.355 1462.92 Q795.373 1462.73 796.392 1462.73 Q802.179 1462.73 805.558 1465.9 Q808.938 1469.08 808.938 1474.49 Q808.938 1480.07 805.466 1483.17 Q801.993 1486.25 795.674 1486.25 Q793.498 1486.25 791.23 1485.88 Q788.984 1485.51 786.577 1484.77 L786.577 1480.07 Q788.66 1481.2 790.882 1481.76 Q793.105 1482.32 795.581 1482.32 Q799.586 1482.32 801.924 1480.21 Q804.262 1478.1 804.262 1474.49 Q804.262 1470.88 801.924 1468.77 Q799.586 1466.67 795.581 1466.67 Q793.706 1466.67 791.831 1467.08 Q789.98 1467.5 788.035 1468.38 L788.035 1451.02 Z" fill="#000000" fill-rule="nonzero" fill-opacity="1" /><path clip-path="url(#clip680)" d="M828.151 1454.1 Q824.54 1454.1 822.711 1457.66 Q820.905 1461.2 820.905 1468.33 Q820.905 1475.44 822.711 1479.01 Q824.54 1482.55 828.151 1482.55 Q831.785 1482.55 833.59 1479.01 Q835.419 1475.44 835.419 1468.33 Q835.419 1461.2 833.59 1457.66 Q831.785 1454.1 828.151 1454.1 M828.151 1450.39 Q833.961 1450.39 837.016 1455 Q840.095 1459.58 840.095 1468.33 Q840.095 1477.06 837.016 1481.67 Q833.961 1486.25 828.151 1486.25 Q822.341 1486.25 819.262 1481.67 Q816.206 1477.06 816.206 1468.33 Q816.206 1459.58 819.262 1455 Q822.341 1450.39 828.151 1450.39 Z" fill="#000000" fill-rule="nonzero" fill-opacity="1" /><path clip-path="url(#clip680)" d="M1256.07 1451.02 L1274.42 1451.02 L1274.42 1454.96 L1260.35 1454.96 L1260.35 1463.43 Q1261.37 1463.08 1262.39 1462.92 Q1263.4 1462.73 1264.42 1462.73 Q1270.21 1462.73 1273.59 1465.9 Q1276.97 1469.08 1276.97 1474.49 Q1276.97 1480.07 1273.5 1483.17 Q1270.03 1486.25 1263.71 1486.25 Q1261.53 1486.25 1259.26 1485.88 Q1257.02 1485.51 1254.61 1484.77 L1254.61 1480.07 Q1256.69 1481.2 1258.91 1481.76 Q1261.14 1482.32 1263.61 1482.32 Q1267.62 1482.32 1269.96 1480.21 Q1272.29 1478.1 1272.29 1474.49 Q1272.29 1470.88 1269.96 1468.77 Q1267.62 1466.67 1263.61 1466.67 Q1261.74 1466.67 1259.86 1467.08 Q1258.01 1467.5 1256.07 1468.38 L1256.07 1451.02 Z" fill="#000000" fill-rule="nonzero" fill-opacity="1" /><path clip-path="url(#clip680)" d="M1296.18 1454.1 Q1292.57 1454.1 1290.74 1457.66 Q1288.94 1461.2 1288.94 1468.33 Q1288.94 1475.44 1290.74 1479.01 Q1292.57 1482.55 1296.18 1482.55 Q1299.82 1482.55 1301.62 1479.01 Q1303.45 1475.44 1303.45 1468.33 Q1303.45 1461.2 1301.62 1457.66 Q1299.82 1454.1 1296.18 1454.1 M1296.18 1450.39 Q1301.99 1450.39 1305.05 1455 Q1308.13 1459.58 1308.13 1468.33 Q1308.13 1477.06 1305.05 1481.67 Q1301.99 1486.25 1296.18 1486.25 Q1290.37 1486.25 1287.29 1481.67 Q1284.24 1477.06 1284.24 1468.33 Q1284.24 1459.58 1287.29 1455 Q1290.37 1450.39 1296.18 1450.39 Z" fill="#000000" fill-rule="nonzero" fill-opacity="1" /><path clip-path="url(#clip680)" d="M1326.34 1454.1 Q1322.73 1454.1 1320.9 1457.66 Q1319.1 1461.2 1319.1 1468.33 Q1319.1 1475.44 1320.9 1479.01 Q1322.73 1482.55 1326.34 1482.55 Q1329.98 1482.55 1331.78 1479.01 Q1333.61 1475.44 1333.61 1468.33 Q1333.61 1461.2 1331.78 1457.66 Q1329.98 1454.1 1326.34 1454.1 M1326.34 1450.39 Q1332.15 1450.39 1335.21 1455 Q1338.29 1459.58 1338.29 1468.33 Q1338.29 1477.06 1335.21 1481.67 Q1332.15 1486.25 1326.34 1486.25 Q1320.53 1486.25 1317.46 1481.67 Q1314.4 1477.06 1314.4 1468.33 Q1314.4 1459.58 1317.46 1455 Q1320.53 1450.39 1326.34 1450.39 Z" fill="#000000" fill-rule="nonzero" fill-opacity="1" /><path clip-path="url(#clip680)" d="M1753.01 1451.02 L1775.23 1451.02 L1775.23 1453.01 L1762.69 1485.58 L1757.8 1485.58 L1769.61 1454.96 L1753.01 1454.96 L1753.01 1451.02 Z" fill="#000000" fill-rule="nonzero" fill-opacity="1" /><path clip-path="url(#clip680)" d="M1784.4 1451.02 L1802.76 1451.02 L1802.76 1454.96 L1788.68 1454.96 L1788.68 1463.43 Q1789.7 1463.08 1790.72 1462.92 Q1791.74 1462.73 1792.76 1462.73 Q1798.54 1462.73 1801.92 1465.9 Q1805.3 1469.08 1805.3 1474.49 Q1805.3 1480.07 1801.83 1483.17 Q1798.36 1486.25 1792.04 1486.25 Q1789.86 1486.25 1787.59 1485.88 Q1785.35 1485.51 1782.94 1484.77 L1782.94 1480.07 Q1785.02 1481.2 1787.25 1481.76 Q1789.47 1482.32 1791.95 1482.32 Q1795.95 1482.32 1798.29 1480.21 Q1800.63 1478.1 1800.63 1474.49 Q1800.63 1470.88 1798.29 1468.77 Q1795.95 1466.67 1791.95 1466.67 Q1790.07 1466.67 1788.2 1467.08 Q1786.34 1467.5 1784.4 1468.38 L1784.4 1451.02 Z" fill="#000000" fill-rule="nonzero" fill-opacity="1" /><path clip-path="url(#clip680)" d="M1824.51 1454.1 Q1820.9 1454.1 1819.08 1457.66 Q1817.27 1461.2 1817.27 1468.33 Q1817.27 1475.44 1819.08 1479.01 Q1820.9 1482.55 1824.51 1482.55 Q1828.15 1482.55 1829.95 1479.01 Q1831.78 1475.44 1831.78 1468.33 Q1831.78 1461.2 1829.95 1457.66 Q1828.15 1454.1 1824.51 1454.1 M1824.51 1450.39 Q1830.33 1450.39 1833.38 1455 Q1836.46 1459.58 1836.46 1468.33 Q1836.46 1477.06 1833.38 1481.67 Q1830.33 1486.25 1824.51 1486.25 Q1818.7 1486.25 1815.63 1481.67 Q1812.57 1477.06 1812.57 1468.33 Q1812.57 1459.58 1815.63 1455 Q1818.7 1450.39 1824.51 1450.39 Z" fill="#000000" fill-rule="nonzero" fill-opacity="1" /><path clip-path="url(#clip680)" d="M2237.55 1481.64 L2245.19 1481.64 L2245.19 1455.28 L2236.88 1456.95 L2236.88 1452.69 L2245.14 1451.02 L2249.82 1451.02 L2249.82 1481.64 L2257.45 1481.64 L2257.45 1485.58 L2237.55 1485.58 L2237.55 1481.64 Z" fill="#000000" fill-rule="nonzero" fill-opacity="1" /><path clip-path="url(#clip680)" d="M2276.9 1454.1 Q2273.29 1454.1 2271.46 1457.66 Q2269.65 1461.2 2269.65 1468.33 Q2269.65 1475.44 2271.46 1479.01 Q2273.29 1482.55 2276.9 1482.55 Q2280.53 1482.55 2282.34 1479.01 Q2284.17 1475.44 2284.17 1468.33 Q2284.17 1461.2 2282.34 1457.66 Q2280.53 1454.1 2276.9 1454.1 M2276.9 1450.39 Q2282.71 1450.39 2285.76 1455 Q2288.84 1459.58 2288.84 1468.33 Q2288.84 1477.06 2285.76 1481.67 Q2282.71 1486.25 2276.9 1486.25 Q2271.09 1486.25 2268.01 1481.67 Q2264.95 1477.06 2264.95 1468.33 Q2264.95 1459.58 2268.01 1455 Q2271.09 1450.39 2276.9 1450.39 Z" fill="#000000" fill-rule="nonzero" fill-opacity="1" /><path clip-path="url(#clip680)" d="M2307.06 1454.1 Q2303.45 1454.1 2301.62 1457.66 Q2299.82 1461.2 2299.82 1468.33 Q2299.82 1475.44 2301.62 1479.01 Q2303.45 1482.55 2307.06 1482.55 Q2310.69 1482.55 2312.5 1479.01 Q2314.33 1475.44 2314.33 1468.33 Q2314.33 1461.2 2312.5 1457.66 Q2310.69 1454.1 2307.06 1454.1 M2307.06 1450.39 Q2312.87 1450.39 2315.93 1455 Q2319 1459.58 2319 1468.33 Q2319 1477.06 2315.93 1481.67 Q2312.87 1486.25 2307.06 1486.25 Q2301.25 1486.25 2298.17 1481.67 Q2295.12 1477.06 2295.12 1468.33 Q2295.12 1459.58 2298.17 1455 Q2301.25 1450.39 2307.06 1450.39 Z" fill="#000000" fill-rule="nonzero" fill-opacity="1" /><path clip-path="url(#clip680)" d="M2337.22 1454.1 Q2333.61 1454.1 2331.78 1457.66 Q2329.98 1461.2 2329.98 1468.33 Q2329.98 1475.44 2331.78 1479.01 Q2333.61 1482.55 2337.22 1482.55 Q2340.86 1482.55 2342.66 1479.01 Q2344.49 1475.44 2344.49 1468.33 Q2344.49 1461.2 2342.66 1457.66 Q2340.86 1454.1 2337.22 1454.1 M2337.22 1450.39 Q2343.03 1450.39 2346.09 1455 Q2349.17 1459.58 2349.17 1468.33 Q2349.17 1477.06 2346.09 1481.67 Q2343.03 1486.25 2337.22 1486.25 Q2331.41 1486.25 2328.33 1481.67 Q2325.28 1477.06 2325.28 1468.33 Q2325.28 1459.58 2328.33 1455 Q2331.41 1450.39 2337.22 1450.39 Z" fill="#000000" fill-rule="nonzero" fill-opacity="1" /><path clip-path="url(#clip680)" d="M1165.17 1520.52 L1171.6 1520.52 L1171.6 1568.04 L1165.17 1568.04 L1165.17 1520.52 Z" fill="#000000" fill-rule="nonzero" fill-opacity="1" /><path clip-path="url(#clip680)" d="M1189.93 1522.27 L1189.93 1532.4 L1201.99 1532.4 L1201.99 1536.95 L1189.93 1536.95 L1189.93 1556.3 Q1189.93 1560.66 1191.11 1561.9 Q1192.32 1563.14 1195.98 1563.14 L1201.99 1563.14 L1201.99 1568.04 L1195.98 1568.04 Q1189.2 1568.04 1186.62 1565.53 Q1184.04 1562.98 1184.04 1556.3 L1184.04 1536.95 L1179.74 1536.95 L1179.74 1532.4 L1184.04 1532.4 L1184.04 1522.27 L1189.93 1522.27 Z" fill="#000000" fill-rule="nonzero" fill-opacity="1" /><path clip-path="url(#clip680)" d="M1240.19 1548.76 L1240.19 1551.62 L1213.26 1551.62 Q1213.64 1557.67 1216.89 1560.85 Q1220.17 1564 1225.99 1564 Q1229.36 1564 1232.52 1563.17 Q1235.7 1562.35 1238.82 1560.69 L1238.82 1566.23 Q1235.67 1567.57 1232.36 1568.27 Q1229.05 1568.97 1225.64 1568.97 Q1217.11 1568.97 1212.11 1564 Q1207.15 1559.04 1207.15 1550.57 Q1207.15 1541.82 1211.86 1536.69 Q1216.6 1531.54 1224.62 1531.54 Q1231.81 1531.54 1235.98 1536.18 Q1240.19 1540.8 1240.19 1548.76 M1234.33 1547.04 Q1234.27 1542.23 1231.62 1539.37 Q1229.01 1536.5 1224.69 1536.5 Q1219.78 1536.5 1216.82 1539.27 Q1213.9 1542.04 1213.45 1547.07 L1234.33 1547.04 Z" fill="#000000" fill-rule="nonzero" fill-opacity="1" /><path clip-path="url(#clip680)" d="M1270.45 1537.87 Q1269.47 1537.3 1268.29 1537.04 Q1267.14 1536.76 1265.74 1536.76 Q1260.78 1536.76 1258.11 1540 Q1255.46 1543.22 1255.46 1549.27 L1255.46 1568.04 L1249.58 1568.04 L1249.58 1532.4 L1255.46 1532.4 L1255.46 1537.93 Q1257.31 1534.69 1260.27 1533.13 Q1263.23 1531.54 1267.46 1531.54 Q1268.07 1531.54 1268.8 1531.63 Q1269.53 1531.7 1270.42 1531.85 L1270.45 1537.87 Z" fill="#000000" fill-rule="nonzero" fill-opacity="1" /><path clip-path="url(#clip680)" d="M1292.8 1550.12 Q1285.7 1550.12 1282.96 1551.75 Q1280.23 1553.37 1280.23 1557.29 Q1280.23 1560.4 1282.26 1562.25 Q1284.33 1564.07 1287.86 1564.07 Q1292.73 1564.07 1295.66 1560.63 Q1298.62 1557.16 1298.62 1551.43 L1298.62 1550.12 L1292.8 1550.12 M1304.48 1547.71 L1304.48 1568.04 L1298.62 1568.04 L1298.62 1562.63 Q1296.62 1565.88 1293.63 1567.44 Q1290.63 1568.97 1286.31 1568.97 Q1280.83 1568.97 1277.58 1565.91 Q1274.37 1562.82 1274.37 1557.67 Q1274.37 1551.65 1278.38 1548.6 Q1282.42 1545.54 1290.41 1545.54 L1298.62 1545.54 L1298.62 1544.97 Q1298.62 1540.93 1295.95 1538.73 Q1293.31 1536.5 1288.5 1536.5 Q1285.45 1536.5 1282.55 1537.23 Q1279.65 1537.97 1276.98 1539.43 L1276.98 1534.02 Q1280.19 1532.78 1283.22 1532.17 Q1286.24 1531.54 1289.11 1531.54 Q1296.84 1531.54 1300.66 1535.55 Q1304.48 1539.56 1304.48 1547.71 Z" fill="#000000" fill-rule="nonzero" fill-opacity="1" /><path clip-path="url(#clip680)" d="M1322.34 1522.27 L1322.34 1532.4 L1334.4 1532.4 L1334.4 1536.95 L1322.34 1536.95 L1322.34 1556.3 Q1322.34 1560.66 1323.51 1561.9 Q1324.72 1563.14 1328.38 1563.14 L1334.4 1563.14 L1334.4 1568.04 L1328.38 1568.04 Q1321.6 1568.04 1319.03 1565.53 Q1316.45 1562.98 1316.45 1556.3 L1316.45 1536.95 L1312.15 1536.95 L1312.15 1532.4 L1316.45 1532.4 L1316.45 1522.27 L1322.34 1522.27 Z" fill="#000000" fill-rule="nonzero" fill-opacity="1" /><path clip-path="url(#clip680)" d="M1342.1 1532.4 L1347.96 1532.4 L1347.96 1568.04 L1342.1 1568.04 L1342.1 1532.4 M1342.1 1518.52 L1347.96 1518.52 L1347.96 1525.93 L1342.1 1525.93 L1342.1 1518.52 Z" fill="#000000" fill-rule="nonzero" fill-opacity="1" /><path clip-path="url(#clip680)" d="M1374.02 1536.5 Q1369.31 1536.5 1366.58 1540.19 Q1363.84 1543.85 1363.84 1550.25 Q1363.84 1556.65 1366.55 1560.34 Q1369.28 1564 1374.02 1564 Q1378.7 1564 1381.44 1560.31 Q1384.18 1556.62 1384.18 1550.25 Q1384.18 1543.92 1381.44 1540.23 Q1378.7 1536.5 1374.02 1536.5 M1374.02 1531.54 Q1381.66 1531.54 1386.02 1536.5 Q1390.38 1541.47 1390.38 1550.25 Q1390.38 1559 1386.02 1564 Q1381.66 1568.97 1374.02 1568.97 Q1366.35 1568.97 1361.99 1564 Q1357.66 1559 1357.66 1550.25 Q1357.66 1541.47 1361.99 1536.5 Q1366.35 1531.54 1374.02 1531.54 Z" fill="#000000" fill-rule="nonzero" fill-opacity="1" /><path clip-path="url(#clip680)" d="M1429.72 1546.53 L1429.72 1568.04 L1423.87 1568.04 L1423.87 1546.72 Q1423.87 1541.66 1421.89 1539.14 Q1419.92 1536.63 1415.97 1536.63 Q1411.23 1536.63 1408.5 1539.65 Q1405.76 1542.68 1405.76 1547.9 L1405.76 1568.04 L1399.87 1568.04 L1399.87 1532.4 L1405.76 1532.4 L1405.76 1537.93 Q1407.86 1534.72 1410.69 1533.13 Q1413.56 1531.54 1417.28 1531.54 Q1423.42 1531.54 1426.57 1535.36 Q1429.72 1539.14 1429.72 1546.53 Z" fill="#000000" fill-rule="nonzero" fill-opacity="1" /><polyline clip-path="url(#clip680)" style="stroke:#000000; stroke-linecap:round; stroke-linejoin:round; stroke-width:4; stroke-opacity:1; fill:none" points="242.135,1423.18 242.135,47.2441 "/>
<polyline clip-path="url(#clip680)" style="stroke:#000000; stroke-linecap:round; stroke-linejoin:round; stroke-width:4; stroke-opacity:1; fill:none" points="242.135,1206.92 261.032,1206.92 "/>
<polyline clip-path="url(#clip680)" style="stroke:#000000; stroke-linecap:round; stroke-linejoin:round; stroke-width:4; stroke-opacity:1; fill:none" points="242.135,881.256 261.032,881.256 "/>
<polyline clip-path="url(#clip680)" style="stroke:#000000; stroke-linecap:round; stroke-linejoin:round; stroke-width:4; stroke-opacity:1; fill:none" points="242.135,555.587 261.032,555.587 "/>
<polyline clip-path="url(#clip680)" style="stroke:#000000; stroke-linecap:round; stroke-linejoin:round; stroke-width:4; stroke-opacity:1; fill:none" points="242.135,229.919 261.032,229.919 "/>
<path clip-path="url(#clip680)" d="M114.26 1207.38 L143.936 1207.38 L143.936 1211.31 L114.26 1211.31 L114.26 1207.38 Z" fill="#000000" fill-rule="nonzero" fill-opacity="1" /><path clip-path="url(#clip680)" d="M168.195 1205.57 Q171.552 1206.29 173.427 1208.56 Q175.325 1210.82 175.325 1214.16 Q175.325 1219.27 171.806 1222.07 Q168.288 1224.88 161.806 1224.88 Q159.63 1224.88 157.315 1224.44 Q155.024 1224.02 152.57 1223.16 L152.57 1218.65 Q154.515 1219.78 156.829 1220.36 Q159.144 1220.94 161.667 1220.94 Q166.065 1220.94 168.357 1219.2 Q170.672 1217.47 170.672 1214.16 Q170.672 1211.1 168.519 1209.39 Q166.39 1207.65 162.57 1207.65 L158.542 1207.65 L158.542 1203.81 L162.755 1203.81 Q166.204 1203.81 168.033 1202.45 Q169.862 1201.06 169.862 1198.46 Q169.862 1195.8 167.964 1194.39 Q166.089 1192.95 162.57 1192.95 Q160.649 1192.95 158.45 1193.37 Q156.251 1193.79 153.612 1194.67 L153.612 1190.5 Q156.274 1189.76 158.589 1189.39 Q160.927 1189.02 162.987 1189.02 Q168.311 1189.02 171.413 1191.45 Q174.514 1193.86 174.514 1197.98 Q174.514 1200.85 172.871 1202.84 Q171.227 1204.81 168.195 1205.57 Z" fill="#000000" fill-rule="nonzero" fill-opacity="1" /><path clip-path="url(#clip680)" d="M194.19 1192.72 Q190.579 1192.72 188.75 1196.29 Q186.945 1199.83 186.945 1206.96 Q186.945 1214.07 188.75 1217.63 Q190.579 1221.17 194.19 1221.17 Q197.825 1221.17 199.63 1217.63 Q201.459 1214.07 201.459 1206.96 Q201.459 1199.83 199.63 1196.29 Q197.825 1192.72 194.19 1192.72 M194.19 1189.02 Q200 1189.02 203.056 1193.63 Q206.135 1198.21 206.135 1206.96 Q206.135 1215.69 203.056 1220.29 Q200 1224.88 194.19 1224.88 Q188.38 1224.88 185.301 1220.29 Q182.246 1215.69 182.246 1206.96 Q182.246 1198.21 185.301 1193.63 Q188.38 1189.02 194.19 1189.02 Z" fill="#000000" fill-rule="nonzero" fill-opacity="1" /><path clip-path="url(#clip680)" d="M114.26 881.707 L143.936 881.707 L143.936 885.642 L114.26 885.642 L114.26 881.707 Z" fill="#000000" fill-rule="nonzero" fill-opacity="1" /><path clip-path="url(#clip680)" d="M158.056 894.6 L174.376 894.6 L174.376 898.536 L152.431 898.536 L152.431 894.6 Q155.093 891.846 159.677 887.216 Q164.283 882.563 165.464 881.221 Q167.709 878.698 168.589 876.962 Q169.491 875.202 169.491 873.513 Q169.491 870.758 167.547 869.022 Q165.626 867.286 162.524 867.286 Q160.325 867.286 157.871 868.05 Q155.44 868.814 152.663 870.364 L152.663 865.642 Q155.487 864.508 157.94 863.929 Q160.394 863.351 162.431 863.351 Q167.802 863.351 170.996 866.036 Q174.19 868.721 174.19 873.212 Q174.19 875.341 173.38 877.263 Q172.593 879.161 170.487 881.753 Q169.908 882.425 166.806 885.642 Q163.704 888.837 158.056 894.6 Z" fill="#000000" fill-rule="nonzero" fill-opacity="1" /><path clip-path="url(#clip680)" d="M194.19 867.054 Q190.579 867.054 188.75 870.619 Q186.945 874.161 186.945 881.29 Q186.945 888.397 188.75 891.962 Q190.579 895.503 194.19 895.503 Q197.825 895.503 199.63 891.962 Q201.459 888.397 201.459 881.29 Q201.459 874.161 199.63 870.619 Q197.825 867.054 194.19 867.054 M194.19 863.351 Q200 863.351 203.056 867.957 Q206.135 872.54 206.135 881.29 Q206.135 890.017 203.056 894.624 Q200 899.207 194.19 899.207 Q188.38 899.207 185.301 894.624 Q182.246 890.017 182.246 881.29 Q182.246 872.54 185.301 867.957 Q188.38 863.351 194.19 863.351 Z" fill="#000000" fill-rule="nonzero" fill-opacity="1" /><path clip-path="url(#clip680)" d="M114.26 556.038 L143.936 556.038 L143.936 559.974 L114.26 559.974 L114.26 556.038 Z" fill="#000000" fill-rule="nonzero" fill-opacity="1" /><path clip-path="url(#clip680)" d="M154.839 568.932 L162.477 568.932 L162.477 542.566 L154.167 544.233 L154.167 539.974 L162.431 538.307 L167.107 538.307 L167.107 568.932 L174.746 568.932 L174.746 572.867 L154.839 572.867 L154.839 568.932 Z" fill="#000000" fill-rule="nonzero" fill-opacity="1" /><path clip-path="url(#clip680)" d="M194.19 541.386 Q190.579 541.386 188.75 544.951 Q186.945 548.492 186.945 555.622 Q186.945 562.728 188.75 566.293 Q190.579 569.835 194.19 569.835 Q197.825 569.835 199.63 566.293 Q201.459 562.728 201.459 555.622 Q201.459 548.492 199.63 544.951 Q197.825 541.386 194.19 541.386 M194.19 537.682 Q200 537.682 203.056 542.289 Q206.135 546.872 206.135 555.622 Q206.135 564.349 203.056 568.955 Q200 573.538 194.19 573.538 Q188.38 573.538 185.301 568.955 Q182.246 564.349 182.246 555.622 Q182.246 546.872 185.301 542.289 Q188.38 537.682 194.19 537.682 Z" fill="#000000" fill-rule="nonzero" fill-opacity="1" /><path clip-path="url(#clip680)" d="M194.19 215.717 Q190.579 215.717 188.75 219.282 Q186.945 222.824 186.945 229.953 Q186.945 237.06 188.75 240.624 Q190.579 244.166 194.19 244.166 Q197.825 244.166 199.63 240.624 Q201.459 237.06 201.459 229.953 Q201.459 222.824 199.63 219.282 Q197.825 215.717 194.19 215.717 M194.19 212.014 Q200 212.014 203.056 216.62 Q206.135 221.203 206.135 229.953 Q206.135 238.68 203.056 243.286 Q200 247.87 194.19 247.87 Q188.38 247.87 185.301 243.286 Q182.246 238.68 182.246 229.953 Q182.246 221.203 185.301 216.62 Q188.38 212.014 194.19 212.014 Z" fill="#000000" fill-rule="nonzero" fill-opacity="1" /><path clip-path="url(#clip680)" d="M16.4842 816.375 L16.4842 786.329 L21.895 786.329 L21.895 809.945 L35.9632 809.945 L35.9632 787.315 L41.3741 787.315 L41.3741 809.945 L58.5933 809.945 L58.5933 785.756 L64.0042 785.756 L64.0042 816.375 L16.4842 816.375 Z" fill="#000000" fill-rule="nonzero" fill-opacity="1" /><path clip-path="url(#clip680)" d="M16.4842 775.189 L16.4842 768.759 L58.5933 768.759 L58.5933 745.62 L64.0042 745.62 L64.0042 775.189 L16.4842 775.189 Z" fill="#000000" fill-rule="nonzero" fill-opacity="1" /><path clip-path="url(#clip680)" d="M41.3104 732.443 L58.7206 732.443 L58.7206 722.13 Q58.7206 716.942 56.5881 714.46 Q54.4238 711.945 49.9996 711.945 Q45.5436 711.945 43.4429 714.46 Q41.3104 716.942 41.3104 722.13 L41.3104 732.443 M21.7677 732.443 L36.0905 732.443 L36.0905 722.926 Q36.0905 718.216 34.34 715.924 Q32.5576 713.6 28.9291 713.6 Q25.3325 713.6 23.5501 715.924 Q21.7677 718.216 21.7677 722.926 L21.7677 732.443 M16.4842 738.872 L16.4842 722.449 Q16.4842 715.096 19.5397 711.118 Q22.5952 707.139 28.2289 707.139 Q32.5894 707.139 35.1675 709.176 Q37.7456 711.213 38.3822 715.16 Q39.4007 710.418 42.6472 707.808 Q45.8619 705.166 50.6998 705.166 Q57.0655 705.166 60.5348 709.495 Q64.0042 713.823 64.0042 721.812 L64.0042 738.872 L16.4842 738.872 Z" fill="#000000" fill-rule="nonzero" fill-opacity="1" /><path clip-path="url(#clip680)" d="M20.8447 676.011 Q20.8447 683.013 26.0645 687.151 Q31.2844 691.257 40.2919 691.257 Q49.2675 691.257 54.4874 687.151 Q59.7073 683.013 59.7073 676.011 Q59.7073 669.009 54.4874 664.935 Q49.2675 660.829 40.2919 660.829 Q31.2844 660.829 26.0645 664.935 Q20.8447 669.009 20.8447 676.011 M15.6248 676.011 Q15.6248 666.017 22.3406 660.033 Q29.0246 654.049 40.2919 654.049 Q51.5274 654.049 58.2432 660.033 Q64.9272 666.017 64.9272 676.011 Q64.9272 686.037 58.2432 692.052 Q51.5592 698.036 40.2919 698.036 Q29.0246 698.036 22.3406 692.052 Q15.6248 686.037 15.6248 676.011 Z" fill="#000000" fill-rule="nonzero" fill-opacity="1" /><polyline clip-path="url(#clip682)" style="stroke:#009af9; stroke-linecap:round; stroke-linejoin:round; stroke-width:4; stroke-opacity:1; fill:none" points="301.869,790.099 303.862,702.462 305.856,796.836 307.849,599.351 309.842,1162.22 311.835,840.765 313.828,517.749 315.821,1384.24 317.814,884.979 319.808,625.088 321.801,918.253 323.794,528.771 325.787,807.123 327.78,655.629 329.773,470.353 331.766,504.208 333.76,791.068 335.753,425.832 337.746,321.54 339.739,706.231 341.732,501.687 343.725,998.833 345.718,683.476 347.712,868.807 349.705,500.44 351.698,990.377 353.691,610.568 355.684,560.054 357.677,599.994 359.67,1200.8 361.664,672.897 363.657,1190.44 365.65,501.587 367.643,984.024 369.636,772.215 371.629,750.099 373.622,835.95 375.616,491.787 377.609,613.655 379.602,483.309 381.595,508.007 383.588,659.692 385.581,877.599 387.574,441.097 389.568,662.492 391.561,704.634 393.554,1198.48 395.547,570.137 397.54,709.197 399.533,492.953 401.526,640.708 403.52,373.666 405.513,696.327 407.506,473.97 409.499,552.142 411.492,841.762 413.485,760.399 415.479,786.803 417.472,606.011 419.465,437.473 421.458,650.202 423.451,923.266 425.444,630.153 427.437,521.34 429.431,734.286 431.424,866.88 433.417,377.195 435.41,474.4 437.403,563.196 439.396,438.635 441.389,407.373 443.383,376.978 445.376,624.005 447.369,409.856 449.362,717.386 451.355,504.676 453.348,482.836 455.341,459.696 457.335,352.017 459.328,640.353 461.321,414.809 463.314,615.487 465.307,488.976 467.3,397.39 469.293,523.472 471.287,463.872 473.28,248.199 475.273,409.076 477.266,354.135 479.259,597.842 481.252,826.677 483.245,295.539 485.239,321.306 487.232,510.763 489.225,442.565 491.218,410.554 493.211,285.67 495.204,399.844 497.197,724.186 499.191,437.574 501.184,377.909 503.177,680.509 505.17,583.932 507.163,282.734 509.156,533.794 511.149,715.027 513.143,433.538 515.136,532.951 517.129,401.292 519.122,444.769 521.115,308.282 523.108,542.847 525.101,451.39 527.095,645.795 529.088,368.806 531.081,330.611 533.074,440.814 535.067,249.994 537.06,288.591 539.054,384.309 541.047,432.289 543.04,485.229 545.033,232.451 547.026,577.167 549.019,345.312 551.012,322.483 553.006,372.648 554.999,568.21 556.992,530.859 558.985,426.745 560.978,303.638 562.971,552.804 564.964,527.373 566.958,365.304 568.951,391.782 570.944,408.643 572.937,258.239 574.93,289.254 576.923,441.924 578.916,439.231 580.91,490.961 582.903,284.376 584.896,223.538 586.889,294.582 588.882,409.234 590.875,384.982 592.868,392.195 594.862,162.005 596.855,254.772 598.848,412.599 600.841,357.998 602.834,213.073 604.827,356.605 606.82,235.004 608.814,521.198 610.807,468.509 612.8,452.954 614.793,297.085 616.786,313.731 618.779,157.046 620.772,406.311 622.766,334.792 624.759,473.859 626.752,487.253 628.745,659.826 630.738,335.986 632.731,278.626 634.724,157.381 636.718,366.405 638.711,427.677 640.704,260.937 642.697,203.758 644.69,494.596 646.683,339.843 648.677,419.835 650.67,212.658 652.663,220.388 654.656,472.719 656.649,200.991 658.642,308.861 660.635,421.474 662.629,432.604 664.622,463.247 666.615,380.539 668.608,384.767 670.601,541.246 672.594,186.526 674.587,369.559 676.581,276.991 678.574,204.88 680.567,199.003 682.56,225.548 684.553,262.223 686.546,193.347 688.539,438.049 690.533,215.413 692.526,201.571 694.519,165.513 696.512,321.24 698.505,334.788 700.498,219.824 702.491,178.682 704.485,355.633 706.478,410.955 708.471,101.026 710.464,163.624 712.457,183.284 714.45,268.725 716.443,374.8 718.437,343.66 720.43,223.535 722.423,194.262 724.416,251.262 726.409,245.747 728.402,321.726 730.395,249.03 732.389,248.795 734.382,341.215 736.375,348.676 738.368,198.858 740.361,301.169 742.354,270.358 744.347,303.828 746.341,207.007 748.334,291.006 750.327,316.673 752.32,235.985 754.313,161.543 756.306,415.829 758.299,253.878 760.293,414.129 762.286,264.194 764.279,136.124 766.272,299.718 768.265,240.018 770.258,149.927 772.252,283.417 774.245,150.313 776.238,265.228 778.231,367.349 780.224,260.942 782.217,398.662 784.21,242.306 786.204,285.566 788.197,253.434 790.19,310.137 792.183,192.921 794.176,206.881 796.169,274.571 798.162,289.887 800.156,183.605 802.149,464.614 804.142,192.431 806.135,292.825 808.128,202.518 810.121,252.144 812.114,241.086 814.108,326.756 816.101,191.884 818.094,333.79 820.087,297.182 822.08,226.507 824.073,282.717 826.066,166.128 828.06,404.595 830.053,471.143 832.046,268.477 834.039,293.008 836.032,220.197 838.025,172.43 840.018,231.858 842.012,152.819 844.005,256.638 845.998,147.795 847.991,449.21 849.984,224.713 851.977,252.934 853.97,184.236 855.964,611.486 857.957,214.301 859.95,192.12 861.943,143.814 863.936,197.618 865.929,158.088 867.922,196.489 869.916,287.367 871.909,295.94 873.902,363.805 875.895,268.554 877.888,249.526 879.881,264.239 881.874,174.119 883.868,391.979 885.861,247.065 887.854,346.022 889.847,228.846 891.84,316.37 893.833,198.714 895.827,265.522 897.82,235.826 899.813,177.348 901.806,271.594 903.799,168.807 905.792,129.705 907.785,305.7 909.779,154.216 911.772,145.721 913.765,149.206 915.758,391.485 917.751,389.984 919.744,182.056 921.737,226.049 923.731,299.474 925.724,286.346 927.717,221.394 929.71,146.912 931.703,337.753 933.696,248.926 935.689,257.798 937.683,271.039 939.676,149.523 941.669,397.937 943.662,134.566 945.655,266.83 947.648,122.637 949.641,252.047 951.635,246.637 953.628,99.1247 955.621,170.572 957.614,356.922 959.607,289.086 961.6,344.967 963.593,394.065 965.587,422.238 967.58,179.887 969.573,159.24 971.566,138.024 973.559,185.87 975.552,194.736 977.545,100.639 979.539,252.527 981.532,201.451 983.525,142.072 985.518,195.824 987.511,268.766 989.504,218.279 991.497,412.561 993.491,98.4094 995.484,311.211 997.477,376.341 999.47,142.69 1001.46,305.928 1003.46,190.745 1005.45,163.854 1007.44,439.534 1009.44,250.674 1011.43,365.685 1013.42,219.385 1015.42,101.763 1017.41,258.944 1019.4,392.463 1021.39,151.43 1023.39,202.744 1025.38,227.074 1027.37,286.296 1029.37,194.573 1031.36,137.973 1033.35,245.702 1035.35,283.672 1037.34,194.69 1039.33,216.446 1041.33,198.999 1043.32,276.994 1045.31,202.458 1047.31,163.832 1049.3,245.372 1051.29,419.248 1053.28,195.999 1055.28,245.114 1057.27,183.264 1059.26,259.563 1061.26,331.009 1063.25,238.881 1065.24,166.047 1067.24,232.533 1069.23,283.97 1071.22,323.95 1073.22,113.696 1075.21,180.098 1077.2,230.122 1079.2,158.453 1081.19,184.454 1083.18,410.635 1085.18,312.67 1087.17,171.135 1089.16,171.569 1091.15,182.662 1093.15,208.118 1095.14,230.463 1097.13,375.568 1099.13,238.766 1101.12,346.853 1103.11,337.559 1105.11,269.151 1107.1,278.948 1109.09,266.17 1111.09,288.642 1113.08,285.67 1115.07,373.78 1117.07,232.807 1119.06,218.184 1121.05,220.253 1123.05,171.714 1125.04,126.928 1127.03,520.116 1129.02,278.425 1131.02,382.617 1133.01,373.785 1135,151.484 1137,181.087 1138.99,312.31 1140.98,488.993 1142.98,314.959 1144.97,316.779 1146.96,235.316 1148.96,305.592 1150.95,375.291 1152.94,225.291 1154.94,305.027 1156.93,130.713 1158.92,336.833 1160.91,291.05 1162.91,205.227 1164.9,168.158 1166.89,117.248 1168.89,310.649 1170.88,205.662 1172.87,313.111 1174.87,402.803 1176.86,181.506 1178.85,304.804 1180.85,325.783 1182.84,341.259 1184.83,331.701 1186.83,218.315 1188.82,214.485 1190.81,217.605 1192.81,293.234 1194.8,310.282 1196.79,264.065 1198.78,228.937 1200.78,453.228 1202.77,170.829 1204.76,193.364 1206.76,279.907 1208.75,255.172 1210.74,256.53 1212.74,252.583 1214.73,183.92 1216.72,142.504 1218.72,188.971 1220.71,342.044 1222.7,215.515 1224.7,162.566 1226.69,146.89 1228.68,215.772 1230.67,251.016 1232.67,401.044 1234.66,143.071 1236.65,171.864 1238.65,427.752 1240.64,152.017 1242.63,166.627 1244.63,188.536 1246.62,216.27 1248.61,284.517 1250.61,315.644 1252.6,232.194 1254.59,247.064 1256.59,136.331 1258.58,329.349 1260.57,237.896 1262.57,354.062 1264.56,333.758 1266.55,257.825 1268.54,122.977 1270.54,227.378 1272.53,223.103 1274.52,178.653 1276.52,165.711 1278.51,245.599 1280.5,339.053 1282.5,253.916 1284.49,258.077 1286.48,262.482 1288.48,290.769 1290.47,227.762 1292.46,200.877 1294.46,253.71 1296.45,238.616 1298.44,222.927 1300.44,269.43 1302.43,194.151 1304.42,216.125 1306.41,225.53 1308.41,152.798 1310.4,161.433 1312.39,311.246 1314.39,120.045 1316.38,201.245 1318.37,156.546 1320.37,473.356 1322.36,160.888 1324.35,268.774 1326.35,225.851 1328.34,149.892 1330.33,130.157 1332.33,280.517 1334.32,478.698 1336.31,224.947 1338.3,279.38 1340.3,309.314 1342.29,349.149 1344.28,384.317 1346.28,170.621 1348.27,153.219 1350.26,113.422 1352.26,303.601 1354.25,260.395 1356.24,268.711 1358.24,292.831 1360.23,282.132 1362.22,174.852 1364.22,266.056 1366.21,273.702 1368.2,284.84 1370.2,237.784 1372.19,332.472 1374.18,197.721 1376.17,227.351 1378.17,273.133 1380.16,392.792 1382.15,310.033 1384.15,252.059 1386.14,331.83 1388.13,440.28 1390.13,138.399 1392.12,260.229 1394.11,219.147 1396.11,141.087 1398.1,170.043 1400.09,183.082 1402.09,256.393 1404.08,143.437 1406.07,152.159 1408.06,320.122 1410.06,327.884 1412.05,298.179 1414.04,179.732 1416.04,156.599 1418.03,247.529 1420.02,389.94 1422.02,209.276 1424.01,289.818 1426,164.069 1428,315.082 1429.99,382.874 1431.98,327.779 1433.98,254.593 1435.97,246.625 1437.96,291.485 1439.96,135.917 1441.95,151.987 1443.94,358.44 1445.93,133.928 1447.93,320.799 1449.92,171.668 1451.91,220.85 1453.91,217.191 1455.9,156.332 1457.89,278.252 1459.89,316.677 1461.88,329.532 1463.87,336.542 1465.87,242.641 1467.86,211.48 1469.85,205.419 1471.85,371.674 1473.84,169.663 1475.83,220.651 1477.82,307.899 1479.82,236.4 1481.81,199.273 1483.8,365.581 1485.8,238.355 1487.79,228.014 1489.78,374.016 1491.78,320.224 1493.77,153.498 1495.76,190.842 1497.76,304.43 1499.75,169.626 1501.74,188.76 1503.74,128.953 1505.73,275.73 1507.72,312.091 1509.72,259.311 1511.71,143.898 1513.7,202.971 1515.69,174.792 1517.69,137.804 1519.68,308.851 1521.67,200.155 1523.67,185.535 1525.66,316.368 1527.65,370.263 1529.65,353.567 1531.64,181.309 1533.63,123.557 1535.63,178.057 1537.62,189.325 1539.61,131.342 1541.61,211.032 1543.6,162.211 1545.59,128.911 1547.59,223.359 1549.58,183.753 1551.57,253.003 1553.56,207.347 1555.56,263.015 1557.55,292.014 1559.54,137.936 1561.54,188.132 1563.53,329.632 1565.52,161.629 1567.52,261.018 1569.51,327.144 1571.5,122.666 1573.5,234.533 1575.49,363.727 1577.48,241.198 1579.48,403.333 1581.47,166.038 1583.46,157.74 1585.45,209.955 1587.45,279.839 1589.44,212.177 1591.43,181.638 1593.43,304.775 1595.42,146.192 1597.41,141.994 1599.41,255.631 1601.4,246.923 1603.39,213.647 1605.39,328.754 1607.38,195.12 1609.37,198.787 1611.37,234.382 1613.36,193.647 1615.35,400.156 1617.35,234.828 1619.34,285.733 1621.33,205.305 1623.32,228.278 1625.32,280.001 1627.31,215.58 1629.3,206.003 1631.3,244.433 1633.29,168.593 1635.28,174.475 1637.28,235.2 1639.27,193.976 1641.26,226.177 1643.26,196.845 1645.25,285.778 1647.24,198.435 1649.24,257.376 1651.23,346.512 1653.22,227.504 1655.21,140.812 1657.21,163.35 1659.2,139.218 1661.19,179.552 1663.19,189.659 1665.18,324.227 1667.17,279.564 1669.17,243.696 1671.16,334.784 1673.15,220.091 1675.15,173.839 1677.14,167.325 1679.13,211.711 1681.13,183.463 1683.12,185.174 1685.11,138.345 1687.11,169.372 1689.1,159.397 1691.09,263.125 1693.08,276.447 1695.08,182.95 1697.07,330.334 1699.06,122.866 1701.06,195.122 1703.05,207.477 1705.04,147.518 1707.04,239.101 1709.03,413.669 1711.02,158.629 1713.02,306.572 1715.01,159.786 1717,119.384 1719,162.709 1720.99,165.463 1722.98,312.67 1724.97,203.75 1726.97,378.457 1728.96,237.35 1730.95,286.561 1732.95,312.126 1734.94,182.163 1736.93,155.328 1738.93,210.034 1740.92,227.684 1742.91,248.022 1744.91,234.683 1746.9,258.088 1748.89,190.259 1750.89,220.889 1752.88,315.01 1754.87,111.011 1756.87,253.312 1758.86,306.989 1760.85,150.686 1762.84,278.184 1764.84,167.813 1766.83,192.271 1768.82,356.401 1770.82,150.702 1772.81,228.637 1774.8,241.448 1776.8,309.753 1778.79,228.04 1780.78,293.656 1782.78,218.942 1784.77,137.579 1786.76,217.085 1788.76,212.714 1790.75,193.96 1792.74,163.856 1794.74,186.39 1796.73,224.117 1798.72,203.511 1800.71,515.184 1802.71,196.703 1804.7,110.565 1806.69,292.212 1808.69,253.671 1810.68,315.663 1812.67,187.49 1814.67,161.502 1816.66,261.828 1818.65,333.608 1820.65,218.768 1822.64,166.497 1824.63,247.863 1826.63,200.027 1828.62,276.188 1830.61,340.612 1832.6,172.251 1834.6,344.473 1836.59,133.498 1838.58,461.654 1840.58,278.052 1842.57,142.234 1844.56,91.8582 1846.56,281.901 1848.55,265.623 1850.54,327.348 1852.54,201.303 1854.53,257.312 1856.52,335.251 1858.52,226.333 1860.51,276.104 1862.5,214.111 1864.5,213.457 1866.49,229.234 1868.48,172.839 1870.47,177.405 1872.47,173.36 1874.46,323.662 1876.45,182.644 1878.45,380.996 1880.44,148.183 1882.43,209.694 1884.43,153.573 1886.42,276.255 1888.41,198.342 1890.41,114.356 1892.4,221.973 1894.39,139.684 1896.39,112.4 1898.38,175.062 1900.37,236.272 1902.36,170.099 1904.36,443.905 1906.35,336.183 1908.34,326.044 1910.34,234.003 1912.33,157.684 1914.32,182.729 1916.32,178.693 1918.31,216.339 1920.3,202.152 1922.3,304.607 1924.29,134.864 1926.28,267.968 1928.28,206.073 1930.27,175.776 1932.26,184.265 1934.26,217.215 1936.25,138.947 1938.24,257.7 1940.23,174.777 1942.23,331.672 1944.22,229.157 1946.21,210.06 1948.21,218.529 1950.2,281.529 1952.19,206.656 1954.19,152.001 1956.18,129.765 1958.17,197.472 1960.17,250.272 1962.16,349.689 1964.15,258.849 1966.15,167.978 1968.14,292.712 1970.13,150.445 1972.12,286.623 1974.12,265.038 1976.11,239.54 1978.1,146.44 1980.1,230.309 1982.09,172.427 1984.08,226.867 1986.08,194.489 1988.07,268.559 1990.06,176.795 1992.06,242.872 1994.05,186.385 1996.04,257.181 1998.04,211.012 2000.03,177.62 2002.02,222.097 2004.02,276.883 2006.01,118.709 2008,194.367 2009.99,263.479 2011.99,221.924 2013.98,198.066 2015.97,226.991 2017.97,209.675 2019.96,326.272 2021.95,152.532 2023.95,268.528 2025.94,195.168 2027.93,283.482 2029.93,253.882 2031.92,320.357 2033.91,182.741 2035.91,318.01 2037.9,502.933 2039.89,146.595 2041.89,232.439 2043.88,194.153 2045.87,364.416 2047.86,194.033 2049.86,223.73 2051.85,182.584 2053.84,224.999 2055.84,275.407 2057.83,384.085 2059.82,349.559 2061.82,185.863 2063.81,250.029 2065.8,306.067 2067.8,163.286 2069.79,196.846 2071.78,229.261 2073.78,280.013 2075.77,208.275 2077.76,213.431 2079.75,276.943 2081.75,251.79 2083.74,329.47 2085.73,216.496 2087.73,178.833 2089.72,327.483 2091.71,256.265 2093.71,131.277 2095.7,119.167 2097.69,339.786 2099.69,232.185 2101.68,172.925 2103.67,254.029 2105.67,235.318 2107.66,228.094 2109.65,214.085 2111.65,205.012 2113.64,259.673 2115.63,209.382 2117.62,172.716 2119.62,254.759 2121.61,370.664 2123.6,183.749 2125.6,120.997 2127.59,208.04 2129.58,213.47 2131.58,181.215 2133.57,153.211 2135.56,320.423 2137.56,351.986 2139.55,248.045 2141.54,199.976 2143.54,147.352 2145.53,239.294 2147.52,225.419 2149.51,151.901 2151.51,162.47 2153.5,160.161 2155.49,322.652 2157.49,140.123 2159.48,215.581 2161.47,316.751 2163.47,294.392 2165.46,346.799 2167.45,127.957 2169.45,230.201 2171.44,337.667 2173.43,303.245 2175.43,136.768 2177.42,214.987 2179.41,236.422 2181.41,342.882 2183.4,231.116 2185.39,263.537 2187.38,208.755 2189.38,309.978 2191.37,179.036 2193.36,399.57 2195.36,129.226 2197.35,205.133 2199.34,157.316 2201.34,262.163 2203.33,308.387 2205.32,277.042 2207.32,352.268 2209.31,323.7 2211.3,241.696 2213.3,403.029 2215.29,96.023 2217.28,305.303 2219.27,403.542 2221.27,282.741 2223.26,206.119 2225.25,296.193 2227.25,220.727 2229.24,241.951 2231.23,179.395 2233.23,306.842 2235.22,115.154 2237.21,195.351 2239.21,228.41 2241.2,214.282 2243.19,193.197 2245.19,184.586 2247.18,354.004 2249.17,312.433 2251.17,168.81 2253.16,289.876 2255.15,253.514 2257.14,103.715 2259.14,172.243 2261.13,252.198 2263.12,199.283 2265.12,230.998 2267.11,231.906 2269.1,141.24 2271.1,196.476 2273.09,135.757 2275.08,225.364 2277.08,153.447 2279.07,248.246 2281.06,150.78 2283.06,365.78 2285.05,261.116 2287.04,328.82 2289.04,335.034 2291.03,230.259 2293.02,237.579 "/>
<polyline clip-path="url(#clip682)" style="stroke:#e26f46; stroke-linecap:round; stroke-linejoin:round; stroke-width:4; stroke-opacity:1; fill:none" points="301.869,1093.41 303.862,701.879 305.856,904.913 307.849,1115.75 309.842,954.831 311.835,615.272 313.828,611.578 315.821,1059.48 317.814,689.565 319.808,1005.28 321.801,978.209 323.794,879.545 325.787,710.735 327.78,987.098 329.773,920.261 331.766,780.718 333.76,1126.59 335.753,645.875 337.746,975.958 339.739,756.321 341.732,877.569 343.725,626.759 345.718,793.151 347.712,540.811 349.705,829.746 351.698,666.184 353.691,899.502 355.684,728.577 357.677,538.808 359.67,804.241 361.664,953.656 363.657,574.281 365.65,731.971 367.643,496.109 369.636,772.403 371.629,707.314 373.622,891.073 375.616,945.015 377.609,699.132 379.602,674.179 381.595,883.717 383.588,762.842 385.581,540.506 387.574,735.167 389.568,710.895 391.561,244.068 393.554,600.759 395.547,913.689 397.54,510.23 399.533,551.285 401.526,549.354 403.52,696.98 405.513,677.011 407.506,618.985 409.499,375.807 411.492,737.302 413.485,704.897 415.479,657.475 417.472,537.485 419.465,750.842 421.458,417.61 423.451,550.334 425.444,571.539 427.437,730.539 429.431,515.592 431.424,519.321 433.417,506.535 435.41,539.627 437.403,623.81 439.396,363.051 441.389,881.714 443.383,684.941 445.376,528.032 447.369,744.719 449.362,461.263 451.355,685.433 453.348,673.677 455.341,515.9 457.335,615.392 459.328,473.095 461.321,547.672 463.314,377.524 465.307,534.323 467.3,463.195 469.293,403.413 471.287,414.561 473.28,273.099 475.273,603.041 477.266,561.663 479.259,471.809 481.252,464.49 483.245,221.384 485.239,371.564 487.232,278.537 489.225,553.535 491.218,321.247 493.211,453.273 495.204,543.721 497.197,397.224 499.191,86.1857 501.184,531.628 503.177,374.308 505.17,498.354 507.163,502.772 509.156,340.29 511.149,442.653 513.143,150.696 515.136,362.896 517.129,356.021 519.122,354.086 521.115,237.171 523.108,368.917 525.101,417.757 527.095,395.371 529.088,229.907 531.081,436.533 533.074,420.62 535.067,363.634 537.06,358.168 539.054,497.666 541.047,387.312 543.04,358.727 545.033,453.447 547.026,405.395 549.019,323.006 551.012,527.644 553.006,395.991 554.999,293.119 556.992,510.328 558.985,561.698 560.978,436.869 562.971,292.346 564.964,478.852 566.958,286.047 568.951,476.043 570.944,424.98 572.937,340.051 574.93,331.788 576.923,350.184 578.916,573.367 580.91,426.636 582.903,151.442 584.896,437.658 586.889,297.869 588.882,314.673 590.875,339.681 592.868,283.963 594.862,352.835 596.855,297.707 598.848,298.124 600.841,412.329 602.834,325.765 604.827,302.587 606.82,459.243 608.814,483.434 610.807,271.635 612.8,362.712 614.793,279.946 616.786,318.526 618.779,179.566 620.772,253.025 622.766,155.755 624.759,321.735 626.752,348.904 628.745,260.696 630.738,304.136 632.731,327.815 634.724,311.249 636.718,303.417 638.711,278.027 640.704,300.633 642.697,284.355 644.69,398.386 646.683,275.854 648.677,208.778 650.67,253.738 652.663,325.682 654.656,225.303 656.649,257.471 658.642,264.346 660.635,284.464 662.629,233.58 664.622,189.434 666.615,333.397 668.608,358.203 670.601,229.58 672.594,283.534 674.587,308.833 676.581,265.426 678.574,250.722 680.567,275.021 682.56,319.138 684.553,227.031 686.546,231.516 688.539,211.039 690.533,321.495 692.526,314.81 694.519,218.519 696.512,354.758 698.505,230.464 700.498,221.642 702.491,293.593 704.485,262.588 706.478,218.344 708.471,273.746 710.464,304.111 712.457,273.013 714.45,294.279 716.443,186.291 718.437,263.238 720.43,220.91 722.423,325.493 724.416,276.87 726.409,351.326 728.402,242.742 730.395,234.666 732.389,238.769 734.382,216.619 736.375,262.929 738.368,286.838 740.361,275.708 742.354,232.9 744.347,257.959 746.341,216.304 748.334,272.923 750.327,200.157 752.32,343.788 754.313,252.261 756.306,205.621 758.299,260.503 760.293,214.411 762.286,240.274 764.279,224.082 766.272,268.229 768.265,212.931 770.258,238.566 772.252,324.096 774.245,283.864 776.238,278.21 778.231,235.04 780.224,273.819 782.217,239.139 784.21,281.474 786.204,258.419 788.197,268.802 790.19,246.253 792.183,254.439 794.176,212.942 796.169,260.416 798.162,237.163 800.156,175.51 802.149,283.149 804.142,261.404 806.135,243.672 808.128,228.544 810.121,276.61 812.114,238.725 814.108,271.003 816.101,244.665 818.094,287.21 820.087,242.882 822.08,233.564 824.073,250.154 826.066,256.335 828.06,254.24 830.053,211.902 832.046,254.855 834.039,228.066 836.032,226.445 838.025,204.754 840.018,202.547 842.012,215.238 844.005,218.552 845.998,233.077 847.991,243.2 849.984,229.105 851.977,206.22 853.97,236.706 855.964,192.333 857.957,249.821 859.95,257.057 861.943,242.918 863.936,252.409 865.929,270.812 867.922,187.108 869.916,245.68 871.909,244.881 873.902,227.759 875.895,191.437 877.888,250.19 879.881,229.537 881.874,237.663 883.868,241.644 885.861,247.812 887.854,182.696 889.847,276.524 891.84,226.982 893.833,251.687 895.827,211.915 897.82,259.122 899.813,247.142 901.806,261.059 903.799,243.155 905.792,208.726 907.785,223.818 909.779,253.839 911.772,237.303 913.765,244.728 915.758,239.063 917.751,259.984 919.744,241.621 921.737,231.931 923.731,227.058 925.724,250.39 927.717,259.603 929.71,235.136 931.703,211.623 933.696,231.634 935.689,230.426 937.683,228.435 939.676,232.498 941.669,225.182 943.662,246.015 945.655,252.404 947.648,258.676 949.641,243.756 951.635,239.566 953.628,241.756 955.621,247.498 957.614,230.161 959.607,228.033 961.6,235.923 963.593,242.41 965.587,242.653 967.58,235.463 969.573,257.25 971.566,250.398 973.559,248.629 975.552,199.788 977.545,233.514 979.539,235.119 981.532,234.173 983.525,232.985 985.518,228.048 987.511,235.876 989.504,210.841 991.497,230.078 993.491,223.277 995.484,233.336 997.477,236.874 999.47,227.28 1001.46,224.447 1003.46,237.944 1005.45,220.582 1007.44,230.551 1009.44,255.767 1011.43,236.459 1013.42,234.763 1015.42,228.509 1017.41,245.854 1019.4,246.759 1021.39,229.531 1023.39,228.065 1025.38,239.187 1027.37,223.619 1029.37,230.581 1031.36,211.399 1033.35,239.054 1035.35,234.246 1037.34,227.264 1039.33,238.457 1041.33,237.838 1043.32,240.848 1045.31,244.525 1047.31,229.291 1049.3,224.323 1051.29,207.408 1053.28,238.086 1055.28,217.84 1057.27,229.422 1059.26,231.851 1061.26,227.796 1063.25,227.971 1065.24,235.72 1067.24,229.836 1069.23,230.258 1071.22,224.047 1073.22,243.813 1075.21,223.997 1077.2,234.861 1079.2,222.503 1081.19,224.312 1083.18,234.633 1085.18,230.392 1087.17,226.972 1089.16,227.464 1091.15,237.867 1093.15,232.531 1095.14,231.267 1097.13,223.808 1099.13,227.755 1101.12,230.648 1103.11,222.953 1105.11,230.195 1107.1,229.851 1109.09,240.581 1111.09,233.025 1113.08,225.107 1115.07,235.665 1117.07,231.441 1119.06,230.172 1121.05,229.417 1123.05,239.046 1125.04,233.338 1127.03,236.429 1129.02,231.259 1131.02,231.404 1133.01,239.014 1135,235.656 1137,237.346 1138.99,226.919 1140.98,227.395 1142.98,228.315 1144.97,227.044 1146.96,233.087 1148.96,222.108 1150.95,230.724 1152.94,228.391 1154.94,238.481 1156.93,229.969 1158.92,227.332 1160.91,233.688 1162.91,234.683 1164.9,229.789 1166.89,225.688 1168.89,232.805 1170.88,227.569 1172.87,233.855 1174.87,228.449 1176.86,231.306 1178.85,230.855 1180.85,231.428 1182.84,229.698 1184.83,228.881 1186.83,233.21 1188.82,226.52 1190.81,232.046 1192.81,230.09 1194.8,232.741 1196.79,231.913 1198.78,231.966 1200.78,228.939 1202.77,232.891 1204.76,227.904 1206.76,227.043 1208.75,230.219 1210.74,229.438 1212.74,228.476 1214.73,232.017 1216.72,229.828 1218.72,231.65 1220.71,229.891 1222.7,229.328 1224.7,232.933 1226.69,233.374 1228.68,229.569 1230.67,232.012 1232.67,231.27 1234.66,231.331 1236.65,234.129 1238.65,232.469 1240.64,229.27 1242.63,229.968 1244.63,230.351 1246.62,228.645 1248.61,230.107 1250.61,231.497 1252.6,228.27 1254.59,232.111 1256.59,230.587 1258.58,230.491 1260.57,229.395 1262.57,230.442 1264.56,230.759 1266.55,228.354 1268.54,229.484 1270.54,232.491 1272.53,228.778 1274.52,232.435 1276.52,231.207 1278.51,231.801 1280.5,228.956 1282.5,228.713 1284.49,229.506 1286.48,230.405 1288.48,229.895 1290.47,228.999 1292.46,231.159 1294.46,227.803 1296.45,231.111 1298.44,230.729 1300.44,231.254 1302.43,230.248 1304.42,230.061 1306.41,229.801 1308.41,228.499 1310.4,231.242 1312.39,230.561 1314.39,228.752 1316.38,231.116 1318.37,228.912 1320.37,228.894 1322.36,229.205 1324.35,230.508 1326.35,230.094 1328.34,230.643 1330.33,230.507 1332.33,231.178 1334.32,230.216 1336.31,230.291 1338.3,231.07 1340.3,230.915 1342.29,229.957 1344.28,231.592 1346.28,228.666 1348.27,230.794 1350.26,228.879 1352.26,230.078 1354.25,228.709 1356.24,229.968 1358.24,230.798 1360.23,231.1 1362.22,230.973 1364.22,229.605 1366.21,229.609 1368.2,230.408 1370.2,230.071 1372.19,230.793 1374.18,230.101 1376.17,229.822 1378.17,229.505 1380.16,229.724 1382.15,229.665 1384.15,229.369 1386.14,230.535 1388.13,230.789 1390.13,230.301 1392.12,229.817 1394.11,229.734 1396.11,229.254 1398.1,229.778 1400.09,230.41 1402.09,229.745 1404.08,230.65 1406.07,229.82 1408.06,230.54 1410.06,229.752 1412.05,229.794 1414.04,230.316 1416.04,229.443 1418.03,229.978 1420.02,230.139 1422.02,230.249 1424.01,229.714 1426,229.591 1428,230.246 1429.99,229.903 1431.98,230.395 1433.98,229.83 1435.97,229.888 1437.96,229.306 1439.96,229.874 1441.95,229.773 1443.94,229.779 1445.93,230.154 1447.93,230.286 1449.92,230.409 1451.91,229.251 1453.91,230.136 1455.9,229.992 1457.89,230.443 1459.89,229.81 1461.88,230.454 1463.87,229.891 1465.87,230.259 1467.86,229.763 1469.85,229.81 1471.85,230.085 1473.84,229.828 1475.83,230.411 1477.82,230.331 1479.82,230.293 1481.81,229.817 1483.8,229.842 1485.8,229.772 1487.79,230.144 1489.78,230.155 1491.78,229.714 1493.77,230.402 1495.76,229.614 1497.76,230.357 1499.75,229.812 1501.74,230.166 1503.74,229.902 1505.73,229.903 1507.72,229.635 1509.72,230.06 1511.71,230.269 1513.7,230.207 1515.69,229.87 1517.69,229.723 1519.68,230.15 1521.67,229.945 1523.67,229.924 1525.66,230.183 1527.65,229.807 1529.65,229.879 1531.64,229.8 1533.63,229.862 1535.63,229.882 1537.62,230.129 1539.61,229.947 1541.61,229.863 1543.6,229.889 1545.59,229.991 1547.59,229.816 1549.58,229.885 1551.57,229.933 1553.56,229.715 1555.56,229.822 1557.55,230.036 1559.54,230.015 1561.54,229.876 1563.53,229.921 1565.52,229.769 1567.52,229.988 1569.51,229.896 1571.5,229.969 1573.5,230.007 1575.49,229.954 1577.48,230.007 1579.48,229.87 1581.47,230.058 1583.46,229.939 1585.45,229.723 1587.45,229.933 1589.44,230.057 1591.43,229.812 1593.43,229.911 1595.42,229.847 1597.41,229.88 1599.41,230.026 1601.4,229.897 1603.39,229.828 1605.39,229.875 1607.38,229.791 1609.37,230.016 1611.37,229.796 1613.36,229.846 1615.35,229.84 1617.35,229.871 1619.34,229.838 1621.33,229.961 1623.32,229.968 1625.32,229.969 1627.31,229.892 1629.3,229.912 1631.3,229.953 1633.29,229.927 1635.28,229.961 1637.28,229.954 1639.27,230.034 1641.26,229.975 1643.26,229.948 1645.25,229.89 1647.24,229.958 1649.24,229.957 1651.23,230.01 1653.22,229.904 1655.21,229.942 1657.21,229.934 1659.2,229.957 1661.19,229.929 1663.19,229.83 1665.18,229.948 1667.17,229.959 1669.17,229.886 1671.16,229.915 1673.15,229.835 1675.15,229.862 1677.14,229.969 1679.13,229.851 1681.13,229.918 1683.12,229.896 1685.11,229.952 1687.11,229.9 1689.1,229.909 1691.09,229.861 1693.08,229.976 1695.08,229.929 1697.07,229.931 1699.06,229.882 1701.06,229.944 1703.05,229.951 1705.04,229.925 1707.04,229.942 1709.03,229.922 1711.02,229.952 1713.02,229.903 1715.01,229.981 1717,229.873 1719,229.893 1720.99,229.912 1722.98,229.914 1724.97,229.914 1726.97,229.925 1728.96,229.932 1730.95,229.934 1732.95,229.953 1734.94,229.902 1736.93,229.953 1738.93,229.906 1740.92,229.92 1742.91,229.92 1744.91,229.931 1746.9,229.906 1748.89,229.914 1750.89,229.942 1752.88,229.914 1754.87,229.91 1756.87,229.902 1758.86,229.942 1760.85,229.911 1762.84,229.915 1764.84,229.917 1766.83,229.933 1768.82,229.915 1770.82,229.909 1772.81,229.911 1774.8,229.917 1776.8,229.936 1778.79,229.915 1780.78,229.908 1782.78,229.909 1784.77,229.924 1786.76,229.938 1788.76,229.926 1790.75,229.918 1792.74,229.932 1794.74,229.923 1796.73,229.915 1798.72,229.928 1800.71,229.914 1802.71,229.923 1804.7,229.91 1806.69,229.918 1808.69,229.926 1810.68,229.928 1812.67,229.927 1814.67,229.927 1816.66,229.926 1818.65,229.912 1820.65,229.921 1822.64,229.922 1824.63,229.927 1826.63,229.913 1828.62,229.915 1830.61,229.927 1832.6,229.919 1834.6,229.918 1836.59,229.913 1838.58,229.921 1840.58,229.917 1842.57,229.924 1844.56,229.919 1846.56,229.928 1848.55,229.923 1850.54,229.92 1852.54,229.913 1854.53,229.921 1856.52,229.914 1858.52,229.92 1860.51,229.918 1862.5,229.916 1864.5,229.92 1866.49,229.918 1868.48,229.92 1870.47,229.919 1872.47,229.918 1874.46,229.923 1876.45,229.92 1878.45,229.92 1880.44,229.911 1882.43,229.918 1884.43,229.919 1886.42,229.921 1888.41,229.913 1890.41,229.914 1892.4,229.919 1894.39,229.921 1896.39,229.923 1898.38,229.915 1900.37,229.916 1902.36,229.922 1904.36,229.924 1906.35,229.917 1908.34,229.919 1910.34,229.919 1912.33,229.921 1914.32,229.918 1916.32,229.917 1918.31,229.92 1920.3,229.921 1922.3,229.921 1924.29,229.916 1926.28,229.918 1928.28,229.92 1930.27,229.917 1932.26,229.919 1934.26,229.918 1936.25,229.915 1938.24,229.919 1940.23,229.919 1942.23,229.917 1944.22,229.918 1946.21,229.922 1948.21,229.921 1950.2,229.919 1952.19,229.917 1954.19,229.92 1956.18,229.916 1958.17,229.916 1960.17,229.921 1962.16,229.919 1964.15,229.918 1966.15,229.917 1968.14,229.919 1970.13,229.92 1972.12,229.919 1974.12,229.918 1976.11,229.917 1978.1,229.919 1980.1,229.919 1982.09,229.92 1984.08,229.921 1986.08,229.918 1988.07,229.919 1990.06,229.918 1992.06,229.917 1994.05,229.92 1996.04,229.92 1998.04,229.919 2000.03,229.918 2002.02,229.919 2004.02,229.918 2006.01,229.919 2008,229.919 2009.99,229.918 2011.99,229.918 2013.98,229.919 2015.97,229.92 2017.97,229.918 2019.96,229.918 2021.95,229.92 2023.95,229.919 2025.94,229.919 2027.93,229.918 2029.93,229.918 2031.92,229.918 2033.91,229.919 2035.91,229.919 2037.9,229.919 2039.89,229.918 2041.89,229.918 2043.88,229.918 2045.87,229.918 2047.86,229.92 2049.86,229.92 2051.85,229.919 2053.84,229.919 2055.84,229.918 2057.83,229.919 2059.82,229.919 2061.82,229.919 2063.81,229.919 2065.8,229.919 2067.8,229.918 2069.79,229.919 2071.78,229.918 2073.78,229.918 2075.77,229.918 2077.76,229.918 2079.75,229.919 2081.75,229.918 2083.74,229.918 2085.73,229.919 2087.73,229.919 2089.72,229.919 2091.71,229.919 2093.71,229.918 2095.7,229.918 2097.69,229.918 2099.69,229.919 2101.68,229.918 2103.67,229.919 2105.67,229.919 2107.66,229.918 2109.65,229.919 2111.65,229.918 2113.64,229.919 2115.63,229.918 2117.62,229.918 2119.62,229.919 2121.61,229.918 2123.6,229.919 2125.6,229.918 2127.59,229.919 2129.58,229.918 2131.58,229.918 2133.57,229.919 2135.56,229.919 2137.56,229.918 2139.55,229.919 2141.54,229.918 2143.54,229.918 2145.53,229.919 2147.52,229.918 2149.51,229.918 2151.51,229.918 2153.5,229.919 2155.49,229.919 2157.49,229.919 2159.48,229.919 2161.47,229.919 2163.47,229.918 2165.46,229.919 2167.45,229.919 2169.45,229.919 2171.44,229.918 2173.43,229.918 2175.43,229.919 2177.42,229.919 2179.41,229.919 2181.41,229.918 2183.4,229.918 2185.39,229.918 2187.38,229.918 2189.38,229.919 2191.37,229.919 2193.36,229.919 2195.36,229.919 2197.35,229.919 2199.34,229.919 2201.34,229.918 2203.33,229.918 2205.32,229.918 2207.32,229.919 2209.31,229.919 2211.3,229.919 2213.3,229.919 2215.29,229.918 2217.28,229.919 2219.27,229.919 2221.27,229.918 2223.26,229.919 2225.25,229.919 2227.25,229.919 2229.24,229.919 2231.23,229.918 2233.23,229.918 2235.22,229.918 2237.21,229.919 2239.21,229.919 2241.2,229.918 2243.19,229.919 2245.19,229.918 2247.18,229.918 2249.17,229.919 2251.17,229.919 2253.16,229.918 2255.15,229.919 2257.14,229.919 2259.14,229.918 2261.13,229.919 2263.12,229.919 2265.12,229.919 2267.11,229.919 2269.1,229.919 2271.1,229.919 2273.09,229.918 2275.08,229.918 2277.08,229.919 2279.07,229.919 2281.06,229.918 2283.06,229.919 2285.05,229.919 2287.04,229.919 2289.04,229.919 2291.03,229.919 2293.02,229.919 "/>
<path clip-path="url(#clip680)" d="M1863.63 1377.32 L2282.4 1377.32 L2282.4 1221.8 L1863.63 1221.8  Z" fill="#ffffff" fill-rule="evenodd" fill-opacity="1"/>
<polyline clip-path="url(#clip680)" style="stroke:#000000; stroke-linecap:round; stroke-linejoin:round; stroke-width:4; stroke-opacity:1; fill:none" points="1863.63,1377.32 2282.4,1377.32 2282.4,1221.8 1863.63,1221.8 1863.63,1377.32 "/>
<polyline clip-path="url(#clip680)" style="stroke:#009af9; stroke-linecap:round; stroke-linejoin:round; stroke-width:4; stroke-opacity:1; fill:none" points="1887.08,1273.64 2027.79,1273.64 "/>
<path clip-path="url(#clip680)" d="M2055.92 1274.41 L2055.92 1287.07 L2063.42 1287.07 Q2067.19 1287.07 2069 1285.52 Q2070.83 1283.95 2070.83 1280.73 Q2070.83 1277.49 2069 1275.96 Q2067.19 1274.41 2063.42 1274.41 L2055.92 1274.41 M2055.92 1260.2 L2055.92 1270.61 L2062.84 1270.61 Q2066.27 1270.61 2067.93 1269.34 Q2069.62 1268.05 2069.62 1265.41 Q2069.62 1262.79 2067.93 1261.49 Q2066.27 1260.2 2062.84 1260.2 L2055.92 1260.2 M2051.24 1256.36 L2063.19 1256.36 Q2068.53 1256.36 2071.43 1258.58 Q2074.32 1260.8 2074.32 1264.9 Q2074.32 1268.07 2072.84 1269.94 Q2071.36 1271.82 2068.49 1272.28 Q2071.94 1273.02 2073.84 1275.38 Q2075.76 1277.72 2075.76 1281.24 Q2075.76 1285.87 2072.61 1288.39 Q2069.46 1290.92 2063.65 1290.92 L2051.24 1290.92 L2051.24 1256.36 Z" fill="#000000" fill-rule="nonzero" fill-opacity="1" /><path clip-path="url(#clip680)" d="M2088.44 1274.41 L2088.44 1287.07 L2095.94 1287.07 Q2099.72 1287.07 2101.52 1285.52 Q2103.35 1283.95 2103.35 1280.73 Q2103.35 1277.49 2101.52 1275.96 Q2099.72 1274.41 2095.94 1274.41 L2088.44 1274.41 M2088.44 1260.2 L2088.44 1270.61 L2095.36 1270.61 Q2098.79 1270.61 2100.46 1269.34 Q2102.15 1268.05 2102.15 1265.41 Q2102.15 1262.79 2100.46 1261.49 Q2098.79 1260.2 2095.36 1260.2 L2088.44 1260.2 M2083.77 1256.36 L2095.71 1256.36 Q2101.06 1256.36 2103.95 1258.58 Q2106.84 1260.8 2106.84 1264.9 Q2106.84 1268.07 2105.36 1269.94 Q2103.88 1271.82 2101.01 1272.28 Q2104.46 1273.02 2106.36 1275.38 Q2108.28 1277.72 2108.28 1281.24 Q2108.28 1285.87 2105.13 1288.39 Q2101.98 1290.92 2096.17 1290.92 L2083.77 1290.92 L2083.77 1256.36 Z" fill="#000000" fill-rule="nonzero" fill-opacity="1" /><path clip-path="url(#clip680)" d="M2123.74 1290.92 L2110.55 1256.36 L2115.43 1256.36 L2126.38 1285.45 L2137.35 1256.36 L2142.22 1256.36 L2129.04 1290.92 L2123.74 1290.92 Z" fill="#000000" fill-rule="nonzero" fill-opacity="1" /><path clip-path="url(#clip680)" d="M2147.26 1256.36 L2151.94 1256.36 L2151.94 1290.92 L2147.26 1290.92 L2147.26 1256.36 Z" fill="#000000" fill-rule="nonzero" fill-opacity="1" /><path clip-path="url(#clip680)" d="M2202.19 1259.02 L2202.19 1263.95 Q2199.83 1261.75 2197.15 1260.66 Q2194.48 1259.57 2191.47 1259.57 Q2185.55 1259.57 2182.4 1263.21 Q2179.25 1266.82 2179.25 1273.67 Q2179.25 1280.5 2182.4 1284.13 Q2185.55 1287.74 2191.47 1287.74 Q2194.48 1287.74 2197.15 1286.66 Q2199.83 1285.57 2202.19 1283.37 L2202.19 1288.25 Q2199.74 1289.92 2196.98 1290.75 Q2194.25 1291.59 2191.2 1291.59 Q2183.35 1291.59 2178.84 1286.79 Q2174.32 1281.98 2174.32 1273.67 Q2174.32 1265.34 2178.84 1260.55 Q2183.35 1255.73 2191.2 1255.73 Q2194.3 1255.73 2197.03 1256.56 Q2199.78 1257.37 2202.19 1259.02 Z" fill="#000000" fill-rule="nonzero" fill-opacity="1" /><path clip-path="url(#clip680)" d="M2209.41 1256.36 L2229.27 1256.36 L2229.27 1260.29 L2214.09 1260.29 L2214.09 1270.48 L2227.79 1270.48 L2227.79 1274.41 L2214.09 1274.41 L2214.09 1290.92 L2209.41 1290.92 L2209.41 1256.36 Z" fill="#000000" fill-rule="nonzero" fill-opacity="1" /><path clip-path="url(#clip680)" d="M2236.68 1256.36 L2258.53 1256.36 L2258.53 1260.29 L2241.36 1260.29 L2241.36 1270.52 L2257.82 1270.52 L2257.82 1274.46 L2241.36 1274.46 L2241.36 1286.98 L2258.95 1286.98 L2258.95 1290.92 L2236.68 1290.92 L2236.68 1256.36 Z" fill="#000000" fill-rule="nonzero" fill-opacity="1" /><polyline clip-path="url(#clip680)" style="stroke:#e26f46; stroke-linecap:round; stroke-linejoin:round; stroke-width:4; stroke-opacity:1; fill:none" points="1887.08,1325.48 2027.79,1325.48 "/>
<path clip-path="url(#clip680)" d="M2055.92 1326.25 L2055.92 1338.91 L2063.42 1338.91 Q2067.19 1338.91 2069 1337.36 Q2070.83 1335.79 2070.83 1332.57 Q2070.83 1329.33 2069 1327.8 Q2067.19 1326.25 2063.42 1326.25 L2055.92 1326.25 M2055.92 1312.04 L2055.92 1322.45 L2062.84 1322.45 Q2066.27 1322.45 2067.93 1321.18 Q2069.62 1319.89 2069.62 1317.25 Q2069.62 1314.63 2067.93 1313.33 Q2066.27 1312.04 2062.84 1312.04 L2055.92 1312.04 M2051.24 1308.2 L2063.19 1308.2 Q2068.53 1308.2 2071.43 1310.42 Q2074.32 1312.64 2074.32 1316.74 Q2074.32 1319.91 2072.84 1321.78 Q2071.36 1323.66 2068.49 1324.12 Q2071.94 1324.86 2073.84 1327.22 Q2075.76 1329.56 2075.76 1333.08 Q2075.76 1337.71 2072.61 1340.23 Q2069.46 1342.76 2063.65 1342.76 L2051.24 1342.76 L2051.24 1308.2 Z" fill="#000000" fill-rule="nonzero" fill-opacity="1" /><path clip-path="url(#clip680)" d="M2088.44 1326.25 L2088.44 1338.91 L2095.94 1338.91 Q2099.72 1338.91 2101.52 1337.36 Q2103.35 1335.79 2103.35 1332.57 Q2103.35 1329.33 2101.52 1327.8 Q2099.72 1326.25 2095.94 1326.25 L2088.44 1326.25 M2088.44 1312.04 L2088.44 1322.45 L2095.36 1322.45 Q2098.79 1322.45 2100.46 1321.18 Q2102.15 1319.89 2102.15 1317.25 Q2102.15 1314.63 2100.46 1313.33 Q2098.79 1312.04 2095.36 1312.04 L2088.44 1312.04 M2083.77 1308.2 L2095.71 1308.2 Q2101.06 1308.2 2103.95 1310.42 Q2106.84 1312.64 2106.84 1316.74 Q2106.84 1319.91 2105.36 1321.78 Q2103.88 1323.66 2101.01 1324.12 Q2104.46 1324.86 2106.36 1327.22 Q2108.28 1329.56 2108.28 1333.08 Q2108.28 1337.71 2105.13 1340.23 Q2101.98 1342.76 2096.17 1342.76 L2083.77 1342.76 L2083.77 1308.2 Z" fill="#000000" fill-rule="nonzero" fill-opacity="1" /><path clip-path="url(#clip680)" d="M2123.74 1342.76 L2110.55 1308.2 L2115.43 1308.2 L2126.38 1337.29 L2137.35 1308.2 L2142.22 1308.2 L2129.04 1342.76 L2123.74 1342.76 Z" fill="#000000" fill-rule="nonzero" fill-opacity="1" /><path clip-path="url(#clip680)" d="M2147.26 1308.2 L2151.94 1308.2 L2151.94 1342.76 L2147.26 1342.76 L2147.26 1308.2 Z" fill="#000000" fill-rule="nonzero" fill-opacity="1" /><path clip-path="url(#clip680)" d="M2197.03 1309.33 L2197.03 1313.89 Q2194.37 1312.62 2192.01 1311.99 Q2189.65 1311.37 2187.45 1311.37 Q2183.63 1311.37 2181.54 1312.85 Q2179.48 1314.33 2179.48 1317.06 Q2179.48 1319.35 2180.85 1320.53 Q2182.24 1321.69 2186.08 1322.41 L2188.9 1322.99 Q2194.14 1323.98 2196.61 1326.51 Q2199.11 1329.01 2199.11 1333.22 Q2199.11 1338.24 2195.73 1340.83 Q2192.38 1343.43 2185.87 1343.43 Q2183.42 1343.43 2180.64 1342.87 Q2177.89 1342.32 2174.92 1341.23 L2174.92 1336.41 Q2177.77 1338.01 2180.5 1338.82 Q2183.23 1339.63 2185.87 1339.63 Q2189.88 1339.63 2192.05 1338.06 Q2194.23 1336.48 2194.23 1333.57 Q2194.23 1331.02 2192.65 1329.58 Q2191.1 1328.15 2187.54 1327.43 L2184.69 1326.88 Q2179.46 1325.83 2177.12 1323.61 Q2174.78 1321.39 2174.78 1317.43 Q2174.78 1312.85 2178 1310.21 Q2181.24 1307.57 2186.91 1307.57 Q2189.34 1307.57 2191.87 1308.01 Q2194.39 1308.45 2197.03 1309.33 Z" fill="#000000" fill-rule="nonzero" fill-opacity="1" /><path clip-path="url(#clip680)" d="M2201.61 1308.2 L2230.85 1308.2 L2230.85 1312.13 L2218.58 1312.13 L2218.58 1342.76 L2213.88 1342.76 L2213.88 1312.13 L2201.61 1312.13 L2201.61 1308.2 Z" fill="#000000" fill-rule="nonzero" fill-opacity="1" /><path clip-path="url(#clip680)" d="M2235.36 1308.2 L2240.04 1308.2 L2240.04 1338.82 L2256.87 1338.82 L2256.87 1342.76 L2235.36 1342.76 L2235.36 1308.2 Z" fill="#000000" fill-rule="nonzero" fill-opacity="1" /></svg>
