<?xml version="1.0" encoding="utf-8"?>
<svg xmlns="http://www.w3.org/2000/svg" xmlns:xlink="http://www.w3.org/1999/xlink" width="600" height="400" viewBox="0 0 2400 1600">
<defs>
  <clipPath id="clip540">
    <rect x="0" y="0" width="2400" height="1600"/>
  </clipPath>
</defs>
<path clip-path="url(#clip540)" d="M0 1600 L2400 1600 L2400 0 L0 0  Z" fill="#ffffff" fill-rule="evenodd" fill-opacity="1"/>
<defs>
  <clipPath id="clip541">
    <rect x="251" y="47" width="2102" height="1377"/>
  </clipPath>
</defs>
<path clip-path="url(#clip540)" d="M242.135 1423.18 L2352.76 1423.18 L2352.76 47.2441 L242.135 47.2441  Z" fill="#ffffff" fill-rule="evenodd" fill-opacity="1"/>
<defs>
  <clipPath id="clip542">
    <rect x="242" y="47" width="2112" height="1377"/>
  </clipPath>
</defs>
<polyline clip-path="url(#clip542)" style="stroke:#000000; stroke-linecap:round; stroke-linejoin:round; stroke-width:2; stroke-opacity:0.1; fill:none" points="299.876,1423.18 299.876,47.2441 "/>
<polyline clip-path="url(#clip542)" style="stroke:#000000; stroke-linecap:round; stroke-linejoin:round; stroke-width:2; stroke-opacity:0.1; fill:none" points="798.162,1423.18 798.162,47.2441 "/>
<polyline clip-path="url(#clip542)" style="stroke:#000000; stroke-linecap:round; stroke-linejoin:round; stroke-width:2; stroke-opacity:0.1; fill:none" points="1296.45,1423.18 1296.45,47.2441 "/>
<polyline clip-path="url(#clip542)" style="stroke:#000000; stroke-linecap:round; stroke-linejoin:round; stroke-width:2; stroke-opacity:0.1; fill:none" points="1794.74,1423.18 1794.74,47.2441 "/>
<polyline clip-path="url(#clip542)" style="stroke:#000000; stroke-linecap:round; stroke-linejoin:round; stroke-width:2; stroke-opacity:0.1; fill:none" points="2293.02,1423.18 2293.02,47.2441 "/>
<polyline clip-path="url(#clip542)" style="stroke:#000000; stroke-linecap:round; stroke-linejoin:round; stroke-width:2; stroke-opacity:0.1; fill:none" points="242.135,1232.28 2352.76,1232.28 "/>
<polyline clip-path="url(#clip542)" style="stroke:#000000; stroke-linecap:round; stroke-linejoin:round; stroke-width:2; stroke-opacity:0.1; fill:none" points="242.135,1037.28 2352.76,1037.28 "/>
<polyline clip-path="url(#clip542)" style="stroke:#000000; stroke-linecap:round; stroke-linejoin:round; stroke-width:2; stroke-opacity:0.1; fill:none" points="242.135,842.268 2352.76,842.268 "/>
<polyline clip-path="url(#clip542)" style="stroke:#000000; stroke-linecap:round; stroke-linejoin:round; stroke-width:2; stroke-opacity:0.1; fill:none" points="242.135,647.26 2352.76,647.26 "/>
<polyline clip-path="url(#clip542)" style="stroke:#000000; stroke-linecap:round; stroke-linejoin:round; stroke-width:2; stroke-opacity:0.1; fill:none" points="242.135,452.252 2352.76,452.252 "/>
<polyline clip-path="url(#clip542)" style="stroke:#000000; stroke-linecap:round; stroke-linejoin:round; stroke-width:2; stroke-opacity:0.1; fill:none" points="242.135,257.244 2352.76,257.244 "/>
<polyline clip-path="url(#clip542)" style="stroke:#000000; stroke-linecap:round; stroke-linejoin:round; stroke-width:2; stroke-opacity:0.1; fill:none" points="242.135,62.2357 2352.76,62.2357 "/>
<polyline clip-path="url(#clip540)" style="stroke:#000000; stroke-linecap:round; stroke-linejoin:round; stroke-width:4; stroke-opacity:1; fill:none" points="242.135,1423.18 2352.76,1423.18 "/>
<polyline clip-path="url(#clip540)" style="stroke:#000000; stroke-linecap:round; stroke-linejoin:round; stroke-width:4; stroke-opacity:1; fill:none" points="299.876,1423.18 299.876,1404.28 "/>
<polyline clip-path="url(#clip540)" style="stroke:#000000; stroke-linecap:round; stroke-linejoin:round; stroke-width:4; stroke-opacity:1; fill:none" points="798.162,1423.18 798.162,1404.28 "/>
<polyline clip-path="url(#clip540)" style="stroke:#000000; stroke-linecap:round; stroke-linejoin:round; stroke-width:4; stroke-opacity:1; fill:none" points="1296.45,1423.18 1296.45,1404.28 "/>
<polyline clip-path="url(#clip540)" style="stroke:#000000; stroke-linecap:round; stroke-linejoin:round; stroke-width:4; stroke-opacity:1; fill:none" points="1794.74,1423.18 1794.74,1404.28 "/>
<polyline clip-path="url(#clip540)" style="stroke:#000000; stroke-linecap:round; stroke-linejoin:round; stroke-width:4; stroke-opacity:1; fill:none" points="2293.02,1423.18 2293.02,1404.28 "/>
<path clip-path="url(#clip540)" d="M299.876 1454.1 Q296.265 1454.1 294.436 1457.66 Q292.631 1461.2 292.631 1468.33 Q292.631 1475.44 294.436 1479.01 Q296.265 1482.55 299.876 1482.55 Q303.51 1482.55 305.316 1479.01 Q307.145 1475.44 307.145 1468.33 Q307.145 1461.2 305.316 1457.66 Q303.51 1454.1 299.876 1454.1 M299.876 1450.39 Q305.686 1450.39 308.742 1455 Q311.82 1459.58 311.82 1468.33 Q311.82 1477.06 308.742 1481.67 Q305.686 1486.25 299.876 1486.25 Q294.066 1486.25 290.987 1481.67 Q287.932 1477.06 287.932 1468.33 Q287.932 1459.58 290.987 1455 Q294.066 1450.39 299.876 1450.39 Z" fill="#000000" fill-rule="nonzero" fill-opacity="1" /><path clip-path="url(#clip540)" d="M761.855 1481.64 L778.174 1481.64 L778.174 1485.58 L756.23 1485.58 L756.23 1481.64 Q758.892 1478.89 763.475 1474.26 Q768.082 1469.61 769.262 1468.27 Q771.507 1465.74 772.387 1464.01 Q773.29 1462.25 773.29 1460.56 Q773.29 1457.8 771.345 1456.07 Q769.424 1454.33 766.322 1454.33 Q764.123 1454.33 761.67 1455.09 Q759.239 1455.86 756.461 1457.41 L756.461 1452.69 Q759.285 1451.55 761.739 1450.97 Q764.193 1450.39 766.23 1450.39 Q771.6 1450.39 774.794 1453.08 Q777.989 1455.77 777.989 1460.26 Q777.989 1462.39 777.179 1464.31 Q776.392 1466.2 774.285 1468.8 Q773.707 1469.47 770.605 1472.69 Q767.503 1475.88 761.855 1481.64 Z" fill="#000000" fill-rule="nonzero" fill-opacity="1" /><path clip-path="url(#clip540)" d="M788.035 1451.02 L806.392 1451.02 L806.392 1454.96 L792.318 1454.96 L792.318 1463.43 Q793.336 1463.08 794.355 1462.92 Q795.373 1462.73 796.392 1462.73 Q802.179 1462.73 805.558 1465.9 Q808.938 1469.08 808.938 1474.49 Q808.938 1480.07 805.466 1483.17 Q801.993 1486.25 795.674 1486.25 Q793.498 1486.25 791.23 1485.88 Q788.984 1485.51 786.577 1484.77 L786.577 1480.07 Q788.66 1481.2 790.882 1481.76 Q793.105 1482.32 795.581 1482.32 Q799.586 1482.32 801.924 1480.21 Q804.262 1478.1 804.262 1474.49 Q804.262 1470.88 801.924 1468.77 Q799.586 1466.67 795.581 1466.67 Q793.706 1466.67 791.831 1467.08 Q789.98 1467.5 788.035 1468.38 L788.035 1451.02 Z" fill="#000000" fill-rule="nonzero" fill-opacity="1" /><path clip-path="url(#clip540)" d="M828.151 1454.1 Q824.54 1454.1 822.711 1457.66 Q820.905 1461.2 820.905 1468.33 Q820.905 1475.44 822.711 1479.01 Q824.54 1482.55 828.151 1482.55 Q831.785 1482.55 833.59 1479.01 Q835.419 1475.44 835.419 1468.33 Q835.419 1461.2 833.59 1457.66 Q831.785 1454.1 828.151 1454.1 M828.151 1450.39 Q833.961 1450.39 837.016 1455 Q840.095 1459.58 840.095 1468.33 Q840.095 1477.06 837.016 1481.67 Q833.961 1486.25 828.151 1486.25 Q822.341 1486.25 819.262 1481.67 Q816.206 1477.06 816.206 1468.33 Q816.206 1459.58 819.262 1455 Q822.341 1450.39 828.151 1450.39 Z" fill="#000000" fill-rule="nonzero" fill-opacity="1" /><path clip-path="url(#clip540)" d="M1256.07 1451.02 L1274.42 1451.02 L1274.42 1454.96 L1260.35 1454.96 L1260.35 1463.43 Q1261.37 1463.08 1262.39 1462.92 Q1263.4 1462.73 1264.42 1462.73 Q1270.21 1462.73 1273.59 1465.9 Q1276.97 1469.08 1276.97 1474.49 Q1276.97 1480.07 1273.5 1483.17 Q1270.03 1486.25 1263.71 1486.25 Q1261.53 1486.25 1259.26 1485.88 Q1257.02 1485.51 1254.61 1484.77 L1254.61 1480.07 Q1256.69 1481.2 1258.91 1481.76 Q1261.14 1482.32 1263.61 1482.32 Q1267.62 1482.32 1269.96 1480.21 Q1272.29 1478.1 1272.29 1474.49 Q1272.29 1470.88 1269.96 1468.77 Q1267.62 1466.67 1263.61 1466.67 Q1261.74 1466.67 1259.86 1467.08 Q1258.01 1467.5 1256.07 1468.38 L1256.07 1451.02 Z" fill="#000000" fill-rule="nonzero" fill-opacity="1" /><path clip-path="url(#clip540)" d="M1296.18 1454.1 Q1292.57 1454.1 1290.74 1457.66 Q1288.94 1461.2 1288.94 1468.33 Q1288.94 1475.44 1290.74 1479.01 Q1292.57 1482.55 1296.18 1482.55 Q1299.82 1482.55 1301.62 1479.01 Q1303.45 1475.44 1303.45 1468.33 Q1303.45 1461.2 1301.62 1457.66 Q1299.82 1454.1 1296.18 1454.1 M1296.18 1450.39 Q1301.99 1450.39 1305.05 1455 Q1308.13 1459.58 1308.13 1468.33 Q1308.13 1477.06 1305.05 1481.67 Q1301.99 1486.25 1296.18 1486.25 Q1290.37 1486.25 1287.29 1481.67 Q1284.24 1477.06 1284.24 1468.33 Q1284.24 1459.58 1287.29 1455 Q1290.37 1450.39 1296.18 1450.39 Z" fill="#000000" fill-rule="nonzero" fill-opacity="1" /><path clip-path="url(#clip540)" d="M1326.34 1454.1 Q1322.73 1454.1 1320.9 1457.66 Q1319.1 1461.2 1319.1 1468.33 Q1319.1 1475.44 1320.9 1479.01 Q1322.73 1482.55 1326.34 1482.55 Q1329.98 1482.55 1331.78 1479.01 Q1333.61 1475.44 1333.61 1468.33 Q1333.61 1461.2 1331.78 1457.66 Q1329.98 1454.1 1326.34 1454.1 M1326.34 1450.39 Q1332.15 1450.39 1335.21 1455 Q1338.29 1459.58 1338.29 1468.33 Q1338.29 1477.06 1335.21 1481.67 Q1332.15 1486.25 1326.34 1486.25 Q1320.53 1486.25 1317.46 1481.67 Q1314.4 1477.06 1314.4 1468.33 Q1314.4 1459.58 1317.46 1455 Q1320.53 1450.39 1326.34 1450.39 Z" fill="#000000" fill-rule="nonzero" fill-opacity="1" /><path clip-path="url(#clip540)" d="M1753.01 1451.02 L1775.23 1451.02 L1775.23 1453.01 L1762.69 1485.58 L1757.8 1485.58 L1769.61 1454.96 L1753.01 1454.96 L1753.01 1451.02 Z" fill="#000000" fill-rule="nonzero" fill-opacity="1" /><path clip-path="url(#clip540)" d="M1784.4 1451.02 L1802.76 1451.02 L1802.76 1454.96 L1788.68 1454.96 L1788.68 1463.43 Q1789.7 1463.08 1790.72 1462.92 Q1791.74 1462.73 1792.76 1462.73 Q1798.54 1462.73 1801.92 1465.9 Q1805.3 1469.08 1805.3 1474.49 Q1805.3 1480.07 1801.83 1483.17 Q1798.36 1486.25 1792.04 1486.25 Q1789.86 1486.25 1787.59 1485.88 Q1785.35 1485.51 1782.94 1484.77 L1782.94 1480.07 Q1785.02 1481.2 1787.25 1481.76 Q1789.47 1482.32 1791.95 1482.32 Q1795.95 1482.32 1798.29 1480.21 Q1800.63 1478.1 1800.63 1474.49 Q1800.63 1470.88 1798.29 1468.77 Q1795.95 1466.67 1791.95 1466.67 Q1790.07 1466.67 1788.2 1467.08 Q1786.34 1467.5 1784.4 1468.38 L1784.4 1451.02 Z" fill="#000000" fill-rule="nonzero" fill-opacity="1" /><path clip-path="url(#clip540)" d="M1824.51 1454.1 Q1820.9 1454.1 1819.08 1457.66 Q1817.27 1461.2 1817.27 1468.33 Q1817.27 1475.44 1819.08 1479.01 Q1820.9 1482.55 1824.51 1482.55 Q1828.15 1482.55 1829.95 1479.01 Q1831.78 1475.44 1831.78 1468.33 Q1831.78 1461.2 1829.95 1457.66 Q1828.15 1454.1 1824.51 1454.1 M1824.51 1450.39 Q1830.33 1450.39 1833.38 1455 Q1836.46 1459.58 1836.46 1468.33 Q1836.46 1477.06 1833.38 1481.67 Q1830.33 1486.25 1824.51 1486.25 Q1818.7 1486.25 1815.63 1481.67 Q1812.57 1477.06 1812.57 1468.33 Q1812.57 1459.58 1815.63 1455 Q1818.7 1450.39 1824.51 1450.39 Z" fill="#000000" fill-rule="nonzero" fill-opacity="1" /><path clip-path="url(#clip540)" d="M2237.55 1481.64 L2245.19 1481.64 L2245.19 1455.28 L2236.88 1456.95 L2236.88 1452.69 L2245.14 1451.02 L2249.82 1451.02 L2249.82 1481.64 L2257.45 1481.64 L2257.45 1485.58 L2237.55 1485.58 L2237.55 1481.64 Z" fill="#000000" fill-rule="nonzero" fill-opacity="1" /><path clip-path="url(#clip540)" d="M2276.9 1454.1 Q2273.29 1454.1 2271.46 1457.66 Q2269.65 1461.2 2269.65 1468.33 Q2269.65 1475.44 2271.46 1479.01 Q2273.29 1482.55 2276.9 1482.55 Q2280.53 1482.55 2282.34 1479.01 Q2284.17 1475.44 2284.17 1468.33 Q2284.17 1461.2 2282.34 1457.66 Q2280.53 1454.1 2276.9 1454.1 M2276.9 1450.39 Q2282.71 1450.39 2285.76 1455 Q2288.84 1459.58 2288.84 1468.33 Q2288.84 1477.06 2285.76 1481.67 Q2282.71 1486.25 2276.9 1486.25 Q2271.09 1486.25 2268.01 1481.67 Q2264.95 1477.06 2264.95 1468.33 Q2264.95 1459.58 2268.01 1455 Q2271.09 1450.39 2276.9 1450.39 Z" fill="#000000" fill-rule="nonzero" fill-opacity="1" /><path clip-path="url(#clip540)" d="M2307.06 1454.1 Q2303.45 1454.1 2301.62 1457.66 Q2299.82 1461.2 2299.82 1468.33 Q2299.82 1475.44 2301.62 1479.01 Q2303.45 1482.55 2307.06 1482.55 Q2310.69 1482.55 2312.5 1479.01 Q2314.33 1475.44 2314.33 1468.33 Q2314.33 1461.2 2312.5 1457.66 Q2310.69 1454.1 2307.06 1454.1 M2307.06 1450.39 Q2312.87 1450.39 2315.93 1455 Q2319 1459.58 2319 1468.33 Q2319 1477.06 2315.93 1481.67 Q2312.87 1486.25 2307.06 1486.25 Q2301.25 1486.25 2298.17 1481.67 Q2295.12 1477.06 2295.12 1468.33 Q2295.12 1459.58 2298.17 1455 Q2301.25 1450.39 2307.06 1450.39 Z" fill="#000000" fill-rule="nonzero" fill-opacity="1" /><path clip-path="url(#clip540)" d="M2337.22 1454.1 Q2333.61 1454.1 2331.78 1457.66 Q2329.98 1461.2 2329.98 1468.33 Q2329.98 1475.44 2331.78 1479.01 Q2333.61 1482.55 2337.22 1482.55 Q2340.86 1482.55 2342.66 1479.01 Q2344.49 1475.44 2344.49 1468.33 Q2344.49 1461.2 2342.66 1457.66 Q2340.86 1454.1 2337.22 1454.1 M2337.22 1450.39 Q2343.03 1450.39 2346.09 1455 Q2349.17 1459.58 2349.17 1468.33 Q2349.17 1477.06 2346.09 1481.67 Q2343.03 1486.25 2337.22 1486.25 Q2331.41 1486.25 2328.33 1481.67 Q2325.28 1477.06 2325.28 1468.33 Q2325.28 1459.58 2328.33 1455 Q2331.41 1450.39 2337.22 1450.39 Z" fill="#000000" fill-rule="nonzero" fill-opacity="1" /><path clip-path="url(#clip540)" d="M1165.17 1520.52 L1171.6 1520.52 L1171.6 1568.04 L1165.17 1568.04 L1165.17 1520.52 Z" fill="#000000" fill-rule="nonzero" fill-opacity="1" /><path clip-path="url(#clip540)" d="M1189.93 1522.27 L1189.93 1532.4 L1201.99 1532.4 L1201.99 1536.95 L1189.93 1536.95 L1189.93 1556.3 Q1189.93 1560.66 1191.11 1561.9 Q1192.32 1563.14 1195.98 1563.14 L1201.99 1563.14 L1201.99 1568.04 L1195.98 1568.04 Q1189.2 1568.04 1186.62 1565.53 Q1184.04 1562.98 1184.04 1556.3 L1184.04 1536.95 L1179.74 1536.95 L1179.74 1532.4 L1184.04 1532.4 L1184.04 1522.27 L1189.93 1522.27 Z" fill="#000000" fill-rule="nonzero" fill-opacity="1" /><path clip-path="url(#clip540)" d="M1240.19 1548.76 L1240.19 1551.62 L1213.26 1551.62 Q1213.64 1557.67 1216.89 1560.85 Q1220.17 1564 1225.99 1564 Q1229.36 1564 1232.52 1563.17 Q1235.7 1562.35 1238.82 1560.69 L1238.82 1566.23 Q1235.67 1567.57 1232.36 1568.27 Q1229.05 1568.97 1225.64 1568.97 Q1217.11 1568.97 1212.11 1564 Q1207.15 1559.04 1207.15 1550.57 Q1207.15 1541.82 1211.86 1536.69 Q1216.6 1531.54 1224.62 1531.54 Q1231.81 1531.54 1235.98 1536.18 Q1240.19 1540.8 1240.19 1548.76 M1234.33 1547.04 Q1234.27 1542.23 1231.62 1539.37 Q1229.01 1536.5 1224.69 1536.5 Q1219.78 1536.5 1216.82 1539.27 Q1213.9 1542.04 1213.45 1547.07 L1234.33 1547.04 Z" fill="#000000" fill-rule="nonzero" fill-opacity="1" /><path clip-path="url(#clip540)" d="M1270.45 1537.87 Q1269.47 1537.3 1268.29 1537.04 Q1267.14 1536.76 1265.74 1536.76 Q1260.78 1536.76 1258.11 1540 Q1255.46 1543.22 1255.46 1549.27 L1255.46 1568.04 L1249.58 1568.04 L1249.58 1532.4 L1255.46 1532.4 L1255.46 1537.93 Q1257.31 1534.69 1260.27 1533.13 Q1263.23 1531.54 1267.46 1531.54 Q1268.07 1531.54 1268.8 1531.63 Q1269.53 1531.7 1270.42 1531.85 L1270.45 1537.87 Z" fill="#000000" fill-rule="nonzero" fill-opacity="1" /><path clip-path="url(#clip540)" d="M1292.8 1550.12 Q1285.7 1550.12 1282.96 1551.75 Q1280.23 1553.37 1280.23 1557.29 Q1280.23 1560.4 1282.26 1562.25 Q1284.33 1564.07 1287.86 1564.07 Q1292.73 1564.07 1295.66 1560.63 Q1298.62 1557.16 1298.62 1551.43 L1298.62 1550.12 L1292.8 1550.12 M1304.48 1547.71 L1304.48 1568.04 L1298.62 1568.04 L1298.62 1562.63 Q1296.62 1565.88 1293.63 1567.44 Q1290.63 1568.97 1286.31 1568.97 Q1280.83 1568.97 1277.58 1565.91 Q1274.37 1562.82 1274.37 1557.67 Q1274.37 1551.65 1278.38 1548.6 Q1282.42 1545.54 1290.41 1545.54 L1298.62 1545.54 L1298.62 1544.97 Q1298.62 1540.93 1295.95 1538.73 Q1293.31 1536.5 1288.5 1536.5 Q1285.45 1536.5 1282.55 1537.23 Q1279.65 1537.97 1276.98 1539.43 L1276.98 1534.02 Q1280.19 1532.78 1283.22 1532.17 Q1286.24 1531.54 1289.11 1531.54 Q1296.84 1531.54 1300.66 1535.55 Q1304.48 1539.56 1304.48 1547.71 Z" fill="#000000" fill-rule="nonzero" fill-opacity="1" /><path clip-path="url(#clip540)" d="M1322.34 1522.27 L1322.34 1532.4 L1334.4 1532.4 L1334.4 1536.95 L1322.34 1536.95 L1322.34 1556.3 Q1322.34 1560.66 1323.51 1561.9 Q1324.72 1563.14 1328.38 1563.14 L1334.4 1563.14 L1334.4 1568.04 L1328.38 1568.04 Q1321.6 1568.04 1319.03 1565.53 Q1316.45 1562.98 1316.45 1556.3 L1316.45 1536.95 L1312.15 1536.95 L1312.15 1532.4 L1316.45 1532.4 L1316.45 1522.27 L1322.34 1522.27 Z" fill="#000000" fill-rule="nonzero" fill-opacity="1" /><path clip-path="url(#clip540)" d="M1342.1 1532.4 L1347.96 1532.4 L1347.96 1568.04 L1342.1 1568.04 L1342.1 1532.4 M1342.1 1518.52 L1347.96 1518.52 L1347.96 1525.93 L1342.1 1525.93 L1342.1 1518.52 Z" fill="#000000" fill-rule="nonzero" fill-opacity="1" /><path clip-path="url(#clip540)" d="M1374.02 1536.5 Q1369.31 1536.5 1366.58 1540.19 Q1363.84 1543.85 1363.84 1550.25 Q1363.84 1556.65 1366.55 1560.34 Q1369.28 1564 1374.02 1564 Q1378.7 1564 1381.44 1560.31 Q1384.18 1556.62 1384.18 1550.25 Q1384.18 1543.92 1381.44 1540.23 Q1378.7 1536.5 1374.02 1536.5 M1374.02 1531.54 Q1381.66 1531.54 1386.02 1536.5 Q1390.38 1541.47 1390.38 1550.25 Q1390.38 1559 1386.02 1564 Q1381.66 1568.97 1374.02 1568.97 Q1366.35 1568.97 1361.99 1564 Q1357.66 1559 1357.66 1550.25 Q1357.66 1541.47 1361.99 1536.5 Q1366.35 1531.54 1374.02 1531.54 Z" fill="#000000" fill-rule="nonzero" fill-opacity="1" /><path clip-path="url(#clip540)" d="M1429.72 1546.53 L1429.72 1568.04 L1423.87 1568.04 L1423.87 1546.72 Q1423.87 1541.66 1421.89 1539.14 Q1419.92 1536.63 1415.97 1536.63 Q1411.23 1536.63 1408.5 1539.65 Q1405.76 1542.68 1405.76 1547.9 L1405.76 1568.04 L1399.87 1568.04 L1399.87 1532.4 L1405.76 1532.4 L1405.76 1537.93 Q1407.86 1534.72 1410.69 1533.13 Q1413.56 1531.54 1417.28 1531.54 Q1423.42 1531.54 1426.57 1535.36 Q1429.72 1539.14 1429.72 1546.53 Z" fill="#000000" fill-rule="nonzero" fill-opacity="1" /><polyline clip-path="url(#clip540)" style="stroke:#000000; stroke-linecap:round; stroke-linejoin:round; stroke-width:4; stroke-opacity:1; fill:none" points="242.135,1423.18 242.135,47.2441 "/>
<polyline clip-path="url(#clip540)" style="stroke:#000000; stroke-linecap:round; stroke-linejoin:round; stroke-width:4; stroke-opacity:1; fill:none" points="242.135,1232.28 261.032,1232.28 "/>
<polyline clip-path="url(#clip540)" style="stroke:#000000; stroke-linecap:round; stroke-linejoin:round; stroke-width:4; stroke-opacity:1; fill:none" points="242.135,1037.28 261.032,1037.28 "/>
<polyline clip-path="url(#clip540)" style="stroke:#000000; stroke-linecap:round; stroke-linejoin:round; stroke-width:4; stroke-opacity:1; fill:none" points="242.135,842.268 261.032,842.268 "/>
<polyline clip-path="url(#clip540)" style="stroke:#000000; stroke-linecap:round; stroke-linejoin:round; stroke-width:4; stroke-opacity:1; fill:none" points="242.135,647.26 261.032,647.26 "/>
<polyline clip-path="url(#clip540)" style="stroke:#000000; stroke-linecap:round; stroke-linejoin:round; stroke-width:4; stroke-opacity:1; fill:none" points="242.135,452.252 261.032,452.252 "/>
<polyline clip-path="url(#clip540)" style="stroke:#000000; stroke-linecap:round; stroke-linejoin:round; stroke-width:4; stroke-opacity:1; fill:none" points="242.135,257.244 261.032,257.244 "/>
<polyline clip-path="url(#clip540)" style="stroke:#000000; stroke-linecap:round; stroke-linejoin:round; stroke-width:4; stroke-opacity:1; fill:none" points="242.135,62.2357 261.032,62.2357 "/>
<path clip-path="url(#clip540)" d="M115.256 1232.74 L144.931 1232.74 L144.931 1236.67 L115.256 1236.67 L115.256 1232.74 Z" fill="#000000" fill-rule="nonzero" fill-opacity="1" /><path clip-path="url(#clip540)" d="M159.052 1245.63 L175.371 1245.63 L175.371 1249.56 L153.427 1249.56 L153.427 1245.63 Q156.089 1242.87 160.672 1238.25 Q165.278 1233.59 166.459 1232.25 Q168.704 1229.73 169.584 1227.99 Q170.487 1226.23 170.487 1224.54 Q170.487 1221.79 168.542 1220.05 Q166.621 1218.31 163.519 1218.31 Q161.32 1218.31 158.866 1219.08 Q156.436 1219.84 153.658 1221.39 L153.658 1216.67 Q156.482 1215.54 158.936 1214.96 Q161.39 1214.38 163.427 1214.38 Q168.797 1214.38 171.991 1217.06 Q175.186 1219.75 175.186 1224.24 Q175.186 1226.37 174.376 1228.29 Q173.589 1230.19 171.482 1232.78 Q170.903 1233.45 167.802 1236.67 Q164.7 1239.87 159.052 1245.63 Z" fill="#000000" fill-rule="nonzero" fill-opacity="1" /><path clip-path="url(#clip540)" d="M185.232 1215 L203.588 1215 L203.588 1218.94 L189.514 1218.94 L189.514 1227.41 Q190.533 1227.06 191.551 1226.9 Q192.57 1226.72 193.588 1226.72 Q199.375 1226.72 202.755 1229.89 Q206.135 1233.06 206.135 1238.48 Q206.135 1244.06 202.662 1247.16 Q199.19 1250.24 192.871 1250.24 Q190.695 1250.24 188.426 1249.87 Q186.181 1249.5 183.774 1248.75 L183.774 1244.06 Q185.857 1245.19 188.079 1245.75 Q190.301 1246.3 192.778 1246.3 Q196.783 1246.3 199.121 1244.19 Q201.459 1242.09 201.459 1238.48 Q201.459 1234.87 199.121 1232.76 Q196.783 1230.65 192.778 1230.65 Q190.903 1230.65 189.028 1231.07 Q187.176 1231.49 185.232 1232.37 L185.232 1215 Z" fill="#000000" fill-rule="nonzero" fill-opacity="1" /><path clip-path="url(#clip540)" d="M114.26 1037.73 L143.936 1037.73 L143.936 1041.66 L114.26 1041.66 L114.26 1037.73 Z" fill="#000000" fill-rule="nonzero" fill-opacity="1" /><path clip-path="url(#clip540)" d="M158.056 1050.62 L174.376 1050.62 L174.376 1054.56 L152.431 1054.56 L152.431 1050.62 Q155.093 1047.87 159.677 1043.24 Q164.283 1038.58 165.464 1037.24 Q167.709 1034.72 168.589 1032.98 Q169.491 1031.22 169.491 1029.53 Q169.491 1026.78 167.547 1025.04 Q165.626 1023.31 162.524 1023.31 Q160.325 1023.31 157.871 1024.07 Q155.44 1024.83 152.663 1026.39 L152.663 1021.66 Q155.487 1020.53 157.94 1019.95 Q160.394 1019.37 162.431 1019.37 Q167.802 1019.37 170.996 1022.06 Q174.19 1024.74 174.19 1029.23 Q174.19 1031.36 173.38 1033.28 Q172.593 1035.18 170.487 1037.77 Q169.908 1038.45 166.806 1041.66 Q163.704 1044.86 158.056 1050.62 Z" fill="#000000" fill-rule="nonzero" fill-opacity="1" /><path clip-path="url(#clip540)" d="M194.19 1023.08 Q190.579 1023.08 188.75 1026.64 Q186.945 1030.18 186.945 1037.31 Q186.945 1044.42 188.75 1047.98 Q190.579 1051.52 194.19 1051.52 Q197.825 1051.52 199.63 1047.98 Q201.459 1044.42 201.459 1037.31 Q201.459 1030.18 199.63 1026.64 Q197.825 1023.08 194.19 1023.08 M194.19 1019.37 Q200 1019.37 203.056 1023.98 Q206.135 1028.56 206.135 1037.31 Q206.135 1046.04 203.056 1050.64 Q200 1055.23 194.19 1055.23 Q188.38 1055.23 185.301 1050.64 Q182.246 1046.04 182.246 1037.31 Q182.246 1028.56 185.301 1023.98 Q188.38 1019.37 194.19 1019.37 Z" fill="#000000" fill-rule="nonzero" fill-opacity="1" /><path clip-path="url(#clip540)" d="M115.256 842.72 L144.931 842.72 L144.931 846.655 L115.256 846.655 L115.256 842.72 Z" fill="#000000" fill-rule="nonzero" fill-opacity="1" /><path clip-path="url(#clip540)" d="M155.834 855.613 L163.473 855.613 L163.473 829.248 L155.163 830.914 L155.163 826.655 L163.427 824.988 L168.102 824.988 L168.102 855.613 L175.741 855.613 L175.741 859.548 L155.834 859.548 L155.834 855.613 Z" fill="#000000" fill-rule="nonzero" fill-opacity="1" /><path clip-path="url(#clip540)" d="M185.232 824.988 L203.588 824.988 L203.588 828.923 L189.514 828.923 L189.514 837.396 Q190.533 837.048 191.551 836.886 Q192.57 836.701 193.588 836.701 Q199.375 836.701 202.755 839.873 Q206.135 843.044 206.135 848.46 Q206.135 854.039 202.662 857.141 Q199.19 860.22 192.871 860.22 Q190.695 860.22 188.426 859.849 Q186.181 859.479 183.774 858.738 L183.774 854.039 Q185.857 855.173 188.079 855.729 Q190.301 856.284 192.778 856.284 Q196.783 856.284 199.121 854.178 Q201.459 852.072 201.459 848.46 Q201.459 844.849 199.121 842.743 Q196.783 840.636 192.778 840.636 Q190.903 840.636 189.028 841.053 Q187.176 841.47 185.232 842.349 L185.232 824.988 Z" fill="#000000" fill-rule="nonzero" fill-opacity="1" /><path clip-path="url(#clip540)" d="M114.26 647.712 L143.936 647.712 L143.936 651.647 L114.26 651.647 L114.26 647.712 Z" fill="#000000" fill-rule="nonzero" fill-opacity="1" /><path clip-path="url(#clip540)" d="M154.839 660.605 L162.477 660.605 L162.477 634.239 L154.167 635.906 L154.167 631.647 L162.431 629.98 L167.107 629.98 L167.107 660.605 L174.746 660.605 L174.746 664.54 L154.839 664.54 L154.839 660.605 Z" fill="#000000" fill-rule="nonzero" fill-opacity="1" /><path clip-path="url(#clip540)" d="M194.19 633.059 Q190.579 633.059 188.75 636.624 Q186.945 640.165 186.945 647.295 Q186.945 654.401 188.75 657.966 Q190.579 661.508 194.19 661.508 Q197.825 661.508 199.63 657.966 Q201.459 654.401 201.459 647.295 Q201.459 640.165 199.63 636.624 Q197.825 633.059 194.19 633.059 M194.19 629.355 Q200 629.355 203.056 633.962 Q206.135 638.545 206.135 647.295 Q206.135 656.022 203.056 660.628 Q200 665.211 194.19 665.211 Q188.38 665.211 185.301 660.628 Q182.246 656.022 182.246 647.295 Q182.246 638.545 185.301 633.962 Q188.38 629.355 194.19 629.355 Z" fill="#000000" fill-rule="nonzero" fill-opacity="1" /><path clip-path="url(#clip540)" d="M145.417 452.703 L175.093 452.703 L175.093 456.639 L145.417 456.639 L145.417 452.703 Z" fill="#000000" fill-rule="nonzero" fill-opacity="1" /><path clip-path="url(#clip540)" d="M185.232 434.972 L203.588 434.972 L203.588 438.907 L189.514 438.907 L189.514 447.379 Q190.533 447.032 191.551 446.87 Q192.57 446.685 193.588 446.685 Q199.375 446.685 202.755 449.856 Q206.135 453.027 206.135 458.444 Q206.135 464.023 202.662 467.125 Q199.19 470.203 192.871 470.203 Q190.695 470.203 188.426 469.833 Q186.181 469.463 183.774 468.722 L183.774 464.023 Q185.857 465.157 188.079 465.713 Q190.301 466.268 192.778 466.268 Q196.783 466.268 199.121 464.162 Q201.459 462.055 201.459 458.444 Q201.459 454.833 199.121 452.727 Q196.783 450.62 192.778 450.62 Q190.903 450.62 189.028 451.037 Q187.176 451.453 185.232 452.333 L185.232 434.972 Z" fill="#000000" fill-rule="nonzero" fill-opacity="1" /><path clip-path="url(#clip540)" d="M194.19 243.043 Q190.579 243.043 188.75 246.607 Q186.945 250.149 186.945 257.279 Q186.945 264.385 188.75 267.95 Q190.579 271.491 194.19 271.491 Q197.825 271.491 199.63 267.95 Q201.459 264.385 201.459 257.279 Q201.459 250.149 199.63 246.607 Q197.825 243.043 194.19 243.043 M194.19 239.339 Q200 239.339 203.056 243.945 Q206.135 248.529 206.135 257.279 Q206.135 266.005 203.056 270.612 Q200 275.195 194.19 275.195 Q188.38 275.195 185.301 270.612 Q182.246 266.005 182.246 257.279 Q182.246 248.529 185.301 243.945 Q188.38 239.339 194.19 239.339 Z" fill="#000000" fill-rule="nonzero" fill-opacity="1" /><path clip-path="url(#clip540)" d="M185.232 44.9557 L203.588 44.9557 L203.588 48.8909 L189.514 48.8909 L189.514 57.363 Q190.533 57.0158 191.551 56.8538 Q192.57 56.6686 193.588 56.6686 Q199.375 56.6686 202.755 59.8399 Q206.135 63.0112 206.135 68.4278 Q206.135 74.0065 202.662 77.1083 Q199.19 80.187 192.871 80.187 Q190.695 80.187 188.426 79.8166 Q186.181 79.4462 183.774 78.7055 L183.774 74.0065 Q185.857 75.1407 188.079 75.6963 Q190.301 76.2518 192.778 76.2518 Q196.783 76.2518 199.121 74.1454 Q201.459 72.0389 201.459 68.4278 Q201.459 64.8167 199.121 62.7102 Q196.783 60.6038 192.778 60.6038 Q190.903 60.6038 189.028 61.0204 Q187.176 61.4371 185.232 62.3167 L185.232 44.9557 Z" fill="#000000" fill-rule="nonzero" fill-opacity="1" /><path clip-path="url(#clip540)" d="M16.4842 816.375 L16.4842 786.329 L21.895 786.329 L21.895 809.945 L35.9632 809.945 L35.9632 787.315 L41.3741 787.315 L41.3741 809.945 L58.5933 809.945 L58.5933 785.756 L64.0042 785.756 L64.0042 816.375 L16.4842 816.375 Z" fill="#000000" fill-rule="nonzero" fill-opacity="1" /><path clip-path="url(#clip540)" d="M16.4842 775.189 L16.4842 768.759 L58.5933 768.759 L58.5933 745.62 L64.0042 745.62 L64.0042 775.189 L16.4842 775.189 Z" fill="#000000" fill-rule="nonzero" fill-opacity="1" /><path clip-path="url(#clip540)" d="M41.3104 732.443 L58.7206 732.443 L58.7206 722.13 Q58.7206 716.942 56.5881 714.46 Q54.4238 711.945 49.9996 711.945 Q45.5436 711.945 43.4429 714.46 Q41.3104 716.942 41.3104 722.13 L41.3104 732.443 M21.7677 732.443 L36.0905 732.443 L36.0905 722.926 Q36.0905 718.216 34.34 715.924 Q32.5576 713.6 28.9291 713.6 Q25.3325 713.6 23.5501 715.924 Q21.7677 718.216 21.7677 722.926 L21.7677 732.443 M16.4842 738.872 L16.4842 722.449 Q16.4842 715.096 19.5397 711.118 Q22.5952 707.139 28.2289 707.139 Q32.5894 707.139 35.1675 709.176 Q37.7456 711.213 38.3822 715.16 Q39.4007 710.418 42.6472 707.808 Q45.8619 705.166 50.6998 705.166 Q57.0655 705.166 60.5348 709.495 Q64.0042 713.823 64.0042 721.812 L64.0042 738.872 L16.4842 738.872 Z" fill="#000000" fill-rule="nonzero" fill-opacity="1" /><path clip-path="url(#clip540)" d="M20.8447 676.011 Q20.8447 683.013 26.0645 687.151 Q31.2844 691.257 40.2919 691.257 Q49.2675 691.257 54.4874 687.151 Q59.7073 683.013 59.7073 676.011 Q59.7073 669.009 54.4874 664.935 Q49.2675 660.829 40.2919 660.829 Q31.2844 660.829 26.0645 664.935 Q20.8447 669.009 20.8447 676.011 M15.6248 676.011 Q15.6248 666.017 22.3406 660.033 Q29.0246 654.049 40.2919 654.049 Q51.5274 654.049 58.2432 660.033 Q64.9272 666.017 64.9272 676.011 Q64.9272 686.037 58.2432 692.052 Q51.5592 698.036 40.2919 698.036 Q29.0246 698.036 22.3406 692.052 Q15.6248 686.037 15.6248 676.011 Z" fill="#000000" fill-rule="nonzero" fill-opacity="1" /><polyline clip-path="url(#clip542)" style="stroke:#009af9; stroke-linecap:round; stroke-linejoin:round; stroke-width:4; stroke-opacity:1; fill:none" points="301.869,912.834 303.862,629.248 305.856,1073.48 307.849,779.475 309.842,826.652 311.835,1339.85 313.828,1151.23 315.821,1152.48 317.814,1015.99 319.808,1001.97 321.801,985.645 323.794,989.909 325.787,678.584 327.78,1292.5 329.773,859.466 331.766,1213.59 333.76,1017.82 335.753,1011.75 337.746,915.271 339.739,1043.14 341.732,959.858 343.725,915.449 345.718,998.013 347.712,650.871 349.705,879.325 351.698,581.385 353.691,1092.01 355.684,905.754 357.677,779.616 359.67,836.996 361.664,954.423 363.657,445.208 365.65,707.895 367.643,794.71 369.636,1384.24 371.629,714.603 373.622,593.39 375.616,791.186 377.609,654.944 379.602,667.881 381.595,708.396 383.588,836.373 385.581,767.702 387.574,1183.56 389.568,817.395 391.561,431.038 393.554,822.422 395.547,1192.7 397.54,720.876 399.533,881.492 401.526,812.034 403.52,498.702 405.513,685.526 407.506,900.265 409.499,903.657 411.492,944.423 413.485,842.967 415.479,465.713 417.472,735.707 419.465,544.843 421.458,340.92 423.451,852.983 425.444,447.397 427.437,559.155 429.431,643.414 431.424,876.792 433.417,670.656 435.41,569.045 437.403,451.386 439.396,517.083 441.389,558.081 443.383,812.264 445.376,1175.29 447.369,577.034 449.362,556.588 451.355,700.935 453.348,545.398 455.341,938.729 457.335,586.934 459.328,498.651 461.321,891.889 463.314,1105.47 465.307,581.748 467.3,623.514 469.293,593.424 471.287,589.326 473.28,732.252 475.273,446.762 477.266,426.004 479.259,421.169 481.252,580.34 483.245,408.752 485.239,971.477 487.232,427.012 489.225,441.549 491.218,576.585 493.211,428.032 495.204,445.884 497.197,375.056 499.191,535.488 501.184,548.514 503.177,1189.58 505.17,534.977 507.163,592.227 509.156,603.665 511.149,433.903 513.143,331.3 515.136,608.421 517.129,568.57 519.122,373.837 521.115,832.161 523.108,406.325 525.101,223.544 527.095,460.74 529.088,955.734 531.081,427.168 533.074,330.224 535.067,417.43 537.06,370.845 539.054,389.376 541.047,550.706 543.04,333.839 545.033,380.11 547.026,679.35 549.019,491.334 551.012,402.902 553.006,446.417 554.999,809.886 556.992,281.207 558.985,406.083 560.978,233.361 562.971,337.964 564.964,263.348 566.958,487.342 568.951,924.471 570.944,493.744 572.937,387.477 574.93,452.348 576.923,619.307 578.916,716.571 580.91,563.463 582.903,463.344 584.896,460.621 586.889,555.065 588.882,467.421 590.875,286.606 592.868,481.937 594.862,437.552 596.855,262.007 598.848,876.495 600.841,796.174 602.834,642.77 604.827,414.531 606.82,367.674 608.814,513.425 610.807,344.11 612.8,598.602 614.793,562.593 616.786,669.485 618.779,748.241 620.772,351.569 622.766,290.486 624.759,258.984 626.752,200.573 628.745,333.197 630.738,359.98 632.731,416.646 634.724,274.652 636.718,365.412 638.711,320.596 640.704,444.58 642.697,380.241 644.69,329.219 646.683,300.203 648.677,253.772 650.67,439.848 652.663,420.318 654.656,282.21 656.649,456.674 658.642,277.629 660.635,260.467 662.629,270.618 664.622,410.614 666.615,268.407 668.608,525.377 670.601,309.365 672.594,260.644 674.587,249.655 676.581,260.24 678.574,428.295 680.567,368.891 682.56,308.845 684.553,313.784 686.546,416.807 688.539,315.547 690.533,242.933 692.526,278.479 694.519,296.665 696.512,253.646 698.505,346.53 700.498,169.357 702.491,347.351 704.485,218.162 706.478,742.091 708.471,271.799 710.464,380.25 712.457,417.456 714.45,234.791 716.443,234.27 718.437,256.947 720.43,235.182 722.423,356.936 724.416,300.45 726.409,452.462 728.402,388.514 730.395,181.466 732.389,548.141 734.382,414.773 736.375,322.588 738.368,302.882 740.361,285.073 742.354,304.86 744.347,167.237 746.341,254.622 748.334,466.112 750.327,336.362 752.32,345.469 754.313,104.12 756.306,360.448 758.299,231.78 760.293,449.299 762.286,253.245 764.279,341.341 766.272,251.523 768.265,185.585 770.258,338.554 772.252,655.726 774.245,377.385 776.238,356.983 778.231,213.701 780.224,339.262 782.217,430.492 784.21,281.229 786.204,215.254 788.197,364.429 790.19,217.182 792.183,339.188 794.176,404.519 796.169,238.59 798.162,380.336 800.156,320.239 802.149,248.428 804.142,265.532 806.135,192.693 808.128,587.16 810.121,251.022 812.114,669.462 814.108,283.797 816.101,233.426 818.094,243.854 820.087,372.128 822.08,457.578 824.073,313.699 826.066,394.158 828.06,300.641 830.053,312.829 832.046,239.254 834.039,400.209 836.032,157.681 838.025,339.081 840.018,491.316 842.012,436.059 844.005,206.687 845.998,385.694 847.991,316.373 849.984,276.949 851.977,452.508 853.97,277.938 855.964,275.015 857.957,261.234 859.95,309.553 861.943,387.907 863.936,333.355 865.929,170.273 867.922,319.193 869.916,200.311 871.909,263.154 873.902,271.658 875.895,183.481 877.888,221.425 879.881,334.389 881.874,127.271 883.868,411.481 885.861,248.414 887.854,384.349 889.847,172.883 891.84,121.974 893.833,309.603 895.827,309.863 897.82,279.12 899.813,217.528 901.806,223.307 903.799,623.721 905.792,281.867 907.785,304.222 909.779,124.991 911.772,207.225 913.765,424.664 915.758,195.31 917.751,444.164 919.744,324.975 921.737,175.881 923.731,294.628 925.724,308.13 927.717,226.342 929.71,333.172 931.703,249.619 933.696,354.934 935.689,408.918 937.683,392.083 939.676,163.711 941.669,430.806 943.662,358.559 945.655,256.114 947.648,237.842 949.641,144.338 951.635,290.417 953.628,281.003 955.621,135.413 957.614,244.128 959.607,545.058 961.6,276.803 963.593,199.479 965.587,283.266 967.58,357.241 969.573,251.373 971.566,350.937 973.559,259.186 975.552,318.365 977.545,192.249 979.539,323.661 981.532,194.629 983.525,353.614 985.518,168.318 987.511,197.71 989.504,334.936 991.497,165.606 993.491,280.006 995.484,245.892 997.477,283.739 999.47,279.619 1001.46,224.235 1003.46,268.082 1005.45,212.206 1007.44,183.555 1009.44,143.581 1011.43,263.203 1013.42,422.477 1015.42,228.719 1017.41,208.42 1019.4,240.952 1021.39,408.554 1023.39,324.799 1025.38,290.551 1027.37,326.729 1029.37,330.547 1031.36,143.031 1033.35,198.673 1035.35,174.165 1037.34,162.103 1039.33,389.944 1041.33,347.621 1043.32,366.52 1045.31,192.006 1047.31,317.95 1049.3,319.216 1051.29,237.151 1053.28,168.894 1055.28,218.244 1057.27,166.457 1059.26,345.388 1061.26,326.916 1063.25,249.36 1065.24,244.861 1067.24,292.304 1069.23,127.072 1071.22,300.921 1073.22,227.433 1075.21,189.127 1077.2,172.682 1079.2,344.971 1081.19,198.452 1083.18,487.039 1085.18,437.262 1087.17,255.898 1089.16,229.44 1091.15,289.867 1093.15,254.653 1095.14,135.233 1097.13,332.487 1099.13,240.844 1101.12,195.598 1103.11,270.658 1105.11,329.983 1107.1,347.789 1109.09,346.228 1111.09,380.201 1113.08,241.234 1115.07,406.362 1117.07,264.398 1119.06,253.537 1121.05,281.642 1123.05,415.766 1125.04,281.123 1127.03,282.979 1129.02,461.872 1131.02,418.51 1133.01,199.009 1135,298.861 1137,136.121 1138.99,179.855 1140.98,399.637 1142.98,430.297 1144.97,200.476 1146.96,157.644 1148.96,283.536 1150.95,205.158 1152.94,230.867 1154.94,316.264 1156.93,311.329 1158.92,226.029 1160.91,172.49 1162.91,187.592 1164.9,256.077 1166.89,222.59 1168.89,275.826 1170.88,258.989 1172.87,239.407 1174.87,325.018 1176.86,228.864 1178.85,158.187 1180.85,194.009 1182.84,216.352 1184.83,216.348 1186.83,248.16 1188.82,196.822 1190.81,325.673 1192.81,319.409 1194.8,293.432 1196.79,145.353 1198.78,166.516 1200.78,400.848 1202.77,305.591 1204.76,182.464 1206.76,182.95 1208.75,223.718 1210.74,337.633 1212.74,464.472 1214.73,170.301 1216.72,179.253 1218.72,94.4182 1220.71,302.472 1222.7,229.27 1224.7,317.254 1226.69,184.392 1228.68,170.814 1230.67,513.092 1232.67,204.887 1234.66,207.442 1236.65,404.506 1238.65,206.975 1240.64,329.536 1242.63,175.407 1244.63,258.406 1246.62,313.85 1248.61,237.284 1250.61,226.01 1252.6,433.74 1254.59,184.42 1256.59,261.557 1258.58,236.951 1260.57,367.271 1262.57,157.736 1264.56,491.205 1266.55,365.726 1268.54,539.382 1270.54,146.959 1272.53,252.413 1274.52,307.151 1276.52,387.631 1278.51,283.586 1280.5,162.297 1282.5,190.429 1284.49,256.726 1286.48,336.577 1288.48,308.921 1290.47,199.81 1292.46,320.684 1294.46,648.936 1296.45,245.627 1298.44,270.001 1300.44,310.937 1302.43,499.79 1304.42,258.794 1306.41,287.92 1308.41,166.587 1310.4,214.226 1312.39,122.216 1314.39,298.452 1316.38,252.762 1318.37,307.639 1320.37,344.429 1322.36,197.353 1324.35,445.062 1326.35,174.692 1328.34,306.867 1330.33,275.532 1332.33,345.94 1334.32,361.501 1336.31,432.564 1338.3,324.366 1340.3,501.616 1342.29,246.275 1344.28,249.317 1346.28,314.9 1348.27,235.422 1350.26,267.964 1352.26,270.858 1354.25,143.163 1356.24,286.569 1358.24,154.381 1360.23,322.474 1362.22,443.168 1364.22,332.93 1366.21,308.057 1368.2,351.56 1370.2,295.645 1372.19,227.507 1374.18,270.723 1376.17,255.212 1378.17,285.621 1380.16,241.961 1382.15,187.402 1384.15,373.47 1386.14,504.213 1388.13,627.49 1390.13,227.984 1392.12,203.346 1394.11,286.509 1396.11,258.031 1398.1,169.004 1400.09,218.551 1402.09,151.264 1404.08,280.686 1406.07,133.321 1408.06,160.047 1410.06,360.232 1412.05,141.923 1414.04,250.357 1416.04,222.344 1418.03,230.935 1420.02,265.42 1422.02,143.038 1424.01,229.379 1426,317.801 1428,466.211 1429.99,195.965 1431.98,210.655 1433.98,249.001 1435.97,228.556 1437.96,189.838 1439.96,190.46 1441.95,211.257 1443.94,150.508 1445.93,252.788 1447.93,312.227 1449.92,372.815 1451.91,150.288 1453.91,483.294 1455.9,270.45 1457.89,410.964 1459.89,188.67 1461.88,277.231 1463.87,163.626 1465.87,147.07 1467.86,376.308 1469.85,240.301 1471.85,86.1857 1473.84,285.809 1475.83,335.62 1477.82,190.01 1479.82,295.037 1481.81,108.405 1483.8,228.697 1485.8,238.285 1487.79,216.459 1489.78,240.945 1491.78,138.511 1493.77,270.889 1495.76,180.911 1497.76,147.64 1499.75,229.747 1501.74,173.312 1503.74,194.808 1505.73,233.722 1507.72,401.281 1509.72,313.774 1511.71,167.055 1513.7,306.787 1515.69,170.794 1517.69,150.648 1519.68,195.287 1521.67,267.585 1523.67,221.761 1525.66,316.689 1527.65,252.418 1529.65,303.197 1531.64,175.588 1533.63,131.246 1535.63,223.334 1537.62,198.091 1539.61,352.674 1541.61,217.552 1543.6,224.307 1545.59,124.291 1547.59,203.89 1549.58,116.714 1551.57,141.419 1553.56,204.255 1555.56,308.143 1557.55,184.364 1559.54,263.164 1561.54,290.879 1563.53,221.031 1565.52,114.01 1567.52,131.165 1569.51,318.53 1571.5,267.478 1573.5,412.132 1575.49,349.805 1577.48,273.844 1579.48,375.522 1581.47,625.137 1583.46,292.883 1585.45,373.927 1587.45,234.245 1589.44,430.363 1591.43,254.693 1593.43,423.483 1595.42,111.362 1597.41,230.669 1599.41,258.659 1601.4,336.132 1603.39,281.673 1605.39,183.544 1607.38,290.049 1609.37,360.033 1611.37,172.402 1613.36,407.53 1615.35,189.507 1617.35,117.889 1619.34,182.617 1621.33,293.011 1623.32,202.422 1625.32,168.516 1627.31,203.613 1629.3,162.782 1631.3,222.215 1633.29,265.21 1635.28,247.592 1637.28,208.034 1639.27,194.855 1641.26,305.105 1643.26,342.748 1645.25,213.435 1647.24,380.117 1649.24,525.187 1651.23,280.782 1653.22,170.183 1655.21,220.417 1657.21,178.923 1659.2,293.269 1661.19,350.362 1663.19,155.265 1665.18,275.416 1667.17,159.037 1669.17,169.767 1671.16,261.072 1673.15,353.392 1675.15,398.347 1677.14,368.798 1679.13,182.56 1681.13,191.11 1683.12,100.958 1685.11,224.352 1687.11,238.536 1689.1,140.852 1691.09,136.799 1693.08,161.359 1695.08,284.792 1697.07,327.952 1699.06,201.355 1701.06,203.899 1703.05,142.02 1705.04,177.71 1707.04,464.184 1709.03,491.86 1711.02,176.191 1713.02,328.284 1715.01,264.536 1717,399.819 1719,172.215 1720.99,383.145 1722.98,180.787 1724.97,334.066 1726.97,167.362 1728.96,310.533 1730.95,267.935 1732.95,402.633 1734.94,301.117 1736.93,337.124 1738.93,123.909 1740.92,346.184 1742.91,416.022 1744.91,224.909 1746.9,447.496 1748.89,295.927 1750.89,259.743 1752.88,267.44 1754.87,265.269 1756.87,197.654 1758.86,299.147 1760.85,238.18 1762.84,244.599 1764.84,307.761 1766.83,294.336 1768.82,216.729 1770.82,228.394 1772.81,302.036 1774.8,287.506 1776.8,464.612 1778.79,633.609 1780.78,266.866 1782.78,289.557 1784.77,252.455 1786.76,169.693 1788.76,164.648 1790.75,279.251 1792.74,252.904 1794.74,156.401 1796.73,205.36 1798.72,201.721 1800.71,251.708 1802.71,220.561 1804.7,208.51 1806.69,296.412 1808.69,210.229 1810.68,205.115 1812.67,206.528 1814.67,156.79 1816.66,209.806 1818.65,127.307 1820.65,293.894 1822.64,230.286 1824.63,245.949 1826.63,347.421 1828.62,331.461 1830.61,188.515 1832.6,153.913 1834.6,209.466 1836.59,173.576 1838.58,363.617 1840.58,217.334 1842.57,366.31 1844.56,164.176 1846.56,198.378 1848.55,361.627 1850.54,324.855 1852.54,268.413 1854.53,263.953 1856.52,346.955 1858.52,275.651 1860.51,220.727 1862.5,221.31 1864.5,304.398 1866.49,341.311 1868.48,137.88 1870.47,242.462 1872.47,125.43 1874.46,247.244 1876.45,239.566 1878.45,196.607 1880.44,385.297 1882.43,146.783 1884.43,314.522 1886.42,217.953 1888.41,171.154 1890.41,164.558 1892.4,332.454 1894.39,203.841 1896.39,200.068 1898.38,169.221 1900.37,148.965 1902.36,304.203 1904.36,278.499 1906.35,320.016 1908.34,311.643 1910.34,117.831 1912.33,190.65 1914.32,212.452 1916.32,195.584 1918.31,274.519 1920.3,247.402 1922.3,314.026 1924.29,254.74 1926.28,200.186 1928.28,277.819 1930.27,447.896 1932.26,272.655 1934.26,245.878 1936.25,296.212 1938.24,326.251 1940.23,209.732 1942.23,504.274 1944.22,333.486 1946.21,308.985 1948.21,789.324 1950.2,222.226 1952.19,361.149 1954.19,267.798 1956.18,230.113 1958.17,193.201 1960.17,144.011 1962.16,250.195 1964.15,90.2062 1966.15,381.153 1968.14,284.779 1970.13,279.654 1972.12,246.76 1974.12,179.441 1976.11,247.456 1978.1,349.894 1980.1,136.51 1982.09,243.822 1984.08,216.956 1986.08,197.731 1988.07,372.067 1990.06,281.217 1992.06,292.621 1994.05,261.132 1996.04,323.043 1998.04,253.033 2000.03,449.056 2002.02,199.911 2004.02,206.5 2006.01,242.702 2008,312.203 2009.99,293.406 2011.99,213.73 2013.98,249.137 2015.97,236.127 2017.97,356.765 2019.96,256.744 2021.95,314.941 2023.95,455.568 2025.94,256.839 2027.93,277.763 2029.93,182.34 2031.92,369.753 2033.91,482.338 2035.91,577.989 2037.9,135.887 2039.89,195.298 2041.89,336.717 2043.88,242.312 2045.87,205.273 2047.86,338.609 2049.86,232.567 2051.85,210.563 2053.84,162.527 2055.84,207.955 2057.83,204.761 2059.82,343.102 2061.82,136.381 2063.81,152.629 2065.8,212.585 2067.8,163.284 2069.79,183.17 2071.78,246.226 2073.78,137.085 2075.77,233.14 2077.76,336.452 2079.75,307.442 2081.75,336.174 2083.74,280.379 2085.73,280.547 2087.73,156.018 2089.72,242.936 2091.71,216.913 2093.71,214.948 2095.7,231.816 2097.69,277.297 2099.69,203.821 2101.68,312.608 2103.67,348.836 2105.67,202.71 2107.66,240.98 2109.65,192.516 2111.65,323.107 2113.64,223.215 2115.63,478.948 2117.62,196.748 2119.62,193.666 2121.61,310.394 2123.6,201.444 2125.6,245.059 2127.59,309.345 2129.58,275.336 2131.58,252.747 2133.57,267.718 2135.56,176.791 2137.56,420.883 2139.55,350.968 2141.54,248.267 2143.54,327.099 2145.53,445.911 2147.52,187.066 2149.51,249.468 2151.51,149.406 2153.5,207.397 2155.49,210.162 2157.49,166.242 2159.48,201.702 2161.47,243.336 2163.47,191.166 2165.46,250.785 2167.45,167.47 2169.45,135.184 2171.44,135.692 2173.43,255.668 2175.43,394.921 2177.42,289.885 2179.41,186.409 2181.41,252.291 2183.4,636.514 2185.39,254.831 2187.38,217.764 2189.38,356.96 2191.37,173.844 2193.36,363.637 2195.36,251.477 2197.35,195.345 2199.34,223.659 2201.34,269.975 2203.33,267.921 2205.32,219.22 2207.32,311.084 2209.31,179.396 2211.3,306.24 2213.3,388.2 2215.29,318.049 2217.28,316.583 2219.27,206.303 2221.27,234.273 2223.26,186.235 2225.25,144.646 2227.25,356.28 2229.24,340.763 2231.23,134.932 2233.23,328.509 2235.22,191.96 2237.21,484.23 2239.21,208.332 2241.2,153.772 2243.19,247.145 2245.19,162.039 2247.18,198.514 2249.17,211.166 2251.17,145.11 2253.16,173.788 2255.15,192.488 2257.14,174.569 2259.14,485.882 2261.13,248.795 2263.12,124.438 2265.12,365.654 2267.11,215.872 2269.1,171.434 2271.1,218.136 2273.09,259.354 2275.08,117.039 2277.08,232.43 2279.07,174.258 2281.06,170.997 2283.06,305.777 2285.05,155.623 2287.04,420.939 2289.04,260.243 2291.03,205.995 2293.02,188.011 "/>
<polyline clip-path="url(#clip542)" style="stroke:#e26f46; stroke-linecap:round; stroke-linejoin:round; stroke-width:4; stroke-opacity:1; fill:none" points="301.869,1021.41 303.862,1025.75 305.856,1040.44 307.849,1019.03 309.842,1007.95 311.835,997.97 313.828,985.465 315.821,978.92 317.814,948.68 319.808,964.647 321.801,968.29 323.794,973.925 325.787,920.304 327.78,935.282 329.773,955.441 331.766,933.626 333.76,906.688 335.753,904.869 337.746,914.685 339.739,908.264 341.732,885.514 343.725,889.251 345.718,870.497 347.712,861.386 349.705,842.898 351.698,860.507 353.691,877.751 355.684,848.503 357.677,820.741 359.67,828.767 361.664,817.494 363.657,828.472 365.65,844.089 367.643,810.532 369.636,804.209 371.629,805.189 373.622,785.959 375.616,776.352 377.609,788.389 379.602,760.678 381.595,773.768 383.588,735.459 385.581,743.535 387.574,733.744 389.568,737.124 391.561,748.267 393.554,746.833 395.547,718.285 397.54,717.898 399.533,699.059 401.526,694.187 403.52,698.923 405.513,697.362 407.506,703.244 409.499,674.327 411.492,686.186 413.485,686.623 415.479,669.814 417.472,652.145 419.465,647.685 421.458,669.881 423.451,634.06 425.444,657.683 427.437,627.954 429.431,630.995 431.424,621.155 433.417,659.657 435.41,616.068 437.403,620.939 439.396,610.815 441.389,599.544 443.383,602.968 445.376,598.671 447.369,584.846 449.362,585.036 451.355,589.007 453.348,587.454 455.341,569.071 457.335,576.165 459.328,559.084 461.321,578.124 463.314,562.997 465.307,553.746 467.3,550.185 469.293,530.865 471.287,567.379 473.28,543.516 475.273,523.191 477.266,530.082 479.259,547.498 481.252,509.723 483.245,517.384 485.239,500.668 487.232,512.12 489.225,506.333 491.218,498.35 493.211,502.36 495.204,515.649 497.197,490.469 499.191,492.961 501.184,494.247 503.177,478.56 505.17,473.694 507.163,477.605 509.156,501.397 511.149,456.359 513.143,472.989 515.136,486.292 517.129,449.31 519.122,457.758 521.115,467.624 523.108,455.708 525.101,445.186 527.095,440.542 529.088,457.43 531.081,460.282 533.074,460.752 535.067,440.056 537.06,440.069 539.054,441.054 541.047,441.223 543.04,438.954 545.033,444.475 547.026,419.431 549.019,421.03 551.012,414.614 553.006,417.846 554.999,412.433 556.992,430.186 558.985,393.653 560.978,413.879 562.971,408.444 564.964,411.42 566.958,427.578 568.951,414.498 570.944,398.307 572.937,406.373 574.93,392.453 576.923,376.53 578.916,395.999 580.91,384.742 582.903,391.952 584.896,370.945 586.889,384.028 588.882,371.101 590.875,383.343 592.868,394.383 594.862,379.28 596.855,380.023 598.848,382.23 600.841,362.825 602.834,366.169 604.827,371.703 606.82,359.265 608.814,358.227 610.807,357.908 612.8,355.676 614.793,365.922 616.786,348.137 618.779,348.744 620.772,346.897 622.766,360.953 624.759,353.546 626.752,350.535 628.745,343.802 630.738,360.153 632.731,336.232 634.724,335.3 636.718,345.217 638.711,331.796 640.704,326.007 642.697,337.505 644.69,341.947 646.683,356.178 648.677,325.646 650.67,322.749 652.663,334.505 654.656,320.589 656.649,338.346 658.642,343.843 660.635,314.623 662.629,334.779 664.622,314.742 666.615,319.906 668.608,328.621 670.601,320.709 672.594,311.773 674.587,304.091 676.581,322.146 678.574,306.958 680.567,305.601 682.56,300.476 684.553,314.575 686.546,300.552 688.539,297.492 690.533,312.592 692.526,305.358 694.519,302.763 696.512,305.32 698.505,289.502 700.498,319.427 702.491,318.879 704.485,304.045 706.478,293.337 708.471,282.91 710.464,293.73 712.457,309.165 714.45,309.372 716.443,295.253 718.437,289.754 720.43,291.276 722.423,277.577 724.416,294.771 726.409,299.897 728.402,290.099 730.395,298.514 732.389,297.47 734.382,296.619 736.375,300.457 738.368,294.92 740.361,285.23 742.354,275.089 744.347,286.262 746.341,286.847 748.334,287.1 750.327,292.194 752.32,280.745 754.313,290.48 756.306,283.763 758.299,283.841 760.293,278.081 762.286,286.012 764.279,289.935 766.272,271.068 768.265,267.88 770.258,279.233 772.252,273.71 774.245,293.002 776.238,281.697 778.231,288.458 780.224,271.006 782.217,264.992 784.21,263.804 786.204,274.079 788.197,278.393 790.19,262.372 792.183,308.892 794.176,276.286 796.169,299.29 798.162,261.695 800.156,298.575 802.149,277.644 804.142,278.558 806.135,264.594 808.128,262.952 810.121,277.039 812.114,277.546 814.108,257.644 816.101,275.334 818.094,269.577 820.087,265.593 822.08,269.896 824.073,271.79 826.066,257.471 828.06,259.869 830.053,273.615 832.046,274.587 834.039,265.636 836.032,261.308 838.025,259.28 840.018,271.582 842.012,258.564 844.005,251.114 845.998,277.836 847.991,262.561 849.984,268.252 851.977,285.734 853.97,270.304 855.964,260.952 857.957,281.374 859.95,268.334 861.943,267.483 863.936,259.244 865.929,257.764 867.922,265.985 869.916,268.534 871.909,254.429 873.902,273.127 875.895,248.228 877.888,255.974 879.881,264.402 881.874,270.774 883.868,258.331 885.861,254.345 887.854,281.658 889.847,256.619 891.84,266.288 893.833,263.164 895.827,253.153 897.82,262.942 899.813,277.033 901.806,267.727 903.799,259.482 905.792,267.644 907.785,269.838 909.779,251.242 911.772,254.891 913.765,275.818 915.758,265.119 917.751,260.661 919.744,265.629 921.737,263.853 923.731,246.243 925.724,259.023 927.717,278.99 929.71,258.59 931.703,266.47 933.696,260.182 935.689,249.375 937.683,248.051 939.676,267.557 941.669,255.878 943.662,249.327 945.655,261.851 947.648,270.959 949.641,254.543 951.635,267.978 953.628,261.903 955.621,252.09 957.614,277.761 959.607,245.318 961.6,243.429 963.593,248.139 965.587,268.573 967.58,266.669 969.573,273.592 971.566,264.379 973.559,262.535 975.552,250.104 977.545,287.907 979.539,276.615 981.532,248.477 983.525,263.192 985.518,247.452 987.511,277.02 989.504,266.544 991.497,261.765 993.491,258.871 995.484,265.999 997.477,260.487 999.47,272.899 1001.46,274.076 1003.46,252.645 1005.45,271.536 1007.44,241.252 1009.44,248.618 1011.43,264.07 1013.42,255.277 1015.42,246.573 1017.41,267.795 1019.4,252.143 1021.39,255.825 1023.39,243.211 1025.38,258.108 1027.37,272.965 1029.37,250.646 1031.36,259.095 1033.35,265.087 1035.35,269.269 1037.34,258.494 1039.33,253.991 1041.33,247.168 1043.32,255.655 1045.31,262.07 1047.31,270.817 1049.3,265.883 1051.29,251.596 1053.28,255.168 1055.28,244.333 1057.27,243.378 1059.26,261.505 1061.26,249.53 1063.25,266.627 1065.24,253.943 1067.24,254.891 1069.23,271.582 1071.22,254.122 1073.22,255.397 1075.21,266.89 1077.2,273.14 1079.2,274.104 1081.19,274.935 1083.18,251.468 1085.18,249.442 1087.17,260.156 1089.16,249.262 1091.15,243.1 1093.15,288.465 1095.14,273.387 1097.13,247.29 1099.13,253.963 1101.12,261.65 1103.11,259.355 1105.11,256.907 1107.1,269.563 1109.09,251.149 1111.09,257.496 1113.08,257.509 1115.07,251.911 1117.07,260.838 1119.06,245.323 1121.05,260.887 1123.05,262.382 1125.04,248.855 1127.03,264.53 1129.02,252.607 1131.02,268.857 1133.01,266.86 1135,283.13 1137,260.647 1138.99,253.42 1140.98,255.531 1142.98,262.91 1144.97,247.548 1146.96,247.872 1148.96,262.148 1150.95,259.011 1152.94,255.665 1154.94,248.367 1156.93,259.634 1158.92,255.361 1160.91,243.762 1162.91,254.822 1164.9,257.682 1166.89,261.978 1168.89,260.175 1170.88,248.263 1172.87,257.449 1174.87,268.542 1176.86,250.921 1178.85,269.386 1180.85,255.432 1182.84,256.817 1184.83,253.349 1186.83,257.676 1188.82,251.553 1190.81,252.446 1192.81,257.608 1194.8,254.04 1196.79,262.7 1198.78,263.332 1200.78,248.954 1202.77,255.211 1204.76,250.519 1206.76,261.747 1208.75,251.3 1210.74,256.708 1212.74,271.287 1214.73,238.401 1216.72,252.094 1218.72,251.171 1220.71,258.321 1222.7,254.053 1224.7,280.39 1226.69,243.494 1228.68,263.764 1230.67,249.875 1232.67,247.125 1234.66,256.286 1236.65,244.888 1238.65,263.026 1240.64,242.894 1242.63,248.448 1244.63,260.782 1246.62,263.198 1248.61,254.195 1250.61,255.622 1252.6,267.534 1254.59,276.54 1256.59,255.683 1258.58,262.643 1260.57,281.744 1262.57,275.285 1264.56,258.704 1266.55,258.605 1268.54,249.872 1270.54,250.194 1272.53,244.183 1274.52,255.407 1276.52,265.925 1278.51,235.308 1280.5,263.442 1282.5,256.787 1284.49,247.499 1286.48,265.186 1288.48,254.644 1290.47,246.723 1292.46,248.475 1294.46,271.422 1296.45,238.659 1298.44,235.839 1300.44,264.706 1302.43,278.33 1304.42,248.566 1306.41,259.635 1308.41,271.471 1310.4,267.023 1312.39,247.641 1314.39,273.176 1316.38,261.708 1318.37,249.624 1320.37,241.63 1322.36,261.57 1324.35,248.57 1326.35,270.109 1328.34,248.435 1330.33,252.423 1332.33,245.058 1334.32,251.887 1336.31,250.965 1338.3,251.699 1340.3,235.361 1342.29,253.225 1344.28,287.176 1346.28,249.88 1348.27,258.993 1350.26,236.782 1352.26,263.174 1354.25,266.17 1356.24,289.391 1358.24,245.144 1360.23,266.17 1362.22,247.441 1364.22,246.707 1366.21,256.067 1368.2,236.797 1370.2,255.878 1372.19,265.159 1374.18,256.941 1376.17,255.91 1378.17,260.045 1380.16,250.515 1382.15,250.394 1384.15,261.375 1386.14,253.74 1388.13,269.975 1390.13,252.621 1392.12,253.751 1394.11,258.423 1396.11,248.145 1398.1,265.089 1400.09,246.993 1402.09,241.441 1404.08,266.906 1406.07,239.665 1408.06,252.152 1410.06,257.184 1412.05,261.277 1414.04,259.679 1416.04,265.233 1418.03,253.409 1420.02,260.415 1422.02,246.495 1424.01,249.57 1426,255.939 1428,258.939 1429.99,250.353 1431.98,259.632 1433.98,269.632 1435.97,261.62 1437.96,263.36 1439.96,273.312 1441.95,258.409 1443.94,244.374 1445.93,256.064 1447.93,254.834 1449.92,271.25 1451.91,259.027 1453.91,257.143 1455.9,261.423 1457.89,247.899 1459.89,260.233 1461.88,249.736 1463.87,265.833 1465.87,259.668 1467.86,250.447 1469.85,251.376 1471.85,258.32 1473.84,255.623 1475.83,257.307 1477.82,247.519 1479.82,270.659 1481.81,241.531 1483.8,251.907 1485.8,261.672 1487.79,262.129 1489.78,259.532 1491.78,243.578 1493.77,256.273 1495.76,248.501 1497.76,275.072 1499.75,259.718 1501.74,234.937 1503.74,260.831 1505.73,258.655 1507.72,240.54 1509.72,256.734 1511.71,245.993 1513.7,264.493 1515.69,268.811 1517.69,234.348 1519.68,238.638 1521.67,256.252 1523.67,241.205 1525.66,253.079 1527.65,258.1 1529.65,247.109 1531.64,281.134 1533.63,241.016 1535.63,272.601 1537.62,256.668 1539.61,253.808 1541.61,249.175 1543.6,247.243 1545.59,254.178 1547.59,260.593 1549.58,239.467 1551.57,256.447 1553.56,249.265 1555.56,268.699 1557.55,240.686 1559.54,257.27 1561.54,265.13 1563.53,249.731 1565.52,254.388 1567.52,241.624 1569.51,264.988 1571.5,252.549 1573.5,249.296 1575.49,253.489 1577.48,259.559 1579.48,253.655 1581.47,249.621 1583.46,247.176 1585.45,245.105 1587.45,261.266 1589.44,263.952 1591.43,254.274 1593.43,242.105 1595.42,249.925 1597.41,261.877 1599.41,252.509 1601.4,251.478 1603.39,263.358 1605.39,274.886 1607.38,260.776 1609.37,253.905 1611.37,251.073 1613.36,252.893 1615.35,265.548 1617.35,256.42 1619.34,239.59 1621.33,249.007 1623.32,267.099 1625.32,256.814 1627.31,240.606 1629.3,247.502 1631.3,246.909 1633.29,247.703 1635.28,267.174 1637.28,261.104 1639.27,256.423 1641.26,279.707 1643.26,253.248 1645.25,244.793 1647.24,254.507 1649.24,257.222 1651.23,263.949 1653.22,250.381 1655.21,257.44 1657.21,261.215 1659.2,247.738 1661.19,250.419 1663.19,256.598 1665.18,248.138 1667.17,262.366 1669.17,250.276 1671.16,248.698 1673.15,241.559 1675.15,253.316 1677.14,247.081 1679.13,242.7 1681.13,260.727 1683.12,255.58 1685.11,257.838 1687.11,260.797 1689.1,253.006 1691.09,249.348 1693.08,256.265 1695.08,256.642 1697.07,253.472 1699.06,274.766 1701.06,254.208 1703.05,274.725 1705.04,273.307 1707.04,271.243 1709.03,259.481 1711.02,282.966 1713.02,271.239 1715.01,264.875 1717,249.26 1719,253.229 1720.99,257.854 1722.98,264.008 1724.97,258.538 1726.97,263.33 1728.96,258.053 1730.95,258.069 1732.95,251.63 1734.94,251.583 1736.93,249.793 1738.93,273.366 1740.92,269.868 1742.91,257.597 1744.91,249.219 1746.9,239.282 1748.89,257.181 1750.89,265.054 1752.88,246.915 1754.87,252.007 1756.87,247.897 1758.86,262.168 1760.85,258.481 1762.84,250.465 1764.84,237.371 1766.83,247.435 1768.82,246.831 1770.82,253.701 1772.81,258.233 1774.8,247.607 1776.8,263.428 1778.79,245.137 1780.78,242.814 1782.78,280.135 1784.77,251.63 1786.76,263.382 1788.76,268.481 1790.75,254.519 1792.74,248.179 1794.74,267.685 1796.73,274.981 1798.72,249.695 1800.71,258.544 1802.71,257.711 1804.7,254.33 1806.69,264.336 1808.69,273.14 1810.68,258.474 1812.67,261.439 1814.67,246.396 1816.66,259.567 1818.65,268.228 1820.65,263.307 1822.64,249.703 1824.63,258.195 1826.63,272.034 1828.62,256.18 1830.61,258.003 1832.6,250.078 1834.6,255.503 1836.59,269.533 1838.58,238.58 1840.58,266.04 1842.57,246.797 1844.56,254.535 1846.56,255.454 1848.55,263.103 1850.54,257.954 1852.54,253.812 1854.53,258.19 1856.52,261.494 1858.52,252.17 1860.51,249.042 1862.5,253.446 1864.5,279.318 1866.49,254.217 1868.48,252.018 1870.47,247.614 1872.47,264.561 1874.46,263.81 1876.45,253.568 1878.45,265.466 1880.44,248.857 1882.43,243.218 1884.43,249.664 1886.42,250.657 1888.41,262.909 1890.41,274.226 1892.4,254.096 1894.39,247.215 1896.39,244.754 1898.38,252.851 1900.37,273.518 1902.36,251.059 1904.36,286.278 1906.35,260.498 1908.34,249.565 1910.34,263.864 1912.33,243.189 1914.32,248.301 1916.32,265.101 1918.31,254.747 1920.3,258.753 1922.3,252.216 1924.29,242.04 1926.28,250.536 1928.28,259.836 1930.27,263.99 1932.26,301.419 1934.26,304.657 1936.25,267.449 1938.24,259.744 1940.23,263.501 1942.23,260.83 1944.22,254.941 1946.21,262.381 1948.21,256.573 1950.2,258.262 1952.19,254.994 1954.19,294.42 1956.18,249.511 1958.17,246.002 1960.17,256.135 1962.16,252.942 1964.15,285.554 1966.15,261.891 1968.14,257.15 1970.13,270.513 1972.12,267.249 1974.12,249.33 1976.11,252.892 1978.1,267.268 1980.1,250.384 1982.09,248.8 1984.08,261.663 1986.08,268.918 1988.07,235.92 1990.06,257.402 1992.06,261.7 1994.05,254.975 1996.04,252.976 1998.04,271.49 2000.03,247.058 2002.02,248.629 2004.02,259.144 2006.01,271.298 2008,268.856 2009.99,258.532 2011.99,284.073 2013.98,285.237 2015.97,256.803 2017.97,245.581 2019.96,242.507 2021.95,261.173 2023.95,259.464 2025.94,271.649 2027.93,252.894 2029.93,262.357 2031.92,276.752 2033.91,254.811 2035.91,251.554 2037.9,254.774 2039.89,269.102 2041.89,274.172 2043.88,248.226 2045.87,251.161 2047.86,250.956 2049.86,255.858 2051.85,246.857 2053.84,272.398 2055.84,254.565 2057.83,248.768 2059.82,250.892 2061.82,259.181 2063.81,256.926 2065.8,257.302 2067.8,250.992 2069.79,263.082 2071.78,262.724 2073.78,249.358 2075.77,246.726 2077.76,264.609 2079.75,252.291 2081.75,261.433 2083.74,269.145 2085.73,246.266 2087.73,243.61 2089.72,275.052 2091.71,256.474 2093.71,255.475 2095.7,265.574 2097.69,279.35 2099.69,273.407 2101.68,258.038 2103.67,249.881 2105.67,247.991 2107.66,254.122 2109.65,255.713 2111.65,243.595 2113.64,268.975 2115.63,244.466 2117.62,264.76 2119.62,254.783 2121.61,248.6 2123.6,266.058 2125.6,258.31 2127.59,265.067 2129.58,266.512 2131.58,243.145 2133.57,260.941 2135.56,245.207 2137.56,252.335 2139.55,247.976 2141.54,271.11 2143.54,278.205 2145.53,254.775 2147.52,252.651 2149.51,260.632 2151.51,264.925 2153.5,272.149 2155.49,252.098 2157.49,257.785 2159.48,244.623 2161.47,248.903 2163.47,250.188 2165.46,244.355 2167.45,275.116 2169.45,254.4 2171.44,254.096 2173.43,264.56 2175.43,263.893 2177.42,253.081 2179.41,266.941 2181.41,250.821 2183.4,257.525 2185.39,251.056 2187.38,261.646 2189.38,258.488 2191.37,243.664 2193.36,243.974 2195.36,246.36 2197.35,256.291 2199.34,266.516 2201.34,247.603 2203.33,249.174 2205.32,242.936 2207.32,245.253 2209.31,269.624 2211.3,275.349 2213.3,248.485 2215.29,261.35 2217.28,247.125 2219.27,270.418 2221.27,263.655 2223.26,265.655 2225.25,241.378 2227.25,257.399 2229.24,256.365 2231.23,245.76 2233.23,256.734 2235.22,254.217 2237.21,258.619 2239.21,246.015 2241.2,252.056 2243.19,263.351 2245.19,257.605 2247.18,254.888 2249.17,264.604 2251.17,264.776 2253.16,261.537 2255.15,274.7 2257.14,275.701 2259.14,242.494 2261.13,272.499 2263.12,245.765 2265.12,261.821 2267.11,258.698 2269.1,254.288 2271.1,286.941 2273.09,246.198 2275.08,262.335 2277.08,251.772 2279.07,258.974 2281.06,264.571 2283.06,243.875 2285.05,254.142 2287.04,269.584 2289.04,266.821 2291.03,254.158 2293.02,266.289 "/>
<path clip-path="url(#clip540)" d="M1736.78 1377.32 L2282.4 1377.32 L2282.4 1221.8 L1736.78 1221.8  Z" fill="#ffffff" fill-rule="evenodd" fill-opacity="1"/>
<polyline clip-path="url(#clip540)" style="stroke:#000000; stroke-linecap:round; stroke-linejoin:round; stroke-width:4; stroke-opacity:1; fill:none" points="1736.78,1377.32 2282.4,1377.32 2282.4,1221.8 1736.78,1221.8 1736.78,1377.32 "/>
<polyline clip-path="url(#clip540)" style="stroke:#009af9; stroke-linecap:round; stroke-linejoin:round; stroke-width:4; stroke-opacity:1; fill:none" points="1760.23,1273.64 1900.94,1273.64 "/>
<path clip-path="url(#clip540)" d="M1929.07 1274.41 L1929.07 1287.07 L1936.57 1287.07 Q1940.34 1287.07 1942.15 1285.52 Q1943.98 1283.95 1943.98 1280.73 Q1943.98 1277.49 1942.15 1275.96 Q1940.34 1274.41 1936.57 1274.41 L1929.07 1274.41 M1929.07 1260.2 L1929.07 1270.61 L1935.99 1270.61 Q1939.42 1270.61 1941.08 1269.34 Q1942.77 1268.05 1942.77 1265.41 Q1942.77 1262.79 1941.08 1261.49 Q1939.42 1260.2 1935.99 1260.2 L1929.07 1260.2 M1924.39 1256.36 L1936.34 1256.36 Q1941.68 1256.36 1944.58 1258.58 Q1947.47 1260.8 1947.47 1264.9 Q1947.47 1268.07 1945.99 1269.94 Q1944.51 1271.82 1941.64 1272.28 Q1945.09 1273.02 1946.98 1275.38 Q1948.91 1277.72 1948.91 1281.24 Q1948.91 1285.87 1945.76 1288.39 Q1942.61 1290.92 1936.8 1290.92 L1924.39 1290.92 L1924.39 1256.36 Z" fill="#000000" fill-rule="nonzero" fill-opacity="1" /><path clip-path="url(#clip540)" d="M1961.59 1274.41 L1961.59 1287.07 L1969.09 1287.07 Q1972.86 1287.07 1974.67 1285.52 Q1976.5 1283.95 1976.5 1280.73 Q1976.5 1277.49 1974.67 1275.96 Q1972.86 1274.41 1969.09 1274.41 L1961.59 1274.41 M1961.59 1260.2 L1961.59 1270.61 L1968.51 1270.61 Q1971.94 1270.61 1973.6 1269.34 Q1975.29 1268.05 1975.29 1265.41 Q1975.29 1262.79 1973.6 1261.49 Q1971.94 1260.2 1968.51 1260.2 L1961.59 1260.2 M1956.92 1256.36 L1968.86 1256.36 Q1974.21 1256.36 1977.1 1258.58 Q1979.99 1260.8 1979.99 1264.9 Q1979.99 1268.07 1978.51 1269.94 Q1977.03 1271.82 1974.16 1272.28 Q1977.61 1273.02 1979.51 1275.38 Q1981.43 1277.72 1981.43 1281.24 Q1981.43 1285.87 1978.28 1288.39 Q1975.13 1290.92 1969.32 1290.92 L1956.92 1290.92 L1956.92 1256.36 Z" fill="#000000" fill-rule="nonzero" fill-opacity="1" /><path clip-path="url(#clip540)" d="M1996.89 1290.92 L1983.7 1256.36 L1988.58 1256.36 L1999.53 1285.45 L2010.5 1256.36 L2015.36 1256.36 L2002.19 1290.92 L1996.89 1290.92 Z" fill="#000000" fill-rule="nonzero" fill-opacity="1" /><path clip-path="url(#clip540)" d="M2020.41 1256.36 L2025.09 1256.36 L2025.09 1290.92 L2020.41 1290.92 L2020.41 1256.36 Z" fill="#000000" fill-rule="nonzero" fill-opacity="1" /><path clip-path="url(#clip540)" d="M2075.34 1259.02 L2075.34 1263.95 Q2072.98 1261.75 2070.29 1260.66 Q2067.63 1259.57 2064.62 1259.57 Q2058.7 1259.57 2055.55 1263.21 Q2052.4 1266.82 2052.4 1273.67 Q2052.4 1280.5 2055.55 1284.13 Q2058.7 1287.74 2064.62 1287.74 Q2067.63 1287.74 2070.29 1286.66 Q2072.98 1285.57 2075.34 1283.37 L2075.34 1288.25 Q2072.89 1289.92 2070.13 1290.75 Q2067.4 1291.59 2064.35 1291.59 Q2056.5 1291.59 2051.98 1286.79 Q2047.47 1281.98 2047.47 1273.67 Q2047.47 1265.34 2051.98 1260.55 Q2056.5 1255.73 2064.35 1255.73 Q2067.45 1255.73 2070.18 1256.56 Q2072.93 1257.37 2075.34 1259.02 Z" fill="#000000" fill-rule="nonzero" fill-opacity="1" /><path clip-path="url(#clip540)" d="M2082.56 1256.36 L2102.42 1256.36 L2102.42 1260.29 L2087.24 1260.29 L2087.24 1270.48 L2100.94 1270.48 L2100.94 1274.41 L2087.24 1274.41 L2087.24 1290.92 L2082.56 1290.92 L2082.56 1256.36 Z" fill="#000000" fill-rule="nonzero" fill-opacity="1" /><path clip-path="url(#clip540)" d="M2109.83 1256.36 L2131.68 1256.36 L2131.68 1260.29 L2114.51 1260.29 L2114.51 1270.52 L2130.97 1270.52 L2130.97 1274.46 L2114.51 1274.46 L2114.51 1286.98 L2132.1 1286.98 L2132.1 1290.92 L2109.83 1290.92 L2109.83 1256.36 Z" fill="#000000" fill-rule="nonzero" fill-opacity="1" /><polyline clip-path="url(#clip540)" style="stroke:#e26f46; stroke-linecap:round; stroke-linejoin:round; stroke-width:4; stroke-opacity:1; fill:none" points="1760.23,1325.48 1900.94,1325.48 "/>
<path clip-path="url(#clip540)" d="M1929.07 1326.25 L1929.07 1338.91 L1936.57 1338.91 Q1940.34 1338.91 1942.15 1337.36 Q1943.98 1335.79 1943.98 1332.57 Q1943.98 1329.33 1942.15 1327.8 Q1940.34 1326.25 1936.57 1326.25 L1929.07 1326.25 M1929.07 1312.04 L1929.07 1322.45 L1935.99 1322.45 Q1939.42 1322.45 1941.08 1321.18 Q1942.77 1319.89 1942.77 1317.25 Q1942.77 1314.63 1941.08 1313.33 Q1939.42 1312.04 1935.99 1312.04 L1929.07 1312.04 M1924.39 1308.2 L1936.34 1308.2 Q1941.68 1308.2 1944.58 1310.42 Q1947.47 1312.64 1947.47 1316.74 Q1947.47 1319.91 1945.99 1321.78 Q1944.51 1323.66 1941.64 1324.12 Q1945.09 1324.86 1946.98 1327.22 Q1948.91 1329.56 1948.91 1333.08 Q1948.91 1337.71 1945.76 1340.23 Q1942.61 1342.76 1936.8 1342.76 L1924.39 1342.76 L1924.39 1308.2 Z" fill="#000000" fill-rule="nonzero" fill-opacity="1" /><path clip-path="url(#clip540)" d="M1961.59 1326.25 L1961.59 1338.91 L1969.09 1338.91 Q1972.86 1338.91 1974.67 1337.36 Q1976.5 1335.79 1976.5 1332.57 Q1976.5 1329.33 1974.67 1327.8 Q1972.86 1326.25 1969.09 1326.25 L1961.59 1326.25 M1961.59 1312.04 L1961.59 1322.45 L1968.51 1322.45 Q1971.94 1322.45 1973.6 1321.18 Q1975.29 1319.89 1975.29 1317.25 Q1975.29 1314.63 1973.6 1313.33 Q1971.94 1312.04 1968.51 1312.04 L1961.59 1312.04 M1956.92 1308.2 L1968.86 1308.2 Q1974.21 1308.2 1977.1 1310.42 Q1979.99 1312.64 1979.99 1316.74 Q1979.99 1319.91 1978.51 1321.78 Q1977.03 1323.66 1974.16 1324.12 Q1977.61 1324.86 1979.51 1327.22 Q1981.43 1329.56 1981.43 1333.08 Q1981.43 1337.71 1978.28 1340.23 Q1975.13 1342.76 1969.32 1342.76 L1956.92 1342.76 L1956.92 1308.2 Z" fill="#000000" fill-rule="nonzero" fill-opacity="1" /><path clip-path="url(#clip540)" d="M1996.89 1342.76 L1983.7 1308.2 L1988.58 1308.2 L1999.53 1337.29 L2010.5 1308.2 L2015.36 1308.2 L2002.19 1342.76 L1996.89 1342.76 Z" fill="#000000" fill-rule="nonzero" fill-opacity="1" /><path clip-path="url(#clip540)" d="M2020.41 1308.2 L2025.09 1308.2 L2025.09 1342.76 L2020.41 1342.76 L2020.41 1308.2 Z" fill="#000000" fill-rule="nonzero" fill-opacity="1" /><path clip-path="url(#clip540)" d="M2075.34 1310.86 L2075.34 1315.79 Q2072.98 1313.59 2070.29 1312.5 Q2067.63 1311.41 2064.62 1311.41 Q2058.7 1311.41 2055.55 1315.05 Q2052.4 1318.66 2052.4 1325.51 Q2052.4 1332.34 2055.55 1335.97 Q2058.7 1339.58 2064.62 1339.58 Q2067.63 1339.58 2070.29 1338.5 Q2072.98 1337.41 2075.34 1335.21 L2075.34 1340.09 Q2072.89 1341.76 2070.13 1342.59 Q2067.4 1343.43 2064.35 1343.43 Q2056.5 1343.43 2051.98 1338.63 Q2047.47 1333.82 2047.47 1325.51 Q2047.47 1317.18 2051.98 1312.39 Q2056.5 1307.57 2064.35 1307.57 Q2067.45 1307.57 2070.18 1308.4 Q2072.93 1309.21 2075.34 1310.86 Z" fill="#000000" fill-rule="nonzero" fill-opacity="1" /><path clip-path="url(#clip540)" d="M2082.56 1308.2 L2102.42 1308.2 L2102.42 1312.13 L2087.24 1312.13 L2087.24 1322.32 L2100.94 1322.32 L2100.94 1326.25 L2087.24 1326.25 L2087.24 1342.76 L2082.56 1342.76 L2082.56 1308.2 Z" fill="#000000" fill-rule="nonzero" fill-opacity="1" /><path clip-path="url(#clip540)" d="M2109.83 1308.2 L2131.68 1308.2 L2131.68 1312.13 L2114.51 1312.13 L2114.51 1322.36 L2130.97 1322.36 L2130.97 1326.3 L2114.51 1326.3 L2114.51 1338.82 L2132.1 1338.82 L2132.1 1342.76 L2109.83 1342.76 L2109.83 1308.2 Z" fill="#000000" fill-rule="nonzero" fill-opacity="1" /><path clip-path="url(#clip540)" d="M2168.88 1311.37 Q2163.79 1311.37 2160.78 1315.16 Q2157.79 1318.96 2157.79 1325.51 Q2157.79 1332.04 2160.78 1335.83 Q2163.79 1339.63 2168.88 1339.63 Q2173.97 1339.63 2176.94 1335.83 Q2179.92 1332.04 2179.92 1325.51 Q2179.92 1318.96 2176.94 1315.16 Q2173.97 1311.37 2168.88 1311.37 M2175.43 1342.13 L2181.59 1348.87 L2175.94 1348.87 L2170.83 1343.33 Q2170.06 1343.38 2169.65 1343.4 Q2169.25 1343.43 2168.88 1343.43 Q2161.59 1343.43 2157.21 1338.57 Q2152.86 1333.68 2152.86 1325.51 Q2152.86 1317.32 2157.21 1312.45 Q2161.59 1307.57 2168.88 1307.57 Q2176.15 1307.57 2180.5 1312.45 Q2184.85 1317.32 2184.85 1325.51 Q2184.85 1331.53 2182.42 1335.81 Q2180.02 1340.09 2175.43 1342.13 Z" fill="#000000" fill-rule="nonzero" fill-opacity="1" /><path clip-path="url(#clip540)" d="M2192.17 1308.2 L2199.14 1308.2 L2207.96 1331.71 L2216.82 1308.2 L2223.79 1308.2 L2223.79 1342.76 L2219.23 1342.76 L2219.23 1312.41 L2210.32 1336.11 L2205.62 1336.11 L2196.71 1312.41 L2196.71 1342.76 L2192.17 1342.76 L2192.17 1308.2 Z" fill="#000000" fill-rule="nonzero" fill-opacity="1" /><path clip-path="url(#clip540)" d="M2258.95 1310.86 L2258.95 1315.79 Q2256.59 1313.59 2253.9 1312.5 Q2251.24 1311.41 2248.23 1311.41 Q2242.31 1311.41 2239.16 1315.05 Q2236.01 1318.66 2236.01 1325.51 Q2236.01 1332.34 2239.16 1335.97 Q2242.31 1339.58 2248.23 1339.58 Q2251.24 1339.58 2253.9 1338.5 Q2256.59 1337.41 2258.95 1335.21 L2258.95 1340.09 Q2256.5 1341.76 2253.74 1342.59 Q2251.01 1343.43 2247.96 1343.43 Q2240.11 1343.43 2235.59 1338.63 Q2231.08 1333.82 2231.08 1325.51 Q2231.08 1317.18 2235.59 1312.39 Q2240.11 1307.57 2247.96 1307.57 Q2251.06 1307.57 2253.79 1308.4 Q2256.54 1309.21 2258.95 1310.86 Z" fill="#000000" fill-rule="nonzero" fill-opacity="1" /></svg>
