<?xml version="1.0" encoding="utf-8"?>
<svg xmlns="http://www.w3.org/2000/svg" xmlns:xlink="http://www.w3.org/1999/xlink" width="600" height="400" viewBox="0 0 2400 1600">
<defs>
  <clipPath id="clip570">
    <rect x="0" y="0" width="2400" height="1600"/>
  </clipPath>
</defs>
<path clip-path="url(#clip570)" d="M0 1600 L2400 1600 L2400 0 L0 0  Z" fill="#ffffff" fill-rule="evenodd" fill-opacity="1"/>
<defs>
  <clipPath id="clip571">
    <rect x="202" y="47" width="2152" height="1377"/>
  </clipPath>
</defs>
<path clip-path="url(#clip570)" d="M242.135 1423.18 L2352.76 1423.18 L2352.76 47.2441 L242.135 47.2441  Z" fill="#ffffff" fill-rule="evenodd" fill-opacity="1"/>
<defs>
  <clipPath id="clip572">
    <rect x="242" y="47" width="2112" height="1377"/>
  </clipPath>
</defs>
<polyline clip-path="url(#clip572)" style="stroke:#000000; stroke-linecap:round; stroke-linejoin:round; stroke-width:2; stroke-opacity:0.1; fill:none" points="299.876,1423.18 299.876,47.2441 "/>
<polyline clip-path="url(#clip572)" style="stroke:#000000; stroke-linecap:round; stroke-linejoin:round; stroke-width:2; stroke-opacity:0.1; fill:none" points="798.162,1423.18 798.162,47.2441 "/>
<polyline clip-path="url(#clip572)" style="stroke:#000000; stroke-linecap:round; stroke-linejoin:round; stroke-width:2; stroke-opacity:0.1; fill:none" points="1296.45,1423.18 1296.45,47.2441 "/>
<polyline clip-path="url(#clip572)" style="stroke:#000000; stroke-linecap:round; stroke-linejoin:round; stroke-width:2; stroke-opacity:0.1; fill:none" points="1794.74,1423.18 1794.74,47.2441 "/>
<polyline clip-path="url(#clip572)" style="stroke:#000000; stroke-linecap:round; stroke-linejoin:round; stroke-width:2; stroke-opacity:0.1; fill:none" points="2293.02,1423.18 2293.02,47.2441 "/>
<polyline clip-path="url(#clip572)" style="stroke:#000000; stroke-linecap:round; stroke-linejoin:round; stroke-width:2; stroke-opacity:0.1; fill:none" points="242.135,1225.38 2352.76,1225.38 "/>
<polyline clip-path="url(#clip572)" style="stroke:#000000; stroke-linecap:round; stroke-linejoin:round; stroke-width:2; stroke-opacity:0.1; fill:none" points="242.135,893.179 2352.76,893.179 "/>
<polyline clip-path="url(#clip572)" style="stroke:#000000; stroke-linecap:round; stroke-linejoin:round; stroke-width:2; stroke-opacity:0.1; fill:none" points="242.135,560.98 2352.76,560.98 "/>
<polyline clip-path="url(#clip572)" style="stroke:#000000; stroke-linecap:round; stroke-linejoin:round; stroke-width:2; stroke-opacity:0.1; fill:none" points="242.135,228.781 2352.76,228.781 "/>
<polyline clip-path="url(#clip570)" style="stroke:#000000; stroke-linecap:round; stroke-linejoin:round; stroke-width:4; stroke-opacity:1; fill:none" points="242.135,1423.18 2352.76,1423.18 "/>
<polyline clip-path="url(#clip570)" style="stroke:#000000; stroke-linecap:round; stroke-linejoin:round; stroke-width:4; stroke-opacity:1; fill:none" points="299.876,1423.18 299.876,1404.28 "/>
<polyline clip-path="url(#clip570)" style="stroke:#000000; stroke-linecap:round; stroke-linejoin:round; stroke-width:4; stroke-opacity:1; fill:none" points="798.162,1423.18 798.162,1404.28 "/>
<polyline clip-path="url(#clip570)" style="stroke:#000000; stroke-linecap:round; stroke-linejoin:round; stroke-width:4; stroke-opacity:1; fill:none" points="1296.45,1423.18 1296.45,1404.28 "/>
<polyline clip-path="url(#clip570)" style="stroke:#000000; stroke-linecap:round; stroke-linejoin:round; stroke-width:4; stroke-opacity:1; fill:none" points="1794.74,1423.18 1794.74,1404.28 "/>
<polyline clip-path="url(#clip570)" style="stroke:#000000; stroke-linecap:round; stroke-linejoin:round; stroke-width:4; stroke-opacity:1; fill:none" points="2293.02,1423.18 2293.02,1404.28 "/>
<path clip-path="url(#clip570)" d="M299.876 1454.1 Q296.265 1454.1 294.436 1457.66 Q292.631 1461.2 292.631 1468.33 Q292.631 1475.44 294.436 1479.01 Q296.265 1482.55 299.876 1482.55 Q303.51 1482.55 305.316 1479.01 Q307.145 1475.44 307.145 1468.33 Q307.145 1461.2 305.316 1457.66 Q303.51 1454.1 299.876 1454.1 M299.876 1450.39 Q305.686 1450.39 308.742 1455 Q311.82 1459.58 311.82 1468.33 Q311.82 1477.06 308.742 1481.67 Q305.686 1486.25 299.876 1486.25 Q294.066 1486.25 290.987 1481.67 Q287.932 1477.06 287.932 1468.33 Q287.932 1459.58 290.987 1455 Q294.066 1450.39 299.876 1450.39 Z" fill="#000000" fill-rule="nonzero" fill-opacity="1" /><path clip-path="url(#clip570)" d="M761.855 1481.64 L778.174 1481.64 L778.174 1485.58 L756.23 1485.58 L756.23 1481.64 Q758.892 1478.89 763.475 1474.26 Q768.082 1469.61 769.262 1468.27 Q771.507 1465.74 772.387 1464.01 Q773.29 1462.25 773.29 1460.56 Q773.29 1457.8 771.345 1456.07 Q769.424 1454.33 766.322 1454.33 Q764.123 1454.33 761.67 1455.09 Q759.239 1455.86 756.461 1457.41 L756.461 1452.69 Q759.285 1451.55 761.739 1450.97 Q764.193 1450.39 766.23 1450.39 Q771.6 1450.39 774.794 1453.08 Q777.989 1455.77 777.989 1460.26 Q777.989 1462.39 777.179 1464.31 Q776.392 1466.2 774.285 1468.8 Q773.707 1469.47 770.605 1472.69 Q767.503 1475.88 761.855 1481.64 Z" fill="#000000" fill-rule="nonzero" fill-opacity="1" /><path clip-path="url(#clip570)" d="M788.035 1451.02 L806.392 1451.02 L806.392 1454.96 L792.318 1454.96 L792.318 1463.43 Q793.336 1463.08 794.355 1462.92 Q795.373 1462.73 796.392 1462.73 Q802.179 1462.73 805.558 1465.9 Q808.938 1469.08 808.938 1474.49 Q808.938 1480.07 805.466 1483.17 Q801.993 1486.25 795.674 1486.25 Q793.498 1486.25 791.23 1485.88 Q788.984 1485.51 786.577 1484.77 L786.577 1480.07 Q788.66 1481.2 790.882 1481.76 Q793.105 1482.32 795.581 1482.32 Q799.586 1482.32 801.924 1480.21 Q804.262 1478.1 804.262 1474.49 Q804.262 1470.88 801.924 1468.77 Q799.586 1466.67 795.581 1466.67 Q793.706 1466.67 791.831 1467.08 Q789.98 1467.5 788.035 1468.38 L788.035 1451.02 Z" fill="#000000" fill-rule="nonzero" fill-opacity="1" /><path clip-path="url(#clip570)" d="M828.151 1454.1 Q824.54 1454.1 822.711 1457.66 Q820.905 1461.2 820.905 1468.33 Q820.905 1475.44 822.711 1479.01 Q824.54 1482.55 828.151 1482.55 Q831.785 1482.55 833.59 1479.01 Q835.419 1475.44 835.419 1468.33 Q835.419 1461.2 833.59 1457.66 Q831.785 1454.1 828.151 1454.1 M828.151 1450.39 Q833.961 1450.39 837.016 1455 Q840.095 1459.58 840.095 1468.33 Q840.095 1477.06 837.016 1481.67 Q833.961 1486.25 828.151 1486.25 Q822.341 1486.25 819.262 1481.67 Q816.206 1477.06 816.206 1468.33 Q816.206 1459.58 819.262 1455 Q822.341 1450.39 828.151 1450.39 Z" fill="#000000" fill-rule="nonzero" fill-opacity="1" /><path clip-path="url(#clip570)" d="M1256.07 1451.02 L1274.42 1451.02 L1274.42 1454.96 L1260.35 1454.96 L1260.35 1463.43 Q1261.37 1463.08 1262.39 1462.92 Q1263.4 1462.73 1264.42 1462.73 Q1270.21 1462.73 1273.59 1465.9 Q1276.97 1469.08 1276.97 1474.49 Q1276.97 1480.07 1273.5 1483.17 Q1270.03 1486.25 1263.71 1486.25 Q1261.53 1486.25 1259.26 1485.88 Q1257.02 1485.51 1254.61 1484.77 L1254.61 1480.07 Q1256.69 1481.2 1258.91 1481.76 Q1261.14 1482.32 1263.61 1482.32 Q1267.62 1482.32 1269.96 1480.21 Q1272.29 1478.1 1272.29 1474.49 Q1272.29 1470.88 1269.96 1468.77 Q1267.62 1466.67 1263.61 1466.67 Q1261.74 1466.67 1259.86 1467.08 Q1258.01 1467.5 1256.07 1468.38 L1256.07 1451.02 Z" fill="#000000" fill-rule="nonzero" fill-opacity="1" /><path clip-path="url(#clip570)" d="M1296.18 1454.1 Q1292.57 1454.1 1290.74 1457.66 Q1288.94 1461.2 1288.94 1468.33 Q1288.94 1475.44 1290.74 1479.01 Q1292.57 1482.55 1296.18 1482.55 Q1299.82 1482.55 1301.62 1479.01 Q1303.45 1475.44 1303.45 1468.33 Q1303.45 1461.2 1301.62 1457.66 Q1299.82 1454.1 1296.18 1454.1 M1296.18 1450.39 Q1301.99 1450.39 1305.05 1455 Q1308.13 1459.58 1308.13 1468.33 Q1308.13 1477.06 1305.05 1481.67 Q1301.99 1486.25 1296.18 1486.25 Q1290.37 1486.25 1287.29 1481.67 Q1284.24 1477.06 1284.24 1468.33 Q1284.24 1459.58 1287.29 1455 Q1290.37 1450.39 1296.18 1450.39 Z" fill="#000000" fill-rule="nonzero" fill-opacity="1" /><path clip-path="url(#clip570)" d="M1326.34 1454.1 Q1322.73 1454.1 1320.9 1457.66 Q1319.1 1461.2 1319.1 1468.33 Q1319.1 1475.44 1320.9 1479.01 Q1322.73 1482.55 1326.34 1482.55 Q1329.98 1482.55 1331.78 1479.01 Q1333.61 1475.44 1333.61 1468.33 Q1333.61 1461.2 1331.78 1457.66 Q1329.98 1454.1 1326.34 1454.1 M1326.34 1450.39 Q1332.15 1450.39 1335.21 1455 Q1338.29 1459.58 1338.29 1468.33 Q1338.29 1477.06 1335.21 1481.67 Q1332.15 1486.25 1326.34 1486.25 Q1320.53 1486.25 1317.46 1481.67 Q1314.4 1477.06 1314.4 1468.33 Q1314.4 1459.58 1317.46 1455 Q1320.53 1450.39 1326.34 1450.39 Z" fill="#000000" fill-rule="nonzero" fill-opacity="1" /><path clip-path="url(#clip570)" d="M1753.01 1451.02 L1775.23 1451.02 L1775.23 1453.01 L1762.69 1485.58 L1757.8 1485.58 L1769.61 1454.96 L1753.01 1454.96 L1753.01 1451.02 Z" fill="#000000" fill-rule="nonzero" fill-opacity="1" /><path clip-path="url(#clip570)" d="M1784.4 1451.02 L1802.76 1451.02 L1802.76 1454.96 L1788.68 1454.96 L1788.68 1463.43 Q1789.7 1463.08 1790.72 1462.92 Q1791.74 1462.73 1792.76 1462.73 Q1798.54 1462.73 1801.92 1465.9 Q1805.3 1469.08 1805.3 1474.49 Q1805.3 1480.07 1801.83 1483.17 Q1798.36 1486.25 1792.04 1486.25 Q1789.86 1486.25 1787.59 1485.88 Q1785.35 1485.51 1782.94 1484.77 L1782.94 1480.07 Q1785.02 1481.2 1787.25 1481.76 Q1789.47 1482.32 1791.95 1482.32 Q1795.95 1482.32 1798.29 1480.21 Q1800.63 1478.1 1800.63 1474.49 Q1800.63 1470.88 1798.29 1468.77 Q1795.95 1466.67 1791.95 1466.67 Q1790.07 1466.67 1788.2 1467.08 Q1786.34 1467.5 1784.4 1468.38 L1784.4 1451.02 Z" fill="#000000" fill-rule="nonzero" fill-opacity="1" /><path clip-path="url(#clip570)" d="M1824.51 1454.1 Q1820.9 1454.1 1819.08 1457.66 Q1817.27 1461.2 1817.27 1468.33 Q1817.27 1475.44 1819.08 1479.01 Q1820.9 1482.55 1824.51 1482.55 Q1828.15 1482.55 1829.95 1479.01 Q1831.78 1475.44 1831.78 1468.33 Q1831.78 1461.2 1829.95 1457.66 Q1828.15 1454.1 1824.51 1454.1 M1824.51 1450.39 Q1830.33 1450.39 1833.38 1455 Q1836.46 1459.58 1836.46 1468.33 Q1836.46 1477.06 1833.38 1481.67 Q1830.33 1486.25 1824.51 1486.25 Q1818.7 1486.25 1815.63 1481.67 Q1812.57 1477.06 1812.57 1468.33 Q1812.57 1459.58 1815.63 1455 Q1818.7 1450.39 1824.51 1450.39 Z" fill="#000000" fill-rule="nonzero" fill-opacity="1" /><path clip-path="url(#clip570)" d="M2237.55 1481.64 L2245.19 1481.64 L2245.19 1455.28 L2236.88 1456.95 L2236.88 1452.69 L2245.14 1451.02 L2249.82 1451.02 L2249.82 1481.64 L2257.45 1481.64 L2257.45 1485.58 L2237.55 1485.58 L2237.55 1481.64 Z" fill="#000000" fill-rule="nonzero" fill-opacity="1" /><path clip-path="url(#clip570)" d="M2276.9 1454.1 Q2273.29 1454.1 2271.46 1457.66 Q2269.65 1461.2 2269.65 1468.33 Q2269.65 1475.44 2271.46 1479.01 Q2273.29 1482.55 2276.9 1482.55 Q2280.53 1482.55 2282.34 1479.01 Q2284.17 1475.44 2284.17 1468.33 Q2284.17 1461.2 2282.34 1457.66 Q2280.53 1454.1 2276.9 1454.1 M2276.9 1450.39 Q2282.71 1450.39 2285.76 1455 Q2288.84 1459.58 2288.84 1468.33 Q2288.84 1477.06 2285.76 1481.67 Q2282.71 1486.25 2276.9 1486.25 Q2271.09 1486.25 2268.01 1481.67 Q2264.95 1477.06 2264.95 1468.33 Q2264.95 1459.58 2268.01 1455 Q2271.09 1450.39 2276.9 1450.39 Z" fill="#000000" fill-rule="nonzero" fill-opacity="1" /><path clip-path="url(#clip570)" d="M2307.06 1454.1 Q2303.45 1454.1 2301.62 1457.66 Q2299.82 1461.2 2299.82 1468.33 Q2299.82 1475.44 2301.62 1479.01 Q2303.45 1482.55 2307.06 1482.55 Q2310.69 1482.55 2312.5 1479.01 Q2314.33 1475.44 2314.33 1468.33 Q2314.33 1461.2 2312.5 1457.66 Q2310.69 1454.1 2307.06 1454.1 M2307.06 1450.39 Q2312.87 1450.39 2315.93 1455 Q2319 1459.58 2319 1468.33 Q2319 1477.06 2315.93 1481.67 Q2312.87 1486.25 2307.06 1486.25 Q2301.25 1486.25 2298.17 1481.67 Q2295.12 1477.06 2295.12 1468.33 Q2295.12 1459.58 2298.17 1455 Q2301.25 1450.39 2307.06 1450.39 Z" fill="#000000" fill-rule="nonzero" fill-opacity="1" /><path clip-path="url(#clip570)" d="M2337.22 1454.1 Q2333.61 1454.1 2331.78 1457.66 Q2329.98 1461.2 2329.98 1468.33 Q2329.98 1475.44 2331.78 1479.01 Q2333.61 1482.55 2337.22 1482.55 Q2340.86 1482.55 2342.66 1479.01 Q2344.49 1475.44 2344.49 1468.33 Q2344.49 1461.2 2342.66 1457.66 Q2340.86 1454.1 2337.22 1454.1 M2337.22 1450.39 Q2343.03 1450.39 2346.09 1455 Q2349.17 1459.58 2349.17 1468.33 Q2349.17 1477.06 2346.09 1481.67 Q2343.03 1486.25 2337.22 1486.25 Q2331.41 1486.25 2328.33 1481.67 Q2325.28 1477.06 2325.28 1468.33 Q2325.28 1459.58 2328.33 1455 Q2331.41 1450.39 2337.22 1450.39 Z" fill="#000000" fill-rule="nonzero" fill-opacity="1" /><path clip-path="url(#clip570)" d="M1165.17 1520.52 L1171.6 1520.52 L1171.6 1568.04 L1165.17 1568.04 L1165.17 1520.52 Z" fill="#000000" fill-rule="nonzero" fill-opacity="1" /><path clip-path="url(#clip570)" d="M1189.93 1522.27 L1189.93 1532.4 L1201.99 1532.4 L1201.99 1536.95 L1189.93 1536.95 L1189.93 1556.3 Q1189.93 1560.66 1191.11 1561.9 Q1192.32 1563.14 1195.98 1563.14 L1201.99 1563.14 L1201.99 1568.04 L1195.98 1568.04 Q1189.2 1568.04 1186.62 1565.53 Q1184.04 1562.98 1184.04 1556.3 L1184.04 1536.95 L1179.74 1536.95 L1179.74 1532.4 L1184.04 1532.4 L1184.04 1522.27 L1189.93 1522.27 Z" fill="#000000" fill-rule="nonzero" fill-opacity="1" /><path clip-path="url(#clip570)" d="M1240.19 1548.76 L1240.19 1551.62 L1213.26 1551.62 Q1213.64 1557.67 1216.89 1560.85 Q1220.17 1564 1225.99 1564 Q1229.36 1564 1232.52 1563.17 Q1235.7 1562.35 1238.82 1560.69 L1238.82 1566.23 Q1235.67 1567.57 1232.36 1568.27 Q1229.05 1568.97 1225.64 1568.97 Q1217.11 1568.97 1212.11 1564 Q1207.15 1559.04 1207.15 1550.57 Q1207.15 1541.82 1211.86 1536.69 Q1216.6 1531.54 1224.62 1531.54 Q1231.81 1531.54 1235.98 1536.18 Q1240.19 1540.8 1240.19 1548.76 M1234.33 1547.04 Q1234.27 1542.23 1231.62 1539.37 Q1229.01 1536.5 1224.69 1536.5 Q1219.78 1536.5 1216.82 1539.27 Q1213.9 1542.04 1213.45 1547.07 L1234.33 1547.04 Z" fill="#000000" fill-rule="nonzero" fill-opacity="1" /><path clip-path="url(#clip570)" d="M1270.45 1537.87 Q1269.47 1537.3 1268.29 1537.04 Q1267.14 1536.76 1265.74 1536.76 Q1260.78 1536.76 1258.11 1540 Q1255.46 1543.22 1255.46 1549.27 L1255.46 1568.04 L1249.58 1568.04 L1249.58 1532.4 L1255.46 1532.4 L1255.46 1537.93 Q1257.31 1534.69 1260.27 1533.13 Q1263.23 1531.54 1267.46 1531.54 Q1268.07 1531.54 1268.8 1531.63 Q1269.53 1531.7 1270.42 1531.85 L1270.45 1537.87 Z" fill="#000000" fill-rule="nonzero" fill-opacity="1" /><path clip-path="url(#clip570)" d="M1292.8 1550.12 Q1285.7 1550.12 1282.96 1551.75 Q1280.23 1553.37 1280.23 1557.29 Q1280.23 1560.4 1282.26 1562.25 Q1284.33 1564.07 1287.86 1564.07 Q1292.73 1564.07 1295.66 1560.63 Q1298.62 1557.16 1298.62 1551.43 L1298.62 1550.12 L1292.8 1550.12 M1304.48 1547.71 L1304.48 1568.04 L1298.62 1568.04 L1298.62 1562.63 Q1296.62 1565.88 1293.63 1567.44 Q1290.63 1568.97 1286.31 1568.97 Q1280.83 1568.97 1277.58 1565.91 Q1274.37 1562.82 1274.37 1557.67 Q1274.37 1551.65 1278.38 1548.6 Q1282.42 1545.54 1290.41 1545.54 L1298.62 1545.54 L1298.62 1544.97 Q1298.62 1540.93 1295.95 1538.73 Q1293.31 1536.5 1288.5 1536.5 Q1285.45 1536.5 1282.55 1537.23 Q1279.65 1537.97 1276.98 1539.43 L1276.98 1534.02 Q1280.19 1532.78 1283.22 1532.17 Q1286.24 1531.54 1289.11 1531.54 Q1296.84 1531.54 1300.66 1535.55 Q1304.48 1539.56 1304.48 1547.71 Z" fill="#000000" fill-rule="nonzero" fill-opacity="1" /><path clip-path="url(#clip570)" d="M1322.34 1522.27 L1322.34 1532.4 L1334.4 1532.4 L1334.4 1536.95 L1322.34 1536.95 L1322.34 1556.3 Q1322.34 1560.66 1323.51 1561.9 Q1324.72 1563.14 1328.38 1563.14 L1334.4 1563.14 L1334.4 1568.04 L1328.38 1568.04 Q1321.6 1568.04 1319.03 1565.53 Q1316.45 1562.98 1316.45 1556.3 L1316.45 1536.95 L1312.15 1536.95 L1312.15 1532.4 L1316.45 1532.4 L1316.45 1522.27 L1322.34 1522.27 Z" fill="#000000" fill-rule="nonzero" fill-opacity="1" /><path clip-path="url(#clip570)" d="M1342.1 1532.4 L1347.96 1532.4 L1347.96 1568.04 L1342.1 1568.04 L1342.1 1532.4 M1342.1 1518.52 L1347.96 1518.52 L1347.96 1525.93 L1342.1 1525.93 L1342.1 1518.52 Z" fill="#000000" fill-rule="nonzero" fill-opacity="1" /><path clip-path="url(#clip570)" d="M1374.02 1536.5 Q1369.31 1536.5 1366.58 1540.19 Q1363.84 1543.85 1363.84 1550.25 Q1363.84 1556.65 1366.55 1560.34 Q1369.28 1564 1374.02 1564 Q1378.7 1564 1381.44 1560.31 Q1384.18 1556.62 1384.18 1550.25 Q1384.18 1543.92 1381.44 1540.23 Q1378.7 1536.5 1374.02 1536.5 M1374.02 1531.54 Q1381.66 1531.54 1386.02 1536.5 Q1390.38 1541.47 1390.38 1550.25 Q1390.38 1559 1386.02 1564 Q1381.66 1568.97 1374.02 1568.97 Q1366.35 1568.97 1361.99 1564 Q1357.66 1559 1357.66 1550.25 Q1357.66 1541.47 1361.99 1536.5 Q1366.35 1531.54 1374.02 1531.54 Z" fill="#000000" fill-rule="nonzero" fill-opacity="1" /><path clip-path="url(#clip570)" d="M1429.72 1546.53 L1429.72 1568.04 L1423.87 1568.04 L1423.87 1546.72 Q1423.87 1541.66 1421.89 1539.14 Q1419.92 1536.63 1415.97 1536.63 Q1411.23 1536.63 1408.5 1539.65 Q1405.76 1542.68 1405.76 1547.9 L1405.76 1568.04 L1399.87 1568.04 L1399.87 1532.4 L1405.76 1532.4 L1405.76 1537.93 Q1407.86 1534.72 1410.69 1533.13 Q1413.56 1531.54 1417.28 1531.54 Q1423.42 1531.54 1426.57 1535.36 Q1429.72 1539.14 1429.72 1546.53 Z" fill="#000000" fill-rule="nonzero" fill-opacity="1" /><polyline clip-path="url(#clip570)" style="stroke:#000000; stroke-linecap:round; stroke-linejoin:round; stroke-width:4; stroke-opacity:1; fill:none" points="242.135,1423.18 242.135,47.2441 "/>
<polyline clip-path="url(#clip570)" style="stroke:#000000; stroke-linecap:round; stroke-linejoin:round; stroke-width:4; stroke-opacity:1; fill:none" points="242.135,1225.38 261.032,1225.38 "/>
<polyline clip-path="url(#clip570)" style="stroke:#000000; stroke-linecap:round; stroke-linejoin:round; stroke-width:4; stroke-opacity:1; fill:none" points="242.135,893.179 261.032,893.179 "/>
<polyline clip-path="url(#clip570)" style="stroke:#000000; stroke-linecap:round; stroke-linejoin:round; stroke-width:4; stroke-opacity:1; fill:none" points="242.135,560.98 261.032,560.98 "/>
<polyline clip-path="url(#clip570)" style="stroke:#000000; stroke-linecap:round; stroke-linejoin:round; stroke-width:4; stroke-opacity:1; fill:none" points="242.135,228.781 261.032,228.781 "/>
<path clip-path="url(#clip570)" d="M114.26 1225.83 L143.936 1225.83 L143.936 1229.76 L114.26 1229.76 L114.26 1225.83 Z" fill="#000000" fill-rule="nonzero" fill-opacity="1" /><path clip-path="url(#clip570)" d="M168.195 1224.02 Q171.552 1224.74 173.427 1227.01 Q175.325 1229.28 175.325 1232.61 Q175.325 1237.73 171.806 1240.53 Q168.288 1243.33 161.806 1243.33 Q159.63 1243.33 157.315 1242.89 Q155.024 1242.47 152.57 1241.62 L152.57 1237.1 Q154.515 1238.24 156.829 1238.82 Q159.144 1239.39 161.667 1239.39 Q166.065 1239.39 168.357 1237.66 Q170.672 1235.92 170.672 1232.61 Q170.672 1229.56 168.519 1227.84 Q166.39 1226.11 162.57 1226.11 L158.542 1226.11 L158.542 1222.26 L162.755 1222.26 Q166.204 1222.26 168.033 1220.9 Q169.862 1219.51 169.862 1216.92 Q169.862 1214.26 167.964 1212.84 Q166.089 1211.41 162.57 1211.41 Q160.649 1211.41 158.45 1211.82 Q156.251 1212.24 153.612 1213.12 L153.612 1208.95 Q156.274 1208.21 158.589 1207.84 Q160.927 1207.47 162.987 1207.47 Q168.311 1207.47 171.413 1209.9 Q174.514 1212.31 174.514 1216.43 Q174.514 1219.3 172.871 1221.29 Q171.227 1223.26 168.195 1224.02 Z" fill="#000000" fill-rule="nonzero" fill-opacity="1" /><path clip-path="url(#clip570)" d="M194.19 1211.18 Q190.579 1211.18 188.75 1214.74 Q186.945 1218.28 186.945 1225.41 Q186.945 1232.52 188.75 1236.08 Q190.579 1239.63 194.19 1239.63 Q197.825 1239.63 199.63 1236.08 Q201.459 1232.52 201.459 1225.41 Q201.459 1218.28 199.63 1214.74 Q197.825 1211.18 194.19 1211.18 M194.19 1207.47 Q200 1207.47 203.056 1212.08 Q206.135 1216.66 206.135 1225.41 Q206.135 1234.14 203.056 1238.75 Q200 1243.33 194.19 1243.33 Q188.38 1243.33 185.301 1238.75 Q182.246 1234.14 182.246 1225.41 Q182.246 1216.66 185.301 1212.08 Q188.38 1207.47 194.19 1207.47 Z" fill="#000000" fill-rule="nonzero" fill-opacity="1" /><path clip-path="url(#clip570)" d="M114.26 893.63 L143.936 893.63 L143.936 897.566 L114.26 897.566 L114.26 893.63 Z" fill="#000000" fill-rule="nonzero" fill-opacity="1" /><path clip-path="url(#clip570)" d="M158.056 906.524 L174.376 906.524 L174.376 910.459 L152.431 910.459 L152.431 906.524 Q155.093 903.769 159.677 899.14 Q164.283 894.487 165.464 893.144 Q167.709 890.621 168.589 888.885 Q169.491 887.126 169.491 885.436 Q169.491 882.681 167.547 880.945 Q165.626 879.209 162.524 879.209 Q160.325 879.209 157.871 879.973 Q155.44 880.737 152.663 882.288 L152.663 877.566 Q155.487 876.432 157.94 875.853 Q160.394 875.274 162.431 875.274 Q167.802 875.274 170.996 877.959 Q174.19 880.644 174.19 885.135 Q174.19 887.265 173.38 889.186 Q172.593 891.084 170.487 893.677 Q169.908 894.348 166.806 897.566 Q163.704 900.76 158.056 906.524 Z" fill="#000000" fill-rule="nonzero" fill-opacity="1" /><path clip-path="url(#clip570)" d="M194.19 878.978 Q190.579 878.978 188.75 882.543 Q186.945 886.084 186.945 893.214 Q186.945 900.32 188.75 903.885 Q190.579 907.427 194.19 907.427 Q197.825 907.427 199.63 903.885 Q201.459 900.32 201.459 893.214 Q201.459 886.084 199.63 882.543 Q197.825 878.978 194.19 878.978 M194.19 875.274 Q200 875.274 203.056 879.881 Q206.135 884.464 206.135 893.214 Q206.135 901.941 203.056 906.547 Q200 911.13 194.19 911.13 Q188.38 911.13 185.301 906.547 Q182.246 901.941 182.246 893.214 Q182.246 884.464 185.301 879.881 Q188.38 875.274 194.19 875.274 Z" fill="#000000" fill-rule="nonzero" fill-opacity="1" /><path clip-path="url(#clip570)" d="M114.26 561.431 L143.936 561.431 L143.936 565.367 L114.26 565.367 L114.26 561.431 Z" fill="#000000" fill-rule="nonzero" fill-opacity="1" /><path clip-path="url(#clip570)" d="M154.839 574.325 L162.477 574.325 L162.477 547.959 L154.167 549.626 L154.167 545.367 L162.431 543.7 L167.107 543.7 L167.107 574.325 L174.746 574.325 L174.746 578.26 L154.839 578.26 L154.839 574.325 Z" fill="#000000" fill-rule="nonzero" fill-opacity="1" /><path clip-path="url(#clip570)" d="M194.19 546.779 Q190.579 546.779 188.75 550.344 Q186.945 553.885 186.945 561.015 Q186.945 568.121 188.75 571.686 Q190.579 575.228 194.19 575.228 Q197.825 575.228 199.63 571.686 Q201.459 568.121 201.459 561.015 Q201.459 553.885 199.63 550.344 Q197.825 546.779 194.19 546.779 M194.19 543.075 Q200 543.075 203.056 547.682 Q206.135 552.265 206.135 561.015 Q206.135 569.742 203.056 574.348 Q200 578.931 194.19 578.931 Q188.38 578.931 185.301 574.348 Q182.246 569.742 182.246 561.015 Q182.246 552.265 185.301 547.682 Q188.38 543.075 194.19 543.075 Z" fill="#000000" fill-rule="nonzero" fill-opacity="1" /><path clip-path="url(#clip570)" d="M194.19 214.58 Q190.579 214.58 188.75 218.145 Q186.945 221.686 186.945 228.816 Q186.945 235.922 188.75 239.487 Q190.579 243.029 194.19 243.029 Q197.825 243.029 199.63 239.487 Q201.459 235.922 201.459 228.816 Q201.459 221.686 199.63 218.145 Q197.825 214.58 194.19 214.58 M194.19 210.876 Q200 210.876 203.056 215.483 Q206.135 220.066 206.135 228.816 Q206.135 237.543 203.056 242.149 Q200 246.732 194.19 246.732 Q188.38 246.732 185.301 242.149 Q182.246 237.543 182.246 228.816 Q182.246 220.066 185.301 215.483 Q188.38 210.876 194.19 210.876 Z" fill="#000000" fill-rule="nonzero" fill-opacity="1" /><path clip-path="url(#clip570)" d="M16.4842 816.375 L16.4842 786.329 L21.895 786.329 L21.895 809.945 L35.9632 809.945 L35.9632 787.315 L41.3741 787.315 L41.3741 809.945 L58.5933 809.945 L58.5933 785.756 L64.0042 785.756 L64.0042 816.375 L16.4842 816.375 Z" fill="#000000" fill-rule="nonzero" fill-opacity="1" /><path clip-path="url(#clip570)" d="M16.4842 775.189 L16.4842 768.759 L58.5933 768.759 L58.5933 745.62 L64.0042 745.62 L64.0042 775.189 L16.4842 775.189 Z" fill="#000000" fill-rule="nonzero" fill-opacity="1" /><path clip-path="url(#clip570)" d="M41.3104 732.443 L58.7206 732.443 L58.7206 722.13 Q58.7206 716.942 56.5881 714.46 Q54.4238 711.945 49.9996 711.945 Q45.5436 711.945 43.4429 714.46 Q41.3104 716.942 41.3104 722.13 L41.3104 732.443 M21.7677 732.443 L36.0905 732.443 L36.0905 722.926 Q36.0905 718.216 34.34 715.924 Q32.5576 713.6 28.9291 713.6 Q25.3325 713.6 23.5501 715.924 Q21.7677 718.216 21.7677 722.926 L21.7677 732.443 M16.4842 738.872 L16.4842 722.449 Q16.4842 715.096 19.5397 711.118 Q22.5952 707.139 28.2289 707.139 Q32.5894 707.139 35.1675 709.176 Q37.7456 711.213 38.3822 715.16 Q39.4007 710.418 42.6472 707.808 Q45.8619 705.166 50.6998 705.166 Q57.0655 705.166 60.5348 709.495 Q64.0042 713.823 64.0042 721.812 L64.0042 738.872 L16.4842 738.872 Z" fill="#000000" fill-rule="nonzero" fill-opacity="1" /><path clip-path="url(#clip570)" d="M20.8447 676.011 Q20.8447 683.013 26.0645 687.151 Q31.2844 691.257 40.2919 691.257 Q49.2675 691.257 54.4874 687.151 Q59.7073 683.013 59.7073 676.011 Q59.7073 669.009 54.4874 664.935 Q49.2675 660.829 40.2919 660.829 Q31.2844 660.829 26.0645 664.935 Q20.8447 669.009 20.8447 676.011 M15.6248 676.011 Q15.6248 666.017 22.3406 660.033 Q29.0246 654.049 40.2919 654.049 Q51.5274 654.049 58.2432 660.033 Q64.9272 666.017 64.9272 676.011 Q64.9272 686.037 58.2432 692.052 Q51.5592 698.036 40.2919 698.036 Q29.0246 698.036 22.3406 692.052 Q15.6248 686.037 15.6248 676.011 Z" fill="#000000" fill-rule="nonzero" fill-opacity="1" /><polyline clip-path="url(#clip572)" style="stroke:#009af9; stroke-linecap:round; stroke-linejoin:round; stroke-width:4; stroke-opacity:1; fill:none" points="301.869,557.03 303.862,750.086 305.856,586.03 307.849,703.724 309.842,790.757 311.835,647.333 313.828,1206.65 315.821,769.107 317.814,852.846 319.808,696.676 321.801,1029.52 323.794,1004.56 325.787,506.731 327.78,912.182 329.773,680.607 331.766,639.329 333.76,661.79 335.753,522.982 337.746,322.924 339.739,729.852 341.732,683.828 343.725,550.176 345.718,896.22 347.712,555.231 349.705,428.443 351.698,804.135 353.691,792.03 355.684,677.241 357.677,601.081 359.67,727.618 361.664,858.371 363.657,405.94 365.65,715.06 367.643,929.082 369.636,435.569 371.629,477.466 373.622,734.035 375.616,422.288 377.609,1260.31 379.602,445.013 381.595,444.431 383.588,983.549 385.581,736.582 387.574,353.892 389.568,804.175 391.561,1022.19 393.554,604.037 395.547,491.462 397.54,852.068 399.533,553.563 401.526,596.966 403.52,779.607 405.513,436.044 407.506,943.922 409.499,498.806 411.492,755.442 413.485,931.356 415.479,1249.17 417.472,714.092 419.465,299.703 421.458,768.607 423.451,280.161 425.444,543.58 427.437,670.171 429.431,386.086 431.424,294.467 433.417,918.394 435.41,621.854 437.403,645.65 439.396,603.932 441.389,688.641 443.383,460.108 445.376,766.989 447.369,489.411 449.362,444.836 451.355,477.207 453.348,841.36 455.341,436.861 457.335,388.154 459.328,703.41 461.321,501.045 463.314,360.687 465.307,726.816 467.3,519.88 469.293,403.462 471.287,668.58 473.28,535.142 475.273,364.514 477.266,221.301 479.259,226.931 481.252,545.167 483.245,578.308 485.239,657.963 487.232,399.602 489.225,374.549 491.218,350.905 493.211,348.79 495.204,314.686 497.197,760.756 499.191,710.569 501.184,324.811 503.177,645.975 505.17,574.182 507.163,536.948 509.156,401.744 511.149,634.624 513.143,396.373 515.136,566.615 517.129,278.505 519.122,414.082 521.115,475.862 523.108,306.587 525.101,434.235 527.095,317.034 529.088,387.405 531.081,406.784 533.074,523.683 535.067,686.371 537.06,296.102 539.054,284.289 541.047,664.838 543.04,358.104 545.033,312.574 547.026,707.979 549.019,308.557 551.012,263.273 553.006,339.798 554.999,523.324 556.992,557.123 558.985,202.032 560.978,436.067 562.971,278.226 564.964,291.565 566.958,216.651 568.951,231.183 570.944,233.648 572.937,277.393 574.93,406.168 576.923,360.714 578.916,505.487 580.91,338.32 582.903,231.948 584.896,99.1012 586.889,260.585 588.882,373.044 590.875,329.086 592.868,553.845 594.862,352.227 596.855,542.23 598.848,439.339 600.841,297.954 602.834,468.709 604.827,206.096 606.82,271.167 608.814,360.109 610.807,242.405 612.8,129.448 614.793,184.155 616.786,300.696 618.779,224.246 620.772,371.853 622.766,496.237 624.759,423.152 626.752,361.164 628.745,324.091 630.738,108.697 632.731,244.594 634.724,331.283 636.718,501.766 638.711,470.913 640.704,238.142 642.697,423.448 644.69,387.373 646.683,479.348 648.677,339.84 650.67,177.893 652.663,354.388 654.656,305.021 656.649,629.462 658.642,256.205 660.635,492.931 662.629,332.046 664.622,285.093 666.615,311.464 668.608,308.205 670.601,182.387 672.594,263.754 674.587,296.477 676.581,248.325 678.574,202.082 680.567,287.42 682.56,339.068 684.553,310.521 686.546,298.044 688.539,378.275 690.533,549.109 692.526,214.855 694.519,232.06 696.512,238.381 698.505,162.208 700.498,546.049 702.491,340.964 704.485,245.461 706.478,326.931 708.471,345.143 710.464,287.079 712.457,250.234 714.45,363.641 716.443,318.961 718.437,272.597 720.43,185.717 722.423,131.932 724.416,283.995 726.409,128.282 728.402,205.793 730.395,166.66 732.389,302.045 734.382,190.182 736.375,280.133 738.368,477.612 740.361,154.797 742.354,182.039 744.347,255.81 746.341,179.712 748.334,235.872 750.327,211.437 752.32,336.221 754.313,234.54 756.306,286.094 758.299,208.774 760.293,136.399 762.286,192.683 764.279,244.986 766.272,232.294 768.265,208.097 770.258,435.456 772.252,275.357 774.245,193.212 776.238,198.724 778.231,336.899 780.224,231.077 782.217,213.953 784.21,355.926 786.204,172.068 788.197,139.113 790.19,257.731 792.183,236.514 794.176,290.472 796.169,346.004 798.162,129.825 800.156,548.97 802.149,213.635 804.142,318.886 806.135,255.727 808.128,300.094 810.121,285.614 812.114,150.994 814.108,225.72 816.101,464.578 818.094,264.045 820.087,274.706 822.08,418.681 824.073,149.964 826.066,213.55 828.06,275.716 830.053,250.088 832.046,267.029 834.039,154.566 836.032,392.207 838.025,256.459 840.018,219.224 842.012,323.684 844.005,378.46 845.998,125.696 847.991,156.541 849.984,160.398 851.977,182.627 853.97,183.672 855.964,373.232 857.957,255.404 859.95,330.078 861.943,247.794 863.936,201.773 865.929,243.562 867.922,242.055 869.916,333.421 871.909,196.573 873.902,384.157 875.895,190.379 877.888,315.397 879.881,381.757 881.874,305.838 883.868,306.589 885.861,294.534 887.854,156.85 889.847,105.794 891.84,246.194 893.833,142.266 895.827,134.809 897.82,328.093 899.813,172.212 901.806,206.955 903.799,246.159 905.792,197.361 907.785,251.318 909.779,167.406 911.772,124.137 913.765,219.581 915.758,368.855 917.751,189.584 919.744,131.797 921.737,187.853 923.731,242.802 925.724,160.773 927.717,140.313 929.71,214.628 931.703,231.508 933.696,301.237 935.689,304.759 937.683,241.939 939.676,192.173 941.669,373.961 943.662,168.297 945.655,277.75 947.648,181.461 949.641,349.876 951.635,119.066 953.628,274.374 955.621,246.652 957.614,197.885 959.607,250.514 961.6,318.323 963.593,314.545 965.587,387.43 967.58,349.735 969.573,147.183 971.566,201.751 973.559,474.302 975.552,317.128 977.545,259.456 979.539,203.304 981.532,217.418 983.525,252.816 985.518,190.003 987.511,181.355 989.504,126.442 991.497,277.451 993.491,331.387 995.484,294.135 997.477,267.583 999.47,227.681 1001.46,248.486 1003.46,247.348 1005.45,303.124 1007.44,188.195 1009.44,213.342 1011.43,177.416 1013.42,183.459 1015.42,232.697 1017.41,170.102 1019.4,181.382 1021.39,115.868 1023.39,210.239 1025.38,292.178 1027.37,403.342 1029.37,167.87 1031.36,206.546 1033.35,213.413 1035.35,177.525 1037.34,261.77 1039.33,359.082 1041.33,374.244 1043.32,236.225 1045.31,561.219 1047.31,260.153 1049.3,216.169 1051.29,181.031 1053.28,120.578 1055.28,145.283 1057.27,273.591 1059.26,202.548 1061.26,178.84 1063.25,285.319 1065.24,288.757 1067.24,399.872 1069.23,238.634 1071.22,483.068 1073.22,292.594 1075.21,120.251 1077.2,139.146 1079.2,330.907 1081.19,190.119 1083.18,231.739 1085.18,192.524 1087.17,86.1857 1089.16,102.832 1091.15,182.757 1093.15,98.9228 1095.14,229.07 1097.13,166.002 1099.13,144.173 1101.12,186.822 1103.11,165.004 1105.11,218.142 1107.1,154.855 1109.09,104.492 1111.09,155.247 1113.08,256.49 1115.07,254.93 1117.07,328.885 1119.06,145.298 1121.05,268.041 1123.05,208.946 1125.04,193.853 1127.03,89.5979 1129.02,110.144 1131.02,310.485 1133.01,147.249 1135,210.439 1137,135.194 1138.99,269.904 1140.98,200.617 1142.98,111.818 1144.97,172.625 1146.96,229.108 1148.96,259.249 1150.95,339.828 1152.94,187.718 1154.94,215.215 1156.93,389.517 1158.92,368.964 1160.91,239.226 1162.91,296.333 1164.9,472.363 1166.89,219.354 1168.89,147.547 1170.88,144.287 1172.87,189.254 1174.87,292.249 1176.86,218.969 1178.85,249.482 1180.85,219.239 1182.84,204.976 1184.83,131.527 1186.83,215.214 1188.82,194.255 1190.81,129.529 1192.81,110.648 1194.8,155.503 1196.79,175.863 1198.78,198.501 1200.78,418.966 1202.77,309.142 1204.76,224.515 1206.76,143.943 1208.75,117.92 1210.74,203.074 1212.74,165.305 1214.73,154.136 1216.72,260.935 1218.72,284.425 1220.71,249.014 1222.7,584.98 1224.7,186.36 1226.69,225.805 1228.68,201.853 1230.67,162.705 1232.67,120.826 1234.66,327.409 1236.65,183.658 1238.65,193.827 1240.64,371.603 1242.63,210.968 1244.63,251.359 1246.62,131.076 1248.61,285.981 1250.61,214.847 1252.6,406.498 1254.59,296.516 1256.59,300.192 1258.58,173.989 1260.57,217.62 1262.57,369.135 1264.56,192.324 1266.55,218.056 1268.54,361.144 1270.54,164.35 1272.53,186.765 1274.52,123.474 1276.52,152.278 1278.51,237.447 1280.5,254.506 1282.5,220.321 1284.49,152.601 1286.48,308.939 1288.48,316.358 1290.47,170.733 1292.46,200.342 1294.46,278.65 1296.45,129.719 1298.44,179.83 1300.44,238.615 1302.43,136.32 1304.42,174.642 1306.41,115.938 1308.41,265.772 1310.4,303.392 1312.39,382.348 1314.39,382.866 1316.38,259.193 1318.37,157.766 1320.37,162.685 1322.36,261.765 1324.35,200 1326.35,269.738 1328.34,167.397 1330.33,162.203 1332.33,164.167 1334.32,288.203 1336.31,105.923 1338.3,184.069 1340.3,299.553 1342.29,225.043 1344.28,271.571 1346.28,244.42 1348.27,281.943 1350.26,218.37 1352.26,171.644 1354.25,233.588 1356.24,264.994 1358.24,206.259 1360.23,228.279 1362.22,124.076 1364.22,211.887 1366.21,190.375 1368.2,157.813 1370.2,256.724 1372.19,169.105 1374.18,298.707 1376.17,180.823 1378.17,265.393 1380.16,203.857 1382.15,274.65 1384.15,165.884 1386.14,143.66 1388.13,97.447 1390.13,200.005 1392.12,184.652 1394.11,117.043 1396.11,373.509 1398.1,225.951 1400.09,120.53 1402.09,220.726 1404.08,349.925 1406.07,164.945 1408.06,178.013 1410.06,210.608 1412.05,165.362 1414.04,173.228 1416.04,230.613 1418.03,189.519 1420.02,347.437 1422.02,253.094 1424.01,113.56 1426,200.673 1428,104.095 1429.99,182.843 1431.98,279.605 1433.98,343.277 1435.97,343.609 1437.96,214.852 1439.96,157.907 1441.95,380.325 1443.94,240.029 1445.93,251.137 1447.93,309.4 1449.92,174.771 1451.91,278.006 1453.91,372.812 1455.9,166.882 1457.89,370.416 1459.89,189.138 1461.88,237.793 1463.87,342.986 1465.87,228.062 1467.86,152.295 1469.85,224.422 1471.85,578.988 1473.84,285.127 1475.83,165.35 1477.82,408.093 1479.82,234.266 1481.81,125.142 1483.8,213.736 1485.8,200.213 1487.79,202.224 1489.78,207.239 1491.78,161.75 1493.77,278.088 1495.76,412.697 1497.76,312.603 1499.75,125.331 1501.74,139.922 1503.74,175.318 1505.73,381.589 1507.72,348.543 1509.72,177.312 1511.71,179.017 1513.7,309.366 1515.69,205.882 1517.69,289.903 1519.68,414.343 1521.67,243.251 1523.67,350.194 1525.66,239.336 1527.65,218.74 1529.65,212.119 1531.64,103.125 1533.63,357.363 1535.63,400.051 1537.62,206.367 1539.61,210.977 1541.61,192.686 1543.6,225.152 1545.59,259.914 1547.59,300.9 1549.58,232.77 1551.57,124.086 1553.56,176.172 1555.56,156.34 1557.55,402.88 1559.54,193.646 1561.54,255.28 1563.53,179.896 1565.52,273.98 1567.52,143.506 1569.51,294.767 1571.5,162.843 1573.5,261.381 1575.49,161.528 1577.48,368.815 1579.48,162.594 1581.47,161.629 1583.46,161.441 1585.45,341.402 1587.45,299.871 1589.44,150.175 1591.43,285.406 1593.43,187.033 1595.42,256.986 1597.41,233.026 1599.41,193.864 1601.4,144.542 1603.39,287.147 1605.39,348.993 1607.38,270.995 1609.37,271.336 1611.37,161.674 1613.36,129.278 1615.35,208.259 1617.35,225.539 1619.34,360.499 1621.33,232.769 1623.32,294.843 1625.32,204.919 1627.31,108.276 1629.3,309.427 1631.3,143.707 1633.29,227.459 1635.28,303.86 1637.28,200.463 1639.27,210.508 1641.26,275.565 1643.26,207.791 1645.25,146.081 1647.24,312.49 1649.24,250.687 1651.23,151.346 1653.22,293.483 1655.21,177.363 1657.21,358.497 1659.2,200.233 1661.19,310.811 1663.19,211.341 1665.18,340.7 1667.17,189.005 1669.17,251.224 1671.16,125.648 1673.15,282.952 1675.15,354.901 1677.14,256.395 1679.13,209.305 1681.13,296.599 1683.12,190.355 1685.11,163.812 1687.11,246.041 1689.1,205.361 1691.09,281.473 1693.08,232.537 1695.08,257.602 1697.07,184.97 1699.06,144.469 1701.06,285.051 1703.05,353.823 1705.04,282.617 1707.04,207.259 1709.03,212.362 1711.02,215.464 1713.02,200.898 1715.01,206.101 1717,276.733 1719,281.856 1720.99,172.158 1722.98,314.383 1724.97,154.054 1726.97,220.051 1728.96,161.793 1730.95,245.569 1732.95,160.356 1734.94,233.834 1736.93,278.515 1738.93,263.073 1740.92,160.008 1742.91,211.931 1744.91,276.559 1746.9,200.579 1748.89,278.155 1750.89,290.387 1752.88,157.127 1754.87,230.034 1756.87,215.435 1758.86,350.1 1760.85,233.985 1762.84,155.088 1764.84,194.546 1766.83,107.238 1768.82,212.769 1770.82,258.616 1772.81,157.283 1774.8,154.913 1776.8,206.598 1778.79,148.43 1780.78,269.276 1782.78,221.883 1784.77,270.198 1786.76,424.982 1788.76,180.826 1790.75,137.549 1792.74,233.682 1794.74,312.978 1796.73,155.428 1798.72,204.541 1800.71,201.759 1802.71,187.798 1804.7,162.025 1806.69,130.283 1808.69,321.187 1810.68,279.419 1812.67,161.769 1814.67,210.278 1816.66,220.684 1818.65,339.878 1820.65,172.792 1822.64,160.471 1824.63,281.052 1826.63,219.63 1828.62,205.554 1830.61,359.427 1832.6,198.575 1834.6,230.351 1836.59,326.666 1838.58,313.559 1840.58,292.103 1842.57,191.989 1844.56,185.629 1846.56,207.959 1848.55,198.056 1850.54,263.13 1852.54,288.047 1854.53,252.15 1856.52,184.326 1858.52,237.072 1860.51,225.356 1862.5,236.957 1864.5,187.106 1866.49,236.89 1868.48,465.549 1870.47,253.391 1872.47,106.39 1874.46,289.68 1876.45,349.169 1878.45,230.46 1880.44,175.608 1882.43,385.327 1884.43,255.405 1886.42,130.653 1888.41,226.899 1890.41,152.503 1892.4,309.85 1894.39,192.911 1896.39,155.605 1898.38,228.639 1900.37,215.408 1902.36,135.92 1904.36,319.312 1906.35,346.649 1908.34,138.358 1910.34,215.745 1912.33,430.826 1914.32,318.559 1916.32,238.514 1918.31,208.766 1920.3,160.318 1922.3,244.62 1924.29,169.981 1926.28,165.644 1928.28,236.104 1930.27,191.157 1932.26,252.393 1934.26,196.722 1936.25,160.756 1938.24,217.185 1940.23,207.034 1942.23,460.273 1944.22,264.774 1946.21,311.731 1948.21,160.416 1950.2,165.948 1952.19,221.752 1954.19,132.024 1956.18,195.686 1958.17,200.156 1960.17,161.113 1962.16,332.28 1964.15,249.311 1966.15,192.767 1968.14,325.203 1970.13,306.915 1972.12,119.439 1974.12,210.805 1976.11,138.425 1978.1,213.068 1980.1,255.972 1982.09,144.818 1984.08,195.766 1986.08,150.121 1988.07,488.502 1990.06,166.015 1992.06,150.337 1994.05,251.021 1996.04,165.319 1998.04,322.965 2000.03,111.319 2002.02,163.737 2004.02,329.87 2006.01,204.416 2008,218.451 2009.99,172.094 2011.99,136.484 2013.98,267.548 2015.97,238.222 2017.97,166.952 2019.96,360.976 2021.95,160.21 2023.95,352.306 2025.94,146.674 2027.93,183.561 2029.93,224.45 2031.92,156.477 2033.91,199.073 2035.91,295.52 2037.9,290.92 2039.89,266.939 2041.89,277.594 2043.88,212.462 2045.87,173.666 2047.86,290.409 2049.86,254.008 2051.85,213.067 2053.84,196.299 2055.84,153.492 2057.83,190.15 2059.82,273.179 2061.82,144.714 2063.81,340.731 2065.8,136.704 2067.8,131.607 2069.79,234.203 2071.78,318.528 2073.78,188.399 2075.77,344.385 2077.76,178.268 2079.75,261.791 2081.75,328.232 2083.74,235.201 2085.73,212.483 2087.73,383.617 2089.72,197.583 2091.71,194.99 2093.71,163.84 2095.7,540.934 2097.69,171.408 2099.69,230.281 2101.68,168.088 2103.67,116.298 2105.67,308.518 2107.66,370.455 2109.65,204.118 2111.65,187.347 2113.64,243.103 2115.63,179.536 2117.62,221.12 2119.62,328.038 2121.61,278.27 2123.6,325.852 2125.6,235.082 2127.59,319.169 2129.58,192.757 2131.58,262.483 2133.57,224.73 2135.56,200.042 2137.56,252.286 2139.55,162.962 2141.54,144.896 2143.54,145.393 2145.53,268.822 2147.52,220.853 2149.51,368.303 2151.51,135.796 2153.5,229.083 2155.49,446.817 2157.49,345.999 2159.48,205.186 2161.47,211.803 2163.47,212.662 2165.46,182.6 2167.45,276.584 2169.45,282.913 2171.44,373.153 2173.43,235.168 2175.43,201.11 2177.42,242.029 2179.41,200.468 2181.41,301.854 2183.4,191.729 2185.39,265.395 2187.38,140.287 2189.38,155.528 2191.37,236.276 2193.36,269.028 2195.36,191.67 2197.35,407.523 2199.34,148.596 2201.34,170.268 2203.33,161.457 2205.32,255.16 2207.32,239.201 2209.31,177.744 2211.3,133.925 2213.3,297.437 2215.29,199.438 2217.28,223.376 2219.27,189.875 2221.27,170.58 2223.26,258.922 2225.25,219.453 2227.25,166.62 2229.24,202.296 2231.23,253.054 2233.23,303.516 2235.22,335.438 2237.21,390.177 2239.21,178.196 2241.2,203.079 2243.19,399.657 2245.19,228.88 2247.18,188.268 2249.17,232.179 2251.17,251.36 2253.16,188.408 2255.15,301.509 2257.14,175.401 2259.14,218.458 2261.13,221.559 2263.12,215.159 2265.12,234.294 2267.11,254.289 2269.1,208.467 2271.1,227.929 2273.09,206.782 2275.08,426.27 2277.08,351.759 2279.07,107.768 2281.06,252.1 2283.06,387.856 2285.05,192.286 2287.04,183.131 2289.04,279.789 2291.03,247.526 2293.02,153.888 "/>
<polyline clip-path="url(#clip572)" style="stroke:#e26f46; stroke-linecap:round; stroke-linejoin:round; stroke-width:4; stroke-opacity:1; fill:none" points="301.869,1384.24 303.862,702.121 305.856,925.834 307.849,628.718 309.842,953.25 311.835,731.958 313.828,1080.24 315.821,942.911 317.814,973.191 319.808,647.143 321.801,951.902 323.794,918.031 325.787,742.929 327.78,1146.2 329.773,1071.75 331.766,1016.49 333.76,465.347 335.753,751.494 337.746,593.981 339.739,606.081 341.732,464.218 343.725,449.522 345.718,551.135 347.712,847.924 349.705,639.198 351.698,687.263 353.691,582.747 355.684,425.265 357.677,615.631 359.67,846.353 361.664,775.435 363.657,554.783 365.65,720.503 367.643,879.862 369.636,609.944 371.629,586.595 373.622,605.958 375.616,826.242 377.609,694.839 379.602,711.348 381.595,662.03 383.588,693.193 385.581,880.121 387.574,694.086 389.568,339.19 391.561,882.573 393.554,524.563 395.547,693.138 397.54,461.794 399.533,482.129 401.526,644.522 403.52,474.64 405.513,463.478 407.506,640.056 409.499,314.721 411.492,680.921 413.485,659.608 415.479,485.443 417.472,541.832 419.465,599.954 421.458,623.612 423.451,543.784 425.444,485.843 427.437,819.838 429.431,445.339 431.424,453.544 433.417,438.569 435.41,573.866 437.403,619.755 439.396,525.045 441.389,638.016 443.383,778.172 445.376,423.822 447.369,278.158 449.362,586.668 451.355,739.221 453.348,302.632 455.341,438.399 457.335,591.43 459.328,451.494 461.321,523.544 463.314,505.401 465.307,705.278 467.3,735.832 469.293,296.439 471.287,392.617 473.28,358.154 475.273,370.542 477.266,383.078 479.259,437.378 481.252,394.153 483.245,688.952 485.239,322.478 487.232,355.561 489.225,530.908 491.218,375.679 493.211,214.51 495.204,503.851 497.197,577.977 499.191,536.457 501.184,383.612 503.177,431.806 505.17,333.181 507.163,251.292 509.156,362.506 511.149,341.076 513.143,552.766 515.136,409.828 517.129,494.09 519.122,653.687 521.115,371.525 523.108,444.413 525.101,455.332 527.095,537.219 529.088,586.001 531.081,316.672 533.074,418.532 535.067,381.315 537.06,303.363 539.054,258.823 541.047,405.866 543.04,398.18 545.033,305 547.026,504.082 549.019,475.955 551.012,470.093 553.006,285.727 554.999,418.911 556.992,350.989 558.985,418.84 560.978,303.355 562.971,408.398 564.964,272.451 566.958,282.347 568.951,422.02 570.944,479.272 572.937,438.135 574.93,248.183 576.923,384.291 578.916,324.333 580.91,340.888 582.903,358.936 584.896,292.896 586.889,229.786 588.882,326.833 590.875,355.58 592.868,374.538 594.862,482.632 596.855,284.048 598.848,355.836 600.841,369.045 602.834,358.761 604.827,256.75 606.82,238.661 608.814,380.587 610.807,234.151 612.8,240.985 614.793,398 616.786,187.799 618.779,399.486 620.772,240.372 622.766,263.071 624.759,345.362 626.752,319.305 628.745,202.003 630.738,207.773 632.731,142.945 634.724,354.675 636.718,229.169 638.711,289.608 640.704,280.628 642.697,337.998 644.69,336.091 646.683,329.324 648.677,175.119 650.67,217.752 652.663,472.614 654.656,367.809 656.649,279.91 658.642,283.815 660.635,222.663 662.629,377.289 664.622,297.007 666.615,298.732 668.608,360.833 670.601,334.905 672.594,269.235 674.587,329.97 676.581,341.442 678.574,151.688 680.567,271.692 682.56,384.872 684.553,292.441 686.546,252.023 688.539,242.743 690.533,247.486 692.526,365.04 694.519,244.411 696.512,203.4 698.505,268.243 700.498,208.357 702.491,247.113 704.485,302.905 706.478,377.321 708.471,319.138 710.464,232.851 712.457,287.772 714.45,244.054 716.443,218.806 718.437,192.555 720.43,203.484 722.423,292.726 724.416,315.291 726.409,275.931 728.402,217.327 730.395,283.269 732.389,367.799 734.382,260.809 736.375,171.479 738.368,244.64 740.361,250.163 742.354,250.59 744.347,241.374 746.341,213.487 748.334,222.844 750.327,236.95 752.32,257.474 754.313,254.951 756.306,190.235 758.299,190.496 760.293,182.659 762.286,258.5 764.279,270.326 766.272,199.802 768.265,227.988 770.258,223.726 772.252,211.797 774.245,248.352 776.238,213.592 778.231,191.571 780.224,241.356 782.217,249.626 784.21,236.818 786.204,259.088 788.197,251.03 790.19,295.245 792.183,214.371 794.176,234.294 796.169,199.819 798.162,265.303 800.156,257.832 802.149,235.283 804.142,247.8 806.135,252.107 808.128,244.578 810.121,216.092 812.114,261.991 814.108,253.28 816.101,230.908 818.094,270.979 820.087,258.01 822.08,263.417 824.073,227.314 826.066,236.915 828.06,213.947 830.053,268.78 832.046,203.547 834.039,234.722 836.032,271.647 838.025,241.34 840.018,252.541 842.012,214.036 844.005,234.77 845.998,192.863 847.991,198.511 849.984,240.406 851.977,215.17 853.97,246.426 855.964,190.859 857.957,222.991 859.95,269.488 861.943,242.453 863.936,183.398 865.929,230.742 867.922,247.223 869.916,207.962 871.909,246.682 873.902,225.892 875.895,233.97 877.888,234.18 879.881,278.597 881.874,240.661 883.868,266.307 885.861,233.548 887.854,219.228 889.847,233.063 891.84,238.628 893.833,220.732 895.827,260.077 897.82,232.746 899.813,239.369 901.806,255.647 903.799,232.339 905.792,262.533 907.785,250.016 909.779,256.859 911.772,195.402 913.765,224.99 915.758,239.491 917.751,232.45 919.744,214.785 921.737,244.678 923.731,255.795 925.724,213.888 927.717,194.008 929.71,242.245 931.703,220.758 933.696,240.714 935.689,263.515 937.683,219.725 939.676,255.39 941.669,224.578 943.662,246.256 945.655,216.764 947.648,221.461 949.641,237.516 951.635,225.968 953.628,217.813 955.621,241.542 957.614,243.343 959.607,239.511 961.6,226.078 963.593,231.99 965.587,256.096 967.58,237.348 969.573,234.976 971.566,215.192 973.559,232.574 975.552,233.803 977.545,216.52 979.539,220.774 981.532,239.112 983.525,239.151 985.518,219.702 987.511,235.803 989.504,231.542 991.497,225.44 993.491,237.153 995.484,226.258 997.477,228.555 999.47,226.03 1001.46,216.874 1003.46,220.702 1005.45,222.832 1007.44,246.695 1009.44,230.549 1011.43,220.416 1013.42,225.792 1015.42,228.286 1017.41,249.991 1019.4,236.842 1021.39,221.029 1023.39,223.938 1025.38,227.417 1027.37,231.853 1029.37,224.871 1031.36,236.723 1033.35,236.175 1035.35,244.347 1037.34,221.764 1039.33,227.375 1041.33,241.928 1043.32,235.806 1045.31,231.316 1047.31,224.335 1049.3,223.748 1051.29,232.894 1053.28,232.873 1055.28,217.113 1057.27,224.448 1059.26,240.019 1061.26,219.381 1063.25,227.585 1065.24,222.321 1067.24,226.287 1069.23,234.376 1071.22,228.959 1073.22,227.996 1075.21,229.871 1077.2,227.071 1079.2,221.837 1081.19,227.261 1083.18,221.47 1085.18,234.654 1087.17,229.431 1089.16,234.683 1091.15,223.346 1093.15,236.807 1095.14,223.432 1097.13,237.836 1099.13,218.802 1101.12,227.585 1103.11,238.435 1105.11,226.44 1107.1,224.222 1109.09,232.156 1111.09,231.463 1113.08,229.582 1115.07,232.376 1117.07,232.361 1119.06,221.433 1121.05,230.869 1123.05,232.55 1125.04,231.371 1127.03,235.367 1129.02,224.24 1131.02,219.157 1133.01,222.6 1135,225.699 1137,228.616 1138.99,232.86 1140.98,229.845 1142.98,227.268 1144.97,234.362 1146.96,223.545 1148.96,219.808 1150.95,229.711 1152.94,232.656 1154.94,231.693 1156.93,231.174 1158.92,231.219 1160.91,228.435 1162.91,230.295 1164.9,230.401 1166.89,228.164 1168.89,234.707 1170.88,231.368 1172.87,225.354 1174.87,229.841 1176.86,226.506 1178.85,229.957 1180.85,228.892 1182.84,233.324 1184.83,229.511 1186.83,228.756 1188.82,225.802 1190.81,224.109 1192.81,231.024 1194.8,228.099 1196.79,228.614 1198.78,228.549 1200.78,227.643 1202.77,225.179 1204.76,231.221 1206.76,231.87 1208.75,233.472 1210.74,225.055 1212.74,231.061 1214.73,235.169 1216.72,231.17 1218.72,227.871 1220.71,229.602 1222.7,228.645 1224.7,225.401 1226.69,229.981 1228.68,229.318 1230.67,226.635 1232.67,230.208 1234.66,227.318 1236.65,232.314 1238.65,227.29 1240.64,227.381 1242.63,227.618 1244.63,230.351 1246.62,231.563 1248.61,227.684 1250.61,230.325 1252.6,228.035 1254.59,231.524 1256.59,228.203 1258.58,227.734 1260.57,226.697 1262.57,230.059 1264.56,228.603 1266.55,229.5 1268.54,228.939 1270.54,228.033 1272.53,229.923 1274.52,230.897 1276.52,231.281 1278.51,227.368 1280.5,231.044 1282.5,230.987 1284.49,229.411 1286.48,224.821 1288.48,227.373 1290.47,227.573 1292.46,228.907 1294.46,226.629 1296.45,229.657 1298.44,230.456 1300.44,229.982 1302.43,227.093 1304.42,226.474 1306.41,227.058 1308.41,230.312 1310.4,229.83 1312.39,227.361 1314.39,228.306 1316.38,226.201 1318.37,229.973 1320.37,228.66 1322.36,228.39 1324.35,227.513 1326.35,229.253 1328.34,229.559 1330.33,230.292 1332.33,229.809 1334.32,228.471 1336.31,228.565 1338.3,229.926 1340.3,227.523 1342.29,227.027 1344.28,228.334 1346.28,229.512 1348.27,228.538 1350.26,227.826 1352.26,228.781 1354.25,226.999 1356.24,229.938 1358.24,228.585 1360.23,229.46 1362.22,228.915 1364.22,227.55 1366.21,228.724 1368.2,229.093 1370.2,227.969 1372.19,229.391 1374.18,229.481 1376.17,228.646 1378.17,228.322 1380.16,228.728 1382.15,227.645 1384.15,229.046 1386.14,228.922 1388.13,228.926 1390.13,228.344 1392.12,228.318 1394.11,228.757 1396.11,229.23 1398.1,228.086 1400.09,229.035 1402.09,228.384 1404.08,228.864 1406.07,228.429 1408.06,228.795 1410.06,228.992 1412.05,228.451 1414.04,229.308 1416.04,229.078 1418.03,228.978 1420.02,228.285 1422.02,229.035 1424.01,228.36 1426,228.578 1428,228.871 1429.99,228.372 1431.98,229.058 1433.98,228.461 1435.97,229.007 1437.96,229.235 1439.96,229.318 1441.95,229.001 1443.94,228.77 1445.93,228.596 1447.93,228.32 1449.92,228.844 1451.91,229.255 1453.91,228.942 1455.9,229.272 1457.89,229.013 1459.89,229.224 1461.88,228.672 1463.87,228.656 1465.87,228.476 1467.86,228.977 1469.85,229.007 1471.85,228.368 1473.84,228.827 1475.83,228.577 1477.82,228.835 1479.82,229.206 1481.81,228.558 1483.8,228.492 1485.8,228.619 1487.79,228.918 1489.78,228.924 1491.78,228.379 1493.77,228.746 1495.76,228.872 1497.76,228.742 1499.75,228.919 1501.74,228.975 1503.74,228.877 1505.73,228.937 1507.72,228.737 1509.72,228.784 1511.71,229.034 1513.7,228.785 1515.69,228.809 1517.69,228.911 1519.68,228.968 1521.67,228.521 1523.67,228.84 1525.66,228.693 1527.65,228.846 1529.65,228.786 1531.64,228.582 1533.63,228.792 1535.63,228.955 1537.62,228.65 1539.61,228.702 1541.61,228.727 1543.6,228.857 1545.59,228.888 1547.59,228.861 1549.58,228.742 1551.57,228.947 1553.56,228.756 1555.56,228.689 1557.55,228.805 1559.54,229.005 1561.54,228.674 1563.53,228.783 1565.52,228.538 1567.52,228.848 1569.51,228.917 1571.5,229.041 1573.5,228.713 1575.49,228.719 1577.48,228.865 1579.48,228.792 1581.47,228.901 1583.46,228.887 1585.45,228.672 1587.45,228.685 1589.44,228.907 1591.43,228.731 1593.43,228.659 1595.42,228.732 1597.41,228.615 1599.41,228.766 1601.4,228.802 1603.39,228.724 1605.39,228.787 1607.38,228.74 1609.37,228.793 1611.37,228.642 1613.36,228.926 1615.35,228.754 1617.35,228.741 1619.34,228.782 1621.33,228.673 1623.32,228.668 1625.32,228.81 1627.31,228.922 1629.3,228.806 1631.3,228.918 1633.29,228.801 1635.28,228.76 1637.28,228.808 1639.27,228.71 1641.26,228.722 1643.26,228.684 1645.25,228.789 1647.24,228.83 1649.24,228.762 1651.23,228.796 1653.22,228.771 1655.21,228.807 1657.21,228.76 1659.2,228.842 1661.19,228.722 1663.19,228.789 1665.18,228.764 1667.17,228.807 1669.17,228.776 1671.16,228.764 1673.15,228.796 1675.15,228.784 1677.14,228.808 1679.13,228.733 1681.13,228.821 1683.12,228.742 1685.11,228.807 1687.11,228.783 1689.1,228.79 1691.09,228.706 1693.08,228.821 1695.08,228.798 1697.07,228.747 1699.06,228.741 1701.06,228.774 1703.05,228.756 1705.04,228.787 1707.04,228.791 1709.03,228.782 1711.02,228.828 1713.02,228.744 1715.01,228.756 1717,228.795 1719,228.798 1720.99,228.796 1722.98,228.778 1724.97,228.782 1726.97,228.752 1728.96,228.81 1730.95,228.781 1732.95,228.732 1734.94,228.762 1736.93,228.805 1738.93,228.789 1740.92,228.769 1742.91,228.788 1744.91,228.778 1746.9,228.784 1748.89,228.779 1750.89,228.776 1752.88,228.755 1754.87,228.776 1756.87,228.794 1758.86,228.765 1760.85,228.766 1762.84,228.772 1764.84,228.766 1766.83,228.766 1768.82,228.781 1770.82,228.768 1772.81,228.773 1774.8,228.796 1776.8,228.771 1778.79,228.768 1780.78,228.761 1782.78,228.788 1784.77,228.798 1786.76,228.757 1788.76,228.784 1790.75,228.775 1792.74,228.773 1794.74,228.788 1796.73,228.794 1798.72,228.796 1800.71,228.781 1802.71,228.791 1804.7,228.783 1806.69,228.778 1808.69,228.792 1810.68,228.793 1812.67,228.771 1814.67,228.777 1816.66,228.789 1818.65,228.775 1820.65,228.776 1822.64,228.786 1824.63,228.78 1826.63,228.795 1828.62,228.772 1830.61,228.776 1832.6,228.794 1834.6,228.778 1836.59,228.788 1838.58,228.784 1840.58,228.779 1842.57,228.783 1844.56,228.771 1846.56,228.781 1848.55,228.788 1850.54,228.78 1852.54,228.788 1854.53,228.776 1856.52,228.776 1858.52,228.784 1860.51,228.778 1862.5,228.776 1864.5,228.781 1866.49,228.779 1868.48,228.775 1870.47,228.784 1872.47,228.777 1874.46,228.783 1876.45,228.785 1878.45,228.788 1880.44,228.785 1882.43,228.784 1884.43,228.79 1886.42,228.783 1888.41,228.783 1890.41,228.779 1892.4,228.78 1894.39,228.782 1896.39,228.778 1898.38,228.781 1900.37,228.779 1902.36,228.778 1904.36,228.778 1906.35,228.782 1908.34,228.781 1910.34,228.783 1912.33,228.781 1914.32,228.776 1916.32,228.779 1918.31,228.784 1920.3,228.782 1922.3,228.78 1924.29,228.781 1926.28,228.784 1928.28,228.783 1930.27,228.779 1932.26,228.783 1934.26,228.779 1936.25,228.778 1938.24,228.78 1940.23,228.784 1942.23,228.781 1944.22,228.781 1946.21,228.781 1948.21,228.782 1950.2,228.782 1952.19,228.781 1954.19,228.78 1956.18,228.782 1958.17,228.781 1960.17,228.779 1962.16,228.781 1964.15,228.782 1966.15,228.78 1968.14,228.782 1970.13,228.783 1972.12,228.781 1974.12,228.78 1976.11,228.779 1978.1,228.781 1980.1,228.78 1982.09,228.782 1984.08,228.783 1986.08,228.782 1988.07,228.781 1990.06,228.783 1992.06,228.781 1994.05,228.782 1996.04,228.782 1998.04,228.781 2000.03,228.782 2002.02,228.781 2004.02,228.782 2006.01,228.782 2008,228.781 2009.99,228.781 2011.99,228.781 2013.98,228.781 2015.97,228.781 2017.97,228.78 2019.96,228.781 2021.95,228.782 2023.95,228.781 2025.94,228.782 2027.93,228.781 2029.93,228.781 2031.92,228.78 2033.91,228.782 2035.91,228.781 2037.9,228.781 2039.89,228.781 2041.89,228.781 2043.88,228.781 2045.87,228.78 2047.86,228.781 2049.86,228.781 2051.85,228.781 2053.84,228.781 2055.84,228.781 2057.83,228.781 2059.82,228.78 2061.82,228.781 2063.81,228.781 2065.8,228.781 2067.8,228.781 2069.79,228.781 2071.78,228.781 2073.78,228.781 2075.77,228.781 2077.76,228.781 2079.75,228.781 2081.75,228.781 2083.74,228.781 2085.73,228.781 2087.73,228.781 2089.72,228.781 2091.71,228.781 2093.71,228.781 2095.7,228.781 2097.69,228.781 2099.69,228.781 2101.68,228.781 2103.67,228.781 2105.67,228.781 2107.66,228.781 2109.65,228.781 2111.65,228.781 2113.64,228.781 2115.63,228.781 2117.62,228.781 2119.62,228.781 2121.61,228.781 2123.6,228.781 2125.6,228.781 2127.59,228.781 2129.58,228.781 2131.58,228.781 2133.57,228.781 2135.56,228.781 2137.56,228.781 2139.55,228.781 2141.54,228.781 2143.54,228.781 2145.53,228.781 2147.52,228.781 2149.51,228.781 2151.51,228.781 2153.5,228.781 2155.49,228.781 2157.49,228.781 2159.48,228.781 2161.47,228.781 2163.47,228.781 2165.46,228.781 2167.45,228.781 2169.45,228.781 2171.44,228.781 2173.43,228.781 2175.43,228.781 2177.42,228.781 2179.41,228.781 2181.41,228.781 2183.4,228.781 2185.39,228.781 2187.38,228.781 2189.38,228.781 2191.37,228.781 2193.36,228.781 2195.36,228.781 2197.35,228.781 2199.34,228.781 2201.34,228.781 2203.33,228.781 2205.32,228.781 2207.32,228.781 2209.31,228.781 2211.3,228.781 2213.3,228.781 2215.29,228.781 2217.28,228.781 2219.27,228.781 2221.27,228.781 2223.26,228.781 2225.25,228.781 2227.25,228.781 2229.24,228.781 2231.23,228.781 2233.23,228.781 2235.22,228.781 2237.21,228.781 2239.21,228.781 2241.2,228.781 2243.19,228.781 2245.19,228.781 2247.18,228.781 2249.17,228.781 2251.17,228.781 2253.16,228.781 2255.15,228.781 2257.14,228.781 2259.14,228.781 2261.13,228.781 2263.12,228.781 2265.12,228.781 2267.11,228.781 2269.1,228.781 2271.1,228.781 2273.09,228.781 2275.08,228.781 2277.08,228.781 2279.07,228.781 2281.06,228.781 2283.06,228.781 2285.05,228.781 2287.04,228.781 2289.04,228.781 2291.03,228.781 2293.02,228.781 "/>
<path clip-path="url(#clip570)" d="M1863.63 1377.32 L2282.4 1377.32 L2282.4 1221.8 L1863.63 1221.8  Z" fill="#ffffff" fill-rule="evenodd" fill-opacity="1"/>
<polyline clip-path="url(#clip570)" style="stroke:#000000; stroke-linecap:round; stroke-linejoin:round; stroke-width:4; stroke-opacity:1; fill:none" points="1863.63,1377.32 2282.4,1377.32 2282.4,1221.8 1863.63,1221.8 1863.63,1377.32 "/>
<polyline clip-path="url(#clip570)" style="stroke:#009af9; stroke-linecap:round; stroke-linejoin:round; stroke-width:4; stroke-opacity:1; fill:none" points="1887.08,1273.64 2027.79,1273.64 "/>
<path clip-path="url(#clip570)" d="M2055.92 1274.41 L2055.92 1287.07 L2063.42 1287.07 Q2067.19 1287.07 2069 1285.52 Q2070.83 1283.95 2070.83 1280.73 Q2070.83 1277.49 2069 1275.96 Q2067.19 1274.41 2063.42 1274.41 L2055.92 1274.41 M2055.92 1260.2 L2055.92 1270.61 L2062.84 1270.61 Q2066.27 1270.61 2067.93 1269.34 Q2069.62 1268.05 2069.62 1265.41 Q2069.62 1262.79 2067.93 1261.49 Q2066.27 1260.2 2062.84 1260.2 L2055.92 1260.2 M2051.24 1256.36 L2063.19 1256.36 Q2068.53 1256.36 2071.43 1258.58 Q2074.32 1260.8 2074.32 1264.9 Q2074.32 1268.07 2072.84 1269.94 Q2071.36 1271.82 2068.49 1272.28 Q2071.94 1273.02 2073.84 1275.38 Q2075.76 1277.72 2075.76 1281.24 Q2075.76 1285.87 2072.61 1288.39 Q2069.46 1290.92 2063.65 1290.92 L2051.24 1290.92 L2051.24 1256.36 Z" fill="#000000" fill-rule="nonzero" fill-opacity="1" /><path clip-path="url(#clip570)" d="M2088.44 1274.41 L2088.44 1287.07 L2095.94 1287.07 Q2099.72 1287.07 2101.52 1285.52 Q2103.35 1283.95 2103.35 1280.73 Q2103.35 1277.49 2101.52 1275.96 Q2099.72 1274.41 2095.94 1274.41 L2088.44 1274.41 M2088.44 1260.2 L2088.44 1270.61 L2095.36 1270.61 Q2098.79 1270.61 2100.46 1269.34 Q2102.15 1268.05 2102.15 1265.41 Q2102.15 1262.79 2100.46 1261.49 Q2098.79 1260.2 2095.36 1260.2 L2088.44 1260.2 M2083.77 1256.36 L2095.71 1256.36 Q2101.06 1256.36 2103.95 1258.58 Q2106.84 1260.8 2106.84 1264.9 Q2106.84 1268.07 2105.36 1269.94 Q2103.88 1271.82 2101.01 1272.28 Q2104.46 1273.02 2106.36 1275.38 Q2108.28 1277.72 2108.28 1281.24 Q2108.28 1285.87 2105.13 1288.39 Q2101.98 1290.92 2096.17 1290.92 L2083.77 1290.92 L2083.77 1256.36 Z" fill="#000000" fill-rule="nonzero" fill-opacity="1" /><path clip-path="url(#clip570)" d="M2123.74 1290.92 L2110.55 1256.36 L2115.43 1256.36 L2126.38 1285.45 L2137.35 1256.36 L2142.22 1256.36 L2129.04 1290.92 L2123.74 1290.92 Z" fill="#000000" fill-rule="nonzero" fill-opacity="1" /><path clip-path="url(#clip570)" d="M2147.26 1256.36 L2151.94 1256.36 L2151.94 1290.92 L2147.26 1290.92 L2147.26 1256.36 Z" fill="#000000" fill-rule="nonzero" fill-opacity="1" /><path clip-path="url(#clip570)" d="M2202.19 1259.02 L2202.19 1263.95 Q2199.83 1261.75 2197.15 1260.66 Q2194.48 1259.57 2191.47 1259.57 Q2185.55 1259.57 2182.4 1263.21 Q2179.25 1266.82 2179.25 1273.67 Q2179.25 1280.5 2182.4 1284.13 Q2185.55 1287.74 2191.47 1287.74 Q2194.48 1287.74 2197.15 1286.66 Q2199.83 1285.57 2202.19 1283.37 L2202.19 1288.25 Q2199.74 1289.92 2196.98 1290.75 Q2194.25 1291.59 2191.2 1291.59 Q2183.35 1291.59 2178.84 1286.79 Q2174.32 1281.98 2174.32 1273.67 Q2174.32 1265.34 2178.84 1260.55 Q2183.35 1255.73 2191.2 1255.73 Q2194.3 1255.73 2197.03 1256.56 Q2199.78 1257.37 2202.19 1259.02 Z" fill="#000000" fill-rule="nonzero" fill-opacity="1" /><path clip-path="url(#clip570)" d="M2209.41 1256.36 L2229.27 1256.36 L2229.27 1260.29 L2214.09 1260.29 L2214.09 1270.48 L2227.79 1270.48 L2227.79 1274.41 L2214.09 1274.41 L2214.09 1290.92 L2209.41 1290.92 L2209.41 1256.36 Z" fill="#000000" fill-rule="nonzero" fill-opacity="1" /><path clip-path="url(#clip570)" d="M2236.68 1256.36 L2258.53 1256.36 L2258.53 1260.29 L2241.36 1260.29 L2241.36 1270.52 L2257.82 1270.52 L2257.82 1274.46 L2241.36 1274.46 L2241.36 1286.98 L2258.95 1286.98 L2258.95 1290.92 L2236.68 1290.92 L2236.68 1256.36 Z" fill="#000000" fill-rule="nonzero" fill-opacity="1" /><polyline clip-path="url(#clip570)" style="stroke:#e26f46; stroke-linecap:round; stroke-linejoin:round; stroke-width:4; stroke-opacity:1; fill:none" points="1887.08,1325.48 2027.79,1325.48 "/>
<path clip-path="url(#clip570)" d="M2055.92 1326.25 L2055.92 1338.91 L2063.42 1338.91 Q2067.19 1338.91 2069 1337.36 Q2070.83 1335.79 2070.83 1332.57 Q2070.83 1329.33 2069 1327.8 Q2067.19 1326.25 2063.42 1326.25 L2055.92 1326.25 M2055.92 1312.04 L2055.92 1322.45 L2062.84 1322.45 Q2066.27 1322.45 2067.93 1321.18 Q2069.62 1319.89 2069.62 1317.25 Q2069.62 1314.63 2067.93 1313.33 Q2066.27 1312.04 2062.84 1312.04 L2055.92 1312.04 M2051.24 1308.2 L2063.19 1308.2 Q2068.53 1308.2 2071.43 1310.42 Q2074.32 1312.64 2074.32 1316.74 Q2074.32 1319.91 2072.84 1321.78 Q2071.36 1323.66 2068.49 1324.12 Q2071.94 1324.86 2073.84 1327.22 Q2075.76 1329.56 2075.76 1333.08 Q2075.76 1337.71 2072.61 1340.23 Q2069.46 1342.76 2063.65 1342.76 L2051.24 1342.76 L2051.24 1308.2 Z" fill="#000000" fill-rule="nonzero" fill-opacity="1" /><path clip-path="url(#clip570)" d="M2088.44 1326.25 L2088.44 1338.91 L2095.94 1338.91 Q2099.72 1338.91 2101.52 1337.36 Q2103.35 1335.79 2103.35 1332.57 Q2103.35 1329.33 2101.52 1327.8 Q2099.72 1326.25 2095.94 1326.25 L2088.44 1326.25 M2088.44 1312.04 L2088.44 1322.45 L2095.36 1322.45 Q2098.79 1322.45 2100.46 1321.18 Q2102.15 1319.89 2102.15 1317.25 Q2102.15 1314.63 2100.46 1313.33 Q2098.79 1312.04 2095.36 1312.04 L2088.44 1312.04 M2083.77 1308.2 L2095.71 1308.2 Q2101.06 1308.2 2103.95 1310.42 Q2106.84 1312.64 2106.84 1316.74 Q2106.84 1319.91 2105.36 1321.78 Q2103.88 1323.66 2101.01 1324.12 Q2104.46 1324.86 2106.36 1327.22 Q2108.28 1329.56 2108.28 1333.08 Q2108.28 1337.71 2105.13 1340.23 Q2101.98 1342.76 2096.17 1342.76 L2083.77 1342.76 L2083.77 1308.2 Z" fill="#000000" fill-rule="nonzero" fill-opacity="1" /><path clip-path="url(#clip570)" d="M2123.74 1342.76 L2110.55 1308.2 L2115.43 1308.2 L2126.38 1337.29 L2137.35 1308.2 L2142.22 1308.2 L2129.04 1342.76 L2123.74 1342.76 Z" fill="#000000" fill-rule="nonzero" fill-opacity="1" /><path clip-path="url(#clip570)" d="M2147.26 1308.2 L2151.94 1308.2 L2151.94 1342.76 L2147.26 1342.76 L2147.26 1308.2 Z" fill="#000000" fill-rule="nonzero" fill-opacity="1" /><path clip-path="url(#clip570)" d="M2197.03 1309.33 L2197.03 1313.89 Q2194.37 1312.62 2192.01 1311.99 Q2189.65 1311.37 2187.45 1311.37 Q2183.63 1311.37 2181.54 1312.85 Q2179.48 1314.33 2179.48 1317.06 Q2179.48 1319.35 2180.85 1320.53 Q2182.24 1321.69 2186.08 1322.41 L2188.9 1322.99 Q2194.14 1323.98 2196.61 1326.51 Q2199.11 1329.01 2199.11 1333.22 Q2199.11 1338.24 2195.73 1340.83 Q2192.38 1343.43 2185.87 1343.43 Q2183.42 1343.43 2180.64 1342.87 Q2177.89 1342.32 2174.92 1341.23 L2174.92 1336.41 Q2177.77 1338.01 2180.5 1338.82 Q2183.23 1339.63 2185.87 1339.63 Q2189.88 1339.63 2192.05 1338.06 Q2194.23 1336.48 2194.23 1333.57 Q2194.23 1331.02 2192.65 1329.58 Q2191.1 1328.15 2187.54 1327.43 L2184.69 1326.88 Q2179.46 1325.83 2177.12 1323.61 Q2174.78 1321.39 2174.78 1317.43 Q2174.78 1312.85 2178 1310.21 Q2181.24 1307.57 2186.91 1307.57 Q2189.34 1307.57 2191.87 1308.01 Q2194.39 1308.45 2197.03 1309.33 Z" fill="#000000" fill-rule="nonzero" fill-opacity="1" /><path clip-path="url(#clip570)" d="M2201.61 1308.2 L2230.85 1308.2 L2230.85 1312.13 L2218.58 1312.13 L2218.58 1342.76 L2213.88 1342.76 L2213.88 1312.13 L2201.61 1312.13 L2201.61 1308.2 Z" fill="#000000" fill-rule="nonzero" fill-opacity="1" /><path clip-path="url(#clip570)" d="M2235.36 1308.2 L2240.04 1308.2 L2240.04 1338.82 L2256.87 1338.82 L2256.87 1342.76 L2235.36 1342.76 L2235.36 1308.2 Z" fill="#000000" fill-rule="nonzero" fill-opacity="1" /></svg>
