<?xml version="1.0" encoding="utf-8"?>
<svg xmlns="http://www.w3.org/2000/svg" xmlns:xlink="http://www.w3.org/1999/xlink" width="600" height="400" viewBox="0 0 2400 1600">
<defs>
  <clipPath id="clip510">
    <rect x="0" y="0" width="2400" height="1600"/>
  </clipPath>
</defs>
<path clip-path="url(#clip510)" d="M0 1600 L2400 1600 L2400 0 L0 0  Z" fill="#ffffff" fill-rule="evenodd" fill-opacity="1"/>
<defs>
  <clipPath id="clip511">
    <rect x="251" y="47" width="2102" height="1377"/>
  </clipPath>
</defs>
<path clip-path="url(#clip510)" d="M242.135 1423.18 L2352.76 1423.18 L2352.76 47.2441 L242.135 47.2441  Z" fill="#ffffff" fill-rule="evenodd" fill-opacity="1"/>
<defs>
  <clipPath id="clip512">
    <rect x="242" y="47" width="2112" height="1377"/>
  </clipPath>
</defs>
<polyline clip-path="url(#clip512)" style="stroke:#000000; stroke-linecap:round; stroke-linejoin:round; stroke-width:2; stroke-opacity:0.1; fill:none" points="299.876,1423.18 299.876,47.2441 "/>
<polyline clip-path="url(#clip512)" style="stroke:#000000; stroke-linecap:round; stroke-linejoin:round; stroke-width:2; stroke-opacity:0.1; fill:none" points="798.162,1423.18 798.162,47.2441 "/>
<polyline clip-path="url(#clip512)" style="stroke:#000000; stroke-linecap:round; stroke-linejoin:round; stroke-width:2; stroke-opacity:0.1; fill:none" points="1296.45,1423.18 1296.45,47.2441 "/>
<polyline clip-path="url(#clip512)" style="stroke:#000000; stroke-linecap:round; stroke-linejoin:round; stroke-width:2; stroke-opacity:0.1; fill:none" points="1794.74,1423.18 1794.74,47.2441 "/>
<polyline clip-path="url(#clip512)" style="stroke:#000000; stroke-linecap:round; stroke-linejoin:round; stroke-width:2; stroke-opacity:0.1; fill:none" points="2293.02,1423.18 2293.02,47.2441 "/>
<polyline clip-path="url(#clip512)" style="stroke:#000000; stroke-linecap:round; stroke-linejoin:round; stroke-width:2; stroke-opacity:0.1; fill:none" points="242.135,1399.98 2352.76,1399.98 "/>
<polyline clip-path="url(#clip512)" style="stroke:#000000; stroke-linecap:round; stroke-linejoin:round; stroke-width:2; stroke-opacity:0.1; fill:none" points="242.135,1015.82 2352.76,1015.82 "/>
<polyline clip-path="url(#clip512)" style="stroke:#000000; stroke-linecap:round; stroke-linejoin:round; stroke-width:2; stroke-opacity:0.1; fill:none" points="242.135,631.66 2352.76,631.66 "/>
<polyline clip-path="url(#clip512)" style="stroke:#000000; stroke-linecap:round; stroke-linejoin:round; stroke-width:2; stroke-opacity:0.1; fill:none" points="242.135,247.498 2352.76,247.498 "/>
<polyline clip-path="url(#clip510)" style="stroke:#000000; stroke-linecap:round; stroke-linejoin:round; stroke-width:4; stroke-opacity:1; fill:none" points="242.135,1423.18 2352.76,1423.18 "/>
<polyline clip-path="url(#clip510)" style="stroke:#000000; stroke-linecap:round; stroke-linejoin:round; stroke-width:4; stroke-opacity:1; fill:none" points="299.876,1423.18 299.876,1404.28 "/>
<polyline clip-path="url(#clip510)" style="stroke:#000000; stroke-linecap:round; stroke-linejoin:round; stroke-width:4; stroke-opacity:1; fill:none" points="798.162,1423.18 798.162,1404.28 "/>
<polyline clip-path="url(#clip510)" style="stroke:#000000; stroke-linecap:round; stroke-linejoin:round; stroke-width:4; stroke-opacity:1; fill:none" points="1296.45,1423.18 1296.45,1404.28 "/>
<polyline clip-path="url(#clip510)" style="stroke:#000000; stroke-linecap:round; stroke-linejoin:round; stroke-width:4; stroke-opacity:1; fill:none" points="1794.74,1423.18 1794.74,1404.28 "/>
<polyline clip-path="url(#clip510)" style="stroke:#000000; stroke-linecap:round; stroke-linejoin:round; stroke-width:4; stroke-opacity:1; fill:none" points="2293.02,1423.18 2293.02,1404.28 "/>
<path clip-path="url(#clip510)" d="M299.876 1454.1 Q296.265 1454.1 294.436 1457.66 Q292.631 1461.2 292.631 1468.33 Q292.631 1475.44 294.436 1479.01 Q296.265 1482.55 299.876 1482.55 Q303.51 1482.55 305.316 1479.01 Q307.145 1475.44 307.145 1468.33 Q307.145 1461.2 305.316 1457.66 Q303.51 1454.1 299.876 1454.1 M299.876 1450.39 Q305.686 1450.39 308.742 1455 Q311.82 1459.58 311.82 1468.33 Q311.82 1477.06 308.742 1481.67 Q305.686 1486.25 299.876 1486.25 Q294.066 1486.25 290.987 1481.67 Q287.932 1477.06 287.932 1468.33 Q287.932 1459.58 290.987 1455 Q294.066 1450.39 299.876 1450.39 Z" fill="#000000" fill-rule="nonzero" fill-opacity="1" /><path clip-path="url(#clip510)" d="M761.855 1481.64 L778.174 1481.64 L778.174 1485.58 L756.23 1485.58 L756.23 1481.64 Q758.892 1478.89 763.475 1474.26 Q768.082 1469.61 769.262 1468.27 Q771.507 1465.74 772.387 1464.01 Q773.29 1462.25 773.29 1460.56 Q773.29 1457.8 771.345 1456.07 Q769.424 1454.33 766.322 1454.33 Q764.123 1454.33 761.67 1455.09 Q759.239 1455.86 756.461 1457.41 L756.461 1452.69 Q759.285 1451.55 761.739 1450.97 Q764.193 1450.39 766.23 1450.39 Q771.6 1450.39 774.794 1453.08 Q777.989 1455.77 777.989 1460.26 Q777.989 1462.39 777.179 1464.31 Q776.392 1466.2 774.285 1468.8 Q773.707 1469.47 770.605 1472.69 Q767.503 1475.88 761.855 1481.64 Z" fill="#000000" fill-rule="nonzero" fill-opacity="1" /><path clip-path="url(#clip510)" d="M788.035 1451.02 L806.392 1451.02 L806.392 1454.96 L792.318 1454.96 L792.318 1463.43 Q793.336 1463.08 794.355 1462.92 Q795.373 1462.73 796.392 1462.73 Q802.179 1462.73 805.558 1465.9 Q808.938 1469.08 808.938 1474.49 Q808.938 1480.07 805.466 1483.17 Q801.993 1486.25 795.674 1486.25 Q793.498 1486.25 791.23 1485.88 Q788.984 1485.51 786.577 1484.77 L786.577 1480.07 Q788.66 1481.2 790.882 1481.76 Q793.105 1482.32 795.581 1482.32 Q799.586 1482.32 801.924 1480.21 Q804.262 1478.1 804.262 1474.49 Q804.262 1470.88 801.924 1468.77 Q799.586 1466.67 795.581 1466.67 Q793.706 1466.67 791.831 1467.08 Q789.98 1467.5 788.035 1468.38 L788.035 1451.02 Z" fill="#000000" fill-rule="nonzero" fill-opacity="1" /><path clip-path="url(#clip510)" d="M828.151 1454.1 Q824.54 1454.1 822.711 1457.66 Q820.905 1461.2 820.905 1468.33 Q820.905 1475.44 822.711 1479.01 Q824.54 1482.55 828.151 1482.55 Q831.785 1482.55 833.59 1479.01 Q835.419 1475.44 835.419 1468.33 Q835.419 1461.2 833.59 1457.66 Q831.785 1454.1 828.151 1454.1 M828.151 1450.39 Q833.961 1450.39 837.016 1455 Q840.095 1459.58 840.095 1468.33 Q840.095 1477.06 837.016 1481.67 Q833.961 1486.25 828.151 1486.25 Q822.341 1486.25 819.262 1481.67 Q816.206 1477.06 816.206 1468.33 Q816.206 1459.58 819.262 1455 Q822.341 1450.39 828.151 1450.39 Z" fill="#000000" fill-rule="nonzero" fill-opacity="1" /><path clip-path="url(#clip510)" d="M1256.07 1451.02 L1274.42 1451.02 L1274.42 1454.96 L1260.35 1454.96 L1260.35 1463.43 Q1261.37 1463.08 1262.39 1462.92 Q1263.4 1462.73 1264.42 1462.73 Q1270.21 1462.73 1273.59 1465.9 Q1276.97 1469.08 1276.97 1474.49 Q1276.97 1480.07 1273.5 1483.17 Q1270.03 1486.25 1263.71 1486.25 Q1261.53 1486.25 1259.26 1485.88 Q1257.02 1485.51 1254.61 1484.77 L1254.61 1480.07 Q1256.69 1481.2 1258.91 1481.76 Q1261.14 1482.32 1263.61 1482.32 Q1267.62 1482.32 1269.96 1480.21 Q1272.29 1478.1 1272.29 1474.49 Q1272.29 1470.88 1269.96 1468.77 Q1267.62 1466.67 1263.61 1466.67 Q1261.74 1466.67 1259.86 1467.08 Q1258.01 1467.5 1256.07 1468.38 L1256.07 1451.02 Z" fill="#000000" fill-rule="nonzero" fill-opacity="1" /><path clip-path="url(#clip510)" d="M1296.18 1454.1 Q1292.57 1454.1 1290.74 1457.66 Q1288.94 1461.2 1288.94 1468.33 Q1288.94 1475.44 1290.74 1479.01 Q1292.57 1482.55 1296.18 1482.55 Q1299.82 1482.55 1301.62 1479.01 Q1303.45 1475.44 1303.45 1468.33 Q1303.45 1461.2 1301.62 1457.66 Q1299.82 1454.1 1296.18 1454.1 M1296.18 1450.39 Q1301.99 1450.39 1305.05 1455 Q1308.13 1459.58 1308.13 1468.33 Q1308.13 1477.06 1305.05 1481.67 Q1301.99 1486.25 1296.18 1486.25 Q1290.37 1486.25 1287.29 1481.67 Q1284.24 1477.06 1284.24 1468.33 Q1284.24 1459.58 1287.29 1455 Q1290.37 1450.39 1296.18 1450.39 Z" fill="#000000" fill-rule="nonzero" fill-opacity="1" /><path clip-path="url(#clip510)" d="M1326.34 1454.1 Q1322.73 1454.1 1320.9 1457.66 Q1319.1 1461.2 1319.1 1468.33 Q1319.1 1475.44 1320.9 1479.01 Q1322.73 1482.55 1326.34 1482.55 Q1329.98 1482.55 1331.78 1479.01 Q1333.61 1475.44 1333.61 1468.33 Q1333.61 1461.2 1331.78 1457.66 Q1329.98 1454.1 1326.34 1454.1 M1326.34 1450.39 Q1332.15 1450.39 1335.21 1455 Q1338.29 1459.58 1338.29 1468.33 Q1338.29 1477.06 1335.21 1481.67 Q1332.15 1486.25 1326.34 1486.25 Q1320.53 1486.25 1317.46 1481.67 Q1314.4 1477.06 1314.4 1468.33 Q1314.4 1459.58 1317.46 1455 Q1320.53 1450.39 1326.34 1450.39 Z" fill="#000000" fill-rule="nonzero" fill-opacity="1" /><path clip-path="url(#clip510)" d="M1753.01 1451.02 L1775.23 1451.02 L1775.23 1453.01 L1762.69 1485.58 L1757.8 1485.58 L1769.61 1454.96 L1753.01 1454.96 L1753.01 1451.02 Z" fill="#000000" fill-rule="nonzero" fill-opacity="1" /><path clip-path="url(#clip510)" d="M1784.4 1451.02 L1802.76 1451.02 L1802.76 1454.96 L1788.68 1454.96 L1788.68 1463.43 Q1789.7 1463.08 1790.72 1462.92 Q1791.74 1462.73 1792.76 1462.73 Q1798.54 1462.73 1801.92 1465.9 Q1805.3 1469.08 1805.3 1474.49 Q1805.3 1480.07 1801.83 1483.17 Q1798.36 1486.25 1792.04 1486.25 Q1789.86 1486.25 1787.59 1485.88 Q1785.35 1485.51 1782.94 1484.77 L1782.94 1480.07 Q1785.02 1481.2 1787.25 1481.76 Q1789.47 1482.32 1791.95 1482.32 Q1795.95 1482.32 1798.29 1480.21 Q1800.63 1478.1 1800.63 1474.49 Q1800.63 1470.88 1798.29 1468.77 Q1795.95 1466.67 1791.95 1466.67 Q1790.07 1466.67 1788.2 1467.08 Q1786.34 1467.5 1784.4 1468.38 L1784.4 1451.02 Z" fill="#000000" fill-rule="nonzero" fill-opacity="1" /><path clip-path="url(#clip510)" d="M1824.51 1454.1 Q1820.9 1454.1 1819.08 1457.66 Q1817.27 1461.2 1817.27 1468.33 Q1817.27 1475.44 1819.08 1479.01 Q1820.9 1482.55 1824.51 1482.55 Q1828.15 1482.55 1829.95 1479.01 Q1831.78 1475.44 1831.78 1468.33 Q1831.78 1461.2 1829.95 1457.66 Q1828.15 1454.1 1824.51 1454.1 M1824.51 1450.39 Q1830.33 1450.39 1833.38 1455 Q1836.46 1459.58 1836.46 1468.33 Q1836.46 1477.06 1833.38 1481.67 Q1830.33 1486.25 1824.51 1486.25 Q1818.7 1486.25 1815.63 1481.67 Q1812.57 1477.06 1812.57 1468.33 Q1812.57 1459.58 1815.63 1455 Q1818.7 1450.39 1824.51 1450.39 Z" fill="#000000" fill-rule="nonzero" fill-opacity="1" /><path clip-path="url(#clip510)" d="M2237.55 1481.64 L2245.19 1481.64 L2245.19 1455.28 L2236.88 1456.95 L2236.88 1452.69 L2245.14 1451.02 L2249.82 1451.02 L2249.82 1481.64 L2257.45 1481.64 L2257.45 1485.58 L2237.55 1485.58 L2237.55 1481.64 Z" fill="#000000" fill-rule="nonzero" fill-opacity="1" /><path clip-path="url(#clip510)" d="M2276.9 1454.1 Q2273.29 1454.1 2271.46 1457.66 Q2269.65 1461.2 2269.65 1468.33 Q2269.65 1475.44 2271.46 1479.01 Q2273.29 1482.55 2276.9 1482.55 Q2280.53 1482.55 2282.34 1479.01 Q2284.17 1475.44 2284.17 1468.33 Q2284.17 1461.2 2282.34 1457.66 Q2280.53 1454.1 2276.9 1454.1 M2276.9 1450.39 Q2282.71 1450.39 2285.76 1455 Q2288.84 1459.58 2288.84 1468.33 Q2288.84 1477.06 2285.76 1481.67 Q2282.71 1486.25 2276.9 1486.25 Q2271.09 1486.25 2268.01 1481.67 Q2264.95 1477.06 2264.95 1468.33 Q2264.95 1459.58 2268.01 1455 Q2271.09 1450.39 2276.9 1450.39 Z" fill="#000000" fill-rule="nonzero" fill-opacity="1" /><path clip-path="url(#clip510)" d="M2307.06 1454.1 Q2303.45 1454.1 2301.62 1457.66 Q2299.82 1461.2 2299.82 1468.33 Q2299.82 1475.44 2301.62 1479.01 Q2303.45 1482.55 2307.06 1482.55 Q2310.69 1482.55 2312.5 1479.01 Q2314.33 1475.44 2314.33 1468.33 Q2314.33 1461.2 2312.5 1457.66 Q2310.69 1454.1 2307.06 1454.1 M2307.06 1450.39 Q2312.87 1450.39 2315.93 1455 Q2319 1459.58 2319 1468.33 Q2319 1477.06 2315.93 1481.67 Q2312.87 1486.25 2307.06 1486.25 Q2301.25 1486.25 2298.17 1481.67 Q2295.12 1477.06 2295.12 1468.33 Q2295.12 1459.58 2298.17 1455 Q2301.25 1450.39 2307.06 1450.39 Z" fill="#000000" fill-rule="nonzero" fill-opacity="1" /><path clip-path="url(#clip510)" d="M2337.22 1454.1 Q2333.61 1454.1 2331.78 1457.66 Q2329.98 1461.2 2329.98 1468.33 Q2329.98 1475.44 2331.78 1479.01 Q2333.61 1482.55 2337.22 1482.55 Q2340.86 1482.55 2342.66 1479.01 Q2344.49 1475.44 2344.49 1468.33 Q2344.49 1461.2 2342.66 1457.66 Q2340.86 1454.1 2337.22 1454.1 M2337.22 1450.39 Q2343.03 1450.39 2346.09 1455 Q2349.17 1459.58 2349.17 1468.33 Q2349.17 1477.06 2346.09 1481.67 Q2343.03 1486.25 2337.22 1486.25 Q2331.41 1486.25 2328.33 1481.67 Q2325.28 1477.06 2325.28 1468.33 Q2325.28 1459.58 2328.33 1455 Q2331.41 1450.39 2337.22 1450.39 Z" fill="#000000" fill-rule="nonzero" fill-opacity="1" /><path clip-path="url(#clip510)" d="M1165.17 1520.52 L1171.6 1520.52 L1171.6 1568.04 L1165.17 1568.04 L1165.17 1520.52 Z" fill="#000000" fill-rule="nonzero" fill-opacity="1" /><path clip-path="url(#clip510)" d="M1189.93 1522.27 L1189.93 1532.4 L1201.99 1532.4 L1201.99 1536.95 L1189.93 1536.95 L1189.93 1556.3 Q1189.93 1560.66 1191.11 1561.9 Q1192.32 1563.14 1195.98 1563.14 L1201.99 1563.14 L1201.99 1568.04 L1195.98 1568.04 Q1189.2 1568.04 1186.62 1565.53 Q1184.04 1562.98 1184.04 1556.3 L1184.04 1536.95 L1179.74 1536.95 L1179.74 1532.4 L1184.04 1532.4 L1184.04 1522.27 L1189.93 1522.27 Z" fill="#000000" fill-rule="nonzero" fill-opacity="1" /><path clip-path="url(#clip510)" d="M1240.19 1548.76 L1240.19 1551.62 L1213.26 1551.62 Q1213.64 1557.67 1216.89 1560.85 Q1220.17 1564 1225.99 1564 Q1229.36 1564 1232.52 1563.17 Q1235.7 1562.35 1238.82 1560.69 L1238.82 1566.23 Q1235.67 1567.57 1232.36 1568.27 Q1229.05 1568.97 1225.64 1568.97 Q1217.11 1568.97 1212.11 1564 Q1207.15 1559.04 1207.15 1550.57 Q1207.15 1541.82 1211.86 1536.69 Q1216.6 1531.54 1224.62 1531.54 Q1231.81 1531.54 1235.98 1536.18 Q1240.19 1540.8 1240.19 1548.76 M1234.33 1547.04 Q1234.27 1542.23 1231.62 1539.37 Q1229.01 1536.5 1224.69 1536.5 Q1219.78 1536.5 1216.82 1539.27 Q1213.9 1542.04 1213.45 1547.07 L1234.33 1547.04 Z" fill="#000000" fill-rule="nonzero" fill-opacity="1" /><path clip-path="url(#clip510)" d="M1270.45 1537.87 Q1269.47 1537.3 1268.29 1537.04 Q1267.14 1536.76 1265.74 1536.76 Q1260.78 1536.76 1258.11 1540 Q1255.46 1543.22 1255.46 1549.27 L1255.46 1568.04 L1249.58 1568.04 L1249.58 1532.4 L1255.46 1532.4 L1255.46 1537.93 Q1257.31 1534.69 1260.27 1533.13 Q1263.23 1531.54 1267.46 1531.54 Q1268.07 1531.54 1268.8 1531.63 Q1269.53 1531.7 1270.42 1531.85 L1270.45 1537.87 Z" fill="#000000" fill-rule="nonzero" fill-opacity="1" /><path clip-path="url(#clip510)" d="M1292.8 1550.12 Q1285.7 1550.12 1282.96 1551.75 Q1280.23 1553.37 1280.23 1557.29 Q1280.23 1560.4 1282.26 1562.25 Q1284.33 1564.07 1287.86 1564.07 Q1292.73 1564.07 1295.66 1560.63 Q1298.62 1557.16 1298.62 1551.43 L1298.62 1550.12 L1292.8 1550.12 M1304.48 1547.71 L1304.48 1568.04 L1298.62 1568.04 L1298.62 1562.63 Q1296.62 1565.88 1293.63 1567.44 Q1290.63 1568.97 1286.31 1568.97 Q1280.83 1568.97 1277.58 1565.91 Q1274.37 1562.82 1274.37 1557.67 Q1274.37 1551.65 1278.38 1548.6 Q1282.42 1545.54 1290.41 1545.54 L1298.62 1545.54 L1298.62 1544.97 Q1298.62 1540.93 1295.95 1538.73 Q1293.31 1536.5 1288.5 1536.5 Q1285.45 1536.5 1282.55 1537.23 Q1279.65 1537.97 1276.98 1539.43 L1276.98 1534.02 Q1280.19 1532.78 1283.22 1532.17 Q1286.24 1531.54 1289.11 1531.54 Q1296.84 1531.54 1300.66 1535.55 Q1304.48 1539.56 1304.48 1547.71 Z" fill="#000000" fill-rule="nonzero" fill-opacity="1" /><path clip-path="url(#clip510)" d="M1322.34 1522.27 L1322.34 1532.4 L1334.4 1532.4 L1334.4 1536.95 L1322.34 1536.95 L1322.34 1556.3 Q1322.34 1560.66 1323.51 1561.9 Q1324.72 1563.14 1328.38 1563.14 L1334.4 1563.14 L1334.4 1568.04 L1328.38 1568.04 Q1321.6 1568.04 1319.03 1565.53 Q1316.45 1562.98 1316.45 1556.3 L1316.45 1536.95 L1312.15 1536.95 L1312.15 1532.4 L1316.45 1532.4 L1316.45 1522.27 L1322.34 1522.27 Z" fill="#000000" fill-rule="nonzero" fill-opacity="1" /><path clip-path="url(#clip510)" d="M1342.1 1532.4 L1347.96 1532.4 L1347.96 1568.04 L1342.1 1568.04 L1342.1 1532.4 M1342.1 1518.52 L1347.96 1518.52 L1347.96 1525.93 L1342.1 1525.93 L1342.1 1518.52 Z" fill="#000000" fill-rule="nonzero" fill-opacity="1" /><path clip-path="url(#clip510)" d="M1374.02 1536.5 Q1369.31 1536.5 1366.58 1540.19 Q1363.84 1543.85 1363.84 1550.25 Q1363.84 1556.65 1366.55 1560.34 Q1369.28 1564 1374.02 1564 Q1378.7 1564 1381.44 1560.31 Q1384.18 1556.62 1384.18 1550.25 Q1384.18 1543.92 1381.44 1540.23 Q1378.7 1536.5 1374.02 1536.5 M1374.02 1531.54 Q1381.66 1531.54 1386.02 1536.5 Q1390.38 1541.47 1390.38 1550.25 Q1390.38 1559 1386.02 1564 Q1381.66 1568.97 1374.02 1568.97 Q1366.35 1568.97 1361.99 1564 Q1357.66 1559 1357.66 1550.25 Q1357.66 1541.47 1361.99 1536.5 Q1366.35 1531.54 1374.02 1531.54 Z" fill="#000000" fill-rule="nonzero" fill-opacity="1" /><path clip-path="url(#clip510)" d="M1429.72 1546.53 L1429.72 1568.04 L1423.87 1568.04 L1423.87 1546.72 Q1423.87 1541.66 1421.89 1539.14 Q1419.92 1536.63 1415.97 1536.63 Q1411.23 1536.63 1408.5 1539.65 Q1405.76 1542.68 1405.76 1547.9 L1405.76 1568.04 L1399.87 1568.04 L1399.87 1532.4 L1405.76 1532.4 L1405.76 1537.93 Q1407.86 1534.72 1410.69 1533.13 Q1413.56 1531.54 1417.28 1531.54 Q1423.42 1531.54 1426.57 1535.36 Q1429.72 1539.14 1429.72 1546.53 Z" fill="#000000" fill-rule="nonzero" fill-opacity="1" /><polyline clip-path="url(#clip510)" style="stroke:#000000; stroke-linecap:round; stroke-linejoin:round; stroke-width:4; stroke-opacity:1; fill:none" points="242.135,1423.18 242.135,47.2441 "/>
<polyline clip-path="url(#clip510)" style="stroke:#000000; stroke-linecap:round; stroke-linejoin:round; stroke-width:4; stroke-opacity:1; fill:none" points="242.135,1399.98 261.032,1399.98 "/>
<polyline clip-path="url(#clip510)" style="stroke:#000000; stroke-linecap:round; stroke-linejoin:round; stroke-width:4; stroke-opacity:1; fill:none" points="242.135,1015.82 261.032,1015.82 "/>
<polyline clip-path="url(#clip510)" style="stroke:#000000; stroke-linecap:round; stroke-linejoin:round; stroke-width:4; stroke-opacity:1; fill:none" points="242.135,631.66 261.032,631.66 "/>
<polyline clip-path="url(#clip510)" style="stroke:#000000; stroke-linecap:round; stroke-linejoin:round; stroke-width:4; stroke-opacity:1; fill:none" points="242.135,247.498 261.032,247.498 "/>
<path clip-path="url(#clip510)" d="M114.26 1400.43 L143.936 1400.43 L143.936 1404.37 L114.26 1404.37 L114.26 1400.43 Z" fill="#000000" fill-rule="nonzero" fill-opacity="1" /><path clip-path="url(#clip510)" d="M168.195 1398.63 Q171.552 1399.35 173.427 1401.62 Q175.325 1403.88 175.325 1407.22 Q175.325 1412.33 171.806 1415.13 Q168.288 1417.93 161.806 1417.93 Q159.63 1417.93 157.315 1417.5 Q155.024 1417.08 152.57 1416.22 L152.57 1411.71 Q154.515 1412.84 156.829 1413.42 Q159.144 1414 161.667 1414 Q166.065 1414 168.357 1412.26 Q170.672 1410.53 170.672 1407.22 Q170.672 1404.16 168.519 1402.45 Q166.39 1400.71 162.57 1400.71 L158.542 1400.71 L158.542 1396.87 L162.755 1396.87 Q166.204 1396.87 168.033 1395.5 Q169.862 1394.12 169.862 1391.52 Q169.862 1388.86 167.964 1387.45 Q166.089 1386.01 162.57 1386.01 Q160.649 1386.01 158.45 1386.43 Q156.251 1386.85 153.612 1387.73 L153.612 1383.56 Q156.274 1382.82 158.589 1382.45 Q160.927 1382.08 162.987 1382.08 Q168.311 1382.08 171.413 1384.51 Q174.514 1386.92 174.514 1391.04 Q174.514 1393.91 172.871 1395.9 Q171.227 1397.87 168.195 1398.63 Z" fill="#000000" fill-rule="nonzero" fill-opacity="1" /><path clip-path="url(#clip510)" d="M194.19 1385.78 Q190.579 1385.78 188.75 1389.35 Q186.945 1392.89 186.945 1400.02 Q186.945 1407.12 188.75 1410.69 Q190.579 1414.23 194.19 1414.23 Q197.825 1414.23 199.63 1410.69 Q201.459 1407.12 201.459 1400.02 Q201.459 1392.89 199.63 1389.35 Q197.825 1385.78 194.19 1385.78 M194.19 1382.08 Q200 1382.08 203.056 1386.69 Q206.135 1391.27 206.135 1400.02 Q206.135 1408.75 203.056 1413.35 Q200 1417.93 194.19 1417.93 Q188.38 1417.93 185.301 1413.35 Q182.246 1408.75 182.246 1400.02 Q182.246 1391.27 185.301 1386.69 Q188.38 1382.08 194.19 1382.08 Z" fill="#000000" fill-rule="nonzero" fill-opacity="1" /><path clip-path="url(#clip510)" d="M114.26 1016.27 L143.936 1016.27 L143.936 1020.21 L114.26 1020.21 L114.26 1016.27 Z" fill="#000000" fill-rule="nonzero" fill-opacity="1" /><path clip-path="url(#clip510)" d="M158.056 1029.17 L174.376 1029.17 L174.376 1033.1 L152.431 1033.1 L152.431 1029.17 Q155.093 1026.41 159.677 1021.78 Q164.283 1017.13 165.464 1015.79 Q167.709 1013.26 168.589 1011.53 Q169.491 1009.77 169.491 1008.08 Q169.491 1005.32 167.547 1003.59 Q165.626 1001.85 162.524 1001.85 Q160.325 1001.85 157.871 1002.62 Q155.44 1003.38 152.663 1004.93 L152.663 1000.21 Q155.487 999.074 157.94 998.496 Q160.394 997.917 162.431 997.917 Q167.802 997.917 170.996 1000.6 Q174.19 1003.29 174.19 1007.78 Q174.19 1009.91 173.38 1011.83 Q172.593 1013.73 170.487 1016.32 Q169.908 1016.99 166.806 1020.21 Q163.704 1023.4 158.056 1029.17 Z" fill="#000000" fill-rule="nonzero" fill-opacity="1" /><path clip-path="url(#clip510)" d="M194.19 1001.62 Q190.579 1001.62 188.75 1005.19 Q186.945 1008.73 186.945 1015.86 Q186.945 1022.96 188.75 1026.53 Q190.579 1030.07 194.19 1030.07 Q197.825 1030.07 199.63 1026.53 Q201.459 1022.96 201.459 1015.86 Q201.459 1008.73 199.63 1005.19 Q197.825 1001.62 194.19 1001.62 M194.19 997.917 Q200 997.917 203.056 1002.52 Q206.135 1007.11 206.135 1015.86 Q206.135 1024.58 203.056 1029.19 Q200 1033.77 194.19 1033.77 Q188.38 1033.77 185.301 1029.19 Q182.246 1024.58 182.246 1015.86 Q182.246 1007.11 185.301 1002.52 Q188.38 997.917 194.19 997.917 Z" fill="#000000" fill-rule="nonzero" fill-opacity="1" /><path clip-path="url(#clip510)" d="M114.26 632.111 L143.936 632.111 L143.936 636.047 L114.26 636.047 L114.26 632.111 Z" fill="#000000" fill-rule="nonzero" fill-opacity="1" /><path clip-path="url(#clip510)" d="M154.839 645.005 L162.477 645.005 L162.477 618.639 L154.167 620.306 L154.167 616.047 L162.431 614.38 L167.107 614.38 L167.107 645.005 L174.746 645.005 L174.746 648.94 L154.839 648.94 L154.839 645.005 Z" fill="#000000" fill-rule="nonzero" fill-opacity="1" /><path clip-path="url(#clip510)" d="M194.19 617.459 Q190.579 617.459 188.75 621.024 Q186.945 624.565 186.945 631.695 Q186.945 638.801 188.75 642.366 Q190.579 645.908 194.19 645.908 Q197.825 645.908 199.63 642.366 Q201.459 638.801 201.459 631.695 Q201.459 624.565 199.63 621.024 Q197.825 617.459 194.19 617.459 M194.19 613.755 Q200 613.755 203.056 618.362 Q206.135 622.945 206.135 631.695 Q206.135 640.422 203.056 645.028 Q200 649.611 194.19 649.611 Q188.38 649.611 185.301 645.028 Q182.246 640.422 182.246 631.695 Q182.246 622.945 185.301 618.362 Q188.38 613.755 194.19 613.755 Z" fill="#000000" fill-rule="nonzero" fill-opacity="1" /><path clip-path="url(#clip510)" d="M194.19 233.297 Q190.579 233.297 188.75 236.862 Q186.945 240.404 186.945 247.533 Q186.945 254.64 188.75 258.204 Q190.579 261.746 194.19 261.746 Q197.825 261.746 199.63 258.204 Q201.459 254.64 201.459 247.533 Q201.459 240.404 199.63 236.862 Q197.825 233.297 194.19 233.297 M194.19 229.593 Q200 229.593 203.056 234.2 Q206.135 238.783 206.135 247.533 Q206.135 256.26 203.056 260.866 Q200 265.45 194.19 265.45 Q188.38 265.45 185.301 260.866 Q182.246 256.26 182.246 247.533 Q182.246 238.783 185.301 234.2 Q188.38 229.593 194.19 229.593 Z" fill="#000000" fill-rule="nonzero" fill-opacity="1" /><path clip-path="url(#clip510)" d="M16.4842 816.375 L16.4842 786.329 L21.895 786.329 L21.895 809.945 L35.9632 809.945 L35.9632 787.315 L41.3741 787.315 L41.3741 809.945 L58.5933 809.945 L58.5933 785.756 L64.0042 785.756 L64.0042 816.375 L16.4842 816.375 Z" fill="#000000" fill-rule="nonzero" fill-opacity="1" /><path clip-path="url(#clip510)" d="M16.4842 775.189 L16.4842 768.759 L58.5933 768.759 L58.5933 745.62 L64.0042 745.62 L64.0042 775.189 L16.4842 775.189 Z" fill="#000000" fill-rule="nonzero" fill-opacity="1" /><path clip-path="url(#clip510)" d="M41.3104 732.443 L58.7206 732.443 L58.7206 722.13 Q58.7206 716.942 56.5881 714.46 Q54.4238 711.945 49.9996 711.945 Q45.5436 711.945 43.4429 714.46 Q41.3104 716.942 41.3104 722.13 L41.3104 732.443 M21.7677 732.443 L36.0905 732.443 L36.0905 722.926 Q36.0905 718.216 34.34 715.924 Q32.5576 713.6 28.9291 713.6 Q25.3325 713.6 23.5501 715.924 Q21.7677 718.216 21.7677 722.926 L21.7677 732.443 M16.4842 738.872 L16.4842 722.449 Q16.4842 715.096 19.5397 711.118 Q22.5952 707.139 28.2289 707.139 Q32.5894 707.139 35.1675 709.176 Q37.7456 711.213 38.3822 715.16 Q39.4007 710.418 42.6472 707.808 Q45.8619 705.166 50.6998 705.166 Q57.0655 705.166 60.5348 709.495 Q64.0042 713.823 64.0042 721.812 L64.0042 738.872 L16.4842 738.872 Z" fill="#000000" fill-rule="nonzero" fill-opacity="1" /><path clip-path="url(#clip510)" d="M20.8447 676.011 Q20.8447 683.013 26.0645 687.151 Q31.2844 691.257 40.2919 691.257 Q49.2675 691.257 54.4874 687.151 Q59.7073 683.013 59.7073 676.011 Q59.7073 669.009 54.4874 664.935 Q49.2675 660.829 40.2919 660.829 Q31.2844 660.829 26.0645 664.935 Q20.8447 669.009 20.8447 676.011 M15.6248 676.011 Q15.6248 666.017 22.3406 660.033 Q29.0246 654.049 40.2919 654.049 Q51.5274 654.049 58.2432 660.033 Q64.9272 666.017 64.9272 676.011 Q64.9272 686.037 58.2432 692.052 Q51.5592 698.036 40.2919 698.036 Q29.0246 698.036 22.3406 692.052 Q15.6248 686.037 15.6248 676.011 Z" fill="#000000" fill-rule="nonzero" fill-opacity="1" /><polyline clip-path="url(#clip512)" style="stroke:#009af9; stroke-linecap:round; stroke-linejoin:round; stroke-width:4; stroke-opacity:1; fill:none" points="301.869,875.078 303.862,1067.43 305.856,1135.97 307.849,790.447 309.842,1282.82 311.835,1384.24 313.828,1127.88 315.821,1024.08 317.814,1006.01 319.808,1001.47 321.801,905.357 323.794,727.257 325.787,881.561 327.78,964.254 329.773,660.36 331.766,526.589 333.76,753.047 335.753,624.119 337.746,1285.18 339.739,1207.49 341.732,1259.4 343.725,788.029 345.718,775.359 347.712,806.817 349.705,864.484 351.698,1109.24 353.691,723.321 355.684,907.406 357.677,1108.77 359.67,1030.07 361.664,809.126 363.657,682.421 365.65,739.628 367.643,770.492 369.636,638.093 371.629,436.677 373.622,661.049 375.616,566.875 377.609,798.813 379.602,667.993 381.595,792.642 383.588,631.197 385.581,846.501 387.574,675.889 389.568,973.813 391.561,757.792 393.554,684.864 395.547,665.878 397.54,810.309 399.533,696.126 401.526,557.777 403.52,530.492 405.513,601.73 407.506,988.532 409.499,639.844 411.492,662.316 413.485,617.911 415.479,485.469 417.472,576.78 419.465,450.863 421.458,861.443 423.451,583.65 425.444,448.164 427.437,890.116 429.431,673.605 431.424,678.584 433.417,656.493 435.41,665.367 437.403,760.232 439.396,678.875 441.389,793.577 443.383,786.644 445.376,571.86 447.369,651.469 449.362,733.451 451.355,337.113 453.348,566.71 455.341,727.986 457.335,596.93 459.328,315.091 461.321,570.225 463.314,589.754 465.307,723.408 467.3,598.987 469.293,492.704 471.287,648.809 473.28,400.759 475.273,997.111 477.266,214.185 479.259,451.249 481.252,404.366 483.245,669.789 485.239,630.915 487.232,522.904 489.225,470.076 491.218,560.997 493.211,834.875 495.204,332.272 497.197,500.379 499.191,487.878 501.184,711.629 503.177,841.564 505.17,795.285 507.163,455.504 509.156,544.566 511.149,632.395 513.143,330.442 515.136,350.702 517.129,891.615 519.122,379.906 521.115,313.612 523.108,302.473 525.101,433.167 527.095,429.751 529.088,271.022 531.081,711.066 533.074,452.287 535.067,490.496 537.06,612.57 539.054,317.151 541.047,382.834 543.04,439.225 545.033,466.744 547.026,718.128 549.019,476.376 551.012,512.502 553.006,722.677 554.999,640.027 556.992,426.185 558.985,691.037 560.978,309.226 562.971,644.861 564.964,412.344 566.958,267.424 568.951,456.762 570.944,213.431 572.937,510.224 574.93,448.165 576.923,597.503 578.916,191.092 580.91,500.549 582.903,235.785 584.896,313.971 586.889,613.071 588.882,318.056 590.875,223.707 592.868,349.015 594.862,429.512 596.855,280.803 598.848,414.474 600.841,335.282 602.834,585.264 604.827,223.968 606.82,516.926 608.814,189.001 610.807,466.891 612.8,286.735 614.793,149.682 616.786,503.419 618.779,175.916 620.772,125.1 622.766,560.052 624.759,179.129 626.752,337.137 628.745,468.884 630.738,321.526 632.731,248.322 634.724,365.622 636.718,356.715 638.711,321.252 640.704,517.131 642.697,183.894 644.69,284.063 646.683,352.214 648.677,309.927 650.67,304.08 652.663,355.565 654.656,324.371 656.649,332.293 658.642,318.007 660.635,315.197 662.629,377.297 664.622,592.682 666.615,346.183 668.608,510.96 670.601,451.506 672.594,504.397 674.587,552.195 676.581,462.294 678.574,173.166 680.567,346.931 682.56,408.793 684.553,250.894 686.546,199.009 688.539,397.583 690.533,383.114 692.526,209.825 694.519,321.578 696.512,339.663 698.505,296.869 700.498,402.625 702.491,364.065 704.485,266.73 706.478,213.73 708.471,357.43 710.464,280.2 712.457,462.379 714.45,379.859 716.443,229.585 718.437,308.885 720.43,252.156 722.423,190.38 724.416,187.5 726.409,596.183 728.402,451.307 730.395,333.23 732.389,317.114 734.382,252.07 736.375,416.013 738.368,264.042 740.361,257.713 742.354,271.547 744.347,409.541 746.341,313.01 748.334,288.25 750.327,601.936 752.32,427.125 754.313,283.278 756.306,180.626 758.299,436.83 760.293,391.328 762.286,429.179 764.279,257.718 766.272,378.983 768.265,140.413 770.258,170.163 772.252,123.944 774.245,158.746 776.238,319.62 778.231,471.248 780.224,330.015 782.217,190.498 784.21,265.804 786.204,211.266 788.197,143.629 790.19,235.221 792.183,182.345 794.176,107.844 796.169,323.17 798.162,418.864 800.156,289.514 802.149,178.364 804.142,164.365 806.135,191.674 808.128,260.66 810.121,385.435 812.114,226.678 814.108,240.696 816.101,361.062 818.094,487.567 820.087,294.047 822.08,223.789 824.073,296.148 826.066,245.508 828.06,173.832 830.053,142.385 832.046,289.306 834.039,202.205 836.032,263.552 838.025,239.126 840.018,233.816 842.012,179.936 844.005,214.592 845.998,326.319 847.991,313.468 849.984,166.373 851.977,271.881 853.97,432.391 855.964,192.467 857.957,299.762 859.95,148.018 861.943,576.2 863.936,152.553 865.929,240.831 867.922,201.257 869.916,200.511 871.909,181.258 873.902,204.44 875.895,441.086 877.888,273.522 879.881,239.912 881.874,500.978 883.868,200.014 885.861,350.554 887.854,286.82 889.847,230.487 891.84,189.021 893.833,345.178 895.827,314.448 897.82,311.978 899.813,234.346 901.806,238.595 903.799,209.643 905.792,296.338 907.785,271.615 909.779,245.64 911.772,157.25 913.765,291.277 915.758,282.161 917.751,206.373 919.744,301.171 921.737,113.292 923.731,189.717 925.724,346.093 927.717,346.794 929.71,145.224 931.703,265.04 933.696,150.248 935.689,216.888 937.683,282.572 939.676,371.2 941.669,290.542 943.662,205.497 945.655,410.379 947.648,355.885 949.641,330.61 951.635,296.233 953.628,118.365 955.621,189.236 957.614,265.124 959.607,205.511 961.6,189.643 963.593,316.224 965.587,192.363 967.58,255.154 969.573,389.79 971.566,422.367 973.559,216.968 975.552,135.259 977.545,279.825 979.539,324.562 981.532,261.456 983.525,325.255 985.518,238.877 987.511,203.82 989.504,247.283 991.497,317.365 993.491,279.074 995.484,158.747 997.477,160.401 999.47,162.521 1001.46,269.987 1003.46,237.151 1005.45,377.984 1007.44,253.175 1009.44,169.466 1011.43,281.091 1013.42,288.284 1015.42,328.497 1017.41,172.565 1019.4,187.925 1021.39,159.178 1023.39,376.531 1025.38,314.056 1027.37,148.892 1029.37,326.893 1031.36,194.386 1033.35,303.617 1035.35,394.719 1037.34,150.106 1039.33,420.534 1041.33,317.574 1043.32,220.415 1045.31,241.16 1047.31,305.87 1049.3,138.571 1051.29,178.307 1053.28,352.252 1055.28,180.19 1057.27,545.139 1059.26,189.325 1061.26,182.932 1063.25,283.382 1065.24,183.466 1067.24,438.509 1069.23,175.608 1071.22,183.51 1073.22,203.99 1075.21,94.4016 1077.2,422.165 1079.2,253.642 1081.19,309.89 1083.18,289.655 1085.18,237.551 1087.17,255.66 1089.16,245.454 1091.15,359.033 1093.15,163.512 1095.14,201.834 1097.13,233.819 1099.13,205.36 1101.12,165.462 1103.11,201.808 1105.11,238.809 1107.1,229.319 1109.09,154.926 1111.09,188.822 1113.08,356.679 1115.07,168.231 1117.07,147.885 1119.06,298.24 1121.05,173.068 1123.05,199.29 1125.04,176.067 1127.03,186.411 1129.02,226.96 1131.02,256.889 1133.01,243.785 1135,327.641 1137,160.685 1138.99,349.396 1140.98,260.552 1142.98,156.857 1144.97,465.505 1146.96,363.789 1148.96,292.573 1150.95,154.688 1152.94,278.101 1154.94,314.608 1156.93,322.997 1158.92,192.156 1160.91,349.376 1162.91,202.84 1164.9,303.99 1166.89,328.095 1168.89,278.856 1170.88,562.631 1172.87,401.754 1174.87,298.257 1176.86,413.719 1178.85,360.741 1180.85,189.891 1182.84,161.141 1184.83,233.348 1186.83,390.29 1188.82,270.318 1190.81,347.513 1192.81,258.791 1194.8,235.808 1196.79,196.834 1198.78,155.559 1200.78,363.612 1202.77,534.72 1204.76,261.227 1206.76,148.846 1208.75,449.805 1210.74,351.116 1212.74,288.932 1214.73,284.054 1216.72,396.895 1218.72,345.557 1220.71,200.885 1222.7,281.167 1224.7,160.684 1226.69,389.929 1228.68,109.86 1230.67,202.159 1232.67,166.369 1234.66,348.85 1236.65,150.871 1238.65,164.961 1240.64,347.998 1242.63,343.246 1244.63,232.629 1246.62,318.446 1248.61,288.188 1250.61,230.451 1252.6,190.42 1254.59,522.972 1256.59,295.134 1258.58,348.209 1260.57,320.324 1262.57,161.382 1264.56,242.977 1266.55,191.277 1268.54,196.889 1270.54,251.644 1272.53,171.174 1274.52,204.995 1276.52,338.646 1278.51,360.112 1280.5,165.657 1282.5,218.594 1284.49,242.109 1286.48,252.986 1288.48,471.819 1290.47,315.089 1292.46,139.227 1294.46,220.676 1296.45,329.643 1298.44,229.794 1300.44,371.996 1302.43,303.931 1304.42,201.486 1306.41,331.658 1308.41,356.953 1310.4,435.443 1312.39,298.168 1314.39,254.395 1316.38,258.68 1318.37,204.051 1320.37,165.257 1322.36,185.549 1324.35,146.428 1326.35,261.04 1328.34,278.618 1330.33,256.889 1332.33,304.217 1334.32,307.239 1336.31,326.226 1338.3,210.21 1340.3,222.053 1342.29,307.238 1344.28,419.952 1346.28,156.838 1348.27,214.48 1350.26,304.209 1352.26,362.427 1354.25,174.829 1356.24,359.638 1358.24,140.263 1360.23,215.517 1362.22,179.309 1364.22,330.603 1366.21,216.91 1368.2,192.856 1370.2,235.864 1372.19,232.815 1374.18,221.285 1376.17,395.781 1378.17,187.057 1380.16,167.379 1382.15,235.515 1384.15,191.508 1386.14,245.509 1388.13,163.658 1390.13,272.938 1392.12,147.902 1394.11,179.334 1396.11,293.382 1398.1,163.717 1400.09,377.813 1402.09,158.029 1404.08,149.54 1406.07,359.972 1408.06,156.026 1410.06,163.713 1412.05,143.566 1414.04,168.081 1416.04,213.192 1418.03,183.882 1420.02,209.947 1422.02,402.937 1424.01,433.521 1426,307.222 1428,320.328 1429.99,337.743 1431.98,331.598 1433.98,292.271 1435.97,281.625 1437.96,372.513 1439.96,293.919 1441.95,202.514 1443.94,214.231 1445.93,238.104 1447.93,202.885 1449.92,289.169 1451.91,322.06 1453.91,139.424 1455.9,176.696 1457.89,303.391 1459.89,148.411 1461.88,161 1463.87,119.785 1465.87,301.933 1467.86,270.112 1469.85,206.076 1471.85,277.232 1473.84,181.894 1475.83,378.1 1477.82,154.001 1479.82,205.334 1481.81,565.719 1483.8,224.029 1485.8,122.956 1487.79,188.064 1489.78,190.815 1491.78,155.227 1493.77,343.878 1495.76,378.805 1497.76,169.976 1499.75,208.496 1501.74,169.32 1503.74,406.859 1505.73,286.533 1507.72,397.692 1509.72,231.315 1511.71,242.394 1513.7,140.072 1515.69,203.619 1517.69,150.62 1519.68,185.772 1521.67,321.449 1523.67,290.993 1525.66,344.169 1527.65,195.425 1529.65,153.615 1531.64,215.618 1533.63,297.761 1535.63,240.347 1537.62,247.974 1539.61,334.474 1541.61,423.635 1543.6,249.071 1545.59,161.041 1547.59,197.449 1549.58,304.846 1551.57,314.511 1553.56,215.111 1555.56,109.171 1557.55,215.646 1559.54,524.873 1561.54,349.562 1563.53,244.71 1565.52,193.788 1567.52,180.281 1569.51,255.901 1571.5,219.079 1573.5,226.824 1575.49,260.595 1577.48,198.357 1579.48,147.53 1581.47,452.115 1583.46,136.191 1585.45,200.936 1587.45,208.924 1589.44,266.866 1591.43,170.362 1593.43,437.835 1595.42,295.101 1597.41,223.986 1599.41,371.915 1601.4,151.212 1603.39,210.99 1605.39,168.038 1607.38,167.335 1609.37,402.099 1611.37,196.626 1613.36,208.915 1615.35,217.89 1617.35,298.294 1619.34,329.083 1621.33,601.318 1623.32,167.741 1625.32,151.673 1627.31,455.808 1629.3,247.655 1631.3,108.795 1633.29,320.849 1635.28,313.561 1637.28,164.186 1639.27,296.406 1641.26,399.502 1643.26,221.765 1645.25,421.351 1647.24,538.636 1649.24,245.481 1651.23,259.262 1653.22,206.579 1655.21,283.82 1657.21,143.515 1659.2,322.804 1661.19,146.798 1663.19,233.012 1665.18,335.105 1667.17,289.673 1669.17,313.389 1671.16,236.264 1673.15,270.548 1675.15,288.574 1677.14,146.776 1679.13,152.723 1681.13,253.333 1683.12,320.141 1685.11,361.955 1687.11,199.726 1689.1,327.637 1691.09,186.755 1693.08,86.1857 1695.08,219.027 1697.07,181.044 1699.06,164.412 1701.06,250.013 1703.05,320.414 1705.04,292.666 1707.04,287.64 1709.03,206.487 1711.02,204.25 1713.02,153.662 1715.01,413.033 1717,255.571 1719,305.759 1720.99,294.604 1722.98,283.6 1724.97,343.458 1726.97,343.045 1728.96,185.942 1730.95,131.989 1732.95,244.91 1734.94,224.088 1736.93,297.832 1738.93,198.876 1740.92,212.169 1742.91,372.75 1744.91,310.249 1746.9,196.405 1748.89,207.77 1750.89,295.987 1752.88,404.672 1754.87,184.59 1756.87,144.513 1758.86,352.147 1760.85,269.602 1762.84,266.721 1764.84,188.442 1766.83,202.924 1768.82,192.262 1770.82,327.935 1772.81,207.5 1774.8,253.721 1776.8,170.115 1778.79,309.779 1780.78,114.935 1782.78,164.896 1784.77,416.111 1786.76,156.237 1788.76,225.717 1790.75,223.762 1792.74,462.941 1794.74,126.391 1796.73,321.893 1798.72,199.823 1800.71,277.458 1802.71,218.083 1804.7,172.198 1806.69,178.084 1808.69,201.084 1810.68,235.27 1812.67,106.78 1814.67,249.865 1816.66,131.538 1818.65,134.651 1820.65,177.506 1822.64,219.791 1824.63,194.531 1826.63,236.181 1828.62,175.305 1830.61,146.073 1832.6,156.195 1834.6,384.679 1836.59,232.192 1838.58,354.299 1840.58,281.349 1842.57,261.85 1844.56,386.056 1846.56,184.386 1848.55,310.107 1850.54,216.229 1852.54,224.986 1854.53,208.679 1856.52,391.834 1858.52,396.761 1860.51,113.999 1862.5,240.2 1864.5,190.172 1866.49,203.864 1868.48,256.043 1870.47,219.291 1872.47,134.808 1874.46,185.913 1876.45,281.751 1878.45,155.729 1880.44,359.341 1882.43,194.598 1884.43,632.703 1886.42,283.508 1888.41,208.794 1890.41,179.269 1892.4,404.512 1894.39,169.146 1896.39,237.949 1898.38,275.998 1900.37,94.1294 1902.36,146.205 1904.36,202.139 1906.35,159.517 1908.34,387.386 1910.34,285.536 1912.33,275.586 1914.32,204.744 1916.32,184.294 1918.31,397.165 1920.3,134.117 1922.3,234.255 1924.29,203.453 1926.28,217.033 1928.28,145.694 1930.27,153.217 1932.26,182.136 1934.26,106.3 1936.25,202.646 1938.24,122.806 1940.23,208.605 1942.23,161.011 1944.22,171.427 1946.21,171.713 1948.21,210.557 1950.2,342.874 1952.19,265.376 1954.19,237.518 1956.18,222.018 1958.17,213.022 1960.17,271.863 1962.16,389.882 1964.15,299.505 1966.15,251.48 1968.14,196.997 1970.13,199.618 1972.12,215.861 1974.12,193.222 1976.11,232.3 1978.1,183.336 1980.1,340.717 1982.09,151.109 1984.08,360.838 1986.08,140.891 1988.07,231.714 1990.06,256.534 1992.06,421.925 1994.05,219.251 1996.04,542.369 1998.04,237.47 2000.03,384.523 2002.02,324.701 2004.02,159.047 2006.01,115.444 2008,229.079 2009.99,369.874 2011.99,124.77 2013.98,222.148 2015.97,151.112 2017.97,235.92 2019.96,630.455 2021.95,224.264 2023.95,139.285 2025.94,149.738 2027.93,168.399 2029.93,255.008 2031.92,303.228 2033.91,212.502 2035.91,197.313 2037.9,128.46 2039.89,145.737 2041.89,273.276 2043.88,249.721 2045.87,146.74 2047.86,214.316 2049.86,137.15 2051.85,421.385 2053.84,478.586 2055.84,227.33 2057.83,309.285 2059.82,270.756 2061.82,175.076 2063.81,374.622 2065.8,128.408 2067.8,281.956 2069.79,279.619 2071.78,288.357 2073.78,178.703 2075.77,202.813 2077.76,270.713 2079.75,271.748 2081.75,277.572 2083.74,212.197 2085.73,167.798 2087.73,275.219 2089.72,316.584 2091.71,237.887 2093.71,346.743 2095.7,236.988 2097.69,344.802 2099.69,122.474 2101.68,236.682 2103.67,235.001 2105.67,396.773 2107.66,260.328 2109.65,321.72 2111.65,196.297 2113.64,238.877 2115.63,170.989 2117.62,217.511 2119.62,242.524 2121.61,147.648 2123.6,265.421 2125.6,238.97 2127.59,223.978 2129.58,324.102 2131.58,459.555 2133.57,337.585 2135.56,523.423 2137.56,278.512 2139.55,364.457 2141.54,140.52 2143.54,261.112 2145.53,157.844 2147.52,162.414 2149.51,207.818 2151.51,276.902 2153.5,224.392 2155.49,279.105 2157.49,264.636 2159.48,497.55 2161.47,188.332 2163.47,170.451 2165.46,350.435 2167.45,299.146 2169.45,385.747 2171.44,232.346 2173.43,179.636 2175.43,131.474 2177.42,220.382 2179.41,189.549 2181.41,319.749 2183.4,122.611 2185.39,269.579 2187.38,132.447 2189.38,344.026 2191.37,162.825 2193.36,312.537 2195.36,199.62 2197.35,344.71 2199.34,150.755 2201.34,234.484 2203.33,417.918 2205.32,189.466 2207.32,362.643 2209.31,136.391 2211.3,240.798 2213.3,143.625 2215.29,296.487 2217.28,284.551 2219.27,179.404 2221.27,295.171 2223.26,401.274 2225.25,419.316 2227.25,364.802 2229.24,189.362 2231.23,343.725 2233.23,398.293 2235.22,192.121 2237.21,164.227 2239.21,252.556 2241.2,390.599 2243.19,230.267 2245.19,347.543 2247.18,330.565 2249.17,280.064 2251.17,225.188 2253.16,372.979 2255.15,288.721 2257.14,236.979 2259.14,185.692 2261.13,158.135 2263.12,122.248 2265.12,397.81 2267.11,350.191 2269.1,246.089 2271.1,279.765 2273.09,265.423 2275.08,342.051 2277.08,267.627 2279.07,164.458 2281.06,243.243 2283.06,279.108 2285.05,302.462 2287.04,199.461 2289.04,251.293 2291.03,231.521 2293.02,275.461 "/>
<polyline clip-path="url(#clip512)" style="stroke:#e26f46; stroke-linecap:round; stroke-linejoin:round; stroke-width:4; stroke-opacity:1; fill:none" points="301.869,1020.26 303.862,1003.44 305.856,1006.51 307.849,977.4 309.842,985.062 311.835,951.43 313.828,948.176 315.821,949.031 317.814,956.152 319.808,940.079 321.801,967.919 323.794,929.506 325.787,920.17 327.78,906.467 329.773,904.361 331.766,909.856 333.76,920.992 335.753,874.914 337.746,883.206 339.739,861.672 341.732,853.586 343.725,866.182 345.718,864.636 347.712,854.471 349.705,829.687 351.698,835.141 353.691,838.69 355.684,811.242 357.677,832.916 359.67,817.218 361.664,801.006 363.657,793.505 365.65,778.869 367.643,771.164 369.636,799.689 371.629,761.589 373.622,762.52 375.616,761.422 377.609,783.156 379.602,768.734 381.595,764.442 383.588,735.909 385.581,723.926 387.574,720.43 389.568,713.346 391.561,707.732 393.554,708.97 395.547,703.457 397.54,684.989 399.533,708.924 401.526,698.811 403.52,692.477 405.513,678.034 407.506,672.338 409.499,682.128 411.492,674.43 413.485,654.411 415.479,656.815 417.472,632.279 419.465,648.141 421.458,661.784 423.451,625.982 425.444,614.983 427.437,628.285 429.431,619.302 431.424,603.151 433.417,595.16 435.41,616.353 437.403,626.154 439.396,572.327 441.389,604.542 443.383,595.133 445.376,577.846 447.369,583.354 449.362,596.359 451.355,551.249 453.348,567.17 455.341,555.149 457.335,570.269 459.328,572.415 461.321,536.67 463.314,553.642 465.307,552.218 467.3,531.453 469.293,535.026 471.287,521.99 473.28,544.191 475.273,509.922 477.266,525.81 479.259,514.29 481.252,526.064 483.245,503.395 485.239,504.113 487.232,506.962 489.225,490.015 491.218,509.187 493.211,500.016 495.204,474.338 497.197,479.496 499.191,488.813 501.184,498.764 503.177,488.142 505.17,466.728 507.163,478.131 509.156,471.32 511.149,456.149 513.143,484.934 515.136,464.39 517.129,447.755 519.122,440.591 521.115,459.652 523.108,452.456 525.101,454.148 527.095,432.098 529.088,447.253 531.081,424.418 533.074,429.037 535.067,430.436 537.06,421.451 539.054,430.058 541.047,416.579 543.04,407.098 545.033,427.691 547.026,422.788 549.019,438.929 551.012,406.343 553.006,391.61 554.999,412.66 556.992,399.702 558.985,405.672 560.978,401.929 562.971,397.176 564.964,388.558 566.958,385.454 568.951,387.306 570.944,380.847 572.937,376.978 574.93,387.857 576.923,374.952 578.916,375.313 580.91,370.688 582.903,379.774 584.896,364.068 586.889,371.009 588.882,362.855 590.875,356.187 592.868,363.244 594.862,385.284 596.855,388.962 598.848,366.877 600.841,350.131 602.834,344.609 604.827,358.849 606.82,366.62 608.814,347.311 610.807,350.032 612.8,343.605 614.793,331.774 616.786,341.494 618.779,348.794 620.772,343.546 622.766,359.392 624.759,334.704 626.752,321.534 628.745,322.047 630.738,340.333 632.731,324.599 634.724,327.349 636.718,330.974 638.711,326.375 640.704,336.238 642.697,327.582 644.69,322.232 646.683,318.931 648.677,351.231 650.67,323.988 652.663,323.813 654.656,315.776 656.649,329.578 658.642,318.932 660.635,312.707 662.629,319.421 664.622,305.003 666.615,324.703 668.608,304.016 670.601,299.147 672.594,303.332 674.587,301.589 676.581,291.452 678.574,322.788 680.567,296.427 682.56,315.299 684.553,302.075 686.546,303.859 688.539,283.178 690.533,312.132 692.526,282.125 694.519,284.115 696.512,289.561 698.505,305.242 700.498,292.268 702.491,296.886 704.485,290.305 706.478,277.991 708.471,302.896 710.464,280.2 712.457,302.111 714.45,284.102 716.443,281.954 718.437,286.618 720.43,296.46 722.423,286.311 724.416,281.003 726.409,292.754 728.402,282.864 730.395,278.984 732.389,274.867 734.382,268.249 736.375,289.491 738.368,288.069 740.361,270.503 742.354,268.557 744.347,265.618 746.341,278.459 748.334,271.653 750.327,286.089 752.32,280.77 754.313,268.893 756.306,268.598 758.299,258.36 760.293,278.757 762.286,263.644 764.279,287.266 766.272,280.572 768.265,263.761 770.258,272.477 772.252,270.585 774.245,257.777 776.238,263.308 778.231,254.861 780.224,282.538 782.217,264.728 784.21,263.413 786.204,258.943 788.197,271.241 790.19,278.641 792.183,266.134 794.176,278.549 796.169,267.074 798.162,256.084 800.156,259.739 802.149,268.349 804.142,269.671 806.135,252.362 808.128,263.655 810.121,255.552 812.114,252.935 814.108,256.16 816.101,264.918 818.094,266.272 820.087,250.551 822.08,267.783 824.073,270.048 826.066,264.453 828.06,257.735 830.053,251.173 832.046,267.879 834.039,260.569 836.032,256.535 838.025,253.865 840.018,272.335 842.012,245.495 844.005,246.58 845.998,250.304 847.991,258.428 849.984,260.856 851.977,245.589 853.97,268.865 855.964,272.209 857.957,258.046 859.95,256.796 861.943,257.345 863.936,254.82 865.929,267.425 867.922,240.762 869.916,242.568 871.909,248.048 873.902,259.234 875.895,257.662 877.888,259.718 879.881,276.465 881.874,252 883.868,235.918 885.861,260.477 887.854,250.154 889.847,260.87 891.84,247.65 893.833,246.169 895.827,252.646 897.82,242.335 899.813,255.486 901.806,278.613 903.799,262.553 905.792,262.038 907.785,253.261 909.779,250.64 911.772,234.775 913.765,270.298 915.758,245.182 917.751,248.447 919.744,275.156 921.737,257.228 923.731,246.868 925.724,242.36 927.717,271.331 929.71,241.113 931.703,234.595 933.696,248.013 935.689,263.993 937.683,249.024 939.676,258.834 941.669,260.632 943.662,259.066 945.655,240.628 947.648,246.264 949.641,246.172 951.635,250.653 953.628,248.655 955.621,258.238 957.614,262.82 959.607,271.477 961.6,259.213 963.593,270.167 965.587,267.65 967.58,261.913 969.573,242.418 971.566,266.507 973.559,243.483 975.552,246.068 977.545,252.979 979.539,261.903 981.532,242.895 983.525,256.909 985.518,244.826 987.511,234.474 989.504,239.423 991.497,247.019 993.491,251.671 995.484,250.319 997.477,240.467 999.47,266.848 1001.46,237.148 1003.46,261.632 1005.45,241.568 1007.44,258.167 1009.44,249.877 1011.43,239.935 1013.42,260.286 1015.42,246.982 1017.41,254.574 1019.4,259.607 1021.39,242.169 1023.39,247.225 1025.38,237.429 1027.37,244.127 1029.37,268.168 1031.36,243.264 1033.35,252.332 1035.35,252.657 1037.34,245.01 1039.33,236.381 1041.33,257.219 1043.32,243.99 1045.31,248.965 1047.31,249.045 1049.3,253.815 1051.29,242.306 1053.28,234.322 1055.28,259.03 1057.27,249.649 1059.26,238.081 1061.26,256.48 1063.25,262.352 1065.24,237.965 1067.24,248.752 1069.23,251.486 1071.22,237.514 1073.22,241.495 1075.21,245.581 1077.2,245.151 1079.2,247.7 1081.19,247.521 1083.18,255.399 1085.18,254.493 1087.17,249.066 1089.16,252.987 1091.15,251.613 1093.15,253.184 1095.14,248.218 1097.13,237.212 1099.13,247.48 1101.12,289.276 1103.11,241.846 1105.11,241.329 1107.1,245.263 1109.09,252.573 1111.09,257.307 1113.08,274.526 1115.07,244.719 1117.07,256.07 1119.06,241.808 1121.05,235.97 1123.05,244.782 1125.04,259.782 1127.03,241.311 1129.02,244.789 1131.02,255.632 1133.01,233.636 1135,256.28 1137,245.342 1138.99,248.073 1140.98,254.512 1142.98,257.572 1144.97,247.078 1146.96,240.955 1148.96,256.831 1150.95,243.603 1152.94,250.538 1154.94,237.664 1156.93,243.094 1158.92,244.287 1160.91,256.268 1162.91,238.64 1164.9,259.216 1166.89,254.967 1168.89,250.681 1170.88,253.999 1172.87,248.77 1174.87,249.18 1176.86,240.649 1178.85,252.988 1180.85,248.174 1182.84,258.086 1184.83,252.64 1186.83,230.762 1188.82,256.428 1190.81,258.659 1192.81,249.577 1194.8,252.953 1196.79,249.75 1198.78,247.424 1200.78,235.333 1202.77,263.991 1204.76,242.815 1206.76,240.412 1208.75,252.439 1210.74,227.532 1212.74,247.051 1214.73,237.514 1216.72,259.614 1218.72,234.684 1220.71,253.028 1222.7,245.394 1224.7,228.802 1226.69,237.694 1228.68,245.844 1230.67,247.753 1232.67,241.323 1234.66,272.461 1236.65,248.302 1238.65,260.009 1240.64,242.116 1242.63,230.509 1244.63,256.184 1246.62,255.658 1248.61,251.255 1250.61,233.544 1252.6,246.02 1254.59,244.758 1256.59,245.011 1258.58,237.263 1260.57,239.712 1262.57,256.092 1264.56,240.563 1266.55,236.537 1268.54,257.529 1270.54,235.763 1272.53,254.791 1274.52,245.961 1276.52,251.501 1278.51,257.173 1280.5,254.348 1282.5,241.197 1284.49,238.612 1286.48,247.095 1288.48,265.078 1290.47,254.452 1292.46,257.912 1294.46,248.181 1296.45,235.92 1298.44,250.941 1300.44,243.593 1302.43,247.338 1304.42,265.974 1306.41,264.332 1308.41,244.634 1310.4,243.022 1312.39,262.504 1314.39,267.767 1316.38,229.867 1318.37,236.938 1320.37,252.419 1322.36,245.53 1324.35,247.285 1326.35,249.204 1328.34,252.931 1330.33,248.48 1332.33,254.052 1334.32,242.344 1336.31,244.105 1338.3,262.995 1340.3,238.792 1342.29,250.813 1344.28,264.118 1346.28,237.326 1348.27,251.178 1350.26,235.753 1352.26,248.628 1354.25,239.161 1356.24,258.258 1358.24,236.305 1360.23,231.607 1362.22,253.379 1364.22,245.003 1366.21,251.685 1368.2,245.624 1370.2,252.606 1372.19,247.969 1374.18,249.573 1376.17,251.734 1378.17,281.644 1380.16,248.284 1382.15,255.542 1384.15,243.145 1386.14,252.494 1388.13,246.922 1390.13,238.003 1392.12,239.764 1394.11,237.791 1396.11,238.736 1398.1,226.818 1400.09,223.547 1402.09,221.552 1404.08,242.141 1406.07,251.919 1408.06,244.667 1410.06,258.24 1412.05,247.079 1414.04,259.603 1416.04,271.962 1418.03,242.845 1420.02,241.706 1422.02,245.644 1424.01,244.884 1426,231.716 1428,239.336 1429.99,229.968 1431.98,229.468 1433.98,246.673 1435.97,234.136 1437.96,258.571 1439.96,261.542 1441.95,239.39 1443.94,239.003 1445.93,273.187 1447.93,243.768 1449.92,241.846 1451.91,249.62 1453.91,240.289 1455.9,249.129 1457.89,253.636 1459.89,246.367 1461.88,246.473 1463.87,236.833 1465.87,252.012 1467.86,249.809 1469.85,243.393 1471.85,238.063 1473.84,249.979 1475.83,256.824 1477.82,262.572 1479.82,237.383 1481.81,245.487 1483.8,240.834 1485.8,242.909 1487.79,239.135 1489.78,245.222 1491.78,248.797 1493.77,252.824 1495.76,236.582 1497.76,256.028 1499.75,248.971 1501.74,228.092 1503.74,241.254 1505.73,252.655 1507.72,249.426 1509.72,244.45 1511.71,245.434 1513.7,241.004 1515.69,248.164 1517.69,256.867 1519.68,245.465 1521.67,245.356 1523.67,251.162 1525.66,255.974 1527.65,242.186 1529.65,264.497 1531.64,262.53 1533.63,267.579 1535.63,243.313 1537.62,260.129 1539.61,230.375 1541.61,244.283 1543.6,244.681 1545.59,249.566 1547.59,251.184 1549.58,252.646 1551.57,239.224 1553.56,249.492 1555.56,263.219 1557.55,247.134 1559.54,255.252 1561.54,233.06 1563.53,234.508 1565.52,264.976 1567.52,242.609 1569.51,232.312 1571.5,244.444 1573.5,253.668 1575.49,249.146 1577.48,236.829 1579.48,253.862 1581.47,244.464 1583.46,258.095 1585.45,254.464 1587.45,234.141 1589.44,270.456 1591.43,234.641 1593.43,244.869 1595.42,242.67 1597.41,246.22 1599.41,249.819 1601.4,257.138 1603.39,245.979 1605.39,251.496 1607.38,279.174 1609.37,239.296 1611.37,235.695 1613.36,245.959 1615.35,247.959 1617.35,246.515 1619.34,245.169 1621.33,249.99 1623.32,253.164 1625.32,241.693 1627.31,245.039 1629.3,241.905 1631.3,248.304 1633.29,249.582 1635.28,250.975 1637.28,238.3 1639.27,245.022 1641.26,279.421 1643.26,239.723 1645.25,252.567 1647.24,251.842 1649.24,243.493 1651.23,251.405 1653.22,257.606 1655.21,254.751 1657.21,231.55 1659.2,258.842 1661.19,241.605 1663.19,239.875 1665.18,247.848 1667.17,243.901 1669.17,246.352 1671.16,237.727 1673.15,238.401 1675.15,252.467 1677.14,252.946 1679.13,287.861 1681.13,237.786 1683.12,267.156 1685.11,251.612 1687.11,254.024 1689.1,228.701 1691.09,265.078 1693.08,236.021 1695.08,233.931 1697.07,242.137 1699.06,263.278 1701.06,251.587 1703.05,239.281 1705.04,242.206 1707.04,243.21 1709.03,240.071 1711.02,240.701 1713.02,261.178 1715.01,269.545 1717,259.397 1719,235.797 1720.99,242.162 1722.98,268.806 1724.97,255.435 1726.97,262.623 1728.96,242.158 1730.95,238.396 1732.95,246.689 1734.94,277.336 1736.93,247.918 1738.93,256.466 1740.92,241.755 1742.91,245.38 1744.91,256.747 1746.9,241.785 1748.89,239.695 1750.89,249.957 1752.88,246.427 1754.87,239.352 1756.87,237.299 1758.86,250.007 1760.85,243.383 1762.84,234.093 1764.84,245.792 1766.83,240.284 1768.82,238.541 1770.82,229.394 1772.81,266.135 1774.8,281.322 1776.8,242.532 1778.79,242.406 1780.78,256.017 1782.78,251.189 1784.77,261.999 1786.76,250.772 1788.76,241.711 1790.75,267.975 1792.74,247.552 1794.74,253.262 1796.73,237.884 1798.72,253.199 1800.71,250.801 1802.71,263.762 1804.7,249.353 1806.69,228.426 1808.69,243.704 1810.68,235.369 1812.67,243.992 1814.67,258.645 1816.66,236.987 1818.65,240.05 1820.65,251.325 1822.64,240.246 1824.63,256.768 1826.63,253.301 1828.62,286.385 1830.61,237.164 1832.6,255.789 1834.6,231.392 1836.59,240.36 1838.58,269.396 1840.58,254.331 1842.57,237.008 1844.56,248.059 1846.56,239.073 1848.55,247.829 1850.54,232.465 1852.54,244.24 1854.53,239.667 1856.52,255.094 1858.52,248.009 1860.51,249.07 1862.5,246.07 1864.5,231.093 1866.49,254.023 1868.48,255.143 1870.47,270.835 1872.47,243.243 1874.46,231.133 1876.45,232.608 1878.45,253.242 1880.44,247.045 1882.43,253.606 1884.43,243.321 1886.42,247.941 1888.41,252.244 1890.41,246.836 1892.4,256.82 1894.39,240.77 1896.39,231.538 1898.38,259.552 1900.37,265.987 1902.36,230.627 1904.36,265.956 1906.35,251.641 1908.34,260.38 1910.34,249.077 1912.33,247.175 1914.32,230.622 1916.32,255.705 1918.31,257.933 1920.3,270.651 1922.3,263.62 1924.29,257.543 1926.28,255.571 1928.28,246.118 1930.27,256.165 1932.26,241.647 1934.26,233.595 1936.25,246.932 1938.24,250.258 1940.23,247.3 1942.23,252.327 1944.22,231.227 1946.21,243.581 1948.21,243.789 1950.2,267.441 1952.19,246.033 1954.19,277.1 1956.18,272.466 1958.17,264.152 1960.17,246.349 1962.16,249.265 1964.15,254.304 1966.15,258.126 1968.14,242.397 1970.13,251.368 1972.12,248.099 1974.12,260.057 1976.11,236.324 1978.1,246.025 1980.1,260.604 1982.09,245.949 1984.08,246.529 1986.08,256.017 1988.07,251.27 1990.06,244.513 1992.06,267.29 1994.05,239.621 1996.04,251.05 1998.04,244.066 2000.03,258.14 2002.02,246.415 2004.02,237.142 2006.01,250.672 2008,250.684 2009.99,235.478 2011.99,244.992 2013.98,258.896 2015.97,234.219 2017.97,241.771 2019.96,240.937 2021.95,239.021 2023.95,237.766 2025.94,248.55 2027.93,245.686 2029.93,255.581 2031.92,248.647 2033.91,241.786 2035.91,235.303 2037.9,232.238 2039.89,252.065 2041.89,237.491 2043.88,246.93 2045.87,234.388 2047.86,244.465 2049.86,240.441 2051.85,259.676 2053.84,248.848 2055.84,243.949 2057.83,244.978 2059.82,251.322 2061.82,241.315 2063.81,256.412 2065.8,245.024 2067.8,239.07 2069.79,274.719 2071.78,247.288 2073.78,257.808 2075.77,253.24 2077.76,240.804 2079.75,247.293 2081.75,245.135 2083.74,255.459 2085.73,242.115 2087.73,245.084 2089.72,243.682 2091.71,250.741 2093.71,239.186 2095.7,240.62 2097.69,237.469 2099.69,231.687 2101.68,254.693 2103.67,250.868 2105.67,232.904 2107.66,236.653 2109.65,242.973 2111.65,239.532 2113.64,252.62 2115.63,241.465 2117.62,275.707 2119.62,234.429 2121.61,231.609 2123.6,257.327 2125.6,239.725 2127.59,274.168 2129.58,236.564 2131.58,238.767 2133.57,245.732 2135.56,258.105 2137.56,270.06 2139.55,240.286 2141.54,236.645 2143.54,248.179 2145.53,243.304 2147.52,256.307 2149.51,235.461 2151.51,258.517 2153.5,260.086 2155.49,242.658 2157.49,234.883 2159.48,242.526 2161.47,239.123 2163.47,241.454 2165.46,247.312 2167.45,269.22 2169.45,247.835 2171.44,252.625 2173.43,260.789 2175.43,238.421 2177.42,256.364 2179.41,233.745 2181.41,255.975 2183.4,255.35 2185.39,250.006 2187.38,254.526 2189.38,241.385 2191.37,246.827 2193.36,251.047 2195.36,256.059 2197.35,274.445 2199.34,239.52 2201.34,236.501 2203.33,241.416 2205.32,237.058 2207.32,256.498 2209.31,246.845 2211.3,245.275 2213.3,254.596 2215.29,262.542 2217.28,240.613 2219.27,241.517 2221.27,240.839 2223.26,238.761 2225.25,243.261 2227.25,256.843 2229.24,265.469 2231.23,236.242 2233.23,237.818 2235.22,248.061 2237.21,231.795 2239.21,233.639 2241.2,247.586 2243.19,245.815 2245.19,249.585 2247.18,239.576 2249.17,245.418 2251.17,253.619 2253.16,262.555 2255.15,259.284 2257.14,245.279 2259.14,246.038 2261.13,238.338 2263.12,246.566 2265.12,244.076 2267.11,244.022 2269.1,240.791 2271.1,232.478 2273.09,244.525 2275.08,256.793 2277.08,241.475 2279.07,251.539 2281.06,231.91 2283.06,246.403 2285.05,229.527 2287.04,237.38 2289.04,240.974 2291.03,241.216 2293.02,239.974 "/>
<path clip-path="url(#clip510)" d="M1736.78 1377.32 L2282.4 1377.32 L2282.4 1221.8 L1736.78 1221.8  Z" fill="#ffffff" fill-rule="evenodd" fill-opacity="1"/>
<polyline clip-path="url(#clip510)" style="stroke:#000000; stroke-linecap:round; stroke-linejoin:round; stroke-width:4; stroke-opacity:1; fill:none" points="1736.78,1377.32 2282.4,1377.32 2282.4,1221.8 1736.78,1221.8 1736.78,1377.32 "/>
<polyline clip-path="url(#clip510)" style="stroke:#009af9; stroke-linecap:round; stroke-linejoin:round; stroke-width:4; stroke-opacity:1; fill:none" points="1760.23,1273.64 1900.94,1273.64 "/>
<path clip-path="url(#clip510)" d="M1929.07 1274.41 L1929.07 1287.07 L1936.57 1287.07 Q1940.34 1287.07 1942.15 1285.52 Q1943.98 1283.95 1943.98 1280.73 Q1943.98 1277.49 1942.15 1275.96 Q1940.34 1274.41 1936.57 1274.41 L1929.07 1274.41 M1929.07 1260.2 L1929.07 1270.61 L1935.99 1270.61 Q1939.42 1270.61 1941.08 1269.34 Q1942.77 1268.05 1942.77 1265.41 Q1942.77 1262.79 1941.08 1261.49 Q1939.42 1260.2 1935.99 1260.2 L1929.07 1260.2 M1924.39 1256.36 L1936.34 1256.36 Q1941.68 1256.36 1944.58 1258.58 Q1947.47 1260.8 1947.47 1264.9 Q1947.47 1268.07 1945.99 1269.94 Q1944.51 1271.82 1941.64 1272.28 Q1945.09 1273.02 1946.98 1275.38 Q1948.91 1277.72 1948.91 1281.24 Q1948.91 1285.87 1945.76 1288.39 Q1942.61 1290.92 1936.8 1290.92 L1924.39 1290.92 L1924.39 1256.36 Z" fill="#000000" fill-rule="nonzero" fill-opacity="1" /><path clip-path="url(#clip510)" d="M1961.59 1274.41 L1961.59 1287.07 L1969.09 1287.07 Q1972.86 1287.07 1974.67 1285.52 Q1976.5 1283.95 1976.5 1280.73 Q1976.5 1277.49 1974.67 1275.96 Q1972.86 1274.41 1969.09 1274.41 L1961.59 1274.41 M1961.59 1260.2 L1961.59 1270.61 L1968.51 1270.61 Q1971.94 1270.61 1973.6 1269.34 Q1975.29 1268.05 1975.29 1265.41 Q1975.29 1262.79 1973.6 1261.49 Q1971.94 1260.2 1968.51 1260.2 L1961.59 1260.2 M1956.92 1256.36 L1968.86 1256.36 Q1974.21 1256.36 1977.1 1258.58 Q1979.99 1260.8 1979.99 1264.9 Q1979.99 1268.07 1978.51 1269.94 Q1977.03 1271.82 1974.16 1272.28 Q1977.61 1273.02 1979.51 1275.38 Q1981.43 1277.72 1981.43 1281.24 Q1981.43 1285.87 1978.28 1288.39 Q1975.13 1290.92 1969.32 1290.92 L1956.92 1290.92 L1956.92 1256.36 Z" fill="#000000" fill-rule="nonzero" fill-opacity="1" /><path clip-path="url(#clip510)" d="M1996.89 1290.92 L1983.7 1256.36 L1988.58 1256.36 L1999.53 1285.45 L2010.5 1256.36 L2015.36 1256.36 L2002.19 1290.92 L1996.89 1290.92 Z" fill="#000000" fill-rule="nonzero" fill-opacity="1" /><path clip-path="url(#clip510)" d="M2020.41 1256.36 L2025.09 1256.36 L2025.09 1290.92 L2020.41 1290.92 L2020.41 1256.36 Z" fill="#000000" fill-rule="nonzero" fill-opacity="1" /><path clip-path="url(#clip510)" d="M2075.34 1259.02 L2075.34 1263.95 Q2072.98 1261.75 2070.29 1260.66 Q2067.63 1259.57 2064.62 1259.57 Q2058.7 1259.57 2055.55 1263.21 Q2052.4 1266.82 2052.4 1273.67 Q2052.4 1280.5 2055.55 1284.13 Q2058.7 1287.74 2064.62 1287.74 Q2067.63 1287.74 2070.29 1286.66 Q2072.98 1285.57 2075.34 1283.37 L2075.34 1288.25 Q2072.89 1289.92 2070.13 1290.75 Q2067.4 1291.59 2064.35 1291.59 Q2056.5 1291.59 2051.98 1286.79 Q2047.47 1281.98 2047.47 1273.67 Q2047.47 1265.34 2051.98 1260.55 Q2056.5 1255.73 2064.35 1255.73 Q2067.45 1255.73 2070.18 1256.56 Q2072.93 1257.37 2075.34 1259.02 Z" fill="#000000" fill-rule="nonzero" fill-opacity="1" /><path clip-path="url(#clip510)" d="M2082.56 1256.36 L2102.42 1256.36 L2102.42 1260.29 L2087.24 1260.29 L2087.24 1270.48 L2100.94 1270.48 L2100.94 1274.41 L2087.24 1274.41 L2087.24 1290.92 L2082.56 1290.92 L2082.56 1256.36 Z" fill="#000000" fill-rule="nonzero" fill-opacity="1" /><path clip-path="url(#clip510)" d="M2109.83 1256.36 L2131.68 1256.36 L2131.68 1260.29 L2114.51 1260.29 L2114.51 1270.52 L2130.97 1270.52 L2130.97 1274.46 L2114.51 1274.46 L2114.51 1286.98 L2132.1 1286.98 L2132.1 1290.92 L2109.83 1290.92 L2109.83 1256.36 Z" fill="#000000" fill-rule="nonzero" fill-opacity="1" /><polyline clip-path="url(#clip510)" style="stroke:#e26f46; stroke-linecap:round; stroke-linejoin:round; stroke-width:4; stroke-opacity:1; fill:none" points="1760.23,1325.48 1900.94,1325.48 "/>
<path clip-path="url(#clip510)" d="M1929.07 1326.25 L1929.07 1338.91 L1936.57 1338.91 Q1940.34 1338.91 1942.15 1337.36 Q1943.98 1335.79 1943.98 1332.57 Q1943.98 1329.33 1942.15 1327.8 Q1940.34 1326.25 1936.57 1326.25 L1929.07 1326.25 M1929.07 1312.04 L1929.07 1322.45 L1935.99 1322.45 Q1939.42 1322.45 1941.08 1321.18 Q1942.77 1319.89 1942.77 1317.25 Q1942.77 1314.63 1941.08 1313.33 Q1939.42 1312.04 1935.99 1312.04 L1929.07 1312.04 M1924.39 1308.2 L1936.34 1308.2 Q1941.68 1308.2 1944.58 1310.42 Q1947.47 1312.64 1947.47 1316.74 Q1947.47 1319.91 1945.99 1321.78 Q1944.51 1323.66 1941.64 1324.12 Q1945.09 1324.86 1946.98 1327.22 Q1948.91 1329.56 1948.91 1333.08 Q1948.91 1337.71 1945.76 1340.23 Q1942.61 1342.76 1936.8 1342.76 L1924.39 1342.76 L1924.39 1308.2 Z" fill="#000000" fill-rule="nonzero" fill-opacity="1" /><path clip-path="url(#clip510)" d="M1961.59 1326.25 L1961.59 1338.91 L1969.09 1338.91 Q1972.86 1338.91 1974.67 1337.36 Q1976.5 1335.79 1976.5 1332.57 Q1976.5 1329.33 1974.67 1327.8 Q1972.86 1326.25 1969.09 1326.25 L1961.59 1326.25 M1961.59 1312.04 L1961.59 1322.45 L1968.51 1322.45 Q1971.94 1322.45 1973.6 1321.18 Q1975.29 1319.89 1975.29 1317.25 Q1975.29 1314.63 1973.6 1313.33 Q1971.94 1312.04 1968.51 1312.04 L1961.59 1312.04 M1956.92 1308.2 L1968.86 1308.2 Q1974.21 1308.2 1977.1 1310.42 Q1979.99 1312.64 1979.99 1316.74 Q1979.99 1319.91 1978.51 1321.78 Q1977.03 1323.66 1974.16 1324.12 Q1977.61 1324.86 1979.51 1327.22 Q1981.43 1329.56 1981.43 1333.08 Q1981.43 1337.71 1978.28 1340.23 Q1975.13 1342.76 1969.32 1342.76 L1956.92 1342.76 L1956.92 1308.2 Z" fill="#000000" fill-rule="nonzero" fill-opacity="1" /><path clip-path="url(#clip510)" d="M1996.89 1342.76 L1983.7 1308.2 L1988.58 1308.2 L1999.53 1337.29 L2010.5 1308.2 L2015.36 1308.2 L2002.19 1342.76 L1996.89 1342.76 Z" fill="#000000" fill-rule="nonzero" fill-opacity="1" /><path clip-path="url(#clip510)" d="M2020.41 1308.2 L2025.09 1308.2 L2025.09 1342.76 L2020.41 1342.76 L2020.41 1308.2 Z" fill="#000000" fill-rule="nonzero" fill-opacity="1" /><path clip-path="url(#clip510)" d="M2075.34 1310.86 L2075.34 1315.79 Q2072.98 1313.59 2070.29 1312.5 Q2067.63 1311.41 2064.62 1311.41 Q2058.7 1311.41 2055.55 1315.05 Q2052.4 1318.66 2052.4 1325.51 Q2052.4 1332.34 2055.55 1335.97 Q2058.7 1339.58 2064.62 1339.58 Q2067.63 1339.58 2070.29 1338.5 Q2072.98 1337.41 2075.34 1335.21 L2075.34 1340.09 Q2072.89 1341.76 2070.13 1342.59 Q2067.4 1343.43 2064.35 1343.43 Q2056.5 1343.43 2051.98 1338.63 Q2047.47 1333.82 2047.47 1325.51 Q2047.47 1317.18 2051.98 1312.39 Q2056.5 1307.57 2064.35 1307.57 Q2067.45 1307.57 2070.18 1308.4 Q2072.93 1309.21 2075.34 1310.86 Z" fill="#000000" fill-rule="nonzero" fill-opacity="1" /><path clip-path="url(#clip510)" d="M2082.56 1308.2 L2102.42 1308.2 L2102.42 1312.13 L2087.24 1312.13 L2087.24 1322.32 L2100.94 1322.32 L2100.94 1326.25 L2087.24 1326.25 L2087.24 1342.76 L2082.56 1342.76 L2082.56 1308.2 Z" fill="#000000" fill-rule="nonzero" fill-opacity="1" /><path clip-path="url(#clip510)" d="M2109.83 1308.2 L2131.68 1308.2 L2131.68 1312.13 L2114.51 1312.13 L2114.51 1322.36 L2130.97 1322.36 L2130.97 1326.3 L2114.51 1326.3 L2114.51 1338.82 L2132.1 1338.82 L2132.1 1342.76 L2109.83 1342.76 L2109.83 1308.2 Z" fill="#000000" fill-rule="nonzero" fill-opacity="1" /><path clip-path="url(#clip510)" d="M2168.88 1311.37 Q2163.79 1311.37 2160.78 1315.16 Q2157.79 1318.96 2157.79 1325.51 Q2157.79 1332.04 2160.78 1335.83 Q2163.79 1339.63 2168.88 1339.63 Q2173.97 1339.63 2176.94 1335.83 Q2179.92 1332.04 2179.92 1325.51 Q2179.92 1318.96 2176.94 1315.16 Q2173.97 1311.37 2168.88 1311.37 M2175.43 1342.13 L2181.59 1348.87 L2175.94 1348.87 L2170.83 1343.33 Q2170.06 1343.38 2169.65 1343.4 Q2169.25 1343.43 2168.88 1343.43 Q2161.59 1343.43 2157.21 1338.57 Q2152.86 1333.68 2152.86 1325.51 Q2152.86 1317.32 2157.21 1312.45 Q2161.59 1307.57 2168.88 1307.57 Q2176.15 1307.57 2180.5 1312.45 Q2184.85 1317.32 2184.85 1325.51 Q2184.85 1331.53 2182.42 1335.81 Q2180.02 1340.09 2175.43 1342.13 Z" fill="#000000" fill-rule="nonzero" fill-opacity="1" /><path clip-path="url(#clip510)" d="M2192.17 1308.2 L2199.14 1308.2 L2207.96 1331.71 L2216.82 1308.2 L2223.79 1308.2 L2223.79 1342.76 L2219.23 1342.76 L2219.23 1312.41 L2210.32 1336.11 L2205.62 1336.11 L2196.71 1312.41 L2196.71 1342.76 L2192.17 1342.76 L2192.17 1308.2 Z" fill="#000000" fill-rule="nonzero" fill-opacity="1" /><path clip-path="url(#clip510)" d="M2258.95 1310.86 L2258.95 1315.79 Q2256.59 1313.59 2253.9 1312.5 Q2251.24 1311.41 2248.23 1311.41 Q2242.31 1311.41 2239.16 1315.05 Q2236.01 1318.66 2236.01 1325.51 Q2236.01 1332.34 2239.16 1335.97 Q2242.31 1339.58 2248.23 1339.58 Q2251.24 1339.58 2253.9 1338.5 Q2256.59 1337.41 2258.95 1335.21 L2258.95 1340.09 Q2256.5 1341.76 2253.74 1342.59 Q2251.01 1343.43 2247.96 1343.43 Q2240.11 1343.43 2235.59 1338.63 Q2231.08 1333.82 2231.08 1325.51 Q2231.08 1317.18 2235.59 1312.39 Q2240.11 1307.57 2247.96 1307.57 Q2251.06 1307.57 2253.79 1308.4 Q2256.54 1309.21 2258.95 1310.86 Z" fill="#000000" fill-rule="nonzero" fill-opacity="1" /></svg>
