<?xml version="1.0" encoding="utf-8"?>
<svg xmlns="http://www.w3.org/2000/svg" xmlns:xlink="http://www.w3.org/1999/xlink" width="600" height="400" viewBox="0 0 2400 1600">
<defs>
  <clipPath id="clip980">
    <rect x="0" y="0" width="2400" height="1600"/>
  </clipPath>
</defs>
<path clip-path="url(#clip980)" d="M0 1600 L2400 1600 L2400 0 L0 0  Z" fill="#ffffff" fill-rule="evenodd" fill-opacity="1"/>
<defs>
  <clipPath id="clip981">
    <rect x="202" y="47" width="2152" height="1377"/>
  </clipPath>
</defs>
<path clip-path="url(#clip980)" d="M242.135 1423.18 L2352.76 1423.18 L2352.76 47.2441 L242.135 47.2441  Z" fill="#ffffff" fill-rule="evenodd" fill-opacity="1"/>
<defs>
  <clipPath id="clip982">
    <rect x="242" y="47" width="2112" height="1377"/>
  </clipPath>
</defs>
<polyline clip-path="url(#clip982)" style="stroke:#000000; stroke-linecap:round; stroke-linejoin:round; stroke-width:2; stroke-opacity:0.1; fill:none" points="299.876,1423.18 299.876,47.2441 "/>
<polyline clip-path="url(#clip982)" style="stroke:#000000; stroke-linecap:round; stroke-linejoin:round; stroke-width:2; stroke-opacity:0.1; fill:none" points="798.162,1423.18 798.162,47.2441 "/>
<polyline clip-path="url(#clip982)" style="stroke:#000000; stroke-linecap:round; stroke-linejoin:round; stroke-width:2; stroke-opacity:0.1; fill:none" points="1296.45,1423.18 1296.45,47.2441 "/>
<polyline clip-path="url(#clip982)" style="stroke:#000000; stroke-linecap:round; stroke-linejoin:round; stroke-width:2; stroke-opacity:0.1; fill:none" points="1794.74,1423.18 1794.74,47.2441 "/>
<polyline clip-path="url(#clip982)" style="stroke:#000000; stroke-linecap:round; stroke-linejoin:round; stroke-width:2; stroke-opacity:0.1; fill:none" points="2293.02,1423.18 2293.02,47.2441 "/>
<polyline clip-path="url(#clip982)" style="stroke:#000000; stroke-linecap:round; stroke-linejoin:round; stroke-width:2; stroke-opacity:0.1; fill:none" points="242.135,1335.23 2352.76,1335.23 "/>
<polyline clip-path="url(#clip982)" style="stroke:#000000; stroke-linecap:round; stroke-linejoin:round; stroke-width:2; stroke-opacity:0.1; fill:none" points="242.135,973.616 2352.76,973.616 "/>
<polyline clip-path="url(#clip982)" style="stroke:#000000; stroke-linecap:round; stroke-linejoin:round; stroke-width:2; stroke-opacity:0.1; fill:none" points="242.135,612 2352.76,612 "/>
<polyline clip-path="url(#clip982)" style="stroke:#000000; stroke-linecap:round; stroke-linejoin:round; stroke-width:2; stroke-opacity:0.1; fill:none" points="242.135,250.385 2352.76,250.385 "/>
<polyline clip-path="url(#clip980)" style="stroke:#000000; stroke-linecap:round; stroke-linejoin:round; stroke-width:4; stroke-opacity:1; fill:none" points="242.135,1423.18 2352.76,1423.18 "/>
<polyline clip-path="url(#clip980)" style="stroke:#000000; stroke-linecap:round; stroke-linejoin:round; stroke-width:4; stroke-opacity:1; fill:none" points="299.876,1423.18 299.876,1404.28 "/>
<polyline clip-path="url(#clip980)" style="stroke:#000000; stroke-linecap:round; stroke-linejoin:round; stroke-width:4; stroke-opacity:1; fill:none" points="798.162,1423.18 798.162,1404.28 "/>
<polyline clip-path="url(#clip980)" style="stroke:#000000; stroke-linecap:round; stroke-linejoin:round; stroke-width:4; stroke-opacity:1; fill:none" points="1296.45,1423.18 1296.45,1404.28 "/>
<polyline clip-path="url(#clip980)" style="stroke:#000000; stroke-linecap:round; stroke-linejoin:round; stroke-width:4; stroke-opacity:1; fill:none" points="1794.74,1423.18 1794.74,1404.28 "/>
<polyline clip-path="url(#clip980)" style="stroke:#000000; stroke-linecap:round; stroke-linejoin:round; stroke-width:4; stroke-opacity:1; fill:none" points="2293.02,1423.18 2293.02,1404.28 "/>
<path clip-path="url(#clip980)" d="M299.876 1454.1 Q296.265 1454.1 294.436 1457.66 Q292.631 1461.2 292.631 1468.33 Q292.631 1475.44 294.436 1479.01 Q296.265 1482.55 299.876 1482.55 Q303.51 1482.55 305.316 1479.01 Q307.145 1475.44 307.145 1468.33 Q307.145 1461.2 305.316 1457.66 Q303.51 1454.1 299.876 1454.1 M299.876 1450.39 Q305.686 1450.39 308.742 1455 Q311.82 1459.58 311.82 1468.33 Q311.82 1477.06 308.742 1481.67 Q305.686 1486.25 299.876 1486.25 Q294.066 1486.25 290.987 1481.67 Q287.932 1477.06 287.932 1468.33 Q287.932 1459.58 290.987 1455 Q294.066 1450.39 299.876 1450.39 Z" fill="#000000" fill-rule="nonzero" fill-opacity="1" /><path clip-path="url(#clip980)" d="M761.855 1481.64 L778.174 1481.64 L778.174 1485.58 L756.23 1485.58 L756.23 1481.64 Q758.892 1478.89 763.475 1474.26 Q768.082 1469.61 769.262 1468.27 Q771.507 1465.74 772.387 1464.01 Q773.29 1462.25 773.29 1460.56 Q773.29 1457.8 771.345 1456.07 Q769.424 1454.33 766.322 1454.33 Q764.123 1454.33 761.67 1455.09 Q759.239 1455.86 756.461 1457.41 L756.461 1452.69 Q759.285 1451.55 761.739 1450.97 Q764.193 1450.39 766.23 1450.39 Q771.6 1450.39 774.794 1453.08 Q777.989 1455.77 777.989 1460.26 Q777.989 1462.39 777.179 1464.31 Q776.392 1466.2 774.285 1468.8 Q773.707 1469.47 770.605 1472.69 Q767.503 1475.88 761.855 1481.64 Z" fill="#000000" fill-rule="nonzero" fill-opacity="1" /><path clip-path="url(#clip980)" d="M788.035 1451.02 L806.392 1451.02 L806.392 1454.96 L792.318 1454.96 L792.318 1463.43 Q793.336 1463.08 794.355 1462.92 Q795.373 1462.73 796.392 1462.73 Q802.179 1462.73 805.558 1465.9 Q808.938 1469.08 808.938 1474.49 Q808.938 1480.07 805.466 1483.17 Q801.993 1486.25 795.674 1486.25 Q793.498 1486.25 791.23 1485.88 Q788.984 1485.51 786.577 1484.77 L786.577 1480.07 Q788.66 1481.2 790.882 1481.76 Q793.105 1482.32 795.581 1482.32 Q799.586 1482.32 801.924 1480.21 Q804.262 1478.1 804.262 1474.49 Q804.262 1470.88 801.924 1468.77 Q799.586 1466.67 795.581 1466.67 Q793.706 1466.67 791.831 1467.08 Q789.98 1467.5 788.035 1468.38 L788.035 1451.02 Z" fill="#000000" fill-rule="nonzero" fill-opacity="1" /><path clip-path="url(#clip980)" d="M828.151 1454.1 Q824.54 1454.1 822.711 1457.66 Q820.905 1461.2 820.905 1468.33 Q820.905 1475.44 822.711 1479.01 Q824.54 1482.55 828.151 1482.55 Q831.785 1482.55 833.59 1479.01 Q835.419 1475.44 835.419 1468.33 Q835.419 1461.2 833.59 1457.66 Q831.785 1454.1 828.151 1454.1 M828.151 1450.39 Q833.961 1450.39 837.016 1455 Q840.095 1459.58 840.095 1468.33 Q840.095 1477.06 837.016 1481.67 Q833.961 1486.25 828.151 1486.25 Q822.341 1486.25 819.262 1481.67 Q816.206 1477.06 816.206 1468.33 Q816.206 1459.58 819.262 1455 Q822.341 1450.39 828.151 1450.39 Z" fill="#000000" fill-rule="nonzero" fill-opacity="1" /><path clip-path="url(#clip980)" d="M1256.07 1451.02 L1274.42 1451.02 L1274.42 1454.96 L1260.35 1454.96 L1260.35 1463.43 Q1261.37 1463.08 1262.39 1462.92 Q1263.4 1462.73 1264.42 1462.73 Q1270.21 1462.73 1273.59 1465.9 Q1276.97 1469.08 1276.97 1474.49 Q1276.97 1480.07 1273.5 1483.17 Q1270.03 1486.25 1263.71 1486.25 Q1261.53 1486.25 1259.26 1485.88 Q1257.02 1485.51 1254.61 1484.77 L1254.61 1480.07 Q1256.69 1481.2 1258.91 1481.76 Q1261.14 1482.32 1263.61 1482.32 Q1267.62 1482.32 1269.96 1480.21 Q1272.29 1478.1 1272.29 1474.49 Q1272.29 1470.88 1269.96 1468.77 Q1267.62 1466.67 1263.61 1466.67 Q1261.74 1466.67 1259.86 1467.08 Q1258.01 1467.5 1256.07 1468.38 L1256.07 1451.02 Z" fill="#000000" fill-rule="nonzero" fill-opacity="1" /><path clip-path="url(#clip980)" d="M1296.18 1454.1 Q1292.57 1454.1 1290.74 1457.66 Q1288.94 1461.2 1288.94 1468.33 Q1288.94 1475.44 1290.74 1479.01 Q1292.57 1482.55 1296.18 1482.55 Q1299.82 1482.55 1301.62 1479.01 Q1303.45 1475.44 1303.45 1468.33 Q1303.45 1461.2 1301.62 1457.66 Q1299.82 1454.1 1296.18 1454.1 M1296.18 1450.39 Q1301.99 1450.39 1305.05 1455 Q1308.13 1459.58 1308.13 1468.33 Q1308.13 1477.06 1305.05 1481.67 Q1301.99 1486.25 1296.18 1486.25 Q1290.37 1486.25 1287.29 1481.67 Q1284.24 1477.06 1284.24 1468.33 Q1284.24 1459.58 1287.29 1455 Q1290.37 1450.39 1296.18 1450.39 Z" fill="#000000" fill-rule="nonzero" fill-opacity="1" /><path clip-path="url(#clip980)" d="M1326.34 1454.1 Q1322.73 1454.1 1320.9 1457.66 Q1319.1 1461.2 1319.1 1468.33 Q1319.1 1475.44 1320.9 1479.01 Q1322.73 1482.55 1326.34 1482.55 Q1329.98 1482.55 1331.78 1479.01 Q1333.61 1475.44 1333.61 1468.33 Q1333.61 1461.2 1331.78 1457.66 Q1329.98 1454.1 1326.34 1454.1 M1326.34 1450.39 Q1332.15 1450.39 1335.21 1455 Q1338.29 1459.58 1338.29 1468.33 Q1338.29 1477.06 1335.21 1481.67 Q1332.15 1486.25 1326.34 1486.25 Q1320.53 1486.25 1317.46 1481.67 Q1314.4 1477.06 1314.4 1468.33 Q1314.4 1459.58 1317.46 1455 Q1320.53 1450.39 1326.34 1450.39 Z" fill="#000000" fill-rule="nonzero" fill-opacity="1" /><path clip-path="url(#clip980)" d="M1753.01 1451.02 L1775.23 1451.02 L1775.23 1453.01 L1762.69 1485.58 L1757.8 1485.58 L1769.61 1454.96 L1753.01 1454.96 L1753.01 1451.02 Z" fill="#000000" fill-rule="nonzero" fill-opacity="1" /><path clip-path="url(#clip980)" d="M1784.4 1451.02 L1802.76 1451.02 L1802.76 1454.96 L1788.68 1454.96 L1788.68 1463.43 Q1789.7 1463.08 1790.72 1462.92 Q1791.74 1462.73 1792.76 1462.73 Q1798.54 1462.73 1801.92 1465.9 Q1805.3 1469.08 1805.3 1474.49 Q1805.3 1480.07 1801.83 1483.17 Q1798.36 1486.25 1792.04 1486.25 Q1789.86 1486.25 1787.59 1485.88 Q1785.35 1485.51 1782.94 1484.77 L1782.94 1480.07 Q1785.02 1481.2 1787.25 1481.76 Q1789.47 1482.32 1791.95 1482.32 Q1795.95 1482.32 1798.29 1480.21 Q1800.63 1478.1 1800.63 1474.49 Q1800.63 1470.88 1798.29 1468.77 Q1795.95 1466.67 1791.95 1466.67 Q1790.07 1466.67 1788.2 1467.08 Q1786.34 1467.5 1784.4 1468.38 L1784.4 1451.02 Z" fill="#000000" fill-rule="nonzero" fill-opacity="1" /><path clip-path="url(#clip980)" d="M1824.51 1454.1 Q1820.9 1454.1 1819.08 1457.66 Q1817.27 1461.2 1817.27 1468.33 Q1817.27 1475.44 1819.08 1479.01 Q1820.9 1482.55 1824.51 1482.55 Q1828.15 1482.55 1829.95 1479.01 Q1831.78 1475.44 1831.78 1468.33 Q1831.78 1461.2 1829.95 1457.66 Q1828.15 1454.1 1824.51 1454.1 M1824.51 1450.39 Q1830.33 1450.39 1833.38 1455 Q1836.46 1459.58 1836.46 1468.33 Q1836.46 1477.06 1833.38 1481.67 Q1830.33 1486.25 1824.51 1486.25 Q1818.7 1486.25 1815.63 1481.67 Q1812.57 1477.06 1812.57 1468.33 Q1812.57 1459.58 1815.63 1455 Q1818.7 1450.39 1824.51 1450.39 Z" fill="#000000" fill-rule="nonzero" fill-opacity="1" /><path clip-path="url(#clip980)" d="M2237.55 1481.64 L2245.19 1481.64 L2245.19 1455.28 L2236.88 1456.95 L2236.88 1452.69 L2245.14 1451.02 L2249.82 1451.02 L2249.82 1481.64 L2257.45 1481.64 L2257.45 1485.58 L2237.55 1485.58 L2237.55 1481.64 Z" fill="#000000" fill-rule="nonzero" fill-opacity="1" /><path clip-path="url(#clip980)" d="M2276.9 1454.1 Q2273.29 1454.1 2271.46 1457.66 Q2269.65 1461.2 2269.65 1468.33 Q2269.65 1475.44 2271.46 1479.01 Q2273.29 1482.55 2276.9 1482.55 Q2280.53 1482.55 2282.34 1479.01 Q2284.17 1475.44 2284.17 1468.33 Q2284.17 1461.2 2282.34 1457.66 Q2280.53 1454.1 2276.9 1454.1 M2276.9 1450.39 Q2282.71 1450.39 2285.76 1455 Q2288.84 1459.58 2288.84 1468.33 Q2288.84 1477.06 2285.76 1481.67 Q2282.71 1486.25 2276.9 1486.25 Q2271.09 1486.25 2268.01 1481.67 Q2264.95 1477.06 2264.95 1468.33 Q2264.95 1459.58 2268.01 1455 Q2271.09 1450.39 2276.9 1450.39 Z" fill="#000000" fill-rule="nonzero" fill-opacity="1" /><path clip-path="url(#clip980)" d="M2307.06 1454.1 Q2303.45 1454.1 2301.62 1457.66 Q2299.82 1461.2 2299.82 1468.33 Q2299.82 1475.44 2301.62 1479.01 Q2303.45 1482.55 2307.06 1482.55 Q2310.69 1482.55 2312.5 1479.01 Q2314.33 1475.44 2314.33 1468.33 Q2314.33 1461.2 2312.5 1457.66 Q2310.69 1454.1 2307.06 1454.1 M2307.06 1450.39 Q2312.87 1450.39 2315.93 1455 Q2319 1459.58 2319 1468.33 Q2319 1477.06 2315.93 1481.67 Q2312.87 1486.25 2307.06 1486.25 Q2301.25 1486.25 2298.17 1481.67 Q2295.12 1477.06 2295.12 1468.33 Q2295.12 1459.58 2298.17 1455 Q2301.25 1450.39 2307.06 1450.39 Z" fill="#000000" fill-rule="nonzero" fill-opacity="1" /><path clip-path="url(#clip980)" d="M2337.22 1454.1 Q2333.61 1454.1 2331.78 1457.66 Q2329.98 1461.2 2329.98 1468.33 Q2329.98 1475.44 2331.78 1479.01 Q2333.61 1482.55 2337.22 1482.55 Q2340.86 1482.55 2342.66 1479.01 Q2344.49 1475.44 2344.49 1468.33 Q2344.49 1461.2 2342.66 1457.66 Q2340.86 1454.1 2337.22 1454.1 M2337.22 1450.39 Q2343.03 1450.39 2346.09 1455 Q2349.17 1459.58 2349.17 1468.33 Q2349.17 1477.06 2346.09 1481.67 Q2343.03 1486.25 2337.22 1486.25 Q2331.41 1486.25 2328.33 1481.67 Q2325.28 1477.06 2325.28 1468.33 Q2325.28 1459.58 2328.33 1455 Q2331.41 1450.39 2337.22 1450.39 Z" fill="#000000" fill-rule="nonzero" fill-opacity="1" /><path clip-path="url(#clip980)" d="M1165.17 1520.52 L1171.6 1520.52 L1171.6 1568.04 L1165.17 1568.04 L1165.17 1520.52 Z" fill="#000000" fill-rule="nonzero" fill-opacity="1" /><path clip-path="url(#clip980)" d="M1189.93 1522.27 L1189.93 1532.4 L1201.99 1532.4 L1201.99 1536.95 L1189.93 1536.95 L1189.93 1556.3 Q1189.93 1560.66 1191.11 1561.9 Q1192.32 1563.14 1195.98 1563.14 L1201.99 1563.14 L1201.99 1568.04 L1195.98 1568.04 Q1189.2 1568.04 1186.62 1565.53 Q1184.04 1562.98 1184.04 1556.3 L1184.04 1536.95 L1179.74 1536.95 L1179.74 1532.4 L1184.04 1532.4 L1184.04 1522.27 L1189.93 1522.27 Z" fill="#000000" fill-rule="nonzero" fill-opacity="1" /><path clip-path="url(#clip980)" d="M1240.19 1548.76 L1240.19 1551.62 L1213.26 1551.62 Q1213.64 1557.67 1216.89 1560.85 Q1220.17 1564 1225.99 1564 Q1229.36 1564 1232.52 1563.17 Q1235.7 1562.35 1238.82 1560.69 L1238.82 1566.23 Q1235.67 1567.57 1232.36 1568.27 Q1229.05 1568.97 1225.64 1568.97 Q1217.11 1568.97 1212.11 1564 Q1207.15 1559.04 1207.15 1550.57 Q1207.15 1541.82 1211.86 1536.69 Q1216.6 1531.54 1224.62 1531.54 Q1231.81 1531.54 1235.98 1536.18 Q1240.19 1540.8 1240.19 1548.76 M1234.33 1547.04 Q1234.27 1542.23 1231.62 1539.37 Q1229.01 1536.5 1224.69 1536.5 Q1219.78 1536.5 1216.82 1539.27 Q1213.9 1542.04 1213.45 1547.07 L1234.33 1547.04 Z" fill="#000000" fill-rule="nonzero" fill-opacity="1" /><path clip-path="url(#clip980)" d="M1270.45 1537.87 Q1269.47 1537.3 1268.29 1537.04 Q1267.14 1536.76 1265.74 1536.76 Q1260.78 1536.76 1258.11 1540 Q1255.46 1543.22 1255.46 1549.27 L1255.46 1568.04 L1249.58 1568.04 L1249.58 1532.4 L1255.46 1532.4 L1255.46 1537.93 Q1257.31 1534.69 1260.27 1533.13 Q1263.23 1531.54 1267.46 1531.54 Q1268.07 1531.54 1268.8 1531.63 Q1269.53 1531.7 1270.42 1531.85 L1270.45 1537.87 Z" fill="#000000" fill-rule="nonzero" fill-opacity="1" /><path clip-path="url(#clip980)" d="M1292.8 1550.12 Q1285.7 1550.12 1282.96 1551.75 Q1280.23 1553.37 1280.23 1557.29 Q1280.23 1560.4 1282.26 1562.25 Q1284.33 1564.07 1287.86 1564.07 Q1292.73 1564.07 1295.66 1560.63 Q1298.62 1557.16 1298.62 1551.43 L1298.62 1550.12 L1292.8 1550.12 M1304.48 1547.71 L1304.48 1568.04 L1298.62 1568.04 L1298.62 1562.63 Q1296.62 1565.88 1293.63 1567.44 Q1290.63 1568.97 1286.31 1568.97 Q1280.83 1568.97 1277.58 1565.91 Q1274.37 1562.82 1274.37 1557.67 Q1274.37 1551.65 1278.38 1548.6 Q1282.42 1545.54 1290.41 1545.54 L1298.62 1545.54 L1298.62 1544.97 Q1298.62 1540.93 1295.95 1538.73 Q1293.31 1536.5 1288.5 1536.5 Q1285.45 1536.5 1282.55 1537.23 Q1279.65 1537.97 1276.98 1539.43 L1276.98 1534.02 Q1280.19 1532.78 1283.22 1532.17 Q1286.24 1531.54 1289.11 1531.54 Q1296.84 1531.54 1300.66 1535.55 Q1304.48 1539.56 1304.48 1547.71 Z" fill="#000000" fill-rule="nonzero" fill-opacity="1" /><path clip-path="url(#clip980)" d="M1322.34 1522.27 L1322.34 1532.4 L1334.4 1532.4 L1334.4 1536.95 L1322.34 1536.95 L1322.34 1556.3 Q1322.34 1560.66 1323.51 1561.9 Q1324.72 1563.14 1328.38 1563.14 L1334.4 1563.14 L1334.4 1568.04 L1328.38 1568.04 Q1321.6 1568.04 1319.03 1565.53 Q1316.45 1562.98 1316.45 1556.3 L1316.45 1536.95 L1312.15 1536.95 L1312.15 1532.4 L1316.45 1532.4 L1316.45 1522.27 L1322.34 1522.27 Z" fill="#000000" fill-rule="nonzero" fill-opacity="1" /><path clip-path="url(#clip980)" d="M1342.1 1532.4 L1347.96 1532.4 L1347.96 1568.04 L1342.1 1568.04 L1342.1 1532.4 M1342.1 1518.52 L1347.96 1518.52 L1347.96 1525.93 L1342.1 1525.93 L1342.1 1518.52 Z" fill="#000000" fill-rule="nonzero" fill-opacity="1" /><path clip-path="url(#clip980)" d="M1374.02 1536.5 Q1369.31 1536.5 1366.58 1540.19 Q1363.84 1543.85 1363.84 1550.25 Q1363.84 1556.65 1366.55 1560.34 Q1369.28 1564 1374.02 1564 Q1378.7 1564 1381.44 1560.31 Q1384.18 1556.62 1384.18 1550.25 Q1384.18 1543.92 1381.44 1540.23 Q1378.7 1536.5 1374.02 1536.5 M1374.02 1531.54 Q1381.66 1531.54 1386.02 1536.5 Q1390.38 1541.47 1390.38 1550.25 Q1390.38 1559 1386.02 1564 Q1381.66 1568.97 1374.02 1568.97 Q1366.35 1568.97 1361.99 1564 Q1357.66 1559 1357.66 1550.25 Q1357.66 1541.47 1361.99 1536.5 Q1366.35 1531.54 1374.02 1531.54 Z" fill="#000000" fill-rule="nonzero" fill-opacity="1" /><path clip-path="url(#clip980)" d="M1429.72 1546.53 L1429.72 1568.04 L1423.87 1568.04 L1423.87 1546.72 Q1423.87 1541.66 1421.89 1539.14 Q1419.92 1536.63 1415.97 1536.63 Q1411.23 1536.63 1408.5 1539.65 Q1405.76 1542.68 1405.76 1547.9 L1405.76 1568.04 L1399.87 1568.04 L1399.87 1532.4 L1405.76 1532.4 L1405.76 1537.93 Q1407.86 1534.72 1410.69 1533.13 Q1413.56 1531.54 1417.28 1531.54 Q1423.42 1531.54 1426.57 1535.36 Q1429.72 1539.14 1429.72 1546.53 Z" fill="#000000" fill-rule="nonzero" fill-opacity="1" /><polyline clip-path="url(#clip980)" style="stroke:#000000; stroke-linecap:round; stroke-linejoin:round; stroke-width:4; stroke-opacity:1; fill:none" points="242.135,1423.18 242.135,47.2441 "/>
<polyline clip-path="url(#clip980)" style="stroke:#000000; stroke-linecap:round; stroke-linejoin:round; stroke-width:4; stroke-opacity:1; fill:none" points="242.135,1335.23 261.032,1335.23 "/>
<polyline clip-path="url(#clip980)" style="stroke:#000000; stroke-linecap:round; stroke-linejoin:round; stroke-width:4; stroke-opacity:1; fill:none" points="242.135,973.616 261.032,973.616 "/>
<polyline clip-path="url(#clip980)" style="stroke:#000000; stroke-linecap:round; stroke-linejoin:round; stroke-width:4; stroke-opacity:1; fill:none" points="242.135,612 261.032,612 "/>
<polyline clip-path="url(#clip980)" style="stroke:#000000; stroke-linecap:round; stroke-linejoin:round; stroke-width:4; stroke-opacity:1; fill:none" points="242.135,250.385 261.032,250.385 "/>
<path clip-path="url(#clip980)" d="M114.26 1335.68 L143.936 1335.68 L143.936 1339.62 L114.26 1339.62 L114.26 1335.68 Z" fill="#000000" fill-rule="nonzero" fill-opacity="1" /><path clip-path="url(#clip980)" d="M168.195 1333.88 Q171.552 1334.6 173.427 1336.86 Q175.325 1339.13 175.325 1342.47 Q175.325 1347.58 171.806 1350.38 Q168.288 1353.18 161.806 1353.18 Q159.63 1353.18 157.315 1352.74 Q155.024 1352.33 152.57 1351.47 L152.57 1346.96 Q154.515 1348.09 156.829 1348.67 Q159.144 1349.25 161.667 1349.25 Q166.065 1349.25 168.357 1347.51 Q170.672 1345.78 170.672 1342.47 Q170.672 1339.41 168.519 1337.7 Q166.39 1335.96 162.57 1335.96 L158.542 1335.96 L158.542 1332.12 L162.755 1332.12 Q166.204 1332.12 168.033 1330.75 Q169.862 1329.36 169.862 1326.77 Q169.862 1324.11 167.964 1322.7 Q166.089 1321.26 162.57 1321.26 Q160.649 1321.26 158.45 1321.68 Q156.251 1322.1 153.612 1322.97 L153.612 1318.81 Q156.274 1318.07 158.589 1317.7 Q160.927 1317.33 162.987 1317.33 Q168.311 1317.33 171.413 1319.76 Q174.514 1322.16 174.514 1326.28 Q174.514 1329.16 172.871 1331.15 Q171.227 1333.11 168.195 1333.88 Z" fill="#000000" fill-rule="nonzero" fill-opacity="1" /><path clip-path="url(#clip980)" d="M194.19 1321.03 Q190.579 1321.03 188.75 1324.6 Q186.945 1328.14 186.945 1335.27 Q186.945 1342.37 188.75 1345.94 Q190.579 1349.48 194.19 1349.48 Q197.825 1349.48 199.63 1345.94 Q201.459 1342.37 201.459 1335.27 Q201.459 1328.14 199.63 1324.6 Q197.825 1321.03 194.19 1321.03 M194.19 1317.33 Q200 1317.33 203.056 1321.93 Q206.135 1326.52 206.135 1335.27 Q206.135 1343.99 203.056 1348.6 Q200 1353.18 194.19 1353.18 Q188.38 1353.18 185.301 1348.6 Q182.246 1343.99 182.246 1335.27 Q182.246 1326.52 185.301 1321.93 Q188.38 1317.33 194.19 1317.33 Z" fill="#000000" fill-rule="nonzero" fill-opacity="1" /><path clip-path="url(#clip980)" d="M114.26 974.067 L143.936 974.067 L143.936 978.003 L114.26 978.003 L114.26 974.067 Z" fill="#000000" fill-rule="nonzero" fill-opacity="1" /><path clip-path="url(#clip980)" d="M158.056 986.961 L174.376 986.961 L174.376 990.896 L152.431 990.896 L152.431 986.961 Q155.093 984.206 159.677 979.577 Q164.283 974.924 165.464 973.581 Q167.709 971.058 168.589 969.322 Q169.491 967.563 169.491 965.873 Q169.491 963.118 167.547 961.382 Q165.626 959.646 162.524 959.646 Q160.325 959.646 157.871 960.41 Q155.44 961.174 152.663 962.725 L152.663 958.003 Q155.487 956.868 157.94 956.29 Q160.394 955.711 162.431 955.711 Q167.802 955.711 170.996 958.396 Q174.19 961.081 174.19 965.572 Q174.19 967.702 173.38 969.623 Q172.593 971.521 170.487 974.114 Q169.908 974.785 166.806 978.003 Q163.704 981.197 158.056 986.961 Z" fill="#000000" fill-rule="nonzero" fill-opacity="1" /><path clip-path="url(#clip980)" d="M194.19 959.415 Q190.579 959.415 188.75 962.979 Q186.945 966.521 186.945 973.651 Q186.945 980.757 188.75 984.322 Q190.579 987.864 194.19 987.864 Q197.825 987.864 199.63 984.322 Q201.459 980.757 201.459 973.651 Q201.459 966.521 199.63 962.979 Q197.825 959.415 194.19 959.415 M194.19 955.711 Q200 955.711 203.056 960.317 Q206.135 964.901 206.135 973.651 Q206.135 982.378 203.056 986.984 Q200 991.567 194.19 991.567 Q188.38 991.567 185.301 986.984 Q182.246 982.378 182.246 973.651 Q182.246 964.901 185.301 960.317 Q188.38 955.711 194.19 955.711 Z" fill="#000000" fill-rule="nonzero" fill-opacity="1" /><path clip-path="url(#clip980)" d="M114.26 612.452 L143.936 612.452 L143.936 616.387 L114.26 616.387 L114.26 612.452 Z" fill="#000000" fill-rule="nonzero" fill-opacity="1" /><path clip-path="url(#clip980)" d="M154.839 625.345 L162.477 625.345 L162.477 598.98 L154.167 600.646 L154.167 596.387 L162.431 594.72 L167.107 594.72 L167.107 625.345 L174.746 625.345 L174.746 629.28 L154.839 629.28 L154.839 625.345 Z" fill="#000000" fill-rule="nonzero" fill-opacity="1" /><path clip-path="url(#clip980)" d="M194.19 597.799 Q190.579 597.799 188.75 601.364 Q186.945 604.906 186.945 612.035 Q186.945 619.142 188.75 622.706 Q190.579 626.248 194.19 626.248 Q197.825 626.248 199.63 622.706 Q201.459 619.142 201.459 612.035 Q201.459 604.906 199.63 601.364 Q197.825 597.799 194.19 597.799 M194.19 594.095 Q200 594.095 203.056 598.702 Q206.135 603.285 206.135 612.035 Q206.135 620.762 203.056 625.368 Q200 629.952 194.19 629.952 Q188.38 629.952 185.301 625.368 Q182.246 620.762 182.246 612.035 Q182.246 603.285 185.301 598.702 Q188.38 594.095 194.19 594.095 Z" fill="#000000" fill-rule="nonzero" fill-opacity="1" /><path clip-path="url(#clip980)" d="M194.19 236.184 Q190.579 236.184 188.75 239.748 Q186.945 243.29 186.945 250.42 Q186.945 257.526 188.75 261.091 Q190.579 264.632 194.19 264.632 Q197.825 264.632 199.63 261.091 Q201.459 257.526 201.459 250.42 Q201.459 243.29 199.63 239.748 Q197.825 236.184 194.19 236.184 M194.19 232.48 Q200 232.48 203.056 237.086 Q206.135 241.67 206.135 250.42 Q206.135 259.146 203.056 263.753 Q200 268.336 194.19 268.336 Q188.38 268.336 185.301 263.753 Q182.246 259.146 182.246 250.42 Q182.246 241.67 185.301 237.086 Q188.38 232.48 194.19 232.48 Z" fill="#000000" fill-rule="nonzero" fill-opacity="1" /><path clip-path="url(#clip980)" d="M16.4842 816.375 L16.4842 786.329 L21.895 786.329 L21.895 809.945 L35.9632 809.945 L35.9632 787.315 L41.3741 787.315 L41.3741 809.945 L58.5933 809.945 L58.5933 785.756 L64.0042 785.756 L64.0042 816.375 L16.4842 816.375 Z" fill="#000000" fill-rule="nonzero" fill-opacity="1" /><path clip-path="url(#clip980)" d="M16.4842 775.189 L16.4842 768.759 L58.5933 768.759 L58.5933 745.62 L64.0042 745.62 L64.0042 775.189 L16.4842 775.189 Z" fill="#000000" fill-rule="nonzero" fill-opacity="1" /><path clip-path="url(#clip980)" d="M41.3104 732.443 L58.7206 732.443 L58.7206 722.13 Q58.7206 716.942 56.5881 714.46 Q54.4238 711.945 49.9996 711.945 Q45.5436 711.945 43.4429 714.46 Q41.3104 716.942 41.3104 722.13 L41.3104 732.443 M21.7677 732.443 L36.0905 732.443 L36.0905 722.926 Q36.0905 718.216 34.34 715.924 Q32.5576 713.6 28.9291 713.6 Q25.3325 713.6 23.5501 715.924 Q21.7677 718.216 21.7677 722.926 L21.7677 732.443 M16.4842 738.872 L16.4842 722.449 Q16.4842 715.096 19.5397 711.118 Q22.5952 707.139 28.2289 707.139 Q32.5894 707.139 35.1675 709.176 Q37.7456 711.213 38.3822 715.16 Q39.4007 710.418 42.6472 707.808 Q45.8619 705.166 50.6998 705.166 Q57.0655 705.166 60.5348 709.495 Q64.0042 713.823 64.0042 721.812 L64.0042 738.872 L16.4842 738.872 Z" fill="#000000" fill-rule="nonzero" fill-opacity="1" /><path clip-path="url(#clip980)" d="M20.8447 676.011 Q20.8447 683.013 26.0645 687.151 Q31.2844 691.257 40.2919 691.257 Q49.2675 691.257 54.4874 687.151 Q59.7073 683.013 59.7073 676.011 Q59.7073 669.009 54.4874 664.935 Q49.2675 660.829 40.2919 660.829 Q31.2844 660.829 26.0645 664.935 Q20.8447 669.009 20.8447 676.011 M15.6248 676.011 Q15.6248 666.017 22.3406 660.033 Q29.0246 654.049 40.2919 654.049 Q51.5274 654.049 58.2432 660.033 Q64.9272 666.017 64.9272 676.011 Q64.9272 686.037 58.2432 692.052 Q51.5592 698.036 40.2919 698.036 Q29.0246 698.036 22.3406 692.052 Q15.6248 686.037 15.6248 676.011 Z" fill="#000000" fill-rule="nonzero" fill-opacity="1" /><polyline clip-path="url(#clip982)" style="stroke:#009af9; stroke-linecap:round; stroke-linejoin:round; stroke-width:4; stroke-opacity:1; fill:none" points="301.869,989.49 303.862,1035.04 305.856,1043.66 307.849,955.019 309.842,662.877 311.835,1073.46 313.828,966.794 315.821,1216.38 317.814,1236.5 319.808,951.008 321.801,1384.24 323.794,1227.33 325.787,792.659 327.78,605.38 329.773,830.447 331.766,527.906 333.76,710.794 335.753,872.446 337.746,1187.21 339.739,699.93 341.732,1264.65 343.725,1176.42 345.718,1176.18 347.712,483.785 349.705,601.764 351.698,482.667 353.691,893.033 355.684,681.605 357.677,667.619 359.67,550.324 361.664,806.219 363.657,468.04 365.65,697.391 367.643,714.562 369.636,727.983 371.629,519.172 373.622,873.834 375.616,865.715 377.609,681.63 379.602,590.014 381.595,805.301 383.588,1241.5 385.581,869.595 387.574,738.552 389.568,404.019 391.561,319.128 393.554,944.115 395.547,1258.09 397.54,635.507 399.533,746.091 401.526,926.189 403.52,912.302 405.513,798.254 407.506,789.643 409.499,419.093 411.492,646.902 413.485,896.082 415.479,636.096 417.472,699.131 419.465,402.352 421.458,834.129 423.451,869.026 425.444,695.583 427.437,333.614 429.431,700.201 431.424,790.968 433.417,733.321 435.41,792.544 437.403,353.895 439.396,572.163 441.389,1231.57 443.383,554.37 445.376,777.168 447.369,895.395 449.362,494.983 451.355,309.743 453.348,483.584 455.341,478.16 457.335,493.774 459.328,327.555 461.321,437.361 463.314,704.018 465.307,591.879 467.3,999.457 469.293,635.151 471.287,479.082 473.28,510.943 475.273,514.87 477.266,649.795 479.259,340.84 481.252,698.587 483.245,407.78 485.239,528.067 487.232,405.847 489.225,456.695 491.218,244.181 493.211,502.527 495.204,558.858 497.197,306.165 499.191,595.295 501.184,650.702 503.177,643.937 505.17,309.203 507.163,480.652 509.156,599.126 511.149,429.179 513.143,224.372 515.136,413.602 517.129,395.656 519.122,738.85 521.115,758.448 523.108,646.729 525.101,658.167 527.095,465.891 529.088,502.691 531.081,569.465 533.074,312.839 535.067,449.715 537.06,637.842 539.054,243.638 541.047,385.537 543.04,793.46 545.033,562.468 547.026,357.219 549.019,437.987 551.012,366.693 553.006,342.301 554.999,205.774 556.992,432.814 558.985,246.478 560.978,223.064 562.971,446.726 564.964,537.976 566.958,406.095 568.951,237.241 570.944,346.187 572.937,289.935 574.93,536.907 576.923,460.509 578.916,789.647 580.91,375.284 582.903,370.103 584.896,370.032 586.889,566.135 588.882,508.058 590.875,422.2 592.868,392.238 594.862,181.273 596.855,210.297 598.848,559.161 600.841,303.701 602.834,349.234 604.827,442.406 606.82,410.373 608.814,585.157 610.807,292.864 612.8,367.077 614.793,272.041 616.786,434.373 618.779,450.576 620.772,408.009 622.766,409.788 624.759,654.509 626.752,281.565 628.745,364.748 630.738,299.783 632.731,319.967 634.724,325.352 636.718,315.428 638.711,252.357 640.704,387.689 642.697,314.671 644.69,193.34 646.683,290.715 648.677,192.405 650.67,365.103 652.663,394.785 654.656,539.726 656.649,234.261 658.642,706.419 660.635,197.984 662.629,187.423 664.622,479.877 666.615,263.51 668.608,380.825 670.601,358.65 672.594,414.856 674.587,476.31 676.581,311.513 678.574,495.818 680.567,338.736 682.56,371.46 684.553,288.283 686.546,198.484 688.539,487.659 690.533,321.103 692.526,243.46 694.519,180.14 696.512,258.092 698.505,440.595 700.498,292.443 702.491,183.261 704.485,343.942 706.478,361.601 708.471,502.089 710.464,526.343 712.457,231.986 714.45,246.88 716.443,441.354 718.437,319.039 720.43,430.062 722.423,394.907 724.416,485.93 726.409,502.738 728.402,235.397 730.395,316.961 732.389,459.238 734.382,114.362 736.375,413.28 738.368,278.367 740.361,239.372 742.354,197.896 744.347,214.348 746.341,350.936 748.334,613.208 750.327,375.847 752.32,317.023 754.313,226.526 756.306,275.835 758.299,249.732 760.293,290.702 762.286,294.577 764.279,243.633 766.272,270.075 768.265,232.154 770.258,218.977 772.252,165.195 774.245,416.258 776.238,250.341 778.231,300.233 780.224,349.169 782.217,265.979 784.21,215.154 786.204,178.779 788.197,405.349 790.19,360.037 792.183,358.252 794.176,206.052 796.169,359.558 798.162,217.151 800.156,442.566 802.149,320.781 804.142,142.885 806.135,265.254 808.128,298.158 810.121,430.963 812.114,489.205 814.108,489.672 816.101,376.396 818.094,329.377 820.087,298.807 822.08,443.386 824.073,256.965 826.066,335.135 828.06,307.304 830.053,334.007 832.046,258.438 834.039,194.384 836.032,236.548 838.025,324.697 840.018,378.3 842.012,356.634 844.005,290.452 845.998,341.157 847.991,182.902 849.984,315.913 851.977,283.981 853.97,207.602 855.964,227.828 857.957,299.242 859.95,153.428 861.943,278.492 863.936,250.397 865.929,191.672 867.922,239.379 869.916,232.87 871.909,198.841 873.902,240.723 875.895,148.737 877.888,163.177 879.881,343.786 881.874,218.653 883.868,265.734 885.861,193.388 887.854,259.446 889.847,256.768 891.84,252.966 893.833,128.606 895.827,193.547 897.82,241.87 899.813,448.199 901.806,251.935 903.799,314.685 905.792,239.919 907.785,215.123 909.779,545.99 911.772,229.916 913.765,474.348 915.758,272.301 917.751,205.304 919.744,219.397 921.737,280.685 923.731,219.956 925.724,290.698 927.717,380.991 929.71,383.932 931.703,230.735 933.696,348.355 935.689,299.969 937.683,400.183 939.676,276.502 941.669,251.872 943.662,342.801 945.655,344.532 947.648,156.137 949.641,232.959 951.635,325.927 953.628,168.51 955.621,396.221 957.614,278.956 959.607,258.888 961.6,279.15 963.593,434.299 965.587,336.758 967.58,191.15 969.573,421.261 971.566,236.672 973.559,203.825 975.552,403.546 977.545,161.322 979.539,209.103 981.532,283.897 983.525,284.253 985.518,187.745 987.511,197.785 989.504,189.81 991.497,302.889 993.491,272.652 995.484,283.308 997.477,411.435 999.47,307.65 1001.46,125.584 1003.46,252.521 1005.45,293.353 1007.44,186.73 1009.44,392.648 1011.43,191.834 1013.42,271.131 1015.42,138.122 1017.41,257.233 1019.4,248.873 1021.39,253.456 1023.39,231.711 1025.38,423.897 1027.37,295.822 1029.37,187.104 1031.36,324.671 1033.35,260.806 1035.35,350.6 1037.34,181.658 1039.33,204.453 1041.33,380.942 1043.32,304.546 1045.31,307.54 1047.31,158.866 1049.3,207.15 1051.29,243.885 1053.28,374.786 1055.28,226.648 1057.27,200.548 1059.26,176.065 1061.26,184.724 1063.25,264.273 1065.24,98.2176 1067.24,256.98 1069.23,245.796 1071.22,303.994 1073.22,251.338 1075.21,170.437 1077.2,203.567 1079.2,306.815 1081.19,231.407 1083.18,280.572 1085.18,215.951 1087.17,318.882 1089.16,153.008 1091.15,273.175 1093.15,460.686 1095.14,318.662 1097.13,204.489 1099.13,184.302 1101.12,252.268 1103.11,196.916 1105.11,206.81 1107.1,215.74 1109.09,243.849 1111.09,193.375 1113.08,158.53 1115.07,299.757 1117.07,261.782 1119.06,261.701 1121.05,176.643 1123.05,327.753 1125.04,263.51 1127.03,252.41 1129.02,226.482 1131.02,357.432 1133.01,326.017 1135,253.634 1137,248.321 1138.99,305.904 1140.98,287.254 1142.98,260.451 1144.97,285.39 1146.96,86.1857 1148.96,196.605 1150.95,204.374 1152.94,300.071 1154.94,156.875 1156.93,265.575 1158.92,209.314 1160.91,206.187 1162.91,218.183 1164.9,230.676 1166.89,145.172 1168.89,213.26 1170.88,119.935 1172.87,237.29 1174.87,241.199 1176.86,350.412 1178.85,224.89 1180.85,392.192 1182.84,356.788 1184.83,250.166 1186.83,282.341 1188.82,125.889 1190.81,211.149 1192.81,306.847 1194.8,246.075 1196.79,194.701 1198.78,283.658 1200.78,164.133 1202.77,406.84 1204.76,390.313 1206.76,304.241 1208.75,311.167 1210.74,246.911 1212.74,241.268 1214.73,235.305 1216.72,182.063 1218.72,280.784 1220.71,198.164 1222.7,200.775 1224.7,190.461 1226.69,146.18 1228.68,236.167 1230.67,293.343 1232.67,192.19 1234.66,299.596 1236.65,445.814 1238.65,255.278 1240.64,195.627 1242.63,259.132 1244.63,133.52 1246.62,385.816 1248.61,337.297 1250.61,328.97 1252.6,295.851 1254.59,147.115 1256.59,448.49 1258.58,207.44 1260.57,146.324 1262.57,222.386 1264.56,168.807 1266.55,212.867 1268.54,258.741 1270.54,291.11 1272.53,303.545 1274.52,242.59 1276.52,168.994 1278.51,334.737 1280.5,222.853 1282.5,188.85 1284.49,140.117 1286.48,206.588 1288.48,293.487 1290.47,305.489 1292.46,430.062 1294.46,473.385 1296.45,215.258 1298.44,241.487 1300.44,290.323 1302.43,250.243 1304.42,165.835 1306.41,243.073 1308.41,168.246 1310.4,225.958 1312.39,209.443 1314.39,159.204 1316.38,204.51 1318.37,203.907 1320.37,272.896 1322.36,202.562 1324.35,349.186 1326.35,309.208 1328.34,252.144 1330.33,129.487 1332.33,196.856 1334.32,159.133 1336.31,369.971 1338.3,149.682 1340.3,173.692 1342.29,404.547 1344.28,201.48 1346.28,235.723 1348.27,207.331 1350.26,323.168 1352.26,308.915 1354.25,354.364 1356.24,223.422 1358.24,260.477 1360.23,191.317 1362.22,166.781 1364.22,174.907 1366.21,178.083 1368.2,186.125 1370.2,283.815 1372.19,207.749 1374.18,234.667 1376.17,285.463 1378.17,146.963 1380.16,218.785 1382.15,440.166 1384.15,256.514 1386.14,309.541 1388.13,247.41 1390.13,225.869 1392.12,320.078 1394.11,212.096 1396.11,237.437 1398.1,237.604 1400.09,460.843 1402.09,192.493 1404.08,353.792 1406.07,208.73 1408.06,433.897 1410.06,258.349 1412.05,393.073 1414.04,256.868 1416.04,133.112 1418.03,172.862 1420.02,305.341 1422.02,276.983 1424.01,353.482 1426,296.583 1428,188.913 1429.99,215.531 1431.98,192.734 1433.98,342.731 1435.97,174.861 1437.96,167.895 1439.96,314.484 1441.95,377.156 1443.94,283.195 1445.93,146.514 1447.93,302.625 1449.92,144.854 1451.91,211.096 1453.91,166.539 1455.9,205.594 1457.89,210.39 1459.89,187.201 1461.88,172.985 1463.87,184.155 1465.87,323.614 1467.86,130.846 1469.85,288.525 1471.85,163.295 1473.84,228.883 1475.83,351.962 1477.82,170.574 1479.82,172.427 1481.81,141.548 1483.8,134.067 1485.8,296.668 1487.79,208.817 1489.78,330.576 1491.78,224.811 1493.77,289.655 1495.76,159.706 1497.76,190.266 1499.75,621.468 1501.74,260.594 1503.74,242.303 1505.73,130.431 1507.72,201.56 1509.72,204.917 1511.71,329.822 1513.7,229.226 1515.69,353.775 1517.69,217.063 1519.68,185.664 1521.67,196.451 1523.67,383.992 1525.66,214.131 1527.65,174.896 1529.65,172.316 1531.64,627.083 1533.63,139.861 1535.63,97.5371 1537.62,193.175 1539.61,157.622 1541.61,300.074 1543.6,243.842 1545.59,153.907 1547.59,172.484 1549.58,144.49 1551.57,241.692 1553.56,164.143 1555.56,164.637 1557.55,276.578 1559.54,397.463 1561.54,218.307 1563.53,222.52 1565.52,335.959 1567.52,227.358 1569.51,364.377 1571.5,126.513 1573.5,142.354 1575.49,164.305 1577.48,229.833 1579.48,151.951 1581.47,279.56 1583.46,223.73 1585.45,331.788 1587.45,186.838 1589.44,122.309 1591.43,183.072 1593.43,276.693 1595.42,211.495 1597.41,286.147 1599.41,165.049 1601.4,113.336 1603.39,277.773 1605.39,264.228 1607.38,200.56 1609.37,147.568 1611.37,223.02 1613.36,122.861 1615.35,341.874 1617.35,297.099 1619.34,178.384 1621.33,142.462 1623.32,216.136 1625.32,286.024 1627.31,277.883 1629.3,217.415 1631.3,164.236 1633.29,246.182 1635.28,343.029 1637.28,271.135 1639.27,172.228 1641.26,291.098 1643.26,313.079 1645.25,207.101 1647.24,339.12 1649.24,242.911 1651.23,306.096 1653.22,197.867 1655.21,423.102 1657.21,199.982 1659.2,129.744 1661.19,207.632 1663.19,238.872 1665.18,257.327 1667.17,217.747 1669.17,295.999 1671.16,165.227 1673.15,214.34 1675.15,208.837 1677.14,188.859 1679.13,172.346 1681.13,197.581 1683.12,146.382 1685.11,106.375 1687.11,164.491 1689.1,270.427 1691.09,230.948 1693.08,306.934 1695.08,289.645 1697.07,229.895 1699.06,199.735 1701.06,198.02 1703.05,360.942 1705.04,258.089 1707.04,170.532 1709.03,154.126 1711.02,211.597 1713.02,321.7 1715.01,435.788 1717,219.036 1719,184.029 1720.99,144.375 1722.98,114.069 1724.97,213.461 1726.97,412.294 1728.96,267.081 1730.95,303.87 1732.95,244.413 1734.94,195.365 1736.93,227.612 1738.93,289.452 1740.92,260.91 1742.91,358.491 1744.91,225.41 1746.9,221.972 1748.89,193.004 1750.89,334.602 1752.88,221.134 1754.87,440.77 1756.87,380.354 1758.86,166.025 1760.85,175.744 1762.84,390.224 1764.84,390.105 1766.83,227.118 1768.82,178.844 1770.82,362.717 1772.81,252.375 1774.8,138.525 1776.8,114.553 1778.79,153.27 1780.78,294.931 1782.78,164.767 1784.77,304.018 1786.76,265.958 1788.76,219.144 1790.75,248.611 1792.74,199.562 1794.74,274.786 1796.73,277.329 1798.72,324.73 1800.71,344.617 1802.71,323.465 1804.7,145.942 1806.69,219.325 1808.69,213.355 1810.68,484.179 1812.67,220.054 1814.67,160.438 1816.66,190.279 1818.65,139.571 1820.65,168.808 1822.64,234.852 1824.63,310.533 1826.63,141.876 1828.62,221.841 1830.61,218.428 1832.6,219.278 1834.6,248.192 1836.59,172.713 1838.58,197.128 1840.58,211.762 1842.57,229.556 1844.56,260.186 1846.56,177.719 1848.55,236.607 1850.54,330.348 1852.54,266.663 1854.53,280.797 1856.52,131.512 1858.52,423.78 1860.51,290.573 1862.5,257.241 1864.5,263.297 1866.49,291.146 1868.48,344.64 1870.47,281.38 1872.47,192.26 1874.46,255.783 1876.45,299.658 1878.45,185.543 1880.44,368.905 1882.43,244.677 1884.43,284.343 1886.42,154.644 1888.41,209.462 1890.41,338.834 1892.4,191.018 1894.39,394.237 1896.39,348.479 1898.38,183.768 1900.37,185.632 1902.36,173.426 1904.36,250.486 1906.35,254.625 1908.34,297.71 1910.34,482.277 1912.33,247.14 1914.32,382.391 1916.32,294.94 1918.31,273.323 1920.3,302.469 1922.3,262.1 1924.29,288.608 1926.28,278.689 1928.28,204.018 1930.27,259.055 1932.26,187.166 1934.26,172.518 1936.25,290.778 1938.24,535.729 1940.23,254.196 1942.23,300.24 1944.22,160.655 1946.21,220.922 1948.21,257.581 1950.2,201.262 1952.19,249.687 1954.19,259.394 1956.18,260.166 1958.17,144.064 1960.17,169.203 1962.16,193.041 1964.15,237.648 1966.15,302.381 1968.14,236.97 1970.13,230.377 1972.12,385.658 1974.12,338.3 1976.11,390.186 1978.1,110.44 1980.1,215.715 1982.09,299.267 1984.08,133.792 1986.08,244.656 1988.07,314.702 1990.06,117.851 1992.06,195.399 1994.05,281.625 1996.04,261.8 1998.04,240.51 2000.03,371.564 2002.02,251.71 2004.02,262.416 2006.01,284.43 2008,159.615 2009.99,278.279 2011.99,316.609 2013.98,276.941 2015.97,257.002 2017.97,155.68 2019.96,244.979 2021.95,339.059 2023.95,219.038 2025.94,253.907 2027.93,217.767 2029.93,261.613 2031.92,477.497 2033.91,199.138 2035.91,175.872 2037.9,141.993 2039.89,239.92 2041.89,308.705 2043.88,276.6 2045.87,398.65 2047.86,313.581 2049.86,381.249 2051.85,208.26 2053.84,469.555 2055.84,211.713 2057.83,131.166 2059.82,455.785 2061.82,177.899 2063.81,203.356 2065.8,209.684 2067.8,277.146 2069.79,169.013 2071.78,324.438 2073.78,206.018 2075.77,123.325 2077.76,297.272 2079.75,196.66 2081.75,310.358 2083.74,264.276 2085.73,267.043 2087.73,197.127 2089.72,282.707 2091.71,159.494 2093.71,234.308 2095.7,441.597 2097.69,287.469 2099.69,252.022 2101.68,165.92 2103.67,208.378 2105.67,198.842 2107.66,270.247 2109.65,227.287 2111.65,235.71 2113.64,337.774 2115.63,202.949 2117.62,152.895 2119.62,345.853 2121.61,260.224 2123.6,235.76 2125.6,190.246 2127.59,194.363 2129.58,244.511 2131.58,291.938 2133.57,590.233 2135.56,282.483 2137.56,190.148 2139.55,159.284 2141.54,157.939 2143.54,329.425 2145.53,329.381 2147.52,224.356 2149.51,177.006 2151.51,283.987 2153.5,216.295 2155.49,298.56 2157.49,179.581 2159.48,321.436 2161.47,209.427 2163.47,200.791 2165.46,241.089 2167.45,131.375 2169.45,212.638 2171.44,240.847 2173.43,167.877 2175.43,134.602 2177.42,406.998 2179.41,352.376 2181.41,308.548 2183.4,285.855 2185.39,260.726 2187.38,287.347 2189.38,284.288 2191.37,205.351 2193.36,194.154 2195.36,148.659 2197.35,311.632 2199.34,157.938 2201.34,217.433 2203.33,355.291 2205.32,182.319 2207.32,228.52 2209.31,422.337 2211.3,217.348 2213.3,171.349 2215.29,301.186 2217.28,153.706 2219.27,124.092 2221.27,296.882 2223.26,286.618 2225.25,317.422 2227.25,199.071 2229.24,227.481 2231.23,141.693 2233.23,316.944 2235.22,360.07 2237.21,232.185 2239.21,326.624 2241.2,274.524 2243.19,317.811 2245.19,260.924 2247.18,151.263 2249.17,215.916 2251.17,188.621 2253.16,330.002 2255.15,193.964 2257.14,193.467 2259.14,429.915 2261.13,362.91 2263.12,219.813 2265.12,346.123 2267.11,172.448 2269.1,267.432 2271.1,289.652 2273.09,499.18 2275.08,194.347 2277.08,242.689 2279.07,306.433 2281.06,383.565 2283.06,333.386 2285.05,421.777 2287.04,153.498 2289.04,237.118 2291.03,249.298 2293.02,142.85 "/>
<polyline clip-path="url(#clip982)" style="stroke:#e26f46; stroke-linecap:round; stroke-linejoin:round; stroke-width:4; stroke-opacity:1; fill:none" points="301.869,829.995 303.862,1090.39 305.856,965.151 307.849,884.728 309.842,311.439 311.835,823.969 313.828,1074.35 315.821,732.211 317.814,1070.09 319.808,1291.38 321.801,1118.35 323.794,934.551 325.787,750.488 327.78,1075.28 329.773,733.648 331.766,720.72 333.76,1052.42 335.753,1304.52 337.746,784.395 339.739,656.417 341.732,579.25 343.725,446.533 345.718,490.859 347.712,603.461 349.705,1048.15 351.698,875.499 353.691,641.001 355.684,1251.07 357.677,497.081 359.67,762.752 361.664,856.023 363.657,649.555 365.65,779.093 367.643,943.184 369.636,777.18 371.629,752.71 373.622,712.029 375.616,662.179 377.609,1066.84 379.602,651.444 381.595,792.512 383.588,667.954 385.581,849.838 387.574,592.519 389.568,583.666 391.561,966.642 393.554,624.8 395.547,595.856 397.54,309.934 399.533,883.899 401.526,554.187 403.52,795.251 405.513,608.598 407.506,460.35 409.499,559.783 411.492,503.077 413.485,425.466 415.479,844.549 417.472,559.677 419.465,406.52 421.458,400.189 423.451,323.893 425.444,763.169 427.437,511.893 429.431,711.124 431.424,713.836 433.417,606.266 435.41,547.329 437.403,715.76 439.396,335.745 441.389,650.672 443.383,578.346 445.376,460.209 447.369,442.04 449.362,492.891 451.355,336.624 453.348,262.17 455.341,425.267 457.335,352.035 459.328,670.899 461.321,869.636 463.314,481.797 465.307,371.036 467.3,638.931 469.293,734.239 471.287,769.759 473.28,429.403 475.273,742.736 477.266,456.707 479.259,703.861 481.252,448.44 483.245,535.571 485.239,254.724 487.232,370.616 489.225,563.836 491.218,612.217 493.211,144.18 495.204,571.839 497.197,309.141 499.191,438.895 501.184,419.153 503.177,520.9 505.17,265.903 507.163,429.827 509.156,694.812 511.149,447.333 513.143,644.902 515.136,487.499 517.129,516.977 519.122,431.156 521.115,393.672 523.108,645.293 525.101,537.887 527.095,493.457 529.088,431.007 531.081,597.401 533.074,466.581 535.067,377.139 537.06,517.259 539.054,402.333 541.047,633.752 543.04,221.398 545.033,440.985 547.026,384.506 549.019,502.016 551.012,415.888 553.006,240.228 554.999,260.779 556.992,394.666 558.985,390.044 560.978,427.047 562.971,511.187 564.964,288.04 566.958,571.01 568.951,279.508 570.944,554.33 572.937,405.132 574.93,309.971 576.923,615.244 578.916,503.211 580.91,317.349 582.903,194.155 584.896,502.434 586.889,249.178 588.882,359.881 590.875,146.806 592.868,498.758 594.862,282.145 596.855,244.516 598.848,321.561 600.841,464.58 602.834,265.811 604.827,525.217 606.82,451.052 608.814,611.988 610.807,392.258 612.8,451.66 614.793,284.421 616.786,307.999 618.779,307.207 620.772,393.665 622.766,389.765 624.759,252.108 626.752,488.591 628.745,345.476 630.738,397.983 632.731,373.139 634.724,335.39 636.718,295.356 638.711,300.047 640.704,301.327 642.697,384.877 644.69,414.684 646.683,345.577 648.677,191.734 650.67,290.378 652.663,363.436 654.656,297.137 656.649,312.495 658.642,378.852 660.635,391.752 662.629,324.939 664.622,371.403 666.615,254.085 668.608,177.891 670.601,331.678 672.594,288.181 674.587,384.099 676.581,264.685 678.574,425.22 680.567,226.536 682.56,370.299 684.553,429.608 686.546,254.859 688.539,288.428 690.533,303.619 692.526,321.515 694.519,271.012 696.512,311.707 698.505,332.085 700.498,329.339 702.491,189.46 704.485,169.169 706.478,309.868 708.471,191.371 710.464,330.466 712.457,260.006 714.45,384.284 716.443,343.586 718.437,275.798 720.43,262.299 722.423,255.136 724.416,312.568 726.409,297.802 728.402,375.211 730.395,315.297 732.389,271.742 734.382,224.041 736.375,271.417 738.368,298.239 740.361,327.929 742.354,193.913 744.347,223.351 746.341,258.587 748.334,324.761 750.327,181.492 752.32,276.431 754.313,251.8 756.306,190.301 758.299,293.639 760.293,248.319 762.286,250.685 764.279,269.456 766.272,292.495 768.265,317.002 770.258,337.788 772.252,307.757 774.245,257.418 776.238,257.14 778.231,228.99 780.224,244.914 782.217,349.819 784.21,277.07 786.204,282.701 788.197,187.165 790.19,231.825 792.183,242.559 794.176,251.897 796.169,260.398 798.162,282.805 800.156,279.987 802.149,282.548 804.142,305.088 806.135,276.88 808.128,244.594 810.121,278.458 812.114,249.407 814.108,258.631 816.101,259.264 818.094,266.68 820.087,242.574 822.08,246.39 824.073,253.701 826.066,233.743 828.06,253.025 830.053,253.839 832.046,241.945 834.039,267.669 836.032,252.509 838.025,311.135 840.018,245.374 842.012,242.846 844.005,257.214 845.998,225.803 847.991,234.775 849.984,255.246 851.977,263.037 853.97,244.07 855.964,271.207 857.957,279.914 859.95,292.437 861.943,255.596 863.936,235.21 865.929,248.881 867.922,302.433 869.916,294.121 871.909,228.167 873.902,250.011 875.895,272.226 877.888,268.323 879.881,252.067 881.874,231.683 883.868,295.931 885.861,243.787 887.854,196.167 889.847,291.99 891.84,251.013 893.833,298.039 895.827,230.621 897.82,273.778 899.813,244.182 901.806,256.751 903.799,255.475 905.792,285.204 907.785,261.058 909.779,203.495 911.772,215.754 913.765,261.4 915.758,260.397 917.751,269.779 919.744,269.48 921.737,288.824 923.731,230.291 925.724,244.168 927.717,257.698 929.71,254.647 931.703,290.308 933.696,275.463 935.689,241.44 937.683,251.365 939.676,255.775 941.669,253.042 943.662,267.276 945.655,278.832 947.648,244.987 949.641,254.518 951.635,229.09 953.628,259.448 955.621,243.851 957.614,252.832 959.607,256.837 961.6,270.466 963.593,247.251 965.587,216.071 967.58,258.005 969.573,275.52 971.566,257.069 973.559,248.121 975.552,248.105 977.545,227.086 979.539,241.108 981.532,240.958 983.525,238.171 985.518,240.89 987.511,272.326 989.504,244.509 991.497,239.513 993.491,264.689 995.484,248.55 997.477,240.476 999.47,229.306 1001.46,265.805 1003.46,238.6 1005.45,256.313 1007.44,250.942 1009.44,240.563 1011.43,257.171 1013.42,254.354 1015.42,249.336 1017.41,246.914 1019.4,242.055 1021.39,259.115 1023.39,229.557 1025.38,244.901 1027.37,264.905 1029.37,254.715 1031.36,253.97 1033.35,247.54 1035.35,253.174 1037.34,256.23 1039.33,246.514 1041.33,256.79 1043.32,250.657 1045.31,265.354 1047.31,255.087 1049.3,248.141 1051.29,245.887 1053.28,250.648 1055.28,253.129 1057.27,252.546 1059.26,244.846 1061.26,245.686 1063.25,254.64 1065.24,258.291 1067.24,254.156 1069.23,259.234 1071.22,246.877 1073.22,247.224 1075.21,255.995 1077.2,246.138 1079.2,244.074 1081.19,254.435 1083.18,249.881 1085.18,253.926 1087.17,256.315 1089.16,246.335 1091.15,253.267 1093.15,257.702 1095.14,239.157 1097.13,253.439 1099.13,259.892 1101.12,254.666 1103.11,246.559 1105.11,252.734 1107.1,257.392 1109.09,248.998 1111.09,247.298 1113.08,253.67 1115.07,247.187 1117.07,248.361 1119.06,251.786 1121.05,243.106 1123.05,250.302 1125.04,244.154 1127.03,246.357 1129.02,248.883 1131.02,251.353 1133.01,245.628 1135,248.161 1137,252.247 1138.99,250.018 1140.98,254.826 1142.98,252.816 1144.97,244.299 1146.96,246.523 1148.96,246.188 1150.95,255.804 1152.94,250.902 1154.94,255.312 1156.93,253.386 1158.92,257.625 1160.91,247.613 1162.91,253.164 1164.9,245.005 1166.89,252.985 1168.89,253.093 1170.88,255.05 1172.87,252.897 1174.87,250.97 1176.86,247.865 1178.85,244.952 1180.85,252.656 1182.84,248.222 1184.83,247.116 1186.83,253.971 1188.82,247.695 1190.81,249.088 1192.81,249.977 1194.8,251.554 1196.79,250.51 1198.78,252.272 1200.78,249.983 1202.77,248.454 1204.76,248.904 1206.76,252.606 1208.75,248.798 1210.74,250.167 1212.74,250.596 1214.73,245.687 1216.72,255.402 1218.72,251.58 1220.71,248.808 1222.7,249.849 1224.7,250.88 1226.69,249.482 1228.68,250.198 1230.67,252.961 1232.67,251.47 1234.66,248.054 1236.65,248.835 1238.65,251.093 1240.64,249.893 1242.63,254.343 1244.63,249.904 1246.62,250.632 1248.61,250.36 1250.61,252.761 1252.6,250.547 1254.59,247.454 1256.59,250.704 1258.58,253.232 1260.57,253.546 1262.57,248.315 1264.56,249.953 1266.55,251.27 1268.54,251.928 1270.54,247.694 1272.53,249.333 1274.52,249.884 1276.52,253.086 1278.51,247.135 1280.5,251.585 1282.5,248.703 1284.49,250.453 1286.48,252.516 1288.48,250.18 1290.47,249.956 1292.46,248.472 1294.46,249.232 1296.45,248.593 1298.44,253.133 1300.44,249.738 1302.43,250.223 1304.42,251.449 1306.41,250.841 1308.41,248.897 1310.4,250.197 1312.39,250.208 1314.39,249.993 1316.38,252.532 1318.37,251.493 1320.37,252.168 1322.36,252.692 1324.35,250.005 1326.35,251.107 1328.34,250.177 1330.33,251.439 1332.33,250.127 1334.32,250.538 1336.31,249.073 1338.3,250.233 1340.3,250.207 1342.29,249.121 1344.28,251.022 1346.28,250.276 1348.27,249.32 1350.26,249.312 1352.26,250.321 1354.25,248.759 1356.24,251.302 1358.24,249.837 1360.23,250.126 1362.22,249.465 1364.22,249.613 1366.21,249.412 1368.2,250.021 1370.2,250.125 1372.19,250.122 1374.18,249.651 1376.17,250.225 1378.17,250.221 1380.16,249.648 1382.15,250.468 1384.15,251.134 1386.14,250.19 1388.13,249.829 1390.13,250.971 1392.12,249.988 1394.11,250.814 1396.11,250.251 1398.1,250.397 1400.09,250.519 1402.09,251.261 1404.08,250.498 1406.07,251.206 1408.06,251.198 1410.06,251.275 1412.05,249.092 1414.04,250.171 1416.04,250.182 1418.03,250.785 1420.02,250.687 1422.02,251.413 1424.01,250.479 1426,250.256 1428,251.113 1429.99,250.097 1431.98,250.127 1433.98,250.543 1435.97,250.675 1437.96,250.842 1439.96,250.926 1441.95,249.984 1443.94,250.343 1445.93,250.03 1447.93,250.451 1449.92,250.859 1451.91,250.685 1453.91,250.04 1455.9,250.285 1457.89,250.6 1459.89,250.158 1461.88,250.198 1463.87,250.175 1465.87,250.233 1467.86,250.525 1469.85,250.328 1471.85,250.773 1473.84,250.659 1475.83,250.514 1477.82,250.437 1479.82,250.133 1481.81,250.507 1483.8,250.687 1485.8,250.78 1487.79,250.542 1489.78,250.511 1491.78,250.218 1493.77,250.511 1495.76,250.109 1497.76,250.208 1499.75,250.276 1501.74,250.427 1503.74,250.527 1505.73,250.432 1507.72,250.545 1509.72,250.486 1511.71,250.644 1513.7,250.243 1515.69,250.216 1517.69,250.107 1519.68,250.683 1521.67,250.179 1523.67,250.425 1525.66,250.673 1527.65,250.531 1529.65,250.459 1531.64,250.407 1533.63,250.336 1535.63,250.492 1537.62,250.497 1539.61,250.352 1541.61,250.339 1543.6,250.423 1545.59,250.286 1547.59,250.341 1549.58,250.541 1551.57,250.591 1553.56,250.247 1555.56,250.569 1557.55,250.305 1559.54,250.603 1561.54,250.408 1563.53,250.466 1565.52,250.57 1567.52,250.543 1569.51,250.246 1571.5,250.619 1573.5,250.241 1575.49,250.318 1577.48,250.281 1579.48,250.338 1581.47,250.229 1583.46,250.33 1585.45,250.395 1587.45,250.368 1589.44,250.267 1591.43,250.478 1593.43,250.337 1595.42,250.419 1597.41,250.456 1599.41,250.439 1601.4,250.528 1603.39,250.51 1605.39,250.294 1607.38,250.523 1609.37,250.42 1611.37,250.337 1613.36,250.352 1615.35,250.354 1617.35,250.287 1619.34,250.416 1621.33,250.429 1623.32,250.313 1625.32,250.267 1627.31,250.389 1629.3,250.517 1631.3,250.299 1633.29,250.379 1635.28,250.378 1637.28,250.52 1639.27,250.276 1641.26,250.319 1643.26,250.451 1645.25,250.475 1647.24,250.305 1649.24,250.334 1651.23,250.4 1653.22,250.422 1655.21,250.341 1657.21,250.361 1659.2,250.409 1661.19,250.453 1663.19,250.369 1665.18,250.379 1667.17,250.403 1669.17,250.398 1671.16,250.451 1673.15,250.403 1675.15,250.387 1677.14,250.462 1679.13,250.409 1681.13,250.371 1683.12,250.447 1685.11,250.426 1687.11,250.29 1689.1,250.376 1691.09,250.389 1693.08,250.404 1695.08,250.369 1697.07,250.404 1699.06,250.44 1701.06,250.375 1703.05,250.361 1705.04,250.402 1707.04,250.354 1709.03,250.381 1711.02,250.363 1713.02,250.412 1715.01,250.388 1717,250.388 1719,250.371 1720.99,250.419 1722.98,250.36 1724.97,250.356 1726.97,250.384 1728.96,250.378 1730.95,250.411 1732.95,250.368 1734.94,250.36 1736.93,250.382 1738.93,250.371 1740.92,250.399 1742.91,250.396 1744.91,250.367 1746.9,250.4 1748.89,250.371 1750.89,250.381 1752.88,250.399 1754.87,250.386 1756.87,250.414 1758.86,250.361 1760.85,250.4 1762.84,250.382 1764.84,250.421 1766.83,250.424 1768.82,250.368 1770.82,250.386 1772.81,250.385 1774.8,250.392 1776.8,250.38 1778.79,250.394 1780.78,250.394 1782.78,250.383 1784.77,250.39 1786.76,250.399 1788.76,250.394 1790.75,250.387 1792.74,250.373 1794.74,250.4 1796.73,250.38 1798.72,250.369 1800.71,250.386 1802.71,250.371 1804.7,250.386 1806.69,250.394 1808.69,250.386 1810.68,250.376 1812.67,250.386 1814.67,250.376 1816.66,250.383 1818.65,250.396 1820.65,250.375 1822.64,250.372 1824.63,250.397 1826.63,250.373 1828.62,250.389 1830.61,250.386 1832.6,250.386 1834.6,250.38 1836.59,250.384 1838.58,250.389 1840.58,250.397 1842.57,250.387 1844.56,250.386 1846.56,250.383 1848.55,250.38 1850.54,250.392 1852.54,250.39 1854.53,250.389 1856.52,250.38 1858.52,250.39 1860.51,250.386 1862.5,250.382 1864.5,250.39 1866.49,250.383 1868.48,250.388 1870.47,250.377 1872.47,250.386 1874.46,250.386 1876.45,250.382 1878.45,250.389 1880.44,250.383 1882.43,250.387 1884.43,250.386 1886.42,250.379 1888.41,250.383 1890.41,250.39 1892.4,250.383 1894.39,250.378 1896.39,250.386 1898.38,250.384 1900.37,250.382 1902.36,250.386 1904.36,250.384 1906.35,250.387 1908.34,250.387 1910.34,250.392 1912.33,250.383 1914.32,250.383 1916.32,250.385 1918.31,250.384 1920.3,250.382 1922.3,250.384 1924.29,250.383 1926.28,250.387 1928.28,250.386 1930.27,250.385 1932.26,250.383 1934.26,250.383 1936.25,250.382 1938.24,250.387 1940.23,250.385 1942.23,250.385 1944.22,250.384 1946.21,250.385 1948.21,250.383 1950.2,250.384 1952.19,250.385 1954.19,250.389 1956.18,250.385 1958.17,250.386 1960.17,250.381 1962.16,250.383 1964.15,250.384 1966.15,250.385 1968.14,250.385 1970.13,250.384 1972.12,250.384 1974.12,250.384 1976.11,250.384 1978.1,250.386 1980.1,250.384 1982.09,250.386 1984.08,250.383 1986.08,250.385 1988.07,250.385 1990.06,250.385 1992.06,250.384 1994.05,250.385 1996.04,250.386 1998.04,250.386 2000.03,250.385 2002.02,250.385 2004.02,250.385 2006.01,250.385 2008,250.385 2009.99,250.385 2011.99,250.385 2013.98,250.384 2015.97,250.385 2017.97,250.384 2019.96,250.384 2021.95,250.386 2023.95,250.384 2025.94,250.385 2027.93,250.385 2029.93,250.384 2031.92,250.385 2033.91,250.385 2035.91,250.385 2037.9,250.385 2039.89,250.385 2041.89,250.385 2043.88,250.386 2045.87,250.385 2047.86,250.385 2049.86,250.385 2051.85,250.386 2053.84,250.384 2055.84,250.385 2057.83,250.384 2059.82,250.385 2061.82,250.385 2063.81,250.385 2065.8,250.386 2067.8,250.385 2069.79,250.385 2071.78,250.385 2073.78,250.385 2075.77,250.384 2077.76,250.385 2079.75,250.385 2081.75,250.385 2083.74,250.385 2085.73,250.385 2087.73,250.385 2089.72,250.385 2091.71,250.385 2093.71,250.385 2095.7,250.385 2097.69,250.385 2099.69,250.385 2101.68,250.385 2103.67,250.385 2105.67,250.385 2107.66,250.385 2109.65,250.385 2111.65,250.385 2113.64,250.385 2115.63,250.385 2117.62,250.385 2119.62,250.385 2121.61,250.385 2123.6,250.385 2125.6,250.385 2127.59,250.385 2129.58,250.385 2131.58,250.385 2133.57,250.385 2135.56,250.385 2137.56,250.385 2139.55,250.385 2141.54,250.385 2143.54,250.385 2145.53,250.385 2147.52,250.385 2149.51,250.385 2151.51,250.385 2153.5,250.385 2155.49,250.385 2157.49,250.385 2159.48,250.385 2161.47,250.385 2163.47,250.385 2165.46,250.385 2167.45,250.385 2169.45,250.385 2171.44,250.385 2173.43,250.385 2175.43,250.385 2177.42,250.385 2179.41,250.385 2181.41,250.385 2183.4,250.385 2185.39,250.385 2187.38,250.385 2189.38,250.385 2191.37,250.385 2193.36,250.385 2195.36,250.385 2197.35,250.385 2199.34,250.385 2201.34,250.385 2203.33,250.385 2205.32,250.385 2207.32,250.385 2209.31,250.385 2211.3,250.385 2213.3,250.385 2215.29,250.385 2217.28,250.385 2219.27,250.385 2221.27,250.385 2223.26,250.385 2225.25,250.385 2227.25,250.385 2229.24,250.385 2231.23,250.385 2233.23,250.385 2235.22,250.385 2237.21,250.385 2239.21,250.385 2241.2,250.385 2243.19,250.385 2245.19,250.385 2247.18,250.385 2249.17,250.385 2251.17,250.385 2253.16,250.385 2255.15,250.385 2257.14,250.385 2259.14,250.385 2261.13,250.385 2263.12,250.385 2265.12,250.385 2267.11,250.385 2269.1,250.385 2271.1,250.385 2273.09,250.385 2275.08,250.385 2277.08,250.385 2279.07,250.385 2281.06,250.385 2283.06,250.385 2285.05,250.385 2287.04,250.385 2289.04,250.385 2291.03,250.385 2293.02,250.385 "/>
<path clip-path="url(#clip980)" d="M1863.63 1377.32 L2282.4 1377.32 L2282.4 1221.8 L1863.63 1221.8  Z" fill="#ffffff" fill-rule="evenodd" fill-opacity="1"/>
<polyline clip-path="url(#clip980)" style="stroke:#000000; stroke-linecap:round; stroke-linejoin:round; stroke-width:4; stroke-opacity:1; fill:none" points="1863.63,1377.32 2282.4,1377.32 2282.4,1221.8 1863.63,1221.8 1863.63,1377.32 "/>
<polyline clip-path="url(#clip980)" style="stroke:#009af9; stroke-linecap:round; stroke-linejoin:round; stroke-width:4; stroke-opacity:1; fill:none" points="1887.08,1273.64 2027.79,1273.64 "/>
<path clip-path="url(#clip980)" d="M2055.92 1274.41 L2055.92 1287.07 L2063.42 1287.07 Q2067.19 1287.07 2069 1285.52 Q2070.83 1283.95 2070.83 1280.73 Q2070.83 1277.49 2069 1275.96 Q2067.19 1274.41 2063.42 1274.41 L2055.92 1274.41 M2055.92 1260.2 L2055.92 1270.61 L2062.84 1270.61 Q2066.27 1270.61 2067.93 1269.34 Q2069.62 1268.05 2069.62 1265.41 Q2069.62 1262.79 2067.93 1261.49 Q2066.27 1260.2 2062.84 1260.2 L2055.92 1260.2 M2051.24 1256.36 L2063.19 1256.36 Q2068.53 1256.36 2071.43 1258.58 Q2074.32 1260.8 2074.32 1264.9 Q2074.32 1268.07 2072.84 1269.94 Q2071.36 1271.82 2068.49 1272.28 Q2071.94 1273.02 2073.84 1275.38 Q2075.76 1277.72 2075.76 1281.24 Q2075.76 1285.87 2072.61 1288.39 Q2069.46 1290.92 2063.65 1290.92 L2051.24 1290.92 L2051.24 1256.36 Z" fill="#000000" fill-rule="nonzero" fill-opacity="1" /><path clip-path="url(#clip980)" d="M2088.44 1274.41 L2088.44 1287.07 L2095.94 1287.07 Q2099.72 1287.07 2101.52 1285.52 Q2103.35 1283.95 2103.35 1280.73 Q2103.35 1277.49 2101.52 1275.96 Q2099.72 1274.41 2095.94 1274.41 L2088.44 1274.41 M2088.44 1260.2 L2088.44 1270.61 L2095.36 1270.61 Q2098.79 1270.61 2100.46 1269.34 Q2102.15 1268.05 2102.15 1265.41 Q2102.15 1262.79 2100.46 1261.49 Q2098.79 1260.2 2095.36 1260.2 L2088.44 1260.2 M2083.77 1256.36 L2095.71 1256.36 Q2101.06 1256.36 2103.95 1258.58 Q2106.84 1260.8 2106.84 1264.9 Q2106.84 1268.07 2105.36 1269.94 Q2103.88 1271.82 2101.01 1272.28 Q2104.46 1273.02 2106.36 1275.38 Q2108.28 1277.72 2108.28 1281.24 Q2108.28 1285.87 2105.13 1288.39 Q2101.98 1290.92 2096.17 1290.92 L2083.77 1290.92 L2083.77 1256.36 Z" fill="#000000" fill-rule="nonzero" fill-opacity="1" /><path clip-path="url(#clip980)" d="M2123.74 1290.92 L2110.55 1256.36 L2115.43 1256.36 L2126.38 1285.45 L2137.35 1256.36 L2142.22 1256.36 L2129.04 1290.92 L2123.74 1290.92 Z" fill="#000000" fill-rule="nonzero" fill-opacity="1" /><path clip-path="url(#clip980)" d="M2147.26 1256.36 L2151.94 1256.36 L2151.94 1290.92 L2147.26 1290.92 L2147.26 1256.36 Z" fill="#000000" fill-rule="nonzero" fill-opacity="1" /><path clip-path="url(#clip980)" d="M2202.19 1259.02 L2202.19 1263.95 Q2199.83 1261.75 2197.15 1260.66 Q2194.48 1259.57 2191.47 1259.57 Q2185.55 1259.57 2182.4 1263.21 Q2179.25 1266.82 2179.25 1273.67 Q2179.25 1280.5 2182.4 1284.13 Q2185.55 1287.74 2191.47 1287.74 Q2194.48 1287.74 2197.15 1286.66 Q2199.83 1285.57 2202.19 1283.37 L2202.19 1288.25 Q2199.74 1289.92 2196.98 1290.75 Q2194.25 1291.59 2191.2 1291.59 Q2183.35 1291.59 2178.84 1286.79 Q2174.32 1281.98 2174.32 1273.67 Q2174.32 1265.34 2178.84 1260.55 Q2183.35 1255.73 2191.2 1255.73 Q2194.3 1255.73 2197.03 1256.56 Q2199.78 1257.37 2202.19 1259.02 Z" fill="#000000" fill-rule="nonzero" fill-opacity="1" /><path clip-path="url(#clip980)" d="M2209.41 1256.36 L2229.27 1256.36 L2229.27 1260.29 L2214.09 1260.29 L2214.09 1270.48 L2227.79 1270.48 L2227.79 1274.41 L2214.09 1274.41 L2214.09 1290.92 L2209.41 1290.92 L2209.41 1256.36 Z" fill="#000000" fill-rule="nonzero" fill-opacity="1" /><path clip-path="url(#clip980)" d="M2236.68 1256.36 L2258.53 1256.36 L2258.53 1260.29 L2241.36 1260.29 L2241.36 1270.52 L2257.82 1270.52 L2257.82 1274.46 L2241.36 1274.46 L2241.36 1286.98 L2258.95 1286.98 L2258.95 1290.92 L2236.68 1290.92 L2236.68 1256.36 Z" fill="#000000" fill-rule="nonzero" fill-opacity="1" /><polyline clip-path="url(#clip980)" style="stroke:#e26f46; stroke-linecap:round; stroke-linejoin:round; stroke-width:4; stroke-opacity:1; fill:none" points="1887.08,1325.48 2027.79,1325.48 "/>
<path clip-path="url(#clip980)" d="M2055.92 1326.25 L2055.92 1338.91 L2063.42 1338.91 Q2067.19 1338.91 2069 1337.36 Q2070.83 1335.79 2070.83 1332.57 Q2070.83 1329.33 2069 1327.8 Q2067.19 1326.25 2063.42 1326.25 L2055.92 1326.25 M2055.92 1312.04 L2055.92 1322.45 L2062.84 1322.45 Q2066.27 1322.45 2067.93 1321.18 Q2069.62 1319.89 2069.62 1317.25 Q2069.62 1314.63 2067.93 1313.33 Q2066.27 1312.04 2062.84 1312.04 L2055.92 1312.04 M2051.24 1308.2 L2063.19 1308.2 Q2068.53 1308.2 2071.43 1310.42 Q2074.32 1312.64 2074.32 1316.74 Q2074.32 1319.91 2072.84 1321.78 Q2071.36 1323.66 2068.49 1324.12 Q2071.94 1324.86 2073.84 1327.22 Q2075.76 1329.56 2075.76 1333.08 Q2075.76 1337.71 2072.61 1340.23 Q2069.46 1342.76 2063.65 1342.76 L2051.24 1342.76 L2051.24 1308.2 Z" fill="#000000" fill-rule="nonzero" fill-opacity="1" /><path clip-path="url(#clip980)" d="M2088.44 1326.25 L2088.44 1338.91 L2095.94 1338.91 Q2099.72 1338.91 2101.52 1337.36 Q2103.35 1335.79 2103.35 1332.57 Q2103.35 1329.33 2101.52 1327.8 Q2099.72 1326.25 2095.94 1326.25 L2088.44 1326.25 M2088.44 1312.04 L2088.44 1322.45 L2095.36 1322.45 Q2098.79 1322.45 2100.46 1321.18 Q2102.15 1319.89 2102.15 1317.25 Q2102.15 1314.63 2100.46 1313.33 Q2098.79 1312.04 2095.36 1312.04 L2088.44 1312.04 M2083.77 1308.2 L2095.71 1308.2 Q2101.06 1308.2 2103.95 1310.42 Q2106.84 1312.64 2106.84 1316.74 Q2106.84 1319.91 2105.36 1321.78 Q2103.88 1323.66 2101.01 1324.12 Q2104.46 1324.86 2106.36 1327.22 Q2108.28 1329.56 2108.28 1333.08 Q2108.28 1337.71 2105.13 1340.23 Q2101.98 1342.76 2096.17 1342.76 L2083.77 1342.76 L2083.77 1308.2 Z" fill="#000000" fill-rule="nonzero" fill-opacity="1" /><path clip-path="url(#clip980)" d="M2123.74 1342.76 L2110.55 1308.2 L2115.43 1308.2 L2126.38 1337.29 L2137.35 1308.2 L2142.22 1308.2 L2129.04 1342.76 L2123.74 1342.76 Z" fill="#000000" fill-rule="nonzero" fill-opacity="1" /><path clip-path="url(#clip980)" d="M2147.26 1308.2 L2151.94 1308.2 L2151.94 1342.76 L2147.26 1342.76 L2147.26 1308.2 Z" fill="#000000" fill-rule="nonzero" fill-opacity="1" /><path clip-path="url(#clip980)" d="M2197.03 1309.33 L2197.03 1313.89 Q2194.37 1312.62 2192.01 1311.99 Q2189.65 1311.37 2187.45 1311.37 Q2183.63 1311.37 2181.54 1312.85 Q2179.48 1314.33 2179.48 1317.06 Q2179.48 1319.35 2180.85 1320.53 Q2182.24 1321.69 2186.08 1322.41 L2188.9 1322.99 Q2194.14 1323.98 2196.61 1326.51 Q2199.11 1329.01 2199.11 1333.22 Q2199.11 1338.24 2195.73 1340.83 Q2192.38 1343.43 2185.87 1343.43 Q2183.42 1343.43 2180.64 1342.87 Q2177.89 1342.32 2174.92 1341.23 L2174.92 1336.41 Q2177.77 1338.01 2180.5 1338.82 Q2183.23 1339.63 2185.87 1339.63 Q2189.88 1339.63 2192.05 1338.06 Q2194.23 1336.48 2194.23 1333.57 Q2194.23 1331.02 2192.65 1329.58 Q2191.1 1328.15 2187.54 1327.43 L2184.69 1326.88 Q2179.46 1325.83 2177.12 1323.61 Q2174.78 1321.39 2174.78 1317.43 Q2174.78 1312.85 2178 1310.21 Q2181.24 1307.57 2186.91 1307.57 Q2189.34 1307.57 2191.87 1308.01 Q2194.39 1308.45 2197.03 1309.33 Z" fill="#000000" fill-rule="nonzero" fill-opacity="1" /><path clip-path="url(#clip980)" d="M2201.61 1308.2 L2230.85 1308.2 L2230.85 1312.13 L2218.58 1312.13 L2218.58 1342.76 L2213.88 1342.76 L2213.88 1312.13 L2201.61 1312.13 L2201.61 1308.2 Z" fill="#000000" fill-rule="nonzero" fill-opacity="1" /><path clip-path="url(#clip980)" d="M2235.36 1308.2 L2240.04 1308.2 L2240.04 1338.82 L2256.87 1338.82 L2256.87 1342.76 L2235.36 1342.76 L2235.36 1308.2 Z" fill="#000000" fill-rule="nonzero" fill-opacity="1" /></svg>
