<?xml version="1.0" encoding="utf-8"?>
<svg xmlns="http://www.w3.org/2000/svg" xmlns:xlink="http://www.w3.org/1999/xlink" width="600" height="400" viewBox="0 0 2400 1600">
<defs>
  <clipPath id="clip860">
    <rect x="0" y="0" width="2400" height="1600"/>
  </clipPath>
</defs>
<path clip-path="url(#clip860)" d="M0 1600 L2400 1600 L2400 0 L0 0  Z" fill="#ffffff" fill-rule="evenodd" fill-opacity="1"/>
<defs>
  <clipPath id="clip861">
    <rect x="202" y="47" width="2152" height="1377"/>
  </clipPath>
</defs>
<path clip-path="url(#clip860)" d="M242.135 1423.18 L2352.76 1423.18 L2352.76 47.2441 L242.135 47.2441  Z" fill="#ffffff" fill-rule="evenodd" fill-opacity="1"/>
<defs>
  <clipPath id="clip862">
    <rect x="242" y="47" width="2112" height="1377"/>
  </clipPath>
</defs>
<polyline clip-path="url(#clip862)" style="stroke:#000000; stroke-linecap:round; stroke-linejoin:round; stroke-width:2; stroke-opacity:0.1; fill:none" points="299.876,1423.18 299.876,47.2441 "/>
<polyline clip-path="url(#clip862)" style="stroke:#000000; stroke-linecap:round; stroke-linejoin:round; stroke-width:2; stroke-opacity:0.1; fill:none" points="798.162,1423.18 798.162,47.2441 "/>
<polyline clip-path="url(#clip862)" style="stroke:#000000; stroke-linecap:round; stroke-linejoin:round; stroke-width:2; stroke-opacity:0.1; fill:none" points="1296.45,1423.18 1296.45,47.2441 "/>
<polyline clip-path="url(#clip862)" style="stroke:#000000; stroke-linecap:round; stroke-linejoin:round; stroke-width:2; stroke-opacity:0.1; fill:none" points="1794.74,1423.18 1794.74,47.2441 "/>
<polyline clip-path="url(#clip862)" style="stroke:#000000; stroke-linecap:round; stroke-linejoin:round; stroke-width:2; stroke-opacity:0.1; fill:none" points="2293.02,1423.18 2293.02,47.2441 "/>
<polyline clip-path="url(#clip862)" style="stroke:#000000; stroke-linecap:round; stroke-linejoin:round; stroke-width:2; stroke-opacity:0.1; fill:none" points="242.135,1263.26 2352.76,1263.26 "/>
<polyline clip-path="url(#clip862)" style="stroke:#000000; stroke-linecap:round; stroke-linejoin:round; stroke-width:2; stroke-opacity:0.1; fill:none" points="242.135,921.589 2352.76,921.589 "/>
<polyline clip-path="url(#clip862)" style="stroke:#000000; stroke-linecap:round; stroke-linejoin:round; stroke-width:2; stroke-opacity:0.1; fill:none" points="242.135,579.919 2352.76,579.919 "/>
<polyline clip-path="url(#clip862)" style="stroke:#000000; stroke-linecap:round; stroke-linejoin:round; stroke-width:2; stroke-opacity:0.1; fill:none" points="242.135,238.248 2352.76,238.248 "/>
<polyline clip-path="url(#clip860)" style="stroke:#000000; stroke-linecap:round; stroke-linejoin:round; stroke-width:4; stroke-opacity:1; fill:none" points="242.135,1423.18 2352.76,1423.18 "/>
<polyline clip-path="url(#clip860)" style="stroke:#000000; stroke-linecap:round; stroke-linejoin:round; stroke-width:4; stroke-opacity:1; fill:none" points="299.876,1423.18 299.876,1404.28 "/>
<polyline clip-path="url(#clip860)" style="stroke:#000000; stroke-linecap:round; stroke-linejoin:round; stroke-width:4; stroke-opacity:1; fill:none" points="798.162,1423.18 798.162,1404.28 "/>
<polyline clip-path="url(#clip860)" style="stroke:#000000; stroke-linecap:round; stroke-linejoin:round; stroke-width:4; stroke-opacity:1; fill:none" points="1296.45,1423.18 1296.45,1404.28 "/>
<polyline clip-path="url(#clip860)" style="stroke:#000000; stroke-linecap:round; stroke-linejoin:round; stroke-width:4; stroke-opacity:1; fill:none" points="1794.74,1423.18 1794.74,1404.28 "/>
<polyline clip-path="url(#clip860)" style="stroke:#000000; stroke-linecap:round; stroke-linejoin:round; stroke-width:4; stroke-opacity:1; fill:none" points="2293.02,1423.18 2293.02,1404.28 "/>
<path clip-path="url(#clip860)" d="M299.876 1454.1 Q296.265 1454.1 294.436 1457.66 Q292.631 1461.2 292.631 1468.33 Q292.631 1475.44 294.436 1479.01 Q296.265 1482.55 299.876 1482.55 Q303.51 1482.55 305.316 1479.01 Q307.145 1475.44 307.145 1468.33 Q307.145 1461.2 305.316 1457.66 Q303.51 1454.1 299.876 1454.1 M299.876 1450.39 Q305.686 1450.39 308.742 1455 Q311.82 1459.58 311.82 1468.33 Q311.82 1477.06 308.742 1481.67 Q305.686 1486.25 299.876 1486.25 Q294.066 1486.25 290.987 1481.67 Q287.932 1477.06 287.932 1468.33 Q287.932 1459.58 290.987 1455 Q294.066 1450.39 299.876 1450.39 Z" fill="#000000" fill-rule="nonzero" fill-opacity="1" /><path clip-path="url(#clip860)" d="M761.855 1481.64 L778.174 1481.64 L778.174 1485.58 L756.23 1485.58 L756.23 1481.64 Q758.892 1478.89 763.475 1474.26 Q768.082 1469.61 769.262 1468.27 Q771.507 1465.74 772.387 1464.01 Q773.29 1462.25 773.29 1460.56 Q773.29 1457.8 771.345 1456.07 Q769.424 1454.33 766.322 1454.33 Q764.123 1454.33 761.67 1455.09 Q759.239 1455.86 756.461 1457.41 L756.461 1452.69 Q759.285 1451.55 761.739 1450.97 Q764.193 1450.39 766.23 1450.39 Q771.6 1450.39 774.794 1453.08 Q777.989 1455.77 777.989 1460.26 Q777.989 1462.39 777.179 1464.31 Q776.392 1466.2 774.285 1468.8 Q773.707 1469.47 770.605 1472.69 Q767.503 1475.88 761.855 1481.64 Z" fill="#000000" fill-rule="nonzero" fill-opacity="1" /><path clip-path="url(#clip860)" d="M788.035 1451.02 L806.392 1451.02 L806.392 1454.96 L792.318 1454.96 L792.318 1463.43 Q793.336 1463.08 794.355 1462.92 Q795.373 1462.73 796.392 1462.73 Q802.179 1462.73 805.558 1465.9 Q808.938 1469.08 808.938 1474.49 Q808.938 1480.07 805.466 1483.17 Q801.993 1486.25 795.674 1486.25 Q793.498 1486.25 791.23 1485.88 Q788.984 1485.51 786.577 1484.77 L786.577 1480.07 Q788.66 1481.2 790.882 1481.76 Q793.105 1482.32 795.581 1482.32 Q799.586 1482.32 801.924 1480.21 Q804.262 1478.1 804.262 1474.49 Q804.262 1470.88 801.924 1468.77 Q799.586 1466.67 795.581 1466.67 Q793.706 1466.67 791.831 1467.08 Q789.98 1467.5 788.035 1468.38 L788.035 1451.02 Z" fill="#000000" fill-rule="nonzero" fill-opacity="1" /><path clip-path="url(#clip860)" d="M828.151 1454.1 Q824.54 1454.1 822.711 1457.66 Q820.905 1461.2 820.905 1468.33 Q820.905 1475.44 822.711 1479.01 Q824.54 1482.55 828.151 1482.55 Q831.785 1482.55 833.59 1479.01 Q835.419 1475.44 835.419 1468.33 Q835.419 1461.2 833.59 1457.66 Q831.785 1454.1 828.151 1454.1 M828.151 1450.39 Q833.961 1450.39 837.016 1455 Q840.095 1459.58 840.095 1468.33 Q840.095 1477.06 837.016 1481.67 Q833.961 1486.25 828.151 1486.25 Q822.341 1486.25 819.262 1481.67 Q816.206 1477.06 816.206 1468.33 Q816.206 1459.58 819.262 1455 Q822.341 1450.39 828.151 1450.39 Z" fill="#000000" fill-rule="nonzero" fill-opacity="1" /><path clip-path="url(#clip860)" d="M1256.07 1451.02 L1274.42 1451.02 L1274.42 1454.96 L1260.35 1454.96 L1260.35 1463.43 Q1261.37 1463.08 1262.39 1462.92 Q1263.4 1462.73 1264.42 1462.73 Q1270.21 1462.73 1273.59 1465.9 Q1276.97 1469.08 1276.97 1474.49 Q1276.97 1480.07 1273.5 1483.17 Q1270.03 1486.25 1263.71 1486.25 Q1261.53 1486.25 1259.26 1485.88 Q1257.02 1485.51 1254.61 1484.77 L1254.61 1480.07 Q1256.69 1481.2 1258.91 1481.76 Q1261.14 1482.32 1263.61 1482.32 Q1267.62 1482.32 1269.96 1480.21 Q1272.29 1478.1 1272.29 1474.49 Q1272.29 1470.88 1269.96 1468.77 Q1267.62 1466.67 1263.61 1466.67 Q1261.74 1466.67 1259.86 1467.08 Q1258.01 1467.5 1256.07 1468.38 L1256.07 1451.02 Z" fill="#000000" fill-rule="nonzero" fill-opacity="1" /><path clip-path="url(#clip860)" d="M1296.18 1454.1 Q1292.57 1454.1 1290.74 1457.66 Q1288.94 1461.2 1288.94 1468.33 Q1288.94 1475.44 1290.74 1479.01 Q1292.57 1482.55 1296.18 1482.55 Q1299.82 1482.55 1301.62 1479.01 Q1303.45 1475.44 1303.45 1468.33 Q1303.45 1461.2 1301.62 1457.66 Q1299.82 1454.1 1296.18 1454.1 M1296.18 1450.39 Q1301.99 1450.39 1305.05 1455 Q1308.13 1459.58 1308.13 1468.33 Q1308.13 1477.06 1305.05 1481.67 Q1301.99 1486.25 1296.18 1486.25 Q1290.37 1486.25 1287.29 1481.67 Q1284.24 1477.06 1284.24 1468.33 Q1284.24 1459.58 1287.29 1455 Q1290.37 1450.39 1296.18 1450.39 Z" fill="#000000" fill-rule="nonzero" fill-opacity="1" /><path clip-path="url(#clip860)" d="M1326.34 1454.1 Q1322.73 1454.1 1320.9 1457.66 Q1319.1 1461.2 1319.1 1468.33 Q1319.1 1475.44 1320.9 1479.01 Q1322.73 1482.55 1326.34 1482.55 Q1329.98 1482.55 1331.78 1479.01 Q1333.61 1475.44 1333.61 1468.33 Q1333.61 1461.2 1331.78 1457.66 Q1329.98 1454.1 1326.34 1454.1 M1326.34 1450.39 Q1332.15 1450.39 1335.21 1455 Q1338.29 1459.58 1338.29 1468.33 Q1338.29 1477.06 1335.21 1481.67 Q1332.15 1486.25 1326.34 1486.25 Q1320.53 1486.25 1317.46 1481.67 Q1314.4 1477.06 1314.4 1468.33 Q1314.4 1459.58 1317.46 1455 Q1320.53 1450.39 1326.34 1450.39 Z" fill="#000000" fill-rule="nonzero" fill-opacity="1" /><path clip-path="url(#clip860)" d="M1753.01 1451.02 L1775.23 1451.02 L1775.23 1453.01 L1762.69 1485.58 L1757.8 1485.58 L1769.61 1454.96 L1753.01 1454.96 L1753.01 1451.02 Z" fill="#000000" fill-rule="nonzero" fill-opacity="1" /><path clip-path="url(#clip860)" d="M1784.4 1451.02 L1802.76 1451.02 L1802.76 1454.96 L1788.68 1454.96 L1788.68 1463.43 Q1789.7 1463.08 1790.72 1462.92 Q1791.74 1462.73 1792.76 1462.73 Q1798.54 1462.73 1801.92 1465.9 Q1805.3 1469.08 1805.3 1474.49 Q1805.3 1480.07 1801.83 1483.17 Q1798.36 1486.25 1792.04 1486.25 Q1789.86 1486.25 1787.59 1485.88 Q1785.35 1485.51 1782.94 1484.77 L1782.94 1480.07 Q1785.02 1481.2 1787.25 1481.76 Q1789.47 1482.32 1791.95 1482.32 Q1795.95 1482.32 1798.29 1480.21 Q1800.63 1478.1 1800.63 1474.49 Q1800.63 1470.88 1798.29 1468.77 Q1795.95 1466.67 1791.95 1466.67 Q1790.07 1466.67 1788.2 1467.08 Q1786.34 1467.5 1784.4 1468.38 L1784.4 1451.02 Z" fill="#000000" fill-rule="nonzero" fill-opacity="1" /><path clip-path="url(#clip860)" d="M1824.51 1454.1 Q1820.9 1454.1 1819.08 1457.66 Q1817.27 1461.2 1817.27 1468.33 Q1817.27 1475.44 1819.08 1479.01 Q1820.9 1482.55 1824.51 1482.55 Q1828.15 1482.55 1829.95 1479.01 Q1831.78 1475.44 1831.78 1468.33 Q1831.78 1461.2 1829.95 1457.66 Q1828.15 1454.1 1824.51 1454.1 M1824.51 1450.39 Q1830.33 1450.39 1833.38 1455 Q1836.46 1459.58 1836.46 1468.33 Q1836.46 1477.06 1833.38 1481.67 Q1830.33 1486.25 1824.51 1486.25 Q1818.7 1486.25 1815.63 1481.67 Q1812.57 1477.06 1812.57 1468.33 Q1812.57 1459.58 1815.63 1455 Q1818.7 1450.39 1824.51 1450.39 Z" fill="#000000" fill-rule="nonzero" fill-opacity="1" /><path clip-path="url(#clip860)" d="M2237.55 1481.64 L2245.19 1481.64 L2245.19 1455.28 L2236.88 1456.95 L2236.88 1452.69 L2245.14 1451.02 L2249.82 1451.02 L2249.82 1481.64 L2257.45 1481.64 L2257.45 1485.58 L2237.55 1485.58 L2237.55 1481.64 Z" fill="#000000" fill-rule="nonzero" fill-opacity="1" /><path clip-path="url(#clip860)" d="M2276.9 1454.1 Q2273.29 1454.1 2271.46 1457.66 Q2269.65 1461.2 2269.65 1468.33 Q2269.65 1475.44 2271.46 1479.01 Q2273.29 1482.55 2276.9 1482.55 Q2280.53 1482.55 2282.34 1479.01 Q2284.17 1475.44 2284.17 1468.33 Q2284.17 1461.2 2282.34 1457.66 Q2280.53 1454.1 2276.9 1454.1 M2276.9 1450.39 Q2282.71 1450.39 2285.76 1455 Q2288.84 1459.58 2288.84 1468.33 Q2288.84 1477.06 2285.76 1481.67 Q2282.71 1486.25 2276.9 1486.25 Q2271.09 1486.25 2268.01 1481.67 Q2264.95 1477.06 2264.95 1468.33 Q2264.95 1459.58 2268.01 1455 Q2271.09 1450.39 2276.9 1450.39 Z" fill="#000000" fill-rule="nonzero" fill-opacity="1" /><path clip-path="url(#clip860)" d="M2307.06 1454.1 Q2303.45 1454.1 2301.62 1457.66 Q2299.82 1461.2 2299.82 1468.33 Q2299.82 1475.44 2301.62 1479.01 Q2303.45 1482.55 2307.06 1482.55 Q2310.69 1482.55 2312.5 1479.01 Q2314.33 1475.44 2314.33 1468.33 Q2314.33 1461.2 2312.5 1457.66 Q2310.69 1454.1 2307.06 1454.1 M2307.06 1450.39 Q2312.87 1450.39 2315.93 1455 Q2319 1459.58 2319 1468.33 Q2319 1477.06 2315.93 1481.67 Q2312.87 1486.25 2307.06 1486.25 Q2301.25 1486.25 2298.17 1481.67 Q2295.12 1477.06 2295.12 1468.33 Q2295.12 1459.58 2298.17 1455 Q2301.25 1450.39 2307.06 1450.39 Z" fill="#000000" fill-rule="nonzero" fill-opacity="1" /><path clip-path="url(#clip860)" d="M2337.22 1454.1 Q2333.61 1454.1 2331.78 1457.66 Q2329.98 1461.2 2329.98 1468.33 Q2329.98 1475.44 2331.78 1479.01 Q2333.61 1482.55 2337.22 1482.55 Q2340.86 1482.55 2342.66 1479.01 Q2344.49 1475.44 2344.49 1468.33 Q2344.49 1461.2 2342.66 1457.66 Q2340.86 1454.1 2337.22 1454.1 M2337.22 1450.39 Q2343.03 1450.39 2346.09 1455 Q2349.17 1459.58 2349.17 1468.33 Q2349.17 1477.06 2346.09 1481.67 Q2343.03 1486.25 2337.22 1486.25 Q2331.41 1486.25 2328.33 1481.67 Q2325.28 1477.06 2325.28 1468.33 Q2325.28 1459.58 2328.33 1455 Q2331.41 1450.39 2337.22 1450.39 Z" fill="#000000" fill-rule="nonzero" fill-opacity="1" /><path clip-path="url(#clip860)" d="M1165.17 1520.52 L1171.6 1520.52 L1171.6 1568.04 L1165.17 1568.04 L1165.17 1520.52 Z" fill="#000000" fill-rule="nonzero" fill-opacity="1" /><path clip-path="url(#clip860)" d="M1189.93 1522.27 L1189.93 1532.4 L1201.99 1532.4 L1201.99 1536.95 L1189.93 1536.95 L1189.93 1556.3 Q1189.93 1560.66 1191.11 1561.9 Q1192.32 1563.14 1195.98 1563.14 L1201.99 1563.14 L1201.99 1568.04 L1195.98 1568.04 Q1189.2 1568.04 1186.62 1565.53 Q1184.04 1562.98 1184.04 1556.3 L1184.04 1536.95 L1179.74 1536.95 L1179.74 1532.4 L1184.04 1532.4 L1184.04 1522.27 L1189.93 1522.27 Z" fill="#000000" fill-rule="nonzero" fill-opacity="1" /><path clip-path="url(#clip860)" d="M1240.19 1548.76 L1240.19 1551.62 L1213.26 1551.62 Q1213.64 1557.67 1216.89 1560.85 Q1220.17 1564 1225.99 1564 Q1229.36 1564 1232.52 1563.17 Q1235.7 1562.35 1238.82 1560.69 L1238.82 1566.23 Q1235.67 1567.57 1232.36 1568.27 Q1229.05 1568.97 1225.64 1568.97 Q1217.11 1568.97 1212.11 1564 Q1207.15 1559.04 1207.15 1550.57 Q1207.15 1541.82 1211.86 1536.69 Q1216.6 1531.54 1224.62 1531.54 Q1231.81 1531.54 1235.98 1536.18 Q1240.19 1540.8 1240.19 1548.76 M1234.33 1547.04 Q1234.27 1542.23 1231.62 1539.37 Q1229.01 1536.5 1224.69 1536.5 Q1219.78 1536.5 1216.82 1539.27 Q1213.9 1542.04 1213.45 1547.07 L1234.33 1547.04 Z" fill="#000000" fill-rule="nonzero" fill-opacity="1" /><path clip-path="url(#clip860)" d="M1270.45 1537.87 Q1269.47 1537.3 1268.29 1537.04 Q1267.14 1536.76 1265.74 1536.76 Q1260.78 1536.76 1258.11 1540 Q1255.46 1543.22 1255.46 1549.27 L1255.46 1568.04 L1249.58 1568.04 L1249.58 1532.4 L1255.46 1532.4 L1255.46 1537.93 Q1257.31 1534.69 1260.27 1533.13 Q1263.23 1531.54 1267.46 1531.54 Q1268.07 1531.54 1268.8 1531.63 Q1269.53 1531.7 1270.42 1531.85 L1270.45 1537.87 Z" fill="#000000" fill-rule="nonzero" fill-opacity="1" /><path clip-path="url(#clip860)" d="M1292.8 1550.12 Q1285.7 1550.12 1282.96 1551.75 Q1280.23 1553.37 1280.23 1557.29 Q1280.23 1560.4 1282.26 1562.25 Q1284.33 1564.07 1287.86 1564.07 Q1292.73 1564.07 1295.66 1560.63 Q1298.62 1557.16 1298.62 1551.43 L1298.62 1550.12 L1292.8 1550.12 M1304.48 1547.71 L1304.48 1568.04 L1298.62 1568.04 L1298.62 1562.63 Q1296.62 1565.88 1293.63 1567.44 Q1290.63 1568.97 1286.31 1568.97 Q1280.83 1568.97 1277.58 1565.91 Q1274.37 1562.82 1274.37 1557.67 Q1274.37 1551.65 1278.38 1548.6 Q1282.42 1545.54 1290.41 1545.54 L1298.62 1545.54 L1298.62 1544.97 Q1298.62 1540.93 1295.95 1538.73 Q1293.31 1536.5 1288.5 1536.5 Q1285.45 1536.5 1282.55 1537.23 Q1279.65 1537.97 1276.98 1539.43 L1276.98 1534.02 Q1280.19 1532.78 1283.22 1532.17 Q1286.24 1531.54 1289.11 1531.54 Q1296.84 1531.54 1300.66 1535.55 Q1304.48 1539.56 1304.48 1547.71 Z" fill="#000000" fill-rule="nonzero" fill-opacity="1" /><path clip-path="url(#clip860)" d="M1322.34 1522.27 L1322.34 1532.4 L1334.4 1532.4 L1334.4 1536.95 L1322.34 1536.95 L1322.34 1556.3 Q1322.34 1560.66 1323.51 1561.9 Q1324.72 1563.14 1328.38 1563.14 L1334.4 1563.14 L1334.4 1568.04 L1328.38 1568.04 Q1321.6 1568.04 1319.03 1565.53 Q1316.45 1562.98 1316.45 1556.3 L1316.45 1536.95 L1312.15 1536.95 L1312.15 1532.4 L1316.45 1532.4 L1316.45 1522.27 L1322.34 1522.27 Z" fill="#000000" fill-rule="nonzero" fill-opacity="1" /><path clip-path="url(#clip860)" d="M1342.1 1532.4 L1347.96 1532.4 L1347.96 1568.04 L1342.1 1568.04 L1342.1 1532.4 M1342.1 1518.52 L1347.96 1518.52 L1347.96 1525.93 L1342.1 1525.93 L1342.1 1518.52 Z" fill="#000000" fill-rule="nonzero" fill-opacity="1" /><path clip-path="url(#clip860)" d="M1374.02 1536.5 Q1369.31 1536.5 1366.58 1540.19 Q1363.84 1543.85 1363.84 1550.25 Q1363.84 1556.65 1366.55 1560.34 Q1369.28 1564 1374.02 1564 Q1378.7 1564 1381.44 1560.31 Q1384.18 1556.62 1384.18 1550.25 Q1384.18 1543.92 1381.44 1540.23 Q1378.7 1536.5 1374.02 1536.5 M1374.02 1531.54 Q1381.66 1531.54 1386.02 1536.5 Q1390.38 1541.47 1390.38 1550.25 Q1390.38 1559 1386.02 1564 Q1381.66 1568.97 1374.02 1568.97 Q1366.35 1568.97 1361.99 1564 Q1357.66 1559 1357.66 1550.25 Q1357.66 1541.47 1361.99 1536.5 Q1366.35 1531.54 1374.02 1531.54 Z" fill="#000000" fill-rule="nonzero" fill-opacity="1" /><path clip-path="url(#clip860)" d="M1429.72 1546.53 L1429.72 1568.04 L1423.87 1568.04 L1423.87 1546.72 Q1423.87 1541.66 1421.89 1539.14 Q1419.92 1536.63 1415.97 1536.63 Q1411.23 1536.63 1408.5 1539.65 Q1405.76 1542.68 1405.76 1547.9 L1405.76 1568.04 L1399.87 1568.04 L1399.87 1532.4 L1405.76 1532.4 L1405.76 1537.93 Q1407.86 1534.72 1410.69 1533.13 Q1413.56 1531.54 1417.28 1531.54 Q1423.42 1531.54 1426.57 1535.36 Q1429.72 1539.14 1429.72 1546.53 Z" fill="#000000" fill-rule="nonzero" fill-opacity="1" /><polyline clip-path="url(#clip860)" style="stroke:#000000; stroke-linecap:round; stroke-linejoin:round; stroke-width:4; stroke-opacity:1; fill:none" points="242.135,1423.18 242.135,47.2441 "/>
<polyline clip-path="url(#clip860)" style="stroke:#000000; stroke-linecap:round; stroke-linejoin:round; stroke-width:4; stroke-opacity:1; fill:none" points="242.135,1263.26 261.032,1263.26 "/>
<polyline clip-path="url(#clip860)" style="stroke:#000000; stroke-linecap:round; stroke-linejoin:round; stroke-width:4; stroke-opacity:1; fill:none" points="242.135,921.589 261.032,921.589 "/>
<polyline clip-path="url(#clip860)" style="stroke:#000000; stroke-linecap:round; stroke-linejoin:round; stroke-width:4; stroke-opacity:1; fill:none" points="242.135,579.919 261.032,579.919 "/>
<polyline clip-path="url(#clip860)" style="stroke:#000000; stroke-linecap:round; stroke-linejoin:round; stroke-width:4; stroke-opacity:1; fill:none" points="242.135,238.248 261.032,238.248 "/>
<path clip-path="url(#clip860)" d="M114.26 1263.71 L143.936 1263.71 L143.936 1267.65 L114.26 1267.65 L114.26 1263.71 Z" fill="#000000" fill-rule="nonzero" fill-opacity="1" /><path clip-path="url(#clip860)" d="M168.195 1261.91 Q171.552 1262.62 173.427 1264.89 Q175.325 1267.16 175.325 1270.49 Q175.325 1275.61 171.806 1278.41 Q168.288 1281.21 161.806 1281.21 Q159.63 1281.21 157.315 1280.77 Q155.024 1280.35 152.57 1279.5 L152.57 1274.98 Q154.515 1276.12 156.829 1276.7 Q159.144 1277.28 161.667 1277.28 Q166.065 1277.28 168.357 1275.54 Q170.672 1273.8 170.672 1270.49 Q170.672 1267.44 168.519 1265.72 Q166.39 1263.99 162.57 1263.99 L158.542 1263.99 L158.542 1260.15 L162.755 1260.15 Q166.204 1260.15 168.033 1258.78 Q169.862 1257.39 169.862 1254.8 Q169.862 1252.14 167.964 1250.72 Q166.089 1249.29 162.57 1249.29 Q160.649 1249.29 158.45 1249.71 Q156.251 1250.12 153.612 1251 L153.612 1246.84 Q156.274 1246.1 158.589 1245.72 Q160.927 1245.35 162.987 1245.35 Q168.311 1245.35 171.413 1247.78 Q174.514 1250.19 174.514 1254.31 Q174.514 1257.18 172.871 1259.17 Q171.227 1261.14 168.195 1261.91 Z" fill="#000000" fill-rule="nonzero" fill-opacity="1" /><path clip-path="url(#clip860)" d="M194.19 1249.06 Q190.579 1249.06 188.75 1252.62 Q186.945 1256.16 186.945 1263.29 Q186.945 1270.4 188.75 1273.97 Q190.579 1277.51 194.19 1277.51 Q197.825 1277.51 199.63 1273.97 Q201.459 1270.4 201.459 1263.29 Q201.459 1256.16 199.63 1252.62 Q197.825 1249.06 194.19 1249.06 M194.19 1245.35 Q200 1245.35 203.056 1249.96 Q206.135 1254.54 206.135 1263.29 Q206.135 1272.02 203.056 1276.63 Q200 1281.21 194.19 1281.21 Q188.38 1281.21 185.301 1276.63 Q182.246 1272.02 182.246 1263.29 Q182.246 1254.54 185.301 1249.96 Q188.38 1245.35 194.19 1245.35 Z" fill="#000000" fill-rule="nonzero" fill-opacity="1" /><path clip-path="url(#clip860)" d="M114.26 922.04 L143.936 922.04 L143.936 925.976 L114.26 925.976 L114.26 922.04 Z" fill="#000000" fill-rule="nonzero" fill-opacity="1" /><path clip-path="url(#clip860)" d="M158.056 934.934 L174.376 934.934 L174.376 938.869 L152.431 938.869 L152.431 934.934 Q155.093 932.179 159.677 927.55 Q164.283 922.897 165.464 921.554 Q167.709 919.031 168.589 917.295 Q169.491 915.536 169.491 913.846 Q169.491 911.091 167.547 909.355 Q165.626 907.619 162.524 907.619 Q160.325 907.619 157.871 908.383 Q155.44 909.147 152.663 910.698 L152.663 905.976 Q155.487 904.841 157.94 904.263 Q160.394 903.684 162.431 903.684 Q167.802 903.684 170.996 906.369 Q174.19 909.054 174.19 913.545 Q174.19 915.675 173.38 917.596 Q172.593 919.494 170.487 922.087 Q169.908 922.758 166.806 925.976 Q163.704 929.17 158.056 934.934 Z" fill="#000000" fill-rule="nonzero" fill-opacity="1" /><path clip-path="url(#clip860)" d="M194.19 907.388 Q190.579 907.388 188.75 910.953 Q186.945 914.494 186.945 921.624 Q186.945 928.73 188.75 932.295 Q190.579 935.837 194.19 935.837 Q197.825 935.837 199.63 932.295 Q201.459 928.73 201.459 921.624 Q201.459 914.494 199.63 910.953 Q197.825 907.388 194.19 907.388 M194.19 903.684 Q200 903.684 203.056 908.291 Q206.135 912.874 206.135 921.624 Q206.135 930.351 203.056 934.957 Q200 939.54 194.19 939.54 Q188.38 939.54 185.301 934.957 Q182.246 930.351 182.246 921.624 Q182.246 912.874 185.301 908.291 Q188.38 903.684 194.19 903.684 Z" fill="#000000" fill-rule="nonzero" fill-opacity="1" /><path clip-path="url(#clip860)" d="M114.26 580.37 L143.936 580.37 L143.936 584.305 L114.26 584.305 L114.26 580.37 Z" fill="#000000" fill-rule="nonzero" fill-opacity="1" /><path clip-path="url(#clip860)" d="M154.839 593.264 L162.477 593.264 L162.477 566.898 L154.167 568.565 L154.167 564.305 L162.431 562.639 L167.107 562.639 L167.107 593.264 L174.746 593.264 L174.746 597.199 L154.839 597.199 L154.839 593.264 Z" fill="#000000" fill-rule="nonzero" fill-opacity="1" /><path clip-path="url(#clip860)" d="M194.19 565.717 Q190.579 565.717 188.75 569.282 Q186.945 572.824 186.945 579.953 Q186.945 587.06 188.75 590.625 Q190.579 594.166 194.19 594.166 Q197.825 594.166 199.63 590.625 Q201.459 587.06 201.459 579.953 Q201.459 572.824 199.63 569.282 Q197.825 565.717 194.19 565.717 M194.19 562.014 Q200 562.014 203.056 566.62 Q206.135 571.203 206.135 579.953 Q206.135 588.68 203.056 593.287 Q200 597.87 194.19 597.87 Q188.38 597.87 185.301 593.287 Q182.246 588.68 182.246 579.953 Q182.246 571.203 185.301 566.62 Q188.38 562.014 194.19 562.014 Z" fill="#000000" fill-rule="nonzero" fill-opacity="1" /><path clip-path="url(#clip860)" d="M194.19 224.047 Q190.579 224.047 188.75 227.612 Q186.945 231.153 186.945 238.283 Q186.945 245.389 188.75 248.954 Q190.579 252.496 194.19 252.496 Q197.825 252.496 199.63 248.954 Q201.459 245.389 201.459 238.283 Q201.459 231.153 199.63 227.612 Q197.825 224.047 194.19 224.047 M194.19 220.343 Q200 220.343 203.056 224.95 Q206.135 229.533 206.135 238.283 Q206.135 247.01 203.056 251.616 Q200 256.2 194.19 256.2 Q188.38 256.2 185.301 251.616 Q182.246 247.01 182.246 238.283 Q182.246 229.533 185.301 224.95 Q188.38 220.343 194.19 220.343 Z" fill="#000000" fill-rule="nonzero" fill-opacity="1" /><path clip-path="url(#clip860)" d="M16.4842 816.375 L16.4842 786.329 L21.895 786.329 L21.895 809.945 L35.9632 809.945 L35.9632 787.315 L41.3741 787.315 L41.3741 809.945 L58.5933 809.945 L58.5933 785.756 L64.0042 785.756 L64.0042 816.375 L16.4842 816.375 Z" fill="#000000" fill-rule="nonzero" fill-opacity="1" /><path clip-path="url(#clip860)" d="M16.4842 775.189 L16.4842 768.759 L58.5933 768.759 L58.5933 745.62 L64.0042 745.62 L64.0042 775.189 L16.4842 775.189 Z" fill="#000000" fill-rule="nonzero" fill-opacity="1" /><path clip-path="url(#clip860)" d="M41.3104 732.443 L58.7206 732.443 L58.7206 722.13 Q58.7206 716.942 56.5881 714.46 Q54.4238 711.945 49.9996 711.945 Q45.5436 711.945 43.4429 714.46 Q41.3104 716.942 41.3104 722.13 L41.3104 732.443 M21.7677 732.443 L36.0905 732.443 L36.0905 722.926 Q36.0905 718.216 34.34 715.924 Q32.5576 713.6 28.9291 713.6 Q25.3325 713.6 23.5501 715.924 Q21.7677 718.216 21.7677 722.926 L21.7677 732.443 M16.4842 738.872 L16.4842 722.449 Q16.4842 715.096 19.5397 711.118 Q22.5952 707.139 28.2289 707.139 Q32.5894 707.139 35.1675 709.176 Q37.7456 711.213 38.3822 715.16 Q39.4007 710.418 42.6472 707.808 Q45.8619 705.166 50.6998 705.166 Q57.0655 705.166 60.5348 709.495 Q64.0042 713.823 64.0042 721.812 L64.0042 738.872 L16.4842 738.872 Z" fill="#000000" fill-rule="nonzero" fill-opacity="1" /><path clip-path="url(#clip860)" d="M20.8447 676.011 Q20.8447 683.013 26.0645 687.151 Q31.2844 691.257 40.2919 691.257 Q49.2675 691.257 54.4874 687.151 Q59.7073 683.013 59.7073 676.011 Q59.7073 669.009 54.4874 664.935 Q49.2675 660.829 40.2919 660.829 Q31.2844 660.829 26.0645 664.935 Q20.8447 669.009 20.8447 676.011 M15.6248 676.011 Q15.6248 666.017 22.3406 660.033 Q29.0246 654.049 40.2919 654.049 Q51.5274 654.049 58.2432 660.033 Q64.9272 666.017 64.9272 676.011 Q64.9272 686.037 58.2432 692.052 Q51.5592 698.036 40.2919 698.036 Q29.0246 698.036 22.3406 692.052 Q15.6248 686.037 15.6248 676.011 Z" fill="#000000" fill-rule="nonzero" fill-opacity="1" /><polyline clip-path="url(#clip862)" style="stroke:#009af9; stroke-linecap:round; stroke-linejoin:round; stroke-width:4; stroke-opacity:1; fill:none" points="301.869,682.88 303.862,695.798 305.856,1130.01 307.849,564.641 309.842,691.295 311.835,517.262 313.828,435.031 315.821,970.566 317.814,814.005 319.808,1382.97 321.801,990.256 323.794,1377.16 325.787,754.261 327.78,780.016 329.773,572.057 331.766,1038.92 333.76,738.029 335.753,649.596 337.746,700.748 339.739,820.137 341.732,805.897 343.725,858.438 345.718,774.592 347.712,867.067 349.705,802.301 351.698,893.127 353.691,629.654 355.684,584.253 357.677,383.373 359.67,846.008 361.664,515.798 363.657,555.317 365.65,694.62 367.643,504.446 369.636,653.617 371.629,1089.76 373.622,629.86 375.616,1023.78 377.609,671.095 379.602,539.988 381.595,632.945 383.588,585.642 385.581,390.2 387.574,1010.63 389.568,638.235 391.561,911.663 393.554,776.511 395.547,726.177 397.54,497.83 399.533,665.445 401.526,593.135 403.52,423.801 405.513,843.541 407.506,643.519 409.499,406.458 411.492,453.075 413.485,435.864 415.479,385.857 417.472,684.055 419.465,660.469 421.458,357.38 423.451,875.801 425.444,647.08 427.437,602.678 429.431,789.647 431.424,451.631 433.417,281.616 435.41,545.588 437.403,655.636 439.396,446.371 441.389,527.909 443.383,658.595 445.376,596.573 447.369,534.185 449.362,363.856 451.355,523.416 453.348,708.406 455.341,506.872 457.335,401.454 459.328,340.479 461.321,343.315 463.314,625.714 465.307,452.361 467.3,488.336 469.293,546.64 471.287,451.707 473.28,456.84 475.273,537.678 477.266,339.671 479.259,688.949 481.252,383.794 483.245,412.389 485.239,337.784 487.232,676.54 489.225,444.495 491.218,514.755 493.211,451.991 495.204,465.851 497.197,707.888 499.191,806.615 501.184,319.15 503.177,462.808 505.17,371.692 507.163,543.395 509.156,549.005 511.149,644.933 513.143,690.304 515.136,477.179 517.129,322.98 519.122,741.877 521.115,460.043 523.108,459.842 525.101,533.969 527.095,595.771 529.088,502.496 531.081,425.958 533.074,365.553 535.067,496.574 537.06,567.701 539.054,336.455 541.047,491.286 543.04,510.257 545.033,1021.84 547.026,413.743 549.019,722.678 551.012,530.569 553.006,243.543 554.999,342.692 556.992,427.291 558.985,621.305 560.978,365.895 562.971,364.99 564.964,414.193 566.958,345.146 568.951,478.789 570.944,295.225 572.937,347.79 574.93,390.257 576.923,320.009 578.916,216.442 580.91,201.177 582.903,350.245 584.896,324.969 586.889,250.265 588.882,389.174 590.875,369.881 592.868,412.891 594.862,446.509 596.855,412.31 598.848,331.787 600.841,368.692 602.834,507.928 604.827,421.68 606.82,388.128 608.814,344.193 610.807,541.496 612.8,731.785 614.793,451.897 616.786,475.579 618.779,524.168 620.772,220.155 622.766,258.813 624.759,515.635 626.752,231.647 628.745,316.041 630.738,270.675 632.731,530.914 634.724,304.724 636.718,285.748 638.711,290.22 640.704,201.661 642.697,199.466 644.69,753.383 646.683,356.336 648.677,242.847 650.67,462.408 652.663,436.264 654.656,396.957 656.649,373.679 658.642,285.441 660.635,448.753 662.629,197.231 664.622,305.504 666.615,424.328 668.608,342.823 670.601,468.722 672.594,363.654 674.587,259.395 676.581,235.814 678.574,447.904 680.567,330.364 682.56,249.113 684.553,432.069 686.546,309.433 688.539,408.703 690.533,403.055 692.526,272.353 694.519,244.311 696.512,462.992 698.505,344.794 700.498,238.706 702.491,373.587 704.485,176.615 706.478,282.397 708.471,489.937 710.464,433.445 712.457,372.647 714.45,209.163 716.443,261.083 718.437,259.486 720.43,270.708 722.423,358.537 724.416,517.024 726.409,168.237 728.402,255.475 730.395,134.302 732.389,265.707 734.382,213.136 736.375,295.436 738.368,361.403 740.361,194.842 742.354,408.232 744.347,205.506 746.341,158.001 748.334,434.808 750.327,390.449 752.32,274.226 754.313,228.291 756.306,289.023 758.299,235.575 760.293,285.446 762.286,212.722 764.279,262.539 766.272,327.779 768.265,243.007 770.258,272.383 772.252,165.269 774.245,361.839 776.238,242.188 778.231,249.086 780.224,259.152 782.217,310.981 784.21,144.248 786.204,214.526 788.197,206.26 790.19,347.459 792.183,299.638 794.176,242.203 796.169,278.56 798.162,142.465 800.156,227.624 802.149,174.034 804.142,408.163 806.135,146.387 808.128,225.627 810.121,692.16 812.114,126.424 814.108,385.985 816.101,239.428 818.094,391.629 820.087,429.424 822.08,195.851 824.073,387.914 826.066,204.557 828.06,216.374 830.053,254.426 832.046,165.311 834.039,272.057 836.032,220.906 838.025,193.488 840.018,294.679 842.012,244.677 844.005,273.093 845.998,244.11 847.991,316.439 849.984,224.474 851.977,186.514 853.97,210.655 855.964,483.79 857.957,449.614 859.95,333.821 861.943,273.882 863.936,205.33 865.929,296.398 867.922,238.704 869.916,216.705 871.909,381.001 873.902,440.067 875.895,258.323 877.888,414.896 879.881,201.982 881.874,264.407 883.868,351.017 885.861,392.658 887.854,251.614 889.847,226.166 891.84,250.148 893.833,465.085 895.827,293.585 897.82,367.082 899.813,211.536 901.806,310.008 903.799,322.905 905.792,544.725 907.785,257.304 909.779,210.289 911.772,172.334 913.765,230.766 915.758,205.185 917.751,294.369 919.744,316.258 921.737,226.212 923.731,221.619 925.724,364.476 927.717,133.043 929.71,431.562 931.703,306.793 933.696,294.155 935.689,276.45 937.683,296.786 939.676,367.839 941.669,192.314 943.662,151.124 945.655,286.381 947.648,350.717 949.641,266.473 951.635,361.539 953.628,286.7 955.621,286.873 957.614,149.795 959.607,178.895 961.6,188.478 963.593,205.872 965.587,302.268 967.58,309.613 969.573,197.136 971.566,197.914 973.559,456.894 975.552,271.67 977.545,237.993 979.539,255.312 981.532,378.627 983.525,156.867 985.518,188.566 987.511,242.598 989.504,176.073 991.497,527.078 993.491,288.823 995.484,230.66 997.477,177.721 999.47,201.962 1001.46,193.376 1003.46,456.208 1005.45,245.991 1007.44,275.526 1009.44,127.941 1011.43,286.996 1013.42,359.006 1015.42,359.079 1017.41,199.349 1019.4,201.461 1021.39,257.723 1023.39,309.212 1025.38,344.413 1027.37,174.907 1029.37,160.502 1031.36,370.245 1033.35,322.218 1035.35,172.448 1037.34,247.072 1039.33,261.235 1041.33,172.44 1043.32,239.181 1045.31,478.978 1047.31,197.308 1049.3,187.859 1051.29,280.122 1053.28,279.22 1055.28,208.879 1057.27,295.657 1059.26,200.639 1061.26,304.3 1063.25,235.292 1065.24,334.767 1067.24,332.183 1069.23,391.629 1071.22,251.157 1073.22,227.333 1075.21,146.004 1077.2,569.609 1079.2,176.647 1081.19,179.481 1083.18,226.37 1085.18,321.968 1087.17,241.042 1089.16,209.38 1091.15,361.376 1093.15,246.526 1095.14,171.389 1097.13,258.409 1099.13,302.455 1101.12,175.098 1103.11,181.855 1105.11,236.207 1107.1,214.979 1109.09,291.812 1111.09,229.006 1113.08,255.336 1115.07,178.125 1117.07,202.881 1119.06,144.583 1121.05,139.883 1123.05,240.59 1125.04,199.848 1127.03,219.08 1129.02,178.852 1131.02,342.845 1133.01,196.32 1135,162.323 1137,273.297 1138.99,292.083 1140.98,232.7 1142.98,284.505 1144.97,316.803 1146.96,248.624 1148.96,200.209 1150.95,303.504 1152.94,139.486 1154.94,415.196 1156.93,266.978 1158.92,269.693 1160.91,201.074 1162.91,177.427 1164.9,163.893 1166.89,192.026 1168.89,204.353 1170.88,232.803 1172.87,169.11 1174.87,158.698 1176.86,210.27 1178.85,300.222 1180.85,171.882 1182.84,260.156 1184.83,146.256 1186.83,299.105 1188.82,252.837 1190.81,196.836 1192.81,205.21 1194.8,165.7 1196.79,202.681 1198.78,194.725 1200.78,542.234 1202.77,216.452 1204.76,260.644 1206.76,310.327 1208.75,299.249 1210.74,242.854 1212.74,510.815 1214.73,232.711 1216.72,274.345 1218.72,176.097 1220.71,557.893 1222.7,445.077 1224.7,177.907 1226.69,188.27 1228.68,218.779 1230.67,155.265 1232.67,197.426 1234.66,209.045 1236.65,262.256 1238.65,268.24 1240.64,228.92 1242.63,234.341 1244.63,128.163 1246.62,355.398 1248.61,210.927 1250.61,259.597 1252.6,208.903 1254.59,466.08 1256.59,118.527 1258.58,193.148 1260.57,157.742 1262.57,253.475 1264.56,278.61 1266.55,241.673 1268.54,232.913 1270.54,192.616 1272.53,151.32 1274.52,187.873 1276.52,114.21 1278.51,222.513 1280.5,154.772 1282.5,164.68 1284.49,152.886 1286.48,188.657 1288.48,260.836 1290.47,171.539 1292.46,308.47 1294.46,264.667 1296.45,310.02 1298.44,156.199 1300.44,215.509 1302.43,183.038 1304.42,202.425 1306.41,341.527 1308.41,265.857 1310.4,111.452 1312.39,195.468 1314.39,256.421 1316.38,318.132 1318.37,199.688 1320.37,167.771 1322.36,229.282 1324.35,96.2518 1326.35,323.285 1328.34,431.435 1330.33,130.717 1332.33,191.337 1334.32,203.067 1336.31,227.552 1338.3,349.929 1340.3,244.009 1342.29,182.433 1344.28,601.511 1346.28,181.363 1348.27,273.323 1350.26,157.888 1352.26,227.313 1354.25,272.549 1356.24,300.001 1358.24,252.961 1360.23,344.219 1362.22,174.802 1364.22,218.395 1366.21,264.739 1368.2,230.642 1370.2,256.62 1372.19,257.483 1374.18,237.734 1376.17,311.672 1378.17,460.378 1380.16,197.515 1382.15,159.587 1384.15,194.407 1386.14,160.864 1388.13,152.246 1390.13,188.071 1392.12,143.734 1394.11,235.365 1396.11,239.281 1398.1,318.619 1400.09,174.814 1402.09,166.103 1404.08,128.375 1406.07,244.818 1408.06,172.345 1410.06,151.05 1412.05,404.829 1414.04,221.186 1416.04,181.227 1418.03,280.087 1420.02,288.737 1422.02,202.906 1424.01,183.277 1426,203.425 1428,237.571 1429.99,162.506 1431.98,405.495 1433.98,203.612 1435.97,232.409 1437.96,240.872 1439.96,271.743 1441.95,268.52 1443.94,255.617 1445.93,228.433 1447.93,213.403 1449.92,317.382 1451.91,196.155 1453.91,400.262 1455.9,198.76 1457.89,289.952 1459.89,137.645 1461.88,142.457 1463.87,211.192 1465.87,437.161 1467.86,246.916 1469.85,223.533 1471.85,240.483 1473.84,164.159 1475.83,230.89 1477.82,180.21 1479.82,205.295 1481.81,258.46 1483.8,224.149 1485.8,242.379 1487.79,161.134 1489.78,320.098 1491.78,154.681 1493.77,214.794 1495.76,365.331 1497.76,138.939 1499.75,285.881 1501.74,199.923 1503.74,338.345 1505.73,182.518 1507.72,145.023 1509.72,140.793 1511.71,210.249 1513.7,170.616 1515.69,176.953 1517.69,121.897 1519.68,296.449 1521.67,224.568 1523.67,248.833 1525.66,210.012 1527.65,219.605 1529.65,221.307 1531.64,350.325 1533.63,320.753 1535.63,251.914 1537.62,247.739 1539.61,261.807 1541.61,230.63 1543.6,214.203 1545.59,234.629 1547.59,205.82 1549.58,247.244 1551.57,187.822 1553.56,163.967 1555.56,168.469 1557.55,214.131 1559.54,207.176 1561.54,263.417 1563.53,301.172 1565.52,248.531 1567.52,197.552 1569.51,258.032 1571.5,194.128 1573.5,252.025 1575.49,189.455 1577.48,367.074 1579.48,193.322 1581.47,184.254 1583.46,322.373 1585.45,335.795 1587.45,252.195 1589.44,193.867 1591.43,214.708 1593.43,207.94 1595.42,244.664 1597.41,204.411 1599.41,243.324 1601.4,178.94 1603.39,152.452 1605.39,154.74 1607.38,97.45 1609.37,200.585 1611.37,207.705 1613.36,156.019 1615.35,381.682 1617.35,172.953 1619.34,559.784 1621.33,318.455 1623.32,265.603 1625.32,297.368 1627.31,142.494 1629.3,309.948 1631.3,309.469 1633.29,156 1635.28,150.211 1637.28,281.546 1639.27,280.479 1641.26,217.336 1643.26,269.687 1645.25,111.767 1647.24,206.26 1649.24,257.084 1651.23,172.652 1653.22,254.614 1655.21,247.505 1657.21,143.508 1659.2,334.63 1661.19,425.748 1663.19,270.982 1665.18,186.083 1667.17,285.714 1669.17,196.246 1671.16,233.75 1673.15,223.402 1675.15,339.936 1677.14,234.516 1679.13,184.346 1681.13,153.268 1683.12,370.57 1685.11,166.102 1687.11,232.24 1689.1,128.987 1691.09,438.303 1693.08,183.251 1695.08,312.267 1697.07,263.507 1699.06,277.193 1701.06,258.639 1703.05,182.327 1705.04,333.416 1707.04,376.346 1709.03,167.794 1711.02,287.137 1713.02,220.651 1715.01,306.662 1717,331.597 1719,302.644 1720.99,238.657 1722.98,239.924 1724.97,209.23 1726.97,205.824 1728.96,217.22 1730.95,323.917 1732.95,249.72 1734.94,220.205 1736.93,163.368 1738.93,220.875 1740.92,140.061 1742.91,239.076 1744.91,231.782 1746.9,202.858 1748.89,326.863 1750.89,245.478 1752.88,190.3 1754.87,251.012 1756.87,111.436 1758.86,214.458 1760.85,132.081 1762.84,272.071 1764.84,321.336 1766.83,268.289 1768.82,174.632 1770.82,219.198 1772.81,266.346 1774.8,224.65 1776.8,338.764 1778.79,308.241 1780.78,241.188 1782.78,305.868 1784.77,168.173 1786.76,250.187 1788.76,393.398 1790.75,277.017 1792.74,170.879 1794.74,189.837 1796.73,217.689 1798.72,246.576 1800.71,127.25 1802.71,156.499 1804.7,231.691 1806.69,169.479 1808.69,166.752 1810.68,172.045 1812.67,250.401 1814.67,261.67 1816.66,241.898 1818.65,174.339 1820.65,202.439 1822.64,207.053 1824.63,247.419 1826.63,139.394 1828.62,246.884 1830.61,136.731 1832.6,276.281 1834.6,288.362 1836.59,496.238 1838.58,245.349 1840.58,283.936 1842.57,185.989 1844.56,263.07 1846.56,181.39 1848.55,487.423 1850.54,238.145 1852.54,190.418 1854.53,104.274 1856.52,144.547 1858.52,240.197 1860.51,213.703 1862.5,155.703 1864.5,168.075 1866.49,332.078 1868.48,256.066 1870.47,151.257 1872.47,207.634 1874.46,184.016 1876.45,234.935 1878.45,222.126 1880.44,246.089 1882.43,213.831 1884.43,266.204 1886.42,188.839 1888.41,272.979 1890.41,142.48 1892.4,169.787 1894.39,274.918 1896.39,213.871 1898.38,402.646 1900.37,296.397 1902.36,208.149 1904.36,279.059 1906.35,277.087 1908.34,186.116 1910.34,267.692 1912.33,225.084 1914.32,227.077 1916.32,191.198 1918.31,307.33 1920.3,235.644 1922.3,228.177 1924.29,240.202 1926.28,383.968 1928.28,132.48 1930.27,178.577 1932.26,145.345 1934.26,292.639 1936.25,147.225 1938.24,218.458 1940.23,449.692 1942.23,141.219 1944.22,338.907 1946.21,328.097 1948.21,155.62 1950.2,184.801 1952.19,382.943 1954.19,197.979 1956.18,189.377 1958.17,188.278 1960.17,189.798 1962.16,246.352 1964.15,132.168 1966.15,270.903 1968.14,355.688 1970.13,119.62 1972.12,173.274 1974.12,100.021 1976.11,333.169 1978.1,262.258 1980.1,256.566 1982.09,248.708 1984.08,285.554 1986.08,324.321 1988.07,205.04 1990.06,216.812 1992.06,153.061 1994.05,214.997 1996.04,267.175 1998.04,364.531 2000.03,213.404 2002.02,154.598 2004.02,307.102 2006.01,181.14 2008,187.045 2009.99,168.839 2011.99,183.758 2013.98,193.544 2015.97,209.686 2017.97,181.678 2019.96,145.563 2021.95,241.32 2023.95,238.05 2025.94,346.063 2027.93,204.375 2029.93,177.404 2031.92,250.426 2033.91,306.198 2035.91,188.497 2037.9,488.01 2039.89,301.743 2041.89,310.593 2043.88,209.496 2045.87,197.973 2047.86,460.485 2049.86,254.513 2051.85,159.715 2053.84,268.663 2055.84,231.169 2057.83,135.797 2059.82,257.007 2061.82,86.1857 2063.81,181.766 2065.8,145.958 2067.8,308.94 2069.79,304.773 2071.78,351.976 2073.78,356.78 2075.77,403.281 2077.76,230.967 2079.75,240.659 2081.75,281.444 2083.74,156.577 2085.73,316.771 2087.73,210.532 2089.72,284.765 2091.71,350.464 2093.71,207.319 2095.7,188.211 2097.69,154.57 2099.69,172.626 2101.68,179.694 2103.67,296.32 2105.67,129.206 2107.66,178.874 2109.65,191.909 2111.65,214.449 2113.64,310.687 2115.63,223.798 2117.62,183.11 2119.62,263.141 2121.61,258.58 2123.6,330.627 2125.6,161.028 2127.59,407.191 2129.58,252.362 2131.58,379.323 2133.57,132.736 2135.56,259.745 2137.56,109.077 2139.55,333.777 2141.54,476.457 2143.54,266.396 2145.53,135.746 2147.52,196.69 2149.51,237.188 2151.51,414.877 2153.5,163.054 2155.49,102.702 2157.49,172.403 2159.48,300.112 2161.47,305.392 2163.47,247.292 2165.46,228.118 2167.45,222.535 2169.45,238.028 2171.44,211.552 2173.43,180.926 2175.43,137.481 2177.42,249.073 2179.41,237.206 2181.41,145.451 2183.4,408.555 2185.39,366.702 2187.38,402.493 2189.38,231.85 2191.37,258.798 2193.36,407.271 2195.36,319.16 2197.35,303.403 2199.34,348.756 2201.34,363.319 2203.33,146.271 2205.32,149.528 2207.32,255.757 2209.31,227.35 2211.3,204.8 2213.3,230.812 2215.29,176.547 2217.28,128.309 2219.27,265.811 2221.27,246.52 2223.26,190.217 2225.25,425.41 2227.25,205.158 2229.24,219.305 2231.23,168.118 2233.23,126.574 2235.22,335.388 2237.21,141.973 2239.21,151.15 2241.2,291.134 2243.19,212.716 2245.19,151.495 2247.18,284.638 2249.17,220.049 2251.17,248.909 2253.16,310.028 2255.15,251.595 2257.14,194.543 2259.14,283.349 2261.13,280.872 2263.12,321.461 2265.12,263.625 2267.11,156.614 2269.1,158.386 2271.1,249.922 2273.09,203.631 2275.08,192.066 2277.08,219.953 2279.07,147.979 2281.06,198.831 2283.06,255.727 2285.05,245.717 2287.04,150.147 2289.04,270.156 2291.03,314.008 2293.02,389.17 "/>
<polyline clip-path="url(#clip862)" style="stroke:#e26f46; stroke-linecap:round; stroke-linejoin:round; stroke-width:4; stroke-opacity:1; fill:none" points="301.869,576.369 303.862,812.909 305.856,897.469 307.849,1016.92 309.842,629.69 311.835,503.86 313.828,545.828 315.821,648.974 317.814,1080.89 319.808,1100.36 321.801,1372.82 323.794,945.247 325.787,798.406 327.78,829.094 329.773,858.621 331.766,981.959 333.76,927.477 335.753,214.567 337.746,311.517 339.739,828.557 341.732,1134.64 343.725,801.576 345.718,885.672 347.712,968.284 349.705,1246.82 351.698,664.007 353.691,663.977 355.684,450.438 357.677,1384.24 359.67,859.644 361.664,780.607 363.657,535.522 365.65,897.466 367.643,876.575 369.636,755.339 371.629,894.679 373.622,601.326 375.616,598.614 377.609,528.218 379.602,797.531 381.595,756.182 383.588,802.61 385.581,686.703 387.574,616.213 389.568,620.277 391.561,682.274 393.554,904.863 395.547,391.407 397.54,476.102 399.533,751.318 401.526,618.972 403.52,923.648 405.513,876.75 407.506,581.981 409.499,490.336 411.492,777.172 413.485,632.242 415.479,715.147 417.472,898.981 419.465,567.875 421.458,480.321 423.451,473.98 425.444,342.816 427.437,802.668 429.431,260.165 431.424,452.331 433.417,665.769 435.41,714.148 437.403,360.99 439.396,640.85 441.389,562.96 443.383,656.845 445.376,576.927 447.369,583.11 449.362,532.934 451.355,681.611 453.348,564.417 455.341,624.157 457.335,566.058 459.328,597.389 461.321,437.314 463.314,638.122 465.307,656.513 467.3,446.39 469.293,516.507 471.287,506.965 473.28,341.124 475.273,508.39 477.266,258.362 479.259,593.126 481.252,405.616 483.245,722.975 485.239,309.327 487.232,576.996 489.225,643.715 491.218,408.314 493.211,414.461 495.204,433.723 497.197,556.241 499.191,486.568 501.184,423.285 503.177,266.681 505.17,476.506 507.163,492.407 509.156,452.982 511.149,472.075 513.143,373.4 515.136,446.072 517.129,467.099 519.122,374.07 521.115,449.904 523.108,300.696 525.101,103.279 527.095,471.672 529.088,344.204 531.081,369.303 533.074,243.815 535.067,255.794 537.06,493.493 539.054,521.386 541.047,408.023 543.04,330.715 545.033,406.571 547.026,370.429 549.019,441.299 551.012,494.816 553.006,421.131 554.999,362.095 556.992,449.564 558.985,489.612 560.978,436.464 562.971,418.02 564.964,427.46 566.958,379.231 568.951,377.071 570.944,253.333 572.937,386.654 574.93,296.443 576.923,325.979 578.916,471.105 580.91,413.267 582.903,424.093 584.896,323.946 586.889,319.292 588.882,338.27 590.875,236.04 592.868,464.903 594.862,359.575 596.855,360.713 598.848,358.129 600.841,334.727 602.834,299.944 604.827,342.022 606.82,313.599 608.814,377.544 610.807,338.44 612.8,218.969 614.793,418.952 616.786,308.859 618.779,421.278 620.772,292.548 622.766,317.826 624.759,261.712 626.752,350.67 628.745,314.831 630.738,302.063 632.731,353.87 634.724,288.131 636.718,305.631 638.711,364.105 640.704,300.072 642.697,341.81 644.69,328.984 646.683,195.912 648.677,290.386 650.67,353.65 652.663,346.967 654.656,224.4 656.649,343.548 658.642,329.279 660.635,271.992 662.629,446.848 664.622,299.838 666.615,254.242 668.608,347.149 670.601,208.59 672.594,405.303 674.587,359.971 676.581,257.708 678.574,289.198 680.567,268.811 682.56,260.414 684.553,253.041 686.546,305.627 688.539,382.911 690.533,270.464 692.526,311.526 694.519,203.938 696.512,333.072 698.505,150.649 700.498,164.779 702.491,232.357 704.485,334.366 706.478,253.333 708.471,332.235 710.464,327.798 712.457,162.228 714.45,245.111 716.443,287.595 718.437,240.789 720.43,331.598 722.423,321.606 724.416,329.834 726.409,209.488 728.402,209.769 730.395,237.103 732.389,306.994 734.382,236.715 736.375,276.724 738.368,304.059 740.361,227.889 742.354,264.383 744.347,265.419 746.341,360.992 748.334,244.38 750.327,170.02 752.32,251.762 754.313,319.424 756.306,254.104 758.299,263.815 760.293,248.6 762.286,316.411 764.279,230.029 766.272,303.718 768.265,227.673 770.258,234.171 772.252,285.778 774.245,272.666 776.238,245.782 778.231,333.343 780.224,320.128 782.217,203.841 784.21,219.14 786.204,346.05 788.197,186.149 790.19,276.399 792.183,252.321 794.176,251.281 796.169,213.501 798.162,219.263 800.156,234.187 802.149,299.316 804.142,285.2 806.135,308.785 808.128,276.503 810.121,228.77 812.114,220.861 814.108,301.939 816.101,253.397 818.094,283.241 820.087,268.867 822.08,249.358 824.073,242.609 826.066,271.764 828.06,255.151 830.053,233.226 832.046,230.958 834.039,219.615 836.032,211.362 838.025,185.318 840.018,294.947 842.012,199.036 844.005,209.766 845.998,268.682 847.991,205.369 849.984,292.534 851.977,232.506 853.97,255.122 855.964,265.428 857.957,237.231 859.95,217.213 861.943,280.173 863.936,248.056 865.929,228.773 867.922,265.421 869.916,290.543 871.909,222.278 873.902,242.936 875.895,247.718 877.888,214.898 879.881,273.238 881.874,240.635 883.868,203.404 885.861,249.109 887.854,266.98 889.847,267.929 891.84,259.212 893.833,249.161 895.827,203.928 897.82,260.165 899.813,244.498 901.806,265.213 903.799,240.822 905.792,258.88 907.785,220.821 909.779,196.246 911.772,255.534 913.765,227.315 915.758,226 917.751,275.174 919.744,248.552 921.737,219.845 923.731,250.379 925.724,254.917 927.717,274.885 929.71,249.828 931.703,220.048 933.696,227.671 935.689,237.773 937.683,251.79 939.676,226.499 941.669,249.521 943.662,226.586 945.655,218.444 947.648,233.616 949.641,263.944 951.635,234.765 953.628,265.575 955.621,251.818 957.614,240.816 959.607,245.708 961.6,246.401 963.593,260.041 965.587,228.286 967.58,258.929 969.573,257.347 971.566,246.862 973.559,256.103 975.552,249.896 977.545,243.154 979.539,233.832 981.532,241.026 983.525,222.643 985.518,252.766 987.511,245.189 989.504,228.899 991.497,227.33 993.491,228.951 995.484,246.951 997.477,244.15 999.47,234.314 1001.46,266.281 1003.46,250.443 1005.45,216.046 1007.44,236.023 1009.44,246.607 1011.43,246.168 1013.42,230.396 1015.42,236.621 1017.41,216.717 1019.4,234.861 1021.39,239.841 1023.39,230.93 1025.38,256.612 1027.37,233.233 1029.37,248.742 1031.36,231.708 1033.35,220.635 1035.35,238.434 1037.34,243.186 1039.33,243.336 1041.33,229.889 1043.32,238.153 1045.31,246.093 1047.31,233.682 1049.3,243.49 1051.29,245.549 1053.28,223.391 1055.28,224.442 1057.27,247.529 1059.26,222.683 1061.26,234.357 1063.25,246.695 1065.24,224.407 1067.24,241.937 1069.23,241.129 1071.22,244.98 1073.22,239.581 1075.21,245.792 1077.2,240.317 1079.2,241.613 1081.19,229.009 1083.18,252.012 1085.18,237.725 1087.17,232.057 1089.16,238.699 1091.15,247.375 1093.15,241.774 1095.14,249.524 1097.13,233.816 1099.13,234.737 1101.12,230.442 1103.11,236.282 1105.11,237.683 1107.1,245.341 1109.09,234.101 1111.09,244.299 1113.08,234.508 1115.07,240.242 1117.07,242.263 1119.06,234.76 1121.05,246.425 1123.05,236.683 1125.04,232.841 1127.03,228.133 1129.02,235.925 1131.02,239.47 1133.01,235.675 1135,240.062 1137,240.602 1138.99,237.955 1140.98,239.041 1142.98,235.199 1144.97,232.606 1146.96,241.42 1148.96,241.001 1150.95,238.622 1152.94,239.801 1154.94,237.273 1156.93,241.002 1158.92,239.654 1160.91,237.416 1162.91,242.423 1164.9,235.457 1166.89,234.27 1168.89,237.019 1170.88,240.363 1172.87,238.646 1174.87,237.202 1176.86,242.301 1178.85,234.025 1180.85,236.248 1182.84,236.445 1184.83,236.544 1186.83,237.974 1188.82,244.808 1190.81,234.661 1192.81,235.914 1194.8,242.381 1196.79,239.32 1198.78,239.929 1200.78,236.088 1202.77,234.328 1204.76,235.893 1206.76,232.887 1208.75,236.8 1210.74,239.67 1212.74,238.282 1214.73,238.372 1216.72,237.373 1218.72,235.83 1220.71,237.559 1222.7,236.469 1224.7,237.924 1226.69,237.335 1228.68,238.204 1230.67,235.951 1232.67,239.362 1234.66,239.425 1236.65,240.129 1238.65,239.66 1240.64,238.91 1242.63,238.23 1244.63,236.421 1246.62,236.551 1248.61,239.203 1250.61,233.293 1252.6,238.998 1254.59,236.593 1256.59,239.347 1258.58,237.904 1260.57,237.429 1262.57,237.43 1264.56,237.217 1266.55,238.369 1268.54,239.244 1270.54,236.19 1272.53,238.009 1274.52,236.535 1276.52,238.593 1278.51,238.729 1280.5,238.49 1282.5,238.556 1284.49,236.448 1286.48,239.295 1288.48,238.514 1290.47,237.888 1292.46,241.314 1294.46,237.917 1296.45,239.139 1298.44,237.942 1300.44,238.784 1302.43,238.163 1304.42,238.093 1306.41,238.668 1308.41,238.755 1310.4,237.732 1312.39,239.143 1314.39,238.835 1316.38,237.502 1318.37,236.118 1320.37,237.394 1322.36,239.867 1324.35,238.28 1326.35,238.362 1328.34,239.765 1330.33,240.334 1332.33,237.393 1334.32,237.866 1336.31,239.744 1338.3,238.263 1340.3,236.95 1342.29,238.51 1344.28,239.799 1346.28,238.155 1348.27,237.204 1350.26,238.629 1352.26,238.789 1354.25,237.175 1356.24,237.418 1358.24,238.801 1360.23,238.545 1362.22,237.96 1364.22,237.726 1366.21,237.397 1368.2,238.624 1370.2,240.237 1372.19,239.173 1374.18,237.476 1376.17,236.979 1378.17,237.942 1380.16,237.991 1382.15,238.254 1384.15,238.849 1386.14,238.813 1388.13,237.702 1390.13,237.171 1392.12,238.587 1394.11,239.311 1396.11,237.607 1398.1,238.357 1400.09,238.557 1402.09,237.808 1404.08,238.847 1406.07,239.519 1408.06,237.298 1410.06,238.3 1412.05,237.821 1414.04,238.216 1416.04,237.965 1418.03,238.825 1420.02,238.41 1422.02,238.511 1424.01,238.013 1426,238.55 1428,238.599 1429.99,237.924 1431.98,238.002 1433.98,238.254 1435.97,237.991 1437.96,238.421 1439.96,237.858 1441.95,238.161 1443.94,237.733 1445.93,238.456 1447.93,238.755 1449.92,238.033 1451.91,238.047 1453.91,238.416 1455.9,237.907 1457.89,238.504 1459.89,238.15 1461.88,237.899 1463.87,237.736 1465.87,237.946 1467.86,237.666 1469.85,238.215 1471.85,238.667 1473.84,237.857 1475.83,238.362 1477.82,238.299 1479.82,238.031 1481.81,238.827 1483.8,237.882 1485.8,237.926 1487.79,237.854 1489.78,238.139 1491.78,238.483 1493.77,238.512 1495.76,237.997 1497.76,238.739 1499.75,238.473 1501.74,238.34 1503.74,238.469 1505.73,238.161 1507.72,238.398 1509.72,238.318 1511.71,238.346 1513.7,238.139 1515.69,238.133 1517.69,238.29 1519.68,237.971 1521.67,238.422 1523.67,238.072 1525.66,238.499 1527.65,238.181 1529.65,238.297 1531.64,238.288 1533.63,238.288 1535.63,238.342 1537.62,237.902 1539.61,238.232 1541.61,238.099 1543.6,238.521 1545.59,238.211 1547.59,238.237 1549.58,238.117 1551.57,238.342 1553.56,238.058 1555.56,238.517 1557.55,238.309 1559.54,238.368 1561.54,238.335 1563.53,238.272 1565.52,238.311 1567.52,238.097 1569.51,238.138 1571.5,238.437 1573.5,238.242 1575.49,238.377 1577.48,238.413 1579.48,238.248 1581.47,238.189 1583.46,238.188 1585.45,238.19 1587.45,238.228 1589.44,238.271 1591.43,238.118 1593.43,238.304 1595.42,238.262 1597.41,238.306 1599.41,238.299 1601.4,238.376 1603.39,238.22 1605.39,238.341 1607.38,238.065 1609.37,238.282 1611.37,238.317 1613.36,238.242 1615.35,238.264 1617.35,238.277 1619.34,238.251 1621.33,238.137 1623.32,238.117 1625.32,238.312 1627.31,238.324 1629.3,238.344 1631.3,238.304 1633.29,238.269 1635.28,238.24 1637.28,238.224 1639.27,238.244 1641.26,238.271 1643.26,238.223 1645.25,238.237 1647.24,238.319 1649.24,238.163 1651.23,238.289 1653.22,238.337 1655.21,238.248 1657.21,238.142 1659.2,238.257 1661.19,238.19 1663.19,238.278 1665.18,238.329 1667.17,238.264 1669.17,238.268 1671.16,238.263 1673.15,238.272 1675.15,238.275 1677.14,238.27 1679.13,238.279 1681.13,238.228 1683.12,238.252 1685.11,238.248 1687.11,238.205 1689.1,238.303 1691.09,238.224 1693.08,238.267 1695.08,238.299 1697.07,238.256 1699.06,238.223 1701.06,238.276 1703.05,238.233 1705.04,238.227 1707.04,238.283 1709.03,238.291 1711.02,238.244 1713.02,238.291 1715.01,238.268 1717,238.215 1719,238.241 1720.99,238.24 1722.98,238.277 1724.97,238.272 1726.97,238.234 1728.96,238.248 1730.95,238.216 1732.95,238.245 1734.94,238.197 1736.93,238.212 1738.93,238.215 1740.92,238.259 1742.91,238.249 1744.91,238.248 1746.9,238.242 1748.89,238.263 1750.89,238.247 1752.88,238.261 1754.87,238.236 1756.87,238.26 1758.86,238.25 1760.85,238.233 1762.84,238.269 1764.84,238.241 1766.83,238.221 1768.82,238.268 1770.82,238.268 1772.81,238.246 1774.8,238.238 1776.8,238.24 1778.79,238.272 1780.78,238.269 1782.78,238.248 1784.77,238.254 1786.76,238.248 1788.76,238.27 1790.75,238.227 1792.74,238.239 1794.74,238.242 1796.73,238.244 1798.72,238.233 1800.71,238.233 1802.71,238.241 1804.7,238.275 1806.69,238.246 1808.69,238.246 1810.68,238.256 1812.67,238.263 1814.67,238.24 1816.66,238.239 1818.65,238.238 1820.65,238.256 1822.64,238.247 1824.63,238.251 1826.63,238.25 1828.62,238.261 1830.61,238.239 1832.6,238.252 1834.6,238.25 1836.59,238.247 1838.58,238.248 1840.58,238.25 1842.57,238.248 1844.56,238.25 1846.56,238.255 1848.55,238.248 1850.54,238.248 1852.54,238.253 1854.53,238.252 1856.52,238.25 1858.52,238.246 1860.51,238.244 1862.5,238.244 1864.5,238.258 1866.49,238.247 1868.48,238.255 1870.47,238.245 1872.47,238.248 1874.46,238.257 1876.45,238.246 1878.45,238.247 1880.44,238.254 1882.43,238.247 1884.43,238.252 1886.42,238.254 1888.41,238.25 1890.41,238.255 1892.4,238.248 1894.39,238.247 1896.39,238.249 1898.38,238.252 1900.37,238.251 1902.36,238.252 1904.36,238.245 1906.35,238.247 1908.34,238.245 1910.34,238.249 1912.33,238.247 1914.32,238.249 1916.32,238.246 1918.31,238.248 1920.3,238.248 1922.3,238.247 1924.29,238.246 1926.28,238.248 1928.28,238.25 1930.27,238.249 1932.26,238.252 1934.26,238.251 1936.25,238.247 1938.24,238.247 1940.23,238.249 1942.23,238.249 1944.22,238.25 1946.21,238.249 1948.21,238.247 1950.2,238.251 1952.19,238.247 1954.19,238.246 1956.18,238.248 1958.17,238.249 1960.17,238.249 1962.16,238.249 1964.15,238.248 1966.15,238.25 1968.14,238.248 1970.13,238.249 1972.12,238.249 1974.12,238.248 1976.11,238.247 1978.1,238.249 1980.1,238.246 1982.09,238.248 1984.08,238.248 1986.08,238.249 1988.07,238.249 1990.06,238.249 1992.06,238.246 1994.05,238.249 1996.04,238.248 1998.04,238.249 2000.03,238.248 2002.02,238.248 2004.02,238.249 2006.01,238.248 2008,238.247 2009.99,238.248 2011.99,238.249 2013.98,238.248 2015.97,238.247 2017.97,238.248 2019.96,238.247 2021.95,238.248 2023.95,238.249 2025.94,238.248 2027.93,238.248 2029.93,238.248 2031.92,238.249 2033.91,238.248 2035.91,238.249 2037.9,238.249 2039.89,238.247 2041.89,238.249 2043.88,238.249 2045.87,238.248 2047.86,238.248 2049.86,238.248 2051.85,238.248 2053.84,238.248 2055.84,238.248 2057.83,238.248 2059.82,238.249 2061.82,238.248 2063.81,238.248 2065.8,238.248 2067.8,238.248 2069.79,238.248 2071.78,238.248 2073.78,238.248 2075.77,238.249 2077.76,238.248 2079.75,238.248 2081.75,238.248 2083.74,238.249 2085.73,238.248 2087.73,238.249 2089.72,238.248 2091.71,238.248 2093.71,238.248 2095.7,238.249 2097.69,238.248 2099.69,238.248 2101.68,238.248 2103.67,238.248 2105.67,238.248 2107.66,238.248 2109.65,238.248 2111.65,238.248 2113.64,238.248 2115.63,238.248 2117.62,238.248 2119.62,238.248 2121.61,238.248 2123.6,238.248 2125.6,238.248 2127.59,238.248 2129.58,238.248 2131.58,238.248 2133.57,238.248 2135.56,238.248 2137.56,238.248 2139.55,238.248 2141.54,238.248 2143.54,238.248 2145.53,238.248 2147.52,238.248 2149.51,238.248 2151.51,238.248 2153.5,238.248 2155.49,238.248 2157.49,238.248 2159.48,238.248 2161.47,238.248 2163.47,238.248 2165.46,238.248 2167.45,238.248 2169.45,238.248 2171.44,238.248 2173.43,238.248 2175.43,238.248 2177.42,238.248 2179.41,238.248 2181.41,238.248 2183.4,238.248 2185.39,238.248 2187.38,238.248 2189.38,238.248 2191.37,238.248 2193.36,238.248 2195.36,238.248 2197.35,238.248 2199.34,238.248 2201.34,238.248 2203.33,238.248 2205.32,238.248 2207.32,238.248 2209.31,238.248 2211.3,238.248 2213.3,238.248 2215.29,238.248 2217.28,238.248 2219.27,238.248 2221.27,238.248 2223.26,238.248 2225.25,238.248 2227.25,238.248 2229.24,238.248 2231.23,238.248 2233.23,238.248 2235.22,238.248 2237.21,238.248 2239.21,238.248 2241.2,238.248 2243.19,238.248 2245.19,238.248 2247.18,238.248 2249.17,238.248 2251.17,238.248 2253.16,238.248 2255.15,238.248 2257.14,238.248 2259.14,238.248 2261.13,238.248 2263.12,238.248 2265.12,238.248 2267.11,238.248 2269.1,238.248 2271.1,238.248 2273.09,238.248 2275.08,238.248 2277.08,238.248 2279.07,238.248 2281.06,238.248 2283.06,238.248 2285.05,238.248 2287.04,238.248 2289.04,238.248 2291.03,238.248 2293.02,238.248 "/>
<path clip-path="url(#clip860)" d="M1863.63 1377.32 L2282.4 1377.32 L2282.4 1221.8 L1863.63 1221.8  Z" fill="#ffffff" fill-rule="evenodd" fill-opacity="1"/>
<polyline clip-path="url(#clip860)" style="stroke:#000000; stroke-linecap:round; stroke-linejoin:round; stroke-width:4; stroke-opacity:1; fill:none" points="1863.63,1377.32 2282.4,1377.32 2282.4,1221.8 1863.63,1221.8 1863.63,1377.32 "/>
<polyline clip-path="url(#clip860)" style="stroke:#009af9; stroke-linecap:round; stroke-linejoin:round; stroke-width:4; stroke-opacity:1; fill:none" points="1887.08,1273.64 2027.79,1273.64 "/>
<path clip-path="url(#clip860)" d="M2055.92 1274.41 L2055.92 1287.07 L2063.42 1287.07 Q2067.19 1287.07 2069 1285.52 Q2070.83 1283.95 2070.83 1280.73 Q2070.83 1277.49 2069 1275.96 Q2067.19 1274.41 2063.42 1274.41 L2055.92 1274.41 M2055.92 1260.2 L2055.92 1270.61 L2062.84 1270.61 Q2066.27 1270.61 2067.93 1269.34 Q2069.62 1268.05 2069.62 1265.41 Q2069.62 1262.79 2067.93 1261.49 Q2066.27 1260.2 2062.84 1260.2 L2055.92 1260.2 M2051.24 1256.36 L2063.19 1256.36 Q2068.53 1256.36 2071.43 1258.58 Q2074.32 1260.8 2074.32 1264.9 Q2074.32 1268.07 2072.84 1269.94 Q2071.36 1271.82 2068.49 1272.28 Q2071.94 1273.02 2073.84 1275.38 Q2075.76 1277.72 2075.76 1281.24 Q2075.76 1285.87 2072.61 1288.39 Q2069.46 1290.92 2063.65 1290.92 L2051.24 1290.92 L2051.24 1256.36 Z" fill="#000000" fill-rule="nonzero" fill-opacity="1" /><path clip-path="url(#clip860)" d="M2088.44 1274.41 L2088.44 1287.07 L2095.94 1287.07 Q2099.72 1287.07 2101.52 1285.52 Q2103.35 1283.95 2103.35 1280.73 Q2103.35 1277.49 2101.52 1275.96 Q2099.72 1274.41 2095.94 1274.41 L2088.44 1274.41 M2088.44 1260.2 L2088.44 1270.61 L2095.36 1270.61 Q2098.79 1270.61 2100.46 1269.34 Q2102.15 1268.05 2102.15 1265.41 Q2102.15 1262.79 2100.46 1261.49 Q2098.79 1260.2 2095.36 1260.2 L2088.44 1260.2 M2083.77 1256.36 L2095.71 1256.36 Q2101.06 1256.36 2103.95 1258.58 Q2106.84 1260.8 2106.84 1264.9 Q2106.84 1268.07 2105.36 1269.94 Q2103.88 1271.82 2101.01 1272.28 Q2104.46 1273.02 2106.36 1275.38 Q2108.28 1277.72 2108.28 1281.24 Q2108.28 1285.87 2105.13 1288.39 Q2101.98 1290.92 2096.17 1290.92 L2083.77 1290.92 L2083.77 1256.36 Z" fill="#000000" fill-rule="nonzero" fill-opacity="1" /><path clip-path="url(#clip860)" d="M2123.74 1290.92 L2110.55 1256.36 L2115.43 1256.36 L2126.38 1285.45 L2137.35 1256.36 L2142.22 1256.36 L2129.04 1290.92 L2123.74 1290.92 Z" fill="#000000" fill-rule="nonzero" fill-opacity="1" /><path clip-path="url(#clip860)" d="M2147.26 1256.36 L2151.94 1256.36 L2151.94 1290.92 L2147.26 1290.92 L2147.26 1256.36 Z" fill="#000000" fill-rule="nonzero" fill-opacity="1" /><path clip-path="url(#clip860)" d="M2202.19 1259.02 L2202.19 1263.95 Q2199.83 1261.75 2197.15 1260.66 Q2194.48 1259.57 2191.47 1259.57 Q2185.55 1259.57 2182.4 1263.21 Q2179.25 1266.82 2179.25 1273.67 Q2179.25 1280.5 2182.4 1284.13 Q2185.55 1287.74 2191.47 1287.74 Q2194.48 1287.74 2197.15 1286.66 Q2199.83 1285.57 2202.19 1283.37 L2202.19 1288.25 Q2199.74 1289.92 2196.98 1290.75 Q2194.25 1291.59 2191.2 1291.59 Q2183.35 1291.59 2178.84 1286.79 Q2174.32 1281.98 2174.32 1273.67 Q2174.32 1265.34 2178.84 1260.55 Q2183.35 1255.73 2191.2 1255.73 Q2194.3 1255.73 2197.03 1256.56 Q2199.78 1257.37 2202.19 1259.02 Z" fill="#000000" fill-rule="nonzero" fill-opacity="1" /><path clip-path="url(#clip860)" d="M2209.41 1256.36 L2229.27 1256.36 L2229.27 1260.29 L2214.09 1260.29 L2214.09 1270.48 L2227.79 1270.48 L2227.79 1274.41 L2214.09 1274.41 L2214.09 1290.92 L2209.41 1290.92 L2209.41 1256.36 Z" fill="#000000" fill-rule="nonzero" fill-opacity="1" /><path clip-path="url(#clip860)" d="M2236.68 1256.36 L2258.53 1256.36 L2258.53 1260.29 L2241.36 1260.29 L2241.36 1270.52 L2257.82 1270.52 L2257.82 1274.46 L2241.36 1274.46 L2241.36 1286.98 L2258.95 1286.98 L2258.95 1290.92 L2236.68 1290.92 L2236.68 1256.36 Z" fill="#000000" fill-rule="nonzero" fill-opacity="1" /><polyline clip-path="url(#clip860)" style="stroke:#e26f46; stroke-linecap:round; stroke-linejoin:round; stroke-width:4; stroke-opacity:1; fill:none" points="1887.08,1325.48 2027.79,1325.48 "/>
<path clip-path="url(#clip860)" d="M2055.92 1326.25 L2055.92 1338.91 L2063.42 1338.91 Q2067.19 1338.91 2069 1337.36 Q2070.83 1335.79 2070.83 1332.57 Q2070.83 1329.33 2069 1327.8 Q2067.19 1326.25 2063.42 1326.25 L2055.92 1326.25 M2055.92 1312.04 L2055.92 1322.45 L2062.84 1322.45 Q2066.27 1322.45 2067.93 1321.18 Q2069.62 1319.89 2069.62 1317.25 Q2069.62 1314.63 2067.93 1313.33 Q2066.27 1312.04 2062.84 1312.04 L2055.92 1312.04 M2051.24 1308.2 L2063.19 1308.2 Q2068.53 1308.2 2071.43 1310.42 Q2074.32 1312.64 2074.32 1316.74 Q2074.32 1319.91 2072.84 1321.78 Q2071.36 1323.66 2068.49 1324.12 Q2071.94 1324.86 2073.84 1327.22 Q2075.76 1329.56 2075.76 1333.08 Q2075.76 1337.71 2072.61 1340.23 Q2069.46 1342.76 2063.65 1342.76 L2051.24 1342.76 L2051.24 1308.2 Z" fill="#000000" fill-rule="nonzero" fill-opacity="1" /><path clip-path="url(#clip860)" d="M2088.44 1326.25 L2088.44 1338.91 L2095.94 1338.91 Q2099.72 1338.91 2101.52 1337.36 Q2103.35 1335.79 2103.35 1332.57 Q2103.35 1329.33 2101.52 1327.8 Q2099.72 1326.25 2095.94 1326.25 L2088.44 1326.25 M2088.44 1312.04 L2088.44 1322.45 L2095.36 1322.45 Q2098.79 1322.45 2100.46 1321.18 Q2102.15 1319.89 2102.15 1317.25 Q2102.15 1314.63 2100.46 1313.33 Q2098.79 1312.04 2095.36 1312.04 L2088.44 1312.04 M2083.77 1308.2 L2095.71 1308.2 Q2101.06 1308.2 2103.95 1310.42 Q2106.84 1312.64 2106.84 1316.74 Q2106.84 1319.91 2105.36 1321.78 Q2103.88 1323.66 2101.01 1324.12 Q2104.46 1324.86 2106.36 1327.22 Q2108.28 1329.56 2108.28 1333.08 Q2108.28 1337.71 2105.13 1340.23 Q2101.98 1342.76 2096.17 1342.76 L2083.77 1342.76 L2083.77 1308.2 Z" fill="#000000" fill-rule="nonzero" fill-opacity="1" /><path clip-path="url(#clip860)" d="M2123.74 1342.76 L2110.55 1308.2 L2115.43 1308.2 L2126.38 1337.29 L2137.35 1308.2 L2142.22 1308.2 L2129.04 1342.76 L2123.74 1342.76 Z" fill="#000000" fill-rule="nonzero" fill-opacity="1" /><path clip-path="url(#clip860)" d="M2147.26 1308.2 L2151.94 1308.2 L2151.94 1342.76 L2147.26 1342.76 L2147.26 1308.2 Z" fill="#000000" fill-rule="nonzero" fill-opacity="1" /><path clip-path="url(#clip860)" d="M2197.03 1309.33 L2197.03 1313.89 Q2194.37 1312.62 2192.01 1311.99 Q2189.65 1311.37 2187.45 1311.37 Q2183.63 1311.37 2181.54 1312.85 Q2179.48 1314.33 2179.48 1317.06 Q2179.48 1319.35 2180.85 1320.53 Q2182.24 1321.69 2186.08 1322.41 L2188.9 1322.99 Q2194.14 1323.98 2196.61 1326.51 Q2199.11 1329.01 2199.11 1333.22 Q2199.11 1338.24 2195.73 1340.83 Q2192.38 1343.43 2185.87 1343.43 Q2183.42 1343.43 2180.64 1342.87 Q2177.89 1342.32 2174.92 1341.23 L2174.92 1336.41 Q2177.77 1338.01 2180.5 1338.82 Q2183.23 1339.63 2185.87 1339.63 Q2189.88 1339.63 2192.05 1338.06 Q2194.23 1336.48 2194.23 1333.57 Q2194.23 1331.02 2192.65 1329.58 Q2191.1 1328.15 2187.54 1327.43 L2184.69 1326.88 Q2179.46 1325.83 2177.12 1323.61 Q2174.78 1321.39 2174.78 1317.43 Q2174.78 1312.85 2178 1310.21 Q2181.24 1307.57 2186.91 1307.57 Q2189.34 1307.57 2191.87 1308.01 Q2194.39 1308.45 2197.03 1309.33 Z" fill="#000000" fill-rule="nonzero" fill-opacity="1" /><path clip-path="url(#clip860)" d="M2201.61 1308.2 L2230.85 1308.2 L2230.85 1312.13 L2218.58 1312.13 L2218.58 1342.76 L2213.88 1342.76 L2213.88 1312.13 L2201.61 1312.13 L2201.61 1308.2 Z" fill="#000000" fill-rule="nonzero" fill-opacity="1" /><path clip-path="url(#clip860)" d="M2235.36 1308.2 L2240.04 1308.2 L2240.04 1338.82 L2256.87 1338.82 L2256.87 1342.76 L2235.36 1342.76 L2235.36 1308.2 Z" fill="#000000" fill-rule="nonzero" fill-opacity="1" /></svg>
