<?xml version="1.0" encoding="utf-8"?>
<svg xmlns="http://www.w3.org/2000/svg" xmlns:xlink="http://www.w3.org/1999/xlink" width="600" height="400" viewBox="0 0 2400 1600">
<defs>
  <clipPath id="clip330">
    <rect x="0" y="0" width="2400" height="1600"/>
  </clipPath>
</defs>
<path clip-path="url(#clip330)" d="M0 1600 L2400 1600 L2400 0 L0 0  Z" fill="#ffffff" fill-rule="evenodd" fill-opacity="1"/>
<defs>
  <clipPath id="clip331">
    <rect x="242" y="47" width="2112" height="1377"/>
  </clipPath>
</defs>
<path clip-path="url(#clip330)" d="M251.56 1423.18 L2352.76 1423.18 L2352.76 47.2441 L251.56 47.2441  Z" fill="#ffffff" fill-rule="evenodd" fill-opacity="1"/>
<defs>
  <clipPath id="clip332">
    <rect x="251" y="47" width="2102" height="1377"/>
  </clipPath>
</defs>
<polyline clip-path="url(#clip332)" style="stroke:#000000; stroke-linecap:round; stroke-linejoin:round; stroke-width:2; stroke-opacity:0.1; fill:none" points="309.044,1423.18 309.044,47.2441 "/>
<polyline clip-path="url(#clip332)" style="stroke:#000000; stroke-linecap:round; stroke-linejoin:round; stroke-width:2; stroke-opacity:0.1; fill:none" points="805.105,1423.18 805.105,47.2441 "/>
<polyline clip-path="url(#clip332)" style="stroke:#000000; stroke-linecap:round; stroke-linejoin:round; stroke-width:2; stroke-opacity:0.1; fill:none" points="1301.17,1423.18 1301.17,47.2441 "/>
<polyline clip-path="url(#clip332)" style="stroke:#000000; stroke-linecap:round; stroke-linejoin:round; stroke-width:2; stroke-opacity:0.1; fill:none" points="1797.23,1423.18 1797.23,47.2441 "/>
<polyline clip-path="url(#clip332)" style="stroke:#000000; stroke-linecap:round; stroke-linejoin:round; stroke-width:2; stroke-opacity:0.1; fill:none" points="2293.29,1423.18 2293.29,47.2441 "/>
<polyline clip-path="url(#clip332)" style="stroke:#000000; stroke-linecap:round; stroke-linejoin:round; stroke-width:2; stroke-opacity:0.1; fill:none" points="251.56,1112.2 2352.76,1112.2 "/>
<polyline clip-path="url(#clip332)" style="stroke:#000000; stroke-linecap:round; stroke-linejoin:round; stroke-width:2; stroke-opacity:0.1; fill:none" points="251.56,227.531 2352.76,227.531 "/>
<polyline clip-path="url(#clip330)" style="stroke:#000000; stroke-linecap:round; stroke-linejoin:round; stroke-width:4; stroke-opacity:1; fill:none" points="251.56,1423.18 2352.76,1423.18 "/>
<polyline clip-path="url(#clip330)" style="stroke:#000000; stroke-linecap:round; stroke-linejoin:round; stroke-width:4; stroke-opacity:1; fill:none" points="309.044,1423.18 309.044,1404.28 "/>
<polyline clip-path="url(#clip330)" style="stroke:#000000; stroke-linecap:round; stroke-linejoin:round; stroke-width:4; stroke-opacity:1; fill:none" points="805.105,1423.18 805.105,1404.28 "/>
<polyline clip-path="url(#clip330)" style="stroke:#000000; stroke-linecap:round; stroke-linejoin:round; stroke-width:4; stroke-opacity:1; fill:none" points="1301.17,1423.18 1301.17,1404.28 "/>
<polyline clip-path="url(#clip330)" style="stroke:#000000; stroke-linecap:round; stroke-linejoin:round; stroke-width:4; stroke-opacity:1; fill:none" points="1797.23,1423.18 1797.23,1404.28 "/>
<polyline clip-path="url(#clip330)" style="stroke:#000000; stroke-linecap:round; stroke-linejoin:round; stroke-width:4; stroke-opacity:1; fill:none" points="2293.29,1423.18 2293.29,1404.28 "/>
<path clip-path="url(#clip330)" d="M309.044 1454.1 Q305.433 1454.1 303.604 1457.66 Q301.798 1461.2 301.798 1468.33 Q301.798 1475.44 303.604 1479.01 Q305.433 1482.55 309.044 1482.55 Q312.678 1482.55 314.484 1479.01 Q316.312 1475.44 316.312 1468.33 Q316.312 1461.2 314.484 1457.66 Q312.678 1454.1 309.044 1454.1 M309.044 1450.39 Q314.854 1450.39 317.91 1455 Q320.988 1459.58 320.988 1468.33 Q320.988 1477.06 317.91 1481.67 Q314.854 1486.25 309.044 1486.25 Q303.234 1486.25 300.155 1481.67 Q297.099 1477.06 297.099 1468.33 Q297.099 1459.58 300.155 1455 Q303.234 1450.39 309.044 1450.39 Z" fill="#000000" fill-rule="nonzero" fill-opacity="1" /><path clip-path="url(#clip330)" d="M768.797 1481.64 L785.117 1481.64 L785.117 1485.58 L763.172 1485.58 L763.172 1481.64 Q765.834 1478.89 770.418 1474.26 Q775.024 1469.61 776.205 1468.27 Q778.45 1465.74 779.33 1464.01 Q780.232 1462.25 780.232 1460.56 Q780.232 1457.8 778.288 1456.07 Q776.367 1454.33 773.265 1454.33 Q771.066 1454.33 768.612 1455.09 Q766.181 1455.86 763.404 1457.41 L763.404 1452.69 Q766.228 1451.55 768.681 1450.97 Q771.135 1450.39 773.172 1450.39 Q778.543 1450.39 781.737 1453.08 Q784.931 1455.77 784.931 1460.26 Q784.931 1462.39 784.121 1464.31 Q783.334 1466.2 781.228 1468.8 Q780.649 1469.47 777.547 1472.69 Q774.445 1475.88 768.797 1481.64 Z" fill="#000000" fill-rule="nonzero" fill-opacity="1" /><path clip-path="url(#clip330)" d="M794.978 1451.02 L813.334 1451.02 L813.334 1454.96 L799.26 1454.96 L799.26 1463.43 Q800.279 1463.08 801.297 1462.92 Q802.316 1462.73 803.334 1462.73 Q809.121 1462.73 812.501 1465.9 Q815.88 1469.08 815.88 1474.49 Q815.88 1480.07 812.408 1483.17 Q808.936 1486.25 802.616 1486.25 Q800.441 1486.25 798.172 1485.88 Q795.927 1485.51 793.519 1484.77 L793.519 1480.07 Q795.603 1481.2 797.825 1481.76 Q800.047 1482.32 802.524 1482.32 Q806.528 1482.32 808.866 1480.21 Q811.204 1478.1 811.204 1474.49 Q811.204 1470.88 808.866 1468.77 Q806.528 1466.67 802.524 1466.67 Q800.649 1466.67 798.774 1467.08 Q796.922 1467.5 794.978 1468.38 L794.978 1451.02 Z" fill="#000000" fill-rule="nonzero" fill-opacity="1" /><path clip-path="url(#clip330)" d="M835.093 1454.1 Q831.482 1454.1 829.653 1457.66 Q827.848 1461.2 827.848 1468.33 Q827.848 1475.44 829.653 1479.01 Q831.482 1482.55 835.093 1482.55 Q838.727 1482.55 840.533 1479.01 Q842.362 1475.44 842.362 1468.33 Q842.362 1461.2 840.533 1457.66 Q838.727 1454.1 835.093 1454.1 M835.093 1450.39 Q840.903 1450.39 843.959 1455 Q847.038 1459.58 847.038 1468.33 Q847.038 1477.06 843.959 1481.67 Q840.903 1486.25 835.093 1486.25 Q829.283 1486.25 826.204 1481.67 Q823.149 1477.06 823.149 1468.33 Q823.149 1459.58 826.204 1455 Q829.283 1450.39 835.093 1450.39 Z" fill="#000000" fill-rule="nonzero" fill-opacity="1" /><path clip-path="url(#clip330)" d="M1260.78 1451.02 L1279.14 1451.02 L1279.14 1454.96 L1265.07 1454.96 L1265.07 1463.43 Q1266.09 1463.08 1267.1 1462.92 Q1268.12 1462.73 1269.14 1462.73 Q1274.93 1462.73 1278.31 1465.9 Q1281.69 1469.08 1281.69 1474.49 Q1281.69 1480.07 1278.21 1483.17 Q1274.74 1486.25 1268.42 1486.25 Q1266.25 1486.25 1263.98 1485.88 Q1261.73 1485.51 1259.33 1484.77 L1259.33 1480.07 Q1261.41 1481.2 1263.63 1481.76 Q1265.85 1482.32 1268.33 1482.32 Q1272.34 1482.32 1274.67 1480.21 Q1277.01 1478.1 1277.01 1474.49 Q1277.01 1470.88 1274.67 1468.77 Q1272.34 1466.67 1268.33 1466.67 Q1266.46 1466.67 1264.58 1467.08 Q1262.73 1467.5 1260.78 1468.38 L1260.78 1451.02 Z" fill="#000000" fill-rule="nonzero" fill-opacity="1" /><path clip-path="url(#clip330)" d="M1300.9 1454.1 Q1297.29 1454.1 1295.46 1457.66 Q1293.65 1461.2 1293.65 1468.33 Q1293.65 1475.44 1295.46 1479.01 Q1297.29 1482.55 1300.9 1482.55 Q1304.53 1482.55 1306.34 1479.01 Q1308.17 1475.44 1308.17 1468.33 Q1308.17 1461.2 1306.34 1457.66 Q1304.53 1454.1 1300.9 1454.1 M1300.9 1450.39 Q1306.71 1450.39 1309.77 1455 Q1312.84 1459.58 1312.84 1468.33 Q1312.84 1477.06 1309.77 1481.67 Q1306.71 1486.25 1300.9 1486.25 Q1295.09 1486.25 1292.01 1481.67 Q1288.96 1477.06 1288.96 1468.33 Q1288.96 1459.58 1292.01 1455 Q1295.09 1450.39 1300.9 1450.39 Z" fill="#000000" fill-rule="nonzero" fill-opacity="1" /><path clip-path="url(#clip330)" d="M1331.06 1454.1 Q1327.45 1454.1 1325.62 1457.66 Q1323.82 1461.2 1323.82 1468.33 Q1323.82 1475.44 1325.62 1479.01 Q1327.45 1482.55 1331.06 1482.55 Q1334.7 1482.55 1336.5 1479.01 Q1338.33 1475.44 1338.33 1468.33 Q1338.33 1461.2 1336.5 1457.66 Q1334.7 1454.1 1331.06 1454.1 M1331.06 1450.39 Q1336.87 1450.39 1339.93 1455 Q1343.01 1459.58 1343.01 1468.33 Q1343.01 1477.06 1339.93 1481.67 Q1336.87 1486.25 1331.06 1486.25 Q1325.25 1486.25 1322.17 1481.67 Q1319.12 1477.06 1319.12 1468.33 Q1319.12 1459.58 1322.17 1455 Q1325.25 1450.39 1331.06 1450.39 Z" fill="#000000" fill-rule="nonzero" fill-opacity="1" /><path clip-path="url(#clip330)" d="M1755.5 1451.02 L1777.72 1451.02 L1777.72 1453.01 L1765.18 1485.58 L1760.29 1485.58 L1772.1 1454.96 L1755.5 1454.96 L1755.5 1451.02 Z" fill="#000000" fill-rule="nonzero" fill-opacity="1" /><path clip-path="url(#clip330)" d="M1786.89 1451.02 L1805.25 1451.02 L1805.25 1454.96 L1791.17 1454.96 L1791.17 1463.43 Q1792.19 1463.08 1793.21 1462.92 Q1794.23 1462.73 1795.25 1462.73 Q1801.03 1462.73 1804.41 1465.9 Q1807.79 1469.08 1807.79 1474.49 Q1807.79 1480.07 1804.32 1483.17 Q1800.85 1486.25 1794.53 1486.25 Q1792.35 1486.25 1790.09 1485.88 Q1787.84 1485.51 1785.43 1484.77 L1785.43 1480.07 Q1787.52 1481.2 1789.74 1481.76 Q1791.96 1482.32 1794.44 1482.32 Q1798.44 1482.32 1800.78 1480.21 Q1803.12 1478.1 1803.12 1474.49 Q1803.12 1470.88 1800.78 1468.77 Q1798.44 1466.67 1794.44 1466.67 Q1792.56 1466.67 1790.69 1467.08 Q1788.84 1467.5 1786.89 1468.38 L1786.89 1451.02 Z" fill="#000000" fill-rule="nonzero" fill-opacity="1" /><path clip-path="url(#clip330)" d="M1827.01 1454.1 Q1823.4 1454.1 1821.57 1457.66 Q1819.76 1461.2 1819.76 1468.33 Q1819.76 1475.44 1821.57 1479.01 Q1823.4 1482.55 1827.01 1482.55 Q1830.64 1482.55 1832.45 1479.01 Q1834.28 1475.44 1834.28 1468.33 Q1834.28 1461.2 1832.45 1457.66 Q1830.64 1454.1 1827.01 1454.1 M1827.01 1450.39 Q1832.82 1450.39 1835.87 1455 Q1838.95 1459.58 1838.95 1468.33 Q1838.95 1477.06 1835.87 1481.67 Q1832.82 1486.25 1827.01 1486.25 Q1821.2 1486.25 1818.12 1481.67 Q1815.06 1477.06 1815.06 1468.33 Q1815.06 1459.58 1818.12 1455 Q1821.2 1450.39 1827.01 1450.39 Z" fill="#000000" fill-rule="nonzero" fill-opacity="1" /><path clip-path="url(#clip330)" d="M2237.81 1481.64 L2245.45 1481.64 L2245.45 1455.28 L2237.14 1456.95 L2237.14 1452.69 L2245.41 1451.02 L2250.08 1451.02 L2250.08 1481.64 L2257.72 1481.64 L2257.72 1485.58 L2237.81 1485.58 L2237.81 1481.64 Z" fill="#000000" fill-rule="nonzero" fill-opacity="1" /><path clip-path="url(#clip330)" d="M2277.17 1454.1 Q2273.55 1454.1 2271.73 1457.66 Q2269.92 1461.2 2269.92 1468.33 Q2269.92 1475.44 2271.73 1479.01 Q2273.55 1482.55 2277.17 1482.55 Q2280.8 1482.55 2282.61 1479.01 Q2284.43 1475.44 2284.43 1468.33 Q2284.43 1461.2 2282.61 1457.66 Q2280.8 1454.1 2277.17 1454.1 M2277.17 1450.39 Q2282.98 1450.39 2286.03 1455 Q2289.11 1459.58 2289.11 1468.33 Q2289.11 1477.06 2286.03 1481.67 Q2282.98 1486.25 2277.17 1486.25 Q2271.36 1486.25 2268.28 1481.67 Q2265.22 1477.06 2265.22 1468.33 Q2265.22 1459.58 2268.28 1455 Q2271.36 1450.39 2277.17 1450.39 Z" fill="#000000" fill-rule="nonzero" fill-opacity="1" /><path clip-path="url(#clip330)" d="M2307.33 1454.1 Q2303.72 1454.1 2301.89 1457.66 Q2300.08 1461.2 2300.08 1468.33 Q2300.08 1475.44 2301.89 1479.01 Q2303.72 1482.55 2307.33 1482.55 Q2310.96 1482.55 2312.77 1479.01 Q2314.6 1475.44 2314.6 1468.33 Q2314.6 1461.2 2312.77 1457.66 Q2310.96 1454.1 2307.33 1454.1 M2307.33 1450.39 Q2313.14 1450.39 2316.19 1455 Q2319.27 1459.58 2319.27 1468.33 Q2319.27 1477.06 2316.19 1481.67 Q2313.14 1486.25 2307.33 1486.25 Q2301.52 1486.25 2298.44 1481.67 Q2295.38 1477.06 2295.38 1468.33 Q2295.38 1459.58 2298.44 1455 Q2301.52 1450.39 2307.33 1450.39 Z" fill="#000000" fill-rule="nonzero" fill-opacity="1" /><path clip-path="url(#clip330)" d="M2337.49 1454.1 Q2333.88 1454.1 2332.05 1457.66 Q2330.24 1461.2 2330.24 1468.33 Q2330.24 1475.44 2332.05 1479.01 Q2333.88 1482.55 2337.49 1482.55 Q2341.12 1482.55 2342.93 1479.01 Q2344.76 1475.44 2344.76 1468.33 Q2344.76 1461.2 2342.93 1457.66 Q2341.12 1454.1 2337.49 1454.1 M2337.49 1450.39 Q2343.3 1450.39 2346.35 1455 Q2349.43 1459.58 2349.43 1468.33 Q2349.43 1477.06 2346.35 1481.67 Q2343.3 1486.25 2337.49 1486.25 Q2331.68 1486.25 2328.6 1481.67 Q2325.54 1477.06 2325.54 1468.33 Q2325.54 1459.58 2328.6 1455 Q2331.68 1450.39 2337.49 1450.39 Z" fill="#000000" fill-rule="nonzero" fill-opacity="1" /><path clip-path="url(#clip330)" d="M1169.88 1520.52 L1176.31 1520.52 L1176.31 1568.04 L1169.88 1568.04 L1169.88 1520.52 Z" fill="#000000" fill-rule="nonzero" fill-opacity="1" /><path clip-path="url(#clip330)" d="M1194.64 1522.27 L1194.64 1532.4 L1206.7 1532.4 L1206.7 1536.95 L1194.64 1536.95 L1194.64 1556.3 Q1194.64 1560.66 1195.82 1561.9 Q1197.03 1563.14 1200.69 1563.14 L1206.7 1563.14 L1206.7 1568.04 L1200.69 1568.04 Q1193.91 1568.04 1191.33 1565.53 Q1188.75 1562.98 1188.75 1556.3 L1188.75 1536.95 L1184.46 1536.95 L1184.46 1532.4 L1188.75 1532.4 L1188.75 1522.27 L1194.64 1522.27 Z" fill="#000000" fill-rule="nonzero" fill-opacity="1" /><path clip-path="url(#clip330)" d="M1244.9 1548.76 L1244.9 1551.62 L1217.97 1551.62 Q1218.35 1557.67 1221.6 1560.85 Q1224.88 1564 1230.7 1564 Q1234.08 1564 1237.23 1563.17 Q1240.41 1562.35 1243.53 1560.69 L1243.53 1566.23 Q1240.38 1567.57 1237.07 1568.27 Q1233.76 1568.97 1230.35 1568.97 Q1221.82 1568.97 1216.83 1564 Q1211.86 1559.04 1211.86 1550.57 Q1211.86 1541.82 1216.57 1536.69 Q1221.31 1531.54 1229.33 1531.54 Q1236.53 1531.54 1240.7 1536.18 Q1244.9 1540.8 1244.9 1548.76 M1239.04 1547.04 Q1238.98 1542.23 1236.34 1539.37 Q1233.73 1536.5 1229.4 1536.5 Q1224.5 1536.5 1221.54 1539.27 Q1218.61 1542.04 1218.16 1547.07 L1239.04 1547.04 Z" fill="#000000" fill-rule="nonzero" fill-opacity="1" /><path clip-path="url(#clip330)" d="M1275.17 1537.87 Q1274.18 1537.3 1273 1537.04 Q1271.86 1536.76 1270.46 1536.76 Q1265.49 1536.76 1262.82 1540 Q1260.18 1543.22 1260.18 1549.27 L1260.18 1568.04 L1254.29 1568.04 L1254.29 1532.4 L1260.18 1532.4 L1260.18 1537.93 Q1262.02 1534.69 1264.98 1533.13 Q1267.94 1531.54 1272.18 1531.54 Q1272.78 1531.54 1273.51 1531.63 Q1274.24 1531.7 1275.14 1531.85 L1275.17 1537.87 Z" fill="#000000" fill-rule="nonzero" fill-opacity="1" /><path clip-path="url(#clip330)" d="M1297.51 1550.12 Q1290.41 1550.12 1287.68 1551.75 Q1284.94 1553.37 1284.94 1557.29 Q1284.94 1560.4 1286.98 1562.25 Q1289.04 1564.07 1292.58 1564.07 Q1297.45 1564.07 1300.38 1560.63 Q1303.34 1557.16 1303.34 1551.43 L1303.34 1550.12 L1297.51 1550.12 M1309.19 1547.71 L1309.19 1568.04 L1303.34 1568.04 L1303.34 1562.63 Q1301.33 1565.88 1298.34 1567.44 Q1295.35 1568.97 1291.02 1568.97 Q1285.54 1568.97 1282.3 1565.91 Q1279.08 1562.82 1279.08 1557.67 Q1279.08 1551.65 1283.09 1548.6 Q1287.14 1545.54 1295.12 1545.54 L1303.34 1545.54 L1303.34 1544.97 Q1303.34 1540.93 1300.66 1538.73 Q1298.02 1536.5 1293.21 1536.5 Q1290.16 1536.5 1287.26 1537.23 Q1284.37 1537.97 1281.69 1539.43 L1281.69 1534.02 Q1284.91 1532.78 1287.93 1532.17 Q1290.95 1531.54 1293.82 1531.54 Q1301.55 1531.54 1305.37 1535.55 Q1309.19 1539.56 1309.19 1547.71 Z" fill="#000000" fill-rule="nonzero" fill-opacity="1" /><path clip-path="url(#clip330)" d="M1327.05 1522.27 L1327.05 1532.4 L1339.11 1532.4 L1339.11 1536.95 L1327.05 1536.95 L1327.05 1556.3 Q1327.05 1560.66 1328.23 1561.9 Q1329.44 1563.14 1333.1 1563.14 L1339.11 1563.14 L1339.11 1568.04 L1333.1 1568.04 Q1326.32 1568.04 1323.74 1565.53 Q1321.16 1562.98 1321.16 1556.3 L1321.16 1536.95 L1316.86 1536.95 L1316.86 1532.4 L1321.16 1532.4 L1321.16 1522.27 L1327.05 1522.27 Z" fill="#000000" fill-rule="nonzero" fill-opacity="1" /><path clip-path="url(#clip330)" d="M1346.81 1532.4 L1352.67 1532.4 L1352.67 1568.04 L1346.81 1568.04 L1346.81 1532.4 M1346.81 1518.52 L1352.67 1518.52 L1352.67 1525.93 L1346.81 1525.93 L1346.81 1518.52 Z" fill="#000000" fill-rule="nonzero" fill-opacity="1" /><path clip-path="url(#clip330)" d="M1378.74 1536.5 Q1374.03 1536.5 1371.29 1540.19 Q1368.55 1543.85 1368.55 1550.25 Q1368.55 1556.65 1371.26 1560.34 Q1374 1564 1378.74 1564 Q1383.42 1564 1386.15 1560.31 Q1388.89 1556.62 1388.89 1550.25 Q1388.89 1543.92 1386.15 1540.23 Q1383.42 1536.5 1378.74 1536.5 M1378.74 1531.54 Q1386.38 1531.54 1390.74 1536.5 Q1395.1 1541.47 1395.1 1550.25 Q1395.1 1559 1390.74 1564 Q1386.38 1568.97 1378.74 1568.97 Q1371.07 1568.97 1366.71 1564 Q1362.38 1559 1362.38 1550.25 Q1362.38 1541.47 1366.71 1536.5 Q1371.07 1531.54 1378.74 1531.54 Z" fill="#000000" fill-rule="nonzero" fill-opacity="1" /><path clip-path="url(#clip330)" d="M1434.44 1546.53 L1434.44 1568.04 L1428.58 1568.04 L1428.58 1546.72 Q1428.58 1541.66 1426.61 1539.14 Q1424.63 1536.63 1420.69 1536.63 Q1415.95 1536.63 1413.21 1539.65 Q1410.47 1542.68 1410.47 1547.9 L1410.47 1568.04 L1404.58 1568.04 L1404.58 1532.4 L1410.47 1532.4 L1410.47 1537.93 Q1412.57 1534.72 1415.4 1533.13 Q1418.27 1531.54 1421.99 1531.54 Q1428.14 1531.54 1431.29 1535.36 Q1434.44 1539.14 1434.44 1546.53 Z" fill="#000000" fill-rule="nonzero" fill-opacity="1" /><polyline clip-path="url(#clip330)" style="stroke:#000000; stroke-linecap:round; stroke-linejoin:round; stroke-width:4; stroke-opacity:1; fill:none" points="251.56,1423.18 251.56,47.2441 "/>
<polyline clip-path="url(#clip330)" style="stroke:#000000; stroke-linecap:round; stroke-linejoin:round; stroke-width:4; stroke-opacity:1; fill:none" points="251.56,1112.2 270.458,1112.2 "/>
<polyline clip-path="url(#clip330)" style="stroke:#000000; stroke-linecap:round; stroke-linejoin:round; stroke-width:4; stroke-opacity:1; fill:none" points="251.56,227.531 270.458,227.531 "/>
<path clip-path="url(#clip330)" d="M114.931 1132 L122.57 1132 L122.57 1105.63 L114.26 1107.3 L114.26 1103.04 L122.524 1101.37 L127.2 1101.37 L127.2 1132 L134.839 1132 L134.839 1135.93 L114.931 1135.93 L114.931 1132 Z" fill="#000000" fill-rule="nonzero" fill-opacity="1" /><path clip-path="url(#clip330)" d="M154.283 1104.45 Q150.672 1104.45 148.843 1108.02 Q147.038 1111.56 147.038 1118.69 Q147.038 1125.79 148.843 1129.36 Q150.672 1132.9 154.283 1132.9 Q157.917 1132.9 159.723 1129.36 Q161.552 1125.79 161.552 1118.69 Q161.552 1111.56 159.723 1108.02 Q157.917 1104.45 154.283 1104.45 M154.283 1100.75 Q160.093 1100.75 163.149 1105.35 Q166.227 1109.94 166.227 1118.69 Q166.227 1127.41 163.149 1132.02 Q160.093 1136.6 154.283 1136.6 Q148.473 1136.6 145.394 1132.02 Q142.339 1127.41 142.339 1118.69 Q142.339 1109.94 145.394 1105.35 Q148.473 1100.75 154.283 1100.75 Z" fill="#000000" fill-rule="nonzero" fill-opacity="1" /><path clip-path="url(#clip330)" d="M166.227 1094.85 L190.339 1094.85 L190.339 1098.05 L166.227 1098.05 L166.227 1094.85 Z" fill="#000000" fill-rule="nonzero" fill-opacity="1" /><path clip-path="url(#clip330)" d="M198.577 1080.44 L213.491 1080.44 L213.491 1083.64 L202.056 1083.64 L202.056 1090.52 Q202.884 1090.24 203.711 1090.11 Q204.539 1089.96 205.366 1089.96 Q210.068 1089.96 212.814 1092.54 Q215.56 1095.11 215.56 1099.51 Q215.56 1104.05 212.739 1106.57 Q209.918 1109.07 204.783 1109.07 Q203.015 1109.07 201.172 1108.77 Q199.348 1108.47 197.392 1107.86 L197.392 1104.05 Q199.085 1104.97 200.89 1105.42 Q202.696 1105.87 204.708 1105.87 Q207.962 1105.87 209.861 1104.16 Q211.761 1102.45 211.761 1099.51 Q211.761 1096.58 209.861 1094.87 Q207.962 1093.16 204.708 1093.16 Q203.185 1093.16 201.661 1093.49 Q200.157 1093.83 198.577 1094.55 L198.577 1080.44 Z" fill="#000000" fill-rule="nonzero" fill-opacity="1" /><path clip-path="url(#clip330)" d="M144.855 247.324 L152.493 247.324 L152.493 220.958 L144.183 222.625 L144.183 218.366 L152.447 216.699 L157.123 216.699 L157.123 247.324 L164.762 247.324 L164.762 251.259 L144.855 251.259 L144.855 247.324 Z" fill="#000000" fill-rule="nonzero" fill-opacity="1" /><path clip-path="url(#clip330)" d="M184.206 219.778 Q180.595 219.778 178.766 223.343 Q176.961 226.884 176.961 234.014 Q176.961 241.12 178.766 244.685 Q180.595 248.227 184.206 248.227 Q187.84 248.227 189.646 244.685 Q191.475 241.12 191.475 234.014 Q191.475 226.884 189.646 223.343 Q187.84 219.778 184.206 219.778 M184.206 216.074 Q190.016 216.074 193.072 220.681 Q196.151 225.264 196.151 234.014 Q196.151 242.741 193.072 247.347 Q190.016 251.93 184.206 251.93 Q178.396 251.93 175.317 247.347 Q172.262 242.741 172.262 234.014 Q172.262 225.264 175.317 220.681 Q178.396 216.074 184.206 216.074 Z" fill="#000000" fill-rule="nonzero" fill-opacity="1" /><path clip-path="url(#clip330)" d="M205.855 198.27 Q202.921 198.27 201.436 201.166 Q199.969 204.044 199.969 209.837 Q199.969 215.611 201.436 218.507 Q202.921 221.385 205.855 221.385 Q208.808 221.385 210.275 218.507 Q211.761 215.611 211.761 209.837 Q211.761 204.044 210.275 201.166 Q208.808 198.27 205.855 198.27 M205.855 195.261 Q210.576 195.261 213.059 199.004 Q215.56 202.728 215.56 209.837 Q215.56 216.927 213.059 220.67 Q210.576 224.394 205.855 224.394 Q201.135 224.394 198.633 220.67 Q196.151 216.927 196.151 209.837 Q196.151 202.728 198.633 199.004 Q201.135 195.261 205.855 195.261 Z" fill="#000000" fill-rule="nonzero" fill-opacity="1" /><path clip-path="url(#clip330)" d="M33.7671 1042.8 L14.479 1042.8 L14.479 1036.95 L64.0042 1036.95 L64.0042 1042.8 L58.657 1042.8 Q61.8398 1044.65 63.3994 1047.48 Q64.9272 1050.28 64.9272 1054.23 Q64.9272 1060.69 59.771 1064.76 Q54.6147 1068.81 46.212 1068.81 Q37.8093 1068.81 32.6531 1064.76 Q27.4968 1060.69 27.4968 1054.23 Q27.4968 1050.28 29.0564 1047.48 Q30.5842 1044.65 33.7671 1042.8 M46.212 1062.76 Q52.6732 1062.76 56.3653 1060.12 Q60.0256 1057.44 60.0256 1052.8 Q60.0256 1048.15 56.3653 1045.48 Q52.6732 1042.8 46.212 1042.8 Q39.7508 1042.8 36.0905 1045.48 Q32.3984 1048.15 32.3984 1052.8 Q32.3984 1057.44 36.0905 1060.12 Q39.7508 1062.76 46.212 1062.76 Z" fill="#000000" fill-rule="nonzero" fill-opacity="1" /><path clip-path="url(#clip330)" d="M28.3562 1024.88 L28.3562 1019.03 L64.0042 1019.03 L64.0042 1024.88 L28.3562 1024.88 M14.479 1024.88 L14.479 1019.03 L21.895 1019.03 L21.895 1024.88 L14.479 1024.88 Z" fill="#000000" fill-rule="nonzero" fill-opacity="1" /><path clip-path="url(#clip330)" d="M29.4065 984.047 L34.9447 984.047 Q33.6716 986.53 33.035 989.204 Q32.3984 991.877 32.3984 994.742 Q32.3984 999.102 33.7352 1001.3 Q35.072 1003.46 37.7456 1003.46 Q39.7826 1003.46 40.9603 1001.9 Q42.1061 1000.34 43.1565 995.633 L43.6021 993.628 Q44.9389 987.389 47.3897 984.779 Q49.8086 982.138 54.1691 982.138 Q59.1344 982.138 62.0308 986.084 Q64.9272 989.999 64.9272 996.874 Q64.9272 999.739 64.3543 1002.86 Q63.8132 1005.95 62.6992 1009.38 L56.6518 1009.38 Q58.3387 1006.14 59.198 1002.99 Q60.0256 999.834 60.0256 996.747 Q60.0256 992.609 58.6251 990.381 Q57.1929 988.153 54.6147 988.153 Q52.2276 988.153 50.9545 989.777 Q49.6813 991.368 48.5037 996.811 L48.0262 998.848 Q46.8804 1004.29 44.5251 1006.71 Q42.138 1009.13 38.0002 1009.13 Q32.9713 1009.13 30.2341 1005.56 Q27.4968 1002 27.4968 995.442 Q27.4968 992.196 27.9743 989.331 Q28.4517 986.466 29.4065 984.047 Z" fill="#000000" fill-rule="nonzero" fill-opacity="1" /><path clip-path="url(#clip330)" d="M18.2347 967.019 L28.3562 967.019 L28.3562 954.956 L32.9077 954.956 L32.9077 967.019 L52.2594 967.019 Q56.6199 967.019 57.8613 965.842 Q59.1026 964.632 59.1026 960.972 L59.1026 954.956 L64.0042 954.956 L64.0042 960.972 Q64.0042 967.751 61.4897 970.329 Q58.9434 972.907 52.2594 972.907 L32.9077 972.907 L32.9077 977.204 L28.3562 977.204 L28.3562 972.907 L18.2347 972.907 L18.2347 967.019 Z" fill="#000000" fill-rule="nonzero" fill-opacity="1" /><path clip-path="url(#clip330)" d="M46.0847 931.053 Q46.0847 938.151 47.7079 940.888 Q49.3312 943.625 53.2461 943.625 Q56.3653 943.625 58.2114 941.588 Q60.0256 939.519 60.0256 935.986 Q60.0256 931.117 56.5881 928.188 Q53.1188 925.228 47.3897 925.228 L46.0847 925.228 L46.0847 931.053 M43.6657 919.372 L64.0042 919.372 L64.0042 925.228 L58.5933 925.228 Q61.8398 927.234 63.3994 930.225 Q64.9272 933.217 64.9272 937.546 Q64.9272 943.02 61.8716 946.267 Q58.7843 949.482 53.6281 949.482 Q47.6125 949.482 44.5569 945.471 Q41.5014 941.429 41.5014 933.44 L41.5014 925.228 L40.9285 925.228 Q36.8862 925.228 34.6901 927.902 Q32.4621 930.544 32.4621 935.35 Q32.4621 938.405 33.1941 941.302 Q33.9262 944.198 35.3903 946.872 L29.9795 946.872 Q28.7381 943.657 28.1334 940.633 Q27.4968 937.61 27.4968 934.745 Q27.4968 927.011 31.5072 923.191 Q35.5176 919.372 43.6657 919.372 Z" fill="#000000" fill-rule="nonzero" fill-opacity="1" /><path clip-path="url(#clip330)" d="M42.4881 877.676 L64.0042 877.676 L64.0042 883.533 L42.679 883.533 Q37.6183 883.533 35.1038 885.506 Q32.5894 887.48 32.5894 891.426 Q32.5894 896.169 35.6131 898.906 Q38.6368 901.643 43.8567 901.643 L64.0042 901.643 L64.0042 907.532 L28.3562 907.532 L28.3562 901.643 L33.8944 901.643 Q30.6797 899.543 29.0883 896.71 Q27.4968 893.845 27.4968 890.121 Q27.4968 883.979 31.3163 880.828 Q35.1038 877.676 42.4881 877.676 Z" fill="#000000" fill-rule="nonzero" fill-opacity="1" /><path clip-path="url(#clip330)" d="M29.7248 840.342 L35.1993 840.342 Q33.8307 842.824 33.1623 845.339 Q32.4621 847.821 32.4621 850.368 Q32.4621 856.065 36.0905 859.216 Q39.6872 862.367 46.212 862.367 Q52.7369 862.367 56.3653 859.216 Q59.9619 856.065 59.9619 850.368 Q59.9619 847.821 59.2935 845.339 Q58.5933 842.824 57.2247 840.342 L62.6355 840.342 Q63.7814 842.792 64.3543 845.434 Q64.9272 848.044 64.9272 851.004 Q64.9272 859.057 59.8664 863.799 Q54.8057 868.542 46.212 868.542 Q37.491 868.542 32.4939 863.767 Q27.4968 858.961 27.4968 850.622 Q27.4968 847.917 28.0697 845.339 Q28.6108 842.761 29.7248 840.342 Z" fill="#000000" fill-rule="nonzero" fill-opacity="1" /><path clip-path="url(#clip330)" d="M44.7161 799.665 L47.5806 799.665 L47.5806 826.592 Q53.6281 826.21 56.8109 822.963 Q59.9619 819.685 59.9619 813.86 Q59.9619 810.486 59.1344 807.335 Q58.3069 804.153 56.6518 801.033 L62.1899 801.033 Q63.5267 804.184 64.227 807.495 Q64.9272 810.805 64.9272 814.21 Q64.9272 822.74 59.9619 827.738 Q54.9967 832.703 46.5303 832.703 Q37.7774 832.703 32.6531 827.992 Q27.4968 823.25 27.4968 815.229 Q27.4968 808.036 32.1438 803.866 Q36.7589 799.665 44.7161 799.665 M42.9973 805.521 Q38.1912 805.585 35.3266 808.227 Q32.4621 810.837 32.4621 815.165 Q32.4621 820.067 35.2312 823.027 Q38.0002 825.955 43.0292 826.401 L42.9973 805.521 Z" fill="#000000" fill-rule="nonzero" fill-opacity="1" /><path clip-path="url(#clip330)" d="M18.2347 763.539 L28.3562 763.539 L28.3562 751.476 L32.9077 751.476 L32.9077 763.539 L52.2594 763.539 Q56.6199 763.539 57.8613 762.362 Q59.1026 761.152 59.1026 757.492 L59.1026 751.476 L64.0042 751.476 L64.0042 757.492 Q64.0042 764.271 61.4897 766.85 Q58.9434 769.428 52.2594 769.428 L32.9077 769.428 L32.9077 773.724 L28.3562 773.724 L28.3562 769.428 L18.2347 769.428 L18.2347 763.539 Z" fill="#000000" fill-rule="nonzero" fill-opacity="1" /><path clip-path="url(#clip330)" d="M32.4621 729.96 Q32.4621 734.671 36.1542 737.408 Q39.8145 740.145 46.212 740.145 Q52.6095 740.145 56.3017 737.44 Q59.9619 734.703 59.9619 729.96 Q59.9619 725.281 56.2698 722.544 Q52.5777 719.807 46.212 719.807 Q39.8781 719.807 36.186 722.544 Q32.4621 725.281 32.4621 729.96 M27.4968 729.96 Q27.4968 722.321 32.4621 717.961 Q37.4273 713.6 46.212 713.6 Q54.9649 713.6 59.9619 717.961 Q64.9272 722.321 64.9272 729.96 Q64.9272 737.631 59.9619 741.991 Q54.9649 746.32 46.212 746.32 Q37.4273 746.32 32.4621 741.991 Q27.4968 737.631 27.4968 729.96 Z" fill="#000000" fill-rule="nonzero" fill-opacity="1" /><path clip-path="url(#clip330)" d="M32.4621 669.359 Q32.4621 674.069 36.1542 676.807 Q39.8145 679.544 46.212 679.544 Q52.6095 679.544 56.3017 676.838 Q59.9619 674.101 59.9619 669.359 Q59.9619 664.68 56.2698 661.943 Q52.5777 659.205 46.212 659.205 Q39.8781 659.205 36.186 661.943 Q32.4621 664.68 32.4621 669.359 M27.4968 669.359 Q27.4968 661.72 32.4621 657.359 Q37.4273 652.999 46.212 652.999 Q54.9649 652.999 59.9619 657.359 Q64.9272 661.72 64.9272 669.359 Q64.9272 677.029 59.9619 681.39 Q54.9649 685.719 46.212 685.719 Q37.4273 685.719 32.4621 681.39 Q27.4968 677.029 27.4968 669.359 Z" fill="#000000" fill-rule="nonzero" fill-opacity="1" /><path clip-path="url(#clip330)" d="M58.657 637.626 L77.5631 637.626 L77.5631 643.514 L28.3562 643.514 L28.3562 637.626 L33.7671 637.626 Q30.5842 635.78 29.0564 632.979 Q27.4968 630.146 27.4968 626.231 Q27.4968 619.738 32.6531 615.696 Q37.8093 611.622 46.212 611.622 Q54.6147 611.622 59.771 615.696 Q64.9272 619.738 64.9272 626.231 Q64.9272 630.146 63.3994 632.979 Q61.8398 635.78 58.657 637.626 M46.212 617.701 Q39.7508 617.701 36.0905 620.375 Q32.3984 623.016 32.3984 627.663 Q32.3984 632.31 36.0905 634.984 Q39.7508 637.626 46.212 637.626 Q52.6732 637.626 56.3653 634.984 Q60.0256 632.31 60.0256 627.663 Q60.0256 623.016 56.3653 620.375 Q52.6732 617.701 46.212 617.701 Z" fill="#000000" fill-rule="nonzero" fill-opacity="1" /><path clip-path="url(#clip330)" d="M18.2347 596.121 L28.3562 596.121 L28.3562 584.058 L32.9077 584.058 L32.9077 596.121 L52.2594 596.121 Q56.6199 596.121 57.8613 594.944 Q59.1026 593.734 59.1026 590.074 L59.1026 584.058 L64.0042 584.058 L64.0042 590.074 Q64.0042 596.853 61.4897 599.431 Q58.9434 602.01 52.2594 602.01 L32.9077 602.01 L32.9077 606.306 L28.3562 606.306 L28.3562 602.01 L18.2347 602.01 L18.2347 596.121 Z" fill="#000000" fill-rule="nonzero" fill-opacity="1" /><path clip-path="url(#clip330)" d="M28.3562 576.356 L28.3562 570.499 L64.0042 570.499 L64.0042 576.356 L28.3562 576.356 M14.479 576.356 L14.479 570.499 L21.895 570.499 L21.895 576.356 L14.479 576.356 Z" fill="#000000" fill-rule="nonzero" fill-opacity="1" /><path clip-path="url(#clip330)" d="M35.1993 530.491 Q31.2526 528.295 29.3747 525.239 Q27.4968 522.184 27.4968 518.046 Q27.4968 512.476 31.4117 509.452 Q35.2948 506.428 42.4881 506.428 L64.0042 506.428 L64.0042 512.317 L42.679 512.317 Q37.5546 512.317 35.072 514.131 Q32.5894 515.945 32.5894 519.669 Q32.5894 524.221 35.6131 526.862 Q38.6368 529.504 43.8567 529.504 L64.0042 529.504 L64.0042 535.392 L42.679 535.392 Q37.5228 535.392 35.072 537.207 Q32.5894 539.021 32.5894 542.808 Q32.5894 547.296 35.6449 549.938 Q38.6686 552.58 43.8567 552.58 L64.0042 552.58 L64.0042 558.468 L28.3562 558.468 L28.3562 552.58 L33.8944 552.58 Q30.616 550.575 29.0564 547.774 Q27.4968 544.973 27.4968 541.122 Q27.4968 537.238 29.4702 534.533 Q31.4436 531.796 35.1993 530.491 Z" fill="#000000" fill-rule="nonzero" fill-opacity="1" /><path clip-path="url(#clip330)" d="M49.9359 495.352 L28.3562 495.352 L28.3562 489.496 L49.7131 489.496 Q54.7739 489.496 57.3202 487.522 Q59.8346 485.549 59.8346 481.602 Q59.8346 476.86 56.8109 474.123 Q53.7872 471.353 48.5673 471.353 L28.3562 471.353 L28.3562 465.497 L64.0042 465.497 L64.0042 471.353 L58.5296 471.353 Q61.7762 473.486 63.3676 476.319 Q64.9272 479.12 64.9272 482.844 Q64.9272 488.986 61.1078 492.169 Q57.2883 495.352 49.9359 495.352 M27.4968 480.616 L27.4968 480.616 Z" fill="#000000" fill-rule="nonzero" fill-opacity="1" /><path clip-path="url(#clip330)" d="M35.1993 425.679 Q31.2526 423.483 29.3747 420.428 Q27.4968 417.372 27.4968 413.235 Q27.4968 407.665 31.4117 404.641 Q35.2948 401.617 42.4881 401.617 L64.0042 401.617 L64.0042 407.505 L42.679 407.505 Q37.5546 407.505 35.072 409.32 Q32.5894 411.134 32.5894 414.858 Q32.5894 419.409 35.6131 422.051 Q38.6368 424.693 43.8567 424.693 L64.0042 424.693 L64.0042 430.581 L42.679 430.581 Q37.5228 430.581 35.072 432.395 Q32.5894 434.21 32.5894 437.997 Q32.5894 442.485 35.6449 445.127 Q38.6686 447.768 43.8567 447.768 L64.0042 447.768 L64.0042 453.657 L28.3562 453.657 L28.3562 447.768 L33.8944 447.768 Q30.616 445.763 29.0564 442.962 Q27.4968 440.161 27.4968 436.31 Q27.4968 432.427 29.4702 429.722 Q31.4436 426.984 35.1993 425.679 Z" fill="#000000" fill-rule="nonzero" fill-opacity="1" /><polyline clip-path="url(#clip332)" style="stroke:#009af9; stroke-linecap:round; stroke-linejoin:round; stroke-width:4; stroke-opacity:1; fill:none" points="311.028,86.1857 313.012,86.5549 314.997,86.9202 316.981,87.2861 318.965,87.6463 320.949,87.9976 322.934,88.3586 324.918,88.7153 326.902,89.0721 328.886,89.424 330.87,89.772 332.855,90.1214 334.839,90.4697 336.823,90.8266 338.807,91.1875 340.792,91.5493 342.776,91.9134 344.76,92.2767 346.744,92.6456 348.729,93.0234 350.713,93.4009 352.697,93.7732 354.681,94.1553 356.666,94.5361 358.65,94.9198 360.634,95.2998 362.618,95.6861 364.603,96.0727 366.587,96.4667 368.571,96.8548 370.555,97.2491 372.54,97.6489 374.524,98.0326 376.508,98.4277 378.492,98.8224 380.477,99.2105 382.461,99.5979 384.445,99.9977 386.429,100.395 388.414,100.786 390.398,101.18 392.382,101.57 394.366,101.955 396.351,102.329 398.335,102.707 400.319,103.088 402.303,103.466 404.288,103.848 406.272,104.238 408.256,104.635 410.24,105.019 412.225,105.391 414.209,105.759 416.193,106.126 418.177,106.5 420.161,106.881 422.146,107.261 424.13,107.64 426.114,108.032 428.098,108.426 430.083,108.826 432.067,109.23 434.051,109.63 436.035,110.03 438.02,110.435 440.004,110.828 441.988,111.232 443.972,111.64 445.957,112.044 447.941,112.449 449.925,112.855 451.909,113.251 453.894,113.645 455.878,114.048 457.862,114.461 459.846,114.869 461.831,115.273 463.815,115.68 465.799,116.085 467.783,116.495 469.768,116.906 471.752,117.306 473.736,117.721 475.72,118.13 477.705,118.538 479.689,118.953 481.673,119.369 483.657,119.791 485.642,120.215 487.626,120.638 489.61,121.067 491.594,121.493 493.579,121.897 495.563,122.305 497.547,122.703 499.531,123.096 501.516,123.487 503.5,123.866 505.484,124.263 507.468,124.661 509.452,125.06 511.437,125.478 513.421,125.893 515.405,126.299 517.389,126.699 519.374,127.099 521.358,127.525 523.342,127.972 525.326,128.422 527.311,128.868 529.295,129.297 531.279,129.74 533.263,130.196 535.248,130.655 537.232,131.115 539.216,131.58 541.2,132.066 543.185,132.544 545.169,133.013 547.153,133.474 549.137,133.925 551.122,134.375 553.106,134.801 555.09,135.228 557.074,135.639 559.059,136.05 561.043,136.454 563.027,136.869 565.011,137.277 566.996,137.68 568.98,138.093 570.964,138.513 572.948,138.957 574.933,139.394 576.917,139.831 578.901,140.274 580.885,140.729 582.87,141.161 584.854,141.58 586.838,142.018 588.822,142.449 590.806,142.881 592.791,143.312 594.775,143.777 596.759,144.253 598.743,144.737 600.728,145.218 602.712,145.686 604.696,146.163 606.68,146.611 608.665,147.059 610.649,147.492 612.633,147.914 614.617,148.33 616.602,148.761 618.586,149.198 620.57,149.635 622.554,150.057 624.539,150.469 626.523,150.862 628.507,151.276 630.491,151.7 632.476,152.095 634.46,152.502 636.444,152.937 638.428,153.363 640.413,153.81 642.397,154.268 644.381,154.72 646.365,155.184 648.35,155.625 650.334,156.074 652.318,156.514 654.302,156.942 656.287,157.373 658.271,157.837 660.255,158.293 662.239,158.756 664.224,159.214 666.208,159.673 668.192,160.131 670.176,160.553 672.161,160.979 674.145,161.435 676.129,161.931 678.113,162.432 680.097,162.925 682.082,163.405 684.066,163.877 686.05,164.328 688.034,164.763 690.019,165.192 692.003,165.62 693.987,166.043 695.971,166.483 697.956,166.94 699.94,167.41 701.924,167.922 703.908,168.404 705.893,168.897 707.877,169.377 709.861,169.82 711.845,170.283 713.83,170.771 715.814,171.261 717.798,171.751 719.782,172.217 721.767,172.72 723.751,173.185 725.735,173.633 727.719,174.085 729.704,174.56 731.688,175.033 733.672,175.493 735.656,175.989 737.641,176.463 739.625,176.963 741.609,177.486 743.593,177.974 745.578,178.473 747.562,178.968 749.546,179.459 751.53,179.96 753.515,180.452 755.499,180.959 757.483,181.515 759.467,182.096 761.452,182.651 763.436,183.214 765.42,183.769 767.404,184.329 769.388,184.858 771.373,185.39 773.357,185.972 775.341,186.532 777.325,187.032 779.31,187.516 781.294,188.034 783.278,188.541 785.262,189.042 787.247,189.607 789.231,190.143 791.215,190.633 793.199,191.155 795.184,191.688 797.168,192.241 799.152,192.765 801.136,193.321 803.121,193.932 805.105,194.573 807.089,195.243 809.073,195.87 811.058,196.51 813.042,197.094 815.026,197.683 817.01,198.204 818.995,198.766 820.979,199.322 822.963,199.851 824.947,200.325 826.932,200.751 828.916,201.176 830.9,201.609 832.884,202.047 834.869,202.504 836.853,202.933 838.837,203.393 840.821,203.906 842.806,204.369 844.79,204.81 846.774,205.292 848.758,205.774 850.743,206.229 852.727,206.723 854.711,207.217 856.695,207.699 858.679,208.176 860.664,208.676 862.648,209.153 864.632,209.63 866.616,210.114 868.601,210.553 870.585,210.94 872.569,211.226 874.553,211.54 876.538,211.93 878.522,212.36 880.506,212.84 882.49,213.304 884.475,213.693 886.459,214.074 888.443,214.448 890.427,214.855 892.412,215.244 894.396,215.601 896.38,215.954 898.364,216.263 900.349,216.586 902.333,216.982 904.317,217.398 906.301,217.8 908.286,218.229 910.27,218.618 912.254,219.072 914.238,219.495 916.223,219.916 918.207,220.364 920.191,220.919 922.175,221.48 924.16,221.977 926.144,222.393 928.128,222.783 930.112,223.261 932.097,223.748 934.081,224.203 936.065,224.67 938.049,225.164 940.033,225.631 942.018,226.09 944.002,226.401 945.986,226.785 947.97,227.173 949.955,227.551 951.939,227.976 953.923,228.438 955.907,228.897 957.892,229.313 959.876,229.913 961.86,230.475 963.844,230.948 965.829,231.35 967.813,231.751 969.797,232.263 971.781,232.772 973.766,233.274 975.75,233.792 977.734,234.342 979.718,234.921 981.703,235.533 983.687,236.163 985.671,236.691 987.655,237.123 989.64,237.555 991.624,238.018 993.608,238.424 995.592,238.84 997.577,239.107 999.561,239.461 1001.55,239.9 1003.53,240.27 1005.51,240.807 1007.5,241.292 1009.48,241.726 1011.47,242.185 1013.45,242.646 1015.43,243.112 1017.42,243.471 1019.4,243.96 1021.39,244.362 1023.37,244.895 1025.36,245.384 1027.34,245.883 1029.32,246.408 1031.31,246.931 1033.29,247.379 1035.28,247.688 1037.26,248.009 1039.25,248.34 1041.23,248.662 1043.21,248.984 1045.2,249.442 1047.18,249.904 1049.17,250.442 1051.15,251.048 1053.14,251.593 1055.12,252.083 1057.1,252.653 1059.09,253.179 1061.07,253.65 1063.06,254.078 1065.04,254.462 1067.03,254.857 1069.01,255.189 1070.99,255.67 1072.98,256.166 1074.96,256.722 1076.95,257.107 1078.93,257.467 1080.91,257.748 1082.9,258.019 1084.88,258.476 1086.87,258.735 1088.85,259.055 1090.84,259.389 1092.82,259.527 1094.8,259.686 1096.79,260.066 1098.77,260.441 1100.76,260.744 1102.74,261.119 1104.73,261.44 1106.71,261.869 1108.69,262.31 1110.68,262.685 1112.66,263.106 1114.65,263.679 1116.63,264.258 1118.62,264.797 1120.6,265.509 1122.58,266.472 1124.57,267.312 1126.55,268.131 1128.54,268.975 1130.52,269.8 1132.51,270.626 1134.49,271.507 1136.47,272.275 1138.46,272.991 1140.44,273.901 1142.43,274.928 1144.41,275.982 1146.39,276.798 1148.38,277.582 1150.36,278.351 1152.35,279.301 1154.33,280.034 1156.32,280.695 1158.3,281.416 1160.28,282.093 1162.27,282.72 1164.25,283.298 1166.24,283.957 1168.22,284.686 1170.21,285.46 1172.19,286.113 1174.17,286.587 1176.16,287.024 1178.14,287.543 1180.13,288.039 1182.11,288.716 1184.1,289.497 1186.08,290.127 1188.06,290.8 1190.05,291.494 1192.03,292.053 1194.02,292.882 1196,293.865 1197.99,295.006 1199.97,296.085 1201.95,297.248 1203.94,298.236 1205.92,299.003 1207.91,299.732 1209.89,300.516 1211.87,301.228 1213.86,301.695 1215.84,301.853 1217.83,302.033 1219.81,302.113 1221.8,302.199 1223.78,302.415 1225.76,302.764 1227.75,302.901 1229.73,302.995 1231.72,303.154 1233.7,302.936 1235.69,303.058 1237.67,302.9 1239.65,302.654 1241.64,302.425 1243.62,302.223 1245.61,302.29 1247.59,302.321 1249.58,302.438 1251.56,302.534 1253.54,302.738 1255.53,303.026 1257.51,303.385 1259.5,303.697 1261.48,304.238 1263.47,304.258 1265.45,304.344 1267.43,304.49 1269.42,304.498 1271.4,304.014 1273.39,303.799 1275.37,303.655 1277.36,303.067 1279.34,302.411 1281.32,301.897 1283.31,301.458 1285.29,300.976 1287.28,300.472 1289.26,300.036 1291.24,299.772 1293.23,299.54 1295.21,299.457 1297.2,299.594 1299.18,299.785 1301.17,300.046 1303.15,300.261 1305.13,300.675 1307.12,301.198 1309.1,301.68 1311.09,302.192 1313.07,302.67 1315.06,303.232 1317.04,303.879 1319.02,304.51 1321.01,305.08 1322.99,305.697 1324.98,306.299 1326.96,306.692 1328.95,306.876 1330.93,306.655 1332.91,306.36 1334.9,306.067 1336.88,305.806 1338.87,305.685 1340.85,305.437 1342.84,305.456 1344.82,305.147 1346.8,305.118 1348.79,305.321 1350.77,305.438 1352.76,305.583 1354.74,305.621 1356.72,305.645 1358.71,305.836 1360.69,306.07 1362.68,306.195 1364.66,306.25 1366.65,306.46 1368.63,306.676 1370.61,306.943 1372.6,307.197 1374.58,307.588 1376.57,308.197 1378.55,308.819 1380.54,309.791 1382.52,310.822 1384.5,311.866 1386.49,312.783 1388.47,313.866 1390.46,314.75 1392.44,315.712 1394.43,316.648 1396.41,317.507 1398.39,318.371 1400.38,318.955 1402.36,319.36 1404.35,319.497 1406.33,319.629 1408.32,319.89 1410.3,320.134 1412.28,320.314 1414.27,320.421 1416.25,320.808 1418.24,320.929 1420.22,321.156 1422.2,321.381 1424.19,321.461 1426.17,321.309 1428.16,321.09 1430.14,321.093 1432.13,320.701 1434.11,320.287 1436.09,319.9 1438.08,319.836 1440.06,319.929 1442.05,319.68 1444.03,319.408 1446.02,319.043 1448,318.453 1449.98,317.938 1451.97,317.454 1453.95,317.011 1455.94,316.86 1457.92,316.732 1459.91,316.393 1461.89,315.902 1463.87,315.451 1465.86,314.994 1467.84,314.815 1469.83,314.831 1471.81,314.701 1473.8,314.392 1475.78,314.093 1477.76,313.713 1479.75,313.34 1481.73,312.822 1483.72,312.286 1485.7,311.798 1487.68,311.292 1489.67,310.796 1491.65,310.346 1493.64,310.103 1495.62,309.981 1497.61,309.851 1499.59,309.673 1501.57,309.253 1503.56,308.832 1505.54,308.575 1507.53,308.398 1509.51,308.399 1511.5,308.472 1513.48,308.823 1515.46,309.093 1517.45,309.328 1519.43,309.468 1521.42,309.62 1523.4,309.456 1525.39,309.445 1527.37,309.738 1529.35,310.163 1531.34,310.647 1533.32,311.268 1535.31,311.759 1537.29,311.816 1539.28,311.903 1541.26,311.97 1543.24,311.971 1545.23,311.924 1547.21,311.93 1549.2,312.017 1551.18,312.097 1553.16,312.213 1555.15,312.257 1557.13,312.085 1559.12,311.874 1561.1,311.939 1563.09,311.961 1565.07,312.059 1567.05,311.969 1569.04,311.824 1571.02,311.533 1573.01,311.405 1574.99,311.478 1576.98,311.57 1578.96,311.699 1580.94,311.683 1582.93,311.743 1584.91,312.086 1586.9,311.983 1588.88,311.888 1590.87,311.956 1592.85,311.961 1594.83,311.949 1596.82,311.736 1598.8,311.499 1600.79,311.985 1602.77,312.379 1604.76,312.641 1606.74,312.624 1608.72,312.872 1610.71,312.833 1612.69,312.812 1614.68,312.385 1616.66,312.442 1618.65,312.146 1620.63,311.868 1622.61,311.309 1624.6,310.747 1626.58,310.238 1628.57,310.17 1630.55,310.39 1632.53,310.399 1634.52,310.298 1636.5,310.231 1638.49,310.128 1640.47,310.024 1642.46,310.482 1644.44,310.818 1646.42,311.044 1648.41,311.153 1650.39,311.234 1652.38,311.216 1654.36,310.88 1656.35,310.626 1658.33,310.439 1660.31,310.386 1662.3,310.535 1664.28,310.709 1666.27,310.927 1668.25,311.389 1670.24,311.452 1672.22,311.439 1674.2,311.617 1676.19,311.976 1678.17,312.35 1680.16,312.518 1682.14,312.912 1684.13,313.82 1686.11,314.706 1688.09,315.318 1690.08,316.019 1692.06,317.027 1694.05,317.606 1696.03,318.18 1698.01,319.039 1700,319.928 1701.98,320.655 1703.97,321.369 1705.95,321.932 1707.94,322.149 1709.92,322.35 1711.9,322.884 1713.89,323.133 1715.87,323.731 1717.86,324.461 1719.84,325.275 1721.83,327.013 1723.81,329.077 1725.79,331.391 1727.78,332.919 1729.76,334.268 1731.75,335.762 1733.73,337.468 1735.72,339.174 1737.7,341.184 1739.68,343.098 1741.67,344.855 1743.65,346.387 1745.64,348.079 1747.62,349.701 1749.61,351.823 1751.59,353.628 1753.57,355.048 1755.56,356.06 1757.54,356.866 1759.53,357.319 1761.51,357.527 1763.49,357.433 1765.48,356.767 1767.46,355.631 1769.45,354.416 1771.43,352.798 1773.42,351.004 1775.4,348.667 1777.38,346.418 1779.37,344.184 1781.35,341.663 1783.34,339.472 1785.32,337.335 1787.31,335.703 1789.29,333.845 1791.27,332.427 1793.26,331.361 1795.24,330.64 1797.23,329.758 1799.21,329.155 1801.2,328.622 1803.18,327.153 1805.16,325.437 1807.15,324.007 1809.13,322.713 1811.12,321.633 1813.1,320.955 1815.09,320.416 1817.07,320.032 1819.05,319.7 1821.04,319.186 1823.02,318.535 1825.01,318.109 1826.99,317.834 1828.97,317.407 1830.96,316.926 1832.94,316.786 1834.93,317.164 1836.91,317.467 1838.9,317.551 1840.88,317.491 1842.86,317.121 1844.85,316.776 1846.83,316.606 1848.82,316.644 1850.8,316.65 1852.79,316.864 1854.77,317.084 1856.75,317.505 1858.74,317.944 1860.72,318.202 1862.71,318.148 1864.69,317.763 1866.68,317.627 1868.66,317.456 1870.64,317.334 1872.63,317.24 1874.61,317.286 1876.6,317.169 1878.58,317.179 1880.57,316.709 1882.55,316.067 1884.53,315.424 1886.52,314.781 1888.5,314.041 1890.49,313.246 1892.47,312.385 1894.46,311.681 1896.44,310.943 1898.42,310.168 1900.41,309.461 1902.39,308.786 1904.38,308.162 1906.36,307.508 1908.34,307.089 1910.33,306.758 1912.31,306.141 1914.3,305.397 1916.28,304.857 1918.27,304.63 1920.25,304.465 1922.23,304.37 1924.22,304.129 1926.2,303.692 1928.19,303.212 1930.17,303.037 1932.16,302.992 1934.14,302.964 1936.12,303.145 1938.11,303.411 1940.09,303.857 1942.08,304.331 1944.06,304.666 1946.05,305.136 1948.03,305.579 1950.01,306.273 1952,306.835 1953.98,307.265 1955.97,307.738 1957.95,308.004 1959.94,308.363 1961.92,308.572 1963.9,308.764 1965.89,309.206 1967.87,309.858 1969.86,310.468 1971.84,311.013 1973.82,311.764 1975.81,312.367 1977.79,312.806 1979.78,313.199 1981.76,313.35 1983.75,313.646 1985.73,313.696 1987.71,313.907 1989.7,314.204 1991.68,314.927 1993.67,315.194 1995.65,315.44 1997.64,315.798 1999.62,316.026 2001.6,316.025 2003.59,316.346 2005.57,316.591 2007.56,316.328 2009.54,316.03 2011.53,315.972 2013.51,316.291 2015.49,316.677 2017.48,317.169 2019.46,317.779 2021.45,318.21 2023.43,318.411 2025.42,318.595 2027.4,318.965 2029.38,318.95 2031.37,318.951 2033.35,319.278 2035.34,319.414 2037.32,319.467 2039.3,319.78 2041.29,320.158 2043.27,320.369 2045.26,320.609 2047.24,320.981 2049.23,321.167 2051.21,321.279 2053.19,321.062 2055.18,321.221 2057.16,321.755 2059.15,322.36 2061.13,322.775 2063.12,323.453 2065.1,324.097 2067.08,324.93 2069.07,325.447 2071.05,326.021 2073.04,326.555 2075.02,326.457 2077.01,326.245 2078.99,326.18 2080.97,325.93 2082.96,325.635 2084.94,325.396 2086.93,325.213 2088.91,325.125 2090.9,325.355 2092.88,325.227 2094.86,324.842 2096.85,324.179 2098.83,323.619 2100.82,323.052 2102.8,322.629 2104.78,322.131 2106.77,321.211 2108.75,320.396 2110.74,319.648 2112.72,319.136 2114.71,318.581 2116.69,318.738 2118.67,318.716 2120.66,318.69 2122.64,318.738 2124.63,318.79 2126.61,318.553 2128.6,318.529 2130.58,318.419 2132.56,318.2 2134.55,317.979 2136.53,317.904 2138.52,318.166 2140.5,318.344 2142.49,318.638 2144.47,319.066 2146.45,319.772 2148.44,320.596 2150.42,321.209 2152.41,321.73 2154.39,322.346 2156.38,323.005 2158.36,324.015 2160.34,325.208 2162.33,326.431 2164.31,327.579 2166.3,328.614 2168.28,329.277 2170.26,329.465 2172.25,329.556 2174.23,329.579 2176.22,329.182 2178.2,329.024 2180.19,328.69 2182.17,328.367 2184.15,328.243 2186.14,328.286 2188.12,328.363 2190.11,328.819 2192.09,329.428 2194.08,329.854 2196.06,330.209 2198.04,330.726 2200.03,331.008 2202.01,331.296 2204,331.903 2205.98,332.524 2207.97,333.48 2209.95,334.097 2211.93,334.472 2213.92,334.406 2215.9,333.751 2217.89,333.564 2219.87,332.996 2221.86,332.344 2223.84,332.347 2225.82,332.25 2227.81,331.834 2229.79,331.246 2231.78,330.948 2233.76,330.147 2235.75,329.946 2237.73,329.927 2239.71,329.934 2241.7,330.243 2243.68,330.473 2245.67,330.51 2247.65,330.435 2249.63,330.645 2251.62,330.447 2253.6,330.276 2255.59,329.614 2257.57,329.194 2259.56,328.755 2261.54,328.17 2263.52,327.446 2265.51,327.145 2267.49,327.134 2269.48,326.802 2271.46,326.193 2273.45,325.909 2275.43,325.65 2277.41,325.181 2279.4,324.748 2281.38,324.215 2283.37,323.88 2285.35,323.383 2287.34,322.74 2289.32,322.188 2291.3,321.624 2293.29,321.058 "/>
<polyline clip-path="url(#clip332)" style="stroke:#e26f46; stroke-linecap:round; stroke-linejoin:round; stroke-width:4; stroke-opacity:1; fill:none" points="311.028,86.1857 313.012,86.5715 314.997,86.9597 316.981,87.3491 318.965,87.7404 320.949,88.133 322.934,88.5281 324.918,88.9235 326.902,89.3203 328.886,89.7192 330.87,90.1201 332.855,90.5228 334.839,90.9271 336.823,91.3341 338.807,91.7421 340.792,92.1514 342.776,92.561 344.76,92.9724 346.744,93.3863 348.729,93.8036 350.713,94.2229 352.697,94.6438 354.681,95.0654 356.666,95.4888 358.65,95.9137 360.634,96.3389 362.618,96.7654 364.603,97.194 366.587,97.6232 368.571,98.053 370.555,98.4845 372.54,98.9187 374.524,99.3535 376.508,99.7904 378.492,100.23 380.477,100.671 382.461,101.113 384.445,101.554 386.429,101.996 388.414,102.442 390.398,102.892 392.382,103.342 394.366,103.793 396.351,104.245 398.335,104.697 400.319,105.149 402.303,105.605 404.288,106.064 406.272,106.525 408.256,106.987 410.24,107.449 412.225,107.909 414.209,108.367 416.193,108.83 418.177,109.296 420.161,109.765 422.146,110.236 424.13,110.705 426.114,111.178 428.098,111.649 430.083,112.122 432.067,112.597 434.051,113.072 436.035,113.551 438.02,114.03 440.004,114.51 441.988,114.992 443.972,115.477 445.957,115.962 447.941,116.45 449.925,116.938 451.909,117.426 453.894,117.918 455.878,118.408 457.862,118.902 459.846,119.396 461.831,119.892 463.815,120.39 465.799,120.893 467.783,121.395 469.768,121.9 471.752,122.403 473.736,122.907 475.72,123.414 477.705,123.922 479.689,124.431 481.673,124.944 483.657,125.457 485.642,125.971 487.626,126.485 489.61,127.001 491.594,127.517 493.579,128.034 495.563,128.552 497.547,129.07 499.531,129.592 501.516,130.112 503.5,130.632 505.484,131.154 507.468,131.68 509.452,132.207 511.437,132.738 513.421,133.269 515.405,133.804 517.389,134.342 519.374,134.884 521.358,135.424 523.342,135.966 525.326,136.506 527.311,137.052 529.295,137.597 531.279,138.143 533.263,138.688 535.248,139.237 537.232,139.789 539.216,140.343 541.2,140.901 543.185,141.461 545.169,142.02 547.153,142.585 549.137,143.15 551.122,143.716 553.106,144.285 555.09,144.853 557.074,145.418 559.059,145.979 561.043,146.541 563.027,147.104 565.011,147.67 566.996,148.237 568.98,148.805 570.964,149.376 572.948,149.951 574.933,150.527 576.917,151.109 578.901,151.689 580.885,152.27 582.87,152.85 584.854,153.431 586.838,154.013 588.822,154.605 590.806,155.195 592.791,155.793 594.775,156.399 596.759,157.013 598.743,157.626 600.728,158.242 602.712,158.861 604.696,159.478 606.68,160.099 608.665,160.716 610.649,161.336 612.633,161.957 614.617,162.578 616.602,163.198 618.586,163.817 620.57,164.442 622.554,165.066 624.539,165.69 626.523,166.316 628.507,166.945 630.491,167.574 632.476,168.204 634.46,168.834 636.444,169.462 638.428,170.092 640.413,170.72 642.397,171.347 644.381,171.978 646.365,172.612 648.35,173.251 650.334,173.893 652.318,174.539 654.302,175.185 656.287,175.831 658.271,176.48 660.255,177.125 662.239,177.768 664.224,178.413 666.208,179.057 668.192,179.705 670.176,180.352 672.161,181.002 674.145,181.659 676.129,182.323 678.113,182.988 680.097,183.661 682.082,184.34 684.066,185.027 686.05,185.707 688.034,186.387 690.019,187.071 692.003,187.751 693.987,188.433 695.971,189.117 697.956,189.794 699.94,190.47 701.924,191.149 703.908,191.83 705.893,192.513 707.877,193.195 709.861,193.878 711.845,194.562 713.83,195.241 715.814,195.925 717.798,196.611 719.782,197.297 721.767,197.989 723.751,198.69 725.735,199.383 727.719,200.073 729.704,200.764 731.688,201.457 733.672,202.157 735.656,202.866 737.641,203.574 739.625,204.288 741.609,205.007 743.593,205.727 745.578,206.449 747.562,207.173 749.546,207.91 751.53,208.635 753.515,209.367 755.499,210.101 757.483,210.831 759.467,211.558 761.452,212.288 763.436,213.02 765.42,213.754 767.404,214.494 769.388,215.234 771.373,215.976 773.357,216.731 775.341,217.488 777.325,218.248 779.31,219.003 781.294,219.761 783.278,220.515 785.262,221.28 787.247,222.053 789.231,222.832 791.215,223.61 793.199,224.382 795.184,225.156 797.168,225.928 799.152,226.696 801.136,227.465 803.121,228.234 805.105,229.006 807.089,229.785 809.073,230.563 811.058,231.345 813.042,232.133 815.026,232.929 817.01,233.727 818.995,234.523 820.979,235.32 822.963,236.121 824.947,236.917 826.932,237.704 828.916,238.487 830.9,239.271 832.884,240.06 834.869,240.846 836.853,241.636 838.837,242.423 840.821,243.223 842.806,244.019 844.79,244.814 846.774,245.626 848.758,246.451 850.743,247.28 852.727,248.118 854.711,248.948 856.695,249.788 858.679,250.638 860.664,251.496 862.648,252.362 864.632,253.224 866.616,254.083 868.601,254.935 870.585,255.785 872.569,256.631 874.553,257.48 876.538,258.331 878.522,259.194 880.506,260.057 882.49,260.915 884.475,261.784 886.459,262.652 888.443,263.523 890.427,264.4 892.412,265.275 894.396,266.156 896.38,267.035 898.364,267.917 900.349,268.8 902.333,269.68 904.317,270.57 906.301,271.46 908.286,272.344 910.27,273.228 912.254,274.104 914.238,274.988 916.223,275.879 918.207,276.771 920.191,277.66 922.175,278.544 924.16,279.429 926.144,280.307 928.128,281.189 930.112,282.07 932.097,282.947 934.081,283.833 936.065,284.722 938.049,285.609 940.033,286.496 942.018,287.372 944.002,288.259 945.986,289.172 947.97,290.078 949.955,290.983 951.939,291.904 953.923,292.825 955.907,293.749 957.892,294.667 959.876,295.586 961.86,296.506 963.844,297.435 965.829,298.361 967.813,299.295 969.797,300.227 971.781,301.151 973.766,302.075 975.75,302.994 977.734,303.907 979.718,304.816 981.703,305.734 983.687,306.678 985.671,307.611 987.655,308.534 989.64,309.461 991.624,310.39 993.608,311.338 995.592,312.289 997.577,313.242 999.561,314.2 1001.55,315.155 1003.53,316.105 1005.51,317.08 1007.5,318.053 1009.48,319.041 1011.47,320.027 1013.45,321.023 1015.43,322.024 1017.42,323.023 1019.4,324.03 1021.39,325.048 1023.37,326.066 1025.36,327.09 1027.34,328.108 1029.32,329.135 1031.31,330.155 1033.29,331.172 1035.28,332.19 1037.26,333.2 1039.25,334.208 1041.23,335.213 1043.21,336.215 1045.2,337.213 1047.18,338.216 1049.17,339.214 1051.15,340.222 1053.14,341.235 1055.12,342.26 1057.1,343.279 1059.09,344.288 1061.07,345.296 1063.06,346.306 1065.04,347.317 1067.03,348.324 1069.01,349.332 1070.99,350.343 1072.98,351.349 1074.96,352.351 1076.95,353.355 1078.93,354.356 1080.91,355.35 1082.9,356.351 1084.88,357.357 1086.87,358.375 1088.85,359.394 1090.84,360.432 1092.82,361.475 1094.8,362.517 1096.79,363.561 1098.77,364.609 1100.76,365.665 1102.74,366.718 1104.73,367.77 1106.71,368.832 1108.69,369.891 1110.68,370.957 1112.66,372.011 1114.65,373.067 1116.63,374.121 1118.62,375.2 1120.6,376.29 1122.58,377.391 1124.57,378.492 1126.55,379.608 1128.54,380.741 1130.52,381.87 1132.51,383.003 1134.49,384.13 1136.47,385.256 1138.46,386.364 1140.44,387.48 1142.43,388.604 1144.41,389.731 1146.39,390.873 1148.38,392.01 1150.36,393.147 1152.35,394.285 1154.33,395.422 1156.32,396.566 1158.3,397.707 1160.28,398.835 1162.27,399.96 1164.25,401.077 1166.24,402.2 1168.22,403.327 1170.21,404.451 1172.19,405.585 1174.17,406.717 1176.16,407.854 1178.14,409.006 1180.13,410.173 1182.11,411.34 1184.1,412.504 1186.08,413.665 1188.06,414.827 1190.05,416 1192.03,417.168 1194.02,418.329 1196,419.489 1197.99,420.649 1199.97,421.818 1201.95,422.977 1203.94,424.146 1205.92,425.314 1207.91,426.494 1209.89,427.688 1211.87,428.886 1213.86,430.082 1215.84,431.284 1217.83,432.489 1219.81,433.695 1221.8,434.892 1223.78,436.089 1225.76,437.295 1227.75,438.506 1229.73,439.71 1231.72,440.916 1233.7,442.131 1235.69,443.342 1237.67,444.547 1239.65,445.748 1241.64,446.95 1243.62,448.154 1245.61,449.358 1247.59,450.56 1249.58,451.764 1251.56,452.971 1253.54,454.175 1255.53,455.376 1257.51,456.571 1259.5,457.757 1261.48,458.948 1263.47,460.148 1265.45,461.346 1267.43,462.549 1269.42,463.754 1271.4,464.969 1273.39,466.188 1275.37,467.409 1277.36,468.64 1279.34,469.866 1281.32,471.089 1283.31,472.315 1285.29,473.541 1287.28,474.777 1289.26,476.001 1291.24,477.234 1293.23,478.479 1295.21,479.722 1297.2,480.976 1299.18,482.224 1301.17,483.477 1303.15,484.729 1305.13,485.991 1307.12,487.257 1309.1,488.516 1311.09,489.773 1313.07,491.023 1315.06,492.271 1317.04,493.528 1319.02,494.789 1321.01,496.061 1322.99,497.327 1324.98,498.607 1326.96,499.892 1328.95,501.197 1330.93,502.499 1332.91,503.804 1334.9,505.121 1336.88,506.423 1338.87,507.727 1340.85,509.028 1342.84,510.333 1344.82,511.634 1346.8,512.938 1348.79,514.253 1350.77,515.572 1352.76,516.896 1354.74,518.217 1356.72,519.529 1358.71,520.851 1360.69,522.171 1362.68,523.501 1364.66,524.823 1366.65,526.152 1368.63,527.473 1370.61,528.803 1372.6,530.127 1374.58,531.46 1376.57,532.793 1378.55,534.124 1380.54,535.441 1382.52,536.775 1384.5,538.093 1386.49,539.414 1388.47,540.739 1390.46,542.071 1392.44,543.399 1394.43,544.712 1396.41,546.044 1398.39,547.374 1400.38,548.715 1402.36,550.075 1404.35,551.439 1406.33,552.807 1408.32,554.174 1410.3,555.525 1412.28,556.882 1414.27,558.233 1416.25,559.596 1418.24,560.959 1420.22,562.316 1422.2,563.679 1424.19,565.041 1426.17,566.412 1428.16,567.767 1430.14,569.128 1432.13,570.494 1434.11,571.86 1436.09,573.238 1438.08,574.627 1440.06,576.035 1442.05,577.451 1444.03,578.867 1446.02,580.295 1448,581.72 1449.98,583.147 1451.97,584.577 1453.95,586.023 1455.94,587.461 1457.92,588.911 1459.91,590.366 1461.89,591.815 1463.87,593.27 1465.86,594.712 1467.84,596.146 1469.83,597.573 1471.81,598.997 1473.8,600.416 1475.78,601.834 1477.76,603.245 1479.75,604.663 1481.73,606.08 1483.72,607.498 1485.7,608.916 1487.68,610.334 1489.67,611.75 1491.65,613.166 1493.64,614.597 1495.62,616.022 1497.61,617.451 1499.59,618.89 1501.57,620.329 1503.56,621.772 1505.54,623.23 1507.53,624.686 1509.51,626.134 1511.5,627.59 1513.48,629.039 1515.46,630.5 1517.45,631.967 1519.43,633.435 1521.42,634.905 1523.4,636.357 1525.39,637.813 1527.37,639.276 1529.35,640.751 1531.34,642.228 1533.32,643.711 1535.31,645.195 1537.29,646.67 1539.28,648.149 1541.26,649.641 1543.24,651.151 1545.23,652.658 1547.21,654.156 1549.2,655.65 1551.18,657.158 1553.16,658.656 1555.15,660.15 1557.13,661.651 1559.12,663.16 1561.1,664.702 1563.09,666.23 1565.07,667.753 1567.05,669.281 1569.04,670.823 1571.02,672.389 1573.01,673.957 1574.99,675.52 1576.98,677.069 1578.96,678.612 1580.94,680.165 1582.93,681.703 1584.91,683.223 1586.9,684.748 1588.88,686.296 1590.87,687.85 1592.85,689.41 1594.83,690.957 1596.82,692.522 1598.8,694.111 1600.79,695.706 1602.77,697.303 1604.76,698.914 1606.74,700.52 1608.72,702.119 1610.71,703.729 1612.69,705.348 1614.68,706.956 1616.66,708.563 1618.65,710.151 1620.63,711.739 1622.61,713.323 1624.6,714.91 1626.58,716.494 1628.57,718.069 1630.55,719.686 1632.53,721.315 1634.52,722.936 1636.5,724.555 1638.49,726.178 1640.47,727.793 1642.46,729.408 1644.44,731.039 1646.42,732.667 1648.41,734.299 1650.39,735.913 1652.38,737.523 1654.36,739.15 1656.35,740.785 1658.33,742.415 1660.31,744.062 1662.3,745.7 1664.28,747.332 1666.27,748.97 1668.25,750.616 1670.24,752.272 1672.22,753.945 1674.2,755.615 1676.19,757.263 1678.17,758.902 1680.16,760.542 1682.14,762.181 1684.13,763.821 1686.11,765.456 1688.09,767.091 1690.08,768.721 1692.06,770.377 1694.05,772.021 1696.03,773.666 1698.01,775.306 1700,776.969 1701.98,778.644 1703.97,780.309 1705.95,781.983 1707.94,783.661 1709.92,785.349 1711.9,787.062 1713.89,788.761 1715.87,790.468 1717.86,792.175 1719.84,793.886 1721.83,795.596 1723.81,797.292 1725.79,798.99 1727.78,800.698 1729.76,802.387 1731.75,804.091 1733.73,805.799 1735.72,807.508 1737.7,809.238 1739.68,810.969 1741.67,812.681 1743.65,814.406 1745.64,816.118 1747.62,817.826 1749.61,819.508 1751.59,821.201 1753.57,822.907 1755.56,824.602 1757.54,826.292 1759.53,827.97 1761.51,829.659 1763.49,831.347 1765.48,833.041 1767.46,834.73 1769.45,836.406 1771.43,838.093 1773.42,839.793 1775.4,841.492 1777.38,843.199 1779.37,844.911 1781.35,846.609 1783.34,848.296 1785.32,849.98 1787.31,851.687 1789.29,853.424 1791.27,855.182 1793.26,856.974 1795.24,858.751 1797.23,860.543 1799.21,862.305 1801.2,864.093 1803.18,865.926 1805.16,867.771 1807.15,869.597 1809.13,871.405 1811.12,873.22 1813.1,875.017 1815.09,876.807 1817.07,878.588 1819.05,880.361 1821.04,882.142 1823.02,883.907 1825.01,885.667 1826.99,887.43 1828.97,889.244 1830.96,891.039 1832.94,892.837 1834.93,894.669 1836.91,896.533 1838.9,898.397 1840.88,900.244 1842.86,902.092 1844.85,903.967 1846.83,905.828 1848.82,907.675 1850.8,909.557 1852.79,911.442 1854.77,913.335 1856.75,915.241 1858.74,917.121 1860.72,918.989 1862.71,920.894 1864.69,922.781 1866.68,924.652 1868.66,926.508 1870.64,928.383 1872.63,930.241 1874.61,932.071 1876.6,933.919 1878.58,935.765 1880.57,937.595 1882.55,939.44 1884.53,941.266 1886.52,943.114 1888.5,944.992 1890.49,946.892 1892.47,948.806 1894.46,950.7 1896.44,952.58 1898.42,954.458 1900.41,956.34 1902.39,958.19 1904.38,960.075 1906.36,961.949 1908.34,963.827 1910.33,965.698 1912.31,967.572 1914.3,969.461 1916.28,971.333 1918.27,973.197 1920.25,975.066 1922.23,976.944 1924.22,978.789 1926.2,980.641 1928.19,982.49 1930.17,984.33 1932.16,986.18 1934.14,988.052 1936.12,989.94 1938.11,991.895 1940.09,993.825 1942.08,995.725 1944.06,997.637 1946.05,999.503 1948.03,1001.36 1950.01,1003.2 1952,1005.12 1953.98,1007.04 1955.97,1008.92 1957.95,1010.79 1959.94,1012.68 1961.92,1014.59 1963.9,1016.53 1965.89,1018.45 1967.87,1020.38 1969.86,1022.31 1971.84,1024.24 1973.82,1026.14 1975.81,1028.04 1977.79,1029.96 1979.78,1031.9 1981.76,1033.81 1983.75,1035.74 1985.73,1037.67 1987.71,1039.58 1989.7,1041.52 1991.68,1043.48 1993.67,1045.47 1995.65,1047.47 1997.64,1049.48 1999.62,1051.52 2001.6,1053.55 2003.59,1055.58 2005.57,1057.55 2007.56,1059.55 2009.54,1061.54 2011.53,1063.53 2013.51,1065.5 2015.49,1067.47 2017.48,1069.46 2019.46,1071.45 2021.45,1073.47 2023.43,1075.45 2025.42,1077.43 2027.4,1079.36 2029.38,1081.32 2031.37,1083.3 2033.35,1085.3 2035.34,1087.32 2037.32,1089.39 2039.3,1091.43 2041.29,1093.5 2043.27,1095.57 2045.26,1097.66 2047.24,1099.76 2049.23,1101.83 2051.21,1103.94 2053.19,1106.07 2055.18,1108.2 2057.16,1110.36 2059.15,1112.51 2061.13,1114.68 2063.12,1116.88 2065.1,1119.08 2067.08,1121.26 2069.07,1123.44 2071.05,1125.6 2073.04,1127.75 2075.02,1129.92 2077.01,1132.14 2078.99,1134.36 2080.97,1136.52 2082.96,1138.69 2084.94,1140.86 2086.93,1143.04 2088.91,1145.21 2090.9,1147.37 2092.88,1149.56 2094.86,1151.79 2096.85,1154.02 2098.83,1156.26 2100.82,1158.5 2102.8,1160.76 2104.78,1163.03 2106.77,1165.29 2108.75,1167.56 2110.74,1169.83 2112.72,1172.08 2114.71,1174.32 2116.69,1176.53 2118.67,1178.75 2120.66,1180.96 2122.64,1183.18 2124.63,1185.4 2126.61,1187.62 2128.6,1189.82 2130.58,1192.01 2132.56,1194.2 2134.55,1196.42 2136.53,1198.67 2138.52,1200.93 2140.5,1203.21 2142.49,1205.46 2144.47,1207.69 2146.45,1209.95 2148.44,1212.21 2150.42,1214.47 2152.41,1216.71 2154.39,1218.95 2156.38,1221.17 2158.36,1223.38 2160.34,1225.64 2162.33,1227.96 2164.31,1230.26 2166.3,1232.6 2168.28,1234.89 2170.26,1237.17 2172.25,1239.43 2174.23,1241.65 2176.22,1243.83 2178.2,1246.1 2180.19,1248.35 2182.17,1250.59 2184.15,1252.83 2186.14,1255.08 2188.12,1257.31 2190.11,1259.55 2192.09,1261.86 2194.08,1264.1 2196.06,1266.34 2198.04,1268.59 2200.03,1270.87 2202.01,1273.15 2204,1275.38 2205.98,1277.64 2207.97,1279.92 2209.95,1282.23 2211.93,1284.56 2213.92,1286.9 2215.9,1289.28 2217.89,1291.68 2219.87,1294.06 2221.86,1296.51 2223.84,1298.98 2225.82,1301.44 2227.81,1303.87 2229.79,1306.31 2231.78,1308.75 2233.76,1311.15 2235.75,1313.55 2237.73,1315.98 2239.71,1318.37 2241.7,1320.87 2243.68,1323.34 2245.67,1325.79 2247.65,1328.29 2249.63,1330.77 2251.62,1333.26 2253.6,1335.72 2255.59,1338.15 2257.57,1340.56 2259.56,1342.98 2261.54,1345.42 2263.52,1347.85 2265.51,1350.22 2267.49,1352.65 2269.48,1355.09 2271.46,1357.48 2273.45,1359.88 2275.43,1362.28 2277.41,1364.7 2279.4,1367.14 2281.38,1369.56 2283.37,1371.99 2285.35,1374.45 2287.34,1376.92 2289.32,1379.38 2291.3,1381.82 2293.29,1384.24 "/>
<path clip-path="url(#clip330)" d="M1864.89 248.629 L2282.72 248.629 L2282.72 93.1086 L1864.89 93.1086  Z" fill="#ffffff" fill-rule="evenodd" fill-opacity="1"/>
<polyline clip-path="url(#clip330)" style="stroke:#000000; stroke-linecap:round; stroke-linejoin:round; stroke-width:4; stroke-opacity:1; fill:none" points="1864.89,248.629 2282.72,248.629 2282.72,93.1086 1864.89,93.1086 1864.89,248.629 "/>
<polyline clip-path="url(#clip330)" style="stroke:#009af9; stroke-linecap:round; stroke-linejoin:round; stroke-width:4; stroke-opacity:1; fill:none" points="1888.24,144.949 2028.32,144.949 "/>
<path clip-path="url(#clip330)" d="M2056.34 145.724 L2056.34 158.386 L2063.84 158.386 Q2067.61 158.386 2069.42 156.835 Q2071.25 155.261 2071.25 152.043 Q2071.25 148.803 2069.42 147.275 Q2067.61 145.724 2063.84 145.724 L2056.34 145.724 M2056.34 131.511 L2056.34 141.928 L2063.26 141.928 Q2066.69 141.928 2068.35 140.655 Q2070.04 139.358 2070.04 136.719 Q2070.04 134.104 2068.35 132.807 Q2066.69 131.511 2063.26 131.511 L2056.34 131.511 M2051.66 127.669 L2063.61 127.669 Q2068.95 127.669 2071.85 129.891 Q2074.74 132.113 2074.74 136.21 Q2074.74 139.382 2073.26 141.257 Q2071.78 143.131 2068.91 143.594 Q2072.36 144.335 2074.25 146.696 Q2076.18 149.034 2076.18 152.553 Q2076.18 157.182 2073.03 159.705 Q2069.88 162.229 2064.07 162.229 L2051.66 162.229 L2051.66 127.669 Z" fill="#000000" fill-rule="nonzero" fill-opacity="1" /><path clip-path="url(#clip330)" d="M2088.86 145.724 L2088.86 158.386 L2096.36 158.386 Q2100.13 158.386 2101.94 156.835 Q2103.77 155.261 2103.77 152.043 Q2103.77 148.803 2101.94 147.275 Q2100.13 145.724 2096.36 145.724 L2088.86 145.724 M2088.86 131.511 L2088.86 141.928 L2095.78 141.928 Q2099.21 141.928 2100.87 140.655 Q2102.56 139.358 2102.56 136.719 Q2102.56 134.104 2100.87 132.807 Q2099.21 131.511 2095.78 131.511 L2088.86 131.511 M2084.19 127.669 L2096.13 127.669 Q2101.48 127.669 2104.37 129.891 Q2107.26 132.113 2107.26 136.21 Q2107.26 139.382 2105.78 141.257 Q2104.3 143.131 2101.43 143.594 Q2104.88 144.335 2106.78 146.696 Q2108.7 149.034 2108.7 152.553 Q2108.7 157.182 2105.55 159.705 Q2102.4 162.229 2096.59 162.229 L2084.19 162.229 L2084.19 127.669 Z" fill="#000000" fill-rule="nonzero" fill-opacity="1" /><path clip-path="url(#clip330)" d="M2124.16 162.229 L2110.97 127.669 L2115.85 127.669 L2126.8 156.766 L2137.77 127.669 L2142.63 127.669 L2129.46 162.229 L2124.16 162.229 Z" fill="#000000" fill-rule="nonzero" fill-opacity="1" /><path clip-path="url(#clip330)" d="M2147.68 127.669 L2152.36 127.669 L2152.36 162.229 L2147.68 162.229 L2147.68 127.669 Z" fill="#000000" fill-rule="nonzero" fill-opacity="1" /><path clip-path="url(#clip330)" d="M2202.61 130.331 L2202.61 135.261 Q2200.25 133.062 2197.56 131.974 Q2194.9 130.886 2191.89 130.886 Q2185.97 130.886 2182.82 134.52 Q2179.67 138.132 2179.67 144.983 Q2179.67 151.812 2182.82 155.446 Q2185.97 159.057 2191.89 159.057 Q2194.9 159.057 2197.56 157.969 Q2200.25 156.881 2202.61 154.682 L2202.61 159.567 Q2200.16 161.233 2197.4 162.067 Q2194.67 162.9 2191.62 162.9 Q2183.77 162.9 2179.25 158.108 Q2174.74 153.293 2174.74 144.983 Q2174.74 136.65 2179.25 131.858 Q2183.77 127.044 2191.62 127.044 Q2194.72 127.044 2197.45 127.877 Q2200.2 128.687 2202.61 130.331 Z" fill="#000000" fill-rule="nonzero" fill-opacity="1" /><path clip-path="url(#clip330)" d="M2209.83 127.669 L2229.69 127.669 L2229.69 131.604 L2214.51 131.604 L2214.51 141.789 L2228.21 141.789 L2228.21 145.724 L2214.51 145.724 L2214.51 162.229 L2209.83 162.229 L2209.83 127.669 Z" fill="#000000" fill-rule="nonzero" fill-opacity="1" /><path clip-path="url(#clip330)" d="M2237.1 127.669 L2258.95 127.669 L2258.95 131.604 L2241.78 131.604 L2241.78 141.835 L2258.24 141.835 L2258.24 145.77 L2241.78 145.77 L2241.78 158.293 L2259.37 158.293 L2259.37 162.229 L2237.1 162.229 L2237.1 127.669 Z" fill="#000000" fill-rule="nonzero" fill-opacity="1" /><polyline clip-path="url(#clip330)" style="stroke:#e26f46; stroke-linecap:round; stroke-linejoin:round; stroke-width:4; stroke-opacity:1; fill:none" points="1888.24,196.789 2028.32,196.789 "/>
<path clip-path="url(#clip330)" d="M2056.34 197.564 L2056.34 210.226 L2063.84 210.226 Q2067.61 210.226 2069.42 208.675 Q2071.25 207.101 2071.25 203.883 Q2071.25 200.643 2069.42 199.115 Q2067.61 197.564 2063.84 197.564 L2056.34 197.564 M2056.34 183.351 L2056.34 193.768 L2063.26 193.768 Q2066.69 193.768 2068.35 192.495 Q2070.04 191.198 2070.04 188.559 Q2070.04 185.944 2068.35 184.647 Q2066.69 183.351 2063.26 183.351 L2056.34 183.351 M2051.66 179.509 L2063.61 179.509 Q2068.95 179.509 2071.85 181.731 Q2074.74 183.953 2074.74 188.05 Q2074.74 191.222 2073.26 193.097 Q2071.78 194.971 2068.91 195.434 Q2072.36 196.175 2074.25 198.536 Q2076.18 200.874 2076.18 204.393 Q2076.18 209.022 2073.03 211.545 Q2069.88 214.069 2064.07 214.069 L2051.66 214.069 L2051.66 179.509 Z" fill="#000000" fill-rule="nonzero" fill-opacity="1" /><path clip-path="url(#clip330)" d="M2088.86 197.564 L2088.86 210.226 L2096.36 210.226 Q2100.13 210.226 2101.94 208.675 Q2103.77 207.101 2103.77 203.883 Q2103.77 200.643 2101.94 199.115 Q2100.13 197.564 2096.36 197.564 L2088.86 197.564 M2088.86 183.351 L2088.86 193.768 L2095.78 193.768 Q2099.21 193.768 2100.87 192.495 Q2102.56 191.198 2102.56 188.559 Q2102.56 185.944 2100.87 184.647 Q2099.21 183.351 2095.78 183.351 L2088.86 183.351 M2084.19 179.509 L2096.13 179.509 Q2101.48 179.509 2104.37 181.731 Q2107.26 183.953 2107.26 188.05 Q2107.26 191.222 2105.78 193.097 Q2104.3 194.971 2101.43 195.434 Q2104.88 196.175 2106.78 198.536 Q2108.7 200.874 2108.7 204.393 Q2108.7 209.022 2105.55 211.545 Q2102.4 214.069 2096.59 214.069 L2084.19 214.069 L2084.19 179.509 Z" fill="#000000" fill-rule="nonzero" fill-opacity="1" /><path clip-path="url(#clip330)" d="M2124.16 214.069 L2110.97 179.509 L2115.85 179.509 L2126.8 208.606 L2137.77 179.509 L2142.63 179.509 L2129.46 214.069 L2124.16 214.069 Z" fill="#000000" fill-rule="nonzero" fill-opacity="1" /><path clip-path="url(#clip330)" d="M2147.68 179.509 L2152.36 179.509 L2152.36 214.069 L2147.68 214.069 L2147.68 179.509 Z" fill="#000000" fill-rule="nonzero" fill-opacity="1" /><path clip-path="url(#clip330)" d="M2197.45 180.643 L2197.45 185.203 Q2194.79 183.93 2192.43 183.305 Q2190.06 182.68 2187.87 182.68 Q2184.05 182.68 2181.96 184.161 Q2179.9 185.643 2179.9 188.374 Q2179.9 190.666 2181.27 191.847 Q2182.66 193.004 2186.5 193.722 L2189.32 194.3 Q2194.55 195.296 2197.03 197.819 Q2199.53 200.319 2199.53 204.532 Q2199.53 209.555 2196.15 212.147 Q2192.8 214.74 2186.29 214.74 Q2183.84 214.74 2181.06 214.184 Q2178.31 213.629 2175.34 212.541 L2175.34 207.726 Q2178.19 209.323 2180.92 210.133 Q2183.65 210.944 2186.29 210.944 Q2190.3 210.944 2192.47 209.37 Q2194.65 207.796 2194.65 204.879 Q2194.65 202.333 2193.07 200.897 Q2191.52 199.462 2187.96 198.745 L2185.11 198.189 Q2179.88 197.147 2177.54 194.925 Q2175.2 192.703 2175.2 188.745 Q2175.2 184.161 2178.42 181.522 Q2181.66 178.884 2187.33 178.884 Q2189.76 178.884 2192.29 179.323 Q2194.81 179.763 2197.45 180.643 Z" fill="#000000" fill-rule="nonzero" fill-opacity="1" /><path clip-path="url(#clip330)" d="M2202.03 179.509 L2231.27 179.509 L2231.27 183.444 L2219 183.444 L2219 214.069 L2214.3 214.069 L2214.3 183.444 L2202.03 183.444 L2202.03 179.509 Z" fill="#000000" fill-rule="nonzero" fill-opacity="1" /><path clip-path="url(#clip330)" d="M2235.78 179.509 L2240.46 179.509 L2240.46 210.133 L2257.29 210.133 L2257.29 214.069 L2235.78 214.069 L2235.78 179.509 Z" fill="#000000" fill-rule="nonzero" fill-opacity="1" /></svg>
