<?xml version="1.0" encoding="utf-8"?>
<svg xmlns="http://www.w3.org/2000/svg" xmlns:xlink="http://www.w3.org/1999/xlink" width="600" height="400" viewBox="0 0 2400 1600">
<defs>
  <clipPath id="clip740">
    <rect x="0" y="0" width="2400" height="1600"/>
  </clipPath>
</defs>
<path clip-path="url(#clip740)" d="M0 1600 L2400 1600 L2400 0 L0 0  Z" fill="#ffffff" fill-rule="evenodd" fill-opacity="1"/>
<defs>
  <clipPath id="clip741">
    <rect x="332" y="47" width="2021" height="1377"/>
  </clipPath>
</defs>
<path clip-path="url(#clip740)" d="M332.62 1423.18 L2352.76 1423.18 L2352.76 47.2441 L332.62 47.2441  Z" fill="#ffffff" fill-rule="evenodd" fill-opacity="1"/>
<polyline clip-path="url(#clip741)" style="stroke:#000000; stroke-linecap:round; stroke-linejoin:round; stroke-width:2; stroke-opacity:0.1; fill:none" points="350.015,1423.18 350.015,47.2441 "/>
<polyline clip-path="url(#clip741)" style="stroke:#000000; stroke-linecap:round; stroke-linejoin:round; stroke-width:2; stroke-opacity:0.1; fill:none" points="689.227,1423.18 689.227,47.2441 "/>
<polyline clip-path="url(#clip741)" style="stroke:#000000; stroke-linecap:round; stroke-linejoin:round; stroke-width:2; stroke-opacity:0.1; fill:none" points="1028.44,1423.18 1028.44,47.2441 "/>
<polyline clip-path="url(#clip741)" style="stroke:#000000; stroke-linecap:round; stroke-linejoin:round; stroke-width:2; stroke-opacity:0.1; fill:none" points="1367.65,1423.18 1367.65,47.2441 "/>
<polyline clip-path="url(#clip741)" style="stroke:#000000; stroke-linecap:round; stroke-linejoin:round; stroke-width:2; stroke-opacity:0.1; fill:none" points="1706.86,1423.18 1706.86,47.2441 "/>
<polyline clip-path="url(#clip741)" style="stroke:#000000; stroke-linecap:round; stroke-linejoin:round; stroke-width:2; stroke-opacity:0.1; fill:none" points="2046.08,1423.18 2046.08,47.2441 "/>
<polyline clip-path="url(#clip741)" style="stroke:#000000; stroke-linecap:round; stroke-linejoin:round; stroke-width:2; stroke-opacity:0.1; fill:none" points="332.62,1300.15 2352.76,1300.15 "/>
<polyline clip-path="url(#clip741)" style="stroke:#000000; stroke-linecap:round; stroke-linejoin:round; stroke-width:2; stroke-opacity:0.1; fill:none" points="332.62,1045.87 2352.76,1045.87 "/>
<polyline clip-path="url(#clip741)" style="stroke:#000000; stroke-linecap:round; stroke-linejoin:round; stroke-width:2; stroke-opacity:0.1; fill:none" points="332.62,791.602 2352.76,791.602 "/>
<polyline clip-path="url(#clip741)" style="stroke:#000000; stroke-linecap:round; stroke-linejoin:round; stroke-width:2; stroke-opacity:0.1; fill:none" points="332.62,537.33 2352.76,537.33 "/>
<polyline clip-path="url(#clip741)" style="stroke:#000000; stroke-linecap:round; stroke-linejoin:round; stroke-width:2; stroke-opacity:0.1; fill:none" points="332.62,283.058 2352.76,283.058 "/>
<polyline clip-path="url(#clip740)" style="stroke:#000000; stroke-linecap:round; stroke-linejoin:round; stroke-width:4; stroke-opacity:1; fill:none" points="332.62,1423.18 2352.76,1423.18 "/>
<polyline clip-path="url(#clip740)" style="stroke:#000000; stroke-linecap:round; stroke-linejoin:round; stroke-width:4; stroke-opacity:1; fill:none" points="350.015,1423.18 350.015,1404.28 "/>
<polyline clip-path="url(#clip740)" style="stroke:#000000; stroke-linecap:round; stroke-linejoin:round; stroke-width:4; stroke-opacity:1; fill:none" points="689.227,1423.18 689.227,1404.28 "/>
<polyline clip-path="url(#clip740)" style="stroke:#000000; stroke-linecap:round; stroke-linejoin:round; stroke-width:4; stroke-opacity:1; fill:none" points="1028.44,1423.18 1028.44,1404.28 "/>
<polyline clip-path="url(#clip740)" style="stroke:#000000; stroke-linecap:round; stroke-linejoin:round; stroke-width:4; stroke-opacity:1; fill:none" points="1367.65,1423.18 1367.65,1404.28 "/>
<polyline clip-path="url(#clip740)" style="stroke:#000000; stroke-linecap:round; stroke-linejoin:round; stroke-width:4; stroke-opacity:1; fill:none" points="1706.86,1423.18 1706.86,1404.28 "/>
<polyline clip-path="url(#clip740)" style="stroke:#000000; stroke-linecap:round; stroke-linejoin:round; stroke-width:4; stroke-opacity:1; fill:none" points="2046.08,1423.18 2046.08,1404.28 "/>
<path clip-path="url(#clip740)" d="M350.015 1454.1 Q346.404 1454.1 344.575 1457.66 Q342.77 1461.2 342.77 1468.33 Q342.77 1475.44 344.575 1479.01 Q346.404 1482.55 350.015 1482.55 Q353.649 1482.55 355.455 1479.01 Q357.284 1475.44 357.284 1468.33 Q357.284 1461.2 355.455 1457.66 Q353.649 1454.1 350.015 1454.1 M350.015 1450.39 Q355.825 1450.39 358.881 1455 Q361.959 1459.58 361.959 1468.33 Q361.959 1477.06 358.881 1481.67 Q355.825 1486.25 350.015 1486.25 Q344.205 1486.25 341.126 1481.67 Q338.071 1477.06 338.071 1468.33 Q338.071 1459.58 341.126 1455 Q344.205 1450.39 350.015 1450.39 Z" fill="#000000" fill-rule="nonzero" fill-opacity="1" /><path clip-path="url(#clip740)" d="M679.505 1451.02 L697.862 1451.02 L697.862 1454.96 L683.788 1454.96 L683.788 1463.43 Q684.806 1463.08 685.825 1462.92 Q686.843 1462.73 687.862 1462.73 Q693.649 1462.73 697.028 1465.9 Q700.408 1469.08 700.408 1474.49 Q700.408 1480.07 696.936 1483.17 Q693.463 1486.25 687.144 1486.25 Q684.968 1486.25 682.7 1485.88 Q680.454 1485.51 678.047 1484.77 L678.047 1480.07 Q680.13 1481.2 682.352 1481.76 Q684.575 1482.32 687.051 1482.32 Q691.056 1482.32 693.394 1480.21 Q695.732 1478.1 695.732 1474.49 Q695.732 1470.88 693.394 1468.77 Q691.056 1466.67 687.051 1466.67 Q685.176 1466.67 683.301 1467.08 Q681.45 1467.5 679.505 1468.38 L679.505 1451.02 Z" fill="#000000" fill-rule="nonzero" fill-opacity="1" /><path clip-path="url(#clip740)" d="M1003.13 1481.64 L1010.77 1481.64 L1010.77 1455.28 L1002.46 1456.95 L1002.46 1452.69 L1010.72 1451.02 L1015.4 1451.02 L1015.4 1481.64 L1023.03 1481.64 L1023.03 1485.58 L1003.13 1485.58 L1003.13 1481.64 Z" fill="#000000" fill-rule="nonzero" fill-opacity="1" /><path clip-path="url(#clip740)" d="M1042.48 1454.1 Q1038.87 1454.1 1037.04 1457.66 Q1035.23 1461.2 1035.23 1468.33 Q1035.23 1475.44 1037.04 1479.01 Q1038.87 1482.55 1042.48 1482.55 Q1046.11 1482.55 1047.92 1479.01 Q1049.75 1475.44 1049.75 1468.33 Q1049.75 1461.2 1047.92 1457.66 Q1046.11 1454.1 1042.48 1454.1 M1042.48 1450.39 Q1048.29 1450.39 1051.34 1455 Q1054.42 1459.58 1054.42 1468.33 Q1054.42 1477.06 1051.34 1481.67 Q1048.29 1486.25 1042.48 1486.25 Q1036.67 1486.25 1033.59 1481.67 Q1030.53 1477.06 1030.53 1468.33 Q1030.53 1459.58 1033.59 1455 Q1036.67 1450.39 1042.48 1450.39 Z" fill="#000000" fill-rule="nonzero" fill-opacity="1" /><path clip-path="url(#clip740)" d="M1342.84 1481.64 L1350.48 1481.64 L1350.48 1455.28 L1342.17 1456.95 L1342.17 1452.69 L1350.43 1451.02 L1355.11 1451.02 L1355.11 1481.64 L1362.74 1481.64 L1362.74 1485.58 L1342.84 1485.58 L1342.84 1481.64 Z" fill="#000000" fill-rule="nonzero" fill-opacity="1" /><path clip-path="url(#clip740)" d="M1372.24 1451.02 L1390.59 1451.02 L1390.59 1454.96 L1376.52 1454.96 L1376.52 1463.43 Q1377.54 1463.08 1378.55 1462.92 Q1379.57 1462.73 1380.59 1462.73 Q1386.38 1462.73 1389.76 1465.9 Q1393.14 1469.08 1393.14 1474.49 Q1393.14 1480.07 1389.67 1483.17 Q1386.19 1486.25 1379.87 1486.25 Q1377.7 1486.25 1375.43 1485.88 Q1373.18 1485.51 1370.78 1484.77 L1370.78 1480.07 Q1372.86 1481.2 1375.08 1481.76 Q1377.3 1482.32 1379.78 1482.32 Q1383.79 1482.32 1386.12 1480.21 Q1388.46 1478.1 1388.46 1474.49 Q1388.46 1470.88 1386.12 1468.77 Q1383.79 1466.67 1379.78 1466.67 Q1377.91 1466.67 1376.03 1467.08 Q1374.18 1467.5 1372.24 1468.38 L1372.24 1451.02 Z" fill="#000000" fill-rule="nonzero" fill-opacity="1" /><path clip-path="url(#clip740)" d="M1685.64 1481.64 L1701.96 1481.64 L1701.96 1485.58 L1680.01 1485.58 L1680.01 1481.64 Q1682.67 1478.89 1687.26 1474.26 Q1691.86 1469.61 1693.05 1468.27 Q1695.29 1465.74 1696.17 1464.01 Q1697.07 1462.25 1697.07 1460.56 Q1697.07 1457.8 1695.13 1456.07 Q1693.21 1454.33 1690.11 1454.33 Q1687.91 1454.33 1685.45 1455.09 Q1683.02 1455.86 1680.24 1457.41 L1680.24 1452.69 Q1683.07 1451.55 1685.52 1450.97 Q1687.98 1450.39 1690.01 1450.39 Q1695.38 1450.39 1698.58 1453.08 Q1701.77 1455.77 1701.77 1460.26 Q1701.77 1462.39 1700.96 1464.31 Q1700.17 1466.2 1698.07 1468.8 Q1697.49 1469.47 1694.39 1472.69 Q1691.29 1475.88 1685.64 1481.64 Z" fill="#000000" fill-rule="nonzero" fill-opacity="1" /><path clip-path="url(#clip740)" d="M1721.77 1454.1 Q1718.16 1454.1 1716.33 1457.66 Q1714.53 1461.2 1714.53 1468.33 Q1714.53 1475.44 1716.33 1479.01 Q1718.16 1482.55 1721.77 1482.55 Q1725.41 1482.55 1727.21 1479.01 Q1729.04 1475.44 1729.04 1468.33 Q1729.04 1461.2 1727.21 1457.66 Q1725.41 1454.1 1721.77 1454.1 M1721.77 1450.39 Q1727.58 1450.39 1730.64 1455 Q1733.72 1459.58 1733.72 1468.33 Q1733.72 1477.06 1730.64 1481.67 Q1727.58 1486.25 1721.77 1486.25 Q1715.96 1486.25 1712.88 1481.67 Q1709.83 1477.06 1709.83 1468.33 Q1709.83 1459.58 1712.88 1455 Q1715.96 1450.39 1721.77 1450.39 Z" fill="#000000" fill-rule="nonzero" fill-opacity="1" /><path clip-path="url(#clip740)" d="M2025.35 1481.64 L2041.67 1481.64 L2041.67 1485.58 L2019.72 1485.58 L2019.72 1481.64 Q2022.38 1478.89 2026.97 1474.26 Q2031.57 1469.61 2032.76 1468.27 Q2035 1465.74 2035.88 1464.01 Q2036.78 1462.25 2036.78 1460.56 Q2036.78 1457.8 2034.84 1456.07 Q2032.92 1454.33 2029.82 1454.33 Q2027.62 1454.33 2025.16 1455.09 Q2022.73 1455.86 2019.95 1457.41 L2019.95 1452.69 Q2022.78 1451.55 2025.23 1450.97 Q2027.69 1450.39 2029.72 1450.39 Q2035.09 1450.39 2038.29 1453.08 Q2041.48 1455.77 2041.48 1460.26 Q2041.48 1462.39 2040.67 1464.31 Q2039.88 1466.2 2037.78 1468.8 Q2037.2 1469.47 2034.1 1472.69 Q2031 1475.88 2025.35 1481.64 Z" fill="#000000" fill-rule="nonzero" fill-opacity="1" /><path clip-path="url(#clip740)" d="M2051.53 1451.02 L2069.88 1451.02 L2069.88 1454.96 L2055.81 1454.96 L2055.81 1463.43 Q2056.83 1463.08 2057.85 1462.92 Q2058.87 1462.73 2059.88 1462.73 Q2065.67 1462.73 2069.05 1465.9 Q2072.43 1469.08 2072.43 1474.49 Q2072.43 1480.07 2068.96 1483.17 Q2065.49 1486.25 2059.17 1486.25 Q2056.99 1486.25 2054.72 1485.88 Q2052.48 1485.51 2050.07 1484.77 L2050.07 1480.07 Q2052.15 1481.2 2054.38 1481.76 Q2056.6 1482.32 2059.07 1482.32 Q2063.08 1482.32 2065.42 1480.21 Q2067.75 1478.1 2067.75 1474.49 Q2067.75 1470.88 2065.42 1468.77 Q2063.08 1466.67 2059.07 1466.67 Q2057.2 1466.67 2055.32 1467.08 Q2053.47 1467.5 2051.53 1468.38 L2051.53 1451.02 Z" fill="#000000" fill-rule="nonzero" fill-opacity="1" /><path clip-path="url(#clip740)" d="M1013.77 1520.52 L1020.27 1520.52 L1030.26 1560.69 L1040.22 1520.52 L1047.45 1520.52 L1057.44 1560.69 L1067.4 1520.52 L1073.93 1520.52 L1061.99 1568.04 L1053.91 1568.04 L1043.88 1526.79 L1033.76 1568.04 L1025.68 1568.04 L1013.77 1520.52 Z" fill="#000000" fill-rule="nonzero" fill-opacity="1" /><path clip-path="url(#clip740)" d="M1094.23 1550.12 Q1087.14 1550.12 1084.4 1551.75 Q1081.66 1553.37 1081.66 1557.29 Q1081.66 1560.4 1083.7 1562.25 Q1085.77 1564.07 1089.3 1564.07 Q1094.17 1564.07 1097.1 1560.63 Q1100.06 1557.16 1100.06 1551.43 L1100.06 1550.12 L1094.23 1550.12 M1105.92 1547.71 L1105.92 1568.04 L1100.06 1568.04 L1100.06 1562.63 Q1098.05 1565.88 1095.06 1567.44 Q1092.07 1568.97 1087.74 1568.97 Q1082.27 1568.97 1079.02 1565.91 Q1075.81 1562.82 1075.81 1557.67 Q1075.81 1551.65 1079.82 1548.6 Q1083.86 1545.54 1091.85 1545.54 L1100.06 1545.54 L1100.06 1544.97 Q1100.06 1540.93 1097.39 1538.73 Q1094.74 1536.5 1089.94 1536.5 Q1086.88 1536.5 1083.99 1537.23 Q1081.09 1537.97 1078.42 1539.43 L1078.42 1534.02 Q1081.63 1532.78 1084.65 1532.17 Q1087.68 1531.54 1090.54 1531.54 Q1098.28 1531.54 1102.1 1535.55 Q1105.92 1539.56 1105.92 1547.71 Z" fill="#000000" fill-rule="nonzero" fill-opacity="1" /><path clip-path="url(#clip740)" d="M1117.98 1518.52 L1123.84 1518.52 L1123.84 1568.04 L1117.98 1568.04 L1117.98 1518.52 Z" fill="#000000" fill-rule="nonzero" fill-opacity="1" /><path clip-path="url(#clip740)" d="M1136.09 1518.52 L1141.95 1518.52 L1141.95 1568.04 L1136.09 1568.04 L1136.09 1518.52 Z" fill="#000000" fill-rule="nonzero" fill-opacity="1" /><path clip-path="url(#clip740)" d="M1179.85 1533.76 L1179.85 1539.24 Q1177.37 1537.87 1174.86 1537.2 Q1172.37 1536.5 1169.83 1536.5 Q1164.13 1536.5 1160.98 1540.13 Q1157.83 1543.73 1157.83 1550.25 Q1157.83 1556.78 1160.98 1560.4 Q1164.13 1564 1169.83 1564 Q1172.37 1564 1174.86 1563.33 Q1177.37 1562.63 1179.85 1561.26 L1179.85 1566.68 Q1177.4 1567.82 1174.76 1568.39 Q1172.15 1568.97 1169.19 1568.97 Q1161.14 1568.97 1156.4 1563.91 Q1151.65 1558.85 1151.65 1550.25 Q1151.65 1541.53 1156.43 1536.53 Q1161.23 1531.54 1169.57 1531.54 Q1172.28 1531.54 1174.86 1532.11 Q1177.43 1532.65 1179.85 1533.76 Z" fill="#000000" fill-rule="nonzero" fill-opacity="1" /><path clip-path="url(#clip740)" d="M1190.04 1518.52 L1195.89 1518.52 L1195.89 1568.04 L1190.04 1568.04 L1190.04 1518.52 Z" fill="#000000" fill-rule="nonzero" fill-opacity="1" /><path clip-path="url(#clip740)" d="M1221.96 1536.5 Q1217.25 1536.5 1214.51 1540.19 Q1211.78 1543.85 1211.78 1550.25 Q1211.78 1556.65 1214.48 1560.34 Q1217.22 1564 1221.96 1564 Q1226.64 1564 1229.38 1560.31 Q1232.12 1556.62 1232.12 1550.25 Q1232.12 1543.92 1229.38 1540.23 Q1226.64 1536.5 1221.96 1536.5 M1221.96 1531.54 Q1229.6 1531.54 1233.96 1536.5 Q1238.32 1541.47 1238.32 1550.25 Q1238.32 1559 1233.96 1564 Q1229.6 1568.97 1221.96 1568.97 Q1214.29 1568.97 1209.93 1564 Q1205.6 1559 1205.6 1550.25 Q1205.6 1541.47 1209.93 1536.5 Q1214.29 1531.54 1221.96 1531.54 Z" fill="#000000" fill-rule="nonzero" fill-opacity="1" /><path clip-path="url(#clip740)" d="M1273.68 1533.76 L1273.68 1539.24 Q1271.2 1537.87 1268.69 1537.2 Q1266.2 1536.5 1263.66 1536.5 Q1257.96 1536.5 1254.81 1540.13 Q1251.66 1543.73 1251.66 1550.25 Q1251.66 1556.78 1254.81 1560.4 Q1257.96 1564 1263.66 1564 Q1266.2 1564 1268.69 1563.33 Q1271.2 1562.63 1273.68 1561.26 L1273.68 1566.68 Q1271.23 1567.82 1268.59 1568.39 Q1265.98 1568.97 1263.02 1568.97 Q1254.97 1568.97 1250.23 1563.91 Q1245.48 1558.85 1245.48 1550.25 Q1245.48 1541.53 1250.26 1536.53 Q1255.06 1531.54 1263.4 1531.54 Q1266.11 1531.54 1268.69 1532.11 Q1271.26 1532.65 1273.68 1533.76 Z" fill="#000000" fill-rule="nonzero" fill-opacity="1" /><path clip-path="url(#clip740)" d="M1283.65 1518.52 L1289.53 1518.52 L1289.53 1547.77 L1307.01 1532.4 L1314.49 1532.4 L1295.58 1549.07 L1315.28 1568.04 L1307.64 1568.04 L1289.53 1550.63 L1289.53 1568.04 L1283.65 1568.04 L1283.65 1518.52 Z" fill="#000000" fill-rule="nonzero" fill-opacity="1" /><path clip-path="url(#clip740)" d="M1336 1520.52 L1376.2 1520.52 L1376.2 1525.93 L1359.33 1525.93 L1359.33 1568.04 L1352.87 1568.04 L1352.87 1525.93 L1336 1525.93 L1336 1520.52 Z" fill="#000000" fill-rule="nonzero" fill-opacity="1" /><path clip-path="url(#clip740)" d="M1380.15 1532.4 L1386.01 1532.4 L1386.01 1568.04 L1380.15 1568.04 L1380.15 1532.4 M1380.15 1518.52 L1386.01 1518.52 L1386.01 1525.93 L1380.15 1525.93 L1380.15 1518.52 Z" fill="#000000" fill-rule="nonzero" fill-opacity="1" /><path clip-path="url(#clip740)" d="M1426.02 1539.24 Q1428.21 1535.29 1431.27 1533.41 Q1434.32 1531.54 1438.46 1531.54 Q1444.03 1531.54 1447.05 1535.45 Q1450.08 1539.33 1450.08 1546.53 L1450.08 1568.04 L1444.19 1568.04 L1444.19 1546.72 Q1444.19 1541.59 1442.38 1539.11 Q1440.56 1536.63 1436.84 1536.63 Q1432.29 1536.63 1429.64 1539.65 Q1427 1542.68 1427 1547.9 L1427 1568.04 L1421.11 1568.04 L1421.11 1546.72 Q1421.11 1541.56 1419.3 1539.11 Q1417.49 1536.63 1413.7 1536.63 Q1409.21 1536.63 1406.57 1539.68 Q1403.93 1542.71 1403.93 1547.9 L1403.93 1568.04 L1398.04 1568.04 L1398.04 1532.4 L1403.93 1532.4 L1403.93 1537.93 Q1405.93 1534.66 1408.73 1533.1 Q1411.53 1531.54 1415.38 1531.54 Q1419.27 1531.54 1421.97 1533.51 Q1424.71 1535.48 1426.02 1539.24 Z" fill="#000000" fill-rule="nonzero" fill-opacity="1" /><path clip-path="url(#clip740)" d="M1492.25 1548.76 L1492.25 1551.62 L1465.32 1551.62 Q1465.71 1557.67 1468.95 1560.85 Q1472.23 1564 1478.05 1564 Q1481.43 1564 1484.58 1563.17 Q1487.76 1562.35 1490.88 1560.69 L1490.88 1566.23 Q1487.73 1567.57 1484.42 1568.27 Q1481.11 1568.97 1477.7 1568.97 Q1469.17 1568.97 1464.18 1564 Q1459.21 1559.04 1459.21 1550.57 Q1459.21 1541.82 1463.92 1536.69 Q1468.67 1531.54 1476.69 1531.54 Q1483.88 1531.54 1488.05 1536.18 Q1492.25 1540.8 1492.25 1548.76 M1486.39 1547.04 Q1486.33 1542.23 1483.69 1539.37 Q1481.08 1536.5 1476.75 1536.5 Q1471.85 1536.5 1468.89 1539.27 Q1465.96 1542.04 1465.51 1547.07 L1486.39 1547.04 Z" fill="#000000" fill-rule="nonzero" fill-opacity="1" /><path clip-path="url(#clip740)" d="M1536.65 1518.58 Q1532.39 1525.9 1530.32 1533.06 Q1528.25 1540.23 1528.25 1547.58 Q1528.25 1554.93 1530.32 1562.16 Q1532.42 1569.35 1536.65 1576.64 L1531.56 1576.64 Q1526.78 1569.16 1524.4 1561.93 Q1522.04 1554.71 1522.04 1547.58 Q1522.04 1540.48 1524.4 1533.29 Q1526.75 1526.09 1531.56 1518.58 L1536.65 1518.58 Z" fill="#000000" fill-rule="nonzero" fill-opacity="1" /><path clip-path="url(#clip740)" d="M1570.74 1533.45 L1570.74 1538.98 Q1568.26 1537.71 1565.58 1537.07 Q1562.91 1536.44 1560.05 1536.44 Q1555.68 1536.44 1553.49 1537.77 Q1551.32 1539.11 1551.32 1541.79 Q1551.32 1543.82 1552.88 1545 Q1554.44 1546.15 1559.15 1547.2 L1561.16 1547.64 Q1567.4 1548.98 1570.01 1551.43 Q1572.65 1553.85 1572.65 1558.21 Q1572.65 1563.17 1568.7 1566.07 Q1564.79 1568.97 1557.91 1568.97 Q1555.05 1568.97 1551.93 1568.39 Q1548.84 1567.85 1545.4 1566.74 L1545.4 1560.69 Q1548.65 1562.38 1551.8 1563.24 Q1554.95 1564.07 1558.04 1564.07 Q1562.18 1564.07 1564.41 1562.66 Q1566.63 1561.23 1566.63 1558.65 Q1566.63 1556.27 1565.01 1554.99 Q1563.42 1553.72 1557.98 1552.54 L1555.94 1552.07 Q1550.5 1550.92 1548.08 1548.56 Q1545.66 1546.18 1545.66 1542.04 Q1545.66 1537.01 1549.22 1534.27 Q1552.79 1531.54 1559.34 1531.54 Q1562.59 1531.54 1565.46 1532.01 Q1568.32 1532.49 1570.74 1533.45 Z" fill="#000000" fill-rule="nonzero" fill-opacity="1" /><path clip-path="url(#clip740)" d="M1612.47 1548.76 L1612.47 1551.62 L1585.54 1551.62 Q1585.92 1557.67 1589.17 1560.85 Q1592.45 1564 1598.27 1564 Q1601.65 1564 1604.8 1563.17 Q1607.98 1562.35 1611.1 1560.69 L1611.1 1566.23 Q1607.95 1567.57 1604.64 1568.27 Q1601.33 1568.97 1597.92 1568.97 Q1589.39 1568.97 1584.39 1564 Q1579.43 1559.04 1579.43 1550.57 Q1579.43 1541.82 1584.14 1536.69 Q1588.88 1531.54 1596.9 1531.54 Q1604.1 1531.54 1608.27 1536.18 Q1612.47 1540.8 1612.47 1548.76 M1606.61 1547.04 Q1606.55 1542.23 1603.9 1539.37 Q1601.29 1536.5 1596.97 1536.5 Q1592.06 1536.5 1589.1 1539.27 Q1586.18 1542.04 1585.73 1547.07 L1606.61 1547.04 Z" fill="#000000" fill-rule="nonzero" fill-opacity="1" /><path clip-path="url(#clip740)" d="M1647.73 1533.76 L1647.73 1539.24 Q1645.25 1537.87 1642.74 1537.2 Q1640.25 1536.5 1637.71 1536.5 Q1632.01 1536.5 1628.86 1540.13 Q1625.71 1543.73 1625.71 1550.25 Q1625.71 1556.78 1628.86 1560.4 Q1632.01 1564 1637.71 1564 Q1640.25 1564 1642.74 1563.33 Q1645.25 1562.63 1647.73 1561.26 L1647.73 1566.68 Q1645.28 1567.82 1642.64 1568.39 Q1640.03 1568.97 1637.07 1568.97 Q1629.02 1568.97 1624.28 1563.91 Q1619.53 1558.85 1619.53 1550.25 Q1619.53 1541.53 1624.31 1536.53 Q1629.11 1531.54 1637.45 1531.54 Q1640.16 1531.54 1642.74 1532.11 Q1645.31 1532.65 1647.73 1533.76 Z" fill="#000000" fill-rule="nonzero" fill-opacity="1" /><path clip-path="url(#clip740)" d="M1656.99 1518.58 L1662.09 1518.58 Q1666.86 1526.09 1669.22 1533.29 Q1671.6 1540.48 1671.6 1547.58 Q1671.6 1554.71 1669.22 1561.93 Q1666.86 1569.16 1662.09 1576.64 L1656.99 1576.64 Q1661.23 1569.35 1663.3 1562.16 Q1665.4 1554.93 1665.4 1547.58 Q1665.4 1540.23 1663.3 1533.06 Q1661.23 1525.9 1656.99 1518.58 Z" fill="#000000" fill-rule="nonzero" fill-opacity="1" /><polyline clip-path="url(#clip740)" style="stroke:#000000; stroke-linecap:round; stroke-linejoin:round; stroke-width:4; stroke-opacity:1; fill:none" points="332.62,1423.18 332.62,47.2441 "/>
<polyline clip-path="url(#clip740)" style="stroke:#000000; stroke-linecap:round; stroke-linejoin:round; stroke-width:4; stroke-opacity:1; fill:none" points="332.62,1300.15 351.518,1300.15 "/>
<polyline clip-path="url(#clip740)" style="stroke:#000000; stroke-linecap:round; stroke-linejoin:round; stroke-width:4; stroke-opacity:1; fill:none" points="332.62,1045.87 351.518,1045.87 "/>
<polyline clip-path="url(#clip740)" style="stroke:#000000; stroke-linecap:round; stroke-linejoin:round; stroke-width:4; stroke-opacity:1; fill:none" points="332.62,791.602 351.518,791.602 "/>
<polyline clip-path="url(#clip740)" style="stroke:#000000; stroke-linecap:round; stroke-linejoin:round; stroke-width:4; stroke-opacity:1; fill:none" points="332.62,537.33 351.518,537.33 "/>
<polyline clip-path="url(#clip740)" style="stroke:#000000; stroke-linecap:round; stroke-linejoin:round; stroke-width:4; stroke-opacity:1; fill:none" points="332.62,283.058 351.518,283.058 "/>
<path clip-path="url(#clip740)" d="M114.26 1300.6 L143.936 1300.6 L143.936 1304.53 L114.26 1304.53 L114.26 1300.6 Z" fill="#000000" fill-rule="nonzero" fill-opacity="1" /><path clip-path="url(#clip740)" d="M154.839 1313.49 L162.477 1313.49 L162.477 1287.12 L154.167 1288.79 L154.167 1284.53 L162.431 1282.87 L167.107 1282.87 L167.107 1313.49 L174.746 1313.49 L174.746 1317.43 L154.839 1317.43 L154.839 1313.49 Z" fill="#000000" fill-rule="nonzero" fill-opacity="1" /><path clip-path="url(#clip740)" d="M183.01 1282.87 L205.232 1282.87 L205.232 1284.86 L192.686 1317.43 L187.801 1317.43 L199.607 1286.8 L183.01 1286.8 L183.01 1282.87 Z" fill="#000000" fill-rule="nonzero" fill-opacity="1" /><path clip-path="url(#clip740)" d="M214.399 1282.87 L232.755 1282.87 L232.755 1286.8 L218.681 1286.8 L218.681 1295.27 Q219.699 1294.93 220.718 1294.76 Q221.736 1294.58 222.755 1294.58 Q228.542 1294.58 231.922 1297.75 Q235.301 1300.92 235.301 1306.34 Q235.301 1311.92 231.829 1315.02 Q228.357 1318.1 222.037 1318.1 Q219.861 1318.1 217.593 1317.73 Q215.348 1317.36 212.94 1316.62 L212.94 1311.92 Q215.024 1313.05 217.246 1313.61 Q219.468 1314.16 221.945 1314.16 Q225.949 1314.16 228.287 1312.05 Q230.625 1309.95 230.625 1306.34 Q230.625 1302.73 228.287 1300.62 Q225.949 1298.51 221.945 1298.51 Q220.07 1298.51 218.195 1298.93 Q216.343 1299.35 214.399 1300.23 L214.399 1282.87 Z" fill="#000000" fill-rule="nonzero" fill-opacity="1" /><path clip-path="url(#clip740)" d="M254.514 1285.94 Q250.903 1285.94 249.074 1289.51 Q247.269 1293.05 247.269 1300.18 Q247.269 1307.29 249.074 1310.85 Q250.903 1314.39 254.514 1314.39 Q258.148 1314.39 259.954 1310.85 Q261.783 1307.29 261.783 1300.18 Q261.783 1293.05 259.954 1289.51 Q258.148 1285.94 254.514 1285.94 M254.514 1282.24 Q260.324 1282.24 263.38 1286.85 Q266.458 1291.43 266.458 1300.18 Q266.458 1308.91 263.38 1313.51 Q260.324 1318.1 254.514 1318.1 Q248.704 1318.1 245.625 1313.51 Q242.57 1308.91 242.57 1300.18 Q242.57 1291.43 245.625 1286.85 Q248.704 1282.24 254.514 1282.24 Z" fill="#000000" fill-rule="nonzero" fill-opacity="1" /><path clip-path="url(#clip740)" d="M284.676 1285.94 Q281.065 1285.94 279.236 1289.51 Q277.431 1293.05 277.431 1300.18 Q277.431 1307.29 279.236 1310.85 Q281.065 1314.39 284.676 1314.39 Q288.31 1314.39 290.116 1310.85 Q291.944 1307.29 291.944 1300.18 Q291.944 1293.05 290.116 1289.51 Q288.31 1285.94 284.676 1285.94 M284.676 1282.24 Q290.486 1282.24 293.542 1286.85 Q296.62 1291.43 296.62 1300.18 Q296.62 1308.91 293.542 1313.51 Q290.486 1318.1 284.676 1318.1 Q278.866 1318.1 275.787 1313.51 Q272.732 1308.91 272.732 1300.18 Q272.732 1291.43 275.787 1286.85 Q278.866 1282.24 284.676 1282.24 Z" fill="#000000" fill-rule="nonzero" fill-opacity="1" /><path clip-path="url(#clip740)" d="M114.26 1046.32 L143.936 1046.32 L143.936 1050.26 L114.26 1050.26 L114.26 1046.32 Z" fill="#000000" fill-rule="nonzero" fill-opacity="1" /><path clip-path="url(#clip740)" d="M154.839 1059.22 L162.477 1059.22 L162.477 1032.85 L154.167 1034.52 L154.167 1030.26 L162.431 1028.59 L167.107 1028.59 L167.107 1059.22 L174.746 1059.22 L174.746 1063.15 L154.839 1063.15 L154.839 1059.22 Z" fill="#000000" fill-rule="nonzero" fill-opacity="1" /><path clip-path="url(#clip740)" d="M184.237 1028.59 L202.593 1028.59 L202.593 1032.53 L188.519 1032.53 L188.519 1041 Q189.538 1040.65 190.556 1040.49 Q191.575 1040.31 192.593 1040.31 Q198.38 1040.31 201.76 1043.48 Q205.139 1046.65 205.139 1052.07 Q205.139 1057.64 201.667 1060.75 Q198.195 1063.82 191.875 1063.82 Q189.7 1063.82 187.431 1063.45 Q185.186 1063.08 182.778 1062.34 L182.778 1057.64 Q184.862 1058.78 187.084 1059.33 Q189.306 1059.89 191.783 1059.89 Q195.787 1059.89 198.125 1057.78 Q200.463 1055.68 200.463 1052.07 Q200.463 1048.45 198.125 1046.35 Q195.787 1044.24 191.783 1044.24 Q189.908 1044.24 188.033 1044.66 Q186.181 1045.08 184.237 1045.95 L184.237 1028.59 Z" fill="#000000" fill-rule="nonzero" fill-opacity="1" /><path clip-path="url(#clip740)" d="M224.352 1031.67 Q220.741 1031.67 218.912 1035.24 Q217.107 1038.78 217.107 1045.91 Q217.107 1053.01 218.912 1056.58 Q220.741 1060.12 224.352 1060.12 Q227.986 1060.12 229.792 1056.58 Q231.621 1053.01 231.621 1045.91 Q231.621 1038.78 229.792 1035.24 Q227.986 1031.67 224.352 1031.67 M224.352 1027.97 Q230.162 1027.97 233.218 1032.58 Q236.297 1037.16 236.297 1045.91 Q236.297 1054.64 233.218 1059.24 Q230.162 1063.82 224.352 1063.82 Q218.542 1063.82 215.463 1059.24 Q212.408 1054.64 212.408 1045.91 Q212.408 1037.16 215.463 1032.58 Q218.542 1027.97 224.352 1027.97 Z" fill="#000000" fill-rule="nonzero" fill-opacity="1" /><path clip-path="url(#clip740)" d="M254.514 1031.67 Q250.903 1031.67 249.074 1035.24 Q247.269 1038.78 247.269 1045.91 Q247.269 1053.01 249.074 1056.58 Q250.903 1060.12 254.514 1060.12 Q258.148 1060.12 259.954 1056.58 Q261.783 1053.01 261.783 1045.91 Q261.783 1038.78 259.954 1035.24 Q258.148 1031.67 254.514 1031.67 M254.514 1027.97 Q260.324 1027.97 263.38 1032.58 Q266.458 1037.16 266.458 1045.91 Q266.458 1054.64 263.38 1059.24 Q260.324 1063.82 254.514 1063.82 Q248.704 1063.82 245.625 1059.24 Q242.57 1054.64 242.57 1045.91 Q242.57 1037.16 245.625 1032.58 Q248.704 1027.97 254.514 1027.97 Z" fill="#000000" fill-rule="nonzero" fill-opacity="1" /><path clip-path="url(#clip740)" d="M284.676 1031.67 Q281.065 1031.67 279.236 1035.24 Q277.431 1038.78 277.431 1045.91 Q277.431 1053.01 279.236 1056.58 Q281.065 1060.12 284.676 1060.12 Q288.31 1060.12 290.116 1056.58 Q291.944 1053.01 291.944 1045.91 Q291.944 1038.78 290.116 1035.24 Q288.31 1031.67 284.676 1031.67 M284.676 1027.97 Q290.486 1027.97 293.542 1032.58 Q296.62 1037.16 296.62 1045.91 Q296.62 1054.64 293.542 1059.24 Q290.486 1063.82 284.676 1063.82 Q278.866 1063.82 275.787 1059.24 Q272.732 1054.64 272.732 1045.91 Q272.732 1037.16 275.787 1032.58 Q278.866 1027.97 284.676 1027.97 Z" fill="#000000" fill-rule="nonzero" fill-opacity="1" /><path clip-path="url(#clip740)" d="M114.26 792.053 L143.936 792.053 L143.936 795.988 L114.26 795.988 L114.26 792.053 Z" fill="#000000" fill-rule="nonzero" fill-opacity="1" /><path clip-path="url(#clip740)" d="M154.839 804.947 L162.477 804.947 L162.477 778.581 L154.167 780.248 L154.167 775.989 L162.431 774.322 L167.107 774.322 L167.107 804.947 L174.746 804.947 L174.746 808.882 L154.839 808.882 L154.839 804.947 Z" fill="#000000" fill-rule="nonzero" fill-opacity="1" /><path clip-path="url(#clip740)" d="M188.218 804.947 L204.537 804.947 L204.537 808.882 L182.593 808.882 L182.593 804.947 Q185.255 802.192 189.838 797.563 Q194.445 792.91 195.625 791.567 Q197.871 789.044 198.75 787.308 Q199.653 785.549 199.653 783.859 Q199.653 781.104 197.709 779.368 Q195.787 777.632 192.686 777.632 Q190.487 777.632 188.033 778.396 Q185.602 779.16 182.825 780.711 L182.825 775.989 Q185.649 774.854 188.102 774.276 Q190.556 773.697 192.593 773.697 Q197.963 773.697 201.158 776.382 Q204.352 779.067 204.352 783.558 Q204.352 785.688 203.542 787.609 Q202.755 789.507 200.649 792.1 Q200.07 792.771 196.968 795.988 Q193.866 799.183 188.218 804.947 Z" fill="#000000" fill-rule="nonzero" fill-opacity="1" /><path clip-path="url(#clip740)" d="M214.399 774.322 L232.755 774.322 L232.755 778.257 L218.681 778.257 L218.681 786.729 Q219.699 786.382 220.718 786.22 Q221.736 786.035 222.755 786.035 Q228.542 786.035 231.922 789.206 Q235.301 792.377 235.301 797.794 Q235.301 803.373 231.829 806.475 Q228.357 809.553 222.037 809.553 Q219.861 809.553 217.593 809.183 Q215.348 808.812 212.94 808.072 L212.94 803.373 Q215.024 804.507 217.246 805.062 Q219.468 805.618 221.945 805.618 Q225.949 805.618 228.287 803.512 Q230.625 801.405 230.625 797.794 Q230.625 794.183 228.287 792.076 Q225.949 789.97 221.945 789.97 Q220.07 789.97 218.195 790.387 Q216.343 790.803 214.399 791.683 L214.399 774.322 Z" fill="#000000" fill-rule="nonzero" fill-opacity="1" /><path clip-path="url(#clip740)" d="M254.514 777.401 Q250.903 777.401 249.074 780.965 Q247.269 784.507 247.269 791.637 Q247.269 798.743 249.074 802.308 Q250.903 805.85 254.514 805.85 Q258.148 805.85 259.954 802.308 Q261.783 798.743 261.783 791.637 Q261.783 784.507 259.954 780.965 Q258.148 777.401 254.514 777.401 M254.514 773.697 Q260.324 773.697 263.38 778.303 Q266.458 782.887 266.458 791.637 Q266.458 800.363 263.38 804.97 Q260.324 809.553 254.514 809.553 Q248.704 809.553 245.625 804.97 Q242.57 800.363 242.57 791.637 Q242.57 782.887 245.625 778.303 Q248.704 773.697 254.514 773.697 Z" fill="#000000" fill-rule="nonzero" fill-opacity="1" /><path clip-path="url(#clip740)" d="M284.676 777.401 Q281.065 777.401 279.236 780.965 Q277.431 784.507 277.431 791.637 Q277.431 798.743 279.236 802.308 Q281.065 805.85 284.676 805.85 Q288.31 805.85 290.116 802.308 Q291.944 798.743 291.944 791.637 Q291.944 784.507 290.116 780.965 Q288.31 777.401 284.676 777.401 M284.676 773.697 Q290.486 773.697 293.542 778.303 Q296.62 782.887 296.62 791.637 Q296.62 800.363 293.542 804.97 Q290.486 809.553 284.676 809.553 Q278.866 809.553 275.787 804.97 Q272.732 800.363 272.732 791.637 Q272.732 782.887 275.787 778.303 Q278.866 773.697 284.676 773.697 Z" fill="#000000" fill-rule="nonzero" fill-opacity="1" /><path clip-path="url(#clip740)" d="M114.26 537.782 L143.936 537.782 L143.936 541.717 L114.26 541.717 L114.26 537.782 Z" fill="#000000" fill-rule="nonzero" fill-opacity="1" /><path clip-path="url(#clip740)" d="M154.839 550.675 L162.477 550.675 L162.477 524.309 L154.167 525.976 L154.167 521.717 L162.431 520.05 L167.107 520.05 L167.107 550.675 L174.746 550.675 L174.746 554.61 L154.839 554.61 L154.839 550.675 Z" fill="#000000" fill-rule="nonzero" fill-opacity="1" /><path clip-path="url(#clip740)" d="M194.19 523.129 Q190.579 523.129 188.75 526.694 Q186.945 530.235 186.945 537.365 Q186.945 544.471 188.75 548.036 Q190.579 551.578 194.19 551.578 Q197.825 551.578 199.63 548.036 Q201.459 544.471 201.459 537.365 Q201.459 530.235 199.63 526.694 Q197.825 523.129 194.19 523.129 M194.19 519.425 Q200 519.425 203.056 524.032 Q206.135 528.615 206.135 537.365 Q206.135 546.092 203.056 550.698 Q200 555.281 194.19 555.281 Q188.38 555.281 185.301 550.698 Q182.246 546.092 182.246 537.365 Q182.246 528.615 185.301 524.032 Q188.38 519.425 194.19 519.425 Z" fill="#000000" fill-rule="nonzero" fill-opacity="1" /><path clip-path="url(#clip740)" d="M224.352 523.129 Q220.741 523.129 218.912 526.694 Q217.107 530.235 217.107 537.365 Q217.107 544.471 218.912 548.036 Q220.741 551.578 224.352 551.578 Q227.986 551.578 229.792 548.036 Q231.621 544.471 231.621 537.365 Q231.621 530.235 229.792 526.694 Q227.986 523.129 224.352 523.129 M224.352 519.425 Q230.162 519.425 233.218 524.032 Q236.297 528.615 236.297 537.365 Q236.297 546.092 233.218 550.698 Q230.162 555.281 224.352 555.281 Q218.542 555.281 215.463 550.698 Q212.408 546.092 212.408 537.365 Q212.408 528.615 215.463 524.032 Q218.542 519.425 224.352 519.425 Z" fill="#000000" fill-rule="nonzero" fill-opacity="1" /><path clip-path="url(#clip740)" d="M254.514 523.129 Q250.903 523.129 249.074 526.694 Q247.269 530.235 247.269 537.365 Q247.269 544.471 249.074 548.036 Q250.903 551.578 254.514 551.578 Q258.148 551.578 259.954 548.036 Q261.783 544.471 261.783 537.365 Q261.783 530.235 259.954 526.694 Q258.148 523.129 254.514 523.129 M254.514 519.425 Q260.324 519.425 263.38 524.032 Q266.458 528.615 266.458 537.365 Q266.458 546.092 263.38 550.698 Q260.324 555.281 254.514 555.281 Q248.704 555.281 245.625 550.698 Q242.57 546.092 242.57 537.365 Q242.57 528.615 245.625 524.032 Q248.704 519.425 254.514 519.425 Z" fill="#000000" fill-rule="nonzero" fill-opacity="1" /><path clip-path="url(#clip740)" d="M284.676 523.129 Q281.065 523.129 279.236 526.694 Q277.431 530.235 277.431 537.365 Q277.431 544.471 279.236 548.036 Q281.065 551.578 284.676 551.578 Q288.31 551.578 290.116 548.036 Q291.944 544.471 291.944 537.365 Q291.944 530.235 290.116 526.694 Q288.31 523.129 284.676 523.129 M284.676 519.425 Q290.486 519.425 293.542 524.032 Q296.62 528.615 296.62 537.365 Q296.62 546.092 293.542 550.698 Q290.486 555.281 284.676 555.281 Q278.866 555.281 275.787 550.698 Q272.732 546.092 272.732 537.365 Q272.732 528.615 275.787 524.032 Q278.866 519.425 284.676 519.425 Z" fill="#000000" fill-rule="nonzero" fill-opacity="1" /><path clip-path="url(#clip740)" d="M144.422 283.51 L174.098 283.51 L174.098 287.445 L144.422 287.445 L144.422 283.51 Z" fill="#000000" fill-rule="nonzero" fill-opacity="1" /><path clip-path="url(#clip740)" d="M183.01 265.778 L205.232 265.778 L205.232 267.769 L192.686 300.338 L187.801 300.338 L199.607 269.714 L183.01 269.714 L183.01 265.778 Z" fill="#000000" fill-rule="nonzero" fill-opacity="1" /><path clip-path="url(#clip740)" d="M214.399 265.778 L232.755 265.778 L232.755 269.714 L218.681 269.714 L218.681 278.186 Q219.699 277.839 220.718 277.677 Q221.736 277.491 222.755 277.491 Q228.542 277.491 231.922 280.663 Q235.301 283.834 235.301 289.251 Q235.301 294.829 231.829 297.931 Q228.357 301.01 222.037 301.01 Q219.861 301.01 217.593 300.639 Q215.348 300.269 212.94 299.528 L212.94 294.829 Q215.024 295.964 217.246 296.519 Q219.468 297.075 221.945 297.075 Q225.949 297.075 228.287 294.968 Q230.625 292.862 230.625 289.251 Q230.625 285.639 228.287 283.533 Q225.949 281.427 221.945 281.427 Q220.07 281.427 218.195 281.843 Q216.343 282.26 214.399 283.14 L214.399 265.778 Z" fill="#000000" fill-rule="nonzero" fill-opacity="1" /><path clip-path="url(#clip740)" d="M254.514 268.857 Q250.903 268.857 249.074 272.422 Q247.269 275.964 247.269 283.093 Q247.269 290.2 249.074 293.764 Q250.903 297.306 254.514 297.306 Q258.148 297.306 259.954 293.764 Q261.783 290.2 261.783 283.093 Q261.783 275.964 259.954 272.422 Q258.148 268.857 254.514 268.857 M254.514 265.153 Q260.324 265.153 263.38 269.76 Q266.458 274.343 266.458 283.093 Q266.458 291.82 263.38 296.426 Q260.324 301.01 254.514 301.01 Q248.704 301.01 245.625 296.426 Q242.57 291.82 242.57 283.093 Q242.57 274.343 245.625 269.76 Q248.704 265.153 254.514 265.153 Z" fill="#000000" fill-rule="nonzero" fill-opacity="1" /><path clip-path="url(#clip740)" d="M284.676 268.857 Q281.065 268.857 279.236 272.422 Q277.431 275.964 277.431 283.093 Q277.431 290.2 279.236 293.764 Q281.065 297.306 284.676 297.306 Q288.31 297.306 290.116 293.764 Q291.944 290.2 291.944 283.093 Q291.944 275.964 290.116 272.422 Q288.31 268.857 284.676 268.857 M284.676 265.153 Q290.486 265.153 293.542 269.76 Q296.62 274.343 296.62 283.093 Q296.62 291.82 293.542 296.426 Q290.486 301.01 284.676 301.01 Q278.866 301.01 275.787 296.426 Q272.732 291.82 272.732 283.093 Q272.732 274.343 275.787 269.76 Q278.866 265.153 284.676 265.153 Z" fill="#000000" fill-rule="nonzero" fill-opacity="1" /><path clip-path="url(#clip740)" d="M16.4842 816.375 L16.4842 786.329 L21.895 786.329 L21.895 809.945 L35.9632 809.945 L35.9632 787.315 L41.3741 787.315 L41.3741 809.945 L58.5933 809.945 L58.5933 785.756 L64.0042 785.756 L64.0042 816.375 L16.4842 816.375 Z" fill="#000000" fill-rule="nonzero" fill-opacity="1" /><path clip-path="url(#clip740)" d="M16.4842 775.189 L16.4842 768.759 L58.5933 768.759 L58.5933 745.62 L64.0042 745.62 L64.0042 775.189 L16.4842 775.189 Z" fill="#000000" fill-rule="nonzero" fill-opacity="1" /><path clip-path="url(#clip740)" d="M41.3104 732.443 L58.7206 732.443 L58.7206 722.13 Q58.7206 716.942 56.5881 714.46 Q54.4238 711.945 49.9996 711.945 Q45.5436 711.945 43.4429 714.46 Q41.3104 716.942 41.3104 722.13 L41.3104 732.443 M21.7677 732.443 L36.0905 732.443 L36.0905 722.926 Q36.0905 718.216 34.34 715.924 Q32.5576 713.6 28.9291 713.6 Q25.3325 713.6 23.5501 715.924 Q21.7677 718.216 21.7677 722.926 L21.7677 732.443 M16.4842 738.872 L16.4842 722.449 Q16.4842 715.096 19.5397 711.118 Q22.5952 707.139 28.2289 707.139 Q32.5894 707.139 35.1675 709.176 Q37.7456 711.213 38.3822 715.16 Q39.4007 710.418 42.6472 707.808 Q45.8619 705.166 50.6998 705.166 Q57.0655 705.166 60.5348 709.495 Q64.0042 713.823 64.0042 721.812 L64.0042 738.872 L16.4842 738.872 Z" fill="#000000" fill-rule="nonzero" fill-opacity="1" /><path clip-path="url(#clip740)" d="M20.8447 676.011 Q20.8447 683.013 26.0645 687.151 Q31.2844 691.257 40.2919 691.257 Q49.2675 691.257 54.4874 687.151 Q59.7073 683.013 59.7073 676.011 Q59.7073 669.009 54.4874 664.935 Q49.2675 660.829 40.2919 660.829 Q31.2844 660.829 26.0645 664.935 Q20.8447 669.009 20.8447 676.011 M15.6248 676.011 Q15.6248 666.017 22.3406 660.033 Q29.0246 654.049 40.2919 654.049 Q51.5274 654.049 58.2432 660.033 Q64.9272 666.017 64.9272 676.011 Q64.9272 686.037 58.2432 692.052 Q51.5592 698.036 40.2919 698.036 Q29.0246 698.036 22.3406 692.052 Q15.6248 686.037 15.6248 676.011 Z" fill="#000000" fill-rule="nonzero" fill-opacity="1" /><polyline clip-path="url(#clip741)" style="stroke:#009af9; stroke-linecap:round; stroke-linejoin:round; stroke-width:4; stroke-opacity:1; fill:none" points="443.194,1323.83 509.533,687.725 567.723,438.937 626.863,345.131 685.015,268.367 742.921,230.666 801.048,214.56 862.026,195.104 921.196,186.327 1020.91,178.564 1080.74,176.947 1140.07,168.799 1199.71,167.903 1260.53,162.145 1319.21,158.227 1376.56,159.39 1434.33,153.894 1491.54,145.503 1550.05,138.721 1607.79,133.413 1664.63,131.39 1721.63,124.104 1779.13,120.577 1837,113.509 1894.6,113.195 1952.48,111.779 2009,109.938 2065.78,103.943 2123.24,103.211 2180.08,97.401 2238.34,92.1114 2295.58,86.1857 "/>
<polyline clip-path="url(#clip741)" style="stroke:#e26f46; stroke-linecap:round; stroke-linejoin:round; stroke-width:4; stroke-opacity:1; fill:none" points="389.794,1384.24 414.858,732.435 424.554,406.263 433.845,334.323 443.076,272.518 451.999,248.785 460.937,222.046 470.214,209.23 479.273,200.447 488.25,189.491 497.212,182.99 506.438,181.375 515.386,177.702 524.365,174.18 533.298,171.656 542.542,163.02 551.487,160.758 560.407,160.892 569.265,159.985 578.183,151.279 587.371,147.435 596.269,144.701 605.111,139.504 613.971,137.57 623.23,134.2 632.14,132.378 640.951,127.055 649.792,119.245 658.983,121.166 667.839,115.76 676.69,112.801 685.506,108.896 "/>
<path clip-path="url(#clip740)" d="M1784.1 1377.32 L2285.42 1377.32 L2285.42 1221.8 L1784.1 1221.8  Z" fill="#ffffff" fill-rule="evenodd" fill-opacity="1"/>
<polyline clip-path="url(#clip740)" style="stroke:#000000; stroke-linecap:round; stroke-linejoin:round; stroke-width:4; stroke-opacity:1; fill:none" points="1784.1,1377.32 2285.42,1377.32 2285.42,1221.8 1784.1,1221.8 1784.1,1377.32 "/>
<polyline clip-path="url(#clip740)" style="stroke:#009af9; stroke-linecap:round; stroke-linejoin:round; stroke-width:4; stroke-opacity:1; fill:none" points="1806.55,1273.64 1941.22,1273.64 "/>
<path clip-path="url(#clip740)" d="M1963.67 1256.36 L1983.53 1256.36 L1983.53 1260.29 L1968.34 1260.29 L1968.34 1270.48 L1982.05 1270.48 L1982.05 1274.41 L1968.34 1274.41 L1968.34 1290.92 L1963.67 1290.92 L1963.67 1256.36 Z" fill="#000000" fill-rule="nonzero" fill-opacity="1" /><path clip-path="url(#clip740)" d="M1987.72 1280.68 L1987.72 1264.99 L1991.98 1264.99 L1991.98 1280.52 Q1991.98 1284.2 1993.41 1286.05 Q1994.85 1287.88 1997.72 1287.88 Q2001.17 1287.88 2003.16 1285.68 Q2005.17 1283.48 2005.17 1279.69 L2005.17 1264.99 L2009.43 1264.99 L2009.43 1290.92 L2005.17 1290.92 L2005.17 1286.93 Q2003.62 1289.29 2001.56 1290.45 Q1999.52 1291.59 1996.82 1291.59 Q1992.35 1291.59 1990.03 1288.81 Q1987.72 1286.03 1987.72 1280.68 M1998.44 1264.36 L1998.44 1264.36 Z" fill="#000000" fill-rule="nonzero" fill-opacity="1" /><path clip-path="url(#clip740)" d="M2018.2 1254.9 L2022.46 1254.9 L2022.46 1290.92 L2018.2 1290.92 L2018.2 1254.9 Z" fill="#000000" fill-rule="nonzero" fill-opacity="1" /><path clip-path="url(#clip740)" d="M2031.38 1254.9 L2035.64 1254.9 L2035.64 1290.92 L2031.38 1290.92 L2031.38 1254.9 Z" fill="#000000" fill-rule="nonzero" fill-opacity="1" /><path clip-path="url(#clip740)" d="M2064.48 1274.41 L2064.48 1287.07 L2071.98 1287.07 Q2075.75 1287.07 2077.56 1285.52 Q2079.39 1283.95 2079.39 1280.73 Q2079.39 1277.49 2077.56 1275.96 Q2075.75 1274.41 2071.98 1274.41 L2064.48 1274.41 M2064.48 1260.2 L2064.48 1270.61 L2071.4 1270.61 Q2074.82 1270.61 2076.49 1269.34 Q2078.18 1268.05 2078.18 1265.41 Q2078.18 1262.79 2076.49 1261.49 Q2074.82 1260.2 2071.4 1260.2 L2064.48 1260.2 M2059.8 1256.36 L2071.75 1256.36 Q2077.09 1256.36 2079.99 1258.58 Q2082.88 1260.8 2082.88 1264.9 Q2082.88 1268.07 2081.4 1269.94 Q2079.92 1271.82 2077.05 1272.28 Q2080.5 1273.02 2082.39 1275.38 Q2084.32 1277.72 2084.32 1281.24 Q2084.32 1285.87 2081.17 1288.39 Q2078.02 1290.92 2072.21 1290.92 L2059.8 1290.92 L2059.8 1256.36 Z" fill="#000000" fill-rule="nonzero" fill-opacity="1" /><path clip-path="url(#clip740)" d="M2103.92 1277.88 Q2098.76 1277.88 2096.77 1279.06 Q2094.78 1280.24 2094.78 1283.09 Q2094.78 1285.36 2096.26 1286.7 Q2097.76 1288.02 2100.33 1288.02 Q2103.88 1288.02 2106.01 1285.52 Q2108.16 1283 2108.16 1278.83 L2108.16 1277.88 L2103.92 1277.88 M2112.42 1276.12 L2112.42 1290.92 L2108.16 1290.92 L2108.16 1286.98 Q2106.7 1289.34 2104.52 1290.48 Q2102.35 1291.59 2099.2 1291.59 Q2095.22 1291.59 2092.86 1289.36 Q2090.52 1287.12 2090.52 1283.37 Q2090.52 1278.99 2093.44 1276.77 Q2096.38 1274.55 2102.19 1274.55 L2108.16 1274.55 L2108.16 1274.13 Q2108.16 1271.19 2106.21 1269.6 Q2104.29 1267.98 2100.8 1267.98 Q2098.57 1267.98 2096.47 1268.51 Q2094.36 1269.04 2092.42 1270.11 L2092.42 1266.17 Q2094.76 1265.27 2096.95 1264.83 Q2099.15 1264.36 2101.24 1264.36 Q2106.86 1264.36 2109.64 1267.28 Q2112.42 1270.2 2112.42 1276.12 Z" fill="#000000" fill-rule="nonzero" fill-opacity="1" /><path clip-path="url(#clip740)" d="M2125.4 1257.63 L2125.4 1264.99 L2134.18 1264.99 L2134.18 1268.3 L2125.4 1268.3 L2125.4 1282.37 Q2125.4 1285.54 2126.26 1286.45 Q2127.14 1287.35 2129.8 1287.35 L2134.18 1287.35 L2134.18 1290.92 L2129.8 1290.92 Q2124.87 1290.92 2123 1289.09 Q2121.12 1287.23 2121.12 1282.37 L2121.12 1268.3 L2118 1268.3 L2118 1264.99 L2121.12 1264.99 L2121.12 1257.63 L2125.4 1257.63 Z" fill="#000000" fill-rule="nonzero" fill-opacity="1" /><path clip-path="url(#clip740)" d="M2158.44 1265.98 L2158.44 1269.97 Q2156.63 1268.97 2154.8 1268.48 Q2153 1267.98 2151.14 1267.98 Q2147 1267.98 2144.71 1270.61 Q2142.42 1273.23 2142.42 1277.98 Q2142.42 1282.72 2144.71 1285.36 Q2147 1287.98 2151.14 1287.98 Q2153 1287.98 2154.8 1287.49 Q2156.63 1286.98 2158.44 1285.98 L2158.44 1289.92 Q2156.65 1290.75 2154.73 1291.17 Q2152.83 1291.59 2150.68 1291.59 Q2144.82 1291.59 2141.38 1287.91 Q2137.93 1284.23 2137.93 1277.98 Q2137.93 1271.63 2141.4 1268 Q2144.89 1264.36 2150.96 1264.36 Q2152.93 1264.36 2154.8 1264.78 Q2156.68 1265.17 2158.44 1265.98 Z" fill="#000000" fill-rule="nonzero" fill-opacity="1" /><path clip-path="url(#clip740)" d="M2187.39 1275.27 L2187.39 1290.92 L2183.13 1290.92 L2183.13 1275.41 Q2183.13 1271.73 2181.7 1269.9 Q2180.26 1268.07 2177.39 1268.07 Q2173.94 1268.07 2171.95 1270.27 Q2169.96 1272.47 2169.96 1276.26 L2169.96 1290.92 L2165.68 1290.92 L2165.68 1254.9 L2169.96 1254.9 L2169.96 1269.02 Q2171.49 1266.68 2173.55 1265.52 Q2175.63 1264.36 2178.34 1264.36 Q2182.81 1264.36 2185.1 1267.14 Q2187.39 1269.9 2187.39 1275.27 Z" fill="#000000" fill-rule="nonzero" fill-opacity="1" /><polyline clip-path="url(#clip740)" style="stroke:#e26f46; stroke-linecap:round; stroke-linejoin:round; stroke-width:4; stroke-opacity:1; fill:none" points="1806.55,1325.48 1941.22,1325.48 "/>
<path clip-path="url(#clip740)" d="M1985.91 1309.33 L1985.91 1313.89 Q1983.25 1312.62 1980.89 1311.99 Q1978.53 1311.37 1976.33 1311.37 Q1972.51 1311.37 1970.43 1312.85 Q1968.37 1314.33 1968.37 1317.06 Q1968.37 1319.35 1969.73 1320.53 Q1971.12 1321.69 1974.96 1322.41 L1977.79 1322.99 Q1983.02 1323.98 1985.5 1326.51 Q1988 1329.01 1988 1333.22 Q1988 1338.24 1984.62 1340.83 Q1981.26 1343.43 1974.76 1343.43 Q1972.3 1343.43 1969.52 1342.87 Q1966.77 1342.32 1963.81 1341.23 L1963.81 1336.41 Q1966.65 1338.01 1969.39 1338.82 Q1972.12 1339.63 1974.76 1339.63 Q1978.76 1339.63 1980.94 1338.06 Q1983.11 1336.48 1983.11 1333.57 Q1983.11 1331.02 1981.54 1329.58 Q1979.99 1328.15 1976.42 1327.43 L1973.58 1326.88 Q1968.34 1325.83 1966.01 1323.61 Q1963.67 1321.39 1963.67 1317.43 Q1963.67 1312.85 1966.89 1310.21 Q1970.13 1307.57 1975.8 1307.57 Q1978.23 1307.57 1980.75 1308.01 Q1983.27 1308.45 1985.91 1309.33 Z" fill="#000000" fill-rule="nonzero" fill-opacity="1" /><path clip-path="url(#clip740)" d="M1994.66 1332.52 L1994.66 1316.83 L1998.92 1316.83 L1998.92 1332.36 Q1998.92 1336.04 2000.36 1337.89 Q2001.79 1339.72 2004.66 1339.72 Q2008.11 1339.72 2010.1 1337.52 Q2012.12 1335.32 2012.12 1331.53 L2012.12 1316.83 L2016.38 1316.83 L2016.38 1342.76 L2012.12 1342.76 L2012.12 1338.77 Q2010.57 1341.13 2008.51 1342.29 Q2006.47 1343.43 2003.76 1343.43 Q1999.29 1343.43 1996.98 1340.65 Q1994.66 1337.87 1994.66 1332.52 M2005.38 1316.2 L2005.38 1316.2 Z" fill="#000000" fill-rule="nonzero" fill-opacity="1" /><path clip-path="url(#clip740)" d="M2043.76 1329.82 Q2043.76 1325.12 2041.82 1322.45 Q2039.89 1319.77 2036.51 1319.77 Q2033.14 1319.77 2031.19 1322.45 Q2029.27 1325.12 2029.27 1329.82 Q2029.27 1334.51 2031.19 1337.2 Q2033.14 1339.86 2036.51 1339.86 Q2039.89 1339.86 2041.82 1337.2 Q2043.76 1334.51 2043.76 1329.82 M2029.27 1320.76 Q2030.61 1318.45 2032.65 1317.34 Q2034.71 1316.2 2037.56 1316.2 Q2042.28 1316.2 2045.22 1319.95 Q2048.18 1323.7 2048.18 1329.82 Q2048.18 1335.93 2045.22 1339.68 Q2042.28 1343.43 2037.56 1343.43 Q2034.71 1343.43 2032.65 1342.32 Q2030.61 1341.18 2029.27 1338.87 L2029.27 1342.76 L2024.99 1342.76 L2024.99 1306.74 L2029.27 1306.74 L2029.27 1320.76 Z" fill="#000000" fill-rule="nonzero" fill-opacity="1" /><path clip-path="url(#clip740)" d="M2071.77 1317.59 L2071.77 1321.62 Q2069.96 1320.7 2068.02 1320.23 Q2066.08 1319.77 2063.99 1319.77 Q2060.82 1319.77 2059.22 1320.74 Q2057.65 1321.71 2057.65 1323.66 Q2057.65 1325.14 2058.78 1326 Q2059.92 1326.83 2063.34 1327.59 L2064.8 1327.92 Q2069.34 1328.89 2071.24 1330.67 Q2073.16 1332.43 2073.16 1335.6 Q2073.16 1339.21 2070.29 1341.32 Q2067.44 1343.43 2062.44 1343.43 Q2060.36 1343.43 2058.09 1343.01 Q2055.84 1342.62 2053.34 1341.81 L2053.34 1337.41 Q2055.7 1338.63 2058 1339.26 Q2060.29 1339.86 2062.53 1339.86 Q2065.54 1339.86 2067.16 1338.84 Q2068.78 1337.8 2068.78 1335.93 Q2068.78 1334.19 2067.6 1333.26 Q2066.45 1332.34 2062.49 1331.48 L2061.01 1331.14 Q2057.05 1330.3 2055.29 1328.59 Q2053.53 1326.85 2053.53 1323.84 Q2053.53 1320.19 2056.12 1318.2 Q2058.71 1316.2 2063.48 1316.2 Q2065.84 1316.2 2067.93 1316.55 Q2070.01 1316.9 2071.77 1317.59 Z" fill="#000000" fill-rule="nonzero" fill-opacity="1" /><path clip-path="url(#clip740)" d="M2091.72 1329.72 Q2086.56 1329.72 2084.57 1330.9 Q2082.58 1332.08 2082.58 1334.93 Q2082.58 1337.2 2084.06 1338.54 Q2085.57 1339.86 2088.14 1339.86 Q2091.68 1339.86 2093.81 1337.36 Q2095.96 1334.84 2095.96 1330.67 L2095.96 1329.72 L2091.72 1329.72 M2100.22 1327.96 L2100.22 1342.76 L2095.96 1342.76 L2095.96 1338.82 Q2094.5 1341.18 2092.32 1342.32 Q2090.15 1343.43 2087 1343.43 Q2083.02 1343.43 2080.66 1341.2 Q2078.32 1338.96 2078.32 1335.21 Q2078.32 1330.83 2081.24 1328.61 Q2084.18 1326.39 2089.99 1326.39 L2095.96 1326.39 L2095.96 1325.97 Q2095.96 1323.03 2094.01 1321.44 Q2092.09 1319.82 2088.6 1319.82 Q2086.38 1319.82 2084.27 1320.35 Q2082.16 1320.88 2080.22 1321.95 L2080.22 1318.01 Q2082.56 1317.11 2084.76 1316.67 Q2086.95 1316.2 2089.04 1316.2 Q2094.66 1316.2 2097.44 1319.12 Q2100.22 1322.04 2100.22 1327.96 Z" fill="#000000" fill-rule="nonzero" fill-opacity="1" /><path clip-path="url(#clip740)" d="M2129.18 1321.81 Q2130.77 1318.94 2133 1317.57 Q2135.22 1316.2 2138.23 1316.2 Q2142.28 1316.2 2144.48 1319.05 Q2146.68 1321.88 2146.68 1327.11 L2146.68 1342.76 L2142.39 1342.76 L2142.39 1327.25 Q2142.39 1323.52 2141.07 1321.71 Q2139.76 1319.91 2137.05 1319.91 Q2133.74 1319.91 2131.82 1322.11 Q2129.89 1324.31 2129.89 1328.1 L2129.89 1342.76 L2125.61 1342.76 L2125.61 1327.25 Q2125.61 1323.5 2124.29 1321.71 Q2122.97 1319.91 2120.22 1319.91 Q2116.95 1319.91 2115.03 1322.13 Q2113.11 1324.33 2113.11 1328.1 L2113.11 1342.76 L2108.83 1342.76 L2108.83 1316.83 L2113.11 1316.83 L2113.11 1320.86 Q2114.57 1318.47 2116.61 1317.34 Q2118.64 1316.2 2121.45 1316.2 Q2124.27 1316.2 2126.24 1317.64 Q2128.23 1319.07 2129.18 1321.81 Z" fill="#000000" fill-rule="nonzero" fill-opacity="1" /><path clip-path="url(#clip740)" d="M2159.29 1338.87 L2159.29 1352.62 L2155.01 1352.62 L2155.01 1316.83 L2159.29 1316.83 L2159.29 1320.76 Q2160.63 1318.45 2162.67 1317.34 Q2164.73 1316.2 2167.58 1316.2 Q2172.3 1316.2 2175.24 1319.95 Q2178.2 1323.7 2178.2 1329.82 Q2178.2 1335.93 2175.24 1339.68 Q2172.3 1343.43 2167.58 1343.43 Q2164.73 1343.43 2162.67 1342.32 Q2160.63 1341.18 2159.29 1338.87 M2173.78 1329.82 Q2173.78 1325.12 2171.84 1322.45 Q2169.92 1319.77 2166.54 1319.77 Q2163.16 1319.77 2161.21 1322.45 Q2159.29 1325.12 2159.29 1329.82 Q2159.29 1334.51 2161.21 1337.2 Q2163.16 1339.86 2166.54 1339.86 Q2169.92 1339.86 2171.84 1337.2 Q2173.78 1334.51 2173.78 1329.82 Z" fill="#000000" fill-rule="nonzero" fill-opacity="1" /><path clip-path="url(#clip740)" d="M2185.26 1306.74 L2189.52 1306.74 L2189.52 1342.76 L2185.26 1342.76 L2185.26 1306.74 Z" fill="#000000" fill-rule="nonzero" fill-opacity="1" /><path clip-path="url(#clip740)" d="M2198.44 1316.83 L2202.69 1316.83 L2202.69 1342.76 L2198.44 1342.76 L2198.44 1316.83 M2198.44 1306.74 L2202.69 1306.74 L2202.69 1312.13 L2198.44 1312.13 L2198.44 1306.74 Z" fill="#000000" fill-rule="nonzero" fill-opacity="1" /><path clip-path="url(#clip740)" d="M2233.16 1327.11 L2233.16 1342.76 L2228.9 1342.76 L2228.9 1327.25 Q2228.9 1323.57 2227.46 1321.74 Q2226.03 1319.91 2223.16 1319.91 Q2219.71 1319.91 2217.72 1322.11 Q2215.73 1324.31 2215.73 1328.1 L2215.73 1342.76 L2211.44 1342.76 L2211.44 1316.83 L2215.73 1316.83 L2215.73 1320.86 Q2217.25 1318.52 2219.31 1317.36 Q2221.4 1316.2 2224.11 1316.2 Q2228.57 1316.2 2230.87 1318.98 Q2233.16 1321.74 2233.16 1327.11 Z" fill="#000000" fill-rule="nonzero" fill-opacity="1" /><path clip-path="url(#clip740)" d="M2258.71 1329.49 Q2258.71 1324.86 2256.79 1322.32 Q2254.89 1319.77 2251.44 1319.77 Q2248.02 1319.77 2246.1 1322.32 Q2244.2 1324.86 2244.2 1329.49 Q2244.2 1334.1 2246.1 1336.64 Q2248.02 1339.19 2251.44 1339.19 Q2254.89 1339.19 2256.79 1336.64 Q2258.71 1334.1 2258.71 1329.49 M2262.97 1339.54 Q2262.97 1346.16 2260.03 1349.38 Q2257.09 1352.62 2251.03 1352.62 Q2248.78 1352.62 2246.79 1352.27 Q2244.8 1351.95 2242.93 1351.25 L2242.93 1347.11 Q2244.8 1348.13 2246.63 1348.61 Q2248.46 1349.1 2250.36 1349.1 Q2254.55 1349.1 2256.63 1346.9 Q2258.71 1344.72 2258.71 1340.3 L2258.71 1338.2 Q2257.39 1340.49 2255.33 1341.62 Q2253.27 1342.76 2250.4 1342.76 Q2245.63 1342.76 2242.72 1339.12 Q2239.8 1335.49 2239.8 1329.49 Q2239.8 1323.47 2242.72 1319.84 Q2245.63 1316.2 2250.4 1316.2 Q2253.27 1316.2 2255.33 1317.34 Q2257.39 1318.47 2258.71 1320.76 L2258.71 1316.83 L2262.97 1316.83 L2262.97 1339.54 Z" fill="#000000" fill-rule="nonzero" fill-opacity="1" /></svg>
