<?xml version="1.0" encoding="utf-8"?>
<svg xmlns="http://www.w3.org/2000/svg" xmlns:xlink="http://www.w3.org/1999/xlink" width="600" height="400" viewBox="0 0 2400 1600">
<defs>
  <clipPath id="clip180">
    <rect x="0" y="0" width="2400" height="1600"/>
  </clipPath>
</defs>
<path clip-path="url(#clip180)" d="M0 1600 L2400 1600 L2400 0 L0 0  Z" fill="#ffffff" fill-rule="evenodd" fill-opacity="1"/>
<defs>
  <clipPath id="clip181">
    <rect x="242" y="47" width="2112" height="1377"/>
  </clipPath>
</defs>
<path clip-path="url(#clip180)" d="M251.372 1423.18 L2352.76 1423.18 L2352.76 47.2441 L251.372 47.2441  Z" fill="#ffffff" fill-rule="evenodd" fill-opacity="1"/>
<defs>
  <clipPath id="clip182">
    <rect x="251" y="47" width="2102" height="1377"/>
  </clipPath>
</defs>
<polyline clip-path="url(#clip182)" style="stroke:#000000; stroke-linecap:round; stroke-linejoin:round; stroke-width:2; stroke-opacity:0.1; fill:none" points="308.861,1423.18 308.861,47.2441 "/>
<polyline clip-path="url(#clip182)" style="stroke:#000000; stroke-linecap:round; stroke-linejoin:round; stroke-width:2; stroke-opacity:0.1; fill:none" points="804.966,1423.18 804.966,47.2441 "/>
<polyline clip-path="url(#clip182)" style="stroke:#000000; stroke-linecap:round; stroke-linejoin:round; stroke-width:2; stroke-opacity:0.1; fill:none" points="1301.07,1423.18 1301.07,47.2441 "/>
<polyline clip-path="url(#clip182)" style="stroke:#000000; stroke-linecap:round; stroke-linejoin:round; stroke-width:2; stroke-opacity:0.1; fill:none" points="1797.18,1423.18 1797.18,47.2441 "/>
<polyline clip-path="url(#clip182)" style="stroke:#000000; stroke-linecap:round; stroke-linejoin:round; stroke-width:2; stroke-opacity:0.1; fill:none" points="2293.28,1423.18 2293.28,47.2441 "/>
<polyline clip-path="url(#clip182)" style="stroke:#000000; stroke-linecap:round; stroke-linejoin:round; stroke-width:2; stroke-opacity:0.1; fill:none" points="251.372,1120.61 2352.76,1120.61 "/>
<polyline clip-path="url(#clip182)" style="stroke:#000000; stroke-linecap:round; stroke-linejoin:round; stroke-width:2; stroke-opacity:0.1; fill:none" points="251.372,545.567 2352.76,545.567 "/>
<polyline clip-path="url(#clip180)" style="stroke:#000000; stroke-linecap:round; stroke-linejoin:round; stroke-width:4; stroke-opacity:1; fill:none" points="251.372,1423.18 2352.76,1423.18 "/>
<polyline clip-path="url(#clip180)" style="stroke:#000000; stroke-linecap:round; stroke-linejoin:round; stroke-width:4; stroke-opacity:1; fill:none" points="308.861,1423.18 308.861,1404.28 "/>
<polyline clip-path="url(#clip180)" style="stroke:#000000; stroke-linecap:round; stroke-linejoin:round; stroke-width:4; stroke-opacity:1; fill:none" points="804.966,1423.18 804.966,1404.28 "/>
<polyline clip-path="url(#clip180)" style="stroke:#000000; stroke-linecap:round; stroke-linejoin:round; stroke-width:4; stroke-opacity:1; fill:none" points="1301.07,1423.18 1301.07,1404.28 "/>
<polyline clip-path="url(#clip180)" style="stroke:#000000; stroke-linecap:round; stroke-linejoin:round; stroke-width:4; stroke-opacity:1; fill:none" points="1797.18,1423.18 1797.18,1404.28 "/>
<polyline clip-path="url(#clip180)" style="stroke:#000000; stroke-linecap:round; stroke-linejoin:round; stroke-width:4; stroke-opacity:1; fill:none" points="2293.28,1423.18 2293.28,1404.28 "/>
<path clip-path="url(#clip180)" d="M308.861 1454.1 Q305.25 1454.1 303.421 1457.66 Q301.616 1461.2 301.616 1468.33 Q301.616 1475.44 303.421 1479.01 Q305.25 1482.55 308.861 1482.55 Q312.495 1482.55 314.301 1479.01 Q316.129 1475.44 316.129 1468.33 Q316.129 1461.2 314.301 1457.66 Q312.495 1454.1 308.861 1454.1 M308.861 1450.39 Q314.671 1450.39 317.727 1455 Q320.805 1459.58 320.805 1468.33 Q320.805 1477.06 317.727 1481.67 Q314.671 1486.25 308.861 1486.25 Q303.051 1486.25 299.972 1481.67 Q296.916 1477.06 296.916 1468.33 Q296.916 1459.58 299.972 1455 Q303.051 1450.39 308.861 1450.39 Z" fill="#000000" fill-rule="nonzero" fill-opacity="1" /><path clip-path="url(#clip180)" d="M768.659 1481.64 L784.978 1481.64 L784.978 1485.58 L763.034 1485.58 L763.034 1481.64 Q765.696 1478.89 770.279 1474.26 Q774.885 1469.61 776.066 1468.27 Q778.311 1465.74 779.191 1464.01 Q780.094 1462.25 780.094 1460.56 Q780.094 1457.8 778.149 1456.07 Q776.228 1454.33 773.126 1454.33 Q770.927 1454.33 768.473 1455.09 Q766.043 1455.86 763.265 1457.41 L763.265 1452.69 Q766.089 1451.55 768.543 1450.97 Q770.997 1450.39 773.034 1450.39 Q778.404 1450.39 781.598 1453.08 Q784.793 1455.77 784.793 1460.26 Q784.793 1462.39 783.983 1464.31 Q783.196 1466.2 781.089 1468.8 Q780.51 1469.47 777.409 1472.69 Q774.307 1475.88 768.659 1481.64 Z" fill="#000000" fill-rule="nonzero" fill-opacity="1" /><path clip-path="url(#clip180)" d="M794.839 1451.02 L813.195 1451.02 L813.195 1454.96 L799.121 1454.96 L799.121 1463.43 Q800.14 1463.08 801.159 1462.92 Q802.177 1462.73 803.196 1462.73 Q808.983 1462.73 812.362 1465.9 Q815.742 1469.08 815.742 1474.49 Q815.742 1480.07 812.27 1483.17 Q808.797 1486.25 802.478 1486.25 Q800.302 1486.25 798.034 1485.88 Q795.788 1485.51 793.381 1484.77 L793.381 1480.07 Q795.464 1481.2 797.686 1481.76 Q799.909 1482.32 802.385 1482.32 Q806.39 1482.32 808.728 1480.21 Q811.066 1478.1 811.066 1474.49 Q811.066 1470.88 808.728 1468.77 Q806.39 1466.67 802.385 1466.67 Q800.51 1466.67 798.635 1467.08 Q796.784 1467.5 794.839 1468.38 L794.839 1451.02 Z" fill="#000000" fill-rule="nonzero" fill-opacity="1" /><path clip-path="url(#clip180)" d="M834.955 1454.1 Q831.344 1454.1 829.515 1457.66 Q827.709 1461.2 827.709 1468.33 Q827.709 1475.44 829.515 1479.01 Q831.344 1482.55 834.955 1482.55 Q838.589 1482.55 840.394 1479.01 Q842.223 1475.44 842.223 1468.33 Q842.223 1461.2 840.394 1457.66 Q838.589 1454.1 834.955 1454.1 M834.955 1450.39 Q840.765 1450.39 843.82 1455 Q846.899 1459.58 846.899 1468.33 Q846.899 1477.06 843.82 1481.67 Q840.765 1486.25 834.955 1486.25 Q829.144 1486.25 826.066 1481.67 Q823.01 1477.06 823.01 1468.33 Q823.01 1459.58 826.066 1455 Q829.144 1450.39 834.955 1450.39 Z" fill="#000000" fill-rule="nonzero" fill-opacity="1" /><path clip-path="url(#clip180)" d="M1260.69 1451.02 L1279.05 1451.02 L1279.05 1454.96 L1264.97 1454.96 L1264.97 1463.43 Q1265.99 1463.08 1267.01 1462.92 Q1268.03 1462.73 1269.05 1462.73 Q1274.83 1462.73 1278.21 1465.9 Q1281.59 1469.08 1281.59 1474.49 Q1281.59 1480.07 1278.12 1483.17 Q1274.65 1486.25 1268.33 1486.25 Q1266.15 1486.25 1263.88 1485.88 Q1261.64 1485.51 1259.23 1484.77 L1259.23 1480.07 Q1261.32 1481.2 1263.54 1481.76 Q1265.76 1482.32 1268.24 1482.32 Q1272.24 1482.32 1274.58 1480.21 Q1276.92 1478.1 1276.92 1474.49 Q1276.92 1470.88 1274.58 1468.77 Q1272.24 1466.67 1268.24 1466.67 Q1266.36 1466.67 1264.49 1467.08 Q1262.63 1467.5 1260.69 1468.38 L1260.69 1451.02 Z" fill="#000000" fill-rule="nonzero" fill-opacity="1" /><path clip-path="url(#clip180)" d="M1300.81 1454.1 Q1297.19 1454.1 1295.37 1457.66 Q1293.56 1461.2 1293.56 1468.33 Q1293.56 1475.44 1295.37 1479.01 Q1297.19 1482.55 1300.81 1482.55 Q1304.44 1482.55 1306.25 1479.01 Q1308.07 1475.44 1308.07 1468.33 Q1308.07 1461.2 1306.25 1457.66 Q1304.44 1454.1 1300.81 1454.1 M1300.81 1450.39 Q1306.62 1450.39 1309.67 1455 Q1312.75 1459.58 1312.75 1468.33 Q1312.75 1477.06 1309.67 1481.67 Q1306.62 1486.25 1300.81 1486.25 Q1295 1486.25 1291.92 1481.67 Q1288.86 1477.06 1288.86 1468.33 Q1288.86 1459.58 1291.92 1455 Q1295 1450.39 1300.81 1450.39 Z" fill="#000000" fill-rule="nonzero" fill-opacity="1" /><path clip-path="url(#clip180)" d="M1330.97 1454.1 Q1327.36 1454.1 1325.53 1457.66 Q1323.72 1461.2 1323.72 1468.33 Q1323.72 1475.44 1325.53 1479.01 Q1327.36 1482.55 1330.97 1482.55 Q1334.6 1482.55 1336.41 1479.01 Q1338.24 1475.44 1338.24 1468.33 Q1338.24 1461.2 1336.41 1457.66 Q1334.6 1454.1 1330.97 1454.1 M1330.97 1450.39 Q1336.78 1450.39 1339.83 1455 Q1342.91 1459.58 1342.91 1468.33 Q1342.91 1477.06 1339.83 1481.67 Q1336.78 1486.25 1330.97 1486.25 Q1325.16 1486.25 1322.08 1481.67 Q1319.02 1477.06 1319.02 1468.33 Q1319.02 1459.58 1322.08 1455 Q1325.16 1450.39 1330.97 1450.39 Z" fill="#000000" fill-rule="nonzero" fill-opacity="1" /><path clip-path="url(#clip180)" d="M1755.45 1451.02 L1777.68 1451.02 L1777.68 1453.01 L1765.13 1485.58 L1760.24 1485.58 L1772.05 1454.96 L1755.45 1454.96 L1755.45 1451.02 Z" fill="#000000" fill-rule="nonzero" fill-opacity="1" /><path clip-path="url(#clip180)" d="M1786.84 1451.02 L1805.2 1451.02 L1805.2 1454.96 L1791.12 1454.96 L1791.12 1463.43 Q1792.14 1463.08 1793.16 1462.92 Q1794.18 1462.73 1795.2 1462.73 Q1800.99 1462.73 1804.36 1465.9 Q1807.74 1469.08 1807.74 1474.49 Q1807.74 1480.07 1804.27 1483.17 Q1800.8 1486.25 1794.48 1486.25 Q1792.3 1486.25 1790.04 1485.88 Q1787.79 1485.51 1785.38 1484.77 L1785.38 1480.07 Q1787.47 1481.2 1789.69 1481.76 Q1791.91 1482.32 1794.39 1482.32 Q1798.39 1482.32 1800.73 1480.21 Q1803.07 1478.1 1803.07 1474.49 Q1803.07 1470.88 1800.73 1468.77 Q1798.39 1466.67 1794.39 1466.67 Q1792.51 1466.67 1790.64 1467.08 Q1788.79 1467.5 1786.84 1468.38 L1786.84 1451.02 Z" fill="#000000" fill-rule="nonzero" fill-opacity="1" /><path clip-path="url(#clip180)" d="M1826.96 1454.1 Q1823.35 1454.1 1821.52 1457.66 Q1819.71 1461.2 1819.71 1468.33 Q1819.71 1475.44 1821.52 1479.01 Q1823.35 1482.55 1826.96 1482.55 Q1830.59 1482.55 1832.4 1479.01 Q1834.23 1475.44 1834.23 1468.33 Q1834.23 1461.2 1832.4 1457.66 Q1830.59 1454.1 1826.96 1454.1 M1826.96 1450.39 Q1832.77 1450.39 1835.82 1455 Q1838.9 1459.58 1838.9 1468.33 Q1838.9 1477.06 1835.82 1481.67 Q1832.77 1486.25 1826.96 1486.25 Q1821.15 1486.25 1818.07 1481.67 Q1815.01 1477.06 1815.01 1468.33 Q1815.01 1459.58 1818.07 1455 Q1821.15 1450.39 1826.96 1450.39 Z" fill="#000000" fill-rule="nonzero" fill-opacity="1" /><path clip-path="url(#clip180)" d="M2237.81 1481.64 L2245.45 1481.64 L2245.45 1455.28 L2237.14 1456.95 L2237.14 1452.69 L2245.4 1451.02 L2250.08 1451.02 L2250.08 1481.64 L2257.72 1481.64 L2257.72 1485.58 L2237.81 1485.58 L2237.81 1481.64 Z" fill="#000000" fill-rule="nonzero" fill-opacity="1" /><path clip-path="url(#clip180)" d="M2277.16 1454.1 Q2273.55 1454.1 2271.72 1457.66 Q2269.91 1461.2 2269.91 1468.33 Q2269.91 1475.44 2271.72 1479.01 Q2273.55 1482.55 2277.16 1482.55 Q2280.79 1482.55 2282.6 1479.01 Q2284.43 1475.44 2284.43 1468.33 Q2284.43 1461.2 2282.6 1457.66 Q2280.79 1454.1 2277.16 1454.1 M2277.16 1450.39 Q2282.97 1450.39 2286.03 1455 Q2289.1 1459.58 2289.1 1468.33 Q2289.1 1477.06 2286.03 1481.67 Q2282.97 1486.25 2277.16 1486.25 Q2271.35 1486.25 2268.27 1481.67 Q2265.22 1477.06 2265.22 1468.33 Q2265.22 1459.58 2268.27 1455 Q2271.35 1450.39 2277.16 1450.39 Z" fill="#000000" fill-rule="nonzero" fill-opacity="1" /><path clip-path="url(#clip180)" d="M2307.32 1454.1 Q2303.71 1454.1 2301.88 1457.66 Q2300.08 1461.2 2300.08 1468.33 Q2300.08 1475.44 2301.88 1479.01 Q2303.71 1482.55 2307.32 1482.55 Q2310.96 1482.55 2312.76 1479.01 Q2314.59 1475.44 2314.59 1468.33 Q2314.59 1461.2 2312.76 1457.66 Q2310.96 1454.1 2307.32 1454.1 M2307.32 1450.39 Q2313.13 1450.39 2316.19 1455 Q2319.27 1459.58 2319.27 1468.33 Q2319.27 1477.06 2316.19 1481.67 Q2313.13 1486.25 2307.32 1486.25 Q2301.51 1486.25 2298.43 1481.67 Q2295.38 1477.06 2295.38 1468.33 Q2295.38 1459.58 2298.43 1455 Q2301.51 1450.39 2307.32 1450.39 Z" fill="#000000" fill-rule="nonzero" fill-opacity="1" /><path clip-path="url(#clip180)" d="M2337.48 1454.1 Q2333.87 1454.1 2332.04 1457.66 Q2330.24 1461.2 2330.24 1468.33 Q2330.24 1475.44 2332.04 1479.01 Q2333.87 1482.55 2337.48 1482.55 Q2341.12 1482.55 2342.92 1479.01 Q2344.75 1475.44 2344.75 1468.33 Q2344.75 1461.2 2342.92 1457.66 Q2341.12 1454.1 2337.48 1454.1 M2337.48 1450.39 Q2343.29 1450.39 2346.35 1455 Q2349.43 1459.58 2349.43 1468.33 Q2349.43 1477.06 2346.35 1481.67 Q2343.29 1486.25 2337.48 1486.25 Q2331.67 1486.25 2328.6 1481.67 Q2325.54 1477.06 2325.54 1468.33 Q2325.54 1459.58 2328.6 1455 Q2331.67 1450.39 2337.48 1450.39 Z" fill="#000000" fill-rule="nonzero" fill-opacity="1" /><path clip-path="url(#clip180)" d="M1169.78 1520.52 L1176.21 1520.52 L1176.21 1568.04 L1169.78 1568.04 L1169.78 1520.52 Z" fill="#000000" fill-rule="nonzero" fill-opacity="1" /><path clip-path="url(#clip180)" d="M1194.55 1522.27 L1194.55 1532.4 L1206.61 1532.4 L1206.61 1536.95 L1194.55 1536.95 L1194.55 1556.3 Q1194.55 1560.66 1195.72 1561.9 Q1196.93 1563.14 1200.59 1563.14 L1206.61 1563.14 L1206.61 1568.04 L1200.59 1568.04 Q1193.82 1568.04 1191.24 1565.53 Q1188.66 1562.98 1188.66 1556.3 L1188.66 1536.95 L1184.36 1536.95 L1184.36 1532.4 L1188.66 1532.4 L1188.66 1522.27 L1194.55 1522.27 Z" fill="#000000" fill-rule="nonzero" fill-opacity="1" /><path clip-path="url(#clip180)" d="M1244.8 1548.76 L1244.8 1551.62 L1217.88 1551.62 Q1218.26 1557.67 1221.51 1560.85 Q1224.78 1564 1230.61 1564 Q1233.98 1564 1237.13 1563.17 Q1240.32 1562.35 1243.44 1560.69 L1243.44 1566.23 Q1240.28 1567.57 1236.97 1568.27 Q1233.66 1568.97 1230.26 1568.97 Q1221.73 1568.97 1216.73 1564 Q1211.77 1559.04 1211.77 1550.57 Q1211.77 1541.82 1216.48 1536.69 Q1221.22 1531.54 1229.24 1531.54 Q1236.43 1531.54 1240.6 1536.18 Q1244.8 1540.8 1244.8 1548.76 M1238.95 1547.04 Q1238.88 1542.23 1236.24 1539.37 Q1233.63 1536.5 1229.3 1536.5 Q1224.4 1536.5 1221.44 1539.27 Q1218.51 1542.04 1218.07 1547.07 L1238.95 1547.04 Z" fill="#000000" fill-rule="nonzero" fill-opacity="1" /><path clip-path="url(#clip180)" d="M1275.07 1537.87 Q1274.09 1537.3 1272.91 1537.04 Q1271.76 1536.76 1270.36 1536.76 Q1265.4 1536.76 1262.72 1540 Q1260.08 1543.22 1260.08 1549.27 L1260.08 1568.04 L1254.19 1568.04 L1254.19 1532.4 L1260.08 1532.4 L1260.08 1537.93 Q1261.93 1534.69 1264.89 1533.13 Q1267.85 1531.54 1272.08 1531.54 Q1272.69 1531.54 1273.42 1531.63 Q1274.15 1531.7 1275.04 1531.85 L1275.07 1537.87 Z" fill="#000000" fill-rule="nonzero" fill-opacity="1" /><path clip-path="url(#clip180)" d="M1297.42 1550.12 Q1290.32 1550.12 1287.58 1551.75 Q1284.84 1553.37 1284.84 1557.29 Q1284.84 1560.4 1286.88 1562.25 Q1288.95 1564.07 1292.48 1564.07 Q1297.35 1564.07 1300.28 1560.63 Q1303.24 1557.16 1303.24 1551.43 L1303.24 1550.12 L1297.42 1550.12 M1309.1 1547.71 L1309.1 1568.04 L1303.24 1568.04 L1303.24 1562.63 Q1301.24 1565.88 1298.24 1567.44 Q1295.25 1568.97 1290.92 1568.97 Q1285.45 1568.97 1282.2 1565.91 Q1278.99 1562.82 1278.99 1557.67 Q1278.99 1551.65 1283 1548.6 Q1287.04 1545.54 1295.03 1545.54 L1303.24 1545.54 L1303.24 1544.97 Q1303.24 1540.93 1300.57 1538.73 Q1297.93 1536.5 1293.12 1536.5 Q1290.06 1536.5 1287.17 1537.23 Q1284.27 1537.97 1281.6 1539.43 L1281.6 1534.02 Q1284.81 1532.78 1287.84 1532.17 Q1290.86 1531.54 1293.72 1531.54 Q1301.46 1531.54 1305.28 1535.55 Q1309.1 1539.56 1309.1 1547.71 Z" fill="#000000" fill-rule="nonzero" fill-opacity="1" /><path clip-path="url(#clip180)" d="M1326.95 1522.27 L1326.95 1532.4 L1339.02 1532.4 L1339.02 1536.95 L1326.95 1536.95 L1326.95 1556.3 Q1326.95 1560.66 1328.13 1561.9 Q1329.34 1563.14 1333 1563.14 L1339.02 1563.14 L1339.02 1568.04 L1333 1568.04 Q1326.22 1568.04 1323.64 1565.53 Q1321.07 1562.98 1321.07 1556.3 L1321.07 1536.95 L1316.77 1536.95 L1316.77 1532.4 L1321.07 1532.4 L1321.07 1522.27 L1326.95 1522.27 Z" fill="#000000" fill-rule="nonzero" fill-opacity="1" /><path clip-path="url(#clip180)" d="M1346.72 1532.4 L1352.58 1532.4 L1352.58 1568.04 L1346.72 1568.04 L1346.72 1532.4 M1346.72 1518.52 L1352.58 1518.52 L1352.58 1525.93 L1346.72 1525.93 L1346.72 1518.52 Z" fill="#000000" fill-rule="nonzero" fill-opacity="1" /><path clip-path="url(#clip180)" d="M1378.64 1536.5 Q1373.93 1536.5 1371.2 1540.19 Q1368.46 1543.85 1368.46 1550.25 Q1368.46 1556.65 1371.16 1560.34 Q1373.9 1564 1378.64 1564 Q1383.32 1564 1386.06 1560.31 Q1388.8 1556.62 1388.8 1550.25 Q1388.8 1543.92 1386.06 1540.23 Q1383.32 1536.5 1378.64 1536.5 M1378.64 1531.54 Q1386.28 1531.54 1390.64 1536.5 Q1395 1541.47 1395 1550.25 Q1395 1559 1390.64 1564 Q1386.28 1568.97 1378.64 1568.97 Q1370.97 1568.97 1366.61 1564 Q1362.28 1559 1362.28 1550.25 Q1362.28 1541.47 1366.61 1536.5 Q1370.97 1531.54 1378.64 1531.54 Z" fill="#000000" fill-rule="nonzero" fill-opacity="1" /><path clip-path="url(#clip180)" d="M1434.34 1546.53 L1434.34 1568.04 L1428.49 1568.04 L1428.49 1546.72 Q1428.49 1541.66 1426.51 1539.14 Q1424.54 1536.63 1420.59 1536.63 Q1415.85 1536.63 1413.11 1539.65 Q1410.38 1542.68 1410.38 1547.9 L1410.38 1568.04 L1404.49 1568.04 L1404.49 1532.4 L1410.38 1532.4 L1410.38 1537.93 Q1412.48 1534.72 1415.31 1533.13 Q1418.17 1531.54 1421.9 1531.54 Q1428.04 1531.54 1431.19 1535.36 Q1434.34 1539.14 1434.34 1546.53 Z" fill="#000000" fill-rule="nonzero" fill-opacity="1" /><polyline clip-path="url(#clip180)" style="stroke:#000000; stroke-linecap:round; stroke-linejoin:round; stroke-width:4; stroke-opacity:1; fill:none" points="251.372,1423.18 251.372,47.2441 "/>
<polyline clip-path="url(#clip180)" style="stroke:#000000; stroke-linecap:round; stroke-linejoin:round; stroke-width:4; stroke-opacity:1; fill:none" points="251.372,1120.61 270.27,1120.61 "/>
<polyline clip-path="url(#clip180)" style="stroke:#000000; stroke-linecap:round; stroke-linejoin:round; stroke-width:4; stroke-opacity:1; fill:none" points="251.372,545.567 270.27,545.567 "/>
<path clip-path="url(#clip180)" d="M114.931 1140.41 L122.57 1140.41 L122.57 1114.04 L114.26 1115.71 L114.26 1111.45 L122.524 1109.78 L127.2 1109.78 L127.2 1140.41 L134.839 1140.41 L134.839 1144.34 L114.931 1144.34 L114.931 1140.41 Z" fill="#000000" fill-rule="nonzero" fill-opacity="1" /><path clip-path="url(#clip180)" d="M154.283 1112.86 Q150.672 1112.86 148.843 1116.42 Q147.038 1119.97 147.038 1127.1 Q147.038 1134.2 148.843 1137.77 Q150.672 1141.31 154.283 1141.31 Q157.917 1141.31 159.723 1137.77 Q161.552 1134.2 161.552 1127.1 Q161.552 1119.97 159.723 1116.42 Q157.917 1112.86 154.283 1112.86 M154.283 1109.16 Q160.093 1109.16 163.149 1113.76 Q166.227 1118.35 166.227 1127.1 Q166.227 1135.82 163.149 1140.43 Q160.093 1145.01 154.283 1145.01 Q148.473 1145.01 145.394 1140.43 Q142.339 1135.82 142.339 1127.1 Q142.339 1118.35 145.394 1113.76 Q148.473 1109.16 154.283 1109.16 Z" fill="#000000" fill-rule="nonzero" fill-opacity="1" /><path clip-path="url(#clip180)" d="M166.227 1103.26 L190.339 1103.26 L190.339 1106.45 L166.227 1106.45 L166.227 1103.26 Z" fill="#000000" fill-rule="nonzero" fill-opacity="1" /><path clip-path="url(#clip180)" d="M199.197 1113.73 L205.404 1113.73 L205.404 1092.31 L198.652 1093.67 L198.652 1090.2 L205.366 1088.85 L209.166 1088.85 L209.166 1113.73 L215.372 1113.73 L215.372 1116.93 L199.197 1116.93 L199.197 1113.73 Z" fill="#000000" fill-rule="nonzero" fill-opacity="1" /><path clip-path="url(#clip180)" d="M144.667 565.359 L152.305 565.359 L152.305 538.993 L143.995 540.66 L143.995 536.401 L152.259 534.734 L156.935 534.734 L156.935 565.359 L164.574 565.359 L164.574 569.294 L144.667 569.294 L144.667 565.359 Z" fill="#000000" fill-rule="nonzero" fill-opacity="1" /><path clip-path="url(#clip180)" d="M184.018 537.813 Q180.407 537.813 178.578 541.378 Q176.773 544.919 176.773 552.049 Q176.773 559.155 178.578 562.72 Q180.407 566.262 184.018 566.262 Q187.652 566.262 189.458 562.72 Q191.287 559.155 191.287 552.049 Q191.287 544.919 189.458 541.378 Q187.652 537.813 184.018 537.813 M184.018 534.109 Q189.828 534.109 192.884 538.716 Q195.963 543.299 195.963 552.049 Q195.963 560.776 192.884 565.382 Q189.828 569.965 184.018 569.965 Q178.208 569.965 175.129 565.382 Q172.074 560.776 172.074 552.049 Q172.074 543.299 175.129 538.716 Q178.208 534.109 184.018 534.109 Z" fill="#000000" fill-rule="nonzero" fill-opacity="1" /><path clip-path="url(#clip180)" d="M205.667 516.305 Q202.733 516.305 201.248 519.202 Q199.781 522.079 199.781 527.872 Q199.781 533.646 201.248 536.542 Q202.733 539.42 205.667 539.42 Q208.62 539.42 210.087 536.542 Q211.573 533.646 211.573 527.872 Q211.573 522.079 210.087 519.202 Q208.62 516.305 205.667 516.305 M205.667 513.296 Q210.388 513.296 212.871 517.039 Q215.372 520.763 215.372 527.872 Q215.372 534.962 212.871 538.705 Q210.388 542.429 205.667 542.429 Q200.947 542.429 198.445 538.705 Q195.963 534.962 195.963 527.872 Q195.963 520.763 198.445 517.039 Q200.947 513.296 205.667 513.296 Z" fill="#000000" fill-rule="nonzero" fill-opacity="1" /><path clip-path="url(#clip180)" d="M33.7671 1042.8 L14.479 1042.8 L14.479 1036.95 L64.0042 1036.95 L64.0042 1042.8 L58.657 1042.8 Q61.8398 1044.65 63.3994 1047.48 Q64.9272 1050.28 64.9272 1054.23 Q64.9272 1060.69 59.771 1064.76 Q54.6147 1068.81 46.212 1068.81 Q37.8093 1068.81 32.6531 1064.76 Q27.4968 1060.69 27.4968 1054.23 Q27.4968 1050.28 29.0564 1047.48 Q30.5842 1044.65 33.7671 1042.8 M46.212 1062.76 Q52.6732 1062.76 56.3653 1060.12 Q60.0256 1057.44 60.0256 1052.8 Q60.0256 1048.15 56.3653 1045.48 Q52.6732 1042.8 46.212 1042.8 Q39.7508 1042.8 36.0905 1045.48 Q32.3984 1048.15 32.3984 1052.8 Q32.3984 1057.44 36.0905 1060.12 Q39.7508 1062.76 46.212 1062.76 Z" fill="#000000" fill-rule="nonzero" fill-opacity="1" /><path clip-path="url(#clip180)" d="M28.3562 1024.88 L28.3562 1019.03 L64.0042 1019.03 L64.0042 1024.88 L28.3562 1024.88 M14.479 1024.88 L14.479 1019.03 L21.895 1019.03 L21.895 1024.88 L14.479 1024.88 Z" fill="#000000" fill-rule="nonzero" fill-opacity="1" /><path clip-path="url(#clip180)" d="M29.4065 984.047 L34.9447 984.047 Q33.6716 986.53 33.035 989.204 Q32.3984 991.877 32.3984 994.742 Q32.3984 999.102 33.7352 1001.3 Q35.072 1003.46 37.7456 1003.46 Q39.7826 1003.46 40.9603 1001.9 Q42.1061 1000.34 43.1565 995.633 L43.6021 993.628 Q44.9389 987.389 47.3897 984.779 Q49.8086 982.138 54.1691 982.138 Q59.1344 982.138 62.0308 986.084 Q64.9272 989.999 64.9272 996.874 Q64.9272 999.739 64.3543 1002.86 Q63.8132 1005.95 62.6992 1009.38 L56.6518 1009.38 Q58.3387 1006.14 59.198 1002.99 Q60.0256 999.834 60.0256 996.747 Q60.0256 992.609 58.6251 990.381 Q57.1929 988.153 54.6147 988.153 Q52.2276 988.153 50.9545 989.777 Q49.6813 991.368 48.5037 996.811 L48.0262 998.848 Q46.8804 1004.29 44.5251 1006.71 Q42.138 1009.13 38.0002 1009.13 Q32.9713 1009.13 30.2341 1005.56 Q27.4968 1002 27.4968 995.442 Q27.4968 992.196 27.9743 989.331 Q28.4517 986.466 29.4065 984.047 Z" fill="#000000" fill-rule="nonzero" fill-opacity="1" /><path clip-path="url(#clip180)" d="M18.2347 967.019 L28.3562 967.019 L28.3562 954.956 L32.9077 954.956 L32.9077 967.019 L52.2594 967.019 Q56.6199 967.019 57.8613 965.842 Q59.1026 964.632 59.1026 960.972 L59.1026 954.956 L64.0042 954.956 L64.0042 960.972 Q64.0042 967.751 61.4897 970.329 Q58.9434 972.907 52.2594 972.907 L32.9077 972.907 L32.9077 977.204 L28.3562 977.204 L28.3562 972.907 L18.2347 972.907 L18.2347 967.019 Z" fill="#000000" fill-rule="nonzero" fill-opacity="1" /><path clip-path="url(#clip180)" d="M46.0847 931.053 Q46.0847 938.151 47.7079 940.888 Q49.3312 943.625 53.2461 943.625 Q56.3653 943.625 58.2114 941.588 Q60.0256 939.519 60.0256 935.986 Q60.0256 931.117 56.5881 928.188 Q53.1188 925.228 47.3897 925.228 L46.0847 925.228 L46.0847 931.053 M43.6657 919.372 L64.0042 919.372 L64.0042 925.228 L58.5933 925.228 Q61.8398 927.234 63.3994 930.225 Q64.9272 933.217 64.9272 937.546 Q64.9272 943.02 61.8716 946.267 Q58.7843 949.482 53.6281 949.482 Q47.6125 949.482 44.5569 945.471 Q41.5014 941.429 41.5014 933.44 L41.5014 925.228 L40.9285 925.228 Q36.8862 925.228 34.6901 927.902 Q32.4621 930.544 32.4621 935.35 Q32.4621 938.405 33.1941 941.302 Q33.9262 944.198 35.3903 946.872 L29.9795 946.872 Q28.7381 943.657 28.1334 940.633 Q27.4968 937.61 27.4968 934.745 Q27.4968 927.011 31.5072 923.191 Q35.5176 919.372 43.6657 919.372 Z" fill="#000000" fill-rule="nonzero" fill-opacity="1" /><path clip-path="url(#clip180)" d="M42.4881 877.676 L64.0042 877.676 L64.0042 883.533 L42.679 883.533 Q37.6183 883.533 35.1038 885.506 Q32.5894 887.48 32.5894 891.426 Q32.5894 896.169 35.6131 898.906 Q38.6368 901.643 43.8567 901.643 L64.0042 901.643 L64.0042 907.532 L28.3562 907.532 L28.3562 901.643 L33.8944 901.643 Q30.6797 899.543 29.0883 896.71 Q27.4968 893.845 27.4968 890.121 Q27.4968 883.979 31.3163 880.828 Q35.1038 877.676 42.4881 877.676 Z" fill="#000000" fill-rule="nonzero" fill-opacity="1" /><path clip-path="url(#clip180)" d="M29.7248 840.342 L35.1993 840.342 Q33.8307 842.824 33.1623 845.339 Q32.4621 847.821 32.4621 850.368 Q32.4621 856.065 36.0905 859.216 Q39.6872 862.367 46.212 862.367 Q52.7369 862.367 56.3653 859.216 Q59.9619 856.065 59.9619 850.368 Q59.9619 847.821 59.2935 845.339 Q58.5933 842.824 57.2247 840.342 L62.6355 840.342 Q63.7814 842.792 64.3543 845.434 Q64.9272 848.044 64.9272 851.004 Q64.9272 859.057 59.8664 863.799 Q54.8057 868.542 46.212 868.542 Q37.491 868.542 32.4939 863.767 Q27.4968 858.961 27.4968 850.622 Q27.4968 847.917 28.0697 845.339 Q28.6108 842.761 29.7248 840.342 Z" fill="#000000" fill-rule="nonzero" fill-opacity="1" /><path clip-path="url(#clip180)" d="M44.7161 799.665 L47.5806 799.665 L47.5806 826.592 Q53.6281 826.21 56.8109 822.963 Q59.9619 819.685 59.9619 813.86 Q59.9619 810.486 59.1344 807.335 Q58.3069 804.153 56.6518 801.033 L62.1899 801.033 Q63.5267 804.184 64.227 807.495 Q64.9272 810.805 64.9272 814.21 Q64.9272 822.74 59.9619 827.738 Q54.9967 832.703 46.5303 832.703 Q37.7774 832.703 32.6531 827.992 Q27.4968 823.25 27.4968 815.229 Q27.4968 808.036 32.1438 803.866 Q36.7589 799.665 44.7161 799.665 M42.9973 805.521 Q38.1912 805.585 35.3266 808.227 Q32.4621 810.837 32.4621 815.165 Q32.4621 820.067 35.2312 823.027 Q38.0002 825.955 43.0292 826.401 L42.9973 805.521 Z" fill="#000000" fill-rule="nonzero" fill-opacity="1" /><path clip-path="url(#clip180)" d="M18.2347 763.539 L28.3562 763.539 L28.3562 751.476 L32.9077 751.476 L32.9077 763.539 L52.2594 763.539 Q56.6199 763.539 57.8613 762.362 Q59.1026 761.152 59.1026 757.492 L59.1026 751.476 L64.0042 751.476 L64.0042 757.492 Q64.0042 764.271 61.4897 766.85 Q58.9434 769.428 52.2594 769.428 L32.9077 769.428 L32.9077 773.724 L28.3562 773.724 L28.3562 769.428 L18.2347 769.428 L18.2347 763.539 Z" fill="#000000" fill-rule="nonzero" fill-opacity="1" /><path clip-path="url(#clip180)" d="M32.4621 729.96 Q32.4621 734.671 36.1542 737.408 Q39.8145 740.145 46.212 740.145 Q52.6095 740.145 56.3017 737.44 Q59.9619 734.703 59.9619 729.96 Q59.9619 725.281 56.2698 722.544 Q52.5777 719.807 46.212 719.807 Q39.8781 719.807 36.186 722.544 Q32.4621 725.281 32.4621 729.96 M27.4968 729.96 Q27.4968 722.321 32.4621 717.961 Q37.4273 713.6 46.212 713.6 Q54.9649 713.6 59.9619 717.961 Q64.9272 722.321 64.9272 729.96 Q64.9272 737.631 59.9619 741.991 Q54.9649 746.32 46.212 746.32 Q37.4273 746.32 32.4621 741.991 Q27.4968 737.631 27.4968 729.96 Z" fill="#000000" fill-rule="nonzero" fill-opacity="1" /><path clip-path="url(#clip180)" d="M32.4621 669.359 Q32.4621 674.069 36.1542 676.807 Q39.8145 679.544 46.212 679.544 Q52.6095 679.544 56.3017 676.838 Q59.9619 674.101 59.9619 669.359 Q59.9619 664.68 56.2698 661.943 Q52.5777 659.205 46.212 659.205 Q39.8781 659.205 36.186 661.943 Q32.4621 664.68 32.4621 669.359 M27.4968 669.359 Q27.4968 661.72 32.4621 657.359 Q37.4273 652.999 46.212 652.999 Q54.9649 652.999 59.9619 657.359 Q64.9272 661.72 64.9272 669.359 Q64.9272 677.029 59.9619 681.39 Q54.9649 685.719 46.212 685.719 Q37.4273 685.719 32.4621 681.39 Q27.4968 677.029 27.4968 669.359 Z" fill="#000000" fill-rule="nonzero" fill-opacity="1" /><path clip-path="url(#clip180)" d="M58.657 637.626 L77.5631 637.626 L77.5631 643.514 L28.3562 643.514 L28.3562 637.626 L33.7671 637.626 Q30.5842 635.78 29.0564 632.979 Q27.4968 630.146 27.4968 626.231 Q27.4968 619.738 32.6531 615.696 Q37.8093 611.622 46.212 611.622 Q54.6147 611.622 59.771 615.696 Q64.9272 619.738 64.9272 626.231 Q64.9272 630.146 63.3994 632.979 Q61.8398 635.78 58.657 637.626 M46.212 617.701 Q39.7508 617.701 36.0905 620.375 Q32.3984 623.016 32.3984 627.663 Q32.3984 632.31 36.0905 634.984 Q39.7508 637.626 46.212 637.626 Q52.6732 637.626 56.3653 634.984 Q60.0256 632.31 60.0256 627.663 Q60.0256 623.016 56.3653 620.375 Q52.6732 617.701 46.212 617.701 Z" fill="#000000" fill-rule="nonzero" fill-opacity="1" /><path clip-path="url(#clip180)" d="M18.2347 596.121 L28.3562 596.121 L28.3562 584.058 L32.9077 584.058 L32.9077 596.121 L52.2594 596.121 Q56.6199 596.121 57.8613 594.944 Q59.1026 593.734 59.1026 590.074 L59.1026 584.058 L64.0042 584.058 L64.0042 590.074 Q64.0042 596.853 61.4897 599.431 Q58.9434 602.01 52.2594 602.01 L32.9077 602.01 L32.9077 606.306 L28.3562 606.306 L28.3562 602.01 L18.2347 602.01 L18.2347 596.121 Z" fill="#000000" fill-rule="nonzero" fill-opacity="1" /><path clip-path="url(#clip180)" d="M28.3562 576.356 L28.3562 570.499 L64.0042 570.499 L64.0042 576.356 L28.3562 576.356 M14.479 576.356 L14.479 570.499 L21.895 570.499 L21.895 576.356 L14.479 576.356 Z" fill="#000000" fill-rule="nonzero" fill-opacity="1" /><path clip-path="url(#clip180)" d="M35.1993 530.491 Q31.2526 528.295 29.3747 525.239 Q27.4968 522.184 27.4968 518.046 Q27.4968 512.476 31.4117 509.452 Q35.2948 506.428 42.4881 506.428 L64.0042 506.428 L64.0042 512.317 L42.679 512.317 Q37.5546 512.317 35.072 514.131 Q32.5894 515.945 32.5894 519.669 Q32.5894 524.221 35.6131 526.862 Q38.6368 529.504 43.8567 529.504 L64.0042 529.504 L64.0042 535.392 L42.679 535.392 Q37.5228 535.392 35.072 537.207 Q32.5894 539.021 32.5894 542.808 Q32.5894 547.296 35.6449 549.938 Q38.6686 552.58 43.8567 552.58 L64.0042 552.58 L64.0042 558.468 L28.3562 558.468 L28.3562 552.58 L33.8944 552.58 Q30.616 550.575 29.0564 547.774 Q27.4968 544.973 27.4968 541.122 Q27.4968 537.238 29.4702 534.533 Q31.4436 531.796 35.1993 530.491 Z" fill="#000000" fill-rule="nonzero" fill-opacity="1" /><path clip-path="url(#clip180)" d="M49.9359 495.352 L28.3562 495.352 L28.3562 489.496 L49.7131 489.496 Q54.7739 489.496 57.3202 487.522 Q59.8346 485.549 59.8346 481.602 Q59.8346 476.86 56.8109 474.123 Q53.7872 471.353 48.5673 471.353 L28.3562 471.353 L28.3562 465.497 L64.0042 465.497 L64.0042 471.353 L58.5296 471.353 Q61.7762 473.486 63.3676 476.319 Q64.9272 479.12 64.9272 482.844 Q64.9272 488.986 61.1078 492.169 Q57.2883 495.352 49.9359 495.352 M27.4968 480.616 L27.4968 480.616 Z" fill="#000000" fill-rule="nonzero" fill-opacity="1" /><path clip-path="url(#clip180)" d="M35.1993 425.679 Q31.2526 423.483 29.3747 420.428 Q27.4968 417.372 27.4968 413.235 Q27.4968 407.665 31.4117 404.641 Q35.2948 401.617 42.4881 401.617 L64.0042 401.617 L64.0042 407.505 L42.679 407.505 Q37.5546 407.505 35.072 409.32 Q32.5894 411.134 32.5894 414.858 Q32.5894 419.409 35.6131 422.051 Q38.6368 424.693 43.8567 424.693 L64.0042 424.693 L64.0042 430.581 L42.679 430.581 Q37.5228 430.581 35.072 432.395 Q32.5894 434.21 32.5894 437.997 Q32.5894 442.485 35.6449 445.127 Q38.6686 447.768 43.8567 447.768 L64.0042 447.768 L64.0042 453.657 L28.3562 453.657 L28.3562 447.768 L33.8944 447.768 Q30.616 445.763 29.0564 442.962 Q27.4968 440.161 27.4968 436.31 Q27.4968 432.427 29.4702 429.722 Q31.4436 426.984 35.1993 425.679 Z" fill="#000000" fill-rule="nonzero" fill-opacity="1" /><polyline clip-path="url(#clip182)" style="stroke:#009af9; stroke-linecap:round; stroke-linejoin:round; stroke-width:4; stroke-opacity:1; fill:none" points="310.845,86.1857 312.83,87.3809 314.814,88.4978 316.799,89.6074 318.783,90.701 320.767,91.7588 322.752,92.8052 324.736,93.8915 326.721,94.9695 328.705,96.0698 330.69,97.1546 332.674,98.2672 334.658,99.4263 336.643,100.565 338.627,101.719 340.612,102.901 342.596,104.084 344.58,105.268 346.565,106.486 348.549,107.705 350.534,108.933 352.518,110.168 354.503,111.414 356.487,112.644 358.471,113.844 360.456,115.096 362.44,116.341 364.425,117.599 366.409,118.859 368.394,120.101 370.378,121.348 372.362,122.618 374.347,123.876 376.331,125.12 378.316,126.345 380.3,127.56 382.284,128.795 384.269,130.076 386.253,131.367 388.238,132.667 390.222,133.983 392.207,135.286 394.191,136.628 396.175,137.96 398.16,139.325 400.144,140.706 402.129,142.116 404.113,143.514 406.098,144.881 408.082,146.203 410.066,147.536 412.051,148.842 414.035,150.192 416.02,151.526 418.004,152.856 419.989,154.178 421.973,155.43 423.957,156.732 425.942,158.051 427.926,159.39 429.911,160.723 431.895,162.038 433.879,163.352 435.864,164.652 437.848,165.899 439.833,167.182 441.817,168.397 443.802,169.688 445.786,170.98 447.77,172.301 449.755,173.679 451.739,175.065 453.724,176.455 455.708,177.9 457.693,179.336 459.677,180.771 461.661,182.18 463.646,183.632 465.63,185.068 467.615,186.512 469.599,187.945 471.583,189.374 473.568,190.84 475.552,192.287 477.537,193.683 479.521,195.075 481.506,196.468 483.49,197.894 485.474,199.337 487.459,200.764 489.443,202.218 491.428,203.62 493.412,205.017 495.397,206.38 497.381,207.748 499.365,209.127 501.35,210.504 503.334,211.857 505.319,213.232 507.303,214.629 509.287,215.991 511.272,217.345 513.256,218.717 515.241,220.132 517.225,221.548 519.21,222.938 521.194,224.349 523.178,225.797 525.163,227.223 527.147,228.668 529.132,230.119 531.116,231.609 533.101,233.066 535.085,234.529 537.069,236.044 539.054,237.531 541.038,238.991 543.023,240.456 545.007,241.963 546.992,243.45 548.976,244.943 550.96,246.431 552.945,247.922 554.929,249.411 556.914,250.868 558.898,252.251 560.882,253.633 562.867,255.118 564.851,256.602 566.836,258.119 568.82,259.652 570.805,261.218 572.789,262.749 574.773,264.205 576.758,265.692 578.742,267.178 580.727,268.567 582.711,269.97 584.696,271.372 586.68,272.725 588.664,274.173 590.649,275.648 592.633,277.128 594.618,278.554 596.602,279.929 598.586,281.296 600.571,282.73 602.555,284.166 604.54,285.686 606.524,287.203 608.509,288.721 610.493,290.28 612.477,291.903 614.462,293.465 616.446,295.07 618.431,296.7 620.415,298.292 622.4,299.787 624.384,301.292 626.368,302.788 628.353,304.208 630.337,305.719 632.322,307.275 634.306,308.815 636.29,310.356 638.275,311.881 640.259,313.363 642.244,314.865 644.228,316.322 646.213,317.782 648.197,319.246 650.181,320.762 652.166,322.25 654.15,323.789 656.135,325.547 658.119,327.268 660.104,328.916 662.088,330.458 664.072,331.986 666.057,333.477 668.041,334.925 670.026,336.454 672.01,337.975 673.995,339.505 675.979,341.121 677.963,342.813 679.948,344.566 681.932,346.216 683.917,347.931 685.901,349.615 687.885,351.285 689.87,353 691.854,354.655 693.839,356.224 695.823,357.77 697.808,359.346 699.792,360.809 701.776,362.282 703.761,363.993 705.745,365.692 707.73,367.407 709.714,369.323 711.699,371.32 713.683,373.223 715.667,375.127 717.652,377.129 719.636,379.224 721.621,381.244 723.605,383.142 725.589,384.846 727.574,386.561 729.558,388.315 731.543,389.969 733.527,391.585 735.512,393.132 737.496,394.635 739.48,396.221 741.465,397.882 743.449,399.565 745.434,401.194 747.418,402.908 749.403,404.6 751.387,406.426 753.371,408.268 755.356,410.071 757.34,411.806 759.325,413.626 761.309,415.404 763.293,417.127 765.278,418.863 767.262,420.487 769.247,422.072 771.231,423.673 773.216,425.231 775.2,426.63 777.184,428.048 779.169,429.392 781.153,430.733 783.138,432.087 785.122,433.59 787.107,434.938 789.091,436.383 791.075,437.827 793.06,439.311 795.044,440.657 797.029,441.847 799.013,443.002 800.998,444.356 802.982,445.816 804.966,447.131 806.951,448.425 808.935,449.616 810.92,450.869 812.904,452.2 814.888,453.759 816.873,455.455 818.857,456.858 820.842,458.342 822.826,460.107 824.811,461.952 826.795,463.867 828.779,465.689 830.764,467.683 832.748,469.886 834.733,471.902 836.717,473.984 838.702,476.196 840.686,478.349 842.67,480.359 844.655,482.378 846.639,484.323 848.624,486.281 850.608,488.141 852.592,490.124 854.577,491.951 856.561,493.508 858.546,495.023 860.53,496.448 862.515,497.71 864.499,498.98 866.483,500.19 868.468,500.956 870.452,501.614 872.437,502.359 874.421,503.261 876.406,504.567 878.39,505.8 880.374,507.063 882.359,508.207 884.343,509.503 886.328,510.871 888.312,512.19 890.296,513.428 892.281,514.793 894.265,516.383 896.25,517.978 898.234,519.709 900.219,521.622 902.203,523.556 904.187,525.507 906.172,527.326 908.156,528.83 910.141,530.252 912.125,531.639 914.11,532.974 916.094,534.36 918.078,535.693 920.063,536.995 922.047,538.252 924.032,539.589 926.016,541 928.001,542.251 929.985,543.796 931.969,545.167 933.954,546.647 935.938,548.09 937.923,549.492 939.907,550.861 941.891,552.169 943.876,553.578 945.86,554.841 947.845,556.147 949.829,557.448 951.814,558.6 953.798,560.177 955.782,561.852 957.767,563.786 959.751,565.687 961.736,567.649 963.72,569.792 965.705,571.883 967.689,573.983 969.673,576.068 971.658,578.12 973.642,579.974 975.627,582.042 977.611,584.284 979.595,586.191 981.58,588.308 983.564,590.555 985.549,592.864 987.533,594.859 989.518,596.808 991.502,598.793 993.486,600.792 995.471,602.963 997.455,604.822 999.44,606.693 1001.42,608.38 1003.41,610.306 1005.39,612.148 1007.38,613.902 1009.36,616.035 1011.35,618.32 1013.33,620.093 1015.32,621.914 1017.3,623.527 1019.28,625.299 1021.27,627.03 1023.25,628.348 1025.24,629.436 1027.22,630.308 1029.21,630.612 1031.19,630.996 1033.17,631.523 1035.16,632.016 1037.14,633.036 1039.13,633.915 1041.11,635.042 1043.1,636.484 1045.08,638.009 1047.07,639.876 1049.05,641.483 1051.03,642.959 1053.02,644.635 1055,646.392 1056.99,648.185 1058.97,649.812 1060.96,651.36 1062.94,653.426 1064.93,655.567 1066.91,657.564 1068.89,659.639 1070.88,662.274 1072.86,664.709 1074.85,667.003 1076.83,669.433 1078.82,671.609 1080.8,673.721 1082.79,675.871 1084.77,677.798 1086.75,679.566 1088.74,680.98 1090.72,682.764 1092.71,684.468 1094.69,685.876 1096.68,687.247 1098.66,688.272 1100.65,689.426 1102.63,690.768 1104.61,692.084 1106.6,693.517 1108.58,694.581 1110.57,696.309 1112.55,698.376 1114.54,700.679 1116.52,702.211 1118.51,703.947 1120.49,705.253 1122.47,707.119 1124.46,708.709 1126.44,709.586 1128.43,710.249 1130.41,710.741 1132.4,711.07 1134.38,711.704 1136.36,711.992 1138.35,712.999 1140.33,714.094 1142.32,714.99 1144.3,715.946 1146.29,716.805 1148.27,717.912 1150.26,718.647 1152.24,719.909 1154.22,721.127 1156.21,721.868 1158.19,722.602 1160.18,722.937 1162.16,723.573 1164.15,723.977 1166.13,724.852 1168.12,725.972 1170.1,727.126 1172.08,728.35 1174.07,729.893 1176.05,731.615 1178.04,734.329 1180.02,737.001 1182.01,739.427 1183.99,741.855 1185.98,744.238 1187.96,746.856 1189.94,748.878 1191.93,750.837 1193.91,752.3 1195.9,753.831 1197.88,755.151 1199.87,755.392 1201.85,755.986 1203.84,756.896 1205.82,756.994 1207.8,756.791 1209.79,756.776 1211.77,756.153 1213.76,755.589 1215.74,755.864 1217.73,757.017 1219.71,758.835 1221.69,760.083 1223.68,760.761 1225.66,761.332 1227.65,762.022 1229.63,763.391 1231.62,764.821 1233.6,765.802 1235.59,766.434 1237.57,766.171 1239.55,766.17 1241.54,765.902 1243.52,766.321 1245.51,766.621 1247.49,766.324 1249.48,766.902 1251.46,767.851 1253.45,768.903 1255.43,770.189 1257.41,772.672 1259.4,775.136 1261.38,777.232 1263.37,778.63 1265.35,779.556 1267.34,780.337 1269.32,781.033 1271.31,781.833 1273.29,783.136 1275.27,784.103 1277.26,784.903 1279.24,785.851 1281.23,786.512 1283.21,787.393 1285.2,787.487 1287.18,786.154 1289.17,785.135 1291.15,783.501 1293.13,782.674 1295.12,781.472 1297.1,780.006 1299.09,778.686 1301.07,777.806 1303.06,777.264 1305.04,776.529 1307.03,775.498 1309.01,774.236 1310.99,773.815 1312.98,773.17 1314.96,772.666 1316.95,773.001 1318.93,773.295 1320.92,774.535 1322.9,775.631 1324.88,777.284 1326.87,778.306 1328.85,779.187 1330.84,779.755 1332.82,779.991 1334.81,781.212 1336.79,782.525 1338.78,783.155 1340.76,784.4 1342.74,785.546 1344.73,787.78 1346.71,789.907 1348.7,791.628 1350.68,792.996 1352.67,793.488 1354.65,795.601 1356.64,797.918 1358.62,799.119 1360.6,800.752 1362.59,801.271 1364.57,802.168 1366.56,803.151 1368.54,804.711 1370.53,806.064 1372.51,806.785 1374.5,807.345 1376.48,808.029 1378.46,808.636 1380.45,809.329 1382.43,810.779 1384.42,812.105 1386.4,813.002 1388.39,811.991 1390.37,811.468 1392.36,810.747 1394.34,810.922 1396.32,810.734 1398.31,810.796 1400.29,810.246 1402.28,809.47 1404.26,809.251 1406.25,808.39 1408.23,807.507 1410.22,806.046 1412.2,804.686 1414.18,803.772 1416.17,801.309 1418.15,799.184 1420.14,797.68 1422.12,796.305 1424.11,795.561 1426.09,794.187 1428.07,793.433 1430.06,793.597 1432.04,793.135 1434.03,792.929 1436.01,792.748 1438,792.152 1439.98,792.073 1441.97,792.12 1443.95,792.643 1445.93,794.078 1447.92,795.34 1449.9,795.858 1451.89,796.717 1453.87,797.723 1455.86,798.914 1457.84,800.403 1459.83,803.324 1461.81,806.216 1463.79,809.735 1465.78,814.433 1467.76,818.871 1469.75,822.455 1471.73,827.06 1473.72,831.69 1475.7,836.51 1477.69,841.385 1479.67,845.302 1481.65,848.728 1483.64,852.379 1485.62,856.11 1487.61,861.837 1489.59,866.879 1491.58,871.92 1493.56,876.71 1495.55,881.792 1497.53,886.8 1499.51,889.148 1501.5,891.481 1503.48,892.768 1505.47,894.313 1507.45,895.911 1509.44,898.201 1511.42,899.948 1513.4,902.763 1515.39,903.06 1517.37,902.822 1519.36,902.819 1521.34,903.085 1523.33,903.531 1525.31,903.995 1527.3,904.091 1529.28,904.898 1531.26,907.103 1533.25,908.107 1535.23,910.23 1537.22,912.916 1539.2,917.179 1541.19,920.674 1543.17,922.544 1545.16,925.855 1547.14,929.03 1549.12,932.18 1551.11,934.517 1553.09,936.339 1555.08,937.511 1557.06,937.987 1559.05,939.575 1561.03,937.737 1563.02,936.956 1565,936.451 1566.98,936.708 1568.97,936.816 1570.95,937.639 1572.94,938.83 1574.92,938.829 1576.91,937.417 1578.89,936.353 1580.88,937.015 1582.86,937.932 1584.84,939.318 1586.83,940.797 1588.81,942.829 1590.8,945.787 1592.78,948.228 1594.77,951.217 1596.75,954.52 1598.74,958.486 1600.72,961.118 1602.7,962.97 1604.69,965.659 1606.67,966.912 1608.66,967.948 1610.64,969.033 1612.63,969.762 1614.61,970.953 1616.59,972.385 1618.58,972.046 1620.56,972.126 1622.55,972.653 1624.53,971.803 1626.52,970.21 1628.5,967.687 1630.49,966.153 1632.47,963.014 1634.45,960.937 1636.44,956.348 1638.42,949.947 1640.41,944.102 1642.39,939.31 1644.38,933.153 1646.36,927.959 1648.35,923.609 1650.33,919.564 1652.31,915.608 1654.3,911.302 1656.28,908.049 1658.27,907.888 1660.25,907.361 1662.24,905.83 1664.22,904.307 1666.21,901.947 1668.19,899.565 1670.17,897.016 1672.16,894.073 1674.14,891.501 1676.13,889.144 1678.11,886.175 1680.1,883.657 1682.08,881.192 1684.07,878.475 1686.05,876.116 1688.03,872.823 1690.02,869.96 1692,866.758 1693.99,863.853 1695.97,862.001 1697.96,859.087 1699.94,856.523 1701.93,853.798 1703.91,851.134 1705.89,848.928 1707.88,845.698 1709.86,842.979 1711.85,841.116 1713.83,839.431 1715.82,837 1717.8,834.671 1719.78,833.043 1721.77,831.435 1723.75,829.676 1725.74,828.584 1727.72,827.909 1729.71,826.865 1731.69,827.057 1733.68,827.201 1735.66,827.428 1737.64,827.99 1739.63,828.44 1741.61,828.418 1743.6,828.397 1745.58,828.093 1747.57,828.535 1749.55,829.195 1751.54,829.865 1753.52,830.347 1755.5,830.286 1757.49,830.915 1759.47,833.21 1761.46,834.763 1763.44,836.221 1765.43,837.072 1767.41,838.615 1769.4,840.028 1771.38,841.57 1773.36,842.997 1775.35,845.349 1777.33,846.041 1779.32,846.394 1781.3,846.742 1783.29,846.14 1785.27,844.784 1787.26,842.482 1789.24,840.774 1791.22,839.808 1793.21,839.457 1795.19,840.818 1797.18,842.208 1799.16,843.961 1801.15,846.075 1803.13,848.457 1805.11,850.454 1807.1,852.511 1809.08,854.267 1811.07,855.97 1813.05,857.691 1815.04,858.106 1817.02,858.59 1819.01,857.999 1820.99,856.832 1822.97,854.917 1824.96,851.524 1826.94,848.024 1828.93,843.788 1830.91,839.861 1832.9,836.654 1834.88,833.923 1836.87,831.072 1838.85,828.066 1840.83,824.631 1842.82,822.376 1844.8,821.439 1846.79,820.651 1848.77,820.391 1850.76,819.923 1852.74,820.061 1854.73,818.985 1856.71,819.239 1858.69,818.719 1860.68,818.042 1862.66,817.231 1864.65,817.424 1866.63,818.781 1868.62,820.013 1870.6,820.167 1872.59,820.17 1874.57,819.05 1876.55,818.347 1878.54,817.864 1880.52,816.084 1882.51,815.452 1884.49,814.642 1886.48,814.264 1888.46,813.301 1890.45,811.231 1892.43,808.641 1894.41,806.407 1896.4,803.887 1898.38,801.576 1900.37,799.743 1902.35,800.258 1904.34,801.079 1906.32,801.615 1908.3,801.351 1910.29,801.601 1912.27,801.856 1914.26,802.324 1916.24,802.96 1918.23,803.214 1920.21,803.157 1922.2,804.414 1924.18,805.663 1926.16,807.417 1928.15,809.381 1930.13,810.803 1932.12,812.06 1934.1,813.469 1936.09,814.549 1938.07,815.393 1940.06,816.725 1942.04,819.101 1944.02,821.936 1946.01,825.297 1947.99,829.757 1949.98,835.312 1951.96,840.753 1953.95,846.564 1955.93,851.756 1957.92,856.687 1959.9,861.014 1961.88,864.938 1963.87,868.218 1965.85,870.31 1967.84,873.332 1969.82,875.022 1971.81,877.608 1973.79,878.418 1975.78,879.39 1977.76,880.351 1979.74,880.596 1981.73,879.623 1983.71,878.953 1985.7,879.827 1987.68,880.221 1989.67,880.208 1991.65,879.091 1993.64,878.444 1995.62,878.474 1997.6,878.436 1999.59,879.097 2001.57,880.044 2003.56,880.489 2005.54,880.857 2007.53,880.842 2009.51,880.845 2011.49,881.427 2013.48,882.094 2015.46,882.706 2017.45,884.47 2019.43,886.349 2021.42,889.13 2023.4,891.116 2025.39,892.069 2027.37,892.391 2029.35,893.645 2031.34,893.305 2033.32,892.328 2035.31,891.438 2037.29,889.932 2039.28,889.873 2041.26,889.883 2043.25,889.807 2045.23,888.735 2047.21,887.194 2049.2,888.102 2051.18,887.897 2053.17,886.907 2055.15,885.781 2057.14,885.094 2059.12,883.824 2061.11,882.855 2063.09,881.115 2065.07,879.815 2067.06,878.602 2069.04,877.092 2071.03,875.479 2073.01,872.739 2075,870.631 2076.98,868.925 2078.97,867.078 2080.95,866.816 2082.93,866.474 2084.92,865.306 2086.9,864.864 2088.89,864.655 2090.87,865.574 2092.86,866.315 2094.84,867.698 2096.83,868.906 2098.81,870.164 2100.79,872.772 2102.78,874.941 2104.76,876.514 2106.75,876.462 2108.73,875.768 2110.72,875.069 2112.7,875.179 2114.68,875.455 2116.67,874.679 2118.65,873.771 2120.64,872.541 2122.62,871.424 2124.61,870.215 2126.59,868.354 2128.58,866.465 2130.56,864.41 2132.54,864.407 2134.53,863.34 2136.51,862.105 2138.5,860.027 2140.48,858.752 2142.47,856.948 2144.45,855.106 2146.44,852.753 2148.42,850.737 2150.4,849.217 2152.39,849.45 2154.37,849.806 2156.36,848.449 2158.34,848.2 2160.33,848.076 2162.31,848.094 2164.3,847.3 2166.28,848.083 2168.26,848.342 2170.25,848.464 2172.23,849.239 2174.22,849.411 2176.2,850.905 2178.19,852.995 2180.17,855.116 2182.16,855.96 2184.14,856.826 2186.12,857.596 2188.11,858.345 2190.09,859.88 2192.08,861.021 2194.06,862.146 2196.05,863.79 2198.03,864.268 2200.01,864.134 2202,863.389 2203.98,862.082 2205.97,861.701 2207.95,861.855 2209.94,860.818 2211.92,859.427 2213.91,857.621 2215.89,855.672 2217.87,852.663 2219.86,849.429 2221.84,846.599 2223.83,843.369 2225.81,838.79 2227.8,836.057 2229.78,833.47 2231.77,831.248 2233.75,829.989 2235.73,828.885 2237.72,829.361 2239.7,829.212 2241.69,827.896 2243.67,825.601 2245.66,823.544 2247.64,822.853 2249.63,822.374 2251.61,821.374 2253.59,820.078 2255.58,819.114 2257.56,818.8 2259.55,817.389 2261.53,815.963 2263.52,813.052 2265.5,809.721 2267.49,806.445 2269.47,803.807 2271.45,802.055 2273.44,799.588 2275.42,796.596 2277.41,794.298 2279.39,792.563 2281.38,791.796 2283.36,791.527 2285.35,791.503 2287.33,790.837 2289.31,790.264 2291.3,790.268 2293.28,790.194 "/>
<polyline clip-path="url(#clip182)" style="stroke:#e26f46; stroke-linecap:round; stroke-linejoin:round; stroke-width:4; stroke-opacity:1; fill:none" points="310.845,86.1857 312.83,87.4412 314.814,88.7042 316.799,89.9735 318.783,91.2499 320.767,92.5319 322.752,93.8195 324.736,95.1118 326.721,96.4091 328.705,97.7112 330.69,99.0199 332.674,100.335 334.658,101.657 336.643,102.984 338.627,104.316 340.612,105.653 342.596,106.996 344.58,108.344 346.565,109.696 348.549,111.052 350.534,112.412 352.518,113.778 354.503,115.149 356.487,116.526 358.471,117.909 360.456,119.297 362.44,120.691 364.425,122.09 366.409,123.493 368.394,124.902 370.378,126.316 372.362,127.732 374.347,129.153 376.331,130.579 378.316,132.007 380.3,133.44 382.284,134.878 384.269,136.32 386.253,137.767 388.238,139.219 390.222,140.676 392.207,142.137 394.191,143.602 396.175,145.072 398.16,146.546 400.144,148.023 402.129,149.505 404.113,150.991 406.098,152.482 408.082,153.978 410.066,155.478 412.051,156.981 414.035,158.489 416.02,159.999 418.004,161.513 419.989,163.031 421.973,164.555 423.957,166.082 425.942,167.614 427.926,169.15 429.911,170.689 431.895,172.231 433.879,173.779 435.864,175.333 437.848,176.892 439.833,178.454 441.817,180.019 443.802,181.589 445.786,183.164 447.77,184.742 449.755,186.326 451.739,187.915 453.724,189.508 455.708,191.107 457.693,192.712 459.677,194.322 461.661,195.936 463.646,197.555 465.63,199.178 467.615,200.806 469.599,202.436 471.583,204.072 473.568,205.712 475.552,207.355 477.537,209.002 479.521,210.656 481.506,212.315 483.49,213.977 485.474,215.645 487.459,217.317 489.443,218.993 491.428,220.678 493.412,222.367 495.397,224.059 497.381,225.755 499.365,227.454 501.35,229.157 503.334,230.865 505.319,232.578 507.303,234.298 509.287,236.021 511.272,237.748 513.256,239.474 515.241,241.205 517.225,242.945 519.21,244.69 521.194,246.439 523.178,248.196 525.163,249.959 527.147,251.728 529.132,253.498 531.116,255.275 533.101,257.059 535.085,258.852 537.069,260.652 539.054,262.453 541.038,264.265 543.023,266.079 545.007,267.901 546.992,269.732 548.976,271.566 550.96,273.405 552.945,275.247 554.929,277.096 556.914,278.95 558.898,280.81 560.882,282.674 562.867,284.542 564.851,286.413 566.836,288.284 568.82,290.157 570.805,292.038 572.789,293.922 574.773,295.809 576.758,297.704 578.742,299.605 580.727,301.51 582.711,303.427 584.696,305.349 586.68,307.275 588.664,309.208 590.649,311.145 592.633,313.091 594.618,315.041 596.602,317.002 598.586,318.966 600.571,320.932 602.555,322.904 604.54,324.884 606.524,326.87 608.509,328.86 610.493,330.856 612.477,332.854 614.462,334.857 616.446,336.866 618.431,338.878 620.415,340.904 622.4,342.932 624.384,344.973 626.368,347.022 628.353,349.07 630.337,351.131 632.322,353.203 634.306,355.277 636.29,357.347 638.275,359.412 640.259,361.471 642.244,363.533 644.228,365.599 646.213,367.663 648.197,369.73 650.181,371.804 652.166,373.886 654.15,375.973 656.135,378.07 658.119,380.182 660.104,382.304 662.088,384.435 664.072,386.58 666.057,388.738 668.041,390.914 670.026,393.099 672.01,395.286 673.995,397.472 675.979,399.651 677.963,401.841 679.948,404.036 681.932,406.23 683.917,408.425 685.901,410.631 687.885,412.842 689.87,415.055 691.854,417.271 693.839,419.491 695.823,421.706 697.808,423.923 699.792,426.147 701.776,428.379 703.761,430.611 705.745,432.848 707.73,435.084 709.714,437.318 711.699,439.561 713.683,441.808 715.667,444.061 717.652,446.321 719.636,448.58 721.621,450.854 723.605,453.147 725.589,455.446 727.574,457.737 729.558,460.034 731.543,462.326 733.527,464.632 735.512,466.94 737.496,469.257 739.48,471.565 741.465,473.883 743.449,476.193 745.434,478.53 747.418,480.889 749.403,483.258 751.387,485.632 753.371,488.015 755.356,490.41 757.34,492.794 759.325,495.198 761.309,497.601 763.293,500.004 765.278,502.388 767.262,504.775 769.247,507.169 771.231,509.566 773.216,511.983 775.2,514.426 777.184,516.868 779.169,519.307 781.153,521.764 783.138,524.225 785.122,526.683 787.107,529.155 789.091,531.675 791.075,534.188 793.06,536.659 795.044,539.134 797.029,541.619 799.013,544.11 800.998,546.623 802.982,549.149 804.966,551.656 806.951,554.134 808.935,556.625 810.92,559.126 812.904,561.626 814.888,564.138 816.873,566.671 818.857,569.213 820.842,571.746 822.826,574.295 824.811,576.892 826.795,579.477 828.779,582.076 830.764,584.709 832.748,587.344 834.733,589.968 836.717,592.661 838.702,595.359 840.686,598.051 842.67,600.747 844.655,603.444 846.639,606.173 848.624,608.904 850.608,611.607 852.592,614.287 854.577,617.001 856.561,619.689 858.546,622.385 860.53,625.041 862.515,627.636 864.499,630.257 866.483,632.891 868.468,635.568 870.452,638.297 872.437,641.048 874.421,643.778 876.406,646.522 878.39,649.17 880.374,651.864 882.359,654.594 884.343,657.306 886.328,660.033 888.312,662.727 890.296,665.443 892.281,668.138 894.265,670.892 896.25,673.595 898.234,676.33 900.219,679.118 902.203,681.945 904.187,684.787 906.172,687.651 908.156,690.579 910.141,693.572 912.125,696.474 914.11,699.418 916.094,702.418 918.078,705.511 920.063,708.584 922.047,711.625 924.032,714.663 926.016,717.707 928.001,720.81 929.985,723.889 931.969,726.975 933.954,730.065 935.938,733.102 937.923,736.055 939.907,738.958 941.891,741.711 943.876,744.495 945.86,747.311 947.845,750.065 949.829,752.792 951.814,755.615 953.798,758.624 955.782,761.584 957.767,764.655 959.751,767.66 961.736,770.67 963.72,773.689 965.705,776.599 967.689,779.507 969.673,782.473 971.658,785.32 973.642,788.101 975.627,790.868 977.611,793.627 979.595,796.456 981.58,799.543 983.564,802.548 985.549,805.623 987.533,808.488 989.518,811.517 991.502,814.55 993.486,817.743 995.471,820.787 997.455,823.889 999.44,827.069 1001.42,830.494 1003.41,833.871 1005.39,837.116 1007.38,840.28 1009.36,843.667 1011.35,846.822 1013.33,849.906 1015.32,853.047 1017.3,856.167 1019.28,859.115 1021.27,862.062 1023.25,864.595 1025.24,867.299 1027.22,869.939 1029.21,872.874 1031.19,876.454 1033.17,879.978 1035.16,883.451 1037.14,886.754 1039.13,890.175 1041.11,893.485 1043.1,896.57 1045.08,899.484 1047.07,902.685 1049.05,905.44 1051.03,908.36 1053.02,911.242 1055,914.029 1056.99,917.062 1058.97,920.069 1060.96,923.24 1062.94,926.179 1064.93,928.801 1066.91,931.392 1068.89,934.133 1070.88,936.071 1072.86,937.809 1074.85,939.62 1076.83,941.782 1078.82,944.429 1080.8,947.273 1082.79,949.948 1084.77,952.328 1086.75,954.862 1088.74,957.058 1090.72,959.404 1092.71,961.315 1094.69,964.548 1096.68,967.868 1098.66,971.534 1100.65,975.044 1102.63,979.366 1104.61,983.918 1106.6,988.407 1108.58,993.392 1110.57,998.842 1112.55,1003.76 1114.54,1009.41 1116.52,1015 1118.51,1019.77 1120.49,1023.27 1122.47,1025.22 1124.46,1026.79 1126.44,1028.86 1128.43,1030.66 1130.41,1032.21 1132.4,1033.72 1134.38,1034.91 1136.36,1037.22 1138.35,1039.54 1140.33,1042.37 1142.32,1044.6 1144.3,1048.84 1146.29,1050.98 1148.27,1051.2 1150.26,1051.66 1152.24,1053.39 1154.22,1054.78 1156.21,1055.25 1158.19,1057.54 1160.18,1059.7 1162.16,1062.49 1164.15,1065.41 1166.13,1067.49 1168.12,1068.54 1170.1,1069.39 1172.08,1070.17 1174.07,1071.64 1176.05,1073.73 1178.04,1076.28 1180.02,1080.72 1182.01,1085.14 1183.99,1089.45 1185.98,1096.78 1187.96,1104 1189.94,1110.36 1191.93,1115.64 1193.91,1120.22 1195.9,1124.01 1197.88,1130.4 1199.87,1136.12 1201.85,1140.52 1203.84,1146.07 1205.82,1150.88 1207.8,1154.68 1209.79,1158.75 1211.77,1162.19 1213.76,1164.33 1215.74,1164.45 1217.73,1162.12 1219.71,1160.88 1221.69,1158.3 1223.68,1156.92 1225.66,1156.35 1227.65,1154.55 1229.63,1151.51 1231.62,1150.3 1233.6,1152.09 1235.59,1153.47 1237.57,1157.88 1239.55,1162.3 1241.54,1166.46 1243.52,1170.67 1245.51,1171.89 1247.49,1171.83 1249.48,1171.51 1251.46,1175.28 1253.45,1178.66 1255.43,1179.62 1257.41,1178.08 1259.4,1179.13 1261.38,1180.03 1263.37,1184.35 1265.35,1190.15 1267.34,1191.31 1269.32,1191.86 1271.31,1190.62 1273.29,1192.33 1275.27,1195 1277.26,1195.26 1279.24,1197.55 1281.23,1202.64 1283.21,1209.01 1285.2,1216.1 1287.18,1223.08 1289.17,1225.38 1291.15,1230.64 1293.13,1235.81 1295.12,1238.21 1297.1,1239.99 1299.09,1239.68 1301.07,1239.54 1303.06,1241.89 1305.04,1240.79 1307.03,1236.92 1309.01,1230.18 1310.99,1229.98 1312.98,1227.96 1314.96,1225.53 1316.95,1219.76 1318.93,1212.97 1320.92,1202.71 1322.9,1195.57 1324.88,1191.7 1326.87,1193.02 1328.85,1200.76 1330.84,1205.36 1332.82,1210.94 1334.81,1216.82 1336.79,1224.1 1338.78,1235.88 1340.76,1246.88 1342.74,1255.48 1344.73,1257.03 1346.71,1255.4 1348.7,1249.96 1350.68,1243.74 1352.67,1232.9 1354.65,1219.99 1356.64,1214.62 1358.62,1208.77 1360.6,1205.46 1362.59,1206.63 1364.57,1207.89 1366.56,1210.31 1368.54,1213.36 1370.53,1217.06 1372.51,1218.51 1374.5,1218.95 1376.48,1217.13 1378.46,1217.86 1380.45,1215.01 1382.43,1220.64 1384.42,1221.05 1386.4,1231.29 1388.39,1236.9 1390.37,1237.72 1392.36,1239.53 1394.34,1241.17 1396.32,1239.21 1398.31,1240.67 1400.29,1236.4 1402.28,1234.64 1404.26,1240.44 1406.25,1249.05 1408.23,1255.24 1410.22,1254.04 1412.2,1251.96 1414.18,1253.85 1416.17,1258.51 1418.15,1263.04 1420.14,1264.28 1422.12,1265.77 1424.11,1269.45 1426.09,1269.56 1428.07,1265.47 1430.06,1256.94 1432.04,1248.53 1434.03,1248.83 1436.01,1249.71 1438,1247.88 1439.98,1241.28 1441.97,1230.83 1443.95,1227.44 1445.93,1224.05 1447.92,1221.69 1449.9,1223.64 1451.89,1224.52 1453.87,1222.68 1455.86,1219.22 1457.84,1216.38 1459.83,1215.03 1461.81,1210.06 1463.79,1210.67 1465.78,1217.36 1467.76,1227.87 1469.75,1237.52 1471.73,1247.29 1473.72,1251.75 1475.7,1255.94 1477.69,1254.17 1479.67,1244.09 1481.65,1236.12 1483.64,1226.12 1485.62,1215.27 1487.61,1204.61 1489.59,1198.79 1491.58,1189.29 1493.56,1184.6 1495.55,1189.46 1497.53,1190.98 1499.51,1192.94 1501.5,1200.68 1503.48,1208.17 1505.47,1211.36 1507.45,1215.07 1509.44,1215.87 1511.42,1213.54 1513.4,1210.12 1515.39,1206.91 1517.37,1197.12 1519.36,1189.21 1521.34,1177.92 1523.33,1168.29 1525.31,1159.18 1527.3,1152.95 1529.28,1146.63 1531.26,1141.62 1533.25,1139.59 1535.23,1136.87 1537.22,1133.46 1539.2,1133.28 1541.19,1139.61 1543.17,1149 1545.16,1159.03 1547.14,1172.29 1549.12,1185.81 1551.11,1203.73 1553.09,1219.92 1555.08,1238.53 1557.06,1258.27 1559.05,1283.51 1561.03,1307.39 1563.02,1319.63 1565,1322.96 1566.98,1325.93 1568.97,1313.82 1570.95,1298.49 1572.94,1288.1 1574.92,1278.77 1576.91,1282.16 1578.89,1286.63 1580.88,1291.35 1582.86,1295.87 1584.84,1298.85 1586.83,1292.35 1588.81,1281.3 1590.8,1272.45 1592.78,1267.07 1594.77,1270.17 1596.75,1273.75 1598.74,1274.15 1600.72,1271.88 1602.7,1269.53 1604.69,1270.19 1606.67,1276.51 1608.66,1284.19 1610.64,1292.73 1612.63,1304.63 1614.61,1319.99 1616.59,1319.64 1618.58,1318.71 1620.56,1309.92 1622.55,1302.32 1624.53,1295.89 1626.52,1295.66 1628.5,1294.21 1630.49,1286.46 1632.47,1280.63 1634.45,1272.97 1636.44,1261.4 1638.42,1253.58 1640.41,1255.28 1642.39,1257.32 1644.38,1268.6 1646.36,1265.81 1648.35,1254.41 1650.33,1244.98 1652.31,1243.38 1654.3,1242.29 1656.28,1241.02 1658.27,1230.6 1660.25,1222.56 1662.24,1221.05 1664.22,1221.27 1666.21,1225.99 1668.19,1232.82 1670.17,1240.66 1672.16,1243.94 1674.14,1247.89 1676.13,1246.25 1678.11,1250.05 1680.1,1256.43 1682.08,1261.29 1684.07,1261.15 1686.05,1259.11 1688.03,1259.88 1690.02,1248.71 1692,1238.35 1693.99,1223.68 1695.97,1212.78 1697.96,1205.15 1699.94,1189.54 1701.93,1178.56 1703.91,1173.79 1705.89,1169.1 1707.88,1171.43 1709.86,1173.02 1711.85,1172.54 1713.83,1174.41 1715.82,1176.67 1717.8,1179.72 1719.78,1186.43 1721.77,1192.38 1723.75,1201.89 1725.74,1210.2 1727.72,1220.58 1729.71,1227.72 1731.69,1231.04 1733.68,1238.53 1735.66,1251.97 1737.64,1265.99 1739.63,1274.92 1741.61,1279.34 1743.6,1280.88 1745.58,1286.55 1747.57,1295.14 1749.55,1309.17 1751.54,1318.61 1753.52,1320.84 1755.5,1329.21 1757.49,1334.88 1759.47,1333.73 1761.46,1327.86 1763.44,1314 1765.43,1312.33 1767.41,1305.1 1769.4,1302.8 1771.38,1303.03 1773.36,1300.9 1775.35,1297.23 1777.33,1289.2 1779.32,1285.63 1781.3,1280.14 1783.29,1266.3 1785.27,1262.86 1787.26,1260.05 1789.24,1259.53 1791.22,1259.66 1793.21,1252.23 1795.19,1239.35 1797.18,1238.38 1799.16,1238.67 1801.15,1238.93 1803.13,1238.93 1805.11,1244.66 1807.1,1249.52 1809.08,1257.37 1811.07,1271.71 1813.05,1292.52 1815.04,1319.47 1817.02,1338.96 1819.01,1352.05 1820.99,1358.73 1822.97,1351.46 1824.96,1331.96 1826.94,1307.51 1828.93,1286 1830.91,1272.29 1832.9,1259.24 1834.88,1247.22 1836.87,1234.46 1838.85,1227.4 1840.83,1221.13 1842.82,1213.49 1844.8,1211.85 1846.79,1206.14 1848.77,1204.32 1850.76,1205 1852.74,1206.55 1854.73,1212.73 1856.71,1221.07 1858.69,1236.08 1860.68,1248.34 1862.66,1251.04 1864.65,1254.51 1866.63,1258.46 1868.62,1262.77 1870.6,1264.38 1872.59,1265.83 1874.57,1269.84 1876.55,1269.77 1878.54,1259.5 1880.52,1243.74 1882.51,1224.45 1884.49,1202.47 1886.48,1183.91 1888.46,1169.51 1890.45,1160.7 1892.43,1150.91 1894.41,1150.03 1896.4,1154.02 1898.38,1158.56 1900.37,1164.95 1902.35,1172.57 1904.34,1178.56 1906.32,1186.41 1908.3,1201.23 1910.29,1222.05 1912.27,1246.3 1914.26,1269.51 1916.24,1286.3 1918.23,1302.13 1920.21,1318.28 1922.2,1325.93 1924.18,1328.71 1926.16,1329.3 1928.15,1320.32 1930.13,1306.36 1932.12,1280.38 1934.1,1250.99 1936.09,1227.66 1938.07,1212.7 1940.06,1203.2 1942.04,1189.65 1944.02,1183.6 1946.01,1177.1 1947.99,1174.94 1949.98,1171.91 1951.96,1169.22 1953.95,1167.32 1955.93,1165.83 1957.92,1165.65 1959.9,1163.58 1961.88,1165.28 1963.87,1170.89 1965.85,1173.03 1967.84,1177.84 1969.82,1182.2 1971.81,1182.24 1973.79,1182.3 1975.78,1179.46 1977.76,1178.63 1979.74,1178.5 1981.73,1174.23 1983.71,1174.33 1985.7,1186.72 1987.68,1201.14 1989.67,1215.33 1991.65,1225.21 1993.64,1233.7 1995.62,1240.44 1997.6,1241.25 1999.59,1241.88 2001.57,1243.1 2003.56,1237.7 2005.54,1235.81 2007.53,1236.89 2009.51,1230.34 2011.49,1214.08 2013.48,1195.46 2015.46,1179.93 2017.45,1163.76 2019.43,1150.68 2021.42,1142.03 2023.4,1136.19 2025.39,1132.4 2027.37,1132 2029.35,1135.26 2031.34,1136.5 2033.32,1141.84 2035.31,1147.71 2037.29,1158.44 2039.28,1166.25 2041.26,1174.77 2043.25,1186.04 2045.23,1200.34 2047.21,1213.32 2049.2,1223.55 2051.18,1229.01 2053.17,1232.37 2055.15,1236.98 2057.14,1237.65 2059.12,1235.69 2061.11,1236.76 2063.09,1238.72 2065.07,1240.34 2067.06,1234.9 2069.04,1236.47 2071.03,1235.59 2073.01,1238.74 2075,1242.7 2076.98,1241.75 2078.97,1240.53 2080.95,1244.82 2082.93,1240 2084.92,1239.02 2086.9,1234.96 2088.89,1231.83 2090.87,1232.39 2092.86,1230.63 2094.84,1226.32 2096.83,1217.86 2098.81,1215.85 2100.79,1213.97 2102.78,1210.24 2104.76,1213.26 2106.75,1225.89 2108.73,1239.49 2110.72,1248.95 2112.7,1256.9 2114.68,1266.7 2116.67,1279.51 2118.65,1285.61 2120.64,1292.45 2122.62,1291.79 2124.61,1291.82 2126.59,1284.74 2128.58,1271.9 2130.56,1260.95 2132.54,1251.4 2134.53,1248.96 2136.51,1249.56 2138.5,1251.6 2140.48,1255.86 2142.47,1254.96 2144.45,1255.13 2146.44,1254.62 2148.42,1255.29 2150.4,1261.72 2152.39,1272.46 2154.37,1288.52 2156.36,1300.27 2158.34,1311.93 2160.33,1316.18 2162.31,1321.75 2164.3,1328.06 2166.28,1342.18 2168.26,1350.89 2170.25,1362.49 2172.23,1373.41 2174.22,1384.24 2176.2,1372.12 2178.19,1358.34 2180.17,1343.78 2182.16,1335.31 2184.14,1332.19 2186.12,1335.02 2188.11,1335.33 2190.09,1324.03 2192.08,1307.29 2194.06,1297.78 2196.05,1300.48 2198.03,1302.73 2200.01,1302.94 2202,1301.79 2203.98,1294.03 2205.97,1284.1 2207.95,1279.62 2209.94,1275.82 2211.92,1265.76 2213.91,1261.45 2215.89,1260.59 2217.87,1263.38 2219.86,1271.53 2221.84,1283.86 2223.83,1281.11 2225.81,1276.38 2227.8,1268.89 2229.78,1264.59 2231.77,1268.13 2233.75,1265.93 2235.73,1262.05 2237.72,1264.24 2239.7,1264.5 2241.69,1270.49 2243.67,1272.6 2245.66,1270.1 2247.64,1268.08 2249.63,1271.75 2251.61,1278.36 2253.59,1277 2255.58,1274.49 2257.56,1275.45 2259.55,1279.57 2261.53,1274.06 2263.52,1274.36 2265.5,1278.75 2267.49,1287.63 2269.47,1299.05 2271.45,1306.64 2273.44,1314.94 2275.42,1310.29 2277.41,1301.35 2279.39,1291.85 2281.38,1287.71 2283.36,1280.51 2285.35,1268.11 2287.33,1258.14 2289.31,1247.05 2291.3,1237.08 2293.28,1234.46 "/>
<path clip-path="url(#clip180)" d="M1738.01 248.629 L2282.71 248.629 L2282.71 93.1086 L1738.01 93.1086  Z" fill="#ffffff" fill-rule="evenodd" fill-opacity="1"/>
<polyline clip-path="url(#clip180)" style="stroke:#000000; stroke-linecap:round; stroke-linejoin:round; stroke-width:4; stroke-opacity:1; fill:none" points="1738.01,248.629 2282.71,248.629 2282.71,93.1086 1738.01,93.1086 1738.01,248.629 "/>
<polyline clip-path="url(#clip180)" style="stroke:#009af9; stroke-linecap:round; stroke-linejoin:round; stroke-width:4; stroke-opacity:1; fill:none" points="1761.36,144.949 1901.45,144.949 "/>
<path clip-path="url(#clip180)" d="M1929.48 145.724 L1929.48 158.386 L1936.98 158.386 Q1940.75 158.386 1942.56 156.835 Q1944.39 155.261 1944.39 152.043 Q1944.39 148.803 1942.56 147.275 Q1940.75 145.724 1936.98 145.724 L1929.48 145.724 M1929.48 131.511 L1929.48 141.928 L1936.4 141.928 Q1939.83 141.928 1941.49 140.655 Q1943.18 139.358 1943.18 136.719 Q1943.18 134.104 1941.49 132.807 Q1939.83 131.511 1936.4 131.511 L1929.48 131.511 M1924.8 127.669 L1936.75 127.669 Q1942.09 127.669 1944.99 129.891 Q1947.88 132.113 1947.88 136.21 Q1947.88 139.382 1946.4 141.257 Q1944.92 143.131 1942.05 143.594 Q1945.5 144.335 1947.4 146.696 Q1949.32 149.034 1949.32 152.553 Q1949.32 157.182 1946.17 159.705 Q1943.02 162.229 1937.21 162.229 L1924.8 162.229 L1924.8 127.669 Z" fill="#000000" fill-rule="nonzero" fill-opacity="1" /><path clip-path="url(#clip180)" d="M1962 145.724 L1962 158.386 L1969.5 158.386 Q1973.27 158.386 1975.08 156.835 Q1976.91 155.261 1976.91 152.043 Q1976.91 148.803 1975.08 147.275 Q1973.27 145.724 1969.5 145.724 L1962 145.724 M1962 131.511 L1962 141.928 L1968.92 141.928 Q1972.35 141.928 1974.02 140.655 Q1975.71 139.358 1975.71 136.719 Q1975.71 134.104 1974.02 132.807 Q1972.35 131.511 1968.92 131.511 L1962 131.511 M1957.33 127.669 L1969.27 127.669 Q1974.62 127.669 1977.51 129.891 Q1980.4 132.113 1980.4 136.21 Q1980.4 139.382 1978.92 141.257 Q1977.44 143.131 1974.57 143.594 Q1978.02 144.335 1979.92 146.696 Q1981.84 149.034 1981.84 152.553 Q1981.84 157.182 1978.69 159.705 Q1975.54 162.229 1969.73 162.229 L1957.33 162.229 L1957.33 127.669 Z" fill="#000000" fill-rule="nonzero" fill-opacity="1" /><path clip-path="url(#clip180)" d="M1997.3 162.229 L1984.11 127.669 L1988.99 127.669 L1999.94 156.766 L2010.91 127.669 L2015.77 127.669 L2002.6 162.229 L1997.3 162.229 Z" fill="#000000" fill-rule="nonzero" fill-opacity="1" /><path clip-path="url(#clip180)" d="M2020.82 127.669 L2025.5 127.669 L2025.5 162.229 L2020.82 162.229 L2020.82 127.669 Z" fill="#000000" fill-rule="nonzero" fill-opacity="1" /><path clip-path="url(#clip180)" d="M2075.75 130.331 L2075.75 135.261 Q2073.39 133.062 2070.7 131.974 Q2068.04 130.886 2065.03 130.886 Q2059.11 130.886 2055.96 134.52 Q2052.81 138.132 2052.81 144.983 Q2052.81 151.812 2055.96 155.446 Q2059.11 159.057 2065.03 159.057 Q2068.04 159.057 2070.7 157.969 Q2073.39 156.881 2075.75 154.682 L2075.75 159.567 Q2073.3 161.233 2070.54 162.067 Q2067.81 162.9 2064.76 162.9 Q2056.91 162.9 2052.39 158.108 Q2047.88 153.293 2047.88 144.983 Q2047.88 136.65 2052.39 131.858 Q2056.91 127.044 2064.76 127.044 Q2067.86 127.044 2070.59 127.877 Q2073.34 128.687 2075.75 130.331 Z" fill="#000000" fill-rule="nonzero" fill-opacity="1" /><path clip-path="url(#clip180)" d="M2082.97 127.669 L2102.83 127.669 L2102.83 131.604 L2087.65 131.604 L2087.65 141.789 L2101.35 141.789 L2101.35 145.724 L2087.65 145.724 L2087.65 162.229 L2082.97 162.229 L2082.97 127.669 Z" fill="#000000" fill-rule="nonzero" fill-opacity="1" /><path clip-path="url(#clip180)" d="M2110.24 127.669 L2132.09 127.669 L2132.09 131.604 L2114.92 131.604 L2114.92 141.835 L2131.38 141.835 L2131.38 145.77 L2114.92 145.77 L2114.92 158.293 L2132.51 158.293 L2132.51 162.229 L2110.24 162.229 L2110.24 127.669 Z" fill="#000000" fill-rule="nonzero" fill-opacity="1" /><polyline clip-path="url(#clip180)" style="stroke:#e26f46; stroke-linecap:round; stroke-linejoin:round; stroke-width:4; stroke-opacity:1; fill:none" points="1761.36,196.789 1901.45,196.789 "/>
<path clip-path="url(#clip180)" d="M1929.48 197.564 L1929.48 210.226 L1936.98 210.226 Q1940.75 210.226 1942.56 208.675 Q1944.39 207.101 1944.39 203.883 Q1944.39 200.643 1942.56 199.115 Q1940.75 197.564 1936.98 197.564 L1929.48 197.564 M1929.48 183.351 L1929.48 193.768 L1936.4 193.768 Q1939.83 193.768 1941.49 192.495 Q1943.18 191.198 1943.18 188.559 Q1943.18 185.944 1941.49 184.647 Q1939.83 183.351 1936.4 183.351 L1929.48 183.351 M1924.8 179.509 L1936.75 179.509 Q1942.09 179.509 1944.99 181.731 Q1947.88 183.953 1947.88 188.05 Q1947.88 191.222 1946.4 193.097 Q1944.92 194.971 1942.05 195.434 Q1945.5 196.175 1947.4 198.536 Q1949.32 200.874 1949.32 204.393 Q1949.32 209.022 1946.17 211.545 Q1943.02 214.069 1937.21 214.069 L1924.8 214.069 L1924.8 179.509 Z" fill="#000000" fill-rule="nonzero" fill-opacity="1" /><path clip-path="url(#clip180)" d="M1962 197.564 L1962 210.226 L1969.5 210.226 Q1973.27 210.226 1975.08 208.675 Q1976.91 207.101 1976.91 203.883 Q1976.91 200.643 1975.08 199.115 Q1973.27 197.564 1969.5 197.564 L1962 197.564 M1962 183.351 L1962 193.768 L1968.92 193.768 Q1972.35 193.768 1974.02 192.495 Q1975.71 191.198 1975.71 188.559 Q1975.71 185.944 1974.02 184.647 Q1972.35 183.351 1968.92 183.351 L1962 183.351 M1957.33 179.509 L1969.27 179.509 Q1974.62 179.509 1977.51 181.731 Q1980.4 183.953 1980.4 188.05 Q1980.4 191.222 1978.92 193.097 Q1977.44 194.971 1974.57 195.434 Q1978.02 196.175 1979.92 198.536 Q1981.84 200.874 1981.84 204.393 Q1981.84 209.022 1978.69 211.545 Q1975.54 214.069 1969.73 214.069 L1957.33 214.069 L1957.33 179.509 Z" fill="#000000" fill-rule="nonzero" fill-opacity="1" /><path clip-path="url(#clip180)" d="M1997.3 214.069 L1984.11 179.509 L1988.99 179.509 L1999.94 208.606 L2010.91 179.509 L2015.77 179.509 L2002.6 214.069 L1997.3 214.069 Z" fill="#000000" fill-rule="nonzero" fill-opacity="1" /><path clip-path="url(#clip180)" d="M2020.82 179.509 L2025.5 179.509 L2025.5 214.069 L2020.82 214.069 L2020.82 179.509 Z" fill="#000000" fill-rule="nonzero" fill-opacity="1" /><path clip-path="url(#clip180)" d="M2075.75 182.171 L2075.75 187.101 Q2073.39 184.902 2070.7 183.814 Q2068.04 182.726 2065.03 182.726 Q2059.11 182.726 2055.96 186.36 Q2052.81 189.972 2052.81 196.823 Q2052.81 203.652 2055.96 207.286 Q2059.11 210.897 2065.03 210.897 Q2068.04 210.897 2070.7 209.809 Q2073.39 208.721 2075.75 206.522 L2075.75 211.407 Q2073.3 213.073 2070.54 213.907 Q2067.81 214.74 2064.76 214.74 Q2056.91 214.74 2052.39 209.948 Q2047.88 205.133 2047.88 196.823 Q2047.88 188.49 2052.39 183.698 Q2056.91 178.884 2064.76 178.884 Q2067.86 178.884 2070.59 179.717 Q2073.34 180.527 2075.75 182.171 Z" fill="#000000" fill-rule="nonzero" fill-opacity="1" /><path clip-path="url(#clip180)" d="M2082.97 179.509 L2102.83 179.509 L2102.83 183.444 L2087.65 183.444 L2087.65 193.629 L2101.35 193.629 L2101.35 197.564 L2087.65 197.564 L2087.65 214.069 L2082.97 214.069 L2082.97 179.509 Z" fill="#000000" fill-rule="nonzero" fill-opacity="1" /><path clip-path="url(#clip180)" d="M2110.24 179.509 L2132.09 179.509 L2132.09 183.444 L2114.92 183.444 L2114.92 193.675 L2131.38 193.675 L2131.38 197.61 L2114.92 197.61 L2114.92 210.133 L2132.51 210.133 L2132.51 214.069 L2110.24 214.069 L2110.24 179.509 Z" fill="#000000" fill-rule="nonzero" fill-opacity="1" /><path clip-path="url(#clip180)" d="M2169.29 182.68 Q2164.2 182.68 2161.19 186.476 Q2158.2 190.272 2158.2 196.823 Q2158.2 203.351 2161.19 207.147 Q2164.2 210.944 2169.29 210.944 Q2174.38 210.944 2177.35 207.147 Q2180.33 203.351 2180.33 196.823 Q2180.33 190.272 2177.35 186.476 Q2174.38 182.68 2169.29 182.68 M2175.84 213.444 L2182 220.18 L2176.35 220.18 L2171.24 214.647 Q2170.47 214.694 2170.06 214.717 Q2169.66 214.74 2169.29 214.74 Q2162 214.74 2157.63 209.879 Q2153.27 204.995 2153.27 196.823 Q2153.27 188.629 2157.63 183.768 Q2162 178.884 2169.29 178.884 Q2176.56 178.884 2180.91 183.768 Q2185.26 188.629 2185.26 196.823 Q2185.26 202.842 2182.83 207.124 Q2180.43 211.407 2175.84 213.444 Z" fill="#000000" fill-rule="nonzero" fill-opacity="1" /><path clip-path="url(#clip180)" d="M2192.58 179.509 L2199.55 179.509 L2208.37 203.027 L2217.23 179.509 L2224.2 179.509 L2224.2 214.069 L2219.64 214.069 L2219.64 183.722 L2210.73 207.425 L2206.03 207.425 L2197.12 183.722 L2197.12 214.069 L2192.58 214.069 L2192.58 179.509 Z" fill="#000000" fill-rule="nonzero" fill-opacity="1" /><path clip-path="url(#clip180)" d="M2259.36 182.171 L2259.36 187.101 Q2257 184.902 2254.31 183.814 Q2251.65 182.726 2248.64 182.726 Q2242.72 182.726 2239.57 186.36 Q2236.42 189.972 2236.42 196.823 Q2236.42 203.652 2239.57 207.286 Q2242.72 210.897 2248.64 210.897 Q2251.65 210.897 2254.31 209.809 Q2257 208.721 2259.36 206.522 L2259.36 211.407 Q2256.91 213.073 2254.15 213.907 Q2251.42 214.74 2248.37 214.74 Q2240.52 214.74 2236 209.948 Q2231.49 205.133 2231.49 196.823 Q2231.49 188.49 2236 183.698 Q2240.52 178.884 2248.37 178.884 Q2251.47 178.884 2254.2 179.717 Q2256.95 180.527 2259.36 182.171 Z" fill="#000000" fill-rule="nonzero" fill-opacity="1" /></svg>
