<?xml version="1.0" encoding="utf-8"?>
<svg xmlns="http://www.w3.org/2000/svg" xmlns:xlink="http://www.w3.org/1999/xlink" width="600" height="400" viewBox="0 0 2400 1600">
<defs>
  <clipPath id="clip850">
    <rect x="0" y="0" width="2400" height="1600"/>
  </clipPath>
</defs>
<path clip-path="url(#clip850)" d="M0 1600 L2400 1600 L2400 0 L0 0  Z" fill="#ffffff" fill-rule="evenodd" fill-opacity="1"/>
<defs>
  <clipPath id="clip851">
    <rect x="480" y="0" width="1681" height="1600"/>
  </clipPath>
</defs>
<path clip-path="url(#clip850)" d="M242.135 1423.18 L2352.76 1423.18 L2352.76 47.2441 L242.135 47.2441  Z" fill="#ffffff" fill-rule="evenodd" fill-opacity="1"/>
<defs>
  <clipPath id="clip852">
    <rect x="242" y="47" width="2112" height="1377"/>
  </clipPath>
</defs>
<polyline clip-path="url(#clip852)" style="stroke:#000000; stroke-linecap:round; stroke-linejoin:round; stroke-width:2; stroke-opacity:0.1; fill:none" points="301.205,1423.18 301.205,47.2441 "/>
<polyline clip-path="url(#clip852)" style="stroke:#000000; stroke-linecap:round; stroke-linejoin:round; stroke-width:2; stroke-opacity:0.1; fill:none" points="965.144,1423.18 965.144,47.2441 "/>
<polyline clip-path="url(#clip852)" style="stroke:#000000; stroke-linecap:round; stroke-linejoin:round; stroke-width:2; stroke-opacity:0.1; fill:none" points="1629.08,1423.18 1629.08,47.2441 "/>
<polyline clip-path="url(#clip852)" style="stroke:#000000; stroke-linecap:round; stroke-linejoin:round; stroke-width:2; stroke-opacity:0.1; fill:none" points="2293.02,1423.18 2293.02,47.2441 "/>
<polyline clip-path="url(#clip852)" style="stroke:#000000; stroke-linecap:round; stroke-linejoin:round; stroke-width:2; stroke-opacity:0.1; fill:none" points="242.135,1423.18 2352.76,1423.18 "/>
<polyline clip-path="url(#clip852)" style="stroke:#000000; stroke-linecap:round; stroke-linejoin:round; stroke-width:2; stroke-opacity:0.1; fill:none" points="242.135,1051.19 2352.76,1051.19 "/>
<polyline clip-path="url(#clip852)" style="stroke:#000000; stroke-linecap:round; stroke-linejoin:round; stroke-width:2; stroke-opacity:0.1; fill:none" points="242.135,679.206 2352.76,679.206 "/>
<polyline clip-path="url(#clip852)" style="stroke:#000000; stroke-linecap:round; stroke-linejoin:round; stroke-width:2; stroke-opacity:0.1; fill:none" points="242.135,307.219 2352.76,307.219 "/>
<polyline clip-path="url(#clip850)" style="stroke:#000000; stroke-linecap:round; stroke-linejoin:round; stroke-width:4; stroke-opacity:1; fill:none" points="242.135,1423.18 2352.76,1423.18 "/>
<polyline clip-path="url(#clip850)" style="stroke:#000000; stroke-linecap:round; stroke-linejoin:round; stroke-width:4; stroke-opacity:1; fill:none" points="301.205,1423.18 301.205,1404.28 "/>
<polyline clip-path="url(#clip850)" style="stroke:#000000; stroke-linecap:round; stroke-linejoin:round; stroke-width:4; stroke-opacity:1; fill:none" points="965.144,1423.18 965.144,1404.28 "/>
<polyline clip-path="url(#clip850)" style="stroke:#000000; stroke-linecap:round; stroke-linejoin:round; stroke-width:4; stroke-opacity:1; fill:none" points="1629.08,1423.18 1629.08,1404.28 "/>
<polyline clip-path="url(#clip850)" style="stroke:#000000; stroke-linecap:round; stroke-linejoin:round; stroke-width:4; stroke-opacity:1; fill:none" points="2293.02,1423.18 2293.02,1404.28 "/>
<path clip-path="url(#clip850)" d="M301.205 1454.1 Q297.594 1454.1 295.766 1457.66 Q293.96 1461.2 293.96 1468.33 Q293.96 1475.44 295.766 1479.01 Q297.594 1482.55 301.205 1482.55 Q304.84 1482.55 306.645 1479.01 Q308.474 1475.44 308.474 1468.33 Q308.474 1461.2 306.645 1457.66 Q304.84 1454.1 301.205 1454.1 M301.205 1450.39 Q307.015 1450.39 310.071 1455 Q313.15 1459.58 313.15 1468.33 Q313.15 1477.06 310.071 1481.67 Q307.015 1486.25 301.205 1486.25 Q295.395 1486.25 292.316 1481.67 Q289.261 1477.06 289.261 1468.33 Q289.261 1459.58 292.316 1455 Q295.395 1450.39 301.205 1450.39 Z" fill="#000000" fill-rule="nonzero" fill-opacity="1" /><path clip-path="url(#clip850)" d="M909.67 1481.64 L917.309 1481.64 L917.309 1455.28 L908.998 1456.95 L908.998 1452.69 L917.262 1451.02 L921.938 1451.02 L921.938 1481.64 L929.577 1481.64 L929.577 1485.58 L909.67 1485.58 L909.67 1481.64 Z" fill="#000000" fill-rule="nonzero" fill-opacity="1" /><path clip-path="url(#clip850)" d="M949.021 1454.1 Q945.41 1454.1 943.582 1457.66 Q941.776 1461.2 941.776 1468.33 Q941.776 1475.44 943.582 1479.01 Q945.41 1482.55 949.021 1482.55 Q952.656 1482.55 954.461 1479.01 Q956.29 1475.44 956.29 1468.33 Q956.29 1461.2 954.461 1457.66 Q952.656 1454.1 949.021 1454.1 M949.021 1450.39 Q954.832 1450.39 957.887 1455 Q960.966 1459.58 960.966 1468.33 Q960.966 1477.06 957.887 1481.67 Q954.832 1486.25 949.021 1486.25 Q943.211 1486.25 940.133 1481.67 Q937.077 1477.06 937.077 1468.33 Q937.077 1459.58 940.133 1455 Q943.211 1450.39 949.021 1450.39 Z" fill="#000000" fill-rule="nonzero" fill-opacity="1" /><path clip-path="url(#clip850)" d="M979.183 1454.1 Q975.572 1454.1 973.743 1457.66 Q971.938 1461.2 971.938 1468.33 Q971.938 1475.44 973.743 1479.01 Q975.572 1482.55 979.183 1482.55 Q982.817 1482.55 984.623 1479.01 Q986.452 1475.44 986.452 1468.33 Q986.452 1461.2 984.623 1457.66 Q982.817 1454.1 979.183 1454.1 M979.183 1450.39 Q984.993 1450.39 988.049 1455 Q991.128 1459.58 991.128 1468.33 Q991.128 1477.06 988.049 1481.67 Q984.993 1486.25 979.183 1486.25 Q973.373 1486.25 970.294 1481.67 Q967.239 1477.06 967.239 1468.33 Q967.239 1459.58 970.294 1455 Q973.373 1450.39 979.183 1450.39 Z" fill="#000000" fill-rule="nonzero" fill-opacity="1" /><path clip-path="url(#clip850)" d="M1009.35 1454.1 Q1005.73 1454.1 1003.91 1457.66 Q1002.1 1461.2 1002.1 1468.33 Q1002.1 1475.44 1003.91 1479.01 Q1005.73 1482.55 1009.35 1482.55 Q1012.98 1482.55 1014.78 1479.01 Q1016.61 1475.44 1016.61 1468.33 Q1016.61 1461.2 1014.78 1457.66 Q1012.98 1454.1 1009.35 1454.1 M1009.35 1450.39 Q1015.16 1450.39 1018.21 1455 Q1021.29 1459.58 1021.29 1468.33 Q1021.29 1477.06 1018.21 1481.67 Q1015.16 1486.25 1009.35 1486.25 Q1003.53 1486.25 1000.46 1481.67 Q997.401 1477.06 997.401 1468.33 Q997.401 1459.58 1000.46 1455 Q1003.53 1450.39 1009.35 1450.39 Z" fill="#000000" fill-rule="nonzero" fill-opacity="1" /><path clip-path="url(#clip850)" d="M1577.69 1481.64 L1594.01 1481.64 L1594.01 1485.58 L1572.07 1485.58 L1572.07 1481.64 Q1574.73 1478.89 1579.31 1474.26 Q1583.92 1469.61 1585.1 1468.27 Q1587.35 1465.74 1588.23 1464.01 Q1589.13 1462.25 1589.13 1460.56 Q1589.13 1457.8 1587.18 1456.07 Q1585.26 1454.33 1582.16 1454.33 Q1579.96 1454.33 1577.51 1455.09 Q1575.08 1455.86 1572.3 1457.41 L1572.3 1452.69 Q1575.12 1451.55 1577.58 1450.97 Q1580.03 1450.39 1582.07 1450.39 Q1587.44 1450.39 1590.63 1453.08 Q1593.83 1455.77 1593.83 1460.26 Q1593.83 1462.39 1593.02 1464.31 Q1592.23 1466.2 1590.12 1468.8 Q1589.55 1469.47 1586.44 1472.69 Q1583.34 1475.88 1577.69 1481.64 Z" fill="#000000" fill-rule="nonzero" fill-opacity="1" /><path clip-path="url(#clip850)" d="M1613.83 1454.1 Q1610.22 1454.1 1608.39 1457.66 Q1606.58 1461.2 1606.58 1468.33 Q1606.58 1475.44 1608.39 1479.01 Q1610.22 1482.55 1613.83 1482.55 Q1617.46 1482.55 1619.27 1479.01 Q1621.1 1475.44 1621.1 1468.33 Q1621.1 1461.2 1619.27 1457.66 Q1617.46 1454.1 1613.83 1454.1 M1613.83 1450.39 Q1619.64 1450.39 1622.69 1455 Q1625.77 1459.58 1625.77 1468.33 Q1625.77 1477.06 1622.69 1481.67 Q1619.64 1486.25 1613.83 1486.25 Q1608.02 1486.25 1604.94 1481.67 Q1601.88 1477.06 1601.88 1468.33 Q1601.88 1459.58 1604.94 1455 Q1608.02 1450.39 1613.83 1450.39 Z" fill="#000000" fill-rule="nonzero" fill-opacity="1" /><path clip-path="url(#clip850)" d="M1643.99 1454.1 Q1640.38 1454.1 1638.55 1457.66 Q1636.74 1461.2 1636.74 1468.33 Q1636.74 1475.44 1638.55 1479.01 Q1640.38 1482.55 1643.99 1482.55 Q1647.62 1482.55 1649.43 1479.01 Q1651.26 1475.44 1651.26 1468.33 Q1651.26 1461.2 1649.43 1457.66 Q1647.62 1454.1 1643.99 1454.1 M1643.99 1450.39 Q1649.8 1450.39 1652.86 1455 Q1655.93 1459.58 1655.93 1468.33 Q1655.93 1477.06 1652.86 1481.67 Q1649.8 1486.25 1643.99 1486.25 Q1638.18 1486.25 1635.1 1481.67 Q1632.05 1477.06 1632.05 1468.33 Q1632.05 1459.58 1635.1 1455 Q1638.18 1450.39 1643.99 1450.39 Z" fill="#000000" fill-rule="nonzero" fill-opacity="1" /><path clip-path="url(#clip850)" d="M1674.15 1454.1 Q1670.54 1454.1 1668.71 1457.66 Q1666.91 1461.2 1666.91 1468.33 Q1666.91 1475.44 1668.71 1479.01 Q1670.54 1482.55 1674.15 1482.55 Q1677.79 1482.55 1679.59 1479.01 Q1681.42 1475.44 1681.42 1468.33 Q1681.42 1461.2 1679.59 1457.66 Q1677.79 1454.1 1674.15 1454.1 M1674.15 1450.39 Q1679.96 1450.39 1683.02 1455 Q1686.1 1459.58 1686.1 1468.33 Q1686.1 1477.06 1683.02 1481.67 Q1679.96 1486.25 1674.15 1486.25 Q1668.34 1486.25 1665.26 1481.67 Q1662.21 1477.06 1662.21 1468.33 Q1662.21 1459.58 1665.26 1455 Q1668.34 1450.39 1674.15 1450.39 Z" fill="#000000" fill-rule="nonzero" fill-opacity="1" /><path clip-path="url(#clip850)" d="M2251.7 1466.95 Q2255.06 1467.66 2256.93 1469.93 Q2258.83 1472.2 2258.83 1475.53 Q2258.83 1480.65 2255.31 1483.45 Q2251.79 1486.25 2245.31 1486.25 Q2243.14 1486.25 2240.82 1485.81 Q2238.53 1485.39 2236.08 1484.54 L2236.08 1480.02 Q2238.02 1481.16 2240.34 1481.74 Q2242.65 1482.32 2245.17 1482.32 Q2249.57 1482.32 2251.86 1480.58 Q2254.18 1478.84 2254.18 1475.53 Q2254.18 1472.48 2252.03 1470.77 Q2249.9 1469.03 2246.08 1469.03 L2242.05 1469.03 L2242.05 1465.19 L2246.26 1465.19 Q2249.71 1465.19 2251.54 1463.82 Q2253.37 1462.43 2253.37 1459.84 Q2253.37 1457.18 2251.47 1455.77 Q2249.6 1454.33 2246.08 1454.33 Q2244.16 1454.33 2241.96 1454.75 Q2239.76 1455.16 2237.12 1456.04 L2237.12 1451.88 Q2239.78 1451.14 2242.1 1450.77 Q2244.43 1450.39 2246.49 1450.39 Q2251.82 1450.39 2254.92 1452.83 Q2258.02 1455.23 2258.02 1459.35 Q2258.02 1462.22 2256.38 1464.21 Q2254.73 1466.18 2251.7 1466.95 Z" fill="#000000" fill-rule="nonzero" fill-opacity="1" /><path clip-path="url(#clip850)" d="M2277.7 1454.1 Q2274.09 1454.1 2272.26 1457.66 Q2270.45 1461.2 2270.45 1468.33 Q2270.45 1475.44 2272.26 1479.01 Q2274.09 1482.55 2277.7 1482.55 Q2281.33 1482.55 2283.14 1479.01 Q2284.97 1475.44 2284.97 1468.33 Q2284.97 1461.2 2283.14 1457.66 Q2281.33 1454.1 2277.7 1454.1 M2277.7 1450.39 Q2283.51 1450.39 2286.56 1455 Q2289.64 1459.58 2289.64 1468.33 Q2289.64 1477.06 2286.56 1481.67 Q2283.51 1486.25 2277.7 1486.25 Q2271.89 1486.25 2268.81 1481.67 Q2265.75 1477.06 2265.75 1468.33 Q2265.75 1459.58 2268.81 1455 Q2271.89 1450.39 2277.7 1450.39 Z" fill="#000000" fill-rule="nonzero" fill-opacity="1" /><path clip-path="url(#clip850)" d="M2307.86 1454.1 Q2304.25 1454.1 2302.42 1457.66 Q2300.61 1461.2 2300.61 1468.33 Q2300.61 1475.44 2302.42 1479.01 Q2304.25 1482.55 2307.86 1482.55 Q2311.49 1482.55 2313.3 1479.01 Q2315.13 1475.44 2315.13 1468.33 Q2315.13 1461.2 2313.3 1457.66 Q2311.49 1454.1 2307.86 1454.1 M2307.86 1450.39 Q2313.67 1450.39 2316.72 1455 Q2319.8 1459.58 2319.8 1468.33 Q2319.8 1477.06 2316.72 1481.67 Q2313.67 1486.25 2307.86 1486.25 Q2302.05 1486.25 2298.97 1481.67 Q2295.91 1477.06 2295.91 1468.33 Q2295.91 1459.58 2298.97 1455 Q2302.05 1450.39 2307.86 1450.39 Z" fill="#000000" fill-rule="nonzero" fill-opacity="1" /><path clip-path="url(#clip850)" d="M2338.02 1454.1 Q2334.41 1454.1 2332.58 1457.66 Q2330.78 1461.2 2330.78 1468.33 Q2330.78 1475.44 2332.58 1479.01 Q2334.41 1482.55 2338.02 1482.55 Q2341.66 1482.55 2343.46 1479.01 Q2345.29 1475.44 2345.29 1468.33 Q2345.29 1461.2 2343.46 1457.66 Q2341.66 1454.1 2338.02 1454.1 M2338.02 1450.39 Q2343.83 1450.39 2346.89 1455 Q2349.97 1459.58 2349.97 1468.33 Q2349.97 1477.06 2346.89 1481.67 Q2343.83 1486.25 2338.02 1486.25 Q2332.21 1486.25 2329.13 1481.67 Q2326.08 1477.06 2326.08 1468.33 Q2326.08 1459.58 2329.13 1455 Q2332.21 1450.39 2338.02 1450.39 Z" fill="#000000" fill-rule="nonzero" fill-opacity="1" /><path clip-path="url(#clip850)" d="M1165.17 1520.52 L1171.6 1520.52 L1171.6 1568.04 L1165.17 1568.04 L1165.17 1520.52 Z" fill="#000000" fill-rule="nonzero" fill-opacity="1" /><path clip-path="url(#clip850)" d="M1189.93 1522.27 L1189.93 1532.4 L1201.99 1532.4 L1201.99 1536.95 L1189.93 1536.95 L1189.93 1556.3 Q1189.93 1560.66 1191.11 1561.9 Q1192.32 1563.14 1195.98 1563.14 L1201.99 1563.14 L1201.99 1568.04 L1195.98 1568.04 Q1189.2 1568.04 1186.62 1565.53 Q1184.04 1562.98 1184.04 1556.3 L1184.04 1536.95 L1179.74 1536.95 L1179.74 1532.4 L1184.04 1532.4 L1184.04 1522.27 L1189.93 1522.27 Z" fill="#000000" fill-rule="nonzero" fill-opacity="1" /><path clip-path="url(#clip850)" d="M1240.19 1548.76 L1240.19 1551.62 L1213.26 1551.62 Q1213.64 1557.67 1216.89 1560.85 Q1220.17 1564 1225.99 1564 Q1229.36 1564 1232.52 1563.17 Q1235.7 1562.35 1238.82 1560.69 L1238.82 1566.23 Q1235.67 1567.57 1232.36 1568.27 Q1229.05 1568.97 1225.64 1568.97 Q1217.11 1568.97 1212.11 1564 Q1207.15 1559.04 1207.15 1550.57 Q1207.15 1541.82 1211.86 1536.69 Q1216.6 1531.54 1224.62 1531.54 Q1231.81 1531.54 1235.98 1536.18 Q1240.19 1540.8 1240.19 1548.76 M1234.33 1547.04 Q1234.27 1542.23 1231.62 1539.37 Q1229.01 1536.5 1224.69 1536.5 Q1219.78 1536.5 1216.82 1539.27 Q1213.9 1542.04 1213.45 1547.07 L1234.33 1547.04 Z" fill="#000000" fill-rule="nonzero" fill-opacity="1" /><path clip-path="url(#clip850)" d="M1270.45 1537.87 Q1269.47 1537.3 1268.29 1537.04 Q1267.14 1536.76 1265.74 1536.76 Q1260.78 1536.76 1258.11 1540 Q1255.46 1543.22 1255.46 1549.27 L1255.46 1568.04 L1249.58 1568.04 L1249.58 1532.4 L1255.46 1532.4 L1255.46 1537.93 Q1257.31 1534.69 1260.27 1533.13 Q1263.23 1531.54 1267.46 1531.54 Q1268.07 1531.54 1268.8 1531.63 Q1269.53 1531.7 1270.42 1531.85 L1270.45 1537.87 Z" fill="#000000" fill-rule="nonzero" fill-opacity="1" /><path clip-path="url(#clip850)" d="M1292.8 1550.12 Q1285.7 1550.12 1282.96 1551.75 Q1280.23 1553.37 1280.23 1557.29 Q1280.23 1560.4 1282.26 1562.25 Q1284.33 1564.07 1287.86 1564.07 Q1292.73 1564.07 1295.66 1560.63 Q1298.62 1557.16 1298.62 1551.43 L1298.62 1550.12 L1292.8 1550.12 M1304.48 1547.71 L1304.48 1568.04 L1298.62 1568.04 L1298.62 1562.63 Q1296.62 1565.88 1293.63 1567.44 Q1290.63 1568.97 1286.31 1568.97 Q1280.83 1568.97 1277.58 1565.91 Q1274.37 1562.82 1274.37 1557.67 Q1274.37 1551.65 1278.38 1548.6 Q1282.42 1545.54 1290.41 1545.54 L1298.62 1545.54 L1298.62 1544.97 Q1298.62 1540.93 1295.95 1538.73 Q1293.31 1536.5 1288.5 1536.5 Q1285.45 1536.5 1282.55 1537.23 Q1279.65 1537.97 1276.98 1539.43 L1276.98 1534.02 Q1280.19 1532.78 1283.22 1532.17 Q1286.24 1531.54 1289.11 1531.54 Q1296.84 1531.54 1300.66 1535.55 Q1304.48 1539.56 1304.48 1547.71 Z" fill="#000000" fill-rule="nonzero" fill-opacity="1" /><path clip-path="url(#clip850)" d="M1322.34 1522.27 L1322.34 1532.4 L1334.4 1532.4 L1334.4 1536.95 L1322.34 1536.95 L1322.34 1556.3 Q1322.34 1560.66 1323.51 1561.9 Q1324.72 1563.14 1328.38 1563.14 L1334.4 1563.14 L1334.4 1568.04 L1328.38 1568.04 Q1321.6 1568.04 1319.03 1565.53 Q1316.45 1562.98 1316.45 1556.3 L1316.45 1536.95 L1312.15 1536.95 L1312.15 1532.4 L1316.45 1532.4 L1316.45 1522.27 L1322.34 1522.27 Z" fill="#000000" fill-rule="nonzero" fill-opacity="1" /><path clip-path="url(#clip850)" d="M1342.1 1532.4 L1347.96 1532.4 L1347.96 1568.04 L1342.1 1568.04 L1342.1 1532.4 M1342.1 1518.52 L1347.96 1518.52 L1347.96 1525.93 L1342.1 1525.93 L1342.1 1518.52 Z" fill="#000000" fill-rule="nonzero" fill-opacity="1" /><path clip-path="url(#clip850)" d="M1374.02 1536.5 Q1369.31 1536.5 1366.58 1540.19 Q1363.84 1543.85 1363.84 1550.25 Q1363.84 1556.65 1366.55 1560.34 Q1369.28 1564 1374.02 1564 Q1378.7 1564 1381.44 1560.31 Q1384.18 1556.62 1384.18 1550.25 Q1384.18 1543.92 1381.44 1540.23 Q1378.7 1536.5 1374.02 1536.5 M1374.02 1531.54 Q1381.66 1531.54 1386.02 1536.5 Q1390.38 1541.47 1390.38 1550.25 Q1390.38 1559 1386.02 1564 Q1381.66 1568.97 1374.02 1568.97 Q1366.35 1568.97 1361.99 1564 Q1357.66 1559 1357.66 1550.25 Q1357.66 1541.47 1361.99 1536.5 Q1366.35 1531.54 1374.02 1531.54 Z" fill="#000000" fill-rule="nonzero" fill-opacity="1" /><path clip-path="url(#clip850)" d="M1429.72 1546.53 L1429.72 1568.04 L1423.87 1568.04 L1423.87 1546.72 Q1423.87 1541.66 1421.89 1539.14 Q1419.92 1536.63 1415.97 1536.63 Q1411.23 1536.63 1408.5 1539.65 Q1405.76 1542.68 1405.76 1547.9 L1405.76 1568.04 L1399.87 1568.04 L1399.87 1532.4 L1405.76 1532.4 L1405.76 1537.93 Q1407.86 1534.72 1410.69 1533.13 Q1413.56 1531.54 1417.28 1531.54 Q1423.42 1531.54 1426.57 1535.36 Q1429.72 1539.14 1429.72 1546.53 Z" fill="#000000" fill-rule="nonzero" fill-opacity="1" /><polyline clip-path="url(#clip850)" style="stroke:#000000; stroke-linecap:round; stroke-linejoin:round; stroke-width:4; stroke-opacity:1; fill:none" points="242.135,1423.18 242.135,47.2441 "/>
<polyline clip-path="url(#clip850)" style="stroke:#000000; stroke-linecap:round; stroke-linejoin:round; stroke-width:4; stroke-opacity:1; fill:none" points="242.135,1423.18 261.032,1423.18 "/>
<polyline clip-path="url(#clip850)" style="stroke:#000000; stroke-linecap:round; stroke-linejoin:round; stroke-width:4; stroke-opacity:1; fill:none" points="242.135,1051.19 261.032,1051.19 "/>
<polyline clip-path="url(#clip850)" style="stroke:#000000; stroke-linecap:round; stroke-linejoin:round; stroke-width:4; stroke-opacity:1; fill:none" points="242.135,679.206 261.032,679.206 "/>
<polyline clip-path="url(#clip850)" style="stroke:#000000; stroke-linecap:round; stroke-linejoin:round; stroke-width:4; stroke-opacity:1; fill:none" points="242.135,307.219 261.032,307.219 "/>
<path clip-path="url(#clip850)" d="M114.26 1423.63 L143.936 1423.63 L143.936 1427.57 L114.26 1427.57 L114.26 1423.63 Z" fill="#000000" fill-rule="nonzero" fill-opacity="1" /><path clip-path="url(#clip850)" d="M154.839 1436.52 L162.477 1436.52 L162.477 1410.16 L154.167 1411.83 L154.167 1407.57 L162.431 1405.9 L167.107 1405.9 L167.107 1436.52 L174.746 1436.52 L174.746 1440.46 L154.839 1440.46 L154.839 1436.52 Z" fill="#000000" fill-rule="nonzero" fill-opacity="1" /><path clip-path="url(#clip850)" d="M194.19 1408.98 Q190.579 1408.98 188.75 1412.54 Q186.945 1416.08 186.945 1423.21 Q186.945 1430.32 188.75 1433.89 Q190.579 1437.43 194.19 1437.43 Q197.825 1437.43 199.63 1433.89 Q201.459 1430.32 201.459 1423.21 Q201.459 1416.08 199.63 1412.54 Q197.825 1408.98 194.19 1408.98 M194.19 1405.27 Q200 1405.27 203.056 1409.88 Q206.135 1414.46 206.135 1423.21 Q206.135 1431.94 203.056 1436.55 Q200 1441.13 194.19 1441.13 Q188.38 1441.13 185.301 1436.55 Q182.246 1431.94 182.246 1423.21 Q182.246 1414.46 185.301 1409.88 Q188.38 1405.27 194.19 1405.27 Z" fill="#000000" fill-rule="nonzero" fill-opacity="1" /><path clip-path="url(#clip850)" d="M144.515 1051.64 L174.19 1051.64 L174.19 1055.58 L144.515 1055.58 L144.515 1051.64 Z" fill="#000000" fill-rule="nonzero" fill-opacity="1" /><path clip-path="url(#clip850)" d="M194.283 1052.06 Q190.95 1052.06 189.028 1053.84 Q187.13 1055.63 187.13 1058.75 Q187.13 1061.88 189.028 1063.66 Q190.95 1065.44 194.283 1065.44 Q197.616 1065.44 199.537 1063.66 Q201.459 1061.85 201.459 1058.75 Q201.459 1055.63 199.537 1053.84 Q197.639 1052.06 194.283 1052.06 M189.607 1050.07 Q186.598 1049.33 184.908 1047.27 Q183.241 1045.21 183.241 1042.25 Q183.241 1038.1 186.181 1035.7 Q189.144 1033.29 194.283 1033.29 Q199.445 1033.29 202.385 1035.7 Q205.324 1038.1 205.324 1042.25 Q205.324 1045.21 203.635 1047.27 Q201.968 1049.33 198.982 1050.07 Q202.362 1050.86 204.237 1053.15 Q206.135 1055.44 206.135 1058.75 Q206.135 1063.77 203.056 1066.46 Q200 1069.14 194.283 1069.14 Q188.565 1069.14 185.487 1066.46 Q182.431 1063.77 182.431 1058.75 Q182.431 1055.44 184.329 1053.15 Q186.227 1050.86 189.607 1050.07 M187.894 1042.69 Q187.894 1045.37 189.561 1046.88 Q191.25 1048.38 194.283 1048.38 Q197.292 1048.38 198.982 1046.88 Q200.695 1045.37 200.695 1042.69 Q200.695 1040 198.982 1038.5 Q197.292 1036.99 194.283 1036.99 Q191.25 1036.99 189.561 1038.5 Q187.894 1040 187.894 1042.69 Z" fill="#000000" fill-rule="nonzero" fill-opacity="1" /><path clip-path="url(#clip850)" d="M144.26 679.658 L173.936 679.658 L173.936 683.593 L144.26 683.593 L144.26 679.658 Z" fill="#000000" fill-rule="nonzero" fill-opacity="1" /><path clip-path="url(#clip850)" d="M194.607 677.343 Q191.459 677.343 189.607 679.496 Q187.778 681.648 187.778 685.398 Q187.778 689.125 189.607 691.301 Q191.459 693.454 194.607 693.454 Q197.755 693.454 199.584 691.301 Q201.436 689.125 201.436 685.398 Q201.436 681.648 199.584 679.496 Q197.755 677.343 194.607 677.343 M203.889 662.69 L203.889 666.949 Q202.13 666.116 200.325 665.676 Q198.542 665.236 196.783 665.236 Q192.153 665.236 189.7 668.361 Q187.269 671.486 186.922 677.806 Q188.288 675.792 190.348 674.727 Q192.408 673.639 194.885 673.639 Q200.093 673.639 203.102 676.81 Q206.135 679.959 206.135 685.398 Q206.135 690.722 202.987 693.94 Q199.838 697.157 194.607 697.157 Q188.612 697.157 185.44 692.574 Q182.269 687.968 182.269 679.241 Q182.269 671.047 186.158 666.185 Q190.047 661.301 196.598 661.301 Q198.357 661.301 200.139 661.648 Q201.945 661.996 203.889 662.69 Z" fill="#000000" fill-rule="nonzero" fill-opacity="1" /><path clip-path="url(#clip850)" d="M143.936 307.671 L173.612 307.671 L173.612 311.606 L143.936 311.606 L143.936 307.671 Z" fill="#000000" fill-rule="nonzero" fill-opacity="1" /><path clip-path="url(#clip850)" d="M196.551 294.013 L184.746 312.462 L196.551 312.462 L196.551 294.013 M195.325 289.939 L201.204 289.939 L201.204 312.462 L206.135 312.462 L206.135 316.351 L201.204 316.351 L201.204 324.499 L196.551 324.499 L196.551 316.351 L180.95 316.351 L180.95 311.837 L195.325 289.939 Z" fill="#000000" fill-rule="nonzero" fill-opacity="1" /><path clip-path="url(#clip850)" d="M16.4842 816.375 L16.4842 786.329 L21.895 786.329 L21.895 809.945 L35.9632 809.945 L35.9632 787.315 L41.3741 787.315 L41.3741 809.945 L58.5933 809.945 L58.5933 785.756 L64.0042 785.756 L64.0042 816.375 L16.4842 816.375 Z" fill="#000000" fill-rule="nonzero" fill-opacity="1" /><path clip-path="url(#clip850)" d="M16.4842 775.189 L16.4842 768.759 L58.5933 768.759 L58.5933 745.62 L64.0042 745.62 L64.0042 775.189 L16.4842 775.189 Z" fill="#000000" fill-rule="nonzero" fill-opacity="1" /><path clip-path="url(#clip850)" d="M41.3104 732.443 L58.7206 732.443 L58.7206 722.13 Q58.7206 716.942 56.5881 714.46 Q54.4238 711.945 49.9996 711.945 Q45.5436 711.945 43.4429 714.46 Q41.3104 716.942 41.3104 722.13 L41.3104 732.443 M21.7677 732.443 L36.0905 732.443 L36.0905 722.926 Q36.0905 718.216 34.34 715.924 Q32.5576 713.6 28.9291 713.6 Q25.3325 713.6 23.5501 715.924 Q21.7677 718.216 21.7677 722.926 L21.7677 732.443 M16.4842 738.872 L16.4842 722.449 Q16.4842 715.096 19.5397 711.118 Q22.5952 707.139 28.2289 707.139 Q32.5894 707.139 35.1675 709.176 Q37.7456 711.213 38.3822 715.16 Q39.4007 710.418 42.6472 707.808 Q45.8619 705.166 50.6998 705.166 Q57.0655 705.166 60.5348 709.495 Q64.0042 713.823 64.0042 721.812 L64.0042 738.872 L16.4842 738.872 Z" fill="#000000" fill-rule="nonzero" fill-opacity="1" /><path clip-path="url(#clip850)" d="M20.8447 676.011 Q20.8447 683.013 26.0645 687.151 Q31.2844 691.257 40.2919 691.257 Q49.2675 691.257 54.4874 687.151 Q59.7073 683.013 59.7073 676.011 Q59.7073 669.009 54.4874 664.935 Q49.2675 660.829 40.2919 660.829 Q31.2844 660.829 26.0645 664.935 Q20.8447 669.009 20.8447 676.011 M15.6248 676.011 Q15.6248 666.017 22.3406 660.033 Q29.0246 654.049 40.2919 654.049 Q51.5274 654.049 58.2432 660.033 Q64.9272 666.017 64.9272 676.011 Q64.9272 686.037 58.2432 692.052 Q51.5592 698.036 40.2919 698.036 Q29.0246 698.036 22.3406 692.052 Q15.6248 686.037 15.6248 676.011 Z" fill="#000000" fill-rule="nonzero" fill-opacity="1" /><polyline clip-path="url(#clip852)" style="stroke:#009af9; stroke-linecap:round; stroke-linejoin:round; stroke-width:4; stroke-opacity:1; fill:none" points="301.869,1078.98 302.533,1300.27 303.197,778.67 303.861,1942.02 304.525,1152.77 305.189,1145.94 305.853,762.357 306.517,834.116 307.181,913.23 307.845,4614.99 308.509,962.872 309.173,5018.92 309.836,817.154 310.5,1166.38 311.164,1151.29 311.828,1051.68 312.492,843.807 313.156,3093.59 313.82,896.033 314.484,893.853 315.148,1086.2 315.812,1769.65 316.476,1526.08 317.14,558.958 317.804,469.971 318.468,879.639 319.132,749.307 319.796,1213.06 320.46,920.606 321.123,804.575 321.787,1055.98 322.451,542.671 323.115,46547.4 323.779,1133.8 324.443,1064.47 325.107,1346.05 325.771,891.512 326.435,929.336 327.099,1185.64 327.763,1079.91 328.427,1091.64 329.091,868.255 329.755,874.413 330.419,962.996 331.083,758.563 331.746,1056.47 332.41,1448.7 333.074,1104.2 333.738,1873.86 334.402,723.253 335.066,5011.73 335.73,1425.33 336.394,1305.17 337.058,982.621 337.722,766.682 338.386,54576.7 339.05,988.346 339.714,3336.62 340.378,792.333 341.042,3058.65 341.706,2060.12 342.369,649.121 343.033,1109.46 343.697,974.115 344.361,1157.54 345.025,972.1 345.689,978.151 346.353,968.738 347.017,573.924 347.681,2033.76 348.345,895.941 349.009,960.331 349.673,2866.75 350.337,40818.3 351.001,1551.23 351.665,967.08 352.329,818.26 352.993,709.852 353.656,1164.77 354.32,4383.24 354.984,1879.07 355.648,10893 356.312,1120.38 356.976,749.13 357.64,776.612 358.304,956.929 358.968,1177.14 359.632,964.473 360.296,760.075 360.96,1008.45 361.624,961.753 362.288,922.937 362.952,937.145 363.616,948.412 364.279,1100.01 364.943,1445.28 365.607,2575.3 366.271,4866.4 366.935,1170.34 367.599,1627.74 368.263,882.773 368.927,1246.83 369.591,935.432 370.255,961.168 370.919,572.776 371.583,950.532 372.247,2850.41 372.911,1334.3 373.575,1293.28 374.239,1139.3 374.902,905.962 375.566,871.76 376.23,883.766 376.894,986.512 377.558,631.301 378.222,1107.39 378.886,1538.46 379.55,570.491 380.214,900.834 380.878,1134.04 381.542,1076.92 382.206,1258.59 382.87,727.47 383.534,1125.57 384.198,1083.27 384.862,1653.53 385.526,653.315 386.189,739.455 386.853,5018.01 387.517,921.13 388.181,715.884 388.845,902.372 389.509,1238.27 390.173,1200.54 390.837,882.748 391.501,2510.26 392.165,1291.48 392.829,1309.22 393.493,1280.11 394.157,728.865 394.821,3519.16 395.485,3182.51 396.149,1062.31 396.812,957.856 397.476,873.822 398.14,1466.14 398.804,737.417 399.468,4634.03 400.132,836.781 400.796,966.055 401.46,1398.11 402.124,1132.06 402.788,2988.49 403.452,1183.03 404.116,785.93 404.78,1582.26 405.444,1054.64 406.108,2018.57 406.772,1492.19 407.435,1297.06 408.099,1435.11 408.763,1023.64 409.427,1559.19 410.091,908.083 410.755,1260.47 411.419,1429.2 412.083,1545.31 412.747,838.447 413.411,954.946 414.075,1741.83 414.739,1104.52 415.403,762.718 416.067,947.143 416.731,1591.13 417.395,6615.33 418.058,1074.77 418.722,986.523 419.386,1142.31 420.05,949.27 420.714,1083.73 421.378,820.56 422.042,798.045 422.706,880.153 423.37,791.465 424.034,917.765 424.698,1562.89 425.362,934.653 426.026,947.379 426.69,1212.26 427.354,2366.37 428.018,1091.09 428.682,612.011 429.345,5931.33 430.009,1249.86 430.673,1678.3 431.337,1979.54 432.001,985.262 432.665,1149.74 433.329,1336.41 433.993,1290.57 434.657,1276.8 435.321,1244.75 435.985,2270.99 436.649,848.613 437.313,1498.13 437.977,819.411 438.641,903.427 439.305,877.244 439.968,513.549 440.632,1112.08 441.296,1211.55 441.96,1125.16 442.624,774.815 443.288,1132.29 443.952,2724.54 444.616,924.728 445.28,861.323 445.944,1340.22 446.608,1494.92 447.272,1206.46 447.936,1165.23 448.6,1122.98 449.264,797.975 449.928,693.06 450.591,2302.02 451.255,24240.9 451.919,1271.4 452.583,984.285 453.247,904.491 453.911,652.101 454.575,1467.42 455.239,796.836 455.903,681.5 456.567,693.085 457.231,1897.28 457.895,1246.66 458.559,883.646 459.223,834.639 459.887,1175.4 460.551,764.039 461.215,795.915 461.878,1245.86 462.542,764.07 463.206,821.5 463.87,865.529 464.534,1139.74 465.198,1023.42 465.862,1094.15 466.526,935.78 467.19,1104.26 467.854,1173.04 468.518,627.58 469.182,1029.53 469.846,1156.91 470.51,948.261 471.174,821.458 471.838,929.083 472.501,985.714 473.165,960.439 473.829,765.891 474.493,752.455 475.157,1179.45 475.821,1356.84 476.485,840.86 477.149,1162.07 477.813,1217.89 478.477,1139.99 479.141,1866.89 479.805,608.884 480.469,708.092 481.133,1541.81 481.797,814.414 482.461,1773.08 483.124,805.924 483.788,1229.78 484.452,796.908 485.116,1275.64 485.78,594.758 486.444,2584.33 487.108,1020.94 487.772,926.904 488.436,1197.82 489.1,4395.31 489.764,3328.47 490.428,848.234 491.092,890.527 491.756,1214.36 492.42,1036.67 493.084,885.026 493.748,801.736 494.411,1158.61 495.075,691.441 495.739,824.382 496.403,1499.81 497.067,919.325 497.731,772.723 498.395,1150.43 499.059,1193.18 499.723,959.027 500.387,1006.09 501.051,848.596 501.715,5898.14 502.379,739.071 503.043,1135.07 503.707,980.245 504.371,652.85 505.034,1536.3 505.698,1376.16 506.362,860.274 507.026,1073.5 507.69,975.326 508.354,897.642 509.018,912.79 509.682,1087.77 510.346,855.745 511.01,737.244 511.674,916.887 512.338,1312.3 513.002,1000.98 513.666,808.291 514.33,852.356 514.994,1142.99 515.657,1178.34 516.321,1045.2 516.985,920.425 517.649,754.963 518.313,3893.75 518.977,1448.19 519.641,870.008 520.305,649.597 520.969,1240.19 521.633,784.769 522.297,939.385 522.961,1074.18 523.625,580.611 524.289,933.241 524.953,948.628 525.617,1030.1 526.281,768.801 526.944,1089.68 527.608,1161.1 528.272,747.321 528.936,934.425 529.6,799.405 530.264,647.197 530.928,1357.28 531.592,1244.39 532.256,964.824 532.92,6822.47 533.584,811.621 534.248,916.106 534.912,1083.5 535.576,889.076 536.24,1125.87 536.904,937.317 537.567,1203.29 538.231,1362.56 538.895,787.014 539.559,1143.64 540.223,846.597 540.887,918.833 541.551,717.046 542.215,1134.51 542.879,661.841 543.543,945.249 544.207,821.514 544.871,674.379 545.535,885.093 546.199,1739.55 546.863,695.518 547.527,970.266 548.19,890.078 548.854,774.083 549.518,1296.28 550.182,1028.52 550.846,926.13 551.51,798.828 552.174,960.164 552.838,1768.8 553.502,973.811 554.166,998.823 554.83,1041.61 555.494,846.553 556.158,1094.27 556.822,908.91 557.486,963.506 558.15,579.117 558.813,1086.29 559.477,855.861 560.141,734.139 560.805,967.035 561.469,1002.96 562.133,813.822 562.797,904.79 563.461,1069.32 564.125,1001.14 564.789,908.523 565.453,744.974 566.117,1039.2 566.781,1002.03 567.445,697.577 568.109,1002.59 568.773,1060.38 569.437,761.211 570.1,968.073 570.764,937.416 571.428,827.772 572.092,764.673 572.756,780.756 573.42,813.793 574.084,969.268 574.748,1010.58 575.412,956.908 576.076,935.231 576.74,1031.63 577.404,1131.03 578.068,1042.07 578.732,856.557 579.396,1052.37 580.06,934.932 580.723,728.711 581.387,433.811 582.051,658.973 582.715,789.931 583.379,855.74 584.043,730.671 584.707,701.35 585.371,4079.68 586.035,1079.19 586.699,824.877 587.363,928.554 588.027,743.198 588.691,974.623 589.355,911.737 590.019,865.78 590.683,971.835 591.346,762.553 592.01,585.602 592.674,967.216 593.338,875.805 594.002,814.084 594.666,678.805 595.33,911.763 595.994,869.054 596.658,642.082 597.322,954.061 597.986,674.699 598.65,772.533 599.314,834.591 599.978,1064.25 600.642,426.147 601.306,636.257 601.97,641.663 602.633,647.105 603.297,566.663 603.961,935.666 604.625,696.423 605.289,492.005 605.953,797.098 606.617,577.478 607.281,537.824 607.945,863.56 608.609,850.32 609.273,681.657 609.937,672.104 610.601,743.881 611.265,994.658 611.929,782.198 612.593,575.965 613.256,896.153 613.92,701.859 614.584,551.19 615.248,688.341 615.912,1146.73 616.576,891.015 617.24,701.843 617.904,817.268 618.568,764.908 619.232,814.481 619.896,697.777 620.56,719.087 621.224,782.154 621.888,676.565 622.552,478.326 623.216,818.89 623.879,931.376 624.543,903.742 625.207,445.708 625.871,872.775 626.535,774.203 627.199,770.812 627.863,740.259 628.527,827.508 629.191,792.575 629.855,447.984 630.519,614.797 631.183,818.702 631.847,848.432 632.511,870.531 633.175,869.285 633.839,890.192 634.503,822 635.166,785.371 635.83,636.632 636.494,871.193 637.158,745.854 637.822,715.925 638.486,844.486 639.15,618.616 639.814,511.882 640.478,511.454 641.142,634.822 641.806,974.039 642.47,946.098 643.134,622.036 643.798,607.176 644.462,585.817 645.126,813.319 645.789,341.893 646.453,399.423 647.117,647.254 647.781,518.407 648.445,411.702 649.109,935.771 649.773,588.072 650.437,391.614 651.101,736.331 651.765,702.032 652.429,527.815 653.093,826.363 653.757,564.458 654.421,635.801 655.085,723.803 655.749,539.907 656.412,694.658 657.076,732.204 657.74,655.109 658.404,675.391 659.068,582.811 659.732,595.186 660.396,569.771 661.06,466.3 661.724,469.996 662.388,679.54 663.052,483.775 663.716,566.972 664.38,341.86 665.044,470.553 665.708,454.544 666.372,357.13 667.036,684.849 667.699,473.967 668.363,120.564 669.027,479.651 669.691,521.273 670.355,619.62 671.019,441.232 671.683,619.6 672.347,341.426 673.011,470.524 673.675,453.869 674.339,764.39 675.003,300.201 675.667,600.644 676.331,494.41 676.995,623.517 677.659,426.626 678.322,501.075 678.986,710.987 679.65,540.641 680.314,397.732 680.978,645.823 681.642,268.763 682.306,7829.92 682.97,880.422 683.634,753.033 684.298,1049.53 684.962,832.569 685.626,718.52 686.29,555.638 686.954,526.431 687.618,680.227 688.282,1197.75 688.945,504.987 689.609,586.832 690.273,831.975 690.937,679.772 691.601,785.837 692.265,685.359 692.929,413.574 693.593,511.243 694.257,1590.19 694.921,954.827 695.585,807.699 696.249,674.446 696.913,499.633 697.577,1182.87 698.241,489.905 698.905,558.067 699.569,592.145 700.232,467.09 700.896,397.632 701.56,698.075 702.224,551.6 702.888,492.942 703.552,510.204 704.216,461.699 704.88,627.157 705.544,474.756 706.208,490.034 706.872,411.19 707.536,536.541 708.2,563.487 708.864,555.879 709.528,553.431 710.192,635.968 710.855,627.89 711.519,391.992 712.183,523.527 712.847,752.647 713.511,403.591 714.175,539.472 714.839,703.033 715.503,389.847 716.167,685.501 716.831,383.096 717.495,647.29 718.159,503.884 718.823,761.142 719.487,357.43 720.151,665.796 720.815,432.281 721.478,426.425 722.142,768.736 722.806,499.315 723.47,484.189 724.134,451.565 724.798,440.05 725.462,629.825 726.126,826.827 726.79,367.126 727.454,678.207 728.118,395.873 728.782,508.78 729.446,408.318 730.11,389.722 730.774,497.188 731.438,552.59 732.101,252.956 732.765,400.121 733.429,206.98 734.093,472.553 734.757,539.316 735.421,397.865 736.085,522.35 736.749,326.736 737.413,506.847 738.077,277.657 738.741,634.775 739.405,204.226 740.069,313.355 740.733,519.081 741.397,639.904 742.061,353.788 742.725,452.361 743.388,483.337 744.052,575.851 744.716,568.361 745.38,502.475 746.044,540.331 746.708,242.504 747.372,271.226 748.036,251.226 748.7,397.073 749.364,437.188 750.028,350.088 750.692,430.844 751.356,532.258 752.02,518.718 752.684,143.141 753.348,258.513 754.011,316.176 754.675,480.673 755.339,395.013 756.003,338.59 756.667,136.415 757.331,437.69 757.995,467.451 758.659,418.678 759.323,184.129 759.987,339.311 760.651,349.742 761.315,285.312 761.979,362.494 762.643,257.946 763.307,368.304 763.971,390.129 764.634,387.075 765.298,407.593 765.962,188.794 766.626,424.895 767.29,422.076 767.954,290.637 768.618,416.756 769.282,272.692 769.946,369.652 770.61,402.538 771.274,441.855 771.938,266.189 772.602,375.861 773.266,448.015 773.93,534.297 774.594,338.125 775.258,452.313 775.921,394.219 776.585,689.315 777.249,421.623 777.913,282.802 778.577,284.549 779.241,423.933 779.905,342.263 780.569,264.637 781.233,345.977 781.897,299.826 782.561,351.472 783.225,361.845 783.889,334.542 784.553,398.044 785.217,308.322 785.881,306.442 786.544,430.02 787.208,475.36 787.872,415.492 788.536,556.468 789.2,422.606 789.864,377.923 790.528,319.868 791.192,519.506 791.856,531.114 792.52,509.84 793.184,344.391 793.848,303.014 794.512,294.195 795.176,454.388 795.84,446.243 796.504,296.949 797.167,493.253 797.831,209.274 798.495,342.133 799.159,450.31 799.823,426.909 800.487,341.36 801.151,314.716 801.815,359.784 802.479,309.434 803.143,498.734 803.807,315.835 804.471,637.977 805.135,293.789 805.799,342.294 806.463,343.13 807.127,394.81 807.791,441.409 808.454,480.411 809.118,305.019 809.782,372.545 810.446,248.524 811.11,288.07 811.774,478.166 812.438,398.718 813.102,381.596 813.766,313.833 814.43,402.894 815.094,363.917 815.758,237.568 816.422,282.735 817.086,382.157 817.75,350.663 818.414,417.535 819.077,318.304 819.741,334.698 820.405,219.225 821.069,312.43 821.733,438.676 822.397,340.007 823.061,259.821 823.725,325.431 824.389,375.257 825.053,383.264 825.717,204.14 826.381,285.667 827.045,361.046 827.709,150.271 828.373,400.014 829.037,259.615 829.7,298.272 830.364,425.583 831.028,379.213 831.692,173.498 832.356,264.604 833.02,513.206 833.684,374.621 834.348,248.551 835.012,288.503 835.676,485.1 836.34,245.821 837.004,277.946 837.668,261.654 838.332,290.288 838.996,192.475 839.66,137.51 840.324,320.069 840.987,422.371 841.651,266.991 842.315,229.125 842.979,372.471 843.643,207.898 844.307,199.212 844.971,907.708 845.635,190.058 846.299,330.857 846.963,372.528 847.627,371.561 848.291,351.726 848.955,264.59 849.619,233.42 850.283,328.866 850.947,388.479 851.61,231.637 852.274,287.387 852.938,277.954 853.602,433.556 854.266,322.314 854.93,166.855 855.594,344.789 856.258,334.312 856.922,242.322 857.586,314.234 858.25,226.409 858.914,357.024 859.578,242.379 860.242,368.927 860.906,387.149 861.57,379.832 862.233,415.899 862.897,318.67 863.561,367.887 864.225,253.166 864.889,302.393 865.553,359.848 866.217,306.468 866.881,270.712 867.545,296.31 868.209,268.981 868.873,308.629 869.537,287.655 870.201,456.098 870.865,247.814 871.529,247.017 872.193,225.568 872.856,233.339 873.52,269.474 874.184,322.67 874.848,232.778 875.512,345.585 876.176,284.087 876.84,350.55 877.504,273.025 878.168,198.182 878.832,188.107 879.496,295.806 880.16,312.472 880.824,162.594 881.488,288.902 882.152,369.962 882.816,165.545 883.48,355.503 884.143,348.673 884.807,379.179 885.471,145.083 886.135,182.441 886.799,330.362 887.463,275.101 888.127,260.69 888.791,329.369 889.455,251.753 890.119,303.029 890.783,251.353 891.447,238.821 892.111,278.186 892.775,266.488 893.439,285.206 894.103,254.836 894.766,276.567 895.43,378.147 896.094,200.558 896.758,202.354 897.422,275.03 898.086,263.253 898.75,221.454 899.414,331.478 900.078,182.383 900.742,160.616 901.406,223.689 902.07,236.675 902.734,324.213 903.398,346.766 904.062,219.536 904.726,323.494 905.389,271.693 906.053,176.491 906.717,322.496 907.381,294.875 908.045,283.769 908.709,264.88 909.373,277.803 910.037,295.454 910.701,238.943 911.365,252.401 912.029,265.567 912.693,284.825 913.357,228.657 914.021,331.945 914.685,264.111 915.349,178.778 916.013,340.832 916.676,189.752 917.34,276.299 918.004,326.6 918.668,194.384 919.332,198.185 919.996,337.755 920.66,225.124 921.324,281.746 921.988,432.691 922.652,175.744 923.316,397.396 923.98,178.894 924.644,236.434 925.308,286.796 925.972,161.879 926.636,241.977 927.299,270.889 927.963,138.044 928.627,307.639 929.291,47.2441 929.955,260.171 930.619,263.617 931.283,278.768 931.947,213.884 932.611,261.331 933.275,166.952 933.939,212.429 934.603,278.803 935.267,234.888 935.931,224.412 936.595,263.54 937.259,257.488 937.922,235.823 938.586,208.292 939.25,248.716 939.914,233.609 940.578,462.741 941.242,340.638 941.906,270.459 942.57,221.274 943.234,194.756 943.898,288.712 944.562,248.629 945.226,289.053 945.89,249.92 946.554,305.701 947.218,245.365 947.882,198.594 948.546,219.232 949.209,214.844 949.873,191.751 950.537,231.982 951.201,253.525 951.865,203.871 952.529,233.645 953.193,332.488 953.857,319.641 954.521,327.278 955.185,284.006 955.849,135.893 956.513,240.922 957.177,259.581 957.841,234.228 958.505,300.445 959.169,247.682 959.832,219.815 960.496,175.757 961.16,278.393 961.824,225.25 962.488,257.866 963.152,229.209 963.816,271.668 964.48,248.325 965.144,278.172 965.808,287.357 966.472,208.371 967.136,236.386 967.8,195.627 968.464,239.521 969.128,183.064 969.792,238.729 970.455,199.583 971.119,259.687 971.783,227.403 972.447,114.915 973.111,257.016 973.775,248.2 974.439,259.239 975.103,199.094 975.767,335.102 976.431,254.757 977.095,249.639 977.759,175.004 978.423,235.978 979.087,300.446 979.751,223.57 980.415,325.521 981.079,208 981.742,257.652 982.406,240.436 983.07,204.905 983.734,266.433 984.398,202.502 985.062,189.199 985.726,245.77 986.39,267.453 987.054,282.738 987.718,241.943 988.382,271.382 989.046,208.321 989.71,286.367 990.374,282.385 991.038,168.572 991.702,213.212 992.365,274.492 993.029,230.852 993.693,143.882 994.357,314.117 995.021,153.636 995.685,172.57 996.349,340.712 997.013,357.45 997.677,260.285 998.341,248.643 999.005,190.899 999.669,274.709 1000.33,484.25 1001,207.253 1001.66,215.362 1002.32,255.313 1002.99,270.906 1003.65,224.449 1004.32,217.009 1004.98,199.498 1005.64,231.176 1006.31,186.987 1006.97,169.23 1007.64,223.72 1008.3,267.548 1008.96,210.716 1009.63,197.626 1010.29,212.53 1010.96,255.567 1011.62,301.912 1012.28,276.941 1012.95,204.351 1013.61,188.883 1014.28,195.994 1014.94,177.239 1015.6,213.312 1016.27,245.278 1016.93,219.216 1017.6,278.809 1018.26,224.447 1018.92,272.278 1019.59,201.309 1020.25,218.298 1020.91,211.808 1021.58,178.523 1022.24,180.512 1022.91,213.968 1023.57,235.235 1024.23,247.544 1024.9,200.966 1025.56,246.652 1026.23,261.715 1026.89,216.322 1027.55,220.068 1028.22,233.272 1028.88,226.006 1029.55,190.35 1030.21,229.359 1030.87,202.59 1031.54,191.397 1032.2,243.84 1032.87,235.965 1033.53,249.645 1034.19,245.462 1034.86,251.02 1035.52,178.816 1036.19,254.37 1036.85,244.111 1037.51,274.132 1038.18,203.186 1038.84,177.623 1039.51,195.522 1040.17,167.903 1040.83,215.412 1041.5,175.545 1042.16,235.626 1042.82,274.461 1043.49,215.759 1044.15,264.71 1044.82,229.373 1045.48,163.99 1046.14,199.351 1046.81,242.197 1047.47,229.967 1048.14,232.315 1048.8,260.884 1049.46,218.628 1050.13,221.07 1050.79,230.906 1051.46,166.727 1052.12,204.96 1052.78,259.918 1053.45,224.982 1054.11,219.559 1054.78,206.352 1055.44,212.796 1056.1,208.466 1056.77,150.498 1057.43,862.482 1058.1,277.386 1058.76,198.212 1059.42,160.501 1060.09,179.471 1060.75,233.641 1061.42,218.929 1062.08,256.256 1062.74,219.686 1063.41,275.771 1064.07,231.349 1064.73,211.202 1065.4,208.588 1066.06,259.817 1066.73,236.539 1067.39,217.522 1068.05,206.363 1068.72,276.879 1069.38,383.538 1070.05,216.724 1070.71,209.416 1071.37,296.194 1072.04,217.13 1072.7,270.372 1073.37,242.437 1074.03,176.868 1074.69,298.229 1075.36,278.8 1076.02,272.638 1076.69,226.404 1077.35,248.346 1078.01,217.178 1078.68,230.62 1079.34,277.421 1080.01,203.474 1080.67,212.94 1081.33,195.928 1082,243.977 1082.66,246.932 1083.33,336.008 1083.99,243.359 1084.65,371.193 1085.32,250.731 1085.98,241.233 1086.64,174.862 1087.31,135.672 1087.97,185.779 1088.64,267.497 1089.3,261.318 1089.96,255.482 1090.63,219.084 1091.29,237.029 1091.96,159.353 1092.62,240.101 1093.28,209.943 1093.95,267.093 1094.61,266.939 1095.28,212.984 1095.94,172.989 1096.6,186.682 1097.27,136.284 1097.93,199.303 1098.6,215.475 1099.26,223.638 1099.92,246.778 1100.59,178.158 1101.25,277.979 1101.92,225.34 1102.58,191.042 1103.24,228.699 1103.91,250.92 1104.57,262.877 1105.24,379.814 1105.9,209.3 1106.56,245.501 1107.23,168.907 1107.89,197.53 1108.55,227.933 1109.22,197.865 1109.88,220.711 1110.55,101.771 1111.21,106.946 1111.87,325.179 1112.54,354.787 1113.2,218.127 1113.87,219.703 1114.53,238.453 1115.19,190.685 1115.86,233.533 1116.52,169.75 1117.19,217.542 1117.85,247.248 1118.51,270.979 1119.18,164.421 1119.84,208.472 1120.51,200.129 1121.17,125.563 1121.83,206.181 1122.5,236.613 1123.16,254.711 1123.83,202.95 1124.49,218.198 1125.15,298.588 1125.82,164.438 1126.48,228.721 1127.15,211.889 1127.81,236.417 1128.47,122.422 1129.14,388.956 1129.8,180.489 1130.46,286.284 1131.13,216.2 1131.79,225.286 1132.46,220.209 1133.12,191.017 1133.78,239.32 1134.45,156.611 1135.11,316.688 1135.78,674.43 1136.44,649.315 1137.1,549.24 1137.77,155.681 1138.43,381.293 1139.1,284.705 1139.76,217.807 1140.42,140.645 1141.09,194.474 1141.75,163.642 1142.42,196.775 1143.08,223.315 1143.74,224.062 1144.41,245.157 1145.07,220.937 1145.74,174.773 1146.4,204.098 1147.06,119.578 1147.73,202.19 1148.39,518.493 1149.05,364.655 1149.72,261.922 1150.38,176.14 1151.05,186.006 1151.71,227.486 1152.37,174.499 1153.04,215.135 1153.7,201.316 1154.37,235.739 1155.03,220.474 1155.69,186.096 1156.36,286.885 1157.02,248.196 1157.69,223.164 1158.35,217.638 1159.01,188.407 1159.68,192.024 1160.34,165.601 1161.01,251.698 1161.67,229.599 1162.33,171.03 1163,209.666 1163.66,223.05 1164.33,209.333 1164.99,145.013 1165.65,241.628 1166.32,231.211 1166.98,188.282 1167.65,120.259 1168.31,235.341 1168.97,224.541 1169.64,286.503 1170.3,253.409 1170.96,156.787 1171.63,188.435 1172.29,225.382 1172.96,174.191 1173.62,189.029 1174.28,214.908 1174.95,825.422 1175.61,326.944 1176.28,386.723 1176.94,206.169 1177.6,215.508 1178.27,277.342 1178.93,240.49 1179.6,265.213 1180.26,201.292 1180.92,217.238 1181.59,303.801 1182.25,234.588 1182.92,226.276 1183.58,181.277 1184.24,222.924 1184.91,254.082 1185.57,193.552 1186.24,212.266 1186.9,252.296 1187.56,219.635 1188.23,191.891 1188.89,218.355 1189.56,234.822 1190.22,223.843 1190.88,203.117 1191.55,199.456 1192.21,242.465 1192.87,185.962 1193.54,187.473 1194.2,187.414 1194.87,136.703 1195.53,225.993 1196.19,216.127 1196.86,243.611 1197.52,216.635 1198.19,207.752 1198.85,215.722 1199.51,165.926 1200.18,219.672 1200.84,218.983 1201.51,292.301 1202.17,142.842 1202.83,185.945 1203.5,200.753 1204.16,214.296 1204.83,206.285 1205.49,272.897 1206.15,213.911 1206.82,270.665 1207.48,206.305 1208.15,166.573 1208.81,247.836 1209.47,182.826 1210.14,191.952 1210.8,177.17 1211.47,207.999 1212.13,316.097 1212.79,204.234 1213.46,218.277 1214.12,242.99 1214.78,242.142 1215.45,194.099 1216.11,112.859 1216.78,244.543 1217.44,189.444 1218.1,258.854 1218.77,177.57 1219.43,199.183 1220.1,273.439 1220.76,222.563 1221.42,205.062 1222.09,208.426 1222.75,226.993 1223.42,216.363 1224.08,185.5 1224.74,104.095 1225.41,243.637 1226.07,202.78 1226.74,210.396 1227.4,224.984 1228.06,202.713 1228.73,184.083 1229.39,154.869 1230.06,134.57 1230.72,326.078 1231.38,215.969 1232.05,187.388 1232.71,116.254 1233.38,174.424 1234.04,188.752 1234.7,189.784 1235.37,167.644 1236.03,257.708 1236.69,134.857 1237.36,197.51 1238.02,196.293 1238.69,227.484 1239.35,271.513 1240.01,233.786 1240.68,227.865 1241.34,224.188 1242.01,103.227 1242.67,1127.59 1243.33,227.635 1244,166.542 1244.66,250.041 1245.33,194.501 1245.99,212.507 1246.65,200.567 1247.32,238.274 1247.98,178.091 1248.65,166.431 1249.31,231.06 1249.97,195.88 1250.64,203.92 1251.3,222.482 1251.97,148.596 1252.63,184.111 1253.29,237.699 1253.96,198.924 1254.62,242.378 1255.29,208.377 1255.95,179.413 1256.61,199.062 1257.28,176.886 1257.94,220.606 1258.6,142.092 1259.27,240.182 1259.93,188.719 1260.6,360.092 1261.26,163.723 1261.92,193.076 1262.59,213.175 1263.25,142.726 1263.92,200.748 1264.58,212.433 1265.24,202.477 1265.91,168.969 1266.57,197.529 1267.24,315.942 1267.9,433.32 1268.56,195.989 1269.23,180.616 1269.89,240.541 1270.56,235.461 1271.22,225.657 1271.88,172.687 1272.55,369.849 1273.21,235.7 1273.88,225.435 1274.54,182.591 1275.2,132.623 1275.87,211.217 1276.53,193.425 1277.2,125.535 1277.86,180.875 1278.52,142.84 1279.19,199.922 1279.85,218.59 1280.51,288.845 1281.18,223.535 1281.84,198.154 1282.51,283.013 1283.17,177.471 1283.83,214.459 1284.5,138.182 1285.16,223.78 1285.83,177.294 1286.49,193.006 1287.15,176.311 1287.82,185.667 1288.48,166.178 1289.15,606.942 1289.81,923.31 1290.47,873.429 1291.14,740.385 1291.8,628.324 1292.47,233.888 1293.13,502.561 1293.79,431.302 1294.46,202.924 1295.12,216.413 1295.79,214.093 1296.45,221.943 1297.11,211.956 1297.78,202.25 1298.44,244.617 1299.11,194.427 1299.77,210.428 1300.43,176.068 1301.1,257.167 1301.76,300.376 1302.42,258.968 1303.09,325.859 1303.75,207.202 1304.42,234.173 1305.08,186.942 1305.74,181.859 1306.41,193.02 1307.07,199.288 1307.74,356.288 1308.4,336.403 1309.06,196.282 1309.73,263.015 1310.39,215.703 1311.06,155.959 1311.72,253.305 1312.38,360.801 1313.05,230.233 1313.71,202.371 1314.38,222.121 1315.04,212.178 1315.7,250.145 1316.37,208.564 1317.03,225.451 1317.7,183.613 1318.36,234.682 1319.02,225.486 1319.69,199.622 1320.35,209.193 1321.02,198.056 1321.68,204.856 1322.34,226.077 1323.01,198.084 1323.67,208.808 1324.33,174.42 1325,236.049 1325.66,168.91 1326.33,250.3 1326.99,208.769 1327.65,233.841 1328.32,175.391 1328.98,195.484 1329.65,238.02 1330.31,148.394 1330.97,213.009 1331.64,193.323 1332.3,161.831 1332.97,208.516 1333.63,162.942 1334.29,200.108 1334.96,222.734 1335.62,216.299 1336.29,233.58 1336.95,228.982 1337.61,197.822 1338.28,156.034 1338.94,209.86 1339.61,210.005 1340.27,207.183 1340.93,231.254 1341.6,167.136 1342.26,171.733 1342.93,201.947 1343.59,207.713 1344.25,208.02 1344.92,323.188 1345.58,302.072 1346.24,234.723 1346.91,236.652 1347.57,219.433 1348.24,209.477 1348.9,187.624 1349.56,221.667 1350.23,145.358 1350.89,218.82 1351.56,198.957 1352.22,155.721 1352.88,213.273 1353.55,246.97 1354.21,182.879 1354.88,186.984 1355.54,261.465 1356.2,209.04 1356.87,232.253 1357.53,230.616 1358.2,166.644 1358.86,204.156 1359.52,230.47 1360.19,133.04 1360.85,187.321 1361.52,162.986 1362.18,179.013 1362.84,213.175 1363.51,234.964 1364.17,224.45 1364.84,134.279 1365.5,257.4 1366.16,202.414 1366.83,165.414 1367.49,199.068 1368.15,221.683 1368.82,148.812 1369.48,226.739 1370.15,167.582 1370.81,131.586 1371.47,204.879 1372.14,219.515 1372.8,225.776 1373.47,245.052 1374.13,200.046 1374.79,193.487 1375.46,234.916 1376.12,202.103 1376.79,201.467 1377.45,188.01 1378.11,249.825 1378.78,172.996 1379.44,227.457 1380.11,250.038 1380.77,246.967 1381.43,191.07 1382.1,200.742 1382.76,213.599 1383.43,188.352 1384.09,183.402 1384.75,215.856 1385.42,249.178 1386.08,378.872 1386.75,253.719 1387.41,192.565 1388.07,276.346 1388.74,170.705 1389.4,184.942 1390.06,196.143 1390.73,116.405 1391.39,169.973 1392.06,233.091 1392.72,145.128 1393.38,171.179 1394.05,202.085 1394.71,217.599 1395.38,278.803 1396.04,324.441 1396.7,212.641 1397.37,206.514 1398.03,173.65 1398.7,217.337 1399.36,229.482 1400.02,197.9 1400.69,173.053 1401.35,217.2 1402.02,216.358 1402.68,205.864 1403.34,186.796 1404.01,125.779 1404.67,250.572 1405.34,253.753 1406,200.775 1406.66,210.93 1407.33,198.252 1407.99,160.228 1408.66,221.464 1409.32,202.895 1409.98,206.494 1410.65,231.336 1411.31,205 1411.97,214.813 1412.64,215.448 1413.3,204.16 1413.97,234.514 1414.63,174.872 1415.29,352.083 1415.96,569.912 1416.62,406.879 1417.29,376.648 1417.95,186.335 1418.61,192.437 1419.28,145.244 1419.94,186.299 1420.61,182.386 1421.27,193.859 1421.93,157.023 1422.6,199.982 1423.26,228.404 1423.93,185.404 1424.59,182.788 1425.25,180.216 1425.92,185.9 1426.58,208.034 1427.25,211.379 1427.91,292.914 1428.57,231.46 1429.24,135.52 1429.9,232.9 1430.56,241.369 1431.23,269.851 1431.89,157.405 1432.56,209.42 1433.22,155.328 1433.88,216.676 1434.55,150.526 1435.21,234.987 1435.88,242.456 1436.54,319.008 1437.2,184.622 1437.87,210.332 1438.53,112.205 1439.2,166.335 1439.86,136.836 1440.52,217.773 1441.19,191.673 1441.85,183.615 1442.52,209.954 1443.18,191.042 1443.84,239.469 1444.51,148.486 1445.17,210.065 1445.84,158.917 1446.5,205.17 1447.16,184.092 1447.83,178.441 1448.49,181.573 1449.16,201.485 1449.82,199.24 1450.48,167.094 1451.15,166.662 1451.81,219.111 1452.47,210.994 1453.14,151.189 1453.8,227.112 1454.47,189.61 1455.13,200.965 1455.79,890.703 1456.46,228.24 1457.12,251.912 1457.79,190.306 1458.45,224.619 1459.11,253.801 1459.78,237.99 1460.44,124.93 1461.11,170.332 1461.77,229.053 1462.43,182.965 1463.1,237.205 1463.76,144.206 1464.43,184.518 1465.09,260.609 1465.75,218.287 1466.42,143.247 1467.08,226.062 1467.75,113.271 1468.41,222.056 1469.07,211.285 1469.74,198.877 1470.4,212.683 1471.07,223.988 1471.73,221.342 1472.39,205.49 1473.06,168.289 1473.72,206.51 1474.38,195.286 1475.05,189.977 1475.71,258.141 1476.38,189.697 1477.04,170.372 1477.7,217.366 1478.37,230.188 1479.03,168.127 1479.7,182.475 1480.36,228.844 1481.02,157.676 1481.69,196.153 1482.35,209.094 1483.02,206.678 1483.68,197.068 1484.34,208.378 1485.01,117.146 1485.67,168.604 1486.34,363.427 1487,440.451 1487.66,317.939 1488.33,201.491 1488.99,208.572 1489.66,246.519 1490.32,182.761 1490.98,174.079 1491.65,231.116 1492.31,239.478 1492.98,203.778 1493.64,182.602 1494.3,212.228 1494.97,166.748 1495.63,169.894 1496.29,188.322 1496.96,225.921 1497.62,175.888 1498.29,184.75 1498.95,201.953 1499.61,261.033 1500.28,232.592 1500.94,199.78 1501.61,199.012 1502.27,209.328 1502.93,184.838 1503.6,420.053 1504.26,231.651 1504.93,202.895 1505.59,242.258 1506.25,225.769 1506.92,203.373 1507.58,216.742 1508.25,195.651 1508.91,186.997 1509.57,166.761 1510.24,202.317 1510.9,205.186 1511.57,210.245 1512.23,204.102 1512.89,210.548 1513.56,171.614 1514.22,183.58 1514.89,241.831 1515.55,206.021 1516.21,237.322 1516.88,179.258 1517.54,152.952 1518.2,230.6 1518.87,195.21 1519.53,199.756 1520.2,226.615 1520.86,173.797 1521.52,208.731 1522.19,154.418 1522.85,149.306 1523.52,498.769 1524.18,694.329 1524.84,707.85 1525.51,203.53 1526.17,220.853 1526.84,305.653 1527.5,254.952 1528.16,146.585 1528.83,203.835 1529.49,181.111 1530.16,213.362 1530.82,229.139 1531.48,216.921 1532.15,214.989 1532.81,239.265 1533.48,182.285 1534.14,109.192 1534.8,180.824 1535.47,220.072 1536.13,177.614 1536.8,214.935 1537.46,175.276 1538.12,212.811 1538.79,190.657 1539.45,174.449 1540.11,242.342 1540.78,196.398 1541.44,148.885 1542.11,182.42 1542.77,197.746 1543.43,192.493 1544.1,162.178 1544.76,259.768 1545.43,200.508 1546.09,222.942 1546.75,206.023 1547.42,90.9528 1548.08,176.077 1548.75,188.703 1549.41,198.389 1550.07,172.2 1550.74,286.008 1551.4,174.106 1552.07,235.473 1552.73,194.17 1553.39,168.742 1554.06,221.539 1554.72,211.807 1555.39,193.053 1556.05,160.406 1556.71,179.742 1557.38,213.845 1558.04,195.728 1558.71,188.182 1559.37,210.533 1560.03,191.827 1560.7,233.573 1561.36,200.612 1562.02,259.364 1562.69,208.547 1563.35,192.286 1564.02,198.377 1564.68,249.356 1565.34,290.003 1566.01,344.933 1566.67,315.122 1567.34,204.187 1568,239.091 1568.66,196.653 1569.33,174.865 1569.99,202.635 1570.66,153.746 1571.32,215.725 1571.98,161.91 1572.65,212.119 1573.31,220.564 1573.98,242.183 1574.64,239.987 1575.3,152.28 1575.97,140.184 1576.63,195.094 1577.3,129.241 1577.96,208.244 1578.62,211.741 1579.29,231.588 1579.95,176.917 1580.62,189.506 1581.28,198.149 1581.94,186.231 1582.61,172.364 1583.27,195.916 1583.93,177.421 1584.6,150.652 1585.26,189.295 1585.93,155.348 1586.59,227.034 1587.25,166.96 1587.92,153.366 1588.58,197.03 1589.25,193.999 1589.91,216.332 1590.57,236.195 1591.24,179.305 1591.9,196.209 1592.57,92.5209 1593.23,147.966 1593.89,225.189 1594.56,157.263 1595.22,180.008 1595.89,163.68 1596.55,164.067 1597.21,212.336 1597.88,224.548 1598.54,220.021 1599.21,235.504 1599.87,170.643 1600.53,117.703 1601.2,158.517 1601.86,360.447 1602.53,242.976 1603.19,232.528 1603.85,188.09 1604.52,170.432 1605.18,221.939 1605.84,172.861 1606.51,186.973 1607.17,184.717 1607.84,147.902 1608.5,223.196 1609.16,197.897 1609.83,222.87 1610.49,211.738 1611.16,150.049 1611.82,175.967 1612.48,158.258 1613.15,206.694 1613.81,185.976 1614.48,273.078 1615.14,186.05 1615.8,180.549 1616.47,112.85 1617.13,163.539 1617.8,193.248 1618.46,183.782 1619.12,209.765 1619.79,213.257 1620.45,135.795 1621.12,140.364 1621.78,211.231 1622.44,182.014 1623.11,240.384 1623.77,215.54 1624.44,227.22 1625.1,191.392 1625.76,191.668 1626.43,190.729 1627.09,152.432 1627.75,205.92 1628.42,151.382 1629.08,214.241 1629.75,165.533 1630.41,224.719 1631.07,179.547 1631.74,213.675 1632.4,204.374 1633.07,155.23 1633.73,262.836 1634.39,191.604 1635.06,145.291 1635.72,236.352 1636.39,209.481 1637.05,173.536 1637.71,192.895 1638.38,149.747 1639.04,217.34 1639.71,362.36 1640.37,173.751 1641.03,249.326 1641.7,256.37 1642.36,183.062 1643.03,190.291 1643.69,179.113 1644.35,162.992 1645.02,297.931 1645.68,211.274 1646.35,178.034 1647.01,256.082 1647.67,183.626 1648.34,205.074 1649,247.191 1649.66,190.073 1650.33,184.575 1650.99,175.683 1651.66,199.224 1652.32,186.744 1652.98,109.818 1653.65,185.826 1654.31,177.8 1654.98,187.878 1655.64,172.916 1656.3,217.658 1656.97,208.206 1657.63,209.253 1658.3,188.285 1658.96,143.255 1659.62,183.61 1660.29,150.929 1660.95,199.391 1661.62,191.645 1662.28,161.365 1662.94,217.783 1663.61,158.543 1664.27,158.406 1664.94,175.355 1665.6,124.367 1666.26,300.109 1666.93,244.256 1667.59,288.251 1668.26,165.569 1668.92,200.424 1669.58,244.394 1670.25,185.849 1670.91,181.497 1671.57,191.418 1672.24,171.464 1672.9,194.003 1673.57,209.606 1674.23,135.33 1674.89,150.582 1675.56,184.683 1676.22,187.867 1676.89,222.803 1677.55,180.58 1678.21,194.137 1678.88,156.411 1679.54,249.285 1680.21,202.237 1680.87,214.285 1681.53,99.5536 1682.2,228.478 1682.86,191.15 1683.53,255.331 1684.19,191.14 1684.85,132.994 1685.52,168.749 1686.18,191.467 1686.85,173.184 1687.51,156.141 1688.17,225.117 1688.84,128.21 1689.5,279.786 1690.17,189.102 1690.83,189.494 1691.49,175.405 1692.16,207.286 1692.82,142.92 1693.48,165.07 1694.15,187.066 1694.81,156.141 1695.48,200.161 1696.14,217.935 1696.8,290.964 1697.47,177.611 1698.13,190.041 1698.8,193.052 1699.46,158.13 1700.12,266.938 1700.79,314.692 1701.45,183.587 1702.12,187.295 1702.78,178.534 1703.44,170.775 1704.11,163.34 1704.77,136.901 1705.44,219.173 1706.1,140.131 1706.76,195.778 1707.43,259.148 1708.09,185.927 1708.76,190.944 1709.42,166.645 1710.08,99.1641 1710.75,411.29 1711.41,168.264 1712.07,211.085 1712.74,195.178 1713.4,181.771 1714.07,205.288 1714.73,193.59 1715.39,200.165 1716.06,220.085 1716.72,172.676 1717.39,193.513 1718.05,146.939 1718.71,193.622 1719.38,195.5 1720.04,177.892 1720.71,151.404 1721.37,152.432 1722.03,208.891 1722.7,211.118 1723.36,183.558 1724.03,188.341 1724.69,206.21 1725.35,195.915 1726.02,166.34 1726.68,165.561 1727.35,170.093 1728.01,204.008 1728.67,241.797 1729.34,201.54 1730,165.382 1730.67,206.428 1731.33,182.038 1731.99,275.809 1732.66,205.542 1733.32,137.022 1733.98,128.524 1734.65,181.248 1735.31,233.715 1735.98,216.545 1736.64,166.8 1737.3,155.758 1737.97,201.87 1738.63,243.708 1739.3,168.515 1739.96,192.378 1740.62,93.0751 1741.29,191.999 1741.95,250.617 1742.62,554.269 1743.28,207.685 1743.94,248.177 1744.61,215.164 1745.27,142.853 1745.94,270.873 1746.6,248.823 1747.26,247.032 1747.93,213.204 1748.59,192.08 1749.26,210.562 1749.92,201.419 1750.58,164.812 1751.25,149.324 1751.91,190.1 1752.58,188.519 1753.24,193.162 1753.9,195.737 1754.57,182.257 1755.23,189.723 1755.89,192.1 1756.56,168.322 1757.22,149.457 1757.89,230.761 1758.55,183.318 1759.21,195.221 1759.88,180.929 1760.54,168.535 1761.21,158.75 1761.87,167.047 1762.53,241.259 1763.2,155.718 1763.86,188.711 1764.53,179.435 1765.19,200.807 1765.85,153.489 1766.52,191.949 1767.18,218.122 1767.85,161.929 1768.51,228.342 1769.17,232.346 1769.84,161.899 1770.5,204.578 1771.17,179.749 1771.83,176.893 1772.49,165.384 1773.16,390.123 1773.82,260.684 1774.49,154.273 1775.15,171.889 1775.81,199.07 1776.48,203.64 1777.14,209.261 1777.8,196.409 1778.47,210.961 1779.13,206.834 1779.8,195.201 1780.46,117.738 1781.12,194.703 1781.79,219.016 1782.45,94.228 1783.12,183.063 1783.78,182.035 1784.44,152.372 1785.11,183.219 1785.77,173.811 1786.44,207.501 1787.1,211.421 1787.76,181.732 1788.43,217.737 1789.09,190.275 1789.76,173.283 1790.42,163.152 1791.08,288.683 1791.75,276.046 1792.41,251.416 1793.08,217.957 1793.74,176.613 1794.4,208.692 1795.07,188.331 1795.73,164.845 1796.4,189.251 1797.06,237.252 1797.72,170.396 1798.39,200.22 1799.05,205.726 1799.71,189.217 1800.38,200.651 1801.04,172.491 1801.71,170.455 1802.37,182.22 1803.03,150.158 1803.7,165.281 1804.36,180.111 1805.03,193.902 1805.69,287.33 1806.35,313.954 1807.02,196.387 1807.68,172.138 1808.35,175.902 1809.01,151.963 1809.67,195.547 1810.34,219.664 1811,166.179 1811.67,136.476 1812.33,225.365 1812.99,235.527 1813.66,197.611 1814.32,283.72 1814.99,217.703 1815.65,190.213 1816.31,197.797 1816.98,211.186 1817.64,276.252 1818.31,202.459 1818.97,207.578 1819.63,157.062 1820.3,210.425 1820.96,136.553 1821.62,188.906 1822.29,219.898 1822.95,217.576 1823.62,185.326 1824.28,148.801 1824.94,165.764 1825.61,195.075 1826.27,193.507 1826.94,181.767 1827.6,192.053 1828.26,175.431 1828.93,159.179 1829.59,215.018 1830.26,141.833 1830.92,184.297 1831.58,195.719 1832.25,139.462 1832.91,225.058 1833.58,193.176 1834.24,175.759 1834.9,247.574 1835.57,201.303 1836.23,164.736 1836.9,186.492 1837.56,193.687 1838.22,189.54 1838.89,166.757 1839.55,268.68 1840.22,160.718 1840.88,187.938 1841.54,229.965 1842.21,212.316 1842.87,193.421 1843.53,206.455 1844.2,215.638 1844.86,144.954 1845.53,146.569 1846.19,298.34 1846.85,479.449 1847.52,333.248 1848.18,211.835 1848.85,206.614 1849.51,205.241 1850.17,146.639 1850.84,205.062 1851.5,163.68 1852.17,186.461 1852.83,164.952 1853.49,181.78 1854.16,196.386 1854.82,180.635 1855.49,208.761 1856.15,162.618 1856.81,198.33 1857.48,222.131 1858.14,157.207 1858.81,205.27 1859.47,208.594 1860.13,154.653 1860.8,142.258 1861.46,229.934 1862.13,187.409 1862.79,143.814 1863.45,279.107 1864.12,146.973 1864.78,201.507 1865.44,178.158 1866.11,213.917 1866.77,172.526 1867.44,169.767 1868.1,162.244 1868.76,148.107 1869.43,234.572 1870.09,177.811 1870.76,209.961 1871.42,175.405 1872.08,212.314 1872.75,1907.69 1873.41,143.783 1874.08,266.097 1874.74,185.748 1875.4,225.528 1876.07,212.274 1876.73,183.53 1877.4,178.752 1878.06,136.97 1878.72,189.312 1879.39,257.352 1880.05,223.035 1880.72,201.798 1881.38,143.959 1882.04,216.665 1882.71,257.693 1883.37,195.191 1884.04,158.172 1884.7,162.966 1885.36,274.497 1886.03,245.383 1886.69,202.924 1887.35,204.814 1888.02,171.253 1888.68,228.23 1889.35,189.583 1890.01,152.941 1890.67,153.38 1891.34,148.904 1892,208.875 1892.67,231.559 1893.33,198.62 1893.99,194.787 1894.66,156.356 1895.32,197.404 1895.99,203.843 1896.65,213.782 1897.31,150.996 1897.98,202.612 1898.64,187.714 1899.31,87.4892 1899.97,207.318 1900.63,166.813 1901.3,229.456 1901.96,232.364 1902.63,224.888 1903.29,203.253 1903.95,207.317 1904.62,70.6459 1905.28,209.893 1905.95,187.007 1906.61,244.076 1907.27,191.009 1907.94,125.11 1908.6,183.761 1909.26,215.401 1909.93,196.768 1910.59,160.573 1911.26,165.712 1911.92,215.701 1912.58,140.954 1913.25,114.082 1913.91,215.615 1914.58,188.396 1915.24,196.578 1915.9,181.211 1916.57,179.322 1917.23,186.69 1917.9,192.618 1918.56,166.43 1919.22,185.158 1919.89,198.997 1920.55,197.156 1921.22,166.115 1921.88,155.55 1922.54,182.317 1923.21,259.016 1923.87,127.289 1924.54,125.742 1925.2,111.21 1925.86,266.871 1926.53,195.608 1927.19,233.664 1927.86,193.635 1928.52,203.855 1929.18,180.915 1929.85,220.017 1930.51,243.161 1931.17,233.881 1931.84,197.894 1932.5,198.992 1933.17,210.578 1933.83,225.278 1934.49,209.408 1935.16,107.041 1935.82,302.159 1936.49,174.861 1937.15,219.549 1937.81,181.752 1938.48,221.511 1939.14,198.899 1939.81,181.823 1940.47,221.2 1941.13,177.138 1941.8,194.378 1942.46,243.725 1943.13,236.998 1943.79,233.008 1944.45,219.643 1945.12,176.093 1945.78,83.2058 1946.45,258.38 1947.11,199.149 1947.77,181.68 1948.44,249.589 1949.1,203.486 1949.77,204.557 1950.43,160.43 1951.09,178.354 1951.76,310.551 1952.42,192.621 1953.08,195.252 1953.75,159.477 1954.41,174.294 1955.08,207.796 1955.74,123.023 1956.4,169.871 1957.07,181.627 1957.73,158.447 1958.4,190.116 1959.06,196.597 1959.72,204.701 1960.39,222.815 1961.05,152.222 1961.72,193.428 1962.38,170.59 1963.04,203.034 1963.71,195.879 1964.37,184.297 1965.04,158.352 1965.7,176.785 1966.36,197.931 1967.03,194.821 1967.69,189.882 1968.36,196.768 1969.02,188.753 1969.68,168.088 1970.35,186.348 1971.01,150.203 1971.68,183.053 1972.34,195.276 1973,202.028 1973.67,231.117 1974.33,197.714 1974.99,168.62 1975.66,216.162 1976.32,126.916 1976.99,183.473 1977.65,186.382 1978.31,192.972 1978.98,207.084 1979.64,200.623 1980.31,160.725 1980.97,217.689 1981.63,181.42 1982.3,172.038 1982.96,180.79 1983.63,192.105 1984.29,193.632 1984.95,187.002 1985.62,140.792 1986.28,123 1986.95,231.106 1987.61,179.776 1988.27,202.193 1988.94,152.624 1989.6,194.282 1990.27,193.084 1990.93,279.963 1991.59,244.48 1992.26,248.634 1992.92,193.246 1993.58,305.812 1994.25,270.107 1994.91,221.018 1995.58,737.772 1996.24,168.827 1996.9,252.307 1997.57,184.441 1998.23,209.604 1998.9,164.89 1999.56,196.756 2000.22,219.877 2000.89,198.271 2001.55,198.181 2002.22,191.385 2002.88,172.018 2003.54,148.889 2004.21,193.588 2004.87,186.875 2005.54,203.509 2006.2,268.724 2006.86,215.806 2007.53,184.949 2008.19,179.879 2008.86,188.334 2009.52,165.203 2010.18,175.13 2010.85,197.464 2011.51,156.996 2012.18,165.448 2012.84,189.668 2013.5,163.456 2014.17,266.145 2014.83,226.138 2015.49,202.243 2016.16,159.686 2016.82,175.866 2017.49,141.142 2018.15,200.973 2018.81,212.598 2019.48,173.125 2020.14,219.356 2020.81,188.746 2021.47,157.981 2022.13,223.24 2022.8,208.451 2023.46,167.024 2024.13,170.41 2024.79,212.636 2025.45,124.441 2026.12,206.614 2026.78,207.207 2027.45,139.507 2028.11,130.794 2028.77,275.722 2029.44,200.191 2030.1,209.731 2030.77,182.678 2031.43,195.474 2032.09,205.134 2032.76,163.076 2033.42,259.479 2034.09,200.655 2034.75,167.762 2035.41,203.383 2036.08,149.41 2036.74,216.67 2037.4,204.624 2038.07,213.797 2038.73,180.797 2039.4,195.861 2040.06,194.795 2040.72,177.464 2041.39,141.495 2042.05,217.188 2042.72,201.029 2043.38,186.484 2044.04,180.362 2044.71,182.169 2045.37,180.294 2046.04,166.386 2046.7,150.046 2047.36,159.054 2048.03,175.133 2048.69,195.941 2049.36,174.485 2050.02,237.2 2050.68,318.233 2051.35,136.926 2052.01,183.236 2052.68,223.38 2053.34,162.779 2054,164.749 2054.67,139.8 2055.33,187.708 2056,110.788 2056.66,227.879 2057.32,199.767 2057.99,185.193 2058.65,198.084 2059.31,139.31 2059.98,150.189 2060.64,141.411 2061.31,180.651 2061.97,191.554 2062.63,140.756 2063.3,146.089 2063.96,190.486 2064.63,290.11 2065.29,308.782 2065.95,188.418 2066.62,132.914 2067.28,140.887 2067.95,215.238 2068.61,180.217 2069.27,145.16 2069.94,231.914 2070.6,208.464 2071.27,159.773 2071.93,202.31 2072.59,206.122 2073.26,138.4 2073.92,200.803 2074.59,187.695 2075.25,184.392 2075.91,213.839 2076.58,196.866 2077.24,190.619 2077.91,201.906 2078.57,179.247 2079.23,215.483 2079.9,174.621 2080.56,207.757 2081.22,169.782 2081.89,193.154 2082.55,200.912 2083.22,184.618 2083.88,198.496 2084.54,142.38 2085.21,180.081 2085.87,203.652 2086.54,184.495 2087.2,188.147 2087.86,135.98 2088.53,146.916 2089.19,230.444 2089.86,244.387 2090.52,222.374 2091.18,182.632 2091.85,258.115 2092.51,158.418 2093.18,153.637 2093.84,176.528 2094.5,175.735 2095.17,288.621 2095.83,201.453 2096.5,206.468 2097.16,169.963 2097.82,158.685 2098.49,159.035 2099.15,203.446 2099.82,144.939 2100.48,140.76 2101.14,237.434 2101.81,227.973 2102.47,231.801 2103.13,227.944 2103.8,180.86 2104.46,175.015 2105.13,141.11 2105.79,148.71 2106.45,225.752 2107.12,168.006 2107.78,163.214 2108.45,222.652 2109.11,134.588 2109.77,193.772 2110.44,207.209 2111.1,185.526 2111.77,184.252 2112.43,197.015 2113.09,226.313 2113.76,112.953 2114.42,167.71 2115.09,169.965 2115.75,239.958 2116.41,234.591 2117.08,219.678 2117.74,219.934 2118.41,178.856 2119.07,236.035 2119.73,199.707 2120.4,123.526 2121.06,141.067 2121.73,210.57 2122.39,141.636 2123.05,242.863 2123.72,188.893 2124.38,161.469 2125.04,179.051 2125.71,199.814 2126.37,162.579 2127.04,196.252 2127.7,200.72 2128.36,140.72 2129.03,210.957 2129.69,196.476 2130.36,177.574 2131.02,208.852 2131.68,157.589 2132.35,162.609 2133.01,257.941 2133.68,185.244 2134.34,225.14 2135,195.292 2135.67,160.155 2136.33,196.02 2137,204.654 2137.66,190.651 2138.32,205.655 2138.99,195.42 2139.65,134.514 2140.32,207.847 2140.98,593.647 2141.64,237.691 2142.31,176.324 2142.97,204.754 2143.64,140.922 2144.3,174.966 2144.96,188.707 2145.63,182.753 2146.29,178.912 2146.95,235.788 2147.62,163.574 2148.28,173.909 2148.95,228.254 2149.61,172.24 2150.27,206.727 2150.94,201.022 2151.6,224.189 2152.27,183.67 2152.93,171.283 2153.59,175.012 2154.26,211.779 2154.92,191.313 2155.59,209.145 2156.25,189.178 2156.91,183.958 2157.58,189.763 2158.24,176.298 2158.91,179.646 2159.57,177.719 2160.23,247.221 2160.9,178.824 2161.56,168.784 2162.23,203.609 2162.89,197.288 2163.55,177.81 2164.22,181.315 2164.88,140.138 2165.55,154.753 2166.21,117.317 2166.87,229.922 2167.54,181.785 2168.2,211.694 2168.86,178.903 2169.53,195.693 2170.19,195.254 2170.86,148.001 2171.52,177.332 2172.18,191.548 2172.85,174.881 2173.51,138.036 2174.18,182.527 2174.84,187.89 2175.5,153.633 2176.17,142.414 2176.83,212.111 2177.5,163.823 2178.16,164.063 2178.82,187.67 2179.49,198.686 2180.15,193.02 2180.82,170.842 2181.48,173.962 2182.14,211.216 2182.81,194.966 2183.47,124.079 2184.14,178.307 2184.8,150.02 2185.46,151.692 2186.13,170.897 2186.79,153.588 2187.46,196.099 2188.12,179.038 2188.78,228.911 2189.45,207.368 2190.11,188.514 2190.77,177.161 2191.44,183.522 2192.1,143.941 2192.77,170.594 2193.43,124.086 2194.09,197.671 2194.76,211.958 2195.42,187.496 2196.09,204.622 2196.75,190.435 2197.41,156.583 2198.08,180.132 2198.74,245.018 2199.41,189.643 2200.07,161.275 2200.73,184.987 2201.4,144.985 2202.06,317 2202.73,304.527 2203.39,674.841 2204.05,209.683 2204.72,159.172 2205.38,186.743 2206.05,186.486 2206.71,179.563 2207.37,191.055 2208.04,160.334 2208.7,166.607 2209.37,198.433 2210.03,156.419 2210.69,204.777 2211.36,158.82 2212.02,210.466 2212.68,182.994 2213.35,199.1 2214.01,195.172 2214.68,138.239 2215.34,132.911 2216,168.619 2216.67,205.435 2217.33,190.337 2218,143.568 2218.66,179.675 2219.32,204.291 2219.99,194.679 2220.65,172.686 2221.32,140.717 2221.98,174.378 2222.64,158.673 2223.31,165.219 2223.97,140.094 2224.64,252.849 2225.3,321.463 2225.96,249.788 2226.63,237.874 2227.29,108.722 2227.96,194.015 2228.62,154.02 2229.28,156.343 2229.95,138.363 2230.61,188.495 2231.28,176.101 2231.94,162.623 2232.6,216.746 2233.27,135.508 2233.93,222.036 2234.59,179.275 2235.26,146.44 2235.92,211.471 2236.59,176.746 2237.25,223.116 2237.91,196.7 2238.58,177.233 2239.24,179.545 2239.91,165.062 2240.57,188.335 2241.23,186.211 2241.9,183.672 2242.56,244.893 2243.23,190.476 2243.89,220.962 2244.55,154.659 2245.22,158.862 2245.88,204.332 2246.55,189.341 2247.21,203.049 2247.87,193.134 2248.54,171.892 2249.2,203.601 2249.87,175.945 2250.53,184.076 2251.19,163.826 2251.86,169.062 2252.52,178.724 2253.19,147.698 2253.85,204.664 2254.51,204.764 2255.18,208.234 2255.84,167.808 2256.5,188.848 2257.17,164.004 2257.83,203.2 2258.5,224.31 2259.16,171.843 2259.82,181.551 2260.49,167.71 2261.15,144.546 2261.82,203.149 2262.48,193.721 2263.14,178.196 2263.81,178.495 2264.47,178.42 2265.14,180.853 2265.8,166.785 2266.46,189.674 2267.13,216.683 2267.79,169.977 2268.46,243.205 2269.12,184.948 2269.78,169.671 2270.45,182.276 2271.11,185.695 2271.78,205.984 2272.44,174.645 2273.1,172.397 2273.77,146.945 2274.43,173.481 2275.09,148.932 2275.76,310.308 2276.42,423.781 2277.09,231.276 2277.75,340.937 2278.41,205.753 2279.08,180.79 2279.74,163.589 2280.41,184.192 2281.07,153.552 2281.73,250.918 2282.4,171.644 2283.06,190.371 2283.73,246.959 2284.39,173.131 2285.05,160.452 2285.72,198.037 2286.38,197.126 2287.05,169.613 2287.71,147.597 2288.37,233.937 2289.04,164.49 2289.7,130.288 2290.37,175.105 2291.03,128.807 2291.69,205.757 2292.36,201.334 2293.02,191.443 "/>
<path clip-path="url(#clip850)" d="M2018.91 1377.32 L2282.4 1377.32 L2282.4 1273.64 L2018.91 1273.64  Z" fill="#ffffff" fill-rule="evenodd" fill-opacity="1"/>
<polyline clip-path="url(#clip850)" style="stroke:#000000; stroke-linecap:round; stroke-linejoin:round; stroke-width:4; stroke-opacity:1; fill:none" points="2018.91,1377.32 2282.4,1377.32 2282.4,1273.64 2018.91,1273.64 2018.91,1377.32 "/>
<polyline clip-path="url(#clip850)" style="stroke:#009af9; stroke-linecap:round; stroke-linejoin:round; stroke-width:4; stroke-opacity:1; fill:none" points="2042.36,1325.48 2183.07,1325.48 "/>
<path clip-path="url(#clip850)" d="M2220.36 1345.16 Q2218.56 1349.79 2216.84 1351.2 Q2215.13 1352.62 2212.26 1352.62 L2208.86 1352.62 L2208.86 1349.05 L2211.36 1349.05 Q2213.12 1349.05 2214.09 1348.22 Q2215.06 1347.38 2216.24 1344.28 L2217.01 1342.34 L2206.52 1316.83 L2211.03 1316.83 L2219.14 1337.11 L2227.24 1316.83 L2231.75 1316.83 L2220.36 1345.16 Z" fill="#000000" fill-rule="nonzero" fill-opacity="1" /><path clip-path="url(#clip850)" d="M2239.04 1338.82 L2246.68 1338.82 L2246.68 1312.45 L2238.37 1314.12 L2238.37 1309.86 L2246.64 1308.2 L2251.31 1308.2 L2251.31 1338.82 L2258.95 1338.82 L2258.95 1342.76 L2239.04 1342.76 L2239.04 1338.82 Z" fill="#000000" fill-rule="nonzero" fill-opacity="1" /></svg>
