<?xml version="1.0" encoding="utf-8"?>
<svg xmlns="http://www.w3.org/2000/svg" xmlns:xlink="http://www.w3.org/1999/xlink" width="600" height="400" viewBox="0 0 2400 1600">
<defs>
  <clipPath id="clip970">
    <rect x="0" y="0" width="2400" height="1600"/>
  </clipPath>
</defs>
<path clip-path="url(#clip970)" d="M0 1600 L2400 1600 L2400 0 L0 0  Z" fill="#ffffff" fill-rule="evenodd" fill-opacity="1"/>
<defs>
  <clipPath id="clip971">
    <rect x="242" y="47" width="2112" height="1377"/>
  </clipPath>
</defs>
<path clip-path="url(#clip970)" d="M251.56 1423.18 L2352.76 1423.18 L2352.76 47.2441 L251.56 47.2441  Z" fill="#ffffff" fill-rule="evenodd" fill-opacity="1"/>
<defs>
  <clipPath id="clip972">
    <rect x="251" y="47" width="2102" height="1377"/>
  </clipPath>
</defs>
<polyline clip-path="url(#clip972)" style="stroke:#000000; stroke-linecap:round; stroke-linejoin:round; stroke-width:2; stroke-opacity:0.1; fill:none" points="309.044,1423.18 309.044,47.2441 "/>
<polyline clip-path="url(#clip972)" style="stroke:#000000; stroke-linecap:round; stroke-linejoin:round; stroke-width:2; stroke-opacity:0.1; fill:none" points="805.105,1423.18 805.105,47.2441 "/>
<polyline clip-path="url(#clip972)" style="stroke:#000000; stroke-linecap:round; stroke-linejoin:round; stroke-width:2; stroke-opacity:0.1; fill:none" points="1301.17,1423.18 1301.17,47.2441 "/>
<polyline clip-path="url(#clip972)" style="stroke:#000000; stroke-linecap:round; stroke-linejoin:round; stroke-width:2; stroke-opacity:0.1; fill:none" points="1797.23,1423.18 1797.23,47.2441 "/>
<polyline clip-path="url(#clip972)" style="stroke:#000000; stroke-linecap:round; stroke-linejoin:round; stroke-width:2; stroke-opacity:0.1; fill:none" points="2293.29,1423.18 2293.29,47.2441 "/>
<polyline clip-path="url(#clip972)" style="stroke:#000000; stroke-linecap:round; stroke-linejoin:round; stroke-width:2; stroke-opacity:0.1; fill:none" points="251.56,1107.75 2352.76,1107.75 "/>
<polyline clip-path="url(#clip972)" style="stroke:#000000; stroke-linecap:round; stroke-linejoin:round; stroke-width:2; stroke-opacity:0.1; fill:none" points="251.56,226.918 2352.76,226.918 "/>
<polyline clip-path="url(#clip970)" style="stroke:#000000; stroke-linecap:round; stroke-linejoin:round; stroke-width:4; stroke-opacity:1; fill:none" points="251.56,1423.18 2352.76,1423.18 "/>
<polyline clip-path="url(#clip970)" style="stroke:#000000; stroke-linecap:round; stroke-linejoin:round; stroke-width:4; stroke-opacity:1; fill:none" points="309.044,1423.18 309.044,1404.28 "/>
<polyline clip-path="url(#clip970)" style="stroke:#000000; stroke-linecap:round; stroke-linejoin:round; stroke-width:4; stroke-opacity:1; fill:none" points="805.105,1423.18 805.105,1404.28 "/>
<polyline clip-path="url(#clip970)" style="stroke:#000000; stroke-linecap:round; stroke-linejoin:round; stroke-width:4; stroke-opacity:1; fill:none" points="1301.17,1423.18 1301.17,1404.28 "/>
<polyline clip-path="url(#clip970)" style="stroke:#000000; stroke-linecap:round; stroke-linejoin:round; stroke-width:4; stroke-opacity:1; fill:none" points="1797.23,1423.18 1797.23,1404.28 "/>
<polyline clip-path="url(#clip970)" style="stroke:#000000; stroke-linecap:round; stroke-linejoin:round; stroke-width:4; stroke-opacity:1; fill:none" points="2293.29,1423.18 2293.29,1404.28 "/>
<path clip-path="url(#clip970)" d="M309.044 1454.1 Q305.433 1454.1 303.604 1457.66 Q301.798 1461.2 301.798 1468.33 Q301.798 1475.44 303.604 1479.01 Q305.433 1482.55 309.044 1482.55 Q312.678 1482.55 314.484 1479.01 Q316.312 1475.44 316.312 1468.33 Q316.312 1461.2 314.484 1457.66 Q312.678 1454.1 309.044 1454.1 M309.044 1450.39 Q314.854 1450.39 317.91 1455 Q320.988 1459.58 320.988 1468.33 Q320.988 1477.06 317.91 1481.67 Q314.854 1486.25 309.044 1486.25 Q303.234 1486.25 300.155 1481.67 Q297.099 1477.06 297.099 1468.33 Q297.099 1459.58 300.155 1455 Q303.234 1450.39 309.044 1450.39 Z" fill="#000000" fill-rule="nonzero" fill-opacity="1" /><path clip-path="url(#clip970)" d="M768.797 1481.64 L785.117 1481.64 L785.117 1485.58 L763.172 1485.58 L763.172 1481.64 Q765.834 1478.89 770.418 1474.26 Q775.024 1469.61 776.205 1468.27 Q778.45 1465.74 779.33 1464.01 Q780.232 1462.25 780.232 1460.56 Q780.232 1457.8 778.288 1456.07 Q776.367 1454.33 773.265 1454.33 Q771.066 1454.33 768.612 1455.09 Q766.181 1455.86 763.404 1457.41 L763.404 1452.69 Q766.228 1451.55 768.681 1450.97 Q771.135 1450.39 773.172 1450.39 Q778.543 1450.39 781.737 1453.08 Q784.931 1455.77 784.931 1460.26 Q784.931 1462.39 784.121 1464.31 Q783.334 1466.2 781.228 1468.8 Q780.649 1469.47 777.547 1472.69 Q774.445 1475.88 768.797 1481.64 Z" fill="#000000" fill-rule="nonzero" fill-opacity="1" /><path clip-path="url(#clip970)" d="M794.978 1451.02 L813.334 1451.02 L813.334 1454.96 L799.26 1454.96 L799.26 1463.43 Q800.279 1463.08 801.297 1462.92 Q802.316 1462.73 803.334 1462.73 Q809.121 1462.73 812.501 1465.9 Q815.88 1469.08 815.88 1474.49 Q815.88 1480.07 812.408 1483.17 Q808.936 1486.25 802.616 1486.25 Q800.441 1486.25 798.172 1485.88 Q795.927 1485.51 793.519 1484.77 L793.519 1480.07 Q795.603 1481.2 797.825 1481.76 Q800.047 1482.32 802.524 1482.32 Q806.528 1482.32 808.866 1480.21 Q811.204 1478.1 811.204 1474.49 Q811.204 1470.88 808.866 1468.77 Q806.528 1466.67 802.524 1466.67 Q800.649 1466.67 798.774 1467.08 Q796.922 1467.5 794.978 1468.38 L794.978 1451.02 Z" fill="#000000" fill-rule="nonzero" fill-opacity="1" /><path clip-path="url(#clip970)" d="M835.093 1454.1 Q831.482 1454.1 829.653 1457.66 Q827.848 1461.2 827.848 1468.33 Q827.848 1475.44 829.653 1479.01 Q831.482 1482.55 835.093 1482.55 Q838.727 1482.55 840.533 1479.01 Q842.362 1475.44 842.362 1468.33 Q842.362 1461.2 840.533 1457.66 Q838.727 1454.1 835.093 1454.1 M835.093 1450.39 Q840.903 1450.39 843.959 1455 Q847.038 1459.58 847.038 1468.33 Q847.038 1477.06 843.959 1481.67 Q840.903 1486.25 835.093 1486.25 Q829.283 1486.25 826.204 1481.67 Q823.149 1477.06 823.149 1468.33 Q823.149 1459.58 826.204 1455 Q829.283 1450.39 835.093 1450.39 Z" fill="#000000" fill-rule="nonzero" fill-opacity="1" /><path clip-path="url(#clip970)" d="M1260.78 1451.02 L1279.14 1451.02 L1279.14 1454.96 L1265.07 1454.96 L1265.07 1463.43 Q1266.09 1463.08 1267.1 1462.92 Q1268.12 1462.73 1269.14 1462.73 Q1274.93 1462.73 1278.31 1465.9 Q1281.69 1469.08 1281.69 1474.49 Q1281.69 1480.07 1278.21 1483.17 Q1274.74 1486.25 1268.42 1486.25 Q1266.25 1486.25 1263.98 1485.88 Q1261.73 1485.51 1259.33 1484.77 L1259.33 1480.07 Q1261.41 1481.2 1263.63 1481.76 Q1265.85 1482.32 1268.33 1482.32 Q1272.34 1482.32 1274.67 1480.21 Q1277.01 1478.1 1277.01 1474.49 Q1277.01 1470.88 1274.67 1468.77 Q1272.34 1466.67 1268.33 1466.67 Q1266.46 1466.67 1264.58 1467.08 Q1262.73 1467.5 1260.78 1468.38 L1260.78 1451.02 Z" fill="#000000" fill-rule="nonzero" fill-opacity="1" /><path clip-path="url(#clip970)" d="M1300.9 1454.1 Q1297.29 1454.1 1295.46 1457.66 Q1293.65 1461.2 1293.65 1468.33 Q1293.65 1475.44 1295.46 1479.01 Q1297.29 1482.55 1300.9 1482.55 Q1304.53 1482.55 1306.34 1479.01 Q1308.17 1475.44 1308.17 1468.33 Q1308.17 1461.2 1306.34 1457.66 Q1304.53 1454.1 1300.9 1454.1 M1300.9 1450.39 Q1306.71 1450.39 1309.77 1455 Q1312.84 1459.58 1312.84 1468.33 Q1312.84 1477.06 1309.77 1481.67 Q1306.71 1486.25 1300.9 1486.25 Q1295.09 1486.25 1292.01 1481.67 Q1288.96 1477.06 1288.96 1468.33 Q1288.96 1459.58 1292.01 1455 Q1295.09 1450.39 1300.9 1450.39 Z" fill="#000000" fill-rule="nonzero" fill-opacity="1" /><path clip-path="url(#clip970)" d="M1331.06 1454.1 Q1327.45 1454.1 1325.62 1457.66 Q1323.82 1461.2 1323.82 1468.33 Q1323.82 1475.44 1325.62 1479.01 Q1327.45 1482.55 1331.06 1482.55 Q1334.7 1482.55 1336.5 1479.01 Q1338.33 1475.44 1338.33 1468.33 Q1338.33 1461.2 1336.5 1457.66 Q1334.7 1454.1 1331.06 1454.1 M1331.06 1450.39 Q1336.87 1450.39 1339.93 1455 Q1343.01 1459.58 1343.01 1468.33 Q1343.01 1477.06 1339.93 1481.67 Q1336.87 1486.25 1331.06 1486.25 Q1325.25 1486.25 1322.17 1481.67 Q1319.12 1477.06 1319.12 1468.33 Q1319.12 1459.58 1322.17 1455 Q1325.25 1450.39 1331.06 1450.39 Z" fill="#000000" fill-rule="nonzero" fill-opacity="1" /><path clip-path="url(#clip970)" d="M1755.5 1451.02 L1777.72 1451.02 L1777.72 1453.01 L1765.18 1485.58 L1760.29 1485.58 L1772.1 1454.96 L1755.5 1454.96 L1755.5 1451.02 Z" fill="#000000" fill-rule="nonzero" fill-opacity="1" /><path clip-path="url(#clip970)" d="M1786.89 1451.02 L1805.25 1451.02 L1805.25 1454.96 L1791.17 1454.96 L1791.17 1463.43 Q1792.19 1463.08 1793.21 1462.92 Q1794.23 1462.73 1795.25 1462.73 Q1801.03 1462.73 1804.41 1465.9 Q1807.79 1469.08 1807.79 1474.49 Q1807.79 1480.07 1804.32 1483.17 Q1800.85 1486.25 1794.53 1486.25 Q1792.35 1486.25 1790.09 1485.88 Q1787.84 1485.51 1785.43 1484.77 L1785.43 1480.07 Q1787.52 1481.2 1789.74 1481.76 Q1791.96 1482.32 1794.44 1482.32 Q1798.44 1482.32 1800.78 1480.21 Q1803.12 1478.1 1803.12 1474.49 Q1803.12 1470.88 1800.78 1468.77 Q1798.44 1466.67 1794.44 1466.67 Q1792.56 1466.67 1790.69 1467.08 Q1788.84 1467.5 1786.89 1468.38 L1786.89 1451.02 Z" fill="#000000" fill-rule="nonzero" fill-opacity="1" /><path clip-path="url(#clip970)" d="M1827.01 1454.1 Q1823.4 1454.1 1821.57 1457.66 Q1819.76 1461.2 1819.76 1468.33 Q1819.76 1475.44 1821.57 1479.01 Q1823.4 1482.55 1827.01 1482.55 Q1830.64 1482.55 1832.45 1479.01 Q1834.28 1475.44 1834.28 1468.33 Q1834.28 1461.2 1832.45 1457.66 Q1830.64 1454.1 1827.01 1454.1 M1827.01 1450.39 Q1832.82 1450.39 1835.87 1455 Q1838.95 1459.58 1838.95 1468.33 Q1838.95 1477.06 1835.87 1481.67 Q1832.82 1486.25 1827.01 1486.25 Q1821.2 1486.25 1818.12 1481.67 Q1815.06 1477.06 1815.06 1468.33 Q1815.06 1459.58 1818.12 1455 Q1821.2 1450.39 1827.01 1450.39 Z" fill="#000000" fill-rule="nonzero" fill-opacity="1" /><path clip-path="url(#clip970)" d="M2237.81 1481.64 L2245.45 1481.64 L2245.45 1455.28 L2237.14 1456.95 L2237.14 1452.69 L2245.41 1451.02 L2250.08 1451.02 L2250.08 1481.64 L2257.72 1481.64 L2257.72 1485.58 L2237.81 1485.58 L2237.81 1481.64 Z" fill="#000000" fill-rule="nonzero" fill-opacity="1" /><path clip-path="url(#clip970)" d="M2277.17 1454.1 Q2273.55 1454.1 2271.73 1457.66 Q2269.92 1461.2 2269.92 1468.33 Q2269.92 1475.44 2271.73 1479.01 Q2273.55 1482.55 2277.17 1482.55 Q2280.8 1482.55 2282.61 1479.01 Q2284.43 1475.44 2284.43 1468.33 Q2284.43 1461.2 2282.61 1457.66 Q2280.8 1454.1 2277.17 1454.1 M2277.17 1450.39 Q2282.98 1450.39 2286.03 1455 Q2289.11 1459.58 2289.11 1468.33 Q2289.11 1477.06 2286.03 1481.67 Q2282.98 1486.25 2277.17 1486.25 Q2271.36 1486.25 2268.28 1481.67 Q2265.22 1477.06 2265.22 1468.33 Q2265.22 1459.58 2268.28 1455 Q2271.36 1450.39 2277.17 1450.39 Z" fill="#000000" fill-rule="nonzero" fill-opacity="1" /><path clip-path="url(#clip970)" d="M2307.33 1454.1 Q2303.72 1454.1 2301.89 1457.66 Q2300.08 1461.2 2300.08 1468.33 Q2300.08 1475.44 2301.89 1479.01 Q2303.72 1482.55 2307.33 1482.55 Q2310.96 1482.55 2312.77 1479.01 Q2314.6 1475.44 2314.6 1468.33 Q2314.6 1461.2 2312.77 1457.66 Q2310.96 1454.1 2307.33 1454.1 M2307.33 1450.39 Q2313.14 1450.39 2316.19 1455 Q2319.27 1459.58 2319.27 1468.33 Q2319.27 1477.06 2316.19 1481.67 Q2313.14 1486.25 2307.33 1486.25 Q2301.52 1486.25 2298.44 1481.67 Q2295.38 1477.06 2295.38 1468.33 Q2295.38 1459.58 2298.44 1455 Q2301.52 1450.39 2307.33 1450.39 Z" fill="#000000" fill-rule="nonzero" fill-opacity="1" /><path clip-path="url(#clip970)" d="M2337.49 1454.1 Q2333.88 1454.1 2332.05 1457.66 Q2330.24 1461.2 2330.24 1468.33 Q2330.24 1475.44 2332.05 1479.01 Q2333.88 1482.55 2337.49 1482.55 Q2341.12 1482.55 2342.93 1479.01 Q2344.76 1475.44 2344.76 1468.33 Q2344.76 1461.2 2342.93 1457.66 Q2341.12 1454.1 2337.49 1454.1 M2337.49 1450.39 Q2343.3 1450.39 2346.35 1455 Q2349.43 1459.58 2349.43 1468.33 Q2349.43 1477.06 2346.35 1481.67 Q2343.3 1486.25 2337.49 1486.25 Q2331.68 1486.25 2328.6 1481.67 Q2325.54 1477.06 2325.54 1468.33 Q2325.54 1459.58 2328.6 1455 Q2331.68 1450.39 2337.49 1450.39 Z" fill="#000000" fill-rule="nonzero" fill-opacity="1" /><path clip-path="url(#clip970)" d="M1169.88 1520.52 L1176.31 1520.52 L1176.31 1568.04 L1169.88 1568.04 L1169.88 1520.52 Z" fill="#000000" fill-rule="nonzero" fill-opacity="1" /><path clip-path="url(#clip970)" d="M1194.64 1522.27 L1194.64 1532.4 L1206.7 1532.4 L1206.7 1536.95 L1194.64 1536.95 L1194.64 1556.3 Q1194.64 1560.66 1195.82 1561.9 Q1197.03 1563.14 1200.69 1563.14 L1206.7 1563.14 L1206.7 1568.04 L1200.69 1568.04 Q1193.91 1568.04 1191.33 1565.53 Q1188.75 1562.98 1188.75 1556.3 L1188.75 1536.95 L1184.46 1536.95 L1184.46 1532.4 L1188.75 1532.4 L1188.75 1522.27 L1194.64 1522.27 Z" fill="#000000" fill-rule="nonzero" fill-opacity="1" /><path clip-path="url(#clip970)" d="M1244.9 1548.76 L1244.9 1551.62 L1217.97 1551.62 Q1218.35 1557.67 1221.6 1560.85 Q1224.88 1564 1230.7 1564 Q1234.08 1564 1237.23 1563.17 Q1240.41 1562.35 1243.53 1560.69 L1243.53 1566.23 Q1240.38 1567.57 1237.07 1568.27 Q1233.76 1568.97 1230.35 1568.97 Q1221.82 1568.97 1216.83 1564 Q1211.86 1559.04 1211.86 1550.57 Q1211.86 1541.82 1216.57 1536.69 Q1221.31 1531.54 1229.33 1531.54 Q1236.53 1531.54 1240.7 1536.18 Q1244.9 1540.8 1244.9 1548.76 M1239.04 1547.04 Q1238.98 1542.23 1236.34 1539.37 Q1233.73 1536.5 1229.4 1536.5 Q1224.5 1536.5 1221.54 1539.27 Q1218.61 1542.04 1218.16 1547.07 L1239.04 1547.04 Z" fill="#000000" fill-rule="nonzero" fill-opacity="1" /><path clip-path="url(#clip970)" d="M1275.17 1537.87 Q1274.18 1537.3 1273 1537.04 Q1271.86 1536.76 1270.46 1536.76 Q1265.49 1536.76 1262.82 1540 Q1260.18 1543.22 1260.18 1549.27 L1260.18 1568.04 L1254.29 1568.04 L1254.29 1532.4 L1260.18 1532.4 L1260.18 1537.93 Q1262.02 1534.69 1264.98 1533.13 Q1267.94 1531.54 1272.18 1531.54 Q1272.78 1531.54 1273.51 1531.63 Q1274.24 1531.7 1275.14 1531.85 L1275.17 1537.87 Z" fill="#000000" fill-rule="nonzero" fill-opacity="1" /><path clip-path="url(#clip970)" d="M1297.51 1550.12 Q1290.41 1550.12 1287.68 1551.75 Q1284.94 1553.37 1284.94 1557.29 Q1284.94 1560.4 1286.98 1562.25 Q1289.04 1564.07 1292.58 1564.07 Q1297.45 1564.07 1300.38 1560.63 Q1303.34 1557.16 1303.34 1551.43 L1303.34 1550.12 L1297.51 1550.12 M1309.19 1547.71 L1309.19 1568.04 L1303.34 1568.04 L1303.34 1562.63 Q1301.33 1565.88 1298.34 1567.44 Q1295.35 1568.97 1291.02 1568.97 Q1285.54 1568.97 1282.3 1565.91 Q1279.08 1562.82 1279.08 1557.67 Q1279.08 1551.65 1283.09 1548.6 Q1287.14 1545.54 1295.12 1545.54 L1303.34 1545.54 L1303.34 1544.97 Q1303.34 1540.93 1300.66 1538.73 Q1298.02 1536.5 1293.21 1536.5 Q1290.16 1536.5 1287.26 1537.23 Q1284.37 1537.97 1281.69 1539.43 L1281.69 1534.02 Q1284.91 1532.78 1287.93 1532.17 Q1290.95 1531.54 1293.82 1531.54 Q1301.55 1531.54 1305.37 1535.55 Q1309.19 1539.56 1309.19 1547.71 Z" fill="#000000" fill-rule="nonzero" fill-opacity="1" /><path clip-path="url(#clip970)" d="M1327.05 1522.27 L1327.05 1532.4 L1339.11 1532.4 L1339.11 1536.95 L1327.05 1536.95 L1327.05 1556.3 Q1327.05 1560.66 1328.23 1561.9 Q1329.44 1563.14 1333.1 1563.14 L1339.11 1563.14 L1339.11 1568.04 L1333.1 1568.04 Q1326.32 1568.04 1323.74 1565.53 Q1321.16 1562.98 1321.16 1556.3 L1321.16 1536.95 L1316.86 1536.95 L1316.86 1532.4 L1321.16 1532.4 L1321.16 1522.27 L1327.05 1522.27 Z" fill="#000000" fill-rule="nonzero" fill-opacity="1" /><path clip-path="url(#clip970)" d="M1346.81 1532.4 L1352.67 1532.4 L1352.67 1568.04 L1346.81 1568.04 L1346.81 1532.4 M1346.81 1518.52 L1352.67 1518.52 L1352.67 1525.93 L1346.81 1525.93 L1346.81 1518.52 Z" fill="#000000" fill-rule="nonzero" fill-opacity="1" /><path clip-path="url(#clip970)" d="M1378.74 1536.5 Q1374.03 1536.5 1371.29 1540.19 Q1368.55 1543.85 1368.55 1550.25 Q1368.55 1556.65 1371.26 1560.34 Q1374 1564 1378.74 1564 Q1383.42 1564 1386.15 1560.31 Q1388.89 1556.62 1388.89 1550.25 Q1388.89 1543.92 1386.15 1540.23 Q1383.42 1536.5 1378.74 1536.5 M1378.74 1531.54 Q1386.38 1531.54 1390.74 1536.5 Q1395.1 1541.47 1395.1 1550.25 Q1395.1 1559 1390.74 1564 Q1386.38 1568.97 1378.74 1568.97 Q1371.07 1568.97 1366.71 1564 Q1362.38 1559 1362.38 1550.25 Q1362.38 1541.47 1366.71 1536.5 Q1371.07 1531.54 1378.74 1531.54 Z" fill="#000000" fill-rule="nonzero" fill-opacity="1" /><path clip-path="url(#clip970)" d="M1434.44 1546.53 L1434.44 1568.04 L1428.58 1568.04 L1428.58 1546.72 Q1428.58 1541.66 1426.61 1539.14 Q1424.63 1536.63 1420.69 1536.63 Q1415.95 1536.63 1413.21 1539.65 Q1410.47 1542.68 1410.47 1547.9 L1410.47 1568.04 L1404.58 1568.04 L1404.58 1532.4 L1410.47 1532.4 L1410.47 1537.93 Q1412.57 1534.72 1415.4 1533.13 Q1418.27 1531.54 1421.99 1531.54 Q1428.14 1531.54 1431.29 1535.36 Q1434.44 1539.14 1434.44 1546.53 Z" fill="#000000" fill-rule="nonzero" fill-opacity="1" /><polyline clip-path="url(#clip970)" style="stroke:#000000; stroke-linecap:round; stroke-linejoin:round; stroke-width:4; stroke-opacity:1; fill:none" points="251.56,1423.18 251.56,47.2441 "/>
<polyline clip-path="url(#clip970)" style="stroke:#000000; stroke-linecap:round; stroke-linejoin:round; stroke-width:4; stroke-opacity:1; fill:none" points="251.56,1107.75 270.458,1107.75 "/>
<polyline clip-path="url(#clip970)" style="stroke:#000000; stroke-linecap:round; stroke-linejoin:round; stroke-width:4; stroke-opacity:1; fill:none" points="251.56,226.918 270.458,226.918 "/>
<path clip-path="url(#clip970)" d="M114.931 1127.54 L122.57 1127.54 L122.57 1101.18 L114.26 1102.84 L114.26 1098.59 L122.524 1096.92 L127.2 1096.92 L127.2 1127.54 L134.839 1127.54 L134.839 1131.48 L114.931 1131.48 L114.931 1127.54 Z" fill="#000000" fill-rule="nonzero" fill-opacity="1" /><path clip-path="url(#clip970)" d="M154.283 1100 Q150.672 1100 148.843 1103.56 Q147.038 1107.1 147.038 1114.23 Q147.038 1121.34 148.843 1124.9 Q150.672 1128.45 154.283 1128.45 Q157.917 1128.45 159.723 1124.9 Q161.552 1121.34 161.552 1114.23 Q161.552 1107.1 159.723 1103.56 Q157.917 1100 154.283 1100 M154.283 1096.29 Q160.093 1096.29 163.149 1100.9 Q166.227 1105.48 166.227 1114.23 Q166.227 1122.96 163.149 1127.57 Q160.093 1132.15 154.283 1132.15 Q148.473 1132.15 145.394 1127.57 Q142.339 1122.96 142.339 1114.23 Q142.339 1105.48 145.394 1100.9 Q148.473 1096.29 154.283 1096.29 Z" fill="#000000" fill-rule="nonzero" fill-opacity="1" /><path clip-path="url(#clip970)" d="M166.227 1090.39 L190.339 1090.39 L190.339 1093.59 L166.227 1093.59 L166.227 1090.39 Z" fill="#000000" fill-rule="nonzero" fill-opacity="1" /><path clip-path="url(#clip970)" d="M198.577 1075.99 L213.491 1075.99 L213.491 1079.19 L202.056 1079.19 L202.056 1086.07 Q202.884 1085.79 203.711 1085.66 Q204.539 1085.5 205.366 1085.5 Q210.068 1085.5 212.814 1088.08 Q215.56 1090.66 215.56 1095.06 Q215.56 1099.59 212.739 1102.11 Q209.918 1104.61 204.783 1104.61 Q203.015 1104.61 201.172 1104.31 Q199.348 1104.01 197.392 1103.41 L197.392 1099.59 Q199.085 1100.51 200.89 1100.96 Q202.696 1101.42 204.708 1101.42 Q207.962 1101.42 209.861 1099.7 Q211.761 1097.99 211.761 1095.06 Q211.761 1092.13 209.861 1090.41 Q207.962 1088.7 204.708 1088.7 Q203.185 1088.7 201.661 1089.04 Q200.157 1089.38 198.577 1090.09 L198.577 1075.99 Z" fill="#000000" fill-rule="nonzero" fill-opacity="1" /><path clip-path="url(#clip970)" d="M144.855 246.71 L152.493 246.71 L152.493 220.345 L144.183 222.011 L144.183 217.752 L152.447 216.085 L157.123 216.085 L157.123 246.71 L164.762 246.71 L164.762 250.645 L144.855 250.645 L144.855 246.71 Z" fill="#000000" fill-rule="nonzero" fill-opacity="1" /><path clip-path="url(#clip970)" d="M184.206 219.164 Q180.595 219.164 178.766 222.729 Q176.961 226.271 176.961 233.4 Q176.961 240.507 178.766 244.071 Q180.595 247.613 184.206 247.613 Q187.84 247.613 189.646 244.071 Q191.475 240.507 191.475 233.4 Q191.475 226.271 189.646 222.729 Q187.84 219.164 184.206 219.164 M184.206 215.46 Q190.016 215.46 193.072 220.067 Q196.151 224.65 196.151 233.4 Q196.151 242.127 193.072 246.733 Q190.016 251.317 184.206 251.317 Q178.396 251.317 175.317 246.733 Q172.262 242.127 172.262 233.4 Q172.262 224.65 175.317 220.067 Q178.396 215.46 184.206 215.46 Z" fill="#000000" fill-rule="nonzero" fill-opacity="1" /><path clip-path="url(#clip970)" d="M205.855 197.657 Q202.921 197.657 201.436 200.553 Q199.969 203.431 199.969 209.223 Q199.969 214.997 201.436 217.894 Q202.921 220.771 205.855 220.771 Q208.808 220.771 210.275 217.894 Q211.761 214.997 211.761 209.223 Q211.761 203.431 210.275 200.553 Q208.808 197.657 205.855 197.657 M205.855 194.647 Q210.576 194.647 213.059 198.39 Q215.56 202.114 215.56 209.223 Q215.56 216.314 213.059 220.057 Q210.576 223.781 205.855 223.781 Q201.135 223.781 198.633 220.057 Q196.151 216.314 196.151 209.223 Q196.151 202.114 198.633 198.39 Q201.135 194.647 205.855 194.647 Z" fill="#000000" fill-rule="nonzero" fill-opacity="1" /><path clip-path="url(#clip970)" d="M33.7671 1042.8 L14.479 1042.8 L14.479 1036.95 L64.0042 1036.95 L64.0042 1042.8 L58.657 1042.8 Q61.8398 1044.65 63.3994 1047.48 Q64.9272 1050.28 64.9272 1054.23 Q64.9272 1060.69 59.771 1064.76 Q54.6147 1068.81 46.212 1068.81 Q37.8093 1068.81 32.6531 1064.76 Q27.4968 1060.69 27.4968 1054.23 Q27.4968 1050.28 29.0564 1047.48 Q30.5842 1044.65 33.7671 1042.8 M46.212 1062.76 Q52.6732 1062.76 56.3653 1060.12 Q60.0256 1057.44 60.0256 1052.8 Q60.0256 1048.15 56.3653 1045.48 Q52.6732 1042.8 46.212 1042.8 Q39.7508 1042.8 36.0905 1045.48 Q32.3984 1048.15 32.3984 1052.8 Q32.3984 1057.44 36.0905 1060.12 Q39.7508 1062.76 46.212 1062.76 Z" fill="#000000" fill-rule="nonzero" fill-opacity="1" /><path clip-path="url(#clip970)" d="M28.3562 1024.88 L28.3562 1019.03 L64.0042 1019.03 L64.0042 1024.88 L28.3562 1024.88 M14.479 1024.88 L14.479 1019.03 L21.895 1019.03 L21.895 1024.88 L14.479 1024.88 Z" fill="#000000" fill-rule="nonzero" fill-opacity="1" /><path clip-path="url(#clip970)" d="M29.4065 984.047 L34.9447 984.047 Q33.6716 986.53 33.035 989.204 Q32.3984 991.877 32.3984 994.742 Q32.3984 999.102 33.7352 1001.3 Q35.072 1003.46 37.7456 1003.46 Q39.7826 1003.46 40.9603 1001.9 Q42.1061 1000.34 43.1565 995.633 L43.6021 993.628 Q44.9389 987.389 47.3897 984.779 Q49.8086 982.138 54.1691 982.138 Q59.1344 982.138 62.0308 986.084 Q64.9272 989.999 64.9272 996.874 Q64.9272 999.739 64.3543 1002.86 Q63.8132 1005.95 62.6992 1009.38 L56.6518 1009.38 Q58.3387 1006.14 59.198 1002.99 Q60.0256 999.834 60.0256 996.747 Q60.0256 992.609 58.6251 990.381 Q57.1929 988.153 54.6147 988.153 Q52.2276 988.153 50.9545 989.777 Q49.6813 991.368 48.5037 996.811 L48.0262 998.848 Q46.8804 1004.29 44.5251 1006.71 Q42.138 1009.13 38.0002 1009.13 Q32.9713 1009.13 30.2341 1005.56 Q27.4968 1002 27.4968 995.442 Q27.4968 992.196 27.9743 989.331 Q28.4517 986.466 29.4065 984.047 Z" fill="#000000" fill-rule="nonzero" fill-opacity="1" /><path clip-path="url(#clip970)" d="M18.2347 967.019 L28.3562 967.019 L28.3562 954.956 L32.9077 954.956 L32.9077 967.019 L52.2594 967.019 Q56.6199 967.019 57.8613 965.842 Q59.1026 964.632 59.1026 960.972 L59.1026 954.956 L64.0042 954.956 L64.0042 960.972 Q64.0042 967.751 61.4897 970.329 Q58.9434 972.907 52.2594 972.907 L32.9077 972.907 L32.9077 977.204 L28.3562 977.204 L28.3562 972.907 L18.2347 972.907 L18.2347 967.019 Z" fill="#000000" fill-rule="nonzero" fill-opacity="1" /><path clip-path="url(#clip970)" d="M46.0847 931.053 Q46.0847 938.151 47.7079 940.888 Q49.3312 943.625 53.2461 943.625 Q56.3653 943.625 58.2114 941.588 Q60.0256 939.519 60.0256 935.986 Q60.0256 931.117 56.5881 928.188 Q53.1188 925.228 47.3897 925.228 L46.0847 925.228 L46.0847 931.053 M43.6657 919.372 L64.0042 919.372 L64.0042 925.228 L58.5933 925.228 Q61.8398 927.234 63.3994 930.225 Q64.9272 933.217 64.9272 937.546 Q64.9272 943.02 61.8716 946.267 Q58.7843 949.482 53.6281 949.482 Q47.6125 949.482 44.5569 945.471 Q41.5014 941.429 41.5014 933.44 L41.5014 925.228 L40.9285 925.228 Q36.8862 925.228 34.6901 927.902 Q32.4621 930.544 32.4621 935.35 Q32.4621 938.405 33.1941 941.302 Q33.9262 944.198 35.3903 946.872 L29.9795 946.872 Q28.7381 943.657 28.1334 940.633 Q27.4968 937.61 27.4968 934.745 Q27.4968 927.011 31.5072 923.191 Q35.5176 919.372 43.6657 919.372 Z" fill="#000000" fill-rule="nonzero" fill-opacity="1" /><path clip-path="url(#clip970)" d="M42.4881 877.676 L64.0042 877.676 L64.0042 883.533 L42.679 883.533 Q37.6183 883.533 35.1038 885.506 Q32.5894 887.48 32.5894 891.426 Q32.5894 896.169 35.6131 898.906 Q38.6368 901.643 43.8567 901.643 L64.0042 901.643 L64.0042 907.532 L28.3562 907.532 L28.3562 901.643 L33.8944 901.643 Q30.6797 899.543 29.0883 896.71 Q27.4968 893.845 27.4968 890.121 Q27.4968 883.979 31.3163 880.828 Q35.1038 877.676 42.4881 877.676 Z" fill="#000000" fill-rule="nonzero" fill-opacity="1" /><path clip-path="url(#clip970)" d="M29.7248 840.342 L35.1993 840.342 Q33.8307 842.824 33.1623 845.339 Q32.4621 847.821 32.4621 850.368 Q32.4621 856.065 36.0905 859.216 Q39.6872 862.367 46.212 862.367 Q52.7369 862.367 56.3653 859.216 Q59.9619 856.065 59.9619 850.368 Q59.9619 847.821 59.2935 845.339 Q58.5933 842.824 57.2247 840.342 L62.6355 840.342 Q63.7814 842.792 64.3543 845.434 Q64.9272 848.044 64.9272 851.004 Q64.9272 859.057 59.8664 863.799 Q54.8057 868.542 46.212 868.542 Q37.491 868.542 32.4939 863.767 Q27.4968 858.961 27.4968 850.622 Q27.4968 847.917 28.0697 845.339 Q28.6108 842.761 29.7248 840.342 Z" fill="#000000" fill-rule="nonzero" fill-opacity="1" /><path clip-path="url(#clip970)" d="M44.7161 799.665 L47.5806 799.665 L47.5806 826.592 Q53.6281 826.21 56.8109 822.963 Q59.9619 819.685 59.9619 813.86 Q59.9619 810.486 59.1344 807.335 Q58.3069 804.153 56.6518 801.033 L62.1899 801.033 Q63.5267 804.184 64.227 807.495 Q64.9272 810.805 64.9272 814.21 Q64.9272 822.74 59.9619 827.738 Q54.9967 832.703 46.5303 832.703 Q37.7774 832.703 32.6531 827.992 Q27.4968 823.25 27.4968 815.229 Q27.4968 808.036 32.1438 803.866 Q36.7589 799.665 44.7161 799.665 M42.9973 805.521 Q38.1912 805.585 35.3266 808.227 Q32.4621 810.837 32.4621 815.165 Q32.4621 820.067 35.2312 823.027 Q38.0002 825.955 43.0292 826.401 L42.9973 805.521 Z" fill="#000000" fill-rule="nonzero" fill-opacity="1" /><path clip-path="url(#clip970)" d="M18.2347 763.539 L28.3562 763.539 L28.3562 751.476 L32.9077 751.476 L32.9077 763.539 L52.2594 763.539 Q56.6199 763.539 57.8613 762.362 Q59.1026 761.152 59.1026 757.492 L59.1026 751.476 L64.0042 751.476 L64.0042 757.492 Q64.0042 764.271 61.4897 766.85 Q58.9434 769.428 52.2594 769.428 L32.9077 769.428 L32.9077 773.724 L28.3562 773.724 L28.3562 769.428 L18.2347 769.428 L18.2347 763.539 Z" fill="#000000" fill-rule="nonzero" fill-opacity="1" /><path clip-path="url(#clip970)" d="M32.4621 729.96 Q32.4621 734.671 36.1542 737.408 Q39.8145 740.145 46.212 740.145 Q52.6095 740.145 56.3017 737.44 Q59.9619 734.703 59.9619 729.96 Q59.9619 725.281 56.2698 722.544 Q52.5777 719.807 46.212 719.807 Q39.8781 719.807 36.186 722.544 Q32.4621 725.281 32.4621 729.96 M27.4968 729.96 Q27.4968 722.321 32.4621 717.961 Q37.4273 713.6 46.212 713.6 Q54.9649 713.6 59.9619 717.961 Q64.9272 722.321 64.9272 729.96 Q64.9272 737.631 59.9619 741.991 Q54.9649 746.32 46.212 746.32 Q37.4273 746.32 32.4621 741.991 Q27.4968 737.631 27.4968 729.96 Z" fill="#000000" fill-rule="nonzero" fill-opacity="1" /><path clip-path="url(#clip970)" d="M32.4621 669.359 Q32.4621 674.069 36.1542 676.807 Q39.8145 679.544 46.212 679.544 Q52.6095 679.544 56.3017 676.838 Q59.9619 674.101 59.9619 669.359 Q59.9619 664.68 56.2698 661.943 Q52.5777 659.205 46.212 659.205 Q39.8781 659.205 36.186 661.943 Q32.4621 664.68 32.4621 669.359 M27.4968 669.359 Q27.4968 661.72 32.4621 657.359 Q37.4273 652.999 46.212 652.999 Q54.9649 652.999 59.9619 657.359 Q64.9272 661.72 64.9272 669.359 Q64.9272 677.029 59.9619 681.39 Q54.9649 685.719 46.212 685.719 Q37.4273 685.719 32.4621 681.39 Q27.4968 677.029 27.4968 669.359 Z" fill="#000000" fill-rule="nonzero" fill-opacity="1" /><path clip-path="url(#clip970)" d="M58.657 637.626 L77.5631 637.626 L77.5631 643.514 L28.3562 643.514 L28.3562 637.626 L33.7671 637.626 Q30.5842 635.78 29.0564 632.979 Q27.4968 630.146 27.4968 626.231 Q27.4968 619.738 32.6531 615.696 Q37.8093 611.622 46.212 611.622 Q54.6147 611.622 59.771 615.696 Q64.9272 619.738 64.9272 626.231 Q64.9272 630.146 63.3994 632.979 Q61.8398 635.78 58.657 637.626 M46.212 617.701 Q39.7508 617.701 36.0905 620.375 Q32.3984 623.016 32.3984 627.663 Q32.3984 632.31 36.0905 634.984 Q39.7508 637.626 46.212 637.626 Q52.6732 637.626 56.3653 634.984 Q60.0256 632.31 60.0256 627.663 Q60.0256 623.016 56.3653 620.375 Q52.6732 617.701 46.212 617.701 Z" fill="#000000" fill-rule="nonzero" fill-opacity="1" /><path clip-path="url(#clip970)" d="M18.2347 596.121 L28.3562 596.121 L28.3562 584.058 L32.9077 584.058 L32.9077 596.121 L52.2594 596.121 Q56.6199 596.121 57.8613 594.944 Q59.1026 593.734 59.1026 590.074 L59.1026 584.058 L64.0042 584.058 L64.0042 590.074 Q64.0042 596.853 61.4897 599.431 Q58.9434 602.01 52.2594 602.01 L32.9077 602.01 L32.9077 606.306 L28.3562 606.306 L28.3562 602.01 L18.2347 602.01 L18.2347 596.121 Z" fill="#000000" fill-rule="nonzero" fill-opacity="1" /><path clip-path="url(#clip970)" d="M28.3562 576.356 L28.3562 570.499 L64.0042 570.499 L64.0042 576.356 L28.3562 576.356 M14.479 576.356 L14.479 570.499 L21.895 570.499 L21.895 576.356 L14.479 576.356 Z" fill="#000000" fill-rule="nonzero" fill-opacity="1" /><path clip-path="url(#clip970)" d="M35.1993 530.491 Q31.2526 528.295 29.3747 525.239 Q27.4968 522.184 27.4968 518.046 Q27.4968 512.476 31.4117 509.452 Q35.2948 506.428 42.4881 506.428 L64.0042 506.428 L64.0042 512.317 L42.679 512.317 Q37.5546 512.317 35.072 514.131 Q32.5894 515.945 32.5894 519.669 Q32.5894 524.221 35.6131 526.862 Q38.6368 529.504 43.8567 529.504 L64.0042 529.504 L64.0042 535.392 L42.679 535.392 Q37.5228 535.392 35.072 537.207 Q32.5894 539.021 32.5894 542.808 Q32.5894 547.296 35.6449 549.938 Q38.6686 552.58 43.8567 552.58 L64.0042 552.58 L64.0042 558.468 L28.3562 558.468 L28.3562 552.58 L33.8944 552.58 Q30.616 550.575 29.0564 547.774 Q27.4968 544.973 27.4968 541.122 Q27.4968 537.238 29.4702 534.533 Q31.4436 531.796 35.1993 530.491 Z" fill="#000000" fill-rule="nonzero" fill-opacity="1" /><path clip-path="url(#clip970)" d="M49.9359 495.352 L28.3562 495.352 L28.3562 489.496 L49.7131 489.496 Q54.7739 489.496 57.3202 487.522 Q59.8346 485.549 59.8346 481.602 Q59.8346 476.86 56.8109 474.123 Q53.7872 471.353 48.5673 471.353 L28.3562 471.353 L28.3562 465.497 L64.0042 465.497 L64.0042 471.353 L58.5296 471.353 Q61.7762 473.486 63.3676 476.319 Q64.9272 479.12 64.9272 482.844 Q64.9272 488.986 61.1078 492.169 Q57.2883 495.352 49.9359 495.352 M27.4968 480.616 L27.4968 480.616 Z" fill="#000000" fill-rule="nonzero" fill-opacity="1" /><path clip-path="url(#clip970)" d="M35.1993 425.679 Q31.2526 423.483 29.3747 420.428 Q27.4968 417.372 27.4968 413.235 Q27.4968 407.665 31.4117 404.641 Q35.2948 401.617 42.4881 401.617 L64.0042 401.617 L64.0042 407.505 L42.679 407.505 Q37.5546 407.505 35.072 409.32 Q32.5894 411.134 32.5894 414.858 Q32.5894 419.409 35.6131 422.051 Q38.6368 424.693 43.8567 424.693 L64.0042 424.693 L64.0042 430.581 L42.679 430.581 Q37.5228 430.581 35.072 432.395 Q32.5894 434.21 32.5894 437.997 Q32.5894 442.485 35.6449 445.127 Q38.6686 447.768 43.8567 447.768 L64.0042 447.768 L64.0042 453.657 L28.3562 453.657 L28.3562 447.768 L33.8944 447.768 Q30.616 445.763 29.0564 442.962 Q27.4968 440.161 27.4968 436.31 Q27.4968 432.427 29.4702 429.722 Q31.4436 426.984 35.1993 425.679 Z" fill="#000000" fill-rule="nonzero" fill-opacity="1" /><polyline clip-path="url(#clip972)" style="stroke:#009af9; stroke-linecap:round; stroke-linejoin:round; stroke-width:4; stroke-opacity:1; fill:none" points="311.028,86.1857 313.012,86.5525 314.997,86.9226 316.981,87.2912 318.965,87.6588 320.949,88.0257 322.934,88.3848 324.918,88.7362 326.902,89.0893 328.886,89.4452 330.87,89.7999 332.855,90.1624 334.839,90.5313 336.823,90.8964 338.807,91.2658 340.792,91.6353 342.776,92.0069 344.76,92.3792 346.744,92.7555 348.729,93.1339 350.713,93.5202 352.697,93.895 354.681,94.2662 356.666,94.6283 358.65,94.9852 360.634,95.3352 362.618,95.691 364.603,96.0615 366.587,96.437 368.571,96.814 370.555,97.1898 372.54,97.5758 374.524,97.956 376.508,98.3403 378.492,98.7295 380.477,99.1141 382.461,99.5093 384.445,99.9127 386.429,100.31 388.414,100.71 390.398,101.115 392.382,101.523 394.366,101.926 396.351,102.331 398.335,102.736 400.319,103.15 402.303,103.561 404.288,103.968 406.272,104.357 408.256,104.745 410.24,105.13 412.225,105.519 414.209,105.901 416.193,106.288 418.177,106.67 420.161,107.054 422.146,107.451 424.13,107.849 426.114,108.234 428.098,108.626 430.083,109.018 432.067,109.421 434.051,109.831 436.035,110.253 438.02,110.667 440.004,111.068 441.988,111.462 443.972,111.852 445.957,112.25 447.941,112.651 449.925,113.052 451.909,113.448 453.894,113.846 455.878,114.256 457.862,114.648 459.846,115.033 461.831,115.42 463.815,115.817 465.799,116.202 467.783,116.586 469.768,116.963 471.752,117.336 473.736,117.708 475.72,118.079 477.705,118.465 479.689,118.855 481.673,119.245 483.657,119.648 485.642,120.064 487.626,120.48 489.61,120.895 491.594,121.302 493.579,121.701 495.563,122.092 497.547,122.48 499.531,122.873 501.516,123.266 503.5,123.652 505.484,124.035 507.468,124.416 509.452,124.822 511.437,125.227 513.421,125.63 515.405,126.044 517.389,126.482 519.374,126.912 521.358,127.345 523.342,127.765 525.326,128.186 527.311,128.612 529.295,129.049 531.279,129.492 533.263,129.924 535.248,130.352 537.232,130.771 539.216,131.187 541.2,131.59 543.185,132.016 545.169,132.436 547.153,132.839 549.137,133.263 551.122,133.698 553.106,134.136 555.09,134.579 557.074,135.018 559.059,135.457 561.043,135.879 563.027,136.321 565.011,136.774 566.996,137.237 568.98,137.685 570.964,138.136 572.948,138.566 574.933,138.999 576.917,139.431 578.901,139.854 580.885,140.276 582.87,140.72 584.854,141.187 586.838,141.644 588.822,142.098 590.806,142.539 592.791,142.958 594.775,143.359 596.759,143.761 598.743,144.171 600.728,144.582 602.712,144.988 604.696,145.389 606.68,145.809 608.665,146.233 610.649,146.652 612.633,147.088 614.617,147.518 616.602,147.929 618.586,148.363 620.57,148.797 622.554,149.257 624.539,149.752 626.523,150.255 628.507,150.761 630.491,151.231 632.476,151.675 634.46,152.099 636.444,152.529 638.428,152.974 640.413,153.434 642.397,153.895 644.381,154.371 646.365,154.837 648.35,155.299 650.334,155.743 652.318,156.19 654.302,156.657 656.287,157.116 658.271,157.581 660.255,158.044 662.239,158.515 664.224,158.973 666.208,159.426 668.192,159.844 670.176,160.277 672.161,160.688 674.145,161.09 676.129,161.499 678.113,161.889 680.097,162.31 682.082,162.739 684.066,163.148 686.05,163.588 688.034,164.037 690.019,164.493 692.003,164.917 693.987,165.328 695.971,165.74 697.956,166.187 699.94,166.605 701.924,167.013 703.908,167.417 705.893,167.797 707.877,168.18 709.861,168.52 711.845,168.874 713.83,169.269 715.814,169.67 717.798,170.072 719.782,170.488 721.767,170.9 723.751,171.347 725.735,171.785 727.719,172.237 729.704,172.746 731.688,173.261 733.672,173.8 735.656,174.307 737.641,174.779 739.625,175.248 741.609,175.742 743.593,176.206 745.578,176.681 747.562,177.167 749.546,177.656 751.53,178.129 753.515,178.578 755.499,179.056 757.483,179.533 759.467,180.045 761.452,180.581 763.436,181.106 765.42,181.632 767.404,182.178 769.388,182.737 771.373,183.237 773.357,183.709 775.341,184.153 777.325,184.569 779.31,185.004 781.294,185.454 783.278,185.897 785.262,186.341 787.247,186.774 789.231,187.209 791.215,187.706 793.199,188.217 795.184,188.674 797.168,189.089 799.152,189.499 801.136,189.915 803.121,190.307 805.105,190.705 807.089,191.132 809.073,191.598 811.058,192.037 813.042,192.501 815.026,192.919 817.01,193.364 818.995,193.816 820.979,194.269 822.963,194.744 824.947,195.247 826.932,195.682 828.916,196.14 830.9,196.568 832.884,197.017 834.869,197.516 836.853,198.021 838.837,198.536 840.821,199.116 842.806,199.657 844.79,200.203 846.774,200.735 848.758,201.236 850.743,201.718 852.727,202.229 854.711,202.747 856.695,203.251 858.679,203.798 860.664,204.361 862.648,204.863 864.632,205.383 866.616,205.966 868.601,206.529 870.585,207.108 872.569,207.684 874.553,208.248 876.538,208.809 878.522,209.411 880.506,209.963 882.49,210.552 884.475,211.145 886.459,211.695 888.443,212.202 890.427,212.688 892.412,213.095 894.396,213.536 896.38,213.973 898.364,214.494 900.349,215.064 902.333,215.572 904.317,216.072 906.301,216.557 908.286,216.977 910.27,217.423 912.254,217.838 914.238,218.273 916.223,218.786 918.207,219.271 920.191,219.812 922.175,220.326 924.16,220.841 926.144,221.398 928.128,221.95 930.112,222.514 932.097,223.069 934.081,223.644 936.065,224.238 938.049,224.789 940.033,225.266 942.018,225.724 944.002,226.235 945.986,226.716 947.97,227.206 949.955,227.68 951.939,228.169 953.923,228.677 955.907,229.123 957.892,229.648 959.876,230.218 961.86,230.801 963.844,231.395 965.829,231.956 967.813,232.472 969.797,233.056 971.781,233.683 973.766,234.355 975.75,234.987 977.734,235.449 979.718,235.946 981.703,236.419 983.687,236.806 985.671,237.241 987.655,237.745 989.64,238.246 991.624,238.606 993.608,238.983 995.592,239.365 997.577,239.751 999.561,240.291 1001.55,240.92 1003.53,241.602 1005.51,242.087 1007.5,242.543 1009.48,242.927 1011.47,243.268 1013.45,243.602 1015.43,243.962 1017.42,244.284 1019.4,244.727 1021.39,245.196 1023.37,245.799 1025.36,246.468 1027.34,247.142 1029.32,247.779 1031.31,248.543 1033.29,249.328 1035.28,250.061 1037.26,250.885 1039.25,251.819 1041.23,252.657 1043.21,253.551 1045.2,254.425 1047.18,255.327 1049.17,256.131 1051.15,256.93 1053.14,257.649 1055.12,258.103 1057.1,258.596 1059.09,259.183 1061.07,259.763 1063.06,260.316 1065.04,260.668 1067.03,261.036 1069.01,261.368 1070.99,261.774 1072.98,262.297 1074.96,262.983 1076.95,263.458 1078.93,263.734 1080.91,264.021 1082.9,264.484 1084.88,265.125 1086.87,265.659 1088.85,266.078 1090.84,266.481 1092.82,266.897 1094.8,267.293 1096.79,267.744 1098.77,268.164 1100.76,268.533 1102.74,268.966 1104.73,269.441 1106.71,269.863 1108.69,270.303 1110.68,270.762 1112.66,271.296 1114.65,271.676 1116.63,271.914 1118.62,272.215 1120.6,272.592 1122.58,272.816 1124.57,273.046 1126.55,273.37 1128.54,273.808 1130.52,274.088 1132.51,274.33 1134.49,274.483 1136.47,274.776 1138.46,274.997 1140.44,275.277 1142.43,275.461 1144.41,275.556 1146.39,275.616 1148.38,275.812 1150.36,275.989 1152.35,276.111 1154.33,276.238 1156.32,276.252 1158.3,276.406 1160.28,276.573 1162.27,276.615 1164.25,276.472 1166.24,276.405 1168.22,276.223 1170.21,276.245 1172.19,276.17 1174.17,275.952 1176.16,275.778 1178.14,275.562 1180.13,275.607 1182.11,275.725 1184.1,275.846 1186.08,276.052 1188.06,276.237 1190.05,276.381 1192.03,276.489 1194.02,276.7 1196,277.003 1197.99,277.408 1199.97,277.871 1201.95,278.256 1203.94,278.645 1205.92,279.222 1207.91,279.709 1209.89,280.201 1211.87,280.77 1213.86,281.079 1215.84,281.434 1217.83,281.682 1219.81,282.012 1221.8,282.444 1223.78,282.916 1225.76,283.451 1227.75,283.995 1229.73,284.557 1231.72,285.246 1233.7,285.964 1235.69,286.731 1237.67,287.461 1239.65,288.104 1241.64,288.703 1243.62,289.329 1245.61,290.113 1247.59,290.856 1249.58,291.509 1251.56,292.209 1253.54,292.972 1255.53,293.446 1257.51,294.04 1259.5,294.453 1261.48,294.902 1263.47,295.273 1265.45,295.671 1267.43,296.048 1269.42,296.603 1271.4,297.238 1273.39,297.894 1275.37,298.381 1277.36,298.829 1279.34,299.341 1281.32,299.822 1283.31,300.163 1285.29,300.604 1287.28,300.903 1289.26,301.349 1291.24,301.95 1293.23,302.617 1295.21,303.093 1297.2,303.635 1299.18,304.555 1301.17,305.333 1303.15,305.618 1305.13,306.033 1307.12,306.683 1309.1,307.322 1311.09,307.773 1313.07,308.509 1315.06,309.539 1317.04,310.311 1319.02,310.968 1321.01,311.51 1322.99,312.151 1324.98,312.691 1326.96,313.168 1328.95,313.348 1330.93,313.576 1332.91,314.144 1334.9,314.691 1336.88,315.007 1338.87,315.128 1340.85,315.195 1342.84,315.238 1344.82,315.229 1346.8,315.262 1348.79,315.029 1350.77,314.967 1352.76,315.048 1354.74,315.059 1356.72,314.942 1358.71,314.814 1360.69,314.674 1362.68,314.521 1364.66,314.322 1366.65,314.336 1368.63,314.421 1370.61,314.65 1372.6,314.754 1374.58,314.533 1376.57,314.311 1378.55,314.031 1380.54,313.809 1382.52,313.617 1384.5,313.358 1386.49,313.308 1388.47,313.016 1390.46,312.731 1392.44,312.627 1394.43,312.534 1396.41,312.896 1398.39,313.503 1400.38,313.997 1402.36,314.665 1404.35,315.777 1406.33,316.707 1408.32,317.217 1410.3,317.784 1412.28,318.186 1414.27,318.389 1416.25,318.559 1418.24,318.506 1420.22,318.233 1422.2,317.941 1424.19,317.718 1426.17,317.534 1428.16,317.573 1430.14,317.68 1432.13,317.949 1434.11,317.928 1436.09,318.51 1438.08,318.764 1440.06,318.97 1442.05,318.821 1444.03,319.044 1446.02,319.057 1448,318.883 1449.98,319.034 1451.97,319.026 1453.95,318.779 1455.94,318.485 1457.92,319.02 1459.91,319.406 1461.89,319.686 1463.87,320.01 1465.86,320.415 1467.84,320.782 1469.83,320.98 1471.81,320.784 1473.8,320.507 1475.78,320.152 1477.76,320.208 1479.75,320.344 1481.73,320.638 1483.72,320.72 1485.7,320.754 1487.68,320.631 1489.67,320.308 1491.65,320.132 1493.64,319.845 1495.62,319.609 1497.61,319.569 1499.59,319.323 1501.57,319 1503.56,318.667 1505.54,318.372 1507.53,318.069 1509.51,317.848 1511.5,317.668 1513.48,317.863 1515.46,317.669 1517.45,317.335 1519.43,317.028 1521.42,316.948 1523.4,316.824 1525.39,316.457 1527.37,316.645 1529.35,317.204 1531.34,318.19 1533.32,318.619 1535.31,319.097 1537.29,319.15 1539.28,319.388 1541.26,320.121 1543.24,320.704 1545.23,321.247 1547.21,321.844 1549.2,322.418 1551.18,322.364 1553.16,322.183 1555.15,321.918 1557.13,321.796 1559.12,321.558 1561.1,321.33 1563.09,321.41 1565.07,321.295 1567.05,320.956 1569.04,320.404 1571.02,320.531 1573.01,320.674 1574.99,320.901 1576.98,321.225 1578.96,321.616 1580.94,321.814 1582.93,322.135 1584.91,322.481 1586.9,323.275 1588.88,324.223 1590.87,325.145 1592.85,325.924 1594.83,326.215 1596.82,326.485 1598.8,327.019 1600.79,327.399 1602.77,327.877 1604.76,328.122 1606.74,328.38 1608.72,328.634 1610.71,328.593 1612.69,328.714 1614.68,329.016 1616.66,329.384 1618.65,329.612 1620.63,329.699 1622.61,330.093 1624.6,330.547 1626.58,331.091 1628.57,331.418 1630.55,332.188 1632.53,332.621 1634.52,332.813 1636.5,332.918 1638.49,333.027 1640.47,333.08 1642.46,332.784 1644.44,332.697 1646.42,332.655 1648.41,332.661 1650.39,332.7 1652.38,332.763 1654.36,332.772 1656.35,332.742 1658.33,332.798 1660.31,332.528 1662.3,332.431 1664.28,332.189 1666.27,331.744 1668.25,331.563 1670.24,332.549 1672.22,333.403 1674.2,334.404 1676.19,335.251 1678.17,335.885 1680.16,336.309 1682.14,336.898 1684.13,336.777 1686.11,336.615 1688.09,336.142 1690.08,335.276 1692.06,334.327 1694.05,333.597 1696.03,333.809 1698.01,334.62 1700,335.315 1701.98,335.75 1703.97,335.996 1705.95,335.858 1707.94,335.383 1709.92,335.691 1711.9,335.578 1713.89,335.616 1715.87,335.466 1717.86,335.19 1719.84,334.756 1721.83,334.106 1723.81,333.359 1725.79,332.661 1727.78,332.15 1729.76,331.425 1731.75,330.734 1733.73,330.302 1735.72,329.899 1737.7,329.533 1739.68,329.161 1741.67,328.825 1743.65,328.415 1745.64,327.892 1747.62,328.313 1749.61,328.442 1751.59,328.634 1753.57,328.777 1755.56,328.793 1757.54,328.618 1759.53,328.19 1761.51,327.642 1763.49,326.884 1765.48,326.038 1767.46,324.997 1769.45,324.162 1771.43,323.249 1773.42,322.43 1775.4,322.058 1777.38,321.423 1779.37,321.193 1781.35,321.27 1783.34,321.595 1785.32,322.116 1787.31,322.581 1789.29,323.262 1791.27,323.679 1793.26,324.007 1795.24,325.041 1797.23,326.039 1799.21,327.013 1801.2,328.103 1803.18,328.836 1805.16,329.279 1807.15,329.477 1809.13,329.638 1811.12,329.783 1813.1,329.747 1815.09,329.651 1817.07,329.613 1819.05,329.702 1821.04,329.707 1823.02,329.734 1825.01,329.676 1826.99,329.399 1828.97,329.235 1830.96,330.132 1832.94,330.675 1834.93,331.081 1836.91,331.452 1838.9,332.282 1840.88,333.307 1842.86,334.147 1844.85,334.866 1846.83,335.8 1848.82,336.736 1850.8,338.042 1852.79,338.952 1854.77,339.574 1856.75,340.09 1858.74,340.182 1860.72,340.169 1862.71,340.331 1864.69,340.807 1866.68,341.021 1868.66,340.803 1870.64,340.529 1872.63,340.062 1874.61,339.677 1876.6,339.261 1878.58,339.318 1880.57,339.241 1882.55,339.025 1884.53,339.362 1886.52,339.658 1888.5,339.186 1890.49,338.304 1892.47,337.012 1894.46,335.475 1896.44,333.823 1898.42,332.167 1900.41,330.632 1902.39,329.432 1904.38,328.365 1906.36,327.414 1908.34,327.038 1910.33,326.754 1912.31,326.573 1914.3,326.341 1916.28,326.135 1918.27,325.807 1920.25,325.275 1922.23,325.725 1924.22,326.283 1926.2,326.666 1928.19,327.159 1930.17,327.649 1932.16,328.012 1934.14,328.465 1936.12,328.432 1938.11,328.559 1940.09,328.368 1942.08,328.175 1944.06,328.132 1946.05,327.997 1948.03,327.518 1950.01,326.827 1952,326.044 1953.98,325.38 1955.97,324.847 1957.95,324.335 1959.94,324.189 1961.92,323.863 1963.9,323.624 1965.89,323.29 1967.87,323.071 1969.86,322.961 1971.84,322.803 1973.82,322.855 1975.81,322.874 1977.79,323.488 1979.78,323.715 1981.76,324.022 1983.75,324.1 1985.73,324.174 1987.71,323.961 1989.7,323.679 1991.68,323.17 1993.67,322.554 1995.65,322.153 1997.64,321.894 1999.62,322.283 2001.6,322.588 2003.59,322.914 2005.57,323.126 2007.56,323.432 2009.54,324.055 2011.53,324.495 2013.51,324.996 2015.49,325.472 2017.48,325.872 2019.46,326.71 2021.45,327.706 2023.43,328.22 2025.42,329.095 2027.4,329.49 2029.38,329.355 2031.37,329.274 2033.35,328.894 2035.34,328.834 2037.32,328.61 2039.3,328.307 2041.29,328.051 2043.27,327.838 2045.26,327.45 2047.24,326.873 2049.23,326.716 2051.21,326.466 2053.19,326.159 2055.18,325.809 2057.16,325.578 2059.15,325.653 2061.13,325.944 2063.12,326.429 2065.1,327.026 2067.08,327.573 2069.07,327.649 2071.05,327.84 2073.04,328.047 2075.02,327.871 2077.01,327.612 2078.99,326.98 2080.97,326.453 2082.96,325.601 2084.94,324.771 2086.93,324.062 2088.91,323.639 2090.9,322.701 2092.88,321.578 2094.86,320.682 2096.85,319.716 2098.83,318.927 2100.82,318.034 2102.8,316.962 2104.78,317.045 2106.77,317.047 2108.75,317.067 2110.74,316.998 2112.72,316.73 2114.71,316.387 2116.69,315.9 2118.67,315.282 2120.66,314.475 2122.64,313.55 2124.63,312.58 2126.61,311.688 2128.6,310.786 2130.58,310.544 2132.56,310.261 2134.55,310.132 2136.53,309.985 2138.52,310.498 2140.5,310.879 2142.49,311.147 2144.47,311.239 2146.45,311.607 2148.44,311.625 2150.42,311.454 2152.41,311.663 2154.39,311.605 2156.38,311.538 2158.36,311.566 2160.34,311.373 2162.33,311.19 2164.31,310.928 2166.3,311.136 2168.28,311.351 2170.26,311.852 2172.25,312.353 2174.23,313.41 2176.22,314.334 2178.2,315.001 2180.19,315.467 2182.17,316.177 2184.15,317.079 2186.14,318.078 2188.12,319.037 2190.11,319.853 2192.09,320.621 2194.08,321.648 2196.06,322.671 2198.04,323.125 2200.03,323.625 2202.01,323.977 2204,324.314 2205.98,324.756 2207.97,324.92 2209.95,325.157 2211.93,325.058 2213.92,324.83 2215.9,324.515 2217.89,324.065 2219.87,323.69 2221.86,323.44 2223.84,323.04 2225.82,322.695 2227.81,322.324 2229.79,321.872 2231.78,321.636 2233.76,321.601 2235.75,321.474 2237.73,321.463 2239.71,321.609 2241.7,321.305 2243.68,321.076 2245.67,320.81 2247.65,320.809 2249.63,320.95 2251.62,320.858 2253.6,320.841 2255.59,320.577 2257.57,320.266 2259.56,319.804 2261.54,319.211 2263.52,318.968 2265.51,318.865 2267.49,318.591 2269.48,318.612 2271.46,318.582 2273.45,318.557 2275.43,318.792 2277.41,318.963 2279.4,319.297 2281.38,319.524 2283.37,319.603 2285.35,319.734 2287.34,319.744 2289.32,319.886 2291.3,320.042 2293.29,320.143 "/>
<polyline clip-path="url(#clip972)" style="stroke:#e26f46; stroke-linecap:round; stroke-linejoin:round; stroke-width:4; stroke-opacity:1; fill:none" points="311.028,86.1857 313.012,86.5694 314.997,86.9544 316.981,87.3408 318.965,87.7286 320.949,88.119 322.934,88.5111 324.918,88.9063 326.902,89.3038 328.886,89.7028 330.87,90.1034 332.855,90.506 334.839,90.9107 336.823,91.3172 338.807,91.7238 340.792,92.1316 342.776,92.5404 344.76,92.9526 346.744,93.3659 348.729,93.7797 350.713,94.1955 352.697,94.6124 354.681,95.031 356.666,95.4509 358.65,95.8735 360.634,96.2986 362.618,96.7271 364.603,97.1561 366.587,97.5854 368.571,98.0146 370.555,98.4459 372.54,98.8781 374.524,99.3105 376.508,99.744 378.492,100.179 380.477,100.614 382.461,101.053 384.445,101.495 386.429,101.939 388.414,102.383 390.398,102.83 392.382,103.278 394.366,103.729 396.351,104.182 398.335,104.641 400.319,105.103 402.303,105.565 404.288,106.026 406.272,106.487 408.256,106.947 410.24,107.41 412.225,107.875 414.209,108.341 416.193,108.805 418.177,109.27 420.161,109.737 422.146,110.205 424.13,110.675 426.114,111.147 428.098,111.62 430.083,112.096 432.067,112.574 434.051,113.052 436.035,113.532 438.02,114.013 440.004,114.494 441.988,114.975 443.972,115.458 445.957,115.941 447.941,116.424 449.925,116.908 451.909,117.394 453.894,117.88 455.878,118.369 457.862,118.86 459.846,119.353 461.831,119.847 463.815,120.342 465.799,120.838 467.783,121.334 469.768,121.831 471.752,122.328 473.736,122.827 475.72,123.326 477.705,123.827 479.689,124.334 481.673,124.841 483.657,125.348 485.642,125.856 487.626,126.364 489.61,126.872 491.594,127.38 493.579,127.891 495.563,128.407 497.547,128.919 499.531,129.434 501.516,129.951 503.5,130.471 505.484,130.995 507.468,131.522 509.452,132.05 511.437,132.578 513.421,133.11 515.405,133.639 517.389,134.168 519.374,134.696 521.358,135.226 523.342,135.757 525.326,136.291 527.311,136.825 529.295,137.362 531.279,137.901 533.263,138.443 535.248,138.988 537.232,139.535 539.216,140.086 541.2,140.637 543.185,141.188 545.169,141.74 547.153,142.294 549.137,142.848 551.122,143.406 553.106,143.966 555.09,144.523 557.074,145.085 559.059,145.655 561.043,146.228 563.027,146.805 565.011,147.381 566.996,147.959 568.98,148.537 570.964,149.117 572.948,149.696 574.933,150.28 576.917,150.867 578.901,151.453 580.885,152.041 582.87,152.629 584.854,153.215 586.838,153.804 588.822,154.395 590.806,154.986 592.791,155.579 594.775,156.171 596.759,156.758 598.743,157.347 600.728,157.938 602.712,158.532 604.696,159.135 606.68,159.739 608.665,160.344 610.649,160.948 612.633,161.551 614.617,162.158 616.602,162.767 618.586,163.38 620.57,163.996 622.554,164.611 624.539,165.23 626.523,165.848 628.507,166.466 630.491,167.091 632.476,167.719 634.46,168.349 636.444,168.984 638.428,169.623 640.413,170.266 642.397,170.913 644.381,171.558 646.365,172.206 648.35,172.854 650.334,173.505 652.318,174.157 654.302,174.81 656.287,175.466 658.271,176.125 660.255,176.78 662.239,177.436 664.224,178.092 666.208,178.749 668.192,179.407 670.176,180.07 672.161,180.735 674.145,181.404 676.129,182.071 678.113,182.737 680.097,183.409 682.082,184.077 684.066,184.747 686.05,185.416 688.034,186.086 690.019,186.756 692.003,187.431 693.987,188.109 695.971,188.788 697.956,189.47 699.94,190.154 701.924,190.842 703.908,191.536 705.893,192.232 707.877,192.926 709.861,193.621 711.845,194.32 713.83,195.016 715.814,195.714 717.798,196.412 719.782,197.114 721.767,197.814 723.751,198.516 725.735,199.217 727.719,199.919 729.704,200.626 731.688,201.337 733.672,202.049 735.656,202.763 737.641,203.479 739.625,204.198 741.609,204.92 743.593,205.638 745.578,206.356 747.562,207.076 749.546,207.797 751.53,208.526 753.515,209.258 755.499,209.99 757.483,210.726 759.467,211.462 761.452,212.204 763.436,212.949 765.42,213.696 767.404,214.446 769.388,215.195 771.373,215.945 773.357,216.699 775.341,217.456 777.325,218.208 779.31,218.963 781.294,219.726 783.278,220.491 785.262,221.256 787.247,222.021 789.231,222.789 791.215,223.558 793.199,224.33 795.184,225.105 797.168,225.884 799.152,226.659 801.136,227.436 803.121,228.215 805.105,228.993 807.089,229.773 809.073,230.556 811.058,231.346 813.042,232.134 815.026,232.925 817.01,233.719 818.995,234.512 820.979,235.308 822.963,236.108 824.947,236.906 826.932,237.703 828.916,238.501 830.9,239.303 832.884,240.101 834.869,240.908 836.853,241.71 838.837,242.513 840.821,243.319 842.806,244.126 844.79,244.935 846.774,245.737 848.758,246.546 850.743,247.361 852.727,248.181 854.711,249.004 856.695,249.829 858.679,250.655 860.664,251.483 862.648,252.313 864.632,253.15 866.616,253.99 868.601,254.834 870.585,255.677 872.569,256.52 874.553,257.365 876.538,258.21 878.522,259.055 880.506,259.903 882.49,260.743 884.475,261.585 886.459,262.421 888.443,263.267 890.427,264.115 892.412,264.967 894.396,265.818 896.38,266.665 898.364,267.513 900.349,268.36 902.333,269.21 904.317,270.065 906.301,270.936 908.286,271.802 910.27,272.674 912.254,273.547 914.238,274.413 916.223,275.276 918.207,276.137 920.191,277.003 922.175,277.869 924.16,278.734 926.144,279.603 928.128,280.478 930.112,281.365 932.097,282.258 934.081,283.151 936.065,284.053 938.049,284.956 940.033,285.852 942.018,286.758 944.002,287.669 945.986,288.575 947.97,289.48 949.955,290.389 951.939,291.308 953.923,292.23 955.907,293.154 957.892,294.082 959.876,295.016 961.86,295.959 963.844,296.914 965.829,297.868 967.813,298.823 969.797,299.774 971.781,300.727 973.766,301.678 975.75,302.639 977.734,303.606 979.718,304.573 981.703,305.533 983.687,306.501 985.671,307.468 987.655,308.438 989.64,309.409 991.624,310.379 993.608,311.354 995.592,312.343 997.577,313.331 999.561,314.312 1001.55,315.295 1003.53,316.274 1005.51,317.26 1007.5,318.246 1009.48,319.233 1011.47,320.223 1013.45,321.213 1015.43,322.206 1017.42,323.2 1019.4,324.193 1021.39,325.189 1023.37,326.182 1025.36,327.175 1027.34,328.173 1029.32,329.17 1031.31,330.167 1033.29,331.166 1035.28,332.167 1037.26,333.168 1039.25,334.172 1041.23,335.18 1043.21,336.183 1045.2,337.184 1047.18,338.187 1049.17,339.189 1051.15,340.189 1053.14,341.188 1055.12,342.189 1057.1,343.189 1059.09,344.193 1061.07,345.202 1063.06,346.214 1065.04,347.225 1067.03,348.237 1069.01,349.259 1070.99,350.288 1072.98,351.314 1074.96,352.339 1076.95,353.365 1078.93,354.391 1080.91,355.414 1082.9,356.441 1084.88,357.474 1086.87,358.513 1088.85,359.557 1090.84,360.601 1092.82,361.647 1094.8,362.683 1096.79,363.709 1098.77,364.744 1100.76,365.777 1102.74,366.813 1104.73,367.857 1106.71,368.903 1108.69,369.955 1110.68,371.019 1112.66,372.083 1114.65,373.144 1116.63,374.197 1118.62,375.246 1120.6,376.301 1122.58,377.354 1124.57,378.4 1126.55,379.443 1128.54,380.479 1130.52,381.52 1132.51,382.572 1134.49,383.619 1136.47,384.682 1138.46,385.758 1140.44,386.826 1142.43,387.896 1144.41,388.956 1146.39,390.008 1148.38,391.061 1150.36,392.121 1152.35,393.176 1154.33,394.232 1156.32,395.295 1158.3,396.353 1160.28,397.421 1162.27,398.485 1164.25,399.545 1166.24,400.6 1168.22,401.668 1170.21,402.743 1172.19,403.836 1174.17,404.931 1176.16,406.02 1178.14,407.126 1180.13,408.221 1182.11,409.331 1184.1,410.45 1186.08,411.582 1188.06,412.706 1190.05,413.828 1192.03,414.942 1194.02,416.067 1196,417.204 1197.99,418.35 1199.97,419.476 1201.95,420.613 1203.94,421.765 1205.92,422.902 1207.91,424.026 1209.89,425.166 1211.87,426.306 1213.86,427.45 1215.84,428.611 1217.83,429.759 1219.81,430.929 1221.8,432.09 1223.78,433.257 1225.76,434.427 1227.75,435.603 1229.73,436.772 1231.72,437.928 1233.7,439.092 1235.69,440.275 1237.67,441.46 1239.65,442.642 1241.64,443.831 1243.62,445.032 1245.61,446.216 1247.59,447.432 1249.58,448.646 1251.56,449.889 1253.54,451.137 1255.53,452.378 1257.51,453.605 1259.5,454.815 1261.48,456.007 1263.47,457.194 1265.45,458.384 1267.43,459.593 1269.42,460.813 1271.4,462.034 1273.39,463.248 1275.37,464.472 1277.36,465.697 1279.34,466.931 1281.32,468.16 1283.31,469.404 1285.29,470.661 1287.28,471.924 1289.26,473.184 1291.24,474.437 1293.23,475.702 1295.21,476.964 1297.2,478.219 1299.18,479.476 1301.17,480.734 1303.15,481.994 1305.13,483.259 1307.12,484.521 1309.1,485.78 1311.09,487.039 1313.07,488.285 1315.06,489.53 1317.04,490.78 1319.02,492.033 1321.01,493.284 1322.99,494.537 1324.98,495.792 1326.96,497.058 1328.95,498.332 1330.93,499.611 1332.91,500.881 1334.9,502.149 1336.88,503.414 1338.87,504.676 1340.85,505.957 1342.84,507.231 1344.82,508.498 1346.8,509.767 1348.79,511.052 1350.77,512.332 1352.76,513.617 1354.74,514.901 1356.72,516.184 1358.71,517.472 1360.69,518.757 1362.68,520.062 1364.66,521.372 1366.65,522.687 1368.63,524.002 1370.61,525.306 1372.6,526.61 1374.58,527.911 1376.57,529.218 1378.55,530.516 1380.54,531.813 1382.52,533.104 1384.5,534.402 1386.49,535.709 1388.47,537.016 1390.46,538.326 1392.44,539.633 1394.43,540.942 1396.41,542.252 1398.39,543.554 1400.38,544.867 1402.36,546.186 1404.35,547.499 1406.33,548.804 1408.32,550.112 1410.3,551.42 1412.28,552.75 1414.27,554.102 1416.25,555.457 1418.24,556.824 1420.22,558.19 1422.2,559.564 1424.19,560.942 1426.17,562.334 1428.16,563.731 1430.14,565.128 1432.13,566.529 1434.11,567.93 1436.09,569.339 1438.08,570.774 1440.06,572.22 1442.05,573.673 1444.03,575.123 1446.02,576.564 1448,577.997 1449.98,579.422 1451.97,580.848 1453.95,582.288 1455.94,583.714 1457.92,585.14 1459.91,586.565 1461.89,587.992 1463.87,589.425 1465.86,590.854 1467.84,592.294 1469.83,593.722 1471.81,595.147 1473.8,596.567 1475.78,597.979 1477.76,599.388 1479.75,600.791 1481.73,602.196 1483.72,603.606 1485.7,605.009 1487.68,606.419 1489.67,607.854 1491.65,609.282 1493.64,610.711 1495.62,612.14 1497.61,613.587 1499.59,615.034 1501.57,616.49 1503.56,617.968 1505.54,619.455 1507.53,620.941 1509.51,622.429 1511.5,623.911 1513.48,625.378 1515.46,626.843 1517.45,628.312 1519.43,629.795 1521.42,631.273 1523.4,632.771 1525.39,634.248 1527.37,635.716 1529.35,637.183 1531.34,638.657 1533.32,640.117 1535.31,641.561 1537.29,643.005 1539.28,644.452 1541.26,645.922 1543.24,647.392 1545.23,648.867 1547.21,650.346 1549.2,651.842 1551.18,653.338 1553.16,654.833 1555.15,656.314 1557.13,657.807 1559.12,659.282 1561.1,660.756 1563.09,662.228 1565.07,663.701 1567.05,665.177 1569.04,666.65 1571.02,668.127 1573.01,669.592 1574.99,671.047 1576.98,672.505 1578.96,673.967 1580.94,675.43 1582.93,676.916 1584.91,678.409 1586.9,679.894 1588.88,681.413 1590.87,682.941 1592.85,684.469 1594.83,686.048 1596.82,687.623 1598.8,689.187 1600.79,690.731 1602.77,692.283 1604.76,693.847 1606.74,695.438 1608.72,697.004 1610.71,698.56 1612.69,700.13 1614.68,701.708 1616.66,703.285 1618.65,704.831 1620.63,706.391 1622.61,707.95 1624.6,709.529 1626.58,711.107 1628.57,712.699 1630.55,714.272 1632.53,715.845 1634.52,717.429 1636.5,718.992 1638.49,720.586 1640.47,722.195 1642.46,723.771 1644.44,725.338 1646.42,726.926 1648.41,728.532 1650.39,730.14 1652.38,731.751 1654.36,733.369 1656.35,734.97 1658.33,736.583 1660.31,738.187 1662.3,739.805 1664.28,741.441 1666.27,743.09 1668.25,744.738 1670.24,746.382 1672.22,748.052 1674.2,749.709 1676.19,751.351 1678.17,753.014 1680.16,754.678 1682.14,756.327 1684.13,758.002 1686.11,759.692 1688.09,761.367 1690.08,763.08 1692.06,764.821 1694.05,766.568 1696.03,768.304 1698.01,770.041 1700,771.751 1701.98,773.442 1703.97,775.133 1705.95,776.822 1707.94,778.511 1709.92,780.199 1711.9,781.892 1713.89,783.569 1715.87,785.275 1717.86,786.963 1719.84,788.655 1721.83,790.381 1723.81,792.077 1725.79,793.785 1727.78,795.487 1729.76,797.175 1731.75,798.885 1733.73,800.626 1735.72,802.37 1737.7,804.129 1739.68,805.871 1741.67,807.609 1743.65,809.354 1745.64,811.106 1747.62,812.86 1749.61,814.609 1751.59,816.359 1753.57,818.142 1755.56,819.926 1757.54,821.699 1759.53,823.468 1761.51,825.236 1763.49,827.011 1765.48,828.805 1767.46,830.594 1769.45,832.386 1771.43,834.152 1773.42,835.912 1775.4,837.648 1777.38,839.372 1779.37,841.099 1781.35,842.8 1783.34,844.49 1785.32,846.184 1787.31,847.852 1789.29,849.511 1791.27,851.171 1793.26,852.825 1795.24,854.456 1797.23,856.129 1799.21,857.789 1801.2,859.452 1803.18,861.079 1805.16,862.734 1807.15,864.374 1809.13,865.971 1811.12,867.59 1813.1,869.238 1815.09,870.926 1817.07,872.596 1819.05,874.29 1821.04,875.954 1823.02,877.593 1825.01,879.231 1826.99,880.883 1828.97,882.57 1830.96,884.28 1832.94,886.042 1834.93,887.775 1836.91,889.541 1838.9,891.316 1840.88,893.088 1842.86,894.86 1844.85,896.701 1846.83,898.567 1848.82,900.471 1850.8,902.406 1852.79,904.359 1854.77,906.271 1856.75,908.167 1858.74,910.078 1860.72,911.984 1862.71,913.938 1864.69,915.888 1866.68,917.836 1868.66,919.794 1870.64,921.766 1872.63,923.754 1874.61,925.714 1876.6,927.67 1878.58,929.628 1880.57,931.56 1882.55,933.459 1884.53,935.361 1886.52,937.28 1888.5,939.171 1890.49,941.061 1892.47,942.954 1894.46,944.837 1896.44,946.72 1898.42,948.627 1900.41,950.539 1902.39,952.443 1904.38,954.31 1906.36,956.195 1908.34,958.079 1910.33,959.952 1912.31,961.834 1914.3,963.74 1916.28,965.64 1918.27,967.523 1920.25,969.397 1922.23,971.259 1924.22,973.111 1926.2,974.956 1928.19,976.804 1930.17,978.631 1932.16,980.438 1934.14,982.222 1936.12,984.029 1938.11,985.846 1940.09,987.651 1942.08,989.492 1944.06,991.371 1946.05,993.254 1948.03,995.127 1950.01,997.007 1952,998.89 1953.98,1000.79 1955.97,1002.71 1957.95,1004.61 1959.94,1006.54 1961.92,1008.46 1963.9,1010.37 1965.89,1012.37 1967.87,1014.4 1969.86,1016.46 1971.84,1018.59 1973.82,1020.76 1975.81,1022.89 1977.79,1024.98 1979.78,1027.08 1981.76,1029.16 1983.75,1031.23 1985.73,1033.28 1987.71,1035.33 1989.7,1037.35 1991.68,1039.35 1993.67,1041.37 1995.65,1043.41 1997.64,1045.44 1999.62,1047.46 2001.6,1049.49 2003.59,1051.53 2005.57,1053.58 2007.56,1055.66 2009.54,1057.73 2011.53,1059.76 2013.51,1061.81 2015.49,1063.9 2017.48,1065.98 2019.46,1068.07 2021.45,1070.18 2023.43,1072.33 2025.42,1074.47 2027.4,1076.64 2029.38,1078.82 2031.37,1081.04 2033.35,1083.27 2035.34,1085.49 2037.32,1087.7 2039.3,1089.92 2041.29,1092.13 2043.27,1094.31 2045.26,1096.48 2047.24,1098.64 2049.23,1100.78 2051.21,1102.94 2053.19,1105.08 2055.18,1107.23 2057.16,1109.36 2059.15,1111.48 2061.13,1113.59 2063.12,1115.72 2065.1,1117.84 2067.08,1119.95 2069.07,1122.05 2071.05,1124.15 2073.04,1126.25 2075.02,1128.34 2077.01,1130.47 2078.99,1132.59 2080.97,1134.71 2082.96,1136.83 2084.94,1138.93 2086.93,1141.01 2088.91,1143.12 2090.9,1145.23 2092.88,1147.33 2094.86,1149.43 2096.85,1151.54 2098.83,1153.66 2100.82,1155.76 2102.8,1157.89 2104.78,1160.07 2106.77,1162.28 2108.75,1164.48 2110.74,1166.73 2112.72,1168.98 2114.71,1171.23 2116.69,1173.46 2118.67,1175.68 2120.66,1177.88 2122.64,1180.08 2124.63,1182.26 2126.61,1184.41 2128.6,1186.57 2130.58,1188.78 2132.56,1191.04 2134.55,1193.3 2136.53,1195.6 2138.52,1197.86 2140.5,1200.17 2142.49,1202.47 2144.47,1204.82 2146.45,1207.17 2148.44,1209.52 2150.42,1211.86 2152.41,1214.21 2154.39,1216.54 2156.38,1218.86 2158.36,1221.18 2160.34,1223.46 2162.33,1225.72 2164.31,1227.98 2166.3,1230.27 2168.28,1232.54 2170.26,1234.8 2172.25,1237.04 2174.23,1239.27 2176.22,1241.53 2178.2,1243.8 2180.19,1246.1 2182.17,1248.4 2184.15,1250.72 2186.14,1253.03 2188.12,1255.34 2190.11,1257.65 2192.09,1259.93 2194.08,1262.23 2196.06,1264.54 2198.04,1266.84 2200.03,1269.15 2202.01,1271.48 2204,1273.79 2205.98,1276.12 2207.97,1278.42 2209.95,1280.74 2211.93,1283.09 2213.92,1285.48 2215.9,1287.87 2217.89,1290.25 2219.87,1292.64 2221.86,1295.04 2223.84,1297.46 2225.82,1299.89 2227.81,1302.36 2229.79,1304.85 2231.78,1307.34 2233.76,1309.84 2235.75,1312.35 2237.73,1314.87 2239.71,1317.44 2241.7,1319.97 2243.68,1322.53 2245.67,1325.07 2247.65,1327.58 2249.63,1330.1 2251.62,1332.59 2253.6,1335.06 2255.59,1337.51 2257.57,1339.95 2259.56,1342.37 2261.54,1344.82 2263.52,1347.26 2265.51,1349.71 2267.49,1352.14 2269.48,1354.58 2271.46,1357.06 2273.45,1359.53 2275.43,1361.99 2277.41,1364.47 2279.4,1366.93 2281.38,1369.41 2283.37,1371.89 2285.35,1374.34 2287.34,1376.81 2289.32,1379.28 2291.3,1381.76 2293.29,1384.24 "/>
<path clip-path="url(#clip970)" d="M1864.89 248.629 L2282.72 248.629 L2282.72 93.1086 L1864.89 93.1086  Z" fill="#ffffff" fill-rule="evenodd" fill-opacity="1"/>
<polyline clip-path="url(#clip970)" style="stroke:#000000; stroke-linecap:round; stroke-linejoin:round; stroke-width:4; stroke-opacity:1; fill:none" points="1864.89,248.629 2282.72,248.629 2282.72,93.1086 1864.89,93.1086 1864.89,248.629 "/>
<polyline clip-path="url(#clip970)" style="stroke:#009af9; stroke-linecap:round; stroke-linejoin:round; stroke-width:4; stroke-opacity:1; fill:none" points="1888.24,144.949 2028.32,144.949 "/>
<path clip-path="url(#clip970)" d="M2056.34 145.724 L2056.34 158.386 L2063.84 158.386 Q2067.61 158.386 2069.42 156.835 Q2071.25 155.261 2071.25 152.043 Q2071.25 148.803 2069.42 147.275 Q2067.61 145.724 2063.84 145.724 L2056.34 145.724 M2056.34 131.511 L2056.34 141.928 L2063.26 141.928 Q2066.69 141.928 2068.35 140.655 Q2070.04 139.358 2070.04 136.719 Q2070.04 134.104 2068.35 132.807 Q2066.69 131.511 2063.26 131.511 L2056.34 131.511 M2051.66 127.669 L2063.61 127.669 Q2068.95 127.669 2071.85 129.891 Q2074.74 132.113 2074.74 136.21 Q2074.74 139.382 2073.26 141.257 Q2071.78 143.131 2068.91 143.594 Q2072.36 144.335 2074.25 146.696 Q2076.18 149.034 2076.18 152.553 Q2076.18 157.182 2073.03 159.705 Q2069.88 162.229 2064.07 162.229 L2051.66 162.229 L2051.66 127.669 Z" fill="#000000" fill-rule="nonzero" fill-opacity="1" /><path clip-path="url(#clip970)" d="M2088.86 145.724 L2088.86 158.386 L2096.36 158.386 Q2100.13 158.386 2101.94 156.835 Q2103.77 155.261 2103.77 152.043 Q2103.77 148.803 2101.94 147.275 Q2100.13 145.724 2096.36 145.724 L2088.86 145.724 M2088.86 131.511 L2088.86 141.928 L2095.78 141.928 Q2099.21 141.928 2100.87 140.655 Q2102.56 139.358 2102.56 136.719 Q2102.56 134.104 2100.87 132.807 Q2099.21 131.511 2095.78 131.511 L2088.86 131.511 M2084.19 127.669 L2096.13 127.669 Q2101.48 127.669 2104.37 129.891 Q2107.26 132.113 2107.26 136.21 Q2107.26 139.382 2105.78 141.257 Q2104.3 143.131 2101.43 143.594 Q2104.88 144.335 2106.78 146.696 Q2108.7 149.034 2108.7 152.553 Q2108.7 157.182 2105.55 159.705 Q2102.4 162.229 2096.59 162.229 L2084.19 162.229 L2084.19 127.669 Z" fill="#000000" fill-rule="nonzero" fill-opacity="1" /><path clip-path="url(#clip970)" d="M2124.16 162.229 L2110.97 127.669 L2115.85 127.669 L2126.8 156.766 L2137.77 127.669 L2142.63 127.669 L2129.46 162.229 L2124.16 162.229 Z" fill="#000000" fill-rule="nonzero" fill-opacity="1" /><path clip-path="url(#clip970)" d="M2147.68 127.669 L2152.36 127.669 L2152.36 162.229 L2147.68 162.229 L2147.68 127.669 Z" fill="#000000" fill-rule="nonzero" fill-opacity="1" /><path clip-path="url(#clip970)" d="M2202.61 130.331 L2202.61 135.261 Q2200.25 133.062 2197.56 131.974 Q2194.9 130.886 2191.89 130.886 Q2185.97 130.886 2182.82 134.52 Q2179.67 138.132 2179.67 144.983 Q2179.67 151.812 2182.82 155.446 Q2185.97 159.057 2191.89 159.057 Q2194.9 159.057 2197.56 157.969 Q2200.25 156.881 2202.61 154.682 L2202.61 159.567 Q2200.16 161.233 2197.4 162.067 Q2194.67 162.9 2191.62 162.9 Q2183.77 162.9 2179.25 158.108 Q2174.74 153.293 2174.74 144.983 Q2174.74 136.65 2179.25 131.858 Q2183.77 127.044 2191.62 127.044 Q2194.72 127.044 2197.45 127.877 Q2200.2 128.687 2202.61 130.331 Z" fill="#000000" fill-rule="nonzero" fill-opacity="1" /><path clip-path="url(#clip970)" d="M2209.83 127.669 L2229.69 127.669 L2229.69 131.604 L2214.51 131.604 L2214.51 141.789 L2228.21 141.789 L2228.21 145.724 L2214.51 145.724 L2214.51 162.229 L2209.83 162.229 L2209.83 127.669 Z" fill="#000000" fill-rule="nonzero" fill-opacity="1" /><path clip-path="url(#clip970)" d="M2237.1 127.669 L2258.95 127.669 L2258.95 131.604 L2241.78 131.604 L2241.78 141.835 L2258.24 141.835 L2258.24 145.77 L2241.78 145.77 L2241.78 158.293 L2259.37 158.293 L2259.37 162.229 L2237.1 162.229 L2237.1 127.669 Z" fill="#000000" fill-rule="nonzero" fill-opacity="1" /><polyline clip-path="url(#clip970)" style="stroke:#e26f46; stroke-linecap:round; stroke-linejoin:round; stroke-width:4; stroke-opacity:1; fill:none" points="1888.24,196.789 2028.32,196.789 "/>
<path clip-path="url(#clip970)" d="M2056.34 197.564 L2056.34 210.226 L2063.84 210.226 Q2067.61 210.226 2069.42 208.675 Q2071.25 207.101 2071.25 203.883 Q2071.25 200.643 2069.42 199.115 Q2067.61 197.564 2063.84 197.564 L2056.34 197.564 M2056.34 183.351 L2056.34 193.768 L2063.26 193.768 Q2066.69 193.768 2068.35 192.495 Q2070.04 191.198 2070.04 188.559 Q2070.04 185.944 2068.35 184.647 Q2066.69 183.351 2063.26 183.351 L2056.34 183.351 M2051.66 179.509 L2063.61 179.509 Q2068.95 179.509 2071.85 181.731 Q2074.74 183.953 2074.74 188.05 Q2074.74 191.222 2073.26 193.097 Q2071.78 194.971 2068.91 195.434 Q2072.36 196.175 2074.25 198.536 Q2076.18 200.874 2076.18 204.393 Q2076.18 209.022 2073.03 211.545 Q2069.88 214.069 2064.07 214.069 L2051.66 214.069 L2051.66 179.509 Z" fill="#000000" fill-rule="nonzero" fill-opacity="1" /><path clip-path="url(#clip970)" d="M2088.86 197.564 L2088.86 210.226 L2096.36 210.226 Q2100.13 210.226 2101.94 208.675 Q2103.77 207.101 2103.77 203.883 Q2103.77 200.643 2101.94 199.115 Q2100.13 197.564 2096.36 197.564 L2088.86 197.564 M2088.86 183.351 L2088.86 193.768 L2095.78 193.768 Q2099.21 193.768 2100.87 192.495 Q2102.56 191.198 2102.56 188.559 Q2102.56 185.944 2100.87 184.647 Q2099.21 183.351 2095.78 183.351 L2088.86 183.351 M2084.19 179.509 L2096.13 179.509 Q2101.48 179.509 2104.37 181.731 Q2107.26 183.953 2107.26 188.05 Q2107.26 191.222 2105.78 193.097 Q2104.3 194.971 2101.43 195.434 Q2104.88 196.175 2106.78 198.536 Q2108.7 200.874 2108.7 204.393 Q2108.7 209.022 2105.55 211.545 Q2102.4 214.069 2096.59 214.069 L2084.19 214.069 L2084.19 179.509 Z" fill="#000000" fill-rule="nonzero" fill-opacity="1" /><path clip-path="url(#clip970)" d="M2124.16 214.069 L2110.97 179.509 L2115.85 179.509 L2126.8 208.606 L2137.77 179.509 L2142.63 179.509 L2129.46 214.069 L2124.16 214.069 Z" fill="#000000" fill-rule="nonzero" fill-opacity="1" /><path clip-path="url(#clip970)" d="M2147.68 179.509 L2152.36 179.509 L2152.36 214.069 L2147.68 214.069 L2147.68 179.509 Z" fill="#000000" fill-rule="nonzero" fill-opacity="1" /><path clip-path="url(#clip970)" d="M2197.45 180.643 L2197.45 185.203 Q2194.79 183.93 2192.43 183.305 Q2190.06 182.68 2187.87 182.68 Q2184.05 182.68 2181.96 184.161 Q2179.9 185.643 2179.9 188.374 Q2179.9 190.666 2181.27 191.847 Q2182.66 193.004 2186.5 193.722 L2189.32 194.3 Q2194.55 195.296 2197.03 197.819 Q2199.53 200.319 2199.53 204.532 Q2199.53 209.555 2196.15 212.147 Q2192.8 214.74 2186.29 214.74 Q2183.84 214.74 2181.06 214.184 Q2178.31 213.629 2175.34 212.541 L2175.34 207.726 Q2178.19 209.323 2180.92 210.133 Q2183.65 210.944 2186.29 210.944 Q2190.3 210.944 2192.47 209.37 Q2194.65 207.796 2194.65 204.879 Q2194.65 202.333 2193.07 200.897 Q2191.52 199.462 2187.96 198.745 L2185.11 198.189 Q2179.88 197.147 2177.54 194.925 Q2175.2 192.703 2175.2 188.745 Q2175.2 184.161 2178.42 181.522 Q2181.66 178.884 2187.33 178.884 Q2189.76 178.884 2192.29 179.323 Q2194.81 179.763 2197.45 180.643 Z" fill="#000000" fill-rule="nonzero" fill-opacity="1" /><path clip-path="url(#clip970)" d="M2202.03 179.509 L2231.27 179.509 L2231.27 183.444 L2219 183.444 L2219 214.069 L2214.3 214.069 L2214.3 183.444 L2202.03 183.444 L2202.03 179.509 Z" fill="#000000" fill-rule="nonzero" fill-opacity="1" /><path clip-path="url(#clip970)" d="M2235.78 179.509 L2240.46 179.509 L2240.46 210.133 L2257.29 210.133 L2257.29 214.069 L2235.78 214.069 L2235.78 179.509 Z" fill="#000000" fill-rule="nonzero" fill-opacity="1" /></svg>
