<?xml version="1.0" encoding="utf-8"?>
<svg xmlns="http://www.w3.org/2000/svg" xmlns:xlink="http://www.w3.org/1999/xlink" width="600" height="400" viewBox="0 0 2400 1600">
<defs>
  <clipPath id="clip000">
    <rect x="0" y="0" width="2400" height="1600"/>
  </clipPath>
</defs>
<path clip-path="url(#clip000)" d="M0 1600 L2400 1600 L2400 0 L0 0  Z" fill="#ffffff" fill-rule="evenodd" fill-opacity="1"/>
<defs>
  <clipPath id="clip001">
    <rect x="251" y="47" width="2102" height="1377"/>
  </clipPath>
</defs>
<path clip-path="url(#clip000)" d="M242.135 1423.18 L2352.76 1423.18 L2352.76 47.2441 L242.135 47.2441  Z" fill="#ffffff" fill-rule="evenodd" fill-opacity="1"/>
<defs>
  <clipPath id="clip002">
    <rect x="242" y="47" width="2112" height="1377"/>
  </clipPath>
</defs>
<polyline clip-path="url(#clip002)" style="stroke:#000000; stroke-linecap:round; stroke-linejoin:round; stroke-width:2; stroke-opacity:0.1; fill:none" points="299.876,1423.18 299.876,47.2441 "/>
<polyline clip-path="url(#clip002)" style="stroke:#000000; stroke-linecap:round; stroke-linejoin:round; stroke-width:2; stroke-opacity:0.1; fill:none" points="798.162,1423.18 798.162,47.2441 "/>
<polyline clip-path="url(#clip002)" style="stroke:#000000; stroke-linecap:round; stroke-linejoin:round; stroke-width:2; stroke-opacity:0.1; fill:none" points="1296.45,1423.18 1296.45,47.2441 "/>
<polyline clip-path="url(#clip002)" style="stroke:#000000; stroke-linecap:round; stroke-linejoin:round; stroke-width:2; stroke-opacity:0.1; fill:none" points="1794.74,1423.18 1794.74,47.2441 "/>
<polyline clip-path="url(#clip002)" style="stroke:#000000; stroke-linecap:round; stroke-linejoin:round; stroke-width:2; stroke-opacity:0.1; fill:none" points="2293.02,1423.18 2293.02,47.2441 "/>
<polyline clip-path="url(#clip002)" style="stroke:#000000; stroke-linecap:round; stroke-linejoin:round; stroke-width:2; stroke-opacity:0.1; fill:none" points="242.135,1144.64 2352.76,1144.64 "/>
<polyline clip-path="url(#clip002)" style="stroke:#000000; stroke-linecap:round; stroke-linejoin:round; stroke-width:2; stroke-opacity:0.1; fill:none" points="242.135,834.944 2352.76,834.944 "/>
<polyline clip-path="url(#clip002)" style="stroke:#000000; stroke-linecap:round; stroke-linejoin:round; stroke-width:2; stroke-opacity:0.1; fill:none" points="242.135,525.244 2352.76,525.244 "/>
<polyline clip-path="url(#clip002)" style="stroke:#000000; stroke-linecap:round; stroke-linejoin:round; stroke-width:2; stroke-opacity:0.1; fill:none" points="242.135,215.543 2352.76,215.543 "/>
<polyline clip-path="url(#clip000)" style="stroke:#000000; stroke-linecap:round; stroke-linejoin:round; stroke-width:4; stroke-opacity:1; fill:none" points="242.135,1423.18 2352.76,1423.18 "/>
<polyline clip-path="url(#clip000)" style="stroke:#000000; stroke-linecap:round; stroke-linejoin:round; stroke-width:4; stroke-opacity:1; fill:none" points="299.876,1423.18 299.876,1404.28 "/>
<polyline clip-path="url(#clip000)" style="stroke:#000000; stroke-linecap:round; stroke-linejoin:round; stroke-width:4; stroke-opacity:1; fill:none" points="798.162,1423.18 798.162,1404.28 "/>
<polyline clip-path="url(#clip000)" style="stroke:#000000; stroke-linecap:round; stroke-linejoin:round; stroke-width:4; stroke-opacity:1; fill:none" points="1296.45,1423.18 1296.45,1404.28 "/>
<polyline clip-path="url(#clip000)" style="stroke:#000000; stroke-linecap:round; stroke-linejoin:round; stroke-width:4; stroke-opacity:1; fill:none" points="1794.74,1423.18 1794.74,1404.28 "/>
<polyline clip-path="url(#clip000)" style="stroke:#000000; stroke-linecap:round; stroke-linejoin:round; stroke-width:4; stroke-opacity:1; fill:none" points="2293.02,1423.18 2293.02,1404.28 "/>
<path clip-path="url(#clip000)" d="M299.876 1454.1 Q296.265 1454.1 294.436 1457.66 Q292.631 1461.2 292.631 1468.33 Q292.631 1475.44 294.436 1479.01 Q296.265 1482.55 299.876 1482.55 Q303.51 1482.55 305.316 1479.01 Q307.145 1475.44 307.145 1468.33 Q307.145 1461.2 305.316 1457.66 Q303.51 1454.1 299.876 1454.1 M299.876 1450.39 Q305.686 1450.39 308.742 1455 Q311.82 1459.58 311.82 1468.33 Q311.82 1477.06 308.742 1481.67 Q305.686 1486.25 299.876 1486.25 Q294.066 1486.25 290.987 1481.67 Q287.932 1477.06 287.932 1468.33 Q287.932 1459.58 290.987 1455 Q294.066 1450.39 299.876 1450.39 Z" fill="#000000" fill-rule="nonzero" fill-opacity="1" /><path clip-path="url(#clip000)" d="M761.855 1481.64 L778.174 1481.64 L778.174 1485.58 L756.23 1485.58 L756.23 1481.64 Q758.892 1478.89 763.475 1474.26 Q768.082 1469.61 769.262 1468.27 Q771.507 1465.74 772.387 1464.01 Q773.29 1462.25 773.29 1460.56 Q773.29 1457.8 771.345 1456.07 Q769.424 1454.33 766.322 1454.33 Q764.123 1454.33 761.67 1455.09 Q759.239 1455.86 756.461 1457.41 L756.461 1452.69 Q759.285 1451.55 761.739 1450.97 Q764.193 1450.39 766.23 1450.39 Q771.6 1450.39 774.794 1453.08 Q777.989 1455.77 777.989 1460.26 Q777.989 1462.39 777.179 1464.31 Q776.392 1466.2 774.285 1468.8 Q773.707 1469.47 770.605 1472.69 Q767.503 1475.88 761.855 1481.64 Z" fill="#000000" fill-rule="nonzero" fill-opacity="1" /><path clip-path="url(#clip000)" d="M788.035 1451.02 L806.392 1451.02 L806.392 1454.96 L792.318 1454.96 L792.318 1463.43 Q793.336 1463.08 794.355 1462.92 Q795.373 1462.73 796.392 1462.73 Q802.179 1462.73 805.558 1465.9 Q808.938 1469.08 808.938 1474.49 Q808.938 1480.07 805.466 1483.17 Q801.993 1486.25 795.674 1486.25 Q793.498 1486.25 791.23 1485.88 Q788.984 1485.51 786.577 1484.77 L786.577 1480.07 Q788.66 1481.2 790.882 1481.76 Q793.105 1482.32 795.581 1482.32 Q799.586 1482.32 801.924 1480.21 Q804.262 1478.1 804.262 1474.49 Q804.262 1470.88 801.924 1468.77 Q799.586 1466.67 795.581 1466.67 Q793.706 1466.67 791.831 1467.08 Q789.98 1467.5 788.035 1468.38 L788.035 1451.02 Z" fill="#000000" fill-rule="nonzero" fill-opacity="1" /><path clip-path="url(#clip000)" d="M828.151 1454.1 Q824.54 1454.1 822.711 1457.66 Q820.905 1461.2 820.905 1468.33 Q820.905 1475.44 822.711 1479.01 Q824.54 1482.55 828.151 1482.55 Q831.785 1482.55 833.59 1479.01 Q835.419 1475.44 835.419 1468.33 Q835.419 1461.2 833.59 1457.66 Q831.785 1454.1 828.151 1454.1 M828.151 1450.39 Q833.961 1450.39 837.016 1455 Q840.095 1459.58 840.095 1468.33 Q840.095 1477.06 837.016 1481.67 Q833.961 1486.25 828.151 1486.25 Q822.341 1486.25 819.262 1481.67 Q816.206 1477.06 816.206 1468.33 Q816.206 1459.58 819.262 1455 Q822.341 1450.39 828.151 1450.39 Z" fill="#000000" fill-rule="nonzero" fill-opacity="1" /><path clip-path="url(#clip000)" d="M1256.07 1451.02 L1274.42 1451.02 L1274.42 1454.96 L1260.35 1454.96 L1260.35 1463.43 Q1261.37 1463.08 1262.39 1462.92 Q1263.4 1462.73 1264.42 1462.73 Q1270.21 1462.73 1273.59 1465.9 Q1276.97 1469.08 1276.97 1474.49 Q1276.97 1480.07 1273.5 1483.17 Q1270.03 1486.25 1263.71 1486.25 Q1261.53 1486.25 1259.26 1485.88 Q1257.02 1485.51 1254.61 1484.77 L1254.61 1480.07 Q1256.69 1481.2 1258.91 1481.76 Q1261.14 1482.32 1263.61 1482.32 Q1267.62 1482.32 1269.96 1480.21 Q1272.29 1478.1 1272.29 1474.49 Q1272.29 1470.88 1269.96 1468.77 Q1267.62 1466.67 1263.61 1466.67 Q1261.74 1466.67 1259.86 1467.08 Q1258.01 1467.5 1256.07 1468.38 L1256.07 1451.02 Z" fill="#000000" fill-rule="nonzero" fill-opacity="1" /><path clip-path="url(#clip000)" d="M1296.18 1454.1 Q1292.57 1454.1 1290.74 1457.66 Q1288.94 1461.2 1288.94 1468.33 Q1288.94 1475.44 1290.74 1479.01 Q1292.57 1482.55 1296.18 1482.55 Q1299.82 1482.55 1301.62 1479.01 Q1303.45 1475.44 1303.45 1468.33 Q1303.45 1461.2 1301.62 1457.66 Q1299.82 1454.1 1296.18 1454.1 M1296.18 1450.39 Q1301.99 1450.39 1305.05 1455 Q1308.13 1459.58 1308.13 1468.33 Q1308.13 1477.06 1305.05 1481.67 Q1301.99 1486.25 1296.18 1486.25 Q1290.37 1486.25 1287.29 1481.67 Q1284.24 1477.06 1284.24 1468.33 Q1284.24 1459.58 1287.29 1455 Q1290.37 1450.39 1296.18 1450.39 Z" fill="#000000" fill-rule="nonzero" fill-opacity="1" /><path clip-path="url(#clip000)" d="M1326.34 1454.1 Q1322.73 1454.1 1320.9 1457.66 Q1319.1 1461.2 1319.1 1468.33 Q1319.1 1475.44 1320.9 1479.01 Q1322.73 1482.55 1326.34 1482.55 Q1329.98 1482.55 1331.78 1479.01 Q1333.61 1475.44 1333.61 1468.33 Q1333.61 1461.2 1331.78 1457.66 Q1329.98 1454.1 1326.34 1454.1 M1326.34 1450.39 Q1332.15 1450.39 1335.21 1455 Q1338.29 1459.58 1338.29 1468.33 Q1338.29 1477.06 1335.21 1481.67 Q1332.15 1486.25 1326.34 1486.25 Q1320.53 1486.25 1317.46 1481.67 Q1314.4 1477.06 1314.4 1468.33 Q1314.4 1459.58 1317.46 1455 Q1320.53 1450.39 1326.34 1450.39 Z" fill="#000000" fill-rule="nonzero" fill-opacity="1" /><path clip-path="url(#clip000)" d="M1753.01 1451.02 L1775.23 1451.02 L1775.23 1453.01 L1762.69 1485.58 L1757.8 1485.58 L1769.61 1454.96 L1753.01 1454.96 L1753.01 1451.02 Z" fill="#000000" fill-rule="nonzero" fill-opacity="1" /><path clip-path="url(#clip000)" d="M1784.4 1451.02 L1802.76 1451.02 L1802.76 1454.96 L1788.68 1454.96 L1788.68 1463.43 Q1789.7 1463.08 1790.72 1462.92 Q1791.74 1462.73 1792.76 1462.73 Q1798.54 1462.73 1801.92 1465.9 Q1805.3 1469.08 1805.3 1474.49 Q1805.3 1480.07 1801.83 1483.17 Q1798.36 1486.25 1792.04 1486.25 Q1789.86 1486.25 1787.59 1485.88 Q1785.35 1485.51 1782.94 1484.77 L1782.94 1480.07 Q1785.02 1481.2 1787.25 1481.76 Q1789.47 1482.32 1791.95 1482.32 Q1795.95 1482.32 1798.29 1480.21 Q1800.63 1478.1 1800.63 1474.49 Q1800.63 1470.88 1798.29 1468.77 Q1795.95 1466.67 1791.95 1466.67 Q1790.07 1466.67 1788.2 1467.08 Q1786.34 1467.5 1784.4 1468.38 L1784.4 1451.02 Z" fill="#000000" fill-rule="nonzero" fill-opacity="1" /><path clip-path="url(#clip000)" d="M1824.51 1454.1 Q1820.9 1454.1 1819.08 1457.66 Q1817.27 1461.2 1817.27 1468.33 Q1817.27 1475.44 1819.08 1479.01 Q1820.9 1482.55 1824.51 1482.55 Q1828.15 1482.55 1829.95 1479.01 Q1831.78 1475.44 1831.78 1468.33 Q1831.78 1461.2 1829.95 1457.66 Q1828.15 1454.1 1824.51 1454.1 M1824.51 1450.39 Q1830.33 1450.39 1833.38 1455 Q1836.46 1459.58 1836.46 1468.33 Q1836.46 1477.06 1833.38 1481.67 Q1830.33 1486.25 1824.51 1486.25 Q1818.7 1486.25 1815.63 1481.67 Q1812.57 1477.06 1812.57 1468.33 Q1812.57 1459.58 1815.63 1455 Q1818.7 1450.39 1824.51 1450.39 Z" fill="#000000" fill-rule="nonzero" fill-opacity="1" /><path clip-path="url(#clip000)" d="M2237.55 1481.64 L2245.19 1481.64 L2245.19 1455.28 L2236.88 1456.95 L2236.88 1452.69 L2245.14 1451.02 L2249.82 1451.02 L2249.82 1481.64 L2257.45 1481.64 L2257.45 1485.58 L2237.55 1485.58 L2237.55 1481.64 Z" fill="#000000" fill-rule="nonzero" fill-opacity="1" /><path clip-path="url(#clip000)" d="M2276.9 1454.1 Q2273.29 1454.1 2271.46 1457.66 Q2269.65 1461.2 2269.65 1468.33 Q2269.65 1475.44 2271.46 1479.01 Q2273.29 1482.55 2276.9 1482.55 Q2280.53 1482.55 2282.34 1479.01 Q2284.17 1475.44 2284.17 1468.33 Q2284.17 1461.2 2282.34 1457.66 Q2280.53 1454.1 2276.9 1454.1 M2276.9 1450.39 Q2282.71 1450.39 2285.76 1455 Q2288.84 1459.58 2288.84 1468.33 Q2288.84 1477.06 2285.76 1481.67 Q2282.71 1486.25 2276.9 1486.25 Q2271.09 1486.25 2268.01 1481.67 Q2264.95 1477.06 2264.95 1468.33 Q2264.95 1459.58 2268.01 1455 Q2271.09 1450.39 2276.9 1450.39 Z" fill="#000000" fill-rule="nonzero" fill-opacity="1" /><path clip-path="url(#clip000)" d="M2307.06 1454.1 Q2303.45 1454.1 2301.62 1457.66 Q2299.82 1461.2 2299.82 1468.33 Q2299.82 1475.44 2301.62 1479.01 Q2303.45 1482.55 2307.06 1482.55 Q2310.69 1482.55 2312.5 1479.01 Q2314.33 1475.44 2314.33 1468.33 Q2314.33 1461.2 2312.5 1457.66 Q2310.69 1454.1 2307.06 1454.1 M2307.06 1450.39 Q2312.87 1450.39 2315.93 1455 Q2319 1459.58 2319 1468.33 Q2319 1477.06 2315.93 1481.67 Q2312.87 1486.25 2307.06 1486.25 Q2301.25 1486.25 2298.17 1481.67 Q2295.12 1477.06 2295.12 1468.33 Q2295.12 1459.58 2298.17 1455 Q2301.25 1450.39 2307.06 1450.39 Z" fill="#000000" fill-rule="nonzero" fill-opacity="1" /><path clip-path="url(#clip000)" d="M2337.22 1454.1 Q2333.61 1454.1 2331.78 1457.66 Q2329.98 1461.2 2329.98 1468.33 Q2329.98 1475.44 2331.78 1479.01 Q2333.61 1482.55 2337.22 1482.55 Q2340.86 1482.55 2342.66 1479.01 Q2344.49 1475.44 2344.49 1468.33 Q2344.49 1461.2 2342.66 1457.66 Q2340.86 1454.1 2337.22 1454.1 M2337.22 1450.39 Q2343.03 1450.39 2346.09 1455 Q2349.17 1459.58 2349.17 1468.33 Q2349.17 1477.06 2346.09 1481.67 Q2343.03 1486.25 2337.22 1486.25 Q2331.41 1486.25 2328.33 1481.67 Q2325.28 1477.06 2325.28 1468.33 Q2325.28 1459.58 2328.33 1455 Q2331.41 1450.39 2337.22 1450.39 Z" fill="#000000" fill-rule="nonzero" fill-opacity="1" /><path clip-path="url(#clip000)" d="M1165.17 1520.52 L1171.6 1520.52 L1171.6 1568.04 L1165.17 1568.04 L1165.17 1520.52 Z" fill="#000000" fill-rule="nonzero" fill-opacity="1" /><path clip-path="url(#clip000)" d="M1189.93 1522.27 L1189.93 1532.4 L1201.99 1532.4 L1201.99 1536.95 L1189.93 1536.95 L1189.93 1556.3 Q1189.93 1560.66 1191.11 1561.9 Q1192.32 1563.14 1195.98 1563.14 L1201.99 1563.14 L1201.99 1568.04 L1195.98 1568.04 Q1189.2 1568.04 1186.62 1565.53 Q1184.04 1562.98 1184.04 1556.3 L1184.04 1536.95 L1179.74 1536.95 L1179.74 1532.4 L1184.04 1532.4 L1184.04 1522.27 L1189.93 1522.27 Z" fill="#000000" fill-rule="nonzero" fill-opacity="1" /><path clip-path="url(#clip000)" d="M1240.19 1548.76 L1240.19 1551.62 L1213.26 1551.62 Q1213.64 1557.67 1216.89 1560.85 Q1220.17 1564 1225.99 1564 Q1229.36 1564 1232.52 1563.17 Q1235.7 1562.35 1238.82 1560.69 L1238.82 1566.23 Q1235.67 1567.57 1232.36 1568.27 Q1229.05 1568.97 1225.64 1568.97 Q1217.11 1568.97 1212.11 1564 Q1207.15 1559.04 1207.15 1550.57 Q1207.15 1541.82 1211.86 1536.69 Q1216.6 1531.54 1224.62 1531.54 Q1231.81 1531.54 1235.98 1536.18 Q1240.19 1540.8 1240.19 1548.76 M1234.33 1547.04 Q1234.27 1542.23 1231.62 1539.37 Q1229.01 1536.5 1224.69 1536.5 Q1219.78 1536.5 1216.82 1539.27 Q1213.9 1542.04 1213.45 1547.07 L1234.33 1547.04 Z" fill="#000000" fill-rule="nonzero" fill-opacity="1" /><path clip-path="url(#clip000)" d="M1270.45 1537.87 Q1269.47 1537.3 1268.29 1537.04 Q1267.14 1536.76 1265.74 1536.76 Q1260.78 1536.76 1258.11 1540 Q1255.46 1543.22 1255.46 1549.27 L1255.46 1568.04 L1249.58 1568.04 L1249.58 1532.4 L1255.46 1532.4 L1255.46 1537.93 Q1257.31 1534.69 1260.27 1533.13 Q1263.23 1531.54 1267.46 1531.54 Q1268.07 1531.54 1268.8 1531.63 Q1269.53 1531.7 1270.42 1531.85 L1270.45 1537.87 Z" fill="#000000" fill-rule="nonzero" fill-opacity="1" /><path clip-path="url(#clip000)" d="M1292.8 1550.12 Q1285.7 1550.12 1282.96 1551.75 Q1280.23 1553.37 1280.23 1557.29 Q1280.23 1560.4 1282.26 1562.25 Q1284.33 1564.07 1287.86 1564.07 Q1292.73 1564.07 1295.66 1560.63 Q1298.62 1557.16 1298.62 1551.43 L1298.62 1550.12 L1292.8 1550.12 M1304.48 1547.71 L1304.48 1568.04 L1298.62 1568.04 L1298.62 1562.63 Q1296.62 1565.88 1293.63 1567.44 Q1290.63 1568.97 1286.31 1568.97 Q1280.83 1568.97 1277.58 1565.91 Q1274.37 1562.82 1274.37 1557.67 Q1274.37 1551.65 1278.38 1548.6 Q1282.42 1545.54 1290.41 1545.54 L1298.62 1545.54 L1298.62 1544.97 Q1298.62 1540.93 1295.95 1538.73 Q1293.31 1536.5 1288.5 1536.5 Q1285.45 1536.5 1282.55 1537.23 Q1279.65 1537.97 1276.98 1539.43 L1276.98 1534.02 Q1280.19 1532.78 1283.22 1532.17 Q1286.24 1531.54 1289.11 1531.54 Q1296.84 1531.54 1300.66 1535.55 Q1304.48 1539.56 1304.48 1547.71 Z" fill="#000000" fill-rule="nonzero" fill-opacity="1" /><path clip-path="url(#clip000)" d="M1322.34 1522.27 L1322.34 1532.4 L1334.4 1532.4 L1334.4 1536.95 L1322.34 1536.95 L1322.34 1556.3 Q1322.34 1560.66 1323.51 1561.9 Q1324.72 1563.14 1328.38 1563.14 L1334.4 1563.14 L1334.4 1568.04 L1328.38 1568.04 Q1321.6 1568.04 1319.03 1565.53 Q1316.45 1562.98 1316.45 1556.3 L1316.45 1536.95 L1312.15 1536.95 L1312.15 1532.4 L1316.45 1532.4 L1316.45 1522.27 L1322.34 1522.27 Z" fill="#000000" fill-rule="nonzero" fill-opacity="1" /><path clip-path="url(#clip000)" d="M1342.1 1532.4 L1347.96 1532.4 L1347.96 1568.04 L1342.1 1568.04 L1342.1 1532.4 M1342.1 1518.52 L1347.96 1518.52 L1347.96 1525.93 L1342.1 1525.93 L1342.1 1518.52 Z" fill="#000000" fill-rule="nonzero" fill-opacity="1" /><path clip-path="url(#clip000)" d="M1374.02 1536.5 Q1369.31 1536.5 1366.58 1540.19 Q1363.84 1543.85 1363.84 1550.25 Q1363.84 1556.65 1366.55 1560.34 Q1369.28 1564 1374.02 1564 Q1378.7 1564 1381.44 1560.31 Q1384.18 1556.62 1384.18 1550.25 Q1384.18 1543.92 1381.44 1540.23 Q1378.7 1536.5 1374.02 1536.5 M1374.02 1531.54 Q1381.66 1531.54 1386.02 1536.5 Q1390.38 1541.47 1390.38 1550.25 Q1390.38 1559 1386.02 1564 Q1381.66 1568.97 1374.02 1568.97 Q1366.35 1568.97 1361.99 1564 Q1357.66 1559 1357.66 1550.25 Q1357.66 1541.47 1361.99 1536.5 Q1366.35 1531.54 1374.02 1531.54 Z" fill="#000000" fill-rule="nonzero" fill-opacity="1" /><path clip-path="url(#clip000)" d="M1429.72 1546.53 L1429.72 1568.04 L1423.87 1568.04 L1423.87 1546.72 Q1423.87 1541.66 1421.89 1539.14 Q1419.92 1536.63 1415.97 1536.63 Q1411.23 1536.63 1408.5 1539.65 Q1405.76 1542.68 1405.76 1547.9 L1405.76 1568.04 L1399.87 1568.04 L1399.87 1532.4 L1405.76 1532.4 L1405.76 1537.93 Q1407.86 1534.72 1410.69 1533.13 Q1413.56 1531.54 1417.28 1531.54 Q1423.42 1531.54 1426.57 1535.36 Q1429.72 1539.14 1429.72 1546.53 Z" fill="#000000" fill-rule="nonzero" fill-opacity="1" /><polyline clip-path="url(#clip000)" style="stroke:#000000; stroke-linecap:round; stroke-linejoin:round; stroke-width:4; stroke-opacity:1; fill:none" points="242.135,1423.18 242.135,47.2441 "/>
<polyline clip-path="url(#clip000)" style="stroke:#000000; stroke-linecap:round; stroke-linejoin:round; stroke-width:4; stroke-opacity:1; fill:none" points="242.135,1144.64 261.032,1144.64 "/>
<polyline clip-path="url(#clip000)" style="stroke:#000000; stroke-linecap:round; stroke-linejoin:round; stroke-width:4; stroke-opacity:1; fill:none" points="242.135,834.944 261.032,834.944 "/>
<polyline clip-path="url(#clip000)" style="stroke:#000000; stroke-linecap:round; stroke-linejoin:round; stroke-width:4; stroke-opacity:1; fill:none" points="242.135,525.244 261.032,525.244 "/>
<polyline clip-path="url(#clip000)" style="stroke:#000000; stroke-linecap:round; stroke-linejoin:round; stroke-width:4; stroke-opacity:1; fill:none" points="242.135,215.543 261.032,215.543 "/>
<path clip-path="url(#clip000)" d="M114.26 1145.1 L143.936 1145.1 L143.936 1149.03 L114.26 1149.03 L114.26 1145.1 Z" fill="#000000" fill-rule="nonzero" fill-opacity="1" /><path clip-path="url(#clip000)" d="M168.195 1143.29 Q171.552 1144.01 173.427 1146.28 Q175.325 1148.55 175.325 1151.88 Q175.325 1156.99 171.806 1159.8 Q168.288 1162.6 161.806 1162.6 Q159.63 1162.6 157.315 1162.16 Q155.024 1161.74 152.57 1160.88 L152.57 1156.37 Q154.515 1157.5 156.829 1158.08 Q159.144 1158.66 161.667 1158.66 Q166.065 1158.66 168.357 1156.92 Q170.672 1155.19 170.672 1151.88 Q170.672 1148.82 168.519 1147.11 Q166.39 1145.37 162.57 1145.37 L158.542 1145.37 L158.542 1141.53 L162.755 1141.53 Q166.204 1141.53 168.033 1140.17 Q169.862 1138.78 169.862 1136.18 Q169.862 1133.52 167.964 1132.11 Q166.089 1130.68 162.57 1130.68 Q160.649 1130.68 158.45 1131.09 Q156.251 1131.51 153.612 1132.39 L153.612 1128.22 Q156.274 1127.48 158.589 1127.11 Q160.927 1126.74 162.987 1126.74 Q168.311 1126.74 171.413 1129.17 Q174.514 1131.58 174.514 1135.7 Q174.514 1138.57 172.871 1140.56 Q171.227 1142.53 168.195 1143.29 Z" fill="#000000" fill-rule="nonzero" fill-opacity="1" /><path clip-path="url(#clip000)" d="M194.19 1130.44 Q190.579 1130.44 188.75 1134.01 Q186.945 1137.55 186.945 1144.68 Q186.945 1151.79 188.75 1155.35 Q190.579 1158.89 194.19 1158.89 Q197.825 1158.89 199.63 1155.35 Q201.459 1151.79 201.459 1144.68 Q201.459 1137.55 199.63 1134.01 Q197.825 1130.44 194.19 1130.44 M194.19 1126.74 Q200 1126.74 203.056 1131.35 Q206.135 1135.93 206.135 1144.68 Q206.135 1153.41 203.056 1158.01 Q200 1162.6 194.19 1162.6 Q188.38 1162.6 185.301 1158.01 Q182.246 1153.41 182.246 1144.68 Q182.246 1135.93 185.301 1131.35 Q188.38 1126.74 194.19 1126.74 Z" fill="#000000" fill-rule="nonzero" fill-opacity="1" /><path clip-path="url(#clip000)" d="M114.26 835.396 L143.936 835.396 L143.936 839.331 L114.26 839.331 L114.26 835.396 Z" fill="#000000" fill-rule="nonzero" fill-opacity="1" /><path clip-path="url(#clip000)" d="M158.056 848.289 L174.376 848.289 L174.376 852.224 L152.431 852.224 L152.431 848.289 Q155.093 845.535 159.677 840.905 Q164.283 836.252 165.464 834.91 Q167.709 832.387 168.589 830.65 Q169.491 828.891 169.491 827.201 Q169.491 824.447 167.547 822.711 Q165.626 820.975 162.524 820.975 Q160.325 820.975 157.871 821.738 Q155.44 822.502 152.663 824.053 L152.663 819.331 Q155.487 818.197 157.94 817.618 Q160.394 817.039 162.431 817.039 Q167.802 817.039 170.996 819.725 Q174.19 822.41 174.19 826.9 Q174.19 829.03 173.38 830.951 Q172.593 832.849 170.487 835.442 Q169.908 836.113 166.806 839.331 Q163.704 842.525 158.056 848.289 Z" fill="#000000" fill-rule="nonzero" fill-opacity="1" /><path clip-path="url(#clip000)" d="M194.19 820.743 Q190.579 820.743 188.75 824.308 Q186.945 827.85 186.945 834.979 Q186.945 842.086 188.75 845.65 Q190.579 849.192 194.19 849.192 Q197.825 849.192 199.63 845.65 Q201.459 842.086 201.459 834.979 Q201.459 827.85 199.63 824.308 Q197.825 820.743 194.19 820.743 M194.19 817.039 Q200 817.039 203.056 821.646 Q206.135 826.229 206.135 834.979 Q206.135 843.706 203.056 848.312 Q200 852.896 194.19 852.896 Q188.38 852.896 185.301 848.312 Q182.246 843.706 182.246 834.979 Q182.246 826.229 185.301 821.646 Q188.38 817.039 194.19 817.039 Z" fill="#000000" fill-rule="nonzero" fill-opacity="1" /><path clip-path="url(#clip000)" d="M114.26 525.695 L143.936 525.695 L143.936 529.63 L114.26 529.63 L114.26 525.695 Z" fill="#000000" fill-rule="nonzero" fill-opacity="1" /><path clip-path="url(#clip000)" d="M154.839 538.589 L162.477 538.589 L162.477 512.223 L154.167 513.89 L154.167 509.63 L162.431 507.964 L167.107 507.964 L167.107 538.589 L174.746 538.589 L174.746 542.524 L154.839 542.524 L154.839 538.589 Z" fill="#000000" fill-rule="nonzero" fill-opacity="1" /><path clip-path="url(#clip000)" d="M194.19 511.043 Q190.579 511.043 188.75 514.607 Q186.945 518.149 186.945 525.279 Q186.945 532.385 188.75 535.95 Q190.579 539.491 194.19 539.491 Q197.825 539.491 199.63 535.95 Q201.459 532.385 201.459 525.279 Q201.459 518.149 199.63 514.607 Q197.825 511.043 194.19 511.043 M194.19 507.339 Q200 507.339 203.056 511.945 Q206.135 516.529 206.135 525.279 Q206.135 534.005 203.056 538.612 Q200 543.195 194.19 543.195 Q188.38 543.195 185.301 538.612 Q182.246 534.005 182.246 525.279 Q182.246 516.529 185.301 511.945 Q188.38 507.339 194.19 507.339 Z" fill="#000000" fill-rule="nonzero" fill-opacity="1" /><path clip-path="url(#clip000)" d="M194.19 201.342 Q190.579 201.342 188.75 204.907 Q186.945 208.448 186.945 215.578 Q186.945 222.684 188.75 226.249 Q190.579 229.791 194.19 229.791 Q197.825 229.791 199.63 226.249 Q201.459 222.684 201.459 215.578 Q201.459 208.448 199.63 204.907 Q197.825 201.342 194.19 201.342 M194.19 197.638 Q200 197.638 203.056 202.245 Q206.135 206.828 206.135 215.578 Q206.135 224.305 203.056 228.911 Q200 233.495 194.19 233.495 Q188.38 233.495 185.301 228.911 Q182.246 224.305 182.246 215.578 Q182.246 206.828 185.301 202.245 Q188.38 197.638 194.19 197.638 Z" fill="#000000" fill-rule="nonzero" fill-opacity="1" /><path clip-path="url(#clip000)" d="M16.4842 816.375 L16.4842 786.329 L21.895 786.329 L21.895 809.945 L35.9632 809.945 L35.9632 787.315 L41.3741 787.315 L41.3741 809.945 L58.5933 809.945 L58.5933 785.756 L64.0042 785.756 L64.0042 816.375 L16.4842 816.375 Z" fill="#000000" fill-rule="nonzero" fill-opacity="1" /><path clip-path="url(#clip000)" d="M16.4842 775.189 L16.4842 768.759 L58.5933 768.759 L58.5933 745.62 L64.0042 745.62 L64.0042 775.189 L16.4842 775.189 Z" fill="#000000" fill-rule="nonzero" fill-opacity="1" /><path clip-path="url(#clip000)" d="M41.3104 732.443 L58.7206 732.443 L58.7206 722.13 Q58.7206 716.942 56.5881 714.46 Q54.4238 711.945 49.9996 711.945 Q45.5436 711.945 43.4429 714.46 Q41.3104 716.942 41.3104 722.13 L41.3104 732.443 M21.7677 732.443 L36.0905 732.443 L36.0905 722.926 Q36.0905 718.216 34.34 715.924 Q32.5576 713.6 28.9291 713.6 Q25.3325 713.6 23.5501 715.924 Q21.7677 718.216 21.7677 722.926 L21.7677 732.443 M16.4842 738.872 L16.4842 722.449 Q16.4842 715.096 19.5397 711.118 Q22.5952 707.139 28.2289 707.139 Q32.5894 707.139 35.1675 709.176 Q37.7456 711.213 38.3822 715.16 Q39.4007 710.418 42.6472 707.808 Q45.8619 705.166 50.6998 705.166 Q57.0655 705.166 60.5348 709.495 Q64.0042 713.823 64.0042 721.812 L64.0042 738.872 L16.4842 738.872 Z" fill="#000000" fill-rule="nonzero" fill-opacity="1" /><path clip-path="url(#clip000)" d="M20.8447 676.011 Q20.8447 683.013 26.0645 687.151 Q31.2844 691.257 40.2919 691.257 Q49.2675 691.257 54.4874 687.151 Q59.7073 683.013 59.7073 676.011 Q59.7073 669.009 54.4874 664.935 Q49.2675 660.829 40.2919 660.829 Q31.2844 660.829 26.0645 664.935 Q20.8447 669.009 20.8447 676.011 M15.6248 676.011 Q15.6248 666.017 22.3406 660.033 Q29.0246 654.049 40.2919 654.049 Q51.5274 654.049 58.2432 660.033 Q64.9272 666.017 64.9272 676.011 Q64.9272 686.037 58.2432 692.052 Q51.5592 698.036 40.2919 698.036 Q29.0246 698.036 22.3406 692.052 Q15.6248 686.037 15.6248 676.011 Z" fill="#000000" fill-rule="nonzero" fill-opacity="1" /><polyline clip-path="url(#clip002)" style="stroke:#009af9; stroke-linecap:round; stroke-linejoin:round; stroke-width:4; stroke-opacity:1; fill:none" points="301.869,546.327 303.862,879.237 305.856,957.549 307.849,813.953 309.842,752.883 311.835,783.557 313.828,372.503 315.821,753.875 317.814,931.78 319.808,639.015 321.801,652.134 323.794,1001.75 325.787,764.282 327.78,934.022 329.773,828.25 331.766,903.962 333.76,932.986 335.753,848.989 337.746,854.706 339.739,891.717 341.732,1082.09 343.725,298.881 345.718,549.741 347.712,582.318 349.705,571.684 351.698,367.632 353.691,696.444 355.684,1384.24 357.677,743.863 359.67,729.404 361.664,660.442 363.657,1008.97 365.65,519.403 367.643,765.948 369.636,1074.3 371.629,555.928 373.622,1079.32 375.616,962.261 377.609,523.381 379.602,676.463 381.595,966.86 383.588,773.248 385.581,638.518 387.574,751.542 389.568,549.94 391.561,986.086 393.554,664.286 395.547,560.232 397.54,289.582 399.533,502.887 401.526,582.624 403.52,721.051 405.513,455.443 407.506,629.366 409.499,684.616 411.492,723.716 413.485,834.162 415.479,689.213 417.472,290.794 419.465,621.648 421.458,491.441 423.451,718.231 425.444,624.648 427.437,939.13 429.431,379.614 431.424,310.56 433.417,467.704 435.41,748.004 437.403,606.308 439.396,509.391 441.389,475.201 443.383,396.563 445.376,492.431 447.369,636.47 449.362,275.685 451.355,320.45 453.348,559.592 455.341,679.137 457.335,388.785 459.328,427.211 461.321,429.421 463.314,395.53 465.307,453.754 467.3,407.654 469.293,632.332 471.287,411.01 473.28,533.421 475.273,654.401 477.266,727.334 479.259,453.433 481.252,385.019 483.245,393.877 485.239,354.37 487.232,268.626 489.225,415.999 491.218,432.001 493.211,539.431 495.204,344.804 497.197,341.459 499.191,406.211 501.184,669.124 503.177,467.697 505.17,390.558 507.163,638.353 509.156,812.014 511.149,371.396 513.143,425.876 515.136,217.679 517.129,502.207 519.122,483.328 521.115,507.603 523.108,417.574 525.101,212.154 527.095,356.624 529.088,227.45 531.081,377.85 533.074,294.401 535.067,518.402 537.06,253.627 539.054,158.966 541.047,608.296 543.04,431.469 545.033,412.432 547.026,406.543 549.019,387.991 551.012,338.957 553.006,296.845 554.999,492.131 556.992,474.029 558.985,523.422 560.978,187.728 562.971,311.842 564.964,292.108 566.958,348.589 568.951,288.181 570.944,215.667 572.937,256.852 574.93,587.883 576.923,581.311 578.916,335.266 580.91,309.915 582.903,262.046 584.896,219.632 586.889,145.528 588.882,212.236 590.875,436.186 592.868,306.278 594.862,294.229 596.855,320.774 598.848,402.801 600.841,305.163 602.834,276.36 604.827,458.937 606.82,293.01 608.814,227.676 610.807,369.654 612.8,411.548 614.793,476.146 616.786,584.917 618.779,484.458 620.772,314.115 622.766,191.883 624.759,260.657 626.752,263.809 628.745,410.174 630.738,418.449 632.731,313.627 634.724,209.013 636.718,599.726 638.711,236.906 640.704,295.72 642.697,304.733 644.69,269.659 646.683,284.771 648.677,198.693 650.67,310.018 652.663,329.623 654.656,374.621 656.649,238.845 658.642,312.71 660.635,120.567 662.629,215.224 664.622,530.734 666.615,271.447 668.608,352.807 670.601,187.684 672.594,402.787 674.587,211.959 676.581,236.581 678.574,312.83 680.567,420.238 682.56,238.091 684.553,205.835 686.546,162.967 688.539,213.487 690.533,484.83 692.526,310.025 694.519,204.645 696.512,411.193 698.505,313.877 700.498,373.406 702.491,126.597 704.485,239.34 706.478,339.124 708.471,229.133 710.464,292.252 712.457,401.745 714.45,238.508 716.443,439.284 718.437,222.603 720.43,304.882 722.423,561.91 724.416,224.676 726.409,288.76 728.402,301.619 730.395,119.87 732.389,516.835 734.382,340.181 736.375,250.553 738.368,218.78 740.361,428.444 742.354,247.836 744.347,195.089 746.341,140.961 748.334,450.335 750.327,196.298 752.32,370.536 754.313,382.121 756.306,207.266 758.299,177.51 760.293,258.32 762.286,199.217 764.279,171.66 766.272,148.722 768.265,123.196 770.258,206.926 772.252,218.482 774.245,291.833 776.238,239.941 778.231,271.886 780.224,119.022 782.217,236.483 784.21,314.482 786.204,238.077 788.197,152.739 790.19,127.007 792.183,231.031 794.176,202.489 796.169,184.572 798.162,235.123 800.156,174.622 802.149,341.161 804.142,174.092 806.135,274.685 808.128,206.601 810.121,274.253 812.114,250.43 814.108,313.907 816.101,259.675 818.094,189.719 820.087,198.016 822.08,397.781 824.073,129.973 826.066,303.857 828.06,286.642 830.053,174.192 832.046,314.258 834.039,461.443 836.032,212.952 838.025,290.87 840.018,197.45 842.012,142.408 844.005,296.255 845.998,205.307 847.991,241.37 849.984,251.352 851.977,254.823 853.97,303.192 855.964,178.577 857.957,216.458 859.95,316.3 861.943,251.702 863.936,290.233 865.929,363.675 867.922,450.345 869.916,175.748 871.909,295.305 873.902,276.756 875.895,250.813 877.888,173.796 879.881,161.6 881.874,331.392 883.868,184.391 885.861,236.825 887.854,273.835 889.847,196.043 891.84,316.315 893.833,312.707 895.827,226.217 897.82,160.05 899.813,152.037 901.806,436.713 903.799,307.998 905.792,199.291 907.785,166.482 909.779,385.489 911.772,204.593 913.765,372.496 915.758,330.097 917.751,214.557 919.744,328.555 921.737,224.753 923.731,207.293 925.724,276.115 927.717,177.55 929.71,185.122 931.703,136.346 933.696,384.627 935.689,137.889 937.683,359.922 939.676,185.62 941.669,251.321 943.662,163.257 945.655,145.392 947.648,215.386 949.641,181.242 951.635,218.492 953.628,207.715 955.621,169.819 957.614,177.48 959.607,242.728 961.6,164.951 963.593,364.186 965.587,192.272 967.58,250.211 969.573,231.005 971.566,154.25 973.559,162.672 975.552,168.257 977.545,192.063 979.539,221.519 981.532,206.412 983.525,129.098 985.518,220.174 987.511,141.582 989.504,228.932 991.497,314.876 993.491,294.595 995.484,251.57 997.477,175.605 999.47,257.372 1001.46,314.712 1003.46,223.587 1005.45,148.122 1007.44,264.377 1009.44,123.989 1011.43,287.777 1013.42,318.568 1015.42,203.619 1017.41,293.23 1019.4,318.409 1021.39,216.434 1023.39,183.959 1025.38,306.771 1027.37,212.723 1029.37,254.824 1031.36,157.861 1033.35,289.077 1035.35,153.934 1037.34,188.298 1039.33,288.341 1041.33,132.504 1043.32,125.04 1045.31,218.52 1047.31,141.631 1049.3,338.806 1051.29,146.782 1053.28,175.879 1055.28,174.741 1057.27,136.052 1059.26,257.226 1061.26,317.462 1063.25,102.278 1065.24,311.75 1067.24,379.373 1069.23,297.917 1071.22,159.932 1073.22,283.329 1075.21,92.8636 1077.2,256.496 1079.2,311.866 1081.19,193.174 1083.18,320.776 1085.18,215.561 1087.17,199.466 1089.16,264.889 1091.15,333.627 1093.15,174.942 1095.14,145.102 1097.13,286.93 1099.13,162.058 1101.12,149.953 1103.11,201.094 1105.11,149.587 1107.1,235.763 1109.09,156.89 1111.09,140.196 1113.08,285.991 1115.07,257.545 1117.07,352.015 1119.06,201.395 1121.05,186.693 1123.05,212.158 1125.04,321.553 1127.03,140.719 1129.02,189.46 1131.02,355.169 1133.01,316.984 1135,236.222 1137,395.314 1138.99,247.008 1140.98,182.235 1142.98,207.295 1144.97,321.909 1146.96,130.497 1148.96,183.409 1150.95,241.543 1152.94,258.768 1154.94,236.032 1156.93,152.817 1158.92,254.696 1160.91,183.749 1162.91,261.035 1164.9,210.562 1166.89,169.499 1168.89,311.124 1170.88,138.756 1172.87,156.894 1174.87,241.669 1176.86,187.09 1178.85,218.078 1180.85,157.355 1182.84,389.141 1184.83,246.739 1186.83,175.099 1188.82,195.65 1190.81,113.408 1192.81,198.142 1194.8,197.081 1196.79,240.148 1198.78,240.974 1200.78,304.965 1202.77,172.043 1204.76,157.665 1206.76,214.649 1208.75,202.401 1210.74,124.087 1212.74,130.463 1214.73,328.942 1216.72,182.302 1218.72,342.359 1220.71,249.515 1222.7,173.846 1224.7,184.586 1226.69,179.434 1228.68,142.439 1230.67,217.059 1232.67,305.81 1234.66,198.912 1236.65,399.338 1238.65,214.128 1240.64,323.281 1242.63,234.799 1244.63,148.606 1246.62,260.793 1248.61,282.458 1250.61,164.844 1252.6,375.347 1254.59,239.775 1256.59,168.552 1258.58,148.419 1260.57,151.629 1262.57,180.363 1264.56,155.498 1266.55,353.287 1268.54,326.846 1270.54,144.638 1272.53,153.026 1274.52,278.603 1276.52,131.851 1278.51,239.975 1280.5,304.281 1282.5,121.703 1284.49,246.617 1286.48,273.461 1288.48,177.516 1290.47,408.037 1292.46,111.819 1294.46,230.125 1296.45,152.468 1298.44,261.877 1300.44,223.568 1302.43,194.829 1304.42,231.424 1306.41,187.126 1308.41,292.146 1310.4,299.207 1312.39,217.627 1314.39,116.178 1316.38,234.935 1318.37,233.298 1320.37,135.995 1322.36,183.52 1324.35,228.465 1326.35,271.15 1328.34,355.638 1330.33,224.999 1332.33,190.359 1334.32,132.287 1336.31,272.059 1338.3,200.602 1340.3,142.398 1342.29,146.364 1344.28,134.65 1346.28,322.811 1348.27,266.416 1350.26,135.136 1352.26,112.297 1354.25,151.602 1356.24,232.009 1358.24,175.483 1360.23,86.1857 1362.22,193.68 1364.22,251.162 1366.21,357.101 1368.2,129.269 1370.2,204.114 1372.19,206.159 1374.18,190.153 1376.17,251.269 1378.17,177.422 1380.16,333.818 1382.15,125.947 1384.15,176.585 1386.14,243.232 1388.13,237.904 1390.13,157.914 1392.12,332.559 1394.11,158.839 1396.11,367.937 1398.1,192.751 1400.09,194.441 1402.09,317.118 1404.08,226.221 1406.07,267.221 1408.06,105.938 1410.06,165.665 1412.05,232.293 1414.04,216.052 1416.04,150.964 1418.03,112.427 1420.02,201.81 1422.02,282.263 1424.01,168.364 1426,156.6 1428,195.293 1429.99,273.005 1431.98,258.969 1433.98,127.336 1435.97,195.121 1437.96,159.75 1439.96,303.713 1441.95,139.342 1443.94,91.7541 1445.93,207.334 1447.93,226.717 1449.92,187.55 1451.91,233.546 1453.91,386.982 1455.9,327.617 1457.89,108.926 1459.89,253.198 1461.88,311.696 1463.87,242.852 1465.87,320.765 1467.86,170.523 1469.85,256.314 1471.85,146.295 1473.84,179.045 1475.83,192.933 1477.82,261.155 1479.82,255.351 1481.81,121.723 1483.8,129.699 1485.8,169.666 1487.79,125.351 1489.78,123.669 1491.78,293.436 1493.77,194.283 1495.76,163.005 1497.76,262.064 1499.75,124.721 1501.74,268.803 1503.74,142.176 1505.73,164.813 1507.72,242.327 1509.72,262.235 1511.71,276.21 1513.7,161.58 1515.69,280.155 1517.69,260.439 1519.68,138.19 1521.67,262.391 1523.67,240.844 1525.66,206.682 1527.65,220.101 1529.65,291.379 1531.64,177.15 1533.63,253.621 1535.63,260.471 1537.62,249.424 1539.61,134.713 1541.61,280.846 1543.6,219.177 1545.59,219.381 1547.59,233.716 1549.58,172.491 1551.57,145.744 1553.56,144.477 1555.56,160.218 1557.55,142.499 1559.54,273.322 1561.54,263.98 1563.53,231.79 1565.52,193.154 1567.52,330.987 1569.51,180.336 1571.5,128.945 1573.5,154.944 1575.49,136.617 1577.48,101.072 1579.48,175.757 1581.47,221.495 1583.46,281.077 1585.45,259.909 1587.45,217.32 1589.44,126.192 1591.43,106.431 1593.43,192.428 1595.42,314.214 1597.41,101.197 1599.41,210.625 1601.4,114.304 1603.39,307.337 1605.39,209.721 1607.38,154.857 1609.37,157.914 1611.37,329.071 1613.36,163.434 1615.35,174.848 1617.35,154.042 1619.34,249.809 1621.33,232.798 1623.32,182.62 1625.32,182.354 1627.31,287.06 1629.3,148.495 1631.3,346.659 1633.29,207.864 1635.28,244.901 1637.28,180.89 1639.27,90.9489 1641.26,266.699 1643.26,227.277 1645.25,215.303 1647.24,302.923 1649.24,352.327 1651.23,159.27 1653.22,137.711 1655.21,264.872 1657.21,155.105 1659.2,291.733 1661.19,179.87 1663.19,144.167 1665.18,221.963 1667.17,419.889 1669.17,198.089 1671.16,155.262 1673.15,154.28 1675.15,163.15 1677.14,126.759 1679.13,256.729 1681.13,157.291 1683.12,235.3 1685.11,258.031 1687.11,233.741 1689.1,91.4761 1691.09,207.262 1693.08,357.686 1695.08,329.865 1697.07,227.867 1699.06,189.847 1701.06,159.717 1703.05,308.509 1705.04,179.339 1707.04,291.247 1709.03,178.694 1711.02,237.762 1713.02,148.864 1715.01,135.742 1717,217.943 1719,141.081 1720.99,187.238 1722.98,236.708 1724.97,202.605 1726.97,175.795 1728.96,237.109 1730.95,189.342 1732.95,198.211 1734.94,136.104 1736.93,186.522 1738.93,311.119 1740.92,136.511 1742.91,263.17 1744.91,340.466 1746.9,127.809 1748.89,132.443 1750.89,178.834 1752.88,193.569 1754.87,155.886 1756.87,133.092 1758.86,254.097 1760.85,191.765 1762.84,228.535 1764.84,166.629 1766.83,158.164 1768.82,256.335 1770.82,194.048 1772.81,193.117 1774.8,134.816 1776.8,245.958 1778.79,157.069 1780.78,226.719 1782.78,154.719 1784.77,135.901 1786.76,249.266 1788.76,230.444 1790.75,158.837 1792.74,398.47 1794.74,309.623 1796.73,126.257 1798.72,278.215 1800.71,158.719 1802.71,165.134 1804.7,106.873 1806.69,233.212 1808.69,198.447 1810.68,304.102 1812.67,206.968 1814.67,144.662 1816.66,139.237 1818.65,165.36 1820.65,156.196 1822.64,225.198 1824.63,132.123 1826.63,185.821 1828.62,546.63 1830.61,150.802 1832.6,154.209 1834.6,150.287 1836.59,214.509 1838.58,196.025 1840.58,133.307 1842.57,155.714 1844.56,241.048 1846.56,205.186 1848.55,238.891 1850.54,288.683 1852.54,135.748 1854.53,191.745 1856.52,127.303 1858.52,189.746 1860.51,223.905 1862.5,338.367 1864.5,179.832 1866.49,171.924 1868.48,184.151 1870.47,221.499 1872.47,150.219 1874.46,156.936 1876.45,423.957 1878.45,150.201 1880.44,164.197 1882.43,534.642 1884.43,288.711 1886.42,220.095 1888.41,297.728 1890.41,200.028 1892.4,103.053 1894.39,241.914 1896.39,175.217 1898.38,177.133 1900.37,186.74 1902.36,107.017 1904.36,141.224 1906.35,340.473 1908.34,202.359 1910.34,134.775 1912.33,193.196 1914.32,154.618 1916.32,153.462 1918.31,115.747 1920.3,430.876 1922.3,188.311 1924.29,218.285 1926.28,295.317 1928.28,198.438 1930.27,202.324 1932.26,176.059 1934.26,202.992 1936.25,257.081 1938.24,228.156 1940.23,191.621 1942.23,347.849 1944.22,147.647 1946.21,145.369 1948.21,158.257 1950.2,155.444 1952.19,153.008 1954.19,122.614 1956.18,213.188 1958.17,207.183 1960.17,153.66 1962.16,166.878 1964.15,180.027 1966.15,246.89 1968.14,148.264 1970.13,280.409 1972.12,240.851 1974.12,229.82 1976.11,340.266 1978.1,127.925 1980.1,269.767 1982.09,240.482 1984.08,441.055 1986.08,172.576 1988.07,135.423 1990.06,216.549 1992.06,95.8949 1994.05,266.969 1996.04,301.71 1998.04,310.623 2000.03,229.313 2002.02,262.425 2004.02,204.986 2006.01,294.973 2008,329.089 2009.99,131.836 2011.99,227.915 2013.98,216.564 2015.97,351.238 2017.97,254.926 2019.96,190.349 2021.95,340.806 2023.95,237.453 2025.94,126.495 2027.93,260.158 2029.93,177.158 2031.92,211.758 2033.91,201.067 2035.91,200.637 2037.9,245.481 2039.89,231.619 2041.89,294.229 2043.88,162.274 2045.87,174.528 2047.86,334.582 2049.86,129.142 2051.85,127.218 2053.84,181.403 2055.84,88.4687 2057.83,267.978 2059.82,173.666 2061.82,168.817 2063.81,163.795 2065.8,138.272 2067.8,126.462 2069.79,230.631 2071.78,143.4 2073.78,181.805 2075.77,445.054 2077.76,201.367 2079.75,170.152 2081.75,157.756 2083.74,132.344 2085.73,206.7 2087.73,264.064 2089.72,334.25 2091.71,209.29 2093.71,101.871 2095.7,246.894 2097.69,272.778 2099.69,87.7338 2101.68,163.91 2103.67,507.131 2105.67,303.518 2107.66,174.15 2109.65,136.419 2111.65,150.875 2113.64,166.173 2115.63,244.854 2117.62,212.969 2119.62,229.602 2121.61,231.375 2123.6,192.658 2125.6,115.57 2127.59,89.7079 2129.58,356.35 2131.58,179.118 2133.57,277.495 2135.56,197.296 2137.56,416.448 2139.55,266.604 2141.54,196.867 2143.54,167.015 2145.53,333.856 2147.52,222.311 2149.51,305.591 2151.51,275.715 2153.5,234.288 2155.49,234.451 2157.49,156.748 2159.48,156.55 2161.47,94.2641 2163.47,213.343 2165.46,337.166 2167.45,239.961 2169.45,389.807 2171.44,298.009 2173.43,419.578 2175.43,344.471 2177.42,157.414 2179.41,154.545 2181.41,261.123 2183.4,163.435 2185.39,252.6 2187.38,166.273 2189.38,231.196 2191.37,195.954 2193.36,200.671 2195.36,290.329 2197.35,293.822 2199.34,286.667 2201.34,194.876 2203.33,277.854 2205.32,169.259 2207.32,329.946 2209.31,241.647 2211.3,212.002 2213.3,124.758 2215.29,168.077 2217.28,224.588 2219.27,304.542 2221.27,177.022 2223.26,219.375 2225.25,181.361 2227.25,171.302 2229.24,249.779 2231.23,205.409 2233.23,208.849 2235.22,169.651 2237.21,206.585 2239.21,206.478 2241.2,245.909 2243.19,165.097 2245.19,116.973 2247.18,242.576 2249.17,261.067 2251.17,227.558 2253.16,232.644 2255.15,178.471 2257.14,173.192 2259.14,220.007 2261.13,250.936 2263.12,235.181 2265.12,357.464 2267.11,206.526 2269.1,247.567 2271.1,270.982 2273.09,351.721 2275.08,316.596 2277.08,292.628 2279.07,237.492 2281.06,190.622 2283.06,212.872 2285.05,307.363 2287.04,205.031 2289.04,179.056 2291.03,335.045 2293.02,299.718 "/>
<polyline clip-path="url(#clip002)" style="stroke:#e26f46; stroke-linecap:round; stroke-linejoin:round; stroke-width:4; stroke-opacity:1; fill:none" points="301.869,835.126 303.862,822.651 305.856,829.577 307.849,804.15 309.842,811.564 311.835,797.363 313.828,783.113 315.821,807.41 317.814,789.829 319.808,774.626 321.801,756.26 323.794,766.853 325.787,766.476 327.78,748.982 329.773,762.895 331.766,728.177 333.76,747.936 335.753,733.75 337.746,725.324 339.739,740.825 341.732,702.181 343.725,708.585 345.718,698.332 347.712,697.564 349.705,680.571 351.698,685.075 353.691,695.027 355.684,697.697 357.677,673.273 359.67,668.824 361.664,662.016 363.657,651.025 365.65,643.179 367.643,660.563 369.636,636.832 371.629,642.109 373.622,629.805 375.616,625.718 377.609,623.876 379.602,630.238 381.595,617.1 383.588,607.34 385.581,610.034 387.574,596.825 389.568,589.25 391.561,607.962 393.554,591.357 395.547,573.267 397.54,582.059 399.533,602.988 401.526,565.886 403.52,567.555 405.513,576.188 407.506,558.857 409.499,549.766 411.492,565.185 413.485,543.387 415.479,541.922 417.472,533.94 419.465,522.248 421.458,534.566 423.451,509.824 425.444,524.439 427.437,519.263 429.431,508.866 431.424,512.025 433.417,523.979 435.41,499.451 437.403,504.981 439.396,493.069 441.389,496.659 443.383,490.907 445.376,501.568 447.369,485.734 449.362,480.557 451.355,487.661 453.348,475.015 455.341,460.385 457.335,459.164 459.328,452.684 461.321,446.71 463.314,471.582 465.307,456.78 467.3,444.725 469.293,457.873 471.287,441.657 473.28,443.277 475.273,429.066 477.266,418.304 479.259,436.331 481.252,436.934 483.245,430.877 485.239,417.146 487.232,429.467 489.225,413.839 491.218,418.603 493.211,409.258 495.204,417.216 497.197,405.27 499.191,406.618 501.184,397.765 503.177,401.009 505.17,395.588 507.163,395.209 509.156,418.577 511.149,396.187 513.143,377.86 515.136,409.559 517.129,386.855 519.122,378.837 521.115,369.018 523.108,388.923 525.101,373.753 527.095,375.82 529.088,365.825 531.081,367.999 533.074,368.493 535.067,377.309 537.06,363.647 539.054,371.329 541.047,360.053 543.04,348.976 545.033,352.994 547.026,351.86 549.019,341.305 551.012,341.812 553.006,338.7 554.999,343.649 556.992,352.762 558.985,325.139 560.978,341.213 562.971,344.547 564.964,340.912 566.958,339.281 568.951,341.065 570.944,333.19 572.937,320.966 574.93,319.156 576.923,330.689 578.916,321.19 580.91,317.487 582.903,325.034 584.896,329.233 586.889,314.535 588.882,305.469 590.875,312.72 592.868,304.762 594.862,301.34 596.855,297.625 598.848,313.505 600.841,307.674 602.834,312.229 604.827,310.772 606.82,290.404 608.814,295.806 610.807,303.554 612.8,295.93 614.793,280.778 616.786,282.08 618.779,291.55 620.772,295.246 622.766,305.014 624.759,279.657 626.752,281.062 628.745,271.439 630.738,277.306 632.731,284.975 634.724,294.499 636.718,284.625 638.711,270.44 640.704,284.64 642.697,284.329 644.69,278.288 646.683,278.428 648.677,274.2 650.67,284.634 652.663,269.553 654.656,275.498 656.649,274.435 658.642,264.769 660.635,266.191 662.629,261.037 664.622,264.305 666.615,252.589 668.608,289.166 670.601,254.09 672.594,261.059 674.587,257.238 676.581,261.587 678.574,253.542 680.567,250.829 682.56,260.645 684.553,253.696 686.546,261.519 688.539,251.874 690.533,261.035 692.526,259.021 694.519,248.763 696.512,248.031 698.505,259.12 700.498,247.784 702.491,251.917 704.485,244.994 706.478,248.649 708.471,240.9 710.464,249.088 712.457,241.182 714.45,244.862 716.443,248.52 718.437,251.113 720.43,251.116 722.423,242.931 724.416,252.25 726.409,250.223 728.402,236.41 730.395,235.579 732.389,234.906 734.382,232.837 736.375,257.52 738.368,237.345 740.361,245.423 742.354,242.158 744.347,249.403 746.341,242.805 748.334,239.545 750.327,236.821 752.32,242.419 754.313,237.905 756.306,230.707 758.299,228.27 760.293,233.311 762.286,233.876 764.279,234.864 766.272,232.375 768.265,233.48 770.258,247.022 772.252,238.378 774.245,224.968 776.238,223.752 778.231,226.531 780.224,231.506 782.217,232.164 784.21,242.86 786.204,237.732 788.197,238.012 790.19,219.06 792.183,227.663 794.176,239.369 796.169,243.726 798.162,227.522 800.156,219.187 802.149,242.617 804.142,226.203 806.135,229.761 808.128,222.561 810.121,240.586 812.114,231.99 814.108,228.48 816.101,238.705 818.094,229.637 820.087,230.717 822.08,225.543 824.073,238.95 826.066,226.073 828.06,219.868 830.053,227.633 832.046,224.696 834.039,230.987 836.032,221.94 838.025,221.262 840.018,223.723 842.012,221.894 844.005,220.03 845.998,220.291 847.991,212.92 849.984,227.079 851.977,222.39 853.97,243.826 855.964,223.815 857.957,237.464 859.95,215.403 861.943,211.888 863.936,226.512 865.929,219.625 867.922,232.315 869.916,234.098 871.909,216.919 873.902,234.221 875.895,224.783 877.888,221.41 879.881,220.313 881.874,213.639 883.868,220.027 885.861,215.769 887.854,215.082 889.847,224.653 891.84,226.441 893.833,221.196 895.827,221.946 897.82,220.136 899.813,229.284 901.806,229.831 903.799,219.859 905.792,215.82 907.785,219.827 909.779,215.847 911.772,222.49 913.765,230.822 915.758,235.078 917.751,218.53 919.744,212.475 921.737,211.012 923.731,217.402 925.724,232.318 927.717,215.737 929.71,215.005 931.703,232.44 933.696,216.459 935.689,217.412 937.683,227.573 939.676,215.687 941.669,222.549 943.662,212.23 945.655,227.938 947.648,216.882 949.641,235.236 951.635,216.986 953.628,216.666 955.621,233.615 957.614,218.834 959.607,212.14 961.6,211.507 963.593,212.338 965.587,224.336 967.58,210.081 969.573,221.904 971.566,213.153 973.559,212.8 975.552,208.92 977.545,213.237 979.539,201.347 981.532,216.138 983.525,217.096 985.518,210.902 987.511,223.507 989.504,209.888 991.497,214.515 993.491,209.604 995.484,217.643 997.477,227.487 999.47,211.879 1001.46,231.276 1003.46,217.858 1005.45,211.245 1007.44,219.813 1009.44,209.33 1011.43,224.818 1013.42,224.738 1015.42,225.712 1017.41,211.349 1019.4,217.242 1021.39,221.641 1023.39,217.449 1025.38,222.266 1027.37,222.134 1029.37,216.205 1031.36,216.791 1033.35,200.994 1035.35,207.023 1037.34,230.749 1039.33,223.203 1041.33,228.169 1043.32,201.902 1045.31,212.517 1047.31,211.871 1049.3,219.167 1051.29,216.29 1053.28,213.399 1055.28,212.528 1057.27,210.292 1059.26,219.061 1061.26,204.177 1063.25,220.155 1065.24,219.651 1067.24,218.878 1069.23,210.146 1071.22,220.997 1073.22,212.32 1075.21,198.61 1077.2,229.206 1079.2,220.204 1081.19,215.562 1083.18,232.561 1085.18,237.107 1087.17,215.929 1089.16,206.77 1091.15,208.81 1093.15,212.184 1095.14,212.516 1097.13,217.604 1099.13,213.416 1101.12,214.858 1103.11,219.277 1105.11,224.68 1107.1,216.451 1109.09,209.934 1111.09,197.542 1113.08,214.752 1115.07,214.345 1117.07,220.344 1119.06,207.777 1121.05,215.49 1123.05,205.593 1125.04,235.263 1127.03,216.506 1129.02,222.364 1131.02,220.266 1133.01,219.076 1135,210.407 1137,210.013 1138.99,214.571 1140.98,209.84 1142.98,225.539 1144.97,215.396 1146.96,218.515 1148.96,225.308 1150.95,211.482 1152.94,212.276 1154.94,227.769 1156.93,215.727 1158.92,212.78 1160.91,213.654 1162.91,221.572 1164.9,214.928 1166.89,204.793 1168.89,226.495 1170.88,238.427 1172.87,205.206 1174.87,231.252 1176.86,218.494 1178.85,218.514 1180.85,214.339 1182.84,211.567 1184.83,217.449 1186.83,208.685 1188.82,211.349 1190.81,201.231 1192.81,218.963 1194.8,226.528 1196.79,210.253 1198.78,217.217 1200.78,218.983 1202.77,215.977 1204.76,216.67 1206.76,210.322 1208.75,223.327 1210.74,204.418 1212.74,224.107 1214.73,207.868 1216.72,225.382 1218.72,217.055 1220.71,222.932 1222.7,214.754 1224.7,199.782 1226.69,215.413 1228.68,201.765 1230.67,217.867 1232.67,224.708 1234.66,213.329 1236.65,223.516 1238.65,221.905 1240.64,206.971 1242.63,213.124 1244.63,213.55 1246.62,214.093 1248.61,209.528 1250.61,207.358 1252.6,210.515 1254.59,217.733 1256.59,223.568 1258.58,215.309 1260.57,216.447 1262.57,233.627 1264.56,209.462 1266.55,219.942 1268.54,200.012 1270.54,226.473 1272.53,213.138 1274.52,228.085 1276.52,218.513 1278.51,215.388 1280.5,230.186 1282.5,215.096 1284.49,232.419 1286.48,217.104 1288.48,214.202 1290.47,218.924 1292.46,220.909 1294.46,210.962 1296.45,220.499 1298.44,219.726 1300.44,214.923 1302.43,218.087 1304.42,222.341 1306.41,220.298 1308.41,203.317 1310.4,218.09 1312.39,206.348 1314.39,213.75 1316.38,215.245 1318.37,221.793 1320.37,207.599 1322.36,221.249 1324.35,221.645 1326.35,214.64 1328.34,237.309 1330.33,206.143 1332.33,215.813 1334.32,217.201 1336.31,211.205 1338.3,224.073 1340.3,208.122 1342.29,214.909 1344.28,218.369 1346.28,213.728 1348.27,210.736 1350.26,218.392 1352.26,219.944 1354.25,213.174 1356.24,210.69 1358.24,219.505 1360.23,229.174 1362.22,211.757 1364.22,206.996 1366.21,226.998 1368.2,214.334 1370.2,206.58 1372.19,233.247 1374.18,228.852 1376.17,211.495 1378.17,215.644 1380.16,208.512 1382.15,210.004 1384.15,211.795 1386.14,209.5 1388.13,215.554 1390.13,211.259 1392.12,220.482 1394.11,215.939 1396.11,225.548 1398.1,226.596 1400.09,212.973 1402.09,205.766 1404.08,219.468 1406.07,221.935 1408.06,217.197 1410.06,204.087 1412.05,222.442 1414.04,212.331 1416.04,204.721 1418.03,220.933 1420.02,214.864 1422.02,219.588 1424.01,203.366 1426,231.84 1428,215.695 1429.99,214.175 1431.98,224.416 1433.98,215.42 1435.97,209.132 1437.96,228.171 1439.96,209.856 1441.95,208.153 1443.94,217.166 1445.93,201.989 1447.93,214.703 1449.92,206.007 1451.91,220.058 1453.91,204.34 1455.9,204.068 1457.89,210.624 1459.89,214.157 1461.88,204.762 1463.87,216.824 1465.87,218.184 1467.86,210.557 1469.85,210.947 1471.85,204.594 1473.84,223.34 1475.83,226.885 1477.82,219.793 1479.82,207.003 1481.81,209.542 1483.8,215.108 1485.8,226.409 1487.79,221.903 1489.78,213.074 1491.78,202.854 1493.77,223.368 1495.76,213.71 1497.76,202.301 1499.75,215.065 1501.74,234.157 1503.74,228.791 1505.73,217.201 1507.72,197.59 1509.72,211.563 1511.71,214.36 1513.7,211.244 1515.69,208.16 1517.69,218.659 1519.68,219.178 1521.67,221.594 1523.67,216.049 1525.66,212.442 1527.65,218.72 1529.65,222.187 1531.64,216.606 1533.63,218.303 1535.63,224.408 1537.62,220.162 1539.61,217.534 1541.61,209.725 1543.6,208.93 1545.59,224.93 1547.59,201.307 1549.58,210.571 1551.57,212.062 1553.56,219.46 1555.56,224.562 1557.55,207.988 1559.54,224.712 1561.54,213.329 1563.53,237.05 1565.52,206.434 1567.52,207.913 1569.51,206.799 1571.5,236.963 1573.5,209.416 1575.49,218.362 1577.48,216.982 1579.48,202.806 1581.47,223.363 1583.46,200.085 1585.45,224.57 1587.45,210.064 1589.44,221.661 1591.43,214.953 1593.43,222.701 1595.42,217.156 1597.41,213.854 1599.41,219.996 1601.4,207.299 1603.39,218.036 1605.39,219.855 1607.38,210.368 1609.37,216.217 1611.37,216.697 1613.36,218.878 1615.35,229.272 1617.35,217.758 1619.34,224.997 1621.33,219.818 1623.32,205.961 1625.32,207.511 1627.31,222.96 1629.3,215.568 1631.3,213.399 1633.29,219.328 1635.28,224.196 1637.28,214.196 1639.27,222.352 1641.26,216.332 1643.26,224.893 1645.25,205.797 1647.24,228.092 1649.24,213.565 1651.23,224.646 1653.22,211.911 1655.21,209.144 1657.21,209.72 1659.2,217.764 1661.19,215.254 1663.19,217.974 1665.18,218.534 1667.17,211.832 1669.17,221.926 1671.16,215.324 1673.15,217.321 1675.15,216.87 1677.14,222.855 1679.13,210.923 1681.13,210.081 1683.12,216.539 1685.11,222.764 1687.11,199.979 1689.1,214.851 1691.09,210.544 1693.08,210.864 1695.08,216.9 1697.07,208.081 1699.06,216.759 1701.06,224.464 1703.05,223.719 1705.04,217.042 1707.04,231.977 1709.03,220.507 1711.02,205.985 1713.02,203.307 1715.01,217.418 1717,207.741 1719,228.966 1720.99,207.086 1722.98,220.952 1724.97,223.264 1726.97,209.743 1728.96,218.036 1730.95,227.274 1732.95,200.709 1734.94,239.181 1736.93,224.959 1738.93,210.211 1740.92,231.482 1742.91,218.845 1744.91,222.534 1746.9,216.814 1748.89,209.696 1750.89,207.135 1752.88,217.393 1754.87,217.838 1756.87,225.403 1758.86,213.469 1760.85,219.748 1762.84,207.1 1764.84,218.848 1766.83,209.956 1768.82,220.986 1770.82,219.821 1772.81,221.75 1774.8,224.395 1776.8,201.151 1778.79,208.279 1780.78,208.124 1782.78,208.441 1784.77,215.711 1786.76,227.264 1788.76,221.145 1790.75,206.972 1792.74,225.549 1794.74,236.049 1796.73,208.988 1798.72,212.959 1800.71,214.808 1802.71,215.23 1804.7,225.129 1806.69,209.491 1808.69,210.583 1810.68,220.96 1812.67,232.094 1814.67,220.506 1816.66,215.713 1818.65,211.466 1820.65,210.121 1822.64,215.1 1824.63,217.003 1826.63,218.111 1828.62,206.781 1830.61,208.288 1832.6,226.942 1834.6,214.944 1836.59,207.865 1838.58,218.279 1840.58,213.381 1842.57,211.113 1844.56,211.196 1846.56,222.669 1848.55,221.216 1850.54,219.591 1852.54,227.878 1854.53,222.775 1856.52,217.543 1858.52,219.26 1860.51,221.136 1862.5,204.791 1864.5,211.551 1866.49,214.894 1868.48,221.124 1870.47,227.912 1872.47,219.683 1874.46,218.784 1876.45,234.29 1878.45,211.764 1880.44,204.104 1882.43,216.737 1884.43,211.833 1886.42,211.737 1888.41,215.612 1890.41,214.268 1892.4,209.808 1894.39,209.743 1896.39,217.606 1898.38,217.262 1900.37,222.963 1902.36,209.463 1904.36,215.572 1906.35,208.761 1908.34,226.708 1910.34,223.135 1912.33,218.605 1914.32,210.045 1916.32,206.074 1918.31,218.085 1920.3,220.59 1922.3,226.884 1924.29,202.455 1926.28,200.889 1928.28,214.704 1930.27,214.795 1932.26,215.947 1934.26,212.793 1936.25,218.186 1938.24,228.59 1940.23,242.476 1942.23,209.424 1944.22,219.962 1946.21,208.85 1948.21,223.694 1950.2,215.318 1952.19,220.306 1954.19,210.713 1956.18,215.853 1958.17,223.985 1960.17,204.02 1962.16,218.267 1964.15,208.124 1966.15,208.361 1968.14,215.598 1970.13,226.788 1972.12,199.994 1974.12,207.304 1976.11,206.747 1978.1,222.2 1980.1,212.387 1982.09,212.493 1984.08,204.959 1986.08,218.58 1988.07,212.861 1990.06,217.948 1992.06,212.624 1994.05,203.842 1996.04,207.026 1998.04,210.85 2000.03,208.489 2002.02,212.65 2004.02,218.782 2006.01,209.308 2008,212.619 2009.99,222.048 2011.99,221.009 2013.98,219.876 2015.97,209.75 2017.97,208.206 2019.96,210.067 2021.95,223.186 2023.95,204.182 2025.94,214.778 2027.93,210.37 2029.93,213.507 2031.92,224.132 2033.91,218.517 2035.91,217.87 2037.9,219.487 2039.89,216.087 2041.89,209.358 2043.88,225.902 2045.87,202.522 2047.86,211.729 2049.86,221.313 2051.85,215.317 2053.84,215.213 2055.84,202.437 2057.83,214.282 2059.82,216.105 2061.82,219.106 2063.81,206.767 2065.8,215.993 2067.8,214.146 2069.79,220.13 2071.78,200.031 2073.78,228.974 2075.77,217.553 2077.76,219.762 2079.75,207.355 2081.75,217.264 2083.74,220.499 2085.73,230.232 2087.73,216.705 2089.72,211.782 2091.71,213.45 2093.71,225.249 2095.7,205.092 2097.69,221.353 2099.69,211.65 2101.68,205.945 2103.67,211.229 2105.67,207.463 2107.66,214.413 2109.65,211.489 2111.65,221.678 2113.64,203.349 2115.63,229.097 2117.62,208.301 2119.62,211.594 2121.61,212.221 2123.6,209.079 2125.6,213.758 2127.59,220.089 2129.58,224.798 2131.58,218.276 2133.57,224.165 2135.56,222.076 2137.56,212.023 2139.55,219.171 2141.54,225.034 2143.54,222.137 2145.53,210.942 2147.52,221.733 2149.51,214.946 2151.51,227.267 2153.5,207.994 2155.49,224.899 2157.49,240.015 2159.48,216.757 2161.47,212.645 2163.47,209.121 2165.46,216.277 2167.45,216.672 2169.45,212.454 2171.44,214.123 2173.43,211.59 2175.43,214.708 2177.42,212.488 2179.41,221.942 2181.41,222.192 2183.4,214.949 2185.39,225.415 2187.38,220.965 2189.38,211.792 2191.37,214.927 2193.36,217.231 2195.36,214.901 2197.35,210.335 2199.34,225.673 2201.34,211.237 2203.33,209.494 2205.32,215.783 2207.32,213.05 2209.31,206.779 2211.3,230.516 2213.3,230.451 2215.29,203.139 2217.28,213.478 2219.27,209.861 2221.27,217.879 2223.26,224.942 2225.25,217.211 2227.25,225.586 2229.24,224.334 2231.23,218.059 2233.23,219.554 2235.22,225.286 2237.21,229.268 2239.21,223.566 2241.2,215.877 2243.19,215.611 2245.19,231.345 2247.18,217.613 2249.17,207.268 2251.17,213.629 2253.16,216.389 2255.15,219.849 2257.14,206.072 2259.14,229.961 2261.13,222.947 2263.12,211.13 2265.12,217.079 2267.11,228.573 2269.1,209.282 2271.1,214.035 2273.09,211.877 2275.08,233.241 2277.08,223.282 2279.07,214.512 2281.06,222.667 2283.06,214.32 2285.05,220.768 2287.04,220.407 2289.04,203.283 2291.03,214.387 2293.02,217.296 "/>
<path clip-path="url(#clip000)" d="M1736.78 1377.32 L2282.4 1377.32 L2282.4 1221.8 L1736.78 1221.8  Z" fill="#ffffff" fill-rule="evenodd" fill-opacity="1"/>
<polyline clip-path="url(#clip000)" style="stroke:#000000; stroke-linecap:round; stroke-linejoin:round; stroke-width:4; stroke-opacity:1; fill:none" points="1736.78,1377.32 2282.4,1377.32 2282.4,1221.8 1736.78,1221.8 1736.78,1377.32 "/>
<polyline clip-path="url(#clip000)" style="stroke:#009af9; stroke-linecap:round; stroke-linejoin:round; stroke-width:4; stroke-opacity:1; fill:none" points="1760.23,1273.64 1900.94,1273.64 "/>
<path clip-path="url(#clip000)" d="M1929.07 1274.41 L1929.07 1287.07 L1936.57 1287.07 Q1940.34 1287.07 1942.15 1285.52 Q1943.98 1283.95 1943.98 1280.73 Q1943.98 1277.49 1942.15 1275.96 Q1940.34 1274.41 1936.57 1274.41 L1929.07 1274.41 M1929.07 1260.2 L1929.07 1270.61 L1935.99 1270.61 Q1939.42 1270.61 1941.08 1269.34 Q1942.77 1268.05 1942.77 1265.41 Q1942.77 1262.79 1941.08 1261.49 Q1939.42 1260.2 1935.99 1260.2 L1929.07 1260.2 M1924.39 1256.36 L1936.34 1256.36 Q1941.68 1256.36 1944.58 1258.58 Q1947.47 1260.8 1947.47 1264.9 Q1947.47 1268.07 1945.99 1269.94 Q1944.51 1271.82 1941.64 1272.28 Q1945.09 1273.02 1946.98 1275.38 Q1948.91 1277.72 1948.91 1281.24 Q1948.91 1285.87 1945.76 1288.39 Q1942.61 1290.92 1936.8 1290.92 L1924.39 1290.92 L1924.39 1256.36 Z" fill="#000000" fill-rule="nonzero" fill-opacity="1" /><path clip-path="url(#clip000)" d="M1961.59 1274.41 L1961.59 1287.07 L1969.09 1287.07 Q1972.86 1287.07 1974.67 1285.52 Q1976.5 1283.95 1976.5 1280.73 Q1976.5 1277.49 1974.67 1275.96 Q1972.86 1274.41 1969.09 1274.41 L1961.59 1274.41 M1961.59 1260.2 L1961.59 1270.61 L1968.51 1270.61 Q1971.94 1270.61 1973.6 1269.34 Q1975.29 1268.05 1975.29 1265.41 Q1975.29 1262.79 1973.6 1261.49 Q1971.94 1260.2 1968.51 1260.2 L1961.59 1260.2 M1956.92 1256.36 L1968.86 1256.36 Q1974.21 1256.36 1977.1 1258.58 Q1979.99 1260.8 1979.99 1264.9 Q1979.99 1268.07 1978.51 1269.94 Q1977.03 1271.82 1974.16 1272.28 Q1977.61 1273.02 1979.51 1275.38 Q1981.43 1277.72 1981.43 1281.24 Q1981.43 1285.87 1978.28 1288.39 Q1975.13 1290.92 1969.32 1290.92 L1956.92 1290.92 L1956.92 1256.36 Z" fill="#000000" fill-rule="nonzero" fill-opacity="1" /><path clip-path="url(#clip000)" d="M1996.89 1290.92 L1983.7 1256.36 L1988.58 1256.36 L1999.53 1285.45 L2010.5 1256.36 L2015.36 1256.36 L2002.19 1290.92 L1996.89 1290.92 Z" fill="#000000" fill-rule="nonzero" fill-opacity="1" /><path clip-path="url(#clip000)" d="M2020.41 1256.36 L2025.09 1256.36 L2025.09 1290.92 L2020.41 1290.92 L2020.41 1256.36 Z" fill="#000000" fill-rule="nonzero" fill-opacity="1" /><path clip-path="url(#clip000)" d="M2075.34 1259.02 L2075.34 1263.95 Q2072.98 1261.75 2070.29 1260.66 Q2067.63 1259.57 2064.62 1259.57 Q2058.7 1259.57 2055.55 1263.21 Q2052.4 1266.82 2052.4 1273.67 Q2052.4 1280.5 2055.55 1284.13 Q2058.7 1287.74 2064.62 1287.74 Q2067.63 1287.74 2070.29 1286.66 Q2072.98 1285.57 2075.34 1283.37 L2075.34 1288.25 Q2072.89 1289.92 2070.13 1290.75 Q2067.4 1291.59 2064.35 1291.59 Q2056.5 1291.59 2051.98 1286.79 Q2047.47 1281.98 2047.47 1273.67 Q2047.47 1265.34 2051.98 1260.55 Q2056.5 1255.73 2064.35 1255.73 Q2067.45 1255.73 2070.18 1256.56 Q2072.93 1257.37 2075.34 1259.02 Z" fill="#000000" fill-rule="nonzero" fill-opacity="1" /><path clip-path="url(#clip000)" d="M2082.56 1256.36 L2102.42 1256.36 L2102.42 1260.29 L2087.24 1260.29 L2087.24 1270.48 L2100.94 1270.48 L2100.94 1274.41 L2087.24 1274.41 L2087.24 1290.92 L2082.56 1290.92 L2082.56 1256.36 Z" fill="#000000" fill-rule="nonzero" fill-opacity="1" /><path clip-path="url(#clip000)" d="M2109.83 1256.36 L2131.68 1256.36 L2131.68 1260.29 L2114.51 1260.29 L2114.51 1270.52 L2130.97 1270.52 L2130.97 1274.46 L2114.51 1274.46 L2114.51 1286.98 L2132.1 1286.98 L2132.1 1290.92 L2109.83 1290.92 L2109.83 1256.36 Z" fill="#000000" fill-rule="nonzero" fill-opacity="1" /><polyline clip-path="url(#clip000)" style="stroke:#e26f46; stroke-linecap:round; stroke-linejoin:round; stroke-width:4; stroke-opacity:1; fill:none" points="1760.23,1325.48 1900.94,1325.48 "/>
<path clip-path="url(#clip000)" d="M1929.07 1326.25 L1929.07 1338.91 L1936.57 1338.91 Q1940.34 1338.91 1942.15 1337.36 Q1943.98 1335.79 1943.98 1332.57 Q1943.98 1329.33 1942.15 1327.8 Q1940.34 1326.25 1936.57 1326.25 L1929.07 1326.25 M1929.07 1312.04 L1929.07 1322.45 L1935.99 1322.45 Q1939.42 1322.45 1941.08 1321.18 Q1942.77 1319.89 1942.77 1317.25 Q1942.77 1314.63 1941.08 1313.33 Q1939.42 1312.04 1935.99 1312.04 L1929.07 1312.04 M1924.39 1308.2 L1936.34 1308.2 Q1941.68 1308.2 1944.58 1310.42 Q1947.47 1312.64 1947.47 1316.74 Q1947.47 1319.91 1945.99 1321.78 Q1944.51 1323.66 1941.64 1324.12 Q1945.09 1324.86 1946.98 1327.22 Q1948.91 1329.56 1948.91 1333.08 Q1948.91 1337.71 1945.76 1340.23 Q1942.61 1342.76 1936.8 1342.76 L1924.39 1342.76 L1924.39 1308.2 Z" fill="#000000" fill-rule="nonzero" fill-opacity="1" /><path clip-path="url(#clip000)" d="M1961.59 1326.25 L1961.59 1338.91 L1969.09 1338.91 Q1972.86 1338.91 1974.67 1337.36 Q1976.5 1335.79 1976.5 1332.57 Q1976.5 1329.33 1974.67 1327.8 Q1972.86 1326.25 1969.09 1326.25 L1961.59 1326.25 M1961.59 1312.04 L1961.59 1322.45 L1968.51 1322.45 Q1971.94 1322.45 1973.6 1321.18 Q1975.29 1319.89 1975.29 1317.25 Q1975.29 1314.63 1973.6 1313.33 Q1971.94 1312.04 1968.51 1312.04 L1961.59 1312.04 M1956.92 1308.2 L1968.86 1308.2 Q1974.21 1308.2 1977.1 1310.42 Q1979.99 1312.64 1979.99 1316.74 Q1979.99 1319.91 1978.51 1321.78 Q1977.03 1323.66 1974.16 1324.12 Q1977.61 1324.86 1979.51 1327.22 Q1981.43 1329.56 1981.43 1333.08 Q1981.43 1337.71 1978.28 1340.23 Q1975.13 1342.76 1969.32 1342.76 L1956.92 1342.76 L1956.92 1308.2 Z" fill="#000000" fill-rule="nonzero" fill-opacity="1" /><path clip-path="url(#clip000)" d="M1996.89 1342.76 L1983.7 1308.2 L1988.58 1308.2 L1999.53 1337.29 L2010.5 1308.2 L2015.36 1308.2 L2002.19 1342.76 L1996.89 1342.76 Z" fill="#000000" fill-rule="nonzero" fill-opacity="1" /><path clip-path="url(#clip000)" d="M2020.41 1308.2 L2025.09 1308.2 L2025.09 1342.76 L2020.41 1342.76 L2020.41 1308.2 Z" fill="#000000" fill-rule="nonzero" fill-opacity="1" /><path clip-path="url(#clip000)" d="M2075.34 1310.86 L2075.34 1315.79 Q2072.98 1313.59 2070.29 1312.5 Q2067.63 1311.41 2064.62 1311.41 Q2058.7 1311.41 2055.55 1315.05 Q2052.4 1318.66 2052.4 1325.51 Q2052.4 1332.34 2055.55 1335.97 Q2058.7 1339.58 2064.62 1339.58 Q2067.63 1339.58 2070.29 1338.5 Q2072.98 1337.41 2075.34 1335.21 L2075.34 1340.09 Q2072.89 1341.76 2070.13 1342.59 Q2067.4 1343.43 2064.35 1343.43 Q2056.5 1343.43 2051.98 1338.63 Q2047.47 1333.82 2047.47 1325.51 Q2047.47 1317.18 2051.98 1312.39 Q2056.5 1307.57 2064.35 1307.57 Q2067.45 1307.57 2070.18 1308.4 Q2072.93 1309.21 2075.34 1310.86 Z" fill="#000000" fill-rule="nonzero" fill-opacity="1" /><path clip-path="url(#clip000)" d="M2082.56 1308.2 L2102.42 1308.2 L2102.42 1312.13 L2087.24 1312.13 L2087.24 1322.32 L2100.94 1322.32 L2100.94 1326.25 L2087.24 1326.25 L2087.24 1342.76 L2082.56 1342.76 L2082.56 1308.2 Z" fill="#000000" fill-rule="nonzero" fill-opacity="1" /><path clip-path="url(#clip000)" d="M2109.83 1308.2 L2131.68 1308.2 L2131.68 1312.13 L2114.51 1312.13 L2114.51 1322.36 L2130.97 1322.36 L2130.97 1326.3 L2114.51 1326.3 L2114.51 1338.82 L2132.1 1338.82 L2132.1 1342.76 L2109.83 1342.76 L2109.83 1308.2 Z" fill="#000000" fill-rule="nonzero" fill-opacity="1" /><path clip-path="url(#clip000)" d="M2168.88 1311.37 Q2163.79 1311.37 2160.78 1315.16 Q2157.79 1318.96 2157.79 1325.51 Q2157.79 1332.04 2160.78 1335.83 Q2163.79 1339.63 2168.88 1339.63 Q2173.97 1339.63 2176.94 1335.83 Q2179.92 1332.04 2179.92 1325.51 Q2179.92 1318.96 2176.94 1315.16 Q2173.97 1311.37 2168.88 1311.37 M2175.43 1342.13 L2181.59 1348.87 L2175.94 1348.87 L2170.83 1343.33 Q2170.06 1343.38 2169.65 1343.4 Q2169.25 1343.43 2168.88 1343.43 Q2161.59 1343.43 2157.21 1338.57 Q2152.86 1333.68 2152.86 1325.51 Q2152.86 1317.32 2157.21 1312.45 Q2161.59 1307.57 2168.88 1307.57 Q2176.15 1307.57 2180.5 1312.45 Q2184.85 1317.32 2184.85 1325.51 Q2184.85 1331.53 2182.42 1335.81 Q2180.02 1340.09 2175.43 1342.13 Z" fill="#000000" fill-rule="nonzero" fill-opacity="1" /><path clip-path="url(#clip000)" d="M2192.17 1308.2 L2199.14 1308.2 L2207.96 1331.71 L2216.82 1308.2 L2223.79 1308.2 L2223.79 1342.76 L2219.23 1342.76 L2219.23 1312.41 L2210.32 1336.11 L2205.62 1336.11 L2196.71 1312.41 L2196.71 1342.76 L2192.17 1342.76 L2192.17 1308.2 Z" fill="#000000" fill-rule="nonzero" fill-opacity="1" /><path clip-path="url(#clip000)" d="M2258.95 1310.86 L2258.95 1315.79 Q2256.59 1313.59 2253.9 1312.5 Q2251.24 1311.41 2248.23 1311.41 Q2242.31 1311.41 2239.16 1315.05 Q2236.01 1318.66 2236.01 1325.51 Q2236.01 1332.34 2239.16 1335.97 Q2242.31 1339.58 2248.23 1339.58 Q2251.24 1339.58 2253.9 1338.5 Q2256.59 1337.41 2258.95 1335.21 L2258.95 1340.09 Q2256.5 1341.76 2253.74 1342.59 Q2251.01 1343.43 2247.96 1343.43 Q2240.11 1343.43 2235.59 1338.63 Q2231.08 1333.82 2231.08 1325.51 Q2231.08 1317.18 2235.59 1312.39 Q2240.11 1307.57 2247.96 1307.57 Q2251.06 1307.57 2253.79 1308.4 Q2256.54 1309.21 2258.95 1310.86 Z" fill="#000000" fill-rule="nonzero" fill-opacity="1" /></svg>
