<?xml version="1.0" encoding="utf-8"?>
<svg xmlns="http://www.w3.org/2000/svg" xmlns:xlink="http://www.w3.org/1999/xlink" width="600" height="400" viewBox="0 0 2400 1600">
<defs>
  <clipPath id="clip910">
    <rect x="0" y="0" width="2400" height="1600"/>
  </clipPath>
</defs>
<path clip-path="url(#clip910)" d="M0 1600 L2400 1600 L2400 0 L0 0  Z" fill="#ffffff" fill-rule="evenodd" fill-opacity="1"/>
<defs>
  <clipPath id="clip911">
    <rect x="332" y="47" width="2021" height="1377"/>
  </clipPath>
</defs>
<path clip-path="url(#clip910)" d="M332.62 1423.18 L2352.76 1423.18 L2352.76 47.2441 L332.62 47.2441  Z" fill="#ffffff" fill-rule="evenodd" fill-opacity="1"/>
<polyline clip-path="url(#clip911)" style="stroke:#000000; stroke-linecap:round; stroke-linejoin:round; stroke-width:2; stroke-opacity:0.1; fill:none" points="349.545,1423.18 349.545,47.2441 "/>
<polyline clip-path="url(#clip911)" style="stroke:#000000; stroke-linecap:round; stroke-linejoin:round; stroke-width:2; stroke-opacity:0.1; fill:none" points="698.712,1423.18 698.712,47.2441 "/>
<polyline clip-path="url(#clip911)" style="stroke:#000000; stroke-linecap:round; stroke-linejoin:round; stroke-width:2; stroke-opacity:0.1; fill:none" points="1047.88,1423.18 1047.88,47.2441 "/>
<polyline clip-path="url(#clip911)" style="stroke:#000000; stroke-linecap:round; stroke-linejoin:round; stroke-width:2; stroke-opacity:0.1; fill:none" points="1397.05,1423.18 1397.05,47.2441 "/>
<polyline clip-path="url(#clip911)" style="stroke:#000000; stroke-linecap:round; stroke-linejoin:round; stroke-width:2; stroke-opacity:0.1; fill:none" points="1746.21,1423.18 1746.21,47.2441 "/>
<polyline clip-path="url(#clip911)" style="stroke:#000000; stroke-linecap:round; stroke-linejoin:round; stroke-width:2; stroke-opacity:0.1; fill:none" points="2095.38,1423.18 2095.38,47.2441 "/>
<polyline clip-path="url(#clip911)" style="stroke:#000000; stroke-linecap:round; stroke-linejoin:round; stroke-width:2; stroke-opacity:0.1; fill:none" points="332.62,1210.86 2352.76,1210.86 "/>
<polyline clip-path="url(#clip911)" style="stroke:#000000; stroke-linecap:round; stroke-linejoin:round; stroke-width:2; stroke-opacity:0.1; fill:none" points="332.62,973.27 2352.76,973.27 "/>
<polyline clip-path="url(#clip911)" style="stroke:#000000; stroke-linecap:round; stroke-linejoin:round; stroke-width:2; stroke-opacity:0.1; fill:none" points="332.62,735.683 2352.76,735.683 "/>
<polyline clip-path="url(#clip911)" style="stroke:#000000; stroke-linecap:round; stroke-linejoin:round; stroke-width:2; stroke-opacity:0.1; fill:none" points="332.62,498.096 2352.76,498.096 "/>
<polyline clip-path="url(#clip911)" style="stroke:#000000; stroke-linecap:round; stroke-linejoin:round; stroke-width:2; stroke-opacity:0.1; fill:none" points="332.62,260.509 2352.76,260.509 "/>
<polyline clip-path="url(#clip910)" style="stroke:#000000; stroke-linecap:round; stroke-linejoin:round; stroke-width:4; stroke-opacity:1; fill:none" points="332.62,1423.18 2352.76,1423.18 "/>
<polyline clip-path="url(#clip910)" style="stroke:#000000; stroke-linecap:round; stroke-linejoin:round; stroke-width:4; stroke-opacity:1; fill:none" points="349.545,1423.18 349.545,1404.28 "/>
<polyline clip-path="url(#clip910)" style="stroke:#000000; stroke-linecap:round; stroke-linejoin:round; stroke-width:4; stroke-opacity:1; fill:none" points="698.712,1423.18 698.712,1404.28 "/>
<polyline clip-path="url(#clip910)" style="stroke:#000000; stroke-linecap:round; stroke-linejoin:round; stroke-width:4; stroke-opacity:1; fill:none" points="1047.88,1423.18 1047.88,1404.28 "/>
<polyline clip-path="url(#clip910)" style="stroke:#000000; stroke-linecap:round; stroke-linejoin:round; stroke-width:4; stroke-opacity:1; fill:none" points="1397.05,1423.18 1397.05,1404.28 "/>
<polyline clip-path="url(#clip910)" style="stroke:#000000; stroke-linecap:round; stroke-linejoin:round; stroke-width:4; stroke-opacity:1; fill:none" points="1746.21,1423.18 1746.21,1404.28 "/>
<polyline clip-path="url(#clip910)" style="stroke:#000000; stroke-linecap:round; stroke-linejoin:round; stroke-width:4; stroke-opacity:1; fill:none" points="2095.38,1423.18 2095.38,1404.28 "/>
<path clip-path="url(#clip910)" d="M349.545 1454.1 Q345.934 1454.1 344.105 1457.66 Q342.3 1461.2 342.3 1468.33 Q342.3 1475.44 344.105 1479.01 Q345.934 1482.55 349.545 1482.55 Q353.179 1482.55 354.985 1479.01 Q356.814 1475.44 356.814 1468.33 Q356.814 1461.2 354.985 1457.66 Q353.179 1454.1 349.545 1454.1 M349.545 1450.39 Q355.355 1450.39 358.411 1455 Q361.49 1459.58 361.49 1468.33 Q361.49 1477.06 358.411 1481.67 Q355.355 1486.25 349.545 1486.25 Q343.735 1486.25 340.656 1481.67 Q337.601 1477.06 337.601 1468.33 Q337.601 1459.58 340.656 1455 Q343.735 1450.39 349.545 1450.39 Z" fill="#000000" fill-rule="nonzero" fill-opacity="1" /><path clip-path="url(#clip910)" d="M688.99 1451.02 L707.346 1451.02 L707.346 1454.96 L693.272 1454.96 L693.272 1463.43 Q694.291 1463.08 695.309 1462.92 Q696.328 1462.73 697.346 1462.73 Q703.133 1462.73 706.513 1465.9 Q709.892 1469.08 709.892 1474.49 Q709.892 1480.07 706.42 1483.17 Q702.948 1486.25 696.629 1486.25 Q694.453 1486.25 692.184 1485.88 Q689.939 1485.51 687.531 1484.77 L687.531 1480.07 Q689.615 1481.2 691.837 1481.76 Q694.059 1482.32 696.536 1482.32 Q700.541 1482.32 702.879 1480.21 Q705.217 1478.1 705.217 1474.49 Q705.217 1470.88 702.879 1468.77 Q700.541 1466.67 696.536 1466.67 Q694.661 1466.67 692.786 1467.08 Q690.934 1467.5 688.99 1468.38 L688.99 1451.02 Z" fill="#000000" fill-rule="nonzero" fill-opacity="1" /><path clip-path="url(#clip910)" d="M1022.57 1481.64 L1030.21 1481.64 L1030.21 1455.28 L1021.9 1456.95 L1021.9 1452.69 L1030.16 1451.02 L1034.83 1451.02 L1034.83 1481.64 L1042.47 1481.64 L1042.47 1485.58 L1022.57 1485.58 L1022.57 1481.64 Z" fill="#000000" fill-rule="nonzero" fill-opacity="1" /><path clip-path="url(#clip910)" d="M1061.92 1454.1 Q1058.31 1454.1 1056.48 1457.66 Q1054.67 1461.2 1054.67 1468.33 Q1054.67 1475.44 1056.48 1479.01 Q1058.31 1482.55 1061.92 1482.55 Q1065.55 1482.55 1067.36 1479.01 Q1069.19 1475.44 1069.19 1468.33 Q1069.19 1461.2 1067.36 1457.66 Q1065.55 1454.1 1061.92 1454.1 M1061.92 1450.39 Q1067.73 1450.39 1070.78 1455 Q1073.86 1459.58 1073.86 1468.33 Q1073.86 1477.06 1070.78 1481.67 Q1067.73 1486.25 1061.92 1486.25 Q1056.11 1486.25 1053.03 1481.67 Q1049.97 1477.06 1049.97 1468.33 Q1049.97 1459.58 1053.03 1455 Q1056.11 1450.39 1061.92 1450.39 Z" fill="#000000" fill-rule="nonzero" fill-opacity="1" /><path clip-path="url(#clip910)" d="M1372.23 1481.64 L1379.87 1481.64 L1379.87 1455.28 L1371.56 1456.95 L1371.56 1452.69 L1379.82 1451.02 L1384.5 1451.02 L1384.5 1481.64 L1392.14 1481.64 L1392.14 1485.58 L1372.23 1485.58 L1372.23 1481.64 Z" fill="#000000" fill-rule="nonzero" fill-opacity="1" /><path clip-path="url(#clip910)" d="M1401.63 1451.02 L1419.99 1451.02 L1419.99 1454.96 L1405.91 1454.96 L1405.91 1463.43 Q1406.93 1463.08 1407.95 1462.92 Q1408.97 1462.73 1409.99 1462.73 Q1415.77 1462.73 1419.15 1465.9 Q1422.53 1469.08 1422.53 1474.49 Q1422.53 1480.07 1419.06 1483.17 Q1415.59 1486.25 1409.27 1486.25 Q1407.09 1486.25 1404.82 1485.88 Q1402.58 1485.51 1400.17 1484.77 L1400.17 1480.07 Q1402.25 1481.2 1404.48 1481.76 Q1406.7 1482.32 1409.18 1482.32 Q1413.18 1482.32 1415.52 1480.21 Q1417.86 1478.1 1417.86 1474.49 Q1417.86 1470.88 1415.52 1468.77 Q1413.18 1466.67 1409.18 1466.67 Q1407.3 1466.67 1405.43 1467.08 Q1403.57 1467.5 1401.63 1468.38 L1401.63 1451.02 Z" fill="#000000" fill-rule="nonzero" fill-opacity="1" /><path clip-path="url(#clip910)" d="M1724.99 1481.64 L1741.3 1481.64 L1741.3 1485.58 L1719.36 1485.58 L1719.36 1481.64 Q1722.02 1478.89 1726.61 1474.26 Q1731.21 1469.61 1732.39 1468.27 Q1734.64 1465.74 1735.52 1464.01 Q1736.42 1462.25 1736.42 1460.56 Q1736.42 1457.8 1734.48 1456.07 Q1732.56 1454.33 1729.45 1454.33 Q1727.25 1454.33 1724.8 1455.09 Q1722.37 1455.86 1719.59 1457.41 L1719.59 1452.69 Q1722.42 1451.55 1724.87 1450.97 Q1727.32 1450.39 1729.36 1450.39 Q1734.73 1450.39 1737.93 1453.08 Q1741.12 1455.77 1741.12 1460.26 Q1741.12 1462.39 1740.31 1464.31 Q1739.52 1466.2 1737.42 1468.8 Q1736.84 1469.47 1733.74 1472.69 Q1730.63 1475.88 1724.99 1481.64 Z" fill="#000000" fill-rule="nonzero" fill-opacity="1" /><path clip-path="url(#clip910)" d="M1761.12 1454.1 Q1757.51 1454.1 1755.68 1457.66 Q1753.87 1461.2 1753.87 1468.33 Q1753.87 1475.44 1755.68 1479.01 Q1757.51 1482.55 1761.12 1482.55 Q1764.75 1482.55 1766.56 1479.01 Q1768.39 1475.44 1768.39 1468.33 Q1768.39 1461.2 1766.56 1457.66 Q1764.75 1454.1 1761.12 1454.1 M1761.12 1450.39 Q1766.93 1450.39 1769.99 1455 Q1773.06 1459.58 1773.06 1468.33 Q1773.06 1477.06 1769.99 1481.67 Q1766.93 1486.25 1761.12 1486.25 Q1755.31 1486.25 1752.23 1481.67 Q1749.18 1477.06 1749.18 1468.33 Q1749.18 1459.58 1752.23 1455 Q1755.31 1450.39 1761.12 1450.39 Z" fill="#000000" fill-rule="nonzero" fill-opacity="1" /><path clip-path="url(#clip910)" d="M2074.65 1481.64 L2090.97 1481.64 L2090.97 1485.58 L2069.03 1485.58 L2069.03 1481.64 Q2071.69 1478.89 2076.27 1474.26 Q2080.88 1469.61 2082.06 1468.27 Q2084.3 1465.74 2085.18 1464.01 Q2086.09 1462.25 2086.09 1460.56 Q2086.09 1457.8 2084.14 1456.07 Q2082.22 1454.33 2079.12 1454.33 Q2076.92 1454.33 2074.46 1455.09 Q2072.03 1455.86 2069.26 1457.41 L2069.26 1452.69 Q2072.08 1451.55 2074.53 1450.97 Q2076.99 1450.39 2079.03 1450.39 Q2084.4 1450.39 2087.59 1453.08 Q2090.78 1455.77 2090.78 1460.26 Q2090.78 1462.39 2089.97 1464.31 Q2089.19 1466.2 2087.08 1468.8 Q2086.5 1469.47 2083.4 1472.69 Q2080.3 1475.88 2074.65 1481.64 Z" fill="#000000" fill-rule="nonzero" fill-opacity="1" /><path clip-path="url(#clip910)" d="M2100.83 1451.02 L2119.19 1451.02 L2119.19 1454.96 L2105.11 1454.96 L2105.11 1463.43 Q2106.13 1463.08 2107.15 1462.92 Q2108.17 1462.73 2109.19 1462.73 Q2114.97 1462.73 2118.35 1465.9 Q2121.73 1469.08 2121.73 1474.49 Q2121.73 1480.07 2118.26 1483.17 Q2114.79 1486.25 2108.47 1486.25 Q2106.29 1486.25 2104.02 1485.88 Q2101.78 1485.51 2099.37 1484.77 L2099.37 1480.07 Q2101.46 1481.2 2103.68 1481.76 Q2105.9 1482.32 2108.38 1482.32 Q2112.38 1482.32 2114.72 1480.21 Q2117.06 1478.1 2117.06 1474.49 Q2117.06 1470.88 2114.72 1468.77 Q2112.38 1466.67 2108.38 1466.67 Q2106.5 1466.67 2104.63 1467.08 Q2102.77 1467.5 2100.83 1468.38 L2100.83 1451.02 Z" fill="#000000" fill-rule="nonzero" fill-opacity="1" /><path clip-path="url(#clip910)" d="M1013.77 1520.52 L1020.27 1520.52 L1030.26 1560.69 L1040.22 1520.52 L1047.45 1520.52 L1057.44 1560.69 L1067.4 1520.52 L1073.93 1520.52 L1061.99 1568.04 L1053.91 1568.04 L1043.88 1526.79 L1033.76 1568.04 L1025.68 1568.04 L1013.77 1520.52 Z" fill="#000000" fill-rule="nonzero" fill-opacity="1" /><path clip-path="url(#clip910)" d="M1094.23 1550.12 Q1087.14 1550.12 1084.4 1551.75 Q1081.66 1553.37 1081.66 1557.29 Q1081.66 1560.4 1083.7 1562.25 Q1085.77 1564.07 1089.3 1564.07 Q1094.17 1564.07 1097.1 1560.63 Q1100.06 1557.16 1100.06 1551.43 L1100.06 1550.12 L1094.23 1550.12 M1105.92 1547.71 L1105.92 1568.04 L1100.06 1568.04 L1100.06 1562.63 Q1098.05 1565.88 1095.06 1567.44 Q1092.07 1568.97 1087.74 1568.97 Q1082.27 1568.97 1079.02 1565.91 Q1075.81 1562.82 1075.81 1557.67 Q1075.81 1551.65 1079.82 1548.6 Q1083.86 1545.54 1091.85 1545.54 L1100.06 1545.54 L1100.06 1544.97 Q1100.06 1540.93 1097.39 1538.73 Q1094.74 1536.5 1089.94 1536.5 Q1086.88 1536.5 1083.99 1537.23 Q1081.09 1537.97 1078.42 1539.43 L1078.42 1534.02 Q1081.63 1532.78 1084.65 1532.17 Q1087.68 1531.54 1090.54 1531.54 Q1098.28 1531.54 1102.1 1535.55 Q1105.92 1539.56 1105.92 1547.71 Z" fill="#000000" fill-rule="nonzero" fill-opacity="1" /><path clip-path="url(#clip910)" d="M1117.98 1518.52 L1123.84 1518.52 L1123.84 1568.04 L1117.98 1568.04 L1117.98 1518.52 Z" fill="#000000" fill-rule="nonzero" fill-opacity="1" /><path clip-path="url(#clip910)" d="M1136.09 1518.52 L1141.95 1518.52 L1141.95 1568.04 L1136.09 1568.04 L1136.09 1518.52 Z" fill="#000000" fill-rule="nonzero" fill-opacity="1" /><path clip-path="url(#clip910)" d="M1179.85 1533.76 L1179.85 1539.24 Q1177.37 1537.87 1174.86 1537.2 Q1172.37 1536.5 1169.83 1536.5 Q1164.13 1536.5 1160.98 1540.13 Q1157.83 1543.73 1157.83 1550.25 Q1157.83 1556.78 1160.98 1560.4 Q1164.13 1564 1169.83 1564 Q1172.37 1564 1174.86 1563.33 Q1177.37 1562.63 1179.85 1561.26 L1179.85 1566.68 Q1177.4 1567.82 1174.76 1568.39 Q1172.15 1568.97 1169.19 1568.97 Q1161.14 1568.97 1156.4 1563.91 Q1151.65 1558.85 1151.65 1550.25 Q1151.65 1541.53 1156.43 1536.53 Q1161.23 1531.54 1169.57 1531.54 Q1172.28 1531.54 1174.86 1532.11 Q1177.43 1532.65 1179.85 1533.76 Z" fill="#000000" fill-rule="nonzero" fill-opacity="1" /><path clip-path="url(#clip910)" d="M1190.04 1518.52 L1195.89 1518.52 L1195.89 1568.04 L1190.04 1568.04 L1190.04 1518.52 Z" fill="#000000" fill-rule="nonzero" fill-opacity="1" /><path clip-path="url(#clip910)" d="M1221.96 1536.5 Q1217.25 1536.5 1214.51 1540.19 Q1211.78 1543.85 1211.78 1550.25 Q1211.78 1556.65 1214.48 1560.34 Q1217.22 1564 1221.96 1564 Q1226.64 1564 1229.38 1560.31 Q1232.12 1556.62 1232.12 1550.25 Q1232.12 1543.92 1229.38 1540.23 Q1226.64 1536.5 1221.96 1536.5 M1221.96 1531.54 Q1229.6 1531.54 1233.96 1536.5 Q1238.32 1541.47 1238.32 1550.25 Q1238.32 1559 1233.96 1564 Q1229.6 1568.97 1221.96 1568.97 Q1214.29 1568.97 1209.93 1564 Q1205.6 1559 1205.6 1550.25 Q1205.6 1541.47 1209.93 1536.5 Q1214.29 1531.54 1221.96 1531.54 Z" fill="#000000" fill-rule="nonzero" fill-opacity="1" /><path clip-path="url(#clip910)" d="M1273.68 1533.76 L1273.68 1539.24 Q1271.2 1537.87 1268.69 1537.2 Q1266.2 1536.5 1263.66 1536.5 Q1257.96 1536.5 1254.81 1540.13 Q1251.66 1543.73 1251.66 1550.25 Q1251.66 1556.78 1254.81 1560.4 Q1257.96 1564 1263.66 1564 Q1266.2 1564 1268.69 1563.33 Q1271.2 1562.63 1273.68 1561.26 L1273.68 1566.68 Q1271.23 1567.82 1268.59 1568.39 Q1265.98 1568.97 1263.02 1568.97 Q1254.97 1568.97 1250.23 1563.91 Q1245.48 1558.85 1245.48 1550.25 Q1245.48 1541.53 1250.26 1536.53 Q1255.06 1531.54 1263.4 1531.54 Q1266.11 1531.54 1268.69 1532.11 Q1271.26 1532.65 1273.68 1533.76 Z" fill="#000000" fill-rule="nonzero" fill-opacity="1" /><path clip-path="url(#clip910)" d="M1283.65 1518.52 L1289.53 1518.52 L1289.53 1547.77 L1307.01 1532.4 L1314.49 1532.4 L1295.58 1549.07 L1315.28 1568.04 L1307.64 1568.04 L1289.53 1550.63 L1289.53 1568.04 L1283.65 1568.04 L1283.65 1518.52 Z" fill="#000000" fill-rule="nonzero" fill-opacity="1" /><path clip-path="url(#clip910)" d="M1336 1520.52 L1376.2 1520.52 L1376.2 1525.93 L1359.33 1525.93 L1359.33 1568.04 L1352.87 1568.04 L1352.87 1525.93 L1336 1525.93 L1336 1520.52 Z" fill="#000000" fill-rule="nonzero" fill-opacity="1" /><path clip-path="url(#clip910)" d="M1380.15 1532.4 L1386.01 1532.4 L1386.01 1568.04 L1380.15 1568.04 L1380.15 1532.4 M1380.15 1518.52 L1386.01 1518.52 L1386.01 1525.93 L1380.15 1525.93 L1380.15 1518.52 Z" fill="#000000" fill-rule="nonzero" fill-opacity="1" /><path clip-path="url(#clip910)" d="M1426.02 1539.24 Q1428.21 1535.29 1431.27 1533.41 Q1434.32 1531.54 1438.46 1531.54 Q1444.03 1531.54 1447.05 1535.45 Q1450.08 1539.33 1450.08 1546.53 L1450.08 1568.04 L1444.19 1568.04 L1444.19 1546.72 Q1444.19 1541.59 1442.38 1539.11 Q1440.56 1536.63 1436.84 1536.63 Q1432.29 1536.63 1429.64 1539.65 Q1427 1542.68 1427 1547.9 L1427 1568.04 L1421.11 1568.04 L1421.11 1546.72 Q1421.11 1541.56 1419.3 1539.11 Q1417.49 1536.63 1413.7 1536.63 Q1409.21 1536.63 1406.57 1539.68 Q1403.93 1542.71 1403.93 1547.9 L1403.93 1568.04 L1398.04 1568.04 L1398.04 1532.4 L1403.93 1532.4 L1403.93 1537.93 Q1405.93 1534.66 1408.73 1533.1 Q1411.53 1531.54 1415.38 1531.54 Q1419.27 1531.54 1421.97 1533.51 Q1424.71 1535.48 1426.02 1539.24 Z" fill="#000000" fill-rule="nonzero" fill-opacity="1" /><path clip-path="url(#clip910)" d="M1492.25 1548.76 L1492.25 1551.62 L1465.32 1551.62 Q1465.71 1557.67 1468.95 1560.85 Q1472.23 1564 1478.05 1564 Q1481.43 1564 1484.58 1563.17 Q1487.76 1562.35 1490.88 1560.69 L1490.88 1566.23 Q1487.73 1567.57 1484.42 1568.27 Q1481.11 1568.97 1477.7 1568.97 Q1469.17 1568.97 1464.18 1564 Q1459.21 1559.04 1459.21 1550.57 Q1459.21 1541.82 1463.92 1536.69 Q1468.67 1531.54 1476.69 1531.54 Q1483.88 1531.54 1488.05 1536.18 Q1492.25 1540.8 1492.25 1548.76 M1486.39 1547.04 Q1486.33 1542.23 1483.69 1539.37 Q1481.08 1536.5 1476.75 1536.5 Q1471.85 1536.5 1468.89 1539.27 Q1465.96 1542.04 1465.51 1547.07 L1486.39 1547.04 Z" fill="#000000" fill-rule="nonzero" fill-opacity="1" /><path clip-path="url(#clip910)" d="M1536.65 1518.58 Q1532.39 1525.9 1530.32 1533.06 Q1528.25 1540.23 1528.25 1547.58 Q1528.25 1554.93 1530.32 1562.16 Q1532.42 1569.35 1536.65 1576.64 L1531.56 1576.64 Q1526.78 1569.16 1524.4 1561.93 Q1522.04 1554.71 1522.04 1547.58 Q1522.04 1540.48 1524.4 1533.29 Q1526.75 1526.09 1531.56 1518.58 L1536.65 1518.58 Z" fill="#000000" fill-rule="nonzero" fill-opacity="1" /><path clip-path="url(#clip910)" d="M1570.74 1533.45 L1570.74 1538.98 Q1568.26 1537.71 1565.58 1537.07 Q1562.91 1536.44 1560.05 1536.44 Q1555.68 1536.44 1553.49 1537.77 Q1551.32 1539.11 1551.32 1541.79 Q1551.32 1543.82 1552.88 1545 Q1554.44 1546.15 1559.15 1547.2 L1561.16 1547.64 Q1567.4 1548.98 1570.01 1551.43 Q1572.65 1553.85 1572.65 1558.21 Q1572.65 1563.17 1568.7 1566.07 Q1564.79 1568.97 1557.91 1568.97 Q1555.05 1568.97 1551.93 1568.39 Q1548.84 1567.85 1545.4 1566.74 L1545.4 1560.69 Q1548.65 1562.38 1551.8 1563.24 Q1554.95 1564.07 1558.04 1564.07 Q1562.18 1564.07 1564.41 1562.66 Q1566.63 1561.23 1566.63 1558.65 Q1566.63 1556.27 1565.01 1554.99 Q1563.42 1553.72 1557.98 1552.54 L1555.94 1552.07 Q1550.5 1550.92 1548.08 1548.56 Q1545.66 1546.18 1545.66 1542.04 Q1545.66 1537.01 1549.22 1534.27 Q1552.79 1531.54 1559.34 1531.54 Q1562.59 1531.54 1565.46 1532.01 Q1568.32 1532.49 1570.74 1533.45 Z" fill="#000000" fill-rule="nonzero" fill-opacity="1" /><path clip-path="url(#clip910)" d="M1612.47 1548.76 L1612.47 1551.62 L1585.54 1551.62 Q1585.92 1557.67 1589.17 1560.85 Q1592.45 1564 1598.27 1564 Q1601.65 1564 1604.8 1563.17 Q1607.98 1562.35 1611.1 1560.69 L1611.1 1566.23 Q1607.95 1567.57 1604.64 1568.27 Q1601.33 1568.97 1597.92 1568.97 Q1589.39 1568.97 1584.39 1564 Q1579.43 1559.04 1579.43 1550.57 Q1579.43 1541.82 1584.14 1536.69 Q1588.88 1531.54 1596.9 1531.54 Q1604.1 1531.54 1608.27 1536.18 Q1612.47 1540.8 1612.47 1548.76 M1606.61 1547.04 Q1606.55 1542.23 1603.9 1539.37 Q1601.29 1536.5 1596.97 1536.5 Q1592.06 1536.5 1589.1 1539.27 Q1586.18 1542.04 1585.73 1547.07 L1606.61 1547.04 Z" fill="#000000" fill-rule="nonzero" fill-opacity="1" /><path clip-path="url(#clip910)" d="M1647.73 1533.76 L1647.73 1539.24 Q1645.25 1537.87 1642.74 1537.2 Q1640.25 1536.5 1637.71 1536.5 Q1632.01 1536.5 1628.86 1540.13 Q1625.71 1543.73 1625.71 1550.25 Q1625.71 1556.78 1628.86 1560.4 Q1632.01 1564 1637.71 1564 Q1640.25 1564 1642.74 1563.33 Q1645.25 1562.63 1647.73 1561.26 L1647.73 1566.68 Q1645.28 1567.82 1642.64 1568.39 Q1640.03 1568.97 1637.07 1568.97 Q1629.02 1568.97 1624.28 1563.91 Q1619.53 1558.85 1619.53 1550.25 Q1619.53 1541.53 1624.31 1536.53 Q1629.11 1531.54 1637.45 1531.54 Q1640.16 1531.54 1642.74 1532.11 Q1645.31 1532.65 1647.73 1533.76 Z" fill="#000000" fill-rule="nonzero" fill-opacity="1" /><path clip-path="url(#clip910)" d="M1656.99 1518.58 L1662.09 1518.58 Q1666.86 1526.09 1669.22 1533.29 Q1671.6 1540.48 1671.6 1547.58 Q1671.6 1554.71 1669.22 1561.93 Q1666.86 1569.16 1662.09 1576.64 L1656.99 1576.64 Q1661.23 1569.35 1663.3 1562.16 Q1665.4 1554.93 1665.4 1547.58 Q1665.4 1540.23 1663.3 1533.06 Q1661.23 1525.9 1656.99 1518.58 Z" fill="#000000" fill-rule="nonzero" fill-opacity="1" /><polyline clip-path="url(#clip910)" style="stroke:#000000; stroke-linecap:round; stroke-linejoin:round; stroke-width:4; stroke-opacity:1; fill:none" points="332.62,1423.18 332.62,47.2441 "/>
<polyline clip-path="url(#clip910)" style="stroke:#000000; stroke-linecap:round; stroke-linejoin:round; stroke-width:4; stroke-opacity:1; fill:none" points="332.62,1210.86 351.518,1210.86 "/>
<polyline clip-path="url(#clip910)" style="stroke:#000000; stroke-linecap:round; stroke-linejoin:round; stroke-width:4; stroke-opacity:1; fill:none" points="332.62,973.27 351.518,973.27 "/>
<polyline clip-path="url(#clip910)" style="stroke:#000000; stroke-linecap:round; stroke-linejoin:round; stroke-width:4; stroke-opacity:1; fill:none" points="332.62,735.683 351.518,735.683 "/>
<polyline clip-path="url(#clip910)" style="stroke:#000000; stroke-linecap:round; stroke-linejoin:round; stroke-width:4; stroke-opacity:1; fill:none" points="332.62,498.096 351.518,498.096 "/>
<polyline clip-path="url(#clip910)" style="stroke:#000000; stroke-linecap:round; stroke-linejoin:round; stroke-width:4; stroke-opacity:1; fill:none" points="332.62,260.509 351.518,260.509 "/>
<path clip-path="url(#clip910)" d="M114.26 1211.31 L143.936 1211.31 L143.936 1215.24 L114.26 1215.24 L114.26 1211.31 Z" fill="#000000" fill-rule="nonzero" fill-opacity="1" /><path clip-path="url(#clip910)" d="M154.839 1224.2 L162.477 1224.2 L162.477 1197.84 L154.167 1199.5 L154.167 1195.24 L162.431 1193.58 L167.107 1193.58 L167.107 1224.2 L174.746 1224.2 L174.746 1228.14 L154.839 1228.14 L154.839 1224.2 Z" fill="#000000" fill-rule="nonzero" fill-opacity="1" /><path clip-path="url(#clip910)" d="M183.01 1193.58 L205.232 1193.58 L205.232 1195.57 L192.686 1228.14 L187.801 1228.14 L199.607 1197.51 L183.01 1197.51 L183.01 1193.58 Z" fill="#000000" fill-rule="nonzero" fill-opacity="1" /><path clip-path="url(#clip910)" d="M214.399 1193.58 L232.755 1193.58 L232.755 1197.51 L218.681 1197.51 L218.681 1205.98 Q219.699 1205.64 220.718 1205.48 Q221.736 1205.29 222.755 1205.29 Q228.542 1205.29 231.922 1208.46 Q235.301 1211.63 235.301 1217.05 Q235.301 1222.63 231.829 1225.73 Q228.357 1228.81 222.037 1228.81 Q219.861 1228.81 217.593 1228.44 Q215.348 1228.07 212.94 1227.33 L212.94 1222.63 Q215.024 1223.76 217.246 1224.32 Q219.468 1224.87 221.945 1224.87 Q225.949 1224.87 228.287 1222.77 Q230.625 1220.66 230.625 1217.05 Q230.625 1213.44 228.287 1211.33 Q225.949 1209.23 221.945 1209.23 Q220.07 1209.23 218.195 1209.64 Q216.343 1210.06 214.399 1210.94 L214.399 1193.58 Z" fill="#000000" fill-rule="nonzero" fill-opacity="1" /><path clip-path="url(#clip910)" d="M254.514 1196.66 Q250.903 1196.66 249.074 1200.22 Q247.269 1203.76 247.269 1210.89 Q247.269 1218 249.074 1221.56 Q250.903 1225.1 254.514 1225.1 Q258.148 1225.1 259.954 1221.56 Q261.783 1218 261.783 1210.89 Q261.783 1203.76 259.954 1200.22 Q258.148 1196.66 254.514 1196.66 M254.514 1192.95 Q260.324 1192.95 263.38 1197.56 Q266.458 1202.14 266.458 1210.89 Q266.458 1219.62 263.38 1224.23 Q260.324 1228.81 254.514 1228.81 Q248.704 1228.81 245.625 1224.23 Q242.57 1219.62 242.57 1210.89 Q242.57 1202.14 245.625 1197.56 Q248.704 1192.95 254.514 1192.95 Z" fill="#000000" fill-rule="nonzero" fill-opacity="1" /><path clip-path="url(#clip910)" d="M284.676 1196.66 Q281.065 1196.66 279.236 1200.22 Q277.431 1203.76 277.431 1210.89 Q277.431 1218 279.236 1221.56 Q281.065 1225.1 284.676 1225.1 Q288.31 1225.1 290.116 1221.56 Q291.944 1218 291.944 1210.89 Q291.944 1203.76 290.116 1200.22 Q288.31 1196.66 284.676 1196.66 M284.676 1192.95 Q290.486 1192.95 293.542 1197.56 Q296.62 1202.14 296.62 1210.89 Q296.62 1219.62 293.542 1224.23 Q290.486 1228.81 284.676 1228.81 Q278.866 1228.81 275.787 1224.23 Q272.732 1219.62 272.732 1210.89 Q272.732 1202.14 275.787 1197.56 Q278.866 1192.95 284.676 1192.95 Z" fill="#000000" fill-rule="nonzero" fill-opacity="1" /><path clip-path="url(#clip910)" d="M114.26 973.721 L143.936 973.721 L143.936 977.657 L114.26 977.657 L114.26 973.721 Z" fill="#000000" fill-rule="nonzero" fill-opacity="1" /><path clip-path="url(#clip910)" d="M154.839 986.615 L162.477 986.615 L162.477 960.249 L154.167 961.916 L154.167 957.657 L162.431 955.99 L167.107 955.99 L167.107 986.615 L174.746 986.615 L174.746 990.55 L154.839 990.55 L154.839 986.615 Z" fill="#000000" fill-rule="nonzero" fill-opacity="1" /><path clip-path="url(#clip910)" d="M184.237 955.99 L202.593 955.99 L202.593 959.925 L188.519 959.925 L188.519 968.397 Q189.538 968.05 190.556 967.888 Q191.575 967.703 192.593 967.703 Q198.38 967.703 201.76 970.874 Q205.139 974.046 205.139 979.462 Q205.139 985.041 201.667 988.143 Q198.195 991.221 191.875 991.221 Q189.7 991.221 187.431 990.851 Q185.186 990.481 182.778 989.74 L182.778 985.041 Q184.862 986.175 187.084 986.731 Q189.306 987.286 191.783 987.286 Q195.787 987.286 198.125 985.18 Q200.463 983.073 200.463 979.462 Q200.463 975.851 198.125 973.745 Q195.787 971.638 191.783 971.638 Q189.908 971.638 188.033 972.055 Q186.181 972.472 184.237 973.351 L184.237 955.99 Z" fill="#000000" fill-rule="nonzero" fill-opacity="1" /><path clip-path="url(#clip910)" d="M224.352 959.069 Q220.741 959.069 218.912 962.634 Q217.107 966.175 217.107 973.305 Q217.107 980.411 218.912 983.976 Q220.741 987.518 224.352 987.518 Q227.986 987.518 229.792 983.976 Q231.621 980.411 231.621 973.305 Q231.621 966.175 229.792 962.634 Q227.986 959.069 224.352 959.069 M224.352 955.365 Q230.162 955.365 233.218 959.972 Q236.297 964.555 236.297 973.305 Q236.297 982.032 233.218 986.638 Q230.162 991.221 224.352 991.221 Q218.542 991.221 215.463 986.638 Q212.408 982.032 212.408 973.305 Q212.408 964.555 215.463 959.972 Q218.542 955.365 224.352 955.365 Z" fill="#000000" fill-rule="nonzero" fill-opacity="1" /><path clip-path="url(#clip910)" d="M254.514 959.069 Q250.903 959.069 249.074 962.634 Q247.269 966.175 247.269 973.305 Q247.269 980.411 249.074 983.976 Q250.903 987.518 254.514 987.518 Q258.148 987.518 259.954 983.976 Q261.783 980.411 261.783 973.305 Q261.783 966.175 259.954 962.634 Q258.148 959.069 254.514 959.069 M254.514 955.365 Q260.324 955.365 263.38 959.972 Q266.458 964.555 266.458 973.305 Q266.458 982.032 263.38 986.638 Q260.324 991.221 254.514 991.221 Q248.704 991.221 245.625 986.638 Q242.57 982.032 242.57 973.305 Q242.57 964.555 245.625 959.972 Q248.704 955.365 254.514 955.365 Z" fill="#000000" fill-rule="nonzero" fill-opacity="1" /><path clip-path="url(#clip910)" d="M284.676 959.069 Q281.065 959.069 279.236 962.634 Q277.431 966.175 277.431 973.305 Q277.431 980.411 279.236 983.976 Q281.065 987.518 284.676 987.518 Q288.31 987.518 290.116 983.976 Q291.944 980.411 291.944 973.305 Q291.944 966.175 290.116 962.634 Q288.31 959.069 284.676 959.069 M284.676 955.365 Q290.486 955.365 293.542 959.972 Q296.62 964.555 296.62 973.305 Q296.62 982.032 293.542 986.638 Q290.486 991.221 284.676 991.221 Q278.866 991.221 275.787 986.638 Q272.732 982.032 272.732 973.305 Q272.732 964.555 275.787 959.972 Q278.866 955.365 284.676 955.365 Z" fill="#000000" fill-rule="nonzero" fill-opacity="1" /><path clip-path="url(#clip910)" d="M114.26 736.134 L143.936 736.134 L143.936 740.07 L114.26 740.07 L114.26 736.134 Z" fill="#000000" fill-rule="nonzero" fill-opacity="1" /><path clip-path="url(#clip910)" d="M154.839 749.028 L162.477 749.028 L162.477 722.662 L154.167 724.329 L154.167 720.07 L162.431 718.403 L167.107 718.403 L167.107 749.028 L174.746 749.028 L174.746 752.963 L154.839 752.963 L154.839 749.028 Z" fill="#000000" fill-rule="nonzero" fill-opacity="1" /><path clip-path="url(#clip910)" d="M188.218 749.028 L204.537 749.028 L204.537 752.963 L182.593 752.963 L182.593 749.028 Q185.255 746.273 189.838 741.644 Q194.445 736.991 195.625 735.648 Q197.871 733.125 198.75 731.389 Q199.653 729.63 199.653 727.94 Q199.653 725.185 197.709 723.449 Q195.787 721.713 192.686 721.713 Q190.487 721.713 188.033 722.477 Q185.602 723.241 182.825 724.792 L182.825 720.07 Q185.649 718.935 188.102 718.357 Q190.556 717.778 192.593 717.778 Q197.963 717.778 201.158 720.463 Q204.352 723.148 204.352 727.639 Q204.352 729.769 203.542 731.69 Q202.755 733.588 200.649 736.181 Q200.07 736.852 196.968 740.07 Q193.866 743.264 188.218 749.028 Z" fill="#000000" fill-rule="nonzero" fill-opacity="1" /><path clip-path="url(#clip910)" d="M214.399 718.403 L232.755 718.403 L232.755 722.338 L218.681 722.338 L218.681 730.81 Q219.699 730.463 220.718 730.301 Q221.736 730.116 222.755 730.116 Q228.542 730.116 231.922 733.287 Q235.301 736.458 235.301 741.875 Q235.301 747.454 231.829 750.556 Q228.357 753.634 222.037 753.634 Q219.861 753.634 217.593 753.264 Q215.348 752.894 212.94 752.153 L212.94 747.454 Q215.024 748.588 217.246 749.144 Q219.468 749.699 221.945 749.699 Q225.949 749.699 228.287 747.593 Q230.625 745.486 230.625 741.875 Q230.625 738.264 228.287 736.158 Q225.949 734.051 221.945 734.051 Q220.07 734.051 218.195 734.468 Q216.343 734.884 214.399 735.764 L214.399 718.403 Z" fill="#000000" fill-rule="nonzero" fill-opacity="1" /><path clip-path="url(#clip910)" d="M254.514 721.482 Q250.903 721.482 249.074 725.047 Q247.269 728.588 247.269 735.718 Q247.269 742.824 249.074 746.389 Q250.903 749.931 254.514 749.931 Q258.148 749.931 259.954 746.389 Q261.783 742.824 261.783 735.718 Q261.783 728.588 259.954 725.047 Q258.148 721.482 254.514 721.482 M254.514 717.778 Q260.324 717.778 263.38 722.384 Q266.458 726.968 266.458 735.718 Q266.458 744.445 263.38 749.051 Q260.324 753.634 254.514 753.634 Q248.704 753.634 245.625 749.051 Q242.57 744.445 242.57 735.718 Q242.57 726.968 245.625 722.384 Q248.704 717.778 254.514 717.778 Z" fill="#000000" fill-rule="nonzero" fill-opacity="1" /><path clip-path="url(#clip910)" d="M284.676 721.482 Q281.065 721.482 279.236 725.047 Q277.431 728.588 277.431 735.718 Q277.431 742.824 279.236 746.389 Q281.065 749.931 284.676 749.931 Q288.31 749.931 290.116 746.389 Q291.944 742.824 291.944 735.718 Q291.944 728.588 290.116 725.047 Q288.31 721.482 284.676 721.482 M284.676 717.778 Q290.486 717.778 293.542 722.384 Q296.62 726.968 296.62 735.718 Q296.62 744.445 293.542 749.051 Q290.486 753.634 284.676 753.634 Q278.866 753.634 275.787 749.051 Q272.732 744.445 272.732 735.718 Q272.732 726.968 275.787 722.384 Q278.866 717.778 284.676 717.778 Z" fill="#000000" fill-rule="nonzero" fill-opacity="1" /><path clip-path="url(#clip910)" d="M114.26 498.547 L143.936 498.547 L143.936 502.483 L114.26 502.483 L114.26 498.547 Z" fill="#000000" fill-rule="nonzero" fill-opacity="1" /><path clip-path="url(#clip910)" d="M154.839 511.441 L162.477 511.441 L162.477 485.075 L154.167 486.742 L154.167 482.483 L162.431 480.816 L167.107 480.816 L167.107 511.441 L174.746 511.441 L174.746 515.376 L154.839 515.376 L154.839 511.441 Z" fill="#000000" fill-rule="nonzero" fill-opacity="1" /><path clip-path="url(#clip910)" d="M194.19 483.895 Q190.579 483.895 188.75 487.459 Q186.945 491.001 186.945 498.131 Q186.945 505.237 188.75 508.802 Q190.579 512.344 194.19 512.344 Q197.825 512.344 199.63 508.802 Q201.459 505.237 201.459 498.131 Q201.459 491.001 199.63 487.459 Q197.825 483.895 194.19 483.895 M194.19 480.191 Q200 480.191 203.056 484.797 Q206.135 489.381 206.135 498.131 Q206.135 506.857 203.056 511.464 Q200 516.047 194.19 516.047 Q188.38 516.047 185.301 511.464 Q182.246 506.857 182.246 498.131 Q182.246 489.381 185.301 484.797 Q188.38 480.191 194.19 480.191 Z" fill="#000000" fill-rule="nonzero" fill-opacity="1" /><path clip-path="url(#clip910)" d="M224.352 483.895 Q220.741 483.895 218.912 487.459 Q217.107 491.001 217.107 498.131 Q217.107 505.237 218.912 508.802 Q220.741 512.344 224.352 512.344 Q227.986 512.344 229.792 508.802 Q231.621 505.237 231.621 498.131 Q231.621 491.001 229.792 487.459 Q227.986 483.895 224.352 483.895 M224.352 480.191 Q230.162 480.191 233.218 484.797 Q236.297 489.381 236.297 498.131 Q236.297 506.857 233.218 511.464 Q230.162 516.047 224.352 516.047 Q218.542 516.047 215.463 511.464 Q212.408 506.857 212.408 498.131 Q212.408 489.381 215.463 484.797 Q218.542 480.191 224.352 480.191 Z" fill="#000000" fill-rule="nonzero" fill-opacity="1" /><path clip-path="url(#clip910)" d="M254.514 483.895 Q250.903 483.895 249.074 487.459 Q247.269 491.001 247.269 498.131 Q247.269 505.237 249.074 508.802 Q250.903 512.344 254.514 512.344 Q258.148 512.344 259.954 508.802 Q261.783 505.237 261.783 498.131 Q261.783 491.001 259.954 487.459 Q258.148 483.895 254.514 483.895 M254.514 480.191 Q260.324 480.191 263.38 484.797 Q266.458 489.381 266.458 498.131 Q266.458 506.857 263.38 511.464 Q260.324 516.047 254.514 516.047 Q248.704 516.047 245.625 511.464 Q242.57 506.857 242.57 498.131 Q242.57 489.381 245.625 484.797 Q248.704 480.191 254.514 480.191 Z" fill="#000000" fill-rule="nonzero" fill-opacity="1" /><path clip-path="url(#clip910)" d="M284.676 483.895 Q281.065 483.895 279.236 487.459 Q277.431 491.001 277.431 498.131 Q277.431 505.237 279.236 508.802 Q281.065 512.344 284.676 512.344 Q288.31 512.344 290.116 508.802 Q291.944 505.237 291.944 498.131 Q291.944 491.001 290.116 487.459 Q288.31 483.895 284.676 483.895 M284.676 480.191 Q290.486 480.191 293.542 484.797 Q296.62 489.381 296.62 498.131 Q296.62 506.857 293.542 511.464 Q290.486 516.047 284.676 516.047 Q278.866 516.047 275.787 511.464 Q272.732 506.857 272.732 498.131 Q272.732 489.381 275.787 484.797 Q278.866 480.191 284.676 480.191 Z" fill="#000000" fill-rule="nonzero" fill-opacity="1" /><path clip-path="url(#clip910)" d="M144.422 260.96 L174.098 260.96 L174.098 264.895 L144.422 264.895 L144.422 260.96 Z" fill="#000000" fill-rule="nonzero" fill-opacity="1" /><path clip-path="url(#clip910)" d="M183.01 243.229 L205.232 243.229 L205.232 245.22 L192.686 277.789 L187.801 277.789 L199.607 247.164 L183.01 247.164 L183.01 243.229 Z" fill="#000000" fill-rule="nonzero" fill-opacity="1" /><path clip-path="url(#clip910)" d="M214.399 243.229 L232.755 243.229 L232.755 247.164 L218.681 247.164 L218.681 255.636 Q219.699 255.289 220.718 255.127 Q221.736 254.942 222.755 254.942 Q228.542 254.942 231.922 258.113 Q235.301 261.284 235.301 266.701 Q235.301 272.28 231.829 275.381 Q228.357 278.46 222.037 278.46 Q219.861 278.46 217.593 278.09 Q215.348 277.719 212.94 276.979 L212.94 272.28 Q215.024 273.414 217.246 273.969 Q219.468 274.525 221.945 274.525 Q225.949 274.525 228.287 272.419 Q230.625 270.312 230.625 266.701 Q230.625 263.09 228.287 260.983 Q225.949 258.877 221.945 258.877 Q220.07 258.877 218.195 259.294 Q216.343 259.71 214.399 260.59 L214.399 243.229 Z" fill="#000000" fill-rule="nonzero" fill-opacity="1" /><path clip-path="url(#clip910)" d="M254.514 246.308 Q250.903 246.308 249.074 249.872 Q247.269 253.414 247.269 260.544 Q247.269 267.65 249.074 271.215 Q250.903 274.756 254.514 274.756 Q258.148 274.756 259.954 271.215 Q261.783 267.65 261.783 260.544 Q261.783 253.414 259.954 249.872 Q258.148 246.308 254.514 246.308 M254.514 242.604 Q260.324 242.604 263.38 247.21 Q266.458 251.794 266.458 260.544 Q266.458 269.27 263.38 273.877 Q260.324 278.46 254.514 278.46 Q248.704 278.46 245.625 273.877 Q242.57 269.27 242.57 260.544 Q242.57 251.794 245.625 247.21 Q248.704 242.604 254.514 242.604 Z" fill="#000000" fill-rule="nonzero" fill-opacity="1" /><path clip-path="url(#clip910)" d="M284.676 246.308 Q281.065 246.308 279.236 249.872 Q277.431 253.414 277.431 260.544 Q277.431 267.65 279.236 271.215 Q281.065 274.756 284.676 274.756 Q288.31 274.756 290.116 271.215 Q291.944 267.65 291.944 260.544 Q291.944 253.414 290.116 249.872 Q288.31 246.308 284.676 246.308 M284.676 242.604 Q290.486 242.604 293.542 247.21 Q296.62 251.794 296.62 260.544 Q296.62 269.27 293.542 273.877 Q290.486 278.46 284.676 278.46 Q278.866 278.46 275.787 273.877 Q272.732 269.27 272.732 260.544 Q272.732 251.794 275.787 247.21 Q278.866 242.604 284.676 242.604 Z" fill="#000000" fill-rule="nonzero" fill-opacity="1" /><path clip-path="url(#clip910)" d="M16.4842 816.375 L16.4842 786.329 L21.895 786.329 L21.895 809.945 L35.9632 809.945 L35.9632 787.315 L41.3741 787.315 L41.3741 809.945 L58.5933 809.945 L58.5933 785.756 L64.0042 785.756 L64.0042 816.375 L16.4842 816.375 Z" fill="#000000" fill-rule="nonzero" fill-opacity="1" /><path clip-path="url(#clip910)" d="M16.4842 775.189 L16.4842 768.759 L58.5933 768.759 L58.5933 745.62 L64.0042 745.62 L64.0042 775.189 L16.4842 775.189 Z" fill="#000000" fill-rule="nonzero" fill-opacity="1" /><path clip-path="url(#clip910)" d="M41.3104 732.443 L58.7206 732.443 L58.7206 722.13 Q58.7206 716.942 56.5881 714.46 Q54.4238 711.945 49.9996 711.945 Q45.5436 711.945 43.4429 714.46 Q41.3104 716.942 41.3104 722.13 L41.3104 732.443 M21.7677 732.443 L36.0905 732.443 L36.0905 722.926 Q36.0905 718.216 34.34 715.924 Q32.5576 713.6 28.9291 713.6 Q25.3325 713.6 23.5501 715.924 Q21.7677 718.216 21.7677 722.926 L21.7677 732.443 M16.4842 738.872 L16.4842 722.449 Q16.4842 715.096 19.5397 711.118 Q22.5952 707.139 28.2289 707.139 Q32.5894 707.139 35.1675 709.176 Q37.7456 711.213 38.3822 715.16 Q39.4007 710.418 42.6472 707.808 Q45.8619 705.166 50.6998 705.166 Q57.0655 705.166 60.5348 709.495 Q64.0042 713.823 64.0042 721.812 L64.0042 738.872 L16.4842 738.872 Z" fill="#000000" fill-rule="nonzero" fill-opacity="1" /><path clip-path="url(#clip910)" d="M20.8447 676.011 Q20.8447 683.013 26.0645 687.151 Q31.2844 691.257 40.2919 691.257 Q49.2675 691.257 54.4874 687.151 Q59.7073 683.013 59.7073 676.011 Q59.7073 669.009 54.4874 664.935 Q49.2675 660.829 40.2919 660.829 Q31.2844 660.829 26.0645 664.935 Q20.8447 669.009 20.8447 676.011 M15.6248 676.011 Q15.6248 666.017 22.3406 660.033 Q29.0246 654.049 40.2919 654.049 Q51.5274 654.049 58.2432 660.033 Q64.9272 666.017 64.9272 676.011 Q64.9272 686.037 58.2432 692.052 Q51.5592 698.036 40.2919 698.036 Q29.0246 698.036 22.3406 692.052 Q15.6248 686.037 15.6248 676.011 Z" fill="#000000" fill-rule="nonzero" fill-opacity="1" /><polyline clip-path="url(#clip911)" style="stroke:#009af9; stroke-linecap:round; stroke-linejoin:round; stroke-width:4; stroke-opacity:1; fill:none" points="447.535,1286.13 516.51,628.25 577.915,553.172 639.106,341.362 699.765,252.848 762.234,215.416 823.741,192.343 884.948,180.722 945.928,171.269 1006.32,168.8 1065.09,158.99 1124.82,152.412 1184.18,146.11 1243.33,143.884 1302.47,138.588 1362.09,137.31 1421.48,140.332 1481.41,135.334 1540.62,124.878 1599.52,127.615 1658.08,123.959 1717.28,121.137 1775.81,117.563 1833.79,117.089 1892.49,109.177 1950.02,103.521 2008.49,99.2787 2065.51,95.3491 2123.15,92.9662 2180.75,88.5335 2238.27,89.3978 2295.58,86.1857 "/>
<polyline clip-path="url(#clip911)" style="stroke:#e26f46; stroke-linecap:round; stroke-linejoin:round; stroke-width:4; stroke-opacity:1; fill:none" points="389.794,1384.24 415.808,616.469 425.031,399.203 434.497,315.197 443.88,244.585 453.126,219.583 462.507,199.325 471.685,185.353 481.025,178.839 490.344,174.74 499.467,169.213 508.719,171.175 517.801,163.474 527.138,154.112 536.362,148.647 545.416,143.474 554.718,141.844 563.776,138.472 573.01,134.723 582.211,132.241 591.245,124.36 600.452,124.126 609.49,119.418 618.712,122.238 627.958,118.741 637.041,111.14 646.259,111.119 655.236,105.451 664.445,105.347 673.431,103.424 682.727,99.8582 691.897,95.1934 "/>
<path clip-path="url(#clip910)" d="M1784.1 1377.32 L2285.42 1377.32 L2285.42 1221.8 L1784.1 1221.8  Z" fill="#ffffff" fill-rule="evenodd" fill-opacity="1"/>
<polyline clip-path="url(#clip910)" style="stroke:#000000; stroke-linecap:round; stroke-linejoin:round; stroke-width:4; stroke-opacity:1; fill:none" points="1784.1,1377.32 2285.42,1377.32 2285.42,1221.8 1784.1,1221.8 1784.1,1377.32 "/>
<polyline clip-path="url(#clip910)" style="stroke:#009af9; stroke-linecap:round; stroke-linejoin:round; stroke-width:4; stroke-opacity:1; fill:none" points="1806.55,1273.64 1941.22,1273.64 "/>
<path clip-path="url(#clip910)" d="M1963.67 1256.36 L1983.53 1256.36 L1983.53 1260.29 L1968.34 1260.29 L1968.34 1270.48 L1982.05 1270.48 L1982.05 1274.41 L1968.34 1274.41 L1968.34 1290.92 L1963.67 1290.92 L1963.67 1256.36 Z" fill="#000000" fill-rule="nonzero" fill-opacity="1" /><path clip-path="url(#clip910)" d="M1987.72 1280.68 L1987.72 1264.99 L1991.98 1264.99 L1991.98 1280.52 Q1991.98 1284.2 1993.41 1286.05 Q1994.85 1287.88 1997.72 1287.88 Q2001.17 1287.88 2003.16 1285.68 Q2005.17 1283.48 2005.17 1279.69 L2005.17 1264.99 L2009.43 1264.99 L2009.43 1290.92 L2005.17 1290.92 L2005.17 1286.93 Q2003.62 1289.29 2001.56 1290.45 Q1999.52 1291.59 1996.82 1291.59 Q1992.35 1291.59 1990.03 1288.81 Q1987.72 1286.03 1987.72 1280.68 M1998.44 1264.36 L1998.44 1264.36 Z" fill="#000000" fill-rule="nonzero" fill-opacity="1" /><path clip-path="url(#clip910)" d="M2018.2 1254.9 L2022.46 1254.9 L2022.46 1290.92 L2018.2 1290.92 L2018.2 1254.9 Z" fill="#000000" fill-rule="nonzero" fill-opacity="1" /><path clip-path="url(#clip910)" d="M2031.38 1254.9 L2035.64 1254.9 L2035.64 1290.92 L2031.38 1290.92 L2031.38 1254.9 Z" fill="#000000" fill-rule="nonzero" fill-opacity="1" /><path clip-path="url(#clip910)" d="M2064.48 1274.41 L2064.48 1287.07 L2071.98 1287.07 Q2075.75 1287.07 2077.56 1285.52 Q2079.39 1283.95 2079.39 1280.73 Q2079.39 1277.49 2077.56 1275.96 Q2075.75 1274.41 2071.98 1274.41 L2064.48 1274.41 M2064.48 1260.2 L2064.48 1270.61 L2071.4 1270.61 Q2074.82 1270.61 2076.49 1269.34 Q2078.18 1268.05 2078.18 1265.41 Q2078.18 1262.79 2076.49 1261.49 Q2074.82 1260.2 2071.4 1260.2 L2064.48 1260.2 M2059.8 1256.36 L2071.75 1256.36 Q2077.09 1256.36 2079.99 1258.58 Q2082.88 1260.8 2082.88 1264.9 Q2082.88 1268.07 2081.4 1269.94 Q2079.92 1271.82 2077.05 1272.28 Q2080.5 1273.02 2082.39 1275.38 Q2084.32 1277.72 2084.32 1281.24 Q2084.32 1285.87 2081.17 1288.39 Q2078.02 1290.92 2072.21 1290.92 L2059.8 1290.92 L2059.8 1256.36 Z" fill="#000000" fill-rule="nonzero" fill-opacity="1" /><path clip-path="url(#clip910)" d="M2103.92 1277.88 Q2098.76 1277.88 2096.77 1279.06 Q2094.78 1280.24 2094.78 1283.09 Q2094.78 1285.36 2096.26 1286.7 Q2097.76 1288.02 2100.33 1288.02 Q2103.88 1288.02 2106.01 1285.52 Q2108.16 1283 2108.16 1278.83 L2108.16 1277.88 L2103.92 1277.88 M2112.42 1276.12 L2112.42 1290.92 L2108.16 1290.92 L2108.16 1286.98 Q2106.7 1289.34 2104.52 1290.48 Q2102.35 1291.59 2099.2 1291.59 Q2095.22 1291.59 2092.86 1289.36 Q2090.52 1287.12 2090.52 1283.37 Q2090.52 1278.99 2093.44 1276.77 Q2096.38 1274.55 2102.19 1274.55 L2108.16 1274.55 L2108.16 1274.13 Q2108.16 1271.19 2106.21 1269.6 Q2104.29 1267.98 2100.8 1267.98 Q2098.57 1267.98 2096.47 1268.51 Q2094.36 1269.04 2092.42 1270.11 L2092.42 1266.17 Q2094.76 1265.27 2096.95 1264.83 Q2099.15 1264.36 2101.24 1264.36 Q2106.86 1264.36 2109.64 1267.28 Q2112.42 1270.2 2112.42 1276.12 Z" fill="#000000" fill-rule="nonzero" fill-opacity="1" /><path clip-path="url(#clip910)" d="M2125.4 1257.63 L2125.4 1264.99 L2134.18 1264.99 L2134.18 1268.3 L2125.4 1268.3 L2125.4 1282.37 Q2125.4 1285.54 2126.26 1286.45 Q2127.14 1287.35 2129.8 1287.35 L2134.18 1287.35 L2134.18 1290.92 L2129.8 1290.92 Q2124.87 1290.92 2123 1289.09 Q2121.12 1287.23 2121.12 1282.37 L2121.12 1268.3 L2118 1268.3 L2118 1264.99 L2121.12 1264.99 L2121.12 1257.63 L2125.4 1257.63 Z" fill="#000000" fill-rule="nonzero" fill-opacity="1" /><path clip-path="url(#clip910)" d="M2158.44 1265.98 L2158.44 1269.97 Q2156.63 1268.97 2154.8 1268.48 Q2153 1267.98 2151.14 1267.98 Q2147 1267.98 2144.71 1270.61 Q2142.42 1273.23 2142.42 1277.98 Q2142.42 1282.72 2144.71 1285.36 Q2147 1287.98 2151.14 1287.98 Q2153 1287.98 2154.8 1287.49 Q2156.63 1286.98 2158.44 1285.98 L2158.44 1289.92 Q2156.65 1290.75 2154.73 1291.17 Q2152.83 1291.59 2150.68 1291.59 Q2144.82 1291.59 2141.38 1287.91 Q2137.93 1284.23 2137.93 1277.98 Q2137.93 1271.63 2141.4 1268 Q2144.89 1264.36 2150.96 1264.36 Q2152.93 1264.36 2154.8 1264.78 Q2156.68 1265.17 2158.44 1265.98 Z" fill="#000000" fill-rule="nonzero" fill-opacity="1" /><path clip-path="url(#clip910)" d="M2187.39 1275.27 L2187.39 1290.92 L2183.13 1290.92 L2183.13 1275.41 Q2183.13 1271.73 2181.7 1269.9 Q2180.26 1268.07 2177.39 1268.07 Q2173.94 1268.07 2171.95 1270.27 Q2169.96 1272.47 2169.96 1276.26 L2169.96 1290.92 L2165.68 1290.92 L2165.68 1254.9 L2169.96 1254.9 L2169.96 1269.02 Q2171.49 1266.68 2173.55 1265.52 Q2175.63 1264.36 2178.34 1264.36 Q2182.81 1264.36 2185.1 1267.14 Q2187.39 1269.9 2187.39 1275.27 Z" fill="#000000" fill-rule="nonzero" fill-opacity="1" /><polyline clip-path="url(#clip910)" style="stroke:#e26f46; stroke-linecap:round; stroke-linejoin:round; stroke-width:4; stroke-opacity:1; fill:none" points="1806.55,1325.48 1941.22,1325.48 "/>
<path clip-path="url(#clip910)" d="M1985.91 1309.33 L1985.91 1313.89 Q1983.25 1312.62 1980.89 1311.99 Q1978.53 1311.37 1976.33 1311.37 Q1972.51 1311.37 1970.43 1312.85 Q1968.37 1314.33 1968.37 1317.06 Q1968.37 1319.35 1969.73 1320.53 Q1971.12 1321.69 1974.96 1322.41 L1977.79 1322.99 Q1983.02 1323.98 1985.5 1326.51 Q1988 1329.01 1988 1333.22 Q1988 1338.24 1984.62 1340.83 Q1981.26 1343.43 1974.76 1343.43 Q1972.3 1343.43 1969.52 1342.87 Q1966.77 1342.32 1963.81 1341.23 L1963.81 1336.41 Q1966.65 1338.01 1969.39 1338.82 Q1972.12 1339.63 1974.76 1339.63 Q1978.76 1339.63 1980.94 1338.06 Q1983.11 1336.48 1983.11 1333.57 Q1983.11 1331.02 1981.54 1329.58 Q1979.99 1328.15 1976.42 1327.43 L1973.58 1326.88 Q1968.34 1325.83 1966.01 1323.61 Q1963.67 1321.39 1963.67 1317.43 Q1963.67 1312.85 1966.89 1310.21 Q1970.13 1307.57 1975.8 1307.57 Q1978.23 1307.57 1980.75 1308.01 Q1983.27 1308.45 1985.91 1309.33 Z" fill="#000000" fill-rule="nonzero" fill-opacity="1" /><path clip-path="url(#clip910)" d="M1994.66 1332.52 L1994.66 1316.83 L1998.92 1316.83 L1998.92 1332.36 Q1998.92 1336.04 2000.36 1337.89 Q2001.79 1339.72 2004.66 1339.72 Q2008.11 1339.72 2010.1 1337.52 Q2012.12 1335.32 2012.12 1331.53 L2012.12 1316.83 L2016.38 1316.83 L2016.38 1342.76 L2012.12 1342.76 L2012.12 1338.77 Q2010.57 1341.13 2008.51 1342.29 Q2006.47 1343.43 2003.76 1343.43 Q1999.29 1343.43 1996.98 1340.65 Q1994.66 1337.87 1994.66 1332.52 M2005.38 1316.2 L2005.38 1316.2 Z" fill="#000000" fill-rule="nonzero" fill-opacity="1" /><path clip-path="url(#clip910)" d="M2043.76 1329.82 Q2043.76 1325.12 2041.82 1322.45 Q2039.89 1319.77 2036.51 1319.77 Q2033.14 1319.77 2031.19 1322.45 Q2029.27 1325.12 2029.27 1329.82 Q2029.27 1334.51 2031.19 1337.2 Q2033.14 1339.86 2036.51 1339.86 Q2039.89 1339.86 2041.82 1337.2 Q2043.76 1334.51 2043.76 1329.82 M2029.27 1320.76 Q2030.61 1318.45 2032.65 1317.34 Q2034.71 1316.2 2037.56 1316.2 Q2042.28 1316.2 2045.22 1319.95 Q2048.18 1323.7 2048.18 1329.82 Q2048.18 1335.93 2045.22 1339.68 Q2042.28 1343.43 2037.56 1343.43 Q2034.71 1343.43 2032.65 1342.32 Q2030.61 1341.18 2029.27 1338.87 L2029.27 1342.76 L2024.99 1342.76 L2024.99 1306.74 L2029.27 1306.74 L2029.27 1320.76 Z" fill="#000000" fill-rule="nonzero" fill-opacity="1" /><path clip-path="url(#clip910)" d="M2071.77 1317.59 L2071.77 1321.62 Q2069.96 1320.7 2068.02 1320.23 Q2066.08 1319.77 2063.99 1319.77 Q2060.82 1319.77 2059.22 1320.74 Q2057.65 1321.71 2057.65 1323.66 Q2057.65 1325.14 2058.78 1326 Q2059.92 1326.83 2063.34 1327.59 L2064.8 1327.92 Q2069.34 1328.89 2071.24 1330.67 Q2073.16 1332.43 2073.16 1335.6 Q2073.16 1339.21 2070.29 1341.32 Q2067.44 1343.43 2062.44 1343.43 Q2060.36 1343.43 2058.09 1343.01 Q2055.84 1342.62 2053.34 1341.81 L2053.34 1337.41 Q2055.7 1338.63 2058 1339.26 Q2060.29 1339.86 2062.53 1339.86 Q2065.54 1339.86 2067.16 1338.84 Q2068.78 1337.8 2068.78 1335.93 Q2068.78 1334.19 2067.6 1333.26 Q2066.45 1332.34 2062.49 1331.48 L2061.01 1331.14 Q2057.05 1330.3 2055.29 1328.59 Q2053.53 1326.85 2053.53 1323.84 Q2053.53 1320.19 2056.12 1318.2 Q2058.71 1316.2 2063.48 1316.2 Q2065.84 1316.2 2067.93 1316.55 Q2070.01 1316.9 2071.77 1317.59 Z" fill="#000000" fill-rule="nonzero" fill-opacity="1" /><path clip-path="url(#clip910)" d="M2091.72 1329.72 Q2086.56 1329.72 2084.57 1330.9 Q2082.58 1332.08 2082.58 1334.93 Q2082.58 1337.2 2084.06 1338.54 Q2085.57 1339.86 2088.14 1339.86 Q2091.68 1339.86 2093.81 1337.36 Q2095.96 1334.84 2095.96 1330.67 L2095.96 1329.72 L2091.72 1329.72 M2100.22 1327.96 L2100.22 1342.76 L2095.96 1342.76 L2095.96 1338.82 Q2094.5 1341.18 2092.32 1342.32 Q2090.15 1343.43 2087 1343.43 Q2083.02 1343.43 2080.66 1341.2 Q2078.32 1338.96 2078.32 1335.21 Q2078.32 1330.83 2081.24 1328.61 Q2084.18 1326.39 2089.99 1326.39 L2095.96 1326.39 L2095.96 1325.97 Q2095.96 1323.03 2094.01 1321.44 Q2092.09 1319.82 2088.6 1319.82 Q2086.38 1319.82 2084.27 1320.35 Q2082.16 1320.88 2080.22 1321.95 L2080.22 1318.01 Q2082.56 1317.11 2084.76 1316.67 Q2086.95 1316.2 2089.04 1316.2 Q2094.66 1316.2 2097.44 1319.12 Q2100.22 1322.04 2100.22 1327.96 Z" fill="#000000" fill-rule="nonzero" fill-opacity="1" /><path clip-path="url(#clip910)" d="M2129.18 1321.81 Q2130.77 1318.94 2133 1317.57 Q2135.22 1316.2 2138.23 1316.2 Q2142.28 1316.2 2144.48 1319.05 Q2146.68 1321.88 2146.68 1327.11 L2146.68 1342.76 L2142.39 1342.76 L2142.39 1327.25 Q2142.39 1323.52 2141.07 1321.71 Q2139.76 1319.91 2137.05 1319.91 Q2133.74 1319.91 2131.82 1322.11 Q2129.89 1324.31 2129.89 1328.1 L2129.89 1342.76 L2125.61 1342.76 L2125.61 1327.25 Q2125.61 1323.5 2124.29 1321.71 Q2122.97 1319.91 2120.22 1319.91 Q2116.95 1319.91 2115.03 1322.13 Q2113.11 1324.33 2113.11 1328.1 L2113.11 1342.76 L2108.83 1342.76 L2108.83 1316.83 L2113.11 1316.83 L2113.11 1320.86 Q2114.57 1318.47 2116.61 1317.34 Q2118.64 1316.2 2121.45 1316.2 Q2124.27 1316.2 2126.24 1317.64 Q2128.23 1319.07 2129.18 1321.81 Z" fill="#000000" fill-rule="nonzero" fill-opacity="1" /><path clip-path="url(#clip910)" d="M2159.29 1338.87 L2159.29 1352.62 L2155.01 1352.62 L2155.01 1316.83 L2159.29 1316.83 L2159.29 1320.76 Q2160.63 1318.45 2162.67 1317.34 Q2164.73 1316.2 2167.58 1316.2 Q2172.3 1316.2 2175.24 1319.95 Q2178.2 1323.7 2178.2 1329.82 Q2178.2 1335.93 2175.24 1339.68 Q2172.3 1343.43 2167.58 1343.43 Q2164.73 1343.43 2162.67 1342.32 Q2160.63 1341.18 2159.29 1338.87 M2173.78 1329.82 Q2173.78 1325.12 2171.84 1322.45 Q2169.92 1319.77 2166.54 1319.77 Q2163.16 1319.77 2161.21 1322.45 Q2159.29 1325.12 2159.29 1329.82 Q2159.29 1334.51 2161.21 1337.2 Q2163.16 1339.86 2166.54 1339.86 Q2169.92 1339.86 2171.84 1337.2 Q2173.78 1334.51 2173.78 1329.82 Z" fill="#000000" fill-rule="nonzero" fill-opacity="1" /><path clip-path="url(#clip910)" d="M2185.26 1306.74 L2189.52 1306.74 L2189.52 1342.76 L2185.26 1342.76 L2185.26 1306.74 Z" fill="#000000" fill-rule="nonzero" fill-opacity="1" /><path clip-path="url(#clip910)" d="M2198.44 1316.83 L2202.69 1316.83 L2202.69 1342.76 L2198.44 1342.76 L2198.44 1316.83 M2198.44 1306.74 L2202.69 1306.74 L2202.69 1312.13 L2198.44 1312.13 L2198.44 1306.74 Z" fill="#000000" fill-rule="nonzero" fill-opacity="1" /><path clip-path="url(#clip910)" d="M2233.16 1327.11 L2233.16 1342.76 L2228.9 1342.76 L2228.9 1327.25 Q2228.9 1323.57 2227.46 1321.74 Q2226.03 1319.91 2223.16 1319.91 Q2219.71 1319.91 2217.72 1322.11 Q2215.73 1324.31 2215.73 1328.1 L2215.73 1342.76 L2211.44 1342.76 L2211.44 1316.83 L2215.73 1316.83 L2215.73 1320.86 Q2217.25 1318.52 2219.31 1317.36 Q2221.4 1316.2 2224.11 1316.2 Q2228.57 1316.2 2230.87 1318.98 Q2233.16 1321.74 2233.16 1327.11 Z" fill="#000000" fill-rule="nonzero" fill-opacity="1" /><path clip-path="url(#clip910)" d="M2258.71 1329.49 Q2258.71 1324.86 2256.79 1322.32 Q2254.89 1319.77 2251.44 1319.77 Q2248.02 1319.77 2246.1 1322.32 Q2244.2 1324.86 2244.2 1329.49 Q2244.2 1334.1 2246.1 1336.64 Q2248.02 1339.19 2251.44 1339.19 Q2254.89 1339.19 2256.79 1336.64 Q2258.71 1334.1 2258.71 1329.49 M2262.97 1339.54 Q2262.97 1346.16 2260.03 1349.38 Q2257.09 1352.62 2251.03 1352.62 Q2248.78 1352.62 2246.79 1352.27 Q2244.8 1351.95 2242.93 1351.25 L2242.93 1347.11 Q2244.8 1348.13 2246.63 1348.61 Q2248.46 1349.1 2250.36 1349.1 Q2254.55 1349.1 2256.63 1346.9 Q2258.71 1344.72 2258.71 1340.3 L2258.71 1338.2 Q2257.39 1340.49 2255.33 1341.62 Q2253.27 1342.76 2250.4 1342.76 Q2245.63 1342.76 2242.72 1339.12 Q2239.8 1335.49 2239.8 1329.49 Q2239.8 1323.47 2242.72 1319.84 Q2245.63 1316.2 2250.4 1316.2 Q2253.27 1316.2 2255.33 1317.34 Q2257.39 1318.47 2258.71 1320.76 L2258.71 1316.83 L2262.97 1316.83 L2262.97 1339.54 Z" fill="#000000" fill-rule="nonzero" fill-opacity="1" /></svg>
