<?xml version="1.0" encoding="utf-8"?>
<svg xmlns="http://www.w3.org/2000/svg" xmlns:xlink="http://www.w3.org/1999/xlink" width="600" height="400" viewBox="0 0 2400 1600">
<defs>
  <clipPath id="clip270">
    <rect x="0" y="0" width="2400" height="1600"/>
  </clipPath>
</defs>
<path clip-path="url(#clip270)" d="M0 1600 L2400 1600 L2400 0 L0 0  Z" fill="#ffffff" fill-rule="evenodd" fill-opacity="1"/>
<defs>
  <clipPath id="clip271">
    <rect x="332" y="47" width="2021" height="1377"/>
  </clipPath>
</defs>
<path clip-path="url(#clip270)" d="M332.62 1423.18 L2352.76 1423.18 L2352.76 47.2441 L332.62 47.2441  Z" fill="#ffffff" fill-rule="evenodd" fill-opacity="1"/>
<polyline clip-path="url(#clip271)" style="stroke:#000000; stroke-linecap:round; stroke-linejoin:round; stroke-width:2; stroke-opacity:0.1; fill:none" points="348.983,1423.18 348.983,47.2441 "/>
<polyline clip-path="url(#clip271)" style="stroke:#000000; stroke-linecap:round; stroke-linejoin:round; stroke-width:2; stroke-opacity:0.1; fill:none" points="700.237,1423.18 700.237,47.2441 "/>
<polyline clip-path="url(#clip271)" style="stroke:#000000; stroke-linecap:round; stroke-linejoin:round; stroke-width:2; stroke-opacity:0.1; fill:none" points="1051.49,1423.18 1051.49,47.2441 "/>
<polyline clip-path="url(#clip271)" style="stroke:#000000; stroke-linecap:round; stroke-linejoin:round; stroke-width:2; stroke-opacity:0.1; fill:none" points="1402.75,1423.18 1402.75,47.2441 "/>
<polyline clip-path="url(#clip271)" style="stroke:#000000; stroke-linecap:round; stroke-linejoin:round; stroke-width:2; stroke-opacity:0.1; fill:none" points="1754,1423.18 1754,47.2441 "/>
<polyline clip-path="url(#clip271)" style="stroke:#000000; stroke-linecap:round; stroke-linejoin:round; stroke-width:2; stroke-opacity:0.1; fill:none" points="2105.25,1423.18 2105.25,47.2441 "/>
<polyline clip-path="url(#clip271)" style="stroke:#000000; stroke-linecap:round; stroke-linejoin:round; stroke-width:2; stroke-opacity:0.1; fill:none" points="332.62,1268.4 2352.76,1268.4 "/>
<polyline clip-path="url(#clip271)" style="stroke:#000000; stroke-linecap:round; stroke-linejoin:round; stroke-width:2; stroke-opacity:0.1; fill:none" points="332.62,1020.85 2352.76,1020.85 "/>
<polyline clip-path="url(#clip271)" style="stroke:#000000; stroke-linecap:round; stroke-linejoin:round; stroke-width:2; stroke-opacity:0.1; fill:none" points="332.62,773.298 2352.76,773.298 "/>
<polyline clip-path="url(#clip271)" style="stroke:#000000; stroke-linecap:round; stroke-linejoin:round; stroke-width:2; stroke-opacity:0.1; fill:none" points="332.62,525.748 2352.76,525.748 "/>
<polyline clip-path="url(#clip271)" style="stroke:#000000; stroke-linecap:round; stroke-linejoin:round; stroke-width:2; stroke-opacity:0.1; fill:none" points="332.62,278.198 2352.76,278.198 "/>
<polyline clip-path="url(#clip270)" style="stroke:#000000; stroke-linecap:round; stroke-linejoin:round; stroke-width:4; stroke-opacity:1; fill:none" points="332.62,1423.18 2352.76,1423.18 "/>
<polyline clip-path="url(#clip270)" style="stroke:#000000; stroke-linecap:round; stroke-linejoin:round; stroke-width:4; stroke-opacity:1; fill:none" points="348.983,1423.18 348.983,1404.28 "/>
<polyline clip-path="url(#clip270)" style="stroke:#000000; stroke-linecap:round; stroke-linejoin:round; stroke-width:4; stroke-opacity:1; fill:none" points="700.237,1423.18 700.237,1404.28 "/>
<polyline clip-path="url(#clip270)" style="stroke:#000000; stroke-linecap:round; stroke-linejoin:round; stroke-width:4; stroke-opacity:1; fill:none" points="1051.49,1423.18 1051.49,1404.28 "/>
<polyline clip-path="url(#clip270)" style="stroke:#000000; stroke-linecap:round; stroke-linejoin:round; stroke-width:4; stroke-opacity:1; fill:none" points="1402.75,1423.18 1402.75,1404.28 "/>
<polyline clip-path="url(#clip270)" style="stroke:#000000; stroke-linecap:round; stroke-linejoin:round; stroke-width:4; stroke-opacity:1; fill:none" points="1754,1423.18 1754,1404.28 "/>
<polyline clip-path="url(#clip270)" style="stroke:#000000; stroke-linecap:round; stroke-linejoin:round; stroke-width:4; stroke-opacity:1; fill:none" points="2105.25,1423.18 2105.25,1404.28 "/>
<path clip-path="url(#clip270)" d="M348.983 1454.1 Q345.372 1454.1 343.543 1457.66 Q341.737 1461.2 341.737 1468.33 Q341.737 1475.44 343.543 1479.01 Q345.372 1482.55 348.983 1482.55 Q352.617 1482.55 354.423 1479.01 Q356.251 1475.44 356.251 1468.33 Q356.251 1461.2 354.423 1457.66 Q352.617 1454.1 348.983 1454.1 M348.983 1450.39 Q354.793 1450.39 357.849 1455 Q360.927 1459.58 360.927 1468.33 Q360.927 1477.06 357.849 1481.67 Q354.793 1486.25 348.983 1486.25 Q343.173 1486.25 340.094 1481.67 Q337.038 1477.06 337.038 1468.33 Q337.038 1459.58 340.094 1455 Q343.173 1450.39 348.983 1450.39 Z" fill="#000000" fill-rule="nonzero" fill-opacity="1" /><path clip-path="url(#clip270)" d="M690.515 1451.02 L708.871 1451.02 L708.871 1454.96 L694.797 1454.96 L694.797 1463.43 Q695.816 1463.08 696.834 1462.92 Q697.853 1462.73 698.871 1462.73 Q704.658 1462.73 708.038 1465.9 Q711.418 1469.08 711.418 1474.49 Q711.418 1480.07 707.945 1483.17 Q704.473 1486.25 698.154 1486.25 Q695.978 1486.25 693.709 1485.88 Q691.464 1485.51 689.057 1484.77 L689.057 1480.07 Q691.14 1481.2 693.362 1481.76 Q695.584 1482.32 698.061 1482.32 Q702.066 1482.32 704.404 1480.21 Q706.742 1478.1 706.742 1474.49 Q706.742 1470.88 704.404 1468.77 Q702.066 1466.67 698.061 1466.67 Q696.186 1466.67 694.311 1467.08 Q692.459 1467.5 690.515 1468.38 L690.515 1451.02 Z" fill="#000000" fill-rule="nonzero" fill-opacity="1" /><path clip-path="url(#clip270)" d="M1026.18 1481.64 L1033.82 1481.64 L1033.82 1455.28 L1025.51 1456.95 L1025.51 1452.69 L1033.77 1451.02 L1038.45 1451.02 L1038.45 1481.64 L1046.09 1481.64 L1046.09 1485.58 L1026.18 1485.58 L1026.18 1481.64 Z" fill="#000000" fill-rule="nonzero" fill-opacity="1" /><path clip-path="url(#clip270)" d="M1065.53 1454.1 Q1061.92 1454.1 1060.09 1457.66 Q1058.29 1461.2 1058.29 1468.33 Q1058.29 1475.44 1060.09 1479.01 Q1061.92 1482.55 1065.53 1482.55 Q1069.17 1482.55 1070.97 1479.01 Q1072.8 1475.44 1072.8 1468.33 Q1072.8 1461.2 1070.97 1457.66 Q1069.17 1454.1 1065.53 1454.1 M1065.53 1450.39 Q1071.34 1450.39 1074.4 1455 Q1077.48 1459.58 1077.48 1468.33 Q1077.48 1477.06 1074.4 1481.67 Q1071.34 1486.25 1065.53 1486.25 Q1059.72 1486.25 1056.64 1481.67 Q1053.59 1477.06 1053.59 1468.33 Q1053.59 1459.58 1056.64 1455 Q1059.72 1450.39 1065.53 1450.39 Z" fill="#000000" fill-rule="nonzero" fill-opacity="1" /><path clip-path="url(#clip270)" d="M1377.93 1481.64 L1385.57 1481.64 L1385.57 1455.28 L1377.26 1456.95 L1377.26 1452.69 L1385.52 1451.02 L1390.2 1451.02 L1390.2 1481.64 L1397.84 1481.64 L1397.84 1485.58 L1377.93 1485.58 L1377.93 1481.64 Z" fill="#000000" fill-rule="nonzero" fill-opacity="1" /><path clip-path="url(#clip270)" d="M1407.33 1451.02 L1425.69 1451.02 L1425.69 1454.96 L1411.61 1454.96 L1411.61 1463.43 Q1412.63 1463.08 1413.65 1462.92 Q1414.67 1462.73 1415.69 1462.73 Q1421.47 1462.73 1424.85 1465.9 Q1428.23 1469.08 1428.23 1474.49 Q1428.23 1480.07 1424.76 1483.17 Q1421.29 1486.25 1414.97 1486.25 Q1412.79 1486.25 1410.52 1485.88 Q1408.28 1485.51 1405.87 1484.77 L1405.87 1480.07 Q1407.95 1481.2 1410.18 1481.76 Q1412.4 1482.32 1414.88 1482.32 Q1418.88 1482.32 1421.22 1480.21 Q1423.56 1478.1 1423.56 1474.49 Q1423.56 1470.88 1421.22 1468.77 Q1418.88 1466.67 1414.88 1466.67 Q1413 1466.67 1411.13 1467.08 Q1409.27 1467.5 1407.33 1468.38 L1407.33 1451.02 Z" fill="#000000" fill-rule="nonzero" fill-opacity="1" /><path clip-path="url(#clip270)" d="M1732.77 1481.64 L1749.09 1481.64 L1749.09 1485.58 L1727.15 1485.58 L1727.15 1481.64 Q1729.81 1478.89 1734.39 1474.26 Q1739 1469.61 1740.18 1468.27 Q1742.43 1465.74 1743.31 1464.01 Q1744.21 1462.25 1744.21 1460.56 Q1744.21 1457.8 1742.26 1456.07 Q1740.34 1454.33 1737.24 1454.33 Q1735.04 1454.33 1732.59 1455.09 Q1730.16 1455.86 1727.38 1457.41 L1727.38 1452.69 Q1730.2 1451.55 1732.66 1450.97 Q1735.11 1450.39 1737.15 1450.39 Q1742.52 1450.39 1745.71 1453.08 Q1748.91 1455.77 1748.91 1460.26 Q1748.91 1462.39 1748.1 1464.31 Q1747.31 1466.2 1745.2 1468.8 Q1744.63 1469.47 1741.52 1472.69 Q1738.42 1475.88 1732.77 1481.64 Z" fill="#000000" fill-rule="nonzero" fill-opacity="1" /><path clip-path="url(#clip270)" d="M1768.91 1454.1 Q1765.3 1454.1 1763.47 1457.66 Q1761.66 1461.2 1761.66 1468.33 Q1761.66 1475.44 1763.47 1479.01 Q1765.3 1482.55 1768.91 1482.55 Q1772.54 1482.55 1774.35 1479.01 Q1776.18 1475.44 1776.18 1468.33 Q1776.18 1461.2 1774.35 1457.66 Q1772.54 1454.1 1768.91 1454.1 M1768.91 1450.39 Q1774.72 1450.39 1777.77 1455 Q1780.85 1459.58 1780.85 1468.33 Q1780.85 1477.06 1777.77 1481.67 Q1774.72 1486.25 1768.91 1486.25 Q1763.1 1486.25 1760.02 1481.67 Q1756.96 1477.06 1756.96 1468.33 Q1756.96 1459.58 1760.02 1455 Q1763.1 1450.39 1768.91 1450.39 Z" fill="#000000" fill-rule="nonzero" fill-opacity="1" /><path clip-path="url(#clip270)" d="M2084.53 1481.64 L2100.84 1481.64 L2100.84 1485.58 L2078.9 1485.58 L2078.9 1481.64 Q2081.56 1478.89 2086.15 1474.26 Q2090.75 1469.61 2091.93 1468.27 Q2094.18 1465.74 2095.06 1464.01 Q2095.96 1462.25 2095.96 1460.56 Q2095.96 1457.8 2094.02 1456.07 Q2092.1 1454.33 2088.99 1454.33 Q2086.79 1454.33 2084.34 1455.09 Q2081.91 1455.86 2079.13 1457.41 L2079.13 1452.69 Q2081.96 1451.55 2084.41 1450.97 Q2086.86 1450.39 2088.9 1450.39 Q2094.27 1450.39 2097.47 1453.08 Q2100.66 1455.77 2100.66 1460.26 Q2100.66 1462.39 2099.85 1464.31 Q2099.06 1466.2 2096.96 1468.8 Q2096.38 1469.47 2093.28 1472.69 Q2090.17 1475.88 2084.53 1481.64 Z" fill="#000000" fill-rule="nonzero" fill-opacity="1" /><path clip-path="url(#clip270)" d="M2110.71 1451.02 L2129.06 1451.02 L2129.06 1454.96 L2114.99 1454.96 L2114.99 1463.43 Q2116.01 1463.08 2117.03 1462.92 Q2118.04 1462.73 2119.06 1462.73 Q2124.85 1462.73 2128.23 1465.9 Q2131.61 1469.08 2131.61 1474.49 Q2131.61 1480.07 2128.14 1483.17 Q2124.66 1486.25 2118.34 1486.25 Q2116.17 1486.25 2113.9 1485.88 Q2111.66 1485.51 2109.25 1484.77 L2109.25 1480.07 Q2111.33 1481.2 2113.55 1481.76 Q2115.78 1482.32 2118.25 1482.32 Q2122.26 1482.32 2124.59 1480.21 Q2126.93 1478.1 2126.93 1474.49 Q2126.93 1470.88 2124.59 1468.77 Q2122.26 1466.67 2118.25 1466.67 Q2116.38 1466.67 2114.5 1467.08 Q2112.65 1467.5 2110.71 1468.38 L2110.71 1451.02 Z" fill="#000000" fill-rule="nonzero" fill-opacity="1" /><path clip-path="url(#clip270)" d="M1013.77 1520.52 L1020.27 1520.52 L1030.26 1560.69 L1040.22 1520.52 L1047.45 1520.52 L1057.44 1560.69 L1067.4 1520.52 L1073.93 1520.52 L1061.99 1568.04 L1053.91 1568.04 L1043.88 1526.79 L1033.76 1568.04 L1025.68 1568.04 L1013.77 1520.52 Z" fill="#000000" fill-rule="nonzero" fill-opacity="1" /><path clip-path="url(#clip270)" d="M1094.23 1550.12 Q1087.14 1550.12 1084.4 1551.75 Q1081.66 1553.37 1081.66 1557.29 Q1081.66 1560.4 1083.7 1562.25 Q1085.77 1564.07 1089.3 1564.07 Q1094.17 1564.07 1097.1 1560.63 Q1100.06 1557.16 1100.06 1551.43 L1100.06 1550.12 L1094.23 1550.12 M1105.92 1547.71 L1105.92 1568.04 L1100.06 1568.04 L1100.06 1562.63 Q1098.05 1565.88 1095.06 1567.44 Q1092.07 1568.97 1087.74 1568.97 Q1082.27 1568.97 1079.02 1565.91 Q1075.81 1562.82 1075.81 1557.67 Q1075.81 1551.65 1079.82 1548.6 Q1083.86 1545.54 1091.85 1545.54 L1100.06 1545.54 L1100.06 1544.97 Q1100.06 1540.93 1097.39 1538.73 Q1094.74 1536.5 1089.94 1536.5 Q1086.88 1536.5 1083.99 1537.23 Q1081.09 1537.97 1078.42 1539.43 L1078.42 1534.02 Q1081.63 1532.78 1084.65 1532.17 Q1087.68 1531.54 1090.54 1531.54 Q1098.28 1531.54 1102.1 1535.55 Q1105.92 1539.56 1105.92 1547.71 Z" fill="#000000" fill-rule="nonzero" fill-opacity="1" /><path clip-path="url(#clip270)" d="M1117.98 1518.52 L1123.84 1518.52 L1123.84 1568.04 L1117.98 1568.04 L1117.98 1518.52 Z" fill="#000000" fill-rule="nonzero" fill-opacity="1" /><path clip-path="url(#clip270)" d="M1136.09 1518.52 L1141.95 1518.52 L1141.95 1568.04 L1136.09 1568.04 L1136.09 1518.52 Z" fill="#000000" fill-rule="nonzero" fill-opacity="1" /><path clip-path="url(#clip270)" d="M1179.85 1533.76 L1179.85 1539.24 Q1177.37 1537.87 1174.86 1537.2 Q1172.37 1536.5 1169.83 1536.5 Q1164.13 1536.5 1160.98 1540.13 Q1157.83 1543.73 1157.83 1550.25 Q1157.83 1556.78 1160.98 1560.4 Q1164.13 1564 1169.83 1564 Q1172.37 1564 1174.86 1563.33 Q1177.37 1562.63 1179.85 1561.26 L1179.85 1566.68 Q1177.4 1567.82 1174.76 1568.39 Q1172.15 1568.97 1169.19 1568.97 Q1161.14 1568.97 1156.4 1563.91 Q1151.65 1558.85 1151.65 1550.25 Q1151.65 1541.53 1156.43 1536.53 Q1161.23 1531.54 1169.57 1531.54 Q1172.28 1531.54 1174.86 1532.11 Q1177.43 1532.65 1179.85 1533.76 Z" fill="#000000" fill-rule="nonzero" fill-opacity="1" /><path clip-path="url(#clip270)" d="M1190.04 1518.52 L1195.89 1518.52 L1195.89 1568.04 L1190.04 1568.04 L1190.04 1518.52 Z" fill="#000000" fill-rule="nonzero" fill-opacity="1" /><path clip-path="url(#clip270)" d="M1221.96 1536.5 Q1217.25 1536.5 1214.51 1540.19 Q1211.78 1543.85 1211.78 1550.25 Q1211.78 1556.65 1214.48 1560.34 Q1217.22 1564 1221.96 1564 Q1226.64 1564 1229.38 1560.31 Q1232.12 1556.62 1232.12 1550.25 Q1232.12 1543.92 1229.38 1540.23 Q1226.64 1536.5 1221.96 1536.5 M1221.96 1531.54 Q1229.6 1531.54 1233.96 1536.5 Q1238.32 1541.47 1238.32 1550.25 Q1238.32 1559 1233.96 1564 Q1229.6 1568.97 1221.96 1568.97 Q1214.29 1568.97 1209.93 1564 Q1205.6 1559 1205.6 1550.25 Q1205.6 1541.47 1209.93 1536.5 Q1214.29 1531.54 1221.96 1531.54 Z" fill="#000000" fill-rule="nonzero" fill-opacity="1" /><path clip-path="url(#clip270)" d="M1273.68 1533.76 L1273.68 1539.24 Q1271.2 1537.87 1268.69 1537.2 Q1266.2 1536.5 1263.66 1536.5 Q1257.96 1536.5 1254.81 1540.13 Q1251.66 1543.73 1251.66 1550.25 Q1251.66 1556.78 1254.81 1560.4 Q1257.96 1564 1263.66 1564 Q1266.2 1564 1268.69 1563.33 Q1271.2 1562.63 1273.68 1561.26 L1273.68 1566.68 Q1271.23 1567.82 1268.59 1568.39 Q1265.98 1568.97 1263.02 1568.97 Q1254.97 1568.97 1250.23 1563.91 Q1245.48 1558.85 1245.48 1550.25 Q1245.48 1541.53 1250.26 1536.53 Q1255.06 1531.54 1263.4 1531.54 Q1266.11 1531.54 1268.69 1532.11 Q1271.26 1532.65 1273.68 1533.76 Z" fill="#000000" fill-rule="nonzero" fill-opacity="1" /><path clip-path="url(#clip270)" d="M1283.65 1518.52 L1289.53 1518.52 L1289.53 1547.77 L1307.01 1532.4 L1314.49 1532.4 L1295.58 1549.07 L1315.28 1568.04 L1307.64 1568.04 L1289.53 1550.63 L1289.53 1568.04 L1283.65 1568.04 L1283.65 1518.52 Z" fill="#000000" fill-rule="nonzero" fill-opacity="1" /><path clip-path="url(#clip270)" d="M1336 1520.52 L1376.2 1520.52 L1376.2 1525.93 L1359.33 1525.93 L1359.33 1568.04 L1352.87 1568.04 L1352.87 1525.93 L1336 1525.93 L1336 1520.52 Z" fill="#000000" fill-rule="nonzero" fill-opacity="1" /><path clip-path="url(#clip270)" d="M1380.15 1532.4 L1386.01 1532.4 L1386.01 1568.04 L1380.15 1568.04 L1380.15 1532.4 M1380.15 1518.52 L1386.01 1518.52 L1386.01 1525.93 L1380.15 1525.93 L1380.15 1518.52 Z" fill="#000000" fill-rule="nonzero" fill-opacity="1" /><path clip-path="url(#clip270)" d="M1426.02 1539.24 Q1428.21 1535.29 1431.27 1533.41 Q1434.32 1531.54 1438.46 1531.54 Q1444.03 1531.54 1447.05 1535.45 Q1450.08 1539.33 1450.08 1546.53 L1450.08 1568.04 L1444.19 1568.04 L1444.19 1546.72 Q1444.19 1541.59 1442.38 1539.11 Q1440.56 1536.63 1436.84 1536.63 Q1432.29 1536.63 1429.64 1539.65 Q1427 1542.68 1427 1547.9 L1427 1568.04 L1421.11 1568.04 L1421.11 1546.72 Q1421.11 1541.56 1419.3 1539.11 Q1417.49 1536.63 1413.7 1536.63 Q1409.21 1536.63 1406.57 1539.68 Q1403.93 1542.71 1403.93 1547.9 L1403.93 1568.04 L1398.04 1568.04 L1398.04 1532.4 L1403.93 1532.4 L1403.93 1537.93 Q1405.93 1534.66 1408.73 1533.1 Q1411.53 1531.54 1415.38 1531.54 Q1419.27 1531.54 1421.97 1533.51 Q1424.71 1535.48 1426.02 1539.24 Z" fill="#000000" fill-rule="nonzero" fill-opacity="1" /><path clip-path="url(#clip270)" d="M1492.25 1548.76 L1492.25 1551.62 L1465.32 1551.62 Q1465.71 1557.67 1468.95 1560.85 Q1472.23 1564 1478.05 1564 Q1481.43 1564 1484.58 1563.17 Q1487.76 1562.35 1490.88 1560.69 L1490.88 1566.23 Q1487.73 1567.57 1484.42 1568.27 Q1481.11 1568.97 1477.7 1568.97 Q1469.17 1568.97 1464.18 1564 Q1459.21 1559.04 1459.21 1550.57 Q1459.21 1541.82 1463.92 1536.69 Q1468.67 1531.54 1476.69 1531.54 Q1483.88 1531.54 1488.05 1536.18 Q1492.25 1540.8 1492.25 1548.76 M1486.39 1547.04 Q1486.33 1542.23 1483.69 1539.37 Q1481.08 1536.5 1476.75 1536.5 Q1471.85 1536.5 1468.89 1539.27 Q1465.96 1542.04 1465.51 1547.07 L1486.39 1547.04 Z" fill="#000000" fill-rule="nonzero" fill-opacity="1" /><path clip-path="url(#clip270)" d="M1536.65 1518.58 Q1532.39 1525.9 1530.32 1533.06 Q1528.25 1540.23 1528.25 1547.58 Q1528.25 1554.93 1530.32 1562.16 Q1532.42 1569.35 1536.65 1576.64 L1531.56 1576.64 Q1526.78 1569.16 1524.4 1561.93 Q1522.04 1554.71 1522.04 1547.58 Q1522.04 1540.48 1524.4 1533.29 Q1526.75 1526.09 1531.56 1518.58 L1536.65 1518.58 Z" fill="#000000" fill-rule="nonzero" fill-opacity="1" /><path clip-path="url(#clip270)" d="M1570.74 1533.45 L1570.74 1538.98 Q1568.26 1537.71 1565.58 1537.07 Q1562.91 1536.44 1560.05 1536.44 Q1555.68 1536.44 1553.49 1537.77 Q1551.32 1539.11 1551.32 1541.79 Q1551.32 1543.82 1552.88 1545 Q1554.44 1546.15 1559.15 1547.2 L1561.16 1547.64 Q1567.4 1548.98 1570.01 1551.43 Q1572.65 1553.85 1572.65 1558.21 Q1572.65 1563.17 1568.7 1566.07 Q1564.79 1568.97 1557.91 1568.97 Q1555.05 1568.97 1551.93 1568.39 Q1548.84 1567.85 1545.4 1566.74 L1545.4 1560.69 Q1548.65 1562.38 1551.8 1563.24 Q1554.95 1564.07 1558.04 1564.07 Q1562.18 1564.07 1564.41 1562.66 Q1566.63 1561.23 1566.63 1558.65 Q1566.63 1556.27 1565.01 1554.99 Q1563.42 1553.72 1557.98 1552.54 L1555.94 1552.07 Q1550.5 1550.92 1548.08 1548.56 Q1545.66 1546.18 1545.66 1542.04 Q1545.66 1537.01 1549.22 1534.27 Q1552.79 1531.54 1559.34 1531.54 Q1562.59 1531.54 1565.46 1532.01 Q1568.32 1532.49 1570.74 1533.45 Z" fill="#000000" fill-rule="nonzero" fill-opacity="1" /><path clip-path="url(#clip270)" d="M1612.47 1548.76 L1612.47 1551.62 L1585.54 1551.62 Q1585.92 1557.67 1589.17 1560.85 Q1592.45 1564 1598.27 1564 Q1601.65 1564 1604.8 1563.17 Q1607.98 1562.35 1611.1 1560.69 L1611.1 1566.23 Q1607.95 1567.57 1604.64 1568.27 Q1601.33 1568.97 1597.92 1568.97 Q1589.39 1568.97 1584.39 1564 Q1579.43 1559.04 1579.43 1550.57 Q1579.43 1541.82 1584.14 1536.69 Q1588.88 1531.54 1596.9 1531.54 Q1604.1 1531.54 1608.27 1536.18 Q1612.47 1540.8 1612.47 1548.76 M1606.61 1547.04 Q1606.55 1542.23 1603.9 1539.37 Q1601.29 1536.5 1596.97 1536.5 Q1592.06 1536.5 1589.1 1539.27 Q1586.18 1542.04 1585.73 1547.07 L1606.61 1547.04 Z" fill="#000000" fill-rule="nonzero" fill-opacity="1" /><path clip-path="url(#clip270)" d="M1647.73 1533.76 L1647.73 1539.24 Q1645.25 1537.87 1642.74 1537.2 Q1640.25 1536.5 1637.71 1536.5 Q1632.01 1536.5 1628.86 1540.13 Q1625.71 1543.73 1625.71 1550.25 Q1625.71 1556.78 1628.86 1560.4 Q1632.01 1564 1637.71 1564 Q1640.25 1564 1642.74 1563.33 Q1645.25 1562.63 1647.73 1561.26 L1647.73 1566.68 Q1645.28 1567.82 1642.64 1568.39 Q1640.03 1568.97 1637.07 1568.97 Q1629.02 1568.97 1624.28 1563.91 Q1619.53 1558.85 1619.53 1550.25 Q1619.53 1541.53 1624.31 1536.53 Q1629.11 1531.54 1637.45 1531.54 Q1640.16 1531.54 1642.74 1532.11 Q1645.31 1532.65 1647.73 1533.76 Z" fill="#000000" fill-rule="nonzero" fill-opacity="1" /><path clip-path="url(#clip270)" d="M1656.99 1518.58 L1662.09 1518.58 Q1666.86 1526.09 1669.22 1533.29 Q1671.6 1540.48 1671.6 1547.58 Q1671.6 1554.71 1669.22 1561.93 Q1666.86 1569.16 1662.09 1576.64 L1656.99 1576.64 Q1661.23 1569.35 1663.3 1562.16 Q1665.4 1554.93 1665.4 1547.58 Q1665.4 1540.23 1663.3 1533.06 Q1661.23 1525.9 1656.99 1518.58 Z" fill="#000000" fill-rule="nonzero" fill-opacity="1" /><polyline clip-path="url(#clip270)" style="stroke:#000000; stroke-linecap:round; stroke-linejoin:round; stroke-width:4; stroke-opacity:1; fill:none" points="332.62,1423.18 332.62,47.2441 "/>
<polyline clip-path="url(#clip270)" style="stroke:#000000; stroke-linecap:round; stroke-linejoin:round; stroke-width:4; stroke-opacity:1; fill:none" points="332.62,1268.4 351.518,1268.4 "/>
<polyline clip-path="url(#clip270)" style="stroke:#000000; stroke-linecap:round; stroke-linejoin:round; stroke-width:4; stroke-opacity:1; fill:none" points="332.62,1020.85 351.518,1020.85 "/>
<polyline clip-path="url(#clip270)" style="stroke:#000000; stroke-linecap:round; stroke-linejoin:round; stroke-width:4; stroke-opacity:1; fill:none" points="332.62,773.298 351.518,773.298 "/>
<polyline clip-path="url(#clip270)" style="stroke:#000000; stroke-linecap:round; stroke-linejoin:round; stroke-width:4; stroke-opacity:1; fill:none" points="332.62,525.748 351.518,525.748 "/>
<polyline clip-path="url(#clip270)" style="stroke:#000000; stroke-linecap:round; stroke-linejoin:round; stroke-width:4; stroke-opacity:1; fill:none" points="332.62,278.198 351.518,278.198 "/>
<path clip-path="url(#clip270)" d="M114.26 1268.85 L143.936 1268.85 L143.936 1272.78 L114.26 1272.78 L114.26 1268.85 Z" fill="#000000" fill-rule="nonzero" fill-opacity="1" /><path clip-path="url(#clip270)" d="M154.839 1281.74 L162.477 1281.74 L162.477 1255.38 L154.167 1257.04 L154.167 1252.78 L162.431 1251.12 L167.107 1251.12 L167.107 1281.74 L174.746 1281.74 L174.746 1285.68 L154.839 1285.68 L154.839 1281.74 Z" fill="#000000" fill-rule="nonzero" fill-opacity="1" /><path clip-path="url(#clip270)" d="M183.01 1251.12 L205.232 1251.12 L205.232 1253.11 L192.686 1285.68 L187.801 1285.68 L199.607 1255.05 L183.01 1255.05 L183.01 1251.12 Z" fill="#000000" fill-rule="nonzero" fill-opacity="1" /><path clip-path="url(#clip270)" d="M214.399 1251.12 L232.755 1251.12 L232.755 1255.05 L218.681 1255.05 L218.681 1263.53 Q219.699 1263.18 220.718 1263.02 Q221.736 1262.83 222.755 1262.83 Q228.542 1262.83 231.922 1266 Q235.301 1269.17 235.301 1274.59 Q235.301 1280.17 231.829 1283.27 Q228.357 1286.35 222.037 1286.35 Q219.861 1286.35 217.593 1285.98 Q215.348 1285.61 212.94 1284.87 L212.94 1280.17 Q215.024 1281.3 217.246 1281.86 Q219.468 1282.41 221.945 1282.41 Q225.949 1282.41 228.287 1280.31 Q230.625 1278.2 230.625 1274.59 Q230.625 1270.98 228.287 1268.87 Q225.949 1266.77 221.945 1266.77 Q220.07 1266.77 218.195 1267.18 Q216.343 1267.6 214.399 1268.48 L214.399 1251.12 Z" fill="#000000" fill-rule="nonzero" fill-opacity="1" /><path clip-path="url(#clip270)" d="M254.514 1254.2 Q250.903 1254.2 249.074 1257.76 Q247.269 1261.3 247.269 1268.43 Q247.269 1275.54 249.074 1279.1 Q250.903 1282.65 254.514 1282.65 Q258.148 1282.65 259.954 1279.1 Q261.783 1275.54 261.783 1268.43 Q261.783 1261.3 259.954 1257.76 Q258.148 1254.2 254.514 1254.2 M254.514 1250.49 Q260.324 1250.49 263.38 1255.1 Q266.458 1259.68 266.458 1268.43 Q266.458 1277.16 263.38 1281.77 Q260.324 1286.35 254.514 1286.35 Q248.704 1286.35 245.625 1281.77 Q242.57 1277.16 242.57 1268.43 Q242.57 1259.68 245.625 1255.1 Q248.704 1250.49 254.514 1250.49 Z" fill="#000000" fill-rule="nonzero" fill-opacity="1" /><path clip-path="url(#clip270)" d="M284.676 1254.2 Q281.065 1254.2 279.236 1257.76 Q277.431 1261.3 277.431 1268.43 Q277.431 1275.54 279.236 1279.1 Q281.065 1282.65 284.676 1282.65 Q288.31 1282.65 290.116 1279.1 Q291.944 1275.54 291.944 1268.43 Q291.944 1261.3 290.116 1257.76 Q288.31 1254.2 284.676 1254.2 M284.676 1250.49 Q290.486 1250.49 293.542 1255.1 Q296.62 1259.68 296.62 1268.43 Q296.62 1277.16 293.542 1281.77 Q290.486 1286.35 284.676 1286.35 Q278.866 1286.35 275.787 1281.77 Q272.732 1277.16 272.732 1268.43 Q272.732 1259.68 275.787 1255.1 Q278.866 1250.49 284.676 1250.49 Z" fill="#000000" fill-rule="nonzero" fill-opacity="1" /><path clip-path="url(#clip270)" d="M114.26 1021.3 L143.936 1021.3 L143.936 1025.23 L114.26 1025.23 L114.26 1021.3 Z" fill="#000000" fill-rule="nonzero" fill-opacity="1" /><path clip-path="url(#clip270)" d="M154.839 1034.19 L162.477 1034.19 L162.477 1007.83 L154.167 1009.49 L154.167 1005.23 L162.431 1003.57 L167.107 1003.57 L167.107 1034.19 L174.746 1034.19 L174.746 1038.13 L154.839 1038.13 L154.839 1034.19 Z" fill="#000000" fill-rule="nonzero" fill-opacity="1" /><path clip-path="url(#clip270)" d="M184.237 1003.57 L202.593 1003.57 L202.593 1007.5 L188.519 1007.5 L188.519 1015.98 Q189.538 1015.63 190.556 1015.47 Q191.575 1015.28 192.593 1015.28 Q198.38 1015.28 201.76 1018.45 Q205.139 1021.62 205.139 1027.04 Q205.139 1032.62 201.667 1035.72 Q198.195 1038.8 191.875 1038.8 Q189.7 1038.8 187.431 1038.43 Q185.186 1038.06 182.778 1037.32 L182.778 1032.62 Q184.862 1033.75 187.084 1034.31 Q189.306 1034.86 191.783 1034.86 Q195.787 1034.86 198.125 1032.76 Q200.463 1030.65 200.463 1027.04 Q200.463 1023.43 198.125 1021.32 Q195.787 1019.22 191.783 1019.22 Q189.908 1019.22 188.033 1019.63 Q186.181 1020.05 184.237 1020.93 L184.237 1003.57 Z" fill="#000000" fill-rule="nonzero" fill-opacity="1" /><path clip-path="url(#clip270)" d="M224.352 1006.65 Q220.741 1006.65 218.912 1010.21 Q217.107 1013.75 217.107 1020.88 Q217.107 1027.99 218.912 1031.55 Q220.741 1035.1 224.352 1035.1 Q227.986 1035.1 229.792 1031.55 Q231.621 1027.99 231.621 1020.88 Q231.621 1013.75 229.792 1010.21 Q227.986 1006.65 224.352 1006.65 M224.352 1002.94 Q230.162 1002.94 233.218 1007.55 Q236.297 1012.13 236.297 1020.88 Q236.297 1029.61 233.218 1034.22 Q230.162 1038.8 224.352 1038.8 Q218.542 1038.8 215.463 1034.22 Q212.408 1029.61 212.408 1020.88 Q212.408 1012.13 215.463 1007.55 Q218.542 1002.94 224.352 1002.94 Z" fill="#000000" fill-rule="nonzero" fill-opacity="1" /><path clip-path="url(#clip270)" d="M254.514 1006.65 Q250.903 1006.65 249.074 1010.21 Q247.269 1013.75 247.269 1020.88 Q247.269 1027.99 249.074 1031.55 Q250.903 1035.1 254.514 1035.1 Q258.148 1035.1 259.954 1031.55 Q261.783 1027.99 261.783 1020.88 Q261.783 1013.75 259.954 1010.21 Q258.148 1006.65 254.514 1006.65 M254.514 1002.94 Q260.324 1002.94 263.38 1007.55 Q266.458 1012.13 266.458 1020.88 Q266.458 1029.61 263.38 1034.22 Q260.324 1038.8 254.514 1038.8 Q248.704 1038.8 245.625 1034.22 Q242.57 1029.61 242.57 1020.88 Q242.57 1012.13 245.625 1007.55 Q248.704 1002.94 254.514 1002.94 Z" fill="#000000" fill-rule="nonzero" fill-opacity="1" /><path clip-path="url(#clip270)" d="M284.676 1006.65 Q281.065 1006.65 279.236 1010.21 Q277.431 1013.75 277.431 1020.88 Q277.431 1027.99 279.236 1031.55 Q281.065 1035.1 284.676 1035.1 Q288.31 1035.1 290.116 1031.55 Q291.944 1027.99 291.944 1020.88 Q291.944 1013.75 290.116 1010.21 Q288.31 1006.65 284.676 1006.65 M284.676 1002.94 Q290.486 1002.94 293.542 1007.55 Q296.62 1012.13 296.62 1020.88 Q296.62 1029.61 293.542 1034.22 Q290.486 1038.8 284.676 1038.8 Q278.866 1038.8 275.787 1034.22 Q272.732 1029.61 272.732 1020.88 Q272.732 1012.13 275.787 1007.55 Q278.866 1002.94 284.676 1002.94 Z" fill="#000000" fill-rule="nonzero" fill-opacity="1" /><path clip-path="url(#clip270)" d="M114.26 773.749 L143.936 773.749 L143.936 777.685 L114.26 777.685 L114.26 773.749 Z" fill="#000000" fill-rule="nonzero" fill-opacity="1" /><path clip-path="url(#clip270)" d="M154.839 786.643 L162.477 786.643 L162.477 760.277 L154.167 761.944 L154.167 757.685 L162.431 756.018 L167.107 756.018 L167.107 786.643 L174.746 786.643 L174.746 790.578 L154.839 790.578 L154.839 786.643 Z" fill="#000000" fill-rule="nonzero" fill-opacity="1" /><path clip-path="url(#clip270)" d="M188.218 786.643 L204.537 786.643 L204.537 790.578 L182.593 790.578 L182.593 786.643 Q185.255 783.888 189.838 779.259 Q194.445 774.606 195.625 773.263 Q197.871 770.74 198.75 769.004 Q199.653 767.245 199.653 765.555 Q199.653 762.8 197.709 761.064 Q195.787 759.328 192.686 759.328 Q190.487 759.328 188.033 760.092 Q185.602 760.856 182.825 762.407 L182.825 757.685 Q185.649 756.55 188.102 755.972 Q190.556 755.393 192.593 755.393 Q197.963 755.393 201.158 758.078 Q204.352 760.763 204.352 765.254 Q204.352 767.384 203.542 769.305 Q202.755 771.203 200.649 773.796 Q200.07 774.467 196.968 777.685 Q193.866 780.879 188.218 786.643 Z" fill="#000000" fill-rule="nonzero" fill-opacity="1" /><path clip-path="url(#clip270)" d="M214.399 756.018 L232.755 756.018 L232.755 759.953 L218.681 759.953 L218.681 768.425 Q219.699 768.078 220.718 767.916 Q221.736 767.731 222.755 767.731 Q228.542 767.731 231.922 770.902 Q235.301 774.073 235.301 779.49 Q235.301 785.069 231.829 788.171 Q228.357 791.249 222.037 791.249 Q219.861 791.249 217.593 790.879 Q215.348 790.509 212.94 789.768 L212.94 785.069 Q215.024 786.203 217.246 786.759 Q219.468 787.314 221.945 787.314 Q225.949 787.314 228.287 785.208 Q230.625 783.101 230.625 779.49 Q230.625 775.879 228.287 773.773 Q225.949 771.666 221.945 771.666 Q220.07 771.666 218.195 772.083 Q216.343 772.499 214.399 773.379 L214.399 756.018 Z" fill="#000000" fill-rule="nonzero" fill-opacity="1" /><path clip-path="url(#clip270)" d="M254.514 759.097 Q250.903 759.097 249.074 762.661 Q247.269 766.203 247.269 773.333 Q247.269 780.439 249.074 784.004 Q250.903 787.546 254.514 787.546 Q258.148 787.546 259.954 784.004 Q261.783 780.439 261.783 773.333 Q261.783 766.203 259.954 762.661 Q258.148 759.097 254.514 759.097 M254.514 755.393 Q260.324 755.393 263.38 759.999 Q266.458 764.583 266.458 773.333 Q266.458 782.06 263.38 786.666 Q260.324 791.249 254.514 791.249 Q248.704 791.249 245.625 786.666 Q242.57 782.06 242.57 773.333 Q242.57 764.583 245.625 759.999 Q248.704 755.393 254.514 755.393 Z" fill="#000000" fill-rule="nonzero" fill-opacity="1" /><path clip-path="url(#clip270)" d="M284.676 759.097 Q281.065 759.097 279.236 762.661 Q277.431 766.203 277.431 773.333 Q277.431 780.439 279.236 784.004 Q281.065 787.546 284.676 787.546 Q288.31 787.546 290.116 784.004 Q291.944 780.439 291.944 773.333 Q291.944 766.203 290.116 762.661 Q288.31 759.097 284.676 759.097 M284.676 755.393 Q290.486 755.393 293.542 759.999 Q296.62 764.583 296.62 773.333 Q296.62 782.06 293.542 786.666 Q290.486 791.249 284.676 791.249 Q278.866 791.249 275.787 786.666 Q272.732 782.06 272.732 773.333 Q272.732 764.583 275.787 759.999 Q278.866 755.393 284.676 755.393 Z" fill="#000000" fill-rule="nonzero" fill-opacity="1" /><path clip-path="url(#clip270)" d="M114.26 526.199 L143.936 526.199 L143.936 530.134 L114.26 530.134 L114.26 526.199 Z" fill="#000000" fill-rule="nonzero" fill-opacity="1" /><path clip-path="url(#clip270)" d="M154.839 539.093 L162.477 539.093 L162.477 512.727 L154.167 514.394 L154.167 510.135 L162.431 508.468 L167.107 508.468 L167.107 539.093 L174.746 539.093 L174.746 543.028 L154.839 543.028 L154.839 539.093 Z" fill="#000000" fill-rule="nonzero" fill-opacity="1" /><path clip-path="url(#clip270)" d="M194.19 511.547 Q190.579 511.547 188.75 515.111 Q186.945 518.653 186.945 525.783 Q186.945 532.889 188.75 536.454 Q190.579 539.995 194.19 539.995 Q197.825 539.995 199.63 536.454 Q201.459 532.889 201.459 525.783 Q201.459 518.653 199.63 515.111 Q197.825 511.547 194.19 511.547 M194.19 507.843 Q200 507.843 203.056 512.449 Q206.135 517.033 206.135 525.783 Q206.135 534.509 203.056 539.116 Q200 543.699 194.19 543.699 Q188.38 543.699 185.301 539.116 Q182.246 534.509 182.246 525.783 Q182.246 517.033 185.301 512.449 Q188.38 507.843 194.19 507.843 Z" fill="#000000" fill-rule="nonzero" fill-opacity="1" /><path clip-path="url(#clip270)" d="M224.352 511.547 Q220.741 511.547 218.912 515.111 Q217.107 518.653 217.107 525.783 Q217.107 532.889 218.912 536.454 Q220.741 539.995 224.352 539.995 Q227.986 539.995 229.792 536.454 Q231.621 532.889 231.621 525.783 Q231.621 518.653 229.792 515.111 Q227.986 511.547 224.352 511.547 M224.352 507.843 Q230.162 507.843 233.218 512.449 Q236.297 517.033 236.297 525.783 Q236.297 534.509 233.218 539.116 Q230.162 543.699 224.352 543.699 Q218.542 543.699 215.463 539.116 Q212.408 534.509 212.408 525.783 Q212.408 517.033 215.463 512.449 Q218.542 507.843 224.352 507.843 Z" fill="#000000" fill-rule="nonzero" fill-opacity="1" /><path clip-path="url(#clip270)" d="M254.514 511.547 Q250.903 511.547 249.074 515.111 Q247.269 518.653 247.269 525.783 Q247.269 532.889 249.074 536.454 Q250.903 539.995 254.514 539.995 Q258.148 539.995 259.954 536.454 Q261.783 532.889 261.783 525.783 Q261.783 518.653 259.954 515.111 Q258.148 511.547 254.514 511.547 M254.514 507.843 Q260.324 507.843 263.38 512.449 Q266.458 517.033 266.458 525.783 Q266.458 534.509 263.38 539.116 Q260.324 543.699 254.514 543.699 Q248.704 543.699 245.625 539.116 Q242.57 534.509 242.57 525.783 Q242.57 517.033 245.625 512.449 Q248.704 507.843 254.514 507.843 Z" fill="#000000" fill-rule="nonzero" fill-opacity="1" /><path clip-path="url(#clip270)" d="M284.676 511.547 Q281.065 511.547 279.236 515.111 Q277.431 518.653 277.431 525.783 Q277.431 532.889 279.236 536.454 Q281.065 539.995 284.676 539.995 Q288.31 539.995 290.116 536.454 Q291.944 532.889 291.944 525.783 Q291.944 518.653 290.116 515.111 Q288.31 511.547 284.676 511.547 M284.676 507.843 Q290.486 507.843 293.542 512.449 Q296.62 517.033 296.62 525.783 Q296.62 534.509 293.542 539.116 Q290.486 543.699 284.676 543.699 Q278.866 543.699 275.787 539.116 Q272.732 534.509 272.732 525.783 Q272.732 517.033 275.787 512.449 Q278.866 507.843 284.676 507.843 Z" fill="#000000" fill-rule="nonzero" fill-opacity="1" /><path clip-path="url(#clip270)" d="M144.422 278.649 L174.098 278.649 L174.098 282.584 L144.422 282.584 L144.422 278.649 Z" fill="#000000" fill-rule="nonzero" fill-opacity="1" /><path clip-path="url(#clip270)" d="M183.01 260.918 L205.232 260.918 L205.232 262.908 L192.686 295.478 L187.801 295.478 L199.607 264.853 L183.01 264.853 L183.01 260.918 Z" fill="#000000" fill-rule="nonzero" fill-opacity="1" /><path clip-path="url(#clip270)" d="M214.399 260.918 L232.755 260.918 L232.755 264.853 L218.681 264.853 L218.681 273.325 Q219.699 272.978 220.718 272.816 Q221.736 272.631 222.755 272.631 Q228.542 272.631 231.922 275.802 Q235.301 278.973 235.301 284.39 Q235.301 289.969 231.829 293.07 Q228.357 296.149 222.037 296.149 Q219.861 296.149 217.593 295.779 Q215.348 295.408 212.94 294.668 L212.94 289.969 Q215.024 291.103 217.246 291.658 Q219.468 292.214 221.945 292.214 Q225.949 292.214 228.287 290.107 Q230.625 288.001 230.625 284.39 Q230.625 280.779 228.287 278.672 Q225.949 276.566 221.945 276.566 Q220.07 276.566 218.195 276.982 Q216.343 277.399 214.399 278.279 L214.399 260.918 Z" fill="#000000" fill-rule="nonzero" fill-opacity="1" /><path clip-path="url(#clip270)" d="M254.514 263.996 Q250.903 263.996 249.074 267.561 Q247.269 271.103 247.269 278.232 Q247.269 285.339 249.074 288.904 Q250.903 292.445 254.514 292.445 Q258.148 292.445 259.954 288.904 Q261.783 285.339 261.783 278.232 Q261.783 271.103 259.954 267.561 Q258.148 263.996 254.514 263.996 M254.514 260.293 Q260.324 260.293 263.38 264.899 Q266.458 269.483 266.458 278.232 Q266.458 286.959 263.38 291.566 Q260.324 296.149 254.514 296.149 Q248.704 296.149 245.625 291.566 Q242.57 286.959 242.57 278.232 Q242.57 269.483 245.625 264.899 Q248.704 260.293 254.514 260.293 Z" fill="#000000" fill-rule="nonzero" fill-opacity="1" /><path clip-path="url(#clip270)" d="M284.676 263.996 Q281.065 263.996 279.236 267.561 Q277.431 271.103 277.431 278.232 Q277.431 285.339 279.236 288.904 Q281.065 292.445 284.676 292.445 Q288.31 292.445 290.116 288.904 Q291.944 285.339 291.944 278.232 Q291.944 271.103 290.116 267.561 Q288.31 263.996 284.676 263.996 M284.676 260.293 Q290.486 260.293 293.542 264.899 Q296.62 269.483 296.62 278.232 Q296.62 286.959 293.542 291.566 Q290.486 296.149 284.676 296.149 Q278.866 296.149 275.787 291.566 Q272.732 286.959 272.732 278.232 Q272.732 269.483 275.787 264.899 Q278.866 260.293 284.676 260.293 Z" fill="#000000" fill-rule="nonzero" fill-opacity="1" /><path clip-path="url(#clip270)" d="M16.4842 816.375 L16.4842 786.329 L21.895 786.329 L21.895 809.945 L35.9632 809.945 L35.9632 787.315 L41.3741 787.315 L41.3741 809.945 L58.5933 809.945 L58.5933 785.756 L64.0042 785.756 L64.0042 816.375 L16.4842 816.375 Z" fill="#000000" fill-rule="nonzero" fill-opacity="1" /><path clip-path="url(#clip270)" d="M16.4842 775.189 L16.4842 768.759 L58.5933 768.759 L58.5933 745.62 L64.0042 745.62 L64.0042 775.189 L16.4842 775.189 Z" fill="#000000" fill-rule="nonzero" fill-opacity="1" /><path clip-path="url(#clip270)" d="M41.3104 732.443 L58.7206 732.443 L58.7206 722.13 Q58.7206 716.942 56.5881 714.46 Q54.4238 711.945 49.9996 711.945 Q45.5436 711.945 43.4429 714.46 Q41.3104 716.942 41.3104 722.13 L41.3104 732.443 M21.7677 732.443 L36.0905 732.443 L36.0905 722.926 Q36.0905 718.216 34.34 715.924 Q32.5576 713.6 28.9291 713.6 Q25.3325 713.6 23.5501 715.924 Q21.7677 718.216 21.7677 722.926 L21.7677 732.443 M16.4842 738.872 L16.4842 722.449 Q16.4842 715.096 19.5397 711.118 Q22.5952 707.139 28.2289 707.139 Q32.5894 707.139 35.1675 709.176 Q37.7456 711.213 38.3822 715.16 Q39.4007 710.418 42.6472 707.808 Q45.8619 705.166 50.6998 705.166 Q57.0655 705.166 60.5348 709.495 Q64.0042 713.823 64.0042 721.812 L64.0042 738.872 L16.4842 738.872 Z" fill="#000000" fill-rule="nonzero" fill-opacity="1" /><path clip-path="url(#clip270)" d="M20.8447 676.011 Q20.8447 683.013 26.0645 687.151 Q31.2844 691.257 40.2919 691.257 Q49.2675 691.257 54.4874 687.151 Q59.7073 683.013 59.7073 676.011 Q59.7073 669.009 54.4874 664.935 Q49.2675 660.829 40.2919 660.829 Q31.2844 660.829 26.0645 664.935 Q20.8447 669.009 20.8447 676.011 M15.6248 676.011 Q15.6248 666.017 22.3406 660.033 Q29.0246 654.049 40.2919 654.049 Q51.5274 654.049 58.2432 660.033 Q64.9272 666.017 64.9272 676.011 Q64.9272 686.037 58.2432 692.052 Q51.5592 698.036 40.2919 698.036 Q29.0246 698.036 22.3406 692.052 Q15.6248 686.037 15.6248 676.011 Z" fill="#000000" fill-rule="nonzero" fill-opacity="1" /><polyline clip-path="url(#clip271)" style="stroke:#009af9; stroke-linecap:round; stroke-linejoin:round; stroke-width:4; stroke-opacity:1; fill:none" points="443.388,1338.02 513.328,852.999 572.98,434.825 633.04,293.989 691.217,244.32 749.974,219.664 809.422,200.553 868.079,192.295 927.853,182.177 987.394,174.994 1045.85,168.786 1103.96,167.873 1162.27,163.301 1221.94,158.158 1282.08,153.632 1341.74,151.126 1400.3,146.839 1458.72,141.223 1519.33,134.532 1578.82,130.595 1638.17,131.661 1696.77,126.863 1755.28,122.622 1813.66,119.707 1873.67,113.958 1932.31,110.328 1992.78,105.825 2054.69,101.983 2113.92,95.0023 2176.37,92.9879 2236.7,88.8517 2295.58,86.1857 "/>
<polyline clip-path="url(#clip271)" style="stroke:#e26f46; stroke-linecap:round; stroke-linejoin:round; stroke-width:4; stroke-opacity:1; fill:none" points="389.794,1384.24 416.182,735.188 425.906,615.352 435.144,309.271 444.492,272.564 453.915,233.535 463.48,211.934 472.858,204.974 482.257,188.924 491.618,185.434 500.782,181.994 510.155,174.984 519.307,166.974 528.639,165.995 537.787,168.967 547.143,159.332 556.263,159.568 565.587,155.195 574.698,150.65 584.27,150.24 593.694,148.89 602.798,141.099 612.173,137.585 621.287,134.715 630.603,131.29 639.753,126.291 649.111,126.681 658.163,118.667 667.456,117.364 676.544,114.89 685.874,113.301 695.133,110.322 "/>
<path clip-path="url(#clip270)" d="M1784.1 1377.32 L2285.42 1377.32 L2285.42 1221.8 L1784.1 1221.8  Z" fill="#ffffff" fill-rule="evenodd" fill-opacity="1"/>
<polyline clip-path="url(#clip270)" style="stroke:#000000; stroke-linecap:round; stroke-linejoin:round; stroke-width:4; stroke-opacity:1; fill:none" points="1784.1,1377.32 2285.42,1377.32 2285.42,1221.8 1784.1,1221.8 1784.1,1377.32 "/>
<polyline clip-path="url(#clip270)" style="stroke:#009af9; stroke-linecap:round; stroke-linejoin:round; stroke-width:4; stroke-opacity:1; fill:none" points="1806.55,1273.64 1941.22,1273.64 "/>
<path clip-path="url(#clip270)" d="M1963.67 1256.36 L1983.53 1256.36 L1983.53 1260.29 L1968.34 1260.29 L1968.34 1270.48 L1982.05 1270.48 L1982.05 1274.41 L1968.34 1274.41 L1968.34 1290.92 L1963.67 1290.92 L1963.67 1256.36 Z" fill="#000000" fill-rule="nonzero" fill-opacity="1" /><path clip-path="url(#clip270)" d="M1987.72 1280.68 L1987.72 1264.99 L1991.98 1264.99 L1991.98 1280.52 Q1991.98 1284.2 1993.41 1286.05 Q1994.85 1287.88 1997.72 1287.88 Q2001.17 1287.88 2003.16 1285.68 Q2005.17 1283.48 2005.17 1279.69 L2005.17 1264.99 L2009.43 1264.99 L2009.43 1290.92 L2005.17 1290.92 L2005.17 1286.93 Q2003.62 1289.29 2001.56 1290.45 Q1999.52 1291.59 1996.82 1291.59 Q1992.35 1291.59 1990.03 1288.81 Q1987.72 1286.03 1987.72 1280.68 M1998.44 1264.36 L1998.44 1264.36 Z" fill="#000000" fill-rule="nonzero" fill-opacity="1" /><path clip-path="url(#clip270)" d="M2018.2 1254.9 L2022.46 1254.9 L2022.46 1290.92 L2018.2 1290.92 L2018.2 1254.9 Z" fill="#000000" fill-rule="nonzero" fill-opacity="1" /><path clip-path="url(#clip270)" d="M2031.38 1254.9 L2035.64 1254.9 L2035.64 1290.92 L2031.38 1290.92 L2031.38 1254.9 Z" fill="#000000" fill-rule="nonzero" fill-opacity="1" /><path clip-path="url(#clip270)" d="M2064.48 1274.41 L2064.48 1287.07 L2071.98 1287.07 Q2075.75 1287.07 2077.56 1285.52 Q2079.39 1283.95 2079.39 1280.73 Q2079.39 1277.49 2077.56 1275.96 Q2075.75 1274.41 2071.98 1274.41 L2064.48 1274.41 M2064.48 1260.2 L2064.48 1270.61 L2071.4 1270.61 Q2074.82 1270.61 2076.49 1269.34 Q2078.18 1268.05 2078.18 1265.41 Q2078.18 1262.79 2076.49 1261.49 Q2074.82 1260.2 2071.4 1260.2 L2064.48 1260.2 M2059.8 1256.36 L2071.75 1256.36 Q2077.09 1256.36 2079.99 1258.58 Q2082.88 1260.8 2082.88 1264.9 Q2082.88 1268.07 2081.4 1269.94 Q2079.92 1271.82 2077.05 1272.28 Q2080.5 1273.02 2082.39 1275.38 Q2084.32 1277.72 2084.32 1281.24 Q2084.32 1285.87 2081.17 1288.39 Q2078.02 1290.92 2072.21 1290.92 L2059.8 1290.92 L2059.8 1256.36 Z" fill="#000000" fill-rule="nonzero" fill-opacity="1" /><path clip-path="url(#clip270)" d="M2103.92 1277.88 Q2098.76 1277.88 2096.77 1279.06 Q2094.78 1280.24 2094.78 1283.09 Q2094.78 1285.36 2096.26 1286.7 Q2097.76 1288.02 2100.33 1288.02 Q2103.88 1288.02 2106.01 1285.52 Q2108.16 1283 2108.16 1278.83 L2108.16 1277.88 L2103.92 1277.88 M2112.42 1276.12 L2112.42 1290.92 L2108.16 1290.92 L2108.16 1286.98 Q2106.7 1289.34 2104.52 1290.48 Q2102.35 1291.59 2099.2 1291.59 Q2095.22 1291.59 2092.86 1289.36 Q2090.52 1287.12 2090.52 1283.37 Q2090.52 1278.99 2093.44 1276.77 Q2096.38 1274.55 2102.19 1274.55 L2108.16 1274.55 L2108.16 1274.13 Q2108.16 1271.19 2106.21 1269.6 Q2104.29 1267.98 2100.8 1267.98 Q2098.57 1267.98 2096.47 1268.51 Q2094.36 1269.04 2092.42 1270.11 L2092.42 1266.17 Q2094.76 1265.27 2096.95 1264.83 Q2099.15 1264.36 2101.24 1264.36 Q2106.86 1264.36 2109.64 1267.28 Q2112.42 1270.2 2112.42 1276.12 Z" fill="#000000" fill-rule="nonzero" fill-opacity="1" /><path clip-path="url(#clip270)" d="M2125.4 1257.63 L2125.4 1264.99 L2134.18 1264.99 L2134.18 1268.3 L2125.4 1268.3 L2125.4 1282.37 Q2125.4 1285.54 2126.26 1286.45 Q2127.14 1287.35 2129.8 1287.35 L2134.18 1287.35 L2134.18 1290.92 L2129.8 1290.92 Q2124.87 1290.92 2123 1289.09 Q2121.12 1287.23 2121.12 1282.37 L2121.12 1268.3 L2118 1268.3 L2118 1264.99 L2121.12 1264.99 L2121.12 1257.63 L2125.4 1257.63 Z" fill="#000000" fill-rule="nonzero" fill-opacity="1" /><path clip-path="url(#clip270)" d="M2158.44 1265.98 L2158.44 1269.97 Q2156.63 1268.97 2154.8 1268.48 Q2153 1267.98 2151.14 1267.98 Q2147 1267.98 2144.71 1270.61 Q2142.42 1273.23 2142.42 1277.98 Q2142.42 1282.72 2144.71 1285.36 Q2147 1287.98 2151.14 1287.98 Q2153 1287.98 2154.8 1287.49 Q2156.63 1286.98 2158.44 1285.98 L2158.44 1289.92 Q2156.65 1290.75 2154.73 1291.17 Q2152.83 1291.59 2150.68 1291.59 Q2144.82 1291.59 2141.38 1287.91 Q2137.93 1284.23 2137.93 1277.98 Q2137.93 1271.63 2141.4 1268 Q2144.89 1264.36 2150.96 1264.36 Q2152.93 1264.36 2154.8 1264.78 Q2156.68 1265.17 2158.44 1265.98 Z" fill="#000000" fill-rule="nonzero" fill-opacity="1" /><path clip-path="url(#clip270)" d="M2187.39 1275.27 L2187.39 1290.92 L2183.13 1290.92 L2183.13 1275.41 Q2183.13 1271.73 2181.7 1269.9 Q2180.26 1268.07 2177.39 1268.07 Q2173.94 1268.07 2171.95 1270.27 Q2169.96 1272.47 2169.96 1276.26 L2169.96 1290.92 L2165.68 1290.92 L2165.68 1254.9 L2169.96 1254.9 L2169.96 1269.02 Q2171.49 1266.68 2173.55 1265.52 Q2175.63 1264.36 2178.34 1264.36 Q2182.81 1264.36 2185.1 1267.14 Q2187.39 1269.9 2187.39 1275.27 Z" fill="#000000" fill-rule="nonzero" fill-opacity="1" /><polyline clip-path="url(#clip270)" style="stroke:#e26f46; stroke-linecap:round; stroke-linejoin:round; stroke-width:4; stroke-opacity:1; fill:none" points="1806.55,1325.48 1941.22,1325.48 "/>
<path clip-path="url(#clip270)" d="M1985.91 1309.33 L1985.91 1313.89 Q1983.25 1312.62 1980.89 1311.99 Q1978.53 1311.37 1976.33 1311.37 Q1972.51 1311.37 1970.43 1312.85 Q1968.37 1314.33 1968.37 1317.06 Q1968.37 1319.35 1969.73 1320.53 Q1971.12 1321.69 1974.96 1322.41 L1977.79 1322.99 Q1983.02 1323.98 1985.5 1326.51 Q1988 1329.01 1988 1333.22 Q1988 1338.24 1984.62 1340.83 Q1981.26 1343.43 1974.76 1343.43 Q1972.3 1343.43 1969.52 1342.87 Q1966.77 1342.32 1963.81 1341.23 L1963.81 1336.41 Q1966.65 1338.01 1969.39 1338.82 Q1972.12 1339.63 1974.76 1339.63 Q1978.76 1339.63 1980.94 1338.06 Q1983.11 1336.48 1983.11 1333.57 Q1983.11 1331.02 1981.54 1329.58 Q1979.99 1328.15 1976.42 1327.43 L1973.58 1326.88 Q1968.34 1325.83 1966.01 1323.61 Q1963.67 1321.39 1963.67 1317.43 Q1963.67 1312.85 1966.89 1310.21 Q1970.13 1307.57 1975.8 1307.57 Q1978.23 1307.57 1980.75 1308.01 Q1983.27 1308.45 1985.91 1309.33 Z" fill="#000000" fill-rule="nonzero" fill-opacity="1" /><path clip-path="url(#clip270)" d="M1994.66 1332.52 L1994.66 1316.83 L1998.92 1316.83 L1998.92 1332.36 Q1998.92 1336.04 2000.36 1337.89 Q2001.79 1339.72 2004.66 1339.72 Q2008.11 1339.72 2010.1 1337.52 Q2012.12 1335.32 2012.12 1331.53 L2012.12 1316.83 L2016.38 1316.83 L2016.38 1342.76 L2012.12 1342.76 L2012.12 1338.77 Q2010.57 1341.13 2008.51 1342.29 Q2006.47 1343.43 2003.76 1343.43 Q1999.29 1343.43 1996.98 1340.65 Q1994.66 1337.87 1994.66 1332.52 M2005.38 1316.2 L2005.38 1316.2 Z" fill="#000000" fill-rule="nonzero" fill-opacity="1" /><path clip-path="url(#clip270)" d="M2043.76 1329.82 Q2043.76 1325.12 2041.82 1322.45 Q2039.89 1319.77 2036.51 1319.77 Q2033.14 1319.77 2031.19 1322.45 Q2029.27 1325.12 2029.27 1329.82 Q2029.27 1334.51 2031.19 1337.2 Q2033.14 1339.86 2036.51 1339.86 Q2039.89 1339.86 2041.82 1337.2 Q2043.76 1334.51 2043.76 1329.82 M2029.27 1320.76 Q2030.61 1318.45 2032.65 1317.34 Q2034.71 1316.2 2037.56 1316.2 Q2042.28 1316.2 2045.22 1319.95 Q2048.18 1323.7 2048.18 1329.82 Q2048.18 1335.93 2045.22 1339.68 Q2042.28 1343.43 2037.56 1343.43 Q2034.71 1343.43 2032.65 1342.32 Q2030.61 1341.18 2029.27 1338.87 L2029.27 1342.76 L2024.99 1342.76 L2024.99 1306.74 L2029.27 1306.74 L2029.27 1320.76 Z" fill="#000000" fill-rule="nonzero" fill-opacity="1" /><path clip-path="url(#clip270)" d="M2071.77 1317.59 L2071.77 1321.62 Q2069.96 1320.7 2068.02 1320.23 Q2066.08 1319.77 2063.99 1319.77 Q2060.82 1319.77 2059.22 1320.74 Q2057.65 1321.71 2057.65 1323.66 Q2057.65 1325.14 2058.78 1326 Q2059.92 1326.83 2063.34 1327.59 L2064.8 1327.92 Q2069.34 1328.89 2071.24 1330.67 Q2073.16 1332.43 2073.16 1335.6 Q2073.16 1339.21 2070.29 1341.32 Q2067.44 1343.43 2062.44 1343.43 Q2060.36 1343.43 2058.09 1343.01 Q2055.84 1342.62 2053.34 1341.81 L2053.34 1337.41 Q2055.7 1338.63 2058 1339.26 Q2060.29 1339.86 2062.53 1339.86 Q2065.54 1339.86 2067.16 1338.84 Q2068.78 1337.8 2068.78 1335.93 Q2068.78 1334.19 2067.6 1333.26 Q2066.45 1332.34 2062.49 1331.48 L2061.01 1331.14 Q2057.05 1330.3 2055.29 1328.59 Q2053.53 1326.85 2053.53 1323.84 Q2053.53 1320.19 2056.12 1318.2 Q2058.71 1316.2 2063.48 1316.2 Q2065.84 1316.2 2067.93 1316.55 Q2070.01 1316.9 2071.77 1317.59 Z" fill="#000000" fill-rule="nonzero" fill-opacity="1" /><path clip-path="url(#clip270)" d="M2091.72 1329.72 Q2086.56 1329.72 2084.57 1330.9 Q2082.58 1332.08 2082.58 1334.93 Q2082.58 1337.2 2084.06 1338.54 Q2085.57 1339.86 2088.14 1339.86 Q2091.68 1339.86 2093.81 1337.36 Q2095.96 1334.84 2095.96 1330.67 L2095.96 1329.72 L2091.72 1329.72 M2100.22 1327.96 L2100.22 1342.76 L2095.96 1342.76 L2095.96 1338.82 Q2094.5 1341.18 2092.32 1342.32 Q2090.15 1343.43 2087 1343.43 Q2083.02 1343.43 2080.66 1341.2 Q2078.32 1338.96 2078.32 1335.21 Q2078.32 1330.83 2081.24 1328.61 Q2084.18 1326.39 2089.99 1326.39 L2095.96 1326.39 L2095.96 1325.97 Q2095.96 1323.03 2094.01 1321.44 Q2092.09 1319.82 2088.6 1319.82 Q2086.38 1319.82 2084.27 1320.35 Q2082.16 1320.88 2080.22 1321.95 L2080.22 1318.01 Q2082.56 1317.11 2084.76 1316.67 Q2086.95 1316.2 2089.04 1316.2 Q2094.66 1316.2 2097.44 1319.12 Q2100.22 1322.04 2100.22 1327.96 Z" fill="#000000" fill-rule="nonzero" fill-opacity="1" /><path clip-path="url(#clip270)" d="M2129.18 1321.81 Q2130.77 1318.94 2133 1317.57 Q2135.22 1316.2 2138.23 1316.2 Q2142.28 1316.2 2144.48 1319.05 Q2146.68 1321.88 2146.68 1327.11 L2146.68 1342.76 L2142.39 1342.76 L2142.39 1327.25 Q2142.39 1323.52 2141.07 1321.71 Q2139.76 1319.91 2137.05 1319.91 Q2133.74 1319.91 2131.82 1322.11 Q2129.89 1324.31 2129.89 1328.1 L2129.89 1342.76 L2125.61 1342.76 L2125.61 1327.25 Q2125.61 1323.5 2124.29 1321.71 Q2122.97 1319.91 2120.22 1319.91 Q2116.95 1319.91 2115.03 1322.13 Q2113.11 1324.33 2113.11 1328.1 L2113.11 1342.76 L2108.83 1342.76 L2108.83 1316.83 L2113.11 1316.83 L2113.11 1320.86 Q2114.57 1318.47 2116.61 1317.34 Q2118.64 1316.2 2121.45 1316.2 Q2124.27 1316.2 2126.24 1317.64 Q2128.23 1319.07 2129.18 1321.81 Z" fill="#000000" fill-rule="nonzero" fill-opacity="1" /><path clip-path="url(#clip270)" d="M2159.29 1338.87 L2159.29 1352.62 L2155.01 1352.62 L2155.01 1316.83 L2159.29 1316.83 L2159.29 1320.76 Q2160.63 1318.45 2162.67 1317.34 Q2164.73 1316.2 2167.58 1316.2 Q2172.3 1316.2 2175.24 1319.95 Q2178.2 1323.7 2178.2 1329.82 Q2178.2 1335.93 2175.24 1339.68 Q2172.3 1343.43 2167.58 1343.43 Q2164.73 1343.43 2162.67 1342.32 Q2160.63 1341.18 2159.29 1338.87 M2173.78 1329.82 Q2173.78 1325.12 2171.84 1322.45 Q2169.92 1319.77 2166.54 1319.77 Q2163.16 1319.77 2161.21 1322.45 Q2159.29 1325.12 2159.29 1329.82 Q2159.29 1334.51 2161.21 1337.2 Q2163.16 1339.86 2166.54 1339.86 Q2169.92 1339.86 2171.84 1337.2 Q2173.78 1334.51 2173.78 1329.82 Z" fill="#000000" fill-rule="nonzero" fill-opacity="1" /><path clip-path="url(#clip270)" d="M2185.26 1306.74 L2189.52 1306.74 L2189.52 1342.76 L2185.26 1342.76 L2185.26 1306.74 Z" fill="#000000" fill-rule="nonzero" fill-opacity="1" /><path clip-path="url(#clip270)" d="M2198.44 1316.83 L2202.69 1316.83 L2202.69 1342.76 L2198.44 1342.76 L2198.44 1316.83 M2198.44 1306.74 L2202.69 1306.74 L2202.69 1312.13 L2198.44 1312.13 L2198.44 1306.74 Z" fill="#000000" fill-rule="nonzero" fill-opacity="1" /><path clip-path="url(#clip270)" d="M2233.16 1327.11 L2233.16 1342.76 L2228.9 1342.76 L2228.9 1327.25 Q2228.9 1323.57 2227.46 1321.74 Q2226.03 1319.91 2223.16 1319.91 Q2219.71 1319.91 2217.72 1322.11 Q2215.73 1324.31 2215.73 1328.1 L2215.73 1342.76 L2211.44 1342.76 L2211.44 1316.83 L2215.73 1316.83 L2215.73 1320.86 Q2217.25 1318.52 2219.31 1317.36 Q2221.4 1316.2 2224.11 1316.2 Q2228.57 1316.2 2230.87 1318.98 Q2233.16 1321.74 2233.16 1327.11 Z" fill="#000000" fill-rule="nonzero" fill-opacity="1" /><path clip-path="url(#clip270)" d="M2258.71 1329.49 Q2258.71 1324.86 2256.79 1322.32 Q2254.89 1319.77 2251.44 1319.77 Q2248.02 1319.77 2246.1 1322.32 Q2244.2 1324.86 2244.2 1329.49 Q2244.2 1334.1 2246.1 1336.64 Q2248.02 1339.19 2251.44 1339.19 Q2254.89 1339.19 2256.79 1336.64 Q2258.71 1334.1 2258.71 1329.49 M2262.97 1339.54 Q2262.97 1346.16 2260.03 1349.38 Q2257.09 1352.62 2251.03 1352.62 Q2248.78 1352.62 2246.79 1352.27 Q2244.8 1351.95 2242.93 1351.25 L2242.93 1347.11 Q2244.8 1348.13 2246.63 1348.61 Q2248.46 1349.1 2250.36 1349.1 Q2254.55 1349.1 2256.63 1346.9 Q2258.71 1344.72 2258.71 1340.3 L2258.71 1338.2 Q2257.39 1340.49 2255.33 1341.62 Q2253.27 1342.76 2250.4 1342.76 Q2245.63 1342.76 2242.72 1339.12 Q2239.8 1335.49 2239.8 1329.49 Q2239.8 1323.47 2242.72 1319.84 Q2245.63 1316.2 2250.4 1316.2 Q2253.27 1316.2 2255.33 1317.34 Q2257.39 1318.47 2258.71 1320.76 L2258.71 1316.83 L2262.97 1316.83 L2262.97 1339.54 Z" fill="#000000" fill-rule="nonzero" fill-opacity="1" /></svg>
