<?xml version="1.0" encoding="utf-8"?>
<svg xmlns="http://www.w3.org/2000/svg" xmlns:xlink="http://www.w3.org/1999/xlink" width="600" height="400" viewBox="0 0 2400 1600">
<defs>
  <clipPath id="clip220">
    <rect x="0" y="0" width="2400" height="1600"/>
  </clipPath>
</defs>
<path clip-path="url(#clip220)" d="M0 1600 L2400 1600 L2400 0 L0 0  Z" fill="#ffffff" fill-rule="evenodd" fill-opacity="1"/>
<defs>
  <clipPath id="clip221">
    <rect x="332" y="47" width="2021" height="1377"/>
  </clipPath>
</defs>
<path clip-path="url(#clip220)" d="M332.62 1423.18 L2352.76 1423.18 L2352.76 47.2441 L332.62 47.2441  Z" fill="#ffffff" fill-rule="evenodd" fill-opacity="1"/>
<polyline clip-path="url(#clip221)" style="stroke:#000000; stroke-linecap:round; stroke-linejoin:round; stroke-width:2; stroke-opacity:0.1; fill:none" points="347.423,1423.18 347.423,47.2441 "/>
<polyline clip-path="url(#clip221)" style="stroke:#000000; stroke-linecap:round; stroke-linejoin:round; stroke-width:2; stroke-opacity:0.1; fill:none" points="1013.72,1423.18 1013.72,47.2441 "/>
<polyline clip-path="url(#clip221)" style="stroke:#000000; stroke-linecap:round; stroke-linejoin:round; stroke-width:2; stroke-opacity:0.1; fill:none" points="1680.01,1423.18 1680.01,47.2441 "/>
<polyline clip-path="url(#clip221)" style="stroke:#000000; stroke-linecap:round; stroke-linejoin:round; stroke-width:2; stroke-opacity:0.1; fill:none" points="2346.31,1423.18 2346.31,47.2441 "/>
<polyline clip-path="url(#clip221)" style="stroke:#000000; stroke-linecap:round; stroke-linejoin:round; stroke-width:2; stroke-opacity:0.1; fill:none" points="332.62,1265.39 2352.76,1265.39 "/>
<polyline clip-path="url(#clip221)" style="stroke:#000000; stroke-linecap:round; stroke-linejoin:round; stroke-width:2; stroke-opacity:0.1; fill:none" points="332.62,1017.8 2352.76,1017.8 "/>
<polyline clip-path="url(#clip221)" style="stroke:#000000; stroke-linecap:round; stroke-linejoin:round; stroke-width:2; stroke-opacity:0.1; fill:none" points="332.62,770.217 2352.76,770.217 "/>
<polyline clip-path="url(#clip221)" style="stroke:#000000; stroke-linecap:round; stroke-linejoin:round; stroke-width:2; stroke-opacity:0.1; fill:none" points="332.62,522.632 2352.76,522.632 "/>
<polyline clip-path="url(#clip221)" style="stroke:#000000; stroke-linecap:round; stroke-linejoin:round; stroke-width:2; stroke-opacity:0.1; fill:none" points="332.62,275.047 2352.76,275.047 "/>
<polyline clip-path="url(#clip220)" style="stroke:#000000; stroke-linecap:round; stroke-linejoin:round; stroke-width:4; stroke-opacity:1; fill:none" points="332.62,1423.18 2352.76,1423.18 "/>
<polyline clip-path="url(#clip220)" style="stroke:#000000; stroke-linecap:round; stroke-linejoin:round; stroke-width:4; stroke-opacity:1; fill:none" points="347.423,1423.18 347.423,1404.28 "/>
<polyline clip-path="url(#clip220)" style="stroke:#000000; stroke-linecap:round; stroke-linejoin:round; stroke-width:4; stroke-opacity:1; fill:none" points="1013.72,1423.18 1013.72,1404.28 "/>
<polyline clip-path="url(#clip220)" style="stroke:#000000; stroke-linecap:round; stroke-linejoin:round; stroke-width:4; stroke-opacity:1; fill:none" points="1680.01,1423.18 1680.01,1404.28 "/>
<polyline clip-path="url(#clip220)" style="stroke:#000000; stroke-linecap:round; stroke-linejoin:round; stroke-width:4; stroke-opacity:1; fill:none" points="2346.31,1423.18 2346.31,1404.28 "/>
<path clip-path="url(#clip220)" d="M347.423 1454.1 Q343.812 1454.1 341.983 1457.66 Q340.178 1461.2 340.178 1468.33 Q340.178 1475.44 341.983 1479.01 Q343.812 1482.55 347.423 1482.55 Q351.057 1482.55 352.863 1479.01 Q354.692 1475.44 354.692 1468.33 Q354.692 1461.2 352.863 1457.66 Q351.057 1454.1 347.423 1454.1 M347.423 1450.39 Q353.233 1450.39 356.289 1455 Q359.368 1459.58 359.368 1468.33 Q359.368 1477.06 356.289 1481.67 Q353.233 1486.25 347.423 1486.25 Q341.613 1486.25 338.534 1481.67 Q335.479 1477.06 335.479 1468.33 Q335.479 1459.58 338.534 1455 Q341.613 1450.39 347.423 1450.39 Z" fill="#000000" fill-rule="nonzero" fill-opacity="1" /><path clip-path="url(#clip220)" d="M988.406 1481.64 L996.045 1481.64 L996.045 1455.28 L987.735 1456.95 L987.735 1452.69 L995.998 1451.02 L1000.67 1451.02 L1000.67 1481.64 L1008.31 1481.64 L1008.31 1485.58 L988.406 1485.58 L988.406 1481.64 Z" fill="#000000" fill-rule="nonzero" fill-opacity="1" /><path clip-path="url(#clip220)" d="M1027.76 1454.1 Q1024.15 1454.1 1022.32 1457.66 Q1020.51 1461.2 1020.51 1468.33 Q1020.51 1475.44 1022.32 1479.01 Q1024.15 1482.55 1027.76 1482.55 Q1031.39 1482.55 1033.2 1479.01 Q1035.03 1475.44 1035.03 1468.33 Q1035.03 1461.2 1033.2 1457.66 Q1031.39 1454.1 1027.76 1454.1 M1027.76 1450.39 Q1033.57 1450.39 1036.62 1455 Q1039.7 1459.58 1039.7 1468.33 Q1039.7 1477.06 1036.62 1481.67 Q1033.57 1486.25 1027.76 1486.25 Q1021.95 1486.25 1018.87 1481.67 Q1015.81 1477.06 1015.81 1468.33 Q1015.81 1459.58 1018.87 1455 Q1021.95 1450.39 1027.76 1450.39 Z" fill="#000000" fill-rule="nonzero" fill-opacity="1" /><path clip-path="url(#clip220)" d="M1658.79 1481.64 L1675.11 1481.64 L1675.11 1485.58 L1653.16 1485.58 L1653.16 1481.64 Q1655.82 1478.89 1660.41 1474.26 Q1665.01 1469.61 1666.19 1468.27 Q1668.44 1465.74 1669.32 1464.01 Q1670.22 1462.25 1670.22 1460.56 Q1670.22 1457.8 1668.28 1456.07 Q1666.36 1454.33 1663.25 1454.33 Q1661.06 1454.33 1658.6 1455.09 Q1656.17 1455.86 1653.39 1457.41 L1653.39 1452.69 Q1656.22 1451.55 1658.67 1450.97 Q1661.12 1450.39 1663.16 1450.39 Q1668.53 1450.39 1671.73 1453.08 Q1674.92 1455.77 1674.92 1460.26 Q1674.92 1462.39 1674.11 1464.31 Q1673.32 1466.2 1671.22 1468.8 Q1670.64 1469.47 1667.54 1472.69 Q1664.43 1475.88 1658.79 1481.64 Z" fill="#000000" fill-rule="nonzero" fill-opacity="1" /><path clip-path="url(#clip220)" d="M1694.92 1454.1 Q1691.31 1454.1 1689.48 1457.66 Q1687.68 1461.2 1687.68 1468.33 Q1687.68 1475.44 1689.48 1479.01 Q1691.31 1482.55 1694.92 1482.55 Q1698.55 1482.55 1700.36 1479.01 Q1702.19 1475.44 1702.19 1468.33 Q1702.19 1461.2 1700.36 1457.66 Q1698.55 1454.1 1694.92 1454.1 M1694.92 1450.39 Q1700.73 1450.39 1703.79 1455 Q1706.86 1459.58 1706.86 1468.33 Q1706.86 1477.06 1703.79 1481.67 Q1700.73 1486.25 1694.92 1486.25 Q1689.11 1486.25 1686.03 1481.67 Q1682.98 1477.06 1682.98 1468.33 Q1682.98 1459.58 1686.03 1455 Q1689.11 1450.39 1694.92 1450.39 Z" fill="#000000" fill-rule="nonzero" fill-opacity="1" /><path clip-path="url(#clip220)" d="M2335.15 1466.95 Q2338.51 1467.66 2340.38 1469.93 Q2342.28 1472.2 2342.28 1475.53 Q2342.28 1480.65 2338.76 1483.45 Q2335.24 1486.25 2328.76 1486.25 Q2326.59 1486.25 2324.27 1485.81 Q2321.98 1485.39 2319.53 1484.54 L2319.53 1480.02 Q2321.47 1481.16 2323.79 1481.74 Q2326.1 1482.32 2328.62 1482.32 Q2333.02 1482.32 2335.31 1480.58 Q2337.63 1478.84 2337.63 1475.53 Q2337.63 1472.48 2335.48 1470.77 Q2333.35 1469.03 2329.53 1469.03 L2325.5 1469.03 L2325.5 1465.19 L2329.71 1465.19 Q2333.16 1465.19 2334.99 1463.82 Q2336.82 1462.43 2336.82 1459.84 Q2336.82 1457.18 2334.92 1455.77 Q2333.04 1454.33 2329.53 1454.33 Q2327.6 1454.33 2325.41 1454.75 Q2323.21 1455.16 2320.57 1456.04 L2320.57 1451.88 Q2323.23 1451.14 2325.54 1450.77 Q2327.88 1450.39 2329.94 1450.39 Q2335.27 1450.39 2338.37 1452.83 Q2341.47 1455.23 2341.47 1459.35 Q2341.47 1462.22 2339.83 1464.21 Q2338.18 1466.18 2335.15 1466.95 Z" fill="#000000" fill-rule="nonzero" fill-opacity="1" /><path clip-path="url(#clip220)" d="M2361.15 1454.1 Q2357.54 1454.1 2355.71 1457.66 Q2353.9 1461.2 2353.9 1468.33 Q2353.9 1475.44 2355.71 1479.01 Q2357.54 1482.55 2361.15 1482.55 Q2364.78 1482.55 2366.59 1479.01 Q2368.41 1475.44 2368.41 1468.33 Q2368.41 1461.2 2366.59 1457.66 Q2364.78 1454.1 2361.15 1454.1 M2361.15 1450.39 Q2366.96 1450.39 2370.01 1455 Q2373.09 1459.58 2373.09 1468.33 Q2373.09 1477.06 2370.01 1481.67 Q2366.96 1486.25 2361.15 1486.25 Q2355.34 1486.25 2352.26 1481.67 Q2349.2 1477.06 2349.2 1468.33 Q2349.2 1459.58 2352.26 1455 Q2355.34 1450.39 2361.15 1450.39 Z" fill="#000000" fill-rule="nonzero" fill-opacity="1" /><path clip-path="url(#clip220)" d="M1013.77 1520.52 L1020.27 1520.52 L1030.26 1560.69 L1040.22 1520.52 L1047.45 1520.52 L1057.44 1560.69 L1067.4 1520.52 L1073.93 1520.52 L1061.99 1568.04 L1053.91 1568.04 L1043.88 1526.79 L1033.76 1568.04 L1025.68 1568.04 L1013.77 1520.52 Z" fill="#000000" fill-rule="nonzero" fill-opacity="1" /><path clip-path="url(#clip220)" d="M1094.23 1550.12 Q1087.14 1550.12 1084.4 1551.75 Q1081.66 1553.37 1081.66 1557.29 Q1081.66 1560.4 1083.7 1562.25 Q1085.77 1564.07 1089.3 1564.07 Q1094.17 1564.07 1097.1 1560.63 Q1100.06 1557.16 1100.06 1551.43 L1100.06 1550.12 L1094.23 1550.12 M1105.92 1547.71 L1105.92 1568.04 L1100.06 1568.04 L1100.06 1562.63 Q1098.05 1565.88 1095.06 1567.44 Q1092.07 1568.97 1087.74 1568.97 Q1082.27 1568.97 1079.02 1565.91 Q1075.81 1562.82 1075.81 1557.67 Q1075.81 1551.65 1079.82 1548.6 Q1083.86 1545.54 1091.85 1545.54 L1100.06 1545.54 L1100.06 1544.97 Q1100.06 1540.93 1097.39 1538.73 Q1094.74 1536.5 1089.94 1536.5 Q1086.88 1536.5 1083.99 1537.23 Q1081.09 1537.97 1078.42 1539.43 L1078.42 1534.02 Q1081.63 1532.78 1084.65 1532.17 Q1087.68 1531.54 1090.54 1531.54 Q1098.28 1531.54 1102.1 1535.55 Q1105.92 1539.56 1105.92 1547.71 Z" fill="#000000" fill-rule="nonzero" fill-opacity="1" /><path clip-path="url(#clip220)" d="M1117.98 1518.52 L1123.84 1518.52 L1123.84 1568.04 L1117.98 1568.04 L1117.98 1518.52 Z" fill="#000000" fill-rule="nonzero" fill-opacity="1" /><path clip-path="url(#clip220)" d="M1136.09 1518.52 L1141.95 1518.52 L1141.95 1568.04 L1136.09 1568.04 L1136.09 1518.52 Z" fill="#000000" fill-rule="nonzero" fill-opacity="1" /><path clip-path="url(#clip220)" d="M1179.85 1533.76 L1179.85 1539.24 Q1177.37 1537.87 1174.86 1537.2 Q1172.37 1536.5 1169.83 1536.5 Q1164.13 1536.5 1160.98 1540.13 Q1157.83 1543.73 1157.83 1550.25 Q1157.83 1556.78 1160.98 1560.4 Q1164.13 1564 1169.83 1564 Q1172.37 1564 1174.86 1563.33 Q1177.37 1562.63 1179.85 1561.26 L1179.85 1566.68 Q1177.4 1567.82 1174.76 1568.39 Q1172.15 1568.97 1169.19 1568.97 Q1161.14 1568.97 1156.4 1563.91 Q1151.65 1558.85 1151.65 1550.25 Q1151.65 1541.53 1156.43 1536.53 Q1161.23 1531.54 1169.57 1531.54 Q1172.28 1531.54 1174.86 1532.11 Q1177.43 1532.65 1179.85 1533.76 Z" fill="#000000" fill-rule="nonzero" fill-opacity="1" /><path clip-path="url(#clip220)" d="M1190.04 1518.52 L1195.89 1518.52 L1195.89 1568.04 L1190.04 1568.04 L1190.04 1518.52 Z" fill="#000000" fill-rule="nonzero" fill-opacity="1" /><path clip-path="url(#clip220)" d="M1221.96 1536.5 Q1217.25 1536.5 1214.51 1540.19 Q1211.78 1543.85 1211.78 1550.25 Q1211.78 1556.65 1214.48 1560.34 Q1217.22 1564 1221.96 1564 Q1226.64 1564 1229.38 1560.31 Q1232.12 1556.62 1232.12 1550.25 Q1232.12 1543.92 1229.38 1540.23 Q1226.64 1536.5 1221.96 1536.5 M1221.96 1531.54 Q1229.6 1531.54 1233.96 1536.5 Q1238.32 1541.47 1238.32 1550.25 Q1238.32 1559 1233.96 1564 Q1229.6 1568.97 1221.96 1568.97 Q1214.29 1568.97 1209.93 1564 Q1205.6 1559 1205.6 1550.25 Q1205.6 1541.47 1209.93 1536.5 Q1214.29 1531.54 1221.96 1531.54 Z" fill="#000000" fill-rule="nonzero" fill-opacity="1" /><path clip-path="url(#clip220)" d="M1273.68 1533.76 L1273.68 1539.24 Q1271.2 1537.87 1268.69 1537.2 Q1266.2 1536.5 1263.66 1536.5 Q1257.96 1536.5 1254.81 1540.13 Q1251.66 1543.73 1251.66 1550.25 Q1251.66 1556.78 1254.81 1560.4 Q1257.96 1564 1263.66 1564 Q1266.2 1564 1268.69 1563.33 Q1271.2 1562.63 1273.68 1561.26 L1273.68 1566.68 Q1271.23 1567.82 1268.59 1568.39 Q1265.98 1568.97 1263.02 1568.97 Q1254.97 1568.97 1250.23 1563.91 Q1245.48 1558.85 1245.48 1550.25 Q1245.48 1541.53 1250.26 1536.53 Q1255.06 1531.54 1263.4 1531.54 Q1266.11 1531.54 1268.69 1532.11 Q1271.26 1532.65 1273.68 1533.76 Z" fill="#000000" fill-rule="nonzero" fill-opacity="1" /><path clip-path="url(#clip220)" d="M1283.65 1518.52 L1289.53 1518.52 L1289.53 1547.77 L1307.01 1532.4 L1314.49 1532.4 L1295.58 1549.07 L1315.28 1568.04 L1307.64 1568.04 L1289.53 1550.63 L1289.53 1568.04 L1283.65 1568.04 L1283.65 1518.52 Z" fill="#000000" fill-rule="nonzero" fill-opacity="1" /><path clip-path="url(#clip220)" d="M1336 1520.52 L1376.2 1520.52 L1376.2 1525.93 L1359.33 1525.93 L1359.33 1568.04 L1352.87 1568.04 L1352.87 1525.93 L1336 1525.93 L1336 1520.52 Z" fill="#000000" fill-rule="nonzero" fill-opacity="1" /><path clip-path="url(#clip220)" d="M1380.15 1532.4 L1386.01 1532.4 L1386.01 1568.04 L1380.15 1568.04 L1380.15 1532.4 M1380.15 1518.52 L1386.01 1518.52 L1386.01 1525.93 L1380.15 1525.93 L1380.15 1518.52 Z" fill="#000000" fill-rule="nonzero" fill-opacity="1" /><path clip-path="url(#clip220)" d="M1426.02 1539.24 Q1428.21 1535.29 1431.27 1533.41 Q1434.32 1531.54 1438.46 1531.54 Q1444.03 1531.54 1447.05 1535.45 Q1450.08 1539.33 1450.08 1546.53 L1450.08 1568.04 L1444.19 1568.04 L1444.19 1546.72 Q1444.19 1541.59 1442.38 1539.11 Q1440.56 1536.63 1436.84 1536.63 Q1432.29 1536.63 1429.64 1539.65 Q1427 1542.68 1427 1547.9 L1427 1568.04 L1421.11 1568.04 L1421.11 1546.72 Q1421.11 1541.56 1419.3 1539.11 Q1417.49 1536.63 1413.7 1536.63 Q1409.21 1536.63 1406.57 1539.68 Q1403.93 1542.71 1403.93 1547.9 L1403.93 1568.04 L1398.04 1568.04 L1398.04 1532.4 L1403.93 1532.4 L1403.93 1537.93 Q1405.93 1534.66 1408.73 1533.1 Q1411.53 1531.54 1415.38 1531.54 Q1419.27 1531.54 1421.97 1533.51 Q1424.71 1535.48 1426.02 1539.24 Z" fill="#000000" fill-rule="nonzero" fill-opacity="1" /><path clip-path="url(#clip220)" d="M1492.25 1548.76 L1492.25 1551.62 L1465.32 1551.62 Q1465.71 1557.67 1468.95 1560.85 Q1472.23 1564 1478.05 1564 Q1481.43 1564 1484.58 1563.17 Q1487.76 1562.35 1490.88 1560.69 L1490.88 1566.23 Q1487.73 1567.57 1484.42 1568.27 Q1481.11 1568.97 1477.7 1568.97 Q1469.17 1568.97 1464.18 1564 Q1459.21 1559.04 1459.21 1550.57 Q1459.21 1541.82 1463.92 1536.69 Q1468.67 1531.54 1476.69 1531.54 Q1483.88 1531.54 1488.05 1536.18 Q1492.25 1540.8 1492.25 1548.76 M1486.39 1547.04 Q1486.33 1542.23 1483.69 1539.37 Q1481.08 1536.5 1476.75 1536.5 Q1471.85 1536.5 1468.89 1539.27 Q1465.96 1542.04 1465.51 1547.07 L1486.39 1547.04 Z" fill="#000000" fill-rule="nonzero" fill-opacity="1" /><path clip-path="url(#clip220)" d="M1536.65 1518.58 Q1532.39 1525.9 1530.32 1533.06 Q1528.25 1540.23 1528.25 1547.58 Q1528.25 1554.93 1530.32 1562.16 Q1532.42 1569.35 1536.65 1576.64 L1531.56 1576.64 Q1526.78 1569.16 1524.4 1561.93 Q1522.04 1554.71 1522.04 1547.58 Q1522.04 1540.48 1524.4 1533.29 Q1526.75 1526.09 1531.56 1518.58 L1536.65 1518.58 Z" fill="#000000" fill-rule="nonzero" fill-opacity="1" /><path clip-path="url(#clip220)" d="M1570.74 1533.45 L1570.74 1538.98 Q1568.26 1537.71 1565.58 1537.07 Q1562.91 1536.44 1560.05 1536.44 Q1555.68 1536.44 1553.49 1537.77 Q1551.32 1539.11 1551.32 1541.79 Q1551.32 1543.82 1552.88 1545 Q1554.44 1546.15 1559.15 1547.2 L1561.16 1547.64 Q1567.4 1548.98 1570.01 1551.43 Q1572.65 1553.85 1572.65 1558.21 Q1572.65 1563.17 1568.7 1566.07 Q1564.79 1568.97 1557.91 1568.97 Q1555.05 1568.97 1551.93 1568.39 Q1548.84 1567.85 1545.4 1566.74 L1545.4 1560.69 Q1548.65 1562.38 1551.8 1563.24 Q1554.95 1564.07 1558.04 1564.07 Q1562.18 1564.07 1564.41 1562.66 Q1566.63 1561.23 1566.63 1558.65 Q1566.63 1556.27 1565.01 1554.99 Q1563.42 1553.72 1557.98 1552.54 L1555.94 1552.07 Q1550.5 1550.92 1548.08 1548.56 Q1545.66 1546.18 1545.66 1542.04 Q1545.66 1537.01 1549.22 1534.27 Q1552.79 1531.54 1559.34 1531.54 Q1562.59 1531.54 1565.46 1532.01 Q1568.32 1532.49 1570.74 1533.45 Z" fill="#000000" fill-rule="nonzero" fill-opacity="1" /><path clip-path="url(#clip220)" d="M1612.47 1548.76 L1612.47 1551.62 L1585.54 1551.62 Q1585.92 1557.67 1589.17 1560.85 Q1592.45 1564 1598.27 1564 Q1601.65 1564 1604.8 1563.17 Q1607.98 1562.35 1611.1 1560.69 L1611.1 1566.23 Q1607.95 1567.57 1604.64 1568.27 Q1601.33 1568.97 1597.92 1568.97 Q1589.39 1568.97 1584.39 1564 Q1579.43 1559.04 1579.43 1550.57 Q1579.43 1541.82 1584.14 1536.69 Q1588.88 1531.54 1596.9 1531.54 Q1604.1 1531.54 1608.27 1536.18 Q1612.47 1540.8 1612.47 1548.76 M1606.61 1547.04 Q1606.55 1542.23 1603.9 1539.37 Q1601.29 1536.5 1596.97 1536.5 Q1592.06 1536.5 1589.1 1539.27 Q1586.18 1542.04 1585.73 1547.07 L1606.61 1547.04 Z" fill="#000000" fill-rule="nonzero" fill-opacity="1" /><path clip-path="url(#clip220)" d="M1647.73 1533.76 L1647.73 1539.24 Q1645.25 1537.87 1642.74 1537.2 Q1640.25 1536.5 1637.71 1536.5 Q1632.01 1536.5 1628.86 1540.13 Q1625.71 1543.73 1625.71 1550.25 Q1625.71 1556.78 1628.86 1560.4 Q1632.01 1564 1637.71 1564 Q1640.25 1564 1642.74 1563.33 Q1645.25 1562.63 1647.73 1561.26 L1647.73 1566.68 Q1645.28 1567.82 1642.64 1568.39 Q1640.03 1568.97 1637.07 1568.97 Q1629.02 1568.97 1624.28 1563.91 Q1619.53 1558.85 1619.53 1550.25 Q1619.53 1541.53 1624.31 1536.53 Q1629.11 1531.54 1637.45 1531.54 Q1640.16 1531.54 1642.74 1532.11 Q1645.31 1532.65 1647.73 1533.76 Z" fill="#000000" fill-rule="nonzero" fill-opacity="1" /><path clip-path="url(#clip220)" d="M1656.99 1518.58 L1662.09 1518.58 Q1666.86 1526.09 1669.22 1533.29 Q1671.6 1540.48 1671.6 1547.58 Q1671.6 1554.71 1669.22 1561.93 Q1666.86 1569.16 1662.09 1576.64 L1656.99 1576.64 Q1661.23 1569.35 1663.3 1562.16 Q1665.4 1554.93 1665.4 1547.58 Q1665.4 1540.23 1663.3 1533.06 Q1661.23 1525.9 1656.99 1518.58 Z" fill="#000000" fill-rule="nonzero" fill-opacity="1" /><polyline clip-path="url(#clip220)" style="stroke:#000000; stroke-linecap:round; stroke-linejoin:round; stroke-width:4; stroke-opacity:1; fill:none" points="332.62,1423.18 332.62,47.2441 "/>
<polyline clip-path="url(#clip220)" style="stroke:#000000; stroke-linecap:round; stroke-linejoin:round; stroke-width:4; stroke-opacity:1; fill:none" points="332.62,1265.39 351.518,1265.39 "/>
<polyline clip-path="url(#clip220)" style="stroke:#000000; stroke-linecap:round; stroke-linejoin:round; stroke-width:4; stroke-opacity:1; fill:none" points="332.62,1017.8 351.518,1017.8 "/>
<polyline clip-path="url(#clip220)" style="stroke:#000000; stroke-linecap:round; stroke-linejoin:round; stroke-width:4; stroke-opacity:1; fill:none" points="332.62,770.217 351.518,770.217 "/>
<polyline clip-path="url(#clip220)" style="stroke:#000000; stroke-linecap:round; stroke-linejoin:round; stroke-width:4; stroke-opacity:1; fill:none" points="332.62,522.632 351.518,522.632 "/>
<polyline clip-path="url(#clip220)" style="stroke:#000000; stroke-linecap:round; stroke-linejoin:round; stroke-width:4; stroke-opacity:1; fill:none" points="332.62,275.047 351.518,275.047 "/>
<path clip-path="url(#clip220)" d="M114.26 1265.84 L143.936 1265.84 L143.936 1269.77 L114.26 1269.77 L114.26 1265.84 Z" fill="#000000" fill-rule="nonzero" fill-opacity="1" /><path clip-path="url(#clip220)" d="M154.839 1278.73 L162.477 1278.73 L162.477 1252.37 L154.167 1254.03 L154.167 1249.77 L162.431 1248.11 L167.107 1248.11 L167.107 1278.73 L174.746 1278.73 L174.746 1282.67 L154.839 1282.67 L154.839 1278.73 Z" fill="#000000" fill-rule="nonzero" fill-opacity="1" /><path clip-path="url(#clip220)" d="M183.01 1248.11 L205.232 1248.11 L205.232 1250.1 L192.686 1282.67 L187.801 1282.67 L199.607 1252.04 L183.01 1252.04 L183.01 1248.11 Z" fill="#000000" fill-rule="nonzero" fill-opacity="1" /><path clip-path="url(#clip220)" d="M214.399 1248.11 L232.755 1248.11 L232.755 1252.04 L218.681 1252.04 L218.681 1260.51 Q219.699 1260.17 220.718 1260.01 Q221.736 1259.82 222.755 1259.82 Q228.542 1259.82 231.922 1262.99 Q235.301 1266.16 235.301 1271.58 Q235.301 1277.16 231.829 1280.26 Q228.357 1283.34 222.037 1283.34 Q219.861 1283.34 217.593 1282.97 Q215.348 1282.6 212.94 1281.86 L212.94 1277.16 Q215.024 1278.29 217.246 1278.85 Q219.468 1279.4 221.945 1279.4 Q225.949 1279.4 228.287 1277.3 Q230.625 1275.19 230.625 1271.58 Q230.625 1267.97 228.287 1265.86 Q225.949 1263.76 221.945 1263.76 Q220.07 1263.76 218.195 1264.17 Q216.343 1264.59 214.399 1265.47 L214.399 1248.11 Z" fill="#000000" fill-rule="nonzero" fill-opacity="1" /><path clip-path="url(#clip220)" d="M254.514 1251.19 Q250.903 1251.19 249.074 1254.75 Q247.269 1258.29 247.269 1265.42 Q247.269 1272.53 249.074 1276.09 Q250.903 1279.63 254.514 1279.63 Q258.148 1279.63 259.954 1276.09 Q261.783 1272.53 261.783 1265.42 Q261.783 1258.29 259.954 1254.75 Q258.148 1251.19 254.514 1251.19 M254.514 1247.48 Q260.324 1247.48 263.38 1252.09 Q266.458 1256.67 266.458 1265.42 Q266.458 1274.15 263.38 1278.75 Q260.324 1283.34 254.514 1283.34 Q248.704 1283.34 245.625 1278.75 Q242.57 1274.15 242.57 1265.42 Q242.57 1256.67 245.625 1252.09 Q248.704 1247.48 254.514 1247.48 Z" fill="#000000" fill-rule="nonzero" fill-opacity="1" /><path clip-path="url(#clip220)" d="M284.676 1251.19 Q281.065 1251.19 279.236 1254.75 Q277.431 1258.29 277.431 1265.42 Q277.431 1272.53 279.236 1276.09 Q281.065 1279.63 284.676 1279.63 Q288.31 1279.63 290.116 1276.09 Q291.944 1272.53 291.944 1265.42 Q291.944 1258.29 290.116 1254.75 Q288.31 1251.19 284.676 1251.19 M284.676 1247.48 Q290.486 1247.48 293.542 1252.09 Q296.62 1256.67 296.62 1265.42 Q296.62 1274.15 293.542 1278.75 Q290.486 1283.34 284.676 1283.34 Q278.866 1283.34 275.787 1278.75 Q272.732 1274.15 272.732 1265.42 Q272.732 1256.67 275.787 1252.09 Q278.866 1247.48 284.676 1247.48 Z" fill="#000000" fill-rule="nonzero" fill-opacity="1" /><path clip-path="url(#clip220)" d="M114.26 1018.25 L143.936 1018.25 L143.936 1022.19 L114.26 1022.19 L114.26 1018.25 Z" fill="#000000" fill-rule="nonzero" fill-opacity="1" /><path clip-path="url(#clip220)" d="M154.839 1031.15 L162.477 1031.15 L162.477 1004.78 L154.167 1006.45 L154.167 1002.19 L162.431 1000.52 L167.107 1000.52 L167.107 1031.15 L174.746 1031.15 L174.746 1035.08 L154.839 1035.08 L154.839 1031.15 Z" fill="#000000" fill-rule="nonzero" fill-opacity="1" /><path clip-path="url(#clip220)" d="M184.237 1000.52 L202.593 1000.52 L202.593 1004.46 L188.519 1004.46 L188.519 1012.93 Q189.538 1012.58 190.556 1012.42 Q191.575 1012.23 192.593 1012.23 Q198.38 1012.23 201.76 1015.41 Q205.139 1018.58 205.139 1023.99 Q205.139 1029.57 201.667 1032.67 Q198.195 1035.75 191.875 1035.75 Q189.7 1035.75 187.431 1035.38 Q185.186 1035.01 182.778 1034.27 L182.778 1029.57 Q184.862 1030.71 187.084 1031.26 Q189.306 1031.82 191.783 1031.82 Q195.787 1031.82 198.125 1029.71 Q200.463 1027.61 200.463 1023.99 Q200.463 1020.38 198.125 1018.28 Q195.787 1016.17 191.783 1016.17 Q189.908 1016.17 188.033 1016.59 Q186.181 1017 184.237 1017.88 L184.237 1000.52 Z" fill="#000000" fill-rule="nonzero" fill-opacity="1" /><path clip-path="url(#clip220)" d="M224.352 1003.6 Q220.741 1003.6 218.912 1007.17 Q217.107 1010.71 217.107 1017.84 Q217.107 1024.94 218.912 1028.51 Q220.741 1032.05 224.352 1032.05 Q227.986 1032.05 229.792 1028.51 Q231.621 1024.94 231.621 1017.84 Q231.621 1010.71 229.792 1007.17 Q227.986 1003.6 224.352 1003.6 M224.352 999.897 Q230.162 999.897 233.218 1004.5 Q236.297 1009.09 236.297 1017.84 Q236.297 1026.56 233.218 1031.17 Q230.162 1035.75 224.352 1035.75 Q218.542 1035.75 215.463 1031.17 Q212.408 1026.56 212.408 1017.84 Q212.408 1009.09 215.463 1004.5 Q218.542 999.897 224.352 999.897 Z" fill="#000000" fill-rule="nonzero" fill-opacity="1" /><path clip-path="url(#clip220)" d="M254.514 1003.6 Q250.903 1003.6 249.074 1007.17 Q247.269 1010.71 247.269 1017.84 Q247.269 1024.94 249.074 1028.51 Q250.903 1032.05 254.514 1032.05 Q258.148 1032.05 259.954 1028.51 Q261.783 1024.94 261.783 1017.84 Q261.783 1010.71 259.954 1007.17 Q258.148 1003.6 254.514 1003.6 M254.514 999.897 Q260.324 999.897 263.38 1004.5 Q266.458 1009.09 266.458 1017.84 Q266.458 1026.56 263.38 1031.17 Q260.324 1035.75 254.514 1035.75 Q248.704 1035.75 245.625 1031.17 Q242.57 1026.56 242.57 1017.84 Q242.57 1009.09 245.625 1004.5 Q248.704 999.897 254.514 999.897 Z" fill="#000000" fill-rule="nonzero" fill-opacity="1" /><path clip-path="url(#clip220)" d="M284.676 1003.6 Q281.065 1003.6 279.236 1007.17 Q277.431 1010.71 277.431 1017.84 Q277.431 1024.94 279.236 1028.51 Q281.065 1032.05 284.676 1032.05 Q288.31 1032.05 290.116 1028.51 Q291.944 1024.94 291.944 1017.84 Q291.944 1010.71 290.116 1007.17 Q288.31 1003.6 284.676 1003.6 M284.676 999.897 Q290.486 999.897 293.542 1004.5 Q296.62 1009.09 296.62 1017.84 Q296.62 1026.56 293.542 1031.17 Q290.486 1035.75 284.676 1035.75 Q278.866 1035.75 275.787 1031.17 Q272.732 1026.56 272.732 1017.84 Q272.732 1009.09 275.787 1004.5 Q278.866 999.897 284.676 999.897 Z" fill="#000000" fill-rule="nonzero" fill-opacity="1" /><path clip-path="url(#clip220)" d="M114.26 770.668 L143.936 770.668 L143.936 774.603 L114.26 774.603 L114.26 770.668 Z" fill="#000000" fill-rule="nonzero" fill-opacity="1" /><path clip-path="url(#clip220)" d="M154.839 783.562 L162.477 783.562 L162.477 757.196 L154.167 758.863 L154.167 754.603 L162.431 752.937 L167.107 752.937 L167.107 783.562 L174.746 783.562 L174.746 787.497 L154.839 787.497 L154.839 783.562 Z" fill="#000000" fill-rule="nonzero" fill-opacity="1" /><path clip-path="url(#clip220)" d="M188.218 783.562 L204.537 783.562 L204.537 787.497 L182.593 787.497 L182.593 783.562 Q185.255 780.807 189.838 776.177 Q194.445 771.525 195.625 770.182 Q197.871 767.659 198.75 765.923 Q199.653 764.164 199.653 762.474 Q199.653 759.719 197.709 757.983 Q195.787 756.247 192.686 756.247 Q190.487 756.247 188.033 757.011 Q185.602 757.775 182.825 759.326 L182.825 754.603 Q185.649 753.469 188.102 752.89 Q190.556 752.312 192.593 752.312 Q197.963 752.312 201.158 754.997 Q204.352 757.682 204.352 762.173 Q204.352 764.302 203.542 766.224 Q202.755 768.122 200.649 770.714 Q200.07 771.386 196.968 774.603 Q193.866 777.798 188.218 783.562 Z" fill="#000000" fill-rule="nonzero" fill-opacity="1" /><path clip-path="url(#clip220)" d="M214.399 752.937 L232.755 752.937 L232.755 756.872 L218.681 756.872 L218.681 765.344 Q219.699 764.997 220.718 764.835 Q221.736 764.65 222.755 764.65 Q228.542 764.65 231.922 767.821 Q235.301 770.992 235.301 776.409 Q235.301 781.988 231.829 785.089 Q228.357 788.168 222.037 788.168 Q219.861 788.168 217.593 787.798 Q215.348 787.427 212.94 786.687 L212.94 781.988 Q215.024 783.122 217.246 783.677 Q219.468 784.233 221.945 784.233 Q225.949 784.233 228.287 782.126 Q230.625 780.02 230.625 776.409 Q230.625 772.798 228.287 770.691 Q225.949 768.585 221.945 768.585 Q220.07 768.585 218.195 769.002 Q216.343 769.418 214.399 770.298 L214.399 752.937 Z" fill="#000000" fill-rule="nonzero" fill-opacity="1" /><path clip-path="url(#clip220)" d="M254.514 756.015 Q250.903 756.015 249.074 759.58 Q247.269 763.122 247.269 770.252 Q247.269 777.358 249.074 780.923 Q250.903 784.464 254.514 784.464 Q258.148 784.464 259.954 780.923 Q261.783 777.358 261.783 770.252 Q261.783 763.122 259.954 759.58 Q258.148 756.015 254.514 756.015 M254.514 752.312 Q260.324 752.312 263.38 756.918 Q266.458 761.502 266.458 770.252 Q266.458 778.978 263.38 783.585 Q260.324 788.168 254.514 788.168 Q248.704 788.168 245.625 783.585 Q242.57 778.978 242.57 770.252 Q242.57 761.502 245.625 756.918 Q248.704 752.312 254.514 752.312 Z" fill="#000000" fill-rule="nonzero" fill-opacity="1" /><path clip-path="url(#clip220)" d="M284.676 756.015 Q281.065 756.015 279.236 759.58 Q277.431 763.122 277.431 770.252 Q277.431 777.358 279.236 780.923 Q281.065 784.464 284.676 784.464 Q288.31 784.464 290.116 780.923 Q291.944 777.358 291.944 770.252 Q291.944 763.122 290.116 759.58 Q288.31 756.015 284.676 756.015 M284.676 752.312 Q290.486 752.312 293.542 756.918 Q296.62 761.502 296.62 770.252 Q296.62 778.978 293.542 783.585 Q290.486 788.168 284.676 788.168 Q278.866 788.168 275.787 783.585 Q272.732 778.978 272.732 770.252 Q272.732 761.502 275.787 756.918 Q278.866 752.312 284.676 752.312 Z" fill="#000000" fill-rule="nonzero" fill-opacity="1" /><path clip-path="url(#clip220)" d="M114.26 523.083 L143.936 523.083 L143.936 527.018 L114.26 527.018 L114.26 523.083 Z" fill="#000000" fill-rule="nonzero" fill-opacity="1" /><path clip-path="url(#clip220)" d="M154.839 535.977 L162.477 535.977 L162.477 509.611 L154.167 511.278 L154.167 507.018 L162.431 505.352 L167.107 505.352 L167.107 535.977 L174.746 535.977 L174.746 539.912 L154.839 539.912 L154.839 535.977 Z" fill="#000000" fill-rule="nonzero" fill-opacity="1" /><path clip-path="url(#clip220)" d="M194.19 508.43 Q190.579 508.43 188.75 511.995 Q186.945 515.537 186.945 522.666 Q186.945 529.773 188.75 533.338 Q190.579 536.879 194.19 536.879 Q197.825 536.879 199.63 533.338 Q201.459 529.773 201.459 522.666 Q201.459 515.537 199.63 511.995 Q197.825 508.43 194.19 508.43 M194.19 504.727 Q200 504.727 203.056 509.333 Q206.135 513.916 206.135 522.666 Q206.135 531.393 203.056 536 Q200 540.583 194.19 540.583 Q188.38 540.583 185.301 536 Q182.246 531.393 182.246 522.666 Q182.246 513.916 185.301 509.333 Q188.38 504.727 194.19 504.727 Z" fill="#000000" fill-rule="nonzero" fill-opacity="1" /><path clip-path="url(#clip220)" d="M224.352 508.43 Q220.741 508.43 218.912 511.995 Q217.107 515.537 217.107 522.666 Q217.107 529.773 218.912 533.338 Q220.741 536.879 224.352 536.879 Q227.986 536.879 229.792 533.338 Q231.621 529.773 231.621 522.666 Q231.621 515.537 229.792 511.995 Q227.986 508.43 224.352 508.43 M224.352 504.727 Q230.162 504.727 233.218 509.333 Q236.297 513.916 236.297 522.666 Q236.297 531.393 233.218 536 Q230.162 540.583 224.352 540.583 Q218.542 540.583 215.463 536 Q212.408 531.393 212.408 522.666 Q212.408 513.916 215.463 509.333 Q218.542 504.727 224.352 504.727 Z" fill="#000000" fill-rule="nonzero" fill-opacity="1" /><path clip-path="url(#clip220)" d="M254.514 508.43 Q250.903 508.43 249.074 511.995 Q247.269 515.537 247.269 522.666 Q247.269 529.773 249.074 533.338 Q250.903 536.879 254.514 536.879 Q258.148 536.879 259.954 533.338 Q261.783 529.773 261.783 522.666 Q261.783 515.537 259.954 511.995 Q258.148 508.43 254.514 508.43 M254.514 504.727 Q260.324 504.727 263.38 509.333 Q266.458 513.916 266.458 522.666 Q266.458 531.393 263.38 536 Q260.324 540.583 254.514 540.583 Q248.704 540.583 245.625 536 Q242.57 531.393 242.57 522.666 Q242.57 513.916 245.625 509.333 Q248.704 504.727 254.514 504.727 Z" fill="#000000" fill-rule="nonzero" fill-opacity="1" /><path clip-path="url(#clip220)" d="M284.676 508.43 Q281.065 508.43 279.236 511.995 Q277.431 515.537 277.431 522.666 Q277.431 529.773 279.236 533.338 Q281.065 536.879 284.676 536.879 Q288.31 536.879 290.116 533.338 Q291.944 529.773 291.944 522.666 Q291.944 515.537 290.116 511.995 Q288.31 508.43 284.676 508.43 M284.676 504.727 Q290.486 504.727 293.542 509.333 Q296.62 513.916 296.62 522.666 Q296.62 531.393 293.542 536 Q290.486 540.583 284.676 540.583 Q278.866 540.583 275.787 536 Q272.732 531.393 272.732 522.666 Q272.732 513.916 275.787 509.333 Q278.866 504.727 284.676 504.727 Z" fill="#000000" fill-rule="nonzero" fill-opacity="1" /><path clip-path="url(#clip220)" d="M144.422 275.498 L174.098 275.498 L174.098 279.433 L144.422 279.433 L144.422 275.498 Z" fill="#000000" fill-rule="nonzero" fill-opacity="1" /><path clip-path="url(#clip220)" d="M183.01 257.767 L205.232 257.767 L205.232 259.757 L192.686 292.327 L187.801 292.327 L199.607 261.702 L183.01 261.702 L183.01 257.767 Z" fill="#000000" fill-rule="nonzero" fill-opacity="1" /><path clip-path="url(#clip220)" d="M214.399 257.767 L232.755 257.767 L232.755 261.702 L218.681 261.702 L218.681 270.174 Q219.699 269.827 220.718 269.665 Q221.736 269.48 222.755 269.48 Q228.542 269.48 231.922 272.651 Q235.301 275.822 235.301 281.239 Q235.301 286.817 231.829 289.919 Q228.357 292.998 222.037 292.998 Q219.861 292.998 217.593 292.628 Q215.348 292.257 212.94 291.516 L212.94 286.817 Q215.024 287.952 217.246 288.507 Q219.468 289.063 221.945 289.063 Q225.949 289.063 228.287 286.956 Q230.625 284.85 230.625 281.239 Q230.625 277.628 228.287 275.521 Q225.949 273.415 221.945 273.415 Q220.07 273.415 218.195 273.831 Q216.343 274.248 214.399 275.128 L214.399 257.767 Z" fill="#000000" fill-rule="nonzero" fill-opacity="1" /><path clip-path="url(#clip220)" d="M254.514 260.845 Q250.903 260.845 249.074 264.41 Q247.269 267.952 247.269 275.081 Q247.269 282.188 249.074 285.753 Q250.903 289.294 254.514 289.294 Q258.148 289.294 259.954 285.753 Q261.783 282.188 261.783 275.081 Q261.783 267.952 259.954 264.41 Q258.148 260.845 254.514 260.845 M254.514 257.142 Q260.324 257.142 263.38 261.748 Q266.458 266.331 266.458 275.081 Q266.458 283.808 263.38 288.415 Q260.324 292.998 254.514 292.998 Q248.704 292.998 245.625 288.415 Q242.57 283.808 242.57 275.081 Q242.57 266.331 245.625 261.748 Q248.704 257.142 254.514 257.142 Z" fill="#000000" fill-rule="nonzero" fill-opacity="1" /><path clip-path="url(#clip220)" d="M284.676 260.845 Q281.065 260.845 279.236 264.41 Q277.431 267.952 277.431 275.081 Q277.431 282.188 279.236 285.753 Q281.065 289.294 284.676 289.294 Q288.31 289.294 290.116 285.753 Q291.944 282.188 291.944 275.081 Q291.944 267.952 290.116 264.41 Q288.31 260.845 284.676 260.845 M284.676 257.142 Q290.486 257.142 293.542 261.748 Q296.62 266.331 296.62 275.081 Q296.62 283.808 293.542 288.415 Q290.486 292.998 284.676 292.998 Q278.866 292.998 275.787 288.415 Q272.732 283.808 272.732 275.081 Q272.732 266.331 275.787 261.748 Q278.866 257.142 284.676 257.142 Z" fill="#000000" fill-rule="nonzero" fill-opacity="1" /><path clip-path="url(#clip220)" d="M16.4842 816.375 L16.4842 786.329 L21.895 786.329 L21.895 809.945 L35.9632 809.945 L35.9632 787.315 L41.3741 787.315 L41.3741 809.945 L58.5933 809.945 L58.5933 785.756 L64.0042 785.756 L64.0042 816.375 L16.4842 816.375 Z" fill="#000000" fill-rule="nonzero" fill-opacity="1" /><path clip-path="url(#clip220)" d="M16.4842 775.189 L16.4842 768.759 L58.5933 768.759 L58.5933 745.62 L64.0042 745.62 L64.0042 775.189 L16.4842 775.189 Z" fill="#000000" fill-rule="nonzero" fill-opacity="1" /><path clip-path="url(#clip220)" d="M41.3104 732.443 L58.7206 732.443 L58.7206 722.13 Q58.7206 716.942 56.5881 714.46 Q54.4238 711.945 49.9996 711.945 Q45.5436 711.945 43.4429 714.46 Q41.3104 716.942 41.3104 722.13 L41.3104 732.443 M21.7677 732.443 L36.0905 732.443 L36.0905 722.926 Q36.0905 718.216 34.34 715.924 Q32.5576 713.6 28.9291 713.6 Q25.3325 713.6 23.5501 715.924 Q21.7677 718.216 21.7677 722.926 L21.7677 732.443 M16.4842 738.872 L16.4842 722.449 Q16.4842 715.096 19.5397 711.118 Q22.5952 707.139 28.2289 707.139 Q32.5894 707.139 35.1675 709.176 Q37.7456 711.213 38.3822 715.16 Q39.4007 710.418 42.6472 707.808 Q45.8619 705.166 50.6998 705.166 Q57.0655 705.166 60.5348 709.495 Q64.0042 713.823 64.0042 721.812 L64.0042 738.872 L16.4842 738.872 Z" fill="#000000" fill-rule="nonzero" fill-opacity="1" /><path clip-path="url(#clip220)" d="M20.8447 676.011 Q20.8447 683.013 26.0645 687.151 Q31.2844 691.257 40.2919 691.257 Q49.2675 691.257 54.4874 687.151 Q59.7073 683.013 59.7073 676.011 Q59.7073 669.009 54.4874 664.935 Q49.2675 660.829 40.2919 660.829 Q31.2844 660.829 26.0645 664.935 Q20.8447 669.009 20.8447 676.011 M15.6248 676.011 Q15.6248 666.017 22.3406 660.033 Q29.0246 654.049 40.2919 654.049 Q51.5274 654.049 58.2432 660.033 Q64.9272 666.017 64.9272 676.011 Q64.9272 686.037 58.2432 692.052 Q51.5592 698.036 40.2919 698.036 Q29.0246 698.036 22.3406 692.052 Q15.6248 686.037 15.6248 676.011 Z" fill="#000000" fill-rule="nonzero" fill-opacity="1" /><polyline clip-path="url(#clip221)" style="stroke:#009af9; stroke-linecap:round; stroke-linejoin:round; stroke-width:4; stroke-opacity:1; fill:none" points="447.882,1384.24 513.763,1006.73 572.74,403.384 631.32,283.443 688.503,233.669 745.217,210.386 802.076,194.117 858.793,181.942 916.064,178.403 972.797,171.697 1029.61,165.986 1086.52,162.801 1143.51,161.817 1201.51,156.101 1259.92,154.674 1318.12,146.027 1377.09,141.789 1435.2,136.672 1492.95,132.603 1550.92,130.741 1653.47,122.178 1713.46,124.233 1772.59,117.463 1831.32,114.622 1890.74,111.838 1948.18,106.602 2005.68,102.875 2062.84,100.231 2120,94.856 2177.25,91.7632 2235.8,89.2582 2295.58,86.1857 "/>
<polyline clip-path="url(#clip221)" style="stroke:#e26f46; stroke-linecap:round; stroke-linejoin:round; stroke-width:4; stroke-opacity:1; fill:none" points="389.794,1372.51 416.035,816.802 424.821,464.042 433.514,339.351 442.585,273.831 451.849,223.966 460.914,218.884 469.837,210.799 478.634,195.978 487.666,181.6 496.421,178.659 505.206,173.234 514.272,170.097 522.996,167.089 531.674,161.69 540.701,155.81 549.445,155.282 558.408,152.927 567.107,148.656 575.831,144.245 584.791,138.965 593.474,137.429 602.148,135.944 611.135,130.693 619.829,127.823 628.456,121.192 637.399,119.511 646.115,117.837 654.751,113.658 663.754,112.339 672.422,108.097 681.051,106.403 "/>
<path clip-path="url(#clip220)" d="M1784.1 1377.32 L2285.42 1377.32 L2285.42 1221.8 L1784.1 1221.8  Z" fill="#ffffff" fill-rule="evenodd" fill-opacity="1"/>
<polyline clip-path="url(#clip220)" style="stroke:#000000; stroke-linecap:round; stroke-linejoin:round; stroke-width:4; stroke-opacity:1; fill:none" points="1784.1,1377.32 2285.42,1377.32 2285.42,1221.8 1784.1,1221.8 1784.1,1377.32 "/>
<polyline clip-path="url(#clip220)" style="stroke:#009af9; stroke-linecap:round; stroke-linejoin:round; stroke-width:4; stroke-opacity:1; fill:none" points="1806.55,1273.64 1941.22,1273.64 "/>
<path clip-path="url(#clip220)" d="M1963.67 1256.36 L1983.53 1256.36 L1983.53 1260.29 L1968.34 1260.29 L1968.34 1270.48 L1982.05 1270.48 L1982.05 1274.41 L1968.34 1274.41 L1968.34 1290.92 L1963.67 1290.92 L1963.67 1256.36 Z" fill="#000000" fill-rule="nonzero" fill-opacity="1" /><path clip-path="url(#clip220)" d="M1987.72 1280.68 L1987.72 1264.99 L1991.98 1264.99 L1991.98 1280.52 Q1991.98 1284.2 1993.41 1286.05 Q1994.85 1287.88 1997.72 1287.88 Q2001.17 1287.88 2003.16 1285.68 Q2005.17 1283.48 2005.17 1279.69 L2005.17 1264.99 L2009.43 1264.99 L2009.43 1290.92 L2005.17 1290.92 L2005.17 1286.93 Q2003.62 1289.29 2001.56 1290.45 Q1999.52 1291.59 1996.82 1291.59 Q1992.35 1291.59 1990.03 1288.81 Q1987.72 1286.03 1987.72 1280.68 M1998.44 1264.36 L1998.44 1264.36 Z" fill="#000000" fill-rule="nonzero" fill-opacity="1" /><path clip-path="url(#clip220)" d="M2018.2 1254.9 L2022.46 1254.9 L2022.46 1290.92 L2018.2 1290.92 L2018.2 1254.9 Z" fill="#000000" fill-rule="nonzero" fill-opacity="1" /><path clip-path="url(#clip220)" d="M2031.38 1254.9 L2035.64 1254.9 L2035.64 1290.92 L2031.38 1290.92 L2031.38 1254.9 Z" fill="#000000" fill-rule="nonzero" fill-opacity="1" /><path clip-path="url(#clip220)" d="M2064.48 1274.41 L2064.48 1287.07 L2071.98 1287.07 Q2075.75 1287.07 2077.56 1285.52 Q2079.39 1283.95 2079.39 1280.73 Q2079.39 1277.49 2077.56 1275.96 Q2075.75 1274.41 2071.98 1274.41 L2064.48 1274.41 M2064.48 1260.2 L2064.48 1270.61 L2071.4 1270.61 Q2074.82 1270.61 2076.49 1269.34 Q2078.18 1268.05 2078.18 1265.41 Q2078.18 1262.79 2076.49 1261.49 Q2074.82 1260.2 2071.4 1260.2 L2064.48 1260.2 M2059.8 1256.36 L2071.75 1256.36 Q2077.09 1256.36 2079.99 1258.58 Q2082.88 1260.8 2082.88 1264.9 Q2082.88 1268.07 2081.4 1269.94 Q2079.92 1271.82 2077.05 1272.28 Q2080.5 1273.02 2082.39 1275.38 Q2084.32 1277.72 2084.32 1281.24 Q2084.32 1285.87 2081.17 1288.39 Q2078.02 1290.92 2072.21 1290.92 L2059.8 1290.92 L2059.8 1256.36 Z" fill="#000000" fill-rule="nonzero" fill-opacity="1" /><path clip-path="url(#clip220)" d="M2103.92 1277.88 Q2098.76 1277.88 2096.77 1279.06 Q2094.78 1280.24 2094.78 1283.09 Q2094.78 1285.36 2096.26 1286.7 Q2097.76 1288.02 2100.33 1288.02 Q2103.88 1288.02 2106.01 1285.52 Q2108.16 1283 2108.16 1278.83 L2108.16 1277.88 L2103.92 1277.88 M2112.42 1276.12 L2112.42 1290.92 L2108.16 1290.92 L2108.16 1286.98 Q2106.7 1289.34 2104.52 1290.48 Q2102.35 1291.59 2099.2 1291.59 Q2095.22 1291.59 2092.86 1289.36 Q2090.52 1287.12 2090.52 1283.37 Q2090.52 1278.99 2093.44 1276.77 Q2096.38 1274.55 2102.19 1274.55 L2108.16 1274.55 L2108.16 1274.13 Q2108.16 1271.19 2106.21 1269.6 Q2104.29 1267.98 2100.8 1267.98 Q2098.57 1267.98 2096.47 1268.51 Q2094.36 1269.04 2092.42 1270.11 L2092.42 1266.17 Q2094.76 1265.27 2096.95 1264.83 Q2099.15 1264.36 2101.24 1264.36 Q2106.86 1264.36 2109.64 1267.28 Q2112.42 1270.2 2112.42 1276.12 Z" fill="#000000" fill-rule="nonzero" fill-opacity="1" /><path clip-path="url(#clip220)" d="M2125.4 1257.63 L2125.4 1264.99 L2134.18 1264.99 L2134.18 1268.3 L2125.4 1268.3 L2125.4 1282.37 Q2125.4 1285.54 2126.26 1286.45 Q2127.14 1287.35 2129.8 1287.35 L2134.18 1287.35 L2134.18 1290.92 L2129.8 1290.92 Q2124.87 1290.92 2123 1289.09 Q2121.12 1287.23 2121.12 1282.37 L2121.12 1268.3 L2118 1268.3 L2118 1264.99 L2121.12 1264.99 L2121.12 1257.63 L2125.4 1257.63 Z" fill="#000000" fill-rule="nonzero" fill-opacity="1" /><path clip-path="url(#clip220)" d="M2158.44 1265.98 L2158.44 1269.97 Q2156.63 1268.97 2154.8 1268.48 Q2153 1267.98 2151.14 1267.98 Q2147 1267.98 2144.71 1270.61 Q2142.42 1273.23 2142.42 1277.98 Q2142.42 1282.72 2144.71 1285.36 Q2147 1287.98 2151.14 1287.98 Q2153 1287.98 2154.8 1287.49 Q2156.63 1286.98 2158.44 1285.98 L2158.44 1289.92 Q2156.65 1290.75 2154.73 1291.17 Q2152.83 1291.59 2150.68 1291.59 Q2144.82 1291.59 2141.38 1287.91 Q2137.93 1284.23 2137.93 1277.98 Q2137.93 1271.63 2141.4 1268 Q2144.89 1264.36 2150.96 1264.36 Q2152.93 1264.36 2154.8 1264.78 Q2156.68 1265.17 2158.44 1265.98 Z" fill="#000000" fill-rule="nonzero" fill-opacity="1" /><path clip-path="url(#clip220)" d="M2187.39 1275.27 L2187.39 1290.92 L2183.13 1290.92 L2183.13 1275.41 Q2183.13 1271.73 2181.7 1269.9 Q2180.26 1268.07 2177.39 1268.07 Q2173.94 1268.07 2171.95 1270.27 Q2169.96 1272.47 2169.96 1276.26 L2169.96 1290.92 L2165.68 1290.92 L2165.68 1254.9 L2169.96 1254.9 L2169.96 1269.02 Q2171.49 1266.68 2173.55 1265.52 Q2175.63 1264.36 2178.34 1264.36 Q2182.81 1264.36 2185.1 1267.14 Q2187.39 1269.9 2187.39 1275.27 Z" fill="#000000" fill-rule="nonzero" fill-opacity="1" /><polyline clip-path="url(#clip220)" style="stroke:#e26f46; stroke-linecap:round; stroke-linejoin:round; stroke-width:4; stroke-opacity:1; fill:none" points="1806.55,1325.48 1941.22,1325.48 "/>
<path clip-path="url(#clip220)" d="M1985.91 1309.33 L1985.91 1313.89 Q1983.25 1312.62 1980.89 1311.99 Q1978.53 1311.37 1976.33 1311.37 Q1972.51 1311.37 1970.43 1312.85 Q1968.37 1314.33 1968.37 1317.06 Q1968.37 1319.35 1969.73 1320.53 Q1971.12 1321.69 1974.96 1322.41 L1977.79 1322.99 Q1983.02 1323.98 1985.5 1326.51 Q1988 1329.01 1988 1333.22 Q1988 1338.24 1984.62 1340.83 Q1981.26 1343.43 1974.76 1343.43 Q1972.3 1343.43 1969.52 1342.87 Q1966.77 1342.32 1963.81 1341.23 L1963.81 1336.41 Q1966.65 1338.01 1969.39 1338.82 Q1972.12 1339.63 1974.76 1339.63 Q1978.76 1339.63 1980.94 1338.06 Q1983.11 1336.48 1983.11 1333.57 Q1983.11 1331.02 1981.54 1329.58 Q1979.99 1328.15 1976.42 1327.43 L1973.58 1326.88 Q1968.34 1325.83 1966.01 1323.61 Q1963.67 1321.39 1963.67 1317.43 Q1963.67 1312.85 1966.89 1310.21 Q1970.13 1307.57 1975.8 1307.57 Q1978.23 1307.57 1980.75 1308.01 Q1983.27 1308.45 1985.91 1309.33 Z" fill="#000000" fill-rule="nonzero" fill-opacity="1" /><path clip-path="url(#clip220)" d="M1994.66 1332.52 L1994.66 1316.83 L1998.92 1316.83 L1998.92 1332.36 Q1998.92 1336.04 2000.36 1337.89 Q2001.79 1339.72 2004.66 1339.72 Q2008.11 1339.72 2010.1 1337.52 Q2012.12 1335.32 2012.12 1331.53 L2012.12 1316.83 L2016.38 1316.83 L2016.38 1342.76 L2012.12 1342.76 L2012.12 1338.77 Q2010.57 1341.13 2008.51 1342.29 Q2006.47 1343.43 2003.76 1343.43 Q1999.29 1343.43 1996.98 1340.65 Q1994.66 1337.87 1994.66 1332.52 M2005.38 1316.2 L2005.38 1316.2 Z" fill="#000000" fill-rule="nonzero" fill-opacity="1" /><path clip-path="url(#clip220)" d="M2043.76 1329.82 Q2043.76 1325.12 2041.82 1322.45 Q2039.89 1319.77 2036.51 1319.77 Q2033.14 1319.77 2031.19 1322.45 Q2029.27 1325.12 2029.27 1329.82 Q2029.27 1334.51 2031.19 1337.2 Q2033.14 1339.86 2036.51 1339.86 Q2039.89 1339.86 2041.82 1337.2 Q2043.76 1334.51 2043.76 1329.82 M2029.27 1320.76 Q2030.61 1318.45 2032.65 1317.34 Q2034.71 1316.2 2037.56 1316.2 Q2042.28 1316.2 2045.22 1319.95 Q2048.18 1323.7 2048.18 1329.82 Q2048.18 1335.93 2045.22 1339.68 Q2042.28 1343.43 2037.56 1343.43 Q2034.71 1343.43 2032.65 1342.32 Q2030.61 1341.18 2029.27 1338.87 L2029.27 1342.76 L2024.99 1342.76 L2024.99 1306.74 L2029.27 1306.74 L2029.27 1320.76 Z" fill="#000000" fill-rule="nonzero" fill-opacity="1" /><path clip-path="url(#clip220)" d="M2071.77 1317.59 L2071.77 1321.62 Q2069.96 1320.7 2068.02 1320.23 Q2066.08 1319.77 2063.99 1319.77 Q2060.82 1319.77 2059.22 1320.74 Q2057.65 1321.71 2057.65 1323.66 Q2057.65 1325.14 2058.78 1326 Q2059.92 1326.83 2063.34 1327.59 L2064.8 1327.92 Q2069.34 1328.89 2071.24 1330.67 Q2073.16 1332.43 2073.16 1335.6 Q2073.16 1339.21 2070.29 1341.32 Q2067.44 1343.43 2062.44 1343.43 Q2060.36 1343.43 2058.09 1343.01 Q2055.84 1342.62 2053.34 1341.81 L2053.34 1337.41 Q2055.7 1338.63 2058 1339.26 Q2060.29 1339.86 2062.53 1339.86 Q2065.54 1339.86 2067.16 1338.84 Q2068.78 1337.8 2068.78 1335.93 Q2068.78 1334.19 2067.6 1333.26 Q2066.45 1332.34 2062.49 1331.48 L2061.01 1331.14 Q2057.05 1330.3 2055.29 1328.59 Q2053.53 1326.85 2053.53 1323.84 Q2053.53 1320.19 2056.12 1318.2 Q2058.71 1316.2 2063.48 1316.2 Q2065.84 1316.2 2067.93 1316.55 Q2070.01 1316.9 2071.77 1317.59 Z" fill="#000000" fill-rule="nonzero" fill-opacity="1" /><path clip-path="url(#clip220)" d="M2091.72 1329.72 Q2086.56 1329.72 2084.57 1330.9 Q2082.58 1332.08 2082.58 1334.93 Q2082.58 1337.2 2084.06 1338.54 Q2085.57 1339.86 2088.14 1339.86 Q2091.68 1339.86 2093.81 1337.36 Q2095.96 1334.84 2095.96 1330.67 L2095.96 1329.72 L2091.72 1329.72 M2100.22 1327.96 L2100.22 1342.76 L2095.96 1342.76 L2095.96 1338.82 Q2094.5 1341.18 2092.32 1342.32 Q2090.15 1343.43 2087 1343.43 Q2083.02 1343.43 2080.66 1341.2 Q2078.32 1338.96 2078.32 1335.21 Q2078.32 1330.83 2081.24 1328.61 Q2084.18 1326.39 2089.99 1326.39 L2095.96 1326.39 L2095.96 1325.97 Q2095.96 1323.03 2094.01 1321.44 Q2092.09 1319.82 2088.6 1319.82 Q2086.38 1319.82 2084.27 1320.35 Q2082.16 1320.88 2080.22 1321.95 L2080.22 1318.01 Q2082.56 1317.11 2084.76 1316.67 Q2086.95 1316.2 2089.04 1316.2 Q2094.66 1316.2 2097.44 1319.12 Q2100.22 1322.04 2100.22 1327.96 Z" fill="#000000" fill-rule="nonzero" fill-opacity="1" /><path clip-path="url(#clip220)" d="M2129.18 1321.81 Q2130.77 1318.94 2133 1317.57 Q2135.22 1316.2 2138.23 1316.2 Q2142.28 1316.2 2144.48 1319.05 Q2146.68 1321.88 2146.68 1327.11 L2146.68 1342.76 L2142.39 1342.76 L2142.39 1327.25 Q2142.39 1323.52 2141.07 1321.71 Q2139.76 1319.91 2137.05 1319.91 Q2133.74 1319.91 2131.82 1322.11 Q2129.89 1324.31 2129.89 1328.1 L2129.89 1342.76 L2125.61 1342.76 L2125.61 1327.25 Q2125.61 1323.5 2124.29 1321.71 Q2122.97 1319.91 2120.22 1319.91 Q2116.95 1319.91 2115.03 1322.13 Q2113.11 1324.33 2113.11 1328.1 L2113.11 1342.76 L2108.83 1342.76 L2108.83 1316.83 L2113.11 1316.83 L2113.11 1320.86 Q2114.57 1318.47 2116.61 1317.34 Q2118.64 1316.2 2121.45 1316.2 Q2124.27 1316.2 2126.24 1317.64 Q2128.23 1319.07 2129.18 1321.81 Z" fill="#000000" fill-rule="nonzero" fill-opacity="1" /><path clip-path="url(#clip220)" d="M2159.29 1338.87 L2159.29 1352.62 L2155.01 1352.62 L2155.01 1316.83 L2159.29 1316.83 L2159.29 1320.76 Q2160.63 1318.45 2162.67 1317.34 Q2164.73 1316.2 2167.58 1316.2 Q2172.3 1316.2 2175.24 1319.95 Q2178.2 1323.7 2178.2 1329.82 Q2178.2 1335.93 2175.24 1339.68 Q2172.3 1343.43 2167.58 1343.43 Q2164.73 1343.43 2162.67 1342.32 Q2160.63 1341.18 2159.29 1338.87 M2173.78 1329.82 Q2173.78 1325.12 2171.84 1322.45 Q2169.92 1319.77 2166.54 1319.77 Q2163.16 1319.77 2161.21 1322.45 Q2159.29 1325.12 2159.29 1329.82 Q2159.29 1334.51 2161.21 1337.2 Q2163.16 1339.86 2166.54 1339.86 Q2169.92 1339.86 2171.84 1337.2 Q2173.78 1334.51 2173.78 1329.82 Z" fill="#000000" fill-rule="nonzero" fill-opacity="1" /><path clip-path="url(#clip220)" d="M2185.26 1306.74 L2189.52 1306.74 L2189.52 1342.76 L2185.26 1342.76 L2185.26 1306.74 Z" fill="#000000" fill-rule="nonzero" fill-opacity="1" /><path clip-path="url(#clip220)" d="M2198.44 1316.83 L2202.69 1316.83 L2202.69 1342.76 L2198.44 1342.76 L2198.44 1316.83 M2198.44 1306.74 L2202.69 1306.74 L2202.69 1312.13 L2198.44 1312.13 L2198.44 1306.74 Z" fill="#000000" fill-rule="nonzero" fill-opacity="1" /><path clip-path="url(#clip220)" d="M2233.16 1327.11 L2233.16 1342.76 L2228.9 1342.76 L2228.9 1327.25 Q2228.9 1323.57 2227.46 1321.74 Q2226.03 1319.91 2223.16 1319.91 Q2219.71 1319.91 2217.72 1322.11 Q2215.73 1324.31 2215.73 1328.1 L2215.73 1342.76 L2211.44 1342.76 L2211.44 1316.83 L2215.73 1316.83 L2215.73 1320.86 Q2217.25 1318.52 2219.31 1317.36 Q2221.4 1316.2 2224.11 1316.2 Q2228.57 1316.2 2230.87 1318.98 Q2233.16 1321.74 2233.16 1327.11 Z" fill="#000000" fill-rule="nonzero" fill-opacity="1" /><path clip-path="url(#clip220)" d="M2258.71 1329.49 Q2258.71 1324.86 2256.79 1322.32 Q2254.89 1319.77 2251.44 1319.77 Q2248.02 1319.77 2246.1 1322.32 Q2244.2 1324.86 2244.2 1329.49 Q2244.2 1334.1 2246.1 1336.64 Q2248.02 1339.19 2251.44 1339.19 Q2254.89 1339.19 2256.79 1336.64 Q2258.71 1334.1 2258.71 1329.49 M2262.97 1339.54 Q2262.97 1346.16 2260.03 1349.38 Q2257.09 1352.62 2251.03 1352.62 Q2248.78 1352.62 2246.79 1352.27 Q2244.8 1351.95 2242.93 1351.25 L2242.93 1347.11 Q2244.8 1348.13 2246.63 1348.61 Q2248.46 1349.1 2250.36 1349.1 Q2254.55 1349.1 2256.63 1346.9 Q2258.71 1344.72 2258.71 1340.3 L2258.71 1338.2 Q2257.39 1340.49 2255.33 1341.62 Q2253.27 1342.76 2250.4 1342.76 Q2245.63 1342.76 2242.72 1339.12 Q2239.8 1335.49 2239.8 1329.49 Q2239.8 1323.47 2242.72 1319.84 Q2245.63 1316.2 2250.4 1316.2 Q2253.27 1316.2 2255.33 1317.34 Q2257.39 1318.47 2258.71 1320.76 L2258.71 1316.83 L2262.97 1316.83 L2262.97 1339.54 Z" fill="#000000" fill-rule="nonzero" fill-opacity="1" /></svg>
