<?xml version="1.0" encoding="utf-8"?>
<svg xmlns="http://www.w3.org/2000/svg" xmlns:xlink="http://www.w3.org/1999/xlink" width="600" height="400" viewBox="0 0 2400 1600">
<defs>
  <clipPath id="clip140">
    <rect x="0" y="0" width="2400" height="1600"/>
  </clipPath>
</defs>
<path clip-path="url(#clip140)" d="M0 1600 L2400 1600 L2400 0 L0 0  Z" fill="#ffffff" fill-rule="evenodd" fill-opacity="1"/>
<defs>
  <clipPath id="clip141">
    <rect x="302" y="47" width="2051" height="1377"/>
  </clipPath>
</defs>
<path clip-path="url(#clip140)" d="M332.62 1423.18 L2352.76 1423.18 L2352.76 47.2441 L332.62 47.2441  Z" fill="#ffffff" fill-rule="evenodd" fill-opacity="1"/>
<defs>
  <clipPath id="clip142">
    <rect x="332" y="47" width="2021" height="1377"/>
  </clipPath>
</defs>
<polyline clip-path="url(#clip142)" style="stroke:#000000; stroke-linecap:round; stroke-linejoin:round; stroke-width:2; stroke-opacity:0.1; fill:none" points="389.179,1423.18 389.179,47.2441 "/>
<polyline clip-path="url(#clip142)" style="stroke:#000000; stroke-linecap:round; stroke-linejoin:round; stroke-width:2; stroke-opacity:0.1; fill:none" points="1003.95,1423.18 1003.95,47.2441 "/>
<polyline clip-path="url(#clip142)" style="stroke:#000000; stroke-linecap:round; stroke-linejoin:round; stroke-width:2; stroke-opacity:0.1; fill:none" points="1618.72,1423.18 1618.72,47.2441 "/>
<polyline clip-path="url(#clip142)" style="stroke:#000000; stroke-linecap:round; stroke-linejoin:round; stroke-width:2; stroke-opacity:0.1; fill:none" points="2233.49,1423.18 2233.49,47.2441 "/>
<polyline clip-path="url(#clip142)" style="stroke:#000000; stroke-linecap:round; stroke-linejoin:round; stroke-width:2; stroke-opacity:0.1; fill:none" points="332.62,1255.63 2352.76,1255.63 "/>
<polyline clip-path="url(#clip142)" style="stroke:#000000; stroke-linecap:round; stroke-linejoin:round; stroke-width:2; stroke-opacity:0.1; fill:none" points="332.62,1010.66 2352.76,1010.66 "/>
<polyline clip-path="url(#clip142)" style="stroke:#000000; stroke-linecap:round; stroke-linejoin:round; stroke-width:2; stroke-opacity:0.1; fill:none" points="332.62,765.696 2352.76,765.696 "/>
<polyline clip-path="url(#clip142)" style="stroke:#000000; stroke-linecap:round; stroke-linejoin:round; stroke-width:2; stroke-opacity:0.1; fill:none" points="332.62,520.731 2352.76,520.731 "/>
<polyline clip-path="url(#clip142)" style="stroke:#000000; stroke-linecap:round; stroke-linejoin:round; stroke-width:2; stroke-opacity:0.1; fill:none" points="332.62,275.766 2352.76,275.766 "/>
<polyline clip-path="url(#clip140)" style="stroke:#000000; stroke-linecap:round; stroke-linejoin:round; stroke-width:4; stroke-opacity:1; fill:none" points="332.62,1423.18 2352.76,1423.18 "/>
<polyline clip-path="url(#clip140)" style="stroke:#000000; stroke-linecap:round; stroke-linejoin:round; stroke-width:4; stroke-opacity:1; fill:none" points="389.179,1423.18 389.179,1404.28 "/>
<polyline clip-path="url(#clip140)" style="stroke:#000000; stroke-linecap:round; stroke-linejoin:round; stroke-width:4; stroke-opacity:1; fill:none" points="1003.95,1423.18 1003.95,1404.28 "/>
<polyline clip-path="url(#clip140)" style="stroke:#000000; stroke-linecap:round; stroke-linejoin:round; stroke-width:4; stroke-opacity:1; fill:none" points="1618.72,1423.18 1618.72,1404.28 "/>
<polyline clip-path="url(#clip140)" style="stroke:#000000; stroke-linecap:round; stroke-linejoin:round; stroke-width:4; stroke-opacity:1; fill:none" points="2233.49,1423.18 2233.49,1404.28 "/>
<path clip-path="url(#clip140)" d="M389.179 1454.1 Q385.568 1454.1 383.739 1457.66 Q381.934 1461.2 381.934 1468.33 Q381.934 1475.44 383.739 1479.01 Q385.568 1482.55 389.179 1482.55 Q392.813 1482.55 394.619 1479.01 Q396.448 1475.44 396.448 1468.33 Q396.448 1461.2 394.619 1457.66 Q392.813 1454.1 389.179 1454.1 M389.179 1450.39 Q394.989 1450.39 398.045 1455 Q401.124 1459.58 401.124 1468.33 Q401.124 1477.06 398.045 1481.67 Q394.989 1486.25 389.179 1486.25 Q383.369 1486.25 380.29 1481.67 Q377.235 1477.06 377.235 1468.33 Q377.235 1459.58 380.29 1455 Q383.369 1450.39 389.179 1450.39 Z" fill="#000000" fill-rule="nonzero" fill-opacity="1" /><path clip-path="url(#clip140)" d="M948.475 1481.64 L956.114 1481.64 L956.114 1455.28 L947.804 1456.95 L947.804 1452.69 L956.068 1451.02 L960.744 1451.02 L960.744 1481.64 L968.383 1481.64 L968.383 1485.58 L948.475 1485.58 L948.475 1481.64 Z" fill="#000000" fill-rule="nonzero" fill-opacity="1" /><path clip-path="url(#clip140)" d="M987.827 1454.1 Q984.216 1454.1 982.387 1457.66 Q980.582 1461.2 980.582 1468.33 Q980.582 1475.44 982.387 1479.01 Q984.216 1482.55 987.827 1482.55 Q991.461 1482.55 993.267 1479.01 Q995.095 1475.44 995.095 1468.33 Q995.095 1461.2 993.267 1457.66 Q991.461 1454.1 987.827 1454.1 M987.827 1450.39 Q993.637 1450.39 996.693 1455 Q999.771 1459.58 999.771 1468.33 Q999.771 1477.06 996.693 1481.67 Q993.637 1486.25 987.827 1486.25 Q982.017 1486.25 978.938 1481.67 Q975.883 1477.06 975.883 1468.33 Q975.883 1459.58 978.938 1455 Q982.017 1450.39 987.827 1450.39 Z" fill="#000000" fill-rule="nonzero" fill-opacity="1" /><path clip-path="url(#clip140)" d="M1017.99 1454.1 Q1014.38 1454.1 1012.55 1457.66 Q1010.74 1461.2 1010.74 1468.33 Q1010.74 1475.44 1012.55 1479.01 Q1014.38 1482.55 1017.99 1482.55 Q1021.62 1482.55 1023.43 1479.01 Q1025.26 1475.44 1025.26 1468.33 Q1025.26 1461.2 1023.43 1457.66 Q1021.62 1454.1 1017.99 1454.1 M1017.99 1450.39 Q1023.8 1450.39 1026.85 1455 Q1029.93 1459.58 1029.93 1468.33 Q1029.93 1477.06 1026.85 1481.67 Q1023.8 1486.25 1017.99 1486.25 Q1012.18 1486.25 1009.1 1481.67 Q1006.04 1477.06 1006.04 1468.33 Q1006.04 1459.58 1009.1 1455 Q1012.18 1450.39 1017.99 1450.39 Z" fill="#000000" fill-rule="nonzero" fill-opacity="1" /><path clip-path="url(#clip140)" d="M1048.15 1454.1 Q1044.54 1454.1 1042.71 1457.66 Q1040.91 1461.2 1040.91 1468.33 Q1040.91 1475.44 1042.71 1479.01 Q1044.54 1482.55 1048.15 1482.55 Q1051.78 1482.55 1053.59 1479.01 Q1055.42 1475.44 1055.42 1468.33 Q1055.42 1461.2 1053.59 1457.66 Q1051.78 1454.1 1048.15 1454.1 M1048.15 1450.39 Q1053.96 1450.39 1057.02 1455 Q1060.1 1459.58 1060.1 1468.33 Q1060.1 1477.06 1057.02 1481.67 Q1053.96 1486.25 1048.15 1486.25 Q1042.34 1486.25 1039.26 1481.67 Q1036.21 1477.06 1036.21 1468.33 Q1036.21 1459.58 1039.26 1455 Q1042.34 1450.39 1048.15 1450.39 Z" fill="#000000" fill-rule="nonzero" fill-opacity="1" /><path clip-path="url(#clip140)" d="M1567.33 1481.64 L1583.65 1481.64 L1583.65 1485.58 L1561.71 1485.58 L1561.71 1481.64 Q1564.37 1478.89 1568.95 1474.26 Q1573.56 1469.61 1574.74 1468.27 Q1576.98 1465.74 1577.86 1464.01 Q1578.77 1462.25 1578.77 1460.56 Q1578.77 1457.8 1576.82 1456.07 Q1574.9 1454.33 1571.8 1454.33 Q1569.6 1454.33 1567.15 1455.09 Q1564.72 1455.86 1561.94 1457.41 L1561.94 1452.69 Q1564.76 1451.55 1567.22 1450.97 Q1569.67 1450.39 1571.71 1450.39 Q1577.08 1450.39 1580.27 1453.08 Q1583.47 1455.77 1583.47 1460.26 Q1583.47 1462.39 1582.66 1464.31 Q1581.87 1466.2 1579.76 1468.8 Q1579.18 1469.47 1576.08 1472.69 Q1572.98 1475.88 1567.33 1481.64 Z" fill="#000000" fill-rule="nonzero" fill-opacity="1" /><path clip-path="url(#clip140)" d="M1603.47 1454.1 Q1599.85 1454.1 1598.03 1457.66 Q1596.22 1461.2 1596.22 1468.33 Q1596.22 1475.44 1598.03 1479.01 Q1599.85 1482.55 1603.47 1482.55 Q1607.1 1482.55 1608.91 1479.01 Q1610.73 1475.44 1610.73 1468.33 Q1610.73 1461.2 1608.91 1457.66 Q1607.1 1454.1 1603.47 1454.1 M1603.47 1450.39 Q1609.28 1450.39 1612.33 1455 Q1615.41 1459.58 1615.41 1468.33 Q1615.41 1477.06 1612.33 1481.67 Q1609.28 1486.25 1603.47 1486.25 Q1597.66 1486.25 1594.58 1481.67 Q1591.52 1477.06 1591.52 1468.33 Q1591.52 1459.58 1594.58 1455 Q1597.66 1450.39 1603.47 1450.39 Z" fill="#000000" fill-rule="nonzero" fill-opacity="1" /><path clip-path="url(#clip140)" d="M1633.63 1454.1 Q1630.02 1454.1 1628.19 1457.66 Q1626.38 1461.2 1626.38 1468.33 Q1626.38 1475.44 1628.19 1479.01 Q1630.02 1482.55 1633.63 1482.55 Q1637.26 1482.55 1639.07 1479.01 Q1640.9 1475.44 1640.9 1468.33 Q1640.9 1461.2 1639.07 1457.66 Q1637.26 1454.1 1633.63 1454.1 M1633.63 1450.39 Q1639.44 1450.39 1642.49 1455 Q1645.57 1459.58 1645.57 1468.33 Q1645.57 1477.06 1642.49 1481.67 Q1639.44 1486.25 1633.63 1486.25 Q1627.82 1486.25 1624.74 1481.67 Q1621.68 1477.06 1621.68 1468.33 Q1621.68 1459.58 1624.74 1455 Q1627.82 1450.39 1633.63 1450.39 Z" fill="#000000" fill-rule="nonzero" fill-opacity="1" /><path clip-path="url(#clip140)" d="M1663.79 1454.1 Q1660.18 1454.1 1658.35 1457.66 Q1656.54 1461.2 1656.54 1468.33 Q1656.54 1475.44 1658.35 1479.01 Q1660.18 1482.55 1663.79 1482.55 Q1667.42 1482.55 1669.23 1479.01 Q1671.06 1475.44 1671.06 1468.33 Q1671.06 1461.2 1669.23 1457.66 Q1667.42 1454.1 1663.79 1454.1 M1663.79 1450.39 Q1669.6 1450.39 1672.65 1455 Q1675.73 1459.58 1675.73 1468.33 Q1675.73 1477.06 1672.65 1481.67 Q1669.6 1486.25 1663.79 1486.25 Q1657.98 1486.25 1654.9 1481.67 Q1651.84 1477.06 1651.84 1468.33 Q1651.84 1459.58 1654.9 1455 Q1657.98 1450.39 1663.79 1450.39 Z" fill="#000000" fill-rule="nonzero" fill-opacity="1" /><path clip-path="url(#clip140)" d="M2192.17 1466.95 Q2195.53 1467.66 2197.4 1469.93 Q2199.3 1472.2 2199.3 1475.53 Q2199.3 1480.65 2195.78 1483.45 Q2192.26 1486.25 2185.78 1486.25 Q2183.61 1486.25 2181.29 1485.81 Q2179 1485.39 2176.55 1484.54 L2176.55 1480.02 Q2178.49 1481.16 2180.81 1481.74 Q2183.12 1482.32 2185.64 1482.32 Q2190.04 1482.32 2192.33 1480.58 Q2194.65 1478.84 2194.65 1475.53 Q2194.65 1472.48 2192.5 1470.77 Q2190.37 1469.03 2186.55 1469.03 L2182.52 1469.03 L2182.52 1465.19 L2186.73 1465.19 Q2190.18 1465.19 2192.01 1463.82 Q2193.84 1462.43 2193.84 1459.84 Q2193.84 1457.18 2191.94 1455.77 Q2190.06 1454.33 2186.55 1454.33 Q2184.62 1454.33 2182.43 1454.75 Q2180.23 1455.16 2177.59 1456.04 L2177.59 1451.88 Q2180.25 1451.14 2182.56 1450.77 Q2184.9 1450.39 2186.96 1450.39 Q2192.29 1450.39 2195.39 1452.83 Q2198.49 1455.23 2198.49 1459.35 Q2198.49 1462.22 2196.85 1464.21 Q2195.2 1466.18 2192.17 1466.95 Z" fill="#000000" fill-rule="nonzero" fill-opacity="1" /><path clip-path="url(#clip140)" d="M2218.17 1454.1 Q2214.56 1454.1 2212.73 1457.66 Q2210.92 1461.2 2210.92 1468.33 Q2210.92 1475.44 2212.73 1479.01 Q2214.56 1482.55 2218.17 1482.55 Q2221.8 1482.55 2223.61 1479.01 Q2225.43 1475.44 2225.43 1468.33 Q2225.43 1461.2 2223.61 1457.66 Q2221.8 1454.1 2218.17 1454.1 M2218.17 1450.39 Q2223.98 1450.39 2227.03 1455 Q2230.11 1459.58 2230.11 1468.33 Q2230.11 1477.06 2227.03 1481.67 Q2223.98 1486.25 2218.17 1486.25 Q2212.36 1486.25 2209.28 1481.67 Q2206.22 1477.06 2206.22 1468.33 Q2206.22 1459.58 2209.28 1455 Q2212.36 1450.39 2218.17 1450.39 Z" fill="#000000" fill-rule="nonzero" fill-opacity="1" /><path clip-path="url(#clip140)" d="M2248.33 1454.1 Q2244.72 1454.1 2242.89 1457.66 Q2241.08 1461.2 2241.08 1468.33 Q2241.08 1475.44 2242.89 1479.01 Q2244.72 1482.55 2248.33 1482.55 Q2251.96 1482.55 2253.77 1479.01 Q2255.6 1475.44 2255.6 1468.33 Q2255.6 1461.2 2253.77 1457.66 Q2251.96 1454.1 2248.33 1454.1 M2248.33 1450.39 Q2254.14 1450.39 2257.19 1455 Q2260.27 1459.58 2260.27 1468.33 Q2260.27 1477.06 2257.19 1481.67 Q2254.14 1486.25 2248.33 1486.25 Q2242.52 1486.25 2239.44 1481.67 Q2236.38 1477.06 2236.38 1468.33 Q2236.38 1459.58 2239.44 1455 Q2242.52 1450.39 2248.33 1450.39 Z" fill="#000000" fill-rule="nonzero" fill-opacity="1" /><path clip-path="url(#clip140)" d="M2278.49 1454.1 Q2274.88 1454.1 2273.05 1457.66 Q2271.24 1461.2 2271.24 1468.33 Q2271.24 1475.44 2273.05 1479.01 Q2274.88 1482.55 2278.49 1482.55 Q2282.12 1482.55 2283.93 1479.01 Q2285.76 1475.44 2285.76 1468.33 Q2285.76 1461.2 2283.93 1457.66 Q2282.12 1454.1 2278.49 1454.1 M2278.49 1450.39 Q2284.3 1450.39 2287.36 1455 Q2290.43 1459.58 2290.43 1468.33 Q2290.43 1477.06 2287.36 1481.67 Q2284.3 1486.25 2278.49 1486.25 Q2272.68 1486.25 2269.6 1481.67 Q2266.55 1477.06 2266.55 1468.33 Q2266.55 1459.58 2269.6 1455 Q2272.68 1450.39 2278.49 1450.39 Z" fill="#000000" fill-rule="nonzero" fill-opacity="1" /><path clip-path="url(#clip140)" d="M1210.41 1520.52 L1216.84 1520.52 L1216.84 1568.04 L1210.41 1568.04 L1210.41 1520.52 Z" fill="#000000" fill-rule="nonzero" fill-opacity="1" /><path clip-path="url(#clip140)" d="M1235.17 1522.27 L1235.17 1532.4 L1247.23 1532.4 L1247.23 1536.95 L1235.17 1536.95 L1235.17 1556.3 Q1235.17 1560.66 1236.35 1561.9 Q1237.56 1563.14 1241.22 1563.14 L1247.23 1563.14 L1247.23 1568.04 L1241.22 1568.04 Q1234.44 1568.04 1231.86 1565.53 Q1229.28 1562.98 1229.28 1556.3 L1229.28 1536.95 L1224.99 1536.95 L1224.99 1532.4 L1229.28 1532.4 L1229.28 1522.27 L1235.17 1522.27 Z" fill="#000000" fill-rule="nonzero" fill-opacity="1" /><path clip-path="url(#clip140)" d="M1285.43 1548.76 L1285.43 1551.62 L1258.5 1551.62 Q1258.88 1557.67 1262.13 1560.85 Q1265.41 1564 1271.23 1564 Q1274.61 1564 1277.76 1563.17 Q1280.94 1562.35 1284.06 1560.69 L1284.06 1566.23 Q1280.91 1567.57 1277.6 1568.27 Q1274.29 1568.97 1270.88 1568.97 Q1262.35 1568.97 1257.36 1564 Q1252.39 1559.04 1252.39 1550.57 Q1252.39 1541.82 1257.1 1536.69 Q1261.84 1531.54 1269.86 1531.54 Q1277.06 1531.54 1281.23 1536.18 Q1285.43 1540.8 1285.43 1548.76 M1279.57 1547.04 Q1279.51 1542.23 1276.87 1539.37 Q1274.26 1536.5 1269.93 1536.5 Q1265.03 1536.5 1262.07 1539.27 Q1259.14 1542.04 1258.69 1547.07 L1279.57 1547.04 Z" fill="#000000" fill-rule="nonzero" fill-opacity="1" /><path clip-path="url(#clip140)" d="M1315.7 1537.87 Q1314.71 1537.3 1313.53 1537.04 Q1312.39 1536.76 1310.99 1536.76 Q1306.02 1536.76 1303.35 1540 Q1300.71 1543.22 1300.71 1549.27 L1300.71 1568.04 L1294.82 1568.04 L1294.82 1532.4 L1300.71 1532.4 L1300.71 1537.93 Q1302.55 1534.69 1305.51 1533.13 Q1308.47 1531.54 1312.71 1531.54 Q1313.31 1531.54 1314.04 1531.63 Q1314.77 1531.7 1315.67 1531.85 L1315.7 1537.87 Z" fill="#000000" fill-rule="nonzero" fill-opacity="1" /><path clip-path="url(#clip140)" d="M1338.04 1550.12 Q1330.94 1550.12 1328.21 1551.75 Q1325.47 1553.37 1325.47 1557.29 Q1325.47 1560.4 1327.51 1562.25 Q1329.57 1564.07 1333.11 1564.07 Q1337.98 1564.07 1340.91 1560.63 Q1343.87 1557.16 1343.87 1551.43 L1343.87 1550.12 L1338.04 1550.12 M1349.72 1547.71 L1349.72 1568.04 L1343.87 1568.04 L1343.87 1562.63 Q1341.86 1565.88 1338.87 1567.44 Q1335.88 1568.97 1331.55 1568.97 Q1326.07 1568.97 1322.83 1565.91 Q1319.61 1562.82 1319.61 1557.67 Q1319.61 1551.65 1323.62 1548.6 Q1327.67 1545.54 1335.65 1545.54 L1343.87 1545.54 L1343.87 1544.97 Q1343.87 1540.93 1341.19 1538.73 Q1338.55 1536.5 1333.74 1536.5 Q1330.69 1536.5 1327.79 1537.23 Q1324.9 1537.97 1322.22 1539.43 L1322.22 1534.02 Q1325.44 1532.78 1328.46 1532.17 Q1331.48 1531.54 1334.35 1531.54 Q1342.08 1531.54 1345.9 1535.55 Q1349.72 1539.56 1349.72 1547.71 Z" fill="#000000" fill-rule="nonzero" fill-opacity="1" /><path clip-path="url(#clip140)" d="M1367.58 1522.27 L1367.58 1532.4 L1379.64 1532.4 L1379.64 1536.95 L1367.58 1536.95 L1367.58 1556.3 Q1367.58 1560.66 1368.76 1561.9 Q1369.97 1563.14 1373.63 1563.14 L1379.64 1563.14 L1379.64 1568.04 L1373.63 1568.04 Q1366.85 1568.04 1364.27 1565.53 Q1361.69 1562.98 1361.69 1556.3 L1361.69 1536.95 L1357.39 1536.95 L1357.39 1532.4 L1361.69 1532.4 L1361.69 1522.27 L1367.58 1522.27 Z" fill="#000000" fill-rule="nonzero" fill-opacity="1" /><path clip-path="url(#clip140)" d="M1387.34 1532.4 L1393.2 1532.4 L1393.2 1568.04 L1387.34 1568.04 L1387.34 1532.4 M1387.34 1518.52 L1393.2 1518.52 L1393.2 1525.93 L1387.34 1525.93 L1387.34 1518.52 Z" fill="#000000" fill-rule="nonzero" fill-opacity="1" /><path clip-path="url(#clip140)" d="M1419.27 1536.5 Q1414.56 1536.5 1411.82 1540.19 Q1409.08 1543.85 1409.08 1550.25 Q1409.08 1556.65 1411.79 1560.34 Q1414.53 1564 1419.27 1564 Q1423.95 1564 1426.68 1560.31 Q1429.42 1556.62 1429.42 1550.25 Q1429.42 1543.92 1426.68 1540.23 Q1423.95 1536.5 1419.27 1536.5 M1419.27 1531.54 Q1426.91 1531.54 1431.27 1536.5 Q1435.63 1541.47 1435.63 1550.25 Q1435.63 1559 1431.27 1564 Q1426.91 1568.97 1419.27 1568.97 Q1411.6 1568.97 1407.24 1564 Q1402.91 1559 1402.91 1550.25 Q1402.91 1541.47 1407.24 1536.5 Q1411.6 1531.54 1419.27 1531.54 Z" fill="#000000" fill-rule="nonzero" fill-opacity="1" /><path clip-path="url(#clip140)" d="M1474.97 1546.53 L1474.97 1568.04 L1469.11 1568.04 L1469.11 1546.72 Q1469.11 1541.66 1467.14 1539.14 Q1465.16 1536.63 1461.22 1536.63 Q1456.48 1536.63 1453.74 1539.65 Q1451 1542.68 1451 1547.9 L1451 1568.04 L1445.11 1568.04 L1445.11 1532.4 L1451 1532.4 L1451 1537.93 Q1453.1 1534.72 1455.93 1533.13 Q1458.8 1531.54 1462.52 1531.54 Q1468.67 1531.54 1471.82 1535.36 Q1474.97 1539.14 1474.97 1546.53 Z" fill="#000000" fill-rule="nonzero" fill-opacity="1" /><polyline clip-path="url(#clip140)" style="stroke:#000000; stroke-linecap:round; stroke-linejoin:round; stroke-width:4; stroke-opacity:1; fill:none" points="332.62,1423.18 332.62,47.2441 "/>
<polyline clip-path="url(#clip140)" style="stroke:#000000; stroke-linecap:round; stroke-linejoin:round; stroke-width:4; stroke-opacity:1; fill:none" points="332.62,1255.63 351.518,1255.63 "/>
<polyline clip-path="url(#clip140)" style="stroke:#000000; stroke-linecap:round; stroke-linejoin:round; stroke-width:4; stroke-opacity:1; fill:none" points="332.62,1010.66 351.518,1010.66 "/>
<polyline clip-path="url(#clip140)" style="stroke:#000000; stroke-linecap:round; stroke-linejoin:round; stroke-width:4; stroke-opacity:1; fill:none" points="332.62,765.696 351.518,765.696 "/>
<polyline clip-path="url(#clip140)" style="stroke:#000000; stroke-linecap:round; stroke-linejoin:round; stroke-width:4; stroke-opacity:1; fill:none" points="332.62,520.731 351.518,520.731 "/>
<polyline clip-path="url(#clip140)" style="stroke:#000000; stroke-linecap:round; stroke-linejoin:round; stroke-width:4; stroke-opacity:1; fill:none" points="332.62,275.766 351.518,275.766 "/>
<path clip-path="url(#clip140)" d="M114.26 1256.08 L143.936 1256.08 L143.936 1260.01 L114.26 1260.01 L114.26 1256.08 Z" fill="#000000" fill-rule="nonzero" fill-opacity="1" /><path clip-path="url(#clip140)" d="M154.839 1268.97 L162.477 1268.97 L162.477 1242.61 L154.167 1244.27 L154.167 1240.01 L162.431 1238.35 L167.107 1238.35 L167.107 1268.97 L174.746 1268.97 L174.746 1272.91 L154.839 1272.91 L154.839 1268.97 Z" fill="#000000" fill-rule="nonzero" fill-opacity="1" /><path clip-path="url(#clip140)" d="M183.01 1238.35 L205.232 1238.35 L205.232 1240.34 L192.686 1272.91 L187.801 1272.91 L199.607 1242.28 L183.01 1242.28 L183.01 1238.35 Z" fill="#000000" fill-rule="nonzero" fill-opacity="1" /><path clip-path="url(#clip140)" d="M214.399 1238.35 L232.755 1238.35 L232.755 1242.28 L218.681 1242.28 L218.681 1250.75 Q219.699 1250.41 220.718 1250.24 Q221.736 1250.06 222.755 1250.06 Q228.542 1250.06 231.922 1253.23 Q235.301 1256.4 235.301 1261.82 Q235.301 1267.4 231.829 1270.5 Q228.357 1273.58 222.037 1273.58 Q219.861 1273.58 217.593 1273.21 Q215.348 1272.84 212.94 1272.1 L212.94 1267.4 Q215.024 1268.53 217.246 1269.09 Q219.468 1269.64 221.945 1269.64 Q225.949 1269.64 228.287 1267.54 Q230.625 1265.43 230.625 1261.82 Q230.625 1258.21 228.287 1256.1 Q225.949 1253.99 221.945 1253.99 Q220.07 1253.99 218.195 1254.41 Q216.343 1254.83 214.399 1255.71 L214.399 1238.35 Z" fill="#000000" fill-rule="nonzero" fill-opacity="1" /><path clip-path="url(#clip140)" d="M254.514 1241.43 Q250.903 1241.43 249.074 1244.99 Q247.269 1248.53 247.269 1255.66 Q247.269 1262.77 249.074 1266.33 Q250.903 1269.87 254.514 1269.87 Q258.148 1269.87 259.954 1266.33 Q261.783 1262.77 261.783 1255.66 Q261.783 1248.53 259.954 1244.99 Q258.148 1241.43 254.514 1241.43 M254.514 1237.72 Q260.324 1237.72 263.38 1242.33 Q266.458 1246.91 266.458 1255.66 Q266.458 1264.39 263.38 1268.99 Q260.324 1273.58 254.514 1273.58 Q248.704 1273.58 245.625 1268.99 Q242.57 1264.39 242.57 1255.66 Q242.57 1246.91 245.625 1242.33 Q248.704 1237.72 254.514 1237.72 Z" fill="#000000" fill-rule="nonzero" fill-opacity="1" /><path clip-path="url(#clip140)" d="M284.676 1241.43 Q281.065 1241.43 279.236 1244.99 Q277.431 1248.53 277.431 1255.66 Q277.431 1262.77 279.236 1266.33 Q281.065 1269.87 284.676 1269.87 Q288.31 1269.87 290.116 1266.33 Q291.944 1262.77 291.944 1255.66 Q291.944 1248.53 290.116 1244.99 Q288.31 1241.43 284.676 1241.43 M284.676 1237.72 Q290.486 1237.72 293.542 1242.33 Q296.62 1246.91 296.62 1255.66 Q296.62 1264.39 293.542 1268.99 Q290.486 1273.58 284.676 1273.58 Q278.866 1273.58 275.787 1268.99 Q272.732 1264.39 272.732 1255.66 Q272.732 1246.91 275.787 1242.33 Q278.866 1237.72 284.676 1237.72 Z" fill="#000000" fill-rule="nonzero" fill-opacity="1" /><path clip-path="url(#clip140)" d="M114.26 1011.11 L143.936 1011.11 L143.936 1015.05 L114.26 1015.05 L114.26 1011.11 Z" fill="#000000" fill-rule="nonzero" fill-opacity="1" /><path clip-path="url(#clip140)" d="M154.839 1024.01 L162.477 1024.01 L162.477 997.641 L154.167 999.307 L154.167 995.048 L162.431 993.382 L167.107 993.382 L167.107 1024.01 L174.746 1024.01 L174.746 1027.94 L154.839 1027.94 L154.839 1024.01 Z" fill="#000000" fill-rule="nonzero" fill-opacity="1" /><path clip-path="url(#clip140)" d="M184.237 993.382 L202.593 993.382 L202.593 997.317 L188.519 997.317 L188.519 1005.79 Q189.538 1005.44 190.556 1005.28 Q191.575 1005.09 192.593 1005.09 Q198.38 1005.09 201.76 1008.27 Q205.139 1011.44 205.139 1016.85 Q205.139 1022.43 201.667 1025.53 Q198.195 1028.61 191.875 1028.61 Q189.7 1028.61 187.431 1028.24 Q185.186 1027.87 182.778 1027.13 L182.778 1022.43 Q184.862 1023.57 187.084 1024.12 Q189.306 1024.68 191.783 1024.68 Q195.787 1024.68 198.125 1022.57 Q200.463 1020.46 200.463 1016.85 Q200.463 1013.24 198.125 1011.14 Q195.787 1009.03 191.783 1009.03 Q189.908 1009.03 188.033 1009.45 Q186.181 1009.86 184.237 1010.74 L184.237 993.382 Z" fill="#000000" fill-rule="nonzero" fill-opacity="1" /><path clip-path="url(#clip140)" d="M224.352 996.46 Q220.741 996.46 218.912 1000.03 Q217.107 1003.57 217.107 1010.7 Q217.107 1017.8 218.912 1021.37 Q220.741 1024.91 224.352 1024.91 Q227.986 1024.91 229.792 1021.37 Q231.621 1017.8 231.621 1010.7 Q231.621 1003.57 229.792 1000.03 Q227.986 996.46 224.352 996.46 M224.352 992.757 Q230.162 992.757 233.218 997.363 Q236.297 1001.95 236.297 1010.7 Q236.297 1019.42 233.218 1024.03 Q230.162 1028.61 224.352 1028.61 Q218.542 1028.61 215.463 1024.03 Q212.408 1019.42 212.408 1010.7 Q212.408 1001.95 215.463 997.363 Q218.542 992.757 224.352 992.757 Z" fill="#000000" fill-rule="nonzero" fill-opacity="1" /><path clip-path="url(#clip140)" d="M254.514 996.46 Q250.903 996.46 249.074 1000.03 Q247.269 1003.57 247.269 1010.7 Q247.269 1017.8 249.074 1021.37 Q250.903 1024.91 254.514 1024.91 Q258.148 1024.91 259.954 1021.37 Q261.783 1017.8 261.783 1010.7 Q261.783 1003.57 259.954 1000.03 Q258.148 996.46 254.514 996.46 M254.514 992.757 Q260.324 992.757 263.38 997.363 Q266.458 1001.95 266.458 1010.7 Q266.458 1019.42 263.38 1024.03 Q260.324 1028.61 254.514 1028.61 Q248.704 1028.61 245.625 1024.03 Q242.57 1019.42 242.57 1010.7 Q242.57 1001.95 245.625 997.363 Q248.704 992.757 254.514 992.757 Z" fill="#000000" fill-rule="nonzero" fill-opacity="1" /><path clip-path="url(#clip140)" d="M284.676 996.46 Q281.065 996.46 279.236 1000.03 Q277.431 1003.57 277.431 1010.7 Q277.431 1017.8 279.236 1021.37 Q281.065 1024.91 284.676 1024.91 Q288.31 1024.91 290.116 1021.37 Q291.944 1017.8 291.944 1010.7 Q291.944 1003.57 290.116 1000.03 Q288.31 996.46 284.676 996.46 M284.676 992.757 Q290.486 992.757 293.542 997.363 Q296.62 1001.95 296.62 1010.7 Q296.62 1019.42 293.542 1024.03 Q290.486 1028.61 284.676 1028.61 Q278.866 1028.61 275.787 1024.03 Q272.732 1019.42 272.732 1010.7 Q272.732 1001.95 275.787 997.363 Q278.866 992.757 284.676 992.757 Z" fill="#000000" fill-rule="nonzero" fill-opacity="1" /><path clip-path="url(#clip140)" d="M114.26 766.148 L143.936 766.148 L143.936 770.083 L114.26 770.083 L114.26 766.148 Z" fill="#000000" fill-rule="nonzero" fill-opacity="1" /><path clip-path="url(#clip140)" d="M154.839 779.041 L162.477 779.041 L162.477 752.676 L154.167 754.342 L154.167 750.083 L162.431 748.416 L167.107 748.416 L167.107 779.041 L174.746 779.041 L174.746 782.976 L154.839 782.976 L154.839 779.041 Z" fill="#000000" fill-rule="nonzero" fill-opacity="1" /><path clip-path="url(#clip140)" d="M188.218 779.041 L204.537 779.041 L204.537 782.976 L182.593 782.976 L182.593 779.041 Q185.255 776.286 189.838 771.657 Q194.445 767.004 195.625 765.662 Q197.871 763.138 198.75 761.402 Q199.653 759.643 199.653 757.953 Q199.653 755.199 197.709 753.463 Q195.787 751.726 192.686 751.726 Q190.487 751.726 188.033 752.49 Q185.602 753.254 182.825 754.805 L182.825 750.083 Q185.649 748.949 188.102 748.37 Q190.556 747.791 192.593 747.791 Q197.963 747.791 201.158 750.476 Q204.352 753.162 204.352 757.652 Q204.352 759.782 203.542 761.703 Q202.755 763.601 200.649 766.194 Q200.07 766.865 196.968 770.083 Q193.866 773.277 188.218 779.041 Z" fill="#000000" fill-rule="nonzero" fill-opacity="1" /><path clip-path="url(#clip140)" d="M214.399 748.416 L232.755 748.416 L232.755 752.351 L218.681 752.351 L218.681 760.824 Q219.699 760.476 220.718 760.314 Q221.736 760.129 222.755 760.129 Q228.542 760.129 231.922 763.3 Q235.301 766.472 235.301 771.888 Q235.301 777.467 231.829 780.569 Q228.357 783.648 222.037 783.648 Q219.861 783.648 217.593 783.277 Q215.348 782.907 212.94 782.166 L212.94 777.467 Q215.024 778.601 217.246 779.157 Q219.468 779.712 221.945 779.712 Q225.949 779.712 228.287 777.606 Q230.625 775.499 230.625 771.888 Q230.625 768.277 228.287 766.171 Q225.949 764.064 221.945 764.064 Q220.07 764.064 218.195 764.481 Q216.343 764.898 214.399 765.777 L214.399 748.416 Z" fill="#000000" fill-rule="nonzero" fill-opacity="1" /><path clip-path="url(#clip140)" d="M254.514 751.495 Q250.903 751.495 249.074 755.06 Q247.269 758.601 247.269 765.731 Q247.269 772.837 249.074 776.402 Q250.903 779.944 254.514 779.944 Q258.148 779.944 259.954 776.402 Q261.783 772.837 261.783 765.731 Q261.783 758.601 259.954 755.06 Q258.148 751.495 254.514 751.495 M254.514 747.791 Q260.324 747.791 263.38 752.398 Q266.458 756.981 266.458 765.731 Q266.458 774.458 263.38 779.064 Q260.324 783.648 254.514 783.648 Q248.704 783.648 245.625 779.064 Q242.57 774.458 242.57 765.731 Q242.57 756.981 245.625 752.398 Q248.704 747.791 254.514 747.791 Z" fill="#000000" fill-rule="nonzero" fill-opacity="1" /><path clip-path="url(#clip140)" d="M284.676 751.495 Q281.065 751.495 279.236 755.06 Q277.431 758.601 277.431 765.731 Q277.431 772.837 279.236 776.402 Q281.065 779.944 284.676 779.944 Q288.31 779.944 290.116 776.402 Q291.944 772.837 291.944 765.731 Q291.944 758.601 290.116 755.06 Q288.31 751.495 284.676 751.495 M284.676 747.791 Q290.486 747.791 293.542 752.398 Q296.62 756.981 296.62 765.731 Q296.62 774.458 293.542 779.064 Q290.486 783.648 284.676 783.648 Q278.866 783.648 275.787 779.064 Q272.732 774.458 272.732 765.731 Q272.732 756.981 275.787 752.398 Q278.866 747.791 284.676 747.791 Z" fill="#000000" fill-rule="nonzero" fill-opacity="1" /><path clip-path="url(#clip140)" d="M114.26 521.182 L143.936 521.182 L143.936 525.118 L114.26 525.118 L114.26 521.182 Z" fill="#000000" fill-rule="nonzero" fill-opacity="1" /><path clip-path="url(#clip140)" d="M154.839 534.076 L162.477 534.076 L162.477 507.71 L154.167 509.377 L154.167 505.118 L162.431 503.451 L167.107 503.451 L167.107 534.076 L174.746 534.076 L174.746 538.011 L154.839 538.011 L154.839 534.076 Z" fill="#000000" fill-rule="nonzero" fill-opacity="1" /><path clip-path="url(#clip140)" d="M194.19 506.53 Q190.579 506.53 188.75 510.095 Q186.945 513.636 186.945 520.766 Q186.945 527.872 188.75 531.437 Q190.579 534.979 194.19 534.979 Q197.825 534.979 199.63 531.437 Q201.459 527.872 201.459 520.766 Q201.459 513.636 199.63 510.095 Q197.825 506.53 194.19 506.53 M194.19 502.826 Q200 502.826 203.056 507.432 Q206.135 512.016 206.135 520.766 Q206.135 529.493 203.056 534.099 Q200 538.682 194.19 538.682 Q188.38 538.682 185.301 534.099 Q182.246 529.493 182.246 520.766 Q182.246 512.016 185.301 507.432 Q188.38 502.826 194.19 502.826 Z" fill="#000000" fill-rule="nonzero" fill-opacity="1" /><path clip-path="url(#clip140)" d="M224.352 506.53 Q220.741 506.53 218.912 510.095 Q217.107 513.636 217.107 520.766 Q217.107 527.872 218.912 531.437 Q220.741 534.979 224.352 534.979 Q227.986 534.979 229.792 531.437 Q231.621 527.872 231.621 520.766 Q231.621 513.636 229.792 510.095 Q227.986 506.53 224.352 506.53 M224.352 502.826 Q230.162 502.826 233.218 507.432 Q236.297 512.016 236.297 520.766 Q236.297 529.493 233.218 534.099 Q230.162 538.682 224.352 538.682 Q218.542 538.682 215.463 534.099 Q212.408 529.493 212.408 520.766 Q212.408 512.016 215.463 507.432 Q218.542 502.826 224.352 502.826 Z" fill="#000000" fill-rule="nonzero" fill-opacity="1" /><path clip-path="url(#clip140)" d="M254.514 506.53 Q250.903 506.53 249.074 510.095 Q247.269 513.636 247.269 520.766 Q247.269 527.872 249.074 531.437 Q250.903 534.979 254.514 534.979 Q258.148 534.979 259.954 531.437 Q261.783 527.872 261.783 520.766 Q261.783 513.636 259.954 510.095 Q258.148 506.53 254.514 506.53 M254.514 502.826 Q260.324 502.826 263.38 507.432 Q266.458 512.016 266.458 520.766 Q266.458 529.493 263.38 534.099 Q260.324 538.682 254.514 538.682 Q248.704 538.682 245.625 534.099 Q242.57 529.493 242.57 520.766 Q242.57 512.016 245.625 507.432 Q248.704 502.826 254.514 502.826 Z" fill="#000000" fill-rule="nonzero" fill-opacity="1" /><path clip-path="url(#clip140)" d="M284.676 506.53 Q281.065 506.53 279.236 510.095 Q277.431 513.636 277.431 520.766 Q277.431 527.872 279.236 531.437 Q281.065 534.979 284.676 534.979 Q288.31 534.979 290.116 531.437 Q291.944 527.872 291.944 520.766 Q291.944 513.636 290.116 510.095 Q288.31 506.53 284.676 506.53 M284.676 502.826 Q290.486 502.826 293.542 507.432 Q296.62 512.016 296.62 520.766 Q296.62 529.493 293.542 534.099 Q290.486 538.682 284.676 538.682 Q278.866 538.682 275.787 534.099 Q272.732 529.493 272.732 520.766 Q272.732 512.016 275.787 507.432 Q278.866 502.826 284.676 502.826 Z" fill="#000000" fill-rule="nonzero" fill-opacity="1" /><path clip-path="url(#clip140)" d="M144.422 276.217 L174.098 276.217 L174.098 280.152 L144.422 280.152 L144.422 276.217 Z" fill="#000000" fill-rule="nonzero" fill-opacity="1" /><path clip-path="url(#clip140)" d="M183.01 258.486 L205.232 258.486 L205.232 260.476 L192.686 293.046 L187.801 293.046 L199.607 262.421 L183.01 262.421 L183.01 258.486 Z" fill="#000000" fill-rule="nonzero" fill-opacity="1" /><path clip-path="url(#clip140)" d="M214.399 258.486 L232.755 258.486 L232.755 262.421 L218.681 262.421 L218.681 270.893 Q219.699 270.546 220.718 270.384 Q221.736 270.199 222.755 270.199 Q228.542 270.199 231.922 273.37 Q235.301 276.541 235.301 281.958 Q235.301 287.537 231.829 290.638 Q228.357 293.717 222.037 293.717 Q219.861 293.717 217.593 293.347 Q215.348 292.976 212.94 292.236 L212.94 287.537 Q215.024 288.671 217.246 289.226 Q219.468 289.782 221.945 289.782 Q225.949 289.782 228.287 287.675 Q230.625 285.569 230.625 281.958 Q230.625 278.347 228.287 276.24 Q225.949 274.134 221.945 274.134 Q220.07 274.134 218.195 274.55 Q216.343 274.967 214.399 275.847 L214.399 258.486 Z" fill="#000000" fill-rule="nonzero" fill-opacity="1" /><path clip-path="url(#clip140)" d="M254.514 261.564 Q250.903 261.564 249.074 265.129 Q247.269 268.671 247.269 275.8 Q247.269 282.907 249.074 286.472 Q250.903 290.013 254.514 290.013 Q258.148 290.013 259.954 286.472 Q261.783 282.907 261.783 275.8 Q261.783 268.671 259.954 265.129 Q258.148 261.564 254.514 261.564 M254.514 257.861 Q260.324 257.861 263.38 262.467 Q266.458 267.051 266.458 275.8 Q266.458 284.527 263.38 289.134 Q260.324 293.717 254.514 293.717 Q248.704 293.717 245.625 289.134 Q242.57 284.527 242.57 275.8 Q242.57 267.051 245.625 262.467 Q248.704 257.861 254.514 257.861 Z" fill="#000000" fill-rule="nonzero" fill-opacity="1" /><path clip-path="url(#clip140)" d="M284.676 261.564 Q281.065 261.564 279.236 265.129 Q277.431 268.671 277.431 275.8 Q277.431 282.907 279.236 286.472 Q281.065 290.013 284.676 290.013 Q288.31 290.013 290.116 286.472 Q291.944 282.907 291.944 275.8 Q291.944 268.671 290.116 265.129 Q288.31 261.564 284.676 261.564 M284.676 257.861 Q290.486 257.861 293.542 262.467 Q296.62 267.051 296.62 275.8 Q296.62 284.527 293.542 289.134 Q290.486 293.717 284.676 293.717 Q278.866 293.717 275.787 289.134 Q272.732 284.527 272.732 275.8 Q272.732 267.051 275.787 262.467 Q278.866 257.861 284.676 257.861 Z" fill="#000000" fill-rule="nonzero" fill-opacity="1" /><path clip-path="url(#clip140)" d="M16.4842 816.375 L16.4842 786.329 L21.895 786.329 L21.895 809.945 L35.9632 809.945 L35.9632 787.315 L41.3741 787.315 L41.3741 809.945 L58.5933 809.945 L58.5933 785.756 L64.0042 785.756 L64.0042 816.375 L16.4842 816.375 Z" fill="#000000" fill-rule="nonzero" fill-opacity="1" /><path clip-path="url(#clip140)" d="M16.4842 775.189 L16.4842 768.759 L58.5933 768.759 L58.5933 745.62 L64.0042 745.62 L64.0042 775.189 L16.4842 775.189 Z" fill="#000000" fill-rule="nonzero" fill-opacity="1" /><path clip-path="url(#clip140)" d="M41.3104 732.443 L58.7206 732.443 L58.7206 722.13 Q58.7206 716.942 56.5881 714.46 Q54.4238 711.945 49.9996 711.945 Q45.5436 711.945 43.4429 714.46 Q41.3104 716.942 41.3104 722.13 L41.3104 732.443 M21.7677 732.443 L36.0905 732.443 L36.0905 722.926 Q36.0905 718.216 34.34 715.924 Q32.5576 713.6 28.9291 713.6 Q25.3325 713.6 23.5501 715.924 Q21.7677 718.216 21.7677 722.926 L21.7677 732.443 M16.4842 738.872 L16.4842 722.449 Q16.4842 715.096 19.5397 711.118 Q22.5952 707.139 28.2289 707.139 Q32.5894 707.139 35.1675 709.176 Q37.7456 711.213 38.3822 715.16 Q39.4007 710.418 42.6472 707.808 Q45.8619 705.166 50.6998 705.166 Q57.0655 705.166 60.5348 709.495 Q64.0042 713.823 64.0042 721.812 L64.0042 738.872 L16.4842 738.872 Z" fill="#000000" fill-rule="nonzero" fill-opacity="1" /><path clip-path="url(#clip140)" d="M20.8447 676.011 Q20.8447 683.013 26.0645 687.151 Q31.2844 691.257 40.2919 691.257 Q49.2675 691.257 54.4874 687.151 Q59.7073 683.013 59.7073 676.011 Q59.7073 669.009 54.4874 664.935 Q49.2675 660.829 40.2919 660.829 Q31.2844 660.829 26.0645 664.935 Q20.8447 669.009 20.8447 676.011 M15.6248 676.011 Q15.6248 666.017 22.3406 660.033 Q29.0246 654.049 40.2919 654.049 Q51.5274 654.049 58.2432 660.033 Q64.9272 666.017 64.9272 676.011 Q64.9272 686.037 58.2432 692.052 Q51.5592 698.036 40.2919 698.036 Q29.0246 698.036 22.3406 692.052 Q15.6248 686.037 15.6248 676.011 Z" fill="#000000" fill-rule="nonzero" fill-opacity="1" /><polyline clip-path="url(#clip142)" style="stroke:#009af9; stroke-linecap:round; stroke-linejoin:round; stroke-width:4; stroke-opacity:1; fill:none" points="389.794,1384.24 451.271,780.008 512.748,426.181 574.225,315.035 635.702,248.266 697.179,235.86 758.656,208.423 820.133,195.339 881.61,180.442 943.087,176.753 1004.56,169.062 1066.04,164.057 1127.52,162.367 1189,156.894 1250.47,154.916 1311.95,155.089 1373.43,147.623 1434.9,142.011 1496.38,139.013 1557.86,132.749 1619.33,128.386 1680.81,129.637 1742.29,123.824 1803.77,115.971 1865.24,112.754 1926.72,111.631 1988.2,106.079 2049.67,106.133 2111.15,97.7 2172.63,93.1859 2234.11,92.3449 2295.58,86.1857 "/>
<polyline clip-path="url(#clip142)" style="stroke:#e26f46; stroke-linecap:round; stroke-linejoin:round; stroke-width:4; stroke-opacity:1; fill:none" points="389.794,1318.98 451.271,856.181 512.748,781.549 574.225,420.927 635.702,297.793 697.179,239.919 758.656,236.323 820.133,211.559 881.61,191.452 943.087,186.825 1004.56,179.46 1066.04,176.684 1127.52,172.892 1189,169.814 1250.47,165.507 1311.95,165.323 1373.43,159.65 1434.9,158.352 1496.38,152.603 1557.86,149.284 1619.33,145.303 1680.81,143.251 1742.29,139.456 1803.77,139.854 1865.24,134.175 1926.72,131.634 1988.2,125.709 2049.67,121.659 2111.15,118.88 2172.63,116.875 2234.11,115.809 2295.58,113.325 "/>
<path clip-path="url(#clip140)" d="M1784.1 1377.32 L2285.42 1377.32 L2285.42 1221.8 L1784.1 1221.8  Z" fill="#ffffff" fill-rule="evenodd" fill-opacity="1"/>
<polyline clip-path="url(#clip140)" style="stroke:#000000; stroke-linecap:round; stroke-linejoin:round; stroke-width:4; stroke-opacity:1; fill:none" points="1784.1,1377.32 2285.42,1377.32 2285.42,1221.8 1784.1,1221.8 1784.1,1377.32 "/>
<polyline clip-path="url(#clip140)" style="stroke:#009af9; stroke-linecap:round; stroke-linejoin:round; stroke-width:4; stroke-opacity:1; fill:none" points="1806.55,1273.64 1941.22,1273.64 "/>
<path clip-path="url(#clip140)" d="M1963.67 1256.36 L1983.53 1256.36 L1983.53 1260.29 L1968.34 1260.29 L1968.34 1270.48 L1982.05 1270.48 L1982.05 1274.41 L1968.34 1274.41 L1968.34 1290.92 L1963.67 1290.92 L1963.67 1256.36 Z" fill="#000000" fill-rule="nonzero" fill-opacity="1" /><path clip-path="url(#clip140)" d="M1987.72 1280.68 L1987.72 1264.99 L1991.98 1264.99 L1991.98 1280.52 Q1991.98 1284.2 1993.41 1286.05 Q1994.85 1287.88 1997.72 1287.88 Q2001.17 1287.88 2003.16 1285.68 Q2005.17 1283.48 2005.17 1279.69 L2005.17 1264.99 L2009.43 1264.99 L2009.43 1290.92 L2005.17 1290.92 L2005.17 1286.93 Q2003.62 1289.29 2001.56 1290.45 Q1999.52 1291.59 1996.82 1291.59 Q1992.35 1291.59 1990.03 1288.81 Q1987.72 1286.03 1987.72 1280.68 M1998.44 1264.36 L1998.44 1264.36 Z" fill="#000000" fill-rule="nonzero" fill-opacity="1" /><path clip-path="url(#clip140)" d="M2018.2 1254.9 L2022.46 1254.9 L2022.46 1290.92 L2018.2 1290.92 L2018.2 1254.9 Z" fill="#000000" fill-rule="nonzero" fill-opacity="1" /><path clip-path="url(#clip140)" d="M2031.38 1254.9 L2035.64 1254.9 L2035.64 1290.92 L2031.38 1290.92 L2031.38 1254.9 Z" fill="#000000" fill-rule="nonzero" fill-opacity="1" /><path clip-path="url(#clip140)" d="M2064.48 1274.41 L2064.48 1287.07 L2071.98 1287.07 Q2075.75 1287.07 2077.56 1285.52 Q2079.39 1283.95 2079.39 1280.73 Q2079.39 1277.49 2077.56 1275.96 Q2075.75 1274.41 2071.98 1274.41 L2064.48 1274.41 M2064.48 1260.2 L2064.48 1270.61 L2071.4 1270.61 Q2074.82 1270.61 2076.49 1269.34 Q2078.18 1268.05 2078.18 1265.41 Q2078.18 1262.79 2076.49 1261.49 Q2074.82 1260.2 2071.4 1260.2 L2064.48 1260.2 M2059.8 1256.36 L2071.75 1256.36 Q2077.09 1256.36 2079.99 1258.58 Q2082.88 1260.8 2082.88 1264.9 Q2082.88 1268.07 2081.4 1269.94 Q2079.92 1271.82 2077.05 1272.28 Q2080.5 1273.02 2082.39 1275.38 Q2084.32 1277.72 2084.32 1281.24 Q2084.32 1285.87 2081.17 1288.39 Q2078.02 1290.92 2072.21 1290.92 L2059.8 1290.92 L2059.8 1256.36 Z" fill="#000000" fill-rule="nonzero" fill-opacity="1" /><path clip-path="url(#clip140)" d="M2103.92 1277.88 Q2098.76 1277.88 2096.77 1279.06 Q2094.78 1280.24 2094.78 1283.09 Q2094.78 1285.36 2096.26 1286.7 Q2097.76 1288.02 2100.33 1288.02 Q2103.88 1288.02 2106.01 1285.52 Q2108.16 1283 2108.16 1278.83 L2108.16 1277.88 L2103.92 1277.88 M2112.42 1276.12 L2112.42 1290.92 L2108.16 1290.92 L2108.16 1286.98 Q2106.7 1289.34 2104.52 1290.48 Q2102.35 1291.59 2099.2 1291.59 Q2095.22 1291.59 2092.86 1289.36 Q2090.52 1287.12 2090.52 1283.37 Q2090.52 1278.99 2093.44 1276.77 Q2096.38 1274.55 2102.19 1274.55 L2108.16 1274.55 L2108.16 1274.13 Q2108.16 1271.19 2106.21 1269.6 Q2104.29 1267.98 2100.8 1267.98 Q2098.57 1267.98 2096.47 1268.51 Q2094.36 1269.04 2092.42 1270.11 L2092.42 1266.17 Q2094.76 1265.27 2096.95 1264.83 Q2099.15 1264.36 2101.24 1264.36 Q2106.86 1264.36 2109.64 1267.28 Q2112.42 1270.2 2112.42 1276.12 Z" fill="#000000" fill-rule="nonzero" fill-opacity="1" /><path clip-path="url(#clip140)" d="M2125.4 1257.63 L2125.4 1264.99 L2134.18 1264.99 L2134.18 1268.3 L2125.4 1268.3 L2125.4 1282.37 Q2125.4 1285.54 2126.26 1286.45 Q2127.14 1287.35 2129.8 1287.35 L2134.18 1287.35 L2134.18 1290.92 L2129.8 1290.92 Q2124.87 1290.92 2123 1289.09 Q2121.12 1287.23 2121.12 1282.37 L2121.12 1268.3 L2118 1268.3 L2118 1264.99 L2121.12 1264.99 L2121.12 1257.63 L2125.4 1257.63 Z" fill="#000000" fill-rule="nonzero" fill-opacity="1" /><path clip-path="url(#clip140)" d="M2158.44 1265.98 L2158.44 1269.97 Q2156.63 1268.97 2154.8 1268.48 Q2153 1267.98 2151.14 1267.98 Q2147 1267.98 2144.71 1270.61 Q2142.42 1273.23 2142.42 1277.98 Q2142.42 1282.72 2144.71 1285.36 Q2147 1287.98 2151.14 1287.98 Q2153 1287.98 2154.8 1287.49 Q2156.63 1286.98 2158.44 1285.98 L2158.44 1289.92 Q2156.65 1290.75 2154.73 1291.17 Q2152.83 1291.59 2150.68 1291.59 Q2144.82 1291.59 2141.38 1287.91 Q2137.93 1284.23 2137.93 1277.98 Q2137.93 1271.63 2141.4 1268 Q2144.89 1264.36 2150.96 1264.36 Q2152.93 1264.36 2154.8 1264.78 Q2156.68 1265.17 2158.44 1265.98 Z" fill="#000000" fill-rule="nonzero" fill-opacity="1" /><path clip-path="url(#clip140)" d="M2187.39 1275.27 L2187.39 1290.92 L2183.13 1290.92 L2183.13 1275.41 Q2183.13 1271.73 2181.7 1269.9 Q2180.26 1268.07 2177.39 1268.07 Q2173.94 1268.07 2171.95 1270.27 Q2169.96 1272.47 2169.96 1276.26 L2169.96 1290.92 L2165.68 1290.92 L2165.68 1254.9 L2169.96 1254.9 L2169.96 1269.02 Q2171.49 1266.68 2173.55 1265.52 Q2175.63 1264.36 2178.34 1264.36 Q2182.81 1264.36 2185.1 1267.14 Q2187.39 1269.9 2187.39 1275.27 Z" fill="#000000" fill-rule="nonzero" fill-opacity="1" /><polyline clip-path="url(#clip140)" style="stroke:#e26f46; stroke-linecap:round; stroke-linejoin:round; stroke-width:4; stroke-opacity:1; fill:none" points="1806.55,1325.48 1941.22,1325.48 "/>
<path clip-path="url(#clip140)" d="M1985.91 1309.33 L1985.91 1313.89 Q1983.25 1312.62 1980.89 1311.99 Q1978.53 1311.37 1976.33 1311.37 Q1972.51 1311.37 1970.43 1312.85 Q1968.37 1314.33 1968.37 1317.06 Q1968.37 1319.35 1969.73 1320.53 Q1971.12 1321.69 1974.96 1322.41 L1977.79 1322.99 Q1983.02 1323.98 1985.5 1326.51 Q1988 1329.01 1988 1333.22 Q1988 1338.24 1984.62 1340.83 Q1981.26 1343.43 1974.76 1343.43 Q1972.3 1343.43 1969.52 1342.87 Q1966.77 1342.32 1963.81 1341.23 L1963.81 1336.41 Q1966.65 1338.01 1969.39 1338.82 Q1972.12 1339.63 1974.76 1339.63 Q1978.76 1339.63 1980.94 1338.06 Q1983.11 1336.48 1983.11 1333.57 Q1983.11 1331.02 1981.54 1329.58 Q1979.99 1328.15 1976.42 1327.43 L1973.58 1326.88 Q1968.34 1325.83 1966.01 1323.61 Q1963.67 1321.39 1963.67 1317.43 Q1963.67 1312.85 1966.89 1310.21 Q1970.13 1307.57 1975.8 1307.57 Q1978.23 1307.57 1980.75 1308.01 Q1983.27 1308.45 1985.91 1309.33 Z" fill="#000000" fill-rule="nonzero" fill-opacity="1" /><path clip-path="url(#clip140)" d="M1994.66 1332.52 L1994.66 1316.83 L1998.92 1316.83 L1998.92 1332.36 Q1998.92 1336.04 2000.36 1337.89 Q2001.79 1339.72 2004.66 1339.72 Q2008.11 1339.72 2010.1 1337.52 Q2012.12 1335.32 2012.12 1331.53 L2012.12 1316.83 L2016.38 1316.83 L2016.38 1342.76 L2012.12 1342.76 L2012.12 1338.77 Q2010.57 1341.13 2008.51 1342.29 Q2006.47 1343.43 2003.76 1343.43 Q1999.29 1343.43 1996.98 1340.65 Q1994.66 1337.87 1994.66 1332.52 M2005.38 1316.2 L2005.38 1316.2 Z" fill="#000000" fill-rule="nonzero" fill-opacity="1" /><path clip-path="url(#clip140)" d="M2043.76 1329.82 Q2043.76 1325.12 2041.82 1322.45 Q2039.89 1319.77 2036.51 1319.77 Q2033.14 1319.77 2031.19 1322.45 Q2029.27 1325.12 2029.27 1329.82 Q2029.27 1334.51 2031.19 1337.2 Q2033.14 1339.86 2036.51 1339.86 Q2039.89 1339.86 2041.82 1337.2 Q2043.76 1334.51 2043.76 1329.82 M2029.27 1320.76 Q2030.61 1318.45 2032.65 1317.34 Q2034.71 1316.2 2037.56 1316.2 Q2042.28 1316.2 2045.22 1319.95 Q2048.18 1323.7 2048.18 1329.82 Q2048.18 1335.93 2045.22 1339.68 Q2042.28 1343.43 2037.56 1343.43 Q2034.71 1343.43 2032.65 1342.32 Q2030.61 1341.18 2029.27 1338.87 L2029.27 1342.76 L2024.99 1342.76 L2024.99 1306.74 L2029.27 1306.74 L2029.27 1320.76 Z" fill="#000000" fill-rule="nonzero" fill-opacity="1" /><path clip-path="url(#clip140)" d="M2071.77 1317.59 L2071.77 1321.62 Q2069.96 1320.7 2068.02 1320.23 Q2066.08 1319.77 2063.99 1319.77 Q2060.82 1319.77 2059.22 1320.74 Q2057.65 1321.71 2057.65 1323.66 Q2057.65 1325.14 2058.78 1326 Q2059.92 1326.83 2063.34 1327.59 L2064.8 1327.92 Q2069.34 1328.89 2071.24 1330.67 Q2073.16 1332.43 2073.16 1335.6 Q2073.16 1339.21 2070.29 1341.32 Q2067.44 1343.43 2062.44 1343.43 Q2060.36 1343.43 2058.09 1343.01 Q2055.84 1342.62 2053.34 1341.81 L2053.34 1337.41 Q2055.7 1338.63 2058 1339.26 Q2060.29 1339.86 2062.53 1339.86 Q2065.54 1339.86 2067.16 1338.84 Q2068.78 1337.8 2068.78 1335.93 Q2068.78 1334.19 2067.6 1333.26 Q2066.45 1332.34 2062.49 1331.48 L2061.01 1331.14 Q2057.05 1330.3 2055.29 1328.59 Q2053.53 1326.85 2053.53 1323.84 Q2053.53 1320.19 2056.12 1318.2 Q2058.71 1316.2 2063.48 1316.2 Q2065.84 1316.2 2067.93 1316.55 Q2070.01 1316.9 2071.77 1317.59 Z" fill="#000000" fill-rule="nonzero" fill-opacity="1" /><path clip-path="url(#clip140)" d="M2091.72 1329.72 Q2086.56 1329.72 2084.57 1330.9 Q2082.58 1332.08 2082.58 1334.93 Q2082.58 1337.2 2084.06 1338.54 Q2085.57 1339.86 2088.14 1339.86 Q2091.68 1339.86 2093.81 1337.36 Q2095.96 1334.84 2095.96 1330.67 L2095.96 1329.72 L2091.72 1329.72 M2100.22 1327.96 L2100.22 1342.76 L2095.96 1342.76 L2095.96 1338.82 Q2094.5 1341.18 2092.32 1342.32 Q2090.15 1343.43 2087 1343.43 Q2083.02 1343.43 2080.66 1341.2 Q2078.32 1338.96 2078.32 1335.21 Q2078.32 1330.83 2081.24 1328.61 Q2084.18 1326.39 2089.99 1326.39 L2095.96 1326.39 L2095.96 1325.97 Q2095.96 1323.03 2094.01 1321.44 Q2092.09 1319.82 2088.6 1319.82 Q2086.38 1319.82 2084.27 1320.35 Q2082.16 1320.88 2080.22 1321.95 L2080.22 1318.01 Q2082.56 1317.11 2084.76 1316.67 Q2086.95 1316.2 2089.04 1316.2 Q2094.66 1316.2 2097.44 1319.12 Q2100.22 1322.04 2100.22 1327.96 Z" fill="#000000" fill-rule="nonzero" fill-opacity="1" /><path clip-path="url(#clip140)" d="M2129.18 1321.81 Q2130.77 1318.94 2133 1317.57 Q2135.22 1316.2 2138.23 1316.2 Q2142.28 1316.2 2144.48 1319.05 Q2146.68 1321.88 2146.68 1327.11 L2146.68 1342.76 L2142.39 1342.76 L2142.39 1327.25 Q2142.39 1323.52 2141.07 1321.71 Q2139.76 1319.91 2137.05 1319.91 Q2133.74 1319.91 2131.82 1322.11 Q2129.89 1324.31 2129.89 1328.1 L2129.89 1342.76 L2125.61 1342.76 L2125.61 1327.25 Q2125.61 1323.5 2124.29 1321.71 Q2122.97 1319.91 2120.22 1319.91 Q2116.95 1319.91 2115.03 1322.13 Q2113.11 1324.33 2113.11 1328.1 L2113.11 1342.76 L2108.83 1342.76 L2108.83 1316.83 L2113.11 1316.83 L2113.11 1320.86 Q2114.57 1318.47 2116.61 1317.34 Q2118.64 1316.2 2121.45 1316.2 Q2124.27 1316.2 2126.24 1317.64 Q2128.23 1319.07 2129.18 1321.81 Z" fill="#000000" fill-rule="nonzero" fill-opacity="1" /><path clip-path="url(#clip140)" d="M2159.29 1338.87 L2159.29 1352.62 L2155.01 1352.62 L2155.01 1316.83 L2159.29 1316.83 L2159.29 1320.76 Q2160.63 1318.45 2162.67 1317.34 Q2164.73 1316.2 2167.58 1316.2 Q2172.3 1316.2 2175.24 1319.95 Q2178.2 1323.7 2178.2 1329.82 Q2178.2 1335.93 2175.24 1339.68 Q2172.3 1343.43 2167.58 1343.43 Q2164.73 1343.43 2162.67 1342.32 Q2160.63 1341.18 2159.29 1338.87 M2173.78 1329.82 Q2173.78 1325.12 2171.84 1322.45 Q2169.92 1319.77 2166.54 1319.77 Q2163.16 1319.77 2161.21 1322.45 Q2159.29 1325.12 2159.29 1329.82 Q2159.29 1334.51 2161.21 1337.2 Q2163.16 1339.86 2166.54 1339.86 Q2169.92 1339.86 2171.84 1337.2 Q2173.78 1334.51 2173.78 1329.82 Z" fill="#000000" fill-rule="nonzero" fill-opacity="1" /><path clip-path="url(#clip140)" d="M2185.26 1306.74 L2189.52 1306.74 L2189.52 1342.76 L2185.26 1342.76 L2185.26 1306.74 Z" fill="#000000" fill-rule="nonzero" fill-opacity="1" /><path clip-path="url(#clip140)" d="M2198.44 1316.83 L2202.69 1316.83 L2202.69 1342.76 L2198.44 1342.76 L2198.44 1316.83 M2198.44 1306.74 L2202.69 1306.74 L2202.69 1312.13 L2198.44 1312.13 L2198.44 1306.74 Z" fill="#000000" fill-rule="nonzero" fill-opacity="1" /><path clip-path="url(#clip140)" d="M2233.16 1327.11 L2233.16 1342.76 L2228.9 1342.76 L2228.9 1327.25 Q2228.9 1323.57 2227.46 1321.74 Q2226.03 1319.91 2223.16 1319.91 Q2219.71 1319.91 2217.72 1322.11 Q2215.73 1324.31 2215.73 1328.1 L2215.73 1342.76 L2211.44 1342.76 L2211.44 1316.83 L2215.73 1316.83 L2215.73 1320.86 Q2217.25 1318.52 2219.31 1317.36 Q2221.4 1316.2 2224.11 1316.2 Q2228.57 1316.2 2230.87 1318.98 Q2233.16 1321.74 2233.16 1327.11 Z" fill="#000000" fill-rule="nonzero" fill-opacity="1" /><path clip-path="url(#clip140)" d="M2258.71 1329.49 Q2258.71 1324.86 2256.79 1322.32 Q2254.89 1319.77 2251.44 1319.77 Q2248.02 1319.77 2246.1 1322.32 Q2244.2 1324.86 2244.2 1329.49 Q2244.2 1334.1 2246.1 1336.64 Q2248.02 1339.19 2251.44 1339.19 Q2254.89 1339.19 2256.79 1336.64 Q2258.71 1334.1 2258.71 1329.49 M2262.97 1339.54 Q2262.97 1346.16 2260.03 1349.38 Q2257.09 1352.62 2251.03 1352.62 Q2248.78 1352.62 2246.79 1352.27 Q2244.8 1351.95 2242.93 1351.25 L2242.93 1347.11 Q2244.8 1348.13 2246.63 1348.61 Q2248.46 1349.1 2250.36 1349.1 Q2254.55 1349.1 2256.63 1346.9 Q2258.71 1344.72 2258.71 1340.3 L2258.71 1338.2 Q2257.39 1340.49 2255.33 1341.62 Q2253.27 1342.76 2250.4 1342.76 Q2245.63 1342.76 2242.72 1339.12 Q2239.8 1335.49 2239.8 1329.49 Q2239.8 1323.47 2242.72 1319.84 Q2245.63 1316.2 2250.4 1316.2 Q2253.27 1316.2 2255.33 1317.34 Q2257.39 1318.47 2258.71 1320.76 L2258.71 1316.83 L2262.97 1316.83 L2262.97 1339.54 Z" fill="#000000" fill-rule="nonzero" fill-opacity="1" /></svg>
