<?xml version="1.0" encoding="utf-8"?>
<svg xmlns="http://www.w3.org/2000/svg" xmlns:xlink="http://www.w3.org/1999/xlink" width="600" height="400" viewBox="0 0 2400 1600">
<defs>
  <clipPath id="clip970">
    <rect x="0" y="0" width="2400" height="1600"/>
  </clipPath>
</defs>
<path clip-path="url(#clip970)" d="M0 1600 L2400 1600 L2400 0 L0 0  Z" fill="#ffffff" fill-rule="evenodd" fill-opacity="1"/>
<defs>
  <clipPath id="clip971">
    <rect x="219" y="47" width="2134" height="1377"/>
  </clipPath>
</defs>
<path clip-path="url(#clip970)" d="M156.112 1423.18 L2352.76 1423.18 L2352.76 47.2441 L156.112 47.2441  Z" fill="#ffffff" fill-rule="evenodd" fill-opacity="1"/>
<defs>
  <clipPath id="clip972">
    <rect x="156" y="47" width="2198" height="1377"/>
  </clipPath>
</defs>
<polyline clip-path="url(#clip972)" style="stroke:#000000; stroke-linecap:round; stroke-linejoin:round; stroke-width:2; stroke-opacity:0.1; fill:none" points="156.112,1423.18 156.112,47.2441 "/>
<polyline clip-path="url(#clip972)" style="stroke:#000000; stroke-linecap:round; stroke-linejoin:round; stroke-width:2; stroke-opacity:0.1; fill:none" points="705.273,1423.18 705.273,47.2441 "/>
<polyline clip-path="url(#clip972)" style="stroke:#000000; stroke-linecap:round; stroke-linejoin:round; stroke-width:2; stroke-opacity:0.1; fill:none" points="1254.43,1423.18 1254.43,47.2441 "/>
<polyline clip-path="url(#clip972)" style="stroke:#000000; stroke-linecap:round; stroke-linejoin:round; stroke-width:2; stroke-opacity:0.1; fill:none" points="1803.59,1423.18 1803.59,47.2441 "/>
<polyline clip-path="url(#clip972)" style="stroke:#000000; stroke-linecap:round; stroke-linejoin:round; stroke-width:2; stroke-opacity:0.1; fill:none" points="2352.76,1423.18 2352.76,47.2441 "/>
<polyline clip-path="url(#clip972)" style="stroke:#000000; stroke-linecap:round; stroke-linejoin:round; stroke-width:2; stroke-opacity:0.1; fill:none" points="156.112,1384.24 2352.76,1384.24 "/>
<polyline clip-path="url(#clip972)" style="stroke:#000000; stroke-linecap:round; stroke-linejoin:round; stroke-width:2; stroke-opacity:0.1; fill:none" points="156.112,1157.31 2352.76,1157.31 "/>
<polyline clip-path="url(#clip972)" style="stroke:#000000; stroke-linecap:round; stroke-linejoin:round; stroke-width:2; stroke-opacity:0.1; fill:none" points="156.112,930.374 2352.76,930.374 "/>
<polyline clip-path="url(#clip972)" style="stroke:#000000; stroke-linecap:round; stroke-linejoin:round; stroke-width:2; stroke-opacity:0.1; fill:none" points="156.112,703.441 2352.76,703.441 "/>
<polyline clip-path="url(#clip972)" style="stroke:#000000; stroke-linecap:round; stroke-linejoin:round; stroke-width:2; stroke-opacity:0.1; fill:none" points="156.112,476.509 2352.76,476.509 "/>
<polyline clip-path="url(#clip972)" style="stroke:#000000; stroke-linecap:round; stroke-linejoin:round; stroke-width:2; stroke-opacity:0.1; fill:none" points="156.112,249.577 2352.76,249.577 "/>
<polyline clip-path="url(#clip970)" style="stroke:#000000; stroke-linecap:round; stroke-linejoin:round; stroke-width:4; stroke-opacity:1; fill:none" points="156.112,1423.18 2352.76,1423.18 "/>
<polyline clip-path="url(#clip970)" style="stroke:#000000; stroke-linecap:round; stroke-linejoin:round; stroke-width:4; stroke-opacity:1; fill:none" points="156.112,1423.18 156.112,1404.28 "/>
<polyline clip-path="url(#clip970)" style="stroke:#000000; stroke-linecap:round; stroke-linejoin:round; stroke-width:4; stroke-opacity:1; fill:none" points="705.273,1423.18 705.273,1404.28 "/>
<polyline clip-path="url(#clip970)" style="stroke:#000000; stroke-linecap:round; stroke-linejoin:round; stroke-width:4; stroke-opacity:1; fill:none" points="1254.43,1423.18 1254.43,1404.28 "/>
<polyline clip-path="url(#clip970)" style="stroke:#000000; stroke-linecap:round; stroke-linejoin:round; stroke-width:4; stroke-opacity:1; fill:none" points="1803.59,1423.18 1803.59,1404.28 "/>
<polyline clip-path="url(#clip970)" style="stroke:#000000; stroke-linecap:round; stroke-linejoin:round; stroke-width:4; stroke-opacity:1; fill:none" points="2352.76,1423.18 2352.76,1404.28 "/>
<path clip-path="url(#clip970)" d="M133.497 1454.1 Q129.885 1454.1 128.057 1457.66 Q126.251 1461.2 126.251 1468.33 Q126.251 1475.44 128.057 1479.01 Q129.885 1482.55 133.497 1482.55 Q137.131 1482.55 138.936 1479.01 Q140.765 1475.44 140.765 1468.33 Q140.765 1461.2 138.936 1457.66 Q137.131 1454.1 133.497 1454.1 M133.497 1450.39 Q139.307 1450.39 142.362 1455 Q145.441 1459.58 145.441 1468.33 Q145.441 1477.06 142.362 1481.67 Q139.307 1486.25 133.497 1486.25 Q127.686 1486.25 124.608 1481.67 Q121.552 1477.06 121.552 1468.33 Q121.552 1459.58 124.608 1455 Q127.686 1450.39 133.497 1450.39 Z" fill="#000000" fill-rule="nonzero" fill-opacity="1" /><path clip-path="url(#clip970)" d="M153.658 1479.7 L158.543 1479.7 L158.543 1485.58 L153.658 1485.58 L153.658 1479.7 Z" fill="#000000" fill-rule="nonzero" fill-opacity="1" /><path clip-path="url(#clip970)" d="M178.728 1454.1 Q175.117 1454.1 173.288 1457.66 Q171.482 1461.2 171.482 1468.33 Q171.482 1475.44 173.288 1479.01 Q175.117 1482.55 178.728 1482.55 Q182.362 1482.55 184.168 1479.01 Q185.996 1475.44 185.996 1468.33 Q185.996 1461.2 184.168 1457.66 Q182.362 1454.1 178.728 1454.1 M178.728 1450.39 Q184.538 1450.39 187.593 1455 Q190.672 1459.58 190.672 1468.33 Q190.672 1477.06 187.593 1481.67 Q184.538 1486.25 178.728 1486.25 Q172.918 1486.25 169.839 1481.67 Q166.783 1477.06 166.783 1468.33 Q166.783 1459.58 169.839 1455 Q172.918 1450.39 178.728 1450.39 Z" fill="#000000" fill-rule="nonzero" fill-opacity="1" /><path clip-path="url(#clip970)" d="M683.155 1454.1 Q679.544 1454.1 677.715 1457.66 Q675.91 1461.2 675.91 1468.33 Q675.91 1475.44 677.715 1479.01 Q679.544 1482.55 683.155 1482.55 Q686.789 1482.55 688.595 1479.01 Q690.424 1475.44 690.424 1468.33 Q690.424 1461.2 688.595 1457.66 Q686.789 1454.1 683.155 1454.1 M683.155 1450.39 Q688.965 1450.39 692.021 1455 Q695.1 1459.58 695.1 1468.33 Q695.1 1477.06 692.021 1481.67 Q688.965 1486.25 683.155 1486.25 Q677.345 1486.25 674.266 1481.67 Q671.211 1477.06 671.211 1468.33 Q671.211 1459.58 674.266 1455 Q677.345 1450.39 683.155 1450.39 Z" fill="#000000" fill-rule="nonzero" fill-opacity="1" /><path clip-path="url(#clip970)" d="M703.317 1479.7 L708.201 1479.7 L708.201 1485.58 L703.317 1485.58 L703.317 1479.7 Z" fill="#000000" fill-rule="nonzero" fill-opacity="1" /><path clip-path="url(#clip970)" d="M718.433 1451.02 L736.789 1451.02 L736.789 1454.96 L722.715 1454.96 L722.715 1463.43 Q723.734 1463.08 724.752 1462.92 Q725.771 1462.73 726.789 1462.73 Q732.576 1462.73 735.956 1465.9 Q739.335 1469.08 739.335 1474.49 Q739.335 1480.07 735.863 1483.17 Q732.391 1486.25 726.072 1486.25 Q723.896 1486.25 721.627 1485.88 Q719.382 1485.51 716.974 1484.77 L716.974 1480.07 Q719.058 1481.2 721.28 1481.76 Q723.502 1482.32 725.979 1482.32 Q729.984 1482.32 732.322 1480.21 Q734.659 1478.1 734.659 1474.49 Q734.659 1470.88 732.322 1468.77 Q729.984 1466.67 725.979 1466.67 Q724.104 1466.67 722.229 1467.08 Q720.377 1467.5 718.433 1468.38 L718.433 1451.02 Z" fill="#000000" fill-rule="nonzero" fill-opacity="1" /><path clip-path="url(#clip970)" d="M1221.59 1481.64 L1229.23 1481.64 L1229.23 1455.28 L1220.92 1456.95 L1220.92 1452.69 L1229.18 1451.02 L1233.86 1451.02 L1233.86 1481.64 L1241.49 1481.64 L1241.49 1485.58 L1221.59 1485.58 L1221.59 1481.64 Z" fill="#000000" fill-rule="nonzero" fill-opacity="1" /><path clip-path="url(#clip970)" d="M1250.94 1479.7 L1255.82 1479.7 L1255.82 1485.58 L1250.94 1485.58 L1250.94 1479.7 Z" fill="#000000" fill-rule="nonzero" fill-opacity="1" /><path clip-path="url(#clip970)" d="M1276.01 1454.1 Q1272.4 1454.1 1270.57 1457.66 Q1268.76 1461.2 1268.76 1468.33 Q1268.76 1475.44 1270.57 1479.01 Q1272.4 1482.55 1276.01 1482.55 Q1279.64 1482.55 1281.45 1479.01 Q1283.28 1475.44 1283.28 1468.33 Q1283.28 1461.2 1281.45 1457.66 Q1279.64 1454.1 1276.01 1454.1 M1276.01 1450.39 Q1281.82 1450.39 1284.87 1455 Q1287.95 1459.58 1287.95 1468.33 Q1287.95 1477.06 1284.87 1481.67 Q1281.82 1486.25 1276.01 1486.25 Q1270.2 1486.25 1267.12 1481.67 Q1264.06 1477.06 1264.06 1468.33 Q1264.06 1459.58 1267.12 1455 Q1270.2 1450.39 1276.01 1450.39 Z" fill="#000000" fill-rule="nonzero" fill-opacity="1" /><path clip-path="url(#clip970)" d="M1771.25 1481.64 L1778.88 1481.64 L1778.88 1455.28 L1770.57 1456.95 L1770.57 1452.69 L1778.84 1451.02 L1783.51 1451.02 L1783.51 1481.64 L1791.15 1481.64 L1791.15 1485.58 L1771.25 1485.58 L1771.25 1481.64 Z" fill="#000000" fill-rule="nonzero" fill-opacity="1" /><path clip-path="url(#clip970)" d="M1800.6 1479.7 L1805.48 1479.7 L1805.48 1485.58 L1800.6 1485.58 L1800.6 1479.7 Z" fill="#000000" fill-rule="nonzero" fill-opacity="1" /><path clip-path="url(#clip970)" d="M1815.71 1451.02 L1834.07 1451.02 L1834.07 1454.96 L1820 1454.96 L1820 1463.43 Q1821.01 1463.08 1822.03 1462.92 Q1823.05 1462.73 1824.07 1462.73 Q1829.86 1462.73 1833.24 1465.9 Q1836.62 1469.08 1836.62 1474.49 Q1836.62 1480.07 1833.14 1483.17 Q1829.67 1486.25 1823.35 1486.25 Q1821.18 1486.25 1818.91 1485.88 Q1816.66 1485.51 1814.25 1484.77 L1814.25 1480.07 Q1816.34 1481.2 1818.56 1481.76 Q1820.78 1482.32 1823.26 1482.32 Q1827.26 1482.32 1829.6 1480.21 Q1831.94 1478.1 1831.94 1474.49 Q1831.94 1470.88 1829.6 1468.77 Q1827.26 1466.67 1823.26 1466.67 Q1821.38 1466.67 1819.51 1467.08 Q1817.66 1467.5 1815.71 1468.38 L1815.71 1451.02 Z" fill="#000000" fill-rule="nonzero" fill-opacity="1" /><path clip-path="url(#clip970)" d="M2323.99 1481.64 L2340.31 1481.64 L2340.31 1485.58 L2318.37 1485.58 L2318.37 1481.64 Q2321.03 1478.89 2325.61 1474.26 Q2330.22 1469.61 2331.4 1468.27 Q2333.65 1465.74 2334.53 1464.01 Q2335.43 1462.25 2335.43 1460.56 Q2335.43 1457.8 2333.49 1456.07 Q2331.56 1454.33 2328.46 1454.33 Q2326.26 1454.33 2323.81 1455.09 Q2321.38 1455.86 2318.6 1457.41 L2318.6 1452.69 Q2321.43 1451.55 2323.88 1450.97 Q2326.33 1450.39 2328.37 1450.39 Q2333.74 1450.39 2336.93 1453.08 Q2340.13 1455.77 2340.13 1460.26 Q2340.13 1462.39 2339.32 1464.31 Q2338.53 1466.2 2336.42 1468.8 Q2335.85 1469.47 2332.74 1472.69 Q2329.64 1475.88 2323.99 1481.64 Z" fill="#000000" fill-rule="nonzero" fill-opacity="1" /><path clip-path="url(#clip970)" d="M2350.13 1479.7 L2355.01 1479.7 L2355.01 1485.58 L2350.13 1485.58 L2350.13 1479.7 Z" fill="#000000" fill-rule="nonzero" fill-opacity="1" /><path clip-path="url(#clip970)" d="M2375.2 1454.1 Q2371.59 1454.1 2369.76 1457.66 Q2367.95 1461.2 2367.95 1468.33 Q2367.95 1475.44 2369.76 1479.01 Q2371.59 1482.55 2375.2 1482.55 Q2378.83 1482.55 2380.64 1479.01 Q2382.47 1475.44 2382.47 1468.33 Q2382.47 1461.2 2380.64 1457.66 Q2378.83 1454.1 2375.2 1454.1 M2375.2 1450.39 Q2381.01 1450.39 2384.06 1455 Q2387.14 1459.58 2387.14 1468.33 Q2387.14 1477.06 2384.06 1481.67 Q2381.01 1486.25 2375.2 1486.25 Q2369.39 1486.25 2366.31 1481.67 Q2363.25 1477.06 2363.25 1468.33 Q2363.25 1459.58 2366.31 1455 Q2369.39 1450.39 2375.2 1450.39 Z" fill="#000000" fill-rule="nonzero" fill-opacity="1" /><path clip-path="url(#clip970)" d="M1048.19 1525.81 L1048.19 1543.66 L1056.27 1543.66 Q1060.76 1543.66 1063.21 1541.34 Q1065.66 1539.02 1065.66 1534.72 Q1065.66 1530.45 1063.21 1528.13 Q1060.76 1525.81 1056.27 1525.81 L1048.19 1525.81 M1041.76 1520.52 L1056.27 1520.52 Q1064.26 1520.52 1068.33 1524.15 Q1072.44 1527.75 1072.44 1534.72 Q1072.44 1541.75 1068.33 1545.35 Q1064.26 1548.95 1056.27 1548.95 L1048.19 1548.95 L1048.19 1568.04 L1041.76 1568.04 L1041.76 1520.52 Z" fill="#000000" fill-rule="nonzero" fill-opacity="1" /><path clip-path="url(#clip970)" d="M1092.3 1536.5 Q1087.59 1536.5 1084.85 1540.19 Q1082.11 1543.85 1082.11 1550.25 Q1082.11 1556.65 1084.82 1560.34 Q1087.56 1564 1092.3 1564 Q1096.98 1564 1099.72 1560.31 Q1102.45 1556.62 1102.45 1550.25 Q1102.45 1543.92 1099.72 1540.23 Q1096.98 1536.5 1092.3 1536.5 M1092.3 1531.54 Q1099.94 1531.54 1104.3 1536.5 Q1108.66 1541.47 1108.66 1550.25 Q1108.66 1559 1104.3 1564 Q1099.94 1568.97 1092.3 1568.97 Q1084.63 1568.97 1080.27 1564 Q1075.94 1559 1075.94 1550.25 Q1075.94 1541.47 1080.27 1536.5 Q1084.63 1531.54 1092.3 1531.54 Z" fill="#000000" fill-rule="nonzero" fill-opacity="1" /><path clip-path="url(#clip970)" d="M1141.09 1533.45 L1141.09 1538.98 Q1138.61 1537.71 1135.94 1537.07 Q1133.26 1536.44 1130.4 1536.44 Q1126.04 1536.44 1123.84 1537.77 Q1121.68 1539.11 1121.68 1541.79 Q1121.68 1543.82 1123.24 1545 Q1124.8 1546.15 1129.51 1547.2 L1131.51 1547.64 Q1137.75 1548.98 1140.36 1551.43 Q1143 1553.85 1143 1558.21 Q1143 1563.17 1139.06 1566.07 Q1135.14 1568.97 1128.27 1568.97 Q1125.4 1568.97 1122.28 1568.39 Q1119.19 1567.85 1115.76 1566.74 L1115.76 1560.69 Q1119 1562.38 1122.15 1563.24 Q1125.31 1564.07 1128.39 1564.07 Q1132.53 1564.07 1134.76 1562.66 Q1136.99 1561.23 1136.99 1558.65 Q1136.99 1556.27 1135.36 1554.99 Q1133.77 1553.72 1128.33 1552.54 L1126.29 1552.07 Q1120.85 1550.92 1118.43 1548.56 Q1116.01 1546.18 1116.01 1542.04 Q1116.01 1537.01 1119.58 1534.27 Q1123.14 1531.54 1129.7 1531.54 Q1132.94 1531.54 1135.81 1532.01 Q1138.67 1532.49 1141.09 1533.45 Z" fill="#000000" fill-rule="nonzero" fill-opacity="1" /><path clip-path="url(#clip970)" d="M1158.12 1522.27 L1158.12 1532.4 L1170.18 1532.4 L1170.18 1536.95 L1158.12 1536.95 L1158.12 1556.3 Q1158.12 1560.66 1159.3 1561.9 Q1160.51 1563.14 1164.17 1563.14 L1170.18 1563.14 L1170.18 1568.04 L1164.17 1568.04 Q1157.39 1568.04 1154.81 1565.53 Q1152.23 1562.98 1152.23 1556.3 L1152.23 1536.95 L1147.94 1536.95 L1147.94 1532.4 L1152.23 1532.4 L1152.23 1522.27 L1158.12 1522.27 Z" fill="#000000" fill-rule="nonzero" fill-opacity="1" /><path clip-path="url(#clip970)" d="M1208.38 1548.76 L1208.38 1551.62 L1181.45 1551.62 Q1181.83 1557.67 1185.08 1560.85 Q1188.36 1564 1194.18 1564 Q1197.56 1564 1200.71 1563.17 Q1203.89 1562.35 1207.01 1560.69 L1207.01 1566.23 Q1203.86 1567.57 1200.55 1568.27 Q1197.24 1568.97 1193.83 1568.97 Q1185.3 1568.97 1180.31 1564 Q1175.34 1559.04 1175.34 1550.57 Q1175.34 1541.82 1180.05 1536.69 Q1184.79 1531.54 1192.81 1531.54 Q1200.01 1531.54 1204.18 1536.18 Q1208.38 1540.8 1208.38 1548.76 M1202.52 1547.04 Q1202.46 1542.23 1199.82 1539.37 Q1197.21 1536.5 1192.88 1536.5 Q1187.98 1536.5 1185.02 1539.27 Q1182.09 1542.04 1181.64 1547.07 L1202.52 1547.04 Z" fill="#000000" fill-rule="nonzero" fill-opacity="1" /><path clip-path="url(#clip970)" d="M1238.65 1537.87 Q1237.66 1537.3 1236.48 1537.04 Q1235.34 1536.76 1233.94 1536.76 Q1228.97 1536.76 1226.3 1540 Q1223.66 1543.22 1223.66 1549.27 L1223.66 1568.04 L1217.77 1568.04 L1217.77 1532.4 L1223.66 1532.4 L1223.66 1537.93 Q1225.5 1534.69 1228.46 1533.13 Q1231.42 1531.54 1235.66 1531.54 Q1236.26 1531.54 1236.99 1531.63 Q1237.72 1531.7 1238.62 1531.85 L1238.65 1537.87 Z" fill="#000000" fill-rule="nonzero" fill-opacity="1" /><path clip-path="url(#clip970)" d="M1244.79 1532.4 L1250.65 1532.4 L1250.65 1568.04 L1244.79 1568.04 L1244.79 1532.4 M1244.79 1518.52 L1250.65 1518.52 L1250.65 1525.93 L1244.79 1525.93 L1244.79 1518.52 Z" fill="#000000" fill-rule="nonzero" fill-opacity="1" /><path clip-path="url(#clip970)" d="M1276.71 1536.5 Q1272 1536.5 1269.27 1540.19 Q1266.53 1543.85 1266.53 1550.25 Q1266.53 1556.65 1269.23 1560.34 Q1271.97 1564 1276.71 1564 Q1281.39 1564 1284.13 1560.31 Q1286.87 1556.62 1286.87 1550.25 Q1286.87 1543.92 1284.13 1540.23 Q1281.39 1536.5 1276.71 1536.5 M1276.71 1531.54 Q1284.35 1531.54 1288.71 1536.5 Q1293.07 1541.47 1293.07 1550.25 Q1293.07 1559 1288.71 1564 Q1284.35 1568.97 1276.71 1568.97 Q1269.04 1568.97 1264.68 1564 Q1260.35 1559 1260.35 1550.25 Q1260.35 1541.47 1264.68 1536.5 Q1269.04 1531.54 1276.71 1531.54 Z" fill="#000000" fill-rule="nonzero" fill-opacity="1" /><path clip-path="url(#clip970)" d="M1323.44 1537.87 Q1322.45 1537.3 1321.27 1537.04 Q1320.13 1536.76 1318.73 1536.76 Q1313.76 1536.76 1311.09 1540 Q1308.45 1543.22 1308.45 1549.27 L1308.45 1568.04 L1302.56 1568.04 L1302.56 1532.4 L1308.45 1532.4 L1308.45 1537.93 Q1310.29 1534.69 1313.25 1533.13 Q1316.21 1531.54 1320.45 1531.54 Q1321.05 1531.54 1321.78 1531.63 Q1322.52 1531.7 1323.41 1531.85 L1323.44 1537.87 Z" fill="#000000" fill-rule="nonzero" fill-opacity="1" /><path clip-path="url(#clip970)" d="M1364.12 1536.5 Q1359.4 1536.5 1356.67 1540.19 Q1353.93 1543.85 1353.93 1550.25 Q1353.93 1556.65 1356.64 1560.34 Q1359.37 1564 1364.12 1564 Q1368.79 1564 1371.53 1560.31 Q1374.27 1556.62 1374.27 1550.25 Q1374.27 1543.92 1371.53 1540.23 Q1368.79 1536.5 1364.12 1536.5 M1364.12 1531.54 Q1371.75 1531.54 1376.11 1536.5 Q1380.48 1541.47 1380.48 1550.25 Q1380.48 1559 1376.11 1564 Q1371.75 1568.97 1364.12 1568.97 Q1356.44 1568.97 1352.08 1564 Q1347.76 1559 1347.76 1550.25 Q1347.76 1541.47 1352.08 1536.5 Q1356.44 1531.54 1364.12 1531.54 Z" fill="#000000" fill-rule="nonzero" fill-opacity="1" /><path clip-path="url(#clip970)" d="M1408.23 1518.52 L1408.23 1523.39 L1402.63 1523.39 Q1399.48 1523.39 1398.24 1524.66 Q1397.03 1525.93 1397.03 1529.24 L1397.03 1532.4 L1406.67 1532.4 L1406.67 1536.95 L1397.03 1536.95 L1397.03 1568.04 L1391.14 1568.04 L1391.14 1536.95 L1385.54 1536.95 L1385.54 1532.4 L1391.14 1532.4 L1391.14 1529.91 Q1391.14 1523.96 1393.91 1521.26 Q1396.68 1518.52 1402.69 1518.52 L1408.23 1518.52 Z" fill="#000000" fill-rule="nonzero" fill-opacity="1" /><path clip-path="url(#clip970)" d="M1447.67 1537.04 Q1442.83 1537.04 1440.22 1540.54 Q1437.48 1544.2 1437.48 1550.25 Q1437.48 1556.65 1440.19 1560.34 Q1442.92 1564 1447.67 1564 Q1452.34 1564 1455.08 1560.31 Q1457.82 1556.62 1457.82 1550.25 Q1457.82 1544.43 1455.08 1540.54 Q1452.57 1537.04 1447.67 1537.04 M1447.67 1532.4 L1467.11 1532.4 L1467.11 1538.25 L1460.56 1538.25 Q1464.02 1543.22 1464.02 1550.25 Q1464.02 1559 1459.66 1563.97 Q1455.3 1568.97 1447.67 1568.97 Q1439.99 1568.97 1435.67 1563.97 Q1431.31 1559 1431.31 1550.25 Q1431.31 1541.44 1435.67 1536.5 Q1439.26 1532.4 1447.67 1532.4 Z" fill="#000000" fill-rule="nonzero" fill-opacity="1" /><polyline clip-path="url(#clip970)" style="stroke:#000000; stroke-linecap:round; stroke-linejoin:round; stroke-width:4; stroke-opacity:1; fill:none" points="156.112,1423.18 156.112,47.2441 "/>
<polyline clip-path="url(#clip970)" style="stroke:#000000; stroke-linecap:round; stroke-linejoin:round; stroke-width:4; stroke-opacity:1; fill:none" points="156.112,1384.24 175.01,1384.24 "/>
<polyline clip-path="url(#clip970)" style="stroke:#000000; stroke-linecap:round; stroke-linejoin:round; stroke-width:4; stroke-opacity:1; fill:none" points="156.112,1157.31 175.01,1157.31 "/>
<polyline clip-path="url(#clip970)" style="stroke:#000000; stroke-linecap:round; stroke-linejoin:round; stroke-width:4; stroke-opacity:1; fill:none" points="156.112,930.374 175.01,930.374 "/>
<polyline clip-path="url(#clip970)" style="stroke:#000000; stroke-linecap:round; stroke-linejoin:round; stroke-width:4; stroke-opacity:1; fill:none" points="156.112,703.441 175.01,703.441 "/>
<polyline clip-path="url(#clip970)" style="stroke:#000000; stroke-linecap:round; stroke-linejoin:round; stroke-width:4; stroke-opacity:1; fill:none" points="156.112,476.509 175.01,476.509 "/>
<polyline clip-path="url(#clip970)" style="stroke:#000000; stroke-linecap:round; stroke-linejoin:round; stroke-width:4; stroke-opacity:1; fill:none" points="156.112,249.577 175.01,249.577 "/>
<path clip-path="url(#clip970)" d="M62.9365 1370.04 Q59.3254 1370.04 57.4967 1373.6 Q55.6912 1377.14 55.6912 1384.27 Q55.6912 1391.38 57.4967 1394.94 Q59.3254 1398.49 62.9365 1398.49 Q66.5707 1398.49 68.3763 1394.94 Q70.205 1391.38 70.205 1384.27 Q70.205 1377.14 68.3763 1373.6 Q66.5707 1370.04 62.9365 1370.04 M62.9365 1366.33 Q68.7467 1366.33 71.8022 1370.94 Q74.8809 1375.52 74.8809 1384.27 Q74.8809 1393 71.8022 1397.61 Q68.7467 1402.19 62.9365 1402.19 Q57.1264 1402.19 54.0477 1397.61 Q50.9921 1393 50.9921 1384.27 Q50.9921 1375.52 54.0477 1370.94 Q57.1264 1366.33 62.9365 1366.33 Z" fill="#000000" fill-rule="nonzero" fill-opacity="1" /><path clip-path="url(#clip970)" d="M83.0984 1395.64 L87.9827 1395.64 L87.9827 1401.52 L83.0984 1401.52 L83.0984 1395.64 Z" fill="#000000" fill-rule="nonzero" fill-opacity="1" /><path clip-path="url(#clip970)" d="M108.168 1370.04 Q104.557 1370.04 102.728 1373.6 Q100.922 1377.14 100.922 1384.27 Q100.922 1391.38 102.728 1394.94 Q104.557 1398.49 108.168 1398.49 Q111.802 1398.49 113.608 1394.94 Q115.436 1391.38 115.436 1384.27 Q115.436 1377.14 113.608 1373.6 Q111.802 1370.04 108.168 1370.04 M108.168 1366.33 Q113.978 1366.33 117.033 1370.94 Q120.112 1375.52 120.112 1384.27 Q120.112 1393 117.033 1397.61 Q113.978 1402.19 108.168 1402.19 Q102.358 1402.19 99.2789 1397.61 Q96.2234 1393 96.2234 1384.27 Q96.2234 1375.52 99.2789 1370.94 Q102.358 1366.33 108.168 1366.33 Z" fill="#000000" fill-rule="nonzero" fill-opacity="1" /><path clip-path="url(#clip970)" d="M63.9319 1143.1 Q60.3208 1143.1 58.4921 1146.67 Q56.6865 1150.21 56.6865 1157.34 Q56.6865 1164.45 58.4921 1168.01 Q60.3208 1171.55 63.9319 1171.55 Q67.5661 1171.55 69.3717 1168.01 Q71.2004 1164.45 71.2004 1157.34 Q71.2004 1150.21 69.3717 1146.67 Q67.5661 1143.1 63.9319 1143.1 M63.9319 1139.4 Q69.742 1139.4 72.7976 1144.01 Q75.8763 1148.59 75.8763 1157.34 Q75.8763 1166.07 72.7976 1170.67 Q69.742 1175.26 63.9319 1175.26 Q58.1217 1175.26 55.043 1170.67 Q51.9875 1166.07 51.9875 1157.34 Q51.9875 1148.59 55.043 1144.01 Q58.1217 1139.4 63.9319 1139.4 Z" fill="#000000" fill-rule="nonzero" fill-opacity="1" /><path clip-path="url(#clip970)" d="M84.0938 1168.71 L88.978 1168.71 L88.978 1174.59 L84.0938 1174.59 L84.0938 1168.71 Z" fill="#000000" fill-rule="nonzero" fill-opacity="1" /><path clip-path="url(#clip970)" d="M99.2095 1140.03 L117.566 1140.03 L117.566 1143.96 L103.492 1143.96 L103.492 1152.43 Q104.51 1152.09 105.529 1151.92 Q106.547 1151.74 107.566 1151.74 Q113.353 1151.74 116.733 1154.91 Q120.112 1158.08 120.112 1163.5 Q120.112 1169.08 116.64 1172.18 Q113.168 1175.26 106.848 1175.26 Q104.672 1175.26 102.404 1174.89 Q100.159 1174.52 97.7511 1173.78 L97.7511 1169.08 Q99.8345 1170.21 102.057 1170.77 Q104.279 1171.32 106.756 1171.32 Q110.76 1171.32 113.098 1169.22 Q115.436 1167.11 115.436 1163.5 Q115.436 1159.89 113.098 1157.78 Q110.76 1155.67 106.756 1155.67 Q104.881 1155.67 103.006 1156.09 Q101.154 1156.51 99.2095 1157.39 L99.2095 1140.03 Z" fill="#000000" fill-rule="nonzero" fill-opacity="1" /><path clip-path="url(#clip970)" d="M53.7467 943.719 L61.3856 943.719 L61.3856 917.353 L53.0754 919.02 L53.0754 914.76 L61.3393 913.094 L66.0152 913.094 L66.0152 943.719 L73.654 943.719 L73.654 947.654 L53.7467 947.654 L53.7467 943.719 Z" fill="#000000" fill-rule="nonzero" fill-opacity="1" /><path clip-path="url(#clip970)" d="M83.0984 941.774 L87.9827 941.774 L87.9827 947.654 L83.0984 947.654 L83.0984 941.774 Z" fill="#000000" fill-rule="nonzero" fill-opacity="1" /><path clip-path="url(#clip970)" d="M108.168 916.172 Q104.557 916.172 102.728 919.737 Q100.922 923.279 100.922 930.408 Q100.922 937.515 102.728 941.08 Q104.557 944.621 108.168 944.621 Q111.802 944.621 113.608 941.08 Q115.436 937.515 115.436 930.408 Q115.436 923.279 113.608 919.737 Q111.802 916.172 108.168 916.172 M108.168 912.469 Q113.978 912.469 117.033 917.075 Q120.112 921.658 120.112 930.408 Q120.112 939.135 117.033 943.742 Q113.978 948.325 108.168 948.325 Q102.358 948.325 99.2789 943.742 Q96.2234 939.135 96.2234 930.408 Q96.2234 921.658 99.2789 917.075 Q102.358 912.469 108.168 912.469 Z" fill="#000000" fill-rule="nonzero" fill-opacity="1" /><path clip-path="url(#clip970)" d="M54.7421 716.786 L62.381 716.786 L62.381 690.421 L54.0708 692.087 L54.0708 687.828 L62.3347 686.161 L67.0106 686.161 L67.0106 716.786 L74.6494 716.786 L74.6494 720.721 L54.7421 720.721 L54.7421 716.786 Z" fill="#000000" fill-rule="nonzero" fill-opacity="1" /><path clip-path="url(#clip970)" d="M84.0938 714.842 L88.978 714.842 L88.978 720.721 L84.0938 720.721 L84.0938 714.842 Z" fill="#000000" fill-rule="nonzero" fill-opacity="1" /><path clip-path="url(#clip970)" d="M99.2095 686.161 L117.566 686.161 L117.566 690.097 L103.492 690.097 L103.492 698.569 Q104.51 698.222 105.529 698.06 Q106.547 697.874 107.566 697.874 Q113.353 697.874 116.733 701.046 Q120.112 704.217 120.112 709.634 Q120.112 715.212 116.64 718.314 Q113.168 721.393 106.848 721.393 Q104.672 721.393 102.404 721.022 Q100.159 720.652 97.7511 719.911 L97.7511 715.212 Q99.8345 716.346 102.057 716.902 Q104.279 717.458 106.756 717.458 Q110.76 717.458 113.098 715.351 Q115.436 713.245 115.436 709.634 Q115.436 706.022 113.098 703.916 Q110.76 701.81 106.756 701.81 Q104.881 701.81 103.006 702.226 Q101.154 702.643 99.2095 703.522 L99.2095 686.161 Z" fill="#000000" fill-rule="nonzero" fill-opacity="1" /><path clip-path="url(#clip970)" d="M56.9643 489.854 L73.2837 489.854 L73.2837 493.789 L51.3393 493.789 L51.3393 489.854 Q54.0014 487.099 58.5847 482.47 Q63.1911 477.817 64.3717 476.474 Q66.617 473.951 67.4967 472.215 Q68.3994 470.456 68.3994 468.766 Q68.3994 466.012 66.455 464.275 Q64.5337 462.539 61.4319 462.539 Q59.2328 462.539 56.7791 463.303 Q54.3486 464.067 51.5708 465.618 L51.5708 460.896 Q54.3949 459.762 56.8486 459.183 Q59.3023 458.604 61.3393 458.604 Q66.7096 458.604 69.9041 461.289 Q73.0985 463.975 73.0985 468.465 Q73.0985 470.595 72.2883 472.516 Q71.5013 474.414 69.3948 477.007 Q68.8161 477.678 65.7143 480.896 Q62.6124 484.09 56.9643 489.854 Z" fill="#000000" fill-rule="nonzero" fill-opacity="1" /><path clip-path="url(#clip970)" d="M83.0984 487.91 L87.9827 487.91 L87.9827 493.789 L83.0984 493.789 L83.0984 487.91 Z" fill="#000000" fill-rule="nonzero" fill-opacity="1" /><path clip-path="url(#clip970)" d="M108.168 462.308 Q104.557 462.308 102.728 465.873 Q100.922 469.414 100.922 476.544 Q100.922 483.65 102.728 487.215 Q104.557 490.757 108.168 490.757 Q111.802 490.757 113.608 487.215 Q115.436 483.65 115.436 476.544 Q115.436 469.414 113.608 465.873 Q111.802 462.308 108.168 462.308 M108.168 458.604 Q113.978 458.604 117.033 463.211 Q120.112 467.794 120.112 476.544 Q120.112 485.271 117.033 489.877 Q113.978 494.46 108.168 494.46 Q102.358 494.46 99.2789 489.877 Q96.2234 485.271 96.2234 476.544 Q96.2234 467.794 99.2789 463.211 Q102.358 458.604 108.168 458.604 Z" fill="#000000" fill-rule="nonzero" fill-opacity="1" /><path clip-path="url(#clip970)" d="M57.9597 262.922 L74.279 262.922 L74.279 266.857 L52.3347 266.857 L52.3347 262.922 Q54.9967 260.167 59.58 255.538 Q64.1865 250.885 65.367 249.542 Q67.6124 247.019 68.492 245.283 Q69.3948 243.524 69.3948 241.834 Q69.3948 239.079 67.4504 237.343 Q65.5291 235.607 62.4272 235.607 Q60.2282 235.607 57.7745 236.371 Q55.344 237.135 52.5662 238.686 L52.5662 233.964 Q55.3903 232.829 57.8439 232.251 Q60.2976 231.672 62.3347 231.672 Q67.705 231.672 70.8994 234.357 Q74.0939 237.042 74.0939 241.533 Q74.0939 243.663 73.2837 245.584 Q72.4966 247.482 70.3902 250.075 Q69.8115 250.746 66.7096 253.963 Q63.6078 257.158 57.9597 262.922 Z" fill="#000000" fill-rule="nonzero" fill-opacity="1" /><path clip-path="url(#clip970)" d="M84.0938 260.977 L88.978 260.977 L88.978 266.857 L84.0938 266.857 L84.0938 260.977 Z" fill="#000000" fill-rule="nonzero" fill-opacity="1" /><path clip-path="url(#clip970)" d="M99.2095 232.297 L117.566 232.297 L117.566 236.232 L103.492 236.232 L103.492 244.704 Q104.51 244.357 105.529 244.195 Q106.547 244.01 107.566 244.01 Q113.353 244.01 116.733 247.181 Q120.112 250.352 120.112 255.769 Q120.112 261.348 116.64 264.45 Q113.168 267.528 106.848 267.528 Q104.672 267.528 102.404 267.158 Q100.159 266.787 97.7511 266.047 L97.7511 261.348 Q99.8345 262.482 102.057 263.037 Q104.279 263.593 106.756 263.593 Q110.76 263.593 113.098 261.487 Q115.436 259.38 115.436 255.769 Q115.436 252.158 113.098 250.051 Q110.76 247.945 106.756 247.945 Q104.881 247.945 103.006 248.362 Q101.154 248.778 99.2095 249.658 L99.2095 232.297 Z" fill="#000000" fill-rule="nonzero" fill-opacity="1" /><polyline clip-path="url(#clip972)" style="stroke:#009af9; stroke-linecap:round; stroke-linejoin:round; stroke-width:4; stroke-opacity:1; fill:none" points="924.937,1384.24 924.937,1375.16 979.854,1375.16 1034.77,1375.16 1034.77,1329.77 1089.69,1329.77 1089.69,1229.92 1144.6,1229.92 1144.6,1111.92 1199.52,1111.92 1199.52,648.978 1254.43,648.978 1254.43,485.586 1309.35,485.586 1309.35,285.886 1364.27,285.886 1364.27,149.727 1419.18,149.727 1419.18,86.1857 1474.1,86.1857 1474.1,349.427 1529.01,349.427 1529.01,612.669 1583.93,612.669 1583.93,866.833 1638.85,866.833 1638.85,939.451 1693.76,939.451 1693.76,1257.16 1748.68,1257.16 1748.68,1175.46 1803.59,1175.46 1803.59,1302.54 1858.51,1302.54 1858.51,1329.77 1913.43,1329.77 1968.34,1329.77 1968.34,1375.16 2023.26,1375.16 2023.26,1384.24 2078.18,1384.24 2078.18,1375.16 2133.09,1375.16 2133.09,1384.24 "/>
<polyline clip-path="url(#clip972)" style="stroke:#e26f46; stroke-linecap:round; stroke-linejoin:round; stroke-width:4; stroke-opacity:1; fill:none" points="1254.43,2799.12 1254.43,-1328.69 "/>
<path clip-path="url(#clip970)" d="M1816.31 196.789 L2279.53 196.789 L2279.53 93.1086 L1816.31 93.1086  Z" fill="#ffffff" fill-rule="evenodd" fill-opacity="1"/>
<polyline clip-path="url(#clip970)" style="stroke:#000000; stroke-linecap:round; stroke-linejoin:round; stroke-width:4; stroke-opacity:1; fill:none" points="1816.31,196.789 2279.53,196.789 2279.53,93.1086 1816.31,93.1086 1816.31,196.789 "/>
<polyline clip-path="url(#clip970)" style="stroke:#e26f46; stroke-linecap:round; stroke-linejoin:round; stroke-width:4; stroke-opacity:1; fill:none" points="1840.71,144.949 1987.16,144.949 "/>
<path clip-path="url(#clip970)" d="M2011.56 127.669 L2040.8 127.669 L2040.8 131.604 L2028.53 131.604 L2028.53 162.229 L2023.83 162.229 L2023.83 131.604 L2011.56 131.604 L2011.56 127.669 Z" fill="#000000" fill-rule="nonzero" fill-opacity="1" /><path clip-path="url(#clip970)" d="M2053.18 140.284 Q2052.47 139.868 2051.61 139.682 Q2050.78 139.474 2049.76 139.474 Q2046.15 139.474 2044.2 141.835 Q2042.28 144.173 2042.28 148.571 L2042.28 162.229 L2038 162.229 L2038 136.303 L2042.28 136.303 L2042.28 140.331 Q2043.62 137.969 2045.78 136.835 Q2047.93 135.678 2051.01 135.678 Q2051.45 135.678 2051.98 135.747 Q2052.51 135.794 2053.16 135.909 L2053.18 140.284 Z" fill="#000000" fill-rule="nonzero" fill-opacity="1" /><path clip-path="url(#clip970)" d="M2057.21 151.997 L2057.21 136.303 L2061.47 136.303 L2061.47 151.835 Q2061.47 155.516 2062.91 157.368 Q2064.34 159.196 2067.21 159.196 Q2070.66 159.196 2072.65 156.997 Q2074.67 154.798 2074.67 151.002 L2074.67 136.303 L2078.92 136.303 L2078.92 162.229 L2074.67 162.229 L2074.67 158.247 Q2073.11 160.608 2071.05 161.766 Q2069.02 162.9 2066.31 162.9 Q2061.84 162.9 2059.53 160.122 Q2057.21 157.344 2057.21 151.997 M2067.93 135.678 L2067.93 135.678 Z" fill="#000000" fill-rule="nonzero" fill-opacity="1" /><path clip-path="url(#clip970)" d="M2109.87 148.201 L2109.87 150.284 L2090.29 150.284 Q2090.57 154.682 2092.93 156.997 Q2095.31 159.289 2099.55 159.289 Q2102 159.289 2104.29 158.687 Q2106.61 158.085 2108.88 156.881 L2108.88 160.909 Q2106.59 161.881 2104.18 162.391 Q2101.77 162.9 2099.29 162.9 Q2093.09 162.9 2089.46 159.289 Q2085.85 155.678 2085.85 149.52 Q2085.85 143.155 2089.27 139.428 Q2092.72 135.678 2098.55 135.678 Q2103.79 135.678 2106.82 139.057 Q2109.87 142.414 2109.87 148.201 M2105.61 146.951 Q2105.57 143.456 2103.65 141.372 Q2101.75 139.289 2098.6 139.289 Q2095.04 139.289 2092.88 141.303 Q2090.75 143.317 2090.43 146.974 L2105.61 146.951 Z" fill="#000000" fill-rule="nonzero" fill-opacity="1" /><path clip-path="url(#clip970)" d="M2141.03 162.229 L2127.84 127.669 L2132.72 127.669 L2143.67 156.766 L2154.64 127.669 L2159.5 127.669 L2146.33 162.229 L2141.03 162.229 Z" fill="#000000" fill-rule="nonzero" fill-opacity="1" /><path clip-path="url(#clip970)" d="M2172.47 149.196 Q2167.3 149.196 2165.31 150.377 Q2163.32 151.557 2163.32 154.405 Q2163.32 156.673 2164.8 158.016 Q2166.31 159.335 2168.88 159.335 Q2172.42 159.335 2174.55 156.835 Q2176.7 154.312 2176.7 150.145 L2176.7 149.196 L2172.47 149.196 M2180.96 147.437 L2180.96 162.229 L2176.7 162.229 L2176.7 158.293 Q2175.24 160.655 2173.07 161.789 Q2170.89 162.9 2167.74 162.9 Q2163.76 162.9 2161.4 160.678 Q2159.06 158.432 2159.06 154.682 Q2159.06 150.307 2161.98 148.085 Q2164.92 145.863 2170.73 145.863 L2176.7 145.863 L2176.7 145.446 Q2176.7 142.507 2174.76 140.909 Q2172.84 139.289 2169.34 139.289 Q2167.12 139.289 2165.01 139.821 Q2162.91 140.354 2160.96 141.419 L2160.96 137.483 Q2163.3 136.581 2165.5 136.141 Q2167.7 135.678 2169.78 135.678 Q2175.41 135.678 2178.18 138.594 Q2180.96 141.511 2180.96 147.437 Z" fill="#000000" fill-rule="nonzero" fill-opacity="1" /><path clip-path="url(#clip970)" d="M2189.73 126.21 L2193.99 126.21 L2193.99 162.229 L2189.73 162.229 L2189.73 126.21 Z" fill="#000000" fill-rule="nonzero" fill-opacity="1" /><path clip-path="url(#clip970)" d="M2202.47 151.997 L2202.47 136.303 L2206.72 136.303 L2206.72 151.835 Q2206.72 155.516 2208.16 157.368 Q2209.6 159.196 2212.47 159.196 Q2215.91 159.196 2217.91 156.997 Q2219.92 154.798 2219.92 151.002 L2219.92 136.303 L2224.18 136.303 L2224.18 162.229 L2219.92 162.229 L2219.92 158.247 Q2218.37 160.608 2216.31 161.766 Q2214.27 162.9 2211.56 162.9 Q2207.1 162.9 2204.78 160.122 Q2202.47 157.344 2202.47 151.997 M2213.18 135.678 L2213.18 135.678 Z" fill="#000000" fill-rule="nonzero" fill-opacity="1" /><path clip-path="url(#clip970)" d="M2255.13 148.201 L2255.13 150.284 L2235.54 150.284 Q2235.82 154.682 2238.18 156.997 Q2240.57 159.289 2244.8 159.289 Q2247.26 159.289 2249.55 158.687 Q2251.86 158.085 2254.13 156.881 L2254.13 160.909 Q2251.84 161.881 2249.43 162.391 Q2247.03 162.9 2244.55 162.9 Q2238.34 162.9 2234.71 159.289 Q2231.1 155.678 2231.1 149.52 Q2231.1 143.155 2234.53 139.428 Q2237.97 135.678 2243.81 135.678 Q2249.04 135.678 2252.07 139.057 Q2255.13 142.414 2255.13 148.201 M2250.87 146.951 Q2250.82 143.456 2248.9 141.372 Q2247 139.289 2243.85 139.289 Q2240.29 139.289 2238.14 141.303 Q2236.01 143.317 2235.68 146.974 L2250.87 146.951 Z" fill="#000000" fill-rule="nonzero" fill-opacity="1" /></svg>
