<?xml version="1.0" encoding="utf-8"?>
<svg xmlns="http://www.w3.org/2000/svg" xmlns:xlink="http://www.w3.org/1999/xlink" width="600" height="400" viewBox="0 0 2400 1600">
<defs>
  <clipPath id="clip430">
    <rect x="0" y="0" width="2400" height="1600"/>
  </clipPath>
</defs>
<path clip-path="url(#clip430)" d="M0 1600 L2400 1600 L2400 0 L0 0  Z" fill="#ffffff" fill-rule="evenodd" fill-opacity="1"/>
<defs>
  <clipPath id="clip431">
    <rect x="251" y="47" width="2102" height="1377"/>
  </clipPath>
</defs>
<path clip-path="url(#clip430)" d="M242.135 1423.18 L2352.76 1423.18 L2352.76 47.2441 L242.135 47.2441  Z" fill="#ffffff" fill-rule="evenodd" fill-opacity="1"/>
<defs>
  <clipPath id="clip432">
    <rect x="242" y="47" width="2112" height="1377"/>
  </clipPath>
</defs>
<polyline clip-path="url(#clip432)" style="stroke:#000000; stroke-linecap:round; stroke-linejoin:round; stroke-width:2; stroke-opacity:0.1; fill:none" points="299.876,1423.18 299.876,47.2441 "/>
<polyline clip-path="url(#clip432)" style="stroke:#000000; stroke-linecap:round; stroke-linejoin:round; stroke-width:2; stroke-opacity:0.1; fill:none" points="798.162,1423.18 798.162,47.2441 "/>
<polyline clip-path="url(#clip432)" style="stroke:#000000; stroke-linecap:round; stroke-linejoin:round; stroke-width:2; stroke-opacity:0.1; fill:none" points="1296.45,1423.18 1296.45,47.2441 "/>
<polyline clip-path="url(#clip432)" style="stroke:#000000; stroke-linecap:round; stroke-linejoin:round; stroke-width:2; stroke-opacity:0.1; fill:none" points="1794.74,1423.18 1794.74,47.2441 "/>
<polyline clip-path="url(#clip432)" style="stroke:#000000; stroke-linecap:round; stroke-linejoin:round; stroke-width:2; stroke-opacity:0.1; fill:none" points="2293.02,1423.18 2293.02,47.2441 "/>
<polyline clip-path="url(#clip432)" style="stroke:#000000; stroke-linecap:round; stroke-linejoin:round; stroke-width:2; stroke-opacity:0.1; fill:none" points="242.135,1401.55 2352.76,1401.55 "/>
<polyline clip-path="url(#clip432)" style="stroke:#000000; stroke-linecap:round; stroke-linejoin:round; stroke-width:2; stroke-opacity:0.1; fill:none" points="242.135,1020.18 2352.76,1020.18 "/>
<polyline clip-path="url(#clip432)" style="stroke:#000000; stroke-linecap:round; stroke-linejoin:round; stroke-width:2; stroke-opacity:0.1; fill:none" points="242.135,638.81 2352.76,638.81 "/>
<polyline clip-path="url(#clip432)" style="stroke:#000000; stroke-linecap:round; stroke-linejoin:round; stroke-width:2; stroke-opacity:0.1; fill:none" points="242.135,257.441 2352.76,257.441 "/>
<polyline clip-path="url(#clip430)" style="stroke:#000000; stroke-linecap:round; stroke-linejoin:round; stroke-width:4; stroke-opacity:1; fill:none" points="242.135,1423.18 2352.76,1423.18 "/>
<polyline clip-path="url(#clip430)" style="stroke:#000000; stroke-linecap:round; stroke-linejoin:round; stroke-width:4; stroke-opacity:1; fill:none" points="299.876,1423.18 299.876,1404.28 "/>
<polyline clip-path="url(#clip430)" style="stroke:#000000; stroke-linecap:round; stroke-linejoin:round; stroke-width:4; stroke-opacity:1; fill:none" points="798.162,1423.18 798.162,1404.28 "/>
<polyline clip-path="url(#clip430)" style="stroke:#000000; stroke-linecap:round; stroke-linejoin:round; stroke-width:4; stroke-opacity:1; fill:none" points="1296.45,1423.18 1296.45,1404.28 "/>
<polyline clip-path="url(#clip430)" style="stroke:#000000; stroke-linecap:round; stroke-linejoin:round; stroke-width:4; stroke-opacity:1; fill:none" points="1794.74,1423.18 1794.74,1404.28 "/>
<polyline clip-path="url(#clip430)" style="stroke:#000000; stroke-linecap:round; stroke-linejoin:round; stroke-width:4; stroke-opacity:1; fill:none" points="2293.02,1423.18 2293.02,1404.28 "/>
<path clip-path="url(#clip430)" d="M299.876 1454.1 Q296.265 1454.1 294.436 1457.66 Q292.631 1461.2 292.631 1468.33 Q292.631 1475.44 294.436 1479.01 Q296.265 1482.55 299.876 1482.55 Q303.51 1482.55 305.316 1479.01 Q307.145 1475.44 307.145 1468.33 Q307.145 1461.2 305.316 1457.66 Q303.51 1454.1 299.876 1454.1 M299.876 1450.39 Q305.686 1450.39 308.742 1455 Q311.82 1459.58 311.82 1468.33 Q311.82 1477.06 308.742 1481.67 Q305.686 1486.25 299.876 1486.25 Q294.066 1486.25 290.987 1481.67 Q287.932 1477.06 287.932 1468.33 Q287.932 1459.58 290.987 1455 Q294.066 1450.39 299.876 1450.39 Z" fill="#000000" fill-rule="nonzero" fill-opacity="1" /><path clip-path="url(#clip430)" d="M761.855 1481.64 L778.174 1481.64 L778.174 1485.58 L756.23 1485.58 L756.23 1481.64 Q758.892 1478.89 763.475 1474.26 Q768.082 1469.61 769.262 1468.27 Q771.507 1465.74 772.387 1464.01 Q773.29 1462.25 773.29 1460.56 Q773.29 1457.8 771.345 1456.07 Q769.424 1454.33 766.322 1454.33 Q764.123 1454.33 761.67 1455.09 Q759.239 1455.86 756.461 1457.41 L756.461 1452.69 Q759.285 1451.55 761.739 1450.97 Q764.193 1450.39 766.23 1450.39 Q771.6 1450.39 774.794 1453.08 Q777.989 1455.77 777.989 1460.26 Q777.989 1462.39 777.179 1464.31 Q776.392 1466.2 774.285 1468.8 Q773.707 1469.47 770.605 1472.69 Q767.503 1475.88 761.855 1481.64 Z" fill="#000000" fill-rule="nonzero" fill-opacity="1" /><path clip-path="url(#clip430)" d="M788.035 1451.02 L806.392 1451.02 L806.392 1454.96 L792.318 1454.96 L792.318 1463.43 Q793.336 1463.08 794.355 1462.92 Q795.373 1462.73 796.392 1462.73 Q802.179 1462.73 805.558 1465.9 Q808.938 1469.08 808.938 1474.49 Q808.938 1480.07 805.466 1483.17 Q801.993 1486.25 795.674 1486.25 Q793.498 1486.25 791.23 1485.88 Q788.984 1485.51 786.577 1484.77 L786.577 1480.07 Q788.66 1481.2 790.882 1481.76 Q793.105 1482.32 795.581 1482.32 Q799.586 1482.32 801.924 1480.21 Q804.262 1478.1 804.262 1474.49 Q804.262 1470.88 801.924 1468.77 Q799.586 1466.67 795.581 1466.67 Q793.706 1466.67 791.831 1467.08 Q789.98 1467.5 788.035 1468.38 L788.035 1451.02 Z" fill="#000000" fill-rule="nonzero" fill-opacity="1" /><path clip-path="url(#clip430)" d="M828.151 1454.1 Q824.54 1454.1 822.711 1457.66 Q820.905 1461.2 820.905 1468.33 Q820.905 1475.44 822.711 1479.01 Q824.54 1482.55 828.151 1482.55 Q831.785 1482.55 833.59 1479.01 Q835.419 1475.44 835.419 1468.33 Q835.419 1461.2 833.59 1457.66 Q831.785 1454.1 828.151 1454.1 M828.151 1450.39 Q833.961 1450.39 837.016 1455 Q840.095 1459.58 840.095 1468.33 Q840.095 1477.06 837.016 1481.67 Q833.961 1486.25 828.151 1486.25 Q822.341 1486.25 819.262 1481.67 Q816.206 1477.06 816.206 1468.33 Q816.206 1459.58 819.262 1455 Q822.341 1450.39 828.151 1450.39 Z" fill="#000000" fill-rule="nonzero" fill-opacity="1" /><path clip-path="url(#clip430)" d="M1256.07 1451.02 L1274.42 1451.02 L1274.42 1454.96 L1260.35 1454.96 L1260.35 1463.43 Q1261.37 1463.08 1262.39 1462.92 Q1263.4 1462.73 1264.42 1462.73 Q1270.21 1462.73 1273.59 1465.9 Q1276.97 1469.08 1276.97 1474.49 Q1276.97 1480.07 1273.5 1483.17 Q1270.03 1486.25 1263.71 1486.25 Q1261.53 1486.25 1259.26 1485.88 Q1257.02 1485.51 1254.61 1484.77 L1254.61 1480.07 Q1256.69 1481.2 1258.91 1481.76 Q1261.14 1482.32 1263.61 1482.32 Q1267.62 1482.32 1269.96 1480.21 Q1272.29 1478.1 1272.29 1474.49 Q1272.29 1470.88 1269.96 1468.77 Q1267.62 1466.67 1263.61 1466.67 Q1261.74 1466.67 1259.86 1467.08 Q1258.01 1467.5 1256.07 1468.38 L1256.07 1451.02 Z" fill="#000000" fill-rule="nonzero" fill-opacity="1" /><path clip-path="url(#clip430)" d="M1296.18 1454.1 Q1292.57 1454.1 1290.74 1457.66 Q1288.94 1461.2 1288.94 1468.33 Q1288.94 1475.44 1290.74 1479.01 Q1292.57 1482.55 1296.18 1482.55 Q1299.82 1482.55 1301.62 1479.01 Q1303.45 1475.44 1303.45 1468.33 Q1303.45 1461.2 1301.62 1457.66 Q1299.82 1454.1 1296.18 1454.1 M1296.18 1450.39 Q1301.99 1450.39 1305.05 1455 Q1308.13 1459.58 1308.13 1468.33 Q1308.13 1477.06 1305.05 1481.67 Q1301.99 1486.25 1296.18 1486.25 Q1290.37 1486.25 1287.29 1481.67 Q1284.24 1477.06 1284.24 1468.33 Q1284.24 1459.58 1287.29 1455 Q1290.37 1450.39 1296.18 1450.39 Z" fill="#000000" fill-rule="nonzero" fill-opacity="1" /><path clip-path="url(#clip430)" d="M1326.34 1454.1 Q1322.73 1454.1 1320.9 1457.66 Q1319.1 1461.2 1319.1 1468.33 Q1319.1 1475.44 1320.9 1479.01 Q1322.73 1482.55 1326.34 1482.55 Q1329.98 1482.55 1331.78 1479.01 Q1333.61 1475.44 1333.61 1468.33 Q1333.61 1461.2 1331.78 1457.66 Q1329.98 1454.1 1326.34 1454.1 M1326.34 1450.39 Q1332.15 1450.39 1335.21 1455 Q1338.29 1459.58 1338.29 1468.33 Q1338.29 1477.06 1335.21 1481.67 Q1332.15 1486.25 1326.34 1486.25 Q1320.53 1486.25 1317.46 1481.67 Q1314.4 1477.06 1314.4 1468.33 Q1314.4 1459.58 1317.46 1455 Q1320.53 1450.39 1326.34 1450.39 Z" fill="#000000" fill-rule="nonzero" fill-opacity="1" /><path clip-path="url(#clip430)" d="M1753.01 1451.02 L1775.23 1451.02 L1775.23 1453.01 L1762.69 1485.58 L1757.8 1485.58 L1769.61 1454.96 L1753.01 1454.96 L1753.01 1451.02 Z" fill="#000000" fill-rule="nonzero" fill-opacity="1" /><path clip-path="url(#clip430)" d="M1784.4 1451.02 L1802.76 1451.02 L1802.76 1454.96 L1788.68 1454.96 L1788.68 1463.43 Q1789.7 1463.08 1790.72 1462.92 Q1791.74 1462.73 1792.76 1462.73 Q1798.54 1462.73 1801.92 1465.9 Q1805.3 1469.08 1805.3 1474.49 Q1805.3 1480.07 1801.83 1483.17 Q1798.36 1486.25 1792.04 1486.25 Q1789.86 1486.25 1787.59 1485.88 Q1785.35 1485.51 1782.94 1484.77 L1782.94 1480.07 Q1785.02 1481.2 1787.25 1481.76 Q1789.47 1482.32 1791.95 1482.32 Q1795.95 1482.32 1798.29 1480.21 Q1800.63 1478.1 1800.63 1474.49 Q1800.63 1470.88 1798.29 1468.77 Q1795.95 1466.67 1791.95 1466.67 Q1790.07 1466.67 1788.2 1467.08 Q1786.34 1467.5 1784.4 1468.38 L1784.4 1451.02 Z" fill="#000000" fill-rule="nonzero" fill-opacity="1" /><path clip-path="url(#clip430)" d="M1824.51 1454.1 Q1820.9 1454.1 1819.08 1457.66 Q1817.27 1461.2 1817.27 1468.33 Q1817.27 1475.44 1819.08 1479.01 Q1820.9 1482.55 1824.51 1482.55 Q1828.15 1482.55 1829.95 1479.01 Q1831.78 1475.44 1831.78 1468.33 Q1831.78 1461.2 1829.95 1457.66 Q1828.15 1454.1 1824.51 1454.1 M1824.51 1450.39 Q1830.33 1450.39 1833.38 1455 Q1836.46 1459.58 1836.46 1468.33 Q1836.46 1477.06 1833.38 1481.67 Q1830.33 1486.25 1824.51 1486.25 Q1818.7 1486.25 1815.63 1481.67 Q1812.57 1477.06 1812.57 1468.33 Q1812.57 1459.58 1815.63 1455 Q1818.7 1450.39 1824.51 1450.39 Z" fill="#000000" fill-rule="nonzero" fill-opacity="1" /><path clip-path="url(#clip430)" d="M2237.55 1481.64 L2245.19 1481.64 L2245.19 1455.28 L2236.88 1456.95 L2236.88 1452.69 L2245.14 1451.02 L2249.82 1451.02 L2249.82 1481.64 L2257.45 1481.64 L2257.45 1485.58 L2237.55 1485.58 L2237.55 1481.64 Z" fill="#000000" fill-rule="nonzero" fill-opacity="1" /><path clip-path="url(#clip430)" d="M2276.9 1454.1 Q2273.29 1454.1 2271.46 1457.66 Q2269.65 1461.2 2269.65 1468.33 Q2269.65 1475.44 2271.46 1479.01 Q2273.29 1482.55 2276.9 1482.55 Q2280.53 1482.55 2282.34 1479.01 Q2284.17 1475.44 2284.17 1468.33 Q2284.17 1461.2 2282.34 1457.66 Q2280.53 1454.1 2276.9 1454.1 M2276.9 1450.39 Q2282.71 1450.39 2285.76 1455 Q2288.84 1459.58 2288.84 1468.33 Q2288.84 1477.06 2285.76 1481.67 Q2282.71 1486.25 2276.9 1486.25 Q2271.09 1486.25 2268.01 1481.67 Q2264.95 1477.06 2264.95 1468.33 Q2264.95 1459.58 2268.01 1455 Q2271.09 1450.39 2276.9 1450.39 Z" fill="#000000" fill-rule="nonzero" fill-opacity="1" /><path clip-path="url(#clip430)" d="M2307.06 1454.1 Q2303.45 1454.1 2301.62 1457.66 Q2299.82 1461.2 2299.82 1468.33 Q2299.82 1475.44 2301.62 1479.01 Q2303.45 1482.55 2307.06 1482.55 Q2310.69 1482.55 2312.5 1479.01 Q2314.33 1475.44 2314.33 1468.33 Q2314.33 1461.2 2312.5 1457.66 Q2310.69 1454.1 2307.06 1454.1 M2307.06 1450.39 Q2312.87 1450.39 2315.93 1455 Q2319 1459.58 2319 1468.33 Q2319 1477.06 2315.93 1481.67 Q2312.87 1486.25 2307.06 1486.25 Q2301.25 1486.25 2298.17 1481.67 Q2295.12 1477.06 2295.12 1468.33 Q2295.12 1459.58 2298.17 1455 Q2301.25 1450.39 2307.06 1450.39 Z" fill="#000000" fill-rule="nonzero" fill-opacity="1" /><path clip-path="url(#clip430)" d="M2337.22 1454.1 Q2333.61 1454.1 2331.78 1457.66 Q2329.98 1461.2 2329.98 1468.33 Q2329.98 1475.44 2331.78 1479.01 Q2333.61 1482.55 2337.22 1482.55 Q2340.86 1482.55 2342.66 1479.01 Q2344.49 1475.44 2344.49 1468.33 Q2344.49 1461.2 2342.66 1457.66 Q2340.86 1454.1 2337.22 1454.1 M2337.22 1450.39 Q2343.03 1450.39 2346.09 1455 Q2349.17 1459.58 2349.17 1468.33 Q2349.17 1477.06 2346.09 1481.67 Q2343.03 1486.25 2337.22 1486.25 Q2331.41 1486.25 2328.33 1481.67 Q2325.28 1477.06 2325.28 1468.33 Q2325.28 1459.58 2328.33 1455 Q2331.41 1450.39 2337.22 1450.39 Z" fill="#000000" fill-rule="nonzero" fill-opacity="1" /><path clip-path="url(#clip430)" d="M1165.17 1520.52 L1171.6 1520.52 L1171.6 1568.04 L1165.17 1568.04 L1165.17 1520.52 Z" fill="#000000" fill-rule="nonzero" fill-opacity="1" /><path clip-path="url(#clip430)" d="M1189.93 1522.27 L1189.93 1532.4 L1201.99 1532.4 L1201.99 1536.95 L1189.93 1536.95 L1189.93 1556.3 Q1189.93 1560.66 1191.11 1561.9 Q1192.32 1563.14 1195.98 1563.14 L1201.99 1563.14 L1201.99 1568.04 L1195.98 1568.04 Q1189.2 1568.04 1186.62 1565.53 Q1184.04 1562.98 1184.04 1556.3 L1184.04 1536.95 L1179.74 1536.95 L1179.74 1532.4 L1184.04 1532.4 L1184.04 1522.27 L1189.93 1522.27 Z" fill="#000000" fill-rule="nonzero" fill-opacity="1" /><path clip-path="url(#clip430)" d="M1240.19 1548.76 L1240.19 1551.62 L1213.26 1551.62 Q1213.64 1557.67 1216.89 1560.85 Q1220.17 1564 1225.99 1564 Q1229.36 1564 1232.52 1563.17 Q1235.7 1562.35 1238.82 1560.69 L1238.82 1566.23 Q1235.67 1567.57 1232.36 1568.27 Q1229.05 1568.97 1225.64 1568.97 Q1217.11 1568.97 1212.11 1564 Q1207.15 1559.04 1207.15 1550.57 Q1207.15 1541.82 1211.86 1536.69 Q1216.6 1531.54 1224.62 1531.54 Q1231.81 1531.54 1235.98 1536.18 Q1240.19 1540.8 1240.19 1548.76 M1234.33 1547.04 Q1234.27 1542.23 1231.62 1539.37 Q1229.01 1536.5 1224.69 1536.5 Q1219.78 1536.5 1216.82 1539.27 Q1213.9 1542.04 1213.45 1547.07 L1234.33 1547.04 Z" fill="#000000" fill-rule="nonzero" fill-opacity="1" /><path clip-path="url(#clip430)" d="M1270.45 1537.87 Q1269.47 1537.3 1268.29 1537.04 Q1267.14 1536.76 1265.74 1536.76 Q1260.78 1536.76 1258.11 1540 Q1255.46 1543.22 1255.46 1549.27 L1255.46 1568.04 L1249.58 1568.04 L1249.58 1532.4 L1255.46 1532.4 L1255.46 1537.93 Q1257.31 1534.69 1260.27 1533.13 Q1263.23 1531.54 1267.46 1531.54 Q1268.07 1531.54 1268.8 1531.63 Q1269.53 1531.7 1270.42 1531.85 L1270.45 1537.87 Z" fill="#000000" fill-rule="nonzero" fill-opacity="1" /><path clip-path="url(#clip430)" d="M1292.8 1550.12 Q1285.7 1550.12 1282.96 1551.75 Q1280.23 1553.37 1280.23 1557.29 Q1280.23 1560.4 1282.26 1562.25 Q1284.33 1564.07 1287.86 1564.07 Q1292.73 1564.07 1295.66 1560.63 Q1298.62 1557.16 1298.62 1551.43 L1298.62 1550.12 L1292.8 1550.12 M1304.48 1547.71 L1304.48 1568.04 L1298.62 1568.04 L1298.62 1562.63 Q1296.62 1565.88 1293.63 1567.44 Q1290.63 1568.97 1286.31 1568.97 Q1280.83 1568.97 1277.58 1565.91 Q1274.37 1562.82 1274.37 1557.67 Q1274.37 1551.65 1278.38 1548.6 Q1282.42 1545.54 1290.41 1545.54 L1298.62 1545.54 L1298.62 1544.97 Q1298.62 1540.93 1295.95 1538.73 Q1293.31 1536.5 1288.5 1536.5 Q1285.45 1536.5 1282.55 1537.23 Q1279.65 1537.97 1276.98 1539.43 L1276.98 1534.02 Q1280.19 1532.78 1283.22 1532.17 Q1286.24 1531.54 1289.11 1531.54 Q1296.84 1531.54 1300.66 1535.55 Q1304.48 1539.56 1304.48 1547.71 Z" fill="#000000" fill-rule="nonzero" fill-opacity="1" /><path clip-path="url(#clip430)" d="M1322.34 1522.27 L1322.34 1532.4 L1334.4 1532.4 L1334.4 1536.95 L1322.34 1536.95 L1322.34 1556.3 Q1322.34 1560.66 1323.51 1561.9 Q1324.72 1563.14 1328.38 1563.14 L1334.4 1563.14 L1334.4 1568.04 L1328.38 1568.04 Q1321.6 1568.04 1319.03 1565.53 Q1316.45 1562.98 1316.45 1556.3 L1316.45 1536.95 L1312.15 1536.95 L1312.15 1532.4 L1316.45 1532.4 L1316.45 1522.27 L1322.34 1522.27 Z" fill="#000000" fill-rule="nonzero" fill-opacity="1" /><path clip-path="url(#clip430)" d="M1342.1 1532.4 L1347.96 1532.4 L1347.96 1568.04 L1342.1 1568.04 L1342.1 1532.4 M1342.1 1518.52 L1347.96 1518.52 L1347.96 1525.93 L1342.1 1525.93 L1342.1 1518.52 Z" fill="#000000" fill-rule="nonzero" fill-opacity="1" /><path clip-path="url(#clip430)" d="M1374.02 1536.5 Q1369.31 1536.5 1366.58 1540.19 Q1363.84 1543.85 1363.84 1550.25 Q1363.84 1556.65 1366.55 1560.34 Q1369.28 1564 1374.02 1564 Q1378.7 1564 1381.44 1560.31 Q1384.18 1556.62 1384.18 1550.25 Q1384.18 1543.92 1381.44 1540.23 Q1378.7 1536.5 1374.02 1536.5 M1374.02 1531.54 Q1381.66 1531.54 1386.02 1536.5 Q1390.38 1541.47 1390.38 1550.25 Q1390.38 1559 1386.02 1564 Q1381.66 1568.97 1374.02 1568.97 Q1366.35 1568.97 1361.99 1564 Q1357.66 1559 1357.66 1550.25 Q1357.66 1541.47 1361.99 1536.5 Q1366.35 1531.54 1374.02 1531.54 Z" fill="#000000" fill-rule="nonzero" fill-opacity="1" /><path clip-path="url(#clip430)" d="M1429.72 1546.53 L1429.72 1568.04 L1423.87 1568.04 L1423.87 1546.72 Q1423.87 1541.66 1421.89 1539.14 Q1419.92 1536.63 1415.97 1536.63 Q1411.23 1536.63 1408.5 1539.65 Q1405.76 1542.68 1405.76 1547.9 L1405.76 1568.04 L1399.87 1568.04 L1399.87 1532.4 L1405.76 1532.4 L1405.76 1537.93 Q1407.86 1534.72 1410.69 1533.13 Q1413.56 1531.54 1417.28 1531.54 Q1423.42 1531.54 1426.57 1535.36 Q1429.72 1539.14 1429.72 1546.53 Z" fill="#000000" fill-rule="nonzero" fill-opacity="1" /><polyline clip-path="url(#clip430)" style="stroke:#000000; stroke-linecap:round; stroke-linejoin:round; stroke-width:4; stroke-opacity:1; fill:none" points="242.135,1423.18 242.135,47.2441 "/>
<polyline clip-path="url(#clip430)" style="stroke:#000000; stroke-linecap:round; stroke-linejoin:round; stroke-width:4; stroke-opacity:1; fill:none" points="242.135,1401.55 261.032,1401.55 "/>
<polyline clip-path="url(#clip430)" style="stroke:#000000; stroke-linecap:round; stroke-linejoin:round; stroke-width:4; stroke-opacity:1; fill:none" points="242.135,1020.18 261.032,1020.18 "/>
<polyline clip-path="url(#clip430)" style="stroke:#000000; stroke-linecap:round; stroke-linejoin:round; stroke-width:4; stroke-opacity:1; fill:none" points="242.135,638.81 261.032,638.81 "/>
<polyline clip-path="url(#clip430)" style="stroke:#000000; stroke-linecap:round; stroke-linejoin:round; stroke-width:4; stroke-opacity:1; fill:none" points="242.135,257.441 261.032,257.441 "/>
<path clip-path="url(#clip430)" d="M114.26 1402 L143.936 1402 L143.936 1405.93 L114.26 1405.93 L114.26 1402 Z" fill="#000000" fill-rule="nonzero" fill-opacity="1" /><path clip-path="url(#clip430)" d="M168.195 1400.19 Q171.552 1400.91 173.427 1403.18 Q175.325 1405.45 175.325 1408.78 Q175.325 1413.9 171.806 1416.7 Q168.288 1419.5 161.806 1419.5 Q159.63 1419.5 157.315 1419.06 Q155.024 1418.64 152.57 1417.79 L152.57 1413.27 Q154.515 1414.41 156.829 1414.98 Q159.144 1415.56 161.667 1415.56 Q166.065 1415.56 168.357 1413.83 Q170.672 1412.09 170.672 1408.78 Q170.672 1405.73 168.519 1404.01 Q166.39 1402.28 162.57 1402.28 L158.542 1402.28 L158.542 1398.43 L162.755 1398.43 Q166.204 1398.43 168.033 1397.07 Q169.862 1395.68 169.862 1393.09 Q169.862 1390.42 167.964 1389.01 Q166.089 1387.58 162.57 1387.58 Q160.649 1387.58 158.45 1387.99 Q156.251 1388.41 153.612 1389.29 L153.612 1385.12 Q156.274 1384.38 158.589 1384.01 Q160.927 1383.64 162.987 1383.64 Q168.311 1383.64 171.413 1386.07 Q174.514 1388.48 174.514 1392.6 Q174.514 1395.47 172.871 1397.46 Q171.227 1399.43 168.195 1400.19 Z" fill="#000000" fill-rule="nonzero" fill-opacity="1" /><path clip-path="url(#clip430)" d="M194.19 1387.35 Q190.579 1387.35 188.75 1390.91 Q186.945 1394.45 186.945 1401.58 Q186.945 1408.69 188.75 1412.25 Q190.579 1415.8 194.19 1415.8 Q197.825 1415.8 199.63 1412.25 Q201.459 1408.69 201.459 1401.58 Q201.459 1394.45 199.63 1390.91 Q197.825 1387.35 194.19 1387.35 M194.19 1383.64 Q200 1383.64 203.056 1388.25 Q206.135 1392.83 206.135 1401.58 Q206.135 1410.31 203.056 1414.92 Q200 1419.5 194.19 1419.5 Q188.38 1419.5 185.301 1414.92 Q182.246 1410.31 182.246 1401.58 Q182.246 1392.83 185.301 1388.25 Q188.38 1383.64 194.19 1383.64 Z" fill="#000000" fill-rule="nonzero" fill-opacity="1" /><path clip-path="url(#clip430)" d="M114.26 1020.63 L143.936 1020.63 L143.936 1024.57 L114.26 1024.57 L114.26 1020.63 Z" fill="#000000" fill-rule="nonzero" fill-opacity="1" /><path clip-path="url(#clip430)" d="M158.056 1033.52 L174.376 1033.52 L174.376 1037.46 L152.431 1037.46 L152.431 1033.52 Q155.093 1030.77 159.677 1026.14 Q164.283 1021.49 165.464 1020.14 Q167.709 1017.62 168.589 1015.88 Q169.491 1014.13 169.491 1012.44 Q169.491 1009.68 167.547 1007.95 Q165.626 1006.21 162.524 1006.21 Q160.325 1006.21 157.871 1006.97 Q155.44 1007.74 152.663 1009.29 L152.663 1004.57 Q155.487 1003.43 157.94 1002.85 Q160.394 1002.27 162.431 1002.27 Q167.802 1002.27 170.996 1004.96 Q174.19 1007.64 174.19 1012.13 Q174.19 1014.26 173.38 1016.19 Q172.593 1018.08 170.487 1020.68 Q169.908 1021.35 166.806 1024.57 Q163.704 1027.76 158.056 1033.52 Z" fill="#000000" fill-rule="nonzero" fill-opacity="1" /><path clip-path="url(#clip430)" d="M194.19 1005.98 Q190.579 1005.98 188.75 1009.54 Q186.945 1013.08 186.945 1020.21 Q186.945 1027.32 188.75 1030.88 Q190.579 1034.43 194.19 1034.43 Q197.825 1034.43 199.63 1030.88 Q201.459 1027.32 201.459 1020.21 Q201.459 1013.08 199.63 1009.54 Q197.825 1005.98 194.19 1005.98 M194.19 1002.27 Q200 1002.27 203.056 1006.88 Q206.135 1011.46 206.135 1020.21 Q206.135 1028.94 203.056 1033.55 Q200 1038.13 194.19 1038.13 Q188.38 1038.13 185.301 1033.55 Q182.246 1028.94 182.246 1020.21 Q182.246 1011.46 185.301 1006.88 Q188.38 1002.27 194.19 1002.27 Z" fill="#000000" fill-rule="nonzero" fill-opacity="1" /><path clip-path="url(#clip430)" d="M114.26 639.262 L143.936 639.262 L143.936 643.197 L114.26 643.197 L114.26 639.262 Z" fill="#000000" fill-rule="nonzero" fill-opacity="1" /><path clip-path="url(#clip430)" d="M154.839 652.155 L162.477 652.155 L162.477 625.789 L154.167 627.456 L154.167 623.197 L162.431 621.53 L167.107 621.53 L167.107 652.155 L174.746 652.155 L174.746 656.09 L154.839 656.09 L154.839 652.155 Z" fill="#000000" fill-rule="nonzero" fill-opacity="1" /><path clip-path="url(#clip430)" d="M194.19 624.609 Q190.579 624.609 188.75 628.174 Q186.945 631.715 186.945 638.845 Q186.945 645.951 188.75 649.516 Q190.579 653.058 194.19 653.058 Q197.825 653.058 199.63 649.516 Q201.459 645.951 201.459 638.845 Q201.459 631.715 199.63 628.174 Q197.825 624.609 194.19 624.609 M194.19 620.905 Q200 620.905 203.056 625.512 Q206.135 630.095 206.135 638.845 Q206.135 647.572 203.056 652.178 Q200 656.761 194.19 656.761 Q188.38 656.761 185.301 652.178 Q182.246 647.572 182.246 638.845 Q182.246 630.095 185.301 625.512 Q188.38 620.905 194.19 620.905 Z" fill="#000000" fill-rule="nonzero" fill-opacity="1" /><path clip-path="url(#clip430)" d="M194.19 243.24 Q190.579 243.24 188.75 246.805 Q186.945 250.347 186.945 257.476 Q186.945 264.583 188.75 268.147 Q190.579 271.689 194.19 271.689 Q197.825 271.689 199.63 268.147 Q201.459 264.583 201.459 257.476 Q201.459 250.347 199.63 246.805 Q197.825 243.24 194.19 243.24 M194.19 239.536 Q200 239.536 203.056 244.143 Q206.135 248.726 206.135 257.476 Q206.135 266.203 203.056 270.809 Q200 275.393 194.19 275.393 Q188.38 275.393 185.301 270.809 Q182.246 266.203 182.246 257.476 Q182.246 248.726 185.301 244.143 Q188.38 239.536 194.19 239.536 Z" fill="#000000" fill-rule="nonzero" fill-opacity="1" /><path clip-path="url(#clip430)" d="M16.4842 816.375 L16.4842 786.329 L21.895 786.329 L21.895 809.945 L35.9632 809.945 L35.9632 787.315 L41.3741 787.315 L41.3741 809.945 L58.5933 809.945 L58.5933 785.756 L64.0042 785.756 L64.0042 816.375 L16.4842 816.375 Z" fill="#000000" fill-rule="nonzero" fill-opacity="1" /><path clip-path="url(#clip430)" d="M16.4842 775.189 L16.4842 768.759 L58.5933 768.759 L58.5933 745.62 L64.0042 745.62 L64.0042 775.189 L16.4842 775.189 Z" fill="#000000" fill-rule="nonzero" fill-opacity="1" /><path clip-path="url(#clip430)" d="M41.3104 732.443 L58.7206 732.443 L58.7206 722.13 Q58.7206 716.942 56.5881 714.46 Q54.4238 711.945 49.9996 711.945 Q45.5436 711.945 43.4429 714.46 Q41.3104 716.942 41.3104 722.13 L41.3104 732.443 M21.7677 732.443 L36.0905 732.443 L36.0905 722.926 Q36.0905 718.216 34.34 715.924 Q32.5576 713.6 28.9291 713.6 Q25.3325 713.6 23.5501 715.924 Q21.7677 718.216 21.7677 722.926 L21.7677 732.443 M16.4842 738.872 L16.4842 722.449 Q16.4842 715.096 19.5397 711.118 Q22.5952 707.139 28.2289 707.139 Q32.5894 707.139 35.1675 709.176 Q37.7456 711.213 38.3822 715.16 Q39.4007 710.418 42.6472 707.808 Q45.8619 705.166 50.6998 705.166 Q57.0655 705.166 60.5348 709.495 Q64.0042 713.823 64.0042 721.812 L64.0042 738.872 L16.4842 738.872 Z" fill="#000000" fill-rule="nonzero" fill-opacity="1" /><path clip-path="url(#clip430)" d="M20.8447 676.011 Q20.8447 683.013 26.0645 687.151 Q31.2844 691.257 40.2919 691.257 Q49.2675 691.257 54.4874 687.151 Q59.7073 683.013 59.7073 676.011 Q59.7073 669.009 54.4874 664.935 Q49.2675 660.829 40.2919 660.829 Q31.2844 660.829 26.0645 664.935 Q20.8447 669.009 20.8447 676.011 M15.6248 676.011 Q15.6248 666.017 22.3406 660.033 Q29.0246 654.049 40.2919 654.049 Q51.5274 654.049 58.2432 660.033 Q64.9272 666.017 64.9272 676.011 Q64.9272 686.037 58.2432 692.052 Q51.5592 698.036 40.2919 698.036 Q29.0246 698.036 22.3406 692.052 Q15.6248 686.037 15.6248 676.011 Z" fill="#000000" fill-rule="nonzero" fill-opacity="1" /><polyline clip-path="url(#clip432)" style="stroke:#009af9; stroke-linecap:round; stroke-linejoin:round; stroke-width:4; stroke-opacity:1; fill:none" points="301.869,835.732 303.862,1015.87 305.856,826.634 307.849,1030.36 309.842,779.239 311.835,732.643 313.828,999.194 315.821,1367.99 317.814,715.311 319.808,1257.84 321.801,1120.39 323.794,940.984 325.787,1006.81 327.78,675.796 329.773,792.473 331.766,570.981 333.76,994.623 335.753,866.898 337.746,1051.59 339.739,986.309 341.732,664.621 343.725,761.33 345.718,813.976 347.712,894.392 349.705,908.994 351.698,1054.49 353.691,274.123 355.684,887.619 357.677,1384.24 359.67,506.34 361.664,1227.69 363.657,1114.09 365.65,890.168 367.643,518.584 369.636,431.538 371.629,842.435 373.622,1193.91 375.616,397.533 377.609,574.681 379.602,750.215 381.595,684.629 383.588,830.927 385.581,705.61 387.574,805.873 389.568,906.906 391.561,692.814 393.554,314.723 395.547,579.88 397.54,443.153 399.533,631.355 401.526,325.381 403.52,428.52 405.513,640.868 407.506,1109.63 409.499,1111.63 411.492,320.813 413.485,648.278 415.479,694.665 417.472,986.907 419.465,601.977 421.458,605.665 423.451,675.035 425.444,686.863 427.437,566.293 429.431,580.191 431.424,594.744 433.417,415.278 435.41,778.028 437.403,680.931 439.396,819.606 441.389,795.822 443.383,820.365 445.376,379.991 447.369,513.948 449.362,478.116 451.355,629.377 453.348,594.337 455.341,422.508 457.335,371.763 459.328,727.675 461.321,865.336 463.314,583.21 465.307,584.953 467.3,662.969 469.293,484.018 471.287,392.963 473.28,361.39 475.273,685.997 477.266,909.08 479.259,456.92 481.252,404.604 483.245,617.488 485.239,594.841 487.232,467.859 489.225,741.675 491.218,223.878 493.211,520.134 495.204,648.115 497.197,560.069 499.191,595.945 501.184,514.846 503.177,609.597 505.17,592.646 507.163,560.932 509.156,570.644 511.149,589.432 513.143,461.103 515.136,383.843 517.129,483.319 519.122,514.116 521.115,511.168 523.108,405.304 525.101,402.286 527.095,313.589 529.088,483.174 531.081,670.652 533.074,436.161 535.067,407.383 537.06,541.197 539.054,332.525 541.047,218.121 543.04,331.259 545.033,405.597 547.026,819.919 549.019,527.901 551.012,425.839 553.006,534.439 554.999,609.021 556.992,256.469 558.985,243.182 560.978,638.596 562.971,628.285 564.964,309.324 566.958,424.874 568.951,579.336 570.944,167.761 572.937,464.803 574.93,824.077 576.923,675.445 578.916,308.505 580.91,473.08 582.903,534.478 584.896,588.087 586.889,310.928 588.882,390.542 590.875,439.474 592.868,353.291 594.862,480.645 596.855,404.224 598.848,870.101 600.841,279.606 602.834,464.098 604.827,523.398 606.82,377.001 608.814,733.579 610.807,484.891 612.8,467.442 614.793,437.278 616.786,404.027 618.779,254.688 620.772,337.664 622.766,365.668 624.759,424.647 626.752,282.936 628.745,449.209 630.738,190.216 632.731,572.239 634.724,382.671 636.718,207.943 638.711,570.029 640.704,530.746 642.697,635.793 644.69,250.782 646.683,266.11 648.677,200.911 650.67,311.945 652.663,337.497 654.656,201.195 656.649,376.9 658.642,424.171 660.635,553.804 662.629,553.984 664.622,426.574 666.615,240.914 668.608,281.082 670.601,354.518 672.594,615.67 674.587,350.855 676.581,620.063 678.574,331.969 680.567,268.346 682.56,447.644 684.553,353.291 686.546,531.893 688.539,284.846 690.533,342.872 692.526,219.65 694.519,269.419 696.512,268.242 698.505,240.756 700.498,280.039 702.491,360.949 704.485,510.969 706.478,372.503 708.471,192.631 710.464,214.692 712.457,180.912 714.45,278.74 716.443,306.173 718.437,480.348 720.43,270.369 722.423,366.799 724.416,286.007 726.409,184.528 728.402,229.942 730.395,162.369 732.389,213.753 734.382,241.093 736.375,322.308 738.368,303.494 740.361,340.899 742.354,342.801 744.347,310.461 746.341,231.694 748.334,304.43 750.327,377.468 752.32,428.794 754.313,274.044 756.306,386.123 758.299,294.3 760.293,246.664 762.286,282.397 764.279,372.334 766.272,325.403 768.265,320.746 770.258,449.507 772.252,534.207 774.245,232.445 776.238,592.573 778.231,240.72 780.224,140.792 782.217,273.712 784.21,158.9 786.204,424.819 788.197,266.18 790.19,214.25 792.183,167.825 794.176,296.51 796.169,238.687 798.162,351.426 800.156,368.577 802.149,343.12 804.142,204.027 806.135,204.511 808.128,237.281 810.121,330.073 812.114,370.861 814.108,300.239 816.101,424.879 818.094,120.615 820.087,251.356 822.08,223.984 824.073,200.492 826.066,248.328 828.06,268.532 830.053,360.797 832.046,216.672 834.039,264.773 836.032,191.842 838.025,423.813 840.018,357.637 842.012,381.252 844.005,194.292 845.998,405.929 847.991,263.714 849.984,242.591 851.977,219.747 853.97,275.664 855.964,280.303 857.957,407.896 859.95,251.705 861.943,381.473 863.936,234.671 865.929,287.058 867.922,395.511 869.916,217.116 871.909,299.521 873.902,133.061 875.895,205.635 877.888,193.565 879.881,425.265 881.874,379.541 883.868,218.389 885.861,129.175 887.854,289.751 889.847,217.95 891.84,118.65 893.833,355.945 895.827,327.448 897.82,232.302 899.813,220.023 901.806,304.284 903.799,114.815 905.792,264.431 907.785,184.184 909.779,494.029 911.772,242.182 913.765,166.174 915.758,203.753 917.751,227.361 919.744,317.098 921.737,159.803 923.731,301.419 925.724,324.035 927.717,187.237 929.71,511.022 931.703,392.308 933.696,196.369 935.689,313.51 937.683,474.016 939.676,173.546 941.669,205.226 943.662,271.837 945.655,182.745 947.648,123.927 949.641,480.003 951.635,295.527 953.628,322.064 955.621,326.628 957.614,193.318 959.607,444.902 961.6,325.566 963.593,248.568 965.587,189.264 967.58,200.794 969.573,435.199 971.566,289.432 973.559,267.754 975.552,269.178 977.545,337.265 979.539,353.338 981.532,385.66 983.525,204.228 985.518,260.615 987.511,556.55 989.504,162.787 991.497,373.374 993.491,496.913 995.484,338.785 997.477,405.746 999.47,287.173 1001.46,331.92 1003.46,128.966 1005.45,167.089 1007.44,153.028 1009.44,193.207 1011.43,567.169 1013.42,353.255 1015.42,225.233 1017.41,186.069 1019.4,191.713 1021.39,267.456 1023.39,301.157 1025.38,149.395 1027.37,275.462 1029.37,380.722 1031.36,297.985 1033.35,213.005 1035.35,288.881 1037.34,216.324 1039.33,168.675 1041.33,170.841 1043.32,236.916 1045.31,228.702 1047.31,345.298 1049.3,196.562 1051.29,245.692 1053.28,181.078 1055.28,466.237 1057.27,281.988 1059.26,230.241 1061.26,333.506 1063.25,275.685 1065.24,267.007 1067.24,217.271 1069.23,199.865 1071.22,161.801 1073.22,468.648 1075.21,246.451 1077.2,356.219 1079.2,154.531 1081.19,308.971 1083.18,343.157 1085.18,184.858 1087.17,248.179 1089.16,192.202 1091.15,338.99 1093.15,215.888 1095.14,207.674 1097.13,211.414 1099.13,345.996 1101.12,266.729 1103.11,297.539 1105.11,168.338 1107.1,449.571 1109.09,149.065 1111.09,304.043 1113.08,223.591 1115.07,305.795 1117.07,171.682 1119.06,371.614 1121.05,263.171 1123.05,469.75 1125.04,232.485 1127.03,278.798 1129.02,333.363 1131.02,188.541 1133.01,226.715 1135,239.944 1137,152.999 1138.99,173.474 1140.98,205.149 1142.98,349.258 1144.97,232.952 1146.96,173.03 1148.96,120.313 1150.95,336.476 1152.94,424.338 1154.94,159.373 1156.93,159.852 1158.92,265.214 1160.91,216.514 1162.91,409.511 1164.9,170.243 1166.89,289.042 1168.89,251.534 1170.88,220.364 1172.87,355.424 1174.87,192.832 1176.86,179.786 1178.85,329.729 1180.85,331.628 1182.84,353.273 1184.83,298.264 1186.83,364.508 1188.82,334.838 1190.81,312.109 1192.81,137.802 1194.8,378.742 1196.79,219.697 1198.78,412.922 1200.78,217.79 1202.77,168.332 1204.76,139.579 1206.76,263.252 1208.75,222.265 1210.74,259.831 1212.74,337.968 1214.73,225.908 1216.72,172.443 1218.72,278.362 1220.71,280.8 1222.7,283.985 1224.7,249.669 1226.69,274.605 1228.68,298.142 1230.67,212.583 1232.67,135.312 1234.66,315.575 1236.65,265.656 1238.65,369.744 1240.64,105.291 1242.63,354.488 1244.63,247.465 1246.62,297.139 1248.61,339.624 1250.61,248.455 1252.6,206.136 1254.59,395.662 1256.59,329.724 1258.58,182.616 1260.57,299.919 1262.57,186.841 1264.56,315.814 1266.55,253.264 1268.54,317.762 1270.54,215.378 1272.53,146.028 1274.52,238.329 1276.52,194.208 1278.51,318.787 1280.5,150.434 1282.5,142.663 1284.49,211.724 1286.48,223.442 1288.48,245.936 1290.47,271.277 1292.46,219.812 1294.46,210.412 1296.45,254.669 1298.44,219.004 1300.44,270.468 1302.43,169.068 1304.42,118.977 1306.41,360.198 1308.41,207.838 1310.4,190.388 1312.39,197.985 1314.39,301.005 1316.38,331.066 1318.37,282.675 1320.37,368.939 1322.36,270.421 1324.35,239.851 1326.35,189.126 1328.34,185.384 1330.33,308.704 1332.33,162.116 1334.32,165.981 1336.31,157.004 1338.3,216.769 1340.3,278.078 1342.29,216 1344.28,158.587 1346.28,216.99 1348.27,194.968 1350.26,182.944 1352.26,164.341 1354.25,221.455 1356.24,257.708 1358.24,250.228 1360.23,220.361 1362.22,238.692 1364.22,260.694 1366.21,267.459 1368.2,412.265 1370.2,230.524 1372.19,398.422 1374.18,303.997 1376.17,156.803 1378.17,251.816 1380.16,177.513 1382.15,182.408 1384.15,368.628 1386.14,372.502 1388.13,282.195 1390.13,361.823 1392.12,211.526 1394.11,226.848 1396.11,157.124 1398.1,250.134 1400.09,566.046 1402.09,230.167 1404.08,238.712 1406.07,233.58 1408.06,240.953 1410.06,351.14 1412.05,223.315 1414.04,291.801 1416.04,231.339 1418.03,145.402 1420.02,169.732 1422.02,614.03 1424.01,192.357 1426,286.869 1428,375.543 1429.99,197.89 1431.98,155.267 1433.98,354.717 1435.97,136.252 1437.96,259.35 1439.96,179.439 1441.95,255.279 1443.94,235.16 1445.93,279.182 1447.93,150.359 1449.92,244.285 1451.91,290.419 1453.91,282.128 1455.9,236.682 1457.89,131.808 1459.89,249.198 1461.88,478.304 1463.87,290.637 1465.87,469.404 1467.86,288.079 1469.85,188.734 1471.85,295.673 1473.84,274.275 1475.83,342.272 1477.82,304.096 1479.82,339.554 1481.81,215.661 1483.8,150.522 1485.8,394.406 1487.79,190.102 1489.78,212.911 1491.78,216.127 1493.77,337.202 1495.76,278.198 1497.76,184.628 1499.75,227.592 1501.74,231.677 1503.74,183.549 1505.73,251.795 1507.72,294.007 1509.72,315.289 1511.71,269.545 1513.7,309.173 1515.69,280.717 1517.69,420.365 1519.68,347.57 1521.67,159.944 1523.67,329.255 1525.66,389.203 1527.65,336.979 1529.65,226.286 1531.64,227.827 1533.63,304.441 1535.63,314.305 1537.62,217.016 1539.61,130.617 1541.61,239.284 1543.6,203.045 1545.59,265.014 1547.59,346.837 1549.58,163.667 1551.57,333.339 1553.56,261.491 1555.56,220.177 1557.55,214.505 1559.54,309.763 1561.54,119.908 1563.53,391.838 1565.52,192.581 1567.52,231.664 1569.51,197.893 1571.5,219.724 1573.5,159.928 1575.49,289.209 1577.48,210.241 1579.48,406.165 1581.47,237.565 1583.46,274.01 1585.45,282.176 1587.45,327.811 1589.44,318.125 1591.43,199.678 1593.43,200.543 1595.42,320.354 1597.41,167.492 1599.41,295.532 1601.4,175.651 1603.39,281.547 1605.39,209.995 1607.38,201.726 1609.37,368.074 1611.37,302.976 1613.36,267.39 1615.35,285.733 1617.35,327.284 1619.34,229.105 1621.33,187.342 1623.32,450.691 1625.32,284.61 1627.31,143.304 1629.3,250.945 1631.3,297.05 1633.29,198.727 1635.28,551.686 1637.28,238.743 1639.27,259.823 1641.26,263.654 1643.26,305.736 1645.25,328.006 1647.24,425.15 1649.24,335.447 1651.23,263.852 1653.22,256.656 1655.21,196.242 1657.21,193.867 1659.2,256.91 1661.19,166.521 1663.19,139.252 1665.18,293.545 1667.17,189.227 1669.17,351.558 1671.16,226.749 1673.15,153.778 1675.15,235.787 1677.14,218.48 1679.13,280.725 1681.13,165.903 1683.12,116.728 1685.11,245.601 1687.11,213.713 1689.1,456.359 1691.09,216.642 1693.08,150.716 1695.08,289.864 1697.07,149.149 1699.06,110.343 1701.06,136.62 1703.05,336.066 1705.04,124.399 1707.04,492.676 1709.03,468.722 1711.02,429.789 1713.02,325.117 1715.01,190.814 1717,264.553 1719,240.802 1720.99,277.94 1722.98,259.873 1724.97,331.209 1726.97,248.505 1728.96,171.049 1730.95,289.408 1732.95,204.098 1734.94,116.085 1736.93,358.733 1738.93,287.537 1740.92,208.249 1742.91,163.88 1744.91,130.993 1746.9,254.871 1748.89,308.186 1750.89,298.635 1752.88,260.832 1754.87,178.441 1756.87,328.553 1758.86,246.623 1760.85,301.044 1762.84,134.698 1764.84,202.494 1766.83,310.154 1768.82,176.215 1770.82,544.636 1772.81,325.476 1774.8,239.428 1776.8,264.726 1778.79,194.435 1780.78,561.988 1782.78,509.372 1784.77,291.743 1786.76,226.391 1788.76,405.171 1790.75,261.876 1792.74,218.371 1794.74,259.065 1796.73,249.785 1798.72,265.436 1800.71,152.522 1802.71,186.416 1804.7,382.571 1806.69,413.767 1808.69,271.787 1810.68,427.451 1812.67,324.202 1814.67,268.393 1816.66,178.34 1818.65,281.694 1820.65,266.67 1822.64,224.866 1824.63,206.494 1826.63,269.936 1828.62,227.449 1830.61,166.664 1832.6,171.757 1834.6,150.47 1836.59,155.959 1838.58,318.529 1840.58,263.525 1842.57,243.888 1844.56,269.958 1846.56,305.341 1848.55,333.936 1850.54,122.917 1852.54,232.132 1854.53,276.038 1856.52,256.068 1858.52,237.001 1860.51,142.901 1862.5,277.538 1864.5,185.489 1866.49,282.154 1868.48,189.258 1870.47,205.147 1872.47,217.971 1874.46,212.128 1876.45,342.349 1878.45,338.943 1880.44,302.166 1882.43,154.905 1884.43,296.722 1886.42,244.489 1888.41,180.802 1890.41,182.203 1892.4,247.748 1894.39,214.856 1896.39,258.578 1898.38,146.326 1900.37,242.173 1902.36,173.871 1904.36,254.621 1906.35,304.114 1908.34,198.07 1910.34,446.155 1912.33,450.675 1914.32,200.57 1916.32,310.758 1918.31,181.252 1920.3,86.1857 1922.3,268.492 1924.29,171.914 1926.28,323.293 1928.28,181.796 1930.27,235.515 1932.26,290.735 1934.26,337.33 1936.25,395.854 1938.24,317.998 1940.23,242.812 1942.23,251.796 1944.22,179.163 1946.21,322.01 1948.21,259.785 1950.2,187.769 1952.19,418.368 1954.19,158.661 1956.18,259.993 1958.17,262.341 1960.17,287.662 1962.16,163.546 1964.15,138.999 1966.15,251.664 1968.14,178.665 1970.13,140.466 1972.12,244.632 1974.12,347.552 1976.11,209.115 1978.1,410.262 1980.1,282.662 1982.09,349.513 1984.08,316.227 1986.08,233.464 1988.07,181.592 1990.06,187.356 1992.06,171.412 1994.05,264.294 1996.04,220.4 1998.04,177.105 2000.03,320.19 2002.02,232.67 2004.02,168.05 2006.01,345.616 2008,235.511 2009.99,444.945 2011.99,335.268 2013.98,294.236 2015.97,163.785 2017.97,237.816 2019.96,444.668 2021.95,381.243 2023.95,378.32 2025.94,203.367 2027.93,213.826 2029.93,262.325 2031.92,267.372 2033.91,242.661 2035.91,227.73 2037.9,485.876 2039.89,417.617 2041.89,181.463 2043.88,268.18 2045.87,228.107 2047.86,207.036 2049.86,235.091 2051.85,302.65 2053.84,251.614 2055.84,253.56 2057.83,250.939 2059.82,336.499 2061.82,320.365 2063.81,207.099 2065.8,223.29 2067.8,552.877 2069.79,300.073 2071.78,344.308 2073.78,255.389 2075.77,158.781 2077.76,272.988 2079.75,394.073 2081.75,238.325 2083.74,245.278 2085.73,209.199 2087.73,156.52 2089.72,259.525 2091.71,318.177 2093.71,242.32 2095.7,139.572 2097.69,242.077 2099.69,201.002 2101.68,203.841 2103.67,269.246 2105.67,371.037 2107.66,282.986 2109.65,285.798 2111.65,190.46 2113.64,162.419 2115.63,272.474 2117.62,226.909 2119.62,351.89 2121.61,419.415 2123.6,269.155 2125.6,175.217 2127.59,154.767 2129.58,226.949 2131.58,217.344 2133.57,272.386 2135.56,247.288 2137.56,288.72 2139.55,215.181 2141.54,189.111 2143.54,356.931 2145.53,254.061 2147.52,170.725 2149.51,356.8 2151.51,297.752 2153.5,340.772 2155.49,209.212 2157.49,363.801 2159.48,281.108 2161.47,196.87 2163.47,339.421 2165.46,191.861 2167.45,463.041 2169.45,356.712 2171.44,356.306 2173.43,270.28 2175.43,292.391 2177.42,297.073 2179.41,295.867 2181.41,352.328 2183.4,169.962 2185.39,193.23 2187.38,160.508 2189.38,272.902 2191.37,430.601 2193.36,507.903 2195.36,215.481 2197.35,377.642 2199.34,159.901 2201.34,343.483 2203.33,219.83 2205.32,281.795 2207.32,173.131 2209.31,301.044 2211.3,194.896 2213.3,431.266 2215.29,188.383 2217.28,366.871 2219.27,285.91 2221.27,241.504 2223.26,169.486 2225.25,262.768 2227.25,336.29 2229.24,221.384 2231.23,165.758 2233.23,235.049 2235.22,180.638 2237.21,281.526 2239.21,261.119 2241.2,181.136 2243.19,289.494 2245.19,195.924 2247.18,274.644 2249.17,252.887 2251.17,242.163 2253.16,311.71 2255.15,165.494 2257.14,191.948 2259.14,274.1 2261.13,318.947 2263.12,377.449 2265.12,116.265 2267.11,384.405 2269.1,207.181 2271.1,187.694 2273.09,253.008 2275.08,233.676 2277.08,318.705 2279.07,186.259 2281.06,278.634 2283.06,234.112 2285.05,360.179 2287.04,261.471 2289.04,142.054 2291.03,228.333 2293.02,189.196 "/>
<polyline clip-path="url(#clip432)" style="stroke:#e26f46; stroke-linecap:round; stroke-linejoin:round; stroke-width:4; stroke-opacity:1; fill:none" points="301.869,1015.36 303.862,1005.58 305.856,991.324 307.849,984.888 309.842,960.861 311.835,983.635 313.828,970.014 315.821,993.897 317.814,968.87 319.808,946.643 321.801,939.885 323.794,957.526 325.787,904.946 327.78,933.974 329.773,903.086 331.766,903.128 333.76,912.657 335.753,902.916 337.746,882.273 339.739,890.435 341.732,864.982 343.725,854.139 345.718,846.797 347.712,845.213 349.705,851.501 351.698,830.523 353.691,839.671 355.684,832.702 357.677,809.339 359.67,799.277 361.664,809.87 363.657,813.2 365.65,798.559 367.643,796.165 369.636,795.319 371.629,776.334 373.622,774.782 375.616,751.364 377.609,790.194 379.602,774.608 381.595,741.596 383.588,752.041 385.581,733.805 387.574,734.262 389.568,729.119 391.561,708.792 393.554,713.241 395.547,707.998 397.54,712.246 399.533,702.31 401.526,683.527 403.52,694.146 405.513,701.206 407.506,681.797 409.499,676.755 411.492,651.843 413.485,642.87 415.479,667.379 417.472,635.386 419.465,658.261 421.458,645.311 423.451,639.869 425.444,637.77 427.437,622.187 429.431,643.878 431.424,604.933 433.417,612.392 435.41,599.009 437.403,606.192 439.396,599.254 441.389,621.666 443.383,589.314 445.376,597.123 447.369,622.666 449.362,594.66 451.355,569.092 453.348,578.491 455.341,571.046 457.335,568.525 459.328,560.848 461.321,556.916 463.314,541.138 465.307,538.168 467.3,533.551 469.293,579.432 471.287,536.14 473.28,522.597 475.273,532.398 477.266,511.512 479.259,520.822 481.252,522.661 483.245,523.787 485.239,512.661 487.232,524.434 489.225,506.171 491.218,503.898 493.211,495.444 495.204,505.981 497.197,484.577 499.191,500.118 501.184,476.194 503.177,470.524 505.17,466.975 507.163,464.888 509.156,476.026 511.149,465.382 513.143,474.552 515.136,475.439 517.129,463.469 519.122,457.639 521.115,457.617 523.108,444.71 525.101,445.104 527.095,471.869 529.088,440.62 531.081,456.941 533.074,433.119 535.067,420.593 537.06,433.99 539.054,418.416 541.047,423.774 543.04,406.524 545.033,428.375 547.026,423.578 549.019,420.531 551.012,411.469 553.006,410.164 554.999,402.261 556.992,434.799 558.985,406.558 560.978,407.879 562.971,404.301 564.964,423.764 566.958,394.563 568.951,394.435 570.944,386.176 572.937,385.333 574.93,380.035 576.923,377.897 578.916,381.475 580.91,384.841 582.903,378.315 584.896,385.694 586.889,384.344 588.882,387.919 590.875,372.027 592.868,375.559 594.862,376.38 596.855,363.248 598.848,373.8 600.841,367.416 602.834,370.564 604.827,381.508 606.82,382.244 608.814,359.962 610.807,348.081 612.8,355.405 614.793,365.184 616.786,366.432 618.779,364.784 620.772,377.518 622.766,343.627 624.759,336.634 626.752,335.832 628.745,344.996 630.738,338.312 632.731,344.49 634.724,342.289 636.718,351.592 638.711,333.875 640.704,318.502 642.697,342.653 644.69,322.944 646.683,336.885 648.677,331.513 650.67,332.916 652.663,349.006 654.656,329.551 656.649,316.411 658.642,326.149 660.635,336.591 662.629,318.913 664.622,318.994 666.615,313.292 668.608,335.854 670.601,336.699 672.594,324.488 674.587,303.75 676.581,316.861 678.574,317.309 680.567,323.016 682.56,310.536 684.553,308.849 686.546,300.078 688.539,326.629 690.533,301.655 692.526,291.825 694.519,300.528 696.512,319.527 698.505,306.518 700.498,302.16 702.491,305.092 704.485,290.348 706.478,291.959 708.471,291.315 710.464,295.489 712.457,306.254 714.45,296.937 716.443,289.93 718.437,302.706 720.43,302.877 722.423,302.04 724.416,310.526 726.409,292.146 728.402,287.657 730.395,290.983 732.389,282.103 734.382,274.2 736.375,281.07 738.368,281.752 740.361,294.952 742.354,288.989 744.347,284.669 746.341,287.85 748.334,297.499 750.327,275.258 752.32,278.304 754.313,288.575 756.306,285.266 758.299,285.463 760.293,276.453 762.286,276.932 764.279,290.711 766.272,282.706 768.265,300.006 770.258,288.058 772.252,265.548 774.245,307.953 776.238,274.238 778.231,266.238 780.224,272.168 782.217,283.14 784.21,274.081 786.204,267.069 788.197,271.905 790.19,279.323 792.183,270.735 794.176,258.462 796.169,284.312 798.162,261.171 800.156,268.67 802.149,297.079 804.142,267.276 806.135,270.892 808.128,276.976 810.121,268.738 812.114,269.587 814.108,264.718 816.101,260.211 818.094,268.535 820.087,268.648 822.08,280.605 824.073,280.751 826.066,266.562 828.06,280.774 830.053,275.161 832.046,279.477 834.039,259.56 836.032,267.485 838.025,258.615 840.018,279.782 842.012,281.097 844.005,271.989 845.998,264.267 847.991,273.721 849.984,258.31 851.977,275.086 853.97,280.145 855.964,265.254 857.957,262.998 859.95,267.134 861.943,263.017 863.936,256.962 865.929,275.874 867.922,257.219 869.916,270.393 871.909,266.462 873.902,264.43 875.895,259.335 877.888,264.998 879.881,269.757 881.874,273.634 883.868,264.357 885.861,276.434 887.854,261.008 889.847,255.458 891.84,292.809 893.833,259.775 895.827,261.253 897.82,254.189 899.813,279.012 901.806,261.593 903.799,261.79 905.792,253.108 907.785,252.412 909.779,273.361 911.772,259.573 913.765,253.366 915.758,261.16 917.751,255.387 919.744,264.397 921.737,249.614 923.731,267.523 925.724,260.265 927.717,290.616 929.71,253.005 931.703,269.73 933.696,263.617 935.689,252.779 937.683,276.682 939.676,258.439 941.669,289.632 943.662,289.31 945.655,262 947.648,260.126 949.641,259.89 951.635,282.937 953.628,256.616 955.621,271.86 957.614,261.853 959.607,248.261 961.6,270.742 963.593,265.638 965.587,262.286 967.58,257.326 969.573,258.326 971.566,244.249 973.559,267.545 975.552,273.271 977.545,254.542 979.539,241.746 981.532,250.223 983.525,284.681 985.518,285.598 987.511,262.64 989.504,254.636 991.497,271.09 993.491,257.858 995.484,263.519 997.477,249.212 999.47,272.857 1001.46,245.002 1003.46,251.965 1005.45,258.254 1007.44,253.414 1009.44,258.778 1011.43,257.449 1013.42,245.867 1015.42,259.256 1017.41,270.215 1019.4,263.558 1021.39,274.126 1023.39,269.006 1025.38,253.057 1027.37,262.436 1029.37,262.45 1031.36,252.173 1033.35,250.779 1035.35,252.719 1037.34,265.117 1039.33,255.291 1041.33,255.567 1043.32,262.181 1045.31,273.468 1047.31,242.489 1049.3,257.844 1051.29,258.397 1053.28,252.774 1055.28,243.859 1057.27,263.255 1059.26,267.738 1061.26,247.078 1063.25,264.116 1065.24,260.773 1067.24,260.704 1069.23,265.028 1071.22,255.863 1073.22,252.329 1075.21,270.393 1077.2,261.891 1079.2,246.366 1081.19,245.735 1083.18,243.589 1085.18,253.68 1087.17,264.801 1089.16,269.218 1091.15,251.861 1093.15,250.994 1095.14,256.249 1097.13,256.265 1099.13,253.449 1101.12,276.607 1103.11,270.422 1105.11,258.957 1107.1,251.609 1109.09,266.978 1111.09,267.405 1113.08,269.269 1115.07,274.611 1117.07,245.476 1119.06,254.411 1121.05,258.878 1123.05,241.421 1125.04,259.235 1127.03,245.791 1129.02,257.646 1131.02,263.518 1133.01,275.126 1135,274.228 1137,247.726 1138.99,275.303 1140.98,289.482 1142.98,267.835 1144.97,244.952 1146.96,256.657 1148.96,244.412 1150.95,260.425 1152.94,265.411 1154.94,238.867 1156.93,267.361 1158.92,248.025 1160.91,272.192 1162.91,254.107 1164.9,244.433 1166.89,259.374 1168.89,256.095 1170.88,243.454 1172.87,260.366 1174.87,255.422 1176.86,245.949 1178.85,253.365 1180.85,268.517 1182.84,255.457 1184.83,248.999 1186.83,254.332 1188.82,277.626 1190.81,251.653 1192.81,257.339 1194.8,261.182 1196.79,257.282 1198.78,257.912 1200.78,257.788 1202.77,252.231 1204.76,279.021 1206.76,243.584 1208.75,251.742 1210.74,274.541 1212.74,246.064 1214.73,246.749 1216.72,258.753 1218.72,253.359 1220.71,249.011 1222.7,237.115 1224.7,257.131 1226.69,279.149 1228.68,246.1 1230.67,265.554 1232.67,257.438 1234.66,247.05 1236.65,250.426 1238.65,261.949 1240.64,244.612 1242.63,259.702 1244.63,249.883 1246.62,259.947 1248.61,251.426 1250.61,262.26 1252.6,242.099 1254.59,252.107 1256.59,270.52 1258.58,275.877 1260.57,261.138 1262.57,258.688 1264.56,251.647 1266.55,259.611 1268.54,272.541 1270.54,274.617 1272.53,254.311 1274.52,244.903 1276.52,246.112 1278.51,268.151 1280.5,254.069 1282.5,250.163 1284.49,267.098 1286.48,260.524 1288.48,250.796 1290.47,270.198 1292.46,261.663 1294.46,238.956 1296.45,258.484 1298.44,258.222 1300.44,243.95 1302.43,248.085 1304.42,256.215 1306.41,253.179 1308.41,240.784 1310.4,253.72 1312.39,251.136 1314.39,251.326 1316.38,257.657 1318.37,281.36 1320.37,265.311 1322.36,264.656 1324.35,251.97 1326.35,263.963 1328.34,258.968 1330.33,257.248 1332.33,237.539 1334.32,255.794 1336.31,243.07 1338.3,245.251 1340.3,253.331 1342.29,250.11 1344.28,264.707 1346.28,276.093 1348.27,248.017 1350.26,281.162 1352.26,251.196 1354.25,250.699 1356.24,246.189 1358.24,238.122 1360.23,251.948 1362.22,258.1 1364.22,261.985 1366.21,249.355 1368.2,267.282 1370.2,239.853 1372.19,246.1 1374.18,253.211 1376.17,264.599 1378.17,257.987 1380.16,253.372 1382.15,248.768 1384.15,246.66 1386.14,264.42 1388.13,254.183 1390.13,256.613 1392.12,252.318 1394.11,247.558 1396.11,235.777 1398.1,263.643 1400.09,269.352 1402.09,256.544 1404.08,260.737 1406.07,260.934 1408.06,256.554 1410.06,248.706 1412.05,265.441 1414.04,249.161 1416.04,259.529 1418.03,266.9 1420.02,251.577 1422.02,275.808 1424.01,273.648 1426,254.544 1428,263.913 1429.99,247.622 1431.98,262.671 1433.98,245.879 1435.97,245.041 1437.96,253.69 1439.96,253.195 1441.95,271.922 1443.94,253.001 1445.93,256.013 1447.93,249.514 1449.92,275.585 1451.91,250.276 1453.91,257.317 1455.9,247.702 1457.89,253.33 1459.89,271.52 1461.88,257.118 1463.87,247.99 1465.87,272.28 1467.86,261.438 1469.85,248.46 1471.85,247.321 1473.84,260.737 1475.83,252.9 1477.82,269.298 1479.82,274.477 1481.81,262.676 1483.8,269.095 1485.8,264.346 1487.79,250.6 1489.78,263.98 1491.78,257.777 1493.77,255.799 1495.76,262.348 1497.76,253.576 1499.75,256.004 1501.74,254.774 1503.74,244.858 1505.73,255.367 1507.72,254.497 1509.72,262.736 1511.71,246.867 1513.7,280.521 1515.69,260.886 1517.69,246.055 1519.68,242.062 1521.67,245.942 1523.67,269.796 1525.66,247.012 1527.65,259.953 1529.65,279.577 1531.64,254.578 1533.63,251.149 1535.63,274.984 1537.62,251.736 1539.61,262.674 1541.61,258.391 1543.6,261.456 1545.59,260.184 1547.59,254.558 1549.58,238.691 1551.57,251.499 1553.56,252.763 1555.56,257.312 1557.55,241.489 1559.54,255.402 1561.54,265.031 1563.53,269.14 1565.52,257.492 1567.52,250.154 1569.51,244.735 1571.5,260.144 1573.5,269.251 1575.49,263.198 1577.48,253.841 1579.48,266.417 1581.47,265.069 1583.46,255.217 1585.45,249.511 1587.45,274.457 1589.44,255.046 1591.43,261.177 1593.43,247.981 1595.42,264.672 1597.41,246.367 1599.41,261.207 1601.4,242.178 1603.39,259.5 1605.39,255.451 1607.38,251.803 1609.37,264.192 1611.37,252.018 1613.36,255.799 1615.35,254.453 1617.35,253.122 1619.34,261.108 1621.33,270.988 1623.32,246.805 1625.32,273.623 1627.31,246.495 1629.3,265.105 1631.3,253.912 1633.29,280.378 1635.28,240.529 1637.28,251.402 1639.27,249.948 1641.26,281.16 1643.26,254.729 1645.25,258.085 1647.24,257.728 1649.24,261.917 1651.23,252.403 1653.22,264.907 1655.21,253.277 1657.21,245.419 1659.2,264.287 1661.19,254.867 1663.19,255.83 1665.18,259.525 1667.17,245.878 1669.17,261.914 1671.16,250.548 1673.15,260.475 1675.15,268.202 1677.14,247.524 1679.13,251.656 1681.13,251.492 1683.12,247.78 1685.11,271.5 1687.11,273.572 1689.1,255.29 1691.09,265.345 1693.08,256.708 1695.08,255.609 1697.07,272.841 1699.06,257.689 1701.06,247.83 1703.05,249.577 1705.04,259.86 1707.04,243.985 1709.03,262.074 1711.02,254.378 1713.02,253.299 1715.01,255.317 1717,260.48 1719,256.176 1720.99,257.194 1722.98,265.129 1724.97,264.256 1726.97,247.48 1728.96,242.402 1730.95,250.182 1732.95,251.752 1734.94,249.116 1736.93,264.575 1738.93,253.572 1740.92,276.56 1742.91,244.719 1744.91,270.013 1746.9,257.458 1748.89,250.964 1750.89,252.854 1752.88,261.059 1754.87,280.157 1756.87,249.83 1758.86,253.841 1760.85,260.841 1762.84,257.772 1764.84,259.712 1766.83,254.63 1768.82,277.414 1770.82,267.707 1772.81,244.614 1774.8,267.147 1776.8,247.824 1778.79,253.141 1780.78,277.855 1782.78,245.346 1784.77,257.127 1786.76,253.671 1788.76,253.758 1790.75,254.385 1792.74,261.408 1794.74,246.371 1796.73,259.053 1798.72,271.599 1800.71,251.119 1802.71,252.933 1804.7,254.408 1806.69,280.021 1808.69,242.208 1810.68,243.63 1812.67,246.17 1814.67,251.102 1816.66,247.706 1818.65,270.728 1820.65,264.619 1822.64,264.549 1824.63,248.735 1826.63,251.354 1828.62,254.332 1830.61,259.203 1832.6,246.968 1834.6,252.997 1836.59,269.216 1838.58,259.719 1840.58,267.853 1842.57,243.868 1844.56,257.117 1846.56,265.281 1848.55,267.191 1850.54,256.245 1852.54,250.989 1854.53,280.55 1856.52,262.126 1858.52,259.576 1860.51,288.576 1862.5,252.032 1864.5,262.982 1866.49,266.644 1868.48,247.503 1870.47,251.879 1872.47,248.469 1874.46,240.634 1876.45,258.964 1878.45,264.557 1880.44,257.554 1882.43,254.36 1884.43,258.779 1886.42,272.393 1888.41,264.602 1890.41,258.605 1892.4,251.938 1894.39,265.142 1896.39,265.928 1898.38,251.142 1900.37,257.499 1902.36,273.311 1904.36,275.118 1906.35,251.244 1908.34,254.327 1910.34,254.422 1912.33,263.215 1914.32,249.359 1916.32,253.634 1918.31,275.416 1920.3,263.007 1922.3,257.825 1924.29,245.028 1926.28,271.386 1928.28,274.218 1930.27,256.445 1932.26,253.465 1934.26,252.285 1936.25,247.433 1938.24,245.681 1940.23,245.417 1942.23,253.894 1944.22,252.187 1946.21,243.095 1948.21,271.098 1950.2,252.018 1952.19,259.688 1954.19,265.808 1956.18,252.939 1958.17,260.695 1960.17,249.336 1962.16,244.806 1964.15,256.226 1966.15,246.093 1968.14,250.069 1970.13,269.182 1972.12,251.222 1974.12,263.584 1976.11,243.126 1978.1,257.611 1980.1,262.658 1982.09,263.863 1984.08,243.225 1986.08,268.831 1988.07,242.643 1990.06,256.248 1992.06,266.062 1994.05,247.499 1996.04,261.006 1998.04,261.009 2000.03,258.945 2002.02,254.154 2004.02,257.743 2006.01,244.703 2008,246.587 2009.99,248.325 2011.99,250.809 2013.98,264.631 2015.97,257.721 2017.97,263.694 2019.96,275.515 2021.95,267.34 2023.95,248.021 2025.94,244.668 2027.93,264.572 2029.93,262.264 2031.92,258.563 2033.91,272.031 2035.91,255.547 2037.9,258.814 2039.89,269.072 2041.89,256.836 2043.88,265.017 2045.87,261.988 2047.86,259.198 2049.86,264.86 2051.85,255.856 2053.84,254.441 2055.84,251.559 2057.83,248.218 2059.82,249.46 2061.82,250.584 2063.81,268.643 2065.8,262.112 2067.8,252.845 2069.79,274.556 2071.78,256.26 2073.78,255.835 2075.77,274.626 2077.76,269.273 2079.75,259.698 2081.75,264.105 2083.74,244.302 2085.73,243.945 2087.73,281.028 2089.72,252.861 2091.71,256.673 2093.71,249.438 2095.7,250.122 2097.69,254.804 2099.69,257.576 2101.68,264.379 2103.67,254.394 2105.67,259.826 2107.66,247.227 2109.65,254.125 2111.65,280.922 2113.64,250.159 2115.63,271.762 2117.62,257.636 2119.62,274.924 2121.61,248.788 2123.6,255.164 2125.6,256.743 2127.59,253.59 2129.58,273.944 2131.58,249.286 2133.57,257.695 2135.56,269.739 2137.56,250.687 2139.55,246.616 2141.54,262.811 2143.54,255.657 2145.53,267.45 2147.52,250.218 2149.51,256.164 2151.51,256.905 2153.5,275.301 2155.49,259 2157.49,258.907 2159.48,243.384 2161.47,251.534 2163.47,256.295 2165.46,244.417 2167.45,271.71 2169.45,269.736 2171.44,256.954 2173.43,249.8 2175.43,252.162 2177.42,278.904 2179.41,244.634 2181.41,254.083 2183.4,271.055 2185.39,260.245 2187.38,241.043 2189.38,271.385 2191.37,264.331 2193.36,260.673 2195.36,255.836 2197.35,266.862 2199.34,254.749 2201.34,247.062 2203.33,275.756 2205.32,265.242 2207.32,255.068 2209.31,254.94 2211.3,247.937 2213.3,255.39 2215.29,269.564 2217.28,245.698 2219.27,269.103 2221.27,236.876 2223.26,250.889 2225.25,254.798 2227.25,272.06 2229.24,259.89 2231.23,246.217 2233.23,262.846 2235.22,254.94 2237.21,265.373 2239.21,254.953 2241.2,265.051 2243.19,248.812 2245.19,251.721 2247.18,255.378 2249.17,277.557 2251.17,250.89 2253.16,240.697 2255.15,254.629 2257.14,258.32 2259.14,256.62 2261.13,262.832 2263.12,259.283 2265.12,256.03 2267.11,253.257 2269.1,260.706 2271.1,267.64 2273.09,256.563 2275.08,257.422 2277.08,266.225 2279.07,238.751 2281.06,263.779 2283.06,263.18 2285.05,279.596 2287.04,252.734 2289.04,267.222 2291.03,254.903 2293.02,258.41 "/>
<path clip-path="url(#clip430)" d="M1736.78 1377.32 L2282.4 1377.32 L2282.4 1221.8 L1736.78 1221.8  Z" fill="#ffffff" fill-rule="evenodd" fill-opacity="1"/>
<polyline clip-path="url(#clip430)" style="stroke:#000000; stroke-linecap:round; stroke-linejoin:round; stroke-width:4; stroke-opacity:1; fill:none" points="1736.78,1377.32 2282.4,1377.32 2282.4,1221.8 1736.78,1221.8 1736.78,1377.32 "/>
<polyline clip-path="url(#clip430)" style="stroke:#009af9; stroke-linecap:round; stroke-linejoin:round; stroke-width:4; stroke-opacity:1; fill:none" points="1760.23,1273.64 1900.94,1273.64 "/>
<path clip-path="url(#clip430)" d="M1929.07 1274.41 L1929.07 1287.07 L1936.57 1287.07 Q1940.34 1287.07 1942.15 1285.52 Q1943.98 1283.95 1943.98 1280.73 Q1943.98 1277.49 1942.15 1275.96 Q1940.34 1274.41 1936.57 1274.41 L1929.07 1274.41 M1929.07 1260.2 L1929.07 1270.61 L1935.99 1270.61 Q1939.42 1270.61 1941.08 1269.34 Q1942.77 1268.05 1942.77 1265.41 Q1942.77 1262.79 1941.08 1261.49 Q1939.42 1260.2 1935.99 1260.2 L1929.07 1260.2 M1924.39 1256.36 L1936.34 1256.36 Q1941.68 1256.36 1944.58 1258.58 Q1947.47 1260.8 1947.47 1264.9 Q1947.47 1268.07 1945.99 1269.94 Q1944.51 1271.82 1941.64 1272.28 Q1945.09 1273.02 1946.98 1275.38 Q1948.91 1277.72 1948.91 1281.24 Q1948.91 1285.87 1945.76 1288.39 Q1942.61 1290.92 1936.8 1290.92 L1924.39 1290.92 L1924.39 1256.36 Z" fill="#000000" fill-rule="nonzero" fill-opacity="1" /><path clip-path="url(#clip430)" d="M1961.59 1274.41 L1961.59 1287.07 L1969.09 1287.07 Q1972.86 1287.07 1974.67 1285.52 Q1976.5 1283.95 1976.5 1280.73 Q1976.5 1277.49 1974.67 1275.96 Q1972.86 1274.41 1969.09 1274.41 L1961.59 1274.41 M1961.59 1260.2 L1961.59 1270.61 L1968.51 1270.61 Q1971.94 1270.61 1973.6 1269.34 Q1975.29 1268.05 1975.29 1265.41 Q1975.29 1262.79 1973.6 1261.49 Q1971.94 1260.2 1968.51 1260.2 L1961.59 1260.2 M1956.92 1256.36 L1968.86 1256.36 Q1974.21 1256.36 1977.1 1258.58 Q1979.99 1260.8 1979.99 1264.9 Q1979.99 1268.07 1978.51 1269.94 Q1977.03 1271.82 1974.16 1272.28 Q1977.61 1273.02 1979.51 1275.38 Q1981.43 1277.72 1981.43 1281.24 Q1981.43 1285.87 1978.28 1288.39 Q1975.13 1290.92 1969.32 1290.92 L1956.92 1290.92 L1956.92 1256.36 Z" fill="#000000" fill-rule="nonzero" fill-opacity="1" /><path clip-path="url(#clip430)" d="M1996.89 1290.92 L1983.7 1256.36 L1988.58 1256.36 L1999.53 1285.45 L2010.5 1256.36 L2015.36 1256.36 L2002.19 1290.92 L1996.89 1290.92 Z" fill="#000000" fill-rule="nonzero" fill-opacity="1" /><path clip-path="url(#clip430)" d="M2020.41 1256.36 L2025.09 1256.36 L2025.09 1290.92 L2020.41 1290.92 L2020.41 1256.36 Z" fill="#000000" fill-rule="nonzero" fill-opacity="1" /><path clip-path="url(#clip430)" d="M2075.34 1259.02 L2075.34 1263.95 Q2072.98 1261.75 2070.29 1260.66 Q2067.63 1259.57 2064.62 1259.57 Q2058.7 1259.57 2055.55 1263.21 Q2052.4 1266.82 2052.4 1273.67 Q2052.4 1280.5 2055.55 1284.13 Q2058.7 1287.74 2064.62 1287.74 Q2067.63 1287.74 2070.29 1286.66 Q2072.98 1285.57 2075.34 1283.37 L2075.34 1288.25 Q2072.89 1289.92 2070.13 1290.75 Q2067.4 1291.59 2064.35 1291.59 Q2056.5 1291.59 2051.98 1286.79 Q2047.47 1281.98 2047.47 1273.67 Q2047.47 1265.34 2051.98 1260.55 Q2056.5 1255.73 2064.35 1255.73 Q2067.45 1255.73 2070.18 1256.56 Q2072.93 1257.37 2075.34 1259.02 Z" fill="#000000" fill-rule="nonzero" fill-opacity="1" /><path clip-path="url(#clip430)" d="M2082.56 1256.36 L2102.42 1256.36 L2102.42 1260.29 L2087.24 1260.29 L2087.24 1270.48 L2100.94 1270.48 L2100.94 1274.41 L2087.24 1274.41 L2087.24 1290.92 L2082.56 1290.92 L2082.56 1256.36 Z" fill="#000000" fill-rule="nonzero" fill-opacity="1" /><path clip-path="url(#clip430)" d="M2109.83 1256.36 L2131.68 1256.36 L2131.68 1260.29 L2114.51 1260.29 L2114.51 1270.52 L2130.97 1270.52 L2130.97 1274.46 L2114.51 1274.46 L2114.51 1286.98 L2132.1 1286.98 L2132.1 1290.92 L2109.83 1290.92 L2109.83 1256.36 Z" fill="#000000" fill-rule="nonzero" fill-opacity="1" /><polyline clip-path="url(#clip430)" style="stroke:#e26f46; stroke-linecap:round; stroke-linejoin:round; stroke-width:4; stroke-opacity:1; fill:none" points="1760.23,1325.48 1900.94,1325.48 "/>
<path clip-path="url(#clip430)" d="M1929.07 1326.25 L1929.07 1338.91 L1936.57 1338.91 Q1940.34 1338.91 1942.15 1337.36 Q1943.98 1335.79 1943.98 1332.57 Q1943.98 1329.33 1942.15 1327.8 Q1940.34 1326.25 1936.57 1326.25 L1929.07 1326.25 M1929.07 1312.04 L1929.07 1322.45 L1935.99 1322.45 Q1939.42 1322.45 1941.08 1321.18 Q1942.77 1319.89 1942.77 1317.25 Q1942.77 1314.63 1941.08 1313.33 Q1939.42 1312.04 1935.99 1312.04 L1929.07 1312.04 M1924.39 1308.2 L1936.34 1308.2 Q1941.68 1308.2 1944.58 1310.42 Q1947.47 1312.64 1947.47 1316.74 Q1947.47 1319.91 1945.99 1321.78 Q1944.51 1323.66 1941.64 1324.12 Q1945.09 1324.86 1946.98 1327.22 Q1948.91 1329.56 1948.91 1333.08 Q1948.91 1337.71 1945.76 1340.23 Q1942.61 1342.76 1936.8 1342.76 L1924.39 1342.76 L1924.39 1308.2 Z" fill="#000000" fill-rule="nonzero" fill-opacity="1" /><path clip-path="url(#clip430)" d="M1961.59 1326.25 L1961.59 1338.91 L1969.09 1338.91 Q1972.86 1338.91 1974.67 1337.36 Q1976.5 1335.79 1976.5 1332.57 Q1976.5 1329.33 1974.67 1327.8 Q1972.86 1326.25 1969.09 1326.25 L1961.59 1326.25 M1961.59 1312.04 L1961.59 1322.45 L1968.51 1322.45 Q1971.94 1322.45 1973.6 1321.18 Q1975.29 1319.89 1975.29 1317.25 Q1975.29 1314.63 1973.6 1313.33 Q1971.94 1312.04 1968.51 1312.04 L1961.59 1312.04 M1956.92 1308.2 L1968.86 1308.2 Q1974.21 1308.2 1977.1 1310.42 Q1979.99 1312.64 1979.99 1316.74 Q1979.99 1319.91 1978.51 1321.78 Q1977.03 1323.66 1974.16 1324.12 Q1977.61 1324.86 1979.51 1327.22 Q1981.43 1329.56 1981.43 1333.08 Q1981.43 1337.71 1978.28 1340.23 Q1975.13 1342.76 1969.32 1342.76 L1956.92 1342.76 L1956.92 1308.2 Z" fill="#000000" fill-rule="nonzero" fill-opacity="1" /><path clip-path="url(#clip430)" d="M1996.89 1342.76 L1983.7 1308.2 L1988.58 1308.2 L1999.53 1337.29 L2010.5 1308.2 L2015.36 1308.2 L2002.19 1342.76 L1996.89 1342.76 Z" fill="#000000" fill-rule="nonzero" fill-opacity="1" /><path clip-path="url(#clip430)" d="M2020.41 1308.2 L2025.09 1308.2 L2025.09 1342.76 L2020.41 1342.76 L2020.41 1308.2 Z" fill="#000000" fill-rule="nonzero" fill-opacity="1" /><path clip-path="url(#clip430)" d="M2075.34 1310.86 L2075.34 1315.79 Q2072.98 1313.59 2070.29 1312.5 Q2067.63 1311.41 2064.62 1311.41 Q2058.7 1311.41 2055.55 1315.05 Q2052.4 1318.66 2052.4 1325.51 Q2052.4 1332.34 2055.55 1335.97 Q2058.7 1339.58 2064.62 1339.58 Q2067.63 1339.58 2070.29 1338.5 Q2072.98 1337.41 2075.34 1335.21 L2075.34 1340.09 Q2072.89 1341.76 2070.13 1342.59 Q2067.4 1343.43 2064.35 1343.43 Q2056.5 1343.43 2051.98 1338.63 Q2047.47 1333.82 2047.47 1325.51 Q2047.47 1317.18 2051.98 1312.39 Q2056.5 1307.57 2064.35 1307.57 Q2067.45 1307.57 2070.18 1308.4 Q2072.93 1309.21 2075.34 1310.86 Z" fill="#000000" fill-rule="nonzero" fill-opacity="1" /><path clip-path="url(#clip430)" d="M2082.56 1308.2 L2102.42 1308.2 L2102.42 1312.13 L2087.24 1312.13 L2087.24 1322.32 L2100.94 1322.32 L2100.94 1326.25 L2087.24 1326.25 L2087.24 1342.76 L2082.56 1342.76 L2082.56 1308.2 Z" fill="#000000" fill-rule="nonzero" fill-opacity="1" /><path clip-path="url(#clip430)" d="M2109.83 1308.2 L2131.68 1308.2 L2131.68 1312.13 L2114.51 1312.13 L2114.51 1322.36 L2130.97 1322.36 L2130.97 1326.3 L2114.51 1326.3 L2114.51 1338.82 L2132.1 1338.82 L2132.1 1342.76 L2109.83 1342.76 L2109.83 1308.2 Z" fill="#000000" fill-rule="nonzero" fill-opacity="1" /><path clip-path="url(#clip430)" d="M2168.88 1311.37 Q2163.79 1311.37 2160.78 1315.16 Q2157.79 1318.96 2157.79 1325.51 Q2157.79 1332.04 2160.78 1335.83 Q2163.79 1339.63 2168.88 1339.63 Q2173.97 1339.63 2176.94 1335.83 Q2179.92 1332.04 2179.92 1325.51 Q2179.92 1318.96 2176.94 1315.16 Q2173.97 1311.37 2168.88 1311.37 M2175.43 1342.13 L2181.59 1348.87 L2175.94 1348.87 L2170.83 1343.33 Q2170.06 1343.38 2169.65 1343.4 Q2169.25 1343.43 2168.88 1343.43 Q2161.59 1343.43 2157.21 1338.57 Q2152.86 1333.68 2152.86 1325.51 Q2152.86 1317.32 2157.21 1312.45 Q2161.59 1307.57 2168.88 1307.57 Q2176.15 1307.57 2180.5 1312.45 Q2184.85 1317.32 2184.85 1325.51 Q2184.85 1331.53 2182.42 1335.81 Q2180.02 1340.09 2175.43 1342.13 Z" fill="#000000" fill-rule="nonzero" fill-opacity="1" /><path clip-path="url(#clip430)" d="M2192.17 1308.2 L2199.14 1308.2 L2207.96 1331.71 L2216.82 1308.2 L2223.79 1308.2 L2223.79 1342.76 L2219.23 1342.76 L2219.23 1312.41 L2210.32 1336.11 L2205.62 1336.11 L2196.71 1312.41 L2196.71 1342.76 L2192.17 1342.76 L2192.17 1308.2 Z" fill="#000000" fill-rule="nonzero" fill-opacity="1" /><path clip-path="url(#clip430)" d="M2258.95 1310.86 L2258.95 1315.79 Q2256.59 1313.59 2253.9 1312.5 Q2251.24 1311.41 2248.23 1311.41 Q2242.31 1311.41 2239.16 1315.05 Q2236.01 1318.66 2236.01 1325.51 Q2236.01 1332.34 2239.16 1335.97 Q2242.31 1339.58 2248.23 1339.58 Q2251.24 1339.58 2253.9 1338.5 Q2256.59 1337.41 2258.95 1335.21 L2258.95 1340.09 Q2256.5 1341.76 2253.74 1342.59 Q2251.01 1343.43 2247.96 1343.43 Q2240.11 1343.43 2235.59 1338.63 Q2231.08 1333.82 2231.08 1325.51 Q2231.08 1317.18 2235.59 1312.39 Q2240.11 1307.57 2247.96 1307.57 Q2251.06 1307.57 2253.79 1308.4 Q2256.54 1309.21 2258.95 1310.86 Z" fill="#000000" fill-rule="nonzero" fill-opacity="1" /></svg>
