<?xml version="1.0" encoding="utf-8"?>
<svg xmlns="http://www.w3.org/2000/svg" xmlns:xlink="http://www.w3.org/1999/xlink" width="600" height="400" viewBox="0 0 2400 1600">
<defs>
  <clipPath id="clip400">
    <rect x="0" y="0" width="2400" height="1600"/>
  </clipPath>
</defs>
<path clip-path="url(#clip400)" d="M0 1600 L2400 1600 L2400 0 L0 0  Z" fill="#ffffff" fill-rule="evenodd" fill-opacity="1"/>
<defs>
  <clipPath id="clip401">
    <rect x="242" y="47" width="2112" height="1377"/>
  </clipPath>
</defs>
<path clip-path="url(#clip400)" d="M251.56 1423.18 L2352.76 1423.18 L2352.76 47.2441 L251.56 47.2441  Z" fill="#ffffff" fill-rule="evenodd" fill-opacity="1"/>
<defs>
  <clipPath id="clip402">
    <rect x="251" y="47" width="2102" height="1377"/>
  </clipPath>
</defs>
<polyline clip-path="url(#clip402)" style="stroke:#000000; stroke-linecap:round; stroke-linejoin:round; stroke-width:2; stroke-opacity:0.1; fill:none" points="309.044,1423.18 309.044,47.2441 "/>
<polyline clip-path="url(#clip402)" style="stroke:#000000; stroke-linecap:round; stroke-linejoin:round; stroke-width:2; stroke-opacity:0.1; fill:none" points="805.105,1423.18 805.105,47.2441 "/>
<polyline clip-path="url(#clip402)" style="stroke:#000000; stroke-linecap:round; stroke-linejoin:round; stroke-width:2; stroke-opacity:0.1; fill:none" points="1301.17,1423.18 1301.17,47.2441 "/>
<polyline clip-path="url(#clip402)" style="stroke:#000000; stroke-linecap:round; stroke-linejoin:round; stroke-width:2; stroke-opacity:0.1; fill:none" points="1797.23,1423.18 1797.23,47.2441 "/>
<polyline clip-path="url(#clip402)" style="stroke:#000000; stroke-linecap:round; stroke-linejoin:round; stroke-width:2; stroke-opacity:0.1; fill:none" points="2293.29,1423.18 2293.29,47.2441 "/>
<polyline clip-path="url(#clip402)" style="stroke:#000000; stroke-linecap:round; stroke-linejoin:round; stroke-width:2; stroke-opacity:0.1; fill:none" points="251.56,1119.16 2352.76,1119.16 "/>
<polyline clip-path="url(#clip402)" style="stroke:#000000; stroke-linecap:round; stroke-linejoin:round; stroke-width:2; stroke-opacity:0.1; fill:none" points="251.56,228.557 2352.76,228.557 "/>
<polyline clip-path="url(#clip400)" style="stroke:#000000; stroke-linecap:round; stroke-linejoin:round; stroke-width:4; stroke-opacity:1; fill:none" points="251.56,1423.18 2352.76,1423.18 "/>
<polyline clip-path="url(#clip400)" style="stroke:#000000; stroke-linecap:round; stroke-linejoin:round; stroke-width:4; stroke-opacity:1; fill:none" points="309.044,1423.18 309.044,1404.28 "/>
<polyline clip-path="url(#clip400)" style="stroke:#000000; stroke-linecap:round; stroke-linejoin:round; stroke-width:4; stroke-opacity:1; fill:none" points="805.105,1423.18 805.105,1404.28 "/>
<polyline clip-path="url(#clip400)" style="stroke:#000000; stroke-linecap:round; stroke-linejoin:round; stroke-width:4; stroke-opacity:1; fill:none" points="1301.17,1423.18 1301.17,1404.28 "/>
<polyline clip-path="url(#clip400)" style="stroke:#000000; stroke-linecap:round; stroke-linejoin:round; stroke-width:4; stroke-opacity:1; fill:none" points="1797.23,1423.18 1797.23,1404.28 "/>
<polyline clip-path="url(#clip400)" style="stroke:#000000; stroke-linecap:round; stroke-linejoin:round; stroke-width:4; stroke-opacity:1; fill:none" points="2293.29,1423.18 2293.29,1404.28 "/>
<path clip-path="url(#clip400)" d="M309.044 1454.1 Q305.433 1454.1 303.604 1457.66 Q301.798 1461.2 301.798 1468.33 Q301.798 1475.44 303.604 1479.01 Q305.433 1482.55 309.044 1482.55 Q312.678 1482.55 314.484 1479.01 Q316.312 1475.44 316.312 1468.33 Q316.312 1461.2 314.484 1457.66 Q312.678 1454.1 309.044 1454.1 M309.044 1450.39 Q314.854 1450.39 317.91 1455 Q320.988 1459.58 320.988 1468.33 Q320.988 1477.06 317.91 1481.67 Q314.854 1486.25 309.044 1486.25 Q303.234 1486.25 300.155 1481.67 Q297.099 1477.06 297.099 1468.33 Q297.099 1459.58 300.155 1455 Q303.234 1450.39 309.044 1450.39 Z" fill="#000000" fill-rule="nonzero" fill-opacity="1" /><path clip-path="url(#clip400)" d="M768.797 1481.64 L785.117 1481.64 L785.117 1485.58 L763.172 1485.58 L763.172 1481.64 Q765.834 1478.89 770.418 1474.26 Q775.024 1469.61 776.205 1468.27 Q778.45 1465.74 779.33 1464.01 Q780.232 1462.25 780.232 1460.56 Q780.232 1457.8 778.288 1456.07 Q776.367 1454.33 773.265 1454.33 Q771.066 1454.33 768.612 1455.09 Q766.181 1455.86 763.404 1457.41 L763.404 1452.69 Q766.228 1451.55 768.681 1450.97 Q771.135 1450.39 773.172 1450.39 Q778.543 1450.39 781.737 1453.08 Q784.931 1455.77 784.931 1460.26 Q784.931 1462.39 784.121 1464.31 Q783.334 1466.2 781.228 1468.8 Q780.649 1469.47 777.547 1472.69 Q774.445 1475.88 768.797 1481.64 Z" fill="#000000" fill-rule="nonzero" fill-opacity="1" /><path clip-path="url(#clip400)" d="M794.978 1451.02 L813.334 1451.02 L813.334 1454.96 L799.26 1454.96 L799.26 1463.43 Q800.279 1463.08 801.297 1462.92 Q802.316 1462.73 803.334 1462.73 Q809.121 1462.73 812.501 1465.9 Q815.88 1469.08 815.88 1474.49 Q815.88 1480.07 812.408 1483.17 Q808.936 1486.25 802.616 1486.25 Q800.441 1486.25 798.172 1485.88 Q795.927 1485.51 793.519 1484.77 L793.519 1480.07 Q795.603 1481.2 797.825 1481.76 Q800.047 1482.32 802.524 1482.32 Q806.528 1482.32 808.866 1480.21 Q811.204 1478.1 811.204 1474.49 Q811.204 1470.88 808.866 1468.77 Q806.528 1466.67 802.524 1466.67 Q800.649 1466.67 798.774 1467.08 Q796.922 1467.5 794.978 1468.38 L794.978 1451.02 Z" fill="#000000" fill-rule="nonzero" fill-opacity="1" /><path clip-path="url(#clip400)" d="M835.093 1454.1 Q831.482 1454.1 829.653 1457.66 Q827.848 1461.2 827.848 1468.33 Q827.848 1475.44 829.653 1479.01 Q831.482 1482.55 835.093 1482.55 Q838.727 1482.55 840.533 1479.01 Q842.362 1475.44 842.362 1468.33 Q842.362 1461.2 840.533 1457.66 Q838.727 1454.1 835.093 1454.1 M835.093 1450.39 Q840.903 1450.39 843.959 1455 Q847.038 1459.58 847.038 1468.33 Q847.038 1477.06 843.959 1481.67 Q840.903 1486.25 835.093 1486.25 Q829.283 1486.25 826.204 1481.67 Q823.149 1477.06 823.149 1468.33 Q823.149 1459.58 826.204 1455 Q829.283 1450.39 835.093 1450.39 Z" fill="#000000" fill-rule="nonzero" fill-opacity="1" /><path clip-path="url(#clip400)" d="M1260.78 1451.02 L1279.14 1451.02 L1279.14 1454.96 L1265.07 1454.96 L1265.07 1463.43 Q1266.09 1463.08 1267.1 1462.92 Q1268.12 1462.73 1269.14 1462.73 Q1274.93 1462.73 1278.31 1465.9 Q1281.69 1469.08 1281.69 1474.49 Q1281.69 1480.07 1278.21 1483.17 Q1274.74 1486.25 1268.42 1486.25 Q1266.25 1486.25 1263.98 1485.88 Q1261.73 1485.51 1259.33 1484.77 L1259.33 1480.07 Q1261.41 1481.2 1263.63 1481.76 Q1265.85 1482.32 1268.33 1482.32 Q1272.34 1482.32 1274.67 1480.21 Q1277.01 1478.1 1277.01 1474.49 Q1277.01 1470.88 1274.67 1468.77 Q1272.34 1466.67 1268.33 1466.67 Q1266.46 1466.67 1264.58 1467.08 Q1262.73 1467.5 1260.78 1468.38 L1260.78 1451.02 Z" fill="#000000" fill-rule="nonzero" fill-opacity="1" /><path clip-path="url(#clip400)" d="M1300.9 1454.1 Q1297.29 1454.1 1295.46 1457.66 Q1293.65 1461.2 1293.65 1468.33 Q1293.65 1475.44 1295.46 1479.01 Q1297.29 1482.55 1300.9 1482.55 Q1304.53 1482.55 1306.34 1479.01 Q1308.17 1475.44 1308.17 1468.33 Q1308.17 1461.2 1306.34 1457.66 Q1304.53 1454.1 1300.9 1454.1 M1300.9 1450.39 Q1306.71 1450.39 1309.77 1455 Q1312.84 1459.58 1312.84 1468.33 Q1312.84 1477.06 1309.77 1481.67 Q1306.71 1486.25 1300.9 1486.25 Q1295.09 1486.25 1292.01 1481.67 Q1288.96 1477.06 1288.96 1468.33 Q1288.96 1459.58 1292.01 1455 Q1295.09 1450.39 1300.9 1450.39 Z" fill="#000000" fill-rule="nonzero" fill-opacity="1" /><path clip-path="url(#clip400)" d="M1331.06 1454.1 Q1327.45 1454.1 1325.62 1457.66 Q1323.82 1461.2 1323.82 1468.33 Q1323.82 1475.44 1325.62 1479.01 Q1327.45 1482.55 1331.06 1482.55 Q1334.7 1482.55 1336.5 1479.01 Q1338.33 1475.44 1338.33 1468.33 Q1338.33 1461.2 1336.5 1457.66 Q1334.7 1454.1 1331.06 1454.1 M1331.06 1450.39 Q1336.87 1450.39 1339.93 1455 Q1343.01 1459.58 1343.01 1468.33 Q1343.01 1477.06 1339.93 1481.67 Q1336.87 1486.25 1331.06 1486.25 Q1325.25 1486.25 1322.17 1481.67 Q1319.12 1477.06 1319.12 1468.33 Q1319.12 1459.58 1322.17 1455 Q1325.25 1450.39 1331.06 1450.39 Z" fill="#000000" fill-rule="nonzero" fill-opacity="1" /><path clip-path="url(#clip400)" d="M1755.5 1451.02 L1777.72 1451.02 L1777.72 1453.01 L1765.18 1485.58 L1760.29 1485.58 L1772.1 1454.96 L1755.5 1454.96 L1755.5 1451.02 Z" fill="#000000" fill-rule="nonzero" fill-opacity="1" /><path clip-path="url(#clip400)" d="M1786.89 1451.02 L1805.25 1451.02 L1805.25 1454.96 L1791.17 1454.96 L1791.17 1463.43 Q1792.19 1463.08 1793.21 1462.92 Q1794.23 1462.73 1795.25 1462.73 Q1801.03 1462.73 1804.41 1465.9 Q1807.79 1469.08 1807.79 1474.49 Q1807.79 1480.07 1804.32 1483.17 Q1800.85 1486.25 1794.53 1486.25 Q1792.35 1486.25 1790.09 1485.88 Q1787.84 1485.51 1785.43 1484.77 L1785.43 1480.07 Q1787.52 1481.2 1789.74 1481.76 Q1791.96 1482.32 1794.44 1482.32 Q1798.44 1482.32 1800.78 1480.21 Q1803.12 1478.1 1803.12 1474.49 Q1803.12 1470.88 1800.78 1468.77 Q1798.44 1466.67 1794.44 1466.67 Q1792.56 1466.67 1790.69 1467.08 Q1788.84 1467.5 1786.89 1468.38 L1786.89 1451.02 Z" fill="#000000" fill-rule="nonzero" fill-opacity="1" /><path clip-path="url(#clip400)" d="M1827.01 1454.1 Q1823.4 1454.1 1821.57 1457.66 Q1819.76 1461.2 1819.76 1468.33 Q1819.76 1475.44 1821.57 1479.01 Q1823.4 1482.55 1827.01 1482.55 Q1830.64 1482.55 1832.45 1479.01 Q1834.28 1475.44 1834.28 1468.33 Q1834.28 1461.2 1832.45 1457.66 Q1830.64 1454.1 1827.01 1454.1 M1827.01 1450.39 Q1832.82 1450.39 1835.87 1455 Q1838.95 1459.58 1838.95 1468.33 Q1838.95 1477.06 1835.87 1481.67 Q1832.82 1486.25 1827.01 1486.25 Q1821.2 1486.25 1818.12 1481.67 Q1815.06 1477.06 1815.06 1468.33 Q1815.06 1459.58 1818.12 1455 Q1821.2 1450.39 1827.01 1450.39 Z" fill="#000000" fill-rule="nonzero" fill-opacity="1" /><path clip-path="url(#clip400)" d="M2237.81 1481.64 L2245.45 1481.64 L2245.45 1455.28 L2237.14 1456.95 L2237.14 1452.69 L2245.41 1451.02 L2250.08 1451.02 L2250.08 1481.64 L2257.72 1481.64 L2257.72 1485.58 L2237.81 1485.58 L2237.81 1481.64 Z" fill="#000000" fill-rule="nonzero" fill-opacity="1" /><path clip-path="url(#clip400)" d="M2277.17 1454.1 Q2273.55 1454.1 2271.73 1457.66 Q2269.92 1461.2 2269.92 1468.33 Q2269.92 1475.44 2271.73 1479.01 Q2273.55 1482.55 2277.17 1482.55 Q2280.8 1482.55 2282.61 1479.01 Q2284.43 1475.44 2284.43 1468.33 Q2284.43 1461.2 2282.61 1457.66 Q2280.8 1454.1 2277.17 1454.1 M2277.17 1450.39 Q2282.98 1450.39 2286.03 1455 Q2289.11 1459.58 2289.11 1468.33 Q2289.11 1477.06 2286.03 1481.67 Q2282.98 1486.25 2277.17 1486.25 Q2271.36 1486.25 2268.28 1481.67 Q2265.22 1477.06 2265.22 1468.33 Q2265.22 1459.58 2268.28 1455 Q2271.36 1450.39 2277.17 1450.39 Z" fill="#000000" fill-rule="nonzero" fill-opacity="1" /><path clip-path="url(#clip400)" d="M2307.33 1454.1 Q2303.72 1454.1 2301.89 1457.66 Q2300.08 1461.2 2300.08 1468.33 Q2300.08 1475.44 2301.89 1479.01 Q2303.72 1482.55 2307.33 1482.55 Q2310.96 1482.55 2312.77 1479.01 Q2314.6 1475.44 2314.6 1468.33 Q2314.6 1461.2 2312.77 1457.66 Q2310.96 1454.1 2307.33 1454.1 M2307.33 1450.39 Q2313.14 1450.39 2316.19 1455 Q2319.27 1459.58 2319.27 1468.33 Q2319.27 1477.06 2316.19 1481.67 Q2313.14 1486.25 2307.33 1486.25 Q2301.52 1486.25 2298.44 1481.67 Q2295.38 1477.06 2295.38 1468.33 Q2295.38 1459.58 2298.44 1455 Q2301.52 1450.39 2307.33 1450.39 Z" fill="#000000" fill-rule="nonzero" fill-opacity="1" /><path clip-path="url(#clip400)" d="M2337.49 1454.1 Q2333.88 1454.1 2332.05 1457.66 Q2330.24 1461.2 2330.24 1468.33 Q2330.24 1475.44 2332.05 1479.01 Q2333.88 1482.55 2337.49 1482.55 Q2341.12 1482.55 2342.93 1479.01 Q2344.76 1475.44 2344.76 1468.33 Q2344.76 1461.2 2342.93 1457.66 Q2341.12 1454.1 2337.49 1454.1 M2337.49 1450.39 Q2343.3 1450.39 2346.35 1455 Q2349.43 1459.58 2349.43 1468.33 Q2349.43 1477.06 2346.35 1481.67 Q2343.3 1486.25 2337.49 1486.25 Q2331.68 1486.25 2328.6 1481.67 Q2325.54 1477.06 2325.54 1468.33 Q2325.54 1459.58 2328.6 1455 Q2331.68 1450.39 2337.49 1450.39 Z" fill="#000000" fill-rule="nonzero" fill-opacity="1" /><path clip-path="url(#clip400)" d="M1169.88 1520.52 L1176.31 1520.52 L1176.31 1568.04 L1169.88 1568.04 L1169.88 1520.52 Z" fill="#000000" fill-rule="nonzero" fill-opacity="1" /><path clip-path="url(#clip400)" d="M1194.64 1522.27 L1194.64 1532.4 L1206.7 1532.4 L1206.7 1536.95 L1194.64 1536.95 L1194.64 1556.3 Q1194.64 1560.66 1195.82 1561.9 Q1197.03 1563.14 1200.69 1563.14 L1206.7 1563.14 L1206.7 1568.04 L1200.69 1568.04 Q1193.91 1568.04 1191.33 1565.53 Q1188.75 1562.98 1188.75 1556.3 L1188.75 1536.95 L1184.46 1536.95 L1184.46 1532.4 L1188.75 1532.4 L1188.75 1522.27 L1194.64 1522.27 Z" fill="#000000" fill-rule="nonzero" fill-opacity="1" /><path clip-path="url(#clip400)" d="M1244.9 1548.76 L1244.9 1551.62 L1217.97 1551.62 Q1218.35 1557.67 1221.6 1560.85 Q1224.88 1564 1230.7 1564 Q1234.08 1564 1237.23 1563.17 Q1240.41 1562.35 1243.53 1560.69 L1243.53 1566.23 Q1240.38 1567.57 1237.07 1568.27 Q1233.76 1568.97 1230.35 1568.97 Q1221.82 1568.97 1216.83 1564 Q1211.86 1559.04 1211.86 1550.57 Q1211.86 1541.82 1216.57 1536.69 Q1221.31 1531.54 1229.33 1531.54 Q1236.53 1531.54 1240.7 1536.18 Q1244.9 1540.8 1244.9 1548.76 M1239.04 1547.04 Q1238.98 1542.23 1236.34 1539.37 Q1233.73 1536.5 1229.4 1536.5 Q1224.5 1536.5 1221.54 1539.27 Q1218.61 1542.04 1218.16 1547.07 L1239.04 1547.04 Z" fill="#000000" fill-rule="nonzero" fill-opacity="1" /><path clip-path="url(#clip400)" d="M1275.17 1537.87 Q1274.18 1537.3 1273 1537.04 Q1271.86 1536.76 1270.46 1536.76 Q1265.49 1536.76 1262.82 1540 Q1260.18 1543.22 1260.18 1549.27 L1260.18 1568.04 L1254.29 1568.04 L1254.29 1532.4 L1260.18 1532.4 L1260.18 1537.93 Q1262.02 1534.69 1264.98 1533.13 Q1267.94 1531.54 1272.18 1531.54 Q1272.78 1531.54 1273.51 1531.63 Q1274.24 1531.7 1275.14 1531.85 L1275.17 1537.87 Z" fill="#000000" fill-rule="nonzero" fill-opacity="1" /><path clip-path="url(#clip400)" d="M1297.51 1550.12 Q1290.41 1550.12 1287.68 1551.75 Q1284.94 1553.37 1284.94 1557.29 Q1284.94 1560.4 1286.98 1562.25 Q1289.04 1564.07 1292.58 1564.07 Q1297.45 1564.07 1300.38 1560.63 Q1303.34 1557.16 1303.34 1551.43 L1303.34 1550.12 L1297.51 1550.12 M1309.19 1547.71 L1309.19 1568.04 L1303.34 1568.04 L1303.34 1562.63 Q1301.33 1565.88 1298.34 1567.44 Q1295.35 1568.97 1291.02 1568.97 Q1285.54 1568.97 1282.3 1565.91 Q1279.08 1562.82 1279.08 1557.67 Q1279.08 1551.65 1283.09 1548.6 Q1287.14 1545.54 1295.12 1545.54 L1303.34 1545.54 L1303.34 1544.97 Q1303.34 1540.93 1300.66 1538.73 Q1298.02 1536.5 1293.21 1536.5 Q1290.16 1536.5 1287.26 1537.23 Q1284.37 1537.97 1281.69 1539.43 L1281.69 1534.02 Q1284.91 1532.78 1287.93 1532.17 Q1290.95 1531.54 1293.82 1531.54 Q1301.55 1531.54 1305.37 1535.55 Q1309.19 1539.56 1309.19 1547.71 Z" fill="#000000" fill-rule="nonzero" fill-opacity="1" /><path clip-path="url(#clip400)" d="M1327.05 1522.27 L1327.05 1532.4 L1339.11 1532.4 L1339.11 1536.95 L1327.05 1536.95 L1327.05 1556.3 Q1327.05 1560.66 1328.23 1561.9 Q1329.44 1563.14 1333.1 1563.14 L1339.11 1563.14 L1339.11 1568.04 L1333.1 1568.04 Q1326.32 1568.04 1323.74 1565.53 Q1321.16 1562.98 1321.16 1556.3 L1321.16 1536.95 L1316.86 1536.95 L1316.86 1532.4 L1321.16 1532.4 L1321.16 1522.27 L1327.05 1522.27 Z" fill="#000000" fill-rule="nonzero" fill-opacity="1" /><path clip-path="url(#clip400)" d="M1346.81 1532.4 L1352.67 1532.4 L1352.67 1568.04 L1346.81 1568.04 L1346.81 1532.4 M1346.81 1518.52 L1352.67 1518.52 L1352.67 1525.93 L1346.81 1525.93 L1346.81 1518.52 Z" fill="#000000" fill-rule="nonzero" fill-opacity="1" /><path clip-path="url(#clip400)" d="M1378.74 1536.5 Q1374.03 1536.5 1371.29 1540.19 Q1368.55 1543.85 1368.55 1550.25 Q1368.55 1556.65 1371.26 1560.34 Q1374 1564 1378.74 1564 Q1383.42 1564 1386.15 1560.31 Q1388.89 1556.62 1388.89 1550.25 Q1388.89 1543.92 1386.15 1540.23 Q1383.42 1536.5 1378.74 1536.5 M1378.74 1531.54 Q1386.38 1531.54 1390.74 1536.5 Q1395.1 1541.47 1395.1 1550.25 Q1395.1 1559 1390.74 1564 Q1386.38 1568.97 1378.74 1568.97 Q1371.07 1568.97 1366.71 1564 Q1362.38 1559 1362.38 1550.25 Q1362.38 1541.47 1366.71 1536.5 Q1371.07 1531.54 1378.74 1531.54 Z" fill="#000000" fill-rule="nonzero" fill-opacity="1" /><path clip-path="url(#clip400)" d="M1434.44 1546.53 L1434.44 1568.04 L1428.58 1568.04 L1428.58 1546.72 Q1428.58 1541.66 1426.61 1539.14 Q1424.63 1536.63 1420.69 1536.63 Q1415.95 1536.63 1413.21 1539.65 Q1410.47 1542.68 1410.47 1547.9 L1410.47 1568.04 L1404.58 1568.04 L1404.58 1532.4 L1410.47 1532.4 L1410.47 1537.93 Q1412.57 1534.72 1415.4 1533.13 Q1418.27 1531.54 1421.99 1531.54 Q1428.14 1531.54 1431.29 1535.36 Q1434.44 1539.14 1434.44 1546.53 Z" fill="#000000" fill-rule="nonzero" fill-opacity="1" /><polyline clip-path="url(#clip400)" style="stroke:#000000; stroke-linecap:round; stroke-linejoin:round; stroke-width:4; stroke-opacity:1; fill:none" points="251.56,1423.18 251.56,47.2441 "/>
<polyline clip-path="url(#clip400)" style="stroke:#000000; stroke-linecap:round; stroke-linejoin:round; stroke-width:4; stroke-opacity:1; fill:none" points="251.56,1119.16 270.458,1119.16 "/>
<polyline clip-path="url(#clip400)" style="stroke:#000000; stroke-linecap:round; stroke-linejoin:round; stroke-width:4; stroke-opacity:1; fill:none" points="251.56,228.557 270.458,228.557 "/>
<path clip-path="url(#clip400)" d="M114.931 1138.96 L122.57 1138.96 L122.57 1112.59 L114.26 1114.26 L114.26 1110 L122.524 1108.33 L127.2 1108.33 L127.2 1138.96 L134.839 1138.96 L134.839 1142.89 L114.931 1142.89 L114.931 1138.96 Z" fill="#000000" fill-rule="nonzero" fill-opacity="1" /><path clip-path="url(#clip400)" d="M154.283 1111.41 Q150.672 1111.41 148.843 1114.97 Q147.038 1118.52 147.038 1125.65 Q147.038 1132.75 148.843 1136.32 Q150.672 1139.86 154.283 1139.86 Q157.917 1139.86 159.723 1136.32 Q161.552 1132.75 161.552 1125.65 Q161.552 1118.52 159.723 1114.97 Q157.917 1111.41 154.283 1111.41 M154.283 1107.71 Q160.093 1107.71 163.149 1112.31 Q166.227 1116.9 166.227 1125.65 Q166.227 1134.37 163.149 1138.98 Q160.093 1143.56 154.283 1143.56 Q148.473 1143.56 145.394 1138.98 Q142.339 1134.37 142.339 1125.65 Q142.339 1116.9 145.394 1112.31 Q148.473 1107.71 154.283 1107.71 Z" fill="#000000" fill-rule="nonzero" fill-opacity="1" /><path clip-path="url(#clip400)" d="M166.227 1101.81 L190.339 1101.81 L190.339 1105 L166.227 1105 L166.227 1101.81 Z" fill="#000000" fill-rule="nonzero" fill-opacity="1" /><path clip-path="url(#clip400)" d="M198.577 1087.4 L213.491 1087.4 L213.491 1090.6 L202.056 1090.6 L202.056 1097.48 Q202.884 1097.2 203.711 1097.07 Q204.539 1096.92 205.366 1096.92 Q210.068 1096.92 212.814 1099.49 Q215.56 1102.07 215.56 1106.47 Q215.56 1111 212.739 1113.52 Q209.918 1116.03 204.783 1116.03 Q203.015 1116.03 201.172 1115.73 Q199.348 1115.42 197.392 1114.82 L197.392 1111 Q199.085 1111.93 200.89 1112.38 Q202.696 1112.83 204.708 1112.83 Q207.962 1112.83 209.861 1111.12 Q211.761 1109.41 211.761 1106.47 Q211.761 1103.54 209.861 1101.83 Q207.962 1100.11 204.708 1100.11 Q203.185 1100.11 201.661 1100.45 Q200.157 1100.79 198.577 1101.51 L198.577 1087.4 Z" fill="#000000" fill-rule="nonzero" fill-opacity="1" /><path clip-path="url(#clip400)" d="M144.855 248.35 L152.493 248.35 L152.493 221.984 L144.183 223.651 L144.183 219.392 L152.447 217.725 L157.123 217.725 L157.123 248.35 L164.762 248.35 L164.762 252.285 L144.855 252.285 L144.855 248.35 Z" fill="#000000" fill-rule="nonzero" fill-opacity="1" /><path clip-path="url(#clip400)" d="M184.206 220.804 Q180.595 220.804 178.766 224.368 Q176.961 227.91 176.961 235.04 Q176.961 242.146 178.766 245.711 Q180.595 249.253 184.206 249.253 Q187.84 249.253 189.646 245.711 Q191.475 242.146 191.475 235.04 Q191.475 227.91 189.646 224.368 Q187.84 220.804 184.206 220.804 M184.206 217.1 Q190.016 217.1 193.072 221.706 Q196.151 226.29 196.151 235.04 Q196.151 243.767 193.072 248.373 Q190.016 252.956 184.206 252.956 Q178.396 252.956 175.317 248.373 Q172.262 243.767 172.262 235.04 Q172.262 226.29 175.317 221.706 Q178.396 217.1 184.206 217.1 Z" fill="#000000" fill-rule="nonzero" fill-opacity="1" /><path clip-path="url(#clip400)" d="M205.855 199.296 Q202.921 199.296 201.436 202.192 Q199.969 205.07 199.969 210.863 Q199.969 216.637 201.436 219.533 Q202.921 222.411 205.855 222.411 Q208.808 222.411 210.275 219.533 Q211.761 216.637 211.761 210.863 Q211.761 205.07 210.275 202.192 Q208.808 199.296 205.855 199.296 M205.855 196.287 Q210.576 196.287 213.059 200.03 Q215.56 203.753 215.56 210.863 Q215.56 217.953 213.059 221.696 Q210.576 225.42 205.855 225.42 Q201.135 225.42 198.633 221.696 Q196.151 217.953 196.151 210.863 Q196.151 203.753 198.633 200.03 Q201.135 196.287 205.855 196.287 Z" fill="#000000" fill-rule="nonzero" fill-opacity="1" /><path clip-path="url(#clip400)" d="M33.7671 1042.8 L14.479 1042.8 L14.479 1036.95 L64.0042 1036.95 L64.0042 1042.8 L58.657 1042.8 Q61.8398 1044.65 63.3994 1047.48 Q64.9272 1050.28 64.9272 1054.23 Q64.9272 1060.69 59.771 1064.76 Q54.6147 1068.81 46.212 1068.81 Q37.8093 1068.81 32.6531 1064.76 Q27.4968 1060.69 27.4968 1054.23 Q27.4968 1050.28 29.0564 1047.48 Q30.5842 1044.65 33.7671 1042.8 M46.212 1062.76 Q52.6732 1062.76 56.3653 1060.12 Q60.0256 1057.44 60.0256 1052.8 Q60.0256 1048.15 56.3653 1045.48 Q52.6732 1042.8 46.212 1042.8 Q39.7508 1042.8 36.0905 1045.48 Q32.3984 1048.15 32.3984 1052.8 Q32.3984 1057.44 36.0905 1060.12 Q39.7508 1062.76 46.212 1062.76 Z" fill="#000000" fill-rule="nonzero" fill-opacity="1" /><path clip-path="url(#clip400)" d="M28.3562 1024.88 L28.3562 1019.03 L64.0042 1019.03 L64.0042 1024.88 L28.3562 1024.88 M14.479 1024.88 L14.479 1019.03 L21.895 1019.03 L21.895 1024.88 L14.479 1024.88 Z" fill="#000000" fill-rule="nonzero" fill-opacity="1" /><path clip-path="url(#clip400)" d="M29.4065 984.047 L34.9447 984.047 Q33.6716 986.53 33.035 989.204 Q32.3984 991.877 32.3984 994.742 Q32.3984 999.102 33.7352 1001.3 Q35.072 1003.46 37.7456 1003.46 Q39.7826 1003.46 40.9603 1001.9 Q42.1061 1000.34 43.1565 995.633 L43.6021 993.628 Q44.9389 987.389 47.3897 984.779 Q49.8086 982.138 54.1691 982.138 Q59.1344 982.138 62.0308 986.084 Q64.9272 989.999 64.9272 996.874 Q64.9272 999.739 64.3543 1002.86 Q63.8132 1005.95 62.6992 1009.38 L56.6518 1009.38 Q58.3387 1006.14 59.198 1002.99 Q60.0256 999.834 60.0256 996.747 Q60.0256 992.609 58.6251 990.381 Q57.1929 988.153 54.6147 988.153 Q52.2276 988.153 50.9545 989.777 Q49.6813 991.368 48.5037 996.811 L48.0262 998.848 Q46.8804 1004.29 44.5251 1006.71 Q42.138 1009.13 38.0002 1009.13 Q32.9713 1009.13 30.2341 1005.56 Q27.4968 1002 27.4968 995.442 Q27.4968 992.196 27.9743 989.331 Q28.4517 986.466 29.4065 984.047 Z" fill="#000000" fill-rule="nonzero" fill-opacity="1" /><path clip-path="url(#clip400)" d="M18.2347 967.019 L28.3562 967.019 L28.3562 954.956 L32.9077 954.956 L32.9077 967.019 L52.2594 967.019 Q56.6199 967.019 57.8613 965.842 Q59.1026 964.632 59.1026 960.972 L59.1026 954.956 L64.0042 954.956 L64.0042 960.972 Q64.0042 967.751 61.4897 970.329 Q58.9434 972.907 52.2594 972.907 L32.9077 972.907 L32.9077 977.204 L28.3562 977.204 L28.3562 972.907 L18.2347 972.907 L18.2347 967.019 Z" fill="#000000" fill-rule="nonzero" fill-opacity="1" /><path clip-path="url(#clip400)" d="M46.0847 931.053 Q46.0847 938.151 47.7079 940.888 Q49.3312 943.625 53.2461 943.625 Q56.3653 943.625 58.2114 941.588 Q60.0256 939.519 60.0256 935.986 Q60.0256 931.117 56.5881 928.188 Q53.1188 925.228 47.3897 925.228 L46.0847 925.228 L46.0847 931.053 M43.6657 919.372 L64.0042 919.372 L64.0042 925.228 L58.5933 925.228 Q61.8398 927.234 63.3994 930.225 Q64.9272 933.217 64.9272 937.546 Q64.9272 943.02 61.8716 946.267 Q58.7843 949.482 53.6281 949.482 Q47.6125 949.482 44.5569 945.471 Q41.5014 941.429 41.5014 933.44 L41.5014 925.228 L40.9285 925.228 Q36.8862 925.228 34.6901 927.902 Q32.4621 930.544 32.4621 935.35 Q32.4621 938.405 33.1941 941.302 Q33.9262 944.198 35.3903 946.872 L29.9795 946.872 Q28.7381 943.657 28.1334 940.633 Q27.4968 937.61 27.4968 934.745 Q27.4968 927.011 31.5072 923.191 Q35.5176 919.372 43.6657 919.372 Z" fill="#000000" fill-rule="nonzero" fill-opacity="1" /><path clip-path="url(#clip400)" d="M42.4881 877.676 L64.0042 877.676 L64.0042 883.533 L42.679 883.533 Q37.6183 883.533 35.1038 885.506 Q32.5894 887.48 32.5894 891.426 Q32.5894 896.169 35.6131 898.906 Q38.6368 901.643 43.8567 901.643 L64.0042 901.643 L64.0042 907.532 L28.3562 907.532 L28.3562 901.643 L33.8944 901.643 Q30.6797 899.543 29.0883 896.71 Q27.4968 893.845 27.4968 890.121 Q27.4968 883.979 31.3163 880.828 Q35.1038 877.676 42.4881 877.676 Z" fill="#000000" fill-rule="nonzero" fill-opacity="1" /><path clip-path="url(#clip400)" d="M29.7248 840.342 L35.1993 840.342 Q33.8307 842.824 33.1623 845.339 Q32.4621 847.821 32.4621 850.368 Q32.4621 856.065 36.0905 859.216 Q39.6872 862.367 46.212 862.367 Q52.7369 862.367 56.3653 859.216 Q59.9619 856.065 59.9619 850.368 Q59.9619 847.821 59.2935 845.339 Q58.5933 842.824 57.2247 840.342 L62.6355 840.342 Q63.7814 842.792 64.3543 845.434 Q64.9272 848.044 64.9272 851.004 Q64.9272 859.057 59.8664 863.799 Q54.8057 868.542 46.212 868.542 Q37.491 868.542 32.4939 863.767 Q27.4968 858.961 27.4968 850.622 Q27.4968 847.917 28.0697 845.339 Q28.6108 842.761 29.7248 840.342 Z" fill="#000000" fill-rule="nonzero" fill-opacity="1" /><path clip-path="url(#clip400)" d="M44.7161 799.665 L47.5806 799.665 L47.5806 826.592 Q53.6281 826.21 56.8109 822.963 Q59.9619 819.685 59.9619 813.86 Q59.9619 810.486 59.1344 807.335 Q58.3069 804.153 56.6518 801.033 L62.1899 801.033 Q63.5267 804.184 64.227 807.495 Q64.9272 810.805 64.9272 814.21 Q64.9272 822.74 59.9619 827.738 Q54.9967 832.703 46.5303 832.703 Q37.7774 832.703 32.6531 827.992 Q27.4968 823.25 27.4968 815.229 Q27.4968 808.036 32.1438 803.866 Q36.7589 799.665 44.7161 799.665 M42.9973 805.521 Q38.1912 805.585 35.3266 808.227 Q32.4621 810.837 32.4621 815.165 Q32.4621 820.067 35.2312 823.027 Q38.0002 825.955 43.0292 826.401 L42.9973 805.521 Z" fill="#000000" fill-rule="nonzero" fill-opacity="1" /><path clip-path="url(#clip400)" d="M18.2347 763.539 L28.3562 763.539 L28.3562 751.476 L32.9077 751.476 L32.9077 763.539 L52.2594 763.539 Q56.6199 763.539 57.8613 762.362 Q59.1026 761.152 59.1026 757.492 L59.1026 751.476 L64.0042 751.476 L64.0042 757.492 Q64.0042 764.271 61.4897 766.85 Q58.9434 769.428 52.2594 769.428 L32.9077 769.428 L32.9077 773.724 L28.3562 773.724 L28.3562 769.428 L18.2347 769.428 L18.2347 763.539 Z" fill="#000000" fill-rule="nonzero" fill-opacity="1" /><path clip-path="url(#clip400)" d="M32.4621 729.96 Q32.4621 734.671 36.1542 737.408 Q39.8145 740.145 46.212 740.145 Q52.6095 740.145 56.3017 737.44 Q59.9619 734.703 59.9619 729.96 Q59.9619 725.281 56.2698 722.544 Q52.5777 719.807 46.212 719.807 Q39.8781 719.807 36.186 722.544 Q32.4621 725.281 32.4621 729.96 M27.4968 729.96 Q27.4968 722.321 32.4621 717.961 Q37.4273 713.6 46.212 713.6 Q54.9649 713.6 59.9619 717.961 Q64.9272 722.321 64.9272 729.96 Q64.9272 737.631 59.9619 741.991 Q54.9649 746.32 46.212 746.32 Q37.4273 746.32 32.4621 741.991 Q27.4968 737.631 27.4968 729.96 Z" fill="#000000" fill-rule="nonzero" fill-opacity="1" /><path clip-path="url(#clip400)" d="M32.4621 669.359 Q32.4621 674.069 36.1542 676.807 Q39.8145 679.544 46.212 679.544 Q52.6095 679.544 56.3017 676.838 Q59.9619 674.101 59.9619 669.359 Q59.9619 664.68 56.2698 661.943 Q52.5777 659.205 46.212 659.205 Q39.8781 659.205 36.186 661.943 Q32.4621 664.68 32.4621 669.359 M27.4968 669.359 Q27.4968 661.72 32.4621 657.359 Q37.4273 652.999 46.212 652.999 Q54.9649 652.999 59.9619 657.359 Q64.9272 661.72 64.9272 669.359 Q64.9272 677.029 59.9619 681.39 Q54.9649 685.719 46.212 685.719 Q37.4273 685.719 32.4621 681.39 Q27.4968 677.029 27.4968 669.359 Z" fill="#000000" fill-rule="nonzero" fill-opacity="1" /><path clip-path="url(#clip400)" d="M58.657 637.626 L77.5631 637.626 L77.5631 643.514 L28.3562 643.514 L28.3562 637.626 L33.7671 637.626 Q30.5842 635.78 29.0564 632.979 Q27.4968 630.146 27.4968 626.231 Q27.4968 619.738 32.6531 615.696 Q37.8093 611.622 46.212 611.622 Q54.6147 611.622 59.771 615.696 Q64.9272 619.738 64.9272 626.231 Q64.9272 630.146 63.3994 632.979 Q61.8398 635.78 58.657 637.626 M46.212 617.701 Q39.7508 617.701 36.0905 620.375 Q32.3984 623.016 32.3984 627.663 Q32.3984 632.31 36.0905 634.984 Q39.7508 637.626 46.212 637.626 Q52.6732 637.626 56.3653 634.984 Q60.0256 632.31 60.0256 627.663 Q60.0256 623.016 56.3653 620.375 Q52.6732 617.701 46.212 617.701 Z" fill="#000000" fill-rule="nonzero" fill-opacity="1" /><path clip-path="url(#clip400)" d="M18.2347 596.121 L28.3562 596.121 L28.3562 584.058 L32.9077 584.058 L32.9077 596.121 L52.2594 596.121 Q56.6199 596.121 57.8613 594.944 Q59.1026 593.734 59.1026 590.074 L59.1026 584.058 L64.0042 584.058 L64.0042 590.074 Q64.0042 596.853 61.4897 599.431 Q58.9434 602.01 52.2594 602.01 L32.9077 602.01 L32.9077 606.306 L28.3562 606.306 L28.3562 602.01 L18.2347 602.01 L18.2347 596.121 Z" fill="#000000" fill-rule="nonzero" fill-opacity="1" /><path clip-path="url(#clip400)" d="M28.3562 576.356 L28.3562 570.499 L64.0042 570.499 L64.0042 576.356 L28.3562 576.356 M14.479 576.356 L14.479 570.499 L21.895 570.499 L21.895 576.356 L14.479 576.356 Z" fill="#000000" fill-rule="nonzero" fill-opacity="1" /><path clip-path="url(#clip400)" d="M35.1993 530.491 Q31.2526 528.295 29.3747 525.239 Q27.4968 522.184 27.4968 518.046 Q27.4968 512.476 31.4117 509.452 Q35.2948 506.428 42.4881 506.428 L64.0042 506.428 L64.0042 512.317 L42.679 512.317 Q37.5546 512.317 35.072 514.131 Q32.5894 515.945 32.5894 519.669 Q32.5894 524.221 35.6131 526.862 Q38.6368 529.504 43.8567 529.504 L64.0042 529.504 L64.0042 535.392 L42.679 535.392 Q37.5228 535.392 35.072 537.207 Q32.5894 539.021 32.5894 542.808 Q32.5894 547.296 35.6449 549.938 Q38.6686 552.58 43.8567 552.58 L64.0042 552.58 L64.0042 558.468 L28.3562 558.468 L28.3562 552.58 L33.8944 552.58 Q30.616 550.575 29.0564 547.774 Q27.4968 544.973 27.4968 541.122 Q27.4968 537.238 29.4702 534.533 Q31.4436 531.796 35.1993 530.491 Z" fill="#000000" fill-rule="nonzero" fill-opacity="1" /><path clip-path="url(#clip400)" d="M49.9359 495.352 L28.3562 495.352 L28.3562 489.496 L49.7131 489.496 Q54.7739 489.496 57.3202 487.522 Q59.8346 485.549 59.8346 481.602 Q59.8346 476.86 56.8109 474.123 Q53.7872 471.353 48.5673 471.353 L28.3562 471.353 L28.3562 465.497 L64.0042 465.497 L64.0042 471.353 L58.5296 471.353 Q61.7762 473.486 63.3676 476.319 Q64.9272 479.12 64.9272 482.844 Q64.9272 488.986 61.1078 492.169 Q57.2883 495.352 49.9359 495.352 M27.4968 480.616 L27.4968 480.616 Z" fill="#000000" fill-rule="nonzero" fill-opacity="1" /><path clip-path="url(#clip400)" d="M35.1993 425.679 Q31.2526 423.483 29.3747 420.428 Q27.4968 417.372 27.4968 413.235 Q27.4968 407.665 31.4117 404.641 Q35.2948 401.617 42.4881 401.617 L64.0042 401.617 L64.0042 407.505 L42.679 407.505 Q37.5546 407.505 35.072 409.32 Q32.5894 411.134 32.5894 414.858 Q32.5894 419.409 35.6131 422.051 Q38.6368 424.693 43.8567 424.693 L64.0042 424.693 L64.0042 430.581 L42.679 430.581 Q37.5228 430.581 35.072 432.395 Q32.5894 434.21 32.5894 437.997 Q32.5894 442.485 35.6449 445.127 Q38.6686 447.768 43.8567 447.768 L64.0042 447.768 L64.0042 453.657 L28.3562 453.657 L28.3562 447.768 L33.8944 447.768 Q30.616 445.763 29.0564 442.962 Q27.4968 440.161 27.4968 436.31 Q27.4968 432.427 29.4702 429.722 Q31.4436 426.984 35.1993 425.679 Z" fill="#000000" fill-rule="nonzero" fill-opacity="1" /><polyline clip-path="url(#clip402)" style="stroke:#009af9; stroke-linecap:round; stroke-linejoin:round; stroke-width:4; stroke-opacity:1; fill:none" points="311.028,86.1857 313.012,86.5428 314.997,86.8869 316.981,87.2333 318.965,87.5789 320.949,87.9308 322.934,88.2891 324.918,88.6579 326.902,89.0246 328.886,89.3939 330.87,89.7703 332.855,90.1448 334.839,90.5186 336.823,90.8901 338.807,91.2604 340.792,91.6242 342.776,91.9908 344.76,92.355 346.744,92.7188 348.729,93.0907 350.713,93.4584 352.697,93.8268 354.681,94.1956 356.666,94.5693 358.65,94.9445 360.634,95.3265 362.618,95.6932 364.603,96.0576 366.587,96.4351 368.571,96.8032 370.555,97.1863 372.54,97.569 374.524,97.9571 376.508,98.3409 378.492,98.7122 380.477,99.0896 382.461,99.4788 384.445,99.852 386.429,100.223 388.414,100.597 390.398,100.966 392.382,101.339 394.366,101.715 396.351,102.099 398.335,102.485 400.319,102.875 402.303,103.25 404.288,103.624 406.272,103.989 408.256,104.36 410.24,104.719 412.225,105.069 414.209,105.411 416.193,105.772 418.177,106.151 420.161,106.521 422.146,106.883 424.13,107.252 426.114,107.631 428.098,108.011 430.083,108.396 432.067,108.788 434.051,109.182 436.035,109.58 438.02,109.978 440.004,110.366 441.988,110.746 443.972,111.137 445.957,111.53 447.941,111.937 449.925,112.352 451.909,112.775 453.894,113.194 455.878,113.606 457.862,114.013 459.846,114.422 461.831,114.832 463.815,115.237 465.799,115.628 467.783,116.033 469.768,116.459 471.752,116.884 473.736,117.313 475.72,117.739 477.705,118.16 479.689,118.577 481.673,118.99 483.657,119.406 485.642,119.847 487.626,120.277 489.61,120.698 491.594,121.119 493.579,121.546 495.563,121.968 497.547,122.401 499.531,122.813 501.516,123.216 503.5,123.626 505.484,124.043 507.468,124.462 509.452,124.874 511.437,125.303 513.421,125.746 515.405,126.185 517.389,126.631 519.374,127.075 521.358,127.519 523.342,127.956 525.326,128.382 527.311,128.81 529.295,129.237 531.279,129.659 533.263,130.086 535.248,130.499 537.232,130.92 539.216,131.366 541.2,131.812 543.185,132.26 545.169,132.722 547.153,133.163 549.137,133.588 551.122,134.015 553.106,134.446 555.09,134.905 557.074,135.366 559.059,135.827 561.043,136.304 563.027,136.796 565.011,137.277 566.996,137.745 568.98,138.222 570.964,138.709 572.948,139.192 574.933,139.681 576.917,140.186 578.901,140.671 580.885,141.151 582.87,141.673 584.854,142.213 586.838,142.745 588.822,143.278 590.806,143.828 592.791,144.386 594.775,144.933 596.759,145.475 598.743,146.006 600.728,146.536 602.712,147.072 604.696,147.608 606.68,148.174 608.665,148.734 610.649,149.285 612.633,149.825 614.617,150.362 616.602,150.916 618.586,151.484 620.57,152.032 622.554,152.579 624.539,153.125 626.523,153.662 628.507,154.185 630.491,154.711 632.476,155.241 634.46,155.763 636.444,156.282 638.428,156.781 640.413,157.319 642.397,157.855 644.381,158.369 646.365,158.899 648.35,159.437 650.334,160.003 652.318,160.553 654.302,161.08 656.287,161.594 658.271,162.088 660.255,162.584 662.239,163.065 664.224,163.555 666.208,163.999 668.192,164.453 670.176,164.931 672.161,165.41 674.145,165.88 676.129,166.338 678.113,166.814 680.097,167.324 682.082,167.828 684.066,168.37 686.05,168.901 688.034,169.419 690.019,169.957 692.003,170.515 693.987,171.117 695.971,171.695 697.956,172.25 699.94,172.776 701.924,173.303 703.908,173.795 705.893,174.302 707.877,174.81 709.861,175.307 711.845,175.842 713.83,176.385 715.814,176.876 717.798,177.317 719.782,177.712 721.767,178.104 723.751,178.523 725.735,178.991 727.719,179.446 729.704,179.905 731.688,180.358 733.672,180.814 735.656,181.288 737.641,181.752 739.625,182.188 741.609,182.623 743.593,183.055 745.578,183.486 747.562,183.95 749.546,184.405 751.53,184.893 753.515,185.368 755.499,185.848 757.483,186.339 759.467,186.834 761.452,187.287 763.436,187.753 765.42,188.185 767.404,188.574 769.388,188.955 771.373,189.408 773.357,189.838 775.341,190.313 777.325,190.828 779.31,191.381 781.294,191.919 783.278,192.531 785.262,193.113 787.247,193.623 789.231,194.126 791.215,194.593 793.199,195.017 795.184,195.44 797.168,195.817 799.152,196.196 801.136,196.543 803.121,196.891 805.105,197.259 807.089,197.669 809.073,198.074 811.058,198.498 813.042,198.899 815.026,199.29 817.01,199.737 818.995,200.161 820.979,200.602 822.963,201.091 824.947,201.561 826.932,202.005 828.916,202.473 830.9,202.901 832.884,203.331 834.869,203.738 836.853,204.146 838.837,204.58 840.821,205.029 842.806,205.502 844.79,205.983 846.774,206.459 848.758,206.939 850.743,207.369 852.727,207.798 854.711,208.272 856.695,208.661 858.679,209.079 860.664,209.524 862.648,209.983 864.632,210.504 866.616,211.037 868.601,211.538 870.585,211.971 872.569,212.362 874.553,212.84 876.538,213.31 878.522,213.833 880.506,214.323 882.49,214.783 884.475,215.29 886.459,215.877 888.443,216.416 890.427,216.868 892.412,217.278 894.396,217.749 896.38,218.253 898.364,218.673 900.349,219.118 902.333,219.591 904.317,220.093 906.301,220.636 908.286,221.215 910.27,221.751 912.254,222.202 914.238,222.651 916.223,223.238 918.207,223.795 920.191,224.331 922.175,224.886 924.16,225.366 926.144,225.87 928.128,226.308 930.112,226.784 932.097,227.347 934.081,227.87 936.065,228.343 938.049,228.722 940.033,229.118 942.018,229.542 944.002,230.064 945.986,230.607 947.97,231.131 949.955,231.719 951.939,232.299 953.923,232.807 955.907,233.371 957.892,233.823 959.876,234.24 961.86,234.71 963.844,235.175 965.829,235.588 967.813,236.057 969.797,236.645 971.781,237.241 973.766,237.844 975.75,238.531 977.734,239.122 979.718,239.798 981.703,240.489 983.687,241.234 985.671,242.081 987.655,242.926 989.64,243.729 991.624,244.567 993.608,245.394 995.592,246.129 997.577,246.905 999.561,247.736 1001.55,248.649 1003.53,249.445 1005.51,250.355 1007.5,251.333 1009.48,252.277 1011.47,253.247 1013.45,254.182 1015.43,254.933 1017.42,255.848 1019.4,256.714 1021.39,257.445 1023.37,258.06 1025.36,258.55 1027.34,259.171 1029.32,259.839 1031.31,260.384 1033.29,260.958 1035.28,261.631 1037.26,262.258 1039.25,262.907 1041.23,263.468 1043.21,264.087 1045.2,264.688 1047.18,265.221 1049.17,265.83 1051.15,266.333 1053.14,266.786 1055.12,267.271 1057.1,267.812 1059.09,268.38 1061.07,269.13 1063.06,269.895 1065.04,270.576 1067.03,271.119 1069.01,271.713 1070.99,272.385 1072.98,273.095 1074.96,273.797 1076.95,274.432 1078.93,275.114 1080.91,275.77 1082.9,276.555 1084.88,277.249 1086.87,277.743 1088.85,278.253 1090.84,278.778 1092.82,279.285 1094.8,279.702 1096.79,280.226 1098.77,280.709 1100.76,281.163 1102.74,281.737 1104.73,282.302 1106.71,282.949 1108.69,283.518 1110.68,284.102 1112.66,284.924 1114.65,285.665 1116.63,286.356 1118.62,286.969 1120.6,287.638 1122.58,288.299 1124.57,289.126 1126.55,289.984 1128.54,290.66 1130.52,291.091 1132.51,291.544 1134.49,291.954 1136.47,292.474 1138.46,292.768 1140.44,293.226 1142.43,293.655 1144.41,294.05 1146.39,294.331 1148.38,294.821 1150.36,295.101 1152.35,295.322 1154.33,295.546 1156.32,295.942 1158.3,296.363 1160.28,296.587 1162.27,296.808 1164.25,297.177 1166.24,297.632 1168.22,297.956 1170.21,298.121 1172.19,298.208 1174.17,298.315 1176.16,298.556 1178.14,298.815 1180.13,299.097 1182.11,299.353 1184.1,299.856 1186.08,300.442 1188.06,301.165 1190.05,301.58 1192.03,302.188 1194.02,303.133 1196,304.186 1197.99,305.038 1199.97,305.677 1201.95,306.289 1203.94,306.281 1205.92,306.322 1207.91,306.485 1209.89,306.686 1211.87,307.015 1213.86,307.364 1215.84,307.611 1217.83,307.905 1219.81,308.102 1221.8,308.148 1223.78,308.578 1225.76,308.781 1227.75,309.137 1229.73,309.499 1231.72,310.267 1233.7,310.615 1235.69,310.898 1237.67,311.062 1239.65,311.184 1241.64,311.172 1243.62,311.385 1245.61,311.588 1247.59,311.875 1249.58,311.87 1251.56,311.533 1253.54,311.267 1255.53,311.077 1257.51,311.03 1259.5,310.999 1261.48,311.078 1263.47,311.1 1265.45,311.153 1267.43,311.019 1269.42,310.821 1271.4,310.803 1273.39,311.038 1275.37,311.395 1277.36,311.729 1279.34,311.983 1281.32,312.382 1283.31,312.691 1285.29,313.131 1287.28,313.525 1289.26,313.964 1291.24,314.507 1293.23,314.907 1295.21,315.243 1297.2,315.805 1299.18,316.362 1301.17,316.721 1303.15,316.722 1305.13,316.917 1307.12,316.953 1309.1,316.994 1311.09,316.628 1313.07,316.353 1315.06,316.054 1317.04,315.832 1319.02,315.648 1321.01,315.448 1322.99,315.434 1324.98,315.619 1326.96,315.823 1328.95,316.049 1330.93,316.127 1332.91,316.363 1334.9,316.815 1336.88,317.27 1338.87,317.445 1340.85,317.588 1342.84,317.61 1344.82,317.617 1346.8,317.443 1348.79,317.31 1350.77,317.21 1352.76,316.884 1354.74,316.443 1356.72,315.912 1358.71,315.288 1360.69,314.519 1362.68,313.803 1364.66,313.223 1366.65,312.892 1368.63,312.635 1370.61,312.286 1372.6,311.953 1374.58,311.602 1376.57,311.322 1378.55,310.846 1380.54,310.364 1382.52,309.959 1384.5,309.227 1386.49,308.492 1388.47,308.367 1390.46,308.486 1392.44,308.398 1394.43,308.293 1396.41,308.309 1398.39,308.375 1400.38,308.26 1402.36,308.387 1404.35,308.439 1406.33,308.662 1408.32,308.728 1410.3,308.864 1412.28,308.904 1414.27,309.461 1416.25,310.05 1418.24,310.205 1420.22,310.381 1422.2,310.482 1424.19,310.578 1426.17,310.884 1428.16,311.186 1430.14,311.31 1432.13,311.478 1434.11,311.504 1436.09,311.552 1438.08,311.376 1440.06,311.081 1442.05,310.588 1444.03,310.149 1446.02,309.946 1448,310.013 1449.98,310.326 1451.97,310.666 1453.95,310.766 1455.94,310.91 1457.92,311.331 1459.91,311.671 1461.89,312.03 1463.87,312.439 1465.86,313.29 1467.84,313.929 1469.83,314.497 1471.81,314.839 1473.8,315.137 1475.78,315.605 1477.76,316.051 1479.75,316.295 1481.73,316.34 1483.72,316.306 1485.7,316.411 1487.68,316.338 1489.67,315.957 1491.65,315.548 1493.64,315.296 1495.62,315.069 1497.61,314.882 1499.59,315.166 1501.57,315.143 1503.56,315.07 1505.54,315.158 1507.53,315.159 1509.51,314.994 1511.5,315.05 1513.48,315.132 1515.46,315.541 1517.45,316.122 1519.43,317.039 1521.42,317.915 1523.4,318.959 1525.39,319.884 1527.37,320.389 1529.35,320.628 1531.34,320.843 1533.32,321.348 1535.31,321.937 1537.29,322.897 1539.28,323.912 1541.26,325.21 1543.24,326.345 1545.23,327.179 1547.21,327.615 1549.2,328.099 1551.18,327.911 1553.16,327.761 1555.15,327.726 1557.13,327.442 1559.12,327.16 1561.1,327.142 1563.09,327.141 1565.07,326.961 1567.05,327.117 1569.04,327.252 1571.02,327.611 1573.01,328.049 1574.99,328.405 1576.98,328.805 1578.96,329.108 1580.94,329.303 1582.93,328.966 1584.91,328.906 1586.9,328.75 1588.88,328.823 1590.87,329.404 1592.85,329.99 1594.83,330.506 1596.82,330.855 1598.8,331.251 1600.79,331.38 1602.77,331.165 1604.76,330.845 1606.74,330.74 1608.72,330.657 1610.71,330.624 1612.69,330.732 1614.68,331.151 1616.66,331.854 1618.65,332.583 1620.63,333.636 1622.61,334.322 1624.6,334.879 1626.58,334.722 1628.57,334.574 1630.55,334.479 1632.53,334.429 1634.52,334.15 1636.5,333.936 1638.49,333.783 1640.47,333.717 1642.46,333.792 1644.44,333.33 1646.42,332.167 1648.41,331.065 1650.39,329.867 1652.38,328.236 1654.36,327.208 1656.35,325.82 1658.33,324.615 1660.31,323.62 1662.3,322.878 1664.28,322.176 1666.27,321.454 1668.25,320.039 1670.24,318.85 1672.22,317.902 1674.2,317.042 1676.19,316.194 1678.17,315.422 1680.16,314.739 1682.14,314.096 1684.13,313.545 1686.11,313.087 1688.09,312.493 1690.08,311.972 1692.06,311.592 1694.05,311.228 1696.03,311.061 1698.01,311.129 1700,311.111 1701.98,311.02 1703.97,311.006 1705.95,311.095 1707.94,311.067 1709.92,311.583 1711.9,312.276 1713.89,313.468 1715.87,314.782 1717.86,315.819 1719.84,316.83 1721.83,317.579 1723.81,318.33 1725.79,319.163 1727.78,320.1 1729.76,321.009 1731.75,321.818 1733.73,322.744 1735.72,323.609 1737.7,324.304 1739.68,325.19 1741.67,326.259 1743.65,327.441 1745.64,328.429 1747.62,329.411 1749.61,330.311 1751.59,330.974 1753.57,331.701 1755.56,332.283 1757.54,332.875 1759.53,333.69 1761.51,334.57 1763.49,335.46 1765.48,336.238 1767.46,336.538 1769.45,336.884 1771.43,336.979 1773.42,336.657 1775.4,336.015 1777.38,335.42 1779.37,334.418 1781.35,333.38 1783.34,332.493 1785.32,332.269 1787.31,332.116 1789.29,332.097 1791.27,331.709 1793.26,331.4 1795.24,330.633 1797.23,329.928 1799.21,329.793 1801.2,329.752 1803.18,329.629 1805.16,329.618 1807.15,329.314 1809.13,329.682 1811.12,329.986 1813.1,330.658 1815.09,331.296 1817.07,331.853 1819.05,332.721 1821.04,333.712 1823.02,334.658 1825.01,335.003 1826.99,335.195 1828.97,334.741 1830.96,334.354 1832.94,333.885 1834.93,333.503 1836.91,333.258 1838.9,333.169 1840.88,333.381 1842.86,333.769 1844.85,333.794 1846.83,333.676 1848.82,333.681 1850.8,333.897 1852.79,334.169 1854.77,334.335 1856.75,334.516 1858.74,334.993 1860.72,335.171 1862.71,335.612 1864.69,335.658 1866.68,335.83 1868.66,335.452 1870.64,334.986 1872.63,334.736 1874.61,334.476 1876.6,334.22 1878.58,334.706 1880.57,334.864 1882.55,335.004 1884.53,335.158 1886.52,335.711 1888.5,336.325 1890.49,336.721 1892.47,336.624 1894.46,336.366 1896.44,335.478 1898.42,334.461 1900.41,333.283 1902.39,332.581 1904.38,331.836 1906.36,331.585 1908.34,331.298 1910.33,330.781 1912.31,330.105 1914.3,329.539 1916.28,328.861 1918.27,327.898 1920.25,326.981 1922.23,326.175 1924.22,325.548 1926.2,324.756 1928.19,324.015 1930.17,323.358 1932.16,322.691 1934.14,322.168 1936.12,321.529 1938.11,321.182 1940.09,321.128 1942.08,321.338 1944.06,321.316 1946.05,321.486 1948.03,321.915 1950.01,322.3 1952,322.858 1953.98,323.853 1955.97,324.893 1957.95,325.763 1959.94,326.576 1961.92,327.323 1963.9,327.84 1965.89,328.047 1967.87,328.657 1969.86,329.062 1971.84,329.502 1973.82,329.986 1975.81,330.808 1977.79,331.637 1979.78,332.865 1981.76,334.018 1983.75,334.949 1985.73,336.181 1987.71,337.188 1989.7,338.155 1991.68,338.906 1993.67,339.39 1995.65,339.462 1997.64,339.335 1999.62,339.125 2001.6,338.774 2003.59,338.488 2005.57,337.921 2007.56,337.826 2009.54,337.618 2011.53,338.285 2013.51,339.126 2015.49,340.197 2017.48,340.817 2019.46,341.283 2021.45,341.057 2023.43,341.355 2025.42,341.016 2027.4,340.789 2029.38,339.981 2031.37,338.804 2033.35,337.491 2035.34,336.382 2037.32,335.117 2039.3,333.41 2041.29,332.204 2043.27,331.045 2045.26,329.747 2047.24,328.776 2049.23,327.946 2051.21,327.316 2053.19,326.669 2055.18,325.937 2057.16,325.231 2059.15,324.618 2061.13,324.051 2063.12,323.812 2065.1,323.788 2067.08,323.766 2069.07,323.921 2071.05,324.1 2073.04,323.99 2075.02,324.021 2077.01,324.012 2078.99,323.653 2080.97,323.303 2082.96,323.045 2084.94,322.472 2086.93,321.913 2088.91,321.438 2090.9,320.981 2092.88,320.424 2094.86,319.594 2096.85,318.827 2098.83,317.927 2100.82,317.321 2102.8,317.02 2104.78,316.733 2106.77,316.416 2108.75,316.044 2110.74,315.665 2112.72,315.256 2114.71,315.057 2116.69,314.466 2118.67,314.076 2120.66,313.881 2122.64,314.318 2124.63,315.101 2126.61,315.934 2128.6,316.819 2130.58,317.628 2132.56,317.955 2134.55,318.166 2136.53,318.022 2138.52,317.701 2140.5,317.507 2142.49,317.44 2144.47,317.363 2146.45,317.233 2148.44,317.206 2150.42,317.212 2152.41,317.77 2154.39,318.233 2156.38,318.601 2158.36,318.891 2160.34,319.023 2162.33,319.039 2164.31,319.051 2166.3,318.872 2168.28,319.403 2170.26,319.782 2172.25,320.088 2174.23,320.751 2176.22,321.277 2178.2,321.622 2180.19,321.863 2182.17,322.063 2184.15,322.181 2186.14,322.187 2188.12,322.194 2190.11,322.092 2192.09,322.341 2194.08,322.386 2196.06,322.573 2198.04,322.53 2200.03,322.511 2202.01,322.49 2204,322.839 2205.98,322.847 2207.97,322.98 2209.95,323.237 2211.93,323.211 2213.92,323.045 2215.9,322.684 2217.89,322.5 2219.87,322.424 2221.86,322.326 2223.84,322.36 2225.82,322.371 2227.81,322.918 2229.79,323.62 2231.78,324.408 2233.76,325.08 2235.75,325.758 2237.73,325.828 2239.71,326.024 2241.7,326.498 2243.68,326.955 2245.67,327.4 2247.65,327.506 2249.63,327.657 2251.62,327.742 2253.6,327.33 2255.59,326.863 2257.57,326.692 2259.56,326.386 2261.54,325.708 2263.52,325.104 2265.51,324.686 2267.49,323.8 2269.48,322.936 2271.46,322.286 2273.45,321.684 2275.43,320.838 2277.41,319.976 2279.4,318.876 2281.38,317.781 2283.37,316.935 2285.35,316.394 2287.34,315.709 2289.32,315.269 2291.3,315.037 2293.29,314.89 "/>
<polyline clip-path="url(#clip402)" style="stroke:#e26f46; stroke-linecap:round; stroke-linejoin:round; stroke-width:4; stroke-opacity:1; fill:none" points="311.028,86.2637 313.012,86.6512 314.997,87.041 316.981,87.4322 318.965,87.8266 320.949,88.2226 322.934,88.6209 324.918,89.0212 326.902,89.4232 328.886,89.8283 330.87,90.2359 332.855,90.6443 334.839,91.0539 336.823,91.4654 338.807,91.8772 340.792,92.2906 342.776,92.7056 344.76,93.1229 346.744,93.5414 348.729,93.9607 350.713,94.3813 352.697,94.8033 354.681,95.2274 356.666,95.6531 358.65,96.0801 360.634,96.5081 362.618,96.9375 364.603,97.3684 366.587,97.8014 368.571,98.235 370.555,98.6699 372.54,99.1068 374.524,99.5446 376.508,99.9833 378.492,100.422 380.477,100.862 382.461,101.302 384.445,101.745 386.429,102.19 388.414,102.637 390.398,103.085 392.382,103.534 394.366,103.983 396.351,104.433 398.335,104.882 400.319,105.334 402.303,105.786 404.288,106.239 406.272,106.692 408.256,107.146 410.24,107.598 412.225,108.054 414.209,108.51 416.193,108.968 418.177,109.426 420.161,109.888 422.146,110.353 424.13,110.822 426.114,111.295 428.098,111.768 430.083,112.237 432.067,112.71 434.051,113.181 436.035,113.658 438.02,114.135 440.004,114.618 441.988,115.103 443.972,115.587 445.957,116.074 447.941,116.56 449.925,117.049 451.909,117.54 453.894,118.029 455.878,118.525 457.862,119.022 459.846,119.518 461.831,120.014 463.815,120.511 465.799,121.007 467.783,121.508 469.768,122.011 471.752,122.518 473.736,123.025 475.72,123.537 477.705,124.054 479.689,124.571 481.673,125.086 483.657,125.599 485.642,126.113 487.626,126.63 489.61,127.149 491.594,127.669 493.579,128.191 495.563,128.717 497.547,129.248 499.531,129.779 501.516,130.312 503.5,130.844 505.484,131.378 507.468,131.913 509.452,132.451 511.437,132.987 513.421,133.525 515.405,134.067 517.389,134.61 519.374,135.148 521.358,135.691 523.342,136.238 525.326,136.783 527.311,137.329 529.295,137.875 531.279,138.423 533.263,138.966 535.248,139.507 537.232,140.05 539.216,140.594 541.2,141.139 543.185,141.685 545.169,142.226 547.153,142.768 549.137,143.308 551.122,143.854 553.106,144.401 555.09,144.953 557.074,145.503 559.059,146.056 561.043,146.617 563.027,147.186 565.011,147.757 566.996,148.326 568.98,148.9 570.964,149.475 572.948,150.05 574.933,150.628 576.917,151.208 578.901,151.793 580.885,152.377 582.87,152.961 584.854,153.542 586.838,154.131 588.822,154.724 590.806,155.318 592.791,155.912 594.775,156.504 596.759,157.097 598.743,157.686 600.728,158.281 602.712,158.883 604.696,159.492 606.68,160.095 608.665,160.706 610.649,161.317 612.633,161.942 614.617,162.566 616.602,163.196 618.586,163.826 620.57,164.463 622.554,165.102 624.539,165.741 626.523,166.377 628.507,167.012 630.491,167.641 632.476,168.282 634.46,168.917 636.444,169.553 638.428,170.196 640.413,170.842 642.397,171.493 644.381,172.151 646.365,172.808 648.35,173.472 650.334,174.129 652.318,174.787 654.302,175.442 656.287,176.101 658.271,176.763 660.255,177.432 662.239,178.103 664.224,178.776 666.208,179.442 668.192,180.105 670.176,180.769 672.161,181.435 674.145,182.098 676.129,182.766 678.113,183.433 680.097,184.101 682.082,184.77 684.066,185.441 686.05,186.112 688.034,186.788 690.019,187.467 692.003,188.147 693.987,188.823 695.971,189.505 697.956,190.188 699.94,190.87 701.924,191.549 703.908,192.235 705.893,192.923 707.877,193.611 709.861,194.305 711.845,195.003 713.83,195.706 715.814,196.409 717.798,197.112 719.782,197.81 721.767,198.506 723.751,199.212 725.735,199.919 727.719,200.63 729.704,201.341 731.688,202.045 733.672,202.752 735.656,203.463 737.641,204.178 739.625,204.904 741.609,205.629 743.593,206.362 745.578,207.091 747.562,207.814 749.546,208.536 751.53,209.258 753.515,209.982 755.499,210.713 757.483,211.449 759.467,212.188 761.452,212.924 763.436,213.665 765.42,214.411 767.404,215.162 769.388,215.916 771.373,216.668 773.357,217.423 775.341,218.175 777.325,218.934 779.31,219.695 781.294,220.456 783.278,221.224 785.262,221.992 787.247,222.761 789.231,223.533 791.215,224.312 793.199,225.092 795.184,225.876 797.168,226.661 799.152,227.45 801.136,228.236 803.121,229.022 805.105,229.814 807.089,230.603 809.073,231.402 811.058,232.209 813.042,233.017 815.026,233.827 817.01,234.642 818.995,235.458 820.979,236.275 822.963,237.092 824.947,237.905 826.932,238.724 828.916,239.546 830.9,240.369 832.884,241.197 834.869,242.031 836.853,242.864 838.837,243.703 840.821,244.543 842.806,245.38 844.79,246.221 846.774,247.061 848.758,247.903 850.743,248.743 852.727,249.584 854.711,250.422 856.695,251.265 858.679,252.109 860.664,252.957 862.648,253.804 864.632,254.652 866.616,255.504 868.601,256.359 870.585,257.218 872.569,258.079 874.553,258.942 876.538,259.805 878.522,260.669 880.506,261.536 882.49,262.407 884.475,263.276 886.459,264.145 888.443,265.014 890.427,265.877 892.412,266.736 894.396,267.594 896.38,268.455 898.364,269.314 900.349,270.179 902.333,271.046 904.317,271.915 906.301,272.786 908.286,273.657 910.27,274.533 912.254,275.41 914.238,276.286 916.223,277.159 918.207,278.038 920.191,278.924 922.175,279.81 924.16,280.709 926.144,281.617 928.128,282.518 930.112,283.42 932.097,284.318 934.081,285.227 936.065,286.131 938.049,287.033 940.033,287.937 942.018,288.846 944.002,289.758 945.986,290.669 947.97,291.577 949.955,292.49 951.939,293.399 953.923,294.315 955.907,295.231 957.892,296.153 959.876,297.069 961.86,297.99 963.844,298.917 965.829,299.841 967.813,300.769 969.797,301.691 971.781,302.618 973.766,303.545 975.75,304.477 977.734,305.407 979.718,306.347 981.703,307.29 983.687,308.237 985.671,309.199 987.655,310.162 989.64,311.131 991.624,312.1 993.608,313.083 995.592,314.068 997.577,315.055 999.561,316.038 1001.55,317.017 1003.53,317.992 1005.51,318.968 1007.5,319.944 1009.48,320.917 1011.47,321.889 1013.45,322.859 1015.43,323.831 1017.42,324.797 1019.4,325.772 1021.39,326.754 1023.37,327.737 1025.36,328.728 1027.34,329.715 1029.32,330.694 1031.31,331.669 1033.29,332.648 1035.28,333.644 1037.26,334.639 1039.25,335.624 1041.23,336.61 1043.21,337.588 1045.2,338.562 1047.18,339.532 1049.17,340.506 1051.15,341.492 1053.14,342.491 1055.12,343.492 1057.1,344.502 1059.09,345.511 1061.07,346.527 1063.06,347.555 1065.04,348.593 1067.03,349.622 1069.01,350.651 1070.99,351.684 1072.98,352.71 1074.96,353.744 1076.95,354.792 1078.93,355.839 1080.91,356.886 1082.9,357.939 1084.88,358.999 1086.87,360.056 1088.85,361.126 1090.84,362.207 1092.82,363.291 1094.8,364.375 1096.79,365.446 1098.77,366.513 1100.76,367.579 1102.74,368.678 1104.73,369.771 1106.71,370.869 1108.69,371.957 1110.68,373.053 1112.66,374.145 1114.65,375.238 1116.63,376.338 1118.62,377.432 1120.6,378.52 1122.58,379.612 1124.57,380.701 1126.55,381.786 1128.54,382.879 1130.52,383.979 1132.51,385.096 1134.49,386.212 1136.47,387.322 1138.46,388.428 1140.44,389.535 1142.43,390.647 1144.41,391.759 1146.39,392.872 1148.38,393.988 1150.36,395.107 1152.35,396.224 1154.33,397.348 1156.32,398.483 1158.3,399.616 1160.28,400.752 1162.27,401.888 1164.25,403.027 1166.24,404.16 1168.22,405.288 1170.21,406.414 1172.19,407.539 1174.17,408.665 1176.16,409.79 1178.14,410.92 1180.13,412.052 1182.11,413.184 1184.1,414.324 1186.08,415.462 1188.06,416.605 1190.05,417.756 1192.03,418.909 1194.02,420.055 1196,421.209 1197.99,422.368 1199.97,423.517 1201.95,424.679 1203.94,425.838 1205.92,426.994 1207.91,428.147 1209.89,429.298 1211.87,430.457 1213.86,431.62 1215.84,432.78 1217.83,433.934 1219.81,435.101 1221.8,436.258 1223.78,437.413 1225.76,438.582 1227.75,439.756 1229.73,440.923 1231.72,442.09 1233.7,443.267 1235.69,444.445 1237.67,445.627 1239.65,446.8 1241.64,447.983 1243.62,449.176 1245.61,450.369 1247.59,451.562 1249.58,452.745 1251.56,453.928 1253.54,455.117 1255.53,456.315 1257.51,457.506 1259.5,458.705 1261.48,459.924 1263.47,461.15 1265.45,462.376 1267.43,463.605 1269.42,464.848 1271.4,466.107 1273.39,467.374 1275.37,468.639 1277.36,469.905 1279.34,471.18 1281.32,472.444 1283.31,473.696 1285.29,474.941 1287.28,476.198 1289.26,477.451 1291.24,478.7 1293.23,479.942 1295.21,481.194 1297.2,482.452 1299.18,483.73 1301.17,485.016 1303.15,486.306 1305.13,487.611 1307.12,488.93 1309.1,490.233 1311.09,491.527 1313.07,492.813 1315.06,494.088 1317.04,495.366 1319.02,496.626 1321.01,497.879 1322.99,499.143 1324.98,500.402 1326.96,501.675 1328.95,502.931 1330.93,504.201 1332.91,505.459 1334.9,506.722 1336.88,507.99 1338.87,509.26 1340.85,510.538 1342.84,511.821 1344.82,513.12 1346.8,514.425 1348.79,515.739 1350.77,517.045 1352.76,518.351 1354.74,519.652 1356.72,520.964 1358.71,522.281 1360.69,523.592 1362.68,524.908 1364.66,526.226 1366.65,527.529 1368.63,528.836 1370.61,530.15 1372.6,531.458 1374.58,532.778 1376.57,534.11 1378.55,535.441 1380.54,536.77 1382.52,538.089 1384.5,539.41 1386.49,540.723 1388.47,542.046 1390.46,543.383 1392.44,544.717 1394.43,546.052 1396.41,547.396 1398.39,548.752 1400.38,550.107 1402.36,551.463 1404.35,552.812 1406.33,554.155 1408.32,555.5 1410.3,556.828 1412.28,558.16 1414.27,559.517 1416.25,560.866 1418.24,562.233 1420.22,563.588 1422.2,564.935 1424.19,566.275 1426.17,567.626 1428.16,568.958 1430.14,570.281 1432.13,571.615 1434.11,572.949 1436.09,574.287 1438.08,575.62 1440.06,576.976 1442.05,578.361 1444.03,579.741 1446.02,581.127 1448,582.498 1449.98,583.866 1451.97,585.231 1453.95,586.623 1455.94,588.019 1457.92,589.425 1459.91,590.809 1461.89,592.167 1463.87,593.511 1465.86,594.871 1467.84,596.213 1469.83,597.599 1471.81,598.999 1473.8,600.389 1475.78,601.78 1477.76,603.177 1479.75,604.564 1481.73,605.953 1483.72,607.348 1485.7,608.768 1487.68,610.19 1489.67,611.605 1491.65,613.026 1493.64,614.468 1495.62,615.917 1497.61,617.373 1499.59,618.826 1501.57,620.306 1503.56,621.773 1505.54,623.255 1507.53,624.743 1509.51,626.236 1511.5,627.73 1513.48,629.198 1515.46,630.665 1517.45,632.12 1519.43,633.588 1521.42,635.076 1523.4,636.58 1525.39,638.126 1527.37,639.663 1529.35,641.202 1531.34,642.73 1533.32,644.258 1535.31,645.766 1537.29,647.259 1539.28,648.773 1541.26,650.275 1543.24,651.824 1545.23,653.374 1547.21,654.92 1549.2,656.47 1551.18,658.008 1553.16,659.556 1555.15,661.109 1557.13,662.655 1559.12,664.201 1561.1,665.742 1563.09,667.283 1565.07,668.822 1567.05,670.373 1569.04,671.932 1571.02,673.476 1573.01,675.035 1574.99,676.596 1576.98,678.149 1578.96,679.715 1580.94,681.294 1582.93,682.869 1584.91,684.438 1586.9,686.005 1588.88,687.563 1590.87,689.116 1592.85,690.671 1594.83,692.226 1596.82,693.766 1598.8,695.303 1600.79,696.838 1602.77,698.385 1604.76,699.931 1606.74,701.485 1608.72,703.021 1610.71,704.55 1612.69,706.077 1614.68,707.596 1616.66,709.129 1618.65,710.665 1620.63,712.192 1622.61,713.713 1624.6,715.254 1626.58,716.809 1628.57,718.359 1630.55,719.926 1632.53,721.492 1634.52,723.033 1636.5,724.57 1638.49,726.102 1640.47,727.642 1642.46,729.2 1644.44,730.729 1646.42,732.256 1648.41,733.784 1650.39,735.316 1652.38,736.869 1654.36,738.412 1656.35,739.944 1658.33,741.474 1660.31,743.021 1662.3,744.584 1664.28,746.135 1666.27,747.701 1668.25,749.286 1670.24,750.892 1672.22,752.524 1674.2,754.147 1676.19,755.817 1678.17,757.463 1680.16,759.129 1682.14,760.801 1684.13,762.472 1686.11,764.163 1688.09,765.841 1690.08,767.501 1692.06,769.132 1694.05,770.77 1696.03,772.408 1698.01,774.05 1700,775.718 1701.98,777.386 1703.97,779.048 1705.95,780.684 1707.94,782.315 1709.92,783.94 1711.9,785.55 1713.89,787.163 1715.87,788.755 1717.86,790.359 1719.84,791.964 1721.83,793.58 1723.81,795.231 1725.79,796.916 1727.78,798.616 1729.76,800.311 1731.75,801.972 1733.73,803.625 1735.72,805.289 1737.7,806.963 1739.68,808.607 1741.67,810.259 1743.65,811.921 1745.64,813.599 1747.62,815.278 1749.61,816.953 1751.59,818.623 1753.57,820.348 1755.56,822.116 1757.54,823.835 1759.53,825.538 1761.51,827.231 1763.49,828.909 1765.48,830.596 1767.46,832.303 1769.45,834.011 1771.43,835.729 1773.42,837.44 1775.4,839.148 1777.38,840.835 1779.37,842.534 1781.35,844.212 1783.34,845.877 1785.32,847.554 1787.31,849.207 1789.29,850.89 1791.27,852.576 1793.26,854.306 1795.24,856.029 1797.23,857.791 1799.21,859.605 1801.2,861.426 1803.18,863.255 1805.16,865.088 1807.15,866.895 1809.13,868.717 1811.12,870.52 1813.1,872.385 1815.09,874.248 1817.07,876.13 1819.05,878.066 1821.04,879.959 1823.02,881.816 1825.01,883.702 1826.99,885.575 1828.97,887.449 1830.96,889.344 1832.94,891.23 1834.93,893.111 1836.91,894.964 1838.9,896.838 1840.88,898.72 1842.86,900.632 1844.85,902.55 1846.83,904.446 1848.82,906.358 1850.8,908.259 1852.79,910.143 1854.77,912.013 1856.75,913.89 1858.74,915.803 1860.72,917.71 1862.71,919.594 1864.69,921.489 1866.68,923.37 1868.66,925.23 1870.64,927.094 1872.63,928.997 1874.61,930.886 1876.6,932.798 1878.58,934.708 1880.57,936.638 1882.55,938.552 1884.53,940.473 1886.52,942.408 1888.5,944.345 1890.49,946.303 1892.47,948.249 1894.46,950.198 1896.44,952.148 1898.42,954.073 1900.41,956.005 1902.39,957.916 1904.38,959.826 1906.36,961.729 1908.34,963.632 1910.33,965.551 1912.31,967.449 1914.3,969.347 1916.28,971.24 1918.27,973.139 1920.25,975.035 1922.23,976.939 1924.22,978.84 1926.2,980.74 1928.19,982.631 1930.17,984.504 1932.16,986.371 1934.14,988.261 1936.12,990.152 1938.11,992.072 1940.09,993.98 1942.08,995.897 1944.06,997.828 1946.05,999.734 1948.03,1001.63 1950.01,1003.53 1952,1005.48 1953.98,1007.47 1955.97,1009.43 1957.95,1011.37 1959.94,1013.36 1961.92,1015.36 1963.9,1017.35 1965.89,1019.33 1967.87,1021.29 1969.86,1023.23 1971.84,1025.19 1973.82,1027.17 1975.81,1029.18 1977.79,1031.16 1979.78,1033.14 1981.76,1035.16 1983.75,1037.16 1985.73,1039.18 1987.71,1041.2 1989.7,1043.22 1991.68,1045.24 1993.67,1047.26 1995.65,1049.31 1997.64,1051.33 1999.62,1053.35 2001.6,1055.34 2003.59,1057.36 2005.57,1059.36 2007.56,1061.4 2009.54,1063.47 2011.53,1065.52 2013.51,1067.54 2015.49,1069.55 2017.48,1071.57 2019.46,1073.59 2021.45,1075.62 2023.43,1077.64 2025.42,1079.75 2027.4,1081.91 2029.38,1084.07 2031.37,1086.26 2033.35,1088.46 2035.34,1090.66 2037.32,1092.87 2039.3,1095.08 2041.29,1097.3 2043.27,1099.57 2045.26,1101.82 2047.24,1104.05 2049.23,1106.26 2051.21,1108.48 2053.19,1110.68 2055.18,1112.85 2057.16,1115.02 2059.15,1117.19 2061.13,1119.36 2063.12,1121.51 2065.1,1123.67 2067.08,1125.81 2069.07,1127.97 2071.05,1130.15 2073.04,1132.32 2075.02,1134.48 2077.01,1136.64 2078.99,1138.78 2080.97,1140.91 2082.96,1143.03 2084.94,1145.16 2086.93,1147.33 2088.91,1149.48 2090.9,1151.63 2092.88,1153.78 2094.86,1155.94 2096.85,1158.13 2098.83,1160.29 2100.82,1162.46 2102.8,1164.65 2104.78,1166.84 2106.77,1169.03 2108.75,1171.25 2110.74,1173.47 2112.72,1175.69 2114.71,1177.91 2116.69,1180.13 2118.67,1182.38 2120.66,1184.6 2122.64,1186.85 2124.63,1189.11 2126.61,1191.42 2128.6,1193.74 2130.58,1196.04 2132.56,1198.35 2134.55,1200.62 2136.53,1202.85 2138.52,1205.04 2140.5,1207.22 2142.49,1209.36 2144.47,1211.54 2146.45,1213.7 2148.44,1215.91 2150.42,1218.18 2152.41,1220.43 2154.39,1222.68 2156.38,1224.93 2158.36,1227.19 2160.34,1229.47 2162.33,1231.75 2164.31,1234 2166.3,1236.23 2168.28,1238.42 2170.26,1240.59 2172.25,1242.73 2174.23,1244.81 2176.22,1246.91 2178.2,1249.04 2180.19,1251.13 2182.17,1253.19 2184.15,1255.3 2186.14,1257.45 2188.12,1259.6 2190.11,1261.85 2192.09,1264.05 2194.08,1266.24 2196.06,1268.49 2198.04,1270.77 2200.03,1273.05 2202.01,1275.34 2204,1277.65 2205.98,1279.91 2207.97,1282.27 2209.95,1284.62 2211.93,1286.96 2213.92,1289.37 2215.9,1291.83 2217.89,1294.22 2219.87,1296.62 2221.86,1299 2223.84,1301.34 2225.82,1303.64 2227.81,1306.02 2229.79,1308.35 2231.78,1310.67 2233.76,1312.99 2235.75,1315.32 2237.73,1317.67 2239.71,1320.02 2241.7,1322.37 2243.68,1324.72 2245.67,1327.03 2247.65,1329.33 2249.63,1331.65 2251.62,1333.93 2253.6,1336.22 2255.59,1338.53 2257.57,1340.87 2259.56,1343.2 2261.54,1345.53 2263.52,1347.88 2265.51,1350.24 2267.49,1352.62 2269.48,1355.02 2271.46,1357.4 2273.45,1359.78 2275.43,1362.14 2277.41,1364.53 2279.4,1366.99 2281.38,1369.47 2283.37,1371.93 2285.35,1374.38 2287.34,1376.8 2289.32,1379.29 2291.3,1381.75 2293.29,1384.24 "/>
<path clip-path="url(#clip400)" d="M1864.89 248.629 L2282.72 248.629 L2282.72 93.1086 L1864.89 93.1086  Z" fill="#ffffff" fill-rule="evenodd" fill-opacity="1"/>
<polyline clip-path="url(#clip400)" style="stroke:#000000; stroke-linecap:round; stroke-linejoin:round; stroke-width:4; stroke-opacity:1; fill:none" points="1864.89,248.629 2282.72,248.629 2282.72,93.1086 1864.89,93.1086 1864.89,248.629 "/>
<polyline clip-path="url(#clip400)" style="stroke:#009af9; stroke-linecap:round; stroke-linejoin:round; stroke-width:4; stroke-opacity:1; fill:none" points="1888.24,144.949 2028.32,144.949 "/>
<path clip-path="url(#clip400)" d="M2056.34 145.724 L2056.34 158.386 L2063.84 158.386 Q2067.61 158.386 2069.42 156.835 Q2071.25 155.261 2071.25 152.043 Q2071.25 148.803 2069.42 147.275 Q2067.61 145.724 2063.84 145.724 L2056.34 145.724 M2056.34 131.511 L2056.34 141.928 L2063.26 141.928 Q2066.69 141.928 2068.35 140.655 Q2070.04 139.358 2070.04 136.719 Q2070.04 134.104 2068.35 132.807 Q2066.69 131.511 2063.26 131.511 L2056.34 131.511 M2051.66 127.669 L2063.61 127.669 Q2068.95 127.669 2071.85 129.891 Q2074.74 132.113 2074.74 136.21 Q2074.74 139.382 2073.26 141.257 Q2071.78 143.131 2068.91 143.594 Q2072.36 144.335 2074.25 146.696 Q2076.18 149.034 2076.18 152.553 Q2076.18 157.182 2073.03 159.705 Q2069.88 162.229 2064.07 162.229 L2051.66 162.229 L2051.66 127.669 Z" fill="#000000" fill-rule="nonzero" fill-opacity="1" /><path clip-path="url(#clip400)" d="M2088.86 145.724 L2088.86 158.386 L2096.36 158.386 Q2100.13 158.386 2101.94 156.835 Q2103.77 155.261 2103.77 152.043 Q2103.77 148.803 2101.94 147.275 Q2100.13 145.724 2096.36 145.724 L2088.86 145.724 M2088.86 131.511 L2088.86 141.928 L2095.78 141.928 Q2099.21 141.928 2100.87 140.655 Q2102.56 139.358 2102.56 136.719 Q2102.56 134.104 2100.87 132.807 Q2099.21 131.511 2095.78 131.511 L2088.86 131.511 M2084.19 127.669 L2096.13 127.669 Q2101.48 127.669 2104.37 129.891 Q2107.26 132.113 2107.26 136.21 Q2107.26 139.382 2105.78 141.257 Q2104.3 143.131 2101.43 143.594 Q2104.88 144.335 2106.78 146.696 Q2108.7 149.034 2108.7 152.553 Q2108.7 157.182 2105.55 159.705 Q2102.4 162.229 2096.59 162.229 L2084.19 162.229 L2084.19 127.669 Z" fill="#000000" fill-rule="nonzero" fill-opacity="1" /><path clip-path="url(#clip400)" d="M2124.16 162.229 L2110.97 127.669 L2115.85 127.669 L2126.8 156.766 L2137.77 127.669 L2142.63 127.669 L2129.46 162.229 L2124.16 162.229 Z" fill="#000000" fill-rule="nonzero" fill-opacity="1" /><path clip-path="url(#clip400)" d="M2147.68 127.669 L2152.36 127.669 L2152.36 162.229 L2147.68 162.229 L2147.68 127.669 Z" fill="#000000" fill-rule="nonzero" fill-opacity="1" /><path clip-path="url(#clip400)" d="M2202.61 130.331 L2202.61 135.261 Q2200.25 133.062 2197.56 131.974 Q2194.9 130.886 2191.89 130.886 Q2185.97 130.886 2182.82 134.52 Q2179.67 138.132 2179.67 144.983 Q2179.67 151.812 2182.82 155.446 Q2185.97 159.057 2191.89 159.057 Q2194.9 159.057 2197.56 157.969 Q2200.25 156.881 2202.61 154.682 L2202.61 159.567 Q2200.16 161.233 2197.4 162.067 Q2194.67 162.9 2191.62 162.9 Q2183.77 162.9 2179.25 158.108 Q2174.74 153.293 2174.74 144.983 Q2174.74 136.65 2179.25 131.858 Q2183.77 127.044 2191.62 127.044 Q2194.72 127.044 2197.45 127.877 Q2200.2 128.687 2202.61 130.331 Z" fill="#000000" fill-rule="nonzero" fill-opacity="1" /><path clip-path="url(#clip400)" d="M2209.83 127.669 L2229.69 127.669 L2229.69 131.604 L2214.51 131.604 L2214.51 141.789 L2228.21 141.789 L2228.21 145.724 L2214.51 145.724 L2214.51 162.229 L2209.83 162.229 L2209.83 127.669 Z" fill="#000000" fill-rule="nonzero" fill-opacity="1" /><path clip-path="url(#clip400)" d="M2237.1 127.669 L2258.95 127.669 L2258.95 131.604 L2241.78 131.604 L2241.78 141.835 L2258.24 141.835 L2258.24 145.77 L2241.78 145.77 L2241.78 158.293 L2259.37 158.293 L2259.37 162.229 L2237.1 162.229 L2237.1 127.669 Z" fill="#000000" fill-rule="nonzero" fill-opacity="1" /><polyline clip-path="url(#clip400)" style="stroke:#e26f46; stroke-linecap:round; stroke-linejoin:round; stroke-width:4; stroke-opacity:1; fill:none" points="1888.24,196.789 2028.32,196.789 "/>
<path clip-path="url(#clip400)" d="M2056.34 197.564 L2056.34 210.226 L2063.84 210.226 Q2067.61 210.226 2069.42 208.675 Q2071.25 207.101 2071.25 203.883 Q2071.25 200.643 2069.42 199.115 Q2067.61 197.564 2063.84 197.564 L2056.34 197.564 M2056.34 183.351 L2056.34 193.768 L2063.26 193.768 Q2066.69 193.768 2068.35 192.495 Q2070.04 191.198 2070.04 188.559 Q2070.04 185.944 2068.35 184.647 Q2066.69 183.351 2063.26 183.351 L2056.34 183.351 M2051.66 179.509 L2063.61 179.509 Q2068.95 179.509 2071.85 181.731 Q2074.74 183.953 2074.74 188.05 Q2074.74 191.222 2073.26 193.097 Q2071.78 194.971 2068.91 195.434 Q2072.36 196.175 2074.25 198.536 Q2076.18 200.874 2076.18 204.393 Q2076.18 209.022 2073.03 211.545 Q2069.88 214.069 2064.07 214.069 L2051.66 214.069 L2051.66 179.509 Z" fill="#000000" fill-rule="nonzero" fill-opacity="1" /><path clip-path="url(#clip400)" d="M2088.86 197.564 L2088.86 210.226 L2096.36 210.226 Q2100.13 210.226 2101.94 208.675 Q2103.77 207.101 2103.77 203.883 Q2103.77 200.643 2101.94 199.115 Q2100.13 197.564 2096.36 197.564 L2088.86 197.564 M2088.86 183.351 L2088.86 193.768 L2095.78 193.768 Q2099.21 193.768 2100.87 192.495 Q2102.56 191.198 2102.56 188.559 Q2102.56 185.944 2100.87 184.647 Q2099.21 183.351 2095.78 183.351 L2088.86 183.351 M2084.19 179.509 L2096.13 179.509 Q2101.48 179.509 2104.37 181.731 Q2107.26 183.953 2107.26 188.05 Q2107.26 191.222 2105.78 193.097 Q2104.3 194.971 2101.43 195.434 Q2104.88 196.175 2106.78 198.536 Q2108.7 200.874 2108.7 204.393 Q2108.7 209.022 2105.55 211.545 Q2102.4 214.069 2096.59 214.069 L2084.19 214.069 L2084.19 179.509 Z" fill="#000000" fill-rule="nonzero" fill-opacity="1" /><path clip-path="url(#clip400)" d="M2124.16 214.069 L2110.97 179.509 L2115.85 179.509 L2126.8 208.606 L2137.77 179.509 L2142.63 179.509 L2129.46 214.069 L2124.16 214.069 Z" fill="#000000" fill-rule="nonzero" fill-opacity="1" /><path clip-path="url(#clip400)" d="M2147.68 179.509 L2152.36 179.509 L2152.36 214.069 L2147.68 214.069 L2147.68 179.509 Z" fill="#000000" fill-rule="nonzero" fill-opacity="1" /><path clip-path="url(#clip400)" d="M2197.45 180.643 L2197.45 185.203 Q2194.79 183.93 2192.43 183.305 Q2190.06 182.68 2187.87 182.68 Q2184.05 182.68 2181.96 184.161 Q2179.9 185.643 2179.9 188.374 Q2179.9 190.666 2181.27 191.847 Q2182.66 193.004 2186.5 193.722 L2189.32 194.3 Q2194.55 195.296 2197.03 197.819 Q2199.53 200.319 2199.53 204.532 Q2199.53 209.555 2196.15 212.147 Q2192.8 214.74 2186.29 214.74 Q2183.84 214.74 2181.06 214.184 Q2178.31 213.629 2175.34 212.541 L2175.34 207.726 Q2178.19 209.323 2180.92 210.133 Q2183.65 210.944 2186.29 210.944 Q2190.3 210.944 2192.47 209.37 Q2194.65 207.796 2194.65 204.879 Q2194.65 202.333 2193.07 200.897 Q2191.52 199.462 2187.96 198.745 L2185.11 198.189 Q2179.88 197.147 2177.54 194.925 Q2175.2 192.703 2175.2 188.745 Q2175.2 184.161 2178.42 181.522 Q2181.66 178.884 2187.33 178.884 Q2189.76 178.884 2192.29 179.323 Q2194.81 179.763 2197.45 180.643 Z" fill="#000000" fill-rule="nonzero" fill-opacity="1" /><path clip-path="url(#clip400)" d="M2202.03 179.509 L2231.27 179.509 L2231.27 183.444 L2219 183.444 L2219 214.069 L2214.3 214.069 L2214.3 183.444 L2202.03 183.444 L2202.03 179.509 Z" fill="#000000" fill-rule="nonzero" fill-opacity="1" /><path clip-path="url(#clip400)" d="M2235.78 179.509 L2240.46 179.509 L2240.46 210.133 L2257.29 210.133 L2257.29 214.069 L2235.78 214.069 L2235.78 179.509 Z" fill="#000000" fill-rule="nonzero" fill-opacity="1" /></svg>
