<?xml version="1.0" encoding="utf-8"?>
<svg xmlns="http://www.w3.org/2000/svg" xmlns:xlink="http://www.w3.org/1999/xlink" width="600" height="400" viewBox="0 0 2400 1600">
<defs>
  <clipPath id="clip860">
    <rect x="0" y="0" width="2400" height="1600"/>
  </clipPath>
</defs>
<path clip-path="url(#clip860)" d="M0 1600 L2400 1600 L2400 0 L0 0  Z" fill="#ffffff" fill-rule="evenodd" fill-opacity="1"/>
<defs>
  <clipPath id="clip861">
    <rect x="203" y="47" width="1910" height="1377"/>
  </clipPath>
</defs>
<path clip-path="url(#clip860)" d="M242.135 1423.18 L2352.76 1423.18 L2352.76 47.2441 L242.135 47.2441  Z" fill="#ffffff" fill-rule="evenodd" fill-opacity="1"/>
<defs>
  <clipPath id="clip862">
    <rect x="242" y="47" width="2112" height="1377"/>
  </clipPath>
</defs>
<polyline clip-path="url(#clip862)" style="stroke:#000000; stroke-linecap:round; stroke-linejoin:round; stroke-width:2; stroke-opacity:0.1; fill:none" points="295.21,1423.18 295.21,47.2441 "/>
<polyline clip-path="url(#clip862)" style="stroke:#000000; stroke-linecap:round; stroke-linejoin:round; stroke-width:2; stroke-opacity:0.1; fill:none" points="961.147,1423.18 961.147,47.2441 "/>
<polyline clip-path="url(#clip862)" style="stroke:#000000; stroke-linecap:round; stroke-linejoin:round; stroke-width:2; stroke-opacity:0.1; fill:none" points="1627.08,1423.18 1627.08,47.2441 "/>
<polyline clip-path="url(#clip862)" style="stroke:#000000; stroke-linecap:round; stroke-linejoin:round; stroke-width:2; stroke-opacity:0.1; fill:none" points="2293.02,1423.18 2293.02,47.2441 "/>
<polyline clip-path="url(#clip862)" style="stroke:#000000; stroke-linecap:round; stroke-linejoin:round; stroke-width:2; stroke-opacity:0.1; fill:none" points="242.135,1423.18 2352.76,1423.18 "/>
<polyline clip-path="url(#clip862)" style="stroke:#000000; stroke-linecap:round; stroke-linejoin:round; stroke-width:2; stroke-opacity:0.1; fill:none" points="242.135,1033.81 2352.76,1033.81 "/>
<polyline clip-path="url(#clip862)" style="stroke:#000000; stroke-linecap:round; stroke-linejoin:round; stroke-width:2; stroke-opacity:0.1; fill:none" points="242.135,644.444 2352.76,644.444 "/>
<polyline clip-path="url(#clip862)" style="stroke:#000000; stroke-linecap:round; stroke-linejoin:round; stroke-width:2; stroke-opacity:0.1; fill:none" points="242.135,255.077 2352.76,255.077 "/>
<polyline clip-path="url(#clip860)" style="stroke:#000000; stroke-linecap:round; stroke-linejoin:round; stroke-width:4; stroke-opacity:1; fill:none" points="242.135,1423.18 2352.76,1423.18 "/>
<polyline clip-path="url(#clip860)" style="stroke:#000000; stroke-linecap:round; stroke-linejoin:round; stroke-width:4; stroke-opacity:1; fill:none" points="295.21,1423.18 295.21,1404.28 "/>
<polyline clip-path="url(#clip860)" style="stroke:#000000; stroke-linecap:round; stroke-linejoin:round; stroke-width:4; stroke-opacity:1; fill:none" points="961.147,1423.18 961.147,1404.28 "/>
<polyline clip-path="url(#clip860)" style="stroke:#000000; stroke-linecap:round; stroke-linejoin:round; stroke-width:4; stroke-opacity:1; fill:none" points="1627.08,1423.18 1627.08,1404.28 "/>
<polyline clip-path="url(#clip860)" style="stroke:#000000; stroke-linecap:round; stroke-linejoin:round; stroke-width:4; stroke-opacity:1; fill:none" points="2293.02,1423.18 2293.02,1404.28 "/>
<path clip-path="url(#clip860)" d="M295.21 1454.1 Q291.599 1454.1 289.77 1457.66 Q287.965 1461.2 287.965 1468.33 Q287.965 1475.44 289.77 1479.01 Q291.599 1482.55 295.21 1482.55 Q298.844 1482.55 300.65 1479.01 Q302.478 1475.44 302.478 1468.33 Q302.478 1461.2 300.65 1457.66 Q298.844 1454.1 295.21 1454.1 M295.21 1450.39 Q301.02 1450.39 304.076 1455 Q307.154 1459.58 307.154 1468.33 Q307.154 1477.06 304.076 1481.67 Q301.02 1486.25 295.21 1486.25 Q289.4 1486.25 286.321 1481.67 Q283.265 1477.06 283.265 1468.33 Q283.265 1459.58 286.321 1455 Q289.4 1450.39 295.21 1450.39 Z" fill="#000000" fill-rule="nonzero" fill-opacity="1" /><path clip-path="url(#clip860)" d="M920.754 1481.64 L928.393 1481.64 L928.393 1455.28 L920.082 1456.95 L920.082 1452.69 L928.346 1451.02 L933.022 1451.02 L933.022 1481.64 L940.661 1481.64 L940.661 1485.58 L920.754 1485.58 L920.754 1481.64 Z" fill="#000000" fill-rule="nonzero" fill-opacity="1" /><path clip-path="url(#clip860)" d="M960.105 1454.1 Q956.494 1454.1 954.666 1457.66 Q952.86 1461.2 952.86 1468.33 Q952.86 1475.44 954.666 1479.01 Q956.494 1482.55 960.105 1482.55 Q963.74 1482.55 965.545 1479.01 Q967.374 1475.44 967.374 1468.33 Q967.374 1461.2 965.545 1457.66 Q963.74 1454.1 960.105 1454.1 M960.105 1450.39 Q965.916 1450.39 968.971 1455 Q972.05 1459.58 972.05 1468.33 Q972.05 1477.06 968.971 1481.67 Q965.916 1486.25 960.105 1486.25 Q954.295 1486.25 951.217 1481.67 Q948.161 1477.06 948.161 1468.33 Q948.161 1459.58 951.217 1455 Q954.295 1450.39 960.105 1450.39 Z" fill="#000000" fill-rule="nonzero" fill-opacity="1" /><path clip-path="url(#clip860)" d="M990.267 1454.1 Q986.656 1454.1 984.827 1457.66 Q983.022 1461.2 983.022 1468.33 Q983.022 1475.44 984.827 1479.01 Q986.656 1482.55 990.267 1482.55 Q993.901 1482.55 995.707 1479.01 Q997.536 1475.44 997.536 1468.33 Q997.536 1461.2 995.707 1457.66 Q993.901 1454.1 990.267 1454.1 M990.267 1450.39 Q996.077 1450.39 999.133 1455 Q1002.21 1459.58 1002.21 1468.33 Q1002.21 1477.06 999.133 1481.67 Q996.077 1486.25 990.267 1486.25 Q984.457 1486.25 981.378 1481.67 Q978.323 1477.06 978.323 1468.33 Q978.323 1459.58 981.378 1455 Q984.457 1450.39 990.267 1450.39 Z" fill="#000000" fill-rule="nonzero" fill-opacity="1" /><path clip-path="url(#clip860)" d="M1590.78 1481.64 L1607.1 1481.64 L1607.1 1485.58 L1585.15 1485.58 L1585.15 1481.64 Q1587.81 1478.89 1592.4 1474.26 Q1597 1469.61 1598.18 1468.27 Q1600.43 1465.74 1601.31 1464.01 Q1602.21 1462.25 1602.21 1460.56 Q1602.21 1457.8 1600.27 1456.07 Q1598.35 1454.33 1595.24 1454.33 Q1593.05 1454.33 1590.59 1455.09 Q1588.16 1455.86 1585.38 1457.41 L1585.38 1452.69 Q1588.21 1451.55 1590.66 1450.97 Q1593.11 1450.39 1595.15 1450.39 Q1600.52 1450.39 1603.72 1453.08 Q1606.91 1455.77 1606.91 1460.26 Q1606.91 1462.39 1606.1 1464.31 Q1605.31 1466.2 1603.21 1468.8 Q1602.63 1469.47 1599.53 1472.69 Q1596.42 1475.88 1590.78 1481.64 Z" fill="#000000" fill-rule="nonzero" fill-opacity="1" /><path clip-path="url(#clip860)" d="M1626.91 1454.1 Q1623.3 1454.1 1621.47 1457.66 Q1619.67 1461.2 1619.67 1468.33 Q1619.67 1475.44 1621.47 1479.01 Q1623.3 1482.55 1626.91 1482.55 Q1630.54 1482.55 1632.35 1479.01 Q1634.18 1475.44 1634.18 1468.33 Q1634.18 1461.2 1632.35 1457.66 Q1630.54 1454.1 1626.91 1454.1 M1626.91 1450.39 Q1632.72 1450.39 1635.78 1455 Q1638.85 1459.58 1638.85 1468.33 Q1638.85 1477.06 1635.78 1481.67 Q1632.72 1486.25 1626.91 1486.25 Q1621.1 1486.25 1618.02 1481.67 Q1614.97 1477.06 1614.97 1468.33 Q1614.97 1459.58 1618.02 1455 Q1621.1 1450.39 1626.91 1450.39 Z" fill="#000000" fill-rule="nonzero" fill-opacity="1" /><path clip-path="url(#clip860)" d="M1657.07 1454.1 Q1653.46 1454.1 1651.63 1457.66 Q1649.83 1461.2 1649.83 1468.33 Q1649.83 1475.44 1651.63 1479.01 Q1653.46 1482.55 1657.07 1482.55 Q1660.71 1482.55 1662.51 1479.01 Q1664.34 1475.44 1664.34 1468.33 Q1664.34 1461.2 1662.51 1457.66 Q1660.71 1454.1 1657.07 1454.1 M1657.07 1450.39 Q1662.88 1450.39 1665.94 1455 Q1669.02 1459.58 1669.02 1468.33 Q1669.02 1477.06 1665.94 1481.67 Q1662.88 1486.25 1657.07 1486.25 Q1651.26 1486.25 1648.18 1481.67 Q1645.13 1477.06 1645.13 1468.33 Q1645.13 1459.58 1648.18 1455 Q1651.26 1450.39 1657.07 1450.39 Z" fill="#000000" fill-rule="nonzero" fill-opacity="1" /><path clip-path="url(#clip860)" d="M2266.78 1466.95 Q2270.14 1467.66 2272.01 1469.93 Q2273.91 1472.2 2273.91 1475.53 Q2273.91 1480.65 2270.39 1483.45 Q2266.88 1486.25 2260.39 1486.25 Q2258.22 1486.25 2255.9 1485.81 Q2253.61 1485.39 2251.16 1484.54 L2251.16 1480.02 Q2253.1 1481.16 2255.42 1481.74 Q2257.73 1482.32 2260.26 1482.32 Q2264.65 1482.32 2266.95 1480.58 Q2269.26 1478.84 2269.26 1475.53 Q2269.26 1472.48 2267.11 1470.77 Q2264.98 1469.03 2261.16 1469.03 L2257.13 1469.03 L2257.13 1465.19 L2261.34 1465.19 Q2264.79 1465.19 2266.62 1463.82 Q2268.45 1462.43 2268.45 1459.84 Q2268.45 1457.18 2266.55 1455.77 Q2264.68 1454.33 2261.16 1454.33 Q2259.24 1454.33 2257.04 1454.75 Q2254.84 1455.16 2252.2 1456.04 L2252.2 1451.88 Q2254.86 1451.14 2257.18 1450.77 Q2259.51 1450.39 2261.57 1450.39 Q2266.9 1450.39 2270 1452.83 Q2273.1 1455.23 2273.1 1459.35 Q2273.1 1462.22 2271.46 1464.21 Q2269.82 1466.18 2266.78 1466.95 Z" fill="#000000" fill-rule="nonzero" fill-opacity="1" /><path clip-path="url(#clip860)" d="M2292.78 1454.1 Q2289.17 1454.1 2287.34 1457.66 Q2285.53 1461.2 2285.53 1468.33 Q2285.53 1475.44 2287.34 1479.01 Q2289.17 1482.55 2292.78 1482.55 Q2296.41 1482.55 2298.22 1479.01 Q2300.05 1475.44 2300.05 1468.33 Q2300.05 1461.2 2298.22 1457.66 Q2296.41 1454.1 2292.78 1454.1 M2292.78 1450.39 Q2298.59 1450.39 2301.64 1455 Q2304.72 1459.58 2304.72 1468.33 Q2304.72 1477.06 2301.64 1481.67 Q2298.59 1486.25 2292.78 1486.25 Q2286.97 1486.25 2283.89 1481.67 Q2280.83 1477.06 2280.83 1468.33 Q2280.83 1459.58 2283.89 1455 Q2286.97 1450.39 2292.78 1450.39 Z" fill="#000000" fill-rule="nonzero" fill-opacity="1" /><path clip-path="url(#clip860)" d="M2322.94 1454.1 Q2319.33 1454.1 2317.5 1457.66 Q2315.69 1461.2 2315.69 1468.33 Q2315.69 1475.44 2317.5 1479.01 Q2319.33 1482.55 2322.94 1482.55 Q2326.57 1482.55 2328.38 1479.01 Q2330.21 1475.44 2330.21 1468.33 Q2330.21 1461.2 2328.38 1457.66 Q2326.57 1454.1 2322.94 1454.1 M2322.94 1450.39 Q2328.75 1450.39 2331.81 1455 Q2334.88 1459.58 2334.88 1468.33 Q2334.88 1477.06 2331.81 1481.67 Q2328.75 1486.25 2322.94 1486.25 Q2317.13 1486.25 2314.05 1481.67 Q2311 1477.06 2311 1468.33 Q2311 1459.58 2314.05 1455 Q2317.13 1450.39 2322.94 1450.39 Z" fill="#000000" fill-rule="nonzero" fill-opacity="1" /><path clip-path="url(#clip860)" d="M1165.17 1520.52 L1171.6 1520.52 L1171.6 1568.04 L1165.17 1568.04 L1165.17 1520.52 Z" fill="#000000" fill-rule="nonzero" fill-opacity="1" /><path clip-path="url(#clip860)" d="M1189.93 1522.27 L1189.93 1532.4 L1201.99 1532.4 L1201.99 1536.95 L1189.93 1536.95 L1189.93 1556.3 Q1189.93 1560.66 1191.11 1561.9 Q1192.32 1563.14 1195.98 1563.14 L1201.99 1563.14 L1201.99 1568.04 L1195.98 1568.04 Q1189.2 1568.04 1186.62 1565.53 Q1184.04 1562.98 1184.04 1556.3 L1184.04 1536.95 L1179.74 1536.95 L1179.74 1532.4 L1184.04 1532.4 L1184.04 1522.27 L1189.93 1522.27 Z" fill="#000000" fill-rule="nonzero" fill-opacity="1" /><path clip-path="url(#clip860)" d="M1240.19 1548.76 L1240.19 1551.62 L1213.26 1551.62 Q1213.64 1557.67 1216.89 1560.85 Q1220.17 1564 1225.99 1564 Q1229.36 1564 1232.52 1563.17 Q1235.7 1562.35 1238.82 1560.69 L1238.82 1566.23 Q1235.67 1567.57 1232.36 1568.27 Q1229.05 1568.97 1225.64 1568.97 Q1217.11 1568.97 1212.11 1564 Q1207.15 1559.04 1207.15 1550.57 Q1207.15 1541.82 1211.86 1536.69 Q1216.6 1531.54 1224.62 1531.54 Q1231.81 1531.54 1235.98 1536.18 Q1240.19 1540.8 1240.19 1548.76 M1234.33 1547.04 Q1234.27 1542.23 1231.62 1539.37 Q1229.01 1536.5 1224.69 1536.5 Q1219.78 1536.5 1216.82 1539.27 Q1213.9 1542.04 1213.45 1547.07 L1234.33 1547.04 Z" fill="#000000" fill-rule="nonzero" fill-opacity="1" /><path clip-path="url(#clip860)" d="M1270.45 1537.87 Q1269.47 1537.3 1268.29 1537.04 Q1267.14 1536.76 1265.74 1536.76 Q1260.78 1536.76 1258.11 1540 Q1255.46 1543.22 1255.46 1549.27 L1255.46 1568.04 L1249.58 1568.04 L1249.58 1532.4 L1255.46 1532.4 L1255.46 1537.93 Q1257.31 1534.69 1260.27 1533.13 Q1263.23 1531.54 1267.46 1531.54 Q1268.07 1531.54 1268.8 1531.63 Q1269.53 1531.7 1270.42 1531.85 L1270.45 1537.87 Z" fill="#000000" fill-rule="nonzero" fill-opacity="1" /><path clip-path="url(#clip860)" d="M1292.8 1550.12 Q1285.7 1550.12 1282.96 1551.75 Q1280.23 1553.37 1280.23 1557.29 Q1280.23 1560.4 1282.26 1562.25 Q1284.33 1564.07 1287.86 1564.07 Q1292.73 1564.07 1295.66 1560.63 Q1298.62 1557.16 1298.62 1551.43 L1298.62 1550.12 L1292.8 1550.12 M1304.48 1547.71 L1304.48 1568.04 L1298.62 1568.04 L1298.62 1562.63 Q1296.62 1565.88 1293.63 1567.44 Q1290.63 1568.97 1286.31 1568.97 Q1280.83 1568.97 1277.58 1565.91 Q1274.37 1562.82 1274.37 1557.67 Q1274.37 1551.65 1278.38 1548.6 Q1282.42 1545.54 1290.41 1545.54 L1298.62 1545.54 L1298.62 1544.97 Q1298.62 1540.93 1295.95 1538.73 Q1293.31 1536.5 1288.5 1536.5 Q1285.45 1536.5 1282.55 1537.23 Q1279.65 1537.97 1276.98 1539.43 L1276.98 1534.02 Q1280.19 1532.78 1283.22 1532.17 Q1286.24 1531.54 1289.11 1531.54 Q1296.84 1531.54 1300.66 1535.55 Q1304.48 1539.56 1304.48 1547.71 Z" fill="#000000" fill-rule="nonzero" fill-opacity="1" /><path clip-path="url(#clip860)" d="M1322.34 1522.27 L1322.34 1532.4 L1334.4 1532.4 L1334.4 1536.95 L1322.34 1536.95 L1322.34 1556.3 Q1322.34 1560.66 1323.51 1561.9 Q1324.72 1563.14 1328.38 1563.14 L1334.4 1563.14 L1334.4 1568.04 L1328.38 1568.04 Q1321.6 1568.04 1319.03 1565.53 Q1316.45 1562.98 1316.45 1556.3 L1316.45 1536.95 L1312.15 1536.95 L1312.15 1532.4 L1316.45 1532.4 L1316.45 1522.27 L1322.34 1522.27 Z" fill="#000000" fill-rule="nonzero" fill-opacity="1" /><path clip-path="url(#clip860)" d="M1342.1 1532.4 L1347.96 1532.4 L1347.96 1568.04 L1342.1 1568.04 L1342.1 1532.4 M1342.1 1518.52 L1347.96 1518.52 L1347.96 1525.93 L1342.1 1525.93 L1342.1 1518.52 Z" fill="#000000" fill-rule="nonzero" fill-opacity="1" /><path clip-path="url(#clip860)" d="M1374.02 1536.5 Q1369.31 1536.5 1366.58 1540.19 Q1363.84 1543.85 1363.84 1550.25 Q1363.84 1556.65 1366.55 1560.34 Q1369.28 1564 1374.02 1564 Q1378.7 1564 1381.44 1560.31 Q1384.18 1556.62 1384.18 1550.25 Q1384.18 1543.92 1381.44 1540.23 Q1378.7 1536.5 1374.02 1536.5 M1374.02 1531.54 Q1381.66 1531.54 1386.02 1536.5 Q1390.38 1541.47 1390.38 1550.25 Q1390.38 1559 1386.02 1564 Q1381.66 1568.97 1374.02 1568.97 Q1366.35 1568.97 1361.99 1564 Q1357.66 1559 1357.66 1550.25 Q1357.66 1541.47 1361.99 1536.5 Q1366.35 1531.54 1374.02 1531.54 Z" fill="#000000" fill-rule="nonzero" fill-opacity="1" /><path clip-path="url(#clip860)" d="M1429.72 1546.53 L1429.72 1568.04 L1423.87 1568.04 L1423.87 1546.72 Q1423.87 1541.66 1421.89 1539.14 Q1419.92 1536.63 1415.97 1536.63 Q1411.23 1536.63 1408.5 1539.65 Q1405.76 1542.68 1405.76 1547.9 L1405.76 1568.04 L1399.87 1568.04 L1399.87 1532.4 L1405.76 1532.4 L1405.76 1537.93 Q1407.86 1534.72 1410.69 1533.13 Q1413.56 1531.54 1417.28 1531.54 Q1423.42 1531.54 1426.57 1535.36 Q1429.72 1539.14 1429.72 1546.53 Z" fill="#000000" fill-rule="nonzero" fill-opacity="1" /><polyline clip-path="url(#clip860)" style="stroke:#000000; stroke-linecap:round; stroke-linejoin:round; stroke-width:4; stroke-opacity:1; fill:none" points="242.135,1423.18 242.135,47.2441 "/>
<polyline clip-path="url(#clip860)" style="stroke:#000000; stroke-linecap:round; stroke-linejoin:round; stroke-width:4; stroke-opacity:1; fill:none" points="242.135,1423.18 261.032,1423.18 "/>
<polyline clip-path="url(#clip860)" style="stroke:#000000; stroke-linecap:round; stroke-linejoin:round; stroke-width:4; stroke-opacity:1; fill:none" points="242.135,1033.81 261.032,1033.81 "/>
<polyline clip-path="url(#clip860)" style="stroke:#000000; stroke-linecap:round; stroke-linejoin:round; stroke-width:4; stroke-opacity:1; fill:none" points="242.135,644.444 261.032,644.444 "/>
<polyline clip-path="url(#clip860)" style="stroke:#000000; stroke-linecap:round; stroke-linejoin:round; stroke-width:4; stroke-opacity:1; fill:none" points="242.135,255.077 261.032,255.077 "/>
<path clip-path="url(#clip860)" d="M114.26 1423.63 L143.936 1423.63 L143.936 1427.57 L114.26 1427.57 L114.26 1423.63 Z" fill="#000000" fill-rule="nonzero" fill-opacity="1" /><path clip-path="url(#clip860)" d="M154.839 1436.52 L162.477 1436.52 L162.477 1410.16 L154.167 1411.83 L154.167 1407.57 L162.431 1405.9 L167.107 1405.9 L167.107 1436.52 L174.746 1436.52 L174.746 1440.46 L154.839 1440.46 L154.839 1436.52 Z" fill="#000000" fill-rule="nonzero" fill-opacity="1" /><path clip-path="url(#clip860)" d="M194.19 1408.98 Q190.579 1408.98 188.75 1412.54 Q186.945 1416.08 186.945 1423.21 Q186.945 1430.32 188.75 1433.89 Q190.579 1437.43 194.19 1437.43 Q197.825 1437.43 199.63 1433.89 Q201.459 1430.32 201.459 1423.21 Q201.459 1416.08 199.63 1412.54 Q197.825 1408.98 194.19 1408.98 M194.19 1405.27 Q200 1405.27 203.056 1409.88 Q206.135 1414.46 206.135 1423.21 Q206.135 1431.94 203.056 1436.55 Q200 1441.13 194.19 1441.13 Q188.38 1441.13 185.301 1436.55 Q182.246 1431.94 182.246 1423.21 Q182.246 1414.46 185.301 1409.88 Q188.38 1405.27 194.19 1405.27 Z" fill="#000000" fill-rule="nonzero" fill-opacity="1" /><path clip-path="url(#clip860)" d="M144.515 1034.26 L174.19 1034.26 L174.19 1038.2 L144.515 1038.2 L144.515 1034.26 Z" fill="#000000" fill-rule="nonzero" fill-opacity="1" /><path clip-path="url(#clip860)" d="M194.283 1034.68 Q190.95 1034.68 189.028 1036.46 Q187.13 1038.24 187.13 1041.37 Q187.13 1044.49 189.028 1046.28 Q190.95 1048.06 194.283 1048.06 Q197.616 1048.06 199.537 1046.28 Q201.459 1044.47 201.459 1041.37 Q201.459 1038.24 199.537 1036.46 Q197.639 1034.68 194.283 1034.68 M189.607 1032.69 Q186.598 1031.95 184.908 1029.89 Q183.241 1027.83 183.241 1024.87 Q183.241 1020.72 186.181 1018.31 Q189.144 1015.91 194.283 1015.91 Q199.445 1015.91 202.385 1018.31 Q205.324 1020.72 205.324 1024.87 Q205.324 1027.83 203.635 1029.89 Q201.968 1031.95 198.982 1032.69 Q202.362 1033.48 204.237 1035.77 Q206.135 1038.06 206.135 1041.37 Q206.135 1046.39 203.056 1049.08 Q200 1051.76 194.283 1051.76 Q188.565 1051.76 185.487 1049.08 Q182.431 1046.39 182.431 1041.37 Q182.431 1038.06 184.329 1035.77 Q186.227 1033.48 189.607 1032.69 M187.894 1025.31 Q187.894 1027.99 189.561 1029.5 Q191.25 1031 194.283 1031 Q197.292 1031 198.982 1029.5 Q200.695 1027.99 200.695 1025.31 Q200.695 1022.62 198.982 1021.12 Q197.292 1019.61 194.283 1019.61 Q191.25 1019.61 189.561 1021.12 Q187.894 1022.62 187.894 1025.31 Z" fill="#000000" fill-rule="nonzero" fill-opacity="1" /><path clip-path="url(#clip860)" d="M144.26 644.896 L173.936 644.896 L173.936 648.831 L144.26 648.831 L144.26 644.896 Z" fill="#000000" fill-rule="nonzero" fill-opacity="1" /><path clip-path="url(#clip860)" d="M194.607 642.581 Q191.459 642.581 189.607 644.734 Q187.778 646.887 187.778 650.637 Q187.778 654.363 189.607 656.539 Q191.459 658.692 194.607 658.692 Q197.755 658.692 199.584 656.539 Q201.436 654.363 201.436 650.637 Q201.436 646.887 199.584 644.734 Q197.755 642.581 194.607 642.581 M203.889 627.928 L203.889 632.188 Q202.13 631.354 200.325 630.914 Q198.542 630.475 196.783 630.475 Q192.153 630.475 189.7 633.6 Q187.269 636.725 186.922 643.044 Q188.288 641.03 190.348 639.965 Q192.408 638.877 194.885 638.877 Q200.093 638.877 203.102 642.049 Q206.135 645.197 206.135 650.637 Q206.135 655.961 202.987 659.178 Q199.838 662.396 194.607 662.396 Q188.612 662.396 185.44 657.812 Q182.269 653.206 182.269 644.479 Q182.269 636.285 186.158 631.424 Q190.047 626.539 196.598 626.539 Q198.357 626.539 200.139 626.887 Q201.945 627.234 203.889 627.928 Z" fill="#000000" fill-rule="nonzero" fill-opacity="1" /><path clip-path="url(#clip860)" d="M143.936 255.528 L173.612 255.528 L173.612 259.463 L143.936 259.463 L143.936 255.528 Z" fill="#000000" fill-rule="nonzero" fill-opacity="1" /><path clip-path="url(#clip860)" d="M196.551 241.871 L184.746 260.32 L196.551 260.32 L196.551 241.871 M195.325 237.797 L201.204 237.797 L201.204 260.32 L206.135 260.32 L206.135 264.209 L201.204 264.209 L201.204 272.357 L196.551 272.357 L196.551 264.209 L180.95 264.209 L180.95 259.695 L195.325 237.797 Z" fill="#000000" fill-rule="nonzero" fill-opacity="1" /><path clip-path="url(#clip860)" d="M16.4842 816.375 L16.4842 786.329 L21.895 786.329 L21.895 809.945 L35.9632 809.945 L35.9632 787.315 L41.3741 787.315 L41.3741 809.945 L58.5933 809.945 L58.5933 785.756 L64.0042 785.756 L64.0042 816.375 L16.4842 816.375 Z" fill="#000000" fill-rule="nonzero" fill-opacity="1" /><path clip-path="url(#clip860)" d="M16.4842 775.189 L16.4842 768.759 L58.5933 768.759 L58.5933 745.62 L64.0042 745.62 L64.0042 775.189 L16.4842 775.189 Z" fill="#000000" fill-rule="nonzero" fill-opacity="1" /><path clip-path="url(#clip860)" d="M41.3104 732.443 L58.7206 732.443 L58.7206 722.13 Q58.7206 716.942 56.5881 714.46 Q54.4238 711.945 49.9996 711.945 Q45.5436 711.945 43.4429 714.46 Q41.3104 716.942 41.3104 722.13 L41.3104 732.443 M21.7677 732.443 L36.0905 732.443 L36.0905 722.926 Q36.0905 718.216 34.34 715.924 Q32.5576 713.6 28.9291 713.6 Q25.3325 713.6 23.5501 715.924 Q21.7677 718.216 21.7677 722.926 L21.7677 732.443 M16.4842 738.872 L16.4842 722.449 Q16.4842 715.096 19.5397 711.118 Q22.5952 707.139 28.2289 707.139 Q32.5894 707.139 35.1675 709.176 Q37.7456 711.213 38.3822 715.16 Q39.4007 710.418 42.6472 707.808 Q45.8619 705.166 50.6998 705.166 Q57.0655 705.166 60.5348 709.495 Q64.0042 713.823 64.0042 721.812 L64.0042 738.872 L16.4842 738.872 Z" fill="#000000" fill-rule="nonzero" fill-opacity="1" /><path clip-path="url(#clip860)" d="M20.8447 676.011 Q20.8447 683.013 26.0645 687.151 Q31.2844 691.257 40.2919 691.257 Q49.2675 691.257 54.4874 687.151 Q59.7073 683.013 59.7073 676.011 Q59.7073 669.009 54.4874 664.935 Q49.2675 660.829 40.2919 660.829 Q31.2844 660.829 26.0645 664.935 Q20.8447 669.009 20.8447 676.011 M15.6248 676.011 Q15.6248 666.017 22.3406 660.033 Q29.0246 654.049 40.2919 654.049 Q51.5274 654.049 58.2432 660.033 Q64.9272 666.017 64.9272 676.011 Q64.9272 686.037 58.2432 692.052 Q51.5592 698.036 40.2919 698.036 Q29.0246 698.036 22.3406 692.052 Q15.6248 686.037 15.6248 676.011 Z" fill="#000000" fill-rule="nonzero" fill-opacity="1" /><polyline clip-path="url(#clip862)" style="stroke:#009af9; stroke-linecap:round; stroke-linejoin:round; stroke-width:4; stroke-opacity:1; fill:none" points="301.869,1772.84 308.529,859.315 315.188,687.385 321.847,731.063 328.507,716.967 335.166,607.944 341.825,736.561 348.485,453.928 355.144,463.046 361.804,461.912 368.463,557.619 375.122,329.917 381.782,433.318 388.441,425.638 395.1,362.639 401.76,300.071 408.419,376.876 415.079,389.164 421.738,504.43 428.397,363.61 435.057,363.581 441.716,551.576 448.375,574.059 455.035,713.489 461.694,591.783 468.354,688.87 475.013,635.282 481.672,618.372 488.332,430.389 494.991,430.353 501.65,369.909 508.31,352.353 514.969,407.415 521.628,298.438 528.288,419.42 534.947,180.984 541.607,291.759 548.266,338.634 554.925,396.368 561.585,371.928 568.244,450.483 574.903,284.958 581.563,315.573 588.222,336.867 594.882,303.728 601.541,324.432 608.2,295.787 614.86,325.849 621.519,286.39 628.178,278.394 634.838,274.327 641.497,218.287 648.157,302.133 654.816,300.77 661.475,161.598 668.135,184.504 674.794,278.724 681.453,215.403 688.113,270.764 694.772,213.942 701.432,209.594 708.091,92.7063 714.75,151.201 721.41,172.771 728.069,179.552 734.728,146.244 741.388,235.363 748.047,227.095 754.706,359.423 761.366,361.87 768.025,98.2347 774.685,356.379 781.344,252.163 788.003,322.582 794.663,198.798 801.322,208.432 807.981,99.0221 814.641,192.047 821.3,154.814 827.96,70.6906 834.619,164.309 841.278,200.141 847.938,151.236 854.597,224.401 861.256,250.336 867.916,228.616 874.575,189.779 881.235,177.917 887.894,191.846 894.553,213.624 901.213,157.758 907.872,350.577 914.531,218.701 921.191,242.519 927.85,76.5455 934.51,152.001 941.169,152.842 947.828,159.899 954.488,95.7153 961.147,216.59 967.806,723.884 974.466,323.234 981.125,225.573 987.785,337.49 994.444,208.135 1001.1,222.383 1007.76,118.238 1014.42,215.728 1021.08,237.661 1027.74,206.32 1034.4,236.385 1041.06,150.825 1047.72,98.7736 1054.38,162.466 1061.04,223.265 1067.7,177.226 1074.36,312.911 1081.02,186.487 1087.68,150.848 1094.33,407.74 1100.99,161.24 1107.65,175.289 1114.31,240.624 1120.97,220.801 1127.63,314.228 1134.29,328.333 1140.95,482.428 1147.61,548.71 1154.27,727.177 1160.93,336.115 1167.59,459.728 1174.25,382.579 1180.91,379.413 1187.57,456.469 1194.23,454.798 1200.88,401.696 1207.54,365.436 1214.2,317.865 1220.86,343.03 1227.52,274.385 1234.18,229.724 1240.84,221.08 1247.5,259.344 1254.16,212.054 1260.82,181.42 1267.48,166.697 1274.14,116.464 1280.8,218.336 1287.46,305.581 1294.12,214.847 1300.77,285.023 1307.43,172.586 1314.09,226.129 1320.75,178.021 1327.41,177.874 1334.07,201.034 1340.73,194.299 1347.39,224.355 1354.05,214.047 1360.71,88.3855 1367.37,358.859 1374.03,180.138 1380.69,190.392 1387.35,276.888 1394.01,223.268 1400.67,159.965 1407.32,227.672 1413.98,197.134 1420.64,183.029 1427.3,175.023 1433.96,93.9358 1440.62,206.602 1447.28,69.0216 1453.94,239.546 1460.6,308.296 1467.26,158.044 1473.92,265.044 1480.58,245.082 1487.24,106.512 1493.9,194.154 1500.56,215.93 1507.22,129.668 1513.87,277.805 1520.53,193.549 1527.19,180.81 1533.85,169.984 1540.51,151.574 1547.17,177.348 1553.83,200.209 1560.49,152.772 1567.15,144.696 1573.81,152.719 1580.47,172.975 1587.13,201.153 1593.79,180.681 1600.45,101.567 1607.11,172.377 1613.77,47.2441 1620.42,152.365 1627.08,185.258 1633.74,124.136 1640.4,159.178 1647.06,139.461 1653.72,123.525 1660.38,249.852 1667.04,288.239 1673.7,215.082 1680.36,149.676 1687.02,72.1854 1693.68,149.806 1700.34,228.331 1707,196.08 1713.66,191.46 1720.32,188.208 1726.97,134.325 1733.63,214.629 1740.29,117.762 1746.95,126.513 1753.61,310.881 1760.27,141.354 1766.93,142.631 1773.59,177.599 1780.25,123.833 1786.91,179.038 1793.57,198.217 1800.23,296.661 1806.89,177.515 1813.55,81.1279 1820.21,155.175 1826.87,140.548 1833.52,109.718 1840.18,193.785 1846.84,174.016 1853.5,223.801 1860.16,122.866 1866.82,126.221 1873.48,154.345 1880.14,139.955 1886.8,103.068 1893.46,107.949 1900.12,165.648 1906.78,82.5763 1913.44,268.56 1920.1,128.301 1926.76,113.697 1933.42,155.208 1940.07,151.85 1946.73,100.802 1953.39,134.479 1960.05,174.699 1966.71,170.031 1973.37,165.417 1980.03,102.829 1986.69,131.132 1993.35,131.327 2000.01,141.377 2006.67,127.365 2013.33,180.633 2019.99,103.323 2026.65,120.365 2033.31,151.582 2039.97,223.71 2046.62,265.159 2053.28,163.706 2059.94,144.643 2066.6,227.797 2073.26,96.2457 2079.92,154.801 2086.58,135.268 2093.24,128.372 2099.9,217.868 2106.56,278.018 2113.22,283.737 2119.88,127.338 2126.54,126.276 2133.2,241.833 2139.86,160.629 2146.52,191.893 2153.17,156.01 2159.83,195.654 2166.49,167.371 2173.15,279.694 2179.81,255.323 2186.47,257.731 2193.13,184.274 2199.79,349.784 2206.45,286.614 2213.11,352.111 2219.77,188.255 2226.43,280.186 2233.09,226.935 2239.75,191.672 2246.41,220.133 2253.07,197.067 2259.72,148.924 2266.38,131.802 2273.04,181.397 2279.7,289.302 2286.36,233.08 2293.02,191.821 "/>
<path clip-path="url(#clip860)" d="M2018.91 1377.32 L2282.4 1377.32 L2282.4 1273.64 L2018.91 1273.64  Z" fill="#ffffff" fill-rule="evenodd" fill-opacity="1"/>
<polyline clip-path="url(#clip860)" style="stroke:#000000; stroke-linecap:round; stroke-linejoin:round; stroke-width:4; stroke-opacity:1; fill:none" points="2018.91,1377.32 2282.4,1377.32 2282.4,1273.64 2018.91,1273.64 2018.91,1377.32 "/>
<polyline clip-path="url(#clip860)" style="stroke:#009af9; stroke-linecap:round; stroke-linejoin:round; stroke-width:4; stroke-opacity:1; fill:none" points="2042.36,1325.48 2183.07,1325.48 "/>
<path clip-path="url(#clip860)" d="M2220.36 1345.16 Q2218.56 1349.79 2216.84 1351.2 Q2215.13 1352.62 2212.26 1352.62 L2208.86 1352.62 L2208.86 1349.05 L2211.36 1349.05 Q2213.12 1349.05 2214.09 1348.22 Q2215.06 1347.38 2216.24 1344.28 L2217.01 1342.34 L2206.52 1316.83 L2211.03 1316.83 L2219.14 1337.11 L2227.24 1316.83 L2231.75 1316.83 L2220.36 1345.16 Z" fill="#000000" fill-rule="nonzero" fill-opacity="1" /><path clip-path="url(#clip860)" d="M2239.04 1338.82 L2246.68 1338.82 L2246.68 1312.45 L2238.37 1314.12 L2238.37 1309.86 L2246.64 1308.2 L2251.31 1308.2 L2251.31 1338.82 L2258.95 1338.82 L2258.95 1342.76 L2239.04 1342.76 L2239.04 1338.82 Z" fill="#000000" fill-rule="nonzero" fill-opacity="1" /></svg>
