<?xml version="1.0" encoding="utf-8"?>
<svg xmlns="http://www.w3.org/2000/svg" xmlns:xlink="http://www.w3.org/1999/xlink" width="600" height="400" viewBox="0 0 2400 1600">
<defs>
  <clipPath id="clip380">
    <rect x="0" y="0" width="2400" height="1600"/>
  </clipPath>
</defs>
<path clip-path="url(#clip380)" d="M0 1600 L2400 1600 L2400 0 L0 0  Z" fill="#ffffff" fill-rule="evenodd" fill-opacity="1"/>
<defs>
  <clipPath id="clip381">
    <rect x="251" y="47" width="2102" height="1377"/>
  </clipPath>
</defs>
<path clip-path="url(#clip380)" d="M242.135 1423.18 L2352.76 1423.18 L2352.76 47.2441 L242.135 47.2441  Z" fill="#ffffff" fill-rule="evenodd" fill-opacity="1"/>
<defs>
  <clipPath id="clip382">
    <rect x="242" y="47" width="2112" height="1377"/>
  </clipPath>
</defs>
<polyline clip-path="url(#clip382)" style="stroke:#000000; stroke-linecap:round; stroke-linejoin:round; stroke-width:2; stroke-opacity:0.1; fill:none" points="299.876,1423.18 299.876,47.2441 "/>
<polyline clip-path="url(#clip382)" style="stroke:#000000; stroke-linecap:round; stroke-linejoin:round; stroke-width:2; stroke-opacity:0.1; fill:none" points="798.162,1423.18 798.162,47.2441 "/>
<polyline clip-path="url(#clip382)" style="stroke:#000000; stroke-linecap:round; stroke-linejoin:round; stroke-width:2; stroke-opacity:0.1; fill:none" points="1296.45,1423.18 1296.45,47.2441 "/>
<polyline clip-path="url(#clip382)" style="stroke:#000000; stroke-linecap:round; stroke-linejoin:round; stroke-width:2; stroke-opacity:0.1; fill:none" points="1794.74,1423.18 1794.74,47.2441 "/>
<polyline clip-path="url(#clip382)" style="stroke:#000000; stroke-linecap:round; stroke-linejoin:round; stroke-width:2; stroke-opacity:0.1; fill:none" points="2293.02,1423.18 2293.02,47.2441 "/>
<polyline clip-path="url(#clip382)" style="stroke:#000000; stroke-linecap:round; stroke-linejoin:round; stroke-width:2; stroke-opacity:0.1; fill:none" points="242.135,1320.39 2352.76,1320.39 "/>
<polyline clip-path="url(#clip382)" style="stroke:#000000; stroke-linecap:round; stroke-linejoin:round; stroke-width:2; stroke-opacity:0.1; fill:none" points="242.135,961.956 2352.76,961.956 "/>
<polyline clip-path="url(#clip382)" style="stroke:#000000; stroke-linecap:round; stroke-linejoin:round; stroke-width:2; stroke-opacity:0.1; fill:none" points="242.135,603.524 2352.76,603.524 "/>
<polyline clip-path="url(#clip382)" style="stroke:#000000; stroke-linecap:round; stroke-linejoin:round; stroke-width:2; stroke-opacity:0.1; fill:none" points="242.135,245.092 2352.76,245.092 "/>
<polyline clip-path="url(#clip380)" style="stroke:#000000; stroke-linecap:round; stroke-linejoin:round; stroke-width:4; stroke-opacity:1; fill:none" points="242.135,1423.18 2352.76,1423.18 "/>
<polyline clip-path="url(#clip380)" style="stroke:#000000; stroke-linecap:round; stroke-linejoin:round; stroke-width:4; stroke-opacity:1; fill:none" points="299.876,1423.18 299.876,1404.28 "/>
<polyline clip-path="url(#clip380)" style="stroke:#000000; stroke-linecap:round; stroke-linejoin:round; stroke-width:4; stroke-opacity:1; fill:none" points="798.162,1423.18 798.162,1404.28 "/>
<polyline clip-path="url(#clip380)" style="stroke:#000000; stroke-linecap:round; stroke-linejoin:round; stroke-width:4; stroke-opacity:1; fill:none" points="1296.45,1423.18 1296.45,1404.28 "/>
<polyline clip-path="url(#clip380)" style="stroke:#000000; stroke-linecap:round; stroke-linejoin:round; stroke-width:4; stroke-opacity:1; fill:none" points="1794.74,1423.18 1794.74,1404.28 "/>
<polyline clip-path="url(#clip380)" style="stroke:#000000; stroke-linecap:round; stroke-linejoin:round; stroke-width:4; stroke-opacity:1; fill:none" points="2293.02,1423.18 2293.02,1404.28 "/>
<path clip-path="url(#clip380)" d="M299.876 1454.1 Q296.265 1454.1 294.436 1457.66 Q292.631 1461.2 292.631 1468.33 Q292.631 1475.44 294.436 1479.01 Q296.265 1482.55 299.876 1482.55 Q303.51 1482.55 305.316 1479.01 Q307.145 1475.44 307.145 1468.33 Q307.145 1461.2 305.316 1457.66 Q303.51 1454.1 299.876 1454.1 M299.876 1450.39 Q305.686 1450.39 308.742 1455 Q311.82 1459.58 311.82 1468.33 Q311.82 1477.06 308.742 1481.67 Q305.686 1486.25 299.876 1486.25 Q294.066 1486.25 290.987 1481.67 Q287.932 1477.06 287.932 1468.33 Q287.932 1459.58 290.987 1455 Q294.066 1450.39 299.876 1450.39 Z" fill="#000000" fill-rule="nonzero" fill-opacity="1" /><path clip-path="url(#clip380)" d="M761.855 1481.64 L778.174 1481.64 L778.174 1485.58 L756.23 1485.58 L756.23 1481.64 Q758.892 1478.89 763.475 1474.26 Q768.082 1469.61 769.262 1468.27 Q771.507 1465.74 772.387 1464.01 Q773.29 1462.25 773.29 1460.56 Q773.29 1457.8 771.345 1456.07 Q769.424 1454.33 766.322 1454.33 Q764.123 1454.33 761.67 1455.09 Q759.239 1455.86 756.461 1457.41 L756.461 1452.69 Q759.285 1451.55 761.739 1450.97 Q764.193 1450.39 766.23 1450.39 Q771.6 1450.39 774.794 1453.08 Q777.989 1455.77 777.989 1460.26 Q777.989 1462.39 777.179 1464.31 Q776.392 1466.2 774.285 1468.8 Q773.707 1469.47 770.605 1472.69 Q767.503 1475.88 761.855 1481.64 Z" fill="#000000" fill-rule="nonzero" fill-opacity="1" /><path clip-path="url(#clip380)" d="M788.035 1451.02 L806.392 1451.02 L806.392 1454.96 L792.318 1454.96 L792.318 1463.43 Q793.336 1463.08 794.355 1462.92 Q795.373 1462.73 796.392 1462.73 Q802.179 1462.73 805.558 1465.9 Q808.938 1469.08 808.938 1474.49 Q808.938 1480.07 805.466 1483.17 Q801.993 1486.25 795.674 1486.25 Q793.498 1486.25 791.23 1485.88 Q788.984 1485.51 786.577 1484.77 L786.577 1480.07 Q788.66 1481.2 790.882 1481.76 Q793.105 1482.32 795.581 1482.32 Q799.586 1482.32 801.924 1480.21 Q804.262 1478.1 804.262 1474.49 Q804.262 1470.88 801.924 1468.77 Q799.586 1466.67 795.581 1466.67 Q793.706 1466.67 791.831 1467.08 Q789.98 1467.5 788.035 1468.38 L788.035 1451.02 Z" fill="#000000" fill-rule="nonzero" fill-opacity="1" /><path clip-path="url(#clip380)" d="M828.151 1454.1 Q824.54 1454.1 822.711 1457.66 Q820.905 1461.2 820.905 1468.33 Q820.905 1475.44 822.711 1479.01 Q824.54 1482.55 828.151 1482.55 Q831.785 1482.55 833.59 1479.01 Q835.419 1475.44 835.419 1468.33 Q835.419 1461.2 833.59 1457.66 Q831.785 1454.1 828.151 1454.1 M828.151 1450.39 Q833.961 1450.39 837.016 1455 Q840.095 1459.58 840.095 1468.33 Q840.095 1477.06 837.016 1481.67 Q833.961 1486.25 828.151 1486.25 Q822.341 1486.25 819.262 1481.67 Q816.206 1477.06 816.206 1468.33 Q816.206 1459.58 819.262 1455 Q822.341 1450.39 828.151 1450.39 Z" fill="#000000" fill-rule="nonzero" fill-opacity="1" /><path clip-path="url(#clip380)" d="M1256.07 1451.02 L1274.42 1451.02 L1274.42 1454.96 L1260.35 1454.96 L1260.35 1463.43 Q1261.37 1463.08 1262.39 1462.92 Q1263.4 1462.73 1264.42 1462.73 Q1270.21 1462.73 1273.59 1465.9 Q1276.97 1469.08 1276.97 1474.49 Q1276.97 1480.07 1273.5 1483.17 Q1270.03 1486.25 1263.71 1486.25 Q1261.53 1486.25 1259.26 1485.88 Q1257.02 1485.51 1254.61 1484.77 L1254.61 1480.07 Q1256.69 1481.2 1258.91 1481.76 Q1261.14 1482.32 1263.61 1482.32 Q1267.62 1482.32 1269.96 1480.21 Q1272.29 1478.1 1272.29 1474.49 Q1272.29 1470.88 1269.96 1468.77 Q1267.62 1466.67 1263.61 1466.67 Q1261.74 1466.67 1259.86 1467.08 Q1258.01 1467.5 1256.07 1468.38 L1256.07 1451.02 Z" fill="#000000" fill-rule="nonzero" fill-opacity="1" /><path clip-path="url(#clip380)" d="M1296.18 1454.1 Q1292.57 1454.1 1290.74 1457.66 Q1288.94 1461.2 1288.94 1468.33 Q1288.94 1475.44 1290.74 1479.01 Q1292.57 1482.55 1296.18 1482.55 Q1299.82 1482.55 1301.62 1479.01 Q1303.45 1475.44 1303.45 1468.33 Q1303.45 1461.2 1301.62 1457.66 Q1299.82 1454.1 1296.18 1454.1 M1296.18 1450.39 Q1301.99 1450.39 1305.05 1455 Q1308.13 1459.58 1308.13 1468.33 Q1308.13 1477.06 1305.05 1481.67 Q1301.99 1486.25 1296.18 1486.25 Q1290.37 1486.25 1287.29 1481.67 Q1284.24 1477.06 1284.24 1468.33 Q1284.24 1459.58 1287.29 1455 Q1290.37 1450.39 1296.18 1450.39 Z" fill="#000000" fill-rule="nonzero" fill-opacity="1" /><path clip-path="url(#clip380)" d="M1326.34 1454.1 Q1322.73 1454.1 1320.9 1457.66 Q1319.1 1461.2 1319.1 1468.33 Q1319.1 1475.44 1320.9 1479.01 Q1322.73 1482.55 1326.34 1482.55 Q1329.98 1482.55 1331.78 1479.01 Q1333.61 1475.44 1333.61 1468.33 Q1333.61 1461.2 1331.78 1457.66 Q1329.98 1454.1 1326.34 1454.1 M1326.34 1450.39 Q1332.15 1450.39 1335.21 1455 Q1338.29 1459.58 1338.29 1468.33 Q1338.29 1477.06 1335.21 1481.67 Q1332.15 1486.25 1326.34 1486.25 Q1320.53 1486.25 1317.46 1481.67 Q1314.4 1477.06 1314.4 1468.33 Q1314.4 1459.58 1317.46 1455 Q1320.53 1450.39 1326.34 1450.39 Z" fill="#000000" fill-rule="nonzero" fill-opacity="1" /><path clip-path="url(#clip380)" d="M1753.01 1451.02 L1775.23 1451.02 L1775.23 1453.01 L1762.69 1485.58 L1757.8 1485.58 L1769.61 1454.96 L1753.01 1454.96 L1753.01 1451.02 Z" fill="#000000" fill-rule="nonzero" fill-opacity="1" /><path clip-path="url(#clip380)" d="M1784.4 1451.02 L1802.76 1451.02 L1802.76 1454.96 L1788.68 1454.96 L1788.68 1463.43 Q1789.7 1463.08 1790.72 1462.92 Q1791.74 1462.73 1792.76 1462.73 Q1798.54 1462.73 1801.92 1465.9 Q1805.3 1469.08 1805.3 1474.49 Q1805.3 1480.07 1801.83 1483.17 Q1798.36 1486.25 1792.04 1486.25 Q1789.86 1486.25 1787.59 1485.88 Q1785.35 1485.51 1782.94 1484.77 L1782.94 1480.07 Q1785.02 1481.2 1787.25 1481.76 Q1789.47 1482.32 1791.95 1482.32 Q1795.95 1482.32 1798.29 1480.21 Q1800.63 1478.1 1800.63 1474.49 Q1800.63 1470.88 1798.29 1468.77 Q1795.95 1466.67 1791.95 1466.67 Q1790.07 1466.67 1788.2 1467.08 Q1786.34 1467.5 1784.4 1468.38 L1784.4 1451.02 Z" fill="#000000" fill-rule="nonzero" fill-opacity="1" /><path clip-path="url(#clip380)" d="M1824.51 1454.1 Q1820.9 1454.1 1819.08 1457.66 Q1817.27 1461.2 1817.27 1468.33 Q1817.27 1475.44 1819.08 1479.01 Q1820.9 1482.55 1824.51 1482.55 Q1828.15 1482.55 1829.95 1479.01 Q1831.78 1475.44 1831.78 1468.33 Q1831.78 1461.2 1829.95 1457.66 Q1828.15 1454.1 1824.51 1454.1 M1824.51 1450.39 Q1830.33 1450.39 1833.38 1455 Q1836.46 1459.58 1836.46 1468.33 Q1836.46 1477.06 1833.38 1481.67 Q1830.33 1486.25 1824.51 1486.25 Q1818.7 1486.25 1815.63 1481.67 Q1812.57 1477.06 1812.57 1468.33 Q1812.57 1459.58 1815.63 1455 Q1818.7 1450.39 1824.51 1450.39 Z" fill="#000000" fill-rule="nonzero" fill-opacity="1" /><path clip-path="url(#clip380)" d="M2237.55 1481.64 L2245.19 1481.64 L2245.19 1455.28 L2236.88 1456.95 L2236.88 1452.69 L2245.14 1451.02 L2249.82 1451.02 L2249.82 1481.64 L2257.45 1481.64 L2257.45 1485.58 L2237.55 1485.58 L2237.55 1481.64 Z" fill="#000000" fill-rule="nonzero" fill-opacity="1" /><path clip-path="url(#clip380)" d="M2276.9 1454.1 Q2273.29 1454.1 2271.46 1457.66 Q2269.65 1461.2 2269.65 1468.33 Q2269.65 1475.44 2271.46 1479.01 Q2273.29 1482.55 2276.9 1482.55 Q2280.53 1482.55 2282.34 1479.01 Q2284.17 1475.44 2284.17 1468.33 Q2284.17 1461.2 2282.34 1457.66 Q2280.53 1454.1 2276.9 1454.1 M2276.9 1450.39 Q2282.71 1450.39 2285.76 1455 Q2288.84 1459.58 2288.84 1468.33 Q2288.84 1477.06 2285.76 1481.67 Q2282.71 1486.25 2276.9 1486.25 Q2271.09 1486.25 2268.01 1481.67 Q2264.95 1477.06 2264.95 1468.33 Q2264.95 1459.58 2268.01 1455 Q2271.09 1450.39 2276.9 1450.39 Z" fill="#000000" fill-rule="nonzero" fill-opacity="1" /><path clip-path="url(#clip380)" d="M2307.06 1454.1 Q2303.45 1454.1 2301.62 1457.66 Q2299.82 1461.2 2299.82 1468.33 Q2299.82 1475.44 2301.62 1479.01 Q2303.45 1482.55 2307.06 1482.55 Q2310.69 1482.55 2312.5 1479.01 Q2314.33 1475.44 2314.33 1468.33 Q2314.33 1461.2 2312.5 1457.66 Q2310.69 1454.1 2307.06 1454.1 M2307.06 1450.39 Q2312.87 1450.39 2315.93 1455 Q2319 1459.58 2319 1468.33 Q2319 1477.06 2315.93 1481.67 Q2312.87 1486.25 2307.06 1486.25 Q2301.25 1486.25 2298.17 1481.67 Q2295.12 1477.06 2295.12 1468.33 Q2295.12 1459.58 2298.17 1455 Q2301.25 1450.39 2307.06 1450.39 Z" fill="#000000" fill-rule="nonzero" fill-opacity="1" /><path clip-path="url(#clip380)" d="M2337.22 1454.1 Q2333.61 1454.1 2331.78 1457.66 Q2329.98 1461.2 2329.98 1468.33 Q2329.98 1475.44 2331.78 1479.01 Q2333.61 1482.55 2337.22 1482.55 Q2340.86 1482.55 2342.66 1479.01 Q2344.49 1475.44 2344.49 1468.33 Q2344.49 1461.2 2342.66 1457.66 Q2340.86 1454.1 2337.22 1454.1 M2337.22 1450.39 Q2343.03 1450.39 2346.09 1455 Q2349.17 1459.58 2349.17 1468.33 Q2349.17 1477.06 2346.09 1481.67 Q2343.03 1486.25 2337.22 1486.25 Q2331.41 1486.25 2328.33 1481.67 Q2325.28 1477.06 2325.28 1468.33 Q2325.28 1459.58 2328.33 1455 Q2331.41 1450.39 2337.22 1450.39 Z" fill="#000000" fill-rule="nonzero" fill-opacity="1" /><path clip-path="url(#clip380)" d="M1165.17 1520.52 L1171.6 1520.52 L1171.6 1568.04 L1165.17 1568.04 L1165.17 1520.52 Z" fill="#000000" fill-rule="nonzero" fill-opacity="1" /><path clip-path="url(#clip380)" d="M1189.93 1522.27 L1189.93 1532.4 L1201.99 1532.4 L1201.99 1536.95 L1189.93 1536.95 L1189.93 1556.3 Q1189.93 1560.66 1191.11 1561.9 Q1192.32 1563.14 1195.98 1563.14 L1201.99 1563.14 L1201.99 1568.04 L1195.98 1568.04 Q1189.2 1568.04 1186.62 1565.53 Q1184.04 1562.98 1184.04 1556.3 L1184.04 1536.95 L1179.74 1536.95 L1179.74 1532.4 L1184.04 1532.4 L1184.04 1522.27 L1189.93 1522.27 Z" fill="#000000" fill-rule="nonzero" fill-opacity="1" /><path clip-path="url(#clip380)" d="M1240.19 1548.76 L1240.19 1551.62 L1213.26 1551.62 Q1213.64 1557.67 1216.89 1560.85 Q1220.17 1564 1225.99 1564 Q1229.36 1564 1232.52 1563.17 Q1235.7 1562.35 1238.82 1560.69 L1238.82 1566.23 Q1235.67 1567.57 1232.36 1568.27 Q1229.05 1568.97 1225.64 1568.97 Q1217.11 1568.97 1212.11 1564 Q1207.15 1559.04 1207.15 1550.57 Q1207.15 1541.82 1211.86 1536.69 Q1216.6 1531.54 1224.62 1531.54 Q1231.81 1531.54 1235.98 1536.18 Q1240.19 1540.8 1240.19 1548.76 M1234.33 1547.04 Q1234.27 1542.23 1231.62 1539.37 Q1229.01 1536.5 1224.69 1536.5 Q1219.78 1536.5 1216.82 1539.27 Q1213.9 1542.04 1213.45 1547.07 L1234.33 1547.04 Z" fill="#000000" fill-rule="nonzero" fill-opacity="1" /><path clip-path="url(#clip380)" d="M1270.45 1537.87 Q1269.47 1537.3 1268.29 1537.04 Q1267.14 1536.76 1265.74 1536.76 Q1260.78 1536.76 1258.11 1540 Q1255.46 1543.22 1255.46 1549.27 L1255.46 1568.04 L1249.58 1568.04 L1249.58 1532.4 L1255.46 1532.4 L1255.46 1537.93 Q1257.31 1534.69 1260.27 1533.13 Q1263.23 1531.54 1267.46 1531.54 Q1268.07 1531.54 1268.8 1531.63 Q1269.53 1531.7 1270.42 1531.85 L1270.45 1537.87 Z" fill="#000000" fill-rule="nonzero" fill-opacity="1" /><path clip-path="url(#clip380)" d="M1292.8 1550.12 Q1285.7 1550.12 1282.96 1551.75 Q1280.23 1553.37 1280.23 1557.29 Q1280.23 1560.4 1282.26 1562.25 Q1284.33 1564.07 1287.86 1564.07 Q1292.73 1564.07 1295.66 1560.63 Q1298.62 1557.16 1298.62 1551.43 L1298.62 1550.12 L1292.8 1550.12 M1304.48 1547.71 L1304.48 1568.04 L1298.62 1568.04 L1298.62 1562.63 Q1296.62 1565.88 1293.63 1567.44 Q1290.63 1568.97 1286.31 1568.97 Q1280.83 1568.97 1277.58 1565.91 Q1274.37 1562.82 1274.37 1557.67 Q1274.37 1551.65 1278.38 1548.6 Q1282.42 1545.54 1290.41 1545.54 L1298.62 1545.54 L1298.62 1544.97 Q1298.62 1540.93 1295.95 1538.73 Q1293.31 1536.5 1288.5 1536.5 Q1285.45 1536.5 1282.55 1537.23 Q1279.65 1537.97 1276.98 1539.43 L1276.98 1534.02 Q1280.19 1532.78 1283.22 1532.17 Q1286.24 1531.54 1289.11 1531.54 Q1296.84 1531.54 1300.66 1535.55 Q1304.48 1539.56 1304.48 1547.71 Z" fill="#000000" fill-rule="nonzero" fill-opacity="1" /><path clip-path="url(#clip380)" d="M1322.34 1522.27 L1322.34 1532.4 L1334.4 1532.4 L1334.4 1536.95 L1322.34 1536.95 L1322.34 1556.3 Q1322.34 1560.66 1323.51 1561.9 Q1324.72 1563.14 1328.38 1563.14 L1334.4 1563.14 L1334.4 1568.04 L1328.38 1568.04 Q1321.6 1568.04 1319.03 1565.53 Q1316.45 1562.98 1316.45 1556.3 L1316.45 1536.95 L1312.15 1536.95 L1312.15 1532.4 L1316.45 1532.4 L1316.45 1522.27 L1322.34 1522.27 Z" fill="#000000" fill-rule="nonzero" fill-opacity="1" /><path clip-path="url(#clip380)" d="M1342.1 1532.4 L1347.96 1532.4 L1347.96 1568.04 L1342.1 1568.04 L1342.1 1532.4 M1342.1 1518.52 L1347.96 1518.52 L1347.96 1525.93 L1342.1 1525.93 L1342.1 1518.52 Z" fill="#000000" fill-rule="nonzero" fill-opacity="1" /><path clip-path="url(#clip380)" d="M1374.02 1536.5 Q1369.31 1536.5 1366.58 1540.19 Q1363.84 1543.85 1363.84 1550.25 Q1363.84 1556.65 1366.55 1560.34 Q1369.28 1564 1374.02 1564 Q1378.7 1564 1381.44 1560.31 Q1384.18 1556.62 1384.18 1550.25 Q1384.18 1543.92 1381.44 1540.23 Q1378.7 1536.5 1374.02 1536.5 M1374.02 1531.54 Q1381.66 1531.54 1386.02 1536.5 Q1390.38 1541.47 1390.38 1550.25 Q1390.38 1559 1386.02 1564 Q1381.66 1568.97 1374.02 1568.97 Q1366.35 1568.97 1361.99 1564 Q1357.66 1559 1357.66 1550.25 Q1357.66 1541.47 1361.99 1536.5 Q1366.35 1531.54 1374.02 1531.54 Z" fill="#000000" fill-rule="nonzero" fill-opacity="1" /><path clip-path="url(#clip380)" d="M1429.72 1546.53 L1429.72 1568.04 L1423.87 1568.04 L1423.87 1546.72 Q1423.87 1541.66 1421.89 1539.14 Q1419.92 1536.63 1415.97 1536.63 Q1411.23 1536.63 1408.5 1539.65 Q1405.76 1542.68 1405.76 1547.9 L1405.76 1568.04 L1399.87 1568.04 L1399.87 1532.4 L1405.76 1532.4 L1405.76 1537.93 Q1407.86 1534.72 1410.69 1533.13 Q1413.56 1531.54 1417.28 1531.54 Q1423.42 1531.54 1426.57 1535.36 Q1429.72 1539.14 1429.72 1546.53 Z" fill="#000000" fill-rule="nonzero" fill-opacity="1" /><polyline clip-path="url(#clip380)" style="stroke:#000000; stroke-linecap:round; stroke-linejoin:round; stroke-width:4; stroke-opacity:1; fill:none" points="242.135,1423.18 242.135,47.2441 "/>
<polyline clip-path="url(#clip380)" style="stroke:#000000; stroke-linecap:round; stroke-linejoin:round; stroke-width:4; stroke-opacity:1; fill:none" points="242.135,1320.39 261.032,1320.39 "/>
<polyline clip-path="url(#clip380)" style="stroke:#000000; stroke-linecap:round; stroke-linejoin:round; stroke-width:4; stroke-opacity:1; fill:none" points="242.135,961.956 261.032,961.956 "/>
<polyline clip-path="url(#clip380)" style="stroke:#000000; stroke-linecap:round; stroke-linejoin:round; stroke-width:4; stroke-opacity:1; fill:none" points="242.135,603.524 261.032,603.524 "/>
<polyline clip-path="url(#clip380)" style="stroke:#000000; stroke-linecap:round; stroke-linejoin:round; stroke-width:4; stroke-opacity:1; fill:none" points="242.135,245.092 261.032,245.092 "/>
<path clip-path="url(#clip380)" d="M114.26 1320.84 L143.936 1320.84 L143.936 1324.78 L114.26 1324.78 L114.26 1320.84 Z" fill="#000000" fill-rule="nonzero" fill-opacity="1" /><path clip-path="url(#clip380)" d="M168.195 1319.03 Q171.552 1319.75 173.427 1322.02 Q175.325 1324.29 175.325 1327.62 Q175.325 1332.74 171.806 1335.54 Q168.288 1338.34 161.806 1338.34 Q159.63 1338.34 157.315 1337.9 Q155.024 1337.48 152.57 1336.63 L152.57 1332.11 Q154.515 1333.25 156.829 1333.83 Q159.144 1334.4 161.667 1334.4 Q166.065 1334.4 168.357 1332.67 Q170.672 1330.93 170.672 1327.62 Q170.672 1324.57 168.519 1322.85 Q166.39 1321.12 162.57 1321.12 L158.542 1321.12 L158.542 1317.28 L162.755 1317.28 Q166.204 1317.28 168.033 1315.91 Q169.862 1314.52 169.862 1311.93 Q169.862 1309.27 167.964 1307.85 Q166.089 1306.42 162.57 1306.42 Q160.649 1306.42 158.45 1306.84 Q156.251 1307.25 153.612 1308.13 L153.612 1303.96 Q156.274 1303.22 158.589 1302.85 Q160.927 1302.48 162.987 1302.48 Q168.311 1302.48 171.413 1304.91 Q174.514 1307.32 174.514 1311.44 Q174.514 1314.31 172.871 1316.3 Q171.227 1318.27 168.195 1319.03 Z" fill="#000000" fill-rule="nonzero" fill-opacity="1" /><path clip-path="url(#clip380)" d="M194.19 1306.19 Q190.579 1306.19 188.75 1309.75 Q186.945 1313.29 186.945 1320.42 Q186.945 1327.53 188.75 1331.09 Q190.579 1334.64 194.19 1334.64 Q197.825 1334.64 199.63 1331.09 Q201.459 1327.53 201.459 1320.42 Q201.459 1313.29 199.63 1309.75 Q197.825 1306.19 194.19 1306.19 M194.19 1302.48 Q200 1302.48 203.056 1307.09 Q206.135 1311.67 206.135 1320.42 Q206.135 1329.15 203.056 1333.76 Q200 1338.34 194.19 1338.34 Q188.38 1338.34 185.301 1333.76 Q182.246 1329.15 182.246 1320.42 Q182.246 1311.67 185.301 1307.09 Q188.38 1302.48 194.19 1302.48 Z" fill="#000000" fill-rule="nonzero" fill-opacity="1" /><path clip-path="url(#clip380)" d="M114.26 962.408 L143.936 962.408 L143.936 966.343 L114.26 966.343 L114.26 962.408 Z" fill="#000000" fill-rule="nonzero" fill-opacity="1" /><path clip-path="url(#clip380)" d="M158.056 975.301 L174.376 975.301 L174.376 979.236 L152.431 979.236 L152.431 975.301 Q155.093 972.547 159.677 967.917 Q164.283 963.264 165.464 961.922 Q167.709 959.398 168.589 957.662 Q169.491 955.903 169.491 954.213 Q169.491 951.459 167.547 949.723 Q165.626 947.987 162.524 947.987 Q160.325 947.987 157.871 948.75 Q155.44 949.514 152.663 951.065 L152.663 946.343 Q155.487 945.209 157.94 944.63 Q160.394 944.051 162.431 944.051 Q167.802 944.051 170.996 946.737 Q174.19 949.422 174.19 953.912 Q174.19 956.042 173.38 957.963 Q172.593 959.861 170.487 962.454 Q169.908 963.125 166.806 966.343 Q163.704 969.537 158.056 975.301 Z" fill="#000000" fill-rule="nonzero" fill-opacity="1" /><path clip-path="url(#clip380)" d="M194.19 947.755 Q190.579 947.755 188.75 951.32 Q186.945 954.861 186.945 961.991 Q186.945 969.098 188.75 972.662 Q190.579 976.204 194.19 976.204 Q197.825 976.204 199.63 972.662 Q201.459 969.098 201.459 961.991 Q201.459 954.861 199.63 951.32 Q197.825 947.755 194.19 947.755 M194.19 944.051 Q200 944.051 203.056 948.658 Q206.135 953.241 206.135 961.991 Q206.135 970.718 203.056 975.324 Q200 979.908 194.19 979.908 Q188.38 979.908 185.301 975.324 Q182.246 970.718 182.246 961.991 Q182.246 953.241 185.301 948.658 Q188.38 944.051 194.19 944.051 Z" fill="#000000" fill-rule="nonzero" fill-opacity="1" /><path clip-path="url(#clip380)" d="M114.26 603.976 L143.936 603.976 L143.936 607.911 L114.26 607.911 L114.26 603.976 Z" fill="#000000" fill-rule="nonzero" fill-opacity="1" /><path clip-path="url(#clip380)" d="M154.839 616.869 L162.477 616.869 L162.477 590.503 L154.167 592.17 L154.167 587.911 L162.431 586.244 L167.107 586.244 L167.107 616.869 L174.746 616.869 L174.746 620.804 L154.839 620.804 L154.839 616.869 Z" fill="#000000" fill-rule="nonzero" fill-opacity="1" /><path clip-path="url(#clip380)" d="M194.19 589.323 Q190.579 589.323 188.75 592.888 Q186.945 596.429 186.945 603.559 Q186.945 610.665 188.75 614.23 Q190.579 617.772 194.19 617.772 Q197.825 617.772 199.63 614.23 Q201.459 610.665 201.459 603.559 Q201.459 596.429 199.63 592.888 Q197.825 589.323 194.19 589.323 M194.19 585.619 Q200 585.619 203.056 590.226 Q206.135 594.809 206.135 603.559 Q206.135 612.286 203.056 616.892 Q200 621.476 194.19 621.476 Q188.38 621.476 185.301 616.892 Q182.246 612.286 182.246 603.559 Q182.246 594.809 185.301 590.226 Q188.38 585.619 194.19 585.619 Z" fill="#000000" fill-rule="nonzero" fill-opacity="1" /><path clip-path="url(#clip380)" d="M194.19 230.891 Q190.579 230.891 188.75 234.456 Q186.945 237.997 186.945 245.127 Q186.945 252.233 188.75 255.798 Q190.579 259.34 194.19 259.34 Q197.825 259.34 199.63 255.798 Q201.459 252.233 201.459 245.127 Q201.459 237.997 199.63 234.456 Q197.825 230.891 194.19 230.891 M194.19 227.187 Q200 227.187 203.056 231.794 Q206.135 236.377 206.135 245.127 Q206.135 253.854 203.056 258.46 Q200 263.043 194.19 263.043 Q188.38 263.043 185.301 258.46 Q182.246 253.854 182.246 245.127 Q182.246 236.377 185.301 231.794 Q188.38 227.187 194.19 227.187 Z" fill="#000000" fill-rule="nonzero" fill-opacity="1" /><path clip-path="url(#clip380)" d="M16.4842 816.375 L16.4842 786.329 L21.895 786.329 L21.895 809.945 L35.9632 809.945 L35.9632 787.315 L41.3741 787.315 L41.3741 809.945 L58.5933 809.945 L58.5933 785.756 L64.0042 785.756 L64.0042 816.375 L16.4842 816.375 Z" fill="#000000" fill-rule="nonzero" fill-opacity="1" /><path clip-path="url(#clip380)" d="M16.4842 775.189 L16.4842 768.759 L58.5933 768.759 L58.5933 745.62 L64.0042 745.62 L64.0042 775.189 L16.4842 775.189 Z" fill="#000000" fill-rule="nonzero" fill-opacity="1" /><path clip-path="url(#clip380)" d="M41.3104 732.443 L58.7206 732.443 L58.7206 722.13 Q58.7206 716.942 56.5881 714.46 Q54.4238 711.945 49.9996 711.945 Q45.5436 711.945 43.4429 714.46 Q41.3104 716.942 41.3104 722.13 L41.3104 732.443 M21.7677 732.443 L36.0905 732.443 L36.0905 722.926 Q36.0905 718.216 34.34 715.924 Q32.5576 713.6 28.9291 713.6 Q25.3325 713.6 23.5501 715.924 Q21.7677 718.216 21.7677 722.926 L21.7677 732.443 M16.4842 738.872 L16.4842 722.449 Q16.4842 715.096 19.5397 711.118 Q22.5952 707.139 28.2289 707.139 Q32.5894 707.139 35.1675 709.176 Q37.7456 711.213 38.3822 715.16 Q39.4007 710.418 42.6472 707.808 Q45.8619 705.166 50.6998 705.166 Q57.0655 705.166 60.5348 709.495 Q64.0042 713.823 64.0042 721.812 L64.0042 738.872 L16.4842 738.872 Z" fill="#000000" fill-rule="nonzero" fill-opacity="1" /><path clip-path="url(#clip380)" d="M20.8447 676.011 Q20.8447 683.013 26.0645 687.151 Q31.2844 691.257 40.2919 691.257 Q49.2675 691.257 54.4874 687.151 Q59.7073 683.013 59.7073 676.011 Q59.7073 669.009 54.4874 664.935 Q49.2675 660.829 40.2919 660.829 Q31.2844 660.829 26.0645 664.935 Q20.8447 669.009 20.8447 676.011 M15.6248 676.011 Q15.6248 666.017 22.3406 660.033 Q29.0246 654.049 40.2919 654.049 Q51.5274 654.049 58.2432 660.033 Q64.9272 666.017 64.9272 676.011 Q64.9272 686.037 58.2432 692.052 Q51.5592 698.036 40.2919 698.036 Q29.0246 698.036 22.3406 692.052 Q15.6248 686.037 15.6248 676.011 Z" fill="#000000" fill-rule="nonzero" fill-opacity="1" /><polyline clip-path="url(#clip382)" style="stroke:#009af9; stroke-linecap:round; stroke-linejoin:round; stroke-width:4; stroke-opacity:1; fill:none" points="301.869,901.999 303.862,1163.59 305.856,857.064 307.849,826.952 309.842,1039.08 311.835,1320.1 313.828,959.325 315.821,1373 317.814,824.312 319.808,1122.3 321.801,1192.07 323.794,1180.92 325.787,985.028 327.78,834.579 329.773,729.007 331.766,1065.85 333.76,1340.21 335.753,549.454 337.746,1010.06 339.739,1138.98 341.732,656.699 343.725,927.443 345.718,908.256 347.712,1214.67 349.705,979.708 351.698,742.376 353.691,687.559 355.684,632.563 357.677,545.373 359.67,891.125 361.664,771.919 363.657,1384.24 365.65,752.534 367.643,1099.58 369.636,876.9 371.629,713.226 373.622,718.278 375.616,1010.92 377.609,962.568 379.602,600.536 381.595,1053.74 383.588,659.094 385.581,966.171 387.574,759.188 389.568,658.408 391.561,921.241 393.554,659.278 395.547,950.056 397.54,1088.56 399.533,402.996 401.526,593.85 403.52,864.995 405.513,953.348 407.506,702.998 409.499,682.652 411.492,399.555 413.485,595.05 415.479,368.123 417.472,716.44 419.465,609.002 421.458,852.823 423.451,618.455 425.444,447.122 427.437,835.258 429.431,870.976 431.424,499.847 433.417,437.565 435.41,525.825 437.403,351.979 439.396,882.568 441.389,431.558 443.383,813.941 445.376,729.79 447.369,479.527 449.362,848.33 451.355,923.444 453.348,427.237 455.341,612.881 457.335,240.386 459.328,728.933 461.321,545.285 463.314,693.797 465.307,501.491 467.3,691.853 469.293,465.794 471.287,567.002 473.28,621.122 475.273,688.7 477.266,417.556 479.259,549.343 481.252,403.93 483.245,392.328 485.239,464.916 487.232,321.247 489.225,723.376 491.218,460.563 493.211,246.926 495.204,596.311 497.197,355.497 499.191,389.45 501.184,271.241 503.177,456.717 505.17,464.178 507.163,469.608 509.156,314.003 511.149,522.129 513.143,305.09 515.136,762.904 517.129,144.197 519.122,906.778 521.115,456.165 523.108,171.45 525.101,720.742 527.095,685.695 529.088,472.817 531.081,329.972 533.074,551.816 535.067,323.518 537.06,318.437 539.054,687.098 541.047,386.803 543.04,297.712 545.033,327.354 547.026,732.003 549.019,593.53 551.012,451.481 553.006,284.45 554.999,292.113 556.992,339.594 558.985,418.545 560.978,304.481 562.971,899.571 564.964,260.477 566.958,358.999 568.951,265.242 570.944,253.256 572.937,382.026 574.93,592.244 576.923,391.287 578.916,618.816 580.91,710.792 582.903,421.809 584.896,229.028 586.889,366.874 588.882,392.536 590.875,250.797 592.868,369.736 594.862,352.042 596.855,407.703 598.848,645.51 600.841,413.171 602.834,563.22 604.827,510.459 606.82,361.945 608.814,260.055 610.807,437.036 612.8,222.059 614.793,274.957 616.786,311.489 618.779,484.249 620.772,514.103 622.766,215.778 624.759,196.909 626.752,604.188 628.745,351.993 630.738,359.817 632.731,316.571 634.724,475.429 636.718,729.994 638.711,476.798 640.704,302.942 642.697,301.731 644.69,386.617 646.683,350.47 648.677,335.362 650.67,316.761 652.663,499.793 654.656,569.652 656.649,188.361 658.642,265.321 660.635,235.945 662.629,471.294 664.622,260.19 666.615,359.272 668.608,480.234 670.601,337.09 672.594,200.149 674.587,289.561 676.581,218.712 678.574,296.15 680.567,211.547 682.56,550.448 684.553,514.666 686.546,268.571 688.539,416.975 690.533,374.318 692.526,318.769 694.519,300.399 696.512,518.886 698.505,490 700.498,383.149 702.491,227.663 704.485,356.439 706.478,154.748 708.471,284.796 710.464,221.284 712.457,614.913 714.45,258.472 716.443,348.062 718.437,250.639 720.43,536.44 722.423,234.037 724.416,279.384 726.409,188.246 728.402,220.619 730.395,178.602 732.389,284.493 734.382,156.244 736.375,557.282 738.368,353.715 740.361,402.573 742.354,342.394 744.347,314.181 746.341,291.78 748.334,350.501 750.327,214.166 752.32,133.481 754.313,260.07 756.306,249.044 758.299,246.711 760.293,325.322 762.286,430.37 764.279,271.692 766.272,267.536 768.265,263.061 770.258,331.071 772.252,454.926 774.245,180.947 776.238,110.87 778.231,194.2 780.224,363.876 782.217,336.451 784.21,387.612 786.204,295.696 788.197,219.358 790.19,389.499 792.183,312.335 794.176,157.727 796.169,183.195 798.162,292.116 800.156,183.537 802.149,259.152 804.142,408.76 806.135,330.173 808.128,396.84 810.121,289.14 812.114,264.395 814.108,186.759 816.101,222.185 818.094,357.074 820.087,246.974 822.08,159.191 824.073,414.069 826.066,558.506 828.06,160.585 830.053,417.7 832.046,395.101 834.039,222.018 836.032,324.721 838.025,146.345 840.018,199.172 842.012,282.162 844.005,564.749 845.998,373.184 847.991,261.609 849.984,360.323 851.977,283.162 853.97,291.473 855.964,145.282 857.957,694.883 859.95,132.763 861.943,239.582 863.936,409.884 865.929,313.778 867.922,278.403 869.916,365.901 871.909,190.743 873.902,555.786 875.895,280.047 877.888,282.476 879.881,225.92 881.874,411.011 883.868,210.604 885.861,198.461 887.854,355.296 889.847,182.203 891.84,450.084 893.833,208.192 895.827,193.909 897.82,154.537 899.813,192.006 901.806,225.486 903.799,173.489 905.792,228.125 907.785,145.239 909.779,248.321 911.772,206.46 913.765,159.807 915.758,354.752 917.751,153.865 919.744,291.356 921.737,220.607 923.731,324.901 925.724,154.964 927.717,226.152 929.71,250.979 931.703,384.071 933.696,328.642 935.689,250.029 937.683,210.931 939.676,236.811 941.669,191.597 943.662,234.571 945.655,245.456 947.648,212.935 949.641,219.905 951.635,328.27 953.628,325.276 955.621,271.904 957.614,417.384 959.607,365.387 961.6,378.524 963.593,418.944 965.587,242.355 967.58,193.506 969.573,226.317 971.566,345.923 973.559,357.714 975.552,211.672 977.545,163.395 979.539,214.861 981.532,301.269 983.525,187.498 985.518,179.395 987.511,189.689 989.504,297.282 991.497,253.042 993.491,188.748 995.484,341.642 997.477,208.211 999.47,146.448 1001.46,187.298 1003.46,187.018 1005.45,233.097 1007.44,289.493 1009.44,310.323 1011.43,122.546 1013.42,233.7 1015.42,232.028 1017.41,404.912 1019.4,325.155 1021.39,176.534 1023.39,131.571 1025.38,224.026 1027.37,296.507 1029.37,232.299 1031.36,230.756 1033.35,176.578 1035.35,152.216 1037.34,234.15 1039.33,223.001 1041.33,173.424 1043.32,205.346 1045.31,239.074 1047.31,395.78 1049.3,160.622 1051.29,289.621 1053.28,304.869 1055.28,141.392 1057.27,140.752 1059.26,271.926 1061.26,341.416 1063.25,111.429 1065.24,232.073 1067.24,322.423 1069.23,203.93 1071.22,143.899 1073.22,307.766 1075.21,183.395 1077.2,302.095 1079.2,204.076 1081.19,193.334 1083.18,353.245 1085.18,221.447 1087.17,250.544 1089.16,247.633 1091.15,160.841 1093.15,189.176 1095.14,338.048 1097.13,304.188 1099.13,230.945 1101.12,184.932 1103.11,207.318 1105.11,195.618 1107.1,394.238 1109.09,218.068 1111.09,165.06 1113.08,175.166 1115.07,321.51 1117.07,314.972 1119.06,152.564 1121.05,266.124 1123.05,448.24 1125.04,93.2342 1127.03,193.023 1129.02,218.148 1131.02,199.544 1133.01,270.322 1135,334.051 1137,158.931 1138.99,636.057 1140.98,240.743 1142.98,196.187 1144.97,195.283 1146.96,280.68 1148.96,183.949 1150.95,310.792 1152.94,209.42 1154.94,314.178 1156.93,315.893 1158.92,245.256 1160.91,217.346 1162.91,212.329 1164.9,331.658 1166.89,383.455 1168.89,284.417 1170.88,424.016 1172.87,280.216 1174.87,321.683 1176.86,411.197 1178.85,311.828 1180.85,171.065 1182.84,213.591 1184.83,307.149 1186.83,226.967 1188.82,187.287 1190.81,291.371 1192.81,261.546 1194.8,166.218 1196.79,238.576 1198.78,302.174 1200.78,276.126 1202.77,261.586 1204.76,320.42 1206.76,168.125 1208.75,152.75 1210.74,365.01 1212.74,241.06 1214.73,226.214 1216.72,190.847 1218.72,184.712 1220.71,174.317 1222.7,278.7 1224.7,340.851 1226.69,305.194 1228.68,223.985 1230.67,156.145 1232.67,138.895 1234.66,282.867 1236.65,183.068 1238.65,343.64 1240.64,277.29 1242.63,238.373 1244.63,215.9 1246.62,189.593 1248.61,286.696 1250.61,433.665 1252.6,331.724 1254.59,131.403 1256.59,165.803 1258.58,204.256 1260.57,232.646 1262.57,247.261 1264.56,399.202 1266.55,138.17 1268.54,461.427 1270.54,141.949 1272.53,262.15 1274.52,276.706 1276.52,143.096 1278.51,278.116 1280.5,181.962 1282.5,251.371 1284.49,314.067 1286.48,292.22 1288.48,264.073 1290.47,285.672 1292.46,251.611 1294.46,224.958 1296.45,226.621 1298.44,144.829 1300.44,198.6 1302.43,213.172 1304.42,268.725 1306.41,266.489 1308.41,279.294 1310.4,225.183 1312.39,213.823 1314.39,172.849 1316.38,203.234 1318.37,290.295 1320.37,187.974 1322.36,151.484 1324.35,175.583 1326.35,184.412 1328.34,252.439 1330.33,155.807 1332.33,239.025 1334.32,155.39 1336.31,385.123 1338.3,221.531 1340.3,154.832 1342.29,248.918 1344.28,441.145 1346.28,263.568 1348.27,196.278 1350.26,170.962 1352.26,239.525 1354.25,192.278 1356.24,330.133 1358.24,373.849 1360.23,229.486 1362.22,249.199 1364.22,279.634 1366.21,227.976 1368.2,201.588 1370.2,241.941 1372.19,217.25 1374.18,234.28 1376.17,234.643 1378.17,196.456 1380.16,121.911 1382.15,289.848 1384.15,139.847 1386.14,133.46 1388.13,223.664 1390.13,113.39 1392.12,263.901 1394.11,264.639 1396.11,127.185 1398.1,227.365 1400.09,174.492 1402.09,196.414 1404.08,137.992 1406.07,266.983 1408.06,324.171 1410.06,194.715 1412.05,180.404 1414.04,176.764 1416.04,114.709 1418.03,372.353 1420.02,201.539 1422.02,136.37 1424.01,177.79 1426,336.425 1428,272.157 1429.99,339.318 1431.98,287.269 1433.98,165.82 1435.97,152.467 1437.96,212.11 1439.96,304.89 1441.95,209.13 1443.94,164.555 1445.93,322.324 1447.93,224.117 1449.92,166.571 1451.91,160.537 1453.91,91.5668 1455.9,252.869 1457.89,179.866 1459.89,211.634 1461.88,203.439 1463.87,237.387 1465.87,269.156 1467.86,448.449 1469.85,168.691 1471.85,420.488 1473.84,238.64 1475.83,285.484 1477.82,150.367 1479.82,171.866 1481.81,405.112 1483.8,180.636 1485.8,239.567 1487.79,165.187 1489.78,353.59 1491.78,168.822 1493.77,185.832 1495.76,228.714 1497.76,206.953 1499.75,292.363 1501.74,365.689 1503.74,403.284 1505.73,212.997 1507.72,272.231 1509.72,122.104 1511.71,256.643 1513.7,217.192 1515.69,172.166 1517.69,215.235 1519.68,334.134 1521.67,176.975 1523.67,162.545 1525.66,229.931 1527.65,185.382 1529.65,262.74 1531.64,236.334 1533.63,268.306 1535.63,405.324 1537.62,182.118 1539.61,86.1857 1541.61,178.232 1543.6,150.257 1545.59,265.995 1547.59,164.8 1549.58,286.986 1551.57,124.377 1553.56,154.685 1555.56,182.235 1557.55,293.579 1559.54,449.465 1561.54,305.132 1563.53,322.113 1565.52,255.709 1567.52,257.953 1569.51,337.88 1571.5,167.246 1573.5,237.537 1575.49,459.397 1577.48,367.32 1579.48,273.328 1581.47,149.579 1583.46,261.075 1585.45,166.965 1587.45,218.657 1589.44,376.238 1591.43,436.415 1593.43,384.118 1595.42,314.657 1597.41,262.217 1599.41,116.716 1601.4,283.276 1603.39,446.217 1605.39,330.491 1607.38,178.93 1609.37,453.608 1611.37,306.163 1613.36,187.834 1615.35,111.985 1617.35,215.84 1619.34,422.146 1621.33,267.733 1623.32,232.022 1625.32,255.305 1627.31,228.657 1629.3,337.308 1631.3,249.342 1633.29,226.553 1635.28,221.295 1637.28,236.641 1639.27,360.537 1641.26,314.919 1643.26,151.179 1645.25,250.651 1647.24,170.611 1649.24,189.411 1651.23,359.596 1653.22,378.342 1655.21,180.328 1657.21,229.935 1659.2,300.007 1661.19,161.839 1663.19,248.757 1665.18,468.464 1667.17,188.363 1669.17,250.766 1671.16,179.914 1673.15,333.103 1675.15,166.915 1677.14,344.891 1679.13,331.488 1681.13,297.121 1683.12,142.322 1685.11,242.279 1687.11,274.738 1689.1,235.459 1691.09,165.378 1693.08,289.282 1695.08,300.514 1697.07,211.812 1699.06,180.876 1701.06,287.697 1703.05,212.021 1705.04,198.259 1707.04,298.136 1709.03,479.655 1711.02,241.925 1713.02,561.323 1715.01,275.008 1717,114.408 1719,164.732 1720.99,153.894 1722.98,397.311 1724.97,266.999 1726.97,461.745 1728.96,332.939 1730.95,186.089 1732.95,343.344 1734.94,242.572 1736.93,379.056 1738.93,267.174 1740.92,264.149 1742.91,373.46 1744.91,247.322 1746.9,264.912 1748.89,276.402 1750.89,242.346 1752.88,187.377 1754.87,243.649 1756.87,361.815 1758.86,215.985 1760.85,455.733 1762.84,223.919 1764.84,144.085 1766.83,242.118 1768.82,145.482 1770.82,187.831 1772.81,411.059 1774.8,274.425 1776.8,195.59 1778.79,332.822 1780.78,185.082 1782.78,192.827 1784.77,170.634 1786.76,195.827 1788.76,277.586 1790.75,155.847 1792.74,197.537 1794.74,311.517 1796.73,247.675 1798.72,333.621 1800.71,341.093 1802.71,220.256 1804.7,222.465 1806.69,203.643 1808.69,285.782 1810.68,172.586 1812.67,294.443 1814.67,211.117 1816.66,285.152 1818.65,185.358 1820.65,372.236 1822.64,300.524 1824.63,327.677 1826.63,281.672 1828.62,158.944 1830.61,291.119 1832.6,463.26 1834.6,268.398 1836.59,206.08 1838.58,210.362 1840.58,373.262 1842.57,258.062 1844.56,307.531 1846.56,220.108 1848.55,210.759 1850.54,234.567 1852.54,266.796 1854.53,192.33 1856.52,216.871 1858.52,198.074 1860.51,282.955 1862.5,198.835 1864.5,389.88 1866.49,182.642 1868.48,260.951 1870.47,258.392 1872.47,201.273 1874.46,246.519 1876.45,364.815 1878.45,324.617 1880.44,213.793 1882.43,251.361 1884.43,335.51 1886.42,346.279 1888.41,275.765 1890.41,165.861 1892.4,396.22 1894.39,233.271 1896.39,268.118 1898.38,211.017 1900.37,242.77 1902.36,222.388 1904.36,188.001 1906.35,214.515 1908.34,150.063 1910.34,413.29 1912.33,267.181 1914.32,184.088 1916.32,204.32 1918.31,389.642 1920.3,263.096 1922.3,204.91 1924.29,312.885 1926.28,133.674 1928.28,293.249 1930.27,271.438 1932.26,308.088 1934.26,227.298 1936.25,257.331 1938.24,305.508 1940.23,253.68 1942.23,208.477 1944.22,180.33 1946.21,207.631 1948.21,257.003 1950.2,211.824 1952.19,542.425 1954.19,207.012 1956.18,158.287 1958.17,228.715 1960.17,227.875 1962.16,377.337 1964.15,186.23 1966.15,242.156 1968.14,216.489 1970.13,356.679 1972.12,335.116 1974.12,235.319 1976.11,218.927 1978.1,259.633 1980.1,154.278 1982.09,237.409 1984.08,172.647 1986.08,208.092 1988.07,224.477 1990.06,175.583 1992.06,394.303 1994.05,181.565 1996.04,301.641 1998.04,267.188 2000.03,339.595 2002.02,334.214 2004.02,328.377 2006.01,198.687 2008,240.961 2009.99,223.03 2011.99,182.03 2013.98,204.34 2015.97,232.48 2017.97,271.892 2019.96,375.493 2021.95,166.275 2023.95,233.617 2025.94,229.432 2027.93,247.941 2029.93,234.036 2031.92,188.159 2033.91,171.157 2035.91,210.671 2037.9,273.497 2039.89,178.665 2041.89,277.26 2043.88,365.099 2045.87,346.027 2047.86,186.717 2049.86,287.84 2051.85,219.427 2053.84,210.725 2055.84,142.291 2057.83,212.903 2059.82,291.801 2061.82,149.878 2063.81,177.185 2065.8,164.134 2067.8,144.574 2069.79,292.212 2071.78,127.387 2073.78,351.059 2075.77,192.135 2077.76,315.09 2079.75,210.187 2081.75,204.728 2083.74,502.957 2085.73,133.298 2087.73,200.697 2089.72,168.521 2091.71,324.421 2093.71,414.468 2095.7,166.128 2097.69,366.174 2099.69,205.33 2101.68,428.272 2103.67,197.11 2105.67,236.764 2107.66,194.385 2109.65,190.873 2111.65,244.215 2113.64,334.188 2115.63,295.83 2117.62,233.322 2119.62,247.905 2121.61,314.32 2123.6,159.814 2125.6,281.201 2127.59,457.923 2129.58,284.516 2131.58,198.091 2133.57,145.27 2135.56,261.422 2137.56,206.059 2139.55,208.344 2141.54,282.749 2143.54,248.464 2145.53,262.029 2147.52,247.462 2149.51,375.928 2151.51,238.36 2153.5,432.872 2155.49,214.486 2157.49,285.507 2159.48,249.989 2161.47,157.842 2163.47,379.731 2165.46,283.641 2167.45,195.104 2169.45,209.693 2171.44,163.695 2173.43,255.941 2175.43,321.011 2177.42,235.313 2179.41,301.198 2181.41,224.005 2183.4,265.24 2185.39,176.422 2187.38,250.137 2189.38,200.333 2191.37,229.229 2193.36,139.267 2195.36,255.302 2197.35,344.018 2199.34,303.106 2201.34,255.923 2203.33,141.093 2205.32,146.431 2207.32,192.466 2209.31,225.049 2211.3,307.837 2213.3,194.932 2215.29,235.655 2217.28,292.616 2219.27,328.649 2221.27,193.322 2223.26,366.578 2225.25,253.646 2227.25,456.168 2229.24,263.29 2231.23,169.412 2233.23,192.955 2235.22,165.229 2237.21,249.707 2239.21,242.735 2241.2,309.321 2243.19,193.378 2245.19,171.409 2247.18,357.601 2249.17,258.714 2251.17,275.916 2253.16,261.551 2255.15,153.438 2257.14,161.633 2259.14,269.82 2261.13,248.982 2263.12,329.622 2265.12,408.42 2267.11,294.79 2269.1,263.765 2271.1,242.788 2273.09,269.965 2275.08,148.626 2277.08,237.958 2279.07,163.22 2281.06,241.933 2283.06,187.674 2285.05,291.323 2287.04,258.937 2289.04,286.482 2291.03,181.609 2293.02,220.985 "/>
<polyline clip-path="url(#clip382)" style="stroke:#e26f46; stroke-linecap:round; stroke-linejoin:round; stroke-width:4; stroke-opacity:1; fill:none" points="301.869,966.599 303.862,960.792 305.856,952.347 307.849,938.479 309.842,953.641 311.835,933.467 313.828,915.113 315.821,918.48 317.814,902.534 319.808,918.663 321.801,870.799 323.794,898.2 325.787,874.035 327.78,875.735 329.773,849.281 331.766,863.382 333.76,842.303 335.753,844.586 337.746,840.703 339.739,836.867 341.732,831.033 343.725,806.121 345.718,820.357 347.712,832.776 349.705,818.673 351.698,802.576 353.691,775.443 355.684,765.939 357.677,773.566 359.67,761.446 361.664,763.653 363.657,787.164 365.65,736.81 367.643,739.028 369.636,715.162 371.629,752.736 373.622,716.326 375.616,718.262 377.609,707.63 379.602,701.53 381.595,701.185 383.588,710.495 385.581,702.097 387.574,686.449 389.568,718.439 391.561,667.298 393.554,707.926 395.547,664.59 397.54,662.997 399.533,660.044 401.526,655.651 403.52,668.314 405.513,648.361 407.506,652.382 409.499,637.074 411.492,639.12 413.485,635.423 415.479,620.277 417.472,616.795 419.465,654.308 421.458,593.521 423.451,586.834 425.444,634.152 427.437,602.314 429.431,590.178 431.424,590.053 433.417,577.694 435.41,584.934 437.403,569.469 439.396,564.763 441.389,543.858 443.383,581.852 445.376,566.757 447.369,563 449.362,557.132 451.355,557.53 453.348,554.099 455.341,571.835 457.335,528.386 459.328,517.11 461.321,531.799 463.314,522.715 465.307,520.099 467.3,523.489 469.293,513.922 471.287,505.134 473.28,499.039 475.273,504.929 477.266,499.823 479.259,487.412 481.252,487.906 483.245,488.703 485.239,487.748 487.232,467.908 489.225,473.545 491.218,462.988 493.211,471.108 495.204,480.852 497.197,478.034 499.191,470.921 501.184,477.195 503.177,453.889 505.17,459.688 507.163,442.693 509.156,460.853 511.149,434.558 513.143,455.241 515.136,426.816 517.129,429.328 519.122,424.289 521.115,430.27 523.108,419.931 525.101,435.239 527.095,415.926 529.088,442.189 531.081,427.541 533.074,409.852 535.067,433.835 537.06,418.362 539.054,419.988 541.047,409.858 543.04,398.705 545.033,403.39 547.026,409.72 549.019,407.066 551.012,407.422 553.006,389.17 554.999,382.879 556.992,405.627 558.985,380.238 560.978,383.352 562.971,378.311 564.964,394.31 566.958,378.567 568.951,369.285 570.944,375.835 572.937,368.603 574.93,370.882 576.923,372.08 578.916,360.512 580.91,346.138 582.903,396.659 584.896,361.203 586.889,347.822 588.882,352.334 590.875,356.26 592.868,361.8 594.862,339.615 596.855,343.266 598.848,350.579 600.841,348.468 602.834,342.917 604.827,333.56 606.82,342.585 608.814,361.006 610.807,343.119 612.8,346.232 614.793,345.435 616.786,336.507 618.779,323.267 620.772,325.899 622.766,331.835 624.759,328.517 626.752,329.646 628.745,320.526 630.738,320.883 632.731,334.436 634.724,327.454 636.718,316.023 638.711,317.597 640.704,323.431 642.697,303.142 644.69,326.252 646.683,309.166 648.677,315.145 650.67,332.15 652.663,317.472 654.656,306.059 656.649,315.521 658.642,320.92 660.635,304.434 662.629,310.366 664.622,309.661 666.615,303.764 668.608,298.868 670.601,312.073 672.594,302.581 674.587,294.361 676.581,298.493 678.574,290.145 680.567,331.885 682.56,296.413 684.553,309.035 686.546,290.884 688.539,298.828 690.533,289.001 692.526,292.01 694.519,302.247 696.512,275.788 698.505,284.562 700.498,289.346 702.491,285.212 704.485,284.3 706.478,293.216 708.471,297.799 710.464,282.58 712.457,287.545 714.45,287.94 716.443,283.019 718.437,274.764 720.43,297.529 722.423,276.66 724.416,277.853 726.409,272.556 728.402,280.621 730.395,278.949 732.389,290.472 734.382,290.553 736.375,260.811 738.368,282.844 740.361,276.039 742.354,266.482 744.347,281.94 746.341,266.627 748.334,302.39 750.327,273.779 752.32,262.783 754.313,280.521 756.306,273.257 758.299,260.375 760.293,265.243 762.286,266.6 764.279,260.48 766.272,259.744 768.265,266.305 770.258,259.805 772.252,254.712 774.245,271.382 776.238,259.843 778.231,283.775 780.224,260.763 782.217,256.536 784.21,261.971 786.204,274.921 788.197,262.025 790.19,263.272 792.183,275.221 794.176,279.99 796.169,270.876 798.162,277.138 800.156,267.347 802.149,259.88 804.142,258.317 806.135,276.82 808.128,260.023 810.121,265.167 812.114,270.633 814.108,281.307 816.101,255.268 818.094,256.961 820.087,248.536 822.08,269.743 824.073,255.474 826.066,284.275 828.06,265.059 830.053,257.251 832.046,252.877 834.039,252.992 836.032,251.696 838.025,263.838 840.018,250.807 842.012,255.105 844.005,257.329 845.998,264.755 847.991,255.442 849.984,250.312 851.977,254.975 853.97,267.142 855.964,257.973 857.957,252.735 859.95,247.534 861.943,263.803 863.936,259.447 865.929,250.642 867.922,236.598 869.916,236.289 871.909,257.399 873.902,246.676 875.895,234.291 877.888,249.956 879.881,270.532 881.874,270.979 883.868,257.701 885.861,260.152 887.854,255.443 889.847,251.563 891.84,274.25 893.833,261.851 895.827,251.48 897.82,239.14 899.813,243.96 901.806,249.317 903.799,259.025 905.792,252.634 907.785,241.435 909.779,256.792 911.772,248.772 913.765,245.703 915.758,233.578 917.751,269.25 919.744,243.497 921.737,258.882 923.731,247.904 925.724,252.666 927.717,248.948 929.71,250.986 931.703,256.213 933.696,240.775 935.689,253.945 937.683,245.432 939.676,251.696 941.669,244.908 943.662,268.833 945.655,237.954 947.648,247.369 949.641,244.395 951.635,236.689 953.628,237.271 955.621,243.851 957.614,259.376 959.607,263.607 961.6,247.703 963.593,264.834 965.587,244.983 967.58,240.528 969.573,239.177 971.566,255.187 973.559,239.551 975.552,243.999 977.545,239.032 979.539,240.998 981.532,241.66 983.525,246.709 985.518,249.862 987.511,255.901 989.504,239.05 991.497,236.208 993.491,250.393 995.484,244.335 997.477,250.94 999.47,238.354 1001.46,257.833 1003.46,273.764 1005.45,253.527 1007.44,245.556 1009.44,248.713 1011.43,248.119 1013.42,248.787 1015.42,250.319 1017.41,247.739 1019.4,244.461 1021.39,254.419 1023.39,239.656 1025.38,238.451 1027.37,261.569 1029.37,249.938 1031.36,237.43 1033.35,236.993 1035.35,271.171 1037.34,240.825 1039.33,245.256 1041.33,243.636 1043.32,246.205 1045.31,234.858 1047.31,254.073 1049.3,254.379 1051.29,244.929 1053.28,251.751 1055.28,244.207 1057.27,252.152 1059.26,239.648 1061.26,240.187 1063.25,249.208 1065.24,237.639 1067.24,247.472 1069.23,257.791 1071.22,255.291 1073.22,260.963 1075.21,248.491 1077.2,239.092 1079.2,251.591 1081.19,254.979 1083.18,256.2 1085.18,243.622 1087.17,239.89 1089.16,249.799 1091.15,236.989 1093.15,248.618 1095.14,234.246 1097.13,247.262 1099.13,239.38 1101.12,235.162 1103.11,251.408 1105.11,242.283 1107.1,254.082 1109.09,244.275 1111.09,238.616 1113.08,242.475 1115.07,251.544 1117.07,242.897 1119.06,234.505 1121.05,242.143 1123.05,268.916 1125.04,238.958 1127.03,236.716 1129.02,268.618 1131.02,237.715 1133.01,239.802 1135,255.531 1137,261.173 1138.99,237.822 1140.98,249.707 1142.98,252.364 1144.97,249.928 1146.96,235.251 1148.96,241.474 1150.95,254.879 1152.94,249.987 1154.94,233.774 1156.93,250.975 1158.92,242.114 1160.91,252.042 1162.91,228.348 1164.9,244.126 1166.89,249.539 1168.89,243.946 1170.88,248.95 1172.87,245.221 1174.87,241.481 1176.86,256.79 1178.85,239.008 1180.85,262.394 1182.84,257.278 1184.83,249.061 1186.83,259.529 1188.82,263.017 1190.81,235.019 1192.81,233.989 1194.8,235.467 1196.79,237.595 1198.78,257.78 1200.78,260.612 1202.77,253.59 1204.76,241.507 1206.76,241.216 1208.75,249.268 1210.74,254.091 1212.74,239.771 1214.73,252.582 1216.72,238.164 1218.72,230.526 1220.71,250.004 1222.7,251.83 1224.7,236.647 1226.69,240.494 1228.68,244.169 1230.67,236.676 1232.67,249.528 1234.66,245.335 1236.65,265.556 1238.65,238.6 1240.64,256.46 1242.63,237.314 1244.63,235.538 1246.62,247.585 1248.61,246.831 1250.61,229.174 1252.6,240.823 1254.59,236.149 1256.59,236.479 1258.58,256.323 1260.57,244.297 1262.57,252.909 1264.56,258.055 1266.55,230.935 1268.54,247.962 1270.54,235.941 1272.53,235.147 1274.52,264.522 1276.52,253.481 1278.51,233.049 1280.5,242.82 1282.5,242.349 1284.49,238.165 1286.48,234.696 1288.48,268.56 1290.47,240.168 1292.46,252.465 1294.46,251.527 1296.45,257.092 1298.44,238.371 1300.44,234.036 1302.43,258.832 1304.42,239.035 1306.41,258.202 1308.41,238.814 1310.4,244.569 1312.39,253.057 1314.39,235.804 1316.38,243.143 1318.37,239.959 1320.37,234.148 1322.36,242.034 1324.35,253.714 1326.35,246.382 1328.34,236.083 1330.33,254.348 1332.33,241.603 1334.32,250.522 1336.31,253.653 1338.3,236.376 1340.3,235.927 1342.29,249.529 1344.28,245.82 1346.28,244.91 1348.27,248.893 1350.26,240.706 1352.26,249.759 1354.25,245.724 1356.24,240.262 1358.24,233.151 1360.23,242.627 1362.22,237.279 1364.22,233.396 1366.21,240.214 1368.2,244.566 1370.2,232.777 1372.19,225.194 1374.18,226.544 1376.17,239.597 1378.17,261.46 1380.16,231.769 1382.15,243.871 1384.15,232.917 1386.14,249.878 1388.13,249.111 1390.13,237.019 1392.12,235.827 1394.11,251.165 1396.11,239.543 1398.1,260.729 1400.09,231.842 1402.09,239.218 1404.08,229.536 1406.07,251.333 1408.06,251.687 1410.06,232.615 1412.05,233.4 1414.04,228.842 1416.04,243.775 1418.03,245.799 1420.02,233.842 1422.02,245.262 1424.01,246.862 1426,245.824 1428,246.151 1429.99,235.304 1431.98,236.426 1433.98,236.265 1435.97,232.239 1437.96,244.892 1439.96,248.842 1441.95,232.954 1443.94,238.745 1445.93,257.043 1447.93,264.311 1449.92,247.593 1451.91,242.54 1453.91,237.333 1455.9,261.041 1457.89,235.178 1459.89,236.819 1461.88,249.702 1463.87,268.234 1465.87,252.707 1467.86,244.003 1469.85,241.841 1471.85,255.435 1473.84,243.407 1475.83,247.12 1477.82,254.443 1479.82,251.711 1481.81,240.917 1483.8,246.657 1485.8,241.175 1487.79,246.846 1489.78,250.765 1491.78,260.723 1493.77,240.438 1495.76,248.075 1497.76,232.137 1499.75,237.703 1501.74,240.755 1503.74,260.566 1505.73,236.387 1507.72,237.462 1509.72,230.027 1511.71,244.286 1513.7,253.51 1515.69,230.15 1517.69,249.331 1519.68,247.402 1521.67,229.269 1523.67,237.742 1525.66,238.398 1527.65,234.649 1529.65,241.401 1531.64,253.899 1533.63,246.893 1535.63,240.87 1537.62,235.664 1539.61,242.8 1541.61,239.645 1543.6,261.728 1545.59,240.007 1547.59,232.323 1549.58,250.242 1551.57,247.946 1553.56,259.031 1555.56,225.124 1557.55,235.392 1559.54,261.133 1561.54,238.657 1563.53,242.847 1565.52,265.398 1567.52,251.991 1569.51,255.202 1571.5,245.308 1573.5,239.846 1575.49,236.58 1577.48,238.102 1579.48,268.318 1581.47,240.998 1583.46,255.855 1585.45,248.403 1587.45,253.139 1589.44,236.549 1591.43,247.9 1593.43,239.806 1595.42,243.622 1597.41,250.698 1599.41,246.789 1601.4,238.799 1603.39,242.234 1605.39,249.476 1607.38,235.163 1609.37,245.003 1611.37,244.34 1613.36,259.323 1615.35,245.96 1617.35,227.836 1619.34,252.917 1621.33,241.192 1623.32,251.55 1625.32,274.624 1627.31,253.505 1629.3,242.941 1631.3,231.109 1633.29,231.293 1635.28,234.571 1637.28,252.577 1639.27,240.005 1641.26,235.827 1643.26,233.058 1645.25,242.344 1647.24,244.684 1649.24,260.073 1651.23,267.765 1653.22,238.523 1655.21,248.233 1657.21,243.732 1659.2,229.974 1661.19,241.717 1663.19,266.222 1665.18,234.675 1667.17,253.119 1669.17,248.451 1671.16,241.233 1673.15,239.712 1675.15,265.696 1677.14,247.679 1679.13,231.53 1681.13,245.688 1683.12,240.416 1685.11,262.584 1687.11,259.81 1689.1,246.933 1691.09,240.061 1693.08,245.032 1695.08,244.082 1697.07,239.191 1699.06,244.128 1701.06,248.439 1703.05,227.428 1705.04,237.334 1707.04,245.85 1709.03,249.182 1711.02,249.509 1713.02,242.526 1715.01,242.315 1717,246.047 1719,244.119 1720.99,236.487 1722.98,260.867 1724.97,245.489 1726.97,237.856 1728.96,249.368 1730.95,241.355 1732.95,254.009 1734.94,251.544 1736.93,250.355 1738.93,232.451 1740.92,251.881 1742.91,241.275 1744.91,247.241 1746.9,236.14 1748.89,236.225 1750.89,242.311 1752.88,239.453 1754.87,259.24 1756.87,243.587 1758.86,247.411 1760.85,237.965 1762.84,245.44 1764.84,239.011 1766.83,241.973 1768.82,232.249 1770.82,238.123 1772.81,246.866 1774.8,244.265 1776.8,236.413 1778.79,244.632 1780.78,263.493 1782.78,253.05 1784.77,249.045 1786.76,240.757 1788.76,247.556 1790.75,253.353 1792.74,246.363 1794.74,243.953 1796.73,246.035 1798.72,239.457 1800.71,245.957 1802.71,254.685 1804.7,249.902 1806.69,275.846 1808.69,239.683 1810.68,246.949 1812.67,262.607 1814.67,231.644 1816.66,243.637 1818.65,248.676 1820.65,259.26 1822.64,251.981 1824.63,254.289 1826.63,247.706 1828.62,235.965 1830.61,243.76 1832.6,239.617 1834.6,234.17 1836.59,232.048 1838.58,232.056 1840.58,260.275 1842.57,244.364 1844.56,247.587 1846.56,240.809 1848.55,247.93 1850.54,245.274 1852.54,245.106 1854.53,269.022 1856.52,239.525 1858.52,242.081 1860.51,234.599 1862.5,248.544 1864.5,233.91 1866.49,243.753 1868.48,250.158 1870.47,253.561 1872.47,251.68 1874.46,251.321 1876.45,257.737 1878.45,224.327 1880.44,223.983 1882.43,257.591 1884.43,227.89 1886.42,247.196 1888.41,228.998 1890.41,234.854 1892.4,269.997 1894.39,244.879 1896.39,240.538 1898.38,240.598 1900.37,236.031 1902.36,239.133 1904.36,237.446 1906.35,251.943 1908.34,237.41 1910.34,249.442 1912.33,253.565 1914.32,250.636 1916.32,257.811 1918.31,262.944 1920.3,242.611 1922.3,239.987 1924.29,238.168 1926.28,242.678 1928.28,245.392 1930.27,256.283 1932.26,252.391 1934.26,237.274 1936.25,243.837 1938.24,243.454 1940.23,237.812 1942.23,247.927 1944.22,250.58 1946.21,234.403 1948.21,237.595 1950.2,248.837 1952.19,253.38 1954.19,230.434 1956.18,247.277 1958.17,244.544 1960.17,256.048 1962.16,239.845 1964.15,231.705 1966.15,230.287 1968.14,244.055 1970.13,254.418 1972.12,229.226 1974.12,245.294 1976.11,243.849 1978.1,242.955 1980.1,249.853 1982.09,252.533 1984.08,260.435 1986.08,260.561 1988.07,262.879 1990.06,251.67 1992.06,224.742 1994.05,247.402 1996.04,241.703 1998.04,252.406 2000.03,247.864 2002.02,246.95 2004.02,260.375 2006.01,237.742 2008,258.513 2009.99,244.376 2011.99,247.558 2013.98,237.975 2015.97,251.161 2017.97,244.652 2019.96,262.485 2021.95,241.091 2023.95,236.008 2025.94,250.953 2027.93,237.61 2029.93,265.022 2031.92,228.012 2033.91,243.188 2035.91,247.129 2037.9,251.387 2039.89,256.292 2041.89,269.994 2043.88,248.112 2045.87,254.267 2047.86,238.057 2049.86,242.943 2051.85,254.471 2053.84,251.244 2055.84,242.274 2057.83,236.594 2059.82,256.584 2061.82,230.646 2063.81,240.394 2065.8,245.625 2067.8,227 2069.79,241.887 2071.78,248.7 2073.78,258.914 2075.77,243.107 2077.76,251.889 2079.75,247.276 2081.75,243.36 2083.74,237.389 2085.73,242.456 2087.73,237.695 2089.72,242.455 2091.71,236.398 2093.71,270.049 2095.7,242.579 2097.69,254.356 2099.69,238.539 2101.68,238.14 2103.67,239.757 2105.67,255.5 2107.66,265.648 2109.65,234.382 2111.65,239.367 2113.64,251.86 2115.63,243.655 2117.62,269.557 2119.62,233.997 2121.61,246.559 2123.6,245.752 2125.6,253.971 2127.59,243.869 2129.58,239.332 2131.58,254.28 2133.57,243.985 2135.56,238.128 2137.56,262.184 2139.55,241.242 2141.54,235.725 2143.54,250.987 2145.53,248.324 2147.52,257.925 2149.51,244.475 2151.51,246.553 2153.5,255.065 2155.49,246.791 2157.49,257.649 2159.48,242.794 2161.47,251.347 2163.47,251.76 2165.46,240.305 2167.45,241.893 2169.45,241.05 2171.44,250.054 2173.43,235.518 2175.43,240.25 2177.42,240.379 2179.41,244.596 2181.41,245.245 2183.4,239.229 2185.39,245.872 2187.38,255.788 2189.38,244.941 2191.37,254.899 2193.36,246.139 2195.36,249.096 2197.35,252.903 2199.34,243.551 2201.34,248.542 2203.33,260.855 2205.32,237.236 2207.32,240.671 2209.31,232.319 2211.3,234.108 2213.3,250.273 2215.29,245.797 2217.28,246.847 2219.27,244.589 2221.27,238.945 2223.26,260.062 2225.25,245.269 2227.25,253.509 2229.24,248.972 2231.23,245.539 2233.23,231.99 2235.22,242.442 2237.21,247.908 2239.21,256.847 2241.2,243.472 2243.19,248.214 2245.19,245.973 2247.18,235.947 2249.17,248.1 2251.17,240.426 2253.16,244.574 2255.15,250.858 2257.14,239.332 2259.14,239.574 2261.13,238.204 2263.12,238.705 2265.12,243.918 2267.11,233.483 2269.1,244.583 2271.1,242.736 2273.09,248.006 2275.08,253.66 2277.08,233.261 2279.07,236.46 2281.06,239.658 2283.06,243.586 2285.05,235.857 2287.04,256.285 2289.04,250.246 2291.03,240.812 2293.02,243.377 "/>
<path clip-path="url(#clip380)" d="M1736.78 1377.32 L2282.4 1377.32 L2282.4 1221.8 L1736.78 1221.8  Z" fill="#ffffff" fill-rule="evenodd" fill-opacity="1"/>
<polyline clip-path="url(#clip380)" style="stroke:#000000; stroke-linecap:round; stroke-linejoin:round; stroke-width:4; stroke-opacity:1; fill:none" points="1736.78,1377.32 2282.4,1377.32 2282.4,1221.8 1736.78,1221.8 1736.78,1377.32 "/>
<polyline clip-path="url(#clip380)" style="stroke:#009af9; stroke-linecap:round; stroke-linejoin:round; stroke-width:4; stroke-opacity:1; fill:none" points="1760.23,1273.64 1900.94,1273.64 "/>
<path clip-path="url(#clip380)" d="M1929.07 1274.41 L1929.07 1287.07 L1936.57 1287.07 Q1940.34 1287.07 1942.15 1285.52 Q1943.98 1283.95 1943.98 1280.73 Q1943.98 1277.49 1942.15 1275.96 Q1940.34 1274.41 1936.57 1274.41 L1929.07 1274.41 M1929.07 1260.2 L1929.07 1270.61 L1935.99 1270.61 Q1939.42 1270.61 1941.08 1269.34 Q1942.77 1268.05 1942.77 1265.41 Q1942.77 1262.79 1941.08 1261.49 Q1939.42 1260.2 1935.99 1260.2 L1929.07 1260.2 M1924.39 1256.36 L1936.34 1256.36 Q1941.68 1256.36 1944.58 1258.58 Q1947.47 1260.8 1947.47 1264.9 Q1947.47 1268.07 1945.99 1269.94 Q1944.51 1271.82 1941.64 1272.28 Q1945.09 1273.02 1946.98 1275.38 Q1948.91 1277.72 1948.91 1281.24 Q1948.91 1285.87 1945.76 1288.39 Q1942.61 1290.92 1936.8 1290.92 L1924.39 1290.92 L1924.39 1256.36 Z" fill="#000000" fill-rule="nonzero" fill-opacity="1" /><path clip-path="url(#clip380)" d="M1961.59 1274.41 L1961.59 1287.07 L1969.09 1287.07 Q1972.86 1287.07 1974.67 1285.52 Q1976.5 1283.95 1976.5 1280.73 Q1976.5 1277.49 1974.67 1275.96 Q1972.86 1274.41 1969.09 1274.41 L1961.59 1274.41 M1961.59 1260.2 L1961.59 1270.61 L1968.51 1270.61 Q1971.94 1270.61 1973.6 1269.34 Q1975.29 1268.05 1975.29 1265.41 Q1975.29 1262.79 1973.6 1261.49 Q1971.94 1260.2 1968.51 1260.2 L1961.59 1260.2 M1956.92 1256.36 L1968.86 1256.36 Q1974.21 1256.36 1977.1 1258.58 Q1979.99 1260.8 1979.99 1264.9 Q1979.99 1268.07 1978.51 1269.94 Q1977.03 1271.82 1974.16 1272.28 Q1977.61 1273.02 1979.51 1275.38 Q1981.43 1277.72 1981.43 1281.24 Q1981.43 1285.87 1978.28 1288.39 Q1975.13 1290.92 1969.32 1290.92 L1956.92 1290.92 L1956.92 1256.36 Z" fill="#000000" fill-rule="nonzero" fill-opacity="1" /><path clip-path="url(#clip380)" d="M1996.89 1290.92 L1983.7 1256.36 L1988.58 1256.36 L1999.53 1285.45 L2010.5 1256.36 L2015.36 1256.36 L2002.19 1290.92 L1996.89 1290.92 Z" fill="#000000" fill-rule="nonzero" fill-opacity="1" /><path clip-path="url(#clip380)" d="M2020.41 1256.36 L2025.09 1256.36 L2025.09 1290.92 L2020.41 1290.92 L2020.41 1256.36 Z" fill="#000000" fill-rule="nonzero" fill-opacity="1" /><path clip-path="url(#clip380)" d="M2075.34 1259.02 L2075.34 1263.95 Q2072.98 1261.75 2070.29 1260.66 Q2067.63 1259.57 2064.62 1259.57 Q2058.7 1259.57 2055.55 1263.21 Q2052.4 1266.82 2052.4 1273.67 Q2052.4 1280.5 2055.55 1284.13 Q2058.7 1287.74 2064.62 1287.74 Q2067.63 1287.74 2070.29 1286.66 Q2072.98 1285.57 2075.34 1283.37 L2075.34 1288.25 Q2072.89 1289.92 2070.13 1290.75 Q2067.4 1291.59 2064.35 1291.59 Q2056.5 1291.59 2051.98 1286.79 Q2047.47 1281.98 2047.47 1273.67 Q2047.47 1265.34 2051.98 1260.55 Q2056.5 1255.73 2064.35 1255.73 Q2067.45 1255.73 2070.18 1256.56 Q2072.93 1257.37 2075.34 1259.02 Z" fill="#000000" fill-rule="nonzero" fill-opacity="1" /><path clip-path="url(#clip380)" d="M2082.56 1256.36 L2102.42 1256.36 L2102.42 1260.29 L2087.24 1260.29 L2087.24 1270.48 L2100.94 1270.48 L2100.94 1274.41 L2087.24 1274.41 L2087.24 1290.92 L2082.56 1290.92 L2082.56 1256.36 Z" fill="#000000" fill-rule="nonzero" fill-opacity="1" /><path clip-path="url(#clip380)" d="M2109.83 1256.36 L2131.68 1256.36 L2131.68 1260.29 L2114.51 1260.29 L2114.51 1270.52 L2130.97 1270.52 L2130.97 1274.46 L2114.51 1274.46 L2114.51 1286.98 L2132.1 1286.98 L2132.1 1290.92 L2109.83 1290.92 L2109.83 1256.36 Z" fill="#000000" fill-rule="nonzero" fill-opacity="1" /><polyline clip-path="url(#clip380)" style="stroke:#e26f46; stroke-linecap:round; stroke-linejoin:round; stroke-width:4; stroke-opacity:1; fill:none" points="1760.23,1325.48 1900.94,1325.48 "/>
<path clip-path="url(#clip380)" d="M1929.07 1326.25 L1929.07 1338.91 L1936.57 1338.91 Q1940.34 1338.91 1942.15 1337.36 Q1943.98 1335.79 1943.98 1332.57 Q1943.98 1329.33 1942.15 1327.8 Q1940.34 1326.25 1936.57 1326.25 L1929.07 1326.25 M1929.07 1312.04 L1929.07 1322.45 L1935.99 1322.45 Q1939.42 1322.45 1941.08 1321.18 Q1942.77 1319.89 1942.77 1317.25 Q1942.77 1314.63 1941.08 1313.33 Q1939.42 1312.04 1935.99 1312.04 L1929.07 1312.04 M1924.39 1308.2 L1936.34 1308.2 Q1941.68 1308.2 1944.58 1310.42 Q1947.47 1312.64 1947.47 1316.74 Q1947.47 1319.91 1945.99 1321.78 Q1944.51 1323.66 1941.64 1324.12 Q1945.09 1324.86 1946.98 1327.22 Q1948.91 1329.56 1948.91 1333.08 Q1948.91 1337.71 1945.76 1340.23 Q1942.61 1342.76 1936.8 1342.76 L1924.39 1342.76 L1924.39 1308.2 Z" fill="#000000" fill-rule="nonzero" fill-opacity="1" /><path clip-path="url(#clip380)" d="M1961.59 1326.25 L1961.59 1338.91 L1969.09 1338.91 Q1972.86 1338.91 1974.67 1337.36 Q1976.5 1335.79 1976.5 1332.57 Q1976.5 1329.33 1974.67 1327.8 Q1972.86 1326.25 1969.09 1326.25 L1961.59 1326.25 M1961.59 1312.04 L1961.59 1322.45 L1968.51 1322.45 Q1971.94 1322.45 1973.6 1321.18 Q1975.29 1319.89 1975.29 1317.25 Q1975.29 1314.63 1973.6 1313.33 Q1971.94 1312.04 1968.51 1312.04 L1961.59 1312.04 M1956.92 1308.2 L1968.86 1308.2 Q1974.21 1308.2 1977.1 1310.42 Q1979.99 1312.64 1979.99 1316.74 Q1979.99 1319.91 1978.51 1321.78 Q1977.03 1323.66 1974.16 1324.12 Q1977.61 1324.86 1979.51 1327.22 Q1981.43 1329.56 1981.43 1333.08 Q1981.43 1337.71 1978.28 1340.23 Q1975.13 1342.76 1969.32 1342.76 L1956.92 1342.76 L1956.92 1308.2 Z" fill="#000000" fill-rule="nonzero" fill-opacity="1" /><path clip-path="url(#clip380)" d="M1996.89 1342.76 L1983.7 1308.2 L1988.58 1308.2 L1999.53 1337.29 L2010.5 1308.2 L2015.36 1308.2 L2002.19 1342.76 L1996.89 1342.76 Z" fill="#000000" fill-rule="nonzero" fill-opacity="1" /><path clip-path="url(#clip380)" d="M2020.41 1308.2 L2025.09 1308.2 L2025.09 1342.76 L2020.41 1342.76 L2020.41 1308.2 Z" fill="#000000" fill-rule="nonzero" fill-opacity="1" /><path clip-path="url(#clip380)" d="M2075.34 1310.86 L2075.34 1315.79 Q2072.98 1313.59 2070.29 1312.5 Q2067.63 1311.41 2064.62 1311.41 Q2058.7 1311.41 2055.55 1315.05 Q2052.4 1318.66 2052.4 1325.51 Q2052.4 1332.34 2055.55 1335.97 Q2058.7 1339.58 2064.62 1339.58 Q2067.63 1339.58 2070.29 1338.5 Q2072.98 1337.41 2075.34 1335.21 L2075.34 1340.09 Q2072.89 1341.76 2070.13 1342.59 Q2067.4 1343.43 2064.35 1343.43 Q2056.5 1343.43 2051.98 1338.63 Q2047.47 1333.82 2047.47 1325.51 Q2047.47 1317.18 2051.98 1312.39 Q2056.5 1307.57 2064.35 1307.57 Q2067.45 1307.57 2070.18 1308.4 Q2072.93 1309.21 2075.34 1310.86 Z" fill="#000000" fill-rule="nonzero" fill-opacity="1" /><path clip-path="url(#clip380)" d="M2082.56 1308.2 L2102.42 1308.2 L2102.42 1312.13 L2087.24 1312.13 L2087.24 1322.32 L2100.94 1322.32 L2100.94 1326.25 L2087.24 1326.25 L2087.24 1342.76 L2082.56 1342.76 L2082.56 1308.2 Z" fill="#000000" fill-rule="nonzero" fill-opacity="1" /><path clip-path="url(#clip380)" d="M2109.83 1308.2 L2131.68 1308.2 L2131.68 1312.13 L2114.51 1312.13 L2114.51 1322.36 L2130.97 1322.36 L2130.97 1326.3 L2114.51 1326.3 L2114.51 1338.82 L2132.1 1338.82 L2132.1 1342.76 L2109.83 1342.76 L2109.83 1308.2 Z" fill="#000000" fill-rule="nonzero" fill-opacity="1" /><path clip-path="url(#clip380)" d="M2168.88 1311.37 Q2163.79 1311.37 2160.78 1315.16 Q2157.79 1318.96 2157.79 1325.51 Q2157.79 1332.04 2160.78 1335.83 Q2163.79 1339.63 2168.88 1339.63 Q2173.97 1339.63 2176.94 1335.83 Q2179.92 1332.04 2179.92 1325.51 Q2179.92 1318.96 2176.94 1315.16 Q2173.97 1311.37 2168.88 1311.37 M2175.43 1342.13 L2181.59 1348.87 L2175.94 1348.87 L2170.83 1343.33 Q2170.06 1343.38 2169.65 1343.4 Q2169.25 1343.43 2168.88 1343.43 Q2161.59 1343.43 2157.21 1338.57 Q2152.86 1333.68 2152.86 1325.51 Q2152.86 1317.32 2157.21 1312.45 Q2161.59 1307.57 2168.88 1307.57 Q2176.15 1307.57 2180.5 1312.45 Q2184.85 1317.32 2184.85 1325.51 Q2184.85 1331.53 2182.42 1335.81 Q2180.02 1340.09 2175.43 1342.13 Z" fill="#000000" fill-rule="nonzero" fill-opacity="1" /><path clip-path="url(#clip380)" d="M2192.17 1308.2 L2199.14 1308.2 L2207.96 1331.71 L2216.82 1308.2 L2223.79 1308.2 L2223.79 1342.76 L2219.23 1342.76 L2219.23 1312.41 L2210.32 1336.11 L2205.62 1336.11 L2196.71 1312.41 L2196.71 1342.76 L2192.17 1342.76 L2192.17 1308.2 Z" fill="#000000" fill-rule="nonzero" fill-opacity="1" /><path clip-path="url(#clip380)" d="M2258.95 1310.86 L2258.95 1315.79 Q2256.59 1313.59 2253.9 1312.5 Q2251.24 1311.41 2248.23 1311.41 Q2242.31 1311.41 2239.16 1315.05 Q2236.01 1318.66 2236.01 1325.51 Q2236.01 1332.34 2239.16 1335.97 Q2242.31 1339.58 2248.23 1339.58 Q2251.24 1339.58 2253.9 1338.5 Q2256.59 1337.41 2258.95 1335.21 L2258.95 1340.09 Q2256.5 1341.76 2253.74 1342.59 Q2251.01 1343.43 2247.96 1343.43 Q2240.11 1343.43 2235.59 1338.63 Q2231.08 1333.82 2231.08 1325.51 Q2231.08 1317.18 2235.59 1312.39 Q2240.11 1307.57 2247.96 1307.57 Q2251.06 1307.57 2253.79 1308.4 Q2256.54 1309.21 2258.95 1310.86 Z" fill="#000000" fill-rule="nonzero" fill-opacity="1" /></svg>
