<?xml version="1.0" encoding="utf-8"?>
<svg xmlns="http://www.w3.org/2000/svg" xmlns:xlink="http://www.w3.org/1999/xlink" width="600" height="400" viewBox="0 0 2400 1600">
<defs>
  <clipPath id="clip310">
    <rect x="0" y="0" width="2400" height="1600"/>
  </clipPath>
</defs>
<path clip-path="url(#clip310)" d="M0 1600 L2400 1600 L2400 0 L0 0  Z" fill="#ffffff" fill-rule="evenodd" fill-opacity="1"/>
<defs>
  <clipPath id="clip311">
    <rect x="251" y="47" width="2102" height="1377"/>
  </clipPath>
</defs>
<path clip-path="url(#clip310)" d="M242.135 1423.18 L2352.76 1423.18 L2352.76 47.2441 L242.135 47.2441  Z" fill="#ffffff" fill-rule="evenodd" fill-opacity="1"/>
<defs>
  <clipPath id="clip312">
    <rect x="242" y="47" width="2112" height="1377"/>
  </clipPath>
</defs>
<polyline clip-path="url(#clip312)" style="stroke:#000000; stroke-linecap:round; stroke-linejoin:round; stroke-width:2; stroke-opacity:0.1; fill:none" points="299.876,1423.18 299.876,47.2441 "/>
<polyline clip-path="url(#clip312)" style="stroke:#000000; stroke-linecap:round; stroke-linejoin:round; stroke-width:2; stroke-opacity:0.1; fill:none" points="798.162,1423.18 798.162,47.2441 "/>
<polyline clip-path="url(#clip312)" style="stroke:#000000; stroke-linecap:round; stroke-linejoin:round; stroke-width:2; stroke-opacity:0.1; fill:none" points="1296.45,1423.18 1296.45,47.2441 "/>
<polyline clip-path="url(#clip312)" style="stroke:#000000; stroke-linecap:round; stroke-linejoin:round; stroke-width:2; stroke-opacity:0.1; fill:none" points="1794.74,1423.18 1794.74,47.2441 "/>
<polyline clip-path="url(#clip312)" style="stroke:#000000; stroke-linecap:round; stroke-linejoin:round; stroke-width:2; stroke-opacity:0.1; fill:none" points="2293.02,1423.18 2293.02,47.2441 "/>
<polyline clip-path="url(#clip312)" style="stroke:#000000; stroke-linecap:round; stroke-linejoin:round; stroke-width:2; stroke-opacity:0.1; fill:none" points="242.135,1266.22 2352.76,1266.22 "/>
<polyline clip-path="url(#clip312)" style="stroke:#000000; stroke-linecap:round; stroke-linejoin:round; stroke-width:2; stroke-opacity:0.1; fill:none" points="242.135,921.968 2352.76,921.968 "/>
<polyline clip-path="url(#clip312)" style="stroke:#000000; stroke-linecap:round; stroke-linejoin:round; stroke-width:2; stroke-opacity:0.1; fill:none" points="242.135,577.713 2352.76,577.713 "/>
<polyline clip-path="url(#clip312)" style="stroke:#000000; stroke-linecap:round; stroke-linejoin:round; stroke-width:2; stroke-opacity:0.1; fill:none" points="242.135,233.459 2352.76,233.459 "/>
<polyline clip-path="url(#clip310)" style="stroke:#000000; stroke-linecap:round; stroke-linejoin:round; stroke-width:4; stroke-opacity:1; fill:none" points="242.135,1423.18 2352.76,1423.18 "/>
<polyline clip-path="url(#clip310)" style="stroke:#000000; stroke-linecap:round; stroke-linejoin:round; stroke-width:4; stroke-opacity:1; fill:none" points="299.876,1423.18 299.876,1404.28 "/>
<polyline clip-path="url(#clip310)" style="stroke:#000000; stroke-linecap:round; stroke-linejoin:round; stroke-width:4; stroke-opacity:1; fill:none" points="798.162,1423.18 798.162,1404.28 "/>
<polyline clip-path="url(#clip310)" style="stroke:#000000; stroke-linecap:round; stroke-linejoin:round; stroke-width:4; stroke-opacity:1; fill:none" points="1296.45,1423.18 1296.45,1404.28 "/>
<polyline clip-path="url(#clip310)" style="stroke:#000000; stroke-linecap:round; stroke-linejoin:round; stroke-width:4; stroke-opacity:1; fill:none" points="1794.74,1423.18 1794.74,1404.28 "/>
<polyline clip-path="url(#clip310)" style="stroke:#000000; stroke-linecap:round; stroke-linejoin:round; stroke-width:4; stroke-opacity:1; fill:none" points="2293.02,1423.18 2293.02,1404.28 "/>
<path clip-path="url(#clip310)" d="M299.876 1454.1 Q296.265 1454.1 294.436 1457.66 Q292.631 1461.2 292.631 1468.33 Q292.631 1475.44 294.436 1479.01 Q296.265 1482.55 299.876 1482.55 Q303.51 1482.55 305.316 1479.01 Q307.145 1475.44 307.145 1468.33 Q307.145 1461.2 305.316 1457.66 Q303.51 1454.1 299.876 1454.1 M299.876 1450.39 Q305.686 1450.39 308.742 1455 Q311.82 1459.58 311.82 1468.33 Q311.82 1477.06 308.742 1481.67 Q305.686 1486.25 299.876 1486.25 Q294.066 1486.25 290.987 1481.67 Q287.932 1477.06 287.932 1468.33 Q287.932 1459.58 290.987 1455 Q294.066 1450.39 299.876 1450.39 Z" fill="#000000" fill-rule="nonzero" fill-opacity="1" /><path clip-path="url(#clip310)" d="M761.855 1481.64 L778.174 1481.64 L778.174 1485.58 L756.23 1485.58 L756.23 1481.64 Q758.892 1478.89 763.475 1474.26 Q768.082 1469.61 769.262 1468.27 Q771.507 1465.74 772.387 1464.01 Q773.29 1462.25 773.29 1460.56 Q773.29 1457.8 771.345 1456.07 Q769.424 1454.33 766.322 1454.33 Q764.123 1454.33 761.67 1455.09 Q759.239 1455.86 756.461 1457.41 L756.461 1452.69 Q759.285 1451.55 761.739 1450.97 Q764.193 1450.39 766.23 1450.39 Q771.6 1450.39 774.794 1453.08 Q777.989 1455.77 777.989 1460.26 Q777.989 1462.39 777.179 1464.31 Q776.392 1466.2 774.285 1468.8 Q773.707 1469.47 770.605 1472.69 Q767.503 1475.88 761.855 1481.64 Z" fill="#000000" fill-rule="nonzero" fill-opacity="1" /><path clip-path="url(#clip310)" d="M788.035 1451.02 L806.392 1451.02 L806.392 1454.96 L792.318 1454.96 L792.318 1463.43 Q793.336 1463.08 794.355 1462.92 Q795.373 1462.73 796.392 1462.73 Q802.179 1462.73 805.558 1465.9 Q808.938 1469.08 808.938 1474.49 Q808.938 1480.07 805.466 1483.17 Q801.993 1486.25 795.674 1486.25 Q793.498 1486.25 791.23 1485.88 Q788.984 1485.51 786.577 1484.77 L786.577 1480.07 Q788.66 1481.2 790.882 1481.76 Q793.105 1482.32 795.581 1482.32 Q799.586 1482.32 801.924 1480.21 Q804.262 1478.1 804.262 1474.49 Q804.262 1470.88 801.924 1468.77 Q799.586 1466.67 795.581 1466.67 Q793.706 1466.67 791.831 1467.08 Q789.98 1467.5 788.035 1468.38 L788.035 1451.02 Z" fill="#000000" fill-rule="nonzero" fill-opacity="1" /><path clip-path="url(#clip310)" d="M828.151 1454.1 Q824.54 1454.1 822.711 1457.66 Q820.905 1461.2 820.905 1468.33 Q820.905 1475.44 822.711 1479.01 Q824.54 1482.55 828.151 1482.55 Q831.785 1482.55 833.59 1479.01 Q835.419 1475.44 835.419 1468.33 Q835.419 1461.2 833.59 1457.66 Q831.785 1454.1 828.151 1454.1 M828.151 1450.39 Q833.961 1450.39 837.016 1455 Q840.095 1459.58 840.095 1468.33 Q840.095 1477.06 837.016 1481.67 Q833.961 1486.25 828.151 1486.25 Q822.341 1486.25 819.262 1481.67 Q816.206 1477.06 816.206 1468.33 Q816.206 1459.58 819.262 1455 Q822.341 1450.39 828.151 1450.39 Z" fill="#000000" fill-rule="nonzero" fill-opacity="1" /><path clip-path="url(#clip310)" d="M1256.07 1451.02 L1274.42 1451.02 L1274.42 1454.96 L1260.35 1454.96 L1260.35 1463.43 Q1261.37 1463.08 1262.39 1462.92 Q1263.4 1462.73 1264.42 1462.73 Q1270.21 1462.73 1273.59 1465.9 Q1276.97 1469.08 1276.97 1474.49 Q1276.97 1480.07 1273.5 1483.17 Q1270.03 1486.25 1263.71 1486.25 Q1261.53 1486.25 1259.26 1485.88 Q1257.02 1485.51 1254.61 1484.77 L1254.61 1480.07 Q1256.69 1481.2 1258.91 1481.76 Q1261.14 1482.32 1263.61 1482.32 Q1267.62 1482.32 1269.96 1480.21 Q1272.29 1478.1 1272.29 1474.49 Q1272.29 1470.88 1269.96 1468.77 Q1267.62 1466.67 1263.61 1466.67 Q1261.74 1466.67 1259.86 1467.08 Q1258.01 1467.5 1256.07 1468.38 L1256.07 1451.02 Z" fill="#000000" fill-rule="nonzero" fill-opacity="1" /><path clip-path="url(#clip310)" d="M1296.18 1454.1 Q1292.57 1454.1 1290.74 1457.66 Q1288.94 1461.2 1288.94 1468.33 Q1288.94 1475.44 1290.74 1479.01 Q1292.57 1482.55 1296.18 1482.55 Q1299.82 1482.55 1301.62 1479.01 Q1303.45 1475.44 1303.45 1468.33 Q1303.45 1461.2 1301.62 1457.66 Q1299.82 1454.1 1296.18 1454.1 M1296.18 1450.39 Q1301.99 1450.39 1305.05 1455 Q1308.13 1459.58 1308.13 1468.33 Q1308.13 1477.06 1305.05 1481.67 Q1301.99 1486.25 1296.18 1486.25 Q1290.37 1486.25 1287.29 1481.67 Q1284.24 1477.06 1284.24 1468.33 Q1284.24 1459.58 1287.29 1455 Q1290.37 1450.39 1296.18 1450.39 Z" fill="#000000" fill-rule="nonzero" fill-opacity="1" /><path clip-path="url(#clip310)" d="M1326.34 1454.1 Q1322.73 1454.1 1320.9 1457.66 Q1319.1 1461.2 1319.1 1468.33 Q1319.1 1475.44 1320.9 1479.01 Q1322.73 1482.55 1326.34 1482.55 Q1329.98 1482.55 1331.78 1479.01 Q1333.61 1475.44 1333.61 1468.33 Q1333.61 1461.2 1331.78 1457.66 Q1329.98 1454.1 1326.34 1454.1 M1326.34 1450.39 Q1332.15 1450.39 1335.21 1455 Q1338.29 1459.58 1338.29 1468.33 Q1338.29 1477.06 1335.21 1481.67 Q1332.15 1486.25 1326.34 1486.25 Q1320.53 1486.25 1317.46 1481.67 Q1314.4 1477.06 1314.4 1468.33 Q1314.4 1459.58 1317.46 1455 Q1320.53 1450.39 1326.34 1450.39 Z" fill="#000000" fill-rule="nonzero" fill-opacity="1" /><path clip-path="url(#clip310)" d="M1753.01 1451.02 L1775.23 1451.02 L1775.23 1453.01 L1762.69 1485.58 L1757.8 1485.58 L1769.61 1454.96 L1753.01 1454.96 L1753.01 1451.02 Z" fill="#000000" fill-rule="nonzero" fill-opacity="1" /><path clip-path="url(#clip310)" d="M1784.4 1451.02 L1802.76 1451.02 L1802.76 1454.96 L1788.68 1454.96 L1788.68 1463.43 Q1789.7 1463.08 1790.72 1462.92 Q1791.74 1462.73 1792.76 1462.73 Q1798.54 1462.73 1801.92 1465.9 Q1805.3 1469.08 1805.3 1474.49 Q1805.3 1480.07 1801.83 1483.17 Q1798.36 1486.25 1792.04 1486.25 Q1789.86 1486.25 1787.59 1485.88 Q1785.35 1485.51 1782.94 1484.77 L1782.94 1480.07 Q1785.02 1481.2 1787.25 1481.76 Q1789.47 1482.32 1791.95 1482.32 Q1795.95 1482.32 1798.29 1480.21 Q1800.63 1478.1 1800.63 1474.49 Q1800.63 1470.88 1798.29 1468.77 Q1795.95 1466.67 1791.95 1466.67 Q1790.07 1466.67 1788.2 1467.08 Q1786.34 1467.5 1784.4 1468.38 L1784.4 1451.02 Z" fill="#000000" fill-rule="nonzero" fill-opacity="1" /><path clip-path="url(#clip310)" d="M1824.51 1454.1 Q1820.9 1454.1 1819.08 1457.66 Q1817.27 1461.2 1817.27 1468.33 Q1817.27 1475.44 1819.08 1479.01 Q1820.9 1482.55 1824.51 1482.55 Q1828.15 1482.55 1829.95 1479.01 Q1831.78 1475.44 1831.78 1468.33 Q1831.78 1461.2 1829.95 1457.66 Q1828.15 1454.1 1824.51 1454.1 M1824.51 1450.39 Q1830.33 1450.39 1833.38 1455 Q1836.46 1459.58 1836.46 1468.33 Q1836.46 1477.06 1833.38 1481.67 Q1830.33 1486.25 1824.51 1486.25 Q1818.7 1486.25 1815.63 1481.67 Q1812.57 1477.06 1812.57 1468.33 Q1812.57 1459.58 1815.63 1455 Q1818.7 1450.39 1824.51 1450.39 Z" fill="#000000" fill-rule="nonzero" fill-opacity="1" /><path clip-path="url(#clip310)" d="M2237.55 1481.64 L2245.19 1481.64 L2245.19 1455.28 L2236.88 1456.95 L2236.88 1452.69 L2245.14 1451.02 L2249.82 1451.02 L2249.82 1481.64 L2257.45 1481.64 L2257.45 1485.58 L2237.55 1485.58 L2237.55 1481.64 Z" fill="#000000" fill-rule="nonzero" fill-opacity="1" /><path clip-path="url(#clip310)" d="M2276.9 1454.1 Q2273.29 1454.1 2271.46 1457.66 Q2269.65 1461.2 2269.65 1468.33 Q2269.65 1475.44 2271.46 1479.01 Q2273.29 1482.55 2276.9 1482.55 Q2280.53 1482.55 2282.34 1479.01 Q2284.17 1475.44 2284.17 1468.33 Q2284.17 1461.2 2282.34 1457.66 Q2280.53 1454.1 2276.9 1454.1 M2276.9 1450.39 Q2282.71 1450.39 2285.76 1455 Q2288.84 1459.58 2288.84 1468.33 Q2288.84 1477.06 2285.76 1481.67 Q2282.71 1486.25 2276.9 1486.25 Q2271.09 1486.25 2268.01 1481.67 Q2264.95 1477.06 2264.95 1468.33 Q2264.95 1459.58 2268.01 1455 Q2271.09 1450.39 2276.9 1450.39 Z" fill="#000000" fill-rule="nonzero" fill-opacity="1" /><path clip-path="url(#clip310)" d="M2307.06 1454.1 Q2303.45 1454.1 2301.62 1457.66 Q2299.82 1461.2 2299.82 1468.33 Q2299.82 1475.44 2301.62 1479.01 Q2303.45 1482.55 2307.06 1482.55 Q2310.69 1482.55 2312.5 1479.01 Q2314.33 1475.44 2314.33 1468.33 Q2314.33 1461.2 2312.5 1457.66 Q2310.69 1454.1 2307.06 1454.1 M2307.06 1450.39 Q2312.87 1450.39 2315.93 1455 Q2319 1459.58 2319 1468.33 Q2319 1477.06 2315.93 1481.67 Q2312.87 1486.25 2307.06 1486.25 Q2301.25 1486.25 2298.17 1481.67 Q2295.12 1477.06 2295.12 1468.33 Q2295.12 1459.58 2298.17 1455 Q2301.25 1450.39 2307.06 1450.39 Z" fill="#000000" fill-rule="nonzero" fill-opacity="1" /><path clip-path="url(#clip310)" d="M2337.22 1454.1 Q2333.61 1454.1 2331.78 1457.66 Q2329.98 1461.2 2329.98 1468.33 Q2329.98 1475.44 2331.78 1479.01 Q2333.61 1482.55 2337.22 1482.55 Q2340.86 1482.55 2342.66 1479.01 Q2344.49 1475.44 2344.49 1468.33 Q2344.49 1461.2 2342.66 1457.66 Q2340.86 1454.1 2337.22 1454.1 M2337.22 1450.39 Q2343.03 1450.39 2346.09 1455 Q2349.17 1459.58 2349.17 1468.33 Q2349.17 1477.06 2346.09 1481.67 Q2343.03 1486.25 2337.22 1486.25 Q2331.41 1486.25 2328.33 1481.67 Q2325.28 1477.06 2325.28 1468.33 Q2325.28 1459.58 2328.33 1455 Q2331.41 1450.39 2337.22 1450.39 Z" fill="#000000" fill-rule="nonzero" fill-opacity="1" /><path clip-path="url(#clip310)" d="M1165.17 1520.52 L1171.6 1520.52 L1171.6 1568.04 L1165.17 1568.04 L1165.17 1520.52 Z" fill="#000000" fill-rule="nonzero" fill-opacity="1" /><path clip-path="url(#clip310)" d="M1189.93 1522.27 L1189.93 1532.4 L1201.99 1532.4 L1201.99 1536.95 L1189.93 1536.95 L1189.93 1556.3 Q1189.93 1560.66 1191.11 1561.9 Q1192.32 1563.14 1195.98 1563.14 L1201.99 1563.14 L1201.99 1568.04 L1195.98 1568.04 Q1189.2 1568.04 1186.62 1565.53 Q1184.04 1562.98 1184.04 1556.3 L1184.04 1536.95 L1179.74 1536.95 L1179.74 1532.4 L1184.04 1532.4 L1184.04 1522.27 L1189.93 1522.27 Z" fill="#000000" fill-rule="nonzero" fill-opacity="1" /><path clip-path="url(#clip310)" d="M1240.19 1548.76 L1240.19 1551.62 L1213.26 1551.62 Q1213.64 1557.67 1216.89 1560.85 Q1220.17 1564 1225.99 1564 Q1229.36 1564 1232.52 1563.17 Q1235.7 1562.35 1238.82 1560.69 L1238.82 1566.23 Q1235.67 1567.57 1232.36 1568.27 Q1229.05 1568.97 1225.64 1568.97 Q1217.11 1568.97 1212.11 1564 Q1207.15 1559.04 1207.15 1550.57 Q1207.15 1541.82 1211.86 1536.69 Q1216.6 1531.54 1224.62 1531.54 Q1231.81 1531.54 1235.98 1536.18 Q1240.19 1540.8 1240.19 1548.76 M1234.33 1547.04 Q1234.27 1542.23 1231.62 1539.37 Q1229.01 1536.5 1224.69 1536.5 Q1219.78 1536.5 1216.82 1539.27 Q1213.9 1542.04 1213.45 1547.07 L1234.33 1547.04 Z" fill="#000000" fill-rule="nonzero" fill-opacity="1" /><path clip-path="url(#clip310)" d="M1270.45 1537.87 Q1269.47 1537.3 1268.29 1537.04 Q1267.14 1536.76 1265.74 1536.76 Q1260.78 1536.76 1258.11 1540 Q1255.46 1543.22 1255.46 1549.27 L1255.46 1568.04 L1249.58 1568.04 L1249.58 1532.4 L1255.46 1532.4 L1255.46 1537.93 Q1257.31 1534.69 1260.27 1533.13 Q1263.23 1531.54 1267.46 1531.54 Q1268.07 1531.54 1268.8 1531.63 Q1269.53 1531.7 1270.42 1531.85 L1270.45 1537.87 Z" fill="#000000" fill-rule="nonzero" fill-opacity="1" /><path clip-path="url(#clip310)" d="M1292.8 1550.12 Q1285.7 1550.12 1282.96 1551.75 Q1280.23 1553.37 1280.23 1557.29 Q1280.23 1560.4 1282.26 1562.25 Q1284.33 1564.07 1287.86 1564.07 Q1292.73 1564.07 1295.66 1560.63 Q1298.62 1557.16 1298.62 1551.43 L1298.62 1550.12 L1292.8 1550.12 M1304.48 1547.71 L1304.48 1568.04 L1298.62 1568.04 L1298.62 1562.63 Q1296.62 1565.88 1293.63 1567.44 Q1290.63 1568.97 1286.31 1568.97 Q1280.83 1568.97 1277.58 1565.91 Q1274.37 1562.82 1274.37 1557.67 Q1274.37 1551.65 1278.38 1548.6 Q1282.42 1545.54 1290.41 1545.54 L1298.62 1545.54 L1298.62 1544.97 Q1298.62 1540.93 1295.95 1538.73 Q1293.31 1536.5 1288.5 1536.5 Q1285.45 1536.5 1282.55 1537.23 Q1279.65 1537.97 1276.98 1539.43 L1276.98 1534.02 Q1280.19 1532.78 1283.22 1532.17 Q1286.24 1531.54 1289.11 1531.54 Q1296.84 1531.54 1300.66 1535.55 Q1304.48 1539.56 1304.48 1547.71 Z" fill="#000000" fill-rule="nonzero" fill-opacity="1" /><path clip-path="url(#clip310)" d="M1322.34 1522.27 L1322.34 1532.4 L1334.4 1532.4 L1334.4 1536.95 L1322.34 1536.95 L1322.34 1556.3 Q1322.34 1560.66 1323.51 1561.9 Q1324.72 1563.14 1328.38 1563.14 L1334.4 1563.14 L1334.4 1568.04 L1328.38 1568.04 Q1321.6 1568.04 1319.03 1565.53 Q1316.45 1562.98 1316.45 1556.3 L1316.45 1536.95 L1312.15 1536.95 L1312.15 1532.4 L1316.45 1532.4 L1316.45 1522.27 L1322.34 1522.27 Z" fill="#000000" fill-rule="nonzero" fill-opacity="1" /><path clip-path="url(#clip310)" d="M1342.1 1532.4 L1347.96 1532.4 L1347.96 1568.04 L1342.1 1568.04 L1342.1 1532.4 M1342.1 1518.52 L1347.96 1518.52 L1347.96 1525.93 L1342.1 1525.93 L1342.1 1518.52 Z" fill="#000000" fill-rule="nonzero" fill-opacity="1" /><path clip-path="url(#clip310)" d="M1374.02 1536.5 Q1369.31 1536.5 1366.58 1540.19 Q1363.84 1543.85 1363.84 1550.25 Q1363.84 1556.65 1366.55 1560.34 Q1369.28 1564 1374.02 1564 Q1378.7 1564 1381.44 1560.31 Q1384.18 1556.62 1384.18 1550.25 Q1384.18 1543.92 1381.44 1540.23 Q1378.7 1536.5 1374.02 1536.5 M1374.02 1531.54 Q1381.66 1531.54 1386.02 1536.5 Q1390.38 1541.47 1390.38 1550.25 Q1390.38 1559 1386.02 1564 Q1381.66 1568.97 1374.02 1568.97 Q1366.35 1568.97 1361.99 1564 Q1357.66 1559 1357.66 1550.25 Q1357.66 1541.47 1361.99 1536.5 Q1366.35 1531.54 1374.02 1531.54 Z" fill="#000000" fill-rule="nonzero" fill-opacity="1" /><path clip-path="url(#clip310)" d="M1429.72 1546.53 L1429.72 1568.04 L1423.87 1568.04 L1423.87 1546.72 Q1423.87 1541.66 1421.89 1539.14 Q1419.92 1536.63 1415.97 1536.63 Q1411.23 1536.63 1408.5 1539.65 Q1405.76 1542.68 1405.76 1547.9 L1405.76 1568.04 L1399.87 1568.04 L1399.87 1532.4 L1405.76 1532.4 L1405.76 1537.93 Q1407.86 1534.72 1410.69 1533.13 Q1413.56 1531.54 1417.28 1531.54 Q1423.42 1531.54 1426.57 1535.36 Q1429.72 1539.14 1429.72 1546.53 Z" fill="#000000" fill-rule="nonzero" fill-opacity="1" /><polyline clip-path="url(#clip310)" style="stroke:#000000; stroke-linecap:round; stroke-linejoin:round; stroke-width:4; stroke-opacity:1; fill:none" points="242.135,1423.18 242.135,47.2441 "/>
<polyline clip-path="url(#clip310)" style="stroke:#000000; stroke-linecap:round; stroke-linejoin:round; stroke-width:4; stroke-opacity:1; fill:none" points="242.135,1266.22 261.032,1266.22 "/>
<polyline clip-path="url(#clip310)" style="stroke:#000000; stroke-linecap:round; stroke-linejoin:round; stroke-width:4; stroke-opacity:1; fill:none" points="242.135,921.968 261.032,921.968 "/>
<polyline clip-path="url(#clip310)" style="stroke:#000000; stroke-linecap:round; stroke-linejoin:round; stroke-width:4; stroke-opacity:1; fill:none" points="242.135,577.713 261.032,577.713 "/>
<polyline clip-path="url(#clip310)" style="stroke:#000000; stroke-linecap:round; stroke-linejoin:round; stroke-width:4; stroke-opacity:1; fill:none" points="242.135,233.459 261.032,233.459 "/>
<path clip-path="url(#clip310)" d="M114.26 1266.67 L143.936 1266.67 L143.936 1270.61 L114.26 1270.61 L114.26 1266.67 Z" fill="#000000" fill-rule="nonzero" fill-opacity="1" /><path clip-path="url(#clip310)" d="M168.195 1264.87 Q171.552 1265.59 173.427 1267.85 Q175.325 1270.12 175.325 1273.46 Q175.325 1278.57 171.806 1281.37 Q168.288 1284.17 161.806 1284.17 Q159.63 1284.17 157.315 1283.73 Q155.024 1283.32 152.57 1282.46 L152.57 1277.95 Q154.515 1279.08 156.829 1279.66 Q159.144 1280.24 161.667 1280.24 Q166.065 1280.24 168.357 1278.5 Q170.672 1276.77 170.672 1273.46 Q170.672 1270.4 168.519 1268.69 Q166.39 1266.95 162.57 1266.95 L158.542 1266.95 L158.542 1263.11 L162.755 1263.11 Q166.204 1263.11 168.033 1261.74 Q169.862 1260.35 169.862 1257.76 Q169.862 1255.1 167.964 1253.69 Q166.089 1252.25 162.57 1252.25 Q160.649 1252.25 158.45 1252.67 Q156.251 1253.09 153.612 1253.97 L153.612 1249.8 Q156.274 1249.06 158.589 1248.69 Q160.927 1248.32 162.987 1248.32 Q168.311 1248.32 171.413 1250.75 Q174.514 1253.16 174.514 1257.28 Q174.514 1260.15 172.871 1262.14 Q171.227 1264.1 168.195 1264.87 Z" fill="#000000" fill-rule="nonzero" fill-opacity="1" /><path clip-path="url(#clip310)" d="M194.19 1252.02 Q190.579 1252.02 188.75 1255.59 Q186.945 1259.13 186.945 1266.26 Q186.945 1273.36 188.75 1276.93 Q190.579 1280.47 194.19 1280.47 Q197.825 1280.47 199.63 1276.93 Q201.459 1273.36 201.459 1266.26 Q201.459 1259.13 199.63 1255.59 Q197.825 1252.02 194.19 1252.02 M194.19 1248.32 Q200 1248.32 203.056 1252.92 Q206.135 1257.51 206.135 1266.26 Q206.135 1274.98 203.056 1279.59 Q200 1284.17 194.19 1284.17 Q188.38 1284.17 185.301 1279.59 Q182.246 1274.98 182.246 1266.26 Q182.246 1257.51 185.301 1252.92 Q188.38 1248.32 194.19 1248.32 Z" fill="#000000" fill-rule="nonzero" fill-opacity="1" /><path clip-path="url(#clip310)" d="M114.26 922.419 L143.936 922.419 L143.936 926.354 L114.26 926.354 L114.26 922.419 Z" fill="#000000" fill-rule="nonzero" fill-opacity="1" /><path clip-path="url(#clip310)" d="M158.056 935.313 L174.376 935.313 L174.376 939.248 L152.431 939.248 L152.431 935.313 Q155.093 932.558 159.677 927.928 Q164.283 923.276 165.464 921.933 Q167.709 919.41 168.589 917.674 Q169.491 915.915 169.491 914.225 Q169.491 911.47 167.547 909.734 Q165.626 907.998 162.524 907.998 Q160.325 907.998 157.871 908.762 Q155.44 909.526 152.663 911.077 L152.663 906.354 Q155.487 905.22 157.94 904.642 Q160.394 904.063 162.431 904.063 Q167.802 904.063 170.996 906.748 Q174.19 909.433 174.19 913.924 Q174.19 916.054 173.38 917.975 Q172.593 919.873 170.487 922.466 Q169.908 923.137 166.806 926.354 Q163.704 929.549 158.056 935.313 Z" fill="#000000" fill-rule="nonzero" fill-opacity="1" /><path clip-path="url(#clip310)" d="M194.19 907.767 Q190.579 907.767 188.75 911.331 Q186.945 914.873 186.945 922.003 Q186.945 929.109 188.75 932.674 Q190.579 936.215 194.19 936.215 Q197.825 936.215 199.63 932.674 Q201.459 929.109 201.459 922.003 Q201.459 914.873 199.63 911.331 Q197.825 907.767 194.19 907.767 M194.19 904.063 Q200 904.063 203.056 908.669 Q206.135 913.253 206.135 922.003 Q206.135 930.729 203.056 935.336 Q200 939.919 194.19 939.919 Q188.38 939.919 185.301 935.336 Q182.246 930.729 182.246 922.003 Q182.246 913.253 185.301 908.669 Q188.38 904.063 194.19 904.063 Z" fill="#000000" fill-rule="nonzero" fill-opacity="1" /><path clip-path="url(#clip310)" d="M114.26 578.165 L143.936 578.165 L143.936 582.1 L114.26 582.1 L114.26 578.165 Z" fill="#000000" fill-rule="nonzero" fill-opacity="1" /><path clip-path="url(#clip310)" d="M154.839 591.058 L162.477 591.058 L162.477 564.693 L154.167 566.359 L154.167 562.1 L162.431 560.433 L167.107 560.433 L167.107 591.058 L174.746 591.058 L174.746 594.993 L154.839 594.993 L154.839 591.058 Z" fill="#000000" fill-rule="nonzero" fill-opacity="1" /><path clip-path="url(#clip310)" d="M194.19 563.512 Q190.579 563.512 188.75 567.077 Q186.945 570.619 186.945 577.748 Q186.945 584.855 188.75 588.419 Q190.579 591.961 194.19 591.961 Q197.825 591.961 199.63 588.419 Q201.459 584.855 201.459 577.748 Q201.459 570.619 199.63 567.077 Q197.825 563.512 194.19 563.512 M194.19 559.808 Q200 559.808 203.056 564.415 Q206.135 568.998 206.135 577.748 Q206.135 586.475 203.056 591.081 Q200 595.665 194.19 595.665 Q188.38 595.665 185.301 591.081 Q182.246 586.475 182.246 577.748 Q182.246 568.998 185.301 564.415 Q188.38 559.808 194.19 559.808 Z" fill="#000000" fill-rule="nonzero" fill-opacity="1" /><path clip-path="url(#clip310)" d="M194.19 219.258 Q190.579 219.258 188.75 222.823 Q186.945 226.364 186.945 233.494 Q186.945 240.6 188.75 244.165 Q190.579 247.707 194.19 247.707 Q197.825 247.707 199.63 244.165 Q201.459 240.6 201.459 233.494 Q201.459 226.364 199.63 222.823 Q197.825 219.258 194.19 219.258 M194.19 215.554 Q200 215.554 203.056 220.161 Q206.135 224.744 206.135 233.494 Q206.135 242.221 203.056 246.827 Q200 251.41 194.19 251.41 Q188.38 251.41 185.301 246.827 Q182.246 242.221 182.246 233.494 Q182.246 224.744 185.301 220.161 Q188.38 215.554 194.19 215.554 Z" fill="#000000" fill-rule="nonzero" fill-opacity="1" /><path clip-path="url(#clip310)" d="M16.4842 816.375 L16.4842 786.329 L21.895 786.329 L21.895 809.945 L35.9632 809.945 L35.9632 787.315 L41.3741 787.315 L41.3741 809.945 L58.5933 809.945 L58.5933 785.756 L64.0042 785.756 L64.0042 816.375 L16.4842 816.375 Z" fill="#000000" fill-rule="nonzero" fill-opacity="1" /><path clip-path="url(#clip310)" d="M16.4842 775.189 L16.4842 768.759 L58.5933 768.759 L58.5933 745.62 L64.0042 745.62 L64.0042 775.189 L16.4842 775.189 Z" fill="#000000" fill-rule="nonzero" fill-opacity="1" /><path clip-path="url(#clip310)" d="M41.3104 732.443 L58.7206 732.443 L58.7206 722.13 Q58.7206 716.942 56.5881 714.46 Q54.4238 711.945 49.9996 711.945 Q45.5436 711.945 43.4429 714.46 Q41.3104 716.942 41.3104 722.13 L41.3104 732.443 M21.7677 732.443 L36.0905 732.443 L36.0905 722.926 Q36.0905 718.216 34.34 715.924 Q32.5576 713.6 28.9291 713.6 Q25.3325 713.6 23.5501 715.924 Q21.7677 718.216 21.7677 722.926 L21.7677 732.443 M16.4842 738.872 L16.4842 722.449 Q16.4842 715.096 19.5397 711.118 Q22.5952 707.139 28.2289 707.139 Q32.5894 707.139 35.1675 709.176 Q37.7456 711.213 38.3822 715.16 Q39.4007 710.418 42.6472 707.808 Q45.8619 705.166 50.6998 705.166 Q57.0655 705.166 60.5348 709.495 Q64.0042 713.823 64.0042 721.812 L64.0042 738.872 L16.4842 738.872 Z" fill="#000000" fill-rule="nonzero" fill-opacity="1" /><path clip-path="url(#clip310)" d="M20.8447 676.011 Q20.8447 683.013 26.0645 687.151 Q31.2844 691.257 40.2919 691.257 Q49.2675 691.257 54.4874 687.151 Q59.7073 683.013 59.7073 676.011 Q59.7073 669.009 54.4874 664.935 Q49.2675 660.829 40.2919 660.829 Q31.2844 660.829 26.0645 664.935 Q20.8447 669.009 20.8447 676.011 M15.6248 676.011 Q15.6248 666.017 22.3406 660.033 Q29.0246 654.049 40.2919 654.049 Q51.5274 654.049 58.2432 660.033 Q64.9272 666.017 64.9272 676.011 Q64.9272 686.037 58.2432 692.052 Q51.5592 698.036 40.2919 698.036 Q29.0246 698.036 22.3406 692.052 Q15.6248 686.037 15.6248 676.011 Z" fill="#000000" fill-rule="nonzero" fill-opacity="1" /><polyline clip-path="url(#clip312)" style="stroke:#009af9; stroke-linecap:round; stroke-linejoin:round; stroke-width:4; stroke-opacity:1; fill:none" points="301.869,972.873 303.862,940.528 305.856,534.534 307.849,498.445 309.842,958.326 311.835,1056.18 313.828,1184.22 315.821,807.249 317.814,834.276 319.808,679.088 321.801,1384.24 323.794,1032.54 325.787,943.797 327.78,837.538 329.773,911.169 331.766,1079.66 333.76,886.764 335.753,932.911 337.746,894.076 339.739,820.585 341.732,654.134 343.725,873.763 345.718,879.629 347.712,567.055 349.705,427.783 351.698,708.586 353.691,591.02 355.684,385.778 357.677,687.136 359.67,785.949 361.664,774.379 363.657,777.388 365.65,599.346 367.643,761.96 369.636,589.667 371.629,1029.99 373.622,1078.28 375.616,759.924 377.609,942.835 379.602,425.048 381.595,815.823 383.588,608.524 385.581,552.113 387.574,725.21 389.568,723.357 391.561,477.955 393.554,1303.01 395.547,582.998 397.54,962.068 399.533,727.39 401.526,745.559 403.52,693.492 405.513,561.991 407.506,635.6 409.499,676.131 411.492,753.986 413.485,346.714 415.479,419.52 417.472,517.199 419.465,319.829 421.458,404.965 423.451,608.101 425.444,637.912 427.437,524.632 429.431,528.119 431.424,407.911 433.417,399.126 435.41,672.28 437.403,601.438 439.396,516.921 441.389,499.639 443.383,513.228 445.376,367.558 447.369,467.824 449.362,771.884 451.355,735.935 453.348,538.53 455.341,334.522 457.335,538.166 459.328,566.032 461.321,233.17 463.314,514.157 465.307,174.422 467.3,502.5 469.293,508.601 471.287,785.276 473.28,247.369 475.273,328.448 477.266,605.506 479.259,506.431 481.252,541.777 483.245,391.99 485.239,381.388 487.232,534.26 489.225,409.553 491.218,634.843 493.211,578.641 495.204,446.003 497.197,647.32 499.191,550.758 501.184,388.105 503.177,480.394 505.17,480.366 507.163,170.012 509.156,285.664 511.149,562.591 513.143,643.077 515.136,512.476 517.129,583.012 519.122,383.541 521.115,596.802 523.108,524.664 525.101,470.39 527.095,355.356 529.088,663.894 531.081,252.821 533.074,294.774 535.067,333.344 537.06,313.687 539.054,355.431 541.047,497.799 543.04,295.003 545.033,422.477 547.026,553.293 549.019,349.732 551.012,656.888 553.006,472.05 554.999,463.183 556.992,369.122 558.985,224.474 560.978,285.087 562.971,348.715 564.964,359.914 566.958,539.208 568.951,315.26 570.944,347.216 572.937,395.681 574.93,532.498 576.923,276.479 578.916,306.975 580.91,457.967 582.903,385.425 584.896,380.965 586.889,623.817 588.882,357.395 590.875,155.16 592.868,413.654 594.862,239.087 596.855,474.187 598.848,281.534 600.841,577.528 602.834,227.926 604.827,451.197 606.82,314.54 608.814,316.954 610.807,309.055 612.8,328.912 614.793,615.003 616.786,427.27 618.779,150.426 620.772,214.689 622.766,169.486 624.759,452.791 626.752,327.63 628.745,375.193 630.738,335.677 632.731,206.939 634.724,375.365 636.718,533.702 638.711,314.221 640.704,245.843 642.697,285.909 644.69,252.216 646.683,277.971 648.677,242.979 650.67,295.6 652.663,259.396 654.656,201.052 656.649,250.647 658.642,176.691 660.635,247.746 662.629,303.709 664.622,345.783 666.615,192.536 668.608,197.256 670.601,267.152 672.594,333.019 674.587,351.677 676.581,573.437 678.574,333.988 680.567,519.306 682.56,380.234 684.553,415.092 686.546,328.16 688.539,200.707 690.533,337.888 692.526,295.2 694.519,286.114 696.512,714.438 698.505,288.113 700.498,253.009 702.491,448.427 704.485,520.816 706.478,436.457 708.471,354.529 710.464,246.501 712.457,384.175 714.45,244.836 716.443,232.662 718.437,264.7 720.43,647.532 722.423,193.341 724.416,523.714 726.409,469.844 728.402,280.47 730.395,226.153 732.389,247.576 734.382,251.206 736.375,196.65 738.368,433.933 740.361,207.255 742.354,347.179 744.347,341.859 746.341,343.95 748.334,555.067 750.327,167.876 752.32,472.513 754.313,494.244 756.306,327.238 758.299,386.028 760.293,422.185 762.286,251.73 764.279,230.084 766.272,200.472 768.265,245.773 770.258,154.694 772.252,285.089 774.245,145.205 776.238,303.903 778.231,266.776 780.224,128.02 782.217,311.663 784.21,341.788 786.204,280.546 788.197,268.291 790.19,239.704 792.183,283.923 794.176,173.113 796.169,150.149 798.162,251.803 800.156,176.494 802.149,339.197 804.142,169.723 806.135,225.362 808.128,94.0549 810.121,170.631 812.114,257.594 814.108,186.946 816.101,205.815 818.094,304.85 820.087,148.416 822.08,186.116 824.073,392.899 826.066,354.106 828.06,265.73 830.053,267.157 832.046,309.636 834.039,442.132 836.032,159.882 838.025,245.614 840.018,254.475 842.012,278.999 844.005,339.786 845.998,189.203 847.991,163.671 849.984,244.487 851.977,192.522 853.97,159.031 855.964,152.759 857.957,215.026 859.95,269.883 861.943,143.936 863.936,238.667 865.929,199.131 867.922,260.915 869.916,141.179 871.909,152.826 873.902,317.162 875.895,185.108 877.888,157.412 879.881,339.991 881.874,300.336 883.868,313.647 885.861,350.308 887.854,200.049 889.847,261.123 891.84,175.91 893.833,135.698 895.827,254.353 897.82,322.45 899.813,267.021 901.806,380.619 903.799,217.83 905.792,276.357 907.785,430.696 909.779,313.651 911.772,317.997 913.765,273.308 915.758,290.168 917.751,138.417 919.744,270.896 921.737,274.216 923.731,309.657 925.724,239.383 927.717,211.915 929.71,238.045 931.703,150.427 933.696,338.703 935.689,429.519 937.683,153.981 939.676,244.769 941.669,328.697 943.662,287.058 945.655,566.254 947.648,341.799 949.641,230.151 951.635,300.5 953.628,237.383 955.621,235.232 957.614,107.411 959.607,232.51 961.6,445.073 963.593,263.269 965.587,162.955 967.58,263.002 969.573,223.291 971.566,250.389 973.559,342.639 975.552,166.425 977.545,279.121 979.539,184.652 981.532,150.553 983.525,139.771 985.518,156.245 987.511,266.179 989.504,300.43 991.497,187.174 993.491,372.667 995.484,177.881 997.477,198.199 999.47,167.644 1001.46,232.064 1003.46,278.581 1005.45,220.445 1007.44,212.39 1009.44,164.292 1011.43,203.545 1013.42,136.578 1015.42,222.166 1017.41,236.883 1019.4,223.725 1021.39,244.381 1023.39,239.074 1025.38,166.549 1027.37,367.772 1029.37,216.898 1031.36,168.413 1033.35,98.9865 1035.35,267.706 1037.34,230.404 1039.33,330 1041.33,235.602 1043.32,165.818 1045.31,407.031 1047.31,197.933 1049.3,173.323 1051.29,223.074 1053.28,165.566 1055.28,168.33 1057.27,188.112 1059.26,241.912 1061.26,293.881 1063.25,249.334 1065.24,180.282 1067.24,202.467 1069.23,173.426 1071.22,315.76 1073.22,270.654 1075.21,352.062 1077.2,318.218 1079.2,210.053 1081.19,213.04 1083.18,127.06 1085.18,379.948 1087.17,190.171 1089.16,146.8 1091.15,298.831 1093.15,218.094 1095.14,177.04 1097.13,354.735 1099.13,201.673 1101.12,209.61 1103.11,93.5486 1105.11,412.439 1107.1,256.906 1109.09,251.163 1111.09,272.856 1113.08,239.431 1115.07,309.731 1117.07,161.761 1119.06,270.475 1121.05,281.314 1123.05,195.683 1125.04,137.666 1127.03,255.741 1129.02,297.725 1131.02,173.184 1133.01,197.927 1135,195.501 1137,436.329 1138.99,294.231 1140.98,241.542 1142.98,237.358 1144.97,304.519 1146.96,384.463 1148.96,187.233 1150.95,367.77 1152.94,179.27 1154.94,241.495 1156.93,222.973 1158.92,202.571 1160.91,232.225 1162.91,205.39 1164.9,357.421 1166.89,230.746 1168.89,390.413 1170.88,205.307 1172.87,384.319 1174.87,205.127 1176.86,164.358 1178.85,351.09 1180.85,157.135 1182.84,203.678 1184.83,165.764 1186.83,245.09 1188.82,186.98 1190.81,252.439 1192.81,334.853 1194.8,182.963 1196.79,270.198 1198.78,230.857 1200.78,118.649 1202.77,191.084 1204.76,170.787 1206.76,216.636 1208.75,237.096 1210.74,167.805 1212.74,172.113 1214.73,202.864 1216.72,204.678 1218.72,231.17 1220.71,351.19 1222.7,393.499 1224.7,140.577 1226.69,204.904 1228.68,388.797 1230.67,369.872 1232.67,270.886 1234.66,207.982 1236.65,312.141 1238.65,236.746 1240.64,385.889 1242.63,213.696 1244.63,261.208 1246.62,171.895 1248.61,172.401 1250.61,189.812 1252.6,188.273 1254.59,195.083 1256.59,321.438 1258.58,290.088 1260.57,596.982 1262.57,184.957 1264.56,260.844 1266.55,170.203 1268.54,382.618 1270.54,198.254 1272.53,211.02 1274.52,268.225 1276.52,197.429 1278.51,187.699 1280.5,220.277 1282.5,166.22 1284.49,148.827 1286.48,301.121 1288.48,505.393 1290.47,153.527 1292.46,250.526 1294.46,330.422 1296.45,286.625 1298.44,152.534 1300.44,267.177 1302.43,383.61 1304.42,249.492 1306.41,285.316 1308.41,176.67 1310.4,201.602 1312.39,311.154 1314.39,256.463 1316.38,229.283 1318.37,269.389 1320.37,307.265 1322.36,110.275 1324.35,164.606 1326.35,216.969 1328.34,281.29 1330.33,165.065 1332.33,190.195 1334.32,205.898 1336.31,179.679 1338.3,210.233 1340.3,211.56 1342.29,272.422 1344.28,344.565 1346.28,230.742 1348.27,248.291 1350.26,180.047 1352.26,318.652 1354.25,219.236 1356.24,196.878 1358.24,371.869 1360.23,220.591 1362.22,170.338 1364.22,160.291 1366.21,326.748 1368.2,181.895 1370.2,138.356 1372.19,272.54 1374.18,193.239 1376.17,114.758 1378.17,325.879 1380.16,195.646 1382.15,143.545 1384.15,236.694 1386.14,184.783 1388.13,300.612 1390.13,213.301 1392.12,127.35 1394.11,178.951 1396.11,145.895 1398.1,189.042 1400.09,278.913 1402.09,148.599 1404.08,218.274 1406.07,154.128 1408.06,209.188 1410.06,323.075 1412.05,282.752 1414.04,103.481 1416.04,355.309 1418.03,186.091 1420.02,201.522 1422.02,182.643 1424.01,112.638 1426,316.604 1428,220.714 1429.99,270.654 1431.98,244.371 1433.98,326.209 1435.97,153.8 1437.96,154.522 1439.96,190.226 1441.95,210.29 1443.94,196.068 1445.93,252.033 1447.93,380.356 1449.92,163.052 1451.91,189.642 1453.91,213.095 1455.9,277.51 1457.89,326.608 1459.89,174.778 1461.88,300.648 1463.87,162.298 1465.87,182.102 1467.86,253.504 1469.85,282.645 1471.85,93.1995 1473.84,221.783 1475.83,136.932 1477.82,397.5 1479.82,208.312 1481.81,197.503 1483.8,351.438 1485.8,207.98 1487.79,288.064 1489.78,148.443 1491.78,152.191 1493.77,321.248 1495.76,283.661 1497.76,283.153 1499.75,200.528 1501.74,168.855 1503.74,296.734 1505.73,312.318 1507.72,209.459 1509.72,307.326 1511.71,241.703 1513.7,261.241 1515.69,156.931 1517.69,244.162 1519.68,267.404 1521.67,247.261 1523.67,158.23 1525.66,230.601 1527.65,443.699 1529.65,164.098 1531.64,126.308 1533.63,272.893 1535.63,147.853 1537.62,142.941 1539.61,248.149 1541.61,193.543 1543.6,137.287 1545.59,191.789 1547.59,194.229 1549.58,223.88 1551.57,187.089 1553.56,265.469 1555.56,337.775 1557.55,191.734 1559.54,190.496 1561.54,267.724 1563.53,289.273 1565.52,170.277 1567.52,416.689 1569.51,192.718 1571.5,257.574 1573.5,96.7331 1575.49,291.149 1577.48,317.277 1579.48,485.394 1581.47,249.509 1583.46,256.386 1585.45,203.028 1587.45,208.028 1589.44,364.465 1591.43,193.376 1593.43,199.907 1595.42,279.35 1597.41,240.292 1599.41,239.684 1601.4,127.865 1603.39,418.758 1605.39,323.09 1607.38,192.289 1609.37,234.617 1611.37,358.464 1613.36,165.074 1615.35,184.114 1617.35,140.547 1619.34,299.385 1621.33,276.208 1623.32,147.235 1625.32,229.004 1627.31,340.541 1629.3,384.389 1631.3,158.865 1633.29,217.649 1635.28,242.18 1637.28,281.157 1639.27,376.324 1641.26,207.133 1643.26,117.553 1645.25,191.542 1647.24,192.981 1649.24,215.377 1651.23,152.828 1653.22,260.482 1655.21,164.491 1657.21,256.605 1659.2,217.754 1661.19,172.417 1663.19,286.669 1665.18,228.179 1667.17,232.998 1669.17,279.37 1671.16,257.013 1673.15,306.692 1675.15,193.969 1677.14,344.547 1679.13,141.763 1681.13,201.04 1683.12,140.149 1685.11,124.874 1687.11,339.997 1689.1,325.819 1691.09,167.858 1693.08,129.575 1695.08,161.315 1697.07,429.712 1699.06,360.171 1701.06,193.484 1703.05,183.735 1705.04,189.323 1707.04,201.385 1709.03,188.483 1711.02,298.041 1713.02,264.54 1715.01,259.941 1717,255.385 1719,423.546 1720.99,299.018 1722.98,168.008 1724.97,270.654 1726.97,351.832 1728.96,330.678 1730.95,199.719 1732.95,217.308 1734.94,130.13 1736.93,179.563 1738.93,182.838 1740.92,123.737 1742.91,469.987 1744.91,186.255 1746.9,209.298 1748.89,301.192 1750.89,165.782 1752.88,166.217 1754.87,225.161 1756.87,180.777 1758.86,155.778 1760.85,358.961 1762.84,189.252 1764.84,155.227 1766.83,287.502 1768.82,136.966 1770.82,181.332 1772.81,180.624 1774.8,158.19 1776.8,265.963 1778.79,311.061 1780.78,171.104 1782.78,117.083 1784.77,492.855 1786.76,314.428 1788.76,252.654 1790.75,164.332 1792.74,243.37 1794.74,143.015 1796.73,181.501 1798.72,89.8377 1800.71,301.466 1802.71,183.488 1804.7,233.859 1806.69,170.307 1808.69,261.185 1810.68,132.03 1812.67,333.678 1814.67,370.032 1816.66,341.021 1818.65,246.441 1820.65,161.174 1822.64,184.414 1824.63,348.45 1826.63,274.66 1828.62,189.216 1830.61,278.512 1832.6,236.693 1834.6,265.528 1836.59,143.562 1838.58,152.822 1840.58,92.0544 1842.57,363.299 1844.56,242.452 1846.56,208.828 1848.55,203.193 1850.54,317.549 1852.54,241.768 1854.53,160.094 1856.52,332.228 1858.52,188.069 1860.51,205.035 1862.5,160.117 1864.5,200.733 1866.49,220.811 1868.48,278.246 1870.47,149.243 1872.47,142.271 1874.46,299.054 1876.45,237.125 1878.45,223.488 1880.44,178.412 1882.43,278.374 1884.43,129.421 1886.42,126.146 1888.41,227.952 1890.41,169.887 1892.4,131.567 1894.39,328.593 1896.39,306.191 1898.38,155.797 1900.37,252.933 1902.36,149.349 1904.36,209.511 1906.35,112.271 1908.34,301.7 1910.34,195.878 1912.33,373.047 1914.32,247.979 1916.32,267.157 1918.31,208.921 1920.3,204.345 1922.3,388.545 1924.29,224.346 1926.28,159.689 1928.28,173.542 1930.27,155.629 1932.26,153.922 1934.26,399.331 1936.25,204.975 1938.24,310.287 1940.23,433.532 1942.23,223.536 1944.22,301.635 1946.21,197.534 1948.21,128.877 1950.2,215.959 1952.19,347.14 1954.19,207.86 1956.18,314.737 1958.17,251.306 1960.17,100.019 1962.16,119.624 1964.15,225.52 1966.15,142.913 1968.14,197.321 1970.13,380.075 1972.12,147.557 1974.12,325.698 1976.11,299.838 1978.1,230.766 1980.1,190.488 1982.09,252.437 1984.08,266.295 1986.08,240.581 1988.07,228.673 1990.06,198.774 1992.06,309.288 1994.05,255.503 1996.04,285.594 1998.04,251.094 2000.03,266.239 2002.02,199.607 2004.02,113.055 2006.01,176.973 2008,281.006 2009.99,272.859 2011.99,400.543 2013.98,162.806 2015.97,278.696 2017.97,189.757 2019.96,484.762 2021.95,269.587 2023.95,169.841 2025.94,246.764 2027.93,255.565 2029.93,226.543 2031.92,159.688 2033.91,201.985 2035.91,258.585 2037.9,151.917 2039.89,94.2406 2041.89,192.112 2043.88,147.796 2045.87,222.019 2047.86,284.477 2049.86,169.138 2051.85,159.506 2053.84,130.467 2055.84,284.77 2057.83,199.355 2059.82,242.385 2061.82,169.045 2063.81,97.2147 2065.8,86.1857 2067.8,260.158 2069.79,343.717 2071.78,156.917 2073.78,169.078 2075.77,391.292 2077.76,130.106 2079.75,286.26 2081.75,259.812 2083.74,401.638 2085.73,148.774 2087.73,115.562 2089.72,181.073 2091.71,303.866 2093.71,292.758 2095.7,347.477 2097.69,145.544 2099.69,287.536 2101.68,266.764 2103.67,315.885 2105.67,226.85 2107.66,235.531 2109.65,155.989 2111.65,137.469 2113.64,200.097 2115.63,221.743 2117.62,242.488 2119.62,172.176 2121.61,122.974 2123.6,336.2 2125.6,155.147 2127.59,269.266 2129.58,249.376 2131.58,440.182 2133.57,287.109 2135.56,290.907 2137.56,429.149 2139.55,316.503 2141.54,137.942 2143.54,137.904 2145.53,240.544 2147.52,225.771 2149.51,200.58 2151.51,221.564 2153.5,354.471 2155.49,138.562 2157.49,255.808 2159.48,287.231 2161.47,366.993 2163.47,325.564 2165.46,323.47 2167.45,266.915 2169.45,182.355 2171.44,193.642 2173.43,135.703 2175.43,355.091 2177.42,174.591 2179.41,161.205 2181.41,268.279 2183.4,182.332 2185.39,241.418 2187.38,306.826 2189.38,315.914 2191.37,221.181 2193.36,313.764 2195.36,276.683 2197.35,293.122 2199.34,167.309 2201.34,249.09 2203.33,219.126 2205.32,211.281 2207.32,241.841 2209.31,254.287 2211.3,298.549 2213.3,190.923 2215.29,423.571 2217.28,239.668 2219.27,258.731 2221.27,149.124 2223.26,290.414 2225.25,233.926 2227.25,202.911 2229.24,267.568 2231.23,204.378 2233.23,127.532 2235.22,144.253 2237.21,271.905 2239.21,261.385 2241.2,327.82 2243.19,155.213 2245.19,169.916 2247.18,305.103 2249.17,230.756 2251.17,167.792 2253.16,170.171 2255.15,373.266 2257.14,166.819 2259.14,209.067 2261.13,330.709 2263.12,247.376 2265.12,195.683 2267.11,249.582 2269.1,266.661 2271.1,162.375 2273.09,146.043 2275.08,260.333 2277.08,236.189 2279.07,420.299 2281.06,204.011 2283.06,378.272 2285.05,244.214 2287.04,247.827 2289.04,176.874 2291.03,380.456 2293.02,187.648 "/>
<polyline clip-path="url(#clip312)" style="stroke:#e26f46; stroke-linecap:round; stroke-linejoin:round; stroke-width:4; stroke-opacity:1; fill:none" points="301.869,915.197 303.862,948.899 305.856,907.8 307.849,905.792 309.842,903.424 311.835,892.872 313.828,879.089 315.821,884.139 317.814,871.866 319.808,886.942 321.801,854.571 323.794,844.652 325.787,838.487 327.78,839.22 329.773,835.348 331.766,814.641 333.76,810.7 335.753,817.898 337.746,813.508 339.739,810.611 341.732,807.131 343.725,788.726 345.718,777.512 347.712,759.36 349.705,777.48 351.698,747.534 353.691,757.067 355.684,753.034 357.677,754.238 359.67,739.252 361.664,720.964 363.657,731.424 365.65,741.319 367.643,719.001 369.636,721.279 371.629,710.949 373.622,690.502 375.616,695.206 377.609,688.154 379.602,676.532 381.595,669.34 383.588,680.334 385.581,677.159 387.574,661.342 389.568,663.082 391.561,643.181 393.554,652.692 395.547,622.966 397.54,623.264 399.533,629.592 401.526,626.679 403.52,645.461 405.513,612.953 407.506,604.088 409.499,600.275 411.492,615.184 413.485,615.702 415.479,587.039 417.472,588.284 419.465,580.803 421.458,580.145 423.451,572.093 425.444,585.77 427.437,568.231 429.431,555.598 431.424,563.197 433.417,579.21 435.41,555.436 437.403,544.753 439.396,535.243 441.389,532.105 443.383,560.759 445.376,531.418 447.369,542.159 449.362,527.198 451.355,535.64 453.348,523.519 455.341,507.197 457.335,494.791 459.328,500.649 461.321,510.544 463.314,512.556 465.307,517.334 467.3,495.821 469.293,479.002 471.287,474.893 473.28,498.254 475.273,473.992 477.266,473.246 479.259,475.278 481.252,469.42 483.245,477.387 485.239,442.86 487.232,459.757 489.225,483.381 491.218,455.406 493.211,464.923 495.204,439.621 497.197,447.886 499.191,461.337 501.184,433.319 503.177,448.293 505.17,448.676 507.163,429.777 509.156,419.935 511.149,423.573 513.143,417.166 515.136,406.977 517.129,424.617 519.122,429.924 521.115,408.663 523.108,402.585 525.101,395.728 527.095,403.156 529.088,422.101 531.081,402.64 533.074,417.649 535.067,416.563 537.06,416.328 539.054,391.873 541.047,391.669 543.04,389.185 545.033,383.789 547.026,385.589 549.019,375.244 551.012,384.432 553.006,397.803 554.999,367.462 556.992,375.586 558.985,387.316 560.978,372.543 562.971,372.109 564.964,364.445 566.958,357.254 568.951,362.883 570.944,351.561 572.937,344.892 574.93,347.001 576.923,339.302 578.916,340.589 580.91,336.43 582.903,346.267 584.896,350.514 586.889,354.331 588.882,347.721 590.875,349.41 592.868,338.978 594.862,337.747 596.855,327.068 598.848,333.327 600.841,335.388 602.834,332.41 604.827,316.308 606.82,320.035 608.814,325.941 610.807,331.285 612.8,336.255 614.793,328.573 616.786,313.923 618.779,314.225 620.772,323.373 622.766,320.141 624.759,307.414 626.752,321.397 628.745,326.024 630.738,306.802 632.731,309.319 634.724,317.349 636.718,298.783 638.711,308.226 640.704,306.264 642.697,312.955 644.69,303.182 646.683,293.52 648.677,305.848 650.67,305.041 652.663,285.56 654.656,290.067 656.649,280.594 658.642,298.511 660.635,297.398 662.629,285.052 664.622,299.546 666.615,302.293 668.608,284.637 670.601,289.55 672.594,297.643 674.587,293.565 676.581,276.276 678.574,284.509 680.567,301.059 682.56,278.819 684.553,318.238 686.546,277.594 688.539,287.789 690.533,276.563 692.526,273.641 694.519,291.579 696.512,274.807 698.505,280.059 700.498,272.86 702.491,273.216 704.485,266.265 706.478,282.654 708.471,272.974 710.464,267.321 712.457,265.936 714.45,274.109 716.443,279.367 718.437,284.62 720.43,269.324 722.423,269.088 724.416,270.127 726.409,263.875 728.402,252.839 730.395,255.384 732.389,272.426 734.382,268.382 736.375,265.658 738.368,273.698 740.361,249.148 742.354,269.394 744.347,254.255 746.341,252.798 748.334,262.16 750.327,276.454 752.32,254.061 754.313,252.642 756.306,259.744 758.299,263.681 760.293,293.128 762.286,251.351 764.279,253.774 766.272,255.061 768.265,253.406 770.258,248.001 772.252,248.098 774.245,265.942 776.238,256.381 778.231,249.332 780.224,253.799 782.217,255.876 784.21,265.188 786.204,257.092 788.197,256.604 790.19,259.609 792.183,254.041 794.176,250.774 796.169,268.781 798.162,250.482 800.156,239.909 802.149,255.184 804.142,262.694 806.135,261.014 808.128,243.535 810.121,250.015 812.114,245.564 814.108,239.378 816.101,265.677 818.094,247.237 820.087,260.945 822.08,246.814 824.073,240.324 826.066,250.579 828.06,246.482 830.053,238.901 832.046,249.486 834.039,258.75 836.032,249.535 838.025,239.86 840.018,250.502 842.012,247.162 844.005,238.309 845.998,260.714 847.991,252.479 849.984,248.166 851.977,251.612 853.97,250.259 855.964,229.022 857.957,238.662 859.95,246.02 861.943,227.107 863.936,237.724 865.929,242.105 867.922,253.315 869.916,243.767 871.909,239.024 873.902,237.142 875.895,234.676 877.888,240.437 879.881,221.383 881.874,235.941 883.868,232.769 885.861,246.998 887.854,234.217 889.847,246.197 891.84,241.805 893.833,244.442 895.827,245.927 897.82,238.111 899.813,253.737 901.806,234.73 903.799,235.392 905.792,240.605 907.785,253.06 909.779,247.119 911.772,244.204 913.765,235.037 915.758,247.898 917.751,246.957 919.744,238.846 921.737,225.665 923.731,232.413 925.724,244.524 927.717,248.648 929.71,242.386 931.703,248.08 933.696,222.4 935.689,238.32 937.683,243.69 939.676,242.817 941.669,235.457 943.662,226.626 945.655,235.439 947.648,236.835 949.641,246.622 951.635,257.864 953.628,234.736 955.621,229.837 957.614,236.653 959.607,230.591 961.6,239.325 963.593,240.003 965.587,243.719 967.58,250.806 969.573,229.619 971.566,248.237 973.559,235.943 975.552,234.502 977.545,234.161 979.539,246.547 981.532,234.119 983.525,239.259 985.518,235.313 987.511,231.327 989.504,231.749 991.497,230.756 993.491,234.883 995.484,237.967 997.477,240.344 999.47,249.617 1001.46,223.618 1003.46,226.135 1005.45,245.253 1007.44,255.006 1009.44,233.567 1011.43,231.533 1013.42,231.052 1015.42,237.45 1017.41,243.03 1019.4,229.508 1021.39,233.414 1023.39,221.592 1025.38,238.048 1027.37,241.19 1029.37,216.355 1031.36,226.514 1033.35,240.402 1035.35,231.126 1037.34,233.546 1039.33,236.676 1041.33,232.808 1043.32,233.308 1045.31,232.905 1047.31,230.262 1049.3,229.829 1051.29,252.12 1053.28,234.863 1055.28,229.663 1057.27,240.653 1059.26,232.005 1061.26,238.4 1063.25,222.03 1065.24,246.497 1067.24,235.391 1069.23,237.027 1071.22,232.149 1073.22,232.339 1075.21,239.668 1077.2,218.354 1079.2,232.378 1081.19,229.069 1083.18,232.054 1085.18,234.731 1087.17,246.64 1089.16,244.139 1091.15,216.407 1093.15,244.312 1095.14,232.068 1097.13,232.139 1099.13,232.534 1101.12,236.939 1103.11,265.042 1105.11,233.042 1107.1,240.487 1109.09,250.886 1111.09,250.645 1113.08,234.007 1115.07,226.602 1117.07,243.601 1119.06,235.329 1121.05,226.028 1123.05,236.292 1125.04,220.083 1127.03,242.993 1129.02,229.626 1131.02,249.18 1133.01,228.865 1135,227.063 1137,223.936 1138.99,235.778 1140.98,219.162 1142.98,226.844 1144.97,240.932 1146.96,238.241 1148.96,243.466 1150.95,242.071 1152.94,217.371 1154.94,253.092 1156.93,255.39 1158.92,237.438 1160.91,225.032 1162.91,222.267 1164.9,235.219 1166.89,223.12 1168.89,228.783 1170.88,220.566 1172.87,237.315 1174.87,221.848 1176.86,241.634 1178.85,228.96 1180.85,249.098 1182.84,234.817 1184.83,223.886 1186.83,224.75 1188.82,237.834 1190.81,237.797 1192.81,234.985 1194.8,233.314 1196.79,242.604 1198.78,253.909 1200.78,227.42 1202.77,236.43 1204.76,235.528 1206.76,236.406 1208.75,230.755 1210.74,237.833 1212.74,243.492 1214.73,238.598 1216.72,231.992 1218.72,218.733 1220.71,243.876 1222.7,246.108 1224.7,236.988 1226.69,235.31 1228.68,226.85 1230.67,226.167 1232.67,235.411 1234.66,223.335 1236.65,239.117 1238.65,237.629 1240.64,252.396 1242.63,235.484 1244.63,232.595 1246.62,216.73 1248.61,230.619 1250.61,223.527 1252.6,238.035 1254.59,226.551 1256.59,241.101 1258.58,227.724 1260.57,242.399 1262.57,230.065 1264.56,235.308 1266.55,234.715 1268.54,235.915 1270.54,219.253 1272.53,242.499 1274.52,238.345 1276.52,227.345 1278.51,227.862 1280.5,241.196 1282.5,249.043 1284.49,229.932 1286.48,220.491 1288.48,238.294 1290.47,230.855 1292.46,238.459 1294.46,236.928 1296.45,226.581 1298.44,227.427 1300.44,229.307 1302.43,229.338 1304.42,229.094 1306.41,219.333 1308.41,223.495 1310.4,235.919 1312.39,242.581 1314.39,223.518 1316.38,251.409 1318.37,243.538 1320.37,243.651 1322.36,227.271 1324.35,224.779 1326.35,227.4 1328.34,245.359 1330.33,240.053 1332.33,222.124 1334.32,225.593 1336.31,249.233 1338.3,243.542 1340.3,223.173 1342.29,238.339 1344.28,232.694 1346.28,219.323 1348.27,239.547 1350.26,220.592 1352.26,230.618 1354.25,226.548 1356.24,245.989 1358.24,232.363 1360.23,227.399 1362.22,232.651 1364.22,228.001 1366.21,236.02 1368.2,254.411 1370.2,242.83 1372.19,226.807 1374.18,224.277 1376.17,231.759 1378.17,233.58 1380.16,226.87 1382.15,218.568 1384.15,225.734 1386.14,229.723 1388.13,234.965 1390.13,231.454 1392.12,236.595 1394.11,240.282 1396.11,235.97 1398.1,237.486 1400.09,227.307 1402.09,223.128 1404.08,246.607 1406.07,235.524 1408.06,242.88 1410.06,235.955 1412.05,223.164 1414.04,225.335 1416.04,230.275 1418.03,231.688 1420.02,229.53 1422.02,230.969 1424.01,230.524 1426,232.755 1428,223.388 1429.99,221.801 1431.98,249.422 1433.98,226.854 1435.97,235.894 1437.96,231.503 1439.96,242.526 1441.95,231.248 1443.94,216.737 1445.93,226.607 1447.93,226.151 1449.92,245.18 1451.91,230.616 1453.91,229.093 1455.9,222.482 1457.89,233.483 1459.89,223.571 1461.88,233.022 1463.87,241.407 1465.87,232.469 1467.86,223.236 1469.85,226.26 1471.85,225.411 1473.84,232.64 1475.83,241.386 1477.82,219.628 1479.82,246.661 1481.81,243.228 1483.8,238.491 1485.8,240.329 1487.79,238.695 1489.78,230.907 1491.78,245.176 1493.77,252.07 1495.76,223.217 1497.76,229.331 1499.75,228.039 1501.74,231.606 1503.74,231.439 1505.73,254.565 1507.72,243.248 1509.72,240.08 1511.71,236.875 1513.7,226.7 1515.69,244.472 1517.69,235.319 1519.68,243.187 1521.67,235.276 1523.67,234.497 1525.66,248.984 1527.65,239.223 1529.65,228.594 1531.64,222.655 1533.63,229.211 1535.63,223.999 1537.62,238.388 1539.61,243.732 1541.61,234.141 1543.6,236.481 1545.59,227.628 1547.59,221.273 1549.58,244.496 1551.57,233.436 1553.56,234.769 1555.56,243.135 1557.55,233.821 1559.54,235.738 1561.54,237.485 1563.53,235.19 1565.52,227.567 1567.52,236.484 1569.51,229.025 1571.5,231.819 1573.5,238.913 1575.49,228.481 1577.48,235.122 1579.48,236.756 1581.47,237.974 1583.46,233.382 1585.45,236.441 1587.45,237.531 1589.44,230.713 1591.43,235.321 1593.43,221.58 1595.42,235.955 1597.41,245.085 1599.41,240.385 1601.4,235.051 1603.39,235.165 1605.39,244.024 1607.38,237.615 1609.37,240.362 1611.37,230.015 1613.36,245.689 1615.35,235.908 1617.35,241.769 1619.34,235.348 1621.33,247.353 1623.32,225.495 1625.32,233.061 1627.31,231.134 1629.3,236.714 1631.3,249.498 1633.29,238.954 1635.28,246.021 1637.28,229.826 1639.27,221.056 1641.26,224.329 1643.26,228.756 1645.25,243.03 1647.24,241.619 1649.24,246.293 1651.23,233.984 1653.22,228.909 1655.21,236.007 1657.21,246.123 1659.2,236.306 1661.19,230.252 1663.19,243.628 1665.18,241.119 1667.17,228.394 1669.17,229.664 1671.16,240.87 1673.15,236.841 1675.15,232.179 1677.14,245.279 1679.13,226.002 1681.13,237.265 1683.12,236.213 1685.11,235.138 1687.11,231.058 1689.1,225.992 1691.09,232.727 1693.08,236.12 1695.08,235.846 1697.07,238.383 1699.06,228.609 1701.06,251.071 1703.05,231.289 1705.04,234.364 1707.04,244.925 1709.03,226.729 1711.02,240.421 1713.02,226.842 1715.01,235.456 1717,227.272 1719,242.954 1720.99,226.075 1722.98,232.368 1724.97,235.337 1726.97,231.394 1728.96,230.69 1730.95,255.235 1732.95,235.914 1734.94,219.469 1736.93,235.042 1738.93,230.732 1740.92,236.413 1742.91,225.544 1744.91,226.968 1746.9,228.134 1748.89,251.232 1750.89,238.567 1752.88,237.072 1754.87,225.706 1756.87,236.901 1758.86,233.094 1760.85,212.792 1762.84,244.556 1764.84,227.296 1766.83,240.789 1768.82,235.089 1770.82,226.692 1772.81,244.027 1774.8,241.221 1776.8,246.143 1778.79,231.483 1780.78,226.457 1782.78,233.015 1784.77,228.449 1786.76,241.906 1788.76,239.087 1790.75,244.69 1792.74,225.626 1794.74,258.221 1796.73,227.429 1798.72,223.838 1800.71,225.04 1802.71,238.004 1804.7,222.514 1806.69,232.62 1808.69,234.509 1810.68,225.171 1812.67,244.615 1814.67,235.48 1816.66,241.227 1818.65,234.862 1820.65,235.719 1822.64,223.425 1824.63,245.741 1826.63,245.484 1828.62,253.202 1830.61,223.855 1832.6,242.614 1834.6,231.376 1836.59,231.363 1838.58,219.172 1840.58,228.49 1842.57,226.435 1844.56,216.544 1846.56,239.411 1848.55,236.589 1850.54,243.752 1852.54,218.867 1854.53,216.504 1856.52,230.334 1858.52,228.186 1860.51,227.513 1862.5,233.178 1864.5,231.884 1866.49,249.299 1868.48,223.356 1870.47,234.258 1872.47,237.901 1874.46,229.7 1876.45,224.725 1878.45,228.026 1880.44,247.146 1882.43,222.194 1884.43,235.729 1886.42,241.549 1888.41,238.28 1890.41,254.319 1892.4,244.944 1894.39,224.109 1896.39,238.95 1898.38,234.207 1900.37,248.124 1902.36,229.838 1904.36,235.765 1906.35,229.893 1908.34,225.753 1910.34,235.44 1912.33,223.436 1914.32,229.345 1916.32,234.092 1918.31,230.616 1920.3,231.779 1922.3,220.923 1924.29,231.749 1926.28,234.71 1928.28,237.802 1930.27,230.431 1932.26,245.702 1934.26,220.969 1936.25,240.344 1938.24,238.163 1940.23,230.502 1942.23,236.6 1944.22,213.712 1946.21,237.219 1948.21,235.355 1950.2,249.09 1952.19,233.376 1954.19,222.696 1956.18,226.415 1958.17,233.558 1960.17,225.586 1962.16,250.688 1964.15,216.711 1966.15,238.197 1968.14,226.442 1970.13,239.769 1972.12,232.971 1974.12,229.145 1976.11,222.735 1978.1,237.787 1980.1,228.617 1982.09,238.306 1984.08,248.208 1986.08,232.345 1988.07,227.479 1990.06,227.011 1992.06,239.473 1994.05,227.313 1996.04,252.476 1998.04,242.352 2000.03,237.525 2002.02,236.464 2004.02,232.996 2006.01,228.518 2008,232.949 2009.99,230.113 2011.99,228.556 2013.98,226.61 2015.97,227.367 2017.97,231.247 2019.96,233.01 2021.95,231.222 2023.95,235.656 2025.94,241.699 2027.93,240.944 2029.93,246.132 2031.92,226.326 2033.91,237.293 2035.91,221.652 2037.9,235.641 2039.89,239.627 2041.89,241.207 2043.88,245.238 2045.87,230.797 2047.86,232.372 2049.86,238.11 2051.85,235.766 2053.84,234.541 2055.84,225.214 2057.83,232.725 2059.82,217.795 2061.82,223.077 2063.81,240.436 2065.8,229.994 2067.8,227.548 2069.79,233.734 2071.78,231.885 2073.78,237.782 2075.77,242.473 2077.76,219.615 2079.75,227.004 2081.75,218.66 2083.74,227.629 2085.73,244.555 2087.73,230.854 2089.72,236.752 2091.71,230.884 2093.71,223.448 2095.7,226.97 2097.69,236.987 2099.69,226.404 2101.68,251.595 2103.67,219.011 2105.67,222.57 2107.66,230.254 2109.65,226.405 2111.65,234.92 2113.64,230.758 2115.63,243.634 2117.62,222.513 2119.62,223.617 2121.61,241.371 2123.6,257.792 2125.6,235.436 2127.59,240.61 2129.58,228.676 2131.58,225.414 2133.57,230.445 2135.56,222.997 2137.56,222.56 2139.55,230.733 2141.54,245.169 2143.54,240.048 2145.53,240.005 2147.52,228.179 2149.51,226.882 2151.51,222.284 2153.5,234.683 2155.49,227.267 2157.49,235.957 2159.48,225.341 2161.47,239.347 2163.47,221.177 2165.46,245.173 2167.45,231.809 2169.45,235.427 2171.44,221.444 2173.43,247.538 2175.43,221.071 2177.42,229.094 2179.41,222.426 2181.41,236.129 2183.4,234.372 2185.39,228.426 2187.38,230.237 2189.38,231.082 2191.37,237.013 2193.36,242.35 2195.36,218.509 2197.35,230.331 2199.34,217.595 2201.34,239.069 2203.33,225.752 2205.32,230.653 2207.32,242.022 2209.31,235.693 2211.3,214.163 2213.3,250.026 2215.29,233.481 2217.28,236.026 2219.27,220.495 2221.27,226.433 2223.26,231.75 2225.25,240.386 2227.25,223.272 2229.24,241.4 2231.23,225.939 2233.23,241.838 2235.22,242.297 2237.21,238.679 2239.21,234.562 2241.2,222.515 2243.19,231.41 2245.19,235.695 2247.18,238.597 2249.17,234.915 2251.17,235.638 2253.16,238.308 2255.15,239.075 2257.14,247.838 2259.14,220.138 2261.13,243.767 2263.12,224.353 2265.12,220.596 2267.11,242.212 2269.1,226.36 2271.1,225.457 2273.09,226.129 2275.08,235.583 2277.08,246.016 2279.07,222.601 2281.06,237.434 2283.06,218.852 2285.05,228.092 2287.04,222.3 2289.04,223.35 2291.03,239.929 2293.02,228.082 "/>
<path clip-path="url(#clip310)" d="M1736.78 1377.32 L2282.4 1377.32 L2282.4 1221.8 L1736.78 1221.8  Z" fill="#ffffff" fill-rule="evenodd" fill-opacity="1"/>
<polyline clip-path="url(#clip310)" style="stroke:#000000; stroke-linecap:round; stroke-linejoin:round; stroke-width:4; stroke-opacity:1; fill:none" points="1736.78,1377.32 2282.4,1377.32 2282.4,1221.8 1736.78,1221.8 1736.78,1377.32 "/>
<polyline clip-path="url(#clip310)" style="stroke:#009af9; stroke-linecap:round; stroke-linejoin:round; stroke-width:4; stroke-opacity:1; fill:none" points="1760.23,1273.64 1900.94,1273.64 "/>
<path clip-path="url(#clip310)" d="M1929.07 1274.41 L1929.07 1287.07 L1936.57 1287.07 Q1940.34 1287.07 1942.15 1285.52 Q1943.98 1283.95 1943.98 1280.73 Q1943.98 1277.49 1942.15 1275.96 Q1940.34 1274.41 1936.57 1274.41 L1929.07 1274.41 M1929.07 1260.2 L1929.07 1270.61 L1935.99 1270.61 Q1939.42 1270.61 1941.08 1269.34 Q1942.77 1268.05 1942.77 1265.41 Q1942.77 1262.79 1941.08 1261.49 Q1939.42 1260.2 1935.99 1260.2 L1929.07 1260.2 M1924.39 1256.36 L1936.34 1256.36 Q1941.68 1256.36 1944.58 1258.58 Q1947.47 1260.8 1947.47 1264.9 Q1947.47 1268.07 1945.99 1269.94 Q1944.51 1271.82 1941.64 1272.28 Q1945.09 1273.02 1946.98 1275.38 Q1948.91 1277.72 1948.91 1281.24 Q1948.91 1285.87 1945.76 1288.39 Q1942.61 1290.92 1936.8 1290.92 L1924.39 1290.92 L1924.39 1256.36 Z" fill="#000000" fill-rule="nonzero" fill-opacity="1" /><path clip-path="url(#clip310)" d="M1961.59 1274.41 L1961.59 1287.07 L1969.09 1287.07 Q1972.86 1287.07 1974.67 1285.52 Q1976.5 1283.95 1976.5 1280.73 Q1976.5 1277.49 1974.67 1275.96 Q1972.86 1274.41 1969.09 1274.41 L1961.59 1274.41 M1961.59 1260.2 L1961.59 1270.61 L1968.51 1270.61 Q1971.94 1270.61 1973.6 1269.34 Q1975.29 1268.05 1975.29 1265.41 Q1975.29 1262.79 1973.6 1261.49 Q1971.94 1260.2 1968.51 1260.2 L1961.59 1260.2 M1956.92 1256.36 L1968.86 1256.36 Q1974.21 1256.36 1977.1 1258.58 Q1979.99 1260.8 1979.99 1264.9 Q1979.99 1268.07 1978.51 1269.94 Q1977.03 1271.82 1974.16 1272.28 Q1977.61 1273.02 1979.51 1275.38 Q1981.43 1277.72 1981.43 1281.24 Q1981.43 1285.87 1978.28 1288.39 Q1975.13 1290.92 1969.32 1290.92 L1956.92 1290.92 L1956.92 1256.36 Z" fill="#000000" fill-rule="nonzero" fill-opacity="1" /><path clip-path="url(#clip310)" d="M1996.89 1290.92 L1983.7 1256.36 L1988.58 1256.36 L1999.53 1285.45 L2010.5 1256.36 L2015.36 1256.36 L2002.19 1290.92 L1996.89 1290.92 Z" fill="#000000" fill-rule="nonzero" fill-opacity="1" /><path clip-path="url(#clip310)" d="M2020.41 1256.36 L2025.09 1256.36 L2025.09 1290.92 L2020.41 1290.92 L2020.41 1256.36 Z" fill="#000000" fill-rule="nonzero" fill-opacity="1" /><path clip-path="url(#clip310)" d="M2075.34 1259.02 L2075.34 1263.95 Q2072.98 1261.75 2070.29 1260.66 Q2067.63 1259.57 2064.62 1259.57 Q2058.7 1259.57 2055.55 1263.21 Q2052.4 1266.82 2052.4 1273.67 Q2052.4 1280.5 2055.55 1284.13 Q2058.7 1287.74 2064.62 1287.74 Q2067.63 1287.74 2070.29 1286.66 Q2072.98 1285.57 2075.34 1283.37 L2075.34 1288.25 Q2072.89 1289.92 2070.13 1290.75 Q2067.4 1291.59 2064.35 1291.59 Q2056.5 1291.59 2051.98 1286.79 Q2047.47 1281.98 2047.47 1273.67 Q2047.47 1265.34 2051.98 1260.55 Q2056.5 1255.73 2064.35 1255.73 Q2067.45 1255.73 2070.18 1256.56 Q2072.93 1257.37 2075.34 1259.02 Z" fill="#000000" fill-rule="nonzero" fill-opacity="1" /><path clip-path="url(#clip310)" d="M2082.56 1256.36 L2102.42 1256.36 L2102.42 1260.29 L2087.24 1260.29 L2087.24 1270.48 L2100.94 1270.48 L2100.94 1274.41 L2087.24 1274.41 L2087.24 1290.92 L2082.56 1290.92 L2082.56 1256.36 Z" fill="#000000" fill-rule="nonzero" fill-opacity="1" /><path clip-path="url(#clip310)" d="M2109.83 1256.36 L2131.68 1256.36 L2131.68 1260.29 L2114.51 1260.29 L2114.51 1270.52 L2130.97 1270.52 L2130.97 1274.46 L2114.51 1274.46 L2114.51 1286.98 L2132.1 1286.98 L2132.1 1290.92 L2109.83 1290.92 L2109.83 1256.36 Z" fill="#000000" fill-rule="nonzero" fill-opacity="1" /><polyline clip-path="url(#clip310)" style="stroke:#e26f46; stroke-linecap:round; stroke-linejoin:round; stroke-width:4; stroke-opacity:1; fill:none" points="1760.23,1325.48 1900.94,1325.48 "/>
<path clip-path="url(#clip310)" d="M1929.07 1326.25 L1929.07 1338.91 L1936.57 1338.91 Q1940.34 1338.91 1942.15 1337.36 Q1943.98 1335.79 1943.98 1332.57 Q1943.98 1329.33 1942.15 1327.8 Q1940.34 1326.25 1936.57 1326.25 L1929.07 1326.25 M1929.07 1312.04 L1929.07 1322.45 L1935.99 1322.45 Q1939.42 1322.45 1941.08 1321.18 Q1942.77 1319.89 1942.77 1317.25 Q1942.77 1314.63 1941.08 1313.33 Q1939.42 1312.04 1935.99 1312.04 L1929.07 1312.04 M1924.39 1308.2 L1936.34 1308.2 Q1941.68 1308.2 1944.58 1310.42 Q1947.47 1312.64 1947.47 1316.74 Q1947.47 1319.91 1945.99 1321.78 Q1944.51 1323.66 1941.64 1324.12 Q1945.09 1324.86 1946.98 1327.22 Q1948.91 1329.56 1948.91 1333.08 Q1948.91 1337.71 1945.76 1340.23 Q1942.61 1342.76 1936.8 1342.76 L1924.39 1342.76 L1924.39 1308.2 Z" fill="#000000" fill-rule="nonzero" fill-opacity="1" /><path clip-path="url(#clip310)" d="M1961.59 1326.25 L1961.59 1338.91 L1969.09 1338.91 Q1972.86 1338.91 1974.67 1337.36 Q1976.5 1335.79 1976.5 1332.57 Q1976.5 1329.33 1974.67 1327.8 Q1972.86 1326.25 1969.09 1326.25 L1961.59 1326.25 M1961.59 1312.04 L1961.59 1322.45 L1968.51 1322.45 Q1971.94 1322.45 1973.6 1321.18 Q1975.29 1319.89 1975.29 1317.25 Q1975.29 1314.63 1973.6 1313.33 Q1971.94 1312.04 1968.51 1312.04 L1961.59 1312.04 M1956.92 1308.2 L1968.86 1308.2 Q1974.21 1308.2 1977.1 1310.42 Q1979.99 1312.64 1979.99 1316.74 Q1979.99 1319.91 1978.51 1321.78 Q1977.03 1323.66 1974.16 1324.12 Q1977.61 1324.86 1979.51 1327.22 Q1981.43 1329.56 1981.43 1333.08 Q1981.43 1337.71 1978.28 1340.23 Q1975.13 1342.76 1969.32 1342.76 L1956.92 1342.76 L1956.92 1308.2 Z" fill="#000000" fill-rule="nonzero" fill-opacity="1" /><path clip-path="url(#clip310)" d="M1996.89 1342.76 L1983.7 1308.2 L1988.58 1308.2 L1999.53 1337.29 L2010.5 1308.2 L2015.36 1308.2 L2002.19 1342.76 L1996.89 1342.76 Z" fill="#000000" fill-rule="nonzero" fill-opacity="1" /><path clip-path="url(#clip310)" d="M2020.41 1308.2 L2025.09 1308.2 L2025.09 1342.76 L2020.41 1342.76 L2020.41 1308.2 Z" fill="#000000" fill-rule="nonzero" fill-opacity="1" /><path clip-path="url(#clip310)" d="M2075.34 1310.86 L2075.34 1315.79 Q2072.98 1313.59 2070.29 1312.5 Q2067.63 1311.41 2064.62 1311.41 Q2058.7 1311.41 2055.55 1315.05 Q2052.4 1318.66 2052.4 1325.51 Q2052.4 1332.34 2055.55 1335.97 Q2058.7 1339.58 2064.62 1339.58 Q2067.63 1339.58 2070.29 1338.5 Q2072.98 1337.41 2075.34 1335.21 L2075.34 1340.09 Q2072.89 1341.76 2070.13 1342.59 Q2067.4 1343.43 2064.35 1343.43 Q2056.5 1343.43 2051.98 1338.63 Q2047.47 1333.82 2047.47 1325.51 Q2047.47 1317.18 2051.98 1312.39 Q2056.5 1307.57 2064.35 1307.57 Q2067.45 1307.57 2070.18 1308.4 Q2072.93 1309.21 2075.34 1310.86 Z" fill="#000000" fill-rule="nonzero" fill-opacity="1" /><path clip-path="url(#clip310)" d="M2082.56 1308.2 L2102.42 1308.2 L2102.42 1312.13 L2087.24 1312.13 L2087.24 1322.32 L2100.94 1322.32 L2100.94 1326.25 L2087.24 1326.25 L2087.24 1342.76 L2082.56 1342.76 L2082.56 1308.2 Z" fill="#000000" fill-rule="nonzero" fill-opacity="1" /><path clip-path="url(#clip310)" d="M2109.83 1308.2 L2131.68 1308.2 L2131.68 1312.13 L2114.51 1312.13 L2114.51 1322.36 L2130.97 1322.36 L2130.97 1326.3 L2114.51 1326.3 L2114.51 1338.82 L2132.1 1338.82 L2132.1 1342.76 L2109.83 1342.76 L2109.83 1308.2 Z" fill="#000000" fill-rule="nonzero" fill-opacity="1" /><path clip-path="url(#clip310)" d="M2168.88 1311.37 Q2163.79 1311.37 2160.78 1315.16 Q2157.79 1318.96 2157.79 1325.51 Q2157.79 1332.04 2160.78 1335.83 Q2163.79 1339.63 2168.88 1339.63 Q2173.97 1339.63 2176.94 1335.83 Q2179.92 1332.04 2179.92 1325.51 Q2179.92 1318.96 2176.94 1315.16 Q2173.97 1311.37 2168.88 1311.37 M2175.43 1342.13 L2181.59 1348.87 L2175.94 1348.87 L2170.83 1343.33 Q2170.06 1343.38 2169.65 1343.4 Q2169.25 1343.43 2168.88 1343.43 Q2161.59 1343.43 2157.21 1338.57 Q2152.86 1333.68 2152.86 1325.51 Q2152.86 1317.32 2157.21 1312.45 Q2161.59 1307.57 2168.88 1307.57 Q2176.15 1307.57 2180.5 1312.45 Q2184.85 1317.32 2184.85 1325.51 Q2184.85 1331.53 2182.42 1335.81 Q2180.02 1340.09 2175.43 1342.13 Z" fill="#000000" fill-rule="nonzero" fill-opacity="1" /><path clip-path="url(#clip310)" d="M2192.17 1308.2 L2199.14 1308.2 L2207.96 1331.71 L2216.82 1308.2 L2223.79 1308.2 L2223.79 1342.76 L2219.23 1342.76 L2219.23 1312.41 L2210.32 1336.11 L2205.62 1336.11 L2196.71 1312.41 L2196.71 1342.76 L2192.17 1342.76 L2192.17 1308.2 Z" fill="#000000" fill-rule="nonzero" fill-opacity="1" /><path clip-path="url(#clip310)" d="M2258.95 1310.86 L2258.95 1315.79 Q2256.59 1313.59 2253.9 1312.5 Q2251.24 1311.41 2248.23 1311.41 Q2242.31 1311.41 2239.16 1315.05 Q2236.01 1318.66 2236.01 1325.51 Q2236.01 1332.34 2239.16 1335.97 Q2242.31 1339.58 2248.23 1339.58 Q2251.24 1339.58 2253.9 1338.5 Q2256.59 1337.41 2258.95 1335.21 L2258.95 1340.09 Q2256.5 1341.76 2253.74 1342.59 Q2251.01 1343.43 2247.96 1343.43 Q2240.11 1343.43 2235.59 1338.63 Q2231.08 1333.82 2231.08 1325.51 Q2231.08 1317.18 2235.59 1312.39 Q2240.11 1307.57 2247.96 1307.57 Q2251.06 1307.57 2253.79 1308.4 Q2256.54 1309.21 2258.95 1310.86 Z" fill="#000000" fill-rule="nonzero" fill-opacity="1" /></svg>
