<?xml version="1.0" encoding="utf-8"?>
<svg xmlns="http://www.w3.org/2000/svg" xmlns:xlink="http://www.w3.org/1999/xlink" width="600" height="400" viewBox="0 0 2400 1600">
<defs>
  <clipPath id="clip760">
    <rect x="0" y="0" width="2400" height="1600"/>
  </clipPath>
</defs>
<path clip-path="url(#clip760)" d="M0 1600 L2400 1600 L2400 0 L0 0  Z" fill="#ffffff" fill-rule="evenodd" fill-opacity="1"/>
<defs>
  <clipPath id="clip761">
    <rect x="480" y="0" width="1681" height="1600"/>
  </clipPath>
</defs>
<path clip-path="url(#clip760)" d="M332.62 1423.18 L2352.76 1423.18 L2352.76 47.2441 L332.62 47.2441  Z" fill="#ffffff" fill-rule="evenodd" fill-opacity="1"/>
<defs>
  <clipPath id="clip762">
    <rect x="332" y="47" width="2021" height="1377"/>
  </clipPath>
</defs>
<polyline clip-path="url(#clip762)" style="stroke:#000000; stroke-linecap:round; stroke-linejoin:round; stroke-width:2; stroke-opacity:0.1; fill:none" points="356.928,1423.18 356.928,47.2441 "/>
<polyline clip-path="url(#clip762)" style="stroke:#000000; stroke-linecap:round; stroke-linejoin:round; stroke-width:2; stroke-opacity:0.1; fill:none" points="1007.65,1423.18 1007.65,47.2441 "/>
<polyline clip-path="url(#clip762)" style="stroke:#000000; stroke-linecap:round; stroke-linejoin:round; stroke-width:2; stroke-opacity:0.1; fill:none" points="1658.37,1423.18 1658.37,47.2441 "/>
<polyline clip-path="url(#clip762)" style="stroke:#000000; stroke-linecap:round; stroke-linejoin:round; stroke-width:2; stroke-opacity:0.1; fill:none" points="2309.09,1423.18 2309.09,47.2441 "/>
<polyline clip-path="url(#clip762)" style="stroke:#000000; stroke-linecap:round; stroke-linejoin:round; stroke-width:2; stroke-opacity:0.1; fill:none" points="332.62,1184.49 2352.76,1184.49 "/>
<polyline clip-path="url(#clip762)" style="stroke:#000000; stroke-linecap:round; stroke-linejoin:round; stroke-width:2; stroke-opacity:0.1; fill:none" points="332.62,837.037 2352.76,837.037 "/>
<polyline clip-path="url(#clip762)" style="stroke:#000000; stroke-linecap:round; stroke-linejoin:round; stroke-width:2; stroke-opacity:0.1; fill:none" points="332.62,489.589 2352.76,489.589 "/>
<polyline clip-path="url(#clip762)" style="stroke:#000000; stroke-linecap:round; stroke-linejoin:round; stroke-width:2; stroke-opacity:0.1; fill:none" points="332.62,142.14 2352.76,142.14 "/>
<polyline clip-path="url(#clip760)" style="stroke:#000000; stroke-linecap:round; stroke-linejoin:round; stroke-width:4; stroke-opacity:1; fill:none" points="332.62,1423.18 2352.76,1423.18 "/>
<polyline clip-path="url(#clip760)" style="stroke:#000000; stroke-linecap:round; stroke-linejoin:round; stroke-width:4; stroke-opacity:1; fill:none" points="356.928,1423.18 356.928,1404.28 "/>
<polyline clip-path="url(#clip760)" style="stroke:#000000; stroke-linecap:round; stroke-linejoin:round; stroke-width:4; stroke-opacity:1; fill:none" points="1007.65,1423.18 1007.65,1404.28 "/>
<polyline clip-path="url(#clip760)" style="stroke:#000000; stroke-linecap:round; stroke-linejoin:round; stroke-width:4; stroke-opacity:1; fill:none" points="1658.37,1423.18 1658.37,1404.28 "/>
<polyline clip-path="url(#clip760)" style="stroke:#000000; stroke-linecap:round; stroke-linejoin:round; stroke-width:4; stroke-opacity:1; fill:none" points="2309.09,1423.18 2309.09,1404.28 "/>
<path clip-path="url(#clip760)" d="M356.928 1454.1 Q353.317 1454.1 351.488 1457.66 Q349.682 1461.2 349.682 1468.33 Q349.682 1475.44 351.488 1479.01 Q353.317 1482.55 356.928 1482.55 Q360.562 1482.55 362.367 1479.01 Q364.196 1475.44 364.196 1468.33 Q364.196 1461.2 362.367 1457.66 Q360.562 1454.1 356.928 1454.1 M356.928 1450.39 Q362.738 1450.39 365.793 1455 Q368.872 1459.58 368.872 1468.33 Q368.872 1477.06 365.793 1481.67 Q362.738 1486.25 356.928 1486.25 Q351.118 1486.25 348.039 1481.67 Q344.983 1477.06 344.983 1468.33 Q344.983 1459.58 348.039 1455 Q351.118 1450.39 356.928 1450.39 Z" fill="#000000" fill-rule="nonzero" fill-opacity="1" /><path clip-path="url(#clip760)" d="M982.338 1481.64 L989.977 1481.64 L989.977 1455.28 L981.666 1456.95 L981.666 1452.69 L989.93 1451.02 L994.606 1451.02 L994.606 1481.64 L1002.24 1481.64 L1002.24 1485.58 L982.338 1485.58 L982.338 1481.64 Z" fill="#000000" fill-rule="nonzero" fill-opacity="1" /><path clip-path="url(#clip760)" d="M1021.69 1454.1 Q1018.08 1454.1 1016.25 1457.66 Q1014.44 1461.2 1014.44 1468.33 Q1014.44 1475.44 1016.25 1479.01 Q1018.08 1482.55 1021.69 1482.55 Q1025.32 1482.55 1027.13 1479.01 Q1028.96 1475.44 1028.96 1468.33 Q1028.96 1461.2 1027.13 1457.66 Q1025.32 1454.1 1021.69 1454.1 M1021.69 1450.39 Q1027.5 1450.39 1030.56 1455 Q1033.63 1459.58 1033.63 1468.33 Q1033.63 1477.06 1030.56 1481.67 Q1027.5 1486.25 1021.69 1486.25 Q1015.88 1486.25 1012.8 1481.67 Q1009.74 1477.06 1009.74 1468.33 Q1009.74 1459.58 1012.8 1455 Q1015.88 1450.39 1021.69 1450.39 Z" fill="#000000" fill-rule="nonzero" fill-opacity="1" /><path clip-path="url(#clip760)" d="M1637.15 1481.64 L1653.47 1481.64 L1653.47 1485.58 L1631.52 1485.58 L1631.52 1481.64 Q1634.18 1478.89 1638.77 1474.26 Q1643.37 1469.61 1644.55 1468.27 Q1646.8 1465.74 1647.68 1464.01 Q1648.58 1462.25 1648.58 1460.56 Q1648.58 1457.8 1646.64 1456.07 Q1644.72 1454.33 1641.61 1454.33 Q1639.41 1454.33 1636.96 1455.09 Q1634.53 1455.86 1631.75 1457.41 L1631.75 1452.69 Q1634.58 1451.55 1637.03 1450.97 Q1639.48 1450.39 1641.52 1450.39 Q1646.89 1450.39 1650.09 1453.08 Q1653.28 1455.77 1653.28 1460.26 Q1653.28 1462.39 1652.47 1464.31 Q1651.68 1466.2 1649.58 1468.8 Q1649 1469.47 1645.9 1472.69 Q1642.79 1475.88 1637.15 1481.64 Z" fill="#000000" fill-rule="nonzero" fill-opacity="1" /><path clip-path="url(#clip760)" d="M1673.28 1454.1 Q1669.67 1454.1 1667.84 1457.66 Q1666.03 1461.2 1666.03 1468.33 Q1666.03 1475.44 1667.84 1479.01 Q1669.67 1482.55 1673.28 1482.55 Q1676.91 1482.55 1678.72 1479.01 Q1680.55 1475.44 1680.55 1468.33 Q1680.55 1461.2 1678.72 1457.66 Q1676.91 1454.1 1673.28 1454.1 M1673.28 1450.39 Q1679.09 1450.39 1682.15 1455 Q1685.22 1459.58 1685.22 1468.33 Q1685.22 1477.06 1682.15 1481.67 Q1679.09 1486.25 1673.28 1486.25 Q1667.47 1486.25 1664.39 1481.67 Q1661.34 1477.06 1661.34 1468.33 Q1661.34 1459.58 1664.39 1455 Q1667.47 1450.39 1673.28 1450.39 Z" fill="#000000" fill-rule="nonzero" fill-opacity="1" /><path clip-path="url(#clip760)" d="M2297.94 1466.95 Q2301.29 1467.66 2303.17 1469.93 Q2305.07 1472.2 2305.07 1475.53 Q2305.07 1480.65 2301.55 1483.45 Q2298.03 1486.25 2291.55 1486.25 Q2289.37 1486.25 2287.06 1485.81 Q2284.77 1485.39 2282.31 1484.54 L2282.31 1480.02 Q2284.26 1481.16 2286.57 1481.74 Q2288.89 1482.32 2291.41 1482.32 Q2295.81 1482.32 2298.1 1480.58 Q2300.41 1478.84 2300.41 1475.53 Q2300.41 1472.48 2298.26 1470.77 Q2296.13 1469.03 2292.31 1469.03 L2288.28 1469.03 L2288.28 1465.19 L2292.5 1465.19 Q2295.95 1465.19 2297.78 1463.82 Q2299.6 1462.43 2299.6 1459.84 Q2299.6 1457.18 2297.71 1455.77 Q2295.83 1454.33 2292.31 1454.33 Q2290.39 1454.33 2288.19 1454.75 Q2285.99 1455.16 2283.35 1456.04 L2283.35 1451.88 Q2286.02 1451.14 2288.33 1450.77 Q2290.67 1450.39 2292.73 1450.39 Q2298.05 1450.39 2301.15 1452.83 Q2304.26 1455.23 2304.26 1459.35 Q2304.26 1462.22 2302.61 1464.21 Q2300.97 1466.18 2297.94 1466.95 Z" fill="#000000" fill-rule="nonzero" fill-opacity="1" /><path clip-path="url(#clip760)" d="M2323.93 1454.1 Q2320.32 1454.1 2318.49 1457.66 Q2316.69 1461.2 2316.69 1468.33 Q2316.69 1475.44 2318.49 1479.01 Q2320.32 1482.55 2323.93 1482.55 Q2327.57 1482.55 2329.37 1479.01 Q2331.2 1475.44 2331.2 1468.33 Q2331.2 1461.2 2329.37 1457.66 Q2327.57 1454.1 2323.93 1454.1 M2323.93 1450.39 Q2329.74 1450.39 2332.8 1455 Q2335.88 1459.58 2335.88 1468.33 Q2335.88 1477.06 2332.8 1481.67 Q2329.74 1486.25 2323.93 1486.25 Q2318.12 1486.25 2315.04 1481.67 Q2311.99 1477.06 2311.99 1468.33 Q2311.99 1459.58 2315.04 1455 Q2318.12 1450.39 2323.93 1450.39 Z" fill="#000000" fill-rule="nonzero" fill-opacity="1" /><path clip-path="url(#clip760)" d="M1013.77 1520.52 L1020.27 1520.52 L1030.26 1560.69 L1040.22 1520.52 L1047.45 1520.52 L1057.44 1560.69 L1067.4 1520.52 L1073.93 1520.52 L1061.99 1568.04 L1053.91 1568.04 L1043.88 1526.79 L1033.76 1568.04 L1025.68 1568.04 L1013.77 1520.52 Z" fill="#000000" fill-rule="nonzero" fill-opacity="1" /><path clip-path="url(#clip760)" d="M1094.23 1550.12 Q1087.14 1550.12 1084.4 1551.75 Q1081.66 1553.37 1081.66 1557.29 Q1081.66 1560.4 1083.7 1562.25 Q1085.77 1564.07 1089.3 1564.07 Q1094.17 1564.07 1097.1 1560.63 Q1100.06 1557.16 1100.06 1551.43 L1100.06 1550.12 L1094.23 1550.12 M1105.92 1547.71 L1105.92 1568.04 L1100.06 1568.04 L1100.06 1562.63 Q1098.05 1565.88 1095.06 1567.44 Q1092.07 1568.97 1087.74 1568.97 Q1082.27 1568.97 1079.02 1565.91 Q1075.81 1562.82 1075.81 1557.67 Q1075.81 1551.65 1079.82 1548.6 Q1083.86 1545.54 1091.85 1545.54 L1100.06 1545.54 L1100.06 1544.97 Q1100.06 1540.93 1097.39 1538.73 Q1094.74 1536.5 1089.94 1536.5 Q1086.88 1536.5 1083.99 1537.23 Q1081.09 1537.97 1078.42 1539.43 L1078.42 1534.02 Q1081.63 1532.78 1084.65 1532.17 Q1087.68 1531.54 1090.54 1531.54 Q1098.28 1531.54 1102.1 1535.55 Q1105.92 1539.56 1105.92 1547.71 Z" fill="#000000" fill-rule="nonzero" fill-opacity="1" /><path clip-path="url(#clip760)" d="M1117.98 1518.52 L1123.84 1518.52 L1123.84 1568.04 L1117.98 1568.04 L1117.98 1518.52 Z" fill="#000000" fill-rule="nonzero" fill-opacity="1" /><path clip-path="url(#clip760)" d="M1136.09 1518.52 L1141.95 1518.52 L1141.95 1568.04 L1136.09 1568.04 L1136.09 1518.52 Z" fill="#000000" fill-rule="nonzero" fill-opacity="1" /><path clip-path="url(#clip760)" d="M1179.85 1533.76 L1179.85 1539.24 Q1177.37 1537.87 1174.86 1537.2 Q1172.37 1536.5 1169.83 1536.5 Q1164.13 1536.5 1160.98 1540.13 Q1157.83 1543.73 1157.83 1550.25 Q1157.83 1556.78 1160.98 1560.4 Q1164.13 1564 1169.83 1564 Q1172.37 1564 1174.86 1563.33 Q1177.37 1562.63 1179.85 1561.26 L1179.85 1566.68 Q1177.4 1567.82 1174.76 1568.39 Q1172.15 1568.97 1169.19 1568.97 Q1161.14 1568.97 1156.4 1563.91 Q1151.65 1558.85 1151.65 1550.25 Q1151.65 1541.53 1156.43 1536.53 Q1161.23 1531.54 1169.57 1531.54 Q1172.28 1531.54 1174.86 1532.11 Q1177.43 1532.65 1179.85 1533.76 Z" fill="#000000" fill-rule="nonzero" fill-opacity="1" /><path clip-path="url(#clip760)" d="M1190.04 1518.52 L1195.89 1518.52 L1195.89 1568.04 L1190.04 1568.04 L1190.04 1518.52 Z" fill="#000000" fill-rule="nonzero" fill-opacity="1" /><path clip-path="url(#clip760)" d="M1221.96 1536.5 Q1217.25 1536.5 1214.51 1540.19 Q1211.78 1543.85 1211.78 1550.25 Q1211.78 1556.65 1214.48 1560.34 Q1217.22 1564 1221.96 1564 Q1226.64 1564 1229.38 1560.31 Q1232.12 1556.62 1232.12 1550.25 Q1232.12 1543.92 1229.38 1540.23 Q1226.64 1536.5 1221.96 1536.5 M1221.96 1531.54 Q1229.6 1531.54 1233.96 1536.5 Q1238.32 1541.47 1238.32 1550.25 Q1238.32 1559 1233.96 1564 Q1229.6 1568.97 1221.96 1568.97 Q1214.29 1568.97 1209.93 1564 Q1205.6 1559 1205.6 1550.25 Q1205.6 1541.47 1209.93 1536.5 Q1214.29 1531.54 1221.96 1531.54 Z" fill="#000000" fill-rule="nonzero" fill-opacity="1" /><path clip-path="url(#clip760)" d="M1273.68 1533.76 L1273.68 1539.24 Q1271.2 1537.87 1268.69 1537.2 Q1266.2 1536.5 1263.66 1536.5 Q1257.96 1536.5 1254.81 1540.13 Q1251.66 1543.73 1251.66 1550.25 Q1251.66 1556.78 1254.81 1560.4 Q1257.96 1564 1263.66 1564 Q1266.2 1564 1268.69 1563.33 Q1271.2 1562.63 1273.68 1561.26 L1273.68 1566.68 Q1271.23 1567.82 1268.59 1568.39 Q1265.98 1568.97 1263.02 1568.97 Q1254.97 1568.97 1250.23 1563.91 Q1245.48 1558.85 1245.48 1550.25 Q1245.48 1541.53 1250.26 1536.53 Q1255.06 1531.54 1263.4 1531.54 Q1266.11 1531.54 1268.69 1532.11 Q1271.26 1532.65 1273.68 1533.76 Z" fill="#000000" fill-rule="nonzero" fill-opacity="1" /><path clip-path="url(#clip760)" d="M1283.65 1518.52 L1289.53 1518.52 L1289.53 1547.77 L1307.01 1532.4 L1314.49 1532.4 L1295.58 1549.07 L1315.28 1568.04 L1307.64 1568.04 L1289.53 1550.63 L1289.53 1568.04 L1283.65 1568.04 L1283.65 1518.52 Z" fill="#000000" fill-rule="nonzero" fill-opacity="1" /><path clip-path="url(#clip760)" d="M1336 1520.52 L1376.2 1520.52 L1376.2 1525.93 L1359.33 1525.93 L1359.33 1568.04 L1352.87 1568.04 L1352.87 1525.93 L1336 1525.93 L1336 1520.52 Z" fill="#000000" fill-rule="nonzero" fill-opacity="1" /><path clip-path="url(#clip760)" d="M1380.15 1532.4 L1386.01 1532.4 L1386.01 1568.04 L1380.15 1568.04 L1380.15 1532.4 M1380.15 1518.52 L1386.01 1518.52 L1386.01 1525.93 L1380.15 1525.93 L1380.15 1518.52 Z" fill="#000000" fill-rule="nonzero" fill-opacity="1" /><path clip-path="url(#clip760)" d="M1426.02 1539.24 Q1428.21 1535.29 1431.27 1533.41 Q1434.32 1531.54 1438.46 1531.54 Q1444.03 1531.54 1447.05 1535.45 Q1450.08 1539.33 1450.08 1546.53 L1450.08 1568.04 L1444.19 1568.04 L1444.19 1546.72 Q1444.19 1541.59 1442.38 1539.11 Q1440.56 1536.63 1436.84 1536.63 Q1432.29 1536.63 1429.64 1539.65 Q1427 1542.68 1427 1547.9 L1427 1568.04 L1421.11 1568.04 L1421.11 1546.72 Q1421.11 1541.56 1419.3 1539.11 Q1417.49 1536.63 1413.7 1536.63 Q1409.21 1536.63 1406.57 1539.68 Q1403.93 1542.71 1403.93 1547.9 L1403.93 1568.04 L1398.04 1568.04 L1398.04 1532.4 L1403.93 1532.4 L1403.93 1537.93 Q1405.93 1534.66 1408.73 1533.1 Q1411.53 1531.54 1415.38 1531.54 Q1419.27 1531.54 1421.97 1533.51 Q1424.71 1535.48 1426.02 1539.24 Z" fill="#000000" fill-rule="nonzero" fill-opacity="1" /><path clip-path="url(#clip760)" d="M1492.25 1548.76 L1492.25 1551.62 L1465.32 1551.62 Q1465.71 1557.67 1468.95 1560.85 Q1472.23 1564 1478.05 1564 Q1481.43 1564 1484.58 1563.17 Q1487.76 1562.35 1490.88 1560.69 L1490.88 1566.23 Q1487.73 1567.57 1484.42 1568.27 Q1481.11 1568.97 1477.7 1568.97 Q1469.17 1568.97 1464.18 1564 Q1459.21 1559.04 1459.21 1550.57 Q1459.21 1541.82 1463.92 1536.69 Q1468.67 1531.54 1476.69 1531.54 Q1483.88 1531.54 1488.05 1536.18 Q1492.25 1540.8 1492.25 1548.76 M1486.39 1547.04 Q1486.33 1542.23 1483.69 1539.37 Q1481.08 1536.5 1476.75 1536.5 Q1471.85 1536.5 1468.89 1539.27 Q1465.96 1542.04 1465.51 1547.07 L1486.39 1547.04 Z" fill="#000000" fill-rule="nonzero" fill-opacity="1" /><path clip-path="url(#clip760)" d="M1536.65 1518.58 Q1532.39 1525.9 1530.32 1533.06 Q1528.25 1540.23 1528.25 1547.58 Q1528.25 1554.93 1530.32 1562.16 Q1532.42 1569.35 1536.65 1576.64 L1531.56 1576.64 Q1526.78 1569.16 1524.4 1561.93 Q1522.04 1554.71 1522.04 1547.58 Q1522.04 1540.48 1524.4 1533.29 Q1526.75 1526.09 1531.56 1518.58 L1536.65 1518.58 Z" fill="#000000" fill-rule="nonzero" fill-opacity="1" /><path clip-path="url(#clip760)" d="M1570.74 1533.45 L1570.74 1538.98 Q1568.26 1537.71 1565.58 1537.07 Q1562.91 1536.44 1560.05 1536.44 Q1555.68 1536.44 1553.49 1537.77 Q1551.32 1539.11 1551.32 1541.79 Q1551.32 1543.82 1552.88 1545 Q1554.44 1546.15 1559.15 1547.2 L1561.16 1547.64 Q1567.4 1548.98 1570.01 1551.43 Q1572.65 1553.85 1572.65 1558.21 Q1572.65 1563.17 1568.7 1566.07 Q1564.79 1568.97 1557.91 1568.97 Q1555.05 1568.97 1551.93 1568.39 Q1548.84 1567.85 1545.4 1566.74 L1545.4 1560.69 Q1548.65 1562.38 1551.8 1563.24 Q1554.95 1564.07 1558.04 1564.07 Q1562.18 1564.07 1564.41 1562.66 Q1566.63 1561.23 1566.63 1558.65 Q1566.63 1556.27 1565.01 1554.99 Q1563.42 1553.72 1557.98 1552.54 L1555.94 1552.07 Q1550.5 1550.92 1548.08 1548.56 Q1545.66 1546.18 1545.66 1542.04 Q1545.66 1537.01 1549.22 1534.27 Q1552.79 1531.54 1559.34 1531.54 Q1562.59 1531.54 1565.46 1532.01 Q1568.32 1532.49 1570.74 1533.45 Z" fill="#000000" fill-rule="nonzero" fill-opacity="1" /><path clip-path="url(#clip760)" d="M1612.47 1548.76 L1612.47 1551.62 L1585.54 1551.62 Q1585.92 1557.67 1589.17 1560.85 Q1592.45 1564 1598.27 1564 Q1601.65 1564 1604.8 1563.17 Q1607.98 1562.35 1611.1 1560.69 L1611.1 1566.23 Q1607.95 1567.57 1604.64 1568.27 Q1601.33 1568.97 1597.92 1568.97 Q1589.39 1568.97 1584.39 1564 Q1579.43 1559.04 1579.43 1550.57 Q1579.43 1541.82 1584.14 1536.69 Q1588.88 1531.54 1596.9 1531.54 Q1604.1 1531.54 1608.27 1536.18 Q1612.47 1540.8 1612.47 1548.76 M1606.61 1547.04 Q1606.55 1542.23 1603.9 1539.37 Q1601.29 1536.5 1596.97 1536.5 Q1592.06 1536.5 1589.1 1539.27 Q1586.18 1542.04 1585.73 1547.07 L1606.61 1547.04 Z" fill="#000000" fill-rule="nonzero" fill-opacity="1" /><path clip-path="url(#clip760)" d="M1647.73 1533.76 L1647.73 1539.24 Q1645.25 1537.87 1642.74 1537.2 Q1640.25 1536.5 1637.71 1536.5 Q1632.01 1536.5 1628.86 1540.13 Q1625.71 1543.73 1625.71 1550.25 Q1625.71 1556.78 1628.86 1560.4 Q1632.01 1564 1637.71 1564 Q1640.25 1564 1642.74 1563.33 Q1645.25 1562.63 1647.73 1561.26 L1647.73 1566.68 Q1645.28 1567.82 1642.64 1568.39 Q1640.03 1568.97 1637.07 1568.97 Q1629.02 1568.97 1624.28 1563.91 Q1619.53 1558.85 1619.53 1550.25 Q1619.53 1541.53 1624.31 1536.53 Q1629.11 1531.54 1637.45 1531.54 Q1640.16 1531.54 1642.74 1532.11 Q1645.31 1532.65 1647.73 1533.76 Z" fill="#000000" fill-rule="nonzero" fill-opacity="1" /><path clip-path="url(#clip760)" d="M1656.99 1518.58 L1662.09 1518.58 Q1666.86 1526.09 1669.22 1533.29 Q1671.6 1540.48 1671.6 1547.58 Q1671.6 1554.71 1669.22 1561.93 Q1666.86 1569.16 1662.09 1576.64 L1656.99 1576.64 Q1661.23 1569.35 1663.3 1562.16 Q1665.4 1554.93 1665.4 1547.58 Q1665.4 1540.23 1663.3 1533.06 Q1661.23 1525.9 1656.99 1518.58 Z" fill="#000000" fill-rule="nonzero" fill-opacity="1" /><polyline clip-path="url(#clip760)" style="stroke:#000000; stroke-linecap:round; stroke-linejoin:round; stroke-width:4; stroke-opacity:1; fill:none" points="332.62,1423.18 332.62,47.2441 "/>
<polyline clip-path="url(#clip760)" style="stroke:#000000; stroke-linecap:round; stroke-linejoin:round; stroke-width:4; stroke-opacity:1; fill:none" points="332.62,1184.49 351.518,1184.49 "/>
<polyline clip-path="url(#clip760)" style="stroke:#000000; stroke-linecap:round; stroke-linejoin:round; stroke-width:4; stroke-opacity:1; fill:none" points="332.62,837.037 351.518,837.037 "/>
<polyline clip-path="url(#clip760)" style="stroke:#000000; stroke-linecap:round; stroke-linejoin:round; stroke-width:4; stroke-opacity:1; fill:none" points="332.62,489.589 351.518,489.589 "/>
<polyline clip-path="url(#clip760)" style="stroke:#000000; stroke-linecap:round; stroke-linejoin:round; stroke-width:4; stroke-opacity:1; fill:none" points="332.62,142.14 351.518,142.14 "/>
<path clip-path="url(#clip760)" d="M114.26 1184.94 L143.936 1184.94 L143.936 1188.87 L114.26 1188.87 L114.26 1184.94 Z" fill="#000000" fill-rule="nonzero" fill-opacity="1" /><path clip-path="url(#clip760)" d="M154.839 1197.83 L162.477 1197.83 L162.477 1171.47 L154.167 1173.13 L154.167 1168.87 L162.431 1167.21 L167.107 1167.21 L167.107 1197.83 L174.746 1197.83 L174.746 1201.77 L154.839 1201.77 L154.839 1197.83 Z" fill="#000000" fill-rule="nonzero" fill-opacity="1" /><path clip-path="url(#clip760)" d="M188.218 1197.83 L204.537 1197.83 L204.537 1201.77 L182.593 1201.77 L182.593 1197.83 Q185.255 1195.08 189.838 1190.45 Q194.445 1185.79 195.625 1184.45 Q197.871 1181.93 198.75 1180.19 Q199.653 1178.43 199.653 1176.74 Q199.653 1173.99 197.709 1172.25 Q195.787 1170.52 192.686 1170.52 Q190.487 1170.52 188.033 1171.28 Q185.602 1172.04 182.825 1173.6 L182.825 1168.87 Q185.649 1167.74 188.102 1167.16 Q190.556 1166.58 192.593 1166.58 Q197.963 1166.58 201.158 1169.27 Q204.352 1171.95 204.352 1176.44 Q204.352 1178.57 203.542 1180.49 Q202.755 1182.39 200.649 1184.98 Q200.07 1185.66 196.968 1188.87 Q193.866 1192.07 188.218 1197.83 Z" fill="#000000" fill-rule="nonzero" fill-opacity="1" /><path clip-path="url(#clip760)" d="M224.352 1170.28 Q220.741 1170.28 218.912 1173.85 Q217.107 1177.39 217.107 1184.52 Q217.107 1191.63 218.912 1195.19 Q220.741 1198.73 224.352 1198.73 Q227.986 1198.73 229.792 1195.19 Q231.621 1191.63 231.621 1184.52 Q231.621 1177.39 229.792 1173.85 Q227.986 1170.28 224.352 1170.28 M224.352 1166.58 Q230.162 1166.58 233.218 1171.19 Q236.297 1175.77 236.297 1184.52 Q236.297 1193.25 233.218 1197.85 Q230.162 1202.44 224.352 1202.44 Q218.542 1202.44 215.463 1197.85 Q212.408 1193.25 212.408 1184.52 Q212.408 1175.77 215.463 1171.19 Q218.542 1166.58 224.352 1166.58 Z" fill="#000000" fill-rule="nonzero" fill-opacity="1" /><path clip-path="url(#clip760)" d="M254.514 1170.28 Q250.903 1170.28 249.074 1173.85 Q247.269 1177.39 247.269 1184.52 Q247.269 1191.63 249.074 1195.19 Q250.903 1198.73 254.514 1198.73 Q258.148 1198.73 259.954 1195.19 Q261.783 1191.63 261.783 1184.52 Q261.783 1177.39 259.954 1173.85 Q258.148 1170.28 254.514 1170.28 M254.514 1166.58 Q260.324 1166.58 263.38 1171.19 Q266.458 1175.77 266.458 1184.52 Q266.458 1193.25 263.38 1197.85 Q260.324 1202.44 254.514 1202.44 Q248.704 1202.44 245.625 1197.85 Q242.57 1193.25 242.57 1184.52 Q242.57 1175.77 245.625 1171.19 Q248.704 1166.58 254.514 1166.58 Z" fill="#000000" fill-rule="nonzero" fill-opacity="1" /><path clip-path="url(#clip760)" d="M284.676 1170.28 Q281.065 1170.28 279.236 1173.85 Q277.431 1177.39 277.431 1184.52 Q277.431 1191.63 279.236 1195.19 Q281.065 1198.73 284.676 1198.73 Q288.31 1198.73 290.116 1195.19 Q291.944 1191.63 291.944 1184.52 Q291.944 1177.39 290.116 1173.85 Q288.31 1170.28 284.676 1170.28 M284.676 1166.58 Q290.486 1166.58 293.542 1171.19 Q296.62 1175.77 296.62 1184.52 Q296.62 1193.25 293.542 1197.85 Q290.486 1202.44 284.676 1202.44 Q278.866 1202.44 275.787 1197.85 Q272.732 1193.25 272.732 1184.52 Q272.732 1175.77 275.787 1171.19 Q278.866 1166.58 284.676 1166.58 Z" fill="#000000" fill-rule="nonzero" fill-opacity="1" /><path clip-path="url(#clip760)" d="M114.26 837.489 L143.936 837.489 L143.936 841.424 L114.26 841.424 L114.26 837.489 Z" fill="#000000" fill-rule="nonzero" fill-opacity="1" /><path clip-path="url(#clip760)" d="M154.839 850.382 L162.477 850.382 L162.477 824.017 L154.167 825.683 L154.167 821.424 L162.431 819.757 L167.107 819.757 L167.107 850.382 L174.746 850.382 L174.746 854.317 L154.839 854.317 L154.839 850.382 Z" fill="#000000" fill-rule="nonzero" fill-opacity="1" /><path clip-path="url(#clip760)" d="M194.19 822.836 Q190.579 822.836 188.75 826.401 Q186.945 829.943 186.945 837.072 Q186.945 844.179 188.75 847.743 Q190.579 851.285 194.19 851.285 Q197.825 851.285 199.63 847.743 Q201.459 844.179 201.459 837.072 Q201.459 829.943 199.63 826.401 Q197.825 822.836 194.19 822.836 M194.19 819.132 Q200 819.132 203.056 823.739 Q206.135 828.322 206.135 837.072 Q206.135 845.799 203.056 850.405 Q200 854.989 194.19 854.989 Q188.38 854.989 185.301 850.405 Q182.246 845.799 182.246 837.072 Q182.246 828.322 185.301 823.739 Q188.38 819.132 194.19 819.132 Z" fill="#000000" fill-rule="nonzero" fill-opacity="1" /><path clip-path="url(#clip760)" d="M224.352 822.836 Q220.741 822.836 218.912 826.401 Q217.107 829.943 217.107 837.072 Q217.107 844.179 218.912 847.743 Q220.741 851.285 224.352 851.285 Q227.986 851.285 229.792 847.743 Q231.621 844.179 231.621 837.072 Q231.621 829.943 229.792 826.401 Q227.986 822.836 224.352 822.836 M224.352 819.132 Q230.162 819.132 233.218 823.739 Q236.297 828.322 236.297 837.072 Q236.297 845.799 233.218 850.405 Q230.162 854.989 224.352 854.989 Q218.542 854.989 215.463 850.405 Q212.408 845.799 212.408 837.072 Q212.408 828.322 215.463 823.739 Q218.542 819.132 224.352 819.132 Z" fill="#000000" fill-rule="nonzero" fill-opacity="1" /><path clip-path="url(#clip760)" d="M254.514 822.836 Q250.903 822.836 249.074 826.401 Q247.269 829.943 247.269 837.072 Q247.269 844.179 249.074 847.743 Q250.903 851.285 254.514 851.285 Q258.148 851.285 259.954 847.743 Q261.783 844.179 261.783 837.072 Q261.783 829.943 259.954 826.401 Q258.148 822.836 254.514 822.836 M254.514 819.132 Q260.324 819.132 263.38 823.739 Q266.458 828.322 266.458 837.072 Q266.458 845.799 263.38 850.405 Q260.324 854.989 254.514 854.989 Q248.704 854.989 245.625 850.405 Q242.57 845.799 242.57 837.072 Q242.57 828.322 245.625 823.739 Q248.704 819.132 254.514 819.132 Z" fill="#000000" fill-rule="nonzero" fill-opacity="1" /><path clip-path="url(#clip760)" d="M284.676 822.836 Q281.065 822.836 279.236 826.401 Q277.431 829.943 277.431 837.072 Q277.431 844.179 279.236 847.743 Q281.065 851.285 284.676 851.285 Q288.31 851.285 290.116 847.743 Q291.944 844.179 291.944 837.072 Q291.944 829.943 290.116 826.401 Q288.31 822.836 284.676 822.836 M284.676 819.132 Q290.486 819.132 293.542 823.739 Q296.62 828.322 296.62 837.072 Q296.62 845.799 293.542 850.405 Q290.486 854.989 284.676 854.989 Q278.866 854.989 275.787 850.405 Q272.732 845.799 272.732 837.072 Q272.732 828.322 275.787 823.739 Q278.866 819.132 284.676 819.132 Z" fill="#000000" fill-rule="nonzero" fill-opacity="1" /><path clip-path="url(#clip760)" d="M144.422 490.04 L174.098 490.04 L174.098 493.975 L144.422 493.975 L144.422 490.04 Z" fill="#000000" fill-rule="nonzero" fill-opacity="1" /><path clip-path="url(#clip760)" d="M194.19 490.457 Q190.857 490.457 188.936 492.239 Q187.038 494.021 187.038 497.146 Q187.038 500.271 188.936 502.054 Q190.857 503.836 194.19 503.836 Q197.524 503.836 199.445 502.054 Q201.366 500.248 201.366 497.146 Q201.366 494.021 199.445 492.239 Q197.547 490.457 194.19 490.457 M189.514 488.466 Q186.505 487.725 184.815 485.665 Q183.149 483.605 183.149 480.642 Q183.149 476.498 186.088 474.091 Q189.051 471.684 194.19 471.684 Q199.352 471.684 202.292 474.091 Q205.232 476.498 205.232 480.642 Q205.232 483.605 203.542 485.665 Q201.875 487.725 198.889 488.466 Q202.269 489.253 204.144 491.545 Q206.042 493.836 206.042 497.146 Q206.042 502.17 202.963 504.855 Q199.908 507.54 194.19 507.54 Q188.473 507.54 185.394 504.855 Q182.338 502.17 182.338 497.146 Q182.338 493.836 184.237 491.545 Q186.135 489.253 189.514 488.466 M187.801 481.082 Q187.801 483.767 189.468 485.272 Q191.158 486.776 194.19 486.776 Q197.2 486.776 198.889 485.272 Q200.602 483.767 200.602 481.082 Q200.602 478.397 198.889 476.892 Q197.2 475.387 194.19 475.387 Q191.158 475.387 189.468 476.892 Q187.801 478.397 187.801 481.082 Z" fill="#000000" fill-rule="nonzero" fill-opacity="1" /><path clip-path="url(#clip760)" d="M224.352 475.387 Q220.741 475.387 218.912 478.952 Q217.107 482.494 217.107 489.623 Q217.107 496.73 218.912 500.295 Q220.741 503.836 224.352 503.836 Q227.986 503.836 229.792 500.295 Q231.621 496.73 231.621 489.623 Q231.621 482.494 229.792 478.952 Q227.986 475.387 224.352 475.387 M224.352 471.684 Q230.162 471.684 233.218 476.29 Q236.297 480.873 236.297 489.623 Q236.297 498.35 233.218 502.957 Q230.162 507.54 224.352 507.54 Q218.542 507.54 215.463 502.957 Q212.408 498.35 212.408 489.623 Q212.408 480.873 215.463 476.29 Q218.542 471.684 224.352 471.684 Z" fill="#000000" fill-rule="nonzero" fill-opacity="1" /><path clip-path="url(#clip760)" d="M254.514 475.387 Q250.903 475.387 249.074 478.952 Q247.269 482.494 247.269 489.623 Q247.269 496.73 249.074 500.295 Q250.903 503.836 254.514 503.836 Q258.148 503.836 259.954 500.295 Q261.783 496.73 261.783 489.623 Q261.783 482.494 259.954 478.952 Q258.148 475.387 254.514 475.387 M254.514 471.684 Q260.324 471.684 263.38 476.29 Q266.458 480.873 266.458 489.623 Q266.458 498.35 263.38 502.957 Q260.324 507.54 254.514 507.54 Q248.704 507.54 245.625 502.957 Q242.57 498.35 242.57 489.623 Q242.57 480.873 245.625 476.29 Q248.704 471.684 254.514 471.684 Z" fill="#000000" fill-rule="nonzero" fill-opacity="1" /><path clip-path="url(#clip760)" d="M284.676 475.387 Q281.065 475.387 279.236 478.952 Q277.431 482.494 277.431 489.623 Q277.431 496.73 279.236 500.295 Q281.065 503.836 284.676 503.836 Q288.31 503.836 290.116 500.295 Q291.944 496.73 291.944 489.623 Q291.944 482.494 290.116 478.952 Q288.31 475.387 284.676 475.387 M284.676 471.684 Q290.486 471.684 293.542 476.29 Q296.62 480.873 296.62 489.623 Q296.62 498.35 293.542 502.957 Q290.486 507.54 284.676 507.54 Q278.866 507.54 275.787 502.957 Q272.732 498.35 272.732 489.623 Q272.732 480.873 275.787 476.29 Q278.866 471.684 284.676 471.684 Z" fill="#000000" fill-rule="nonzero" fill-opacity="1" /><path clip-path="url(#clip760)" d="M144.422 142.591 L174.098 142.591 L174.098 146.526 L144.422 146.526 L144.422 142.591 Z" fill="#000000" fill-rule="nonzero" fill-opacity="1" /><path clip-path="url(#clip760)" d="M194.769 140.276 Q191.621 140.276 189.769 142.429 Q187.94 144.582 187.94 148.332 Q187.94 152.059 189.769 154.235 Q191.621 156.387 194.769 156.387 Q197.917 156.387 199.746 154.235 Q201.598 152.059 201.598 148.332 Q201.598 144.582 199.746 142.429 Q197.917 140.276 194.769 140.276 M204.051 125.624 L204.051 129.883 Q202.292 129.05 200.487 128.61 Q198.704 128.17 196.945 128.17 Q192.315 128.17 189.862 131.295 Q187.431 134.42 187.084 140.739 Q188.45 138.725 190.51 137.661 Q192.57 136.573 195.047 136.573 Q200.255 136.573 203.264 139.744 Q206.297 142.892 206.297 148.332 Q206.297 153.656 203.149 156.874 Q200 160.091 194.769 160.091 Q188.774 160.091 185.602 155.508 Q182.431 150.901 182.431 142.175 Q182.431 133.98 186.32 129.119 Q190.209 124.235 196.76 124.235 Q198.519 124.235 200.301 124.582 Q202.107 124.929 204.051 125.624 Z" fill="#000000" fill-rule="nonzero" fill-opacity="1" /><path clip-path="url(#clip760)" d="M224.352 127.939 Q220.741 127.939 218.912 131.503 Q217.107 135.045 217.107 142.175 Q217.107 149.281 218.912 152.846 Q220.741 156.387 224.352 156.387 Q227.986 156.387 229.792 152.846 Q231.621 149.281 231.621 142.175 Q231.621 135.045 229.792 131.503 Q227.986 127.939 224.352 127.939 M224.352 124.235 Q230.162 124.235 233.218 128.841 Q236.297 133.425 236.297 142.175 Q236.297 150.901 233.218 155.508 Q230.162 160.091 224.352 160.091 Q218.542 160.091 215.463 155.508 Q212.408 150.901 212.408 142.175 Q212.408 133.425 215.463 128.841 Q218.542 124.235 224.352 124.235 Z" fill="#000000" fill-rule="nonzero" fill-opacity="1" /><path clip-path="url(#clip760)" d="M254.514 127.939 Q250.903 127.939 249.074 131.503 Q247.269 135.045 247.269 142.175 Q247.269 149.281 249.074 152.846 Q250.903 156.387 254.514 156.387 Q258.148 156.387 259.954 152.846 Q261.783 149.281 261.783 142.175 Q261.783 135.045 259.954 131.503 Q258.148 127.939 254.514 127.939 M254.514 124.235 Q260.324 124.235 263.38 128.841 Q266.458 133.425 266.458 142.175 Q266.458 150.901 263.38 155.508 Q260.324 160.091 254.514 160.091 Q248.704 160.091 245.625 155.508 Q242.57 150.901 242.57 142.175 Q242.57 133.425 245.625 128.841 Q248.704 124.235 254.514 124.235 Z" fill="#000000" fill-rule="nonzero" fill-opacity="1" /><path clip-path="url(#clip760)" d="M284.676 127.939 Q281.065 127.939 279.236 131.503 Q277.431 135.045 277.431 142.175 Q277.431 149.281 279.236 152.846 Q281.065 156.387 284.676 156.387 Q288.31 156.387 290.116 152.846 Q291.944 149.281 291.944 142.175 Q291.944 135.045 290.116 131.503 Q288.31 127.939 284.676 127.939 M284.676 124.235 Q290.486 124.235 293.542 128.841 Q296.62 133.425 296.62 142.175 Q296.62 150.901 293.542 155.508 Q290.486 160.091 284.676 160.091 Q278.866 160.091 275.787 155.508 Q272.732 150.901 272.732 142.175 Q272.732 133.425 275.787 128.841 Q278.866 124.235 284.676 124.235 Z" fill="#000000" fill-rule="nonzero" fill-opacity="1" /><path clip-path="url(#clip760)" d="M16.4842 816.375 L16.4842 786.329 L21.895 786.329 L21.895 809.945 L35.9632 809.945 L35.9632 787.315 L41.3741 787.315 L41.3741 809.945 L58.5933 809.945 L58.5933 785.756 L64.0042 785.756 L64.0042 816.375 L16.4842 816.375 Z" fill="#000000" fill-rule="nonzero" fill-opacity="1" /><path clip-path="url(#clip760)" d="M16.4842 775.189 L16.4842 768.759 L58.5933 768.759 L58.5933 745.62 L64.0042 745.62 L64.0042 775.189 L16.4842 775.189 Z" fill="#000000" fill-rule="nonzero" fill-opacity="1" /><path clip-path="url(#clip760)" d="M41.3104 732.443 L58.7206 732.443 L58.7206 722.13 Q58.7206 716.942 56.5881 714.46 Q54.4238 711.945 49.9996 711.945 Q45.5436 711.945 43.4429 714.46 Q41.3104 716.942 41.3104 722.13 L41.3104 732.443 M21.7677 732.443 L36.0905 732.443 L36.0905 722.926 Q36.0905 718.216 34.34 715.924 Q32.5576 713.6 28.9291 713.6 Q25.3325 713.6 23.5501 715.924 Q21.7677 718.216 21.7677 722.926 L21.7677 732.443 M16.4842 738.872 L16.4842 722.449 Q16.4842 715.096 19.5397 711.118 Q22.5952 707.139 28.2289 707.139 Q32.5894 707.139 35.1675 709.176 Q37.7456 711.213 38.3822 715.16 Q39.4007 710.418 42.6472 707.808 Q45.8619 705.166 50.6998 705.166 Q57.0655 705.166 60.5348 709.495 Q64.0042 713.823 64.0042 721.812 L64.0042 738.872 L16.4842 738.872 Z" fill="#000000" fill-rule="nonzero" fill-opacity="1" /><path clip-path="url(#clip760)" d="M20.8447 676.011 Q20.8447 683.013 26.0645 687.151 Q31.2844 691.257 40.2919 691.257 Q49.2675 691.257 54.4874 687.151 Q59.7073 683.013 59.7073 676.011 Q59.7073 669.009 54.4874 664.935 Q49.2675 660.829 40.2919 660.829 Q31.2844 660.829 26.0645 664.935 Q20.8447 669.009 20.8447 676.011 M15.6248 676.011 Q15.6248 666.017 22.3406 660.033 Q29.0246 654.049 40.2919 654.049 Q51.5274 654.049 58.2432 660.033 Q64.9272 666.017 64.9272 676.011 Q64.9272 686.037 58.2432 692.052 Q51.5592 698.036 40.2919 698.036 Q29.0246 698.036 22.3406 692.052 Q15.6248 686.037 15.6248 676.011 Z" fill="#000000" fill-rule="nonzero" fill-opacity="1" /><polyline clip-path="url(#clip762)" style="stroke:#009af9; stroke-linecap:round; stroke-linejoin:round; stroke-width:4; stroke-opacity:1; fill:none" points="441.441,1196.69 507.987,724.275 569.482,396.746 628.878,324.896 686.496,289.996 745.076,265.734 803.669,250.74 863.173,241.863 921.439,236.244 979.844,228.892 1077.36,211.145 1137.11,204.055 1196.32,200.451 1259.09,188.431 1318.13,182.104 1378.17,172.327 1435.45,170.824 1494.91,158.951 1552.06,156.187 1613.11,149.037 1668.94,140.083 1725.02,130.703 1782.58,128.163 1838.32,118.59 1895.08,112.927 1950.76,112.781 2008.88,102.794 2067.45,101.711 2125.49,101.564 2182.29,92.6633 2238.9,89.4612 2295.58,86.1857 "/>
<polyline clip-path="url(#clip762)" style="stroke:#e26f46; stroke-linecap:round; stroke-linejoin:round; stroke-width:4; stroke-opacity:1; fill:none" points="389.794,1384.24 418.13,786.964 429.002,432.812 439.526,368.854 453.154,300.815 464.19,277.107 474.633,265.185 484.919,255.971 495.517,239.445 505.861,246.655 516.579,234.103 527.015,225.574 537.423,219.559 548.087,214.061 558.576,207.965 569.279,197.549 579.613,198.402 589.982,188.956 600.61,186.409 610.994,184.436 621.583,179.721 631.888,172.389 642.196,163.961 652.833,157.666 663.211,154.701 673.543,148.839 684.109,140.071 694.455,136.576 704.975,132.363 715.236,129.318 725.454,129.634 735.87,122.871 "/>
<path clip-path="url(#clip760)" d="M1784.1 1377.32 L2285.42 1377.32 L2285.42 1221.8 L1784.1 1221.8  Z" fill="#ffffff" fill-rule="evenodd" fill-opacity="1"/>
<polyline clip-path="url(#clip760)" style="stroke:#000000; stroke-linecap:round; stroke-linejoin:round; stroke-width:4; stroke-opacity:1; fill:none" points="1784.1,1377.32 2285.42,1377.32 2285.42,1221.8 1784.1,1221.8 1784.1,1377.32 "/>
<polyline clip-path="url(#clip760)" style="stroke:#009af9; stroke-linecap:round; stroke-linejoin:round; stroke-width:4; stroke-opacity:1; fill:none" points="1806.55,1273.64 1941.22,1273.64 "/>
<path clip-path="url(#clip760)" d="M1963.67 1256.36 L1983.53 1256.36 L1983.53 1260.29 L1968.34 1260.29 L1968.34 1270.48 L1982.05 1270.48 L1982.05 1274.41 L1968.34 1274.41 L1968.34 1290.92 L1963.67 1290.92 L1963.67 1256.36 Z" fill="#000000" fill-rule="nonzero" fill-opacity="1" /><path clip-path="url(#clip760)" d="M1987.72 1280.68 L1987.72 1264.99 L1991.98 1264.99 L1991.98 1280.52 Q1991.98 1284.2 1993.41 1286.05 Q1994.85 1287.88 1997.72 1287.88 Q2001.17 1287.88 2003.16 1285.68 Q2005.17 1283.48 2005.17 1279.69 L2005.17 1264.99 L2009.43 1264.99 L2009.43 1290.92 L2005.17 1290.92 L2005.17 1286.93 Q2003.62 1289.29 2001.56 1290.45 Q1999.52 1291.59 1996.82 1291.59 Q1992.35 1291.59 1990.03 1288.81 Q1987.72 1286.03 1987.72 1280.68 M1998.44 1264.36 L1998.44 1264.36 Z" fill="#000000" fill-rule="nonzero" fill-opacity="1" /><path clip-path="url(#clip760)" d="M2018.2 1254.9 L2022.46 1254.9 L2022.46 1290.92 L2018.2 1290.92 L2018.2 1254.9 Z" fill="#000000" fill-rule="nonzero" fill-opacity="1" /><path clip-path="url(#clip760)" d="M2031.38 1254.9 L2035.64 1254.9 L2035.64 1290.92 L2031.38 1290.92 L2031.38 1254.9 Z" fill="#000000" fill-rule="nonzero" fill-opacity="1" /><path clip-path="url(#clip760)" d="M2064.48 1274.41 L2064.48 1287.07 L2071.98 1287.07 Q2075.75 1287.07 2077.56 1285.52 Q2079.39 1283.95 2079.39 1280.73 Q2079.39 1277.49 2077.56 1275.96 Q2075.75 1274.41 2071.98 1274.41 L2064.48 1274.41 M2064.48 1260.2 L2064.48 1270.61 L2071.4 1270.61 Q2074.82 1270.61 2076.49 1269.34 Q2078.18 1268.05 2078.18 1265.41 Q2078.18 1262.79 2076.49 1261.49 Q2074.82 1260.2 2071.4 1260.2 L2064.48 1260.2 M2059.8 1256.36 L2071.75 1256.36 Q2077.09 1256.36 2079.99 1258.58 Q2082.88 1260.8 2082.88 1264.9 Q2082.88 1268.07 2081.4 1269.94 Q2079.92 1271.82 2077.05 1272.28 Q2080.5 1273.02 2082.39 1275.38 Q2084.32 1277.72 2084.32 1281.24 Q2084.32 1285.87 2081.17 1288.39 Q2078.02 1290.92 2072.21 1290.92 L2059.8 1290.92 L2059.8 1256.36 Z" fill="#000000" fill-rule="nonzero" fill-opacity="1" /><path clip-path="url(#clip760)" d="M2103.92 1277.88 Q2098.76 1277.88 2096.77 1279.06 Q2094.78 1280.24 2094.78 1283.09 Q2094.78 1285.36 2096.26 1286.7 Q2097.76 1288.02 2100.33 1288.02 Q2103.88 1288.02 2106.01 1285.52 Q2108.16 1283 2108.16 1278.83 L2108.16 1277.88 L2103.92 1277.88 M2112.42 1276.12 L2112.42 1290.92 L2108.16 1290.92 L2108.16 1286.98 Q2106.7 1289.34 2104.52 1290.48 Q2102.35 1291.59 2099.2 1291.59 Q2095.22 1291.59 2092.86 1289.36 Q2090.52 1287.12 2090.52 1283.37 Q2090.52 1278.99 2093.44 1276.77 Q2096.38 1274.55 2102.19 1274.55 L2108.16 1274.55 L2108.16 1274.13 Q2108.16 1271.19 2106.21 1269.6 Q2104.29 1267.98 2100.8 1267.98 Q2098.57 1267.98 2096.47 1268.51 Q2094.36 1269.04 2092.42 1270.11 L2092.42 1266.17 Q2094.76 1265.27 2096.95 1264.83 Q2099.15 1264.36 2101.24 1264.36 Q2106.86 1264.36 2109.64 1267.28 Q2112.42 1270.2 2112.42 1276.12 Z" fill="#000000" fill-rule="nonzero" fill-opacity="1" /><path clip-path="url(#clip760)" d="M2125.4 1257.63 L2125.4 1264.99 L2134.18 1264.99 L2134.18 1268.3 L2125.4 1268.3 L2125.4 1282.37 Q2125.4 1285.54 2126.26 1286.45 Q2127.14 1287.35 2129.8 1287.35 L2134.18 1287.35 L2134.18 1290.92 L2129.8 1290.92 Q2124.87 1290.92 2123 1289.09 Q2121.12 1287.23 2121.12 1282.37 L2121.12 1268.3 L2118 1268.3 L2118 1264.99 L2121.12 1264.99 L2121.12 1257.63 L2125.4 1257.63 Z" fill="#000000" fill-rule="nonzero" fill-opacity="1" /><path clip-path="url(#clip760)" d="M2158.44 1265.98 L2158.44 1269.97 Q2156.63 1268.97 2154.8 1268.48 Q2153 1267.98 2151.14 1267.98 Q2147 1267.98 2144.71 1270.61 Q2142.42 1273.23 2142.42 1277.98 Q2142.42 1282.72 2144.71 1285.36 Q2147 1287.98 2151.14 1287.98 Q2153 1287.98 2154.8 1287.49 Q2156.63 1286.98 2158.44 1285.98 L2158.44 1289.92 Q2156.65 1290.75 2154.73 1291.17 Q2152.83 1291.59 2150.68 1291.59 Q2144.82 1291.59 2141.38 1287.91 Q2137.93 1284.23 2137.93 1277.98 Q2137.93 1271.63 2141.4 1268 Q2144.89 1264.36 2150.96 1264.36 Q2152.93 1264.36 2154.8 1264.78 Q2156.68 1265.17 2158.44 1265.98 Z" fill="#000000" fill-rule="nonzero" fill-opacity="1" /><path clip-path="url(#clip760)" d="M2187.39 1275.27 L2187.39 1290.92 L2183.13 1290.92 L2183.13 1275.41 Q2183.13 1271.73 2181.7 1269.9 Q2180.26 1268.07 2177.39 1268.07 Q2173.94 1268.07 2171.95 1270.27 Q2169.96 1272.47 2169.96 1276.26 L2169.96 1290.92 L2165.68 1290.92 L2165.68 1254.9 L2169.96 1254.9 L2169.96 1269.02 Q2171.49 1266.68 2173.55 1265.52 Q2175.63 1264.36 2178.34 1264.36 Q2182.81 1264.36 2185.1 1267.14 Q2187.39 1269.9 2187.39 1275.27 Z" fill="#000000" fill-rule="nonzero" fill-opacity="1" /><polyline clip-path="url(#clip760)" style="stroke:#e26f46; stroke-linecap:round; stroke-linejoin:round; stroke-width:4; stroke-opacity:1; fill:none" points="1806.55,1325.48 1941.22,1325.48 "/>
<path clip-path="url(#clip760)" d="M1985.91 1309.33 L1985.91 1313.89 Q1983.25 1312.62 1980.89 1311.99 Q1978.53 1311.37 1976.33 1311.37 Q1972.51 1311.37 1970.43 1312.85 Q1968.37 1314.33 1968.37 1317.06 Q1968.37 1319.35 1969.73 1320.53 Q1971.12 1321.69 1974.96 1322.41 L1977.79 1322.99 Q1983.02 1323.98 1985.5 1326.51 Q1988 1329.01 1988 1333.22 Q1988 1338.24 1984.62 1340.83 Q1981.26 1343.43 1974.76 1343.43 Q1972.3 1343.43 1969.52 1342.87 Q1966.77 1342.32 1963.81 1341.23 L1963.81 1336.41 Q1966.65 1338.01 1969.39 1338.82 Q1972.12 1339.63 1974.76 1339.63 Q1978.76 1339.63 1980.94 1338.06 Q1983.11 1336.48 1983.11 1333.57 Q1983.11 1331.02 1981.54 1329.58 Q1979.99 1328.15 1976.42 1327.43 L1973.58 1326.88 Q1968.34 1325.83 1966.01 1323.61 Q1963.67 1321.39 1963.67 1317.43 Q1963.67 1312.85 1966.89 1310.21 Q1970.13 1307.57 1975.8 1307.57 Q1978.23 1307.57 1980.75 1308.01 Q1983.27 1308.45 1985.91 1309.33 Z" fill="#000000" fill-rule="nonzero" fill-opacity="1" /><path clip-path="url(#clip760)" d="M1994.66 1332.52 L1994.66 1316.83 L1998.92 1316.83 L1998.92 1332.36 Q1998.92 1336.04 2000.36 1337.89 Q2001.79 1339.72 2004.66 1339.72 Q2008.11 1339.72 2010.1 1337.52 Q2012.12 1335.32 2012.12 1331.53 L2012.12 1316.83 L2016.38 1316.83 L2016.38 1342.76 L2012.12 1342.76 L2012.12 1338.77 Q2010.57 1341.13 2008.51 1342.29 Q2006.47 1343.43 2003.76 1343.43 Q1999.29 1343.43 1996.98 1340.65 Q1994.66 1337.87 1994.66 1332.52 M2005.38 1316.2 L2005.38 1316.2 Z" fill="#000000" fill-rule="nonzero" fill-opacity="1" /><path clip-path="url(#clip760)" d="M2043.76 1329.82 Q2043.76 1325.12 2041.82 1322.45 Q2039.89 1319.77 2036.51 1319.77 Q2033.14 1319.77 2031.19 1322.45 Q2029.27 1325.12 2029.27 1329.82 Q2029.27 1334.51 2031.19 1337.2 Q2033.14 1339.86 2036.51 1339.86 Q2039.89 1339.86 2041.82 1337.2 Q2043.76 1334.51 2043.76 1329.82 M2029.27 1320.76 Q2030.61 1318.45 2032.65 1317.34 Q2034.71 1316.2 2037.56 1316.2 Q2042.28 1316.2 2045.22 1319.95 Q2048.18 1323.7 2048.18 1329.82 Q2048.18 1335.93 2045.22 1339.68 Q2042.28 1343.43 2037.56 1343.43 Q2034.71 1343.43 2032.65 1342.32 Q2030.61 1341.18 2029.27 1338.87 L2029.27 1342.76 L2024.99 1342.76 L2024.99 1306.74 L2029.27 1306.74 L2029.27 1320.76 Z" fill="#000000" fill-rule="nonzero" fill-opacity="1" /><path clip-path="url(#clip760)" d="M2071.77 1317.59 L2071.77 1321.62 Q2069.96 1320.7 2068.02 1320.23 Q2066.08 1319.77 2063.99 1319.77 Q2060.82 1319.77 2059.22 1320.74 Q2057.65 1321.71 2057.65 1323.66 Q2057.65 1325.14 2058.78 1326 Q2059.92 1326.83 2063.34 1327.59 L2064.8 1327.92 Q2069.34 1328.89 2071.24 1330.67 Q2073.16 1332.43 2073.16 1335.6 Q2073.16 1339.21 2070.29 1341.32 Q2067.44 1343.43 2062.44 1343.43 Q2060.36 1343.43 2058.09 1343.01 Q2055.84 1342.62 2053.34 1341.81 L2053.34 1337.41 Q2055.7 1338.63 2058 1339.26 Q2060.29 1339.86 2062.53 1339.86 Q2065.54 1339.86 2067.16 1338.84 Q2068.78 1337.8 2068.78 1335.93 Q2068.78 1334.19 2067.6 1333.26 Q2066.45 1332.34 2062.49 1331.48 L2061.01 1331.14 Q2057.05 1330.3 2055.29 1328.59 Q2053.53 1326.85 2053.53 1323.84 Q2053.53 1320.19 2056.12 1318.2 Q2058.71 1316.2 2063.48 1316.2 Q2065.84 1316.2 2067.93 1316.55 Q2070.01 1316.9 2071.77 1317.59 Z" fill="#000000" fill-rule="nonzero" fill-opacity="1" /><path clip-path="url(#clip760)" d="M2091.72 1329.72 Q2086.56 1329.72 2084.57 1330.9 Q2082.58 1332.08 2082.58 1334.93 Q2082.58 1337.2 2084.06 1338.54 Q2085.57 1339.86 2088.14 1339.86 Q2091.68 1339.86 2093.81 1337.36 Q2095.96 1334.84 2095.96 1330.67 L2095.96 1329.72 L2091.72 1329.72 M2100.22 1327.96 L2100.22 1342.76 L2095.96 1342.76 L2095.96 1338.82 Q2094.5 1341.18 2092.32 1342.32 Q2090.15 1343.43 2087 1343.43 Q2083.02 1343.43 2080.66 1341.2 Q2078.32 1338.96 2078.32 1335.21 Q2078.32 1330.83 2081.24 1328.61 Q2084.18 1326.39 2089.99 1326.39 L2095.96 1326.39 L2095.96 1325.97 Q2095.96 1323.03 2094.01 1321.44 Q2092.09 1319.82 2088.6 1319.82 Q2086.38 1319.82 2084.27 1320.35 Q2082.16 1320.88 2080.22 1321.95 L2080.22 1318.01 Q2082.56 1317.11 2084.76 1316.67 Q2086.95 1316.2 2089.04 1316.2 Q2094.66 1316.2 2097.44 1319.12 Q2100.22 1322.04 2100.22 1327.96 Z" fill="#000000" fill-rule="nonzero" fill-opacity="1" /><path clip-path="url(#clip760)" d="M2129.18 1321.81 Q2130.77 1318.94 2133 1317.57 Q2135.22 1316.2 2138.23 1316.2 Q2142.28 1316.2 2144.48 1319.05 Q2146.68 1321.88 2146.68 1327.11 L2146.68 1342.76 L2142.39 1342.76 L2142.39 1327.25 Q2142.39 1323.52 2141.07 1321.71 Q2139.76 1319.91 2137.05 1319.91 Q2133.74 1319.91 2131.82 1322.11 Q2129.89 1324.31 2129.89 1328.1 L2129.89 1342.76 L2125.61 1342.76 L2125.61 1327.25 Q2125.61 1323.5 2124.29 1321.71 Q2122.97 1319.91 2120.22 1319.91 Q2116.95 1319.91 2115.03 1322.13 Q2113.11 1324.33 2113.11 1328.1 L2113.11 1342.76 L2108.83 1342.76 L2108.83 1316.83 L2113.11 1316.83 L2113.11 1320.86 Q2114.57 1318.47 2116.61 1317.34 Q2118.64 1316.2 2121.45 1316.2 Q2124.27 1316.2 2126.24 1317.64 Q2128.23 1319.07 2129.18 1321.81 Z" fill="#000000" fill-rule="nonzero" fill-opacity="1" /><path clip-path="url(#clip760)" d="M2159.29 1338.87 L2159.29 1352.62 L2155.01 1352.62 L2155.01 1316.83 L2159.29 1316.83 L2159.29 1320.76 Q2160.63 1318.45 2162.67 1317.34 Q2164.73 1316.2 2167.58 1316.2 Q2172.3 1316.2 2175.24 1319.95 Q2178.2 1323.7 2178.2 1329.82 Q2178.2 1335.93 2175.24 1339.68 Q2172.3 1343.43 2167.58 1343.43 Q2164.73 1343.43 2162.67 1342.32 Q2160.63 1341.18 2159.29 1338.87 M2173.78 1329.82 Q2173.78 1325.12 2171.84 1322.45 Q2169.92 1319.77 2166.54 1319.77 Q2163.16 1319.77 2161.21 1322.45 Q2159.29 1325.12 2159.29 1329.82 Q2159.29 1334.51 2161.21 1337.2 Q2163.16 1339.86 2166.54 1339.86 Q2169.92 1339.86 2171.84 1337.2 Q2173.78 1334.51 2173.78 1329.82 Z" fill="#000000" fill-rule="nonzero" fill-opacity="1" /><path clip-path="url(#clip760)" d="M2185.26 1306.74 L2189.52 1306.74 L2189.52 1342.76 L2185.26 1342.76 L2185.26 1306.74 Z" fill="#000000" fill-rule="nonzero" fill-opacity="1" /><path clip-path="url(#clip760)" d="M2198.44 1316.83 L2202.69 1316.83 L2202.69 1342.76 L2198.44 1342.76 L2198.44 1316.83 M2198.44 1306.74 L2202.69 1306.74 L2202.69 1312.13 L2198.44 1312.13 L2198.44 1306.74 Z" fill="#000000" fill-rule="nonzero" fill-opacity="1" /><path clip-path="url(#clip760)" d="M2233.16 1327.11 L2233.16 1342.76 L2228.9 1342.76 L2228.9 1327.25 Q2228.9 1323.57 2227.46 1321.74 Q2226.03 1319.91 2223.16 1319.91 Q2219.71 1319.91 2217.72 1322.11 Q2215.73 1324.31 2215.73 1328.1 L2215.73 1342.76 L2211.44 1342.76 L2211.44 1316.83 L2215.73 1316.83 L2215.73 1320.86 Q2217.25 1318.52 2219.31 1317.36 Q2221.4 1316.2 2224.11 1316.2 Q2228.57 1316.2 2230.87 1318.98 Q2233.16 1321.74 2233.16 1327.11 Z" fill="#000000" fill-rule="nonzero" fill-opacity="1" /><path clip-path="url(#clip760)" d="M2258.71 1329.49 Q2258.71 1324.86 2256.79 1322.32 Q2254.89 1319.77 2251.44 1319.77 Q2248.02 1319.77 2246.1 1322.32 Q2244.2 1324.86 2244.2 1329.49 Q2244.2 1334.1 2246.1 1336.64 Q2248.02 1339.19 2251.44 1339.19 Q2254.89 1339.19 2256.79 1336.64 Q2258.71 1334.1 2258.71 1329.49 M2262.97 1339.54 Q2262.97 1346.16 2260.03 1349.38 Q2257.09 1352.62 2251.03 1352.62 Q2248.78 1352.62 2246.79 1352.27 Q2244.8 1351.95 2242.93 1351.25 L2242.93 1347.11 Q2244.8 1348.13 2246.63 1348.61 Q2248.46 1349.1 2250.36 1349.1 Q2254.55 1349.1 2256.63 1346.9 Q2258.71 1344.72 2258.71 1340.3 L2258.71 1338.2 Q2257.39 1340.49 2255.33 1341.62 Q2253.27 1342.76 2250.4 1342.76 Q2245.63 1342.76 2242.72 1339.12 Q2239.8 1335.49 2239.8 1329.49 Q2239.8 1323.47 2242.72 1319.84 Q2245.63 1316.2 2250.4 1316.2 Q2253.27 1316.2 2255.33 1317.34 Q2257.39 1318.47 2258.71 1320.76 L2258.71 1316.83 L2262.97 1316.83 L2262.97 1339.54 Z" fill="#000000" fill-rule="nonzero" fill-opacity="1" /></svg>
