<?xml version="1.0" encoding="utf-8"?>
<svg xmlns="http://www.w3.org/2000/svg" xmlns:xlink="http://www.w3.org/1999/xlink" width="600" height="400" viewBox="0 0 2400 1600">
<defs>
  <clipPath id="clip220">
    <rect x="0" y="0" width="2400" height="1600"/>
  </clipPath>
</defs>
<path clip-path="url(#clip220)" d="M0 1600 L2400 1600 L2400 0 L0 0  Z" fill="#ffffff" fill-rule="evenodd" fill-opacity="1"/>
<defs>
  <clipPath id="clip221">
    <rect x="272" y="47" width="2081" height="1377"/>
  </clipPath>
</defs>
<path clip-path="url(#clip220)" d="M249.542 1423.18 L2352.76 1423.18 L2352.76 47.2441 L249.542 47.2441  Z" fill="#ffffff" fill-rule="evenodd" fill-opacity="1"/>
<defs>
  <clipPath id="clip222">
    <rect x="249" y="47" width="2104" height="1377"/>
  </clipPath>
</defs>
<polyline clip-path="url(#clip222)" style="stroke:#000000; stroke-linecap:round; stroke-linejoin:round; stroke-width:2; stroke-opacity:0.1; fill:none" points="308.867,1423.18 308.867,47.2441 "/>
<polyline clip-path="url(#clip222)" style="stroke:#000000; stroke-linecap:round; stroke-linejoin:round; stroke-width:2; stroke-opacity:0.1; fill:none" points="809.918,1423.18 809.918,47.2441 "/>
<polyline clip-path="url(#clip222)" style="stroke:#000000; stroke-linecap:round; stroke-linejoin:round; stroke-width:2; stroke-opacity:0.1; fill:none" points="1310.97,1423.18 1310.97,47.2441 "/>
<polyline clip-path="url(#clip222)" style="stroke:#000000; stroke-linecap:round; stroke-linejoin:round; stroke-width:2; stroke-opacity:0.1; fill:none" points="1812.02,1423.18 1812.02,47.2441 "/>
<polyline clip-path="url(#clip222)" style="stroke:#000000; stroke-linecap:round; stroke-linejoin:round; stroke-width:2; stroke-opacity:0.1; fill:none" points="2313.07,1423.18 2313.07,47.2441 "/>
<polyline clip-path="url(#clip222)" style="stroke:#000000; stroke-linecap:round; stroke-linejoin:round; stroke-width:2; stroke-opacity:0.1; fill:none" points="249.542,1262.07 2352.76,1262.07 "/>
<polyline clip-path="url(#clip222)" style="stroke:#000000; stroke-linecap:round; stroke-linejoin:round; stroke-width:2; stroke-opacity:0.1; fill:none" points="249.542,1063.54 2352.76,1063.54 "/>
<polyline clip-path="url(#clip222)" style="stroke:#000000; stroke-linecap:round; stroke-linejoin:round; stroke-width:2; stroke-opacity:0.1; fill:none" points="249.542,865.017 2352.76,865.017 "/>
<polyline clip-path="url(#clip222)" style="stroke:#000000; stroke-linecap:round; stroke-linejoin:round; stroke-width:2; stroke-opacity:0.1; fill:none" points="249.542,666.492 2352.76,666.492 "/>
<polyline clip-path="url(#clip222)" style="stroke:#000000; stroke-linecap:round; stroke-linejoin:round; stroke-width:2; stroke-opacity:0.1; fill:none" points="249.542,467.966 2352.76,467.966 "/>
<polyline clip-path="url(#clip222)" style="stroke:#000000; stroke-linecap:round; stroke-linejoin:round; stroke-width:2; stroke-opacity:0.1; fill:none" points="249.542,269.44 2352.76,269.44 "/>
<polyline clip-path="url(#clip222)" style="stroke:#000000; stroke-linecap:round; stroke-linejoin:round; stroke-width:2; stroke-opacity:0.1; fill:none" points="249.542,70.9145 2352.76,70.9145 "/>
<polyline clip-path="url(#clip220)" style="stroke:#000000; stroke-linecap:round; stroke-linejoin:round; stroke-width:4; stroke-opacity:1; fill:none" points="249.542,1423.18 2352.76,1423.18 "/>
<polyline clip-path="url(#clip220)" style="stroke:#000000; stroke-linecap:round; stroke-linejoin:round; stroke-width:4; stroke-opacity:1; fill:none" points="308.867,1423.18 308.867,1404.28 "/>
<polyline clip-path="url(#clip220)" style="stroke:#000000; stroke-linecap:round; stroke-linejoin:round; stroke-width:4; stroke-opacity:1; fill:none" points="809.918,1423.18 809.918,1404.28 "/>
<polyline clip-path="url(#clip220)" style="stroke:#000000; stroke-linecap:round; stroke-linejoin:round; stroke-width:4; stroke-opacity:1; fill:none" points="1310.97,1423.18 1310.97,1404.28 "/>
<polyline clip-path="url(#clip220)" style="stroke:#000000; stroke-linecap:round; stroke-linejoin:round; stroke-width:4; stroke-opacity:1; fill:none" points="1812.02,1423.18 1812.02,1404.28 "/>
<polyline clip-path="url(#clip220)" style="stroke:#000000; stroke-linecap:round; stroke-linejoin:round; stroke-width:4; stroke-opacity:1; fill:none" points="2313.07,1423.18 2313.07,1404.28 "/>
<path clip-path="url(#clip220)" d="M308.867 1454.1 Q305.255 1454.1 303.427 1457.66 Q301.621 1461.2 301.621 1468.33 Q301.621 1475.44 303.427 1479.01 Q305.255 1482.55 308.867 1482.55 Q312.501 1482.55 314.306 1479.01 Q316.135 1475.44 316.135 1468.33 Q316.135 1461.2 314.306 1457.66 Q312.501 1454.1 308.867 1454.1 M308.867 1450.39 Q314.677 1450.39 317.732 1455 Q320.811 1459.58 320.811 1468.33 Q320.811 1477.06 317.732 1481.67 Q314.677 1486.25 308.867 1486.25 Q303.056 1486.25 299.978 1481.67 Q296.922 1477.06 296.922 1468.33 Q296.922 1459.58 299.978 1455 Q303.056 1450.39 308.867 1450.39 Z" fill="#000000" fill-rule="nonzero" fill-opacity="1" /><path clip-path="url(#clip220)" d="M758.529 1481.64 L774.849 1481.64 L774.849 1485.58 L752.904 1485.58 L752.904 1481.64 Q755.566 1478.89 760.15 1474.26 Q764.756 1469.61 765.937 1468.27 Q768.182 1465.74 769.062 1464.01 Q769.965 1462.25 769.965 1460.56 Q769.965 1457.8 768.02 1456.07 Q766.099 1454.33 762.997 1454.33 Q760.798 1454.33 758.344 1455.09 Q755.914 1455.86 753.136 1457.41 L753.136 1452.69 Q755.96 1451.55 758.414 1450.97 Q760.867 1450.39 762.904 1450.39 Q768.275 1450.39 771.469 1453.08 Q774.664 1455.77 774.664 1460.26 Q774.664 1462.39 773.853 1464.31 Q773.066 1466.2 770.96 1468.8 Q770.381 1469.47 767.279 1472.69 Q764.178 1475.88 758.529 1481.64 Z" fill="#000000" fill-rule="nonzero" fill-opacity="1" /><path clip-path="url(#clip220)" d="M784.71 1451.02 L803.066 1451.02 L803.066 1454.96 L788.992 1454.96 L788.992 1463.43 Q790.011 1463.08 791.029 1462.92 Q792.048 1462.73 793.066 1462.73 Q798.853 1462.73 802.233 1465.9 Q805.613 1469.08 805.613 1474.49 Q805.613 1480.07 802.14 1483.17 Q798.668 1486.25 792.349 1486.25 Q790.173 1486.25 787.904 1485.88 Q785.659 1485.51 783.252 1484.77 L783.252 1480.07 Q785.335 1481.2 787.557 1481.76 Q789.779 1482.32 792.256 1482.32 Q796.261 1482.32 798.599 1480.21 Q800.937 1478.1 800.937 1474.49 Q800.937 1470.88 798.599 1468.77 Q796.261 1466.67 792.256 1466.67 Q790.381 1466.67 788.506 1467.08 Q786.654 1467.5 784.71 1468.38 L784.71 1451.02 Z" fill="#000000" fill-rule="nonzero" fill-opacity="1" /><path clip-path="url(#clip220)" d="M824.825 1454.1 Q821.214 1454.1 819.386 1457.66 Q817.58 1461.2 817.58 1468.33 Q817.58 1475.44 819.386 1479.01 Q821.214 1482.55 824.825 1482.55 Q828.46 1482.55 830.265 1479.01 Q832.094 1475.44 832.094 1468.33 Q832.094 1461.2 830.265 1457.66 Q828.46 1454.1 824.825 1454.1 M824.825 1450.39 Q830.636 1450.39 833.691 1455 Q836.77 1459.58 836.77 1468.33 Q836.77 1477.06 833.691 1481.67 Q830.636 1486.25 824.825 1486.25 Q819.015 1486.25 815.937 1481.67 Q812.881 1477.06 812.881 1468.33 Q812.881 1459.58 815.937 1455 Q819.015 1450.39 824.825 1450.39 Z" fill="#000000" fill-rule="nonzero" fill-opacity="1" /><path clip-path="url(#clip220)" d="M854.987 1454.1 Q851.376 1454.1 849.547 1457.66 Q847.742 1461.2 847.742 1468.33 Q847.742 1475.44 849.547 1479.01 Q851.376 1482.55 854.987 1482.55 Q858.621 1482.55 860.427 1479.01 Q862.256 1475.44 862.256 1468.33 Q862.256 1461.2 860.427 1457.66 Q858.621 1454.1 854.987 1454.1 M854.987 1450.39 Q860.797 1450.39 863.853 1455 Q866.932 1459.58 866.932 1468.33 Q866.932 1477.06 863.853 1481.67 Q860.797 1486.25 854.987 1486.25 Q849.177 1486.25 846.098 1481.67 Q843.043 1477.06 843.043 1468.33 Q843.043 1459.58 846.098 1455 Q849.177 1450.39 854.987 1450.39 Z" fill="#000000" fill-rule="nonzero" fill-opacity="1" /><path clip-path="url(#clip220)" d="M1255.51 1451.02 L1273.86 1451.02 L1273.86 1454.96 L1259.79 1454.96 L1259.79 1463.43 Q1260.81 1463.08 1261.83 1462.92 Q1262.84 1462.73 1263.86 1462.73 Q1269.65 1462.73 1273.03 1465.9 Q1276.41 1469.08 1276.41 1474.49 Q1276.41 1480.07 1272.94 1483.17 Q1269.47 1486.25 1263.15 1486.25 Q1260.97 1486.25 1258.7 1485.88 Q1256.46 1485.51 1254.05 1484.77 L1254.05 1480.07 Q1256.13 1481.2 1258.35 1481.76 Q1260.58 1482.32 1263.05 1482.32 Q1267.06 1482.32 1269.4 1480.21 Q1271.73 1478.1 1271.73 1474.49 Q1271.73 1470.88 1269.4 1468.77 Q1267.06 1466.67 1263.05 1466.67 Q1261.18 1466.67 1259.3 1467.08 Q1257.45 1467.5 1255.51 1468.38 L1255.51 1451.02 Z" fill="#000000" fill-rule="nonzero" fill-opacity="1" /><path clip-path="url(#clip220)" d="M1295.62 1454.1 Q1292.01 1454.1 1290.18 1457.66 Q1288.38 1461.2 1288.38 1468.33 Q1288.38 1475.44 1290.18 1479.01 Q1292.01 1482.55 1295.62 1482.55 Q1299.26 1482.55 1301.06 1479.01 Q1302.89 1475.44 1302.89 1468.33 Q1302.89 1461.2 1301.06 1457.66 Q1299.26 1454.1 1295.62 1454.1 M1295.62 1450.39 Q1301.43 1450.39 1304.49 1455 Q1307.57 1459.58 1307.57 1468.33 Q1307.57 1477.06 1304.49 1481.67 Q1301.43 1486.25 1295.62 1486.25 Q1289.81 1486.25 1286.73 1481.67 Q1283.68 1477.06 1283.68 1468.33 Q1283.68 1459.58 1286.73 1455 Q1289.81 1450.39 1295.62 1450.39 Z" fill="#000000" fill-rule="nonzero" fill-opacity="1" /><path clip-path="url(#clip220)" d="M1325.78 1454.1 Q1322.17 1454.1 1320.34 1457.66 Q1318.54 1461.2 1318.54 1468.33 Q1318.54 1475.44 1320.34 1479.01 Q1322.17 1482.55 1325.78 1482.55 Q1329.42 1482.55 1331.22 1479.01 Q1333.05 1475.44 1333.05 1468.33 Q1333.05 1461.2 1331.22 1457.66 Q1329.42 1454.1 1325.78 1454.1 M1325.78 1450.39 Q1331.59 1450.39 1334.65 1455 Q1337.73 1459.58 1337.73 1468.33 Q1337.73 1477.06 1334.65 1481.67 Q1331.59 1486.25 1325.78 1486.25 Q1319.97 1486.25 1316.9 1481.67 Q1313.84 1477.06 1313.84 1468.33 Q1313.84 1459.58 1316.9 1455 Q1319.97 1450.39 1325.78 1450.39 Z" fill="#000000" fill-rule="nonzero" fill-opacity="1" /><path clip-path="url(#clip220)" d="M1355.95 1454.1 Q1352.34 1454.1 1350.51 1457.66 Q1348.7 1461.2 1348.7 1468.33 Q1348.7 1475.44 1350.51 1479.01 Q1352.34 1482.55 1355.95 1482.55 Q1359.58 1482.55 1361.39 1479.01 Q1363.21 1475.44 1363.21 1468.33 Q1363.21 1461.2 1361.39 1457.66 Q1359.58 1454.1 1355.95 1454.1 M1355.95 1450.39 Q1361.76 1450.39 1364.81 1455 Q1367.89 1459.58 1367.89 1468.33 Q1367.89 1477.06 1364.81 1481.67 Q1361.76 1486.25 1355.95 1486.25 Q1350.14 1486.25 1347.06 1481.67 Q1344 1477.06 1344 1468.33 Q1344 1459.58 1347.06 1455 Q1350.14 1450.39 1355.95 1450.39 Z" fill="#000000" fill-rule="nonzero" fill-opacity="1" /><path clip-path="url(#clip220)" d="M1755.22 1451.02 L1777.44 1451.02 L1777.44 1453.01 L1764.89 1485.58 L1760.01 1485.58 L1771.81 1454.96 L1755.22 1454.96 L1755.22 1451.02 Z" fill="#000000" fill-rule="nonzero" fill-opacity="1" /><path clip-path="url(#clip220)" d="M1786.6 1451.02 L1804.96 1451.02 L1804.96 1454.96 L1790.89 1454.96 L1790.89 1463.43 Q1791.91 1463.08 1792.92 1462.92 Q1793.94 1462.73 1794.96 1462.73 Q1800.75 1462.73 1804.13 1465.9 Q1807.51 1469.08 1807.51 1474.49 Q1807.51 1480.07 1804.04 1483.17 Q1800.56 1486.25 1794.24 1486.25 Q1792.07 1486.25 1789.8 1485.88 Q1787.55 1485.51 1785.15 1484.77 L1785.15 1480.07 Q1787.23 1481.2 1789.45 1481.76 Q1791.67 1482.32 1794.15 1482.32 Q1798.16 1482.32 1800.49 1480.21 Q1802.83 1478.1 1802.83 1474.49 Q1802.83 1470.88 1800.49 1468.77 Q1798.16 1466.67 1794.15 1466.67 Q1792.28 1466.67 1790.4 1467.08 Q1788.55 1467.5 1786.6 1468.38 L1786.6 1451.02 Z" fill="#000000" fill-rule="nonzero" fill-opacity="1" /><path clip-path="url(#clip220)" d="M1826.72 1454.1 Q1823.11 1454.1 1821.28 1457.66 Q1819.47 1461.2 1819.47 1468.33 Q1819.47 1475.44 1821.28 1479.01 Q1823.11 1482.55 1826.72 1482.55 Q1830.35 1482.55 1832.16 1479.01 Q1833.99 1475.44 1833.99 1468.33 Q1833.99 1461.2 1832.16 1457.66 Q1830.35 1454.1 1826.72 1454.1 M1826.72 1450.39 Q1832.53 1450.39 1835.59 1455 Q1838.66 1459.58 1838.66 1468.33 Q1838.66 1477.06 1835.59 1481.67 Q1832.53 1486.25 1826.72 1486.25 Q1820.91 1486.25 1817.83 1481.67 Q1814.78 1477.06 1814.78 1468.33 Q1814.78 1459.58 1817.83 1455 Q1820.91 1450.39 1826.72 1450.39 Z" fill="#000000" fill-rule="nonzero" fill-opacity="1" /><path clip-path="url(#clip220)" d="M1856.88 1454.1 Q1853.27 1454.1 1851.44 1457.66 Q1849.64 1461.2 1849.64 1468.33 Q1849.64 1475.44 1851.44 1479.01 Q1853.27 1482.55 1856.88 1482.55 Q1860.52 1482.55 1862.32 1479.01 Q1864.15 1475.44 1864.15 1468.33 Q1864.15 1461.2 1862.32 1457.66 Q1860.52 1454.1 1856.88 1454.1 M1856.88 1450.39 Q1862.69 1450.39 1865.75 1455 Q1868.83 1459.58 1868.83 1468.33 Q1868.83 1477.06 1865.75 1481.67 Q1862.69 1486.25 1856.88 1486.25 Q1851.07 1486.25 1847.99 1481.67 Q1844.94 1477.06 1844.94 1468.33 Q1844.94 1459.58 1847.99 1455 Q1851.07 1450.39 1856.88 1450.39 Z" fill="#000000" fill-rule="nonzero" fill-opacity="1" /><path clip-path="url(#clip220)" d="M2242.52 1481.64 L2250.16 1481.64 L2250.16 1455.28 L2241.85 1456.95 L2241.85 1452.69 L2250.11 1451.02 L2254.79 1451.02 L2254.79 1481.64 L2262.42 1481.64 L2262.42 1485.58 L2242.52 1485.58 L2242.52 1481.64 Z" fill="#000000" fill-rule="nonzero" fill-opacity="1" /><path clip-path="url(#clip220)" d="M2281.87 1454.1 Q2278.26 1454.1 2276.43 1457.66 Q2274.62 1461.2 2274.62 1468.33 Q2274.62 1475.44 2276.43 1479.01 Q2278.26 1482.55 2281.87 1482.55 Q2285.5 1482.55 2287.31 1479.01 Q2289.14 1475.44 2289.14 1468.33 Q2289.14 1461.2 2287.31 1457.66 Q2285.5 1454.1 2281.87 1454.1 M2281.87 1450.39 Q2287.68 1450.39 2290.73 1455 Q2293.81 1459.58 2293.81 1468.33 Q2293.81 1477.06 2290.73 1481.67 Q2287.68 1486.25 2281.87 1486.25 Q2276.06 1486.25 2272.98 1481.67 Q2269.92 1477.06 2269.92 1468.33 Q2269.92 1459.58 2272.98 1455 Q2276.06 1450.39 2281.87 1450.39 Z" fill="#000000" fill-rule="nonzero" fill-opacity="1" /><path clip-path="url(#clip220)" d="M2312.03 1454.1 Q2308.42 1454.1 2306.59 1457.66 Q2304.79 1461.2 2304.79 1468.33 Q2304.79 1475.44 2306.59 1479.01 Q2308.42 1482.55 2312.03 1482.55 Q2315.67 1482.55 2317.47 1479.01 Q2319.3 1475.44 2319.3 1468.33 Q2319.3 1461.2 2317.47 1457.66 Q2315.67 1454.1 2312.03 1454.1 M2312.03 1450.39 Q2317.84 1450.39 2320.9 1455 Q2323.98 1459.58 2323.98 1468.33 Q2323.98 1477.06 2320.9 1481.67 Q2317.84 1486.25 2312.03 1486.25 Q2306.22 1486.25 2303.14 1481.67 Q2300.09 1477.06 2300.09 1468.33 Q2300.09 1459.58 2303.14 1455 Q2306.22 1450.39 2312.03 1450.39 Z" fill="#000000" fill-rule="nonzero" fill-opacity="1" /><path clip-path="url(#clip220)" d="M2342.19 1454.1 Q2338.58 1454.1 2336.75 1457.66 Q2334.95 1461.2 2334.95 1468.33 Q2334.95 1475.44 2336.75 1479.01 Q2338.58 1482.55 2342.19 1482.55 Q2345.83 1482.55 2347.63 1479.01 Q2349.46 1475.44 2349.46 1468.33 Q2349.46 1461.2 2347.63 1457.66 Q2345.83 1454.1 2342.19 1454.1 M2342.19 1450.39 Q2348 1450.39 2351.06 1455 Q2354.14 1459.58 2354.14 1468.33 Q2354.14 1477.06 2351.06 1481.67 Q2348 1486.25 2342.19 1486.25 Q2336.38 1486.25 2333.3 1481.67 Q2330.25 1477.06 2330.25 1468.33 Q2330.25 1459.58 2333.3 1455 Q2336.38 1450.39 2342.19 1450.39 Z" fill="#000000" fill-rule="nonzero" fill-opacity="1" /><path clip-path="url(#clip220)" d="M2372.35 1454.1 Q2368.74 1454.1 2366.91 1457.66 Q2365.11 1461.2 2365.11 1468.33 Q2365.11 1475.44 2366.91 1479.01 Q2368.74 1482.55 2372.35 1482.55 Q2375.99 1482.55 2377.79 1479.01 Q2379.62 1475.44 2379.62 1468.33 Q2379.62 1461.2 2377.79 1457.66 Q2375.99 1454.1 2372.35 1454.1 M2372.35 1450.39 Q2378.16 1450.39 2381.22 1455 Q2384.3 1459.58 2384.3 1468.33 Q2384.3 1477.06 2381.22 1481.67 Q2378.16 1486.25 2372.35 1486.25 Q2366.54 1486.25 2363.47 1481.67 Q2360.41 1477.06 2360.41 1468.33 Q2360.41 1459.58 2363.47 1455 Q2366.54 1450.39 2372.35 1450.39 Z" fill="#000000" fill-rule="nonzero" fill-opacity="1" /><path clip-path="url(#clip220)" d="M1168.87 1520.52 L1175.3 1520.52 L1175.3 1568.04 L1168.87 1568.04 L1168.87 1520.52 Z" fill="#000000" fill-rule="nonzero" fill-opacity="1" /><path clip-path="url(#clip220)" d="M1193.63 1522.27 L1193.63 1532.4 L1205.7 1532.4 L1205.7 1536.95 L1193.63 1536.95 L1193.63 1556.3 Q1193.63 1560.66 1194.81 1561.9 Q1196.02 1563.14 1199.68 1563.14 L1205.7 1563.14 L1205.7 1568.04 L1199.68 1568.04 Q1192.9 1568.04 1190.32 1565.53 Q1187.74 1562.98 1187.74 1556.3 L1187.74 1536.95 L1183.45 1536.95 L1183.45 1532.4 L1187.74 1532.4 L1187.74 1522.27 L1193.63 1522.27 Z" fill="#000000" fill-rule="nonzero" fill-opacity="1" /><path clip-path="url(#clip220)" d="M1243.89 1548.76 L1243.89 1551.62 L1216.96 1551.62 Q1217.34 1557.67 1220.59 1560.85 Q1223.87 1564 1229.69 1564 Q1233.07 1564 1236.22 1563.17 Q1239.4 1562.35 1242.52 1560.69 L1242.52 1566.23 Q1239.37 1567.57 1236.06 1568.27 Q1232.75 1568.97 1229.34 1568.97 Q1220.81 1568.97 1215.82 1564 Q1210.85 1559.04 1210.85 1550.57 Q1210.85 1541.82 1215.56 1536.69 Q1220.3 1531.54 1228.33 1531.54 Q1235.52 1531.54 1239.69 1536.18 Q1243.89 1540.8 1243.89 1548.76 M1238.03 1547.04 Q1237.97 1542.23 1235.33 1539.37 Q1232.72 1536.5 1228.39 1536.5 Q1223.49 1536.5 1220.53 1539.27 Q1217.6 1542.04 1217.15 1547.07 L1238.03 1547.04 Z" fill="#000000" fill-rule="nonzero" fill-opacity="1" /><path clip-path="url(#clip220)" d="M1274.16 1537.87 Q1273.17 1537.3 1271.99 1537.04 Q1270.85 1536.76 1269.45 1536.76 Q1264.48 1536.76 1261.81 1540 Q1259.17 1543.22 1259.17 1549.27 L1259.17 1568.04 L1253.28 1568.04 L1253.28 1532.4 L1259.17 1532.4 L1259.17 1537.93 Q1261.01 1534.69 1263.97 1533.13 Q1266.93 1531.54 1271.17 1531.54 Q1271.77 1531.54 1272.5 1531.63 Q1273.24 1531.7 1274.13 1531.85 L1274.16 1537.87 Z" fill="#000000" fill-rule="nonzero" fill-opacity="1" /><path clip-path="url(#clip220)" d="M1296.5 1550.12 Q1289.4 1550.12 1286.67 1551.75 Q1283.93 1553.37 1283.93 1557.29 Q1283.93 1560.4 1285.97 1562.25 Q1288.04 1564.07 1291.57 1564.07 Q1296.44 1564.07 1299.37 1560.63 Q1302.33 1557.16 1302.33 1551.43 L1302.33 1550.12 L1296.5 1550.12 M1308.18 1547.71 L1308.18 1568.04 L1302.33 1568.04 L1302.33 1562.63 Q1300.32 1565.88 1297.33 1567.44 Q1294.34 1568.97 1290.01 1568.97 Q1284.53 1568.97 1281.29 1565.91 Q1278.07 1562.82 1278.07 1557.67 Q1278.07 1551.65 1282.08 1548.6 Q1286.13 1545.54 1294.11 1545.54 L1302.33 1545.54 L1302.33 1544.97 Q1302.33 1540.93 1299.65 1538.73 Q1297.01 1536.5 1292.21 1536.5 Q1289.15 1536.5 1286.25 1537.23 Q1283.36 1537.97 1280.68 1539.43 L1280.68 1534.02 Q1283.9 1532.78 1286.92 1532.17 Q1289.95 1531.54 1292.81 1531.54 Q1300.54 1531.54 1304.36 1535.55 Q1308.18 1539.56 1308.18 1547.71 Z" fill="#000000" fill-rule="nonzero" fill-opacity="1" /><path clip-path="url(#clip220)" d="M1326.04 1522.27 L1326.04 1532.4 L1338.1 1532.4 L1338.1 1536.95 L1326.04 1536.95 L1326.04 1556.3 Q1326.04 1560.66 1327.22 1561.9 Q1328.43 1563.14 1332.09 1563.14 L1338.1 1563.14 L1338.1 1568.04 L1332.09 1568.04 Q1325.31 1568.04 1322.73 1565.53 Q1320.15 1562.98 1320.15 1556.3 L1320.15 1536.95 L1315.85 1536.95 L1315.85 1532.4 L1320.15 1532.4 L1320.15 1522.27 L1326.04 1522.27 Z" fill="#000000" fill-rule="nonzero" fill-opacity="1" /><path clip-path="url(#clip220)" d="M1345.8 1532.4 L1351.66 1532.4 L1351.66 1568.04 L1345.8 1568.04 L1345.8 1532.4 M1345.8 1518.52 L1351.66 1518.52 L1351.66 1525.93 L1345.8 1525.93 L1345.8 1518.52 Z" fill="#000000" fill-rule="nonzero" fill-opacity="1" /><path clip-path="url(#clip220)" d="M1377.73 1536.5 Q1373.02 1536.5 1370.28 1540.19 Q1367.54 1543.85 1367.54 1550.25 Q1367.54 1556.65 1370.25 1560.34 Q1372.99 1564 1377.73 1564 Q1382.41 1564 1385.14 1560.31 Q1387.88 1556.62 1387.88 1550.25 Q1387.88 1543.92 1385.14 1540.23 Q1382.41 1536.5 1377.73 1536.5 M1377.73 1531.54 Q1385.37 1531.54 1389.73 1536.5 Q1394.09 1541.47 1394.09 1550.25 Q1394.09 1559 1389.73 1564 Q1385.37 1568.97 1377.73 1568.97 Q1370.06 1568.97 1365.7 1564 Q1361.37 1559 1361.37 1550.25 Q1361.37 1541.47 1365.7 1536.5 Q1370.06 1531.54 1377.73 1531.54 Z" fill="#000000" fill-rule="nonzero" fill-opacity="1" /><path clip-path="url(#clip220)" d="M1433.43 1546.53 L1433.43 1568.04 L1427.57 1568.04 L1427.57 1546.72 Q1427.57 1541.66 1425.6 1539.14 Q1423.63 1536.63 1419.68 1536.63 Q1414.94 1536.63 1412.2 1539.65 Q1409.46 1542.68 1409.46 1547.9 L1409.46 1568.04 L1403.57 1568.04 L1403.57 1532.4 L1409.46 1532.4 L1409.46 1537.93 Q1411.56 1534.72 1414.39 1533.13 Q1417.26 1531.54 1420.98 1531.54 Q1427.13 1531.54 1430.28 1535.36 Q1433.43 1539.14 1433.43 1546.53 Z" fill="#000000" fill-rule="nonzero" fill-opacity="1" /><polyline clip-path="url(#clip220)" style="stroke:#000000; stroke-linecap:round; stroke-linejoin:round; stroke-width:4; stroke-opacity:1; fill:none" points="249.542,1423.18 249.542,47.2441 "/>
<polyline clip-path="url(#clip220)" style="stroke:#000000; stroke-linecap:round; stroke-linejoin:round; stroke-width:4; stroke-opacity:1; fill:none" points="249.542,1262.07 268.44,1262.07 "/>
<polyline clip-path="url(#clip220)" style="stroke:#000000; stroke-linecap:round; stroke-linejoin:round; stroke-width:4; stroke-opacity:1; fill:none" points="249.542,1063.54 268.44,1063.54 "/>
<polyline clip-path="url(#clip220)" style="stroke:#000000; stroke-linecap:round; stroke-linejoin:round; stroke-width:4; stroke-opacity:1; fill:none" points="249.542,865.017 268.44,865.017 "/>
<polyline clip-path="url(#clip220)" style="stroke:#000000; stroke-linecap:round; stroke-linejoin:round; stroke-width:4; stroke-opacity:1; fill:none" points="249.542,666.492 268.44,666.492 "/>
<polyline clip-path="url(#clip220)" style="stroke:#000000; stroke-linecap:round; stroke-linejoin:round; stroke-width:4; stroke-opacity:1; fill:none" points="249.542,467.966 268.44,467.966 "/>
<polyline clip-path="url(#clip220)" style="stroke:#000000; stroke-linecap:round; stroke-linejoin:round; stroke-width:4; stroke-opacity:1; fill:none" points="249.542,269.44 268.44,269.44 "/>
<polyline clip-path="url(#clip220)" style="stroke:#000000; stroke-linecap:round; stroke-linejoin:round; stroke-width:4; stroke-opacity:1; fill:none" points="249.542,70.9145 268.44,70.9145 "/>
<path clip-path="url(#clip220)" d="M127.2 1247.87 Q123.589 1247.87 121.76 1251.43 Q119.955 1254.97 119.955 1262.1 Q119.955 1269.21 121.76 1272.77 Q123.589 1276.32 127.2 1276.32 Q130.834 1276.32 132.64 1272.77 Q134.468 1269.21 134.468 1262.1 Q134.468 1254.97 132.64 1251.43 Q130.834 1247.87 127.2 1247.87 M127.2 1244.16 Q133.01 1244.16 136.066 1248.77 Q139.144 1253.35 139.144 1262.1 Q139.144 1270.83 136.066 1275.44 Q133.01 1280.02 127.2 1280.02 Q121.39 1280.02 118.311 1275.44 Q115.256 1270.83 115.256 1262.1 Q115.256 1253.35 118.311 1248.77 Q121.39 1244.16 127.2 1244.16 Z" fill="#000000" fill-rule="nonzero" fill-opacity="1" /><path clip-path="url(#clip220)" d="M147.362 1273.47 L152.246 1273.47 L152.246 1279.35 L147.362 1279.35 L147.362 1273.47 Z" fill="#000000" fill-rule="nonzero" fill-opacity="1" /><path clip-path="url(#clip220)" d="M162.477 1244.79 L180.834 1244.79 L180.834 1248.72 L166.76 1248.72 L166.76 1257.2 Q167.778 1256.85 168.797 1256.69 Q169.815 1256.5 170.834 1256.5 Q176.621 1256.5 180.001 1259.67 Q183.38 1262.84 183.38 1268.26 Q183.38 1273.84 179.908 1276.94 Q176.436 1280.02 170.116 1280.02 Q167.94 1280.02 165.672 1279.65 Q163.427 1279.28 161.019 1278.54 L161.019 1273.84 Q163.102 1274.97 165.325 1275.53 Q167.547 1276.08 170.024 1276.08 Q174.028 1276.08 176.366 1273.98 Q178.704 1271.87 178.704 1268.26 Q178.704 1264.65 176.366 1262.54 Q174.028 1260.44 170.024 1260.44 Q168.149 1260.44 166.274 1260.85 Q164.422 1261.27 162.477 1262.15 L162.477 1244.79 Z" fill="#000000" fill-rule="nonzero" fill-opacity="1" /><path clip-path="url(#clip220)" d="M192.639 1244.79 L210.996 1244.79 L210.996 1248.72 L196.922 1248.72 L196.922 1257.2 Q197.94 1256.85 198.959 1256.69 Q199.977 1256.5 200.996 1256.5 Q206.783 1256.5 210.162 1259.67 Q213.542 1262.84 213.542 1268.26 Q213.542 1273.84 210.07 1276.94 Q206.598 1280.02 200.278 1280.02 Q198.102 1280.02 195.834 1279.65 Q193.588 1279.28 191.181 1278.54 L191.181 1273.84 Q193.264 1274.97 195.487 1275.53 Q197.709 1276.08 200.186 1276.08 Q204.19 1276.08 206.528 1273.98 Q208.866 1271.87 208.866 1268.26 Q208.866 1264.65 206.528 1262.54 Q204.19 1260.44 200.186 1260.44 Q198.311 1260.44 196.436 1260.85 Q194.584 1261.27 192.639 1262.15 L192.639 1244.79 Z" fill="#000000" fill-rule="nonzero" fill-opacity="1" /><path clip-path="url(#clip220)" d="M126.205 1049.34 Q122.593 1049.34 120.765 1052.91 Q118.959 1056.45 118.959 1063.58 Q118.959 1070.68 120.765 1074.25 Q122.593 1077.79 126.205 1077.79 Q129.839 1077.79 131.644 1074.25 Q133.473 1070.68 133.473 1063.58 Q133.473 1056.45 131.644 1052.91 Q129.839 1049.34 126.205 1049.34 M126.205 1045.64 Q132.015 1045.64 135.07 1050.24 Q138.149 1054.83 138.149 1063.58 Q138.149 1072.3 135.07 1076.91 Q132.015 1081.49 126.205 1081.49 Q120.394 1081.49 117.316 1076.91 Q114.26 1072.3 114.26 1063.58 Q114.26 1054.83 117.316 1050.24 Q120.394 1045.64 126.205 1045.64 Z" fill="#000000" fill-rule="nonzero" fill-opacity="1" /><path clip-path="url(#clip220)" d="M146.366 1074.94 L151.251 1074.94 L151.251 1080.82 L146.366 1080.82 L146.366 1074.94 Z" fill="#000000" fill-rule="nonzero" fill-opacity="1" /><path clip-path="url(#clip220)" d="M172.014 1061.68 Q168.866 1061.68 167.015 1063.83 Q165.186 1065.99 165.186 1069.74 Q165.186 1073.46 167.015 1075.64 Q168.866 1077.79 172.014 1077.79 Q175.163 1077.79 176.991 1075.64 Q178.843 1073.46 178.843 1069.74 Q178.843 1065.99 176.991 1063.83 Q175.163 1061.68 172.014 1061.68 M181.297 1047.03 L181.297 1051.29 Q179.538 1050.45 177.732 1050.01 Q175.95 1049.57 174.19 1049.57 Q169.561 1049.57 167.107 1052.7 Q164.677 1055.82 164.329 1062.14 Q165.695 1060.13 167.755 1059.06 Q169.815 1057.98 172.292 1057.98 Q177.501 1057.98 180.51 1061.15 Q183.542 1064.3 183.542 1069.74 Q183.542 1075.06 180.394 1078.28 Q177.246 1081.49 172.014 1081.49 Q166.019 1081.49 162.848 1076.91 Q159.677 1072.3 159.677 1063.58 Q159.677 1055.38 163.565 1050.52 Q167.454 1045.64 174.005 1045.64 Q175.764 1045.64 177.547 1045.99 Q179.352 1046.33 181.297 1047.03 Z" fill="#000000" fill-rule="nonzero" fill-opacity="1" /><path clip-path="url(#clip220)" d="M201.598 1049.34 Q197.987 1049.34 196.158 1052.91 Q194.352 1056.45 194.352 1063.58 Q194.352 1070.68 196.158 1074.25 Q197.987 1077.79 201.598 1077.79 Q205.232 1077.79 207.037 1074.25 Q208.866 1070.68 208.866 1063.58 Q208.866 1056.45 207.037 1052.91 Q205.232 1049.34 201.598 1049.34 M201.598 1045.64 Q207.408 1045.64 210.463 1050.24 Q213.542 1054.83 213.542 1063.58 Q213.542 1072.3 210.463 1076.91 Q207.408 1081.49 201.598 1081.49 Q195.787 1081.49 192.709 1076.91 Q189.653 1072.3 189.653 1063.58 Q189.653 1054.83 192.709 1050.24 Q195.787 1045.64 201.598 1045.64 Z" fill="#000000" fill-rule="nonzero" fill-opacity="1" /><path clip-path="url(#clip220)" d="M127.2 850.816 Q123.589 850.816 121.76 854.381 Q119.955 857.922 119.955 865.052 Q119.955 872.158 121.76 875.723 Q123.589 879.265 127.2 879.265 Q130.834 879.265 132.64 875.723 Q134.468 872.158 134.468 865.052 Q134.468 857.922 132.64 854.381 Q130.834 850.816 127.2 850.816 M127.2 847.112 Q133.01 847.112 136.066 851.719 Q139.144 856.302 139.144 865.052 Q139.144 873.779 136.066 878.385 Q133.01 882.969 127.2 882.969 Q121.39 882.969 118.311 878.385 Q115.256 873.779 115.256 865.052 Q115.256 856.302 118.311 851.719 Q121.39 847.112 127.2 847.112 Z" fill="#000000" fill-rule="nonzero" fill-opacity="1" /><path clip-path="url(#clip220)" d="M147.362 876.418 L152.246 876.418 L152.246 882.297 L147.362 882.297 L147.362 876.418 Z" fill="#000000" fill-rule="nonzero" fill-opacity="1" /><path clip-path="url(#clip220)" d="M173.01 863.154 Q169.862 863.154 168.01 865.307 Q166.181 867.459 166.181 871.209 Q166.181 874.936 168.01 877.112 Q169.862 879.265 173.01 879.265 Q176.158 879.265 177.987 877.112 Q179.839 874.936 179.839 871.209 Q179.839 867.459 177.987 865.307 Q176.158 863.154 173.01 863.154 M182.292 848.501 L182.292 852.76 Q180.533 851.927 178.727 851.487 Q176.945 851.047 175.186 851.047 Q170.556 851.047 168.102 854.172 Q165.672 857.297 165.325 863.617 Q166.69 861.603 168.751 860.538 Q170.811 859.45 173.288 859.45 Q178.496 859.45 181.505 862.621 Q184.538 865.77 184.538 871.209 Q184.538 876.533 181.389 879.751 Q178.241 882.969 173.01 882.969 Q167.015 882.969 163.843 878.385 Q160.672 873.779 160.672 865.052 Q160.672 856.858 164.561 851.996 Q168.45 847.112 175.001 847.112 Q176.76 847.112 178.542 847.459 Q180.348 847.807 182.292 848.501 Z" fill="#000000" fill-rule="nonzero" fill-opacity="1" /><path clip-path="url(#clip220)" d="M192.639 847.737 L210.996 847.737 L210.996 851.672 L196.922 851.672 L196.922 860.145 Q197.94 859.797 198.959 859.635 Q199.977 859.45 200.996 859.45 Q206.783 859.45 210.162 862.621 Q213.542 865.793 213.542 871.209 Q213.542 876.788 210.07 879.89 Q206.598 882.969 200.278 882.969 Q198.102 882.969 195.834 882.598 Q193.588 882.228 191.181 881.487 L191.181 876.788 Q193.264 877.922 195.487 878.478 Q197.709 879.033 200.186 879.033 Q204.19 879.033 206.528 876.927 Q208.866 874.82 208.866 871.209 Q208.866 867.598 206.528 865.492 Q204.19 863.385 200.186 863.385 Q198.311 863.385 196.436 863.802 Q194.584 864.219 192.639 865.098 L192.639 847.737 Z" fill="#000000" fill-rule="nonzero" fill-opacity="1" /><path clip-path="url(#clip220)" d="M126.205 652.29 Q122.593 652.29 120.765 655.855 Q118.959 659.397 118.959 666.526 Q118.959 673.633 120.765 677.197 Q122.593 680.739 126.205 680.739 Q129.839 680.739 131.644 677.197 Q133.473 673.633 133.473 666.526 Q133.473 659.397 131.644 655.855 Q129.839 652.29 126.205 652.29 M126.205 648.587 Q132.015 648.587 135.07 653.193 Q138.149 657.776 138.149 666.526 Q138.149 675.253 135.07 679.86 Q132.015 684.443 126.205 684.443 Q120.394 684.443 117.316 679.86 Q114.26 675.253 114.26 666.526 Q114.26 657.776 117.316 653.193 Q120.394 648.587 126.205 648.587 Z" fill="#000000" fill-rule="nonzero" fill-opacity="1" /><path clip-path="url(#clip220)" d="M146.366 677.892 L151.251 677.892 L151.251 683.772 L146.366 683.772 L146.366 677.892 Z" fill="#000000" fill-rule="nonzero" fill-opacity="1" /><path clip-path="url(#clip220)" d="M160.255 649.212 L182.477 649.212 L182.477 651.202 L169.931 683.772 L165.047 683.772 L176.852 653.147 L160.255 653.147 L160.255 649.212 Z" fill="#000000" fill-rule="nonzero" fill-opacity="1" /><path clip-path="url(#clip220)" d="M201.598 652.29 Q197.987 652.29 196.158 655.855 Q194.352 659.397 194.352 666.526 Q194.352 673.633 196.158 677.197 Q197.987 680.739 201.598 680.739 Q205.232 680.739 207.037 677.197 Q208.866 673.633 208.866 666.526 Q208.866 659.397 207.037 655.855 Q205.232 652.29 201.598 652.29 M201.598 648.587 Q207.408 648.587 210.463 653.193 Q213.542 657.776 213.542 666.526 Q213.542 675.253 210.463 679.86 Q207.408 684.443 201.598 684.443 Q195.787 684.443 192.709 679.86 Q189.653 675.253 189.653 666.526 Q189.653 657.776 192.709 653.193 Q195.787 648.587 201.598 648.587 Z" fill="#000000" fill-rule="nonzero" fill-opacity="1" /><path clip-path="url(#clip220)" d="M127.2 453.765 Q123.589 453.765 121.76 457.329 Q119.955 460.871 119.955 468.001 Q119.955 475.107 121.76 478.672 Q123.589 482.213 127.2 482.213 Q130.834 482.213 132.64 478.672 Q134.468 475.107 134.468 468.001 Q134.468 460.871 132.64 457.329 Q130.834 453.765 127.2 453.765 M127.2 450.061 Q133.01 450.061 136.066 454.667 Q139.144 459.251 139.144 468.001 Q139.144 476.727 136.066 481.334 Q133.01 485.917 127.2 485.917 Q121.39 485.917 118.311 481.334 Q115.256 476.727 115.256 468.001 Q115.256 459.251 118.311 454.667 Q121.39 450.061 127.2 450.061 Z" fill="#000000" fill-rule="nonzero" fill-opacity="1" /><path clip-path="url(#clip220)" d="M147.362 479.366 L152.246 479.366 L152.246 485.246 L147.362 485.246 L147.362 479.366 Z" fill="#000000" fill-rule="nonzero" fill-opacity="1" /><path clip-path="url(#clip220)" d="M161.251 450.686 L183.473 450.686 L183.473 452.677 L170.927 485.246 L166.042 485.246 L177.848 454.621 L161.251 454.621 L161.251 450.686 Z" fill="#000000" fill-rule="nonzero" fill-opacity="1" /><path clip-path="url(#clip220)" d="M192.639 450.686 L210.996 450.686 L210.996 454.621 L196.922 454.621 L196.922 463.093 Q197.94 462.746 198.959 462.584 Q199.977 462.399 200.996 462.399 Q206.783 462.399 210.162 465.57 Q213.542 468.741 213.542 474.158 Q213.542 479.737 210.07 482.838 Q206.598 485.917 200.278 485.917 Q198.102 485.917 195.834 485.547 Q193.588 485.176 191.181 484.436 L191.181 479.737 Q193.264 480.871 195.487 481.426 Q197.709 481.982 200.186 481.982 Q204.19 481.982 206.528 479.876 Q208.866 477.769 208.866 474.158 Q208.866 470.547 206.528 468.44 Q204.19 466.334 200.186 466.334 Q198.311 466.334 196.436 466.751 Q194.584 467.167 192.639 468.047 L192.639 450.686 Z" fill="#000000" fill-rule="nonzero" fill-opacity="1" /><path clip-path="url(#clip220)" d="M126.205 255.239 Q122.593 255.239 120.765 258.804 Q118.959 262.345 118.959 269.475 Q118.959 276.581 120.765 280.146 Q122.593 283.688 126.205 283.688 Q129.839 283.688 131.644 280.146 Q133.473 276.581 133.473 269.475 Q133.473 262.345 131.644 258.804 Q129.839 255.239 126.205 255.239 M126.205 251.535 Q132.015 251.535 135.07 256.142 Q138.149 260.725 138.149 269.475 Q138.149 278.202 135.07 282.808 Q132.015 287.391 126.205 287.391 Q120.394 287.391 117.316 282.808 Q114.26 278.202 114.26 269.475 Q114.26 260.725 117.316 256.142 Q120.394 251.535 126.205 251.535 Z" fill="#000000" fill-rule="nonzero" fill-opacity="1" /><path clip-path="url(#clip220)" d="M146.366 280.841 L151.251 280.841 L151.251 286.72 L146.366 286.72 L146.366 280.841 Z" fill="#000000" fill-rule="nonzero" fill-opacity="1" /><path clip-path="url(#clip220)" d="M171.436 270.308 Q168.102 270.308 166.181 272.091 Q164.283 273.873 164.283 276.998 Q164.283 280.123 166.181 281.905 Q168.102 283.688 171.436 283.688 Q174.769 283.688 176.69 281.905 Q178.612 280.1 178.612 276.998 Q178.612 273.873 176.69 272.091 Q174.792 270.308 171.436 270.308 M166.76 268.317 Q163.751 267.577 162.061 265.517 Q160.394 263.456 160.394 260.493 Q160.394 256.35 163.334 253.943 Q166.297 251.535 171.436 251.535 Q176.598 251.535 179.538 253.943 Q182.477 256.35 182.477 260.493 Q182.477 263.456 180.788 265.517 Q179.121 267.577 176.135 268.317 Q179.514 269.105 181.389 271.396 Q183.288 273.688 183.288 276.998 Q183.288 282.021 180.209 284.706 Q177.153 287.391 171.436 287.391 Q165.718 287.391 162.64 284.706 Q159.584 282.021 159.584 276.998 Q159.584 273.688 161.482 271.396 Q163.38 269.105 166.76 268.317 M165.047 260.933 Q165.047 263.618 166.714 265.123 Q168.403 266.628 171.436 266.628 Q174.445 266.628 176.135 265.123 Q177.848 263.618 177.848 260.933 Q177.848 258.248 176.135 256.743 Q174.445 255.239 171.436 255.239 Q168.403 255.239 166.714 256.743 Q165.047 258.248 165.047 260.933 Z" fill="#000000" fill-rule="nonzero" fill-opacity="1" /><path clip-path="url(#clip220)" d="M201.598 255.239 Q197.987 255.239 196.158 258.804 Q194.352 262.345 194.352 269.475 Q194.352 276.581 196.158 280.146 Q197.987 283.688 201.598 283.688 Q205.232 283.688 207.037 280.146 Q208.866 276.581 208.866 269.475 Q208.866 262.345 207.037 258.804 Q205.232 255.239 201.598 255.239 M201.598 251.535 Q207.408 251.535 210.463 256.142 Q213.542 260.725 213.542 269.475 Q213.542 278.202 210.463 282.808 Q207.408 287.391 201.598 287.391 Q195.787 287.391 192.709 282.808 Q189.653 278.202 189.653 269.475 Q189.653 260.725 192.709 256.142 Q195.787 251.535 201.598 251.535 Z" fill="#000000" fill-rule="nonzero" fill-opacity="1" /><path clip-path="url(#clip220)" d="M127.2 56.7132 Q123.589 56.7132 121.76 60.2779 Q119.955 63.8196 119.955 70.9492 Q119.955 78.0556 121.76 81.6204 Q123.589 85.1621 127.2 85.1621 Q130.834 85.1621 132.64 81.6204 Q134.468 78.0556 134.468 70.9492 Q134.468 63.8196 132.64 60.2779 Q130.834 56.7132 127.2 56.7132 M127.2 53.0095 Q133.01 53.0095 136.066 57.6159 Q139.144 62.1992 139.144 70.9492 Q139.144 79.676 136.066 84.2824 Q133.01 88.8658 127.2 88.8658 Q121.39 88.8658 118.311 84.2824 Q115.256 79.676 115.256 70.9492 Q115.256 62.1992 118.311 57.6159 Q121.39 53.0095 127.2 53.0095 Z" fill="#000000" fill-rule="nonzero" fill-opacity="1" /><path clip-path="url(#clip220)" d="M147.362 82.3149 L152.246 82.3149 L152.246 88.1945 L147.362 88.1945 L147.362 82.3149 Z" fill="#000000" fill-rule="nonzero" fill-opacity="1" /><path clip-path="url(#clip220)" d="M172.431 71.7825 Q169.098 71.7825 167.177 73.5649 Q165.278 75.3473 165.278 78.4723 Q165.278 81.5973 167.177 83.3797 Q169.098 85.1621 172.431 85.1621 Q175.764 85.1621 177.686 83.3797 Q179.607 81.5741 179.607 78.4723 Q179.607 75.3473 177.686 73.5649 Q175.788 71.7825 172.431 71.7825 M167.755 69.7918 Q164.746 69.051 163.056 66.9909 Q161.39 64.9307 161.39 61.9678 Q161.39 57.8243 164.329 55.4169 Q167.292 53.0095 172.431 53.0095 Q177.593 53.0095 180.533 55.4169 Q183.473 57.8243 183.473 61.9678 Q183.473 64.9307 181.783 66.9909 Q180.116 69.051 177.13 69.7918 Q180.51 70.5788 182.385 72.8705 Q184.283 75.1621 184.283 78.4723 Q184.283 83.4954 181.204 86.1806 Q178.149 88.8658 172.431 88.8658 Q166.714 88.8658 163.635 86.1806 Q160.579 83.4954 160.579 78.4723 Q160.579 75.1621 162.477 72.8705 Q164.376 70.5788 167.755 69.7918 M166.042 62.4076 Q166.042 65.0927 167.709 66.5974 Q169.399 68.102 172.431 68.102 Q175.44 68.102 177.13 66.5974 Q178.843 65.0927 178.843 62.4076 Q178.843 59.7224 177.13 58.2178 Q175.44 56.7132 172.431 56.7132 Q169.399 56.7132 167.709 58.2178 Q166.042 59.7224 166.042 62.4076 Z" fill="#000000" fill-rule="nonzero" fill-opacity="1" /><path clip-path="url(#clip220)" d="M192.639 53.6345 L210.996 53.6345 L210.996 57.5696 L196.922 57.5696 L196.922 66.0418 Q197.94 65.6946 198.959 65.5325 Q199.977 65.3474 200.996 65.3474 Q206.783 65.3474 210.162 68.5186 Q213.542 71.6899 213.542 77.1066 Q213.542 82.6852 210.07 85.7871 Q206.598 88.8658 200.278 88.8658 Q198.102 88.8658 195.834 88.4954 Q193.588 88.125 191.181 87.3843 L191.181 82.6852 Q193.264 83.8195 195.487 84.375 Q197.709 84.9306 200.186 84.9306 Q204.19 84.9306 206.528 82.8241 Q208.866 80.7177 208.866 77.1066 Q208.866 73.4955 206.528 71.389 Q204.19 69.2825 200.186 69.2825 Q198.311 69.2825 196.436 69.6992 Q194.584 70.1159 192.639 70.9955 L192.639 53.6345 Z" fill="#000000" fill-rule="nonzero" fill-opacity="1" /><path clip-path="url(#clip220)" d="M21.7677 1045.68 L39.6235 1045.68 L39.6235 1037.6 Q39.6235 1033.11 37.3 1030.66 Q34.9765 1028.21 30.6797 1028.21 Q26.4147 1028.21 24.0912 1030.66 Q21.7677 1033.11 21.7677 1037.6 L21.7677 1045.68 M16.4842 1052.11 L16.4842 1037.6 Q16.4842 1029.61 20.1126 1025.54 Q23.7092 1021.43 30.6797 1021.43 Q37.7138 1021.43 41.3104 1025.54 Q44.907 1029.61 44.907 1037.6 L44.907 1045.68 L64.0042 1045.68 L64.0042 1052.11 L16.4842 1052.11 Z" fill="#000000" fill-rule="nonzero" fill-opacity="1" /><path clip-path="url(#clip220)" d="M33.8307 993.548 Q33.2578 994.535 33.0032 995.713 Q32.7167 996.858 32.7167 998.259 Q32.7167 1003.22 35.9632 1005.9 Q39.1779 1008.54 45.2253 1008.54 L64.0042 1008.54 L64.0042 1014.43 L28.3562 1014.43 L28.3562 1008.54 L33.8944 1008.54 Q30.6479 1006.69 29.0883 1003.73 Q27.4968 1000.77 27.4968 996.54 Q27.4968 995.935 27.5923 995.203 Q27.656 994.471 27.8151 993.58 L33.8307 993.548 Z" fill="#000000" fill-rule="nonzero" fill-opacity="1" /><path clip-path="url(#clip220)" d="M44.7161 958.346 L47.5806 958.346 L47.5806 985.273 Q53.6281 984.891 56.8109 981.644 Q59.9619 978.366 59.9619 972.541 Q59.9619 969.168 59.1344 966.017 Q58.3069 962.834 56.6518 959.715 L62.1899 959.715 Q63.5267 962.866 64.227 966.176 Q64.9272 969.486 64.9272 972.892 Q64.9272 981.422 59.9619 986.419 Q54.9967 991.384 46.5303 991.384 Q37.7774 991.384 32.6531 986.673 Q27.4968 981.931 27.4968 973.91 Q27.4968 966.717 32.1438 962.547 Q36.7589 958.346 44.7161 958.346 M42.9973 964.202 Q38.1912 964.266 35.3266 966.908 Q32.4621 969.518 32.4621 973.846 Q32.4621 978.748 35.2312 981.708 Q38.0002 984.636 43.0292 985.082 L42.9973 964.202 Z" fill="#000000" fill-rule="nonzero" fill-opacity="1" /><path clip-path="url(#clip220)" d="M33.7671 925.276 L14.479 925.276 L14.479 919.42 L64.0042 919.42 L64.0042 925.276 L58.657 925.276 Q61.8398 927.122 63.3994 929.955 Q64.9272 932.756 64.9272 936.702 Q64.9272 943.164 59.771 947.238 Q54.6147 951.28 46.212 951.28 Q37.8093 951.28 32.6531 947.238 Q27.4968 943.164 27.4968 936.702 Q27.4968 932.756 29.0564 929.955 Q30.5842 927.122 33.7671 925.276 M46.212 945.233 Q52.6732 945.233 56.3653 942.591 Q60.0256 939.917 60.0256 935.27 Q60.0256 930.623 56.3653 927.95 Q52.6732 925.276 46.212 925.276 Q39.7508 925.276 36.0905 927.95 Q32.3984 930.623 32.3984 935.27 Q32.3984 939.917 36.0905 942.591 Q39.7508 945.233 46.212 945.233 Z" fill="#000000" fill-rule="nonzero" fill-opacity="1" /><path clip-path="url(#clip220)" d="M28.3562 907.357 L28.3562 901.5 L64.0042 901.5 L64.0042 907.357 L28.3562 907.357 M14.479 907.357 L14.479 901.5 L21.895 901.5 L21.895 907.357 L14.479 907.357 Z" fill="#000000" fill-rule="nonzero" fill-opacity="1" /><path clip-path="url(#clip220)" d="M29.7248 863.592 L35.1993 863.592 Q33.8307 866.075 33.1623 868.589 Q32.4621 871.072 32.4621 873.618 Q32.4621 879.316 36.0905 882.467 Q39.6872 885.618 46.212 885.618 Q52.7369 885.618 56.3653 882.467 Q59.9619 879.316 59.9619 873.618 Q59.9619 871.072 59.2935 868.589 Q58.5933 866.075 57.2247 863.592 L62.6355 863.592 Q63.7814 866.043 64.3543 868.685 Q64.9272 871.295 64.9272 874.255 Q64.9272 882.308 59.8664 887.05 Q54.8057 891.792 46.212 891.792 Q37.491 891.792 32.4939 887.018 Q27.4968 882.212 27.4968 873.873 Q27.4968 871.168 28.0697 868.589 Q28.6108 866.011 29.7248 863.592 Z" fill="#000000" fill-rule="nonzero" fill-opacity="1" /><path clip-path="url(#clip220)" d="M18.2347 847.614 L28.3562 847.614 L28.3562 835.551 L32.9077 835.551 L32.9077 847.614 L52.2594 847.614 Q56.6199 847.614 57.8613 846.437 Q59.1026 845.227 59.1026 841.567 L59.1026 835.551 L64.0042 835.551 L64.0042 841.567 Q64.0042 848.346 61.4897 850.925 Q58.9434 853.503 52.2594 853.503 L32.9077 853.503 L32.9077 857.8 L28.3562 857.8 L28.3562 853.503 L18.2347 853.503 L18.2347 847.614 Z" fill="#000000" fill-rule="nonzero" fill-opacity="1" /><path clip-path="url(#clip220)" d="M28.3562 827.849 L28.3562 821.992 L64.0042 821.992 L64.0042 827.849 L28.3562 827.849 M14.479 827.849 L14.479 821.992 L21.895 821.992 L21.895 827.849 L14.479 827.849 Z" fill="#000000" fill-rule="nonzero" fill-opacity="1" /><path clip-path="url(#clip220)" d="M32.4621 795.925 Q32.4621 800.636 36.1542 803.373 Q39.8145 806.11 46.212 806.11 Q52.6095 806.11 56.3017 803.405 Q59.9619 800.667 59.9619 795.925 Q59.9619 791.246 56.2698 788.509 Q52.5777 785.772 46.212 785.772 Q39.8781 785.772 36.186 788.509 Q32.4621 791.246 32.4621 795.925 M27.4968 795.925 Q27.4968 788.286 32.4621 783.926 Q37.4273 779.565 46.212 779.565 Q54.9649 779.565 59.9619 783.926 Q64.9272 788.286 64.9272 795.925 Q64.9272 803.596 59.9619 807.956 Q54.9649 812.285 46.212 812.285 Q37.4273 812.285 32.4621 807.956 Q27.4968 803.596 27.4968 795.925 Z" fill="#000000" fill-rule="nonzero" fill-opacity="1" /><path clip-path="url(#clip220)" d="M42.4881 740.225 L64.0042 740.225 L64.0042 746.081 L42.679 746.081 Q37.6183 746.081 35.1038 748.055 Q32.5894 750.028 32.5894 753.975 Q32.5894 758.717 35.6131 761.455 Q38.6368 764.192 43.8567 764.192 L64.0042 764.192 L64.0042 770.08 L28.3562 770.08 L28.3562 764.192 L33.8944 764.192 Q30.6797 762.091 29.0883 759.258 Q27.4968 756.394 27.4968 752.67 Q27.4968 746.527 31.3163 743.376 Q35.1038 740.225 42.4881 740.225 Z" fill="#000000" fill-rule="nonzero" fill-opacity="1" /><path clip-path="url(#clip220)" d="M22.818 691.686 L46.4666 700.407 L46.4666 682.934 L22.818 691.686 M16.4842 695.315 L16.4842 688.026 L64.0042 669.916 L64.0042 676.6 L51.8138 680.928 L51.8138 702.349 L64.0042 706.678 L64.0042 713.457 L16.4842 695.315 Z" fill="#000000" fill-rule="nonzero" fill-opacity="1" /><path clip-path="url(#clip220)" d="M29.7248 638.724 L35.1993 638.724 Q33.8307 641.206 33.1623 643.721 Q32.4621 646.203 32.4621 648.75 Q32.4621 654.447 36.0905 657.598 Q39.6872 660.749 46.212 660.749 Q52.7369 660.749 56.3653 657.598 Q59.9619 654.447 59.9619 648.75 Q59.9619 646.203 59.2935 643.721 Q58.5933 641.206 57.2247 638.724 L62.6355 638.724 Q63.7814 641.175 64.3543 643.816 Q64.9272 646.426 64.9272 649.386 Q64.9272 657.439 59.8664 662.181 Q54.8057 666.924 46.212 666.924 Q37.491 666.924 32.4939 662.15 Q27.4968 657.343 27.4968 649.004 Q27.4968 646.299 28.0697 643.721 Q28.6108 641.143 29.7248 638.724 Z" fill="#000000" fill-rule="nonzero" fill-opacity="1" /><path clip-path="url(#clip220)" d="M29.7248 602.885 L35.1993 602.885 Q33.8307 605.367 33.1623 607.882 Q32.4621 610.365 32.4621 612.911 Q32.4621 618.608 36.0905 621.759 Q39.6872 624.91 46.212 624.91 Q52.7369 624.91 56.3653 621.759 Q59.9619 618.608 59.9619 612.911 Q59.9619 610.365 59.2935 607.882 Q58.5933 605.367 57.2247 602.885 L62.6355 602.885 Q63.7814 605.336 64.3543 607.977 Q64.9272 610.587 64.9272 613.547 Q64.9272 621.6 59.8664 626.342 Q54.8057 631.085 46.212 631.085 Q37.491 631.085 32.4939 626.311 Q27.4968 621.505 27.4968 613.165 Q27.4968 610.46 28.0697 607.882 Q28.6108 605.304 29.7248 602.885 Z" fill="#000000" fill-rule="nonzero" fill-opacity="1" /><path clip-path="url(#clip220)" d="M49.9359 593.304 L28.3562 593.304 L28.3562 587.448 L49.7131 587.448 Q54.7739 587.448 57.3202 585.475 Q59.8346 583.501 59.8346 579.555 Q59.8346 574.812 56.8109 572.075 Q53.7872 569.306 48.5673 569.306 L28.3562 569.306 L28.3562 563.449 L64.0042 563.449 L64.0042 569.306 L58.5296 569.306 Q61.7762 571.438 63.3676 574.271 Q64.9272 577.072 64.9272 580.796 Q64.9272 586.939 61.1078 590.122 Q57.2883 593.304 49.9359 593.304 M27.4968 578.568 L27.4968 578.568 Z" fill="#000000" fill-rule="nonzero" fill-opacity="1" /><path clip-path="url(#clip220)" d="M33.8307 530.73 Q33.2578 531.716 33.0032 532.894 Q32.7167 534.04 32.7167 535.44 Q32.7167 540.405 35.9632 543.079 Q39.1779 545.721 45.2253 545.721 L64.0042 545.721 L64.0042 551.609 L28.3562 551.609 L28.3562 545.721 L33.8944 545.721 Q30.6479 543.875 29.0883 540.915 Q27.4968 537.955 27.4968 533.721 Q27.4968 533.117 27.5923 532.385 Q27.656 531.653 27.8151 530.761 L33.8307 530.73 Z" fill="#000000" fill-rule="nonzero" fill-opacity="1" /><path clip-path="url(#clip220)" d="M46.0847 508.386 Q46.0847 515.484 47.7079 518.221 Q49.3312 520.958 53.2461 520.958 Q56.3653 520.958 58.2114 518.921 Q60.0256 516.852 60.0256 513.319 Q60.0256 508.45 56.5881 505.521 Q53.1188 502.561 47.3897 502.561 L46.0847 502.561 L46.0847 508.386 M43.6657 496.705 L64.0042 496.705 L64.0042 502.561 L58.5933 502.561 Q61.8398 504.567 63.3994 507.558 Q64.9272 510.55 64.9272 514.879 Q64.9272 520.353 61.8716 523.6 Q58.7843 526.815 53.6281 526.815 Q47.6125 526.815 44.5569 522.804 Q41.5014 518.762 41.5014 510.773 L41.5014 502.561 L40.9285 502.561 Q36.8862 502.561 34.6901 505.235 Q32.4621 507.877 32.4621 512.683 Q32.4621 515.738 33.1941 518.635 Q33.9262 521.531 35.3903 524.205 L29.9795 524.205 Q28.7381 520.99 28.1334 517.966 Q27.4968 514.943 27.4968 512.078 Q27.4968 504.344 31.5072 500.524 Q35.5176 496.705 43.6657 496.705 Z" fill="#000000" fill-rule="nonzero" fill-opacity="1" /><path clip-path="url(#clip220)" d="M29.7248 458.988 L35.1993 458.988 Q33.8307 461.471 33.1623 463.985 Q32.4621 466.468 32.4621 469.014 Q32.4621 474.711 36.0905 477.862 Q39.6872 481.013 46.212 481.013 Q52.7369 481.013 56.3653 477.862 Q59.9619 474.711 59.9619 469.014 Q59.9619 466.468 59.2935 463.985 Q58.5933 461.471 57.2247 458.988 L62.6355 458.988 Q63.7814 461.439 64.3543 464.081 Q64.9272 466.691 64.9272 469.651 Q64.9272 477.703 59.8664 482.446 Q54.8057 487.188 46.212 487.188 Q37.491 487.188 32.4939 482.414 Q27.4968 477.608 27.4968 469.269 Q27.4968 466.563 28.0697 463.985 Q28.6108 461.407 29.7248 458.988 Z" fill="#000000" fill-rule="nonzero" fill-opacity="1" /><path clip-path="url(#clip220)" d="M67.3143 433.971 Q73.68 436.453 75.6216 438.809 Q77.5631 441.164 77.5631 445.111 L77.5631 449.79 L72.6615 449.79 L72.6615 446.352 Q72.6615 443.933 71.5157 442.596 Q70.3699 441.26 66.1048 439.636 L63.4312 438.586 L28.3562 453.004 L28.3562 446.798 L56.238 435.658 L28.3562 424.518 L28.3562 418.311 L67.3143 433.971 Z" fill="#000000" fill-rule="nonzero" fill-opacity="1" /><polyline clip-path="url(#clip222)" style="stroke:#009af9; stroke-linecap:round; stroke-linejoin:round; stroke-width:4; stroke-opacity:1; fill:none" points="309.067,1384.24 329.109,1174.26 349.151,1116.99 369.193,544.322 389.235,525.233 409.277,467.966 429.319,467.966 449.361,410.699 469.403,410.699 489.446,410.699 509.488,372.521 529.53,391.61 549.572,448.877 569.614,429.788 589.656,391.61 609.698,391.61 629.74,372.521 649.782,334.343 669.824,353.432 689.866,372.521 709.908,334.343 729.95,353.432 749.992,315.254 770.034,315.254 790.076,315.254 810.118,277.076 830.161,296.165 850.203,296.165 870.245,277.076 890.287,277.076 910.329,257.987 930.371,238.898 950.413,238.898 970.455,238.898 990.497,219.809 1010.54,219.809 1030.58,181.631 1050.62,200.72 1070.67,181.631 1090.71,200.72 1110.75,200.72 1130.79,143.453 1150.83,143.453 1170.88,162.542 1190.92,162.542 1210.96,162.542 1231,162.542 1251.04,181.631 1271.09,162.542 1291.13,143.453 1311.17,143.453 1331.21,86.1857 1351.25,105.275 1371.3,86.1857 1391.34,86.1857 1411.38,86.1857 1431.42,86.1857 1451.46,86.1857 1471.51,86.1857 1491.55,124.364 1511.59,143.453 1531.63,105.275 1551.67,86.1857 1571.72,86.1857 1591.76,86.1857 1611.8,86.1857 1631.84,86.1857 1651.89,86.1857 1671.93,86.1857 1691.97,86.1857 1712.01,105.275 1732.05,86.1857 1752.1,105.275 1772.14,105.275 1792.18,105.275 1812.22,105.275 1832.26,105.275 1852.31,105.275 1872.35,105.275 1892.39,105.275 1912.43,105.275 1932.47,105.275 1952.52,105.275 1972.56,105.275 1992.6,105.275 2012.64,86.1857 2032.68,105.275 2052.73,105.275 2072.77,105.275 2092.81,105.275 2112.85,105.275 2132.89,105.275 2152.94,105.275 2172.98,105.275 2193.02,105.275 2213.06,105.275 2233.1,105.275 2253.15,105.275 2273.19,105.275 2293.23,105.275 "/>
</svg>
