<?xml version="1.0" encoding="utf-8"?>
<svg xmlns="http://www.w3.org/2000/svg" xmlns:xlink="http://www.w3.org/1999/xlink" width="600" height="400" viewBox="0 0 2400 1600">
<defs>
  <clipPath id="clip550">
    <rect x="0" y="0" width="2400" height="1600"/>
  </clipPath>
</defs>
<path clip-path="url(#clip550)" d="M0 1600 L2400 1600 L2400 0 L0 0  Z" fill="#ffffff" fill-rule="evenodd" fill-opacity="1"/>
<defs>
  <clipPath id="clip551">
    <rect x="203" y="47" width="1910" height="1377"/>
  </clipPath>
</defs>
<path clip-path="url(#clip550)" d="M242.135 1423.18 L2352.76 1423.18 L2352.76 47.2441 L242.135 47.2441  Z" fill="#ffffff" fill-rule="evenodd" fill-opacity="1"/>
<defs>
  <clipPath id="clip552">
    <rect x="242" y="47" width="2112" height="1377"/>
  </clipPath>
</defs>
<polyline clip-path="url(#clip552)" style="stroke:#000000; stroke-linecap:round; stroke-linejoin:round; stroke-width:2; stroke-opacity:0.1; fill:none" points="295.21,1423.18 295.21,47.2441 "/>
<polyline clip-path="url(#clip552)" style="stroke:#000000; stroke-linecap:round; stroke-linejoin:round; stroke-width:2; stroke-opacity:0.1; fill:none" points="961.147,1423.18 961.147,47.2441 "/>
<polyline clip-path="url(#clip552)" style="stroke:#000000; stroke-linecap:round; stroke-linejoin:round; stroke-width:2; stroke-opacity:0.1; fill:none" points="1627.08,1423.18 1627.08,47.2441 "/>
<polyline clip-path="url(#clip552)" style="stroke:#000000; stroke-linecap:round; stroke-linejoin:round; stroke-width:2; stroke-opacity:0.1; fill:none" points="2293.02,1423.18 2293.02,47.2441 "/>
<polyline clip-path="url(#clip552)" style="stroke:#000000; stroke-linecap:round; stroke-linejoin:round; stroke-width:2; stroke-opacity:0.1; fill:none" points="242.135,1423.18 2352.76,1423.18 "/>
<polyline clip-path="url(#clip552)" style="stroke:#000000; stroke-linecap:round; stroke-linejoin:round; stroke-width:2; stroke-opacity:0.1; fill:none" points="242.135,1219.57 2352.76,1219.57 "/>
<polyline clip-path="url(#clip552)" style="stroke:#000000; stroke-linecap:round; stroke-linejoin:round; stroke-width:2; stroke-opacity:0.1; fill:none" points="242.135,1015.96 2352.76,1015.96 "/>
<polyline clip-path="url(#clip552)" style="stroke:#000000; stroke-linecap:round; stroke-linejoin:round; stroke-width:2; stroke-opacity:0.1; fill:none" points="242.135,812.352 2352.76,812.352 "/>
<polyline clip-path="url(#clip552)" style="stroke:#000000; stroke-linecap:round; stroke-linejoin:round; stroke-width:2; stroke-opacity:0.1; fill:none" points="242.135,608.742 2352.76,608.742 "/>
<polyline clip-path="url(#clip552)" style="stroke:#000000; stroke-linecap:round; stroke-linejoin:round; stroke-width:2; stroke-opacity:0.1; fill:none" points="242.135,405.133 2352.76,405.133 "/>
<polyline clip-path="url(#clip552)" style="stroke:#000000; stroke-linecap:round; stroke-linejoin:round; stroke-width:2; stroke-opacity:0.1; fill:none" points="242.135,201.523 2352.76,201.523 "/>
<polyline clip-path="url(#clip550)" style="stroke:#000000; stroke-linecap:round; stroke-linejoin:round; stroke-width:4; stroke-opacity:1; fill:none" points="242.135,1423.18 2352.76,1423.18 "/>
<polyline clip-path="url(#clip550)" style="stroke:#000000; stroke-linecap:round; stroke-linejoin:round; stroke-width:4; stroke-opacity:1; fill:none" points="295.21,1423.18 295.21,1404.28 "/>
<polyline clip-path="url(#clip550)" style="stroke:#000000; stroke-linecap:round; stroke-linejoin:round; stroke-width:4; stroke-opacity:1; fill:none" points="961.147,1423.18 961.147,1404.28 "/>
<polyline clip-path="url(#clip550)" style="stroke:#000000; stroke-linecap:round; stroke-linejoin:round; stroke-width:4; stroke-opacity:1; fill:none" points="1627.08,1423.18 1627.08,1404.28 "/>
<polyline clip-path="url(#clip550)" style="stroke:#000000; stroke-linecap:round; stroke-linejoin:round; stroke-width:4; stroke-opacity:1; fill:none" points="2293.02,1423.18 2293.02,1404.28 "/>
<path clip-path="url(#clip550)" d="M295.21 1454.1 Q291.599 1454.1 289.77 1457.66 Q287.965 1461.2 287.965 1468.33 Q287.965 1475.44 289.77 1479.01 Q291.599 1482.55 295.21 1482.55 Q298.844 1482.55 300.65 1479.01 Q302.478 1475.44 302.478 1468.33 Q302.478 1461.2 300.65 1457.66 Q298.844 1454.1 295.21 1454.1 M295.21 1450.39 Q301.02 1450.39 304.076 1455 Q307.154 1459.58 307.154 1468.33 Q307.154 1477.06 304.076 1481.67 Q301.02 1486.25 295.21 1486.25 Q289.4 1486.25 286.321 1481.67 Q283.265 1477.06 283.265 1468.33 Q283.265 1459.58 286.321 1455 Q289.4 1450.39 295.21 1450.39 Z" fill="#000000" fill-rule="nonzero" fill-opacity="1" /><path clip-path="url(#clip550)" d="M920.754 1481.64 L928.393 1481.64 L928.393 1455.28 L920.082 1456.95 L920.082 1452.69 L928.346 1451.02 L933.022 1451.02 L933.022 1481.64 L940.661 1481.64 L940.661 1485.58 L920.754 1485.58 L920.754 1481.64 Z" fill="#000000" fill-rule="nonzero" fill-opacity="1" /><path clip-path="url(#clip550)" d="M960.105 1454.1 Q956.494 1454.1 954.666 1457.66 Q952.86 1461.2 952.86 1468.33 Q952.86 1475.44 954.666 1479.01 Q956.494 1482.55 960.105 1482.55 Q963.74 1482.55 965.545 1479.01 Q967.374 1475.44 967.374 1468.33 Q967.374 1461.2 965.545 1457.66 Q963.74 1454.1 960.105 1454.1 M960.105 1450.39 Q965.916 1450.39 968.971 1455 Q972.05 1459.58 972.05 1468.33 Q972.05 1477.06 968.971 1481.67 Q965.916 1486.25 960.105 1486.25 Q954.295 1486.25 951.217 1481.67 Q948.161 1477.06 948.161 1468.33 Q948.161 1459.58 951.217 1455 Q954.295 1450.39 960.105 1450.39 Z" fill="#000000" fill-rule="nonzero" fill-opacity="1" /><path clip-path="url(#clip550)" d="M990.267 1454.1 Q986.656 1454.1 984.827 1457.66 Q983.022 1461.2 983.022 1468.33 Q983.022 1475.44 984.827 1479.01 Q986.656 1482.55 990.267 1482.55 Q993.901 1482.55 995.707 1479.01 Q997.536 1475.44 997.536 1468.33 Q997.536 1461.2 995.707 1457.66 Q993.901 1454.1 990.267 1454.1 M990.267 1450.39 Q996.077 1450.39 999.133 1455 Q1002.21 1459.58 1002.21 1468.33 Q1002.21 1477.06 999.133 1481.67 Q996.077 1486.25 990.267 1486.25 Q984.457 1486.25 981.378 1481.67 Q978.323 1477.06 978.323 1468.33 Q978.323 1459.58 981.378 1455 Q984.457 1450.39 990.267 1450.39 Z" fill="#000000" fill-rule="nonzero" fill-opacity="1" /><path clip-path="url(#clip550)" d="M1590.78 1481.64 L1607.1 1481.64 L1607.1 1485.58 L1585.15 1485.58 L1585.15 1481.64 Q1587.81 1478.89 1592.4 1474.26 Q1597 1469.61 1598.18 1468.27 Q1600.43 1465.74 1601.31 1464.01 Q1602.21 1462.25 1602.21 1460.56 Q1602.21 1457.8 1600.27 1456.07 Q1598.35 1454.33 1595.24 1454.33 Q1593.05 1454.33 1590.59 1455.09 Q1588.16 1455.86 1585.38 1457.41 L1585.38 1452.69 Q1588.21 1451.55 1590.66 1450.97 Q1593.11 1450.39 1595.15 1450.39 Q1600.52 1450.39 1603.72 1453.08 Q1606.91 1455.77 1606.91 1460.26 Q1606.91 1462.39 1606.1 1464.31 Q1605.31 1466.2 1603.21 1468.8 Q1602.63 1469.47 1599.53 1472.69 Q1596.42 1475.88 1590.78 1481.64 Z" fill="#000000" fill-rule="nonzero" fill-opacity="1" /><path clip-path="url(#clip550)" d="M1626.91 1454.1 Q1623.3 1454.1 1621.47 1457.66 Q1619.67 1461.2 1619.67 1468.33 Q1619.67 1475.44 1621.47 1479.01 Q1623.3 1482.55 1626.91 1482.55 Q1630.54 1482.55 1632.35 1479.01 Q1634.18 1475.44 1634.18 1468.33 Q1634.18 1461.2 1632.35 1457.66 Q1630.54 1454.1 1626.91 1454.1 M1626.91 1450.39 Q1632.72 1450.39 1635.78 1455 Q1638.85 1459.58 1638.85 1468.33 Q1638.85 1477.06 1635.78 1481.67 Q1632.72 1486.25 1626.91 1486.25 Q1621.1 1486.25 1618.02 1481.67 Q1614.97 1477.06 1614.97 1468.33 Q1614.97 1459.58 1618.02 1455 Q1621.1 1450.39 1626.91 1450.39 Z" fill="#000000" fill-rule="nonzero" fill-opacity="1" /><path clip-path="url(#clip550)" d="M1657.07 1454.1 Q1653.46 1454.1 1651.63 1457.66 Q1649.83 1461.2 1649.83 1468.33 Q1649.83 1475.44 1651.63 1479.01 Q1653.46 1482.55 1657.07 1482.55 Q1660.71 1482.55 1662.51 1479.01 Q1664.34 1475.44 1664.34 1468.33 Q1664.34 1461.2 1662.51 1457.66 Q1660.71 1454.1 1657.07 1454.1 M1657.07 1450.39 Q1662.88 1450.39 1665.94 1455 Q1669.02 1459.58 1669.02 1468.33 Q1669.02 1477.06 1665.94 1481.67 Q1662.88 1486.25 1657.07 1486.25 Q1651.26 1486.25 1648.18 1481.67 Q1645.13 1477.06 1645.13 1468.33 Q1645.13 1459.58 1648.18 1455 Q1651.26 1450.39 1657.07 1450.39 Z" fill="#000000" fill-rule="nonzero" fill-opacity="1" /><path clip-path="url(#clip550)" d="M2266.78 1466.95 Q2270.14 1467.66 2272.01 1469.93 Q2273.91 1472.2 2273.91 1475.53 Q2273.91 1480.65 2270.39 1483.45 Q2266.88 1486.25 2260.39 1486.25 Q2258.22 1486.25 2255.9 1485.81 Q2253.61 1485.39 2251.16 1484.54 L2251.16 1480.02 Q2253.1 1481.16 2255.42 1481.74 Q2257.73 1482.32 2260.26 1482.32 Q2264.65 1482.32 2266.95 1480.58 Q2269.26 1478.84 2269.26 1475.53 Q2269.26 1472.48 2267.11 1470.77 Q2264.98 1469.03 2261.16 1469.03 L2257.13 1469.03 L2257.13 1465.19 L2261.34 1465.19 Q2264.79 1465.19 2266.62 1463.82 Q2268.45 1462.43 2268.45 1459.84 Q2268.45 1457.18 2266.55 1455.77 Q2264.68 1454.33 2261.16 1454.33 Q2259.24 1454.33 2257.04 1454.75 Q2254.84 1455.16 2252.2 1456.04 L2252.2 1451.88 Q2254.86 1451.14 2257.18 1450.77 Q2259.51 1450.39 2261.57 1450.39 Q2266.9 1450.39 2270 1452.83 Q2273.1 1455.23 2273.1 1459.35 Q2273.1 1462.22 2271.46 1464.21 Q2269.82 1466.18 2266.78 1466.95 Z" fill="#000000" fill-rule="nonzero" fill-opacity="1" /><path clip-path="url(#clip550)" d="M2292.78 1454.1 Q2289.17 1454.1 2287.34 1457.66 Q2285.53 1461.2 2285.53 1468.33 Q2285.53 1475.44 2287.34 1479.01 Q2289.17 1482.55 2292.78 1482.55 Q2296.41 1482.55 2298.22 1479.01 Q2300.05 1475.44 2300.05 1468.33 Q2300.05 1461.2 2298.22 1457.66 Q2296.41 1454.1 2292.78 1454.1 M2292.78 1450.39 Q2298.59 1450.39 2301.64 1455 Q2304.72 1459.58 2304.72 1468.33 Q2304.72 1477.06 2301.64 1481.67 Q2298.59 1486.25 2292.78 1486.25 Q2286.97 1486.25 2283.89 1481.67 Q2280.83 1477.06 2280.83 1468.33 Q2280.83 1459.58 2283.89 1455 Q2286.97 1450.39 2292.78 1450.39 Z" fill="#000000" fill-rule="nonzero" fill-opacity="1" /><path clip-path="url(#clip550)" d="M2322.94 1454.1 Q2319.33 1454.1 2317.5 1457.66 Q2315.69 1461.2 2315.69 1468.33 Q2315.69 1475.44 2317.5 1479.01 Q2319.33 1482.55 2322.94 1482.55 Q2326.57 1482.55 2328.38 1479.01 Q2330.21 1475.44 2330.21 1468.33 Q2330.21 1461.2 2328.38 1457.66 Q2326.57 1454.1 2322.94 1454.1 M2322.94 1450.39 Q2328.75 1450.39 2331.81 1455 Q2334.88 1459.58 2334.88 1468.33 Q2334.88 1477.06 2331.81 1481.67 Q2328.75 1486.25 2322.94 1486.25 Q2317.13 1486.25 2314.05 1481.67 Q2311 1477.06 2311 1468.33 Q2311 1459.58 2314.05 1455 Q2317.13 1450.39 2322.94 1450.39 Z" fill="#000000" fill-rule="nonzero" fill-opacity="1" /><path clip-path="url(#clip550)" d="M1165.17 1520.52 L1171.6 1520.52 L1171.6 1568.04 L1165.17 1568.04 L1165.17 1520.52 Z" fill="#000000" fill-rule="nonzero" fill-opacity="1" /><path clip-path="url(#clip550)" d="M1189.93 1522.27 L1189.93 1532.4 L1201.99 1532.4 L1201.99 1536.95 L1189.93 1536.95 L1189.93 1556.3 Q1189.93 1560.66 1191.11 1561.9 Q1192.32 1563.14 1195.98 1563.14 L1201.99 1563.14 L1201.99 1568.04 L1195.98 1568.04 Q1189.2 1568.04 1186.62 1565.53 Q1184.04 1562.98 1184.04 1556.3 L1184.04 1536.95 L1179.74 1536.95 L1179.74 1532.4 L1184.04 1532.4 L1184.04 1522.27 L1189.93 1522.27 Z" fill="#000000" fill-rule="nonzero" fill-opacity="1" /><path clip-path="url(#clip550)" d="M1240.19 1548.76 L1240.19 1551.62 L1213.26 1551.62 Q1213.64 1557.67 1216.89 1560.85 Q1220.17 1564 1225.99 1564 Q1229.36 1564 1232.52 1563.17 Q1235.7 1562.35 1238.82 1560.69 L1238.82 1566.23 Q1235.67 1567.57 1232.36 1568.27 Q1229.05 1568.97 1225.64 1568.97 Q1217.11 1568.97 1212.11 1564 Q1207.15 1559.04 1207.15 1550.57 Q1207.15 1541.82 1211.86 1536.69 Q1216.6 1531.54 1224.62 1531.54 Q1231.81 1531.54 1235.98 1536.18 Q1240.19 1540.8 1240.19 1548.76 M1234.33 1547.04 Q1234.27 1542.23 1231.62 1539.37 Q1229.01 1536.5 1224.69 1536.5 Q1219.78 1536.5 1216.82 1539.27 Q1213.9 1542.04 1213.45 1547.07 L1234.33 1547.04 Z" fill="#000000" fill-rule="nonzero" fill-opacity="1" /><path clip-path="url(#clip550)" d="M1270.45 1537.87 Q1269.47 1537.3 1268.29 1537.04 Q1267.14 1536.76 1265.74 1536.76 Q1260.78 1536.76 1258.11 1540 Q1255.46 1543.22 1255.46 1549.27 L1255.46 1568.04 L1249.58 1568.04 L1249.58 1532.4 L1255.46 1532.4 L1255.46 1537.93 Q1257.31 1534.69 1260.27 1533.13 Q1263.23 1531.54 1267.46 1531.54 Q1268.07 1531.54 1268.8 1531.63 Q1269.53 1531.7 1270.42 1531.85 L1270.45 1537.87 Z" fill="#000000" fill-rule="nonzero" fill-opacity="1" /><path clip-path="url(#clip550)" d="M1292.8 1550.12 Q1285.7 1550.12 1282.96 1551.75 Q1280.23 1553.37 1280.23 1557.29 Q1280.23 1560.4 1282.26 1562.25 Q1284.33 1564.07 1287.86 1564.07 Q1292.73 1564.07 1295.66 1560.63 Q1298.62 1557.16 1298.62 1551.43 L1298.62 1550.12 L1292.8 1550.12 M1304.48 1547.71 L1304.48 1568.04 L1298.62 1568.04 L1298.62 1562.63 Q1296.62 1565.88 1293.63 1567.44 Q1290.63 1568.97 1286.31 1568.97 Q1280.83 1568.97 1277.58 1565.91 Q1274.37 1562.82 1274.37 1557.67 Q1274.37 1551.65 1278.38 1548.6 Q1282.42 1545.54 1290.41 1545.54 L1298.62 1545.54 L1298.62 1544.97 Q1298.62 1540.93 1295.95 1538.73 Q1293.31 1536.5 1288.5 1536.5 Q1285.45 1536.5 1282.55 1537.23 Q1279.65 1537.97 1276.98 1539.43 L1276.98 1534.02 Q1280.19 1532.78 1283.22 1532.17 Q1286.24 1531.54 1289.11 1531.54 Q1296.84 1531.54 1300.66 1535.55 Q1304.48 1539.56 1304.48 1547.71 Z" fill="#000000" fill-rule="nonzero" fill-opacity="1" /><path clip-path="url(#clip550)" d="M1322.34 1522.27 L1322.34 1532.4 L1334.4 1532.4 L1334.4 1536.95 L1322.34 1536.95 L1322.34 1556.3 Q1322.34 1560.66 1323.51 1561.9 Q1324.72 1563.14 1328.38 1563.14 L1334.4 1563.14 L1334.4 1568.04 L1328.38 1568.04 Q1321.6 1568.04 1319.03 1565.53 Q1316.45 1562.98 1316.45 1556.3 L1316.45 1536.95 L1312.15 1536.95 L1312.15 1532.4 L1316.45 1532.4 L1316.45 1522.27 L1322.34 1522.27 Z" fill="#000000" fill-rule="nonzero" fill-opacity="1" /><path clip-path="url(#clip550)" d="M1342.1 1532.4 L1347.96 1532.4 L1347.96 1568.04 L1342.1 1568.04 L1342.1 1532.4 M1342.1 1518.52 L1347.96 1518.52 L1347.96 1525.93 L1342.1 1525.93 L1342.1 1518.52 Z" fill="#000000" fill-rule="nonzero" fill-opacity="1" /><path clip-path="url(#clip550)" d="M1374.02 1536.5 Q1369.31 1536.5 1366.58 1540.19 Q1363.84 1543.85 1363.84 1550.25 Q1363.84 1556.65 1366.55 1560.34 Q1369.28 1564 1374.02 1564 Q1378.7 1564 1381.44 1560.31 Q1384.18 1556.62 1384.18 1550.25 Q1384.18 1543.92 1381.44 1540.23 Q1378.7 1536.5 1374.02 1536.5 M1374.02 1531.54 Q1381.66 1531.54 1386.02 1536.5 Q1390.38 1541.47 1390.38 1550.25 Q1390.38 1559 1386.02 1564 Q1381.66 1568.97 1374.02 1568.97 Q1366.35 1568.97 1361.99 1564 Q1357.66 1559 1357.66 1550.25 Q1357.66 1541.47 1361.99 1536.5 Q1366.35 1531.54 1374.02 1531.54 Z" fill="#000000" fill-rule="nonzero" fill-opacity="1" /><path clip-path="url(#clip550)" d="M1429.72 1546.53 L1429.72 1568.04 L1423.87 1568.04 L1423.87 1546.72 Q1423.87 1541.66 1421.89 1539.14 Q1419.92 1536.63 1415.97 1536.63 Q1411.23 1536.63 1408.5 1539.65 Q1405.76 1542.68 1405.76 1547.9 L1405.76 1568.04 L1399.87 1568.04 L1399.87 1532.4 L1405.76 1532.4 L1405.76 1537.93 Q1407.86 1534.72 1410.69 1533.13 Q1413.56 1531.54 1417.28 1531.54 Q1423.42 1531.54 1426.57 1535.36 Q1429.72 1539.14 1429.72 1546.53 Z" fill="#000000" fill-rule="nonzero" fill-opacity="1" /><polyline clip-path="url(#clip550)" style="stroke:#000000; stroke-linecap:round; stroke-linejoin:round; stroke-width:4; stroke-opacity:1; fill:none" points="242.135,1423.18 242.135,47.2441 "/>
<polyline clip-path="url(#clip550)" style="stroke:#000000; stroke-linecap:round; stroke-linejoin:round; stroke-width:4; stroke-opacity:1; fill:none" points="242.135,1423.18 261.032,1423.18 "/>
<polyline clip-path="url(#clip550)" style="stroke:#000000; stroke-linecap:round; stroke-linejoin:round; stroke-width:4; stroke-opacity:1; fill:none" points="242.135,1219.57 261.032,1219.57 "/>
<polyline clip-path="url(#clip550)" style="stroke:#000000; stroke-linecap:round; stroke-linejoin:round; stroke-width:4; stroke-opacity:1; fill:none" points="242.135,1015.96 261.032,1015.96 "/>
<polyline clip-path="url(#clip550)" style="stroke:#000000; stroke-linecap:round; stroke-linejoin:round; stroke-width:4; stroke-opacity:1; fill:none" points="242.135,812.352 261.032,812.352 "/>
<polyline clip-path="url(#clip550)" style="stroke:#000000; stroke-linecap:round; stroke-linejoin:round; stroke-width:4; stroke-opacity:1; fill:none" points="242.135,608.742 261.032,608.742 "/>
<polyline clip-path="url(#clip550)" style="stroke:#000000; stroke-linecap:round; stroke-linejoin:round; stroke-width:4; stroke-opacity:1; fill:none" points="242.135,405.133 261.032,405.133 "/>
<polyline clip-path="url(#clip550)" style="stroke:#000000; stroke-linecap:round; stroke-linejoin:round; stroke-width:4; stroke-opacity:1; fill:none" points="242.135,201.523 261.032,201.523 "/>
<path clip-path="url(#clip550)" d="M114.26 1423.63 L143.936 1423.63 L143.936 1427.57 L114.26 1427.57 L114.26 1423.63 Z" fill="#000000" fill-rule="nonzero" fill-opacity="1" /><path clip-path="url(#clip550)" d="M154.839 1436.52 L162.477 1436.52 L162.477 1410.16 L154.167 1411.83 L154.167 1407.57 L162.431 1405.9 L167.107 1405.9 L167.107 1436.52 L174.746 1436.52 L174.746 1440.46 L154.839 1440.46 L154.839 1436.52 Z" fill="#000000" fill-rule="nonzero" fill-opacity="1" /><path clip-path="url(#clip550)" d="M194.19 1408.98 Q190.579 1408.98 188.75 1412.54 Q186.945 1416.08 186.945 1423.21 Q186.945 1430.32 188.75 1433.89 Q190.579 1437.43 194.19 1437.43 Q197.825 1437.43 199.63 1433.89 Q201.459 1430.32 201.459 1423.21 Q201.459 1416.08 199.63 1412.54 Q197.825 1408.98 194.19 1408.98 M194.19 1405.27 Q200 1405.27 203.056 1409.88 Q206.135 1414.46 206.135 1423.21 Q206.135 1431.94 203.056 1436.55 Q200 1441.13 194.19 1441.13 Q188.38 1441.13 185.301 1436.55 Q182.246 1431.94 182.246 1423.21 Q182.246 1414.46 185.301 1409.88 Q188.38 1405.27 194.19 1405.27 Z" fill="#000000" fill-rule="nonzero" fill-opacity="1" /><path clip-path="url(#clip550)" d="M144.607 1220.02 L174.283 1220.02 L174.283 1223.96 L144.607 1223.96 L144.607 1220.02 Z" fill="#000000" fill-rule="nonzero" fill-opacity="1" /><path clip-path="url(#clip550)" d="M184.514 1236.13 L184.514 1231.87 Q186.274 1232.71 188.079 1233.15 Q189.885 1233.59 191.621 1233.59 Q196.25 1233.59 198.681 1230.48 Q201.135 1227.36 201.482 1221.02 Q200.139 1223.01 198.079 1224.07 Q196.019 1225.14 193.519 1225.14 Q188.334 1225.14 185.301 1222.01 Q182.292 1218.86 182.292 1213.42 Q182.292 1208.1 185.44 1204.88 Q188.588 1201.67 193.82 1201.67 Q199.815 1201.67 202.963 1206.27 Q206.135 1210.86 206.135 1219.61 Q206.135 1227.78 202.246 1232.66 Q198.38 1237.52 191.829 1237.52 Q190.07 1237.52 188.264 1237.17 Q186.459 1236.83 184.514 1236.13 M193.82 1221.48 Q196.968 1221.48 198.797 1219.33 Q200.649 1217.17 200.649 1213.42 Q200.649 1209.7 198.797 1207.55 Q196.968 1205.37 193.82 1205.37 Q190.672 1205.37 188.82 1207.55 Q186.991 1209.7 186.991 1213.42 Q186.991 1217.17 188.82 1219.33 Q190.672 1221.48 193.82 1221.48 Z" fill="#000000" fill-rule="nonzero" fill-opacity="1" /><path clip-path="url(#clip550)" d="M144.515 1016.41 L174.19 1016.41 L174.19 1020.35 L144.515 1020.35 L144.515 1016.41 Z" fill="#000000" fill-rule="nonzero" fill-opacity="1" /><path clip-path="url(#clip550)" d="M194.283 1016.83 Q190.95 1016.83 189.028 1018.61 Q187.13 1020.39 187.13 1023.52 Q187.13 1026.64 189.028 1028.43 Q190.95 1030.21 194.283 1030.21 Q197.616 1030.21 199.537 1028.43 Q201.459 1026.62 201.459 1023.52 Q201.459 1020.39 199.537 1018.61 Q197.639 1016.83 194.283 1016.83 M189.607 1014.84 Q186.598 1014.1 184.908 1012.04 Q183.241 1009.98 183.241 1007.01 Q183.241 1002.87 186.181 1000.46 Q189.144 998.056 194.283 998.056 Q199.445 998.056 202.385 1000.46 Q205.324 1002.87 205.324 1007.01 Q205.324 1009.98 203.635 1012.04 Q201.968 1014.1 198.982 1014.84 Q202.362 1015.63 204.237 1017.92 Q206.135 1020.21 206.135 1023.52 Q206.135 1028.54 203.056 1031.23 Q200 1033.91 194.283 1033.91 Q188.565 1033.91 185.487 1031.23 Q182.431 1028.54 182.431 1023.52 Q182.431 1020.21 184.329 1017.92 Q186.227 1015.63 189.607 1014.84 M187.894 1007.45 Q187.894 1010.14 189.561 1011.64 Q191.25 1013.15 194.283 1013.15 Q197.292 1013.15 198.982 1011.64 Q200.695 1010.14 200.695 1007.45 Q200.695 1004.77 198.982 1003.26 Q197.292 1001.76 194.283 1001.76 Q191.25 1001.76 189.561 1003.26 Q187.894 1004.77 187.894 1007.45 Z" fill="#000000" fill-rule="nonzero" fill-opacity="1" /><path clip-path="url(#clip550)" d="M145.325 812.803 L175.001 812.803 L175.001 816.738 L145.325 816.738 L145.325 812.803 Z" fill="#000000" fill-rule="nonzero" fill-opacity="1" /><path clip-path="url(#clip550)" d="M183.913 795.072 L206.135 795.072 L206.135 797.062 L193.588 829.632 L188.704 829.632 L200.51 799.007 L183.913 799.007 L183.913 795.072 Z" fill="#000000" fill-rule="nonzero" fill-opacity="1" /><path clip-path="url(#clip550)" d="M144.26 609.194 L173.936 609.194 L173.936 613.129 L144.26 613.129 L144.26 609.194 Z" fill="#000000" fill-rule="nonzero" fill-opacity="1" /><path clip-path="url(#clip550)" d="M194.607 606.879 Q191.459 606.879 189.607 609.032 Q187.778 611.184 187.778 614.934 Q187.778 618.661 189.607 620.837 Q191.459 622.99 194.607 622.99 Q197.755 622.99 199.584 620.837 Q201.436 618.661 201.436 614.934 Q201.436 611.184 199.584 609.032 Q197.755 606.879 194.607 606.879 M203.889 592.226 L203.889 596.485 Q202.13 595.652 200.325 595.212 Q198.542 594.772 196.783 594.772 Q192.153 594.772 189.7 597.897 Q187.269 601.022 186.922 607.342 Q188.288 605.328 190.348 604.263 Q192.408 603.175 194.885 603.175 Q200.093 603.175 203.102 606.346 Q206.135 609.495 206.135 614.934 Q206.135 620.258 202.987 623.476 Q199.838 626.694 194.607 626.694 Q188.612 626.694 185.44 622.11 Q182.269 617.504 182.269 608.777 Q182.269 600.583 186.158 595.721 Q190.047 590.837 196.598 590.837 Q198.357 590.837 200.139 591.184 Q201.945 591.532 203.889 592.226 Z" fill="#000000" fill-rule="nonzero" fill-opacity="1" /><path clip-path="url(#clip550)" d="M145.417 405.584 L175.093 405.584 L175.093 409.519 L145.417 409.519 L145.417 405.584 Z" fill="#000000" fill-rule="nonzero" fill-opacity="1" /><path clip-path="url(#clip550)" d="M185.232 387.853 L203.588 387.853 L203.588 391.788 L189.514 391.788 L189.514 400.26 Q190.533 399.913 191.551 399.751 Q192.57 399.566 193.588 399.566 Q199.375 399.566 202.755 402.737 Q206.135 405.908 206.135 411.325 Q206.135 416.904 202.662 420.005 Q199.19 423.084 192.871 423.084 Q190.695 423.084 188.426 422.714 Q186.181 422.343 183.774 421.603 L183.774 416.904 Q185.857 418.038 188.079 418.593 Q190.301 419.149 192.778 419.149 Q196.783 419.149 199.121 417.042 Q201.459 414.936 201.459 411.325 Q201.459 407.714 199.121 405.607 Q196.783 403.501 192.778 403.501 Q190.903 403.501 189.028 403.918 Q187.176 404.334 185.232 405.214 L185.232 387.853 Z" fill="#000000" fill-rule="nonzero" fill-opacity="1" /><path clip-path="url(#clip550)" d="M143.936 201.975 L173.612 201.975 L173.612 205.91 L143.936 205.91 L143.936 201.975 Z" fill="#000000" fill-rule="nonzero" fill-opacity="1" /><path clip-path="url(#clip550)" d="M196.551 188.317 L184.746 206.766 L196.551 206.766 L196.551 188.317 M195.325 184.243 L201.204 184.243 L201.204 206.766 L206.135 206.766 L206.135 210.655 L201.204 210.655 L201.204 218.803 L196.551 218.803 L196.551 210.655 L180.95 210.655 L180.95 206.141 L195.325 184.243 Z" fill="#000000" fill-rule="nonzero" fill-opacity="1" /><path clip-path="url(#clip550)" d="M16.4842 816.375 L16.4842 786.329 L21.895 786.329 L21.895 809.945 L35.9632 809.945 L35.9632 787.315 L41.3741 787.315 L41.3741 809.945 L58.5933 809.945 L58.5933 785.756 L64.0042 785.756 L64.0042 816.375 L16.4842 816.375 Z" fill="#000000" fill-rule="nonzero" fill-opacity="1" /><path clip-path="url(#clip550)" d="M16.4842 775.189 L16.4842 768.759 L58.5933 768.759 L58.5933 745.62 L64.0042 745.62 L64.0042 775.189 L16.4842 775.189 Z" fill="#000000" fill-rule="nonzero" fill-opacity="1" /><path clip-path="url(#clip550)" d="M41.3104 732.443 L58.7206 732.443 L58.7206 722.13 Q58.7206 716.942 56.5881 714.46 Q54.4238 711.945 49.9996 711.945 Q45.5436 711.945 43.4429 714.46 Q41.3104 716.942 41.3104 722.13 L41.3104 732.443 M21.7677 732.443 L36.0905 732.443 L36.0905 722.926 Q36.0905 718.216 34.34 715.924 Q32.5576 713.6 28.9291 713.6 Q25.3325 713.6 23.5501 715.924 Q21.7677 718.216 21.7677 722.926 L21.7677 732.443 M16.4842 738.872 L16.4842 722.449 Q16.4842 715.096 19.5397 711.118 Q22.5952 707.139 28.2289 707.139 Q32.5894 707.139 35.1675 709.176 Q37.7456 711.213 38.3822 715.16 Q39.4007 710.418 42.6472 707.808 Q45.8619 705.166 50.6998 705.166 Q57.0655 705.166 60.5348 709.495 Q64.0042 713.823 64.0042 721.812 L64.0042 738.872 L16.4842 738.872 Z" fill="#000000" fill-rule="nonzero" fill-opacity="1" /><path clip-path="url(#clip550)" d="M20.8447 676.011 Q20.8447 683.013 26.0645 687.151 Q31.2844 691.257 40.2919 691.257 Q49.2675 691.257 54.4874 687.151 Q59.7073 683.013 59.7073 676.011 Q59.7073 669.009 54.4874 664.935 Q49.2675 660.829 40.2919 660.829 Q31.2844 660.829 26.0645 664.935 Q20.8447 669.009 20.8447 676.011 M15.6248 676.011 Q15.6248 666.017 22.3406 660.033 Q29.0246 654.049 40.2919 654.049 Q51.5274 654.049 58.2432 660.033 Q64.9272 666.017 64.9272 676.011 Q64.9272 686.037 58.2432 692.052 Q51.5592 698.036 40.2919 698.036 Q29.0246 698.036 22.3406 692.052 Q15.6248 686.037 15.6248 676.011 Z" fill="#000000" fill-rule="nonzero" fill-opacity="1" /><polyline clip-path="url(#clip552)" style="stroke:#009af9; stroke-linecap:round; stroke-linejoin:round; stroke-width:4; stroke-opacity:1; fill:none" points="301.869,110000 308.529,4343.38 315.188,1927.1 321.847,1665.28 328.507,1528.8 335.166,1155.76 341.825,1319.9 348.485,1101.83 355.144,1177.45 361.804,1371.74 368.463,1231.75 375.122,1361.54 381.782,1355.07 388.441,1322.91 395.1,1390.01 401.76,1318.43 408.419,1395.09 415.079,1259.23 421.738,1486.04 428.397,1370 435.057,1234.38 441.716,1325.12 448.375,1379.67 455.035,1350.19 461.694,1218.21 468.354,1309.12 475.013,1331.37 481.672,1343.42 488.332,1398.84 494.991,1353.6 501.65,1287.26 508.31,1330.24 514.969,1285.86 521.628,1370.84 528.288,1376.77 534.947,1343.41 541.607,1349.09 548.266,1274.21 554.925,1302.42 561.585,1300.91 568.244,1335.4 574.903,1415.83 581.563,1372.69 588.222,1397.74 594.882,1364.06 601.541,1232.98 608.2,1251.75 614.86,1309.62 621.519,1340.79 628.178,1365.84 634.838,1325.67 641.497,1267.02 648.157,1327.1 654.816,1358.76 661.475,1299.09 668.135,1359.14 674.794,1316.61 681.453,1277.23 688.113,1337.21 694.772,1363.13 701.432,1296.23 708.091,1330.54 714.75,1287.37 721.41,1245.57 728.069,1261.67 734.728,1292.63 741.388,1244.75 748.047,1230.76 754.706,1326.88 761.366,1370.36 768.025,1305.51 774.685,1339.74 781.344,1166.45 788.003,1206.98 794.663,1207.08 801.322,1303.52 807.981,1296.48 814.641,1270.84 821.3,1307.98 827.96,1324.18 834.619,1276.28 841.278,1255.96 847.938,1297.02 854.597,1262.67 861.256,1229.1 867.916,1174.87 874.575,1245.46 881.235,1238.07 887.894,1302.4 894.553,1265.46 901.213,1295.15 907.872,1279.25 914.531,1198.97 921.191,1253.41 927.85,1255.42 934.51,1251.61 941.169,1189.41 947.828,1259.22 954.488,1268.26 961.147,1247.52 967.806,1224.35 974.466,1157.32 981.125,1255.54 987.785,1209.43 994.444,1202.56 1001.1,1250.51 1007.76,1245.31 1014.42,1284.23 1021.08,1275.31 1027.74,1256.72 1034.4,1235.79 1041.06,1231.17 1047.72,1198.33 1054.38,1306.84 1061.04,1348.04 1067.7,1255.51 1074.36,1251.96 1081.02,1195.85 1087.68,1222.17 1094.33,1217.44 1100.99,1165.32 1107.65,1206.25 1114.31,1167.19 1120.97,1274.74 1127.63,1162.61 1134.29,1195.45 1140.95,1208.2 1147.61,1219.18 1154.27,1217.5 1160.93,1195.14 1167.59,1152.2 1174.25,1176.91 1180.91,1198.64 1187.57,1163.05 1194.23,1161.45 1200.88,1195.65 1207.54,1163.21 1214.2,1160.76 1220.86,1189.71 1227.52,1141.96 1234.18,1200.87 1240.84,1206.99 1247.5,1187.72 1254.16,1158.7 1260.82,1206.97 1267.48,1176.35 1274.14,1099.52 1280.8,1165.91 1287.46,1142.75 1294.12,1163.42 1300.77,1170.39 1307.43,1142.36 1314.09,1125.76 1320.75,1170.88 1327.41,1084.12 1334.07,1146.45 1340.73,1160.63 1347.39,1146 1354.05,1133.48 1360.71,1184.08 1367.37,1095.45 1374.03,1123.41 1380.69,1123.84 1387.35,1140.19 1394.01,1115.99 1400.67,1080.36 1407.32,996.487 1413.98,1153.04 1420.64,1122.45 1427.3,1040.19 1433.96,950.345 1440.62,974.734 1447.28,1037.27 1453.94,1167.39 1460.6,1072.21 1467.26,1124.53 1473.92,1093.48 1480.58,957.988 1487.24,1046.86 1493.9,1014.7 1500.56,967.744 1507.22,942.146 1513.87,1009.16 1520.53,870.119 1527.19,1026.73 1533.85,954.836 1540.51,1056.49 1547.17,1065.11 1553.83,1012.73 1560.49,982.828 1567.15,983.515 1573.81,857.119 1580.47,851.137 1587.13,979.382 1593.79,891.416 1600.45,958.93 1607.11,943.266 1613.77,968.239 1620.42,864.66 1627.08,808.175 1633.74,715.845 1640.4,725.613 1647.06,707.311 1653.72,686.989 1660.38,656.066 1667.04,522.711 1673.7,606.876 1680.36,556.794 1687.02,558.457 1693.68,654.454 1700.34,522.733 1707,730.61 1713.66,645.187 1720.32,479.305 1726.97,468.986 1733.63,299.56 1740.29,418.641 1746.95,424.822 1753.61,380.864 1760.27,400.439 1766.93,437.311 1773.59,374.366 1780.25,283.374 1786.91,227.177 1793.57,315.985 1800.23,332.827 1806.89,292.287 1813.55,152.801 1820.21,351.865 1826.87,254.363 1833.52,216.94 1840.18,278.767 1846.84,265.899 1853.5,224.641 1860.16,148.112 1866.82,250.791 1873.48,201.554 1880.14,235.183 1886.8,240.04 1893.46,164.977 1900.12,216.897 1906.78,276.898 1913.44,219.938 1920.1,137.223 1926.76,263.13 1933.42,209.776 1940.07,157.491 1946.73,165.144 1953.39,300.203 1960.05,294.048 1966.71,311.557 1973.37,386.792 1980.03,222.194 1986.69,142.125 1993.35,220.204 2000.01,264.348 2006.67,394.064 2013.33,474.457 2019.99,394.27 2026.65,323.164 2033.31,232.139 2039.97,259.997 2046.62,103.313 2053.28,164.088 2059.94,278.513 2066.6,251.594 2073.26,298.374 2079.92,270.016 2086.58,140.142 2093.24,236.101 2099.9,122.991 2106.56,198.395 2113.22,351.904 2119.88,153.483 2126.54,181.71 2133.2,86.9507 2139.86,347.394 2146.52,194.204 2153.17,192.854 2159.83,139.163 2166.49,102.424 2173.15,107.323 2179.81,455.637 2186.47,214.515 2193.13,118.185 2199.79,134.654 2206.45,89.236 2213.11,124.517 2219.77,157.765 2226.43,151.992 2233.09,78.7992 2239.75,115.903 2246.41,117.358 2253.07,141.748 2259.72,144.046 2266.38,122.863 2273.04,57.549 2279.7,128.853 2286.36,110.881 2293.02,47.2441 "/>
<path clip-path="url(#clip550)" d="M312.489 196.789 L575.981 196.789 L575.981 93.1086 L312.489 93.1086  Z" fill="#ffffff" fill-rule="evenodd" fill-opacity="1"/>
<polyline clip-path="url(#clip550)" style="stroke:#000000; stroke-linecap:round; stroke-linejoin:round; stroke-width:4; stroke-opacity:1; fill:none" points="312.489,196.789 575.981,196.789 575.981,93.1086 312.489,93.1086 312.489,196.789 "/>
<polyline clip-path="url(#clip550)" style="stroke:#009af9; stroke-linecap:round; stroke-linejoin:round; stroke-width:4; stroke-opacity:1; fill:none" points="335.94,144.949 476.648,144.949 "/>
<path clip-path="url(#clip550)" d="M513.942 164.636 Q512.136 169.266 510.424 170.678 Q508.711 172.09 505.84 172.09 L502.437 172.09 L502.437 168.525 L504.937 168.525 Q506.697 168.525 507.669 167.692 Q508.641 166.858 509.822 163.756 L510.586 161.812 L500.099 136.303 L504.613 136.303 L512.715 156.581 L520.817 136.303 L525.331 136.303 L513.942 164.636 Z" fill="#000000" fill-rule="nonzero" fill-opacity="1" /><path clip-path="url(#clip550)" d="M532.622 158.293 L540.261 158.293 L540.261 131.928 L531.951 133.595 L531.951 129.335 L540.215 127.669 L544.891 127.669 L544.891 158.293 L552.53 158.293 L552.53 162.229 L532.622 162.229 L532.622 158.293 Z" fill="#000000" fill-rule="nonzero" fill-opacity="1" /></svg>
