<?xml version="1.0" encoding="utf-8"?>
<svg xmlns="http://www.w3.org/2000/svg" xmlns:xlink="http://www.w3.org/1999/xlink" width="600" height="400" viewBox="0 0 2400 1600">
<defs>
  <clipPath id="clip870">
    <rect x="0" y="0" width="2400" height="1600"/>
  </clipPath>
</defs>
<path clip-path="url(#clip870)" d="M0 1600 L2400 1600 L2400 0 L0 0  Z" fill="#ffffff" fill-rule="evenodd" fill-opacity="1"/>
<defs>
  <clipPath id="clip871">
    <rect x="332" y="47" width="2021" height="1377"/>
  </clipPath>
</defs>
<path clip-path="url(#clip870)" d="M332.62 1423.18 L2352.76 1423.18 L2352.76 47.2441 L332.62 47.2441  Z" fill="#ffffff" fill-rule="evenodd" fill-opacity="1"/>
<polyline clip-path="url(#clip871)" style="stroke:#000000; stroke-linecap:round; stroke-linejoin:round; stroke-width:2; stroke-opacity:0.1; fill:none" points="374.693,1423.18 374.693,47.2441 "/>
<polyline clip-path="url(#clip871)" style="stroke:#000000; stroke-linecap:round; stroke-linejoin:round; stroke-width:2; stroke-opacity:0.1; fill:none" points="788.254,1423.18 788.254,47.2441 "/>
<polyline clip-path="url(#clip871)" style="stroke:#000000; stroke-linecap:round; stroke-linejoin:round; stroke-width:2; stroke-opacity:0.1; fill:none" points="1201.82,1423.18 1201.82,47.2441 "/>
<polyline clip-path="url(#clip871)" style="stroke:#000000; stroke-linecap:round; stroke-linejoin:round; stroke-width:2; stroke-opacity:0.1; fill:none" points="1615.38,1423.18 1615.38,47.2441 "/>
<polyline clip-path="url(#clip871)" style="stroke:#000000; stroke-linecap:round; stroke-linejoin:round; stroke-width:2; stroke-opacity:0.1; fill:none" points="2028.94,1423.18 2028.94,47.2441 "/>
<polyline clip-path="url(#clip871)" style="stroke:#000000; stroke-linecap:round; stroke-linejoin:round; stroke-width:2; stroke-opacity:0.1; fill:none" points="332.62,1305.55 2352.76,1305.55 "/>
<polyline clip-path="url(#clip871)" style="stroke:#000000; stroke-linecap:round; stroke-linejoin:round; stroke-width:2; stroke-opacity:0.1; fill:none" points="332.62,1048.59 2352.76,1048.59 "/>
<polyline clip-path="url(#clip871)" style="stroke:#000000; stroke-linecap:round; stroke-linejoin:round; stroke-width:2; stroke-opacity:0.1; fill:none" points="332.62,791.637 2352.76,791.637 "/>
<polyline clip-path="url(#clip871)" style="stroke:#000000; stroke-linecap:round; stroke-linejoin:round; stroke-width:2; stroke-opacity:0.1; fill:none" points="332.62,534.682 2352.76,534.682 "/>
<polyline clip-path="url(#clip871)" style="stroke:#000000; stroke-linecap:round; stroke-linejoin:round; stroke-width:2; stroke-opacity:0.1; fill:none" points="332.62,277.726 2352.76,277.726 "/>
<polyline clip-path="url(#clip870)" style="stroke:#000000; stroke-linecap:round; stroke-linejoin:round; stroke-width:4; stroke-opacity:1; fill:none" points="332.62,1423.18 2352.76,1423.18 "/>
<polyline clip-path="url(#clip870)" style="stroke:#000000; stroke-linecap:round; stroke-linejoin:round; stroke-width:4; stroke-opacity:1; fill:none" points="374.693,1423.18 374.693,1404.28 "/>
<polyline clip-path="url(#clip870)" style="stroke:#000000; stroke-linecap:round; stroke-linejoin:round; stroke-width:4; stroke-opacity:1; fill:none" points="788.254,1423.18 788.254,1404.28 "/>
<polyline clip-path="url(#clip870)" style="stroke:#000000; stroke-linecap:round; stroke-linejoin:round; stroke-width:4; stroke-opacity:1; fill:none" points="1201.82,1423.18 1201.82,1404.28 "/>
<polyline clip-path="url(#clip870)" style="stroke:#000000; stroke-linecap:round; stroke-linejoin:round; stroke-width:4; stroke-opacity:1; fill:none" points="1615.38,1423.18 1615.38,1404.28 "/>
<polyline clip-path="url(#clip870)" style="stroke:#000000; stroke-linecap:round; stroke-linejoin:round; stroke-width:4; stroke-opacity:1; fill:none" points="2028.94,1423.18 2028.94,1404.28 "/>
<path clip-path="url(#clip870)" d="M374.693 1454.1 Q371.082 1454.1 369.253 1457.66 Q367.448 1461.2 367.448 1468.33 Q367.448 1475.44 369.253 1479.01 Q371.082 1482.55 374.693 1482.55 Q378.327 1482.55 380.133 1479.01 Q381.962 1475.44 381.962 1468.33 Q381.962 1461.2 380.133 1457.66 Q378.327 1454.1 374.693 1454.1 M374.693 1450.39 Q380.503 1450.39 383.559 1455 Q386.637 1459.58 386.637 1468.33 Q386.637 1477.06 383.559 1481.67 Q380.503 1486.25 374.693 1486.25 Q368.883 1486.25 365.804 1481.67 Q362.749 1477.06 362.749 1468.33 Q362.749 1459.58 365.804 1455 Q368.883 1450.39 374.693 1450.39 Z" fill="#000000" fill-rule="nonzero" fill-opacity="1" /><path clip-path="url(#clip870)" d="M767.525 1481.64 L783.844 1481.64 L783.844 1485.58 L761.9 1485.58 L761.9 1481.64 Q764.562 1478.89 769.145 1474.26 Q773.752 1469.61 774.932 1468.27 Q777.178 1465.74 778.057 1464.01 Q778.96 1462.25 778.96 1460.56 Q778.96 1457.8 777.016 1456.07 Q775.094 1454.33 771.993 1454.33 Q769.794 1454.33 767.34 1455.09 Q764.909 1455.86 762.132 1457.41 L762.132 1452.69 Q764.956 1451.55 767.409 1450.97 Q769.863 1450.39 771.9 1450.39 Q777.27 1450.39 780.465 1453.08 Q783.659 1455.77 783.659 1460.26 Q783.659 1462.39 782.849 1464.31 Q782.062 1466.2 779.956 1468.8 Q779.377 1469.47 776.275 1472.69 Q773.173 1475.88 767.525 1481.64 Z" fill="#000000" fill-rule="nonzero" fill-opacity="1" /><path clip-path="url(#clip870)" d="M793.705 1451.02 L812.062 1451.02 L812.062 1454.96 L797.988 1454.96 L797.988 1463.43 Q799.006 1463.08 800.025 1462.92 Q801.043 1462.73 802.062 1462.73 Q807.849 1462.73 811.229 1465.9 Q814.608 1469.08 814.608 1474.49 Q814.608 1480.07 811.136 1483.17 Q807.664 1486.25 801.344 1486.25 Q799.168 1486.25 796.9 1485.88 Q794.655 1485.51 792.247 1484.77 L792.247 1480.07 Q794.33 1481.2 796.553 1481.76 Q798.775 1482.32 801.252 1482.32 Q805.256 1482.32 807.594 1480.21 Q809.932 1478.1 809.932 1474.49 Q809.932 1470.88 807.594 1468.77 Q805.256 1466.67 801.252 1466.67 Q799.377 1466.67 797.502 1467.08 Q795.65 1467.5 793.705 1468.38 L793.705 1451.02 Z" fill="#000000" fill-rule="nonzero" fill-opacity="1" /><path clip-path="url(#clip870)" d="M1176.51 1451.02 L1194.87 1451.02 L1194.87 1454.96 L1180.8 1454.96 L1180.8 1463.43 Q1181.82 1463.08 1182.83 1462.92 Q1183.85 1462.73 1184.87 1462.73 Q1190.66 1462.73 1194.04 1465.9 Q1197.42 1469.08 1197.42 1474.49 Q1197.42 1480.07 1193.94 1483.17 Q1190.47 1486.25 1184.15 1486.25 Q1181.98 1486.25 1179.71 1485.88 Q1177.46 1485.51 1175.06 1484.77 L1175.06 1480.07 Q1177.14 1481.2 1179.36 1481.76 Q1181.58 1482.32 1184.06 1482.32 Q1188.07 1482.32 1190.4 1480.21 Q1192.74 1478.1 1192.74 1474.49 Q1192.74 1470.88 1190.4 1468.77 Q1188.07 1466.67 1184.06 1466.67 Q1182.19 1466.67 1180.31 1467.08 Q1178.46 1467.5 1176.51 1468.38 L1176.51 1451.02 Z" fill="#000000" fill-rule="nonzero" fill-opacity="1" /><path clip-path="url(#clip870)" d="M1216.63 1454.1 Q1213.02 1454.1 1211.19 1457.66 Q1209.38 1461.2 1209.38 1468.33 Q1209.38 1475.44 1211.19 1479.01 Q1213.02 1482.55 1216.63 1482.55 Q1220.26 1482.55 1222.07 1479.01 Q1223.9 1475.44 1223.9 1468.33 Q1223.9 1461.2 1222.07 1457.66 Q1220.26 1454.1 1216.63 1454.1 M1216.63 1450.39 Q1222.44 1450.39 1225.5 1455 Q1228.57 1459.58 1228.57 1468.33 Q1228.57 1477.06 1225.5 1481.67 Q1222.44 1486.25 1216.63 1486.25 Q1210.82 1486.25 1207.74 1481.67 Q1204.69 1477.06 1204.69 1468.33 Q1204.69 1459.58 1207.74 1455 Q1210.82 1450.39 1216.63 1450.39 Z" fill="#000000" fill-rule="nonzero" fill-opacity="1" /><path clip-path="url(#clip870)" d="M1589.23 1451.02 L1611.45 1451.02 L1611.45 1453.01 L1598.91 1485.58 L1594.02 1485.58 L1605.83 1454.96 L1589.23 1454.96 L1589.23 1451.02 Z" fill="#000000" fill-rule="nonzero" fill-opacity="1" /><path clip-path="url(#clip870)" d="M1620.62 1451.02 L1638.98 1451.02 L1638.98 1454.96 L1624.9 1454.96 L1624.9 1463.43 Q1625.92 1463.08 1626.94 1462.92 Q1627.96 1462.73 1628.98 1462.73 Q1634.76 1462.73 1638.14 1465.9 Q1641.52 1469.08 1641.52 1474.49 Q1641.52 1480.07 1638.05 1483.17 Q1634.58 1486.25 1628.26 1486.25 Q1626.08 1486.25 1623.81 1485.88 Q1621.57 1485.51 1619.16 1484.77 L1619.16 1480.07 Q1621.24 1481.2 1623.47 1481.76 Q1625.69 1482.32 1628.17 1482.32 Q1632.17 1482.32 1634.51 1480.21 Q1636.85 1478.1 1636.85 1474.49 Q1636.85 1470.88 1634.51 1468.77 Q1632.17 1466.67 1628.17 1466.67 Q1626.29 1466.67 1624.42 1467.08 Q1622.56 1467.5 1620.62 1468.38 L1620.62 1451.02 Z" fill="#000000" fill-rule="nonzero" fill-opacity="1" /><path clip-path="url(#clip870)" d="M1988.54 1481.64 L1996.18 1481.64 L1996.18 1455.28 L1987.87 1456.95 L1987.87 1452.69 L1996.14 1451.02 L2000.81 1451.02 L2000.81 1481.64 L2008.45 1481.64 L2008.45 1485.58 L1988.54 1485.58 L1988.54 1481.64 Z" fill="#000000" fill-rule="nonzero" fill-opacity="1" /><path clip-path="url(#clip870)" d="M2027.9 1454.1 Q2024.28 1454.1 2022.46 1457.66 Q2020.65 1461.2 2020.65 1468.33 Q2020.65 1475.44 2022.46 1479.01 Q2024.28 1482.55 2027.9 1482.55 Q2031.53 1482.55 2033.34 1479.01 Q2035.16 1475.44 2035.16 1468.33 Q2035.16 1461.2 2033.34 1457.66 Q2031.53 1454.1 2027.9 1454.1 M2027.9 1450.39 Q2033.71 1450.39 2036.76 1455 Q2039.84 1459.58 2039.84 1468.33 Q2039.84 1477.06 2036.76 1481.67 Q2033.71 1486.25 2027.9 1486.25 Q2022.09 1486.25 2019.01 1481.67 Q2015.95 1477.06 2015.95 1468.33 Q2015.95 1459.58 2019.01 1455 Q2022.09 1450.39 2027.9 1450.39 Z" fill="#000000" fill-rule="nonzero" fill-opacity="1" /><path clip-path="url(#clip870)" d="M2058.06 1454.1 Q2054.45 1454.1 2052.62 1457.66 Q2050.81 1461.2 2050.81 1468.33 Q2050.81 1475.44 2052.62 1479.01 Q2054.45 1482.55 2058.06 1482.55 Q2061.69 1482.55 2063.5 1479.01 Q2065.33 1475.44 2065.33 1468.33 Q2065.33 1461.2 2063.5 1457.66 Q2061.69 1454.1 2058.06 1454.1 M2058.06 1450.39 Q2063.87 1450.39 2066.92 1455 Q2070 1459.58 2070 1468.33 Q2070 1477.06 2066.92 1481.67 Q2063.87 1486.25 2058.06 1486.25 Q2052.25 1486.25 2049.17 1481.67 Q2046.11 1477.06 2046.11 1468.33 Q2046.11 1459.58 2049.17 1455 Q2052.25 1450.39 2058.06 1450.39 Z" fill="#000000" fill-rule="nonzero" fill-opacity="1" /><path clip-path="url(#clip870)" d="M1013.77 1520.52 L1020.27 1520.52 L1030.26 1560.69 L1040.22 1520.52 L1047.45 1520.52 L1057.44 1560.69 L1067.4 1520.52 L1073.93 1520.52 L1061.99 1568.04 L1053.91 1568.04 L1043.88 1526.79 L1033.76 1568.04 L1025.68 1568.04 L1013.77 1520.52 Z" fill="#000000" fill-rule="nonzero" fill-opacity="1" /><path clip-path="url(#clip870)" d="M1094.23 1550.12 Q1087.14 1550.12 1084.4 1551.75 Q1081.66 1553.37 1081.66 1557.29 Q1081.66 1560.4 1083.7 1562.25 Q1085.77 1564.07 1089.3 1564.07 Q1094.17 1564.07 1097.1 1560.63 Q1100.06 1557.16 1100.06 1551.43 L1100.06 1550.12 L1094.23 1550.12 M1105.92 1547.71 L1105.92 1568.04 L1100.06 1568.04 L1100.06 1562.63 Q1098.05 1565.88 1095.06 1567.44 Q1092.07 1568.97 1087.74 1568.97 Q1082.27 1568.97 1079.02 1565.91 Q1075.81 1562.82 1075.81 1557.67 Q1075.81 1551.65 1079.82 1548.6 Q1083.86 1545.54 1091.85 1545.54 L1100.06 1545.54 L1100.06 1544.97 Q1100.06 1540.93 1097.39 1538.73 Q1094.74 1536.5 1089.94 1536.5 Q1086.88 1536.5 1083.99 1537.23 Q1081.09 1537.97 1078.42 1539.43 L1078.42 1534.02 Q1081.63 1532.78 1084.65 1532.17 Q1087.68 1531.54 1090.54 1531.54 Q1098.28 1531.54 1102.1 1535.55 Q1105.92 1539.56 1105.92 1547.71 Z" fill="#000000" fill-rule="nonzero" fill-opacity="1" /><path clip-path="url(#clip870)" d="M1117.98 1518.52 L1123.84 1518.52 L1123.84 1568.04 L1117.98 1568.04 L1117.98 1518.52 Z" fill="#000000" fill-rule="nonzero" fill-opacity="1" /><path clip-path="url(#clip870)" d="M1136.09 1518.52 L1141.95 1518.52 L1141.95 1568.04 L1136.09 1568.04 L1136.09 1518.52 Z" fill="#000000" fill-rule="nonzero" fill-opacity="1" /><path clip-path="url(#clip870)" d="M1179.85 1533.76 L1179.85 1539.24 Q1177.37 1537.87 1174.86 1537.2 Q1172.37 1536.5 1169.83 1536.5 Q1164.13 1536.5 1160.98 1540.13 Q1157.83 1543.73 1157.83 1550.25 Q1157.83 1556.78 1160.98 1560.4 Q1164.13 1564 1169.83 1564 Q1172.37 1564 1174.86 1563.33 Q1177.37 1562.63 1179.85 1561.26 L1179.85 1566.68 Q1177.4 1567.82 1174.76 1568.39 Q1172.15 1568.97 1169.19 1568.97 Q1161.14 1568.97 1156.4 1563.91 Q1151.65 1558.85 1151.65 1550.25 Q1151.65 1541.53 1156.43 1536.53 Q1161.23 1531.54 1169.57 1531.54 Q1172.28 1531.54 1174.86 1532.11 Q1177.43 1532.65 1179.85 1533.76 Z" fill="#000000" fill-rule="nonzero" fill-opacity="1" /><path clip-path="url(#clip870)" d="M1190.04 1518.52 L1195.89 1518.52 L1195.89 1568.04 L1190.04 1568.04 L1190.04 1518.52 Z" fill="#000000" fill-rule="nonzero" fill-opacity="1" /><path clip-path="url(#clip870)" d="M1221.96 1536.5 Q1217.25 1536.5 1214.51 1540.19 Q1211.78 1543.85 1211.78 1550.25 Q1211.78 1556.65 1214.48 1560.34 Q1217.22 1564 1221.96 1564 Q1226.64 1564 1229.38 1560.31 Q1232.12 1556.62 1232.12 1550.25 Q1232.12 1543.92 1229.38 1540.23 Q1226.64 1536.5 1221.96 1536.5 M1221.96 1531.54 Q1229.6 1531.54 1233.96 1536.5 Q1238.32 1541.47 1238.32 1550.25 Q1238.32 1559 1233.96 1564 Q1229.6 1568.97 1221.96 1568.97 Q1214.29 1568.97 1209.93 1564 Q1205.6 1559 1205.6 1550.25 Q1205.6 1541.47 1209.93 1536.5 Q1214.29 1531.54 1221.96 1531.54 Z" fill="#000000" fill-rule="nonzero" fill-opacity="1" /><path clip-path="url(#clip870)" d="M1273.68 1533.76 L1273.68 1539.24 Q1271.2 1537.87 1268.69 1537.2 Q1266.2 1536.5 1263.66 1536.5 Q1257.96 1536.5 1254.81 1540.13 Q1251.66 1543.73 1251.66 1550.25 Q1251.66 1556.78 1254.81 1560.4 Q1257.96 1564 1263.66 1564 Q1266.2 1564 1268.69 1563.33 Q1271.2 1562.63 1273.68 1561.26 L1273.68 1566.68 Q1271.23 1567.82 1268.59 1568.39 Q1265.98 1568.97 1263.02 1568.97 Q1254.97 1568.97 1250.23 1563.91 Q1245.48 1558.85 1245.48 1550.25 Q1245.48 1541.53 1250.26 1536.53 Q1255.06 1531.54 1263.4 1531.54 Q1266.11 1531.54 1268.69 1532.11 Q1271.26 1532.65 1273.68 1533.76 Z" fill="#000000" fill-rule="nonzero" fill-opacity="1" /><path clip-path="url(#clip870)" d="M1283.65 1518.52 L1289.53 1518.52 L1289.53 1547.77 L1307.01 1532.4 L1314.49 1532.4 L1295.58 1549.07 L1315.28 1568.04 L1307.64 1568.04 L1289.53 1550.63 L1289.53 1568.04 L1283.65 1568.04 L1283.65 1518.52 Z" fill="#000000" fill-rule="nonzero" fill-opacity="1" /><path clip-path="url(#clip870)" d="M1336 1520.52 L1376.2 1520.52 L1376.2 1525.93 L1359.33 1525.93 L1359.33 1568.04 L1352.87 1568.04 L1352.87 1525.93 L1336 1525.93 L1336 1520.52 Z" fill="#000000" fill-rule="nonzero" fill-opacity="1" /><path clip-path="url(#clip870)" d="M1380.15 1532.4 L1386.01 1532.4 L1386.01 1568.04 L1380.15 1568.04 L1380.15 1532.4 M1380.15 1518.52 L1386.01 1518.52 L1386.01 1525.93 L1380.15 1525.93 L1380.15 1518.52 Z" fill="#000000" fill-rule="nonzero" fill-opacity="1" /><path clip-path="url(#clip870)" d="M1426.02 1539.24 Q1428.21 1535.29 1431.27 1533.41 Q1434.32 1531.54 1438.46 1531.54 Q1444.03 1531.54 1447.05 1535.45 Q1450.08 1539.33 1450.08 1546.53 L1450.08 1568.04 L1444.19 1568.04 L1444.19 1546.72 Q1444.19 1541.59 1442.38 1539.11 Q1440.56 1536.63 1436.84 1536.63 Q1432.29 1536.63 1429.64 1539.65 Q1427 1542.68 1427 1547.9 L1427 1568.04 L1421.11 1568.04 L1421.11 1546.72 Q1421.11 1541.56 1419.3 1539.11 Q1417.49 1536.63 1413.7 1536.63 Q1409.21 1536.63 1406.57 1539.68 Q1403.93 1542.71 1403.93 1547.9 L1403.93 1568.04 L1398.04 1568.04 L1398.04 1532.4 L1403.93 1532.4 L1403.93 1537.93 Q1405.93 1534.66 1408.73 1533.1 Q1411.53 1531.54 1415.38 1531.54 Q1419.27 1531.54 1421.97 1533.51 Q1424.71 1535.48 1426.02 1539.24 Z" fill="#000000" fill-rule="nonzero" fill-opacity="1" /><path clip-path="url(#clip870)" d="M1492.25 1548.76 L1492.25 1551.62 L1465.32 1551.62 Q1465.71 1557.67 1468.95 1560.85 Q1472.23 1564 1478.05 1564 Q1481.43 1564 1484.58 1563.17 Q1487.76 1562.35 1490.88 1560.69 L1490.88 1566.23 Q1487.73 1567.57 1484.42 1568.27 Q1481.11 1568.97 1477.7 1568.97 Q1469.17 1568.97 1464.18 1564 Q1459.21 1559.04 1459.21 1550.57 Q1459.21 1541.82 1463.92 1536.69 Q1468.67 1531.54 1476.69 1531.54 Q1483.88 1531.54 1488.05 1536.18 Q1492.25 1540.8 1492.25 1548.76 M1486.39 1547.04 Q1486.33 1542.23 1483.69 1539.37 Q1481.08 1536.5 1476.75 1536.5 Q1471.85 1536.5 1468.89 1539.27 Q1465.96 1542.04 1465.51 1547.07 L1486.39 1547.04 Z" fill="#000000" fill-rule="nonzero" fill-opacity="1" /><path clip-path="url(#clip870)" d="M1536.65 1518.58 Q1532.39 1525.9 1530.32 1533.06 Q1528.25 1540.23 1528.25 1547.58 Q1528.25 1554.93 1530.32 1562.16 Q1532.42 1569.35 1536.65 1576.64 L1531.56 1576.64 Q1526.78 1569.16 1524.4 1561.93 Q1522.04 1554.71 1522.04 1547.58 Q1522.04 1540.48 1524.4 1533.29 Q1526.75 1526.09 1531.56 1518.58 L1536.65 1518.58 Z" fill="#000000" fill-rule="nonzero" fill-opacity="1" /><path clip-path="url(#clip870)" d="M1570.74 1533.45 L1570.74 1538.98 Q1568.26 1537.71 1565.58 1537.07 Q1562.91 1536.44 1560.05 1536.44 Q1555.68 1536.44 1553.49 1537.77 Q1551.32 1539.11 1551.32 1541.79 Q1551.32 1543.82 1552.88 1545 Q1554.44 1546.15 1559.15 1547.2 L1561.16 1547.64 Q1567.4 1548.98 1570.01 1551.43 Q1572.65 1553.85 1572.65 1558.21 Q1572.65 1563.17 1568.7 1566.07 Q1564.79 1568.97 1557.91 1568.97 Q1555.05 1568.97 1551.93 1568.39 Q1548.84 1567.85 1545.4 1566.74 L1545.4 1560.69 Q1548.65 1562.38 1551.8 1563.24 Q1554.95 1564.07 1558.04 1564.07 Q1562.18 1564.07 1564.41 1562.66 Q1566.63 1561.23 1566.63 1558.65 Q1566.63 1556.27 1565.01 1554.99 Q1563.42 1553.72 1557.98 1552.54 L1555.94 1552.07 Q1550.5 1550.92 1548.08 1548.56 Q1545.66 1546.18 1545.66 1542.04 Q1545.66 1537.01 1549.22 1534.27 Q1552.79 1531.54 1559.34 1531.54 Q1562.59 1531.54 1565.46 1532.01 Q1568.32 1532.49 1570.74 1533.45 Z" fill="#000000" fill-rule="nonzero" fill-opacity="1" /><path clip-path="url(#clip870)" d="M1612.47 1548.76 L1612.47 1551.62 L1585.54 1551.62 Q1585.92 1557.67 1589.17 1560.85 Q1592.45 1564 1598.27 1564 Q1601.65 1564 1604.8 1563.17 Q1607.98 1562.35 1611.1 1560.69 L1611.1 1566.23 Q1607.95 1567.57 1604.64 1568.27 Q1601.33 1568.97 1597.92 1568.97 Q1589.39 1568.97 1584.39 1564 Q1579.43 1559.04 1579.43 1550.57 Q1579.43 1541.82 1584.14 1536.69 Q1588.88 1531.54 1596.9 1531.54 Q1604.1 1531.54 1608.27 1536.18 Q1612.47 1540.8 1612.47 1548.76 M1606.61 1547.04 Q1606.55 1542.23 1603.9 1539.37 Q1601.29 1536.5 1596.97 1536.5 Q1592.06 1536.5 1589.1 1539.27 Q1586.18 1542.04 1585.73 1547.07 L1606.61 1547.04 Z" fill="#000000" fill-rule="nonzero" fill-opacity="1" /><path clip-path="url(#clip870)" d="M1647.73 1533.76 L1647.73 1539.24 Q1645.25 1537.87 1642.74 1537.2 Q1640.25 1536.5 1637.71 1536.5 Q1632.01 1536.5 1628.86 1540.13 Q1625.71 1543.73 1625.71 1550.25 Q1625.71 1556.78 1628.86 1560.4 Q1632.01 1564 1637.71 1564 Q1640.25 1564 1642.74 1563.33 Q1645.25 1562.63 1647.73 1561.26 L1647.73 1566.68 Q1645.28 1567.82 1642.64 1568.39 Q1640.03 1568.97 1637.07 1568.97 Q1629.02 1568.97 1624.28 1563.91 Q1619.53 1558.85 1619.53 1550.25 Q1619.53 1541.53 1624.31 1536.53 Q1629.11 1531.54 1637.45 1531.54 Q1640.16 1531.54 1642.74 1532.11 Q1645.31 1532.65 1647.73 1533.76 Z" fill="#000000" fill-rule="nonzero" fill-opacity="1" /><path clip-path="url(#clip870)" d="M1656.99 1518.58 L1662.09 1518.58 Q1666.86 1526.09 1669.22 1533.29 Q1671.6 1540.48 1671.6 1547.58 Q1671.6 1554.71 1669.22 1561.93 Q1666.86 1569.16 1662.09 1576.64 L1656.99 1576.64 Q1661.23 1569.35 1663.3 1562.16 Q1665.4 1554.93 1665.4 1547.58 Q1665.4 1540.23 1663.3 1533.06 Q1661.23 1525.9 1656.99 1518.58 Z" fill="#000000" fill-rule="nonzero" fill-opacity="1" /><polyline clip-path="url(#clip870)" style="stroke:#000000; stroke-linecap:round; stroke-linejoin:round; stroke-width:4; stroke-opacity:1; fill:none" points="332.62,1423.18 332.62,47.2441 "/>
<polyline clip-path="url(#clip870)" style="stroke:#000000; stroke-linecap:round; stroke-linejoin:round; stroke-width:4; stroke-opacity:1; fill:none" points="332.62,1305.55 351.518,1305.55 "/>
<polyline clip-path="url(#clip870)" style="stroke:#000000; stroke-linecap:round; stroke-linejoin:round; stroke-width:4; stroke-opacity:1; fill:none" points="332.62,1048.59 351.518,1048.59 "/>
<polyline clip-path="url(#clip870)" style="stroke:#000000; stroke-linecap:round; stroke-linejoin:round; stroke-width:4; stroke-opacity:1; fill:none" points="332.62,791.637 351.518,791.637 "/>
<polyline clip-path="url(#clip870)" style="stroke:#000000; stroke-linecap:round; stroke-linejoin:round; stroke-width:4; stroke-opacity:1; fill:none" points="332.62,534.682 351.518,534.682 "/>
<polyline clip-path="url(#clip870)" style="stroke:#000000; stroke-linecap:round; stroke-linejoin:round; stroke-width:4; stroke-opacity:1; fill:none" points="332.62,277.726 351.518,277.726 "/>
<path clip-path="url(#clip870)" d="M114.26 1306 L143.936 1306 L143.936 1309.93 L114.26 1309.93 L114.26 1306 Z" fill="#000000" fill-rule="nonzero" fill-opacity="1" /><path clip-path="url(#clip870)" d="M154.839 1318.89 L162.477 1318.89 L162.477 1292.53 L154.167 1294.19 L154.167 1289.93 L162.431 1288.27 L167.107 1288.27 L167.107 1318.89 L174.746 1318.89 L174.746 1322.83 L154.839 1322.83 L154.839 1318.89 Z" fill="#000000" fill-rule="nonzero" fill-opacity="1" /><path clip-path="url(#clip870)" d="M183.01 1288.27 L205.232 1288.27 L205.232 1290.26 L192.686 1322.83 L187.801 1322.83 L199.607 1292.2 L183.01 1292.2 L183.01 1288.27 Z" fill="#000000" fill-rule="nonzero" fill-opacity="1" /><path clip-path="url(#clip870)" d="M214.399 1288.27 L232.755 1288.27 L232.755 1292.2 L218.681 1292.2 L218.681 1300.67 Q219.699 1300.33 220.718 1300.17 Q221.736 1299.98 222.755 1299.98 Q228.542 1299.98 231.922 1303.15 Q235.301 1306.32 235.301 1311.74 Q235.301 1317.32 231.829 1320.42 Q228.357 1323.5 222.037 1323.5 Q219.861 1323.5 217.593 1323.13 Q215.348 1322.76 212.94 1322.02 L212.94 1317.32 Q215.024 1318.45 217.246 1319.01 Q219.468 1319.56 221.945 1319.56 Q225.949 1319.56 228.287 1317.46 Q230.625 1315.35 230.625 1311.74 Q230.625 1308.13 228.287 1306.02 Q225.949 1303.92 221.945 1303.92 Q220.07 1303.92 218.195 1304.33 Q216.343 1304.75 214.399 1305.63 L214.399 1288.27 Z" fill="#000000" fill-rule="nonzero" fill-opacity="1" /><path clip-path="url(#clip870)" d="M254.514 1291.35 Q250.903 1291.35 249.074 1294.91 Q247.269 1298.45 247.269 1305.58 Q247.269 1312.69 249.074 1316.25 Q250.903 1319.8 254.514 1319.8 Q258.148 1319.8 259.954 1316.25 Q261.783 1312.69 261.783 1305.58 Q261.783 1298.45 259.954 1294.91 Q258.148 1291.35 254.514 1291.35 M254.514 1287.64 Q260.324 1287.64 263.38 1292.25 Q266.458 1296.83 266.458 1305.58 Q266.458 1314.31 263.38 1318.92 Q260.324 1323.5 254.514 1323.5 Q248.704 1323.5 245.625 1318.92 Q242.57 1314.31 242.57 1305.58 Q242.57 1296.83 245.625 1292.25 Q248.704 1287.64 254.514 1287.64 Z" fill="#000000" fill-rule="nonzero" fill-opacity="1" /><path clip-path="url(#clip870)" d="M284.676 1291.35 Q281.065 1291.35 279.236 1294.91 Q277.431 1298.45 277.431 1305.58 Q277.431 1312.69 279.236 1316.25 Q281.065 1319.8 284.676 1319.8 Q288.31 1319.8 290.116 1316.25 Q291.944 1312.69 291.944 1305.58 Q291.944 1298.45 290.116 1294.91 Q288.31 1291.35 284.676 1291.35 M284.676 1287.64 Q290.486 1287.64 293.542 1292.25 Q296.62 1296.83 296.62 1305.58 Q296.62 1314.31 293.542 1318.92 Q290.486 1323.5 284.676 1323.5 Q278.866 1323.5 275.787 1318.92 Q272.732 1314.31 272.732 1305.58 Q272.732 1296.83 275.787 1292.25 Q278.866 1287.64 284.676 1287.64 Z" fill="#000000" fill-rule="nonzero" fill-opacity="1" /><path clip-path="url(#clip870)" d="M114.26 1049.04 L143.936 1049.04 L143.936 1052.98 L114.26 1052.98 L114.26 1049.04 Z" fill="#000000" fill-rule="nonzero" fill-opacity="1" /><path clip-path="url(#clip870)" d="M154.839 1061.94 L162.477 1061.94 L162.477 1035.57 L154.167 1037.24 L154.167 1032.98 L162.431 1031.31 L167.107 1031.31 L167.107 1061.94 L174.746 1061.94 L174.746 1065.87 L154.839 1065.87 L154.839 1061.94 Z" fill="#000000" fill-rule="nonzero" fill-opacity="1" /><path clip-path="url(#clip870)" d="M184.237 1031.31 L202.593 1031.31 L202.593 1035.25 L188.519 1035.25 L188.519 1043.72 Q189.538 1043.37 190.556 1043.21 Q191.575 1043.03 192.593 1043.03 Q198.38 1043.03 201.76 1046.2 Q205.139 1049.37 205.139 1054.78 Q205.139 1060.36 201.667 1063.46 Q198.195 1066.54 191.875 1066.54 Q189.7 1066.54 187.431 1066.17 Q185.186 1065.8 182.778 1065.06 L182.778 1060.36 Q184.862 1061.5 187.084 1062.05 Q189.306 1062.61 191.783 1062.61 Q195.787 1062.61 198.125 1060.5 Q200.463 1058.4 200.463 1054.78 Q200.463 1051.17 198.125 1049.07 Q195.787 1046.96 191.783 1046.96 Q189.908 1046.96 188.033 1047.38 Q186.181 1047.79 184.237 1048.67 L184.237 1031.31 Z" fill="#000000" fill-rule="nonzero" fill-opacity="1" /><path clip-path="url(#clip870)" d="M224.352 1034.39 Q220.741 1034.39 218.912 1037.96 Q217.107 1041.5 217.107 1048.63 Q217.107 1055.73 218.912 1059.3 Q220.741 1062.84 224.352 1062.84 Q227.986 1062.84 229.792 1059.3 Q231.621 1055.73 231.621 1048.63 Q231.621 1041.5 229.792 1037.96 Q227.986 1034.39 224.352 1034.39 M224.352 1030.69 Q230.162 1030.69 233.218 1035.29 Q236.297 1039.88 236.297 1048.63 Q236.297 1057.35 233.218 1061.96 Q230.162 1066.54 224.352 1066.54 Q218.542 1066.54 215.463 1061.96 Q212.408 1057.35 212.408 1048.63 Q212.408 1039.88 215.463 1035.29 Q218.542 1030.69 224.352 1030.69 Z" fill="#000000" fill-rule="nonzero" fill-opacity="1" /><path clip-path="url(#clip870)" d="M254.514 1034.39 Q250.903 1034.39 249.074 1037.96 Q247.269 1041.5 247.269 1048.63 Q247.269 1055.73 249.074 1059.3 Q250.903 1062.84 254.514 1062.84 Q258.148 1062.84 259.954 1059.3 Q261.783 1055.73 261.783 1048.63 Q261.783 1041.5 259.954 1037.96 Q258.148 1034.39 254.514 1034.39 M254.514 1030.69 Q260.324 1030.69 263.38 1035.29 Q266.458 1039.88 266.458 1048.63 Q266.458 1057.35 263.38 1061.96 Q260.324 1066.54 254.514 1066.54 Q248.704 1066.54 245.625 1061.96 Q242.57 1057.35 242.57 1048.63 Q242.57 1039.88 245.625 1035.29 Q248.704 1030.69 254.514 1030.69 Z" fill="#000000" fill-rule="nonzero" fill-opacity="1" /><path clip-path="url(#clip870)" d="M284.676 1034.39 Q281.065 1034.39 279.236 1037.96 Q277.431 1041.5 277.431 1048.63 Q277.431 1055.73 279.236 1059.3 Q281.065 1062.84 284.676 1062.84 Q288.31 1062.84 290.116 1059.3 Q291.944 1055.73 291.944 1048.63 Q291.944 1041.5 290.116 1037.96 Q288.31 1034.39 284.676 1034.39 M284.676 1030.69 Q290.486 1030.69 293.542 1035.29 Q296.62 1039.88 296.62 1048.63 Q296.62 1057.35 293.542 1061.96 Q290.486 1066.54 284.676 1066.54 Q278.866 1066.54 275.787 1061.96 Q272.732 1057.35 272.732 1048.63 Q272.732 1039.88 275.787 1035.29 Q278.866 1030.69 284.676 1030.69 Z" fill="#000000" fill-rule="nonzero" fill-opacity="1" /><path clip-path="url(#clip870)" d="M114.26 792.088 L143.936 792.088 L143.936 796.023 L114.26 796.023 L114.26 792.088 Z" fill="#000000" fill-rule="nonzero" fill-opacity="1" /><path clip-path="url(#clip870)" d="M154.839 804.982 L162.477 804.982 L162.477 778.616 L154.167 780.283 L154.167 776.024 L162.431 774.357 L167.107 774.357 L167.107 804.982 L174.746 804.982 L174.746 808.917 L154.839 808.917 L154.839 804.982 Z" fill="#000000" fill-rule="nonzero" fill-opacity="1" /><path clip-path="url(#clip870)" d="M188.218 804.982 L204.537 804.982 L204.537 808.917 L182.593 808.917 L182.593 804.982 Q185.255 802.227 189.838 797.598 Q194.445 792.945 195.625 791.602 Q197.871 789.079 198.75 787.343 Q199.653 785.584 199.653 783.894 Q199.653 781.139 197.709 779.403 Q195.787 777.667 192.686 777.667 Q190.487 777.667 188.033 778.431 Q185.602 779.195 182.825 780.746 L182.825 776.024 Q185.649 774.889 188.102 774.311 Q190.556 773.732 192.593 773.732 Q197.963 773.732 201.158 776.417 Q204.352 779.102 204.352 783.593 Q204.352 785.723 203.542 787.644 Q202.755 789.542 200.649 792.135 Q200.07 792.806 196.968 796.023 Q193.866 799.218 188.218 804.982 Z" fill="#000000" fill-rule="nonzero" fill-opacity="1" /><path clip-path="url(#clip870)" d="M214.399 774.357 L232.755 774.357 L232.755 778.292 L218.681 778.292 L218.681 786.764 Q219.699 786.417 220.718 786.255 Q221.736 786.07 222.755 786.07 Q228.542 786.07 231.922 789.241 Q235.301 792.412 235.301 797.829 Q235.301 803.408 231.829 806.51 Q228.357 809.588 222.037 809.588 Q219.861 809.588 217.593 809.218 Q215.348 808.847 212.94 808.107 L212.94 803.408 Q215.024 804.542 217.246 805.097 Q219.468 805.653 221.945 805.653 Q225.949 805.653 228.287 803.547 Q230.625 801.44 230.625 797.829 Q230.625 794.218 228.287 792.111 Q225.949 790.005 221.945 790.005 Q220.07 790.005 218.195 790.422 Q216.343 790.838 214.399 791.718 L214.399 774.357 Z" fill="#000000" fill-rule="nonzero" fill-opacity="1" /><path clip-path="url(#clip870)" d="M254.514 777.436 Q250.903 777.436 249.074 781 Q247.269 784.542 247.269 791.672 Q247.269 798.778 249.074 802.343 Q250.903 805.885 254.514 805.885 Q258.148 805.885 259.954 802.343 Q261.783 798.778 261.783 791.672 Q261.783 784.542 259.954 781 Q258.148 777.436 254.514 777.436 M254.514 773.732 Q260.324 773.732 263.38 778.338 Q266.458 782.922 266.458 791.672 Q266.458 800.398 263.38 805.005 Q260.324 809.588 254.514 809.588 Q248.704 809.588 245.625 805.005 Q242.57 800.398 242.57 791.672 Q242.57 782.922 245.625 778.338 Q248.704 773.732 254.514 773.732 Z" fill="#000000" fill-rule="nonzero" fill-opacity="1" /><path clip-path="url(#clip870)" d="M284.676 777.436 Q281.065 777.436 279.236 781 Q277.431 784.542 277.431 791.672 Q277.431 798.778 279.236 802.343 Q281.065 805.885 284.676 805.885 Q288.31 805.885 290.116 802.343 Q291.944 798.778 291.944 791.672 Q291.944 784.542 290.116 781 Q288.31 777.436 284.676 777.436 M284.676 773.732 Q290.486 773.732 293.542 778.338 Q296.62 782.922 296.62 791.672 Q296.62 800.398 293.542 805.005 Q290.486 809.588 284.676 809.588 Q278.866 809.588 275.787 805.005 Q272.732 800.398 272.732 791.672 Q272.732 782.922 275.787 778.338 Q278.866 773.732 284.676 773.732 Z" fill="#000000" fill-rule="nonzero" fill-opacity="1" /><path clip-path="url(#clip870)" d="M114.26 535.133 L143.936 535.133 L143.936 539.068 L114.26 539.068 L114.26 535.133 Z" fill="#000000" fill-rule="nonzero" fill-opacity="1" /><path clip-path="url(#clip870)" d="M154.839 548.026 L162.477 548.026 L162.477 521.661 L154.167 523.327 L154.167 519.068 L162.431 517.402 L167.107 517.402 L167.107 548.026 L174.746 548.026 L174.746 551.962 L154.839 551.962 L154.839 548.026 Z" fill="#000000" fill-rule="nonzero" fill-opacity="1" /><path clip-path="url(#clip870)" d="M194.19 520.48 Q190.579 520.48 188.75 524.045 Q186.945 527.587 186.945 534.716 Q186.945 541.823 188.75 545.388 Q190.579 548.929 194.19 548.929 Q197.825 548.929 199.63 545.388 Q201.459 541.823 201.459 534.716 Q201.459 527.587 199.63 524.045 Q197.825 520.48 194.19 520.48 M194.19 516.777 Q200 516.777 203.056 521.383 Q206.135 525.966 206.135 534.716 Q206.135 543.443 203.056 548.05 Q200 552.633 194.19 552.633 Q188.38 552.633 185.301 548.05 Q182.246 543.443 182.246 534.716 Q182.246 525.966 185.301 521.383 Q188.38 516.777 194.19 516.777 Z" fill="#000000" fill-rule="nonzero" fill-opacity="1" /><path clip-path="url(#clip870)" d="M224.352 520.48 Q220.741 520.48 218.912 524.045 Q217.107 527.587 217.107 534.716 Q217.107 541.823 218.912 545.388 Q220.741 548.929 224.352 548.929 Q227.986 548.929 229.792 545.388 Q231.621 541.823 231.621 534.716 Q231.621 527.587 229.792 524.045 Q227.986 520.48 224.352 520.48 M224.352 516.777 Q230.162 516.777 233.218 521.383 Q236.297 525.966 236.297 534.716 Q236.297 543.443 233.218 548.05 Q230.162 552.633 224.352 552.633 Q218.542 552.633 215.463 548.05 Q212.408 543.443 212.408 534.716 Q212.408 525.966 215.463 521.383 Q218.542 516.777 224.352 516.777 Z" fill="#000000" fill-rule="nonzero" fill-opacity="1" /><path clip-path="url(#clip870)" d="M254.514 520.48 Q250.903 520.48 249.074 524.045 Q247.269 527.587 247.269 534.716 Q247.269 541.823 249.074 545.388 Q250.903 548.929 254.514 548.929 Q258.148 548.929 259.954 545.388 Q261.783 541.823 261.783 534.716 Q261.783 527.587 259.954 524.045 Q258.148 520.48 254.514 520.48 M254.514 516.777 Q260.324 516.777 263.38 521.383 Q266.458 525.966 266.458 534.716 Q266.458 543.443 263.38 548.05 Q260.324 552.633 254.514 552.633 Q248.704 552.633 245.625 548.05 Q242.57 543.443 242.57 534.716 Q242.57 525.966 245.625 521.383 Q248.704 516.777 254.514 516.777 Z" fill="#000000" fill-rule="nonzero" fill-opacity="1" /><path clip-path="url(#clip870)" d="M284.676 520.48 Q281.065 520.48 279.236 524.045 Q277.431 527.587 277.431 534.716 Q277.431 541.823 279.236 545.388 Q281.065 548.929 284.676 548.929 Q288.31 548.929 290.116 545.388 Q291.944 541.823 291.944 534.716 Q291.944 527.587 290.116 524.045 Q288.31 520.48 284.676 520.48 M284.676 516.777 Q290.486 516.777 293.542 521.383 Q296.62 525.966 296.62 534.716 Q296.62 543.443 293.542 548.05 Q290.486 552.633 284.676 552.633 Q278.866 552.633 275.787 548.05 Q272.732 543.443 272.732 534.716 Q272.732 525.966 275.787 521.383 Q278.866 516.777 284.676 516.777 Z" fill="#000000" fill-rule="nonzero" fill-opacity="1" /><path clip-path="url(#clip870)" d="M144.422 278.178 L174.098 278.178 L174.098 282.113 L144.422 282.113 L144.422 278.178 Z" fill="#000000" fill-rule="nonzero" fill-opacity="1" /><path clip-path="url(#clip870)" d="M183.01 260.446 L205.232 260.446 L205.232 262.437 L192.686 295.006 L187.801 295.006 L199.607 264.381 L183.01 264.381 L183.01 260.446 Z" fill="#000000" fill-rule="nonzero" fill-opacity="1" /><path clip-path="url(#clip870)" d="M214.399 260.446 L232.755 260.446 L232.755 264.381 L218.681 264.381 L218.681 272.854 Q219.699 272.506 220.718 272.344 Q221.736 272.159 222.755 272.159 Q228.542 272.159 231.922 275.33 Q235.301 278.502 235.301 283.918 Q235.301 289.497 231.829 292.599 Q228.357 295.678 222.037 295.678 Q219.861 295.678 217.593 295.307 Q215.348 294.937 212.94 294.196 L212.94 289.497 Q215.024 290.631 217.246 291.187 Q219.468 291.742 221.945 291.742 Q225.949 291.742 228.287 289.636 Q230.625 287.529 230.625 283.918 Q230.625 280.307 228.287 278.201 Q225.949 276.094 221.945 276.094 Q220.07 276.094 218.195 276.511 Q216.343 276.928 214.399 277.807 L214.399 260.446 Z" fill="#000000" fill-rule="nonzero" fill-opacity="1" /><path clip-path="url(#clip870)" d="M254.514 263.525 Q250.903 263.525 249.074 267.09 Q247.269 270.631 247.269 277.761 Q247.269 284.867 249.074 288.432 Q250.903 291.974 254.514 291.974 Q258.148 291.974 259.954 288.432 Q261.783 284.867 261.783 277.761 Q261.783 270.631 259.954 267.09 Q258.148 263.525 254.514 263.525 M254.514 259.821 Q260.324 259.821 263.38 264.428 Q266.458 269.011 266.458 277.761 Q266.458 286.488 263.38 291.094 Q260.324 295.678 254.514 295.678 Q248.704 295.678 245.625 291.094 Q242.57 286.488 242.57 277.761 Q242.57 269.011 245.625 264.428 Q248.704 259.821 254.514 259.821 Z" fill="#000000" fill-rule="nonzero" fill-opacity="1" /><path clip-path="url(#clip870)" d="M284.676 263.525 Q281.065 263.525 279.236 267.09 Q277.431 270.631 277.431 277.761 Q277.431 284.867 279.236 288.432 Q281.065 291.974 284.676 291.974 Q288.31 291.974 290.116 288.432 Q291.944 284.867 291.944 277.761 Q291.944 270.631 290.116 267.09 Q288.31 263.525 284.676 263.525 M284.676 259.821 Q290.486 259.821 293.542 264.428 Q296.62 269.011 296.62 277.761 Q296.62 286.488 293.542 291.094 Q290.486 295.678 284.676 295.678 Q278.866 295.678 275.787 291.094 Q272.732 286.488 272.732 277.761 Q272.732 269.011 275.787 264.428 Q278.866 259.821 284.676 259.821 Z" fill="#000000" fill-rule="nonzero" fill-opacity="1" /><path clip-path="url(#clip870)" d="M16.4842 816.375 L16.4842 786.329 L21.895 786.329 L21.895 809.945 L35.9632 809.945 L35.9632 787.315 L41.3741 787.315 L41.3741 809.945 L58.5933 809.945 L58.5933 785.756 L64.0042 785.756 L64.0042 816.375 L16.4842 816.375 Z" fill="#000000" fill-rule="nonzero" fill-opacity="1" /><path clip-path="url(#clip870)" d="M16.4842 775.189 L16.4842 768.759 L58.5933 768.759 L58.5933 745.62 L64.0042 745.62 L64.0042 775.189 L16.4842 775.189 Z" fill="#000000" fill-rule="nonzero" fill-opacity="1" /><path clip-path="url(#clip870)" d="M41.3104 732.443 L58.7206 732.443 L58.7206 722.13 Q58.7206 716.942 56.5881 714.46 Q54.4238 711.945 49.9996 711.945 Q45.5436 711.945 43.4429 714.46 Q41.3104 716.942 41.3104 722.13 L41.3104 732.443 M21.7677 732.443 L36.0905 732.443 L36.0905 722.926 Q36.0905 718.216 34.34 715.924 Q32.5576 713.6 28.9291 713.6 Q25.3325 713.6 23.5501 715.924 Q21.7677 718.216 21.7677 722.926 L21.7677 732.443 M16.4842 738.872 L16.4842 722.449 Q16.4842 715.096 19.5397 711.118 Q22.5952 707.139 28.2289 707.139 Q32.5894 707.139 35.1675 709.176 Q37.7456 711.213 38.3822 715.16 Q39.4007 710.418 42.6472 707.808 Q45.8619 705.166 50.6998 705.166 Q57.0655 705.166 60.5348 709.495 Q64.0042 713.823 64.0042 721.812 L64.0042 738.872 L16.4842 738.872 Z" fill="#000000" fill-rule="nonzero" fill-opacity="1" /><path clip-path="url(#clip870)" d="M20.8447 676.011 Q20.8447 683.013 26.0645 687.151 Q31.2844 691.257 40.2919 691.257 Q49.2675 691.257 54.4874 687.151 Q59.7073 683.013 59.7073 676.011 Q59.7073 669.009 54.4874 664.935 Q49.2675 660.829 40.2919 660.829 Q31.2844 660.829 26.0645 664.935 Q20.8447 669.009 20.8447 676.011 M15.6248 676.011 Q15.6248 666.017 22.3406 660.033 Q29.0246 654.049 40.2919 654.049 Q51.5274 654.049 58.2432 660.033 Q64.9272 666.017 64.9272 676.011 Q64.9272 686.037 58.2432 692.052 Q51.5592 698.036 40.2919 698.036 Q29.0246 698.036 22.3406 692.052 Q15.6248 686.037 15.6248 676.011 Z" fill="#000000" fill-rule="nonzero" fill-opacity="1" /><polyline clip-path="url(#clip871)" style="stroke:#009af9; stroke-linecap:round; stroke-linejoin:round; stroke-width:4; stroke-opacity:1; fill:none" points="420.603,1374.99 488.899,1207.74 544.706,520.037 610.695,351.742 666.184,252.029 732.472,217.165 788.99,200.7 845.325,181.36 911.109,181.347 966.501,167.843 1032.58,164.242 1088.86,164.779 1145.22,159.861 1211.85,148.278 1267.49,151.765 1333.21,146.6 1388.5,136.964 1445.17,137.185 1510.17,132.789 1566.04,133.441 1631.28,133.344 1687.16,127.73 1745.47,124.276 1810.11,117.251 1865.73,112.335 1930.91,108.209 1986.01,101.641 2051.48,95.6896 2106.6,94.2397 2174,92.2484 2229.93,87.0389 2295.58,86.1857 "/>
<polyline clip-path="url(#clip871)" style="stroke:#e26f46; stroke-linecap:round; stroke-linejoin:round; stroke-width:4; stroke-opacity:1; fill:none" points="389.794,1384.24 398.85,765.794 404.239,482.195 409.522,355.738 414.985,252.17 420.441,220.939 426.35,212.186 432.387,199.06 438.035,189.966 443.662,183.203 449.209,177.83 454.8,174.295 460.423,168.376 466.034,165.435 471.648,160.875 477.238,155.241 482.827,148.958 488.434,143.674 493.975,142.011 499.555,143.237 505.241,133.186 510.83,131.109 516.429,129.273 521.981,126.271 527.59,121.059 533.158,117.266 538.737,116.537 544.321,110.192 549.888,108.563 555.472,105.81 561.041,104.885 566.638,103.626 "/>
<path clip-path="url(#clip870)" d="M1784.1 1377.32 L2285.42 1377.32 L2285.42 1221.8 L1784.1 1221.8  Z" fill="#ffffff" fill-rule="evenodd" fill-opacity="1"/>
<polyline clip-path="url(#clip870)" style="stroke:#000000; stroke-linecap:round; stroke-linejoin:round; stroke-width:4; stroke-opacity:1; fill:none" points="1784.1,1377.32 2285.42,1377.32 2285.42,1221.8 1784.1,1221.8 1784.1,1377.32 "/>
<polyline clip-path="url(#clip870)" style="stroke:#009af9; stroke-linecap:round; stroke-linejoin:round; stroke-width:4; stroke-opacity:1; fill:none" points="1806.55,1273.64 1941.22,1273.64 "/>
<path clip-path="url(#clip870)" d="M1963.67 1256.36 L1983.53 1256.36 L1983.53 1260.29 L1968.34 1260.29 L1968.34 1270.48 L1982.05 1270.48 L1982.05 1274.41 L1968.34 1274.41 L1968.34 1290.92 L1963.67 1290.92 L1963.67 1256.36 Z" fill="#000000" fill-rule="nonzero" fill-opacity="1" /><path clip-path="url(#clip870)" d="M1987.72 1280.68 L1987.72 1264.99 L1991.98 1264.99 L1991.98 1280.52 Q1991.98 1284.2 1993.41 1286.05 Q1994.85 1287.88 1997.72 1287.88 Q2001.17 1287.88 2003.16 1285.68 Q2005.17 1283.48 2005.17 1279.69 L2005.17 1264.99 L2009.43 1264.99 L2009.43 1290.92 L2005.17 1290.92 L2005.17 1286.93 Q2003.62 1289.29 2001.56 1290.45 Q1999.52 1291.59 1996.82 1291.59 Q1992.35 1291.59 1990.03 1288.81 Q1987.72 1286.03 1987.72 1280.68 M1998.44 1264.36 L1998.44 1264.36 Z" fill="#000000" fill-rule="nonzero" fill-opacity="1" /><path clip-path="url(#clip870)" d="M2018.2 1254.9 L2022.46 1254.9 L2022.46 1290.92 L2018.2 1290.92 L2018.2 1254.9 Z" fill="#000000" fill-rule="nonzero" fill-opacity="1" /><path clip-path="url(#clip870)" d="M2031.38 1254.9 L2035.64 1254.9 L2035.64 1290.92 L2031.38 1290.92 L2031.38 1254.9 Z" fill="#000000" fill-rule="nonzero" fill-opacity="1" /><path clip-path="url(#clip870)" d="M2064.48 1274.41 L2064.48 1287.07 L2071.98 1287.07 Q2075.75 1287.07 2077.56 1285.52 Q2079.39 1283.95 2079.39 1280.73 Q2079.39 1277.49 2077.56 1275.96 Q2075.75 1274.41 2071.98 1274.41 L2064.48 1274.41 M2064.48 1260.2 L2064.48 1270.61 L2071.4 1270.61 Q2074.82 1270.61 2076.49 1269.34 Q2078.18 1268.05 2078.18 1265.41 Q2078.18 1262.79 2076.49 1261.49 Q2074.82 1260.2 2071.4 1260.2 L2064.48 1260.2 M2059.8 1256.36 L2071.75 1256.36 Q2077.09 1256.36 2079.99 1258.58 Q2082.88 1260.8 2082.88 1264.9 Q2082.88 1268.07 2081.4 1269.94 Q2079.92 1271.82 2077.05 1272.28 Q2080.5 1273.02 2082.39 1275.38 Q2084.32 1277.72 2084.32 1281.24 Q2084.32 1285.87 2081.17 1288.39 Q2078.02 1290.92 2072.21 1290.92 L2059.8 1290.92 L2059.8 1256.36 Z" fill="#000000" fill-rule="nonzero" fill-opacity="1" /><path clip-path="url(#clip870)" d="M2103.92 1277.88 Q2098.76 1277.88 2096.77 1279.06 Q2094.78 1280.24 2094.78 1283.09 Q2094.78 1285.36 2096.26 1286.7 Q2097.76 1288.02 2100.33 1288.02 Q2103.88 1288.02 2106.01 1285.52 Q2108.16 1283 2108.16 1278.83 L2108.16 1277.88 L2103.92 1277.88 M2112.42 1276.12 L2112.42 1290.92 L2108.16 1290.92 L2108.16 1286.98 Q2106.7 1289.34 2104.52 1290.48 Q2102.35 1291.59 2099.2 1291.59 Q2095.22 1291.59 2092.86 1289.36 Q2090.52 1287.12 2090.52 1283.37 Q2090.52 1278.99 2093.44 1276.77 Q2096.38 1274.55 2102.19 1274.55 L2108.16 1274.55 L2108.16 1274.13 Q2108.16 1271.19 2106.21 1269.6 Q2104.29 1267.98 2100.8 1267.98 Q2098.57 1267.98 2096.47 1268.51 Q2094.36 1269.04 2092.42 1270.11 L2092.42 1266.17 Q2094.76 1265.27 2096.95 1264.83 Q2099.15 1264.36 2101.24 1264.36 Q2106.86 1264.36 2109.64 1267.28 Q2112.42 1270.2 2112.42 1276.12 Z" fill="#000000" fill-rule="nonzero" fill-opacity="1" /><path clip-path="url(#clip870)" d="M2125.4 1257.63 L2125.4 1264.99 L2134.18 1264.99 L2134.18 1268.3 L2125.4 1268.3 L2125.4 1282.37 Q2125.4 1285.54 2126.26 1286.45 Q2127.14 1287.35 2129.8 1287.35 L2134.18 1287.35 L2134.18 1290.92 L2129.8 1290.92 Q2124.87 1290.92 2123 1289.09 Q2121.12 1287.23 2121.12 1282.37 L2121.12 1268.3 L2118 1268.3 L2118 1264.99 L2121.12 1264.99 L2121.12 1257.63 L2125.4 1257.63 Z" fill="#000000" fill-rule="nonzero" fill-opacity="1" /><path clip-path="url(#clip870)" d="M2158.44 1265.98 L2158.44 1269.97 Q2156.63 1268.97 2154.8 1268.48 Q2153 1267.98 2151.14 1267.98 Q2147 1267.98 2144.71 1270.61 Q2142.42 1273.23 2142.42 1277.98 Q2142.42 1282.72 2144.71 1285.36 Q2147 1287.98 2151.14 1287.98 Q2153 1287.98 2154.8 1287.49 Q2156.63 1286.98 2158.44 1285.98 L2158.44 1289.92 Q2156.65 1290.75 2154.73 1291.17 Q2152.83 1291.59 2150.68 1291.59 Q2144.82 1291.59 2141.38 1287.91 Q2137.93 1284.23 2137.93 1277.98 Q2137.93 1271.63 2141.4 1268 Q2144.89 1264.36 2150.96 1264.36 Q2152.93 1264.36 2154.8 1264.78 Q2156.68 1265.17 2158.44 1265.98 Z" fill="#000000" fill-rule="nonzero" fill-opacity="1" /><path clip-path="url(#clip870)" d="M2187.39 1275.27 L2187.39 1290.92 L2183.13 1290.92 L2183.13 1275.41 Q2183.13 1271.73 2181.7 1269.9 Q2180.26 1268.07 2177.39 1268.07 Q2173.94 1268.07 2171.95 1270.27 Q2169.96 1272.47 2169.96 1276.26 L2169.96 1290.92 L2165.68 1290.92 L2165.68 1254.9 L2169.96 1254.9 L2169.96 1269.02 Q2171.49 1266.68 2173.55 1265.52 Q2175.63 1264.36 2178.34 1264.36 Q2182.81 1264.36 2185.1 1267.14 Q2187.39 1269.9 2187.39 1275.27 Z" fill="#000000" fill-rule="nonzero" fill-opacity="1" /><polyline clip-path="url(#clip870)" style="stroke:#e26f46; stroke-linecap:round; stroke-linejoin:round; stroke-width:4; stroke-opacity:1; fill:none" points="1806.55,1325.48 1941.22,1325.48 "/>
<path clip-path="url(#clip870)" d="M1985.91 1309.33 L1985.91 1313.89 Q1983.25 1312.62 1980.89 1311.99 Q1978.53 1311.37 1976.33 1311.37 Q1972.51 1311.37 1970.43 1312.85 Q1968.37 1314.33 1968.37 1317.06 Q1968.37 1319.35 1969.73 1320.53 Q1971.12 1321.69 1974.96 1322.41 L1977.79 1322.99 Q1983.02 1323.98 1985.5 1326.51 Q1988 1329.01 1988 1333.22 Q1988 1338.24 1984.62 1340.83 Q1981.26 1343.43 1974.76 1343.43 Q1972.3 1343.43 1969.52 1342.87 Q1966.77 1342.32 1963.81 1341.23 L1963.81 1336.41 Q1966.65 1338.01 1969.39 1338.82 Q1972.12 1339.63 1974.76 1339.63 Q1978.76 1339.63 1980.94 1338.06 Q1983.11 1336.48 1983.11 1333.57 Q1983.11 1331.02 1981.54 1329.58 Q1979.99 1328.15 1976.42 1327.43 L1973.58 1326.88 Q1968.34 1325.83 1966.01 1323.61 Q1963.67 1321.39 1963.67 1317.43 Q1963.67 1312.85 1966.89 1310.21 Q1970.13 1307.57 1975.8 1307.57 Q1978.23 1307.57 1980.75 1308.01 Q1983.27 1308.45 1985.91 1309.33 Z" fill="#000000" fill-rule="nonzero" fill-opacity="1" /><path clip-path="url(#clip870)" d="M1994.66 1332.52 L1994.66 1316.83 L1998.92 1316.83 L1998.92 1332.36 Q1998.92 1336.04 2000.36 1337.89 Q2001.79 1339.72 2004.66 1339.72 Q2008.11 1339.72 2010.1 1337.52 Q2012.12 1335.32 2012.12 1331.53 L2012.12 1316.83 L2016.38 1316.83 L2016.38 1342.76 L2012.12 1342.76 L2012.12 1338.77 Q2010.57 1341.13 2008.51 1342.29 Q2006.47 1343.43 2003.76 1343.43 Q1999.29 1343.43 1996.98 1340.65 Q1994.66 1337.87 1994.66 1332.52 M2005.38 1316.2 L2005.38 1316.2 Z" fill="#000000" fill-rule="nonzero" fill-opacity="1" /><path clip-path="url(#clip870)" d="M2043.76 1329.82 Q2043.76 1325.12 2041.82 1322.45 Q2039.89 1319.77 2036.51 1319.77 Q2033.14 1319.77 2031.19 1322.45 Q2029.27 1325.12 2029.27 1329.82 Q2029.27 1334.51 2031.19 1337.2 Q2033.14 1339.86 2036.51 1339.86 Q2039.89 1339.86 2041.82 1337.2 Q2043.76 1334.51 2043.76 1329.82 M2029.27 1320.76 Q2030.61 1318.45 2032.65 1317.34 Q2034.71 1316.2 2037.56 1316.2 Q2042.28 1316.2 2045.22 1319.95 Q2048.18 1323.7 2048.18 1329.82 Q2048.18 1335.93 2045.22 1339.68 Q2042.28 1343.43 2037.56 1343.43 Q2034.71 1343.43 2032.65 1342.32 Q2030.61 1341.18 2029.27 1338.87 L2029.27 1342.76 L2024.99 1342.76 L2024.99 1306.74 L2029.27 1306.74 L2029.27 1320.76 Z" fill="#000000" fill-rule="nonzero" fill-opacity="1" /><path clip-path="url(#clip870)" d="M2071.77 1317.59 L2071.77 1321.62 Q2069.96 1320.7 2068.02 1320.23 Q2066.08 1319.77 2063.99 1319.77 Q2060.82 1319.77 2059.22 1320.74 Q2057.65 1321.71 2057.65 1323.66 Q2057.65 1325.14 2058.78 1326 Q2059.92 1326.83 2063.34 1327.59 L2064.8 1327.92 Q2069.34 1328.89 2071.24 1330.67 Q2073.16 1332.43 2073.16 1335.6 Q2073.16 1339.21 2070.29 1341.32 Q2067.44 1343.43 2062.44 1343.43 Q2060.36 1343.43 2058.09 1343.01 Q2055.84 1342.62 2053.34 1341.81 L2053.34 1337.41 Q2055.7 1338.63 2058 1339.26 Q2060.29 1339.86 2062.53 1339.86 Q2065.54 1339.86 2067.16 1338.84 Q2068.78 1337.8 2068.78 1335.93 Q2068.78 1334.19 2067.6 1333.26 Q2066.45 1332.34 2062.49 1331.48 L2061.01 1331.14 Q2057.05 1330.3 2055.29 1328.59 Q2053.53 1326.85 2053.53 1323.84 Q2053.53 1320.19 2056.12 1318.2 Q2058.71 1316.2 2063.48 1316.2 Q2065.84 1316.2 2067.93 1316.55 Q2070.01 1316.9 2071.77 1317.59 Z" fill="#000000" fill-rule="nonzero" fill-opacity="1" /><path clip-path="url(#clip870)" d="M2091.72 1329.72 Q2086.56 1329.72 2084.57 1330.9 Q2082.58 1332.08 2082.58 1334.93 Q2082.58 1337.2 2084.06 1338.54 Q2085.57 1339.86 2088.14 1339.86 Q2091.68 1339.86 2093.81 1337.36 Q2095.96 1334.84 2095.96 1330.67 L2095.96 1329.72 L2091.72 1329.72 M2100.22 1327.96 L2100.22 1342.76 L2095.96 1342.76 L2095.96 1338.82 Q2094.5 1341.18 2092.32 1342.32 Q2090.15 1343.43 2087 1343.43 Q2083.02 1343.43 2080.66 1341.2 Q2078.32 1338.96 2078.32 1335.21 Q2078.32 1330.83 2081.24 1328.61 Q2084.18 1326.39 2089.99 1326.39 L2095.96 1326.39 L2095.96 1325.97 Q2095.96 1323.03 2094.01 1321.44 Q2092.09 1319.82 2088.6 1319.82 Q2086.38 1319.82 2084.27 1320.35 Q2082.16 1320.88 2080.22 1321.95 L2080.22 1318.01 Q2082.56 1317.11 2084.76 1316.67 Q2086.95 1316.2 2089.04 1316.2 Q2094.66 1316.2 2097.44 1319.12 Q2100.22 1322.04 2100.22 1327.96 Z" fill="#000000" fill-rule="nonzero" fill-opacity="1" /><path clip-path="url(#clip870)" d="M2129.18 1321.81 Q2130.77 1318.94 2133 1317.57 Q2135.22 1316.2 2138.23 1316.2 Q2142.28 1316.2 2144.48 1319.05 Q2146.68 1321.88 2146.68 1327.11 L2146.68 1342.76 L2142.39 1342.76 L2142.39 1327.25 Q2142.39 1323.52 2141.07 1321.71 Q2139.76 1319.91 2137.05 1319.91 Q2133.74 1319.91 2131.82 1322.11 Q2129.89 1324.31 2129.89 1328.1 L2129.89 1342.76 L2125.61 1342.76 L2125.61 1327.25 Q2125.61 1323.5 2124.29 1321.71 Q2122.97 1319.91 2120.22 1319.91 Q2116.95 1319.91 2115.03 1322.13 Q2113.11 1324.33 2113.11 1328.1 L2113.11 1342.76 L2108.83 1342.76 L2108.83 1316.83 L2113.11 1316.83 L2113.11 1320.86 Q2114.57 1318.47 2116.61 1317.34 Q2118.64 1316.2 2121.45 1316.2 Q2124.27 1316.2 2126.24 1317.64 Q2128.23 1319.07 2129.18 1321.81 Z" fill="#000000" fill-rule="nonzero" fill-opacity="1" /><path clip-path="url(#clip870)" d="M2159.29 1338.87 L2159.29 1352.62 L2155.01 1352.62 L2155.01 1316.83 L2159.29 1316.83 L2159.29 1320.76 Q2160.63 1318.45 2162.67 1317.34 Q2164.73 1316.2 2167.58 1316.2 Q2172.3 1316.2 2175.24 1319.95 Q2178.2 1323.7 2178.2 1329.82 Q2178.2 1335.93 2175.24 1339.68 Q2172.3 1343.43 2167.58 1343.43 Q2164.73 1343.43 2162.67 1342.32 Q2160.63 1341.18 2159.29 1338.87 M2173.78 1329.82 Q2173.78 1325.12 2171.84 1322.45 Q2169.92 1319.77 2166.54 1319.77 Q2163.16 1319.77 2161.21 1322.45 Q2159.29 1325.12 2159.29 1329.82 Q2159.29 1334.51 2161.21 1337.2 Q2163.16 1339.86 2166.54 1339.86 Q2169.92 1339.86 2171.84 1337.2 Q2173.78 1334.51 2173.78 1329.82 Z" fill="#000000" fill-rule="nonzero" fill-opacity="1" /><path clip-path="url(#clip870)" d="M2185.26 1306.74 L2189.52 1306.74 L2189.52 1342.76 L2185.26 1342.76 L2185.26 1306.74 Z" fill="#000000" fill-rule="nonzero" fill-opacity="1" /><path clip-path="url(#clip870)" d="M2198.44 1316.83 L2202.69 1316.83 L2202.69 1342.76 L2198.44 1342.76 L2198.44 1316.83 M2198.44 1306.74 L2202.69 1306.74 L2202.69 1312.13 L2198.44 1312.13 L2198.44 1306.74 Z" fill="#000000" fill-rule="nonzero" fill-opacity="1" /><path clip-path="url(#clip870)" d="M2233.16 1327.11 L2233.16 1342.76 L2228.9 1342.76 L2228.9 1327.25 Q2228.9 1323.57 2227.46 1321.74 Q2226.03 1319.91 2223.16 1319.91 Q2219.71 1319.91 2217.72 1322.11 Q2215.73 1324.31 2215.73 1328.1 L2215.73 1342.76 L2211.44 1342.76 L2211.44 1316.83 L2215.73 1316.83 L2215.73 1320.86 Q2217.25 1318.52 2219.31 1317.36 Q2221.4 1316.2 2224.11 1316.2 Q2228.57 1316.2 2230.87 1318.98 Q2233.16 1321.74 2233.16 1327.11 Z" fill="#000000" fill-rule="nonzero" fill-opacity="1" /><path clip-path="url(#clip870)" d="M2258.71 1329.49 Q2258.71 1324.86 2256.79 1322.32 Q2254.89 1319.77 2251.44 1319.77 Q2248.02 1319.77 2246.1 1322.32 Q2244.2 1324.86 2244.2 1329.49 Q2244.2 1334.1 2246.1 1336.64 Q2248.02 1339.19 2251.44 1339.19 Q2254.89 1339.19 2256.79 1336.64 Q2258.71 1334.1 2258.71 1329.49 M2262.97 1339.54 Q2262.97 1346.16 2260.03 1349.38 Q2257.09 1352.62 2251.03 1352.62 Q2248.78 1352.62 2246.79 1352.27 Q2244.8 1351.95 2242.93 1351.25 L2242.93 1347.11 Q2244.8 1348.13 2246.63 1348.61 Q2248.46 1349.1 2250.36 1349.1 Q2254.55 1349.1 2256.63 1346.9 Q2258.71 1344.72 2258.71 1340.3 L2258.71 1338.2 Q2257.39 1340.49 2255.33 1341.62 Q2253.27 1342.76 2250.4 1342.76 Q2245.63 1342.76 2242.72 1339.12 Q2239.8 1335.49 2239.8 1329.49 Q2239.8 1323.47 2242.72 1319.84 Q2245.63 1316.2 2250.4 1316.2 Q2253.27 1316.2 2255.33 1317.34 Q2257.39 1318.47 2258.71 1320.76 L2258.71 1316.83 L2262.97 1316.83 L2262.97 1339.54 Z" fill="#000000" fill-rule="nonzero" fill-opacity="1" /></svg>
