<?xml version="1.0" encoding="utf-8"?>
<svg xmlns="http://www.w3.org/2000/svg" xmlns:xlink="http://www.w3.org/1999/xlink" width="600" height="400" viewBox="0 0 2400 1600">
<defs>
  <clipPath id="clip870">
    <rect x="0" y="0" width="2400" height="1600"/>
  </clipPath>
</defs>
<path clip-path="url(#clip870)" d="M0 1600 L2400 1600 L2400 0 L0 0  Z" fill="#ffffff" fill-rule="evenodd" fill-opacity="1"/>
<defs>
  <clipPath id="clip871">
    <rect x="332" y="47" width="2021" height="1377"/>
  </clipPath>
</defs>
<path clip-path="url(#clip870)" d="M332.62 1423.18 L2352.76 1423.18 L2352.76 47.2441 L332.62 47.2441  Z" fill="#ffffff" fill-rule="evenodd" fill-opacity="1"/>
<polyline clip-path="url(#clip871)" style="stroke:#000000; stroke-linecap:round; stroke-linejoin:round; stroke-width:2; stroke-opacity:0.1; fill:none" points="518.995,1423.18 518.995,47.2441 "/>
<polyline clip-path="url(#clip871)" style="stroke:#000000; stroke-linecap:round; stroke-linejoin:round; stroke-width:2; stroke-opacity:0.1; fill:none" points="911.85,1423.18 911.85,47.2441 "/>
<polyline clip-path="url(#clip871)" style="stroke:#000000; stroke-linecap:round; stroke-linejoin:round; stroke-width:2; stroke-opacity:0.1; fill:none" points="1304.7,1423.18 1304.7,47.2441 "/>
<polyline clip-path="url(#clip871)" style="stroke:#000000; stroke-linecap:round; stroke-linejoin:round; stroke-width:2; stroke-opacity:0.1; fill:none" points="1697.56,1423.18 1697.56,47.2441 "/>
<polyline clip-path="url(#clip871)" style="stroke:#000000; stroke-linecap:round; stroke-linejoin:round; stroke-width:2; stroke-opacity:0.1; fill:none" points="2090.41,1423.18 2090.41,47.2441 "/>
<polyline clip-path="url(#clip871)" style="stroke:#000000; stroke-linecap:round; stroke-linejoin:round; stroke-width:2; stroke-opacity:0.1; fill:none" points="332.62,1295.13 2352.76,1295.13 "/>
<polyline clip-path="url(#clip871)" style="stroke:#000000; stroke-linecap:round; stroke-linejoin:round; stroke-width:2; stroke-opacity:0.1; fill:none" points="332.62,1041.27 2352.76,1041.27 "/>
<polyline clip-path="url(#clip871)" style="stroke:#000000; stroke-linecap:round; stroke-linejoin:round; stroke-width:2; stroke-opacity:0.1; fill:none" points="332.62,787.412 2352.76,787.412 "/>
<polyline clip-path="url(#clip871)" style="stroke:#000000; stroke-linecap:round; stroke-linejoin:round; stroke-width:2; stroke-opacity:0.1; fill:none" points="332.62,533.553 2352.76,533.553 "/>
<polyline clip-path="url(#clip871)" style="stroke:#000000; stroke-linecap:round; stroke-linejoin:round; stroke-width:2; stroke-opacity:0.1; fill:none" points="332.62,279.695 2352.76,279.695 "/>
<polyline clip-path="url(#clip870)" style="stroke:#000000; stroke-linecap:round; stroke-linejoin:round; stroke-width:4; stroke-opacity:1; fill:none" points="332.62,1423.18 2352.76,1423.18 "/>
<polyline clip-path="url(#clip870)" style="stroke:#000000; stroke-linecap:round; stroke-linejoin:round; stroke-width:4; stroke-opacity:1; fill:none" points="518.995,1423.18 518.995,1404.28 "/>
<polyline clip-path="url(#clip870)" style="stroke:#000000; stroke-linecap:round; stroke-linejoin:round; stroke-width:4; stroke-opacity:1; fill:none" points="911.85,1423.18 911.85,1404.28 "/>
<polyline clip-path="url(#clip870)" style="stroke:#000000; stroke-linecap:round; stroke-linejoin:round; stroke-width:4; stroke-opacity:1; fill:none" points="1304.7,1423.18 1304.7,1404.28 "/>
<polyline clip-path="url(#clip870)" style="stroke:#000000; stroke-linecap:round; stroke-linejoin:round; stroke-width:4; stroke-opacity:1; fill:none" points="1697.56,1423.18 1697.56,1404.28 "/>
<polyline clip-path="url(#clip870)" style="stroke:#000000; stroke-linecap:round; stroke-linejoin:round; stroke-width:4; stroke-opacity:1; fill:none" points="2090.41,1423.18 2090.41,1404.28 "/>
<path clip-path="url(#clip870)" d="M509.273 1451.02 L527.629 1451.02 L527.629 1454.96 L513.555 1454.96 L513.555 1463.43 Q514.573 1463.08 515.592 1462.92 Q516.61 1462.73 517.629 1462.73 Q523.416 1462.73 526.796 1465.9 Q530.175 1469.08 530.175 1474.49 Q530.175 1480.07 526.703 1483.17 Q523.231 1486.25 516.911 1486.25 Q514.735 1486.25 512.467 1485.88 Q510.222 1485.51 507.814 1484.77 L507.814 1480.07 Q509.898 1481.2 512.12 1481.76 Q514.342 1482.32 516.819 1482.32 Q520.823 1482.32 523.161 1480.21 Q525.499 1478.1 525.499 1474.49 Q525.499 1470.88 523.161 1468.77 Q520.823 1466.67 516.819 1466.67 Q514.944 1466.67 513.069 1467.08 Q511.217 1467.5 509.273 1468.38 L509.273 1451.02 Z" fill="#000000" fill-rule="nonzero" fill-opacity="1" /><path clip-path="url(#clip870)" d="M886.537 1481.64 L894.176 1481.64 L894.176 1455.28 L885.866 1456.95 L885.866 1452.69 L894.13 1451.02 L898.806 1451.02 L898.806 1481.64 L906.445 1481.64 L906.445 1485.58 L886.537 1485.58 L886.537 1481.64 Z" fill="#000000" fill-rule="nonzero" fill-opacity="1" /><path clip-path="url(#clip870)" d="M925.889 1454.1 Q922.278 1454.1 920.449 1457.66 Q918.644 1461.2 918.644 1468.33 Q918.644 1475.44 920.449 1479.01 Q922.278 1482.55 925.889 1482.55 Q929.523 1482.55 931.329 1479.01 Q933.157 1475.44 933.157 1468.33 Q933.157 1461.2 931.329 1457.66 Q929.523 1454.1 925.889 1454.1 M925.889 1450.39 Q931.699 1450.39 934.755 1455 Q937.833 1459.58 937.833 1468.33 Q937.833 1477.06 934.755 1481.67 Q931.699 1486.25 925.889 1486.25 Q920.079 1486.25 917 1481.67 Q913.945 1477.06 913.945 1468.33 Q913.945 1459.58 917 1455 Q920.079 1450.39 925.889 1450.39 Z" fill="#000000" fill-rule="nonzero" fill-opacity="1" /><path clip-path="url(#clip870)" d="M1279.89 1481.64 L1287.53 1481.64 L1287.53 1455.28 L1279.22 1456.95 L1279.22 1452.69 L1287.48 1451.02 L1292.16 1451.02 L1292.16 1481.64 L1299.8 1481.64 L1299.8 1485.58 L1279.89 1485.58 L1279.89 1481.64 Z" fill="#000000" fill-rule="nonzero" fill-opacity="1" /><path clip-path="url(#clip870)" d="M1309.29 1451.02 L1327.64 1451.02 L1327.64 1454.96 L1313.57 1454.96 L1313.57 1463.43 Q1314.59 1463.08 1315.61 1462.92 Q1316.63 1462.73 1317.64 1462.73 Q1323.43 1462.73 1326.81 1465.9 Q1330.19 1469.08 1330.19 1474.49 Q1330.19 1480.07 1326.72 1483.17 Q1323.25 1486.25 1316.93 1486.25 Q1314.75 1486.25 1312.48 1485.88 Q1310.24 1485.51 1307.83 1484.77 L1307.83 1480.07 Q1309.91 1481.2 1312.14 1481.76 Q1314.36 1482.32 1316.83 1482.32 Q1320.84 1482.32 1323.18 1480.21 Q1325.51 1478.1 1325.51 1474.49 Q1325.51 1470.88 1323.18 1468.77 Q1320.84 1466.67 1316.83 1466.67 Q1314.96 1466.67 1313.08 1467.08 Q1311.23 1467.5 1309.29 1468.38 L1309.29 1451.02 Z" fill="#000000" fill-rule="nonzero" fill-opacity="1" /><path clip-path="url(#clip870)" d="M1676.33 1481.64 L1692.65 1481.64 L1692.65 1485.58 L1670.71 1485.58 L1670.71 1481.64 Q1673.37 1478.89 1677.95 1474.26 Q1682.56 1469.61 1683.74 1468.27 Q1685.99 1465.74 1686.87 1464.01 Q1687.77 1462.25 1687.77 1460.56 Q1687.77 1457.8 1685.82 1456.07 Q1683.9 1454.33 1680.8 1454.33 Q1678.6 1454.33 1676.15 1455.09 Q1673.72 1455.86 1670.94 1457.41 L1670.94 1452.69 Q1673.76 1451.55 1676.22 1450.97 Q1678.67 1450.39 1680.71 1450.39 Q1686.08 1450.39 1689.27 1453.08 Q1692.47 1455.77 1692.47 1460.26 Q1692.47 1462.39 1691.66 1464.31 Q1690.87 1466.2 1688.76 1468.8 Q1688.18 1469.47 1685.08 1472.69 Q1681.98 1475.88 1676.33 1481.64 Z" fill="#000000" fill-rule="nonzero" fill-opacity="1" /><path clip-path="url(#clip870)" d="M1712.47 1454.1 Q1708.86 1454.1 1707.03 1457.66 Q1705.22 1461.2 1705.22 1468.33 Q1705.22 1475.44 1707.03 1479.01 Q1708.86 1482.55 1712.47 1482.55 Q1716.1 1482.55 1717.91 1479.01 Q1719.74 1475.44 1719.74 1468.33 Q1719.74 1461.2 1717.91 1457.66 Q1716.1 1454.1 1712.47 1454.1 M1712.47 1450.39 Q1718.28 1450.39 1721.33 1455 Q1724.41 1459.58 1724.41 1468.33 Q1724.41 1477.06 1721.33 1481.67 Q1718.28 1486.25 1712.47 1486.25 Q1706.66 1486.25 1703.58 1481.67 Q1700.52 1477.06 1700.52 1468.33 Q1700.52 1459.58 1703.58 1455 Q1706.66 1450.39 1712.47 1450.39 Z" fill="#000000" fill-rule="nonzero" fill-opacity="1" /><path clip-path="url(#clip870)" d="M2069.69 1481.64 L2086 1481.64 L2086 1485.58 L2064.06 1485.58 L2064.06 1481.64 Q2066.72 1478.89 2071.31 1474.26 Q2075.91 1469.61 2077.09 1468.27 Q2079.34 1465.74 2080.22 1464.01 Q2081.12 1462.25 2081.12 1460.56 Q2081.12 1457.8 2079.18 1456.07 Q2077.26 1454.33 2074.15 1454.33 Q2071.95 1454.33 2069.5 1455.09 Q2067.07 1455.86 2064.29 1457.41 L2064.29 1452.69 Q2067.12 1451.55 2069.57 1450.97 Q2072.02 1450.39 2074.06 1450.39 Q2079.43 1450.39 2082.63 1453.08 Q2085.82 1455.77 2085.82 1460.26 Q2085.82 1462.39 2085.01 1464.31 Q2084.22 1466.2 2082.12 1468.8 Q2081.54 1469.47 2078.44 1472.69 Q2075.33 1475.88 2069.69 1481.64 Z" fill="#000000" fill-rule="nonzero" fill-opacity="1" /><path clip-path="url(#clip870)" d="M2095.87 1451.02 L2114.22 1451.02 L2114.22 1454.96 L2100.15 1454.96 L2100.15 1463.43 Q2101.17 1463.08 2102.19 1462.92 Q2103.2 1462.73 2104.22 1462.73 Q2110.01 1462.73 2113.39 1465.9 Q2116.77 1469.08 2116.77 1474.49 Q2116.77 1480.07 2113.3 1483.17 Q2109.82 1486.25 2103.5 1486.25 Q2101.33 1486.25 2099.06 1485.88 Q2096.82 1485.51 2094.41 1484.77 L2094.41 1480.07 Q2096.49 1481.2 2098.71 1481.76 Q2100.94 1482.32 2103.41 1482.32 Q2107.42 1482.32 2109.75 1480.21 Q2112.09 1478.1 2112.09 1474.49 Q2112.09 1470.88 2109.75 1468.77 Q2107.42 1466.67 2103.41 1466.67 Q2101.54 1466.67 2099.66 1467.08 Q2097.81 1467.5 2095.87 1468.38 L2095.87 1451.02 Z" fill="#000000" fill-rule="nonzero" fill-opacity="1" /><path clip-path="url(#clip870)" d="M1013.77 1520.52 L1020.27 1520.52 L1030.26 1560.69 L1040.22 1520.52 L1047.45 1520.52 L1057.44 1560.69 L1067.4 1520.52 L1073.93 1520.52 L1061.99 1568.04 L1053.91 1568.04 L1043.88 1526.79 L1033.76 1568.04 L1025.68 1568.04 L1013.77 1520.52 Z" fill="#000000" fill-rule="nonzero" fill-opacity="1" /><path clip-path="url(#clip870)" d="M1094.23 1550.12 Q1087.14 1550.12 1084.4 1551.75 Q1081.66 1553.37 1081.66 1557.29 Q1081.66 1560.4 1083.7 1562.25 Q1085.77 1564.07 1089.3 1564.07 Q1094.17 1564.07 1097.1 1560.63 Q1100.06 1557.16 1100.06 1551.43 L1100.06 1550.12 L1094.23 1550.12 M1105.92 1547.71 L1105.92 1568.04 L1100.06 1568.04 L1100.06 1562.63 Q1098.05 1565.88 1095.06 1567.44 Q1092.07 1568.97 1087.74 1568.97 Q1082.27 1568.97 1079.02 1565.91 Q1075.81 1562.82 1075.81 1557.67 Q1075.81 1551.65 1079.82 1548.6 Q1083.86 1545.54 1091.85 1545.54 L1100.06 1545.54 L1100.06 1544.97 Q1100.06 1540.93 1097.39 1538.73 Q1094.74 1536.5 1089.94 1536.5 Q1086.88 1536.5 1083.99 1537.23 Q1081.09 1537.97 1078.42 1539.43 L1078.42 1534.02 Q1081.63 1532.78 1084.65 1532.17 Q1087.68 1531.54 1090.54 1531.54 Q1098.28 1531.54 1102.1 1535.55 Q1105.92 1539.56 1105.92 1547.71 Z" fill="#000000" fill-rule="nonzero" fill-opacity="1" /><path clip-path="url(#clip870)" d="M1117.98 1518.52 L1123.84 1518.52 L1123.84 1568.04 L1117.98 1568.04 L1117.98 1518.52 Z" fill="#000000" fill-rule="nonzero" fill-opacity="1" /><path clip-path="url(#clip870)" d="M1136.09 1518.52 L1141.95 1518.52 L1141.95 1568.04 L1136.09 1568.04 L1136.09 1518.52 Z" fill="#000000" fill-rule="nonzero" fill-opacity="1" /><path clip-path="url(#clip870)" d="M1179.85 1533.76 L1179.85 1539.24 Q1177.37 1537.87 1174.86 1537.2 Q1172.37 1536.5 1169.83 1536.5 Q1164.13 1536.5 1160.98 1540.13 Q1157.83 1543.73 1157.83 1550.25 Q1157.83 1556.78 1160.98 1560.4 Q1164.13 1564 1169.83 1564 Q1172.37 1564 1174.86 1563.33 Q1177.37 1562.63 1179.85 1561.26 L1179.85 1566.68 Q1177.4 1567.82 1174.76 1568.39 Q1172.15 1568.97 1169.19 1568.97 Q1161.14 1568.97 1156.4 1563.91 Q1151.65 1558.85 1151.65 1550.25 Q1151.65 1541.53 1156.43 1536.53 Q1161.23 1531.54 1169.57 1531.54 Q1172.28 1531.54 1174.86 1532.11 Q1177.43 1532.65 1179.85 1533.76 Z" fill="#000000" fill-rule="nonzero" fill-opacity="1" /><path clip-path="url(#clip870)" d="M1190.04 1518.52 L1195.89 1518.52 L1195.89 1568.04 L1190.04 1568.04 L1190.04 1518.52 Z" fill="#000000" fill-rule="nonzero" fill-opacity="1" /><path clip-path="url(#clip870)" d="M1221.96 1536.5 Q1217.25 1536.5 1214.51 1540.19 Q1211.78 1543.85 1211.78 1550.25 Q1211.78 1556.65 1214.48 1560.34 Q1217.22 1564 1221.96 1564 Q1226.64 1564 1229.38 1560.31 Q1232.12 1556.62 1232.12 1550.25 Q1232.12 1543.92 1229.38 1540.23 Q1226.64 1536.5 1221.96 1536.5 M1221.96 1531.54 Q1229.6 1531.54 1233.96 1536.5 Q1238.32 1541.47 1238.32 1550.25 Q1238.32 1559 1233.96 1564 Q1229.6 1568.97 1221.96 1568.97 Q1214.29 1568.97 1209.93 1564 Q1205.6 1559 1205.6 1550.25 Q1205.6 1541.47 1209.93 1536.5 Q1214.29 1531.54 1221.96 1531.54 Z" fill="#000000" fill-rule="nonzero" fill-opacity="1" /><path clip-path="url(#clip870)" d="M1273.68 1533.76 L1273.68 1539.24 Q1271.2 1537.87 1268.69 1537.2 Q1266.2 1536.5 1263.66 1536.5 Q1257.96 1536.5 1254.81 1540.13 Q1251.66 1543.73 1251.66 1550.25 Q1251.66 1556.78 1254.81 1560.4 Q1257.96 1564 1263.66 1564 Q1266.2 1564 1268.69 1563.33 Q1271.2 1562.63 1273.68 1561.26 L1273.68 1566.68 Q1271.23 1567.82 1268.59 1568.39 Q1265.98 1568.97 1263.02 1568.97 Q1254.97 1568.97 1250.23 1563.91 Q1245.48 1558.85 1245.48 1550.25 Q1245.48 1541.53 1250.26 1536.53 Q1255.06 1531.54 1263.4 1531.54 Q1266.11 1531.54 1268.69 1532.11 Q1271.26 1532.65 1273.68 1533.76 Z" fill="#000000" fill-rule="nonzero" fill-opacity="1" /><path clip-path="url(#clip870)" d="M1283.65 1518.52 L1289.53 1518.52 L1289.53 1547.77 L1307.01 1532.4 L1314.49 1532.4 L1295.58 1549.07 L1315.28 1568.04 L1307.64 1568.04 L1289.53 1550.63 L1289.53 1568.04 L1283.65 1568.04 L1283.65 1518.52 Z" fill="#000000" fill-rule="nonzero" fill-opacity="1" /><path clip-path="url(#clip870)" d="M1336 1520.52 L1376.2 1520.52 L1376.2 1525.93 L1359.33 1525.93 L1359.33 1568.04 L1352.87 1568.04 L1352.87 1525.93 L1336 1525.93 L1336 1520.52 Z" fill="#000000" fill-rule="nonzero" fill-opacity="1" /><path clip-path="url(#clip870)" d="M1380.15 1532.4 L1386.01 1532.4 L1386.01 1568.04 L1380.15 1568.04 L1380.15 1532.4 M1380.15 1518.52 L1386.01 1518.52 L1386.01 1525.93 L1380.15 1525.93 L1380.15 1518.52 Z" fill="#000000" fill-rule="nonzero" fill-opacity="1" /><path clip-path="url(#clip870)" d="M1426.02 1539.24 Q1428.21 1535.29 1431.27 1533.41 Q1434.32 1531.54 1438.46 1531.54 Q1444.03 1531.54 1447.05 1535.45 Q1450.08 1539.33 1450.08 1546.53 L1450.08 1568.04 L1444.19 1568.04 L1444.19 1546.72 Q1444.19 1541.59 1442.38 1539.11 Q1440.56 1536.63 1436.84 1536.63 Q1432.29 1536.63 1429.64 1539.65 Q1427 1542.68 1427 1547.9 L1427 1568.04 L1421.11 1568.04 L1421.11 1546.72 Q1421.11 1541.56 1419.3 1539.11 Q1417.49 1536.63 1413.7 1536.63 Q1409.21 1536.63 1406.57 1539.68 Q1403.93 1542.71 1403.93 1547.9 L1403.93 1568.04 L1398.04 1568.04 L1398.04 1532.4 L1403.93 1532.4 L1403.93 1537.93 Q1405.93 1534.66 1408.73 1533.1 Q1411.53 1531.54 1415.38 1531.54 Q1419.27 1531.54 1421.97 1533.51 Q1424.71 1535.48 1426.02 1539.24 Z" fill="#000000" fill-rule="nonzero" fill-opacity="1" /><path clip-path="url(#clip870)" d="M1492.25 1548.76 L1492.25 1551.62 L1465.32 1551.62 Q1465.71 1557.67 1468.95 1560.85 Q1472.23 1564 1478.05 1564 Q1481.43 1564 1484.58 1563.17 Q1487.76 1562.35 1490.88 1560.69 L1490.88 1566.23 Q1487.73 1567.57 1484.42 1568.27 Q1481.11 1568.97 1477.7 1568.97 Q1469.17 1568.97 1464.18 1564 Q1459.21 1559.04 1459.21 1550.57 Q1459.21 1541.82 1463.92 1536.69 Q1468.67 1531.54 1476.69 1531.54 Q1483.88 1531.54 1488.05 1536.18 Q1492.25 1540.8 1492.25 1548.76 M1486.39 1547.04 Q1486.33 1542.23 1483.69 1539.37 Q1481.08 1536.5 1476.75 1536.5 Q1471.85 1536.5 1468.89 1539.27 Q1465.96 1542.04 1465.51 1547.07 L1486.39 1547.04 Z" fill="#000000" fill-rule="nonzero" fill-opacity="1" /><path clip-path="url(#clip870)" d="M1536.65 1518.58 Q1532.39 1525.9 1530.32 1533.06 Q1528.25 1540.23 1528.25 1547.58 Q1528.25 1554.93 1530.32 1562.16 Q1532.42 1569.35 1536.65 1576.64 L1531.56 1576.64 Q1526.78 1569.16 1524.4 1561.93 Q1522.04 1554.71 1522.04 1547.58 Q1522.04 1540.48 1524.4 1533.29 Q1526.75 1526.09 1531.56 1518.58 L1536.65 1518.58 Z" fill="#000000" fill-rule="nonzero" fill-opacity="1" /><path clip-path="url(#clip870)" d="M1570.74 1533.45 L1570.74 1538.98 Q1568.26 1537.71 1565.58 1537.07 Q1562.91 1536.44 1560.05 1536.44 Q1555.68 1536.44 1553.49 1537.77 Q1551.32 1539.11 1551.32 1541.79 Q1551.32 1543.82 1552.88 1545 Q1554.44 1546.15 1559.15 1547.2 L1561.16 1547.64 Q1567.4 1548.98 1570.01 1551.43 Q1572.65 1553.85 1572.65 1558.21 Q1572.65 1563.17 1568.7 1566.07 Q1564.79 1568.97 1557.91 1568.97 Q1555.05 1568.97 1551.93 1568.39 Q1548.84 1567.85 1545.4 1566.74 L1545.4 1560.69 Q1548.65 1562.38 1551.8 1563.24 Q1554.95 1564.07 1558.04 1564.07 Q1562.18 1564.07 1564.41 1562.66 Q1566.63 1561.23 1566.63 1558.65 Q1566.63 1556.27 1565.01 1554.99 Q1563.42 1553.72 1557.98 1552.54 L1555.94 1552.07 Q1550.5 1550.92 1548.08 1548.56 Q1545.66 1546.18 1545.66 1542.04 Q1545.66 1537.01 1549.22 1534.27 Q1552.79 1531.54 1559.34 1531.54 Q1562.59 1531.54 1565.46 1532.01 Q1568.32 1532.49 1570.74 1533.45 Z" fill="#000000" fill-rule="nonzero" fill-opacity="1" /><path clip-path="url(#clip870)" d="M1612.47 1548.76 L1612.47 1551.62 L1585.54 1551.62 Q1585.92 1557.67 1589.17 1560.85 Q1592.45 1564 1598.27 1564 Q1601.65 1564 1604.8 1563.17 Q1607.98 1562.35 1611.1 1560.69 L1611.1 1566.23 Q1607.95 1567.57 1604.64 1568.27 Q1601.33 1568.97 1597.92 1568.97 Q1589.39 1568.97 1584.39 1564 Q1579.43 1559.04 1579.43 1550.57 Q1579.43 1541.82 1584.14 1536.69 Q1588.88 1531.54 1596.9 1531.54 Q1604.1 1531.54 1608.27 1536.18 Q1612.47 1540.8 1612.47 1548.76 M1606.61 1547.04 Q1606.55 1542.23 1603.9 1539.37 Q1601.29 1536.5 1596.97 1536.5 Q1592.06 1536.5 1589.1 1539.27 Q1586.18 1542.04 1585.73 1547.07 L1606.61 1547.04 Z" fill="#000000" fill-rule="nonzero" fill-opacity="1" /><path clip-path="url(#clip870)" d="M1647.73 1533.76 L1647.73 1539.24 Q1645.25 1537.87 1642.74 1537.2 Q1640.25 1536.5 1637.71 1536.5 Q1632.01 1536.5 1628.86 1540.13 Q1625.71 1543.73 1625.71 1550.25 Q1625.71 1556.78 1628.86 1560.4 Q1632.01 1564 1637.71 1564 Q1640.25 1564 1642.74 1563.33 Q1645.25 1562.63 1647.73 1561.26 L1647.73 1566.68 Q1645.28 1567.82 1642.64 1568.39 Q1640.03 1568.97 1637.07 1568.97 Q1629.02 1568.97 1624.28 1563.91 Q1619.53 1558.85 1619.53 1550.25 Q1619.53 1541.53 1624.31 1536.53 Q1629.11 1531.54 1637.45 1531.54 Q1640.16 1531.54 1642.74 1532.11 Q1645.31 1532.65 1647.73 1533.76 Z" fill="#000000" fill-rule="nonzero" fill-opacity="1" /><path clip-path="url(#clip870)" d="M1656.99 1518.58 L1662.09 1518.58 Q1666.86 1526.09 1669.22 1533.29 Q1671.6 1540.48 1671.6 1547.58 Q1671.6 1554.71 1669.22 1561.93 Q1666.86 1569.16 1662.09 1576.64 L1656.99 1576.64 Q1661.23 1569.35 1663.3 1562.16 Q1665.4 1554.93 1665.4 1547.58 Q1665.4 1540.23 1663.3 1533.06 Q1661.23 1525.9 1656.99 1518.58 Z" fill="#000000" fill-rule="nonzero" fill-opacity="1" /><polyline clip-path="url(#clip870)" style="stroke:#000000; stroke-linecap:round; stroke-linejoin:round; stroke-width:4; stroke-opacity:1; fill:none" points="332.62,1423.18 332.62,47.2441 "/>
<polyline clip-path="url(#clip870)" style="stroke:#000000; stroke-linecap:round; stroke-linejoin:round; stroke-width:4; stroke-opacity:1; fill:none" points="332.62,1295.13 351.518,1295.13 "/>
<polyline clip-path="url(#clip870)" style="stroke:#000000; stroke-linecap:round; stroke-linejoin:round; stroke-width:4; stroke-opacity:1; fill:none" points="332.62,1041.27 351.518,1041.27 "/>
<polyline clip-path="url(#clip870)" style="stroke:#000000; stroke-linecap:round; stroke-linejoin:round; stroke-width:4; stroke-opacity:1; fill:none" points="332.62,787.412 351.518,787.412 "/>
<polyline clip-path="url(#clip870)" style="stroke:#000000; stroke-linecap:round; stroke-linejoin:round; stroke-width:4; stroke-opacity:1; fill:none" points="332.62,533.553 351.518,533.553 "/>
<polyline clip-path="url(#clip870)" style="stroke:#000000; stroke-linecap:round; stroke-linejoin:round; stroke-width:4; stroke-opacity:1; fill:none" points="332.62,279.695 351.518,279.695 "/>
<path clip-path="url(#clip870)" d="M114.26 1295.58 L143.936 1295.58 L143.936 1299.51 L114.26 1299.51 L114.26 1295.58 Z" fill="#000000" fill-rule="nonzero" fill-opacity="1" /><path clip-path="url(#clip870)" d="M154.839 1308.47 L162.477 1308.47 L162.477 1282.11 L154.167 1283.77 L154.167 1279.51 L162.431 1277.85 L167.107 1277.85 L167.107 1308.47 L174.746 1308.47 L174.746 1312.41 L154.839 1312.41 L154.839 1308.47 Z" fill="#000000" fill-rule="nonzero" fill-opacity="1" /><path clip-path="url(#clip870)" d="M183.01 1277.85 L205.232 1277.85 L205.232 1279.84 L192.686 1312.41 L187.801 1312.41 L199.607 1281.78 L183.01 1281.78 L183.01 1277.85 Z" fill="#000000" fill-rule="nonzero" fill-opacity="1" /><path clip-path="url(#clip870)" d="M214.399 1277.85 L232.755 1277.85 L232.755 1281.78 L218.681 1281.78 L218.681 1290.26 Q219.699 1289.91 220.718 1289.75 Q221.736 1289.56 222.755 1289.56 Q228.542 1289.56 231.922 1292.73 Q235.301 1295.9 235.301 1301.32 Q235.301 1306.9 231.829 1310 Q228.357 1313.08 222.037 1313.08 Q219.861 1313.08 217.593 1312.71 Q215.348 1312.34 212.94 1311.6 L212.94 1306.9 Q215.024 1308.03 217.246 1308.59 Q219.468 1309.14 221.945 1309.14 Q225.949 1309.14 228.287 1307.04 Q230.625 1304.93 230.625 1301.32 Q230.625 1297.71 228.287 1295.6 Q225.949 1293.5 221.945 1293.5 Q220.07 1293.5 218.195 1293.91 Q216.343 1294.33 214.399 1295.21 L214.399 1277.85 Z" fill="#000000" fill-rule="nonzero" fill-opacity="1" /><path clip-path="url(#clip870)" d="M254.514 1280.93 Q250.903 1280.93 249.074 1284.49 Q247.269 1288.03 247.269 1295.16 Q247.269 1302.27 249.074 1305.83 Q250.903 1309.38 254.514 1309.38 Q258.148 1309.38 259.954 1305.83 Q261.783 1302.27 261.783 1295.16 Q261.783 1288.03 259.954 1284.49 Q258.148 1280.93 254.514 1280.93 M254.514 1277.22 Q260.324 1277.22 263.38 1281.83 Q266.458 1286.41 266.458 1295.16 Q266.458 1303.89 263.38 1308.5 Q260.324 1313.08 254.514 1313.08 Q248.704 1313.08 245.625 1308.5 Q242.57 1303.89 242.57 1295.16 Q242.57 1286.41 245.625 1281.83 Q248.704 1277.22 254.514 1277.22 Z" fill="#000000" fill-rule="nonzero" fill-opacity="1" /><path clip-path="url(#clip870)" d="M284.676 1280.93 Q281.065 1280.93 279.236 1284.49 Q277.431 1288.03 277.431 1295.16 Q277.431 1302.27 279.236 1305.83 Q281.065 1309.38 284.676 1309.38 Q288.31 1309.38 290.116 1305.83 Q291.944 1302.27 291.944 1295.16 Q291.944 1288.03 290.116 1284.49 Q288.31 1280.93 284.676 1280.93 M284.676 1277.22 Q290.486 1277.22 293.542 1281.83 Q296.62 1286.41 296.62 1295.16 Q296.62 1303.89 293.542 1308.5 Q290.486 1313.08 284.676 1313.08 Q278.866 1313.08 275.787 1308.5 Q272.732 1303.89 272.732 1295.16 Q272.732 1286.41 275.787 1281.83 Q278.866 1277.22 284.676 1277.22 Z" fill="#000000" fill-rule="nonzero" fill-opacity="1" /><path clip-path="url(#clip870)" d="M114.26 1041.72 L143.936 1041.72 L143.936 1045.66 L114.26 1045.66 L114.26 1041.72 Z" fill="#000000" fill-rule="nonzero" fill-opacity="1" /><path clip-path="url(#clip870)" d="M154.839 1054.61 L162.477 1054.61 L162.477 1028.25 L154.167 1029.92 L154.167 1025.66 L162.431 1023.99 L167.107 1023.99 L167.107 1054.61 L174.746 1054.61 L174.746 1058.55 L154.839 1058.55 L154.839 1054.61 Z" fill="#000000" fill-rule="nonzero" fill-opacity="1" /><path clip-path="url(#clip870)" d="M184.237 1023.99 L202.593 1023.99 L202.593 1027.92 L188.519 1027.92 L188.519 1036.4 Q189.538 1036.05 190.556 1035.89 Q191.575 1035.7 192.593 1035.7 Q198.38 1035.7 201.76 1038.87 Q205.139 1042.05 205.139 1047.46 Q205.139 1053.04 201.667 1056.14 Q198.195 1059.22 191.875 1059.22 Q189.7 1059.22 187.431 1058.85 Q185.186 1058.48 182.778 1057.74 L182.778 1053.04 Q184.862 1054.17 187.084 1054.73 Q189.306 1055.29 191.783 1055.29 Q195.787 1055.29 198.125 1053.18 Q200.463 1051.07 200.463 1047.46 Q200.463 1043.85 198.125 1041.74 Q195.787 1039.64 191.783 1039.64 Q189.908 1039.64 188.033 1040.05 Q186.181 1040.47 184.237 1041.35 L184.237 1023.99 Z" fill="#000000" fill-rule="nonzero" fill-opacity="1" /><path clip-path="url(#clip870)" d="M224.352 1027.07 Q220.741 1027.07 218.912 1030.63 Q217.107 1034.17 217.107 1041.3 Q217.107 1048.41 218.912 1051.98 Q220.741 1055.52 224.352 1055.52 Q227.986 1055.52 229.792 1051.98 Q231.621 1048.41 231.621 1041.3 Q231.621 1034.17 229.792 1030.63 Q227.986 1027.07 224.352 1027.07 M224.352 1023.36 Q230.162 1023.36 233.218 1027.97 Q236.297 1032.55 236.297 1041.3 Q236.297 1050.03 233.218 1054.64 Q230.162 1059.22 224.352 1059.22 Q218.542 1059.22 215.463 1054.64 Q212.408 1050.03 212.408 1041.3 Q212.408 1032.55 215.463 1027.97 Q218.542 1023.36 224.352 1023.36 Z" fill="#000000" fill-rule="nonzero" fill-opacity="1" /><path clip-path="url(#clip870)" d="M254.514 1027.07 Q250.903 1027.07 249.074 1030.63 Q247.269 1034.17 247.269 1041.3 Q247.269 1048.41 249.074 1051.98 Q250.903 1055.52 254.514 1055.52 Q258.148 1055.52 259.954 1051.98 Q261.783 1048.41 261.783 1041.3 Q261.783 1034.17 259.954 1030.63 Q258.148 1027.07 254.514 1027.07 M254.514 1023.36 Q260.324 1023.36 263.38 1027.97 Q266.458 1032.55 266.458 1041.3 Q266.458 1050.03 263.38 1054.64 Q260.324 1059.22 254.514 1059.22 Q248.704 1059.22 245.625 1054.64 Q242.57 1050.03 242.57 1041.3 Q242.57 1032.55 245.625 1027.97 Q248.704 1023.36 254.514 1023.36 Z" fill="#000000" fill-rule="nonzero" fill-opacity="1" /><path clip-path="url(#clip870)" d="M284.676 1027.07 Q281.065 1027.07 279.236 1030.63 Q277.431 1034.17 277.431 1041.3 Q277.431 1048.41 279.236 1051.98 Q281.065 1055.52 284.676 1055.52 Q288.31 1055.52 290.116 1051.98 Q291.944 1048.41 291.944 1041.3 Q291.944 1034.17 290.116 1030.63 Q288.31 1027.07 284.676 1027.07 M284.676 1023.36 Q290.486 1023.36 293.542 1027.97 Q296.62 1032.55 296.62 1041.3 Q296.62 1050.03 293.542 1054.64 Q290.486 1059.22 284.676 1059.22 Q278.866 1059.22 275.787 1054.64 Q272.732 1050.03 272.732 1041.3 Q272.732 1032.55 275.787 1027.97 Q278.866 1023.36 284.676 1023.36 Z" fill="#000000" fill-rule="nonzero" fill-opacity="1" /><path clip-path="url(#clip870)" d="M114.26 787.863 L143.936 787.863 L143.936 791.798 L114.26 791.798 L114.26 787.863 Z" fill="#000000" fill-rule="nonzero" fill-opacity="1" /><path clip-path="url(#clip870)" d="M154.839 800.756 L162.477 800.756 L162.477 774.391 L154.167 776.057 L154.167 771.798 L162.431 770.132 L167.107 770.132 L167.107 800.756 L174.746 800.756 L174.746 804.692 L154.839 804.692 L154.839 800.756 Z" fill="#000000" fill-rule="nonzero" fill-opacity="1" /><path clip-path="url(#clip870)" d="M188.218 800.756 L204.537 800.756 L204.537 804.692 L182.593 804.692 L182.593 800.756 Q185.255 798.002 189.838 793.372 Q194.445 788.719 195.625 787.377 Q197.871 784.854 198.75 783.118 Q199.653 781.358 199.653 779.669 Q199.653 776.914 197.709 775.178 Q195.787 773.442 192.686 773.442 Q190.487 773.442 188.033 774.206 Q185.602 774.969 182.825 776.52 L182.825 771.798 Q185.649 770.664 188.102 770.085 Q190.556 769.507 192.593 769.507 Q197.963 769.507 201.158 772.192 Q204.352 774.877 204.352 779.368 Q204.352 781.497 203.542 783.419 Q202.755 785.317 200.649 787.909 Q200.07 788.581 196.968 791.798 Q193.866 794.993 188.218 800.756 Z" fill="#000000" fill-rule="nonzero" fill-opacity="1" /><path clip-path="url(#clip870)" d="M214.399 770.132 L232.755 770.132 L232.755 774.067 L218.681 774.067 L218.681 782.539 Q219.699 782.192 220.718 782.03 Q221.736 781.844 222.755 781.844 Q228.542 781.844 231.922 785.016 Q235.301 788.187 235.301 793.604 Q235.301 799.182 231.829 802.284 Q228.357 805.363 222.037 805.363 Q219.861 805.363 217.593 804.992 Q215.348 804.622 212.94 803.881 L212.94 799.182 Q215.024 800.317 217.246 800.872 Q219.468 801.428 221.945 801.428 Q225.949 801.428 228.287 799.321 Q230.625 797.215 230.625 793.604 Q230.625 789.993 228.287 787.886 Q225.949 785.78 221.945 785.78 Q220.07 785.78 218.195 786.196 Q216.343 786.613 214.399 787.493 L214.399 770.132 Z" fill="#000000" fill-rule="nonzero" fill-opacity="1" /><path clip-path="url(#clip870)" d="M254.514 773.21 Q250.903 773.21 249.074 776.775 Q247.269 780.317 247.269 787.446 Q247.269 794.553 249.074 798.118 Q250.903 801.659 254.514 801.659 Q258.148 801.659 259.954 798.118 Q261.783 794.553 261.783 787.446 Q261.783 780.317 259.954 776.775 Q258.148 773.21 254.514 773.21 M254.514 769.507 Q260.324 769.507 263.38 774.113 Q266.458 778.696 266.458 787.446 Q266.458 796.173 263.38 800.78 Q260.324 805.363 254.514 805.363 Q248.704 805.363 245.625 800.78 Q242.57 796.173 242.57 787.446 Q242.57 778.696 245.625 774.113 Q248.704 769.507 254.514 769.507 Z" fill="#000000" fill-rule="nonzero" fill-opacity="1" /><path clip-path="url(#clip870)" d="M284.676 773.21 Q281.065 773.21 279.236 776.775 Q277.431 780.317 277.431 787.446 Q277.431 794.553 279.236 798.118 Q281.065 801.659 284.676 801.659 Q288.31 801.659 290.116 798.118 Q291.944 794.553 291.944 787.446 Q291.944 780.317 290.116 776.775 Q288.31 773.21 284.676 773.21 M284.676 769.507 Q290.486 769.507 293.542 774.113 Q296.62 778.696 296.62 787.446 Q296.62 796.173 293.542 800.78 Q290.486 805.363 284.676 805.363 Q278.866 805.363 275.787 800.78 Q272.732 796.173 272.732 787.446 Q272.732 778.696 275.787 774.113 Q278.866 769.507 284.676 769.507 Z" fill="#000000" fill-rule="nonzero" fill-opacity="1" /><path clip-path="url(#clip870)" d="M114.26 534.005 L143.936 534.005 L143.936 537.94 L114.26 537.94 L114.26 534.005 Z" fill="#000000" fill-rule="nonzero" fill-opacity="1" /><path clip-path="url(#clip870)" d="M154.839 546.898 L162.477 546.898 L162.477 520.533 L154.167 522.199 L154.167 517.94 L162.431 516.273 L167.107 516.273 L167.107 546.898 L174.746 546.898 L174.746 550.833 L154.839 550.833 L154.839 546.898 Z" fill="#000000" fill-rule="nonzero" fill-opacity="1" /><path clip-path="url(#clip870)" d="M194.19 519.352 Q190.579 519.352 188.75 522.917 Q186.945 526.459 186.945 533.588 Q186.945 540.695 188.75 544.259 Q190.579 547.801 194.19 547.801 Q197.825 547.801 199.63 544.259 Q201.459 540.695 201.459 533.588 Q201.459 526.459 199.63 522.917 Q197.825 519.352 194.19 519.352 M194.19 515.648 Q200 515.648 203.056 520.255 Q206.135 524.838 206.135 533.588 Q206.135 542.315 203.056 546.921 Q200 551.505 194.19 551.505 Q188.38 551.505 185.301 546.921 Q182.246 542.315 182.246 533.588 Q182.246 524.838 185.301 520.255 Q188.38 515.648 194.19 515.648 Z" fill="#000000" fill-rule="nonzero" fill-opacity="1" /><path clip-path="url(#clip870)" d="M224.352 519.352 Q220.741 519.352 218.912 522.917 Q217.107 526.459 217.107 533.588 Q217.107 540.695 218.912 544.259 Q220.741 547.801 224.352 547.801 Q227.986 547.801 229.792 544.259 Q231.621 540.695 231.621 533.588 Q231.621 526.459 229.792 522.917 Q227.986 519.352 224.352 519.352 M224.352 515.648 Q230.162 515.648 233.218 520.255 Q236.297 524.838 236.297 533.588 Q236.297 542.315 233.218 546.921 Q230.162 551.505 224.352 551.505 Q218.542 551.505 215.463 546.921 Q212.408 542.315 212.408 533.588 Q212.408 524.838 215.463 520.255 Q218.542 515.648 224.352 515.648 Z" fill="#000000" fill-rule="nonzero" fill-opacity="1" /><path clip-path="url(#clip870)" d="M254.514 519.352 Q250.903 519.352 249.074 522.917 Q247.269 526.459 247.269 533.588 Q247.269 540.695 249.074 544.259 Q250.903 547.801 254.514 547.801 Q258.148 547.801 259.954 544.259 Q261.783 540.695 261.783 533.588 Q261.783 526.459 259.954 522.917 Q258.148 519.352 254.514 519.352 M254.514 515.648 Q260.324 515.648 263.38 520.255 Q266.458 524.838 266.458 533.588 Q266.458 542.315 263.38 546.921 Q260.324 551.505 254.514 551.505 Q248.704 551.505 245.625 546.921 Q242.57 542.315 242.57 533.588 Q242.57 524.838 245.625 520.255 Q248.704 515.648 254.514 515.648 Z" fill="#000000" fill-rule="nonzero" fill-opacity="1" /><path clip-path="url(#clip870)" d="M284.676 519.352 Q281.065 519.352 279.236 522.917 Q277.431 526.459 277.431 533.588 Q277.431 540.695 279.236 544.259 Q281.065 547.801 284.676 547.801 Q288.31 547.801 290.116 544.259 Q291.944 540.695 291.944 533.588 Q291.944 526.459 290.116 522.917 Q288.31 519.352 284.676 519.352 M284.676 515.648 Q290.486 515.648 293.542 520.255 Q296.62 524.838 296.62 533.588 Q296.62 542.315 293.542 546.921 Q290.486 551.505 284.676 551.505 Q278.866 551.505 275.787 546.921 Q272.732 542.315 272.732 533.588 Q272.732 524.838 275.787 520.255 Q278.866 515.648 284.676 515.648 Z" fill="#000000" fill-rule="nonzero" fill-opacity="1" /><path clip-path="url(#clip870)" d="M144.422 280.147 L174.098 280.147 L174.098 284.082 L144.422 284.082 L144.422 280.147 Z" fill="#000000" fill-rule="nonzero" fill-opacity="1" /><path clip-path="url(#clip870)" d="M183.01 262.415 L205.232 262.415 L205.232 264.406 L192.686 296.975 L187.801 296.975 L199.607 266.351 L183.01 266.351 L183.01 262.415 Z" fill="#000000" fill-rule="nonzero" fill-opacity="1" /><path clip-path="url(#clip870)" d="M214.399 262.415 L232.755 262.415 L232.755 266.351 L218.681 266.351 L218.681 274.823 Q219.699 274.475 220.718 274.313 Q221.736 274.128 222.755 274.128 Q228.542 274.128 231.922 277.3 Q235.301 280.471 235.301 285.887 Q235.301 291.466 231.829 294.568 Q228.357 297.647 222.037 297.647 Q219.861 297.647 217.593 297.276 Q215.348 296.906 212.94 296.165 L212.94 291.466 Q215.024 292.6 217.246 293.156 Q219.468 293.711 221.945 293.711 Q225.949 293.711 228.287 291.605 Q230.625 289.499 230.625 285.887 Q230.625 282.276 228.287 280.17 Q225.949 278.063 221.945 278.063 Q220.07 278.063 218.195 278.48 Q216.343 278.897 214.399 279.776 L214.399 262.415 Z" fill="#000000" fill-rule="nonzero" fill-opacity="1" /><path clip-path="url(#clip870)" d="M254.514 265.494 Q250.903 265.494 249.074 269.059 Q247.269 272.6 247.269 279.73 Q247.269 286.837 249.074 290.401 Q250.903 293.943 254.514 293.943 Q258.148 293.943 259.954 290.401 Q261.783 286.837 261.783 279.73 Q261.783 272.6 259.954 269.059 Q258.148 265.494 254.514 265.494 M254.514 261.79 Q260.324 261.79 263.38 266.397 Q266.458 270.98 266.458 279.73 Q266.458 288.457 263.38 293.063 Q260.324 297.647 254.514 297.647 Q248.704 297.647 245.625 293.063 Q242.57 288.457 242.57 279.73 Q242.57 270.98 245.625 266.397 Q248.704 261.79 254.514 261.79 Z" fill="#000000" fill-rule="nonzero" fill-opacity="1" /><path clip-path="url(#clip870)" d="M284.676 265.494 Q281.065 265.494 279.236 269.059 Q277.431 272.6 277.431 279.73 Q277.431 286.837 279.236 290.401 Q281.065 293.943 284.676 293.943 Q288.31 293.943 290.116 290.401 Q291.944 286.837 291.944 279.73 Q291.944 272.6 290.116 269.059 Q288.31 265.494 284.676 265.494 M284.676 261.79 Q290.486 261.79 293.542 266.397 Q296.62 270.98 296.62 279.73 Q296.62 288.457 293.542 293.063 Q290.486 297.647 284.676 297.647 Q278.866 297.647 275.787 293.063 Q272.732 288.457 272.732 279.73 Q272.732 270.98 275.787 266.397 Q278.866 261.79 284.676 261.79 Z" fill="#000000" fill-rule="nonzero" fill-opacity="1" /><path clip-path="url(#clip870)" d="M16.4842 816.375 L16.4842 786.329 L21.895 786.329 L21.895 809.945 L35.9632 809.945 L35.9632 787.315 L41.3741 787.315 L41.3741 809.945 L58.5933 809.945 L58.5933 785.756 L64.0042 785.756 L64.0042 816.375 L16.4842 816.375 Z" fill="#000000" fill-rule="nonzero" fill-opacity="1" /><path clip-path="url(#clip870)" d="M16.4842 775.189 L16.4842 768.759 L58.5933 768.759 L58.5933 745.62 L64.0042 745.62 L64.0042 775.189 L16.4842 775.189 Z" fill="#000000" fill-rule="nonzero" fill-opacity="1" /><path clip-path="url(#clip870)" d="M41.3104 732.443 L58.7206 732.443 L58.7206 722.13 Q58.7206 716.942 56.5881 714.46 Q54.4238 711.945 49.9996 711.945 Q45.5436 711.945 43.4429 714.46 Q41.3104 716.942 41.3104 722.13 L41.3104 732.443 M21.7677 732.443 L36.0905 732.443 L36.0905 722.926 Q36.0905 718.216 34.34 715.924 Q32.5576 713.6 28.9291 713.6 Q25.3325 713.6 23.5501 715.924 Q21.7677 718.216 21.7677 722.926 L21.7677 732.443 M16.4842 738.872 L16.4842 722.449 Q16.4842 715.096 19.5397 711.118 Q22.5952 707.139 28.2289 707.139 Q32.5894 707.139 35.1675 709.176 Q37.7456 711.213 38.3822 715.16 Q39.4007 710.418 42.6472 707.808 Q45.8619 705.166 50.6998 705.166 Q57.0655 705.166 60.5348 709.495 Q64.0042 713.823 64.0042 721.812 L64.0042 738.872 L16.4842 738.872 Z" fill="#000000" fill-rule="nonzero" fill-opacity="1" /><path clip-path="url(#clip870)" d="M20.8447 676.011 Q20.8447 683.013 26.0645 687.151 Q31.2844 691.257 40.2919 691.257 Q49.2675 691.257 54.4874 687.151 Q59.7073 683.013 59.7073 676.011 Q59.7073 669.009 54.4874 664.935 Q49.2675 660.829 40.2919 660.829 Q31.2844 660.829 26.0645 664.935 Q20.8447 669.009 20.8447 676.011 M15.6248 676.011 Q15.6248 666.017 22.3406 660.033 Q29.0246 654.049 40.2919 654.049 Q51.5274 654.049 58.2432 660.033 Q64.9272 666.017 64.9272 676.011 Q64.9272 686.037 58.2432 692.052 Q51.5592 698.036 40.2919 698.036 Q29.0246 698.036 22.3406 692.052 Q15.6248 686.037 15.6248 676.011 Z" fill="#000000" fill-rule="nonzero" fill-opacity="1" /><polyline clip-path="url(#clip871)" style="stroke:#009af9; stroke-linecap:round; stroke-linejoin:round; stroke-width:4; stroke-opacity:1; fill:none" points="1096.4,1384.24 1147.87,725.236 1189.3,385.892 1226.95,298.129 1266.23,232.605 1304.74,212.829 1343.74,192.759 1381.77,193.786 1418.83,179.111 1456.54,183.416 1493.34,178.042 1530.74,172.844 1569.54,162.805 1609.12,156.003 1647.69,151.335 1687.04,147.062 1726.25,142.2 1766.14,137.674 1806.35,135.333 1845.5,130.861 1884.11,128.857 1920.95,125.084 1957.78,119.657 1994.67,113.592 2032.27,111.836 2070.75,107.635 2107.51,105.565 2145.35,97.7944 2183.06,92.3684 2221.75,93.5139 2259.42,86.9157 2295.58,86.1857 "/>
<polyline clip-path="url(#clip871)" style="stroke:#e26f46; stroke-linecap:round; stroke-linejoin:round; stroke-width:4; stroke-opacity:1; fill:none" points="389.794,1371.86 418.596,830.478 433.288,447.739 444.637,282.372 451.972,252.16 460.098,235.466 467.402,224.717 475.868,204.55 485.197,200.315 493.369,192.464 501.653,189.863 509.677,178.123 518.238,176.771 526.547,169.965 534.79,162.319 542.745,159.053 551.156,159.282 559.395,152.736 567.521,153.089 575.422,152.786 584.071,145.289 592.286,140.925 600.441,134.88 608.391,132.285 617.157,129.973 625.529,126.475 633.656,124.201 641.584,115.146 650.095,115.96 658.336,111.829 666.482,104.338 674.176,103.655 "/>
<path clip-path="url(#clip870)" d="M1784.1 1377.32 L2285.42 1377.32 L2285.42 1221.8 L1784.1 1221.8  Z" fill="#ffffff" fill-rule="evenodd" fill-opacity="1"/>
<polyline clip-path="url(#clip870)" style="stroke:#000000; stroke-linecap:round; stroke-linejoin:round; stroke-width:4; stroke-opacity:1; fill:none" points="1784.1,1377.32 2285.42,1377.32 2285.42,1221.8 1784.1,1221.8 1784.1,1377.32 "/>
<polyline clip-path="url(#clip870)" style="stroke:#009af9; stroke-linecap:round; stroke-linejoin:round; stroke-width:4; stroke-opacity:1; fill:none" points="1806.55,1273.64 1941.22,1273.64 "/>
<path clip-path="url(#clip870)" d="M1963.67 1256.36 L1983.53 1256.36 L1983.53 1260.29 L1968.34 1260.29 L1968.34 1270.48 L1982.05 1270.48 L1982.05 1274.41 L1968.34 1274.41 L1968.34 1290.92 L1963.67 1290.92 L1963.67 1256.36 Z" fill="#000000" fill-rule="nonzero" fill-opacity="1" /><path clip-path="url(#clip870)" d="M1987.72 1280.68 L1987.72 1264.99 L1991.98 1264.99 L1991.98 1280.52 Q1991.98 1284.2 1993.41 1286.05 Q1994.85 1287.88 1997.72 1287.88 Q2001.17 1287.88 2003.16 1285.68 Q2005.17 1283.48 2005.17 1279.69 L2005.17 1264.99 L2009.43 1264.99 L2009.43 1290.92 L2005.17 1290.92 L2005.17 1286.93 Q2003.62 1289.29 2001.56 1290.45 Q1999.52 1291.59 1996.82 1291.59 Q1992.35 1291.59 1990.03 1288.81 Q1987.72 1286.03 1987.72 1280.68 M1998.44 1264.36 L1998.44 1264.36 Z" fill="#000000" fill-rule="nonzero" fill-opacity="1" /><path clip-path="url(#clip870)" d="M2018.2 1254.9 L2022.46 1254.9 L2022.46 1290.92 L2018.2 1290.92 L2018.2 1254.9 Z" fill="#000000" fill-rule="nonzero" fill-opacity="1" /><path clip-path="url(#clip870)" d="M2031.38 1254.9 L2035.64 1254.9 L2035.64 1290.92 L2031.38 1290.92 L2031.38 1254.9 Z" fill="#000000" fill-rule="nonzero" fill-opacity="1" /><path clip-path="url(#clip870)" d="M2064.48 1274.41 L2064.48 1287.07 L2071.98 1287.07 Q2075.75 1287.07 2077.56 1285.52 Q2079.39 1283.95 2079.39 1280.73 Q2079.39 1277.49 2077.56 1275.96 Q2075.75 1274.41 2071.98 1274.41 L2064.48 1274.41 M2064.48 1260.2 L2064.48 1270.61 L2071.4 1270.61 Q2074.82 1270.61 2076.49 1269.34 Q2078.18 1268.05 2078.18 1265.41 Q2078.18 1262.79 2076.49 1261.49 Q2074.82 1260.2 2071.4 1260.2 L2064.48 1260.2 M2059.8 1256.36 L2071.75 1256.36 Q2077.09 1256.36 2079.99 1258.58 Q2082.88 1260.8 2082.88 1264.9 Q2082.88 1268.07 2081.4 1269.94 Q2079.92 1271.82 2077.05 1272.28 Q2080.5 1273.02 2082.39 1275.38 Q2084.32 1277.72 2084.32 1281.24 Q2084.32 1285.87 2081.17 1288.39 Q2078.02 1290.92 2072.21 1290.92 L2059.8 1290.92 L2059.8 1256.36 Z" fill="#000000" fill-rule="nonzero" fill-opacity="1" /><path clip-path="url(#clip870)" d="M2103.92 1277.88 Q2098.76 1277.88 2096.77 1279.06 Q2094.78 1280.24 2094.78 1283.09 Q2094.78 1285.36 2096.26 1286.7 Q2097.76 1288.02 2100.33 1288.02 Q2103.88 1288.02 2106.01 1285.52 Q2108.16 1283 2108.16 1278.83 L2108.16 1277.88 L2103.92 1277.88 M2112.42 1276.12 L2112.42 1290.92 L2108.16 1290.92 L2108.16 1286.98 Q2106.7 1289.34 2104.52 1290.48 Q2102.35 1291.59 2099.2 1291.59 Q2095.22 1291.59 2092.86 1289.36 Q2090.52 1287.12 2090.52 1283.37 Q2090.52 1278.99 2093.44 1276.77 Q2096.38 1274.55 2102.19 1274.55 L2108.16 1274.55 L2108.16 1274.13 Q2108.16 1271.19 2106.21 1269.6 Q2104.29 1267.98 2100.8 1267.98 Q2098.57 1267.98 2096.47 1268.51 Q2094.36 1269.04 2092.42 1270.11 L2092.42 1266.17 Q2094.76 1265.27 2096.95 1264.83 Q2099.15 1264.36 2101.24 1264.36 Q2106.86 1264.36 2109.64 1267.28 Q2112.42 1270.2 2112.42 1276.12 Z" fill="#000000" fill-rule="nonzero" fill-opacity="1" /><path clip-path="url(#clip870)" d="M2125.4 1257.63 L2125.4 1264.99 L2134.18 1264.99 L2134.18 1268.3 L2125.4 1268.3 L2125.4 1282.37 Q2125.4 1285.54 2126.26 1286.45 Q2127.14 1287.35 2129.8 1287.35 L2134.18 1287.35 L2134.18 1290.92 L2129.8 1290.92 Q2124.87 1290.92 2123 1289.09 Q2121.12 1287.23 2121.12 1282.37 L2121.12 1268.3 L2118 1268.3 L2118 1264.99 L2121.12 1264.99 L2121.12 1257.63 L2125.4 1257.63 Z" fill="#000000" fill-rule="nonzero" fill-opacity="1" /><path clip-path="url(#clip870)" d="M2158.44 1265.98 L2158.44 1269.97 Q2156.63 1268.97 2154.8 1268.48 Q2153 1267.98 2151.14 1267.98 Q2147 1267.98 2144.71 1270.61 Q2142.42 1273.23 2142.42 1277.98 Q2142.42 1282.72 2144.71 1285.36 Q2147 1287.98 2151.14 1287.98 Q2153 1287.98 2154.8 1287.49 Q2156.63 1286.98 2158.44 1285.98 L2158.44 1289.92 Q2156.65 1290.75 2154.73 1291.17 Q2152.83 1291.59 2150.68 1291.59 Q2144.82 1291.59 2141.38 1287.91 Q2137.93 1284.23 2137.93 1277.98 Q2137.93 1271.63 2141.4 1268 Q2144.89 1264.36 2150.96 1264.36 Q2152.93 1264.36 2154.8 1264.78 Q2156.68 1265.17 2158.44 1265.98 Z" fill="#000000" fill-rule="nonzero" fill-opacity="1" /><path clip-path="url(#clip870)" d="M2187.39 1275.27 L2187.39 1290.92 L2183.13 1290.92 L2183.13 1275.41 Q2183.13 1271.73 2181.7 1269.9 Q2180.26 1268.07 2177.39 1268.07 Q2173.94 1268.07 2171.95 1270.27 Q2169.96 1272.47 2169.96 1276.26 L2169.96 1290.92 L2165.68 1290.92 L2165.68 1254.9 L2169.96 1254.9 L2169.96 1269.02 Q2171.49 1266.68 2173.55 1265.52 Q2175.63 1264.36 2178.34 1264.36 Q2182.81 1264.36 2185.1 1267.14 Q2187.39 1269.9 2187.39 1275.27 Z" fill="#000000" fill-rule="nonzero" fill-opacity="1" /><polyline clip-path="url(#clip870)" style="stroke:#e26f46; stroke-linecap:round; stroke-linejoin:round; stroke-width:4; stroke-opacity:1; fill:none" points="1806.55,1325.48 1941.22,1325.48 "/>
<path clip-path="url(#clip870)" d="M1985.91 1309.33 L1985.91 1313.89 Q1983.25 1312.62 1980.89 1311.99 Q1978.53 1311.37 1976.33 1311.37 Q1972.51 1311.37 1970.43 1312.85 Q1968.37 1314.33 1968.37 1317.06 Q1968.37 1319.35 1969.73 1320.53 Q1971.12 1321.69 1974.96 1322.41 L1977.79 1322.99 Q1983.02 1323.98 1985.5 1326.51 Q1988 1329.01 1988 1333.22 Q1988 1338.24 1984.62 1340.83 Q1981.26 1343.43 1974.76 1343.43 Q1972.3 1343.43 1969.52 1342.87 Q1966.77 1342.32 1963.81 1341.23 L1963.81 1336.41 Q1966.65 1338.01 1969.39 1338.82 Q1972.12 1339.63 1974.76 1339.63 Q1978.76 1339.63 1980.94 1338.06 Q1983.11 1336.48 1983.11 1333.57 Q1983.11 1331.02 1981.54 1329.58 Q1979.99 1328.15 1976.42 1327.43 L1973.58 1326.88 Q1968.34 1325.83 1966.01 1323.61 Q1963.67 1321.39 1963.67 1317.43 Q1963.67 1312.85 1966.89 1310.21 Q1970.13 1307.57 1975.8 1307.57 Q1978.23 1307.57 1980.75 1308.01 Q1983.27 1308.45 1985.91 1309.33 Z" fill="#000000" fill-rule="nonzero" fill-opacity="1" /><path clip-path="url(#clip870)" d="M1994.66 1332.52 L1994.66 1316.83 L1998.92 1316.83 L1998.92 1332.36 Q1998.92 1336.04 2000.36 1337.89 Q2001.79 1339.72 2004.66 1339.72 Q2008.11 1339.72 2010.1 1337.52 Q2012.12 1335.32 2012.12 1331.53 L2012.12 1316.83 L2016.38 1316.83 L2016.38 1342.76 L2012.12 1342.76 L2012.12 1338.77 Q2010.57 1341.13 2008.51 1342.29 Q2006.47 1343.43 2003.76 1343.43 Q1999.29 1343.43 1996.98 1340.65 Q1994.66 1337.87 1994.66 1332.52 M2005.38 1316.2 L2005.38 1316.2 Z" fill="#000000" fill-rule="nonzero" fill-opacity="1" /><path clip-path="url(#clip870)" d="M2043.76 1329.82 Q2043.76 1325.12 2041.82 1322.45 Q2039.89 1319.77 2036.51 1319.77 Q2033.14 1319.77 2031.19 1322.45 Q2029.27 1325.12 2029.27 1329.82 Q2029.27 1334.51 2031.19 1337.2 Q2033.14 1339.86 2036.51 1339.86 Q2039.89 1339.86 2041.82 1337.2 Q2043.76 1334.51 2043.76 1329.82 M2029.27 1320.76 Q2030.61 1318.45 2032.65 1317.34 Q2034.71 1316.2 2037.56 1316.2 Q2042.28 1316.2 2045.22 1319.95 Q2048.18 1323.7 2048.18 1329.82 Q2048.18 1335.93 2045.22 1339.68 Q2042.28 1343.43 2037.56 1343.43 Q2034.71 1343.43 2032.65 1342.32 Q2030.61 1341.18 2029.27 1338.87 L2029.27 1342.76 L2024.99 1342.76 L2024.99 1306.74 L2029.27 1306.74 L2029.27 1320.76 Z" fill="#000000" fill-rule="nonzero" fill-opacity="1" /><path clip-path="url(#clip870)" d="M2071.77 1317.59 L2071.77 1321.62 Q2069.96 1320.7 2068.02 1320.23 Q2066.08 1319.77 2063.99 1319.77 Q2060.82 1319.77 2059.22 1320.74 Q2057.65 1321.71 2057.65 1323.66 Q2057.65 1325.14 2058.78 1326 Q2059.92 1326.83 2063.34 1327.59 L2064.8 1327.92 Q2069.34 1328.89 2071.24 1330.67 Q2073.16 1332.43 2073.16 1335.6 Q2073.16 1339.21 2070.29 1341.32 Q2067.44 1343.43 2062.44 1343.43 Q2060.36 1343.43 2058.09 1343.01 Q2055.84 1342.62 2053.34 1341.81 L2053.34 1337.41 Q2055.7 1338.63 2058 1339.26 Q2060.29 1339.86 2062.53 1339.86 Q2065.54 1339.86 2067.16 1338.84 Q2068.78 1337.8 2068.78 1335.93 Q2068.78 1334.19 2067.6 1333.26 Q2066.45 1332.34 2062.49 1331.48 L2061.01 1331.14 Q2057.05 1330.3 2055.29 1328.59 Q2053.53 1326.85 2053.53 1323.84 Q2053.53 1320.19 2056.12 1318.2 Q2058.71 1316.2 2063.48 1316.2 Q2065.84 1316.2 2067.93 1316.55 Q2070.01 1316.9 2071.77 1317.59 Z" fill="#000000" fill-rule="nonzero" fill-opacity="1" /><path clip-path="url(#clip870)" d="M2091.72 1329.72 Q2086.56 1329.72 2084.57 1330.9 Q2082.58 1332.08 2082.58 1334.93 Q2082.58 1337.2 2084.06 1338.54 Q2085.57 1339.86 2088.14 1339.86 Q2091.68 1339.86 2093.81 1337.36 Q2095.96 1334.84 2095.96 1330.67 L2095.96 1329.72 L2091.72 1329.72 M2100.22 1327.96 L2100.22 1342.76 L2095.96 1342.76 L2095.96 1338.82 Q2094.5 1341.18 2092.32 1342.32 Q2090.15 1343.43 2087 1343.43 Q2083.02 1343.43 2080.66 1341.2 Q2078.32 1338.96 2078.32 1335.21 Q2078.32 1330.83 2081.24 1328.61 Q2084.18 1326.39 2089.99 1326.39 L2095.96 1326.39 L2095.96 1325.97 Q2095.96 1323.03 2094.01 1321.44 Q2092.09 1319.82 2088.6 1319.82 Q2086.38 1319.82 2084.27 1320.35 Q2082.16 1320.88 2080.22 1321.95 L2080.22 1318.01 Q2082.56 1317.11 2084.76 1316.67 Q2086.95 1316.2 2089.04 1316.2 Q2094.66 1316.2 2097.44 1319.12 Q2100.22 1322.04 2100.22 1327.96 Z" fill="#000000" fill-rule="nonzero" fill-opacity="1" /><path clip-path="url(#clip870)" d="M2129.18 1321.81 Q2130.77 1318.94 2133 1317.57 Q2135.22 1316.2 2138.23 1316.2 Q2142.28 1316.2 2144.48 1319.05 Q2146.68 1321.88 2146.68 1327.11 L2146.68 1342.76 L2142.39 1342.76 L2142.39 1327.25 Q2142.39 1323.52 2141.07 1321.71 Q2139.76 1319.91 2137.05 1319.91 Q2133.74 1319.91 2131.82 1322.11 Q2129.89 1324.31 2129.89 1328.1 L2129.89 1342.76 L2125.61 1342.76 L2125.61 1327.25 Q2125.61 1323.5 2124.29 1321.71 Q2122.97 1319.91 2120.22 1319.91 Q2116.95 1319.91 2115.03 1322.13 Q2113.11 1324.33 2113.11 1328.1 L2113.11 1342.76 L2108.83 1342.76 L2108.83 1316.83 L2113.11 1316.83 L2113.11 1320.86 Q2114.57 1318.47 2116.61 1317.34 Q2118.64 1316.2 2121.45 1316.2 Q2124.27 1316.2 2126.24 1317.64 Q2128.23 1319.07 2129.18 1321.81 Z" fill="#000000" fill-rule="nonzero" fill-opacity="1" /><path clip-path="url(#clip870)" d="M2159.29 1338.87 L2159.29 1352.62 L2155.01 1352.62 L2155.01 1316.83 L2159.29 1316.83 L2159.29 1320.76 Q2160.63 1318.45 2162.67 1317.34 Q2164.73 1316.2 2167.58 1316.2 Q2172.3 1316.2 2175.24 1319.95 Q2178.2 1323.7 2178.2 1329.82 Q2178.2 1335.93 2175.24 1339.68 Q2172.3 1343.43 2167.58 1343.43 Q2164.73 1343.43 2162.67 1342.32 Q2160.63 1341.18 2159.29 1338.87 M2173.78 1329.82 Q2173.78 1325.12 2171.84 1322.45 Q2169.92 1319.77 2166.54 1319.77 Q2163.16 1319.77 2161.21 1322.45 Q2159.29 1325.12 2159.29 1329.82 Q2159.29 1334.51 2161.21 1337.2 Q2163.16 1339.86 2166.54 1339.86 Q2169.92 1339.86 2171.84 1337.2 Q2173.78 1334.51 2173.78 1329.82 Z" fill="#000000" fill-rule="nonzero" fill-opacity="1" /><path clip-path="url(#clip870)" d="M2185.26 1306.74 L2189.52 1306.74 L2189.52 1342.76 L2185.26 1342.76 L2185.26 1306.74 Z" fill="#000000" fill-rule="nonzero" fill-opacity="1" /><path clip-path="url(#clip870)" d="M2198.44 1316.83 L2202.69 1316.83 L2202.69 1342.76 L2198.44 1342.76 L2198.44 1316.83 M2198.44 1306.74 L2202.69 1306.74 L2202.69 1312.13 L2198.44 1312.13 L2198.44 1306.74 Z" fill="#000000" fill-rule="nonzero" fill-opacity="1" /><path clip-path="url(#clip870)" d="M2233.16 1327.11 L2233.16 1342.76 L2228.9 1342.76 L2228.9 1327.25 Q2228.9 1323.57 2227.46 1321.74 Q2226.03 1319.91 2223.16 1319.91 Q2219.71 1319.91 2217.72 1322.11 Q2215.73 1324.31 2215.73 1328.1 L2215.73 1342.76 L2211.44 1342.76 L2211.44 1316.83 L2215.73 1316.83 L2215.73 1320.86 Q2217.25 1318.52 2219.31 1317.36 Q2221.4 1316.2 2224.11 1316.2 Q2228.57 1316.2 2230.87 1318.98 Q2233.16 1321.74 2233.16 1327.11 Z" fill="#000000" fill-rule="nonzero" fill-opacity="1" /><path clip-path="url(#clip870)" d="M2258.71 1329.49 Q2258.71 1324.86 2256.79 1322.32 Q2254.89 1319.77 2251.44 1319.77 Q2248.02 1319.77 2246.1 1322.32 Q2244.2 1324.86 2244.2 1329.49 Q2244.2 1334.1 2246.1 1336.64 Q2248.02 1339.19 2251.44 1339.19 Q2254.89 1339.19 2256.79 1336.64 Q2258.71 1334.1 2258.71 1329.49 M2262.97 1339.54 Q2262.97 1346.16 2260.03 1349.38 Q2257.09 1352.62 2251.03 1352.62 Q2248.78 1352.62 2246.79 1352.27 Q2244.8 1351.95 2242.93 1351.25 L2242.93 1347.11 Q2244.8 1348.13 2246.63 1348.61 Q2248.46 1349.1 2250.36 1349.1 Q2254.55 1349.1 2256.63 1346.9 Q2258.71 1344.72 2258.71 1340.3 L2258.71 1338.2 Q2257.39 1340.49 2255.33 1341.62 Q2253.27 1342.76 2250.4 1342.76 Q2245.63 1342.76 2242.72 1339.12 Q2239.8 1335.49 2239.8 1329.49 Q2239.8 1323.47 2242.72 1319.84 Q2245.63 1316.2 2250.4 1316.2 Q2253.27 1316.2 2255.33 1317.34 Q2257.39 1318.47 2258.71 1320.76 L2258.71 1316.83 L2262.97 1316.83 L2262.97 1339.54 Z" fill="#000000" fill-rule="nonzero" fill-opacity="1" /></svg>
