<?xml version="1.0" encoding="utf-8"?>
<svg xmlns="http://www.w3.org/2000/svg" xmlns:xlink="http://www.w3.org/1999/xlink" width="600" height="400" viewBox="0 0 2400 1600">
<defs>
  <clipPath id="clip280">
    <rect x="0" y="0" width="2400" height="1600"/>
  </clipPath>
</defs>
<path clip-path="url(#clip280)" d="M0 1600 L2400 1600 L2400 0 L0 0  Z" fill="#ffffff" fill-rule="evenodd" fill-opacity="1"/>
<defs>
  <clipPath id="clip281">
    <rect x="332" y="47" width="2021" height="1377"/>
  </clipPath>
</defs>
<path clip-path="url(#clip280)" d="M332.62 1423.18 L2352.76 1423.18 L2352.76 47.2441 L332.62 47.2441  Z" fill="#ffffff" fill-rule="evenodd" fill-opacity="1"/>
<polyline clip-path="url(#clip281)" style="stroke:#000000; stroke-linecap:round; stroke-linejoin:round; stroke-width:2; stroke-opacity:0.1; fill:none" points="508.069,1423.18 508.069,47.2441 "/>
<polyline clip-path="url(#clip281)" style="stroke:#000000; stroke-linecap:round; stroke-linejoin:round; stroke-width:2; stroke-opacity:0.1; fill:none" points="927.263,1423.18 927.263,47.2441 "/>
<polyline clip-path="url(#clip281)" style="stroke:#000000; stroke-linecap:round; stroke-linejoin:round; stroke-width:2; stroke-opacity:0.1; fill:none" points="1346.46,1423.18 1346.46,47.2441 "/>
<polyline clip-path="url(#clip281)" style="stroke:#000000; stroke-linecap:round; stroke-linejoin:round; stroke-width:2; stroke-opacity:0.1; fill:none" points="1765.65,1423.18 1765.65,47.2441 "/>
<polyline clip-path="url(#clip281)" style="stroke:#000000; stroke-linecap:round; stroke-linejoin:round; stroke-width:2; stroke-opacity:0.1; fill:none" points="2184.85,1423.18 2184.85,47.2441 "/>
<polyline clip-path="url(#clip281)" style="stroke:#000000; stroke-linecap:round; stroke-linejoin:round; stroke-width:2; stroke-opacity:0.1; fill:none" points="332.62,1228.01 2352.76,1228.01 "/>
<polyline clip-path="url(#clip281)" style="stroke:#000000; stroke-linecap:round; stroke-linejoin:round; stroke-width:2; stroke-opacity:0.1; fill:none" points="332.62,989.042 2352.76,989.042 "/>
<polyline clip-path="url(#clip281)" style="stroke:#000000; stroke-linecap:round; stroke-linejoin:round; stroke-width:2; stroke-opacity:0.1; fill:none" points="332.62,750.074 2352.76,750.074 "/>
<polyline clip-path="url(#clip281)" style="stroke:#000000; stroke-linecap:round; stroke-linejoin:round; stroke-width:2; stroke-opacity:0.1; fill:none" points="332.62,511.105 2352.76,511.105 "/>
<polyline clip-path="url(#clip281)" style="stroke:#000000; stroke-linecap:round; stroke-linejoin:round; stroke-width:2; stroke-opacity:0.1; fill:none" points="332.62,272.136 2352.76,272.136 "/>
<polyline clip-path="url(#clip280)" style="stroke:#000000; stroke-linecap:round; stroke-linejoin:round; stroke-width:4; stroke-opacity:1; fill:none" points="332.62,1423.18 2352.76,1423.18 "/>
<polyline clip-path="url(#clip280)" style="stroke:#000000; stroke-linecap:round; stroke-linejoin:round; stroke-width:4; stroke-opacity:1; fill:none" points="508.069,1423.18 508.069,1404.28 "/>
<polyline clip-path="url(#clip280)" style="stroke:#000000; stroke-linecap:round; stroke-linejoin:round; stroke-width:4; stroke-opacity:1; fill:none" points="927.263,1423.18 927.263,1404.28 "/>
<polyline clip-path="url(#clip280)" style="stroke:#000000; stroke-linecap:round; stroke-linejoin:round; stroke-width:4; stroke-opacity:1; fill:none" points="1346.46,1423.18 1346.46,1404.28 "/>
<polyline clip-path="url(#clip280)" style="stroke:#000000; stroke-linecap:round; stroke-linejoin:round; stroke-width:4; stroke-opacity:1; fill:none" points="1765.65,1423.18 1765.65,1404.28 "/>
<polyline clip-path="url(#clip280)" style="stroke:#000000; stroke-linecap:round; stroke-linejoin:round; stroke-width:4; stroke-opacity:1; fill:none" points="2184.85,1423.18 2184.85,1404.28 "/>
<path clip-path="url(#clip280)" d="M498.347 1451.02 L516.703 1451.02 L516.703 1454.96 L502.629 1454.96 L502.629 1463.43 Q503.648 1463.08 504.666 1462.92 Q505.685 1462.73 506.703 1462.73 Q512.49 1462.73 515.87 1465.9 Q519.249 1469.08 519.249 1474.49 Q519.249 1480.07 515.777 1483.17 Q512.305 1486.25 505.985 1486.25 Q503.81 1486.25 501.541 1485.88 Q499.296 1485.51 496.888 1484.77 L496.888 1480.07 Q498.972 1481.2 501.194 1481.76 Q503.416 1482.32 505.893 1482.32 Q509.897 1482.32 512.235 1480.21 Q514.573 1478.1 514.573 1474.49 Q514.573 1470.88 512.235 1468.77 Q509.897 1466.67 505.893 1466.67 Q504.018 1466.67 502.143 1467.08 Q500.291 1467.5 498.347 1468.38 L498.347 1451.02 Z" fill="#000000" fill-rule="nonzero" fill-opacity="1" /><path clip-path="url(#clip280)" d="M901.951 1481.64 L909.59 1481.64 L909.59 1455.28 L901.279 1456.95 L901.279 1452.69 L909.543 1451.02 L914.219 1451.02 L914.219 1481.64 L921.858 1481.64 L921.858 1485.58 L901.951 1485.58 L901.951 1481.64 Z" fill="#000000" fill-rule="nonzero" fill-opacity="1" /><path clip-path="url(#clip280)" d="M941.302 1454.1 Q937.691 1454.1 935.863 1457.66 Q934.057 1461.2 934.057 1468.33 Q934.057 1475.44 935.863 1479.01 Q937.691 1482.55 941.302 1482.55 Q944.937 1482.55 946.742 1479.01 Q948.571 1475.44 948.571 1468.33 Q948.571 1461.2 946.742 1457.66 Q944.937 1454.1 941.302 1454.1 M941.302 1450.39 Q947.112 1450.39 950.168 1455 Q953.247 1459.58 953.247 1468.33 Q953.247 1477.06 950.168 1481.67 Q947.112 1486.25 941.302 1486.25 Q935.492 1486.25 932.413 1481.67 Q929.358 1477.06 929.358 1468.33 Q929.358 1459.58 932.413 1455 Q935.492 1450.39 941.302 1450.39 Z" fill="#000000" fill-rule="nonzero" fill-opacity="1" /><path clip-path="url(#clip280)" d="M1321.64 1481.64 L1329.28 1481.64 L1329.28 1455.28 L1320.97 1456.95 L1320.97 1452.69 L1329.24 1451.02 L1333.91 1451.02 L1333.91 1481.64 L1341.55 1481.64 L1341.55 1485.58 L1321.64 1485.58 L1321.64 1481.64 Z" fill="#000000" fill-rule="nonzero" fill-opacity="1" /><path clip-path="url(#clip280)" d="M1351.04 1451.02 L1369.4 1451.02 L1369.4 1454.96 L1355.32 1454.96 L1355.32 1463.43 Q1356.34 1463.08 1357.36 1462.92 Q1358.38 1462.73 1359.4 1462.73 Q1365.18 1462.73 1368.56 1465.9 Q1371.94 1469.08 1371.94 1474.49 Q1371.94 1480.07 1368.47 1483.17 Q1365 1486.25 1358.68 1486.25 Q1356.5 1486.25 1354.24 1485.88 Q1351.99 1485.51 1349.58 1484.77 L1349.58 1480.07 Q1351.67 1481.2 1353.89 1481.76 Q1356.11 1482.32 1358.59 1482.32 Q1362.59 1482.32 1364.93 1480.21 Q1367.27 1478.1 1367.27 1474.49 Q1367.27 1470.88 1364.93 1468.77 Q1362.59 1466.67 1358.59 1466.67 Q1356.71 1466.67 1354.84 1467.08 Q1352.99 1467.5 1351.04 1468.38 L1351.04 1451.02 Z" fill="#000000" fill-rule="nonzero" fill-opacity="1" /><path clip-path="url(#clip280)" d="M1744.42 1481.64 L1760.74 1481.64 L1760.74 1485.58 L1738.8 1485.58 L1738.8 1481.64 Q1741.46 1478.89 1746.05 1474.26 Q1750.65 1469.61 1751.83 1468.27 Q1754.08 1465.74 1754.96 1464.01 Q1755.86 1462.25 1755.86 1460.56 Q1755.86 1457.8 1753.92 1456.07 Q1751.99 1454.33 1748.89 1454.33 Q1746.69 1454.33 1744.24 1455.09 Q1741.81 1455.86 1739.03 1457.41 L1739.03 1452.69 Q1741.86 1451.55 1744.31 1450.97 Q1746.76 1450.39 1748.8 1450.39 Q1754.17 1450.39 1757.36 1453.08 Q1760.56 1455.77 1760.56 1460.26 Q1760.56 1462.39 1759.75 1464.31 Q1758.96 1466.2 1756.86 1468.8 Q1756.28 1469.47 1753.17 1472.69 Q1750.07 1475.88 1744.42 1481.64 Z" fill="#000000" fill-rule="nonzero" fill-opacity="1" /><path clip-path="url(#clip280)" d="M1780.56 1454.1 Q1776.95 1454.1 1775.12 1457.66 Q1773.31 1461.2 1773.31 1468.33 Q1773.31 1475.44 1775.12 1479.01 Q1776.95 1482.55 1780.56 1482.55 Q1784.19 1482.55 1786 1479.01 Q1787.83 1475.44 1787.83 1468.33 Q1787.83 1461.2 1786 1457.66 Q1784.19 1454.1 1780.56 1454.1 M1780.56 1450.39 Q1786.37 1450.39 1789.42 1455 Q1792.5 1459.58 1792.5 1468.33 Q1792.5 1477.06 1789.42 1481.67 Q1786.37 1486.25 1780.56 1486.25 Q1774.75 1486.25 1771.67 1481.67 Q1768.61 1477.06 1768.61 1468.33 Q1768.61 1459.58 1771.67 1455 Q1774.75 1450.39 1780.56 1450.39 Z" fill="#000000" fill-rule="nonzero" fill-opacity="1" /><path clip-path="url(#clip280)" d="M2164.12 1481.64 L2180.44 1481.64 L2180.44 1485.58 L2158.49 1485.58 L2158.49 1481.64 Q2161.15 1478.89 2165.74 1474.26 Q2170.34 1469.61 2171.52 1468.27 Q2173.77 1465.74 2174.65 1464.01 Q2175.55 1462.25 2175.55 1460.56 Q2175.55 1457.8 2173.61 1456.07 Q2171.69 1454.33 2168.58 1454.33 Q2166.39 1454.33 2163.93 1455.09 Q2161.5 1455.86 2158.72 1457.41 L2158.72 1452.69 Q2161.55 1451.55 2164 1450.97 Q2166.45 1450.39 2168.49 1450.39 Q2173.86 1450.39 2177.06 1453.08 Q2180.25 1455.77 2180.25 1460.26 Q2180.25 1462.39 2179.44 1464.31 Q2178.65 1466.2 2176.55 1468.8 Q2175.97 1469.47 2172.87 1472.69 Q2169.76 1475.88 2164.12 1481.64 Z" fill="#000000" fill-rule="nonzero" fill-opacity="1" /><path clip-path="url(#clip280)" d="M2190.3 1451.02 L2208.65 1451.02 L2208.65 1454.96 L2194.58 1454.96 L2194.58 1463.43 Q2195.6 1463.08 2196.62 1462.92 Q2197.64 1462.73 2198.65 1462.73 Q2204.44 1462.73 2207.82 1465.9 Q2211.2 1469.08 2211.2 1474.49 Q2211.2 1480.07 2207.73 1483.17 Q2204.26 1486.25 2197.94 1486.25 Q2195.76 1486.25 2193.49 1485.88 Q2191.25 1485.51 2188.84 1484.77 L2188.84 1480.07 Q2190.92 1481.2 2193.14 1481.76 Q2195.37 1482.32 2197.84 1482.32 Q2201.85 1482.32 2204.19 1480.21 Q2206.52 1478.1 2206.52 1474.49 Q2206.52 1470.88 2204.19 1468.77 Q2201.85 1466.67 2197.84 1466.67 Q2195.97 1466.67 2194.09 1467.08 Q2192.24 1467.5 2190.3 1468.38 L2190.3 1451.02 Z" fill="#000000" fill-rule="nonzero" fill-opacity="1" /><path clip-path="url(#clip280)" d="M1013.77 1520.52 L1020.27 1520.52 L1030.26 1560.69 L1040.22 1520.52 L1047.45 1520.52 L1057.44 1560.69 L1067.4 1520.52 L1073.93 1520.52 L1061.99 1568.04 L1053.91 1568.04 L1043.88 1526.79 L1033.76 1568.04 L1025.68 1568.04 L1013.77 1520.52 Z" fill="#000000" fill-rule="nonzero" fill-opacity="1" /><path clip-path="url(#clip280)" d="M1094.23 1550.12 Q1087.14 1550.12 1084.4 1551.75 Q1081.66 1553.37 1081.66 1557.29 Q1081.66 1560.4 1083.7 1562.25 Q1085.77 1564.07 1089.3 1564.07 Q1094.17 1564.07 1097.1 1560.63 Q1100.06 1557.16 1100.06 1551.43 L1100.06 1550.12 L1094.23 1550.12 M1105.92 1547.71 L1105.92 1568.04 L1100.06 1568.04 L1100.06 1562.63 Q1098.05 1565.88 1095.06 1567.44 Q1092.07 1568.97 1087.74 1568.97 Q1082.27 1568.97 1079.02 1565.91 Q1075.81 1562.82 1075.81 1557.67 Q1075.81 1551.65 1079.82 1548.6 Q1083.86 1545.54 1091.85 1545.54 L1100.06 1545.54 L1100.06 1544.97 Q1100.06 1540.93 1097.39 1538.73 Q1094.74 1536.5 1089.94 1536.5 Q1086.88 1536.5 1083.99 1537.23 Q1081.09 1537.97 1078.42 1539.43 L1078.42 1534.02 Q1081.63 1532.78 1084.65 1532.17 Q1087.68 1531.54 1090.54 1531.54 Q1098.28 1531.54 1102.1 1535.55 Q1105.92 1539.56 1105.92 1547.71 Z" fill="#000000" fill-rule="nonzero" fill-opacity="1" /><path clip-path="url(#clip280)" d="M1117.98 1518.52 L1123.84 1518.52 L1123.84 1568.04 L1117.98 1568.04 L1117.98 1518.52 Z" fill="#000000" fill-rule="nonzero" fill-opacity="1" /><path clip-path="url(#clip280)" d="M1136.09 1518.52 L1141.95 1518.52 L1141.95 1568.04 L1136.09 1568.04 L1136.09 1518.52 Z" fill="#000000" fill-rule="nonzero" fill-opacity="1" /><path clip-path="url(#clip280)" d="M1179.85 1533.76 L1179.85 1539.24 Q1177.37 1537.87 1174.86 1537.2 Q1172.37 1536.5 1169.83 1536.5 Q1164.13 1536.5 1160.98 1540.13 Q1157.83 1543.73 1157.83 1550.25 Q1157.83 1556.78 1160.98 1560.4 Q1164.13 1564 1169.83 1564 Q1172.37 1564 1174.86 1563.33 Q1177.37 1562.63 1179.85 1561.26 L1179.85 1566.68 Q1177.4 1567.82 1174.76 1568.39 Q1172.15 1568.97 1169.19 1568.97 Q1161.14 1568.97 1156.4 1563.91 Q1151.65 1558.85 1151.65 1550.25 Q1151.65 1541.53 1156.43 1536.53 Q1161.23 1531.54 1169.57 1531.54 Q1172.28 1531.54 1174.86 1532.11 Q1177.43 1532.65 1179.85 1533.76 Z" fill="#000000" fill-rule="nonzero" fill-opacity="1" /><path clip-path="url(#clip280)" d="M1190.04 1518.52 L1195.89 1518.52 L1195.89 1568.04 L1190.04 1568.04 L1190.04 1518.52 Z" fill="#000000" fill-rule="nonzero" fill-opacity="1" /><path clip-path="url(#clip280)" d="M1221.96 1536.5 Q1217.25 1536.5 1214.51 1540.19 Q1211.78 1543.85 1211.78 1550.25 Q1211.78 1556.65 1214.48 1560.34 Q1217.22 1564 1221.96 1564 Q1226.64 1564 1229.38 1560.31 Q1232.12 1556.62 1232.12 1550.25 Q1232.12 1543.92 1229.38 1540.23 Q1226.64 1536.5 1221.96 1536.5 M1221.96 1531.54 Q1229.6 1531.54 1233.96 1536.5 Q1238.32 1541.47 1238.32 1550.25 Q1238.32 1559 1233.96 1564 Q1229.6 1568.97 1221.96 1568.97 Q1214.29 1568.97 1209.93 1564 Q1205.6 1559 1205.6 1550.25 Q1205.6 1541.47 1209.93 1536.5 Q1214.29 1531.54 1221.96 1531.54 Z" fill="#000000" fill-rule="nonzero" fill-opacity="1" /><path clip-path="url(#clip280)" d="M1273.68 1533.76 L1273.68 1539.24 Q1271.2 1537.87 1268.69 1537.2 Q1266.2 1536.5 1263.66 1536.5 Q1257.96 1536.5 1254.81 1540.13 Q1251.66 1543.73 1251.66 1550.25 Q1251.66 1556.78 1254.81 1560.4 Q1257.96 1564 1263.66 1564 Q1266.2 1564 1268.69 1563.33 Q1271.2 1562.63 1273.68 1561.26 L1273.68 1566.68 Q1271.23 1567.82 1268.59 1568.39 Q1265.98 1568.97 1263.02 1568.97 Q1254.97 1568.97 1250.23 1563.91 Q1245.48 1558.85 1245.48 1550.25 Q1245.48 1541.53 1250.26 1536.53 Q1255.06 1531.54 1263.4 1531.54 Q1266.11 1531.54 1268.69 1532.11 Q1271.26 1532.65 1273.68 1533.76 Z" fill="#000000" fill-rule="nonzero" fill-opacity="1" /><path clip-path="url(#clip280)" d="M1283.65 1518.52 L1289.53 1518.52 L1289.53 1547.77 L1307.01 1532.4 L1314.49 1532.4 L1295.58 1549.07 L1315.28 1568.04 L1307.64 1568.04 L1289.53 1550.63 L1289.53 1568.04 L1283.65 1568.04 L1283.65 1518.52 Z" fill="#000000" fill-rule="nonzero" fill-opacity="1" /><path clip-path="url(#clip280)" d="M1336 1520.52 L1376.2 1520.52 L1376.2 1525.93 L1359.33 1525.93 L1359.33 1568.04 L1352.87 1568.04 L1352.87 1525.93 L1336 1525.93 L1336 1520.52 Z" fill="#000000" fill-rule="nonzero" fill-opacity="1" /><path clip-path="url(#clip280)" d="M1380.15 1532.4 L1386.01 1532.4 L1386.01 1568.04 L1380.15 1568.04 L1380.15 1532.4 M1380.15 1518.52 L1386.01 1518.52 L1386.01 1525.93 L1380.15 1525.93 L1380.15 1518.52 Z" fill="#000000" fill-rule="nonzero" fill-opacity="1" /><path clip-path="url(#clip280)" d="M1426.02 1539.24 Q1428.21 1535.29 1431.27 1533.41 Q1434.32 1531.54 1438.46 1531.54 Q1444.03 1531.54 1447.05 1535.45 Q1450.08 1539.33 1450.08 1546.53 L1450.08 1568.04 L1444.19 1568.04 L1444.19 1546.72 Q1444.19 1541.59 1442.38 1539.11 Q1440.56 1536.63 1436.84 1536.63 Q1432.29 1536.63 1429.64 1539.65 Q1427 1542.68 1427 1547.9 L1427 1568.04 L1421.11 1568.04 L1421.11 1546.72 Q1421.11 1541.56 1419.3 1539.11 Q1417.49 1536.63 1413.7 1536.63 Q1409.21 1536.63 1406.57 1539.68 Q1403.93 1542.71 1403.93 1547.9 L1403.93 1568.04 L1398.04 1568.04 L1398.04 1532.4 L1403.93 1532.4 L1403.93 1537.93 Q1405.93 1534.66 1408.73 1533.1 Q1411.53 1531.54 1415.38 1531.54 Q1419.27 1531.54 1421.97 1533.51 Q1424.71 1535.48 1426.02 1539.24 Z" fill="#000000" fill-rule="nonzero" fill-opacity="1" /><path clip-path="url(#clip280)" d="M1492.25 1548.76 L1492.25 1551.62 L1465.32 1551.62 Q1465.71 1557.67 1468.95 1560.85 Q1472.23 1564 1478.05 1564 Q1481.43 1564 1484.58 1563.17 Q1487.76 1562.35 1490.88 1560.69 L1490.88 1566.23 Q1487.73 1567.57 1484.42 1568.27 Q1481.11 1568.97 1477.7 1568.97 Q1469.17 1568.97 1464.18 1564 Q1459.21 1559.04 1459.21 1550.57 Q1459.21 1541.82 1463.92 1536.69 Q1468.67 1531.54 1476.69 1531.54 Q1483.88 1531.54 1488.05 1536.18 Q1492.25 1540.8 1492.25 1548.76 M1486.39 1547.04 Q1486.33 1542.23 1483.69 1539.37 Q1481.08 1536.5 1476.75 1536.5 Q1471.85 1536.5 1468.89 1539.27 Q1465.96 1542.04 1465.51 1547.07 L1486.39 1547.04 Z" fill="#000000" fill-rule="nonzero" fill-opacity="1" /><path clip-path="url(#clip280)" d="M1536.65 1518.58 Q1532.39 1525.9 1530.32 1533.06 Q1528.25 1540.23 1528.25 1547.58 Q1528.25 1554.93 1530.32 1562.16 Q1532.42 1569.35 1536.65 1576.64 L1531.56 1576.64 Q1526.78 1569.16 1524.4 1561.93 Q1522.04 1554.71 1522.04 1547.58 Q1522.04 1540.48 1524.4 1533.29 Q1526.75 1526.09 1531.56 1518.58 L1536.65 1518.58 Z" fill="#000000" fill-rule="nonzero" fill-opacity="1" /><path clip-path="url(#clip280)" d="M1570.74 1533.45 L1570.74 1538.98 Q1568.26 1537.71 1565.58 1537.07 Q1562.91 1536.44 1560.05 1536.44 Q1555.68 1536.44 1553.49 1537.77 Q1551.32 1539.11 1551.32 1541.79 Q1551.32 1543.82 1552.88 1545 Q1554.44 1546.15 1559.15 1547.2 L1561.16 1547.64 Q1567.4 1548.98 1570.01 1551.43 Q1572.65 1553.85 1572.65 1558.21 Q1572.65 1563.17 1568.7 1566.07 Q1564.79 1568.97 1557.91 1568.97 Q1555.05 1568.97 1551.93 1568.39 Q1548.84 1567.85 1545.4 1566.74 L1545.4 1560.69 Q1548.65 1562.38 1551.8 1563.24 Q1554.95 1564.07 1558.04 1564.07 Q1562.18 1564.07 1564.41 1562.66 Q1566.63 1561.23 1566.63 1558.65 Q1566.63 1556.27 1565.01 1554.99 Q1563.42 1553.72 1557.98 1552.54 L1555.94 1552.07 Q1550.5 1550.92 1548.08 1548.56 Q1545.66 1546.18 1545.66 1542.04 Q1545.66 1537.01 1549.22 1534.27 Q1552.79 1531.54 1559.34 1531.54 Q1562.59 1531.54 1565.46 1532.01 Q1568.32 1532.49 1570.74 1533.45 Z" fill="#000000" fill-rule="nonzero" fill-opacity="1" /><path clip-path="url(#clip280)" d="M1612.47 1548.76 L1612.47 1551.62 L1585.54 1551.62 Q1585.92 1557.67 1589.17 1560.85 Q1592.45 1564 1598.27 1564 Q1601.65 1564 1604.8 1563.17 Q1607.98 1562.35 1611.1 1560.69 L1611.1 1566.23 Q1607.95 1567.57 1604.64 1568.27 Q1601.33 1568.97 1597.92 1568.97 Q1589.39 1568.97 1584.39 1564 Q1579.43 1559.04 1579.43 1550.57 Q1579.43 1541.82 1584.14 1536.69 Q1588.88 1531.54 1596.9 1531.54 Q1604.1 1531.54 1608.27 1536.18 Q1612.47 1540.8 1612.47 1548.76 M1606.61 1547.04 Q1606.55 1542.23 1603.9 1539.37 Q1601.29 1536.5 1596.97 1536.5 Q1592.06 1536.5 1589.1 1539.27 Q1586.18 1542.04 1585.73 1547.07 L1606.61 1547.04 Z" fill="#000000" fill-rule="nonzero" fill-opacity="1" /><path clip-path="url(#clip280)" d="M1647.73 1533.76 L1647.73 1539.24 Q1645.25 1537.87 1642.74 1537.2 Q1640.25 1536.5 1637.71 1536.5 Q1632.01 1536.5 1628.86 1540.13 Q1625.71 1543.73 1625.71 1550.25 Q1625.71 1556.78 1628.86 1560.4 Q1632.01 1564 1637.71 1564 Q1640.25 1564 1642.74 1563.33 Q1645.25 1562.63 1647.73 1561.26 L1647.73 1566.68 Q1645.28 1567.82 1642.64 1568.39 Q1640.03 1568.97 1637.07 1568.97 Q1629.02 1568.97 1624.28 1563.91 Q1619.53 1558.85 1619.53 1550.25 Q1619.53 1541.53 1624.31 1536.53 Q1629.11 1531.54 1637.45 1531.54 Q1640.16 1531.54 1642.74 1532.11 Q1645.31 1532.65 1647.73 1533.76 Z" fill="#000000" fill-rule="nonzero" fill-opacity="1" /><path clip-path="url(#clip280)" d="M1656.99 1518.58 L1662.09 1518.58 Q1666.86 1526.09 1669.22 1533.29 Q1671.6 1540.48 1671.6 1547.58 Q1671.6 1554.71 1669.22 1561.93 Q1666.86 1569.16 1662.09 1576.64 L1656.99 1576.64 Q1661.23 1569.35 1663.3 1562.16 Q1665.4 1554.93 1665.4 1547.58 Q1665.4 1540.23 1663.3 1533.06 Q1661.23 1525.9 1656.99 1518.58 Z" fill="#000000" fill-rule="nonzero" fill-opacity="1" /><polyline clip-path="url(#clip280)" style="stroke:#000000; stroke-linecap:round; stroke-linejoin:round; stroke-width:4; stroke-opacity:1; fill:none" points="332.62,1423.18 332.62,47.2441 "/>
<polyline clip-path="url(#clip280)" style="stroke:#000000; stroke-linecap:round; stroke-linejoin:round; stroke-width:4; stroke-opacity:1; fill:none" points="332.62,1228.01 351.518,1228.01 "/>
<polyline clip-path="url(#clip280)" style="stroke:#000000; stroke-linecap:round; stroke-linejoin:round; stroke-width:4; stroke-opacity:1; fill:none" points="332.62,989.042 351.518,989.042 "/>
<polyline clip-path="url(#clip280)" style="stroke:#000000; stroke-linecap:round; stroke-linejoin:round; stroke-width:4; stroke-opacity:1; fill:none" points="332.62,750.074 351.518,750.074 "/>
<polyline clip-path="url(#clip280)" style="stroke:#000000; stroke-linecap:round; stroke-linejoin:round; stroke-width:4; stroke-opacity:1; fill:none" points="332.62,511.105 351.518,511.105 "/>
<polyline clip-path="url(#clip280)" style="stroke:#000000; stroke-linecap:round; stroke-linejoin:round; stroke-width:4; stroke-opacity:1; fill:none" points="332.62,272.136 351.518,272.136 "/>
<path clip-path="url(#clip280)" d="M114.26 1228.46 L143.936 1228.46 L143.936 1232.4 L114.26 1232.4 L114.26 1228.46 Z" fill="#000000" fill-rule="nonzero" fill-opacity="1" /><path clip-path="url(#clip280)" d="M154.839 1241.36 L162.477 1241.36 L162.477 1214.99 L154.167 1216.66 L154.167 1212.4 L162.431 1210.73 L167.107 1210.73 L167.107 1241.36 L174.746 1241.36 L174.746 1245.29 L154.839 1245.29 L154.839 1241.36 Z" fill="#000000" fill-rule="nonzero" fill-opacity="1" /><path clip-path="url(#clip280)" d="M183.01 1210.73 L205.232 1210.73 L205.232 1212.72 L192.686 1245.29 L187.801 1245.29 L199.607 1214.67 L183.01 1214.67 L183.01 1210.73 Z" fill="#000000" fill-rule="nonzero" fill-opacity="1" /><path clip-path="url(#clip280)" d="M214.399 1210.73 L232.755 1210.73 L232.755 1214.67 L218.681 1214.67 L218.681 1223.14 Q219.699 1222.79 220.718 1222.63 Q221.736 1222.44 222.755 1222.44 Q228.542 1222.44 231.922 1225.62 Q235.301 1228.79 235.301 1234.2 Q235.301 1239.78 231.829 1242.88 Q228.357 1245.96 222.037 1245.96 Q219.861 1245.96 217.593 1245.59 Q215.348 1245.22 212.94 1244.48 L212.94 1239.78 Q215.024 1240.92 217.246 1241.47 Q219.468 1242.03 221.945 1242.03 Q225.949 1242.03 228.287 1239.92 Q230.625 1237.81 230.625 1234.2 Q230.625 1230.59 228.287 1228.49 Q225.949 1226.38 221.945 1226.38 Q220.07 1226.38 218.195 1226.8 Q216.343 1227.21 214.399 1228.09 L214.399 1210.73 Z" fill="#000000" fill-rule="nonzero" fill-opacity="1" /><path clip-path="url(#clip280)" d="M254.514 1213.81 Q250.903 1213.81 249.074 1217.37 Q247.269 1220.92 247.269 1228.05 Q247.269 1235.15 249.074 1238.72 Q250.903 1242.26 254.514 1242.26 Q258.148 1242.26 259.954 1238.72 Q261.783 1235.15 261.783 1228.05 Q261.783 1220.92 259.954 1217.37 Q258.148 1213.81 254.514 1213.81 M254.514 1210.11 Q260.324 1210.11 263.38 1214.71 Q266.458 1219.3 266.458 1228.05 Q266.458 1236.77 263.38 1241.38 Q260.324 1245.96 254.514 1245.96 Q248.704 1245.96 245.625 1241.38 Q242.57 1236.77 242.57 1228.05 Q242.57 1219.3 245.625 1214.71 Q248.704 1210.11 254.514 1210.11 Z" fill="#000000" fill-rule="nonzero" fill-opacity="1" /><path clip-path="url(#clip280)" d="M284.676 1213.81 Q281.065 1213.81 279.236 1217.37 Q277.431 1220.92 277.431 1228.05 Q277.431 1235.15 279.236 1238.72 Q281.065 1242.26 284.676 1242.26 Q288.31 1242.26 290.116 1238.72 Q291.944 1235.15 291.944 1228.05 Q291.944 1220.92 290.116 1217.37 Q288.31 1213.81 284.676 1213.81 M284.676 1210.11 Q290.486 1210.11 293.542 1214.71 Q296.62 1219.3 296.62 1228.05 Q296.62 1236.77 293.542 1241.38 Q290.486 1245.96 284.676 1245.96 Q278.866 1245.96 275.787 1241.38 Q272.732 1236.77 272.732 1228.05 Q272.732 1219.3 275.787 1214.71 Q278.866 1210.11 284.676 1210.11 Z" fill="#000000" fill-rule="nonzero" fill-opacity="1" /><path clip-path="url(#clip280)" d="M114.26 989.494 L143.936 989.494 L143.936 993.429 L114.26 993.429 L114.26 989.494 Z" fill="#000000" fill-rule="nonzero" fill-opacity="1" /><path clip-path="url(#clip280)" d="M154.839 1002.39 L162.477 1002.39 L162.477 976.022 L154.167 977.688 L154.167 973.429 L162.431 971.762 L167.107 971.762 L167.107 1002.39 L174.746 1002.39 L174.746 1006.32 L154.839 1006.32 L154.839 1002.39 Z" fill="#000000" fill-rule="nonzero" fill-opacity="1" /><path clip-path="url(#clip280)" d="M184.237 971.762 L202.593 971.762 L202.593 975.698 L188.519 975.698 L188.519 984.17 Q189.538 983.823 190.556 983.661 Q191.575 983.475 192.593 983.475 Q198.38 983.475 201.76 986.647 Q205.139 989.818 205.139 995.235 Q205.139 1000.81 201.667 1003.92 Q198.195 1006.99 191.875 1006.99 Q189.7 1006.99 187.431 1006.62 Q185.186 1006.25 182.778 1005.51 L182.778 1000.81 Q184.862 1001.95 187.084 1002.5 Q189.306 1003.06 191.783 1003.06 Q195.787 1003.06 198.125 1000.95 Q200.463 998.846 200.463 995.235 Q200.463 991.623 198.125 989.517 Q195.787 987.411 191.783 987.411 Q189.908 987.411 188.033 987.827 Q186.181 988.244 184.237 989.123 L184.237 971.762 Z" fill="#000000" fill-rule="nonzero" fill-opacity="1" /><path clip-path="url(#clip280)" d="M224.352 974.841 Q220.741 974.841 218.912 978.406 Q217.107 981.948 217.107 989.077 Q217.107 996.184 218.912 999.748 Q220.741 1003.29 224.352 1003.29 Q227.986 1003.29 229.792 999.748 Q231.621 996.184 231.621 989.077 Q231.621 981.948 229.792 978.406 Q227.986 974.841 224.352 974.841 M224.352 971.137 Q230.162 971.137 233.218 975.744 Q236.297 980.327 236.297 989.077 Q236.297 997.804 233.218 1002.41 Q230.162 1006.99 224.352 1006.99 Q218.542 1006.99 215.463 1002.41 Q212.408 997.804 212.408 989.077 Q212.408 980.327 215.463 975.744 Q218.542 971.137 224.352 971.137 Z" fill="#000000" fill-rule="nonzero" fill-opacity="1" /><path clip-path="url(#clip280)" d="M254.514 974.841 Q250.903 974.841 249.074 978.406 Q247.269 981.948 247.269 989.077 Q247.269 996.184 249.074 999.748 Q250.903 1003.29 254.514 1003.29 Q258.148 1003.29 259.954 999.748 Q261.783 996.184 261.783 989.077 Q261.783 981.948 259.954 978.406 Q258.148 974.841 254.514 974.841 M254.514 971.137 Q260.324 971.137 263.38 975.744 Q266.458 980.327 266.458 989.077 Q266.458 997.804 263.38 1002.41 Q260.324 1006.99 254.514 1006.99 Q248.704 1006.99 245.625 1002.41 Q242.57 997.804 242.57 989.077 Q242.57 980.327 245.625 975.744 Q248.704 971.137 254.514 971.137 Z" fill="#000000" fill-rule="nonzero" fill-opacity="1" /><path clip-path="url(#clip280)" d="M284.676 974.841 Q281.065 974.841 279.236 978.406 Q277.431 981.948 277.431 989.077 Q277.431 996.184 279.236 999.748 Q281.065 1003.29 284.676 1003.29 Q288.31 1003.29 290.116 999.748 Q291.944 996.184 291.944 989.077 Q291.944 981.948 290.116 978.406 Q288.31 974.841 284.676 974.841 M284.676 971.137 Q290.486 971.137 293.542 975.744 Q296.62 980.327 296.62 989.077 Q296.62 997.804 293.542 1002.41 Q290.486 1006.99 284.676 1006.99 Q278.866 1006.99 275.787 1002.41 Q272.732 997.804 272.732 989.077 Q272.732 980.327 275.787 975.744 Q278.866 971.137 284.676 971.137 Z" fill="#000000" fill-rule="nonzero" fill-opacity="1" /><path clip-path="url(#clip280)" d="M114.26 750.525 L143.936 750.525 L143.936 754.46 L114.26 754.46 L114.26 750.525 Z" fill="#000000" fill-rule="nonzero" fill-opacity="1" /><path clip-path="url(#clip280)" d="M154.839 763.419 L162.477 763.419 L162.477 737.053 L154.167 738.72 L154.167 734.46 L162.431 732.794 L167.107 732.794 L167.107 763.419 L174.746 763.419 L174.746 767.354 L154.839 767.354 L154.839 763.419 Z" fill="#000000" fill-rule="nonzero" fill-opacity="1" /><path clip-path="url(#clip280)" d="M188.218 763.419 L204.537 763.419 L204.537 767.354 L182.593 767.354 L182.593 763.419 Q185.255 760.664 189.838 756.034 Q194.445 751.382 195.625 750.039 Q197.871 747.516 198.75 745.78 Q199.653 744.02 199.653 742.331 Q199.653 739.576 197.709 737.84 Q195.787 736.104 192.686 736.104 Q190.487 736.104 188.033 736.868 Q185.602 737.632 182.825 739.183 L182.825 734.46 Q185.649 733.326 188.102 732.747 Q190.556 732.169 192.593 732.169 Q197.963 732.169 201.158 734.854 Q204.352 737.539 204.352 742.03 Q204.352 744.159 203.542 746.081 Q202.755 747.979 200.649 750.571 Q200.07 751.243 196.968 754.46 Q193.866 757.655 188.218 763.419 Z" fill="#000000" fill-rule="nonzero" fill-opacity="1" /><path clip-path="url(#clip280)" d="M214.399 732.794 L232.755 732.794 L232.755 736.729 L218.681 736.729 L218.681 745.201 Q219.699 744.854 220.718 744.692 Q221.736 744.507 222.755 744.507 Q228.542 744.507 231.922 747.678 Q235.301 750.849 235.301 756.266 Q235.301 761.844 231.829 764.946 Q228.357 768.025 222.037 768.025 Q219.861 768.025 217.593 767.655 Q215.348 767.284 212.94 766.544 L212.94 761.844 Q215.024 762.979 217.246 763.534 Q219.468 764.09 221.945 764.09 Q225.949 764.09 228.287 761.983 Q230.625 759.877 230.625 756.266 Q230.625 752.655 228.287 750.548 Q225.949 748.442 221.945 748.442 Q220.07 748.442 218.195 748.858 Q216.343 749.275 214.399 750.155 L214.399 732.794 Z" fill="#000000" fill-rule="nonzero" fill-opacity="1" /><path clip-path="url(#clip280)" d="M254.514 735.872 Q250.903 735.872 249.074 739.437 Q247.269 742.979 247.269 750.108 Q247.269 757.215 249.074 760.78 Q250.903 764.321 254.514 764.321 Q258.148 764.321 259.954 760.78 Q261.783 757.215 261.783 750.108 Q261.783 742.979 259.954 739.437 Q258.148 735.872 254.514 735.872 M254.514 732.169 Q260.324 732.169 263.38 736.775 Q266.458 741.358 266.458 750.108 Q266.458 758.835 263.38 763.442 Q260.324 768.025 254.514 768.025 Q248.704 768.025 245.625 763.442 Q242.57 758.835 242.57 750.108 Q242.57 741.358 245.625 736.775 Q248.704 732.169 254.514 732.169 Z" fill="#000000" fill-rule="nonzero" fill-opacity="1" /><path clip-path="url(#clip280)" d="M284.676 735.872 Q281.065 735.872 279.236 739.437 Q277.431 742.979 277.431 750.108 Q277.431 757.215 279.236 760.78 Q281.065 764.321 284.676 764.321 Q288.31 764.321 290.116 760.78 Q291.944 757.215 291.944 750.108 Q291.944 742.979 290.116 739.437 Q288.31 735.872 284.676 735.872 M284.676 732.169 Q290.486 732.169 293.542 736.775 Q296.62 741.358 296.62 750.108 Q296.62 758.835 293.542 763.442 Q290.486 768.025 284.676 768.025 Q278.866 768.025 275.787 763.442 Q272.732 758.835 272.732 750.108 Q272.732 741.358 275.787 736.775 Q278.866 732.169 284.676 732.169 Z" fill="#000000" fill-rule="nonzero" fill-opacity="1" /><path clip-path="url(#clip280)" d="M114.26 511.556 L143.936 511.556 L143.936 515.492 L114.26 515.492 L114.26 511.556 Z" fill="#000000" fill-rule="nonzero" fill-opacity="1" /><path clip-path="url(#clip280)" d="M154.839 524.45 L162.477 524.45 L162.477 498.084 L154.167 499.751 L154.167 495.492 L162.431 493.825 L167.107 493.825 L167.107 524.45 L174.746 524.45 L174.746 528.385 L154.839 528.385 L154.839 524.45 Z" fill="#000000" fill-rule="nonzero" fill-opacity="1" /><path clip-path="url(#clip280)" d="M194.19 496.904 Q190.579 496.904 188.75 500.468 Q186.945 504.01 186.945 511.14 Q186.945 518.246 188.75 521.811 Q190.579 525.353 194.19 525.353 Q197.825 525.353 199.63 521.811 Q201.459 518.246 201.459 511.14 Q201.459 504.01 199.63 500.468 Q197.825 496.904 194.19 496.904 M194.19 493.2 Q200 493.2 203.056 497.806 Q206.135 502.39 206.135 511.14 Q206.135 519.866 203.056 524.473 Q200 529.056 194.19 529.056 Q188.38 529.056 185.301 524.473 Q182.246 519.866 182.246 511.14 Q182.246 502.39 185.301 497.806 Q188.38 493.2 194.19 493.2 Z" fill="#000000" fill-rule="nonzero" fill-opacity="1" /><path clip-path="url(#clip280)" d="M224.352 496.904 Q220.741 496.904 218.912 500.468 Q217.107 504.01 217.107 511.14 Q217.107 518.246 218.912 521.811 Q220.741 525.353 224.352 525.353 Q227.986 525.353 229.792 521.811 Q231.621 518.246 231.621 511.14 Q231.621 504.01 229.792 500.468 Q227.986 496.904 224.352 496.904 M224.352 493.2 Q230.162 493.2 233.218 497.806 Q236.297 502.39 236.297 511.14 Q236.297 519.866 233.218 524.473 Q230.162 529.056 224.352 529.056 Q218.542 529.056 215.463 524.473 Q212.408 519.866 212.408 511.14 Q212.408 502.39 215.463 497.806 Q218.542 493.2 224.352 493.2 Z" fill="#000000" fill-rule="nonzero" fill-opacity="1" /><path clip-path="url(#clip280)" d="M254.514 496.904 Q250.903 496.904 249.074 500.468 Q247.269 504.01 247.269 511.14 Q247.269 518.246 249.074 521.811 Q250.903 525.353 254.514 525.353 Q258.148 525.353 259.954 521.811 Q261.783 518.246 261.783 511.14 Q261.783 504.01 259.954 500.468 Q258.148 496.904 254.514 496.904 M254.514 493.2 Q260.324 493.2 263.38 497.806 Q266.458 502.39 266.458 511.14 Q266.458 519.866 263.38 524.473 Q260.324 529.056 254.514 529.056 Q248.704 529.056 245.625 524.473 Q242.57 519.866 242.57 511.14 Q242.57 502.39 245.625 497.806 Q248.704 493.2 254.514 493.2 Z" fill="#000000" fill-rule="nonzero" fill-opacity="1" /><path clip-path="url(#clip280)" d="M284.676 496.904 Q281.065 496.904 279.236 500.468 Q277.431 504.01 277.431 511.14 Q277.431 518.246 279.236 521.811 Q281.065 525.353 284.676 525.353 Q288.31 525.353 290.116 521.811 Q291.944 518.246 291.944 511.14 Q291.944 504.01 290.116 500.468 Q288.31 496.904 284.676 496.904 M284.676 493.2 Q290.486 493.2 293.542 497.806 Q296.62 502.39 296.62 511.14 Q296.62 519.866 293.542 524.473 Q290.486 529.056 284.676 529.056 Q278.866 529.056 275.787 524.473 Q272.732 519.866 272.732 511.14 Q272.732 502.39 275.787 497.806 Q278.866 493.2 284.676 493.2 Z" fill="#000000" fill-rule="nonzero" fill-opacity="1" /><path clip-path="url(#clip280)" d="M144.422 272.588 L174.098 272.588 L174.098 276.523 L144.422 276.523 L144.422 272.588 Z" fill="#000000" fill-rule="nonzero" fill-opacity="1" /><path clip-path="url(#clip280)" d="M183.01 254.856 L205.232 254.856 L205.232 256.847 L192.686 289.416 L187.801 289.416 L199.607 258.791 L183.01 258.791 L183.01 254.856 Z" fill="#000000" fill-rule="nonzero" fill-opacity="1" /><path clip-path="url(#clip280)" d="M214.399 254.856 L232.755 254.856 L232.755 258.791 L218.681 258.791 L218.681 267.264 Q219.699 266.916 220.718 266.754 Q221.736 266.569 222.755 266.569 Q228.542 266.569 231.922 269.74 Q235.301 272.912 235.301 278.328 Q235.301 283.907 231.829 287.009 Q228.357 290.087 222.037 290.087 Q219.861 290.087 217.593 289.717 Q215.348 289.347 212.94 288.606 L212.94 283.907 Q215.024 285.041 217.246 285.597 Q219.468 286.152 221.945 286.152 Q225.949 286.152 228.287 284.046 Q230.625 281.939 230.625 278.328 Q230.625 274.717 228.287 272.611 Q225.949 270.504 221.945 270.504 Q220.07 270.504 218.195 270.921 Q216.343 271.338 214.399 272.217 L214.399 254.856 Z" fill="#000000" fill-rule="nonzero" fill-opacity="1" /><path clip-path="url(#clip280)" d="M254.514 257.935 Q250.903 257.935 249.074 261.5 Q247.269 265.041 247.269 272.171 Q247.269 279.277 249.074 282.842 Q250.903 286.384 254.514 286.384 Q258.148 286.384 259.954 282.842 Q261.783 279.277 261.783 272.171 Q261.783 265.041 259.954 261.5 Q258.148 257.935 254.514 257.935 M254.514 254.231 Q260.324 254.231 263.38 258.838 Q266.458 263.421 266.458 272.171 Q266.458 280.898 263.38 285.504 Q260.324 290.087 254.514 290.087 Q248.704 290.087 245.625 285.504 Q242.57 280.898 242.57 272.171 Q242.57 263.421 245.625 258.838 Q248.704 254.231 254.514 254.231 Z" fill="#000000" fill-rule="nonzero" fill-opacity="1" /><path clip-path="url(#clip280)" d="M284.676 257.935 Q281.065 257.935 279.236 261.5 Q277.431 265.041 277.431 272.171 Q277.431 279.277 279.236 282.842 Q281.065 286.384 284.676 286.384 Q288.31 286.384 290.116 282.842 Q291.944 279.277 291.944 272.171 Q291.944 265.041 290.116 261.5 Q288.31 257.935 284.676 257.935 M284.676 254.231 Q290.486 254.231 293.542 258.838 Q296.62 263.421 296.62 272.171 Q296.62 280.898 293.542 285.504 Q290.486 290.087 284.676 290.087 Q278.866 290.087 275.787 285.504 Q272.732 280.898 272.732 272.171 Q272.732 263.421 275.787 258.838 Q278.866 254.231 284.676 254.231 Z" fill="#000000" fill-rule="nonzero" fill-opacity="1" /><path clip-path="url(#clip280)" d="M16.4842 816.375 L16.4842 786.329 L21.895 786.329 L21.895 809.945 L35.9632 809.945 L35.9632 787.315 L41.3741 787.315 L41.3741 809.945 L58.5933 809.945 L58.5933 785.756 L64.0042 785.756 L64.0042 816.375 L16.4842 816.375 Z" fill="#000000" fill-rule="nonzero" fill-opacity="1" /><path clip-path="url(#clip280)" d="M16.4842 775.189 L16.4842 768.759 L58.5933 768.759 L58.5933 745.62 L64.0042 745.62 L64.0042 775.189 L16.4842 775.189 Z" fill="#000000" fill-rule="nonzero" fill-opacity="1" /><path clip-path="url(#clip280)" d="M41.3104 732.443 L58.7206 732.443 L58.7206 722.13 Q58.7206 716.942 56.5881 714.46 Q54.4238 711.945 49.9996 711.945 Q45.5436 711.945 43.4429 714.46 Q41.3104 716.942 41.3104 722.13 L41.3104 732.443 M21.7677 732.443 L36.0905 732.443 L36.0905 722.926 Q36.0905 718.216 34.34 715.924 Q32.5576 713.6 28.9291 713.6 Q25.3325 713.6 23.5501 715.924 Q21.7677 718.216 21.7677 722.926 L21.7677 732.443 M16.4842 738.872 L16.4842 722.449 Q16.4842 715.096 19.5397 711.118 Q22.5952 707.139 28.2289 707.139 Q32.5894 707.139 35.1675 709.176 Q37.7456 711.213 38.3822 715.16 Q39.4007 710.418 42.6472 707.808 Q45.8619 705.166 50.6998 705.166 Q57.0655 705.166 60.5348 709.495 Q64.0042 713.823 64.0042 721.812 L64.0042 738.872 L16.4842 738.872 Z" fill="#000000" fill-rule="nonzero" fill-opacity="1" /><path clip-path="url(#clip280)" d="M20.8447 676.011 Q20.8447 683.013 26.0645 687.151 Q31.2844 691.257 40.2919 691.257 Q49.2675 691.257 54.4874 687.151 Q59.7073 683.013 59.7073 676.011 Q59.7073 669.009 54.4874 664.935 Q49.2675 660.829 40.2919 660.829 Q31.2844 660.829 26.0645 664.935 Q20.8447 669.009 20.8447 676.011 M15.6248 676.011 Q15.6248 666.017 22.3406 660.033 Q29.0246 654.049 40.2919 654.049 Q51.5274 654.049 58.2432 660.033 Q64.9272 666.017 64.9272 676.011 Q64.9272 686.037 58.2432 692.052 Q51.5592 698.036 40.2919 698.036 Q29.0246 698.036 22.3406 692.052 Q15.6248 686.037 15.6248 676.011 Z" fill="#000000" fill-rule="nonzero" fill-opacity="1" /><polyline clip-path="url(#clip281)" style="stroke:#009af9; stroke-linecap:round; stroke-linejoin:round; stroke-width:4; stroke-opacity:1; fill:none" points="1167.07,1289.66 1218.85,839.383 1257.85,358.42 1294.07,282.086 1329.89,262.633 1365.48,224.481 1402,204.077 1438.13,199.256 1474.14,185.224 1510.34,178.855 1546.61,172.605 1582.5,171.009 1618.68,159.334 1654.14,158.234 1690.24,149.068 1725.65,147.509 1761.38,144.158 1796.77,140.185 1832.75,139.598 1868.19,132.759 1904.09,130.001 1939.6,131.339 1975.27,126.273 2010.98,121.413 2046.89,116.763 2082.52,107.908 2118.21,102.934 2153.56,98.6173 2189.31,93.7591 2224.62,89.9053 2260.33,88.5825 2295.58,86.1857 "/>
<polyline clip-path="url(#clip281)" style="stroke:#e26f46; stroke-linecap:round; stroke-linejoin:round; stroke-width:4; stroke-opacity:1; fill:none" points="389.794,1384.24 419.258,1080.89 440.066,494.064 447.451,367.005 542.854,265.293 550.523,235.247 560.166,218.397 570.549,198.798 580.888,180.698 591.218,174.563 601.537,170.403 610.169,170.271 617.554,165.25 624.992,163.914 633.356,156.831 640.785,156.002 648.118,150.998 657.576,150.071 664.913,146.987 672.812,142.502 680.116,140.59 688.059,136.773 695.847,130.622 703.693,131.572 711.568,133.122 719.186,125.33 727.206,126.631 735.048,120.63 743.121,117.472 750.899,119.018 758.738,114.629 766.82,111.798 "/>
<path clip-path="url(#clip280)" d="M1784.1 1377.32 L2285.42 1377.32 L2285.42 1221.8 L1784.1 1221.8  Z" fill="#ffffff" fill-rule="evenodd" fill-opacity="1"/>
<polyline clip-path="url(#clip280)" style="stroke:#000000; stroke-linecap:round; stroke-linejoin:round; stroke-width:4; stroke-opacity:1; fill:none" points="1784.1,1377.32 2285.42,1377.32 2285.42,1221.8 1784.1,1221.8 1784.1,1377.32 "/>
<polyline clip-path="url(#clip280)" style="stroke:#009af9; stroke-linecap:round; stroke-linejoin:round; stroke-width:4; stroke-opacity:1; fill:none" points="1806.55,1273.64 1941.22,1273.64 "/>
<path clip-path="url(#clip280)" d="M1963.67 1256.36 L1983.53 1256.36 L1983.53 1260.29 L1968.34 1260.29 L1968.34 1270.48 L1982.05 1270.48 L1982.05 1274.41 L1968.34 1274.41 L1968.34 1290.92 L1963.67 1290.92 L1963.67 1256.36 Z" fill="#000000" fill-rule="nonzero" fill-opacity="1" /><path clip-path="url(#clip280)" d="M1987.72 1280.68 L1987.72 1264.99 L1991.98 1264.99 L1991.98 1280.52 Q1991.98 1284.2 1993.41 1286.05 Q1994.85 1287.88 1997.72 1287.88 Q2001.17 1287.88 2003.16 1285.68 Q2005.17 1283.48 2005.17 1279.69 L2005.17 1264.99 L2009.43 1264.99 L2009.43 1290.92 L2005.17 1290.92 L2005.17 1286.93 Q2003.62 1289.29 2001.56 1290.45 Q1999.52 1291.59 1996.82 1291.59 Q1992.35 1291.59 1990.03 1288.81 Q1987.72 1286.03 1987.72 1280.68 M1998.44 1264.36 L1998.44 1264.36 Z" fill="#000000" fill-rule="nonzero" fill-opacity="1" /><path clip-path="url(#clip280)" d="M2018.2 1254.9 L2022.46 1254.9 L2022.46 1290.92 L2018.2 1290.92 L2018.2 1254.9 Z" fill="#000000" fill-rule="nonzero" fill-opacity="1" /><path clip-path="url(#clip280)" d="M2031.38 1254.9 L2035.64 1254.9 L2035.64 1290.92 L2031.38 1290.92 L2031.38 1254.9 Z" fill="#000000" fill-rule="nonzero" fill-opacity="1" /><path clip-path="url(#clip280)" d="M2064.48 1274.41 L2064.48 1287.07 L2071.98 1287.07 Q2075.75 1287.07 2077.56 1285.52 Q2079.39 1283.95 2079.39 1280.73 Q2079.39 1277.49 2077.56 1275.96 Q2075.75 1274.41 2071.98 1274.41 L2064.48 1274.41 M2064.48 1260.2 L2064.48 1270.61 L2071.4 1270.61 Q2074.82 1270.61 2076.49 1269.34 Q2078.18 1268.05 2078.18 1265.41 Q2078.18 1262.79 2076.49 1261.49 Q2074.82 1260.2 2071.4 1260.2 L2064.48 1260.2 M2059.8 1256.36 L2071.75 1256.36 Q2077.09 1256.36 2079.99 1258.58 Q2082.88 1260.8 2082.88 1264.9 Q2082.88 1268.07 2081.4 1269.94 Q2079.92 1271.82 2077.05 1272.28 Q2080.5 1273.02 2082.39 1275.38 Q2084.32 1277.72 2084.32 1281.24 Q2084.32 1285.87 2081.17 1288.39 Q2078.02 1290.92 2072.21 1290.92 L2059.8 1290.92 L2059.8 1256.36 Z" fill="#000000" fill-rule="nonzero" fill-opacity="1" /><path clip-path="url(#clip280)" d="M2103.92 1277.88 Q2098.76 1277.88 2096.77 1279.06 Q2094.78 1280.24 2094.78 1283.09 Q2094.78 1285.36 2096.26 1286.7 Q2097.76 1288.02 2100.33 1288.02 Q2103.88 1288.02 2106.01 1285.52 Q2108.16 1283 2108.16 1278.83 L2108.16 1277.88 L2103.92 1277.88 M2112.42 1276.12 L2112.42 1290.92 L2108.16 1290.92 L2108.16 1286.98 Q2106.7 1289.34 2104.52 1290.48 Q2102.35 1291.59 2099.2 1291.59 Q2095.22 1291.59 2092.86 1289.36 Q2090.52 1287.12 2090.52 1283.37 Q2090.52 1278.99 2093.44 1276.77 Q2096.38 1274.55 2102.19 1274.55 L2108.16 1274.55 L2108.16 1274.13 Q2108.16 1271.19 2106.21 1269.6 Q2104.29 1267.98 2100.8 1267.98 Q2098.57 1267.98 2096.47 1268.51 Q2094.36 1269.04 2092.42 1270.11 L2092.42 1266.17 Q2094.76 1265.27 2096.95 1264.83 Q2099.15 1264.36 2101.24 1264.36 Q2106.86 1264.36 2109.64 1267.28 Q2112.42 1270.2 2112.42 1276.12 Z" fill="#000000" fill-rule="nonzero" fill-opacity="1" /><path clip-path="url(#clip280)" d="M2125.4 1257.63 L2125.4 1264.99 L2134.18 1264.99 L2134.18 1268.3 L2125.4 1268.3 L2125.4 1282.37 Q2125.4 1285.54 2126.26 1286.45 Q2127.14 1287.35 2129.8 1287.35 L2134.18 1287.35 L2134.18 1290.92 L2129.8 1290.92 Q2124.87 1290.92 2123 1289.09 Q2121.12 1287.23 2121.12 1282.37 L2121.12 1268.3 L2118 1268.3 L2118 1264.99 L2121.12 1264.99 L2121.12 1257.63 L2125.4 1257.63 Z" fill="#000000" fill-rule="nonzero" fill-opacity="1" /><path clip-path="url(#clip280)" d="M2158.44 1265.98 L2158.44 1269.97 Q2156.63 1268.97 2154.8 1268.48 Q2153 1267.98 2151.14 1267.98 Q2147 1267.98 2144.71 1270.61 Q2142.42 1273.23 2142.42 1277.98 Q2142.42 1282.72 2144.71 1285.36 Q2147 1287.98 2151.14 1287.98 Q2153 1287.98 2154.8 1287.49 Q2156.63 1286.98 2158.44 1285.98 L2158.44 1289.92 Q2156.65 1290.75 2154.73 1291.17 Q2152.83 1291.59 2150.68 1291.59 Q2144.82 1291.59 2141.38 1287.91 Q2137.93 1284.23 2137.93 1277.98 Q2137.93 1271.63 2141.4 1268 Q2144.89 1264.36 2150.96 1264.36 Q2152.93 1264.36 2154.8 1264.78 Q2156.68 1265.17 2158.44 1265.98 Z" fill="#000000" fill-rule="nonzero" fill-opacity="1" /><path clip-path="url(#clip280)" d="M2187.39 1275.27 L2187.39 1290.92 L2183.13 1290.92 L2183.13 1275.41 Q2183.13 1271.73 2181.7 1269.9 Q2180.26 1268.07 2177.39 1268.07 Q2173.94 1268.07 2171.95 1270.27 Q2169.96 1272.47 2169.96 1276.26 L2169.96 1290.92 L2165.68 1290.92 L2165.68 1254.9 L2169.96 1254.9 L2169.96 1269.02 Q2171.49 1266.68 2173.55 1265.52 Q2175.63 1264.36 2178.34 1264.36 Q2182.81 1264.36 2185.1 1267.14 Q2187.39 1269.9 2187.39 1275.27 Z" fill="#000000" fill-rule="nonzero" fill-opacity="1" /><polyline clip-path="url(#clip280)" style="stroke:#e26f46; stroke-linecap:round; stroke-linejoin:round; stroke-width:4; stroke-opacity:1; fill:none" points="1806.55,1325.48 1941.22,1325.48 "/>
<path clip-path="url(#clip280)" d="M1985.91 1309.33 L1985.91 1313.89 Q1983.25 1312.62 1980.89 1311.99 Q1978.53 1311.37 1976.33 1311.37 Q1972.51 1311.37 1970.43 1312.85 Q1968.37 1314.33 1968.37 1317.06 Q1968.37 1319.35 1969.73 1320.53 Q1971.12 1321.69 1974.96 1322.41 L1977.79 1322.99 Q1983.02 1323.98 1985.5 1326.51 Q1988 1329.01 1988 1333.22 Q1988 1338.24 1984.62 1340.83 Q1981.26 1343.43 1974.76 1343.43 Q1972.3 1343.43 1969.52 1342.87 Q1966.77 1342.32 1963.81 1341.23 L1963.81 1336.41 Q1966.65 1338.01 1969.39 1338.82 Q1972.12 1339.63 1974.76 1339.63 Q1978.76 1339.63 1980.94 1338.06 Q1983.11 1336.48 1983.11 1333.57 Q1983.11 1331.02 1981.54 1329.58 Q1979.99 1328.15 1976.42 1327.43 L1973.58 1326.88 Q1968.34 1325.83 1966.01 1323.61 Q1963.67 1321.39 1963.67 1317.43 Q1963.67 1312.85 1966.89 1310.21 Q1970.13 1307.57 1975.8 1307.57 Q1978.23 1307.57 1980.75 1308.01 Q1983.27 1308.45 1985.91 1309.33 Z" fill="#000000" fill-rule="nonzero" fill-opacity="1" /><path clip-path="url(#clip280)" d="M1994.66 1332.52 L1994.66 1316.83 L1998.92 1316.83 L1998.92 1332.36 Q1998.92 1336.04 2000.36 1337.89 Q2001.79 1339.72 2004.66 1339.72 Q2008.11 1339.72 2010.1 1337.52 Q2012.12 1335.32 2012.12 1331.53 L2012.12 1316.83 L2016.38 1316.83 L2016.38 1342.76 L2012.12 1342.76 L2012.12 1338.77 Q2010.57 1341.13 2008.51 1342.29 Q2006.47 1343.43 2003.76 1343.43 Q1999.29 1343.43 1996.98 1340.65 Q1994.66 1337.87 1994.66 1332.52 M2005.38 1316.2 L2005.38 1316.2 Z" fill="#000000" fill-rule="nonzero" fill-opacity="1" /><path clip-path="url(#clip280)" d="M2043.76 1329.82 Q2043.76 1325.12 2041.82 1322.45 Q2039.89 1319.77 2036.51 1319.77 Q2033.14 1319.77 2031.19 1322.45 Q2029.27 1325.12 2029.27 1329.82 Q2029.27 1334.51 2031.19 1337.2 Q2033.14 1339.86 2036.51 1339.86 Q2039.89 1339.86 2041.82 1337.2 Q2043.76 1334.51 2043.76 1329.82 M2029.27 1320.76 Q2030.61 1318.45 2032.65 1317.34 Q2034.71 1316.2 2037.56 1316.2 Q2042.28 1316.2 2045.22 1319.95 Q2048.18 1323.7 2048.18 1329.82 Q2048.18 1335.93 2045.22 1339.68 Q2042.28 1343.43 2037.56 1343.43 Q2034.71 1343.43 2032.65 1342.32 Q2030.61 1341.18 2029.27 1338.87 L2029.27 1342.76 L2024.99 1342.76 L2024.99 1306.74 L2029.27 1306.74 L2029.27 1320.76 Z" fill="#000000" fill-rule="nonzero" fill-opacity="1" /><path clip-path="url(#clip280)" d="M2071.77 1317.59 L2071.77 1321.62 Q2069.96 1320.7 2068.02 1320.23 Q2066.08 1319.77 2063.99 1319.77 Q2060.82 1319.77 2059.22 1320.74 Q2057.65 1321.71 2057.65 1323.66 Q2057.65 1325.14 2058.78 1326 Q2059.92 1326.83 2063.34 1327.59 L2064.8 1327.92 Q2069.34 1328.89 2071.24 1330.67 Q2073.16 1332.43 2073.16 1335.6 Q2073.16 1339.21 2070.29 1341.32 Q2067.44 1343.43 2062.44 1343.43 Q2060.36 1343.43 2058.09 1343.01 Q2055.84 1342.62 2053.34 1341.81 L2053.34 1337.41 Q2055.7 1338.63 2058 1339.26 Q2060.29 1339.86 2062.53 1339.86 Q2065.54 1339.86 2067.16 1338.84 Q2068.78 1337.8 2068.78 1335.93 Q2068.78 1334.19 2067.6 1333.26 Q2066.45 1332.34 2062.49 1331.48 L2061.01 1331.14 Q2057.05 1330.3 2055.29 1328.59 Q2053.53 1326.85 2053.53 1323.84 Q2053.53 1320.19 2056.12 1318.2 Q2058.71 1316.2 2063.48 1316.2 Q2065.84 1316.2 2067.93 1316.55 Q2070.01 1316.9 2071.77 1317.59 Z" fill="#000000" fill-rule="nonzero" fill-opacity="1" /><path clip-path="url(#clip280)" d="M2091.72 1329.72 Q2086.56 1329.72 2084.57 1330.9 Q2082.58 1332.08 2082.58 1334.93 Q2082.58 1337.2 2084.06 1338.54 Q2085.57 1339.86 2088.14 1339.86 Q2091.68 1339.86 2093.81 1337.36 Q2095.96 1334.84 2095.96 1330.67 L2095.96 1329.72 L2091.72 1329.72 M2100.22 1327.96 L2100.22 1342.76 L2095.96 1342.76 L2095.96 1338.82 Q2094.5 1341.18 2092.32 1342.32 Q2090.15 1343.43 2087 1343.43 Q2083.02 1343.43 2080.66 1341.2 Q2078.32 1338.96 2078.32 1335.21 Q2078.32 1330.83 2081.24 1328.61 Q2084.18 1326.39 2089.99 1326.39 L2095.96 1326.39 L2095.96 1325.97 Q2095.96 1323.03 2094.01 1321.44 Q2092.09 1319.82 2088.6 1319.82 Q2086.38 1319.82 2084.27 1320.35 Q2082.16 1320.88 2080.22 1321.95 L2080.22 1318.01 Q2082.56 1317.11 2084.76 1316.67 Q2086.95 1316.2 2089.04 1316.2 Q2094.66 1316.2 2097.44 1319.12 Q2100.22 1322.04 2100.22 1327.96 Z" fill="#000000" fill-rule="nonzero" fill-opacity="1" /><path clip-path="url(#clip280)" d="M2129.18 1321.81 Q2130.77 1318.94 2133 1317.57 Q2135.22 1316.2 2138.23 1316.2 Q2142.28 1316.2 2144.48 1319.05 Q2146.68 1321.88 2146.68 1327.11 L2146.68 1342.76 L2142.39 1342.76 L2142.39 1327.25 Q2142.39 1323.52 2141.07 1321.71 Q2139.76 1319.91 2137.05 1319.91 Q2133.74 1319.91 2131.82 1322.11 Q2129.89 1324.31 2129.89 1328.1 L2129.89 1342.76 L2125.61 1342.76 L2125.61 1327.25 Q2125.61 1323.5 2124.29 1321.71 Q2122.97 1319.91 2120.22 1319.91 Q2116.95 1319.91 2115.03 1322.13 Q2113.11 1324.33 2113.11 1328.1 L2113.11 1342.76 L2108.83 1342.76 L2108.83 1316.83 L2113.11 1316.83 L2113.11 1320.86 Q2114.57 1318.47 2116.61 1317.34 Q2118.64 1316.2 2121.45 1316.2 Q2124.27 1316.2 2126.24 1317.64 Q2128.23 1319.07 2129.18 1321.81 Z" fill="#000000" fill-rule="nonzero" fill-opacity="1" /><path clip-path="url(#clip280)" d="M2159.29 1338.87 L2159.29 1352.62 L2155.01 1352.62 L2155.01 1316.83 L2159.29 1316.83 L2159.29 1320.76 Q2160.63 1318.45 2162.67 1317.34 Q2164.73 1316.2 2167.58 1316.2 Q2172.3 1316.2 2175.24 1319.95 Q2178.2 1323.7 2178.2 1329.82 Q2178.2 1335.93 2175.24 1339.68 Q2172.3 1343.43 2167.58 1343.43 Q2164.73 1343.43 2162.67 1342.32 Q2160.63 1341.18 2159.29 1338.87 M2173.78 1329.82 Q2173.78 1325.12 2171.84 1322.45 Q2169.92 1319.77 2166.54 1319.77 Q2163.16 1319.77 2161.21 1322.45 Q2159.29 1325.12 2159.29 1329.82 Q2159.29 1334.51 2161.21 1337.2 Q2163.16 1339.86 2166.54 1339.86 Q2169.92 1339.86 2171.84 1337.2 Q2173.78 1334.51 2173.78 1329.82 Z" fill="#000000" fill-rule="nonzero" fill-opacity="1" /><path clip-path="url(#clip280)" d="M2185.26 1306.74 L2189.52 1306.74 L2189.52 1342.76 L2185.26 1342.76 L2185.26 1306.74 Z" fill="#000000" fill-rule="nonzero" fill-opacity="1" /><path clip-path="url(#clip280)" d="M2198.44 1316.83 L2202.69 1316.83 L2202.69 1342.76 L2198.44 1342.76 L2198.44 1316.83 M2198.44 1306.74 L2202.69 1306.74 L2202.69 1312.13 L2198.44 1312.13 L2198.44 1306.74 Z" fill="#000000" fill-rule="nonzero" fill-opacity="1" /><path clip-path="url(#clip280)" d="M2233.16 1327.11 L2233.16 1342.76 L2228.9 1342.76 L2228.9 1327.25 Q2228.9 1323.57 2227.46 1321.74 Q2226.03 1319.91 2223.16 1319.91 Q2219.71 1319.91 2217.72 1322.11 Q2215.73 1324.31 2215.73 1328.1 L2215.73 1342.76 L2211.44 1342.76 L2211.44 1316.83 L2215.73 1316.83 L2215.73 1320.86 Q2217.25 1318.52 2219.31 1317.36 Q2221.4 1316.2 2224.11 1316.2 Q2228.57 1316.2 2230.87 1318.98 Q2233.16 1321.74 2233.16 1327.11 Z" fill="#000000" fill-rule="nonzero" fill-opacity="1" /><path clip-path="url(#clip280)" d="M2258.71 1329.49 Q2258.71 1324.86 2256.79 1322.32 Q2254.89 1319.77 2251.44 1319.77 Q2248.02 1319.77 2246.1 1322.32 Q2244.2 1324.86 2244.2 1329.49 Q2244.2 1334.1 2246.1 1336.64 Q2248.02 1339.19 2251.44 1339.19 Q2254.89 1339.19 2256.79 1336.64 Q2258.71 1334.1 2258.71 1329.49 M2262.97 1339.54 Q2262.97 1346.16 2260.03 1349.38 Q2257.09 1352.62 2251.03 1352.62 Q2248.78 1352.62 2246.79 1352.27 Q2244.8 1351.95 2242.93 1351.25 L2242.93 1347.11 Q2244.8 1348.13 2246.63 1348.61 Q2248.46 1349.1 2250.36 1349.1 Q2254.55 1349.1 2256.63 1346.9 Q2258.71 1344.72 2258.71 1340.3 L2258.71 1338.2 Q2257.39 1340.49 2255.33 1341.62 Q2253.27 1342.76 2250.4 1342.76 Q2245.63 1342.76 2242.72 1339.12 Q2239.8 1335.49 2239.8 1329.49 Q2239.8 1323.47 2242.72 1319.84 Q2245.63 1316.2 2250.4 1316.2 Q2253.27 1316.2 2255.33 1317.34 Q2257.39 1318.47 2258.71 1320.76 L2258.71 1316.83 L2262.97 1316.83 L2262.97 1339.54 Z" fill="#000000" fill-rule="nonzero" fill-opacity="1" /></svg>
