<?xml version="1.0" encoding="utf-8"?>
<svg xmlns="http://www.w3.org/2000/svg" xmlns:xlink="http://www.w3.org/1999/xlink" width="600" height="400" viewBox="0 0 2400 1600">
<defs>
  <clipPath id="clip700">
    <rect x="0" y="0" width="2400" height="1600"/>
  </clipPath>
</defs>
<path clip-path="url(#clip700)" d="M0 1600 L2400 1600 L2400 0 L0 0  Z" fill="#ffffff" fill-rule="evenodd" fill-opacity="1"/>
<defs>
  <clipPath id="clip701">
    <rect x="438" y="47" width="1916" height="1377"/>
  </clipPath>
</defs>
<path clip-path="url(#clip700)" d="M219.542 1423.18 L2352.76 1423.18 L2352.76 47.2441 L219.542 47.2441  Z" fill="#ffffff" fill-rule="evenodd" fill-opacity="1"/>
<defs>
  <clipPath id="clip702">
    <rect x="219" y="47" width="2134" height="1377"/>
  </clipPath>
</defs>
<polyline clip-path="url(#clip702)" style="stroke:#000000; stroke-linecap:round; stroke-linejoin:round; stroke-width:2; stroke-opacity:0.1; fill:none" points="235.322,1423.18 235.322,47.2441 "/>
<polyline clip-path="url(#clip702)" style="stroke:#000000; stroke-linecap:round; stroke-linejoin:round; stroke-width:2; stroke-opacity:0.1; fill:none" points="594.165,1423.18 594.165,47.2441 "/>
<polyline clip-path="url(#clip702)" style="stroke:#000000; stroke-linecap:round; stroke-linejoin:round; stroke-width:2; stroke-opacity:0.1; fill:none" points="953.008,1423.18 953.008,47.2441 "/>
<polyline clip-path="url(#clip702)" style="stroke:#000000; stroke-linecap:round; stroke-linejoin:round; stroke-width:2; stroke-opacity:0.1; fill:none" points="1311.85,1423.18 1311.85,47.2441 "/>
<polyline clip-path="url(#clip702)" style="stroke:#000000; stroke-linecap:round; stroke-linejoin:round; stroke-width:2; stroke-opacity:0.1; fill:none" points="1670.69,1423.18 1670.69,47.2441 "/>
<polyline clip-path="url(#clip702)" style="stroke:#000000; stroke-linecap:round; stroke-linejoin:round; stroke-width:2; stroke-opacity:0.1; fill:none" points="2029.54,1423.18 2029.54,47.2441 "/>
<polyline clip-path="url(#clip702)" style="stroke:#000000; stroke-linecap:round; stroke-linejoin:round; stroke-width:2; stroke-opacity:0.1; fill:none" points="219.542,1384.24 2352.76,1384.24 "/>
<polyline clip-path="url(#clip702)" style="stroke:#000000; stroke-linecap:round; stroke-linejoin:round; stroke-width:2; stroke-opacity:0.1; fill:none" points="219.542,953.849 2352.76,953.849 "/>
<polyline clip-path="url(#clip702)" style="stroke:#000000; stroke-linecap:round; stroke-linejoin:round; stroke-width:2; stroke-opacity:0.1; fill:none" points="219.542,523.461 2352.76,523.461 "/>
<polyline clip-path="url(#clip702)" style="stroke:#000000; stroke-linecap:round; stroke-linejoin:round; stroke-width:2; stroke-opacity:0.1; fill:none" points="219.542,93.0719 2352.76,93.0719 "/>
<polyline clip-path="url(#clip700)" style="stroke:#000000; stroke-linecap:round; stroke-linejoin:round; stroke-width:4; stroke-opacity:1; fill:none" points="219.542,1423.18 2352.76,1423.18 "/>
<polyline clip-path="url(#clip700)" style="stroke:#000000; stroke-linecap:round; stroke-linejoin:round; stroke-width:4; stroke-opacity:1; fill:none" points="235.322,1423.18 235.322,1404.28 "/>
<polyline clip-path="url(#clip700)" style="stroke:#000000; stroke-linecap:round; stroke-linejoin:round; stroke-width:4; stroke-opacity:1; fill:none" points="594.165,1423.18 594.165,1404.28 "/>
<polyline clip-path="url(#clip700)" style="stroke:#000000; stroke-linecap:round; stroke-linejoin:round; stroke-width:4; stroke-opacity:1; fill:none" points="953.008,1423.18 953.008,1404.28 "/>
<polyline clip-path="url(#clip700)" style="stroke:#000000; stroke-linecap:round; stroke-linejoin:round; stroke-width:4; stroke-opacity:1; fill:none" points="1311.85,1423.18 1311.85,1404.28 "/>
<polyline clip-path="url(#clip700)" style="stroke:#000000; stroke-linecap:round; stroke-linejoin:round; stroke-width:4; stroke-opacity:1; fill:none" points="1670.69,1423.18 1670.69,1404.28 "/>
<polyline clip-path="url(#clip700)" style="stroke:#000000; stroke-linecap:round; stroke-linejoin:round; stroke-width:4; stroke-opacity:1; fill:none" points="2029.54,1423.18 2029.54,1404.28 "/>
<path clip-path="url(#clip700)" d="M235.322 1454.1 Q231.711 1454.1 229.882 1457.66 Q228.077 1461.2 228.077 1468.33 Q228.077 1475.44 229.882 1479.01 Q231.711 1482.55 235.322 1482.55 Q238.956 1482.55 240.762 1479.01 Q242.591 1475.44 242.591 1468.33 Q242.591 1461.2 240.762 1457.66 Q238.956 1454.1 235.322 1454.1 M235.322 1450.39 Q241.132 1450.39 244.188 1455 Q247.266 1459.58 247.266 1468.33 Q247.266 1477.06 244.188 1481.67 Q241.132 1486.25 235.322 1486.25 Q229.512 1486.25 226.433 1481.67 Q223.378 1477.06 223.378 1468.33 Q223.378 1459.58 226.433 1455 Q229.512 1450.39 235.322 1450.39 Z" fill="#000000" fill-rule="nonzero" fill-opacity="1" /><path clip-path="url(#clip700)" d="M584.443 1451.02 L602.799 1451.02 L602.799 1454.96 L588.725 1454.96 L588.725 1463.43 Q589.744 1463.08 590.762 1462.92 Q591.781 1462.73 592.799 1462.73 Q598.586 1462.73 601.966 1465.9 Q605.346 1469.08 605.346 1474.49 Q605.346 1480.07 601.873 1483.17 Q598.401 1486.25 592.082 1486.25 Q589.906 1486.25 587.637 1485.88 Q585.392 1485.51 582.985 1484.77 L582.985 1480.07 Q585.068 1481.2 587.29 1481.76 Q589.512 1482.32 591.989 1482.32 Q595.994 1482.32 598.332 1480.21 Q600.67 1478.1 600.67 1474.49 Q600.67 1470.88 598.332 1468.77 Q595.994 1466.67 591.989 1466.67 Q590.114 1466.67 588.239 1467.08 Q586.387 1467.5 584.443 1468.38 L584.443 1451.02 Z" fill="#000000" fill-rule="nonzero" fill-opacity="1" /><path clip-path="url(#clip700)" d="M927.696 1481.64 L935.335 1481.64 L935.335 1455.28 L927.024 1456.95 L927.024 1452.69 L935.288 1451.02 L939.964 1451.02 L939.964 1481.64 L947.603 1481.64 L947.603 1485.58 L927.696 1485.58 L927.696 1481.64 Z" fill="#000000" fill-rule="nonzero" fill-opacity="1" /><path clip-path="url(#clip700)" d="M967.047 1454.1 Q963.436 1454.1 961.608 1457.66 Q959.802 1461.2 959.802 1468.33 Q959.802 1475.44 961.608 1479.01 Q963.436 1482.55 967.047 1482.55 Q970.682 1482.55 972.487 1479.01 Q974.316 1475.44 974.316 1468.33 Q974.316 1461.2 972.487 1457.66 Q970.682 1454.1 967.047 1454.1 M967.047 1450.39 Q972.858 1450.39 975.913 1455 Q978.992 1459.58 978.992 1468.33 Q978.992 1477.06 975.913 1481.67 Q972.858 1486.25 967.047 1486.25 Q961.237 1486.25 958.159 1481.67 Q955.103 1477.06 955.103 1468.33 Q955.103 1459.58 958.159 1455 Q961.237 1450.39 967.047 1450.39 Z" fill="#000000" fill-rule="nonzero" fill-opacity="1" /><path clip-path="url(#clip700)" d="M1287.04 1481.64 L1294.68 1481.64 L1294.68 1455.28 L1286.37 1456.95 L1286.37 1452.69 L1294.63 1451.02 L1299.3 1451.02 L1299.3 1481.64 L1306.94 1481.64 L1306.94 1485.58 L1287.04 1485.58 L1287.04 1481.64 Z" fill="#000000" fill-rule="nonzero" fill-opacity="1" /><path clip-path="url(#clip700)" d="M1316.43 1451.02 L1334.79 1451.02 L1334.79 1454.96 L1320.72 1454.96 L1320.72 1463.43 Q1321.74 1463.08 1322.75 1462.92 Q1323.77 1462.73 1324.79 1462.73 Q1330.58 1462.73 1333.96 1465.9 Q1337.34 1469.08 1337.34 1474.49 Q1337.34 1480.07 1333.86 1483.17 Q1330.39 1486.25 1324.07 1486.25 Q1321.9 1486.25 1319.63 1485.88 Q1317.38 1485.51 1314.98 1484.77 L1314.98 1480.07 Q1317.06 1481.2 1319.28 1481.76 Q1321.5 1482.32 1323.98 1482.32 Q1327.99 1482.32 1330.32 1480.21 Q1332.66 1478.1 1332.66 1474.49 Q1332.66 1470.88 1330.32 1468.77 Q1327.99 1466.67 1323.98 1466.67 Q1322.11 1466.67 1320.23 1467.08 Q1318.38 1467.5 1316.43 1468.38 L1316.43 1451.02 Z" fill="#000000" fill-rule="nonzero" fill-opacity="1" /><path clip-path="url(#clip700)" d="M1649.47 1481.64 L1665.79 1481.64 L1665.79 1485.58 L1643.84 1485.58 L1643.84 1481.64 Q1646.5 1478.89 1651.09 1474.26 Q1655.69 1469.61 1656.87 1468.27 Q1659.12 1465.74 1660 1464.01 Q1660.9 1462.25 1660.9 1460.56 Q1660.9 1457.8 1658.96 1456.07 Q1657.04 1454.33 1653.93 1454.33 Q1651.74 1454.33 1649.28 1455.09 Q1646.85 1455.86 1644.07 1457.41 L1644.07 1452.69 Q1646.9 1451.55 1649.35 1450.97 Q1651.81 1450.39 1653.84 1450.39 Q1659.21 1450.39 1662.41 1453.08 Q1665.6 1455.77 1665.6 1460.26 Q1665.6 1462.39 1664.79 1464.31 Q1664 1466.2 1661.9 1468.8 Q1661.32 1469.47 1658.22 1472.69 Q1655.12 1475.88 1649.47 1481.64 Z" fill="#000000" fill-rule="nonzero" fill-opacity="1" /><path clip-path="url(#clip700)" d="M1685.6 1454.1 Q1681.99 1454.1 1680.16 1457.66 Q1678.36 1461.2 1678.36 1468.33 Q1678.36 1475.44 1680.16 1479.01 Q1681.99 1482.55 1685.6 1482.55 Q1689.24 1482.55 1691.04 1479.01 Q1692.87 1475.44 1692.87 1468.33 Q1692.87 1461.2 1691.04 1457.66 Q1689.24 1454.1 1685.6 1454.1 M1685.6 1450.39 Q1691.41 1450.39 1694.47 1455 Q1697.55 1459.58 1697.55 1468.33 Q1697.55 1477.06 1694.47 1481.67 Q1691.41 1486.25 1685.6 1486.25 Q1679.79 1486.25 1676.71 1481.67 Q1673.66 1477.06 1673.66 1468.33 Q1673.66 1459.58 1676.71 1455 Q1679.79 1450.39 1685.6 1450.39 Z" fill="#000000" fill-rule="nonzero" fill-opacity="1" /><path clip-path="url(#clip700)" d="M2008.81 1481.64 L2025.13 1481.64 L2025.13 1485.58 L2003.18 1485.58 L2003.18 1481.64 Q2005.85 1478.89 2010.43 1474.26 Q2015.03 1469.61 2016.22 1468.27 Q2018.46 1465.74 2019.34 1464.01 Q2020.24 1462.25 2020.24 1460.56 Q2020.24 1457.8 2018.3 1456.07 Q2016.38 1454.33 2013.28 1454.33 Q2011.08 1454.33 2008.62 1455.09 Q2006.19 1455.86 2003.41 1457.41 L2003.41 1452.69 Q2006.24 1451.55 2008.69 1450.97 Q2011.15 1450.39 2013.18 1450.39 Q2018.55 1450.39 2021.75 1453.08 Q2024.94 1455.77 2024.94 1460.26 Q2024.94 1462.39 2024.13 1464.31 Q2023.35 1466.2 2021.24 1468.8 Q2020.66 1469.47 2017.56 1472.69 Q2014.46 1475.88 2008.81 1481.64 Z" fill="#000000" fill-rule="nonzero" fill-opacity="1" /><path clip-path="url(#clip700)" d="M2034.99 1451.02 L2053.34 1451.02 L2053.34 1454.96 L2039.27 1454.96 L2039.27 1463.43 Q2040.29 1463.08 2041.31 1462.92 Q2042.33 1462.73 2043.34 1462.73 Q2049.13 1462.73 2052.51 1465.9 Q2055.89 1469.08 2055.89 1474.49 Q2055.89 1480.07 2052.42 1483.17 Q2048.95 1486.25 2042.63 1486.25 Q2040.45 1486.25 2038.18 1485.88 Q2035.94 1485.51 2033.53 1484.77 L2033.53 1480.07 Q2035.61 1481.2 2037.84 1481.76 Q2040.06 1482.32 2042.53 1482.32 Q2046.54 1482.32 2048.88 1480.21 Q2051.22 1478.1 2051.22 1474.49 Q2051.22 1470.88 2048.88 1468.77 Q2046.54 1466.67 2042.53 1466.67 Q2040.66 1466.67 2038.78 1467.08 Q2036.93 1467.5 2034.99 1468.38 L2034.99 1451.02 Z" fill="#000000" fill-rule="nonzero" fill-opacity="1" /><path clip-path="url(#clip700)" d="M957.233 1520.52 L963.726 1520.52 L973.72 1560.69 L983.682 1520.52 L990.908 1520.52 L1000.9 1560.69 L1010.86 1520.52 L1017.39 1520.52 L1005.45 1568.04 L997.369 1568.04 L987.343 1526.79 L977.221 1568.04 L969.137 1568.04 L957.233 1520.52 Z" fill="#000000" fill-rule="nonzero" fill-opacity="1" /><path clip-path="url(#clip700)" d="M1037.7 1550.12 Q1030.6 1550.12 1027.86 1551.75 Q1025.12 1553.37 1025.12 1557.29 Q1025.12 1560.4 1027.16 1562.25 Q1029.23 1564.07 1032.76 1564.07 Q1037.63 1564.07 1040.56 1560.63 Q1043.52 1557.16 1043.52 1551.43 L1043.52 1550.12 L1037.7 1550.12 M1049.38 1547.71 L1049.38 1568.04 L1043.52 1568.04 L1043.52 1562.63 Q1041.51 1565.88 1038.52 1567.44 Q1035.53 1568.97 1031.2 1568.97 Q1025.73 1568.97 1022.48 1565.91 Q1019.27 1562.82 1019.27 1557.67 Q1019.27 1551.65 1023.28 1548.6 Q1027.32 1545.54 1035.31 1545.54 L1043.52 1545.54 L1043.52 1544.97 Q1043.52 1540.93 1040.85 1538.73 Q1038.2 1536.5 1033.4 1536.5 Q1030.34 1536.5 1027.45 1537.23 Q1024.55 1537.97 1021.88 1539.43 L1021.88 1534.02 Q1025.09 1532.78 1028.12 1532.17 Q1031.14 1531.54 1034 1531.54 Q1041.74 1531.54 1045.56 1535.55 Q1049.38 1539.56 1049.38 1547.71 Z" fill="#000000" fill-rule="nonzero" fill-opacity="1" /><path clip-path="url(#clip700)" d="M1061.44 1518.52 L1067.3 1518.52 L1067.3 1568.04 L1061.44 1568.04 L1061.44 1518.52 Z" fill="#000000" fill-rule="nonzero" fill-opacity="1" /><path clip-path="url(#clip700)" d="M1079.55 1518.52 L1085.41 1518.52 L1085.41 1568.04 L1079.55 1568.04 L1079.55 1518.52 Z" fill="#000000" fill-rule="nonzero" fill-opacity="1" /><path clip-path="url(#clip700)" d="M1123.31 1533.76 L1123.31 1539.24 Q1120.83 1537.87 1118.32 1537.2 Q1115.83 1536.5 1113.29 1536.5 Q1107.59 1536.5 1104.44 1540.13 Q1101.29 1543.73 1101.29 1550.25 Q1101.29 1556.78 1104.44 1560.4 Q1107.59 1564 1113.29 1564 Q1115.83 1564 1118.32 1563.33 Q1120.83 1562.63 1123.31 1561.26 L1123.31 1566.68 Q1120.86 1567.82 1118.22 1568.39 Q1115.61 1568.97 1112.65 1568.97 Q1104.6 1568.97 1099.86 1563.91 Q1095.11 1558.85 1095.11 1550.25 Q1095.11 1541.53 1099.89 1536.53 Q1104.69 1531.54 1113.03 1531.54 Q1115.74 1531.54 1118.32 1532.11 Q1120.9 1532.65 1123.31 1533.76 Z" fill="#000000" fill-rule="nonzero" fill-opacity="1" /><path clip-path="url(#clip700)" d="M1133.5 1518.52 L1139.36 1518.52 L1139.36 1568.04 L1133.5 1568.04 L1133.5 1518.52 Z" fill="#000000" fill-rule="nonzero" fill-opacity="1" /><path clip-path="url(#clip700)" d="M1165.42 1536.5 Q1160.71 1536.5 1157.98 1540.19 Q1155.24 1543.85 1155.24 1550.25 Q1155.24 1556.65 1157.94 1560.34 Q1160.68 1564 1165.42 1564 Q1170.1 1564 1172.84 1560.31 Q1175.58 1556.62 1175.58 1550.25 Q1175.58 1543.92 1172.84 1540.23 Q1170.1 1536.5 1165.42 1536.5 M1165.42 1531.54 Q1173.06 1531.54 1177.42 1536.5 Q1181.78 1541.47 1181.78 1550.25 Q1181.78 1559 1177.42 1564 Q1173.06 1568.97 1165.42 1568.97 Q1157.75 1568.97 1153.39 1564 Q1149.06 1559 1149.06 1550.25 Q1149.06 1541.47 1153.39 1536.5 Q1157.75 1531.54 1165.42 1531.54 Z" fill="#000000" fill-rule="nonzero" fill-opacity="1" /><path clip-path="url(#clip700)" d="M1217.14 1533.76 L1217.14 1539.24 Q1214.66 1537.87 1212.15 1537.2 Q1209.67 1536.5 1207.12 1536.5 Q1201.42 1536.5 1198.27 1540.13 Q1195.12 1543.73 1195.12 1550.25 Q1195.12 1556.78 1198.27 1560.4 Q1201.42 1564 1207.12 1564 Q1209.67 1564 1212.15 1563.33 Q1214.66 1562.63 1217.14 1561.26 L1217.14 1566.68 Q1214.69 1567.82 1212.05 1568.39 Q1209.44 1568.97 1206.48 1568.97 Q1198.43 1568.97 1193.69 1563.91 Q1188.94 1558.85 1188.94 1550.25 Q1188.94 1541.53 1193.72 1536.53 Q1198.53 1531.54 1206.86 1531.54 Q1209.57 1531.54 1212.15 1532.11 Q1214.73 1532.65 1217.14 1533.76 Z" fill="#000000" fill-rule="nonzero" fill-opacity="1" /><path clip-path="url(#clip700)" d="M1227.11 1518.52 L1233 1518.52 L1233 1547.77 L1250.47 1532.4 L1257.95 1532.4 L1239.04 1549.07 L1258.74 1568.04 L1251.11 1568.04 L1233 1550.63 L1233 1568.04 L1227.11 1568.04 L1227.11 1518.52 Z" fill="#000000" fill-rule="nonzero" fill-opacity="1" /><path clip-path="url(#clip700)" d="M1279.47 1520.52 L1319.66 1520.52 L1319.66 1525.93 L1302.8 1525.93 L1302.8 1568.04 L1296.33 1568.04 L1296.33 1525.93 L1279.47 1525.93 L1279.47 1520.52 Z" fill="#000000" fill-rule="nonzero" fill-opacity="1" /><path clip-path="url(#clip700)" d="M1323.61 1532.4 L1329.47 1532.4 L1329.47 1568.04 L1323.61 1568.04 L1323.61 1532.4 M1323.61 1518.52 L1329.47 1518.52 L1329.47 1525.93 L1323.61 1525.93 L1323.61 1518.52 Z" fill="#000000" fill-rule="nonzero" fill-opacity="1" /><path clip-path="url(#clip700)" d="M1369.48 1539.24 Q1371.67 1535.29 1374.73 1533.41 Q1377.78 1531.54 1381.92 1531.54 Q1387.49 1531.54 1390.51 1535.45 Q1393.54 1539.33 1393.54 1546.53 L1393.54 1568.04 L1387.65 1568.04 L1387.65 1546.72 Q1387.65 1541.59 1385.84 1539.11 Q1384.02 1536.63 1380.3 1536.63 Q1375.75 1536.63 1373.1 1539.65 Q1370.46 1542.68 1370.46 1547.9 L1370.46 1568.04 L1364.57 1568.04 L1364.57 1546.72 Q1364.57 1541.56 1362.76 1539.11 Q1360.95 1536.63 1357.16 1536.63 Q1352.67 1536.63 1350.03 1539.68 Q1347.39 1542.71 1347.39 1547.9 L1347.39 1568.04 L1341.5 1568.04 L1341.5 1532.4 L1347.39 1532.4 L1347.39 1537.93 Q1349.39 1534.66 1352.19 1533.1 Q1354.99 1531.54 1358.85 1531.54 Q1362.73 1531.54 1365.43 1533.51 Q1368.17 1535.48 1369.48 1539.24 Z" fill="#000000" fill-rule="nonzero" fill-opacity="1" /><path clip-path="url(#clip700)" d="M1435.71 1548.76 L1435.71 1551.62 L1408.78 1551.62 Q1409.17 1557.67 1412.41 1560.85 Q1415.69 1564 1421.52 1564 Q1424.89 1564 1428.04 1563.17 Q1431.22 1562.35 1434.34 1560.69 L1434.34 1566.23 Q1431.19 1567.57 1427.88 1568.27 Q1424.57 1568.97 1421.17 1568.97 Q1412.64 1568.97 1407.64 1564 Q1402.67 1559.04 1402.67 1550.57 Q1402.67 1541.82 1407.38 1536.69 Q1412.13 1531.54 1420.15 1531.54 Q1427.34 1531.54 1431.51 1536.18 Q1435.71 1540.8 1435.71 1548.76 M1429.85 1547.04 Q1429.79 1542.23 1427.15 1539.37 Q1424.54 1536.5 1420.21 1536.5 Q1415.31 1536.5 1412.35 1539.27 Q1409.42 1542.04 1408.98 1547.07 L1429.85 1547.04 Z" fill="#000000" fill-rule="nonzero" fill-opacity="1" /><path clip-path="url(#clip700)" d="M1480.11 1518.58 Q1475.85 1525.9 1473.78 1533.06 Q1471.71 1540.23 1471.71 1547.58 Q1471.71 1554.93 1473.78 1562.16 Q1475.88 1569.35 1480.11 1576.64 L1475.02 1576.64 Q1470.25 1569.16 1467.86 1561.93 Q1465.5 1554.71 1465.5 1547.58 Q1465.5 1540.48 1467.86 1533.29 Q1470.21 1526.09 1475.02 1518.58 L1480.11 1518.58 Z" fill="#000000" fill-rule="nonzero" fill-opacity="1" /><path clip-path="url(#clip700)" d="M1514.2 1533.45 L1514.2 1538.98 Q1511.72 1537.71 1509.04 1537.07 Q1506.37 1536.44 1503.51 1536.44 Q1499.15 1536.44 1496.95 1537.77 Q1494.79 1539.11 1494.79 1541.79 Q1494.79 1543.82 1496.34 1545 Q1497.9 1546.15 1502.61 1547.2 L1504.62 1547.64 Q1510.86 1548.98 1513.47 1551.43 Q1516.11 1553.85 1516.11 1558.21 Q1516.11 1563.17 1512.16 1566.07 Q1508.25 1568.97 1501.37 1568.97 Q1498.51 1568.97 1495.39 1568.39 Q1492.3 1567.85 1488.86 1566.74 L1488.86 1560.69 Q1492.11 1562.38 1495.26 1563.24 Q1498.41 1564.07 1501.5 1564.07 Q1505.64 1564.07 1507.87 1562.66 Q1510.09 1561.23 1510.09 1558.65 Q1510.09 1556.27 1508.47 1554.99 Q1506.88 1553.72 1501.44 1552.54 L1499.4 1552.07 Q1493.96 1550.92 1491.54 1548.56 Q1489.12 1546.18 1489.12 1542.04 Q1489.12 1537.01 1492.68 1534.27 Q1496.25 1531.54 1502.81 1531.54 Q1506.05 1531.54 1508.92 1532.01 Q1511.78 1532.49 1514.2 1533.45 Z" fill="#000000" fill-rule="nonzero" fill-opacity="1" /><path clip-path="url(#clip700)" d="M1555.93 1548.76 L1555.93 1551.62 L1529 1551.62 Q1529.38 1557.67 1532.63 1560.85 Q1535.91 1564 1541.73 1564 Q1545.11 1564 1548.26 1563.17 Q1551.44 1562.35 1554.56 1560.69 L1554.56 1566.23 Q1551.41 1567.57 1548.1 1568.27 Q1544.79 1568.97 1541.38 1568.97 Q1532.85 1568.97 1527.85 1564 Q1522.89 1559.04 1522.89 1550.57 Q1522.89 1541.82 1527.6 1536.69 Q1532.34 1531.54 1540.36 1531.54 Q1547.56 1531.54 1551.73 1536.18 Q1555.93 1540.8 1555.93 1548.76 M1550.07 1547.04 Q1550.01 1542.23 1547.37 1539.37 Q1544.76 1536.5 1540.43 1536.5 Q1535.53 1536.5 1532.57 1539.27 Q1529.64 1542.04 1529.19 1547.07 L1550.07 1547.04 Z" fill="#000000" fill-rule="nonzero" fill-opacity="1" /><path clip-path="url(#clip700)" d="M1591.19 1533.76 L1591.19 1539.24 Q1588.71 1537.87 1586.2 1537.2 Q1583.71 1536.5 1581.17 1536.5 Q1575.47 1536.5 1572.32 1540.13 Q1569.17 1543.73 1569.17 1550.25 Q1569.17 1556.78 1572.32 1560.4 Q1575.47 1564 1581.17 1564 Q1583.71 1564 1586.2 1563.33 Q1588.71 1562.63 1591.19 1561.26 L1591.19 1566.68 Q1588.74 1567.82 1586.1 1568.39 Q1583.49 1568.97 1580.53 1568.97 Q1572.48 1568.97 1567.74 1563.91 Q1562.99 1558.85 1562.99 1550.25 Q1562.99 1541.53 1567.77 1536.53 Q1572.57 1531.54 1580.91 1531.54 Q1583.62 1531.54 1586.2 1532.11 Q1588.77 1532.65 1591.19 1533.76 Z" fill="#000000" fill-rule="nonzero" fill-opacity="1" /><path clip-path="url(#clip700)" d="M1600.46 1518.58 L1605.55 1518.58 Q1610.32 1526.09 1612.68 1533.29 Q1615.07 1540.48 1615.07 1547.58 Q1615.07 1554.71 1612.68 1561.93 Q1610.32 1569.16 1605.55 1576.64 L1600.46 1576.64 Q1604.69 1569.35 1606.76 1562.16 Q1608.86 1554.93 1608.86 1547.58 Q1608.86 1540.23 1606.76 1533.06 Q1604.69 1525.9 1600.46 1518.58 Z" fill="#000000" fill-rule="nonzero" fill-opacity="1" /><polyline clip-path="url(#clip700)" style="stroke:#000000; stroke-linecap:round; stroke-linejoin:round; stroke-width:4; stroke-opacity:1; fill:none" points="219.542,1423.18 219.542,47.2441 "/>
<polyline clip-path="url(#clip700)" style="stroke:#000000; stroke-linecap:round; stroke-linejoin:round; stroke-width:4; stroke-opacity:1; fill:none" points="219.542,1384.24 238.44,1384.24 "/>
<polyline clip-path="url(#clip700)" style="stroke:#000000; stroke-linecap:round; stroke-linejoin:round; stroke-width:4; stroke-opacity:1; fill:none" points="219.542,953.849 238.44,953.849 "/>
<polyline clip-path="url(#clip700)" style="stroke:#000000; stroke-linecap:round; stroke-linejoin:round; stroke-width:4; stroke-opacity:1; fill:none" points="219.542,523.461 238.44,523.461 "/>
<polyline clip-path="url(#clip700)" style="stroke:#000000; stroke-linecap:round; stroke-linejoin:round; stroke-width:4; stroke-opacity:1; fill:none" points="219.542,93.0719 238.44,93.0719 "/>
<path clip-path="url(#clip700)" d="M127.362 1370.04 Q123.751 1370.04 121.922 1373.6 Q120.117 1377.14 120.117 1384.27 Q120.117 1391.38 121.922 1394.94 Q123.751 1398.49 127.362 1398.49 Q130.996 1398.49 132.802 1394.94 Q134.63 1391.38 134.63 1384.27 Q134.63 1377.14 132.802 1373.6 Q130.996 1370.04 127.362 1370.04 M127.362 1366.33 Q133.172 1366.33 136.228 1370.94 Q139.306 1375.52 139.306 1384.27 Q139.306 1393 136.228 1397.61 Q133.172 1402.19 127.362 1402.19 Q121.552 1402.19 118.473 1397.61 Q115.418 1393 115.418 1384.27 Q115.418 1375.52 118.473 1370.94 Q121.552 1366.33 127.362 1366.33 Z" fill="#000000" fill-rule="nonzero" fill-opacity="1" /><path clip-path="url(#clip700)" d="M147.524 1395.64 L152.408 1395.64 L152.408 1401.52 L147.524 1401.52 L147.524 1395.64 Z" fill="#000000" fill-rule="nonzero" fill-opacity="1" /><path clip-path="url(#clip700)" d="M162.64 1366.96 L180.996 1366.96 L180.996 1370.89 L166.922 1370.89 L166.922 1379.37 Q167.94 1379.02 168.959 1378.86 Q169.977 1378.67 170.996 1378.67 Q176.783 1378.67 180.163 1381.84 Q183.542 1385.01 183.542 1390.43 Q183.542 1396.01 180.07 1399.11 Q176.598 1402.19 170.278 1402.19 Q168.102 1402.19 165.834 1401.82 Q163.589 1401.45 161.181 1400.71 L161.181 1396.01 Q163.265 1397.14 165.487 1397.7 Q167.709 1398.25 170.186 1398.25 Q174.19 1398.25 176.528 1396.15 Q178.866 1394.04 178.866 1390.43 Q178.866 1386.82 176.528 1384.71 Q174.19 1382.61 170.186 1382.61 Q168.311 1382.61 166.436 1383.02 Q164.584 1383.44 162.64 1384.32 L162.64 1366.96 Z" fill="#000000" fill-rule="nonzero" fill-opacity="1" /><path clip-path="url(#clip700)" d="M126.205 939.648 Q122.593 939.648 120.765 943.213 Q118.959 946.755 118.959 953.884 Q118.959 960.991 120.765 964.555 Q122.593 968.097 126.205 968.097 Q129.839 968.097 131.644 964.555 Q133.473 960.991 133.473 953.884 Q133.473 946.755 131.644 943.213 Q129.839 939.648 126.205 939.648 M126.205 935.944 Q132.015 935.944 135.07 940.551 Q138.149 945.134 138.149 953.884 Q138.149 962.611 135.07 967.217 Q132.015 971.801 126.205 971.801 Q120.394 971.801 117.316 967.217 Q114.26 962.611 114.26 953.884 Q114.26 945.134 117.316 940.551 Q120.394 935.944 126.205 935.944 Z" fill="#000000" fill-rule="nonzero" fill-opacity="1" /><path clip-path="url(#clip700)" d="M146.366 965.25 L151.251 965.25 L151.251 971.129 L146.366 971.129 L146.366 965.25 Z" fill="#000000" fill-rule="nonzero" fill-opacity="1" /><path clip-path="url(#clip700)" d="M172.014 951.986 Q168.866 951.986 167.015 954.139 Q165.186 956.292 165.186 960.042 Q165.186 963.768 167.015 965.944 Q168.866 968.097 172.014 968.097 Q175.163 968.097 176.991 965.944 Q178.843 963.768 178.843 960.042 Q178.843 956.292 176.991 954.139 Q175.163 951.986 172.014 951.986 M181.297 937.333 L181.297 941.593 Q179.538 940.759 177.732 940.319 Q175.95 939.88 174.19 939.88 Q169.561 939.88 167.107 943.005 Q164.677 946.13 164.329 952.449 Q165.695 950.435 167.755 949.37 Q169.815 948.282 172.292 948.282 Q177.501 948.282 180.51 951.454 Q183.542 954.602 183.542 960.042 Q183.542 965.366 180.394 968.583 Q177.246 971.801 172.014 971.801 Q166.019 971.801 162.848 967.217 Q159.677 962.611 159.677 953.884 Q159.677 945.69 163.565 940.829 Q167.454 935.944 174.005 935.944 Q175.764 935.944 177.547 936.292 Q179.352 936.639 181.297 937.333 Z" fill="#000000" fill-rule="nonzero" fill-opacity="1" /><path clip-path="url(#clip700)" d="M127.269 509.259 Q123.658 509.259 121.83 512.824 Q120.024 516.366 120.024 523.495 Q120.024 530.602 121.83 534.167 Q123.658 537.708 127.269 537.708 Q130.904 537.708 132.709 534.167 Q134.538 530.602 134.538 523.495 Q134.538 516.366 132.709 512.824 Q130.904 509.259 127.269 509.259 M127.269 505.556 Q133.08 505.556 136.135 510.162 Q139.214 514.745 139.214 523.495 Q139.214 532.222 136.135 536.829 Q133.08 541.412 127.269 541.412 Q121.459 541.412 118.381 536.829 Q115.325 532.222 115.325 523.495 Q115.325 514.745 118.381 510.162 Q121.459 505.556 127.269 505.556 Z" fill="#000000" fill-rule="nonzero" fill-opacity="1" /><path clip-path="url(#clip700)" d="M147.431 534.861 L152.316 534.861 L152.316 540.741 L147.431 540.741 L147.431 534.861 Z" fill="#000000" fill-rule="nonzero" fill-opacity="1" /><path clip-path="url(#clip700)" d="M161.32 506.181 L183.542 506.181 L183.542 508.171 L170.996 540.741 L166.112 540.741 L177.917 510.116 L161.32 510.116 L161.32 506.181 Z" fill="#000000" fill-rule="nonzero" fill-opacity="1" /><path clip-path="url(#clip700)" d="M126.459 78.8706 Q122.848 78.8706 121.019 82.4354 Q119.214 85.977 119.214 93.1066 Q119.214 100.213 121.019 103.778 Q122.848 107.32 126.459 107.32 Q130.093 107.32 131.899 103.778 Q133.728 100.213 133.728 93.1066 Q133.728 85.977 131.899 82.4354 Q130.093 78.8706 126.459 78.8706 M126.459 75.1669 Q132.269 75.1669 135.325 79.7734 Q138.404 84.3567 138.404 93.1066 Q138.404 101.833 135.325 106.44 Q132.269 111.023 126.459 111.023 Q120.649 111.023 117.57 106.44 Q114.515 101.833 114.515 93.1066 Q114.515 84.3567 117.57 79.7734 Q120.649 75.1669 126.459 75.1669 Z" fill="#000000" fill-rule="nonzero" fill-opacity="1" /><path clip-path="url(#clip700)" d="M146.621 104.472 L151.505 104.472 L151.505 110.352 L146.621 110.352 L146.621 104.472 Z" fill="#000000" fill-rule="nonzero" fill-opacity="1" /><path clip-path="url(#clip700)" d="M171.69 93.9399 Q168.357 93.9399 166.436 95.7223 Q164.538 97.5047 164.538 100.63 Q164.538 103.755 166.436 105.537 Q168.357 107.32 171.69 107.32 Q175.024 107.32 176.945 105.537 Q178.866 103.732 178.866 100.63 Q178.866 97.5047 176.945 95.7223 Q175.047 93.9399 171.69 93.9399 M167.015 91.9492 Q164.005 91.2085 162.315 89.1483 Q160.649 87.0881 160.649 84.1252 Q160.649 79.9817 163.589 77.5743 Q166.552 75.1669 171.69 75.1669 Q176.852 75.1669 179.792 77.5743 Q182.732 79.9817 182.732 84.1252 Q182.732 87.0881 181.042 89.1483 Q179.376 91.2085 176.389 91.9492 Q179.769 92.7362 181.644 95.0279 Q183.542 97.3196 183.542 100.63 Q183.542 105.653 180.464 108.338 Q177.408 111.023 171.69 111.023 Q165.973 111.023 162.894 108.338 Q159.839 105.653 159.839 100.63 Q159.839 97.3196 161.737 95.0279 Q163.635 92.7362 167.015 91.9492 M165.302 84.565 Q165.302 87.2502 166.968 88.7548 Q168.658 90.2594 171.69 90.2594 Q174.7 90.2594 176.389 88.7548 Q178.102 87.2502 178.102 84.565 Q178.102 81.8798 176.389 80.3752 Q174.7 78.8706 171.69 78.8706 Q168.658 78.8706 166.968 80.3752 Q165.302 81.8798 165.302 84.565 Z" fill="#000000" fill-rule="nonzero" fill-opacity="1" /><path clip-path="url(#clip700)" d="M21.7677 1045.68 L39.6235 1045.68 L39.6235 1037.6 Q39.6235 1033.11 37.3 1030.66 Q34.9765 1028.21 30.6797 1028.21 Q26.4147 1028.21 24.0912 1030.66 Q21.7677 1033.11 21.7677 1037.6 L21.7677 1045.68 M16.4842 1052.11 L16.4842 1037.6 Q16.4842 1029.61 20.1126 1025.54 Q23.7092 1021.43 30.6797 1021.43 Q37.7138 1021.43 41.3104 1025.54 Q44.907 1029.61 44.907 1037.6 L44.907 1045.68 L64.0042 1045.68 L64.0042 1052.11 L16.4842 1052.11 Z" fill="#000000" fill-rule="nonzero" fill-opacity="1" /><path clip-path="url(#clip700)" d="M33.8307 993.548 Q33.2578 994.535 33.0032 995.713 Q32.7167 996.858 32.7167 998.259 Q32.7167 1003.22 35.9632 1005.9 Q39.1779 1008.54 45.2253 1008.54 L64.0042 1008.54 L64.0042 1014.43 L28.3562 1014.43 L28.3562 1008.54 L33.8944 1008.54 Q30.6479 1006.69 29.0883 1003.73 Q27.4968 1000.77 27.4968 996.54 Q27.4968 995.935 27.5923 995.203 Q27.656 994.471 27.8151 993.58 L33.8307 993.548 Z" fill="#000000" fill-rule="nonzero" fill-opacity="1" /><path clip-path="url(#clip700)" d="M44.7161 958.346 L47.5806 958.346 L47.5806 985.273 Q53.6281 984.891 56.8109 981.644 Q59.9619 978.366 59.9619 972.541 Q59.9619 969.168 59.1344 966.017 Q58.3069 962.834 56.6518 959.715 L62.1899 959.715 Q63.5267 962.866 64.227 966.176 Q64.9272 969.486 64.9272 972.892 Q64.9272 981.422 59.9619 986.419 Q54.9967 991.384 46.5303 991.384 Q37.7774 991.384 32.6531 986.673 Q27.4968 981.931 27.4968 973.91 Q27.4968 966.717 32.1438 962.547 Q36.7589 958.346 44.7161 958.346 M42.9973 964.202 Q38.1912 964.266 35.3266 966.908 Q32.4621 969.518 32.4621 973.846 Q32.4621 978.748 35.2312 981.708 Q38.0002 984.636 43.0292 985.082 L42.9973 964.202 Z" fill="#000000" fill-rule="nonzero" fill-opacity="1" /><path clip-path="url(#clip700)" d="M33.7671 925.276 L14.479 925.276 L14.479 919.42 L64.0042 919.42 L64.0042 925.276 L58.657 925.276 Q61.8398 927.122 63.3994 929.955 Q64.9272 932.756 64.9272 936.702 Q64.9272 943.164 59.771 947.238 Q54.6147 951.28 46.212 951.28 Q37.8093 951.28 32.6531 947.238 Q27.4968 943.164 27.4968 936.702 Q27.4968 932.756 29.0564 929.955 Q30.5842 927.122 33.7671 925.276 M46.212 945.233 Q52.6732 945.233 56.3653 942.591 Q60.0256 939.917 60.0256 935.27 Q60.0256 930.623 56.3653 927.95 Q52.6732 925.276 46.212 925.276 Q39.7508 925.276 36.0905 927.95 Q32.3984 930.623 32.3984 935.27 Q32.3984 939.917 36.0905 942.591 Q39.7508 945.233 46.212 945.233 Z" fill="#000000" fill-rule="nonzero" fill-opacity="1" /><path clip-path="url(#clip700)" d="M28.3562 907.357 L28.3562 901.5 L64.0042 901.5 L64.0042 907.357 L28.3562 907.357 M14.479 907.357 L14.479 901.5 L21.895 901.5 L21.895 907.357 L14.479 907.357 Z" fill="#000000" fill-rule="nonzero" fill-opacity="1" /><path clip-path="url(#clip700)" d="M29.7248 863.592 L35.1993 863.592 Q33.8307 866.075 33.1623 868.589 Q32.4621 871.072 32.4621 873.618 Q32.4621 879.316 36.0905 882.467 Q39.6872 885.618 46.212 885.618 Q52.7369 885.618 56.3653 882.467 Q59.9619 879.316 59.9619 873.618 Q59.9619 871.072 59.2935 868.589 Q58.5933 866.075 57.2247 863.592 L62.6355 863.592 Q63.7814 866.043 64.3543 868.685 Q64.9272 871.295 64.9272 874.255 Q64.9272 882.308 59.8664 887.05 Q54.8057 891.792 46.212 891.792 Q37.491 891.792 32.4939 887.018 Q27.4968 882.212 27.4968 873.873 Q27.4968 871.168 28.0697 868.589 Q28.6108 866.011 29.7248 863.592 Z" fill="#000000" fill-rule="nonzero" fill-opacity="1" /><path clip-path="url(#clip700)" d="M18.2347 847.614 L28.3562 847.614 L28.3562 835.551 L32.9077 835.551 L32.9077 847.614 L52.2594 847.614 Q56.6199 847.614 57.8613 846.437 Q59.1026 845.227 59.1026 841.567 L59.1026 835.551 L64.0042 835.551 L64.0042 841.567 Q64.0042 848.346 61.4897 850.925 Q58.9434 853.503 52.2594 853.503 L32.9077 853.503 L32.9077 857.8 L28.3562 857.8 L28.3562 853.503 L18.2347 853.503 L18.2347 847.614 Z" fill="#000000" fill-rule="nonzero" fill-opacity="1" /><path clip-path="url(#clip700)" d="M28.3562 827.849 L28.3562 821.992 L64.0042 821.992 L64.0042 827.849 L28.3562 827.849 M14.479 827.849 L14.479 821.992 L21.895 821.992 L21.895 827.849 L14.479 827.849 Z" fill="#000000" fill-rule="nonzero" fill-opacity="1" /><path clip-path="url(#clip700)" d="M32.4621 795.925 Q32.4621 800.636 36.1542 803.373 Q39.8145 806.11 46.212 806.11 Q52.6095 806.11 56.3017 803.405 Q59.9619 800.667 59.9619 795.925 Q59.9619 791.246 56.2698 788.509 Q52.5777 785.772 46.212 785.772 Q39.8781 785.772 36.186 788.509 Q32.4621 791.246 32.4621 795.925 M27.4968 795.925 Q27.4968 788.286 32.4621 783.926 Q37.4273 779.565 46.212 779.565 Q54.9649 779.565 59.9619 783.926 Q64.9272 788.286 64.9272 795.925 Q64.9272 803.596 59.9619 807.956 Q54.9649 812.285 46.212 812.285 Q37.4273 812.285 32.4621 807.956 Q27.4968 803.596 27.4968 795.925 Z" fill="#000000" fill-rule="nonzero" fill-opacity="1" /><path clip-path="url(#clip700)" d="M42.4881 740.225 L64.0042 740.225 L64.0042 746.081 L42.679 746.081 Q37.6183 746.081 35.1038 748.055 Q32.5894 750.028 32.5894 753.975 Q32.5894 758.717 35.6131 761.455 Q38.6368 764.192 43.8567 764.192 L64.0042 764.192 L64.0042 770.08 L28.3562 770.08 L28.3562 764.192 L33.8944 764.192 Q30.6797 762.091 29.0883 759.258 Q27.4968 756.394 27.4968 752.67 Q27.4968 746.527 31.3163 743.376 Q35.1038 740.225 42.4881 740.225 Z" fill="#000000" fill-rule="nonzero" fill-opacity="1" /><path clip-path="url(#clip700)" d="M22.818 691.686 L46.4666 700.407 L46.4666 682.934 L22.818 691.686 M16.4842 695.315 L16.4842 688.026 L64.0042 669.916 L64.0042 676.6 L51.8138 680.928 L51.8138 702.349 L64.0042 706.678 L64.0042 713.457 L16.4842 695.315 Z" fill="#000000" fill-rule="nonzero" fill-opacity="1" /><path clip-path="url(#clip700)" d="M29.7248 638.724 L35.1993 638.724 Q33.8307 641.206 33.1623 643.721 Q32.4621 646.203 32.4621 648.75 Q32.4621 654.447 36.0905 657.598 Q39.6872 660.749 46.212 660.749 Q52.7369 660.749 56.3653 657.598 Q59.9619 654.447 59.9619 648.75 Q59.9619 646.203 59.2935 643.721 Q58.5933 641.206 57.2247 638.724 L62.6355 638.724 Q63.7814 641.175 64.3543 643.816 Q64.9272 646.426 64.9272 649.386 Q64.9272 657.439 59.8664 662.181 Q54.8057 666.924 46.212 666.924 Q37.491 666.924 32.4939 662.15 Q27.4968 657.343 27.4968 649.004 Q27.4968 646.299 28.0697 643.721 Q28.6108 641.143 29.7248 638.724 Z" fill="#000000" fill-rule="nonzero" fill-opacity="1" /><path clip-path="url(#clip700)" d="M29.7248 602.885 L35.1993 602.885 Q33.8307 605.367 33.1623 607.882 Q32.4621 610.365 32.4621 612.911 Q32.4621 618.608 36.0905 621.759 Q39.6872 624.91 46.212 624.91 Q52.7369 624.91 56.3653 621.759 Q59.9619 618.608 59.9619 612.911 Q59.9619 610.365 59.2935 607.882 Q58.5933 605.367 57.2247 602.885 L62.6355 602.885 Q63.7814 605.336 64.3543 607.977 Q64.9272 610.587 64.9272 613.547 Q64.9272 621.6 59.8664 626.342 Q54.8057 631.085 46.212 631.085 Q37.491 631.085 32.4939 626.311 Q27.4968 621.505 27.4968 613.165 Q27.4968 610.46 28.0697 607.882 Q28.6108 605.304 29.7248 602.885 Z" fill="#000000" fill-rule="nonzero" fill-opacity="1" /><path clip-path="url(#clip700)" d="M49.9359 593.304 L28.3562 593.304 L28.3562 587.448 L49.7131 587.448 Q54.7739 587.448 57.3202 585.475 Q59.8346 583.501 59.8346 579.555 Q59.8346 574.812 56.8109 572.075 Q53.7872 569.306 48.5673 569.306 L28.3562 569.306 L28.3562 563.449 L64.0042 563.449 L64.0042 569.306 L58.5296 569.306 Q61.7762 571.438 63.3676 574.271 Q64.9272 577.072 64.9272 580.796 Q64.9272 586.939 61.1078 590.122 Q57.2883 593.304 49.9359 593.304 M27.4968 578.568 L27.4968 578.568 Z" fill="#000000" fill-rule="nonzero" fill-opacity="1" /><path clip-path="url(#clip700)" d="M33.8307 530.73 Q33.2578 531.716 33.0032 532.894 Q32.7167 534.04 32.7167 535.44 Q32.7167 540.405 35.9632 543.079 Q39.1779 545.721 45.2253 545.721 L64.0042 545.721 L64.0042 551.609 L28.3562 551.609 L28.3562 545.721 L33.8944 545.721 Q30.6479 543.875 29.0883 540.915 Q27.4968 537.955 27.4968 533.721 Q27.4968 533.117 27.5923 532.385 Q27.656 531.653 27.8151 530.761 L33.8307 530.73 Z" fill="#000000" fill-rule="nonzero" fill-opacity="1" /><path clip-path="url(#clip700)" d="M46.0847 508.386 Q46.0847 515.484 47.7079 518.221 Q49.3312 520.958 53.2461 520.958 Q56.3653 520.958 58.2114 518.921 Q60.0256 516.852 60.0256 513.319 Q60.0256 508.45 56.5881 505.521 Q53.1188 502.561 47.3897 502.561 L46.0847 502.561 L46.0847 508.386 M43.6657 496.705 L64.0042 496.705 L64.0042 502.561 L58.5933 502.561 Q61.8398 504.567 63.3994 507.558 Q64.9272 510.55 64.9272 514.879 Q64.9272 520.353 61.8716 523.6 Q58.7843 526.815 53.6281 526.815 Q47.6125 526.815 44.5569 522.804 Q41.5014 518.762 41.5014 510.773 L41.5014 502.561 L40.9285 502.561 Q36.8862 502.561 34.6901 505.235 Q32.4621 507.877 32.4621 512.683 Q32.4621 515.738 33.1941 518.635 Q33.9262 521.531 35.3903 524.205 L29.9795 524.205 Q28.7381 520.99 28.1334 517.966 Q27.4968 514.943 27.4968 512.078 Q27.4968 504.344 31.5072 500.524 Q35.5176 496.705 43.6657 496.705 Z" fill="#000000" fill-rule="nonzero" fill-opacity="1" /><path clip-path="url(#clip700)" d="M29.7248 458.988 L35.1993 458.988 Q33.8307 461.471 33.1623 463.985 Q32.4621 466.468 32.4621 469.014 Q32.4621 474.711 36.0905 477.862 Q39.6872 481.013 46.212 481.013 Q52.7369 481.013 56.3653 477.862 Q59.9619 474.711 59.9619 469.014 Q59.9619 466.468 59.2935 463.985 Q58.5933 461.471 57.2247 458.988 L62.6355 458.988 Q63.7814 461.439 64.3543 464.081 Q64.9272 466.691 64.9272 469.651 Q64.9272 477.703 59.8664 482.446 Q54.8057 487.188 46.212 487.188 Q37.491 487.188 32.4939 482.414 Q27.4968 477.608 27.4968 469.269 Q27.4968 466.563 28.0697 463.985 Q28.6108 461.407 29.7248 458.988 Z" fill="#000000" fill-rule="nonzero" fill-opacity="1" /><path clip-path="url(#clip700)" d="M67.3143 433.971 Q73.68 436.453 75.6216 438.809 Q77.5631 441.164 77.5631 445.111 L77.5631 449.79 L72.6615 449.79 L72.6615 446.352 Q72.6615 443.933 71.5157 442.596 Q70.3699 441.26 66.1048 439.636 L63.4312 438.586 L28.3562 453.004 L28.3562 446.798 L56.238 435.658 L28.3562 424.518 L28.3562 418.311 L67.3143 433.971 Z" fill="#000000" fill-rule="nonzero" fill-opacity="1" /><polyline clip-path="url(#clip702)" style="stroke:#009af9; stroke-linecap:round; stroke-linejoin:round; stroke-width:4; stroke-opacity:1; fill:none" points="338.531,1384.24 410.638,1384.24 473.782,649.995 538.75,602.652 603.421,596.627 667.421,535.081 732.475,496.346 796.568,500.65 861.187,447.712 925.342,429.636 989.327,360.774 1053.15,389.61 1119.07,353.888 1181.96,387.888 1244.63,320.317 1306.42,268.671 1367.89,252.746 1430.03,221.328 1491.04,190.34 1551.79,197.656 1612.79,235.961 1673.5,167.529 1734.59,150.744 1796.17,146.44 1857.94,131.376 1919.27,146.87 1981.81,127.933 2044.82,133.528 2106.37,117.174 2168.28,93.5023 2229.84,90.4896 2292.38,86.1857 "/>
<polyline clip-path="url(#clip702)" style="stroke:#e26f46; stroke-linecap:round; stroke-linejoin:round; stroke-width:4; stroke-opacity:1; fill:none" points="279.916,1384.24 307.832,1384.24 318.015,1282.24 327.535,640.957 337.312,524.321 347.111,494.194 356.55,469.232 366.342,444.7 376.168,426.193 385.708,397.357 395.502,345.28 405.224,334.52 414.746,340.976 424.442,319.026 433.947,272.974 443.677,286.747 453.396,278.569 462.773,286.747 472.464,247.151 482.135,215.302 491.564,231.657 501.242,192.492 510.744,186.466 520.477,172.263 530.136,183.884 539.613,170.972 549.288,170.111 558.697,170.111 568.374,181.302 577.945,193.783 587.289,186.466 596.947,154.617 "/>
<path clip-path="url(#clip700)" d="M1769.02 1377.32 L2281.65 1377.32 L2281.65 1221.8 L1769.02 1221.8  Z" fill="#ffffff" fill-rule="evenodd" fill-opacity="1"/>
<polyline clip-path="url(#clip700)" style="stroke:#000000; stroke-linecap:round; stroke-linejoin:round; stroke-width:4; stroke-opacity:1; fill:none" points="1769.02,1377.32 2281.65,1377.32 2281.65,1221.8 1769.02,1221.8 1769.02,1377.32 "/>
<polyline clip-path="url(#clip700)" style="stroke:#009af9; stroke-linecap:round; stroke-linejoin:round; stroke-width:4; stroke-opacity:1; fill:none" points="1792.73,1273.64 1934.94,1273.64 "/>
<path clip-path="url(#clip700)" d="M1958.64 1256.36 L1978.5 1256.36 L1978.5 1260.29 L1963.32 1260.29 L1963.32 1270.48 L1977.02 1270.48 L1977.02 1274.41 L1963.32 1274.41 L1963.32 1290.92 L1958.64 1290.92 L1958.64 1256.36 Z" fill="#000000" fill-rule="nonzero" fill-opacity="1" /><path clip-path="url(#clip700)" d="M1982.69 1280.68 L1982.69 1264.99 L1986.95 1264.99 L1986.95 1280.52 Q1986.95 1284.2 1988.39 1286.05 Q1989.82 1287.88 1992.69 1287.88 Q1996.14 1287.88 1998.13 1285.68 Q2000.15 1283.48 2000.15 1279.69 L2000.15 1264.99 L2004.41 1264.99 L2004.41 1290.92 L2000.15 1290.92 L2000.15 1286.93 Q1998.6 1289.29 1996.54 1290.45 Q1994.5 1291.59 1991.79 1291.59 Q1987.32 1291.59 1985.01 1288.81 Q1982.69 1286.03 1982.69 1280.68 M1993.41 1264.36 L1993.41 1264.36 Z" fill="#000000" fill-rule="nonzero" fill-opacity="1" /><path clip-path="url(#clip700)" d="M2013.18 1254.9 L2017.44 1254.9 L2017.44 1290.92 L2013.18 1290.92 L2013.18 1254.9 Z" fill="#000000" fill-rule="nonzero" fill-opacity="1" /><path clip-path="url(#clip700)" d="M2026.35 1254.9 L2030.61 1254.9 L2030.61 1290.92 L2026.35 1290.92 L2026.35 1254.9 Z" fill="#000000" fill-rule="nonzero" fill-opacity="1" /><path clip-path="url(#clip700)" d="M2059.45 1274.41 L2059.45 1287.07 L2066.95 1287.07 Q2070.73 1287.07 2072.53 1285.52 Q2074.36 1283.95 2074.36 1280.73 Q2074.36 1277.49 2072.53 1275.96 Q2070.73 1274.41 2066.95 1274.41 L2059.45 1274.41 M2059.45 1260.2 L2059.45 1270.61 L2066.37 1270.61 Q2069.8 1270.61 2071.47 1269.34 Q2073.16 1268.05 2073.16 1265.41 Q2073.16 1262.79 2071.47 1261.49 Q2069.8 1260.2 2066.37 1260.2 L2059.45 1260.2 M2054.78 1256.36 L2066.72 1256.36 Q2072.07 1256.36 2074.96 1258.58 Q2077.85 1260.8 2077.85 1264.9 Q2077.85 1268.07 2076.37 1269.94 Q2074.89 1271.82 2072.02 1272.28 Q2075.47 1273.02 2077.37 1275.38 Q2079.29 1277.72 2079.29 1281.24 Q2079.29 1285.87 2076.14 1288.39 Q2072.99 1290.92 2067.18 1290.92 L2054.78 1290.92 L2054.78 1256.36 Z" fill="#000000" fill-rule="nonzero" fill-opacity="1" /><path clip-path="url(#clip700)" d="M2098.9 1277.88 Q2093.73 1277.88 2091.74 1279.06 Q2089.75 1280.24 2089.75 1283.09 Q2089.75 1285.36 2091.23 1286.7 Q2092.74 1288.02 2095.31 1288.02 Q2098.85 1288.02 2100.98 1285.52 Q2103.13 1283 2103.13 1278.83 L2103.13 1277.88 L2098.9 1277.88 M2107.39 1276.12 L2107.39 1290.92 L2103.13 1290.92 L2103.13 1286.98 Q2101.67 1289.34 2099.5 1290.48 Q2097.32 1291.59 2094.17 1291.59 Q2090.19 1291.59 2087.83 1289.36 Q2085.49 1287.12 2085.49 1283.37 Q2085.49 1278.99 2088.41 1276.77 Q2091.35 1274.55 2097.16 1274.55 L2103.13 1274.55 L2103.13 1274.13 Q2103.13 1271.19 2101.19 1269.6 Q2099.27 1267.98 2095.77 1267.98 Q2093.55 1267.98 2091.44 1268.51 Q2089.34 1269.04 2087.39 1270.11 L2087.39 1266.17 Q2089.73 1265.27 2091.93 1264.83 Q2094.13 1264.36 2096.21 1264.36 Q2101.84 1264.36 2104.61 1267.28 Q2107.39 1270.2 2107.39 1276.12 Z" fill="#000000" fill-rule="nonzero" fill-opacity="1" /><path clip-path="url(#clip700)" d="M2120.38 1257.63 L2120.38 1264.99 L2129.15 1264.99 L2129.15 1268.3 L2120.38 1268.3 L2120.38 1282.37 Q2120.38 1285.54 2121.23 1286.45 Q2122.11 1287.35 2124.78 1287.35 L2129.15 1287.35 L2129.15 1290.92 L2124.78 1290.92 Q2119.85 1290.92 2117.97 1289.09 Q2116.1 1287.23 2116.1 1282.37 L2116.1 1268.3 L2112.97 1268.3 L2112.97 1264.99 L2116.1 1264.99 L2116.1 1257.63 L2120.38 1257.63 Z" fill="#000000" fill-rule="nonzero" fill-opacity="1" /><path clip-path="url(#clip700)" d="M2153.41 1265.98 L2153.41 1269.97 Q2151.6 1268.97 2149.78 1268.48 Q2147.97 1267.98 2146.12 1267.98 Q2141.97 1267.98 2139.68 1270.61 Q2137.39 1273.23 2137.39 1277.98 Q2137.39 1282.72 2139.68 1285.36 Q2141.97 1287.98 2146.12 1287.98 Q2147.97 1287.98 2149.78 1287.49 Q2151.6 1286.98 2153.41 1285.98 L2153.41 1289.92 Q2151.63 1290.75 2149.71 1291.17 Q2147.81 1291.59 2145.66 1291.59 Q2139.8 1291.59 2136.35 1287.91 Q2132.9 1284.23 2132.9 1277.98 Q2132.9 1271.63 2136.37 1268 Q2139.87 1264.36 2145.93 1264.36 Q2147.9 1264.36 2149.78 1264.78 Q2151.65 1265.17 2153.41 1265.98 Z" fill="#000000" fill-rule="nonzero" fill-opacity="1" /><path clip-path="url(#clip700)" d="M2182.37 1275.27 L2182.37 1290.92 L2178.11 1290.92 L2178.11 1275.41 Q2178.11 1271.73 2176.67 1269.9 Q2175.24 1268.07 2172.37 1268.07 Q2168.92 1268.07 2166.93 1270.27 Q2164.94 1272.47 2164.94 1276.26 L2164.94 1290.92 L2160.66 1290.92 L2160.66 1254.9 L2164.94 1254.9 L2164.94 1269.02 Q2166.47 1266.68 2168.53 1265.52 Q2170.61 1264.36 2173.32 1264.36 Q2177.78 1264.36 2180.08 1267.14 Q2182.37 1269.9 2182.37 1275.27 Z" fill="#000000" fill-rule="nonzero" fill-opacity="1" /><polyline clip-path="url(#clip700)" style="stroke:#e26f46; stroke-linecap:round; stroke-linejoin:round; stroke-width:4; stroke-opacity:1; fill:none" points="1792.73,1325.48 1934.94,1325.48 "/>
<path clip-path="url(#clip700)" d="M1980.89 1309.33 L1980.89 1313.89 Q1978.23 1312.62 1975.86 1311.99 Q1973.5 1311.37 1971.3 1311.37 Q1967.49 1311.37 1965.4 1312.85 Q1963.34 1314.33 1963.34 1317.06 Q1963.34 1319.35 1964.71 1320.53 Q1966.1 1321.69 1969.94 1322.41 L1972.76 1322.99 Q1977.99 1323.98 1980.47 1326.51 Q1982.97 1329.01 1982.97 1333.22 Q1982.97 1338.24 1979.59 1340.83 Q1976.23 1343.43 1969.73 1343.43 Q1967.28 1343.43 1964.5 1342.87 Q1961.74 1342.32 1958.78 1341.23 L1958.78 1336.41 Q1961.63 1338.01 1964.36 1338.82 Q1967.09 1339.63 1969.73 1339.63 Q1973.73 1339.63 1975.91 1338.06 Q1978.09 1336.48 1978.09 1333.57 Q1978.09 1331.02 1976.51 1329.58 Q1974.96 1328.15 1971.4 1327.43 L1968.55 1326.88 Q1963.32 1325.83 1960.98 1323.61 Q1958.64 1321.39 1958.64 1317.43 Q1958.64 1312.85 1961.86 1310.21 Q1965.1 1307.57 1970.77 1307.57 Q1973.2 1307.57 1975.73 1308.01 Q1978.25 1308.45 1980.89 1309.33 Z" fill="#000000" fill-rule="nonzero" fill-opacity="1" /><path clip-path="url(#clip700)" d="M1989.64 1332.52 L1989.64 1316.83 L1993.9 1316.83 L1993.9 1332.36 Q1993.9 1336.04 1995.33 1337.89 Q1996.77 1339.72 1999.64 1339.72 Q2003.09 1339.72 2005.08 1337.52 Q2007.09 1335.32 2007.09 1331.53 L2007.09 1316.83 L2011.35 1316.83 L2011.35 1342.76 L2007.09 1342.76 L2007.09 1338.77 Q2005.54 1341.13 2003.48 1342.29 Q2001.44 1343.43 1998.73 1343.43 Q1994.27 1343.43 1991.95 1340.65 Q1989.64 1337.87 1989.64 1332.52 M2000.36 1316.2 L2000.36 1316.2 Z" fill="#000000" fill-rule="nonzero" fill-opacity="1" /><path clip-path="url(#clip700)" d="M2038.73 1329.82 Q2038.73 1325.12 2036.79 1322.45 Q2034.87 1319.77 2031.49 1319.77 Q2028.11 1319.77 2026.17 1322.45 Q2024.24 1325.12 2024.24 1329.82 Q2024.24 1334.51 2026.17 1337.2 Q2028.11 1339.86 2031.49 1339.86 Q2034.87 1339.86 2036.79 1337.2 Q2038.73 1334.51 2038.73 1329.82 M2024.24 1320.76 Q2025.59 1318.45 2027.62 1317.34 Q2029.68 1316.2 2032.53 1316.2 Q2037.25 1316.2 2040.19 1319.95 Q2043.16 1323.7 2043.16 1329.82 Q2043.16 1335.93 2040.19 1339.68 Q2037.25 1343.43 2032.53 1343.43 Q2029.68 1343.43 2027.62 1342.32 Q2025.59 1341.18 2024.24 1338.87 L2024.24 1342.76 L2019.96 1342.76 L2019.96 1306.74 L2024.24 1306.74 L2024.24 1320.76 Z" fill="#000000" fill-rule="nonzero" fill-opacity="1" /><path clip-path="url(#clip700)" d="M2066.74 1317.59 L2066.74 1321.62 Q2064.94 1320.7 2062.99 1320.23 Q2061.05 1319.77 2058.97 1319.77 Q2055.79 1319.77 2054.2 1320.74 Q2052.62 1321.71 2052.62 1323.66 Q2052.62 1325.14 2053.76 1326 Q2054.89 1326.83 2058.32 1327.59 L2059.78 1327.92 Q2064.31 1328.89 2066.21 1330.67 Q2068.13 1332.43 2068.13 1335.6 Q2068.13 1339.21 2065.26 1341.32 Q2062.42 1343.43 2057.42 1343.43 Q2055.33 1343.43 2053.06 1343.01 Q2050.82 1342.62 2048.32 1341.81 L2048.32 1337.41 Q2050.68 1338.63 2052.97 1339.26 Q2055.26 1339.86 2057.51 1339.86 Q2060.52 1339.86 2062.14 1338.84 Q2063.76 1337.8 2063.76 1335.93 Q2063.76 1334.19 2062.58 1333.26 Q2061.42 1332.34 2057.46 1331.48 L2055.98 1331.14 Q2052.02 1330.3 2050.26 1328.59 Q2048.5 1326.85 2048.5 1323.84 Q2048.5 1320.19 2051.1 1318.2 Q2053.69 1316.2 2058.46 1316.2 Q2060.82 1316.2 2062.9 1316.55 Q2064.98 1316.9 2066.74 1317.59 Z" fill="#000000" fill-rule="nonzero" fill-opacity="1" /><path clip-path="url(#clip700)" d="M2086.7 1329.72 Q2081.54 1329.72 2079.54 1330.9 Q2077.55 1332.08 2077.55 1334.93 Q2077.55 1337.2 2079.04 1338.54 Q2080.54 1339.86 2083.11 1339.86 Q2086.65 1339.86 2088.78 1337.36 Q2090.93 1334.84 2090.93 1330.67 L2090.93 1329.72 L2086.7 1329.72 M2095.19 1327.96 L2095.19 1342.76 L2090.93 1342.76 L2090.93 1338.82 Q2089.48 1341.18 2087.3 1342.32 Q2085.12 1343.43 2081.98 1343.43 Q2077.99 1343.43 2075.63 1341.2 Q2073.29 1338.96 2073.29 1335.21 Q2073.29 1330.83 2076.21 1328.61 Q2079.15 1326.39 2084.96 1326.39 L2090.93 1326.39 L2090.93 1325.97 Q2090.93 1323.03 2088.99 1321.44 Q2087.07 1319.82 2083.57 1319.82 Q2081.35 1319.82 2079.24 1320.35 Q2077.14 1320.88 2075.19 1321.95 L2075.19 1318.01 Q2077.53 1317.11 2079.73 1316.67 Q2081.93 1316.2 2084.01 1316.2 Q2089.64 1316.2 2092.41 1319.12 Q2095.19 1322.04 2095.19 1327.96 Z" fill="#000000" fill-rule="nonzero" fill-opacity="1" /><path clip-path="url(#clip700)" d="M2124.15 1321.81 Q2125.75 1318.94 2127.97 1317.57 Q2130.19 1316.2 2133.2 1316.2 Q2137.25 1316.2 2139.45 1319.05 Q2141.65 1321.88 2141.65 1327.11 L2141.65 1342.76 L2137.37 1342.76 L2137.37 1327.25 Q2137.37 1323.52 2136.05 1321.71 Q2134.73 1319.91 2132.02 1319.91 Q2128.71 1319.91 2126.79 1322.11 Q2124.87 1324.31 2124.87 1328.1 L2124.87 1342.76 L2120.59 1342.76 L2120.59 1327.25 Q2120.59 1323.5 2119.27 1321.71 Q2117.95 1319.91 2115.19 1319.91 Q2111.93 1319.91 2110.01 1322.13 Q2108.09 1324.33 2108.09 1328.1 L2108.09 1342.76 L2103.8 1342.76 L2103.8 1316.83 L2108.09 1316.83 L2108.09 1320.86 Q2109.54 1318.47 2111.58 1317.34 Q2113.62 1316.2 2116.42 1316.2 Q2119.24 1316.2 2121.21 1317.64 Q2123.2 1319.07 2124.15 1321.81 Z" fill="#000000" fill-rule="nonzero" fill-opacity="1" /><path clip-path="url(#clip700)" d="M2154.27 1338.87 L2154.27 1352.62 L2149.98 1352.62 L2149.98 1316.83 L2154.27 1316.83 L2154.27 1320.76 Q2155.61 1318.45 2157.65 1317.34 Q2159.71 1316.2 2162.55 1316.2 Q2167.28 1316.2 2170.22 1319.95 Q2173.18 1323.7 2173.18 1329.82 Q2173.18 1335.93 2170.22 1339.68 Q2167.28 1343.43 2162.55 1343.43 Q2159.71 1343.43 2157.65 1342.32 Q2155.61 1341.18 2154.27 1338.87 M2168.76 1329.82 Q2168.76 1325.12 2166.81 1322.45 Q2164.89 1319.77 2161.51 1319.77 Q2158.13 1319.77 2156.19 1322.45 Q2154.27 1325.12 2154.27 1329.82 Q2154.27 1334.51 2156.19 1337.2 Q2158.13 1339.86 2161.51 1339.86 Q2164.89 1339.86 2166.81 1337.2 Q2168.76 1334.51 2168.76 1329.82 Z" fill="#000000" fill-rule="nonzero" fill-opacity="1" /><path clip-path="url(#clip700)" d="M2180.24 1306.74 L2184.5 1306.74 L2184.5 1342.76 L2180.24 1342.76 L2180.24 1306.74 Z" fill="#000000" fill-rule="nonzero" fill-opacity="1" /><path clip-path="url(#clip700)" d="M2193.41 1316.83 L2197.67 1316.83 L2197.67 1342.76 L2193.41 1342.76 L2193.41 1316.83 M2193.41 1306.74 L2197.67 1306.74 L2197.67 1312.13 L2193.41 1312.13 L2193.41 1306.74 Z" fill="#000000" fill-rule="nonzero" fill-opacity="1" /><path clip-path="url(#clip700)" d="M2228.13 1327.11 L2228.13 1342.76 L2223.87 1342.76 L2223.87 1327.25 Q2223.87 1323.57 2222.44 1321.74 Q2221 1319.91 2218.13 1319.91 Q2214.68 1319.91 2212.69 1322.11 Q2210.7 1324.31 2210.7 1328.1 L2210.7 1342.76 L2206.42 1342.76 L2206.42 1316.83 L2210.7 1316.83 L2210.7 1320.86 Q2212.23 1318.52 2214.29 1317.36 Q2216.37 1316.2 2219.08 1316.2 Q2223.55 1316.2 2225.84 1318.98 Q2228.13 1321.74 2228.13 1327.11 Z" fill="#000000" fill-rule="nonzero" fill-opacity="1" /><path clip-path="url(#clip700)" d="M2253.69 1329.49 Q2253.69 1324.86 2251.77 1322.32 Q2249.87 1319.77 2246.42 1319.77 Q2242.99 1319.77 2241.07 1322.32 Q2239.17 1324.86 2239.17 1329.49 Q2239.17 1334.1 2241.07 1336.64 Q2242.99 1339.19 2246.42 1339.19 Q2249.87 1339.19 2251.77 1336.64 Q2253.69 1334.1 2253.69 1329.49 M2257.95 1339.54 Q2257.95 1346.16 2255.01 1349.38 Q2252.07 1352.62 2246 1352.62 Q2243.76 1352.62 2241.77 1352.27 Q2239.78 1351.95 2237.9 1351.25 L2237.9 1347.11 Q2239.78 1348.13 2241.6 1348.61 Q2243.43 1349.1 2245.33 1349.1 Q2249.52 1349.1 2251.6 1346.9 Q2253.69 1344.72 2253.69 1340.3 L2253.69 1338.2 Q2252.37 1340.49 2250.31 1341.62 Q2248.25 1342.76 2245.38 1342.76 Q2240.61 1342.76 2237.69 1339.12 Q2234.78 1335.49 2234.78 1329.49 Q2234.78 1323.47 2237.69 1319.84 Q2240.61 1316.2 2245.38 1316.2 Q2248.25 1316.2 2250.31 1317.34 Q2252.37 1318.47 2253.69 1320.76 L2253.69 1316.83 L2257.95 1316.83 L2257.95 1339.54 Z" fill="#000000" fill-rule="nonzero" fill-opacity="1" /></svg>
