<?xml version="1.0" encoding="utf-8"?>
<svg xmlns="http://www.w3.org/2000/svg" xmlns:xlink="http://www.w3.org/1999/xlink" width="600" height="400" viewBox="0 0 2400 1600">
<defs>
  <clipPath id="clip420">
    <rect x="0" y="0" width="2400" height="1600"/>
  </clipPath>
</defs>
<path clip-path="url(#clip420)" d="M0 1600 L2400 1600 L2400 0 L0 0  Z" fill="#ffffff" fill-rule="evenodd" fill-opacity="1"/>
<defs>
  <clipPath id="clip421">
    <rect x="251" y="47" width="2102" height="1377"/>
  </clipPath>
</defs>
<path clip-path="url(#clip420)" d="M242.135 1423.18 L2352.76 1423.18 L2352.76 47.2441 L242.135 47.2441  Z" fill="#ffffff" fill-rule="evenodd" fill-opacity="1"/>
<defs>
  <clipPath id="clip422">
    <rect x="242" y="47" width="2112" height="1377"/>
  </clipPath>
</defs>
<polyline clip-path="url(#clip422)" style="stroke:#000000; stroke-linecap:round; stroke-linejoin:round; stroke-width:2; stroke-opacity:0.1; fill:none" points="299.876,1423.18 299.876,47.2441 "/>
<polyline clip-path="url(#clip422)" style="stroke:#000000; stroke-linecap:round; stroke-linejoin:round; stroke-width:2; stroke-opacity:0.1; fill:none" points="798.162,1423.18 798.162,47.2441 "/>
<polyline clip-path="url(#clip422)" style="stroke:#000000; stroke-linecap:round; stroke-linejoin:round; stroke-width:2; stroke-opacity:0.1; fill:none" points="1296.45,1423.18 1296.45,47.2441 "/>
<polyline clip-path="url(#clip422)" style="stroke:#000000; stroke-linecap:round; stroke-linejoin:round; stroke-width:2; stroke-opacity:0.1; fill:none" points="1794.74,1423.18 1794.74,47.2441 "/>
<polyline clip-path="url(#clip422)" style="stroke:#000000; stroke-linecap:round; stroke-linejoin:round; stroke-width:2; stroke-opacity:0.1; fill:none" points="2293.02,1423.18 2293.02,47.2441 "/>
<polyline clip-path="url(#clip422)" style="stroke:#000000; stroke-linecap:round; stroke-linejoin:round; stroke-width:2; stroke-opacity:0.1; fill:none" points="242.135,1236.23 2352.76,1236.23 "/>
<polyline clip-path="url(#clip422)" style="stroke:#000000; stroke-linecap:round; stroke-linejoin:round; stroke-width:2; stroke-opacity:0.1; fill:none" points="242.135,1039.71 2352.76,1039.71 "/>
<polyline clip-path="url(#clip422)" style="stroke:#000000; stroke-linecap:round; stroke-linejoin:round; stroke-width:2; stroke-opacity:0.1; fill:none" points="242.135,843.194 2352.76,843.194 "/>
<polyline clip-path="url(#clip422)" style="stroke:#000000; stroke-linecap:round; stroke-linejoin:round; stroke-width:2; stroke-opacity:0.1; fill:none" points="242.135,646.676 2352.76,646.676 "/>
<polyline clip-path="url(#clip422)" style="stroke:#000000; stroke-linecap:round; stroke-linejoin:round; stroke-width:2; stroke-opacity:0.1; fill:none" points="242.135,450.158 2352.76,450.158 "/>
<polyline clip-path="url(#clip422)" style="stroke:#000000; stroke-linecap:round; stroke-linejoin:round; stroke-width:2; stroke-opacity:0.1; fill:none" points="242.135,253.64 2352.76,253.64 "/>
<polyline clip-path="url(#clip422)" style="stroke:#000000; stroke-linecap:round; stroke-linejoin:round; stroke-width:2; stroke-opacity:0.1; fill:none" points="242.135,57.1226 2352.76,57.1226 "/>
<polyline clip-path="url(#clip420)" style="stroke:#000000; stroke-linecap:round; stroke-linejoin:round; stroke-width:4; stroke-opacity:1; fill:none" points="242.135,1423.18 2352.76,1423.18 "/>
<polyline clip-path="url(#clip420)" style="stroke:#000000; stroke-linecap:round; stroke-linejoin:round; stroke-width:4; stroke-opacity:1; fill:none" points="299.876,1423.18 299.876,1404.28 "/>
<polyline clip-path="url(#clip420)" style="stroke:#000000; stroke-linecap:round; stroke-linejoin:round; stroke-width:4; stroke-opacity:1; fill:none" points="798.162,1423.18 798.162,1404.28 "/>
<polyline clip-path="url(#clip420)" style="stroke:#000000; stroke-linecap:round; stroke-linejoin:round; stroke-width:4; stroke-opacity:1; fill:none" points="1296.45,1423.18 1296.45,1404.28 "/>
<polyline clip-path="url(#clip420)" style="stroke:#000000; stroke-linecap:round; stroke-linejoin:round; stroke-width:4; stroke-opacity:1; fill:none" points="1794.74,1423.18 1794.74,1404.28 "/>
<polyline clip-path="url(#clip420)" style="stroke:#000000; stroke-linecap:round; stroke-linejoin:round; stroke-width:4; stroke-opacity:1; fill:none" points="2293.02,1423.18 2293.02,1404.28 "/>
<path clip-path="url(#clip420)" d="M299.876 1454.1 Q296.265 1454.1 294.436 1457.66 Q292.631 1461.2 292.631 1468.33 Q292.631 1475.44 294.436 1479.01 Q296.265 1482.55 299.876 1482.55 Q303.51 1482.55 305.316 1479.01 Q307.145 1475.44 307.145 1468.33 Q307.145 1461.2 305.316 1457.66 Q303.51 1454.1 299.876 1454.1 M299.876 1450.39 Q305.686 1450.39 308.742 1455 Q311.82 1459.58 311.82 1468.33 Q311.82 1477.06 308.742 1481.67 Q305.686 1486.25 299.876 1486.25 Q294.066 1486.25 290.987 1481.67 Q287.932 1477.06 287.932 1468.33 Q287.932 1459.58 290.987 1455 Q294.066 1450.39 299.876 1450.39 Z" fill="#000000" fill-rule="nonzero" fill-opacity="1" /><path clip-path="url(#clip420)" d="M761.855 1481.64 L778.174 1481.64 L778.174 1485.58 L756.23 1485.58 L756.23 1481.64 Q758.892 1478.89 763.475 1474.26 Q768.082 1469.61 769.262 1468.27 Q771.507 1465.74 772.387 1464.01 Q773.29 1462.25 773.29 1460.56 Q773.29 1457.8 771.345 1456.07 Q769.424 1454.33 766.322 1454.33 Q764.123 1454.33 761.67 1455.09 Q759.239 1455.86 756.461 1457.41 L756.461 1452.69 Q759.285 1451.55 761.739 1450.97 Q764.193 1450.39 766.23 1450.39 Q771.6 1450.39 774.794 1453.08 Q777.989 1455.77 777.989 1460.26 Q777.989 1462.39 777.179 1464.31 Q776.392 1466.2 774.285 1468.8 Q773.707 1469.47 770.605 1472.69 Q767.503 1475.88 761.855 1481.64 Z" fill="#000000" fill-rule="nonzero" fill-opacity="1" /><path clip-path="url(#clip420)" d="M788.035 1451.02 L806.392 1451.02 L806.392 1454.96 L792.318 1454.96 L792.318 1463.43 Q793.336 1463.08 794.355 1462.92 Q795.373 1462.73 796.392 1462.73 Q802.179 1462.73 805.558 1465.9 Q808.938 1469.08 808.938 1474.49 Q808.938 1480.07 805.466 1483.17 Q801.993 1486.25 795.674 1486.25 Q793.498 1486.25 791.23 1485.88 Q788.984 1485.51 786.577 1484.77 L786.577 1480.07 Q788.66 1481.2 790.882 1481.76 Q793.105 1482.32 795.581 1482.32 Q799.586 1482.32 801.924 1480.21 Q804.262 1478.1 804.262 1474.49 Q804.262 1470.88 801.924 1468.77 Q799.586 1466.67 795.581 1466.67 Q793.706 1466.67 791.831 1467.08 Q789.98 1467.5 788.035 1468.38 L788.035 1451.02 Z" fill="#000000" fill-rule="nonzero" fill-opacity="1" /><path clip-path="url(#clip420)" d="M828.151 1454.1 Q824.54 1454.1 822.711 1457.66 Q820.905 1461.2 820.905 1468.33 Q820.905 1475.44 822.711 1479.01 Q824.54 1482.55 828.151 1482.55 Q831.785 1482.55 833.59 1479.01 Q835.419 1475.44 835.419 1468.33 Q835.419 1461.2 833.59 1457.66 Q831.785 1454.1 828.151 1454.1 M828.151 1450.39 Q833.961 1450.39 837.016 1455 Q840.095 1459.58 840.095 1468.33 Q840.095 1477.06 837.016 1481.67 Q833.961 1486.25 828.151 1486.25 Q822.341 1486.25 819.262 1481.67 Q816.206 1477.06 816.206 1468.33 Q816.206 1459.58 819.262 1455 Q822.341 1450.39 828.151 1450.39 Z" fill="#000000" fill-rule="nonzero" fill-opacity="1" /><path clip-path="url(#clip420)" d="M1256.07 1451.02 L1274.42 1451.02 L1274.42 1454.96 L1260.35 1454.96 L1260.35 1463.43 Q1261.37 1463.08 1262.39 1462.92 Q1263.4 1462.73 1264.42 1462.73 Q1270.21 1462.73 1273.59 1465.9 Q1276.97 1469.08 1276.97 1474.49 Q1276.97 1480.07 1273.5 1483.17 Q1270.03 1486.25 1263.71 1486.25 Q1261.53 1486.25 1259.26 1485.88 Q1257.02 1485.51 1254.61 1484.77 L1254.61 1480.07 Q1256.69 1481.2 1258.91 1481.76 Q1261.14 1482.32 1263.61 1482.32 Q1267.62 1482.32 1269.96 1480.21 Q1272.29 1478.1 1272.29 1474.49 Q1272.29 1470.88 1269.96 1468.77 Q1267.62 1466.67 1263.61 1466.67 Q1261.74 1466.67 1259.86 1467.08 Q1258.01 1467.5 1256.07 1468.38 L1256.07 1451.02 Z" fill="#000000" fill-rule="nonzero" fill-opacity="1" /><path clip-path="url(#clip420)" d="M1296.18 1454.1 Q1292.57 1454.1 1290.74 1457.66 Q1288.94 1461.2 1288.94 1468.33 Q1288.94 1475.44 1290.74 1479.01 Q1292.57 1482.55 1296.18 1482.55 Q1299.82 1482.55 1301.62 1479.01 Q1303.45 1475.44 1303.45 1468.33 Q1303.45 1461.2 1301.62 1457.66 Q1299.82 1454.1 1296.18 1454.1 M1296.18 1450.39 Q1301.99 1450.39 1305.05 1455 Q1308.13 1459.58 1308.13 1468.33 Q1308.13 1477.06 1305.05 1481.67 Q1301.99 1486.25 1296.18 1486.25 Q1290.37 1486.25 1287.29 1481.67 Q1284.24 1477.06 1284.24 1468.33 Q1284.24 1459.58 1287.29 1455 Q1290.37 1450.39 1296.18 1450.39 Z" fill="#000000" fill-rule="nonzero" fill-opacity="1" /><path clip-path="url(#clip420)" d="M1326.34 1454.1 Q1322.73 1454.1 1320.9 1457.66 Q1319.1 1461.2 1319.1 1468.33 Q1319.1 1475.44 1320.9 1479.01 Q1322.73 1482.55 1326.34 1482.55 Q1329.98 1482.55 1331.78 1479.01 Q1333.61 1475.44 1333.61 1468.33 Q1333.61 1461.2 1331.78 1457.66 Q1329.98 1454.1 1326.34 1454.1 M1326.34 1450.39 Q1332.15 1450.39 1335.21 1455 Q1338.29 1459.58 1338.29 1468.33 Q1338.29 1477.06 1335.21 1481.67 Q1332.15 1486.25 1326.34 1486.25 Q1320.53 1486.25 1317.46 1481.67 Q1314.4 1477.06 1314.4 1468.33 Q1314.4 1459.58 1317.46 1455 Q1320.53 1450.39 1326.34 1450.39 Z" fill="#000000" fill-rule="nonzero" fill-opacity="1" /><path clip-path="url(#clip420)" d="M1753.01 1451.02 L1775.23 1451.02 L1775.23 1453.01 L1762.69 1485.58 L1757.8 1485.58 L1769.61 1454.96 L1753.01 1454.96 L1753.01 1451.02 Z" fill="#000000" fill-rule="nonzero" fill-opacity="1" /><path clip-path="url(#clip420)" d="M1784.4 1451.02 L1802.76 1451.02 L1802.76 1454.96 L1788.68 1454.96 L1788.68 1463.43 Q1789.7 1463.08 1790.72 1462.92 Q1791.74 1462.73 1792.76 1462.73 Q1798.54 1462.73 1801.92 1465.9 Q1805.3 1469.08 1805.3 1474.49 Q1805.3 1480.07 1801.83 1483.17 Q1798.36 1486.25 1792.04 1486.25 Q1789.86 1486.25 1787.59 1485.88 Q1785.35 1485.51 1782.94 1484.77 L1782.94 1480.07 Q1785.02 1481.2 1787.25 1481.76 Q1789.47 1482.32 1791.95 1482.32 Q1795.95 1482.32 1798.29 1480.21 Q1800.63 1478.1 1800.63 1474.49 Q1800.63 1470.88 1798.29 1468.77 Q1795.95 1466.67 1791.95 1466.67 Q1790.07 1466.67 1788.2 1467.08 Q1786.34 1467.5 1784.4 1468.38 L1784.4 1451.02 Z" fill="#000000" fill-rule="nonzero" fill-opacity="1" /><path clip-path="url(#clip420)" d="M1824.51 1454.1 Q1820.9 1454.1 1819.08 1457.66 Q1817.27 1461.2 1817.27 1468.33 Q1817.27 1475.44 1819.08 1479.01 Q1820.9 1482.55 1824.51 1482.55 Q1828.15 1482.55 1829.95 1479.01 Q1831.78 1475.44 1831.78 1468.33 Q1831.78 1461.2 1829.95 1457.66 Q1828.15 1454.1 1824.51 1454.1 M1824.51 1450.39 Q1830.33 1450.39 1833.38 1455 Q1836.46 1459.58 1836.46 1468.33 Q1836.46 1477.06 1833.38 1481.67 Q1830.33 1486.25 1824.51 1486.25 Q1818.7 1486.25 1815.63 1481.67 Q1812.57 1477.06 1812.57 1468.33 Q1812.57 1459.58 1815.63 1455 Q1818.7 1450.39 1824.51 1450.39 Z" fill="#000000" fill-rule="nonzero" fill-opacity="1" /><path clip-path="url(#clip420)" d="M2237.55 1481.64 L2245.19 1481.64 L2245.19 1455.28 L2236.88 1456.95 L2236.88 1452.69 L2245.14 1451.02 L2249.82 1451.02 L2249.82 1481.64 L2257.45 1481.64 L2257.45 1485.58 L2237.55 1485.58 L2237.55 1481.64 Z" fill="#000000" fill-rule="nonzero" fill-opacity="1" /><path clip-path="url(#clip420)" d="M2276.9 1454.1 Q2273.29 1454.1 2271.46 1457.66 Q2269.65 1461.2 2269.65 1468.33 Q2269.65 1475.44 2271.46 1479.01 Q2273.29 1482.55 2276.9 1482.55 Q2280.53 1482.55 2282.34 1479.01 Q2284.17 1475.44 2284.17 1468.33 Q2284.17 1461.2 2282.34 1457.66 Q2280.53 1454.1 2276.9 1454.1 M2276.9 1450.39 Q2282.71 1450.39 2285.76 1455 Q2288.84 1459.58 2288.84 1468.33 Q2288.84 1477.06 2285.76 1481.67 Q2282.71 1486.25 2276.9 1486.25 Q2271.09 1486.25 2268.01 1481.67 Q2264.95 1477.06 2264.95 1468.33 Q2264.95 1459.58 2268.01 1455 Q2271.09 1450.39 2276.9 1450.39 Z" fill="#000000" fill-rule="nonzero" fill-opacity="1" /><path clip-path="url(#clip420)" d="M2307.06 1454.1 Q2303.45 1454.1 2301.62 1457.66 Q2299.82 1461.2 2299.82 1468.33 Q2299.82 1475.44 2301.62 1479.01 Q2303.45 1482.55 2307.06 1482.55 Q2310.69 1482.55 2312.5 1479.01 Q2314.33 1475.44 2314.33 1468.33 Q2314.33 1461.2 2312.5 1457.66 Q2310.69 1454.1 2307.06 1454.1 M2307.06 1450.39 Q2312.87 1450.39 2315.93 1455 Q2319 1459.58 2319 1468.33 Q2319 1477.06 2315.93 1481.67 Q2312.87 1486.25 2307.06 1486.25 Q2301.25 1486.25 2298.17 1481.67 Q2295.12 1477.06 2295.12 1468.33 Q2295.12 1459.58 2298.17 1455 Q2301.25 1450.39 2307.06 1450.39 Z" fill="#000000" fill-rule="nonzero" fill-opacity="1" /><path clip-path="url(#clip420)" d="M2337.22 1454.1 Q2333.61 1454.1 2331.78 1457.66 Q2329.98 1461.2 2329.98 1468.33 Q2329.98 1475.44 2331.78 1479.01 Q2333.61 1482.55 2337.22 1482.55 Q2340.86 1482.55 2342.66 1479.01 Q2344.49 1475.44 2344.49 1468.33 Q2344.49 1461.2 2342.66 1457.66 Q2340.86 1454.1 2337.22 1454.1 M2337.22 1450.39 Q2343.03 1450.39 2346.09 1455 Q2349.17 1459.58 2349.17 1468.33 Q2349.17 1477.06 2346.09 1481.67 Q2343.03 1486.25 2337.22 1486.25 Q2331.41 1486.25 2328.33 1481.67 Q2325.28 1477.06 2325.28 1468.33 Q2325.28 1459.58 2328.33 1455 Q2331.41 1450.39 2337.22 1450.39 Z" fill="#000000" fill-rule="nonzero" fill-opacity="1" /><path clip-path="url(#clip420)" d="M1165.17 1520.52 L1171.6 1520.52 L1171.6 1568.04 L1165.17 1568.04 L1165.17 1520.52 Z" fill="#000000" fill-rule="nonzero" fill-opacity="1" /><path clip-path="url(#clip420)" d="M1189.93 1522.27 L1189.93 1532.4 L1201.99 1532.4 L1201.99 1536.95 L1189.93 1536.95 L1189.93 1556.3 Q1189.93 1560.66 1191.11 1561.9 Q1192.32 1563.14 1195.98 1563.14 L1201.99 1563.14 L1201.99 1568.04 L1195.98 1568.04 Q1189.2 1568.04 1186.62 1565.53 Q1184.04 1562.98 1184.04 1556.3 L1184.04 1536.95 L1179.74 1536.95 L1179.74 1532.4 L1184.04 1532.4 L1184.04 1522.27 L1189.93 1522.27 Z" fill="#000000" fill-rule="nonzero" fill-opacity="1" /><path clip-path="url(#clip420)" d="M1240.19 1548.76 L1240.19 1551.62 L1213.26 1551.62 Q1213.64 1557.67 1216.89 1560.85 Q1220.17 1564 1225.99 1564 Q1229.36 1564 1232.52 1563.17 Q1235.7 1562.35 1238.82 1560.69 L1238.82 1566.23 Q1235.67 1567.57 1232.36 1568.27 Q1229.05 1568.97 1225.64 1568.97 Q1217.11 1568.97 1212.11 1564 Q1207.15 1559.04 1207.15 1550.57 Q1207.15 1541.82 1211.86 1536.69 Q1216.6 1531.54 1224.62 1531.54 Q1231.81 1531.54 1235.98 1536.18 Q1240.19 1540.8 1240.19 1548.76 M1234.33 1547.04 Q1234.27 1542.23 1231.62 1539.37 Q1229.01 1536.5 1224.69 1536.5 Q1219.78 1536.5 1216.82 1539.27 Q1213.9 1542.04 1213.45 1547.07 L1234.33 1547.04 Z" fill="#000000" fill-rule="nonzero" fill-opacity="1" /><path clip-path="url(#clip420)" d="M1270.45 1537.87 Q1269.47 1537.3 1268.29 1537.04 Q1267.14 1536.76 1265.74 1536.76 Q1260.78 1536.76 1258.11 1540 Q1255.46 1543.22 1255.46 1549.27 L1255.46 1568.04 L1249.58 1568.04 L1249.58 1532.4 L1255.46 1532.4 L1255.46 1537.93 Q1257.31 1534.69 1260.27 1533.13 Q1263.23 1531.54 1267.46 1531.54 Q1268.07 1531.54 1268.8 1531.63 Q1269.53 1531.7 1270.42 1531.85 L1270.45 1537.87 Z" fill="#000000" fill-rule="nonzero" fill-opacity="1" /><path clip-path="url(#clip420)" d="M1292.8 1550.12 Q1285.7 1550.12 1282.96 1551.75 Q1280.23 1553.37 1280.23 1557.29 Q1280.23 1560.4 1282.26 1562.25 Q1284.33 1564.07 1287.86 1564.07 Q1292.73 1564.07 1295.66 1560.63 Q1298.62 1557.16 1298.62 1551.43 L1298.62 1550.12 L1292.8 1550.12 M1304.48 1547.71 L1304.48 1568.04 L1298.62 1568.04 L1298.62 1562.63 Q1296.62 1565.88 1293.63 1567.44 Q1290.63 1568.97 1286.31 1568.97 Q1280.83 1568.97 1277.58 1565.91 Q1274.37 1562.82 1274.37 1557.67 Q1274.37 1551.65 1278.38 1548.6 Q1282.42 1545.54 1290.41 1545.54 L1298.62 1545.54 L1298.62 1544.97 Q1298.62 1540.93 1295.95 1538.73 Q1293.31 1536.5 1288.5 1536.5 Q1285.45 1536.5 1282.55 1537.23 Q1279.65 1537.97 1276.98 1539.43 L1276.98 1534.02 Q1280.19 1532.78 1283.22 1532.17 Q1286.24 1531.54 1289.11 1531.54 Q1296.84 1531.54 1300.66 1535.55 Q1304.48 1539.56 1304.48 1547.71 Z" fill="#000000" fill-rule="nonzero" fill-opacity="1" /><path clip-path="url(#clip420)" d="M1322.34 1522.27 L1322.34 1532.4 L1334.4 1532.4 L1334.4 1536.95 L1322.34 1536.95 L1322.34 1556.3 Q1322.34 1560.66 1323.51 1561.9 Q1324.72 1563.14 1328.38 1563.14 L1334.4 1563.14 L1334.4 1568.04 L1328.38 1568.04 Q1321.6 1568.04 1319.03 1565.53 Q1316.45 1562.98 1316.45 1556.3 L1316.45 1536.95 L1312.15 1536.95 L1312.15 1532.4 L1316.45 1532.4 L1316.45 1522.27 L1322.34 1522.27 Z" fill="#000000" fill-rule="nonzero" fill-opacity="1" /><path clip-path="url(#clip420)" d="M1342.1 1532.4 L1347.96 1532.4 L1347.96 1568.04 L1342.1 1568.04 L1342.1 1532.4 M1342.1 1518.52 L1347.96 1518.52 L1347.96 1525.93 L1342.1 1525.93 L1342.1 1518.52 Z" fill="#000000" fill-rule="nonzero" fill-opacity="1" /><path clip-path="url(#clip420)" d="M1374.02 1536.5 Q1369.31 1536.5 1366.58 1540.19 Q1363.84 1543.85 1363.84 1550.25 Q1363.84 1556.65 1366.55 1560.34 Q1369.28 1564 1374.02 1564 Q1378.7 1564 1381.44 1560.31 Q1384.18 1556.62 1384.18 1550.25 Q1384.18 1543.92 1381.44 1540.23 Q1378.7 1536.5 1374.02 1536.5 M1374.02 1531.54 Q1381.66 1531.54 1386.02 1536.5 Q1390.38 1541.47 1390.38 1550.25 Q1390.38 1559 1386.02 1564 Q1381.66 1568.97 1374.02 1568.97 Q1366.35 1568.97 1361.99 1564 Q1357.66 1559 1357.66 1550.25 Q1357.66 1541.47 1361.99 1536.5 Q1366.35 1531.54 1374.02 1531.54 Z" fill="#000000" fill-rule="nonzero" fill-opacity="1" /><path clip-path="url(#clip420)" d="M1429.72 1546.53 L1429.72 1568.04 L1423.87 1568.04 L1423.87 1546.72 Q1423.87 1541.66 1421.89 1539.14 Q1419.92 1536.63 1415.97 1536.63 Q1411.23 1536.63 1408.5 1539.65 Q1405.76 1542.68 1405.76 1547.9 L1405.76 1568.04 L1399.87 1568.04 L1399.87 1532.4 L1405.76 1532.4 L1405.76 1537.93 Q1407.86 1534.72 1410.69 1533.13 Q1413.56 1531.54 1417.28 1531.54 Q1423.42 1531.54 1426.57 1535.36 Q1429.72 1539.14 1429.72 1546.53 Z" fill="#000000" fill-rule="nonzero" fill-opacity="1" /><polyline clip-path="url(#clip420)" style="stroke:#000000; stroke-linecap:round; stroke-linejoin:round; stroke-width:4; stroke-opacity:1; fill:none" points="242.135,1423.18 242.135,47.2441 "/>
<polyline clip-path="url(#clip420)" style="stroke:#000000; stroke-linecap:round; stroke-linejoin:round; stroke-width:4; stroke-opacity:1; fill:none" points="242.135,1236.23 261.032,1236.23 "/>
<polyline clip-path="url(#clip420)" style="stroke:#000000; stroke-linecap:round; stroke-linejoin:round; stroke-width:4; stroke-opacity:1; fill:none" points="242.135,1039.71 261.032,1039.71 "/>
<polyline clip-path="url(#clip420)" style="stroke:#000000; stroke-linecap:round; stroke-linejoin:round; stroke-width:4; stroke-opacity:1; fill:none" points="242.135,843.194 261.032,843.194 "/>
<polyline clip-path="url(#clip420)" style="stroke:#000000; stroke-linecap:round; stroke-linejoin:round; stroke-width:4; stroke-opacity:1; fill:none" points="242.135,646.676 261.032,646.676 "/>
<polyline clip-path="url(#clip420)" style="stroke:#000000; stroke-linecap:round; stroke-linejoin:round; stroke-width:4; stroke-opacity:1; fill:none" points="242.135,450.158 261.032,450.158 "/>
<polyline clip-path="url(#clip420)" style="stroke:#000000; stroke-linecap:round; stroke-linejoin:round; stroke-width:4; stroke-opacity:1; fill:none" points="242.135,253.64 261.032,253.64 "/>
<polyline clip-path="url(#clip420)" style="stroke:#000000; stroke-linecap:round; stroke-linejoin:round; stroke-width:4; stroke-opacity:1; fill:none" points="242.135,57.1226 261.032,57.1226 "/>
<path clip-path="url(#clip420)" d="M115.256 1236.68 L144.931 1236.68 L144.931 1240.62 L115.256 1240.62 L115.256 1236.68 Z" fill="#000000" fill-rule="nonzero" fill-opacity="1" /><path clip-path="url(#clip420)" d="M159.052 1249.57 L175.371 1249.57 L175.371 1253.51 L153.427 1253.51 L153.427 1249.57 Q156.089 1246.82 160.672 1242.19 Q165.278 1237.54 166.459 1236.19 Q168.704 1233.67 169.584 1231.94 Q170.487 1230.18 170.487 1228.49 Q170.487 1225.73 168.542 1224 Q166.621 1222.26 163.519 1222.26 Q161.32 1222.26 158.866 1223.02 Q156.436 1223.79 153.658 1225.34 L153.658 1220.62 Q156.482 1219.48 158.936 1218.9 Q161.39 1218.32 163.427 1218.32 Q168.797 1218.32 171.991 1221.01 Q175.186 1223.69 175.186 1228.19 Q175.186 1230.32 174.376 1232.24 Q173.589 1234.13 171.482 1236.73 Q170.903 1237.4 167.802 1240.62 Q164.7 1243.81 159.052 1249.57 Z" fill="#000000" fill-rule="nonzero" fill-opacity="1" /><path clip-path="url(#clip420)" d="M185.232 1218.95 L203.588 1218.95 L203.588 1222.88 L189.514 1222.88 L189.514 1231.36 Q190.533 1231.01 191.551 1230.85 Q192.57 1230.66 193.588 1230.66 Q199.375 1230.66 202.755 1233.83 Q206.135 1237 206.135 1242.42 Q206.135 1248 202.662 1251.1 Q199.19 1254.18 192.871 1254.18 Q190.695 1254.18 188.426 1253.81 Q186.181 1253.44 183.774 1252.7 L183.774 1248 Q185.857 1249.13 188.079 1249.69 Q190.301 1250.25 192.778 1250.25 Q196.783 1250.25 199.121 1248.14 Q201.459 1246.03 201.459 1242.42 Q201.459 1238.81 199.121 1236.7 Q196.783 1234.6 192.778 1234.6 Q190.903 1234.6 189.028 1235.01 Q187.176 1235.43 185.232 1236.31 L185.232 1218.95 Z" fill="#000000" fill-rule="nonzero" fill-opacity="1" /><path clip-path="url(#clip420)" d="M114.26 1040.16 L143.936 1040.16 L143.936 1044.1 L114.26 1044.1 L114.26 1040.16 Z" fill="#000000" fill-rule="nonzero" fill-opacity="1" /><path clip-path="url(#clip420)" d="M158.056 1053.06 L174.376 1053.06 L174.376 1056.99 L152.431 1056.99 L152.431 1053.06 Q155.093 1050.3 159.677 1045.67 Q164.283 1041.02 165.464 1039.68 Q167.709 1037.15 168.589 1035.42 Q169.491 1033.66 169.491 1031.97 Q169.491 1029.21 167.547 1027.48 Q165.626 1025.74 162.524 1025.74 Q160.325 1025.74 157.871 1026.51 Q155.44 1027.27 152.663 1028.82 L152.663 1024.1 Q155.487 1022.96 157.94 1022.39 Q160.394 1021.81 162.431 1021.81 Q167.802 1021.81 170.996 1024.49 Q174.19 1027.18 174.19 1031.67 Q174.19 1033.8 173.38 1035.72 Q172.593 1037.62 170.487 1040.21 Q169.908 1040.88 166.806 1044.1 Q163.704 1047.29 158.056 1053.06 Z" fill="#000000" fill-rule="nonzero" fill-opacity="1" /><path clip-path="url(#clip420)" d="M194.19 1025.51 Q190.579 1025.51 188.75 1029.08 Q186.945 1032.62 186.945 1039.75 Q186.945 1046.85 188.75 1050.42 Q190.579 1053.96 194.19 1053.96 Q197.825 1053.96 199.63 1050.42 Q201.459 1046.85 201.459 1039.75 Q201.459 1032.62 199.63 1029.08 Q197.825 1025.51 194.19 1025.51 M194.19 1021.81 Q200 1021.81 203.056 1026.41 Q206.135 1031 206.135 1039.75 Q206.135 1048.47 203.056 1053.08 Q200 1057.66 194.19 1057.66 Q188.38 1057.66 185.301 1053.08 Q182.246 1048.47 182.246 1039.75 Q182.246 1031 185.301 1026.41 Q188.38 1021.81 194.19 1021.81 Z" fill="#000000" fill-rule="nonzero" fill-opacity="1" /><path clip-path="url(#clip420)" d="M115.256 843.645 L144.931 843.645 L144.931 847.58 L115.256 847.58 L115.256 843.645 Z" fill="#000000" fill-rule="nonzero" fill-opacity="1" /><path clip-path="url(#clip420)" d="M155.834 856.539 L163.473 856.539 L163.473 830.173 L155.163 831.84 L155.163 827.58 L163.427 825.914 L168.102 825.914 L168.102 856.539 L175.741 856.539 L175.741 860.474 L155.834 860.474 L155.834 856.539 Z" fill="#000000" fill-rule="nonzero" fill-opacity="1" /><path clip-path="url(#clip420)" d="M185.232 825.914 L203.588 825.914 L203.588 829.849 L189.514 829.849 L189.514 838.321 Q190.533 837.974 191.551 837.812 Q192.57 837.627 193.588 837.627 Q199.375 837.627 202.755 840.798 Q206.135 843.969 206.135 849.386 Q206.135 854.965 202.662 858.066 Q199.19 861.145 192.871 861.145 Q190.695 861.145 188.426 860.775 Q186.181 860.404 183.774 859.664 L183.774 854.965 Q185.857 856.099 188.079 856.654 Q190.301 857.21 192.778 857.21 Q196.783 857.21 199.121 855.103 Q201.459 852.997 201.459 849.386 Q201.459 845.775 199.121 843.668 Q196.783 841.562 192.778 841.562 Q190.903 841.562 189.028 841.979 Q187.176 842.395 185.232 843.275 L185.232 825.914 Z" fill="#000000" fill-rule="nonzero" fill-opacity="1" /><path clip-path="url(#clip420)" d="M114.26 647.127 L143.936 647.127 L143.936 651.063 L114.26 651.063 L114.26 647.127 Z" fill="#000000" fill-rule="nonzero" fill-opacity="1" /><path clip-path="url(#clip420)" d="M154.839 660.021 L162.477 660.021 L162.477 633.655 L154.167 635.322 L154.167 631.063 L162.431 629.396 L167.107 629.396 L167.107 660.021 L174.746 660.021 L174.746 663.956 L154.839 663.956 L154.839 660.021 Z" fill="#000000" fill-rule="nonzero" fill-opacity="1" /><path clip-path="url(#clip420)" d="M194.19 632.475 Q190.579 632.475 188.75 636.039 Q186.945 639.581 186.945 646.711 Q186.945 653.817 188.75 657.382 Q190.579 660.924 194.19 660.924 Q197.825 660.924 199.63 657.382 Q201.459 653.817 201.459 646.711 Q201.459 639.581 199.63 636.039 Q197.825 632.475 194.19 632.475 M194.19 628.771 Q200 628.771 203.056 633.377 Q206.135 637.961 206.135 646.711 Q206.135 655.438 203.056 660.044 Q200 664.627 194.19 664.627 Q188.38 664.627 185.301 660.044 Q182.246 655.438 182.246 646.711 Q182.246 637.961 185.301 633.377 Q188.38 628.771 194.19 628.771 Z" fill="#000000" fill-rule="nonzero" fill-opacity="1" /><path clip-path="url(#clip420)" d="M145.417 450.61 L175.093 450.61 L175.093 454.545 L145.417 454.545 L145.417 450.61 Z" fill="#000000" fill-rule="nonzero" fill-opacity="1" /><path clip-path="url(#clip420)" d="M185.232 432.878 L203.588 432.878 L203.588 436.813 L189.514 436.813 L189.514 445.286 Q190.533 444.938 191.551 444.776 Q192.57 444.591 193.588 444.591 Q199.375 444.591 202.755 447.762 Q206.135 450.934 206.135 456.35 Q206.135 461.929 202.662 465.031 Q199.19 468.109 192.871 468.109 Q190.695 468.109 188.426 467.739 Q186.181 467.369 183.774 466.628 L183.774 461.929 Q185.857 463.063 188.079 463.619 Q190.301 464.174 192.778 464.174 Q196.783 464.174 199.121 462.068 Q201.459 459.961 201.459 456.35 Q201.459 452.739 199.121 450.633 Q196.783 448.526 192.778 448.526 Q190.903 448.526 189.028 448.943 Q187.176 449.36 185.232 450.239 L185.232 432.878 Z" fill="#000000" fill-rule="nonzero" fill-opacity="1" /><path clip-path="url(#clip420)" d="M194.19 239.439 Q190.579 239.439 188.75 243.004 Q186.945 246.546 186.945 253.675 Q186.945 260.782 188.75 264.346 Q190.579 267.888 194.19 267.888 Q197.825 267.888 199.63 264.346 Q201.459 260.782 201.459 253.675 Q201.459 246.546 199.63 243.004 Q197.825 239.439 194.19 239.439 M194.19 235.735 Q200 235.735 203.056 240.342 Q206.135 244.925 206.135 253.675 Q206.135 262.402 203.056 267.008 Q200 271.592 194.19 271.592 Q188.38 271.592 185.301 267.008 Q182.246 262.402 182.246 253.675 Q182.246 244.925 185.301 240.342 Q188.38 235.735 194.19 235.735 Z" fill="#000000" fill-rule="nonzero" fill-opacity="1" /><path clip-path="url(#clip420)" d="M185.232 39.8426 L203.588 39.8426 L203.588 43.7778 L189.514 43.7778 L189.514 52.2499 Q190.533 51.9027 191.551 51.7407 Q192.57 51.5555 193.588 51.5555 Q199.375 51.5555 202.755 54.7268 Q206.135 57.898 206.135 63.3147 Q206.135 68.8934 202.662 71.9952 Q199.19 75.0739 192.871 75.0739 Q190.695 75.0739 188.426 74.7035 Q186.181 74.3331 183.774 73.5924 L183.774 68.8934 Q185.857 70.0276 188.079 70.5832 Q190.301 71.1387 192.778 71.1387 Q196.783 71.1387 199.121 69.0322 Q201.459 66.9258 201.459 63.3147 Q201.459 59.7036 199.121 57.5971 Q196.783 55.4907 192.778 55.4907 Q190.903 55.4907 189.028 55.9073 Q187.176 56.324 185.232 57.2036 L185.232 39.8426 Z" fill="#000000" fill-rule="nonzero" fill-opacity="1" /><path clip-path="url(#clip420)" d="M16.4842 816.375 L16.4842 786.329 L21.895 786.329 L21.895 809.945 L35.9632 809.945 L35.9632 787.315 L41.3741 787.315 L41.3741 809.945 L58.5933 809.945 L58.5933 785.756 L64.0042 785.756 L64.0042 816.375 L16.4842 816.375 Z" fill="#000000" fill-rule="nonzero" fill-opacity="1" /><path clip-path="url(#clip420)" d="M16.4842 775.189 L16.4842 768.759 L58.5933 768.759 L58.5933 745.62 L64.0042 745.62 L64.0042 775.189 L16.4842 775.189 Z" fill="#000000" fill-rule="nonzero" fill-opacity="1" /><path clip-path="url(#clip420)" d="M41.3104 732.443 L58.7206 732.443 L58.7206 722.13 Q58.7206 716.942 56.5881 714.46 Q54.4238 711.945 49.9996 711.945 Q45.5436 711.945 43.4429 714.46 Q41.3104 716.942 41.3104 722.13 L41.3104 732.443 M21.7677 732.443 L36.0905 732.443 L36.0905 722.926 Q36.0905 718.216 34.34 715.924 Q32.5576 713.6 28.9291 713.6 Q25.3325 713.6 23.5501 715.924 Q21.7677 718.216 21.7677 722.926 L21.7677 732.443 M16.4842 738.872 L16.4842 722.449 Q16.4842 715.096 19.5397 711.118 Q22.5952 707.139 28.2289 707.139 Q32.5894 707.139 35.1675 709.176 Q37.7456 711.213 38.3822 715.16 Q39.4007 710.418 42.6472 707.808 Q45.8619 705.166 50.6998 705.166 Q57.0655 705.166 60.5348 709.495 Q64.0042 713.823 64.0042 721.812 L64.0042 738.872 L16.4842 738.872 Z" fill="#000000" fill-rule="nonzero" fill-opacity="1" /><path clip-path="url(#clip420)" d="M20.8447 676.011 Q20.8447 683.013 26.0645 687.151 Q31.2844 691.257 40.2919 691.257 Q49.2675 691.257 54.4874 687.151 Q59.7073 683.013 59.7073 676.011 Q59.7073 669.009 54.4874 664.935 Q49.2675 660.829 40.2919 660.829 Q31.2844 660.829 26.0645 664.935 Q20.8447 669.009 20.8447 676.011 M15.6248 676.011 Q15.6248 666.017 22.3406 660.033 Q29.0246 654.049 40.2919 654.049 Q51.5274 654.049 58.2432 660.033 Q64.9272 666.017 64.9272 676.011 Q64.9272 686.037 58.2432 692.052 Q51.5592 698.036 40.2919 698.036 Q29.0246 698.036 22.3406 692.052 Q15.6248 686.037 15.6248 676.011 Z" fill="#000000" fill-rule="nonzero" fill-opacity="1" /><polyline clip-path="url(#clip422)" style="stroke:#009af9; stroke-linecap:round; stroke-linejoin:round; stroke-width:4; stroke-opacity:1; fill:none" points="301.869,672.142 303.862,1002.31 305.856,1058.67 307.849,742.166 309.842,1138 311.835,701.684 313.828,771.084 315.821,622.756 317.814,669.093 319.808,993.601 321.801,529.365 323.794,1013.31 325.787,982.253 327.78,1319.61 329.773,1033.94 331.766,1041.9 333.76,1150.18 335.753,1384.24 337.746,787.273 339.739,849.993 341.732,1207.5 343.725,911.41 345.718,1120.61 347.712,933.548 349.705,659.702 351.698,1239.69 353.691,923.056 355.684,1081.53 357.677,709.373 359.67,1021.16 361.664,872.116 363.657,911.748 365.65,958.715 367.643,882.989 369.636,1088.64 371.629,940.364 373.622,1153.91 375.616,880.807 377.609,1324.17 379.602,777.558 381.595,627.212 383.588,1033.22 385.581,633.508 387.574,1040.11 389.568,520.277 391.561,454.32 393.554,1032.98 395.547,922.716 397.54,613.301 399.533,816.698 401.526,538.225 403.52,1055.99 405.513,484.949 407.506,870.963 409.499,545.666 411.492,635.07 413.485,599.825 415.479,600.487 417.472,572.149 419.465,888.311 421.458,720.633 423.451,302.205 425.444,566.846 427.437,817.954 429.431,749.786 431.424,534.92 433.417,754.836 435.41,806.945 437.403,507.994 439.396,490.421 441.389,721.895 443.383,444.967 445.376,671.301 447.369,526.151 449.362,957.544 451.355,494.966 453.348,420.256 455.341,501.497 457.335,472.844 459.328,630.157 461.321,405.17 463.314,627.954 465.307,662.746 467.3,725.655 469.293,675.428 471.287,933.295 473.28,573.378 475.273,632.508 477.266,1153.28 479.259,1276.59 481.252,420.827 483.245,433.698 485.239,707.125 487.232,736.993 489.225,473.196 491.218,204.475 493.211,605.443 495.204,483.449 497.197,307.872 499.191,512.073 501.184,615.246 503.177,434.014 505.17,468.939 507.163,756.595 509.156,650.609 511.149,550.178 513.143,526.888 515.136,535.708 517.129,323.193 519.122,966.445 521.115,782.469 523.108,685.443 525.101,443.503 527.095,568.71 529.088,378.568 531.081,348.893 533.074,530.419 535.067,341.437 537.06,556.218 539.054,501.597 541.047,602.603 543.04,409.649 545.033,492.342 547.026,444.35 549.019,316.457 551.012,450.887 553.006,304.198 554.999,638.082 556.992,437.906 558.985,435.867 560.978,198.206 562.971,252.04 564.964,509.643 566.958,384.776 568.951,529.5 570.944,576.327 572.937,394.758 574.93,581.78 576.923,326.204 578.916,573.627 580.91,509.227 582.903,479.538 584.896,205.9 586.889,208.352 588.882,445.867 590.875,545.828 592.868,552.93 594.862,327.225 596.855,432.495 598.848,465.462 600.841,648.142 602.834,317.826 604.827,468.982 606.82,648.504 608.814,303.235 610.807,641.415 612.8,355.743 614.793,557.766 616.786,171.897 618.779,318.661 620.772,481.234 622.766,411.742 624.759,321.472 626.752,315.974 628.745,462.895 630.738,443.215 632.731,239.974 634.724,379.991 636.718,784.054 638.711,425.762 640.704,251.054 642.697,244.238 644.69,288.808 646.683,470.766 648.677,391.968 650.67,300.635 652.663,660.614 654.656,186.719 656.649,169.044 658.642,507.467 660.635,378.734 662.629,317.582 664.622,256.964 666.615,272.587 668.608,486.237 670.601,427.358 672.594,301.95 674.587,374.588 676.581,308.841 678.574,295.07 680.567,253.531 682.56,134.633 684.553,413.08 686.546,399.793 688.539,724.362 690.533,218.455 692.526,445.497 694.519,251.343 696.512,343.033 698.505,458.545 700.498,573.058 702.491,265.45 704.485,184.532 706.478,360.32 708.471,317.628 710.464,319.365 712.457,198.505 714.45,342.658 716.443,209.673 718.437,303.735 720.43,201.661 722.423,310.288 724.416,204.005 726.409,346.176 728.402,271.844 730.395,314.095 732.389,384.73 734.382,231.149 736.375,164.906 738.368,540.994 740.361,154.923 742.354,286.305 744.347,281.201 746.341,355.201 748.334,447.408 750.327,193.656 752.32,173.817 754.313,458.02 756.306,306.53 758.299,304.7 760.293,339.923 762.286,197.337 764.279,200.845 766.272,118.127 768.265,260.32 770.258,240.114 772.252,263.53 774.245,111.013 776.238,407.66 778.231,346.056 780.224,373.924 782.217,276.28 784.21,170.728 786.204,258.894 788.197,329.303 790.19,571.025 792.183,179.83 794.176,383.837 796.169,302.043 798.162,299.698 800.156,276.177 802.149,449.043 804.142,282.517 806.135,294.412 808.128,316.486 810.121,626.758 812.114,223.785 814.108,380.261 816.101,261.771 818.094,152.182 820.087,232.574 822.08,253.732 824.073,218.767 826.066,465.184 828.06,438.232 830.053,303.613 832.046,216.916 834.039,168.047 836.032,278.301 838.025,334.206 840.018,147.446 842.012,419.445 844.005,438.538 845.998,206.483 847.991,313.73 849.984,228.528 851.977,344.828 853.97,208.288 855.964,410.902 857.957,228.738 859.95,197.111 861.943,156.354 863.936,150.651 865.929,395.655 867.922,267.926 869.916,121.301 871.909,343.156 873.902,379.91 875.895,172.391 877.888,268.225 879.881,198.165 881.874,336.58 883.868,396.111 885.861,204.788 887.854,220.659 889.847,202.554 891.84,327.024 893.833,185.08 895.827,471.22 897.82,305.131 899.813,229.422 901.806,202.634 903.799,373.931 905.792,180.024 907.785,384.46 909.779,307.769 911.772,299.788 913.765,91.6447 915.758,282.02 917.751,223.605 919.744,300.367 921.737,545.78 923.731,371.089 925.724,372.164 927.717,238.163 929.71,295.872 931.703,156.762 933.696,227.344 935.689,210.442 937.683,269.077 939.676,279.915 941.669,217.825 943.662,264.615 945.655,424.149 947.648,275.184 949.641,241.42 951.635,282.683 953.628,306.824 955.621,188.5 957.614,294.899 959.607,335.692 961.6,235.861 963.593,172.009 965.587,147.505 967.58,259.974 969.573,359.812 971.566,352.721 973.559,298.3 975.552,188.447 977.545,188.981 979.539,350.629 981.532,115.776 983.525,161.262 985.518,86.715 987.511,388.574 989.504,196.075 991.497,146.601 993.491,562.922 995.484,253.275 997.477,245.133 999.47,210.636 1001.46,300.911 1003.46,277.185 1005.45,231.542 1007.44,164.836 1009.44,526.309 1011.43,317.048 1013.42,219.861 1015.42,227.464 1017.41,259.104 1019.4,312.396 1021.39,129.387 1023.39,237.161 1025.38,483.779 1027.37,332.148 1029.37,372.773 1031.36,169.876 1033.35,302.988 1035.35,268.553 1037.34,275.106 1039.33,183.277 1041.33,308.397 1043.32,279.653 1045.31,311.428 1047.31,272.681 1049.3,433.389 1051.29,130.208 1053.28,301.212 1055.28,175.882 1057.27,282.545 1059.26,308.862 1061.26,341.96 1063.25,312.368 1065.24,223.329 1067.24,181.836 1069.23,220.863 1071.22,210.007 1073.22,357.097 1075.21,235.127 1077.2,145.306 1079.2,272.573 1081.19,145.602 1083.18,217.454 1085.18,134.629 1087.17,193.671 1089.16,172.169 1091.15,375.681 1093.15,269.613 1095.14,297.942 1097.13,125.331 1099.13,193.16 1101.12,221.765 1103.11,126.025 1105.11,121.487 1107.1,222.183 1109.09,120.806 1111.09,276.745 1113.08,410.605 1115.07,362.082 1117.07,190.736 1119.06,249.977 1121.05,266.103 1123.05,301.288 1125.04,292.229 1127.03,156.569 1129.02,241.96 1131.02,235.671 1133.01,274.353 1135,498.544 1137,226.294 1138.99,177.083 1140.98,285.554 1142.98,122.584 1144.97,280.043 1146.96,128.27 1148.96,225.154 1150.95,157.6 1152.94,250.344 1154.94,215.707 1156.93,161.386 1158.92,250.383 1160.91,257.475 1162.91,251.526 1164.9,212.828 1166.89,278.121 1168.89,134.415 1170.88,249.627 1172.87,197.579 1174.87,256.274 1176.86,258.827 1178.85,518.119 1180.85,143.691 1182.84,192.183 1184.83,204.114 1186.83,347.679 1188.82,187.92 1190.81,160.663 1192.81,288.753 1194.8,458.553 1196.79,328.818 1198.78,181.262 1200.78,382.597 1202.77,197.498 1204.76,203.889 1206.76,148.914 1208.75,181.762 1210.74,380.691 1212.74,236.471 1214.73,227.096 1216.72,306.2 1218.72,507.391 1220.71,313.48 1222.7,343.561 1224.7,356.568 1226.69,239.635 1228.68,288.963 1230.67,312.823 1232.67,201.069 1234.66,289.517 1236.65,181.753 1238.65,424.542 1240.64,243.004 1242.63,252.997 1244.63,204.711 1246.62,357.842 1248.61,273.954 1250.61,445.611 1252.6,100.712 1254.59,235.644 1256.59,121.745 1258.58,124.468 1260.57,220.977 1262.57,196.718 1264.56,162.16 1266.55,200.842 1268.54,246.239 1270.54,236.903 1272.53,385.814 1274.52,287.23 1276.52,226.042 1278.51,311.616 1280.5,151.946 1282.5,223.198 1284.49,118.946 1286.48,282.684 1288.48,256.26 1290.47,440.134 1292.46,247.015 1294.46,190.006 1296.45,167.637 1298.44,232.575 1300.44,267.703 1302.43,252.229 1304.42,421.173 1306.41,380.863 1308.41,340.767 1310.4,134.05 1312.39,286.74 1314.39,139.544 1316.38,215.378 1318.37,129.903 1320.37,287.553 1322.36,86.1857 1324.35,254.657 1326.35,243.824 1328.34,117.868 1330.33,226.032 1332.33,165.177 1334.32,354.845 1336.31,388.757 1338.3,148.632 1340.3,263.618 1342.29,261.753 1344.28,225.873 1346.28,89.4973 1348.27,172.788 1350.26,198.746 1352.26,307.645 1354.25,191.364 1356.24,146.694 1358.24,113.721 1360.23,329.61 1362.22,238.588 1364.22,245.066 1366.21,432.864 1368.2,169.394 1370.2,235.706 1372.19,229.469 1374.18,258.184 1376.17,248.109 1378.17,435.786 1380.16,397.565 1382.15,155.495 1384.15,271.971 1386.14,138.765 1388.13,213.202 1390.13,145.36 1392.12,232.683 1394.11,375.08 1396.11,247.361 1398.1,327.944 1400.09,166.872 1402.09,123.929 1404.08,193.228 1406.07,235.192 1408.06,276.897 1410.06,267.909 1412.05,546.832 1414.04,206.719 1416.04,289.267 1418.03,222.7 1420.02,267.399 1422.02,180.003 1424.01,240.458 1426,175.819 1428,398.893 1429.99,198.162 1431.98,178.454 1433.98,191.932 1435.97,232.737 1437.96,300.673 1439.96,349.715 1441.95,156.337 1443.94,260.682 1445.93,380.09 1447.93,170.699 1449.92,383.366 1451.91,201.931 1453.91,398.09 1455.9,317.33 1457.89,340.74 1459.89,263.079 1461.88,219.073 1463.87,197.81 1465.87,257.707 1467.86,241.116 1469.85,193.042 1471.85,118.375 1473.84,301.64 1475.83,458.757 1477.82,156.272 1479.82,243.334 1481.81,200.595 1483.8,191.627 1485.8,268.44 1487.79,166.331 1489.78,261.251 1491.78,147.777 1493.77,253.036 1495.76,227.844 1497.76,170.024 1499.75,300.684 1501.74,276.03 1503.74,351.289 1505.73,222.221 1507.72,147.984 1509.72,279.698 1511.71,265.709 1513.7,232.142 1515.69,109.597 1517.69,208.473 1519.68,230.191 1521.67,184.049 1523.67,271.169 1525.66,162.308 1527.65,168.611 1529.65,387.544 1531.64,356.446 1533.63,187.259 1535.63,236.728 1537.62,273.237 1539.61,178.83 1541.61,370.563 1543.6,341.763 1545.59,375.284 1547.59,179.504 1549.58,226.975 1551.57,382.857 1553.56,196.482 1555.56,169.112 1557.55,304.777 1559.54,329.117 1561.54,197.189 1563.53,247.204 1565.52,282.556 1567.52,330.642 1569.51,322.271 1571.5,276.086 1573.5,189.4 1575.49,237.391 1577.48,347.101 1579.48,160.583 1581.47,232.261 1583.46,274.358 1585.45,237.4 1587.45,177.307 1589.44,213.46 1591.43,136.638 1593.43,205.74 1595.42,217.27 1597.41,419.843 1599.41,347.267 1601.4,222.209 1603.39,240.648 1605.39,149.675 1607.38,289.541 1609.37,227.328 1611.37,313.051 1613.36,203.993 1615.35,172.687 1617.35,279.52 1619.34,225.302 1621.33,209.542 1623.32,262.111 1625.32,132.789 1627.31,351.527 1629.3,276.842 1631.3,353.748 1633.29,132.764 1635.28,188.346 1637.28,173.266 1639.27,187.26 1641.26,322.559 1643.26,216.291 1645.25,242.015 1647.24,293.117 1649.24,283.267 1651.23,379.411 1653.22,222.837 1655.21,227.049 1657.21,158.689 1659.2,222.289 1661.19,209.416 1663.19,287.106 1665.18,169.732 1667.17,397.359 1669.17,359.637 1671.16,231.524 1673.15,197.677 1675.15,356.706 1677.14,434.814 1679.13,284.201 1681.13,126.787 1683.12,171.569 1685.11,303.993 1687.11,176.508 1689.1,213.002 1691.09,169.112 1693.08,201.4 1695.08,317.197 1697.07,278.863 1699.06,203.887 1701.06,420.76 1703.05,357.706 1705.04,133.009 1707.04,201.723 1709.03,406.7 1711.02,175.687 1713.02,395.004 1715.01,524.633 1717,208.011 1719,379.713 1720.99,157.041 1722.98,197.136 1724.97,401.257 1726.97,287.773 1728.96,217.772 1730.95,150.225 1732.95,133.235 1734.94,238.217 1736.93,122.551 1738.93,225.142 1740.92,227.734 1742.91,283.454 1744.91,424.236 1746.9,303.043 1748.89,292.173 1750.89,187.797 1752.88,148.343 1754.87,286.189 1756.87,395.101 1758.86,383.377 1760.85,338.649 1762.84,306.895 1764.84,128.908 1766.83,240.586 1768.82,254.966 1770.82,162.858 1772.81,228.603 1774.8,172.924 1776.8,137.722 1778.79,262.858 1780.78,288.288 1782.78,304.819 1784.77,174.83 1786.76,204.843 1788.76,210.633 1790.75,280.964 1792.74,267.758 1794.74,379.752 1796.73,315.986 1798.72,189.096 1800.71,437.759 1802.71,242.436 1804.7,260.363 1806.69,221.687 1808.69,441.214 1810.68,249.547 1812.67,299.341 1814.67,252.286 1816.66,207.56 1818.65,338.123 1820.65,354.157 1822.64,401.268 1824.63,240.2 1826.63,99.094 1828.62,296.163 1830.61,206.388 1832.6,147.094 1834.6,213.894 1836.59,262.528 1838.58,170.414 1840.58,172.969 1842.57,180.013 1844.56,286.08 1846.56,368.578 1848.55,225.603 1850.54,157.231 1852.54,319.172 1854.53,415.645 1856.52,261.232 1858.52,403.315 1860.51,224.236 1862.5,268.047 1864.5,295.774 1866.49,154.485 1868.48,315.75 1870.47,189.907 1872.47,260.827 1874.46,281.496 1876.45,416.318 1878.45,232.1 1880.44,327.281 1882.43,300.482 1884.43,132.778 1886.42,196.909 1888.41,269.507 1890.41,383.829 1892.4,215.583 1894.39,130.18 1896.39,254.225 1898.38,301.198 1900.37,218.986 1902.36,356.535 1904.36,238.506 1906.35,184.223 1908.34,169.729 1910.34,248.749 1912.33,209.797 1914.32,258.272 1916.32,183.888 1918.31,179.533 1920.3,228.218 1922.3,523.761 1924.29,284.57 1926.28,296.438 1928.28,269.142 1930.27,522.965 1932.26,247.353 1934.26,176.394 1936.25,477.222 1938.24,331.083 1940.23,266.17 1942.23,143.74 1944.22,194.321 1946.21,396.814 1948.21,304.301 1950.2,337.091 1952.19,145.391 1954.19,278.611 1956.18,172.086 1958.17,269.268 1960.17,663.242 1962.16,216.962 1964.15,190.322 1966.15,162.569 1968.14,322.51 1970.13,417.314 1972.12,164.404 1974.12,228.093 1976.11,317.629 1978.1,161.953 1980.1,287.261 1982.09,212.922 1984.08,240.085 1986.08,248.671 1988.07,295.954 1990.06,182.609 1992.06,239.182 1994.05,196.945 1996.04,189.446 1998.04,252.877 2000.03,282.451 2002.02,357.079 2004.02,223.405 2006.01,499.983 2008,171.604 2009.99,266.522 2011.99,224.217 2013.98,133.24 2015.97,319.056 2017.97,114.382 2019.96,288.912 2021.95,259.574 2023.95,153.351 2025.94,285.126 2027.93,268.169 2029.93,529.076 2031.92,367.014 2033.91,246.888 2035.91,262.798 2037.9,408.688 2039.89,202.554 2041.89,181.554 2043.88,169.253 2045.87,285.808 2047.86,265.836 2049.86,269.148 2051.85,158.303 2053.84,174.078 2055.84,404.455 2057.83,225.091 2059.82,344.671 2061.82,423.601 2063.81,344.966 2065.8,240.341 2067.8,236.367 2069.79,269.074 2071.78,131.972 2073.78,257.32 2075.77,317.278 2077.76,234.319 2079.75,334.63 2081.75,317.417 2083.74,224.064 2085.73,318.425 2087.73,284.23 2089.72,341.528 2091.71,240.07 2093.71,296.046 2095.7,165.439 2097.69,350.116 2099.69,181.826 2101.68,107.881 2103.67,298.589 2105.67,142.551 2107.66,195.011 2109.65,249.086 2111.65,257.2 2113.64,323.976 2115.63,284.639 2117.62,256.782 2119.62,209.963 2121.61,256.398 2123.6,250.73 2125.6,272.554 2127.59,194.183 2129.58,165.592 2131.58,325.598 2133.57,190.176 2135.56,271.305 2137.56,218.571 2139.55,272.366 2141.54,200.725 2143.54,241.617 2145.53,213.408 2147.52,350.101 2149.51,175.609 2151.51,318.072 2153.5,214.73 2155.49,286.054 2157.49,198.75 2159.48,188.74 2161.47,212.536 2163.47,133.178 2165.46,182.61 2167.45,484.341 2169.45,293.535 2171.44,234.414 2173.43,228.227 2175.43,221.531 2177.42,218.751 2179.41,193.527 2181.41,206.534 2183.4,270.577 2185.39,394.984 2187.38,296.853 2189.38,457.615 2191.37,315.584 2193.36,401.582 2195.36,363.294 2197.35,247.645 2199.34,186.968 2201.34,376.081 2203.33,254.184 2205.32,190.902 2207.32,189.502 2209.31,190.112 2211.3,139.686 2213.3,186.934 2215.29,161.273 2217.28,307.291 2219.27,180.819 2221.27,261.669 2223.26,209.849 2225.25,158.95 2227.25,185.031 2229.24,147.618 2231.23,485.256 2233.23,175.091 2235.22,278.102 2237.21,230.955 2239.21,300.484 2241.2,194.278 2243.19,394.299 2245.19,314.085 2247.18,373.797 2249.17,249.101 2251.17,223.543 2253.16,224.58 2255.15,300.384 2257.14,135.225 2259.14,297.591 2261.13,169.053 2263.12,250.736 2265.12,419.044 2267.11,304.762 2269.1,323.139 2271.1,271.081 2273.09,121.951 2275.08,304.211 2277.08,291.865 2279.07,182.326 2281.06,456.996 2283.06,177.111 2285.05,314.792 2287.04,323.934 2289.04,302.265 2291.03,269.76 2293.02,219.772 "/>
<polyline clip-path="url(#clip422)" style="stroke:#e26f46; stroke-linecap:round; stroke-linejoin:round; stroke-width:4; stroke-opacity:1; fill:none" points="301.869,1039.27 303.862,1007.54 305.856,1012.25 307.849,1009.12 309.842,1002.16 311.835,998.189 313.828,995.79 315.821,989.649 317.814,967.007 319.808,987.107 321.801,957.027 323.794,945.582 325.787,969.475 327.78,950.388 329.773,915.968 331.766,902.133 333.76,924.212 335.753,910.727 337.746,918.641 339.739,901.189 341.732,878.418 343.725,873.267 345.718,860.122 347.712,873.889 349.705,866.747 351.698,857.163 353.691,857.398 355.684,842.33 357.677,849.526 359.67,816.254 361.664,831.555 363.657,831.741 365.65,787.543 367.643,806.701 369.636,804.803 371.629,790.669 373.622,766.42 375.616,766.828 377.609,763.889 379.602,781.95 381.595,750.538 383.588,750.939 385.581,736.72 387.574,747.247 389.568,769.178 391.561,743.044 393.554,718.597 395.547,718.81 397.54,708.91 399.533,716.416 401.526,682.273 403.52,688.71 405.513,706.667 407.506,695.391 409.499,680.332 411.492,692.312 413.485,667.76 415.479,683.069 417.472,667.2 419.465,696.237 421.458,666.938 423.451,641.204 425.444,643.531 427.437,637.465 429.431,631.464 431.424,630.408 433.417,637.064 435.41,606.154 437.403,610.786 439.396,639.01 441.389,587.077 443.383,583.42 445.376,611.003 447.369,589.817 449.362,578.649 451.355,581.973 453.348,595.674 455.341,581.39 457.335,568.705 459.328,583.502 461.321,561.902 463.314,556.544 465.307,563.032 467.3,543.956 469.293,540.244 471.287,544.084 473.28,541.484 475.273,522.831 477.266,525.154 479.259,531.695 481.252,550.36 483.245,515.523 485.239,507.655 487.232,515.932 489.225,526.952 491.218,503.819 493.211,505.572 495.204,502.883 497.197,501.506 499.191,486.841 501.184,498.797 503.177,481.046 505.17,481.79 507.163,470.903 509.156,484.318 511.149,459.181 513.143,471.529 515.136,478.385 517.129,471.049 519.122,464.452 521.115,461.391 523.108,457.275 525.101,455.845 527.095,440.582 529.088,454.261 531.081,430.923 533.074,454.25 535.067,467.127 537.06,450.097 539.054,415.824 541.047,417.677 543.04,418.613 545.033,446.884 547.026,421.939 549.019,403.065 551.012,413.632 553.006,411.053 554.999,427.21 556.992,420.13 558.985,405.308 560.978,417.678 562.971,390.186 564.964,397.672 566.958,405.221 568.951,403.954 570.944,389.626 572.937,396.872 574.93,390.964 576.923,387.746 578.916,399.874 580.91,390.157 582.903,378.836 584.896,370.93 586.889,379.787 588.882,375.181 590.875,368.807 592.868,372.329 594.862,377.467 596.855,374.235 598.848,367.7 600.841,355.537 602.834,371.29 604.827,379.844 606.82,357.427 608.814,360.08 610.807,352.327 612.8,387.447 614.793,335.721 616.786,350.931 618.779,360.082 620.772,352.721 622.766,357.609 624.759,331.822 626.752,338.062 628.745,333.254 630.738,337.067 632.731,330.392 634.724,340.477 636.718,347.443 638.711,354.621 640.704,323.771 642.697,325.282 644.69,332.679 646.683,343.898 648.677,314.234 650.67,337.261 652.663,322.06 654.656,322.347 656.649,332.396 658.642,314.41 660.635,326.105 662.629,331.408 664.622,309.751 666.615,328.98 668.608,304.259 670.601,337.505 672.594,313.007 674.587,318.612 676.581,322.447 678.574,302.038 680.567,302.576 682.56,316.256 684.553,311.382 686.546,300.821 688.539,317.535 690.533,310.42 692.526,325.418 694.519,290.756 696.512,293.464 698.505,301.617 700.498,306.167 702.491,295.749 704.485,296.766 706.478,300.624 708.471,290.869 710.464,307.009 712.457,294.028 714.45,295.469 716.443,289.103 718.437,283.224 720.43,314.472 722.423,294.825 724.416,296.374 726.409,289.857 728.402,287.676 730.395,296.543 732.389,290.981 734.382,308.084 736.375,285.332 738.368,295.858 740.361,283.673 742.354,293.369 744.347,272.733 746.341,286.553 748.334,297.652 750.327,297.119 752.32,293.758 754.313,286.498 756.306,280.17 758.299,270.594 760.293,277.976 762.286,282.53 764.279,280.596 766.272,281.997 768.265,280.611 770.258,288.728 772.252,264.614 774.245,272.472 776.238,269.59 778.231,296.405 780.224,286.731 782.217,257.119 784.21,283.378 786.204,273.538 788.197,277.42 790.19,255.432 792.183,275.851 794.176,267.975 796.169,265.24 798.162,276.709 800.156,266.104 802.149,250.912 804.142,262.639 806.135,268.055 808.128,285.289 810.121,275.751 812.114,258.284 814.108,278.786 816.101,278.416 818.094,263.035 820.087,259.723 822.08,267.076 824.073,274.231 826.066,264.264 828.06,258.542 830.053,285.976 832.046,263.499 834.039,288.953 836.032,261.815 838.025,263.255 840.018,262.553 842.012,256.397 844.005,273.791 845.998,277.766 847.991,260.09 849.984,265.112 851.977,273.534 853.97,273.327 855.964,280.368 857.957,276.267 859.95,264.26 861.943,272.524 863.936,258.242 865.929,278.66 867.922,267.387 869.916,248.894 871.909,257.666 873.902,265.817 875.895,292.008 877.888,266.673 879.881,249.306 881.874,272.36 883.868,252.677 885.861,288.597 887.854,257.073 889.847,260.206 891.84,261.923 893.833,292.347 895.827,264.385 897.82,273.408 899.813,254.858 901.806,271.696 903.799,258.222 905.792,267.979 907.785,252.953 909.779,254.256 911.772,259.124 913.765,259.966 915.758,262.335 917.751,245.896 919.744,273.424 921.737,243.704 923.731,265.307 925.724,259.813 927.717,260.008 929.71,271.022 931.703,254.849 933.696,269.945 935.689,256.602 937.683,245.416 939.676,259.19 941.669,262.273 943.662,259.69 945.655,243.962 947.648,252.333 949.641,267.836 951.635,280.859 953.628,248.211 955.621,262.486 957.614,243.254 959.607,247.47 961.6,249.407 963.593,236.591 965.587,261.229 967.58,258.895 969.573,269.783 971.566,260.413 973.559,249.45 975.552,259.251 977.545,263.292 979.539,249.664 981.532,244.103 983.525,254.209 985.518,255.315 987.511,259.013 989.504,237.454 991.497,243.299 993.491,246.882 995.484,255.759 997.477,258.105 999.47,260.481 1001.46,264.327 1003.46,256.699 1005.45,251.641 1007.44,253.235 1009.44,270.63 1011.43,262.728 1013.42,246.141 1015.42,249.008 1017.41,252.126 1019.4,249.881 1021.39,250.705 1023.39,251.393 1025.38,242.714 1027.37,255.88 1029.37,267.505 1031.36,252.692 1033.35,254.296 1035.35,248.98 1037.34,251.68 1039.33,260.261 1041.33,267.832 1043.32,263.971 1045.31,251.945 1047.31,255.372 1049.3,276.93 1051.29,251.154 1053.28,266.774 1055.28,258.115 1057.27,250.824 1059.26,252.8 1061.26,278.295 1063.25,242.474 1065.24,262.565 1067.24,256.237 1069.23,234.245 1071.22,260.897 1073.22,252.39 1075.21,251.864 1077.2,247.603 1079.2,270.549 1081.19,253.398 1083.18,249.819 1085.18,269.654 1087.17,266.086 1089.16,253.224 1091.15,248.461 1093.15,251.45 1095.14,249.793 1097.13,256.162 1099.13,264.302 1101.12,253.43 1103.11,253.559 1105.11,257.756 1107.1,251.104 1109.09,237.943 1111.09,237.905 1113.08,265.198 1115.07,266.886 1117.07,249.764 1119.06,258.106 1121.05,255.105 1123.05,261.613 1125.04,275.239 1127.03,251.127 1129.02,241.106 1131.02,264.121 1133.01,230.554 1135,269.775 1137,273.252 1138.99,269.112 1140.98,275.457 1142.98,246.958 1144.97,269.639 1146.96,238.513 1148.96,248.907 1150.95,262.554 1152.94,262.719 1154.94,239.378 1156.93,254.78 1158.92,253.789 1160.91,254.506 1162.91,258.331 1164.9,246.755 1166.89,237.424 1168.89,262.396 1170.88,246.787 1172.87,255.387 1174.87,279.551 1176.86,253.617 1178.85,230.892 1180.85,234.793 1182.84,249.005 1184.83,250.15 1186.83,264.259 1188.82,268.156 1190.81,253.188 1192.81,246.026 1194.8,242.308 1196.79,250.608 1198.78,264.626 1200.78,238.477 1202.77,261.704 1204.76,252.955 1206.76,265.399 1208.75,269.895 1210.74,240.879 1212.74,234.877 1214.73,248.693 1216.72,250.251 1218.72,252.529 1220.71,242.693 1222.7,257.436 1224.7,250.826 1226.69,251.647 1228.68,244.171 1230.67,249.773 1232.67,261.802 1234.66,269.325 1236.65,248.867 1238.65,253.883 1240.64,272.658 1242.63,251.517 1244.63,254.914 1246.62,258.251 1248.61,265.188 1250.61,261.793 1252.6,275.357 1254.59,246.615 1256.59,261.135 1258.58,249.11 1260.57,273.079 1262.57,245.638 1264.56,250.537 1266.55,256.412 1268.54,243.486 1270.54,245.154 1272.53,256.913 1274.52,258.837 1276.52,270.516 1278.51,252.697 1280.5,251.378 1282.5,243.16 1284.49,242.806 1286.48,262.94 1288.48,275.521 1290.47,276.719 1292.46,256.15 1294.46,247.172 1296.45,243.3 1298.44,256.493 1300.44,248.415 1302.43,258.209 1304.42,251.165 1306.41,251.767 1308.41,245.309 1310.4,262.501 1312.39,253.551 1314.39,250.453 1316.38,251.444 1318.37,252.82 1320.37,252.798 1322.36,264.059 1324.35,272.259 1326.35,258.687 1328.34,250.055 1330.33,262.616 1332.33,260.035 1334.32,259.035 1336.31,253.394 1338.3,259.832 1340.3,240.114 1342.29,244.947 1344.28,249.653 1346.28,241.139 1348.27,257.687 1350.26,268.557 1352.26,250.643 1354.25,247.234 1356.24,246.876 1358.24,244.886 1360.23,259.841 1362.22,259.423 1364.22,255.787 1366.21,246.339 1368.2,242.162 1370.2,242.863 1372.19,254.617 1374.18,255.756 1376.17,255.866 1378.17,254.588 1380.16,263.545 1382.15,265.333 1384.15,254.118 1386.14,236.568 1388.13,265.071 1390.13,260.567 1392.12,251.329 1394.11,249.744 1396.11,266.571 1398.1,239.842 1400.09,241.875 1402.09,234.816 1404.08,244.849 1406.07,249.852 1408.06,262.874 1410.06,262.497 1412.05,246.039 1414.04,247.081 1416.04,263.939 1418.03,243.884 1420.02,248.226 1422.02,247.26 1424.01,248.636 1426,249.994 1428,263.149 1429.99,259.154 1431.98,249.531 1433.98,242.796 1435.97,242.128 1437.96,245.883 1439.96,248.874 1441.95,261.64 1443.94,271.099 1445.93,276.266 1447.93,272.235 1449.92,252.178 1451.91,259.304 1453.91,249.714 1455.9,246.812 1457.89,248.12 1459.89,248.279 1461.88,252.117 1463.87,252.18 1465.87,253.378 1467.86,241.442 1469.85,249.048 1471.85,239.145 1473.84,259.501 1475.83,270.506 1477.82,247.485 1479.82,254.027 1481.81,266.932 1483.8,277.01 1485.8,245.256 1487.79,242.299 1489.78,238.583 1491.78,263.132 1493.77,253.536 1495.76,247.176 1497.76,240.789 1499.75,247.704 1501.74,255.83 1503.74,249.11 1505.73,248.851 1507.72,263.897 1509.72,245.921 1511.71,253.122 1513.7,262.625 1515.69,252.193 1517.69,252.688 1519.68,249.741 1521.67,248.514 1523.67,261.074 1525.66,241.633 1527.65,255.569 1529.65,250.678 1531.64,263.709 1533.63,261.424 1535.63,259.182 1537.62,246.475 1539.61,256.47 1541.61,247.76 1543.6,256.125 1545.59,250.943 1547.59,244.935 1549.58,259.533 1551.57,252.846 1553.56,252.388 1555.56,257.195 1557.55,253.146 1559.54,246.439 1561.54,247.739 1563.53,251.573 1565.52,250.387 1567.52,264.723 1569.51,247.465 1571.5,275.725 1573.5,248.808 1575.49,256.472 1577.48,258.944 1579.48,248.614 1581.47,258.399 1583.46,247.33 1585.45,249.678 1587.45,248.432 1589.44,242.888 1591.43,238.542 1593.43,258.337 1595.42,248.096 1597.41,244.346 1599.41,263.533 1601.4,262.355 1603.39,255.202 1605.39,270.024 1607.38,264.479 1609.37,253.026 1611.37,240.951 1613.36,245.745 1615.35,244.505 1617.35,243.269 1619.34,263.601 1621.33,266.36 1623.32,249.38 1625.32,251.08 1627.31,248.896 1629.3,258.429 1631.3,236.291 1633.29,251.368 1635.28,236.423 1637.28,240.544 1639.27,252.141 1641.26,271.483 1643.26,255.124 1645.25,255.971 1647.24,235.942 1649.24,241.857 1651.23,246.644 1653.22,253.651 1655.21,257.566 1657.21,257.616 1659.2,250.682 1661.19,262 1663.19,248.559 1665.18,246.019 1667.17,256.853 1669.17,257.22 1671.16,288.722 1673.15,250.865 1675.15,248.893 1677.14,249.905 1679.13,265.913 1681.13,255.366 1683.12,256.675 1685.11,241.899 1687.11,248.875 1689.1,269.656 1691.09,261.611 1693.08,256.044 1695.08,247.712 1697.07,255.373 1699.06,254.233 1701.06,264.007 1703.05,243.74 1705.04,252.244 1707.04,254.891 1709.03,251.082 1711.02,254.957 1713.02,247.257 1715.01,257.508 1717,256.079 1719,244.519 1720.99,253.91 1722.98,250.555 1724.97,248.04 1726.97,240.267 1728.96,260.973 1730.95,245.681 1732.95,286.87 1734.94,255.259 1736.93,252.416 1738.93,258.496 1740.92,269.213 1742.91,264.7 1744.91,244.768 1746.9,242.478 1748.89,241.852 1750.89,260.975 1752.88,245.504 1754.87,252.185 1756.87,251.922 1758.86,266.282 1760.85,258.12 1762.84,246.912 1764.84,257.417 1766.83,251.163 1768.82,246.238 1770.82,251.591 1772.81,260.534 1774.8,245.309 1776.8,286.63 1778.79,249.293 1780.78,249.964 1782.78,241.65 1784.77,255.648 1786.76,254.007 1788.76,242.299 1790.75,252.454 1792.74,263.234 1794.74,261.9 1796.73,257.104 1798.72,265.69 1800.71,248.127 1802.71,239.32 1804.7,258.003 1806.69,253.876 1808.69,245.787 1810.68,247.366 1812.67,263.276 1814.67,252.543 1816.66,254.275 1818.65,263.646 1820.65,245.509 1822.64,241.391 1824.63,241.35 1826.63,260.658 1828.62,261.865 1830.61,244.959 1832.6,251.152 1834.6,270.097 1836.59,258.481 1838.58,240.054 1840.58,239.254 1842.57,253.775 1844.56,245.744 1846.56,264.278 1848.55,262.449 1850.54,256.12 1852.54,258.684 1854.53,250.397 1856.52,259.416 1858.52,248.769 1860.51,234.636 1862.5,239.391 1864.5,255.119 1866.49,262.859 1868.48,249.299 1870.47,234.745 1872.47,251.581 1874.46,252.816 1876.45,240.765 1878.45,250.755 1880.44,249.498 1882.43,248.62 1884.43,273.352 1886.42,258.131 1888.41,256.594 1890.41,254.231 1892.4,236.766 1894.39,259.218 1896.39,248.028 1898.38,249.762 1900.37,234.137 1902.36,249.361 1904.36,250.316 1906.35,243.805 1908.34,252.366 1910.34,266.021 1912.33,269.689 1914.32,244.313 1916.32,262.538 1918.31,246.533 1920.3,286.158 1922.3,257.993 1924.29,262.798 1926.28,247.197 1928.28,246.757 1930.27,246.504 1932.26,254.216 1934.26,256.344 1936.25,250.823 1938.24,262.242 1940.23,268.053 1942.23,256.081 1944.22,245.098 1946.21,241.225 1948.21,249.876 1950.2,254.377 1952.19,234.605 1954.19,263.992 1956.18,244.45 1958.17,254.706 1960.17,254.102 1962.16,254.611 1964.15,249.928 1966.15,242.981 1968.14,252.685 1970.13,257.746 1972.12,258.458 1974.12,261.68 1976.11,252.94 1978.1,250.161 1980.1,250.834 1982.09,254.454 1984.08,245.166 1986.08,245.83 1988.07,272.93 1990.06,263.962 1992.06,251.626 1994.05,260.577 1996.04,254.473 1998.04,248.493 2000.03,254.752 2002.02,251.84 2004.02,244.011 2006.01,245.065 2008,238.468 2009.99,238.328 2011.99,253.085 2013.98,245.478 2015.97,267.712 2017.97,257.905 2019.96,243.558 2021.95,266.221 2023.95,251.126 2025.94,273.315 2027.93,268.366 2029.93,250.125 2031.92,251.995 2033.91,261.649 2035.91,250.344 2037.9,251.785 2039.89,254.389 2041.89,249.253 2043.88,242.499 2045.87,277.262 2047.86,244.269 2049.86,236.925 2051.85,249.182 2053.84,246.203 2055.84,248.296 2057.83,252.192 2059.82,258.049 2061.82,240.408 2063.81,255.489 2065.8,252.669 2067.8,241.498 2069.79,243.616 2071.78,250.886 2073.78,238.523 2075.77,249.118 2077.76,262.615 2079.75,252.919 2081.75,252.609 2083.74,248.633 2085.73,254.315 2087.73,241.258 2089.72,254.017 2091.71,257.64 2093.71,253.674 2095.7,262.524 2097.69,256.69 2099.69,249.264 2101.68,260.252 2103.67,243.217 2105.67,249.896 2107.66,250.669 2109.65,256.111 2111.65,252.98 2113.64,257.556 2115.63,267.632 2117.62,246.007 2119.62,257.898 2121.61,248.09 2123.6,244.419 2125.6,245.642 2127.59,254.913 2129.58,259.752 2131.58,259.01 2133.57,265.446 2135.56,242.493 2137.56,245.318 2139.55,261.62 2141.54,250.157 2143.54,263.081 2145.53,262.547 2147.52,262.467 2149.51,249.444 2151.51,261.629 2153.5,261.173 2155.49,249.626 2157.49,254.989 2159.48,250.881 2161.47,262.425 2163.47,251.821 2165.46,264.077 2167.45,257.048 2169.45,259.589 2171.44,268.483 2173.43,265.924 2175.43,259.24 2177.42,252.463 2179.41,240.83 2181.41,241.845 2183.4,252.233 2185.39,258.562 2187.38,256.567 2189.38,272.138 2191.37,274.307 2193.36,259.401 2195.36,241.11 2197.35,254.903 2199.34,254.682 2201.34,272.961 2203.33,267.82 2205.32,252.621 2207.32,251.745 2209.31,245.856 2211.3,248.12 2213.3,249.963 2215.29,272.982 2217.28,260.987 2219.27,251.34 2221.27,245.971 2223.26,253.003 2225.25,248.052 2227.25,249.408 2229.24,243.146 2231.23,249.595 2233.23,252.493 2235.22,247.111 2237.21,259.809 2239.21,248.596 2241.2,245.022 2243.19,240.699 2245.19,246.45 2247.18,256.688 2249.17,259.715 2251.17,261.635 2253.16,267.611 2255.15,245.326 2257.14,246.684 2259.14,234.435 2261.13,262.02 2263.12,254.555 2265.12,235.133 2267.11,246.78 2269.1,249.818 2271.1,238.651 2273.09,260.164 2275.08,272.985 2277.08,245.34 2279.07,243.617 2281.06,254.388 2283.06,243.942 2285.05,255.428 2287.04,266.939 2289.04,256.593 2291.03,262.139 2293.02,256.815 "/>
<path clip-path="url(#clip420)" d="M1736.78 1377.32 L2282.4 1377.32 L2282.4 1221.8 L1736.78 1221.8  Z" fill="#ffffff" fill-rule="evenodd" fill-opacity="1"/>
<polyline clip-path="url(#clip420)" style="stroke:#000000; stroke-linecap:round; stroke-linejoin:round; stroke-width:4; stroke-opacity:1; fill:none" points="1736.78,1377.32 2282.4,1377.32 2282.4,1221.8 1736.78,1221.8 1736.78,1377.32 "/>
<polyline clip-path="url(#clip420)" style="stroke:#009af9; stroke-linecap:round; stroke-linejoin:round; stroke-width:4; stroke-opacity:1; fill:none" points="1760.23,1273.64 1900.94,1273.64 "/>
<path clip-path="url(#clip420)" d="M1929.07 1274.41 L1929.07 1287.07 L1936.57 1287.07 Q1940.34 1287.07 1942.15 1285.52 Q1943.98 1283.95 1943.98 1280.73 Q1943.98 1277.49 1942.15 1275.96 Q1940.34 1274.41 1936.57 1274.41 L1929.07 1274.41 M1929.07 1260.2 L1929.07 1270.61 L1935.99 1270.61 Q1939.42 1270.61 1941.08 1269.34 Q1942.77 1268.05 1942.77 1265.41 Q1942.77 1262.79 1941.08 1261.49 Q1939.42 1260.2 1935.99 1260.2 L1929.07 1260.2 M1924.39 1256.36 L1936.34 1256.36 Q1941.68 1256.36 1944.58 1258.58 Q1947.47 1260.8 1947.47 1264.9 Q1947.47 1268.07 1945.99 1269.94 Q1944.51 1271.82 1941.64 1272.28 Q1945.09 1273.02 1946.98 1275.38 Q1948.91 1277.72 1948.91 1281.24 Q1948.91 1285.87 1945.76 1288.39 Q1942.61 1290.92 1936.8 1290.92 L1924.39 1290.92 L1924.39 1256.36 Z" fill="#000000" fill-rule="nonzero" fill-opacity="1" /><path clip-path="url(#clip420)" d="M1961.59 1274.41 L1961.59 1287.07 L1969.09 1287.07 Q1972.86 1287.07 1974.67 1285.52 Q1976.5 1283.95 1976.5 1280.73 Q1976.5 1277.49 1974.67 1275.96 Q1972.86 1274.41 1969.09 1274.41 L1961.59 1274.41 M1961.59 1260.2 L1961.59 1270.61 L1968.51 1270.61 Q1971.94 1270.61 1973.6 1269.34 Q1975.29 1268.05 1975.29 1265.41 Q1975.29 1262.79 1973.6 1261.49 Q1971.94 1260.2 1968.51 1260.2 L1961.59 1260.2 M1956.92 1256.36 L1968.86 1256.36 Q1974.21 1256.36 1977.1 1258.58 Q1979.99 1260.8 1979.99 1264.9 Q1979.99 1268.07 1978.51 1269.94 Q1977.03 1271.82 1974.16 1272.28 Q1977.61 1273.02 1979.51 1275.38 Q1981.43 1277.72 1981.43 1281.24 Q1981.43 1285.87 1978.28 1288.39 Q1975.13 1290.92 1969.32 1290.92 L1956.92 1290.92 L1956.92 1256.36 Z" fill="#000000" fill-rule="nonzero" fill-opacity="1" /><path clip-path="url(#clip420)" d="M1996.89 1290.92 L1983.7 1256.36 L1988.58 1256.36 L1999.53 1285.45 L2010.5 1256.36 L2015.36 1256.36 L2002.19 1290.92 L1996.89 1290.92 Z" fill="#000000" fill-rule="nonzero" fill-opacity="1" /><path clip-path="url(#clip420)" d="M2020.41 1256.36 L2025.09 1256.36 L2025.09 1290.92 L2020.41 1290.92 L2020.41 1256.36 Z" fill="#000000" fill-rule="nonzero" fill-opacity="1" /><path clip-path="url(#clip420)" d="M2075.34 1259.02 L2075.34 1263.95 Q2072.98 1261.75 2070.29 1260.66 Q2067.63 1259.57 2064.62 1259.57 Q2058.7 1259.57 2055.55 1263.21 Q2052.4 1266.82 2052.4 1273.67 Q2052.4 1280.5 2055.55 1284.13 Q2058.7 1287.74 2064.62 1287.74 Q2067.63 1287.74 2070.29 1286.66 Q2072.98 1285.57 2075.34 1283.37 L2075.34 1288.25 Q2072.89 1289.92 2070.13 1290.75 Q2067.4 1291.59 2064.35 1291.59 Q2056.5 1291.59 2051.98 1286.79 Q2047.47 1281.98 2047.47 1273.67 Q2047.47 1265.34 2051.98 1260.55 Q2056.5 1255.73 2064.35 1255.73 Q2067.45 1255.73 2070.18 1256.56 Q2072.93 1257.37 2075.34 1259.02 Z" fill="#000000" fill-rule="nonzero" fill-opacity="1" /><path clip-path="url(#clip420)" d="M2082.56 1256.36 L2102.42 1256.36 L2102.42 1260.29 L2087.24 1260.29 L2087.24 1270.48 L2100.94 1270.48 L2100.94 1274.41 L2087.24 1274.41 L2087.24 1290.92 L2082.56 1290.92 L2082.56 1256.36 Z" fill="#000000" fill-rule="nonzero" fill-opacity="1" /><path clip-path="url(#clip420)" d="M2109.83 1256.36 L2131.68 1256.36 L2131.68 1260.29 L2114.51 1260.29 L2114.51 1270.52 L2130.97 1270.52 L2130.97 1274.46 L2114.51 1274.46 L2114.51 1286.98 L2132.1 1286.98 L2132.1 1290.92 L2109.83 1290.92 L2109.83 1256.36 Z" fill="#000000" fill-rule="nonzero" fill-opacity="1" /><polyline clip-path="url(#clip420)" style="stroke:#e26f46; stroke-linecap:round; stroke-linejoin:round; stroke-width:4; stroke-opacity:1; fill:none" points="1760.23,1325.48 1900.94,1325.48 "/>
<path clip-path="url(#clip420)" d="M1929.07 1326.25 L1929.07 1338.91 L1936.57 1338.91 Q1940.34 1338.91 1942.15 1337.36 Q1943.98 1335.79 1943.98 1332.57 Q1943.98 1329.33 1942.15 1327.8 Q1940.34 1326.25 1936.57 1326.25 L1929.07 1326.25 M1929.07 1312.04 L1929.07 1322.45 L1935.99 1322.45 Q1939.42 1322.45 1941.08 1321.18 Q1942.77 1319.89 1942.77 1317.25 Q1942.77 1314.63 1941.08 1313.33 Q1939.42 1312.04 1935.99 1312.04 L1929.07 1312.04 M1924.39 1308.2 L1936.34 1308.2 Q1941.68 1308.2 1944.58 1310.42 Q1947.47 1312.64 1947.47 1316.74 Q1947.47 1319.91 1945.99 1321.78 Q1944.51 1323.66 1941.64 1324.12 Q1945.09 1324.86 1946.98 1327.22 Q1948.91 1329.56 1948.91 1333.08 Q1948.91 1337.71 1945.76 1340.23 Q1942.61 1342.76 1936.8 1342.76 L1924.39 1342.76 L1924.39 1308.2 Z" fill="#000000" fill-rule="nonzero" fill-opacity="1" /><path clip-path="url(#clip420)" d="M1961.59 1326.25 L1961.59 1338.91 L1969.09 1338.91 Q1972.86 1338.91 1974.67 1337.36 Q1976.5 1335.79 1976.5 1332.57 Q1976.5 1329.33 1974.67 1327.8 Q1972.86 1326.25 1969.09 1326.25 L1961.59 1326.25 M1961.59 1312.04 L1961.59 1322.45 L1968.51 1322.45 Q1971.94 1322.45 1973.6 1321.18 Q1975.29 1319.89 1975.29 1317.25 Q1975.29 1314.63 1973.6 1313.33 Q1971.94 1312.04 1968.51 1312.04 L1961.59 1312.04 M1956.92 1308.2 L1968.86 1308.2 Q1974.21 1308.2 1977.1 1310.42 Q1979.99 1312.64 1979.99 1316.74 Q1979.99 1319.91 1978.51 1321.78 Q1977.03 1323.66 1974.16 1324.12 Q1977.61 1324.86 1979.51 1327.22 Q1981.43 1329.56 1981.43 1333.08 Q1981.43 1337.71 1978.28 1340.23 Q1975.13 1342.76 1969.32 1342.76 L1956.92 1342.76 L1956.92 1308.2 Z" fill="#000000" fill-rule="nonzero" fill-opacity="1" /><path clip-path="url(#clip420)" d="M1996.89 1342.76 L1983.7 1308.2 L1988.58 1308.2 L1999.53 1337.29 L2010.5 1308.2 L2015.36 1308.2 L2002.19 1342.76 L1996.89 1342.76 Z" fill="#000000" fill-rule="nonzero" fill-opacity="1" /><path clip-path="url(#clip420)" d="M2020.41 1308.2 L2025.09 1308.2 L2025.09 1342.76 L2020.41 1342.76 L2020.41 1308.2 Z" fill="#000000" fill-rule="nonzero" fill-opacity="1" /><path clip-path="url(#clip420)" d="M2075.34 1310.86 L2075.34 1315.79 Q2072.98 1313.59 2070.29 1312.5 Q2067.63 1311.41 2064.62 1311.41 Q2058.7 1311.41 2055.55 1315.05 Q2052.4 1318.66 2052.4 1325.51 Q2052.4 1332.34 2055.55 1335.97 Q2058.7 1339.58 2064.62 1339.58 Q2067.63 1339.58 2070.29 1338.5 Q2072.98 1337.41 2075.34 1335.21 L2075.34 1340.09 Q2072.89 1341.76 2070.13 1342.59 Q2067.4 1343.43 2064.35 1343.43 Q2056.5 1343.43 2051.98 1338.63 Q2047.47 1333.82 2047.47 1325.51 Q2047.47 1317.18 2051.98 1312.39 Q2056.5 1307.57 2064.35 1307.57 Q2067.45 1307.57 2070.18 1308.4 Q2072.93 1309.21 2075.34 1310.86 Z" fill="#000000" fill-rule="nonzero" fill-opacity="1" /><path clip-path="url(#clip420)" d="M2082.56 1308.2 L2102.42 1308.2 L2102.42 1312.13 L2087.24 1312.13 L2087.24 1322.32 L2100.94 1322.32 L2100.94 1326.25 L2087.24 1326.25 L2087.24 1342.76 L2082.56 1342.76 L2082.56 1308.2 Z" fill="#000000" fill-rule="nonzero" fill-opacity="1" /><path clip-path="url(#clip420)" d="M2109.83 1308.2 L2131.68 1308.2 L2131.68 1312.13 L2114.51 1312.13 L2114.51 1322.36 L2130.97 1322.36 L2130.97 1326.3 L2114.51 1326.3 L2114.51 1338.82 L2132.1 1338.82 L2132.1 1342.76 L2109.83 1342.76 L2109.83 1308.2 Z" fill="#000000" fill-rule="nonzero" fill-opacity="1" /><path clip-path="url(#clip420)" d="M2168.88 1311.37 Q2163.79 1311.37 2160.78 1315.16 Q2157.79 1318.96 2157.79 1325.51 Q2157.79 1332.04 2160.78 1335.83 Q2163.79 1339.63 2168.88 1339.63 Q2173.97 1339.63 2176.94 1335.83 Q2179.92 1332.04 2179.92 1325.51 Q2179.92 1318.96 2176.94 1315.16 Q2173.97 1311.37 2168.88 1311.37 M2175.43 1342.13 L2181.59 1348.87 L2175.94 1348.87 L2170.83 1343.33 Q2170.06 1343.38 2169.65 1343.4 Q2169.25 1343.43 2168.88 1343.43 Q2161.59 1343.43 2157.21 1338.57 Q2152.86 1333.68 2152.86 1325.51 Q2152.86 1317.32 2157.21 1312.45 Q2161.59 1307.57 2168.88 1307.57 Q2176.15 1307.57 2180.5 1312.45 Q2184.85 1317.32 2184.85 1325.51 Q2184.85 1331.53 2182.42 1335.81 Q2180.02 1340.09 2175.43 1342.13 Z" fill="#000000" fill-rule="nonzero" fill-opacity="1" /><path clip-path="url(#clip420)" d="M2192.17 1308.2 L2199.14 1308.2 L2207.96 1331.71 L2216.82 1308.2 L2223.79 1308.2 L2223.79 1342.76 L2219.23 1342.76 L2219.23 1312.41 L2210.32 1336.11 L2205.62 1336.11 L2196.71 1312.41 L2196.71 1342.76 L2192.17 1342.76 L2192.17 1308.2 Z" fill="#000000" fill-rule="nonzero" fill-opacity="1" /><path clip-path="url(#clip420)" d="M2258.95 1310.86 L2258.95 1315.79 Q2256.59 1313.59 2253.9 1312.5 Q2251.24 1311.41 2248.23 1311.41 Q2242.31 1311.41 2239.16 1315.05 Q2236.01 1318.66 2236.01 1325.51 Q2236.01 1332.34 2239.16 1335.97 Q2242.31 1339.58 2248.23 1339.58 Q2251.24 1339.58 2253.9 1338.5 Q2256.59 1337.41 2258.95 1335.21 L2258.95 1340.09 Q2256.5 1341.76 2253.74 1342.59 Q2251.01 1343.43 2247.96 1343.43 Q2240.11 1343.43 2235.59 1338.63 Q2231.08 1333.82 2231.08 1325.51 Q2231.08 1317.18 2235.59 1312.39 Q2240.11 1307.57 2247.96 1307.57 Q2251.06 1307.57 2253.79 1308.4 Q2256.54 1309.21 2258.95 1310.86 Z" fill="#000000" fill-rule="nonzero" fill-opacity="1" /></svg>
