<?xml version="1.0" encoding="utf-8"?>
<svg xmlns="http://www.w3.org/2000/svg" xmlns:xlink="http://www.w3.org/1999/xlink" width="600" height="400" viewBox="0 0 2400 1600">
<defs>
  <clipPath id="clip360">
    <rect x="0" y="0" width="2400" height="1600"/>
  </clipPath>
</defs>
<path clip-path="url(#clip360)" d="M0 1600 L2400 1600 L2400 0 L0 0  Z" fill="#ffffff" fill-rule="evenodd" fill-opacity="1"/>
<defs>
  <clipPath id="clip361">
    <rect x="175" y="47" width="2178" height="1377"/>
  </clipPath>
</defs>
<path clip-path="url(#clip360)" d="M242.135 1423.18 L2352.76 1423.18 L2352.76 47.2441 L242.135 47.2441  Z" fill="#ffffff" fill-rule="evenodd" fill-opacity="1"/>
<defs>
  <clipPath id="clip362">
    <rect x="242" y="47" width="2112" height="1377"/>
  </clipPath>
</defs>
<polyline clip-path="url(#clip362)" style="stroke:#000000; stroke-linecap:round; stroke-linejoin:round; stroke-width:2; stroke-opacity:0.1; fill:none" points="299.876,1423.18 299.876,47.2441 "/>
<polyline clip-path="url(#clip362)" style="stroke:#000000; stroke-linecap:round; stroke-linejoin:round; stroke-width:2; stroke-opacity:0.1; fill:none" points="798.162,1423.18 798.162,47.2441 "/>
<polyline clip-path="url(#clip362)" style="stroke:#000000; stroke-linecap:round; stroke-linejoin:round; stroke-width:2; stroke-opacity:0.1; fill:none" points="1296.45,1423.18 1296.45,47.2441 "/>
<polyline clip-path="url(#clip362)" style="stroke:#000000; stroke-linecap:round; stroke-linejoin:round; stroke-width:2; stroke-opacity:0.1; fill:none" points="1794.74,1423.18 1794.74,47.2441 "/>
<polyline clip-path="url(#clip362)" style="stroke:#000000; stroke-linecap:round; stroke-linejoin:round; stroke-width:2; stroke-opacity:0.1; fill:none" points="2293.02,1423.18 2293.02,47.2441 "/>
<polyline clip-path="url(#clip362)" style="stroke:#000000; stroke-linecap:round; stroke-linejoin:round; stroke-width:2; stroke-opacity:0.1; fill:none" points="242.135,1201.39 2352.76,1201.39 "/>
<polyline clip-path="url(#clip362)" style="stroke:#000000; stroke-linecap:round; stroke-linejoin:round; stroke-width:2; stroke-opacity:0.1; fill:none" points="242.135,875.883 2352.76,875.883 "/>
<polyline clip-path="url(#clip362)" style="stroke:#000000; stroke-linecap:round; stroke-linejoin:round; stroke-width:2; stroke-opacity:0.1; fill:none" points="242.135,550.376 2352.76,550.376 "/>
<polyline clip-path="url(#clip362)" style="stroke:#000000; stroke-linecap:round; stroke-linejoin:round; stroke-width:2; stroke-opacity:0.1; fill:none" points="242.135,224.869 2352.76,224.869 "/>
<polyline clip-path="url(#clip360)" style="stroke:#000000; stroke-linecap:round; stroke-linejoin:round; stroke-width:4; stroke-opacity:1; fill:none" points="242.135,1423.18 2352.76,1423.18 "/>
<polyline clip-path="url(#clip360)" style="stroke:#000000; stroke-linecap:round; stroke-linejoin:round; stroke-width:4; stroke-opacity:1; fill:none" points="299.876,1423.18 299.876,1404.28 "/>
<polyline clip-path="url(#clip360)" style="stroke:#000000; stroke-linecap:round; stroke-linejoin:round; stroke-width:4; stroke-opacity:1; fill:none" points="798.162,1423.18 798.162,1404.28 "/>
<polyline clip-path="url(#clip360)" style="stroke:#000000; stroke-linecap:round; stroke-linejoin:round; stroke-width:4; stroke-opacity:1; fill:none" points="1296.45,1423.18 1296.45,1404.28 "/>
<polyline clip-path="url(#clip360)" style="stroke:#000000; stroke-linecap:round; stroke-linejoin:round; stroke-width:4; stroke-opacity:1; fill:none" points="1794.74,1423.18 1794.74,1404.28 "/>
<polyline clip-path="url(#clip360)" style="stroke:#000000; stroke-linecap:round; stroke-linejoin:round; stroke-width:4; stroke-opacity:1; fill:none" points="2293.02,1423.18 2293.02,1404.28 "/>
<path clip-path="url(#clip360)" d="M299.876 1454.1 Q296.265 1454.1 294.436 1457.66 Q292.631 1461.2 292.631 1468.33 Q292.631 1475.44 294.436 1479.01 Q296.265 1482.55 299.876 1482.55 Q303.51 1482.55 305.316 1479.01 Q307.145 1475.44 307.145 1468.33 Q307.145 1461.2 305.316 1457.66 Q303.51 1454.1 299.876 1454.1 M299.876 1450.39 Q305.686 1450.39 308.742 1455 Q311.82 1459.58 311.82 1468.33 Q311.82 1477.06 308.742 1481.67 Q305.686 1486.25 299.876 1486.25 Q294.066 1486.25 290.987 1481.67 Q287.932 1477.06 287.932 1468.33 Q287.932 1459.58 290.987 1455 Q294.066 1450.39 299.876 1450.39 Z" fill="#000000" fill-rule="nonzero" fill-opacity="1" /><path clip-path="url(#clip360)" d="M761.855 1481.64 L778.174 1481.64 L778.174 1485.58 L756.23 1485.58 L756.23 1481.64 Q758.892 1478.89 763.475 1474.26 Q768.082 1469.61 769.262 1468.27 Q771.507 1465.74 772.387 1464.01 Q773.29 1462.25 773.29 1460.56 Q773.29 1457.8 771.345 1456.07 Q769.424 1454.33 766.322 1454.33 Q764.123 1454.33 761.67 1455.09 Q759.239 1455.86 756.461 1457.41 L756.461 1452.69 Q759.285 1451.55 761.739 1450.97 Q764.193 1450.39 766.23 1450.39 Q771.6 1450.39 774.794 1453.08 Q777.989 1455.77 777.989 1460.26 Q777.989 1462.39 777.179 1464.31 Q776.392 1466.2 774.285 1468.8 Q773.707 1469.47 770.605 1472.69 Q767.503 1475.88 761.855 1481.64 Z" fill="#000000" fill-rule="nonzero" fill-opacity="1" /><path clip-path="url(#clip360)" d="M788.035 1451.02 L806.392 1451.02 L806.392 1454.96 L792.318 1454.96 L792.318 1463.43 Q793.336 1463.08 794.355 1462.92 Q795.373 1462.73 796.392 1462.73 Q802.179 1462.73 805.558 1465.9 Q808.938 1469.08 808.938 1474.49 Q808.938 1480.07 805.466 1483.17 Q801.993 1486.25 795.674 1486.25 Q793.498 1486.25 791.23 1485.88 Q788.984 1485.51 786.577 1484.77 L786.577 1480.07 Q788.66 1481.2 790.882 1481.76 Q793.105 1482.32 795.581 1482.32 Q799.586 1482.32 801.924 1480.21 Q804.262 1478.1 804.262 1474.49 Q804.262 1470.88 801.924 1468.77 Q799.586 1466.67 795.581 1466.67 Q793.706 1466.67 791.831 1467.08 Q789.98 1467.5 788.035 1468.38 L788.035 1451.02 Z" fill="#000000" fill-rule="nonzero" fill-opacity="1" /><path clip-path="url(#clip360)" d="M828.151 1454.1 Q824.54 1454.1 822.711 1457.66 Q820.905 1461.2 820.905 1468.33 Q820.905 1475.44 822.711 1479.01 Q824.54 1482.55 828.151 1482.55 Q831.785 1482.55 833.59 1479.01 Q835.419 1475.44 835.419 1468.33 Q835.419 1461.2 833.59 1457.66 Q831.785 1454.1 828.151 1454.1 M828.151 1450.39 Q833.961 1450.39 837.016 1455 Q840.095 1459.58 840.095 1468.33 Q840.095 1477.06 837.016 1481.67 Q833.961 1486.25 828.151 1486.25 Q822.341 1486.25 819.262 1481.67 Q816.206 1477.06 816.206 1468.33 Q816.206 1459.58 819.262 1455 Q822.341 1450.39 828.151 1450.39 Z" fill="#000000" fill-rule="nonzero" fill-opacity="1" /><path clip-path="url(#clip360)" d="M1256.07 1451.02 L1274.42 1451.02 L1274.42 1454.96 L1260.35 1454.96 L1260.35 1463.43 Q1261.37 1463.08 1262.39 1462.92 Q1263.4 1462.73 1264.42 1462.73 Q1270.21 1462.73 1273.59 1465.9 Q1276.97 1469.08 1276.97 1474.49 Q1276.97 1480.07 1273.5 1483.17 Q1270.03 1486.25 1263.71 1486.25 Q1261.53 1486.25 1259.26 1485.88 Q1257.02 1485.51 1254.61 1484.77 L1254.61 1480.07 Q1256.69 1481.2 1258.91 1481.76 Q1261.14 1482.32 1263.61 1482.32 Q1267.62 1482.32 1269.96 1480.21 Q1272.29 1478.1 1272.29 1474.49 Q1272.29 1470.88 1269.96 1468.77 Q1267.62 1466.67 1263.61 1466.67 Q1261.74 1466.67 1259.86 1467.08 Q1258.01 1467.5 1256.07 1468.38 L1256.07 1451.02 Z" fill="#000000" fill-rule="nonzero" fill-opacity="1" /><path clip-path="url(#clip360)" d="M1296.18 1454.1 Q1292.57 1454.1 1290.74 1457.66 Q1288.94 1461.2 1288.94 1468.33 Q1288.94 1475.44 1290.74 1479.01 Q1292.57 1482.55 1296.18 1482.55 Q1299.82 1482.55 1301.62 1479.01 Q1303.45 1475.44 1303.45 1468.33 Q1303.45 1461.2 1301.62 1457.66 Q1299.82 1454.1 1296.18 1454.1 M1296.18 1450.39 Q1301.99 1450.39 1305.05 1455 Q1308.13 1459.58 1308.13 1468.33 Q1308.13 1477.06 1305.05 1481.67 Q1301.99 1486.25 1296.18 1486.25 Q1290.37 1486.25 1287.29 1481.67 Q1284.24 1477.06 1284.24 1468.33 Q1284.24 1459.58 1287.29 1455 Q1290.37 1450.39 1296.18 1450.39 Z" fill="#000000" fill-rule="nonzero" fill-opacity="1" /><path clip-path="url(#clip360)" d="M1326.34 1454.1 Q1322.73 1454.1 1320.9 1457.66 Q1319.1 1461.2 1319.1 1468.33 Q1319.1 1475.44 1320.9 1479.01 Q1322.73 1482.55 1326.34 1482.55 Q1329.98 1482.55 1331.78 1479.01 Q1333.61 1475.44 1333.61 1468.33 Q1333.61 1461.2 1331.78 1457.66 Q1329.98 1454.1 1326.34 1454.1 M1326.34 1450.39 Q1332.15 1450.39 1335.21 1455 Q1338.29 1459.58 1338.29 1468.33 Q1338.29 1477.06 1335.21 1481.67 Q1332.15 1486.25 1326.34 1486.25 Q1320.53 1486.25 1317.46 1481.67 Q1314.4 1477.06 1314.4 1468.33 Q1314.4 1459.58 1317.46 1455 Q1320.53 1450.39 1326.34 1450.39 Z" fill="#000000" fill-rule="nonzero" fill-opacity="1" /><path clip-path="url(#clip360)" d="M1753.01 1451.02 L1775.23 1451.02 L1775.23 1453.01 L1762.69 1485.58 L1757.8 1485.58 L1769.61 1454.96 L1753.01 1454.96 L1753.01 1451.02 Z" fill="#000000" fill-rule="nonzero" fill-opacity="1" /><path clip-path="url(#clip360)" d="M1784.4 1451.02 L1802.76 1451.02 L1802.76 1454.96 L1788.68 1454.96 L1788.68 1463.43 Q1789.7 1463.08 1790.72 1462.92 Q1791.74 1462.73 1792.76 1462.73 Q1798.54 1462.73 1801.92 1465.9 Q1805.3 1469.08 1805.3 1474.49 Q1805.3 1480.07 1801.83 1483.17 Q1798.36 1486.25 1792.04 1486.25 Q1789.86 1486.25 1787.59 1485.88 Q1785.35 1485.51 1782.94 1484.77 L1782.94 1480.07 Q1785.02 1481.2 1787.25 1481.76 Q1789.47 1482.32 1791.95 1482.32 Q1795.95 1482.32 1798.29 1480.21 Q1800.63 1478.1 1800.63 1474.49 Q1800.63 1470.88 1798.29 1468.77 Q1795.95 1466.67 1791.95 1466.67 Q1790.07 1466.67 1788.2 1467.08 Q1786.34 1467.5 1784.4 1468.38 L1784.4 1451.02 Z" fill="#000000" fill-rule="nonzero" fill-opacity="1" /><path clip-path="url(#clip360)" d="M1824.51 1454.1 Q1820.9 1454.1 1819.08 1457.66 Q1817.27 1461.2 1817.27 1468.33 Q1817.27 1475.44 1819.08 1479.01 Q1820.9 1482.55 1824.51 1482.55 Q1828.15 1482.55 1829.95 1479.01 Q1831.78 1475.44 1831.78 1468.33 Q1831.78 1461.2 1829.95 1457.66 Q1828.15 1454.1 1824.51 1454.1 M1824.51 1450.39 Q1830.33 1450.39 1833.38 1455 Q1836.46 1459.58 1836.46 1468.33 Q1836.46 1477.06 1833.38 1481.67 Q1830.33 1486.25 1824.51 1486.25 Q1818.7 1486.25 1815.63 1481.67 Q1812.57 1477.06 1812.57 1468.33 Q1812.57 1459.58 1815.63 1455 Q1818.7 1450.39 1824.51 1450.39 Z" fill="#000000" fill-rule="nonzero" fill-opacity="1" /><path clip-path="url(#clip360)" d="M2237.55 1481.64 L2245.19 1481.64 L2245.19 1455.28 L2236.88 1456.95 L2236.88 1452.69 L2245.14 1451.02 L2249.82 1451.02 L2249.82 1481.64 L2257.45 1481.64 L2257.45 1485.58 L2237.55 1485.58 L2237.55 1481.64 Z" fill="#000000" fill-rule="nonzero" fill-opacity="1" /><path clip-path="url(#clip360)" d="M2276.9 1454.1 Q2273.29 1454.1 2271.46 1457.66 Q2269.65 1461.2 2269.65 1468.33 Q2269.65 1475.44 2271.46 1479.01 Q2273.29 1482.55 2276.9 1482.55 Q2280.53 1482.55 2282.34 1479.01 Q2284.17 1475.44 2284.17 1468.33 Q2284.17 1461.2 2282.34 1457.66 Q2280.53 1454.1 2276.9 1454.1 M2276.9 1450.39 Q2282.71 1450.39 2285.76 1455 Q2288.84 1459.58 2288.84 1468.33 Q2288.84 1477.06 2285.76 1481.67 Q2282.71 1486.25 2276.9 1486.25 Q2271.09 1486.25 2268.01 1481.67 Q2264.95 1477.06 2264.95 1468.33 Q2264.95 1459.58 2268.01 1455 Q2271.09 1450.39 2276.9 1450.39 Z" fill="#000000" fill-rule="nonzero" fill-opacity="1" /><path clip-path="url(#clip360)" d="M2307.06 1454.1 Q2303.45 1454.1 2301.62 1457.66 Q2299.82 1461.2 2299.82 1468.33 Q2299.82 1475.44 2301.62 1479.01 Q2303.45 1482.55 2307.06 1482.55 Q2310.69 1482.55 2312.5 1479.01 Q2314.33 1475.44 2314.33 1468.33 Q2314.33 1461.2 2312.5 1457.66 Q2310.69 1454.1 2307.06 1454.1 M2307.06 1450.39 Q2312.87 1450.39 2315.93 1455 Q2319 1459.58 2319 1468.33 Q2319 1477.06 2315.93 1481.67 Q2312.87 1486.25 2307.06 1486.25 Q2301.25 1486.25 2298.17 1481.67 Q2295.12 1477.06 2295.12 1468.33 Q2295.12 1459.58 2298.17 1455 Q2301.25 1450.39 2307.06 1450.39 Z" fill="#000000" fill-rule="nonzero" fill-opacity="1" /><path clip-path="url(#clip360)" d="M2337.22 1454.1 Q2333.61 1454.1 2331.78 1457.66 Q2329.98 1461.2 2329.98 1468.33 Q2329.98 1475.44 2331.78 1479.01 Q2333.61 1482.55 2337.22 1482.55 Q2340.86 1482.55 2342.66 1479.01 Q2344.49 1475.44 2344.49 1468.33 Q2344.49 1461.2 2342.66 1457.66 Q2340.86 1454.1 2337.22 1454.1 M2337.22 1450.39 Q2343.03 1450.39 2346.09 1455 Q2349.17 1459.58 2349.17 1468.33 Q2349.17 1477.06 2346.09 1481.67 Q2343.03 1486.25 2337.22 1486.25 Q2331.41 1486.25 2328.33 1481.67 Q2325.28 1477.06 2325.28 1468.33 Q2325.28 1459.58 2328.33 1455 Q2331.41 1450.39 2337.22 1450.39 Z" fill="#000000" fill-rule="nonzero" fill-opacity="1" /><path clip-path="url(#clip360)" d="M1165.17 1520.52 L1171.6 1520.52 L1171.6 1568.04 L1165.17 1568.04 L1165.17 1520.52 Z" fill="#000000" fill-rule="nonzero" fill-opacity="1" /><path clip-path="url(#clip360)" d="M1189.93 1522.27 L1189.93 1532.4 L1201.99 1532.4 L1201.99 1536.95 L1189.93 1536.95 L1189.93 1556.3 Q1189.93 1560.66 1191.11 1561.9 Q1192.32 1563.14 1195.98 1563.14 L1201.99 1563.14 L1201.99 1568.04 L1195.98 1568.04 Q1189.2 1568.04 1186.62 1565.53 Q1184.04 1562.98 1184.04 1556.3 L1184.04 1536.95 L1179.74 1536.95 L1179.74 1532.4 L1184.04 1532.4 L1184.04 1522.27 L1189.93 1522.27 Z" fill="#000000" fill-rule="nonzero" fill-opacity="1" /><path clip-path="url(#clip360)" d="M1240.19 1548.76 L1240.19 1551.62 L1213.26 1551.62 Q1213.64 1557.67 1216.89 1560.85 Q1220.17 1564 1225.99 1564 Q1229.36 1564 1232.52 1563.17 Q1235.7 1562.35 1238.82 1560.69 L1238.82 1566.23 Q1235.67 1567.57 1232.36 1568.27 Q1229.05 1568.97 1225.64 1568.97 Q1217.11 1568.97 1212.11 1564 Q1207.15 1559.04 1207.15 1550.57 Q1207.15 1541.82 1211.86 1536.69 Q1216.6 1531.54 1224.62 1531.54 Q1231.81 1531.54 1235.98 1536.18 Q1240.19 1540.8 1240.19 1548.76 M1234.33 1547.04 Q1234.27 1542.23 1231.62 1539.37 Q1229.01 1536.5 1224.69 1536.5 Q1219.78 1536.5 1216.82 1539.27 Q1213.9 1542.04 1213.45 1547.07 L1234.33 1547.04 Z" fill="#000000" fill-rule="nonzero" fill-opacity="1" /><path clip-path="url(#clip360)" d="M1270.45 1537.87 Q1269.47 1537.3 1268.29 1537.04 Q1267.14 1536.76 1265.74 1536.76 Q1260.78 1536.76 1258.11 1540 Q1255.46 1543.22 1255.46 1549.27 L1255.46 1568.04 L1249.58 1568.04 L1249.58 1532.4 L1255.46 1532.4 L1255.46 1537.93 Q1257.31 1534.69 1260.27 1533.13 Q1263.23 1531.54 1267.46 1531.54 Q1268.07 1531.54 1268.8 1531.63 Q1269.53 1531.7 1270.42 1531.85 L1270.45 1537.87 Z" fill="#000000" fill-rule="nonzero" fill-opacity="1" /><path clip-path="url(#clip360)" d="M1292.8 1550.12 Q1285.7 1550.12 1282.96 1551.75 Q1280.23 1553.37 1280.23 1557.29 Q1280.23 1560.4 1282.26 1562.25 Q1284.33 1564.07 1287.86 1564.07 Q1292.73 1564.07 1295.66 1560.63 Q1298.62 1557.16 1298.62 1551.43 L1298.62 1550.12 L1292.8 1550.12 M1304.48 1547.71 L1304.48 1568.04 L1298.62 1568.04 L1298.62 1562.63 Q1296.62 1565.88 1293.63 1567.44 Q1290.63 1568.97 1286.31 1568.97 Q1280.83 1568.97 1277.58 1565.91 Q1274.37 1562.82 1274.37 1557.67 Q1274.37 1551.65 1278.38 1548.6 Q1282.42 1545.54 1290.41 1545.54 L1298.62 1545.54 L1298.62 1544.97 Q1298.62 1540.93 1295.95 1538.73 Q1293.31 1536.5 1288.5 1536.5 Q1285.45 1536.5 1282.55 1537.23 Q1279.65 1537.97 1276.98 1539.43 L1276.98 1534.02 Q1280.19 1532.78 1283.22 1532.17 Q1286.24 1531.54 1289.11 1531.54 Q1296.84 1531.54 1300.66 1535.55 Q1304.48 1539.56 1304.48 1547.71 Z" fill="#000000" fill-rule="nonzero" fill-opacity="1" /><path clip-path="url(#clip360)" d="M1322.34 1522.27 L1322.34 1532.4 L1334.4 1532.4 L1334.4 1536.95 L1322.34 1536.95 L1322.34 1556.3 Q1322.34 1560.66 1323.51 1561.9 Q1324.72 1563.14 1328.38 1563.14 L1334.4 1563.14 L1334.4 1568.04 L1328.38 1568.04 Q1321.6 1568.04 1319.03 1565.53 Q1316.45 1562.98 1316.45 1556.3 L1316.45 1536.95 L1312.15 1536.95 L1312.15 1532.4 L1316.45 1532.4 L1316.45 1522.27 L1322.34 1522.27 Z" fill="#000000" fill-rule="nonzero" fill-opacity="1" /><path clip-path="url(#clip360)" d="M1342.1 1532.4 L1347.96 1532.4 L1347.96 1568.04 L1342.1 1568.04 L1342.1 1532.4 M1342.1 1518.52 L1347.96 1518.52 L1347.96 1525.93 L1342.1 1525.93 L1342.1 1518.52 Z" fill="#000000" fill-rule="nonzero" fill-opacity="1" /><path clip-path="url(#clip360)" d="M1374.02 1536.5 Q1369.31 1536.5 1366.58 1540.19 Q1363.84 1543.85 1363.84 1550.25 Q1363.84 1556.65 1366.55 1560.34 Q1369.28 1564 1374.02 1564 Q1378.7 1564 1381.44 1560.31 Q1384.18 1556.62 1384.18 1550.25 Q1384.18 1543.92 1381.44 1540.23 Q1378.7 1536.5 1374.02 1536.5 M1374.02 1531.54 Q1381.66 1531.54 1386.02 1536.5 Q1390.38 1541.47 1390.38 1550.25 Q1390.38 1559 1386.02 1564 Q1381.66 1568.97 1374.02 1568.97 Q1366.35 1568.97 1361.99 1564 Q1357.66 1559 1357.66 1550.25 Q1357.66 1541.47 1361.99 1536.5 Q1366.35 1531.54 1374.02 1531.54 Z" fill="#000000" fill-rule="nonzero" fill-opacity="1" /><path clip-path="url(#clip360)" d="M1429.72 1546.53 L1429.72 1568.04 L1423.87 1568.04 L1423.87 1546.72 Q1423.87 1541.66 1421.89 1539.14 Q1419.92 1536.63 1415.97 1536.63 Q1411.23 1536.63 1408.5 1539.65 Q1405.76 1542.68 1405.76 1547.9 L1405.76 1568.04 L1399.87 1568.04 L1399.87 1532.4 L1405.76 1532.4 L1405.76 1537.93 Q1407.86 1534.72 1410.69 1533.13 Q1413.56 1531.54 1417.28 1531.54 Q1423.42 1531.54 1426.57 1535.36 Q1429.72 1539.14 1429.72 1546.53 Z" fill="#000000" fill-rule="nonzero" fill-opacity="1" /><polyline clip-path="url(#clip360)" style="stroke:#000000; stroke-linecap:round; stroke-linejoin:round; stroke-width:4; stroke-opacity:1; fill:none" points="242.135,1423.18 242.135,47.2441 "/>
<polyline clip-path="url(#clip360)" style="stroke:#000000; stroke-linecap:round; stroke-linejoin:round; stroke-width:4; stroke-opacity:1; fill:none" points="242.135,1201.39 261.032,1201.39 "/>
<polyline clip-path="url(#clip360)" style="stroke:#000000; stroke-linecap:round; stroke-linejoin:round; stroke-width:4; stroke-opacity:1; fill:none" points="242.135,875.883 261.032,875.883 "/>
<polyline clip-path="url(#clip360)" style="stroke:#000000; stroke-linecap:round; stroke-linejoin:round; stroke-width:4; stroke-opacity:1; fill:none" points="242.135,550.376 261.032,550.376 "/>
<polyline clip-path="url(#clip360)" style="stroke:#000000; stroke-linecap:round; stroke-linejoin:round; stroke-width:4; stroke-opacity:1; fill:none" points="242.135,224.869 261.032,224.869 "/>
<path clip-path="url(#clip360)" d="M114.26 1201.84 L143.936 1201.84 L143.936 1205.78 L114.26 1205.78 L114.26 1201.84 Z" fill="#000000" fill-rule="nonzero" fill-opacity="1" /><path clip-path="url(#clip360)" d="M168.195 1200.04 Q171.552 1200.75 173.427 1203.02 Q175.325 1205.29 175.325 1208.62 Q175.325 1213.74 171.806 1216.54 Q168.288 1219.34 161.806 1219.34 Q159.63 1219.34 157.315 1218.9 Q155.024 1218.48 152.57 1217.63 L152.57 1213.11 Q154.515 1214.25 156.829 1214.83 Q159.144 1215.41 161.667 1215.41 Q166.065 1215.41 168.357 1213.67 Q170.672 1211.93 170.672 1208.62 Q170.672 1205.57 168.519 1203.86 Q166.39 1202.12 162.57 1202.12 L158.542 1202.12 L158.542 1198.28 L162.755 1198.28 Q166.204 1198.28 168.033 1196.91 Q169.862 1195.52 169.862 1192.93 Q169.862 1190.27 167.964 1188.86 Q166.089 1187.42 162.57 1187.42 Q160.649 1187.42 158.45 1187.84 Q156.251 1188.25 153.612 1189.13 L153.612 1184.97 Q156.274 1184.23 158.589 1183.86 Q160.927 1183.48 162.987 1183.48 Q168.311 1183.48 171.413 1185.92 Q174.514 1188.32 174.514 1192.44 Q174.514 1195.31 172.871 1197.3 Q171.227 1199.27 168.195 1200.04 Z" fill="#000000" fill-rule="nonzero" fill-opacity="1" /><path clip-path="url(#clip360)" d="M194.19 1187.19 Q190.579 1187.19 188.75 1190.75 Q186.945 1194.29 186.945 1201.42 Q186.945 1208.53 188.75 1212.1 Q190.579 1215.64 194.19 1215.64 Q197.825 1215.64 199.63 1212.1 Q201.459 1208.53 201.459 1201.42 Q201.459 1194.29 199.63 1190.75 Q197.825 1187.19 194.19 1187.19 M194.19 1183.48 Q200 1183.48 203.056 1188.09 Q206.135 1192.67 206.135 1201.42 Q206.135 1210.15 203.056 1214.76 Q200 1219.34 194.19 1219.34 Q188.38 1219.34 185.301 1214.76 Q182.246 1210.15 182.246 1201.42 Q182.246 1192.67 185.301 1188.09 Q188.38 1183.48 194.19 1183.48 Z" fill="#000000" fill-rule="nonzero" fill-opacity="1" /><path clip-path="url(#clip360)" d="M114.26 876.334 L143.936 876.334 L143.936 880.27 L114.26 880.27 L114.26 876.334 Z" fill="#000000" fill-rule="nonzero" fill-opacity="1" /><path clip-path="url(#clip360)" d="M158.056 889.228 L174.376 889.228 L174.376 893.163 L152.431 893.163 L152.431 889.228 Q155.093 886.473 159.677 881.844 Q164.283 877.191 165.464 875.848 Q167.709 873.325 168.589 871.589 Q169.491 869.83 169.491 868.14 Q169.491 865.385 167.547 863.649 Q165.626 861.913 162.524 861.913 Q160.325 861.913 157.871 862.677 Q155.44 863.441 152.663 864.992 L152.663 860.27 Q155.487 859.135 157.94 858.557 Q160.394 857.978 162.431 857.978 Q167.802 857.978 170.996 860.663 Q174.19 863.348 174.19 867.839 Q174.19 869.969 173.38 871.89 Q172.593 873.788 170.487 876.381 Q169.908 877.052 166.806 880.27 Q163.704 883.464 158.056 889.228 Z" fill="#000000" fill-rule="nonzero" fill-opacity="1" /><path clip-path="url(#clip360)" d="M194.19 861.682 Q190.579 861.682 188.75 865.246 Q186.945 868.788 186.945 875.918 Q186.945 883.024 188.75 886.589 Q190.579 890.131 194.19 890.131 Q197.825 890.131 199.63 886.589 Q201.459 883.024 201.459 875.918 Q201.459 868.788 199.63 865.246 Q197.825 861.682 194.19 861.682 M194.19 857.978 Q200 857.978 203.056 862.584 Q206.135 867.168 206.135 875.918 Q206.135 884.644 203.056 889.251 Q200 893.834 194.19 893.834 Q188.38 893.834 185.301 889.251 Q182.246 884.644 182.246 875.918 Q182.246 867.168 185.301 862.584 Q188.38 857.978 194.19 857.978 Z" fill="#000000" fill-rule="nonzero" fill-opacity="1" /><path clip-path="url(#clip360)" d="M114.26 550.828 L143.936 550.828 L143.936 554.763 L114.26 554.763 L114.26 550.828 Z" fill="#000000" fill-rule="nonzero" fill-opacity="1" /><path clip-path="url(#clip360)" d="M154.839 563.721 L162.477 563.721 L162.477 537.355 L154.167 539.022 L154.167 534.763 L162.431 533.096 L167.107 533.096 L167.107 563.721 L174.746 563.721 L174.746 567.656 L154.839 567.656 L154.839 563.721 Z" fill="#000000" fill-rule="nonzero" fill-opacity="1" /><path clip-path="url(#clip360)" d="M194.19 536.175 Q190.579 536.175 188.75 539.74 Q186.945 543.281 186.945 550.411 Q186.945 557.517 188.75 561.082 Q190.579 564.624 194.19 564.624 Q197.825 564.624 199.63 561.082 Q201.459 557.517 201.459 550.411 Q201.459 543.281 199.63 539.74 Q197.825 536.175 194.19 536.175 M194.19 532.471 Q200 532.471 203.056 537.078 Q206.135 541.661 206.135 550.411 Q206.135 559.138 203.056 563.744 Q200 568.327 194.19 568.327 Q188.38 568.327 185.301 563.744 Q182.246 559.138 182.246 550.411 Q182.246 541.661 185.301 537.078 Q188.38 532.471 194.19 532.471 Z" fill="#000000" fill-rule="nonzero" fill-opacity="1" /><path clip-path="url(#clip360)" d="M194.19 210.668 Q190.579 210.668 188.75 214.233 Q186.945 217.775 186.945 224.904 Q186.945 232.011 188.75 235.575 Q190.579 239.117 194.19 239.117 Q197.825 239.117 199.63 235.575 Q201.459 232.011 201.459 224.904 Q201.459 217.775 199.63 214.233 Q197.825 210.668 194.19 210.668 M194.19 206.964 Q200 206.964 203.056 211.571 Q206.135 216.154 206.135 224.904 Q206.135 233.631 203.056 238.237 Q200 242.821 194.19 242.821 Q188.38 242.821 185.301 238.237 Q182.246 233.631 182.246 224.904 Q182.246 216.154 185.301 211.571 Q188.38 206.964 194.19 206.964 Z" fill="#000000" fill-rule="nonzero" fill-opacity="1" /><path clip-path="url(#clip360)" d="M16.4842 816.375 L16.4842 786.329 L21.895 786.329 L21.895 809.945 L35.9632 809.945 L35.9632 787.315 L41.3741 787.315 L41.3741 809.945 L58.5933 809.945 L58.5933 785.756 L64.0042 785.756 L64.0042 816.375 L16.4842 816.375 Z" fill="#000000" fill-rule="nonzero" fill-opacity="1" /><path clip-path="url(#clip360)" d="M16.4842 775.189 L16.4842 768.759 L58.5933 768.759 L58.5933 745.62 L64.0042 745.62 L64.0042 775.189 L16.4842 775.189 Z" fill="#000000" fill-rule="nonzero" fill-opacity="1" /><path clip-path="url(#clip360)" d="M41.3104 732.443 L58.7206 732.443 L58.7206 722.13 Q58.7206 716.942 56.5881 714.46 Q54.4238 711.945 49.9996 711.945 Q45.5436 711.945 43.4429 714.46 Q41.3104 716.942 41.3104 722.13 L41.3104 732.443 M21.7677 732.443 L36.0905 732.443 L36.0905 722.926 Q36.0905 718.216 34.34 715.924 Q32.5576 713.6 28.9291 713.6 Q25.3325 713.6 23.5501 715.924 Q21.7677 718.216 21.7677 722.926 L21.7677 732.443 M16.4842 738.872 L16.4842 722.449 Q16.4842 715.096 19.5397 711.118 Q22.5952 707.139 28.2289 707.139 Q32.5894 707.139 35.1675 709.176 Q37.7456 711.213 38.3822 715.16 Q39.4007 710.418 42.6472 707.808 Q45.8619 705.166 50.6998 705.166 Q57.0655 705.166 60.5348 709.495 Q64.0042 713.823 64.0042 721.812 L64.0042 738.872 L16.4842 738.872 Z" fill="#000000" fill-rule="nonzero" fill-opacity="1" /><path clip-path="url(#clip360)" d="M20.8447 676.011 Q20.8447 683.013 26.0645 687.151 Q31.2844 691.257 40.2919 691.257 Q49.2675 691.257 54.4874 687.151 Q59.7073 683.013 59.7073 676.011 Q59.7073 669.009 54.4874 664.935 Q49.2675 660.829 40.2919 660.829 Q31.2844 660.829 26.0645 664.935 Q20.8447 669.009 20.8447 676.011 M15.6248 676.011 Q15.6248 666.017 22.3406 660.033 Q29.0246 654.049 40.2919 654.049 Q51.5274 654.049 58.2432 660.033 Q64.9272 666.017 64.9272 676.011 Q64.9272 686.037 58.2432 692.052 Q51.5592 698.036 40.2919 698.036 Q29.0246 698.036 22.3406 692.052 Q15.6248 686.037 15.6248 676.011 Z" fill="#000000" fill-rule="nonzero" fill-opacity="1" /><polyline clip-path="url(#clip362)" style="stroke:#009af9; stroke-linecap:round; stroke-linejoin:round; stroke-width:4; stroke-opacity:1; fill:none" points="301.869,571.467 303.862,844.905 305.856,891.588 307.849,629.46 309.842,957.286 311.835,595.933 313.828,653.409 315.821,530.566 317.814,568.942 319.808,837.695 321.801,453.221 323.794,854.014 325.787,828.296 327.78,1107.69 329.773,871.104 331.766,877.698 333.76,967.375 335.753,1161.22 337.746,666.817 339.739,718.761 341.732,1014.84 343.725,769.625 345.718,942.881 347.712,787.96 349.705,561.165 351.698,1041.5 353.691,779.27 355.684,910.517 357.677,602.301 359.67,860.521 361.664,737.082 363.657,769.906 365.65,808.803 367.643,746.087 369.636,916.409 371.629,793.605 373.622,970.461 375.616,744.28 377.609,1111.47 379.602,658.771 381.595,534.257 383.588,870.508 385.581,539.47 387.574,876.211 389.568,445.694 391.561,391.07 393.554,870.306 395.547,778.989 397.54,522.736 399.533,691.186 401.526,460.558 403.52,889.364 405.513,416.436 407.506,736.127 409.499,466.721 411.492,540.764 413.485,511.575 415.479,512.123 417.472,488.654 419.465,750.495 421.458,611.626 423.451,265.09 425.444,484.262 427.437,692.226 429.431,635.77 431.424,457.822 433.417,639.953 435.41,683.109 437.403,435.522 439.396,420.968 441.389,612.672 443.383,383.324 445.376,570.771 447.369,450.559 449.362,807.833 451.355,424.732 453.348,362.858 455.341,430.141 457.335,406.411 459.328,536.696 461.321,350.364 463.314,534.871 465.307,563.685 467.3,615.785 469.293,574.188 471.287,787.75 473.28,489.672 475.273,538.642 477.266,969.938 479.259,1072.06 481.252,363.331 483.245,373.991 485.239,600.44 487.232,625.176 489.225,406.702 491.218,184.151 493.211,516.227 495.204,415.194 497.197,269.783 499.191,438.9 501.184,524.346 503.177,374.253 505.17,403.177 507.163,641.41 509.156,553.633 511.149,470.458 513.143,451.17 515.136,458.474 517.129,282.472 519.122,815.205 521.115,662.838 523.108,582.483 525.101,382.111 527.095,485.805 529.088,328.332 531.081,303.756 533.074,454.094 535.067,297.581 537.06,475.46 539.054,430.223 541.047,513.876 543.04,354.074 545.033,422.559 547.026,382.812 549.019,276.893 551.012,388.226 553.006,266.74 554.999,543.259 556.992,377.476 558.985,375.787 560.978,178.96 562.971,223.544 564.964,436.887 566.958,333.474 568.951,453.332 570.944,492.114 572.937,341.741 574.93,496.63 576.923,284.965 578.916,489.878 580.91,436.543 582.903,411.955 584.896,185.332 586.889,187.362 588.882,384.069 590.875,466.855 592.868,472.737 594.862,285.812 596.855,372.994 598.848,400.297 600.841,551.591 602.834,278.027 604.827,403.212 606.82,551.891 608.814,265.943 610.807,546.019 612.8,309.429 614.793,476.742 616.786,157.17 618.779,278.719 620.772,413.359 622.766,355.807 624.759,281.047 626.752,276.493 628.745,398.171 630.738,381.872 632.731,213.551 634.724,329.511 636.718,664.15 638.711,367.418 640.704,222.727 642.697,217.082 644.69,253.995 646.683,404.69 648.677,339.431 650.67,263.789 652.663,561.919 654.656,169.446 656.649,154.808 658.642,435.085 660.635,328.47 662.629,277.825 664.622,227.622 666.615,240.561 668.608,417.502 670.601,368.74 672.594,264.879 674.587,325.037 676.581,270.585 678.574,259.181 680.567,224.779 682.56,126.309 684.553,356.916 686.546,345.911 688.539,614.715 690.533,195.73 692.526,383.763 694.519,222.967 696.512,298.903 698.505,394.569 700.498,489.407 702.491,234.65 704.485,167.634 706.478,313.22 708.471,277.863 710.464,279.302 712.457,179.207 714.45,298.593 716.443,188.457 718.437,266.357 720.43,181.821 722.423,271.784 724.416,183.762 726.409,301.506 728.402,239.946 730.395,274.937 732.389,333.436 734.382,206.243 736.375,151.381 738.368,462.851 740.361,143.113 742.354,251.922 744.347,247.695 746.341,308.98 748.334,385.345 750.327,175.191 752.32,158.761 754.313,394.134 756.306,268.672 758.299,267.156 760.293,296.328 762.286,178.24 764.279,181.145 766.272,112.639 768.265,230.401 770.258,213.667 772.252,233.06 774.245,106.748 776.238,352.426 778.231,301.407 780.224,324.487 782.217,243.619 784.21,156.202 786.204,229.221 788.197,287.532 790.19,487.723 792.183,163.74 794.176,332.696 796.169,264.956 798.162,263.014 800.156,243.534 802.149,386.699 804.142,248.785 806.135,258.636 808.128,276.917 810.121,533.881 812.114,200.143 814.108,329.735 816.101,231.603 818.094,140.843 820.087,207.422 822.08,224.945 824.073,195.988 826.066,400.067 828.06,377.746 830.053,266.256 832.046,194.455 834.039,153.982 836.032,245.293 838.025,291.593 840.018,136.921 842.012,362.187 844.005,377.999 845.998,185.814 847.991,274.635 849.984,204.071 851.977,300.39 853.97,187.309 855.964,355.111 857.957,204.246 859.95,178.052 861.943,144.298 863.936,139.575 865.929,342.484 867.922,236.701 869.916,115.268 871.909,299.005 873.902,329.444 875.895,157.579 877.888,236.948 879.881,178.925 881.874,293.559 883.868,342.862 885.861,184.41 887.854,197.555 889.847,182.561 891.84,285.645 893.833,168.089 895.827,405.066 897.82,267.513 899.813,204.812 901.806,182.626 903.799,324.493 905.792,163.902 907.785,333.212 909.779,269.698 911.772,263.089 913.765,90.7067 915.758,248.373 917.751,199.995 919.744,263.568 921.737,466.815 923.731,322.138 925.724,323.029 927.717,212.051 929.71,259.845 931.703,144.636 933.696,203.091 935.689,189.093 937.683,237.653 939.676,246.63 941.669,195.208 943.662,233.959 945.655,366.082 947.648,242.712 949.641,214.748 951.635,248.922 953.628,268.915 955.621,170.921 957.614,259.039 959.607,292.823 961.6,210.145 963.593,157.263 965.587,136.969 967.58,230.115 969.573,312.799 971.566,306.927 973.559,261.856 975.552,170.877 977.545,171.319 979.539,305.194 981.532,110.692 983.525,148.363 985.518,86.624 987.511,336.619 989.504,177.195 991.497,136.221 993.491,481.012 995.484,224.567 997.477,217.824 999.47,189.254 1001.46,264.018 1003.46,244.369 1005.45,206.567 1007.44,151.323 1009.44,450.69 1011.43,277.383 1013.42,196.894 1015.42,203.19 1017.41,229.394 1019.4,273.53 1021.39,121.964 1023.39,211.221 1025.38,415.467 1027.37,289.889 1029.37,323.533 1031.36,155.497 1033.35,265.738 1035.35,237.22 1037.34,242.647 1039.33,166.595 1041.33,270.218 1043.32,246.413 1045.31,272.728 1047.31,240.638 1049.3,373.735 1051.29,122.645 1053.28,264.267 1055.28,160.471 1057.27,248.808 1059.26,270.603 1061.26,298.014 1063.25,273.507 1065.24,199.766 1067.24,165.402 1069.23,197.723 1071.22,188.733 1073.22,310.551 1075.21,209.537 1077.2,135.148 1079.2,240.549 1081.19,135.394 1083.18,194.9 1085.18,126.306 1087.17,175.204 1089.16,157.396 1091.15,325.942 1093.15,238.098 1095.14,261.559 1097.13,118.605 1099.13,174.781 1101.12,198.47 1103.11,119.18 1105.11,115.421 1107.1,198.817 1109.09,114.858 1111.09,244.004 1113.08,354.866 1115.07,314.679 1117.07,172.772 1119.06,221.836 1121.05,235.191 1123.05,264.331 1125.04,256.828 1127.03,144.476 1129.02,215.196 1131.02,209.987 1133.01,242.023 1135,427.695 1137,202.222 1138.99,161.465 1140.98,251.3 1142.98,116.33 1144.97,246.736 1146.96,121.04 1148.96,201.277 1150.95,145.33 1152.94,222.139 1154.94,193.453 1156.93,148.466 1158.92,222.172 1160.91,228.045 1162.91,223.119 1164.9,191.07 1166.89,245.144 1168.89,126.129 1170.88,221.546 1172.87,178.44 1174.87,227.051 1176.86,229.165 1178.85,443.907 1180.85,133.811 1182.84,173.971 1184.83,183.852 1186.83,302.751 1188.82,170.441 1190.81,147.867 1192.81,253.949 1194.8,394.575 1196.79,287.131 1198.78,164.927 1200.78,331.669 1202.77,178.373 1204.76,183.666 1206.76,138.136 1208.75,165.341 1210.74,330.091 1212.74,210.65 1214.73,202.886 1216.72,268.399 1218.72,435.022 1220.71,274.428 1222.7,299.341 1224.7,310.112 1226.69,213.27 1228.68,254.123 1230.67,273.884 1232.67,181.331 1234.66,254.582 1236.65,165.333 1238.65,366.408 1240.64,216.06 1242.63,224.336 1244.63,184.347 1246.62,311.168 1248.61,241.693 1250.61,383.857 1252.6,98.2164 1254.59,209.965 1256.59,115.635 1258.58,117.891 1260.57,197.818 1262.57,177.727 1264.56,149.106 1266.55,181.143 1268.54,218.74 1270.54,211.008 1272.53,334.334 1274.52,252.688 1276.52,202.012 1278.51,272.884 1280.5,140.647 1282.5,199.657 1284.49,113.317 1286.48,248.923 1288.48,227.039 1290.47,379.321 1292.46,219.382 1294.46,172.168 1296.45,153.642 1298.44,207.423 1300.44,236.516 1302.43,223.7 1304.42,363.618 1306.41,330.234 1308.41,297.026 1310.4,125.827 1312.39,252.282 1314.39,130.376 1316.38,193.181 1318.37,122.391 1320.37,252.956 1322.36,86.1857 1324.35,225.711 1326.35,216.74 1328.34,112.425 1330.33,202.005 1332.33,151.605 1334.32,308.686 1336.31,336.771 1338.3,137.903 1340.3,233.133 1342.29,231.589 1344.28,201.873 1346.28,88.9283 1348.27,157.909 1350.26,179.406 1352.26,269.595 1354.25,173.293 1356.24,136.298 1358.24,108.99 1360.23,287.787 1362.22,212.403 1364.22,217.768 1366.21,373.3 1368.2,155.098 1370.2,210.017 1372.19,204.851 1374.18,228.632 1376.17,220.288 1378.17,375.72 1380.16,344.066 1382.15,143.587 1384.15,240.05 1386.14,129.731 1388.13,191.379 1390.13,135.193 1392.12,207.513 1394.11,325.444 1396.11,219.669 1398.1,286.406 1400.09,153.009 1402.09,117.444 1404.08,174.836 1406.07,209.59 1408.06,244.13 1410.06,236.687 1412.05,467.687 1414.04,186.009 1416.04,254.375 1418.03,199.245 1420.02,236.264 1422.02,163.884 1424.01,213.952 1426,160.419 1428,345.165 1429.99,178.923 1431.98,162.601 1433.98,173.764 1435.97,207.558 1437.96,263.822 1439.96,304.437 1441.95,144.284 1443.94,230.701 1445.93,329.593 1447.93,156.178 1449.92,332.306 1451.91,182.044 1453.91,344.5 1455.9,277.617 1457.89,297.004 1459.89,232.687 1461.88,196.241 1463.87,178.631 1465.87,228.237 1467.86,214.497 1469.85,174.683 1471.85,112.844 1473.84,264.622 1475.83,394.745 1477.82,144.231 1479.82,216.334 1481.81,180.938 1483.8,173.511 1485.8,237.126 1487.79,152.561 1489.78,231.172 1491.78,137.195 1493.77,224.369 1495.76,203.505 1497.76,155.619 1499.75,263.83 1501.74,243.412 1503.74,305.741 1505.73,198.848 1507.72,137.366 1509.72,246.45 1511.71,234.864 1513.7,207.065 1515.69,105.575 1517.69,187.462 1519.68,205.449 1521.67,167.235 1523.67,239.387 1525.66,149.229 1527.65,154.449 1529.65,335.767 1531.64,310.012 1533.63,169.893 1535.63,210.863 1537.62,241.099 1539.61,162.912 1541.61,321.703 1543.6,297.851 1545.59,325.613 1547.59,163.47 1549.58,202.786 1551.57,331.884 1553.56,177.531 1555.56,154.864 1557.55,267.22 1559.54,287.378 1561.54,178.117 1563.53,219.539 1565.52,248.817 1567.52,288.641 1569.51,281.708 1571.5,243.458 1573.5,171.666 1575.49,211.412 1577.48,302.273 1579.48,147.8 1581.47,207.164 1583.46,242.027 1585.45,211.419 1587.45,161.651 1589.44,191.592 1591.43,127.97 1593.43,185.199 1595.42,194.748 1597.41,362.516 1599.41,302.41 1601.4,198.838 1603.39,214.11 1605.39,138.767 1607.38,254.602 1609.37,203.078 1611.37,274.073 1613.36,183.752 1615.35,157.825 1617.35,246.303 1619.34,201.4 1621.33,188.347 1623.32,231.885 1625.32,124.782 1627.31,305.937 1629.3,244.084 1631.3,307.777 1633.29,124.761 1635.28,170.793 1637.28,158.304 1639.27,169.894 1641.26,281.947 1643.26,193.937 1645.25,215.241 1647.24,257.563 1649.24,249.406 1651.23,329.031 1653.22,199.359 1655.21,202.847 1657.21,146.232 1659.2,198.905 1661.19,188.243 1663.19,252.585 1665.18,155.378 1667.17,343.895 1669.17,312.654 1671.16,206.553 1673.15,178.521 1675.15,310.227 1677.14,374.915 1679.13,250.179 1681.13,119.811 1683.12,156.899 1685.11,266.571 1687.11,160.99 1689.1,191.213 1691.09,154.864 1693.08,181.604 1695.08,277.506 1697.07,245.759 1699.06,183.664 1701.06,363.276 1703.05,311.056 1705.04,124.964 1707.04,181.872 1709.03,351.631 1711.02,160.31 1713.02,341.945 1715.01,449.302 1717,187.08 1719,329.281 1720.99,144.867 1722.98,178.073 1724.97,347.124 1726.97,253.137 1728.96,195.164 1730.95,139.222 1732.95,125.151 1734.94,212.096 1736.93,116.303 1738.93,201.267 1740.92,203.414 1742.91,249.561 1744.91,366.154 1746.9,265.784 1748.89,256.781 1750.89,170.339 1752.88,137.663 1754.87,251.826 1756.87,342.025 1758.86,332.316 1760.85,295.272 1762.84,268.974 1764.84,121.567 1766.83,214.058 1768.82,225.967 1770.82,149.685 1772.81,204.133 1774.8,158.021 1776.8,128.867 1778.79,232.504 1780.78,253.564 1782.78,267.255 1784.77,159.6 1786.76,184.456 1788.76,189.251 1790.75,247.498 1792.74,236.561 1794.74,329.313 1796.73,276.503 1798.72,171.415 1800.71,377.354 1802.71,215.59 1804.7,230.437 1806.69,198.406 1808.69,380.215 1810.68,221.479 1812.67,262.718 1814.67,223.748 1816.66,186.706 1818.65,294.837 1820.65,308.116 1822.64,347.133 1824.63,213.738 1826.63,96.8762 1828.62,260.086 1830.61,185.736 1832.6,136.629 1834.6,191.952 1836.59,232.23 1838.58,155.942 1840.58,158.059 1842.57,163.892 1844.56,251.736 1846.56,320.059 1848.55,201.65 1850.54,145.025 1852.54,279.142 1854.53,359.039 1856.52,231.156 1858.52,348.828 1860.51,200.517 1862.5,236.801 1864.5,259.764 1866.49,142.751 1868.48,276.307 1870.47,172.086 1872.47,230.821 1874.46,247.939 1876.45,359.596 1878.45,207.03 1880.44,285.858 1882.43,263.663 1884.43,124.773 1886.42,177.885 1888.41,238.01 1890.41,332.69 1892.4,193.351 1894.39,122.621 1896.39,225.354 1898.38,264.256 1900.37,196.169 1902.36,310.085 1904.36,212.335 1906.35,167.379 1908.34,155.375 1910.34,220.818 1912.33,188.559 1914.32,228.705 1916.32,167.102 1918.31,163.495 1920.3,203.815 1922.3,448.579 1924.29,250.485 1926.28,260.314 1928.28,237.707 1930.27,447.921 1932.26,219.662 1934.26,160.895 1936.25,410.037 1938.24,289.006 1940.23,235.246 1942.23,133.851 1944.22,175.742 1946.21,343.444 1948.21,266.826 1950.2,293.982 1952.19,135.218 1954.19,245.549 1956.18,157.327 1958.17,237.812 1960.17,564.096 1962.16,194.493 1964.15,172.43 1966.15,149.445 1968.14,281.906 1970.13,360.422 1972.12,150.965 1974.12,203.711 1976.11,277.864 1978.1,148.935 1980.1,252.713 1982.09,191.147 1984.08,213.643 1986.08,220.754 1988.07,259.913 1990.06,166.042 1992.06,212.895 1994.05,177.915 1996.04,171.704 1998.04,224.237 2000.03,248.73 2002.02,310.536 2004.02,199.829 2006.01,428.887 2008,156.928 2009.99,235.538 2011.99,200.501 2013.98,125.156 2015.97,279.046 2017.97,109.538 2019.96,254.081 2021.95,229.783 2023.95,141.811 2025.94,250.945 2027.93,236.902 2029.93,452.981 2031.92,318.764 2033.91,219.277 2035.91,232.453 2037.9,353.277 2039.89,182.56 2041.89,165.169 2043.88,154.981 2045.87,251.51 2047.86,234.97 2049.86,237.713 2051.85,145.912 2053.84,158.977 2055.84,349.772 2057.83,201.225 2059.82,300.26 2061.82,365.629 2063.81,300.504 2065.8,213.855 2067.8,210.564 2069.79,237.652 2071.78,124.105 2073.78,227.917 2075.77,277.573 2077.76,208.868 2079.75,291.944 2081.75,277.688 2083.74,200.375 2085.73,278.523 2087.73,250.204 2089.72,297.657 2091.71,213.63 2093.71,259.989 2095.7,151.822 2097.69,304.77 2099.69,165.394 2101.68,104.153 2103.67,262.095 2105.67,132.867 2107.66,176.314 2109.65,221.097 2111.65,227.818 2113.64,283.12 2115.63,250.542 2117.62,227.472 2119.62,188.696 2121.61,227.153 2123.6,222.459 2125.6,240.533 2127.59,175.628 2129.58,151.949 2131.58,284.464 2133.57,172.309 2135.56,239.499 2137.56,195.826 2139.55,240.378 2141.54,181.046 2143.54,214.912 2145.53,191.549 2147.52,304.757 2149.51,160.245 2151.51,278.231 2153.5,192.644 2155.49,251.714 2157.49,179.41 2159.48,171.12 2161.47,190.827 2163.47,125.104 2165.46,166.043 2167.45,415.933 2169.45,257.91 2171.44,208.946 2173.43,203.822 2175.43,198.277 2177.42,195.975 2179.41,175.085 2181.41,185.857 2183.4,238.896 2185.39,341.928 2187.38,260.658 2189.38,393.798 2191.37,276.17 2193.36,347.392 2195.36,315.683 2197.35,219.905 2199.34,169.652 2201.34,326.273 2203.33,225.32 2205.32,172.91 2207.32,171.751 2209.31,172.256 2211.3,130.494 2213.3,169.624 2215.29,148.372 2217.28,269.302 2219.27,164.56 2221.27,231.519 2223.26,188.602 2225.25,146.448 2227.25,168.048 2229.24,137.063 2231.23,416.691 2233.23,159.816 2235.22,245.129 2237.21,206.082 2239.21,263.665 2241.2,175.707 2243.19,341.361 2245.19,274.929 2247.18,324.381 2249.17,221.11 2251.17,199.943 2253.16,200.802 2255.15,263.582 2257.14,126.799 2259.14,261.269 2261.13,154.816 2263.12,222.464 2265.12,361.854 2267.11,267.208 2269.1,282.427 2271.1,239.313 2273.09,115.806 2275.08,266.751 2277.08,256.526 2279.07,165.808 2281.06,393.286 2283.06,161.489 2285.05,275.515 2287.04,283.086 2289.04,265.14 2291.03,238.22 2293.02,196.82 "/>
<polyline clip-path="url(#clip362)" style="stroke:#e26f46; stroke-linecap:round; stroke-linejoin:round; stroke-width:4; stroke-opacity:1; fill:none" points="301.869,663.601 303.862,1128.96 305.856,1067.29 307.849,1384.24 309.842,790.258 311.835,1050.06 313.828,939.482 315.821,734.45 317.814,901.737 319.808,779.788 321.801,574.05 323.794,791.597 325.787,524.136 327.78,861.526 329.773,1023.87 331.766,1095.98 333.76,685.151 335.753,664.933 337.746,847.067 339.739,989.556 341.732,522.812 343.725,1018.21 345.718,880.789 347.712,785.732 349.705,551.204 351.698,927.66 353.691,675.838 355.684,538.193 357.677,502.771 359.67,786.341 361.664,532.846 363.657,707.259 365.65,419.297 367.643,564.867 369.636,692.507 371.629,770.063 373.622,972.001 375.616,831.761 377.609,570.734 379.602,942.676 381.595,877.782 383.588,589.511 385.581,613.763 387.574,435.816 389.568,578.783 391.561,514.928 393.554,811.751 395.547,420.124 397.54,512.226 399.533,618.859 401.526,720.581 403.52,897.358 405.513,621.683 407.506,766.882 409.499,789.73 411.492,707.083 413.485,622.14 415.479,470.385 417.472,611.774 419.465,669.966 421.458,419.754 423.451,699.384 425.444,679.67 427.437,606.58 429.431,518.203 431.424,595.24 433.417,529.17 435.41,376.008 437.403,661.823 439.396,806.224 441.389,752.389 443.383,380.505 445.376,318.213 447.369,816.543 449.362,618.226 451.355,633.646 453.348,589.772 455.341,526.995 457.335,330.516 459.328,594.001 461.321,467.782 463.314,429.291 465.307,467.476 467.3,316.257 469.293,392.296 471.287,521.696 473.28,575.355 475.273,367.445 477.266,558.291 479.259,506.142 481.252,398.527 483.245,373.722 485.239,461.115 487.232,447.712 489.225,587.812 491.218,343.751 493.211,223.626 495.204,630.698 497.197,412.862 499.191,547.73 501.184,410.463 503.177,352.156 505.17,436.922 507.163,190.152 509.156,294.297 511.149,465.997 513.143,328.212 515.136,429.178 517.129,458.43 519.122,566.418 521.115,388.294 523.108,404.453 525.101,247.504 527.095,299.196 529.088,375.048 531.081,180.139 533.074,450.801 535.067,403.31 537.06,329.246 539.054,314.279 541.047,488.685 543.04,335.321 545.033,332.074 547.026,479.029 549.019,137.827 551.012,394.905 553.006,315.196 554.999,226.356 556.992,304.252 558.985,410.081 560.978,264.212 562.971,389.538 564.964,365.801 566.958,305.109 568.951,359.664 570.944,466.42 572.937,334.296 574.93,487.452 576.923,433.444 578.916,524.955 580.91,398.637 582.903,212.864 584.896,218.89 586.889,202.936 588.882,401.225 590.875,442.088 592.868,329.652 594.862,281.254 596.855,325.022 598.848,392.569 600.841,273.472 602.834,404.915 604.827,342.05 606.82,313.304 608.814,252.146 610.807,322.688 612.8,337.896 614.793,263.411 616.786,333.967 618.779,362.977 620.772,221.994 622.766,304.514 624.759,445.334 626.752,338.656 628.745,376.86 630.738,290.351 632.731,321.331 634.724,287.705 636.718,376.119 638.711,239.002 640.704,324.91 642.697,266.905 644.69,308.984 646.683,352.603 648.677,226.506 650.67,280.551 652.663,214.943 654.656,249.624 656.649,262.71 658.642,411.916 660.635,320.687 662.629,220.736 664.622,241.764 666.615,281.616 668.608,275.758 670.601,315.679 672.594,225.386 674.587,263.36 676.581,262.251 678.574,367.433 680.567,261.307 682.56,327.548 684.553,295.305 686.546,234.438 688.539,216.488 690.533,289.261 692.526,255.848 694.519,277.152 696.512,286.618 698.505,254.842 700.498,255.19 702.491,284.398 704.485,283.897 706.478,224.402 708.471,209.768 710.464,262.746 712.457,244.739 714.45,291.175 716.443,326.124 718.437,298.523 720.43,309.465 722.423,286.903 724.416,323.34 726.409,291.816 728.402,248.149 730.395,225.086 732.389,243.347 734.382,258.572 736.375,197.45 738.368,281.765 740.361,301.024 742.354,254.789 744.347,177.438 746.341,270.477 748.334,216.261 750.327,284.721 752.32,190.334 754.313,237.017 756.306,243.111 758.299,191.95 760.293,199.013 762.286,256.171 764.279,112.731 766.272,228.365 768.265,245.794 770.258,237.537 772.252,221.273 774.245,197.061 776.238,247.296 778.231,265.94 780.224,202.771 782.217,215.035 784.21,201.795 786.204,264.458 788.197,287.745 790.19,252.721 792.183,223.485 794.176,226.16 796.169,226.679 798.162,270.999 800.156,199.493 802.149,245.505 804.142,213.933 806.135,224.921 808.128,197.294 810.121,253.247 812.114,215.714 814.108,228.855 816.101,256.879 818.094,267.79 820.087,202.109 822.08,268.792 824.073,221.175 826.066,221.618 828.06,279.075 830.053,247.201 832.046,207.871 834.039,257.551 836.032,202.012 838.025,236.797 840.018,220.705 842.012,280.363 844.005,231.24 845.998,232.485 847.991,241.748 849.984,208.973 851.977,259.004 853.97,249.01 855.964,197.754 857.957,182.286 859.95,228.262 861.943,234.417 863.936,247.347 865.929,242.578 867.922,233.015 869.916,240.403 871.909,248.507 873.902,244.528 875.895,237.061 877.888,234.78 879.881,222.197 881.874,230.781 883.868,255.245 885.861,215.476 887.854,199.041 889.847,205.838 891.84,217.589 893.833,217.455 895.827,230.186 897.82,235.026 899.813,211.186 901.806,213.267 903.799,218.011 905.792,247.58 907.785,255.192 909.779,219.5 911.772,245.586 913.765,237.966 915.758,233.694 917.751,255.316 919.744,260.569 921.737,226.271 923.731,222.749 925.724,254.565 927.717,222.926 929.71,247.172 931.703,229.08 933.696,237.39 935.689,217.219 937.683,228.859 939.676,218.228 941.669,228.442 943.662,233.206 945.655,196.529 947.648,210.317 949.641,210.949 951.635,231.523 953.628,225.607 955.621,244.333 957.614,223.142 959.607,214.059 961.6,239.274 963.593,228.606 965.587,237.609 967.58,215.452 969.573,231.595 971.566,247.849 973.559,226.411 975.552,240.835 977.545,238.051 979.539,236.427 981.532,208.64 983.525,230.49 985.518,231.093 987.511,236.936 989.504,240.496 991.497,229.798 993.491,226.074 995.484,241.246 997.477,231.873 999.47,236.036 1001.46,225.511 1003.46,214.065 1005.45,232.413 1007.44,221.143 1009.44,229.93 1011.43,242.903 1013.42,218.626 1015.42,233.309 1017.41,246.148 1019.4,217.489 1021.39,204.408 1023.39,244.624 1025.38,231.548 1027.37,230.178 1029.37,251.148 1031.36,217.999 1033.35,225.615 1035.35,240.708 1037.34,227.151 1039.33,230.76 1041.33,223.445 1043.32,227.499 1045.31,221.69 1047.31,220.547 1049.3,243.666 1051.29,229.455 1053.28,211.739 1055.28,222.525 1057.27,222.793 1059.26,236.73 1061.26,225.305 1063.25,220.035 1065.24,225.444 1067.24,227.844 1069.23,225.358 1071.22,230.102 1073.22,231.019 1075.21,230.731 1077.2,229.882 1079.2,225.778 1081.19,226.14 1083.18,224.33 1085.18,240.809 1087.17,228.547 1089.16,230.205 1091.15,234.269 1093.15,219.318 1095.14,229.58 1097.13,232.688 1099.13,216.795 1101.12,225.933 1103.11,231.482 1105.11,220.778 1107.1,228.299 1109.09,222.438 1111.09,227.187 1113.08,220.509 1115.07,218.548 1117.07,229.19 1119.06,228.173 1121.05,229.711 1123.05,222.299 1125.04,222.366 1127.03,227.81 1129.02,222.308 1131.02,228.095 1133.01,228.819 1135,226.898 1137,230.095 1138.99,226.902 1140.98,222.772 1142.98,222.572 1144.97,228.7 1146.96,227.332 1148.96,227.676 1150.95,226.502 1152.94,228.378 1154.94,227.025 1156.93,221.944 1158.92,230.576 1160.91,226.301 1162.91,221.513 1164.9,228.8 1166.89,231.243 1168.89,228.48 1170.88,222.888 1172.87,224.079 1174.87,226.137 1176.86,222.117 1178.85,223.949 1180.85,228.651 1182.84,227.269 1184.83,225.631 1186.83,226.194 1188.82,225.084 1190.81,226.184 1192.81,227.424 1194.8,224.02 1196.79,225.608 1198.78,223.707 1200.78,225.28 1202.77,220.743 1204.76,224.727 1206.76,226.459 1208.75,223.23 1210.74,227.031 1212.74,222.089 1214.73,228.6 1216.72,221.74 1218.72,228.501 1220.71,226.096 1222.7,226.695 1224.7,229.848 1226.69,224.557 1228.68,226.411 1230.67,228.213 1232.67,225.874 1234.66,223.204 1236.65,223.861 1238.65,222.273 1240.64,225.811 1242.63,225.933 1244.63,225.582 1246.62,224.59 1248.61,225.418 1250.61,223.713 1252.6,226.236 1254.59,222.325 1256.59,226.525 1258.58,222.681 1260.57,225.512 1262.57,223.147 1264.56,227.3 1266.55,224.714 1268.54,224.426 1270.54,222.942 1272.53,227.572 1274.52,223.716 1276.52,226.614 1278.51,225.127 1280.5,226.334 1282.5,225.648 1284.49,224.019 1286.48,225.632 1288.48,221.869 1290.47,223.941 1292.46,225.37 1294.46,224.308 1296.45,225.234 1298.44,224.754 1300.44,224.783 1302.43,223.866 1304.42,222.653 1306.41,226.119 1308.41,223.713 1310.4,223.988 1312.39,225.558 1314.39,223.765 1316.38,223.332 1318.37,224.325 1320.37,225.721 1322.36,224.761 1324.35,224.437 1326.35,223.318 1328.34,224.75 1330.33,225.579 1332.33,224.145 1334.32,224.441 1336.31,223.113 1338.3,225.302 1340.3,225.82 1342.29,225.274 1344.28,225.222 1346.28,224.823 1348.27,225.531 1350.26,224.822 1352.26,223.862 1354.25,225.174 1356.24,225.227 1358.24,224.451 1360.23,225.505 1362.22,225.469 1364.22,224.751 1366.21,224.035 1368.2,226.68 1370.2,224.931 1372.19,224.758 1374.18,224.923 1376.17,224.815 1378.17,225.83 1380.16,224.467 1382.15,223.703 1384.15,224.502 1386.14,224.838 1388.13,225.026 1390.13,224.689 1392.12,225.686 1394.11,224.763 1396.11,225.48 1398.1,223.999 1400.09,224.03 1402.09,224.95 1404.08,226.207 1406.07,224.3 1408.06,224.569 1410.06,225.175 1412.05,225.703 1414.04,224.313 1416.04,225.092 1418.03,225.162 1420.02,224.945 1422.02,225.336 1424.01,224.058 1426,224.452 1428,224.414 1429.99,224.778 1431.98,225.179 1433.98,225.295 1435.97,225.046 1437.96,224.921 1439.96,225.31 1441.95,224.44 1443.94,224.598 1445.93,224.675 1447.93,224.87 1449.92,224.413 1451.91,225.216 1453.91,224.916 1455.9,225.01 1457.89,224.729 1459.89,224.521 1461.88,224.578 1463.87,225.033 1465.87,225 1467.86,224.652 1469.85,225.592 1471.85,225.113 1473.84,225.083 1475.83,224.77 1477.82,225.083 1479.82,225.386 1481.81,225.49 1483.8,224.799 1485.8,224.822 1487.79,224.523 1489.78,224.911 1491.78,224.991 1493.77,225.189 1495.76,225.151 1497.76,224.897 1499.75,224.807 1501.74,224.697 1503.74,224.505 1505.73,224.83 1507.72,225.132 1509.72,225.063 1511.71,224.739 1513.7,224.8 1515.69,225.118 1517.69,224.633 1519.68,224.497 1521.67,225.105 1523.67,224.982 1525.66,224.852 1527.65,224.822 1529.65,224.701 1531.64,224.97 1533.63,224.785 1535.63,224.74 1537.62,224.822 1539.61,224.765 1541.61,225.12 1543.6,224.713 1545.59,224.893 1547.59,225.015 1549.58,225.083 1551.57,224.767 1553.56,224.895 1555.56,224.95 1557.55,224.672 1559.54,224.905 1561.54,224.889 1563.53,224.874 1565.52,224.865 1567.52,224.911 1569.51,224.755 1571.5,224.94 1573.5,224.726 1575.49,224.837 1577.48,224.943 1579.48,224.911 1581.47,224.794 1583.46,224.754 1585.45,225.073 1587.45,224.917 1589.44,224.786 1591.43,224.884 1593.43,224.772 1595.42,224.881 1597.41,224.981 1599.41,224.805 1601.4,224.789 1603.39,224.72 1605.39,224.825 1607.38,224.731 1609.37,224.89 1611.37,224.874 1613.36,224.937 1615.35,224.828 1617.35,224.862 1619.34,224.984 1621.33,224.93 1623.32,224.949 1625.32,224.89 1627.31,224.818 1629.3,224.953 1631.3,224.88 1633.29,224.862 1635.28,224.885 1637.28,224.866 1639.27,224.859 1641.26,224.886 1643.26,224.806 1645.25,224.936 1647.24,224.883 1649.24,224.853 1651.23,224.895 1653.22,224.898 1655.21,224.811 1657.21,224.862 1659.2,224.825 1661.19,224.865 1663.19,224.868 1665.18,224.833 1667.17,224.894 1669.17,224.847 1671.16,224.861 1673.15,224.865 1675.15,224.843 1677.14,224.862 1679.13,224.858 1681.13,224.875 1683.12,224.874 1685.11,224.9 1687.11,224.84 1689.1,224.904 1691.09,224.866 1693.08,224.9 1695.08,224.824 1697.07,224.889 1699.06,224.866 1701.06,224.868 1703.05,224.857 1705.04,224.878 1707.04,224.862 1709.03,224.915 1711.02,224.842 1713.02,224.889 1715.01,224.895 1717,224.867 1719,224.899 1720.99,224.875 1722.98,224.863 1724.97,224.829 1726.97,224.87 1728.96,224.919 1730.95,224.869 1732.95,224.88 1734.94,224.878 1736.93,224.892 1738.93,224.879 1740.92,224.862 1742.91,224.859 1744.91,224.885 1746.9,224.848 1748.89,224.868 1750.89,224.888 1752.88,224.896 1754.87,224.866 1756.87,224.881 1758.86,224.862 1760.85,224.875 1762.84,224.865 1764.84,224.853 1766.83,224.854 1768.82,224.871 1770.82,224.889 1772.81,224.861 1774.8,224.883 1776.8,224.85 1778.79,224.867 1780.78,224.872 1782.78,224.872 1784.77,224.862 1786.76,224.875 1788.76,224.863 1790.75,224.86 1792.74,224.887 1794.74,224.87 1796.73,224.874 1798.72,224.87 1800.71,224.88 1802.71,224.877 1804.7,224.872 1806.69,224.867 1808.69,224.868 1810.68,224.855 1812.67,224.878 1814.67,224.863 1816.66,224.871 1818.65,224.866 1820.65,224.867 1822.64,224.862 1824.63,224.871 1826.63,224.863 1828.62,224.872 1830.61,224.86 1832.6,224.871 1834.6,224.876 1836.59,224.861 1838.58,224.863 1840.58,224.865 1842.57,224.873 1844.56,224.867 1846.56,224.864 1848.55,224.871 1850.54,224.877 1852.54,224.874 1854.53,224.867 1856.52,224.872 1858.52,224.871 1860.51,224.875 1862.5,224.871 1864.5,224.873 1866.49,224.864 1868.48,224.868 1870.47,224.868 1872.47,224.873 1874.46,224.873 1876.45,224.874 1878.45,224.872 1880.44,224.867 1882.43,224.866 1884.43,224.87 1886.42,224.872 1888.41,224.873 1890.41,224.867 1892.4,224.872 1894.39,224.874 1896.39,224.871 1898.38,224.87 1900.37,224.871 1902.36,224.871 1904.36,224.872 1906.35,224.87 1908.34,224.868 1910.34,224.867 1912.33,224.871 1914.32,224.874 1916.32,224.87 1918.31,224.869 1920.3,224.872 1922.3,224.87 1924.29,224.867 1926.28,224.866 1928.28,224.869 1930.27,224.874 1932.26,224.871 1934.26,224.869 1936.25,224.871 1938.24,224.866 1940.23,224.869 1942.23,224.869 1944.22,224.872 1946.21,224.867 1948.21,224.869 1950.2,224.869 1952.19,224.87 1954.19,224.87 1956.18,224.868 1958.17,224.868 1960.17,224.87 1962.16,224.869 1964.15,224.867 1966.15,224.871 1968.14,224.869 1970.13,224.871 1972.12,224.872 1974.12,224.87 1976.11,224.871 1978.1,224.869 1980.1,224.87 1982.09,224.871 1984.08,224.871 1986.08,224.871 1988.07,224.87 1990.06,224.87 1992.06,224.869 1994.05,224.87 1996.04,224.869 1998.04,224.869 2000.03,224.87 2002.02,224.869 2004.02,224.869 2006.01,224.869 2008,224.87 2009.99,224.869 2011.99,224.87 2013.98,224.871 2015.97,224.868 2017.97,224.87 2019.96,224.869 2021.95,224.87 2023.95,224.869 2025.94,224.87 2027.93,224.869 2029.93,224.869 2031.92,224.869 2033.91,224.869 2035.91,224.869 2037.9,224.87 2039.89,224.869 2041.89,224.87 2043.88,224.87 2045.87,224.871 2047.86,224.87 2049.86,224.869 2051.85,224.87 2053.84,224.869 2055.84,224.87 2057.83,224.87 2059.82,224.87 2061.82,224.869 2063.81,224.869 2065.8,224.869 2067.8,224.869 2069.79,224.869 2071.78,224.87 2073.78,224.869 2075.77,224.869 2077.76,224.869 2079.75,224.869 2081.75,224.869 2083.74,224.869 2085.73,224.87 2087.73,224.869 2089.72,224.869 2091.71,224.87 2093.71,224.87 2095.7,224.869 2097.69,224.87 2099.69,224.869 2101.68,224.869 2103.67,224.87 2105.67,224.869 2107.66,224.869 2109.65,224.87 2111.65,224.87 2113.64,224.87 2115.63,224.869 2117.62,224.87 2119.62,224.869 2121.61,224.87 2123.6,224.869 2125.6,224.869 2127.59,224.869 2129.58,224.87 2131.58,224.869 2133.57,224.869 2135.56,224.869 2137.56,224.869 2139.55,224.869 2141.54,224.869 2143.54,224.869 2145.53,224.869 2147.52,224.869 2149.51,224.87 2151.51,224.869 2153.5,224.869 2155.49,224.869 2157.49,224.87 2159.48,224.87 2161.47,224.869 2163.47,224.869 2165.46,224.869 2167.45,224.869 2169.45,224.869 2171.44,224.869 2173.43,224.869 2175.43,224.869 2177.42,224.869 2179.41,224.869 2181.41,224.869 2183.4,224.869 2185.39,224.869 2187.38,224.869 2189.38,224.869 2191.37,224.869 2193.36,224.87 2195.36,224.869 2197.35,224.869 2199.34,224.869 2201.34,224.87 2203.33,224.869 2205.32,224.869 2207.32,224.869 2209.31,224.869 2211.3,224.869 2213.3,224.869 2215.29,224.869 2217.28,224.87 2219.27,224.869 2221.27,224.869 2223.26,224.869 2225.25,224.869 2227.25,224.869 2229.24,224.869 2231.23,224.869 2233.23,224.869 2235.22,224.869 2237.21,224.869 2239.21,224.869 2241.2,224.869 2243.19,224.869 2245.19,224.869 2247.18,224.869 2249.17,224.869 2251.17,224.869 2253.16,224.869 2255.15,224.869 2257.14,224.869 2259.14,224.869 2261.13,224.869 2263.12,224.869 2265.12,224.869 2267.11,224.869 2269.1,224.869 2271.1,224.869 2273.09,224.869 2275.08,224.869 2277.08,224.869 2279.07,224.869 2281.06,224.869 2283.06,224.869 2285.05,224.869 2287.04,224.869 2289.04,224.869 2291.03,224.869 2293.02,224.869 "/>
<path clip-path="url(#clip360)" d="M1863.63 1377.32 L2282.4 1377.32 L2282.4 1221.8 L1863.63 1221.8  Z" fill="#ffffff" fill-rule="evenodd" fill-opacity="1"/>
<polyline clip-path="url(#clip360)" style="stroke:#000000; stroke-linecap:round; stroke-linejoin:round; stroke-width:4; stroke-opacity:1; fill:none" points="1863.63,1377.32 2282.4,1377.32 2282.4,1221.8 1863.63,1221.8 1863.63,1377.32 "/>
<polyline clip-path="url(#clip360)" style="stroke:#009af9; stroke-linecap:round; stroke-linejoin:round; stroke-width:4; stroke-opacity:1; fill:none" points="1887.08,1273.64 2027.79,1273.64 "/>
<path clip-path="url(#clip360)" d="M2055.92 1274.41 L2055.92 1287.07 L2063.42 1287.07 Q2067.19 1287.07 2069 1285.52 Q2070.83 1283.95 2070.83 1280.73 Q2070.83 1277.49 2069 1275.96 Q2067.19 1274.41 2063.42 1274.41 L2055.92 1274.41 M2055.92 1260.2 L2055.92 1270.61 L2062.84 1270.61 Q2066.27 1270.61 2067.93 1269.34 Q2069.62 1268.05 2069.62 1265.41 Q2069.62 1262.79 2067.93 1261.49 Q2066.27 1260.2 2062.84 1260.2 L2055.92 1260.2 M2051.24 1256.36 L2063.19 1256.36 Q2068.53 1256.36 2071.43 1258.58 Q2074.32 1260.8 2074.32 1264.9 Q2074.32 1268.07 2072.84 1269.94 Q2071.36 1271.82 2068.49 1272.28 Q2071.94 1273.02 2073.84 1275.38 Q2075.76 1277.72 2075.76 1281.24 Q2075.76 1285.87 2072.61 1288.39 Q2069.46 1290.92 2063.65 1290.92 L2051.24 1290.92 L2051.24 1256.36 Z" fill="#000000" fill-rule="nonzero" fill-opacity="1" /><path clip-path="url(#clip360)" d="M2088.44 1274.41 L2088.44 1287.07 L2095.94 1287.07 Q2099.72 1287.07 2101.52 1285.52 Q2103.35 1283.95 2103.35 1280.73 Q2103.35 1277.49 2101.52 1275.96 Q2099.72 1274.41 2095.94 1274.41 L2088.44 1274.41 M2088.44 1260.2 L2088.44 1270.61 L2095.36 1270.61 Q2098.79 1270.61 2100.46 1269.34 Q2102.15 1268.05 2102.15 1265.41 Q2102.15 1262.79 2100.46 1261.49 Q2098.79 1260.2 2095.36 1260.2 L2088.44 1260.2 M2083.77 1256.36 L2095.71 1256.36 Q2101.06 1256.36 2103.95 1258.58 Q2106.84 1260.8 2106.84 1264.9 Q2106.84 1268.07 2105.36 1269.94 Q2103.88 1271.82 2101.01 1272.28 Q2104.46 1273.02 2106.36 1275.38 Q2108.28 1277.72 2108.28 1281.24 Q2108.28 1285.87 2105.13 1288.39 Q2101.98 1290.92 2096.17 1290.92 L2083.77 1290.92 L2083.77 1256.36 Z" fill="#000000" fill-rule="nonzero" fill-opacity="1" /><path clip-path="url(#clip360)" d="M2123.74 1290.92 L2110.55 1256.36 L2115.43 1256.36 L2126.38 1285.45 L2137.35 1256.36 L2142.22 1256.36 L2129.04 1290.92 L2123.74 1290.92 Z" fill="#000000" fill-rule="nonzero" fill-opacity="1" /><path clip-path="url(#clip360)" d="M2147.26 1256.36 L2151.94 1256.36 L2151.94 1290.92 L2147.26 1290.92 L2147.26 1256.36 Z" fill="#000000" fill-rule="nonzero" fill-opacity="1" /><path clip-path="url(#clip360)" d="M2202.19 1259.02 L2202.19 1263.95 Q2199.83 1261.75 2197.15 1260.66 Q2194.48 1259.57 2191.47 1259.57 Q2185.55 1259.57 2182.4 1263.21 Q2179.25 1266.82 2179.25 1273.67 Q2179.25 1280.5 2182.4 1284.13 Q2185.55 1287.74 2191.47 1287.74 Q2194.48 1287.74 2197.15 1286.66 Q2199.83 1285.57 2202.19 1283.37 L2202.19 1288.25 Q2199.74 1289.92 2196.98 1290.75 Q2194.25 1291.59 2191.2 1291.59 Q2183.35 1291.59 2178.84 1286.79 Q2174.32 1281.98 2174.32 1273.67 Q2174.32 1265.34 2178.84 1260.55 Q2183.35 1255.73 2191.2 1255.73 Q2194.3 1255.73 2197.03 1256.56 Q2199.78 1257.37 2202.19 1259.02 Z" fill="#000000" fill-rule="nonzero" fill-opacity="1" /><path clip-path="url(#clip360)" d="M2209.41 1256.36 L2229.27 1256.36 L2229.27 1260.29 L2214.09 1260.29 L2214.09 1270.48 L2227.79 1270.48 L2227.79 1274.41 L2214.09 1274.41 L2214.09 1290.92 L2209.41 1290.92 L2209.41 1256.36 Z" fill="#000000" fill-rule="nonzero" fill-opacity="1" /><path clip-path="url(#clip360)" d="M2236.68 1256.36 L2258.53 1256.36 L2258.53 1260.29 L2241.36 1260.29 L2241.36 1270.52 L2257.82 1270.52 L2257.82 1274.46 L2241.36 1274.46 L2241.36 1286.98 L2258.95 1286.98 L2258.95 1290.92 L2236.68 1290.92 L2236.68 1256.36 Z" fill="#000000" fill-rule="nonzero" fill-opacity="1" /><polyline clip-path="url(#clip360)" style="stroke:#e26f46; stroke-linecap:round; stroke-linejoin:round; stroke-width:4; stroke-opacity:1; fill:none" points="1887.08,1325.48 2027.79,1325.48 "/>
<path clip-path="url(#clip360)" d="M2055.92 1326.25 L2055.92 1338.91 L2063.42 1338.91 Q2067.19 1338.91 2069 1337.36 Q2070.83 1335.79 2070.83 1332.57 Q2070.83 1329.33 2069 1327.8 Q2067.19 1326.25 2063.42 1326.25 L2055.92 1326.25 M2055.92 1312.04 L2055.92 1322.45 L2062.84 1322.45 Q2066.27 1322.45 2067.93 1321.18 Q2069.62 1319.89 2069.62 1317.25 Q2069.62 1314.63 2067.93 1313.33 Q2066.27 1312.04 2062.84 1312.04 L2055.92 1312.04 M2051.24 1308.2 L2063.19 1308.2 Q2068.53 1308.2 2071.43 1310.42 Q2074.32 1312.64 2074.32 1316.74 Q2074.32 1319.91 2072.84 1321.78 Q2071.36 1323.66 2068.49 1324.12 Q2071.94 1324.86 2073.84 1327.22 Q2075.76 1329.56 2075.76 1333.08 Q2075.76 1337.71 2072.61 1340.23 Q2069.46 1342.76 2063.65 1342.76 L2051.24 1342.76 L2051.24 1308.2 Z" fill="#000000" fill-rule="nonzero" fill-opacity="1" /><path clip-path="url(#clip360)" d="M2088.44 1326.25 L2088.44 1338.91 L2095.94 1338.91 Q2099.72 1338.91 2101.52 1337.36 Q2103.35 1335.79 2103.35 1332.57 Q2103.35 1329.33 2101.52 1327.8 Q2099.72 1326.25 2095.94 1326.25 L2088.44 1326.25 M2088.44 1312.04 L2088.44 1322.45 L2095.36 1322.45 Q2098.79 1322.45 2100.46 1321.18 Q2102.15 1319.89 2102.15 1317.25 Q2102.15 1314.63 2100.46 1313.33 Q2098.79 1312.04 2095.36 1312.04 L2088.44 1312.04 M2083.77 1308.2 L2095.71 1308.2 Q2101.06 1308.2 2103.95 1310.42 Q2106.84 1312.64 2106.84 1316.74 Q2106.84 1319.91 2105.36 1321.78 Q2103.88 1323.66 2101.01 1324.12 Q2104.46 1324.86 2106.36 1327.22 Q2108.28 1329.56 2108.28 1333.08 Q2108.28 1337.71 2105.13 1340.23 Q2101.98 1342.76 2096.17 1342.76 L2083.77 1342.76 L2083.77 1308.2 Z" fill="#000000" fill-rule="nonzero" fill-opacity="1" /><path clip-path="url(#clip360)" d="M2123.74 1342.76 L2110.55 1308.2 L2115.43 1308.2 L2126.38 1337.29 L2137.35 1308.2 L2142.22 1308.2 L2129.04 1342.76 L2123.74 1342.76 Z" fill="#000000" fill-rule="nonzero" fill-opacity="1" /><path clip-path="url(#clip360)" d="M2147.26 1308.2 L2151.94 1308.2 L2151.94 1342.76 L2147.26 1342.76 L2147.26 1308.2 Z" fill="#000000" fill-rule="nonzero" fill-opacity="1" /><path clip-path="url(#clip360)" d="M2197.03 1309.33 L2197.03 1313.89 Q2194.37 1312.62 2192.01 1311.99 Q2189.65 1311.37 2187.45 1311.37 Q2183.63 1311.37 2181.54 1312.85 Q2179.48 1314.33 2179.48 1317.06 Q2179.48 1319.35 2180.85 1320.53 Q2182.24 1321.69 2186.08 1322.41 L2188.9 1322.99 Q2194.14 1323.98 2196.61 1326.51 Q2199.11 1329.01 2199.11 1333.22 Q2199.11 1338.24 2195.73 1340.83 Q2192.38 1343.43 2185.87 1343.43 Q2183.42 1343.43 2180.64 1342.87 Q2177.89 1342.32 2174.92 1341.23 L2174.92 1336.41 Q2177.77 1338.01 2180.5 1338.82 Q2183.23 1339.63 2185.87 1339.63 Q2189.88 1339.63 2192.05 1338.06 Q2194.23 1336.48 2194.23 1333.57 Q2194.23 1331.02 2192.65 1329.58 Q2191.1 1328.15 2187.54 1327.43 L2184.69 1326.88 Q2179.46 1325.83 2177.12 1323.61 Q2174.78 1321.39 2174.78 1317.43 Q2174.78 1312.85 2178 1310.21 Q2181.24 1307.57 2186.91 1307.57 Q2189.34 1307.57 2191.87 1308.01 Q2194.39 1308.45 2197.03 1309.33 Z" fill="#000000" fill-rule="nonzero" fill-opacity="1" /><path clip-path="url(#clip360)" d="M2201.61 1308.2 L2230.85 1308.2 L2230.85 1312.13 L2218.58 1312.13 L2218.58 1342.76 L2213.88 1342.76 L2213.88 1312.13 L2201.61 1312.13 L2201.61 1308.2 Z" fill="#000000" fill-rule="nonzero" fill-opacity="1" /><path clip-path="url(#clip360)" d="M2235.36 1308.2 L2240.04 1308.2 L2240.04 1338.82 L2256.87 1338.82 L2256.87 1342.76 L2235.36 1342.76 L2235.36 1308.2 Z" fill="#000000" fill-rule="nonzero" fill-opacity="1" /></svg>
