<?xml version="1.0" encoding="utf-8"?>
<svg xmlns="http://www.w3.org/2000/svg" xmlns:xlink="http://www.w3.org/1999/xlink" width="600" height="400" viewBox="0 0 2400 1600">
<defs>
  <clipPath id="clip760">
    <rect x="0" y="0" width="2400" height="1600"/>
  </clipPath>
</defs>
<path clip-path="url(#clip760)" d="M0 1600 L2400 1600 L2400 0 L0 0  Z" fill="#ffffff" fill-rule="evenodd" fill-opacity="1"/>
<defs>
  <clipPath id="clip761">
    <rect x="247" y="47" width="2106" height="1377"/>
  </clipPath>
</defs>
<path clip-path="url(#clip760)" d="M242.135 1423.18 L2352.76 1423.18 L2352.76 47.2441 L242.135 47.2441  Z" fill="#ffffff" fill-rule="evenodd" fill-opacity="1"/>
<defs>
  <clipPath id="clip762">
    <rect x="242" y="47" width="2112" height="1377"/>
  </clipPath>
</defs>
<polyline clip-path="url(#clip762)" style="stroke:#000000; stroke-linecap:round; stroke-linejoin:round; stroke-width:2; stroke-opacity:0.1; fill:none" points="299.876,1423.18 299.876,47.2441 "/>
<polyline clip-path="url(#clip762)" style="stroke:#000000; stroke-linecap:round; stroke-linejoin:round; stroke-width:2; stroke-opacity:0.1; fill:none" points="798.162,1423.18 798.162,47.2441 "/>
<polyline clip-path="url(#clip762)" style="stroke:#000000; stroke-linecap:round; stroke-linejoin:round; stroke-width:2; stroke-opacity:0.1; fill:none" points="1296.45,1423.18 1296.45,47.2441 "/>
<polyline clip-path="url(#clip762)" style="stroke:#000000; stroke-linecap:round; stroke-linejoin:round; stroke-width:2; stroke-opacity:0.1; fill:none" points="1794.74,1423.18 1794.74,47.2441 "/>
<polyline clip-path="url(#clip762)" style="stroke:#000000; stroke-linecap:round; stroke-linejoin:round; stroke-width:2; stroke-opacity:0.1; fill:none" points="2293.02,1423.18 2293.02,47.2441 "/>
<polyline clip-path="url(#clip762)" style="stroke:#000000; stroke-linecap:round; stroke-linejoin:round; stroke-width:2; stroke-opacity:0.1; fill:none" points="242.135,1221.35 2352.76,1221.35 "/>
<polyline clip-path="url(#clip762)" style="stroke:#000000; stroke-linecap:round; stroke-linejoin:round; stroke-width:2; stroke-opacity:0.1; fill:none" points="242.135,891.714 2352.76,891.714 "/>
<polyline clip-path="url(#clip762)" style="stroke:#000000; stroke-linecap:round; stroke-linejoin:round; stroke-width:2; stroke-opacity:0.1; fill:none" points="242.135,562.081 2352.76,562.081 "/>
<polyline clip-path="url(#clip762)" style="stroke:#000000; stroke-linecap:round; stroke-linejoin:round; stroke-width:2; stroke-opacity:0.1; fill:none" points="242.135,232.449 2352.76,232.449 "/>
<polyline clip-path="url(#clip760)" style="stroke:#000000; stroke-linecap:round; stroke-linejoin:round; stroke-width:4; stroke-opacity:1; fill:none" points="242.135,1423.18 2352.76,1423.18 "/>
<polyline clip-path="url(#clip760)" style="stroke:#000000; stroke-linecap:round; stroke-linejoin:round; stroke-width:4; stroke-opacity:1; fill:none" points="299.876,1423.18 299.876,1404.28 "/>
<polyline clip-path="url(#clip760)" style="stroke:#000000; stroke-linecap:round; stroke-linejoin:round; stroke-width:4; stroke-opacity:1; fill:none" points="798.162,1423.18 798.162,1404.28 "/>
<polyline clip-path="url(#clip760)" style="stroke:#000000; stroke-linecap:round; stroke-linejoin:round; stroke-width:4; stroke-opacity:1; fill:none" points="1296.45,1423.18 1296.45,1404.28 "/>
<polyline clip-path="url(#clip760)" style="stroke:#000000; stroke-linecap:round; stroke-linejoin:round; stroke-width:4; stroke-opacity:1; fill:none" points="1794.74,1423.18 1794.74,1404.28 "/>
<polyline clip-path="url(#clip760)" style="stroke:#000000; stroke-linecap:round; stroke-linejoin:round; stroke-width:4; stroke-opacity:1; fill:none" points="2293.02,1423.18 2293.02,1404.28 "/>
<path clip-path="url(#clip760)" d="M299.876 1454.1 Q296.265 1454.1 294.436 1457.66 Q292.631 1461.2 292.631 1468.33 Q292.631 1475.44 294.436 1479.01 Q296.265 1482.55 299.876 1482.55 Q303.51 1482.55 305.316 1479.01 Q307.145 1475.44 307.145 1468.33 Q307.145 1461.2 305.316 1457.66 Q303.51 1454.1 299.876 1454.1 M299.876 1450.39 Q305.686 1450.39 308.742 1455 Q311.82 1459.58 311.82 1468.33 Q311.82 1477.06 308.742 1481.67 Q305.686 1486.25 299.876 1486.25 Q294.066 1486.25 290.987 1481.67 Q287.932 1477.06 287.932 1468.33 Q287.932 1459.58 290.987 1455 Q294.066 1450.39 299.876 1450.39 Z" fill="#000000" fill-rule="nonzero" fill-opacity="1" /><path clip-path="url(#clip760)" d="M761.855 1481.64 L778.174 1481.64 L778.174 1485.58 L756.23 1485.58 L756.23 1481.64 Q758.892 1478.89 763.475 1474.26 Q768.082 1469.61 769.262 1468.27 Q771.507 1465.74 772.387 1464.01 Q773.29 1462.25 773.29 1460.56 Q773.29 1457.8 771.345 1456.07 Q769.424 1454.33 766.322 1454.33 Q764.123 1454.33 761.67 1455.09 Q759.239 1455.86 756.461 1457.41 L756.461 1452.69 Q759.285 1451.55 761.739 1450.97 Q764.193 1450.39 766.23 1450.39 Q771.6 1450.39 774.794 1453.08 Q777.989 1455.77 777.989 1460.26 Q777.989 1462.39 777.179 1464.31 Q776.392 1466.2 774.285 1468.8 Q773.707 1469.47 770.605 1472.69 Q767.503 1475.88 761.855 1481.64 Z" fill="#000000" fill-rule="nonzero" fill-opacity="1" /><path clip-path="url(#clip760)" d="M788.035 1451.02 L806.392 1451.02 L806.392 1454.96 L792.318 1454.96 L792.318 1463.43 Q793.336 1463.08 794.355 1462.92 Q795.373 1462.73 796.392 1462.73 Q802.179 1462.73 805.558 1465.9 Q808.938 1469.08 808.938 1474.49 Q808.938 1480.07 805.466 1483.17 Q801.993 1486.25 795.674 1486.25 Q793.498 1486.25 791.23 1485.88 Q788.984 1485.51 786.577 1484.77 L786.577 1480.07 Q788.66 1481.2 790.882 1481.76 Q793.105 1482.32 795.581 1482.32 Q799.586 1482.32 801.924 1480.21 Q804.262 1478.1 804.262 1474.49 Q804.262 1470.88 801.924 1468.77 Q799.586 1466.67 795.581 1466.67 Q793.706 1466.67 791.831 1467.08 Q789.98 1467.5 788.035 1468.38 L788.035 1451.02 Z" fill="#000000" fill-rule="nonzero" fill-opacity="1" /><path clip-path="url(#clip760)" d="M828.151 1454.1 Q824.54 1454.1 822.711 1457.66 Q820.905 1461.2 820.905 1468.33 Q820.905 1475.44 822.711 1479.01 Q824.54 1482.55 828.151 1482.55 Q831.785 1482.55 833.59 1479.01 Q835.419 1475.44 835.419 1468.33 Q835.419 1461.2 833.59 1457.66 Q831.785 1454.1 828.151 1454.1 M828.151 1450.39 Q833.961 1450.39 837.016 1455 Q840.095 1459.58 840.095 1468.33 Q840.095 1477.06 837.016 1481.67 Q833.961 1486.25 828.151 1486.25 Q822.341 1486.25 819.262 1481.67 Q816.206 1477.06 816.206 1468.33 Q816.206 1459.58 819.262 1455 Q822.341 1450.39 828.151 1450.39 Z" fill="#000000" fill-rule="nonzero" fill-opacity="1" /><path clip-path="url(#clip760)" d="M1256.07 1451.02 L1274.42 1451.02 L1274.42 1454.96 L1260.35 1454.96 L1260.35 1463.43 Q1261.37 1463.08 1262.39 1462.92 Q1263.4 1462.73 1264.42 1462.73 Q1270.21 1462.73 1273.59 1465.9 Q1276.97 1469.08 1276.97 1474.49 Q1276.97 1480.07 1273.5 1483.17 Q1270.03 1486.25 1263.71 1486.25 Q1261.53 1486.25 1259.26 1485.88 Q1257.02 1485.51 1254.61 1484.77 L1254.61 1480.07 Q1256.69 1481.2 1258.91 1481.76 Q1261.14 1482.32 1263.61 1482.32 Q1267.62 1482.32 1269.96 1480.21 Q1272.29 1478.1 1272.29 1474.49 Q1272.29 1470.88 1269.96 1468.77 Q1267.62 1466.67 1263.61 1466.67 Q1261.74 1466.67 1259.86 1467.08 Q1258.01 1467.5 1256.07 1468.38 L1256.07 1451.02 Z" fill="#000000" fill-rule="nonzero" fill-opacity="1" /><path clip-path="url(#clip760)" d="M1296.18 1454.1 Q1292.57 1454.1 1290.74 1457.66 Q1288.94 1461.2 1288.94 1468.33 Q1288.94 1475.44 1290.74 1479.01 Q1292.57 1482.55 1296.18 1482.55 Q1299.82 1482.55 1301.62 1479.01 Q1303.45 1475.44 1303.45 1468.33 Q1303.45 1461.2 1301.62 1457.66 Q1299.82 1454.1 1296.18 1454.1 M1296.18 1450.39 Q1301.99 1450.39 1305.05 1455 Q1308.13 1459.58 1308.13 1468.33 Q1308.13 1477.06 1305.05 1481.67 Q1301.99 1486.25 1296.18 1486.25 Q1290.37 1486.25 1287.29 1481.67 Q1284.24 1477.06 1284.24 1468.33 Q1284.24 1459.58 1287.29 1455 Q1290.37 1450.39 1296.18 1450.39 Z" fill="#000000" fill-rule="nonzero" fill-opacity="1" /><path clip-path="url(#clip760)" d="M1326.34 1454.1 Q1322.73 1454.1 1320.9 1457.66 Q1319.1 1461.2 1319.1 1468.33 Q1319.1 1475.44 1320.9 1479.01 Q1322.73 1482.55 1326.34 1482.55 Q1329.98 1482.55 1331.78 1479.01 Q1333.61 1475.44 1333.61 1468.33 Q1333.61 1461.2 1331.78 1457.66 Q1329.98 1454.1 1326.34 1454.1 M1326.34 1450.39 Q1332.15 1450.39 1335.21 1455 Q1338.29 1459.58 1338.29 1468.33 Q1338.29 1477.06 1335.21 1481.67 Q1332.15 1486.25 1326.34 1486.25 Q1320.53 1486.25 1317.46 1481.67 Q1314.4 1477.06 1314.4 1468.33 Q1314.4 1459.58 1317.46 1455 Q1320.53 1450.39 1326.34 1450.39 Z" fill="#000000" fill-rule="nonzero" fill-opacity="1" /><path clip-path="url(#clip760)" d="M1753.01 1451.02 L1775.23 1451.02 L1775.23 1453.01 L1762.69 1485.58 L1757.8 1485.58 L1769.61 1454.96 L1753.01 1454.96 L1753.01 1451.02 Z" fill="#000000" fill-rule="nonzero" fill-opacity="1" /><path clip-path="url(#clip760)" d="M1784.4 1451.02 L1802.76 1451.02 L1802.76 1454.96 L1788.68 1454.96 L1788.68 1463.43 Q1789.7 1463.08 1790.72 1462.92 Q1791.74 1462.73 1792.76 1462.73 Q1798.54 1462.73 1801.92 1465.9 Q1805.3 1469.08 1805.3 1474.49 Q1805.3 1480.07 1801.83 1483.17 Q1798.36 1486.25 1792.04 1486.25 Q1789.86 1486.25 1787.59 1485.88 Q1785.35 1485.51 1782.94 1484.77 L1782.94 1480.07 Q1785.02 1481.2 1787.25 1481.76 Q1789.47 1482.32 1791.95 1482.32 Q1795.95 1482.32 1798.29 1480.21 Q1800.63 1478.1 1800.63 1474.49 Q1800.63 1470.88 1798.29 1468.77 Q1795.95 1466.67 1791.95 1466.67 Q1790.07 1466.67 1788.2 1467.08 Q1786.34 1467.5 1784.4 1468.38 L1784.4 1451.02 Z" fill="#000000" fill-rule="nonzero" fill-opacity="1" /><path clip-path="url(#clip760)" d="M1824.51 1454.1 Q1820.9 1454.1 1819.08 1457.66 Q1817.27 1461.2 1817.27 1468.33 Q1817.27 1475.44 1819.08 1479.01 Q1820.9 1482.55 1824.51 1482.55 Q1828.15 1482.55 1829.95 1479.01 Q1831.78 1475.44 1831.78 1468.33 Q1831.78 1461.2 1829.95 1457.66 Q1828.15 1454.1 1824.51 1454.1 M1824.51 1450.39 Q1830.33 1450.39 1833.38 1455 Q1836.46 1459.58 1836.46 1468.33 Q1836.46 1477.06 1833.38 1481.67 Q1830.33 1486.25 1824.51 1486.25 Q1818.7 1486.25 1815.63 1481.67 Q1812.57 1477.06 1812.57 1468.33 Q1812.57 1459.58 1815.63 1455 Q1818.7 1450.39 1824.51 1450.39 Z" fill="#000000" fill-rule="nonzero" fill-opacity="1" /><path clip-path="url(#clip760)" d="M2237.55 1481.64 L2245.19 1481.64 L2245.19 1455.28 L2236.88 1456.95 L2236.88 1452.69 L2245.14 1451.02 L2249.82 1451.02 L2249.82 1481.64 L2257.45 1481.64 L2257.45 1485.58 L2237.55 1485.58 L2237.55 1481.64 Z" fill="#000000" fill-rule="nonzero" fill-opacity="1" /><path clip-path="url(#clip760)" d="M2276.9 1454.1 Q2273.29 1454.1 2271.46 1457.66 Q2269.65 1461.2 2269.65 1468.33 Q2269.65 1475.44 2271.46 1479.01 Q2273.29 1482.55 2276.9 1482.55 Q2280.53 1482.55 2282.34 1479.01 Q2284.17 1475.44 2284.17 1468.33 Q2284.17 1461.2 2282.34 1457.66 Q2280.53 1454.1 2276.9 1454.1 M2276.9 1450.39 Q2282.71 1450.39 2285.76 1455 Q2288.84 1459.58 2288.84 1468.33 Q2288.84 1477.06 2285.76 1481.67 Q2282.71 1486.25 2276.9 1486.25 Q2271.09 1486.25 2268.01 1481.67 Q2264.95 1477.06 2264.95 1468.33 Q2264.95 1459.58 2268.01 1455 Q2271.09 1450.39 2276.9 1450.39 Z" fill="#000000" fill-rule="nonzero" fill-opacity="1" /><path clip-path="url(#clip760)" d="M2307.06 1454.1 Q2303.45 1454.1 2301.62 1457.66 Q2299.82 1461.2 2299.82 1468.33 Q2299.82 1475.44 2301.62 1479.01 Q2303.45 1482.55 2307.06 1482.55 Q2310.69 1482.55 2312.5 1479.01 Q2314.33 1475.44 2314.33 1468.33 Q2314.33 1461.2 2312.5 1457.66 Q2310.69 1454.1 2307.06 1454.1 M2307.06 1450.39 Q2312.87 1450.39 2315.93 1455 Q2319 1459.58 2319 1468.33 Q2319 1477.06 2315.93 1481.67 Q2312.87 1486.25 2307.06 1486.25 Q2301.25 1486.25 2298.17 1481.67 Q2295.12 1477.06 2295.12 1468.33 Q2295.12 1459.58 2298.17 1455 Q2301.25 1450.39 2307.06 1450.39 Z" fill="#000000" fill-rule="nonzero" fill-opacity="1" /><path clip-path="url(#clip760)" d="M2337.22 1454.1 Q2333.61 1454.1 2331.78 1457.66 Q2329.98 1461.2 2329.98 1468.33 Q2329.98 1475.44 2331.78 1479.01 Q2333.61 1482.55 2337.22 1482.55 Q2340.86 1482.55 2342.66 1479.01 Q2344.49 1475.44 2344.49 1468.33 Q2344.49 1461.2 2342.66 1457.66 Q2340.86 1454.1 2337.22 1454.1 M2337.22 1450.39 Q2343.03 1450.39 2346.09 1455 Q2349.17 1459.58 2349.17 1468.33 Q2349.17 1477.06 2346.09 1481.67 Q2343.03 1486.25 2337.22 1486.25 Q2331.41 1486.25 2328.33 1481.67 Q2325.28 1477.06 2325.28 1468.33 Q2325.28 1459.58 2328.33 1455 Q2331.41 1450.39 2337.22 1450.39 Z" fill="#000000" fill-rule="nonzero" fill-opacity="1" /><path clip-path="url(#clip760)" d="M1165.17 1520.52 L1171.6 1520.52 L1171.6 1568.04 L1165.17 1568.04 L1165.17 1520.52 Z" fill="#000000" fill-rule="nonzero" fill-opacity="1" /><path clip-path="url(#clip760)" d="M1189.93 1522.27 L1189.93 1532.4 L1201.99 1532.4 L1201.99 1536.95 L1189.93 1536.95 L1189.93 1556.3 Q1189.93 1560.66 1191.11 1561.9 Q1192.32 1563.14 1195.98 1563.14 L1201.99 1563.14 L1201.99 1568.04 L1195.98 1568.04 Q1189.2 1568.04 1186.62 1565.53 Q1184.04 1562.98 1184.04 1556.3 L1184.04 1536.95 L1179.74 1536.95 L1179.74 1532.4 L1184.04 1532.4 L1184.04 1522.27 L1189.93 1522.27 Z" fill="#000000" fill-rule="nonzero" fill-opacity="1" /><path clip-path="url(#clip760)" d="M1240.19 1548.76 L1240.19 1551.62 L1213.26 1551.62 Q1213.64 1557.67 1216.89 1560.85 Q1220.17 1564 1225.99 1564 Q1229.36 1564 1232.52 1563.17 Q1235.7 1562.35 1238.82 1560.69 L1238.82 1566.23 Q1235.67 1567.57 1232.36 1568.27 Q1229.05 1568.97 1225.64 1568.97 Q1217.11 1568.97 1212.11 1564 Q1207.15 1559.04 1207.15 1550.57 Q1207.15 1541.82 1211.86 1536.69 Q1216.6 1531.54 1224.62 1531.54 Q1231.81 1531.54 1235.98 1536.18 Q1240.19 1540.8 1240.19 1548.76 M1234.33 1547.04 Q1234.27 1542.23 1231.62 1539.37 Q1229.01 1536.5 1224.69 1536.5 Q1219.78 1536.5 1216.82 1539.27 Q1213.9 1542.04 1213.45 1547.07 L1234.33 1547.04 Z" fill="#000000" fill-rule="nonzero" fill-opacity="1" /><path clip-path="url(#clip760)" d="M1270.45 1537.87 Q1269.47 1537.3 1268.29 1537.04 Q1267.14 1536.76 1265.74 1536.76 Q1260.78 1536.76 1258.11 1540 Q1255.46 1543.22 1255.46 1549.27 L1255.46 1568.04 L1249.58 1568.04 L1249.58 1532.4 L1255.46 1532.4 L1255.46 1537.93 Q1257.31 1534.69 1260.27 1533.13 Q1263.23 1531.54 1267.46 1531.54 Q1268.07 1531.54 1268.8 1531.63 Q1269.53 1531.7 1270.42 1531.85 L1270.45 1537.87 Z" fill="#000000" fill-rule="nonzero" fill-opacity="1" /><path clip-path="url(#clip760)" d="M1292.8 1550.12 Q1285.7 1550.12 1282.96 1551.75 Q1280.23 1553.37 1280.23 1557.29 Q1280.23 1560.4 1282.26 1562.25 Q1284.33 1564.07 1287.86 1564.07 Q1292.73 1564.07 1295.66 1560.63 Q1298.62 1557.16 1298.62 1551.43 L1298.62 1550.12 L1292.8 1550.12 M1304.48 1547.71 L1304.48 1568.04 L1298.62 1568.04 L1298.62 1562.63 Q1296.62 1565.88 1293.63 1567.44 Q1290.63 1568.97 1286.31 1568.97 Q1280.83 1568.97 1277.58 1565.91 Q1274.37 1562.82 1274.37 1557.67 Q1274.37 1551.65 1278.38 1548.6 Q1282.42 1545.54 1290.41 1545.54 L1298.62 1545.54 L1298.62 1544.97 Q1298.62 1540.93 1295.95 1538.73 Q1293.31 1536.5 1288.5 1536.5 Q1285.45 1536.5 1282.55 1537.23 Q1279.65 1537.97 1276.98 1539.43 L1276.98 1534.02 Q1280.19 1532.78 1283.22 1532.17 Q1286.24 1531.54 1289.11 1531.54 Q1296.84 1531.54 1300.66 1535.55 Q1304.48 1539.56 1304.48 1547.71 Z" fill="#000000" fill-rule="nonzero" fill-opacity="1" /><path clip-path="url(#clip760)" d="M1322.34 1522.27 L1322.34 1532.4 L1334.4 1532.4 L1334.4 1536.95 L1322.34 1536.95 L1322.34 1556.3 Q1322.34 1560.66 1323.51 1561.9 Q1324.72 1563.14 1328.38 1563.14 L1334.4 1563.14 L1334.4 1568.04 L1328.38 1568.04 Q1321.6 1568.04 1319.03 1565.53 Q1316.45 1562.98 1316.45 1556.3 L1316.45 1536.95 L1312.15 1536.95 L1312.15 1532.4 L1316.45 1532.4 L1316.45 1522.27 L1322.34 1522.27 Z" fill="#000000" fill-rule="nonzero" fill-opacity="1" /><path clip-path="url(#clip760)" d="M1342.1 1532.4 L1347.96 1532.4 L1347.96 1568.04 L1342.1 1568.04 L1342.1 1532.4 M1342.1 1518.52 L1347.96 1518.52 L1347.96 1525.93 L1342.1 1525.93 L1342.1 1518.52 Z" fill="#000000" fill-rule="nonzero" fill-opacity="1" /><path clip-path="url(#clip760)" d="M1374.02 1536.5 Q1369.31 1536.5 1366.58 1540.19 Q1363.84 1543.85 1363.84 1550.25 Q1363.84 1556.65 1366.55 1560.34 Q1369.28 1564 1374.02 1564 Q1378.7 1564 1381.44 1560.31 Q1384.18 1556.62 1384.18 1550.25 Q1384.18 1543.92 1381.44 1540.23 Q1378.7 1536.5 1374.02 1536.5 M1374.02 1531.54 Q1381.66 1531.54 1386.02 1536.5 Q1390.38 1541.47 1390.38 1550.25 Q1390.38 1559 1386.02 1564 Q1381.66 1568.97 1374.02 1568.97 Q1366.35 1568.97 1361.99 1564 Q1357.66 1559 1357.66 1550.25 Q1357.66 1541.47 1361.99 1536.5 Q1366.35 1531.54 1374.02 1531.54 Z" fill="#000000" fill-rule="nonzero" fill-opacity="1" /><path clip-path="url(#clip760)" d="M1429.72 1546.53 L1429.72 1568.04 L1423.87 1568.04 L1423.87 1546.72 Q1423.87 1541.66 1421.89 1539.14 Q1419.92 1536.63 1415.97 1536.63 Q1411.23 1536.63 1408.5 1539.65 Q1405.76 1542.68 1405.76 1547.9 L1405.76 1568.04 L1399.87 1568.04 L1399.87 1532.4 L1405.76 1532.4 L1405.76 1537.93 Q1407.86 1534.72 1410.69 1533.13 Q1413.56 1531.54 1417.28 1531.54 Q1423.42 1531.54 1426.57 1535.36 Q1429.72 1539.14 1429.72 1546.53 Z" fill="#000000" fill-rule="nonzero" fill-opacity="1" /><polyline clip-path="url(#clip760)" style="stroke:#000000; stroke-linecap:round; stroke-linejoin:round; stroke-width:4; stroke-opacity:1; fill:none" points="242.135,1423.18 242.135,47.2441 "/>
<polyline clip-path="url(#clip760)" style="stroke:#000000; stroke-linecap:round; stroke-linejoin:round; stroke-width:4; stroke-opacity:1; fill:none" points="242.135,1221.35 261.032,1221.35 "/>
<polyline clip-path="url(#clip760)" style="stroke:#000000; stroke-linecap:round; stroke-linejoin:round; stroke-width:4; stroke-opacity:1; fill:none" points="242.135,891.714 261.032,891.714 "/>
<polyline clip-path="url(#clip760)" style="stroke:#000000; stroke-linecap:round; stroke-linejoin:round; stroke-width:4; stroke-opacity:1; fill:none" points="242.135,562.081 261.032,562.081 "/>
<polyline clip-path="url(#clip760)" style="stroke:#000000; stroke-linecap:round; stroke-linejoin:round; stroke-width:4; stroke-opacity:1; fill:none" points="242.135,232.449 261.032,232.449 "/>
<path clip-path="url(#clip760)" d="M114.26 1221.8 L143.936 1221.8 L143.936 1225.73 L114.26 1225.73 L114.26 1221.8 Z" fill="#000000" fill-rule="nonzero" fill-opacity="1" /><path clip-path="url(#clip760)" d="M168.195 1219.99 Q171.552 1220.71 173.427 1222.98 Q175.325 1225.25 175.325 1228.58 Q175.325 1233.7 171.806 1236.5 Q168.288 1239.3 161.806 1239.3 Q159.63 1239.3 157.315 1238.86 Q155.024 1238.44 152.57 1237.58 L152.57 1233.07 Q154.515 1234.21 156.829 1234.78 Q159.144 1235.36 161.667 1235.36 Q166.065 1235.36 168.357 1233.63 Q170.672 1231.89 170.672 1228.58 Q170.672 1225.52 168.519 1223.81 Q166.39 1222.08 162.57 1222.08 L158.542 1222.08 L158.542 1218.23 L162.755 1218.23 Q166.204 1218.23 168.033 1216.87 Q169.862 1215.48 169.862 1212.89 Q169.862 1210.22 167.964 1208.81 Q166.089 1207.38 162.57 1207.38 Q160.649 1207.38 158.45 1207.79 Q156.251 1208.21 153.612 1209.09 L153.612 1204.92 Q156.274 1204.18 158.589 1203.81 Q160.927 1203.44 162.987 1203.44 Q168.311 1203.44 171.413 1205.87 Q174.514 1208.28 174.514 1212.4 Q174.514 1215.27 172.871 1217.26 Q171.227 1219.23 168.195 1219.99 Z" fill="#000000" fill-rule="nonzero" fill-opacity="1" /><path clip-path="url(#clip760)" d="M194.19 1207.15 Q190.579 1207.15 188.75 1210.71 Q186.945 1214.25 186.945 1221.38 Q186.945 1228.49 188.75 1232.05 Q190.579 1235.59 194.19 1235.59 Q197.825 1235.59 199.63 1232.05 Q201.459 1228.49 201.459 1221.38 Q201.459 1214.25 199.63 1210.71 Q197.825 1207.15 194.19 1207.15 M194.19 1203.44 Q200 1203.44 203.056 1208.05 Q206.135 1212.63 206.135 1221.38 Q206.135 1230.11 203.056 1234.71 Q200 1239.3 194.19 1239.3 Q188.38 1239.3 185.301 1234.71 Q182.246 1230.11 182.246 1221.38 Q182.246 1212.63 185.301 1208.05 Q188.38 1203.44 194.19 1203.44 Z" fill="#000000" fill-rule="nonzero" fill-opacity="1" /><path clip-path="url(#clip760)" d="M114.26 892.165 L143.936 892.165 L143.936 896.101 L114.26 896.101 L114.26 892.165 Z" fill="#000000" fill-rule="nonzero" fill-opacity="1" /><path clip-path="url(#clip760)" d="M158.056 905.059 L174.376 905.059 L174.376 908.994 L152.431 908.994 L152.431 905.059 Q155.093 902.304 159.677 897.675 Q164.283 893.022 165.464 891.679 Q167.709 889.156 168.589 887.42 Q169.491 885.661 169.491 883.971 Q169.491 881.216 167.547 879.48 Q165.626 877.744 162.524 877.744 Q160.325 877.744 157.871 878.508 Q155.44 879.272 152.663 880.823 L152.663 876.101 Q155.487 874.966 157.94 874.388 Q160.394 873.809 162.431 873.809 Q167.802 873.809 170.996 876.494 Q174.19 879.179 174.19 883.67 Q174.19 885.8 173.38 887.721 Q172.593 889.619 170.487 892.212 Q169.908 892.883 166.806 896.101 Q163.704 899.295 158.056 905.059 Z" fill="#000000" fill-rule="nonzero" fill-opacity="1" /><path clip-path="url(#clip760)" d="M194.19 877.513 Q190.579 877.513 188.75 881.077 Q186.945 884.619 186.945 891.749 Q186.945 898.855 188.75 902.42 Q190.579 905.962 194.19 905.962 Q197.825 905.962 199.63 902.42 Q201.459 898.855 201.459 891.749 Q201.459 884.619 199.63 881.077 Q197.825 877.513 194.19 877.513 M194.19 873.809 Q200 873.809 203.056 878.415 Q206.135 882.999 206.135 891.749 Q206.135 900.476 203.056 905.082 Q200 909.665 194.19 909.665 Q188.38 909.665 185.301 905.082 Q182.246 900.476 182.246 891.749 Q182.246 882.999 185.301 878.415 Q188.38 873.809 194.19 873.809 Z" fill="#000000" fill-rule="nonzero" fill-opacity="1" /><path clip-path="url(#clip760)" d="M114.26 562.533 L143.936 562.533 L143.936 566.468 L114.26 566.468 L114.26 562.533 Z" fill="#000000" fill-rule="nonzero" fill-opacity="1" /><path clip-path="url(#clip760)" d="M154.839 575.426 L162.477 575.426 L162.477 549.061 L154.167 550.727 L154.167 546.468 L162.431 544.801 L167.107 544.801 L167.107 575.426 L174.746 575.426 L174.746 579.361 L154.839 579.361 L154.839 575.426 Z" fill="#000000" fill-rule="nonzero" fill-opacity="1" /><path clip-path="url(#clip760)" d="M194.19 547.88 Q190.579 547.88 188.75 551.445 Q186.945 554.987 186.945 562.116 Q186.945 569.223 188.75 572.787 Q190.579 576.329 194.19 576.329 Q197.825 576.329 199.63 572.787 Q201.459 569.223 201.459 562.116 Q201.459 554.987 199.63 551.445 Q197.825 547.88 194.19 547.88 M194.19 544.176 Q200 544.176 203.056 548.783 Q206.135 553.366 206.135 562.116 Q206.135 570.843 203.056 575.449 Q200 580.033 194.19 580.033 Q188.38 580.033 185.301 575.449 Q182.246 570.843 182.246 562.116 Q182.246 553.366 185.301 548.783 Q188.38 544.176 194.19 544.176 Z" fill="#000000" fill-rule="nonzero" fill-opacity="1" /><path clip-path="url(#clip760)" d="M194.19 218.248 Q190.579 218.248 188.75 221.812 Q186.945 225.354 186.945 232.484 Q186.945 239.59 188.75 243.155 Q190.579 246.697 194.19 246.697 Q197.825 246.697 199.63 243.155 Q201.459 239.59 201.459 232.484 Q201.459 225.354 199.63 221.812 Q197.825 218.248 194.19 218.248 M194.19 214.544 Q200 214.544 203.056 219.15 Q206.135 223.734 206.135 232.484 Q206.135 241.21 203.056 245.817 Q200 250.4 194.19 250.4 Q188.38 250.4 185.301 245.817 Q182.246 241.21 182.246 232.484 Q182.246 223.734 185.301 219.15 Q188.38 214.544 194.19 214.544 Z" fill="#000000" fill-rule="nonzero" fill-opacity="1" /><path clip-path="url(#clip760)" d="M16.4842 816.375 L16.4842 786.329 L21.895 786.329 L21.895 809.945 L35.9632 809.945 L35.9632 787.315 L41.3741 787.315 L41.3741 809.945 L58.5933 809.945 L58.5933 785.756 L64.0042 785.756 L64.0042 816.375 L16.4842 816.375 Z" fill="#000000" fill-rule="nonzero" fill-opacity="1" /><path clip-path="url(#clip760)" d="M16.4842 775.189 L16.4842 768.759 L58.5933 768.759 L58.5933 745.62 L64.0042 745.62 L64.0042 775.189 L16.4842 775.189 Z" fill="#000000" fill-rule="nonzero" fill-opacity="1" /><path clip-path="url(#clip760)" d="M41.3104 732.443 L58.7206 732.443 L58.7206 722.13 Q58.7206 716.942 56.5881 714.46 Q54.4238 711.945 49.9996 711.945 Q45.5436 711.945 43.4429 714.46 Q41.3104 716.942 41.3104 722.13 L41.3104 732.443 M21.7677 732.443 L36.0905 732.443 L36.0905 722.926 Q36.0905 718.216 34.34 715.924 Q32.5576 713.6 28.9291 713.6 Q25.3325 713.6 23.5501 715.924 Q21.7677 718.216 21.7677 722.926 L21.7677 732.443 M16.4842 738.872 L16.4842 722.449 Q16.4842 715.096 19.5397 711.118 Q22.5952 707.139 28.2289 707.139 Q32.5894 707.139 35.1675 709.176 Q37.7456 711.213 38.3822 715.16 Q39.4007 710.418 42.6472 707.808 Q45.8619 705.166 50.6998 705.166 Q57.0655 705.166 60.5348 709.495 Q64.0042 713.823 64.0042 721.812 L64.0042 738.872 L16.4842 738.872 Z" fill="#000000" fill-rule="nonzero" fill-opacity="1" /><path clip-path="url(#clip760)" d="M20.8447 676.011 Q20.8447 683.013 26.0645 687.151 Q31.2844 691.257 40.2919 691.257 Q49.2675 691.257 54.4874 687.151 Q59.7073 683.013 59.7073 676.011 Q59.7073 669.009 54.4874 664.935 Q49.2675 660.829 40.2919 660.829 Q31.2844 660.829 26.0645 664.935 Q20.8447 669.009 20.8447 676.011 M15.6248 676.011 Q15.6248 666.017 22.3406 660.033 Q29.0246 654.049 40.2919 654.049 Q51.5274 654.049 58.2432 660.033 Q64.9272 666.017 64.9272 676.011 Q64.9272 686.037 58.2432 692.052 Q51.5592 698.036 40.2919 698.036 Q29.0246 698.036 22.3406 692.052 Q15.6248 686.037 15.6248 676.011 Z" fill="#000000" fill-rule="nonzero" fill-opacity="1" /><polyline clip-path="url(#clip762)" style="stroke:#009af9; stroke-linecap:round; stroke-linejoin:round; stroke-width:4; stroke-opacity:1; fill:none" points="301.869,1158.61 303.862,1090.26 305.856,620.982 307.849,817.737 309.842,643.552 311.835,804.406 313.828,588.94 315.821,962.769 317.814,567.925 319.808,1052.27 321.801,788.54 323.794,702.975 325.787,982.625 327.78,602.024 329.773,698.511 331.766,857.399 333.76,970.241 335.753,470.722 337.746,662.388 339.739,616.888 341.732,948.951 343.725,678.276 345.718,832.513 347.712,1248.9 349.705,814.091 351.698,1028.18 353.691,507.433 355.684,720.581 357.677,327.429 359.67,567.361 361.664,398.026 363.657,693.457 365.65,791.289 367.643,597.656 369.636,441.2 371.629,731.92 373.622,864.787 375.616,751.373 377.609,825.921 379.602,1246.06 381.595,865.999 383.588,802.172 385.581,597.118 387.574,803.727 389.568,547.803 391.561,683.21 393.554,496.998 395.547,559.235 397.54,796.166 399.533,716.72 401.526,604.383 403.52,531.603 405.513,294.716 407.506,593.074 409.499,501.017 411.492,699.442 413.485,693.684 415.479,328.101 417.472,597.134 419.465,469.94 421.458,944.338 423.451,703.606 425.444,765.747 427.437,353.636 429.431,637.911 431.424,695.079 433.417,443.126 435.41,369.518 437.403,732.452 439.396,184.681 441.389,588.753 443.383,318.741 445.376,530.886 447.369,494.656 449.362,688.97 451.355,548.857 453.348,427.738 455.341,311.137 457.335,284.928 459.328,675.199 461.321,642.593 463.314,957.932 465.307,734.414 467.3,765.837 469.293,508.049 471.287,600.951 473.28,489.306 475.273,486.068 477.266,585.467 479.259,325.112 481.252,684.814 483.245,658.951 485.239,433.866 487.232,339.592 489.225,633.778 491.218,611.09 493.211,367.916 495.204,446.752 497.197,285.553 499.191,453.8 501.184,429.259 503.177,328.467 505.17,345.015 507.163,440.409 509.156,662.962 511.149,637.551 513.143,284.751 515.136,333.366 517.129,521.381 519.122,831.739 521.115,412.548 523.108,450.595 525.101,420.141 527.095,483.424 529.088,303.322 531.081,599.902 533.074,319.264 535.067,330.541 537.06,333.061 539.054,281.435 541.047,324.873 543.04,176.647 545.033,498.864 547.026,171.803 549.019,677.551 551.012,253.307 553.006,349.527 554.999,268.079 556.992,399.41 558.985,358.258 560.978,312.38 562.971,527.209 564.964,486.349 566.958,502.732 568.951,506.942 570.944,454.326 572.937,460.06 574.93,389.286 576.923,464.406 578.916,393.225 580.91,522.795 582.903,491.017 584.896,155.958 586.889,471.662 588.882,457.522 590.875,285.031 592.868,384.915 594.862,416.56 596.855,244.121 598.848,479.519 600.841,314.852 602.834,278.739 604.827,350.626 606.82,509.97 608.814,401.401 610.807,272.129 612.8,362.822 614.793,346.655 616.786,467.276 618.779,262.845 620.772,403.542 622.766,351.693 624.759,339.221 626.752,222.357 628.745,405.059 630.738,233.843 632.731,244.359 634.724,499.147 636.718,214.349 638.711,317.955 640.704,299.574 642.697,277.662 644.69,400.863 646.683,110.891 648.677,407.212 650.67,252.98 652.663,215.413 654.656,277.526 656.649,137.265 658.642,256 660.635,373.226 662.629,315.694 664.622,405.376 666.615,322.939 668.608,613.039 670.601,212.315 672.594,184.008 674.587,499.622 676.581,368.836 678.574,491.365 680.567,361.196 682.56,279.272 684.553,316.043 686.546,373.585 688.539,377.162 690.533,226.603 692.526,444.147 694.519,290.228 696.512,413.999 698.505,318.808 700.498,475.551 702.491,149.862 704.485,355.799 706.478,472.406 708.471,118.928 710.464,390.028 712.457,183.108 714.45,328.94 716.443,269.167 718.437,143.499 720.43,118.882 722.423,252.416 724.416,450.131 726.409,280.543 728.402,209.692 730.395,229.356 732.389,180.805 734.382,458.041 736.375,327.21 738.368,468.432 740.361,326.229 742.354,255.301 744.347,273.576 746.341,190.478 748.334,478.444 750.327,394.176 752.32,424.097 754.313,284.957 756.306,477.325 758.299,273.083 760.293,256.974 762.286,336.892 764.279,190.033 766.272,153.333 768.265,160.512 770.258,150.591 772.252,405.949 774.245,193.297 776.238,460.616 778.231,237.04 780.224,341.112 782.217,221.003 784.21,288.569 786.204,219.254 788.197,185.53 790.19,262.336 792.183,113.658 794.176,181.249 796.169,251.293 798.162,397.377 800.156,221.213 802.149,164.354 804.142,243.564 806.135,249.57 808.128,228.989 810.121,144.576 812.114,295.994 814.108,239.567 816.101,214.283 818.094,202.869 820.087,449.049 822.08,169.227 824.073,333.957 826.066,269.63 828.06,322.895 830.053,215.669 832.046,363.08 834.039,420.697 836.032,225.971 838.025,554.021 840.018,181.377 842.012,236.236 844.005,260.968 845.998,123.83 847.991,201.015 849.984,177.26 851.977,217.561 853.97,217.047 855.964,411.253 857.957,190.417 859.95,315.31 861.943,163.276 863.936,221.604 865.929,232.136 867.922,176.844 869.916,151.818 871.909,296.61 873.902,175.996 875.895,86.1857 877.888,313.784 879.881,149.085 881.874,230.627 883.868,166.375 885.861,130.993 887.854,208.589 889.847,264.615 891.84,351.898 893.833,774.839 895.827,228.558 897.82,221.804 899.813,163.023 901.806,218.486 903.799,267.341 905.792,215.387 907.785,248.386 909.779,138.925 911.772,228.963 913.765,157.335 915.758,253.489 917.751,229.953 919.744,166.372 921.737,200.228 923.731,204.255 925.724,170.618 927.717,200.555 929.71,246.001 931.703,272.901 933.696,149.122 935.689,147.779 937.683,388.515 939.676,192.797 941.669,160.497 943.662,329.065 945.655,206.479 947.648,215.313 949.641,192.306 951.635,111.571 953.628,151.005 955.621,361.121 957.614,487.777 959.607,175.225 961.6,325.659 963.593,374.85 965.587,226.059 967.58,317.216 969.573,149.813 971.566,155.767 973.559,226.512 975.552,224.476 977.545,250.281 979.539,493.067 981.532,311.286 983.525,125.45 985.518,177.417 987.511,265.485 989.504,559.698 991.497,168.67 993.491,179.478 995.484,387.789 997.477,184.156 999.47,157.499 1001.46,251.296 1003.46,357.507 1005.45,170.967 1007.44,195.835 1009.44,181.539 1011.43,299.368 1013.42,288.434 1015.42,210.075 1017.41,108.926 1019.4,291.11 1021.39,208.941 1023.39,144.959 1025.38,321.233 1027.37,341.952 1029.37,293.073 1031.36,239.61 1033.35,214.236 1035.35,202.099 1037.34,196.216 1039.33,258.07 1041.33,205.74 1043.32,214.539 1045.31,375.949 1047.31,288.142 1049.3,195.885 1051.29,194.845 1053.28,374.264 1055.28,202.445 1057.27,277.415 1059.26,98.8582 1061.26,173.019 1063.25,199.716 1065.24,375.249 1067.24,285.332 1069.23,289.527 1071.22,178.869 1073.22,283.169 1075.21,227.683 1077.2,147.807 1079.2,136.757 1081.19,178.208 1083.18,196.502 1085.18,279.379 1087.17,139.747 1089.16,294.256 1091.15,299.412 1093.15,158.75 1095.14,284.84 1097.13,125.168 1099.13,253.424 1101.12,236.719 1103.11,243.481 1105.11,333.611 1107.1,116.296 1109.09,207.436 1111.09,338.977 1113.08,158.623 1115.07,153.471 1117.07,220.366 1119.06,246.812 1121.05,123.781 1123.05,250.395 1125.04,237.548 1127.03,206.698 1129.02,189.447 1131.02,211.54 1133.01,94.2423 1135,442.756 1137,248.033 1138.99,204.216 1140.98,229.717 1142.98,171.511 1144.97,328.737 1146.96,411.156 1148.96,124.586 1150.95,223.729 1152.94,351.894 1154.94,268.391 1156.93,335.025 1158.92,333.482 1160.91,197.673 1162.91,265.643 1164.9,285.358 1166.89,271.622 1168.89,325.307 1170.88,173.16 1172.87,316.663 1174.87,282.322 1176.86,339.491 1178.85,348.798 1180.85,211.809 1182.84,197.203 1184.83,239.08 1186.83,318.48 1188.82,220.907 1190.81,205.884 1192.81,244.927 1194.8,173.866 1196.79,297.219 1198.78,142.576 1200.78,224.339 1202.77,273.882 1204.76,235.629 1206.76,210.365 1208.75,223.459 1210.74,226.086 1212.74,210.674 1214.73,127.479 1216.72,145.38 1218.72,124.44 1220.71,151.395 1222.7,129.575 1224.7,193.439 1226.69,217.859 1228.68,221.191 1230.67,357.788 1232.67,177.143 1234.66,260.818 1236.65,222.779 1238.65,222.937 1240.64,253.894 1242.63,184.795 1244.63,230.776 1246.62,256.643 1248.61,235.46 1250.61,197.328 1252.6,146.914 1254.59,259.736 1256.59,169.844 1258.58,203.364 1260.57,204.259 1262.57,341.465 1264.56,201.26 1266.55,217.31 1268.54,162.717 1270.54,208.393 1272.53,278.351 1274.52,306.419 1276.52,129.711 1278.51,318.393 1280.5,255.172 1282.5,216.567 1284.49,280.015 1286.48,302.806 1288.48,252.72 1290.47,380.671 1292.46,264.695 1294.46,331.037 1296.45,269.335 1298.44,127.312 1300.44,249.411 1302.43,135.746 1304.42,158.121 1306.41,170.351 1308.41,285.56 1310.4,323.617 1312.39,196.457 1314.39,320.59 1316.38,151.326 1318.37,273.411 1320.37,378.593 1322.36,191.71 1324.35,174.126 1326.35,285.824 1328.34,209.081 1330.33,263.723 1332.33,204.699 1334.32,263.61 1336.31,295.844 1338.3,170.044 1340.3,190.566 1342.29,317.779 1344.28,212.674 1346.28,229.047 1348.27,226.125 1350.26,104.319 1352.26,169.252 1354.25,162.63 1356.24,149.242 1358.24,482.546 1360.23,221.932 1362.22,274.669 1364.22,294.778 1366.21,184.111 1368.2,187.316 1370.2,251.058 1372.19,233.244 1374.18,163.313 1376.17,199.854 1378.17,280.057 1380.16,165.879 1382.15,282.489 1384.15,155.52 1386.14,179.882 1388.13,339.345 1390.13,134.215 1392.12,266.243 1394.11,266.899 1396.11,225.783 1398.1,202.272 1400.09,99.9362 1402.09,179.758 1404.08,214.275 1406.07,269.491 1408.06,204.565 1410.06,164.187 1412.05,321.436 1414.04,182.859 1416.04,178.567 1418.03,250.752 1420.02,324.608 1422.02,209.255 1424.01,183.039 1426,160.836 1428,282.908 1429.99,335.944 1431.98,128.716 1433.98,189.923 1435.97,136.774 1437.96,238.741 1439.96,266.954 1441.95,202.355 1443.94,345.477 1445.93,187.655 1447.93,384.206 1449.92,172.541 1451.91,419.539 1453.91,297.987 1455.9,212.308 1457.89,302.886 1459.89,198.102 1461.88,223.074 1463.87,232.867 1465.87,213.437 1467.86,183.743 1469.85,276.334 1471.85,286.137 1473.84,142.1 1475.83,203.764 1477.82,335.749 1479.82,286.092 1481.81,272.661 1483.8,202.586 1485.8,293.102 1487.79,193.85 1489.78,294.229 1491.78,264.451 1493.77,160 1495.76,358.028 1497.76,234.164 1499.75,284.521 1501.74,373.469 1503.74,335.336 1505.73,290.383 1507.72,333.916 1509.72,284.743 1511.71,354.145 1513.7,280.964 1515.69,313.977 1517.69,341.038 1519.68,170.931 1521.67,233.164 1523.67,290.264 1525.66,476.223 1527.65,208.114 1529.65,218.682 1531.64,167.606 1533.63,424.265 1535.63,228.303 1537.62,192.594 1539.61,199.047 1541.61,242.337 1543.6,149.043 1545.59,302.694 1547.59,341.598 1549.58,254.286 1551.57,163.247 1553.56,181.677 1555.56,151.963 1557.55,165.516 1559.54,235.433 1561.54,288.419 1563.53,313.8 1565.52,358.635 1567.52,208.469 1569.51,231.209 1571.5,312.472 1573.5,222.994 1575.49,205.386 1577.48,215.304 1579.48,324.123 1581.47,239.464 1583.46,475.929 1585.45,389.57 1587.45,188.676 1589.44,201.595 1591.43,142.733 1593.43,171.912 1595.42,198.801 1597.41,275.495 1599.41,155.805 1601.4,226.319 1603.39,202.048 1605.39,255.812 1607.38,100.459 1609.37,157.437 1611.37,182.414 1613.36,266.499 1615.35,174.991 1617.35,243.471 1619.34,316.373 1621.33,171.539 1623.32,183.848 1625.32,202.832 1627.31,271.554 1629.3,212.225 1631.3,272.118 1633.29,169.415 1635.28,289.784 1637.28,251.338 1639.27,145.098 1641.26,189.722 1643.26,187.334 1645.25,192.247 1647.24,169.604 1649.24,204.655 1651.23,223.242 1653.22,239.405 1655.21,428.917 1657.21,206.263 1659.2,223.993 1661.19,160.013 1663.19,181.122 1665.18,252.518 1667.17,319.675 1669.17,175.934 1671.16,137.21 1673.15,229.182 1675.15,484.319 1677.14,262.286 1679.13,277.136 1681.13,170.795 1683.12,150.082 1685.11,234.652 1687.11,275.076 1689.1,159.605 1691.09,202.778 1693.08,253.045 1695.08,247.922 1697.07,318.787 1699.06,335.492 1701.06,269.238 1703.05,210.679 1705.04,189.576 1707.04,88.8671 1709.03,228.92 1711.02,251.309 1713.02,270.182 1715.01,193.022 1717,263.93 1719,198.845 1720.99,173.784 1722.98,170.958 1724.97,194.606 1726.97,180.789 1728.96,205.524 1730.95,269.968 1732.95,154.337 1734.94,257.61 1736.93,344.99 1738.93,196.619 1740.92,273.553 1742.91,329.83 1744.91,210.736 1746.9,155.143 1748.89,228.513 1750.89,142.549 1752.88,143.147 1754.87,142.021 1756.87,201.931 1758.86,261.796 1760.85,149.413 1762.84,180.455 1764.84,250.192 1766.83,154.959 1768.82,192.237 1770.82,296.722 1772.81,191.351 1774.8,313.295 1776.8,188.611 1778.79,189.194 1780.78,316.405 1782.78,213.271 1784.77,152.527 1786.76,114.571 1788.76,378.951 1790.75,183.74 1792.74,247.113 1794.74,223.344 1796.73,147.126 1798.72,170.155 1800.71,305.681 1802.71,263.095 1804.7,169.994 1806.69,385.663 1808.69,292.581 1810.68,161.009 1812.67,337.614 1814.67,185.478 1816.66,265.812 1818.65,336.67 1820.65,154.2 1822.64,224.292 1824.63,279.876 1826.63,210.048 1828.62,165.22 1830.61,277.019 1832.6,206.247 1834.6,324.382 1836.59,176.687 1838.58,236.869 1840.58,336.275 1842.57,411.577 1844.56,201.66 1846.56,416.467 1848.55,280.58 1850.54,171.81 1852.54,255.148 1854.53,236.249 1856.52,238.334 1858.52,118.022 1860.51,219.127 1862.5,304.53 1864.5,237.272 1866.49,292.459 1868.48,221.813 1870.47,267.02 1872.47,141.243 1874.46,295.391 1876.45,627.684 1878.45,203.124 1880.44,261.12 1882.43,126.529 1884.43,183.189 1886.42,222.224 1888.41,216.066 1890.41,306.832 1892.4,259.728 1894.39,241.526 1896.39,196.268 1898.38,347.377 1900.37,141.63 1902.36,239.371 1904.36,243.927 1906.35,280.047 1908.34,229.097 1910.34,373.128 1912.33,325.334 1914.32,160.433 1916.32,375.681 1918.31,262.228 1920.3,255.944 1922.3,229.689 1924.29,202.792 1926.28,312.64 1928.28,136.001 1930.27,370.245 1932.26,318.9 1934.26,257.549 1936.25,118.722 1938.24,297.918 1940.23,303.716 1942.23,308.818 1944.22,202.378 1946.21,110.151 1948.21,225.961 1950.2,254.869 1952.19,247.399 1954.19,325.772 1956.18,268.542 1958.17,176.99 1960.17,282.992 1962.16,252.809 1964.15,313.602 1966.15,267.049 1968.14,439.564 1970.13,338.721 1972.12,242.726 1974.12,244.56 1976.11,168.609 1978.1,247.709 1980.1,228.359 1982.09,226.799 1984.08,115.757 1986.08,303.583 1988.07,311.346 1990.06,381.325 1992.06,290.471 1994.05,187.631 1996.04,312.411 1998.04,130.355 2000.03,252.955 2002.02,263.755 2004.02,202.982 2006.01,283.677 2008,255.162 2009.99,174.249 2011.99,279.909 2013.98,228.941 2015.97,198.373 2017.97,233.636 2019.96,255.936 2021.95,221.316 2023.95,294.636 2025.94,204.721 2027.93,162.935 2029.93,257.566 2031.92,309.658 2033.91,204.15 2035.91,152.194 2037.9,177.622 2039.89,307.793 2041.89,120.615 2043.88,236.081 2045.87,289.885 2047.86,292.52 2049.86,397.459 2051.85,136.667 2053.84,254.809 2055.84,267.795 2057.83,185.656 2059.82,300.852 2061.82,173.248 2063.81,167.584 2065.8,131.895 2067.8,213.584 2069.79,332.48 2071.78,275.368 2073.78,188.386 2075.77,246.81 2077.76,368.85 2079.75,235.428 2081.75,229.42 2083.74,175.436 2085.73,174.134 2087.73,241.26 2089.72,187.803 2091.71,184.998 2093.71,215.118 2095.7,353.844 2097.69,121.477 2099.69,308.516 2101.68,272.381 2103.67,217.398 2105.67,204.584 2107.66,312.102 2109.65,485.947 2111.65,199.813 2113.64,204.926 2115.63,190.666 2117.62,339.76 2119.62,499.133 2121.61,145.535 2123.6,260.038 2125.6,329.844 2127.59,315.601 2129.58,226.759 2131.58,217.853 2133.57,116.403 2135.56,269.287 2137.56,301.821 2139.55,229.49 2141.54,319.221 2143.54,157.918 2145.53,177.134 2147.52,230.72 2149.51,158.874 2151.51,151.581 2153.5,196.846 2155.49,267.423 2157.49,359.619 2159.48,187.524 2161.47,148.678 2163.47,214.473 2165.46,228.45 2167.45,391.21 2169.45,241.069 2171.44,172.188 2173.43,299.642 2175.43,282.513 2177.42,205.204 2179.41,302.268 2181.41,232.48 2183.4,174.251 2185.39,254.145 2187.38,157.043 2189.38,225.088 2191.37,235.7 2193.36,282.651 2195.36,280.652 2197.35,139.45 2199.34,161.035 2201.34,228.369 2203.33,152.603 2205.32,134.026 2207.32,418.218 2209.31,174.989 2211.3,205.117 2213.3,166.361 2215.29,164.25 2217.28,141.521 2219.27,223.962 2221.27,194.323 2223.26,131.578 2225.25,267.509 2227.25,305.596 2229.24,288.799 2231.23,169.859 2233.23,181.316 2235.22,171.667 2237.21,198.005 2239.21,273.934 2241.2,132.902 2243.19,129.815 2245.19,297.444 2247.18,312.696 2249.17,143.301 2251.17,316.915 2253.16,180.414 2255.15,229.647 2257.14,245.163 2259.14,175.264 2261.13,315.516 2263.12,122.041 2265.12,200.424 2267.11,171.361 2269.1,274.061 2271.1,155.089 2273.09,232.705 2275.08,155.862 2277.08,218.559 2279.07,376.226 2281.06,221.78 2283.06,211.154 2285.05,299.801 2287.04,272.22 2289.04,255.279 2291.03,353.456 2293.02,236.02 "/>
<polyline clip-path="url(#clip762)" style="stroke:#e26f46; stroke-linecap:round; stroke-linejoin:round; stroke-width:4; stroke-opacity:1; fill:none" points="301.869,979.31 303.862,865.397 305.856,879.28 307.849,554.274 309.842,846.721 311.835,1384.24 313.828,937.154 315.821,578.605 317.814,807.115 319.808,711.838 321.801,675.718 323.794,1022.49 325.787,1038.02 327.78,937.413 329.773,824.661 331.766,512.271 333.76,842.376 335.753,792.993 337.746,721.166 339.739,705.374 341.732,1086.35 343.725,816.609 345.718,1104.46 347.712,477.642 349.705,600.727 351.698,765.867 353.691,837.93 355.684,710.758 357.677,821.645 359.67,994.545 361.664,445.39 363.657,1067.59 365.65,301.904 367.643,935.904 369.636,663.09 371.629,803.598 373.622,652.865 375.616,363.554 377.609,738.196 379.602,701.77 381.595,645.393 383.588,727.801 385.581,626.139 387.574,626.762 389.568,680.318 391.561,666.923 393.554,778.924 395.547,545.061 397.54,594.633 399.533,315.316 401.526,805.459 403.52,938.369 405.513,663.893 407.506,319.125 409.499,499.284 411.492,970.03 413.485,753.166 415.479,454.348 417.472,366.138 419.465,339.704 421.458,528.081 423.451,687.088 425.444,437.935 427.437,570.786 429.431,339.996 431.424,647.399 433.417,605.945 435.41,599.835 437.403,615.897 439.396,466.148 441.389,525.81 443.383,409.714 445.376,263.433 447.369,532.48 449.362,630.608 451.355,668.895 453.348,178.006 455.341,344.253 457.335,192.767 459.328,583.474 461.321,612.652 463.314,550.885 465.307,496.21 467.3,548.444 469.293,326.904 471.287,564.728 473.28,394.605 475.273,411.684 477.266,430.855 479.259,505.162 481.252,401.463 483.245,641.353 485.239,453.802 487.232,241.765 489.225,456.341 491.218,309.832 493.211,618.093 495.204,249.139 497.197,438.861 499.191,339.069 501.184,408.48 503.177,210.765 505.17,265.256 507.163,505.768 509.156,554.863 511.149,366.043 513.143,418.062 515.136,443.131 517.129,442.531 519.122,531.62 521.115,293.713 523.108,463.765 525.101,485.463 527.095,457.248 529.088,314.761 531.081,285.268 533.074,377.377 535.067,493.486 537.06,441.652 539.054,407.241 541.047,552.088 543.04,596.85 545.033,367.552 547.026,364.99 549.019,356.538 551.012,425.726 553.006,513.296 554.999,344.965 556.992,295.497 558.985,179.277 560.978,375.923 562.971,481.419 564.964,392.258 566.958,474.011 568.951,377.439 570.944,154.559 572.937,420.964 574.93,361.996 576.923,192.878 578.916,284.692 580.91,409.587 582.903,181.287 584.896,347.833 586.889,402.625 588.882,266.73 590.875,257.507 592.868,319.205 594.862,367.688 596.855,414.302 598.848,251.528 600.841,351.576 602.834,374.396 604.827,433.561 606.82,298.113 608.814,197.804 610.807,332.3 612.8,273.683 614.793,349.321 616.786,294.553 618.779,251.109 620.772,343.415 622.766,269.164 624.759,420.125 626.752,363.817 628.745,468.41 630.738,243.301 632.731,316.118 634.724,378.727 636.718,240.355 638.711,239.628 640.704,215.173 642.697,274.577 644.69,189.115 646.683,384.635 648.677,360.244 650.67,338.261 652.663,296.646 654.656,363.186 656.649,398.426 658.642,306.821 660.635,243.771 662.629,329.035 664.622,314.166 666.615,330.938 668.608,304.518 670.601,375.038 672.594,211.946 674.587,362.322 676.581,279.992 678.574,272.99 680.567,231.648 682.56,223.342 684.553,274.933 686.546,299.367 688.539,276.518 690.533,260.289 692.526,258.792 694.519,315.499 696.512,225.139 698.505,276.241 700.498,257.595 702.491,303.355 704.485,255.619 706.478,274.95 708.471,320.767 710.464,271.634 712.457,318.585 714.45,310.978 716.443,290.636 718.437,319.12 720.43,276.458 722.423,238.855 724.416,259.944 726.409,270.514 728.402,298.211 730.395,256.361 732.389,317.421 734.382,241.788 736.375,267.616 738.368,323.893 740.361,332.466 742.354,235.06 744.347,246.155 746.341,259.662 748.334,267.033 750.327,252.286 752.32,181.762 754.313,254.495 756.306,268.576 758.299,297.008 760.293,209.947 762.286,305.196 764.279,305.2 766.272,249.967 768.265,248.254 770.258,259.801 772.252,229.409 774.245,276.512 776.238,204.424 778.231,276.158 780.224,205.088 782.217,193.735 784.21,230.71 786.204,227.466 788.197,203.046 790.19,279.23 792.183,208.612 794.176,206.266 796.169,251.516 798.162,283.319 800.156,242.061 802.149,260.237 804.142,197.919 806.135,269.02 808.128,215.304 810.121,229.476 812.114,174.906 814.108,246.404 816.101,251.471 818.094,244.575 820.087,252.14 822.08,249.791 824.073,182.852 826.066,232.822 828.06,264.015 830.053,176.883 832.046,264.055 834.039,236.223 836.032,259.922 838.025,226.438 840.018,214.124 842.012,197.395 844.005,280.671 845.998,238.329 847.991,211.858 849.984,277.273 851.977,206.436 853.97,224.716 855.964,268.974 857.957,285.418 859.95,244.548 861.943,247.438 863.936,232.898 865.929,230.757 867.922,247.244 869.916,251.718 871.909,200.141 873.902,235.356 875.895,262.688 877.888,268.933 879.881,215.184 881.874,265.83 883.868,244.406 885.861,212.572 887.854,237.547 889.847,212.621 891.84,235.845 893.833,195.375 895.827,245.517 897.82,211.566 899.813,233.579 901.806,260.129 903.799,245.23 905.792,244.816 907.785,266.25 909.779,211.939 911.772,226.59 913.765,234.535 915.758,242.53 917.751,226.096 919.744,237.539 921.737,241.625 923.731,228.628 925.724,233.915 927.717,222.078 929.71,199.606 931.703,249.34 933.696,247.816 935.689,214.344 937.683,236.545 939.676,220.742 941.669,235.157 943.662,239.903 945.655,224.146 947.648,228.656 949.641,235.624 951.635,202.766 953.628,241.086 955.621,239.982 957.614,232.768 959.607,236.766 961.6,247.571 963.593,206.845 965.587,236.715 967.58,228.887 969.573,233.277 971.566,248.971 973.559,218.434 975.552,217.194 977.545,248.091 979.539,247.726 981.532,218.765 983.525,226.981 985.518,221.56 987.511,241.421 989.504,233.12 991.497,241.01 993.491,224.856 995.484,226.818 997.477,231.014 999.47,238.374 1001.46,229.733 1003.46,238.477 1005.45,224.453 1007.44,231.133 1009.44,240.758 1011.43,241.923 1013.42,229.651 1015.42,230.68 1017.41,218.348 1019.4,220.896 1021.39,218.858 1023.39,233.568 1025.38,224.23 1027.37,230.726 1029.37,239.329 1031.36,230.568 1033.35,233.335 1035.35,231.27 1037.34,230.635 1039.33,232.571 1041.33,258.675 1043.32,247.202 1045.31,236.095 1047.31,226.658 1049.3,231.092 1051.29,227.521 1053.28,238.597 1055.28,239.37 1057.27,234.258 1059.26,236.862 1061.26,224.223 1063.25,239.107 1065.24,240.461 1067.24,228.418 1069.23,248.882 1071.22,224.879 1073.22,227.448 1075.21,221.923 1077.2,248.345 1079.2,223.473 1081.19,235.972 1083.18,224.102 1085.18,226.608 1087.17,235.015 1089.16,234.011 1091.15,225.075 1093.15,236.385 1095.14,242.781 1097.13,239.033 1099.13,240.67 1101.12,232.831 1103.11,225.461 1105.11,239.978 1107.1,233.836 1109.09,234.298 1111.09,226.811 1113.08,230.275 1115.07,226.064 1117.07,236.133 1119.06,234.226 1121.05,227.923 1123.05,233.522 1125.04,223.971 1127.03,233.847 1129.02,230.273 1131.02,235.781 1133.01,231.48 1135,238.672 1137,228.549 1138.99,236.434 1140.98,229.86 1142.98,234.891 1144.97,224.303 1146.96,227.648 1148.96,235.717 1150.95,233.776 1152.94,234.657 1154.94,237.395 1156.93,224.89 1158.92,232.101 1160.91,233.156 1162.91,227.881 1164.9,231.499 1166.89,231.901 1168.89,231.996 1170.88,230.748 1172.87,227.202 1174.87,230.758 1176.86,234.026 1178.85,238.171 1180.85,229.542 1182.84,225.276 1184.83,235.258 1186.83,234.123 1188.82,236.82 1190.81,228.272 1192.81,232.81 1194.8,234.239 1196.79,233.339 1198.78,226.317 1200.78,228.239 1202.77,228.269 1204.76,232.953 1206.76,232.821 1208.75,230.764 1210.74,232.213 1212.74,230.958 1214.73,228.998 1216.72,228.133 1218.72,230.423 1220.71,233.622 1222.7,231.269 1224.7,235.421 1226.69,232.946 1228.68,234.422 1230.67,233.224 1232.67,232.244 1234.66,232.999 1236.65,229.228 1238.65,227.91 1240.64,232.579 1242.63,234.342 1244.63,233.014 1246.62,228.209 1248.61,229.418 1250.61,232.671 1252.6,232.448 1254.59,230.969 1256.59,231.753 1258.58,235.368 1260.57,233.134 1262.57,232.715 1264.56,231.817 1266.55,230.887 1268.54,234.197 1270.54,231.539 1272.53,236.523 1274.52,231.557 1276.52,231.007 1278.51,232.565 1280.5,231.522 1282.5,233.731 1284.49,230.334 1286.48,233.853 1288.48,232.811 1290.47,232.163 1292.46,232.314 1294.46,231.466 1296.45,230.897 1298.44,233.157 1300.44,234.808 1302.43,231.871 1304.42,232.225 1306.41,232.207 1308.41,233.034 1310.4,231.186 1312.39,231.786 1314.39,230.242 1316.38,231.522 1318.37,233.848 1320.37,233.593 1322.36,232.363 1324.35,231.92 1326.35,231.213 1328.34,232.544 1330.33,231.645 1332.33,232.52 1334.32,231.853 1336.31,232.419 1338.3,234.918 1340.3,232.355 1342.29,232.705 1344.28,232.845 1346.28,232.635 1348.27,230.633 1350.26,231.801 1352.26,231.383 1354.25,232.745 1356.24,232.335 1358.24,231.267 1360.23,233.309 1362.22,231.55 1364.22,233.038 1366.21,231.682 1368.2,232.715 1370.2,231.262 1372.19,232.437 1374.18,233.206 1376.17,232.599 1378.17,232.277 1380.16,232.168 1382.15,232.727 1384.15,233.534 1386.14,232.188 1388.13,232.509 1390.13,232.843 1392.12,232.354 1394.11,231.757 1396.11,232.783 1398.1,232.411 1400.09,232.291 1402.09,232.506 1404.08,232.651 1406.07,232.944 1408.06,232.95 1410.06,232.519 1412.05,231.515 1414.04,232.221 1416.04,232.988 1418.03,232.7 1420.02,232.78 1422.02,232.485 1424.01,232.141 1426,232.288 1428,231.936 1429.99,232.62 1431.98,232.971 1433.98,232.917 1435.97,232.513 1437.96,232.695 1439.96,232.364 1441.95,232.655 1443.94,231.699 1445.93,232.282 1447.93,232.539 1449.92,232.512 1451.91,232.554 1453.91,232.7 1455.9,232.379 1457.89,232.826 1459.89,232.766 1461.88,232.865 1463.87,232.566 1465.87,232.921 1467.86,232.39 1469.85,232.136 1471.85,232.103 1473.84,232.492 1475.83,232.341 1477.82,232.43 1479.82,232.363 1481.81,232.404 1483.8,232.84 1485.8,232.617 1487.79,232.074 1489.78,232.203 1491.78,232.705 1493.77,232.163 1495.76,232.405 1497.76,232.475 1499.75,232.638 1501.74,232.46 1503.74,232.251 1505.73,232.668 1507.72,232.297 1509.72,232.379 1511.71,232.714 1513.7,232.333 1515.69,232.75 1517.69,232.571 1519.68,232.47 1521.67,232.6 1523.67,232.45 1525.66,232.23 1527.65,232.526 1529.65,232.496 1531.64,232.483 1533.63,232.466 1535.63,232.547 1537.62,232.202 1539.61,232.722 1541.61,232.425 1543.6,232.548 1545.59,232.671 1547.59,232.391 1549.58,232.358 1551.57,232.439 1553.56,232.401 1555.56,232.281 1557.55,232.397 1559.54,232.54 1561.54,232.411 1563.53,232.352 1565.52,232.42 1567.52,232.472 1569.51,232.434 1571.5,232.493 1573.5,232.463 1575.49,232.412 1577.48,232.454 1579.48,232.488 1581.47,232.382 1583.46,232.494 1585.45,232.272 1587.45,232.396 1589.44,232.479 1591.43,232.447 1593.43,232.359 1595.42,232.396 1597.41,232.48 1599.41,232.488 1601.4,232.41 1603.39,232.457 1605.39,232.556 1607.38,232.565 1609.37,232.421 1611.37,232.42 1613.36,232.367 1615.35,232.527 1617.35,232.351 1619.34,232.326 1621.33,232.395 1623.32,232.341 1625.32,232.445 1627.31,232.425 1629.3,232.524 1631.3,232.423 1633.29,232.43 1635.28,232.494 1637.28,232.513 1639.27,232.447 1641.26,232.462 1643.26,232.453 1645.25,232.409 1647.24,232.542 1649.24,232.493 1651.23,232.39 1653.22,232.525 1655.21,232.511 1657.21,232.511 1659.2,232.433 1661.19,232.437 1663.19,232.475 1665.18,232.417 1667.17,232.449 1669.17,232.347 1671.16,232.443 1673.15,232.428 1675.15,232.407 1677.14,232.444 1679.13,232.467 1681.13,232.443 1683.12,232.408 1685.11,232.396 1687.11,232.444 1689.1,232.43 1691.09,232.421 1693.08,232.458 1695.08,232.442 1697.07,232.448 1699.06,232.483 1701.06,232.471 1703.05,232.437 1705.04,232.449 1707.04,232.462 1709.03,232.416 1711.02,232.435 1713.02,232.426 1715.01,232.433 1717,232.446 1719,232.441 1720.99,232.477 1722.98,232.435 1724.97,232.453 1726.97,232.432 1728.96,232.457 1730.95,232.453 1732.95,232.439 1734.94,232.442 1736.93,232.455 1738.93,232.429 1740.92,232.458 1742.91,232.447 1744.91,232.46 1746.9,232.443 1748.89,232.463 1750.89,232.45 1752.88,232.464 1754.87,232.423 1756.87,232.426 1758.86,232.446 1760.85,232.449 1762.84,232.448 1764.84,232.446 1766.83,232.445 1768.82,232.449 1770.82,232.443 1772.81,232.444 1774.8,232.448 1776.8,232.455 1778.79,232.446 1780.78,232.412 1782.78,232.437 1784.77,232.455 1786.76,232.442 1788.76,232.45 1790.75,232.461 1792.74,232.467 1794.74,232.458 1796.73,232.449 1798.72,232.441 1800.71,232.46 1802.71,232.444 1804.7,232.441 1806.69,232.435 1808.69,232.456 1810.68,232.437 1812.67,232.446 1814.67,232.447 1816.66,232.46 1818.65,232.458 1820.65,232.437 1822.64,232.449 1824.63,232.444 1826.63,232.439 1828.62,232.456 1830.61,232.443 1832.6,232.448 1834.6,232.454 1836.59,232.456 1838.58,232.448 1840.58,232.453 1842.57,232.451 1844.56,232.455 1846.56,232.45 1848.55,232.444 1850.54,232.447 1852.54,232.447 1854.53,232.449 1856.52,232.451 1858.52,232.45 1860.51,232.449 1862.5,232.457 1864.5,232.453 1866.49,232.448 1868.48,232.442 1870.47,232.449 1872.47,232.45 1874.46,232.452 1876.45,232.45 1878.45,232.449 1880.44,232.45 1882.43,232.445 1884.43,232.445 1886.42,232.449 1888.41,232.45 1890.41,232.45 1892.4,232.446 1894.39,232.45 1896.39,232.452 1898.38,232.452 1900.37,232.45 1902.36,232.45 1904.36,232.45 1906.35,232.448 1908.34,232.449 1910.34,232.45 1912.33,232.445 1914.32,232.452 1916.32,232.451 1918.31,232.45 1920.3,232.448 1922.3,232.451 1924.29,232.449 1926.28,232.455 1928.28,232.446 1930.27,232.447 1932.26,232.448 1934.26,232.45 1936.25,232.451 1938.24,232.448 1940.23,232.452 1942.23,232.451 1944.22,232.45 1946.21,232.452 1948.21,232.448 1950.2,232.449 1952.19,232.45 1954.19,232.45 1956.18,232.449 1958.17,232.448 1960.17,232.447 1962.16,232.448 1964.15,232.449 1966.15,232.449 1968.14,232.447 1970.13,232.449 1972.12,232.451 1974.12,232.448 1976.11,232.45 1978.1,232.449 1980.1,232.449 1982.09,232.45 1984.08,232.45 1986.08,232.449 1988.07,232.449 1990.06,232.448 1992.06,232.449 1994.05,232.448 1996.04,232.448 1998.04,232.45 2000.03,232.446 2002.02,232.449 2004.02,232.449 2006.01,232.449 2008,232.449 2009.99,232.449 2011.99,232.449 2013.98,232.449 2015.97,232.449 2017.97,232.449 2019.96,232.449 2021.95,232.45 2023.95,232.449 2025.94,232.449 2027.93,232.449 2029.93,232.449 2031.92,232.449 2033.91,232.449 2035.91,232.449 2037.9,232.45 2039.89,232.45 2041.89,232.449 2043.88,232.448 2045.87,232.448 2047.86,232.449 2049.86,232.449 2051.85,232.449 2053.84,232.449 2055.84,232.449 2057.83,232.449 2059.82,232.449 2061.82,232.449 2063.81,232.449 2065.8,232.449 2067.8,232.449 2069.79,232.449 2071.78,232.449 2073.78,232.449 2075.77,232.449 2077.76,232.448 2079.75,232.449 2081.75,232.449 2083.74,232.449 2085.73,232.449 2087.73,232.45 2089.72,232.449 2091.71,232.449 2093.71,232.449 2095.7,232.448 2097.69,232.449 2099.69,232.449 2101.68,232.449 2103.67,232.449 2105.67,232.449 2107.66,232.449 2109.65,232.449 2111.65,232.449 2113.64,232.449 2115.63,232.449 2117.62,232.449 2119.62,232.449 2121.61,232.449 2123.6,232.449 2125.6,232.449 2127.59,232.449 2129.58,232.449 2131.58,232.449 2133.57,232.449 2135.56,232.449 2137.56,232.449 2139.55,232.449 2141.54,232.449 2143.54,232.449 2145.53,232.449 2147.52,232.449 2149.51,232.449 2151.51,232.449 2153.5,232.449 2155.49,232.449 2157.49,232.449 2159.48,232.449 2161.47,232.449 2163.47,232.449 2165.46,232.449 2167.45,232.449 2169.45,232.449 2171.44,232.449 2173.43,232.449 2175.43,232.449 2177.42,232.449 2179.41,232.449 2181.41,232.449 2183.4,232.449 2185.39,232.449 2187.38,232.449 2189.38,232.449 2191.37,232.449 2193.36,232.449 2195.36,232.449 2197.35,232.449 2199.34,232.449 2201.34,232.449 2203.33,232.449 2205.32,232.449 2207.32,232.449 2209.31,232.449 2211.3,232.449 2213.3,232.449 2215.29,232.449 2217.28,232.449 2219.27,232.449 2221.27,232.449 2223.26,232.449 2225.25,232.449 2227.25,232.449 2229.24,232.449 2231.23,232.449 2233.23,232.449 2235.22,232.449 2237.21,232.449 2239.21,232.449 2241.2,232.449 2243.19,232.449 2245.19,232.449 2247.18,232.449 2249.17,232.449 2251.17,232.449 2253.16,232.449 2255.15,232.449 2257.14,232.449 2259.14,232.449 2261.13,232.449 2263.12,232.449 2265.12,232.449 2267.11,232.449 2269.1,232.449 2271.1,232.449 2273.09,232.449 2275.08,232.449 2277.08,232.449 2279.07,232.449 2281.06,232.449 2283.06,232.449 2285.05,232.449 2287.04,232.449 2289.04,232.449 2291.03,232.449 2293.02,232.449 "/>
<path clip-path="url(#clip760)" d="M1863.63 1377.32 L2282.4 1377.32 L2282.4 1221.8 L1863.63 1221.8  Z" fill="#ffffff" fill-rule="evenodd" fill-opacity="1"/>
<polyline clip-path="url(#clip760)" style="stroke:#000000; stroke-linecap:round; stroke-linejoin:round; stroke-width:4; stroke-opacity:1; fill:none" points="1863.63,1377.32 2282.4,1377.32 2282.4,1221.8 1863.63,1221.8 1863.63,1377.32 "/>
<polyline clip-path="url(#clip760)" style="stroke:#009af9; stroke-linecap:round; stroke-linejoin:round; stroke-width:4; stroke-opacity:1; fill:none" points="1887.08,1273.64 2027.79,1273.64 "/>
<path clip-path="url(#clip760)" d="M2055.92 1274.41 L2055.92 1287.07 L2063.42 1287.07 Q2067.19 1287.07 2069 1285.52 Q2070.83 1283.95 2070.83 1280.73 Q2070.83 1277.49 2069 1275.96 Q2067.19 1274.41 2063.42 1274.41 L2055.92 1274.41 M2055.92 1260.2 L2055.92 1270.61 L2062.84 1270.61 Q2066.27 1270.61 2067.93 1269.34 Q2069.62 1268.05 2069.62 1265.41 Q2069.62 1262.79 2067.93 1261.49 Q2066.27 1260.2 2062.84 1260.2 L2055.92 1260.2 M2051.24 1256.36 L2063.19 1256.36 Q2068.53 1256.36 2071.43 1258.58 Q2074.32 1260.8 2074.32 1264.9 Q2074.32 1268.07 2072.84 1269.94 Q2071.36 1271.82 2068.49 1272.28 Q2071.94 1273.02 2073.84 1275.38 Q2075.76 1277.72 2075.76 1281.24 Q2075.76 1285.87 2072.61 1288.39 Q2069.46 1290.92 2063.65 1290.92 L2051.24 1290.92 L2051.24 1256.36 Z" fill="#000000" fill-rule="nonzero" fill-opacity="1" /><path clip-path="url(#clip760)" d="M2088.44 1274.41 L2088.44 1287.07 L2095.94 1287.07 Q2099.72 1287.07 2101.52 1285.52 Q2103.35 1283.95 2103.35 1280.73 Q2103.35 1277.49 2101.52 1275.96 Q2099.72 1274.41 2095.94 1274.41 L2088.44 1274.41 M2088.44 1260.2 L2088.44 1270.61 L2095.36 1270.61 Q2098.79 1270.61 2100.46 1269.34 Q2102.15 1268.05 2102.15 1265.41 Q2102.15 1262.79 2100.46 1261.49 Q2098.79 1260.2 2095.36 1260.2 L2088.44 1260.2 M2083.77 1256.36 L2095.71 1256.36 Q2101.06 1256.36 2103.95 1258.58 Q2106.84 1260.8 2106.84 1264.9 Q2106.84 1268.07 2105.36 1269.94 Q2103.88 1271.82 2101.01 1272.28 Q2104.46 1273.02 2106.36 1275.38 Q2108.28 1277.72 2108.28 1281.24 Q2108.28 1285.87 2105.13 1288.39 Q2101.98 1290.92 2096.17 1290.92 L2083.77 1290.92 L2083.77 1256.36 Z" fill="#000000" fill-rule="nonzero" fill-opacity="1" /><path clip-path="url(#clip760)" d="M2123.74 1290.92 L2110.55 1256.36 L2115.43 1256.36 L2126.38 1285.45 L2137.35 1256.36 L2142.22 1256.36 L2129.04 1290.92 L2123.74 1290.92 Z" fill="#000000" fill-rule="nonzero" fill-opacity="1" /><path clip-path="url(#clip760)" d="M2147.26 1256.36 L2151.94 1256.36 L2151.94 1290.92 L2147.26 1290.92 L2147.26 1256.36 Z" fill="#000000" fill-rule="nonzero" fill-opacity="1" /><path clip-path="url(#clip760)" d="M2202.19 1259.02 L2202.19 1263.95 Q2199.83 1261.75 2197.15 1260.66 Q2194.48 1259.57 2191.47 1259.57 Q2185.55 1259.57 2182.4 1263.21 Q2179.25 1266.82 2179.25 1273.67 Q2179.25 1280.5 2182.4 1284.13 Q2185.55 1287.74 2191.47 1287.74 Q2194.48 1287.74 2197.15 1286.66 Q2199.83 1285.57 2202.19 1283.37 L2202.19 1288.25 Q2199.74 1289.92 2196.98 1290.75 Q2194.25 1291.59 2191.2 1291.59 Q2183.35 1291.59 2178.84 1286.79 Q2174.32 1281.98 2174.32 1273.67 Q2174.32 1265.34 2178.84 1260.55 Q2183.35 1255.73 2191.2 1255.73 Q2194.3 1255.73 2197.03 1256.56 Q2199.78 1257.37 2202.19 1259.02 Z" fill="#000000" fill-rule="nonzero" fill-opacity="1" /><path clip-path="url(#clip760)" d="M2209.41 1256.36 L2229.27 1256.36 L2229.27 1260.29 L2214.09 1260.29 L2214.09 1270.48 L2227.79 1270.48 L2227.79 1274.41 L2214.09 1274.41 L2214.09 1290.92 L2209.41 1290.92 L2209.41 1256.36 Z" fill="#000000" fill-rule="nonzero" fill-opacity="1" /><path clip-path="url(#clip760)" d="M2236.68 1256.36 L2258.53 1256.36 L2258.53 1260.29 L2241.36 1260.29 L2241.36 1270.52 L2257.82 1270.52 L2257.82 1274.46 L2241.36 1274.46 L2241.36 1286.98 L2258.95 1286.98 L2258.95 1290.92 L2236.68 1290.92 L2236.68 1256.36 Z" fill="#000000" fill-rule="nonzero" fill-opacity="1" /><polyline clip-path="url(#clip760)" style="stroke:#e26f46; stroke-linecap:round; stroke-linejoin:round; stroke-width:4; stroke-opacity:1; fill:none" points="1887.08,1325.48 2027.79,1325.48 "/>
<path clip-path="url(#clip760)" d="M2055.92 1326.25 L2055.92 1338.91 L2063.42 1338.91 Q2067.19 1338.91 2069 1337.36 Q2070.83 1335.79 2070.83 1332.57 Q2070.83 1329.33 2069 1327.8 Q2067.19 1326.25 2063.42 1326.25 L2055.92 1326.25 M2055.92 1312.04 L2055.92 1322.45 L2062.84 1322.45 Q2066.27 1322.45 2067.93 1321.18 Q2069.62 1319.89 2069.62 1317.25 Q2069.62 1314.63 2067.93 1313.33 Q2066.27 1312.04 2062.84 1312.04 L2055.92 1312.04 M2051.24 1308.2 L2063.19 1308.2 Q2068.53 1308.2 2071.43 1310.42 Q2074.32 1312.64 2074.32 1316.74 Q2074.32 1319.91 2072.84 1321.78 Q2071.36 1323.66 2068.49 1324.12 Q2071.94 1324.86 2073.84 1327.22 Q2075.76 1329.56 2075.76 1333.08 Q2075.76 1337.71 2072.61 1340.23 Q2069.46 1342.76 2063.65 1342.76 L2051.24 1342.76 L2051.24 1308.2 Z" fill="#000000" fill-rule="nonzero" fill-opacity="1" /><path clip-path="url(#clip760)" d="M2088.44 1326.25 L2088.44 1338.91 L2095.94 1338.91 Q2099.72 1338.91 2101.52 1337.36 Q2103.35 1335.79 2103.35 1332.57 Q2103.35 1329.33 2101.52 1327.8 Q2099.72 1326.25 2095.94 1326.25 L2088.44 1326.25 M2088.44 1312.04 L2088.44 1322.45 L2095.36 1322.45 Q2098.79 1322.45 2100.46 1321.18 Q2102.15 1319.89 2102.15 1317.25 Q2102.15 1314.63 2100.46 1313.33 Q2098.79 1312.04 2095.36 1312.04 L2088.44 1312.04 M2083.77 1308.2 L2095.71 1308.2 Q2101.06 1308.2 2103.95 1310.42 Q2106.84 1312.64 2106.84 1316.74 Q2106.84 1319.91 2105.36 1321.78 Q2103.88 1323.66 2101.01 1324.12 Q2104.46 1324.86 2106.36 1327.22 Q2108.28 1329.56 2108.28 1333.08 Q2108.28 1337.71 2105.13 1340.23 Q2101.98 1342.76 2096.17 1342.76 L2083.77 1342.76 L2083.77 1308.2 Z" fill="#000000" fill-rule="nonzero" fill-opacity="1" /><path clip-path="url(#clip760)" d="M2123.74 1342.76 L2110.55 1308.2 L2115.43 1308.2 L2126.38 1337.29 L2137.35 1308.2 L2142.22 1308.2 L2129.04 1342.76 L2123.74 1342.76 Z" fill="#000000" fill-rule="nonzero" fill-opacity="1" /><path clip-path="url(#clip760)" d="M2147.26 1308.2 L2151.94 1308.2 L2151.94 1342.76 L2147.26 1342.76 L2147.26 1308.2 Z" fill="#000000" fill-rule="nonzero" fill-opacity="1" /><path clip-path="url(#clip760)" d="M2197.03 1309.33 L2197.03 1313.89 Q2194.37 1312.62 2192.01 1311.99 Q2189.65 1311.37 2187.45 1311.37 Q2183.63 1311.37 2181.54 1312.85 Q2179.48 1314.33 2179.48 1317.06 Q2179.48 1319.35 2180.85 1320.53 Q2182.24 1321.69 2186.08 1322.41 L2188.9 1322.99 Q2194.14 1323.98 2196.61 1326.51 Q2199.11 1329.01 2199.11 1333.22 Q2199.11 1338.24 2195.73 1340.83 Q2192.38 1343.43 2185.87 1343.43 Q2183.42 1343.43 2180.64 1342.87 Q2177.89 1342.32 2174.92 1341.23 L2174.92 1336.41 Q2177.77 1338.01 2180.5 1338.82 Q2183.23 1339.63 2185.87 1339.63 Q2189.88 1339.63 2192.05 1338.06 Q2194.23 1336.48 2194.23 1333.57 Q2194.23 1331.02 2192.65 1329.58 Q2191.1 1328.15 2187.54 1327.43 L2184.69 1326.88 Q2179.46 1325.83 2177.12 1323.61 Q2174.78 1321.39 2174.78 1317.43 Q2174.78 1312.85 2178 1310.21 Q2181.24 1307.57 2186.91 1307.57 Q2189.34 1307.57 2191.87 1308.01 Q2194.39 1308.45 2197.03 1309.33 Z" fill="#000000" fill-rule="nonzero" fill-opacity="1" /><path clip-path="url(#clip760)" d="M2201.61 1308.2 L2230.85 1308.2 L2230.85 1312.13 L2218.58 1312.13 L2218.58 1342.76 L2213.88 1342.76 L2213.88 1312.13 L2201.61 1312.13 L2201.61 1308.2 Z" fill="#000000" fill-rule="nonzero" fill-opacity="1" /><path clip-path="url(#clip760)" d="M2235.36 1308.2 L2240.04 1308.2 L2240.04 1338.82 L2256.87 1338.82 L2256.87 1342.76 L2235.36 1342.76 L2235.36 1308.2 Z" fill="#000000" fill-rule="nonzero" fill-opacity="1" /></svg>
