<?xml version="1.0" encoding="utf-8"?>
<svg xmlns="http://www.w3.org/2000/svg" xmlns:xlink="http://www.w3.org/1999/xlink" width="600" height="400" viewBox="0 0 2400 1600">
<defs>
  <clipPath id="clip990">
    <rect x="0" y="0" width="2400" height="1600"/>
  </clipPath>
</defs>
<path clip-path="url(#clip990)" d="M0 1600 L2400 1600 L2400 0 L0 0  Z" fill="#ffffff" fill-rule="evenodd" fill-opacity="1"/>
<defs>
  <clipPath id="clip991">
    <rect x="242" y="47" width="2112" height="1377"/>
  </clipPath>
</defs>
<path clip-path="url(#clip990)" d="M251.372 1423.18 L2352.76 1423.18 L2352.76 47.2441 L251.372 47.2441  Z" fill="#ffffff" fill-rule="evenodd" fill-opacity="1"/>
<defs>
  <clipPath id="clip992">
    <rect x="251" y="47" width="2102" height="1377"/>
  </clipPath>
</defs>
<polyline clip-path="url(#clip992)" style="stroke:#000000; stroke-linecap:round; stroke-linejoin:round; stroke-width:2; stroke-opacity:0.1; fill:none" points="308.861,1423.18 308.861,47.2441 "/>
<polyline clip-path="url(#clip992)" style="stroke:#000000; stroke-linecap:round; stroke-linejoin:round; stroke-width:2; stroke-opacity:0.1; fill:none" points="804.966,1423.18 804.966,47.2441 "/>
<polyline clip-path="url(#clip992)" style="stroke:#000000; stroke-linecap:round; stroke-linejoin:round; stroke-width:2; stroke-opacity:0.1; fill:none" points="1301.07,1423.18 1301.07,47.2441 "/>
<polyline clip-path="url(#clip992)" style="stroke:#000000; stroke-linecap:round; stroke-linejoin:round; stroke-width:2; stroke-opacity:0.1; fill:none" points="1797.18,1423.18 1797.18,47.2441 "/>
<polyline clip-path="url(#clip992)" style="stroke:#000000; stroke-linecap:round; stroke-linejoin:round; stroke-width:2; stroke-opacity:0.1; fill:none" points="2293.28,1423.18 2293.28,47.2441 "/>
<polyline clip-path="url(#clip992)" style="stroke:#000000; stroke-linecap:round; stroke-linejoin:round; stroke-width:2; stroke-opacity:0.1; fill:none" points="251.372,1132.29 2352.76,1132.29 "/>
<polyline clip-path="url(#clip992)" style="stroke:#000000; stroke-linecap:round; stroke-linejoin:round; stroke-width:2; stroke-opacity:0.1; fill:none" points="251.372,550.893 2352.76,550.893 "/>
<polyline clip-path="url(#clip990)" style="stroke:#000000; stroke-linecap:round; stroke-linejoin:round; stroke-width:4; stroke-opacity:1; fill:none" points="251.372,1423.18 2352.76,1423.18 "/>
<polyline clip-path="url(#clip990)" style="stroke:#000000; stroke-linecap:round; stroke-linejoin:round; stroke-width:4; stroke-opacity:1; fill:none" points="308.861,1423.18 308.861,1404.28 "/>
<polyline clip-path="url(#clip990)" style="stroke:#000000; stroke-linecap:round; stroke-linejoin:round; stroke-width:4; stroke-opacity:1; fill:none" points="804.966,1423.18 804.966,1404.28 "/>
<polyline clip-path="url(#clip990)" style="stroke:#000000; stroke-linecap:round; stroke-linejoin:round; stroke-width:4; stroke-opacity:1; fill:none" points="1301.07,1423.18 1301.07,1404.28 "/>
<polyline clip-path="url(#clip990)" style="stroke:#000000; stroke-linecap:round; stroke-linejoin:round; stroke-width:4; stroke-opacity:1; fill:none" points="1797.18,1423.18 1797.18,1404.28 "/>
<polyline clip-path="url(#clip990)" style="stroke:#000000; stroke-linecap:round; stroke-linejoin:round; stroke-width:4; stroke-opacity:1; fill:none" points="2293.28,1423.18 2293.28,1404.28 "/>
<path clip-path="url(#clip990)" d="M308.861 1454.1 Q305.25 1454.1 303.421 1457.66 Q301.616 1461.2 301.616 1468.33 Q301.616 1475.44 303.421 1479.01 Q305.25 1482.55 308.861 1482.55 Q312.495 1482.55 314.301 1479.01 Q316.129 1475.44 316.129 1468.33 Q316.129 1461.2 314.301 1457.66 Q312.495 1454.1 308.861 1454.1 M308.861 1450.39 Q314.671 1450.39 317.727 1455 Q320.805 1459.58 320.805 1468.33 Q320.805 1477.06 317.727 1481.67 Q314.671 1486.25 308.861 1486.25 Q303.051 1486.25 299.972 1481.67 Q296.916 1477.06 296.916 1468.33 Q296.916 1459.58 299.972 1455 Q303.051 1450.39 308.861 1450.39 Z" fill="#000000" fill-rule="nonzero" fill-opacity="1" /><path clip-path="url(#clip990)" d="M768.659 1481.64 L784.978 1481.64 L784.978 1485.58 L763.034 1485.58 L763.034 1481.64 Q765.696 1478.89 770.279 1474.26 Q774.885 1469.61 776.066 1468.27 Q778.311 1465.74 779.191 1464.01 Q780.094 1462.25 780.094 1460.56 Q780.094 1457.8 778.149 1456.07 Q776.228 1454.33 773.126 1454.33 Q770.927 1454.33 768.473 1455.09 Q766.043 1455.86 763.265 1457.41 L763.265 1452.69 Q766.089 1451.55 768.543 1450.97 Q770.997 1450.39 773.034 1450.39 Q778.404 1450.39 781.598 1453.08 Q784.793 1455.77 784.793 1460.26 Q784.793 1462.39 783.983 1464.31 Q783.196 1466.2 781.089 1468.8 Q780.51 1469.47 777.409 1472.69 Q774.307 1475.88 768.659 1481.64 Z" fill="#000000" fill-rule="nonzero" fill-opacity="1" /><path clip-path="url(#clip990)" d="M794.839 1451.02 L813.195 1451.02 L813.195 1454.96 L799.121 1454.96 L799.121 1463.43 Q800.14 1463.08 801.159 1462.92 Q802.177 1462.73 803.196 1462.73 Q808.983 1462.73 812.362 1465.9 Q815.742 1469.08 815.742 1474.49 Q815.742 1480.07 812.27 1483.17 Q808.797 1486.25 802.478 1486.25 Q800.302 1486.25 798.034 1485.88 Q795.788 1485.51 793.381 1484.77 L793.381 1480.07 Q795.464 1481.2 797.686 1481.76 Q799.909 1482.32 802.385 1482.32 Q806.39 1482.32 808.728 1480.21 Q811.066 1478.1 811.066 1474.49 Q811.066 1470.88 808.728 1468.77 Q806.39 1466.67 802.385 1466.67 Q800.51 1466.67 798.635 1467.08 Q796.784 1467.5 794.839 1468.38 L794.839 1451.02 Z" fill="#000000" fill-rule="nonzero" fill-opacity="1" /><path clip-path="url(#clip990)" d="M834.955 1454.1 Q831.344 1454.1 829.515 1457.66 Q827.709 1461.2 827.709 1468.33 Q827.709 1475.44 829.515 1479.01 Q831.344 1482.55 834.955 1482.55 Q838.589 1482.55 840.394 1479.01 Q842.223 1475.44 842.223 1468.33 Q842.223 1461.2 840.394 1457.66 Q838.589 1454.1 834.955 1454.1 M834.955 1450.39 Q840.765 1450.39 843.82 1455 Q846.899 1459.58 846.899 1468.33 Q846.899 1477.06 843.82 1481.67 Q840.765 1486.25 834.955 1486.25 Q829.144 1486.25 826.066 1481.67 Q823.01 1477.06 823.01 1468.33 Q823.01 1459.58 826.066 1455 Q829.144 1450.39 834.955 1450.39 Z" fill="#000000" fill-rule="nonzero" fill-opacity="1" /><path clip-path="url(#clip990)" d="M1260.69 1451.02 L1279.05 1451.02 L1279.05 1454.96 L1264.97 1454.96 L1264.97 1463.43 Q1265.99 1463.08 1267.01 1462.92 Q1268.03 1462.73 1269.05 1462.73 Q1274.83 1462.73 1278.21 1465.9 Q1281.59 1469.08 1281.59 1474.49 Q1281.59 1480.07 1278.12 1483.17 Q1274.65 1486.25 1268.33 1486.25 Q1266.15 1486.25 1263.88 1485.88 Q1261.64 1485.51 1259.23 1484.77 L1259.23 1480.07 Q1261.32 1481.2 1263.54 1481.76 Q1265.76 1482.32 1268.24 1482.32 Q1272.24 1482.32 1274.58 1480.21 Q1276.92 1478.1 1276.92 1474.49 Q1276.92 1470.88 1274.58 1468.77 Q1272.24 1466.67 1268.24 1466.67 Q1266.36 1466.67 1264.49 1467.08 Q1262.63 1467.5 1260.69 1468.38 L1260.69 1451.02 Z" fill="#000000" fill-rule="nonzero" fill-opacity="1" /><path clip-path="url(#clip990)" d="M1300.81 1454.1 Q1297.19 1454.1 1295.37 1457.66 Q1293.56 1461.2 1293.56 1468.33 Q1293.56 1475.44 1295.37 1479.01 Q1297.19 1482.55 1300.81 1482.55 Q1304.44 1482.55 1306.25 1479.01 Q1308.07 1475.44 1308.07 1468.33 Q1308.07 1461.2 1306.25 1457.66 Q1304.44 1454.1 1300.81 1454.1 M1300.81 1450.39 Q1306.62 1450.39 1309.67 1455 Q1312.75 1459.58 1312.75 1468.33 Q1312.75 1477.06 1309.67 1481.67 Q1306.62 1486.25 1300.81 1486.25 Q1295 1486.25 1291.92 1481.67 Q1288.86 1477.06 1288.86 1468.33 Q1288.86 1459.58 1291.92 1455 Q1295 1450.39 1300.81 1450.39 Z" fill="#000000" fill-rule="nonzero" fill-opacity="1" /><path clip-path="url(#clip990)" d="M1330.97 1454.1 Q1327.36 1454.1 1325.53 1457.66 Q1323.72 1461.2 1323.72 1468.33 Q1323.72 1475.44 1325.53 1479.01 Q1327.36 1482.55 1330.97 1482.55 Q1334.6 1482.55 1336.41 1479.01 Q1338.24 1475.44 1338.24 1468.33 Q1338.24 1461.2 1336.41 1457.66 Q1334.6 1454.1 1330.97 1454.1 M1330.97 1450.39 Q1336.78 1450.39 1339.83 1455 Q1342.91 1459.58 1342.91 1468.33 Q1342.91 1477.06 1339.83 1481.67 Q1336.78 1486.25 1330.97 1486.25 Q1325.16 1486.25 1322.08 1481.67 Q1319.02 1477.06 1319.02 1468.33 Q1319.02 1459.58 1322.08 1455 Q1325.16 1450.39 1330.97 1450.39 Z" fill="#000000" fill-rule="nonzero" fill-opacity="1" /><path clip-path="url(#clip990)" d="M1755.45 1451.02 L1777.68 1451.02 L1777.68 1453.01 L1765.13 1485.58 L1760.24 1485.58 L1772.05 1454.96 L1755.45 1454.96 L1755.45 1451.02 Z" fill="#000000" fill-rule="nonzero" fill-opacity="1" /><path clip-path="url(#clip990)" d="M1786.84 1451.02 L1805.2 1451.02 L1805.2 1454.96 L1791.12 1454.96 L1791.12 1463.43 Q1792.14 1463.08 1793.16 1462.92 Q1794.18 1462.73 1795.2 1462.73 Q1800.99 1462.73 1804.36 1465.9 Q1807.74 1469.08 1807.74 1474.49 Q1807.74 1480.07 1804.27 1483.17 Q1800.8 1486.25 1794.48 1486.25 Q1792.3 1486.25 1790.04 1485.88 Q1787.79 1485.51 1785.38 1484.77 L1785.38 1480.07 Q1787.47 1481.2 1789.69 1481.76 Q1791.91 1482.32 1794.39 1482.32 Q1798.39 1482.32 1800.73 1480.21 Q1803.07 1478.1 1803.07 1474.49 Q1803.07 1470.88 1800.73 1468.77 Q1798.39 1466.67 1794.39 1466.67 Q1792.51 1466.67 1790.64 1467.08 Q1788.79 1467.5 1786.84 1468.38 L1786.84 1451.02 Z" fill="#000000" fill-rule="nonzero" fill-opacity="1" /><path clip-path="url(#clip990)" d="M1826.96 1454.1 Q1823.35 1454.1 1821.52 1457.66 Q1819.71 1461.2 1819.71 1468.33 Q1819.71 1475.44 1821.52 1479.01 Q1823.35 1482.55 1826.96 1482.55 Q1830.59 1482.55 1832.4 1479.01 Q1834.23 1475.44 1834.23 1468.33 Q1834.23 1461.2 1832.4 1457.66 Q1830.59 1454.1 1826.96 1454.1 M1826.96 1450.39 Q1832.77 1450.39 1835.82 1455 Q1838.9 1459.58 1838.9 1468.33 Q1838.9 1477.06 1835.82 1481.67 Q1832.77 1486.25 1826.96 1486.25 Q1821.15 1486.25 1818.07 1481.67 Q1815.01 1477.06 1815.01 1468.33 Q1815.01 1459.58 1818.07 1455 Q1821.15 1450.39 1826.96 1450.39 Z" fill="#000000" fill-rule="nonzero" fill-opacity="1" /><path clip-path="url(#clip990)" d="M2237.81 1481.64 L2245.45 1481.64 L2245.45 1455.28 L2237.14 1456.95 L2237.14 1452.69 L2245.4 1451.02 L2250.08 1451.02 L2250.08 1481.64 L2257.72 1481.64 L2257.72 1485.58 L2237.81 1485.58 L2237.81 1481.64 Z" fill="#000000" fill-rule="nonzero" fill-opacity="1" /><path clip-path="url(#clip990)" d="M2277.16 1454.1 Q2273.55 1454.1 2271.72 1457.66 Q2269.91 1461.2 2269.91 1468.33 Q2269.91 1475.44 2271.72 1479.01 Q2273.55 1482.55 2277.16 1482.55 Q2280.79 1482.55 2282.6 1479.01 Q2284.43 1475.44 2284.43 1468.33 Q2284.43 1461.2 2282.6 1457.66 Q2280.79 1454.1 2277.16 1454.1 M2277.16 1450.39 Q2282.97 1450.39 2286.03 1455 Q2289.1 1459.58 2289.1 1468.33 Q2289.1 1477.06 2286.03 1481.67 Q2282.97 1486.25 2277.16 1486.25 Q2271.35 1486.25 2268.27 1481.67 Q2265.22 1477.06 2265.22 1468.33 Q2265.22 1459.58 2268.27 1455 Q2271.35 1450.39 2277.16 1450.39 Z" fill="#000000" fill-rule="nonzero" fill-opacity="1" /><path clip-path="url(#clip990)" d="M2307.32 1454.1 Q2303.71 1454.1 2301.88 1457.66 Q2300.08 1461.2 2300.08 1468.33 Q2300.08 1475.44 2301.88 1479.01 Q2303.71 1482.55 2307.32 1482.55 Q2310.96 1482.55 2312.76 1479.01 Q2314.59 1475.44 2314.59 1468.33 Q2314.59 1461.2 2312.76 1457.66 Q2310.96 1454.1 2307.32 1454.1 M2307.32 1450.39 Q2313.13 1450.39 2316.19 1455 Q2319.27 1459.58 2319.27 1468.33 Q2319.27 1477.06 2316.19 1481.67 Q2313.13 1486.25 2307.32 1486.25 Q2301.51 1486.25 2298.43 1481.67 Q2295.38 1477.06 2295.38 1468.33 Q2295.38 1459.58 2298.43 1455 Q2301.51 1450.39 2307.32 1450.39 Z" fill="#000000" fill-rule="nonzero" fill-opacity="1" /><path clip-path="url(#clip990)" d="M2337.48 1454.1 Q2333.87 1454.1 2332.04 1457.66 Q2330.24 1461.2 2330.24 1468.33 Q2330.24 1475.44 2332.04 1479.01 Q2333.87 1482.55 2337.48 1482.55 Q2341.12 1482.55 2342.92 1479.01 Q2344.75 1475.44 2344.75 1468.33 Q2344.75 1461.2 2342.92 1457.66 Q2341.12 1454.1 2337.48 1454.1 M2337.48 1450.39 Q2343.29 1450.39 2346.35 1455 Q2349.43 1459.58 2349.43 1468.33 Q2349.43 1477.06 2346.35 1481.67 Q2343.29 1486.25 2337.48 1486.25 Q2331.67 1486.25 2328.6 1481.67 Q2325.54 1477.06 2325.54 1468.33 Q2325.54 1459.58 2328.6 1455 Q2331.67 1450.39 2337.48 1450.39 Z" fill="#000000" fill-rule="nonzero" fill-opacity="1" /><path clip-path="url(#clip990)" d="M1169.78 1520.52 L1176.21 1520.52 L1176.21 1568.04 L1169.78 1568.04 L1169.78 1520.52 Z" fill="#000000" fill-rule="nonzero" fill-opacity="1" /><path clip-path="url(#clip990)" d="M1194.55 1522.27 L1194.55 1532.4 L1206.61 1532.4 L1206.61 1536.95 L1194.55 1536.95 L1194.55 1556.3 Q1194.55 1560.66 1195.72 1561.9 Q1196.93 1563.14 1200.59 1563.14 L1206.61 1563.14 L1206.61 1568.04 L1200.59 1568.04 Q1193.82 1568.04 1191.24 1565.53 Q1188.66 1562.98 1188.66 1556.3 L1188.66 1536.95 L1184.36 1536.95 L1184.36 1532.4 L1188.66 1532.4 L1188.66 1522.27 L1194.55 1522.27 Z" fill="#000000" fill-rule="nonzero" fill-opacity="1" /><path clip-path="url(#clip990)" d="M1244.8 1548.76 L1244.8 1551.62 L1217.88 1551.62 Q1218.26 1557.67 1221.51 1560.85 Q1224.78 1564 1230.61 1564 Q1233.98 1564 1237.13 1563.17 Q1240.32 1562.35 1243.44 1560.69 L1243.44 1566.23 Q1240.28 1567.57 1236.97 1568.27 Q1233.66 1568.97 1230.26 1568.97 Q1221.73 1568.97 1216.73 1564 Q1211.77 1559.04 1211.77 1550.57 Q1211.77 1541.82 1216.48 1536.69 Q1221.22 1531.54 1229.24 1531.54 Q1236.43 1531.54 1240.6 1536.18 Q1244.8 1540.8 1244.8 1548.76 M1238.95 1547.04 Q1238.88 1542.23 1236.24 1539.37 Q1233.63 1536.5 1229.3 1536.5 Q1224.4 1536.5 1221.44 1539.27 Q1218.51 1542.04 1218.07 1547.07 L1238.95 1547.04 Z" fill="#000000" fill-rule="nonzero" fill-opacity="1" /><path clip-path="url(#clip990)" d="M1275.07 1537.87 Q1274.09 1537.3 1272.91 1537.04 Q1271.76 1536.76 1270.36 1536.76 Q1265.4 1536.76 1262.72 1540 Q1260.08 1543.22 1260.08 1549.27 L1260.08 1568.04 L1254.19 1568.04 L1254.19 1532.4 L1260.08 1532.4 L1260.08 1537.93 Q1261.93 1534.69 1264.89 1533.13 Q1267.85 1531.54 1272.08 1531.54 Q1272.69 1531.54 1273.42 1531.63 Q1274.15 1531.7 1275.04 1531.85 L1275.07 1537.87 Z" fill="#000000" fill-rule="nonzero" fill-opacity="1" /><path clip-path="url(#clip990)" d="M1297.42 1550.12 Q1290.32 1550.12 1287.58 1551.75 Q1284.84 1553.37 1284.84 1557.29 Q1284.84 1560.4 1286.88 1562.25 Q1288.95 1564.07 1292.48 1564.07 Q1297.35 1564.07 1300.28 1560.63 Q1303.24 1557.16 1303.24 1551.43 L1303.24 1550.12 L1297.42 1550.12 M1309.1 1547.71 L1309.1 1568.04 L1303.24 1568.04 L1303.24 1562.63 Q1301.24 1565.88 1298.24 1567.44 Q1295.25 1568.97 1290.92 1568.97 Q1285.45 1568.97 1282.2 1565.91 Q1278.99 1562.82 1278.99 1557.67 Q1278.99 1551.65 1283 1548.6 Q1287.04 1545.54 1295.03 1545.54 L1303.24 1545.54 L1303.24 1544.97 Q1303.24 1540.93 1300.57 1538.73 Q1297.93 1536.5 1293.12 1536.5 Q1290.06 1536.5 1287.17 1537.23 Q1284.27 1537.97 1281.6 1539.43 L1281.6 1534.02 Q1284.81 1532.78 1287.84 1532.17 Q1290.86 1531.54 1293.72 1531.54 Q1301.46 1531.54 1305.28 1535.55 Q1309.1 1539.56 1309.1 1547.71 Z" fill="#000000" fill-rule="nonzero" fill-opacity="1" /><path clip-path="url(#clip990)" d="M1326.95 1522.27 L1326.95 1532.4 L1339.02 1532.4 L1339.02 1536.95 L1326.95 1536.95 L1326.95 1556.3 Q1326.95 1560.66 1328.13 1561.9 Q1329.34 1563.14 1333 1563.14 L1339.02 1563.14 L1339.02 1568.04 L1333 1568.04 Q1326.22 1568.04 1323.64 1565.53 Q1321.07 1562.98 1321.07 1556.3 L1321.07 1536.95 L1316.77 1536.95 L1316.77 1532.4 L1321.07 1532.4 L1321.07 1522.27 L1326.95 1522.27 Z" fill="#000000" fill-rule="nonzero" fill-opacity="1" /><path clip-path="url(#clip990)" d="M1346.72 1532.4 L1352.58 1532.4 L1352.58 1568.04 L1346.72 1568.04 L1346.72 1532.4 M1346.72 1518.52 L1352.58 1518.52 L1352.58 1525.93 L1346.72 1525.93 L1346.72 1518.52 Z" fill="#000000" fill-rule="nonzero" fill-opacity="1" /><path clip-path="url(#clip990)" d="M1378.64 1536.5 Q1373.93 1536.5 1371.2 1540.19 Q1368.46 1543.85 1368.46 1550.25 Q1368.46 1556.65 1371.16 1560.34 Q1373.9 1564 1378.64 1564 Q1383.32 1564 1386.06 1560.31 Q1388.8 1556.62 1388.8 1550.25 Q1388.8 1543.92 1386.06 1540.23 Q1383.32 1536.5 1378.64 1536.5 M1378.64 1531.54 Q1386.28 1531.54 1390.64 1536.5 Q1395 1541.47 1395 1550.25 Q1395 1559 1390.64 1564 Q1386.28 1568.97 1378.64 1568.97 Q1370.97 1568.97 1366.61 1564 Q1362.28 1559 1362.28 1550.25 Q1362.28 1541.47 1366.61 1536.5 Q1370.97 1531.54 1378.64 1531.54 Z" fill="#000000" fill-rule="nonzero" fill-opacity="1" /><path clip-path="url(#clip990)" d="M1434.34 1546.53 L1434.34 1568.04 L1428.49 1568.04 L1428.49 1546.72 Q1428.49 1541.66 1426.51 1539.14 Q1424.54 1536.63 1420.59 1536.63 Q1415.85 1536.63 1413.11 1539.65 Q1410.38 1542.68 1410.38 1547.9 L1410.38 1568.04 L1404.49 1568.04 L1404.49 1532.4 L1410.38 1532.4 L1410.38 1537.93 Q1412.48 1534.72 1415.31 1533.13 Q1418.17 1531.54 1421.9 1531.54 Q1428.04 1531.54 1431.19 1535.36 Q1434.34 1539.14 1434.34 1546.53 Z" fill="#000000" fill-rule="nonzero" fill-opacity="1" /><polyline clip-path="url(#clip990)" style="stroke:#000000; stroke-linecap:round; stroke-linejoin:round; stroke-width:4; stroke-opacity:1; fill:none" points="251.372,1423.18 251.372,47.2441 "/>
<polyline clip-path="url(#clip990)" style="stroke:#000000; stroke-linecap:round; stroke-linejoin:round; stroke-width:4; stroke-opacity:1; fill:none" points="251.372,1132.29 270.27,1132.29 "/>
<polyline clip-path="url(#clip990)" style="stroke:#000000; stroke-linecap:round; stroke-linejoin:round; stroke-width:4; stroke-opacity:1; fill:none" points="251.372,550.893 270.27,550.893 "/>
<path clip-path="url(#clip990)" d="M114.931 1152.08 L122.57 1152.08 L122.57 1125.71 L114.26 1127.38 L114.26 1123.12 L122.524 1121.46 L127.2 1121.46 L127.2 1152.08 L134.839 1152.08 L134.839 1156.02 L114.931 1156.02 L114.931 1152.08 Z" fill="#000000" fill-rule="nonzero" fill-opacity="1" /><path clip-path="url(#clip990)" d="M154.283 1124.53 Q150.672 1124.53 148.843 1128.1 Q147.038 1131.64 147.038 1138.77 Q147.038 1145.88 148.843 1149.44 Q150.672 1152.98 154.283 1152.98 Q157.917 1152.98 159.723 1149.44 Q161.552 1145.88 161.552 1138.77 Q161.552 1131.64 159.723 1128.1 Q157.917 1124.53 154.283 1124.53 M154.283 1120.83 Q160.093 1120.83 163.149 1125.44 Q166.227 1130.02 166.227 1138.77 Q166.227 1147.5 163.149 1152.1 Q160.093 1156.69 154.283 1156.69 Q148.473 1156.69 145.394 1152.1 Q142.339 1147.5 142.339 1138.77 Q142.339 1130.02 145.394 1125.44 Q148.473 1120.83 154.283 1120.83 Z" fill="#000000" fill-rule="nonzero" fill-opacity="1" /><path clip-path="url(#clip990)" d="M166.227 1114.93 L190.339 1114.93 L190.339 1118.13 L166.227 1118.13 L166.227 1114.93 Z" fill="#000000" fill-rule="nonzero" fill-opacity="1" /><path clip-path="url(#clip990)" d="M199.197 1125.41 L205.404 1125.41 L205.404 1103.99 L198.652 1105.34 L198.652 1101.88 L205.366 1100.52 L209.166 1100.52 L209.166 1125.41 L215.372 1125.41 L215.372 1128.6 L199.197 1128.6 L199.197 1125.41 Z" fill="#000000" fill-rule="nonzero" fill-opacity="1" /><path clip-path="url(#clip990)" d="M144.667 570.685 L152.305 570.685 L152.305 544.32 L143.995 545.986 L143.995 541.727 L152.259 540.06 L156.935 540.06 L156.935 570.685 L164.574 570.685 L164.574 574.62 L144.667 574.62 L144.667 570.685 Z" fill="#000000" fill-rule="nonzero" fill-opacity="1" /><path clip-path="url(#clip990)" d="M184.018 543.139 Q180.407 543.139 178.578 546.704 Q176.773 550.246 176.773 557.375 Q176.773 564.482 178.578 568.046 Q180.407 571.588 184.018 571.588 Q187.652 571.588 189.458 568.046 Q191.287 564.482 191.287 557.375 Q191.287 550.246 189.458 546.704 Q187.652 543.139 184.018 543.139 M184.018 539.435 Q189.828 539.435 192.884 544.042 Q195.963 548.625 195.963 557.375 Q195.963 566.102 192.884 570.708 Q189.828 575.292 184.018 575.292 Q178.208 575.292 175.129 570.708 Q172.074 566.102 172.074 557.375 Q172.074 548.625 175.129 544.042 Q178.208 539.435 184.018 539.435 Z" fill="#000000" fill-rule="nonzero" fill-opacity="1" /><path clip-path="url(#clip990)" d="M205.667 521.631 Q202.733 521.631 201.248 524.528 Q199.781 527.405 199.781 533.198 Q199.781 538.972 201.248 541.869 Q202.733 544.746 205.667 544.746 Q208.62 544.746 210.087 541.869 Q211.573 538.972 211.573 533.198 Q211.573 527.405 210.087 524.528 Q208.62 521.631 205.667 521.631 M205.667 518.622 Q210.388 518.622 212.871 522.365 Q215.372 526.089 215.372 533.198 Q215.372 540.289 212.871 544.031 Q210.388 547.755 205.667 547.755 Q200.947 547.755 198.445 544.031 Q195.963 540.289 195.963 533.198 Q195.963 526.089 198.445 522.365 Q200.947 518.622 205.667 518.622 Z" fill="#000000" fill-rule="nonzero" fill-opacity="1" /><path clip-path="url(#clip990)" d="M33.7671 1042.8 L14.479 1042.8 L14.479 1036.95 L64.0042 1036.95 L64.0042 1042.8 L58.657 1042.8 Q61.8398 1044.65 63.3994 1047.48 Q64.9272 1050.28 64.9272 1054.23 Q64.9272 1060.69 59.771 1064.76 Q54.6147 1068.81 46.212 1068.81 Q37.8093 1068.81 32.6531 1064.76 Q27.4968 1060.69 27.4968 1054.23 Q27.4968 1050.28 29.0564 1047.48 Q30.5842 1044.65 33.7671 1042.8 M46.212 1062.76 Q52.6732 1062.76 56.3653 1060.12 Q60.0256 1057.44 60.0256 1052.8 Q60.0256 1048.15 56.3653 1045.48 Q52.6732 1042.8 46.212 1042.8 Q39.7508 1042.8 36.0905 1045.48 Q32.3984 1048.15 32.3984 1052.8 Q32.3984 1057.44 36.0905 1060.12 Q39.7508 1062.76 46.212 1062.76 Z" fill="#000000" fill-rule="nonzero" fill-opacity="1" /><path clip-path="url(#clip990)" d="M28.3562 1024.88 L28.3562 1019.03 L64.0042 1019.03 L64.0042 1024.88 L28.3562 1024.88 M14.479 1024.88 L14.479 1019.03 L21.895 1019.03 L21.895 1024.88 L14.479 1024.88 Z" fill="#000000" fill-rule="nonzero" fill-opacity="1" /><path clip-path="url(#clip990)" d="M29.4065 984.047 L34.9447 984.047 Q33.6716 986.53 33.035 989.204 Q32.3984 991.877 32.3984 994.742 Q32.3984 999.102 33.7352 1001.3 Q35.072 1003.46 37.7456 1003.46 Q39.7826 1003.46 40.9603 1001.9 Q42.1061 1000.34 43.1565 995.633 L43.6021 993.628 Q44.9389 987.389 47.3897 984.779 Q49.8086 982.138 54.1691 982.138 Q59.1344 982.138 62.0308 986.084 Q64.9272 989.999 64.9272 996.874 Q64.9272 999.739 64.3543 1002.86 Q63.8132 1005.95 62.6992 1009.38 L56.6518 1009.38 Q58.3387 1006.14 59.198 1002.99 Q60.0256 999.834 60.0256 996.747 Q60.0256 992.609 58.6251 990.381 Q57.1929 988.153 54.6147 988.153 Q52.2276 988.153 50.9545 989.777 Q49.6813 991.368 48.5037 996.811 L48.0262 998.848 Q46.8804 1004.29 44.5251 1006.71 Q42.138 1009.13 38.0002 1009.13 Q32.9713 1009.13 30.2341 1005.56 Q27.4968 1002 27.4968 995.442 Q27.4968 992.196 27.9743 989.331 Q28.4517 986.466 29.4065 984.047 Z" fill="#000000" fill-rule="nonzero" fill-opacity="1" /><path clip-path="url(#clip990)" d="M18.2347 967.019 L28.3562 967.019 L28.3562 954.956 L32.9077 954.956 L32.9077 967.019 L52.2594 967.019 Q56.6199 967.019 57.8613 965.842 Q59.1026 964.632 59.1026 960.972 L59.1026 954.956 L64.0042 954.956 L64.0042 960.972 Q64.0042 967.751 61.4897 970.329 Q58.9434 972.907 52.2594 972.907 L32.9077 972.907 L32.9077 977.204 L28.3562 977.204 L28.3562 972.907 L18.2347 972.907 L18.2347 967.019 Z" fill="#000000" fill-rule="nonzero" fill-opacity="1" /><path clip-path="url(#clip990)" d="M46.0847 931.053 Q46.0847 938.151 47.7079 940.888 Q49.3312 943.625 53.2461 943.625 Q56.3653 943.625 58.2114 941.588 Q60.0256 939.519 60.0256 935.986 Q60.0256 931.117 56.5881 928.188 Q53.1188 925.228 47.3897 925.228 L46.0847 925.228 L46.0847 931.053 M43.6657 919.372 L64.0042 919.372 L64.0042 925.228 L58.5933 925.228 Q61.8398 927.234 63.3994 930.225 Q64.9272 933.217 64.9272 937.546 Q64.9272 943.02 61.8716 946.267 Q58.7843 949.482 53.6281 949.482 Q47.6125 949.482 44.5569 945.471 Q41.5014 941.429 41.5014 933.44 L41.5014 925.228 L40.9285 925.228 Q36.8862 925.228 34.6901 927.902 Q32.4621 930.544 32.4621 935.35 Q32.4621 938.405 33.1941 941.302 Q33.9262 944.198 35.3903 946.872 L29.9795 946.872 Q28.7381 943.657 28.1334 940.633 Q27.4968 937.61 27.4968 934.745 Q27.4968 927.011 31.5072 923.191 Q35.5176 919.372 43.6657 919.372 Z" fill="#000000" fill-rule="nonzero" fill-opacity="1" /><path clip-path="url(#clip990)" d="M42.4881 877.676 L64.0042 877.676 L64.0042 883.533 L42.679 883.533 Q37.6183 883.533 35.1038 885.506 Q32.5894 887.48 32.5894 891.426 Q32.5894 896.169 35.6131 898.906 Q38.6368 901.643 43.8567 901.643 L64.0042 901.643 L64.0042 907.532 L28.3562 907.532 L28.3562 901.643 L33.8944 901.643 Q30.6797 899.543 29.0883 896.71 Q27.4968 893.845 27.4968 890.121 Q27.4968 883.979 31.3163 880.828 Q35.1038 877.676 42.4881 877.676 Z" fill="#000000" fill-rule="nonzero" fill-opacity="1" /><path clip-path="url(#clip990)" d="M29.7248 840.342 L35.1993 840.342 Q33.8307 842.824 33.1623 845.339 Q32.4621 847.821 32.4621 850.368 Q32.4621 856.065 36.0905 859.216 Q39.6872 862.367 46.212 862.367 Q52.7369 862.367 56.3653 859.216 Q59.9619 856.065 59.9619 850.368 Q59.9619 847.821 59.2935 845.339 Q58.5933 842.824 57.2247 840.342 L62.6355 840.342 Q63.7814 842.792 64.3543 845.434 Q64.9272 848.044 64.9272 851.004 Q64.9272 859.057 59.8664 863.799 Q54.8057 868.542 46.212 868.542 Q37.491 868.542 32.4939 863.767 Q27.4968 858.961 27.4968 850.622 Q27.4968 847.917 28.0697 845.339 Q28.6108 842.761 29.7248 840.342 Z" fill="#000000" fill-rule="nonzero" fill-opacity="1" /><path clip-path="url(#clip990)" d="M44.7161 799.665 L47.5806 799.665 L47.5806 826.592 Q53.6281 826.21 56.8109 822.963 Q59.9619 819.685 59.9619 813.86 Q59.9619 810.486 59.1344 807.335 Q58.3069 804.153 56.6518 801.033 L62.1899 801.033 Q63.5267 804.184 64.227 807.495 Q64.9272 810.805 64.9272 814.21 Q64.9272 822.74 59.9619 827.738 Q54.9967 832.703 46.5303 832.703 Q37.7774 832.703 32.6531 827.992 Q27.4968 823.25 27.4968 815.229 Q27.4968 808.036 32.1438 803.866 Q36.7589 799.665 44.7161 799.665 M42.9973 805.521 Q38.1912 805.585 35.3266 808.227 Q32.4621 810.837 32.4621 815.165 Q32.4621 820.067 35.2312 823.027 Q38.0002 825.955 43.0292 826.401 L42.9973 805.521 Z" fill="#000000" fill-rule="nonzero" fill-opacity="1" /><path clip-path="url(#clip990)" d="M18.2347 763.539 L28.3562 763.539 L28.3562 751.476 L32.9077 751.476 L32.9077 763.539 L52.2594 763.539 Q56.6199 763.539 57.8613 762.362 Q59.1026 761.152 59.1026 757.492 L59.1026 751.476 L64.0042 751.476 L64.0042 757.492 Q64.0042 764.271 61.4897 766.85 Q58.9434 769.428 52.2594 769.428 L32.9077 769.428 L32.9077 773.724 L28.3562 773.724 L28.3562 769.428 L18.2347 769.428 L18.2347 763.539 Z" fill="#000000" fill-rule="nonzero" fill-opacity="1" /><path clip-path="url(#clip990)" d="M32.4621 729.96 Q32.4621 734.671 36.1542 737.408 Q39.8145 740.145 46.212 740.145 Q52.6095 740.145 56.3017 737.44 Q59.9619 734.703 59.9619 729.96 Q59.9619 725.281 56.2698 722.544 Q52.5777 719.807 46.212 719.807 Q39.8781 719.807 36.186 722.544 Q32.4621 725.281 32.4621 729.96 M27.4968 729.96 Q27.4968 722.321 32.4621 717.961 Q37.4273 713.6 46.212 713.6 Q54.9649 713.6 59.9619 717.961 Q64.9272 722.321 64.9272 729.96 Q64.9272 737.631 59.9619 741.991 Q54.9649 746.32 46.212 746.32 Q37.4273 746.32 32.4621 741.991 Q27.4968 737.631 27.4968 729.96 Z" fill="#000000" fill-rule="nonzero" fill-opacity="1" /><path clip-path="url(#clip990)" d="M32.4621 669.359 Q32.4621 674.069 36.1542 676.807 Q39.8145 679.544 46.212 679.544 Q52.6095 679.544 56.3017 676.838 Q59.9619 674.101 59.9619 669.359 Q59.9619 664.68 56.2698 661.943 Q52.5777 659.205 46.212 659.205 Q39.8781 659.205 36.186 661.943 Q32.4621 664.68 32.4621 669.359 M27.4968 669.359 Q27.4968 661.72 32.4621 657.359 Q37.4273 652.999 46.212 652.999 Q54.9649 652.999 59.9619 657.359 Q64.9272 661.72 64.9272 669.359 Q64.9272 677.029 59.9619 681.39 Q54.9649 685.719 46.212 685.719 Q37.4273 685.719 32.4621 681.39 Q27.4968 677.029 27.4968 669.359 Z" fill="#000000" fill-rule="nonzero" fill-opacity="1" /><path clip-path="url(#clip990)" d="M58.657 637.626 L77.5631 637.626 L77.5631 643.514 L28.3562 643.514 L28.3562 637.626 L33.7671 637.626 Q30.5842 635.78 29.0564 632.979 Q27.4968 630.146 27.4968 626.231 Q27.4968 619.738 32.6531 615.696 Q37.8093 611.622 46.212 611.622 Q54.6147 611.622 59.771 615.696 Q64.9272 619.738 64.9272 626.231 Q64.9272 630.146 63.3994 632.979 Q61.8398 635.78 58.657 637.626 M46.212 617.701 Q39.7508 617.701 36.0905 620.375 Q32.3984 623.016 32.3984 627.663 Q32.3984 632.31 36.0905 634.984 Q39.7508 637.626 46.212 637.626 Q52.6732 637.626 56.3653 634.984 Q60.0256 632.31 60.0256 627.663 Q60.0256 623.016 56.3653 620.375 Q52.6732 617.701 46.212 617.701 Z" fill="#000000" fill-rule="nonzero" fill-opacity="1" /><path clip-path="url(#clip990)" d="M18.2347 596.121 L28.3562 596.121 L28.3562 584.058 L32.9077 584.058 L32.9077 596.121 L52.2594 596.121 Q56.6199 596.121 57.8613 594.944 Q59.1026 593.734 59.1026 590.074 L59.1026 584.058 L64.0042 584.058 L64.0042 590.074 Q64.0042 596.853 61.4897 599.431 Q58.9434 602.01 52.2594 602.01 L32.9077 602.01 L32.9077 606.306 L28.3562 606.306 L28.3562 602.01 L18.2347 602.01 L18.2347 596.121 Z" fill="#000000" fill-rule="nonzero" fill-opacity="1" /><path clip-path="url(#clip990)" d="M28.3562 576.356 L28.3562 570.499 L64.0042 570.499 L64.0042 576.356 L28.3562 576.356 M14.479 576.356 L14.479 570.499 L21.895 570.499 L21.895 576.356 L14.479 576.356 Z" fill="#000000" fill-rule="nonzero" fill-opacity="1" /><path clip-path="url(#clip990)" d="M35.1993 530.491 Q31.2526 528.295 29.3747 525.239 Q27.4968 522.184 27.4968 518.046 Q27.4968 512.476 31.4117 509.452 Q35.2948 506.428 42.4881 506.428 L64.0042 506.428 L64.0042 512.317 L42.679 512.317 Q37.5546 512.317 35.072 514.131 Q32.5894 515.945 32.5894 519.669 Q32.5894 524.221 35.6131 526.862 Q38.6368 529.504 43.8567 529.504 L64.0042 529.504 L64.0042 535.392 L42.679 535.392 Q37.5228 535.392 35.072 537.207 Q32.5894 539.021 32.5894 542.808 Q32.5894 547.296 35.6449 549.938 Q38.6686 552.58 43.8567 552.58 L64.0042 552.58 L64.0042 558.468 L28.3562 558.468 L28.3562 552.58 L33.8944 552.58 Q30.616 550.575 29.0564 547.774 Q27.4968 544.973 27.4968 541.122 Q27.4968 537.238 29.4702 534.533 Q31.4436 531.796 35.1993 530.491 Z" fill="#000000" fill-rule="nonzero" fill-opacity="1" /><path clip-path="url(#clip990)" d="M49.9359 495.352 L28.3562 495.352 L28.3562 489.496 L49.7131 489.496 Q54.7739 489.496 57.3202 487.522 Q59.8346 485.549 59.8346 481.602 Q59.8346 476.86 56.8109 474.123 Q53.7872 471.353 48.5673 471.353 L28.3562 471.353 L28.3562 465.497 L64.0042 465.497 L64.0042 471.353 L58.5296 471.353 Q61.7762 473.486 63.3676 476.319 Q64.9272 479.12 64.9272 482.844 Q64.9272 488.986 61.1078 492.169 Q57.2883 495.352 49.9359 495.352 M27.4968 480.616 L27.4968 480.616 Z" fill="#000000" fill-rule="nonzero" fill-opacity="1" /><path clip-path="url(#clip990)" d="M35.1993 425.679 Q31.2526 423.483 29.3747 420.428 Q27.4968 417.372 27.4968 413.235 Q27.4968 407.665 31.4117 404.641 Q35.2948 401.617 42.4881 401.617 L64.0042 401.617 L64.0042 407.505 L42.679 407.505 Q37.5546 407.505 35.072 409.32 Q32.5894 411.134 32.5894 414.858 Q32.5894 419.409 35.6131 422.051 Q38.6368 424.693 43.8567 424.693 L64.0042 424.693 L64.0042 430.581 L42.679 430.581 Q37.5228 430.581 35.072 432.395 Q32.5894 434.21 32.5894 437.997 Q32.5894 442.485 35.6449 445.127 Q38.6686 447.768 43.8567 447.768 L64.0042 447.768 L64.0042 453.657 L28.3562 453.657 L28.3562 447.768 L33.8944 447.768 Q30.616 445.763 29.0564 442.962 Q27.4968 440.161 27.4968 436.31 Q27.4968 432.427 29.4702 429.722 Q31.4436 426.984 35.1993 425.679 Z" fill="#000000" fill-rule="nonzero" fill-opacity="1" /><polyline clip-path="url(#clip992)" style="stroke:#009af9; stroke-linecap:round; stroke-linejoin:round; stroke-width:4; stroke-opacity:1; fill:none" points="310.845,86.1857 312.83,87.2849 314.814,88.3999 316.799,89.5235 318.783,90.6239 320.767,91.751 322.752,92.8972 324.736,94.0501 326.721,95.201 328.705,96.3282 330.69,97.4422 332.674,98.5247 334.658,99.6277 336.643,100.745 338.627,101.91 340.612,103.064 342.596,104.225 344.58,105.37 346.565,106.52 348.549,107.665 350.534,108.811 352.518,109.984 354.503,111.174 356.487,112.386 358.471,113.576 360.456,114.757 362.44,115.951 364.425,117.187 366.409,118.431 368.394,119.642 370.378,120.827 372.362,122.004 374.347,123.169 376.331,124.36 378.316,125.573 380.3,126.775 382.284,128.001 384.269,129.257 386.253,130.529 388.238,131.842 390.222,133.141 392.207,134.43 394.191,135.713 396.175,137.017 398.16,138.325 400.144,139.595 402.129,140.866 404.113,142.139 406.098,143.419 408.082,144.724 410.066,146.028 412.051,147.345 414.035,148.664 416.02,150.026 418.004,151.399 419.989,152.756 421.973,154.119 423.957,155.458 425.942,156.834 427.926,158.176 429.911,159.512 431.895,160.843 433.879,162.147 435.864,163.438 437.848,164.709 439.833,165.98 441.817,167.239 443.802,168.506 445.786,169.83 447.77,171.151 449.755,172.515 451.739,173.817 453.724,175.128 455.708,176.449 457.693,177.785 459.677,179.117 461.661,180.406 463.646,181.703 465.63,183.006 467.615,184.34 469.599,185.719 471.583,187.093 473.568,188.504 475.552,189.912 477.537,191.316 479.521,192.736 481.506,194.158 483.49,195.596 485.474,196.987 487.459,198.379 489.443,199.739 491.428,201.037 493.412,202.362 495.397,203.668 497.381,204.956 499.365,206.231 501.35,207.456 503.334,208.638 505.319,209.802 507.303,210.963 509.287,212.125 511.272,213.324 513.256,214.523 515.241,215.709 517.225,216.884 519.21,218.079 521.194,219.355 523.178,220.625 525.163,221.914 527.147,223.274 529.132,224.625 531.116,226.003 533.101,227.383 535.085,228.738 537.069,230.059 539.054,231.473 541.038,232.933 543.023,234.356 545.007,235.863 546.992,237.292 548.976,238.829 550.96,240.321 552.945,241.822 554.929,243.268 556.914,244.733 558.898,246.207 560.882,247.69 562.867,249.236 564.851,250.836 566.836,252.453 568.82,254.109 570.805,255.664 572.789,257.261 574.773,258.889 576.758,260.466 578.742,262.089 580.727,263.731 582.711,265.373 584.696,266.938 586.68,268.575 588.664,270.25 590.649,271.847 592.633,273.431 594.618,274.971 596.602,276.583 598.586,278.267 600.571,279.927 602.555,281.573 604.54,283.328 606.524,285.058 608.509,286.822 610.493,288.574 612.477,290.314 614.462,292.087 616.446,293.891 618.431,295.661 620.415,297.507 622.4,299.322 624.384,301.163 626.368,303.002 628.353,304.763 630.337,306.442 632.322,308.042 634.306,309.532 636.29,311.032 638.275,312.48 640.259,314.027 642.244,315.593 644.228,317.081 646.213,318.619 648.197,320.056 650.181,321.515 652.166,323.098 654.15,324.721 656.135,326.328 658.119,327.875 660.104,329.367 662.088,330.815 664.072,332.324 666.057,333.873 668.041,335.489 670.026,337.102 672.01,338.747 673.995,340.482 675.979,342.158 677.963,344.051 679.948,345.898 681.932,347.72 683.917,349.453 685.901,351.093 687.885,352.749 689.87,354.35 691.854,355.993 693.839,357.517 695.823,359.005 697.808,360.517 699.792,361.939 701.776,363.482 703.761,365.09 705.745,366.69 707.73,368.429 709.714,369.995 711.699,371.637 713.683,373.342 715.667,374.982 717.652,376.615 719.636,378.141 721.621,379.577 723.605,381.16 725.589,382.716 727.574,384.34 729.558,386.014 731.543,387.67 733.527,389.41 735.512,391.089 737.496,392.688 739.48,394.305 741.465,396.034 743.449,397.701 745.434,399.499 747.418,401.208 749.403,402.93 751.387,404.514 753.371,406.002 755.356,407.603 757.34,409.421 759.325,411.245 761.309,413.063 763.293,415.038 765.278,416.953 767.262,418.994 769.247,421.073 771.231,422.944 773.216,424.763 775.2,426.597 777.184,428.47 779.169,430.328 781.153,432.172 783.138,433.911 785.122,435.762 787.107,437.377 789.091,439.241 791.075,441.163 793.06,443.038 795.044,444.796 797.029,446.498 799.013,448.117 800.998,449.565 802.982,450.919 804.966,452.342 806.951,453.68 808.935,455.319 810.92,457.01 812.904,458.688 814.888,460.405 816.873,461.951 818.857,463.52 820.842,464.976 822.826,466.45 824.811,468.022 826.795,469.723 828.779,471.428 830.764,472.94 832.748,474.448 834.733,476.224 836.717,477.96 838.702,479.8 840.686,481.76 842.67,483.909 844.655,485.984 846.639,488.104 848.624,490.236 850.608,492.412 852.592,494.692 854.577,497.023 856.561,499.258 858.546,501.251 860.53,502.993 862.515,504.927 864.499,506.883 866.483,508.831 868.468,510.483 870.452,512.246 872.437,514.315 874.421,516.288 876.406,518.179 878.39,520.085 880.374,521.98 882.359,524.055 884.343,525.97 886.328,527.656 888.312,529.667 890.296,531.692 892.281,533.497 894.265,535.248 896.25,536.841 898.234,538.187 900.219,539.634 902.203,541.017 904.187,542.667 906.172,543.957 908.156,545.204 910.141,546.261 912.125,547.583 914.11,548.767 916.094,549.75 918.078,550.816 920.063,552.054 922.047,553.21 924.032,554.439 926.016,555.718 928.001,557.089 929.985,558.667 931.969,559.795 933.954,560.976 935.938,562.007 937.923,563.048 939.907,564.221 941.891,565.327 943.876,566.254 945.86,566.988 947.845,567.912 949.829,568.561 951.814,569.623 953.798,570.67 955.782,571.741 957.767,572.779 959.751,573.722 961.736,574.549 963.72,575.388 965.705,576.297 967.689,577.254 969.673,578.507 971.658,579.799 973.642,581.052 975.627,582.259 977.611,583.398 979.595,584.59 981.58,585.674 983.564,586.918 985.549,588.355 987.533,590.126 989.518,591.845 991.502,593.863 993.486,595.749 995.471,597.633 997.455,599.36 999.44,601.056 1001.42,603.055 1003.41,605.37 1005.39,607.468 1007.38,609.278 1009.36,611.325 1011.35,613.23 1013.33,615.255 1015.32,616.861 1017.3,618.385 1019.28,619.952 1021.27,621.18 1023.25,622.221 1025.24,623.371 1027.22,624.634 1029.21,626.351 1031.19,628.09 1033.17,630.307 1035.16,632.426 1037.14,634.482 1039.13,636.428 1041.11,638.51 1043.1,640.375 1045.08,642.091 1047.07,643.696 1049.05,645.318 1051.03,646.944 1053.02,648.112 1055,648.684 1056.99,648.608 1058.97,648.512 1060.96,648.56 1062.94,649.113 1064.93,649.481 1066.91,649.606 1068.89,651.095 1070.88,652.031 1072.86,652.97 1074.85,654.279 1076.83,655.955 1078.82,657.706 1080.8,659.309 1082.79,661.113 1084.77,662.831 1086.75,664.931 1088.74,667.276 1090.72,669.945 1092.71,672.062 1094.69,673.225 1096.68,674.436 1098.66,676.224 1100.65,678.429 1102.63,680.329 1104.61,681.778 1106.6,683.503 1108.58,684.961 1110.57,686.071 1112.55,686.474 1114.54,686.797 1116.52,686.354 1118.51,686.177 1120.49,686.048 1122.47,685.969 1124.46,686.289 1126.44,686.494 1128.43,686.89 1130.41,687.697 1132.4,688.727 1134.38,690.064 1136.36,691.131 1138.35,692.324 1140.33,693.536 1142.32,694.603 1144.3,695.716 1146.29,696.791 1148.27,698.184 1150.26,699.464 1152.24,700.399 1154.22,701.029 1156.21,701.551 1158.19,702.639 1160.18,703.651 1162.16,704.19 1164.15,704.634 1166.13,705.103 1168.12,705.841 1170.1,705.881 1172.08,705.681 1174.07,704.755 1176.05,703.912 1178.04,703.202 1180.02,703.346 1182.01,703.306 1183.99,703.324 1185.98,702.991 1187.96,702.43 1189.94,701.572 1191.93,700.964 1193.91,700.698 1195.9,700.71 1197.88,700.875 1199.87,701.462 1201.85,701.812 1203.84,702.851 1205.82,704.033 1207.8,704.662 1209.79,705.17 1211.77,705.093 1213.76,705.538 1215.74,706.34 1217.73,707.256 1219.71,709.392 1221.69,710.229 1223.68,711.357 1225.66,712.015 1227.65,712.225 1229.63,712.058 1231.62,711.686 1233.6,712.033 1235.59,712.752 1237.57,713.231 1239.55,713.652 1241.54,714.177 1243.52,714.64 1245.51,715.424 1247.49,715.821 1249.48,716.303 1251.46,716.473 1253.45,716.835 1255.43,717.7 1257.41,717.774 1259.4,717.925 1261.38,718.545 1263.37,719.27 1265.35,719.975 1267.34,720.469 1269.32,721.365 1271.31,722.564 1273.29,723.769 1275.27,724.832 1277.26,726.308 1279.24,727.296 1281.23,728.782 1283.21,730.87 1285.2,732.12 1287.18,733.256 1289.17,733.948 1291.15,734.818 1293.13,735.638 1295.12,737.053 1297.1,738.812 1299.09,740.815 1301.07,744.256 1303.06,747.524 1305.04,750.513 1307.03,752.948 1309.01,755.263 1310.99,757.443 1312.98,759.72 1314.96,761.557 1316.95,763.201 1318.93,765.147 1320.92,766.895 1322.9,768.328 1324.88,769.328 1326.87,770.199 1328.85,771.232 1330.84,772.428 1332.82,773.801 1334.81,774.573 1336.79,775.555 1338.78,776.62 1340.76,777.561 1342.74,777.892 1344.73,778.555 1346.71,779.091 1348.7,780.442 1350.68,781.093 1352.67,781.699 1354.65,782.12 1356.64,782.678 1358.62,783.103 1360.6,783.282 1362.59,783.066 1364.57,782.625 1366.56,782.051 1368.54,782.048 1370.53,783.229 1372.51,784.5 1374.5,786.064 1376.48,787.853 1378.46,789.634 1380.45,792.009 1382.43,793.465 1384.42,795.078 1386.4,796.149 1388.39,796.449 1390.37,796.934 1392.36,796.939 1394.34,796.64 1396.32,796.268 1398.31,796.482 1400.29,797.535 1402.28,798.543 1404.26,799.322 1406.25,799.653 1408.23,801.493 1410.22,803.978 1412.2,806.155 1414.18,808.214 1416.17,810.065 1418.15,813.531 1420.14,817.8 1422.12,821.555 1424.11,824.796 1426.09,827.589 1428.07,829.344 1430.06,830.715 1432.04,832.848 1434.03,834.569 1436.01,835.663 1438,836.875 1439.98,838.08 1441.97,838.463 1443.95,838.179 1445.93,837.782 1447.92,837.251 1449.9,836.203 1451.89,834.53 1453.87,832.519 1455.86,830.299 1457.84,828.531 1459.83,827.245 1461.81,825.99 1463.79,824.794 1465.78,823.192 1467.76,821.811 1469.75,820.273 1471.73,818.556 1473.72,817.326 1475.7,815.669 1477.69,814.831 1479.67,814.09 1481.65,813.313 1483.64,812.925 1485.62,812.375 1487.61,810.525 1489.59,808.424 1491.58,806.567 1493.56,804.066 1495.55,801.531 1497.53,799.477 1499.51,798.687 1501.5,799.099 1503.48,799.058 1505.47,801.718 1507.45,804.411 1509.44,807.483 1511.42,810.22 1513.4,812.454 1515.39,815.026 1517.37,817.531 1519.36,821.069 1521.34,824.191 1523.33,826.508 1525.31,828.68 1527.3,829.902 1529.28,830.769 1531.26,831.639 1533.25,833.194 1535.23,834.149 1537.22,834.563 1539.2,836.439 1541.19,836.453 1543.17,836.816 1545.16,836.743 1547.14,836.773 1549.12,835.881 1551.11,835.058 1553.09,833.855 1555.08,832.114 1557.06,830.311 1559.05,828.252 1561.03,826.735 1563.02,825.582 1565,825.372 1566.98,826.14 1568.97,828.056 1570.95,831.059 1572.94,834.315 1574.92,836.876 1576.91,838.982 1578.89,840.864 1580.88,842.209 1582.86,844.081 1584.84,846.284 1586.83,847.869 1588.81,849.522 1590.8,851.545 1592.78,853.104 1594.77,855.445 1596.75,858.064 1598.74,859.531 1600.72,860.494 1602.7,860.754 1604.69,861.297 1606.67,862.846 1608.66,864.189 1610.64,865.533 1612.63,867.03 1614.61,870.701 1616.59,873.946 1618.58,875.353 1620.56,876.551 1622.55,877.929 1624.53,878.603 1626.52,879.325 1628.5,879.642 1630.49,879.777 1632.47,879.545 1634.45,879.8 1636.44,879.222 1638.42,879.193 1640.41,879.944 1642.39,880.474 1644.38,880.396 1646.36,882.809 1648.35,884.452 1650.33,885.128 1652.31,884.668 1654.3,885.239 1656.28,884.562 1658.27,883.923 1660.25,882.757 1662.24,881.193 1664.22,880.106 1666.21,878.908 1668.19,877.253 1670.17,875.744 1672.16,872.381 1674.14,867.778 1676.13,862.589 1678.11,857.773 1680.1,855.343 1682.08,853.312 1684.07,853.366 1686.05,853.459 1688.03,852.968 1690.02,851.527 1692,850.307 1693.99,850.127 1695.97,850.071 1697.96,848.394 1699.94,847.451 1701.93,847.898 1703.91,848.565 1705.89,849.257 1707.88,849.671 1709.86,850.382 1711.85,850.962 1713.83,851.706 1715.82,852.081 1717.8,852.097 1719.78,852.809 1721.77,853.421 1723.75,854.562 1725.74,855.595 1727.72,856.218 1729.71,855.927 1731.69,855.225 1733.68,854.524 1735.66,855.029 1737.64,856.113 1739.63,856.629 1741.61,857.841 1743.6,858.241 1745.58,857.336 1747.57,855.608 1749.55,856.368 1751.54,858.475 1753.52,860.278 1755.5,862.067 1757.49,864.551 1759.47,867.472 1761.46,869.967 1763.44,870.912 1765.43,871.88 1767.41,871.281 1769.4,871.586 1771.38,871.647 1773.36,871.555 1775.35,870.017 1777.33,867.892 1779.32,865.121 1781.3,862.511 1783.29,858.816 1785.27,856.599 1787.26,854.128 1789.24,852.684 1791.22,852.151 1793.21,851.54 1795.19,850.725 1797.18,850.323 1799.16,850.858 1801.15,850.224 1803.13,849.471 1805.11,849.66 1807.1,850.195 1809.08,850.362 1811.07,850.848 1813.05,851.765 1815.04,852.281 1817.02,853.316 1819.01,853.588 1820.99,854.924 1822.97,855.932 1824.96,857.461 1826.94,858.867 1828.93,861.003 1830.91,861.44 1832.9,861.515 1834.88,860.836 1836.87,860.315 1838.85,860.337 1840.83,861.019 1842.82,864.075 1844.8,867.391 1846.79,870.266 1848.77,873.191 1850.76,875.225 1852.74,877.261 1854.73,879.564 1856.71,881.207 1858.69,884.18 1860.68,886.16 1862.66,888.827 1864.65,891.774 1866.63,895.821 1868.62,899.701 1870.6,904.53 1872.59,906.775 1874.57,909.39 1876.55,911.328 1878.54,913.95 1880.52,914.45 1882.51,912.861 1884.49,910.513 1886.48,907.729 1888.46,904.364 1890.45,901.623 1892.43,899.34 1894.41,896.039 1896.4,893.047 1898.38,891.097 1900.37,889.559 1902.35,887.755 1904.34,886.304 1906.32,884.047 1908.3,882.633 1910.29,881.415 1912.27,880.284 1914.26,877.783 1916.24,876.033 1918.23,874.608 1920.21,873.283 1922.2,873.451 1924.18,874.852 1926.16,875.796 1928.15,877.069 1930.13,879.546 1932.12,882.389 1934.1,885.207 1936.09,888.661 1938.07,892.124 1940.06,894.032 1942.04,895.888 1944.02,897.065 1946.01,899.23 1947.99,900.6 1949.98,902.053 1951.96,902.69 1953.95,902.856 1955.93,902.561 1957.92,901.665 1959.9,901.261 1961.88,899.697 1963.87,898.031 1965.85,894.753 1967.84,892.149 1969.82,891.531 1971.81,891.166 1973.79,891.225 1975.78,890.644 1977.76,890.517 1979.74,890.083 1981.73,889.356 1983.71,888.94 1985.7,888.376 1987.68,885.594 1989.67,883.259 1991.65,881.185 1993.64,879.416 1995.62,877.67 1997.6,875.382 1999.59,874.028 2001.57,872.013 2003.56,872.056 2005.54,871.447 2007.53,871.052 2009.51,871.273 2011.49,870.988 2013.48,870.244 2015.46,869.833 2017.45,869.857 2019.43,869.475 2021.42,868.629 2023.4,868.706 2025.39,867.899 2027.37,866.392 2029.35,864.388 2031.34,862.034 2033.32,860.013 2035.31,857.615 2037.29,854.913 2039.28,852.335 2041.26,850.558 2043.25,849.596 2045.23,848.33 2047.21,847.158 2049.2,845.869 2051.18,844.406 2053.17,842.36 2055.15,841.017 2057.14,839.421 2059.12,838.523 2061.11,836.619 2063.09,834.711 2065.07,833.973 2067.06,832.897 2069.04,831.327 2071.03,829.623 2073.01,827.968 2075,827.063 2076.98,827.889 2078.97,829.164 2080.95,830.636 2082.93,832.939 2084.92,835.234 2086.9,837.009 2088.89,838.675 2090.87,839.266 2092.86,840.224 2094.84,840.804 2096.83,841.081 2098.81,841.521 2100.79,840.792 2102.78,839.645 2104.76,839.227 2106.75,839.362 2108.73,839.46 2110.72,840.837 2112.7,842.322 2114.68,843.938 2116.67,845.27 2118.65,846.578 2120.64,847.285 2122.62,848.073 2124.61,848.649 2126.59,849.097 2128.58,850.172 2130.56,850.486 2132.54,854.131 2134.53,858.321 2136.51,863.767 2138.5,869.964 2140.48,877.441 2142.47,883.654 2144.45,890.544 2146.44,897.379 2148.42,902.867 2150.4,907.838 2152.39,913.826 2154.37,918.058 2156.36,922.293 2158.34,925.903 2160.33,927.888 2162.31,930.419 2164.3,934.402 2166.28,938.311 2168.26,940.846 2170.25,941.836 2172.23,942.505 2174.22,943.424 2176.2,944.318 2178.19,945.788 2180.17,947.424 2182.16,948.639 2184.14,949.373 2186.12,952.188 2188.11,953.675 2190.09,954.854 2192.08,956.132 2194.06,955.849 2196.05,954.266 2198.03,952.291 2200.01,948.852 2202,944.122 2203.98,938.726 2205.97,933.795 2207.95,928.823 2209.94,925.731 2211.92,922.932 2213.91,919.843 2215.89,916.505 2217.87,916.214 2219.86,916.388 2221.84,918.098 2223.83,919.031 2225.81,919.625 2227.8,919.212 2229.78,918.041 2231.77,917.952 2233.75,918.124 2235.73,917.455 2237.72,916.487 2239.7,915.233 2241.69,913.638 2243.67,913.238 2245.66,912.26 2247.64,912.118 2249.63,912.257 2251.61,912.78 2253.59,913.176 2255.58,914.206 2257.56,912.053 2259.55,909 2261.53,906.16 2263.52,904.204 2265.5,902.15 2267.49,898.436 2269.47,895.413 2271.45,892.667 2273.44,889.943 2275.42,888.151 2277.41,886.74 2279.39,886.167 2281.38,885.806 2283.36,886.405 2285.35,887.61 2287.33,888.39 2289.31,888.845 2291.3,888.568 2293.28,887.613 "/>
<polyline clip-path="url(#clip992)" style="stroke:#e26f46; stroke-linecap:round; stroke-linejoin:round; stroke-width:4; stroke-opacity:1; fill:none" points="310.845,86.4404 312.83,87.707 314.814,88.9843 316.799,90.2677 318.783,91.5554 320.767,92.8475 322.752,94.1468 324.736,95.454 326.721,96.7668 328.705,98.0876 330.69,99.4133 332.674,100.744 334.658,102.079 336.643,103.42 338.627,104.766 340.612,106.116 342.596,107.472 344.58,108.832 346.565,110.2 348.549,111.572 350.534,112.948 352.518,114.33 354.503,115.715 356.487,117.107 358.471,118.503 360.456,119.902 362.44,121.308 364.425,122.718 366.409,124.134 368.394,125.556 370.378,126.982 372.362,128.414 374.347,129.85 376.331,131.289 378.316,132.733 380.3,134.182 382.284,135.636 384.269,137.095 386.253,138.558 388.238,140.026 390.222,141.498 392.207,142.974 394.191,144.455 396.175,145.941 398.16,147.43 400.144,148.924 402.129,150.422 404.113,151.922 406.098,153.429 408.082,154.94 410.066,156.456 412.051,157.977 414.035,159.503 416.02,161.033 418.004,162.568 419.989,164.109 421.973,165.653 423.957,167.201 425.942,168.754 427.926,170.31 429.911,171.871 431.895,173.435 433.879,175.004 435.864,176.578 437.848,178.154 439.833,179.734 441.817,181.319 443.802,182.908 445.786,184.503 447.77,186.102 449.755,187.705 451.739,189.315 453.724,190.932 455.708,192.551 457.693,194.176 459.677,195.805 461.661,197.44 463.646,199.081 465.63,200.726 467.615,202.377 469.599,204.032 471.583,205.693 473.568,207.356 475.552,209.023 477.537,210.695 479.521,212.373 481.506,214.057 483.49,215.745 485.474,217.438 487.459,219.132 489.443,220.826 491.428,222.525 493.412,224.228 495.397,225.935 497.381,227.645 499.365,229.359 501.35,231.08 503.334,232.809 505.319,234.545 507.303,236.284 509.287,238.027 511.272,239.775 513.256,241.527 515.241,243.283 517.225,245.041 519.21,246.811 521.194,248.585 523.178,250.363 525.163,252.147 527.147,253.938 529.132,255.734 531.116,257.537 533.101,259.345 535.085,261.158 537.069,262.973 539.054,264.794 541.038,266.619 543.023,268.451 545.007,270.289 546.992,272.127 548.976,273.971 550.96,275.818 552.945,277.669 554.929,279.53 556.914,281.396 558.898,283.265 560.882,285.139 562.867,287.016 564.851,288.895 566.836,290.779 568.82,292.661 570.805,294.545 572.789,296.433 574.773,298.328 576.758,300.223 578.742,302.123 580.727,304.036 582.711,305.951 584.696,307.871 586.68,309.791 588.664,311.723 590.649,313.661 592.633,315.611 594.618,317.57 596.602,319.53 598.586,321.491 600.571,323.467 602.555,325.463 604.54,327.466 606.524,329.478 608.509,331.504 610.493,333.532 612.477,335.574 614.462,337.621 616.446,339.667 618.431,341.724 620.415,343.789 622.4,345.853 624.384,347.916 626.368,349.986 628.353,352.06 630.337,354.137 632.322,356.212 634.306,358.291 636.29,360.372 638.275,362.452 640.259,364.535 642.244,366.615 644.228,368.699 646.213,370.791 648.197,372.888 650.181,374.994 652.166,377.108 654.15,379.239 656.135,381.379 658.119,383.526 660.104,385.683 662.088,387.84 664.072,390.001 666.057,392.165 668.041,394.325 670.026,396.48 672.01,398.645 673.995,400.811 675.979,402.993 677.963,405.178 679.948,407.37 681.932,409.576 683.917,411.787 685.901,414.003 687.885,416.218 689.87,418.428 691.854,420.638 693.839,422.843 695.823,425.067 697.808,427.31 699.792,429.562 701.776,431.834 703.761,434.102 705.745,436.373 707.73,438.641 709.714,440.903 711.699,443.172 713.683,445.45 715.667,447.743 717.652,450.046 719.636,452.354 721.621,454.678 723.605,457.034 725.589,459.39 727.574,461.745 729.558,464.081 731.543,466.425 733.527,468.775 735.512,471.125 737.496,473.48 739.48,475.827 741.465,478.176 743.449,480.535 745.434,482.918 747.418,485.305 749.403,487.686 751.387,490.085 753.371,492.493 755.356,494.907 757.34,497.312 759.325,499.707 761.309,502.102 763.293,504.498 765.278,506.913 767.262,509.332 769.247,511.763 771.231,514.207 773.216,516.636 775.2,519.09 777.184,521.538 779.169,523.957 781.153,526.379 783.138,528.831 785.122,531.252 787.107,533.686 789.091,536.125 791.075,538.605 793.06,541.124 795.044,543.67 797.029,546.222 799.013,548.785 800.998,551.337 802.982,553.868 804.966,556.425 806.951,559.014 808.935,561.592 810.92,564.152 812.904,566.737 814.888,569.334 816.873,571.896 818.857,574.465 820.842,577.032 822.826,579.598 824.811,582.152 826.795,584.69 828.779,587.222 830.764,589.783 832.748,592.373 834.733,594.989 836.717,597.641 838.702,600.313 840.686,603.043 842.67,605.762 844.655,608.506 846.639,611.261 848.624,614.003 850.608,616.762 852.592,619.521 854.577,622.357 856.561,625.162 858.546,627.956 860.53,630.744 862.515,633.554 864.499,636.378 866.483,639.215 868.468,642.031 870.452,644.815 872.437,647.578 874.421,650.334 876.406,653.055 878.39,655.787 880.374,658.513 882.359,661.232 884.343,663.968 886.328,666.695 888.312,669.389 890.296,672.06 892.281,674.693 894.265,677.352 896.25,679.996 898.234,682.613 900.219,685.141 902.203,687.707 904.187,690.4 906.172,693.108 908.156,695.888 910.141,698.692 912.125,701.529 914.11,704.391 916.094,707.177 918.078,710.156 920.063,713.162 922.047,716.109 924.032,719.094 926.016,722.143 928.001,725.175 929.985,728.216 931.969,731.238 933.954,734.349 935.938,737.325 937.923,740.297 939.907,743.345 941.891,746.505 943.876,749.578 945.86,752.67 947.845,755.723 949.829,758.865 951.814,761.922 953.798,765.007 955.782,768.149 957.767,771.237 959.751,774.229 961.736,777.241 963.72,780.46 965.705,783.718 967.689,786.776 969.673,789.725 971.658,792.734 973.642,795.694 975.627,798.445 977.611,800.974 979.595,803.477 981.58,806.155 983.564,809.094 985.549,812.04 987.533,815.035 989.518,817.857 991.502,820.706 993.486,823.72 995.471,826.756 997.455,829.878 999.44,833.015 1001.42,836.011 1003.41,839.198 1005.39,842.441 1007.38,845.777 1009.36,849.258 1011.35,852.585 1013.33,855.916 1015.32,859.213 1017.3,862.506 1019.28,865.537 1021.27,868.56 1023.25,871.478 1025.24,874.345 1027.22,876.974 1029.21,879.748 1031.19,882.741 1033.17,885.989 1035.16,888.907 1037.14,891.871 1039.13,894.728 1041.11,897.903 1043.1,901.397 1045.08,904.58 1047.07,907.425 1049.05,910.369 1051.03,912.698 1053.02,914.999 1055,917.15 1056.99,919.348 1058.97,921.755 1060.96,924.245 1062.94,926.59 1064.93,929.786 1066.91,933.262 1068.89,936.299 1070.88,939.496 1072.86,943.101 1074.85,946.802 1076.83,950.582 1078.82,954.975 1080.8,959.211 1082.79,963.124 1084.77,966.466 1086.75,970.024 1088.74,973.561 1090.72,977.33 1092.71,981.307 1094.69,985.551 1096.68,989.529 1098.66,993.715 1100.65,997.646 1102.63,1000.96 1104.61,1004.36 1106.6,1007.02 1108.58,1008.82 1110.57,1010.03 1112.55,1010.95 1114.54,1012.19 1116.52,1012.86 1118.51,1012.88 1120.49,1013.85 1122.47,1014.63 1124.46,1016.06 1126.44,1017.22 1128.43,1018.98 1130.41,1019.92 1132.4,1023.18 1134.38,1025.53 1136.36,1026.55 1138.35,1026.87 1140.33,1028.4 1142.32,1032.68 1144.3,1037.6 1146.29,1042.99 1148.27,1049.3 1150.26,1056.09 1152.24,1063.39 1154.22,1070.62 1156.21,1077.38 1158.19,1083.4 1160.18,1088.06 1162.16,1092.56 1164.15,1096.8 1166.13,1101.34 1168.12,1104.96 1170.1,1110.12 1172.08,1114.97 1174.07,1118.12 1176.05,1122.11 1178.04,1126.25 1180.02,1130.69 1182.01,1133.93 1183.99,1136.3 1185.98,1138.98 1187.96,1141.29 1189.94,1144.14 1191.93,1146.87 1193.91,1148.18 1195.9,1147.08 1197.88,1145 1199.87,1142.87 1201.85,1141.23 1203.84,1137.93 1205.82,1134.79 1207.8,1131.46 1209.79,1128.55 1211.77,1125.28 1213.76,1122.87 1215.74,1117.31 1217.73,1114.04 1219.71,1115.72 1221.69,1118.16 1223.68,1121.04 1225.66,1123.17 1227.65,1122.82 1229.63,1122.66 1231.62,1124.16 1233.6,1126.3 1235.59,1125.23 1237.57,1123.84 1239.55,1121.77 1241.54,1121.42 1243.52,1120.63 1245.51,1119.14 1247.49,1118.84 1249.48,1125.92 1251.46,1132.93 1253.45,1138.07 1255.43,1138.71 1257.41,1137.65 1259.4,1135.93 1261.38,1136.4 1263.37,1140.27 1265.35,1144.66 1267.34,1150.59 1269.32,1157.56 1271.31,1160.75 1273.29,1163.13 1275.27,1166.91 1277.26,1175.26 1279.24,1181.47 1281.23,1187.86 1283.21,1188.32 1285.2,1190.97 1287.18,1192.53 1289.17,1194.37 1291.15,1194.51 1293.13,1194.79 1295.12,1195.04 1297.1,1193.2 1299.09,1192.29 1301.07,1194.26 1303.06,1201.36 1305.04,1204.83 1307.03,1208.91 1309.01,1215.87 1310.99,1222.41 1312.98,1229.26 1314.96,1242.22 1316.95,1257.77 1318.93,1275.11 1320.92,1287.99 1322.9,1296.61 1324.88,1304.25 1326.87,1300.02 1328.85,1289.84 1330.84,1276.2 1332.82,1262.78 1334.81,1252.4 1336.79,1243.9 1338.78,1237.75 1340.76,1235.52 1342.74,1234.16 1344.73,1235.37 1346.71,1235.14 1348.7,1241.02 1350.68,1249.14 1352.67,1258.22 1354.65,1265.94 1356.64,1272.48 1358.62,1271.12 1360.6,1263.09 1362.59,1252.21 1364.57,1241.64 1366.56,1226.66 1368.54,1219.64 1370.53,1217.36 1372.51,1214.48 1374.5,1211.65 1376.48,1204.41 1378.46,1195.1 1380.45,1190.82 1382.43,1189.88 1384.42,1189.08 1386.4,1193.21 1388.39,1196.6 1390.37,1194.22 1392.36,1193.16 1394.34,1192.44 1396.32,1194.93 1398.31,1196.1 1400.29,1203.77 1402.28,1216.09 1404.26,1224.56 1406.25,1232.63 1408.23,1231.25 1410.22,1224.42 1412.2,1214.37 1414.18,1205.71 1416.17,1195.27 1418.15,1191.59 1420.14,1187.68 1422.12,1187.98 1424.11,1184.99 1426.09,1184.66 1428.07,1186.74 1430.06,1187.21 1432.04,1188.52 1434.03,1193.91 1436.01,1197.38 1438,1201.9 1439.98,1209.65 1441.97,1219.96 1443.95,1229.25 1445.93,1231.95 1447.92,1235.74 1449.9,1237.35 1451.89,1237.04 1453.87,1237.96 1455.86,1237.51 1457.84,1237.45 1459.83,1235.53 1461.81,1231.4 1463.79,1230.35 1465.78,1237.72 1467.76,1252.36 1469.75,1265.21 1471.73,1276.67 1473.72,1290.53 1475.7,1296.3 1477.69,1296.84 1479.67,1290.5 1481.65,1281.41 1483.64,1268.62 1485.62,1258.12 1487.61,1249.56 1489.59,1241.4 1491.58,1231.66 1493.56,1220.82 1495.55,1212.12 1497.53,1210.09 1499.51,1208.5 1501.5,1208.44 1503.48,1211.72 1505.47,1216.66 1507.45,1223.7 1509.44,1233.41 1511.42,1240.82 1513.4,1248.91 1515.39,1258.48 1517.37,1274.07 1519.36,1287.75 1521.34,1297.13 1523.33,1298.14 1525.31,1290.44 1527.3,1277.23 1529.28,1260.52 1531.26,1243.24 1533.25,1230.69 1535.23,1220.92 1537.22,1207.79 1539.2,1201.85 1541.19,1198.72 1543.17,1194.17 1545.16,1195.32 1547.14,1196.29 1549.12,1195.51 1551.11,1190.53 1553.09,1185.98 1555.08,1183.5 1557.06,1183.95 1559.05,1191.78 1561.03,1202.05 1563.02,1208.73 1565,1214.08 1566.98,1213.56 1568.97,1210.55 1570.95,1201.64 1572.94,1196.55 1574.92,1195.85 1576.91,1193.58 1578.89,1199.25 1580.88,1206.88 1582.86,1216.1 1584.84,1218.75 1586.83,1213.23 1588.81,1206.27 1590.8,1198.89 1592.78,1192.65 1594.77,1188.21 1596.75,1186.52 1598.74,1190.14 1600.72,1196.43 1602.7,1199.26 1604.69,1204.59 1606.67,1210.67 1608.66,1220.85 1610.64,1225.64 1612.63,1238.05 1614.61,1253.95 1616.59,1273.4 1618.58,1292.56 1620.56,1306.12 1622.55,1311.65 1624.53,1318.14 1626.52,1318.66 1628.5,1310.8 1630.49,1295.66 1632.47,1277.28 1634.45,1262.81 1636.44,1251.39 1638.42,1244.72 1640.41,1239.3 1642.39,1230.86 1644.38,1226.51 1646.36,1219.26 1648.35,1214.39 1650.33,1207.9 1652.31,1206.37 1654.3,1206.47 1656.28,1206.17 1658.27,1207.48 1660.25,1210.74 1662.24,1214.71 1664.22,1223.03 1666.21,1224.68 1668.19,1233.94 1670.17,1242.47 1672.16,1252.87 1674.14,1268.6 1676.13,1282.68 1678.11,1298.66 1680.1,1315.5 1682.08,1326.47 1684.07,1327.94 1686.05,1342.5 1688.03,1351.37 1690.02,1353.46 1692,1346.11 1693.99,1337.86 1695.97,1324.49 1697.96,1314.41 1699.94,1314.63 1701.93,1316.58 1703.91,1320 1705.89,1325.01 1707.88,1323.24 1709.86,1318.65 1711.85,1318.35 1713.83,1318.81 1715.82,1311.98 1717.8,1306.18 1719.78,1298.74 1721.77,1281.28 1723.75,1268.57 1725.74,1254.8 1727.72,1241.59 1729.71,1231.9 1731.69,1228.82 1733.68,1229.88 1735.66,1235.41 1737.64,1244.55 1739.63,1259.73 1741.61,1274.86 1743.6,1290.03 1745.58,1304.34 1747.57,1320 1749.55,1342.45 1751.54,1357.93 1753.52,1366.91 1755.5,1359.54 1757.49,1349.26 1759.47,1336.44 1761.46,1318.41 1763.44,1299.84 1765.43,1290.05 1767.41,1284.65 1769.4,1281.74 1771.38,1291.65 1773.36,1305.57 1775.35,1312.22 1777.33,1307.71 1779.32,1294.86 1781.3,1278.47 1783.29,1262.08 1785.27,1241.24 1787.26,1227.71 1789.24,1219.2 1791.22,1216.11 1793.21,1212.01 1795.19,1215.4 1797.18,1223.81 1799.16,1232.11 1801.15,1241.9 1803.13,1253.69 1805.11,1259.65 1807.1,1261.01 1809.08,1252.18 1811.07,1237.63 1813.05,1222.34 1815.04,1212.53 1817.02,1214.48 1819.01,1214.74 1820.99,1213.06 1822.97,1206.57 1824.96,1202.79 1826.94,1199.12 1828.93,1197.55 1830.91,1198.66 1832.9,1204.16 1834.88,1208.44 1836.87,1214.45 1838.85,1215.78 1840.83,1216.62 1842.82,1219.88 1844.8,1224.5 1846.79,1231.25 1848.77,1241.54 1850.76,1254.37 1852.74,1265.15 1854.73,1278.68 1856.71,1284.08 1858.69,1294.36 1860.68,1297.93 1862.66,1300.06 1864.65,1300.42 1866.63,1296.9 1868.62,1292.69 1870.6,1297.17 1872.59,1290.51 1874.57,1282.89 1876.55,1272.64 1878.54,1262.21 1880.52,1252.04 1882.51,1246.45 1884.49,1241.84 1886.48,1237.88 1888.46,1232.19 1890.45,1226.37 1892.43,1222.7 1894.41,1220.91 1896.4,1218.91 1898.38,1224.7 1900.37,1230.33 1902.35,1251.09 1904.34,1273.43 1906.32,1286.62 1908.3,1296.63 1910.29,1300.56 1912.27,1311.19 1914.26,1318.33 1916.24,1320.06 1918.23,1323.2 1920.21,1321.28 1922.2,1315.64 1924.18,1306.94 1926.16,1299.46 1928.15,1295.48 1930.13,1296.03 1932.12,1289.23 1934.1,1284.24 1936.09,1274.19 1938.07,1261.63 1940.06,1255.01 1942.04,1250.17 1944.02,1248.44 1946.01,1250.66 1947.99,1252.74 1949.98,1248 1951.96,1246.11 1953.95,1245.63 1955.93,1246.38 1957.92,1255.08 1959.9,1262.53 1961.88,1267.45 1963.87,1274.42 1965.85,1280.58 1967.84,1286.14 1969.82,1293.47 1971.81,1289.55 1973.79,1281.47 1975.78,1279.65 1977.76,1279.5 1979.74,1280.87 1981.73,1280.29 1983.71,1284.86 1985.7,1290.35 1987.68,1300.17 1989.67,1309.37 1991.65,1311.02 1993.64,1305.6 1995.62,1295.84 1997.6,1286.53 1999.59,1276.21 2001.57,1264.64 2003.56,1249 2005.54,1236.98 2007.53,1228.52 2009.51,1226.25 2011.49,1225.18 2013.48,1228.35 2015.46,1231.87 2017.45,1237.2 2019.43,1244.92 2021.42,1253.26 2023.4,1268.56 2025.39,1285.35 2027.37,1302.17 2029.35,1313.77 2031.34,1336.29 2033.32,1356.68 2035.31,1377.93 2037.29,1384.24 2039.28,1374.91 2041.26,1357.12 2043.25,1333.13 2045.23,1312.42 2047.21,1295.7 2049.2,1287.88 2051.18,1282.56 2053.17,1275.05 2055.15,1274.1 2057.14,1276.13 2059.12,1279.74 2061.11,1286.16 2063.09,1295.4 2065.07,1299.05 2067.06,1304.73 2069.04,1308.5 2071.03,1315.49 2073.01,1323.86 2075,1330.86 2076.98,1333.31 2078.97,1327.99 2080.95,1309.81 2082.93,1289.4 2084.92,1265.88 2086.9,1248.11 2088.89,1237.99 2090.87,1228.09 2092.86,1221.78 2094.84,1219.03 2096.83,1220.47 2098.81,1223.88 2100.79,1233.71 2102.78,1244.89 2104.76,1259.43 2106.75,1278.61 2108.73,1291.33 2110.72,1309.2 2112.7,1322.39 2114.68,1332.31 2116.67,1338.9 2118.65,1342.04 2120.64,1342.12 2122.62,1347.08 2124.61,1343.34 2126.59,1333.96 2128.58,1336.04 2130.56,1324.39 2132.54,1310.96 2134.53,1293.11 2136.51,1277.72 2138.5,1265.77 2140.48,1255.35 2142.47,1241.84 2144.45,1232.37 2146.44,1223.26 2148.42,1216.36 2150.4,1213.88 2152.39,1211.64 2154.37,1214.27 2156.36,1224.58 2158.34,1233.31 2160.33,1245.87 2162.31,1254.13 2164.3,1260.54 2166.28,1265.48 2168.26,1265.01 2170.25,1264.72 2172.23,1263.3 2174.22,1262.78 2176.2,1262.2 2178.19,1264.31 2180.17,1262.02 2182.16,1263.32 2184.14,1264.8 2186.12,1265.82 2188.11,1272.16 2190.09,1273.6 2192.08,1270.3 2194.06,1261.18 2196.05,1253.6 2198.03,1251.74 2200.01,1253.74 2202,1254.42 2203.98,1252.3 2205.97,1249.81 2207.95,1250.57 2209.94,1256.93 2211.92,1267.9 2213.91,1282.78 2215.89,1300.6 2217.87,1312.76 2219.86,1318.39 2221.84,1308.26 2223.83,1296.46 2225.81,1289.14 2227.8,1282.13 2229.78,1277.74 2231.77,1277.26 2233.75,1275.86 2235.73,1271.92 2237.72,1268.01 2239.7,1266.15 2241.69,1259.72 2243.67,1250.46 2245.66,1241.4 2247.64,1235.84 2249.63,1232.6 2251.61,1229.83 2253.59,1219.52 2255.58,1207.49 2257.56,1197.35 2259.55,1187.66 2261.53,1182.48 2263.52,1174.62 2265.5,1168.16 2267.49,1164.5 2269.47,1158.25 2271.45,1150.12 2273.44,1142.56 2275.42,1133.95 2277.41,1129.88 2279.39,1124.66 2281.38,1116.81 2283.36,1107.91 2285.35,1102.08 2287.33,1098.77 2289.31,1097.48 2291.3,1097.86 2293.28,1096.98 "/>
<path clip-path="url(#clip990)" d="M1738.01 248.629 L2282.71 248.629 L2282.71 93.1086 L1738.01 93.1086  Z" fill="#ffffff" fill-rule="evenodd" fill-opacity="1"/>
<polyline clip-path="url(#clip990)" style="stroke:#000000; stroke-linecap:round; stroke-linejoin:round; stroke-width:4; stroke-opacity:1; fill:none" points="1738.01,248.629 2282.71,248.629 2282.71,93.1086 1738.01,93.1086 1738.01,248.629 "/>
<polyline clip-path="url(#clip990)" style="stroke:#009af9; stroke-linecap:round; stroke-linejoin:round; stroke-width:4; stroke-opacity:1; fill:none" points="1761.36,144.949 1901.45,144.949 "/>
<path clip-path="url(#clip990)" d="M1929.48 145.724 L1929.48 158.386 L1936.98 158.386 Q1940.75 158.386 1942.56 156.835 Q1944.39 155.261 1944.39 152.043 Q1944.39 148.803 1942.56 147.275 Q1940.75 145.724 1936.98 145.724 L1929.48 145.724 M1929.48 131.511 L1929.48 141.928 L1936.4 141.928 Q1939.83 141.928 1941.49 140.655 Q1943.18 139.358 1943.18 136.719 Q1943.18 134.104 1941.49 132.807 Q1939.83 131.511 1936.4 131.511 L1929.48 131.511 M1924.8 127.669 L1936.75 127.669 Q1942.09 127.669 1944.99 129.891 Q1947.88 132.113 1947.88 136.21 Q1947.88 139.382 1946.4 141.257 Q1944.92 143.131 1942.05 143.594 Q1945.5 144.335 1947.4 146.696 Q1949.32 149.034 1949.32 152.553 Q1949.32 157.182 1946.17 159.705 Q1943.02 162.229 1937.21 162.229 L1924.8 162.229 L1924.8 127.669 Z" fill="#000000" fill-rule="nonzero" fill-opacity="1" /><path clip-path="url(#clip990)" d="M1962 145.724 L1962 158.386 L1969.5 158.386 Q1973.27 158.386 1975.08 156.835 Q1976.91 155.261 1976.91 152.043 Q1976.91 148.803 1975.08 147.275 Q1973.27 145.724 1969.5 145.724 L1962 145.724 M1962 131.511 L1962 141.928 L1968.92 141.928 Q1972.35 141.928 1974.02 140.655 Q1975.71 139.358 1975.71 136.719 Q1975.71 134.104 1974.02 132.807 Q1972.35 131.511 1968.92 131.511 L1962 131.511 M1957.33 127.669 L1969.27 127.669 Q1974.62 127.669 1977.51 129.891 Q1980.4 132.113 1980.4 136.21 Q1980.4 139.382 1978.92 141.257 Q1977.44 143.131 1974.57 143.594 Q1978.02 144.335 1979.92 146.696 Q1981.84 149.034 1981.84 152.553 Q1981.84 157.182 1978.69 159.705 Q1975.54 162.229 1969.73 162.229 L1957.33 162.229 L1957.33 127.669 Z" fill="#000000" fill-rule="nonzero" fill-opacity="1" /><path clip-path="url(#clip990)" d="M1997.3 162.229 L1984.11 127.669 L1988.99 127.669 L1999.94 156.766 L2010.91 127.669 L2015.77 127.669 L2002.6 162.229 L1997.3 162.229 Z" fill="#000000" fill-rule="nonzero" fill-opacity="1" /><path clip-path="url(#clip990)" d="M2020.82 127.669 L2025.5 127.669 L2025.5 162.229 L2020.82 162.229 L2020.82 127.669 Z" fill="#000000" fill-rule="nonzero" fill-opacity="1" /><path clip-path="url(#clip990)" d="M2075.75 130.331 L2075.75 135.261 Q2073.39 133.062 2070.7 131.974 Q2068.04 130.886 2065.03 130.886 Q2059.11 130.886 2055.96 134.52 Q2052.81 138.132 2052.81 144.983 Q2052.81 151.812 2055.96 155.446 Q2059.11 159.057 2065.03 159.057 Q2068.04 159.057 2070.7 157.969 Q2073.39 156.881 2075.75 154.682 L2075.75 159.567 Q2073.3 161.233 2070.54 162.067 Q2067.81 162.9 2064.76 162.9 Q2056.91 162.9 2052.39 158.108 Q2047.88 153.293 2047.88 144.983 Q2047.88 136.65 2052.39 131.858 Q2056.91 127.044 2064.76 127.044 Q2067.86 127.044 2070.59 127.877 Q2073.34 128.687 2075.75 130.331 Z" fill="#000000" fill-rule="nonzero" fill-opacity="1" /><path clip-path="url(#clip990)" d="M2082.97 127.669 L2102.83 127.669 L2102.83 131.604 L2087.65 131.604 L2087.65 141.789 L2101.35 141.789 L2101.35 145.724 L2087.65 145.724 L2087.65 162.229 L2082.97 162.229 L2082.97 127.669 Z" fill="#000000" fill-rule="nonzero" fill-opacity="1" /><path clip-path="url(#clip990)" d="M2110.24 127.669 L2132.09 127.669 L2132.09 131.604 L2114.92 131.604 L2114.92 141.835 L2131.38 141.835 L2131.38 145.77 L2114.92 145.77 L2114.92 158.293 L2132.51 158.293 L2132.51 162.229 L2110.24 162.229 L2110.24 127.669 Z" fill="#000000" fill-rule="nonzero" fill-opacity="1" /><polyline clip-path="url(#clip990)" style="stroke:#e26f46; stroke-linecap:round; stroke-linejoin:round; stroke-width:4; stroke-opacity:1; fill:none" points="1761.36,196.789 1901.45,196.789 "/>
<path clip-path="url(#clip990)" d="M1929.48 197.564 L1929.48 210.226 L1936.98 210.226 Q1940.75 210.226 1942.56 208.675 Q1944.39 207.101 1944.39 203.883 Q1944.39 200.643 1942.56 199.115 Q1940.75 197.564 1936.98 197.564 L1929.48 197.564 M1929.48 183.351 L1929.48 193.768 L1936.4 193.768 Q1939.83 193.768 1941.49 192.495 Q1943.18 191.198 1943.18 188.559 Q1943.18 185.944 1941.49 184.647 Q1939.83 183.351 1936.4 183.351 L1929.48 183.351 M1924.8 179.509 L1936.75 179.509 Q1942.09 179.509 1944.99 181.731 Q1947.88 183.953 1947.88 188.05 Q1947.88 191.222 1946.4 193.097 Q1944.92 194.971 1942.05 195.434 Q1945.5 196.175 1947.4 198.536 Q1949.32 200.874 1949.32 204.393 Q1949.32 209.022 1946.17 211.545 Q1943.02 214.069 1937.21 214.069 L1924.8 214.069 L1924.8 179.509 Z" fill="#000000" fill-rule="nonzero" fill-opacity="1" /><path clip-path="url(#clip990)" d="M1962 197.564 L1962 210.226 L1969.5 210.226 Q1973.27 210.226 1975.08 208.675 Q1976.91 207.101 1976.91 203.883 Q1976.91 200.643 1975.08 199.115 Q1973.27 197.564 1969.5 197.564 L1962 197.564 M1962 183.351 L1962 193.768 L1968.92 193.768 Q1972.35 193.768 1974.02 192.495 Q1975.71 191.198 1975.71 188.559 Q1975.71 185.944 1974.02 184.647 Q1972.35 183.351 1968.92 183.351 L1962 183.351 M1957.33 179.509 L1969.27 179.509 Q1974.62 179.509 1977.51 181.731 Q1980.4 183.953 1980.4 188.05 Q1980.4 191.222 1978.92 193.097 Q1977.44 194.971 1974.57 195.434 Q1978.02 196.175 1979.92 198.536 Q1981.84 200.874 1981.84 204.393 Q1981.84 209.022 1978.69 211.545 Q1975.54 214.069 1969.73 214.069 L1957.33 214.069 L1957.33 179.509 Z" fill="#000000" fill-rule="nonzero" fill-opacity="1" /><path clip-path="url(#clip990)" d="M1997.3 214.069 L1984.11 179.509 L1988.99 179.509 L1999.94 208.606 L2010.91 179.509 L2015.77 179.509 L2002.6 214.069 L1997.3 214.069 Z" fill="#000000" fill-rule="nonzero" fill-opacity="1" /><path clip-path="url(#clip990)" d="M2020.82 179.509 L2025.5 179.509 L2025.5 214.069 L2020.82 214.069 L2020.82 179.509 Z" fill="#000000" fill-rule="nonzero" fill-opacity="1" /><path clip-path="url(#clip990)" d="M2075.75 182.171 L2075.75 187.101 Q2073.39 184.902 2070.7 183.814 Q2068.04 182.726 2065.03 182.726 Q2059.11 182.726 2055.96 186.36 Q2052.81 189.972 2052.81 196.823 Q2052.81 203.652 2055.96 207.286 Q2059.11 210.897 2065.03 210.897 Q2068.04 210.897 2070.7 209.809 Q2073.39 208.721 2075.75 206.522 L2075.75 211.407 Q2073.3 213.073 2070.54 213.907 Q2067.81 214.74 2064.76 214.74 Q2056.91 214.74 2052.39 209.948 Q2047.88 205.133 2047.88 196.823 Q2047.88 188.49 2052.39 183.698 Q2056.91 178.884 2064.76 178.884 Q2067.86 178.884 2070.59 179.717 Q2073.34 180.527 2075.75 182.171 Z" fill="#000000" fill-rule="nonzero" fill-opacity="1" /><path clip-path="url(#clip990)" d="M2082.97 179.509 L2102.83 179.509 L2102.83 183.444 L2087.65 183.444 L2087.65 193.629 L2101.35 193.629 L2101.35 197.564 L2087.65 197.564 L2087.65 214.069 L2082.97 214.069 L2082.97 179.509 Z" fill="#000000" fill-rule="nonzero" fill-opacity="1" /><path clip-path="url(#clip990)" d="M2110.24 179.509 L2132.09 179.509 L2132.09 183.444 L2114.92 183.444 L2114.92 193.675 L2131.38 193.675 L2131.38 197.61 L2114.92 197.61 L2114.92 210.133 L2132.51 210.133 L2132.51 214.069 L2110.24 214.069 L2110.24 179.509 Z" fill="#000000" fill-rule="nonzero" fill-opacity="1" /><path clip-path="url(#clip990)" d="M2169.29 182.68 Q2164.2 182.68 2161.19 186.476 Q2158.2 190.272 2158.2 196.823 Q2158.2 203.351 2161.19 207.147 Q2164.2 210.944 2169.29 210.944 Q2174.38 210.944 2177.35 207.147 Q2180.33 203.351 2180.33 196.823 Q2180.33 190.272 2177.35 186.476 Q2174.38 182.68 2169.29 182.68 M2175.84 213.444 L2182 220.18 L2176.35 220.18 L2171.24 214.647 Q2170.47 214.694 2170.06 214.717 Q2169.66 214.74 2169.29 214.74 Q2162 214.74 2157.63 209.879 Q2153.27 204.995 2153.27 196.823 Q2153.27 188.629 2157.63 183.768 Q2162 178.884 2169.29 178.884 Q2176.56 178.884 2180.91 183.768 Q2185.26 188.629 2185.26 196.823 Q2185.26 202.842 2182.83 207.124 Q2180.43 211.407 2175.84 213.444 Z" fill="#000000" fill-rule="nonzero" fill-opacity="1" /><path clip-path="url(#clip990)" d="M2192.58 179.509 L2199.55 179.509 L2208.37 203.027 L2217.23 179.509 L2224.2 179.509 L2224.2 214.069 L2219.64 214.069 L2219.64 183.722 L2210.73 207.425 L2206.03 207.425 L2197.12 183.722 L2197.12 214.069 L2192.58 214.069 L2192.58 179.509 Z" fill="#000000" fill-rule="nonzero" fill-opacity="1" /><path clip-path="url(#clip990)" d="M2259.36 182.171 L2259.36 187.101 Q2257 184.902 2254.31 183.814 Q2251.65 182.726 2248.64 182.726 Q2242.72 182.726 2239.57 186.36 Q2236.42 189.972 2236.42 196.823 Q2236.42 203.652 2239.57 207.286 Q2242.72 210.897 2248.64 210.897 Q2251.65 210.897 2254.31 209.809 Q2257 208.721 2259.36 206.522 L2259.36 211.407 Q2256.91 213.073 2254.15 213.907 Q2251.42 214.74 2248.37 214.74 Q2240.52 214.74 2236 209.948 Q2231.49 205.133 2231.49 196.823 Q2231.49 188.49 2236 183.698 Q2240.52 178.884 2248.37 178.884 Q2251.47 178.884 2254.2 179.717 Q2256.95 180.527 2259.36 182.171 Z" fill="#000000" fill-rule="nonzero" fill-opacity="1" /></svg>
