<?xml version="1.0" encoding="utf-8"?>
<svg xmlns="http://www.w3.org/2000/svg" xmlns:xlink="http://www.w3.org/1999/xlink" width="600" height="400" viewBox="0 0 2400 1600">
<defs>
  <clipPath id="clip890">
    <rect x="0" y="0" width="2400" height="1600"/>
  </clipPath>
</defs>
<path clip-path="url(#clip890)" d="M0 1600 L2400 1600 L2400 0 L0 0  Z" fill="#ffffff" fill-rule="evenodd" fill-opacity="1"/>
<defs>
  <clipPath id="clip891">
    <rect x="480" y="0" width="1681" height="1600"/>
  </clipPath>
</defs>
<path clip-path="url(#clip890)" d="M242.135 1423.18 L2352.76 1423.18 L2352.76 47.2441 L242.135 47.2441  Z" fill="#ffffff" fill-rule="evenodd" fill-opacity="1"/>
<defs>
  <clipPath id="clip892">
    <rect x="242" y="47" width="2112" height="1377"/>
  </clipPath>
</defs>
<polyline clip-path="url(#clip892)" style="stroke:#000000; stroke-linecap:round; stroke-linejoin:round; stroke-width:2; stroke-opacity:0.1; fill:none" points="301.205,1423.18 301.205,47.2441 "/>
<polyline clip-path="url(#clip892)" style="stroke:#000000; stroke-linecap:round; stroke-linejoin:round; stroke-width:2; stroke-opacity:0.1; fill:none" points="965.144,1423.18 965.144,47.2441 "/>
<polyline clip-path="url(#clip892)" style="stroke:#000000; stroke-linecap:round; stroke-linejoin:round; stroke-width:2; stroke-opacity:0.1; fill:none" points="1629.08,1423.18 1629.08,47.2441 "/>
<polyline clip-path="url(#clip892)" style="stroke:#000000; stroke-linecap:round; stroke-linejoin:round; stroke-width:2; stroke-opacity:0.1; fill:none" points="2293.02,1423.18 2293.02,47.2441 "/>
<polyline clip-path="url(#clip892)" style="stroke:#000000; stroke-linecap:round; stroke-linejoin:round; stroke-width:2; stroke-opacity:0.1; fill:none" points="242.135,1423.18 2352.76,1423.18 "/>
<polyline clip-path="url(#clip892)" style="stroke:#000000; stroke-linecap:round; stroke-linejoin:round; stroke-width:2; stroke-opacity:0.1; fill:none" points="242.135,1050.72 2352.76,1050.72 "/>
<polyline clip-path="url(#clip892)" style="stroke:#000000; stroke-linecap:round; stroke-linejoin:round; stroke-width:2; stroke-opacity:0.1; fill:none" points="242.135,678.267 2352.76,678.267 "/>
<polyline clip-path="url(#clip892)" style="stroke:#000000; stroke-linecap:round; stroke-linejoin:round; stroke-width:2; stroke-opacity:0.1; fill:none" points="242.135,305.81 2352.76,305.81 "/>
<polyline clip-path="url(#clip890)" style="stroke:#000000; stroke-linecap:round; stroke-linejoin:round; stroke-width:4; stroke-opacity:1; fill:none" points="242.135,1423.18 2352.76,1423.18 "/>
<polyline clip-path="url(#clip890)" style="stroke:#000000; stroke-linecap:round; stroke-linejoin:round; stroke-width:4; stroke-opacity:1; fill:none" points="301.205,1423.18 301.205,1404.28 "/>
<polyline clip-path="url(#clip890)" style="stroke:#000000; stroke-linecap:round; stroke-linejoin:round; stroke-width:4; stroke-opacity:1; fill:none" points="965.144,1423.18 965.144,1404.28 "/>
<polyline clip-path="url(#clip890)" style="stroke:#000000; stroke-linecap:round; stroke-linejoin:round; stroke-width:4; stroke-opacity:1; fill:none" points="1629.08,1423.18 1629.08,1404.28 "/>
<polyline clip-path="url(#clip890)" style="stroke:#000000; stroke-linecap:round; stroke-linejoin:round; stroke-width:4; stroke-opacity:1; fill:none" points="2293.02,1423.18 2293.02,1404.28 "/>
<path clip-path="url(#clip890)" d="M301.205 1454.1 Q297.594 1454.1 295.766 1457.66 Q293.96 1461.2 293.96 1468.33 Q293.96 1475.44 295.766 1479.01 Q297.594 1482.55 301.205 1482.55 Q304.84 1482.55 306.645 1479.01 Q308.474 1475.44 308.474 1468.33 Q308.474 1461.2 306.645 1457.66 Q304.84 1454.1 301.205 1454.1 M301.205 1450.39 Q307.015 1450.39 310.071 1455 Q313.15 1459.58 313.15 1468.33 Q313.15 1477.06 310.071 1481.67 Q307.015 1486.25 301.205 1486.25 Q295.395 1486.25 292.316 1481.67 Q289.261 1477.06 289.261 1468.33 Q289.261 1459.58 292.316 1455 Q295.395 1450.39 301.205 1450.39 Z" fill="#000000" fill-rule="nonzero" fill-opacity="1" /><path clip-path="url(#clip890)" d="M909.67 1481.64 L917.309 1481.64 L917.309 1455.28 L908.998 1456.95 L908.998 1452.69 L917.262 1451.02 L921.938 1451.02 L921.938 1481.64 L929.577 1481.64 L929.577 1485.58 L909.67 1485.58 L909.67 1481.64 Z" fill="#000000" fill-rule="nonzero" fill-opacity="1" /><path clip-path="url(#clip890)" d="M949.021 1454.1 Q945.41 1454.1 943.582 1457.66 Q941.776 1461.2 941.776 1468.33 Q941.776 1475.44 943.582 1479.01 Q945.41 1482.55 949.021 1482.55 Q952.656 1482.55 954.461 1479.01 Q956.29 1475.44 956.29 1468.33 Q956.29 1461.2 954.461 1457.66 Q952.656 1454.1 949.021 1454.1 M949.021 1450.39 Q954.832 1450.39 957.887 1455 Q960.966 1459.58 960.966 1468.33 Q960.966 1477.06 957.887 1481.67 Q954.832 1486.25 949.021 1486.25 Q943.211 1486.25 940.133 1481.67 Q937.077 1477.06 937.077 1468.33 Q937.077 1459.58 940.133 1455 Q943.211 1450.39 949.021 1450.39 Z" fill="#000000" fill-rule="nonzero" fill-opacity="1" /><path clip-path="url(#clip890)" d="M979.183 1454.1 Q975.572 1454.1 973.743 1457.66 Q971.938 1461.2 971.938 1468.33 Q971.938 1475.44 973.743 1479.01 Q975.572 1482.55 979.183 1482.55 Q982.817 1482.55 984.623 1479.01 Q986.452 1475.44 986.452 1468.33 Q986.452 1461.2 984.623 1457.66 Q982.817 1454.1 979.183 1454.1 M979.183 1450.39 Q984.993 1450.39 988.049 1455 Q991.128 1459.58 991.128 1468.33 Q991.128 1477.06 988.049 1481.67 Q984.993 1486.25 979.183 1486.25 Q973.373 1486.25 970.294 1481.67 Q967.239 1477.06 967.239 1468.33 Q967.239 1459.58 970.294 1455 Q973.373 1450.39 979.183 1450.39 Z" fill="#000000" fill-rule="nonzero" fill-opacity="1" /><path clip-path="url(#clip890)" d="M1009.35 1454.1 Q1005.73 1454.1 1003.91 1457.66 Q1002.1 1461.2 1002.1 1468.33 Q1002.1 1475.44 1003.91 1479.01 Q1005.73 1482.55 1009.35 1482.55 Q1012.98 1482.55 1014.78 1479.01 Q1016.61 1475.44 1016.61 1468.33 Q1016.61 1461.2 1014.78 1457.66 Q1012.98 1454.1 1009.35 1454.1 M1009.35 1450.39 Q1015.16 1450.39 1018.21 1455 Q1021.29 1459.58 1021.29 1468.33 Q1021.29 1477.06 1018.21 1481.67 Q1015.16 1486.25 1009.35 1486.25 Q1003.53 1486.25 1000.46 1481.67 Q997.401 1477.06 997.401 1468.33 Q997.401 1459.58 1000.46 1455 Q1003.53 1450.39 1009.35 1450.39 Z" fill="#000000" fill-rule="nonzero" fill-opacity="1" /><path clip-path="url(#clip890)" d="M1577.69 1481.64 L1594.01 1481.64 L1594.01 1485.58 L1572.07 1485.58 L1572.07 1481.64 Q1574.73 1478.89 1579.31 1474.26 Q1583.92 1469.61 1585.1 1468.27 Q1587.35 1465.74 1588.23 1464.01 Q1589.13 1462.25 1589.13 1460.56 Q1589.13 1457.8 1587.18 1456.07 Q1585.26 1454.33 1582.16 1454.33 Q1579.96 1454.33 1577.51 1455.09 Q1575.08 1455.86 1572.3 1457.41 L1572.3 1452.69 Q1575.12 1451.55 1577.58 1450.97 Q1580.03 1450.39 1582.07 1450.39 Q1587.44 1450.39 1590.63 1453.08 Q1593.83 1455.77 1593.83 1460.26 Q1593.83 1462.39 1593.02 1464.31 Q1592.23 1466.2 1590.12 1468.8 Q1589.55 1469.47 1586.44 1472.69 Q1583.34 1475.88 1577.69 1481.64 Z" fill="#000000" fill-rule="nonzero" fill-opacity="1" /><path clip-path="url(#clip890)" d="M1613.83 1454.1 Q1610.22 1454.1 1608.39 1457.66 Q1606.58 1461.2 1606.58 1468.33 Q1606.58 1475.44 1608.39 1479.01 Q1610.22 1482.55 1613.83 1482.55 Q1617.46 1482.55 1619.27 1479.01 Q1621.1 1475.44 1621.1 1468.33 Q1621.1 1461.2 1619.27 1457.66 Q1617.46 1454.1 1613.83 1454.1 M1613.83 1450.39 Q1619.64 1450.39 1622.69 1455 Q1625.77 1459.58 1625.77 1468.33 Q1625.77 1477.06 1622.69 1481.67 Q1619.64 1486.25 1613.83 1486.25 Q1608.02 1486.25 1604.94 1481.67 Q1601.88 1477.06 1601.88 1468.33 Q1601.88 1459.58 1604.94 1455 Q1608.02 1450.39 1613.83 1450.39 Z" fill="#000000" fill-rule="nonzero" fill-opacity="1" /><path clip-path="url(#clip890)" d="M1643.99 1454.1 Q1640.38 1454.1 1638.55 1457.66 Q1636.74 1461.2 1636.74 1468.33 Q1636.74 1475.44 1638.55 1479.01 Q1640.38 1482.55 1643.99 1482.55 Q1647.62 1482.55 1649.43 1479.01 Q1651.26 1475.44 1651.26 1468.33 Q1651.26 1461.2 1649.43 1457.66 Q1647.62 1454.1 1643.99 1454.1 M1643.99 1450.39 Q1649.8 1450.39 1652.86 1455 Q1655.93 1459.58 1655.93 1468.33 Q1655.93 1477.06 1652.86 1481.67 Q1649.8 1486.25 1643.99 1486.25 Q1638.18 1486.25 1635.1 1481.67 Q1632.05 1477.06 1632.05 1468.33 Q1632.05 1459.58 1635.1 1455 Q1638.18 1450.39 1643.99 1450.39 Z" fill="#000000" fill-rule="nonzero" fill-opacity="1" /><path clip-path="url(#clip890)" d="M1674.15 1454.1 Q1670.54 1454.1 1668.71 1457.66 Q1666.91 1461.2 1666.91 1468.33 Q1666.91 1475.44 1668.71 1479.01 Q1670.54 1482.55 1674.15 1482.55 Q1677.79 1482.55 1679.59 1479.01 Q1681.42 1475.44 1681.42 1468.33 Q1681.42 1461.2 1679.59 1457.66 Q1677.79 1454.1 1674.15 1454.1 M1674.15 1450.39 Q1679.96 1450.39 1683.02 1455 Q1686.1 1459.58 1686.1 1468.33 Q1686.1 1477.06 1683.02 1481.67 Q1679.96 1486.25 1674.15 1486.25 Q1668.34 1486.25 1665.26 1481.67 Q1662.21 1477.06 1662.21 1468.33 Q1662.21 1459.58 1665.26 1455 Q1668.34 1450.39 1674.15 1450.39 Z" fill="#000000" fill-rule="nonzero" fill-opacity="1" /><path clip-path="url(#clip890)" d="M2251.7 1466.95 Q2255.06 1467.66 2256.93 1469.93 Q2258.83 1472.2 2258.83 1475.53 Q2258.83 1480.65 2255.31 1483.45 Q2251.79 1486.25 2245.31 1486.25 Q2243.14 1486.25 2240.82 1485.81 Q2238.53 1485.39 2236.08 1484.54 L2236.08 1480.02 Q2238.02 1481.16 2240.34 1481.74 Q2242.65 1482.32 2245.17 1482.32 Q2249.57 1482.32 2251.86 1480.58 Q2254.18 1478.84 2254.18 1475.53 Q2254.18 1472.48 2252.03 1470.77 Q2249.9 1469.03 2246.08 1469.03 L2242.05 1469.03 L2242.05 1465.19 L2246.26 1465.19 Q2249.71 1465.19 2251.54 1463.82 Q2253.37 1462.43 2253.37 1459.84 Q2253.37 1457.18 2251.47 1455.77 Q2249.6 1454.33 2246.08 1454.33 Q2244.16 1454.33 2241.96 1454.75 Q2239.76 1455.16 2237.12 1456.04 L2237.12 1451.88 Q2239.78 1451.14 2242.1 1450.77 Q2244.43 1450.39 2246.49 1450.39 Q2251.82 1450.39 2254.92 1452.83 Q2258.02 1455.23 2258.02 1459.35 Q2258.02 1462.22 2256.38 1464.21 Q2254.73 1466.18 2251.7 1466.95 Z" fill="#000000" fill-rule="nonzero" fill-opacity="1" /><path clip-path="url(#clip890)" d="M2277.7 1454.1 Q2274.09 1454.1 2272.26 1457.66 Q2270.45 1461.2 2270.45 1468.33 Q2270.45 1475.44 2272.26 1479.01 Q2274.09 1482.55 2277.7 1482.55 Q2281.33 1482.55 2283.14 1479.01 Q2284.97 1475.44 2284.97 1468.33 Q2284.97 1461.2 2283.14 1457.66 Q2281.33 1454.1 2277.7 1454.1 M2277.7 1450.39 Q2283.51 1450.39 2286.56 1455 Q2289.64 1459.58 2289.64 1468.33 Q2289.64 1477.06 2286.56 1481.67 Q2283.51 1486.25 2277.7 1486.25 Q2271.89 1486.25 2268.81 1481.67 Q2265.75 1477.06 2265.75 1468.33 Q2265.75 1459.58 2268.81 1455 Q2271.89 1450.39 2277.7 1450.39 Z" fill="#000000" fill-rule="nonzero" fill-opacity="1" /><path clip-path="url(#clip890)" d="M2307.86 1454.1 Q2304.25 1454.1 2302.42 1457.66 Q2300.61 1461.2 2300.61 1468.33 Q2300.61 1475.44 2302.42 1479.01 Q2304.25 1482.55 2307.86 1482.55 Q2311.49 1482.55 2313.3 1479.01 Q2315.13 1475.44 2315.13 1468.33 Q2315.13 1461.2 2313.3 1457.66 Q2311.49 1454.1 2307.86 1454.1 M2307.86 1450.39 Q2313.67 1450.39 2316.72 1455 Q2319.8 1459.58 2319.8 1468.33 Q2319.8 1477.06 2316.72 1481.67 Q2313.67 1486.25 2307.86 1486.25 Q2302.05 1486.25 2298.97 1481.67 Q2295.91 1477.06 2295.91 1468.33 Q2295.91 1459.58 2298.97 1455 Q2302.05 1450.39 2307.86 1450.39 Z" fill="#000000" fill-rule="nonzero" fill-opacity="1" /><path clip-path="url(#clip890)" d="M2338.02 1454.1 Q2334.41 1454.1 2332.58 1457.66 Q2330.78 1461.2 2330.78 1468.33 Q2330.78 1475.44 2332.58 1479.01 Q2334.41 1482.55 2338.02 1482.55 Q2341.66 1482.55 2343.46 1479.01 Q2345.29 1475.44 2345.29 1468.33 Q2345.29 1461.2 2343.46 1457.66 Q2341.66 1454.1 2338.02 1454.1 M2338.02 1450.39 Q2343.83 1450.39 2346.89 1455 Q2349.97 1459.58 2349.97 1468.33 Q2349.97 1477.06 2346.89 1481.67 Q2343.83 1486.25 2338.02 1486.25 Q2332.21 1486.25 2329.13 1481.67 Q2326.08 1477.06 2326.08 1468.33 Q2326.08 1459.58 2329.13 1455 Q2332.21 1450.39 2338.02 1450.39 Z" fill="#000000" fill-rule="nonzero" fill-opacity="1" /><path clip-path="url(#clip890)" d="M1165.17 1520.52 L1171.6 1520.52 L1171.6 1568.04 L1165.17 1568.04 L1165.17 1520.52 Z" fill="#000000" fill-rule="nonzero" fill-opacity="1" /><path clip-path="url(#clip890)" d="M1189.93 1522.27 L1189.93 1532.4 L1201.99 1532.4 L1201.99 1536.95 L1189.93 1536.95 L1189.93 1556.3 Q1189.93 1560.66 1191.11 1561.9 Q1192.32 1563.14 1195.98 1563.14 L1201.99 1563.14 L1201.99 1568.04 L1195.98 1568.04 Q1189.2 1568.04 1186.62 1565.53 Q1184.04 1562.98 1184.04 1556.3 L1184.04 1536.95 L1179.74 1536.95 L1179.74 1532.4 L1184.04 1532.4 L1184.04 1522.27 L1189.93 1522.27 Z" fill="#000000" fill-rule="nonzero" fill-opacity="1" /><path clip-path="url(#clip890)" d="M1240.19 1548.76 L1240.19 1551.62 L1213.26 1551.62 Q1213.64 1557.67 1216.89 1560.85 Q1220.17 1564 1225.99 1564 Q1229.36 1564 1232.52 1563.17 Q1235.7 1562.35 1238.82 1560.69 L1238.82 1566.23 Q1235.67 1567.57 1232.36 1568.27 Q1229.05 1568.97 1225.64 1568.97 Q1217.11 1568.97 1212.11 1564 Q1207.15 1559.04 1207.15 1550.57 Q1207.15 1541.82 1211.86 1536.69 Q1216.6 1531.54 1224.62 1531.54 Q1231.81 1531.54 1235.98 1536.18 Q1240.19 1540.8 1240.19 1548.76 M1234.33 1547.04 Q1234.27 1542.23 1231.62 1539.37 Q1229.01 1536.5 1224.69 1536.5 Q1219.78 1536.5 1216.82 1539.27 Q1213.9 1542.04 1213.45 1547.07 L1234.33 1547.04 Z" fill="#000000" fill-rule="nonzero" fill-opacity="1" /><path clip-path="url(#clip890)" d="M1270.45 1537.87 Q1269.47 1537.3 1268.29 1537.04 Q1267.14 1536.76 1265.74 1536.76 Q1260.78 1536.76 1258.11 1540 Q1255.46 1543.22 1255.46 1549.27 L1255.46 1568.04 L1249.58 1568.04 L1249.58 1532.4 L1255.46 1532.4 L1255.46 1537.93 Q1257.31 1534.69 1260.27 1533.13 Q1263.23 1531.54 1267.46 1531.54 Q1268.07 1531.54 1268.8 1531.63 Q1269.53 1531.7 1270.42 1531.85 L1270.45 1537.87 Z" fill="#000000" fill-rule="nonzero" fill-opacity="1" /><path clip-path="url(#clip890)" d="M1292.8 1550.12 Q1285.7 1550.12 1282.96 1551.75 Q1280.23 1553.37 1280.23 1557.29 Q1280.23 1560.4 1282.26 1562.25 Q1284.33 1564.07 1287.86 1564.07 Q1292.73 1564.07 1295.66 1560.63 Q1298.62 1557.16 1298.62 1551.43 L1298.62 1550.12 L1292.8 1550.12 M1304.48 1547.71 L1304.48 1568.04 L1298.62 1568.04 L1298.62 1562.63 Q1296.62 1565.88 1293.63 1567.44 Q1290.63 1568.97 1286.31 1568.97 Q1280.83 1568.97 1277.58 1565.91 Q1274.37 1562.82 1274.37 1557.67 Q1274.37 1551.65 1278.38 1548.6 Q1282.42 1545.54 1290.41 1545.54 L1298.62 1545.54 L1298.62 1544.97 Q1298.62 1540.93 1295.95 1538.73 Q1293.31 1536.5 1288.5 1536.5 Q1285.45 1536.5 1282.55 1537.23 Q1279.65 1537.97 1276.98 1539.43 L1276.98 1534.02 Q1280.19 1532.78 1283.22 1532.17 Q1286.24 1531.54 1289.11 1531.54 Q1296.84 1531.54 1300.66 1535.55 Q1304.48 1539.56 1304.48 1547.71 Z" fill="#000000" fill-rule="nonzero" fill-opacity="1" /><path clip-path="url(#clip890)" d="M1322.34 1522.27 L1322.34 1532.4 L1334.4 1532.4 L1334.4 1536.95 L1322.34 1536.95 L1322.34 1556.3 Q1322.34 1560.66 1323.51 1561.9 Q1324.72 1563.14 1328.38 1563.14 L1334.4 1563.14 L1334.4 1568.04 L1328.38 1568.04 Q1321.6 1568.04 1319.03 1565.53 Q1316.45 1562.98 1316.45 1556.3 L1316.45 1536.95 L1312.15 1536.95 L1312.15 1532.4 L1316.45 1532.4 L1316.45 1522.27 L1322.34 1522.27 Z" fill="#000000" fill-rule="nonzero" fill-opacity="1" /><path clip-path="url(#clip890)" d="M1342.1 1532.4 L1347.96 1532.4 L1347.96 1568.04 L1342.1 1568.04 L1342.1 1532.4 M1342.1 1518.52 L1347.96 1518.52 L1347.96 1525.93 L1342.1 1525.93 L1342.1 1518.52 Z" fill="#000000" fill-rule="nonzero" fill-opacity="1" /><path clip-path="url(#clip890)" d="M1374.02 1536.5 Q1369.31 1536.5 1366.58 1540.19 Q1363.84 1543.85 1363.84 1550.25 Q1363.84 1556.65 1366.55 1560.34 Q1369.28 1564 1374.02 1564 Q1378.7 1564 1381.44 1560.31 Q1384.18 1556.62 1384.18 1550.25 Q1384.18 1543.92 1381.44 1540.23 Q1378.7 1536.5 1374.02 1536.5 M1374.02 1531.54 Q1381.66 1531.54 1386.02 1536.5 Q1390.38 1541.47 1390.38 1550.25 Q1390.38 1559 1386.02 1564 Q1381.66 1568.97 1374.02 1568.97 Q1366.35 1568.97 1361.99 1564 Q1357.66 1559 1357.66 1550.25 Q1357.66 1541.47 1361.99 1536.5 Q1366.35 1531.54 1374.02 1531.54 Z" fill="#000000" fill-rule="nonzero" fill-opacity="1" /><path clip-path="url(#clip890)" d="M1429.72 1546.53 L1429.72 1568.04 L1423.87 1568.04 L1423.87 1546.72 Q1423.87 1541.66 1421.89 1539.14 Q1419.92 1536.63 1415.97 1536.63 Q1411.23 1536.63 1408.5 1539.65 Q1405.76 1542.68 1405.76 1547.9 L1405.76 1568.04 L1399.87 1568.04 L1399.87 1532.4 L1405.76 1532.4 L1405.76 1537.93 Q1407.86 1534.72 1410.69 1533.13 Q1413.56 1531.54 1417.28 1531.54 Q1423.42 1531.54 1426.57 1535.36 Q1429.72 1539.14 1429.72 1546.53 Z" fill="#000000" fill-rule="nonzero" fill-opacity="1" /><polyline clip-path="url(#clip890)" style="stroke:#000000; stroke-linecap:round; stroke-linejoin:round; stroke-width:4; stroke-opacity:1; fill:none" points="242.135,1423.18 242.135,47.2441 "/>
<polyline clip-path="url(#clip890)" style="stroke:#000000; stroke-linecap:round; stroke-linejoin:round; stroke-width:4; stroke-opacity:1; fill:none" points="242.135,1423.18 261.032,1423.18 "/>
<polyline clip-path="url(#clip890)" style="stroke:#000000; stroke-linecap:round; stroke-linejoin:round; stroke-width:4; stroke-opacity:1; fill:none" points="242.135,1050.72 261.032,1050.72 "/>
<polyline clip-path="url(#clip890)" style="stroke:#000000; stroke-linecap:round; stroke-linejoin:round; stroke-width:4; stroke-opacity:1; fill:none" points="242.135,678.267 261.032,678.267 "/>
<polyline clip-path="url(#clip890)" style="stroke:#000000; stroke-linecap:round; stroke-linejoin:round; stroke-width:4; stroke-opacity:1; fill:none" points="242.135,305.81 261.032,305.81 "/>
<path clip-path="url(#clip890)" d="M114.26 1423.63 L143.936 1423.63 L143.936 1427.57 L114.26 1427.57 L114.26 1423.63 Z" fill="#000000" fill-rule="nonzero" fill-opacity="1" /><path clip-path="url(#clip890)" d="M154.839 1436.52 L162.477 1436.52 L162.477 1410.16 L154.167 1411.83 L154.167 1407.57 L162.431 1405.9 L167.107 1405.9 L167.107 1436.52 L174.746 1436.52 L174.746 1440.46 L154.839 1440.46 L154.839 1436.52 Z" fill="#000000" fill-rule="nonzero" fill-opacity="1" /><path clip-path="url(#clip890)" d="M194.19 1408.98 Q190.579 1408.98 188.75 1412.54 Q186.945 1416.08 186.945 1423.21 Q186.945 1430.32 188.75 1433.89 Q190.579 1437.43 194.19 1437.43 Q197.825 1437.43 199.63 1433.89 Q201.459 1430.32 201.459 1423.21 Q201.459 1416.08 199.63 1412.54 Q197.825 1408.98 194.19 1408.98 M194.19 1405.27 Q200 1405.27 203.056 1409.88 Q206.135 1414.46 206.135 1423.21 Q206.135 1431.94 203.056 1436.55 Q200 1441.13 194.19 1441.13 Q188.38 1441.13 185.301 1436.55 Q182.246 1431.94 182.246 1423.21 Q182.246 1414.46 185.301 1409.88 Q188.38 1405.27 194.19 1405.27 Z" fill="#000000" fill-rule="nonzero" fill-opacity="1" /><path clip-path="url(#clip890)" d="M144.515 1051.17 L174.19 1051.17 L174.19 1055.11 L144.515 1055.11 L144.515 1051.17 Z" fill="#000000" fill-rule="nonzero" fill-opacity="1" /><path clip-path="url(#clip890)" d="M194.283 1051.59 Q190.95 1051.59 189.028 1053.37 Q187.13 1055.16 187.13 1058.28 Q187.13 1061.41 189.028 1063.19 Q190.95 1064.97 194.283 1064.97 Q197.616 1064.97 199.537 1063.19 Q201.459 1061.38 201.459 1058.28 Q201.459 1055.16 199.537 1053.37 Q197.639 1051.59 194.283 1051.59 M189.607 1049.6 Q186.598 1048.86 184.908 1046.8 Q183.241 1044.74 183.241 1041.78 Q183.241 1037.63 186.181 1035.23 Q189.144 1032.82 194.283 1032.82 Q199.445 1032.82 202.385 1035.23 Q205.324 1037.63 205.324 1041.78 Q205.324 1044.74 203.635 1046.8 Q201.968 1048.86 198.982 1049.6 Q202.362 1050.39 204.237 1052.68 Q206.135 1054.97 206.135 1058.28 Q206.135 1063.3 203.056 1065.99 Q200 1068.67 194.283 1068.67 Q188.565 1068.67 185.487 1065.99 Q182.431 1063.3 182.431 1058.28 Q182.431 1054.97 184.329 1052.68 Q186.227 1050.39 189.607 1049.6 M187.894 1042.22 Q187.894 1044.9 189.561 1046.41 Q191.25 1047.91 194.283 1047.91 Q197.292 1047.91 198.982 1046.41 Q200.695 1044.9 200.695 1042.22 Q200.695 1039.53 198.982 1038.03 Q197.292 1036.52 194.283 1036.52 Q191.25 1036.52 189.561 1038.03 Q187.894 1039.53 187.894 1042.22 Z" fill="#000000" fill-rule="nonzero" fill-opacity="1" /><path clip-path="url(#clip890)" d="M144.26 678.718 L173.936 678.718 L173.936 682.653 L144.26 682.653 L144.26 678.718 Z" fill="#000000" fill-rule="nonzero" fill-opacity="1" /><path clip-path="url(#clip890)" d="M194.607 676.404 Q191.459 676.404 189.607 678.556 Q187.778 680.709 187.778 684.459 Q187.778 688.186 189.607 690.362 Q191.459 692.515 194.607 692.515 Q197.755 692.515 199.584 690.362 Q201.436 688.186 201.436 684.459 Q201.436 680.709 199.584 678.556 Q197.755 676.404 194.607 676.404 M203.889 661.751 L203.889 666.01 Q202.13 665.177 200.325 664.737 Q198.542 664.297 196.783 664.297 Q192.153 664.297 189.7 667.422 Q187.269 670.547 186.922 676.866 Q188.288 674.853 190.348 673.788 Q192.408 672.7 194.885 672.7 Q200.093 672.7 203.102 675.871 Q206.135 679.019 206.135 684.459 Q206.135 689.783 202.987 693.001 Q199.838 696.218 194.607 696.218 Q188.612 696.218 185.44 691.635 Q182.269 687.028 182.269 678.302 Q182.269 670.107 186.158 665.246 Q190.047 660.362 196.598 660.362 Q198.357 660.362 200.139 660.709 Q201.945 661.056 203.889 661.751 Z" fill="#000000" fill-rule="nonzero" fill-opacity="1" /><path clip-path="url(#clip890)" d="M143.936 306.262 L173.612 306.262 L173.612 310.197 L143.936 310.197 L143.936 306.262 Z" fill="#000000" fill-rule="nonzero" fill-opacity="1" /><path clip-path="url(#clip890)" d="M196.551 292.605 L184.746 311.054 L196.551 311.054 L196.551 292.605 M195.325 288.53 L201.204 288.53 L201.204 311.054 L206.135 311.054 L206.135 314.942 L201.204 314.942 L201.204 323.09 L196.551 323.09 L196.551 314.942 L180.95 314.942 L180.95 310.429 L195.325 288.53 Z" fill="#000000" fill-rule="nonzero" fill-opacity="1" /><path clip-path="url(#clip890)" d="M16.4842 816.375 L16.4842 786.329 L21.895 786.329 L21.895 809.945 L35.9632 809.945 L35.9632 787.315 L41.3741 787.315 L41.3741 809.945 L58.5933 809.945 L58.5933 785.756 L64.0042 785.756 L64.0042 816.375 L16.4842 816.375 Z" fill="#000000" fill-rule="nonzero" fill-opacity="1" /><path clip-path="url(#clip890)" d="M16.4842 775.189 L16.4842 768.759 L58.5933 768.759 L58.5933 745.62 L64.0042 745.62 L64.0042 775.189 L16.4842 775.189 Z" fill="#000000" fill-rule="nonzero" fill-opacity="1" /><path clip-path="url(#clip890)" d="M41.3104 732.443 L58.7206 732.443 L58.7206 722.13 Q58.7206 716.942 56.5881 714.46 Q54.4238 711.945 49.9996 711.945 Q45.5436 711.945 43.4429 714.46 Q41.3104 716.942 41.3104 722.13 L41.3104 732.443 M21.7677 732.443 L36.0905 732.443 L36.0905 722.926 Q36.0905 718.216 34.34 715.924 Q32.5576 713.6 28.9291 713.6 Q25.3325 713.6 23.5501 715.924 Q21.7677 718.216 21.7677 722.926 L21.7677 732.443 M16.4842 738.872 L16.4842 722.449 Q16.4842 715.096 19.5397 711.118 Q22.5952 707.139 28.2289 707.139 Q32.5894 707.139 35.1675 709.176 Q37.7456 711.213 38.3822 715.16 Q39.4007 710.418 42.6472 707.808 Q45.8619 705.166 50.6998 705.166 Q57.0655 705.166 60.5348 709.495 Q64.0042 713.823 64.0042 721.812 L64.0042 738.872 L16.4842 738.872 Z" fill="#000000" fill-rule="nonzero" fill-opacity="1" /><path clip-path="url(#clip890)" d="M20.8447 676.011 Q20.8447 683.013 26.0645 687.151 Q31.2844 691.257 40.2919 691.257 Q49.2675 691.257 54.4874 687.151 Q59.7073 683.013 59.7073 676.011 Q59.7073 669.009 54.4874 664.935 Q49.2675 660.829 40.2919 660.829 Q31.2844 660.829 26.0645 664.935 Q20.8447 669.009 20.8447 676.011 M15.6248 676.011 Q15.6248 666.017 22.3406 660.033 Q29.0246 654.049 40.2919 654.049 Q51.5274 654.049 58.2432 660.033 Q64.9272 666.017 64.9272 676.011 Q64.9272 686.037 58.2432 692.052 Q51.5592 698.036 40.2919 698.036 Q29.0246 698.036 22.3406 692.052 Q15.6248 686.037 15.6248 676.011 Z" fill="#000000" fill-rule="nonzero" fill-opacity="1" /><polyline clip-path="url(#clip892)" style="stroke:#009af9; stroke-linecap:round; stroke-linejoin:round; stroke-width:4; stroke-opacity:1; fill:none" points="301.869,3750.97 302.533,1193.19 303.197,623.92 303.861,829.216 304.525,750.722 305.189,652.599 305.853,1075.74 306.517,985.582 307.181,1173.76 307.845,1070.97 308.509,1148.33 309.173,467.075 309.836,1098.43 310.5,1057.35 311.164,2809.59 311.828,899.309 312.492,847.642 313.156,837.842 313.82,714.728 314.484,2059 315.148,861.628 315.812,945.713 316.476,879.453 317.14,11326.7 317.804,693.799 318.468,741.229 319.132,857.843 319.796,978.601 320.46,863.635 321.123,731.299 321.787,765.81 322.451,655.382 323.115,904.305 323.779,716.039 324.443,789.394 325.107,791.158 325.771,972.433 326.435,1427.96 327.099,905.625 327.763,1781.5 328.427,960.108 329.091,876.294 329.755,802.679 330.419,936.039 331.083,1439.66 331.746,1428.83 332.41,891.685 333.074,1005.38 333.738,883.419 334.402,799.74 335.066,791.053 335.73,839.531 336.394,933.808 337.058,1727.12 337.722,4404.96 338.386,1366.89 339.05,792.796 339.714,1770.02 340.378,1064.98 341.042,898.136 341.706,1038.55 342.369,1009.61 343.033,797.994 343.697,1111.02 344.361,2895.73 345.025,1064.08 345.689,624.611 346.353,988.221 347.017,761.08 347.681,1117.94 348.345,1181.11 349.009,945.485 349.673,1041.44 350.337,917.34 351.001,1914.86 351.665,10848.4 352.329,960.879 352.993,737.228 353.656,776.42 354.32,1141.38 354.984,1162.24 355.648,1065.85 356.312,500.201 356.976,1895.24 357.64,1005.25 358.304,983.878 358.968,959.923 359.632,778.914 360.296,1070.4 360.96,1171.43 361.624,1081.46 362.288,646.348 362.952,1246.56 363.616,915.785 364.279,1133.05 364.943,1828.3 365.607,966.77 366.271,708.353 366.935,1255.47 367.599,953.339 368.263,1253.24 368.927,860.639 369.591,768.413 370.255,840.745 370.919,895.064 371.583,653.546 372.247,982.494 372.911,801.222 373.575,975.178 374.239,1081.36 374.902,982.622 375.566,1924.64 376.23,1021.88 376.894,1070.85 377.558,1008 378.222,875.127 378.886,993.535 379.55,1189.87 380.214,995.803 380.878,1056.36 381.542,802.494 382.206,882.661 382.87,832.126 383.534,797.089 384.198,1065.94 384.862,1419.2 385.526,948.605 386.189,607.182 386.853,5985.17 387.517,1861.79 388.181,910.556 388.845,680.845 389.509,856.79 390.173,554.586 390.837,1032.08 391.501,1030.85 392.165,1228.96 392.829,1406.01 393.493,931.998 394.157,1655.7 394.821,1529.75 395.485,907.13 396.149,1173.58 396.812,1686.33 397.476,838.12 398.14,746.397 398.804,1531.47 399.468,1061.31 400.132,1054.11 400.796,928.701 401.46,1229.84 402.124,1258.24 402.788,825.143 403.452,659.128 404.116,806.809 404.78,958.448 405.444,5675.55 406.108,783.564 406.772,1200.52 407.435,803.336 408.099,840.481 408.763,2385.68 409.427,941.262 410.091,968.873 410.755,2455.68 411.419,843.068 412.083,895.185 412.747,783.055 413.411,671.968 414.075,858.43 414.739,688.611 415.403,1692.78 416.067,4241.8 416.731,878.864 417.395,1265.05 418.058,1082.72 418.722,835.023 419.386,1230.4 420.05,704.888 420.714,393.34 421.378,986.16 422.042,836.69 422.706,647.682 423.37,519.483 424.034,797.793 424.698,1325.16 425.362,1712.94 426.026,652.212 426.69,613.125 427.354,1116.7 428.018,1260.01 428.682,845.578 429.345,1687.2 430.009,917.139 430.673,1052.5 431.337,750.107 432.001,865.011 432.665,826.424 433.329,755.69 433.993,848.358 434.657,593.789 435.321,672.844 435.985,757.416 436.649,715.724 437.313,846.922 437.977,637.411 438.641,956.248 439.305,1158.94 439.968,645.025 440.632,663.152 441.296,882.166 441.96,737.075 442.624,713.857 443.288,723.162 443.952,925.546 444.616,982.784 445.28,740.341 445.944,827.8 446.608,580.731 447.272,687.598 447.936,965.618 448.6,844.148 449.264,559.133 449.928,509.286 450.591,762.738 451.255,643.729 451.919,676.881 452.583,668.549 453.247,617.362 453.911,615.095 454.575,747.036 455.239,818.011 455.903,470.234 456.567,612.536 457.231,450.946 457.895,612.441 458.559,405.634 459.223,352.033 459.887,724.979 460.551,440.535 461.215,309.479 461.878,479.354 462.542,445.209 463.206,336.659 463.87,319.225 464.534,312.689 465.198,367.443 465.862,380.333 466.526,523.955 467.19,225.051 467.854,365.458 468.518,257.35 469.182,271.378 469.846,201.632 470.51,440.506 471.174,323.699 471.838,249.956 472.501,226.277 473.165,284.604 473.829,246.822 474.493,222.416 475.157,246.198 475.821,293.177 476.485,206.275 477.149,159.172 477.813,529.731 478.477,489.852 479.141,360.27 479.805,280.682 480.469,322.38 481.133,347.262 481.797,394.34 482.461,334.728 483.124,279.324 483.788,367.497 484.452,218.94 485.116,233.319 485.78,164.52 486.444,294.087 487.108,236.375 487.772,130.483 488.436,279.706 489.1,206.557 489.764,182.223 490.428,247.104 491.092,297.527 491.756,368.706 492.42,192.4 493.084,162.042 493.748,215.649 494.411,193.085 495.075,179.737 495.739,162.415 496.403,151.874 497.067,253.649 497.731,167.237 498.395,226.979 499.059,250.162 499.723,358.555 500.387,314.706 501.051,255.018 501.715,160.152 502.379,173.882 503.043,182.417 503.707,178.66 504.371,161.774 505.034,226.573 505.698,328.552 506.362,219.215 507.026,255.348 507.69,167.086 508.354,160.902 509.018,218.148 509.682,250.637 510.346,155.27 511.01,207.351 511.674,193.587 512.338,175.5 513.002,176.47 513.666,192.856 514.33,188.344 514.994,159.59 515.657,180.911 516.321,151.973 516.985,134.631 517.649,161.028 518.313,135.04 518.977,267.94 519.641,258.438 520.305,216.207 520.969,264.68 521.633,195.49 522.297,242.515 522.961,400.444 523.625,412.801 524.289,339.392 524.953,270.632 525.617,296.591 526.281,239.348 526.944,234.502 527.608,214.821 528.272,196.789 528.936,216.429 529.6,219.513 530.264,226.671 530.928,225.066 531.592,192.959 532.256,241.206 532.92,227.882 533.584,148.055 534.248,198.776 534.912,293.665 535.576,209.293 536.24,163.228 536.904,210.172 537.567,172.135 538.231,180.488 538.895,213.112 539.559,152.996 540.223,214.263 540.887,178.887 541.551,165.442 542.215,220.468 542.879,164.636 543.543,198.137 544.207,248.941 544.871,221.938 545.535,352.99 546.199,247.91 546.863,218.954 547.527,244.496 548.19,213.212 548.854,141.638 549.518,229.276 550.182,158.03 550.846,193.173 551.51,192.828 552.174,179.763 552.838,157.935 553.502,157.052 554.166,203.936 554.83,167.222 555.494,180.528 556.158,254.193 556.822,205.807 557.486,220.451 558.15,153.969 558.813,188.004 559.477,110.084 560.141,305.201 560.805,204.442 561.469,194.71 562.133,196.992 562.797,187.746 563.461,161.036 564.125,192.102 564.789,141.114 565.453,174.03 566.117,231.49 566.781,179.126 567.445,131.865 568.109,104.211 568.773,172.295 569.437,228.028 570.1,155.159 570.764,186.801 571.428,146.463 572.092,160.618 572.756,217.284 573.42,168.897 574.084,192.073 574.748,149.858 575.412,171.166 576.076,174.313 576.74,181.667 577.404,221.397 578.068,303.724 578.732,166.485 579.396,173.388 580.06,166.404 580.723,179.701 581.387,179.437 582.051,211.745 582.715,191.534 583.379,176.016 584.043,173.42 584.707,163.377 585.371,210.326 586.035,182.027 586.699,226.208 587.363,187.937 588.027,181.368 588.691,180.588 589.355,189.718 590.019,140.93 590.683,150.188 591.346,164.212 592.01,183.979 592.674,162.149 593.338,181.67 594.002,185.757 594.666,154.362 595.33,159.449 595.994,116.179 596.658,155.086 597.322,166.417 597.986,189.128 598.65,201.425 599.314,107.044 599.978,239.094 600.642,208.597 601.306,151.436 601.97,137.984 602.633,117.339 603.297,242.072 603.961,162.052 604.625,194.211 605.289,203 605.953,149.427 606.617,188.636 607.281,170.474 607.945,152.893 608.609,164.469 609.273,170.023 609.937,143.383 610.601,168.403 611.265,177.216 611.929,173.803 612.593,137.316 613.256,139.245 613.92,147.716 614.584,163.635 615.248,138.251 615.912,167.099 616.576,201.84 617.24,183.533 617.904,152.118 618.568,179.366 619.232,171.748 619.896,157.511 620.56,234.184 621.224,168.45 621.888,323.309 622.552,152.278 623.216,176.172 623.879,208.497 624.543,173.119 625.207,174.633 625.871,178.295 626.535,164.346 627.199,156.498 627.863,162.827 628.527,179.613 629.191,182.591 629.855,179.877 630.519,146.746 631.183,215.282 631.847,164.246 632.511,191.384 633.175,208.072 633.839,158.775 634.503,249.667 635.166,225.994 635.83,237.036 636.494,194.932 637.158,207.956 637.822,181.422 638.486,259.73 639.15,218.977 639.814,131.757 640.478,223.662 641.142,194.975 641.806,218.981 642.47,110.627 643.134,202.984 643.798,196.942 644.462,144.762 645.126,186.697 645.789,195.544 646.453,182.075 647.117,184.728 647.781,160.538 648.445,189.518 649.109,209.826 649.773,212.678 650.437,180.663 651.101,192.467 651.765,164.302 652.429,189.349 653.093,163.324 653.757,143.346 654.421,163.36 655.085,137.126 655.749,149.72 656.412,184.484 657.076,207.327 657.74,161.637 658.404,176.012 659.068,155.166 659.732,159.827 660.396,253.466 661.06,188.29 661.724,125.981 662.388,180.392 663.052,206.353 663.716,181.429 664.38,142.329 665.044,188.948 665.708,155.989 666.372,140.908 667.036,168.11 667.699,209.918 668.363,171.661 669.027,162.646 669.691,211.943 670.355,145.807 671.019,285.655 671.683,229.335 672.347,149.686 673.011,152.568 673.675,193.885 674.339,217.608 675.003,1418.08 675.667,402.22 676.331,387.583 676.995,354.991 677.659,397.548 678.322,329.627 678.986,379.68 679.65,357.822 680.314,264.996 680.978,259.861 681.642,384.47 682.306,298.648 682.97,341.882 683.634,290.319 684.298,233.657 684.962,255.47 685.626,223.054 686.29,266.398 686.954,250.098 687.618,316.79 688.282,265.936 688.945,241.039 689.609,240.797 690.273,196.479 690.937,275.94 691.601,250.045 692.265,242.406 692.929,143.088 693.593,176.725 694.257,247.438 694.921,217.774 695.585,195.899 696.249,229.152 696.913,204.539 697.577,256.58 698.241,196.666 698.905,282.152 699.569,202.994 700.232,192.122 700.896,173.831 701.56,222.999 702.224,202.793 702.888,214.374 703.552,201.639 704.216,200.792 704.88,213.66 705.544,211.846 706.208,183.959 706.872,242.745 707.536,204.217 708.2,170.35 708.864,216.679 709.528,192.815 710.192,184.035 710.855,178.055 711.519,188.315 712.183,602.977 712.847,439.598 713.511,341.473 714.175,226.964 714.839,278.772 715.503,238.511 716.167,268.507 716.831,264.576 717.495,291.941 718.159,186.024 718.823,273.184 719.487,202.57 720.151,251.923 720.815,236.159 721.478,288.309 722.142,195.919 722.806,245.615 723.47,219.004 724.134,299.586 724.798,174.929 725.462,251.597 726.126,222.665 726.79,234.457 727.454,190.139 728.118,151.182 728.782,418.716 729.446,265.93 730.11,205.054 730.774,216.166 731.438,230.247 732.101,237.058 732.765,144.965 733.429,226.099 734.093,190.898 734.757,251.326 735.421,196.999 736.085,225.244 736.749,156.69 737.413,193.999 738.077,245.718 738.741,182.892 739.405,209.245 740.069,211.368 740.733,200.656 741.397,162.803 742.061,189.617 742.725,212.447 743.388,215.93 744.052,222.135 744.716,233.895 745.38,164.482 746.044,179.251 746.708,191.4 747.372,214.776 748.036,201.191 748.7,187.143 749.364,118.356 750.028,280.294 750.692,176.22 751.356,172.318 752.02,120.706 752.684,197.567 753.348,192.068 754.011,170.86 754.675,199.312 755.339,172.676 756.003,184.06 756.667,171.757 757.331,254.349 757.995,117.919 758.659,233.099 759.323,138.418 759.987,162.145 760.651,214.395 761.315,184.043 761.979,139.519 762.643,169.706 763.307,187.663 763.971,238.454 764.634,190.023 765.298,211.234 765.962,131.504 766.626,208.828 767.29,140.149 767.954,184.414 768.618,187.282 769.282,170.55 769.946,199.598 770.61,193.91 771.274,204.048 771.938,197.472 772.602,236.955 773.266,181.767 773.93,185.623 774.594,170.47 775.258,177.712 775.921,166.445 776.585,205.685 777.249,160.251 777.913,142.916 778.577,178.635 779.241,180.557 779.905,188.925 780.569,189.037 781.233,153.646 781.897,143.985 782.561,206.216 783.225,145.308 783.889,229.602 784.553,276.84 785.217,279.944 785.881,166.87 786.544,168.585 787.208,177.997 787.872,225.627 788.536,173.713 789.2,180.008 789.864,173.113 790.528,124.093 791.192,143.714 791.856,229.653 792.52,158.402 793.184,167.611 793.848,141.283 794.512,200.942 795.176,161.537 795.84,173.541 796.504,167.544 797.167,163.123 797.831,197.507 798.495,174.924 799.159,164.352 799.823,151.745 800.487,171.56 801.151,158.575 801.815,189.098 802.479,173 803.143,155.549 803.807,171.667 804.471,159.828 805.135,156.77 805.799,141.866 806.463,162.397 807.127,202.612 807.791,246.673 808.454,124.855 809.118,184.067 809.782,175.244 810.446,128.088 811.11,170.656 811.774,215.539 812.438,162.607 813.102,194.743 813.766,191.962 814.43,178.569 815.094,128.907 815.758,175.158 816.422,157.052 817.086,180.602 817.75,172.765 818.414,206.077 819.077,168.587 819.741,159.681 820.405,162.448 821.069,184.15 821.733,158.094 822.397,190.688 823.061,166.118 823.725,197.164 824.389,164.467 825.053,169.459 825.717,196.176 826.381,205.568 827.045,158.435 827.709,210.421 828.373,169.94 829.037,186.636 829.7,135.689 830.364,158.865 831.028,203.156 831.692,201.028 832.356,177.05 833.02,183.868 833.684,175.707 834.348,127.345 835.012,151.352 835.676,222.577 836.34,132.139 837.004,233.262 837.668,150.665 838.332,176.057 838.996,128.337 839.66,195.368 840.324,107.814 840.987,179.569 841.651,233.585 842.315,203.427 842.979,174.516 843.643,189.864 844.307,161.006 844.971,189.949 845.635,174.672 846.299,161.71 846.963,166.181 847.627,150.417 848.291,160.597 848.955,164.473 849.619,144.097 850.283,214.85 850.947,129.215 851.61,178.827 852.274,164.046 852.938,225.718 853.602,128.821 854.266,192.018 854.93,124.957 855.594,128.328 856.258,146.792 856.922,171.518 857.586,170.658 858.25,164.105 858.914,164.321 859.578,195.553 860.242,192.27 860.906,141.359 861.57,130.554 862.233,188.899 862.897,187.843 863.561,187.935 864.225,165.725 864.889,165.986 865.553,203.379 866.217,189.997 866.881,123.834 867.545,185.063 868.209,159.931 868.873,205.505 869.537,154.075 870.201,170.82 870.865,199.409 871.529,150.145 872.193,171.828 872.856,172.539 873.52,175.921 874.184,178.141 874.848,197.144 875.512,193.533 876.176,164.451 876.84,190.687 877.504,182.394 878.168,162.561 878.832,171.647 879.496,177.631 880.16,144.655 880.824,209.786 881.488,200.359 882.152,145.813 882.816,172.339 883.48,170.74 884.143,143.509 884.807,196.385 885.471,165.454 886.135,152.815 886.799,192.86 887.463,195.461 888.127,166.336 888.791,154.051 889.455,160.87 890.119,137.231 890.783,159.993 891.447,158.595 892.111,156.25 892.775,167.254 893.439,130.697 894.103,164.562 894.766,156.759 895.43,184.409 896.094,213.439 896.758,171.148 897.422,167.839 898.086,138.022 898.75,183.605 899.414,223.853 900.078,276.293 900.742,179.101 901.406,144.548 902.07,184.418 902.734,161.319 903.398,156.892 904.062,172.479 904.726,210.452 905.389,154.194 906.053,181.96 906.717,236.441 907.381,184.756 908.045,160.484 908.709,176.35 909.373,143.855 910.037,199.222 910.701,178.575 911.365,172.727 912.029,165.167 912.693,181.439 913.357,168.248 914.021,155.702 914.685,189.675 915.349,185.718 916.013,184.586 916.676,179.564 917.34,176.094 918.004,156.79 918.668,178.955 919.332,160.75 919.996,164.567 920.66,167.422 921.324,149.205 921.988,152.676 922.652,177.197 923.316,150.914 923.98,148.814 924.644,231.099 925.308,210.441 925.972,193.816 926.636,208.936 927.299,196.658 927.963,245.253 928.627,291.999 929.291,195.75 929.955,197.647 930.619,198.781 931.283,255.855 931.947,199.394 932.611,191.206 933.275,142.387 933.939,168.105 934.603,159.155 935.267,205.707 935.931,169.177 936.595,213.941 937.259,182.453 937.922,191.096 938.586,207.979 939.25,155.061 939.914,136.688 940.578,158.107 941.242,234.636 941.906,204.52 942.57,184.423 943.234,187.208 943.898,127.688 944.562,185.294 945.226,177.312 945.89,198.057 946.554,179.751 947.218,182.933 947.882,152.42 948.546,188.04 949.209,179.865 949.873,167.312 950.537,173.75 951.201,151.466 951.865,157.768 952.529,146.196 953.193,159.555 953.857,122.594 954.521,194.755 955.185,171.837 955.849,195.668 956.513,132.338 957.177,169.78 957.841,181.396 958.505,196.231 959.169,150.375 959.832,174.671 960.496,163.525 961.16,162.916 961.824,166.397 962.488,135.041 963.152,184.012 963.816,331.577 964.48,178.079 965.144,225.517 965.808,173.354 966.472,173.339 967.136,145.455 967.8,186.854 968.464,148.312 969.128,205.343 969.792,188.794 970.455,190.913 971.119,165.32 971.783,173.76 972.447,170.967 973.111,170.112 973.775,191.534 974.439,193.429 975.103,147.553 975.767,161.659 976.431,192.235 977.095,155.379 977.759,136.373 978.423,225.934 979.087,186.763 979.751,165.694 980.415,135.824 981.079,148.193 981.742,200.053 982.406,197.361 983.07,157.187 983.734,163.61 984.398,161.738 985.062,160.894 985.726,196.403 986.39,167.677 987.054,150.703 987.718,339.366 988.382,202.858 989.046,288.005 989.71,215.854 990.374,211.248 991.038,178.869 991.702,183.47 992.365,224.392 993.029,198.581 993.693,168.712 994.357,190.306 995.021,152.532 995.685,183.156 996.349,201.872 997.013,176.357 997.677,178.176 998.341,160.956 999.005,167.895 999.669,141.579 1000.33,224.923 1001,172.618 1001.66,174.803 1002.32,192.956 1002.99,184.937 1003.65,180.241 1004.32,182.849 1004.98,178.947 1005.64,168.69 1006.31,203.476 1006.97,149.341 1007.64,151.898 1008.3,161.495 1008.96,153.202 1009.63,175.176 1010.29,189.525 1010.96,147.713 1011.62,157.887 1012.28,197.293 1012.95,179.694 1013.61,179.614 1014.28,173.847 1014.94,136.462 1015.6,194.621 1016.27,187.14 1016.93,156.719 1017.6,165.23 1018.26,150.412 1018.92,187.589 1019.59,169.454 1020.25,173.676 1020.91,176.656 1021.58,149.847 1022.24,239.918 1022.91,164.487 1023.57,153.952 1024.23,135.834 1024.9,181.632 1025.56,161.116 1026.23,159.22 1026.89,147.375 1027.55,154.471 1028.22,182.259 1028.88,206.133 1029.55,176.191 1030.21,161.195 1030.87,155.414 1031.54,160.615 1032.2,179.252 1032.87,180.412 1033.53,142.643 1034.19,198.521 1034.86,152.102 1035.52,140.835 1036.19,160.983 1036.85,158.02 1037.51,173.108 1038.18,170.437 1038.84,174.762 1039.51,186.894 1040.17,187.316 1040.83,143.387 1041.5,174.503 1042.16,124.579 1042.82,171.468 1043.49,159.889 1044.15,138.912 1044.82,160.887 1045.48,176.241 1046.14,188.721 1046.81,169.316 1047.47,165.683 1048.14,163.442 1048.8,200.554 1049.46,176.725 1050.13,172.796 1050.79,180.496 1051.46,156.31 1052.12,186.244 1052.78,179.549 1053.45,164.946 1054.11,164.183 1054.78,155.862 1055.44,169.809 1056.1,173.824 1056.77,172.309 1057.43,167.263 1058.1,170.38 1058.76,157.753 1059.42,152.456 1060.09,147.854 1060.75,143.222 1061.42,251.02 1062.08,182.68 1062.74,164.623 1063.41,164.175 1064.07,174.007 1064.73,195.197 1065.4,192.223 1066.06,160.641 1066.73,132.301 1067.39,152.888 1068.05,166.697 1068.72,165.068 1069.38,170.925 1070.05,139.132 1070.71,143.099 1071.37,200.929 1072.04,194.667 1072.7,165.033 1073.37,170.592 1074.03,171.82 1074.69,144.895 1075.36,175.998 1076.02,158.168 1076.69,145.575 1077.35,173.16 1078.01,172.977 1078.68,194.247 1079.34,169.898 1080.01,169.041 1080.67,150.153 1081.33,178.468 1082,153.388 1082.66,199.006 1083.33,189.73 1083.99,162.379 1084.65,167.478 1085.32,153.301 1085.98,178.435 1086.64,144.166 1087.31,144.522 1087.97,216.012 1088.64,164.652 1089.3,165.149 1089.96,175.018 1090.63,151.759 1091.29,153.711 1091.96,199.208 1092.62,161.364 1093.28,178.243 1093.95,189.895 1094.61,162.41 1095.28,158.063 1095.94,167.138 1096.6,163.348 1097.27,174.187 1097.93,160.178 1098.6,170.442 1099.26,132.179 1099.92,154.946 1100.59,130.342 1101.25,165.604 1101.92,159.025 1102.58,160.615 1103.24,184.888 1103.91,167.159 1104.57,141.624 1105.24,179.227 1105.9,167.759 1106.56,190.325 1107.23,154.431 1107.89,215.081 1108.55,160.902 1109.22,153.284 1109.88,166.627 1110.55,181.779 1111.21,161.088 1111.87,176.855 1112.54,153.521 1113.2,175.386 1113.87,159.265 1114.53,121.488 1115.19,176.631 1115.86,183.643 1116.52,159.604 1117.19,181.166 1117.85,178.279 1118.51,196.804 1119.18,170.24 1119.84,159.994 1120.51,100.875 1121.17,150.982 1121.83,142.154 1122.5,146.085 1123.16,182 1123.83,202.161 1124.49,162.239 1125.15,176.871 1125.82,178.627 1126.48,183.484 1127.15,160.686 1127.81,166.452 1128.47,172.349 1129.14,182.84 1129.8,160.834 1130.46,153.635 1131.13,138.699 1131.79,202.678 1132.46,176.952 1133.12,171.949 1133.78,187.557 1134.45,181.433 1135.11,183.303 1135.78,158.533 1136.44,191.459 1137.1,166.879 1137.77,148.672 1138.43,168.642 1139.1,130.897 1139.76,190.114 1140.42,169.624 1141.09,141.561 1141.75,201.564 1142.42,184.879 1143.08,141.548 1143.74,173.892 1144.41,168.448 1145.07,165.016 1145.74,174.834 1146.4,179.872 1147.06,186.511 1147.73,167.586 1148.39,161.919 1149.05,199.919 1149.72,143.83 1150.38,118.732 1151.05,193.998 1151.71,160.583 1152.37,258.787 1153.04,201.62 1153.7,177.249 1154.37,166.139 1155.03,168.191 1155.69,168.82 1156.36,188.949 1157.02,153.368 1157.69,166.422 1158.35,127.703 1159.01,175.697 1159.68,168.592 1160.34,172.227 1161.01,156.69 1161.67,157.124 1162.33,195.953 1163,177.395 1163.66,154.912 1164.33,151.507 1164.99,176.11 1165.65,148.368 1166.32,181.905 1166.98,135.171 1167.65,158.773 1168.31,128.467 1168.97,192.422 1169.64,158.806 1170.3,170.446 1170.96,133.561 1171.63,195.452 1172.29,211.407 1172.96,168.72 1173.62,173.597 1174.28,169.588 1174.95,137.847 1175.61,186.551 1176.28,205.608 1176.94,183.665 1177.6,207.435 1178.27,149.519 1178.93,162.862 1179.6,188.582 1180.26,165.954 1180.92,159.541 1181.59,169.117 1182.25,161.932 1182.92,152.882 1183.58,180.53 1184.24,193.352 1184.91,141.206 1185.57,137.111 1186.24,175.313 1186.9,151.922 1187.56,208.261 1188.23,166.106 1188.89,171.417 1189.56,169.566 1190.22,162.316 1190.88,151.741 1191.55,171.891 1192.21,162.567 1192.87,155.536 1193.54,170.273 1194.2,169.61 1194.87,174.836 1195.53,185.624 1196.19,174.606 1196.86,196.477 1197.52,162.854 1198.19,165.104 1198.85,162.704 1199.51,167.708 1200.18,152.823 1200.84,184.597 1201.51,146.192 1202.17,173.954 1202.83,202.85 1203.5,155.278 1204.16,186.102 1204.83,149.526 1205.49,166.754 1206.15,187.293 1206.82,157.985 1207.48,164.136 1208.15,195.024 1208.81,171.491 1209.47,162.893 1210.14,167.318 1210.8,175.684 1211.47,162.166 1212.13,168.498 1212.79,143.13 1213.46,182.983 1214.12,202.198 1214.78,173.618 1215.45,176.511 1216.11,95.807 1216.78,167.139 1217.44,173.201 1218.1,156.297 1218.77,170.655 1219.43,179.851 1220.1,137.586 1220.76,167.368 1221.42,177.212 1222.09,154.652 1222.75,123.492 1223.42,182.026 1224.08,141.231 1224.74,149.465 1225.41,187.163 1226.07,157.766 1226.74,183.345 1227.4,172.846 1228.06,132.753 1228.73,158.2 1229.39,165.386 1230.06,142.248 1230.72,141.58 1231.38,176.333 1232.05,163.321 1232.71,186.712 1233.38,261.707 1234.04,170.267 1234.7,139.425 1235.37,154.706 1236.03,159.324 1236.69,140.914 1237.36,145.769 1238.02,155.874 1238.69,195.874 1239.35,144.306 1240.01,158.615 1240.68,224.449 1241.34,157.453 1242.01,189.699 1242.67,186.351 1243.33,178.136 1244,142.251 1244.66,189.819 1245.33,174.025 1245.99,161.164 1246.65,143.14 1247.32,133.875 1247.98,204.261 1248.65,178.74 1249.31,168.339 1249.97,182.695 1250.64,152.287 1251.3,177.922 1251.97,190.018 1252.63,172.688 1253.29,177.475 1253.96,154.774 1254.62,145.325 1255.29,166.224 1255.95,161.6 1256.61,163.06 1257.28,155.068 1257.94,157.426 1258.6,157.281 1259.27,218.087 1259.93,199.75 1260.6,155.268 1261.26,191.387 1261.92,167.204 1262.59,178.893 1263.25,164.568 1263.92,153.765 1264.58,148.69 1265.24,154.036 1265.91,378.21 1266.57,181.133 1267.24,82.4278 1267.9,122.19 1268.56,201.895 1269.23,276.382 1269.89,187.221 1270.56,187.314 1271.22,183.038 1271.88,163.892 1272.55,197.714 1273.21,297.07 1273.88,180.871 1274.54,192.214 1275.2,182.523 1275.87,160.283 1276.53,162.74 1277.2,174.76 1277.86,176.939 1278.52,196.508 1279.19,134.133 1279.85,263.186 1280.51,292.571 1281.18,163.708 1281.84,174.634 1282.51,175.983 1283.17,214.529 1283.83,199.75 1284.5,179.162 1285.16,166.263 1285.83,181.63 1286.49,143.653 1287.15,168.51 1287.82,177.758 1288.48,160.656 1289.15,175.634 1289.81,167.343 1290.47,181.649 1291.14,145.452 1291.8,155.92 1292.47,123.463 1293.13,160.356 1293.79,170.205 1294.46,165.164 1295.12,167.821 1295.79,183.574 1296.45,200.018 1297.11,152.661 1297.78,167.54 1298.44,182.104 1299.11,167.792 1299.77,184.927 1300.43,152.592 1301.1,305.366 1301.76,145.793 1302.42,194.001 1303.09,190.543 1303.75,159.676 1304.42,135.284 1305.08,192.114 1305.74,160.475 1306.41,168.905 1307.07,165.856 1307.74,174.155 1308.4,157.84 1309.06,225.798 1309.73,203.893 1310.39,215.995 1311.06,162.717 1311.72,178.035 1312.38,163.724 1313.05,155.995 1313.71,161.861 1314.38,195.919 1315.04,144.969 1315.7,176.471 1316.37,157.026 1317.03,234.797 1317.7,179.247 1318.36,167.344 1319.02,167.249 1319.69,166.254 1320.35,158.735 1321.02,201.086 1321.68,160.497 1322.34,214.775 1323.01,149.551 1323.67,148.284 1324.33,149.766 1325,177.569 1325.66,162.893 1326.33,168.308 1326.99,149.3 1327.65,186.982 1328.32,170.386 1328.98,150.191 1329.65,153.739 1330.31,144.184 1330.97,169.757 1331.64,132.996 1332.3,174.635 1332.97,164.497 1333.63,162.328 1334.29,168.1 1334.96,166.229 1335.62,120.934 1336.29,166.771 1336.95,153.737 1337.61,162.035 1338.28,124.317 1338.94,148.32 1339.61,115.036 1340.27,207.941 1340.93,181.43 1341.6,115.114 1342.26,183.993 1342.93,166.517 1343.59,176.12 1344.25,142.65 1344.92,169.635 1345.58,182.609 1346.24,136.76 1346.91,153.541 1347.57,187.945 1348.24,180.058 1348.9,169.114 1349.56,143.052 1350.23,312.346 1350.89,203.451 1351.56,193.591 1352.22,187.297 1352.88,208.994 1353.55,214.167 1354.21,197.934 1354.88,164.482 1355.54,183.362 1356.2,179.619 1356.87,192.367 1357.53,153.684 1358.2,196.012 1358.86,171.832 1359.52,154.712 1360.19,134.657 1360.85,146.503 1361.52,157.622 1362.18,188.729 1362.84,188.607 1363.51,156.33 1364.17,162.447 1364.84,196.71 1365.5,141.002 1366.16,170.494 1366.83,178.346 1367.49,176.959 1368.15,175.569 1368.82,166.231 1369.48,203.265 1370.15,157.683 1370.81,154.901 1371.47,170.312 1372.14,146.902 1372.8,152.824 1373.47,156.365 1374.13,137.59 1374.79,142.481 1375.46,162.937 1376.12,215.952 1376.79,154.398 1377.45,145.742 1378.11,149.071 1378.78,118.679 1379.44,202.867 1380.11,192.904 1380.77,158.994 1381.43,191.903 1382.1,148.424 1382.76,131.829 1383.43,184.371 1384.09,127.879 1384.75,188.44 1385.42,140.371 1386.08,126.418 1386.75,215.257 1387.41,175.577 1388.07,188.501 1388.74,145.337 1389.4,207.056 1390.06,169.356 1390.73,174.664 1391.39,150.657 1392.06,160.97 1392.72,162.438 1393.38,164.526 1394.05,156.433 1394.71,139.938 1395.38,122.728 1396.04,274.621 1396.7,182.181 1397.37,172.229 1398.03,159.425 1398.7,166.478 1399.36,126.387 1400.02,224.653 1400.69,181.114 1401.35,162.116 1402.02,187.585 1402.68,163.452 1403.34,164.924 1404.01,173.217 1404.67,160.187 1405.34,157.463 1406,170.306 1406.66,219.688 1407.33,163.615 1407.99,181.901 1408.66,146.26 1409.32,172.343 1409.98,222.217 1410.65,154.556 1411.31,151.392 1411.97,157.02 1412.64,166.824 1413.3,188.976 1413.97,169.195 1414.63,178.776 1415.29,172.582 1415.96,142.086 1416.62,232.653 1417.29,149.852 1417.95,154.16 1418.61,170.993 1419.28,158.002 1419.94,197.618 1420.61,175.587 1421.27,171.4 1421.93,185.879 1422.6,166.264 1423.26,158.49 1423.93,351.86 1424.59,224.002 1425.25,146.093 1425.92,199.974 1426.58,174.119 1427.25,169.737 1427.91,175.473 1428.57,156.4 1429.24,192.438 1429.9,149.799 1430.56,149.569 1431.23,161.641 1431.89,186.993 1432.56,178.744 1433.22,173.046 1433.88,191.725 1434.55,178.109 1435.21,187.806 1435.88,169.242 1436.54,206.013 1437.2,177.825 1437.87,117.882 1438.53,156.529 1439.2,168.998 1439.86,180.852 1440.52,186.69 1441.19,162.293 1441.85,155.709 1442.52,139.705 1443.18,164.079 1443.84,166.257 1444.51,97.1738 1445.17,226.924 1445.84,86.9455 1446.5,171.002 1447.16,171.977 1447.83,164.004 1448.49,191.661 1449.16,175.268 1449.82,182.476 1450.48,182.299 1451.15,92.9568 1451.81,182.045 1452.47,167.323 1453.14,154.198 1453.8,174.671 1454.47,191.025 1455.13,174.2 1455.79,173.742 1456.46,147.526 1457.12,151.778 1457.79,171.818 1458.45,172.836 1459.11,129.102 1459.78,167.212 1460.44,140.314 1461.11,159.673 1461.77,197.137 1462.43,167.794 1463.1,184.916 1463.76,193.814 1464.43,156.95 1465.09,190.261 1465.75,166.02 1466.42,158.616 1467.08,162.634 1467.75,181.998 1468.41,171.202 1469.07,163.264 1469.74,154.34 1470.4,156.34 1471.07,157.636 1471.73,170.273 1472.39,187.787 1473.06,139.803 1473.72,163.044 1474.38,182.114 1475.05,152.67 1475.71,164.912 1476.38,140.404 1477.04,155.112 1477.7,207.415 1478.37,154.698 1479.03,203.87 1479.7,161.511 1480.36,171.763 1481.02,169.902 1481.69,166.37 1482.35,176.994 1483.02,142.284 1483.68,143.432 1484.34,215.411 1485.01,170.019 1485.67,172.377 1486.34,159.649 1487,193.739 1487.66,193.504 1488.33,176.135 1488.99,194.739 1489.66,165.023 1490.32,164.43 1490.98,129.835 1491.65,161.455 1492.31,154.609 1492.98,177.578 1493.64,188.313 1494.3,167.465 1494.97,151.416 1495.63,161.68 1496.29,123.489 1496.96,149.184 1497.62,156.319 1498.29,171.341 1498.95,185.783 1499.61,179.631 1500.28,146.259 1500.94,141.457 1501.61,175.608 1502.27,180.463 1502.93,177.188 1503.6,160.394 1504.26,175.337 1504.93,171.729 1505.59,155.759 1506.25,164.432 1506.92,171.035 1507.58,154.601 1508.25,164.242 1508.91,174.9 1509.57,158.156 1510.24,177.922 1510.9,159.09 1511.57,186.101 1512.23,148.26 1512.89,138.822 1513.56,231.062 1514.22,186.973 1514.89,151.758 1515.55,180.08 1516.21,179.676 1516.88,165.952 1517.54,167.951 1518.2,160.317 1518.87,175.928 1519.53,176.146 1520.2,157.187 1520.86,168.895 1521.52,217.569 1522.19,171.249 1522.85,176.628 1523.52,132.004 1524.18,190.993 1524.84,184.177 1525.51,159.388 1526.17,191.635 1526.84,153.676 1527.5,142.102 1528.16,181.199 1528.83,157.118 1529.49,166.83 1530.16,171.974 1530.82,166.458 1531.48,150.576 1532.15,159.436 1532.81,161.213 1533.48,135.927 1534.14,278.753 1534.8,164.021 1535.47,178.322 1536.13,164.555 1536.8,171.857 1537.46,195.339 1538.12,171.454 1538.79,140.122 1539.45,165.051 1540.11,160.902 1540.78,160.678 1541.44,156.604 1542.11,209.663 1542.77,157.902 1543.43,149.092 1544.1,168.17 1544.76,146.395 1545.43,143.961 1546.09,179.143 1546.75,116.551 1547.42,193.197 1548.08,165.42 1548.75,138.656 1549.41,142.546 1550.07,188.579 1550.74,153.774 1551.4,181.769 1552.07,161.626 1552.73,162.496 1553.39,179.558 1554.06,161.738 1554.72,177.851 1555.39,159.207 1556.05,188.042 1556.71,138.493 1557.38,172.325 1558.04,141.829 1558.71,165.702 1559.37,171.841 1560.03,162.628 1560.7,159.815 1561.36,171.651 1562.02,161.478 1562.69,166.657 1563.35,169.311 1564.02,183.823 1564.68,156.88 1565.34,166.151 1566.01,172.335 1566.67,162.125 1567.34,139.951 1568,179.147 1568.66,165.355 1569.33,176.211 1569.99,165.795 1570.66,150.09 1571.32,172.518 1571.98,161.655 1572.65,168.825 1573.31,172.113 1573.98,177.949 1574.64,169.108 1575.3,161.69 1575.97,181.949 1576.63,172.523 1577.3,164.703 1577.96,160.116 1578.62,158.738 1579.29,119.356 1579.95,218.952 1580.62,220.998 1581.28,156.601 1581.94,117.655 1582.61,174.197 1583.27,156.051 1583.93,160.531 1584.6,192.539 1585.26,134.497 1585.93,185.57 1586.59,158.514 1587.25,132.196 1587.92,154.615 1588.58,182.914 1589.25,160.239 1589.91,177.535 1590.57,164.712 1591.24,164.503 1591.9,147.422 1592.57,150.261 1593.23,199.56 1593.89,174.201 1594.56,170.473 1595.22,154.067 1595.89,167.394 1596.55,173.094 1597.21,160.874 1597.88,157.133 1598.54,208.001 1599.21,161.278 1599.87,163.256 1600.53,168.436 1601.2,220.34 1601.86,125.827 1602.53,200.422 1603.19,162.651 1603.85,170.525 1604.52,190.29 1605.18,158.899 1605.84,189.419 1606.51,152.169 1607.17,162.566 1607.84,173.281 1608.5,153.774 1609.16,178.088 1609.83,151.793 1610.49,118.434 1611.16,236.04 1611.82,161.834 1612.48,155.059 1613.15,168.232 1613.81,210.796 1614.48,167.426 1615.14,167.679 1615.8,155.263 1616.47,165.276 1617.13,158.903 1617.8,152.428 1618.46,165.864 1619.12,139.801 1619.79,154.859 1620.45,129.864 1621.12,178.649 1621.78,123.838 1622.44,147.581 1623.11,167.814 1623.77,165.837 1624.44,204.28 1625.1,192.005 1625.76,165.85 1626.43,144.463 1627.09,158.166 1627.75,165.737 1628.42,160.789 1629.08,172.443 1629.75,162.838 1630.41,100.431 1631.07,223.561 1631.74,203.034 1632.4,134.876 1633.07,178.94 1633.73,174.462 1634.39,155.987 1635.06,165.793 1635.72,158.997 1636.39,145.949 1637.05,147.556 1637.71,223.932 1638.38,175.61 1639.04,139.776 1639.71,156.79 1640.37,157.959 1641.03,145.194 1641.7,147.499 1642.36,149.494 1643.03,130.118 1643.69,223.565 1644.35,202.756 1645.02,156.185 1645.68,200.173 1646.35,211.684 1647.01,147.616 1647.67,148.238 1648.34,153.991 1649,217.865 1649.66,161.079 1650.33,148.781 1650.99,171.081 1651.66,158.032 1652.32,160.223 1652.98,168.133 1653.65,168.709 1654.31,215.433 1654.98,168.599 1655.64,166.21 1656.3,171.182 1656.97,159.553 1657.63,178.91 1658.3,147.542 1658.96,143.228 1659.62,160.195 1660.29,152.624 1660.95,148.087 1661.62,160.464 1662.28,195.743 1662.94,153.774 1663.61,155.088 1664.27,190.168 1664.94,161.06 1665.6,146.041 1666.26,166.228 1666.93,152.323 1667.59,136.955 1668.26,168.756 1668.92,159.685 1669.58,178.929 1670.25,172.44 1670.91,187.343 1671.57,168.502 1672.24,157.13 1672.9,128.102 1673.57,168.155 1674.23,157.747 1674.89,153.386 1675.56,171.871 1676.22,146.663 1676.89,177.823 1677.55,193.274 1678.21,170.147 1678.88,154.992 1679.54,210.049 1680.21,160.703 1680.87,289.107 1681.53,178.721 1682.2,184.34 1682.86,150.084 1683.53,182.925 1684.19,158.851 1684.85,159.745 1685.52,184.929 1686.18,172.223 1686.85,158.723 1687.51,165.988 1688.17,160.587 1688.84,172.073 1689.5,162.579 1690.17,177.185 1690.83,171.254 1691.49,162.532 1692.16,161.817 1692.82,173.254 1693.48,159.78 1694.15,144.74 1694.81,118.53 1695.48,170.167 1696.14,163.954 1696.8,150.298 1697.47,156.567 1698.13,155.606 1698.8,123.802 1699.46,226.642 1700.12,191.148 1700.79,171.489 1701.45,177.15 1702.12,150.728 1702.78,188.86 1703.44,154.766 1704.11,134.136 1704.77,176.123 1705.44,164.147 1706.1,183.955 1706.76,168.83 1707.43,153.11 1708.09,191.212 1708.76,158.256 1709.42,148.139 1710.08,155.085 1710.75,167.264 1711.41,156.538 1712.07,197.243 1712.74,182.408 1713.4,153.469 1714.07,178.562 1714.73,160.49 1715.39,153.211 1716.06,170.987 1716.72,154.116 1717.39,160.13 1718.05,158.331 1718.71,160.24 1719.38,177.361 1720.04,171.127 1720.71,158.168 1721.37,155.849 1722.03,135.524 1722.7,201.633 1723.36,163.619 1724.03,162.168 1724.69,150.256 1725.35,161.992 1726.02,182.098 1726.68,151.503 1727.35,171.91 1728.01,144.659 1728.67,153.74 1729.34,201.598 1730,157.673 1730.67,153.302 1731.33,133.741 1731.99,185.243 1732.66,173.932 1733.32,179.458 1733.98,375.493 1734.65,203.009 1735.31,161.648 1735.98,190.542 1736.64,181.384 1737.3,187.086 1737.97,209.18 1738.63,194.431 1739.3,146.065 1739.96,164.456 1740.62,182.528 1741.29,167.807 1741.95,131.498 1742.62,171.013 1743.28,177.018 1743.94,152.07 1744.61,187.201 1745.27,171.137 1745.94,161.641 1746.6,146.579 1747.26,169.702 1747.93,194.018 1748.59,212.73 1749.26,74.6451 1749.92,230.678 1750.58,184.457 1751.25,159.692 1751.91,210.473 1752.58,181.764 1753.24,159.864 1753.9,151.398 1754.57,168.735 1755.23,178.108 1755.89,145.703 1756.56,157.984 1757.22,181.069 1757.89,175.649 1758.55,185.449 1759.21,162.253 1759.88,164.27 1760.54,143.648 1761.21,186.42 1761.87,159.531 1762.53,162.483 1763.2,143.085 1763.86,154.711 1764.53,173.581 1765.19,162.936 1765.85,190.754 1766.52,183.038 1767.18,157.636 1767.85,168.792 1768.51,168.497 1769.17,164.253 1769.84,154.305 1770.5,176.242 1771.17,142.04 1771.83,126.398 1772.49,140.363 1773.16,165.231 1773.82,181.731 1774.49,153.612 1775.15,161.536 1775.81,199.619 1776.48,197.844 1777.14,166.783 1777.8,146.082 1778.47,106.264 1779.13,173.388 1779.8,134.225 1780.46,251.523 1781.12,167.663 1781.79,178.348 1782.45,164.362 1783.12,181.173 1783.78,170.033 1784.44,183.774 1785.11,163.421 1785.77,165.727 1786.44,177.968 1787.1,151.132 1787.76,163.363 1788.43,167.749 1789.09,162.637 1789.76,162.02 1790.42,156.929 1791.08,169.646 1791.75,153.46 1792.41,174.857 1793.08,132.829 1793.74,158.23 1794.4,187.957 1795.07,176.593 1795.73,155.104 1796.4,177.155 1797.06,154.33 1797.72,153.399 1798.39,151.264 1799.05,204.954 1799.71,171.699 1800.38,166.613 1801.04,172.921 1801.71,150.663 1802.37,170.471 1803.03,132.395 1803.7,156.204 1804.36,153.302 1805.03,184.905 1805.69,161.089 1806.35,149.039 1807.02,196.831 1807.68,176.321 1808.35,167.202 1809.01,162.501 1809.67,197.694 1810.34,161.862 1811,173.076 1811.67,152.025 1812.33,164.749 1812.99,181.39 1813.66,154.673 1814.32,163.924 1814.99,184.744 1815.65,171.771 1816.31,185.966 1816.98,170.2 1817.64,155.471 1818.31,188.775 1818.97,161.109 1819.63,161.824 1820.3,139.333 1820.96,176.849 1821.62,114.105 1822.29,159.091 1822.95,128.139 1823.62,173.796 1824.28,170.066 1824.94,120.56 1825.61,170.827 1826.27,156.182 1826.94,176.109 1827.6,186.109 1828.26,209.152 1828.93,190.656 1829.59,177.783 1830.26,172.87 1830.92,164.878 1831.58,151.15 1832.25,150.945 1832.91,170.845 1833.58,144.333 1834.24,158.44 1834.9,171.323 1835.57,170.38 1836.23,136.952 1836.9,169.337 1837.56,177.738 1838.22,177.454 1838.89,173.528 1839.55,151.223 1840.22,131.331 1840.88,187.916 1841.54,156.919 1842.21,168.582 1842.87,171.577 1843.53,199.881 1844.2,172.908 1844.86,181.363 1845.53,171.268 1846.19,155.238 1846.85,166.254 1847.52,171.719 1848.18,183.353 1848.85,170.941 1849.51,177.264 1850.17,153.462 1850.84,152.1 1851.5,151.142 1852.17,170.585 1852.83,169.678 1853.49,193.662 1854.16,183.611 1854.82,169.444 1855.49,166.778 1856.15,159.314 1856.81,172.069 1857.48,174.715 1858.14,176.217 1858.81,165.749 1859.47,151.214 1860.13,166.287 1860.8,164.417 1861.46,174.613 1862.13,175.754 1862.79,147.204 1863.45,166.485 1864.12,99.8162 1864.78,203.02 1865.44,166.169 1866.11,189.161 1866.77,175.896 1867.44,164.22 1868.1,171.725 1868.76,159.559 1869.43,169.235 1870.09,160.552 1870.76,163.988 1871.42,167.199 1872.08,162.139 1872.75,173.39 1873.41,163.637 1874.08,168.689 1874.74,168.404 1875.4,167.213 1876.07,149.451 1876.73,160.366 1877.4,182.081 1878.06,163.808 1878.72,160.662 1879.39,177.373 1880.05,156.422 1880.72,164.746 1881.38,152.61 1882.04,179.564 1882.71,192.322 1883.37,167.824 1884.04,168.292 1884.7,146.722 1885.36,166.15 1886.03,153.404 1886.69,156.058 1887.35,165.106 1888.02,156.644 1888.68,181.647 1889.35,160.231 1890.01,142.631 1890.67,185.808 1891.34,182.769 1892,137.558 1892.67,170.038 1893.33,178.954 1893.99,156.317 1894.66,161.36 1895.32,155.54 1895.99,101.275 1896.65,141.878 1897.31,192.303 1897.98,197.364 1898.64,162.495 1899.31,136.938 1899.97,196.552 1900.63,164.769 1901.3,176.86 1901.96,166.679 1902.63,148.514 1903.29,184.344 1903.95,166.74 1904.62,163.825 1905.28,184.277 1905.95,172.191 1906.61,139.184 1907.27,116.263 1907.94,209.368 1908.6,164.507 1909.26,166.884 1909.93,191.257 1910.59,149.707 1911.26,160.143 1911.92,181.662 1912.58,163.691 1913.25,155.459 1913.91,173.108 1914.58,172.723 1915.24,127.61 1915.9,194.044 1916.57,99.6642 1917.23,184.445 1917.9,178.755 1918.56,161.757 1919.22,171.934 1919.89,190.716 1920.55,154.057 1921.22,180.199 1921.88,172.04 1922.54,126.724 1923.21,138.145 1923.87,219.489 1924.54,178.684 1925.2,175.475 1925.86,174.813 1926.53,145.481 1927.19,226.651 1927.86,127.67 1928.52,182.708 1929.18,176.386 1929.85,194.694 1930.51,182.67 1931.17,177.882 1931.84,169.644 1932.5,154.605 1933.17,138.9 1933.83,170.728 1934.49,160.524 1935.16,156.493 1935.82,149.096 1936.49,172.543 1937.15,179.348 1937.81,155.518 1938.48,171.653 1939.14,170.059 1939.81,170.282 1940.47,226.663 1941.13,160.521 1941.8,177.772 1942.46,162.95 1943.13,161.463 1943.79,168.986 1944.45,155.801 1945.12,164.683 1945.78,167.167 1946.45,197.87 1947.11,173.915 1947.77,185.262 1948.44,178.358 1949.1,161.777 1949.77,163.037 1950.43,174.036 1951.09,172.414 1951.76,163.792 1952.42,155.336 1953.08,162.726 1953.75,165.131 1954.41,153.082 1955.08,174.059 1955.74,167.097 1956.4,156.985 1957.07,179.582 1957.73,160.146 1958.4,168.747 1959.06,149.44 1959.72,144.602 1960.39,217.845 1961.05,163.727 1961.72,156.645 1962.38,196.538 1963.04,168 1963.71,158.891 1964.37,161.467 1965.04,167.342 1965.7,174.903 1966.36,148.428 1967.03,207.471 1967.69,151.113 1968.36,187.443 1969.02,157.653 1969.68,158.261 1970.35,154.186 1971.01,182.567 1971.68,165.141 1972.34,177.021 1973,166.703 1973.67,156.541 1974.33,148.66 1974.99,172.135 1975.66,148.689 1976.32,159.843 1976.99,151.107 1977.65,171.31 1978.31,188.904 1978.98,170.318 1979.64,145.484 1980.31,195.305 1980.97,163.123 1981.63,173.802 1982.3,151.908 1982.96,159.473 1983.63,147.44 1984.29,180.155 1984.95,143.623 1985.62,145.7 1986.28,209.728 1986.95,152.8 1987.61,155.475 1988.27,171.134 1988.94,155.396 1989.6,151.617 1990.27,189.426 1990.93,171.422 1991.59,166.18 1992.26,182.241 1992.92,170.353 1993.58,157.041 1994.25,165.428 1994.91,146.975 1995.58,159.319 1996.24,169.338 1996.9,180.77 1997.57,182.066 1998.23,173.503 1998.9,165.052 1999.56,169.616 2000.22,170.65 2000.89,151.899 2001.55,186.081 2002.22,202.568 2002.88,139.736 2003.54,154.214 2004.21,167.267 2004.87,181.038 2005.54,158.911 2006.2,193.314 2006.86,168.866 2007.53,157.92 2008.19,169.266 2008.86,150.39 2009.52,157.878 2010.18,221.966 2010.85,152.984 2011.51,147.574 2012.18,174.27 2012.84,165.875 2013.5,155.181 2014.17,200.632 2014.83,172.622 2015.49,171.228 2016.16,174.412 2016.82,149.922 2017.49,169.231 2018.15,168.776 2018.81,161.437 2019.48,142.28 2020.14,177.503 2020.81,164.281 2021.47,140.172 2022.13,146.08 2022.8,174.642 2023.46,172.278 2024.13,167.076 2024.79,143.409 2025.45,187.846 2026.12,171.704 2026.78,167.207 2027.45,150.749 2028.11,182.994 2028.77,182.806 2029.44,169.856 2030.1,155.397 2030.77,207.595 2031.43,153.06 2032.09,145.102 2032.76,135.661 2033.42,166.445 2034.09,250.206 2034.75,172.446 2035.41,144.88 2036.08,177.673 2036.74,162.261 2037.4,172.542 2038.07,168.358 2038.73,149.663 2039.4,158.161 2040.06,132.582 2040.72,153.046 2041.39,177.17 2042.05,159.904 2042.72,148.161 2043.38,163.71 2044.04,190.839 2044.71,139.939 2045.37,209.78 2046.04,168.659 2046.7,179.917 2047.36,139.379 2048.03,180.522 2048.69,183.55 2049.36,163.153 2050.02,169.075 2050.68,181.4 2051.35,158.931 2052.01,146.987 2052.68,164.175 2053.34,167.969 2054,166.214 2054.67,117.441 2055.33,176.743 2056,150.173 2056.66,189.808 2057.32,187.585 2057.99,173.08 2058.65,169.636 2059.31,171.441 2059.98,193.559 2060.64,157.523 2061.31,166.83 2061.97,184.698 2062.63,153.114 2063.3,161.712 2063.96,164.677 2064.63,112.276 2065.29,161.319 2065.95,173.719 2066.62,178.11 2067.28,164.174 2067.95,171.543 2068.61,136.198 2069.27,165.802 2069.94,176.59 2070.6,166.812 2071.27,144.776 2071.93,173.015 2072.59,133.807 2073.26,177.097 2073.92,157.421 2074.59,141.324 2075.25,172.751 2075.91,167.706 2076.58,153.847 2077.24,147.974 2077.91,133.735 2078.57,203.789 2079.23,175.188 2079.9,246.54 2080.56,172.106 2081.22,166.723 2081.89,166.942 2082.55,165.935 2083.22,170.285 2083.88,160.574 2084.54,158.948 2085.21,170.683 2085.87,138.829 2086.54,159.629 2087.2,149.734 2087.86,162.704 2088.53,213.587 2089.19,162.57 2089.86,181.805 2090.52,172.806 2091.18,137.225 2091.85,189.48 2092.51,160.321 2093.18,176.07 2093.84,172.311 2094.5,155.588 2095.17,175.313 2095.83,200.182 2096.5,142.585 2097.16,180.111 2097.82,162.67 2098.49,165.541 2099.15,153.368 2099.82,142.582 2100.48,187.491 2101.14,159.368 2101.81,174.112 2102.47,171.921 2103.13,156.253 2103.8,143.17 2104.46,187.394 2105.13,153.138 2105.79,158.078 2106.45,203.359 2107.12,169.018 2107.78,164.372 2108.45,161.524 2109.11,153.447 2109.77,181.319 2110.44,132.598 2111.1,146.34 2111.77,112.857 2112.43,162.398 2113.09,196.757 2113.76,161.303 2114.42,167.008 2115.09,150.807 2115.75,195.276 2116.41,163.329 2117.08,186.483 2117.74,160.55 2118.41,143.771 2119.07,167.778 2119.73,161.593 2120.4,161.936 2121.06,165.602 2121.73,122.738 2122.39,188.603 2123.05,172.434 2123.72,105.93 2124.38,187.545 2125.04,190.671 2125.71,189.715 2126.37,174.269 2127.04,161.275 2127.7,175.891 2128.36,171.734 2129.03,181.024 2129.69,149.239 2130.36,153.049 2131.02,197.074 2131.68,158.582 2132.35,185.303 2133.01,168.876 2133.68,152.418 2134.34,149.154 2135,162.823 2135.67,180.713 2136.33,170.613 2137,174.26 2137.66,162.636 2138.32,138.791 2138.99,145.718 2139.65,143.071 2140.32,168.192 2140.98,148.985 2141.64,186.568 2142.31,132.066 2142.97,172.36 2143.64,142.707 2144.3,164.547 2144.96,184.447 2145.63,153.276 2146.29,149.893 2146.95,165.591 2147.62,166.221 2148.28,162.431 2148.95,161.14 2149.61,153.91 2150.27,156.683 2150.94,197.728 2151.6,172.478 2152.27,186.358 2152.93,171.352 2153.59,201.571 2154.26,194.319 2154.92,178.233 2155.59,162.431 2156.25,139.847 2156.91,171.083 2157.58,155.961 2158.24,190.628 2158.91,204.025 2159.57,165.692 2160.23,165.322 2160.9,169.783 2161.56,167.717 2162.23,158.723 2162.89,163.013 2163.55,148.08 2164.22,170.892 2164.88,170.623 2165.55,141.973 2166.21,167.354 2166.87,146.083 2167.54,147.08 2168.2,167.527 2168.86,165.315 2169.53,161.61 2170.19,169.403 2170.86,143.799 2171.52,173.976 2172.18,156.117 2172.85,172.989 2173.51,159.378 2174.18,135.472 2174.84,192.751 2175.5,179.916 2176.17,164.556 2176.83,155.471 2177.5,150.603 2178.16,139.669 2178.82,171.453 2179.49,154.804 2180.15,179.576 2180.82,150.103 2181.48,218.343 2182.14,175.131 2182.81,184.046 2183.47,169.993 2184.14,179.832 2184.8,161.095 2185.46,157.551 2186.13,167.193 2186.79,156.127 2187.46,164.727 2188.12,153.434 2188.78,167.573 2189.45,164.738 2190.11,173.44 2190.77,180.313 2191.44,247.362 2192.1,200.574 2192.77,155.985 2193.43,173.571 2194.09,172.293 2194.76,165.454 2195.42,146.761 2196.09,164.899 2196.75,152.481 2197.41,162.753 2198.08,171.822 2198.74,182.29 2199.41,169.963 2200.07,164.285 2200.73,167.868 2201.4,156.934 2202.06,161.944 2202.73,194.015 2203.39,47.2441 2204.05,200.493 2204.72,187.001 2205.38,157.166 2206.05,169.073 2206.71,161.376 2207.37,213.273 2208.04,181.253 2208.7,181.249 2209.37,175.174 2210.03,152.543 2210.69,164.678 2211.36,212.925 2212.02,172.753 2212.68,171.679 2213.35,160.823 2214.01,166.59 2214.68,176.542 2215.34,180.691 2216,177.17 2216.67,147.893 2217.33,154.435 2218,155.163 2218.66,147.336 2219.32,190.203 2219.99,158.999 2220.65,167.655 2221.32,183.854 2221.98,187.883 2222.64,170.435 2223.31,147.568 2223.97,163.529 2224.64,164.165 2225.3,177.401 2225.96,145.865 2226.63,136.347 2227.29,166.574 2227.96,151.177 2228.62,163.947 2229.28,157.718 2229.95,203.719 2230.61,197.179 2231.28,188.307 2231.94,155.903 2232.6,182.341 2233.27,165.059 2233.93,170.267 2234.59,174.605 2235.26,167.108 2235.92,166.48 2236.59,179.302 2237.25,177.508 2237.91,169.173 2238.58,159.085 2239.24,186.679 2239.91,158.477 2240.57,165.124 2241.23,171.412 2241.9,158.948 2242.56,165.645 2243.23,176.946 2243.89,162.557 2244.55,171.445 2245.22,175.43 2245.88,153.885 2246.55,126.119 2247.21,143.734 2247.87,144.356 2248.54,223.669 2249.2,164.22 2249.87,160.317 2250.53,161.024 2251.19,170.034 2251.86,170.281 2252.52,140.708 2253.19,165.543 2253.85,161.96 2254.51,176.893 2255.18,187.871 2255.84,165.414 2256.5,174.815 2257.17,185.118 2257.83,166.166 2258.5,176.611 2259.16,161.548 2259.82,171.064 2260.49,160.64 2261.15,158.8 2261.82,157.988 2262.48,177.047 2263.14,160.159 2263.81,156.151 2264.47,181.989 2265.14,164.094 2265.8,157.601 2266.46,158.083 2267.13,166.227 2267.79,169.41 2268.46,153.605 2269.12,160.966 2269.78,171.124 2270.45,174.4 2271.11,179.479 2271.78,171.705 2272.44,167.074 2273.1,162.108 2273.77,163.36 2274.43,155.937 2275.09,166.232 2275.76,138.456 2276.42,184.121 2277.09,179.29 2277.75,158.556 2278.41,147.83 2279.08,181.803 2279.74,153.95 2280.41,172.841 2281.07,168.364 2281.73,173.134 2282.4,106 2283.06,183.935 2283.73,189.833 2284.39,176.23 2285.05,171.099 2285.72,167.305 2286.38,168.306 2287.05,169.902 2287.71,163.079 2288.37,158.792 2289.04,153.324 2289.7,159.405 2290.37,154.419 2291.03,198.24 2291.69,165.332 2292.36,160.133 2293.02,152.749 "/>
<path clip-path="url(#clip890)" d="M2018.91 1377.32 L2282.4 1377.32 L2282.4 1273.64 L2018.91 1273.64  Z" fill="#ffffff" fill-rule="evenodd" fill-opacity="1"/>
<polyline clip-path="url(#clip890)" style="stroke:#000000; stroke-linecap:round; stroke-linejoin:round; stroke-width:4; stroke-opacity:1; fill:none" points="2018.91,1377.32 2282.4,1377.32 2282.4,1273.64 2018.91,1273.64 2018.91,1377.32 "/>
<polyline clip-path="url(#clip890)" style="stroke:#009af9; stroke-linecap:round; stroke-linejoin:round; stroke-width:4; stroke-opacity:1; fill:none" points="2042.36,1325.48 2183.07,1325.48 "/>
<path clip-path="url(#clip890)" d="M2220.36 1345.16 Q2218.56 1349.79 2216.84 1351.2 Q2215.13 1352.62 2212.26 1352.62 L2208.86 1352.62 L2208.86 1349.05 L2211.36 1349.05 Q2213.12 1349.05 2214.09 1348.22 Q2215.06 1347.38 2216.24 1344.28 L2217.01 1342.34 L2206.52 1316.83 L2211.03 1316.83 L2219.14 1337.11 L2227.24 1316.83 L2231.75 1316.83 L2220.36 1345.16 Z" fill="#000000" fill-rule="nonzero" fill-opacity="1" /><path clip-path="url(#clip890)" d="M2239.04 1338.82 L2246.68 1338.82 L2246.68 1312.45 L2238.37 1314.12 L2238.37 1309.86 L2246.64 1308.2 L2251.31 1308.2 L2251.31 1338.82 L2258.95 1338.82 L2258.95 1342.76 L2239.04 1342.76 L2239.04 1338.82 Z" fill="#000000" fill-rule="nonzero" fill-opacity="1" /></svg>
